<svg id="kvg-04e3b" class="kanjivg" width="106" height="126" xmlns="http://www.w3.org/2000/svg" xmlns:xlink="http://www.w3.org/1999/xlink" xml:space="preserve" version="1.1" baseProfile="full"><defs><style type="text/css"><![CDATA[path.black{fill:none;stroke:black;stroke-width:5;stroke-linecap:round;stroke-linejoin:round;}path.grey{fill:none;stroke:#ddd;stroke-width:5;stroke-linecap:round;stroke-linejoin:round;}path.stroke{fill:none;stroke:black;stroke-width:5;stroke-linecap:round;stroke-linejoin:round;}rect{fill:none;stroke:#555;stroke-width:2;} text{font-size:16px;font-family:Segoe UI Symbol,Cambria Math,DejaVu Sans,Symbola,Quivira,STIX,Code2000;-webkit-touch-callout:none;cursor:pointer;-webkit-user-select:none;-khtml-user-select:none;-moz-user-select:none;-ms-user-select:none;user-select: none;}text:hover{color:#777;}#reset{font-weight:bold;}]]></style><marker id="markerStart" markerWidth="8" markerHeight="8" style="overflow:visible;"><circle cx="0" cy="0" r="1.5" style="stroke:none;fill:red;fill-opacity:0.5;"/></marker><marker id="markerEnd" style="overflow:visible;"><circle cx="0" cy="0" r="0.8" style="stroke:none;fill:blue;fill-opacity:0.5;"><animate attributeName="opacity" from="1" to="0" dur="3s" repeatCount="indefinite" /></circle></marker></defs><rect x="4" y="4" width="100" height="100" /><path d="M42.5,14.38c4.89,1.83,12.09,6.99,13.31,9.84" class="grey" /><path d="M25,39.36c2.59,0.85,5.96,0.5,8.63,0.17c12.89-1.59,25.99-4.01,39.63-4.75c2.53-0.14,5.01-0.11,7.5,0.43" class="grey" /><path d="M52.75,39.83c1.27,1.27,1.75,2.83,1.75,3.75c0,6.41,0.25,38.3,0.25,45.17" class="grey" /><path d="M27.75,64.82c2,0.43,4.84,0.43,6.88,0.16c11.12-1.48,25.35-3.34,36.62-4.26c2.68-0.22,5.88-0.34,8.13,0.14" class="grey" /><path d="M15.5,92.76c2.69,0.62,6.06,0.7,8.22,0.5c17.03-1.51,42.29-5.39,60.96-5.3c3.48,0.02,6.58,0.24,8.33,0.69" class="grey" /><path d="M42.5,14.38c4.89,1.83,12.09,6.99,13.31,9.84" class="stroke" stroke-dasharray="150"><animate attributeName="stroke-dashoffset" from="150" to="0" dur="1.8s" begin="0.0s" fill="freeze" /></path><path d="M25,39.36c2.59,0.85,5.96,0.5,8.63,0.17c12.89-1.59,25.99-4.01,39.63-4.75c2.53-0.14,5.01-0.11,7.5,0.43" class="stroke" stroke-dasharray="150"><set attributeName="opacity" to="0" dur="0.9s" /><animate attributeName="stroke-dashoffset" from="150" to="0" dur="1.8s" begin="0.9s" fill="freeze" /></path><path d="M52.75,39.83c1.27,1.27,1.75,2.83,1.75,3.75c0,6.41,0.25,38.3,0.25,45.17" class="stroke" stroke-dasharray="150"><set attributeName="opacity" to="0" dur="2.3s" /><animate attributeName="stroke-dashoffset" from="150" to="0" dur="1.8s" begin="2.3s" fill="freeze" /></path><path d="M27.75,64.82c2,0.43,4.84,0.43,6.88,0.16c11.12-1.48,25.35-3.34,36.62-4.26c2.68-0.22,5.88-0.34,8.13,0.14" class="stroke" stroke-dasharray="150"><set attributeName="opacity" to="0" dur="3.5s" /><animate attributeName="stroke-dashoffset" from="150" to="0" dur="1.8s" begin="3.5s" fill="freeze" /></path><path d="M15.5,92.76c2.69,0.62,6.06,0.7,8.22,0.5c17.03-1.51,42.29-5.39,60.96-5.3c3.48,0.02,6.58,0.24,8.33,0.69" class="stroke" stroke-dasharray="150"><set attributeName="opacity" to="0" dur="4.8s" /><animate attributeName="stroke-dashoffset" from="150" to="0" dur="1.8s" begin="4.8s" fill="freeze" /></path><text x="90" y="120" id="reset-kvg-04e3b">⟳</text><text x="70" y="120" id="pause-kvg-04e3b">◼</text><script type="text/javascript"><![CDATA[function RecurringTimer(e,t){var n,r,i=t;this.pause=function(){window.clearTimeout(n);i-=new Date-r};var s=function(){r=new Date;n=window.setTimeout(function(){i=t;s();e()},i)};this.clear=function(){window.clearTimeout(n);i=t;n=window.setTimeout(function(){i=t;s();e()},i)};this.resume=s;this.resume()}function invoketimer(){timer=new RecurringTimer(function(){svg.setCurrentTime(0)},7500.0)}var svg=document.getElementById("kvg-04e3b");var pause=document.getElementById("pause-kvg-04e3b");var reset=document.getElementById("reset-kvg-04e3b");var timer;invoketimer();reset.onclick=function(){svg.setCurrentTime(0);timer.clear();svg.unpauseAnimations();pause.innerHTML = "◼";};pause.onclick=function(){if(svg.animationsPaused()){svg.unpauseAnimations();timer.resume();pause.innerHTML="◼"}else{svg.pauseAnimations();timer.pause();pause.innerHTML="▶"}}]]></script></svg>