<svg id="kvg-04e9e" class="kanjivg" width="106" height="126" xmlns="http://www.w3.org/2000/svg" xmlns:xlink="http://www.w3.org/1999/xlink" xml:space="preserve" version="1.1" baseProfile="full"><defs><style type="text/css"><![CDATA[path.black{fill:none;stroke:black;stroke-width:5;stroke-linecap:round;stroke-linejoin:round;}path.grey{fill:none;stroke:#ddd;stroke-width:5;stroke-linecap:round;stroke-linejoin:round;}path.stroke{fill:none;stroke:black;stroke-width:5;stroke-linecap:round;stroke-linejoin:round;}rect{fill:none;stroke:#555;stroke-width:2;} text{font-size:16px;font-family:Segoe UI Symbol,Cambria Math,DejaVu Sans,Symbola,Quivira,STIX,Code2000;-webkit-touch-callout:none;cursor:pointer;-webkit-user-select:none;-khtml-user-select:none;-moz-user-select:none;-ms-user-select:none;user-select: none;}text:hover{color:#777;}#reset{font-weight:bold;}]]></style><marker id="markerStart" markerWidth="8" markerHeight="8" style="overflow:visible;"><circle cx="0" cy="0" r="1.5" style="stroke:none;fill:red;fill-opacity:0.5;"/></marker><marker id="markerEnd" style="overflow:visible;"><circle cx="0" cy="0" r="0.8" style="stroke:none;fill:blue;fill-opacity:0.5;"><animate attributeName="opacity" from="1" to="0" dur="3s" repeatCount="indefinite" /></circle></marker></defs><rect x="4" y="4" width="100" height="100" /><path d="M26.75,20.54c1.05,0.4,2.98,0.46,4.04,0.4c10.53-0.57,38.04-4.61,50.27-4.6c1.76,0,2.81,0.19,3.69,0.39" class="grey" /><path d="M42.27,21.83c0.98,0.92,1.26,2.92,1.26,4.52c0,3.65-0.02,9.69-0.02,14.65" class="grey" /><path d="M24,44.25c2.75-0.25,20-2.75,22.25-3" class="grey" /><path d="M21.71,42.99c1.07,1.06,1.88,2.15,1.9,3.63c0.04,3.13-0.16,14.38-0.27,18.71c-0.02,0.93,0.19,1.96,2.17,1.64c4.48-0.72,10.22-1.59,14.83-2.49c1.15-0.22,2.34,0.75,2.34,2.42c0,4.6-0.17,14.35-0.17,23.35" class="grey" /><path d="M63.21,19.49c1.07,1.06,1.38,2.15,1.4,3.63c0.04,3.13-0.66,11.88-0.77,16.21c-0.02,0.93,0.19,1.96,2.17,1.64c4.48-0.72,16.68-2.85,21.33-3.49c2.76-0.38,2.77,0.81,2.34,2.42c-0.82,3.1-2.83,15.93-3.67,21.35" class="grey" /><path d="M64.5,63.75c2.75-0.25,21-2.25,23.25-2.5" class="grey" /><path d="M62.77,61.33c0.98,0.92,1.76,2.42,1.76,4.02c0,3.65-0.02,19.19-0.02,24.15" class="grey" /><path d="M16.5,92.25c1.51,0.5,4.29,0.5,5.8,0.5c14.45,0,52.2-4.25,66.9-4.24c2.52,0,4.04,0.24,5.3,0.49" class="grey" /><path d="M26.75,20.54c1.05,0.4,2.98,0.46,4.04,0.4c10.53-0.57,38.04-4.61,50.27-4.6c1.76,0,2.81,0.19,3.69,0.39" class="stroke" stroke-dasharray="150"><animate attributeName="stroke-dashoffset" from="150" to="0" dur="1.8s" begin="0.0s" fill="freeze" /></path><path d="M42.27,21.83c0.98,0.92,1.26,2.92,1.26,4.52c0,3.65-0.02,9.69-0.02,14.65" class="stroke" stroke-dasharray="150"><set attributeName="opacity" to="0" dur="1.4s" /><animate attributeName="stroke-dashoffset" from="150" to="0" dur="1.8s" begin="1.4s" fill="freeze" /></path><path d="M24,44.25c2.75-0.25,20-2.75,22.25-3" class="stroke" stroke-dasharray="150"><set attributeName="opacity" to="0" dur="2.3s" /><animate attributeName="stroke-dashoffset" from="150" to="0" dur="1.8s" begin="2.3s" fill="freeze" /></path><path d="M21.71,42.99c1.07,1.06,1.88,2.15,1.9,3.63c0.04,3.13-0.16,14.38-0.27,18.71c-0.02,0.93,0.19,1.96,2.17,1.64c4.48-0.72,10.22-1.59,14.83-2.49c1.15-0.22,2.34,0.75,2.34,2.42c0,4.6-0.17,14.35-0.17,23.35" class="stroke" stroke-dasharray="150"><set attributeName="opacity" to="0" dur="3.3s" /><animate attributeName="stroke-dashoffset" from="150" to="0" dur="1.8s" begin="3.3s" fill="freeze" /></path><path d="M63.21,19.49c1.07,1.06,1.38,2.15,1.4,3.63c0.04,3.13-0.66,11.88-0.77,16.21c-0.02,0.93,0.19,1.96,2.17,1.64c4.48-0.72,16.68-2.85,21.33-3.49c2.76-0.38,2.77,0.81,2.34,2.42c-0.82,3.1-2.83,15.93-3.67,21.35" class="stroke" stroke-dasharray="150"><set attributeName="opacity" to="0" dur="4.8s" /><animate attributeName="stroke-dashoffset" from="150" to="0" dur="1.8s" begin="4.8s" fill="freeze" /></path><path d="M64.5,63.75c2.75-0.25,21-2.25,23.25-2.5" class="stroke" stroke-dasharray="150"><set attributeName="opacity" to="0" dur="6.5s" /><animate attributeName="stroke-dashoffset" from="150" to="0" dur="1.8s" begin="6.5s" fill="freeze" /></path><path d="M62.77,61.33c0.98,0.92,1.76,2.42,1.76,4.02c0,3.65-0.02,19.19-0.02,24.15" class="stroke" stroke-dasharray="150"><set attributeName="opacity" to="0" dur="7.5s" /><animate attributeName="stroke-dashoffset" from="150" to="0" dur="1.8s" begin="7.5s" fill="freeze" /></path><path d="M16.5,92.25c1.51,0.5,4.29,0.5,5.8,0.5c14.45,0,52.2-4.25,66.9-4.24c2.52,0,4.04,0.24,5.3,0.49" class="stroke" stroke-dasharray="150"><set attributeName="opacity" to="0" dur="8.5s" /><animate attributeName="stroke-dashoffset" from="150" to="0" dur="1.8s" begin="8.5s" fill="freeze" /></path><text x="90" y="120" id="reset-kvg-04e9e">⟳</text><text x="70" y="120" id="pause-kvg-04e9e">◼</text><script type="text/javascript"><![CDATA[function RecurringTimer(e,t){var n,r,i=t;this.pause=function(){window.clearTimeout(n);i-=new Date-r};var s=function(){r=new Date;n=window.setTimeout(function(){i=t;s();e()},i)};this.clear=function(){window.clearTimeout(n);i=t;n=window.setTimeout(function(){i=t;s();e()},i)};this.resume=s;this.resume()}function invoketimer(){timer=new RecurringTimer(function(){svg.setCurrentTime(0)},11200.0)}var svg=document.getElementById("kvg-04e9e");var pause=document.getElementById("pause-kvg-04e9e");var reset=document.getElementById("reset-kvg-04e9e");var timer;invoketimer();reset.onclick=function(){svg.setCurrentTime(0);timer.clear();svg.unpauseAnimations();pause.innerHTML = "◼";};pause.onclick=function(){if(svg.animationsPaused()){svg.unpauseAnimations();timer.resume();pause.innerHTML="◼"}else{svg.pauseAnimations();timer.pause();pause.innerHTML="▶"}}]]></script></svg>