<svg id="kvg-04ec1" class="kanjivg" width="106" height="126" xmlns="http://www.w3.org/2000/svg" xmlns:xlink="http://www.w3.org/1999/xlink" xml:space="preserve" version="1.1" baseProfile="full"><defs><style type="text/css"><![CDATA[path.black{fill:none;stroke:black;stroke-width:5;stroke-linecap:round;stroke-linejoin:round;}path.grey{fill:none;stroke:#ddd;stroke-width:5;stroke-linecap:round;stroke-linejoin:round;}path.stroke{fill:none;stroke:black;stroke-width:5;stroke-linecap:round;stroke-linejoin:round;}rect{fill:none;stroke:#555;stroke-width:2;} text{font-size:16px;font-family:Segoe UI Symbol,Cambria Math,DejaVu Sans,Symbola,Quivira,STIX,Code2000;-webkit-touch-callout:none;cursor:pointer;-webkit-user-select:none;-khtml-user-select:none;-moz-user-select:none;-ms-user-select:none;user-select: none;}text:hover{color:#777;}#reset{font-weight:bold;}]]></style><marker id="markerStart" markerWidth="8" markerHeight="8" style="overflow:visible;"><circle cx="0" cy="0" r="1.5" style="stroke:none;fill:red;fill-opacity:0.5;"/></marker><marker id="markerEnd" style="overflow:visible;"><circle cx="0" cy="0" r="0.8" style="stroke:none;fill:blue;fill-opacity:0.5;"><animate attributeName="opacity" from="1" to="0" dur="3s" repeatCount="indefinite" /></circle></marker></defs><rect x="4" y="4" width="100" height="100" /><path d="M32.26,15.75c0.36,1.62,0.19,3.35-0.48,5.24C27.5,33.05,21.32,45.87,11.5,60.54" class="grey" /><path d="M24.28,44.25c0.8,0.8,1.26,2.22,1.26,3.48c0,12.15,0.14,30.73,0.01,41.77c-0.03,2.58-0.05,4.73-0.05,6.25" class="grey" /><path d="M49,36c1.88,0.5,3.97,0.52,5.62,0.34c6.32-0.67,19.78-1.91,27.12-2.55c1.93-0.17,4.13-0.1,6.01,0.36" class="grey" /><path d="M36.5,77.83c2.6,0.93,5.92,0.75,8.62,0.48c9.77-0.97,32.2-2.55,45.38-3.15c2.69-0.12,5.61-0.03,8.25,0.53" class="grey" /><path d="M32.26,15.75c0.36,1.62,0.19,3.35-0.48,5.24C27.5,33.05,21.32,45.87,11.5,60.54" class="stroke" stroke-dasharray="150"><animate attributeName="stroke-dashoffset" from="150" to="0" dur="1.8s" begin="0.0s" fill="freeze" /></path><path d="M24.28,44.25c0.8,0.8,1.26,2.22,1.26,3.48c0,12.15,0.14,30.73,0.01,41.77c-0.03,2.58-0.05,4.73-0.05,6.25" class="stroke" stroke-dasharray="150"><set attributeName="opacity" to="0" dur="1.2s" /><animate attributeName="stroke-dashoffset" from="150" to="0" dur="1.8s" begin="1.2s" fill="freeze" /></path><path d="M49,36c1.88,0.5,3.97,0.52,5.62,0.34c6.32-0.67,19.78-1.91,27.12-2.55c1.93-0.17,4.13-0.1,6.01,0.36" class="stroke" stroke-dasharray="150"><set attributeName="opacity" to="0" dur="2.5s" /><animate attributeName="stroke-dashoffset" from="150" to="0" dur="1.8s" begin="2.5s" fill="freeze" /></path><path d="M36.5,77.83c2.6,0.93,5.92,0.75,8.62,0.48c9.77-0.97,32.2-2.55,45.38-3.15c2.69-0.12,5.61-0.03,8.25,0.53" class="stroke" stroke-dasharray="150"><set attributeName="opacity" to="0" dur="3.5s" /><animate attributeName="stroke-dashoffset" from="150" to="0" dur="1.8s" begin="3.5s" fill="freeze" /></path><text x="90" y="120" id="reset-kvg-04ec1">⟳</text><text x="70" y="120" id="pause-kvg-04ec1">◼</text><script type="text/javascript"><![CDATA[function RecurringTimer(e,t){var n,r,i=t;this.pause=function(){window.clearTimeout(n);i-=new Date-r};var s=function(){r=new Date;n=window.setTimeout(function(){i=t;s();e()},i)};this.clear=function(){window.clearTimeout(n);i=t;n=window.setTimeout(function(){i=t;s();e()},i)};this.resume=s;this.resume()}function invoketimer(){timer=new RecurringTimer(function(){svg.setCurrentTime(0)},6000.0)}var svg=document.getElementById("kvg-04ec1");var pause=document.getElementById("pause-kvg-04ec1");var reset=document.getElementById("reset-kvg-04ec1");var timer;invoketimer();reset.onclick=function(){svg.setCurrentTime(0);timer.clear();svg.unpauseAnimations();pause.innerHTML = "◼";};pause.onclick=function(){if(svg.animationsPaused()){svg.unpauseAnimations();timer.resume();pause.innerHTML="◼"}else{svg.pauseAnimations();timer.pause();pause.innerHTML="▶"}}]]></script></svg>