<svg id="kvg-04ec7" class="kanjivg" width="106" height="126" xmlns="http://www.w3.org/2000/svg" xmlns:xlink="http://www.w3.org/1999/xlink" xml:space="preserve" version="1.1" baseProfile="full"><defs><style type="text/css"><![CDATA[path.black{fill:none;stroke:black;stroke-width:5;stroke-linecap:round;stroke-linejoin:round;}path.grey{fill:none;stroke:#ddd;stroke-width:5;stroke-linecap:round;stroke-linejoin:round;}path.stroke{fill:none;stroke:black;stroke-width:5;stroke-linecap:round;stroke-linejoin:round;}rect{fill:none;stroke:#555;stroke-width:2;} text{font-size:16px;font-family:Segoe UI Symbol,Cambria Math,DejaVu Sans,Symbola,Quivira,STIX,Code2000;-webkit-touch-callout:none;cursor:pointer;-webkit-user-select:none;-khtml-user-select:none;-moz-user-select:none;-ms-user-select:none;user-select: none;}text:hover{color:#777;}#reset{font-weight:bold;}]]></style><marker id="markerStart" markerWidth="8" markerHeight="8" style="overflow:visible;"><circle cx="0" cy="0" r="1.5" style="stroke:none;fill:red;fill-opacity:0.5;"/></marker><marker id="markerEnd" style="overflow:visible;"><circle cx="0" cy="0" r="0.8" style="stroke:none;fill:blue;fill-opacity:0.5;"><animate attributeName="opacity" from="1" to="0" dur="3s" repeatCount="indefinite" /></circle></marker></defs><rect x="4" y="4" width="100" height="100" /><path d="M34.47,15.14c0.15,1.2,0.08,2.47-0.39,3.92c-2.96,9.31-12.21,26.19-24.78,39.9" class="grey" /><path d="M25.78,41c0.92,0.92,1.26,2,1.26,3.73c0,9.56-0.02,27.79-0.03,40.27C27,89.53,27,93.3,27,95.62" class="grey" /><path d="M58.18,13.62c0.91,0.91,1.18,2.3,1.2,3.48c0.62,43.02-6,65.77-22.88,77.65" class="grey" /><path d="M40,39.25c2.75,0.75,4.93,0.4,7.75-0.11c7.5-1.4,25.63-4.99,31-6.12c3.49-0.73,3.78,0.55,3.19,3.84c-1.69,9.51-4.07,26.76-5.69,37.64C74.23,88.04,76,93,85,93c9.75,0,10.25-1.25,10.25-7.75" class="grey" /><path d="M34.47,15.14c0.15,1.2,0.08,2.47-0.39,3.92c-2.96,9.31-12.21,26.19-24.78,39.9" class="stroke" stroke-dasharray="150"><animate attributeName="stroke-dashoffset" from="150" to="0" dur="1.8s" begin="0.0s" fill="freeze" /></path><path d="M25.78,41c0.92,0.92,1.26,2,1.26,3.73c0,9.56-0.02,27.79-0.03,40.27C27,89.53,27,93.3,27,95.62" class="stroke" stroke-dasharray="150"><set attributeName="opacity" to="0" dur="1.3s" /><animate attributeName="stroke-dashoffset" from="150" to="0" dur="1.8s" begin="1.3s" fill="freeze" /></path><path d="M58.18,13.62c0.91,0.91,1.18,2.3,1.2,3.48c0.62,43.02-6,65.77-22.88,77.65" class="stroke" stroke-dasharray="150"><set attributeName="opacity" to="0" dur="2.6s" /><animate attributeName="stroke-dashoffset" from="150" to="0" dur="1.8s" begin="2.6s" fill="freeze" /></path><path d="M40,39.25c2.75,0.75,4.93,0.4,7.75-0.11c7.5-1.4,25.63-4.99,31-6.12c3.49-0.73,3.78,0.55,3.19,3.84c-1.69,9.51-4.07,26.76-5.69,37.64C74.23,88.04,76,93,85,93c9.75,0,10.25-1.25,10.25-7.75" class="stroke" stroke-dasharray="150"><set attributeName="opacity" to="0" dur="4.3s" /><animate attributeName="stroke-dashoffset" from="150" to="0" dur="1.8s" begin="4.3s" fill="freeze" /></path><text x="90" y="120" id="reset-kvg-04ec7">⟳</text><text x="70" y="120" id="pause-kvg-04ec7">◼</text><script type="text/javascript"><![CDATA[function RecurringTimer(e,t){var n,r,i=t;this.pause=function(){window.clearTimeout(n);i-=new Date-r};var s=function(){r=new Date;n=window.setTimeout(function(){i=t;s();e()},i)};this.clear=function(){window.clearTimeout(n);i=t;n=window.setTimeout(function(){i=t;s();e()},i)};this.resume=s;this.resume()}function invoketimer(){timer=new RecurringTimer(function(){svg.setCurrentTime(0)},7300.0)}var svg=document.getElementById("kvg-04ec7");var pause=document.getElementById("pause-kvg-04ec7");var reset=document.getElementById("reset-kvg-04ec7");var timer;invoketimer();reset.onclick=function(){svg.setCurrentTime(0);timer.clear();svg.unpauseAnimations();pause.innerHTML = "◼";};pause.onclick=function(){if(svg.animationsPaused()){svg.unpauseAnimations();timer.resume();pause.innerHTML="◼"}else{svg.pauseAnimations();timer.pause();pause.innerHTML="▶"}}]]></script></svg>