<svg id="kvg-04f2f-Kaisho" class="kanjivg" width="106" height="126" xmlns="http://www.w3.org/2000/svg" xmlns:xlink="http://www.w3.org/1999/xlink" xml:space="preserve" version="1.1" baseProfile="full"><defs><style type="text/css"><![CDATA[path.black{fill:none;stroke:black;stroke-width:5;stroke-linecap:round;stroke-linejoin:round;}path.grey{fill:none;stroke:#ddd;stroke-width:5;stroke-linecap:round;stroke-linejoin:round;}path.stroke{fill:none;stroke:black;stroke-width:5;stroke-linecap:round;stroke-linejoin:round;}rect{fill:none;stroke:#555;stroke-width:2;} text{font-size:16px;font-family:Segoe UI Symbol,Cambria Math,DejaVu Sans,Symbola,Quivira,STIX,Code2000;-webkit-touch-callout:none;cursor:pointer;-webkit-user-select:none;-khtml-user-select:none;-moz-user-select:none;-ms-user-select:none;user-select: none;}text:hover{color:#777;}#reset{font-weight:bold;}]]></style><marker id="markerStart" markerWidth="8" markerHeight="8" style="overflow:visible;"><circle cx="0" cy="0" r="1.5" style="stroke:none;fill:red;fill-opacity:0.5;"/></marker><marker id="markerEnd" style="overflow:visible;"><circle cx="0" cy="0" r="0.8" style="stroke:none;fill:blue;fill-opacity:0.5;"><animate attributeName="opacity" from="1" to="0" dur="3s" repeatCount="indefinite" /></circle></marker></defs><rect x="4" y="4" width="100" height="100" /><path d="M38.48,15.39c0.15,1.1,0.27,2.48-0.14,3.84c-2.55,8.56-12.4,25.13-24.28,36.73" class="grey" /><path d="M29.51,40c0.64,0.66,0.81,2.12,0.81,3.48c0,14.02-0.31,43.23-0.31,52.65" class="grey" /><path d="M71.12,15c0.53,0.92,0.72,2.09,0.48,2.84c-1.73,5.57-7.12,16.03-12.92,22.37" class="grey" /><path d="M50.44,41.91c0.67,1.28,1.34,3.42,1.34,5.13S52,83.25,52,93.5" class="grey" /><path d="M52.19,44.43c3.78-0.21,33.35-3.46,36.79-3.83c2.19-0.23,3.08,1.4,3.07,4.1c-0.01,4.6-0.6,33.4-1.31,47.51" class="grey" /><path d="M52.14,66.4c6.87-0.56,13.72-1.33,20.57-1.99c2.04-0.2,4.07-0.39,6-0.57" class="grey" /><path d="M52.9,90.72c9.49-0.69,27.5-2.33,37.62-2.64" class="grey" /><path d="M38.48,15.39c0.15,1.1,0.27,2.48-0.14,3.84c-2.55,8.56-12.4,25.13-24.28,36.73" class="stroke" stroke-dasharray="150"><animate attributeName="stroke-dashoffset" from="150" to="0" dur="1.8s" begin="0.0s" fill="freeze" /></path><path d="M29.51,40c0.64,0.66,0.81,2.12,0.81,3.48c0,14.02-0.31,43.23-0.31,52.65" class="stroke" stroke-dasharray="150"><set attributeName="opacity" to="0" dur="1.2s" /><animate attributeName="stroke-dashoffset" from="150" to="0" dur="1.8s" begin="1.2s" fill="freeze" /></path><path d="M71.12,15c0.53,0.92,0.72,2.09,0.48,2.84c-1.73,5.57-7.12,16.03-12.92,22.37" class="stroke" stroke-dasharray="150"><set attributeName="opacity" to="0" dur="2.5999999999999996s" /><animate attributeName="stroke-dashoffset" from="150" to="0" dur="1.8s" begin="2.5999999999999996s" fill="freeze" /></path><path d="M50.44,41.91c0.67,1.28,1.34,3.42,1.34,5.13S52,83.25,52,93.5" class="stroke" stroke-dasharray="150"><set attributeName="opacity" to="0" dur="3.5999999999999996s" /><animate attributeName="stroke-dashoffset" from="150" to="0" dur="1.8s" begin="3.5999999999999996s" fill="freeze" /></path><path d="M52.19,44.43c3.78-0.21,33.35-3.46,36.79-3.83c2.19-0.23,3.08,1.4,3.07,4.1c-0.01,4.6-0.6,33.4-1.31,47.51" class="stroke" stroke-dasharray="150"><set attributeName="opacity" to="0" dur="4.8999999999999995s" /><animate attributeName="stroke-dashoffset" from="150" to="0" dur="1.8s" begin="4.8999999999999995s" fill="freeze" /></path><path d="M52.14,66.4c6.87-0.56,13.72-1.33,20.57-1.99c2.04-0.2,4.07-0.39,6-0.57" class="stroke" stroke-dasharray="150"><set attributeName="opacity" to="0" dur="6.699999999999999s" /><animate attributeName="stroke-dashoffset" from="150" to="0" dur="1.8s" begin="6.699999999999999s" fill="freeze" /></path><path d="M52.9,90.72c9.49-0.69,27.5-2.33,37.62-2.64" class="stroke" stroke-dasharray="150"><set attributeName="opacity" to="0" dur="7.699999999999999s" /><animate attributeName="stroke-dashoffset" from="150" to="0" dur="1.8s" begin="7.699999999999999s" fill="freeze" /></path><text x="90" y="120" id="reset-kvg-04f2f-Kaisho">⟳</text><text x="70" y="120" id="pause-kvg-04f2f-Kaisho">◼</text><script type="text/javascript"><![CDATA[function RecurringTimer(e,t){var n,r,i=t;this.pause=function(){window.clearTimeout(n);i-=new Date-r};var s=function(){r=new Date;n=window.setTimeout(function(){i=t;s();e()},i)};this.clear=function(){window.clearTimeout(n);i=t;n=window.setTimeout(function(){i=t;s();e()},i)};this.resume=s;this.resume()}function invoketimer(){timer=new RecurringTimer(function(){svg.setCurrentTime(0)},9700.0)}var svg=document.getElementById("kvg-04f2f-Kaisho");var pause=document.getElementById("pause-kvg-04f2f-Kaisho");var reset=document.getElementById("reset-kvg-04f2f-Kaisho");var timer;invoketimer();reset.onclick=function(){svg.setCurrentTime(0);timer.clear();svg.unpauseAnimations();pause.innerHTML = "◼";};pause.onclick=function(){if(svg.animationsPaused()){svg.unpauseAnimations();timer.resume();pause.innerHTML="◼"}else{svg.pauseAnimations();timer.pause();pause.innerHTML="▶"}}]]></script></svg>