<svg id="kvg-04f34-HzFst" class="kanjivg" width="106" height="126" xmlns="http://www.w3.org/2000/svg" xmlns:xlink="http://www.w3.org/1999/xlink" xml:space="preserve" version="1.1" baseProfile="full"><defs><style type="text/css"><![CDATA[path.black{fill:none;stroke:black;stroke-width:5;stroke-linecap:round;stroke-linejoin:round;}path.grey{fill:none;stroke:#ddd;stroke-width:5;stroke-linecap:round;stroke-linejoin:round;}path.stroke{fill:none;stroke:black;stroke-width:5;stroke-linecap:round;stroke-linejoin:round;}rect{fill:none;stroke:#555;stroke-width:2;} text{font-size:16px;font-family:Segoe UI Symbol,Cambria Math,DejaVu Sans,Symbola,Quivira,STIX,Code2000;-webkit-touch-callout:none;cursor:pointer;-webkit-user-select:none;-khtml-user-select:none;-moz-user-select:none;-ms-user-select:none;user-select: none;}text:hover{color:#777;}#reset{font-weight:bold;}]]></style><marker id="markerStart" markerWidth="8" markerHeight="8" style="overflow:visible;"><circle cx="0" cy="0" r="1.5" style="stroke:none;fill:red;fill-opacity:0.5;"/></marker><marker id="markerEnd" style="overflow:visible;"><circle cx="0" cy="0" r="0.8" style="stroke:none;fill:blue;fill-opacity:0.5;"><animate attributeName="opacity" from="1" to="0" dur="3s" repeatCount="indefinite" /></circle></marker></defs><rect x="4" y="4" width="100" height="100" /><path d="M35.73,14.89c0.14,1.15,0,2.34-0.38,3.76c-2.39,8.93-11.65,26.46-22.8,38.57" class="grey" /><path d="M28.53,37.75c0.92,0.92,1.26,1.97,1.26,3.23c0,10.64-0.03,32.78-0.04,45.03c0,2.74,0,5.02,0,6.62" class="grey" /><path d="M47.5,23.5c2.97,2.26,7.67,9.28,8.41,12.79" class="grey" /><path d="M91.18,19.63c0.08,1.03-0.04,1.45-0.56,2.38c-2.02,3.67-5.12,7.64-9.51,12.29" class="grey" /><path d="M47.71,46.93c2.13,0.7,4.74,0.66,6.89,0.29c7.9-1.35,20.65-2.85,31.02-3.85c2.09-0.2,4.17-0.19,6.24,0.22" class="grey" /><path d="M39.56,65.64c2.64,0.76,5.75,0.58,8.45,0.23c10.93-1.41,28.49-3.37,42.86-3.97c2.71-0.11,5.15-0.12,7.81,0.34" class="grey" /><path d="M68.6,10.75c1.2,1.2,1.5,2.62,1.5,4.08c0,0.87-0.09,67.42-0.09,73.42c0,4.59-0.01,7.92-0.01,9.25" class="grey" /><path d="M35.73,14.89c0.14,1.15,0,2.34-0.38,3.76c-2.39,8.93-11.65,26.46-22.8,38.57" class="stroke" stroke-dasharray="150"><animate attributeName="stroke-dashoffset" from="150" to="0" dur="1.8s" begin="0.0s" fill="freeze" /></path><path d="M28.53,37.75c0.92,0.92,1.26,1.97,1.26,3.23c0,10.64-0.03,32.78-0.04,45.03c0,2.74,0,5.02,0,6.62" class="stroke" stroke-dasharray="150"><set attributeName="opacity" to="0" dur="1.2s" /><animate attributeName="stroke-dashoffset" from="150" to="0" dur="1.8s" begin="1.2s" fill="freeze" /></path><path d="M47.5,23.5c2.97,2.26,7.67,9.28,8.41,12.79" class="stroke" stroke-dasharray="150"><set attributeName="opacity" to="0" dur="2.5999999999999996s" /><animate attributeName="stroke-dashoffset" from="150" to="0" dur="1.8s" begin="2.5999999999999996s" fill="freeze" /></path><path d="M91.18,19.63c0.08,1.03-0.04,1.45-0.56,2.38c-2.02,3.67-5.12,7.64-9.51,12.29" class="stroke" stroke-dasharray="150"><set attributeName="opacity" to="0" dur="3.4999999999999996s" /><animate attributeName="stroke-dashoffset" from="150" to="0" dur="1.8s" begin="3.4999999999999996s" fill="freeze" /></path><path d="M47.71,46.93c2.13,0.7,4.74,0.66,6.89,0.29c7.9-1.35,20.65-2.85,31.02-3.85c2.09-0.2,4.17-0.19,6.24,0.22" class="stroke" stroke-dasharray="150"><set attributeName="opacity" to="0" dur="4.3999999999999995s" /><animate attributeName="stroke-dashoffset" from="150" to="0" dur="1.8s" begin="4.3999999999999995s" fill="freeze" /></path><path d="M39.56,65.64c2.64,0.76,5.75,0.58,8.45,0.23c10.93-1.41,28.49-3.37,42.86-3.97c2.71-0.11,5.15-0.12,7.81,0.34" class="stroke" stroke-dasharray="150"><set attributeName="opacity" to="0" dur="5.5s" /><animate attributeName="stroke-dashoffset" from="150" to="0" dur="1.8s" begin="5.5s" fill="freeze" /></path><path d="M68.6,10.75c1.2,1.2,1.5,2.62,1.5,4.08c0,0.87-0.09,67.42-0.09,73.42c0,4.59-0.01,7.92-0.01,9.25" class="stroke" stroke-dasharray="150"><set attributeName="opacity" to="0" dur="6.9s" /><animate attributeName="stroke-dashoffset" from="150" to="0" dur="1.8s" begin="6.9s" fill="freeze" /></path><text x="90" y="120" id="reset-kvg-04f34-HzFst">⟳</text><text x="70" y="120" id="pause-kvg-04f34-HzFst">◼</text><script type="text/javascript"><![CDATA[function RecurringTimer(e,t){var n,r,i=t;this.pause=function(){window.clearTimeout(n);i-=new Date-r};var s=function(){r=new Date;n=window.setTimeout(function(){i=t;s();e()},i)};this.clear=function(){window.clearTimeout(n);i=t;n=window.setTimeout(function(){i=t;s();e()},i)};this.resume=s;this.resume()}function invoketimer(){timer=new RecurringTimer(function(){svg.setCurrentTime(0)},9600.0)}var svg=document.getElementById("kvg-04f34-HzFst");var pause=document.getElementById("pause-kvg-04f34-HzFst");var reset=document.getElementById("reset-kvg-04f34-HzFst");var timer;invoketimer();reset.onclick=function(){svg.setCurrentTime(0);timer.clear();svg.unpauseAnimations();pause.innerHTML = "◼";};pause.onclick=function(){if(svg.animationsPaused()){svg.unpauseAnimations();timer.resume();pause.innerHTML="◼"}else{svg.pauseAnimations();timer.pause();pause.innerHTML="▶"}}]]></script></svg>