<svg id="kvg-04f57" class="kanjivg" width="106" height="126" xmlns="http://www.w3.org/2000/svg" xmlns:xlink="http://www.w3.org/1999/xlink" xml:space="preserve" version="1.1" baseProfile="full"><defs><style type="text/css"><![CDATA[path.black{fill:none;stroke:black;stroke-width:5;stroke-linecap:round;stroke-linejoin:round;}path.grey{fill:none;stroke:#ddd;stroke-width:5;stroke-linecap:round;stroke-linejoin:round;}path.stroke{fill:none;stroke:black;stroke-width:5;stroke-linecap:round;stroke-linejoin:round;}rect{fill:none;stroke:#555;stroke-width:2;} text{font-size:16px;font-family:Segoe UI Symbol,Cambria Math,DejaVu Sans,Symbola,Quivira,STIX,Code2000;-webkit-touch-callout:none;cursor:pointer;-webkit-user-select:none;-khtml-user-select:none;-moz-user-select:none;-ms-user-select:none;user-select: none;}text:hover{color:#777;}#reset{font-weight:bold;}]]></style><marker id="markerStart" markerWidth="8" markerHeight="8" style="overflow:visible;"><circle cx="0" cy="0" r="1.5" style="stroke:none;fill:red;fill-opacity:0.5;"/></marker><marker id="markerEnd" style="overflow:visible;"><circle cx="0" cy="0" r="0.8" style="stroke:none;fill:blue;fill-opacity:0.5;"><animate attributeName="opacity" from="1" to="0" dur="3s" repeatCount="indefinite" /></circle></marker></defs><rect x="4" y="4" width="100" height="100" /><path d="M33.99,15.39c0.14,1.18,0.24,2.67-0.12,4.12c-2.34,9.2-11.39,26.98-22.3,39.45" class="grey" /><path d="M27.99,40c0.66,0.68,0.84,2.19,0.84,3.58c0,14.46-0.32,44.58-0.32,54.29" class="grey" /><path d="M64.31,13.52c0.96,0.43,2.32,2.53,2.3,3.76c-0.07,3.89-0.07,7.01-0.07,10.55" class="grey" /><path d="M42.46,29.75c0,3.93-2.06,12.02-3.25,14.64" class="grey" /><path d="M43.12,31.4c15.61-2.55,42.77-6.12,49.39-5.85c8.73,0.35-0.63,7.49-2.81,9.52" class="grey" /><path d="M84.87,45.11c0.19,0.42,0.32,1.65-0.18,2.3c-3.25,4.21-14.37,15.81-24.86,20.12" class="grey" /><path d="M54.05,43.75c0.88,1.02,0.94,1.7,1.23,3.06c0.29,1.36-0.11,35.2-0.11,39.46c0,10.94,10.93,9.23,20.93,9.23c7.76,0,13.41-0.58,16.33-3.63c2.92-3.06,2.56-6.61,2.86-9.67" class="grey" /><path d="M33.99,15.39c0.14,1.18,0.24,2.67-0.12,4.12c-2.34,9.2-11.39,26.98-22.3,39.45" class="stroke" stroke-dasharray="150"><animate attributeName="stroke-dashoffset" from="150" to="0" dur="1.8s" begin="0.0s" fill="freeze" /></path><path d="M27.99,40c0.66,0.68,0.84,2.19,0.84,3.58c0,14.46-0.32,44.58-0.32,54.29" class="stroke" stroke-dasharray="150"><set attributeName="opacity" to="0" dur="1.2s" /><animate attributeName="stroke-dashoffset" from="150" to="0" dur="1.8s" begin="1.2s" fill="freeze" /></path><path d="M64.31,13.52c0.96,0.43,2.32,2.53,2.3,3.76c-0.07,3.89-0.07,7.01-0.07,10.55" class="stroke" stroke-dasharray="150"><set attributeName="opacity" to="0" dur="2.5999999999999996s" /><animate attributeName="stroke-dashoffset" from="150" to="0" dur="1.8s" begin="2.5999999999999996s" fill="freeze" /></path><path d="M42.46,29.75c0,3.93-2.06,12.02-3.25,14.64" class="stroke" stroke-dasharray="150"><set attributeName="opacity" to="0" dur="3.4999999999999996s" /><animate attributeName="stroke-dashoffset" from="150" to="0" dur="1.8s" begin="3.4999999999999996s" fill="freeze" /></path><path d="M43.12,31.4c15.61-2.55,42.77-6.12,49.39-5.85c8.73,0.35-0.63,7.49-2.81,9.52" class="stroke" stroke-dasharray="150"><set attributeName="opacity" to="0" dur="4.3999999999999995s" /><animate attributeName="stroke-dashoffset" from="150" to="0" dur="1.8s" begin="4.3999999999999995s" fill="freeze" /></path><path d="M84.87,45.11c0.19,0.42,0.32,1.65-0.18,2.3c-3.25,4.21-14.37,15.81-24.86,20.12" class="stroke" stroke-dasharray="150"><set attributeName="opacity" to="0" dur="5.8999999999999995s" /><animate attributeName="stroke-dashoffset" from="150" to="0" dur="1.8s" begin="5.8999999999999995s" fill="freeze" /></path><path d="M54.05,43.75c0.88,1.02,0.94,1.7,1.23,3.06c0.29,1.36-0.11,35.2-0.11,39.46c0,10.94,10.93,9.23,20.93,9.23c7.76,0,13.41-0.58,16.33-3.63c2.92-3.06,2.56-6.61,2.86-9.67" class="stroke" stroke-dasharray="150"><set attributeName="opacity" to="0" dur="6.8999999999999995s" /><animate attributeName="stroke-dashoffset" from="150" to="0" dur="1.8s" begin="6.8999999999999995s" fill="freeze" /></path><text x="90" y="120" id="reset-kvg-04f57">⟳</text><text x="70" y="120" id="pause-kvg-04f57">◼</text><script type="text/javascript"><![CDATA[function RecurringTimer(e,t){var n,r,i=t;this.pause=function(){window.clearTimeout(n);i-=new Date-r};var s=function(){r=new Date;n=window.setTimeout(function(){i=t;s();e()},i)};this.clear=function(){window.clearTimeout(n);i=t;n=window.setTimeout(function(){i=t;s();e()},i)};this.resume=s;this.resume()}function invoketimer(){timer=new RecurringTimer(function(){svg.setCurrentTime(0)},9700.0)}var svg=document.getElementById("kvg-04f57");var pause=document.getElementById("pause-kvg-04f57");var reset=document.getElementById("reset-kvg-04f57");var timer;invoketimer();reset.onclick=function(){svg.setCurrentTime(0);timer.clear();svg.unpauseAnimations();pause.innerHTML = "◼";};pause.onclick=function(){if(svg.animationsPaused()){svg.unpauseAnimations();timer.resume();pause.innerHTML="◼"}else{svg.pauseAnimations();timer.pause();pause.innerHTML="▶"}}]]></script></svg>