<svg id="kvg-04f88" class="kanjivg" width="106" height="126" xmlns="http://www.w3.org/2000/svg" xmlns:xlink="http://www.w3.org/1999/xlink" xml:space="preserve" version="1.1" baseProfile="full"><defs><style type="text/css"><![CDATA[path.black{fill:none;stroke:black;stroke-width:5;stroke-linecap:round;stroke-linejoin:round;}path.grey{fill:none;stroke:#ddd;stroke-width:5;stroke-linecap:round;stroke-linejoin:round;}path.stroke{fill:none;stroke:black;stroke-width:5;stroke-linecap:round;stroke-linejoin:round;}rect{fill:none;stroke:#555;stroke-width:2;} text{font-size:16px;font-family:Segoe UI Symbol,Cambria Math,DejaVu Sans,Symbola,Quivira,STIX,Code2000;-webkit-touch-callout:none;cursor:pointer;-webkit-user-select:none;-khtml-user-select:none;-moz-user-select:none;-ms-user-select:none;user-select: none;}text:hover{color:#777;}#reset{font-weight:bold;}]]></style><marker id="markerStart" markerWidth="8" markerHeight="8" style="overflow:visible;"><circle cx="0" cy="0" r="1.5" style="stroke:none;fill:red;fill-opacity:0.5;"/></marker><marker id="markerEnd" style="overflow:visible;"><circle cx="0" cy="0" r="0.8" style="stroke:none;fill:blue;fill-opacity:0.5;"><animate attributeName="opacity" from="1" to="0" dur="3s" repeatCount="indefinite" /></circle></marker></defs><rect x="4" y="4" width="100" height="100" /><path d="M35.48,13.89c0.15,1.2,0.26,2.71-0.13,4.19c-2.5,9.36-12.15,27.45-23.79,40.13" class="grey" /><path d="M26.49,42c0.66,0.68,0.84,2.19,0.84,3.58c0,14.46-0.32,42.08-0.32,51.79" class="grey" /><path d="M65.13,11.67c0.22,0.31,0.19,1.23,0.03,1.85c-0.96,3.66-9.38,14.64-19.56,21.55" class="grey" /><path d="M67.26,17.14c0.29,0.02,2.51,0.48,3.32,0.39c2.66-0.3,10.04-2.21,13.54-3.27c2.52-0.77,3.54,0.65,2.86,2.16C82,27.5,62,49.75,42.16,55.84" class="grey" /><path d="M58.4,29.08c2.29,1.68,6,6.98,6.65,9.67" class="grey" /><path d="M73.64,45.75c0.35,0.45,0.25,1.86-0.2,2.69c-3.43,6.4-10.96,15.97-26.07,24.65" class="grey" /><path d="M74.29,52.69c1.21,0.56,2.46,0.31,4.03,0.38c2.92,0.13,10.75-1.33,14.57-2.45c2.74-0.81,3.93,1.23,3.12,2.77C87,70.5,67.25,90,46.75,97" class="grey" /><path d="M62.76,65.88c2.35,2.41,6.16,10.04,6.82,13.89" class="grey" /><path d="M35.48,13.89c0.15,1.2,0.26,2.71-0.13,4.19c-2.5,9.36-12.15,27.45-23.79,40.13" class="stroke" stroke-dasharray="150"><animate attributeName="stroke-dashoffset" from="150" to="0" dur="1.8s" begin="0.0s" fill="freeze" /></path><path d="M26.49,42c0.66,0.68,0.84,2.19,0.84,3.58c0,14.46-0.32,42.08-0.32,51.79" class="stroke" stroke-dasharray="150"><set attributeName="opacity" to="0" dur="1.3s" /><animate attributeName="stroke-dashoffset" from="150" to="0" dur="1.8s" begin="1.3s" fill="freeze" /></path><path d="M65.13,11.67c0.22,0.31,0.19,1.23,0.03,1.85c-0.96,3.66-9.38,14.64-19.56,21.55" class="stroke" stroke-dasharray="150"><set attributeName="opacity" to="0" dur="2.7s" /><animate attributeName="stroke-dashoffset" from="150" to="0" dur="1.8s" begin="2.7s" fill="freeze" /></path><path d="M67.26,17.14c0.29,0.02,2.51,0.48,3.32,0.39c2.66-0.3,10.04-2.21,13.54-3.27c2.52-0.77,3.54,0.65,2.86,2.16C82,27.5,62,49.75,42.16,55.84" class="stroke" stroke-dasharray="150"><set attributeName="opacity" to="0" dur="3.7s" /><animate attributeName="stroke-dashoffset" from="150" to="0" dur="1.8s" begin="3.7s" fill="freeze" /></path><path d="M58.4,29.08c2.29,1.68,6,6.98,6.65,9.67" class="stroke" stroke-dasharray="150"><set attributeName="opacity" to="0" dur="5.4s" /><animate attributeName="stroke-dashoffset" from="150" to="0" dur="1.8s" begin="5.4s" fill="freeze" /></path><path d="M73.64,45.75c0.35,0.45,0.25,1.86-0.2,2.69c-3.43,6.4-10.96,15.97-26.07,24.65" class="stroke" stroke-dasharray="150"><set attributeName="opacity" to="0" dur="6.300000000000001s" /><animate attributeName="stroke-dashoffset" from="150" to="0" dur="1.8s" begin="6.300000000000001s" fill="freeze" /></path><path d="M74.29,52.69c1.21,0.56,2.46,0.31,4.03,0.38c2.92,0.13,10.75-1.33,14.57-2.45c2.74-0.81,3.93,1.23,3.12,2.77C87,70.5,67.25,90,46.75,97" class="stroke" stroke-dasharray="150"><set attributeName="opacity" to="0" dur="7.300000000000001s" /><animate attributeName="stroke-dashoffset" from="150" to="0" dur="1.8s" begin="7.300000000000001s" fill="freeze" /></path><path d="M62.76,65.88c2.35,2.41,6.16,10.04,6.82,13.89" class="stroke" stroke-dasharray="150"><set attributeName="opacity" to="0" dur="9.100000000000001s" /><animate attributeName="stroke-dashoffset" from="150" to="0" dur="1.8s" begin="9.100000000000001s" fill="freeze" /></path><text x="90" y="120" id="reset-kvg-04f88">⟳</text><text x="70" y="120" id="pause-kvg-04f88">◼</text><script type="text/javascript"><![CDATA[function RecurringTimer(e,t){var n,r,i=t;this.pause=function(){window.clearTimeout(n);i-=new Date-r};var s=function(){r=new Date;n=window.setTimeout(function(){i=t;s();e()},i)};this.clear=function(){window.clearTimeout(n);i=t;n=window.setTimeout(function(){i=t;s();e()},i)};this.resume=s;this.resume()}function invoketimer(){timer=new RecurringTimer(function(){svg.setCurrentTime(0)},11000.000000000002)}var svg=document.getElementById("kvg-04f88");var pause=document.getElementById("pause-kvg-04f88");var reset=document.getElementById("reset-kvg-04f88");var timer;invoketimer();reset.onclick=function(){svg.setCurrentTime(0);timer.clear();svg.unpauseAnimations();pause.innerHTML = "◼";};pause.onclick=function(){if(svg.animationsPaused()){svg.unpauseAnimations();timer.resume();pause.innerHTML="◼"}else{svg.pauseAnimations();timer.pause();pause.innerHTML="▶"}}]]></script></svg>