<svg id="kvg-0506c" class="kanjivg" width="106" height="126" xmlns="http://www.w3.org/2000/svg" xmlns:xlink="http://www.w3.org/1999/xlink" xml:space="preserve" version="1.1" baseProfile="full"><defs><style type="text/css"><![CDATA[path.black{fill:none;stroke:black;stroke-width:5;stroke-linecap:round;stroke-linejoin:round;}path.grey{fill:none;stroke:#ddd;stroke-width:5;stroke-linecap:round;stroke-linejoin:round;}path.stroke{fill:none;stroke:black;stroke-width:5;stroke-linecap:round;stroke-linejoin:round;}rect{fill:none;stroke:#555;stroke-width:2;} text{font-size:16px;font-family:Segoe UI Symbol,Cambria Math,DejaVu Sans,Symbola,Quivira,STIX,Code2000;-webkit-touch-callout:none;cursor:pointer;-webkit-user-select:none;-khtml-user-select:none;-moz-user-select:none;-ms-user-select:none;user-select: none;}text:hover{color:#777;}#reset{font-weight:bold;}]]></style><marker id="markerStart" markerWidth="8" markerHeight="8" style="overflow:visible;"><circle cx="0" cy="0" r="1.5" style="stroke:none;fill:red;fill-opacity:0.5;"/></marker><marker id="markerEnd" style="overflow:visible;"><circle cx="0" cy="0" r="0.8" style="stroke:none;fill:blue;fill-opacity:0.5;"><animate attributeName="opacity" from="1" to="0" dur="3s" repeatCount="indefinite" /></circle></marker></defs><rect x="4" y="4" width="100" height="100" /><path d="M31.94,17c0.13,1.22,0.23,2.74-0.12,4.24C29.6,30.7,21.05,49,10.75,61.82" class="grey" /><path d="M25.48,43.61c0.59,0.61,0.76,1.97,0.76,3.23c0,13.02-0.29,38.65-0.29,47.4" class="grey" /><path d="M53.45,14c0.04,0.56,0.08,1.44-0.08,2.24c-0.97,4.72-6.32,14.03-13.67,21.44" class="grey" /><path d="M53.09,25.47c0.75,0.37,1.78,0.37,3,0.24c4.66-0.47,26.62-4.72,29.62-4.84c3-0.12,2.94,2.12,2.76,4.74c-0.54,8.1-4.72,25.89-10.67,36.95c-2.81,5.24-5.7,0.36-7.1-2.03" class="grey" /><path d="M59.6,28.37c0.05,0.6,0.13,1.56-0.09,2.4c-2.17,8.28-7.35,16.16-15.93,22.96" class="grey" /><path d="M73.23,25.94c0.06,0.83,0.12,2.13-0.11,3.31c-1.33,6.99-8.54,22.32-18.99,31.7" class="grey" /><path d="M50.86,36.79c6.96,2.66,17.99,10.92,19.73,15.05" class="grey" /><path d="M39.65,76.86c0.32,2.26-3.23,12.26-5.82,16.03" class="grey" /><path d="M48.66,70.17C54.5,85.5,62.75,93.5,77.72,96.19c11.49,2.06,12.03-1.69,4.38-8.84" class="grey" /><path d="M63.72,72.51c1.78,4.58,4.38,9.15,6.29,2.15" class="grey" /><path d="M85.18,70.5c4.9,2.4,8.58,4.58,12.56,11.99" class="grey" /><path d="M31.94,17c0.13,1.22,0.23,2.74-0.12,4.24C29.6,30.7,21.05,49,10.75,61.82" class="stroke" stroke-dasharray="150"><animate attributeName="stroke-dashoffset" from="150" to="0" dur="1.8s" begin="0.0s" fill="freeze" /></path><path d="M25.48,43.61c0.59,0.61,0.76,1.97,0.76,3.23c0,13.02-0.29,38.65-0.29,47.4" class="stroke" stroke-dasharray="150"><set attributeName="opacity" to="0" dur="1.3s" /><animate attributeName="stroke-dashoffset" from="150" to="0" dur="1.8s" begin="1.3s" fill="freeze" /></path><path d="M53.45,14c0.04,0.56,0.08,1.44-0.08,2.24c-0.97,4.72-6.32,14.03-13.67,21.44" class="stroke" stroke-dasharray="150"><set attributeName="opacity" to="0" dur="2.6s" /><animate attributeName="stroke-dashoffset" from="150" to="0" dur="1.8s" begin="2.6s" fill="freeze" /></path><path d="M53.09,25.47c0.75,0.37,1.78,0.37,3,0.24c4.66-0.47,26.62-4.72,29.62-4.84c3-0.12,2.94,2.12,2.76,4.74c-0.54,8.1-4.72,25.89-10.67,36.95c-2.81,5.24-5.7,0.36-7.1-2.03" class="stroke" stroke-dasharray="150"><set attributeName="opacity" to="0" dur="3.6s" /><animate attributeName="stroke-dashoffset" from="150" to="0" dur="1.8s" begin="3.6s" fill="freeze" /></path><path d="M59.6,28.37c0.05,0.6,0.13,1.56-0.09,2.4c-2.17,8.28-7.35,16.16-15.93,22.96" class="stroke" stroke-dasharray="150"><set attributeName="opacity" to="0" dur="5.3s" /><animate attributeName="stroke-dashoffset" from="150" to="0" dur="1.8s" begin="5.3s" fill="freeze" /></path><path d="M73.23,25.94c0.06,0.83,0.12,2.13-0.11,3.31c-1.33,6.99-8.54,22.32-18.99,31.7" class="stroke" stroke-dasharray="150"><set attributeName="opacity" to="0" dur="6.3s" /><animate attributeName="stroke-dashoffset" from="150" to="0" dur="1.8s" begin="6.3s" fill="freeze" /></path><path d="M50.86,36.79c6.96,2.66,17.99,10.92,19.73,15.05" class="stroke" stroke-dasharray="150"><set attributeName="opacity" to="0" dur="7.4s" /><animate attributeName="stroke-dashoffset" from="150" to="0" dur="1.8s" begin="7.4s" fill="freeze" /></path><path d="M39.65,76.86c0.32,2.26-3.23,12.26-5.82,16.03" class="stroke" stroke-dasharray="150"><set attributeName="opacity" to="0" dur="8.4s" /><animate attributeName="stroke-dashoffset" from="150" to="0" dur="1.8s" begin="8.4s" fill="freeze" /></path><path d="M48.66,70.17C54.5,85.5,62.75,93.5,77.72,96.19c11.49,2.06,12.03-1.69,4.38-8.84" class="stroke" stroke-dasharray="150"><set attributeName="opacity" to="0" dur="9.3s" /><animate attributeName="stroke-dashoffset" from="150" to="0" dur="1.8s" begin="9.3s" fill="freeze" /></path><path d="M63.72,72.51c1.78,4.58,4.38,9.15,6.29,2.15" class="stroke" stroke-dasharray="150"><set attributeName="opacity" to="0" dur="10.8s" /><animate attributeName="stroke-dashoffset" from="150" to="0" dur="1.8s" begin="10.8s" fill="freeze" /></path><path d="M85.18,70.5c4.9,2.4,8.58,4.58,12.56,11.99" class="stroke" stroke-dasharray="150"><set attributeName="opacity" to="0" dur="11.700000000000001s" /><animate attributeName="stroke-dashoffset" from="150" to="0" dur="1.8s" begin="11.700000000000001s" fill="freeze" /></path><text x="90" y="120" id="reset-kvg-0506c">⟳</text><text x="70" y="120" id="pause-kvg-0506c">◼</text><script type="text/javascript"><![CDATA[function RecurringTimer(e,t){var n,r,i=t;this.pause=function(){window.clearTimeout(n);i-=new Date-r};var s=function(){r=new Date;n=window.setTimeout(function(){i=t;s();e()},i)};this.clear=function(){window.clearTimeout(n);i=t;n=window.setTimeout(function(){i=t;s();e()},i)};this.resume=s;this.resume()}function invoketimer(){timer=new RecurringTimer(function(){svg.setCurrentTime(0)},13600.000000000002)}var svg=document.getElementById("kvg-0506c");var pause=document.getElementById("pause-kvg-0506c");var reset=document.getElementById("reset-kvg-0506c");var timer;invoketimer();reset.onclick=function(){svg.setCurrentTime(0);timer.clear();svg.unpauseAnimations();pause.innerHTML = "◼";};pause.onclick=function(){if(svg.animationsPaused()){svg.unpauseAnimations();timer.resume();pause.innerHTML="◼"}else{svg.pauseAnimations();timer.pause();pause.innerHTML="▶"}}]]></script></svg>