<svg id="kvg-050cf" class="kanjivg" width="106" height="126" xmlns="http://www.w3.org/2000/svg" xmlns:xlink="http://www.w3.org/1999/xlink" xml:space="preserve" version="1.1" baseProfile="full"><defs><style type="text/css"><![CDATA[path.black{fill:none;stroke:black;stroke-width:5;stroke-linecap:round;stroke-linejoin:round;}path.grey{fill:none;stroke:#ddd;stroke-width:5;stroke-linecap:round;stroke-linejoin:round;}path.stroke{fill:none;stroke:black;stroke-width:5;stroke-linecap:round;stroke-linejoin:round;}rect{fill:none;stroke:#555;stroke-width:2;} text{font-size:16px;font-family:Segoe UI Symbol,Cambria Math,DejaVu Sans,Symbola,Quivira,STIX,Code2000;-webkit-touch-callout:none;cursor:pointer;-webkit-user-select:none;-khtml-user-select:none;-moz-user-select:none;-ms-user-select:none;user-select: none;}text:hover{color:#777;}#reset{font-weight:bold;}]]></style><marker id="markerStart" markerWidth="8" markerHeight="8" style="overflow:visible;"><circle cx="0" cy="0" r="1.5" style="stroke:none;fill:red;fill-opacity:0.5;"/></marker><marker id="markerEnd" style="overflow:visible;"><circle cx="0" cy="0" r="0.8" style="stroke:none;fill:blue;fill-opacity:0.5;"><animate attributeName="opacity" from="1" to="0" dur="3s" repeatCount="indefinite" /></circle></marker></defs><rect x="4" y="4" width="100" height="100" /><path d="M30.27,17c0.2,2.02-0.06,3.67-0.71,5.41c-4.18,11.05-9.48,21.93-19.05,35.38" class="grey" /><path d="M23.28,40.75c1.05,1.05,1.5,2.62,1.5,4.5c0,11.35-0.02,29.65-0.03,41c0,3.43,0,6.22,0,8" class="grey" /><path d="M54.08,12.61c0.11,0.89,0.01,1.77-0.52,2.48c-2.43,3.28-6.18,8.03-13.47,12.44" class="grey" /><path d="M53.03,19.15c3.1-0.27,10.35-1.4,13.64-1.97c1.78-0.31,2.73,1.76,1.97,2.58c-3.16,3.43-4.38,5.5-7.71,10.13" class="grey" /><path d="M40.16,32.83c0.81,0.56,1.35,1.35,1.64,2.26c0.94,2.91,1.67,5.54,2.47,8.9c0.29,1.24,0.56,2.47,0.79,3.65" class="grey" /><path d="M42.36,33.91c7.34-1.28,30.52-4.35,38.02-5.15c3.3-0.35,4.73,0.8,3.97,4.26c-0.46,2.07-1.19,4.34-2.27,6.76c-0.53,1.18-1.14,2.35-1.85,3.47" class="grey" /><path d="M62.14,32.83c0.44,0.47,0.78,1.54,0.78,2.58c0,1.59-0.01,6.46-0.01,7.84" class="grey" /><path d="M45.74,45.52c10.63-1.4,26.92-3.09,34.35-3.71" class="grey" /><path d="M59.87,45.68c0.15,1.04-0.76,2.01-1.39,2.67c-3.12,3.3-9.02,7.62-19.28,12.82" class="grey" /><path d="M57.65,53.31C67.12,58.5,73,77.5,66.38,90.46c-2.9,5.67-7.46,0.75-8.54,0.04" class="grey" /><path d="M58.15,57.56c0.17,1.13-0.15,1.95-0.79,2.89c-2.55,3.76-10.26,9.62-21.74,14.8" class="grey" /><path d="M63.57,64.73c0.17,1.39-0.1,2.5-0.77,3.74c-2.96,5.43-13,15.05-26.05,21.27" class="grey" /><path d="M85.79,49.48c-0.17,1.02-0.62,1.93-1.29,2.54c-3.13,2.86-8.53,6.54-16.74,9.55" class="grey" /><path d="M67.34,62.48c3.96,4.36,13.56,12.47,19.04,16.52c1.91,1.41,3.37,2.37,5.37,3.4" class="grey" /><path d="M30.27,17c0.2,2.02-0.06,3.67-0.71,5.41c-4.18,11.05-9.48,21.93-19.05,35.38" class="stroke" stroke-dasharray="150"><animate attributeName="stroke-dashoffset" from="150" to="0" dur="1.8s" begin="0.0s" fill="freeze" /></path><path d="M23.28,40.75c1.05,1.05,1.5,2.62,1.5,4.5c0,11.35-0.02,29.65-0.03,41c0,3.43,0,6.22,0,8" class="stroke" stroke-dasharray="150"><set attributeName="opacity" to="0" dur="1.2s" /><animate attributeName="stroke-dashoffset" from="150" to="0" dur="1.8s" begin="1.2s" fill="freeze" /></path><path d="M54.08,12.61c0.11,0.89,0.01,1.77-0.52,2.48c-2.43,3.28-6.18,8.03-13.47,12.44" class="stroke" stroke-dasharray="150"><set attributeName="opacity" to="0" dur="2.5s" /><animate attributeName="stroke-dashoffset" from="150" to="0" dur="1.8s" begin="2.5s" fill="freeze" /></path><path d="M53.03,19.15c3.1-0.27,10.35-1.4,13.64-1.97c1.78-0.31,2.73,1.76,1.97,2.58c-3.16,3.43-4.38,5.5-7.71,10.13" class="stroke" stroke-dasharray="150"><set attributeName="opacity" to="0" dur="3.5s" /><animate attributeName="stroke-dashoffset" from="150" to="0" dur="1.8s" begin="3.5s" fill="freeze" /></path><path d="M40.16,32.83c0.81,0.56,1.35,1.35,1.64,2.26c0.94,2.91,1.67,5.54,2.47,8.9c0.29,1.24,0.56,2.47,0.79,3.65" class="stroke" stroke-dasharray="150"><set attributeName="opacity" to="0" dur="4.5s" /><animate attributeName="stroke-dashoffset" from="150" to="0" dur="1.8s" begin="4.5s" fill="freeze" /></path><path d="M42.36,33.91c7.34-1.28,30.52-4.35,38.02-5.15c3.3-0.35,4.73,0.8,3.97,4.26c-0.46,2.07-1.19,4.34-2.27,6.76c-0.53,1.18-1.14,2.35-1.85,3.47" class="stroke" stroke-dasharray="150"><set attributeName="opacity" to="0" dur="5.4s" /><animate attributeName="stroke-dashoffset" from="150" to="0" dur="1.8s" begin="5.4s" fill="freeze" /></path><path d="M62.14,32.83c0.44,0.47,0.78,1.54,0.78,2.58c0,1.59-0.01,6.46-0.01,7.84" class="stroke" stroke-dasharray="150"><set attributeName="opacity" to="0" dur="6.800000000000001s" /><animate attributeName="stroke-dashoffset" from="150" to="0" dur="1.8s" begin="6.800000000000001s" fill="freeze" /></path><path d="M45.74,45.52c10.63-1.4,26.92-3.09,34.35-3.71" class="stroke" stroke-dasharray="150"><set attributeName="opacity" to="0" dur="7.700000000000001s" /><animate attributeName="stroke-dashoffset" from="150" to="0" dur="1.8s" begin="7.700000000000001s" fill="freeze" /></path><path d="M59.87,45.68c0.15,1.04-0.76,2.01-1.39,2.67c-3.12,3.3-9.02,7.62-19.28,12.82" class="stroke" stroke-dasharray="150"><set attributeName="opacity" to="0" dur="8.700000000000001s" /><animate attributeName="stroke-dashoffset" from="150" to="0" dur="1.8s" begin="8.700000000000001s" fill="freeze" /></path><path d="M57.65,53.31C67.12,58.5,73,77.5,66.38,90.46c-2.9,5.67-7.46,0.75-8.54,0.04" class="stroke" stroke-dasharray="150"><set attributeName="opacity" to="0" dur="9.700000000000001s" /><animate attributeName="stroke-dashoffset" from="150" to="0" dur="1.8s" begin="9.700000000000001s" fill="freeze" /></path><path d="M58.15,57.56c0.17,1.13-0.15,1.95-0.79,2.89c-2.55,3.76-10.26,9.62-21.74,14.8" class="stroke" stroke-dasharray="150"><set attributeName="opacity" to="0" dur="11.000000000000002s" /><animate attributeName="stroke-dashoffset" from="150" to="0" dur="1.8s" begin="11.000000000000002s" fill="freeze" /></path><path d="M63.57,64.73c0.17,1.39-0.1,2.5-0.77,3.74c-2.96,5.43-13,15.05-26.05,21.27" class="stroke" stroke-dasharray="150"><set attributeName="opacity" to="0" dur="12.000000000000002s" /><animate attributeName="stroke-dashoffset" from="150" to="0" dur="1.8s" begin="12.000000000000002s" fill="freeze" /></path><path d="M85.79,49.48c-0.17,1.02-0.62,1.93-1.29,2.54c-3.13,2.86-8.53,6.54-16.74,9.55" class="stroke" stroke-dasharray="150"><set attributeName="opacity" to="0" dur="13.000000000000002s" /><animate attributeName="stroke-dashoffset" from="150" to="0" dur="1.8s" begin="13.000000000000002s" fill="freeze" /></path><path d="M67.34,62.48c3.96,4.36,13.56,12.47,19.04,16.52c1.91,1.41,3.37,2.37,5.37,3.4" class="stroke" stroke-dasharray="150"><set attributeName="opacity" to="0" dur="14.000000000000002s" /><animate attributeName="stroke-dashoffset" from="150" to="0" dur="1.8s" begin="14.000000000000002s" fill="freeze" /></path><text x="90" y="120" id="reset-kvg-050cf">⟳</text><text x="70" y="120" id="pause-kvg-050cf">◼</text><script type="text/javascript"><![CDATA[function RecurringTimer(e,t){var n,r,i=t;this.pause=function(){window.clearTimeout(n);i-=new Date-r};var s=function(){r=new Date;n=window.setTimeout(function(){i=t;s();e()},i)};this.clear=function(){window.clearTimeout(n);i=t;n=window.setTimeout(function(){i=t;s();e()},i)};this.resume=s;this.resume()}function invoketimer(){timer=new RecurringTimer(function(){svg.setCurrentTime(0)},16000.000000000002)}var svg=document.getElementById("kvg-050cf");var pause=document.getElementById("pause-kvg-050cf");var reset=document.getElementById("reset-kvg-050cf");var timer;invoketimer();reset.onclick=function(){svg.setCurrentTime(0);timer.clear();svg.unpauseAnimations();pause.innerHTML = "◼";};pause.onclick=function(){if(svg.animationsPaused()){svg.unpauseAnimations();timer.resume();pause.innerHTML="◼"}else{svg.pauseAnimations();timer.pause();pause.innerHTML="▶"}}]]></script></svg>