<svg id="kvg-0518d" class="kanjivg" width="106" height="126" xmlns="http://www.w3.org/2000/svg" xmlns:xlink="http://www.w3.org/1999/xlink" xml:space="preserve" version="1.1" baseProfile="full"><defs><style type="text/css"><![CDATA[path.black{fill:none;stroke:black;stroke-width:5;stroke-linecap:round;stroke-linejoin:round;}path.grey{fill:none;stroke:#ddd;stroke-width:5;stroke-linecap:round;stroke-linejoin:round;}path.stroke{fill:none;stroke:black;stroke-width:5;stroke-linecap:round;stroke-linejoin:round;}rect{fill:none;stroke:#555;stroke-width:2;} text{font-size:16px;font-family:Segoe UI Symbol,Cambria Math,DejaVu Sans,Symbola,Quivira,STIX,Code2000;-webkit-touch-callout:none;cursor:pointer;-webkit-user-select:none;-khtml-user-select:none;-moz-user-select:none;-ms-user-select:none;user-select: none;}text:hover{color:#777;}#reset{font-weight:bold;}]]></style><marker id="markerStart" markerWidth="8" markerHeight="8" style="overflow:visible;"><circle cx="0" cy="0" r="1.5" style="stroke:none;fill:red;fill-opacity:0.5;"/></marker><marker id="markerEnd" style="overflow:visible;"><circle cx="0" cy="0" r="0.8" style="stroke:none;fill:blue;fill-opacity:0.5;"><animate attributeName="opacity" from="1" to="0" dur="3s" repeatCount="indefinite" /></circle></marker></defs><rect x="4" y="4" width="100" height="100" /><path d="M20.75,17.62c2.88,0.5,5.66,0.36,8.25,0.18c10.51-0.74,34.77-3.08,47.88-3.68C79.6,14,82.32,14.06,85,14.64" class="grey" /><path d="M27.95,33.19c0.87,0.87,1.71,2.61,1.71,4.6c0,5.59,0.06,36.62,0.14,51.96c0.02,3.76,0.03,3.62,0.03,7" class="grey" /><path d="M30.4,35.14c6.16-0.81,29.91-3.74,40.97-4.9c4.95-0.52,6.69-0.16,6.69,5c0,12.41-0.03,49.71-0.03,57.99c0,8.16-5.29,3.01-7.62,1.32" class="grey" /><path d="M51.92,19.12c0.73,0.73,1.27,2.51,1.27,3.89c0,12-0.07,29.38-0.07,45.12" class="grey" /><path d="M30.64,52.05c13.11-1.05,29.86-2.67,46.3-3.38" class="grey" /><path d="M11.88,71.73c3.87,0.77,6.97,0.77,10.25,0.43c18.58-1.95,45.25-4.28,63.62-4.88c3.43-0.11,8.25,0.07,11.63,0.79" class="grey" /><path d="M20.75,17.62c2.88,0.5,5.66,0.36,8.25,0.18c10.51-0.74,34.77-3.08,47.88-3.68C79.6,14,82.32,14.06,85,14.64" class="stroke" stroke-dasharray="150"><animate attributeName="stroke-dashoffset" from="150" to="0" dur="1.8s" begin="0.0s" fill="freeze" /></path><path d="M27.95,33.19c0.87,0.87,1.71,2.61,1.71,4.6c0,5.59,0.06,36.62,0.14,51.96c0.02,3.76,0.03,3.62,0.03,7" class="stroke" stroke-dasharray="150"><set attributeName="opacity" to="0" dur="1.5s" /><animate attributeName="stroke-dashoffset" from="150" to="0" dur="1.8s" begin="1.5s" fill="freeze" /></path><path d="M30.4,35.14c6.16-0.81,29.91-3.74,40.97-4.9c4.95-0.52,6.69-0.16,6.69,5c0,12.41-0.03,49.71-0.03,57.99c0,8.16-5.29,3.01-7.62,1.32" class="stroke" stroke-dasharray="150"><set attributeName="opacity" to="0" dur="3.0s" /><animate attributeName="stroke-dashoffset" from="150" to="0" dur="1.8s" begin="3.0s" fill="freeze" /></path><path d="M51.92,19.12c0.73,0.73,1.27,2.51,1.27,3.89c0,12-0.07,29.38-0.07,45.12" class="stroke" stroke-dasharray="150"><set attributeName="opacity" to="0" dur="5.0s" /><animate attributeName="stroke-dashoffset" from="150" to="0" dur="1.8s" begin="5.0s" fill="freeze" /></path><path d="M30.64,52.05c13.11-1.05,29.86-2.67,46.3-3.38" class="stroke" stroke-dasharray="150"><set attributeName="opacity" to="0" dur="6.2s" /><animate attributeName="stroke-dashoffset" from="150" to="0" dur="1.8s" begin="6.2s" fill="freeze" /></path><path d="M11.88,71.73c3.87,0.77,6.97,0.77,10.25,0.43c18.58-1.95,45.25-4.28,63.62-4.88c3.43-0.11,8.25,0.07,11.63,0.79" class="stroke" stroke-dasharray="150"><set attributeName="opacity" to="0" dur="7.4s" /><animate attributeName="stroke-dashoffset" from="150" to="0" dur="1.8s" begin="7.4s" fill="freeze" /></path><text x="90" y="120" id="reset-kvg-0518d">⟳</text><text x="70" y="120" id="pause-kvg-0518d">◼</text><script type="text/javascript"><![CDATA[function RecurringTimer(e,t){var n,r,i=t;this.pause=function(){window.clearTimeout(n);i-=new Date-r};var s=function(){r=new Date;n=window.setTimeout(function(){i=t;s();e()},i)};this.clear=function(){window.clearTimeout(n);i=t;n=window.setTimeout(function(){i=t;s();e()},i)};this.resume=s;this.resume()}function invoketimer(){timer=new RecurringTimer(function(){svg.setCurrentTime(0)},10100.0)}var svg=document.getElementById("kvg-0518d");var pause=document.getElementById("pause-kvg-0518d");var reset=document.getElementById("reset-kvg-0518d");var timer;invoketimer();reset.onclick=function(){svg.setCurrentTime(0);timer.clear();svg.unpauseAnimations();pause.innerHTML = "◼";};pause.onclick=function(){if(svg.animationsPaused()){svg.unpauseAnimations();timer.resume();pause.innerHTML="◼"}else{svg.pauseAnimations();timer.pause();pause.innerHTML="▶"}}]]></script></svg>