<svg id="kvg-052d2" class="kanjivg" width="106" height="126" xmlns="http://www.w3.org/2000/svg" xmlns:xlink="http://www.w3.org/1999/xlink" xml:space="preserve" version="1.1" baseProfile="full"><defs><style type="text/css"><![CDATA[path.black{fill:none;stroke:black;stroke-width:5;stroke-linecap:round;stroke-linejoin:round;}path.grey{fill:none;stroke:#ddd;stroke-width:5;stroke-linecap:round;stroke-linejoin:round;}path.stroke{fill:none;stroke:black;stroke-width:5;stroke-linecap:round;stroke-linejoin:round;}rect{fill:none;stroke:#555;stroke-width:2;} text{font-size:16px;font-family:Segoe UI Symbol,Cambria Math,DejaVu Sans,Symbola,Quivira,STIX,Code2000;-webkit-touch-callout:none;cursor:pointer;-webkit-user-select:none;-khtml-user-select:none;-moz-user-select:none;-ms-user-select:none;user-select: none;}text:hover{color:#777;}#reset{font-weight:bold;}]]></style><marker id="markerStart" markerWidth="8" markerHeight="8" style="overflow:visible;"><circle cx="0" cy="0" r="1.5" style="stroke:none;fill:red;fill-opacity:0.5;"/></marker><marker id="markerEnd" style="overflow:visible;"><circle cx="0" cy="0" r="0.8" style="stroke:none;fill:blue;fill-opacity:0.5;"><animate attributeName="opacity" from="1" to="0" dur="3s" repeatCount="indefinite" /></circle></marker></defs><rect x="4" y="4" width="100" height="100" /><path d="M12.9,28.92c1.09,0.39,3.59,0.99,4.68,0.89C24,29.25,41,26,50.9,25.13c1.81-0.16,2.91,0.19,3.82,0.38" class="grey" /><path d="M23.92,15.96c0.61,0.45,1,2.02,1.1,2.93C26,28,25.95,34.05,26.6,44.25" class="grey" /><path d="M42.05,13.25c0.57,0.4,1.1,1.79,1.02,2.6c-0.79,8.34-0.4,11.46-1.9,22.67" class="grey" /><path d="M26.83,40.75c1.77,0,15.18-1.73,16.77-1.87" class="grey" /><path d="M18.76,52.1c0.29,0.47,0.58,0.86,0.7,1.45c0.99,4.66,1.83,8.03,2.5,16.41" class="grey" /><path d="M19.98,53.21c8.4-1.71,25.42-3.53,29.02-4.19c1.32-0.24,2.43,1.45,2.2,2.85c-0.47,2.88-1.75,6.38-2.78,11.4" class="grey" /><path d="M21.75,67.38c4.23-0.75,21-2.88,27.98-3.38" class="grey" /><path d="M14.25,79.2c1.11,0.54,3.64,1.17,4.76,1.04c8.99-0.99,24.65-3.49,31.11-4.23c1.83-0.21,2.96,0.26,3.89,0.53" class="grey" /><path d="M34.96,42.75c0.36,1,0.54,2.23,0.54,3.25c0,8.5,0,44.75-0.12,51" class="grey" /><path d="M57.91,38.97c1.07,0.68,2.4,0.51,3.36,0.36c8.98-1.33,22.43-3.84,26.71-4.09c4.27-0.24,4.52,2.03,4.37,5.19c-0.4,8.34-6.1,39.81-11.55,48.09c-4.12,6.25-8.3,1.72-9.34,0.32" class="grey" /><path d="M72.44,16.68C73,18,73.6,18.87,73.32,21.46c-2.08,19.21-7.52,57.6-22.68,72.2" class="grey" /><path d="M12.9,28.92c1.09,0.39,3.59,0.99,4.68,0.89C24,29.25,41,26,50.9,25.13c1.81-0.16,2.91,0.19,3.82,0.38" class="stroke" stroke-dasharray="150"><animate attributeName="stroke-dashoffset" from="150" to="0" dur="1.8s" begin="0.0s" fill="freeze" /></path><path d="M23.92,15.96c0.61,0.45,1,2.02,1.1,2.93C26,28,25.95,34.05,26.6,44.25" class="stroke" stroke-dasharray="150"><set attributeName="opacity" to="0" dur="1.1s" /><animate attributeName="stroke-dashoffset" from="150" to="0" dur="1.8s" begin="1.1s" fill="freeze" /></path><path d="M42.05,13.25c0.57,0.4,1.1,1.79,1.02,2.6c-0.79,8.34-0.4,11.46-1.9,22.67" class="stroke" stroke-dasharray="150"><set attributeName="opacity" to="0" dur="2.1s" /><animate attributeName="stroke-dashoffset" from="150" to="0" dur="1.8s" begin="2.1s" fill="freeze" /></path><path d="M26.83,40.75c1.77,0,15.18-1.73,16.77-1.87" class="stroke" stroke-dasharray="150"><set attributeName="opacity" to="0" dur="3.1s" /><animate attributeName="stroke-dashoffset" from="150" to="0" dur="1.8s" begin="3.1s" fill="freeze" /></path><path d="M18.76,52.1c0.29,0.47,0.58,0.86,0.7,1.45c0.99,4.66,1.83,8.03,2.5,16.41" class="stroke" stroke-dasharray="150"><set attributeName="opacity" to="0" dur="4.0s" /><animate attributeName="stroke-dashoffset" from="150" to="0" dur="1.8s" begin="4.0s" fill="freeze" /></path><path d="M19.98,53.21c8.4-1.71,25.42-3.53,29.02-4.19c1.32-0.24,2.43,1.45,2.2,2.85c-0.47,2.88-1.75,6.38-2.78,11.4" class="stroke" stroke-dasharray="150"><set attributeName="opacity" to="0" dur="4.9s" /><animate attributeName="stroke-dashoffset" from="150" to="0" dur="1.8s" begin="4.9s" fill="freeze" /></path><path d="M21.75,67.38c4.23-0.75,21-2.88,27.98-3.38" class="stroke" stroke-dasharray="150"><set attributeName="opacity" to="0" dur="6.1000000000000005s" /><animate attributeName="stroke-dashoffset" from="150" to="0" dur="1.8s" begin="6.1000000000000005s" fill="freeze" /></path><path d="M14.25,79.2c1.11,0.54,3.64,1.17,4.76,1.04c8.99-0.99,24.65-3.49,31.11-4.23c1.83-0.21,2.96,0.26,3.89,0.53" class="stroke" stroke-dasharray="150"><set attributeName="opacity" to="0" dur="7.1000000000000005s" /><animate attributeName="stroke-dashoffset" from="150" to="0" dur="1.8s" begin="7.1000000000000005s" fill="freeze" /></path><path d="M34.96,42.75c0.36,1,0.54,2.23,0.54,3.25c0,8.5,0,44.75-0.12,51" class="stroke" stroke-dasharray="150"><set attributeName="opacity" to="0" dur="8.200000000000001s" /><animate attributeName="stroke-dashoffset" from="150" to="0" dur="1.8s" begin="8.200000000000001s" fill="freeze" /></path><path d="M57.91,38.97c1.07,0.68,2.4,0.51,3.36,0.36c8.98-1.33,22.43-3.84,26.71-4.09c4.27-0.24,4.52,2.03,4.37,5.19c-0.4,8.34-6.1,39.81-11.55,48.09c-4.12,6.25-8.3,1.72-9.34,0.32" class="stroke" stroke-dasharray="150"><set attributeName="opacity" to="0" dur="9.500000000000002s" /><animate attributeName="stroke-dashoffset" from="150" to="0" dur="1.8s" begin="9.500000000000002s" fill="freeze" /></path><path d="M72.44,16.68C73,18,73.6,18.87,73.32,21.46c-2.08,19.21-7.52,57.6-22.68,72.2" class="stroke" stroke-dasharray="150"><set attributeName="opacity" to="0" dur="11.400000000000002s" /><animate attributeName="stroke-dashoffset" from="150" to="0" dur="1.8s" begin="11.400000000000002s" fill="freeze" /></path><text x="90" y="120" id="reset-kvg-052d2">⟳</text><text x="70" y="120" id="pause-kvg-052d2">◼</text><script type="text/javascript"><![CDATA[function RecurringTimer(e,t){var n,r,i=t;this.pause=function(){window.clearTimeout(n);i-=new Date-r};var s=function(){r=new Date;n=window.setTimeout(function(){i=t;s();e()},i)};this.clear=function(){window.clearTimeout(n);i=t;n=window.setTimeout(function(){i=t;s();e()},i)};this.resume=s;this.resume()}function invoketimer(){timer=new RecurringTimer(function(){svg.setCurrentTime(0)},14100.000000000002)}var svg=document.getElementById("kvg-052d2");var pause=document.getElementById("pause-kvg-052d2");var reset=document.getElementById("reset-kvg-052d2");var timer;invoketimer();reset.onclick=function(){svg.setCurrentTime(0);timer.clear();svg.unpauseAnimations();pause.innerHTML = "◼";};pause.onclick=function(){if(svg.animationsPaused()){svg.unpauseAnimations();timer.resume();pause.innerHTML="◼"}else{svg.pauseAnimations();timer.pause();pause.innerHTML="▶"}}]]></script></svg>