<svg id="kvg-052f8" class="kanjivg" width="106" height="126" xmlns="http://www.w3.org/2000/svg" xmlns:xlink="http://www.w3.org/1999/xlink" xml:space="preserve" version="1.1" baseProfile="full"><defs><style type="text/css"><![CDATA[path.black{fill:none;stroke:black;stroke-width:5;stroke-linecap:round;stroke-linejoin:round;}path.grey{fill:none;stroke:#ddd;stroke-width:5;stroke-linecap:round;stroke-linejoin:round;}path.stroke{fill:none;stroke:black;stroke-width:5;stroke-linecap:round;stroke-linejoin:round;}rect{fill:none;stroke:#555;stroke-width:2;} text{font-size:16px;font-family:Segoe UI Symbol,Cambria Math,DejaVu Sans,Symbola,Quivira,STIX,Code2000;-webkit-touch-callout:none;cursor:pointer;-webkit-user-select:none;-khtml-user-select:none;-moz-user-select:none;-ms-user-select:none;user-select: none;}text:hover{color:#777;}#reset{font-weight:bold;}]]></style><marker id="markerStart" markerWidth="8" markerHeight="8" style="overflow:visible;"><circle cx="0" cy="0" r="1.5" style="stroke:none;fill:red;fill-opacity:0.5;"/></marker><marker id="markerEnd" style="overflow:visible;"><circle cx="0" cy="0" r="0.8" style="stroke:none;fill:blue;fill-opacity:0.5;"><animate attributeName="opacity" from="1" to="0" dur="3s" repeatCount="indefinite" /></circle></marker></defs><rect x="4" y="4" width="100" height="100" /><path d="M12,23.23c0.86,0.35,1.87,0.42,2.74,0.35c7.95-0.64,31.32-3.98,40.49-4.03c1.44-0.01,2.31,0.17,3.03,0.34" class="grey" /><path d="M25.6,14.2c0.84,0.86,1.11,1.12,1.2,1.65c0.84,4.96,1.06,10.07,1.3,11.87" class="grey" /><path d="M44.69,11.78c0.15,0.73,0.34,1.27,0.18,2.16c-0.97,5.24-1.42,7.86-2.48,12.79" class="grey" /><path d="M14.75,33.02c0.25,0.24,0.5,0.43,0.61,0.73c0.86,2.34,1.9,8.8,2.49,13" class="grey" /><path d="M16.3,34.61c5.1-1.22,11.31-2.07,14.23-2.38c1.07-0.11,1.71,0.67,1.56,1.33c-0.63,2.73-1.37,5.54-2.31,9.32" class="grey" /><path d="M17.97,44.7c3.43-0.35,9.16-1.45,13.87-1.98" class="grey" /><path d="M39.25,30.57c0.24,0.24,0.48,0.45,0.59,0.75c0.83,2.42,1.82,8.09,2.38,12.43" class="grey" /><path d="M40.74,32.21c4.88-1.26,10.82-2.16,13.61-2.47c1.02-0.12,1.63,0.69,1.49,1.37c-0.61,2.83-1.31,4.74-2.21,8.64" class="grey" /><path d="M42.33,41.63c3.28-0.36,7.81-0.98,12.31-1.53" class="grey" /><path d="M25.68,48.5c0.15,1.02-0.04,2.35-0.54,3.22c-3.16,5.56-7.16,10.27-14.39,17.03" class="grey" /><path d="M21.92,57.71c0.52,0.56,0.92,1.8,0.96,2.67c0.31,7.78-0.43,32.82-0.17,36.87" class="grey" /><path d="M41.08,46.75c0.04,0.45-0.01,1.05-0.15,1.44c-0.85,2.48-1.93,4.4-3.89,7.41" class="grey" /><path d="M22.73,57.88c6.07-0.73,29.16-2.87,31.76-3.27" class="grey" /><path d="M37.96,56.87c0.29,0.29,0.53,0.68,0.53,1.18c0,5.05,0.03,23.1-0.15,31.05" class="grey" /><path d="M23.54,67.95c5.72-0.61,26-2.87,28.46-3.2" class="grey" /><path d="M23.35,78.19c6.04-0.51,26.87-2.05,29.47-2.33" class="grey" /><path d="M22.85,90.78c6.07-0.73,30.3-3.13,32.9-3.53" class="grey" /><path d="M60.71,41.57c0.91,0.4,2.05,0.35,2.84,0.22c6.46-1.12,24.53-4.1,28.11-4.51c2.33-0.27,3.04,1.21,2.85,3.09C93,55,88.75,77,81.9,91.43c-1.98,4.16-5.4,1.32-7.22-0.9" class="grey" /><path d="M75.92,15.93c0.58,1.07,0.96,2.26,0.93,3.52C76.5,34.25,71.25,70,55.5,93.5" class="grey" /><path d="M12,23.23c0.86,0.35,1.87,0.42,2.74,0.35c7.95-0.64,31.32-3.98,40.49-4.03c1.44-0.01,2.31,0.17,3.03,0.34" class="stroke" stroke-dasharray="150"><animate attributeName="stroke-dashoffset" from="150" to="0" dur="1.8s" begin="0.0s" fill="freeze" /></path><path d="M25.6,14.2c0.84,0.86,1.11,1.12,1.2,1.65c0.84,4.96,1.06,10.07,1.3,11.87" class="stroke" stroke-dasharray="150"><set attributeName="opacity" to="0" dur="1.2s" /><animate attributeName="stroke-dashoffset" from="150" to="0" dur="1.8s" begin="1.2s" fill="freeze" /></path><path d="M44.69,11.78c0.15,0.73,0.34,1.27,0.18,2.16c-0.97,5.24-1.42,7.86-2.48,12.79" class="stroke" stroke-dasharray="150"><set attributeName="opacity" to="0" dur="2.1s" /><animate attributeName="stroke-dashoffset" from="150" to="0" dur="1.8s" begin="2.1s" fill="freeze" /></path><path d="M14.75,33.02c0.25,0.24,0.5,0.43,0.61,0.73c0.86,2.34,1.9,8.8,2.49,13" class="stroke" stroke-dasharray="150"><set attributeName="opacity" to="0" dur="3.0s" /><animate attributeName="stroke-dashoffset" from="150" to="0" dur="1.8s" begin="3.0s" fill="freeze" /></path><path d="M16.3,34.61c5.1-1.22,11.31-2.07,14.23-2.38c1.07-0.11,1.71,0.67,1.56,1.33c-0.63,2.73-1.37,5.54-2.31,9.32" class="stroke" stroke-dasharray="150"><set attributeName="opacity" to="0" dur="3.9s" /><animate attributeName="stroke-dashoffset" from="150" to="0" dur="1.8s" begin="3.9s" fill="freeze" /></path><path d="M17.97,44.7c3.43-0.35,9.16-1.45,13.87-1.98" class="stroke" stroke-dasharray="150"><set attributeName="opacity" to="0" dur="4.9s" /><animate attributeName="stroke-dashoffset" from="150" to="0" dur="1.8s" begin="4.9s" fill="freeze" /></path><path d="M39.25,30.57c0.24,0.24,0.48,0.45,0.59,0.75c0.83,2.42,1.82,8.09,2.38,12.43" class="stroke" stroke-dasharray="150"><set attributeName="opacity" to="0" dur="5.800000000000001s" /><animate attributeName="stroke-dashoffset" from="150" to="0" dur="1.8s" begin="5.800000000000001s" fill="freeze" /></path><path d="M40.74,32.21c4.88-1.26,10.82-2.16,13.61-2.47c1.02-0.12,1.63,0.69,1.49,1.37c-0.61,2.83-1.31,4.74-2.21,8.64" class="stroke" stroke-dasharray="150"><set attributeName="opacity" to="0" dur="6.700000000000001s" /><animate attributeName="stroke-dashoffset" from="150" to="0" dur="1.8s" begin="6.700000000000001s" fill="freeze" /></path><path d="M42.33,41.63c3.28-0.36,7.81-0.98,12.31-1.53" class="stroke" stroke-dasharray="150"><set attributeName="opacity" to="0" dur="7.700000000000001s" /><animate attributeName="stroke-dashoffset" from="150" to="0" dur="1.8s" begin="7.700000000000001s" fill="freeze" /></path><path d="M25.68,48.5c0.15,1.02-0.04,2.35-0.54,3.22c-3.16,5.56-7.16,10.27-14.39,17.03" class="stroke" stroke-dasharray="150"><set attributeName="opacity" to="0" dur="8.600000000000001s" /><animate attributeName="stroke-dashoffset" from="150" to="0" dur="1.8s" begin="8.600000000000001s" fill="freeze" /></path><path d="M21.92,57.71c0.52,0.56,0.92,1.8,0.96,2.67c0.31,7.78-0.43,32.82-0.17,36.87" class="stroke" stroke-dasharray="150"><set attributeName="opacity" to="0" dur="9.600000000000001s" /><animate attributeName="stroke-dashoffset" from="150" to="0" dur="1.8s" begin="9.600000000000001s" fill="freeze" /></path><path d="M41.08,46.75c0.04,0.45-0.01,1.05-0.15,1.44c-0.85,2.48-1.93,4.4-3.89,7.41" class="stroke" stroke-dasharray="150"><set attributeName="opacity" to="0" dur="10.600000000000001s" /><animate attributeName="stroke-dashoffset" from="150" to="0" dur="1.8s" begin="10.600000000000001s" fill="freeze" /></path><path d="M22.73,57.88c6.07-0.73,29.16-2.87,31.76-3.27" class="stroke" stroke-dasharray="150"><set attributeName="opacity" to="0" dur="11.500000000000002s" /><animate attributeName="stroke-dashoffset" from="150" to="0" dur="1.8s" begin="11.500000000000002s" fill="freeze" /></path><path d="M37.96,56.87c0.29,0.29,0.53,0.68,0.53,1.18c0,5.05,0.03,23.1-0.15,31.05" class="stroke" stroke-dasharray="150"><set attributeName="opacity" to="0" dur="12.500000000000002s" /><animate attributeName="stroke-dashoffset" from="150" to="0" dur="1.8s" begin="12.500000000000002s" fill="freeze" /></path><path d="M23.54,67.95c5.72-0.61,26-2.87,28.46-3.2" class="stroke" stroke-dasharray="150"><set attributeName="opacity" to="0" dur="13.500000000000002s" /><animate attributeName="stroke-dashoffset" from="150" to="0" dur="1.8s" begin="13.500000000000002s" fill="freeze" /></path><path d="M23.35,78.19c6.04-0.51,26.87-2.05,29.47-2.33" class="stroke" stroke-dasharray="150"><set attributeName="opacity" to="0" dur="14.500000000000002s" /><animate attributeName="stroke-dashoffset" from="150" to="0" dur="1.8s" begin="14.500000000000002s" fill="freeze" /></path><path d="M22.85,90.78c6.07-0.73,30.3-3.13,32.9-3.53" class="stroke" stroke-dasharray="150"><set attributeName="opacity" to="0" dur="15.500000000000002s" /><animate attributeName="stroke-dashoffset" from="150" to="0" dur="1.8s" begin="15.500000000000002s" fill="freeze" /></path><path d="M60.71,41.57c0.91,0.4,2.05,0.35,2.84,0.22c6.46-1.12,24.53-4.1,28.11-4.51c2.33-0.27,3.04,1.21,2.85,3.09C93,55,88.75,77,81.9,91.43c-1.98,4.16-5.4,1.32-7.22-0.9" class="stroke" stroke-dasharray="150"><set attributeName="opacity" to="0" dur="16.5s" /><animate attributeName="stroke-dashoffset" from="150" to="0" dur="1.8s" begin="16.5s" fill="freeze" /></path><path d="M75.92,15.93c0.58,1.07,0.96,2.26,0.93,3.52C76.5,34.25,71.25,70,55.5,93.5" class="stroke" stroke-dasharray="150"><set attributeName="opacity" to="0" dur="18.3s" /><animate attributeName="stroke-dashoffset" from="150" to="0" dur="1.8s" begin="18.3s" fill="freeze" /></path><text x="90" y="120" id="reset-kvg-052f8">⟳</text><text x="70" y="120" id="pause-kvg-052f8">◼</text><script type="text/javascript"><![CDATA[function RecurringTimer(e,t){var n,r,i=t;this.pause=function(){window.clearTimeout(n);i-=new Date-r};var s=function(){r=new Date;n=window.setTimeout(function(){i=t;s();e()},i)};this.clear=function(){window.clearTimeout(n);i=t;n=window.setTimeout(function(){i=t;s();e()},i)};this.resume=s;this.resume()}function invoketimer(){timer=new RecurringTimer(function(){svg.setCurrentTime(0)},21000.0)}var svg=document.getElementById("kvg-052f8");var pause=document.getElementById("pause-kvg-052f8");var reset=document.getElementById("reset-kvg-052f8");var timer;invoketimer();reset.onclick=function(){svg.setCurrentTime(0);timer.clear();svg.unpauseAnimations();pause.innerHTML = "◼";};pause.onclick=function(){if(svg.animationsPaused()){svg.unpauseAnimations();timer.resume();pause.innerHTML="◼"}else{svg.pauseAnimations();timer.pause();pause.innerHTML="▶"}}]]></script></svg>