<svg id="kvg-0530d" class="kanjivg" width="106" height="126" xmlns="http://www.w3.org/2000/svg" xmlns:xlink="http://www.w3.org/1999/xlink" xml:space="preserve" version="1.1" baseProfile="full"><defs><style type="text/css"><![CDATA[path.black{fill:none;stroke:black;stroke-width:5;stroke-linecap:round;stroke-linejoin:round;}path.grey{fill:none;stroke:#ddd;stroke-width:5;stroke-linecap:round;stroke-linejoin:round;}path.stroke{fill:none;stroke:black;stroke-width:5;stroke-linecap:round;stroke-linejoin:round;}rect{fill:none;stroke:#555;stroke-width:2;} text{font-size:16px;font-family:Segoe UI Symbol,Cambria Math,DejaVu Sans,Symbola,Quivira,STIX,Code2000;-webkit-touch-callout:none;cursor:pointer;-webkit-user-select:none;-khtml-user-select:none;-moz-user-select:none;-ms-user-select:none;user-select: none;}text:hover{color:#777;}#reset{font-weight:bold;}]]></style><marker id="markerStart" markerWidth="8" markerHeight="8" style="overflow:visible;"><circle cx="0" cy="0" r="1.5" style="stroke:none;fill:red;fill-opacity:0.5;"/></marker><marker id="markerEnd" style="overflow:visible;"><circle cx="0" cy="0" r="0.8" style="stroke:none;fill:blue;fill-opacity:0.5;"><animate attributeName="opacity" from="1" to="0" dur="3s" repeatCount="indefinite" /></circle></marker></defs><rect x="4" y="4" width="100" height="100" /><path d="M37,11c0.07,0.75,0.14,1.92-0.13,2.99c-1.62,6.31-10.9,20.16-23.61,28.63" class="grey" /><path d="M35,23.38c1.34,0.77,3.16,0.73,5.35,0.51c6.65-0.64,40.92-4.14,46.28-4.14c4.13,0,6.31,1,6.11,5.97C92.25,38,90.25,70.5,86.02,91.18c-1.13,5.53-4.11,5.07-8.12,0.19" class="grey" /><path d="M27.25,40.47c1.02,0.38,2.88,0.45,3.9,0.38c8.35-0.54,18.35-2.56,29.79-2.89c1.69-0.05,2.71,0.18,3.56,0.38" class="grey" /><path d="M27.41,50.09c0.55,0.59,0.91,1.68,1.09,2.28c0.18,0.59-0.22,38.43-0.2,43.77" class="grey" /><path d="M28.6,51.56c6.14-0.25,34.13-3.07,35.76-3.24c2.92-0.3,4.01,1.92,3.65,2.81c-0.04,2-0.62,25.41-0.62,38.96c0,9.66-6,1.44-7.29,0.86" class="grey" /><path d="M29.1,62.79c8.13-0.52,31.57-2.24,38.13-2.69" class="grey" /><path d="M28.77,74.74c5.83-0.44,31.71-2.25,38.46-2.54" class="grey" /><path d="M45.2,28.85c1.29,0.48,2.06,2.15,2.32,3.11c0.26,0.96,0,56.22-0.26,62.2" class="grey" /><path d="M60.5,28.25c3.56,1.56,8.61,5.87,9.5,8.3" class="grey" /><path d="M37,11c0.07,0.75,0.14,1.92-0.13,2.99c-1.62,6.31-10.9,20.16-23.61,28.63" class="stroke" stroke-dasharray="150"><animate attributeName="stroke-dashoffset" from="150" to="0" dur="1.8s" begin="0.0s" fill="freeze" /></path><path d="M35,23.38c1.34,0.77,3.16,0.73,5.35,0.51c6.65-0.64,40.92-4.14,46.28-4.14c4.13,0,6.31,1,6.11,5.97C92.25,38,90.25,70.5,86.02,91.18c-1.13,5.53-4.11,5.07-8.12,0.19" class="stroke" stroke-dasharray="150"><set attributeName="opacity" to="0" dur="1.1s" /><animate attributeName="stroke-dashoffset" from="150" to="0" dur="1.8s" begin="1.1s" fill="freeze" /></path><path d="M27.25,40.47c1.02,0.38,2.88,0.45,3.9,0.38c8.35-0.54,18.35-2.56,29.79-2.89c1.69-0.05,2.71,0.18,3.56,0.38" class="stroke" stroke-dasharray="150"><set attributeName="opacity" to="0" dur="3.1s" /><animate attributeName="stroke-dashoffset" from="150" to="0" dur="1.8s" begin="3.1s" fill="freeze" /></path><path d="M27.41,50.09c0.55,0.59,0.91,1.68,1.09,2.28c0.18,0.59-0.22,38.43-0.2,43.77" class="stroke" stroke-dasharray="150"><set attributeName="opacity" to="0" dur="4.1s" /><animate attributeName="stroke-dashoffset" from="150" to="0" dur="1.8s" begin="4.1s" fill="freeze" /></path><path d="M28.6,51.56c6.14-0.25,34.13-3.07,35.76-3.24c2.92-0.3,4.01,1.92,3.65,2.81c-0.04,2-0.62,25.41-0.62,38.96c0,9.66-6,1.44-7.29,0.86" class="stroke" stroke-dasharray="150"><set attributeName="opacity" to="0" dur="5.3s" /><animate attributeName="stroke-dashoffset" from="150" to="0" dur="1.8s" begin="5.3s" fill="freeze" /></path><path d="M29.1,62.79c8.13-0.52,31.57-2.24,38.13-2.69" class="stroke" stroke-dasharray="150"><set attributeName="opacity" to="0" dur="7.1s" /><animate attributeName="stroke-dashoffset" from="150" to="0" dur="1.8s" begin="7.1s" fill="freeze" /></path><path d="M28.77,74.74c5.83-0.44,31.71-2.25,38.46-2.54" class="stroke" stroke-dasharray="150"><set attributeName="opacity" to="0" dur="8.1s" /><animate attributeName="stroke-dashoffset" from="150" to="0" dur="1.8s" begin="8.1s" fill="freeze" /></path><path d="M45.2,28.85c1.29,0.48,2.06,2.15,2.32,3.11c0.26,0.96,0,56.22-0.26,62.2" class="stroke" stroke-dasharray="150"><set attributeName="opacity" to="0" dur="9.1s" /><animate attributeName="stroke-dashoffset" from="150" to="0" dur="1.8s" begin="9.1s" fill="freeze" /></path><path d="M60.5,28.25c3.56,1.56,8.61,5.87,9.5,8.3" class="stroke" stroke-dasharray="150"><set attributeName="opacity" to="0" dur="10.6s" /><animate attributeName="stroke-dashoffset" from="150" to="0" dur="1.8s" begin="10.6s" fill="freeze" /></path><text x="90" y="120" id="reset-kvg-0530d">⟳</text><text x="70" y="120" id="pause-kvg-0530d">◼</text><script type="text/javascript"><![CDATA[function RecurringTimer(e,t){var n,r,i=t;this.pause=function(){window.clearTimeout(n);i-=new Date-r};var s=function(){r=new Date;n=window.setTimeout(function(){i=t;s();e()},i)};this.clear=function(){window.clearTimeout(n);i=t;n=window.setTimeout(function(){i=t;s();e()},i)};this.resume=s;this.resume()}function invoketimer(){timer=new RecurringTimer(function(){svg.setCurrentTime(0)},12500.0)}var svg=document.getElementById("kvg-0530d");var pause=document.getElementById("pause-kvg-0530d");var reset=document.getElementById("reset-kvg-0530d");var timer;invoketimer();reset.onclick=function(){svg.setCurrentTime(0);timer.clear();svg.unpauseAnimations();pause.innerHTML = "◼";};pause.onclick=function(){if(svg.animationsPaused()){svg.unpauseAnimations();timer.resume();pause.innerHTML="◼"}else{svg.pauseAnimations();timer.pause();pause.innerHTML="▶"}}]]></script></svg>