<svg id="kvg-053cc" class="kanjivg" width="106" height="126" xmlns="http://www.w3.org/2000/svg" xmlns:xlink="http://www.w3.org/1999/xlink" xml:space="preserve" version="1.1" baseProfile="full"><defs><style type="text/css"><![CDATA[path.black{fill:none;stroke:black;stroke-width:5;stroke-linecap:round;stroke-linejoin:round;}path.grey{fill:none;stroke:#ddd;stroke-width:5;stroke-linecap:round;stroke-linejoin:round;}path.stroke{fill:none;stroke:black;stroke-width:5;stroke-linecap:round;stroke-linejoin:round;}rect{fill:none;stroke:#555;stroke-width:2;} text{font-size:16px;font-family:Segoe UI Symbol,Cambria Math,DejaVu Sans,Symbola,Quivira,STIX,Code2000;-webkit-touch-callout:none;cursor:pointer;-webkit-user-select:none;-khtml-user-select:none;-moz-user-select:none;-ms-user-select:none;user-select: none;}text:hover{color:#777;}#reset{font-weight:bold;}]]></style><marker id="markerStart" markerWidth="8" markerHeight="8" style="overflow:visible;"><circle cx="0" cy="0" r="1.5" style="stroke:none;fill:red;fill-opacity:0.5;"/></marker><marker id="markerEnd" style="overflow:visible;"><circle cx="0" cy="0" r="0.8" style="stroke:none;fill:blue;fill-opacity:0.5;"><animate attributeName="opacity" from="1" to="0" dur="3s" repeatCount="indefinite" /></circle></marker></defs><rect x="4" y="4" width="100" height="100" /><path d="M14.54,31.55c1.18,0.39,3.06,0.63,5.45,0.14c3.01-0.62,12.57-3.5,17.06-4.8c2.72-0.79,5.3,0.19,4.5,3.52C36.6,51.15,28.75,71,9.17,84.5" class="grey" /><path d="M19.12,46c8.38,5.38,18.28,14.69,24.12,26.25" class="grey" /><path d="M52.29,28.05c1.18,0.39,3.8,0.58,6.2,0.14c4.39-0.82,16.12-4.39,17.75-4.97c2.76-0.98,5.16,0.87,4.22,4.02c-7.21,24.12-18.33,45.62-38.21,58" class="grey" /><path d="M51.02,39.66c5.18,0.95,19.74,22.79,33.04,36.29c3.45,3.5,7.09,6.62,11.28,9.2" class="grey" /><path d="M14.54,31.55c1.18,0.39,3.06,0.63,5.45,0.14c3.01-0.62,12.57-3.5,17.06-4.8c2.72-0.79,5.3,0.19,4.5,3.52C36.6,51.15,28.75,71,9.17,84.5" class="stroke" stroke-dasharray="150"><animate attributeName="stroke-dashoffset" from="150" to="0" dur="1.8s" begin="0.0s" fill="freeze" /></path><path d="M19.12,46c8.38,5.38,18.28,14.69,24.12,26.25" class="stroke" stroke-dasharray="150"><set attributeName="opacity" to="0" dur="1.8s" /><animate attributeName="stroke-dashoffset" from="150" to="0" dur="1.8s" begin="1.8s" fill="freeze" /></path><path d="M52.29,28.05c1.18,0.39,3.8,0.58,6.2,0.14c4.39-0.82,16.12-4.39,17.75-4.97c2.76-0.98,5.16,0.87,4.22,4.02c-7.21,24.12-18.33,45.62-38.21,58" class="stroke" stroke-dasharray="150"><set attributeName="opacity" to="0" dur="2.8s" /><animate attributeName="stroke-dashoffset" from="150" to="0" dur="1.8s" begin="2.8s" fill="freeze" /></path><path d="M51.02,39.66c5.18,0.95,19.74,22.79,33.04,36.29c3.45,3.5,7.09,6.62,11.28,9.2" class="stroke" stroke-dasharray="150"><set attributeName="opacity" to="0" dur="4.699999999999999s" /><animate attributeName="stroke-dashoffset" from="150" to="0" dur="1.8s" begin="4.699999999999999s" fill="freeze" /></path><text x="90" y="120" id="reset-kvg-053cc">⟳</text><text x="70" y="120" id="pause-kvg-053cc">◼</text><script type="text/javascript"><![CDATA[function RecurringTimer(e,t){var n,r,i=t;this.pause=function(){window.clearTimeout(n);i-=new Date-r};var s=function(){r=new Date;n=window.setTimeout(function(){i=t;s();e()},i)};this.clear=function(){window.clearTimeout(n);i=t;n=window.setTimeout(function(){i=t;s();e()},i)};this.resume=s;this.resume()}function invoketimer(){timer=new RecurringTimer(function(){svg.setCurrentTime(0)},7199.999999999999)}var svg=document.getElementById("kvg-053cc");var pause=document.getElementById("pause-kvg-053cc");var reset=document.getElementById("reset-kvg-053cc");var timer;invoketimer();reset.onclick=function(){svg.setCurrentTime(0);timer.clear();svg.unpauseAnimations();pause.innerHTML = "◼";};pause.onclick=function(){if(svg.animationsPaused()){svg.unpauseAnimations();timer.resume();pause.innerHTML="◼"}else{svg.pauseAnimations();timer.pause();pause.innerHTML="▶"}}]]></script></svg>