<svg id="kvg-053ef" class="kanjivg" width="106" height="126" xmlns="http://www.w3.org/2000/svg" xmlns:xlink="http://www.w3.org/1999/xlink" xml:space="preserve" version="1.1" baseProfile="full"><defs><style type="text/css"><![CDATA[path.black{fill:none;stroke:black;stroke-width:5;stroke-linecap:round;stroke-linejoin:round;}path.grey{fill:none;stroke:#ddd;stroke-width:5;stroke-linecap:round;stroke-linejoin:round;}path.stroke{fill:none;stroke:black;stroke-width:5;stroke-linecap:round;stroke-linejoin:round;}rect{fill:none;stroke:#555;stroke-width:2;} text{font-size:16px;font-family:Segoe UI Symbol,Cambria Math,DejaVu Sans,Symbola,Quivira,STIX,Code2000;-webkit-touch-callout:none;cursor:pointer;-webkit-user-select:none;-khtml-user-select:none;-moz-user-select:none;-ms-user-select:none;user-select: none;}text:hover{color:#777;}#reset{font-weight:bold;}]]></style><marker id="markerStart" markerWidth="8" markerHeight="8" style="overflow:visible;"><circle cx="0" cy="0" r="1.5" style="stroke:none;fill:red;fill-opacity:0.5;"/></marker><marker id="markerEnd" style="overflow:visible;"><circle cx="0" cy="0" r="0.8" style="stroke:none;fill:blue;fill-opacity:0.5;"><animate attributeName="opacity" from="1" to="0" dur="3s" repeatCount="indefinite" /></circle></marker></defs><rect x="4" y="4" width="100" height="100" /><path d="M13.88,21.98C18,22.75,21.74,22.34,25.39,22c13.57-1.26,43.04-4.34,58.11-5.52c3.93-0.31,7.74-0.5,11.63,0.33" class="grey" /><path d="M25,42.14c0.87,0.87,1.5,1.99,1.79,3.21c0.74,3.14,1.96,9.62,2.94,15.63c0.28,1.74,0.55,3.45,0.77,5.02" class="grey" /><path d="M27.38,44.28c7.5-1.77,16.49-3.18,21.87-4.27c3.75-0.76,5.13,1.05,4.31,4.53c-1.01,4.33-1.94,8.21-3.4,14.01" class="grey" /><path d="M31.2,61.83c5.62-0.7,11.39-1.52,17.83-2.29c1.21-0.14,2.43-0.29,3.69-0.43" class="grey" /><path d="M75.46,20.33c1.04,1.04,2.01,2.67,2.01,4.77c0,14.56-0.01,60.44-0.01,65.4c0,10.62-7.96,1.25-9.46,0" class="grey" /><path d="M13.88,21.98C18,22.75,21.74,22.34,25.39,22c13.57-1.26,43.04-4.34,58.11-5.52c3.93-0.31,7.74-0.5,11.63,0.33" class="stroke" stroke-dasharray="150"><animate attributeName="stroke-dashoffset" from="150" to="0" dur="1.8s" begin="0.0s" fill="freeze" /></path><path d="M25,42.14c0.87,0.87,1.5,1.99,1.79,3.21c0.74,3.14,1.96,9.62,2.94,15.63c0.28,1.74,0.55,3.45,0.77,5.02" class="stroke" stroke-dasharray="150"><set attributeName="opacity" to="0" dur="1.7s" /><animate attributeName="stroke-dashoffset" from="150" to="0" dur="1.8s" begin="1.7s" fill="freeze" /></path><path d="M27.38,44.28c7.5-1.77,16.49-3.18,21.87-4.27c3.75-0.76,5.13,1.05,4.31,4.53c-1.01,4.33-1.94,8.21-3.4,14.01" class="stroke" stroke-dasharray="150"><set attributeName="opacity" to="0" dur="2.7s" /><animate attributeName="stroke-dashoffset" from="150" to="0" dur="1.8s" begin="2.7s" fill="freeze" /></path><path d="M31.2,61.83c5.62-0.7,11.39-1.52,17.83-2.29c1.21-0.14,2.43-0.29,3.69-0.43" class="stroke" stroke-dasharray="150"><set attributeName="opacity" to="0" dur="3.8000000000000003s" /><animate attributeName="stroke-dashoffset" from="150" to="0" dur="1.8s" begin="3.8000000000000003s" fill="freeze" /></path><path d="M75.46,20.33c1.04,1.04,2.01,2.67,2.01,4.77c0,14.56-0.01,60.44-0.01,65.4c0,10.62-7.96,1.25-9.46,0" class="stroke" stroke-dasharray="150"><set attributeName="opacity" to="0" dur="4.800000000000001s" /><animate attributeName="stroke-dashoffset" from="150" to="0" dur="1.8s" begin="4.800000000000001s" fill="freeze" /></path><text x="90" y="120" id="reset-kvg-053ef">⟳</text><text x="70" y="120" id="pause-kvg-053ef">◼</text><script type="text/javascript"><![CDATA[function RecurringTimer(e,t){var n,r,i=t;this.pause=function(){window.clearTimeout(n);i-=new Date-r};var s=function(){r=new Date;n=window.setTimeout(function(){i=t;s();e()},i)};this.clear=function(){window.clearTimeout(n);i=t;n=window.setTimeout(function(){i=t;s();e()},i)};this.resume=s;this.resume()}function invoketimer(){timer=new RecurringTimer(function(){svg.setCurrentTime(0)},7500.000000000001)}var svg=document.getElementById("kvg-053ef");var pause=document.getElementById("pause-kvg-053ef");var reset=document.getElementById("reset-kvg-053ef");var timer;invoketimer();reset.onclick=function(){svg.setCurrentTime(0);timer.clear();svg.unpauseAnimations();pause.innerHTML = "◼";};pause.onclick=function(){if(svg.animationsPaused()){svg.unpauseAnimations();timer.resume();pause.innerHTML="◼"}else{svg.pauseAnimations();timer.pause();pause.innerHTML="▶"}}]]></script></svg>