<svg id="kvg-0543e" class="kanjivg" width="106" height="126" xmlns="http://www.w3.org/2000/svg" xmlns:xlink="http://www.w3.org/1999/xlink" xml:space="preserve" version="1.1" baseProfile="full"><defs><style type="text/css"><![CDATA[path.black{fill:none;stroke:black;stroke-width:5;stroke-linecap:round;stroke-linejoin:round;}path.grey{fill:none;stroke:#ddd;stroke-width:5;stroke-linecap:round;stroke-linejoin:round;}path.stroke{fill:none;stroke:black;stroke-width:5;stroke-linecap:round;stroke-linejoin:round;}rect{fill:none;stroke:#555;stroke-width:2;} text{font-size:16px;font-family:Segoe UI Symbol,Cambria Math,DejaVu Sans,Symbola,Quivira,STIX,Code2000;-webkit-touch-callout:none;cursor:pointer;-webkit-user-select:none;-khtml-user-select:none;-moz-user-select:none;-ms-user-select:none;user-select: none;}text:hover{color:#777;}#reset{font-weight:bold;}]]></style><marker id="markerStart" markerWidth="8" markerHeight="8" style="overflow:visible;"><circle cx="0" cy="0" r="1.5" style="stroke:none;fill:red;fill-opacity:0.5;"/></marker><marker id="markerEnd" style="overflow:visible;"><circle cx="0" cy="0" r="0.8" style="stroke:none;fill:blue;fill-opacity:0.5;"><animate attributeName="opacity" from="1" to="0" dur="3s" repeatCount="indefinite" /></circle></marker></defs><rect x="4" y="4" width="100" height="100" /><path d="M28.88,18.24c2.38,0.38,4.9,0.48,7.15,0.25c9.85-0.99,24.48-2.35,35.1-2.68c2.29-0.07,5.37,0.04,7.63,0.46" class="grey" /><path d="M53.24,20c0.38,1,0.13,2.25-0.21,3.39c-1.56,5.15-7.15,24.74-9.53,31.36" class="grey" /><path d="M30.23,37.96c1.64,0.91,4.46,0.88,6.02,0.65c11.64-1.7,26.25-3.99,34.44-4.34c2.14-0.09,3.44,1.35,3,3.24c-1.01,4.42-2.82,12.61-3.94,16.48" class="grey" /><path d="M12.63,57.98c2.94,0.82,6.37,0.69,9.38,0.45c14.37-1.12,44.86-3.19,63.61-3.83c3.55-0.12,6.98-0.08,10.5,0.5" class="grey" /><path d="M32.6,70.5c0.53,0.75,0.9,1.75,1.2,3.27c1.01,5.1,2.38,15,3.2,21.48" class="grey" /><path d="M34.73,72.59c8.03-0.97,25.84-2.62,33.39-3.35c3.51-0.34,5.7-0.06,4.73,4.04c-1.11,4.69-2.68,9.71-4.14,16.2" class="grey" /><path d="M38.19,92.16c6.47-0.33,19.99-1.2,28.96-1.66c2.2-0.11,4.13-0.2,5.61-0.25" class="grey" /><path d="M28.88,18.24c2.38,0.38,4.9,0.48,7.15,0.25c9.85-0.99,24.48-2.35,35.1-2.68c2.29-0.07,5.37,0.04,7.63,0.46" class="stroke" stroke-dasharray="150"><animate attributeName="stroke-dashoffset" from="150" to="0" dur="1.8s" begin="0.0s" fill="freeze" /></path><path d="M53.24,20c0.38,1,0.13,2.25-0.21,3.39c-1.56,5.15-7.15,24.74-9.53,31.36" class="stroke" stroke-dasharray="150"><set attributeName="opacity" to="0" dur="1.3s" /><animate attributeName="stroke-dashoffset" from="150" to="0" dur="1.8s" begin="1.3s" fill="freeze" /></path><path d="M30.23,37.96c1.64,0.91,4.46,0.88,6.02,0.65c11.64-1.7,26.25-3.99,34.44-4.34c2.14-0.09,3.44,1.35,3,3.24c-1.01,4.42-2.82,12.61-3.94,16.48" class="stroke" stroke-dasharray="150"><set attributeName="opacity" to="0" dur="2.3s" /><animate attributeName="stroke-dashoffset" from="150" to="0" dur="1.8s" begin="2.3s" fill="freeze" /></path><path d="M12.63,57.98c2.94,0.82,6.37,0.69,9.38,0.45c14.37-1.12,44.86-3.19,63.61-3.83c3.55-0.12,6.98-0.08,10.5,0.5" class="stroke" stroke-dasharray="150"><set attributeName="opacity" to="0" dur="3.8s" /><animate attributeName="stroke-dashoffset" from="150" to="0" dur="1.8s" begin="3.8s" fill="freeze" /></path><path d="M32.6,70.5c0.53,0.75,0.9,1.75,1.2,3.27c1.01,5.1,2.38,15,3.2,21.48" class="stroke" stroke-dasharray="150"><set attributeName="opacity" to="0" dur="5.5s" /><animate attributeName="stroke-dashoffset" from="150" to="0" dur="1.8s" begin="5.5s" fill="freeze" /></path><path d="M34.73,72.59c8.03-0.97,25.84-2.62,33.39-3.35c3.51-0.34,5.7-0.06,4.73,4.04c-1.11,4.69-2.68,9.71-4.14,16.2" class="stroke" stroke-dasharray="150"><set attributeName="opacity" to="0" dur="6.5s" /><animate attributeName="stroke-dashoffset" from="150" to="0" dur="1.8s" begin="6.5s" fill="freeze" /></path><path d="M38.19,92.16c6.47-0.33,19.99-1.2,28.96-1.66c2.2-0.11,4.13-0.2,5.61-0.25" class="stroke" stroke-dasharray="150"><set attributeName="opacity" to="0" dur="7.9s" /><animate attributeName="stroke-dashoffset" from="150" to="0" dur="1.8s" begin="7.9s" fill="freeze" /></path><text x="90" y="120" id="reset-kvg-0543e">⟳</text><text x="70" y="120" id="pause-kvg-0543e">◼</text><script type="text/javascript"><![CDATA[function RecurringTimer(e,t){var n,r,i=t;this.pause=function(){window.clearTimeout(n);i-=new Date-r};var s=function(){r=new Date;n=window.setTimeout(function(){i=t;s();e()},i)};this.clear=function(){window.clearTimeout(n);i=t;n=window.setTimeout(function(){i=t;s();e()},i)};this.resume=s;this.resume()}function invoketimer(){timer=new RecurringTimer(function(){svg.setCurrentTime(0)},9900.0)}var svg=document.getElementById("kvg-0543e");var pause=document.getElementById("pause-kvg-0543e");var reset=document.getElementById("reset-kvg-0543e");var timer;invoketimer();reset.onclick=function(){svg.setCurrentTime(0);timer.clear();svg.unpauseAnimations();pause.innerHTML = "◼";};pause.onclick=function(){if(svg.animationsPaused()){svg.unpauseAnimations();timer.resume();pause.innerHTML="◼"}else{svg.pauseAnimations();timer.pause();pause.innerHTML="▶"}}]]></script></svg>