<svg id="kvg-0547b-Kaisho" class="kanjivg" width="106" height="126" xmlns="http://www.w3.org/2000/svg" xmlns:xlink="http://www.w3.org/1999/xlink" xml:space="preserve" version="1.1" baseProfile="full"><defs><style type="text/css"><![CDATA[path.black{fill:none;stroke:black;stroke-width:5;stroke-linecap:round;stroke-linejoin:round;}path.grey{fill:none;stroke:#ddd;stroke-width:5;stroke-linecap:round;stroke-linejoin:round;}path.stroke{fill:none;stroke:black;stroke-width:5;stroke-linecap:round;stroke-linejoin:round;}rect{fill:none;stroke:#555;stroke-width:2;} text{font-size:16px;font-family:Segoe UI Symbol,Cambria Math,DejaVu Sans,Symbola,Quivira,STIX,Code2000;-webkit-touch-callout:none;cursor:pointer;-webkit-user-select:none;-khtml-user-select:none;-moz-user-select:none;-ms-user-select:none;user-select: none;}text:hover{color:#777;}#reset{font-weight:bold;}]]></style><marker id="markerStart" markerWidth="8" markerHeight="8" style="overflow:visible;"><circle cx="0" cy="0" r="1.5" style="stroke:none;fill:red;fill-opacity:0.5;"/></marker><marker id="markerEnd" style="overflow:visible;"><circle cx="0" cy="0" r="0.8" style="stroke:none;fill:blue;fill-opacity:0.5;"><animate attributeName="opacity" from="1" to="0" dur="3s" repeatCount="indefinite" /></circle></marker></defs><rect x="4" y="4" width="100" height="100" /><path d="M10.75,34.79c0.37,0.51,0.76,1.44,0.92,2.08C12.96,41.93,15.01,52.9,15.9,62" class="grey" /><path d="M12.08,36.22c8.17-1.47,16.55-3.06,20.92-3.73c1.6-0.24,2.56,1.44,2.33,2.87c-0.95,5.92-2.05,12.07-3.46,20.25" class="grey" /><path d="M16.07,58.05c5.14-0.75,10.83-1.05,17.89-2.21" class="grey" /><path d="M46.25,29.49c0.31,0.61,0.31,1.01,0.48,1.76c1.36,6.16,4.43,21.79,5.22,33.13" class="grey" /><path d="M46.69,31.42c15.06-2.17,35.51-3.98,43.56-4.58c2.96-0.22,4.47,1.56,4.31,3.21c-0.58,5.9-1.06,19.2-3.94,31.79" class="grey" /><path d="M49.96,46.22c9.76-0.82,19.53-1.66,29.29-2.45c1.18-0.1,2.33-0.19,3.43-0.27" class="grey" /><path d="M52.51,62.03c9.99-0.78,26.24-2.28,38.04-2.85" class="grey" /><path d="M68.37,10.25c1.09,0.5,1.74,2.25,1.96,3.25c0.22,1-0.22,71.5-0.22,86" class="grey" /><path d="M10.75,34.79c0.37,0.51,0.76,1.44,0.92,2.08C12.96,41.93,15.01,52.9,15.9,62" class="stroke" stroke-dasharray="150"><animate attributeName="stroke-dashoffset" from="150" to="0" dur="1.8s" begin="0.0s" fill="freeze" /></path><path d="M12.08,36.22c8.17-1.47,16.55-3.06,20.92-3.73c1.6-0.24,2.56,1.44,2.33,2.87c-0.95,5.92-2.05,12.07-3.46,20.25" class="stroke" stroke-dasharray="150"><set attributeName="opacity" to="0" dur="1.0s" /><animate attributeName="stroke-dashoffset" from="150" to="0" dur="1.8s" begin="1.0s" fill="freeze" /></path><path d="M16.07,58.05c5.14-0.75,10.83-1.05,17.89-2.21" class="stroke" stroke-dasharray="150"><set attributeName="opacity" to="0" dur="2.2s" /><animate attributeName="stroke-dashoffset" from="150" to="0" dur="1.8s" begin="2.2s" fill="freeze" /></path><path d="M46.25,29.49c0.31,0.61,0.31,1.01,0.48,1.76c1.36,6.16,4.43,21.79,5.22,33.13" class="stroke" stroke-dasharray="150"><set attributeName="opacity" to="0" dur="3.1s" /><animate attributeName="stroke-dashoffset" from="150" to="0" dur="1.8s" begin="3.1s" fill="freeze" /></path><path d="M46.69,31.42c15.06-2.17,35.51-3.98,43.56-4.58c2.96-0.22,4.47,1.56,4.31,3.21c-0.58,5.9-1.06,19.2-3.94,31.79" class="stroke" stroke-dasharray="150"><set attributeName="opacity" to="0" dur="4.1s" /><animate attributeName="stroke-dashoffset" from="150" to="0" dur="1.8s" begin="4.1s" fill="freeze" /></path><path d="M49.96,46.22c9.76-0.82,19.53-1.66,29.29-2.45c1.18-0.1,2.33-0.19,3.43-0.27" class="stroke" stroke-dasharray="150"><set attributeName="opacity" to="0" dur="5.8s" /><animate attributeName="stroke-dashoffset" from="150" to="0" dur="1.8s" begin="5.8s" fill="freeze" /></path><path d="M52.51,62.03c9.99-0.78,26.24-2.28,38.04-2.85" class="stroke" stroke-dasharray="150"><set attributeName="opacity" to="0" dur="6.8s" /><animate attributeName="stroke-dashoffset" from="150" to="0" dur="1.8s" begin="6.8s" fill="freeze" /></path><path d="M68.37,10.25c1.09,0.5,1.74,2.25,1.96,3.25c0.22,1-0.22,71.5-0.22,86" class="stroke" stroke-dasharray="150"><set attributeName="opacity" to="0" dur="7.8s" /><animate attributeName="stroke-dashoffset" from="150" to="0" dur="1.8s" begin="7.8s" fill="freeze" /></path><text x="90" y="120" id="reset-kvg-0547b-Kaisho">⟳</text><text x="70" y="120" id="pause-kvg-0547b-Kaisho">◼</text><script type="text/javascript"><![CDATA[function RecurringTimer(e,t){var n,r,i=t;this.pause=function(){window.clearTimeout(n);i-=new Date-r};var s=function(){r=new Date;n=window.setTimeout(function(){i=t;s();e()},i)};this.clear=function(){window.clearTimeout(n);i=t;n=window.setTimeout(function(){i=t;s();e()},i)};this.resume=s;this.resume()}function invoketimer(){timer=new RecurringTimer(function(){svg.setCurrentTime(0)},10500.0)}var svg=document.getElementById("kvg-0547b-Kaisho");var pause=document.getElementById("pause-kvg-0547b-Kaisho");var reset=document.getElementById("reset-kvg-0547b-Kaisho");var timer;invoketimer();reset.onclick=function(){svg.setCurrentTime(0);timer.clear();svg.unpauseAnimations();pause.innerHTML = "◼";};pause.onclick=function(){if(svg.animationsPaused()){svg.unpauseAnimations();timer.resume();pause.innerHTML="◼"}else{svg.pauseAnimations();timer.pause();pause.innerHTML="▶"}}]]></script></svg>