<svg id="kvg-054be" class="kanjivg" width="106" height="126" xmlns="http://www.w3.org/2000/svg" xmlns:xlink="http://www.w3.org/1999/xlink" xml:space="preserve" version="1.1" baseProfile="full"><defs><style type="text/css"><![CDATA[path.black{fill:none;stroke:black;stroke-width:5;stroke-linecap:round;stroke-linejoin:round;}path.grey{fill:none;stroke:#ddd;stroke-width:5;stroke-linecap:round;stroke-linejoin:round;}path.stroke{fill:none;stroke:black;stroke-width:5;stroke-linecap:round;stroke-linejoin:round;}rect{fill:none;stroke:#555;stroke-width:2;} text{font-size:16px;font-family:Segoe UI Symbol,Cambria Math,DejaVu Sans,Symbola,Quivira,STIX,Code2000;-webkit-touch-callout:none;cursor:pointer;-webkit-user-select:none;-khtml-user-select:none;-moz-user-select:none;-ms-user-select:none;user-select: none;}text:hover{color:#777;}#reset{font-weight:bold;}]]></style><marker id="markerStart" markerWidth="8" markerHeight="8" style="overflow:visible;"><circle cx="0" cy="0" r="1.5" style="stroke:none;fill:red;fill-opacity:0.5;"/></marker><marker id="markerEnd" style="overflow:visible;"><circle cx="0" cy="0" r="0.8" style="stroke:none;fill:blue;fill-opacity:0.5;"><animate attributeName="opacity" from="1" to="0" dur="3s" repeatCount="indefinite" /></circle></marker></defs><rect x="4" y="4" width="100" height="100" /><path d="M11.25,33.29c0.37,0.51,0.76,0.94,0.92,1.58c1.29,5.07,2.84,18.54,3.73,27.63" class="grey" /><path d="M12.08,35.22c9.42-2.22,17.05-3.56,21.42-4.23c1.6-0.24,2.56,1.44,2.33,2.87c-0.95,5.92-2.55,13.57-3.96,21.75" class="grey" /><path d="M16.07,58.55c5.14-0.75,10.33-1.05,17.39-2.21" class="grey" /><path d="M49.4,31.93c0.69,0.3,1.96,0.34,2.66,0.3c7.88-0.49,18.12-2.23,24.77-2.9c1.15-0.11,1.85,0.14,2.43,0.29" class="grey" /><path d="M63.92,11.37c0.11,0.27,1.48,1.4,1.59,3.1c0.51,8.18,0.27,29.5,0.27,32.29" class="grey" /><path d="M40.58,49.68c1.41,0.63,3.98,0.8,5.39,0.63c13.03-1.56,29.28-4.47,47.11-5.58c2.34-0.15,3.75,0.3,4.92,0.62" class="grey" /><path d="M87.57,20.67c0.15,1.39-0.14,3.47-1.25,5.12C72.1,47,57.55,63.18,33.93,79.43" class="grey" /><path d="M88.52,58.02c0.3,0.51,0.55,2.06-0.28,2.77c-5.8,4.99-15.52,11.57-23.7,14.47" class="grey" /><path d="M59.48,56.06c0.7,0.77,1.99,2.25,1.99,3.3c0,7.4,0.23,27.06,0.23,30.25c0,8.22,9.42,6.93,17.43,6.93c6.22,0,10.9-0.43,13.24-2.73c2.34-2.3,2.06-4.97,2.29-7.27" class="grey" /><path d="M11.25,33.29c0.37,0.51,0.76,0.94,0.92,1.58c1.29,5.07,2.84,18.54,3.73,27.63" class="stroke" stroke-dasharray="150"><animate attributeName="stroke-dashoffset" from="150" to="0" dur="1.8s" begin="0.0s" fill="freeze" /></path><path d="M12.08,35.22c9.42-2.22,17.05-3.56,21.42-4.23c1.6-0.24,2.56,1.44,2.33,2.87c-0.95,5.92-2.55,13.57-3.96,21.75" class="stroke" stroke-dasharray="150"><set attributeName="opacity" to="0" dur="1.0s" /><animate attributeName="stroke-dashoffset" from="150" to="0" dur="1.8s" begin="1.0s" fill="freeze" /></path><path d="M16.07,58.55c5.14-0.75,10.33-1.05,17.39-2.21" class="stroke" stroke-dasharray="150"><set attributeName="opacity" to="0" dur="2.2s" /><animate attributeName="stroke-dashoffset" from="150" to="0" dur="1.8s" begin="2.2s" fill="freeze" /></path><path d="M49.4,31.93c0.69,0.3,1.96,0.34,2.66,0.3c7.88-0.49,18.12-2.23,24.77-2.9c1.15-0.11,1.85,0.14,2.43,0.29" class="stroke" stroke-dasharray="150"><set attributeName="opacity" to="0" dur="3.1s" /><animate attributeName="stroke-dashoffset" from="150" to="0" dur="1.8s" begin="3.1s" fill="freeze" /></path><path d="M63.92,11.37c0.11,0.27,1.48,1.4,1.59,3.1c0.51,8.18,0.27,29.5,0.27,32.29" class="stroke" stroke-dasharray="150"><set attributeName="opacity" to="0" dur="4.1s" /><animate attributeName="stroke-dashoffset" from="150" to="0" dur="1.8s" begin="4.1s" fill="freeze" /></path><path d="M40.58,49.68c1.41,0.63,3.98,0.8,5.39,0.63c13.03-1.56,29.28-4.47,47.11-5.58c2.34-0.15,3.75,0.3,4.92,0.62" class="stroke" stroke-dasharray="150"><set attributeName="opacity" to="0" dur="5.1s" /><animate attributeName="stroke-dashoffset" from="150" to="0" dur="1.8s" begin="5.1s" fill="freeze" /></path><path d="M87.57,20.67c0.15,1.39-0.14,3.47-1.25,5.12C72.1,47,57.55,63.18,33.93,79.43" class="stroke" stroke-dasharray="150"><set attributeName="opacity" to="0" dur="6.5s" /><animate attributeName="stroke-dashoffset" from="150" to="0" dur="1.8s" begin="6.5s" fill="freeze" /></path><path d="M88.52,58.02c0.3,0.51,0.55,2.06-0.28,2.77c-5.8,4.99-15.52,11.57-23.7,14.47" class="stroke" stroke-dasharray="150"><set attributeName="opacity" to="0" dur="8.2s" /><animate attributeName="stroke-dashoffset" from="150" to="0" dur="1.8s" begin="8.2s" fill="freeze" /></path><path d="M59.48,56.06c0.7,0.77,1.99,2.25,1.99,3.3c0,7.4,0.23,27.06,0.23,30.25c0,8.22,9.42,6.93,17.43,6.93c6.22,0,10.9-0.43,13.24-2.73c2.34-2.3,2.06-4.97,2.29-7.27" class="stroke" stroke-dasharray="150"><set attributeName="opacity" to="0" dur="9.2s" /><animate attributeName="stroke-dashoffset" from="150" to="0" dur="1.8s" begin="9.2s" fill="freeze" /></path><text x="90" y="120" id="reset-kvg-054be">⟳</text><text x="70" y="120" id="pause-kvg-054be">◼</text><script type="text/javascript"><![CDATA[function RecurringTimer(e,t){var n,r,i=t;this.pause=function(){window.clearTimeout(n);i-=new Date-r};var s=function(){r=new Date;n=window.setTimeout(function(){i=t;s();e()},i)};this.clear=function(){window.clearTimeout(n);i=t;n=window.setTimeout(function(){i=t;s();e()},i)};this.resume=s;this.resume()}function invoketimer(){timer=new RecurringTimer(function(){svg.setCurrentTime(0)},11899.999999999998)}var svg=document.getElementById("kvg-054be");var pause=document.getElementById("pause-kvg-054be");var reset=document.getElementById("reset-kvg-054be");var timer;invoketimer();reset.onclick=function(){svg.setCurrentTime(0);timer.clear();svg.unpauseAnimations();pause.innerHTML = "◼";};pause.onclick=function(){if(svg.animationsPaused()){svg.unpauseAnimations();timer.resume();pause.innerHTML="◼"}else{svg.pauseAnimations();timer.pause();pause.innerHTML="▶"}}]]></script></svg>