<svg id="kvg-054c0-Kaisho" class="kanjivg" width="106" height="126" xmlns="http://www.w3.org/2000/svg" xmlns:xlink="http://www.w3.org/1999/xlink" xml:space="preserve" version="1.1" baseProfile="full"><defs><style type="text/css"><![CDATA[path.black{fill:none;stroke:black;stroke-width:5;stroke-linecap:round;stroke-linejoin:round;}path.grey{fill:none;stroke:#ddd;stroke-width:5;stroke-linecap:round;stroke-linejoin:round;}path.stroke{fill:none;stroke:black;stroke-width:5;stroke-linecap:round;stroke-linejoin:round;}rect{fill:none;stroke:#555;stroke-width:2;} text{font-size:16px;font-family:Segoe UI Symbol,Cambria Math,DejaVu Sans,Symbola,Quivira,STIX,Code2000;-webkit-touch-callout:none;cursor:pointer;-webkit-user-select:none;-khtml-user-select:none;-moz-user-select:none;-ms-user-select:none;user-select: none;}text:hover{color:#777;}#reset{font-weight:bold;}]]></style><marker id="markerStart" markerWidth="8" markerHeight="8" style="overflow:visible;"><circle cx="0" cy="0" r="1.5" style="stroke:none;fill:red;fill-opacity:0.5;"/></marker><marker id="markerEnd" style="overflow:visible;"><circle cx="0" cy="0" r="0.8" style="stroke:none;fill:blue;fill-opacity:0.5;"><animate attributeName="opacity" from="1" to="0" dur="3s" repeatCount="indefinite" /></circle></marker></defs><rect x="4" y="4" width="100" height="100" /><path d="M50.43,9.85c2.32,1.9,5.07,5.4,6.13,8.37" class="grey" /><path d="M18.75,25.54c1.35,0.1,4.42,0.65,5.72,0.52C35.04,24.97,71.64,21.48,86,21.2c2.22-0.04,3.35,0.04,5,0.66" class="grey" /><path d="M32,36.16c0.43,0.31,0.88,0.58,1.06,0.97c1.5,3.12,3.79,12.73,4.81,18.33" class="grey" /><path d="M34.69,37.23c10.58-1.31,30.54-3.53,35.99-3.97c2-0.16,3.19,1.63,2.91,2.58c-1.18,3.93-2.09,5.41-4.06,11.98" class="grey" /><path d="M37.81,52.4c6.41-0.5,26.08-3.59,34.21-4.09" class="grey" /><path d="M45.99,53.64c0.08,0.71,0.31,1.9-0.15,2.87c-2.97,6.24-11.34,18.74-27.53,27.45" class="grey" /><path d="M38.75,71.99c0.48,0.54,1,1.06,1,2c-0.03,11.82-0.32,18.69-0.32,20.69s1.18,3.14,2.68,1.64s14.35-11.84,16.35-13.34" class="grey" /><path d="M77.79,50.39c0.05,0.41,0.51,1.96,0.22,2.5c-1.81,3.36-7.47,8.15-16.7,14.83" class="grey" /><path d="M50.75,62.5c1.23,0,3.95,1.24,6.17,3.22c7,6.25,24.75,21.38,29.73,24.81c1.87,1.29,3.47,1.85,5.35,2.21" class="grey" /><path d="M50.43,9.85c2.32,1.9,5.07,5.4,6.13,8.37" class="stroke" stroke-dasharray="150"><animate attributeName="stroke-dashoffset" from="150" to="0" dur="1.8s" begin="0.0s" fill="freeze" /></path><path d="M18.75,25.54c1.35,0.1,4.42,0.65,5.72,0.52C35.04,24.97,71.64,21.48,86,21.2c2.22-0.04,3.35,0.04,5,0.66" class="stroke" stroke-dasharray="150"><set attributeName="opacity" to="0" dur="0.9s" /><animate attributeName="stroke-dashoffset" from="150" to="0" dur="1.8s" begin="0.9s" fill="freeze" /></path><path d="M32,36.16c0.43,0.31,0.88,0.58,1.06,0.97c1.5,3.12,3.79,12.73,4.81,18.33" class="stroke" stroke-dasharray="150"><set attributeName="opacity" to="0" dur="2.6s" /><animate attributeName="stroke-dashoffset" from="150" to="0" dur="1.8s" begin="2.6s" fill="freeze" /></path><path d="M34.69,37.23c10.58-1.31,30.54-3.53,35.99-3.97c2-0.16,3.19,1.63,2.91,2.58c-1.18,3.93-2.09,5.41-4.06,11.98" class="stroke" stroke-dasharray="150"><set attributeName="opacity" to="0" dur="3.6s" /><animate attributeName="stroke-dashoffset" from="150" to="0" dur="1.8s" begin="3.6s" fill="freeze" /></path><path d="M37.81,52.4c6.41-0.5,26.08-3.59,34.21-4.09" class="stroke" stroke-dasharray="150"><set attributeName="opacity" to="0" dur="4.9s" /><animate attributeName="stroke-dashoffset" from="150" to="0" dur="1.8s" begin="4.9s" fill="freeze" /></path><path d="M45.99,53.64c0.08,0.71,0.31,1.9-0.15,2.87c-2.97,6.24-11.34,18.74-27.53,27.45" class="stroke" stroke-dasharray="150"><set attributeName="opacity" to="0" dur="5.9s" /><animate attributeName="stroke-dashoffset" from="150" to="0" dur="1.8s" begin="5.9s" fill="freeze" /></path><path d="M38.75,71.99c0.48,0.54,1,1.06,1,2c-0.03,11.82-0.32,18.69-0.32,20.69s1.18,3.14,2.68,1.64s14.35-11.84,16.35-13.34" class="stroke" stroke-dasharray="150"><set attributeName="opacity" to="0" dur="7.0s" /><animate attributeName="stroke-dashoffset" from="150" to="0" dur="1.8s" begin="7.0s" fill="freeze" /></path><path d="M77.79,50.39c0.05,0.41,0.51,1.96,0.22,2.5c-1.81,3.36-7.47,8.15-16.7,14.83" class="stroke" stroke-dasharray="150"><set attributeName="opacity" to="0" dur="8.2s" /><animate attributeName="stroke-dashoffset" from="150" to="0" dur="1.8s" begin="8.2s" fill="freeze" /></path><path d="M50.75,62.5c1.23,0,3.95,1.24,6.17,3.22c7,6.25,24.75,21.38,29.73,24.81c1.87,1.29,3.47,1.85,5.35,2.21" class="stroke" stroke-dasharray="150"><set attributeName="opacity" to="0" dur="9.2s" /><animate attributeName="stroke-dashoffset" from="150" to="0" dur="1.8s" begin="9.2s" fill="freeze" /></path><text x="90" y="120" id="reset-kvg-054c0-Kaisho">⟳</text><text x="70" y="120" id="pause-kvg-054c0-Kaisho">◼</text><script type="text/javascript"><![CDATA[function RecurringTimer(e,t){var n,r,i=t;this.pause=function(){window.clearTimeout(n);i-=new Date-r};var s=function(){r=new Date;n=window.setTimeout(function(){i=t;s();e()},i)};this.clear=function(){window.clearTimeout(n);i=t;n=window.setTimeout(function(){i=t;s();e()},i)};this.resume=s;this.resume()}function invoketimer(){timer=new RecurringTimer(function(){svg.setCurrentTime(0)},11500.0)}var svg=document.getElementById("kvg-054c0-Kaisho");var pause=document.getElementById("pause-kvg-054c0-Kaisho");var reset=document.getElementById("reset-kvg-054c0-Kaisho");var timer;invoketimer();reset.onclick=function(){svg.setCurrentTime(0);timer.clear();svg.unpauseAnimations();pause.innerHTML = "◼";};pause.onclick=function(){if(svg.animationsPaused()){svg.unpauseAnimations();timer.resume();pause.innerHTML="◼"}else{svg.pauseAnimations();timer.pause();pause.innerHTML="▶"}}]]></script></svg>