<svg id="kvg-054c0" class="kanjivg" width="106" height="126" xmlns="http://www.w3.org/2000/svg" xmlns:xlink="http://www.w3.org/1999/xlink" xml:space="preserve" version="1.1" baseProfile="full"><defs><style type="text/css"><![CDATA[path.black{fill:none;stroke:black;stroke-width:5;stroke-linecap:round;stroke-linejoin:round;}path.grey{fill:none;stroke:#ddd;stroke-width:5;stroke-linecap:round;stroke-linejoin:round;}path.stroke{fill:none;stroke:black;stroke-width:5;stroke-linecap:round;stroke-linejoin:round;}rect{fill:none;stroke:#555;stroke-width:2;} text{font-size:16px;font-family:Segoe UI Symbol,Cambria Math,DejaVu Sans,Symbola,Quivira,STIX,Code2000;-webkit-touch-callout:none;cursor:pointer;-webkit-user-select:none;-khtml-user-select:none;-moz-user-select:none;-ms-user-select:none;user-select: none;}text:hover{color:#777;}#reset{font-weight:bold;}]]></style><marker id="markerStart" markerWidth="8" markerHeight="8" style="overflow:visible;"><circle cx="0" cy="0" r="1.5" style="stroke:none;fill:red;fill-opacity:0.5;"/></marker><marker id="markerEnd" style="overflow:visible;"><circle cx="0" cy="0" r="0.8" style="stroke:none;fill:blue;fill-opacity:0.5;"><animate attributeName="opacity" from="1" to="0" dur="3s" repeatCount="indefinite" /></circle></marker></defs><rect x="4" y="4" width="100" height="100" /><path d="M52.75,10.1c1.14,1.14,1.81,2.53,1.81,4.18c0,4.21-0.06,5.09-0.06,7.72" class="grey" /><path d="M18.25,25.04c3.5,0.71,5.92,0.75,9.11,0.39c13.77-1.55,40.1-3.75,54.65-4.35c2.83-0.12,6.3-0.22,9,0.78" class="grey" /><path d="M32,36.16c0.79,0.79,1.43,1.73,1.88,3.05c0.99,2.91,2.13,7.41,3.02,11.45c0.38,1.74,0.72,3.4,0.98,4.81" class="grey" /><path d="M33.94,37.23c9.63-1.19,27.67-3.14,34.94-3.81c2.79-0.26,5.42,0.3,4.34,3.61c-1.02,3.11-1.68,4.42-3.44,10.28" class="grey" /><path d="M38.56,52.15c5.32-0.41,19.03-2.37,28.44-3.39c1.93-0.21,3.64-0.37,5.02-0.46" class="grey" /><path d="M45.99,54.14c0.12,1.15-0.17,2.17-0.68,3.19c-3.2,6.4-11.29,18.18-27,26.64" class="grey" /><path d="M38.5,71.74c0.69,0.69,1,1.76,1,3c0,11.82-0.07,16.89-0.07,19.94c0,2,0.82,2.95,2.93,1.14c1.75-1.5,14.39-11.31,17.1-13.09" class="grey" /><path d="M78.54,50.89c-0.04,0.98-0.29,1.86-0.78,2.5c-3.07,4.01-7.22,7.65-16.45,14.33" class="grey" /><path d="M51.25,62.75c3.39,0,7.82,5.07,29.71,24.17c2.67,2.33,5.42,4.2,9.29,6.08" class="grey" /><path d="M52.75,10.1c1.14,1.14,1.81,2.53,1.81,4.18c0,4.21-0.06,5.09-0.06,7.72" class="stroke" stroke-dasharray="150"><animate attributeName="stroke-dashoffset" from="150" to="0" dur="1.8s" begin="0.0s" fill="freeze" /></path><path d="M18.25,25.04c3.5,0.71,5.92,0.75,9.11,0.39c13.77-1.55,40.1-3.75,54.65-4.35c2.83-0.12,6.3-0.22,9,0.78" class="stroke" stroke-dasharray="150"><set attributeName="opacity" to="0" dur="0.9s" /><animate attributeName="stroke-dashoffset" from="150" to="0" dur="1.8s" begin="0.9s" fill="freeze" /></path><path d="M32,36.16c0.79,0.79,1.43,1.73,1.88,3.05c0.99,2.91,2.13,7.41,3.02,11.45c0.38,1.74,0.72,3.4,0.98,4.81" class="stroke" stroke-dasharray="150"><set attributeName="opacity" to="0" dur="2.6s" /><animate attributeName="stroke-dashoffset" from="150" to="0" dur="1.8s" begin="2.6s" fill="freeze" /></path><path d="M33.94,37.23c9.63-1.19,27.67-3.14,34.94-3.81c2.79-0.26,5.42,0.3,4.34,3.61c-1.02,3.11-1.68,4.42-3.44,10.28" class="stroke" stroke-dasharray="150"><set attributeName="opacity" to="0" dur="3.6s" /><animate attributeName="stroke-dashoffset" from="150" to="0" dur="1.8s" begin="3.6s" fill="freeze" /></path><path d="M38.56,52.15c5.32-0.41,19.03-2.37,28.44-3.39c1.93-0.21,3.64-0.37,5.02-0.46" class="stroke" stroke-dasharray="150"><set attributeName="opacity" to="0" dur="4.9s" /><animate attributeName="stroke-dashoffset" from="150" to="0" dur="1.8s" begin="4.9s" fill="freeze" /></path><path d="M45.99,54.14c0.12,1.15-0.17,2.17-0.68,3.19c-3.2,6.4-11.29,18.18-27,26.64" class="stroke" stroke-dasharray="150"><set attributeName="opacity" to="0" dur="5.9s" /><animate attributeName="stroke-dashoffset" from="150" to="0" dur="1.8s" begin="5.9s" fill="freeze" /></path><path d="M38.5,71.74c0.69,0.69,1,1.76,1,3c0,11.82-0.07,16.89-0.07,19.94c0,2,0.82,2.95,2.93,1.14c1.75-1.5,14.39-11.31,17.1-13.09" class="stroke" stroke-dasharray="150"><set attributeName="opacity" to="0" dur="7.0s" /><animate attributeName="stroke-dashoffset" from="150" to="0" dur="1.8s" begin="7.0s" fill="freeze" /></path><path d="M78.54,50.89c-0.04,0.98-0.29,1.86-0.78,2.5c-3.07,4.01-7.22,7.65-16.45,14.33" class="stroke" stroke-dasharray="150"><set attributeName="opacity" to="0" dur="8.2s" /><animate attributeName="stroke-dashoffset" from="150" to="0" dur="1.8s" begin="8.2s" fill="freeze" /></path><path d="M51.25,62.75c3.39,0,7.82,5.07,29.71,24.17c2.67,2.33,5.42,4.2,9.29,6.08" class="stroke" stroke-dasharray="150"><set attributeName="opacity" to="0" dur="9.2s" /><animate attributeName="stroke-dashoffset" from="150" to="0" dur="1.8s" begin="9.2s" fill="freeze" /></path><text x="90" y="120" id="reset-kvg-054c0">⟳</text><text x="70" y="120" id="pause-kvg-054c0">◼</text><script type="text/javascript"><![CDATA[function RecurringTimer(e,t){var n,r,i=t;this.pause=function(){window.clearTimeout(n);i-=new Date-r};var s=function(){r=new Date;n=window.setTimeout(function(){i=t;s();e()},i)};this.clear=function(){window.clearTimeout(n);i=t;n=window.setTimeout(function(){i=t;s();e()},i)};this.resume=s;this.resume()}function invoketimer(){timer=new RecurringTimer(function(){svg.setCurrentTime(0)},11399.999999999998)}var svg=document.getElementById("kvg-054c0");var pause=document.getElementById("pause-kvg-054c0");var reset=document.getElementById("reset-kvg-054c0");var timer;invoketimer();reset.onclick=function(){svg.setCurrentTime(0);timer.clear();svg.unpauseAnimations();pause.innerHTML = "◼";};pause.onclick=function(){if(svg.animationsPaused()){svg.unpauseAnimations();timer.resume();pause.innerHTML="◼"}else{svg.pauseAnimations();timer.pause();pause.innerHTML="▶"}}]]></script></svg>