<svg id="kvg-054e8-Hyougai" class="kanjivg" width="106" height="126" xmlns="http://www.w3.org/2000/svg" xmlns:xlink="http://www.w3.org/1999/xlink" xml:space="preserve" version="1.1" baseProfile="full"><defs><style type="text/css"><![CDATA[path.black{fill:none;stroke:black;stroke-width:5;stroke-linecap:round;stroke-linejoin:round;}path.grey{fill:none;stroke:#ddd;stroke-width:5;stroke-linecap:round;stroke-linejoin:round;}path.stroke{fill:none;stroke:black;stroke-width:5;stroke-linecap:round;stroke-linejoin:round;}rect{fill:none;stroke:#555;stroke-width:2;} text{font-size:16px;font-family:Segoe UI Symbol,Cambria Math,DejaVu Sans,Symbola,Quivira,STIX,Code2000;-webkit-touch-callout:none;cursor:pointer;-webkit-user-select:none;-khtml-user-select:none;-moz-user-select:none;-ms-user-select:none;user-select: none;}text:hover{color:#777;}#reset{font-weight:bold;}]]></style><marker id="markerStart" markerWidth="8" markerHeight="8" style="overflow:visible;"><circle cx="0" cy="0" r="1.5" style="stroke:none;fill:red;fill-opacity:0.5;"/></marker><marker id="markerEnd" style="overflow:visible;"><circle cx="0" cy="0" r="0.8" style="stroke:none;fill:blue;fill-opacity:0.5;"><animate attributeName="opacity" from="1" to="0" dur="3s" repeatCount="indefinite" /></circle></marker></defs><rect x="4" y="4" width="100" height="100" /><path d="M14.25,34.06c0.97,0.97,1.28,1.97,1.38,3.19c1.02,5.58,1.83,11.03,2.66,16.75c0.28,1.96,0.57,4.21,0.86,6.25" class="grey" /><path d="M16.08,36.43c8.15-1.68,13.58-2.59,17.8-3.19c3.36-0.47,4.32,1.48,3.8,4.52c-0.86,5.07-1.85,11.87-3.06,18.03" class="grey" /><path d="M19.07,57.86c5.17-0.48,8.58-0.73,13.55-1.09c1.45-0.1,3.04-0.21,4.84-0.34" class="grey" /><path d="M69.41,11.75c0.92,0.92,1.31,2.5,1.31,4.34c0,8.16-0.09,22.51-0.09,26.41" class="grey" /><path d="M46.31,20.83c4.28,3.32,9.92,11.32,10.99,16.49" class="grey" /><path d="M94.2,16.85c0,1.15-0.26,2.02-0.84,3.06c-3.98,7.1-6.73,10.97-11.21,17.11" class="grey" /><path d="M52.32,43.69c0.93,0.93,1.35,1.93,1.35,3.53c0,0.5-0.01,23.86-0.02,38.9c0,7-0.01,12.2-0.01,12.46" class="grey" /><path d="M55.02,45.37c6.51-0.67,25.19-2.51,30.35-3.06c4.25-0.45,5.69,1.77,5.67,5.56C90.98,58.1,91.12,75.16,91.12,93c0,11.25-6.07,1.58-8.1-0.04" class="grey" /><path d="M54.77,59.19c11.61-1.06,24.11-2.06,35.4-2.53" class="grey" /><path d="M54.59,73.11c7.2-0.7,23.91-1.86,35.68-2.03" class="grey" /><path d="M14.25,34.06c0.97,0.97,1.28,1.97,1.38,3.19c1.02,5.58,1.83,11.03,2.66,16.75c0.28,1.96,0.57,4.21,0.86,6.25" class="stroke" stroke-dasharray="150"><animate attributeName="stroke-dashoffset" from="150" to="0" dur="1.8s" begin="0.0s" fill="freeze" /></path><path d="M16.08,36.43c8.15-1.68,13.58-2.59,17.8-3.19c3.36-0.47,4.32,1.48,3.8,4.52c-0.86,5.07-1.85,11.87-3.06,18.03" class="stroke" stroke-dasharray="150"><set attributeName="opacity" to="0" dur="1.0s" /><animate attributeName="stroke-dashoffset" from="150" to="0" dur="1.8s" begin="1.0s" fill="freeze" /></path><path d="M19.07,57.86c5.17-0.48,8.58-0.73,13.55-1.09c1.45-0.1,3.04-0.21,4.84-0.34" class="stroke" stroke-dasharray="150"><set attributeName="opacity" to="0" dur="2.1s" /><animate attributeName="stroke-dashoffset" from="150" to="0" dur="1.8s" begin="2.1s" fill="freeze" /></path><path d="M69.41,11.75c0.92,0.92,1.31,2.5,1.31,4.34c0,8.16-0.09,22.51-0.09,26.41" class="stroke" stroke-dasharray="150"><set attributeName="opacity" to="0" dur="3.0s" /><animate attributeName="stroke-dashoffset" from="150" to="0" dur="1.8s" begin="3.0s" fill="freeze" /></path><path d="M46.31,20.83c4.28,3.32,9.92,11.32,10.99,16.49" class="stroke" stroke-dasharray="150"><set attributeName="opacity" to="0" dur="4.0s" /><animate attributeName="stroke-dashoffset" from="150" to="0" dur="1.8s" begin="4.0s" fill="freeze" /></path><path d="M94.2,16.85c0,1.15-0.26,2.02-0.84,3.06c-3.98,7.1-6.73,10.97-11.21,17.11" class="stroke" stroke-dasharray="150"><set attributeName="opacity" to="0" dur="5.0s" /><animate attributeName="stroke-dashoffset" from="150" to="0" dur="1.8s" begin="5.0s" fill="freeze" /></path><path d="M52.32,43.69c0.93,0.93,1.35,1.93,1.35,3.53c0,0.5-0.01,23.86-0.02,38.9c0,7-0.01,12.2-0.01,12.46" class="stroke" stroke-dasharray="150"><set attributeName="opacity" to="0" dur="6.0s" /><animate attributeName="stroke-dashoffset" from="150" to="0" dur="1.8s" begin="6.0s" fill="freeze" /></path><path d="M55.02,45.37c6.51-0.67,25.19-2.51,30.35-3.06c4.25-0.45,5.69,1.77,5.67,5.56C90.98,58.1,91.12,75.16,91.12,93c0,11.25-6.07,1.58-8.1-0.04" class="stroke" stroke-dasharray="150"><set attributeName="opacity" to="0" dur="7.4s" /><animate attributeName="stroke-dashoffset" from="150" to="0" dur="1.8s" begin="7.4s" fill="freeze" /></path><path d="M54.77,59.19c11.61-1.06,24.11-2.06,35.4-2.53" class="stroke" stroke-dasharray="150"><set attributeName="opacity" to="0" dur="9.200000000000001s" /><animate attributeName="stroke-dashoffset" from="150" to="0" dur="1.8s" begin="9.200000000000001s" fill="freeze" /></path><path d="M54.59,73.11c7.2-0.7,23.91-1.86,35.68-2.03" class="stroke" stroke-dasharray="150"><set attributeName="opacity" to="0" dur="10.200000000000001s" /><animate attributeName="stroke-dashoffset" from="150" to="0" dur="1.8s" begin="10.200000000000001s" fill="freeze" /></path><text x="90" y="120" id="reset-kvg-054e8-Hyougai">⟳</text><text x="70" y="120" id="pause-kvg-054e8-Hyougai">◼</text><script type="text/javascript"><![CDATA[function RecurringTimer(e,t){var n,r,i=t;this.pause=function(){window.clearTimeout(n);i-=new Date-r};var s=function(){r=new Date;n=window.setTimeout(function(){i=t;s();e()},i)};this.clear=function(){window.clearTimeout(n);i=t;n=window.setTimeout(function(){i=t;s();e()},i)};this.resume=s;this.resume()}function invoketimer(){timer=new RecurringTimer(function(){svg.setCurrentTime(0)},12200.000000000002)}var svg=document.getElementById("kvg-054e8-Hyougai");var pause=document.getElementById("pause-kvg-054e8-Hyougai");var reset=document.getElementById("reset-kvg-054e8-Hyougai");var timer;invoketimer();reset.onclick=function(){svg.setCurrentTime(0);timer.clear();svg.unpauseAnimations();pause.innerHTML = "◼";};pause.onclick=function(){if(svg.animationsPaused()){svg.unpauseAnimations();timer.resume();pause.innerHTML="◼"}else{svg.pauseAnimations();timer.pause();pause.innerHTML="▶"}}]]></script></svg>