<svg id="kvg-055fd-Kaisho" class="kanjivg" width="106" height="126" xmlns="http://www.w3.org/2000/svg" xmlns:xlink="http://www.w3.org/1999/xlink" xml:space="preserve" version="1.1" baseProfile="full"><defs><style type="text/css"><![CDATA[path.black{fill:none;stroke:black;stroke-width:5;stroke-linecap:round;stroke-linejoin:round;}path.grey{fill:none;stroke:#ddd;stroke-width:5;stroke-linecap:round;stroke-linejoin:round;}path.stroke{fill:none;stroke:black;stroke-width:5;stroke-linecap:round;stroke-linejoin:round;}rect{fill:none;stroke:#555;stroke-width:2;} text{font-size:16px;font-family:Segoe UI Symbol,Cambria Math,DejaVu Sans,Symbola,Quivira,STIX,Code2000;-webkit-touch-callout:none;cursor:pointer;-webkit-user-select:none;-khtml-user-select:none;-moz-user-select:none;-ms-user-select:none;user-select: none;}text:hover{color:#777;}#reset{font-weight:bold;}]]></style><marker id="markerStart" markerWidth="8" markerHeight="8" style="overflow:visible;"><circle cx="0" cy="0" r="1.5" style="stroke:none;fill:red;fill-opacity:0.5;"/></marker><marker id="markerEnd" style="overflow:visible;"><circle cx="0" cy="0" r="0.8" style="stroke:none;fill:blue;fill-opacity:0.5;"><animate attributeName="opacity" from="1" to="0" dur="3s" repeatCount="indefinite" /></circle></marker></defs><rect x="4" y="4" width="100" height="100" /><path d="M7.75,34.53c0.35,0.44,0.7,0.8,0.85,1.35c1.2,4.35,3.62,17.81,4.44,25.62" class="grey" /><path d="M9.91,36.62c8.75-1.91,14.95-3.06,19-3.63c1.48-0.21,2.38,1.24,2.16,2.46c-0.88,5.08-2.4,12.44-3.7,19.46" class="grey" /><path d="M12.72,57.93c4.77-0.65,10.52-1.39,17.07-2.39" class="grey" /><path d="M35.47,27.54c0.51,0.35,2.45,0.41,2.96,0.35c4.3-0.48,20.44-2.67,25.05-3.01c0.85-0.06,1.36,0.17,1.79,0.35" class="grey" /><path d="M37.6,38.15c0.19,0.32,0.38,0.59,0.47,0.99c0.66,3.18,2.38,12.92,2.83,18.63" class="grey" /><path d="M39.25,39.4c7.39-1.22,20.01-3.04,22.24-3.37c1.39-0.2,2.26,2.06,1.9,3.91c-0.98,4.94-1.69,8.55-2.47,12.33" class="grey" /><path d="M40.52,55.4c7.29-0.79,15.51-2,21.71-2.18" class="grey" /><path d="M49.49,11.25c0.99,0.5,1.58,2.25,1.78,3.25s-0.2,70.25-0.2,76.5c0,11.5-4.2,3.88-5.82,2.25" class="grey" /><path d="M51.25,55.05C47.69,64.93,38.42,78.91,31,84.5" class="grey" /><path d="M53.91,62.82c3.48,2.21,8.97,8.36,10.64,11.67" class="grey" /><path d="M79.13,13.25c0.03,0.83,0.07,2.14-0.06,3.33c-0.77,7.02-5.21,22.43-11.28,31.86" class="grey" /><path d="M75.84,33.95c0.65,0.29,1.88,0.77,2.85,0.5c4.31-1.2,14.46-3.08,15.59-3.21c4.22-0.49,0.47,7.76-3.32,12.61" class="grey" /><path d="M77.07,46.4c0.69,0.76,0.96,1.44,0.82,3.04C77.03,59.37,73.6,82.2,59.5,92.75" class="grey" /><path d="M76.29,62.56c2.97,5.48,13.35,21.94,18.67,27.8c1.12,1.24,1.97,1.97,3.04,2.37" class="grey" /><path d="M7.75,34.53c0.35,0.44,0.7,0.8,0.85,1.35c1.2,4.35,3.62,17.81,4.44,25.62" class="stroke" stroke-dasharray="150"><animate attributeName="stroke-dashoffset" from="150" to="0" dur="1.8s" begin="0.0s" fill="freeze" /></path><path d="M9.91,36.62c8.75-1.91,14.95-3.06,19-3.63c1.48-0.21,2.38,1.24,2.16,2.46c-0.88,5.08-2.4,12.44-3.7,19.46" class="stroke" stroke-dasharray="150"><set attributeName="opacity" to="0" dur="1.0s" /><animate attributeName="stroke-dashoffset" from="150" to="0" dur="1.8s" begin="1.0s" fill="freeze" /></path><path d="M12.72,57.93c4.77-0.65,10.52-1.39,17.07-2.39" class="stroke" stroke-dasharray="150"><set attributeName="opacity" to="0" dur="2.1s" /><animate attributeName="stroke-dashoffset" from="150" to="0" dur="1.8s" begin="2.1s" fill="freeze" /></path><path d="M35.47,27.54c0.51,0.35,2.45,0.41,2.96,0.35c4.3-0.48,20.44-2.67,25.05-3.01c0.85-0.06,1.36,0.17,1.79,0.35" class="stroke" stroke-dasharray="150"><set attributeName="opacity" to="0" dur="3.0s" /><animate attributeName="stroke-dashoffset" from="150" to="0" dur="1.8s" begin="3.0s" fill="freeze" /></path><path d="M37.6,38.15c0.19,0.32,0.38,0.59,0.47,0.99c0.66,3.18,2.38,12.92,2.83,18.63" class="stroke" stroke-dasharray="150"><set attributeName="opacity" to="0" dur="4.0s" /><animate attributeName="stroke-dashoffset" from="150" to="0" dur="1.8s" begin="4.0s" fill="freeze" /></path><path d="M39.25,39.4c7.39-1.22,20.01-3.04,22.24-3.37c1.39-0.2,2.26,2.06,1.9,3.91c-0.98,4.94-1.69,8.55-2.47,12.33" class="stroke" stroke-dasharray="150"><set attributeName="opacity" to="0" dur="4.9s" /><animate attributeName="stroke-dashoffset" from="150" to="0" dur="1.8s" begin="4.9s" fill="freeze" /></path><path d="M40.52,55.4c7.29-0.79,15.51-2,21.71-2.18" class="stroke" stroke-dasharray="150"><set attributeName="opacity" to="0" dur="5.9s" /><animate attributeName="stroke-dashoffset" from="150" to="0" dur="1.8s" begin="5.9s" fill="freeze" /></path><path d="M49.49,11.25c0.99,0.5,1.58,2.25,1.78,3.25s-0.2,70.25-0.2,76.5c0,11.5-4.2,3.88-5.82,2.25" class="stroke" stroke-dasharray="150"><set attributeName="opacity" to="0" dur="6.9s" /><animate attributeName="stroke-dashoffset" from="150" to="0" dur="1.8s" begin="6.9s" fill="freeze" /></path><path d="M51.25,55.05C47.69,64.93,38.42,78.91,31,84.5" class="stroke" stroke-dasharray="150"><set attributeName="opacity" to="0" dur="8.700000000000001s" /><animate attributeName="stroke-dashoffset" from="150" to="0" dur="1.8s" begin="8.700000000000001s" fill="freeze" /></path><path d="M53.91,62.82c3.48,2.21,8.97,8.36,10.64,11.67" class="stroke" stroke-dasharray="150"><set attributeName="opacity" to="0" dur="9.700000000000001s" /><animate attributeName="stroke-dashoffset" from="150" to="0" dur="1.8s" begin="9.700000000000001s" fill="freeze" /></path><path d="M79.13,13.25c0.03,0.83,0.07,2.14-0.06,3.33c-0.77,7.02-5.21,22.43-11.28,31.86" class="stroke" stroke-dasharray="150"><set attributeName="opacity" to="0" dur="10.600000000000001s" /><animate attributeName="stroke-dashoffset" from="150" to="0" dur="1.8s" begin="10.600000000000001s" fill="freeze" /></path><path d="M75.84,33.95c0.65,0.29,1.88,0.77,2.85,0.5c4.31-1.2,14.46-3.08,15.59-3.21c4.22-0.49,0.47,7.76-3.32,12.61" class="stroke" stroke-dasharray="150"><set attributeName="opacity" to="0" dur="11.600000000000001s" /><animate attributeName="stroke-dashoffset" from="150" to="0" dur="1.8s" begin="11.600000000000001s" fill="freeze" /></path><path d="M77.07,46.4c0.69,0.76,0.96,1.44,0.82,3.04C77.03,59.37,73.6,82.2,59.5,92.75" class="stroke" stroke-dasharray="150"><set attributeName="opacity" to="0" dur="12.600000000000001s" /><animate attributeName="stroke-dashoffset" from="150" to="0" dur="1.8s" begin="12.600000000000001s" fill="freeze" /></path><path d="M76.29,62.56c2.97,5.48,13.35,21.94,18.67,27.8c1.12,1.24,1.97,1.97,3.04,2.37" class="stroke" stroke-dasharray="150"><set attributeName="opacity" to="0" dur="13.900000000000002s" /><animate attributeName="stroke-dashoffset" from="150" to="0" dur="1.8s" begin="13.900000000000002s" fill="freeze" /></path><text x="90" y="120" id="reset-kvg-055fd-Kaisho">⟳</text><text x="70" y="120" id="pause-kvg-055fd-Kaisho">◼</text><script type="text/javascript"><![CDATA[function RecurringTimer(e,t){var n,r,i=t;this.pause=function(){window.clearTimeout(n);i-=new Date-r};var s=function(){r=new Date;n=window.setTimeout(function(){i=t;s();e()},i)};this.clear=function(){window.clearTimeout(n);i=t;n=window.setTimeout(function(){i=t;s();e()},i)};this.resume=s;this.resume()}function invoketimer(){timer=new RecurringTimer(function(){svg.setCurrentTime(0)},15900.000000000002)}var svg=document.getElementById("kvg-055fd-Kaisho");var pause=document.getElementById("pause-kvg-055fd-Kaisho");var reset=document.getElementById("reset-kvg-055fd-Kaisho");var timer;invoketimer();reset.onclick=function(){svg.setCurrentTime(0);timer.clear();svg.unpauseAnimations();pause.innerHTML = "◼";};pause.onclick=function(){if(svg.animationsPaused()){svg.unpauseAnimations();timer.resume();pause.innerHTML="◼"}else{svg.pauseAnimations();timer.pause();pause.innerHTML="▶"}}]]></script></svg>