<svg id="kvg-0565b-HzFst" class="kanjivg" width="106" height="126" xmlns="http://www.w3.org/2000/svg" xmlns:xlink="http://www.w3.org/1999/xlink" xml:space="preserve" version="1.1" baseProfile="full"><defs><style type="text/css"><![CDATA[path.black{fill:none;stroke:black;stroke-width:5;stroke-linecap:round;stroke-linejoin:round;}path.grey{fill:none;stroke:#ddd;stroke-width:5;stroke-linecap:round;stroke-linejoin:round;}path.stroke{fill:none;stroke:black;stroke-width:5;stroke-linecap:round;stroke-linejoin:round;}rect{fill:none;stroke:#555;stroke-width:2;} text{font-size:16px;font-family:Segoe UI Symbol,Cambria Math,DejaVu Sans,Symbola,Quivira,STIX,Code2000;-webkit-touch-callout:none;cursor:pointer;-webkit-user-select:none;-khtml-user-select:none;-moz-user-select:none;-ms-user-select:none;user-select: none;}text:hover{color:#777;}#reset{font-weight:bold;}]]></style><marker id="markerStart" markerWidth="8" markerHeight="8" style="overflow:visible;"><circle cx="0" cy="0" r="1.5" style="stroke:none;fill:red;fill-opacity:0.5;"/></marker><marker id="markerEnd" style="overflow:visible;"><circle cx="0" cy="0" r="0.8" style="stroke:none;fill:blue;fill-opacity:0.5;"><animate attributeName="opacity" from="1" to="0" dur="3s" repeatCount="indefinite" /></circle></marker></defs><rect x="4" y="4" width="100" height="100" /><path d="M11.25,31.79c0.37,0.51,0.76,0.94,0.92,1.58C13.46,38.43,15.01,52.9,15.9,62" class="grey" /><path d="M12.08,33.72c9.42-2.22,14.55-2.56,18.92-3.23c1.6-0.24,2.56,1.44,2.33,2.87c-0.95,5.92-2.05,15.57-3.46,23.75" class="grey" /><path d="M16.07,59.55c5.14-0.75,9.93-0.8,14.89-1.21" class="grey" /><path d="M68.96,22.62C74,21.98,80.9,20.91,86.2,20.48c1.23-0.1,1.54-0.21,2.31,0" class="grey" /><path d="M66.17,10.25c0.77,0.43,1.39,1.91,1.39,2.79c0,4.51,0.2,8.73,0.2,20.96" class="grey" /><path d="M51.37,17.98c0.77,0.43,1.23,1.93,1.39,2.79c0.15,0.86,1,9.44,0.84,14.8" class="grey" /><path d="M39.85,36.36c0.58,0.21,2.14,0.72,3.69,0.64c8.36-0.43,40.05-4.79,47.97-4.79c1.55,0,4.25,0.43,5.14,0.64" class="grey" /><path d="M51.26,47.23c2.89,1.93,7.26,7.38,7.98,10.39" class="grey" /><path d="M82.67,43.18c0.47,0.85,0.83,2.54,0.11,3.67c-3.02,4.73-4.85,6.75-7.28,9.12" class="grey" /><path d="M47.7,62.78c0.36,0.12,1.34,0.31,2.31,0.36c2.67,0.12,31.48-3.09,35.73-2.85c0.97,0.05,1.21-0.12,1.82,0" class="grey" /><path d="M67.11,40.75c0.55,0.32,0.89,1.43,1,2.06c0.11,0.63,0,41.97-0.11,45.94" class="grey" /><path d="M67.77,63.07c-3.36,7.85-11.53,18.86-19.09,23.39" class="grey" /><path d="M71.88,69.23c3.34,1.98,8.69,6.92,11.58,13.17" class="grey" /><path d="M41.97,45.88c0.63,0.45,0.97,3.35,1.09,4.25c0.13,0.9-0.52,43.13-0.58,44.5s0.96,2.01,2.21,1.89c13.56-1.27,34.19-3.27,46.89-3.77" class="grey" /><path d="M92.28,42.38c0.39,0.45,1.32,2.35,1.31,3.25c-0.09,10.87-0.84,28.62-1.55,50.25" class="grey" /><path d="M11.25,31.79c0.37,0.51,0.76,0.94,0.92,1.58C13.46,38.43,15.01,52.9,15.9,62" class="stroke" stroke-dasharray="150"><animate attributeName="stroke-dashoffset" from="150" to="0" dur="1.8s" begin="0.0s" fill="freeze" /></path><path d="M12.08,33.72c9.42-2.22,14.55-2.56,18.92-3.23c1.6-0.24,2.56,1.44,2.33,2.87c-0.95,5.92-2.05,15.57-3.46,23.75" class="stroke" stroke-dasharray="150"><set attributeName="opacity" to="0" dur="1.0s" /><animate attributeName="stroke-dashoffset" from="150" to="0" dur="1.8s" begin="1.0s" fill="freeze" /></path><path d="M16.07,59.55c5.14-0.75,9.93-0.8,14.89-1.21" class="stroke" stroke-dasharray="150"><set attributeName="opacity" to="0" dur="2.2s" /><animate attributeName="stroke-dashoffset" from="150" to="0" dur="1.8s" begin="2.2s" fill="freeze" /></path><path d="M68.96,22.62C74,21.98,80.9,20.91,86.2,20.48c1.23-0.1,1.54-0.21,2.31,0" class="stroke" stroke-dasharray="150"><set attributeName="opacity" to="0" dur="3.1s" /><animate attributeName="stroke-dashoffset" from="150" to="0" dur="1.8s" begin="3.1s" fill="freeze" /></path><path d="M66.17,10.25c0.77,0.43,1.39,1.91,1.39,2.79c0,4.51,0.2,8.73,0.2,20.96" class="stroke" stroke-dasharray="150"><set attributeName="opacity" to="0" dur="4.0s" /><animate attributeName="stroke-dashoffset" from="150" to="0" dur="1.8s" begin="4.0s" fill="freeze" /></path><path d="M51.37,17.98c0.77,0.43,1.23,1.93,1.39,2.79c0.15,0.86,1,9.44,0.84,14.8" class="stroke" stroke-dasharray="150"><set attributeName="opacity" to="0" dur="5.0s" /><animate attributeName="stroke-dashoffset" from="150" to="0" dur="1.8s" begin="5.0s" fill="freeze" /></path><path d="M39.85,36.36c0.58,0.21,2.14,0.72,3.69,0.64c8.36-0.43,40.05-4.79,47.97-4.79c1.55,0,4.25,0.43,5.14,0.64" class="stroke" stroke-dasharray="150"><set attributeName="opacity" to="0" dur="5.9s" /><animate attributeName="stroke-dashoffset" from="150" to="0" dur="1.8s" begin="5.9s" fill="freeze" /></path><path d="M51.26,47.23c2.89,1.93,7.26,7.38,7.98,10.39" class="stroke" stroke-dasharray="150"><set attributeName="opacity" to="0" dur="7.300000000000001s" /><animate attributeName="stroke-dashoffset" from="150" to="0" dur="1.8s" begin="7.300000000000001s" fill="freeze" /></path><path d="M82.67,43.18c0.47,0.85,0.83,2.54,0.11,3.67c-3.02,4.73-4.85,6.75-7.28,9.12" class="stroke" stroke-dasharray="150"><set attributeName="opacity" to="0" dur="8.200000000000001s" /><animate attributeName="stroke-dashoffset" from="150" to="0" dur="1.8s" begin="8.200000000000001s" fill="freeze" /></path><path d="M47.7,62.78c0.36,0.12,1.34,0.31,2.31,0.36c2.67,0.12,31.48-3.09,35.73-2.85c0.97,0.05,1.21-0.12,1.82,0" class="stroke" stroke-dasharray="150"><set attributeName="opacity" to="0" dur="9.100000000000001s" /><animate attributeName="stroke-dashoffset" from="150" to="0" dur="1.8s" begin="9.100000000000001s" fill="freeze" /></path><path d="M67.11,40.75c0.55,0.32,0.89,1.43,1,2.06c0.11,0.63,0,41.97-0.11,45.94" class="stroke" stroke-dasharray="150"><set attributeName="opacity" to="0" dur="10.200000000000001s" /><animate attributeName="stroke-dashoffset" from="150" to="0" dur="1.8s" begin="10.200000000000001s" fill="freeze" /></path><path d="M67.77,63.07c-3.36,7.85-11.53,18.86-19.09,23.39" class="stroke" stroke-dasharray="150"><set attributeName="opacity" to="0" dur="11.4s" /><animate attributeName="stroke-dashoffset" from="150" to="0" dur="1.8s" begin="11.4s" fill="freeze" /></path><path d="M71.88,69.23c3.34,1.98,8.69,6.92,11.58,13.17" class="stroke" stroke-dasharray="150"><set attributeName="opacity" to="0" dur="12.4s" /><animate attributeName="stroke-dashoffset" from="150" to="0" dur="1.8s" begin="12.4s" fill="freeze" /></path><path d="M41.97,45.88c0.63,0.45,0.97,3.35,1.09,4.25c0.13,0.9-0.52,43.13-0.58,44.5s0.96,2.01,2.21,1.89c13.56-1.27,34.19-3.27,46.89-3.77" class="stroke" stroke-dasharray="150"><set attributeName="opacity" to="0" dur="13.3s" /><animate attributeName="stroke-dashoffset" from="150" to="0" dur="1.8s" begin="13.3s" fill="freeze" /></path><path d="M92.28,42.38c0.39,0.45,1.32,2.35,1.31,3.25c-0.09,10.87-0.84,28.62-1.55,50.25" class="stroke" stroke-dasharray="150"><set attributeName="opacity" to="0" dur="15.100000000000001s" /><animate attributeName="stroke-dashoffset" from="150" to="0" dur="1.8s" begin="15.100000000000001s" fill="freeze" /></path><text x="90" y="120" id="reset-kvg-0565b-HzFst">⟳</text><text x="70" y="120" id="pause-kvg-0565b-HzFst">◼</text><script type="text/javascript"><![CDATA[function RecurringTimer(e,t){var n,r,i=t;this.pause=function(){window.clearTimeout(n);i-=new Date-r};var s=function(){r=new Date;n=window.setTimeout(function(){i=t;s();e()},i)};this.clear=function(){window.clearTimeout(n);i=t;n=window.setTimeout(function(){i=t;s();e()},i)};this.resume=s;this.resume()}function invoketimer(){timer=new RecurringTimer(function(){svg.setCurrentTime(0)},17400.000000000004)}var svg=document.getElementById("kvg-0565b-HzFst");var pause=document.getElementById("pause-kvg-0565b-HzFst");var reset=document.getElementById("reset-kvg-0565b-HzFst");var timer;invoketimer();reset.onclick=function(){svg.setCurrentTime(0);timer.clear();svg.unpauseAnimations();pause.innerHTML = "◼";};pause.onclick=function(){if(svg.animationsPaused()){svg.unpauseAnimations();timer.resume();pause.innerHTML="◼"}else{svg.pauseAnimations();timer.pause();pause.innerHTML="▶"}}]]></script></svg>