<svg id="kvg-056e3" class="kanjivg" width="106" height="126" xmlns="http://www.w3.org/2000/svg" xmlns:xlink="http://www.w3.org/1999/xlink" xml:space="preserve" version="1.1" baseProfile="full"><defs><style type="text/css"><![CDATA[path.black{fill:none;stroke:black;stroke-width:5;stroke-linecap:round;stroke-linejoin:round;}path.grey{fill:none;stroke:#ddd;stroke-width:5;stroke-linecap:round;stroke-linejoin:round;}path.stroke{fill:none;stroke:black;stroke-width:5;stroke-linecap:round;stroke-linejoin:round;}rect{fill:none;stroke:#555;stroke-width:2;} text{font-size:16px;font-family:Segoe UI Symbol,Cambria Math,DejaVu Sans,Symbola,Quivira,STIX,Code2000;-webkit-touch-callout:none;cursor:pointer;-webkit-user-select:none;-khtml-user-select:none;-moz-user-select:none;-ms-user-select:none;user-select: none;}text:hover{color:#777;}#reset{font-weight:bold;}]]></style><marker id="markerStart" markerWidth="8" markerHeight="8" style="overflow:visible;"><circle cx="0" cy="0" r="1.5" style="stroke:none;fill:red;fill-opacity:0.5;"/></marker><marker id="markerEnd" style="overflow:visible;"><circle cx="0" cy="0" r="0.8" style="stroke:none;fill:blue;fill-opacity:0.5;"><animate attributeName="opacity" from="1" to="0" dur="3s" repeatCount="indefinite" /></circle></marker></defs><rect x="4" y="4" width="100" height="100" /><path d="M17.5,17.32c0.97,0.97,1.65,3.06,1.65,4.41c0,8.9,0.02,58.27,0.02,67.03c0,1.93-0.09,4-0.09,6.25" class="grey" /><path d="M20.05,19.4c23.33-2.65,46.33-4.9,64.7-5.61C88.6,13.64,90,15.6,90,19.5c0,14.5,0.1,43.5,0.1,67c0,3.2-0.12,6.62-0.12,9.5" class="grey" /><path d="M28.89,43.81c1.74,0.32,4.4,0.28,6.49,0.06c10.47-1.13,27.39-4.02,38.5-4.81c2.03-0.14,3.99-0.24,6,0.17" class="grey" /><path d="M62.37,24.33c0.77,0.77,1.56,2.04,1.56,3.54c0,13.09,0.09,44.73,0.09,47.91c0,7.72-4.82,1.14-6.23,0.16" class="grey" /><path d="M39.07,54.03c3.56,2.97,7.56,8.72,9.25,13.31" class="grey" /><path d="M20.3,91.01c17.58-0.89,50.27-1.85,68.69-2.26" class="grey" /><path d="M17.5,17.32c0.97,0.97,1.65,3.06,1.65,4.41c0,8.9,0.02,58.27,0.02,67.03c0,1.93-0.09,4-0.09,6.25" class="stroke" stroke-dasharray="150"><animate attributeName="stroke-dashoffset" from="150" to="0" dur="1.8s" begin="0.0s" fill="freeze" /></path><path d="M20.05,19.4c23.33-2.65,46.33-4.9,64.7-5.61C88.6,13.64,90,15.6,90,19.5c0,14.5,0.1,43.5,0.1,67c0,3.2-0.12,6.62-0.12,9.5" class="stroke" stroke-dasharray="200"><set attributeName="opacity" to="0" dur="1.7s" /><animate attributeName="stroke-dashoffset" from="200" to="0" dur="1.8s" begin="1.7s" fill="freeze" /></path><path d="M28.89,43.81c1.74,0.32,4.4,0.28,6.49,0.06c10.47-1.13,27.39-4.02,38.5-4.81c2.03-0.14,3.99-0.24,6,0.17" class="stroke" stroke-dasharray="150"><set attributeName="opacity" to="0" dur="3.7s" /><animate attributeName="stroke-dashoffset" from="150" to="0" dur="1.8s" begin="3.7s" fill="freeze" /></path><path d="M62.37,24.33c0.77,0.77,1.56,2.04,1.56,3.54c0,13.09,0.09,44.73,0.09,47.91c0,7.72-4.82,1.14-6.23,0.16" class="stroke" stroke-dasharray="150"><set attributeName="opacity" to="0" dur="5.0s" /><animate attributeName="stroke-dashoffset" from="150" to="0" dur="1.8s" begin="5.0s" fill="freeze" /></path><path d="M39.07,54.03c3.56,2.97,7.56,8.72,9.25,13.31" class="stroke" stroke-dasharray="150"><set attributeName="opacity" to="0" dur="6.5s" /><animate attributeName="stroke-dashoffset" from="150" to="0" dur="1.8s" begin="6.5s" fill="freeze" /></path><path d="M20.3,91.01c17.58-0.89,50.27-1.85,68.69-2.26" class="stroke" stroke-dasharray="150"><set attributeName="opacity" to="0" dur="7.4s" /><animate attributeName="stroke-dashoffset" from="150" to="0" dur="1.8s" begin="7.4s" fill="freeze" /></path><text x="90" y="120" id="reset-kvg-056e3">⟳</text><text x="70" y="120" id="pause-kvg-056e3">◼</text><script type="text/javascript"><![CDATA[function RecurringTimer(e,t){var n,r,i=t;this.pause=function(){window.clearTimeout(n);i-=new Date-r};var s=function(){r=new Date;n=window.setTimeout(function(){i=t;s();e()},i)};this.clear=function(){window.clearTimeout(n);i=t;n=window.setTimeout(function(){i=t;s();e()},i)};this.resume=s;this.resume()}function invoketimer(){timer=new RecurringTimer(function(){svg.setCurrentTime(0)},9900.0)}var svg=document.getElementById("kvg-056e3");var pause=document.getElementById("pause-kvg-056e3");var reset=document.getElementById("reset-kvg-056e3");var timer;invoketimer();reset.onclick=function(){svg.setCurrentTime(0);timer.clear();svg.unpauseAnimations();pause.innerHTML = "◼";};pause.onclick=function(){if(svg.animationsPaused()){svg.unpauseAnimations();timer.resume();pause.innerHTML="◼"}else{svg.pauseAnimations();timer.pause();pause.innerHTML="▶"}}]]></script></svg>