<svg id="kvg-058be-Kaisho" class="kanjivg" width="106" height="126" xmlns="http://www.w3.org/2000/svg" xmlns:xlink="http://www.w3.org/1999/xlink" xml:space="preserve" version="1.1" baseProfile="full"><defs><style type="text/css"><![CDATA[path.black{fill:none;stroke:black;stroke-width:5;stroke-linecap:round;stroke-linejoin:round;}path.grey{fill:none;stroke:#ddd;stroke-width:5;stroke-linecap:round;stroke-linejoin:round;}path.stroke{fill:none;stroke:black;stroke-width:5;stroke-linecap:round;stroke-linejoin:round;}rect{fill:none;stroke:#555;stroke-width:2;} text{font-size:16px;font-family:Segoe UI Symbol,Cambria Math,DejaVu Sans,Symbola,Quivira,STIX,Code2000;-webkit-touch-callout:none;cursor:pointer;-webkit-user-select:none;-khtml-user-select:none;-moz-user-select:none;-ms-user-select:none;user-select: none;}text:hover{color:#777;}#reset{font-weight:bold;}]]></style><marker id="markerStart" markerWidth="8" markerHeight="8" style="overflow:visible;"><circle cx="0" cy="0" r="1.5" style="stroke:none;fill:red;fill-opacity:0.5;"/></marker><marker id="markerEnd" style="overflow:visible;"><circle cx="0" cy="0" r="0.8" style="stroke:none;fill:blue;fill-opacity:0.5;"><animate attributeName="opacity" from="1" to="0" dur="3s" repeatCount="indefinite" /></circle></marker></defs><rect x="4" y="4" width="100" height="100" /><path d="M40.65,11.25c0.07,0.31,0.28,0.9-0.15,1.26c-5.31,4.41-13.15,8.46-26.98,12.02" class="grey" /><path d="M15.56,26.92c2.14,1.47,5.53,6.05,6.07,8.33" class="grey" /><path d="M27.45,22.08c1.89,1.18,4.88,4.84,5.35,6.67" class="grey" /><path d="M46.28,22.42c0.08,0.52,0.36,1.54-0.16,2.07C39.75,31,30.25,38.5,17.25,44.28" class="grey" /><path d="M33.81,35.25c7.44,5.5,12.9,19.57,6.98,32.1c-3.45,7.3-6.88,1.17-7.77,0.54" class="grey" /><path d="M35.96,42.58c0.05,0.34,0.11,0.88-0.1,1.37c-1.25,2.9-8.4,9.25-18.19,13.15" class="grey" /><path d="M38.68,51.58c0.06,0.37,0.26,1-0.12,1.48c-2.87,3.53-10.64,9.45-21.7,14.11" class="grey" /><path d="M57.92,17.18c1.75-0.09,19.75-2.2,21.35-2.31c1.33-0.09,2.09,0.99,2.08,1.54c-0.09,3.85-1.92,17.77-2.68,20.42" class="grey" /><path d="M58.25,27.22c3.66-0.36,7.31-0.84,10.96-1.28c1.09-0.13,2.18-0.26,3.24-0.39" class="grey" /><path d="M58.62,37.52c6.03-0.69,13.65-1.69,20.21-2.35" class="grey" /><path d="M55.78,15.53c1,0.43,1.59,1.95,1.79,2.81c0.2,0.87,0.42,41.57,0.2,43.72c-0.2,1.95-0.88,4.96,1.51,3.45c2.39-1.51,8.64-6.92,10.63-8.87" class="grey" /><path d="M85.55,37.93c0.23,1.11,0.45,1.33,0.45,2.44c0,1.11-6.39,5.75-8.42,7.3" class="grey" /><path d="M63.8,39.18c3.55,0,19.7,17.57,25.09,21.05c3.95,2.55,4.81,2.66,6.9,3.13" class="grey" /><path d="M32.77,79.29c0.86,0.36,2.43,0.46,3.29,0.36c11.02-1.24,24.5-2.35,35.59-2.67c1.43-0.04,2.29,0.17,3,0.35" class="grey" /><path d="M52.44,69.34c0.11,0.28,1.55,1.45,1.55,3.22c0,11.41-0.32,5.21-0.32,20.29" class="grey" /><path d="M18.44,94.03c1.33,0.51,3.76,0.56,5.09,0.51C40,94,69.23,91.75,83.92,91.07c2.21-0.1,3.54,0.25,4.64,0.5" class="grey" /><path d="M40.65,11.25c0.07,0.31,0.28,0.9-0.15,1.26c-5.31,4.41-13.15,8.46-26.98,12.02" class="stroke" stroke-dasharray="150"><animate attributeName="stroke-dashoffset" from="150" to="0" dur="1.8s" begin="0.0s" fill="freeze" /></path><path d="M15.56,26.92c2.14,1.47,5.53,6.05,6.07,8.33" class="stroke" stroke-dasharray="150"><set attributeName="opacity" to="0" dur="1.0s" /><animate attributeName="stroke-dashoffset" from="150" to="0" dur="1.8s" begin="1.0s" fill="freeze" /></path><path d="M27.45,22.08c1.89,1.18,4.88,4.84,5.35,6.67" class="stroke" stroke-dasharray="150"><set attributeName="opacity" to="0" dur="1.9s" /><animate attributeName="stroke-dashoffset" from="150" to="0" dur="1.8s" begin="1.9s" fill="freeze" /></path><path d="M46.28,22.42c0.08,0.52,0.36,1.54-0.16,2.07C39.75,31,30.25,38.5,17.25,44.28" class="stroke" stroke-dasharray="150"><set attributeName="opacity" to="0" dur="2.8s" /><animate attributeName="stroke-dashoffset" from="150" to="0" dur="1.8s" begin="2.8s" fill="freeze" /></path><path d="M33.81,35.25c7.44,5.5,12.9,19.57,6.98,32.1c-3.45,7.3-6.88,1.17-7.77,0.54" class="stroke" stroke-dasharray="150"><set attributeName="opacity" to="0" dur="3.8s" /><animate attributeName="stroke-dashoffset" from="150" to="0" dur="1.8s" begin="3.8s" fill="freeze" /></path><path d="M35.96,42.58c0.05,0.34,0.11,0.88-0.1,1.37c-1.25,2.9-8.4,9.25-18.19,13.15" class="stroke" stroke-dasharray="150"><set attributeName="opacity" to="0" dur="5.0s" /><animate attributeName="stroke-dashoffset" from="150" to="0" dur="1.8s" begin="5.0s" fill="freeze" /></path><path d="M38.68,51.58c0.06,0.37,0.26,1-0.12,1.48c-2.87,3.53-10.64,9.45-21.7,14.11" class="stroke" stroke-dasharray="150"><set attributeName="opacity" to="0" dur="6.0s" /><animate attributeName="stroke-dashoffset" from="150" to="0" dur="1.8s" begin="6.0s" fill="freeze" /></path><path d="M57.92,17.18c1.75-0.09,19.75-2.2,21.35-2.31c1.33-0.09,2.09,0.99,2.08,1.54c-0.09,3.85-1.92,17.77-2.68,20.42" class="stroke" stroke-dasharray="150"><set attributeName="opacity" to="0" dur="7.0s" /><animate attributeName="stroke-dashoffset" from="150" to="0" dur="1.8s" begin="7.0s" fill="freeze" /></path><path d="M58.25,27.22c3.66-0.36,7.31-0.84,10.96-1.28c1.09-0.13,2.18-0.26,3.24-0.39" class="stroke" stroke-dasharray="150"><set attributeName="opacity" to="0" dur="8.1s" /><animate attributeName="stroke-dashoffset" from="150" to="0" dur="1.8s" begin="8.1s" fill="freeze" /></path><path d="M58.62,37.52c6.03-0.69,13.65-1.69,20.21-2.35" class="stroke" stroke-dasharray="150"><set attributeName="opacity" to="0" dur="9.0s" /><animate attributeName="stroke-dashoffset" from="150" to="0" dur="1.8s" begin="9.0s" fill="freeze" /></path><path d="M55.78,15.53c1,0.43,1.59,1.95,1.79,2.81c0.2,0.87,0.42,41.57,0.2,43.72c-0.2,1.95-0.88,4.96,1.51,3.45c2.39-1.51,8.64-6.92,10.63-8.87" class="stroke" stroke-dasharray="150"><set attributeName="opacity" to="0" dur="10.0s" /><animate attributeName="stroke-dashoffset" from="150" to="0" dur="1.8s" begin="10.0s" fill="freeze" /></path><path d="M85.55,37.93c0.23,1.11,0.45,1.33,0.45,2.44c0,1.11-6.39,5.75-8.42,7.3" class="stroke" stroke-dasharray="150"><set attributeName="opacity" to="0" dur="11.5s" /><animate attributeName="stroke-dashoffset" from="150" to="0" dur="1.8s" begin="11.5s" fill="freeze" /></path><path d="M63.8,39.18c3.55,0,19.7,17.57,25.09,21.05c3.95,2.55,4.81,2.66,6.9,3.13" class="stroke" stroke-dasharray="150"><set attributeName="opacity" to="0" dur="12.4s" /><animate attributeName="stroke-dashoffset" from="150" to="0" dur="1.8s" begin="12.4s" fill="freeze" /></path><path d="M32.77,79.29c0.86,0.36,2.43,0.46,3.29,0.36c11.02-1.24,24.5-2.35,35.59-2.67c1.43-0.04,2.29,0.17,3,0.35" class="stroke" stroke-dasharray="150"><set attributeName="opacity" to="0" dur="13.5s" /><animate attributeName="stroke-dashoffset" from="150" to="0" dur="1.8s" begin="13.5s" fill="freeze" /></path><path d="M52.44,69.34c0.11,0.28,1.55,1.45,1.55,3.22c0,11.41-0.32,5.21-0.32,20.29" class="stroke" stroke-dasharray="150"><set attributeName="opacity" to="0" dur="14.6s" /><animate attributeName="stroke-dashoffset" from="150" to="0" dur="1.8s" begin="14.6s" fill="freeze" /></path><path d="M18.44,94.03c1.33,0.51,3.76,0.56,5.09,0.51C40,94,69.23,91.75,83.92,91.07c2.21-0.1,3.54,0.25,4.64,0.5" class="stroke" stroke-dasharray="150"><set attributeName="opacity" to="0" dur="15.6s" /><animate attributeName="stroke-dashoffset" from="150" to="0" dur="1.8s" begin="15.6s" fill="freeze" /></path><text x="90" y="120" id="reset-kvg-058be-Kaisho">⟳</text><text x="70" y="120" id="pause-kvg-058be-Kaisho">◼</text><script type="text/javascript"><![CDATA[function RecurringTimer(e,t){var n,r,i=t;this.pause=function(){window.clearTimeout(n);i-=new Date-r};var s=function(){r=new Date;n=window.setTimeout(function(){i=t;s();e()},i)};this.clear=function(){window.clearTimeout(n);i=t;n=window.setTimeout(function(){i=t;s();e()},i)};this.resume=s;this.resume()}function invoketimer(){timer=new RecurringTimer(function(){svg.setCurrentTime(0)},18300.0)}var svg=document.getElementById("kvg-058be-Kaisho");var pause=document.getElementById("pause-kvg-058be-Kaisho");var reset=document.getElementById("reset-kvg-058be-Kaisho");var timer;invoketimer();reset.onclick=function(){svg.setCurrentTime(0);timer.clear();svg.unpauseAnimations();pause.innerHTML = "◼";};pause.onclick=function(){if(svg.animationsPaused()){svg.unpauseAnimations();timer.resume();pause.innerHTML="◼"}else{svg.pauseAnimations();timer.pause();pause.innerHTML="▶"}}]]></script></svg>