<svg id="kvg-058ee" class="kanjivg" width="106" height="126" xmlns="http://www.w3.org/2000/svg" xmlns:xlink="http://www.w3.org/1999/xlink" xml:space="preserve" version="1.1" baseProfile="full"><defs><style type="text/css"><![CDATA[path.black{fill:none;stroke:black;stroke-width:5;stroke-linecap:round;stroke-linejoin:round;}path.grey{fill:none;stroke:#ddd;stroke-width:5;stroke-linecap:round;stroke-linejoin:round;}path.stroke{fill:none;stroke:black;stroke-width:5;stroke-linecap:round;stroke-linejoin:round;}rect{fill:none;stroke:#555;stroke-width:2;} text{font-size:16px;font-family:Segoe UI Symbol,Cambria Math,DejaVu Sans,Symbola,Quivira,STIX,Code2000;-webkit-touch-callout:none;cursor:pointer;-webkit-user-select:none;-khtml-user-select:none;-moz-user-select:none;-ms-user-select:none;user-select: none;}text:hover{color:#777;}#reset{font-weight:bold;}]]></style><marker id="markerStart" markerWidth="8" markerHeight="8" style="overflow:visible;"><circle cx="0" cy="0" r="1.5" style="stroke:none;fill:red;fill-opacity:0.5;"/></marker><marker id="markerEnd" style="overflow:visible;"><circle cx="0" cy="0" r="0.8" style="stroke:none;fill:blue;fill-opacity:0.5;"><animate attributeName="opacity" from="1" to="0" dur="3s" repeatCount="indefinite" /></circle></marker></defs><rect x="4" y="4" width="100" height="100" /><path d="M34.12,16.25c1.19,1.19,1.46,3,1.46,4.5c0,0.65,0.04,45.06,0.04,65c0,5.58,0,9.25-0.01,9.5" class="grey" /><path d="M13.88,30.25c4.02,2.43,10.37,9.98,11.38,13.75" class="grey" /><path d="M12.5,76.3c1.88,0.95,3.08,0.2,4.34-0.76c3.66-2.8,7.33-6.22,10.66-9.78" class="grey" /><path d="M44.63,46.23c2.12,0.65,5.24,0.48,7.25,0.18c11.12-1.65,26.75-3.78,38.5-4.62c1.96-0.14,4.25-0.15,6.25,0.29" class="grey" /><path d="M69,17.25c1.19,1.19,1.75,2.75,1.75,4.75c0,1.03,0,45.25,0,60.5" class="grey" /><path d="M47.5,83.75c2.88,0.75,4.73,0.7,7.25,0.46c10.56-1,22.05-2.24,33.26-2.41c2.12-0.03,4.53,0.11,6.61,0.59" class="grey" /><path d="M34.12,16.25c1.19,1.19,1.46,3,1.46,4.5c0,0.65,0.04,45.06,0.04,65c0,5.58,0,9.25-0.01,9.5" class="stroke" stroke-dasharray="150"><animate attributeName="stroke-dashoffset" from="150" to="0" dur="1.8s" begin="0.0s" fill="freeze" /></path><path d="M13.88,30.25c4.02,2.43,10.37,9.98,11.38,13.75" class="stroke" stroke-dasharray="150"><set attributeName="opacity" to="0" dur="1.7s" /><animate attributeName="stroke-dashoffset" from="150" to="0" dur="1.8s" begin="1.7s" fill="freeze" /></path><path d="M12.5,76.3c1.88,0.95,3.08,0.2,4.34-0.76c3.66-2.8,7.33-6.22,10.66-9.78" class="stroke" stroke-dasharray="150"><set attributeName="opacity" to="0" dur="2.6s" /><animate attributeName="stroke-dashoffset" from="150" to="0" dur="1.8s" begin="2.6s" fill="freeze" /></path><path d="M44.63,46.23c2.12,0.65,5.24,0.48,7.25,0.18c11.12-1.65,26.75-3.78,38.5-4.62c1.96-0.14,4.25-0.15,6.25,0.29" class="stroke" stroke-dasharray="150"><set attributeName="opacity" to="0" dur="3.5s" /><animate attributeName="stroke-dashoffset" from="150" to="0" dur="1.8s" begin="3.5s" fill="freeze" /></path><path d="M69,17.25c1.19,1.19,1.75,2.75,1.75,4.75c0,1.03,0,45.25,0,60.5" class="stroke" stroke-dasharray="150"><set attributeName="opacity" to="0" dur="4.8s" /><animate attributeName="stroke-dashoffset" from="150" to="0" dur="1.8s" begin="4.8s" fill="freeze" /></path><path d="M47.5,83.75c2.88,0.75,4.73,0.7,7.25,0.46c10.56-1,22.05-2.24,33.26-2.41c2.12-0.03,4.53,0.11,6.61,0.59" class="stroke" stroke-dasharray="150"><set attributeName="opacity" to="0" dur="6.3s" /><animate attributeName="stroke-dashoffset" from="150" to="0" dur="1.8s" begin="6.3s" fill="freeze" /></path><text x="90" y="120" id="reset-kvg-058ee">⟳</text><text x="70" y="120" id="pause-kvg-058ee">◼</text><script type="text/javascript"><![CDATA[function RecurringTimer(e,t){var n,r,i=t;this.pause=function(){window.clearTimeout(n);i-=new Date-r};var s=function(){r=new Date;n=window.setTimeout(function(){i=t;s();e()},i)};this.clear=function(){window.clearTimeout(n);i=t;n=window.setTimeout(function(){i=t;s();e()},i)};this.resume=s;this.resume()}function invoketimer(){timer=new RecurringTimer(function(){svg.setCurrentTime(0)},8500.0)}var svg=document.getElementById("kvg-058ee");var pause=document.getElementById("pause-kvg-058ee");var reset=document.getElementById("reset-kvg-058ee");var timer;invoketimer();reset.onclick=function(){svg.setCurrentTime(0);timer.clear();svg.unpauseAnimations();pause.innerHTML = "◼";};pause.onclick=function(){if(svg.animationsPaused()){svg.unpauseAnimations();timer.resume();pause.innerHTML="◼"}else{svg.pauseAnimations();timer.pause();pause.innerHTML="▶"}}]]></script></svg>