<svg id="kvg-058f1" class="kanjivg" width="106" height="126" xmlns="http://www.w3.org/2000/svg" xmlns:xlink="http://www.w3.org/1999/xlink" xml:space="preserve" version="1.1" baseProfile="full"><defs><style type="text/css"><![CDATA[path.black{fill:none;stroke:black;stroke-width:5;stroke-linecap:round;stroke-linejoin:round;}path.grey{fill:none;stroke:#ddd;stroke-width:5;stroke-linecap:round;stroke-linejoin:round;}path.stroke{fill:none;stroke:black;stroke-width:5;stroke-linecap:round;stroke-linejoin:round;}rect{fill:none;stroke:#555;stroke-width:2;} text{font-size:16px;font-family:Segoe UI Symbol,Cambria Math,DejaVu Sans,Symbola,Quivira,STIX,Code2000;-webkit-touch-callout:none;cursor:pointer;-webkit-user-select:none;-khtml-user-select:none;-moz-user-select:none;-ms-user-select:none;user-select: none;}text:hover{color:#777;}#reset{font-weight:bold;}]]></style><marker id="markerStart" markerWidth="8" markerHeight="8" style="overflow:visible;"><circle cx="0" cy="0" r="1.5" style="stroke:none;fill:red;fill-opacity:0.5;"/></marker><marker id="markerEnd" style="overflow:visible;"><circle cx="0" cy="0" r="0.8" style="stroke:none;fill:blue;fill-opacity:0.5;"><animate attributeName="opacity" from="1" to="0" dur="3s" repeatCount="indefinite" /></circle></marker></defs><rect x="4" y="4" width="100" height="100" /><path d="M27.38,24.88c2.04,1.02,5.5,0.6,7.65,0.39c10.24-1.04,26.98-2.51,38.1-3.47c2.4-0.21,4.91-0.3,7.25,0.4" class="grey" /><path d="M51.53,11.11c0.99,0.99,1.35,2.39,1.35,3.76c0,2.62-0.02,12.12-0.02,22.01" class="grey" /><path d="M30.81,39.17c2.57,0.33,4.84,0.32,6.94,0.16c10.75-0.83,22.53-2.32,32.01-2.81c1.96-0.1,3.9-0.24,5.83,0.21" class="grey" /><path d="M17.41,51.13c0,3.48-3.03,14.55-4.41,16.87" class="grey" /><path d="M18.27,52.91C37.25,51,64.88,48.12,88.2,47.09c12.06-0.54,2.55,7.41-0.45,9.53" class="grey" /><path d="M72.19,60.03c-0.06,0.97-0.72,2.16-1.27,2.52C65.62,66,55.75,71,43.41,74.96" class="grey" /><path d="M39,57.5c0.75,0.75,1.29,2,1.29,3.31c0,1.39,0.06,18.72,0.06,22.98c0,9.84,1.66,11.73,21.79,11.73c20.99,0,22.46-1.27,22.46-13.31" class="grey" /><path d="M27.38,24.88c2.04,1.02,5.5,0.6,7.65,0.39c10.24-1.04,26.98-2.51,38.1-3.47c2.4-0.21,4.91-0.3,7.25,0.4" class="stroke" stroke-dasharray="150"><animate attributeName="stroke-dashoffset" from="150" to="0" dur="1.8s" begin="0.0s" fill="freeze" /></path><path d="M51.53,11.11c0.99,0.99,1.35,2.39,1.35,3.76c0,2.62-0.02,12.12-0.02,22.01" class="stroke" stroke-dasharray="150"><set attributeName="opacity" to="0" dur="1.3s" /><animate attributeName="stroke-dashoffset" from="150" to="0" dur="1.8s" begin="1.3s" fill="freeze" /></path><path d="M30.81,39.17c2.57,0.33,4.84,0.32,6.94,0.16c10.75-0.83,22.53-2.32,32.01-2.81c1.96-0.1,3.9-0.24,5.83,0.21" class="stroke" stroke-dasharray="150"><set attributeName="opacity" to="0" dur="2.3s" /><animate attributeName="stroke-dashoffset" from="150" to="0" dur="1.8s" begin="2.3s" fill="freeze" /></path><path d="M17.41,51.13c0,3.48-3.03,14.55-4.41,16.87" class="stroke" stroke-dasharray="150"><set attributeName="opacity" to="0" dur="3.4s" /><animate attributeName="stroke-dashoffset" from="150" to="0" dur="1.8s" begin="3.4s" fill="freeze" /></path><path d="M18.27,52.91C37.25,51,64.88,48.12,88.2,47.09c12.06-0.54,2.55,7.41-0.45,9.53" class="stroke" stroke-dasharray="150"><set attributeName="opacity" to="0" dur="4.3s" /><animate attributeName="stroke-dashoffset" from="150" to="0" dur="1.8s" begin="4.3s" fill="freeze" /></path><path d="M72.19,60.03c-0.06,0.97-0.72,2.16-1.27,2.52C65.62,66,55.75,71,43.41,74.96" class="stroke" stroke-dasharray="150"><set attributeName="opacity" to="0" dur="6.0s" /><animate attributeName="stroke-dashoffset" from="150" to="0" dur="1.8s" begin="6.0s" fill="freeze" /></path><path d="M39,57.5c0.75,0.75,1.29,2,1.29,3.31c0,1.39,0.06,18.72,0.06,22.98c0,9.84,1.66,11.73,21.79,11.73c20.99,0,22.46-1.27,22.46-13.31" class="stroke" stroke-dasharray="150"><set attributeName="opacity" to="0" dur="7.0s" /><animate attributeName="stroke-dashoffset" from="150" to="0" dur="1.8s" begin="7.0s" fill="freeze" /></path><text x="90" y="120" id="reset-kvg-058f1">⟳</text><text x="70" y="120" id="pause-kvg-058f1">◼</text><script type="text/javascript"><![CDATA[function RecurringTimer(e,t){var n,r,i=t;this.pause=function(){window.clearTimeout(n);i-=new Date-r};var s=function(){r=new Date;n=window.setTimeout(function(){i=t;s();e()},i)};this.clear=function(){window.clearTimeout(n);i=t;n=window.setTimeout(function(){i=t;s();e()},i)};this.resume=s;this.resume()}function invoketimer(){timer=new RecurringTimer(function(){svg.setCurrentTime(0)},9700.0)}var svg=document.getElementById("kvg-058f1");var pause=document.getElementById("pause-kvg-058f1");var reset=document.getElementById("reset-kvg-058f1");var timer;invoketimer();reset.onclick=function(){svg.setCurrentTime(0);timer.clear();svg.unpauseAnimations();pause.innerHTML = "◼";};pause.onclick=function(){if(svg.animationsPaused()){svg.unpauseAnimations();timer.resume();pause.innerHTML="◼"}else{svg.pauseAnimations();timer.pause();pause.innerHTML="▶"}}]]></script></svg>