<svg id="kvg-05909-Kaisho" class="kanjivg" width="106" height="126" xmlns="http://www.w3.org/2000/svg" xmlns:xlink="http://www.w3.org/1999/xlink" xml:space="preserve" version="1.1" baseProfile="full"><defs><style type="text/css"><![CDATA[path.black{fill:none;stroke:black;stroke-width:5;stroke-linecap:round;stroke-linejoin:round;}path.grey{fill:none;stroke:#ddd;stroke-width:5;stroke-linecap:round;stroke-linejoin:round;}path.stroke{fill:none;stroke:black;stroke-width:5;stroke-linecap:round;stroke-linejoin:round;}rect{fill:none;stroke:#555;stroke-width:2;} text{font-size:16px;font-family:Segoe UI Symbol,Cambria Math,DejaVu Sans,Symbola,Quivira,STIX,Code2000;-webkit-touch-callout:none;cursor:pointer;-webkit-user-select:none;-khtml-user-select:none;-moz-user-select:none;-ms-user-select:none;user-select: none;}text:hover{color:#777;}#reset{font-weight:bold;}]]></style><marker id="markerStart" markerWidth="8" markerHeight="8" style="overflow:visible;"><circle cx="0" cy="0" r="1.5" style="stroke:none;fill:red;fill-opacity:0.5;"/></marker><marker id="markerEnd" style="overflow:visible;"><circle cx="0" cy="0" r="0.8" style="stroke:none;fill:blue;fill-opacity:0.5;"><animate attributeName="opacity" from="1" to="0" dur="3s" repeatCount="indefinite" /></circle></marker></defs><rect x="4" y="4" width="100" height="100" /><path d="M49.53,8.75c2.94,1.32,6.53,5.03,7.77,9.03" class="grey" /><path d="M21.45,24.73c1.29,0.08,4.24,0.52,5.49,0.41c10.14-0.87,46.11-4.57,58.98-4.8c2.13-0.04,3.21,0.04,4.8,0.53" class="grey" /><path d="M43.99,25.87c0.5,0.88,1.36,1.58,1.21,2.67C43.75,39,42.25,49.75,30.35,58.25" class="grey" /><path d="M60.38,23.65c0.89,0.69,1.59,1.5,1.59,3.78c0,13.3,0.27,14.9,0.27,18.64c0,7.83-6.53,1.13-7.89,0.19" class="grey" /><path d="M30.61,34.57c0.04,0.45,0.24,1.2-0.08,1.81c-2.43,4.68-6.96,11.46-13.7,17.28" class="grey" /><path d="M74.35,33.91c4.04,2.41,10.43,9.92,11.44,13.67" class="grey" /><path d="M47.06,52.5c0.08,0.74,0.16,1.91-0.15,2.97C45.06,61.73,34.75,77,20,82.88" class="grey" /><path d="M48.44,61.49c0.34,0.03,1.8,0,2.78-0.09c3.22-0.29,11.39-3.03,16.02-3.78c2.26-0.37,3.26,0.38,2.25,3.39C66.22,70.68,43.3,92.76,23.62,97.5" class="grey" /><path d="M40.5,66.68c6.25,4.77,34.58,22.88,43.01,27.24c2.51,1.3,4.55,1.93,6.99,2.32" class="grey" /><path d="M49.53,8.75c2.94,1.32,6.53,5.03,7.77,9.03" class="stroke" stroke-dasharray="150"><animate attributeName="stroke-dashoffset" from="150" to="0" dur="1.8s" begin="0.0s" fill="freeze" /></path><path d="M21.45,24.73c1.29,0.08,4.24,0.52,5.49,0.41c10.14-0.87,46.11-4.57,58.98-4.8c2.13-0.04,3.21,0.04,4.8,0.53" class="stroke" stroke-dasharray="150"><set attributeName="opacity" to="0" dur="0.9s" /><animate attributeName="stroke-dashoffset" from="150" to="0" dur="1.8s" begin="0.9s" fill="freeze" /></path><path d="M43.99,25.87c0.5,0.88,1.36,1.58,1.21,2.67C43.75,39,42.25,49.75,30.35,58.25" class="stroke" stroke-dasharray="150"><set attributeName="opacity" to="0" dur="2.4s" /><animate attributeName="stroke-dashoffset" from="150" to="0" dur="1.8s" begin="2.4s" fill="freeze" /></path><path d="M60.38,23.65c0.89,0.69,1.59,1.5,1.59,3.78c0,13.3,0.27,14.9,0.27,18.64c0,7.83-6.53,1.13-7.89,0.19" class="stroke" stroke-dasharray="150"><set attributeName="opacity" to="0" dur="3.4s" /><animate attributeName="stroke-dashoffset" from="150" to="0" dur="1.8s" begin="3.4s" fill="freeze" /></path><path d="M30.61,34.57c0.04,0.45,0.24,1.2-0.08,1.81c-2.43,4.68-6.96,11.46-13.7,17.28" class="stroke" stroke-dasharray="150"><set attributeName="opacity" to="0" dur="4.4s" /><animate attributeName="stroke-dashoffset" from="150" to="0" dur="1.8s" begin="4.4s" fill="freeze" /></path><path d="M74.35,33.91c4.04,2.41,10.43,9.92,11.44,13.67" class="stroke" stroke-dasharray="150"><set attributeName="opacity" to="0" dur="5.4s" /><animate attributeName="stroke-dashoffset" from="150" to="0" dur="1.8s" begin="5.4s" fill="freeze" /></path><path d="M47.06,52.5c0.08,0.74,0.16,1.91-0.15,2.97C45.06,61.73,34.75,77,20,82.88" class="stroke" stroke-dasharray="150"><set attributeName="opacity" to="0" dur="6.300000000000001s" /><animate attributeName="stroke-dashoffset" from="150" to="0" dur="1.8s" begin="6.300000000000001s" fill="freeze" /></path><path d="M48.44,61.49c0.34,0.03,1.8,0,2.78-0.09c3.22-0.29,11.39-3.03,16.02-3.78c2.26-0.37,3.26,0.38,2.25,3.39C66.22,70.68,43.3,92.76,23.62,97.5" class="stroke" stroke-dasharray="150"><set attributeName="opacity" to="0" dur="7.4s" /><animate attributeName="stroke-dashoffset" from="150" to="0" dur="1.8s" begin="7.4s" fill="freeze" /></path><path d="M40.5,66.68c6.25,4.77,34.58,22.88,43.01,27.24c2.51,1.3,4.55,1.93,6.99,2.32" class="stroke" stroke-dasharray="150"><set attributeName="opacity" to="0" dur="9.1s" /><animate attributeName="stroke-dashoffset" from="150" to="0" dur="1.8s" begin="9.1s" fill="freeze" /></path><text x="90" y="120" id="reset-kvg-05909-Kaisho">⟳</text><text x="70" y="120" id="pause-kvg-05909-Kaisho">◼</text><script type="text/javascript"><![CDATA[function RecurringTimer(e,t){var n,r,i=t;this.pause=function(){window.clearTimeout(n);i-=new Date-r};var s=function(){r=new Date;n=window.setTimeout(function(){i=t;s();e()},i)};this.clear=function(){window.clearTimeout(n);i=t;n=window.setTimeout(function(){i=t;s();e()},i)};this.resume=s;this.resume()}function invoketimer(){timer=new RecurringTimer(function(){svg.setCurrentTime(0)},11500.0)}var svg=document.getElementById("kvg-05909-Kaisho");var pause=document.getElementById("pause-kvg-05909-Kaisho");var reset=document.getElementById("reset-kvg-05909-Kaisho");var timer;invoketimer();reset.onclick=function(){svg.setCurrentTime(0);timer.clear();svg.unpauseAnimations();pause.innerHTML = "◼";};pause.onclick=function(){if(svg.animationsPaused()){svg.unpauseAnimations();timer.resume();pause.innerHTML="◼"}else{svg.pauseAnimations();timer.pause();pause.innerHTML="▶"}}]]></script></svg>