<svg id="kvg-05931" class="kanjivg" width="106" height="126" xmlns="http://www.w3.org/2000/svg" xmlns:xlink="http://www.w3.org/1999/xlink" xml:space="preserve" version="1.1" baseProfile="full"><defs><style type="text/css"><![CDATA[path.black{fill:none;stroke:black;stroke-width:5;stroke-linecap:round;stroke-linejoin:round;}path.grey{fill:none;stroke:#ddd;stroke-width:5;stroke-linecap:round;stroke-linejoin:round;}path.stroke{fill:none;stroke:black;stroke-width:5;stroke-linecap:round;stroke-linejoin:round;}rect{fill:none;stroke:#555;stroke-width:2;} text{font-size:16px;font-family:Segoe UI Symbol,Cambria Math,DejaVu Sans,Symbola,Quivira,STIX,Code2000;-webkit-touch-callout:none;cursor:pointer;-webkit-user-select:none;-khtml-user-select:none;-moz-user-select:none;-ms-user-select:none;user-select: none;}text:hover{color:#777;}#reset{font-weight:bold;}]]></style><marker id="markerStart" markerWidth="8" markerHeight="8" style="overflow:visible;"><circle cx="0" cy="0" r="1.5" style="stroke:none;fill:red;fill-opacity:0.5;"/></marker><marker id="markerEnd" style="overflow:visible;"><circle cx="0" cy="0" r="0.8" style="stroke:none;fill:blue;fill-opacity:0.5;"><animate attributeName="opacity" from="1" to="0" dur="3s" repeatCount="indefinite" /></circle></marker></defs><rect x="4" y="4" width="100" height="100" /><path d="M36.51,23.14c0.04,0.57,0.21,1.5-0.09,2.28c-2.42,6.33-7.05,13.2-15.86,21.3" class="grey" /><path d="M32.75,38.39c2.25,0.49,4.26,0.32,6.26,0.09c7.43-0.87,24.34-3.05,33.49-3.51c2.23-0.11,4.56-0.25,6.75,0.29" class="grey" /><path d="M19.75,60.14c2.71,0.97,6.7,0.53,9.49,0.13c13.14-1.9,38.25-4.73,50.51-5.47c2.81-0.17,5.72-0.13,8.5,0.46" class="grey" /><path d="M53.62,14.25c0.63,1.25,0.86,2.41,0.87,4.83C54.75,63.75,43.75,83,17.5,95.5" class="grey" /><path d="M54.5,57.5c9.99,11.52,23.52,28.43,33.46,34.78c2.9,1.85,4.85,2.75,6.04,2.97" class="grey" /><path d="M36.51,23.14c0.04,0.57,0.21,1.5-0.09,2.28c-2.42,6.33-7.05,13.2-15.86,21.3" class="stroke" stroke-dasharray="150"><animate attributeName="stroke-dashoffset" from="150" to="0" dur="1.8s" begin="0.0s" fill="freeze" /></path><path d="M32.75,38.39c2.25,0.49,4.26,0.32,6.26,0.09c7.43-0.87,24.34-3.05,33.49-3.51c2.23-0.11,4.56-0.25,6.75,0.29" class="stroke" stroke-dasharray="150"><set attributeName="opacity" to="0" dur="1.0s" /><animate attributeName="stroke-dashoffset" from="150" to="0" dur="1.8s" begin="1.0s" fill="freeze" /></path><path d="M19.75,60.14c2.71,0.97,6.7,0.53,9.49,0.13c13.14-1.9,38.25-4.73,50.51-5.47c2.81-0.17,5.72-0.13,8.5,0.46" class="stroke" stroke-dasharray="150"><set attributeName="opacity" to="0" dur="2.2s" /><animate attributeName="stroke-dashoffset" from="150" to="0" dur="1.8s" begin="2.2s" fill="freeze" /></path><path d="M53.62,14.25c0.63,1.25,0.86,2.41,0.87,4.83C54.75,63.75,43.75,83,17.5,95.5" class="stroke" stroke-dasharray="150"><set attributeName="opacity" to="0" dur="3.7s" /><animate attributeName="stroke-dashoffset" from="150" to="0" dur="1.8s" begin="3.7s" fill="freeze" /></path><path d="M54.5,57.5c9.99,11.52,23.52,28.43,33.46,34.78c2.9,1.85,4.85,2.75,6.04,2.97" class="stroke" stroke-dasharray="150"><set attributeName="opacity" to="0" dur="5.5s" /><animate attributeName="stroke-dashoffset" from="150" to="0" dur="1.8s" begin="5.5s" fill="freeze" /></path><text x="90" y="120" id="reset-kvg-05931">⟳</text><text x="70" y="120" id="pause-kvg-05931">◼</text><script type="text/javascript"><![CDATA[function RecurringTimer(e,t){var n,r,i=t;this.pause=function(){window.clearTimeout(n);i-=new Date-r};var s=function(){r=new Date;n=window.setTimeout(function(){i=t;s();e()},i)};this.clear=function(){window.clearTimeout(n);i=t;n=window.setTimeout(function(){i=t;s();e()},i)};this.resume=s;this.resume()}function invoketimer(){timer=new RecurringTimer(function(){svg.setCurrentTime(0)},7900.0)}var svg=document.getElementById("kvg-05931");var pause=document.getElementById("pause-kvg-05931");var reset=document.getElementById("reset-kvg-05931");var timer;invoketimer();reset.onclick=function(){svg.setCurrentTime(0);timer.clear();svg.unpauseAnimations();pause.innerHTML = "◼";};pause.onclick=function(){if(svg.animationsPaused()){svg.unpauseAnimations();timer.resume();pause.innerHTML="◼"}else{svg.pauseAnimations();timer.pause();pause.innerHTML="▶"}}]]></script></svg>