<svg id="kvg-05a1f-Kaisho" class="kanjivg" width="106" height="126" xmlns="http://www.w3.org/2000/svg" xmlns:xlink="http://www.w3.org/1999/xlink" xml:space="preserve" version="1.1" baseProfile="full"><defs><style type="text/css"><![CDATA[path.black{fill:none;stroke:black;stroke-width:5;stroke-linecap:round;stroke-linejoin:round;}path.grey{fill:none;stroke:#ddd;stroke-width:5;stroke-linecap:round;stroke-linejoin:round;}path.stroke{fill:none;stroke:black;stroke-width:5;stroke-linecap:round;stroke-linejoin:round;}rect{fill:none;stroke:#555;stroke-width:2;} text{font-size:16px;font-family:Segoe UI Symbol,Cambria Math,DejaVu Sans,Symbola,Quivira,STIX,Code2000;-webkit-touch-callout:none;cursor:pointer;-webkit-user-select:none;-khtml-user-select:none;-moz-user-select:none;-ms-user-select:none;user-select: none;}text:hover{color:#777;}#reset{font-weight:bold;}]]></style><marker id="markerStart" markerWidth="8" markerHeight="8" style="overflow:visible;"><circle cx="0" cy="0" r="1.5" style="stroke:none;fill:red;fill-opacity:0.5;"/></marker><marker id="markerEnd" style="overflow:visible;"><circle cx="0" cy="0" r="0.8" style="stroke:none;fill:blue;fill-opacity:0.5;"><animate attributeName="opacity" from="1" to="0" dur="3s" repeatCount="indefinite" /></circle></marker></defs><rect x="4" y="4" width="100" height="100" /><path d="M29.98,16.87c0.39,1.04,1.08,2.74,0.89,4.24c-0.98,7.39-7.82,34.16-12.13,42.79c-0.89,1.77,0.4,2.46,0.89,2.63C29,69.75,37.5,76.16,42.75,83.78" class="grey" /><path d="M41.75,37.39c0.08,1.27,0.14,4.34-0.16,6.18C39.18,58.41,32.23,79.46,15,90.5" class="grey" /><path d="M10.5,46.92c0.76,0.81,1.78,1.4,3.81,1.2c2.18-0.21,21.66-4.18,30.69-6.24" class="grey" /><path d="M52.46,16.12c0.4,0.32,0.82,0.59,0.99,1c1.4,3.2,3.07,13.06,4.03,18.8" class="grey" /><path d="M54.97,17.74c9.87-1.34,27.48-3.1,32.57-3.55c1.86-0.16,2.98,1.67,2.71,2.64C89.16,20.85,88,24,86.54,30.64" class="grey" /><path d="M57.88,34.3c5.98-0.51,21.82-2.26,31.29-2.64" class="grey" /><path d="M54.41,44.63c0.69,0.84,1.15,1.69,1.38,2.53c0.23,0.84,0.33,46.27,0.23,48.17" class="grey" /><path d="M55.67,46.47c2.76-0.21,29.64-3.21,31.69-3.45c3.68-0.42,5.06,2.74,4.6,4.01c-0.44,1.22-0.12,24.89-0.12,41.99c0,10.98-5.52,3.8-7.82,1.9" class="grey" /><path d="M56.17,59.18c6.22-0.68,12.47-1.15,18.71-1.6c1.6-0.11,3.17-0.22,4.69-0.33" class="grey" /><path d="M56.15,71.71c5.66-0.49,12.33-0.89,18.01-1.3c1.68-0.12,3.38-0.24,5.03-0.35" class="grey" /><path d="M29.98,16.87c0.39,1.04,1.08,2.74,0.89,4.24c-0.98,7.39-7.82,34.16-12.13,42.79c-0.89,1.77,0.4,2.46,0.89,2.63C29,69.75,37.5,76.16,42.75,83.78" class="stroke" stroke-dasharray="150"><animate attributeName="stroke-dashoffset" from="150" to="0" dur="1.8s" begin="0.0s" fill="freeze" /></path><path d="M41.75,37.39c0.08,1.27,0.14,4.34-0.16,6.18C39.18,58.41,32.23,79.46,15,90.5" class="stroke" stroke-dasharray="150"><set attributeName="opacity" to="0" dur="1.7s" /><animate attributeName="stroke-dashoffset" from="150" to="0" dur="1.8s" begin="1.7s" fill="freeze" /></path><path d="M10.5,46.92c0.76,0.81,1.78,1.4,3.81,1.2c2.18-0.21,21.66-4.18,30.69-6.24" class="stroke" stroke-dasharray="150"><set attributeName="opacity" to="0" dur="3.2s" /><animate attributeName="stroke-dashoffset" from="150" to="0" dur="1.8s" begin="3.2s" fill="freeze" /></path><path d="M52.46,16.12c0.4,0.32,0.82,0.59,0.99,1c1.4,3.2,3.07,13.06,4.03,18.8" class="stroke" stroke-dasharray="150"><set attributeName="opacity" to="0" dur="4.2s" /><animate attributeName="stroke-dashoffset" from="150" to="0" dur="1.8s" begin="4.2s" fill="freeze" /></path><path d="M54.97,17.74c9.87-1.34,27.48-3.1,32.57-3.55c1.86-0.16,2.98,1.67,2.71,2.64C89.16,20.85,88,24,86.54,30.64" class="stroke" stroke-dasharray="150"><set attributeName="opacity" to="0" dur="5.2s" /><animate attributeName="stroke-dashoffset" from="150" to="0" dur="1.8s" begin="5.2s" fill="freeze" /></path><path d="M57.88,34.3c5.98-0.51,21.82-2.26,31.29-2.64" class="stroke" stroke-dasharray="150"><set attributeName="opacity" to="0" dur="6.5s" /><animate attributeName="stroke-dashoffset" from="150" to="0" dur="1.8s" begin="6.5s" fill="freeze" /></path><path d="M54.41,44.63c0.69,0.84,1.15,1.69,1.38,2.53c0.23,0.84,0.33,46.27,0.23,48.17" class="stroke" stroke-dasharray="150"><set attributeName="opacity" to="0" dur="7.5s" /><animate attributeName="stroke-dashoffset" from="150" to="0" dur="1.8s" begin="7.5s" fill="freeze" /></path><path d="M55.67,46.47c2.76-0.21,29.64-3.21,31.69-3.45c3.68-0.42,5.06,2.74,4.6,4.01c-0.44,1.22-0.12,24.89-0.12,41.99c0,10.98-5.52,3.8-7.82,1.9" class="stroke" stroke-dasharray="150"><set attributeName="opacity" to="0" dur="8.8s" /><animate attributeName="stroke-dashoffset" from="150" to="0" dur="1.8s" begin="8.8s" fill="freeze" /></path><path d="M56.17,59.18c6.22-0.68,12.47-1.15,18.71-1.6c1.6-0.11,3.17-0.22,4.69-0.33" class="stroke" stroke-dasharray="150"><set attributeName="opacity" to="0" dur="10.600000000000001s" /><animate attributeName="stroke-dashoffset" from="150" to="0" dur="1.8s" begin="10.600000000000001s" fill="freeze" /></path><path d="M56.15,71.71c5.66-0.49,12.33-0.89,18.01-1.3c1.68-0.12,3.38-0.24,5.03-0.35" class="stroke" stroke-dasharray="150"><set attributeName="opacity" to="0" dur="11.600000000000001s" /><animate attributeName="stroke-dashoffset" from="150" to="0" dur="1.8s" begin="11.600000000000001s" fill="freeze" /></path><text x="90" y="120" id="reset-kvg-05a1f-Kaisho">⟳</text><text x="70" y="120" id="pause-kvg-05a1f-Kaisho">◼</text><script type="text/javascript"><![CDATA[function RecurringTimer(e,t){var n,r,i=t;this.pause=function(){window.clearTimeout(n);i-=new Date-r};var s=function(){r=new Date;n=window.setTimeout(function(){i=t;s();e()},i)};this.clear=function(){window.clearTimeout(n);i=t;n=window.setTimeout(function(){i=t;s();e()},i)};this.resume=s;this.resume()}function invoketimer(){timer=new RecurringTimer(function(){svg.setCurrentTime(0)},13600.000000000002)}var svg=document.getElementById("kvg-05a1f-Kaisho");var pause=document.getElementById("pause-kvg-05a1f-Kaisho");var reset=document.getElementById("reset-kvg-05a1f-Kaisho");var timer;invoketimer();reset.onclick=function(){svg.setCurrentTime(0);timer.clear();svg.unpauseAnimations();pause.innerHTML = "◼";};pause.onclick=function(){if(svg.animationsPaused()){svg.unpauseAnimations();timer.resume();pause.innerHTML="◼"}else{svg.pauseAnimations();timer.pause();pause.innerHTML="▶"}}]]></script></svg>