<svg id="kvg-05a29" class="kanjivg" width="106" height="126" xmlns="http://www.w3.org/2000/svg" xmlns:xlink="http://www.w3.org/1999/xlink" xml:space="preserve" version="1.1" baseProfile="full"><defs><style type="text/css"><![CDATA[path.black{fill:none;stroke:black;stroke-width:5;stroke-linecap:round;stroke-linejoin:round;}path.grey{fill:none;stroke:#ddd;stroke-width:5;stroke-linecap:round;stroke-linejoin:round;}path.stroke{fill:none;stroke:black;stroke-width:5;stroke-linecap:round;stroke-linejoin:round;}rect{fill:none;stroke:#555;stroke-width:2;} text{font-size:16px;font-family:Segoe UI Symbol,Cambria Math,DejaVu Sans,Symbola,Quivira,STIX,Code2000;-webkit-touch-callout:none;cursor:pointer;-webkit-user-select:none;-khtml-user-select:none;-moz-user-select:none;-ms-user-select:none;user-select: none;}text:hover{color:#777;}#reset{font-weight:bold;}]]></style><marker id="markerStart" markerWidth="8" markerHeight="8" style="overflow:visible;"><circle cx="0" cy="0" r="1.5" style="stroke:none;fill:red;fill-opacity:0.5;"/></marker><marker id="markerEnd" style="overflow:visible;"><circle cx="0" cy="0" r="0.8" style="stroke:none;fill:blue;fill-opacity:0.5;"><animate attributeName="opacity" from="1" to="0" dur="3s" repeatCount="indefinite" /></circle></marker></defs><rect x="4" y="4" width="100" height="100" /><path d="M26.48,25.37c0.39,1.07,1.08,2.82,0.89,4.36c-0.98,7.59-4.32,26.09-8.63,34.97c-0.89,1.82,0.39,2.57,0.89,2.7c8.63,2.35,16.38,8.35,21.63,16.19" class="grey" /><path d="M39.25,39.98c0.08,1.25,0.14,4.27-0.16,6.08c-2.43,14.61-9.45,35.32-26.84,46.19" class="grey" /><path d="M10,50.59c0.75,0.97,1.83,1.55,3.75,0.93c5.5-1.77,17-5.02,28.75-8.43" class="grey" /><path d="M62.89,12.9c0.04,0.5,0.08,1.28-0.08,1.99c-0.92,4.2-6.17,13.43-13.38,19.08" class="grey" /><path d="M59.85,23c2.05,0,19.79-4.09,21.94-4.33c1.85-0.2,2.3,1.69,1.53,2.71c-3.25,4.27-7.05,8.88-12.19,15.72" class="grey" /><path d="M49.51,41.1c0.38,0.47,0.78,0.86,0.94,1.45c1.33,4.66,2.26,12.32,3.17,20.69" class="grey" /><path d="M50.4,42.71c9.4-1.96,34.3-4.53,39.15-5.19c1.77-0.24,2.84,1.43,2.58,2.85c-1.05,5.87-1.63,11.13-4,19.4" class="grey" /><path d="M53.38,61.25c3.8-0.5,31.05-3.25,35.24-3.5" class="grey" /><path d="M 70.001437,42.127138 c 0.197138,1.870011 0.538252,4.711937 0.40285,7.105758 -0.184854,3.268119 -0.156658,6.30759 -1.358574,10.556386 C 63.281451,71.702627 55.771425,85.849966 37.42,96.91" class="grey" /><path d="M75,62.37c0.49,1.05,0.87,2.29,0.9,3.91c0.13,7.23-0.34,14.15-0.34,19.07c0,7.65,2.51,10.19,12.55,10.19c10.21,0,11.85-1.03,11.85-8.06" class="grey" /><path d="M26.48,25.37c0.39,1.07,1.08,2.82,0.89,4.36c-0.98,7.59-4.32,26.09-8.63,34.97c-0.89,1.82,0.39,2.57,0.89,2.7c8.63,2.35,16.38,8.35,21.63,16.19" class="stroke" stroke-dasharray="150"><animate attributeName="stroke-dashoffset" from="150" to="0" dur="1.8s" begin="0.0s" fill="freeze" /></path><path d="M39.25,39.98c0.08,1.25,0.14,4.27-0.16,6.08c-2.43,14.61-9.45,35.32-26.84,46.19" class="stroke" stroke-dasharray="150"><set attributeName="opacity" to="0" dur="1.7s" /><animate attributeName="stroke-dashoffset" from="150" to="0" dur="1.8s" begin="1.7s" fill="freeze" /></path><path d="M10,50.59c0.75,0.97,1.83,1.55,3.75,0.93c5.5-1.77,17-5.02,28.75-8.43" class="stroke" stroke-dasharray="150"><set attributeName="opacity" to="0" dur="3.2s" /><animate attributeName="stroke-dashoffset" from="150" to="0" dur="1.8s" begin="3.2s" fill="freeze" /></path><path d="M62.89,12.9c0.04,0.5,0.08,1.28-0.08,1.99c-0.92,4.2-6.17,13.43-13.38,19.08" class="stroke" stroke-dasharray="150"><set attributeName="opacity" to="0" dur="4.2s" /><animate attributeName="stroke-dashoffset" from="150" to="0" dur="1.8s" begin="4.2s" fill="freeze" /></path><path d="M59.85,23c2.05,0,19.79-4.09,21.94-4.33c1.85-0.2,2.3,1.69,1.53,2.71c-3.25,4.27-7.05,8.88-12.19,15.72" class="stroke" stroke-dasharray="150"><set attributeName="opacity" to="0" dur="5.2s" /><animate attributeName="stroke-dashoffset" from="150" to="0" dur="1.8s" begin="5.2s" fill="freeze" /></path><path d="M49.51,41.1c0.38,0.47,0.78,0.86,0.94,1.45c1.33,4.66,2.26,12.32,3.17,20.69" class="stroke" stroke-dasharray="150"><set attributeName="opacity" to="0" dur="6.4s" /><animate attributeName="stroke-dashoffset" from="150" to="0" dur="1.8s" begin="6.4s" fill="freeze" /></path><path d="M50.4,42.71c9.4-1.96,34.3-4.53,39.15-5.19c1.77-0.24,2.84,1.43,2.58,2.85c-1.05,5.87-1.63,11.13-4,19.4" class="stroke" stroke-dasharray="150"><set attributeName="opacity" to="0" dur="7.4s" /><animate attributeName="stroke-dashoffset" from="150" to="0" dur="1.8s" begin="7.4s" fill="freeze" /></path><path d="M53.38,61.25c3.8-0.5,31.05-3.25,35.24-3.5" class="stroke" stroke-dasharray="150"><set attributeName="opacity" to="0" dur="8.9s" /><animate attributeName="stroke-dashoffset" from="150" to="0" dur="1.8s" begin="8.9s" fill="freeze" /></path><path d="M 70.001437,42.127138 c 0.197138,1.870011 0.538252,4.711937 0.40285,7.105758 -0.184854,3.268119 -0.156658,6.30759 -1.358574,10.556386 C 63.281451,71.702627 55.771425,85.849966 37.42,96.91" class="stroke" stroke-dasharray="150"><set attributeName="opacity" to="0" dur="9.9s" /><animate attributeName="stroke-dashoffset" from="150" to="0" dur="1.8s" begin="9.9s" fill="freeze" /></path><path d="M75,62.37c0.49,1.05,0.87,2.29,0.9,3.91c0.13,7.23-0.34,14.15-0.34,19.07c0,7.65,2.51,10.19,12.55,10.19c10.21,0,11.85-1.03,11.85-8.06" class="stroke" stroke-dasharray="150"><set attributeName="opacity" to="0" dur="11.4s" /><animate attributeName="stroke-dashoffset" from="150" to="0" dur="1.8s" begin="11.4s" fill="freeze" /></path><text x="90" y="120" id="reset-kvg-05a29">⟳</text><text x="70" y="120" id="pause-kvg-05a29">◼</text><script type="text/javascript"><![CDATA[function RecurringTimer(e,t){var n,r,i=t;this.pause=function(){window.clearTimeout(n);i-=new Date-r};var s=function(){r=new Date;n=window.setTimeout(function(){i=t;s();e()},i)};this.clear=function(){window.clearTimeout(n);i=t;n=window.setTimeout(function(){i=t;s();e()},i)};this.resume=s;this.resume()}function invoketimer(){timer=new RecurringTimer(function(){svg.setCurrentTime(0)},13800.0)}var svg=document.getElementById("kvg-05a29");var pause=document.getElementById("pause-kvg-05a29");var reset=document.getElementById("reset-kvg-05a29");var timer;invoketimer();reset.onclick=function(){svg.setCurrentTime(0);timer.clear();svg.unpauseAnimations();pause.innerHTML = "◼";};pause.onclick=function(){if(svg.animationsPaused()){svg.unpauseAnimations();timer.resume();pause.innerHTML="◼"}else{svg.pauseAnimations();timer.pause();pause.innerHTML="▶"}}]]></script></svg>