<svg id="kvg-05a3c" class="kanjivg" width="106" height="126" xmlns="http://www.w3.org/2000/svg" xmlns:xlink="http://www.w3.org/1999/xlink" xml:space="preserve" version="1.1" baseProfile="full"><defs><style type="text/css"><![CDATA[path.black{fill:none;stroke:black;stroke-width:5;stroke-linecap:round;stroke-linejoin:round;}path.grey{fill:none;stroke:#ddd;stroke-width:5;stroke-linecap:round;stroke-linejoin:round;}path.stroke{fill:none;stroke:black;stroke-width:5;stroke-linecap:round;stroke-linejoin:round;}rect{fill:none;stroke:#555;stroke-width:2;} text{font-size:16px;font-family:Segoe UI Symbol,Cambria Math,DejaVu Sans,Symbola,Quivira,STIX,Code2000;-webkit-touch-callout:none;cursor:pointer;-webkit-user-select:none;-khtml-user-select:none;-moz-user-select:none;-ms-user-select:none;user-select: none;}text:hover{color:#777;}#reset{font-weight:bold;}]]></style><marker id="markerStart" markerWidth="8" markerHeight="8" style="overflow:visible;"><circle cx="0" cy="0" r="1.5" style="stroke:none;fill:red;fill-opacity:0.5;"/></marker><marker id="markerEnd" style="overflow:visible;"><circle cx="0" cy="0" r="0.8" style="stroke:none;fill:blue;fill-opacity:0.5;"><animate attributeName="opacity" from="1" to="0" dur="3s" repeatCount="indefinite" /></circle></marker></defs><rect x="4" y="4" width="100" height="100" /><path d="M28.48,20.12c0.39,1.07,0.58,2.82,0.39,4.36c-0.92,7.16-4.58,31.1-8.65,41.28c-0.98,2.46-1.53,3.85,1.29,4.72c5.3,1.64,10.8,4.89,15.19,8.95c2.44,2.26,4.54,4.78,6.06,7.41" class="grey" /><path d="M40.75,41.48c0.37,1.77,0.38,3.27,0.09,5.08c-2.34,14.61-6.97,33.06-26.1,47.19" class="grey" /><path d="M10.25,52.09c0.88,1.28,1.78,1.59,3.75,1.18c8-1.65,19.88-4.77,30-7.18" class="grey" /><path d="M51.05,18.57c0.82,0.82,1.07,2.04,1.17,2.96c0.56,5.44,1.56,14.29,2.38,20.85c0.33,2.6,0.62,4.84,0.86,6.37" class="grey" /><path d="M52.8,20.18c8.95-1.43,22.7-3.18,31.09-3.93c3.53-0.32,5.67,1.2,5.15,4.77c-0.61,4.22-1.99,11.13-3.33,17.39c-0.57,2.66-1.13,5.2-1.63,7.36" class="grey" /><path d="M54.11,32.93c9.51-1.18,25.51-2.55,32.38-2.98" class="grey" /><path d="M56.1,45.41c5.52-0.5,20.52-1.57,27.4-2" class="grey" /><path d="M48.02,58.74c0.69,0.69,0.93,1.7,1.05,2.75c0.37,3.22,1.9,16.39,2.9,25.14c0.52,4.52,0.89,7.85,0.89,8.03" class="grey" /><path d="M49.94,60.12c14.48-1.52,28.47-3.04,39.57-3.54c3.66-0.17,5.67,0.98,5.05,4.8c-0.89,5.5-2.3,14.01-3.62,21.38c-0.6,3.35-1.19,6.46-1.7,8.94" class="grey" /><path d="M51.66,74.22c9.71-0.85,33.09-2.1,40.7-2.34" class="grey" /><path d="M53.5,89.38c8.14-0.57,25.18-0.94,35.32-1.43" class="grey" /><path d="M28.48,20.12c0.39,1.07,0.58,2.82,0.39,4.36c-0.92,7.16-4.58,31.1-8.65,41.28c-0.98,2.46-1.53,3.85,1.29,4.72c5.3,1.64,10.8,4.89,15.19,8.95c2.44,2.26,4.54,4.78,6.06,7.41" class="stroke" stroke-dasharray="150"><animate attributeName="stroke-dashoffset" from="150" to="0" dur="1.8s" begin="0.0s" fill="freeze" /></path><path d="M40.75,41.48c0.37,1.77,0.38,3.27,0.09,5.08c-2.34,14.61-6.97,33.06-26.1,47.19" class="stroke" stroke-dasharray="150"><set attributeName="opacity" to="0" dur="1.7s" /><animate attributeName="stroke-dashoffset" from="150" to="0" dur="1.8s" begin="1.7s" fill="freeze" /></path><path d="M10.25,52.09c0.88,1.28,1.78,1.59,3.75,1.18c8-1.65,19.88-4.77,30-7.18" class="stroke" stroke-dasharray="150"><set attributeName="opacity" to="0" dur="3.2s" /><animate attributeName="stroke-dashoffset" from="150" to="0" dur="1.8s" begin="3.2s" fill="freeze" /></path><path d="M51.05,18.57c0.82,0.82,1.07,2.04,1.17,2.96c0.56,5.44,1.56,14.29,2.38,20.85c0.33,2.6,0.62,4.84,0.86,6.37" class="stroke" stroke-dasharray="150"><set attributeName="opacity" to="0" dur="4.2s" /><animate attributeName="stroke-dashoffset" from="150" to="0" dur="1.8s" begin="4.2s" fill="freeze" /></path><path d="M52.8,20.18c8.95-1.43,22.7-3.18,31.09-3.93c3.53-0.32,5.67,1.2,5.15,4.77c-0.61,4.22-1.99,11.13-3.33,17.39c-0.57,2.66-1.13,5.2-1.63,7.36" class="stroke" stroke-dasharray="150"><set attributeName="opacity" to="0" dur="5.2s" /><animate attributeName="stroke-dashoffset" from="150" to="0" dur="1.8s" begin="5.2s" fill="freeze" /></path><path d="M54.11,32.93c9.51-1.18,25.51-2.55,32.38-2.98" class="stroke" stroke-dasharray="150"><set attributeName="opacity" to="0" dur="6.7s" /><animate attributeName="stroke-dashoffset" from="150" to="0" dur="1.8s" begin="6.7s" fill="freeze" /></path><path d="M56.1,45.41c5.52-0.5,20.52-1.57,27.4-2" class="stroke" stroke-dasharray="150"><set attributeName="opacity" to="0" dur="7.7s" /><animate attributeName="stroke-dashoffset" from="150" to="0" dur="1.8s" begin="7.7s" fill="freeze" /></path><path d="M48.02,58.74c0.69,0.69,0.93,1.7,1.05,2.75c0.37,3.22,1.9,16.39,2.9,25.14c0.52,4.52,0.89,7.85,0.89,8.03" class="stroke" stroke-dasharray="150"><set attributeName="opacity" to="0" dur="8.7s" /><animate attributeName="stroke-dashoffset" from="150" to="0" dur="1.8s" begin="8.7s" fill="freeze" /></path><path d="M49.94,60.12c14.48-1.52,28.47-3.04,39.57-3.54c3.66-0.17,5.67,0.98,5.05,4.8c-0.89,5.5-2.3,14.01-3.62,21.38c-0.6,3.35-1.19,6.46-1.7,8.94" class="stroke" stroke-dasharray="150"><set attributeName="opacity" to="0" dur="9.7s" /><animate attributeName="stroke-dashoffset" from="150" to="0" dur="1.8s" begin="9.7s" fill="freeze" /></path><path d="M51.66,74.22c9.71-0.85,33.09-2.1,40.7-2.34" class="stroke" stroke-dasharray="150"><set attributeName="opacity" to="0" dur="11.399999999999999s" /><animate attributeName="stroke-dashoffset" from="150" to="0" dur="1.8s" begin="11.399999999999999s" fill="freeze" /></path><path d="M53.5,89.38c8.14-0.57,25.18-0.94,35.32-1.43" class="stroke" stroke-dasharray="150"><set attributeName="opacity" to="0" dur="12.499999999999998s" /><animate attributeName="stroke-dashoffset" from="150" to="0" dur="1.8s" begin="12.499999999999998s" fill="freeze" /></path><text x="90" y="120" id="reset-kvg-05a3c">⟳</text><text x="70" y="120" id="pause-kvg-05a3c">◼</text><script type="text/javascript"><![CDATA[function RecurringTimer(e,t){var n,r,i=t;this.pause=function(){window.clearTimeout(n);i-=new Date-r};var s=function(){r=new Date;n=window.setTimeout(function(){i=t;s();e()},i)};this.clear=function(){window.clearTimeout(n);i=t;n=window.setTimeout(function(){i=t;s();e()},i)};this.resume=s;this.resume()}function invoketimer(){timer=new RecurringTimer(function(){svg.setCurrentTime(0)},14499.999999999998)}var svg=document.getElementById("kvg-05a3c");var pause=document.getElementById("pause-kvg-05a3c");var reset=document.getElementById("reset-kvg-05a3c");var timer;invoketimer();reset.onclick=function(){svg.setCurrentTime(0);timer.clear();svg.unpauseAnimations();pause.innerHTML = "◼";};pause.onclick=function(){if(svg.animationsPaused()){svg.unpauseAnimations();timer.resume();pause.innerHTML="◼"}else{svg.pauseAnimations();timer.pause();pause.innerHTML="▶"}}]]></script></svg>