<svg id="kvg-05a5a-Kaisho" class="kanjivg" width="106" height="126" xmlns="http://www.w3.org/2000/svg" xmlns:xlink="http://www.w3.org/1999/xlink" xml:space="preserve" version="1.1" baseProfile="full"><defs><style type="text/css"><![CDATA[path.black{fill:none;stroke:black;stroke-width:5;stroke-linecap:round;stroke-linejoin:round;}path.grey{fill:none;stroke:#ddd;stroke-width:5;stroke-linecap:round;stroke-linejoin:round;}path.stroke{fill:none;stroke:black;stroke-width:5;stroke-linecap:round;stroke-linejoin:round;}rect{fill:none;stroke:#555;stroke-width:2;} text{font-size:16px;font-family:Segoe UI Symbol,Cambria Math,DejaVu Sans,Symbola,Quivira,STIX,Code2000;-webkit-touch-callout:none;cursor:pointer;-webkit-user-select:none;-khtml-user-select:none;-moz-user-select:none;-ms-user-select:none;user-select: none;}text:hover{color:#777;}#reset{font-weight:bold;}]]></style><marker id="markerStart" markerWidth="8" markerHeight="8" style="overflow:visible;"><circle cx="0" cy="0" r="1.5" style="stroke:none;fill:red;fill-opacity:0.5;"/></marker><marker id="markerEnd" style="overflow:visible;"><circle cx="0" cy="0" r="0.8" style="stroke:none;fill:blue;fill-opacity:0.5;"><animate attributeName="opacity" from="1" to="0" dur="3s" repeatCount="indefinite" /></circle></marker></defs><rect x="4" y="4" width="100" height="100" /><path d="M26.48,18.37c0.39,1.04,1.08,2.74,0.89,4.24C26.38,30,21.05,55.76,16.73,64.4c-0.89,1.77,0.4,2.46,0.89,2.63C27,70.25,36.5,77.66,41.75,85.28" class="grey" /><path d="M39.5,36.39c0.08,1.29,0.14,4.42-0.16,6.29C36.96,57.8,32.82,77.24,15,91.5" class="grey" /><path d="M9.5,48.22c0.75,0.94,1.75,1.62,3.75,1.39c2.15-0.24,21.34-4.35,30.25-6.73" class="grey" /><path d="M78.1,12.25c0.06,0.28,0.13,0.72-0.13,1.12c-1.55,2.35-12.43,8.53-24.6,11.69" class="grey" /><path d="M51.75,23.87c0.53,0.92,0.88,2.25,0.88,3.7c0,1.45-0.18,25.71-0.18,27.97c0,2.25,0.18,2.9,2.48,1.29c2.3-1.61,12.55-8.34,13.96-9.31" class="grey" /><path d="M52.93,35.44C63.25,34,80.5,30.25,89.31,28.74c1.44-0.25,2.94-0.24,4.26,0.26" class="grey" /><path d="M70.04,22.15c0.53,0.44,1.64,2.86,1.87,3.57C76.75,41,83,51.5,93.4,58.38c6.18,4.09,5.12-2.03,4.6-7" class="grey" /><path d="M56.73,62.8c0.27,0.95,0.77,2.11,0.77,3.09c0,3.86,0.16,25.86,0.16,31.11" class="grey" /><path d="M58.14,64.91c2.17-0.12,22-2.99,23.97-3.14c1.65-0.12,2.7,0.99,2.7,3.59c0,6.9-0.29,28.99-0.29,29.73" class="grey" /><path d="M57.9,78.27c4.18,0,8.42-0.57,12.57-0.93c1.41-0.12,2.83-0.25,4.21-0.37" class="grey" /><path d="M57.93,94.22c5.97-0.53,18.75-1.45,26.19-1.91" class="grey" /><path d="M26.48,18.37c0.39,1.04,1.08,2.74,0.89,4.24C26.38,30,21.05,55.76,16.73,64.4c-0.89,1.77,0.4,2.46,0.89,2.63C27,70.25,36.5,77.66,41.75,85.28" class="stroke" stroke-dasharray="150"><animate attributeName="stroke-dashoffset" from="150" to="0" dur="1.8s" begin="0.0s" fill="freeze" /></path><path d="M39.5,36.39c0.08,1.29,0.14,4.42-0.16,6.29C36.96,57.8,32.82,77.24,15,91.5" class="stroke" stroke-dasharray="150"><set attributeName="opacity" to="0" dur="1.7s" /><animate attributeName="stroke-dashoffset" from="150" to="0" dur="1.8s" begin="1.7s" fill="freeze" /></path><path d="M9.5,48.22c0.75,0.94,1.75,1.62,3.75,1.39c2.15-0.24,21.34-4.35,30.25-6.73" class="stroke" stroke-dasharray="150"><set attributeName="opacity" to="0" dur="3.2s" /><animate attributeName="stroke-dashoffset" from="150" to="0" dur="1.8s" begin="3.2s" fill="freeze" /></path><path d="M78.1,12.25c0.06,0.28,0.13,0.72-0.13,1.12c-1.55,2.35-12.43,8.53-24.6,11.69" class="stroke" stroke-dasharray="150"><set attributeName="opacity" to="0" dur="4.2s" /><animate attributeName="stroke-dashoffset" from="150" to="0" dur="1.8s" begin="4.2s" fill="freeze" /></path><path d="M51.75,23.87c0.53,0.92,0.88,2.25,0.88,3.7c0,1.45-0.18,25.71-0.18,27.97c0,2.25,0.18,2.9,2.48,1.29c2.3-1.61,12.55-8.34,13.96-9.31" class="stroke" stroke-dasharray="150"><set attributeName="opacity" to="0" dur="5.2s" /><animate attributeName="stroke-dashoffset" from="150" to="0" dur="1.8s" begin="5.2s" fill="freeze" /></path><path d="M52.93,35.44C63.25,34,80.5,30.25,89.31,28.74c1.44-0.25,2.94-0.24,4.26,0.26" class="stroke" stroke-dasharray="150"><set attributeName="opacity" to="0" dur="6.5s" /><animate attributeName="stroke-dashoffset" from="150" to="0" dur="1.8s" begin="6.5s" fill="freeze" /></path><path d="M70.04,22.15c0.53,0.44,1.64,2.86,1.87,3.57C76.75,41,83,51.5,93.4,58.38c6.18,4.09,5.12-2.03,4.6-7" class="stroke" stroke-dasharray="150"><set attributeName="opacity" to="0" dur="7.6s" /><animate attributeName="stroke-dashoffset" from="150" to="0" dur="1.8s" begin="7.6s" fill="freeze" /></path><path d="M56.73,62.8c0.27,0.95,0.77,2.11,0.77,3.09c0,3.86,0.16,25.86,0.16,31.11" class="stroke" stroke-dasharray="150"><set attributeName="opacity" to="0" dur="9.0s" /><animate attributeName="stroke-dashoffset" from="150" to="0" dur="1.8s" begin="9.0s" fill="freeze" /></path><path d="M58.14,64.91c2.17-0.12,22-2.99,23.97-3.14c1.65-0.12,2.7,0.99,2.7,3.59c0,6.9-0.29,28.99-0.29,29.73" class="stroke" stroke-dasharray="150"><set attributeName="opacity" to="0" dur="10.0s" /><animate attributeName="stroke-dashoffset" from="150" to="0" dur="1.8s" begin="10.0s" fill="freeze" /></path><path d="M57.9,78.27c4.18,0,8.42-0.57,12.57-0.93c1.41-0.12,2.83-0.25,4.21-0.37" class="stroke" stroke-dasharray="150"><set attributeName="opacity" to="0" dur="11.4s" /><animate attributeName="stroke-dashoffset" from="150" to="0" dur="1.8s" begin="11.4s" fill="freeze" /></path><path d="M57.93,94.22c5.97-0.53,18.75-1.45,26.19-1.91" class="stroke" stroke-dasharray="150"><set attributeName="opacity" to="0" dur="12.3s" /><animate attributeName="stroke-dashoffset" from="150" to="0" dur="1.8s" begin="12.3s" fill="freeze" /></path><text x="90" y="120" id="reset-kvg-05a5a-Kaisho">⟳</text><text x="70" y="120" id="pause-kvg-05a5a-Kaisho">◼</text><script type="text/javascript"><![CDATA[function RecurringTimer(e,t){var n,r,i=t;this.pause=function(){window.clearTimeout(n);i-=new Date-r};var s=function(){r=new Date;n=window.setTimeout(function(){i=t;s();e()},i)};this.clear=function(){window.clearTimeout(n);i=t;n=window.setTimeout(function(){i=t;s();e()},i)};this.resume=s;this.resume()}function invoketimer(){timer=new RecurringTimer(function(){svg.setCurrentTime(0)},14300.0)}var svg=document.getElementById("kvg-05a5a-Kaisho");var pause=document.getElementById("pause-kvg-05a5a-Kaisho");var reset=document.getElementById("reset-kvg-05a5a-Kaisho");var timer;invoketimer();reset.onclick=function(){svg.setCurrentTime(0);timer.clear();svg.unpauseAnimations();pause.innerHTML = "◼";};pause.onclick=function(){if(svg.animationsPaused()){svg.unpauseAnimations();timer.resume();pause.innerHTML="◼"}else{svg.pauseAnimations();timer.pause();pause.innerHTML="▶"}}]]></script></svg>