<svg id="kvg-05a7f-Kaisho" class="kanjivg" width="106" height="126" xmlns="http://www.w3.org/2000/svg" xmlns:xlink="http://www.w3.org/1999/xlink" xml:space="preserve" version="1.1" baseProfile="full"><defs><style type="text/css"><![CDATA[path.black{fill:none;stroke:black;stroke-width:5;stroke-linecap:round;stroke-linejoin:round;}path.grey{fill:none;stroke:#ddd;stroke-width:5;stroke-linecap:round;stroke-linejoin:round;}path.stroke{fill:none;stroke:black;stroke-width:5;stroke-linecap:round;stroke-linejoin:round;}rect{fill:none;stroke:#555;stroke-width:2;} text{font-size:16px;font-family:Segoe UI Symbol,Cambria Math,DejaVu Sans,Symbola,Quivira,STIX,Code2000;-webkit-touch-callout:none;cursor:pointer;-webkit-user-select:none;-khtml-user-select:none;-moz-user-select:none;-ms-user-select:none;user-select: none;}text:hover{color:#777;}#reset{font-weight:bold;}]]></style><marker id="markerStart" markerWidth="8" markerHeight="8" style="overflow:visible;"><circle cx="0" cy="0" r="1.5" style="stroke:none;fill:red;fill-opacity:0.5;"/></marker><marker id="markerEnd" style="overflow:visible;"><circle cx="0" cy="0" r="0.8" style="stroke:none;fill:blue;fill-opacity:0.5;"><animate attributeName="opacity" from="1" to="0" dur="3s" repeatCount="indefinite" /></circle></marker></defs><rect x="4" y="4" width="100" height="100" /><path d="M26.31,21.37c0.4,0.92,1.12,2.44,0.91,3.78c-1.01,6.57-4.03,27.81-8.48,35.5c-0.91,1.58,0.42,2.17,0.91,2.34C28.25,66,34,71,40,80.41" class="grey" /><path d="M39.25,36.72c0.08,1.2,0.14,4.11-0.17,5.85C36.63,56.62,29.55,76.54,12,87" class="grey" /><path d="M10.5,47.25c0.72,1.19,1.67,2.04,3.58,1.75c2.06-0.31,20.4-5.47,28.92-8.48" class="grey" /><path d="M49.61,16.93c1.33,0.47,2.27,0.69,4.12,0.38c10.5-1.73,17.77-3.57,28.92-4.82c6.23-0.7,4.15,2.08,0.04,6.32" class="grey" /><path d="M67.23,17.51c0.72,0.38,1.14,1.73,1.29,2.5c0.14,0.77,0,17.06-0.14,21.88" class="grey" /><path d="M68.88,31.01c4.67-0.58,8.48-1.08,15.53-2.23c1.13-0.19,1.43-0.19,2.14,0" class="grey" /><path d="M55.25,28.98c0.03,0.53,0.06,1.37-0.06,2.14c-0.7,4.51-4.68,14.13-10.14,20.19" class="grey" /><path d="M53.52,38.18c5.44,1.41,29.33,8.08,35.24,9.47c2.01,0.47,3.73,0.67,5.73,0.81" class="grey" /><path d="M53.99,54.25c0.49,1,0.82,2,0.98,3c0.16,1,0.23,40.5,0.16,42.75" class="grey" /><path d="M55.63,55.75c1.97-0.25,20.69-2.97,22.16-3.25c2.62-0.5,3.34,2.17,3.28,3.75c-0.16,4.25,0.01,13.75,0.01,34c0,13-4.3,6.5-5.94,4.25" class="grey" /><path d="M55.31,67c4.35-0.6,8.2-1.16,12.55-1.69c1.17-0.14,2.32-0.28,3.45-0.41" class="grey" /><path d="M55.14,78.3c4.13-0.42,8.25-0.99,12.37-1.5c1.19-0.15,2.39-0.29,3.57-0.43" class="grey" /><path d="M26.31,21.37c0.4,0.92,1.12,2.44,0.91,3.78c-1.01,6.57-4.03,27.81-8.48,35.5c-0.91,1.58,0.42,2.17,0.91,2.34C28.25,66,34,71,40,80.41" class="stroke" stroke-dasharray="150"><animate attributeName="stroke-dashoffset" from="150" to="0" dur="1.8s" begin="0.0s" fill="freeze" /></path><path d="M39.25,36.72c0.08,1.2,0.14,4.11-0.17,5.85C36.63,56.62,29.55,76.54,12,87" class="stroke" stroke-dasharray="150"><set attributeName="opacity" to="0" dur="1.7s" /><animate attributeName="stroke-dashoffset" from="150" to="0" dur="1.8s" begin="1.7s" fill="freeze" /></path><path d="M10.5,47.25c0.72,1.19,1.67,2.04,3.58,1.75c2.06-0.31,20.4-5.47,28.92-8.48" class="stroke" stroke-dasharray="150"><set attributeName="opacity" to="0" dur="3.0999999999999996s" /><animate attributeName="stroke-dashoffset" from="150" to="0" dur="1.8s" begin="3.0999999999999996s" fill="freeze" /></path><path d="M49.61,16.93c1.33,0.47,2.27,0.69,4.12,0.38c10.5-1.73,17.77-3.57,28.92-4.82c6.23-0.7,4.15,2.08,0.04,6.32" class="stroke" stroke-dasharray="150"><set attributeName="opacity" to="0" dur="4.1s" /><animate attributeName="stroke-dashoffset" from="150" to="0" dur="1.8s" begin="4.1s" fill="freeze" /></path><path d="M67.23,17.51c0.72,0.38,1.14,1.73,1.29,2.5c0.14,0.77,0,17.06-0.14,21.88" class="stroke" stroke-dasharray="150"><set attributeName="opacity" to="0" dur="5.199999999999999s" /><animate attributeName="stroke-dashoffset" from="150" to="0" dur="1.8s" begin="5.199999999999999s" fill="freeze" /></path><path d="M68.88,31.01c4.67-0.58,8.48-1.08,15.53-2.23c1.13-0.19,1.43-0.19,2.14,0" class="stroke" stroke-dasharray="150"><set attributeName="opacity" to="0" dur="6.199999999999999s" /><animate attributeName="stroke-dashoffset" from="150" to="0" dur="1.8s" begin="6.199999999999999s" fill="freeze" /></path><path d="M55.25,28.98c0.03,0.53,0.06,1.37-0.06,2.14c-0.7,4.51-4.68,14.13-10.14,20.19" class="stroke" stroke-dasharray="150"><set attributeName="opacity" to="0" dur="7.1s" /><animate attributeName="stroke-dashoffset" from="150" to="0" dur="1.8s" begin="7.1s" fill="freeze" /></path><path d="M53.52,38.18c5.44,1.41,29.33,8.08,35.24,9.47c2.01,0.47,3.73,0.67,5.73,0.81" class="stroke" stroke-dasharray="150"><set attributeName="opacity" to="0" dur="8.1s" /><animate attributeName="stroke-dashoffset" from="150" to="0" dur="1.8s" begin="8.1s" fill="freeze" /></path><path d="M53.99,54.25c0.49,1,0.82,2,0.98,3c0.16,1,0.23,40.5,0.16,42.75" class="stroke" stroke-dasharray="150"><set attributeName="opacity" to="0" dur="9.2s" /><animate attributeName="stroke-dashoffset" from="150" to="0" dur="1.8s" begin="9.2s" fill="freeze" /></path><path d="M55.63,55.75c1.97-0.25,20.69-2.97,22.16-3.25c2.62-0.5,3.34,2.17,3.28,3.75c-0.16,4.25,0.01,13.75,0.01,34c0,13-4.3,6.5-5.94,4.25" class="stroke" stroke-dasharray="150"><set attributeName="opacity" to="0" dur="10.399999999999999s" /><animate attributeName="stroke-dashoffset" from="150" to="0" dur="1.8s" begin="10.399999999999999s" fill="freeze" /></path><path d="M55.31,67c4.35-0.6,8.2-1.16,12.55-1.69c1.17-0.14,2.32-0.28,3.45-0.41" class="stroke" stroke-dasharray="150"><set attributeName="opacity" to="0" dur="12.099999999999998s" /><animate attributeName="stroke-dashoffset" from="150" to="0" dur="1.8s" begin="12.099999999999998s" fill="freeze" /></path><path d="M55.14,78.3c4.13-0.42,8.25-0.99,12.37-1.5c1.19-0.15,2.39-0.29,3.57-0.43" class="stroke" stroke-dasharray="150"><set attributeName="opacity" to="0" dur="12.999999999999998s" /><animate attributeName="stroke-dashoffset" from="150" to="0" dur="1.8s" begin="12.999999999999998s" fill="freeze" /></path><text x="90" y="120" id="reset-kvg-05a7f-Kaisho">⟳</text><text x="70" y="120" id="pause-kvg-05a7f-Kaisho">◼</text><script type="text/javascript"><![CDATA[function RecurringTimer(e,t){var n,r,i=t;this.pause=function(){window.clearTimeout(n);i-=new Date-r};var s=function(){r=new Date;n=window.setTimeout(function(){i=t;s();e()},i)};this.clear=function(){window.clearTimeout(n);i=t;n=window.setTimeout(function(){i=t;s();e()},i)};this.resume=s;this.resume()}function invoketimer(){timer=new RecurringTimer(function(){svg.setCurrentTime(0)},14899.999999999998)}var svg=document.getElementById("kvg-05a7f-Kaisho");var pause=document.getElementById("pause-kvg-05a7f-Kaisho");var reset=document.getElementById("reset-kvg-05a7f-Kaisho");var timer;invoketimer();reset.onclick=function(){svg.setCurrentTime(0);timer.clear();svg.unpauseAnimations();pause.innerHTML = "◼";};pause.onclick=function(){if(svg.animationsPaused()){svg.unpauseAnimations();timer.resume();pause.innerHTML="◼"}else{svg.pauseAnimations();timer.pause();pause.innerHTML="▶"}}]]></script></svg>