<svg id="kvg-05b16" class="kanjivg" width="106" height="126" xmlns="http://www.w3.org/2000/svg" xmlns:xlink="http://www.w3.org/1999/xlink" xml:space="preserve" version="1.1" baseProfile="full"><defs><style type="text/css"><![CDATA[path.black{fill:none;stroke:black;stroke-width:5;stroke-linecap:round;stroke-linejoin:round;}path.grey{fill:none;stroke:#ddd;stroke-width:5;stroke-linecap:round;stroke-linejoin:round;}path.stroke{fill:none;stroke:black;stroke-width:5;stroke-linecap:round;stroke-linejoin:round;}rect{fill:none;stroke:#555;stroke-width:2;} text{font-size:16px;font-family:Segoe UI Symbol,Cambria Math,DejaVu Sans,Symbola,Quivira,STIX,Code2000;-webkit-touch-callout:none;cursor:pointer;-webkit-user-select:none;-khtml-user-select:none;-moz-user-select:none;-ms-user-select:none;user-select: none;}text:hover{color:#777;}#reset{font-weight:bold;}]]></style><marker id="markerStart" markerWidth="8" markerHeight="8" style="overflow:visible;"><circle cx="0" cy="0" r="1.5" style="stroke:none;fill:red;fill-opacity:0.5;"/></marker><marker id="markerEnd" style="overflow:visible;"><circle cx="0" cy="0" r="0.8" style="stroke:none;fill:blue;fill-opacity:0.5;"><animate attributeName="opacity" from="1" to="0" dur="3s" repeatCount="indefinite" /></circle></marker></defs><rect x="4" y="4" width="100" height="100" /><path d="M20.88,16.65c1.13,0.34,3.32,0.65,4.52,0.58c6.46-0.38,19.07-2.97,21.66-3.11c1.28-0.07,2.45,0.87,2.18,1.86c-0.67,2.45-2.04,6.7-3.1,12.14" class="grey" /><path d="M24.42,30.35c3.24-0.11,15.07-1.62,23.42-2.09" class="grey" /><path d="M25.15,17.5c0,1.69-0.25,4.8-0.27,6.39c-0.18,11.47-3.97,26.04-12.33,33.4" class="grey" /><path d="M26.09,40.23c0.15,0.48,0.65,1.58,0.7,1.95c0.37,2.69,1.52,9.35,2.04,14.44" class="grey" /><path d="M26.85,41.46C31,40.92,42.97,39.08,45.8,39c1.17-0.03,1.61,1.13,1.45,1.93c-0.64,3.18-2.22,7.06-2.85,11.13" class="grey" /><path d="M29.05,53.99c3.43-0.23,13.07-1.25,17.2-1.54" class="grey" /><path d="M69.5,9.59c1.26,0.92,1.88,0.92,1.88,3.05c0,2.14,0,3.96,0,6.77" class="grey" /><path d="M55.36,20.91c1.01,0.4,2.2,0.47,3.21,0.4c5.71-0.35,19.81-2.56,28.45-2.85c1.69-0.06,2.7,0.19,3.54,0.4" class="grey" /><path d="M60.08,23.26c2.99,3.26,4.35,6.59,4.62,8.73" class="grey" /><path d="M81,21.18c0.53,0.39,0.18,1.83,0.03,2.12c-1.53,2.95-3.47,7.98-4.53,9.67" class="grey" /><path d="M51.97,35.42c1.33,0.36,2.87,0.39,4.2,0.36c8.45-0.2,25-2.59,34.9-2.8c2.21-0.05,3.54,0.17,4.64,0.35" class="grey" /><path d="M55.33,45.81c0.97,0.27,2.76,0.34,3.73,0.27c12.36-0.89,16.8-2.2,28.26-2.77c1.62-0.08,2.59,0.13,3.4,0.27" class="grey" /><path d="M70.26,35.07c0.44,0.28,1.38,2.09,1.47,2.64c0.51,3.2-0.13,19.76-0.15,20.58" class="grey" /><path d="M49.69,58.37c0.44,1.03,0.24,2.35-0.22,3.59C47.44,67.41,44,73.5,38.42,80.73c-1.2,1.56-0.25,1.87,0.66,1.88c12.73,0.17,33.58,7.86,40.17,15.89" class="grey" /><path d="M68.88,63.43c0.12,0.84,0.21,2.89-0.25,4.11c-3.71,9.87-14.39,23.87-40.88,31.21" class="grey" /><path d="M15.38,71.18c2.12,0.57,4.39,0.96,5.41,0.87C42.25,70.25,70,68,90.5,67.75c1.7-0.02,4.62,0.35,6,1" class="grey" /><path d="M20.88,16.65c1.13,0.34,3.32,0.65,4.52,0.58c6.46-0.38,19.07-2.97,21.66-3.11c1.28-0.07,2.45,0.87,2.18,1.86c-0.67,2.45-2.04,6.7-3.1,12.14" class="stroke" stroke-dasharray="150"><animate attributeName="stroke-dashoffset" from="150" to="0" dur="1.8s" begin="0.0s" fill="freeze" /></path><path d="M24.42,30.35c3.24-0.11,15.07-1.62,23.42-2.09" class="stroke" stroke-dasharray="150"><set attributeName="opacity" to="0" dur="1.1s" /><animate attributeName="stroke-dashoffset" from="150" to="0" dur="1.8s" begin="1.1s" fill="freeze" /></path><path d="M25.15,17.5c0,1.69-0.25,4.8-0.27,6.39c-0.18,11.47-3.97,26.04-12.33,33.4" class="stroke" stroke-dasharray="150"><set attributeName="opacity" to="0" dur="2.1s" /><animate attributeName="stroke-dashoffset" from="150" to="0" dur="1.8s" begin="2.1s" fill="freeze" /></path><path d="M26.09,40.23c0.15,0.48,0.65,1.58,0.7,1.95c0.37,2.69,1.52,9.35,2.04,14.44" class="stroke" stroke-dasharray="150"><set attributeName="opacity" to="0" dur="3.2s" /><animate attributeName="stroke-dashoffset" from="150" to="0" dur="1.8s" begin="3.2s" fill="freeze" /></path><path d="M26.85,41.46C31,40.92,42.97,39.08,45.8,39c1.17-0.03,1.61,1.13,1.45,1.93c-0.64,3.18-2.22,7.06-2.85,11.13" class="stroke" stroke-dasharray="150"><set attributeName="opacity" to="0" dur="4.1000000000000005s" /><animate attributeName="stroke-dashoffset" from="150" to="0" dur="1.8s" begin="4.1000000000000005s" fill="freeze" /></path><path d="M29.05,53.99c3.43-0.23,13.07-1.25,17.2-1.54" class="stroke" stroke-dasharray="150"><set attributeName="opacity" to="0" dur="5.1000000000000005s" /><animate attributeName="stroke-dashoffset" from="150" to="0" dur="1.8s" begin="5.1000000000000005s" fill="freeze" /></path><path d="M69.5,9.59c1.26,0.92,1.88,0.92,1.88,3.05c0,2.14,0,3.96,0,6.77" class="stroke" stroke-dasharray="150"><set attributeName="opacity" to="0" dur="6.000000000000001s" /><animate attributeName="stroke-dashoffset" from="150" to="0" dur="1.8s" begin="6.000000000000001s" fill="freeze" /></path><path d="M55.36,20.91c1.01,0.4,2.2,0.47,3.21,0.4c5.71-0.35,19.81-2.56,28.45-2.85c1.69-0.06,2.7,0.19,3.54,0.4" class="stroke" stroke-dasharray="150"><set attributeName="opacity" to="0" dur="6.900000000000001s" /><animate attributeName="stroke-dashoffset" from="150" to="0" dur="1.8s" begin="6.900000000000001s" fill="freeze" /></path><path d="M60.08,23.26c2.99,3.26,4.35,6.59,4.62,8.73" class="stroke" stroke-dasharray="150"><set attributeName="opacity" to="0" dur="7.900000000000001s" /><animate attributeName="stroke-dashoffset" from="150" to="0" dur="1.8s" begin="7.900000000000001s" fill="freeze" /></path><path d="M81,21.18c0.53,0.39,0.18,1.83,0.03,2.12c-1.53,2.95-3.47,7.98-4.53,9.67" class="stroke" stroke-dasharray="150"><set attributeName="opacity" to="0" dur="8.8s" /><animate attributeName="stroke-dashoffset" from="150" to="0" dur="1.8s" begin="8.8s" fill="freeze" /></path><path d="M51.97,35.42c1.33,0.36,2.87,0.39,4.2,0.36c8.45-0.2,25-2.59,34.9-2.8c2.21-0.05,3.54,0.17,4.64,0.35" class="stroke" stroke-dasharray="150"><set attributeName="opacity" to="0" dur="9.700000000000001s" /><animate attributeName="stroke-dashoffset" from="150" to="0" dur="1.8s" begin="9.700000000000001s" fill="freeze" /></path><path d="M55.33,45.81c0.97,0.27,2.76,0.34,3.73,0.27c12.36-0.89,16.8-2.2,28.26-2.77c1.62-0.08,2.59,0.13,3.4,0.27" class="stroke" stroke-dasharray="150"><set attributeName="opacity" to="0" dur="10.8s" /><animate attributeName="stroke-dashoffset" from="150" to="0" dur="1.8s" begin="10.8s" fill="freeze" /></path><path d="M70.26,35.07c0.44,0.28,1.38,2.09,1.47,2.64c0.51,3.2-0.13,19.76-0.15,20.58" class="stroke" stroke-dasharray="150"><set attributeName="opacity" to="0" dur="11.8s" /><animate attributeName="stroke-dashoffset" from="150" to="0" dur="1.8s" begin="11.8s" fill="freeze" /></path><path d="M49.69,58.37c0.44,1.03,0.24,2.35-0.22,3.59C47.44,67.41,44,73.5,38.42,80.73c-1.2,1.56-0.25,1.87,0.66,1.88c12.73,0.17,33.58,7.86,40.17,15.89" class="stroke" stroke-dasharray="150"><set attributeName="opacity" to="0" dur="12.8s" /><animate attributeName="stroke-dashoffset" from="150" to="0" dur="1.8s" begin="12.8s" fill="freeze" /></path><path d="M68.88,63.43c0.12,0.84,0.21,2.89-0.25,4.11c-3.71,9.87-14.39,23.87-40.88,31.21" class="stroke" stroke-dasharray="150"><set attributeName="opacity" to="0" dur="14.5s" /><animate attributeName="stroke-dashoffset" from="150" to="0" dur="1.8s" begin="14.5s" fill="freeze" /></path><path d="M15.38,71.18c2.12,0.57,4.39,0.96,5.41,0.87C42.25,70.25,70,68,90.5,67.75c1.7-0.02,4.62,0.35,6,1" class="stroke" stroke-dasharray="150"><set attributeName="opacity" to="0" dur="15.9s" /><animate attributeName="stroke-dashoffset" from="150" to="0" dur="1.8s" begin="15.9s" fill="freeze" /></path><text x="90" y="120" id="reset-kvg-05b16">⟳</text><text x="70" y="120" id="pause-kvg-05b16">◼</text><script type="text/javascript"><![CDATA[function RecurringTimer(e,t){var n,r,i=t;this.pause=function(){window.clearTimeout(n);i-=new Date-r};var s=function(){r=new Date;n=window.setTimeout(function(){i=t;s();e()},i)};this.clear=function(){window.clearTimeout(n);i=t;n=window.setTimeout(function(){i=t;s();e()},i)};this.resume=s;this.resume()}function invoketimer(){timer=new RecurringTimer(function(){svg.setCurrentTime(0)},18600.0)}var svg=document.getElementById("kvg-05b16");var pause=document.getElementById("pause-kvg-05b16");var reset=document.getElementById("reset-kvg-05b16");var timer;invoketimer();reset.onclick=function(){svg.setCurrentTime(0);timer.clear();svg.unpauseAnimations();pause.innerHTML = "◼";};pause.onclick=function(){if(svg.animationsPaused()){svg.unpauseAnimations();timer.resume();pause.innerHTML="◼"}else{svg.pauseAnimations();timer.pause();pause.innerHTML="▶"}}]]></script></svg>