<svg id="kvg-05b70-Kaisho" class="kanjivg" width="106" height="126" xmlns="http://www.w3.org/2000/svg" xmlns:xlink="http://www.w3.org/1999/xlink" xml:space="preserve" version="1.1" baseProfile="full"><defs><style type="text/css"><![CDATA[path.black{fill:none;stroke:black;stroke-width:5;stroke-linecap:round;stroke-linejoin:round;}path.grey{fill:none;stroke:#ddd;stroke-width:5;stroke-linecap:round;stroke-linejoin:round;}path.stroke{fill:none;stroke:black;stroke-width:5;stroke-linecap:round;stroke-linejoin:round;}rect{fill:none;stroke:#555;stroke-width:2;} text{font-size:16px;font-family:Segoe UI Symbol,Cambria Math,DejaVu Sans,Symbola,Quivira,STIX,Code2000;-webkit-touch-callout:none;cursor:pointer;-webkit-user-select:none;-khtml-user-select:none;-moz-user-select:none;-ms-user-select:none;user-select: none;}text:hover{color:#777;}#reset{font-weight:bold;}]]></style><marker id="markerStart" markerWidth="8" markerHeight="8" style="overflow:visible;"><circle cx="0" cy="0" r="1.5" style="stroke:none;fill:red;fill-opacity:0.5;"/></marker><marker id="markerEnd" style="overflow:visible;"><circle cx="0" cy="0" r="0.8" style="stroke:none;fill:blue;fill-opacity:0.5;"><animate attributeName="opacity" from="1" to="0" dur="3s" repeatCount="indefinite" /></circle></marker></defs><rect x="4" y="4" width="100" height="100" /><path d="M28.71,11.5c2.57,1.02,6.35,4.99,6.8,6.96" class="grey" /><path d="M11.37,24.87c0.85,0.06,2.8,0.41,3.63,0.33c6.7-0.69,25.57-3.24,35.13-3.72c1.41-0.07,2.13,0.03,3.17,0.42" class="grey" /><path d="M19.3,33.2c0.28,0.26,0.57,0.48,0.7,0.8c0.98,2.57,2,7.79,2.67,12.41" class="grey" /><path d="M21.07,34.09c6.94-1.08,19.2-2.87,22.78-3.24c1.31-0.13,2.09,1.34,1.91,2.12c-0.78,3.24-0.98,5.15-2.64,9.82" class="grey" /><path d="M23.46,45.72c4.2-0.41,15.63-2.1,20.96-2.52" class="grey" /><path d="M17.87,54.24c0.96,0.19,2.76,0.5,4.2,0.33c1.75-0.21,20.73-3.42,22.4-3.42c1.67,0,2.55,1.05,0.88,2.21c-1.67,1.16-6.67,5.62-12.83,10.12" class="grey" /><path d="M31.95,63.08c4.12,3.61,7.88,17.38,2.71,27.96c-3.06,6.26-5.82,1.05-7.3,0.53" class="grey" /><path d="M14.5,78c1.28,0.68,3.06,0.91,5.25,0c9-3.75,18.75-8.5,30-13.63" class="grey" /><path d="M69.02,13.88c0.58,0.69,1.39,2.16,1.36,3.41C69.5,51,60.25,78.75,43.88,94.25" class="grey" /><path d="M53.75,37.85c0.74,0.82,3.52,0.27,4.45,0c0.93-0.27,23.74-6.53,24.57-6.59c1.85-0.14,3.71,1.04,3.15,4.11c-0.83,4.52-5.48,27.69-6.33,38.88c-0.79,10.4,0.91,19.17,8.22,19.17c11.44,0,8.93-1.9,8.93-9.27" class="grey" /><path d="M54,57.5c6.02,2.2,15.55,9.05,17.06,12.47" class="grey" /><path d="M28.71,11.5c2.57,1.02,6.35,4.99,6.8,6.96" class="stroke" stroke-dasharray="150"><animate attributeName="stroke-dashoffset" from="150" to="0" dur="1.8s" begin="0.0s" fill="freeze" /></path><path d="M11.37,24.87c0.85,0.06,2.8,0.41,3.63,0.33c6.7-0.69,25.57-3.24,35.13-3.72c1.41-0.07,2.13,0.03,3.17,0.42" class="stroke" stroke-dasharray="150"><set attributeName="opacity" to="0" dur="0.9s" /><animate attributeName="stroke-dashoffset" from="150" to="0" dur="1.8s" begin="0.9s" fill="freeze" /></path><path d="M19.3,33.2c0.28,0.26,0.57,0.48,0.7,0.8c0.98,2.57,2,7.79,2.67,12.41" class="stroke" stroke-dasharray="150"><set attributeName="opacity" to="0" dur="2.0s" /><animate attributeName="stroke-dashoffset" from="150" to="0" dur="1.8s" begin="2.0s" fill="freeze" /></path><path d="M21.07,34.09c6.94-1.08,19.2-2.87,22.78-3.24c1.31-0.13,2.09,1.34,1.91,2.12c-0.78,3.24-0.98,5.15-2.64,9.82" class="stroke" stroke-dasharray="150"><set attributeName="opacity" to="0" dur="2.9s" /><animate attributeName="stroke-dashoffset" from="150" to="0" dur="1.8s" begin="2.9s" fill="freeze" /></path><path d="M23.46,45.72c4.2-0.41,15.63-2.1,20.96-2.52" class="stroke" stroke-dasharray="150"><set attributeName="opacity" to="0" dur="3.9s" /><animate attributeName="stroke-dashoffset" from="150" to="0" dur="1.8s" begin="3.9s" fill="freeze" /></path><path d="M17.87,54.24c0.96,0.19,2.76,0.5,4.2,0.33c1.75-0.21,20.73-3.42,22.4-3.42c1.67,0,2.55,1.05,0.88,2.21c-1.67,1.16-6.67,5.62-12.83,10.12" class="stroke" stroke-dasharray="150"><set attributeName="opacity" to="0" dur="4.9s" /><animate attributeName="stroke-dashoffset" from="150" to="0" dur="1.8s" begin="4.9s" fill="freeze" /></path><path d="M31.95,63.08c4.12,3.61,7.88,17.38,2.71,27.96c-3.06,6.26-5.82,1.05-7.3,0.53" class="stroke" stroke-dasharray="150"><set attributeName="opacity" to="0" dur="6.1000000000000005s" /><animate attributeName="stroke-dashoffset" from="150" to="0" dur="1.8s" begin="6.1000000000000005s" fill="freeze" /></path><path d="M14.5,78c1.28,0.68,3.06,0.91,5.25,0c9-3.75,18.75-8.5,30-13.63" class="stroke" stroke-dasharray="150"><set attributeName="opacity" to="0" dur="7.1000000000000005s" /><animate attributeName="stroke-dashoffset" from="150" to="0" dur="1.8s" begin="7.1000000000000005s" fill="freeze" /></path><path d="M69.02,13.88c0.58,0.69,1.39,2.16,1.36,3.41C69.5,51,60.25,78.75,43.88,94.25" class="stroke" stroke-dasharray="150"><set attributeName="opacity" to="0" dur="8.100000000000001s" /><animate attributeName="stroke-dashoffset" from="150" to="0" dur="1.8s" begin="8.100000000000001s" fill="freeze" /></path><path d="M53.75,37.85c0.74,0.82,3.52,0.27,4.45,0c0.93-0.27,23.74-6.53,24.57-6.59c1.85-0.14,3.71,1.04,3.15,4.11c-0.83,4.52-5.48,27.69-6.33,38.88c-0.79,10.4,0.91,19.17,8.22,19.17c11.44,0,8.93-1.9,8.93-9.27" class="stroke" stroke-dasharray="150"><set attributeName="opacity" to="0" dur="9.8s" /><animate attributeName="stroke-dashoffset" from="150" to="0" dur="1.8s" begin="9.8s" fill="freeze" /></path><path d="M54,57.5c6.02,2.2,15.55,9.05,17.06,12.47" class="stroke" stroke-dasharray="150"><set attributeName="opacity" to="0" dur="11.8s" /><animate attributeName="stroke-dashoffset" from="150" to="0" dur="1.8s" begin="11.8s" fill="freeze" /></path><text x="90" y="120" id="reset-kvg-05b70-Kaisho">⟳</text><text x="70" y="120" id="pause-kvg-05b70-Kaisho">◼</text><script type="text/javascript"><![CDATA[function RecurringTimer(e,t){var n,r,i=t;this.pause=function(){window.clearTimeout(n);i-=new Date-r};var s=function(){r=new Date;n=window.setTimeout(function(){i=t;s();e()},i)};this.clear=function(){window.clearTimeout(n);i=t;n=window.setTimeout(function(){i=t;s();e()},i)};this.resume=s;this.resume()}function invoketimer(){timer=new RecurringTimer(function(){svg.setCurrentTime(0)},13800.0)}var svg=document.getElementById("kvg-05b70-Kaisho");var pause=document.getElementById("pause-kvg-05b70-Kaisho");var reset=document.getElementById("reset-kvg-05b70-Kaisho");var timer;invoketimer();reset.onclick=function(){svg.setCurrentTime(0);timer.clear();svg.unpauseAnimations();pause.innerHTML = "◼";};pause.onclick=function(){if(svg.animationsPaused()){svg.unpauseAnimations();timer.resume();pause.innerHTML="◼"}else{svg.pauseAnimations();timer.pause();pause.innerHTML="▶"}}]]></script></svg>