<svg id="kvg-05bb6-Kaisho" class="kanjivg" width="106" height="126" xmlns="http://www.w3.org/2000/svg" xmlns:xlink="http://www.w3.org/1999/xlink" xml:space="preserve" version="1.1" baseProfile="full"><defs><style type="text/css"><![CDATA[path.black{fill:none;stroke:black;stroke-width:5;stroke-linecap:round;stroke-linejoin:round;}path.grey{fill:none;stroke:#ddd;stroke-width:5;stroke-linecap:round;stroke-linejoin:round;}path.stroke{fill:none;stroke:black;stroke-width:5;stroke-linecap:round;stroke-linejoin:round;}rect{fill:none;stroke:#555;stroke-width:2;} text{font-size:16px;font-family:Segoe UI Symbol,Cambria Math,DejaVu Sans,Symbola,Quivira,STIX,Code2000;-webkit-touch-callout:none;cursor:pointer;-webkit-user-select:none;-khtml-user-select:none;-moz-user-select:none;-ms-user-select:none;user-select: none;}text:hover{color:#777;}#reset{font-weight:bold;}]]></style><marker id="markerStart" markerWidth="8" markerHeight="8" style="overflow:visible;"><circle cx="0" cy="0" r="1.5" style="stroke:none;fill:red;fill-opacity:0.5;"/></marker><marker id="markerEnd" style="overflow:visible;"><circle cx="0" cy="0" r="0.8" style="stroke:none;fill:blue;fill-opacity:0.5;"><animate attributeName="opacity" from="1" to="0" dur="3s" repeatCount="indefinite" /></circle></marker></defs><rect x="4" y="4" width="100" height="100" /><path d="M49.41,10.75c3.35,1.24,6.96,5.44,8.05,8.86" class="grey" /><path d="M27.34,23.03c0,3.73-2.77,13.98-4.03,16.47" class="grey" /><path d="M28.32,27c1.17,0.08,45.56-5.46,51.49-5.8c12.19-0.7,1.14,7.87-0.34,8.63" class="grey" /><path d="M33.01,40.73c1.19,0.4,3.38,0.59,4.55,0.4c8.44-1.38,21.69-3.88,26.76-4.34c1.97-0.18,2.94-0.04,4.15-0.11" class="grey" /><path d="M46.57,48.21c9.4,4.46,16.46,26.51,8.42,44.26c-2.73,6.03-8.12,0.9-9.3,0.05" class="grey" /><path d="M51.76,40.5c0.07,0.47,0.15,1.22-0.14,1.89C49.9,46.38,40.02,55.14,26.5,60.5" class="grey" /><path d="M50.26,54.62c0.07,0.44,0.15,1.13-0.14,1.76c-1.67,3.72-11.26,11.87-24.38,16.86" class="grey" /><path d="M54,63.5c0.09,0.56,0.19,1.46-0.18,2.27c-2.2,4.79-14.81,16.3-32.07,22.73" class="grey" /><path d="M76.8,45.3c0.05,0.36,0.11,0.92-0.11,1.43c-1.3,3.01-8.76,9.62-18.97,13.67" class="grey" /><path d="M58.79,62.82c4.45,3.39,23.95,19.41,28.78,22.75c1.64,1.13,3.04,1.61,4.68,1.94" class="grey" /><path d="M49.41,10.75c3.35,1.24,6.96,5.44,8.05,8.86" class="stroke" stroke-dasharray="150"><animate attributeName="stroke-dashoffset" from="150" to="0" dur="1.8s" begin="0.0s" fill="freeze" /></path><path d="M27.34,23.03c0,3.73-2.77,13.98-4.03,16.47" class="stroke" stroke-dasharray="150"><set attributeName="opacity" to="0" dur="0.9s" /><animate attributeName="stroke-dashoffset" from="150" to="0" dur="1.8s" begin="0.9s" fill="freeze" /></path><path d="M28.32,27c1.17,0.08,45.56-5.46,51.49-5.8c12.19-0.7,1.14,7.87-0.34,8.63" class="stroke" stroke-dasharray="150"><set attributeName="opacity" to="0" dur="1.8s" /><animate attributeName="stroke-dashoffset" from="150" to="0" dur="1.8s" begin="1.8s" fill="freeze" /></path><path d="M33.01,40.73c1.19,0.4,3.38,0.59,4.55,0.4c8.44-1.38,21.69-3.88,26.76-4.34c1.97-0.18,2.94-0.04,4.15-0.11" class="stroke" stroke-dasharray="150"><set attributeName="opacity" to="0" dur="3.3s" /><animate attributeName="stroke-dashoffset" from="150" to="0" dur="1.8s" begin="3.3s" fill="freeze" /></path><path d="M46.57,48.21c9.4,4.46,16.46,26.51,8.42,44.26c-2.73,6.03-8.12,0.9-9.3,0.05" class="stroke" stroke-dasharray="150"><set attributeName="opacity" to="0" dur="4.3s" /><animate attributeName="stroke-dashoffset" from="150" to="0" dur="1.8s" begin="4.3s" fill="freeze" /></path><path d="M51.76,40.5c0.07,0.47,0.15,1.22-0.14,1.89C49.9,46.38,40.02,55.14,26.5,60.5" class="stroke" stroke-dasharray="150"><set attributeName="opacity" to="0" dur="5.699999999999999s" /><animate attributeName="stroke-dashoffset" from="150" to="0" dur="1.8s" begin="5.699999999999999s" fill="freeze" /></path><path d="M50.26,54.62c0.07,0.44,0.15,1.13-0.14,1.76c-1.67,3.72-11.26,11.87-24.38,16.86" class="stroke" stroke-dasharray="150"><set attributeName="opacity" to="0" dur="6.699999999999999s" /><animate attributeName="stroke-dashoffset" from="150" to="0" dur="1.8s" begin="6.699999999999999s" fill="freeze" /></path><path d="M54,63.5c0.09,0.56,0.19,1.46-0.18,2.27c-2.2,4.79-14.81,16.3-32.07,22.73" class="stroke" stroke-dasharray="150"><set attributeName="opacity" to="0" dur="7.699999999999999s" /><animate attributeName="stroke-dashoffset" from="150" to="0" dur="1.8s" begin="7.699999999999999s" fill="freeze" /></path><path d="M76.8,45.3c0.05,0.36,0.11,0.92-0.11,1.43c-1.3,3.01-8.76,9.62-18.97,13.67" class="stroke" stroke-dasharray="150"><set attributeName="opacity" to="0" dur="8.799999999999999s" /><animate attributeName="stroke-dashoffset" from="150" to="0" dur="1.8s" begin="8.799999999999999s" fill="freeze" /></path><path d="M58.79,62.82c4.45,3.39,23.95,19.41,28.78,22.75c1.64,1.13,3.04,1.61,4.68,1.94" class="stroke" stroke-dasharray="150"><set attributeName="opacity" to="0" dur="9.799999999999999s" /><animate attributeName="stroke-dashoffset" from="150" to="0" dur="1.8s" begin="9.799999999999999s" fill="freeze" /></path><text x="90" y="120" id="reset-kvg-05bb6-Kaisho">⟳</text><text x="70" y="120" id="pause-kvg-05bb6-Kaisho">◼</text><script type="text/javascript"><![CDATA[function RecurringTimer(e,t){var n,r,i=t;this.pause=function(){window.clearTimeout(n);i-=new Date-r};var s=function(){r=new Date;n=window.setTimeout(function(){i=t;s();e()},i)};this.clear=function(){window.clearTimeout(n);i=t;n=window.setTimeout(function(){i=t;s();e()},i)};this.resume=s;this.resume()}function invoketimer(){timer=new RecurringTimer(function(){svg.setCurrentTime(0)},11899.999999999998)}var svg=document.getElementById("kvg-05bb6-Kaisho");var pause=document.getElementById("pause-kvg-05bb6-Kaisho");var reset=document.getElementById("reset-kvg-05bb6-Kaisho");var timer;invoketimer();reset.onclick=function(){svg.setCurrentTime(0);timer.clear();svg.unpauseAnimations();pause.innerHTML = "◼";};pause.onclick=function(){if(svg.animationsPaused()){svg.unpauseAnimations();timer.resume();pause.innerHTML="◼"}else{svg.pauseAnimations();timer.pause();pause.innerHTML="▶"}}]]></script></svg>