<svg id="kvg-05bc6-KaishoTen3" class="kanjivg" width="106" height="126" xmlns="http://www.w3.org/2000/svg" xmlns:xlink="http://www.w3.org/1999/xlink" xml:space="preserve" version="1.1" baseProfile="full"><defs><style type="text/css"><![CDATA[path.black{fill:none;stroke:black;stroke-width:5;stroke-linecap:round;stroke-linejoin:round;}path.grey{fill:none;stroke:#ddd;stroke-width:5;stroke-linecap:round;stroke-linejoin:round;}path.stroke{fill:none;stroke:black;stroke-width:5;stroke-linecap:round;stroke-linejoin:round;}rect{fill:none;stroke:#555;stroke-width:2;} text{font-size:16px;font-family:Segoe UI Symbol,Cambria Math,DejaVu Sans,Symbola,Quivira,STIX,Code2000;-webkit-touch-callout:none;cursor:pointer;-webkit-user-select:none;-khtml-user-select:none;-moz-user-select:none;-ms-user-select:none;user-select: none;}text:hover{color:#777;}#reset{font-weight:bold;}]]></style><marker id="markerStart" markerWidth="8" markerHeight="8" style="overflow:visible;"><circle cx="0" cy="0" r="1.5" style="stroke:none;fill:red;fill-opacity:0.5;"/></marker><marker id="markerEnd" style="overflow:visible;"><circle cx="0" cy="0" r="0.8" style="stroke:none;fill:blue;fill-opacity:0.5;"><animate attributeName="opacity" from="1" to="0" dur="3s" repeatCount="indefinite" /></circle></marker></defs><rect x="4" y="4" width="100" height="100" /><path d="M49.21,9.04c3.52,2.06,7.39,6.29,8.88,10.33" class="grey" /><path d="M22.62,24.1c0,3.5-3.01,13.25-4.38,15.63" class="grey" /><path d="M24.44,27.63c9.45-1.38,53.88-6,61.55-6.69c11.98-1.08,2.54,7.1-0.44,9.35" class="grey" /><path d="M67.3,31.31c0.11,0.84,0.13,2.15-0.21,3.38C64.25,44.75,44.3,63.55,22.25,71.75" class="grey" /><path d="M35.99,37.54C43.5,53,51.75,64,78.83,63.69c9.55-0.11,7.22-3.81,3.26-7.05" class="grey" /><path d="M47.44,34.09c1.43,2.44,5.19,7.88,6.08,4.44" class="grey" /><path d="M27.33,45.27c0.24,2.03-2.43,11-4.38,14.38" class="grey" /><path d="M76.19,39.95c4.51,1.98,9.87,6.05,11.56,9.91" class="grey" /><path d="M53.3,67.5c0.61,0.36,1.9,2.7,2.03,3.43C55.45,71.65,55,84.4,55,93" class="grey" /><path d="M29.81,78.04c0.61,0.36,1.31,1.89,1.22,2.62c-0.4,3.22-1.38,6.29-3.02,12.85c-0.4,1.61-0.18,3.68,1.21,3.02c3.43-1.61,45.65-5.44,53.31-5.64" class="grey" /><path d="M83.23,75.4c0.61,0.36,1.32,2.7,1.22,3.43c-0.61,4.43-0.71,9.03-1.72,17.3" class="grey" /><path d="M49.21,9.04c3.52,2.06,7.39,6.29,8.88,10.33" class="stroke" stroke-dasharray="150"><animate attributeName="stroke-dashoffset" from="150" to="0" dur="1.8s" begin="0.0s" fill="freeze" /></path><path d="M22.62,24.1c0,3.5-3.01,13.25-4.38,15.63" class="stroke" stroke-dasharray="150"><set attributeName="opacity" to="0" dur="0.9s" /><animate attributeName="stroke-dashoffset" from="150" to="0" dur="1.8s" begin="0.9s" fill="freeze" /></path><path d="M24.44,27.63c9.45-1.38,53.88-6,61.55-6.69c11.98-1.08,2.54,7.1-0.44,9.35" class="stroke" stroke-dasharray="150"><set attributeName="opacity" to="0" dur="1.8s" /><animate attributeName="stroke-dashoffset" from="150" to="0" dur="1.8s" begin="1.8s" fill="freeze" /></path><path d="M67.3,31.31c0.11,0.84,0.13,2.15-0.21,3.38C64.25,44.75,44.3,63.55,22.25,71.75" class="stroke" stroke-dasharray="150"><set attributeName="opacity" to="0" dur="3.5s" /><animate attributeName="stroke-dashoffset" from="150" to="0" dur="1.8s" begin="3.5s" fill="freeze" /></path><path d="M35.99,37.54C43.5,53,51.75,64,78.83,63.69c9.55-0.11,7.22-3.81,3.26-7.05" class="stroke" stroke-dasharray="150"><set attributeName="opacity" to="0" dur="5.0s" /><animate attributeName="stroke-dashoffset" from="150" to="0" dur="1.8s" begin="5.0s" fill="freeze" /></path><path d="M47.44,34.09c1.43,2.44,5.19,7.88,6.08,4.44" class="stroke" stroke-dasharray="150"><set attributeName="opacity" to="0" dur="6.5s" /><animate attributeName="stroke-dashoffset" from="150" to="0" dur="1.8s" begin="6.5s" fill="freeze" /></path><path d="M27.33,45.27c0.24,2.03-2.43,11-4.38,14.38" class="stroke" stroke-dasharray="150"><set attributeName="opacity" to="0" dur="7.4s" /><animate attributeName="stroke-dashoffset" from="150" to="0" dur="1.8s" begin="7.4s" fill="freeze" /></path><path d="M76.19,39.95c4.51,1.98,9.87,6.05,11.56,9.91" class="stroke" stroke-dasharray="150"><set attributeName="opacity" to="0" dur="8.3s" /><animate attributeName="stroke-dashoffset" from="150" to="0" dur="1.8s" begin="8.3s" fill="freeze" /></path><path d="M53.3,67.5c0.61,0.36,1.9,2.7,2.03,3.43C55.45,71.65,55,84.4,55,93" class="stroke" stroke-dasharray="150"><set attributeName="opacity" to="0" dur="9.200000000000001s" /><animate attributeName="stroke-dashoffset" from="150" to="0" dur="1.8s" begin="9.200000000000001s" fill="freeze" /></path><path d="M29.81,78.04c0.61,0.36,1.31,1.89,1.22,2.62c-0.4,3.22-1.38,6.29-3.02,12.85c-0.4,1.61-0.18,3.68,1.21,3.02c3.43-1.61,45.65-5.44,53.31-5.64" class="stroke" stroke-dasharray="150"><set attributeName="opacity" to="0" dur="10.200000000000001s" /><animate attributeName="stroke-dashoffset" from="150" to="0" dur="1.8s" begin="10.200000000000001s" fill="freeze" /></path><path d="M83.23,75.4c0.61,0.36,1.32,2.7,1.22,3.43c-0.61,4.43-0.71,9.03-1.72,17.3" class="stroke" stroke-dasharray="150"><set attributeName="opacity" to="0" dur="11.9s" /><animate attributeName="stroke-dashoffset" from="150" to="0" dur="1.8s" begin="11.9s" fill="freeze" /></path><text x="90" y="120" id="reset-kvg-05bc6-KaishoTen3">⟳</text><text x="70" y="120" id="pause-kvg-05bc6-KaishoTen3">◼</text><script type="text/javascript"><![CDATA[function RecurringTimer(e,t){var n,r,i=t;this.pause=function(){window.clearTimeout(n);i-=new Date-r};var s=function(){r=new Date;n=window.setTimeout(function(){i=t;s();e()},i)};this.clear=function(){window.clearTimeout(n);i=t;n=window.setTimeout(function(){i=t;s();e()},i)};this.resume=s;this.resume()}function invoketimer(){timer=new RecurringTimer(function(){svg.setCurrentTime(0)},13900.0)}var svg=document.getElementById("kvg-05bc6-KaishoTen3");var pause=document.getElementById("pause-kvg-05bc6-KaishoTen3");var reset=document.getElementById("reset-kvg-05bc6-KaishoTen3");var timer;invoketimer();reset.onclick=function(){svg.setCurrentTime(0);timer.clear();svg.unpauseAnimations();pause.innerHTML = "◼";};pause.onclick=function(){if(svg.animationsPaused()){svg.unpauseAnimations();timer.resume();pause.innerHTML="◼"}else{svg.pauseAnimations();timer.pause();pause.innerHTML="▶"}}]]></script></svg>