<svg id="kvg-05bcc-Kaisho" class="kanjivg" width="106" height="126" xmlns="http://www.w3.org/2000/svg" xmlns:xlink="http://www.w3.org/1999/xlink" xml:space="preserve" version="1.1" baseProfile="full"><defs><style type="text/css"><![CDATA[path.black{fill:none;stroke:black;stroke-width:5;stroke-linecap:round;stroke-linejoin:round;}path.grey{fill:none;stroke:#ddd;stroke-width:5;stroke-linecap:round;stroke-linejoin:round;}path.stroke{fill:none;stroke:black;stroke-width:5;stroke-linecap:round;stroke-linejoin:round;}rect{fill:none;stroke:#555;stroke-width:2;} text{font-size:16px;font-family:Segoe UI Symbol,Cambria Math,DejaVu Sans,Symbola,Quivira,STIX,Code2000;-webkit-touch-callout:none;cursor:pointer;-webkit-user-select:none;-khtml-user-select:none;-moz-user-select:none;-ms-user-select:none;user-select: none;}text:hover{color:#777;}#reset{font-weight:bold;}]]></style><marker id="markerStart" markerWidth="8" markerHeight="8" style="overflow:visible;"><circle cx="0" cy="0" r="1.5" style="stroke:none;fill:red;fill-opacity:0.5;"/></marker><marker id="markerEnd" style="overflow:visible;"><circle cx="0" cy="0" r="0.8" style="stroke:none;fill:blue;fill-opacity:0.5;"><animate attributeName="opacity" from="1" to="0" dur="3s" repeatCount="indefinite" /></circle></marker></defs><rect x="4" y="4" width="100" height="100" /><path d="M49.05,10.94c2.75,1.66,7.06,5.13,8.43,8.36" class="grey" /><path d="M22.1,23.84c0,3.73-3.85,13.98-5.6,16.47" class="grey" /><path d="M23.04,27.06c8.83-0.87,55.41-5,62.58-5.3c12.38-0.51,2.87,7.28,0.08,9.13" class="grey" /><path d="M35.5,36.06c0.74,0.3,2.1,0.38,2.84,0.3c4.73-0.52,26.98-3.42,31.56-3.07c1.23,0.09,1.98,0.14,2.6,0.29" class="grey" /><path d="M37,45.64c0.37,0.25,0.74,0.45,0.9,0.76c1.27,2.44,2.3,9.18,3.17,13.56" class="grey" /><path d="M38.79,46.98c8.99-1.02,25.96-2.87,30.59-3.22c1.7-0.13,2.71,1.27,2.47,2.02c-1,3.07-2.15,5.22-4.3,9.66" class="grey" /><path d="M41.44,58.35c5.45-0.39,21.89-2.14,28.81-2.53" class="grey" /><path d="M29.38,69.06c0.36,0.49,0.36,0.82,0.56,1.43c1.59,5.01,3.02,18.02,3.96,27.25" class="grey" /><path d="M31.06,69.82c12.64-0.51,34.31-2.36,43.74-2.85c3.47-0.18,5.2,1.28,5.04,4.11c-0.27,4.96-2.6,15.66-4.69,26.4" class="grey" /><path d="M52.8,70.18c0.95,0.32,1.45,1.76,1.45,3.82c0.02,6.75,0.23,18.59,0.23,20.46" class="grey" /><path d="M33.32,82.67c9.81-0.56,19.64-0.85,29.46-1.23c1.18-0.04,2.33-0.09,3.42-0.13" class="grey" /><path d="M34.56,95.95c9.1,0,28.14-1.12,40.71-1.25" class="grey" /><path d="M49.05,10.94c2.75,1.66,7.06,5.13,8.43,8.36" class="stroke" stroke-dasharray="150"><animate attributeName="stroke-dashoffset" from="150" to="0" dur="1.8s" begin="0.0s" fill="freeze" /></path><path d="M22.1,23.84c0,3.73-3.85,13.98-5.6,16.47" class="stroke" stroke-dasharray="150"><set attributeName="opacity" to="0" dur="0.9s" /><animate attributeName="stroke-dashoffset" from="150" to="0" dur="1.8s" begin="0.9s" fill="freeze" /></path><path d="M23.04,27.06c8.83-0.87,55.41-5,62.58-5.3c12.38-0.51,2.87,7.28,0.08,9.13" class="stroke" stroke-dasharray="150"><set attributeName="opacity" to="0" dur="1.8s" /><animate attributeName="stroke-dashoffset" from="150" to="0" dur="1.8s" begin="1.8s" fill="freeze" /></path><path d="M35.5,36.06c0.74,0.3,2.1,0.38,2.84,0.3c4.73-0.52,26.98-3.42,31.56-3.07c1.23,0.09,1.98,0.14,2.6,0.29" class="stroke" stroke-dasharray="150"><set attributeName="opacity" to="0" dur="3.5s" /><animate attributeName="stroke-dashoffset" from="150" to="0" dur="1.8s" begin="3.5s" fill="freeze" /></path><path d="M37,45.64c0.37,0.25,0.74,0.45,0.9,0.76c1.27,2.44,2.3,9.18,3.17,13.56" class="stroke" stroke-dasharray="150"><set attributeName="opacity" to="0" dur="4.5s" /><animate attributeName="stroke-dashoffset" from="150" to="0" dur="1.8s" begin="4.5s" fill="freeze" /></path><path d="M38.79,46.98c8.99-1.02,25.96-2.87,30.59-3.22c1.7-0.13,2.71,1.27,2.47,2.02c-1,3.07-2.15,5.22-4.3,9.66" class="stroke" stroke-dasharray="150"><set attributeName="opacity" to="0" dur="5.4s" /><animate attributeName="stroke-dashoffset" from="150" to="0" dur="1.8s" begin="5.4s" fill="freeze" /></path><path d="M41.44,58.35c5.45-0.39,21.89-2.14,28.81-2.53" class="stroke" stroke-dasharray="150"><set attributeName="opacity" to="0" dur="6.5s" /><animate attributeName="stroke-dashoffset" from="150" to="0" dur="1.8s" begin="6.5s" fill="freeze" /></path><path d="M29.38,69.06c0.36,0.49,0.36,0.82,0.56,1.43c1.59,5.01,3.02,18.02,3.96,27.25" class="stroke" stroke-dasharray="150"><set attributeName="opacity" to="0" dur="7.5s" /><animate attributeName="stroke-dashoffset" from="150" to="0" dur="1.8s" begin="7.5s" fill="freeze" /></path><path d="M31.06,69.82c12.64-0.51,34.31-2.36,43.74-2.85c3.47-0.18,5.2,1.28,5.04,4.11c-0.27,4.96-2.6,15.66-4.69,26.4" class="stroke" stroke-dasharray="150"><set attributeName="opacity" to="0" dur="8.5s" /><animate attributeName="stroke-dashoffset" from="150" to="0" dur="1.8s" begin="8.5s" fill="freeze" /></path><path d="M52.8,70.18c0.95,0.32,1.45,1.76,1.45,3.82c0.02,6.75,0.23,18.59,0.23,20.46" class="stroke" stroke-dasharray="150"><set attributeName="opacity" to="0" dur="10.2s" /><animate attributeName="stroke-dashoffset" from="150" to="0" dur="1.8s" begin="10.2s" fill="freeze" /></path><path d="M33.32,82.67c9.81-0.56,19.64-0.85,29.46-1.23c1.18-0.04,2.33-0.09,3.42-0.13" class="stroke" stroke-dasharray="150"><set attributeName="opacity" to="0" dur="11.2s" /><animate attributeName="stroke-dashoffset" from="150" to="0" dur="1.8s" begin="11.2s" fill="freeze" /></path><path d="M34.56,95.95c9.1,0,28.14-1.12,40.71-1.25" class="stroke" stroke-dasharray="150"><set attributeName="opacity" to="0" dur="12.2s" /><animate attributeName="stroke-dashoffset" from="150" to="0" dur="1.8s" begin="12.2s" fill="freeze" /></path><text x="90" y="120" id="reset-kvg-05bcc-Kaisho">⟳</text><text x="70" y="120" id="pause-kvg-05bcc-Kaisho">◼</text><script type="text/javascript"><![CDATA[function RecurringTimer(e,t){var n,r,i=t;this.pause=function(){window.clearTimeout(n);i-=new Date-r};var s=function(){r=new Date;n=window.setTimeout(function(){i=t;s();e()},i)};this.clear=function(){window.clearTimeout(n);i=t;n=window.setTimeout(function(){i=t;s();e()},i)};this.resume=s;this.resume()}function invoketimer(){timer=new RecurringTimer(function(){svg.setCurrentTime(0)},14299.999999999998)}var svg=document.getElementById("kvg-05bcc-Kaisho");var pause=document.getElementById("pause-kvg-05bcc-Kaisho");var reset=document.getElementById("reset-kvg-05bcc-Kaisho");var timer;invoketimer();reset.onclick=function(){svg.setCurrentTime(0);timer.clear();svg.unpauseAnimations();pause.innerHTML = "◼";};pause.onclick=function(){if(svg.animationsPaused()){svg.unpauseAnimations();timer.resume();pause.innerHTML="◼"}else{svg.pauseAnimations();timer.pause();pause.innerHTML="▶"}}]]></script></svg>