<svg id="kvg-05be7" class="kanjivg" width="106" height="126" xmlns="http://www.w3.org/2000/svg" xmlns:xlink="http://www.w3.org/1999/xlink" xml:space="preserve" version="1.1" baseProfile="full"><defs><style type="text/css"><![CDATA[path.black{fill:none;stroke:black;stroke-width:5;stroke-linecap:round;stroke-linejoin:round;}path.grey{fill:none;stroke:#ddd;stroke-width:5;stroke-linecap:round;stroke-linejoin:round;}path.stroke{fill:none;stroke:black;stroke-width:5;stroke-linecap:round;stroke-linejoin:round;}rect{fill:none;stroke:#555;stroke-width:2;} text{font-size:16px;font-family:Segoe UI Symbol,Cambria Math,DejaVu Sans,Symbola,Quivira,STIX,Code2000;-webkit-touch-callout:none;cursor:pointer;-webkit-user-select:none;-khtml-user-select:none;-moz-user-select:none;-ms-user-select:none;user-select: none;}text:hover{color:#777;}#reset{font-weight:bold;}]]></style><marker id="markerStart" markerWidth="8" markerHeight="8" style="overflow:visible;"><circle cx="0" cy="0" r="1.5" style="stroke:none;fill:red;fill-opacity:0.5;"/></marker><marker id="markerEnd" style="overflow:visible;"><circle cx="0" cy="0" r="0.8" style="stroke:none;fill:blue;fill-opacity:0.5;"><animate attributeName="opacity" from="1" to="0" dur="3s" repeatCount="indefinite" /></circle></marker></defs><rect x="4" y="4" width="100" height="100" /><path d="M53.08,11.25c1.15,1.15,1.26,2.25,1.26,3.79c0,3.4-0.08,3.45-0.09,6.55" class="grey" /><path d="M24.12,22.25c0,3.42-4.55,13.97-6.05,16.25" class="grey" /><path d="M24.78,25.3c12.72-1.05,45.59-4.05,58.59-4.53c10.53-0.39,2.73,5.26,0.11,7.1" class="grey" /><path d="M30.87,33.5c0.16,1.7-1.61,9.19-2.9,12.01" class="grey" /><path d="M39.04,30.96C46,40.25,51.76,43.13,65.06,42.68c5.44-0.18,5.69-2.43,1.89-5.65" class="grey" /><path d="M51.05,29.37c1.3,3.14,3.18,6.28,4.57,1.47" class="grey" /><path d="M72.65,28.98c3.29,1.47,6.47,3.52,9.19,7.38" class="grey" /><path d="M28.56,50.53c0.63,0.56,1,1.27,1.12,2.12c0.73,2.23,1.69,5.58,2.43,8.96c0.24,1.1,0.44,2.17,0.58,3.14" class="grey" /><path d="M30.25,51.29c10.89-0.91,36.13-2.79,46.03-3.36c2.47-0.14,4.85,1.2,4.26,3.65c-0.51,2.12-2.32,6.25-2.47,6.62c-0.34,0.83-0.68,1.66-1,2.48" class="grey" /><path d="M44.82,51.59c0.48,0.48,0.59,1.15,0.67,1.86c0.34,2.96,0.79,5.92,0.91,7.49" class="grey" /><path d="M61.38,50.38c0.49,0.49,0.44,1.21,0.39,1.99c-0.16,2.54-0.44,5.97-0.58,7.02" class="grey" /><path d="M33.54,63.09C41,62.25,70,60.12,76.24,59.96" class="grey" /><path d="M21,73.51c2.7,0.81,6.25,0.56,9.01,0.32c13.22-1.14,35.68-3.64,50.75-4.44c3.14-0.17,5.91-0.11,8.99,0.44" class="grey" /><path d="M56.08,74.9c0.89,0.89,1.14,1.97,1.14,3.37c0,7.48,0.02,11.73,0.02,15.42c0,10.31-6.74,0.86-8.11-0.02" class="grey" /><path d="M53.08,11.25c1.15,1.15,1.26,2.25,1.26,3.79c0,3.4-0.08,3.45-0.09,6.55" class="stroke" stroke-dasharray="150"><animate attributeName="stroke-dashoffset" from="150" to="0" dur="1.8s" begin="0.0s" fill="freeze" /></path><path d="M24.12,22.25c0,3.42-4.55,13.97-6.05,16.25" class="stroke" stroke-dasharray="150"><set attributeName="opacity" to="0" dur="0.9s" /><animate attributeName="stroke-dashoffset" from="150" to="0" dur="1.8s" begin="0.9s" fill="freeze" /></path><path d="M24.78,25.3c12.72-1.05,45.59-4.05,58.59-4.53c10.53-0.39,2.73,5.26,0.11,7.1" class="stroke" stroke-dasharray="150"><set attributeName="opacity" to="0" dur="1.8s" /><animate attributeName="stroke-dashoffset" from="150" to="0" dur="1.8s" begin="1.8s" fill="freeze" /></path><path d="M30.87,33.5c0.16,1.7-1.61,9.19-2.9,12.01" class="stroke" stroke-dasharray="150"><set attributeName="opacity" to="0" dur="3.5s" /><animate attributeName="stroke-dashoffset" from="150" to="0" dur="1.8s" begin="3.5s" fill="freeze" /></path><path d="M39.04,30.96C46,40.25,51.76,43.13,65.06,42.68c5.44-0.18,5.69-2.43,1.89-5.65" class="stroke" stroke-dasharray="150"><set attributeName="opacity" to="0" dur="4.4s" /><animate attributeName="stroke-dashoffset" from="150" to="0" dur="1.8s" begin="4.4s" fill="freeze" /></path><path d="M51.05,29.37c1.3,3.14,3.18,6.28,4.57,1.47" class="stroke" stroke-dasharray="150"><set attributeName="opacity" to="0" dur="5.5s" /><animate attributeName="stroke-dashoffset" from="150" to="0" dur="1.8s" begin="5.5s" fill="freeze" /></path><path d="M72.65,28.98c3.29,1.47,6.47,3.52,9.19,7.38" class="stroke" stroke-dasharray="150"><set attributeName="opacity" to="0" dur="6.4s" /><animate attributeName="stroke-dashoffset" from="150" to="0" dur="1.8s" begin="6.4s" fill="freeze" /></path><path d="M28.56,50.53c0.63,0.56,1,1.27,1.12,2.12c0.73,2.23,1.69,5.58,2.43,8.96c0.24,1.1,0.44,2.17,0.58,3.14" class="stroke" stroke-dasharray="150"><set attributeName="opacity" to="0" dur="7.300000000000001s" /><animate attributeName="stroke-dashoffset" from="150" to="0" dur="1.8s" begin="7.300000000000001s" fill="freeze" /></path><path d="M30.25,51.29c10.89-0.91,36.13-2.79,46.03-3.36c2.47-0.14,4.85,1.2,4.26,3.65c-0.51,2.12-2.32,6.25-2.47,6.62c-0.34,0.83-0.68,1.66-1,2.48" class="stroke" stroke-dasharray="150"><set attributeName="opacity" to="0" dur="8.200000000000001s" /><animate attributeName="stroke-dashoffset" from="150" to="0" dur="1.8s" begin="8.200000000000001s" fill="freeze" /></path><path d="M44.82,51.59c0.48,0.48,0.59,1.15,0.67,1.86c0.34,2.96,0.79,5.92,0.91,7.49" class="stroke" stroke-dasharray="150"><set attributeName="opacity" to="0" dur="9.700000000000001s" /><animate attributeName="stroke-dashoffset" from="150" to="0" dur="1.8s" begin="9.700000000000001s" fill="freeze" /></path><path d="M61.38,50.38c0.49,0.49,0.44,1.21,0.39,1.99c-0.16,2.54-0.44,5.97-0.58,7.02" class="stroke" stroke-dasharray="150"><set attributeName="opacity" to="0" dur="10.600000000000001s" /><animate attributeName="stroke-dashoffset" from="150" to="0" dur="1.8s" begin="10.600000000000001s" fill="freeze" /></path><path d="M33.54,63.09C41,62.25,70,60.12,76.24,59.96" class="stroke" stroke-dasharray="150"><set attributeName="opacity" to="0" dur="11.500000000000002s" /><animate attributeName="stroke-dashoffset" from="150" to="0" dur="1.8s" begin="11.500000000000002s" fill="freeze" /></path><path d="M21,73.51c2.7,0.81,6.25,0.56,9.01,0.32c13.22-1.14,35.68-3.64,50.75-4.44c3.14-0.17,5.91-0.11,8.99,0.44" class="stroke" stroke-dasharray="150"><set attributeName="opacity" to="0" dur="12.600000000000001s" /><animate attributeName="stroke-dashoffset" from="150" to="0" dur="1.8s" begin="12.600000000000001s" fill="freeze" /></path><path d="M56.08,74.9c0.89,0.89,1.14,1.97,1.14,3.37c0,7.48,0.02,11.73,0.02,15.42c0,10.31-6.74,0.86-8.11-0.02" class="stroke" stroke-dasharray="150"><set attributeName="opacity" to="0" dur="14.100000000000001s" /><animate attributeName="stroke-dashoffset" from="150" to="0" dur="1.8s" begin="14.100000000000001s" fill="freeze" /></path><text x="90" y="120" id="reset-kvg-05be7">⟳</text><text x="70" y="120" id="pause-kvg-05be7">◼</text><script type="text/javascript"><![CDATA[function RecurringTimer(e,t){var n,r,i=t;this.pause=function(){window.clearTimeout(n);i-=new Date-r};var s=function(){r=new Date;n=window.setTimeout(function(){i=t;s();e()},i)};this.clear=function(){window.clearTimeout(n);i=t;n=window.setTimeout(function(){i=t;s();e()},i)};this.resume=s;this.resume()}function invoketimer(){timer=new RecurringTimer(function(){svg.setCurrentTime(0)},16100.000000000002)}var svg=document.getElementById("kvg-05be7");var pause=document.getElementById("pause-kvg-05be7");var reset=document.getElementById("reset-kvg-05be7");var timer;invoketimer();reset.onclick=function(){svg.setCurrentTime(0);timer.clear();svg.unpauseAnimations();pause.innerHTML = "◼";};pause.onclick=function(){if(svg.animationsPaused()){svg.unpauseAnimations();timer.resume();pause.innerHTML="◼"}else{svg.pauseAnimations();timer.pause();pause.innerHTML="▶"}}]]></script></svg>