<svg id="kvg-05be1-Kaisho" class="kanjivg" width="106" height="126" xmlns="http://www.w3.org/2000/svg" xmlns:xlink="http://www.w3.org/1999/xlink" xml:space="preserve" version="1.1" baseProfile="full"><defs><style type="text/css"><![CDATA[path.black{fill:none;stroke:black;stroke-width:5;stroke-linecap:round;stroke-linejoin:round;}path.grey{fill:none;stroke:#ddd;stroke-width:5;stroke-linecap:round;stroke-linejoin:round;}path.stroke{fill:none;stroke:black;stroke-width:5;stroke-linecap:round;stroke-linejoin:round;}rect{fill:none;stroke:#555;stroke-width:2;} text{font-size:16px;font-family:Segoe UI Symbol,Cambria Math,DejaVu Sans,Symbola,Quivira,STIX,Code2000;-webkit-touch-callout:none;cursor:pointer;-webkit-user-select:none;-khtml-user-select:none;-moz-user-select:none;-ms-user-select:none;user-select: none;}text:hover{color:#777;}#reset{font-weight:bold;}]]></style><marker id="markerStart" markerWidth="8" markerHeight="8" style="overflow:visible;"><circle cx="0" cy="0" r="1.5" style="stroke:none;fill:red;fill-opacity:0.5;"/></marker><marker id="markerEnd" style="overflow:visible;"><circle cx="0" cy="0" r="0.8" style="stroke:none;fill:blue;fill-opacity:0.5;"><animate attributeName="opacity" from="1" to="0" dur="3s" repeatCount="indefinite" /></circle></marker></defs><rect x="4" y="4" width="100" height="100" /><path d="M49.75,9.91c2.26,1.6,5.46,4.9,6.71,7.5" class="grey" /><path d="M26.39,24.1c0,3.22-2.52,12.59-3.66,14.74" class="grey" /><path d="M27.91,25.02c7.88-0.82,46.93-5.25,53.32-5.56c9.99-0.49,2.77,6.3-0.87,9.19" class="grey" /><path d="M33,32.69c0.82,0.33,2.32,0.42,3.13,0.33c5.21-0.57,26.62-3.52,32.01-3.88c1.36-0.09,2.18,0.16,2.86,0.32" class="grey" /><path d="M51.96,33.92c0.27,0.08-0.25,1.39-0.41,1.62c-1.09,1.53-2.21,3.62-4.78,5.63" class="grey" /><path d="M38.06,40.11c0.47,0.89,1.16,1.56,1.16,2.75c0,1.19,0.19,23.01,0.19,23.4" class="grey" /><path d="M40.44,42.09c2.54-0.09,22.88-3.28,25.2-3.39c1.93-0.09,2.36,0.8,2.28,2.71c-0.04,0.9-0.25,14.27-0.25,22.43" class="grey" /><path d="M39.9,50.27c4.65-0.12,9.31-0.85,13.92-1.39c1.41-0.16,2.82-0.33,4.16-0.48" class="grey" /><path d="M40.1,58.26c4.32-0.2,10.13-1.21,14.44-1.63c1.21-0.12,2.43-0.24,3.64-0.35" class="grey" /><path d="M21,67.9c1.58,0.37,4.49,0.5,6.05,0.37C39,67.25,73.25,64,85.22,63.51c2.63-0.11,4.21,0.18,5.53,0.36" class="grey" /><path d="M41.02,67c0.41,0.69-0.09,1.46-0.57,2.32C36.49,76.37,25.32,86.97,17,89.97" class="grey" /><path d="M61.25,65.25c8,3,20.09,15.46,28.46,18.83c3.24,1.3,4.4,2,7.54,2.42" class="grey" /><path d="M38.63,78.26c0.99,0.3,2.73,0.76,3.59,0.66c7.04-0.84,19.02-2.47,22.92-2.77c2.54-0.2,3.11,0.1,3.02,2.5c-0.12,3.72-2.41,13.59-5.55,18.04c-3.43,4.87-3.95,1.81-6.77-0.3" class="grey" /><path d="M48.62,80c0.05,0.46,0.16,1.21-0.1,1.84c-2.82,7.09-7.2,12.99-16.44,18.73" class="grey" /><path d="M49.75,9.91c2.26,1.6,5.46,4.9,6.71,7.5" class="stroke" stroke-dasharray="150"><animate attributeName="stroke-dashoffset" from="150" to="0" dur="1.8s" begin="0.0s" fill="freeze" /></path><path d="M26.39,24.1c0,3.22-2.52,12.59-3.66,14.74" class="stroke" stroke-dasharray="150"><set attributeName="opacity" to="0" dur="0.9s" /><animate attributeName="stroke-dashoffset" from="150" to="0" dur="1.8s" begin="0.9s" fill="freeze" /></path><path d="M27.91,25.02c7.88-0.82,46.93-5.25,53.32-5.56c9.99-0.49,2.77,6.3-0.87,9.19" class="stroke" stroke-dasharray="150"><set attributeName="opacity" to="0" dur="1.8s" /><animate attributeName="stroke-dashoffset" from="150" to="0" dur="1.8s" begin="1.8s" fill="freeze" /></path><path d="M33,32.69c0.82,0.33,2.32,0.42,3.13,0.33c5.21-0.57,26.62-3.52,32.01-3.88c1.36-0.09,2.18,0.16,2.86,0.32" class="stroke" stroke-dasharray="150"><set attributeName="opacity" to="0" dur="3.3s" /><animate attributeName="stroke-dashoffset" from="150" to="0" dur="1.8s" begin="3.3s" fill="freeze" /></path><path d="M51.96,33.92c0.27,0.08-0.25,1.39-0.41,1.62c-1.09,1.53-2.21,3.62-4.78,5.63" class="stroke" stroke-dasharray="150"><set attributeName="opacity" to="0" dur="4.3s" /><animate attributeName="stroke-dashoffset" from="150" to="0" dur="1.8s" begin="4.3s" fill="freeze" /></path><path d="M38.06,40.11c0.47,0.89,1.16,1.56,1.16,2.75c0,1.19,0.19,23.01,0.19,23.4" class="stroke" stroke-dasharray="150"><set attributeName="opacity" to="0" dur="5.2s" /><animate attributeName="stroke-dashoffset" from="150" to="0" dur="1.8s" begin="5.2s" fill="freeze" /></path><path d="M40.44,42.09c2.54-0.09,22.88-3.28,25.2-3.39c1.93-0.09,2.36,0.8,2.28,2.71c-0.04,0.9-0.25,14.27-0.25,22.43" class="stroke" stroke-dasharray="150"><set attributeName="opacity" to="0" dur="6.2s" /><animate attributeName="stroke-dashoffset" from="150" to="0" dur="1.8s" begin="6.2s" fill="freeze" /></path><path d="M39.9,50.27c4.65-0.12,9.31-0.85,13.92-1.39c1.41-0.16,2.82-0.33,4.16-0.48" class="stroke" stroke-dasharray="150"><set attributeName="opacity" to="0" dur="7.5s" /><animate attributeName="stroke-dashoffset" from="150" to="0" dur="1.8s" begin="7.5s" fill="freeze" /></path><path d="M40.1,58.26c4.32-0.2,10.13-1.21,14.44-1.63c1.21-0.12,2.43-0.24,3.64-0.35" class="stroke" stroke-dasharray="150"><set attributeName="opacity" to="0" dur="8.4s" /><animate attributeName="stroke-dashoffset" from="150" to="0" dur="1.8s" begin="8.4s" fill="freeze" /></path><path d="M21,67.9c1.58,0.37,4.49,0.5,6.05,0.37C39,67.25,73.25,64,85.22,63.51c2.63-0.11,4.21,0.18,5.53,0.36" class="stroke" stroke-dasharray="150"><set attributeName="opacity" to="0" dur="9.3s" /><animate attributeName="stroke-dashoffset" from="150" to="0" dur="1.8s" begin="9.3s" fill="freeze" /></path><path d="M41.02,67c0.41,0.69-0.09,1.46-0.57,2.32C36.49,76.37,25.32,86.97,17,89.97" class="stroke" stroke-dasharray="150"><set attributeName="opacity" to="0" dur="10.8s" /><animate attributeName="stroke-dashoffset" from="150" to="0" dur="1.8s" begin="10.8s" fill="freeze" /></path><path d="M61.25,65.25c8,3,20.09,15.46,28.46,18.83c3.24,1.3,4.4,2,7.54,2.42" class="stroke" stroke-dasharray="150"><set attributeName="opacity" to="0" dur="11.8s" /><animate attributeName="stroke-dashoffset" from="150" to="0" dur="1.8s" begin="11.8s" fill="freeze" /></path><path d="M38.63,78.26c0.99,0.3,2.73,0.76,3.59,0.66c7.04-0.84,19.02-2.47,22.92-2.77c2.54-0.2,3.11,0.1,3.02,2.5c-0.12,3.72-2.41,13.59-5.55,18.04c-3.43,4.87-3.95,1.81-6.77-0.3" class="stroke" stroke-dasharray="150"><set attributeName="opacity" to="0" dur="12.9s" /><animate attributeName="stroke-dashoffset" from="150" to="0" dur="1.8s" begin="12.9s" fill="freeze" /></path><path d="M48.62,80c0.05,0.46,0.16,1.21-0.1,1.84c-2.82,7.09-7.2,12.99-16.44,18.73" class="stroke" stroke-dasharray="150"><set attributeName="opacity" to="0" dur="14.3s" /><animate attributeName="stroke-dashoffset" from="150" to="0" dur="1.8s" begin="14.3s" fill="freeze" /></path><text x="90" y="120" id="reset-kvg-05be1-Kaisho">⟳</text><text x="70" y="120" id="pause-kvg-05be1-Kaisho">◼</text><script type="text/javascript"><![CDATA[function RecurringTimer(e,t){var n,r,i=t;this.pause=function(){window.clearTimeout(n);i-=new Date-r};var s=function(){r=new Date;n=window.setTimeout(function(){i=t;s();e()},i)};this.clear=function(){window.clearTimeout(n);i=t;n=window.setTimeout(function(){i=t;s();e()},i)};this.resume=s;this.resume()}function invoketimer(){timer=new RecurringTimer(function(){svg.setCurrentTime(0)},16300.0)}var svg=document.getElementById("kvg-05be1-Kaisho");var pause=document.getElementById("pause-kvg-05be1-Kaisho");var reset=document.getElementById("reset-kvg-05be1-Kaisho");var timer;invoketimer();reset.onclick=function(){svg.setCurrentTime(0);timer.clear();svg.unpauseAnimations();pause.innerHTML = "◼";};pause.onclick=function(){if(svg.animationsPaused()){svg.unpauseAnimations();timer.resume();pause.innerHTML="◼"}else{svg.pauseAnimations();timer.pause();pause.innerHTML="▶"}}]]></script></svg>