<svg id="kvg-05bff" class="kanjivg" width="106" height="126" xmlns="http://www.w3.org/2000/svg" xmlns:xlink="http://www.w3.org/1999/xlink" xml:space="preserve" version="1.1" baseProfile="full"><defs><style type="text/css"><![CDATA[path.black{fill:none;stroke:black;stroke-width:5;stroke-linecap:round;stroke-linejoin:round;}path.grey{fill:none;stroke:#ddd;stroke-width:5;stroke-linecap:round;stroke-linejoin:round;}path.stroke{fill:none;stroke:black;stroke-width:5;stroke-linecap:round;stroke-linejoin:round;}rect{fill:none;stroke:#555;stroke-width:2;} text{font-size:16px;font-family:Segoe UI Symbol,Cambria Math,DejaVu Sans,Symbola,Quivira,STIX,Code2000;-webkit-touch-callout:none;cursor:pointer;-webkit-user-select:none;-khtml-user-select:none;-moz-user-select:none;-ms-user-select:none;user-select: none;}text:hover{color:#777;}#reset{font-weight:bold;}]]></style><marker id="markerStart" markerWidth="8" markerHeight="8" style="overflow:visible;"><circle cx="0" cy="0" r="1.5" style="stroke:none;fill:red;fill-opacity:0.5;"/></marker><marker id="markerEnd" style="overflow:visible;"><circle cx="0" cy="0" r="0.8" style="stroke:none;fill:blue;fill-opacity:0.5;"><animate attributeName="opacity" from="1" to="0" dur="3s" repeatCount="indefinite" /></circle></marker></defs><rect x="4" y="4" width="100" height="100" /><path d="M26.75,24.15c2.75,0.47,5.14,0.38,7.5,0.07c11.13-1.47,31.48-3.27,42.38-3.84c2.45-0.13,4.96-0.29,7.38,0.24" class="grey" /><path d="M28,37.39c2.38,0.61,5,0.36,7.24,0.06c9.88-1.32,27.13-2.88,36.39-3.72c2.56-0.23,5.09-0.59,7.62,0.03" class="grey" /><path d="M21.75,51.01c2.63,0.94,6.15,0.48,8.86,0.18c11.32-1.27,33.96-3.48,47.51-4.36c2.91-0.19,5.75-0.46,8.63,0.16" class="grey" /><path d="M53.25,11.5c0.75,1.38,0.74,3.03,0.31,5.24C48.25,44.25,42,74.25,17.75,92.79" class="grey" /><path d="M14.13,68.06c3.87,1.06,7.3,0.76,10.5,0.42C41.13,66.74,68.38,64,86,62.82c3.46-0.23,6.74-0.52,10.12,0.36" class="grey" /><path d="M74.27,50.58c0.89,0.89,1.26,2.29,1.26,4.02c0,20.4-0.01,32.91-0.01,37.87c0,12.03-6.77,2.28-8.96,0.75" class="grey" /><path d="M44.71,75.87c3,1.72,7.75,7.07,8.5,9.75" class="grey" /><path d="M26.75,24.15c2.75,0.47,5.14,0.38,7.5,0.07c11.13-1.47,31.48-3.27,42.38-3.84c2.45-0.13,4.96-0.29,7.38,0.24" class="stroke" stroke-dasharray="150"><animate attributeName="stroke-dashoffset" from="150" to="0" dur="1.8s" begin="0.0s" fill="freeze" /></path><path d="M28,37.39c2.38,0.61,5,0.36,7.24,0.06c9.88-1.32,27.13-2.88,36.39-3.72c2.56-0.23,5.09-0.59,7.62,0.03" class="stroke" stroke-dasharray="150"><set attributeName="opacity" to="0" dur="1.4s" /><animate attributeName="stroke-dashoffset" from="150" to="0" dur="1.8s" begin="1.4s" fill="freeze" /></path><path d="M21.75,51.01c2.63,0.94,6.15,0.48,8.86,0.18c11.32-1.27,33.96-3.48,47.51-4.36c2.91-0.19,5.75-0.46,8.63,0.16" class="stroke" stroke-dasharray="150"><set attributeName="opacity" to="0" dur="2.7s" /><animate attributeName="stroke-dashoffset" from="150" to="0" dur="1.8s" begin="2.7s" fill="freeze" /></path><path d="M53.25,11.5c0.75,1.38,0.74,3.03,0.31,5.24C48.25,44.25,42,74.25,17.75,92.79" class="stroke" stroke-dasharray="150"><set attributeName="opacity" to="0" dur="4.2s" /><animate attributeName="stroke-dashoffset" from="150" to="0" dur="1.8s" begin="4.2s" fill="freeze" /></path><path d="M14.13,68.06c3.87,1.06,7.3,0.76,10.5,0.42C41.13,66.74,68.38,64,86,62.82c3.46-0.23,6.74-0.52,10.12,0.36" class="stroke" stroke-dasharray="150"><set attributeName="opacity" to="0" dur="6.0s" /><animate attributeName="stroke-dashoffset" from="150" to="0" dur="1.8s" begin="6.0s" fill="freeze" /></path><path d="M74.27,50.58c0.89,0.89,1.26,2.29,1.26,4.02c0,20.4-0.01,32.91-0.01,37.87c0,12.03-6.77,2.28-8.96,0.75" class="stroke" stroke-dasharray="150"><set attributeName="opacity" to="0" dur="7.7s" /><animate attributeName="stroke-dashoffset" from="150" to="0" dur="1.8s" begin="7.7s" fill="freeze" /></path><path d="M44.71,75.87c3,1.72,7.75,7.07,8.5,9.75" class="stroke" stroke-dasharray="150"><set attributeName="opacity" to="0" dur="9.1s" /><animate attributeName="stroke-dashoffset" from="150" to="0" dur="1.8s" begin="9.1s" fill="freeze" /></path><text x="90" y="120" id="reset-kvg-05bff">⟳</text><text x="70" y="120" id="pause-kvg-05bff">◼</text><script type="text/javascript"><![CDATA[function RecurringTimer(e,t){var n,r,i=t;this.pause=function(){window.clearTimeout(n);i-=new Date-r};var s=function(){r=new Date;n=window.setTimeout(function(){i=t;s();e()},i)};this.clear=function(){window.clearTimeout(n);i=t;n=window.setTimeout(function(){i=t;s();e()},i)};this.resume=s;this.resume()}function invoketimer(){timer=new RecurringTimer(function(){svg.setCurrentTime(0)},11000.0)}var svg=document.getElementById("kvg-05bff");var pause=document.getElementById("pause-kvg-05bff");var reset=document.getElementById("reset-kvg-05bff");var timer;invoketimer();reset.onclick=function(){svg.setCurrentTime(0);timer.clear();svg.unpauseAnimations();pause.innerHTML = "◼";};pause.onclick=function(){if(svg.animationsPaused()){svg.unpauseAnimations();timer.resume();pause.innerHTML="◼"}else{svg.pauseAnimations();timer.pause();pause.innerHTML="▶"}}]]></script></svg>