<svg id="kvg-05c07" class="kanjivg" width="106" height="126" xmlns="http://www.w3.org/2000/svg" xmlns:xlink="http://www.w3.org/1999/xlink" xml:space="preserve" version="1.1" baseProfile="full"><defs><style type="text/css"><![CDATA[path.black{fill:none;stroke:black;stroke-width:5;stroke-linecap:round;stroke-linejoin:round;}path.grey{fill:none;stroke:#ddd;stroke-width:5;stroke-linecap:round;stroke-linejoin:round;}path.stroke{fill:none;stroke:black;stroke-width:5;stroke-linecap:round;stroke-linejoin:round;}rect{fill:none;stroke:#555;stroke-width:2;} text{font-size:16px;font-family:Segoe UI Symbol,Cambria Math,DejaVu Sans,Symbola,Quivira,STIX,Code2000;-webkit-touch-callout:none;cursor:pointer;-webkit-user-select:none;-khtml-user-select:none;-moz-user-select:none;-ms-user-select:none;user-select: none;}text:hover{color:#777;}#reset{font-weight:bold;}]]></style><marker id="markerStart" markerWidth="8" markerHeight="8" style="overflow:visible;"><circle cx="0" cy="0" r="1.5" style="stroke:none;fill:red;fill-opacity:0.5;"/></marker><marker id="markerEnd" style="overflow:visible;"><circle cx="0" cy="0" r="0.8" style="stroke:none;fill:blue;fill-opacity:0.5;"><animate attributeName="opacity" from="1" to="0" dur="3s" repeatCount="indefinite" /></circle></marker></defs><rect x="4" y="4" width="100" height="100" /><path d="M34.1,14.72c1.21,1.37,1.98,3.71,1.98,5.33c0,15.46-0.04,73.81-0.04,79.08" class="grey" /><path d="M18.75,20.42c1.37,0.64,1.89,1.38,2.01,3.48c0.18,3.15-0.74,11.01-1.16,14.31c-0.14,1.05,0.25,2.7,2.28,2.46c3.63-0.43,10.63-1.18,13.68-1.58" class="grey" /><path d="M12.3,57.18c1.33,0.14,1.61,0.57,3.17,0.47c6.66-0.42,15.69-2.42,20.34-2.65" class="grey" /><path d="M23.69,57.89c0.03,0.78,0.49,1.99,0.49,3.12c0,9.55-0.43,21.74-10.67,29.83" class="grey" /><path d="M64.43,13c0.67,0.86,0.57,2.82-0.04,3.94c-3,5.58-8.76,14.27-17.54,19.25" class="grey" /><path d="M64.94,19.56c1.31,0.44,2.32,0.75,4.21,0.55C75,19.5,81.13,17.86,84.11,17.1c2.39-0.6,3.31,0.76,2.17,2.9C80,31.75,66.5,48,44.27,55.33" class="grey" /><path d="M62.22,27.26c1.09,0.65,5.43,4.56,7.6,8.48" class="grey" /><path d="M52.26,35.46c1.44,1.3,5.76,6.82,6.96,9.74" class="grey" /><path d="M43.63,61.36c0.98,0.48,2.75,0.53,3.74,0.48c10.82-0.58,33.41-4.79,45.34-5.51c1.62-0.1,2.6,0.23,3.42,0.47" class="grey" /><path d="M79.6,41.83c0.07,0.3,0.96,1.57,0.96,3.48c0,12.86-0.2,42.66-0.2,45.79c0,7.59-5.77,1.12-7.45,0.16" class="grey" /><path d="M55.43,69.48c2.81,1.83,7.25,7.52,7.96,10.36" class="grey" /><path d="M34.1,14.72c1.21,1.37,1.98,3.71,1.98,5.33c0,15.46-0.04,73.81-0.04,79.08" class="stroke" stroke-dasharray="150"><animate attributeName="stroke-dashoffset" from="150" to="0" dur="1.8s" begin="0.0s" fill="freeze" /></path><path d="M18.75,20.42c1.37,0.64,1.89,1.38,2.01,3.48c0.18,3.15-0.74,11.01-1.16,14.31c-0.14,1.05,0.25,2.7,2.28,2.46c3.63-0.43,10.63-1.18,13.68-1.58" class="stroke" stroke-dasharray="150"><set attributeName="opacity" to="0" dur="1.7s" /><animate attributeName="stroke-dashoffset" from="150" to="0" dur="1.8s" begin="1.7s" fill="freeze" /></path><path d="M12.3,57.18c1.33,0.14,1.61,0.57,3.17,0.47c6.66-0.42,15.69-2.42,20.34-2.65" class="stroke" stroke-dasharray="150"><set attributeName="opacity" to="0" dur="2.7s" /><animate attributeName="stroke-dashoffset" from="150" to="0" dur="1.8s" begin="2.7s" fill="freeze" /></path><path d="M23.69,57.89c0.03,0.78,0.49,1.99,0.49,3.12c0,9.55-0.43,21.74-10.67,29.83" class="stroke" stroke-dasharray="150"><set attributeName="opacity" to="0" dur="3.7s" /><animate attributeName="stroke-dashoffset" from="150" to="0" dur="1.8s" begin="3.7s" fill="freeze" /></path><path d="M64.43,13c0.67,0.86,0.57,2.82-0.04,3.94c-3,5.58-8.76,14.27-17.54,19.25" class="stroke" stroke-dasharray="150"><set attributeName="opacity" to="0" dur="4.7s" /><animate attributeName="stroke-dashoffset" from="150" to="0" dur="1.8s" begin="4.7s" fill="freeze" /></path><path d="M64.94,19.56c1.31,0.44,2.32,0.75,4.21,0.55C75,19.5,81.13,17.86,84.11,17.1c2.39-0.6,3.31,0.76,2.17,2.9C80,31.75,66.5,48,44.27,55.33" class="stroke" stroke-dasharray="150"><set attributeName="opacity" to="0" dur="5.7s" /><animate attributeName="stroke-dashoffset" from="150" to="0" dur="1.8s" begin="5.7s" fill="freeze" /></path><path d="M62.22,27.26c1.09,0.65,5.43,4.56,7.6,8.48" class="stroke" stroke-dasharray="150"><set attributeName="opacity" to="0" dur="7.4s" /><animate attributeName="stroke-dashoffset" from="150" to="0" dur="1.8s" begin="7.4s" fill="freeze" /></path><path d="M52.26,35.46c1.44,1.3,5.76,6.82,6.96,9.74" class="stroke" stroke-dasharray="150"><set attributeName="opacity" to="0" dur="8.3s" /><animate attributeName="stroke-dashoffset" from="150" to="0" dur="1.8s" begin="8.3s" fill="freeze" /></path><path d="M43.63,61.36c0.98,0.48,2.75,0.53,3.74,0.48c10.82-0.58,33.41-4.79,45.34-5.51c1.62-0.1,2.6,0.23,3.42,0.47" class="stroke" stroke-dasharray="150"><set attributeName="opacity" to="0" dur="9.200000000000001s" /><animate attributeName="stroke-dashoffset" from="150" to="0" dur="1.8s" begin="9.200000000000001s" fill="freeze" /></path><path d="M79.6,41.83c0.07,0.3,0.96,1.57,0.96,3.48c0,12.86-0.2,42.66-0.2,45.79c0,7.59-5.77,1.12-7.45,0.16" class="stroke" stroke-dasharray="150"><set attributeName="opacity" to="0" dur="10.500000000000002s" /><animate attributeName="stroke-dashoffset" from="150" to="0" dur="1.8s" begin="10.500000000000002s" fill="freeze" /></path><path d="M55.43,69.48c2.81,1.83,7.25,7.52,7.96,10.36" class="stroke" stroke-dasharray="150"><set attributeName="opacity" to="0" dur="12.000000000000002s" /><animate attributeName="stroke-dashoffset" from="150" to="0" dur="1.8s" begin="12.000000000000002s" fill="freeze" /></path><text x="90" y="120" id="reset-kvg-05c07">⟳</text><text x="70" y="120" id="pause-kvg-05c07">◼</text><script type="text/javascript"><![CDATA[function RecurringTimer(e,t){var n,r,i=t;this.pause=function(){window.clearTimeout(n);i-=new Date-r};var s=function(){r=new Date;n=window.setTimeout(function(){i=t;s();e()},i)};this.clear=function(){window.clearTimeout(n);i=t;n=window.setTimeout(function(){i=t;s();e()},i)};this.resume=s;this.resume()}function invoketimer(){timer=new RecurringTimer(function(){svg.setCurrentTime(0)},13900.000000000002)}var svg=document.getElementById("kvg-05c07");var pause=document.getElementById("pause-kvg-05c07");var reset=document.getElementById("reset-kvg-05c07");var timer;invoketimer();reset.onclick=function(){svg.setCurrentTime(0);timer.clear();svg.unpauseAnimations();pause.innerHTML = "◼";};pause.onclick=function(){if(svg.animationsPaused()){svg.unpauseAnimations();timer.resume();pause.innerHTML="◼"}else{svg.pauseAnimations();timer.pause();pause.innerHTML="▶"}}]]></script></svg>