<svg id="kvg-05c02-KaishoVt4" class="kanjivg" width="106" height="126" xmlns="http://www.w3.org/2000/svg" xmlns:xlink="http://www.w3.org/1999/xlink" xml:space="preserve" version="1.1" baseProfile="full"><defs><style type="text/css"><![CDATA[path.black{fill:none;stroke:black;stroke-width:5;stroke-linecap:round;stroke-linejoin:round;}path.grey{fill:none;stroke:#ddd;stroke-width:5;stroke-linecap:round;stroke-linejoin:round;}path.stroke{fill:none;stroke:black;stroke-width:5;stroke-linecap:round;stroke-linejoin:round;}rect{fill:none;stroke:#555;stroke-width:2;} text{font-size:16px;font-family:Segoe UI Symbol,Cambria Math,DejaVu Sans,Symbola,Quivira,STIX,Code2000;-webkit-touch-callout:none;cursor:pointer;-webkit-user-select:none;-khtml-user-select:none;-moz-user-select:none;-ms-user-select:none;user-select: none;}text:hover{color:#777;}#reset{font-weight:bold;}]]></style><marker id="markerStart" markerWidth="8" markerHeight="8" style="overflow:visible;"><circle cx="0" cy="0" r="1.5" style="stroke:none;fill:red;fill-opacity:0.5;"/></marker><marker id="markerEnd" style="overflow:visible;"><circle cx="0" cy="0" r="0.8" style="stroke:none;fill:blue;fill-opacity:0.5;"><animate attributeName="opacity" from="1" to="0" dur="3s" repeatCount="indefinite" /></circle></marker></defs><rect x="4" y="4" width="100" height="100" /><path d="M22.75,21.79c1.18,0.48,3.34,0.61,4.52,0.48c7.51-0.83,47.33-5.43,54.61-4.87c1.96,0.15,3.14,0.23,4.12,0.47" class="grey" /><path d="M27.63,33.11c0.36,0.5,0.9,0.83,1.07,1.46C30.5,41,32.5,49.75,34.16,61.13" class="grey" /><path d="M29.83,33.8c12.64-1.26,36.3-4.55,45.74-5.61c3.47-0.39,4.44,1.31,4.07,4.43c-0.61,5.18-2.63,14.13-4.71,23.2" class="grey" /><path d="M51.79,10c1.22,1.14,1.94,2.78,1.94,4.28c0.04,14.8,0.23,37.15,0.23,41.01" class="grey" /><path d="M31.94,45.39c10.15-1.21,20.31-2.32,30.47-3.44c1.22-0.13,2.41-0.26,3.55-0.39" class="grey" /><path d="M34.3,58.16c10.42-0.97,28.16-3.37,40.72-4.24" class="grey" /><path d="M15.88,73.17c1.49,0.8,4.21,0.94,5.72,0.8C42.5,72,71.71,69.5,89.91,68.29c2.48-0.17,3.98,0.38,5.22,0.78" class="grey" /><path d="M67.54,59.33c0.08,0.48,1.68,2.49,1.68,5.52c0,6.65,0.26,23.16,0.26,28.12c0,12.03-7.07,1.78-9.13,0.25" class="grey" /><path d="M38.69,79.87c3.46,1.72,8.93,7.07,9.79,9.75" class="grey" /><path d="M22.75,21.79c1.18,0.48,3.34,0.61,4.52,0.48c7.51-0.83,47.33-5.43,54.61-4.87c1.96,0.15,3.14,0.23,4.12,0.47" class="stroke" stroke-dasharray="150"><animate attributeName="stroke-dashoffset" from="150" to="0" dur="1.8s" begin="0.0s" fill="freeze" /></path><path d="M27.63,33.11c0.36,0.5,0.9,0.83,1.07,1.46C30.5,41,32.5,49.75,34.16,61.13" class="stroke" stroke-dasharray="150"><set attributeName="opacity" to="0" dur="1.5s" /><animate attributeName="stroke-dashoffset" from="150" to="0" dur="1.8s" begin="1.5s" fill="freeze" /></path><path d="M29.83,33.8c12.64-1.26,36.3-4.55,45.74-5.61c3.47-0.39,4.44,1.31,4.07,4.43c-0.61,5.18-2.63,14.13-4.71,23.2" class="stroke" stroke-dasharray="150"><set attributeName="opacity" to="0" dur="2.5s" /><animate attributeName="stroke-dashoffset" from="150" to="0" dur="1.8s" begin="2.5s" fill="freeze" /></path><path d="M51.79,10c1.22,1.14,1.94,2.78,1.94,4.28c0.04,14.8,0.23,37.15,0.23,41.01" class="stroke" stroke-dasharray="150"><set attributeName="opacity" to="0" dur="4.2s" /><animate attributeName="stroke-dashoffset" from="150" to="0" dur="1.8s" begin="4.2s" fill="freeze" /></path><path d="M31.94,45.39c10.15-1.21,20.31-2.32,30.47-3.44c1.22-0.13,2.41-0.26,3.55-0.39" class="stroke" stroke-dasharray="150"><set attributeName="opacity" to="0" dur="5.4s" /><animate attributeName="stroke-dashoffset" from="150" to="0" dur="1.8s" begin="5.4s" fill="freeze" /></path><path d="M34.3,58.16c10.42-0.97,28.16-3.37,40.72-4.24" class="stroke" stroke-dasharray="150"><set attributeName="opacity" to="0" dur="6.4s" /><animate attributeName="stroke-dashoffset" from="150" to="0" dur="1.8s" begin="6.4s" fill="freeze" /></path><path d="M15.88,73.17c1.49,0.8,4.21,0.94,5.72,0.8C42.5,72,71.71,69.5,89.91,68.29c2.48-0.17,3.98,0.38,5.22,0.78" class="stroke" stroke-dasharray="150"><set attributeName="opacity" to="0" dur="7.5s" /><animate attributeName="stroke-dashoffset" from="150" to="0" dur="1.8s" begin="7.5s" fill="freeze" /></path><path d="M67.54,59.33c0.08,0.48,1.68,2.49,1.68,5.52c0,6.65,0.26,23.16,0.26,28.12c0,12.03-7.07,1.78-9.13,0.25" class="stroke" stroke-dasharray="150"><set attributeName="opacity" to="0" dur="9.2s" /><animate attributeName="stroke-dashoffset" from="150" to="0" dur="1.8s" begin="9.2s" fill="freeze" /></path><path d="M38.69,79.87c3.46,1.72,8.93,7.07,9.79,9.75" class="stroke" stroke-dasharray="150"><set attributeName="opacity" to="0" dur="10.399999999999999s" /><animate attributeName="stroke-dashoffset" from="150" to="0" dur="1.8s" begin="10.399999999999999s" fill="freeze" /></path><text x="90" y="120" id="reset-kvg-05c02-KaishoVt4">⟳</text><text x="70" y="120" id="pause-kvg-05c02-KaishoVt4">◼</text><script type="text/javascript"><![CDATA[function RecurringTimer(e,t){var n,r,i=t;this.pause=function(){window.clearTimeout(n);i-=new Date-r};var s=function(){r=new Date;n=window.setTimeout(function(){i=t;s();e()},i)};this.clear=function(){window.clearTimeout(n);i=t;n=window.setTimeout(function(){i=t;s();e()},i)};this.resume=s;this.resume()}function invoketimer(){timer=new RecurringTimer(function(){svg.setCurrentTime(0)},12299.999999999998)}var svg=document.getElementById("kvg-05c02-KaishoVt4");var pause=document.getElementById("pause-kvg-05c02-KaishoVt4");var reset=document.getElementById("reset-kvg-05c02-KaishoVt4");var timer;invoketimer();reset.onclick=function(){svg.setCurrentTime(0);timer.clear();svg.unpauseAnimations();pause.innerHTML = "◼";};pause.onclick=function(){if(svg.animationsPaused()){svg.unpauseAnimations();timer.resume();pause.innerHTML="◼"}else{svg.pauseAnimations();timer.pause();pause.innerHTML="▶"}}]]></script></svg>