<svg id="kvg-05c06" class="kanjivg" width="106" height="126" xmlns="http://www.w3.org/2000/svg" xmlns:xlink="http://www.w3.org/1999/xlink" xml:space="preserve" version="1.1" baseProfile="full"><defs><style type="text/css"><![CDATA[path.black{fill:none;stroke:black;stroke-width:5;stroke-linecap:round;stroke-linejoin:round;}path.grey{fill:none;stroke:#ddd;stroke-width:5;stroke-linecap:round;stroke-linejoin:round;}path.stroke{fill:none;stroke:black;stroke-width:5;stroke-linecap:round;stroke-linejoin:round;}rect{fill:none;stroke:#555;stroke-width:2;} text{font-size:16px;font-family:Segoe UI Symbol,Cambria Math,DejaVu Sans,Symbola,Quivira,STIX,Code2000;-webkit-touch-callout:none;cursor:pointer;-webkit-user-select:none;-khtml-user-select:none;-moz-user-select:none;-ms-user-select:none;user-select: none;}text:hover{color:#777;}#reset{font-weight:bold;}]]></style><marker id="markerStart" markerWidth="8" markerHeight="8" style="overflow:visible;"><circle cx="0" cy="0" r="1.5" style="stroke:none;fill:red;fill-opacity:0.5;"/></marker><marker id="markerEnd" style="overflow:visible;"><circle cx="0" cy="0" r="0.8" style="stroke:none;fill:blue;fill-opacity:0.5;"><animate attributeName="opacity" from="1" to="0" dur="3s" repeatCount="indefinite" /></circle></marker></defs><rect x="4" y="4" width="100" height="100" /><path d="M35.12,15.75c0.88,0.88,1.46,2.62,1.46,4.25c0,0.76-0.09,45.77-0.1,69.38c0,2.79,0,5.28,0,7.38" class="grey" /><path d="M17.5,33c3.09,1.98,7.73,8.41,8.5,11.5" class="grey" /><path d="M14,73.97c1.99,0.98,3.32,0.56,4.57-0.65c3.65-3.52,8.36-7.83,11.68-12.32" class="grey" /><path d="M80.23,12.39c0.02,1.23-0.73,2.1-1.38,2.61c-3.87,3-14.18,8.03-28.16,11.26" class="grey" /><path d="M50.27,32.49c2.53,2.33,6.52,9.6,7.16,13.23" class="grey" /><path d="M67.85,28.74c2.09,2.06,5.39,8.49,5.92,11.7" class="grey" /><path d="M92.03,23.96c0.07,0.81,0.04,1.62-0.29,2.35c-1.49,3.31-3.72,7.59-7.91,12.28" class="grey" /><path d="M43.86,59.21c2.77,0.79,6.08,0.5,8.56,0.15c10.69-1.53,26.93-4.18,38.47-5.26c2.76-0.26,5.99-0.34,8.51,0.12" class="grey" /><path d="M80.57,43.83c1.3,1.3,1.78,3.16,1.78,4.85s0.07,39.53,0.07,42.78c0,7.89-5.36,1.17-6.92,0.16" class="grey" /><path d="M60.29,69.01c2.5,1.65,6.45,6.78,7.07,9.34" class="grey" /><path d="M35.12,15.75c0.88,0.88,1.46,2.62,1.46,4.25c0,0.76-0.09,45.77-0.1,69.38c0,2.79,0,5.28,0,7.38" class="stroke" stroke-dasharray="150"><animate attributeName="stroke-dashoffset" from="150" to="0" dur="1.8s" begin="0.0s" fill="freeze" /></path><path d="M17.5,33c3.09,1.98,7.73,8.41,8.5,11.5" class="stroke" stroke-dasharray="150"><set attributeName="opacity" to="0" dur="1.7s" /><animate attributeName="stroke-dashoffset" from="150" to="0" dur="1.8s" begin="1.7s" fill="freeze" /></path><path d="M14,73.97c1.99,0.98,3.32,0.56,4.57-0.65c3.65-3.52,8.36-7.83,11.68-12.32" class="stroke" stroke-dasharray="150"><set attributeName="opacity" to="0" dur="2.6s" /><animate attributeName="stroke-dashoffset" from="150" to="0" dur="1.8s" begin="2.6s" fill="freeze" /></path><path d="M80.23,12.39c0.02,1.23-0.73,2.1-1.38,2.61c-3.87,3-14.18,8.03-28.16,11.26" class="stroke" stroke-dasharray="150"><set attributeName="opacity" to="0" dur="3.6s" /><animate attributeName="stroke-dashoffset" from="150" to="0" dur="1.8s" begin="3.6s" fill="freeze" /></path><path d="M50.27,32.49c2.53,2.33,6.52,9.6,7.16,13.23" class="stroke" stroke-dasharray="150"><set attributeName="opacity" to="0" dur="4.6s" /><animate attributeName="stroke-dashoffset" from="150" to="0" dur="1.8s" begin="4.6s" fill="freeze" /></path><path d="M67.85,28.74c2.09,2.06,5.39,8.49,5.92,11.7" class="stroke" stroke-dasharray="150"><set attributeName="opacity" to="0" dur="5.5s" /><animate attributeName="stroke-dashoffset" from="150" to="0" dur="1.8s" begin="5.5s" fill="freeze" /></path><path d="M92.03,23.96c0.07,0.81,0.04,1.62-0.29,2.35c-1.49,3.31-3.72,7.59-7.91,12.28" class="stroke" stroke-dasharray="150"><set attributeName="opacity" to="0" dur="6.4s" /><animate attributeName="stroke-dashoffset" from="150" to="0" dur="1.8s" begin="6.4s" fill="freeze" /></path><path d="M43.86,59.21c2.77,0.79,6.08,0.5,8.56,0.15c10.69-1.53,26.93-4.18,38.47-5.26c2.76-0.26,5.99-0.34,8.51,0.12" class="stroke" stroke-dasharray="150"><set attributeName="opacity" to="0" dur="7.300000000000001s" /><animate attributeName="stroke-dashoffset" from="150" to="0" dur="1.8s" begin="7.300000000000001s" fill="freeze" /></path><path d="M80.57,43.83c1.3,1.3,1.78,3.16,1.78,4.85s0.07,39.53,0.07,42.78c0,7.89-5.36,1.17-6.92,0.16" class="stroke" stroke-dasharray="150"><set attributeName="opacity" to="0" dur="8.700000000000001s" /><animate attributeName="stroke-dashoffset" from="150" to="0" dur="1.8s" begin="8.700000000000001s" fill="freeze" /></path><path d="M60.29,69.01c2.5,1.65,6.45,6.78,7.07,9.34" class="stroke" stroke-dasharray="150"><set attributeName="opacity" to="0" dur="10.100000000000001s" /><animate attributeName="stroke-dashoffset" from="150" to="0" dur="1.8s" begin="10.100000000000001s" fill="freeze" /></path><text x="90" y="120" id="reset-kvg-05c06">⟳</text><text x="70" y="120" id="pause-kvg-05c06">◼</text><script type="text/javascript"><![CDATA[function RecurringTimer(e,t){var n,r,i=t;this.pause=function(){window.clearTimeout(n);i-=new Date-r};var s=function(){r=new Date;n=window.setTimeout(function(){i=t;s();e()},i)};this.clear=function(){window.clearTimeout(n);i=t;n=window.setTimeout(function(){i=t;s();e()},i)};this.resume=s;this.resume()}function invoketimer(){timer=new RecurringTimer(function(){svg.setCurrentTime(0)},12000.000000000002)}var svg=document.getElementById("kvg-05c06");var pause=document.getElementById("pause-kvg-05c06");var reset=document.getElementById("reset-kvg-05c06");var timer;invoketimer();reset.onclick=function(){svg.setCurrentTime(0);timer.clear();svg.unpauseAnimations();pause.innerHTML = "◼";};pause.onclick=function(){if(svg.animationsPaused()){svg.unpauseAnimations();timer.resume();pause.innerHTML="◼"}else{svg.pauseAnimations();timer.pause();pause.innerHTML="▶"}}]]></script></svg>