<svg id="kvg-05c4a" class="kanjivg" width="106" height="126" xmlns="http://www.w3.org/2000/svg" xmlns:xlink="http://www.w3.org/1999/xlink" xml:space="preserve" version="1.1" baseProfile="full"><defs><style type="text/css"><![CDATA[path.black{fill:none;stroke:black;stroke-width:5;stroke-linecap:round;stroke-linejoin:round;}path.grey{fill:none;stroke:#ddd;stroke-width:5;stroke-linecap:round;stroke-linejoin:round;}path.stroke{fill:none;stroke:black;stroke-width:5;stroke-linecap:round;stroke-linejoin:round;}rect{fill:none;stroke:#555;stroke-width:2;} text{font-size:16px;font-family:Segoe UI Symbol,Cambria Math,DejaVu Sans,Symbola,Quivira,STIX,Code2000;-webkit-touch-callout:none;cursor:pointer;-webkit-user-select:none;-khtml-user-select:none;-moz-user-select:none;-ms-user-select:none;user-select: none;}text:hover{color:#777;}#reset{font-weight:bold;}]]></style><marker id="markerStart" markerWidth="8" markerHeight="8" style="overflow:visible;"><circle cx="0" cy="0" r="1.5" style="stroke:none;fill:red;fill-opacity:0.5;"/></marker><marker id="markerEnd" style="overflow:visible;"><circle cx="0" cy="0" r="0.8" style="stroke:none;fill:blue;fill-opacity:0.5;"><animate attributeName="opacity" from="1" to="0" dur="3s" repeatCount="indefinite" /></circle></marker></defs><rect x="4" y="4" width="100" height="100" /><path d="M25.5,17.49c1.74,0.65,3.12,0.99,4.97,0.85c9.11-0.66,41.11-3.9,49.65-4.66c3.2-0.28,5.17,0.75,4.44,4.32c-0.76,3.72-1.93,9.24-3.42,15.1" class="grey" /><path d="M29.5,38.5c4.67-0.2,31.9-2.96,46.75-4.17c3.45-0.28,5.37-0.46,8-0.33" class="grey" /><path d="M28.25,18.25c1.12,1.12,1.26,3.1,1.22,4.25c-0.85,28.25-5.1,47.5-18.22,62.75" class="grey" /><path d="M34.42,58.01c0.97,0.97,1.68,2.15,1.84,3.01c1.24,6.72,2.24,16.85,3.6,28.47c0.29,2.48,0.64,4.69,0.82,7.05" class="grey" /><path d="M37.21,60.33C53.62,58.5,73,56.38,84.94,55.68c3.13-0.18,5.63,1.3,5.26,4.57c-0.69,6.13-2.38,18.45-4.36,27.55c-0.42,1.94-0.86,3.72-1.3,5.23" class="grey" /><path d="M59.74,42.32c0.91,0.91,1.51,2.55,1.51,4.18c0,15.25-0.02,41.45-0.02,45.44" class="grey" /><path d="M39.57,75.8c9.81-1.05,34.68-3.43,48-3.91" class="grey" /><path d="M41.64,93.94c11.99-0.94,29.17-2.6,42.52-2.78" class="grey" /><path d="M25.5,17.49c1.74,0.65,3.12,0.99,4.97,0.85c9.11-0.66,41.11-3.9,49.65-4.66c3.2-0.28,5.17,0.75,4.44,4.32c-0.76,3.72-1.93,9.24-3.42,15.1" class="stroke" stroke-dasharray="150"><animate attributeName="stroke-dashoffset" from="150" to="0" dur="1.8s" begin="0.0s" fill="freeze" /></path><path d="M29.5,38.5c4.67-0.2,31.9-2.96,46.75-4.17c3.45-0.28,5.37-0.46,8-0.33" class="stroke" stroke-dasharray="150"><set attributeName="opacity" to="0" dur="1.7s" /><animate attributeName="stroke-dashoffset" from="150" to="0" dur="1.8s" begin="1.7s" fill="freeze" /></path><path d="M28.25,18.25c1.12,1.12,1.26,3.1,1.22,4.25c-0.85,28.25-5.1,47.5-18.22,62.75" class="stroke" stroke-dasharray="150"><set attributeName="opacity" to="0" dur="3.0s" /><animate attributeName="stroke-dashoffset" from="150" to="0" dur="1.8s" begin="3.0s" fill="freeze" /></path><path d="M34.42,58.01c0.97,0.97,1.68,2.15,1.84,3.01c1.24,6.72,2.24,16.85,3.6,28.47c0.29,2.48,0.64,4.69,0.82,7.05" class="stroke" stroke-dasharray="150"><set attributeName="opacity" to="0" dur="4.7s" /><animate attributeName="stroke-dashoffset" from="150" to="0" dur="1.8s" begin="4.7s" fill="freeze" /></path><path d="M37.21,60.33C53.62,58.5,73,56.38,84.94,55.68c3.13-0.18,5.63,1.3,5.26,4.57c-0.69,6.13-2.38,18.45-4.36,27.55c-0.42,1.94-0.86,3.72-1.3,5.23" class="stroke" stroke-dasharray="150"><set attributeName="opacity" to="0" dur="5.7s" /><animate attributeName="stroke-dashoffset" from="150" to="0" dur="1.8s" begin="5.7s" fill="freeze" /></path><path d="M59.74,42.32c0.91,0.91,1.51,2.55,1.51,4.18c0,15.25-0.02,41.45-0.02,45.44" class="stroke" stroke-dasharray="150"><set attributeName="opacity" to="0" dur="7.4s" /><animate attributeName="stroke-dashoffset" from="150" to="0" dur="1.8s" begin="7.4s" fill="freeze" /></path><path d="M39.57,75.8c9.81-1.05,34.68-3.43,48-3.91" class="stroke" stroke-dasharray="150"><set attributeName="opacity" to="0" dur="8.6s" /><animate attributeName="stroke-dashoffset" from="150" to="0" dur="1.8s" begin="8.6s" fill="freeze" /></path><path d="M41.64,93.94c11.99-0.94,29.17-2.6,42.52-2.78" class="stroke" stroke-dasharray="150"><set attributeName="opacity" to="0" dur="9.799999999999999s" /><animate attributeName="stroke-dashoffset" from="150" to="0" dur="1.8s" begin="9.799999999999999s" fill="freeze" /></path><text x="90" y="120" id="reset-kvg-05c4a">⟳</text><text x="70" y="120" id="pause-kvg-05c4a">◼</text><script type="text/javascript"><![CDATA[function RecurringTimer(e,t){var n,r,i=t;this.pause=function(){window.clearTimeout(n);i-=new Date-r};var s=function(){r=new Date;n=window.setTimeout(function(){i=t;s();e()},i)};this.clear=function(){window.clearTimeout(n);i=t;n=window.setTimeout(function(){i=t;s();e()},i)};this.resume=s;this.resume()}function invoketimer(){timer=new RecurringTimer(function(){svg.setCurrentTime(0)},11899.999999999998)}var svg=document.getElementById("kvg-05c4a");var pause=document.getElementById("pause-kvg-05c4a");var reset=document.getElementById("reset-kvg-05c4a");var timer;invoketimer();reset.onclick=function(){svg.setCurrentTime(0);timer.clear();svg.unpauseAnimations();pause.innerHTML = "◼";};pause.onclick=function(){if(svg.animationsPaused()){svg.unpauseAnimations();timer.resume();pause.innerHTML="◼"}else{svg.pauseAnimations();timer.pause();pause.innerHTML="▶"}}]]></script></svg>