<svg id="kvg-05c6f" class="kanjivg" width="106" height="126" xmlns="http://www.w3.org/2000/svg" xmlns:xlink="http://www.w3.org/1999/xlink" xml:space="preserve" version="1.1" baseProfile="full"><defs><style type="text/css"><![CDATA[path.black{fill:none;stroke:black;stroke-width:5;stroke-linecap:round;stroke-linejoin:round;}path.grey{fill:none;stroke:#ddd;stroke-width:5;stroke-linecap:round;stroke-linejoin:round;}path.stroke{fill:none;stroke:black;stroke-width:5;stroke-linecap:round;stroke-linejoin:round;}rect{fill:none;stroke:#555;stroke-width:2;} text{font-size:16px;font-family:Segoe UI Symbol,Cambria Math,DejaVu Sans,Symbola,Quivira,STIX,Code2000;-webkit-touch-callout:none;cursor:pointer;-webkit-user-select:none;-khtml-user-select:none;-moz-user-select:none;-ms-user-select:none;user-select: none;}text:hover{color:#777;}#reset{font-weight:bold;}]]></style><marker id="markerStart" markerWidth="8" markerHeight="8" style="overflow:visible;"><circle cx="0" cy="0" r="1.5" style="stroke:none;fill:red;fill-opacity:0.5;"/></marker><marker id="markerEnd" style="overflow:visible;"><circle cx="0" cy="0" r="0.8" style="stroke:none;fill:blue;fill-opacity:0.5;"><animate attributeName="opacity" from="1" to="0" dur="3s" repeatCount="indefinite" /></circle></marker></defs><rect x="4" y="4" width="100" height="100" /><path d="M80.19,18.25c-0.19,1.25-0.96,2.04-2.16,2.55C67.62,25.25,53.92,30.06,29,34.29" class="grey" /><path d="M26.04,46.52c0.85,0.85,0.96,2.36,0.81,4.2c-0.23,2.79-1.78,12.2-2.23,17.13c-0.23,2.54-0.84,4.44,2.97,3.73C44,68.5,65.38,67,81.09,66.33" class="grey" /><path d="M84.04,40.67c0.71,1.2,0.92,2.6,0.81,3.75c-0.37,4.14-1.28,11.51-2.41,19.11c-0.33,2.22-0.68,4.46-1.04,6.64" class="grey" /><path d="M51.74,11.62c1.13,1.13,1.39,2.75,1.39,4.53c0,9.76,0.12,58.99,0.12,65.63c0,12.48,2,13.99,21.57,13.99c18.94,0,21.27-1.52,21.27-11.13" class="grey" /><path d="M80.19,18.25c-0.19,1.25-0.96,2.04-2.16,2.55C67.62,25.25,53.92,30.06,29,34.29" class="stroke" stroke-dasharray="150"><animate attributeName="stroke-dashoffset" from="150" to="0" dur="1.8s" begin="0.0s" fill="freeze" /></path><path d="M26.04,46.52c0.85,0.85,0.96,2.36,0.81,4.2c-0.23,2.79-1.78,12.2-2.23,17.13c-0.23,2.54-0.84,4.44,2.97,3.73C44,68.5,65.38,67,81.09,66.33" class="stroke" stroke-dasharray="150"><set attributeName="opacity" to="0" dur="1.3s" /><animate attributeName="stroke-dashoffset" from="150" to="0" dur="1.8s" begin="1.3s" fill="freeze" /></path><path d="M84.04,40.67c0.71,1.2,0.92,2.6,0.81,3.75c-0.37,4.14-1.28,11.51-2.41,19.11c-0.33,2.22-0.68,4.46-1.04,6.64" class="stroke" stroke-dasharray="150"><set attributeName="opacity" to="0" dur="3.0s" /><animate attributeName="stroke-dashoffset" from="150" to="0" dur="1.8s" begin="3.0s" fill="freeze" /></path><path d="M51.74,11.62c1.13,1.13,1.39,2.75,1.39,4.53c0,9.76,0.12,58.99,0.12,65.63c0,12.48,2,13.99,21.57,13.99c18.94,0,21.27-1.52,21.27-11.13" class="stroke" stroke-dasharray="150"><set attributeName="opacity" to="0" dur="4.0s" /><animate attributeName="stroke-dashoffset" from="150" to="0" dur="1.8s" begin="4.0s" fill="freeze" /></path><text x="90" y="120" id="reset-kvg-05c6f">⟳</text><text x="70" y="120" id="pause-kvg-05c6f">◼</text><script type="text/javascript"><![CDATA[function RecurringTimer(e,t){var n,r,i=t;this.pause=function(){window.clearTimeout(n);i-=new Date-r};var s=function(){r=new Date;n=window.setTimeout(function(){i=t;s();e()},i)};this.clear=function(){window.clearTimeout(n);i=t;n=window.setTimeout(function(){i=t;s();e()},i)};this.resume=s;this.resume()}function invoketimer(){timer=new RecurringTimer(function(){svg.setCurrentTime(0)},7000.0)}var svg=document.getElementById("kvg-05c6f");var pause=document.getElementById("pause-kvg-05c6f");var reset=document.getElementById("reset-kvg-05c6f");var timer;invoketimer();reset.onclick=function(){svg.setCurrentTime(0);timer.clear();svg.unpauseAnimations();pause.innerHTML = "◼";};pause.onclick=function(){if(svg.animationsPaused()){svg.unpauseAnimations();timer.resume();pause.innerHTML="◼"}else{svg.pauseAnimations();timer.pause();pause.innerHTML="▶"}}]]></script></svg>