<svg id="kvg-05cfa" class="kanjivg" width="106" height="126" xmlns="http://www.w3.org/2000/svg" xmlns:xlink="http://www.w3.org/1999/xlink" xml:space="preserve" version="1.1" baseProfile="full"><defs><style type="text/css"><![CDATA[path.black{fill:none;stroke:black;stroke-width:5;stroke-linecap:round;stroke-linejoin:round;}path.grey{fill:none;stroke:#ddd;stroke-width:5;stroke-linecap:round;stroke-linejoin:round;}path.stroke{fill:none;stroke:black;stroke-width:5;stroke-linecap:round;stroke-linejoin:round;}rect{fill:none;stroke:#555;stroke-width:2;} text{font-size:16px;font-family:Segoe UI Symbol,Cambria Math,DejaVu Sans,Symbola,Quivira,STIX,Code2000;-webkit-touch-callout:none;cursor:pointer;-webkit-user-select:none;-khtml-user-select:none;-moz-user-select:none;-ms-user-select:none;user-select: none;}text:hover{color:#777;}#reset{font-weight:bold;}]]></style><marker id="markerStart" markerWidth="8" markerHeight="8" style="overflow:visible;"><circle cx="0" cy="0" r="1.5" style="stroke:none;fill:red;fill-opacity:0.5;"/></marker><marker id="markerEnd" style="overflow:visible;"><circle cx="0" cy="0" r="0.8" style="stroke:none;fill:blue;fill-opacity:0.5;"><animate attributeName="opacity" from="1" to="0" dur="3s" repeatCount="indefinite" /></circle></marker></defs><rect x="4" y="4" width="100" height="100" /><path d="M24.6,17.25c0.63,0.35,2.09,2.62,2.09,3.33c0,7.36,0.26,41.88,0.26,51.32" class="grey" /><path d="M12.79,47.83c0.69,0.39,1.44,2.02,1.38,2.8c-0.39,5.38-0.37,14.58-1.75,22.67c-0.3,1.76,0.2,2.16,1.89,1.77c9.6-2.25,13.97-2.73,25.63-4.97" class="grey" /><path d="M40.17,42.55c0.69,0.39,1.38,2.88,1.38,3.67c0,6.05-0.8,16.29-1.45,26.07" class="grey" /><path d="M46.82,18.65c0.97,0.48,2.75,0.61,3.71,0.48c6.17-0.83,27.08-3.46,36.91-3.6c1.62-0.02,2.58,0.23,3.39,0.47" class="grey" /><path d="M47.23,31.91c0.52,0.76,1.05,1.7,1.05,2.72s3.64,25.11,3.81,26.12" class="grey" /><path d="M49.15,33.14c2.96-0.13,37.24-3.75,39.93-3.9c2.25-0.13,3.54,1.16,2.89,4.97c-1.02,5.99-1.46,10.48-4.48,23.75" class="grey" /><path d="M50.12,45.78c7.44-1.3,34.18-3.84,38.71-3.84" class="grey" /><path d="M52.27,58.89c11.52-1.55,23.23-2.64,35.47-3.08" class="grey" /><path d="M68.75,20c0.75,1.5,0.71,2.75,0.71,4.93c0,34.57-0.71,61.57-30.46,73.61" class="grey" /><path d="M49.72,67.75C57.25,70,78,89.25,92.32,94.67c2.6,0.98,4.5,1.95,6.93,2.33" class="grey" /><path d="M24.6,17.25c0.63,0.35,2.09,2.62,2.09,3.33c0,7.36,0.26,41.88,0.26,51.32" class="stroke" stroke-dasharray="150"><animate attributeName="stroke-dashoffset" from="150" to="0" dur="1.8s" begin="0.0s" fill="freeze" /></path><path d="M12.79,47.83c0.69,0.39,1.44,2.02,1.38,2.8c-0.39,5.38-0.37,14.58-1.75,22.67c-0.3,1.76,0.2,2.16,1.89,1.77c9.6-2.25,13.97-2.73,25.63-4.97" class="stroke" stroke-dasharray="150"><set attributeName="opacity" to="0" dur="1.4s" /><animate attributeName="stroke-dashoffset" from="150" to="0" dur="1.8s" begin="1.4s" fill="freeze" /></path><path d="M40.17,42.55c0.69,0.39,1.38,2.88,1.38,3.67c0,6.05-0.8,16.29-1.45,26.07" class="stroke" stroke-dasharray="150"><set attributeName="opacity" to="0" dur="2.8s" /><animate attributeName="stroke-dashoffset" from="150" to="0" dur="1.8s" begin="2.8s" fill="freeze" /></path><path d="M46.82,18.65c0.97,0.48,2.75,0.61,3.71,0.48c6.17-0.83,27.08-3.46,36.91-3.6c1.62-0.02,2.58,0.23,3.39,0.47" class="stroke" stroke-dasharray="150"><set attributeName="opacity" to="0" dur="3.8s" /><animate attributeName="stroke-dashoffset" from="150" to="0" dur="1.8s" begin="3.8s" fill="freeze" /></path><path d="M47.23,31.91c0.52,0.76,1.05,1.7,1.05,2.72s3.64,25.11,3.81,26.12" class="stroke" stroke-dasharray="150"><set attributeName="opacity" to="0" dur="4.9s" /><animate attributeName="stroke-dashoffset" from="150" to="0" dur="1.8s" begin="4.9s" fill="freeze" /></path><path d="M49.15,33.14c2.96-0.13,37.24-3.75,39.93-3.9c2.25-0.13,3.54,1.16,2.89,4.97c-1.02,5.99-1.46,10.48-4.48,23.75" class="stroke" stroke-dasharray="150"><set attributeName="opacity" to="0" dur="5.9s" /><animate attributeName="stroke-dashoffset" from="150" to="0" dur="1.8s" begin="5.9s" fill="freeze" /></path><path d="M50.12,45.78c7.44-1.3,34.18-3.84,38.71-3.84" class="stroke" stroke-dasharray="150"><set attributeName="opacity" to="0" dur="7.6000000000000005s" /><animate attributeName="stroke-dashoffset" from="150" to="0" dur="1.8s" begin="7.6000000000000005s" fill="freeze" /></path><path d="M52.27,58.89c11.52-1.55,23.23-2.64,35.47-3.08" class="stroke" stroke-dasharray="150"><set attributeName="opacity" to="0" dur="8.600000000000001s" /><animate attributeName="stroke-dashoffset" from="150" to="0" dur="1.8s" begin="8.600000000000001s" fill="freeze" /></path><path d="M68.75,20c0.75,1.5,0.71,2.75,0.71,4.93c0,34.57-0.71,61.57-30.46,73.61" class="stroke" stroke-dasharray="150"><set attributeName="opacity" to="0" dur="9.600000000000001s" /><animate attributeName="stroke-dashoffset" from="150" to="0" dur="1.8s" begin="9.600000000000001s" fill="freeze" /></path><path d="M49.72,67.75C57.25,70,78,89.25,92.32,94.67c2.6,0.98,4.5,1.95,6.93,2.33" class="stroke" stroke-dasharray="150"><set attributeName="opacity" to="0" dur="11.400000000000002s" /><animate attributeName="stroke-dashoffset" from="150" to="0" dur="1.8s" begin="11.400000000000002s" fill="freeze" /></path><text x="90" y="120" id="reset-kvg-05cfa">⟳</text><text x="70" y="120" id="pause-kvg-05cfa">◼</text><script type="text/javascript"><![CDATA[function RecurringTimer(e,t){var n,r,i=t;this.pause=function(){window.clearTimeout(n);i-=new Date-r};var s=function(){r=new Date;n=window.setTimeout(function(){i=t;s();e()},i)};this.clear=function(){window.clearTimeout(n);i=t;n=window.setTimeout(function(){i=t;s();e()},i)};this.resume=s;this.resume()}function invoketimer(){timer=new RecurringTimer(function(){svg.setCurrentTime(0)},13800.000000000002)}var svg=document.getElementById("kvg-05cfa");var pause=document.getElementById("pause-kvg-05cfa");var reset=document.getElementById("reset-kvg-05cfa");var timer;invoketimer();reset.onclick=function(){svg.setCurrentTime(0);timer.clear();svg.unpauseAnimations();pause.innerHTML = "◼";};pause.onclick=function(){if(svg.animationsPaused()){svg.unpauseAnimations();timer.resume();pause.innerHTML="◼"}else{svg.pauseAnimations();timer.pause();pause.innerHTML="▶"}}]]></script></svg>