<svg id="kvg-05d69" class="kanjivg" width="106" height="126" xmlns="http://www.w3.org/2000/svg" xmlns:xlink="http://www.w3.org/1999/xlink" xml:space="preserve" version="1.1" baseProfile="full"><defs><style type="text/css"><![CDATA[path.black{fill:none;stroke:black;stroke-width:5;stroke-linecap:round;stroke-linejoin:round;}path.grey{fill:none;stroke:#ddd;stroke-width:5;stroke-linecap:round;stroke-linejoin:round;}path.stroke{fill:none;stroke:black;stroke-width:5;stroke-linecap:round;stroke-linejoin:round;}rect{fill:none;stroke:#555;stroke-width:2;} text{font-size:16px;font-family:Segoe UI Symbol,Cambria Math,DejaVu Sans,Symbola,Quivira,STIX,Code2000;-webkit-touch-callout:none;cursor:pointer;-webkit-user-select:none;-khtml-user-select:none;-moz-user-select:none;-ms-user-select:none;user-select: none;}text:hover{color:#777;}#reset{font-weight:bold;}]]></style><marker id="markerStart" markerWidth="8" markerHeight="8" style="overflow:visible;"><circle cx="0" cy="0" r="1.5" style="stroke:none;fill:red;fill-opacity:0.5;"/></marker><marker id="markerEnd" style="overflow:visible;"><circle cx="0" cy="0" r="0.8" style="stroke:none;fill:blue;fill-opacity:0.5;"><animate attributeName="opacity" from="1" to="0" dur="3s" repeatCount="indefinite" /></circle></marker></defs><rect x="4" y="4" width="100" height="100" /><path d="M52,9.15c0.86,0.86,1.14,1.97,1.14,3.09c0,0.71,0.09,5.01,0.09,9.93" class="grey" /><path d="M26.8,16.14c0.49,0.35,0.72,2.38,0.49,3.05c-0.68,1.99-1.05,3.6-1.6,5.08c-0.86,2.33-0.5,2.85,1.95,2.44C46,23.62,63.75,22,80.3,21.24" class="grey" /><path d="M82.27,11.38c0.61,1.25,0.48,2.12,0.24,3.34c-0.53,2.6-0.97,4.49-1.46,6.67c-0.32,1.43-0.67,2.99-1.08,4.96" class="grey" /><path d="M52.83,29.5c1.15,1.15,1.16,2.38,1.16,4.05c0,1.45-0.12,1.68-0.12,3.83" class="grey" /><path d="M20.85,40.45c3.28,0.55,6.19,0.4,9.53,0.05c11.54-1.21,34.7-3.58,48.51-4.27c3.21-0.16,7.26-0.47,10.31,0.65" class="grey" /><path d="M36.33,47.05c0.62,0.62,1.21,1.35,1.57,2.48c0.94,2.99,1.56,4.98,2.19,7.19c0.29,0.99,0.57,2.03,0.9,3.22" class="grey" /><path d="M38.45,48.22c10.27-1.28,22.6-3.19,28.47-3.52c2.8-0.15,2.98,1.47,2.2,3.68c-0.75,2.12-1,3-2.05,6.24" class="grey" /><path d="M41.97,58.04c8.21-0.78,13.86-1.53,21.8-2.37c1.41-0.15,2.88-0.3,4.46-0.46" class="grey" /><path d="M23,66.53c0.92,0.92,1.11,2.12,1.4,4.25c0.67,4.93,2.07,14.76,3.16,22.85c0.29,2.11,0.55,4.11,0.78,5.87" class="grey" /><path d="M25.02,68.13c11.11-1.01,50.73-4.63,57.17-5.18c4.41-0.37,7,0.95,6.07,7.36c-1.29,8.82-2.35,18.51-5.34,25.42c-2.67,6.18-5.17,1.64-7.33-0.75" class="grey" /><path d="M40.9,75.74c0.74,0.74,1.13,1.68,1.31,2.66c0.91,3.73,1.57,6.77,2.37,10.7" class="grey" /><path d="M42.12,76.48c8.1-1.34,17.2-2.69,21.82-3.17c1.85-0.19,4.15,1.1,3.34,3.22c-1.03,2.72-1.67,4.32-3.01,8.05" class="grey" /><path d="M45.27,87.09c4.45-0.31,10.27-1.14,16.34-1.76c1.36-0.14,2.74-0.27,4.11-0.37" class="grey" /><path d="M52,9.15c0.86,0.86,1.14,1.97,1.14,3.09c0,0.71,0.09,5.01,0.09,9.93" class="stroke" stroke-dasharray="150"><animate attributeName="stroke-dashoffset" from="150" to="0" dur="1.8s" begin="0.0s" fill="freeze" /></path><path d="M26.8,16.14c0.49,0.35,0.72,2.38,0.49,3.05c-0.68,1.99-1.05,3.6-1.6,5.08c-0.86,2.33-0.5,2.85,1.95,2.44C46,23.62,63.75,22,80.3,21.24" class="stroke" stroke-dasharray="150"><set attributeName="opacity" to="0" dur="0.9s" /><animate attributeName="stroke-dashoffset" from="150" to="0" dur="1.8s" begin="0.9s" fill="freeze" /></path><path d="M82.27,11.38c0.61,1.25,0.48,2.12,0.24,3.34c-0.53,2.6-0.97,4.49-1.46,6.67c-0.32,1.43-0.67,2.99-1.08,4.96" class="stroke" stroke-dasharray="150"><set attributeName="opacity" to="0" dur="2.4s" /><animate attributeName="stroke-dashoffset" from="150" to="0" dur="1.8s" begin="2.4s" fill="freeze" /></path><path d="M52.83,29.5c1.15,1.15,1.16,2.38,1.16,4.05c0,1.45-0.12,1.68-0.12,3.83" class="stroke" stroke-dasharray="150"><set attributeName="opacity" to="0" dur="3.3s" /><animate attributeName="stroke-dashoffset" from="150" to="0" dur="1.8s" begin="3.3s" fill="freeze" /></path><path d="M20.85,40.45c3.28,0.55,6.19,0.4,9.53,0.05c11.54-1.21,34.7-3.58,48.51-4.27c3.21-0.16,7.26-0.47,10.31,0.65" class="stroke" stroke-dasharray="150"><set attributeName="opacity" to="0" dur="4.2s" /><animate attributeName="stroke-dashoffset" from="150" to="0" dur="1.8s" begin="4.2s" fill="freeze" /></path><path d="M36.33,47.05c0.62,0.62,1.21,1.35,1.57,2.48c0.94,2.99,1.56,4.98,2.19,7.19c0.29,0.99,0.57,2.03,0.9,3.22" class="stroke" stroke-dasharray="150"><set attributeName="opacity" to="0" dur="5.7s" /><animate attributeName="stroke-dashoffset" from="150" to="0" dur="1.8s" begin="5.7s" fill="freeze" /></path><path d="M38.45,48.22c10.27-1.28,22.6-3.19,28.47-3.52c2.8-0.15,2.98,1.47,2.2,3.68c-0.75,2.12-1,3-2.05,6.24" class="stroke" stroke-dasharray="150"><set attributeName="opacity" to="0" dur="6.6000000000000005s" /><animate attributeName="stroke-dashoffset" from="150" to="0" dur="1.8s" begin="6.6000000000000005s" fill="freeze" /></path><path d="M41.97,58.04c8.21-0.78,13.86-1.53,21.8-2.37c1.41-0.15,2.88-0.3,4.46-0.46" class="stroke" stroke-dasharray="150"><set attributeName="opacity" to="0" dur="7.700000000000001s" /><animate attributeName="stroke-dashoffset" from="150" to="0" dur="1.8s" begin="7.700000000000001s" fill="freeze" /></path><path d="M23,66.53c0.92,0.92,1.11,2.12,1.4,4.25c0.67,4.93,2.07,14.76,3.16,22.85c0.29,2.11,0.55,4.11,0.78,5.87" class="stroke" stroke-dasharray="150"><set attributeName="opacity" to="0" dur="8.700000000000001s" /><animate attributeName="stroke-dashoffset" from="150" to="0" dur="1.8s" begin="8.700000000000001s" fill="freeze" /></path><path d="M25.02,68.13c11.11-1.01,50.73-4.63,57.17-5.18c4.41-0.37,7,0.95,6.07,7.36c-1.29,8.82-2.35,18.51-5.34,25.42c-2.67,6.18-5.17,1.64-7.33-0.75" class="stroke" stroke-dasharray="150"><set attributeName="opacity" to="0" dur="9.700000000000001s" /><animate attributeName="stroke-dashoffset" from="150" to="0" dur="1.8s" begin="9.700000000000001s" fill="freeze" /></path><path d="M40.9,75.74c0.74,0.74,1.13,1.68,1.31,2.66c0.91,3.73,1.57,6.77,2.37,10.7" class="stroke" stroke-dasharray="150"><set attributeName="opacity" to="0" dur="11.600000000000001s" /><animate attributeName="stroke-dashoffset" from="150" to="0" dur="1.8s" begin="11.600000000000001s" fill="freeze" /></path><path d="M42.12,76.48c8.1-1.34,17.2-2.69,21.82-3.17c1.85-0.19,4.15,1.1,3.34,3.22c-1.03,2.72-1.67,4.32-3.01,8.05" class="stroke" stroke-dasharray="150"><set attributeName="opacity" to="0" dur="12.500000000000002s" /><animate attributeName="stroke-dashoffset" from="150" to="0" dur="1.8s" begin="12.500000000000002s" fill="freeze" /></path><path d="M45.27,87.09c4.45-0.31,10.27-1.14,16.34-1.76c1.36-0.14,2.74-0.27,4.11-0.37" class="stroke" stroke-dasharray="150"><set attributeName="opacity" to="0" dur="13.500000000000002s" /><animate attributeName="stroke-dashoffset" from="150" to="0" dur="1.8s" begin="13.500000000000002s" fill="freeze" /></path><text x="90" y="120" id="reset-kvg-05d69">⟳</text><text x="70" y="120" id="pause-kvg-05d69">◼</text><script type="text/javascript"><![CDATA[function RecurringTimer(e,t){var n,r,i=t;this.pause=function(){window.clearTimeout(n);i-=new Date-r};var s=function(){r=new Date;n=window.setTimeout(function(){i=t;s();e()},i)};this.clear=function(){window.clearTimeout(n);i=t;n=window.setTimeout(function(){i=t;s();e()},i)};this.resume=s;this.resume()}function invoketimer(){timer=new RecurringTimer(function(){svg.setCurrentTime(0)},15500.000000000002)}var svg=document.getElementById("kvg-05d69");var pause=document.getElementById("pause-kvg-05d69");var reset=document.getElementById("reset-kvg-05d69");var timer;invoketimer();reset.onclick=function(){svg.setCurrentTime(0);timer.clear();svg.unpauseAnimations();pause.innerHTML = "◼";};pause.onclick=function(){if(svg.animationsPaused()){svg.unpauseAnimations();timer.resume();pause.innerHTML="◼"}else{svg.pauseAnimations();timer.pause();pause.innerHTML="▶"}}]]></script></svg>