<svg id="kvg-05de3-Kaisho" class="kanjivg" width="106" height="126" xmlns="http://www.w3.org/2000/svg" xmlns:xlink="http://www.w3.org/1999/xlink" xml:space="preserve" version="1.1" baseProfile="full"><defs><style type="text/css"><![CDATA[path.black{fill:none;stroke:black;stroke-width:5;stroke-linecap:round;stroke-linejoin:round;}path.grey{fill:none;stroke:#ddd;stroke-width:5;stroke-linecap:round;stroke-linejoin:round;}path.stroke{fill:none;stroke:black;stroke-width:5;stroke-linecap:round;stroke-linejoin:round;}rect{fill:none;stroke:#555;stroke-width:2;} text{font-size:16px;font-family:Segoe UI Symbol,Cambria Math,DejaVu Sans,Symbola,Quivira,STIX,Code2000;-webkit-touch-callout:none;cursor:pointer;-webkit-user-select:none;-khtml-user-select:none;-moz-user-select:none;-ms-user-select:none;user-select: none;}text:hover{color:#777;}#reset{font-weight:bold;}]]></style><marker id="markerStart" markerWidth="8" markerHeight="8" style="overflow:visible;"><circle cx="0" cy="0" r="1.5" style="stroke:none;fill:red;fill-opacity:0.5;"/></marker><marker id="markerEnd" style="overflow:visible;"><circle cx="0" cy="0" r="0.8" style="stroke:none;fill:blue;fill-opacity:0.5;"><animate attributeName="opacity" from="1" to="0" dur="3s" repeatCount="indefinite" /></circle></marker></defs><rect x="4" y="4" width="100" height="100" /><path d="M28.75,17c3.16,3.15,6.55,8.67,7,10.25" class="grey" /><path d="M47.25,12.75c1.51,2.38,5.14,8.63,5.75,12.5" class="grey" /><path d="M75.5,10.5c0.5,0.75,1,1.5,0.75,3s-5.75,8.5-7.5,10.75" class="grey" /><path d="M28.29,33.56c0.72,0.6,1.75,1.3,1.75,2.13c0,0.83,4.74,22.8,4.74,23.22c0,0.42,0.13,0.41,0.26,1.24" class="grey" /><path d="M30.18,34.86c2.15-0.18,42.92-4.95,44.88-5.02c2.58-0.08,3.67,2.29,3.54,2.92c-0.25,1.26-4.77,23.56-4.77,24.19" class="grey" /><path d="M32.07,46.52c9.85-0.34,19.74-1.61,29.57-2.44c1.22-0.1,2.41-0.2,3.54-0.3" class="grey" /><path d="M35.91,58.2c5.92-0.66,30.65-3.08,38.02-3.73" class="grey" /><path d="M20.8,69.47c0.68,0.23,2.48,0.59,4.29,0.68c4.96,0.23,45.8-4.46,60.24-4.91c1.8-0.06,2.25,0.23,3.38,0.45" class="grey" /><path d="M51.92,32.31c1.13,0.45,2.03,2,2.03,2.93c0,4.76-0.23,58.58-0.23,59.26c0,11.75-5.48,3.25-6.48,2.25" class="grey" /><path d="M51.47,68.85c-5.72,9.17-20.6,22.13-32.51,27.32" class="grey" /><path d="M53.95,67.49c4.89,3.54,26.36,20.31,31.68,23.79c1.8,1.18,3.35,1.69,5.15,2.03" class="grey" /><path d="M28.75,17c3.16,3.15,6.55,8.67,7,10.25" class="stroke" stroke-dasharray="150"><animate attributeName="stroke-dashoffset" from="150" to="0" dur="1.8s" begin="0.0s" fill="freeze" /></path><path d="M47.25,12.75c1.51,2.38,5.14,8.63,5.75,12.5" class="stroke" stroke-dasharray="150"><set attributeName="opacity" to="0" dur="0.9s" /><animate attributeName="stroke-dashoffset" from="150" to="0" dur="1.8s" begin="0.9s" fill="freeze" /></path><path d="M75.5,10.5c0.5,0.75,1,1.5,0.75,3s-5.75,8.5-7.5,10.75" class="stroke" stroke-dasharray="150"><set attributeName="opacity" to="0" dur="1.8s" /><animate attributeName="stroke-dashoffset" from="150" to="0" dur="1.8s" begin="1.8s" fill="freeze" /></path><path d="M28.29,33.56c0.72,0.6,1.75,1.3,1.75,2.13c0,0.83,4.74,22.8,4.74,23.22c0,0.42,0.13,0.41,0.26,1.24" class="stroke" stroke-dasharray="150"><set attributeName="opacity" to="0" dur="2.7s" /><animate attributeName="stroke-dashoffset" from="150" to="0" dur="1.8s" begin="2.7s" fill="freeze" /></path><path d="M30.18,34.86c2.15-0.18,42.92-4.95,44.88-5.02c2.58-0.08,3.67,2.29,3.54,2.92c-0.25,1.26-4.77,23.56-4.77,24.19" class="stroke" stroke-dasharray="150"><set attributeName="opacity" to="0" dur="3.7s" /><animate attributeName="stroke-dashoffset" from="150" to="0" dur="1.8s" begin="3.7s" fill="freeze" /></path><path d="M32.07,46.52c9.85-0.34,19.74-1.61,29.57-2.44c1.22-0.1,2.41-0.2,3.54-0.3" class="stroke" stroke-dasharray="150"><set attributeName="opacity" to="0" dur="5.4s" /><animate attributeName="stroke-dashoffset" from="150" to="0" dur="1.8s" begin="5.4s" fill="freeze" /></path><path d="M35.91,58.2c5.92-0.66,30.65-3.08,38.02-3.73" class="stroke" stroke-dasharray="150"><set attributeName="opacity" to="0" dur="6.4s" /><animate attributeName="stroke-dashoffset" from="150" to="0" dur="1.8s" begin="6.4s" fill="freeze" /></path><path d="M20.8,69.47c0.68,0.23,2.48,0.59,4.29,0.68c4.96,0.23,45.8-4.46,60.24-4.91c1.8-0.06,2.25,0.23,3.38,0.45" class="stroke" stroke-dasharray="150"><set attributeName="opacity" to="0" dur="7.4s" /><animate attributeName="stroke-dashoffset" from="150" to="0" dur="1.8s" begin="7.4s" fill="freeze" /></path><path d="M51.92,32.31c1.13,0.45,2.03,2,2.03,2.93c0,4.76-0.23,58.58-0.23,59.26c0,11.75-5.48,3.25-6.48,2.25" class="stroke" stroke-dasharray="150"><set attributeName="opacity" to="0" dur="8.9s" /><animate attributeName="stroke-dashoffset" from="150" to="0" dur="1.8s" begin="8.9s" fill="freeze" /></path><path d="M51.47,68.85c-5.72,9.17-20.6,22.13-32.51,27.32" class="stroke" stroke-dasharray="150"><set attributeName="opacity" to="0" dur="10.6s" /><animate attributeName="stroke-dashoffset" from="150" to="0" dur="1.8s" begin="10.6s" fill="freeze" /></path><path d="M53.95,67.49c4.89,3.54,26.36,20.31,31.68,23.79c1.8,1.18,3.35,1.69,5.15,2.03" class="stroke" stroke-dasharray="150"><set attributeName="opacity" to="0" dur="11.7s" /><animate attributeName="stroke-dashoffset" from="150" to="0" dur="1.8s" begin="11.7s" fill="freeze" /></path><text x="90" y="120" id="reset-kvg-05de3-Kaisho">⟳</text><text x="70" y="120" id="pause-kvg-05de3-Kaisho">◼</text><script type="text/javascript"><![CDATA[function RecurringTimer(e,t){var n,r,i=t;this.pause=function(){window.clearTimeout(n);i-=new Date-r};var s=function(){r=new Date;n=window.setTimeout(function(){i=t;s();e()},i)};this.clear=function(){window.clearTimeout(n);i=t;n=window.setTimeout(function(){i=t;s();e()},i)};this.resume=s;this.resume()}function invoketimer(){timer=new RecurringTimer(function(){svg.setCurrentTime(0)},13899.999999999998)}var svg=document.getElementById("kvg-05de3-Kaisho");var pause=document.getElementById("pause-kvg-05de3-Kaisho");var reset=document.getElementById("reset-kvg-05de3-Kaisho");var timer;invoketimer();reset.onclick=function(){svg.setCurrentTime(0);timer.clear();svg.unpauseAnimations();pause.innerHTML = "◼";};pause.onclick=function(){if(svg.animationsPaused()){svg.unpauseAnimations();timer.resume();pause.innerHTML="◼"}else{svg.pauseAnimations();timer.pause();pause.innerHTML="▶"}}]]></script></svg>