<svg id="kvg-05e02" class="kanjivg" width="106" height="126" xmlns="http://www.w3.org/2000/svg" xmlns:xlink="http://www.w3.org/1999/xlink" xml:space="preserve" version="1.1" baseProfile="full"><defs><style type="text/css"><![CDATA[path.black{fill:none;stroke:black;stroke-width:5;stroke-linecap:round;stroke-linejoin:round;}path.grey{fill:none;stroke:#ddd;stroke-width:5;stroke-linecap:round;stroke-linejoin:round;}path.stroke{fill:none;stroke:black;stroke-width:5;stroke-linecap:round;stroke-linejoin:round;}rect{fill:none;stroke:#555;stroke-width:2;} text{font-size:16px;font-family:Segoe UI Symbol,Cambria Math,DejaVu Sans,Symbola,Quivira,STIX,Code2000;-webkit-touch-callout:none;cursor:pointer;-webkit-user-select:none;-khtml-user-select:none;-moz-user-select:none;-ms-user-select:none;user-select: none;}text:hover{color:#777;}#reset{font-weight:bold;}]]></style><marker id="markerStart" markerWidth="8" markerHeight="8" style="overflow:visible;"><circle cx="0" cy="0" r="1.5" style="stroke:none;fill:red;fill-opacity:0.5;"/></marker><marker id="markerEnd" style="overflow:visible;"><circle cx="0" cy="0" r="0.8" style="stroke:none;fill:blue;fill-opacity:0.5;"><animate attributeName="opacity" from="1" to="0" dur="3s" repeatCount="indefinite" /></circle></marker></defs><rect x="4" y="4" width="100" height="100" /><path d="M52.86,12c1.26,1.26,1.48,2.5,1.48,4.66c0,4.84-0.15,6.46-0.15,8.9" class="grey" /><path d="M15.5,28.96c3.65,0.76,7.24,0.69,9.36,0.46c16.74-1.8,45.31-4.8,60.95-5.6c3.62-0.19,5.48,0.04,8.18,0.59" class="grey" /><path d="M27.31,46c1.22,1.22,1.6,2.75,1.6,4.61c0,3.34-0.06,19.8-0.16,28.65c-0.02,2.13-0.05,3.8-0.08,4.72" class="grey" /><path d="M30.28,48.5c12.28-1.24,45.6-4.38,48.37-4.38c3.6,0,5.35,0.87,5.35,5.09c0,9.3-0.25,21.16-1.4,29.97c-1.06,8.11-6.24,0.06-7.73-1.27" class="grey" /><path d="M53.53,32.88c1.17,1.17,1.85,2.87,1.85,4.36c0,5.51-0.27,35.65-0.32,54.26c-0.01,2.28-0.01,4.31-0.01,6" class="grey" /><path d="M52.86,12c1.26,1.26,1.48,2.5,1.48,4.66c0,4.84-0.15,6.46-0.15,8.9" class="stroke" stroke-dasharray="150"><animate attributeName="stroke-dashoffset" from="150" to="0" dur="1.8s" begin="0.0s" fill="freeze" /></path><path d="M15.5,28.96c3.65,0.76,7.24,0.69,9.36,0.46c16.74-1.8,45.31-4.8,60.95-5.6c3.62-0.19,5.48,0.04,8.18,0.59" class="stroke" stroke-dasharray="150"><set attributeName="opacity" to="0" dur="0.9s" /><animate attributeName="stroke-dashoffset" from="150" to="0" dur="1.8s" begin="0.9s" fill="freeze" /></path><path d="M27.31,46c1.22,1.22,1.6,2.75,1.6,4.61c0,3.34-0.06,19.8-0.16,28.65c-0.02,2.13-0.05,3.8-0.08,4.72" class="stroke" stroke-dasharray="150"><set attributeName="opacity" to="0" dur="2.6s" /><animate attributeName="stroke-dashoffset" from="150" to="0" dur="1.8s" begin="2.6s" fill="freeze" /></path><path d="M30.28,48.5c12.28-1.24,45.6-4.38,48.37-4.38c3.6,0,5.35,0.87,5.35,5.09c0,9.3-0.25,21.16-1.4,29.97c-1.06,8.11-6.24,0.06-7.73-1.27" class="stroke" stroke-dasharray="150"><set attributeName="opacity" to="0" dur="3.6s" /><animate attributeName="stroke-dashoffset" from="150" to="0" dur="1.8s" begin="3.6s" fill="freeze" /></path><path d="M53.53,32.88c1.17,1.17,1.85,2.87,1.85,4.36c0,5.51-0.27,35.65-0.32,54.26c-0.01,2.28-0.01,4.31-0.01,6" class="stroke" stroke-dasharray="150"><set attributeName="opacity" to="0" dur="5.4s" /><animate attributeName="stroke-dashoffset" from="150" to="0" dur="1.8s" begin="5.4s" fill="freeze" /></path><text x="90" y="120" id="reset-kvg-05e02">⟳</text><text x="70" y="120" id="pause-kvg-05e02">◼</text><script type="text/javascript"><![CDATA[function RecurringTimer(e,t){var n,r,i=t;this.pause=function(){window.clearTimeout(n);i-=new Date-r};var s=function(){r=new Date;n=window.setTimeout(function(){i=t;s();e()},i)};this.clear=function(){window.clearTimeout(n);i=t;n=window.setTimeout(function(){i=t;s();e()},i)};this.resume=s;this.resume()}function invoketimer(){timer=new RecurringTimer(function(){svg.setCurrentTime(0)},7900.0)}var svg=document.getElementById("kvg-05e02");var pause=document.getElementById("pause-kvg-05e02");var reset=document.getElementById("reset-kvg-05e02");var timer;invoketimer();reset.onclick=function(){svg.setCurrentTime(0);timer.clear();svg.unpauseAnimations();pause.innerHTML = "◼";};pause.onclick=function(){if(svg.animationsPaused()){svg.unpauseAnimations();timer.resume();pause.innerHTML="◼"}else{svg.pauseAnimations();timer.pause();pause.innerHTML="▶"}}]]></script></svg>