<svg id="kvg-05e78" class="kanjivg" width="106" height="126" xmlns="http://www.w3.org/2000/svg" xmlns:xlink="http://www.w3.org/1999/xlink" xml:space="preserve" version="1.1" baseProfile="full"><defs><style type="text/css"><![CDATA[path.black{fill:none;stroke:black;stroke-width:5;stroke-linecap:round;stroke-linejoin:round;}path.grey{fill:none;stroke:#ddd;stroke-width:5;stroke-linecap:round;stroke-linejoin:round;}path.stroke{fill:none;stroke:black;stroke-width:5;stroke-linecap:round;stroke-linejoin:round;}rect{fill:none;stroke:#555;stroke-width:2;} text{font-size:16px;font-family:Segoe UI Symbol,Cambria Math,DejaVu Sans,Symbola,Quivira,STIX,Code2000;-webkit-touch-callout:none;cursor:pointer;-webkit-user-select:none;-khtml-user-select:none;-moz-user-select:none;-ms-user-select:none;user-select: none;}text:hover{color:#777;}#reset{font-weight:bold;}]]></style><marker id="markerStart" markerWidth="8" markerHeight="8" style="overflow:visible;"><circle cx="0" cy="0" r="1.5" style="stroke:none;fill:red;fill-opacity:0.5;"/></marker><marker id="markerEnd" style="overflow:visible;"><circle cx="0" cy="0" r="0.8" style="stroke:none;fill:blue;fill-opacity:0.5;"><animate attributeName="opacity" from="1" to="0" dur="3s" repeatCount="indefinite" /></circle></marker></defs><rect x="4" y="4" width="100" height="100" /><path d="M31.75,25.8c1.53,0.38,4.34,0.53,5.86,0.38C47.12,25.25,61,23.62,72.4,22.8c2.54-0.18,4.08,0.18,5.35,0.37" class="grey" /><path d="M53.67,11c0.91,0.91,1.52,2.27,1.52,4.14c0,12.11-0.19,20.57-0.19,23.61" class="grey" /><path d="M12.38,41.61c2.57,0.54,7.31,0.82,9.86,0.54c22.76-2.53,46.26-4.4,64.64-4.98c4.28-0.13,6.86,0.26,9,0.53" class="grey" /><path d="M35.78,44.04c2.75,2.24,7.09,9.2,7.78,12.67" class="grey" /><path d="M71.12,41.12c0.06,0.74-0.14,1.76-0.47,2.41c-1.53,2.97-3.78,8.07-7.09,11.43" class="grey" /><path d="M22.88,60.48c2.25,0.52,4.87,0.64,7.44,0.38c9.92-1,34.23-2.99,48.46-3.5c2.27-0.08,5.16-0.12,7.35,0.33" class="grey" /><path d="M30.88,75.15c1.72,0.46,4.9,0.61,6.61,0.46c11.13-0.98,22.88-1.98,34.48-2.66c2.87-0.17,4.6,0.22,6.04,0.45" class="grey" /><path d="M54.56,60.5c0.85,0.85,1.04,2.12,1.04,3.83c0,3.42-0.12,19.17-0.12,29.67c0,2.15-0.04,3.91-0.06,5" class="grey" /><path d="M31.75,25.8c1.53,0.38,4.34,0.53,5.86,0.38C47.12,25.25,61,23.62,72.4,22.8c2.54-0.18,4.08,0.18,5.35,0.37" class="stroke" stroke-dasharray="150"><animate attributeName="stroke-dashoffset" from="150" to="0" dur="1.8s" begin="0.0s" fill="freeze" /></path><path d="M53.67,11c0.91,0.91,1.52,2.27,1.52,4.14c0,12.11-0.19,20.57-0.19,23.61" class="stroke" stroke-dasharray="150"><set attributeName="opacity" to="0" dur="1.2s" /><animate attributeName="stroke-dashoffset" from="150" to="0" dur="1.8s" begin="1.2s" fill="freeze" /></path><path d="M12.38,41.61c2.57,0.54,7.31,0.82,9.86,0.54c22.76-2.53,46.26-4.4,64.64-4.98c4.28-0.13,6.86,0.26,9,0.53" class="stroke" stroke-dasharray="150"><set attributeName="opacity" to="0" dur="2.2s" /><animate attributeName="stroke-dashoffset" from="150" to="0" dur="1.8s" begin="2.2s" fill="freeze" /></path><path d="M35.78,44.04c2.75,2.24,7.09,9.2,7.78,12.67" class="stroke" stroke-dasharray="150"><set attributeName="opacity" to="0" dur="3.9000000000000004s" /><animate attributeName="stroke-dashoffset" from="150" to="0" dur="1.8s" begin="3.9000000000000004s" fill="freeze" /></path><path d="M71.12,41.12c0.06,0.74-0.14,1.76-0.47,2.41c-1.53,2.97-3.78,8.07-7.09,11.43" class="stroke" stroke-dasharray="150"><set attributeName="opacity" to="0" dur="4.800000000000001s" /><animate attributeName="stroke-dashoffset" from="150" to="0" dur="1.8s" begin="4.800000000000001s" fill="freeze" /></path><path d="M22.88,60.48c2.25,0.52,4.87,0.64,7.44,0.38c9.92-1,34.23-2.99,48.46-3.5c2.27-0.08,5.16-0.12,7.35,0.33" class="stroke" stroke-dasharray="150"><set attributeName="opacity" to="0" dur="5.700000000000001s" /><animate attributeName="stroke-dashoffset" from="150" to="0" dur="1.8s" begin="5.700000000000001s" fill="freeze" /></path><path d="M30.88,75.15c1.72,0.46,4.9,0.61,6.61,0.46c11.13-0.98,22.88-1.98,34.48-2.66c2.87-0.17,4.6,0.22,6.04,0.45" class="stroke" stroke-dasharray="150"><set attributeName="opacity" to="0" dur="7.200000000000001s" /><animate attributeName="stroke-dashoffset" from="150" to="0" dur="1.8s" begin="7.200000000000001s" fill="freeze" /></path><path d="M54.56,60.5c0.85,0.85,1.04,2.12,1.04,3.83c0,3.42-0.12,19.17-0.12,29.67c0,2.15-0.04,3.91-0.06,5" class="stroke" stroke-dasharray="150"><set attributeName="opacity" to="0" dur="8.4s" /><animate attributeName="stroke-dashoffset" from="150" to="0" dur="1.8s" begin="8.4s" fill="freeze" /></path><text x="90" y="120" id="reset-kvg-05e78">⟳</text><text x="70" y="120" id="pause-kvg-05e78">◼</text><script type="text/javascript"><![CDATA[function RecurringTimer(e,t){var n,r,i=t;this.pause=function(){window.clearTimeout(n);i-=new Date-r};var s=function(){r=new Date;n=window.setTimeout(function(){i=t;s();e()},i)};this.clear=function(){window.clearTimeout(n);i=t;n=window.setTimeout(function(){i=t;s();e()},i)};this.resume=s;this.resume()}function invoketimer(){timer=new RecurringTimer(function(){svg.setCurrentTime(0)},10400.0)}var svg=document.getElementById("kvg-05e78");var pause=document.getElementById("pause-kvg-05e78");var reset=document.getElementById("reset-kvg-05e78");var timer;invoketimer();reset.onclick=function(){svg.setCurrentTime(0);timer.clear();svg.unpauseAnimations();pause.innerHTML = "◼";};pause.onclick=function(){if(svg.animationsPaused()){svg.unpauseAnimations();timer.resume();pause.innerHTML="◼"}else{svg.pauseAnimations();timer.pause();pause.innerHTML="▶"}}]]></script></svg>