<svg id="kvg-05e9a-Kaisho" class="kanjivg" width="106" height="126" xmlns="http://www.w3.org/2000/svg" xmlns:xlink="http://www.w3.org/1999/xlink" xml:space="preserve" version="1.1" baseProfile="full"><defs><style type="text/css"><![CDATA[path.black{fill:none;stroke:black;stroke-width:5;stroke-linecap:round;stroke-linejoin:round;}path.grey{fill:none;stroke:#ddd;stroke-width:5;stroke-linecap:round;stroke-linejoin:round;}path.stroke{fill:none;stroke:black;stroke-width:5;stroke-linecap:round;stroke-linejoin:round;}rect{fill:none;stroke:#555;stroke-width:2;} text{font-size:16px;font-family:Segoe UI Symbol,Cambria Math,DejaVu Sans,Symbola,Quivira,STIX,Code2000;-webkit-touch-callout:none;cursor:pointer;-webkit-user-select:none;-khtml-user-select:none;-moz-user-select:none;-ms-user-select:none;user-select: none;}text:hover{color:#777;}#reset{font-weight:bold;}]]></style><marker id="markerStart" markerWidth="8" markerHeight="8" style="overflow:visible;"><circle cx="0" cy="0" r="1.5" style="stroke:none;fill:red;fill-opacity:0.5;"/></marker><marker id="markerEnd" style="overflow:visible;"><circle cx="0" cy="0" r="0.8" style="stroke:none;fill:blue;fill-opacity:0.5;"><animate attributeName="opacity" from="1" to="0" dur="3s" repeatCount="indefinite" /></circle></marker></defs><rect x="4" y="4" width="100" height="100" /><path d="M50.3,11.63c2.7,0.87,6.73,6.27,7.03,7.8" class="grey" /><path d="M24.13,26.73c1.52,0.54,4.3,0.63,5.82,0.54c15.8-0.91,37.3-3.52,52.61-4.23c2.53-0.12,4.05,0.26,5.31,0.53" class="grey" /><path d="M27.49,27.5c0.05,1.55,0.11,3.99-0.1,6.21c-1.24,13.1-3.64,41.04-16.83,57.5" class="grey" /><path d="M38.67,42.75c1.96,0.25,2.9,0.66,4.7,0.5c10.96-1,25.28-3.75,33.89-3.75c2.54,0,4.31,1.25,3.92,3.75c-1.03,6.54-2.76,10.25-4.13,21.5" class="grey" /><path d="M31.25,54.5c1.76,0.25,3.14,0.73,5.09,0.5c17.03-2,38.5-3.5,52.02-4.25c2.16-0.12,3.92,0.5,4.89,0.75" class="grey" /><path d="M36.84,67.44c1.07,0.18,3.01,0.64,4.29,0.54c11.8-0.9,23.81-2.35,34.54-2.71c1.71-0.06,2.79,0,4.08,0.18" class="grey" /><path d="M57.51,30.5c0.99,1.5,1.16,2.97,1.3,5.22C61.53,79,52.28,86.56,23.5,97.25" class="grey" /><path d="M58,68c4.42,5.07,23.45,21.63,28.32,25.34c1.65,1.26,3.78,1.8,5.43,2.16" class="grey" /><path d="M50.3,11.63c2.7,0.87,6.73,6.27,7.03,7.8" class="stroke" stroke-dasharray="150"><animate attributeName="stroke-dashoffset" from="150" to="0" dur="1.8s" begin="0.0s" fill="freeze" /></path><path d="M24.13,26.73c1.52,0.54,4.3,0.63,5.82,0.54c15.8-0.91,37.3-3.52,52.61-4.23c2.53-0.12,4.05,0.26,5.31,0.53" class="stroke" stroke-dasharray="150"><set attributeName="opacity" to="0" dur="0.9s" /><animate attributeName="stroke-dashoffset" from="150" to="0" dur="1.8s" begin="0.9s" fill="freeze" /></path><path d="M27.49,27.5c0.05,1.55,0.11,3.99-0.1,6.21c-1.24,13.1-3.64,41.04-16.83,57.5" class="stroke" stroke-dasharray="150"><set attributeName="opacity" to="0" dur="2.4s" /><animate attributeName="stroke-dashoffset" from="150" to="0" dur="1.8s" begin="2.4s" fill="freeze" /></path><path d="M38.67,42.75c1.96,0.25,2.9,0.66,4.7,0.5c10.96-1,25.28-3.75,33.89-3.75c2.54,0,4.31,1.25,3.92,3.75c-1.03,6.54-2.76,10.25-4.13,21.5" class="stroke" stroke-dasharray="150"><set attributeName="opacity" to="0" dur="3.9s" /><animate attributeName="stroke-dashoffset" from="150" to="0" dur="1.8s" begin="3.9s" fill="freeze" /></path><path d="M31.25,54.5c1.76,0.25,3.14,0.73,5.09,0.5c17.03-2,38.5-3.5,52.02-4.25c2.16-0.12,3.92,0.5,4.89,0.75" class="stroke" stroke-dasharray="150"><set attributeName="opacity" to="0" dur="5.4s" /><animate attributeName="stroke-dashoffset" from="150" to="0" dur="1.8s" begin="5.4s" fill="freeze" /></path><path d="M36.84,67.44c1.07,0.18,3.01,0.64,4.29,0.54c11.8-0.9,23.81-2.35,34.54-2.71c1.71-0.06,2.79,0,4.08,0.18" class="stroke" stroke-dasharray="150"><set attributeName="opacity" to="0" dur="6.9s" /><animate attributeName="stroke-dashoffset" from="150" to="0" dur="1.8s" begin="6.9s" fill="freeze" /></path><path d="M57.51,30.5c0.99,1.5,1.16,2.97,1.3,5.22C61.53,79,52.28,86.56,23.5,97.25" class="stroke" stroke-dasharray="150"><set attributeName="opacity" to="0" dur="8.0s" /><animate attributeName="stroke-dashoffset" from="150" to="0" dur="1.8s" begin="8.0s" fill="freeze" /></path><path d="M58,68c4.42,5.07,23.45,21.63,28.32,25.34c1.65,1.26,3.78,1.8,5.43,2.16" class="stroke" stroke-dasharray="150"><set attributeName="opacity" to="0" dur="9.7s" /><animate attributeName="stroke-dashoffset" from="150" to="0" dur="1.8s" begin="9.7s" fill="freeze" /></path><text x="90" y="120" id="reset-kvg-05e9a-Kaisho">⟳</text><text x="70" y="120" id="pause-kvg-05e9a-Kaisho">◼</text><script type="text/javascript"><![CDATA[function RecurringTimer(e,t){var n,r,i=t;this.pause=function(){window.clearTimeout(n);i-=new Date-r};var s=function(){r=new Date;n=window.setTimeout(function(){i=t;s();e()},i)};this.clear=function(){window.clearTimeout(n);i=t;n=window.setTimeout(function(){i=t;s();e()},i)};this.resume=s;this.resume()}function invoketimer(){timer=new RecurringTimer(function(){svg.setCurrentTime(0)},11799.999999999998)}var svg=document.getElementById("kvg-05e9a-Kaisho");var pause=document.getElementById("pause-kvg-05e9a-Kaisho");var reset=document.getElementById("reset-kvg-05e9a-Kaisho");var timer;invoketimer();reset.onclick=function(){svg.setCurrentTime(0);timer.clear();svg.unpauseAnimations();pause.innerHTML = "◼";};pause.onclick=function(){if(svg.animationsPaused()){svg.unpauseAnimations();timer.resume();pause.innerHTML="◼"}else{svg.pauseAnimations();timer.pause();pause.innerHTML="▶"}}]]></script></svg>