<svg id="kvg-05e96" class="kanjivg" width="106" height="126" xmlns="http://www.w3.org/2000/svg" xmlns:xlink="http://www.w3.org/1999/xlink" xml:space="preserve" version="1.1" baseProfile="full"><defs><style type="text/css"><![CDATA[path.black{fill:none;stroke:black;stroke-width:5;stroke-linecap:round;stroke-linejoin:round;}path.grey{fill:none;stroke:#ddd;stroke-width:5;stroke-linecap:round;stroke-linejoin:round;}path.stroke{fill:none;stroke:black;stroke-width:5;stroke-linecap:round;stroke-linejoin:round;}rect{fill:none;stroke:#555;stroke-width:2;} text{font-size:16px;font-family:Segoe UI Symbol,Cambria Math,DejaVu Sans,Symbola,Quivira,STIX,Code2000;-webkit-touch-callout:none;cursor:pointer;-webkit-user-select:none;-khtml-user-select:none;-moz-user-select:none;-ms-user-select:none;user-select: none;}text:hover{color:#777;}#reset{font-weight:bold;}]]></style><marker id="markerStart" markerWidth="8" markerHeight="8" style="overflow:visible;"><circle cx="0" cy="0" r="1.5" style="stroke:none;fill:red;fill-opacity:0.5;"/></marker><marker id="markerEnd" style="overflow:visible;"><circle cx="0" cy="0" r="0.8" style="stroke:none;fill:blue;fill-opacity:0.5;"><animate attributeName="opacity" from="1" to="0" dur="3s" repeatCount="indefinite" /></circle></marker></defs><rect x="4" y="4" width="100" height="100" /><path d="M52.81,9.63c0.76,0.38,2.51,1.87,2.51,3.65c0,0.79,0.08,5.65-0.07,10.46" class="grey" /><path d="M22.13,26.23c1.52,0.54,4.3,0.63,5.82,0.54c15.8-0.91,42.8-4.02,58.11-4.73c2.53-0.12,4.05,0.26,5.31,0.53" class="grey" /><path d="M27.49,26.5c0.05,1.68,0.11,4.35-0.1,6.76c-1.24,14.26-4.02,48.84-17.33,64.21" class="grey" /><path d="M50.1,32.5c0.05,0.65,0.27,1.72-0.1,2.6c-2.44,5.73-9.05,16.49-18.14,24.85" class="grey" /><path d="M47.99,43.83c0.98,0.52,2.35,0.7,3.92,0.35s25.59-4.66,29.49-4.96c1.85-0.14,3.96,0.96,3.87,2.91c-0.52,10.12-2.27,24.12-7.6,37.31c-1.42,3.52-3.96,1.31-6.27-0.87" class="grey" /><path d="M45.53,55.7c1.28,0.81,2.37,0.81,4.25,0.54c3.81-0.54,13.64-2.8,14.8-2.9c1.54-0.13,2.75,0.88,2.2,2.97c-0.16,0.62-2.28,8.46-4.12,14" class="grey" /><path d="M 47.092908,72.25 C 51.212908,71.87 59.81,70.72 65.67,70.38" class="grey" /><path d="M 44.254322,53.978358 c 0.81,0.94 1.52,2.05 1.51,3.5 -0.03,4.64 -0.174376,23.400605 -0.232862,27.450182 C 45.407173,93.53423 50.732896,97.69 69.74,97.69 c 20.76,0 23.4,-3.13 23.4,-11.52" class="grey" /><path d="M52.81,9.63c0.76,0.38,2.51,1.87,2.51,3.65c0,0.79,0.08,5.65-0.07,10.46" class="stroke" stroke-dasharray="150"><animate attributeName="stroke-dashoffset" from="150" to="0" dur="1.8s" begin="0.0s" fill="freeze" /></path><path d="M22.13,26.23c1.52,0.54,4.3,0.63,5.82,0.54c15.8-0.91,42.8-4.02,58.11-4.73c2.53-0.12,4.05,0.26,5.31,0.53" class="stroke" stroke-dasharray="150"><set attributeName="opacity" to="0" dur="0.9s" /><animate attributeName="stroke-dashoffset" from="150" to="0" dur="1.8s" begin="0.9s" fill="freeze" /></path><path d="M27.49,26.5c0.05,1.68,0.11,4.35-0.1,6.76c-1.24,14.26-4.02,48.84-17.33,64.21" class="stroke" stroke-dasharray="150"><set attributeName="opacity" to="0" dur="2.4s" /><animate attributeName="stroke-dashoffset" from="150" to="0" dur="1.8s" begin="2.4s" fill="freeze" /></path><path d="M50.1,32.5c0.05,0.65,0.27,1.72-0.1,2.6c-2.44,5.73-9.05,16.49-18.14,24.85" class="stroke" stroke-dasharray="150"><set attributeName="opacity" to="0" dur="4.1s" /><animate attributeName="stroke-dashoffset" from="150" to="0" dur="1.8s" begin="4.1s" fill="freeze" /></path><path d="M47.99,43.83c0.98,0.52,2.35,0.7,3.92,0.35s25.59-4.66,29.49-4.96c1.85-0.14,3.96,0.96,3.87,2.91c-0.52,10.12-2.27,24.12-7.6,37.31c-1.42,3.52-3.96,1.31-6.27-0.87" class="stroke" stroke-dasharray="150"><set attributeName="opacity" to="0" dur="5.1s" /><animate attributeName="stroke-dashoffset" from="150" to="0" dur="1.8s" begin="5.1s" fill="freeze" /></path><path d="M45.53,55.7c1.28,0.81,2.37,0.81,4.25,0.54c3.81-0.54,13.64-2.8,14.8-2.9c1.54-0.13,2.75,0.88,2.2,2.97c-0.16,0.62-2.28,8.46-4.12,14" class="stroke" stroke-dasharray="150"><set attributeName="opacity" to="0" dur="6.8s" /><animate attributeName="stroke-dashoffset" from="150" to="0" dur="1.8s" begin="6.8s" fill="freeze" /></path><path d="M 47.092908,72.25 C 51.212908,71.87 59.81,70.72 65.67,70.38" class="stroke" stroke-dasharray="150"><set attributeName="opacity" to="0" dur="7.8s" /><animate attributeName="stroke-dashoffset" from="150" to="0" dur="1.8s" begin="7.8s" fill="freeze" /></path><path d="M 44.254322,53.978358 c 0.81,0.94 1.52,2.05 1.51,3.5 -0.03,4.64 -0.174376,23.400605 -0.232862,27.450182 C 45.407173,93.53423 50.732896,97.69 69.74,97.69 c 20.76,0 23.4,-3.13 23.4,-11.52" class="stroke" stroke-dasharray="150"><set attributeName="opacity" to="0" dur="8.7s" /><animate attributeName="stroke-dashoffset" from="150" to="0" dur="1.8s" begin="8.7s" fill="freeze" /></path><text x="90" y="120" id="reset-kvg-05e96">⟳</text><text x="70" y="120" id="pause-kvg-05e96">◼</text><script type="text/javascript"><![CDATA[function RecurringTimer(e,t){var n,r,i=t;this.pause=function(){window.clearTimeout(n);i-=new Date-r};var s=function(){r=new Date;n=window.setTimeout(function(){i=t;s();e()},i)};this.clear=function(){window.clearTimeout(n);i=t;n=window.setTimeout(function(){i=t;s();e()},i)};this.resume=s;this.resume()}function invoketimer(){timer=new RecurringTimer(function(){svg.setCurrentTime(0)},11500.0)}var svg=document.getElementById("kvg-05e96");var pause=document.getElementById("pause-kvg-05e96");var reset=document.getElementById("reset-kvg-05e96");var timer;invoketimer();reset.onclick=function(){svg.setCurrentTime(0);timer.clear();svg.unpauseAnimations();pause.innerHTML = "◼";};pause.onclick=function(){if(svg.animationsPaused()){svg.unpauseAnimations();timer.resume();pause.innerHTML="◼"}else{svg.pauseAnimations();timer.pause();pause.innerHTML="▶"}}]]></script></svg>