<svg id="kvg-05ead-Kaisho" class="kanjivg" width="106" height="126" xmlns="http://www.w3.org/2000/svg" xmlns:xlink="http://www.w3.org/1999/xlink" xml:space="preserve" version="1.1" baseProfile="full"><defs><style type="text/css"><![CDATA[path.black{fill:none;stroke:black;stroke-width:5;stroke-linecap:round;stroke-linejoin:round;}path.grey{fill:none;stroke:#ddd;stroke-width:5;stroke-linecap:round;stroke-linejoin:round;}path.stroke{fill:none;stroke:black;stroke-width:5;stroke-linecap:round;stroke-linejoin:round;}rect{fill:none;stroke:#555;stroke-width:2;} text{font-size:16px;font-family:Segoe UI Symbol,Cambria Math,DejaVu Sans,Symbola,Quivira,STIX,Code2000;-webkit-touch-callout:none;cursor:pointer;-webkit-user-select:none;-khtml-user-select:none;-moz-user-select:none;-ms-user-select:none;user-select: none;}text:hover{color:#777;}#reset{font-weight:bold;}]]></style><marker id="markerStart" markerWidth="8" markerHeight="8" style="overflow:visible;"><circle cx="0" cy="0" r="1.5" style="stroke:none;fill:red;fill-opacity:0.5;"/></marker><marker id="markerEnd" style="overflow:visible;"><circle cx="0" cy="0" r="0.8" style="stroke:none;fill:blue;fill-opacity:0.5;"><animate attributeName="opacity" from="1" to="0" dur="3s" repeatCount="indefinite" /></circle></marker></defs><rect x="4" y="4" width="100" height="100" /><path d="M48.95,10.63c2.85,1.11,8.9,8.33,9.47,10.55" class="grey" /><path d="M20.63,26.73c1.52,0.54,4.3,0.63,5.82,0.54c15.8-0.91,35.8-4.02,55.61-4.23c2.53-0.03,4.05,0.26,5.31,0.53" class="grey" /><path d="M25.49,29.5c0.04,1.59-0.07,4.09-0.09,6.38c-0.16,15.37-0.16,44.62-14.6,56.59" class="grey" /><path d="M79.04,32.07c0.06,0.27,0.13,0.7-0.12,1.09c-1.49,2.29-10.05,7.81-21.75,10.89" class="grey" /><path d="M54.47,55.82c1.14,0.4,3.23,0.49,4.37,0.4c6.79-0.57,20.23-2.91,27.21-2.88c1.9,0.01,3.04,0.19,3.99,0.39" class="grey" /><path d="M69.37,41.55c0.94,0.37,1.5,1.66,1.69,2.4c0.19,0.74,0.38,23.77,0.19,28.37" class="grey" /><path d="M56.56,74.16c0.91,0.27,2.57,0.32,3.48,0.27c5.52-0.27,17.4-1.75,25-1.9c1.51-0.03,2.42,0.13,3.18,0.27" class="grey" /><path d="M31,42.57c0.95,0.54,2.46,0.89,3.79,0.54c1.33-0.36,6.58-2.39,9.23-3.1c2.65-0.71,3.41,0.02,1.89,2.6c-1.39,2.37-6.63,11.89-9.28,16.18" class="grey" /><path d="M36.06,59.5c3.03-1.38,5.49-1.96,8.52-3.15c2.3-0.91,4.56-0.14,3.98,3.04c-1.89,10.42-7.63,23.26-20.13,33.43" class="grey" /><path d="M30.45,69.24c5.19-0.17,40.53,23.28,54.66,25.53c2.78,0.44,4.89,0.97,9.62,1.73" class="grey" /><path d="M48.95,10.63c2.85,1.11,8.9,8.33,9.47,10.55" class="stroke" stroke-dasharray="150"><animate attributeName="stroke-dashoffset" from="150" to="0" dur="1.8s" begin="0.0s" fill="freeze" /></path><path d="M20.63,26.73c1.52,0.54,4.3,0.63,5.82,0.54c15.8-0.91,35.8-4.02,55.61-4.23c2.53-0.03,4.05,0.26,5.31,0.53" class="stroke" stroke-dasharray="150"><set attributeName="opacity" to="0" dur="0.9s" /><animate attributeName="stroke-dashoffset" from="150" to="0" dur="1.8s" begin="0.9s" fill="freeze" /></path><path d="M25.49,29.5c0.04,1.59-0.07,4.09-0.09,6.38c-0.16,15.37-0.16,44.62-14.6,56.59" class="stroke" stroke-dasharray="150"><set attributeName="opacity" to="0" dur="2.4s" /><animate attributeName="stroke-dashoffset" from="150" to="0" dur="1.8s" begin="2.4s" fill="freeze" /></path><path d="M79.04,32.07c0.06,0.27,0.13,0.7-0.12,1.09c-1.49,2.29-10.05,7.81-21.75,10.89" class="stroke" stroke-dasharray="150"><set attributeName="opacity" to="0" dur="3.9s" /><animate attributeName="stroke-dashoffset" from="150" to="0" dur="1.8s" begin="3.9s" fill="freeze" /></path><path d="M54.47,55.82c1.14,0.4,3.23,0.49,4.37,0.4c6.79-0.57,20.23-2.91,27.21-2.88c1.9,0.01,3.04,0.19,3.99,0.39" class="stroke" stroke-dasharray="150"><set attributeName="opacity" to="0" dur="4.9s" /><animate attributeName="stroke-dashoffset" from="150" to="0" dur="1.8s" begin="4.9s" fill="freeze" /></path><path d="M69.37,41.55c0.94,0.37,1.5,1.66,1.69,2.4c0.19,0.74,0.38,23.77,0.19,28.37" class="stroke" stroke-dasharray="150"><set attributeName="opacity" to="0" dur="5.9s" /><animate attributeName="stroke-dashoffset" from="150" to="0" dur="1.8s" begin="5.9s" fill="freeze" /></path><path d="M56.56,74.16c0.91,0.27,2.57,0.32,3.48,0.27c5.52-0.27,17.4-1.75,25-1.9c1.51-0.03,2.42,0.13,3.18,0.27" class="stroke" stroke-dasharray="150"><set attributeName="opacity" to="0" dur="6.9s" /><animate attributeName="stroke-dashoffset" from="150" to="0" dur="1.8s" begin="6.9s" fill="freeze" /></path><path d="M31,42.57c0.95,0.54,2.46,0.89,3.79,0.54c1.33-0.36,6.58-2.39,9.23-3.1c2.65-0.71,3.41,0.02,1.89,2.6c-1.39,2.37-6.63,11.89-9.28,16.18" class="stroke" stroke-dasharray="150"><set attributeName="opacity" to="0" dur="7.9s" /><animate attributeName="stroke-dashoffset" from="150" to="0" dur="1.8s" begin="7.9s" fill="freeze" /></path><path d="M36.06,59.5c3.03-1.38,5.49-1.96,8.52-3.15c2.3-0.91,4.56-0.14,3.98,3.04c-1.89,10.42-7.63,23.26-20.13,33.43" class="stroke" stroke-dasharray="150"><set attributeName="opacity" to="0" dur="8.9s" /><animate attributeName="stroke-dashoffset" from="150" to="0" dur="1.8s" begin="8.9s" fill="freeze" /></path><path d="M30.45,69.24c5.19-0.17,40.53,23.28,54.66,25.53c2.78,0.44,4.89,0.97,9.62,1.73" class="stroke" stroke-dasharray="150"><set attributeName="opacity" to="0" dur="10.3s" /><animate attributeName="stroke-dashoffset" from="150" to="0" dur="1.8s" begin="10.3s" fill="freeze" /></path><text x="90" y="120" id="reset-kvg-05ead-Kaisho">⟳</text><text x="70" y="120" id="pause-kvg-05ead-Kaisho">◼</text><script type="text/javascript"><![CDATA[function RecurringTimer(e,t){var n,r,i=t;this.pause=function(){window.clearTimeout(n);i-=new Date-r};var s=function(){r=new Date;n=window.setTimeout(function(){i=t;s();e()},i)};this.clear=function(){window.clearTimeout(n);i=t;n=window.setTimeout(function(){i=t;s();e()},i)};this.resume=s;this.resume()}function invoketimer(){timer=new RecurringTimer(function(){svg.setCurrentTime(0)},13000.0)}var svg=document.getElementById("kvg-05ead-Kaisho");var pause=document.getElementById("pause-kvg-05ead-Kaisho");var reset=document.getElementById("reset-kvg-05ead-Kaisho");var timer;invoketimer();reset.onclick=function(){svg.setCurrentTime(0);timer.clear();svg.unpauseAnimations();pause.innerHTML = "◼";};pause.onclick=function(){if(svg.animationsPaused()){svg.unpauseAnimations();timer.resume();pause.innerHTML="◼"}else{svg.pauseAnimations();timer.pause();pause.innerHTML="▶"}}]]></script></svg>