<svg id="kvg-05f29" class="kanjivg" width="106" height="126" xmlns="http://www.w3.org/2000/svg" xmlns:xlink="http://www.w3.org/1999/xlink" xml:space="preserve" version="1.1" baseProfile="full"><defs><style type="text/css"><![CDATA[path.black{fill:none;stroke:black;stroke-width:5;stroke-linecap:round;stroke-linejoin:round;}path.grey{fill:none;stroke:#ddd;stroke-width:5;stroke-linecap:round;stroke-linejoin:round;}path.stroke{fill:none;stroke:black;stroke-width:5;stroke-linecap:round;stroke-linejoin:round;}rect{fill:none;stroke:#555;stroke-width:2;} text{font-size:16px;font-family:Segoe UI Symbol,Cambria Math,DejaVu Sans,Symbola,Quivira,STIX,Code2000;-webkit-touch-callout:none;cursor:pointer;-webkit-user-select:none;-khtml-user-select:none;-moz-user-select:none;-ms-user-select:none;user-select: none;}text:hover{color:#777;}#reset{font-weight:bold;}]]></style><marker id="markerStart" markerWidth="8" markerHeight="8" style="overflow:visible;"><circle cx="0" cy="0" r="1.5" style="stroke:none;fill:red;fill-opacity:0.5;"/></marker><marker id="markerEnd" style="overflow:visible;"><circle cx="0" cy="0" r="0.8" style="stroke:none;fill:blue;fill-opacity:0.5;"><animate attributeName="opacity" from="1" to="0" dur="3s" repeatCount="indefinite" /></circle></marker></defs><rect x="4" y="4" width="100" height="100" /><path d="M32.43,9.94c0.38,0.79,1.06,2.09,0.86,3.17c-0.97,5.3-6.75,15.32-10.98,21.25c-0.87,1.21,0.36,1.92,0.86,1.99c7.08,0.91,15.83,5.91,21.1,11.79" class="grey" /><path d="M44.36,21.23c0.08,0.82,0.13,2.82-0.18,3.99C41.69,34.64,34,46.5,16.84,53.6" class="grey" /><path d="M12.25,26.29c0.83,1.42,1.53,2.17,3.73,1.78c4.77-0.83,22.02-4.83,34.79-7.05" class="grey" /><path d="M57.99,17.06c1.26,0.23,1.42,0.59,3.93,0.23c2.52-0.35,19.77-3.47,21.5-3.83c1.73-0.35,3.3,1.01,2.7,2.3C81.25,26.24,69,39.16,54.69,44.23" class="grey" /><path d="M57.27,22.45c5.98,0,19.9,17.09,31.67,23.84c1.83,1.05,3.17,1.75,4.87,2.1" class="grey" /><path d="M34.12,52.59c1.63,0.81,3.15,1.05,5.22,0.9c2.07-0.15,32.34-3.55,36.51-3.55c1.64,0,2.89,1.31,2.05,3.27c-0.44,1.03-1.75,3.45-2.74,5.49c-0.54,1.11-0.98,2.1-1.15,2.72" class="grey" /><path d="M34.75,64.75c2.99,0,34.12-3,36.26-3c2.14,0,4.28,0,5.99,0" class="grey" /><path d="M33.43,62.42c0.82,1.08,0.62,2.48,0.24,3.67c-0.68,2.16-3.03,7.52-3.37,8.16c-0.8,1.5-0.33,3.5,2.82,2.8c2.38-0.53,37.61-3.97,44.25-4.5c3.88-0.31,5.13,1.94,4.04,5.08c-1.99,5.74-7.02,15.16-12.49,19.81c-3.92,3.34-9.17-1.7-11.17-4.26" class="grey" /><path d="M32.43,9.94c0.38,0.79,1.06,2.09,0.86,3.17c-0.97,5.3-6.75,15.32-10.98,21.25c-0.87,1.21,0.36,1.92,0.86,1.99c7.08,0.91,15.83,5.91,21.1,11.79" class="stroke" stroke-dasharray="150"><animate attributeName="stroke-dashoffset" from="150" to="0" dur="1.8s" begin="0.0s" fill="freeze" /></path><path d="M44.36,21.23c0.08,0.82,0.13,2.82-0.18,3.99C41.69,34.64,34,46.5,16.84,53.6" class="stroke" stroke-dasharray="150"><set attributeName="opacity" to="0" dur="1.3s" /><animate attributeName="stroke-dashoffset" from="150" to="0" dur="1.8s" begin="1.3s" fill="freeze" /></path><path d="M12.25,26.29c0.83,1.42,1.53,2.17,3.73,1.78c4.77-0.83,22.02-4.83,34.79-7.05" class="stroke" stroke-dasharray="150"><set attributeName="opacity" to="0" dur="2.4000000000000004s" /><animate attributeName="stroke-dashoffset" from="150" to="0" dur="1.8s" begin="2.4000000000000004s" fill="freeze" /></path><path d="M57.99,17.06c1.26,0.23,1.42,0.59,3.93,0.23c2.52-0.35,19.77-3.47,21.5-3.83c1.73-0.35,3.3,1.01,2.7,2.3C81.25,26.24,69,39.16,54.69,44.23" class="stroke" stroke-dasharray="150"><set attributeName="opacity" to="0" dur="3.5000000000000004s" /><animate attributeName="stroke-dashoffset" from="150" to="0" dur="1.8s" begin="3.5000000000000004s" fill="freeze" /></path><path d="M57.27,22.45c5.98,0,19.9,17.09,31.67,23.84c1.83,1.05,3.17,1.75,4.87,2.1" class="stroke" stroke-dasharray="150"><set attributeName="opacity" to="0" dur="5.2s" /><animate attributeName="stroke-dashoffset" from="150" to="0" dur="1.8s" begin="5.2s" fill="freeze" /></path><path d="M34.12,52.59c1.63,0.81,3.15,1.05,5.22,0.9c2.07-0.15,32.34-3.55,36.51-3.55c1.64,0,2.89,1.31,2.05,3.27c-0.44,1.03-1.75,3.45-2.74,5.49c-0.54,1.11-0.98,2.1-1.15,2.72" class="stroke" stroke-dasharray="150"><set attributeName="opacity" to="0" dur="6.4s" /><animate attributeName="stroke-dashoffset" from="150" to="0" dur="1.8s" begin="6.4s" fill="freeze" /></path><path d="M34.75,64.75c2.99,0,34.12-3,36.26-3c2.14,0,4.28,0,5.99,0" class="stroke" stroke-dasharray="150"><set attributeName="opacity" to="0" dur="7.800000000000001s" /><animate attributeName="stroke-dashoffset" from="150" to="0" dur="1.8s" begin="7.800000000000001s" fill="freeze" /></path><path d="M33.43,62.42c0.82,1.08,0.62,2.48,0.24,3.67c-0.68,2.16-3.03,7.52-3.37,8.16c-0.8,1.5-0.33,3.5,2.82,2.8c2.38-0.53,37.61-3.97,44.25-4.5c3.88-0.31,5.13,1.94,4.04,5.08c-1.99,5.74-7.02,15.16-12.49,19.81c-3.92,3.34-9.17-1.7-11.17-4.26" class="stroke" stroke-dasharray="150"><set attributeName="opacity" to="0" dur="8.9s" /><animate attributeName="stroke-dashoffset" from="150" to="0" dur="1.8s" begin="8.9s" fill="freeze" /></path><text x="90" y="120" id="reset-kvg-05f29">⟳</text><text x="70" y="120" id="pause-kvg-05f29">◼</text><script type="text/javascript"><![CDATA[function RecurringTimer(e,t){var n,r,i=t;this.pause=function(){window.clearTimeout(n);i-=new Date-r};var s=function(){r=new Date;n=window.setTimeout(function(){i=t;s();e()},i)};this.clear=function(){window.clearTimeout(n);i=t;n=window.setTimeout(function(){i=t;s();e()},i)};this.resume=s;this.resume()}function invoketimer(){timer=new RecurringTimer(function(){svg.setCurrentTime(0)},11800.0)}var svg=document.getElementById("kvg-05f29");var pause=document.getElementById("pause-kvg-05f29");var reset=document.getElementById("reset-kvg-05f29");var timer;invoketimer();reset.onclick=function(){svg.setCurrentTime(0);timer.clear();svg.unpauseAnimations();pause.innerHTML = "◼";};pause.onclick=function(){if(svg.animationsPaused()){svg.unpauseAnimations();timer.resume();pause.innerHTML="◼"}else{svg.pauseAnimations();timer.pause();pause.innerHTML="▶"}}]]></script></svg>