<svg id="kvg-05f99" class="kanjivg" width="106" height="126" xmlns="http://www.w3.org/2000/svg" xmlns:xlink="http://www.w3.org/1999/xlink" xml:space="preserve" version="1.1" baseProfile="full"><defs><style type="text/css"><![CDATA[path.black{fill:none;stroke:black;stroke-width:5;stroke-linecap:round;stroke-linejoin:round;}path.grey{fill:none;stroke:#ddd;stroke-width:5;stroke-linecap:round;stroke-linejoin:round;}path.stroke{fill:none;stroke:black;stroke-width:5;stroke-linecap:round;stroke-linejoin:round;}rect{fill:none;stroke:#555;stroke-width:2;} text{font-size:16px;font-family:Segoe UI Symbol,Cambria Math,DejaVu Sans,Symbola,Quivira,STIX,Code2000;-webkit-touch-callout:none;cursor:pointer;-webkit-user-select:none;-khtml-user-select:none;-moz-user-select:none;-ms-user-select:none;user-select: none;}text:hover{color:#777;}#reset{font-weight:bold;}]]></style><marker id="markerStart" markerWidth="8" markerHeight="8" style="overflow:visible;"><circle cx="0" cy="0" r="1.5" style="stroke:none;fill:red;fill-opacity:0.5;"/></marker><marker id="markerEnd" style="overflow:visible;"><circle cx="0" cy="0" r="0.8" style="stroke:none;fill:blue;fill-opacity:0.5;"><animate attributeName="opacity" from="1" to="0" dur="3s" repeatCount="indefinite" /></circle></marker></defs><rect x="4" y="4" width="100" height="100" /><path d="M34.59,15.75c0.06,0.48,0.27,1.33-0.11,1.92C31.8,21.81,23.73,31.78,15.87,36" class="grey" /><path d="M36.85,35.25c0.07,0.71,0.32,1.97-0.13,2.84C33.53,44.22,24.75,56.5,13.5,65.25" class="grey" /><path d="M27.22,55c0.36,0.25,1.07,1.65,1.15,2.16c0.07,0.51,0,35.15-0.07,38.34" class="grey" /><path d="M64.37,16c1.09,0.5,1.74,2.25,1.96,3.25c0.22,1,0.5,19.75,0.28,26" class="grey" /><path d="M66.88,30.5c7.12-0.75,11.87-2.25,18.85-3c1.73-0.19,2.18-0.25,3.26,0" class="grey" /><path d="M49.37,25.25c1.09,0.5,1.74,2.25,1.96,3.25c0.22,1,1.5,12.25,1.28,18.5" class="grey" /><path d="M41,47.49c0.73,0.23,2.7,0.77,4.66,0.69c10.56-0.46,28.28-3.86,41.35-5.1c1.96-0.18,5.37,0.46,6.49,0.69" class="grey" /><path d="M65.86,48.5c0.39,0.46,1.31,2.48,1.31,3.4c0,6.25,0.36,23.91,0.28,29.63" class="grey" /><path d="M88.92,60.67c-1.24,0-2.72,0.02-4.29,0.31c-7.42,1.37-15.89,3.06-17.1,3.06" class="grey" /><path d="M51.84,57.31c0.08,0.88,0.56,2.25,0.38,3.53C50.64,71.92,49.29,81.53,38,92.21" class="grey" /><path d="M50.83,72.47c10.24,4.45,27.8,17.8,34.49,20.09c2.12,0.73,3.89,1.41,5.94,1.69" class="grey" /><path d="M34.59,15.75c0.06,0.48,0.27,1.33-0.11,1.92C31.8,21.81,23.73,31.78,15.87,36" class="stroke" stroke-dasharray="150"><animate attributeName="stroke-dashoffset" from="150" to="0" dur="1.8s" begin="0.0s" fill="freeze" /></path><path d="M36.85,35.25c0.07,0.71,0.32,1.97-0.13,2.84C33.53,44.22,24.75,56.5,13.5,65.25" class="stroke" stroke-dasharray="150"><set attributeName="opacity" to="0" dur="1.0s" /><animate attributeName="stroke-dashoffset" from="150" to="0" dur="1.8s" begin="1.0s" fill="freeze" /></path><path d="M27.22,55c0.36,0.25,1.07,1.65,1.15,2.16c0.07,0.51,0,35.15-0.07,38.34" class="stroke" stroke-dasharray="150"><set attributeName="opacity" to="0" dur="2.0s" /><animate attributeName="stroke-dashoffset" from="150" to="0" dur="1.8s" begin="2.0s" fill="freeze" /></path><path d="M64.37,16c1.09,0.5,1.74,2.25,1.96,3.25c0.22,1,0.5,19.75,0.28,26" class="stroke" stroke-dasharray="150"><set attributeName="opacity" to="0" dur="3.1s" /><animate attributeName="stroke-dashoffset" from="150" to="0" dur="1.8s" begin="3.1s" fill="freeze" /></path><path d="M66.88,30.5c7.12-0.75,11.87-2.25,18.85-3c1.73-0.19,2.18-0.25,3.26,0" class="stroke" stroke-dasharray="150"><set attributeName="opacity" to="0" dur="4.1s" /><animate attributeName="stroke-dashoffset" from="150" to="0" dur="1.8s" begin="4.1s" fill="freeze" /></path><path d="M49.37,25.25c1.09,0.5,1.74,2.25,1.96,3.25c0.22,1,1.5,12.25,1.28,18.5" class="stroke" stroke-dasharray="150"><set attributeName="opacity" to="0" dur="5.1s" /><animate attributeName="stroke-dashoffset" from="150" to="0" dur="1.8s" begin="5.1s" fill="freeze" /></path><path d="M41,47.49c0.73,0.23,2.7,0.77,4.66,0.69c10.56-0.46,28.28-3.86,41.35-5.1c1.96-0.18,5.37,0.46,6.49,0.69" class="stroke" stroke-dasharray="150"><set attributeName="opacity" to="0" dur="6.1s" /><animate attributeName="stroke-dashoffset" from="150" to="0" dur="1.8s" begin="6.1s" fill="freeze" /></path><path d="M65.86,48.5c0.39,0.46,1.31,2.48,1.31,3.4c0,6.25,0.36,23.91,0.28,29.63" class="stroke" stroke-dasharray="150"><set attributeName="opacity" to="0" dur="7.3999999999999995s" /><animate attributeName="stroke-dashoffset" from="150" to="0" dur="1.8s" begin="7.3999999999999995s" fill="freeze" /></path><path d="M88.92,60.67c-1.24,0-2.72,0.02-4.29,0.31c-7.42,1.37-15.89,3.06-17.1,3.06" class="stroke" stroke-dasharray="150"><set attributeName="opacity" to="0" dur="8.399999999999999s" /><animate attributeName="stroke-dashoffset" from="150" to="0" dur="1.8s" begin="8.399999999999999s" fill="freeze" /></path><path d="M51.84,57.31c0.08,0.88,0.56,2.25,0.38,3.53C50.64,71.92,49.29,81.53,38,92.21" class="stroke" stroke-dasharray="150"><set attributeName="opacity" to="0" dur="9.399999999999999s" /><animate attributeName="stroke-dashoffset" from="150" to="0" dur="1.8s" begin="9.399999999999999s" fill="freeze" /></path><path d="M50.83,72.47c10.24,4.45,27.8,17.8,34.49,20.09c2.12,0.73,3.89,1.41,5.94,1.69" class="stroke" stroke-dasharray="150"><set attributeName="opacity" to="0" dur="10.399999999999999s" /><animate attributeName="stroke-dashoffset" from="150" to="0" dur="1.8s" begin="10.399999999999999s" fill="freeze" /></path><text x="90" y="120" id="reset-kvg-05f99">⟳</text><text x="70" y="120" id="pause-kvg-05f99">◼</text><script type="text/javascript"><![CDATA[function RecurringTimer(e,t){var n,r,i=t;this.pause=function(){window.clearTimeout(n);i-=new Date-r};var s=function(){r=new Date;n=window.setTimeout(function(){i=t;s();e()},i)};this.clear=function(){window.clearTimeout(n);i=t;n=window.setTimeout(function(){i=t;s();e()},i)};this.resume=s;this.resume()}function invoketimer(){timer=new RecurringTimer(function(){svg.setCurrentTime(0)},12599.999999999998)}var svg=document.getElementById("kvg-05f99");var pause=document.getElementById("pause-kvg-05f99");var reset=document.getElementById("reset-kvg-05f99");var timer;invoketimer();reset.onclick=function(){svg.setCurrentTime(0);timer.clear();svg.unpauseAnimations();pause.innerHTML = "◼";};pause.onclick=function(){if(svg.animationsPaused()){svg.unpauseAnimations();timer.resume();pause.innerHTML="◼"}else{svg.pauseAnimations();timer.pause();pause.innerHTML="▶"}}]]></script></svg>