<svg id="kvg-05fad" class="kanjivg" width="106" height="126" xmlns="http://www.w3.org/2000/svg" xmlns:xlink="http://www.w3.org/1999/xlink" xml:space="preserve" version="1.1" baseProfile="full"><defs><style type="text/css"><![CDATA[path.black{fill:none;stroke:black;stroke-width:5;stroke-linecap:round;stroke-linejoin:round;}path.grey{fill:none;stroke:#ddd;stroke-width:5;stroke-linecap:round;stroke-linejoin:round;}path.stroke{fill:none;stroke:black;stroke-width:5;stroke-linecap:round;stroke-linejoin:round;}rect{fill:none;stroke:#555;stroke-width:2;} text{font-size:16px;font-family:Segoe UI Symbol,Cambria Math,DejaVu Sans,Symbola,Quivira,STIX,Code2000;-webkit-touch-callout:none;cursor:pointer;-webkit-user-select:none;-khtml-user-select:none;-moz-user-select:none;-ms-user-select:none;user-select: none;}text:hover{color:#777;}#reset{font-weight:bold;}]]></style><marker id="markerStart" markerWidth="8" markerHeight="8" style="overflow:visible;"><circle cx="0" cy="0" r="1.5" style="stroke:none;fill:red;fill-opacity:0.5;"/></marker><marker id="markerEnd" style="overflow:visible;"><circle cx="0" cy="0" r="0.8" style="stroke:none;fill:blue;fill-opacity:0.5;"><animate attributeName="opacity" from="1" to="0" dur="3s" repeatCount="indefinite" /></circle></marker></defs><rect x="4" y="4" width="100" height="100" /><path d="M35.07,15.25c0.06,0.5,0.31,1.38-0.13,1.99c-3.1,4.29-12.46,14.64-21.57,19.01" class="grey" /><path d="M36.35,32.75c0.07,0.71,0.32,1.97-0.13,2.84C33.03,41.72,24.25,54,13,62.75" class="grey" /><path d="M27.22,52c0.36,0.25,1.07,1.65,1.15,2.16c0.07,0.51,0,39.65-0.07,42.84" class="grey" /><path d="M63.92,10.5c0.69,0.77,0.59,2.52-0.04,3.52C60.75,19,54.75,26.75,45.61,31.2" class="grey" /><path d="M61.94,18.06c1.31,0.44,2.31,0.44,4.21,0.55c4.39,0.26,11.48-1.25,14.46-2.01c2.39-0.6,3.43,0.83,2.17,2.9c-5.53,9-21.53,23.5-42.01,32.33" class="grey" /><path d="M59.47,24.26c1.19,0.54,5.97,3.76,8.35,6.98" class="grey" /><path d="M48.51,31.96c1.49,1.17,5.97,6.12,7.21,8.74" class="grey" /><path d="M56.95,46.64c0.03,0.4,0.07,1.03-0.06,1.61c-0.78,3.39-5.23,10.82-11.32,15.36" class="grey" /><path d="M54.87,53.94c0.67,0.24,1.89,0.29,2.56,0.24c8.18-0.65,19.11-3.21,26.46-4.04c1.1-0.12,1.78,0.11,2.33,0.23" class="grey" /><path d="M40.13,70.39c1.08,0.34,3.06,0.39,4.13,0.34c11.22-0.56,33.21-4.94,49.59-5.07c1.8-0.01,2.88,0.16,3.77,0.33" class="grey" /><path d="M66.72,56.38c0.67,0.85,1.43,1.47,1.43,2.65c0,4.12-0.07,29.38-0.18,32.86" class="grey" /><path d="M48.6,78.5c0.54,0.28,1.08,1.46,1.08,2.03c-0.05,3.5-0.68,6.97-1.5,13.03c-0.17,1.27-0.25,2.64,1.07,2.34c11.51-2.64,32.91-5.15,39.66-5.3" class="grey" /><path d="M89.67,73.92c0.54,0.28,1.16,2.09,1.08,2.65c-0.53,3.43-0.99,10.93-1.45,18.07" class="grey" /><path d="M35.07,15.25c0.06,0.5,0.31,1.38-0.13,1.99c-3.1,4.29-12.46,14.64-21.57,19.01" class="stroke" stroke-dasharray="150"><animate attributeName="stroke-dashoffset" from="150" to="0" dur="1.8s" begin="0.0s" fill="freeze" /></path><path d="M36.35,32.75c0.07,0.71,0.32,1.97-0.13,2.84C33.03,41.72,24.25,54,13,62.75" class="stroke" stroke-dasharray="150"><set attributeName="opacity" to="0" dur="1.0s" /><animate attributeName="stroke-dashoffset" from="150" to="0" dur="1.8s" begin="1.0s" fill="freeze" /></path><path d="M27.22,52c0.36,0.25,1.07,1.65,1.15,2.16c0.07,0.51,0,39.65-0.07,42.84" class="stroke" stroke-dasharray="150"><set attributeName="opacity" to="0" dur="2.0s" /><animate attributeName="stroke-dashoffset" from="150" to="0" dur="1.8s" begin="2.0s" fill="freeze" /></path><path d="M63.92,10.5c0.69,0.77,0.59,2.52-0.04,3.52C60.75,19,54.75,26.75,45.61,31.2" class="stroke" stroke-dasharray="150"><set attributeName="opacity" to="0" dur="3.2s" /><animate attributeName="stroke-dashoffset" from="150" to="0" dur="1.8s" begin="3.2s" fill="freeze" /></path><path d="M61.94,18.06c1.31,0.44,2.31,0.44,4.21,0.55c4.39,0.26,11.48-1.25,14.46-2.01c2.39-0.6,3.43,0.83,2.17,2.9c-5.53,9-21.53,23.5-42.01,32.33" class="stroke" stroke-dasharray="150"><set attributeName="opacity" to="0" dur="4.2s" /><animate attributeName="stroke-dashoffset" from="150" to="0" dur="1.8s" begin="4.2s" fill="freeze" /></path><path d="M59.47,24.26c1.19,0.54,5.97,3.76,8.35,6.98" class="stroke" stroke-dasharray="150"><set attributeName="opacity" to="0" dur="5.9s" /><animate attributeName="stroke-dashoffset" from="150" to="0" dur="1.8s" begin="5.9s" fill="freeze" /></path><path d="M48.51,31.96c1.49,1.17,5.97,6.12,7.21,8.74" class="stroke" stroke-dasharray="150"><set attributeName="opacity" to="0" dur="6.800000000000001s" /><animate attributeName="stroke-dashoffset" from="150" to="0" dur="1.8s" begin="6.800000000000001s" fill="freeze" /></path><path d="M56.95,46.64c0.03,0.4,0.07,1.03-0.06,1.61c-0.78,3.39-5.23,10.82-11.32,15.36" class="stroke" stroke-dasharray="150"><set attributeName="opacity" to="0" dur="7.700000000000001s" /><animate attributeName="stroke-dashoffset" from="150" to="0" dur="1.8s" begin="7.700000000000001s" fill="freeze" /></path><path d="M54.87,53.94c0.67,0.24,1.89,0.29,2.56,0.24c8.18-0.65,19.11-3.21,26.46-4.04c1.1-0.12,1.78,0.11,2.33,0.23" class="stroke" stroke-dasharray="150"><set attributeName="opacity" to="0" dur="8.700000000000001s" /><animate attributeName="stroke-dashoffset" from="150" to="0" dur="1.8s" begin="8.700000000000001s" fill="freeze" /></path><path d="M40.13,70.39c1.08,0.34,3.06,0.39,4.13,0.34c11.22-0.56,33.21-4.94,49.59-5.07c1.8-0.01,2.88,0.16,3.77,0.33" class="stroke" stroke-dasharray="150"><set attributeName="opacity" to="0" dur="9.700000000000001s" /><animate attributeName="stroke-dashoffset" from="150" to="0" dur="1.8s" begin="9.700000000000001s" fill="freeze" /></path><path d="M66.72,56.38c0.67,0.85,1.43,1.47,1.43,2.65c0,4.12-0.07,29.38-0.18,32.86" class="stroke" stroke-dasharray="150"><set attributeName="opacity" to="0" dur="11.100000000000001s" /><animate attributeName="stroke-dashoffset" from="150" to="0" dur="1.8s" begin="11.100000000000001s" fill="freeze" /></path><path d="M48.6,78.5c0.54,0.28,1.08,1.46,1.08,2.03c-0.05,3.5-0.68,6.97-1.5,13.03c-0.17,1.27-0.25,2.64,1.07,2.34c11.51-2.64,32.91-5.15,39.66-5.3" class="stroke" stroke-dasharray="150"><set attributeName="opacity" to="0" dur="12.100000000000001s" /><animate attributeName="stroke-dashoffset" from="150" to="0" dur="1.8s" begin="12.100000000000001s" fill="freeze" /></path><path d="M89.67,73.92c0.54,0.28,1.16,2.09,1.08,2.65c-0.53,3.43-0.99,10.93-1.45,18.07" class="stroke" stroke-dasharray="150"><set attributeName="opacity" to="0" dur="13.500000000000002s" /><animate attributeName="stroke-dashoffset" from="150" to="0" dur="1.8s" begin="13.500000000000002s" fill="freeze" /></path><text x="90" y="120" id="reset-kvg-05fad">⟳</text><text x="70" y="120" id="pause-kvg-05fad">◼</text><script type="text/javascript"><![CDATA[function RecurringTimer(e,t){var n,r,i=t;this.pause=function(){window.clearTimeout(n);i-=new Date-r};var s=function(){r=new Date;n=window.setTimeout(function(){i=t;s();e()},i)};this.clear=function(){window.clearTimeout(n);i=t;n=window.setTimeout(function(){i=t;s();e()},i)};this.resume=s;this.resume()}function invoketimer(){timer=new RecurringTimer(function(){svg.setCurrentTime(0)},15500.000000000002)}var svg=document.getElementById("kvg-05fad");var pause=document.getElementById("pause-kvg-05fad");var reset=document.getElementById("reset-kvg-05fad");var timer;invoketimer();reset.onclick=function(){svg.setCurrentTime(0);timer.clear();svg.unpauseAnimations();pause.innerHTML = "◼";};pause.onclick=function(){if(svg.animationsPaused()){svg.unpauseAnimations();timer.resume();pause.innerHTML="◼"}else{svg.pauseAnimations();timer.pause();pause.innerHTML="▶"}}]]></script></svg>