<svg id="kvg-05fa1" class="kanjivg" width="106" height="126" xmlns="http://www.w3.org/2000/svg" xmlns:xlink="http://www.w3.org/1999/xlink" xml:space="preserve" version="1.1" baseProfile="full"><defs><style type="text/css"><![CDATA[path.black{fill:none;stroke:black;stroke-width:5;stroke-linecap:round;stroke-linejoin:round;}path.grey{fill:none;stroke:#ddd;stroke-width:5;stroke-linecap:round;stroke-linejoin:round;}path.stroke{fill:none;stroke:black;stroke-width:5;stroke-linecap:round;stroke-linejoin:round;}rect{fill:none;stroke:#555;stroke-width:2;} text{font-size:16px;font-family:Segoe UI Symbol,Cambria Math,DejaVu Sans,Symbola,Quivira,STIX,Code2000;-webkit-touch-callout:none;cursor:pointer;-webkit-user-select:none;-khtml-user-select:none;-moz-user-select:none;-ms-user-select:none;user-select: none;}text:hover{color:#777;}#reset{font-weight:bold;}]]></style><marker id="markerStart" markerWidth="8" markerHeight="8" style="overflow:visible;"><circle cx="0" cy="0" r="1.5" style="stroke:none;fill:red;fill-opacity:0.5;"/></marker><marker id="markerEnd" style="overflow:visible;"><circle cx="0" cy="0" r="0.8" style="stroke:none;fill:blue;fill-opacity:0.5;"><animate attributeName="opacity" from="1" to="0" dur="3s" repeatCount="indefinite" /></circle></marker></defs><rect x="4" y="4" width="100" height="100" /><path d="M24.86,17.5c0.09,0.76-0.43,1.63-0.83,2.23c-2.39,3.67-8.48,10.1-14.66,13.52" class="grey" /><path d="M25.14,37.5c0,1-0.29,1.92-0.59,2.66c-2.1,5.21-7.64,14.65-15.05,22.09" class="grey" /><path d="M21.72,49c0.7,0.7,0.9,1.88,0.9,2.91c0,0.41,0.02,24.24-0.03,35.84c-0.01,3.1-0.03,5.33-0.04,6" class="grey" /><path d="M44.14,13.47c0.03,0.56-0.1,1.62-0.32,2.25c-2.32,6.66-6.32,13.41-12.7,21.51" class="grey" /><path d="M41.57,26.68c1.18,0.2,2.2,0.08,3.08-0.05c4.23-0.63,7.73-1.25,11.47-2.29c1.08-0.3,3.26-0.46,4.64-0.31" class="grey" /><path d="M33.25,42.68c1.84,0.85,5.15,0.38,7.01,0.01c5.69-1.12,15.11-3.31,21.25-4.83c1.13-0.28,2.6-0.5,3.77-0.17" class="grey" /><path d="M49.58,28.16c0.94,0.94,1.13,1.96,1.13,3.3c0,0.96-0.08,31.26-0.08,39.03" class="grey" /><path d="M51.92,52.84c4.2-0.59,6.7-1.34,10.53-1.85c1.45-0.19,2.56-0.23,3.47,0" class="grey" /><path d="M36.34,54.76c1.01,1.01,1.62,1.73,1.63,3.05c0.03,3.69,0.36,11.57,0.4,17.81" class="grey" /><path d="M34.46,76.79c0.54,0.71,1.29,1.21,2.6,0.66c6.19-2.58,20.57-9.21,27.53-12.2" class="grey" /><path d="M71.22,26.9c1.66,0.73,3.67,0.68,5.12,0.48c1.45-0.2,14.64-3.01,16.45-3.21s4.71-0.41,4.71,3.89c0,6.7-2,25.2-4.86,35.05c-2.56,8.81-6.88,1.02-7.43,0.61" class="grey" /><path d="M72.47,28.05c0.87,0.87,1.29,1.84,1.3,3.45c0.08,9.95,0.03,38.68,0.01,55.75c0,3.49-0.01,6.42-0.01,8.5" class="grey" /><path d="M24.86,17.5c0.09,0.76-0.43,1.63-0.83,2.23c-2.39,3.67-8.48,10.1-14.66,13.52" class="stroke" stroke-dasharray="150"><animate attributeName="stroke-dashoffset" from="150" to="0" dur="1.8s" begin="0.0s" fill="freeze" /></path><path d="M25.14,37.5c0,1-0.29,1.92-0.59,2.66c-2.1,5.21-7.64,14.65-15.05,22.09" class="stroke" stroke-dasharray="150"><set attributeName="opacity" to="0" dur="1.0s" /><animate attributeName="stroke-dashoffset" from="150" to="0" dur="1.8s" begin="1.0s" fill="freeze" /></path><path d="M21.72,49c0.7,0.7,0.9,1.88,0.9,2.91c0,0.41,0.02,24.24-0.03,35.84c-0.01,3.1-0.03,5.33-0.04,6" class="stroke" stroke-dasharray="150"><set attributeName="opacity" to="0" dur="2.0s" /><animate attributeName="stroke-dashoffset" from="150" to="0" dur="1.8s" begin="2.0s" fill="freeze" /></path><path d="M44.14,13.47c0.03,0.56-0.1,1.62-0.32,2.25c-2.32,6.66-6.32,13.41-12.7,21.51" class="stroke" stroke-dasharray="150"><set attributeName="opacity" to="0" dur="3.1s" /><animate attributeName="stroke-dashoffset" from="150" to="0" dur="1.8s" begin="3.1s" fill="freeze" /></path><path d="M41.57,26.68c1.18,0.2,2.2,0.08,3.08-0.05c4.23-0.63,7.73-1.25,11.47-2.29c1.08-0.3,3.26-0.46,4.64-0.31" class="stroke" stroke-dasharray="150"><set attributeName="opacity" to="0" dur="4.1s" /><animate attributeName="stroke-dashoffset" from="150" to="0" dur="1.8s" begin="4.1s" fill="freeze" /></path><path d="M33.25,42.68c1.84,0.85,5.15,0.38,7.01,0.01c5.69-1.12,15.11-3.31,21.25-4.83c1.13-0.28,2.6-0.5,3.77-0.17" class="stroke" stroke-dasharray="150"><set attributeName="opacity" to="0" dur="5.0s" /><animate attributeName="stroke-dashoffset" from="150" to="0" dur="1.8s" begin="5.0s" fill="freeze" /></path><path d="M49.58,28.16c0.94,0.94,1.13,1.96,1.13,3.3c0,0.96-0.08,31.26-0.08,39.03" class="stroke" stroke-dasharray="150"><set attributeName="opacity" to="0" dur="6.0s" /><animate attributeName="stroke-dashoffset" from="150" to="0" dur="1.8s" begin="6.0s" fill="freeze" /></path><path d="M51.92,52.84c4.2-0.59,6.7-1.34,10.53-1.85c1.45-0.19,2.56-0.23,3.47,0" class="stroke" stroke-dasharray="150"><set attributeName="opacity" to="0" dur="7.1s" /><animate attributeName="stroke-dashoffset" from="150" to="0" dur="1.8s" begin="7.1s" fill="freeze" /></path><path d="M36.34,54.76c1.01,1.01,1.62,1.73,1.63,3.05c0.03,3.69,0.36,11.57,0.4,17.81" class="stroke" stroke-dasharray="150"><set attributeName="opacity" to="0" dur="8.0s" /><animate attributeName="stroke-dashoffset" from="150" to="0" dur="1.8s" begin="8.0s" fill="freeze" /></path><path d="M34.46,76.79c0.54,0.71,1.29,1.21,2.6,0.66c6.19-2.58,20.57-9.21,27.53-12.2" class="stroke" stroke-dasharray="150"><set attributeName="opacity" to="0" dur="9.0s" /><animate attributeName="stroke-dashoffset" from="150" to="0" dur="1.8s" begin="9.0s" fill="freeze" /></path><path d="M71.22,26.9c1.66,0.73,3.67,0.68,5.12,0.48c1.45-0.2,14.64-3.01,16.45-3.21s4.71-0.41,4.71,3.89c0,6.7-2,25.2-4.86,35.05c-2.56,8.81-6.88,1.02-7.43,0.61" class="stroke" stroke-dasharray="150"><set attributeName="opacity" to="0" dur="10.0s" /><animate attributeName="stroke-dashoffset" from="150" to="0" dur="1.8s" begin="10.0s" fill="freeze" /></path><path d="M72.47,28.05c0.87,0.87,1.29,1.84,1.3,3.45c0.08,9.95,0.03,38.68,0.01,55.75c0,3.49-0.01,6.42-0.01,8.5" class="stroke" stroke-dasharray="150"><set attributeName="opacity" to="0" dur="11.7s" /><animate attributeName="stroke-dashoffset" from="150" to="0" dur="1.8s" begin="11.7s" fill="freeze" /></path><text x="90" y="120" id="reset-kvg-05fa1">⟳</text><text x="70" y="120" id="pause-kvg-05fa1">◼</text><script type="text/javascript"><![CDATA[function RecurringTimer(e,t){var n,r,i=t;this.pause=function(){window.clearTimeout(n);i-=new Date-r};var s=function(){r=new Date;n=window.setTimeout(function(){i=t;s();e()},i)};this.clear=function(){window.clearTimeout(n);i=t;n=window.setTimeout(function(){i=t;s();e()},i)};this.resume=s;this.resume()}function invoketimer(){timer=new RecurringTimer(function(){svg.setCurrentTime(0)},14200.0)}var svg=document.getElementById("kvg-05fa1");var pause=document.getElementById("pause-kvg-05fa1");var reset=document.getElementById("reset-kvg-05fa1");var timer;invoketimer();reset.onclick=function(){svg.setCurrentTime(0);timer.clear();svg.unpauseAnimations();pause.innerHTML = "◼";};pause.onclick=function(){if(svg.animationsPaused()){svg.unpauseAnimations();timer.resume();pause.innerHTML="◼"}else{svg.pauseAnimations();timer.pause();pause.innerHTML="▶"}}]]></script></svg>