<svg id="kvg-06031" class="kanjivg" width="106" height="126" xmlns="http://www.w3.org/2000/svg" xmlns:xlink="http://www.w3.org/1999/xlink" xml:space="preserve" version="1.1" baseProfile="full"><defs><style type="text/css"><![CDATA[path.black{fill:none;stroke:black;stroke-width:5;stroke-linecap:round;stroke-linejoin:round;}path.grey{fill:none;stroke:#ddd;stroke-width:5;stroke-linecap:round;stroke-linejoin:round;}path.stroke{fill:none;stroke:black;stroke-width:5;stroke-linecap:round;stroke-linejoin:round;}rect{fill:none;stroke:#555;stroke-width:2;} text{font-size:16px;font-family:Segoe UI Symbol,Cambria Math,DejaVu Sans,Symbola,Quivira,STIX,Code2000;-webkit-touch-callout:none;cursor:pointer;-webkit-user-select:none;-khtml-user-select:none;-moz-user-select:none;-ms-user-select:none;user-select: none;}text:hover{color:#777;}#reset{font-weight:bold;}]]></style><marker id="markerStart" markerWidth="8" markerHeight="8" style="overflow:visible;"><circle cx="0" cy="0" r="1.5" style="stroke:none;fill:red;fill-opacity:0.5;"/></marker><marker id="markerEnd" style="overflow:visible;"><circle cx="0" cy="0" r="0.8" style="stroke:none;fill:blue;fill-opacity:0.5;"><animate attributeName="opacity" from="1" to="0" dur="3s" repeatCount="indefinite" /></circle></marker></defs><rect x="4" y="4" width="100" height="100" /><path d="M39.42,12c0.04,0.51,0.09,1.33-0.08,2.07C38.33,18.42,32.75,27,25.1,33.82" class="grey" /><path d="M38.95,22.52c0.98,0.39,2.34,0.52,3.9,0.26c1.56-0.26,33.35-4.45,37.25-4.58c3.9-0.13,3.82,2.24,3.6,5c-0.7,8.55-4.2,25.3-11.28,37.42C69.11,66.29,65,61,63.18,58.47" class="grey" /><path d="M51.33,24.53c0.06,0.59,0.17,1.53-0.11,2.36c-2.74,8.13-9.27,15.88-20.08,22.56" class="grey" /><path d="M65.81,23.02c0.07,0.85,0.15,2.2-0.14,3.42c-1.73,7.22-11.11,23.05-24.72,32.74" class="grey" /><path d="M39.95,31.83c9.06,2.8,23.41,11.52,25.68,15.88" class="grey" /><path d="M25.64,77.82c0.39,2.39-3.92,12.94-7.06,16.92" class="grey" /><path d="M36.58,70.75c6.92,14,15.67,28,40.14,26.93c12.46-0.54,13.28-3.25,2.88-8.8" class="grey" /><path d="M57.91,73.75c2.17,5.25,5.32,10.5,7.63,2.46" class="grey" /><path d="M82.13,68.73c4.53,2.37,7.92,4.53,11.6,11.86" class="grey" /><path d="M39.42,12c0.04,0.51,0.09,1.33-0.08,2.07C38.33,18.42,32.75,27,25.1,33.82" class="stroke" stroke-dasharray="150"><animate attributeName="stroke-dashoffset" from="150" to="0" dur="1.8s" begin="0.0s" fill="freeze" /></path><path d="M38.95,22.52c0.98,0.39,2.34,0.52,3.9,0.26c1.56-0.26,33.35-4.45,37.25-4.58c3.9-0.13,3.82,2.24,3.6,5c-0.7,8.55-4.2,25.3-11.28,37.42C69.11,66.29,65,61,63.18,58.47" class="stroke" stroke-dasharray="150"><set attributeName="opacity" to="0" dur="1.0s" /><animate attributeName="stroke-dashoffset" from="150" to="0" dur="1.8s" begin="1.0s" fill="freeze" /></path><path d="M51.33,24.53c0.06,0.59,0.17,1.53-0.11,2.36c-2.74,8.13-9.27,15.88-20.08,22.56" class="stroke" stroke-dasharray="150"><set attributeName="opacity" to="0" dur="2.9s" /><animate attributeName="stroke-dashoffset" from="150" to="0" dur="1.8s" begin="2.9s" fill="freeze" /></path><path d="M65.81,23.02c0.07,0.85,0.15,2.2-0.14,3.42c-1.73,7.22-11.11,23.05-24.72,32.74" class="stroke" stroke-dasharray="150"><set attributeName="opacity" to="0" dur="3.9s" /><animate attributeName="stroke-dashoffset" from="150" to="0" dur="1.8s" begin="3.9s" fill="freeze" /></path><path d="M39.95,31.83c9.06,2.8,23.41,11.52,25.68,15.88" class="stroke" stroke-dasharray="150"><set attributeName="opacity" to="0" dur="5.1s" /><animate attributeName="stroke-dashoffset" from="150" to="0" dur="1.8s" begin="5.1s" fill="freeze" /></path><path d="M25.64,77.82c0.39,2.39-3.92,12.94-7.06,16.92" class="stroke" stroke-dasharray="150"><set attributeName="opacity" to="0" dur="6.1s" /><animate attributeName="stroke-dashoffset" from="150" to="0" dur="1.8s" begin="6.1s" fill="freeze" /></path><path d="M36.58,70.75c6.92,14,15.67,28,40.14,26.93c12.46-0.54,13.28-3.25,2.88-8.8" class="stroke" stroke-dasharray="150"><set attributeName="opacity" to="0" dur="7.0s" /><animate attributeName="stroke-dashoffset" from="150" to="0" dur="1.8s" begin="7.0s" fill="freeze" /></path><path d="M57.91,73.75c2.17,5.25,5.32,10.5,7.63,2.46" class="stroke" stroke-dasharray="150"><set attributeName="opacity" to="0" dur="8.7s" /><animate attributeName="stroke-dashoffset" from="150" to="0" dur="1.8s" begin="8.7s" fill="freeze" /></path><path d="M82.13,68.73c4.53,2.37,7.92,4.53,11.6,11.86" class="stroke" stroke-dasharray="150"><set attributeName="opacity" to="0" dur="9.6s" /><animate attributeName="stroke-dashoffset" from="150" to="0" dur="1.8s" begin="9.6s" fill="freeze" /></path><text x="90" y="120" id="reset-kvg-06031">⟳</text><text x="70" y="120" id="pause-kvg-06031">◼</text><script type="text/javascript"><![CDATA[function RecurringTimer(e,t){var n,r,i=t;this.pause=function(){window.clearTimeout(n);i-=new Date-r};var s=function(){r=new Date;n=window.setTimeout(function(){i=t;s();e()},i)};this.clear=function(){window.clearTimeout(n);i=t;n=window.setTimeout(function(){i=t;s();e()},i)};this.resume=s;this.resume()}function invoketimer(){timer=new RecurringTimer(function(){svg.setCurrentTime(0)},11500.0)}var svg=document.getElementById("kvg-06031");var pause=document.getElementById("pause-kvg-06031");var reset=document.getElementById("reset-kvg-06031");var timer;invoketimer();reset.onclick=function(){svg.setCurrentTime(0);timer.clear();svg.unpauseAnimations();pause.innerHTML = "◼";};pause.onclick=function(){if(svg.animationsPaused()){svg.unpauseAnimations();timer.resume();pause.innerHTML="◼"}else{svg.pauseAnimations();timer.pause();pause.innerHTML="▶"}}]]></script></svg>