<svg id="kvg-0604b" class="kanjivg" width="106" height="126" xmlns="http://www.w3.org/2000/svg" xmlns:xlink="http://www.w3.org/1999/xlink" xml:space="preserve" version="1.1" baseProfile="full"><defs><style type="text/css"><![CDATA[path.black{fill:none;stroke:black;stroke-width:5;stroke-linecap:round;stroke-linejoin:round;}path.grey{fill:none;stroke:#ddd;stroke-width:5;stroke-linecap:round;stroke-linejoin:round;}path.stroke{fill:none;stroke:black;stroke-width:5;stroke-linecap:round;stroke-linejoin:round;}rect{fill:none;stroke:#555;stroke-width:2;} text{font-size:16px;font-family:Segoe UI Symbol,Cambria Math,DejaVu Sans,Symbola,Quivira,STIX,Code2000;-webkit-touch-callout:none;cursor:pointer;-webkit-user-select:none;-khtml-user-select:none;-moz-user-select:none;-ms-user-select:none;user-select: none;}text:hover{color:#777;}#reset{font-weight:bold;}]]></style><marker id="markerStart" markerWidth="8" markerHeight="8" style="overflow:visible;"><circle cx="0" cy="0" r="1.5" style="stroke:none;fill:red;fill-opacity:0.5;"/></marker><marker id="markerEnd" style="overflow:visible;"><circle cx="0" cy="0" r="0.8" style="stroke:none;fill:blue;fill-opacity:0.5;"><animate attributeName="opacity" from="1" to="0" dur="3s" repeatCount="indefinite" /></circle></marker></defs><rect x="4" y="4" width="100" height="100" /><path d="M52.28,12.06c1.27,1.27,1.34,2.69,1.34,4.62c0,1.44-0.12,3.9-0.12,6.19" class="grey" /><path d="M19.55,25.56c2.95,0.69,5.65,0.67,8.7,0.41c11.44-0.97,36.68-3.01,50-3.51c2.94-0.11,6.19-0.33,9,0.73" class="grey" /><path d="M46.35,27.45c0.78,0.93,0.9,1.92,0.68,3.06c-2.15,11-5.53,23.12-16.84,31.18" class="grey" /><path d="M61.48,25.88c0.82,0.82,0.92,1.83,0.92,3.86c0,11.81,0.08,22.46,0.08,25.77c0,8.23-4.82,1-5.83,0.17" class="grey" /><path d="M31.76,37.12c0.12,1.08-0.26,2.02-0.87,2.93c-2.78,4.12-7.11,9.23-14.08,14.09" class="grey" /><path d="M72.91,36.61c5.47,2.32,14.14,9.53,15.5,13.14" class="grey" /><path d="M24.15,75.15c0.28,2.46-2.81,13.31-5.07,17.4" class="grey" /><path d="M35.83,70.66C43,85.75,53.75,95,78.03,95.18c11.47,0.09,12.22-3.41,2.65-9.22" class="grey" /><path d="M55.41,68.75c2.02,4.7,4.72,9.91,6.88,2.71" class="grey" /><path d="M79.63,64.73c4.72,2.21,8.49,5.64,11.85,10.78" class="grey" /><path d="M52.28,12.06c1.27,1.27,1.34,2.69,1.34,4.62c0,1.44-0.12,3.9-0.12,6.19" class="stroke" stroke-dasharray="150"><animate attributeName="stroke-dashoffset" from="150" to="0" dur="1.8s" begin="0.0s" fill="freeze" /></path><path d="M19.55,25.56c2.95,0.69,5.65,0.67,8.7,0.41c11.44-0.97,36.68-3.01,50-3.51c2.94-0.11,6.19-0.33,9,0.73" class="stroke" stroke-dasharray="150"><set attributeName="opacity" to="0" dur="0.9s" /><animate attributeName="stroke-dashoffset" from="150" to="0" dur="1.8s" begin="0.9s" fill="freeze" /></path><path d="M46.35,27.45c0.78,0.93,0.9,1.92,0.68,3.06c-2.15,11-5.53,23.12-16.84,31.18" class="stroke" stroke-dasharray="150"><set attributeName="opacity" to="0" dur="2.4s" /><animate attributeName="stroke-dashoffset" from="150" to="0" dur="1.8s" begin="2.4s" fill="freeze" /></path><path d="M61.48,25.88c0.82,0.82,0.92,1.83,0.92,3.86c0,11.81,0.08,22.46,0.08,25.77c0,8.23-4.82,1-5.83,0.17" class="stroke" stroke-dasharray="150"><set attributeName="opacity" to="0" dur="3.4s" /><animate attributeName="stroke-dashoffset" from="150" to="0" dur="1.8s" begin="3.4s" fill="freeze" /></path><path d="M31.76,37.12c0.12,1.08-0.26,2.02-0.87,2.93c-2.78,4.12-7.11,9.23-14.08,14.09" class="stroke" stroke-dasharray="150"><set attributeName="opacity" to="0" dur="4.5s" /><animate attributeName="stroke-dashoffset" from="150" to="0" dur="1.8s" begin="4.5s" fill="freeze" /></path><path d="M72.91,36.61c5.47,2.32,14.14,9.53,15.5,13.14" class="stroke" stroke-dasharray="150"><set attributeName="opacity" to="0" dur="5.5s" /><animate attributeName="stroke-dashoffset" from="150" to="0" dur="1.8s" begin="5.5s" fill="freeze" /></path><path d="M24.15,75.15c0.28,2.46-2.81,13.31-5.07,17.4" class="stroke" stroke-dasharray="150"><set attributeName="opacity" to="0" dur="6.5s" /><animate attributeName="stroke-dashoffset" from="150" to="0" dur="1.8s" begin="6.5s" fill="freeze" /></path><path d="M35.83,70.66C43,85.75,53.75,95,78.03,95.18c11.47,0.09,12.22-3.41,2.65-9.22" class="stroke" stroke-dasharray="150"><set attributeName="opacity" to="0" dur="7.4s" /><animate attributeName="stroke-dashoffset" from="150" to="0" dur="1.8s" begin="7.4s" fill="freeze" /></path><path d="M55.41,68.75c2.02,4.7,4.72,9.91,6.88,2.71" class="stroke" stroke-dasharray="150"><set attributeName="opacity" to="0" dur="9.1s" /><animate attributeName="stroke-dashoffset" from="150" to="0" dur="1.8s" begin="9.1s" fill="freeze" /></path><path d="M79.63,64.73c4.72,2.21,8.49,5.64,11.85,10.78" class="stroke" stroke-dasharray="150"><set attributeName="opacity" to="0" dur="10.0s" /><animate attributeName="stroke-dashoffset" from="150" to="0" dur="1.8s" begin="10.0s" fill="freeze" /></path><text x="90" y="120" id="reset-kvg-0604b">⟳</text><text x="70" y="120" id="pause-kvg-0604b">◼</text><script type="text/javascript"><![CDATA[function RecurringTimer(e,t){var n,r,i=t;this.pause=function(){window.clearTimeout(n);i-=new Date-r};var s=function(){r=new Date;n=window.setTimeout(function(){i=t;s();e()},i)};this.clear=function(){window.clearTimeout(n);i=t;n=window.setTimeout(function(){i=t;s();e()},i)};this.resume=s;this.resume()}function invoketimer(){timer=new RecurringTimer(function(){svg.setCurrentTime(0)},11900.0)}var svg=document.getElementById("kvg-0604b");var pause=document.getElementById("pause-kvg-0604b");var reset=document.getElementById("reset-kvg-0604b");var timer;invoketimer();reset.onclick=function(){svg.setCurrentTime(0);timer.clear();svg.unpauseAnimations();pause.innerHTML = "◼";};pause.onclick=function(){if(svg.animationsPaused()){svg.unpauseAnimations();timer.resume();pause.innerHTML="◼"}else{svg.pauseAnimations();timer.pause();pause.innerHTML="▶"}}]]></script></svg>