<svg id="kvg-06069" class="kanjivg" width="106" height="126" xmlns="http://www.w3.org/2000/svg" xmlns:xlink="http://www.w3.org/1999/xlink" xml:space="preserve" version="1.1" baseProfile="full"><defs><style type="text/css"><![CDATA[path.black{fill:none;stroke:black;stroke-width:5;stroke-linecap:round;stroke-linejoin:round;}path.grey{fill:none;stroke:#ddd;stroke-width:5;stroke-linecap:round;stroke-linejoin:round;}path.stroke{fill:none;stroke:black;stroke-width:5;stroke-linecap:round;stroke-linejoin:round;}rect{fill:none;stroke:#555;stroke-width:2;} text{font-size:16px;font-family:Segoe UI Symbol,Cambria Math,DejaVu Sans,Symbola,Quivira,STIX,Code2000;-webkit-touch-callout:none;cursor:pointer;-webkit-user-select:none;-khtml-user-select:none;-moz-user-select:none;-ms-user-select:none;user-select: none;}text:hover{color:#777;}#reset{font-weight:bold;}]]></style><marker id="markerStart" markerWidth="8" markerHeight="8" style="overflow:visible;"><circle cx="0" cy="0" r="1.5" style="stroke:none;fill:red;fill-opacity:0.5;"/></marker><marker id="markerEnd" style="overflow:visible;"><circle cx="0" cy="0" r="0.8" style="stroke:none;fill:blue;fill-opacity:0.5;"><animate attributeName="opacity" from="1" to="0" dur="3s" repeatCount="indefinite" /></circle></marker></defs><rect x="4" y="4" width="100" height="100" /><path d="M30.79,16.2c0.69,0.69,1.27,1.88,1.28,2.93c0.08,6.81,0.05,22.51,0.04,36.49c0,2.18,0,4.32,0,6.38" class="grey" /><path d="M33.19,17.99c11.32-0.83,31.67-3.25,41.57-3.67c3.5-0.15,4.93,0.94,4.93,4.06c0,8.25-0.48,22.68-0.55,36c-0.01,1.95-0.02,3.88-0.02,5.75" class="grey" /><path d="M39,33.61c1.27,0.24,2.61,0.03,3.88-0.05c6.99-0.44,16.75-2.25,24.12-2.88c1.62-0.14,3.21-0.18,4.84-0.18" class="grey" /><path d="M54.78,21.19c0.64,0.64,0.77,1.96,0.66,2.92c-1.19,11.01-5.94,22.64-15.12,30.27" class="grey" /><path d="M55.73,38.53c5.18,2.62,10.77,6.97,14.59,12.18" class="grey" /><path d="M33.26,59.35c13.62-0.98,32.43-2.41,44.86-2.64" class="grey" /><path d="M23.25,75.5c0.35,2.12-3.47,11.49-6.25,15.03" class="grey" /><path d="M31.94,70.1c7.31,13.4,14.81,25.52,45.81,25.4c9.38-0.04,9.62-3.12,3.5-7.5" class="grey" /><path d="M54.15,68.82c2.6,5.18,6.25,7.96,7.42,3.18" class="grey" /><path d="M83.96,68.51C87.5,71.5,91.25,76,94.75,81.97" class="grey" /><path d="M30.79,16.2c0.69,0.69,1.27,1.88,1.28,2.93c0.08,6.81,0.05,22.51,0.04,36.49c0,2.18,0,4.32,0,6.38" class="stroke" stroke-dasharray="150"><animate attributeName="stroke-dashoffset" from="150" to="0" dur="1.8s" begin="0.0s" fill="freeze" /></path><path d="M33.19,17.99c11.32-0.83,31.67-3.25,41.57-3.67c3.5-0.15,4.93,0.94,4.93,4.06c0,8.25-0.48,22.68-0.55,36c-0.01,1.95-0.02,3.88-0.02,5.75" class="stroke" stroke-dasharray="150"><set attributeName="opacity" to="0" dur="1.2s" /><animate attributeName="stroke-dashoffset" from="150" to="0" dur="1.8s" begin="1.2s" fill="freeze" /></path><path d="M39,33.61c1.27,0.24,2.61,0.03,3.88-0.05c6.99-0.44,16.75-2.25,24.12-2.88c1.62-0.14,3.21-0.18,4.84-0.18" class="stroke" stroke-dasharray="150"><set attributeName="opacity" to="0" dur="3.0s" /><animate attributeName="stroke-dashoffset" from="150" to="0" dur="1.8s" begin="3.0s" fill="freeze" /></path><path d="M54.78,21.19c0.64,0.64,0.77,1.96,0.66,2.92c-1.19,11.01-5.94,22.64-15.12,30.27" class="stroke" stroke-dasharray="150"><set attributeName="opacity" to="0" dur="4.0s" /><animate attributeName="stroke-dashoffset" from="150" to="0" dur="1.8s" begin="4.0s" fill="freeze" /></path><path d="M55.73,38.53c5.18,2.62,10.77,6.97,14.59,12.18" class="stroke" stroke-dasharray="150"><set attributeName="opacity" to="0" dur="5.0s" /><animate attributeName="stroke-dashoffset" from="150" to="0" dur="1.8s" begin="5.0s" fill="freeze" /></path><path d="M33.26,59.35c13.62-0.98,32.43-2.41,44.86-2.64" class="stroke" stroke-dasharray="150"><set attributeName="opacity" to="0" dur="5.9s" /><animate attributeName="stroke-dashoffset" from="150" to="0" dur="1.8s" begin="5.9s" fill="freeze" /></path><path d="M23.25,75.5c0.35,2.12-3.47,11.49-6.25,15.03" class="stroke" stroke-dasharray="150"><set attributeName="opacity" to="0" dur="7.0s" /><animate attributeName="stroke-dashoffset" from="150" to="0" dur="1.8s" begin="7.0s" fill="freeze" /></path><path d="M31.94,70.1c7.31,13.4,14.81,25.52,45.81,25.4c9.38-0.04,9.62-3.12,3.5-7.5" class="stroke" stroke-dasharray="150"><set attributeName="opacity" to="0" dur="7.9s" /><animate attributeName="stroke-dashoffset" from="150" to="0" dur="1.8s" begin="7.9s" fill="freeze" /></path><path d="M54.15,68.82c2.6,5.18,6.25,7.96,7.42,3.18" class="stroke" stroke-dasharray="150"><set attributeName="opacity" to="0" dur="9.6s" /><animate attributeName="stroke-dashoffset" from="150" to="0" dur="1.8s" begin="9.6s" fill="freeze" /></path><path d="M83.96,68.51C87.5,71.5,91.25,76,94.75,81.97" class="stroke" stroke-dasharray="150"><set attributeName="opacity" to="0" dur="10.5s" /><animate attributeName="stroke-dashoffset" from="150" to="0" dur="1.8s" begin="10.5s" fill="freeze" /></path><text x="90" y="120" id="reset-kvg-06069">⟳</text><text x="70" y="120" id="pause-kvg-06069">◼</text><script type="text/javascript"><![CDATA[function RecurringTimer(e,t){var n,r,i=t;this.pause=function(){window.clearTimeout(n);i-=new Date-r};var s=function(){r=new Date;n=window.setTimeout(function(){i=t;s();e()},i)};this.clear=function(){window.clearTimeout(n);i=t;n=window.setTimeout(function(){i=t;s();e()},i)};this.resume=s;this.resume()}function invoketimer(){timer=new RecurringTimer(function(){svg.setCurrentTime(0)},12400.0)}var svg=document.getElementById("kvg-06069");var pause=document.getElementById("pause-kvg-06069");var reset=document.getElementById("reset-kvg-06069");var timer;invoketimer();reset.onclick=function(){svg.setCurrentTime(0);timer.clear();svg.unpauseAnimations();pause.innerHTML = "◼";};pause.onclick=function(){if(svg.animationsPaused()){svg.unpauseAnimations();timer.resume();pause.innerHTML="◼"}else{svg.pauseAnimations();timer.pause();pause.innerHTML="▶"}}]]></script></svg>