<svg id="kvg-06075-KaishoVt4" class="kanjivg" width="106" height="126" xmlns="http://www.w3.org/2000/svg" xmlns:xlink="http://www.w3.org/1999/xlink" xml:space="preserve" version="1.1" baseProfile="full"><defs><style type="text/css"><![CDATA[path.black{fill:none;stroke:black;stroke-width:5;stroke-linecap:round;stroke-linejoin:round;}path.grey{fill:none;stroke:#ddd;stroke-width:5;stroke-linecap:round;stroke-linejoin:round;}path.stroke{fill:none;stroke:black;stroke-width:5;stroke-linecap:round;stroke-linejoin:round;}rect{fill:none;stroke:#555;stroke-width:2;} text{font-size:16px;font-family:Segoe UI Symbol,Cambria Math,DejaVu Sans,Symbola,Quivira,STIX,Code2000;-webkit-touch-callout:none;cursor:pointer;-webkit-user-select:none;-khtml-user-select:none;-moz-user-select:none;-ms-user-select:none;user-select: none;}text:hover{color:#777;}#reset{font-weight:bold;}]]></style><marker id="markerStart" markerWidth="8" markerHeight="8" style="overflow:visible;"><circle cx="0" cy="0" r="1.5" style="stroke:none;fill:red;fill-opacity:0.5;"/></marker><marker id="markerEnd" style="overflow:visible;"><circle cx="0" cy="0" r="0.8" style="stroke:none;fill:blue;fill-opacity:0.5;"><animate attributeName="opacity" from="1" to="0" dur="3s" repeatCount="indefinite" /></circle></marker></defs><rect x="4" y="4" width="100" height="100" /><path d="M29.25,24.86c0.97,0.41,2.74,0.52,3.71,0.41c6.16-0.7,38.44-4.6,44.41-4.13c1.61,0.13,2.58,0.19,3.39,0.4" class="grey" /><path d="M27.64,37.79c0.35,0.48,1.35,2.32,1.54,2.93c1.51,5.03,3.07,14.53,4.76,25.17" class="grey" /><path d="M30.33,39.43c12.83-1.59,37.29-5.42,46.92-6.24C79.5,33,82,33.75,81.5,36.25c-1.02,5.09-3.53,19.48-6.16,26.26" class="grey" /><path d="M52.24,12.07c1.26,1.18,2,2.88,2.01,4.43c0.04,15.3,0.23,40.45,0.23,44.44" class="grey" /><path d="M32.65,51.85c10.51-1.51,21.08-2.63,31.62-3.89c1.27-0.15,2.5-0.3,3.69-0.44" class="grey" /><path d="M34.64,63.92c10.57-1.25,28.59-3.6,41.33-4.8" class="grey" /><path d="M24.07,78.57c0.37,2.28-3.75,12.36-6.74,16.17" class="grey" /><path d="M34.75,76.5c10.93,15.02,15.99,21.75,45.26,21.68c9.1-0.02,8.99-2.93,2.81-7.28" class="grey" /><path d="M52.77,72.75c2.23,5.25,5.48,10.5,7.87,2.46" class="grey" /><path d="M80.7,71.23c5.48,3.27,9.58,6.25,14.03,16.36" class="grey" /><path d="M29.25,24.86c0.97,0.41,2.74,0.52,3.71,0.41c6.16-0.7,38.44-4.6,44.41-4.13c1.61,0.13,2.58,0.19,3.39,0.4" class="stroke" stroke-dasharray="150"><animate attributeName="stroke-dashoffset" from="150" to="0" dur="1.8s" begin="0.0s" fill="freeze" /></path><path d="M27.64,37.79c0.35,0.48,1.35,2.32,1.54,2.93c1.51,5.03,3.07,14.53,4.76,25.17" class="stroke" stroke-dasharray="150"><set attributeName="opacity" to="0" dur="1.3s" /><animate attributeName="stroke-dashoffset" from="150" to="0" dur="1.8s" begin="1.3s" fill="freeze" /></path><path d="M30.33,39.43c12.83-1.59,37.29-5.42,46.92-6.24C79.5,33,82,33.75,81.5,36.25c-1.02,5.09-3.53,19.48-6.16,26.26" class="stroke" stroke-dasharray="150"><set attributeName="opacity" to="0" dur="2.3s" /><animate attributeName="stroke-dashoffset" from="150" to="0" dur="1.8s" begin="2.3s" fill="freeze" /></path><path d="M52.24,12.07c1.26,1.18,2,2.88,2.01,4.43c0.04,15.3,0.23,40.45,0.23,44.44" class="stroke" stroke-dasharray="150"><set attributeName="opacity" to="0" dur="4.0s" /><animate attributeName="stroke-dashoffset" from="150" to="0" dur="1.8s" begin="4.0s" fill="freeze" /></path><path d="M32.65,51.85c10.51-1.51,21.08-2.63,31.62-3.89c1.27-0.15,2.5-0.3,3.69-0.44" class="stroke" stroke-dasharray="150"><set attributeName="opacity" to="0" dur="5.2s" /><animate attributeName="stroke-dashoffset" from="150" to="0" dur="1.8s" begin="5.2s" fill="freeze" /></path><path d="M34.64,63.92c10.57-1.25,28.59-3.6,41.33-4.8" class="stroke" stroke-dasharray="150"><set attributeName="opacity" to="0" dur="6.2s" /><animate attributeName="stroke-dashoffset" from="150" to="0" dur="1.8s" begin="6.2s" fill="freeze" /></path><path d="M24.07,78.57c0.37,2.28-3.75,12.36-6.74,16.17" class="stroke" stroke-dasharray="150"><set attributeName="opacity" to="0" dur="7.300000000000001s" /><animate attributeName="stroke-dashoffset" from="150" to="0" dur="1.8s" begin="7.300000000000001s" fill="freeze" /></path><path d="M34.75,76.5c10.93,15.02,15.99,21.75,45.26,21.68c9.1-0.02,8.99-2.93,2.81-7.28" class="stroke" stroke-dasharray="150"><set attributeName="opacity" to="0" dur="8.200000000000001s" /><animate attributeName="stroke-dashoffset" from="150" to="0" dur="1.8s" begin="8.200000000000001s" fill="freeze" /></path><path d="M52.77,72.75c2.23,5.25,5.48,10.5,7.87,2.46" class="stroke" stroke-dasharray="150"><set attributeName="opacity" to="0" dur="9.700000000000001s" /><animate attributeName="stroke-dashoffset" from="150" to="0" dur="1.8s" begin="9.700000000000001s" fill="freeze" /></path><path d="M80.7,71.23c5.48,3.27,9.58,6.25,14.03,16.36" class="stroke" stroke-dasharray="150"><set attributeName="opacity" to="0" dur="10.600000000000001s" /><animate attributeName="stroke-dashoffset" from="150" to="0" dur="1.8s" begin="10.600000000000001s" fill="freeze" /></path><text x="90" y="120" id="reset-kvg-06075-KaishoVt4">⟳</text><text x="70" y="120" id="pause-kvg-06075-KaishoVt4">◼</text><script type="text/javascript"><![CDATA[function RecurringTimer(e,t){var n,r,i=t;this.pause=function(){window.clearTimeout(n);i-=new Date-r};var s=function(){r=new Date;n=window.setTimeout(function(){i=t;s();e()},i)};this.clear=function(){window.clearTimeout(n);i=t;n=window.setTimeout(function(){i=t;s();e()},i)};this.resume=s;this.resume()}function invoketimer(){timer=new RecurringTimer(function(){svg.setCurrentTime(0)},12600.000000000002)}var svg=document.getElementById("kvg-06075-KaishoVt4");var pause=document.getElementById("pause-kvg-06075-KaishoVt4");var reset=document.getElementById("reset-kvg-06075-KaishoVt4");var timer;invoketimer();reset.onclick=function(){svg.setCurrentTime(0);timer.clear();svg.unpauseAnimations();pause.innerHTML = "◼";};pause.onclick=function(){if(svg.animationsPaused()){svg.unpauseAnimations();timer.resume();pause.innerHTML="◼"}else{svg.pauseAnimations();timer.pause();pause.innerHTML="▶"}}]]></script></svg>