<svg id="kvg-060aa" class="kanjivg" width="106" height="126" xmlns="http://www.w3.org/2000/svg" xmlns:xlink="http://www.w3.org/1999/xlink" xml:space="preserve" version="1.1" baseProfile="full"><defs><style type="text/css"><![CDATA[path.black{fill:none;stroke:black;stroke-width:5;stroke-linecap:round;stroke-linejoin:round;}path.grey{fill:none;stroke:#ddd;stroke-width:5;stroke-linecap:round;stroke-linejoin:round;}path.stroke{fill:none;stroke:black;stroke-width:5;stroke-linecap:round;stroke-linejoin:round;}rect{fill:none;stroke:#555;stroke-width:2;} text{font-size:16px;font-family:Segoe UI Symbol,Cambria Math,DejaVu Sans,Symbola,Quivira,STIX,Code2000;-webkit-touch-callout:none;cursor:pointer;-webkit-user-select:none;-khtml-user-select:none;-moz-user-select:none;-ms-user-select:none;user-select: none;}text:hover{color:#777;}#reset{font-weight:bold;}]]></style><marker id="markerStart" markerWidth="8" markerHeight="8" style="overflow:visible;"><circle cx="0" cy="0" r="1.5" style="stroke:none;fill:red;fill-opacity:0.5;"/></marker><marker id="markerEnd" style="overflow:visible;"><circle cx="0" cy="0" r="0.8" style="stroke:none;fill:blue;fill-opacity:0.5;"><animate attributeName="opacity" from="1" to="0" dur="3s" repeatCount="indefinite" /></circle></marker></defs><rect x="4" y="4" width="100" height="100" /><path d="M27.02,20.14c1.67,0.22,4.72,0.36,6.38,0.17C45.38,19,61.62,17,74.43,16.12c2.76-0.19,4.44,0.07,5.82,0.18" class="grey" /><path d="M27.44,34.62c1.06,0.51,1.86,1.44,2.06,2.2c1.12,4.18,1.51,7.44,2.3,11.64c0.2,1.07,0.39,2.05,0.55,2.88" class="grey" /><path d="M30.5,35.72c13.08-1.76,42.28-5.05,46.21-5.05c2.67,0,4.17,1.45,3.54,4.58c-0.61,3.03-1.06,4.82-1.95,9.01c-0.17,0.81-0.36,1.72-0.57,2.73" class="grey" /><path d="M33.37,49.41c11-1.28,28.75-3.16,43.96-4.13" class="grey" /><path d="M43.52,21.44c0.83,0.83,1.48,2.06,1.51,3.07c0.15,5.51,1.4,32.37,1.22,36.74" class="grey" /><path d="M62,19.31c0.84,0.84,1.03,2.06,1,2.94c-0.25,6-1.71,33.68-1.87,37.74" class="grey" /><path d="M23,64.05c2.08,0.33,4.38,0.36,8,0.01C47,62.5,66.62,60,80.25,59.7c3.47-0.08,5.5,0.05,7.55,0.5" class="grey" /><path d="M24,77c0.29,2.19-2.91,11.85-5.25,15.5" class="grey" /><path d="M35,70.5c8.75,14.45,19.5,25.75,47.3,24.35c9.58-0.48,8.45-3.6-0.55-8.85" class="grey" /><path d="M55.49,69.75c1.82,3.17,6.58,9.74,7.72,5.27" class="grey" /><path d="M82.5,68.5c4,2.2,8.88,6.5,12,12" class="grey" /><path d="M27.02,20.14c1.67,0.22,4.72,0.36,6.38,0.17C45.38,19,61.62,17,74.43,16.12c2.76-0.19,4.44,0.07,5.82,0.18" class="stroke" stroke-dasharray="150"><animate attributeName="stroke-dashoffset" from="150" to="0" dur="1.8s" begin="0.0s" fill="freeze" /></path><path d="M27.44,34.62c1.06,0.51,1.86,1.44,2.06,2.2c1.12,4.18,1.51,7.44,2.3,11.64c0.2,1.07,0.39,2.05,0.55,2.88" class="stroke" stroke-dasharray="150"><set attributeName="opacity" to="0" dur="1.3s" /><animate attributeName="stroke-dashoffset" from="150" to="0" dur="1.8s" begin="1.3s" fill="freeze" /></path><path d="M30.5,35.72c13.08-1.76,42.28-5.05,46.21-5.05c2.67,0,4.17,1.45,3.54,4.58c-0.61,3.03-1.06,4.82-1.95,9.01c-0.17,0.81-0.36,1.72-0.57,2.73" class="stroke" stroke-dasharray="150"><set attributeName="opacity" to="0" dur="2.2s" /><animate attributeName="stroke-dashoffset" from="150" to="0" dur="1.8s" begin="2.2s" fill="freeze" /></path><path d="M33.37,49.41c11-1.28,28.75-3.16,43.96-4.13" class="stroke" stroke-dasharray="150"><set attributeName="opacity" to="0" dur="3.7s" /><animate attributeName="stroke-dashoffset" from="150" to="0" dur="1.8s" begin="3.7s" fill="freeze" /></path><path d="M43.52,21.44c0.83,0.83,1.48,2.06,1.51,3.07c0.15,5.51,1.4,32.37,1.22,36.74" class="stroke" stroke-dasharray="150"><set attributeName="opacity" to="0" dur="4.800000000000001s" /><animate attributeName="stroke-dashoffset" from="150" to="0" dur="1.8s" begin="4.800000000000001s" fill="freeze" /></path><path d="M62,19.31c0.84,0.84,1.03,2.06,1,2.94c-0.25,6-1.71,33.68-1.87,37.74" class="stroke" stroke-dasharray="150"><set attributeName="opacity" to="0" dur="5.9s" /><animate attributeName="stroke-dashoffset" from="150" to="0" dur="1.8s" begin="5.9s" fill="freeze" /></path><path d="M23,64.05c2.08,0.33,4.38,0.36,8,0.01C47,62.5,66.62,60,80.25,59.7c3.47-0.08,5.5,0.05,7.55,0.5" class="stroke" stroke-dasharray="150"><set attributeName="opacity" to="0" dur="7.0s" /><animate attributeName="stroke-dashoffset" from="150" to="0" dur="1.8s" begin="7.0s" fill="freeze" /></path><path d="M24,77c0.29,2.19-2.91,11.85-5.25,15.5" class="stroke" stroke-dasharray="150"><set attributeName="opacity" to="0" dur="8.5s" /><animate attributeName="stroke-dashoffset" from="150" to="0" dur="1.8s" begin="8.5s" fill="freeze" /></path><path d="M35,70.5c8.75,14.45,19.5,25.75,47.3,24.35c9.58-0.48,8.45-3.6-0.55-8.85" class="stroke" stroke-dasharray="150"><set attributeName="opacity" to="0" dur="9.4s" /><animate attributeName="stroke-dashoffset" from="150" to="0" dur="1.8s" begin="9.4s" fill="freeze" /></path><path d="M55.49,69.75c1.82,3.17,6.58,9.74,7.72,5.27" class="stroke" stroke-dasharray="150"><set attributeName="opacity" to="0" dur="11.1s" /><animate attributeName="stroke-dashoffset" from="150" to="0" dur="1.8s" begin="11.1s" fill="freeze" /></path><path d="M82.5,68.5c4,2.2,8.88,6.5,12,12" class="stroke" stroke-dasharray="150"><set attributeName="opacity" to="0" dur="12.0s" /><animate attributeName="stroke-dashoffset" from="150" to="0" dur="1.8s" begin="12.0s" fill="freeze" /></path><text x="90" y="120" id="reset-kvg-060aa">⟳</text><text x="70" y="120" id="pause-kvg-060aa">◼</text><script type="text/javascript"><![CDATA[function RecurringTimer(e,t){var n,r,i=t;this.pause=function(){window.clearTimeout(n);i-=new Date-r};var s=function(){r=new Date;n=window.setTimeout(function(){i=t;s();e()},i)};this.clear=function(){window.clearTimeout(n);i=t;n=window.setTimeout(function(){i=t;s();e()},i)};this.resume=s;this.resume()}function invoketimer(){timer=new RecurringTimer(function(){svg.setCurrentTime(0)},13900.0)}var svg=document.getElementById("kvg-060aa");var pause=document.getElementById("pause-kvg-060aa");var reset=document.getElementById("reset-kvg-060aa");var timer;invoketimer();reset.onclick=function(){svg.setCurrentTime(0);timer.clear();svg.unpauseAnimations();pause.innerHTML = "◼";};pause.onclick=function(){if(svg.animationsPaused()){svg.unpauseAnimations();timer.resume();pause.innerHTML="◼"}else{svg.pauseAnimations();timer.pause();pause.innerHTML="▶"}}]]></script></svg>