<svg id="kvg-060d3" class="kanjivg" width="106" height="126" xmlns="http://www.w3.org/2000/svg" xmlns:xlink="http://www.w3.org/1999/xlink" xml:space="preserve" version="1.1" baseProfile="full"><defs><style type="text/css"><![CDATA[path.black{fill:none;stroke:black;stroke-width:5;stroke-linecap:round;stroke-linejoin:round;}path.grey{fill:none;stroke:#ddd;stroke-width:5;stroke-linecap:round;stroke-linejoin:round;}path.stroke{fill:none;stroke:black;stroke-width:5;stroke-linecap:round;stroke-linejoin:round;}rect{fill:none;stroke:#555;stroke-width:2;} text{font-size:16px;font-family:Segoe UI Symbol,Cambria Math,DejaVu Sans,Symbola,Quivira,STIX,Code2000;-webkit-touch-callout:none;cursor:pointer;-webkit-user-select:none;-khtml-user-select:none;-moz-user-select:none;-ms-user-select:none;user-select: none;}text:hover{color:#777;}#reset{font-weight:bold;}]]></style><marker id="markerStart" markerWidth="8" markerHeight="8" style="overflow:visible;"><circle cx="0" cy="0" r="1.5" style="stroke:none;fill:red;fill-opacity:0.5;"/></marker><marker id="markerEnd" style="overflow:visible;"><circle cx="0" cy="0" r="0.8" style="stroke:none;fill:blue;fill-opacity:0.5;"><animate attributeName="opacity" from="1" to="0" dur="3s" repeatCount="indefinite" /></circle></marker></defs><rect x="4" y="4" width="100" height="100" /><path d="M16.22,35.5c0.03,4.31-2.47,14.14-4.69,17.5" class="grey" /><path d="M31.27,32.83C33.49,35.06,37,42,37.56,45.47" class="grey" /><path d="M22.37,13.75c1.09,0.5,1.74,2.25,1.96,3.25c0.22,1,0,73.75-0.22,80" class="grey" /><path d="M55.55,19.97c0.03,0.39,0.07,1.01-0.07,1.57c-0.81,3.32-5.27,8.98-11.8,15.05" class="grey" /><path d="M79.55,22.27c4.78,2.37,11.64,9.18,12.83,12.87" class="grey" /><path d="M50.16,39.36c0.8,0.25,2.27,0.24,3.08,0.25c8.79,0.1,25.48-3.08,28.83-3.2c1.34-0.05,2.14,0.12,2.81,0.24" class="grey" /><path d="M38.25,52.58c1.46,0.56,4.13,0.62,5.59,0.56c8.16-0.38,32.48-3.39,47.78-3.63c2.43-0.04,3.89,0.27,5.1,0.54" class="grey" /><path d="M66.51,14c0.62,0.94,1,2.34,0.65,4.42C65.06,30.87,58.05,62.98,36,75.63" class="grey" /><path d="M70.16,38.09c3.25,5.47,17.26,23.32,20.84,27.33c1.22,1.36,2.78,1.94,3.99,2.33" class="grey" /><path d="M53.83,64.83c0.55,0.1,2.03,0.32,3.16,0.24c4.39-0.32,17.47-3.19,18.96-3.56c2.24-0.55,3.69,0.97,3.6,3.19c-0.15,3.77-1.65,11.72-4.59,17.71c-2.14,4.37-4.71,1.08-5.46-0.68" class="grey" /><path d="M54.66,65.29c1.05,0.73,1.25,1.88,1.25,3.84c0,5.37-0.27,8.98-0.27,14.95c0,12,2.14,12.37,18.44,12.37c16.93,0,19.13-1.01,19.13-9.79" class="grey" /><path d="M16.22,35.5c0.03,4.31-2.47,14.14-4.69,17.5" class="stroke" stroke-dasharray="150"><animate attributeName="stroke-dashoffset" from="150" to="0" dur="1.8s" begin="0.0s" fill="freeze" /></path><path d="M31.27,32.83C33.49,35.06,37,42,37.56,45.47" class="stroke" stroke-dasharray="150"><set attributeName="opacity" to="0" dur="0.9s" /><animate attributeName="stroke-dashoffset" from="150" to="0" dur="1.8s" begin="0.9s" fill="freeze" /></path><path d="M22.37,13.75c1.09,0.5,1.74,2.25,1.96,3.25c0.22,1,0,73.75-0.22,80" class="stroke" stroke-dasharray="150"><set attributeName="opacity" to="0" dur="1.8s" /><animate attributeName="stroke-dashoffset" from="150" to="0" dur="1.8s" begin="1.8s" fill="freeze" /></path><path d="M55.55,19.97c0.03,0.39,0.07,1.01-0.07,1.57c-0.81,3.32-5.27,8.98-11.8,15.05" class="stroke" stroke-dasharray="150"><set attributeName="opacity" to="0" dur="3.5s" /><animate attributeName="stroke-dashoffset" from="150" to="0" dur="1.8s" begin="3.5s" fill="freeze" /></path><path d="M79.55,22.27c4.78,2.37,11.64,9.18,12.83,12.87" class="stroke" stroke-dasharray="150"><set attributeName="opacity" to="0" dur="4.5s" /><animate attributeName="stroke-dashoffset" from="150" to="0" dur="1.8s" begin="4.5s" fill="freeze" /></path><path d="M50.16,39.36c0.8,0.25,2.27,0.24,3.08,0.25c8.79,0.1,25.48-3.08,28.83-3.2c1.34-0.05,2.14,0.12,2.81,0.24" class="stroke" stroke-dasharray="150"><set attributeName="opacity" to="0" dur="5.4s" /><animate attributeName="stroke-dashoffset" from="150" to="0" dur="1.8s" begin="5.4s" fill="freeze" /></path><path d="M38.25,52.58c1.46,0.56,4.13,0.62,5.59,0.56c8.16-0.38,32.48-3.39,47.78-3.63c2.43-0.04,3.89,0.27,5.1,0.54" class="stroke" stroke-dasharray="150"><set attributeName="opacity" to="0" dur="6.4s" /><animate attributeName="stroke-dashoffset" from="150" to="0" dur="1.8s" begin="6.4s" fill="freeze" /></path><path d="M66.51,14c0.62,0.94,1,2.34,0.65,4.42C65.06,30.87,58.05,62.98,36,75.63" class="stroke" stroke-dasharray="150"><set attributeName="opacity" to="0" dur="7.800000000000001s" /><animate attributeName="stroke-dashoffset" from="150" to="0" dur="1.8s" begin="7.800000000000001s" fill="freeze" /></path><path d="M70.16,38.09c3.25,5.47,17.26,23.32,20.84,27.33c1.22,1.36,2.78,1.94,3.99,2.33" class="stroke" stroke-dasharray="150"><set attributeName="opacity" to="0" dur="9.5s" /><animate attributeName="stroke-dashoffset" from="150" to="0" dur="1.8s" begin="9.5s" fill="freeze" /></path><path d="M53.83,64.83c0.55,0.1,2.03,0.32,3.16,0.24c4.39-0.32,17.47-3.19,18.96-3.56c2.24-0.55,3.69,0.97,3.6,3.19c-0.15,3.77-1.65,11.72-4.59,17.71c-2.14,4.37-4.71,1.08-5.46-0.68" class="stroke" stroke-dasharray="150"><set attributeName="opacity" to="0" dur="10.5s" /><animate attributeName="stroke-dashoffset" from="150" to="0" dur="1.8s" begin="10.5s" fill="freeze" /></path><path d="M54.66,65.29c1.05,0.73,1.25,1.88,1.25,3.84c0,5.37-0.27,8.98-0.27,14.95c0,12,2.14,12.37,18.44,12.37c16.93,0,19.13-1.01,19.13-9.79" class="stroke" stroke-dasharray="150"><set attributeName="opacity" to="0" dur="11.8s" /><animate attributeName="stroke-dashoffset" from="150" to="0" dur="1.8s" begin="11.8s" fill="freeze" /></path><text x="90" y="120" id="reset-kvg-060d3">⟳</text><text x="70" y="120" id="pause-kvg-060d3">◼</text><script type="text/javascript"><![CDATA[function RecurringTimer(e,t){var n,r,i=t;this.pause=function(){window.clearTimeout(n);i-=new Date-r};var s=function(){r=new Date;n=window.setTimeout(function(){i=t;s();e()},i)};this.clear=function(){window.clearTimeout(n);i=t;n=window.setTimeout(function(){i=t;s();e()},i)};this.resume=s;this.resume()}function invoketimer(){timer=new RecurringTimer(function(){svg.setCurrentTime(0)},14500.0)}var svg=document.getElementById("kvg-060d3");var pause=document.getElementById("pause-kvg-060d3");var reset=document.getElementById("reset-kvg-060d3");var timer;invoketimer();reset.onclick=function(){svg.setCurrentTime(0);timer.clear();svg.unpauseAnimations();pause.innerHTML = "◼";};pause.onclick=function(){if(svg.animationsPaused()){svg.unpauseAnimations();timer.resume();pause.innerHTML="◼"}else{svg.pauseAnimations();timer.pause();pause.innerHTML="▶"}}]]></script></svg>