<svg id="kvg-0611a" class="kanjivg" width="106" height="126" xmlns="http://www.w3.org/2000/svg" xmlns:xlink="http://www.w3.org/1999/xlink" xml:space="preserve" version="1.1" baseProfile="full"><defs><style type="text/css"><![CDATA[path.black{fill:none;stroke:black;stroke-width:5;stroke-linecap:round;stroke-linejoin:round;}path.grey{fill:none;stroke:#ddd;stroke-width:5;stroke-linecap:round;stroke-linejoin:round;}path.stroke{fill:none;stroke:black;stroke-width:5;stroke-linecap:round;stroke-linejoin:round;}rect{fill:none;stroke:#555;stroke-width:2;} text{font-size:16px;font-family:Segoe UI Symbol,Cambria Math,DejaVu Sans,Symbola,Quivira,STIX,Code2000;-webkit-touch-callout:none;cursor:pointer;-webkit-user-select:none;-khtml-user-select:none;-moz-user-select:none;-ms-user-select:none;user-select: none;}text:hover{color:#777;}#reset{font-weight:bold;}]]></style><marker id="markerStart" markerWidth="8" markerHeight="8" style="overflow:visible;"><circle cx="0" cy="0" r="1.5" style="stroke:none;fill:red;fill-opacity:0.5;"/></marker><marker id="markerEnd" style="overflow:visible;"><circle cx="0" cy="0" r="0.8" style="stroke:none;fill:blue;fill-opacity:0.5;"><animate attributeName="opacity" from="1" to="0" dur="3s" repeatCount="indefinite" /></circle></marker></defs><rect x="4" y="4" width="100" height="100" /><path d="M30.22,16.14c0.7,0.77,1.11,1.68,1.24,2.72c0.79,5.52,1.36,9.43,2.05,14.89c0.21,1.68,0.41,3.33,0.6,4.85" class="grey" /><path d="M32.28,17.3c14.22-1.55,33.47-3.77,42.25-4.45c3.22-0.25,3.95,1.72,3.69,4.15c-0.34,3.11-1.35,7.75-2.7,13.57c-0.36,1.57-0.75,3.19-1.15,4.83" class="grey" /><path d="M33.94,26.71C44,25.5,69.88,23,76.21,22.69" class="grey" /><path d="M35.28,36.33c12.01-1.36,26.75-3.3,38.43-3.79" class="grey" /><path d="M26.29,45.19c0.82,0.82,1.26,1.92,1.32,2.63c0.39,4.42,0.99,10.66,1.71,16.69c0.26,2.16,0.48,3.96,0.61,4.99" class="grey" /><path d="M28.38,47.51c7.67-0.84,50.03-5.36,51.57-5.42c3.32-0.12,4.33,1.99,4.18,4.91c-0.31,5.71-1.33,13.22-3.58,18.07c-2.58,5.59-3.83,3.32-6.68,0.17" class="grey" /><path d="M52.97,17.48c0.77,0.77,1.03,1.77,1.03,2.93c0,6.46,0.12,32.44,0.12,35.96" class="grey" /><path d="M40.67,60.21c0.95,1.04,2.56,0.82,3.74,0.46c3.32-1.02,15.21-4.66,23.43-7.26" class="grey" /><path d="M63.65,49.06c3.03,1.54,7.82,6.43,8.57,8.92" class="grey" /><path d="M25.37,79.12c0.29,2.24-2.94,12.13-5.29,15.86" class="grey" /><path d="M34.75,75.5c10.25,14.5,15,21,42.46,20.93c8.54-0.02,9.79-3.56,2.64-7.51" class="grey" /><path d="M55.77,72.75c2.36,4.38,6.11,8.69,7.12,4.46" class="grey" /><path d="M81.7,74.98c5.28,1.82,9.42,4.64,13.53,9.11" class="grey" /><path d="M30.22,16.14c0.7,0.77,1.11,1.68,1.24,2.72c0.79,5.52,1.36,9.43,2.05,14.89c0.21,1.68,0.41,3.33,0.6,4.85" class="stroke" stroke-dasharray="150"><animate attributeName="stroke-dashoffset" from="150" to="0" dur="1.8s" begin="0.0s" fill="freeze" /></path><path d="M32.28,17.3c14.22-1.55,33.47-3.77,42.25-4.45c3.22-0.25,3.95,1.72,3.69,4.15c-0.34,3.11-1.35,7.75-2.7,13.57c-0.36,1.57-0.75,3.19-1.15,4.83" class="stroke" stroke-dasharray="150"><set attributeName="opacity" to="0" dur="1.0s" /><animate attributeName="stroke-dashoffset" from="150" to="0" dur="1.8s" begin="1.0s" fill="freeze" /></path><path d="M33.94,26.71C44,25.5,69.88,23,76.21,22.69" class="stroke" stroke-dasharray="150"><set attributeName="opacity" to="0" dur="2.5s" /><animate attributeName="stroke-dashoffset" from="150" to="0" dur="1.8s" begin="2.5s" fill="freeze" /></path><path d="M35.28,36.33c12.01-1.36,26.75-3.3,38.43-3.79" class="stroke" stroke-dasharray="150"><set attributeName="opacity" to="0" dur="3.6s" /><animate attributeName="stroke-dashoffset" from="150" to="0" dur="1.8s" begin="3.6s" fill="freeze" /></path><path d="M26.29,45.19c0.82,0.82,1.26,1.92,1.32,2.63c0.39,4.42,0.99,10.66,1.71,16.69c0.26,2.16,0.48,3.96,0.61,4.99" class="stroke" stroke-dasharray="150"><set attributeName="opacity" to="0" dur="4.6s" /><animate attributeName="stroke-dashoffset" from="150" to="0" dur="1.8s" begin="4.6s" fill="freeze" /></path><path d="M28.38,47.51c7.67-0.84,50.03-5.36,51.57-5.42c3.32-0.12,4.33,1.99,4.18,4.91c-0.31,5.71-1.33,13.22-3.58,18.07c-2.58,5.59-3.83,3.32-6.68,0.17" class="stroke" stroke-dasharray="150"><set attributeName="opacity" to="0" dur="5.6s" /><animate attributeName="stroke-dashoffset" from="150" to="0" dur="1.8s" begin="5.6s" fill="freeze" /></path><path d="M52.97,17.48c0.77,0.77,1.03,1.77,1.03,2.93c0,6.46,0.12,32.44,0.12,35.96" class="stroke" stroke-dasharray="150"><set attributeName="opacity" to="0" dur="7.3s" /><animate attributeName="stroke-dashoffset" from="150" to="0" dur="1.8s" begin="7.3s" fill="freeze" /></path><path d="M40.67,60.21c0.95,1.04,2.56,0.82,3.74,0.46c3.32-1.02,15.21-4.66,23.43-7.26" class="stroke" stroke-dasharray="150"><set attributeName="opacity" to="0" dur="8.3s" /><animate attributeName="stroke-dashoffset" from="150" to="0" dur="1.8s" begin="8.3s" fill="freeze" /></path><path d="M63.65,49.06c3.03,1.54,7.82,6.43,8.57,8.92" class="stroke" stroke-dasharray="150"><set attributeName="opacity" to="0" dur="9.3s" /><animate attributeName="stroke-dashoffset" from="150" to="0" dur="1.8s" begin="9.3s" fill="freeze" /></path><path d="M25.37,79.12c0.29,2.24-2.94,12.13-5.29,15.86" class="stroke" stroke-dasharray="150"><set attributeName="opacity" to="0" dur="10.200000000000001s" /><animate attributeName="stroke-dashoffset" from="150" to="0" dur="1.8s" begin="10.200000000000001s" fill="freeze" /></path><path d="M34.75,75.5c10.25,14.5,15,21,42.46,20.93c8.54-0.02,9.79-3.56,2.64-7.51" class="stroke" stroke-dasharray="150"><set attributeName="opacity" to="0" dur="11.100000000000001s" /><animate attributeName="stroke-dashoffset" from="150" to="0" dur="1.8s" begin="11.100000000000001s" fill="freeze" /></path><path d="M55.77,72.75c2.36,4.38,6.11,8.69,7.12,4.46" class="stroke" stroke-dasharray="150"><set attributeName="opacity" to="0" dur="12.600000000000001s" /><animate attributeName="stroke-dashoffset" from="150" to="0" dur="1.8s" begin="12.600000000000001s" fill="freeze" /></path><path d="M81.7,74.98c5.28,1.82,9.42,4.64,13.53,9.11" class="stroke" stroke-dasharray="150"><set attributeName="opacity" to="0" dur="13.500000000000002s" /><animate attributeName="stroke-dashoffset" from="150" to="0" dur="1.8s" begin="13.500000000000002s" fill="freeze" /></path><text x="90" y="120" id="reset-kvg-0611a">⟳</text><text x="70" y="120" id="pause-kvg-0611a">◼</text><script type="text/javascript"><![CDATA[function RecurringTimer(e,t){var n,r,i=t;this.pause=function(){window.clearTimeout(n);i-=new Date-r};var s=function(){r=new Date;n=window.setTimeout(function(){i=t;s();e()},i)};this.clear=function(){window.clearTimeout(n);i=t;n=window.setTimeout(function(){i=t;s();e()},i)};this.resume=s;this.resume()}function invoketimer(){timer=new RecurringTimer(function(){svg.setCurrentTime(0)},15400.000000000002)}var svg=document.getElementById("kvg-0611a");var pause=document.getElementById("pause-kvg-0611a");var reset=document.getElementById("reset-kvg-0611a");var timer;invoketimer();reset.onclick=function(){svg.setCurrentTime(0);timer.clear();svg.unpauseAnimations();pause.innerHTML = "◼";};pause.onclick=function(){if(svg.animationsPaused()){svg.unpauseAnimations();timer.resume();pause.innerHTML="◼"}else{svg.pauseAnimations();timer.pause();pause.innerHTML="▶"}}]]></script></svg>