<svg id="kvg-061b6" class="kanjivg" width="106" height="126" xmlns="http://www.w3.org/2000/svg" xmlns:xlink="http://www.w3.org/1999/xlink" xml:space="preserve" version="1.1" baseProfile="full"><defs><style type="text/css"><![CDATA[path.black{fill:none;stroke:black;stroke-width:5;stroke-linecap:round;stroke-linejoin:round;}path.grey{fill:none;stroke:#ddd;stroke-width:5;stroke-linecap:round;stroke-linejoin:round;}path.stroke{fill:none;stroke:black;stroke-width:5;stroke-linecap:round;stroke-linejoin:round;}rect{fill:none;stroke:#555;stroke-width:2;} text{font-size:16px;font-family:Segoe UI Symbol,Cambria Math,DejaVu Sans,Symbola,Quivira,STIX,Code2000;-webkit-touch-callout:none;cursor:pointer;-webkit-user-select:none;-khtml-user-select:none;-moz-user-select:none;-ms-user-select:none;user-select: none;}text:hover{color:#777;}#reset{font-weight:bold;}]]></style><marker id="markerStart" markerWidth="8" markerHeight="8" style="overflow:visible;"><circle cx="0" cy="0" r="1.5" style="stroke:none;fill:red;fill-opacity:0.5;"/></marker><marker id="markerEnd" style="overflow:visible;"><circle cx="0" cy="0" r="0.8" style="stroke:none;fill:blue;fill-opacity:0.5;"><animate attributeName="opacity" from="1" to="0" dur="3s" repeatCount="indefinite" /></circle></marker></defs><rect x="4" y="4" width="100" height="100" /><path d="M17.01,40.5c0,5.97-2.79,14.79-3.52,16.5" class="grey" /><path d="M30.02,30.83c2.66,1.17,6.88,4.81,7.54,6.63" class="grey" /><path d="M24.87,17c0.88,0.88,1.21,2.38,1.21,3.75c0,2.27-0.06,50.34-0.08,68.5c0,2.86,0,4.96,0,6" class="grey" /><path d="M63.14,13.82c0.89,0.89,1.24,1.93,1.24,3.63c0,2.8-0.01,4.15-0.01,6.3" class="grey" /><path d="M45.9,26.51c1.85,0.09,3.65,0.33,5.5,0.06c7.22-1.07,19.85-2.44,30.22-3.57c1.99-0.22,4,0,5.79,0.32" class="grey" /><path d="M52.62,30c2.87,3.19,4,6.34,4.41,8.64" class="grey" /><path d="M77.23,26.95c0.15,1.05,0.02,1.93-0.29,2.63c-1.38,3.14-2.49,5.61-3.41,7.43" class="grey" /><path d="M40.33,42.7c2.54,0.3,4.65,0.17,7.06-0.16c13.1-1.79,27.83-3.77,39.99-4.45c1.97-0.11,4.37-0.53,6.29,0.09" class="grey" /><path d="M48.37,50.85c0.7,0.7,1.13,1.52,1.4,2.58c0.11,0.43,1.55,8.05,2.38,12.79c0.31,1.75,0.7,4.17,0.7,4.79" class="grey" /><path d="M50.47,52.17c2.07-0.22,19.86-2.43,26.77-3.24c3.45-0.41,6.31-0.01,5.49,4.34c-0.55,2.91-1.98,7.95-3.14,12.49c-0.29,1.13-0.58,2.25-0.86,3.32" class="grey" /><path d="M52.13,60.44c5.37-0.69,21.87-2.81,28.24-3.11" class="grey" /><path d="M53.66,69.2c5.59-0.7,18.07-2.18,24.26-2.63" class="grey" /><path d="M43.64,81.64c0.25,1.59-2.52,8.81-4.54,11.58" class="grey" /><path d="M53.03,77.47c5.47,11.78,14.7,17.11,31.72,17.22c8,0.06,8.38-2.82,2.05-5.62" class="grey" /><path d="M68.49,76.77c1.11,2.05,4.76,6.13,5.45,3.13" class="grey" /><path d="M85.44,73.11c4.56,2.39,8.18,5.52,11.29,9.09" class="grey" /><path d="M17.01,40.5c0,5.97-2.79,14.79-3.52,16.5" class="stroke" stroke-dasharray="150"><animate attributeName="stroke-dashoffset" from="150" to="0" dur="1.8s" begin="0.0s" fill="freeze" /></path><path d="M30.02,30.83c2.66,1.17,6.88,4.81,7.54,6.63" class="stroke" stroke-dasharray="150"><set attributeName="opacity" to="0" dur="0.9s" /><animate attributeName="stroke-dashoffset" from="150" to="0" dur="1.8s" begin="0.9s" fill="freeze" /></path><path d="M24.87,17c0.88,0.88,1.21,2.38,1.21,3.75c0,2.27-0.06,50.34-0.08,68.5c0,2.86,0,4.96,0,6" class="stroke" stroke-dasharray="150"><set attributeName="opacity" to="0" dur="1.8s" /><animate attributeName="stroke-dashoffset" from="150" to="0" dur="1.8s" begin="1.8s" fill="freeze" /></path><path d="M63.14,13.82c0.89,0.89,1.24,1.93,1.24,3.63c0,2.8-0.01,4.15-0.01,6.3" class="stroke" stroke-dasharray="150"><set attributeName="opacity" to="0" dur="3.5s" /><animate attributeName="stroke-dashoffset" from="150" to="0" dur="1.8s" begin="3.5s" fill="freeze" /></path><path d="M45.9,26.51c1.85,0.09,3.65,0.33,5.5,0.06c7.22-1.07,19.85-2.44,30.22-3.57c1.99-0.22,4,0,5.79,0.32" class="stroke" stroke-dasharray="150"><set attributeName="opacity" to="0" dur="4.4s" /><animate attributeName="stroke-dashoffset" from="150" to="0" dur="1.8s" begin="4.4s" fill="freeze" /></path><path d="M52.62,30c2.87,3.19,4,6.34,4.41,8.64" class="stroke" stroke-dasharray="150"><set attributeName="opacity" to="0" dur="5.5s" /><animate attributeName="stroke-dashoffset" from="150" to="0" dur="1.8s" begin="5.5s" fill="freeze" /></path><path d="M77.23,26.95c0.15,1.05,0.02,1.93-0.29,2.63c-1.38,3.14-2.49,5.61-3.41,7.43" class="stroke" stroke-dasharray="150"><set attributeName="opacity" to="0" dur="6.4s" /><animate attributeName="stroke-dashoffset" from="150" to="0" dur="1.8s" begin="6.4s" fill="freeze" /></path><path d="M40.33,42.7c2.54,0.3,4.65,0.17,7.06-0.16c13.1-1.79,27.83-3.77,39.99-4.45c1.97-0.11,4.37-0.53,6.29,0.09" class="stroke" stroke-dasharray="150"><set attributeName="opacity" to="0" dur="7.300000000000001s" /><animate attributeName="stroke-dashoffset" from="150" to="0" dur="1.8s" begin="7.300000000000001s" fill="freeze" /></path><path d="M48.37,50.85c0.7,0.7,1.13,1.52,1.4,2.58c0.11,0.43,1.55,8.05,2.38,12.79c0.31,1.75,0.7,4.17,0.7,4.79" class="stroke" stroke-dasharray="150"><set attributeName="opacity" to="0" dur="8.600000000000001s" /><animate attributeName="stroke-dashoffset" from="150" to="0" dur="1.8s" begin="8.600000000000001s" fill="freeze" /></path><path d="M50.47,52.17c2.07-0.22,19.86-2.43,26.77-3.24c3.45-0.41,6.31-0.01,5.49,4.34c-0.55,2.91-1.98,7.95-3.14,12.49c-0.29,1.13-0.58,2.25-0.86,3.32" class="stroke" stroke-dasharray="150"><set attributeName="opacity" to="0" dur="9.600000000000001s" /><animate attributeName="stroke-dashoffset" from="150" to="0" dur="1.8s" begin="9.600000000000001s" fill="freeze" /></path><path d="M52.13,60.44c5.37-0.69,21.87-2.81,28.24-3.11" class="stroke" stroke-dasharray="150"><set attributeName="opacity" to="0" dur="10.900000000000002s" /><animate attributeName="stroke-dashoffset" from="150" to="0" dur="1.8s" begin="10.900000000000002s" fill="freeze" /></path><path d="M53.66,69.2c5.59-0.7,18.07-2.18,24.26-2.63" class="stroke" stroke-dasharray="150"><set attributeName="opacity" to="0" dur="11.900000000000002s" /><animate attributeName="stroke-dashoffset" from="150" to="0" dur="1.8s" begin="11.900000000000002s" fill="freeze" /></path><path d="M43.64,81.64c0.25,1.59-2.52,8.81-4.54,11.58" class="stroke" stroke-dasharray="150"><set attributeName="opacity" to="0" dur="12.900000000000002s" /><animate attributeName="stroke-dashoffset" from="150" to="0" dur="1.8s" begin="12.900000000000002s" fill="freeze" /></path><path d="M53.03,77.47c5.47,11.78,14.7,17.11,31.72,17.22c8,0.06,8.38-2.82,2.05-5.62" class="stroke" stroke-dasharray="150"><set attributeName="opacity" to="0" dur="13.800000000000002s" /><animate attributeName="stroke-dashoffset" from="150" to="0" dur="1.8s" begin="13.800000000000002s" fill="freeze" /></path><path d="M68.49,76.77c1.11,2.05,4.76,6.13,5.45,3.13" class="stroke" stroke-dasharray="150"><set attributeName="opacity" to="0" dur="15.100000000000003s" /><animate attributeName="stroke-dashoffset" from="150" to="0" dur="1.8s" begin="15.100000000000003s" fill="freeze" /></path><path d="M85.44,73.11c4.56,2.39,8.18,5.52,11.29,9.09" class="stroke" stroke-dasharray="150"><set attributeName="opacity" to="0" dur="16.000000000000004s" /><animate attributeName="stroke-dashoffset" from="150" to="0" dur="1.8s" begin="16.000000000000004s" fill="freeze" /></path><text x="90" y="120" id="reset-kvg-061b6">⟳</text><text x="70" y="120" id="pause-kvg-061b6">◼</text><script type="text/javascript"><![CDATA[function RecurringTimer(e,t){var n,r,i=t;this.pause=function(){window.clearTimeout(n);i-=new Date-r};var s=function(){r=new Date;n=window.setTimeout(function(){i=t;s();e()},i)};this.clear=function(){window.clearTimeout(n);i=t;n=window.setTimeout(function(){i=t;s();e()},i)};this.resume=s;this.resume()}function invoketimer(){timer=new RecurringTimer(function(){svg.setCurrentTime(0)},17900.000000000004)}var svg=document.getElementById("kvg-061b6");var pause=document.getElementById("pause-kvg-061b6");var reset=document.getElementById("reset-kvg-061b6");var timer;invoketimer();reset.onclick=function(){svg.setCurrentTime(0);timer.clear();svg.unpauseAnimations();pause.innerHTML = "◼";};pause.onclick=function(){if(svg.animationsPaused()){svg.unpauseAnimations();timer.resume();pause.innerHTML="◼"}else{svg.pauseAnimations();timer.pause();pause.innerHTML="▶"}}]]></script></svg>