<svg id="kvg-061d0-Kaisho" class="kanjivg" width="106" height="126" xmlns="http://www.w3.org/2000/svg" xmlns:xlink="http://www.w3.org/1999/xlink" xml:space="preserve" version="1.1" baseProfile="full"><defs><style type="text/css"><![CDATA[path.black{fill:none;stroke:black;stroke-width:5;stroke-linecap:round;stroke-linejoin:round;}path.grey{fill:none;stroke:#ddd;stroke-width:5;stroke-linecap:round;stroke-linejoin:round;}path.stroke{fill:none;stroke:black;stroke-width:5;stroke-linecap:round;stroke-linejoin:round;}rect{fill:none;stroke:#555;stroke-width:2;} text{font-size:16px;font-family:Segoe UI Symbol,Cambria Math,DejaVu Sans,Symbola,Quivira,STIX,Code2000;-webkit-touch-callout:none;cursor:pointer;-webkit-user-select:none;-khtml-user-select:none;-moz-user-select:none;-ms-user-select:none;user-select: none;}text:hover{color:#777;}#reset{font-weight:bold;}]]></style><marker id="markerStart" markerWidth="8" markerHeight="8" style="overflow:visible;"><circle cx="0" cy="0" r="1.5" style="stroke:none;fill:red;fill-opacity:0.5;"/></marker><marker id="markerEnd" style="overflow:visible;"><circle cx="0" cy="0" r="0.8" style="stroke:none;fill:blue;fill-opacity:0.5;"><animate attributeName="opacity" from="1" to="0" dur="3s" repeatCount="indefinite" /></circle></marker></defs><rect x="4" y="4" width="100" height="100" /><path d="M16.75,40.25c0,6.61-2.97,16.36-3.75,18.25" class="grey" /><path d="M29.77,35.08c2.49,1.66,6.42,6.81,7.04,9.38" class="grey" /><path d="M23.87,15.25c1.09,0.5,1.74,2.25,1.96,3.25c0.22,1,0,71.25-0.22,77.5" class="grey" /><path d="M40.38,23.74c1.08,0.38,3.06,0.48,4.13,0.38c13.7-1.26,29.39-4.27,38.84-4.42c1.8-0.03,2.88,0.18,3.77,0.38" class="grey" /><path d="M61.65,11.38c0.56,0.44,1.85,2.12,1.84,4.2c-0.01,4.2-0.75,9.42-1.5,16.17" class="grey" /><path d="M44,33.23c0.21,0.29,0.42,0.53,0.51,0.89c0.71,2.85,3.53,9.75,4.01,14.88" class="grey" /><path d="M45.28,34.68c4.52-1.12,35.08-4.57,37.49-4.95c0.88-0.14,2.07,0.97,1.83,2.57c-0.49,3.35-2.68,9.09-3.99,13.87" class="grey" /><path d="M56.69,33.6c0.14,1.9,1.11,10.17,1.24,12.31" class="grey" /><path d="M69.68,31.41c-0.14,3.09-0.83,11.17-1.1,13.07" class="grey" /><path d="M49.17,47.45c2.82-0.42,27.89-3.06,31.77-3.71" class="grey" /><path d="M59.73,49.75c1.76,0.91,3.77,3.75,4.65,6.22" class="grey" /><path d="M39.63,61.81c0.94,0.06,3.07,0.43,3.98,0.34c7.35-0.72,33.32-4.7,43.31-4.88c1.54-0.03,2.33,0.03,3.48,0.44" class="grey" /><path d="M59.28,62.96c0.07,0.5,0.28,1.34-0.14,2.01c-2.74,4.38-11.66,12.36-25.39,19.28" class="grey" /><path d="M53.9,74.39c0.53,1.09,1.11,2.15,1.11,4.05c0,6.81,0.24,11.31-0.66,15.61c-0.26,1.22,0.78,1.96,1.76,1.02c0.99-0.94,9.93-7.92,11.25-8.86" class="grey" /><path d="M81.73,64.62c0.03,0.24,0.33,1.17,0.14,1.5C80.72,68.13,77.12,71,71.25,75" class="grey" /><path d="M63.5,70c1.72,0.5,4.97,2.71,5.34,3.01c5.49,4.46,18.83,15.85,22.54,18.48c1.4,0.99,2.59,1.41,3.99,1.7" class="grey" /><path d="M16.75,40.25c0,6.61-2.97,16.36-3.75,18.25" class="stroke" stroke-dasharray="150"><animate attributeName="stroke-dashoffset" from="150" to="0" dur="1.8s" begin="0.0s" fill="freeze" /></path><path d="M29.77,35.08c2.49,1.66,6.42,6.81,7.04,9.38" class="stroke" stroke-dasharray="150"><set attributeName="opacity" to="0" dur="0.9s" /><animate attributeName="stroke-dashoffset" from="150" to="0" dur="1.8s" begin="0.9s" fill="freeze" /></path><path d="M23.87,15.25c1.09,0.5,1.74,2.25,1.96,3.25c0.22,1,0,71.25-0.22,77.5" class="stroke" stroke-dasharray="150"><set attributeName="opacity" to="0" dur="1.8s" /><animate attributeName="stroke-dashoffset" from="150" to="0" dur="1.8s" begin="1.8s" fill="freeze" /></path><path d="M40.38,23.74c1.08,0.38,3.06,0.48,4.13,0.38c13.7-1.26,29.39-4.27,38.84-4.42c1.8-0.03,2.88,0.18,3.77,0.38" class="stroke" stroke-dasharray="150"><set attributeName="opacity" to="0" dur="3.5s" /><animate attributeName="stroke-dashoffset" from="150" to="0" dur="1.8s" begin="3.5s" fill="freeze" /></path><path d="M61.65,11.38c0.56,0.44,1.85,2.12,1.84,4.2c-0.01,4.2-0.75,9.42-1.5,16.17" class="stroke" stroke-dasharray="150"><set attributeName="opacity" to="0" dur="4.7s" /><animate attributeName="stroke-dashoffset" from="150" to="0" dur="1.8s" begin="4.7s" fill="freeze" /></path><path d="M44,33.23c0.21,0.29,0.42,0.53,0.51,0.89c0.71,2.85,3.53,9.75,4.01,14.88" class="stroke" stroke-dasharray="150"><set attributeName="opacity" to="0" dur="5.7s" /><animate attributeName="stroke-dashoffset" from="150" to="0" dur="1.8s" begin="5.7s" fill="freeze" /></path><path d="M45.28,34.68c4.52-1.12,35.08-4.57,37.49-4.95c0.88-0.14,2.07,0.97,1.83,2.57c-0.49,3.35-2.68,9.09-3.99,13.87" class="stroke" stroke-dasharray="150"><set attributeName="opacity" to="0" dur="6.6000000000000005s" /><animate attributeName="stroke-dashoffset" from="150" to="0" dur="1.8s" begin="6.6000000000000005s" fill="freeze" /></path><path d="M56.69,33.6c0.14,1.9,1.11,10.17,1.24,12.31" class="stroke" stroke-dasharray="150"><set attributeName="opacity" to="0" dur="8.0s" /><animate attributeName="stroke-dashoffset" from="150" to="0" dur="1.8s" begin="8.0s" fill="freeze" /></path><path d="M69.68,31.41c-0.14,3.09-0.83,11.17-1.1,13.07" class="stroke" stroke-dasharray="150"><set attributeName="opacity" to="0" dur="8.9s" /><animate attributeName="stroke-dashoffset" from="150" to="0" dur="1.8s" begin="8.9s" fill="freeze" /></path><path d="M49.17,47.45c2.82-0.42,27.89-3.06,31.77-3.71" class="stroke" stroke-dasharray="150"><set attributeName="opacity" to="0" dur="9.8s" /><animate attributeName="stroke-dashoffset" from="150" to="0" dur="1.8s" begin="9.8s" fill="freeze" /></path><path d="M59.73,49.75c1.76,0.91,3.77,3.75,4.65,6.22" class="stroke" stroke-dasharray="150"><set attributeName="opacity" to="0" dur="10.8s" /><animate attributeName="stroke-dashoffset" from="150" to="0" dur="1.8s" begin="10.8s" fill="freeze" /></path><path d="M39.63,61.81c0.94,0.06,3.07,0.43,3.98,0.34c7.35-0.72,33.32-4.7,43.31-4.88c1.54-0.03,2.33,0.03,3.48,0.44" class="stroke" stroke-dasharray="150"><set attributeName="opacity" to="0" dur="11.700000000000001s" /><animate attributeName="stroke-dashoffset" from="150" to="0" dur="1.8s" begin="11.700000000000001s" fill="freeze" /></path><path d="M59.28,62.96c0.07,0.5,0.28,1.34-0.14,2.01c-2.74,4.38-11.66,12.36-25.39,19.28" class="stroke" stroke-dasharray="150"><set attributeName="opacity" to="0" dur="13.000000000000002s" /><animate attributeName="stroke-dashoffset" from="150" to="0" dur="1.8s" begin="13.000000000000002s" fill="freeze" /></path><path d="M53.9,74.39c0.53,1.09,1.11,2.15,1.11,4.05c0,6.81,0.24,11.31-0.66,15.61c-0.26,1.22,0.78,1.96,1.76,1.02c0.99-0.94,9.93-7.92,11.25-8.86" class="stroke" stroke-dasharray="150"><set attributeName="opacity" to="0" dur="14.000000000000002s" /><animate attributeName="stroke-dashoffset" from="150" to="0" dur="1.8s" begin="14.000000000000002s" fill="freeze" /></path><path d="M81.73,64.62c0.03,0.24,0.33,1.17,0.14,1.5C80.72,68.13,77.12,71,71.25,75" class="stroke" stroke-dasharray="150"><set attributeName="opacity" to="0" dur="15.000000000000002s" /><animate attributeName="stroke-dashoffset" from="150" to="0" dur="1.8s" begin="15.000000000000002s" fill="freeze" /></path><path d="M63.5,70c1.72,0.5,4.97,2.71,5.34,3.01c5.49,4.46,18.83,15.85,22.54,18.48c1.4,0.99,2.59,1.41,3.99,1.7" class="stroke" stroke-dasharray="150"><set attributeName="opacity" to="0" dur="15.900000000000002s" /><animate attributeName="stroke-dashoffset" from="150" to="0" dur="1.8s" begin="15.900000000000002s" fill="freeze" /></path><text x="90" y="120" id="reset-kvg-061d0-Kaisho">⟳</text><text x="70" y="120" id="pause-kvg-061d0-Kaisho">◼</text><script type="text/javascript"><![CDATA[function RecurringTimer(e,t){var n,r,i=t;this.pause=function(){window.clearTimeout(n);i-=new Date-r};var s=function(){r=new Date;n=window.setTimeout(function(){i=t;s();e()},i)};this.clear=function(){window.clearTimeout(n);i=t;n=window.setTimeout(function(){i=t;s();e()},i)};this.resume=s;this.resume()}function invoketimer(){timer=new RecurringTimer(function(){svg.setCurrentTime(0)},17900.000000000004)}var svg=document.getElementById("kvg-061d0-Kaisho");var pause=document.getElementById("pause-kvg-061d0-Kaisho");var reset=document.getElementById("reset-kvg-061d0-Kaisho");var timer;invoketimer();reset.onclick=function(){svg.setCurrentTime(0);timer.clear();svg.unpauseAnimations();pause.innerHTML = "◼";};pause.onclick=function(){if(svg.animationsPaused()){svg.unpauseAnimations();timer.resume();pause.innerHTML="◼"}else{svg.pauseAnimations();timer.pause();pause.innerHTML="▶"}}]]></script></svg>