<svg id="kvg-061e3" class="kanjivg" width="106" height="126" xmlns="http://www.w3.org/2000/svg" xmlns:xlink="http://www.w3.org/1999/xlink" xml:space="preserve" version="1.1" baseProfile="full"><defs><style type="text/css"><![CDATA[path.black{fill:none;stroke:black;stroke-width:5;stroke-linecap:round;stroke-linejoin:round;}path.grey{fill:none;stroke:#ddd;stroke-width:5;stroke-linecap:round;stroke-linejoin:round;}path.stroke{fill:none;stroke:black;stroke-width:5;stroke-linecap:round;stroke-linejoin:round;}rect{fill:none;stroke:#555;stroke-width:2;} text{font-size:16px;font-family:Segoe UI Symbol,Cambria Math,DejaVu Sans,Symbola,Quivira,STIX,Code2000;-webkit-touch-callout:none;cursor:pointer;-webkit-user-select:none;-khtml-user-select:none;-moz-user-select:none;-ms-user-select:none;user-select: none;}text:hover{color:#777;}#reset{font-weight:bold;}]]></style><marker id="markerStart" markerWidth="8" markerHeight="8" style="overflow:visible;"><circle cx="0" cy="0" r="1.5" style="stroke:none;fill:red;fill-opacity:0.5;"/></marker><marker id="markerEnd" style="overflow:visible;"><circle cx="0" cy="0" r="0.8" style="stroke:none;fill:blue;fill-opacity:0.5;"><animate attributeName="opacity" from="1" to="0" dur="3s" repeatCount="indefinite" /></circle></marker></defs><rect x="4" y="4" width="100" height="100" /><path d="M19.1,15.3c3.48,1.3,8.99,5.36,9.87,7.38" class="grey" /><path d="M16,31.25c3.32,1.28,8.56,5.25,9.39,7.24" class="grey" /><path d="M17.45,63.75c1.55,0.99,3.88,0.66,4.86-0.56c2.84-3.56,5.21-7.55,7.79-12.1" class="grey" /><path d="M36.39,21.39c1.01,0.28,3.36,0.33,4.37,0.28c5.27-0.26,33.57-2.5,44.66-2.63c1.68-0.02,2.69,0.14,3.53,0.28" class="grey" /><path d="M49.95,13.02c0.83,0.26,1.33,1.68,1.49,2.2c0.17,0.52,1.9,14.08,1.74,17.34" class="grey" /><path d="M72.74,9.59c0.76,0.66,1.05,2.15,1,2.7c-0.24,2.47-1.24,11.22-2.39,17.29" class="grey" /><path d="M53.18,31.78c3.16,0,17.42-1.82,20.25-1.94" class="grey" /><path d="M39.95,40.63c1.03,0.8,1.6,1.93,1.75,3.05c0.88,6.68,1.99,22.01,1.99,25.01" class="grey" /><path d="M41.77,42.22c8.17-0.63,38.21-3.1,43.35-3.58c1.67-0.16,3.06,0.63,3,2.35c-0.29,8.74-2.09,14.19-3.75,23.74c-0.8,4.6-3.83,3.14-6,0" class="grey" /><path d="M60.56,33.57c0.94,0.89,1.7,1.95,1.7,3.19c0,0.71-0.1,29.49-0.1,31.44" class="grey" /><path d="M51.43,51.48c-1.3,2.59-4.69,6.25-7.4,7.72" class="grey" /><path d="M47.91,46.86c0.39,0,0.74,0.33,0.92,0.57c3.09,4.02,6.59,8.16,9.45,11c0.32,0.32,0.63,0.44,0.97,0.53" class="grey" /><path d="M73.57,50.28c-1.4,2.82-5.04,6.82-7.95,8.42" class="grey" /><path d="M68.59,45.34c0.46,0,0.89,0.32,1.09,0.55C72.5,49.25,76,53,80.8,56.51c0.41,0.3,0.74,0.42,1.15,0.51" class="grey" /><path d="M24.4,81.07c0.32,2.28-3.23,12.36-5.82,16.17" class="grey" /><path d="M32.83,75c6.58,11.93,16.97,22.28,42.33,22.43c12.23,0.07,13.03-3.18,2.83-8.61" class="grey" /><path d="M55.41,75.75c2.17,5.25,5.32,10.5,7.63,2.46" class="grey" /><path d="M80.88,75.73c4.63,2.07,8.09,3.96,11.85,10.36" class="grey" /><path d="M19.1,15.3c3.48,1.3,8.99,5.36,9.87,7.38" class="stroke" stroke-dasharray="150"><animate attributeName="stroke-dashoffset" from="150" to="0" dur="1.8s" begin="0.0s" fill="freeze" /></path><path d="M16,31.25c3.32,1.28,8.56,5.25,9.39,7.24" class="stroke" stroke-dasharray="150"><set attributeName="opacity" to="0" dur="0.9s" /><animate attributeName="stroke-dashoffset" from="150" to="0" dur="1.8s" begin="0.9s" fill="freeze" /></path><path d="M17.45,63.75c1.55,0.99,3.88,0.66,4.86-0.56c2.84-3.56,5.21-7.55,7.79-12.1" class="stroke" stroke-dasharray="150"><set attributeName="opacity" to="0" dur="1.8s" /><animate attributeName="stroke-dashoffset" from="150" to="0" dur="1.8s" begin="1.8s" fill="freeze" /></path><path d="M36.39,21.39c1.01,0.28,3.36,0.33,4.37,0.28c5.27-0.26,33.57-2.5,44.66-2.63c1.68-0.02,2.69,0.14,3.53,0.28" class="stroke" stroke-dasharray="150"><set attributeName="opacity" to="0" dur="2.7s" /><animate attributeName="stroke-dashoffset" from="150" to="0" dur="1.8s" begin="2.7s" fill="freeze" /></path><path d="M49.95,13.02c0.83,0.26,1.33,1.68,1.49,2.2c0.17,0.52,1.9,14.08,1.74,17.34" class="stroke" stroke-dasharray="150"><set attributeName="opacity" to="0" dur="4.0s" /><animate attributeName="stroke-dashoffset" from="150" to="0" dur="1.8s" begin="4.0s" fill="freeze" /></path><path d="M72.74,9.59c0.76,0.66,1.05,2.15,1,2.7c-0.24,2.47-1.24,11.22-2.39,17.29" class="stroke" stroke-dasharray="150"><set attributeName="opacity" to="0" dur="5.0s" /><animate attributeName="stroke-dashoffset" from="150" to="0" dur="1.8s" begin="5.0s" fill="freeze" /></path><path d="M53.18,31.78c3.16,0,17.42-1.82,20.25-1.94" class="stroke" stroke-dasharray="150"><set attributeName="opacity" to="0" dur="6.0s" /><animate attributeName="stroke-dashoffset" from="150" to="0" dur="1.8s" begin="6.0s" fill="freeze" /></path><path d="M39.95,40.63c1.03,0.8,1.6,1.93,1.75,3.05c0.88,6.68,1.99,22.01,1.99,25.01" class="stroke" stroke-dasharray="150"><set attributeName="opacity" to="0" dur="7.0s" /><animate attributeName="stroke-dashoffset" from="150" to="0" dur="1.8s" begin="7.0s" fill="freeze" /></path><path d="M41.77,42.22c8.17-0.63,38.21-3.1,43.35-3.58c1.67-0.16,3.06,0.63,3,2.35c-0.29,8.74-2.09,14.19-3.75,23.74c-0.8,4.6-3.83,3.14-6,0" class="stroke" stroke-dasharray="150"><set attributeName="opacity" to="0" dur="8.0s" /><animate attributeName="stroke-dashoffset" from="150" to="0" dur="1.8s" begin="8.0s" fill="freeze" /></path><path d="M60.56,33.57c0.94,0.89,1.7,1.95,1.7,3.19c0,0.71-0.1,29.49-0.1,31.44" class="stroke" stroke-dasharray="150"><set attributeName="opacity" to="0" dur="9.7s" /><animate attributeName="stroke-dashoffset" from="150" to="0" dur="1.8s" begin="9.7s" fill="freeze" /></path><path d="M51.43,51.48c-1.3,2.59-4.69,6.25-7.4,7.72" class="stroke" stroke-dasharray="150"><set attributeName="opacity" to="0" dur="10.7s" /><animate attributeName="stroke-dashoffset" from="150" to="0" dur="1.8s" begin="10.7s" fill="freeze" /></path><path d="M47.91,46.86c0.39,0,0.74,0.33,0.92,0.57c3.09,4.02,6.59,8.16,9.45,11c0.32,0.32,0.63,0.44,0.97,0.53" class="stroke" stroke-dasharray="150"><set attributeName="opacity" to="0" dur="11.6s" /><animate attributeName="stroke-dashoffset" from="150" to="0" dur="1.8s" begin="11.6s" fill="freeze" /></path><path d="M73.57,50.28c-1.4,2.82-5.04,6.82-7.95,8.42" class="stroke" stroke-dasharray="150"><set attributeName="opacity" to="0" dur="12.5s" /><animate attributeName="stroke-dashoffset" from="150" to="0" dur="1.8s" begin="12.5s" fill="freeze" /></path><path d="M68.59,45.34c0.46,0,0.89,0.32,1.09,0.55C72.5,49.25,76,53,80.8,56.51c0.41,0.3,0.74,0.42,1.15,0.51" class="stroke" stroke-dasharray="150"><set attributeName="opacity" to="0" dur="13.4s" /><animate attributeName="stroke-dashoffset" from="150" to="0" dur="1.8s" begin="13.4s" fill="freeze" /></path><path d="M24.4,81.07c0.32,2.28-3.23,12.36-5.82,16.17" class="stroke" stroke-dasharray="150"><set attributeName="opacity" to="0" dur="14.3s" /><animate attributeName="stroke-dashoffset" from="150" to="0" dur="1.8s" begin="14.3s" fill="freeze" /></path><path d="M32.83,75c6.58,11.93,16.97,22.28,42.33,22.43c12.23,0.07,13.03-3.18,2.83-8.61" class="stroke" stroke-dasharray="150"><set attributeName="opacity" to="0" dur="15.200000000000001s" /><animate attributeName="stroke-dashoffset" from="150" to="0" dur="1.8s" begin="15.200000000000001s" fill="freeze" /></path><path d="M55.41,75.75c2.17,5.25,5.32,10.5,7.63,2.46" class="stroke" stroke-dasharray="150"><set attributeName="opacity" to="0" dur="16.900000000000002s" /><animate attributeName="stroke-dashoffset" from="150" to="0" dur="1.8s" begin="16.900000000000002s" fill="freeze" /></path><path d="M80.88,75.73c4.63,2.07,8.09,3.96,11.85,10.36" class="stroke" stroke-dasharray="150"><set attributeName="opacity" to="0" dur="17.8s" /><animate attributeName="stroke-dashoffset" from="150" to="0" dur="1.8s" begin="17.8s" fill="freeze" /></path><text x="90" y="120" id="reset-kvg-061e3">⟳</text><text x="70" y="120" id="pause-kvg-061e3">◼</text><script type="text/javascript"><![CDATA[function RecurringTimer(e,t){var n,r,i=t;this.pause=function(){window.clearTimeout(n);i-=new Date-r};var s=function(){r=new Date;n=window.setTimeout(function(){i=t;s();e()},i)};this.clear=function(){window.clearTimeout(n);i=t;n=window.setTimeout(function(){i=t;s();e()},i)};this.resume=s;this.resume()}function invoketimer(){timer=new RecurringTimer(function(){svg.setCurrentTime(0)},19700.0)}var svg=document.getElementById("kvg-061e3");var pause=document.getElementById("pause-kvg-061e3");var reset=document.getElementById("reset-kvg-061e3");var timer;invoketimer();reset.onclick=function(){svg.setCurrentTime(0);timer.clear();svg.unpauseAnimations();pause.innerHTML = "◼";};pause.onclick=function(){if(svg.animationsPaused()){svg.unpauseAnimations();timer.resume();pause.innerHTML="◼"}else{svg.pauseAnimations();timer.pause();pause.innerHTML="▶"}}]]></script></svg>