<svg id="kvg-06249-MdFst" class="kanjivg" width="106" height="126" xmlns="http://www.w3.org/2000/svg" xmlns:xlink="http://www.w3.org/1999/xlink" xml:space="preserve" version="1.1" baseProfile="full"><defs><style type="text/css"><![CDATA[path.black{fill:none;stroke:black;stroke-width:5;stroke-linecap:round;stroke-linejoin:round;}path.grey{fill:none;stroke:#ddd;stroke-width:5;stroke-linecap:round;stroke-linejoin:round;}path.stroke{fill:none;stroke:black;stroke-width:5;stroke-linecap:round;stroke-linejoin:round;}rect{fill:none;stroke:#555;stroke-width:2;} text{font-size:16px;font-family:Segoe UI Symbol,Cambria Math,DejaVu Sans,Symbola,Quivira,STIX,Code2000;-webkit-touch-callout:none;cursor:pointer;-webkit-user-select:none;-khtml-user-select:none;-moz-user-select:none;-ms-user-select:none;user-select: none;}text:hover{color:#777;}#reset{font-weight:bold;}]]></style><marker id="markerStart" markerWidth="8" markerHeight="8" style="overflow:visible;"><circle cx="0" cy="0" r="1.5" style="stroke:none;fill:red;fill-opacity:0.5;"/></marker><marker id="markerEnd" style="overflow:visible;"><circle cx="0" cy="0" r="0.8" style="stroke:none;fill:blue;fill-opacity:0.5;"><animate attributeName="opacity" from="1" to="0" dur="3s" repeatCount="indefinite" /></circle></marker></defs><rect x="4" y="4" width="100" height="100" /><path d="M23.38,14.98c1.09,0.34,3.08,0.38,4.17,0.34c11.33-0.39,28.42-3.35,49.27-3.44c1.81-0.01,2.9,0.16,3.81,0.33" class="grey" /><path d="M23.35,29.38c1.15,0.37,2.89,1.05,5.15,0.78c11.75-1.4,40.14-3.73,47.5-4.4c1.99-0.18,4.07,1.27,3.25,4c-0.75,2.5-1.5,5.75-2.5,9.25" class="grey" /><path d="M25.75,43.25C27,43.25,69.27,39,79.25,39" class="grey" /><path d="M25.06,30.18c0.04,1.46,0.27,3.26,0.28,5.37c0.11,26.55-3.34,47.2-13.59,56.2" class="grey" /><path d="M49.49,47.54c0.76,0.71,1.23,1.89,1.45,2.51c0.09,0.26,0.1,7.34,0.07,17.38C50.96,80.93,49,90.75,36.95,100" class="grey" /><path d="M63.45,46.25c0.7,0.31,1.12,1.41,1.25,2.04c0.14,0.63,0,47.56-0.14,51.49" class="grey" /><path d="M30.85,57.85c0.9,0.15,2.58,0.66,3.54,0.5c0.96-0.16,14.48-1.1,15.6-1.57" class="grey" /><path d="M32.03,70.55c1.47,0.2,3.08,0.16,4.04,0c0.96-0.16,11.5-1.41,14.06-1.89" class="grey" /><path d="M26.87,85.65c0.96,1.09,2.23,1.61,3.87,1.08c4.52-1.48,11.02-3.73,17.6-5.48" class="grey" /><path d="M66.58,55.42c2.88-0.24,15.5-1.46,17.67-1.86c0.79-0.14,0.24-0.08,1.6-0.08" class="grey" /><path d="M66.82,68.25c2.88-0.23,14.82-1.65,16.98-2.04c0.79-0.14,0.24-0.08,1.6-0.08" class="grey" /><path d="M66.74,81.36c2.88-0.24,17.38-1.15,19.54-1.54c0.79-0.14,0.24-0.08,1.6-0.08" class="grey" /><path d="M23.38,14.98c1.09,0.34,3.08,0.38,4.17,0.34c11.33-0.39,28.42-3.35,49.27-3.44c1.81-0.01,2.9,0.16,3.81,0.33" class="stroke" stroke-dasharray="150"><animate attributeName="stroke-dashoffset" from="150" to="0" dur="1.8s" begin="0.0s" fill="freeze" /></path><path d="M23.35,29.38c1.15,0.37,2.89,1.05,5.15,0.78c11.75-1.4,40.14-3.73,47.5-4.4c1.99-0.18,4.07,1.27,3.25,4c-0.75,2.5-1.5,5.75-2.5,9.25" class="stroke" stroke-dasharray="150"><set attributeName="opacity" to="0" dur="1.4s" /><animate attributeName="stroke-dashoffset" from="150" to="0" dur="1.8s" begin="1.4s" fill="freeze" /></path><path d="M25.75,43.25C27,43.25,69.27,39,79.25,39" class="stroke" stroke-dasharray="150"><set attributeName="opacity" to="0" dur="2.9s" /><animate attributeName="stroke-dashoffset" from="150" to="0" dur="1.8s" begin="2.9s" fill="freeze" /></path><path d="M25.06,30.18c0.04,1.46,0.27,3.26,0.28,5.37c0.11,26.55-3.34,47.2-13.59,56.2" class="stroke" stroke-dasharray="150"><set attributeName="opacity" to="0" dur="4.2s" /><animate attributeName="stroke-dashoffset" from="150" to="0" dur="1.8s" begin="4.2s" fill="freeze" /></path><path d="M49.49,47.54c0.76,0.71,1.23,1.89,1.45,2.51c0.09,0.26,0.1,7.34,0.07,17.38C50.96,80.93,49,90.75,36.95,100" class="stroke" stroke-dasharray="150"><set attributeName="opacity" to="0" dur="5.7s" /><animate attributeName="stroke-dashoffset" from="150" to="0" dur="1.8s" begin="5.7s" fill="freeze" /></path><path d="M63.45,46.25c0.7,0.31,1.12,1.41,1.25,2.04c0.14,0.63,0,47.56-0.14,51.49" class="stroke" stroke-dasharray="150"><set attributeName="opacity" to="0" dur="7.1s" /><animate attributeName="stroke-dashoffset" from="150" to="0" dur="1.8s" begin="7.1s" fill="freeze" /></path><path d="M30.85,57.85c0.9,0.15,2.58,0.66,3.54,0.5c0.96-0.16,14.48-1.1,15.6-1.57" class="stroke" stroke-dasharray="150"><set attributeName="opacity" to="0" dur="8.4s" /><animate attributeName="stroke-dashoffset" from="150" to="0" dur="1.8s" begin="8.4s" fill="freeze" /></path><path d="M32.03,70.55c1.47,0.2,3.08,0.16,4.04,0c0.96-0.16,11.5-1.41,14.06-1.89" class="stroke" stroke-dasharray="150"><set attributeName="opacity" to="0" dur="9.3s" /><animate attributeName="stroke-dashoffset" from="150" to="0" dur="1.8s" begin="9.3s" fill="freeze" /></path><path d="M26.87,85.65c0.96,1.09,2.23,1.61,3.87,1.08c4.52-1.48,11.02-3.73,17.6-5.48" class="stroke" stroke-dasharray="150"><set attributeName="opacity" to="0" dur="10.200000000000001s" /><animate attributeName="stroke-dashoffset" from="150" to="0" dur="1.8s" begin="10.200000000000001s" fill="freeze" /></path><path d="M66.58,55.42c2.88-0.24,15.5-1.46,17.67-1.86c0.79-0.14,0.24-0.08,1.6-0.08" class="stroke" stroke-dasharray="150"><set attributeName="opacity" to="0" dur="11.200000000000001s" /><animate attributeName="stroke-dashoffset" from="150" to="0" dur="1.8s" begin="11.200000000000001s" fill="freeze" /></path><path d="M66.82,68.25c2.88-0.23,14.82-1.65,16.98-2.04c0.79-0.14,0.24-0.08,1.6-0.08" class="stroke" stroke-dasharray="150"><set attributeName="opacity" to="0" dur="12.100000000000001s" /><animate attributeName="stroke-dashoffset" from="150" to="0" dur="1.8s" begin="12.100000000000001s" fill="freeze" /></path><path d="M66.74,81.36c2.88-0.24,17.38-1.15,19.54-1.54c0.79-0.14,0.24-0.08,1.6-0.08" class="stroke" stroke-dasharray="150"><set attributeName="opacity" to="0" dur="13.000000000000002s" /><animate attributeName="stroke-dashoffset" from="150" to="0" dur="1.8s" begin="13.000000000000002s" fill="freeze" /></path><text x="90" y="120" id="reset-kvg-06249-MdFst">⟳</text><text x="70" y="120" id="pause-kvg-06249-MdFst">◼</text><script type="text/javascript"><![CDATA[function RecurringTimer(e,t){var n,r,i=t;this.pause=function(){window.clearTimeout(n);i-=new Date-r};var s=function(){r=new Date;n=window.setTimeout(function(){i=t;s();e()},i)};this.clear=function(){window.clearTimeout(n);i=t;n=window.setTimeout(function(){i=t;s();e()},i)};this.resume=s;this.resume()}function invoketimer(){timer=new RecurringTimer(function(){svg.setCurrentTime(0)},15000.000000000002)}var svg=document.getElementById("kvg-06249-MdFst");var pause=document.getElementById("pause-kvg-06249-MdFst");var reset=document.getElementById("reset-kvg-06249-MdFst");var timer;invoketimer();reset.onclick=function(){svg.setCurrentTime(0);timer.clear();svg.unpauseAnimations();pause.innerHTML = "◼";};pause.onclick=function(){if(svg.animationsPaused()){svg.unpauseAnimations();timer.resume();pause.innerHTML="◼"}else{svg.pauseAnimations();timer.pause();pause.innerHTML="▶"}}]]></script></svg>