<svg id="kvg-0627e" class="kanjivg" width="106" height="126" xmlns="http://www.w3.org/2000/svg" xmlns:xlink="http://www.w3.org/1999/xlink" xml:space="preserve" version="1.1" baseProfile="full"><defs><style type="text/css"><![CDATA[path.black{fill:none;stroke:black;stroke-width:5;stroke-linecap:round;stroke-linejoin:round;}path.grey{fill:none;stroke:#ddd;stroke-width:5;stroke-linecap:round;stroke-linejoin:round;}path.stroke{fill:none;stroke:black;stroke-width:5;stroke-linecap:round;stroke-linejoin:round;}rect{fill:none;stroke:#555;stroke-width:2;} text{font-size:16px;font-family:Segoe UI Symbol,Cambria Math,DejaVu Sans,Symbola,Quivira,STIX,Code2000;-webkit-touch-callout:none;cursor:pointer;-webkit-user-select:none;-khtml-user-select:none;-moz-user-select:none;-ms-user-select:none;user-select: none;}text:hover{color:#777;}#reset{font-weight:bold;}]]></style><marker id="markerStart" markerWidth="8" markerHeight="8" style="overflow:visible;"><circle cx="0" cy="0" r="1.5" style="stroke:none;fill:red;fill-opacity:0.5;"/></marker><marker id="markerEnd" style="overflow:visible;"><circle cx="0" cy="0" r="0.8" style="stroke:none;fill:blue;fill-opacity:0.5;"><animate attributeName="opacity" from="1" to="0" dur="3s" repeatCount="indefinite" /></circle></marker></defs><rect x="4" y="4" width="100" height="100" /><path d="M11.5,36.92c2.42,0.25,1.47,0.55,4.06,0.25c6.38-0.75,17.98-2,28.61-3.17" class="grey" /><path d="M28.27,12.5c0.48,0.92,1.67,2.49,1.76,5.52c0.4,14.55,0.24,65.44,0.24,70.4c0,14.25-6.32,3.53-7.77,2" class="grey" /><path d="M11.75,65.59c1.53,0.96,2.92,1.63,4.03,1.03c3.97-2.12,16.83-9.07,24.47-13.7" class="grey" /><path d="M47.5,40.2c1.29,0.39,3.67,0.55,4.95,0.39c9.93-1.24,22.96-3.56,34.54-5.94c1.62-0.33,2.76-0.21,3.84-0.01" class="grey" /><path d="M60.49,13c1.34,1.8,1.56,2.31,1.84,6.18c2.34,32.46,10.88,64.16,27.3,76.27c5.27,3.89,4.52,0.77,3.85-7.21" class="grey" /><path d="M86.2,45.74c0.12,0.91,0.57,2.46-0.23,3.67c-5.23,7.87-19.72,25.84-40.47,35.93" class="grey" /><path d="M75.99,15.21c2.88,1.98,7.5,6.5,8.84,9.89" class="grey" /><path d="M11.5,36.92c2.42,0.25,1.47,0.55,4.06,0.25c6.38-0.75,17.98-2,28.61-3.17" class="stroke" stroke-dasharray="150"><animate attributeName="stroke-dashoffset" from="150" to="0" dur="1.8s" begin="0.0s" fill="freeze" /></path><path d="M28.27,12.5c0.48,0.92,1.67,2.49,1.76,5.52c0.4,14.55,0.24,65.44,0.24,70.4c0,14.25-6.32,3.53-7.77,2" class="stroke" stroke-dasharray="150"><set attributeName="opacity" to="0" dur="1.0s" /><animate attributeName="stroke-dashoffset" from="150" to="0" dur="1.8s" begin="1.0s" fill="freeze" /></path><path d="M11.75,65.59c1.53,0.96,2.92,1.63,4.03,1.03c3.97-2.12,16.83-9.07,24.47-13.7" class="stroke" stroke-dasharray="150"><set attributeName="opacity" to="0" dur="2.8s" /><animate attributeName="stroke-dashoffset" from="150" to="0" dur="1.8s" begin="2.8s" fill="freeze" /></path><path d="M47.5,40.2c1.29,0.39,3.67,0.55,4.95,0.39c9.93-1.24,22.96-3.56,34.54-5.94c1.62-0.33,2.76-0.21,3.84-0.01" class="stroke" stroke-dasharray="150"><set attributeName="opacity" to="0" dur="3.8s" /><animate attributeName="stroke-dashoffset" from="150" to="0" dur="1.8s" begin="3.8s" fill="freeze" /></path><path d="M60.49,13c1.34,1.8,1.56,2.31,1.84,6.18c2.34,32.46,10.88,64.16,27.3,76.27c5.27,3.89,4.52,0.77,3.85-7.21" class="stroke" stroke-dasharray="150"><set attributeName="opacity" to="0" dur="4.9s" /><animate attributeName="stroke-dashoffset" from="150" to="0" dur="1.8s" begin="4.9s" fill="freeze" /></path><path d="M86.2,45.74c0.12,0.91,0.57,2.46-0.23,3.67c-5.23,7.87-19.72,25.84-40.47,35.93" class="stroke" stroke-dasharray="150"><set attributeName="opacity" to="0" dur="6.800000000000001s" /><animate attributeName="stroke-dashoffset" from="150" to="0" dur="1.8s" begin="6.800000000000001s" fill="freeze" /></path><path d="M75.99,15.21c2.88,1.98,7.5,6.5,8.84,9.89" class="stroke" stroke-dasharray="150"><set attributeName="opacity" to="0" dur="8.200000000000001s" /><animate attributeName="stroke-dashoffset" from="150" to="0" dur="1.8s" begin="8.200000000000001s" fill="freeze" /></path><text x="90" y="120" id="reset-kvg-0627e">⟳</text><text x="70" y="120" id="pause-kvg-0627e">◼</text><script type="text/javascript"><![CDATA[function RecurringTimer(e,t){var n,r,i=t;this.pause=function(){window.clearTimeout(n);i-=new Date-r};var s=function(){r=new Date;n=window.setTimeout(function(){i=t;s();e()},i)};this.clear=function(){window.clearTimeout(n);i=t;n=window.setTimeout(function(){i=t;s();e()},i)};this.resume=s;this.resume()}function invoketimer(){timer=new RecurringTimer(function(){svg.setCurrentTime(0)},10100.000000000002)}var svg=document.getElementById("kvg-0627e");var pause=document.getElementById("pause-kvg-0627e");var reset=document.getElementById("reset-kvg-0627e");var timer;invoketimer();reset.onclick=function(){svg.setCurrentTime(0);timer.clear();svg.unpauseAnimations();pause.innerHTML = "◼";};pause.onclick=function(){if(svg.animationsPaused()){svg.unpauseAnimations();timer.resume();pause.innerHTML="◼"}else{svg.pauseAnimations();timer.pause();pause.innerHTML="▶"}}]]></script></svg>