<svg id="kvg-062bb-Kaisho" class="kanjivg" width="106" height="126" xmlns="http://www.w3.org/2000/svg" xmlns:xlink="http://www.w3.org/1999/xlink" xml:space="preserve" version="1.1" baseProfile="full"><defs><style type="text/css"><![CDATA[path.black{fill:none;stroke:black;stroke-width:5;stroke-linecap:round;stroke-linejoin:round;}path.grey{fill:none;stroke:#ddd;stroke-width:5;stroke-linecap:round;stroke-linejoin:round;}path.stroke{fill:none;stroke:black;stroke-width:5;stroke-linecap:round;stroke-linejoin:round;}rect{fill:none;stroke:#555;stroke-width:2;} text{font-size:16px;font-family:Segoe UI Symbol,Cambria Math,DejaVu Sans,Symbola,Quivira,STIX,Code2000;-webkit-touch-callout:none;cursor:pointer;-webkit-user-select:none;-khtml-user-select:none;-moz-user-select:none;-ms-user-select:none;user-select: none;}text:hover{color:#777;}#reset{font-weight:bold;}]]></style><marker id="markerStart" markerWidth="8" markerHeight="8" style="overflow:visible;"><circle cx="0" cy="0" r="1.5" style="stroke:none;fill:red;fill-opacity:0.5;"/></marker><marker id="markerEnd" style="overflow:visible;"><circle cx="0" cy="0" r="0.8" style="stroke:none;fill:blue;fill-opacity:0.5;"><animate attributeName="opacity" from="1" to="0" dur="3s" repeatCount="indefinite" /></circle></marker></defs><rect x="4" y="4" width="100" height="100" /><path d="M14.5,37.42c2.08,0.25,1.27,0.55,3.5,0.25c5.5-0.75,15.5-2.5,24.67-3.67" class="grey" /><path d="M29.27,14c0.48,0.92,1.67,2.49,1.76,5.52c0.4,14.55,0.24,62.94,0.24,67.9c0,14.25-6.32,3.53-7.77,2" class="grey" /><path d="M14.5,65.1c2.33,1.46,3.83,0.79,6.16-0.46c1.37-0.74,17.27-10.18,23.09-13.72" class="grey" /><path d="M50.25,32.76c1,0.99,1.31,2.08,1.48,2.88c1.36,6.55,2.43,23.18,3.22,35.25" class="grey" /><path d="M51.69,34.78c15.06-2.31,29.51-3.8,37.56-4.44c2.96-0.24,4.47,1.66,4.31,3.42c-0.59,6.44-2.56,24.55-4.94,34.76" class="grey" /><path d="M53.46,50.46c8.62-0.77,17.25-1.54,25.87-2.26c1.04-0.09,2.05-0.17,3.01-0.25" class="grey" /><path d="M55.51,67.32c9.99-0.83,21.74-1.93,33.54-2.54" class="grey" /><path d="M69.87,12.25c1.09,0.5,1.74,2.25,1.96,3.25c0.22,1-0.22,67.5-0.22,82" class="grey" /><path d="M14.5,37.42c2.08,0.25,1.27,0.55,3.5,0.25c5.5-0.75,15.5-2.5,24.67-3.67" class="stroke" stroke-dasharray="150"><animate attributeName="stroke-dashoffset" from="150" to="0" dur="1.8s" begin="0.0s" fill="freeze" /></path><path d="M29.27,14c0.48,0.92,1.67,2.49,1.76,5.52c0.4,14.55,0.24,62.94,0.24,67.9c0,14.25-6.32,3.53-7.77,2" class="stroke" stroke-dasharray="150"><set attributeName="opacity" to="0" dur="1.0s" /><animate attributeName="stroke-dashoffset" from="150" to="0" dur="1.8s" begin="1.0s" fill="freeze" /></path><path d="M14.5,65.1c2.33,1.46,3.83,0.79,6.16-0.46c1.37-0.74,17.27-10.18,23.09-13.72" class="stroke" stroke-dasharray="150"><set attributeName="opacity" to="0" dur="2.7s" /><animate attributeName="stroke-dashoffset" from="150" to="0" dur="1.8s" begin="2.7s" fill="freeze" /></path><path d="M50.25,32.76c1,0.99,1.31,2.08,1.48,2.88c1.36,6.55,2.43,23.18,3.22,35.25" class="stroke" stroke-dasharray="150"><set attributeName="opacity" to="0" dur="3.7s" /><animate attributeName="stroke-dashoffset" from="150" to="0" dur="1.8s" begin="3.7s" fill="freeze" /></path><path d="M51.69,34.78c15.06-2.31,29.51-3.8,37.56-4.44c2.96-0.24,4.47,1.66,4.31,3.42c-0.59,6.44-2.56,24.55-4.94,34.76" class="stroke" stroke-dasharray="150"><set attributeName="opacity" to="0" dur="4.7s" /><animate attributeName="stroke-dashoffset" from="150" to="0" dur="1.8s" begin="4.7s" fill="freeze" /></path><path d="M53.46,50.46c8.62-0.77,17.25-1.54,25.87-2.26c1.04-0.09,2.05-0.17,3.01-0.25" class="stroke" stroke-dasharray="150"><set attributeName="opacity" to="0" dur="6.4s" /><animate attributeName="stroke-dashoffset" from="150" to="0" dur="1.8s" begin="6.4s" fill="freeze" /></path><path d="M55.51,67.32c9.99-0.83,21.74-1.93,33.54-2.54" class="stroke" stroke-dasharray="150"><set attributeName="opacity" to="0" dur="7.4s" /><animate attributeName="stroke-dashoffset" from="150" to="0" dur="1.8s" begin="7.4s" fill="freeze" /></path><path d="M69.87,12.25c1.09,0.5,1.74,2.25,1.96,3.25c0.22,1-0.22,67.5-0.22,82" class="stroke" stroke-dasharray="150"><set attributeName="opacity" to="0" dur="8.4s" /><animate attributeName="stroke-dashoffset" from="150" to="0" dur="1.8s" begin="8.4s" fill="freeze" /></path><text x="90" y="120" id="reset-kvg-062bb-Kaisho">⟳</text><text x="70" y="120" id="pause-kvg-062bb-Kaisho">◼</text><script type="text/javascript"><![CDATA[function RecurringTimer(e,t){var n,r,i=t;this.pause=function(){window.clearTimeout(n);i-=new Date-r};var s=function(){r=new Date;n=window.setTimeout(function(){i=t;s();e()},i)};this.clear=function(){window.clearTimeout(n);i=t;n=window.setTimeout(function(){i=t;s();e()},i)};this.resume=s;this.resume()}function invoketimer(){timer=new RecurringTimer(function(){svg.setCurrentTime(0)},11100.0)}var svg=document.getElementById("kvg-062bb-Kaisho");var pause=document.getElementById("pause-kvg-062bb-Kaisho");var reset=document.getElementById("reset-kvg-062bb-Kaisho");var timer;invoketimer();reset.onclick=function(){svg.setCurrentTime(0);timer.clear();svg.unpauseAnimations();pause.innerHTML = "◼";};pause.onclick=function(){if(svg.animationsPaused()){svg.unpauseAnimations();timer.resume();pause.innerHTML="◼"}else{svg.pauseAnimations();timer.pause();pause.innerHTML="▶"}}]]></script></svg>