<svg id="kvg-062cd" class="kanjivg" width="106" height="126" xmlns="http://www.w3.org/2000/svg" xmlns:xlink="http://www.w3.org/1999/xlink" xml:space="preserve" version="1.1" baseProfile="full"><defs><style type="text/css"><![CDATA[path.black{fill:none;stroke:black;stroke-width:5;stroke-linecap:round;stroke-linejoin:round;}path.grey{fill:none;stroke:#ddd;stroke-width:5;stroke-linecap:round;stroke-linejoin:round;}path.stroke{fill:none;stroke:black;stroke-width:5;stroke-linecap:round;stroke-linejoin:round;}rect{fill:none;stroke:#555;stroke-width:2;} text{font-size:16px;font-family:Segoe UI Symbol,Cambria Math,DejaVu Sans,Symbola,Quivira,STIX,Code2000;-webkit-touch-callout:none;cursor:pointer;-webkit-user-select:none;-khtml-user-select:none;-moz-user-select:none;-ms-user-select:none;user-select: none;}text:hover{color:#777;}#reset{font-weight:bold;}]]></style><marker id="markerStart" markerWidth="8" markerHeight="8" style="overflow:visible;"><circle cx="0" cy="0" r="1.5" style="stroke:none;fill:red;fill-opacity:0.5;"/></marker><marker id="markerEnd" style="overflow:visible;"><circle cx="0" cy="0" r="0.8" style="stroke:none;fill:blue;fill-opacity:0.5;"><animate attributeName="opacity" from="1" to="0" dur="3s" repeatCount="indefinite" /></circle></marker></defs><rect x="4" y="4" width="100" height="100" /><path d="M16.25,39.92c2.18,0.26,4.18,0.43,6.41,0.04c5.06-0.86,12.85-2.62,19.55-3.71c1.16-0.19,2.31-0.36,3.45-0.5" class="grey" /><path d="M32.77,17.5c1.05,1.05,1.51,2.62,1.51,4.52c0,15.23-0.01,50.46-0.01,61.9c0,14.25-6.32,3.53-7.77,2" class="grey" /><path d="M17.25,68.43c1.22,1.22,2.12,1.07,4-0.18c5.01-3.34,8.75-6.25,20-14.33" class="grey" /><path d="M72.41,16.75c0.47,1.38,0.18,2.31-0.04,3.15c-1.63,6.18-6.99,16.6-12.18,24.56" class="grey" /><path d="M54.3,45.26c1.28,1.28,1.44,2.53,1.44,4.05c0,0.99,0.46,24.7,0.45,36.06c0,3.45-0.01,5.8-0.01,6.12" class="grey" /><path d="M56.6,47.25c5.44-0.77,23.85-3.17,30.3-3.93c2.85-0.34,4.55,0.09,4.54,3.42c0,2.82-0.3,24.98-0.55,36.64c-0.07,3.34-0.12,5.82-0.12,6.73" class="grey" /><path d="M57.31,65.97C65.5,65,84,63.12,90.36,62.86" class="grey" /><path d="M57.23,88.53c8.66-0.63,23.63-2.07,32.35-2.34" class="grey" /><path d="M16.25,39.92c2.18,0.26,4.18,0.43,6.41,0.04c5.06-0.86,12.85-2.62,19.55-3.71c1.16-0.19,2.31-0.36,3.45-0.5" class="stroke" stroke-dasharray="150"><animate attributeName="stroke-dashoffset" from="150" to="0" dur="1.8s" begin="0.0s" fill="freeze" /></path><path d="M32.77,17.5c1.05,1.05,1.51,2.62,1.51,4.52c0,15.23-0.01,50.46-0.01,61.9c0,14.25-6.32,3.53-7.77,2" class="stroke" stroke-dasharray="150"><set attributeName="opacity" to="0" dur="1.0s" /><animate attributeName="stroke-dashoffset" from="150" to="0" dur="1.8s" begin="1.0s" fill="freeze" /></path><path d="M17.25,68.43c1.22,1.22,2.12,1.07,4-0.18c5.01-3.34,8.75-6.25,20-14.33" class="stroke" stroke-dasharray="150"><set attributeName="opacity" to="0" dur="2.7s" /><animate attributeName="stroke-dashoffset" from="150" to="0" dur="1.8s" begin="2.7s" fill="freeze" /></path><path d="M72.41,16.75c0.47,1.38,0.18,2.31-0.04,3.15c-1.63,6.18-6.99,16.6-12.18,24.56" class="stroke" stroke-dasharray="150"><set attributeName="opacity" to="0" dur="3.7s" /><animate attributeName="stroke-dashoffset" from="150" to="0" dur="1.8s" begin="3.7s" fill="freeze" /></path><path d="M54.3,45.26c1.28,1.28,1.44,2.53,1.44,4.05c0,0.99,0.46,24.7,0.45,36.06c0,3.45-0.01,5.8-0.01,6.12" class="stroke" stroke-dasharray="150"><set attributeName="opacity" to="0" dur="4.7s" /><animate attributeName="stroke-dashoffset" from="150" to="0" dur="1.8s" begin="4.7s" fill="freeze" /></path><path d="M56.6,47.25c5.44-0.77,23.85-3.17,30.3-3.93c2.85-0.34,4.55,0.09,4.54,3.42c0,2.82-0.3,24.98-0.55,36.64c-0.07,3.34-0.12,5.82-0.12,6.73" class="stroke" stroke-dasharray="150"><set attributeName="opacity" to="0" dur="5.9s" /><animate attributeName="stroke-dashoffset" from="150" to="0" dur="1.8s" begin="5.9s" fill="freeze" /></path><path d="M57.31,65.97C65.5,65,84,63.12,90.36,62.86" class="stroke" stroke-dasharray="150"><set attributeName="opacity" to="0" dur="7.6000000000000005s" /><animate attributeName="stroke-dashoffset" from="150" to="0" dur="1.8s" begin="7.6000000000000005s" fill="freeze" /></path><path d="M57.23,88.53c8.66-0.63,23.63-2.07,32.35-2.34" class="stroke" stroke-dasharray="150"><set attributeName="opacity" to="0" dur="8.600000000000001s" /><animate attributeName="stroke-dashoffset" from="150" to="0" dur="1.8s" begin="8.600000000000001s" fill="freeze" /></path><text x="90" y="120" id="reset-kvg-062cd">⟳</text><text x="70" y="120" id="pause-kvg-062cd">◼</text><script type="text/javascript"><![CDATA[function RecurringTimer(e,t){var n,r,i=t;this.pause=function(){window.clearTimeout(n);i-=new Date-r};var s=function(){r=new Date;n=window.setTimeout(function(){i=t;s();e()},i)};this.clear=function(){window.clearTimeout(n);i=t;n=window.setTimeout(function(){i=t;s();e()},i)};this.resume=s;this.resume()}function invoketimer(){timer=new RecurringTimer(function(){svg.setCurrentTime(0)},10600.000000000002)}var svg=document.getElementById("kvg-062cd");var pause=document.getElementById("pause-kvg-062cd");var reset=document.getElementById("reset-kvg-062cd");var timer;invoketimer();reset.onclick=function(){svg.setCurrentTime(0);timer.clear();svg.unpauseAnimations();pause.innerHTML = "◼";};pause.onclick=function(){if(svg.animationsPaused()){svg.unpauseAnimations();timer.resume();pause.innerHTML="◼"}else{svg.pauseAnimations();timer.pause();pause.innerHTML="▶"}}]]></script></svg>