<svg id="kvg-062c5" class="kanjivg" width="106" height="126" xmlns="http://www.w3.org/2000/svg" xmlns:xlink="http://www.w3.org/1999/xlink" xml:space="preserve" version="1.1" baseProfile="full"><defs><style type="text/css"><![CDATA[path.black{fill:none;stroke:black;stroke-width:5;stroke-linecap:round;stroke-linejoin:round;}path.grey{fill:none;stroke:#ddd;stroke-width:5;stroke-linecap:round;stroke-linejoin:round;}path.stroke{fill:none;stroke:black;stroke-width:5;stroke-linecap:round;stroke-linejoin:round;}rect{fill:none;stroke:#555;stroke-width:2;} text{font-size:16px;font-family:Segoe UI Symbol,Cambria Math,DejaVu Sans,Symbola,Quivira,STIX,Code2000;-webkit-touch-callout:none;cursor:pointer;-webkit-user-select:none;-khtml-user-select:none;-moz-user-select:none;-ms-user-select:none;user-select: none;}text:hover{color:#777;}#reset{font-weight:bold;}]]></style><marker id="markerStart" markerWidth="8" markerHeight="8" style="overflow:visible;"><circle cx="0" cy="0" r="1.5" style="stroke:none;fill:red;fill-opacity:0.5;"/></marker><marker id="markerEnd" style="overflow:visible;"><circle cx="0" cy="0" r="0.8" style="stroke:none;fill:blue;fill-opacity:0.5;"><animate attributeName="opacity" from="1" to="0" dur="3s" repeatCount="indefinite" /></circle></marker></defs><rect x="4" y="4" width="100" height="100" /><path d="M13,38.42c2,0.46,3.58,0.27,5.62,0.08c5.95-0.57,13.4-2.12,20.91-3.21c1.33-0.19,2.71-0.28,3.88-0.28" class="grey" /><path d="M29.27,15.25c1.12,1.12,1.51,2.75,1.51,5.27c0,15.23-0.01,54.46-0.01,65.9c0,14.25-6.32,3.53-7.77,2" class="grey" /><path d="M13.75,68.88c1,0.88,2.5,1,4-0.12c4.82-3.61,11-8.5,23-17.25" class="grey" /><path d="M52.06,23.16c0.76,0.76,1.26,1.92,1.26,3.41c0,2.87-0.04,30-0.07,41.68c-0.01,3.59-0.01,5.72-0.01,5.25" class="grey" /><path d="M54.42,24.85c2.86-0.19,24.33-2.63,26.93-2.85c2.17-0.19,3.39,0.75,3.39,3.16c0,3.17-0.08,28.55-0.11,40.72c-0.01,2.58-0.01,4.57-0.01,5.62" class="grey" /><path d="M54.67,46.64c5.45-0.39,24.61-2.11,28.98-2.11" class="grey" /><path d="M54.42,70.1c9.96-1.1,20.58-2.35,28.9-2.74" class="grey" /><path d="M41.8,88.81c2.82,0.57,5.33,0.26,7.7,0.07c12.75-1,29.49-1.98,40.88-2.27c2.44-0.06,4.93,0.06,7.32,0.64" class="grey" /><path d="M13,38.42c2,0.46,3.58,0.27,5.62,0.08c5.95-0.57,13.4-2.12,20.91-3.21c1.33-0.19,2.71-0.28,3.88-0.28" class="stroke" stroke-dasharray="150"><animate attributeName="stroke-dashoffset" from="150" to="0" dur="1.8s" begin="0.0s" fill="freeze" /></path><path d="M29.27,15.25c1.12,1.12,1.51,2.75,1.51,5.27c0,15.23-0.01,54.46-0.01,65.9c0,14.25-6.32,3.53-7.77,2" class="stroke" stroke-dasharray="150"><set attributeName="opacity" to="0" dur="1.0s" /><animate attributeName="stroke-dashoffset" from="150" to="0" dur="1.8s" begin="1.0s" fill="freeze" /></path><path d="M13.75,68.88c1,0.88,2.5,1,4-0.12c4.82-3.61,11-8.5,23-17.25" class="stroke" stroke-dasharray="150"><set attributeName="opacity" to="0" dur="2.7s" /><animate attributeName="stroke-dashoffset" from="150" to="0" dur="1.8s" begin="2.7s" fill="freeze" /></path><path d="M52.06,23.16c0.76,0.76,1.26,1.92,1.26,3.41c0,2.87-0.04,30-0.07,41.68c-0.01,3.59-0.01,5.72-0.01,5.25" class="stroke" stroke-dasharray="150"><set attributeName="opacity" to="0" dur="3.7s" /><animate attributeName="stroke-dashoffset" from="150" to="0" dur="1.8s" begin="3.7s" fill="freeze" /></path><path d="M54.42,24.85c2.86-0.19,24.33-2.63,26.93-2.85c2.17-0.19,3.39,0.75,3.39,3.16c0,3.17-0.08,28.55-0.11,40.72c-0.01,2.58-0.01,4.57-0.01,5.62" class="stroke" stroke-dasharray="150"><set attributeName="opacity" to="0" dur="5.0s" /><animate attributeName="stroke-dashoffset" from="150" to="0" dur="1.8s" begin="5.0s" fill="freeze" /></path><path d="M54.67,46.64c5.45-0.39,24.61-2.11,28.98-2.11" class="stroke" stroke-dasharray="150"><set attributeName="opacity" to="0" dur="6.7s" /><animate attributeName="stroke-dashoffset" from="150" to="0" dur="1.8s" begin="6.7s" fill="freeze" /></path><path d="M54.42,70.1c9.96-1.1,20.58-2.35,28.9-2.74" class="stroke" stroke-dasharray="150"><set attributeName="opacity" to="0" dur="7.7s" /><animate attributeName="stroke-dashoffset" from="150" to="0" dur="1.8s" begin="7.7s" fill="freeze" /></path><path d="M41.8,88.81c2.82,0.57,5.33,0.26,7.7,0.07c12.75-1,29.49-1.98,40.88-2.27c2.44-0.06,4.93,0.06,7.32,0.64" class="stroke" stroke-dasharray="150"><set attributeName="opacity" to="0" dur="8.7s" /><animate attributeName="stroke-dashoffset" from="150" to="0" dur="1.8s" begin="8.7s" fill="freeze" /></path><text x="90" y="120" id="reset-kvg-062c5">⟳</text><text x="70" y="120" id="pause-kvg-062c5">◼</text><script type="text/javascript"><![CDATA[function RecurringTimer(e,t){var n,r,i=t;this.pause=function(){window.clearTimeout(n);i-=new Date-r};var s=function(){r=new Date;n=window.setTimeout(function(){i=t;s();e()},i)};this.clear=function(){window.clearTimeout(n);i=t;n=window.setTimeout(function(){i=t;s();e()},i)};this.resume=s;this.resume()}function invoketimer(){timer=new RecurringTimer(function(){svg.setCurrentTime(0)},11100.0)}var svg=document.getElementById("kvg-062c5");var pause=document.getElementById("pause-kvg-062c5");var reset=document.getElementById("reset-kvg-062c5");var timer;invoketimer();reset.onclick=function(){svg.setCurrentTime(0);timer.clear();svg.unpauseAnimations();pause.innerHTML = "◼";};pause.onclick=function(){if(svg.animationsPaused()){svg.unpauseAnimations();timer.resume();pause.innerHTML="◼"}else{svg.pauseAnimations();timer.pause();pause.innerHTML="▶"}}]]></script></svg>