<svg id="kvg-062d0" class="kanjivg" width="106" height="126" xmlns="http://www.w3.org/2000/svg" xmlns:xlink="http://www.w3.org/1999/xlink" xml:space="preserve" version="1.1" baseProfile="full"><defs><style type="text/css"><![CDATA[path.black{fill:none;stroke:black;stroke-width:5;stroke-linecap:round;stroke-linejoin:round;}path.grey{fill:none;stroke:#ddd;stroke-width:5;stroke-linecap:round;stroke-linejoin:round;}path.stroke{fill:none;stroke:black;stroke-width:5;stroke-linecap:round;stroke-linejoin:round;}rect{fill:none;stroke:#555;stroke-width:2;} text{font-size:16px;font-family:Segoe UI Symbol,Cambria Math,DejaVu Sans,Symbola,Quivira,STIX,Code2000;-webkit-touch-callout:none;cursor:pointer;-webkit-user-select:none;-khtml-user-select:none;-moz-user-select:none;-ms-user-select:none;user-select: none;}text:hover{color:#777;}#reset{font-weight:bold;}]]></style><marker id="markerStart" markerWidth="8" markerHeight="8" style="overflow:visible;"><circle cx="0" cy="0" r="1.5" style="stroke:none;fill:red;fill-opacity:0.5;"/></marker><marker id="markerEnd" style="overflow:visible;"><circle cx="0" cy="0" r="0.8" style="stroke:none;fill:blue;fill-opacity:0.5;"><animate attributeName="opacity" from="1" to="0" dur="3s" repeatCount="indefinite" /></circle></marker></defs><rect x="4" y="4" width="100" height="100" /><path d="M13.5,39.67c2.22,0.27,4.25,0.4,6.51,0.08c4.84-0.69,12.14-2.16,18.75-3.13c1.48-0.22,2.98-0.36,4.4-0.36" class="grey" /><path d="M29.77,15.5c1.05,1.05,1.51,2.88,1.51,5.27c0,15.23-0.01,53.21-0.01,64.65c0,14.25-6.32,3.53-7.77,2" class="grey" /><path d="M13.54,66.96c1.21,0.79,2.61,0.44,4-0.5C23,62.75,29.5,58.58,40.75,50.5" class="grey" /><path d="M50,20.39c0.87,0.87,1.37,1.59,1.51,2.7c1.62,7.67,2.57,13.21,3.17,17.21c0.21,1.42,0.4,2.75,0.57,3.95" class="grey" /><path d="M52.38,21.78c8.85-1.12,23.33-2.79,30.14-3.53c3.28-0.36,5.61-0.27,4.64,3.67c-1.17,4.76-2.59,11.06-4,16.63" class="grey" /><path d="M56.2,42.58c4.76-0.48,15.39-1.57,23.81-2.44c1.84-0.19,2.99-0.26,4.95-0.28" class="grey" /><path d="M46.92,55.45c2.19,0.72,5.18,0.47,7.46,0.17c10.8-1.44,26.23-3.68,31.77-4.15c3.54-0.3,5.28,0.84,4.79,4.55c-1,7.61-5.7,28.49-10.72,35.13c-3.87,5.12-6.12,3.48-9.04,0.16" class="grey" /><path d="M64.96,57.1c0.07,0.8,0.32,2.13-0.14,3.21C59.75,72.12,54.5,82.62,40.75,92.25" class="grey" /><path d="M13.5,39.67c2.22,0.27,4.25,0.4,6.51,0.08c4.84-0.69,12.14-2.16,18.75-3.13c1.48-0.22,2.98-0.36,4.4-0.36" class="stroke" stroke-dasharray="150"><animate attributeName="stroke-dashoffset" from="150" to="0" dur="1.8s" begin="0.0s" fill="freeze" /></path><path d="M29.77,15.5c1.05,1.05,1.51,2.88,1.51,5.27c0,15.23-0.01,53.21-0.01,64.65c0,14.25-6.32,3.53-7.77,2" class="stroke" stroke-dasharray="150"><set attributeName="opacity" to="0" dur="1.0s" /><animate attributeName="stroke-dashoffset" from="150" to="0" dur="1.8s" begin="1.0s" fill="freeze" /></path><path d="M13.54,66.96c1.21,0.79,2.61,0.44,4-0.5C23,62.75,29.5,58.58,40.75,50.5" class="stroke" stroke-dasharray="150"><set attributeName="opacity" to="0" dur="2.7s" /><animate attributeName="stroke-dashoffset" from="150" to="0" dur="1.8s" begin="2.7s" fill="freeze" /></path><path d="M50,20.39c0.87,0.87,1.37,1.59,1.51,2.7c1.62,7.67,2.57,13.21,3.17,17.21c0.21,1.42,0.4,2.75,0.57,3.95" class="stroke" stroke-dasharray="150"><set attributeName="opacity" to="0" dur="3.7s" /><animate attributeName="stroke-dashoffset" from="150" to="0" dur="1.8s" begin="3.7s" fill="freeze" /></path><path d="M52.38,21.78c8.85-1.12,23.33-2.79,30.14-3.53c3.28-0.36,5.61-0.27,4.64,3.67c-1.17,4.76-2.59,11.06-4,16.63" class="stroke" stroke-dasharray="150"><set attributeName="opacity" to="0" dur="4.7s" /><animate attributeName="stroke-dashoffset" from="150" to="0" dur="1.8s" begin="4.7s" fill="freeze" /></path><path d="M56.2,42.58c4.76-0.48,15.39-1.57,23.81-2.44c1.84-0.19,2.99-0.26,4.95-0.28" class="stroke" stroke-dasharray="150"><set attributeName="opacity" to="0" dur="6.1s" /><animate attributeName="stroke-dashoffset" from="150" to="0" dur="1.8s" begin="6.1s" fill="freeze" /></path><path d="M46.92,55.45c2.19,0.72,5.18,0.47,7.46,0.17c10.8-1.44,26.23-3.68,31.77-4.15c3.54-0.3,5.28,0.84,4.79,4.55c-1,7.61-5.7,28.49-10.72,35.13c-3.87,5.12-6.12,3.48-9.04,0.16" class="stroke" stroke-dasharray="150"><set attributeName="opacity" to="0" dur="7.1s" /><animate attributeName="stroke-dashoffset" from="150" to="0" dur="1.8s" begin="7.1s" fill="freeze" /></path><path d="M64.96,57.1c0.07,0.8,0.32,2.13-0.14,3.21C59.75,72.12,54.5,82.62,40.75,92.25" class="stroke" stroke-dasharray="150"><set attributeName="opacity" to="0" dur="8.9s" /><animate attributeName="stroke-dashoffset" from="150" to="0" dur="1.8s" begin="8.9s" fill="freeze" /></path><text x="90" y="120" id="reset-kvg-062d0">⟳</text><text x="70" y="120" id="pause-kvg-062d0">◼</text><script type="text/javascript"><![CDATA[function RecurringTimer(e,t){var n,r,i=t;this.pause=function(){window.clearTimeout(n);i-=new Date-r};var s=function(){r=new Date;n=window.setTimeout(function(){i=t;s();e()},i)};this.clear=function(){window.clearTimeout(n);i=t;n=window.setTimeout(function(){i=t;s();e()},i)};this.resume=s;this.resume()}function invoketimer(){timer=new RecurringTimer(function(){svg.setCurrentTime(0)},11000.0)}var svg=document.getElementById("kvg-062d0");var pause=document.getElementById("pause-kvg-062d0");var reset=document.getElementById("reset-kvg-062d0");var timer;invoketimer();reset.onclick=function(){svg.setCurrentTime(0);timer.clear();svg.unpauseAnimations();pause.innerHTML = "◼";};pause.onclick=function(){if(svg.animationsPaused()){svg.unpauseAnimations();timer.resume();pause.innerHTML="◼"}else{svg.pauseAnimations();timer.pause();pause.innerHTML="▶"}}]]></script></svg>