<svg id="kvg-0634f" class="kanjivg" width="106" height="126" xmlns="http://www.w3.org/2000/svg" xmlns:xlink="http://www.w3.org/1999/xlink" xml:space="preserve" version="1.1" baseProfile="full"><defs><style type="text/css"><![CDATA[path.black{fill:none;stroke:black;stroke-width:5;stroke-linecap:round;stroke-linejoin:round;}path.grey{fill:none;stroke:#ddd;stroke-width:5;stroke-linecap:round;stroke-linejoin:round;}path.stroke{fill:none;stroke:black;stroke-width:5;stroke-linecap:round;stroke-linejoin:round;}rect{fill:none;stroke:#555;stroke-width:2;} text{font-size:16px;font-family:Segoe UI Symbol,Cambria Math,DejaVu Sans,Symbola,Quivira,STIX,Code2000;-webkit-touch-callout:none;cursor:pointer;-webkit-user-select:none;-khtml-user-select:none;-moz-user-select:none;-ms-user-select:none;user-select: none;}text:hover{color:#777;}#reset{font-weight:bold;}]]></style><marker id="markerStart" markerWidth="8" markerHeight="8" style="overflow:visible;"><circle cx="0" cy="0" r="1.5" style="stroke:none;fill:red;fill-opacity:0.5;"/></marker><marker id="markerEnd" style="overflow:visible;"><circle cx="0" cy="0" r="0.8" style="stroke:none;fill:blue;fill-opacity:0.5;"><animate attributeName="opacity" from="1" to="0" dur="3s" repeatCount="indefinite" /></circle></marker></defs><rect x="4" y="4" width="100" height="100" /><path d="M11.5,38.86c2.34,0.28,1.43,0.62,3.94,0.28c6.19-0.84,17.44-2.81,27.75-4.12" class="grey" /><path d="M28.77,15c0.48,0.92,1.76,2.49,1.76,5.52c0,15.23,0.24,53.96,0.24,65.4c0,14.25-6.32,3.53-7.77,2" class="grey" /><path d="M12,64.86c1,1.18,2.58,1.87,4.78,0.78C18.07,65,37.51,54,43,50.92" class="grey" /><path d="M47.78,21.1c0.53,0.71,1.41,1.87,1.41,2.81c0.56,4.75,3.74,27.66,3.88,28.6" class="grey" /><path d="M48.89,22.46c3-0.12,34.85-3.31,37.59-3.46c2.28-0.12,3.07,1.21,2.88,3.21c-0.16,3.85-3.88,21.66-4.99,28.06" class="grey" /><path d="M51.2,35.22c3.41,0,31.89-1.93,35.74-1.93" class="grey" /><path d="M53.82,48.99c6.68-0.24,23.07-1.75,29.59-1.75" class="grey" /><path d="M49,70.86c1.12,0.23,3.19,0.29,4.31,0.23c14.45-0.79,20.77-2.46,35.32-2.66c1.87-0.03,3,0.11,3.94,0.23" class="grey" /><path d="M67.58,54.25c0.15,0.37,2.21,1.91,2.21,4.24c0,6.76,0.05,28.26,0.05,33.42" class="grey" /><path d="M41.67,93.89c1.49,0.31,4.22,0.42,5.71,0.31c12.87-0.95,29-2.57,45.48-2.97c2.48-0.06,3.97,0.15,5.21,0.3" class="grey" /><path d="M11.5,38.86c2.34,0.28,1.43,0.62,3.94,0.28c6.19-0.84,17.44-2.81,27.75-4.12" class="stroke" stroke-dasharray="150"><animate attributeName="stroke-dashoffset" from="150" to="0" dur="1.8s" begin="0.0s" fill="freeze" /></path><path d="M28.77,15c0.48,0.92,1.76,2.49,1.76,5.52c0,15.23,0.24,53.96,0.24,65.4c0,14.25-6.32,3.53-7.77,2" class="stroke" stroke-dasharray="150"><set attributeName="opacity" to="0" dur="1.0s" /><animate attributeName="stroke-dashoffset" from="150" to="0" dur="1.8s" begin="1.0s" fill="freeze" /></path><path d="M12,64.86c1,1.18,2.58,1.87,4.78,0.78C18.07,65,37.51,54,43,50.92" class="stroke" stroke-dasharray="150"><set attributeName="opacity" to="0" dur="2.7s" /><animate attributeName="stroke-dashoffset" from="150" to="0" dur="1.8s" begin="2.7s" fill="freeze" /></path><path d="M47.78,21.1c0.53,0.71,1.41,1.87,1.41,2.81c0.56,4.75,3.74,27.66,3.88,28.6" class="stroke" stroke-dasharray="150"><set attributeName="opacity" to="0" dur="3.7s" /><animate attributeName="stroke-dashoffset" from="150" to="0" dur="1.8s" begin="3.7s" fill="freeze" /></path><path d="M48.89,22.46c3-0.12,34.85-3.31,37.59-3.46c2.28-0.12,3.07,1.21,2.88,3.21c-0.16,3.85-3.88,21.66-4.99,28.06" class="stroke" stroke-dasharray="150"><set attributeName="opacity" to="0" dur="4.7s" /><animate attributeName="stroke-dashoffset" from="150" to="0" dur="1.8s" begin="4.7s" fill="freeze" /></path><path d="M51.2,35.22c3.41,0,31.89-1.93,35.74-1.93" class="stroke" stroke-dasharray="150"><set attributeName="opacity" to="0" dur="6.4s" /><animate attributeName="stroke-dashoffset" from="150" to="0" dur="1.8s" begin="6.4s" fill="freeze" /></path><path d="M53.82,48.99c6.68-0.24,23.07-1.75,29.59-1.75" class="stroke" stroke-dasharray="150"><set attributeName="opacity" to="0" dur="7.4s" /><animate attributeName="stroke-dashoffset" from="150" to="0" dur="1.8s" begin="7.4s" fill="freeze" /></path><path d="M49,70.86c1.12,0.23,3.19,0.29,4.31,0.23c14.45-0.79,20.77-2.46,35.32-2.66c1.87-0.03,3,0.11,3.94,0.23" class="stroke" stroke-dasharray="150"><set attributeName="opacity" to="0" dur="8.4s" /><animate attributeName="stroke-dashoffset" from="150" to="0" dur="1.8s" begin="8.4s" fill="freeze" /></path><path d="M67.58,54.25c0.15,0.37,2.21,1.91,2.21,4.24c0,6.76,0.05,28.26,0.05,33.42" class="stroke" stroke-dasharray="150"><set attributeName="opacity" to="0" dur="9.5s" /><animate attributeName="stroke-dashoffset" from="150" to="0" dur="1.8s" begin="9.5s" fill="freeze" /></path><path d="M41.67,93.89c1.49,0.31,4.22,0.42,5.71,0.31c12.87-0.95,29-2.57,45.48-2.97c2.48-0.06,3.97,0.15,5.21,0.3" class="stroke" stroke-dasharray="150"><set attributeName="opacity" to="0" dur="10.5s" /><animate attributeName="stroke-dashoffset" from="150" to="0" dur="1.8s" begin="10.5s" fill="freeze" /></path><text x="90" y="120" id="reset-kvg-0634f">⟳</text><text x="70" y="120" id="pause-kvg-0634f">◼</text><script type="text/javascript"><![CDATA[function RecurringTimer(e,t){var n,r,i=t;this.pause=function(){window.clearTimeout(n);i-=new Date-r};var s=function(){r=new Date;n=window.setTimeout(function(){i=t;s();e()},i)};this.clear=function(){window.clearTimeout(n);i=t;n=window.setTimeout(function(){i=t;s();e()},i)};this.resume=s;this.resume()}function invoketimer(){timer=new RecurringTimer(function(){svg.setCurrentTime(0)},12900.0)}var svg=document.getElementById("kvg-0634f");var pause=document.getElementById("pause-kvg-0634f");var reset=document.getElementById("reset-kvg-0634f");var timer;invoketimer();reset.onclick=function(){svg.setCurrentTime(0);timer.clear();svg.unpauseAnimations();pause.innerHTML = "◼";};pause.onclick=function(){if(svg.animationsPaused()){svg.unpauseAnimations();timer.resume();pause.innerHTML="◼"}else{svg.pauseAnimations();timer.pause();pause.innerHTML="▶"}}]]></script></svg>