<svg id="kvg-06355-Kaisho" class="kanjivg" width="106" height="126" xmlns="http://www.w3.org/2000/svg" xmlns:xlink="http://www.w3.org/1999/xlink" xml:space="preserve" version="1.1" baseProfile="full"><defs><style type="text/css"><![CDATA[path.black{fill:none;stroke:black;stroke-width:5;stroke-linecap:round;stroke-linejoin:round;}path.grey{fill:none;stroke:#ddd;stroke-width:5;stroke-linecap:round;stroke-linejoin:round;}path.stroke{fill:none;stroke:black;stroke-width:5;stroke-linecap:round;stroke-linejoin:round;}rect{fill:none;stroke:#555;stroke-width:2;} text{font-size:16px;font-family:Segoe UI Symbol,Cambria Math,DejaVu Sans,Symbola,Quivira,STIX,Code2000;-webkit-touch-callout:none;cursor:pointer;-webkit-user-select:none;-khtml-user-select:none;-moz-user-select:none;-ms-user-select:none;user-select: none;}text:hover{color:#777;}#reset{font-weight:bold;}]]></style><marker id="markerStart" markerWidth="8" markerHeight="8" style="overflow:visible;"><circle cx="0" cy="0" r="1.5" style="stroke:none;fill:red;fill-opacity:0.5;"/></marker><marker id="markerEnd" style="overflow:visible;"><circle cx="0" cy="0" r="0.8" style="stroke:none;fill:blue;fill-opacity:0.5;"><animate attributeName="opacity" from="1" to="0" dur="3s" repeatCount="indefinite" /></circle></marker></defs><rect x="4" y="4" width="100" height="100" /><path d="M15.5,37.92c2.08,0.25,1.27,0.55,3.5,0.25c5.5-0.75,15.5-2.5,24.67-3.67" class="grey" /><path d="M31.27,14c0.48,0.92,1.76,2.49,1.76,5.52c0,15.23,0.24,55.96,0.24,67.4c0,14.25-6.32,3.53-7.77,2" class="grey" /><path d="M13,66.18c1.25,1.78,3.83,1.61,6.5-0.18c5-3.36,11.5-8.42,22.75-16.5" class="grey" /><path d="M48.19,29.39c0.99,0.45,2.8,0.53,3.79,0.45c4.75-0.4,24.41-3.67,35.61-3.82c1.65-0.02,2.64,0.21,3.46,0.44" class="grey" /><path d="M49.58,41.56c0.53,0.69,0.89,1.39,1.06,2.08c0.18,0.69-0.21,44.25-0.19,50.48" class="grey" /><path d="M51.7,43.39c5.97-0.29,33.68-3.59,35.26-3.78c2.83-0.35,3.9,2.25,3.54,3.29c-0.04,2.33,0.13,30.12,0.13,45.96c0,11.29-6.2,2.19-7.17,1.51" class="grey" /><path d="M51.7,57.58c8.32-0.64,16.64-1.37,24.96-2.08c0.91-0.08,1.8-0.15,2.66-0.23" class="grey" /><path d="M51.87,72.16c8.16-0.74,16.34-1.38,24.51-2.02c0.96-0.08,1.91-0.15,2.82-0.22" class="grey" /><path d="M67.08,12.28c0.96,0.56,1.53,2.51,1.72,3.63c0.19,1.12,0,70.76-0.19,77.75" class="grey" /><path d="M86.47,12.25c2.88,1.56,7.45,6.4,8.17,8.82" class="grey" /><path d="M15.5,37.92c2.08,0.25,1.27,0.55,3.5,0.25c5.5-0.75,15.5-2.5,24.67-3.67" class="stroke" stroke-dasharray="150"><animate attributeName="stroke-dashoffset" from="150" to="0" dur="1.8s" begin="0.0s" fill="freeze" /></path><path d="M31.27,14c0.48,0.92,1.76,2.49,1.76,5.52c0,15.23,0.24,55.96,0.24,67.4c0,14.25-6.32,3.53-7.77,2" class="stroke" stroke-dasharray="150"><set attributeName="opacity" to="0" dur="1.0s" /><animate attributeName="stroke-dashoffset" from="150" to="0" dur="1.8s" begin="1.0s" fill="freeze" /></path><path d="M13,66.18c1.25,1.78,3.83,1.61,6.5-0.18c5-3.36,11.5-8.42,22.75-16.5" class="stroke" stroke-dasharray="150"><set attributeName="opacity" to="0" dur="2.7s" /><animate attributeName="stroke-dashoffset" from="150" to="0" dur="1.8s" begin="2.7s" fill="freeze" /></path><path d="M48.19,29.39c0.99,0.45,2.8,0.53,3.79,0.45c4.75-0.4,24.41-3.67,35.61-3.82c1.65-0.02,2.64,0.21,3.46,0.44" class="stroke" stroke-dasharray="150"><set attributeName="opacity" to="0" dur="3.7s" /><animate attributeName="stroke-dashoffset" from="150" to="0" dur="1.8s" begin="3.7s" fill="freeze" /></path><path d="M49.58,41.56c0.53,0.69,0.89,1.39,1.06,2.08c0.18,0.69-0.21,44.25-0.19,50.48" class="stroke" stroke-dasharray="150"><set attributeName="opacity" to="0" dur="4.800000000000001s" /><animate attributeName="stroke-dashoffset" from="150" to="0" dur="1.8s" begin="4.800000000000001s" fill="freeze" /></path><path d="M51.7,43.39c5.97-0.29,33.68-3.59,35.26-3.78c2.83-0.35,3.9,2.25,3.54,3.29c-0.04,2.33,0.13,30.12,0.13,45.96c0,11.29-6.2,2.19-7.17,1.51" class="stroke" stroke-dasharray="150"><set attributeName="opacity" to="0" dur="6.1000000000000005s" /><animate attributeName="stroke-dashoffset" from="150" to="0" dur="1.8s" begin="6.1000000000000005s" fill="freeze" /></path><path d="M51.7,57.58c8.32-0.64,16.64-1.37,24.96-2.08c0.91-0.08,1.8-0.15,2.66-0.23" class="stroke" stroke-dasharray="150"><set attributeName="opacity" to="0" dur="8.0s" /><animate attributeName="stroke-dashoffset" from="150" to="0" dur="1.8s" begin="8.0s" fill="freeze" /></path><path d="M51.87,72.16c8.16-0.74,16.34-1.38,24.51-2.02c0.96-0.08,1.91-0.15,2.82-0.22" class="stroke" stroke-dasharray="150"><set attributeName="opacity" to="0" dur="9.0s" /><animate attributeName="stroke-dashoffset" from="150" to="0" dur="1.8s" begin="9.0s" fill="freeze" /></path><path d="M67.08,12.28c0.96,0.56,1.53,2.51,1.72,3.63c0.19,1.12,0,70.76-0.19,77.75" class="stroke" stroke-dasharray="150"><set attributeName="opacity" to="0" dur="10.0s" /><animate attributeName="stroke-dashoffset" from="150" to="0" dur="1.8s" begin="10.0s" fill="freeze" /></path><path d="M86.47,12.25c2.88,1.56,7.45,6.4,8.17,8.82" class="stroke" stroke-dasharray="150"><set attributeName="opacity" to="0" dur="11.7s" /><animate attributeName="stroke-dashoffset" from="150" to="0" dur="1.8s" begin="11.7s" fill="freeze" /></path><text x="90" y="120" id="reset-kvg-06355-Kaisho">⟳</text><text x="70" y="120" id="pause-kvg-06355-Kaisho">◼</text><script type="text/javascript"><![CDATA[function RecurringTimer(e,t){var n,r,i=t;this.pause=function(){window.clearTimeout(n);i-=new Date-r};var s=function(){r=new Date;n=window.setTimeout(function(){i=t;s();e()},i)};this.clear=function(){window.clearTimeout(n);i=t;n=window.setTimeout(function(){i=t;s();e()},i)};this.resume=s;this.resume()}function invoketimer(){timer=new RecurringTimer(function(){svg.setCurrentTime(0)},13600.0)}var svg=document.getElementById("kvg-06355-Kaisho");var pause=document.getElementById("pause-kvg-06355-Kaisho");var reset=document.getElementById("reset-kvg-06355-Kaisho");var timer;invoketimer();reset.onclick=function(){svg.setCurrentTime(0);timer.clear();svg.unpauseAnimations();pause.innerHTML = "◼";};pause.onclick=function(){if(svg.animationsPaused()){svg.unpauseAnimations();timer.resume();pause.innerHTML="◼"}else{svg.pauseAnimations();timer.pause();pause.innerHTML="▶"}}]]></script></svg>