<svg id="kvg-0637a" class="kanjivg" width="106" height="126" xmlns="http://www.w3.org/2000/svg" xmlns:xlink="http://www.w3.org/1999/xlink" xml:space="preserve" version="1.1" baseProfile="full"><defs><style type="text/css"><![CDATA[path.black{fill:none;stroke:black;stroke-width:5;stroke-linecap:round;stroke-linejoin:round;}path.grey{fill:none;stroke:#ddd;stroke-width:5;stroke-linecap:round;stroke-linejoin:round;}path.stroke{fill:none;stroke:black;stroke-width:5;stroke-linecap:round;stroke-linejoin:round;}rect{fill:none;stroke:#555;stroke-width:2;} text{font-size:16px;font-family:Segoe UI Symbol,Cambria Math,DejaVu Sans,Symbola,Quivira,STIX,Code2000;-webkit-touch-callout:none;cursor:pointer;-webkit-user-select:none;-khtml-user-select:none;-moz-user-select:none;-ms-user-select:none;user-select: none;}text:hover{color:#777;}#reset{font-weight:bold;}]]></style><marker id="markerStart" markerWidth="8" markerHeight="8" style="overflow:visible;"><circle cx="0" cy="0" r="1.5" style="stroke:none;fill:red;fill-opacity:0.5;"/></marker><marker id="markerEnd" style="overflow:visible;"><circle cx="0" cy="0" r="0.8" style="stroke:none;fill:blue;fill-opacity:0.5;"><animate attributeName="opacity" from="1" to="0" dur="3s" repeatCount="indefinite" /></circle></marker></defs><rect x="4" y="4" width="100" height="100" /><path d="M11.5,37.67c2.05,0.25,3.94,0.44,6.03,0.15c4.6-0.63,10.93-1.65,17.47-2.55c1.3-0.18,2.5-0.39,3.91-0.27" class="grey" /><path d="M26.77,15.75c1.12,1.12,1.76,3,1.76,5.52c0,15.23-0.01,51.46-0.01,62.9c0,14.25-5.89,4.71-8.02,2.25" class="grey" /><path d="M11.75,65.43c1.38,1.07,2.88,0.7,4.38-0.43c4.82-3.61,8-6.12,19.88-14.83" class="grey" /><path d="M43.19,30.49c2.69,0.76,6.47,0.48,8.56,0.21c9.52-1.25,20.86-2.24,29.62-2.97c2.61-0.22,5.25-0.58,7.83,0.09" class="grey" /><path d="M65.1,14.25c0.28,1.12,0.4,2.19,0.06,3.54C60.25,36.88,50.62,51.88,37.3,62.04" class="grey" /><path d="M68,29.75c4.75,6.5,13.4,16.28,20.09,21.67c2.28,1.83,4.16,3.21,6.6,4.68" class="grey" /><path d="M53.4,53.95c1.29,0.63,3.26,0.34,4.6,0.24c4.07-0.31,9.44-1.13,13.67-1.55c1.3-0.13,3.33-0.23,4.62,0.14" class="grey" /><path d="M43.47,66.73c1.94,0.83,5.13,0.46,7.17,0.25C60.5,66,70.62,65,81.5,64.34c2.53-0.15,5.45-0.19,7.93,0.44" class="grey" /><path d="M66.31,67.9c0.83,0.83,1.02,2.1,1.02,3.76c0,3.84-0.08,16.38-0.08,20.21c0,7.12-4.88,0.88-6.2-0.64" class="grey" /><path d="M51.4,76.59c0.1,0.92-0.05,1.79-0.43,2.62c-1.96,3.29-4.9,7.11-9.9,12.19" class="grey" /><path d="M80,75.75c3.86,2.74,10.16,10.95,11.12,15.21" class="grey" /><path d="M11.5,37.67c2.05,0.25,3.94,0.44,6.03,0.15c4.6-0.63,10.93-1.65,17.47-2.55c1.3-0.18,2.5-0.39,3.91-0.27" class="stroke" stroke-dasharray="150"><animate attributeName="stroke-dashoffset" from="150" to="0" dur="1.8s" begin="0.0s" fill="freeze" /></path><path d="M26.77,15.75c1.12,1.12,1.76,3,1.76,5.52c0,15.23-0.01,51.46-0.01,62.9c0,14.25-5.89,4.71-8.02,2.25" class="stroke" stroke-dasharray="150"><set attributeName="opacity" to="0" dur="1.0s" /><animate attributeName="stroke-dashoffset" from="150" to="0" dur="1.8s" begin="1.0s" fill="freeze" /></path><path d="M11.75,65.43c1.38,1.07,2.88,0.7,4.38-0.43c4.82-3.61,8-6.12,19.88-14.83" class="stroke" stroke-dasharray="150"><set attributeName="opacity" to="0" dur="2.7s" /><animate attributeName="stroke-dashoffset" from="150" to="0" dur="1.8s" begin="2.7s" fill="freeze" /></path><path d="M43.19,30.49c2.69,0.76,6.47,0.48,8.56,0.21c9.52-1.25,20.86-2.24,29.62-2.97c2.61-0.22,5.25-0.58,7.83,0.09" class="stroke" stroke-dasharray="150"><set attributeName="opacity" to="0" dur="3.7s" /><animate attributeName="stroke-dashoffset" from="150" to="0" dur="1.8s" begin="3.7s" fill="freeze" /></path><path d="M65.1,14.25c0.28,1.12,0.4,2.19,0.06,3.54C60.25,36.88,50.62,51.88,37.3,62.04" class="stroke" stroke-dasharray="150"><set attributeName="opacity" to="0" dur="4.9s" /><animate attributeName="stroke-dashoffset" from="150" to="0" dur="1.8s" begin="4.9s" fill="freeze" /></path><path d="M68,29.75c4.75,6.5,13.4,16.28,20.09,21.67c2.28,1.83,4.16,3.21,6.6,4.68" class="stroke" stroke-dasharray="150"><set attributeName="opacity" to="0" dur="6.300000000000001s" /><animate attributeName="stroke-dashoffset" from="150" to="0" dur="1.8s" begin="6.300000000000001s" fill="freeze" /></path><path d="M53.4,53.95c1.29,0.63,3.26,0.34,4.6,0.24c4.07-0.31,9.44-1.13,13.67-1.55c1.3-0.13,3.33-0.23,4.62,0.14" class="stroke" stroke-dasharray="150"><set attributeName="opacity" to="0" dur="7.300000000000001s" /><animate attributeName="stroke-dashoffset" from="150" to="0" dur="1.8s" begin="7.300000000000001s" fill="freeze" /></path><path d="M43.47,66.73c1.94,0.83,5.13,0.46,7.17,0.25C60.5,66,70.62,65,81.5,64.34c2.53-0.15,5.45-0.19,7.93,0.44" class="stroke" stroke-dasharray="150"><set attributeName="opacity" to="0" dur="8.3s" /><animate attributeName="stroke-dashoffset" from="150" to="0" dur="1.8s" begin="8.3s" fill="freeze" /></path><path d="M66.31,67.9c0.83,0.83,1.02,2.1,1.02,3.76c0,3.84-0.08,16.38-0.08,20.21c0,7.12-4.88,0.88-6.2-0.64" class="stroke" stroke-dasharray="150"><set attributeName="opacity" to="0" dur="9.5s" /><animate attributeName="stroke-dashoffset" from="150" to="0" dur="1.8s" begin="9.5s" fill="freeze" /></path><path d="M51.4,76.59c0.1,0.92-0.05,1.79-0.43,2.62c-1.96,3.29-4.9,7.11-9.9,12.19" class="stroke" stroke-dasharray="150"><set attributeName="opacity" to="0" dur="10.5s" /><animate attributeName="stroke-dashoffset" from="150" to="0" dur="1.8s" begin="10.5s" fill="freeze" /></path><path d="M80,75.75c3.86,2.74,10.16,10.95,11.12,15.21" class="stroke" stroke-dasharray="150"><set attributeName="opacity" to="0" dur="11.4s" /><animate attributeName="stroke-dashoffset" from="150" to="0" dur="1.8s" begin="11.4s" fill="freeze" /></path><text x="90" y="120" id="reset-kvg-0637a">⟳</text><text x="70" y="120" id="pause-kvg-0637a">◼</text><script type="text/javascript"><![CDATA[function RecurringTimer(e,t){var n,r,i=t;this.pause=function(){window.clearTimeout(n);i-=new Date-r};var s=function(){r=new Date;n=window.setTimeout(function(){i=t;s();e()},i)};this.clear=function(){window.clearTimeout(n);i=t;n=window.setTimeout(function(){i=t;s();e()},i)};this.resume=s;this.resume()}function invoketimer(){timer=new RecurringTimer(function(){svg.setCurrentTime(0)},13300.0)}var svg=document.getElementById("kvg-0637a");var pause=document.getElementById("pause-kvg-0637a");var reset=document.getElementById("reset-kvg-0637a");var timer;invoketimer();reset.onclick=function(){svg.setCurrentTime(0);timer.clear();svg.unpauseAnimations();pause.innerHTML = "◼";};pause.onclick=function(){if(svg.animationsPaused()){svg.unpauseAnimations();timer.resume();pause.innerHTML="◼"}else{svg.pauseAnimations();timer.pause();pause.innerHTML="▶"}}]]></script></svg>