<svg id="kvg-063a2-Kaisho" class="kanjivg" width="106" height="126" xmlns="http://www.w3.org/2000/svg" xmlns:xlink="http://www.w3.org/1999/xlink" xml:space="preserve" version="1.1" baseProfile="full"><defs><style type="text/css"><![CDATA[path.black{fill:none;stroke:black;stroke-width:5;stroke-linecap:round;stroke-linejoin:round;}path.grey{fill:none;stroke:#ddd;stroke-width:5;stroke-linecap:round;stroke-linejoin:round;}path.stroke{fill:none;stroke:black;stroke-width:5;stroke-linecap:round;stroke-linejoin:round;}rect{fill:none;stroke:#555;stroke-width:2;} text{font-size:16px;font-family:Segoe UI Symbol,Cambria Math,DejaVu Sans,Symbola,Quivira,STIX,Code2000;-webkit-touch-callout:none;cursor:pointer;-webkit-user-select:none;-khtml-user-select:none;-moz-user-select:none;-ms-user-select:none;user-select: none;}text:hover{color:#777;}#reset{font-weight:bold;}]]></style><marker id="markerStart" markerWidth="8" markerHeight="8" style="overflow:visible;"><circle cx="0" cy="0" r="1.5" style="stroke:none;fill:red;fill-opacity:0.5;"/></marker><marker id="markerEnd" style="overflow:visible;"><circle cx="0" cy="0" r="0.8" style="stroke:none;fill:blue;fill-opacity:0.5;"><animate attributeName="opacity" from="1" to="0" dur="3s" repeatCount="indefinite" /></circle></marker></defs><rect x="4" y="4" width="100" height="100" /><path d="M12,38.92c2.08,0.25,1.27,0.55,3.5,0.25c5.5-0.75,15.5-2.5,24.67-3.67" class="grey" /><path d="M27.77,15c0.48,0.92,1.76,2.49,1.76,5.52c0,15.23,0.24,53.96,0.24,65.4c0,14.25-6.32,3.53-7.77,2" class="grey" /><path d="M11,67.68c1.25,1.78,3.83,1.61,6.5-0.18c5-3.36,7.5-5.5,18.75-13.58" class="grey" /><path d="M46.89,20.01c0,2.72-2.38,10.22-3.46,12.04" class="grey" /><path d="M48.32,20.87c7.45-0.77,32.68-3.05,38.73-3.34c9.44-0.46,2,5.11-0.35,6.77" class="grey" /><path d="M57.14,26c0.03,0.43,0.07,1.1-0.07,1.72c-0.82,3.62-5.17,12.27-12.04,16.45" class="grey" /><path d="M70.6,23.87c0.41,0.46,0.73,0.99,0.75,1.7c0.11,3.14-0.29,6.19-0.29,8.32c0,4.98,4.86,4.42,9.64,4.42c5.04,0,8.37-0.64,9.07-1.01" class="grey" /><path d="M43.3,56.08c1.23,0.4,2.65,0.62,4.05,0.4c5.28-0.8,26.53-2.95,37.44-3.72c1.41-0.1,2.29-0.11,3.35,0.35" class="grey" /><path d="M64.49,42.25c0.88,0.35,1.58,2.06,1.58,2.79c0,7.4-0.18,47.08-0.18,46.46c0,11.5-5.65,2-6.65,1" class="grey" /><path d="M64.84,55.47c-4.4,9.33-16.2,23.6-25.36,28.88" class="grey" /><path d="M66.78,55.3c3.86,3.96,21.99,23.84,26.18,27.73c1.42,1.32,2.64,1.89,4.06,2.26" class="grey" /><path d="M12,38.92c2.08,0.25,1.27,0.55,3.5,0.25c5.5-0.75,15.5-2.5,24.67-3.67" class="stroke" stroke-dasharray="150"><animate attributeName="stroke-dashoffset" from="150" to="0" dur="1.8s" begin="0.0s" fill="freeze" /></path><path d="M27.77,15c0.48,0.92,1.76,2.49,1.76,5.52c0,15.23,0.24,53.96,0.24,65.4c0,14.25-6.32,3.53-7.77,2" class="stroke" stroke-dasharray="150"><set attributeName="opacity" to="0" dur="1.0s" /><animate attributeName="stroke-dashoffset" from="150" to="0" dur="1.8s" begin="1.0s" fill="freeze" /></path><path d="M11,67.68c1.25,1.78,3.83,1.61,6.5-0.18c5-3.36,7.5-5.5,18.75-13.58" class="stroke" stroke-dasharray="150"><set attributeName="opacity" to="0" dur="2.7s" /><animate attributeName="stroke-dashoffset" from="150" to="0" dur="1.8s" begin="2.7s" fill="freeze" /></path><path d="M46.89,20.01c0,2.72-2.38,10.22-3.46,12.04" class="stroke" stroke-dasharray="150"><set attributeName="opacity" to="0" dur="3.7s" /><animate attributeName="stroke-dashoffset" from="150" to="0" dur="1.8s" begin="3.7s" fill="freeze" /></path><path d="M48.32,20.87c7.45-0.77,32.68-3.05,38.73-3.34c9.44-0.46,2,5.11-0.35,6.77" class="stroke" stroke-dasharray="150"><set attributeName="opacity" to="0" dur="4.6000000000000005s" /><animate attributeName="stroke-dashoffset" from="150" to="0" dur="1.8s" begin="4.6000000000000005s" fill="freeze" /></path><path d="M57.14,26c0.03,0.43,0.07,1.1-0.07,1.72c-0.82,3.62-5.17,12.27-12.04,16.45" class="stroke" stroke-dasharray="150"><set attributeName="opacity" to="0" dur="5.9s" /><animate attributeName="stroke-dashoffset" from="150" to="0" dur="1.8s" begin="5.9s" fill="freeze" /></path><path d="M70.6,23.87c0.41,0.46,0.73,0.99,0.75,1.7c0.11,3.14-0.29,6.19-0.29,8.32c0,4.98,4.86,4.42,9.64,4.42c5.04,0,8.37-0.64,9.07-1.01" class="stroke" stroke-dasharray="150"><set attributeName="opacity" to="0" dur="6.9s" /><animate attributeName="stroke-dashoffset" from="150" to="0" dur="1.8s" begin="6.9s" fill="freeze" /></path><path d="M43.3,56.08c1.23,0.4,2.65,0.62,4.05,0.4c5.28-0.8,26.53-2.95,37.44-3.72c1.41-0.1,2.29-0.11,3.35,0.35" class="stroke" stroke-dasharray="150"><set attributeName="opacity" to="0" dur="7.9s" /><animate attributeName="stroke-dashoffset" from="150" to="0" dur="1.8s" begin="7.9s" fill="freeze" /></path><path d="M64.49,42.25c0.88,0.35,1.58,2.06,1.58,2.79c0,7.4-0.18,47.08-0.18,46.46c0,11.5-5.65,2-6.65,1" class="stroke" stroke-dasharray="150"><set attributeName="opacity" to="0" dur="9.1s" /><animate attributeName="stroke-dashoffset" from="150" to="0" dur="1.8s" begin="9.1s" fill="freeze" /></path><path d="M64.84,55.47c-4.4,9.33-16.2,23.6-25.36,28.88" class="stroke" stroke-dasharray="150"><set attributeName="opacity" to="0" dur="10.6s" /><animate attributeName="stroke-dashoffset" from="150" to="0" dur="1.8s" begin="10.6s" fill="freeze" /></path><path d="M66.78,55.3c3.86,3.96,21.99,23.84,26.18,27.73c1.42,1.32,2.64,1.89,4.06,2.26" class="stroke" stroke-dasharray="150"><set attributeName="opacity" to="0" dur="11.6s" /><animate attributeName="stroke-dashoffset" from="150" to="0" dur="1.8s" begin="11.6s" fill="freeze" /></path><text x="90" y="120" id="reset-kvg-063a2-Kaisho">⟳</text><text x="70" y="120" id="pause-kvg-063a2-Kaisho">◼</text><script type="text/javascript"><![CDATA[function RecurringTimer(e,t){var n,r,i=t;this.pause=function(){window.clearTimeout(n);i-=new Date-r};var s=function(){r=new Date;n=window.setTimeout(function(){i=t;s();e()},i)};this.clear=function(){window.clearTimeout(n);i=t;n=window.setTimeout(function(){i=t;s();e()},i)};this.resume=s;this.resume()}function invoketimer(){timer=new RecurringTimer(function(){svg.setCurrentTime(0)},13700.0)}var svg=document.getElementById("kvg-063a2-Kaisho");var pause=document.getElementById("pause-kvg-063a2-Kaisho");var reset=document.getElementById("reset-kvg-063a2-Kaisho");var timer;invoketimer();reset.onclick=function(){svg.setCurrentTime(0);timer.clear();svg.unpauseAnimations();pause.innerHTML = "◼";};pause.onclick=function(){if(svg.animationsPaused()){svg.unpauseAnimations();timer.resume();pause.innerHTML="◼"}else{svg.pauseAnimations();timer.pause();pause.innerHTML="▶"}}]]></script></svg>