<svg id="kvg-063da-Kaisho" class="kanjivg" width="106" height="126" xmlns="http://www.w3.org/2000/svg" xmlns:xlink="http://www.w3.org/1999/xlink" xml:space="preserve" version="1.1" baseProfile="full"><defs><style type="text/css"><![CDATA[path.black{fill:none;stroke:black;stroke-width:5;stroke-linecap:round;stroke-linejoin:round;}path.grey{fill:none;stroke:#ddd;stroke-width:5;stroke-linecap:round;stroke-linejoin:round;}path.stroke{fill:none;stroke:black;stroke-width:5;stroke-linecap:round;stroke-linejoin:round;}rect{fill:none;stroke:#555;stroke-width:2;} text{font-size:16px;font-family:Segoe UI Symbol,Cambria Math,DejaVu Sans,Symbola,Quivira,STIX,Code2000;-webkit-touch-callout:none;cursor:pointer;-webkit-user-select:none;-khtml-user-select:none;-moz-user-select:none;-ms-user-select:none;user-select: none;}text:hover{color:#777;}#reset{font-weight:bold;}]]></style><marker id="markerStart" markerWidth="8" markerHeight="8" style="overflow:visible;"><circle cx="0" cy="0" r="1.5" style="stroke:none;fill:red;fill-opacity:0.5;"/></marker><marker id="markerEnd" style="overflow:visible;"><circle cx="0" cy="0" r="0.8" style="stroke:none;fill:blue;fill-opacity:0.5;"><animate attributeName="opacity" from="1" to="0" dur="3s" repeatCount="indefinite" /></circle></marker></defs><rect x="4" y="4" width="100" height="100" /><path d="M14.25,36.17c2.08,0.25,1.27,0.55,3.5,0.25c4.72-0.64,12.75-2.02,20.72-3.14c1.32-0.19,2.64-0.36,3.95-0.53" class="grey" /><path d="M30.02,12.75c0.48,0.92,1.76,2.49,1.76,5.52c0,15.23,0.24,57.96,0.24,69.4c0,14.25-6.32,3.53-7.77,2" class="grey" /><path d="M12.25,60.93c1.25,1.78,3.83,1.61,6.5-0.18c5-3.36,7.5-5.5,18.75-13.58" class="grey" /><path d="M51.8,14.08c0.2,0.67,0.96,1.4,1.06,2.18c0.68,5.47,3.26,23.48,3.35,24.26" class="grey" /><path d="M53.54,15.53c5.35-0.77,21.76-2.84,28.62-3.36c1.19-0.09,1.91,2.11,1.86,2.71c-0.52,7.36-1.76,15.1-2.66,20.52c-0.14,0.87-0.57,3.04-0.57,3.63" class="grey" /><path d="M54.61,26.37c4.57,0,9.27-0.83,13.81-1.29c1.6-0.16,3.2-0.32,4.72-0.47" class="grey" /><path d="M56.04,38.22c4.32-0.58,18.91-1.81,24.29-2.3" class="grey" /><path d="M42.91,49.82c1.18,0.33,3.34,0.38,4.52,0.33c12.27-0.55,32.82-4.53,44.32-4.66c1.96-0.02,3.14,0.16,4.13,0.32" class="grey" /><path d="M54.65,52.65c0.04,0.48,0.09,1.25-0.09,1.94C53.54,58.68,45.59,67.75,39,71" class="grey" /><path d="M53.82,60.55c0.83,0.46,1.97,0.45,3.33,0.31c5.85-0.61,29.31-3.44,32.64-3.59c3.33-0.15,4,1.54,3.5,4.79c-0.5,3.25-6.51,23.66-13.84,32.47c-2.2,2.65-3.44-0.44-5.41-2.37" class="grey" /><path d="M62.18,62.35c0.05,0.43,0.14,1.13-0.1,1.73c-2.3,5.99-8.59,14.31-17.65,19.23" class="grey" /><path d="M75.88,61.14c0.08,0.87,0.17,2.24-0.17,3.48c-2,7.33-10.62,20.64-21.56,28.57" class="grey" /><path d="M14.25,36.17c2.08,0.25,1.27,0.55,3.5,0.25c4.72-0.64,12.75-2.02,20.72-3.14c1.32-0.19,2.64-0.36,3.95-0.53" class="stroke" stroke-dasharray="150"><animate attributeName="stroke-dashoffset" from="150" to="0" dur="1.8s" begin="0.0s" fill="freeze" /></path><path d="M30.02,12.75c0.48,0.92,1.76,2.49,1.76,5.52c0,15.23,0.24,57.96,0.24,69.4c0,14.25-6.32,3.53-7.77,2" class="stroke" stroke-dasharray="150"><set attributeName="opacity" to="0" dur="1.0s" /><animate attributeName="stroke-dashoffset" from="150" to="0" dur="1.8s" begin="1.0s" fill="freeze" /></path><path d="M12.25,60.93c1.25,1.78,3.83,1.61,6.5-0.18c5-3.36,7.5-5.5,18.75-13.58" class="stroke" stroke-dasharray="150"><set attributeName="opacity" to="0" dur="2.8s" /><animate attributeName="stroke-dashoffset" from="150" to="0" dur="1.8s" begin="2.8s" fill="freeze" /></path><path d="M51.8,14.08c0.2,0.67,0.96,1.4,1.06,2.18c0.68,5.47,3.26,23.48,3.35,24.26" class="stroke" stroke-dasharray="150"><set attributeName="opacity" to="0" dur="3.8s" /><animate attributeName="stroke-dashoffset" from="150" to="0" dur="1.8s" begin="3.8s" fill="freeze" /></path><path d="M53.54,15.53c5.35-0.77,21.76-2.84,28.62-3.36c1.19-0.09,1.91,2.11,1.86,2.71c-0.52,7.36-1.76,15.1-2.66,20.52c-0.14,0.87-0.57,3.04-0.57,3.63" class="stroke" stroke-dasharray="150"><set attributeName="opacity" to="0" dur="4.8s" /><animate attributeName="stroke-dashoffset" from="150" to="0" dur="1.8s" begin="4.8s" fill="freeze" /></path><path d="M54.61,26.37c4.57,0,9.27-0.83,13.81-1.29c1.6-0.16,3.2-0.32,4.72-0.47" class="stroke" stroke-dasharray="150"><set attributeName="opacity" to="0" dur="6.199999999999999s" /><animate attributeName="stroke-dashoffset" from="150" to="0" dur="1.8s" begin="6.199999999999999s" fill="freeze" /></path><path d="M56.04,38.22c4.32-0.58,18.91-1.81,24.29-2.3" class="stroke" stroke-dasharray="150"><set attributeName="opacity" to="0" dur="7.1s" /><animate attributeName="stroke-dashoffset" from="150" to="0" dur="1.8s" begin="7.1s" fill="freeze" /></path><path d="M42.91,49.82c1.18,0.33,3.34,0.38,4.52,0.33c12.27-0.55,32.82-4.53,44.32-4.66c1.96-0.02,3.14,0.16,4.13,0.32" class="stroke" stroke-dasharray="150"><set attributeName="opacity" to="0" dur="8.1s" /><animate attributeName="stroke-dashoffset" from="150" to="0" dur="1.8s" begin="8.1s" fill="freeze" /></path><path d="M54.65,52.65c0.04,0.48,0.09,1.25-0.09,1.94C53.54,58.68,45.59,67.75,39,71" class="stroke" stroke-dasharray="150"><set attributeName="opacity" to="0" dur="9.4s" /><animate attributeName="stroke-dashoffset" from="150" to="0" dur="1.8s" begin="9.4s" fill="freeze" /></path><path d="M53.82,60.55c0.83,0.46,1.97,0.45,3.33,0.31c5.85-0.61,29.31-3.44,32.64-3.59c3.33-0.15,4,1.54,3.5,4.79c-0.5,3.25-6.51,23.66-13.84,32.47c-2.2,2.65-3.44-0.44-5.41-2.37" class="stroke" stroke-dasharray="150"><set attributeName="opacity" to="0" dur="10.4s" /><animate attributeName="stroke-dashoffset" from="150" to="0" dur="1.8s" begin="10.4s" fill="freeze" /></path><path d="M62.18,62.35c0.05,0.43,0.14,1.13-0.1,1.73c-2.3,5.99-8.59,14.31-17.65,19.23" class="stroke" stroke-dasharray="150"><set attributeName="opacity" to="0" dur="12.1s" /><animate attributeName="stroke-dashoffset" from="150" to="0" dur="1.8s" begin="12.1s" fill="freeze" /></path><path d="M75.88,61.14c0.08,0.87,0.17,2.24-0.17,3.48c-2,7.33-10.62,20.64-21.56,28.57" class="stroke" stroke-dasharray="150"><set attributeName="opacity" to="0" dur="13.1s" /><animate attributeName="stroke-dashoffset" from="150" to="0" dur="1.8s" begin="13.1s" fill="freeze" /></path><text x="90" y="120" id="reset-kvg-063da-Kaisho">⟳</text><text x="70" y="120" id="pause-kvg-063da-Kaisho">◼</text><script type="text/javascript"><![CDATA[function RecurringTimer(e,t){var n,r,i=t;this.pause=function(){window.clearTimeout(n);i-=new Date-r};var s=function(){r=new Date;n=window.setTimeout(function(){i=t;s();e()},i)};this.clear=function(){window.clearTimeout(n);i=t;n=window.setTimeout(function(){i=t;s();e()},i)};this.resume=s;this.resume()}function invoketimer(){timer=new RecurringTimer(function(){svg.setCurrentTime(0)},15100.0)}var svg=document.getElementById("kvg-063da-Kaisho");var pause=document.getElementById("pause-kvg-063da-Kaisho");var reset=document.getElementById("reset-kvg-063da-Kaisho");var timer;invoketimer();reset.onclick=function(){svg.setCurrentTime(0);timer.clear();svg.unpauseAnimations();pause.innerHTML = "◼";};pause.onclick=function(){if(svg.animationsPaused()){svg.unpauseAnimations();timer.resume();pause.innerHTML="◼"}else{svg.pauseAnimations();timer.pause();pause.innerHTML="▶"}}]]></script></svg>