<svg id="kvg-063fa" class="kanjivg" width="106" height="126" xmlns="http://www.w3.org/2000/svg" xmlns:xlink="http://www.w3.org/1999/xlink" xml:space="preserve" version="1.1" baseProfile="full"><defs><style type="text/css"><![CDATA[path.black{fill:none;stroke:black;stroke-width:5;stroke-linecap:round;stroke-linejoin:round;}path.grey{fill:none;stroke:#ddd;stroke-width:5;stroke-linecap:round;stroke-linejoin:round;}path.stroke{fill:none;stroke:black;stroke-width:5;stroke-linecap:round;stroke-linejoin:round;}rect{fill:none;stroke:#555;stroke-width:2;} text{font-size:16px;font-family:Segoe UI Symbol,Cambria Math,DejaVu Sans,Symbola,Quivira,STIX,Code2000;-webkit-touch-callout:none;cursor:pointer;-webkit-user-select:none;-khtml-user-select:none;-moz-user-select:none;-ms-user-select:none;user-select: none;}text:hover{color:#777;}#reset{font-weight:bold;}]]></style><marker id="markerStart" markerWidth="8" markerHeight="8" style="overflow:visible;"><circle cx="0" cy="0" r="1.5" style="stroke:none;fill:red;fill-opacity:0.5;"/></marker><marker id="markerEnd" style="overflow:visible;"><circle cx="0" cy="0" r="0.8" style="stroke:none;fill:blue;fill-opacity:0.5;"><animate attributeName="opacity" from="1" to="0" dur="3s" repeatCount="indefinite" /></circle></marker></defs><rect x="4" y="4" width="100" height="100" /><path d="M11.75,38.17c2.04,0.25,3.93,0.47,6.02,0.08c5.17-0.98,13.46-2.77,20.62-4.02c1.59-0.28,3.18-0.52,4.78-0.73" class="grey" /><path d="M28.02,14.25c0.99,0.99,1.51,2.75,1.51,4.77c0,15.23,0.24,55.71,0.24,67.15c0,14.25-6.32,3.53-7.77,2" class="grey" /><path d="M11,66.68c1.5,1.07,2.9,0.7,4.84-0.63C21.75,62,27.75,57.75,39,49.67" class="grey" /><path d="M83.47,13.14c-0.22,0.98-0.73,1.74-1.57,2.28c-5.03,3.21-14.66,7.46-31.27,11.84" class="grey" /><path d="M50.02,33.49c2.12,2.07,5.48,8.51,6.02,11.73" class="grey" /><path d="M64.37,29.99c2.06,2.06,5.33,8.49,5.84,11.7" class="grey" /><path d="M91.27,25.71c0.07,0.81,0.02,1.39-0.31,2.14c-1.66,3.8-4.75,8.81-10.15,14.24" class="grey" /><path d="M50,52.88c2.12,0.87,5.18,0.73,7.39,0.49c8.05-0.88,17.26-2.1,24.73-3.14c2.12-0.29,4.63-0.73,6.66-0.38" class="grey" /><path d="M43.15,68.02c2.55,0.91,5.75,0.32,8.36,0.04C63.62,66.75,76.75,65,89,64.22c2.61-0.17,5.27-0.28,7.85,0.27" class="grey" /><path d="M68.73,55.07c0.85,0.85,1.17,1.92,1.17,3.24c0,4.66,0.08,24.32,0.08,30.35" class="grey" /><path d="M50.79,77.54c0.77,0.77,0.68,1.91,0.56,2.54c-0.61,3.42-0.61,5.67-1.5,9.76c-0.52,2.37,0.28,2.75,2.4,2.34c10.62-2.05,23.87-3.43,36.73-4.12" class="grey" /><path d="M89.98,75.24c0.76,0.76,1.14,1.76,1.07,3.24c-0.13,2.52-0.47,6.68-0.68,10.27c-0.15,2.5-0.26,4.61-0.26,5.38" class="grey" /><path d="M11.75,38.17c2.04,0.25,3.93,0.47,6.02,0.08c5.17-0.98,13.46-2.77,20.62-4.02c1.59-0.28,3.18-0.52,4.78-0.73" class="stroke" stroke-dasharray="150"><animate attributeName="stroke-dashoffset" from="150" to="0" dur="1.8s" begin="0.0s" fill="freeze" /></path><path d="M28.02,14.25c0.99,0.99,1.51,2.75,1.51,4.77c0,15.23,0.24,55.71,0.24,67.15c0,14.25-6.32,3.53-7.77,2" class="stroke" stroke-dasharray="150"><set attributeName="opacity" to="0" dur="1.0s" /><animate attributeName="stroke-dashoffset" from="150" to="0" dur="1.8s" begin="1.0s" fill="freeze" /></path><path d="M11,66.68c1.5,1.07,2.9,0.7,4.84-0.63C21.75,62,27.75,57.75,39,49.67" class="stroke" stroke-dasharray="150"><set attributeName="opacity" to="0" dur="2.7s" /><animate attributeName="stroke-dashoffset" from="150" to="0" dur="1.8s" begin="2.7s" fill="freeze" /></path><path d="M83.47,13.14c-0.22,0.98-0.73,1.74-1.57,2.28c-5.03,3.21-14.66,7.46-31.27,11.84" class="stroke" stroke-dasharray="150"><set attributeName="opacity" to="0" dur="3.7s" /><animate attributeName="stroke-dashoffset" from="150" to="0" dur="1.8s" begin="3.7s" fill="freeze" /></path><path d="M50.02,33.49c2.12,2.07,5.48,8.51,6.02,11.73" class="stroke" stroke-dasharray="150"><set attributeName="opacity" to="0" dur="4.7s" /><animate attributeName="stroke-dashoffset" from="150" to="0" dur="1.8s" begin="4.7s" fill="freeze" /></path><path d="M64.37,29.99c2.06,2.06,5.33,8.49,5.84,11.7" class="stroke" stroke-dasharray="150"><set attributeName="opacity" to="0" dur="5.6000000000000005s" /><animate attributeName="stroke-dashoffset" from="150" to="0" dur="1.8s" begin="5.6000000000000005s" fill="freeze" /></path><path d="M91.27,25.71c0.07,0.81,0.02,1.39-0.31,2.14c-1.66,3.8-4.75,8.81-10.15,14.24" class="stroke" stroke-dasharray="150"><set attributeName="opacity" to="0" dur="6.500000000000001s" /><animate attributeName="stroke-dashoffset" from="150" to="0" dur="1.8s" begin="6.500000000000001s" fill="freeze" /></path><path d="M50,52.88c2.12,0.87,5.18,0.73,7.39,0.49c8.05-0.88,17.26-2.1,24.73-3.14c2.12-0.29,4.63-0.73,6.66-0.38" class="stroke" stroke-dasharray="150"><set attributeName="opacity" to="0" dur="7.400000000000001s" /><animate attributeName="stroke-dashoffset" from="150" to="0" dur="1.8s" begin="7.400000000000001s" fill="freeze" /></path><path d="M43.15,68.02c2.55,0.91,5.75,0.32,8.36,0.04C63.62,66.75,76.75,65,89,64.22c2.61-0.17,5.27-0.28,7.85,0.27" class="stroke" stroke-dasharray="150"><set attributeName="opacity" to="0" dur="8.400000000000002s" /><animate attributeName="stroke-dashoffset" from="150" to="0" dur="1.8s" begin="8.400000000000002s" fill="freeze" /></path><path d="M68.73,55.07c0.85,0.85,1.17,1.92,1.17,3.24c0,4.66,0.08,24.32,0.08,30.35" class="stroke" stroke-dasharray="150"><set attributeName="opacity" to="0" dur="9.700000000000003s" /><animate attributeName="stroke-dashoffset" from="150" to="0" dur="1.8s" begin="9.700000000000003s" fill="freeze" /></path><path d="M50.79,77.54c0.77,0.77,0.68,1.91,0.56,2.54c-0.61,3.42-0.61,5.67-1.5,9.76c-0.52,2.37,0.28,2.75,2.4,2.34c10.62-2.05,23.87-3.43,36.73-4.12" class="stroke" stroke-dasharray="150"><set attributeName="opacity" to="0" dur="10.700000000000003s" /><animate attributeName="stroke-dashoffset" from="150" to="0" dur="1.8s" begin="10.700000000000003s" fill="freeze" /></path><path d="M89.98,75.24c0.76,0.76,1.14,1.76,1.07,3.24c-0.13,2.52-0.47,6.68-0.68,10.27c-0.15,2.5-0.26,4.61-0.26,5.38" class="stroke" stroke-dasharray="150"><set attributeName="opacity" to="0" dur="12.000000000000004s" /><animate attributeName="stroke-dashoffset" from="150" to="0" dur="1.8s" begin="12.000000000000004s" fill="freeze" /></path><text x="90" y="120" id="reset-kvg-063fa">⟳</text><text x="70" y="120" id="pause-kvg-063fa">◼</text><script type="text/javascript"><![CDATA[function RecurringTimer(e,t){var n,r,i=t;this.pause=function(){window.clearTimeout(n);i-=new Date-r};var s=function(){r=new Date;n=window.setTimeout(function(){i=t;s();e()},i)};this.clear=function(){window.clearTimeout(n);i=t;n=window.setTimeout(function(){i=t;s();e()},i)};this.resume=s;this.resume()}function invoketimer(){timer=new RecurringTimer(function(){svg.setCurrentTime(0)},13900.000000000004)}var svg=document.getElementById("kvg-063fa");var pause=document.getElementById("pause-kvg-063fa");var reset=document.getElementById("reset-kvg-063fa");var timer;invoketimer();reset.onclick=function(){svg.setCurrentTime(0);timer.clear();svg.unpauseAnimations();pause.innerHTML = "◼";};pause.onclick=function(){if(svg.animationsPaused()){svg.unpauseAnimations();timer.resume();pause.innerHTML="◼"}else{svg.pauseAnimations();timer.pause();pause.innerHTML="▶"}}]]></script></svg>