<svg id="kvg-064cd-Kaisho" class="kanjivg" width="106" height="126" xmlns="http://www.w3.org/2000/svg" xmlns:xlink="http://www.w3.org/1999/xlink" xml:space="preserve" version="1.1" baseProfile="full"><defs><style type="text/css"><![CDATA[path.black{fill:none;stroke:black;stroke-width:5;stroke-linecap:round;stroke-linejoin:round;}path.grey{fill:none;stroke:#ddd;stroke-width:5;stroke-linecap:round;stroke-linejoin:round;}path.stroke{fill:none;stroke:black;stroke-width:5;stroke-linecap:round;stroke-linejoin:round;}rect{fill:none;stroke:#555;stroke-width:2;} text{font-size:16px;font-family:Segoe UI Symbol,Cambria Math,DejaVu Sans,Symbola,Quivira,STIX,Code2000;-webkit-touch-callout:none;cursor:pointer;-webkit-user-select:none;-khtml-user-select:none;-moz-user-select:none;-ms-user-select:none;user-select: none;}text:hover{color:#777;}#reset{font-weight:bold;}]]></style><marker id="markerStart" markerWidth="8" markerHeight="8" style="overflow:visible;"><circle cx="0" cy="0" r="1.5" style="stroke:none;fill:red;fill-opacity:0.5;"/></marker><marker id="markerEnd" style="overflow:visible;"><circle cx="0" cy="0" r="0.8" style="stroke:none;fill:blue;fill-opacity:0.5;"><animate attributeName="opacity" from="1" to="0" dur="3s" repeatCount="indefinite" /></circle></marker></defs><rect x="4" y="4" width="100" height="100" /><path d="M12.5,40.92c2.08,0.25,1.27,0.55,3.5,0.25c5.5-0.75,14.5-3,23.67-4.17" class="grey" /><path d="M28.27,15.5c0.48,0.92,1.76,2.49,1.76,5.52c0,15.23,0.24,54.46,0.24,65.9c0,14.25-6.32,3.53-7.77,2" class="grey" /><path d="M10,69.18c1.25,1.78,3.83,1.61,6.5-0.18c5-3.36,10-7.42,21.25-15.5" class="grey" /><path d="M51.52,15.35c0.4,0.3,0.82,0.55,1,0.93c1.4,2.98,2.96,12.36,3.92,17.72" class="grey" /><path d="M53.11,16.8c8.89-1.55,19.26-2.92,23.99-3.31c1.73-0.14,2.77,1.14,2.52,1.98c-1.02,3.49-1.91,8.2-3.44,13.02" class="grey" /><path d="M56.75,31.02c5.56-0.44,13.73-1.42,21.36-2.1" class="grey" /><path d="M44.5,40.93c0.27,0.28,0.55,0.51,0.67,0.85c0.94,2.74,2.27,10.8,2.92,15.72" class="grey" /><path d="M46.68,42.23c6.84-1,11.41-1.94,14.57-2.29c1.16-0.13,1.85,0.78,1.69,1.55c-0.69,3.2-1.49,7.33-2.51,11.76" class="grey" /><path d="M48.21,55.12c3.72-0.41,7.31-0.88,14.24-1.47" class="grey" /><path d="M70.03,38.04c0.29,0.29,0.58,0.53,0.71,0.89c1,2.86,2.51,9.43,3.19,14.57" class="grey" /><path d="M71.82,39.15c7.27-1.05,13.86-1.82,17.22-2.2c1.23-0.14,1.97,0.81,1.79,1.62c-0.73,3.34-1.58,7.25-2.66,11.87" class="grey" /><path d="M74.37,52.35c5.5-0.37,7.37-1,15.94-1.49" class="grey" /><path d="M42.72,66.73c1.37,0.31,2.95,0.48,4.52,0.31c5.89-0.62,31.31-3.78,43.49-4.38c1.57-0.08,2.55-0.08,3.73,0.27" class="grey" /><path d="M67.39,57.34c0.68,0.39,1.23,1.73,1.23,2.53c0,8.18-0.14,33.73-0.14,32.13c0,11.25-5.1,3.12-6.23,2" class="grey" /><path d="M66.66,65.26c-4.45,8.43-16.37,21.32-25.62,26.09" class="grey" /><path d="M69.66,65.12c3.64,3.22,20.76,19.4,24.72,22.57c1.34,1.08,2.49,1.54,3.83,1.84" class="grey" /><path d="M12.5,40.92c2.08,0.25,1.27,0.55,3.5,0.25c5.5-0.75,14.5-3,23.67-4.17" class="stroke" stroke-dasharray="150"><animate attributeName="stroke-dashoffset" from="150" to="0" dur="1.8s" begin="0.0s" fill="freeze" /></path><path d="M28.27,15.5c0.48,0.92,1.76,2.49,1.76,5.52c0,15.23,0.24,54.46,0.24,65.9c0,14.25-6.32,3.53-7.77,2" class="stroke" stroke-dasharray="150"><set attributeName="opacity" to="0" dur="1.0s" /><animate attributeName="stroke-dashoffset" from="150" to="0" dur="1.8s" begin="1.0s" fill="freeze" /></path><path d="M10,69.18c1.25,1.78,3.83,1.61,6.5-0.18c5-3.36,10-7.42,21.25-15.5" class="stroke" stroke-dasharray="150"><set attributeName="opacity" to="0" dur="2.7s" /><animate attributeName="stroke-dashoffset" from="150" to="0" dur="1.8s" begin="2.7s" fill="freeze" /></path><path d="M51.52,15.35c0.4,0.3,0.82,0.55,1,0.93c1.4,2.98,2.96,12.36,3.92,17.72" class="stroke" stroke-dasharray="150"><set attributeName="opacity" to="0" dur="3.7s" /><animate attributeName="stroke-dashoffset" from="150" to="0" dur="1.8s" begin="3.7s" fill="freeze" /></path><path d="M53.11,16.8c8.89-1.55,19.26-2.92,23.99-3.31c1.73-0.14,2.77,1.14,2.52,1.98c-1.02,3.49-1.91,8.2-3.44,13.02" class="stroke" stroke-dasharray="150"><set attributeName="opacity" to="0" dur="4.6000000000000005s" /><animate attributeName="stroke-dashoffset" from="150" to="0" dur="1.8s" begin="4.6000000000000005s" fill="freeze" /></path><path d="M56.75,31.02c5.56-0.44,13.73-1.42,21.36-2.1" class="stroke" stroke-dasharray="150"><set attributeName="opacity" to="0" dur="5.700000000000001s" /><animate attributeName="stroke-dashoffset" from="150" to="0" dur="1.8s" begin="5.700000000000001s" fill="freeze" /></path><path d="M44.5,40.93c0.27,0.28,0.55,0.51,0.67,0.85c0.94,2.74,2.27,10.8,2.92,15.72" class="stroke" stroke-dasharray="150"><set attributeName="opacity" to="0" dur="6.700000000000001s" /><animate attributeName="stroke-dashoffset" from="150" to="0" dur="1.8s" begin="6.700000000000001s" fill="freeze" /></path><path d="M46.68,42.23c6.84-1,11.41-1.94,14.57-2.29c1.16-0.13,1.85,0.78,1.69,1.55c-0.69,3.2-1.49,7.33-2.51,11.76" class="stroke" stroke-dasharray="150"><set attributeName="opacity" to="0" dur="7.600000000000001s" /><animate attributeName="stroke-dashoffset" from="150" to="0" dur="1.8s" begin="7.600000000000001s" fill="freeze" /></path><path d="M48.21,55.12c3.72-0.41,7.31-0.88,14.24-1.47" class="stroke" stroke-dasharray="150"><set attributeName="opacity" to="0" dur="8.600000000000001s" /><animate attributeName="stroke-dashoffset" from="150" to="0" dur="1.8s" begin="8.600000000000001s" fill="freeze" /></path><path d="M70.03,38.04c0.29,0.29,0.58,0.53,0.71,0.89c1,2.86,2.51,9.43,3.19,14.57" class="stroke" stroke-dasharray="150"><set attributeName="opacity" to="0" dur="9.500000000000002s" /><animate attributeName="stroke-dashoffset" from="150" to="0" dur="1.8s" begin="9.500000000000002s" fill="freeze" /></path><path d="M71.82,39.15c7.27-1.05,13.86-1.82,17.22-2.2c1.23-0.14,1.97,0.81,1.79,1.62c-0.73,3.34-1.58,7.25-2.66,11.87" class="stroke" stroke-dasharray="150"><set attributeName="opacity" to="0" dur="10.400000000000002s" /><animate attributeName="stroke-dashoffset" from="150" to="0" dur="1.8s" begin="10.400000000000002s" fill="freeze" /></path><path d="M74.37,52.35c5.5-0.37,7.37-1,15.94-1.49" class="stroke" stroke-dasharray="150"><set attributeName="opacity" to="0" dur="11.400000000000002s" /><animate attributeName="stroke-dashoffset" from="150" to="0" dur="1.8s" begin="11.400000000000002s" fill="freeze" /></path><path d="M42.72,66.73c1.37,0.31,2.95,0.48,4.52,0.31c5.89-0.62,31.31-3.78,43.49-4.38c1.57-0.08,2.55-0.08,3.73,0.27" class="stroke" stroke-dasharray="150"><set attributeName="opacity" to="0" dur="12.300000000000002s" /><animate attributeName="stroke-dashoffset" from="150" to="0" dur="1.8s" begin="12.300000000000002s" fill="freeze" /></path><path d="M67.39,57.34c0.68,0.39,1.23,1.73,1.23,2.53c0,8.18-0.14,33.73-0.14,32.13c0,11.25-5.1,3.12-6.23,2" class="stroke" stroke-dasharray="150"><set attributeName="opacity" to="0" dur="13.600000000000003s" /><animate attributeName="stroke-dashoffset" from="150" to="0" dur="1.8s" begin="13.600000000000003s" fill="freeze" /></path><path d="M66.66,65.26c-4.45,8.43-16.37,21.32-25.62,26.09" class="stroke" stroke-dasharray="150"><set attributeName="opacity" to="0" dur="14.800000000000002s" /><animate attributeName="stroke-dashoffset" from="150" to="0" dur="1.8s" begin="14.800000000000002s" fill="freeze" /></path><path d="M69.66,65.12c3.64,3.22,20.76,19.4,24.72,22.57c1.34,1.08,2.49,1.54,3.83,1.84" class="stroke" stroke-dasharray="150"><set attributeName="opacity" to="0" dur="15.800000000000002s" /><animate attributeName="stroke-dashoffset" from="150" to="0" dur="1.8s" begin="15.800000000000002s" fill="freeze" /></path><text x="90" y="120" id="reset-kvg-064cd-Kaisho">⟳</text><text x="70" y="120" id="pause-kvg-064cd-Kaisho">◼</text><script type="text/javascript"><![CDATA[function RecurringTimer(e,t){var n,r,i=t;this.pause=function(){window.clearTimeout(n);i-=new Date-r};var s=function(){r=new Date;n=window.setTimeout(function(){i=t;s();e()},i)};this.clear=function(){window.clearTimeout(n);i=t;n=window.setTimeout(function(){i=t;s();e()},i)};this.resume=s;this.resume()}function invoketimer(){timer=new RecurringTimer(function(){svg.setCurrentTime(0)},17800.000000000004)}var svg=document.getElementById("kvg-064cd-Kaisho");var pause=document.getElementById("pause-kvg-064cd-Kaisho");var reset=document.getElementById("reset-kvg-064cd-Kaisho");var timer;invoketimer();reset.onclick=function(){svg.setCurrentTime(0);timer.clear();svg.unpauseAnimations();pause.innerHTML = "◼";};pause.onclick=function(){if(svg.animationsPaused()){svg.unpauseAnimations();timer.resume();pause.innerHTML="◼"}else{svg.pauseAnimations();timer.pause();pause.innerHTML="▶"}}]]></script></svg>