<svg id="kvg-0655e" class="kanjivg" width="106" height="126" xmlns="http://www.w3.org/2000/svg" xmlns:xlink="http://www.w3.org/1999/xlink" xml:space="preserve" version="1.1" baseProfile="full"><defs><style type="text/css"><![CDATA[path.black{fill:none;stroke:black;stroke-width:5;stroke-linecap:round;stroke-linejoin:round;}path.grey{fill:none;stroke:#ddd;stroke-width:5;stroke-linecap:round;stroke-linejoin:round;}path.stroke{fill:none;stroke:black;stroke-width:5;stroke-linecap:round;stroke-linejoin:round;}rect{fill:none;stroke:#555;stroke-width:2;} text{font-size:16px;font-family:Segoe UI Symbol,Cambria Math,DejaVu Sans,Symbola,Quivira,STIX,Code2000;-webkit-touch-callout:none;cursor:pointer;-webkit-user-select:none;-khtml-user-select:none;-moz-user-select:none;-ms-user-select:none;user-select: none;}text:hover{color:#777;}#reset{font-weight:bold;}]]></style><marker id="markerStart" markerWidth="8" markerHeight="8" style="overflow:visible;"><circle cx="0" cy="0" r="1.5" style="stroke:none;fill:red;fill-opacity:0.5;"/></marker><marker id="markerEnd" style="overflow:visible;"><circle cx="0" cy="0" r="0.8" style="stroke:none;fill:blue;fill-opacity:0.5;"><animate attributeName="opacity" from="1" to="0" dur="3s" repeatCount="indefinite" /></circle></marker></defs><rect x="4" y="4" width="100" height="100" /><path d="M32.25,13.87c0.13,0.39,2.47,2.01,2.47,4.47c0,11.16-0.12,22.26-0.12,26.28" class="grey" /><path d="M24.87,24c0.04,0.39,0.07,1-0.07,1.56c-0.85,3.29-5.72,10.5-12.39,14.91" class="grey" /><path d="M43.08,23.83c3.82,2.05,9.86,8.44,10.82,11.63" class="grey" /><path d="M16.75,45.25c0.62,0.75,1.1,2.51,1.15,3.9C18.12,55.25,17.5,84,17.62,93" class="grey" /><path d="M18.12,47.19C29,45.75,40.6,44.19,48.88,43.06c1.78-0.24,3.12,1.69,3.08,3.94c-0.13,8,0.04,27.75-0.1,41c-0.08,7.07-4,5.75-6,1.25" class="grey" /><path d="M25.64,58.38c0.15,0.21,0.33,0.38,0.38,0.66c0.44,2.45,2.33,16.61,2.77,20.21" class="grey" /><path d="M26.6,59.82c2.83-0.52,11.87-2.71,14.5-2.96c1.14-0.11,2.53,1.19,2.14,2.64c-0.74,2.75-1.84,8.25-2.89,17.31" class="grey" /><path d="M29.11,78.46c3.67-0.71,9.55-1.36,12.46-1.85" class="grey" /><path d="M71.36,14.14c0.03,0.81,0.21,2.15-0.07,3.26c-1.78,7.17-6.62,23.42-12.79,33.34" class="grey" /><path d="M67.72,38.17c0.03-0.17,1.71,0.5,2.31,0.46c6.28-0.52,12.02-3.38,21.6-4.22c1.08-0.09,1.74-0.02,2.02,0.08" class="grey" /><path d="M84.89,40.43c0.46,1.38,0.72,2.37,0.23,4.9c-4.42,22.95-14.47,43.46-29,51.43" class="grey" /><path d="M62.75,53.26c3-0.01,21.49,31.92,30.67,39.61c1.77,1.48,2.89,1.73,4.34,1.88" class="grey" /><path d="M32.25,13.87c0.13,0.39,2.47,2.01,2.47,4.47c0,11.16-0.12,22.26-0.12,26.28" class="stroke" stroke-dasharray="150"><animate attributeName="stroke-dashoffset" from="150" to="0" dur="1.8s" begin="0.0s" fill="freeze" /></path><path d="M24.87,24c0.04,0.39,0.07,1-0.07,1.56c-0.85,3.29-5.72,10.5-12.39,14.91" class="stroke" stroke-dasharray="150"><set attributeName="opacity" to="0" dur="1.0s" /><animate attributeName="stroke-dashoffset" from="150" to="0" dur="1.8s" begin="1.0s" fill="freeze" /></path><path d="M43.08,23.83c3.82,2.05,9.86,8.44,10.82,11.63" class="stroke" stroke-dasharray="150"><set attributeName="opacity" to="0" dur="2.0s" /><animate attributeName="stroke-dashoffset" from="150" to="0" dur="1.8s" begin="2.0s" fill="freeze" /></path><path d="M16.75,45.25c0.62,0.75,1.1,2.51,1.15,3.9C18.12,55.25,17.5,84,17.62,93" class="stroke" stroke-dasharray="150"><set attributeName="opacity" to="0" dur="2.9s" /><animate attributeName="stroke-dashoffset" from="150" to="0" dur="1.8s" begin="2.9s" fill="freeze" /></path><path d="M18.12,47.19C29,45.75,40.6,44.19,48.88,43.06c1.78-0.24,3.12,1.69,3.08,3.94c-0.13,8,0.04,27.75-0.1,41c-0.08,7.07-4,5.75-6,1.25" class="stroke" stroke-dasharray="150"><set attributeName="opacity" to="0" dur="4.1s" /><animate attributeName="stroke-dashoffset" from="150" to="0" dur="1.8s" begin="4.1s" fill="freeze" /></path><path d="M25.64,58.38c0.15,0.21,0.33,0.38,0.38,0.66c0.44,2.45,2.33,16.61,2.77,20.21" class="stroke" stroke-dasharray="150"><set attributeName="opacity" to="0" dur="5.8s" /><animate attributeName="stroke-dashoffset" from="150" to="0" dur="1.8s" begin="5.8s" fill="freeze" /></path><path d="M26.6,59.82c2.83-0.52,11.87-2.71,14.5-2.96c1.14-0.11,2.53,1.19,2.14,2.64c-0.74,2.75-1.84,8.25-2.89,17.31" class="stroke" stroke-dasharray="150"><set attributeName="opacity" to="0" dur="6.8s" /><animate attributeName="stroke-dashoffset" from="150" to="0" dur="1.8s" begin="6.8s" fill="freeze" /></path><path d="M29.11,78.46c3.67-0.71,9.55-1.36,12.46-1.85" class="stroke" stroke-dasharray="150"><set attributeName="opacity" to="0" dur="7.8s" /><animate attributeName="stroke-dashoffset" from="150" to="0" dur="1.8s" begin="7.8s" fill="freeze" /></path><path d="M71.36,14.14c0.03,0.81,0.21,2.15-0.07,3.26c-1.78,7.17-6.62,23.42-12.79,33.34" class="stroke" stroke-dasharray="150"><set attributeName="opacity" to="0" dur="8.7s" /><animate attributeName="stroke-dashoffset" from="150" to="0" dur="1.8s" begin="8.7s" fill="freeze" /></path><path d="M67.72,38.17c0.03-0.17,1.71,0.5,2.31,0.46c6.28-0.52,12.02-3.38,21.6-4.22c1.08-0.09,1.74-0.02,2.02,0.08" class="stroke" stroke-dasharray="150"><set attributeName="opacity" to="0" dur="9.7s" /><animate attributeName="stroke-dashoffset" from="150" to="0" dur="1.8s" begin="9.7s" fill="freeze" /></path><path d="M84.89,40.43c0.46,1.38,0.72,2.37,0.23,4.9c-4.42,22.95-14.47,43.46-29,51.43" class="stroke" stroke-dasharray="150"><set attributeName="opacity" to="0" dur="10.7s" /><animate attributeName="stroke-dashoffset" from="150" to="0" dur="1.8s" begin="10.7s" fill="freeze" /></path><path d="M62.75,53.26c3-0.01,21.49,31.92,30.67,39.61c1.77,1.48,2.89,1.73,4.34,1.88" class="stroke" stroke-dasharray="150"><set attributeName="opacity" to="0" dur="12.2s" /><animate attributeName="stroke-dashoffset" from="150" to="0" dur="1.8s" begin="12.2s" fill="freeze" /></path><text x="90" y="120" id="reset-kvg-0655e">⟳</text><text x="70" y="120" id="pause-kvg-0655e">◼</text><script type="text/javascript"><![CDATA[function RecurringTimer(e,t){var n,r,i=t;this.pause=function(){window.clearTimeout(n);i-=new Date-r};var s=function(){r=new Date;n=window.setTimeout(function(){i=t;s();e()},i)};this.clear=function(){window.clearTimeout(n);i=t;n=window.setTimeout(function(){i=t;s();e()},i)};this.resume=s;this.resume()}function invoketimer(){timer=new RecurringTimer(function(){svg.setCurrentTime(0)},14600.0)}var svg=document.getElementById("kvg-0655e");var pause=document.getElementById("pause-kvg-0655e");var reset=document.getElementById("reset-kvg-0655e");var timer;invoketimer();reset.onclick=function(){svg.setCurrentTime(0);timer.clear();svg.unpauseAnimations();pause.innerHTML = "◼";};pause.onclick=function(){if(svg.animationsPaused()){svg.unpauseAnimations();timer.resume();pause.innerHTML="◼"}else{svg.pauseAnimations();timer.pause();pause.innerHTML="▶"}}]]></script></svg>