<svg id="kvg-06566-Kaisho" class="kanjivg" width="106" height="126" xmlns="http://www.w3.org/2000/svg" xmlns:xlink="http://www.w3.org/1999/xlink" xml:space="preserve" version="1.1" baseProfile="full"><defs><style type="text/css"><![CDATA[path.black{fill:none;stroke:black;stroke-width:5;stroke-linecap:round;stroke-linejoin:round;}path.grey{fill:none;stroke:#ddd;stroke-width:5;stroke-linecap:round;stroke-linejoin:round;}path.stroke{fill:none;stroke:black;stroke-width:5;stroke-linecap:round;stroke-linejoin:round;}rect{fill:none;stroke:#555;stroke-width:2;} text{font-size:16px;font-family:Segoe UI Symbol,Cambria Math,DejaVu Sans,Symbola,Quivira,STIX,Code2000;-webkit-touch-callout:none;cursor:pointer;-webkit-user-select:none;-khtml-user-select:none;-moz-user-select:none;-ms-user-select:none;user-select: none;}text:hover{color:#777;}#reset{font-weight:bold;}]]></style><marker id="markerStart" markerWidth="8" markerHeight="8" style="overflow:visible;"><circle cx="0" cy="0" r="1.5" style="stroke:none;fill:red;fill-opacity:0.5;"/></marker><marker id="markerEnd" style="overflow:visible;"><circle cx="0" cy="0" r="0.8" style="stroke:none;fill:blue;fill-opacity:0.5;"><animate attributeName="opacity" from="1" to="0" dur="3s" repeatCount="indefinite" /></circle></marker></defs><rect x="4" y="4" width="100" height="100" /><path d="M30.31,10.75c1.93,1.04,4.53,4.14,5.09,6.12" class="grey" /><path d="M13.05,25.17c0.79,0.06,2.6,0.38,3.36,0.31c6.21-0.64,25.75-3.5,34.6-3.94c1.3-0.06,1.97,0.03,2.94,0.39" class="grey" /><path d="M20.09,33.43c0.29,0.24,0.58,0.44,0.7,0.75c0.99,2.4,2.52,8.72,3.2,13.03" class="grey" /><path d="M21.87,34.26c7-1.01,20.36-3.15,23.97-3.49c1.32-0.12,2.11,1.25,1.92,1.99c-0.78,3.03-0.99,5.32-2.66,9.68" class="grey" /><path d="M24.28,45.62c4.24-0.38,16.76-2.43,22.14-2.82" class="grey" /><path d="M19.07,57.37c0.87,0.21,2.52,0.53,3.83,0.35c1.6-0.22,19.39-4.22,20.92-4.22c1.52,0,2.32,1.11,0.8,2.34c-1.84,1.49-6.09,6.15-11.42,10.68" class="grey" /><path d="M31.87,66.16c4.38,3.84,10.36,16.45,4.88,27.69c-3.25,6.65-6.18,1.12-7.75,0.56" class="grey" /><path d="M15.5,78.55c0.71,1.38,3.12,0.73,4.34,0.22c7.15-2.96,18.9-7.71,29.66-12.02" class="grey" /><path d="M66.75,15.14c0.04,0.81,0.19,2.13-0.07,3.27C64.79,26.65,60.54,40.6,54,50.53" class="grey" /><path d="M61.37,39.32c1.06,0.24,3.03,0,3.61-0.03c5.95-0.38,15.18-2.82,24.26-3.43c1.02-0.07,1.65-0.02,1.91,0.06" class="grey" /><path d="M77.28,43.43c0.53,1.25,0.82,2.15,0.26,4.43C72.53,68.64,61.2,86.52,44.63,95.25" class="grey" /><path d="M55.98,54.57c1.38,0,2.19,0.96,3.29,2.28C66.68,65.76,80.31,83,90.21,91.45c1.82,1.56,3.76,2.59,5.29,2.75" class="grey" /><path d="M30.31,10.75c1.93,1.04,4.53,4.14,5.09,6.12" class="stroke" stroke-dasharray="150"><animate attributeName="stroke-dashoffset" from="150" to="0" dur="1.8s" begin="0.0s" fill="freeze" /></path><path d="M13.05,25.17c0.79,0.06,2.6,0.38,3.36,0.31c6.21-0.64,25.75-3.5,34.6-3.94c1.3-0.06,1.97,0.03,2.94,0.39" class="stroke" stroke-dasharray="150"><set attributeName="opacity" to="0" dur="0.9s" /><animate attributeName="stroke-dashoffset" from="150" to="0" dur="1.8s" begin="0.9s" fill="freeze" /></path><path d="M20.09,33.43c0.29,0.24,0.58,0.44,0.7,0.75c0.99,2.4,2.52,8.72,3.2,13.03" class="stroke" stroke-dasharray="150"><set attributeName="opacity" to="0" dur="2.0s" /><animate attributeName="stroke-dashoffset" from="150" to="0" dur="1.8s" begin="2.0s" fill="freeze" /></path><path d="M21.87,34.26c7-1.01,20.36-3.15,23.97-3.49c1.32-0.12,2.11,1.25,1.92,1.99c-0.78,3.03-0.99,5.32-2.66,9.68" class="stroke" stroke-dasharray="150"><set attributeName="opacity" to="0" dur="2.9s" /><animate attributeName="stroke-dashoffset" from="150" to="0" dur="1.8s" begin="2.9s" fill="freeze" /></path><path d="M24.28,45.62c4.24-0.38,16.76-2.43,22.14-2.82" class="stroke" stroke-dasharray="150"><set attributeName="opacity" to="0" dur="3.9s" /><animate attributeName="stroke-dashoffset" from="150" to="0" dur="1.8s" begin="3.9s" fill="freeze" /></path><path d="M19.07,57.37c0.87,0.21,2.52,0.53,3.83,0.35c1.6-0.22,19.39-4.22,20.92-4.22c1.52,0,2.32,1.11,0.8,2.34c-1.84,1.49-6.09,6.15-11.42,10.68" class="stroke" stroke-dasharray="150"><set attributeName="opacity" to="0" dur="4.9s" /><animate attributeName="stroke-dashoffset" from="150" to="0" dur="1.8s" begin="4.9s" fill="freeze" /></path><path d="M31.87,66.16c4.38,3.84,10.36,16.45,4.88,27.69c-3.25,6.65-6.18,1.12-7.75,0.56" class="stroke" stroke-dasharray="150"><set attributeName="opacity" to="0" dur="6.0s" /><animate attributeName="stroke-dashoffset" from="150" to="0" dur="1.8s" begin="6.0s" fill="freeze" /></path><path d="M15.5,78.55c0.71,1.38,3.12,0.73,4.34,0.22c7.15-2.96,18.9-7.71,29.66-12.02" class="stroke" stroke-dasharray="150"><set attributeName="opacity" to="0" dur="7.1s" /><animate attributeName="stroke-dashoffset" from="150" to="0" dur="1.8s" begin="7.1s" fill="freeze" /></path><path d="M66.75,15.14c0.04,0.81,0.19,2.13-0.07,3.27C64.79,26.65,60.54,40.6,54,50.53" class="stroke" stroke-dasharray="150"><set attributeName="opacity" to="0" dur="8.1s" /><animate attributeName="stroke-dashoffset" from="150" to="0" dur="1.8s" begin="8.1s" fill="freeze" /></path><path d="M61.37,39.32c1.06,0.24,3.03,0,3.61-0.03c5.95-0.38,15.18-2.82,24.26-3.43c1.02-0.07,1.65-0.02,1.91,0.06" class="stroke" stroke-dasharray="150"><set attributeName="opacity" to="0" dur="9.1s" /><animate attributeName="stroke-dashoffset" from="150" to="0" dur="1.8s" begin="9.1s" fill="freeze" /></path><path d="M77.28,43.43c0.53,1.25,0.82,2.15,0.26,4.43C72.53,68.64,61.2,86.52,44.63,95.25" class="stroke" stroke-dasharray="150"><set attributeName="opacity" to="0" dur="10.1s" /><animate attributeName="stroke-dashoffset" from="150" to="0" dur="1.8s" begin="10.1s" fill="freeze" /></path><path d="M55.98,54.57c1.38,0,2.19,0.96,3.29,2.28C66.68,65.76,80.31,83,90.21,91.45c1.82,1.56,3.76,2.59,5.29,2.75" class="stroke" stroke-dasharray="150"><set attributeName="opacity" to="0" dur="11.6s" /><animate attributeName="stroke-dashoffset" from="150" to="0" dur="1.8s" begin="11.6s" fill="freeze" /></path><text x="90" y="120" id="reset-kvg-06566-Kaisho">⟳</text><text x="70" y="120" id="pause-kvg-06566-Kaisho">◼</text><script type="text/javascript"><![CDATA[function RecurringTimer(e,t){var n,r,i=t;this.pause=function(){window.clearTimeout(n);i-=new Date-r};var s=function(){r=new Date;n=window.setTimeout(function(){i=t;s();e()},i)};this.clear=function(){window.clearTimeout(n);i=t;n=window.setTimeout(function(){i=t;s();e()},i)};this.resume=s;this.resume()}function invoketimer(){timer=new RecurringTimer(function(){svg.setCurrentTime(0)},14000.0)}var svg=document.getElementById("kvg-06566-Kaisho");var pause=document.getElementById("pause-kvg-06566-Kaisho");var reset=document.getElementById("reset-kvg-06566-Kaisho");var timer;invoketimer();reset.onclick=function(){svg.setCurrentTime(0);timer.clear();svg.unpauseAnimations();pause.innerHTML = "◼";};pause.onclick=function(){if(svg.animationsPaused()){svg.unpauseAnimations();timer.resume();pause.innerHTML="◼"}else{svg.pauseAnimations();timer.pause();pause.innerHTML="▶"}}]]></script></svg>