<svg id="kvg-065cb" class="kanjivg" width="106" height="126" xmlns="http://www.w3.org/2000/svg" xmlns:xlink="http://www.w3.org/1999/xlink" xml:space="preserve" version="1.1" baseProfile="full"><defs><style type="text/css"><![CDATA[path.black{fill:none;stroke:black;stroke-width:5;stroke-linecap:round;stroke-linejoin:round;}path.grey{fill:none;stroke:#ddd;stroke-width:5;stroke-linecap:round;stroke-linejoin:round;}path.stroke{fill:none;stroke:black;stroke-width:5;stroke-linecap:round;stroke-linejoin:round;}rect{fill:none;stroke:#555;stroke-width:2;} text{font-size:16px;font-family:Segoe UI Symbol,Cambria Math,DejaVu Sans,Symbola,Quivira,STIX,Code2000;-webkit-touch-callout:none;cursor:pointer;-webkit-user-select:none;-khtml-user-select:none;-moz-user-select:none;-ms-user-select:none;user-select: none;}text:hover{color:#777;}#reset{font-weight:bold;}]]></style><marker id="markerStart" markerWidth="8" markerHeight="8" style="overflow:visible;"><circle cx="0" cy="0" r="1.5" style="stroke:none;fill:red;fill-opacity:0.5;"/></marker><marker id="markerEnd" style="overflow:visible;"><circle cx="0" cy="0" r="0.8" style="stroke:none;fill:blue;fill-opacity:0.5;"><animate attributeName="opacity" from="1" to="0" dur="3s" repeatCount="indefinite" /></circle></marker></defs><rect x="4" y="4" width="100" height="100" /><path d="M28.39,15.5c1.12,1.12,1.73,2.38,1.73,4.16c0,4.45-0.09,7.59-0.09,11.4" class="grey" /><path d="M12.5,34.13c2.08,0.13,4.03,0.36,6.11,0.12c6.87-0.78,17.99-3.04,22.31-3.56c1.36-0.16,2.08-0.19,3.58-0.19" class="grey" /><path d="M29.17,46.5c3.33,1,4.58,1.25,8.46,2.61c1.91,0.67,2.53,1.71,2.42,4.36c-0.29,7-5.96,26.17-11.31,33.53c-4,5.5-6,2.25-7.5-0.25" class="grey" /><path d="M29.28,37.25c0.22,1.12,0.22,1.81-0.11,3.2C26.5,51.75,22.12,66.5,10.39,78.5" class="grey" /><path d="M59.53,14.5c0.03,0.66-0.04,1.73-0.32,2.64C57.25,23.5,52.5,34,47.17,42.42" class="grey" /><path d="M57.5,30c1.25,0.25,2.95,0.09,4.32-0.1c7.06-0.95,14.07-2.46,19.96-3.86c1.95-0.46,4.46-0.79,6.46-0.54" class="grey" /><path d="M51.72,44c2.65,0.75,4.58,0.62,6.91,0.18c8.92-1.68,15.74-2.82,24.23-4.23c4.26-0.71,4.6,1.05,1.89,3.31C80.99,46.42,72.84,53.59,72,54.25" class="grey" /><path d="M67.87,54.25c0.94,0.94,1.21,2.12,1.21,3.25c0,3.5,0.03,19.5,0.03,26" class="grey" /><path d="M70.38,67c7.12-0.75,2.87-0.5,13.6-2c1.73-0.24,2.18-0.25,3.26,0" class="grey" /><path d="M54.76,62.14c0.04,0.68,0.08,1.76-0.08,2.74c-0.95,5.77-6.41,18.09-13.88,25.84" class="grey" /><path d="M52.62,74.88c6.18,3.73,19.55,12.1,28.37,16.14c3.05,1.39,5.75,2.49,9.5,3.49" class="grey" /><path d="M28.39,15.5c1.12,1.12,1.73,2.38,1.73,4.16c0,4.45-0.09,7.59-0.09,11.4" class="stroke" stroke-dasharray="150"><animate attributeName="stroke-dashoffset" from="150" to="0" dur="1.8s" begin="0.0s" fill="freeze" /></path><path d="M12.5,34.13c2.08,0.13,4.03,0.36,6.11,0.12c6.87-0.78,17.99-3.04,22.31-3.56c1.36-0.16,2.08-0.19,3.58-0.19" class="stroke" stroke-dasharray="150"><set attributeName="opacity" to="0" dur="0.9s" /><animate attributeName="stroke-dashoffset" from="150" to="0" dur="1.8s" begin="0.9s" fill="freeze" /></path><path d="M29.17,46.5c3.33,1,4.58,1.25,8.46,2.61c1.91,0.67,2.53,1.71,2.42,4.36c-0.29,7-5.96,26.17-11.31,33.53c-4,5.5-6,2.25-7.5-0.25" class="stroke" stroke-dasharray="150"><set attributeName="opacity" to="0" dur="1.9s" /><animate attributeName="stroke-dashoffset" from="150" to="0" dur="1.8s" begin="1.9s" fill="freeze" /></path><path d="M29.28,37.25c0.22,1.12,0.22,1.81-0.11,3.2C26.5,51.75,22.12,66.5,10.39,78.5" class="stroke" stroke-dasharray="150"><set attributeName="opacity" to="0" dur="3.4s" /><animate attributeName="stroke-dashoffset" from="150" to="0" dur="1.8s" begin="3.4s" fill="freeze" /></path><path d="M59.53,14.5c0.03,0.66-0.04,1.73-0.32,2.64C57.25,23.5,52.5,34,47.17,42.42" class="stroke" stroke-dasharray="150"><set attributeName="opacity" to="0" dur="4.6s" /><animate attributeName="stroke-dashoffset" from="150" to="0" dur="1.8s" begin="4.6s" fill="freeze" /></path><path d="M57.5,30c1.25,0.25,2.95,0.09,4.32-0.1c7.06-0.95,14.07-2.46,19.96-3.86c1.95-0.46,4.46-0.79,6.46-0.54" class="stroke" stroke-dasharray="150"><set attributeName="opacity" to="0" dur="5.6s" /><animate attributeName="stroke-dashoffset" from="150" to="0" dur="1.8s" begin="5.6s" fill="freeze" /></path><path d="M51.72,44c2.65,0.75,4.58,0.62,6.91,0.18c8.92-1.68,15.74-2.82,24.23-4.23c4.26-0.71,4.6,1.05,1.89,3.31C80.99,46.42,72.84,53.59,72,54.25" class="stroke" stroke-dasharray="150"><set attributeName="opacity" to="0" dur="6.6s" /><animate attributeName="stroke-dashoffset" from="150" to="0" dur="1.8s" begin="6.6s" fill="freeze" /></path><path d="M67.87,54.25c0.94,0.94,1.21,2.12,1.21,3.25c0,3.5,0.03,19.5,0.03,26" class="stroke" stroke-dasharray="150"><set attributeName="opacity" to="0" dur="8.0s" /><animate attributeName="stroke-dashoffset" from="150" to="0" dur="1.8s" begin="8.0s" fill="freeze" /></path><path d="M70.38,67c7.12-0.75,2.87-0.5,13.6-2c1.73-0.24,2.18-0.25,3.26,0" class="stroke" stroke-dasharray="150"><set attributeName="opacity" to="0" dur="9.0s" /><animate attributeName="stroke-dashoffset" from="150" to="0" dur="1.8s" begin="9.0s" fill="freeze" /></path><path d="M54.76,62.14c0.04,0.68,0.08,1.76-0.08,2.74c-0.95,5.77-6.41,18.09-13.88,25.84" class="stroke" stroke-dasharray="150"><set attributeName="opacity" to="0" dur="9.9s" /><animate attributeName="stroke-dashoffset" from="150" to="0" dur="1.8s" begin="9.9s" fill="freeze" /></path><path d="M52.62,74.88c6.18,3.73,19.55,12.1,28.37,16.14c3.05,1.39,5.75,2.49,9.5,3.49" class="stroke" stroke-dasharray="150"><set attributeName="opacity" to="0" dur="10.9s" /><animate attributeName="stroke-dashoffset" from="150" to="0" dur="1.8s" begin="10.9s" fill="freeze" /></path><text x="90" y="120" id="reset-kvg-065cb">⟳</text><text x="70" y="120" id="pause-kvg-065cb">◼</text><script type="text/javascript"><![CDATA[function RecurringTimer(e,t){var n,r,i=t;this.pause=function(){window.clearTimeout(n);i-=new Date-r};var s=function(){r=new Date;n=window.setTimeout(function(){i=t;s();e()},i)};this.clear=function(){window.clearTimeout(n);i=t;n=window.setTimeout(function(){i=t;s();e()},i)};this.resume=s;this.resume()}function invoketimer(){timer=new RecurringTimer(function(){svg.setCurrentTime(0)},13000.0)}var svg=document.getElementById("kvg-065cb");var pause=document.getElementById("pause-kvg-065cb");var reset=document.getElementById("reset-kvg-065cb");var timer;invoketimer();reset.onclick=function(){svg.setCurrentTime(0);timer.clear();svg.unpauseAnimations();pause.innerHTML = "◼";};pause.onclick=function(){if(svg.animationsPaused()){svg.unpauseAnimations();timer.resume();pause.innerHTML="◼"}else{svg.pauseAnimations();timer.pause();pause.innerHTML="▶"}}]]></script></svg>