<svg id="kvg-0662f" class="kanjivg" width="106" height="126" xmlns="http://www.w3.org/2000/svg" xmlns:xlink="http://www.w3.org/1999/xlink" xml:space="preserve" version="1.1" baseProfile="full"><defs><style type="text/css"><![CDATA[path.black{fill:none;stroke:black;stroke-width:5;stroke-linecap:round;stroke-linejoin:round;}path.grey{fill:none;stroke:#ddd;stroke-width:5;stroke-linecap:round;stroke-linejoin:round;}path.stroke{fill:none;stroke:black;stroke-width:5;stroke-linecap:round;stroke-linejoin:round;}rect{fill:none;stroke:#555;stroke-width:2;} text{font-size:16px;font-family:Segoe UI Symbol,Cambria Math,DejaVu Sans,Symbola,Quivira,STIX,Code2000;-webkit-touch-callout:none;cursor:pointer;-webkit-user-select:none;-khtml-user-select:none;-moz-user-select:none;-ms-user-select:none;user-select: none;}text:hover{color:#777;}#reset{font-weight:bold;}]]></style><marker id="markerStart" markerWidth="8" markerHeight="8" style="overflow:visible;"><circle cx="0" cy="0" r="1.5" style="stroke:none;fill:red;fill-opacity:0.5;"/></marker><marker id="markerEnd" style="overflow:visible;"><circle cx="0" cy="0" r="0.8" style="stroke:none;fill:blue;fill-opacity:0.5;"><animate attributeName="opacity" from="1" to="0" dur="3s" repeatCount="indefinite" /></circle></marker></defs><rect x="4" y="4" width="100" height="100" /><path d="M33.77,14.8c0.76,1.2,1,2.18,1.21,3.58c0.81,5.45,2.52,16.08,3.43,21.88c0.36,2.32,0.6,3.87,0.6,4.02" class="grey" /><path d="M35.64,16.44c8.49-1.69,23.36-3.94,33.01-4.74c3.48-0.29,5.55,0.37,5.1,4.07c-0.5,4.09-1.81,11.81-3.03,20.03c-0.23,1.55-0.46,3.13-0.7,4.71" class="grey" /><path d="M37.75,28.99c9.25-1.24,24.13-3.11,33.36-3.48" class="grey" /><path d="M39.77,42.12c8.48-1.24,19.48-2.63,29.38-3.13" class="grey" /><path d="M18.75,55.45c3.3,1.18,7.39,0.57,10.76,0.05c13.74-2.12,37.73-5.24,51.75-5.88c3.25-0.15,6.54-0.27,9.75,0.42" class="grey" /><path d="M53.25,55c1.12,1.12,1.5,2.5,1.5,3.75c0,1.03,0,20,0,27.75" class="grey" /><path d="M56.1,68.77C64,68,70.38,67.25,75.71,66.89c1.56-0.11,2.5,0.18,3.29,0.37" class="grey" /><path d="M36,68.14c0.05,0.63,0.11,1.62-0.1,2.52c-1.24,5.31-8.38,16.96-18.15,24.09" class="grey" /><path d="M33,80.25c7.24,2.16,30.82,11.12,42.46,15.1c4.12,1.41,7.41,2.4,12.29,3.15" class="grey" /><path d="M33.77,14.8c0.76,1.2,1,2.18,1.21,3.58c0.81,5.45,2.52,16.08,3.43,21.88c0.36,2.32,0.6,3.87,0.6,4.02" class="stroke" stroke-dasharray="150"><animate attributeName="stroke-dashoffset" from="150" to="0" dur="1.8s" begin="0.0s" fill="freeze" /></path><path d="M35.64,16.44c8.49-1.69,23.36-3.94,33.01-4.74c3.48-0.29,5.55,0.37,5.1,4.07c-0.5,4.09-1.81,11.81-3.03,20.03c-0.23,1.55-0.46,3.13-0.7,4.71" class="stroke" stroke-dasharray="150"><set attributeName="opacity" to="0" dur="1.0s" /><animate attributeName="stroke-dashoffset" from="150" to="0" dur="1.8s" begin="1.0s" fill="freeze" /></path><path d="M37.75,28.99c9.25-1.24,24.13-3.11,33.36-3.48" class="stroke" stroke-dasharray="150"><set attributeName="opacity" to="0" dur="2.5s" /><animate attributeName="stroke-dashoffset" from="150" to="0" dur="1.8s" begin="2.5s" fill="freeze" /></path><path d="M39.77,42.12c8.48-1.24,19.48-2.63,29.38-3.13" class="stroke" stroke-dasharray="150"><set attributeName="opacity" to="0" dur="3.5s" /><animate attributeName="stroke-dashoffset" from="150" to="0" dur="1.8s" begin="3.5s" fill="freeze" /></path><path d="M18.75,55.45c3.3,1.18,7.39,0.57,10.76,0.05c13.74-2.12,37.73-5.24,51.75-5.88c3.25-0.15,6.54-0.27,9.75,0.42" class="stroke" stroke-dasharray="150"><set attributeName="opacity" to="0" dur="4.5s" /><animate attributeName="stroke-dashoffset" from="150" to="0" dur="1.8s" begin="4.5s" fill="freeze" /></path><path d="M53.25,55c1.12,1.12,1.5,2.5,1.5,3.75c0,1.03,0,20,0,27.75" class="stroke" stroke-dasharray="150"><set attributeName="opacity" to="0" dur="6.2s" /><animate attributeName="stroke-dashoffset" from="150" to="0" dur="1.8s" begin="6.2s" fill="freeze" /></path><path d="M56.1,68.77C64,68,70.38,67.25,75.71,66.89c1.56-0.11,2.5,0.18,3.29,0.37" class="stroke" stroke-dasharray="150"><set attributeName="opacity" to="0" dur="7.2s" /><animate attributeName="stroke-dashoffset" from="150" to="0" dur="1.8s" begin="7.2s" fill="freeze" /></path><path d="M36,68.14c0.05,0.63,0.11,1.62-0.1,2.52c-1.24,5.31-8.38,16.96-18.15,24.09" class="stroke" stroke-dasharray="150"><set attributeName="opacity" to="0" dur="8.2s" /><animate attributeName="stroke-dashoffset" from="150" to="0" dur="1.8s" begin="8.2s" fill="freeze" /></path><path d="M33,80.25c7.24,2.16,30.82,11.12,42.46,15.1c4.12,1.41,7.41,2.4,12.29,3.15" class="stroke" stroke-dasharray="150"><set attributeName="opacity" to="0" dur="9.2s" /><animate attributeName="stroke-dashoffset" from="150" to="0" dur="1.8s" begin="9.2s" fill="freeze" /></path><text x="90" y="120" id="reset-kvg-0662f">⟳</text><text x="70" y="120" id="pause-kvg-0662f">◼</text><script type="text/javascript"><![CDATA[function RecurringTimer(e,t){var n,r,i=t;this.pause=function(){window.clearTimeout(n);i-=new Date-r};var s=function(){r=new Date;n=window.setTimeout(function(){i=t;s();e()},i)};this.clear=function(){window.clearTimeout(n);i=t;n=window.setTimeout(function(){i=t;s();e()},i)};this.resume=s;this.resume()}function invoketimer(){timer=new RecurringTimer(function(){svg.setCurrentTime(0)},11600.0)}var svg=document.getElementById("kvg-0662f");var pause=document.getElementById("pause-kvg-0662f");var reset=document.getElementById("reset-kvg-0662f");var timer;invoketimer();reset.onclick=function(){svg.setCurrentTime(0);timer.clear();svg.unpauseAnimations();pause.innerHTML = "◼";};pause.onclick=function(){if(svg.animationsPaused()){svg.unpauseAnimations();timer.resume();pause.innerHTML="◼"}else{svg.pauseAnimations();timer.pause();pause.innerHTML="▶"}}]]></script></svg>