<svg id="kvg-06649-Kaisho" class="kanjivg" width="106" height="126" xmlns="http://www.w3.org/2000/svg" xmlns:xlink="http://www.w3.org/1999/xlink" xml:space="preserve" version="1.1" baseProfile="full"><defs><style type="text/css"><![CDATA[path.black{fill:none;stroke:black;stroke-width:5;stroke-linecap:round;stroke-linejoin:round;}path.grey{fill:none;stroke:#ddd;stroke-width:5;stroke-linecap:round;stroke-linejoin:round;}path.stroke{fill:none;stroke:black;stroke-width:5;stroke-linecap:round;stroke-linejoin:round;}rect{fill:none;stroke:#555;stroke-width:2;} text{font-size:16px;font-family:Segoe UI Symbol,Cambria Math,DejaVu Sans,Symbola,Quivira,STIX,Code2000;-webkit-touch-callout:none;cursor:pointer;-webkit-user-select:none;-khtml-user-select:none;-moz-user-select:none;-ms-user-select:none;user-select: none;}text:hover{color:#777;}#reset{font-weight:bold;}]]></style><marker id="markerStart" markerWidth="8" markerHeight="8" style="overflow:visible;"><circle cx="0" cy="0" r="1.5" style="stroke:none;fill:red;fill-opacity:0.5;"/></marker><marker id="markerEnd" style="overflow:visible;"><circle cx="0" cy="0" r="0.8" style="stroke:none;fill:blue;fill-opacity:0.5;"><animate attributeName="opacity" from="1" to="0" dur="3s" repeatCount="indefinite" /></circle></marker></defs><rect x="4" y="4" width="100" height="100" /><path d="M22.25,16.17c1.82,0.44,5.14,0.5,6.96,0.44c18.14-0.62,28.37-2.7,49.44-2.69c3.02,0,4.84,0.21,6.35,0.43" class="grey" /><path d="M36.07,23c0.34,0.4,0.03,1.91-0.16,2.43c-2.46,6.41-7.09,11.97-11.67,16.47c-1.45,1.43-0.95,3.24,1.17,2.93c4.46-0.67,14.34-3.82,22.94-5.25" class="grey" /><path d="M42.36,33.3c3.15,2.06,8.14,8.46,8.92,11.67" class="grey" /><path d="M70.57,22c0.18,1,0.53,1.46,0.33,1.99c-2.46,6.72-6.59,11.62-11.17,16.33c-1.45,1.49-0.95,2.83,1.17,2.49c4.46-0.7,16.24-4.16,22.94-4.9" class="grey" /><path d="M77.11,31.3c3.41,2.06,8.82,8.46,9.67,11.67" class="grey" /><path d="M11.5,55.33c1.55,0.42,4.38,0.42,5.93,0.42c14.75,0,58.91-4,73.91-3.99c2.58,0,4.12,0.2,5.41,0.41" class="grey" /><path d="M34.49,64.48c0.26,0.5,0.26,0.85,0.4,1.48c1.16,5.19,2.24,20.81,2.96,30.5" class="grey" /><path d="M35.69,65.17c8.95-1.31,28.79-2.53,35.48-3.62c2.46-0.4,3.71,1.02,3.59,2.45c-0.46,5.24-1.6,21.5-2.73,30.25" class="grey" /><path d="M37.36,78.61c5.85-1.02,12-1.13,17.91-1.6c2.05-0.16,4.09-0.32,6.03-0.47" class="grey" /><path d="M38.32,93.04c6.44-0.56,24.81-1.38,33.71-2.29" class="grey" /><path d="M22.25,16.17c1.82,0.44,5.14,0.5,6.96,0.44c18.14-0.62,28.37-2.7,49.44-2.69c3.02,0,4.84,0.21,6.35,0.43" class="stroke" stroke-dasharray="150"><animate attributeName="stroke-dashoffset" from="150" to="0" dur="1.8s" begin="0.0s" fill="freeze" /></path><path d="M36.07,23c0.34,0.4,0.03,1.91-0.16,2.43c-2.46,6.41-7.09,11.97-11.67,16.47c-1.45,1.43-0.95,3.24,1.17,2.93c4.46-0.67,14.34-3.82,22.94-5.25" class="stroke" stroke-dasharray="150"><set attributeName="opacity" to="0" dur="1.5s" /><animate attributeName="stroke-dashoffset" from="150" to="0" dur="1.8s" begin="1.5s" fill="freeze" /></path><path d="M42.36,33.3c3.15,2.06,8.14,8.46,8.92,11.67" class="stroke" stroke-dasharray="150"><set attributeName="opacity" to="0" dur="2.8s" /><animate attributeName="stroke-dashoffset" from="150" to="0" dur="1.8s" begin="2.8s" fill="freeze" /></path><path d="M70.57,22c0.18,1,0.53,1.46,0.33,1.99c-2.46,6.72-6.59,11.62-11.17,16.33c-1.45,1.49-0.95,2.83,1.17,2.49c4.46-0.7,16.24-4.16,22.94-4.9" class="stroke" stroke-dasharray="150"><set attributeName="opacity" to="0" dur="3.6999999999999997s" /><animate attributeName="stroke-dashoffset" from="150" to="0" dur="1.8s" begin="3.6999999999999997s" fill="freeze" /></path><path d="M77.11,31.3c3.41,2.06,8.82,8.46,9.67,11.67" class="stroke" stroke-dasharray="150"><set attributeName="opacity" to="0" dur="4.8999999999999995s" /><animate attributeName="stroke-dashoffset" from="150" to="0" dur="1.8s" begin="4.8999999999999995s" fill="freeze" /></path><path d="M11.5,55.33c1.55,0.42,4.38,0.42,5.93,0.42c14.75,0,58.91-4,73.91-3.99c2.58,0,4.12,0.2,5.41,0.41" class="stroke" stroke-dasharray="150"><set attributeName="opacity" to="0" dur="5.8s" /><animate attributeName="stroke-dashoffset" from="150" to="0" dur="1.8s" begin="5.8s" fill="freeze" /></path><path d="M34.49,64.48c0.26,0.5,0.26,0.85,0.4,1.48c1.16,5.19,2.24,20.81,2.96,30.5" class="stroke" stroke-dasharray="150"><set attributeName="opacity" to="0" dur="7.5s" /><animate attributeName="stroke-dashoffset" from="150" to="0" dur="1.8s" begin="7.5s" fill="freeze" /></path><path d="M35.69,65.17c8.95-1.31,28.79-2.53,35.48-3.62c2.46-0.4,3.71,1.02,3.59,2.45c-0.46,5.24-1.6,21.5-2.73,30.25" class="stroke" stroke-dasharray="150"><set attributeName="opacity" to="0" dur="8.5s" /><animate attributeName="stroke-dashoffset" from="150" to="0" dur="1.8s" begin="8.5s" fill="freeze" /></path><path d="M37.36,78.61c5.85-1.02,12-1.13,17.91-1.6c2.05-0.16,4.09-0.32,6.03-0.47" class="stroke" stroke-dasharray="150"><set attributeName="opacity" to="0" dur="10.2s" /><animate attributeName="stroke-dashoffset" from="150" to="0" dur="1.8s" begin="10.2s" fill="freeze" /></path><path d="M38.32,93.04c6.44-0.56,24.81-1.38,33.71-2.29" class="stroke" stroke-dasharray="150"><set attributeName="opacity" to="0" dur="11.2s" /><animate attributeName="stroke-dashoffset" from="150" to="0" dur="1.8s" begin="11.2s" fill="freeze" /></path><text x="90" y="120" id="reset-kvg-06649-Kaisho">⟳</text><text x="70" y="120" id="pause-kvg-06649-Kaisho">◼</text><script type="text/javascript"><![CDATA[function RecurringTimer(e,t){var n,r,i=t;this.pause=function(){window.clearTimeout(n);i-=new Date-r};var s=function(){r=new Date;n=window.setTimeout(function(){i=t;s();e()},i)};this.clear=function(){window.clearTimeout(n);i=t;n=window.setTimeout(function(){i=t;s();e()},i)};this.resume=s;this.resume()}function invoketimer(){timer=new RecurringTimer(function(){svg.setCurrentTime(0)},13200.0)}var svg=document.getElementById("kvg-06649-Kaisho");var pause=document.getElementById("pause-kvg-06649-Kaisho");var reset=document.getElementById("reset-kvg-06649-Kaisho");var timer;invoketimer();reset.onclick=function(){svg.setCurrentTime(0);timer.clear();svg.unpauseAnimations();pause.innerHTML = "◼";};pause.onclick=function(){if(svg.animationsPaused()){svg.unpauseAnimations();timer.resume();pause.innerHTML="◼"}else{svg.pauseAnimations();timer.pause();pause.innerHTML="▶"}}]]></script></svg>