<svg id="kvg-06664" class="kanjivg" width="106" height="126" xmlns="http://www.w3.org/2000/svg" xmlns:xlink="http://www.w3.org/1999/xlink" xml:space="preserve" version="1.1" baseProfile="full"><defs><style type="text/css"><![CDATA[path.black{fill:none;stroke:black;stroke-width:5;stroke-linecap:round;stroke-linejoin:round;}path.grey{fill:none;stroke:#ddd;stroke-width:5;stroke-linecap:round;stroke-linejoin:round;}path.stroke{fill:none;stroke:black;stroke-width:5;stroke-linecap:round;stroke-linejoin:round;}rect{fill:none;stroke:#555;stroke-width:2;} text{font-size:16px;font-family:Segoe UI Symbol,Cambria Math,DejaVu Sans,Symbola,Quivira,STIX,Code2000;-webkit-touch-callout:none;cursor:pointer;-webkit-user-select:none;-khtml-user-select:none;-moz-user-select:none;-ms-user-select:none;user-select: none;}text:hover{color:#777;}#reset{font-weight:bold;}]]></style><marker id="markerStart" markerWidth="8" markerHeight="8" style="overflow:visible;"><circle cx="0" cy="0" r="1.5" style="stroke:none;fill:red;fill-opacity:0.5;"/></marker><marker id="markerEnd" style="overflow:visible;"><circle cx="0" cy="0" r="0.8" style="stroke:none;fill:blue;fill-opacity:0.5;"><animate attributeName="opacity" from="1" to="0" dur="3s" repeatCount="indefinite" /></circle></marker></defs><rect x="4" y="4" width="100" height="100" /><path d="M14.77,23.44c0.38,0.78,0.76,1.68,0.76,2.72c0,1.04-0.13,57.29,0,58.34" class="grey" /><path d="M16.16,25.57c4.94-1.07,13.25-2.07,17.01-2.83c1.6-0.32,2.55,1.44,2.55,2.22c0,4.04-0.5,50.79-0.5,58.01" class="grey" /><path d="M15.56,52.23c6.51-0.73,14.09-1.73,19.75-2.31" class="grey" /><path d="M15.92,81.56c5.91-0.56,11.78-1.06,18.9-1.54" class="grey" /><path d="M49.54,17.42c1,0.24,2.83,0.12,3.84,0.14c6.95,0.09,13.87-1.4,33.06-2.16c1.67-0.07,2.68,0.03,3.51,0.14" class="grey" /><path d="M65.35,19.75c0.34,0.21,1.4,1.95,1.27,2.45c-1.23,4.85-9.6,28.65-10.89,31.71" class="grey" /><path d="M48.43,34.71c0.79,0.4,2.88,0.54,3.53,0.46c7.3-0.92,23.3-2.67,29.81-3.4c1.5-0.17,3.21,1.23,3.21,2.93c0,2.91-2.27,11.67-3.48,18.05" class="grey" /><path d="M42.83,54.75c1.43,0.3,4.96,0.11,6.4,0.1c10.15-0.05,15.09-1.11,42.57-3.15c2.38-0.18,4.73-0.02,5.92,0.11" class="grey" /><path d="M49,67.88c0.3,0.45,0.61,0.82,0.74,1.37c1.04,4.41,2.79,21.57,3.51,29.49" class="grey" /><path d="M50.36,69.79C60.75,69,79,67.08,84.84,66.52c2.14-0.21,3.42,1.22,3.11,2.43c-1.27,5-2.25,16.04-4.13,22.96" class="grey" /><path d="M53.2,95.74C60.07,95.11,76,94,85.96,93.53" class="grey" /><path d="M14.77,23.44c0.38,0.78,0.76,1.68,0.76,2.72c0,1.04-0.13,57.29,0,58.34" class="stroke" stroke-dasharray="150"><animate attributeName="stroke-dashoffset" from="150" to="0" dur="1.8s" begin="0.0s" fill="freeze" /></path><path d="M16.16,25.57c4.94-1.07,13.25-2.07,17.01-2.83c1.6-0.32,2.55,1.44,2.55,2.22c0,4.04-0.5,50.79-0.5,58.01" class="stroke" stroke-dasharray="150"><set attributeName="opacity" to="0" dur="1.5s" /><animate attributeName="stroke-dashoffset" from="150" to="0" dur="1.8s" begin="1.5s" fill="freeze" /></path><path d="M15.56,52.23c6.51-0.73,14.09-1.73,19.75-2.31" class="stroke" stroke-dasharray="150"><set attributeName="opacity" to="0" dur="3.2s" /><animate attributeName="stroke-dashoffset" from="150" to="0" dur="1.8s" begin="3.2s" fill="freeze" /></path><path d="M15.92,81.56c5.91-0.56,11.78-1.06,18.9-1.54" class="stroke" stroke-dasharray="150"><set attributeName="opacity" to="0" dur="4.1000000000000005s" /><animate attributeName="stroke-dashoffset" from="150" to="0" dur="1.8s" begin="4.1000000000000005s" fill="freeze" /></path><path d="M49.54,17.42c1,0.24,2.83,0.12,3.84,0.14c6.95,0.09,13.87-1.4,33.06-2.16c1.67-0.07,2.68,0.03,3.51,0.14" class="stroke" stroke-dasharray="150"><set attributeName="opacity" to="0" dur="5.000000000000001s" /><animate attributeName="stroke-dashoffset" from="150" to="0" dur="1.8s" begin="5.000000000000001s" fill="freeze" /></path><path d="M65.35,19.75c0.34,0.21,1.4,1.95,1.27,2.45c-1.23,4.85-9.6,28.65-10.89,31.71" class="stroke" stroke-dasharray="150"><set attributeName="opacity" to="0" dur="6.100000000000001s" /><animate attributeName="stroke-dashoffset" from="150" to="0" dur="1.8s" begin="6.100000000000001s" fill="freeze" /></path><path d="M48.43,34.71c0.79,0.4,2.88,0.54,3.53,0.46c7.3-0.92,23.3-2.67,29.81-3.4c1.5-0.17,3.21,1.23,3.21,2.93c0,2.91-2.27,11.67-3.48,18.05" class="stroke" stroke-dasharray="150"><set attributeName="opacity" to="0" dur="7.100000000000001s" /><animate attributeName="stroke-dashoffset" from="150" to="0" dur="1.8s" begin="7.100000000000001s" fill="freeze" /></path><path d="M42.83,54.75c1.43,0.3,4.96,0.11,6.4,0.1c10.15-0.05,15.09-1.11,42.57-3.15c2.38-0.18,4.73-0.02,5.92,0.11" class="stroke" stroke-dasharray="150"><set attributeName="opacity" to="0" dur="8.500000000000002s" /><animate attributeName="stroke-dashoffset" from="150" to="0" dur="1.8s" begin="8.500000000000002s" fill="freeze" /></path><path d="M49,67.88c0.3,0.45,0.61,0.82,0.74,1.37c1.04,4.41,2.79,21.57,3.51,29.49" class="stroke" stroke-dasharray="150"><set attributeName="opacity" to="0" dur="9.900000000000002s" /><animate attributeName="stroke-dashoffset" from="150" to="0" dur="1.8s" begin="9.900000000000002s" fill="freeze" /></path><path d="M50.36,69.79C60.75,69,79,67.08,84.84,66.52c2.14-0.21,3.42,1.22,3.11,2.43c-1.27,5-2.25,16.04-4.13,22.96" class="stroke" stroke-dasharray="150"><set attributeName="opacity" to="0" dur="10.900000000000002s" /><animate attributeName="stroke-dashoffset" from="150" to="0" dur="1.8s" begin="10.900000000000002s" fill="freeze" /></path><path d="M53.2,95.74C60.07,95.11,76,94,85.96,93.53" class="stroke" stroke-dasharray="150"><set attributeName="opacity" to="0" dur="12.400000000000002s" /><animate attributeName="stroke-dashoffset" from="150" to="0" dur="1.8s" begin="12.400000000000002s" fill="freeze" /></path><text x="90" y="120" id="reset-kvg-06664">⟳</text><text x="70" y="120" id="pause-kvg-06664">◼</text><script type="text/javascript"><![CDATA[function RecurringTimer(e,t){var n,r,i=t;this.pause=function(){window.clearTimeout(n);i-=new Date-r};var s=function(){r=new Date;n=window.setTimeout(function(){i=t;s();e()},i)};this.clear=function(){window.clearTimeout(n);i=t;n=window.setTimeout(function(){i=t;s();e()},i)};this.resume=s;this.resume()}function invoketimer(){timer=new RecurringTimer(function(){svg.setCurrentTime(0)},14400.000000000002)}var svg=document.getElementById("kvg-06664");var pause=document.getElementById("pause-kvg-06664");var reset=document.getElementById("reset-kvg-06664");var timer;invoketimer();reset.onclick=function(){svg.setCurrentTime(0);timer.clear();svg.unpauseAnimations();pause.innerHTML = "◼";};pause.onclick=function(){if(svg.animationsPaused()){svg.unpauseAnimations();timer.resume();pause.innerHTML="◼"}else{svg.pauseAnimations();timer.pause();pause.innerHTML="▶"}}]]></script></svg>