<svg id="kvg-06681-Kaisho" class="kanjivg" width="106" height="126" xmlns="http://www.w3.org/2000/svg" xmlns:xlink="http://www.w3.org/1999/xlink" xml:space="preserve" version="1.1" baseProfile="full"><defs><style type="text/css"><![CDATA[path.black{fill:none;stroke:black;stroke-width:5;stroke-linecap:round;stroke-linejoin:round;}path.grey{fill:none;stroke:#ddd;stroke-width:5;stroke-linecap:round;stroke-linejoin:round;}path.stroke{fill:none;stroke:black;stroke-width:5;stroke-linecap:round;stroke-linejoin:round;}rect{fill:none;stroke:#555;stroke-width:2;} text{font-size:16px;font-family:Segoe UI Symbol,Cambria Math,DejaVu Sans,Symbola,Quivira,STIX,Code2000;-webkit-touch-callout:none;cursor:pointer;-webkit-user-select:none;-khtml-user-select:none;-moz-user-select:none;-ms-user-select:none;user-select: none;}text:hover{color:#777;}#reset{font-weight:bold;}]]></style><marker id="markerStart" markerWidth="8" markerHeight="8" style="overflow:visible;"><circle cx="0" cy="0" r="1.5" style="stroke:none;fill:red;fill-opacity:0.5;"/></marker><marker id="markerEnd" style="overflow:visible;"><circle cx="0" cy="0" r="0.8" style="stroke:none;fill:blue;fill-opacity:0.5;"><animate attributeName="opacity" from="1" to="0" dur="3s" repeatCount="indefinite" /></circle></marker></defs><rect x="4" y="4" width="100" height="100" /><path d="M14.27,28.94c0.38,0.78,0.76,1.68,0.76,2.72c0,1.04-0.13,44.29,0,45.34" class="grey" /><path d="M15.66,30.57C20.6,29.5,28.4,28,32.17,27.24c1.6-0.32,2.55,1.44,2.55,2.22c0,4.04-0.5,37.79-0.5,45.01" class="grey" /><path d="M15.06,50.73c3.32-0.37,6.63-0.8,9.94-1.21c0.82-0.1,1.64-0.21,2.44-0.31" class="grey" /><path d="M15.42,73.06c5.91-0.56,11.28-1.56,18.4-2.04" class="grey" /><path d="M46.67,27.7c1.07,0.35,3.04,0.41,4.1,0.28c7.09-0.87,20.58-3.66,30.12-4.63c1.78-0.18,2.86,0.11,3.75,0.28" class="grey" /><path d="M63.25,11.56c0.54,0.41,1.67,3.14,1.78,3.98c0.12,0.92-0.03,16.09-0.12,21.41" class="grey" /><path d="M40.08,48.44c1.05,0.48,2.26,0.56,3.31,0.43C53,47.7,79,44.25,90.61,43.37c1.74-0.13,2.79,0.17,3.66,0.41" class="grey" /><path d="M51.37,37.75c1.19,1.38,1.65,1.78,1.7,2.66c0.5,7.8,1.29,17.62,1.3,23.13" class="grey" /><path d="M77.01,34.42c0.57,0.8,1.62,2.47,1.56,4.24c-0.32,8.83-1.07,12.58-2.03,23.43" class="grey" /><path d="M43.2,65.36c0.96-0.03,2.16,0.05,3.16-0.08c9.18-1.17,30.63-3.71,41.4-4.46c1.66-0.12,2.66,0.17,3.5,0.41" class="grey" /><path d="M56.52,67.41c0.06,0.67,0.13,1.71-0.11,2.68c-1.38,5.68-8.69,19.32-20.28,26.13" class="grey" /><path d="M69.55,65.72c0.52,0.91,0.93,1.99,0.96,3.42c0.16,6.36-0.33,12.55-0.32,16.88c0.03,10.1,6.21,8.81,12.3,8.67c6.42-0.15,10.65-1.55,11.55-2.3c1.91-1.6,1.38-2.36,1.55-5.09" class="grey" /><path d="M14.27,28.94c0.38,0.78,0.76,1.68,0.76,2.72c0,1.04-0.13,44.29,0,45.34" class="stroke" stroke-dasharray="150"><animate attributeName="stroke-dashoffset" from="150" to="0" dur="1.8s" begin="0.0s" fill="freeze" /></path><path d="M15.66,30.57C20.6,29.5,28.4,28,32.17,27.24c1.6-0.32,2.55,1.44,2.55,2.22c0,4.04-0.5,37.79-0.5,45.01" class="stroke" stroke-dasharray="150"><set attributeName="opacity" to="0" dur="1.2s" /><animate attributeName="stroke-dashoffset" from="150" to="0" dur="1.8s" begin="1.2s" fill="freeze" /></path><path d="M15.06,50.73c3.32-0.37,6.63-0.8,9.94-1.21c0.82-0.1,1.64-0.21,2.44-0.31" class="stroke" stroke-dasharray="150"><set attributeName="opacity" to="0" dur="2.7s" /><animate attributeName="stroke-dashoffset" from="150" to="0" dur="1.8s" begin="2.7s" fill="freeze" /></path><path d="M15.42,73.06c5.91-0.56,11.28-1.56,18.4-2.04" class="stroke" stroke-dasharray="150"><set attributeName="opacity" to="0" dur="3.6s" /><animate attributeName="stroke-dashoffset" from="150" to="0" dur="1.8s" begin="3.6s" fill="freeze" /></path><path d="M46.67,27.7c1.07,0.35,3.04,0.41,4.1,0.28c7.09-0.87,20.58-3.66,30.12-4.63c1.78-0.18,2.86,0.11,3.75,0.28" class="stroke" stroke-dasharray="150"><set attributeName="opacity" to="0" dur="4.5s" /><animate attributeName="stroke-dashoffset" from="150" to="0" dur="1.8s" begin="4.5s" fill="freeze" /></path><path d="M63.25,11.56c0.54,0.41,1.67,3.14,1.78,3.98c0.12,0.92-0.03,16.09-0.12,21.41" class="stroke" stroke-dasharray="150"><set attributeName="opacity" to="0" dur="5.5s" /><animate attributeName="stroke-dashoffset" from="150" to="0" dur="1.8s" begin="5.5s" fill="freeze" /></path><path d="M40.08,48.44c1.05,0.48,2.26,0.56,3.31,0.43C53,47.7,79,44.25,90.61,43.37c1.74-0.13,2.79,0.17,3.66,0.41" class="stroke" stroke-dasharray="150"><set attributeName="opacity" to="0" dur="6.5s" /><animate attributeName="stroke-dashoffset" from="150" to="0" dur="1.8s" begin="6.5s" fill="freeze" /></path><path d="M51.37,37.75c1.19,1.38,1.65,1.78,1.7,2.66c0.5,7.8,1.29,17.62,1.3,23.13" class="stroke" stroke-dasharray="150"><set attributeName="opacity" to="0" dur="7.8s" /><animate attributeName="stroke-dashoffset" from="150" to="0" dur="1.8s" begin="7.8s" fill="freeze" /></path><path d="M77.01,34.42c0.57,0.8,1.62,2.47,1.56,4.24c-0.32,8.83-1.07,12.58-2.03,23.43" class="stroke" stroke-dasharray="150"><set attributeName="opacity" to="0" dur="8.8s" /><animate attributeName="stroke-dashoffset" from="150" to="0" dur="1.8s" begin="8.8s" fill="freeze" /></path><path d="M43.2,65.36c0.96-0.03,2.16,0.05,3.16-0.08c9.18-1.17,30.63-3.71,41.4-4.46c1.66-0.12,2.66,0.17,3.5,0.41" class="stroke" stroke-dasharray="150"><set attributeName="opacity" to="0" dur="9.8s" /><animate attributeName="stroke-dashoffset" from="150" to="0" dur="1.8s" begin="9.8s" fill="freeze" /></path><path d="M56.52,67.41c0.06,0.67,0.13,1.71-0.11,2.68c-1.38,5.68-8.69,19.32-20.28,26.13" class="stroke" stroke-dasharray="150"><set attributeName="opacity" to="0" dur="11.0s" /><animate attributeName="stroke-dashoffset" from="150" to="0" dur="1.8s" begin="11.0s" fill="freeze" /></path><path d="M69.55,65.72c0.52,0.91,0.93,1.99,0.96,3.42c0.16,6.36-0.33,12.55-0.32,16.88c0.03,10.1,6.21,8.81,12.3,8.67c6.42-0.15,10.65-1.55,11.55-2.3c1.91-1.6,1.38-2.36,1.55-5.09" class="stroke" stroke-dasharray="150"><set attributeName="opacity" to="0" dur="12.0s" /><animate attributeName="stroke-dashoffset" from="150" to="0" dur="1.8s" begin="12.0s" fill="freeze" /></path><text x="90" y="120" id="reset-kvg-06681-Kaisho">⟳</text><text x="70" y="120" id="pause-kvg-06681-Kaisho">◼</text><script type="text/javascript"><![CDATA[function RecurringTimer(e,t){var n,r,i=t;this.pause=function(){window.clearTimeout(n);i-=new Date-r};var s=function(){r=new Date;n=window.setTimeout(function(){i=t;s();e()},i)};this.clear=function(){window.clearTimeout(n);i=t;n=window.setTimeout(function(){i=t;s();e()},i)};this.resume=s;this.resume()}function invoketimer(){timer=new RecurringTimer(function(){svg.setCurrentTime(0)},14400.0)}var svg=document.getElementById("kvg-06681-Kaisho");var pause=document.getElementById("pause-kvg-06681-Kaisho");var reset=document.getElementById("reset-kvg-06681-Kaisho");var timer;invoketimer();reset.onclick=function(){svg.setCurrentTime(0);timer.clear();svg.unpauseAnimations();pause.innerHTML = "◼";};pause.onclick=function(){if(svg.animationsPaused()){svg.unpauseAnimations();timer.resume();pause.innerHTML="◼"}else{svg.pauseAnimations();timer.pause();pause.innerHTML="▶"}}]]></script></svg>