<svg id="kvg-066b4" class="kanjivg" width="106" height="126" xmlns="http://www.w3.org/2000/svg" xmlns:xlink="http://www.w3.org/1999/xlink" xml:space="preserve" version="1.1" baseProfile="full"><defs><style type="text/css"><![CDATA[path.black{fill:none;stroke:black;stroke-width:5;stroke-linecap:round;stroke-linejoin:round;}path.grey{fill:none;stroke:#ddd;stroke-width:5;stroke-linecap:round;stroke-linejoin:round;}path.stroke{fill:none;stroke:black;stroke-width:5;stroke-linecap:round;stroke-linejoin:round;}rect{fill:none;stroke:#555;stroke-width:2;} text{font-size:16px;font-family:Segoe UI Symbol,Cambria Math,DejaVu Sans,Symbola,Quivira,STIX,Code2000;-webkit-touch-callout:none;cursor:pointer;-webkit-user-select:none;-khtml-user-select:none;-moz-user-select:none;-ms-user-select:none;user-select: none;}text:hover{color:#777;}#reset{font-weight:bold;}]]></style><marker id="markerStart" markerWidth="8" markerHeight="8" style="overflow:visible;"><circle cx="0" cy="0" r="1.5" style="stroke:none;fill:red;fill-opacity:0.5;"/></marker><marker id="markerEnd" style="overflow:visible;"><circle cx="0" cy="0" r="0.8" style="stroke:none;fill:blue;fill-opacity:0.5;"><animate attributeName="opacity" from="1" to="0" dur="3s" repeatCount="indefinite" /></circle></marker></defs><rect x="4" y="4" width="100" height="100" /><path d="M29.02,14.22c0.7,0.69,1.36,1.58,1.51,2.3c0.85,4.11,2.26,10.88,3.45,16.44c0.43,1.98,0.88,4.32,1.05,5.04" class="grey" /><path d="M31.12,15.81c5.14-0.74,33.44-3.43,40.15-3.97c2.37-0.19,4.02,1.3,3.29,4.06c-0.6,2.25-2.5,9.75-3.63,14.39c-0.52,2.12-0.87,3.65-0.87,3.81" class="grey" /><path d="M33.62,25.42c5.38-0.67,33.66-3.21,38.01-3.21" class="grey" /><path d="M35.44,35.2c10.81-1.2,24.16-2.44,33.93-2.77" class="grey" /><path d="M29.13,47.55c2.24,0.45,4.21,0.33,6.12,0.09c10.62-1.39,27.25-3.01,37.74-3.82c2.16-0.17,4.47-0.28,6.6,0.18" class="grey" /><path d="M41.63,41.28c0.92,0.92,1.37,2.2,1.46,3.09c0.53,4.88,1.28,9.51,1.93,14.66" class="grey" /><path d="M64.96,38.5c0.54,1,0.87,2.13,0.71,3.34c-0.79,6.03-1.17,8.66-2.35,15.4" class="grey" /><path d="M18.3,62.29c1.33,0.47,3.77,0.61,5.09,0.47c8.68-0.87,51.33-5.89,62.42-6.32c2.21-0.08,3.54,0.23,4.65,0.46" class="grey" /><path d="M41.59,61.73c0.16,0.89-0.36,1.6-0.92,2.1c-5.05,4.54-16.17,12.29-28.14,17.2" class="grey" /><path d="M64.25,58.75c4.32,2.75,17.5,11.25,22.5,13.5c1.59,0.71,3.5,1.75,6.75,2.25" class="grey" /><path d="M53.8,64.83c0.68,0.68,1.03,1.67,1.03,3.06c0,13.11,0.04,22.95,0.04,26.37c0,7.99-4.24,1.86-5.9-0.08" class="grey" /><path d="M40.31,70.77c2.11,1.01,5.46,4.14,5.98,5.71" class="grey" /><path d="M29.85,91.25c0.89,0.69,2.4,0.33,3.35-0.15c3.17-1.6,6.42-3.6,11.66-6.78" class="grey" /><path d="M69.33,69.03c0.07,0.68-0.1,1.31-0.5,1.89c-0.96,1.71-3.16,4.06-6.23,6.7" class="grey" /><path d="M63.46,82.75c5.79,2,13.91,6.5,17.58,11.18" class="grey" /><path d="M29.02,14.22c0.7,0.69,1.36,1.58,1.51,2.3c0.85,4.11,2.26,10.88,3.45,16.44c0.43,1.98,0.88,4.32,1.05,5.04" class="stroke" stroke-dasharray="150"><animate attributeName="stroke-dashoffset" from="150" to="0" dur="1.8s" begin="0.0s" fill="freeze" /></path><path d="M31.12,15.81c5.14-0.74,33.44-3.43,40.15-3.97c2.37-0.19,4.02,1.3,3.29,4.06c-0.6,2.25-2.5,9.75-3.63,14.39c-0.52,2.12-0.87,3.65-0.87,3.81" class="stroke" stroke-dasharray="150"><set attributeName="opacity" to="0" dur="1.0s" /><animate attributeName="stroke-dashoffset" from="150" to="0" dur="1.8s" begin="1.0s" fill="freeze" /></path><path d="M33.62,25.42c5.38-0.67,33.66-3.21,38.01-3.21" class="stroke" stroke-dasharray="150"><set attributeName="opacity" to="0" dur="2.5s" /><animate attributeName="stroke-dashoffset" from="150" to="0" dur="1.8s" begin="2.5s" fill="freeze" /></path><path d="M35.44,35.2c10.81-1.2,24.16-2.44,33.93-2.77" class="stroke" stroke-dasharray="150"><set attributeName="opacity" to="0" dur="3.5s" /><animate attributeName="stroke-dashoffset" from="150" to="0" dur="1.8s" begin="3.5s" fill="freeze" /></path><path d="M29.13,47.55c2.24,0.45,4.21,0.33,6.12,0.09c10.62-1.39,27.25-3.01,37.74-3.82c2.16-0.17,4.47-0.28,6.6,0.18" class="stroke" stroke-dasharray="150"><set attributeName="opacity" to="0" dur="4.5s" /><animate attributeName="stroke-dashoffset" from="150" to="0" dur="1.8s" begin="4.5s" fill="freeze" /></path><path d="M41.63,41.28c0.92,0.92,1.37,2.2,1.46,3.09c0.53,4.88,1.28,9.51,1.93,14.66" class="stroke" stroke-dasharray="150"><set attributeName="opacity" to="0" dur="5.8s" /><animate attributeName="stroke-dashoffset" from="150" to="0" dur="1.8s" begin="5.8s" fill="freeze" /></path><path d="M64.96,38.5c0.54,1,0.87,2.13,0.71,3.34c-0.79,6.03-1.17,8.66-2.35,15.4" class="stroke" stroke-dasharray="150"><set attributeName="opacity" to="0" dur="6.7s" /><animate attributeName="stroke-dashoffset" from="150" to="0" dur="1.8s" begin="6.7s" fill="freeze" /></path><path d="M18.3,62.29c1.33,0.47,3.77,0.61,5.09,0.47c8.68-0.87,51.33-5.89,62.42-6.32c2.21-0.08,3.54,0.23,4.65,0.46" class="stroke" stroke-dasharray="150"><set attributeName="opacity" to="0" dur="7.6000000000000005s" /><animate attributeName="stroke-dashoffset" from="150" to="0" dur="1.8s" begin="7.6000000000000005s" fill="freeze" /></path><path d="M41.59,61.73c0.16,0.89-0.36,1.6-0.92,2.1c-5.05,4.54-16.17,12.29-28.14,17.2" class="stroke" stroke-dasharray="150"><set attributeName="opacity" to="0" dur="9.3s" /><animate attributeName="stroke-dashoffset" from="150" to="0" dur="1.8s" begin="9.3s" fill="freeze" /></path><path d="M64.25,58.75c4.32,2.75,17.5,11.25,22.5,13.5c1.59,0.71,3.5,1.75,6.75,2.25" class="stroke" stroke-dasharray="150"><set attributeName="opacity" to="0" dur="10.3s" /><animate attributeName="stroke-dashoffset" from="150" to="0" dur="1.8s" begin="10.3s" fill="freeze" /></path><path d="M53.8,64.83c0.68,0.68,1.03,1.67,1.03,3.06c0,13.11,0.04,22.95,0.04,26.37c0,7.99-4.24,1.86-5.9-0.08" class="stroke" stroke-dasharray="150"><set attributeName="opacity" to="0" dur="11.3s" /><animate attributeName="stroke-dashoffset" from="150" to="0" dur="1.8s" begin="11.3s" fill="freeze" /></path><path d="M40.31,70.77c2.11,1.01,5.46,4.14,5.98,5.71" class="stroke" stroke-dasharray="150"><set attributeName="opacity" to="0" dur="12.4s" /><animate attributeName="stroke-dashoffset" from="150" to="0" dur="1.8s" begin="12.4s" fill="freeze" /></path><path d="M29.85,91.25c0.89,0.69,2.4,0.33,3.35-0.15c3.17-1.6,6.42-3.6,11.66-6.78" class="stroke" stroke-dasharray="150"><set attributeName="opacity" to="0" dur="13.3s" /><animate attributeName="stroke-dashoffset" from="150" to="0" dur="1.8s" begin="13.3s" fill="freeze" /></path><path d="M69.33,69.03c0.07,0.68-0.1,1.31-0.5,1.89c-0.96,1.71-3.16,4.06-6.23,6.7" class="stroke" stroke-dasharray="150"><set attributeName="opacity" to="0" dur="14.200000000000001s" /><animate attributeName="stroke-dashoffset" from="150" to="0" dur="1.8s" begin="14.200000000000001s" fill="freeze" /></path><path d="M63.46,82.75c5.79,2,13.91,6.5,17.58,11.18" class="stroke" stroke-dasharray="150"><set attributeName="opacity" to="0" dur="15.100000000000001s" /><animate attributeName="stroke-dashoffset" from="150" to="0" dur="1.8s" begin="15.100000000000001s" fill="freeze" /></path><text x="90" y="120" id="reset-kvg-066b4">⟳</text><text x="70" y="120" id="pause-kvg-066b4">◼</text><script type="text/javascript"><![CDATA[function RecurringTimer(e,t){var n,r,i=t;this.pause=function(){window.clearTimeout(n);i-=new Date-r};var s=function(){r=new Date;n=window.setTimeout(function(){i=t;s();e()},i)};this.clear=function(){window.clearTimeout(n);i=t;n=window.setTimeout(function(){i=t;s();e()},i)};this.resume=s;this.resume()}function invoketimer(){timer=new RecurringTimer(function(){svg.setCurrentTime(0)},17100.0)}var svg=document.getElementById("kvg-066b4");var pause=document.getElementById("pause-kvg-066b4");var reset=document.getElementById("reset-kvg-066b4");var timer;invoketimer();reset.onclick=function(){svg.setCurrentTime(0);timer.clear();svg.unpauseAnimations();pause.innerHTML = "◼";};pause.onclick=function(){if(svg.animationsPaused()){svg.unpauseAnimations();timer.resume();pause.innerHTML="◼"}else{svg.pauseAnimations();timer.pause();pause.innerHTML="▶"}}]]></script></svg>