<svg id="kvg-067f3-Kaisho" class="kanjivg" width="106" height="126" xmlns="http://www.w3.org/2000/svg" xmlns:xlink="http://www.w3.org/1999/xlink" xml:space="preserve" version="1.1" baseProfile="full"><defs><style type="text/css"><![CDATA[path.black{fill:none;stroke:black;stroke-width:5;stroke-linecap:round;stroke-linejoin:round;}path.grey{fill:none;stroke:#ddd;stroke-width:5;stroke-linecap:round;stroke-linejoin:round;}path.stroke{fill:none;stroke:black;stroke-width:5;stroke-linecap:round;stroke-linejoin:round;}rect{fill:none;stroke:#555;stroke-width:2;} text{font-size:16px;font-family:Segoe UI Symbol,Cambria Math,DejaVu Sans,Symbola,Quivira,STIX,Code2000;-webkit-touch-callout:none;cursor:pointer;-webkit-user-select:none;-khtml-user-select:none;-moz-user-select:none;-ms-user-select:none;user-select: none;}text:hover{color:#777;}#reset{font-weight:bold;}]]></style><marker id="markerStart" markerWidth="8" markerHeight="8" style="overflow:visible;"><circle cx="0" cy="0" r="1.5" style="stroke:none;fill:red;fill-opacity:0.5;"/></marker><marker id="markerEnd" style="overflow:visible;"><circle cx="0" cy="0" r="0.8" style="stroke:none;fill:blue;fill-opacity:0.5;"><animate attributeName="opacity" from="1" to="0" dur="3s" repeatCount="indefinite" /></circle></marker></defs><rect x="4" y="4" width="100" height="100" /><path d="M13.03,37.47c0.35,0.24,2.39,0.41,3.31,0.31c3.94-0.41,14.12-3.21,20.45-4.41c0.92-0.17,2.15-0.24,2.73,0" class="grey" /><path d="M27.11,16.25c0.91,0.47,2.86,3.49,3.04,4.42c0.18,0.93-0.3,68.73-0.3,69.58c0,14-5.6,3.25-6.6,2.25" class="grey" /><path d="M29.69,37.03c-5.1,15.04-7.94,21.4-15.83,34.56" class="grey" /><path d="M32.22,45.65c2.44,1.23,6.47,5.22,8.53,7.6" class="grey" /><path d="M58.49,13.75c0.03,0.3,0.12,0.85-0.06,1.19c-2.31,4.17-5.72,7.99-11.73,11.36" class="grey" /><path d="M45.37,28.26c0.59,0.46,1.44,2.57,1.56,3.49c0.12,0.92-0.25,29.44-0.38,31.72c-0.12,2.07,0.35,0.92-0.35,3.22c-0.71,2.3-0.71,2.76,0.71,1.15c1.42-1.61,9.1-7.58,14.29-11.33" class="grey" /><path d="M60.42,25.68c0.81,0.91,1.48,4.73,1.48,7.05c0,18.14,2.35,51.53-15.62,62.18" class="grey" /><path d="M71.54,22.49c0.65,0.21,1.96,1.5,3.26,1.28c1.3-0.21,12.33-2.64,13.96-2.85c1.63-0.21,4.44,0.83,4.74,3.57c0.75,6.76,0.25,25.76-1.11,39.88c-1.1,11.49-6.56,2.07-7.05,1.64" class="grey" /><path d="M74.56,24.61c0.15,0.93,0,65.84-0.15,71.64" class="grey" /><path d="M13.03,37.47c0.35,0.24,2.39,0.41,3.31,0.31c3.94-0.41,14.12-3.21,20.45-4.41c0.92-0.17,2.15-0.24,2.73,0" class="stroke" stroke-dasharray="150"><animate attributeName="stroke-dashoffset" from="150" to="0" dur="1.8s" begin="0.0s" fill="freeze" /></path><path d="M27.11,16.25c0.91,0.47,2.86,3.49,3.04,4.42c0.18,0.93-0.3,68.73-0.3,69.58c0,14-5.6,3.25-6.6,2.25" class="stroke" stroke-dasharray="150"><set attributeName="opacity" to="0" dur="1.0s" /><animate attributeName="stroke-dashoffset" from="150" to="0" dur="1.8s" begin="1.0s" fill="freeze" /></path><path d="M29.69,37.03c-5.1,15.04-7.94,21.4-15.83,34.56" class="stroke" stroke-dasharray="150"><set attributeName="opacity" to="0" dur="2.7s" /><animate attributeName="stroke-dashoffset" from="150" to="0" dur="1.8s" begin="2.7s" fill="freeze" /></path><path d="M32.22,45.65c2.44,1.23,6.47,5.22,8.53,7.6" class="stroke" stroke-dasharray="150"><set attributeName="opacity" to="0" dur="3.7s" /><animate attributeName="stroke-dashoffset" from="150" to="0" dur="1.8s" begin="3.7s" fill="freeze" /></path><path d="M58.49,13.75c0.03,0.3,0.12,0.85-0.06,1.19c-2.31,4.17-5.72,7.99-11.73,11.36" class="stroke" stroke-dasharray="150"><set attributeName="opacity" to="0" dur="4.6000000000000005s" /><animate attributeName="stroke-dashoffset" from="150" to="0" dur="1.8s" begin="4.6000000000000005s" fill="freeze" /></path><path d="M45.37,28.26c0.59,0.46,1.44,2.57,1.56,3.49c0.12,0.92-0.25,29.44-0.38,31.72c-0.12,2.07,0.35,0.92-0.35,3.22c-0.71,2.3-0.71,2.76,0.71,1.15c1.42-1.61,9.1-7.58,14.29-11.33" class="stroke" stroke-dasharray="150"><set attributeName="opacity" to="0" dur="5.500000000000001s" /><animate attributeName="stroke-dashoffset" from="150" to="0" dur="1.8s" begin="5.500000000000001s" fill="freeze" /></path><path d="M60.42,25.68c0.81,0.91,1.48,4.73,1.48,7.05c0,18.14,2.35,51.53-15.62,62.18" class="stroke" stroke-dasharray="150"><set attributeName="opacity" to="0" dur="7.000000000000001s" /><animate attributeName="stroke-dashoffset" from="150" to="0" dur="1.8s" begin="7.000000000000001s" fill="freeze" /></path><path d="M71.54,22.49c0.65,0.21,1.96,1.5,3.26,1.28c1.3-0.21,12.33-2.64,13.96-2.85c1.63-0.21,4.44,0.83,4.74,3.57c0.75,6.76,0.25,25.76-1.11,39.88c-1.1,11.49-6.56,2.07-7.05,1.64" class="stroke" stroke-dasharray="150"><set attributeName="opacity" to="0" dur="8.700000000000001s" /><animate attributeName="stroke-dashoffset" from="150" to="0" dur="1.8s" begin="8.700000000000001s" fill="freeze" /></path><path d="M74.56,24.61c0.15,0.93,0,65.84-0.15,71.64" class="stroke" stroke-dasharray="150"><set attributeName="opacity" to="0" dur="10.4s" /><animate attributeName="stroke-dashoffset" from="150" to="0" dur="1.8s" begin="10.4s" fill="freeze" /></path><text x="90" y="120" id="reset-kvg-067f3-Kaisho">⟳</text><text x="70" y="120" id="pause-kvg-067f3-Kaisho">◼</text><script type="text/javascript"><![CDATA[function RecurringTimer(e,t){var n,r,i=t;this.pause=function(){window.clearTimeout(n);i-=new Date-r};var s=function(){r=new Date;n=window.setTimeout(function(){i=t;s();e()},i)};this.clear=function(){window.clearTimeout(n);i=t;n=window.setTimeout(function(){i=t;s();e()},i)};this.resume=s;this.resume()}function invoketimer(){timer=new RecurringTimer(function(){svg.setCurrentTime(0)},13100.0)}var svg=document.getElementById("kvg-067f3-Kaisho");var pause=document.getElementById("pause-kvg-067f3-Kaisho");var reset=document.getElementById("reset-kvg-067f3-Kaisho");var timer;invoketimer();reset.onclick=function(){svg.setCurrentTime(0);timer.clear();svg.unpauseAnimations();pause.innerHTML = "◼";};pause.onclick=function(){if(svg.animationsPaused()){svg.unpauseAnimations();timer.resume();pause.innerHTML="◼"}else{svg.pauseAnimations();timer.pause();pause.innerHTML="▶"}}]]></script></svg>