<svg id="kvg-0685f" class="kanjivg" width="106" height="126" xmlns="http://www.w3.org/2000/svg" xmlns:xlink="http://www.w3.org/1999/xlink" xml:space="preserve" version="1.1" baseProfile="full"><defs><style type="text/css"><![CDATA[path.black{fill:none;stroke:black;stroke-width:5;stroke-linecap:round;stroke-linejoin:round;}path.grey{fill:none;stroke:#ddd;stroke-width:5;stroke-linecap:round;stroke-linejoin:round;}path.stroke{fill:none;stroke:black;stroke-width:5;stroke-linecap:round;stroke-linejoin:round;}rect{fill:none;stroke:#555;stroke-width:2;} text{font-size:16px;font-family:Segoe UI Symbol,Cambria Math,DejaVu Sans,Symbola,Quivira,STIX,Code2000;-webkit-touch-callout:none;cursor:pointer;-webkit-user-select:none;-khtml-user-select:none;-moz-user-select:none;-ms-user-select:none;user-select: none;}text:hover{color:#777;}#reset{font-weight:bold;}]]></style><marker id="markerStart" markerWidth="8" markerHeight="8" style="overflow:visible;"><circle cx="0" cy="0" r="1.5" style="stroke:none;fill:red;fill-opacity:0.5;"/></marker><marker id="markerEnd" style="overflow:visible;"><circle cx="0" cy="0" r="0.8" style="stroke:none;fill:blue;fill-opacity:0.5;"><animate attributeName="opacity" from="1" to="0" dur="3s" repeatCount="indefinite" /></circle></marker></defs><rect x="4" y="4" width="100" height="100" /><path d="M12.53,39.47c1.09,0.76,4.21,0.47,5.49,0.3c4.48-0.6,13.22-2.05,18.84-3.08c1.25-0.23,3.01-0.55,4.4-0.31" class="grey" /><path d="M29.11,16.25c1.19,1.19,1.54,2.62,1.54,4.17c0,0.81,0.04,48.92-0.01,67.45c-0.01,3.15-0.01,5.45-0.01,6.5" class="grey" /><path d="M29.94,39.78c0,1.22-1.4,5.37-1.82,6.37c-4.62,10.86-7.98,16.18-15.76,26.93" class="grey" /><path d="M33.72,45.15c2.16,1.46,5.71,5.28,7.53,8.1" class="grey" /><path d="M47.99,30.65c2.63,0.48,4.77,0.41,6.91,0.1c6.87-0.98,16.92-3.08,24.48-4.69c2.04-0.43,3.74-0.69,5.61-0.47" class="grey" /><path d="M48.98,44.47c2.21,0.9,5.44,0.56,7.65-0.1c7-2.12,17-4.87,24.5-5.68c1.87-0.2,3.33-0.3,5.14-0.3" class="grey" /><path d="M44.89,59.59c2.68,0.96,5.74,0.52,8.39-0.18c9.09-2.41,24.09-6.03,36.48-7.2c2.1-0.2,4.61-0.33,6.4-0.03" class="grey" /><path d="M59.98,12.5c1.54,1.79,2.17,3.54,2.5,7.4c2.65,30.85,9.9,59.1,27.41,72.56c5.67,4.36,5.19,0.02,4.42-7.93" class="grey" /><path d="M84.95,59.28c0.1,0.76-0.21,1.74-0.71,2.79c-3.37,7.05-15.62,20.3-37.45,29.34" class="grey" /><path d="M76.38,11.75c3.75,1.71,9.74,5.63,11.49,8.56" class="grey" /><path d="M12.53,39.47c1.09,0.76,4.21,0.47,5.49,0.3c4.48-0.6,13.22-2.05,18.84-3.08c1.25-0.23,3.01-0.55,4.4-0.31" class="stroke" stroke-dasharray="150"><animate attributeName="stroke-dashoffset" from="150" to="0" dur="1.8s" begin="0.0s" fill="freeze" /></path><path d="M29.11,16.25c1.19,1.19,1.54,2.62,1.54,4.17c0,0.81,0.04,48.92-0.01,67.45c-0.01,3.15-0.01,5.45-0.01,6.5" class="stroke" stroke-dasharray="150"><set attributeName="opacity" to="0" dur="1.0s" /><animate attributeName="stroke-dashoffset" from="150" to="0" dur="1.8s" begin="1.0s" fill="freeze" /></path><path d="M29.94,39.78c0,1.22-1.4,5.37-1.82,6.37c-4.62,10.86-7.98,16.18-15.76,26.93" class="stroke" stroke-dasharray="150"><set attributeName="opacity" to="0" dur="2.7s" /><animate attributeName="stroke-dashoffset" from="150" to="0" dur="1.8s" begin="2.7s" fill="freeze" /></path><path d="M33.72,45.15c2.16,1.46,5.71,5.28,7.53,8.1" class="stroke" stroke-dasharray="150"><set attributeName="opacity" to="0" dur="3.7s" /><animate attributeName="stroke-dashoffset" from="150" to="0" dur="1.8s" begin="3.7s" fill="freeze" /></path><path d="M47.99,30.65c2.63,0.48,4.77,0.41,6.91,0.1c6.87-0.98,16.92-3.08,24.48-4.69c2.04-0.43,3.74-0.69,5.61-0.47" class="stroke" stroke-dasharray="150"><set attributeName="opacity" to="0" dur="4.6000000000000005s" /><animate attributeName="stroke-dashoffset" from="150" to="0" dur="1.8s" begin="4.6000000000000005s" fill="freeze" /></path><path d="M48.98,44.47c2.21,0.9,5.44,0.56,7.65-0.1c7-2.12,17-4.87,24.5-5.68c1.87-0.2,3.33-0.3,5.14-0.3" class="stroke" stroke-dasharray="150"><set attributeName="opacity" to="0" dur="5.6000000000000005s" /><animate attributeName="stroke-dashoffset" from="150" to="0" dur="1.8s" begin="5.6000000000000005s" fill="freeze" /></path><path d="M44.89,59.59c2.68,0.96,5.74,0.52,8.39-0.18c9.09-2.41,24.09-6.03,36.48-7.2c2.1-0.2,4.61-0.33,6.4-0.03" class="stroke" stroke-dasharray="150"><set attributeName="opacity" to="0" dur="6.6000000000000005s" /><animate attributeName="stroke-dashoffset" from="150" to="0" dur="1.8s" begin="6.6000000000000005s" fill="freeze" /></path><path d="M59.98,12.5c1.54,1.79,2.17,3.54,2.5,7.4c2.65,30.85,9.9,59.1,27.41,72.56c5.67,4.36,5.19,0.02,4.42-7.93" class="stroke" stroke-dasharray="150"><set attributeName="opacity" to="0" dur="7.9s" /><animate attributeName="stroke-dashoffset" from="150" to="0" dur="1.8s" begin="7.9s" fill="freeze" /></path><path d="M84.95,59.28c0.1,0.76-0.21,1.74-0.71,2.79c-3.37,7.05-15.62,20.3-37.45,29.34" class="stroke" stroke-dasharray="150"><set attributeName="opacity" to="0" dur="9.8s" /><animate attributeName="stroke-dashoffset" from="150" to="0" dur="1.8s" begin="9.8s" fill="freeze" /></path><path d="M76.38,11.75c3.75,1.71,9.74,5.63,11.49,8.56" class="stroke" stroke-dasharray="150"><set attributeName="opacity" to="0" dur="11.100000000000001s" /><animate attributeName="stroke-dashoffset" from="150" to="0" dur="1.8s" begin="11.100000000000001s" fill="freeze" /></path><text x="90" y="120" id="reset-kvg-0685f">⟳</text><text x="70" y="120" id="pause-kvg-0685f">◼</text><script type="text/javascript"><![CDATA[function RecurringTimer(e,t){var n,r,i=t;this.pause=function(){window.clearTimeout(n);i-=new Date-r};var s=function(){r=new Date;n=window.setTimeout(function(){i=t;s();e()},i)};this.clear=function(){window.clearTimeout(n);i=t;n=window.setTimeout(function(){i=t;s();e()},i)};this.resume=s;this.resume()}function invoketimer(){timer=new RecurringTimer(function(){svg.setCurrentTime(0)},13000.000000000002)}var svg=document.getElementById("kvg-0685f");var pause=document.getElementById("pause-kvg-0685f");var reset=document.getElementById("reset-kvg-0685f");var timer;invoketimer();reset.onclick=function(){svg.setCurrentTime(0);timer.clear();svg.unpauseAnimations();pause.innerHTML = "◼";};pause.onclick=function(){if(svg.animationsPaused()){svg.unpauseAnimations();timer.resume();pause.innerHTML="◼"}else{svg.pauseAnimations();timer.pause();pause.innerHTML="▶"}}]]></script></svg>