<svg id="kvg-068c9-Kaisho" class="kanjivg" width="106" height="126" xmlns="http://www.w3.org/2000/svg" xmlns:xlink="http://www.w3.org/1999/xlink" xml:space="preserve" version="1.1" baseProfile="full"><defs><style type="text/css"><![CDATA[path.black{fill:none;stroke:black;stroke-width:5;stroke-linecap:round;stroke-linejoin:round;}path.grey{fill:none;stroke:#ddd;stroke-width:5;stroke-linecap:round;stroke-linejoin:round;}path.stroke{fill:none;stroke:black;stroke-width:5;stroke-linecap:round;stroke-linejoin:round;}rect{fill:none;stroke:#555;stroke-width:2;} text{font-size:16px;font-family:Segoe UI Symbol,Cambria Math,DejaVu Sans,Symbola,Quivira,STIX,Code2000;-webkit-touch-callout:none;cursor:pointer;-webkit-user-select:none;-khtml-user-select:none;-moz-user-select:none;-ms-user-select:none;user-select: none;}text:hover{color:#777;}#reset{font-weight:bold;}]]></style><marker id="markerStart" markerWidth="8" markerHeight="8" style="overflow:visible;"><circle cx="0" cy="0" r="1.5" style="stroke:none;fill:red;fill-opacity:0.5;"/></marker><marker id="markerEnd" style="overflow:visible;"><circle cx="0" cy="0" r="0.8" style="stroke:none;fill:blue;fill-opacity:0.5;"><animate attributeName="opacity" from="1" to="0" dur="3s" repeatCount="indefinite" /></circle></marker></defs><rect x="4" y="4" width="100" height="100" /><path d="M15.28,39.72c0.35,0.24,2.39,0.41,3.31,0.31c3.94-0.41,17.12-2.21,23.45-3.41c0.92-0.17,2.15-0.24,2.73,0" class="grey" /><path d="M31.36,14.5c0.91,0.47,2.04,2.5,2.04,4.42c0,4.58-0.3,72.73-0.3,73.58c0,11.75-4.47,5.12-6.35,3.25" class="grey" /><path d="M32.94,42.28C26.47,55.91,23.5,62.5,12.86,73.59" class="grey" /><path d="M36.47,47.9c2.37,1.59,5.66,7.05,7.66,10.14" class="grey" /><path d="M71.22,10.5c0.31,0.43,0.35,0.95,0.28,1.33c-0.43,2.2-5.14,7.98-8.52,10.94" class="grey" /><path d="M53.85,23.56c0.52,1.02,0.82,1.55,1.04,2.9c0.61,3.79,2.12,14.38,3.11,24.15" class="grey" /><path d="M55.2,25.97c2.92-0.17,29.05-3.2,31.71-3.4c2.21-0.17,3.55,0.56,3.47,3.08c-0.07,2.1-1.13,12.7-4.16,23.4" class="grey" /><path d="M57.58,36.52c5.35-0.4,10.7-0.91,16.05-1.36c1.49-0.13,2.98-0.25,4.43-0.37" class="grey" /><path d="M58.51,48.24c10.51-1.15,19.64-1.36,27.72-1.9" class="grey" /><path d="M53.62,61.15c0.38,1.35,1.31,3.07,1.33,3.65c0.17,7.28-0.66,15.01-0.52,23.25" class="grey" /><path d="M55.5,64.04c2.75-0.26,32.87-3.76,34.92-3.92c2.41-0.19,3.93,3.24,3.84,4.92c-0.43,8.44-1.6,12.78-3.53,21.62c-1.28,5.85-4.12,1.32-5.28-0.73" class="grey" /><path d="M70.42,49.49c0.62,0.37,1.94,2.75,2.06,3.49c0.12,0.74-0.08,41.81-0.21,46.4" class="grey" /><path d="M15.28,39.72c0.35,0.24,2.39,0.41,3.31,0.31c3.94-0.41,17.12-2.21,23.45-3.41c0.92-0.17,2.15-0.24,2.73,0" class="stroke" stroke-dasharray="150"><animate attributeName="stroke-dashoffset" from="150" to="0" dur="1.8s" begin="0.0s" fill="freeze" /></path><path d="M31.36,14.5c0.91,0.47,2.04,2.5,2.04,4.42c0,4.58-0.3,72.73-0.3,73.58c0,11.75-4.47,5.12-6.35,3.25" class="stroke" stroke-dasharray="150"><set attributeName="opacity" to="0" dur="1.0s" /><animate attributeName="stroke-dashoffset" from="150" to="0" dur="1.8s" begin="1.0s" fill="freeze" /></path><path d="M32.94,42.28C26.47,55.91,23.5,62.5,12.86,73.59" class="stroke" stroke-dasharray="150"><set attributeName="opacity" to="0" dur="2.8s" /><animate attributeName="stroke-dashoffset" from="150" to="0" dur="1.8s" begin="2.8s" fill="freeze" /></path><path d="M36.47,47.9c2.37,1.59,5.66,7.05,7.66,10.14" class="stroke" stroke-dasharray="150"><set attributeName="opacity" to="0" dur="3.8s" /><animate attributeName="stroke-dashoffset" from="150" to="0" dur="1.8s" begin="3.8s" fill="freeze" /></path><path d="M71.22,10.5c0.31,0.43,0.35,0.95,0.28,1.33c-0.43,2.2-5.14,7.98-8.52,10.94" class="stroke" stroke-dasharray="150"><set attributeName="opacity" to="0" dur="4.7s" /><animate attributeName="stroke-dashoffset" from="150" to="0" dur="1.8s" begin="4.7s" fill="freeze" /></path><path d="M53.85,23.56c0.52,1.02,0.82,1.55,1.04,2.9c0.61,3.79,2.12,14.38,3.11,24.15" class="stroke" stroke-dasharray="150"><set attributeName="opacity" to="0" dur="5.6000000000000005s" /><animate attributeName="stroke-dashoffset" from="150" to="0" dur="1.8s" begin="5.6000000000000005s" fill="freeze" /></path><path d="M55.2,25.97c2.92-0.17,29.05-3.2,31.71-3.4c2.21-0.17,3.55,0.56,3.47,3.08c-0.07,2.1-1.13,12.7-4.16,23.4" class="stroke" stroke-dasharray="150"><set attributeName="opacity" to="0" dur="6.6000000000000005s" /><animate attributeName="stroke-dashoffset" from="150" to="0" dur="1.8s" begin="6.6000000000000005s" fill="freeze" /></path><path d="M57.58,36.52c5.35-0.4,10.7-0.91,16.05-1.36c1.49-0.13,2.98-0.25,4.43-0.37" class="stroke" stroke-dasharray="150"><set attributeName="opacity" to="0" dur="8.100000000000001s" /><animate attributeName="stroke-dashoffset" from="150" to="0" dur="1.8s" begin="8.100000000000001s" fill="freeze" /></path><path d="M58.51,48.24c10.51-1.15,19.64-1.36,27.72-1.9" class="stroke" stroke-dasharray="150"><set attributeName="opacity" to="0" dur="9.100000000000001s" /><animate attributeName="stroke-dashoffset" from="150" to="0" dur="1.8s" begin="9.100000000000001s" fill="freeze" /></path><path d="M53.62,61.15c0.38,1.35,1.31,3.07,1.33,3.65c0.17,7.28-0.66,15.01-0.52,23.25" class="stroke" stroke-dasharray="150"><set attributeName="opacity" to="0" dur="10.100000000000001s" /><animate attributeName="stroke-dashoffset" from="150" to="0" dur="1.8s" begin="10.100000000000001s" fill="freeze" /></path><path d="M55.5,64.04c2.75-0.26,32.87-3.76,34.92-3.92c2.41-0.19,3.93,3.24,3.84,4.92c-0.43,8.44-1.6,12.78-3.53,21.62c-1.28,5.85-4.12,1.32-5.28-0.73" class="stroke" stroke-dasharray="150"><set attributeName="opacity" to="0" dur="11.100000000000001s" /><animate attributeName="stroke-dashoffset" from="150" to="0" dur="1.8s" begin="11.100000000000001s" fill="freeze" /></path><path d="M70.42,49.49c0.62,0.37,1.94,2.75,2.06,3.49c0.12,0.74-0.08,41.81-0.21,46.4" class="stroke" stroke-dasharray="150"><set attributeName="opacity" to="0" dur="12.8s" /><animate attributeName="stroke-dashoffset" from="150" to="0" dur="1.8s" begin="12.8s" fill="freeze" /></path><text x="90" y="120" id="reset-kvg-068c9-Kaisho">⟳</text><text x="70" y="120" id="pause-kvg-068c9-Kaisho">◼</text><script type="text/javascript"><![CDATA[function RecurringTimer(e,t){var n,r,i=t;this.pause=function(){window.clearTimeout(n);i-=new Date-r};var s=function(){r=new Date;n=window.setTimeout(function(){i=t;s();e()},i)};this.clear=function(){window.clearTimeout(n);i=t;n=window.setTimeout(function(){i=t;s();e()},i)};this.resume=s;this.resume()}function invoketimer(){timer=new RecurringTimer(function(){svg.setCurrentTime(0)},15100.000000000002)}var svg=document.getElementById("kvg-068c9-Kaisho");var pause=document.getElementById("pause-kvg-068c9-Kaisho");var reset=document.getElementById("reset-kvg-068c9-Kaisho");var timer;invoketimer();reset.onclick=function(){svg.setCurrentTime(0);timer.clear();svg.unpauseAnimations();pause.innerHTML = "◼";};pause.onclick=function(){if(svg.animationsPaused()){svg.unpauseAnimations();timer.resume();pause.innerHTML="◼"}else{svg.pauseAnimations();timer.pause();pause.innerHTML="▶"}}]]></script></svg>