<svg id="kvg-068cb-Kaisho" class="kanjivg" width="106" height="126" xmlns="http://www.w3.org/2000/svg" xmlns:xlink="http://www.w3.org/1999/xlink" xml:space="preserve" version="1.1" baseProfile="full"><defs><style type="text/css"><![CDATA[path.black{fill:none;stroke:black;stroke-width:5;stroke-linecap:round;stroke-linejoin:round;}path.grey{fill:none;stroke:#ddd;stroke-width:5;stroke-linecap:round;stroke-linejoin:round;}path.stroke{fill:none;stroke:black;stroke-width:5;stroke-linecap:round;stroke-linejoin:round;}rect{fill:none;stroke:#555;stroke-width:2;} text{font-size:16px;font-family:Segoe UI Symbol,Cambria Math,DejaVu Sans,Symbola,Quivira,STIX,Code2000;-webkit-touch-callout:none;cursor:pointer;-webkit-user-select:none;-khtml-user-select:none;-moz-user-select:none;-ms-user-select:none;user-select: none;}text:hover{color:#777;}#reset{font-weight:bold;}]]></style><marker id="markerStart" markerWidth="8" markerHeight="8" style="overflow:visible;"><circle cx="0" cy="0" r="1.5" style="stroke:none;fill:red;fill-opacity:0.5;"/></marker><marker id="markerEnd" style="overflow:visible;"><circle cx="0" cy="0" r="0.8" style="stroke:none;fill:blue;fill-opacity:0.5;"><animate attributeName="opacity" from="1" to="0" dur="3s" repeatCount="indefinite" /></circle></marker></defs><rect x="4" y="4" width="100" height="100" /><path d="M12.78,38.72c0.39,0.24,2.66,0.41,3.69,0.31c4.39-0.41,15.2-3.21,22.26-4.41c1.02-0.17,2.4-0.24,3.04,0" class="grey" /><path d="M28.48,15.5c1.02,0.47,3.39,2.75,3.39,4.42c0,5.33-0.34,68.73-0.34,69.58c0,11.25-5.15,2.38-6.28,1.25" class="grey" /><path d="M31.35,40.28c-5.68,15.04-9.85,21.4-18.65,34.56" class="grey" /><path d="M35.18,45.4c2.65,1.59,6,5.76,8.23,8.85" class="grey" /><path d="M47.63,36.84c1.37-0.09,3.09-0.08,3.83-0.16C58.25,36,82.5,32.5,90.84,31.93c1.23-0.08,1.97,0.16,2.58,0.33" class="grey" /><path d="M56.32,19.78c0.85,0.48,1.36,2.15,1.53,3.11c0.17,0.96,0,43.77-0.17,49.74" class="grey" /><path d="M77.47,16c0.85,0.48,1.36,2.15,1.54,3.11c0.17,0.96,0,45.64-0.17,51.61" class="grey" /><path d="M58.18,47.37c3.43-0.26,6.86-0.85,10.26-1.32c1.08-0.15,2.17-0.3,3.2-0.44" class="grey" /><path d="M57.99,59.77c3.33-0.22,6.66-0.77,9.97-1.23c1.03-0.14,2.07-0.29,3.08-0.43" class="grey" /><path d="M43.23,74.68c1.52,0.07,3.03,0.08,4.11,0c6.16-0.44,34.91-4.69,46.17-4.86c1.79-0.03,2.86,0.24,3.75,0.49" class="grey" /><path d="M57.23,80.21c0.04,0.34,0.09,0.88-0.08,1.38c-1.02,2.9-6.88,9.27-14.89,13.16" class="grey" /><path d="M75.75,78.75c6.51,2.78,16.81,11.41,18.44,15.73" class="grey" /><path d="M12.78,38.72c0.39,0.24,2.66,0.41,3.69,0.31c4.39-0.41,15.2-3.21,22.26-4.41c1.02-0.17,2.4-0.24,3.04,0" class="stroke" stroke-dasharray="150"><animate attributeName="stroke-dashoffset" from="150" to="0" dur="1.8s" begin="0.0s" fill="freeze" /></path><path d="M28.48,15.5c1.02,0.47,3.39,2.75,3.39,4.42c0,5.33-0.34,68.73-0.34,69.58c0,11.25-5.15,2.38-6.28,1.25" class="stroke" stroke-dasharray="150"><set attributeName="opacity" to="0" dur="1.0s" /><animate attributeName="stroke-dashoffset" from="150" to="0" dur="1.8s" begin="1.0s" fill="freeze" /></path><path d="M31.35,40.28c-5.68,15.04-9.85,21.4-18.65,34.56" class="stroke" stroke-dasharray="150"><set attributeName="opacity" to="0" dur="2.7s" /><animate attributeName="stroke-dashoffset" from="150" to="0" dur="1.8s" begin="2.7s" fill="freeze" /></path><path d="M35.18,45.4c2.65,1.59,6,5.76,8.23,8.85" class="stroke" stroke-dasharray="150"><set attributeName="opacity" to="0" dur="3.7s" /><animate attributeName="stroke-dashoffset" from="150" to="0" dur="1.8s" begin="3.7s" fill="freeze" /></path><path d="M47.63,36.84c1.37-0.09,3.09-0.08,3.83-0.16C58.25,36,82.5,32.5,90.84,31.93c1.23-0.08,1.97,0.16,2.58,0.33" class="stroke" stroke-dasharray="150"><set attributeName="opacity" to="0" dur="4.6000000000000005s" /><animate attributeName="stroke-dashoffset" from="150" to="0" dur="1.8s" begin="4.6000000000000005s" fill="freeze" /></path><path d="M56.32,19.78c0.85,0.48,1.36,2.15,1.53,3.11c0.17,0.96,0,43.77-0.17,49.74" class="stroke" stroke-dasharray="150"><set attributeName="opacity" to="0" dur="5.800000000000001s" /><animate attributeName="stroke-dashoffset" from="150" to="0" dur="1.8s" begin="5.800000000000001s" fill="freeze" /></path><path d="M77.47,16c0.85,0.48,1.36,2.15,1.54,3.11c0.17,0.96,0,45.64-0.17,51.61" class="stroke" stroke-dasharray="150"><set attributeName="opacity" to="0" dur="7.1000000000000005s" /><animate attributeName="stroke-dashoffset" from="150" to="0" dur="1.8s" begin="7.1000000000000005s" fill="freeze" /></path><path d="M58.18,47.37c3.43-0.26,6.86-0.85,10.26-1.32c1.08-0.15,2.17-0.3,3.2-0.44" class="stroke" stroke-dasharray="150"><set attributeName="opacity" to="0" dur="8.5s" /><animate attributeName="stroke-dashoffset" from="150" to="0" dur="1.8s" begin="8.5s" fill="freeze" /></path><path d="M57.99,59.77c3.33-0.22,6.66-0.77,9.97-1.23c1.03-0.14,2.07-0.29,3.08-0.43" class="stroke" stroke-dasharray="150"><set attributeName="opacity" to="0" dur="9.4s" /><animate attributeName="stroke-dashoffset" from="150" to="0" dur="1.8s" begin="9.4s" fill="freeze" /></path><path d="M43.23,74.68c1.52,0.07,3.03,0.08,4.11,0c6.16-0.44,34.91-4.69,46.17-4.86c1.79-0.03,2.86,0.24,3.75,0.49" class="stroke" stroke-dasharray="150"><set attributeName="opacity" to="0" dur="10.3s" /><animate attributeName="stroke-dashoffset" from="150" to="0" dur="1.8s" begin="10.3s" fill="freeze" /></path><path d="M57.23,80.21c0.04,0.34,0.09,0.88-0.08,1.38c-1.02,2.9-6.88,9.27-14.89,13.16" class="stroke" stroke-dasharray="150"><set attributeName="opacity" to="0" dur="11.600000000000001s" /><animate attributeName="stroke-dashoffset" from="150" to="0" dur="1.8s" begin="11.600000000000001s" fill="freeze" /></path><path d="M75.75,78.75c6.51,2.78,16.81,11.41,18.44,15.73" class="stroke" stroke-dasharray="150"><set attributeName="opacity" to="0" dur="12.600000000000001s" /><animate attributeName="stroke-dashoffset" from="150" to="0" dur="1.8s" begin="12.600000000000001s" fill="freeze" /></path><text x="90" y="120" id="reset-kvg-068cb-Kaisho">⟳</text><text x="70" y="120" id="pause-kvg-068cb-Kaisho">◼</text><script type="text/javascript"><![CDATA[function RecurringTimer(e,t){var n,r,i=t;this.pause=function(){window.clearTimeout(n);i-=new Date-r};var s=function(){r=new Date;n=window.setTimeout(function(){i=t;s();e()},i)};this.clear=function(){window.clearTimeout(n);i=t;n=window.setTimeout(function(){i=t;s();e()},i)};this.resume=s;this.resume()}function invoketimer(){timer=new RecurringTimer(function(){svg.setCurrentTime(0)},14600.000000000002)}var svg=document.getElementById("kvg-068cb-Kaisho");var pause=document.getElementById("pause-kvg-068cb-Kaisho");var reset=document.getElementById("reset-kvg-068cb-Kaisho");var timer;invoketimer();reset.onclick=function(){svg.setCurrentTime(0);timer.clear();svg.unpauseAnimations();pause.innerHTML = "◼";};pause.onclick=function(){if(svg.animationsPaused()){svg.unpauseAnimations();timer.resume();pause.innerHTML="◼"}else{svg.pauseAnimations();timer.pause();pause.innerHTML="▶"}}]]></script></svg>