<svg id="kvg-068da-Kaisho" class="kanjivg" width="106" height="126" xmlns="http://www.w3.org/2000/svg" xmlns:xlink="http://www.w3.org/1999/xlink" xml:space="preserve" version="1.1" baseProfile="full"><defs><style type="text/css"><![CDATA[path.black{fill:none;stroke:black;stroke-width:5;stroke-linecap:round;stroke-linejoin:round;}path.grey{fill:none;stroke:#ddd;stroke-width:5;stroke-linecap:round;stroke-linejoin:round;}path.stroke{fill:none;stroke:black;stroke-width:5;stroke-linecap:round;stroke-linejoin:round;}rect{fill:none;stroke:#555;stroke-width:2;} text{font-size:16px;font-family:Segoe UI Symbol,Cambria Math,DejaVu Sans,Symbola,Quivira,STIX,Code2000;-webkit-touch-callout:none;cursor:pointer;-webkit-user-select:none;-khtml-user-select:none;-moz-user-select:none;-ms-user-select:none;user-select: none;}text:hover{color:#777;}#reset{font-weight:bold;}]]></style><marker id="markerStart" markerWidth="8" markerHeight="8" style="overflow:visible;"><circle cx="0" cy="0" r="1.5" style="stroke:none;fill:red;fill-opacity:0.5;"/></marker><marker id="markerEnd" style="overflow:visible;"><circle cx="0" cy="0" r="0.8" style="stroke:none;fill:blue;fill-opacity:0.5;"><animate attributeName="opacity" from="1" to="0" dur="3s" repeatCount="indefinite" /></circle></marker></defs><rect x="4" y="4" width="100" height="100" /><path d="M13.28,38.72c0.35,0.24,2.39,0.41,3.31,0.31c3.94-0.41,15.12-2.21,21.45-3.41c0.92-0.17,2.15-0.24,2.73,0" class="grey" /><path d="M27.36,17c1.14,1.25,2.04,2.5,2.04,4.42c0,0.95-0.3,65.73-0.3,66.58c0,11.5-5.47,2.62-6.35,1.75" class="grey" /><path d="M28.94,40.28c-5.1,15.04-7.94,21.4-15.83,34.56" class="grey" /><path d="M31.47,43.9c2.37,1.59,6.28,6.76,8.28,9.85" class="grey" /><path d="M45.94,20.19c0.55,0.93,0.91,1.86,1.09,2.79c0.18,0.93,0.18,19.51,0.18,29.96c0,10-2.72,31.56-8.71,38.56" class="grey" /><path d="M48.13,22.05c2.19-0.23,11.32-2.3,12.95-2.56C64,19.03,64,21.51,64,22.98c0,7.9-0.55,43.53-0.55,60.86c0,12.08-4.38,4.18-6.2,2.09" class="grey" /><path d="M48.13,41.44c2.29-0.34,4.59-0.7,6.89-1.02c0.68-0.09,1.38-0.19,2.06-0.27" class="grey" /><path d="M47.22,61.71c2.54-0.3,5.06-0.69,7.59-1.03c0.6-0.08,1.2-0.16,1.83-0.24" class="grey" /><path d="M75.24,18.71c0.53,0.95,0.88,1.9,1.05,2.85c0.17,0.95,0.17,24.19,0.17,30.59c0,10.21-2.22,30.61-8.41,39.36" class="grey" /><path d="M76.99,21.08c2.11-0.24,13.37-2.82,14.94-3.08c2.81-0.47,2.81,2.06,2.81,3.56c0,8.06-0.53,44.43-0.53,62.12c0,7.82-2.16,5.69-3.92,3.56" class="grey" /><path d="M77.35,39.81c2.55-0.4,5.12-0.73,7.69-1.04c0.79-0.1,1.59-0.19,2.38-0.28" class="grey" /><path d="M76.47,59.65c2.78-0.35,5.57-0.6,8.37-0.8c0.71-0.05,1.42-0.1,2.15-0.15" class="grey" /><path d="M13.28,38.72c0.35,0.24,2.39,0.41,3.31,0.31c3.94-0.41,15.12-2.21,21.45-3.41c0.92-0.17,2.15-0.24,2.73,0" class="stroke" stroke-dasharray="150"><animate attributeName="stroke-dashoffset" from="150" to="0" dur="1.8s" begin="0.0s" fill="freeze" /></path><path d="M27.36,17c1.14,1.25,2.04,2.5,2.04,4.42c0,0.95-0.3,65.73-0.3,66.58c0,11.5-5.47,2.62-6.35,1.75" class="stroke" stroke-dasharray="150"><set attributeName="opacity" to="0" dur="1.0s" /><animate attributeName="stroke-dashoffset" from="150" to="0" dur="1.8s" begin="1.0s" fill="freeze" /></path><path d="M28.94,40.28c-5.1,15.04-7.94,21.4-15.83,34.56" class="stroke" stroke-dasharray="150"><set attributeName="opacity" to="0" dur="2.7s" /><animate attributeName="stroke-dashoffset" from="150" to="0" dur="1.8s" begin="2.7s" fill="freeze" /></path><path d="M31.47,43.9c2.37,1.59,6.28,6.76,8.28,9.85" class="stroke" stroke-dasharray="150"><set attributeName="opacity" to="0" dur="3.7s" /><animate attributeName="stroke-dashoffset" from="150" to="0" dur="1.8s" begin="3.7s" fill="freeze" /></path><path d="M45.94,20.19c0.55,0.93,0.91,1.86,1.09,2.79c0.18,0.93,0.18,19.51,0.18,29.96c0,10-2.72,31.56-8.71,38.56" class="stroke" stroke-dasharray="150"><set attributeName="opacity" to="0" dur="4.6000000000000005s" /><animate attributeName="stroke-dashoffset" from="150" to="0" dur="1.8s" begin="4.6000000000000005s" fill="freeze" /></path><path d="M48.13,22.05c2.19-0.23,11.32-2.3,12.95-2.56C64,19.03,64,21.51,64,22.98c0,7.9-0.55,43.53-0.55,60.86c0,12.08-4.38,4.18-6.2,2.09" class="stroke" stroke-dasharray="150"><set attributeName="opacity" to="0" dur="6.300000000000001s" /><animate attributeName="stroke-dashoffset" from="150" to="0" dur="1.8s" begin="6.300000000000001s" fill="freeze" /></path><path d="M48.13,41.44c2.29-0.34,4.59-0.7,6.89-1.02c0.68-0.09,1.38-0.19,2.06-0.27" class="stroke" stroke-dasharray="150"><set attributeName="opacity" to="0" dur="8.100000000000001s" /><animate attributeName="stroke-dashoffset" from="150" to="0" dur="1.8s" begin="8.100000000000001s" fill="freeze" /></path><path d="M47.22,61.71c2.54-0.3,5.06-0.69,7.59-1.03c0.6-0.08,1.2-0.16,1.83-0.24" class="stroke" stroke-dasharray="150"><set attributeName="opacity" to="0" dur="9.000000000000002s" /><animate attributeName="stroke-dashoffset" from="150" to="0" dur="1.8s" begin="9.000000000000002s" fill="freeze" /></path><path d="M75.24,18.71c0.53,0.95,0.88,1.9,1.05,2.85c0.17,0.95,0.17,24.19,0.17,30.59c0,10.21-2.22,30.61-8.41,39.36" class="stroke" stroke-dasharray="150"><set attributeName="opacity" to="0" dur="9.900000000000002s" /><animate attributeName="stroke-dashoffset" from="150" to="0" dur="1.8s" begin="9.900000000000002s" fill="freeze" /></path><path d="M76.99,21.08c2.11-0.24,13.37-2.82,14.94-3.08c2.81-0.47,2.81,2.06,2.81,3.56c0,8.06-0.53,44.43-0.53,62.12c0,7.82-2.16,5.69-3.92,3.56" class="stroke" stroke-dasharray="150"><set attributeName="opacity" to="0" dur="11.600000000000001s" /><animate attributeName="stroke-dashoffset" from="150" to="0" dur="1.8s" begin="11.600000000000001s" fill="freeze" /></path><path d="M77.35,39.81c2.55-0.4,5.12-0.73,7.69-1.04c0.79-0.1,1.59-0.19,2.38-0.28" class="stroke" stroke-dasharray="150"><set attributeName="opacity" to="0" dur="13.400000000000002s" /><animate attributeName="stroke-dashoffset" from="150" to="0" dur="1.8s" begin="13.400000000000002s" fill="freeze" /></path><path d="M76.47,59.65c2.78-0.35,5.57-0.6,8.37-0.8c0.71-0.05,1.42-0.1,2.15-0.15" class="stroke" stroke-dasharray="150"><set attributeName="opacity" to="0" dur="14.300000000000002s" /><animate attributeName="stroke-dashoffset" from="150" to="0" dur="1.8s" begin="14.300000000000002s" fill="freeze" /></path><text x="90" y="120" id="reset-kvg-068da-Kaisho">⟳</text><text x="70" y="120" id="pause-kvg-068da-Kaisho">◼</text><script type="text/javascript"><![CDATA[function RecurringTimer(e,t){var n,r,i=t;this.pause=function(){window.clearTimeout(n);i-=new Date-r};var s=function(){r=new Date;n=window.setTimeout(function(){i=t;s();e()},i)};this.clear=function(){window.clearTimeout(n);i=t;n=window.setTimeout(function(){i=t;s();e()},i)};this.resume=s;this.resume()}function invoketimer(){timer=new RecurringTimer(function(){svg.setCurrentTime(0)},16200.000000000004)}var svg=document.getElementById("kvg-068da-Kaisho");var pause=document.getElementById("pause-kvg-068da-Kaisho");var reset=document.getElementById("reset-kvg-068da-Kaisho");var timer;invoketimer();reset.onclick=function(){svg.setCurrentTime(0);timer.clear();svg.unpauseAnimations();pause.innerHTML = "◼";};pause.onclick=function(){if(svg.animationsPaused()){svg.unpauseAnimations();timer.resume();pause.innerHTML="◼"}else{svg.pauseAnimations();timer.pause();pause.innerHTML="▶"}}]]></script></svg>