<svg id="kvg-068e0" class="kanjivg" width="106" height="126" xmlns="http://www.w3.org/2000/svg" xmlns:xlink="http://www.w3.org/1999/xlink" xml:space="preserve" version="1.1" baseProfile="full"><defs><style type="text/css"><![CDATA[path.black{fill:none;stroke:black;stroke-width:5;stroke-linecap:round;stroke-linejoin:round;}path.grey{fill:none;stroke:#ddd;stroke-width:5;stroke-linecap:round;stroke-linejoin:round;}path.stroke{fill:none;stroke:black;stroke-width:5;stroke-linecap:round;stroke-linejoin:round;}rect{fill:none;stroke:#555;stroke-width:2;} text{font-size:16px;font-family:Segoe UI Symbol,Cambria Math,DejaVu Sans,Symbola,Quivira,STIX,Code2000;-webkit-touch-callout:none;cursor:pointer;-webkit-user-select:none;-khtml-user-select:none;-moz-user-select:none;-ms-user-select:none;user-select: none;}text:hover{color:#777;}#reset{font-weight:bold;}]]></style><marker id="markerStart" markerWidth="8" markerHeight="8" style="overflow:visible;"><circle cx="0" cy="0" r="1.5" style="stroke:none;fill:red;fill-opacity:0.5;"/></marker><marker id="markerEnd" style="overflow:visible;"><circle cx="0" cy="0" r="0.8" style="stroke:none;fill:blue;fill-opacity:0.5;"><animate attributeName="opacity" from="1" to="0" dur="3s" repeatCount="indefinite" /></circle></marker></defs><rect x="4" y="4" width="100" height="100" /><path d="M52.46,11.37c0.09,0.26,1.17,1.35,1.26,2.99c0.4,7.9,0.24,13.07,0.24,15.76" class="grey" /><path d="M29.77,18.08c2.66,1.83,6.88,7.53,7.54,10.38" class="grey" /><path d="M78.51,12.75c0.03,0.32,0.05,0.83-0.05,1.3c-0.61,2.74-4.11,8.74-8.9,12.42" class="grey" /><path d="M17.32,30.13c-0.15,3.7-2.78,12.36-4.07,14.56" class="grey" /><path d="M17.49,33.18c3.62,0,50-4.12,68.14-5.12c10.12-0.56,0.99,7.94-0.71,9.2" class="grey" /><path d="M32.64,40.38c0.34,0.27,0.73,0.48,0.84,0.83c0.97,3.06,2.21,11.98,3.19,16.47" class="grey" /><path d="M34.77,42.17c6.32-0.65,32.32-3.66,38.15-4.31c1.46-0.16,3.18,0.8,2.55,2.67c-1.01,3.04-1.87,8.86-3.59,12.99" class="grey" /><path d="M36.88,55.83c8.17-0.89,29.87-2.33,37.71-2.55" class="grey" /><path d="M18.75,69.54c0.99,0.19,3.66,0.85,6.29,0.56C35,69,66.08,66.3,84.29,65.37c2.64-0.14,3.96-0.12,5.96,0.5" class="grey" /><path d="M53.05,57.75c0.94,0.43,1.5,1.94,1.69,2.8c0.19,0.86,0,33.07-0.19,38.45" class="grey" /><path d="M52.25,68.3C45.6,77.48,28.32,90.46,14.5,95.65" class="grey" /><path d="M55,68.15c4.98,3.34,26.84,19.12,32.25,22.4c1.84,1.11,3.41,1.59,5.25,1.91" class="grey" /><path d="M52.46,11.37c0.09,0.26,1.17,1.35,1.26,2.99c0.4,7.9,0.24,13.07,0.24,15.76" class="stroke" stroke-dasharray="150"><animate attributeName="stroke-dashoffset" from="150" to="0" dur="1.8s" begin="0.0s" fill="freeze" /></path><path d="M29.77,18.08c2.66,1.83,6.88,7.53,7.54,10.38" class="stroke" stroke-dasharray="150"><set attributeName="opacity" to="0" dur="0.9s" /><animate attributeName="stroke-dashoffset" from="150" to="0" dur="1.8s" begin="0.9s" fill="freeze" /></path><path d="M78.51,12.75c0.03,0.32,0.05,0.83-0.05,1.3c-0.61,2.74-4.11,8.74-8.9,12.42" class="stroke" stroke-dasharray="150"><set attributeName="opacity" to="0" dur="1.8s" /><animate attributeName="stroke-dashoffset" from="150" to="0" dur="1.8s" begin="1.8s" fill="freeze" /></path><path d="M17.32,30.13c-0.15,3.7-2.78,12.36-4.07,14.56" class="stroke" stroke-dasharray="150"><set attributeName="opacity" to="0" dur="2.7s" /><animate attributeName="stroke-dashoffset" from="150" to="0" dur="1.8s" begin="2.7s" fill="freeze" /></path><path d="M17.49,33.18c3.62,0,50-4.12,68.14-5.12c10.12-0.56,0.99,7.94-0.71,9.2" class="stroke" stroke-dasharray="150"><set attributeName="opacity" to="0" dur="3.6s" /><animate attributeName="stroke-dashoffset" from="150" to="0" dur="1.8s" begin="3.6s" fill="freeze" /></path><path d="M32.64,40.38c0.34,0.27,0.73,0.48,0.84,0.83c0.97,3.06,2.21,11.98,3.19,16.47" class="stroke" stroke-dasharray="150"><set attributeName="opacity" to="0" dur="5.3s" /><animate attributeName="stroke-dashoffset" from="150" to="0" dur="1.8s" begin="5.3s" fill="freeze" /></path><path d="M34.77,42.17c6.32-0.65,32.32-3.66,38.15-4.31c1.46-0.16,3.18,0.8,2.55,2.67c-1.01,3.04-1.87,8.86-3.59,12.99" class="stroke" stroke-dasharray="150"><set attributeName="opacity" to="0" dur="6.2s" /><animate attributeName="stroke-dashoffset" from="150" to="0" dur="1.8s" begin="6.2s" fill="freeze" /></path><path d="M36.88,55.83c8.17-0.89,29.87-2.33,37.71-2.55" class="stroke" stroke-dasharray="150"><set attributeName="opacity" to="0" dur="7.6s" /><animate attributeName="stroke-dashoffset" from="150" to="0" dur="1.8s" begin="7.6s" fill="freeze" /></path><path d="M18.75,69.54c0.99,0.19,3.66,0.85,6.29,0.56C35,69,66.08,66.3,84.29,65.37c2.64-0.14,3.96-0.12,5.96,0.5" class="stroke" stroke-dasharray="150"><set attributeName="opacity" to="0" dur="8.6s" /><animate attributeName="stroke-dashoffset" from="150" to="0" dur="1.8s" begin="8.6s" fill="freeze" /></path><path d="M53.05,57.75c0.94,0.43,1.5,1.94,1.69,2.8c0.19,0.86,0,33.07-0.19,38.45" class="stroke" stroke-dasharray="150"><set attributeName="opacity" to="0" dur="10.299999999999999s" /><animate attributeName="stroke-dashoffset" from="150" to="0" dur="1.8s" begin="10.299999999999999s" fill="freeze" /></path><path d="M52.25,68.3C45.6,77.48,28.32,90.46,14.5,95.65" class="stroke" stroke-dasharray="150"><set attributeName="opacity" to="0" dur="11.399999999999999s" /><animate attributeName="stroke-dashoffset" from="150" to="0" dur="1.8s" begin="11.399999999999999s" fill="freeze" /></path><path d="M55,68.15c4.98,3.34,26.84,19.12,32.25,22.4c1.84,1.11,3.41,1.59,5.25,1.91" class="stroke" stroke-dasharray="150"><set attributeName="opacity" to="0" dur="12.599999999999998s" /><animate attributeName="stroke-dashoffset" from="150" to="0" dur="1.8s" begin="12.599999999999998s" fill="freeze" /></path><text x="90" y="120" id="reset-kvg-068e0">⟳</text><text x="70" y="120" id="pause-kvg-068e0">◼</text><script type="text/javascript"><![CDATA[function RecurringTimer(e,t){var n,r,i=t;this.pause=function(){window.clearTimeout(n);i-=new Date-r};var s=function(){r=new Date;n=window.setTimeout(function(){i=t;s();e()},i)};this.clear=function(){window.clearTimeout(n);i=t;n=window.setTimeout(function(){i=t;s();e()},i)};this.resume=s;this.resume()}function invoketimer(){timer=new RecurringTimer(function(){svg.setCurrentTime(0)},14699.999999999998)}var svg=document.getElementById("kvg-068e0");var pause=document.getElementById("pause-kvg-068e0");var reset=document.getElementById("reset-kvg-068e0");var timer;invoketimer();reset.onclick=function(){svg.setCurrentTime(0);timer.clear();svg.unpauseAnimations();pause.innerHTML = "◼";};pause.onclick=function(){if(svg.animationsPaused()){svg.unpauseAnimations();timer.resume();pause.innerHTML="◼"}else{svg.pauseAnimations();timer.pause();pause.innerHTML="▶"}}]]></script></svg>