<svg id="kvg-0691c" class="kanjivg" width="106" height="126" xmlns="http://www.w3.org/2000/svg" xmlns:xlink="http://www.w3.org/1999/xlink" xml:space="preserve" version="1.1" baseProfile="full"><defs><style type="text/css"><![CDATA[path.black{fill:none;stroke:black;stroke-width:5;stroke-linecap:round;stroke-linejoin:round;}path.grey{fill:none;stroke:#ddd;stroke-width:5;stroke-linecap:round;stroke-linejoin:round;}path.stroke{fill:none;stroke:black;stroke-width:5;stroke-linecap:round;stroke-linejoin:round;}rect{fill:none;stroke:#555;stroke-width:2;} text{font-size:16px;font-family:Segoe UI Symbol,Cambria Math,DejaVu Sans,Symbola,Quivira,STIX,Code2000;-webkit-touch-callout:none;cursor:pointer;-webkit-user-select:none;-khtml-user-select:none;-moz-user-select:none;-ms-user-select:none;user-select: none;}text:hover{color:#777;}#reset{font-weight:bold;}]]></style><marker id="markerStart" markerWidth="8" markerHeight="8" style="overflow:visible;"><circle cx="0" cy="0" r="1.5" style="stroke:none;fill:red;fill-opacity:0.5;"/></marker><marker id="markerEnd" style="overflow:visible;"><circle cx="0" cy="0" r="0.8" style="stroke:none;fill:blue;fill-opacity:0.5;"><animate attributeName="opacity" from="1" to="0" dur="3s" repeatCount="indefinite" /></circle></marker></defs><rect x="4" y="4" width="100" height="100" /><path d="M10.03,38.99c1.97,0.64,4.06,0.58,5.61,0.36c5.46-0.79,14.29-2.36,21.17-3.76c1.45-0.29,2.94-0.46,3.95-0.25" class="grey" /><path d="M28.27,10.5c0.93,0.93,1.54,2.75,1.54,4.28c0,0.83-0.04,54.55-0.23,74.34c-0.03,3.52-0.07,5.97-0.1,6.88" class="grey" /><path d="M28.81,38.42c0,1.45-0.48,3.01-0.94,4.07c-5.39,12.24-9.04,18.38-17.93,30.09" class="grey" /><path d="M32.62,45.62c2.19,1.84,5.78,7.82,7.63,11.39" class="grey" /><path d="M64.87,9.75c0.07,0.79,0.08,1.87-0.38,2.94C61.75,19,53.25,34.25,40.96,43.5" class="grey" /><path d="M64.78,14.88c5.47,4.37,16.81,16.59,23.76,22.98c2.2,2.03,4.29,3.27,6.76,4.83" class="grey" /><path d="M50.78,43.24c1.97,0.39,3.82,0.25,5.38,0.04c4.77-0.67,13.87-2.1,19.99-2.77c1.29-0.14,3.11-0.38,4.62-0.17" class="grey" /><path d="M46.68,55.84c0.62,0.62,0.95,1.54,1.08,2.29c1.02,5.79,1.2,9.36,1.85,14.5c0.15,1.18,0.32,2.44,0.53,3.84" class="grey" /><path d="M49.16,57.74c9.93-1.3,26.3-3.22,33.09-3.84c2.93-0.27,4.97,0.72,4.06,3.87c-1.13,3.85-2.2,7.44-3.53,11.68" class="grey" /><path d="M51.08,73.75c5.54-0.46,20.55-2.12,30.07-2.94c1.67-0.14,3.17-0.26,4.4-0.34" class="grey" /><path d="M63.79,45.5c0.92,0.92,1.34,2.38,1.36,3.75c0.48,25.5-4.02,39.75-25.15,51" class="grey" /><path d="M64,73c3.83,4.52,20.32,19.27,24.55,22.58c1.43,1.12,3.27,1.6,4.7,1.92" class="grey" /><path d="M10.03,38.99c1.97,0.64,4.06,0.58,5.61,0.36c5.46-0.79,14.29-2.36,21.17-3.76c1.45-0.29,2.94-0.46,3.95-0.25" class="stroke" stroke-dasharray="150"><animate attributeName="stroke-dashoffset" from="150" to="0" dur="1.8s" begin="0.0s" fill="freeze" /></path><path d="M28.27,10.5c0.93,0.93,1.54,2.75,1.54,4.28c0,0.83-0.04,54.55-0.23,74.34c-0.03,3.52-0.07,5.97-0.1,6.88" class="stroke" stroke-dasharray="150"><set attributeName="opacity" to="0" dur="1.0s" /><animate attributeName="stroke-dashoffset" from="150" to="0" dur="1.8s" begin="1.0s" fill="freeze" /></path><path d="M28.81,38.42c0,1.45-0.48,3.01-0.94,4.07c-5.39,12.24-9.04,18.38-17.93,30.09" class="stroke" stroke-dasharray="150"><set attributeName="opacity" to="0" dur="2.7s" /><animate attributeName="stroke-dashoffset" from="150" to="0" dur="1.8s" begin="2.7s" fill="freeze" /></path><path d="M32.62,45.62c2.19,1.84,5.78,7.82,7.63,11.39" class="stroke" stroke-dasharray="150"><set attributeName="opacity" to="0" dur="3.7s" /><animate attributeName="stroke-dashoffset" from="150" to="0" dur="1.8s" begin="3.7s" fill="freeze" /></path><path d="M64.87,9.75c0.07,0.79,0.08,1.87-0.38,2.94C61.75,19,53.25,34.25,40.96,43.5" class="stroke" stroke-dasharray="150"><set attributeName="opacity" to="0" dur="4.6000000000000005s" /><animate attributeName="stroke-dashoffset" from="150" to="0" dur="1.8s" begin="4.6000000000000005s" fill="freeze" /></path><path d="M64.78,14.88c5.47,4.37,16.81,16.59,23.76,22.98c2.2,2.03,4.29,3.27,6.76,4.83" class="stroke" stroke-dasharray="150"><set attributeName="opacity" to="0" dur="5.700000000000001s" /><animate attributeName="stroke-dashoffset" from="150" to="0" dur="1.8s" begin="5.700000000000001s" fill="freeze" /></path><path d="M50.78,43.24c1.97,0.39,3.82,0.25,5.38,0.04c4.77-0.67,13.87-2.1,19.99-2.77c1.29-0.14,3.11-0.38,4.62-0.17" class="stroke" stroke-dasharray="150"><set attributeName="opacity" to="0" dur="6.800000000000001s" /><animate attributeName="stroke-dashoffset" from="150" to="0" dur="1.8s" begin="6.800000000000001s" fill="freeze" /></path><path d="M46.68,55.84c0.62,0.62,0.95,1.54,1.08,2.29c1.02,5.79,1.2,9.36,1.85,14.5c0.15,1.18,0.32,2.44,0.53,3.84" class="stroke" stroke-dasharray="150"><set attributeName="opacity" to="0" dur="7.800000000000001s" /><animate attributeName="stroke-dashoffset" from="150" to="0" dur="1.8s" begin="7.800000000000001s" fill="freeze" /></path><path d="M49.16,57.74c9.93-1.3,26.3-3.22,33.09-3.84c2.93-0.27,4.97,0.72,4.06,3.87c-1.13,3.85-2.2,7.44-3.53,11.68" class="stroke" stroke-dasharray="150"><set attributeName="opacity" to="0" dur="8.8s" /><animate attributeName="stroke-dashoffset" from="150" to="0" dur="1.8s" begin="8.8s" fill="freeze" /></path><path d="M51.08,73.75c5.54-0.46,20.55-2.12,30.07-2.94c1.67-0.14,3.17-0.26,4.4-0.34" class="stroke" stroke-dasharray="150"><set attributeName="opacity" to="0" dur="10.100000000000001s" /><animate attributeName="stroke-dashoffset" from="150" to="0" dur="1.8s" begin="10.100000000000001s" fill="freeze" /></path><path d="M63.79,45.5c0.92,0.92,1.34,2.38,1.36,3.75c0.48,25.5-4.02,39.75-25.15,51" class="stroke" stroke-dasharray="150"><set attributeName="opacity" to="0" dur="11.100000000000001s" /><animate attributeName="stroke-dashoffset" from="150" to="0" dur="1.8s" begin="11.100000000000001s" fill="freeze" /></path><path d="M64,73c3.83,4.52,20.32,19.27,24.55,22.58c1.43,1.12,3.27,1.6,4.7,1.92" class="stroke" stroke-dasharray="150"><set attributeName="opacity" to="0" dur="12.600000000000001s" /><animate attributeName="stroke-dashoffset" from="150" to="0" dur="1.8s" begin="12.600000000000001s" fill="freeze" /></path><text x="90" y="120" id="reset-kvg-0691c">⟳</text><text x="70" y="120" id="pause-kvg-0691c">◼</text><script type="text/javascript"><![CDATA[function RecurringTimer(e,t){var n,r,i=t;this.pause=function(){window.clearTimeout(n);i-=new Date-r};var s=function(){r=new Date;n=window.setTimeout(function(){i=t;s();e()},i)};this.clear=function(){window.clearTimeout(n);i=t;n=window.setTimeout(function(){i=t;s();e()},i)};this.resume=s;this.resume()}function invoketimer(){timer=new RecurringTimer(function(){svg.setCurrentTime(0)},14600.000000000002)}var svg=document.getElementById("kvg-0691c");var pause=document.getElementById("pause-kvg-0691c");var reset=document.getElementById("reset-kvg-0691c");var timer;invoketimer();reset.onclick=function(){svg.setCurrentTime(0);timer.clear();svg.unpauseAnimations();pause.innerHTML = "◼";};pause.onclick=function(){if(svg.animationsPaused()){svg.unpauseAnimations();timer.resume();pause.innerHTML="◼"}else{svg.pauseAnimations();timer.pause();pause.innerHTML="▶"}}]]></script></svg>