<svg id="kvg-0694a-Kaisho" class="kanjivg" width="106" height="126" xmlns="http://www.w3.org/2000/svg" xmlns:xlink="http://www.w3.org/1999/xlink" xml:space="preserve" version="1.1" baseProfile="full"><defs><style type="text/css"><![CDATA[path.black{fill:none;stroke:black;stroke-width:5;stroke-linecap:round;stroke-linejoin:round;}path.grey{fill:none;stroke:#ddd;stroke-width:5;stroke-linecap:round;stroke-linejoin:round;}path.stroke{fill:none;stroke:black;stroke-width:5;stroke-linecap:round;stroke-linejoin:round;}rect{fill:none;stroke:#555;stroke-width:2;} text{font-size:16px;font-family:Segoe UI Symbol,Cambria Math,DejaVu Sans,Symbola,Quivira,STIX,Code2000;-webkit-touch-callout:none;cursor:pointer;-webkit-user-select:none;-khtml-user-select:none;-moz-user-select:none;-ms-user-select:none;user-select: none;}text:hover{color:#777;}#reset{font-weight:bold;}]]></style><marker id="markerStart" markerWidth="8" markerHeight="8" style="overflow:visible;"><circle cx="0" cy="0" r="1.5" style="stroke:none;fill:red;fill-opacity:0.5;"/></marker><marker id="markerEnd" style="overflow:visible;"><circle cx="0" cy="0" r="0.8" style="stroke:none;fill:blue;fill-opacity:0.5;"><animate attributeName="opacity" from="1" to="0" dur="3s" repeatCount="indefinite" /></circle></marker></defs><rect x="4" y="4" width="100" height="100" /><path d="M13.03,39.47c0.35,0.24,2.39,0.41,3.31,0.31c3.94-0.41,18.12-2.21,24.45-3.41c0.92-0.17,2.15-0.24,2.73,0" class="grey" /><path d="M28.11,14.75c0.91,0.47,2.64,2,2.54,4.92c-0.03,0.95-0.3,70.73-0.3,71.58c0,10.75-5.6,2.5-6.6,1.5" class="grey" /><path d="M29.69,41.03c-5.74,14.39-8.94,20.47-17.83,33.06" class="grey" /><path d="M32.22,47.65c2.37,1.59,6.28,8.76,8.28,11.85" class="grey" /><path d="M52.63,15.49c0.28,0.63,0.96,1.96,1.06,2.79c0.68,5.83,2.77,23.95,2.86,24.79" class="grey" /><path d="M54.37,17.5c5.37-0.82,21.83-3.02,28.71-3.58c1.19-0.1,1.91,2.25,1.87,2.89c-0.52,7.85-3.23,24.11-3.23,24.74" class="grey" /><path d="M55.44,29.05c4.58,0,9.31-0.89,13.85-1.38c1.6-0.17,3.21-0.34,4.73-0.5" class="grey" /><path d="M56.88,41.15c4.33-0.62,18.97-1.92,24.37-2.46" class="grey" /><path d="M45.1,51.4c1.16,0.34,3.3,0.39,4.46,0.34c12.1-0.56,32.44-3.99,45.25-3.78c1.94,0.03,3.1,0.16,4.07,0.33" class="grey" /><path d="M57.19,53.84c0.04,0.5,0.09,1.28-0.08,2c-1.01,4.21-8.86,13.56-15.36,16.91" class="grey" /><path d="M57.37,62.46c0.82,0.48,2.97,0.64,4.29,0.32c1.31-0.32,25.43-4.03,28.72-4.19c3.29-0.16,3.94,1.59,3.45,4.94C93.34,66.88,89.9,87.91,82.67,97c-2.17,2.73-3.4-0.45-5.34-2.45" class="grey" /><path d="M64.87,64.06c0.05,0.43,0.13,1.12-0.09,1.72c-2.23,5.96-8.36,14.24-17.17,19.13" class="grey" /><path d="M78.39,62.82c0.09,0.87,0.19,2.23-0.18,3.47c-2.16,7.32-11.45,20.62-23.25,28.55" class="grey" /><path d="M13.03,39.47c0.35,0.24,2.39,0.41,3.31,0.31c3.94-0.41,18.12-2.21,24.45-3.41c0.92-0.17,2.15-0.24,2.73,0" class="stroke" stroke-dasharray="150"><animate attributeName="stroke-dashoffset" from="150" to="0" dur="1.8s" begin="0.0s" fill="freeze" /></path><path d="M28.11,14.75c0.91,0.47,2.64,2,2.54,4.92c-0.03,0.95-0.3,70.73-0.3,71.58c0,10.75-5.6,2.5-6.6,1.5" class="stroke" stroke-dasharray="150"><set attributeName="opacity" to="0" dur="1.0s" /><animate attributeName="stroke-dashoffset" from="150" to="0" dur="1.8s" begin="1.0s" fill="freeze" /></path><path d="M29.69,41.03c-5.74,14.39-8.94,20.47-17.83,33.06" class="stroke" stroke-dasharray="150"><set attributeName="opacity" to="0" dur="2.7s" /><animate attributeName="stroke-dashoffset" from="150" to="0" dur="1.8s" begin="2.7s" fill="freeze" /></path><path d="M32.22,47.65c2.37,1.59,6.28,8.76,8.28,11.85" class="stroke" stroke-dasharray="150"><set attributeName="opacity" to="0" dur="3.7s" /><animate attributeName="stroke-dashoffset" from="150" to="0" dur="1.8s" begin="3.7s" fill="freeze" /></path><path d="M52.63,15.49c0.28,0.63,0.96,1.96,1.06,2.79c0.68,5.83,2.77,23.95,2.86,24.79" class="stroke" stroke-dasharray="150"><set attributeName="opacity" to="0" dur="4.6000000000000005s" /><animate attributeName="stroke-dashoffset" from="150" to="0" dur="1.8s" begin="4.6000000000000005s" fill="freeze" /></path><path d="M54.37,17.5c5.37-0.82,21.83-3.02,28.71-3.58c1.19-0.1,1.91,2.25,1.87,2.89c-0.52,7.85-3.23,24.11-3.23,24.74" class="stroke" stroke-dasharray="150"><set attributeName="opacity" to="0" dur="5.6000000000000005s" /><animate attributeName="stroke-dashoffset" from="150" to="0" dur="1.8s" begin="5.6000000000000005s" fill="freeze" /></path><path d="M55.44,29.05c4.58,0,9.31-0.89,13.85-1.38c1.6-0.17,3.21-0.34,4.73-0.5" class="stroke" stroke-dasharray="150"><set attributeName="opacity" to="0" dur="7.0s" /><animate attributeName="stroke-dashoffset" from="150" to="0" dur="1.8s" begin="7.0s" fill="freeze" /></path><path d="M56.88,41.15c4.33-0.62,18.97-1.92,24.37-2.46" class="stroke" stroke-dasharray="150"><set attributeName="opacity" to="0" dur="7.9s" /><animate attributeName="stroke-dashoffset" from="150" to="0" dur="1.8s" begin="7.9s" fill="freeze" /></path><path d="M45.1,51.4c1.16,0.34,3.3,0.39,4.46,0.34c12.1-0.56,32.44-3.99,45.25-3.78c1.94,0.03,3.1,0.16,4.07,0.33" class="stroke" stroke-dasharray="150"><set attributeName="opacity" to="0" dur="8.9s" /><animate attributeName="stroke-dashoffset" from="150" to="0" dur="1.8s" begin="8.9s" fill="freeze" /></path><path d="M57.19,53.84c0.04,0.5,0.09,1.28-0.08,2c-1.01,4.21-8.86,13.56-15.36,16.91" class="stroke" stroke-dasharray="150"><set attributeName="opacity" to="0" dur="10.200000000000001s" /><animate attributeName="stroke-dashoffset" from="150" to="0" dur="1.8s" begin="10.200000000000001s" fill="freeze" /></path><path d="M57.37,62.46c0.82,0.48,2.97,0.64,4.29,0.32c1.31-0.32,25.43-4.03,28.72-4.19c3.29-0.16,3.94,1.59,3.45,4.94C93.34,66.88,89.9,87.91,82.67,97c-2.17,2.73-3.4-0.45-5.34-2.45" class="stroke" stroke-dasharray="150"><set attributeName="opacity" to="0" dur="11.200000000000001s" /><animate attributeName="stroke-dashoffset" from="150" to="0" dur="1.8s" begin="11.200000000000001s" fill="freeze" /></path><path d="M64.87,64.06c0.05,0.43,0.13,1.12-0.09,1.72c-2.23,5.96-8.36,14.24-17.17,19.13" class="stroke" stroke-dasharray="150"><set attributeName="opacity" to="0" dur="12.9s" /><animate attributeName="stroke-dashoffset" from="150" to="0" dur="1.8s" begin="12.9s" fill="freeze" /></path><path d="M78.39,62.82c0.09,0.87,0.19,2.23-0.18,3.47c-2.16,7.32-11.45,20.62-23.25,28.55" class="stroke" stroke-dasharray="150"><set attributeName="opacity" to="0" dur="13.9s" /><animate attributeName="stroke-dashoffset" from="150" to="0" dur="1.8s" begin="13.9s" fill="freeze" /></path><text x="90" y="120" id="reset-kvg-0694a-Kaisho">⟳</text><text x="70" y="120" id="pause-kvg-0694a-Kaisho">◼</text><script type="text/javascript"><![CDATA[function RecurringTimer(e,t){var n,r,i=t;this.pause=function(){window.clearTimeout(n);i-=new Date-r};var s=function(){r=new Date;n=window.setTimeout(function(){i=t;s();e()},i)};this.clear=function(){window.clearTimeout(n);i=t;n=window.setTimeout(function(){i=t;s();e()},i)};this.resume=s;this.resume()}function invoketimer(){timer=new RecurringTimer(function(){svg.setCurrentTime(0)},16000.0)}var svg=document.getElementById("kvg-0694a-Kaisho");var pause=document.getElementById("pause-kvg-0694a-Kaisho");var reset=document.getElementById("reset-kvg-0694a-Kaisho");var timer;invoketimer();reset.onclick=function(){svg.setCurrentTime(0);timer.clear();svg.unpauseAnimations();pause.innerHTML = "◼";};pause.onclick=function(){if(svg.animationsPaused()){svg.unpauseAnimations();timer.resume();pause.innerHTML="◼"}else{svg.pauseAnimations();timer.pause();pause.innerHTML="▶"}}]]></script></svg>