<svg id="kvg-069c3-Kaisho" class="kanjivg" width="106" height="126" xmlns="http://www.w3.org/2000/svg" xmlns:xlink="http://www.w3.org/1999/xlink" xml:space="preserve" version="1.1" baseProfile="full"><defs><style type="text/css"><![CDATA[path.black{fill:none;stroke:black;stroke-width:5;stroke-linecap:round;stroke-linejoin:round;}path.grey{fill:none;stroke:#ddd;stroke-width:5;stroke-linecap:round;stroke-linejoin:round;}path.stroke{fill:none;stroke:black;stroke-width:5;stroke-linecap:round;stroke-linejoin:round;}rect{fill:none;stroke:#555;stroke-width:2;} text{font-size:16px;font-family:Segoe UI Symbol,Cambria Math,DejaVu Sans,Symbola,Quivira,STIX,Code2000;-webkit-touch-callout:none;cursor:pointer;-webkit-user-select:none;-khtml-user-select:none;-moz-user-select:none;-ms-user-select:none;user-select: none;}text:hover{color:#777;}#reset{font-weight:bold;}]]></style><marker id="markerStart" markerWidth="8" markerHeight="8" style="overflow:visible;"><circle cx="0" cy="0" r="1.5" style="stroke:none;fill:red;fill-opacity:0.5;"/></marker><marker id="markerEnd" style="overflow:visible;"><circle cx="0" cy="0" r="0.8" style="stroke:none;fill:blue;fill-opacity:0.5;"><animate attributeName="opacity" from="1" to="0" dur="3s" repeatCount="indefinite" /></circle></marker></defs><rect x="4" y="4" width="100" height="100" /><path d="M32.51,11.25c0.32,0.99,0.94,1.29,0.27,2.5c-1.03,1.87-1.15,3.15-5.88,8.63" class="grey" /><path d="M22.8,22.45c0.58,0.71,0.73,1.97,0.73,2.86c0,0.89,0.08,12.69,0.15,14.3c0.29,7.04-3.88,16.37-6.78,19.94" class="grey" /><path d="M23.51,24.68c3.61-0.38,15.56-2.91,18.82-3.29c3.26-0.38,3.09,0.75,3.09,2.07s-0.34,28.31-0.34,30.19c0,9.1-4.08,2.6-5.32,0.75" class="grey" /><path d="M29.83,27.86c1.6,0.87,5.58,3.2,5.98,4.22" class="grey" /><path d="M32.93,39.26c0.86,0.94,1.03,1.51,1.03,2.26S33.61,49,33.61,54.5" class="grey" /><path d="M13.93,39.99c0.37,0.67,2.02,1.07,3.22,0.89c1.2-0.18,26.82-6.79,30.47-7.73" class="grey" /><path d="M58.71,14.12c0.19,0.4,0.36,1.28,0.35,1.87c-0.13,6.1-1.32,12.75-5.64,17.19" class="grey" /><path d="M59.58,16.56c4.42-0.81,11.64-1.93,14.19-2.27c2.1-0.28,3,0.25,2.79,1.4c-0.4,2.24-1.03,5.03-1.03,7.28c0,3.1,1,5.34,7.58,5.34c6.55,0,8.15-1.58,8.15-5.32" class="grey" /><path d="M60.41,36.39c0.96,0.18,1.08,0.45,3,0.18c1.92-0.27,13.19-2.2,14.5-2.47c1.32-0.27,2.39,1.04,1.8,1.96c-6.07,9.55-11.9,14.46-23.4,18.9" class="grey" /><path d="M56.83,41.12c3.04,0.34,17.86,9.54,28.42,13.32c1.64,0.59,2.84,0.98,4.38,1.17" class="grey" /><path d="M18.75,70.79c1.88,0.41,4.02,0.54,6.18,0.41c11.02-0.67,43.01-3.02,59.67-3.81c2.15-0.1,3.49,0.07,5.64,0.36" class="grey" /><path d="M52.34,58.75c1.02,0.49,1.83,2.19,1.83,3.2c0,11.76-0.2,26.55-0.2,32.55c0,12.25-4.71,4-6.96,1.75" class="grey" /><path d="M52.25,70.25c-6.38,7.92-21.46,19.3-36.75,24.5" class="grey" /><path d="M55,69.5c4.69,3.04,26.72,18.28,31.82,21.26c1.73,1.01,3.21,1.45,4.93,1.74" class="grey" /><path d="M32.51,11.25c0.32,0.99,0.94,1.29,0.27,2.5c-1.03,1.87-1.15,3.15-5.88,8.63" class="stroke" stroke-dasharray="150"><animate attributeName="stroke-dashoffset" from="150" to="0" dur="1.8s" begin="0.0s" fill="freeze" /></path><path d="M22.8,22.45c0.58,0.71,0.73,1.97,0.73,2.86c0,0.89,0.08,12.69,0.15,14.3c0.29,7.04-3.88,16.37-6.78,19.94" class="stroke" stroke-dasharray="150"><set attributeName="opacity" to="0" dur="0.9s" /><animate attributeName="stroke-dashoffset" from="150" to="0" dur="1.8s" begin="0.9s" fill="freeze" /></path><path d="M23.51,24.68c3.61-0.38,15.56-2.91,18.82-3.29c3.26-0.38,3.09,0.75,3.09,2.07s-0.34,28.31-0.34,30.19c0,9.1-4.08,2.6-5.32,0.75" class="stroke" stroke-dasharray="150"><set attributeName="opacity" to="0" dur="1.9s" /><animate attributeName="stroke-dashoffset" from="150" to="0" dur="1.8s" begin="1.9s" fill="freeze" /></path><path d="M29.83,27.86c1.6,0.87,5.58,3.2,5.98,4.22" class="stroke" stroke-dasharray="150"><set attributeName="opacity" to="0" dur="3.4s" /><animate attributeName="stroke-dashoffset" from="150" to="0" dur="1.8s" begin="3.4s" fill="freeze" /></path><path d="M32.93,39.26c0.86,0.94,1.03,1.51,1.03,2.26S33.61,49,33.61,54.5" class="stroke" stroke-dasharray="150"><set attributeName="opacity" to="0" dur="4.3s" /><animate attributeName="stroke-dashoffset" from="150" to="0" dur="1.8s" begin="4.3s" fill="freeze" /></path><path d="M13.93,39.99c0.37,0.67,2.02,1.07,3.22,0.89c1.2-0.18,26.82-6.79,30.47-7.73" class="stroke" stroke-dasharray="150"><set attributeName="opacity" to="0" dur="5.2s" /><animate attributeName="stroke-dashoffset" from="150" to="0" dur="1.8s" begin="5.2s" fill="freeze" /></path><path d="M58.71,14.12c0.19,0.4,0.36,1.28,0.35,1.87c-0.13,6.1-1.32,12.75-5.64,17.19" class="stroke" stroke-dasharray="150"><set attributeName="opacity" to="0" dur="6.2s" /><animate attributeName="stroke-dashoffset" from="150" to="0" dur="1.8s" begin="6.2s" fill="freeze" /></path><path d="M59.58,16.56c4.42-0.81,11.64-1.93,14.19-2.27c2.1-0.28,3,0.25,2.79,1.4c-0.4,2.24-1.03,5.03-1.03,7.28c0,3.1,1,5.34,7.58,5.34c6.55,0,8.15-1.58,8.15-5.32" class="stroke" stroke-dasharray="150"><set attributeName="opacity" to="0" dur="7.2s" /><animate attributeName="stroke-dashoffset" from="150" to="0" dur="1.8s" begin="7.2s" fill="freeze" /></path><path d="M60.41,36.39c0.96,0.18,1.08,0.45,3,0.18c1.92-0.27,13.19-2.2,14.5-2.47c1.32-0.27,2.39,1.04,1.8,1.96c-6.07,9.55-11.9,14.46-23.4,18.9" class="stroke" stroke-dasharray="150"><set attributeName="opacity" to="0" dur="8.4s" /><animate attributeName="stroke-dashoffset" from="150" to="0" dur="1.8s" begin="8.4s" fill="freeze" /></path><path d="M56.83,41.12c3.04,0.34,17.86,9.54,28.42,13.32c1.64,0.59,2.84,0.98,4.38,1.17" class="stroke" stroke-dasharray="150"><set attributeName="opacity" to="0" dur="9.700000000000001s" /><animate attributeName="stroke-dashoffset" from="150" to="0" dur="1.8s" begin="9.700000000000001s" fill="freeze" /></path><path d="M18.75,70.79c1.88,0.41,4.02,0.54,6.18,0.41c11.02-0.67,43.01-3.02,59.67-3.81c2.15-0.1,3.49,0.07,5.64,0.36" class="stroke" stroke-dasharray="150"><set attributeName="opacity" to="0" dur="10.700000000000001s" /><animate attributeName="stroke-dashoffset" from="150" to="0" dur="1.8s" begin="10.700000000000001s" fill="freeze" /></path><path d="M52.34,58.75c1.02,0.49,1.83,2.19,1.83,3.2c0,11.76-0.2,26.55-0.2,32.55c0,12.25-4.71,4-6.96,1.75" class="stroke" stroke-dasharray="150"><set attributeName="opacity" to="0" dur="12.4s" /><animate attributeName="stroke-dashoffset" from="150" to="0" dur="1.8s" begin="12.4s" fill="freeze" /></path><path d="M52.25,70.25c-6.38,7.92-21.46,19.3-36.75,24.5" class="stroke" stroke-dasharray="150"><set attributeName="opacity" to="0" dur="13.700000000000001s" /><animate attributeName="stroke-dashoffset" from="150" to="0" dur="1.8s" begin="13.700000000000001s" fill="freeze" /></path><path d="M55,69.5c4.69,3.04,26.72,18.28,31.82,21.26c1.73,1.01,3.21,1.45,4.93,1.74" class="stroke" stroke-dasharray="150"><set attributeName="opacity" to="0" dur="14.8s" /><animate attributeName="stroke-dashoffset" from="150" to="0" dur="1.8s" begin="14.8s" fill="freeze" /></path><text x="90" y="120" id="reset-kvg-069c3-Kaisho">⟳</text><text x="70" y="120" id="pause-kvg-069c3-Kaisho">◼</text><script type="text/javascript"><![CDATA[function RecurringTimer(e,t){var n,r,i=t;this.pause=function(){window.clearTimeout(n);i-=new Date-r};var s=function(){r=new Date;n=window.setTimeout(function(){i=t;s();e()},i)};this.clear=function(){window.clearTimeout(n);i=t;n=window.setTimeout(function(){i=t;s();e()},i)};this.resume=s;this.resume()}function invoketimer(){timer=new RecurringTimer(function(){svg.setCurrentTime(0)},16900.0)}var svg=document.getElementById("kvg-069c3-Kaisho");var pause=document.getElementById("pause-kvg-069c3-Kaisho");var reset=document.getElementById("reset-kvg-069c3-Kaisho");var timer;invoketimer();reset.onclick=function(){svg.setCurrentTime(0);timer.clear();svg.unpauseAnimations();pause.innerHTML = "◼";};pause.onclick=function(){if(svg.animationsPaused()){svg.unpauseAnimations();timer.resume();pause.innerHTML="◼"}else{svg.pauseAnimations();timer.pause();pause.innerHTML="▶"}}]]></script></svg>