<svg id="kvg-069fd" class="kanjivg" width="106" height="126" xmlns="http://www.w3.org/2000/svg" xmlns:xlink="http://www.w3.org/1999/xlink" xml:space="preserve" version="1.1" baseProfile="full"><defs><style type="text/css"><![CDATA[path.black{fill:none;stroke:black;stroke-width:5;stroke-linecap:round;stroke-linejoin:round;}path.grey{fill:none;stroke:#ddd;stroke-width:5;stroke-linecap:round;stroke-linejoin:round;}path.stroke{fill:none;stroke:black;stroke-width:5;stroke-linecap:round;stroke-linejoin:round;}rect{fill:none;stroke:#555;stroke-width:2;} text{font-size:16px;font-family:Segoe UI Symbol,Cambria Math,DejaVu Sans,Symbola,Quivira,STIX,Code2000;-webkit-touch-callout:none;cursor:pointer;-webkit-user-select:none;-khtml-user-select:none;-moz-user-select:none;-ms-user-select:none;user-select: none;}text:hover{color:#777;}#reset{font-weight:bold;}]]></style><marker id="markerStart" markerWidth="8" markerHeight="8" style="overflow:visible;"><circle cx="0" cy="0" r="1.5" style="stroke:none;fill:red;fill-opacity:0.5;"/></marker><marker id="markerEnd" style="overflow:visible;"><circle cx="0" cy="0" r="0.8" style="stroke:none;fill:blue;fill-opacity:0.5;"><animate attributeName="opacity" from="1" to="0" dur="3s" repeatCount="indefinite" /></circle></marker></defs><rect x="4" y="4" width="100" height="100" /><path d="M11.28,38.22c0.95,0.66,4.05,0.49,5.09,0.37c4.83-0.55,14.86-1.76,20.67-2.79c1.13-0.2,2.61-0.65,3.73-0.18" class="grey" /><path d="M29.61,15.75c1.13,1.13,1.29,2.38,1.29,4.17c0,7.56,0.17,48.4,0.04,66.83c-0.03,4.32-0.03,8.14-0.07,9.25" class="grey" /><path d="M29.94,38.28c0,1.58-0.96,4.66-1.68,6.52c-4.74,12.16-8.92,18.4-17.01,30.7" class="grey" /><path d="M34.25,48.62c2.28,1.48,5.08,6.26,7,9.12" class="grey" /><path d="M43.58,25.27c2.54,0.73,5.38,0.6,7.54,0.33C63.5,24,76.75,22.75,88.23,22.2c2.55-0.12,4.99-0.15,7.44,0.54" class="grey" /><path d="M46.76,35.64c0.8,0.8,1.16,2.1,1.25,2.88c0.2,1.75,1.64,9.85,2.58,15.71c0.44,2.74,0.76,4.77,0.79,5.02" class="grey" /><path d="M48.4,36.24c2.55-0.32,30.39-3.6,38.48-4.1c4.25-0.26,6.1,1.25,5.43,4.61c-0.93,4.62-1.81,10.23-2.94,14.77c-0.65,2.6-1.2,4.54-1.4,4.93" class="grey" /><path d="M58.54,14.4c1.15,1.15,1.59,2.22,1.69,3.71c1.15,16.57,2,30.35,2.42,37.16" class="grey" /><path d="M76.09,13c1.02,1.02,1.16,2.21,1.07,3.38c-0.91,12.12-1.91,27.49-2.63,37.96" class="grey" /><path d="M50.09,46.54c5.03-0.46,37.11-3.98,39.81-3.98" class="grey" /><path d="M52.6,57.29c12.4-1.41,25.9-2.41,34.48-2.75" class="grey" /><path d="M54.02,66.19c0.96,0.96,1.28,1.94,1.28,3.57c0,0.71,0,14.24-0.01,22.25c0,2.9,0,4.92,0,5.05" class="grey" /><path d="M55.69,67.08c3.48-0.28,18.11-1.92,23.57-2.46c2.93-0.29,4.47,0.32,4.46,3.5c-0.02,4.65-0.1,15.55-0.05,22.62c0.02,2.91,0.04,4.94,0.04,5.13" class="grey" /><path d="M56.33,79.92c6.42-0.42,20.67-1.67,26.22-1.87" class="grey" /><path d="M56.44,94.05c6.06-0.42,18.56-1.31,26.1-1.63" class="grey" /><path d="M11.28,38.22c0.95,0.66,4.05,0.49,5.09,0.37c4.83-0.55,14.86-1.76,20.67-2.79c1.13-0.2,2.61-0.65,3.73-0.18" class="stroke" stroke-dasharray="150"><animate attributeName="stroke-dashoffset" from="150" to="0" dur="1.8s" begin="0.0s" fill="freeze" /></path><path d="M29.61,15.75c1.13,1.13,1.29,2.38,1.29,4.17c0,7.56,0.17,48.4,0.04,66.83c-0.03,4.32-0.03,8.14-0.07,9.25" class="stroke" stroke-dasharray="150"><set attributeName="opacity" to="0" dur="1.0s" /><animate attributeName="stroke-dashoffset" from="150" to="0" dur="1.8s" begin="1.0s" fill="freeze" /></path><path d="M29.94,38.28c0,1.58-0.96,4.66-1.68,6.52c-4.74,12.16-8.92,18.4-17.01,30.7" class="stroke" stroke-dasharray="150"><set attributeName="opacity" to="0" dur="2.7s" /><animate attributeName="stroke-dashoffset" from="150" to="0" dur="1.8s" begin="2.7s" fill="freeze" /></path><path d="M34.25,48.62c2.28,1.48,5.08,6.26,7,9.12" class="stroke" stroke-dasharray="150"><set attributeName="opacity" to="0" dur="3.8000000000000003s" /><animate attributeName="stroke-dashoffset" from="150" to="0" dur="1.8s" begin="3.8000000000000003s" fill="freeze" /></path><path d="M43.58,25.27c2.54,0.73,5.38,0.6,7.54,0.33C63.5,24,76.75,22.75,88.23,22.2c2.55-0.12,4.99-0.15,7.44,0.54" class="stroke" stroke-dasharray="150"><set attributeName="opacity" to="0" dur="4.7s" /><animate attributeName="stroke-dashoffset" from="150" to="0" dur="1.8s" begin="4.7s" fill="freeze" /></path><path d="M46.76,35.64c0.8,0.8,1.16,2.1,1.25,2.88c0.2,1.75,1.64,9.85,2.58,15.71c0.44,2.74,0.76,4.77,0.79,5.02" class="stroke" stroke-dasharray="150"><set attributeName="opacity" to="0" dur="6.0s" /><animate attributeName="stroke-dashoffset" from="150" to="0" dur="1.8s" begin="6.0s" fill="freeze" /></path><path d="M48.4,36.24c2.55-0.32,30.39-3.6,38.48-4.1c4.25-0.26,6.1,1.25,5.43,4.61c-0.93,4.62-1.81,10.23-2.94,14.77c-0.65,2.6-1.2,4.54-1.4,4.93" class="stroke" stroke-dasharray="150"><set attributeName="opacity" to="0" dur="7.0s" /><animate attributeName="stroke-dashoffset" from="150" to="0" dur="1.8s" begin="7.0s" fill="freeze" /></path><path d="M58.54,14.4c1.15,1.15,1.59,2.22,1.69,3.71c1.15,16.57,2,30.35,2.42,37.16" class="stroke" stroke-dasharray="150"><set attributeName="opacity" to="0" dur="8.5s" /><animate attributeName="stroke-dashoffset" from="150" to="0" dur="1.8s" begin="8.5s" fill="freeze" /></path><path d="M76.09,13c1.02,1.02,1.16,2.21,1.07,3.38c-0.91,12.12-1.91,27.49-2.63,37.96" class="stroke" stroke-dasharray="150"><set attributeName="opacity" to="0" dur="9.6s" /><animate attributeName="stroke-dashoffset" from="150" to="0" dur="1.8s" begin="9.6s" fill="freeze" /></path><path d="M50.09,46.54c5.03-0.46,37.11-3.98,39.81-3.98" class="stroke" stroke-dasharray="150"><set attributeName="opacity" to="0" dur="10.7s" /><animate attributeName="stroke-dashoffset" from="150" to="0" dur="1.8s" begin="10.7s" fill="freeze" /></path><path d="M52.6,57.29c12.4-1.41,25.9-2.41,34.48-2.75" class="stroke" stroke-dasharray="150"><set attributeName="opacity" to="0" dur="11.799999999999999s" /><animate attributeName="stroke-dashoffset" from="150" to="0" dur="1.8s" begin="11.799999999999999s" fill="freeze" /></path><path d="M54.02,66.19c0.96,0.96,1.28,1.94,1.28,3.57c0,0.71,0,14.24-0.01,22.25c0,2.9,0,4.92,0,5.05" class="stroke" stroke-dasharray="150"><set attributeName="opacity" to="0" dur="12.799999999999999s" /><animate attributeName="stroke-dashoffset" from="150" to="0" dur="1.8s" begin="12.799999999999999s" fill="freeze" /></path><path d="M55.69,67.08c3.48-0.28,18.11-1.92,23.57-2.46c2.93-0.29,4.47,0.32,4.46,3.5c-0.02,4.65-0.1,15.55-0.05,22.62c0.02,2.91,0.04,4.94,0.04,5.13" class="stroke" stroke-dasharray="150"><set attributeName="opacity" to="0" dur="13.799999999999999s" /><animate attributeName="stroke-dashoffset" from="150" to="0" dur="1.8s" begin="13.799999999999999s" fill="freeze" /></path><path d="M56.33,79.92c6.42-0.42,20.67-1.67,26.22-1.87" class="stroke" stroke-dasharray="150"><set attributeName="opacity" to="0" dur="15.2s" /><animate attributeName="stroke-dashoffset" from="150" to="0" dur="1.8s" begin="15.2s" fill="freeze" /></path><path d="M56.44,94.05c6.06-0.42,18.56-1.31,26.1-1.63" class="stroke" stroke-dasharray="150"><set attributeName="opacity" to="0" dur="16.2s" /><animate attributeName="stroke-dashoffset" from="150" to="0" dur="1.8s" begin="16.2s" fill="freeze" /></path><text x="90" y="120" id="reset-kvg-069fd">⟳</text><text x="70" y="120" id="pause-kvg-069fd">◼</text><script type="text/javascript"><![CDATA[function RecurringTimer(e,t){var n,r,i=t;this.pause=function(){window.clearTimeout(n);i-=new Date-r};var s=function(){r=new Date;n=window.setTimeout(function(){i=t;s();e()},i)};this.clear=function(){window.clearTimeout(n);i=t;n=window.setTimeout(function(){i=t;s();e()},i)};this.resume=s;this.resume()}function invoketimer(){timer=new RecurringTimer(function(){svg.setCurrentTime(0)},18200.0)}var svg=document.getElementById("kvg-069fd");var pause=document.getElementById("pause-kvg-069fd");var reset=document.getElementById("reset-kvg-069fd");var timer;invoketimer();reset.onclick=function(){svg.setCurrentTime(0);timer.clear();svg.unpauseAnimations();pause.innerHTML = "◼";};pause.onclick=function(){if(svg.animationsPaused()){svg.unpauseAnimations();timer.resume();pause.innerHTML="◼"}else{svg.pauseAnimations();timer.pause();pause.innerHTML="▶"}}]]></script></svg>