<svg id="kvg-06a0c" class="kanjivg" width="106" height="126" xmlns="http://www.w3.org/2000/svg" xmlns:xlink="http://www.w3.org/1999/xlink" xml:space="preserve" version="1.1" baseProfile="full"><defs><style type="text/css"><![CDATA[path.black{fill:none;stroke:black;stroke-width:5;stroke-linecap:round;stroke-linejoin:round;}path.grey{fill:none;stroke:#ddd;stroke-width:5;stroke-linecap:round;stroke-linejoin:round;}path.stroke{fill:none;stroke:black;stroke-width:5;stroke-linecap:round;stroke-linejoin:round;}rect{fill:none;stroke:#555;stroke-width:2;} text{font-size:16px;font-family:Segoe UI Symbol,Cambria Math,DejaVu Sans,Symbola,Quivira,STIX,Code2000;-webkit-touch-callout:none;cursor:pointer;-webkit-user-select:none;-khtml-user-select:none;-moz-user-select:none;-ms-user-select:none;user-select: none;}text:hover{color:#777;}#reset{font-weight:bold;}]]></style><marker id="markerStart" markerWidth="8" markerHeight="8" style="overflow:visible;"><circle cx="0" cy="0" r="1.5" style="stroke:none;fill:red;fill-opacity:0.5;"/></marker><marker id="markerEnd" style="overflow:visible;"><circle cx="0" cy="0" r="0.8" style="stroke:none;fill:blue;fill-opacity:0.5;"><animate attributeName="opacity" from="1" to="0" dur="3s" repeatCount="indefinite" /></circle></marker></defs><rect x="4" y="4" width="100" height="100" /><path d="M13.28,39.72c0.35,0.24,2.39,0.41,3.31,0.31c3.94-0.41,17.12-1.21,23.45-2.41c0.92-0.17,2.15-0.24,2.73,0" class="grey" /><path d="M28.86,15c0.91,0.47,2.04,2.5,2.04,4.42c0,0.95-0.12,72.75-0.3,78.58" class="grey" /><path d="M30.44,40.28C23.81,56.19,19.25,66,9.86,76.84" class="grey" /><path d="M32.97,46.9c2.37,1.67,6.28,7.11,8.28,10.35" class="grey" /><path d="m52.85,16.19c0.78,0.44,1.29,1.93,1.27,3.12C54,26,53.5,33,53.02,38.38,52.86,40.11,53.45,40.8,54.84,40.66,63.75,39.75,72,38.75,84.69,38.5" class="grey" /><path d="M54.17,16.75c0.8-0.04,27.37-2.25,31.35-1.97c1.55,0.11,2.96,1.3,2.65,3.13C87,24.89,86.25,31.1,84.5,39.76" class="grey" /><path d="M69.77,17.3c0.48,1.2,0.48,1.7,0.63,3.35c0.16,1.79-0.8,11.76-1.86,18.71" class="grey" /><path d="M42.38,28.82c1.37,0.48,2.8,0.97,3.8,0.95c11.85-0.32,29.13-3.31,48.55-3.2c1.65,0.01,3.08,0.05,3.91,0.44" class="grey" /><path d="M52.38,48.25c0.51,0.82,0.75,1.44,0.75,2.52s0.1,32.56,0.1,33.1" class="grey" /><path d="M53.54,49.63c2.88-0.05,27.23-2.64,29.85-2.73c2.19-0.07,3.29,0.85,3.29,3.34c0,4.28-0.36,20.19-0.35,32.01" class="grey" /><path d="M53.93,60c8.14-0.38,23.82-2,32.3-2.33" class="grey" /><path d="M53.73,70.38c8.52-0.63,22.98-1.41,32.17-1.77" class="grey" /><path d="M53.6,81.79c9.57-0.64,22.02-1.09,31.73-1.78" class="grey" /><path d="M62.12,86.86C62,87.75,61.46,89.1,60.5,89.8c-2.9,2.12-11.34,6.8-17.14,9.27" class="grey" /><path d="M77.56,86.45c6.24,3.25,13.62,9.07,15.32,11.83" class="grey" /><path d="M13.28,39.72c0.35,0.24,2.39,0.41,3.31,0.31c3.94-0.41,17.12-1.21,23.45-2.41c0.92-0.17,2.15-0.24,2.73,0" class="stroke" stroke-dasharray="150"><animate attributeName="stroke-dashoffset" from="150" to="0" dur="1.8s" begin="0.0s" fill="freeze" /></path><path d="M28.86,15c0.91,0.47,2.04,2.5,2.04,4.42c0,0.95-0.12,72.75-0.3,78.58" class="stroke" stroke-dasharray="150"><set attributeName="opacity" to="0" dur="1.0s" /><animate attributeName="stroke-dashoffset" from="150" to="0" dur="1.8s" begin="1.0s" fill="freeze" /></path><path d="M30.44,40.28C23.81,56.19,19.25,66,9.86,76.84" class="stroke" stroke-dasharray="150"><set attributeName="opacity" to="0" dur="2.7s" /><animate attributeName="stroke-dashoffset" from="150" to="0" dur="1.8s" begin="2.7s" fill="freeze" /></path><path d="M32.97,46.9c2.37,1.67,6.28,7.11,8.28,10.35" class="stroke" stroke-dasharray="150"><set attributeName="opacity" to="0" dur="3.8000000000000003s" /><animate attributeName="stroke-dashoffset" from="150" to="0" dur="1.8s" begin="3.8000000000000003s" fill="freeze" /></path><path d="m52.85,16.19c0.78,0.44,1.29,1.93,1.27,3.12C54,26,53.5,33,53.02,38.38,52.86,40.11,53.45,40.8,54.84,40.66,63.75,39.75,72,38.75,84.69,38.5" class="stroke" stroke-dasharray="150"><set attributeName="opacity" to="0" dur="4.7s" /><animate attributeName="stroke-dashoffset" from="150" to="0" dur="1.8s" begin="4.7s" fill="freeze" /></path><path d="M54.17,16.75c0.8-0.04,27.37-2.25,31.35-1.97c1.55,0.11,2.96,1.3,2.65,3.13C87,24.89,86.25,31.1,84.5,39.76" class="stroke" stroke-dasharray="150"><set attributeName="opacity" to="0" dur="6.1s" /><animate attributeName="stroke-dashoffset" from="150" to="0" dur="1.8s" begin="6.1s" fill="freeze" /></path><path d="M69.77,17.3c0.48,1.2,0.48,1.7,0.63,3.35c0.16,1.79-0.8,11.76-1.86,18.71" class="stroke" stroke-dasharray="150"><set attributeName="opacity" to="0" dur="7.5s" /><animate attributeName="stroke-dashoffset" from="150" to="0" dur="1.8s" begin="7.5s" fill="freeze" /></path><path d="M42.38,28.82c1.37,0.48,2.8,0.97,3.8,0.95c11.85-0.32,29.13-3.31,48.55-3.2c1.65,0.01,3.08,0.05,3.91,0.44" class="stroke" stroke-dasharray="150"><set attributeName="opacity" to="0" dur="8.5s" /><animate attributeName="stroke-dashoffset" from="150" to="0" dur="1.8s" begin="8.5s" fill="freeze" /></path><path d="M52.38,48.25c0.51,0.82,0.75,1.44,0.75,2.52s0.1,32.56,0.1,33.1" class="stroke" stroke-dasharray="150"><set attributeName="opacity" to="0" dur="9.9s" /><animate attributeName="stroke-dashoffset" from="150" to="0" dur="1.8s" begin="9.9s" fill="freeze" /></path><path d="M53.54,49.63c2.88-0.05,27.23-2.64,29.85-2.73c2.19-0.07,3.29,0.85,3.29,3.34c0,4.28-0.36,20.19-0.35,32.01" class="stroke" stroke-dasharray="150"><set attributeName="opacity" to="0" dur="10.9s" /><animate attributeName="stroke-dashoffset" from="150" to="0" dur="1.8s" begin="10.9s" fill="freeze" /></path><path d="M53.93,60c8.14-0.38,23.82-2,32.3-2.33" class="stroke" stroke-dasharray="150"><set attributeName="opacity" to="0" dur="12.4s" /><animate attributeName="stroke-dashoffset" from="150" to="0" dur="1.8s" begin="12.4s" fill="freeze" /></path><path d="M53.73,70.38c8.52-0.63,22.98-1.41,32.17-1.77" class="stroke" stroke-dasharray="150"><set attributeName="opacity" to="0" dur="13.4s" /><animate attributeName="stroke-dashoffset" from="150" to="0" dur="1.8s" begin="13.4s" fill="freeze" /></path><path d="M53.6,81.79c9.57-0.64,22.02-1.09,31.73-1.78" class="stroke" stroke-dasharray="150"><set attributeName="opacity" to="0" dur="14.4s" /><animate attributeName="stroke-dashoffset" from="150" to="0" dur="1.8s" begin="14.4s" fill="freeze" /></path><path d="M62.12,86.86C62,87.75,61.46,89.1,60.5,89.8c-2.9,2.12-11.34,6.8-17.14,9.27" class="stroke" stroke-dasharray="150"><set attributeName="opacity" to="0" dur="15.4s" /><animate attributeName="stroke-dashoffset" from="150" to="0" dur="1.8s" begin="15.4s" fill="freeze" /></path><path d="M77.56,86.45c6.24,3.25,13.62,9.07,15.32,11.83" class="stroke" stroke-dasharray="150"><set attributeName="opacity" to="0" dur="16.4s" /><animate attributeName="stroke-dashoffset" from="150" to="0" dur="1.8s" begin="16.4s" fill="freeze" /></path><text x="90" y="120" id="reset-kvg-06a0c">⟳</text><text x="70" y="120" id="pause-kvg-06a0c">◼</text><script type="text/javascript"><![CDATA[function RecurringTimer(e,t){var n,r,i=t;this.pause=function(){window.clearTimeout(n);i-=new Date-r};var s=function(){r=new Date;n=window.setTimeout(function(){i=t;s();e()},i)};this.clear=function(){window.clearTimeout(n);i=t;n=window.setTimeout(function(){i=t;s();e()},i)};this.resume=s;this.resume()}function invoketimer(){timer=new RecurringTimer(function(){svg.setCurrentTime(0)},18299.999999999996)}var svg=document.getElementById("kvg-06a0c");var pause=document.getElementById("pause-kvg-06a0c");var reset=document.getElementById("reset-kvg-06a0c");var timer;invoketimer();reset.onclick=function(){svg.setCurrentTime(0);timer.clear();svg.unpauseAnimations();pause.innerHTML = "◼";};pause.onclick=function(){if(svg.animationsPaused()){svg.unpauseAnimations();timer.resume();pause.innerHTML="◼"}else{svg.pauseAnimations();timer.pause();pause.innerHTML="▶"}}]]></script></svg>