<svg id="kvg-06a21" class="kanjivg" width="106" height="126" xmlns="http://www.w3.org/2000/svg" xmlns:xlink="http://www.w3.org/1999/xlink" xml:space="preserve" version="1.1" baseProfile="full"><defs><style type="text/css"><![CDATA[path.black{fill:none;stroke:black;stroke-width:5;stroke-linecap:round;stroke-linejoin:round;}path.grey{fill:none;stroke:#ddd;stroke-width:5;stroke-linecap:round;stroke-linejoin:round;}path.stroke{fill:none;stroke:black;stroke-width:5;stroke-linecap:round;stroke-linejoin:round;}rect{fill:none;stroke:#555;stroke-width:2;} text{font-size:16px;font-family:Segoe UI Symbol,Cambria Math,DejaVu Sans,Symbola,Quivira,STIX,Code2000;-webkit-touch-callout:none;cursor:pointer;-webkit-user-select:none;-khtml-user-select:none;-moz-user-select:none;-ms-user-select:none;user-select: none;}text:hover{color:#777;}#reset{font-weight:bold;}]]></style><marker id="markerStart" markerWidth="8" markerHeight="8" style="overflow:visible;"><circle cx="0" cy="0" r="1.5" style="stroke:none;fill:red;fill-opacity:0.5;"/></marker><marker id="markerEnd" style="overflow:visible;"><circle cx="0" cy="0" r="0.8" style="stroke:none;fill:blue;fill-opacity:0.5;"><animate attributeName="opacity" from="1" to="0" dur="3s" repeatCount="indefinite" /></circle></marker></defs><rect x="4" y="4" width="100" height="100" /><path d="M13.03,36.72c2.1,0.66,4.5,0.18,5.84,0c4.74-0.64,13.4-2.14,18.76-3.18c1.22-0.24,2.87-0.29,4.13-0.17" class="grey" /><path d="M28.36,15.5c1.07,1.07,1.29,2.38,1.29,4.17c0,7.11-0.08,51.33-0.21,69.83c-0.03,3.82-0.06,6.5-0.09,7.5" class="grey" /><path d="M28.69,36.78c0,2.09-1.14,5.55-1.7,7.06c-4.33,11.76-9.37,20.28-15.38,29" class="grey" /><path d="M32.12,44c2.69,1.62,7.11,6.86,9.38,10" class="grey" /><path d="M41.53,25.46c2.35,0.41,4.72,0.16,6.86-0.05c10.01-1.02,26.86-3.03,37.87-3.48c2.46-0.1,4.94-0.27,7.34,0.4" class="grey" /><path d="M52.84,14.12c0.95,0.95,1.44,2.05,1.6,2.89c1.47,7.93,2.14,12.91,2.56,15.8" class="grey" /><path d="M77.46,12.69c0.67,0.93,0.73,1.95,0.42,3.37c-1.47,6.73-1.85,8.34-3.53,15.07" class="grey" /><path d="M47.36,38.14c0.75,0.75,1.39,1.86,1.54,2.57c1.35,6.29,2.98,16.83,2.98,17.19c0,0.36,0.39,2.61,0.54,3.33" class="grey" /><path d="M49.62,39.76c5.91-0.91,26.81-3.6,32.63-4.22c2.29-0.24,4.58,0.96,4.18,3.59c-0.56,3.6-1.99,10.29-3.07,15.14c-0.33,1.48-0.62,2.79-0.85,3.79" class="grey" /><path d="M51.55,49.03c7.2-0.9,28.89-3.46,32.64-3.46" class="grey" /><path d="M53.08,59.21c7.79-0.71,20.17-2.46,28.76-2.77" class="grey" /><path d="M39.57,72.1c2.08,0.57,4.27,0.55,6.43,0.31c14.65-1.58,29.62-3.03,42.5-3.68c2.3-0.12,5.12-0.1,7,0.46" class="grey" /><path d="M65.38,61.01c0.74,0.74,0.89,2.05,0.78,3.09C64.2,81.65,56.01,90.5,39.25,96.06" class="grey" /><path d="M65.74,71.11c5.98,5.31,16.38,14.64,23.94,20.75c1.71,1.38,3.89,2.94,6.05,3.49" class="grey" /><path d="M13.03,36.72c2.1,0.66,4.5,0.18,5.84,0c4.74-0.64,13.4-2.14,18.76-3.18c1.22-0.24,2.87-0.29,4.13-0.17" class="stroke" stroke-dasharray="150"><animate attributeName="stroke-dashoffset" from="150" to="0" dur="1.8s" begin="0.0s" fill="freeze" /></path><path d="M28.36,15.5c1.07,1.07,1.29,2.38,1.29,4.17c0,7.11-0.08,51.33-0.21,69.83c-0.03,3.82-0.06,6.5-0.09,7.5" class="stroke" stroke-dasharray="150"><set attributeName="opacity" to="0" dur="1.0s" /><animate attributeName="stroke-dashoffset" from="150" to="0" dur="1.8s" begin="1.0s" fill="freeze" /></path><path d="M28.69,36.78c0,2.09-1.14,5.55-1.7,7.06c-4.33,11.76-9.37,20.28-15.38,29" class="stroke" stroke-dasharray="150"><set attributeName="opacity" to="0" dur="2.7s" /><animate attributeName="stroke-dashoffset" from="150" to="0" dur="1.8s" begin="2.7s" fill="freeze" /></path><path d="M32.12,44c2.69,1.62,7.11,6.86,9.38,10" class="stroke" stroke-dasharray="150"><set attributeName="opacity" to="0" dur="3.8000000000000003s" /><animate attributeName="stroke-dashoffset" from="150" to="0" dur="1.8s" begin="3.8000000000000003s" fill="freeze" /></path><path d="M41.53,25.46c2.35,0.41,4.72,0.16,6.86-0.05c10.01-1.02,26.86-3.03,37.87-3.48c2.46-0.1,4.94-0.27,7.34,0.4" class="stroke" stroke-dasharray="150"><set attributeName="opacity" to="0" dur="4.7s" /><animate attributeName="stroke-dashoffset" from="150" to="0" dur="1.8s" begin="4.7s" fill="freeze" /></path><path d="M52.84,14.12c0.95,0.95,1.44,2.05,1.6,2.89c1.47,7.93,2.14,12.91,2.56,15.8" class="stroke" stroke-dasharray="150"><set attributeName="opacity" to="0" dur="6.0s" /><animate attributeName="stroke-dashoffset" from="150" to="0" dur="1.8s" begin="6.0s" fill="freeze" /></path><path d="M77.46,12.69c0.67,0.93,0.73,1.95,0.42,3.37c-1.47,6.73-1.85,8.34-3.53,15.07" class="stroke" stroke-dasharray="150"><set attributeName="opacity" to="0" dur="6.9s" /><animate attributeName="stroke-dashoffset" from="150" to="0" dur="1.8s" begin="6.9s" fill="freeze" /></path><path d="M47.36,38.14c0.75,0.75,1.39,1.86,1.54,2.57c1.35,6.29,2.98,16.83,2.98,17.19c0,0.36,0.39,2.61,0.54,3.33" class="stroke" stroke-dasharray="150"><set attributeName="opacity" to="0" dur="7.800000000000001s" /><animate attributeName="stroke-dashoffset" from="150" to="0" dur="1.8s" begin="7.800000000000001s" fill="freeze" /></path><path d="M49.62,39.76c5.91-0.91,26.81-3.6,32.63-4.22c2.29-0.24,4.58,0.96,4.18,3.59c-0.56,3.6-1.99,10.29-3.07,15.14c-0.33,1.48-0.62,2.79-0.85,3.79" class="stroke" stroke-dasharray="150"><set attributeName="opacity" to="0" dur="8.8s" /><animate attributeName="stroke-dashoffset" from="150" to="0" dur="1.8s" begin="8.8s" fill="freeze" /></path><path d="M51.55,49.03c7.2-0.9,28.89-3.46,32.64-3.46" class="stroke" stroke-dasharray="150"><set attributeName="opacity" to="0" dur="10.200000000000001s" /><animate attributeName="stroke-dashoffset" from="150" to="0" dur="1.8s" begin="10.200000000000001s" fill="freeze" /></path><path d="M53.08,59.21c7.79-0.71,20.17-2.46,28.76-2.77" class="stroke" stroke-dasharray="150"><set attributeName="opacity" to="0" dur="11.200000000000001s" /><animate attributeName="stroke-dashoffset" from="150" to="0" dur="1.8s" begin="11.200000000000001s" fill="freeze" /></path><path d="M39.57,72.1c2.08,0.57,4.27,0.55,6.43,0.31c14.65-1.58,29.62-3.03,42.5-3.68c2.3-0.12,5.12-0.1,7,0.46" class="stroke" stroke-dasharray="150"><set attributeName="opacity" to="0" dur="12.200000000000001s" /><animate attributeName="stroke-dashoffset" from="150" to="0" dur="1.8s" begin="12.200000000000001s" fill="freeze" /></path><path d="M65.38,61.01c0.74,0.74,0.89,2.05,0.78,3.09C64.2,81.65,56.01,90.5,39.25,96.06" class="stroke" stroke-dasharray="150"><set attributeName="opacity" to="0" dur="13.600000000000001s" /><animate attributeName="stroke-dashoffset" from="150" to="0" dur="1.8s" begin="13.600000000000001s" fill="freeze" /></path><path d="M65.74,71.11c5.98,5.31,16.38,14.64,23.94,20.75c1.71,1.38,3.89,2.94,6.05,3.49" class="stroke" stroke-dasharray="150"><set attributeName="opacity" to="0" dur="14.8s" /><animate attributeName="stroke-dashoffset" from="150" to="0" dur="1.8s" begin="14.8s" fill="freeze" /></path><text x="90" y="120" id="reset-kvg-06a21">⟳</text><text x="70" y="120" id="pause-kvg-06a21">◼</text><script type="text/javascript"><![CDATA[function RecurringTimer(e,t){var n,r,i=t;this.pause=function(){window.clearTimeout(n);i-=new Date-r};var s=function(){r=new Date;n=window.setTimeout(function(){i=t;s();e()},i)};this.clear=function(){window.clearTimeout(n);i=t;n=window.setTimeout(function(){i=t;s();e()},i)};this.resume=s;this.resume()}function invoketimer(){timer=new RecurringTimer(function(){svg.setCurrentTime(0)},16800.0)}var svg=document.getElementById("kvg-06a21");var pause=document.getElementById("pause-kvg-06a21");var reset=document.getElementById("reset-kvg-06a21");var timer;invoketimer();reset.onclick=function(){svg.setCurrentTime(0);timer.clear();svg.unpauseAnimations();pause.innerHTML = "◼";};pause.onclick=function(){if(svg.animationsPaused()){svg.unpauseAnimations();timer.resume();pause.innerHTML="◼"}else{svg.pauseAnimations();timer.pause();pause.innerHTML="▶"}}]]></script></svg>