<svg id="kvg-06a59-HyougaiKaisho" class="kanjivg" width="106" height="126" xmlns="http://www.w3.org/2000/svg" xmlns:xlink="http://www.w3.org/1999/xlink" xml:space="preserve" version="1.1" baseProfile="full"><defs><style type="text/css"><![CDATA[path.black{fill:none;stroke:black;stroke-width:5;stroke-linecap:round;stroke-linejoin:round;}path.grey{fill:none;stroke:#ddd;stroke-width:5;stroke-linecap:round;stroke-linejoin:round;}path.stroke{fill:none;stroke:black;stroke-width:5;stroke-linecap:round;stroke-linejoin:round;}rect{fill:none;stroke:#555;stroke-width:2;} text{font-size:16px;font-family:Segoe UI Symbol,Cambria Math,DejaVu Sans,Symbola,Quivira,STIX,Code2000;-webkit-touch-callout:none;cursor:pointer;-webkit-user-select:none;-khtml-user-select:none;-moz-user-select:none;-ms-user-select:none;user-select: none;}text:hover{color:#777;}#reset{font-weight:bold;}]]></style><marker id="markerStart" markerWidth="8" markerHeight="8" style="overflow:visible;"><circle cx="0" cy="0" r="1.5" style="stroke:none;fill:red;fill-opacity:0.5;"/></marker><marker id="markerEnd" style="overflow:visible;"><circle cx="0" cy="0" r="0.8" style="stroke:none;fill:blue;fill-opacity:0.5;"><animate attributeName="opacity" from="1" to="0" dur="3s" repeatCount="indefinite" /></circle></marker></defs><rect x="4" y="4" width="100" height="100" /><path d="M9.78,35.22c0.35,0.24,2.39,0.41,3.31,0.31c3.94-0.41,16.62-0.71,22.95-1.91c0.92-0.17,2.15-0.24,2.73,0" class="grey" /><path d="M25.36,13.5c0.91,0.47,2.04,2.25,2.04,4.42c0,0.95-0.3,73.73-0.3,74.58c0,11.25-4.22,2.88-5.85,1.25" class="grey" /><path d="M26.94,38.78c-5.82,16.13-9.06,22.94-18.08,37.06" class="grey" /><path d="M29.47,44.15c2.37,1.73,5.28,6.25,7.28,9.6" class="grey" /><path d="M47.08,17.72c1.06,0.58,1.47,0.47,3.18,0.19c4.46-0.72,5.93-0.79,10.7-1.71c2.83-0.55,3.39,0.5,2.49,3.63c-2.12,7.36-9.7,23.41-22.22,35.73" class="grey" /><path d="M42.77,29.04c3.12,1.37,8.05,5.62,8.83,7.74" class="grey" /><path d="M81.57,16.63c0.02,0.2,0.04,0.51-0.04,0.79c-0.47,1.66-3.17,4.84-6.86,7.07" class="grey" /><path d="M65.89,19.86c4.86,3.78,21.49,25.61,25.75,30c1.45,1.49,2.69,2.13,4.13,2.56" class="grey" /><path d="M90.91,27.09c0.03,0.21,0.05,0.53-0.04,0.82c-0.56,1.74-3.74,5.14-8.1,7.47" class="grey" /><path d="M54.26,46.53c0.7,0.21,1.98,0.27,2.68,0.21c7.48-0.65,13.14-1.29,18.97-1.5c1.16-0.04,1.86,0.1,2.45,0.2" class="grey" /><path d="M49.23,56.57c0.42,0.35,0.95,0.62,1.03,1.08c0.57,3.36,2.12,11.27,2.98,17.48" class="grey" /><path d="M50.33,57.66c6.36-0.67,25.41-2.69,29.75-2.79c1.79-0.04,3.01,1.9,2.6,3.86c-0.72,3.51-2.08,8.86-3.3,13.44" class="grey" /><path d="M53.99,73.9c6.54-0.65,22.23-1.44,27.46-1.7" class="grey" /><path d="M52.83,80.43c1.62,1.86,4.14,6.59,4.55,9.48" class="grey" /><path d="M79.48,78.07c0.02,0.28,0.04,0.72-0.04,1.11c-0.45,2.35-3,7.5-6.5,10.65" class="grey" /><path d="M40.53,94.07c1.56,0.62,4.43,0.84,5.98,0.62C60,92.75,74.98,90.74,92.25,90.3c2.6-0.07,4.16,0.3,5.46,0.61" class="grey" /><path d="M9.78,35.22c0.35,0.24,2.39,0.41,3.31,0.31c3.94-0.41,16.62-0.71,22.95-1.91c0.92-0.17,2.15-0.24,2.73,0" class="stroke" stroke-dasharray="150"><animate attributeName="stroke-dashoffset" from="150" to="0" dur="1.8s" begin="0.0s" fill="freeze" /></path><path d="M25.36,13.5c0.91,0.47,2.04,2.25,2.04,4.42c0,0.95-0.3,73.73-0.3,74.58c0,11.25-4.22,2.88-5.85,1.25" class="stroke" stroke-dasharray="150"><set attributeName="opacity" to="0" dur="1.0s" /><animate attributeName="stroke-dashoffset" from="150" to="0" dur="1.8s" begin="1.0s" fill="freeze" /></path><path d="M26.94,38.78c-5.82,16.13-9.06,22.94-18.08,37.06" class="stroke" stroke-dasharray="150"><set attributeName="opacity" to="0" dur="2.8s" /><animate attributeName="stroke-dashoffset" from="150" to="0" dur="1.8s" begin="2.8s" fill="freeze" /></path><path d="M29.47,44.15c2.37,1.73,5.28,6.25,7.28,9.6" class="stroke" stroke-dasharray="150"><set attributeName="opacity" to="0" dur="3.9s" /><animate attributeName="stroke-dashoffset" from="150" to="0" dur="1.8s" begin="3.9s" fill="freeze" /></path><path d="M47.08,17.72c1.06,0.58,1.47,0.47,3.18,0.19c4.46-0.72,5.93-0.79,10.7-1.71c2.83-0.55,3.39,0.5,2.49,3.63c-2.12,7.36-9.7,23.41-22.22,35.73" class="stroke" stroke-dasharray="150"><set attributeName="opacity" to="0" dur="4.8s" /><animate attributeName="stroke-dashoffset" from="150" to="0" dur="1.8s" begin="4.8s" fill="freeze" /></path><path d="M42.77,29.04c3.12,1.37,8.05,5.62,8.83,7.74" class="stroke" stroke-dasharray="150"><set attributeName="opacity" to="0" dur="6.3s" /><animate attributeName="stroke-dashoffset" from="150" to="0" dur="1.8s" begin="6.3s" fill="freeze" /></path><path d="M81.57,16.63c0.02,0.2,0.04,0.51-0.04,0.79c-0.47,1.66-3.17,4.84-6.86,7.07" class="stroke" stroke-dasharray="150"><set attributeName="opacity" to="0" dur="7.2s" /><animate attributeName="stroke-dashoffset" from="150" to="0" dur="1.8s" begin="7.2s" fill="freeze" /></path><path d="M65.89,19.86c4.86,3.78,21.49,25.61,25.75,30c1.45,1.49,2.69,2.13,4.13,2.56" class="stroke" stroke-dasharray="150"><set attributeName="opacity" to="0" dur="8.1s" /><animate attributeName="stroke-dashoffset" from="150" to="0" dur="1.8s" begin="8.1s" fill="freeze" /></path><path d="M90.91,27.09c0.03,0.21,0.05,0.53-0.04,0.82c-0.56,1.74-3.74,5.14-8.1,7.47" class="stroke" stroke-dasharray="150"><set attributeName="opacity" to="0" dur="9.2s" /><animate attributeName="stroke-dashoffset" from="150" to="0" dur="1.8s" begin="9.2s" fill="freeze" /></path><path d="M54.26,46.53c0.7,0.21,1.98,0.27,2.68,0.21c7.48-0.65,13.14-1.29,18.97-1.5c1.16-0.04,1.86,0.1,2.45,0.2" class="stroke" stroke-dasharray="150"><set attributeName="opacity" to="0" dur="10.1s" /><animate attributeName="stroke-dashoffset" from="150" to="0" dur="1.8s" begin="10.1s" fill="freeze" /></path><path d="M49.23,56.57c0.42,0.35,0.95,0.62,1.03,1.08c0.57,3.36,2.12,11.27,2.98,17.48" class="stroke" stroke-dasharray="150"><set attributeName="opacity" to="0" dur="11.1s" /><animate attributeName="stroke-dashoffset" from="150" to="0" dur="1.8s" begin="11.1s" fill="freeze" /></path><path d="M50.33,57.66c6.36-0.67,25.41-2.69,29.75-2.79c1.79-0.04,3.01,1.9,2.6,3.86c-0.72,3.51-2.08,8.86-3.3,13.44" class="stroke" stroke-dasharray="150"><set attributeName="opacity" to="0" dur="12.0s" /><animate attributeName="stroke-dashoffset" from="150" to="0" dur="1.8s" begin="12.0s" fill="freeze" /></path><path d="M53.99,73.9c6.54-0.65,22.23-1.44,27.46-1.7" class="stroke" stroke-dasharray="150"><set attributeName="opacity" to="0" dur="13.2s" /><animate attributeName="stroke-dashoffset" from="150" to="0" dur="1.8s" begin="13.2s" fill="freeze" /></path><path d="M52.83,80.43c1.62,1.86,4.14,6.59,4.55,9.48" class="stroke" stroke-dasharray="150"><set attributeName="opacity" to="0" dur="14.2s" /><animate attributeName="stroke-dashoffset" from="150" to="0" dur="1.8s" begin="14.2s" fill="freeze" /></path><path d="M79.48,78.07c0.02,0.28,0.04,0.72-0.04,1.11c-0.45,2.35-3,7.5-6.5,10.65" class="stroke" stroke-dasharray="150"><set attributeName="opacity" to="0" dur="15.1s" /><animate attributeName="stroke-dashoffset" from="150" to="0" dur="1.8s" begin="15.1s" fill="freeze" /></path><path d="M40.53,94.07c1.56,0.62,4.43,0.84,5.98,0.62C60,92.75,74.98,90.74,92.25,90.3c2.6-0.07,4.16,0.3,5.46,0.61" class="stroke" stroke-dasharray="150"><set attributeName="opacity" to="0" dur="16.0s" /><animate attributeName="stroke-dashoffset" from="150" to="0" dur="1.8s" begin="16.0s" fill="freeze" /></path><text x="90" y="120" id="reset-kvg-06a59-HyougaiKaisho">⟳</text><text x="70" y="120" id="pause-kvg-06a59-HyougaiKaisho">◼</text><script type="text/javascript"><![CDATA[function RecurringTimer(e,t){var n,r,i=t;this.pause=function(){window.clearTimeout(n);i-=new Date-r};var s=function(){r=new Date;n=window.setTimeout(function(){i=t;s();e()},i)};this.clear=function(){window.clearTimeout(n);i=t;n=window.setTimeout(function(){i=t;s();e()},i)};this.resume=s;this.resume()}function invoketimer(){timer=new RecurringTimer(function(){svg.setCurrentTime(0)},18400.0)}var svg=document.getElementById("kvg-06a59-HyougaiKaisho");var pause=document.getElementById("pause-kvg-06a59-HyougaiKaisho");var reset=document.getElementById("reset-kvg-06a59-HyougaiKaisho");var timer;invoketimer();reset.onclick=function(){svg.setCurrentTime(0);timer.clear();svg.unpauseAnimations();pause.innerHTML = "◼";};pause.onclick=function(){if(svg.animationsPaused()){svg.unpauseAnimations();timer.resume();pause.innerHTML="◼"}else{svg.pauseAnimations();timer.pause();pause.innerHTML="▶"}}]]></script></svg>