<svg id="kvg-06a72" class="kanjivg" width="106" height="126" xmlns="http://www.w3.org/2000/svg" xmlns:xlink="http://www.w3.org/1999/xlink" xml:space="preserve" version="1.1" baseProfile="full"><defs><style type="text/css"><![CDATA[path.black{fill:none;stroke:black;stroke-width:5;stroke-linecap:round;stroke-linejoin:round;}path.grey{fill:none;stroke:#ddd;stroke-width:5;stroke-linecap:round;stroke-linejoin:round;}path.stroke{fill:none;stroke:black;stroke-width:5;stroke-linecap:round;stroke-linejoin:round;}rect{fill:none;stroke:#555;stroke-width:2;} text{font-size:16px;font-family:Segoe UI Symbol,Cambria Math,DejaVu Sans,Symbola,Quivira,STIX,Code2000;-webkit-touch-callout:none;cursor:pointer;-webkit-user-select:none;-khtml-user-select:none;-moz-user-select:none;-ms-user-select:none;user-select: none;}text:hover{color:#777;}#reset{font-weight:bold;}]]></style><marker id="markerStart" markerWidth="8" markerHeight="8" style="overflow:visible;"><circle cx="0" cy="0" r="1.5" style="stroke:none;fill:red;fill-opacity:0.5;"/></marker><marker id="markerEnd" style="overflow:visible;"><circle cx="0" cy="0" r="0.8" style="stroke:none;fill:blue;fill-opacity:0.5;"><animate attributeName="opacity" from="1" to="0" dur="3s" repeatCount="indefinite" /></circle></marker></defs><rect x="4" y="4" width="100" height="100" /><path d="M12.28,39.72c0.35,0.24,2.39,0.41,3.31,0.31c3.94-0.41,18.12-1.71,24.45-2.91c0.92-0.17,2.15-0.24,2.73,0" class="grey" /><path d="M27.86,14.5c0.91,0.47,2.54,2.75,2.54,4.42c0,0.95-0.12,72.75-0.3,78.58" class="grey" /><path d="M29.94,40.28c-5.77,15.77-9.11,22.76-19.83,35.81" class="grey" /><path d="M32.72,46.9C35.1,48.57,39,54,41,57.25" class="grey" /><path d="M44.86,22.99c1.42,0.4,4.01,0.36,5.43,0.24c8.45-0.73,23.2-2.48,34.19-3.34c2.36-0.18,3.78,0.07,4.96,0.25" class="grey" /><path d="M64.71,12.26c0.7,0.3,1.12,1.45,1.26,2.11c0.14,0.66,0.01,14.01-0.13,18.2" class="grey" /><path d="M48.88,33.92c0.99,0.33,2.8,0.27,3.79,0.17c13.08-1.19,10.23-1.11,29.18-2.28c1.65-0.1,2.64,0.04,3.46,0.19" class="grey" /><path d="M50.38,42.29c0.32,0.27,0.65,0.49,0.79,0.82c1.11,2.62,2.44,9.86,3.2,14.57" class="grey" /><path d="M52.38,43.69c7.83-1.1,25.59-3.04,29.63-3.41c1.48-0.14,2.37,1.37,2.16,2.16c-0.88,3.3-1.47,5.69-3.34,10.44" class="grey" /><path d="M54.68,55.94c4.74-0.42,22.49-2.22,28.51-2.64" class="grey" /><path d="M53.68,60.94c2.1,1.23,5.42,5.06,5.94,6.97" class="grey" /><path d="M79.75,58.71c0.01,0.2,0.03,0.52-0.03,0.8c-0.33,1.69-2.24,5.4-4.86,7.67" class="grey" /><path d="M41.1,71.81c1.32,0.5,3.75,0.63,5.08,0.5c9.75-0.92,32.57-3.12,47.33-3.8c2.21-0.1,3.53,0.24,4.63,0.49" class="grey" /><path d="M50.08,79.95c0.35,0.28,0.72,0.52,0.87,0.87c1.23,2.8,2.43,11.86,3.27,16.89" class="grey" /><path d="M51.79,81.44c8.67-1.17,26.95-2.74,31.42-3.14c1.64-0.14,2.62,1.46,2.39,2.31c-0.97,3.52-1.62,8.33-3.7,13.41" class="grey" /><path d="M54.57,95.86c5.25-0.45,23.24-1.45,29.91-1.9" class="grey" /><path d="M12.28,39.72c0.35,0.24,2.39,0.41,3.31,0.31c3.94-0.41,18.12-1.71,24.45-2.91c0.92-0.17,2.15-0.24,2.73,0" class="stroke" stroke-dasharray="150"><animate attributeName="stroke-dashoffset" from="150" to="0" dur="1.8s" begin="0.0s" fill="freeze" /></path><path d="M27.86,14.5c0.91,0.47,2.54,2.75,2.54,4.42c0,0.95-0.12,72.75-0.3,78.58" class="stroke" stroke-dasharray="150"><set attributeName="opacity" to="0" dur="1.0s" /><animate attributeName="stroke-dashoffset" from="150" to="0" dur="1.8s" begin="1.0s" fill="freeze" /></path><path d="M29.94,40.28c-5.77,15.77-9.11,22.76-19.83,35.81" class="stroke" stroke-dasharray="150"><set attributeName="opacity" to="0" dur="2.7s" /><animate attributeName="stroke-dashoffset" from="150" to="0" dur="1.8s" begin="2.7s" fill="freeze" /></path><path d="M32.72,46.9C35.1,48.57,39,54,41,57.25" class="stroke" stroke-dasharray="150"><set attributeName="opacity" to="0" dur="3.8000000000000003s" /><animate attributeName="stroke-dashoffset" from="150" to="0" dur="1.8s" begin="3.8000000000000003s" fill="freeze" /></path><path d="M44.86,22.99c1.42,0.4,4.01,0.36,5.43,0.24c8.45-0.73,23.2-2.48,34.19-3.34c2.36-0.18,3.78,0.07,4.96,0.25" class="stroke" stroke-dasharray="150"><set attributeName="opacity" to="0" dur="4.7s" /><animate attributeName="stroke-dashoffset" from="150" to="0" dur="1.8s" begin="4.7s" fill="freeze" /></path><path d="M64.71,12.26c0.7,0.3,1.12,1.45,1.26,2.11c0.14,0.66,0.01,14.01-0.13,18.2" class="stroke" stroke-dasharray="150"><set attributeName="opacity" to="0" dur="5.800000000000001s" /><animate attributeName="stroke-dashoffset" from="150" to="0" dur="1.8s" begin="5.800000000000001s" fill="freeze" /></path><path d="M48.88,33.92c0.99,0.33,2.8,0.27,3.79,0.17c13.08-1.19,10.23-1.11,29.18-2.28c1.65-0.1,2.64,0.04,3.46,0.19" class="stroke" stroke-dasharray="150"><set attributeName="opacity" to="0" dur="6.800000000000001s" /><animate attributeName="stroke-dashoffset" from="150" to="0" dur="1.8s" begin="6.800000000000001s" fill="freeze" /></path><path d="M50.38,42.29c0.32,0.27,0.65,0.49,0.79,0.82c1.11,2.62,2.44,9.86,3.2,14.57" class="stroke" stroke-dasharray="150"><set attributeName="opacity" to="0" dur="7.800000000000001s" /><animate attributeName="stroke-dashoffset" from="150" to="0" dur="1.8s" begin="7.800000000000001s" fill="freeze" /></path><path d="M52.38,43.69c7.83-1.1,25.59-3.04,29.63-3.41c1.48-0.14,2.37,1.37,2.16,2.16c-0.88,3.3-1.47,5.69-3.34,10.44" class="stroke" stroke-dasharray="150"><set attributeName="opacity" to="0" dur="8.700000000000001s" /><animate attributeName="stroke-dashoffset" from="150" to="0" dur="1.8s" begin="8.700000000000001s" fill="freeze" /></path><path d="M54.68,55.94c4.74-0.42,22.49-2.22,28.51-2.64" class="stroke" stroke-dasharray="150"><set attributeName="opacity" to="0" dur="9.8s" /><animate attributeName="stroke-dashoffset" from="150" to="0" dur="1.8s" begin="9.8s" fill="freeze" /></path><path d="M53.68,60.94c2.1,1.23,5.42,5.06,5.94,6.97" class="stroke" stroke-dasharray="150"><set attributeName="opacity" to="0" dur="10.8s" /><animate attributeName="stroke-dashoffset" from="150" to="0" dur="1.8s" begin="10.8s" fill="freeze" /></path><path d="M79.75,58.71c0.01,0.2,0.03,0.52-0.03,0.8c-0.33,1.69-2.24,5.4-4.86,7.67" class="stroke" stroke-dasharray="150"><set attributeName="opacity" to="0" dur="11.700000000000001s" /><animate attributeName="stroke-dashoffset" from="150" to="0" dur="1.8s" begin="11.700000000000001s" fill="freeze" /></path><path d="M41.1,71.81c1.32,0.5,3.75,0.63,5.08,0.5c9.75-0.92,32.57-3.12,47.33-3.8c2.21-0.1,3.53,0.24,4.63,0.49" class="stroke" stroke-dasharray="150"><set attributeName="opacity" to="0" dur="12.600000000000001s" /><animate attributeName="stroke-dashoffset" from="150" to="0" dur="1.8s" begin="12.600000000000001s" fill="freeze" /></path><path d="M50.08,79.95c0.35,0.28,0.72,0.52,0.87,0.87c1.23,2.8,2.43,11.86,3.27,16.89" class="stroke" stroke-dasharray="150"><set attributeName="opacity" to="0" dur="14.000000000000002s" /><animate attributeName="stroke-dashoffset" from="150" to="0" dur="1.8s" begin="14.000000000000002s" fill="freeze" /></path><path d="M51.79,81.44c8.67-1.17,26.95-2.74,31.42-3.14c1.64-0.14,2.62,1.46,2.39,2.31c-0.97,3.52-1.62,8.33-3.7,13.41" class="stroke" stroke-dasharray="150"><set attributeName="opacity" to="0" dur="14.900000000000002s" /><animate attributeName="stroke-dashoffset" from="150" to="0" dur="1.8s" begin="14.900000000000002s" fill="freeze" /></path><path d="M54.57,95.86c5.25-0.45,23.24-1.45,29.91-1.9" class="stroke" stroke-dasharray="150"><set attributeName="opacity" to="0" dur="16.1s" /><animate attributeName="stroke-dashoffset" from="150" to="0" dur="1.8s" begin="16.1s" fill="freeze" /></path><text x="90" y="120" id="reset-kvg-06a72">⟳</text><text x="70" y="120" id="pause-kvg-06a72">◼</text><script type="text/javascript"><![CDATA[function RecurringTimer(e,t){var n,r,i=t;this.pause=function(){window.clearTimeout(n);i-=new Date-r};var s=function(){r=new Date;n=window.setTimeout(function(){i=t;s();e()},i)};this.clear=function(){window.clearTimeout(n);i=t;n=window.setTimeout(function(){i=t;s();e()},i)};this.resume=s;this.resume()}function invoketimer(){timer=new RecurringTimer(function(){svg.setCurrentTime(0)},18100.0)}var svg=document.getElementById("kvg-06a72");var pause=document.getElementById("pause-kvg-06a72");var reset=document.getElementById("reset-kvg-06a72");var timer;invoketimer();reset.onclick=function(){svg.setCurrentTime(0);timer.clear();svg.unpauseAnimations();pause.innerHTML = "◼";};pause.onclick=function(){if(svg.animationsPaused()){svg.unpauseAnimations();timer.resume();pause.innerHTML="◼"}else{svg.pauseAnimations();timer.pause();pause.innerHTML="▶"}}]]></script></svg>