<svg id="kvg-06aac" class="kanjivg" width="106" height="126" xmlns="http://www.w3.org/2000/svg" xmlns:xlink="http://www.w3.org/1999/xlink" xml:space="preserve" version="1.1" baseProfile="full"><defs><style type="text/css"><![CDATA[path.black{fill:none;stroke:black;stroke-width:5;stroke-linecap:round;stroke-linejoin:round;}path.grey{fill:none;stroke:#ddd;stroke-width:5;stroke-linecap:round;stroke-linejoin:round;}path.stroke{fill:none;stroke:black;stroke-width:5;stroke-linecap:round;stroke-linejoin:round;}rect{fill:none;stroke:#555;stroke-width:2;} text{font-size:16px;font-family:Segoe UI Symbol,Cambria Math,DejaVu Sans,Symbola,Quivira,STIX,Code2000;-webkit-touch-callout:none;cursor:pointer;-webkit-user-select:none;-khtml-user-select:none;-moz-user-select:none;-ms-user-select:none;user-select: none;}text:hover{color:#777;}#reset{font-weight:bold;}]]></style><marker id="markerStart" markerWidth="8" markerHeight="8" style="overflow:visible;"><circle cx="0" cy="0" r="1.5" style="stroke:none;fill:red;fill-opacity:0.5;"/></marker><marker id="markerEnd" style="overflow:visible;"><circle cx="0" cy="0" r="0.8" style="stroke:none;fill:blue;fill-opacity:0.5;"><animate attributeName="opacity" from="1" to="0" dur="3s" repeatCount="indefinite" /></circle></marker></defs><rect x="4" y="4" width="100" height="100" /><path d="M10.28,38.22c0.35,0.24,2.38,0.32,3.31,0.31c5.67-0.03,9.67-0.28,18.45-1.41c0.93-0.12,2.15-0.24,2.73,0" class="grey" /><path d="M23.86,13.5c0.91,0.47,2.04,2,2.04,4.42c0,0.95-0.12,73.75-0.3,79.58" class="grey" /><path d="M25.44,41.28c-4.94,15.25-7.69,22.71-15.33,36.06" class="grey" /><path d="M27.72,48.4c2.05,1.59,6.3,9.76,8.03,12.85" class="grey" /><path d="M39.38,21.7c1.37,0.7,2.95,0.76,4.33,0.7c12.87-0.63,29.58-2.68,44.06-2.78c2.28-0.02,3.65,0.33,4.78,0.68" class="grey" /><path d="M52.59,11.94c0.96,1.12,1.27,1.46,1.37,2.14c0.96,6.43,1.23,12.27,1.5,14.61" class="grey" /><path d="M75.03,11.25c0.71,0.79,1.18,2.01,0.95,3.18c-0.71,3.58-1.54,9.04-2.57,13.62" class="grey" /><path d="M41.73,34.73c0,3.23-3.76,12.11-5.23,14.27" class="grey" /><path d="M41.98,35.61c18.52-1.11,45.99-2.22,47.51-2.33c9.89-0.68,4.11,5.26,0.41,8.39" class="grey" /><path d="M49.88,43.8c0.88,0.12,2.5,0.13,3.38,0.12c4.83-0.04,13.14-0.51,21.2-0.88c1.46-0.07,2.77,0.06,3.5,0.12" class="grey" /><path d="M40.08,53.27c1.36,0.59,3.84,0.63,5.2,0.59c9.28-0.23,30.27-2.15,42.28-2.45c2.26-0.06,3.62,0.28,4.75,0.58" class="grey" /><path d="M62.77,54.86c0.06,0.3,0.12,0.77-0.11,1.2c-1.39,2.53-9.37,8.09-20.29,11.49" class="grey" /><path d="M61.19,61.55c5.31,5.95,10.19,22.41,4.94,34.22c-2.32,5.21-5.4,0.63-6.18,0.03" class="grey" /><path d="M60.5,67.34c0.06,0.37,0.13,0.96-0.12,1.49c-1.51,3.14-10.19,10.03-22.06,14.25" class="grey" /><path d="M63.7,76.61c0.07,0.48,0.16,1.24-0.15,1.93c-1.8,4.07-13.09,11.89-27.24,17.35" class="grey" /><path d="M84.38,59.69c0.03,0.28,0.07,0.72-0.06,1.11c-0.78,2.35-5.28,7.5-11.44,10.66" class="grey" /><path d="M65.76,67.48c3.92,3.23,19.3,18.02,25.4,21.69c1.52,0.91,2.68,1.54,4.13,1.85" class="grey" /><path d="M10.28,38.22c0.35,0.24,2.38,0.32,3.31,0.31c5.67-0.03,9.67-0.28,18.45-1.41c0.93-0.12,2.15-0.24,2.73,0" class="stroke" stroke-dasharray="150"><animate attributeName="stroke-dashoffset" from="150" to="0" dur="1.8s" begin="0.0s" fill="freeze" /></path><path d="M23.86,13.5c0.91,0.47,2.04,2,2.04,4.42c0,0.95-0.12,73.75-0.3,79.58" class="stroke" stroke-dasharray="150"><set attributeName="opacity" to="0" dur="1.0s" /><animate attributeName="stroke-dashoffset" from="150" to="0" dur="1.8s" begin="1.0s" fill="freeze" /></path><path d="M25.44,41.28c-4.94,15.25-7.69,22.71-15.33,36.06" class="stroke" stroke-dasharray="150"><set attributeName="opacity" to="0" dur="2.7s" /><animate attributeName="stroke-dashoffset" from="150" to="0" dur="1.8s" begin="2.7s" fill="freeze" /></path><path d="M27.72,48.4c2.05,1.59,6.3,9.76,8.03,12.85" class="stroke" stroke-dasharray="150"><set attributeName="opacity" to="0" dur="3.7s" /><animate attributeName="stroke-dashoffset" from="150" to="0" dur="1.8s" begin="3.7s" fill="freeze" /></path><path d="M39.38,21.7c1.37,0.7,2.95,0.76,4.33,0.7c12.87-0.63,29.58-2.68,44.06-2.78c2.28-0.02,3.65,0.33,4.78,0.68" class="stroke" stroke-dasharray="150"><set attributeName="opacity" to="0" dur="4.6000000000000005s" /><animate attributeName="stroke-dashoffset" from="150" to="0" dur="1.8s" begin="4.6000000000000005s" fill="freeze" /></path><path d="M52.59,11.94c0.96,1.12,1.27,1.46,1.37,2.14c0.96,6.43,1.23,12.27,1.5,14.61" class="stroke" stroke-dasharray="150"><set attributeName="opacity" to="0" dur="5.9s" /><animate attributeName="stroke-dashoffset" from="150" to="0" dur="1.8s" begin="5.9s" fill="freeze" /></path><path d="M75.03,11.25c0.71,0.79,1.18,2.01,0.95,3.18c-0.71,3.58-1.54,9.04-2.57,13.62" class="stroke" stroke-dasharray="150"><set attributeName="opacity" to="0" dur="6.800000000000001s" /><animate attributeName="stroke-dashoffset" from="150" to="0" dur="1.8s" begin="6.800000000000001s" fill="freeze" /></path><path d="M41.73,34.73c0,3.23-3.76,12.11-5.23,14.27" class="stroke" stroke-dasharray="150"><set attributeName="opacity" to="0" dur="7.700000000000001s" /><animate attributeName="stroke-dashoffset" from="150" to="0" dur="1.8s" begin="7.700000000000001s" fill="freeze" /></path><path d="M41.98,35.61c18.52-1.11,45.99-2.22,47.51-2.33c9.89-0.68,4.11,5.26,0.41,8.39" class="stroke" stroke-dasharray="150"><set attributeName="opacity" to="0" dur="8.600000000000001s" /><animate attributeName="stroke-dashoffset" from="150" to="0" dur="1.8s" begin="8.600000000000001s" fill="freeze" /></path><path d="M49.88,43.8c0.88,0.12,2.5,0.13,3.38,0.12c4.83-0.04,13.14-0.51,21.2-0.88c1.46-0.07,2.77,0.06,3.5,0.12" class="stroke" stroke-dasharray="150"><set attributeName="opacity" to="0" dur="10.100000000000001s" /><animate attributeName="stroke-dashoffset" from="150" to="0" dur="1.8s" begin="10.100000000000001s" fill="freeze" /></path><path d="M40.08,53.27c1.36,0.59,3.84,0.63,5.2,0.59c9.28-0.23,30.27-2.15,42.28-2.45c2.26-0.06,3.62,0.28,4.75,0.58" class="stroke" stroke-dasharray="150"><set attributeName="opacity" to="0" dur="11.100000000000001s" /><animate attributeName="stroke-dashoffset" from="150" to="0" dur="1.8s" begin="11.100000000000001s" fill="freeze" /></path><path d="M62.77,54.86c0.06,0.3,0.12,0.77-0.11,1.2c-1.39,2.53-9.37,8.09-20.29,11.49" class="stroke" stroke-dasharray="150"><set attributeName="opacity" to="0" dur="12.400000000000002s" /><animate attributeName="stroke-dashoffset" from="150" to="0" dur="1.8s" begin="12.400000000000002s" fill="freeze" /></path><path d="M61.19,61.55c5.31,5.95,10.19,22.41,4.94,34.22c-2.32,5.21-5.4,0.63-6.18,0.03" class="stroke" stroke-dasharray="150"><set attributeName="opacity" to="0" dur="13.400000000000002s" /><animate attributeName="stroke-dashoffset" from="150" to="0" dur="1.8s" begin="13.400000000000002s" fill="freeze" /></path><path d="M60.5,67.34c0.06,0.37,0.13,0.96-0.12,1.49c-1.51,3.14-10.19,10.03-22.06,14.25" class="stroke" stroke-dasharray="150"><set attributeName="opacity" to="0" dur="14.500000000000002s" /><animate attributeName="stroke-dashoffset" from="150" to="0" dur="1.8s" begin="14.500000000000002s" fill="freeze" /></path><path d="M63.7,76.61c0.07,0.48,0.16,1.24-0.15,1.93c-1.8,4.07-13.09,11.89-27.24,17.35" class="stroke" stroke-dasharray="150"><set attributeName="opacity" to="0" dur="15.500000000000002s" /><animate attributeName="stroke-dashoffset" from="150" to="0" dur="1.8s" begin="15.500000000000002s" fill="freeze" /></path><path d="M84.38,59.69c0.03,0.28,0.07,0.72-0.06,1.11c-0.78,2.35-5.28,7.5-11.44,10.66" class="stroke" stroke-dasharray="150"><set attributeName="opacity" to="0" dur="16.5s" /><animate attributeName="stroke-dashoffset" from="150" to="0" dur="1.8s" begin="16.5s" fill="freeze" /></path><path d="M65.76,67.48c3.92,3.23,19.3,18.02,25.4,21.69c1.52,0.91,2.68,1.54,4.13,1.85" class="stroke" stroke-dasharray="150"><set attributeName="opacity" to="0" dur="17.4s" /><animate attributeName="stroke-dashoffset" from="150" to="0" dur="1.8s" begin="17.4s" fill="freeze" /></path><text x="90" y="120" id="reset-kvg-06aac">⟳</text><text x="70" y="120" id="pause-kvg-06aac">◼</text><script type="text/javascript"><![CDATA[function RecurringTimer(e,t){var n,r,i=t;this.pause=function(){window.clearTimeout(n);i-=new Date-r};var s=function(){r=new Date;n=window.setTimeout(function(){i=t;s();e()},i)};this.clear=function(){window.clearTimeout(n);i=t;n=window.setTimeout(function(){i=t;s();e()},i)};this.resume=s;this.resume()}function invoketimer(){timer=new RecurringTimer(function(){svg.setCurrentTime(0)},19400.0)}var svg=document.getElementById("kvg-06aac");var pause=document.getElementById("pause-kvg-06aac");var reset=document.getElementById("reset-kvg-06aac");var timer;invoketimer();reset.onclick=function(){svg.setCurrentTime(0);timer.clear();svg.unpauseAnimations();pause.innerHTML = "◼";};pause.onclick=function(){if(svg.animationsPaused()){svg.unpauseAnimations();timer.resume();pause.innerHTML="◼"}else{svg.pauseAnimations();timer.pause();pause.innerHTML="▶"}}]]></script></svg>