<svg id="kvg-06ac1-KaishoTen3" class="kanjivg" width="106" height="126" xmlns="http://www.w3.org/2000/svg" xmlns:xlink="http://www.w3.org/1999/xlink" xml:space="preserve" version="1.1" baseProfile="full"><defs><style type="text/css"><![CDATA[path.black{fill:none;stroke:black;stroke-width:5;stroke-linecap:round;stroke-linejoin:round;}path.grey{fill:none;stroke:#ddd;stroke-width:5;stroke-linecap:round;stroke-linejoin:round;}path.stroke{fill:none;stroke:black;stroke-width:5;stroke-linecap:round;stroke-linejoin:round;}rect{fill:none;stroke:#555;stroke-width:2;} text{font-size:16px;font-family:Segoe UI Symbol,Cambria Math,DejaVu Sans,Symbola,Quivira,STIX,Code2000;-webkit-touch-callout:none;cursor:pointer;-webkit-user-select:none;-khtml-user-select:none;-moz-user-select:none;-ms-user-select:none;user-select: none;}text:hover{color:#777;}#reset{font-weight:bold;}]]></style><marker id="markerStart" markerWidth="8" markerHeight="8" style="overflow:visible;"><circle cx="0" cy="0" r="1.5" style="stroke:none;fill:red;fill-opacity:0.5;"/></marker><marker id="markerEnd" style="overflow:visible;"><circle cx="0" cy="0" r="0.8" style="stroke:none;fill:blue;fill-opacity:0.5;"><animate attributeName="opacity" from="1" to="0" dur="3s" repeatCount="indefinite" /></circle></marker></defs><rect x="4" y="4" width="100" height="100" /><path d="M9.78,36.22c0.35,0.24,2.39,0.41,3.31,0.31c3.94-0.41,15.62-0.71,21.95-1.91c0.92-0.17,2.15-0.24,2.73,0" class="grey" /><path d="M25.36,15.5c0.91,0.47,2.54,2.25,2.54,4.42c0,0.95-0.3,65.75-0.3,71.58c0,12.25-4.6,3.25-6.35,1.5" class="grey" /><path d="M27.44,41.28c-5.1,15.04-7.94,20.4-15.83,33.56" class="grey" /><path d="M30.22,49.65c2.16,1.88,5.71,7.97,7.53,11.6" class="grey" /><path d="M63.46,11.04c1.84,0.72,4.54,4.21,5.93,8" class="grey" /><path d="M44.75,25.03c0,3.34-2.61,12.65-3.58,14.93" class="grey" /><path d="M45.03,27.91c6.65-1.32,38.86-3.81,44.29-3.94c9.68-0.22,1.79,6.78-0.31,8.93" class="grey" /><path d="M77.45,30.42c0.08,0.63,0.1,1.61-0.16,2.54c-2.1,7.55-16.89,21.67-33.25,27.82" class="grey" /><path d="M54.91,33.95c5,13.65,10.59,20.8,28.51,23.1c6.31,0.81,4.81-3.37,2.17-6.23" class="grey" /><path d="M62.31,33.48c0.85,1.8,3.09,5.33,3.62,2.79" class="grey" /><path d="M49.22,40.55c0.26,1.54-2.65,8.33-4.77,10.89" class="grey" /><path d="M86.49,40.44c3.38,1.6,7.4,4.87,8.67,7.98" class="grey" /><path d="M48.82,68.03c0.43,0.33,0.73,1.13,0.81,1.56c0.58,3.11,1.17,7.7,1.99,13.58" class="grey" /><path d="M49.95,68.73c6.51-0.62,28.76-2.82,33.47-3.06c1.84-0.09,1.92,0.99,1.74,2.37c-0.42,3.21-1.09,4.58-2.36,9.88" class="grey" /><path d="M51.86,80.91c5.24-0.62,24.39-2.16,33.09-2.1" class="grey" /><path d="M65.59,57.99c0.72,0.33,1.15,1.46,1.29,2.11c0.14,0.65,0,28.11-0.14,32.17" class="grey" /><path d="M46.38,94.68c0.62,1.07,2.11,1.21,2.95,1.13s31.72-4.21,36.96-4.85" class="grey" /><path d="M79.67,84.17c4.01,2.29,10.37,9.41,11.38,12.98" class="grey" /><path d="M9.78,36.22c0.35,0.24,2.39,0.41,3.31,0.31c3.94-0.41,15.62-0.71,21.95-1.91c0.92-0.17,2.15-0.24,2.73,0" class="stroke" stroke-dasharray="150"><animate attributeName="stroke-dashoffset" from="150" to="0" dur="1.8s" begin="0.0s" fill="freeze" /></path><path d="M25.36,15.5c0.91,0.47,2.54,2.25,2.54,4.42c0,0.95-0.3,65.75-0.3,71.58c0,12.25-4.6,3.25-6.35,1.5" class="stroke" stroke-dasharray="150"><set attributeName="opacity" to="0" dur="1.0s" /><animate attributeName="stroke-dashoffset" from="150" to="0" dur="1.8s" begin="1.0s" fill="freeze" /></path><path d="M27.44,41.28c-5.1,15.04-7.94,20.4-15.83,33.56" class="stroke" stroke-dasharray="150"><set attributeName="opacity" to="0" dur="2.8s" /><animate attributeName="stroke-dashoffset" from="150" to="0" dur="1.8s" begin="2.8s" fill="freeze" /></path><path d="M30.22,49.65c2.16,1.88,5.71,7.97,7.53,11.6" class="stroke" stroke-dasharray="150"><set attributeName="opacity" to="0" dur="3.8s" /><animate attributeName="stroke-dashoffset" from="150" to="0" dur="1.8s" begin="3.8s" fill="freeze" /></path><path d="M63.46,11.04c1.84,0.72,4.54,4.21,5.93,8" class="stroke" stroke-dasharray="150"><set attributeName="opacity" to="0" dur="4.7s" /><animate attributeName="stroke-dashoffset" from="150" to="0" dur="1.8s" begin="4.7s" fill="freeze" /></path><path d="M44.75,25.03c0,3.34-2.61,12.65-3.58,14.93" class="stroke" stroke-dasharray="150"><set attributeName="opacity" to="0" dur="5.6000000000000005s" /><animate attributeName="stroke-dashoffset" from="150" to="0" dur="1.8s" begin="5.6000000000000005s" fill="freeze" /></path><path d="M45.03,27.91c6.65-1.32,38.86-3.81,44.29-3.94c9.68-0.22,1.79,6.78-0.31,8.93" class="stroke" stroke-dasharray="150"><set attributeName="opacity" to="0" dur="6.500000000000001s" /><animate attributeName="stroke-dashoffset" from="150" to="0" dur="1.8s" begin="6.500000000000001s" fill="freeze" /></path><path d="M77.45,30.42c0.08,0.63,0.1,1.61-0.16,2.54c-2.1,7.55-16.89,21.67-33.25,27.82" class="stroke" stroke-dasharray="150"><set attributeName="opacity" to="0" dur="7.9s" /><animate attributeName="stroke-dashoffset" from="150" to="0" dur="1.8s" begin="7.9s" fill="freeze" /></path><path d="M54.91,33.95c5,13.65,10.59,20.8,28.51,23.1c6.31,0.81,4.81-3.37,2.17-6.23" class="stroke" stroke-dasharray="150"><set attributeName="opacity" to="0" dur="9.1s" /><animate attributeName="stroke-dashoffset" from="150" to="0" dur="1.8s" begin="9.1s" fill="freeze" /></path><path d="M62.31,33.48c0.85,1.8,3.09,5.33,3.62,2.79" class="stroke" stroke-dasharray="150"><set attributeName="opacity" to="0" dur="10.299999999999999s" /><animate attributeName="stroke-dashoffset" from="150" to="0" dur="1.8s" begin="10.299999999999999s" fill="freeze" /></path><path d="M49.22,40.55c0.26,1.54-2.65,8.33-4.77,10.89" class="stroke" stroke-dasharray="150"><set attributeName="opacity" to="0" dur="11.2s" /><animate attributeName="stroke-dashoffset" from="150" to="0" dur="1.8s" begin="11.2s" fill="freeze" /></path><path d="M86.49,40.44c3.38,1.6,7.4,4.87,8.67,7.98" class="stroke" stroke-dasharray="150"><set attributeName="opacity" to="0" dur="12.1s" /><animate attributeName="stroke-dashoffset" from="150" to="0" dur="1.8s" begin="12.1s" fill="freeze" /></path><path d="M48.82,68.03c0.43,0.33,0.73,1.13,0.81,1.56c0.58,3.11,1.17,7.7,1.99,13.58" class="stroke" stroke-dasharray="150"><set attributeName="opacity" to="0" dur="13.0s" /><animate attributeName="stroke-dashoffset" from="150" to="0" dur="1.8s" begin="13.0s" fill="freeze" /></path><path d="M49.95,68.73c6.51-0.62,28.76-2.82,33.47-3.06c1.84-0.09,1.92,0.99,1.74,2.37c-0.42,3.21-1.09,4.58-2.36,9.88" class="stroke" stroke-dasharray="150"><set attributeName="opacity" to="0" dur="13.9s" /><animate attributeName="stroke-dashoffset" from="150" to="0" dur="1.8s" begin="13.9s" fill="freeze" /></path><path d="M51.86,80.91c5.24-0.62,24.39-2.16,33.09-2.1" class="stroke" stroke-dasharray="150"><set attributeName="opacity" to="0" dur="15.1s" /><animate attributeName="stroke-dashoffset" from="150" to="0" dur="1.8s" begin="15.1s" fill="freeze" /></path><path d="M65.59,57.99c0.72,0.33,1.15,1.46,1.29,2.11c0.14,0.65,0,28.11-0.14,32.17" class="stroke" stroke-dasharray="150"><set attributeName="opacity" to="0" dur="16.1s" /><animate attributeName="stroke-dashoffset" from="150" to="0" dur="1.8s" begin="16.1s" fill="freeze" /></path><path d="M46.38,94.68c0.62,1.07,2.11,1.21,2.95,1.13s31.72-4.21,36.96-4.85" class="stroke" stroke-dasharray="150"><set attributeName="opacity" to="0" dur="17.1s" /><animate attributeName="stroke-dashoffset" from="150" to="0" dur="1.8s" begin="17.1s" fill="freeze" /></path><path d="M79.67,84.17c4.01,2.29,10.37,9.41,11.38,12.98" class="stroke" stroke-dasharray="150"><set attributeName="opacity" to="0" dur="18.200000000000003s" /><animate attributeName="stroke-dashoffset" from="150" to="0" dur="1.8s" begin="18.200000000000003s" fill="freeze" /></path><text x="90" y="120" id="reset-kvg-06ac1-KaishoTen3">⟳</text><text x="70" y="120" id="pause-kvg-06ac1-KaishoTen3">◼</text><script type="text/javascript"><![CDATA[function RecurringTimer(e,t){var n,r,i=t;this.pause=function(){window.clearTimeout(n);i-=new Date-r};var s=function(){r=new Date;n=window.setTimeout(function(){i=t;s();e()},i)};this.clear=function(){window.clearTimeout(n);i=t;n=window.setTimeout(function(){i=t;s();e()},i)};this.resume=s;this.resume()}function invoketimer(){timer=new RecurringTimer(function(){svg.setCurrentTime(0)},20100.0)}var svg=document.getElementById("kvg-06ac1-KaishoTen3");var pause=document.getElementById("pause-kvg-06ac1-KaishoTen3");var reset=document.getElementById("reset-kvg-06ac1-KaishoTen3");var timer;invoketimer();reset.onclick=function(){svg.setCurrentTime(0);timer.clear();svg.unpauseAnimations();pause.innerHTML = "◼";};pause.onclick=function(){if(svg.animationsPaused()){svg.unpauseAnimations();timer.resume();pause.innerHTML="◼"}else{svg.pauseAnimations();timer.pause();pause.innerHTML="▶"}}]]></script></svg>