<svg id="kvg-06bef" class="kanjivg" width="106" height="126" xmlns="http://www.w3.org/2000/svg" xmlns:xlink="http://www.w3.org/1999/xlink" xml:space="preserve" version="1.1" baseProfile="full"><defs><style type="text/css"><![CDATA[path.black{fill:none;stroke:black;stroke-width:5;stroke-linecap:round;stroke-linejoin:round;}path.grey{fill:none;stroke:#ddd;stroke-width:5;stroke-linecap:round;stroke-linejoin:round;}path.stroke{fill:none;stroke:black;stroke-width:5;stroke-linecap:round;stroke-linejoin:round;}rect{fill:none;stroke:#555;stroke-width:2;} text{font-size:16px;font-family:Segoe UI Symbol,Cambria Math,DejaVu Sans,Symbola,Quivira,STIX,Code2000;-webkit-touch-callout:none;cursor:pointer;-webkit-user-select:none;-khtml-user-select:none;-moz-user-select:none;-ms-user-select:none;user-select: none;}text:hover{color:#777;}#reset{font-weight:bold;}]]></style><marker id="markerStart" markerWidth="8" markerHeight="8" style="overflow:visible;"><circle cx="0" cy="0" r="1.5" style="stroke:none;fill:red;fill-opacity:0.5;"/></marker><marker id="markerEnd" style="overflow:visible;"><circle cx="0" cy="0" r="0.8" style="stroke:none;fill:blue;fill-opacity:0.5;"><animate attributeName="opacity" from="1" to="0" dur="3s" repeatCount="indefinite" /></circle></marker></defs><rect x="4" y="4" width="100" height="100" /><path d="M40.28,15c0.08,0.41,0.32,1.17-0.15,1.63C35.75,21,25.75,27.75,14.25,32.25" class="grey" /><path d="M11,47.21c0.89,0.28,2.53,0.36,3.42,0.28c9.26-0.89,20.94-3.44,28.59-4.09c1.47-0.12,2.38,0.13,3.12,0.27" class="grey" /><path d="M8.38,65.06c0.94,0.25,3.69,0.38,4.63,0.25c10-1.31,22.93-3.87,31.47-4.45c1.57-0.11,3.52,0.12,4.31,0.25" class="grey" /><path d="M27.99,30.37c0.59,1.19,1.06,2.59,1.1,4.43c0.16,8.19-0.58,38.93-0.58,43.95c0,16.5,3.5,17.78,35.74,17.78c34.01,0,33.26-4.53,33.26-13.28" class="grey" /><path d="M55.21,22.67c2.42,2.11,5.95,8.09,6.61,10.2" class="grey" /><path d="M85.15,17.31c0.43,0.48,0.39,1.99,0,2.74s-5.17,6.75-7.12,8.5" class="grey" /><path d="M70.4,13.25c0.65,0.37,0.78,1.31,0.78,1.93c0,21.82-6.62,29.95-16.92,36.07" class="grey" /><path d="M71.18,34.65c7.13,3.07,12.6,8.62,15.57,12.23" class="grey" /><path d="M55.43,59.92c2.36,2.37,5.79,9.09,6.43,11.46" class="grey" /><path d="M88.65,54.31c0.43,0.48,0.39,1.99,0,2.74s-7.67,7.75-9.62,9.5" class="grey" /><path d="M71.9,51.25c0.65,0.37,0.78,1.31,0.78,1.93c-0.13,24.84-10.62,29.45-20.92,35.57" class="grey" /><path d="M73.18,72.9c6.44,3.38,11.39,9.5,14.07,13.48" class="grey" /><path d="M40.28,15c0.08,0.41,0.32,1.17-0.15,1.63C35.75,21,25.75,27.75,14.25,32.25" class="stroke" stroke-dasharray="150"><animate attributeName="stroke-dashoffset" from="150" to="0" dur="1.8s" begin="0.0s" fill="freeze" /></path><path d="M11,47.21c0.89,0.28,2.53,0.36,3.42,0.28c9.26-0.89,20.94-3.44,28.59-4.09c1.47-0.12,2.38,0.13,3.12,0.27" class="stroke" stroke-dasharray="150"><set attributeName="opacity" to="0" dur="1.0s" /><animate attributeName="stroke-dashoffset" from="150" to="0" dur="1.8s" begin="1.0s" fill="freeze" /></path><path d="M8.38,65.06c0.94,0.25,3.69,0.38,4.63,0.25c10-1.31,22.93-3.87,31.47-4.45c1.57-0.11,3.52,0.12,4.31,0.25" class="stroke" stroke-dasharray="150"><set attributeName="opacity" to="0" dur="2.0s" /><animate attributeName="stroke-dashoffset" from="150" to="0" dur="1.8s" begin="2.0s" fill="freeze" /></path><path d="M27.99,30.37c0.59,1.19,1.06,2.59,1.1,4.43c0.16,8.19-0.58,38.93-0.58,43.95c0,16.5,3.5,17.78,35.74,17.78c34.01,0,33.26-4.53,33.26-13.28" class="stroke" stroke-dasharray="150"><set attributeName="opacity" to="0" dur="3.1s" /><animate attributeName="stroke-dashoffset" from="150" to="0" dur="1.8s" begin="3.1s" fill="freeze" /></path><path d="M55.21,22.67c2.42,2.11,5.95,8.09,6.61,10.2" class="stroke" stroke-dasharray="150"><set attributeName="opacity" to="0" dur="5.1s" /><animate attributeName="stroke-dashoffset" from="150" to="0" dur="1.8s" begin="5.1s" fill="freeze" /></path><path d="M85.15,17.31c0.43,0.48,0.39,1.99,0,2.74s-5.17,6.75-7.12,8.5" class="stroke" stroke-dasharray="150"><set attributeName="opacity" to="0" dur="6.0s" /><animate attributeName="stroke-dashoffset" from="150" to="0" dur="1.8s" begin="6.0s" fill="freeze" /></path><path d="M70.4,13.25c0.65,0.37,0.78,1.31,0.78,1.93c0,21.82-6.62,29.95-16.92,36.07" class="stroke" stroke-dasharray="150"><set attributeName="opacity" to="0" dur="6.9s" /><animate attributeName="stroke-dashoffset" from="150" to="0" dur="1.8s" begin="6.9s" fill="freeze" /></path><path d="M71.18,34.65c7.13,3.07,12.6,8.62,15.57,12.23" class="stroke" stroke-dasharray="150"><set attributeName="opacity" to="0" dur="8.0s" /><animate attributeName="stroke-dashoffset" from="150" to="0" dur="1.8s" begin="8.0s" fill="freeze" /></path><path d="M55.43,59.92c2.36,2.37,5.79,9.09,6.43,11.46" class="stroke" stroke-dasharray="150"><set attributeName="opacity" to="0" dur="8.9s" /><animate attributeName="stroke-dashoffset" from="150" to="0" dur="1.8s" begin="8.9s" fill="freeze" /></path><path d="M88.65,54.31c0.43,0.48,0.39,1.99,0,2.74s-7.67,7.75-9.62,9.5" class="stroke" stroke-dasharray="150"><set attributeName="opacity" to="0" dur="9.8s" /><animate attributeName="stroke-dashoffset" from="150" to="0" dur="1.8s" begin="9.8s" fill="freeze" /></path><path d="M71.9,51.25c0.65,0.37,0.78,1.31,0.78,1.93c-0.13,24.84-10.62,29.45-20.92,35.57" class="stroke" stroke-dasharray="150"><set attributeName="opacity" to="0" dur="10.700000000000001s" /><animate attributeName="stroke-dashoffset" from="150" to="0" dur="1.8s" begin="10.700000000000001s" fill="freeze" /></path><path d="M73.18,72.9c6.44,3.38,11.39,9.5,14.07,13.48" class="stroke" stroke-dasharray="150"><set attributeName="opacity" to="0" dur="11.9s" /><animate attributeName="stroke-dashoffset" from="150" to="0" dur="1.8s" begin="11.9s" fill="freeze" /></path><text x="90" y="120" id="reset-kvg-06bef">⟳</text><text x="70" y="120" id="pause-kvg-06bef">◼</text><script type="text/javascript"><![CDATA[function RecurringTimer(e,t){var n,r,i=t;this.pause=function(){window.clearTimeout(n);i-=new Date-r};var s=function(){r=new Date;n=window.setTimeout(function(){i=t;s();e()},i)};this.clear=function(){window.clearTimeout(n);i=t;n=window.setTimeout(function(){i=t;s();e()},i)};this.resume=s;this.resume()}function invoketimer(){timer=new RecurringTimer(function(){svg.setCurrentTime(0)},13800.0)}var svg=document.getElementById("kvg-06bef");var pause=document.getElementById("pause-kvg-06bef");var reset=document.getElementById("reset-kvg-06bef");var timer;invoketimer();reset.onclick=function(){svg.setCurrentTime(0);timer.clear();svg.unpauseAnimations();pause.innerHTML = "◼";};pause.onclick=function(){if(svg.animationsPaused()){svg.unpauseAnimations();timer.resume();pause.innerHTML="◼"}else{svg.pauseAnimations();timer.pause();pause.innerHTML="▶"}}]]></script></svg>