<svg id="kvg-06beb-Kaisho" class="kanjivg" width="106" height="126" xmlns="http://www.w3.org/2000/svg" xmlns:xlink="http://www.w3.org/1999/xlink" xml:space="preserve" version="1.1" baseProfile="full"><defs><style type="text/css"><![CDATA[path.black{fill:none;stroke:black;stroke-width:5;stroke-linecap:round;stroke-linejoin:round;}path.grey{fill:none;stroke:#ddd;stroke-width:5;stroke-linecap:round;stroke-linejoin:round;}path.stroke{fill:none;stroke:black;stroke-width:5;stroke-linecap:round;stroke-linejoin:round;}rect{fill:none;stroke:#555;stroke-width:2;} text{font-size:16px;font-family:Segoe UI Symbol,Cambria Math,DejaVu Sans,Symbola,Quivira,STIX,Code2000;-webkit-touch-callout:none;cursor:pointer;-webkit-user-select:none;-khtml-user-select:none;-moz-user-select:none;-ms-user-select:none;user-select: none;}text:hover{color:#777;}#reset{font-weight:bold;}]]></style><marker id="markerStart" markerWidth="8" markerHeight="8" style="overflow:visible;"><circle cx="0" cy="0" r="1.5" style="stroke:none;fill:red;fill-opacity:0.5;"/></marker><marker id="markerEnd" style="overflow:visible;"><circle cx="0" cy="0" r="0.8" style="stroke:none;fill:blue;fill-opacity:0.5;"><animate attributeName="opacity" from="1" to="0" dur="3s" repeatCount="indefinite" /></circle></marker></defs><rect x="4" y="4" width="100" height="100" /><path d="M49.95,9.61c1.55,1.14,3.8,4.14,4.88,6.62" class="grey" /><path d="M21.98,23.17c1.66,0.29,3.13,0.61,5.04,0.4c11.39-1.22,43.83-3.47,57.1-4.06c1.95-0.09,2.95,0.03,4.4,0.52" class="grey" /><path d="M37.5,29.65c0.31,0.21,0.62,0.39,0.76,0.65c1.07,2.09,1.82,7.79,2.55,11.55" class="grey" /><path d="M39.41,30.36c7.52-0.88,21.71-2.69,25.59-2.99c1.42-0.11,3.34,0.74,3.1,2.31c-0.37,2.48-1.8,3.75-3.6,7.55" class="grey" /><path d="M41.63,39.88c4.56-0.33,19.54-1.98,25.33-2.32" class="grey" /><path d="M20.91,45.13c0,3.25-2.81,12.2-3.91,14.37" class="grey" /><path d="M21.24,48.74c1.39,0.03,56.24-4.55,63.45-4.9c12.05-0.59,2.05,7.16-0.95,9.28" class="grey" /><path d="M66.78,51.5c-0.03,1.25-0.58,1.77-1.2,2.07c-5.79,2.87-18,6.31-33.19,9.27" class="grey" /><path d="M28.52,72.04c1.14,0.27,3.25,0.35,4.38,0.27c11.89-0.86,29.66-3.85,39.5-4.48c1.88-0.12,3.05,0.13,4,0.26" class="grey" /><path d="M16.88,84.67c1.52,0.22,5.93,0.34,7.44,0.22c17.18-1.39,44.92-4.71,58.67-5.22c2.52-0.09,5.67,0.11,6.93,0.22" class="grey" /><path d="M52.42,62.2c0.77,0.69,1.38,2.01,1.43,3.09c0.21,4.79-0.76,22.74-0.76,25.68c0,7.75,5.56,8.56,20.84,8.56c19.21,0,20.06-2.98,20.06-8.1" class="grey" /><path d="M49.95,9.61c1.55,1.14,3.8,4.14,4.88,6.62" class="stroke" stroke-dasharray="150"><animate attributeName="stroke-dashoffset" from="150" to="0" dur="1.8s" begin="0.0s" fill="freeze" /></path><path d="M21.98,23.17c1.66,0.29,3.13,0.61,5.04,0.4c11.39-1.22,43.83-3.47,57.1-4.06c1.95-0.09,2.95,0.03,4.4,0.52" class="stroke" stroke-dasharray="150"><set attributeName="opacity" to="0" dur="0.9s" /><animate attributeName="stroke-dashoffset" from="150" to="0" dur="1.8s" begin="0.9s" fill="freeze" /></path><path d="M37.5,29.65c0.31,0.21,0.62,0.39,0.76,0.65c1.07,2.09,1.82,7.79,2.55,11.55" class="stroke" stroke-dasharray="150"><set attributeName="opacity" to="0" dur="2.4s" /><animate attributeName="stroke-dashoffset" from="150" to="0" dur="1.8s" begin="2.4s" fill="freeze" /></path><path d="M39.41,30.36c7.52-0.88,21.71-2.69,25.59-2.99c1.42-0.11,3.34,0.74,3.1,2.31c-0.37,2.48-1.8,3.75-3.6,7.55" class="stroke" stroke-dasharray="150"><set attributeName="opacity" to="0" dur="3.3s" /><animate attributeName="stroke-dashoffset" from="150" to="0" dur="1.8s" begin="3.3s" fill="freeze" /></path><path d="M41.63,39.88c4.56-0.33,19.54-1.98,25.33-2.32" class="stroke" stroke-dasharray="150"><set attributeName="opacity" to="0" dur="4.3s" /><animate attributeName="stroke-dashoffset" from="150" to="0" dur="1.8s" begin="4.3s" fill="freeze" /></path><path d="M20.91,45.13c0,3.25-2.81,12.2-3.91,14.37" class="stroke" stroke-dasharray="150"><set attributeName="opacity" to="0" dur="5.3s" /><animate attributeName="stroke-dashoffset" from="150" to="0" dur="1.8s" begin="5.3s" fill="freeze" /></path><path d="M21.24,48.74c1.39,0.03,56.24-4.55,63.45-4.9c12.05-0.59,2.05,7.16-0.95,9.28" class="stroke" stroke-dasharray="150"><set attributeName="opacity" to="0" dur="6.2s" /><animate attributeName="stroke-dashoffset" from="150" to="0" dur="1.8s" begin="6.2s" fill="freeze" /></path><path d="M66.78,51.5c-0.03,1.25-0.58,1.77-1.2,2.07c-5.79,2.87-18,6.31-33.19,9.27" class="stroke" stroke-dasharray="150"><set attributeName="opacity" to="0" dur="7.9s" /><animate attributeName="stroke-dashoffset" from="150" to="0" dur="1.8s" begin="7.9s" fill="freeze" /></path><path d="M28.52,72.04c1.14,0.27,3.25,0.35,4.38,0.27c11.89-0.86,29.66-3.85,39.5-4.48c1.88-0.12,3.05,0.13,4,0.26" class="stroke" stroke-dasharray="150"><set attributeName="opacity" to="0" dur="8.9s" /><animate attributeName="stroke-dashoffset" from="150" to="0" dur="1.8s" begin="8.9s" fill="freeze" /></path><path d="M16.88,84.67c1.52,0.22,5.93,0.34,7.44,0.22c17.18-1.39,44.92-4.71,58.67-5.22c2.52-0.09,5.67,0.11,6.93,0.22" class="stroke" stroke-dasharray="150"><set attributeName="opacity" to="0" dur="10.1s" /><animate attributeName="stroke-dashoffset" from="150" to="0" dur="1.8s" begin="10.1s" fill="freeze" /></path><path d="M52.42,62.2c0.77,0.69,1.38,2.01,1.43,3.09c0.21,4.79-0.76,22.74-0.76,25.68c0,7.75,5.56,8.56,20.84,8.56c19.21,0,20.06-2.98,20.06-8.1" class="stroke" stroke-dasharray="150"><set attributeName="opacity" to="0" dur="11.799999999999999s" /><animate attributeName="stroke-dashoffset" from="150" to="0" dur="1.8s" begin="11.799999999999999s" fill="freeze" /></path><text x="90" y="120" id="reset-kvg-06beb-Kaisho">⟳</text><text x="70" y="120" id="pause-kvg-06beb-Kaisho">◼</text><script type="text/javascript"><![CDATA[function RecurringTimer(e,t){var n,r,i=t;this.pause=function(){window.clearTimeout(n);i-=new Date-r};var s=function(){r=new Date;n=window.setTimeout(function(){i=t;s();e()},i)};this.clear=function(){window.clearTimeout(n);i=t;n=window.setTimeout(function(){i=t;s();e()},i)};this.resume=s;this.resume()}function invoketimer(){timer=new RecurringTimer(function(){svg.setCurrentTime(0)},14499.999999999998)}var svg=document.getElementById("kvg-06beb-Kaisho");var pause=document.getElementById("pause-kvg-06beb-Kaisho");var reset=document.getElementById("reset-kvg-06beb-Kaisho");var timer;invoketimer();reset.onclick=function(){svg.setCurrentTime(0);timer.clear();svg.unpauseAnimations();pause.innerHTML = "◼";};pause.onclick=function(){if(svg.animationsPaused()){svg.unpauseAnimations();timer.resume();pause.innerHTML="◼"}else{svg.pauseAnimations();timer.pause();pause.innerHTML="▶"}}]]></script></svg>