<svg id="kvg-06c7a" class="kanjivg" width="106" height="126" xmlns="http://www.w3.org/2000/svg" xmlns:xlink="http://www.w3.org/1999/xlink" xml:space="preserve" version="1.1" baseProfile="full"><defs><style type="text/css"><![CDATA[path.black{fill:none;stroke:black;stroke-width:5;stroke-linecap:round;stroke-linejoin:round;}path.grey{fill:none;stroke:#ddd;stroke-width:5;stroke-linecap:round;stroke-linejoin:round;}path.stroke{fill:none;stroke:black;stroke-width:5;stroke-linecap:round;stroke-linejoin:round;}rect{fill:none;stroke:#555;stroke-width:2;} text{font-size:16px;font-family:Segoe UI Symbol,Cambria Math,DejaVu Sans,Symbola,Quivira,STIX,Code2000;-webkit-touch-callout:none;cursor:pointer;-webkit-user-select:none;-khtml-user-select:none;-moz-user-select:none;-ms-user-select:none;user-select: none;}text:hover{color:#777;}#reset{font-weight:bold;}]]></style><marker id="markerStart" markerWidth="8" markerHeight="8" style="overflow:visible;"><circle cx="0" cy="0" r="1.5" style="stroke:none;fill:red;fill-opacity:0.5;"/></marker><marker id="markerEnd" style="overflow:visible;"><circle cx="0" cy="0" r="0.8" style="stroke:none;fill:blue;fill-opacity:0.5;"><animate attributeName="opacity" from="1" to="0" dur="3s" repeatCount="indefinite" /></circle></marker></defs><rect x="4" y="4" width="100" height="100" /><path d="M17.5,21.62c3.62,1.63,9.34,6.69,10.25,9.22" class="grey" /><path d="M12.5,43.5C16.03,45,20.88,49,22.75,52" class="grey" /><path d="M11.25,90.71C13,91,14.56,90.07,15.5,88.45c2.75-4.7,5-9.95,7.5-15.95" class="grey" /><path d="M38.3,36.57c2.2,0.56,5.59,0.95,8.42,0.46c9.4-1.65,20.15-3.28,29.78-4.61c3.12-0.43,4.74,2.21,3.99,4.58c-1.37,4.35-3,10.25-4.75,16" class="grey" /><path d="M30.88,57.53c3.62,0.85,7.01,0.54,10.41,0.15c12.59-1.43,28.79-3.34,42.33-4.07c4.25-0.23,7.63,0.02,10.66,0.71" class="grey" /><path d="M57.41,13c1.11,1.11,1.62,2.33,1.7,4.42C61.25,72.5,48.5,83.88,32,94.75" class="grey" /><path d="M60.06,56.96c6.58,7.59,18.34,22.12,26.47,29.77c2.19,2.06,5.1,4.4,8.23,5.87" class="grey" /><path d="M17.5,21.62c3.62,1.63,9.34,6.69,10.25,9.22" class="stroke" stroke-dasharray="150"><animate attributeName="stroke-dashoffset" from="150" to="0" dur="1.8s" begin="0.0s" fill="freeze" /></path><path d="M12.5,43.5C16.03,45,20.88,49,22.75,52" class="stroke" stroke-dasharray="150"><set attributeName="opacity" to="0" dur="0.9s" /><animate attributeName="stroke-dashoffset" from="150" to="0" dur="1.8s" begin="0.9s" fill="freeze" /></path><path d="M11.25,90.71C13,91,14.56,90.07,15.5,88.45c2.75-4.7,5-9.95,7.5-15.95" class="stroke" stroke-dasharray="150"><set attributeName="opacity" to="0" dur="1.8s" /><animate attributeName="stroke-dashoffset" from="150" to="0" dur="1.8s" begin="1.8s" fill="freeze" /></path><path d="M38.3,36.57c2.2,0.56,5.59,0.95,8.42,0.46c9.4-1.65,20.15-3.28,29.78-4.61c3.12-0.43,4.74,2.21,3.99,4.58c-1.37,4.35-3,10.25-4.75,16" class="stroke" stroke-dasharray="150"><set attributeName="opacity" to="0" dur="2.8s" /><animate attributeName="stroke-dashoffset" from="150" to="0" dur="1.8s" begin="2.8s" fill="freeze" /></path><path d="M30.88,57.53c3.62,0.85,7.01,0.54,10.41,0.15c12.59-1.43,28.79-3.34,42.33-4.07c4.25-0.23,7.63,0.02,10.66,0.71" class="stroke" stroke-dasharray="150"><set attributeName="opacity" to="0" dur="4.3s" /><animate attributeName="stroke-dashoffset" from="150" to="0" dur="1.8s" begin="4.3s" fill="freeze" /></path><path d="M57.41,13c1.11,1.11,1.62,2.33,1.7,4.42C61.25,72.5,48.5,83.88,32,94.75" class="stroke" stroke-dasharray="150"><set attributeName="opacity" to="0" dur="5.8s" /><animate attributeName="stroke-dashoffset" from="150" to="0" dur="1.8s" begin="5.8s" fill="freeze" /></path><path d="M60.06,56.96c6.58,7.59,18.34,22.12,26.47,29.77c2.19,2.06,5.1,4.4,8.23,5.87" class="stroke" stroke-dasharray="150"><set attributeName="opacity" to="0" dur="7.6s" /><animate attributeName="stroke-dashoffset" from="150" to="0" dur="1.8s" begin="7.6s" fill="freeze" /></path><text x="90" y="120" id="reset-kvg-06c7a">⟳</text><text x="70" y="120" id="pause-kvg-06c7a">◼</text><script type="text/javascript"><![CDATA[function RecurringTimer(e,t){var n,r,i=t;this.pause=function(){window.clearTimeout(n);i-=new Date-r};var s=function(){r=new Date;n=window.setTimeout(function(){i=t;s();e()},i)};this.clear=function(){window.clearTimeout(n);i=t;n=window.setTimeout(function(){i=t;s();e()},i)};this.resume=s;this.resume()}function invoketimer(){timer=new RecurringTimer(function(){svg.setCurrentTime(0)},9900.0)}var svg=document.getElementById("kvg-06c7a");var pause=document.getElementById("pause-kvg-06c7a");var reset=document.getElementById("reset-kvg-06c7a");var timer;invoketimer();reset.onclick=function(){svg.setCurrentTime(0);timer.clear();svg.unpauseAnimations();pause.innerHTML = "◼";};pause.onclick=function(){if(svg.animationsPaused()){svg.unpauseAnimations();timer.resume();pause.innerHTML="◼"}else{svg.pauseAnimations();timer.pause();pause.innerHTML="▶"}}]]></script></svg>