<svg id="kvg-06c83" class="kanjivg" width="106" height="126" xmlns="http://www.w3.org/2000/svg" xmlns:xlink="http://www.w3.org/1999/xlink" xml:space="preserve" version="1.1" baseProfile="full"><defs><style type="text/css"><![CDATA[path.black{fill:none;stroke:black;stroke-width:5;stroke-linecap:round;stroke-linejoin:round;}path.grey{fill:none;stroke:#ddd;stroke-width:5;stroke-linecap:round;stroke-linejoin:round;}path.stroke{fill:none;stroke:black;stroke-width:5;stroke-linecap:round;stroke-linejoin:round;}rect{fill:none;stroke:#555;stroke-width:2;} text{font-size:16px;font-family:Segoe UI Symbol,Cambria Math,DejaVu Sans,Symbola,Quivira,STIX,Code2000;-webkit-touch-callout:none;cursor:pointer;-webkit-user-select:none;-khtml-user-select:none;-moz-user-select:none;-ms-user-select:none;user-select: none;}text:hover{color:#777;}#reset{font-weight:bold;}]]></style><marker id="markerStart" markerWidth="8" markerHeight="8" style="overflow:visible;"><circle cx="0" cy="0" r="1.5" style="stroke:none;fill:red;fill-opacity:0.5;"/></marker><marker id="markerEnd" style="overflow:visible;"><circle cx="0" cy="0" r="0.8" style="stroke:none;fill:blue;fill-opacity:0.5;"><animate attributeName="opacity" from="1" to="0" dur="3s" repeatCount="indefinite" /></circle></marker></defs><rect x="4" y="4" width="100" height="100" /><path d="M18.38,17c4.54,1.34,11.73,5.51,12.87,7.59" class="grey" /><path d="M13.75,40c3.97,1.32,10.26,5.44,11.25,7.5" class="grey" /><path d="M11.75,88.97c1.81,1.29,3.98,1.34,5.12-0.25c3.31-4.64,6.62-10.31,9.63-16.22" class="grey" /><path d="M80.57,15.89c-0.07,0.86-0.15,1.73-0.71,2.26C75.75,22,59.25,30.75,42.51,34.5" class="grey" /><path d="M36.35,52.51c0.77,0.42,2.73,0.64,3.58,0.58c9.8-0.69,39.33-4.74,51.61-4.9c1.07-0.01,2.57,0.16,4.95,0.88" class="grey" /><path d="M63.66,30.9c0.47,0.88,0.72,1.89,0.71,3.79C64.14,67.56,52.75,84.9,34,95" class="grey" /><path d="M64.67,52.9c6.83,12.35,19.46,30.07,27.1,36.39c2.33,1.92,2.98,2.36,3.98,2.56" class="grey" /><path d="M18.38,17c4.54,1.34,11.73,5.51,12.87,7.59" class="stroke" stroke-dasharray="150"><animate attributeName="stroke-dashoffset" from="150" to="0" dur="1.8s" begin="0.0s" fill="freeze" /></path><path d="M13.75,40c3.97,1.32,10.26,5.44,11.25,7.5" class="stroke" stroke-dasharray="150"><set attributeName="opacity" to="0" dur="0.9s" /><animate attributeName="stroke-dashoffset" from="150" to="0" dur="1.8s" begin="0.9s" fill="freeze" /></path><path d="M11.75,88.97c1.81,1.29,3.98,1.34,5.12-0.25c3.31-4.64,6.62-10.31,9.63-16.22" class="stroke" stroke-dasharray="150"><set attributeName="opacity" to="0" dur="1.8s" /><animate attributeName="stroke-dashoffset" from="150" to="0" dur="1.8s" begin="1.8s" fill="freeze" /></path><path d="M80.57,15.89c-0.07,0.86-0.15,1.73-0.71,2.26C75.75,22,59.25,30.75,42.51,34.5" class="stroke" stroke-dasharray="150"><set attributeName="opacity" to="0" dur="2.8s" /><animate attributeName="stroke-dashoffset" from="150" to="0" dur="1.8s" begin="2.8s" fill="freeze" /></path><path d="M36.35,52.51c0.77,0.42,2.73,0.64,3.58,0.58c9.8-0.69,39.33-4.74,51.61-4.9c1.07-0.01,2.57,0.16,4.95,0.88" class="stroke" stroke-dasharray="150"><set attributeName="opacity" to="0" dur="3.9s" /><animate attributeName="stroke-dashoffset" from="150" to="0" dur="1.8s" begin="3.9s" fill="freeze" /></path><path d="M63.66,30.9c0.47,0.88,0.72,1.89,0.71,3.79C64.14,67.56,52.75,84.9,34,95" class="stroke" stroke-dasharray="150"><set attributeName="opacity" to="0" dur="5.4s" /><animate attributeName="stroke-dashoffset" from="150" to="0" dur="1.8s" begin="5.4s" fill="freeze" /></path><path d="M64.67,52.9c6.83,12.35,19.46,30.07,27.1,36.39c2.33,1.92,2.98,2.36,3.98,2.56" class="stroke" stroke-dasharray="150"><set attributeName="opacity" to="0" dur="7.1000000000000005s" /><animate attributeName="stroke-dashoffset" from="150" to="0" dur="1.8s" begin="7.1000000000000005s" fill="freeze" /></path><text x="90" y="120" id="reset-kvg-06c83">⟳</text><text x="70" y="120" id="pause-kvg-06c83">◼</text><script type="text/javascript"><![CDATA[function RecurringTimer(e,t){var n,r,i=t;this.pause=function(){window.clearTimeout(n);i-=new Date-r};var s=function(){r=new Date;n=window.setTimeout(function(){i=t;s();e()},i)};this.clear=function(){window.clearTimeout(n);i=t;n=window.setTimeout(function(){i=t;s();e()},i)};this.resume=s;this.resume()}function invoketimer(){timer=new RecurringTimer(function(){svg.setCurrentTime(0)},9400.0)}var svg=document.getElementById("kvg-06c83");var pause=document.getElementById("pause-kvg-06c83");var reset=document.getElementById("reset-kvg-06c83");var timer;invoketimer();reset.onclick=function(){svg.setCurrentTime(0);timer.clear();svg.unpauseAnimations();pause.innerHTML = "◼";};pause.onclick=function(){if(svg.animationsPaused()){svg.unpauseAnimations();timer.resume();pause.innerHTML="◼"}else{svg.pauseAnimations();timer.pause();pause.innerHTML="▶"}}]]></script></svg>