<svg id="kvg-06de1" class="kanjivg" width="106" height="126" xmlns="http://www.w3.org/2000/svg" xmlns:xlink="http://www.w3.org/1999/xlink" xml:space="preserve" version="1.1" baseProfile="full"><defs><style type="text/css"><![CDATA[path.black{fill:none;stroke:black;stroke-width:5;stroke-linecap:round;stroke-linejoin:round;}path.grey{fill:none;stroke:#ddd;stroke-width:5;stroke-linecap:round;stroke-linejoin:round;}path.stroke{fill:none;stroke:black;stroke-width:5;stroke-linecap:round;stroke-linejoin:round;}rect{fill:none;stroke:#555;stroke-width:2;} text{font-size:16px;font-family:Segoe UI Symbol,Cambria Math,DejaVu Sans,Symbola,Quivira,STIX,Code2000;-webkit-touch-callout:none;cursor:pointer;-webkit-user-select:none;-khtml-user-select:none;-moz-user-select:none;-ms-user-select:none;user-select: none;}text:hover{color:#777;}#reset{font-weight:bold;}]]></style><marker id="markerStart" markerWidth="8" markerHeight="8" style="overflow:visible;"><circle cx="0" cy="0" r="1.5" style="stroke:none;fill:red;fill-opacity:0.5;"/></marker><marker id="markerEnd" style="overflow:visible;"><circle cx="0" cy="0" r="0.8" style="stroke:none;fill:blue;fill-opacity:0.5;"><animate attributeName="opacity" from="1" to="0" dur="3s" repeatCount="indefinite" /></circle></marker></defs><rect x="4" y="4" width="100" height="100" /><path d="M22.13,18.12c3.66,1.32,9.45,5.42,10.37,7.47" class="grey" /><path d="M14.62,42.5c3.93,1.23,10.14,5.08,11.12,7" class="grey" /><path d="M13.5,88.51c1.25,0.74,2.78,0.36,3.74-0.81c3.53-4.27,6.63-9.33,10.51-15.2" class="grey" /><path d="M43.21,22.17c2.58,1.97,6.32,7.54,7.03,9.51" class="grey" /><path d="M81.27,18.59c0.11,0.91-0.38,1.8-1,2.57c-0.62,0.77-5.77,4.96-9.75,7.23" class="grey" /><path d="M60.85,13.75c0.59,0.97,0.58,2.16,0.54,3.25c-0.66,19.72-8,28.6-20.34,33.86" class="grey" /><path d="M60.17,32.25C68.5,37.5,77,43.62,83.12,47.38c2.58,1.58,4.88,2.88,8.88,3.88" class="grey" /><path d="M43.87,59.84c3.49,2.13,8.58,8.16,9.53,10.28" class="grey" /><path d="M82.33,55.97c0.05,0.78-0.21,1.47-0.83,2.38c-0.62,0.91-7.07,6.65-10.18,8.76" class="grey" /><path d="M63.31,52.66c0.47,1.06,0.47,2.45,0.43,3.17C62.25,80.5,50.75,90.25,37.5,95.25" class="grey" /><path d="M63.26,68.26c8.2,8.5,14.87,15.36,22.08,21.42c2.51,2.11,4.54,3.57,7.67,5.26" class="grey" /><path d="M22.13,18.12c3.66,1.32,9.45,5.42,10.37,7.47" class="stroke" stroke-dasharray="150"><animate attributeName="stroke-dashoffset" from="150" to="0" dur="1.8s" begin="0.0s" fill="freeze" /></path><path d="M14.62,42.5c3.93,1.23,10.14,5.08,11.12,7" class="stroke" stroke-dasharray="150"><set attributeName="opacity" to="0" dur="0.9s" /><animate attributeName="stroke-dashoffset" from="150" to="0" dur="1.8s" begin="0.9s" fill="freeze" /></path><path d="M13.5,88.51c1.25,0.74,2.78,0.36,3.74-0.81c3.53-4.27,6.63-9.33,10.51-15.2" class="stroke" stroke-dasharray="150"><set attributeName="opacity" to="0" dur="1.8s" /><animate attributeName="stroke-dashoffset" from="150" to="0" dur="1.8s" begin="1.8s" fill="freeze" /></path><path d="M43.21,22.17c2.58,1.97,6.32,7.54,7.03,9.51" class="stroke" stroke-dasharray="150"><set attributeName="opacity" to="0" dur="2.8s" /><animate attributeName="stroke-dashoffset" from="150" to="0" dur="1.8s" begin="2.8s" fill="freeze" /></path><path d="M81.27,18.59c0.11,0.91-0.38,1.8-1,2.57c-0.62,0.77-5.77,4.96-9.75,7.23" class="stroke" stroke-dasharray="150"><set attributeName="opacity" to="0" dur="3.6999999999999997s" /><animate attributeName="stroke-dashoffset" from="150" to="0" dur="1.8s" begin="3.6999999999999997s" fill="freeze" /></path><path d="M60.85,13.75c0.59,0.97,0.58,2.16,0.54,3.25c-0.66,19.72-8,28.6-20.34,33.86" class="stroke" stroke-dasharray="150"><set attributeName="opacity" to="0" dur="4.6s" /><animate attributeName="stroke-dashoffset" from="150" to="0" dur="1.8s" begin="4.6s" fill="freeze" /></path><path d="M60.17,32.25C68.5,37.5,77,43.62,83.12,47.38c2.58,1.58,4.88,2.88,8.88,3.88" class="stroke" stroke-dasharray="150"><set attributeName="opacity" to="0" dur="5.8s" /><animate attributeName="stroke-dashoffset" from="150" to="0" dur="1.8s" begin="5.8s" fill="freeze" /></path><path d="M43.87,59.84c3.49,2.13,8.58,8.16,9.53,10.28" class="stroke" stroke-dasharray="150"><set attributeName="opacity" to="0" dur="6.8s" /><animate attributeName="stroke-dashoffset" from="150" to="0" dur="1.8s" begin="6.8s" fill="freeze" /></path><path d="M82.33,55.97c0.05,0.78-0.21,1.47-0.83,2.38c-0.62,0.91-7.07,6.65-10.18,8.76" class="stroke" stroke-dasharray="150"><set attributeName="opacity" to="0" dur="7.7s" /><animate attributeName="stroke-dashoffset" from="150" to="0" dur="1.8s" begin="7.7s" fill="freeze" /></path><path d="M63.31,52.66c0.47,1.06,0.47,2.45,0.43,3.17C62.25,80.5,50.75,90.25,37.5,95.25" class="stroke" stroke-dasharray="150"><set attributeName="opacity" to="0" dur="8.6s" /><animate attributeName="stroke-dashoffset" from="150" to="0" dur="1.8s" begin="8.6s" fill="freeze" /></path><path d="M63.26,68.26c8.2,8.5,14.87,15.36,22.08,21.42c2.51,2.11,4.54,3.57,7.67,5.26" class="stroke" stroke-dasharray="150"><set attributeName="opacity" to="0" dur="9.9s" /><animate attributeName="stroke-dashoffset" from="150" to="0" dur="1.8s" begin="9.9s" fill="freeze" /></path><text x="90" y="120" id="reset-kvg-06de1">⟳</text><text x="70" y="120" id="pause-kvg-06de1">◼</text><script type="text/javascript"><![CDATA[function RecurringTimer(e,t){var n,r,i=t;this.pause=function(){window.clearTimeout(n);i-=new Date-r};var s=function(){r=new Date;n=window.setTimeout(function(){i=t;s();e()},i)};this.clear=function(){window.clearTimeout(n);i=t;n=window.setTimeout(function(){i=t;s();e()},i)};this.resume=s;this.resume()}function invoketimer(){timer=new RecurringTimer(function(){svg.setCurrentTime(0)},12000.0)}var svg=document.getElementById("kvg-06de1");var pause=document.getElementById("pause-kvg-06de1");var reset=document.getElementById("reset-kvg-06de1");var timer;invoketimer();reset.onclick=function(){svg.setCurrentTime(0);timer.clear();svg.unpauseAnimations();pause.innerHTML = "◼";};pause.onclick=function(){if(svg.animationsPaused()){svg.unpauseAnimations();timer.resume();pause.innerHTML="◼"}else{svg.pauseAnimations();timer.pause();pause.innerHTML="▶"}}]]></script></svg>