<svg id="kvg-06df5" class="kanjivg" width="106" height="126" xmlns="http://www.w3.org/2000/svg" xmlns:xlink="http://www.w3.org/1999/xlink" xml:space="preserve" version="1.1" baseProfile="full"><defs><style type="text/css"><![CDATA[path.black{fill:none;stroke:black;stroke-width:5;stroke-linecap:round;stroke-linejoin:round;}path.grey{fill:none;stroke:#ddd;stroke-width:5;stroke-linecap:round;stroke-linejoin:round;}path.stroke{fill:none;stroke:black;stroke-width:5;stroke-linecap:round;stroke-linejoin:round;}rect{fill:none;stroke:#555;stroke-width:2;} text{font-size:16px;font-family:Segoe UI Symbol,Cambria Math,DejaVu Sans,Symbola,Quivira,STIX,Code2000;-webkit-touch-callout:none;cursor:pointer;-webkit-user-select:none;-khtml-user-select:none;-moz-user-select:none;-ms-user-select:none;user-select: none;}text:hover{color:#777;}#reset{font-weight:bold;}]]></style><marker id="markerStart" markerWidth="8" markerHeight="8" style="overflow:visible;"><circle cx="0" cy="0" r="1.5" style="stroke:none;fill:red;fill-opacity:0.5;"/></marker><marker id="markerEnd" style="overflow:visible;"><circle cx="0" cy="0" r="0.8" style="stroke:none;fill:blue;fill-opacity:0.5;"><animate attributeName="opacity" from="1" to="0" dur="3s" repeatCount="indefinite" /></circle></marker></defs><rect x="4" y="4" width="100" height="100" /><path d="M18.88,15.25c4.01,1.3,10.36,5.33,11.37,7.34" class="grey" /><path d="M15.5,39c3.88,1.32,10.03,5.44,11,7.5" class="grey" /><path d="M14.75,86.71c1.5,0.54,3.31,0.36,4.25-1.25C21.75,80.75,24.5,75,27,69" class="grey" /><path d="M41.69,17.75c0.5,2.03,1.2,3.63,1.2,6.17c0,23.19,2.03,56.61-14.83,68.55" class="grey" /><path d="M55.77,16.33c0.98,0.92,1.76,1.99,1.76,5.02c0,3.9-0.02,11.69-0.02,16.65" class="grey" /><path d="M43.25,40C46,39.75,57.5,38.25,60,38.25" class="grey" /><path d="M70.77,15.33c0.98,0.92,1.67,1.99,1.76,5.02c0.12,4.54-0.52,10.4-0.83,15.16c-0.1,1.52,1.02,2.05,2.49,1.99C80.25,37.25,84,36,89.75,36" class="grey" /><path d="M88.27,13.33c0.98,0.92,1.67,1.99,1.76,5.02C90.42,32.91,90,91.04,90,96" class="grey" /><path d="M43.25,51.5c6.75-0.25,41.5-2.75,47-2.75" class="grey" /><path d="M41.75,66.25c4.5-0.75,9.75-1.75,12.5-2.25s3.25,1.5,3.25,3S57,88.5,57,90" class="grey" /><path d="M71.25,63.5c0.73-0.12,2.47,0.23,3.98,0.06c4.66-0.51,11.38-1.62,14.02-1.81" class="grey" /><path d="M73.02,64.35C73.02,72,73,85.54,73,90.5" class="grey" /><path d="M18.88,15.25c4.01,1.3,10.36,5.33,11.37,7.34" class="stroke" stroke-dasharray="150"><animate attributeName="stroke-dashoffset" from="150" to="0" dur="1.8s" begin="0.0s" fill="freeze" /></path><path d="M15.5,39c3.88,1.32,10.03,5.44,11,7.5" class="stroke" stroke-dasharray="150"><set attributeName="opacity" to="0" dur="0.9s" /><animate attributeName="stroke-dashoffset" from="150" to="0" dur="1.8s" begin="0.9s" fill="freeze" /></path><path d="M14.75,86.71c1.5,0.54,3.31,0.36,4.25-1.25C21.75,80.75,24.5,75,27,69" class="stroke" stroke-dasharray="150"><set attributeName="opacity" to="0" dur="1.8s" /><animate attributeName="stroke-dashoffset" from="150" to="0" dur="1.8s" begin="1.8s" fill="freeze" /></path><path d="M41.69,17.75c0.5,2.03,1.2,3.63,1.2,6.17c0,23.19,2.03,56.61-14.83,68.55" class="stroke" stroke-dasharray="150"><set attributeName="opacity" to="0" dur="2.8s" /><animate attributeName="stroke-dashoffset" from="150" to="0" dur="1.8s" begin="2.8s" fill="freeze" /></path><path d="M55.77,16.33c0.98,0.92,1.76,1.99,1.76,5.02c0,3.9-0.02,11.69-0.02,16.65" class="stroke" stroke-dasharray="150"><set attributeName="opacity" to="0" dur="4.5s" /><animate attributeName="stroke-dashoffset" from="150" to="0" dur="1.8s" begin="4.5s" fill="freeze" /></path><path d="M43.25,40C46,39.75,57.5,38.25,60,38.25" class="stroke" stroke-dasharray="150"><set attributeName="opacity" to="0" dur="5.5s" /><animate attributeName="stroke-dashoffset" from="150" to="0" dur="1.8s" begin="5.5s" fill="freeze" /></path><path d="M70.77,15.33c0.98,0.92,1.67,1.99,1.76,5.02c0.12,4.54-0.52,10.4-0.83,15.16c-0.1,1.52,1.02,2.05,2.49,1.99C80.25,37.25,84,36,89.75,36" class="stroke" stroke-dasharray="150"><set attributeName="opacity" to="0" dur="6.4s" /><animate attributeName="stroke-dashoffset" from="150" to="0" dur="1.8s" begin="6.4s" fill="freeze" /></path><path d="M88.27,13.33c0.98,0.92,1.67,1.99,1.76,5.02C90.42,32.91,90,91.04,90,96" class="stroke" stroke-dasharray="150"><set attributeName="opacity" to="0" dur="7.5s" /><animate attributeName="stroke-dashoffset" from="150" to="0" dur="1.8s" begin="7.5s" fill="freeze" /></path><path d="M43.25,51.5c6.75-0.25,41.5-2.75,47-2.75" class="stroke" stroke-dasharray="150"><set attributeName="opacity" to="0" dur="9.2s" /><animate attributeName="stroke-dashoffset" from="150" to="0" dur="1.8s" begin="9.2s" fill="freeze" /></path><path d="M41.75,66.25c4.5-0.75,9.75-1.75,12.5-2.25s3.25,1.5,3.25,3S57,88.5,57,90" class="stroke" stroke-dasharray="150"><set attributeName="opacity" to="0" dur="10.399999999999999s" /><animate attributeName="stroke-dashoffset" from="150" to="0" dur="1.8s" begin="10.399999999999999s" fill="freeze" /></path><path d="M71.25,63.5c0.73-0.12,2.47,0.23,3.98,0.06c4.66-0.51,11.38-1.62,14.02-1.81" class="stroke" stroke-dasharray="150"><set attributeName="opacity" to="0" dur="11.499999999999998s" /><animate attributeName="stroke-dashoffset" from="150" to="0" dur="1.8s" begin="11.499999999999998s" fill="freeze" /></path><path d="M73.02,64.35C73.02,72,73,85.54,73,90.5" class="stroke" stroke-dasharray="150"><set attributeName="opacity" to="0" dur="12.399999999999999s" /><animate attributeName="stroke-dashoffset" from="150" to="0" dur="1.8s" begin="12.399999999999999s" fill="freeze" /></path><text x="90" y="120" id="reset-kvg-06df5">⟳</text><text x="70" y="120" id="pause-kvg-06df5">◼</text><script type="text/javascript"><![CDATA[function RecurringTimer(e,t){var n,r,i=t;this.pause=function(){window.clearTimeout(n);i-=new Date-r};var s=function(){r=new Date;n=window.setTimeout(function(){i=t;s();e()},i)};this.clear=function(){window.clearTimeout(n);i=t;n=window.setTimeout(function(){i=t;s();e()},i)};this.resume=s;this.resume()}function invoketimer(){timer=new RecurringTimer(function(){svg.setCurrentTime(0)},14399.999999999998)}var svg=document.getElementById("kvg-06df5");var pause=document.getElementById("pause-kvg-06df5");var reset=document.getElementById("reset-kvg-06df5");var timer;invoketimer();reset.onclick=function(){svg.setCurrentTime(0);timer.clear();svg.unpauseAnimations();pause.innerHTML = "◼";};pause.onclick=function(){if(svg.animationsPaused()){svg.unpauseAnimations();timer.resume();pause.innerHTML="◼"}else{svg.pauseAnimations();timer.pause();pause.innerHTML="▶"}}]]></script></svg>