<svg id="kvg-06e56" class="kanjivg" width="106" height="126" xmlns="http://www.w3.org/2000/svg" xmlns:xlink="http://www.w3.org/1999/xlink" xml:space="preserve" version="1.1" baseProfile="full"><defs><style type="text/css"><![CDATA[path.black{fill:none;stroke:black;stroke-width:5;stroke-linecap:round;stroke-linejoin:round;}path.grey{fill:none;stroke:#ddd;stroke-width:5;stroke-linecap:round;stroke-linejoin:round;}path.stroke{fill:none;stroke:black;stroke-width:5;stroke-linecap:round;stroke-linejoin:round;}rect{fill:none;stroke:#555;stroke-width:2;} text{font-size:16px;font-family:Segoe UI Symbol,Cambria Math,DejaVu Sans,Symbola,Quivira,STIX,Code2000;-webkit-touch-callout:none;cursor:pointer;-webkit-user-select:none;-khtml-user-select:none;-moz-user-select:none;-ms-user-select:none;user-select: none;}text:hover{color:#777;}#reset{font-weight:bold;}]]></style><marker id="markerStart" markerWidth="8" markerHeight="8" style="overflow:visible;"><circle cx="0" cy="0" r="1.5" style="stroke:none;fill:red;fill-opacity:0.5;"/></marker><marker id="markerEnd" style="overflow:visible;"><circle cx="0" cy="0" r="0.8" style="stroke:none;fill:blue;fill-opacity:0.5;"><animate attributeName="opacity" from="1" to="0" dur="3s" repeatCount="indefinite" /></circle></marker></defs><rect x="4" y="4" width="100" height="100" /><path d="M20.13,17c3.31,1.47,8.54,6.05,9.37,8.34" class="grey" /><path d="M14.75,38c3.79,1.15,9.8,5.72,10.75,7.5" class="grey" /><path d="M14.75,82.46c1.88,0.42,3.31-0.39,4.25-2C21.75,75.75,24.5,70,27,64" class="grey" /><path d="M32.25,41c1.25,0.62,3.12,0.67,5.5,0.5c7.12-0.5,19.12-2.5,24-3c0.99-0.1,2.62-0.25,3.75,0" class="grey" /><path d="M48.73,15.63c1.19,1.19,1.7,2.74,1.7,4.43c0,14.43,0.25,33.72,0.12,38.88" class="grey" /><path d="M36.65,60.04c0.84,0.84,1.27,1.96,1.38,3.06c0.39,3.87,1.49,10.11,2.16,15.64c0.13,1.11,0.26,2.18,0.37,3.21" class="grey" /><path d="M38.7,61.05c5.17-0.62,15.16-2.31,20.05-2.73c2.93-0.26,4.37,0.72,3.93,3.69c-0.57,3.92-1.73,8.91-2.51,13.6" class="grey" /><path d="M40.37,78.17c3.99-0.24,12.09-1.41,18.01-2.01c1.19-0.12,2.3-0.22,3.27-0.28" class="grey" /><path d="M71.74,20c0.63,0.63,1.19,1.63,1.22,2.58c1.54,44.8-1.71,57.55-12.21,66.92" class="grey" /><path d="M73.72,21.22c1.26-0.16,10.54-1.87,14.02-2.52c3-0.57,4.65-0.3,4.68,3.17c0.05,6.53,0.17,46.75,0.17,64.96c0,10.29-6.59,2.67-8.59,0.92" class="grey" /><path d="M74.46,41.19c5.17-0.89,12.12-1.91,16.66-2.15" class="grey" /><path d="M73.64,59.31c4.03-0.29,12.74-1.31,17.52-1.5" class="grey" /><path d="M20.13,17c3.31,1.47,8.54,6.05,9.37,8.34" class="stroke" stroke-dasharray="150"><animate attributeName="stroke-dashoffset" from="150" to="0" dur="1.8s" begin="0.0s" fill="freeze" /></path><path d="M14.75,38c3.79,1.15,9.8,5.72,10.75,7.5" class="stroke" stroke-dasharray="150"><set attributeName="opacity" to="0" dur="0.9s" /><animate attributeName="stroke-dashoffset" from="150" to="0" dur="1.8s" begin="0.9s" fill="freeze" /></path><path d="M14.75,82.46c1.88,0.42,3.31-0.39,4.25-2C21.75,75.75,24.5,70,27,64" class="stroke" stroke-dasharray="150"><set attributeName="opacity" to="0" dur="1.8s" /><animate attributeName="stroke-dashoffset" from="150" to="0" dur="1.8s" begin="1.8s" fill="freeze" /></path><path d="M32.25,41c1.25,0.62,3.12,0.67,5.5,0.5c7.12-0.5,19.12-2.5,24-3c0.99-0.1,2.62-0.25,3.75,0" class="stroke" stroke-dasharray="150"><set attributeName="opacity" to="0" dur="2.8s" /><animate attributeName="stroke-dashoffset" from="150" to="0" dur="1.8s" begin="2.8s" fill="freeze" /></path><path d="M48.73,15.63c1.19,1.19,1.7,2.74,1.7,4.43c0,14.43,0.25,33.72,0.12,38.88" class="stroke" stroke-dasharray="150"><set attributeName="opacity" to="0" dur="3.8s" /><animate attributeName="stroke-dashoffset" from="150" to="0" dur="1.8s" begin="3.8s" fill="freeze" /></path><path d="M36.65,60.04c0.84,0.84,1.27,1.96,1.38,3.06c0.39,3.87,1.49,10.11,2.16,15.64c0.13,1.11,0.26,2.18,0.37,3.21" class="stroke" stroke-dasharray="150"><set attributeName="opacity" to="0" dur="4.9s" /><animate attributeName="stroke-dashoffset" from="150" to="0" dur="1.8s" begin="4.9s" fill="freeze" /></path><path d="M38.7,61.05c5.17-0.62,15.16-2.31,20.05-2.73c2.93-0.26,4.37,0.72,3.93,3.69c-0.57,3.92-1.73,8.91-2.51,13.6" class="stroke" stroke-dasharray="150"><set attributeName="opacity" to="0" dur="5.9s" /><animate attributeName="stroke-dashoffset" from="150" to="0" dur="1.8s" begin="5.9s" fill="freeze" /></path><path d="M40.37,78.17c3.99-0.24,12.09-1.41,18.01-2.01c1.19-0.12,2.3-0.22,3.27-0.28" class="stroke" stroke-dasharray="150"><set attributeName="opacity" to="0" dur="7.0s" /><animate attributeName="stroke-dashoffset" from="150" to="0" dur="1.8s" begin="7.0s" fill="freeze" /></path><path d="M71.74,20c0.63,0.63,1.19,1.63,1.22,2.58c1.54,44.8-1.71,57.55-12.21,66.92" class="stroke" stroke-dasharray="150"><set attributeName="opacity" to="0" dur="8.0s" /><animate attributeName="stroke-dashoffset" from="150" to="0" dur="1.8s" begin="8.0s" fill="freeze" /></path><path d="M73.72,21.22c1.26-0.16,10.54-1.87,14.02-2.52c3-0.57,4.65-0.3,4.68,3.17c0.05,6.53,0.17,46.75,0.17,64.96c0,10.29-6.59,2.67-8.59,0.92" class="stroke" stroke-dasharray="150"><set attributeName="opacity" to="0" dur="9.7s" /><animate attributeName="stroke-dashoffset" from="150" to="0" dur="1.8s" begin="9.7s" fill="freeze" /></path><path d="M74.46,41.19c5.17-0.89,12.12-1.91,16.66-2.15" class="stroke" stroke-dasharray="150"><set attributeName="opacity" to="0" dur="11.6s" /><animate attributeName="stroke-dashoffset" from="150" to="0" dur="1.8s" begin="11.6s" fill="freeze" /></path><path d="M73.64,59.31c4.03-0.29,12.74-1.31,17.52-1.5" class="stroke" stroke-dasharray="150"><set attributeName="opacity" to="0" dur="12.5s" /><animate attributeName="stroke-dashoffset" from="150" to="0" dur="1.8s" begin="12.5s" fill="freeze" /></path><text x="90" y="120" id="reset-kvg-06e56">⟳</text><text x="70" y="120" id="pause-kvg-06e56">◼</text><script type="text/javascript"><![CDATA[function RecurringTimer(e,t){var n,r,i=t;this.pause=function(){window.clearTimeout(n);i-=new Date-r};var s=function(){r=new Date;n=window.setTimeout(function(){i=t;s();e()},i)};this.clear=function(){window.clearTimeout(n);i=t;n=window.setTimeout(function(){i=t;s();e()},i)};this.resume=s;this.resume()}function invoketimer(){timer=new RecurringTimer(function(){svg.setCurrentTime(0)},14400.0)}var svg=document.getElementById("kvg-06e56");var pause=document.getElementById("pause-kvg-06e56");var reset=document.getElementById("reset-kvg-06e56");var timer;invoketimer();reset.onclick=function(){svg.setCurrentTime(0);timer.clear();svg.unpauseAnimations();pause.innerHTML = "◼";};pause.onclick=function(){if(svg.animationsPaused()){svg.unpauseAnimations();timer.resume();pause.innerHTML="◼"}else{svg.pauseAnimations();timer.pause();pause.innerHTML="▶"}}]]></script></svg>