<svg id="kvg-06eb7" class="kanjivg" width="106" height="126" xmlns="http://www.w3.org/2000/svg" xmlns:xlink="http://www.w3.org/1999/xlink" xml:space="preserve" version="1.1" baseProfile="full"><defs><style type="text/css"><![CDATA[path.black{fill:none;stroke:black;stroke-width:5;stroke-linecap:round;stroke-linejoin:round;}path.grey{fill:none;stroke:#ddd;stroke-width:5;stroke-linecap:round;stroke-linejoin:round;}path.stroke{fill:none;stroke:black;stroke-width:5;stroke-linecap:round;stroke-linejoin:round;}rect{fill:none;stroke:#555;stroke-width:2;} text{font-size:16px;font-family:Segoe UI Symbol,Cambria Math,DejaVu Sans,Symbola,Quivira,STIX,Code2000;-webkit-touch-callout:none;cursor:pointer;-webkit-user-select:none;-khtml-user-select:none;-moz-user-select:none;-ms-user-select:none;user-select: none;}text:hover{color:#777;}#reset{font-weight:bold;}]]></style><marker id="markerStart" markerWidth="8" markerHeight="8" style="overflow:visible;"><circle cx="0" cy="0" r="1.5" style="stroke:none;fill:red;fill-opacity:0.5;"/></marker><marker id="markerEnd" style="overflow:visible;"><circle cx="0" cy="0" r="0.8" style="stroke:none;fill:blue;fill-opacity:0.5;"><animate attributeName="opacity" from="1" to="0" dur="3s" repeatCount="indefinite" /></circle></marker></defs><rect x="4" y="4" width="100" height="100" /><path d="M17.88,15.25c4.9,1.56,12.64,6.41,13.87,8.84" class="grey" /><path d="M15.75,40c4.5,1.68,11.62,6.89,12.75,9.5" class="grey" /><path d="M14.25,88.73c1.71,1.27,3.78,1.32,4.86-0.25c3.14-4.57,8.79-15.66,11.64-21.49" class="grey" /><path d="M39.5,15.82c0.58,1.43,1.43,2.51,1.45,4.41c0.11,14.27,0.61,50.02,0.26,77.27" class="grey" /><path d="M41.21,18.15C56,17.5,79.63,15.5,89.03,15.5c2.14,0,4.26,1.99,4.22,5c-0.19,15.75-0.78,53.25-0.39,75.5" class="grey" /><path d="M48.99,29.1c0.73,0.39,2.07,0.39,2.81,0.39c6.96,0.01,21.21-1.74,29.32-2.2c1.22-0.07,1.95,0.18,2.56,0.38" class="grey" /><path d="M66.6,31.59c0.05,0.43,0.26,1.19-0.1,1.73c-2.75,4.18-9.25,11.18-18.18,16.61" class="grey" /><path d="M60.89,41.88c9.61,7.37,13.86,21.37,9.55,38.7c-2.4,9.63-6.44,5.93-8.73,2.39" class="grey" /><path d="M62.23,46.93c0.04,0.39,0.09,1-0.08,1.55c-1.03,3.27-6.92,10.45-14.99,14.85" class="grey" /><path d="M67.37,57.04c0.05,0.52,0.11,1.34-0.11,2.08c-1.29,4.39-8.7,14.04-18.84,19.94" class="grey" /><path d="M81.62,39.34c0.03,0.3,0.06,0.77-0.06,1.2c-0.71,2.54-4.81,8.11-10.42,11.52" class="grey" /><path d="M72.06,58.45c5.21,3.25,11.99,11.75,13.78,19.82" class="grey" /><path d="M41.44,94.51c10.17,0,36.88-1.1,50.92-1.51" class="grey" /><path d="M17.88,15.25c4.9,1.56,12.64,6.41,13.87,8.84" class="stroke" stroke-dasharray="150"><animate attributeName="stroke-dashoffset" from="150" to="0" dur="1.8s" begin="0.0s" fill="freeze" /></path><path d="M15.75,40c4.5,1.68,11.62,6.89,12.75,9.5" class="stroke" stroke-dasharray="150"><set attributeName="opacity" to="0" dur="0.9s" /><animate attributeName="stroke-dashoffset" from="150" to="0" dur="1.8s" begin="0.9s" fill="freeze" /></path><path d="M14.25,88.73c1.71,1.27,3.78,1.32,4.86-0.25c3.14-4.57,8.79-15.66,11.64-21.49" class="stroke" stroke-dasharray="150"><set attributeName="opacity" to="0" dur="1.8s" /><animate attributeName="stroke-dashoffset" from="150" to="0" dur="1.8s" begin="1.8s" fill="freeze" /></path><path d="M39.5,15.82c0.58,1.43,1.43,2.51,1.45,4.41c0.11,14.27,0.61,50.02,0.26,77.27" class="stroke" stroke-dasharray="150"><set attributeName="opacity" to="0" dur="2.8s" /><animate attributeName="stroke-dashoffset" from="150" to="0" dur="1.8s" begin="2.8s" fill="freeze" /></path><path d="M41.21,18.15C56,17.5,79.63,15.5,89.03,15.5c2.14,0,4.26,1.99,4.22,5c-0.19,15.75-0.78,53.25-0.39,75.5" class="stroke" stroke-dasharray="150"><set attributeName="opacity" to="0" dur="4.5s" /><animate attributeName="stroke-dashoffset" from="150" to="0" dur="1.8s" begin="4.5s" fill="freeze" /></path><path d="M48.99,29.1c0.73,0.39,2.07,0.39,2.81,0.39c6.96,0.01,21.21-1.74,29.32-2.2c1.22-0.07,1.95,0.18,2.56,0.38" class="stroke" stroke-dasharray="150"><set attributeName="opacity" to="0" dur="6.5s" /><animate attributeName="stroke-dashoffset" from="150" to="0" dur="1.8s" begin="6.5s" fill="freeze" /></path><path d="M66.6,31.59c0.05,0.43,0.26,1.19-0.1,1.73c-2.75,4.18-9.25,11.18-18.18,16.61" class="stroke" stroke-dasharray="150"><set attributeName="opacity" to="0" dur="7.5s" /><animate attributeName="stroke-dashoffset" from="150" to="0" dur="1.8s" begin="7.5s" fill="freeze" /></path><path d="M60.89,41.88c9.61,7.37,13.86,21.37,9.55,38.7c-2.4,9.63-6.44,5.93-8.73,2.39" class="stroke" stroke-dasharray="150"><set attributeName="opacity" to="0" dur="8.5s" /><animate attributeName="stroke-dashoffset" from="150" to="0" dur="1.8s" begin="8.5s" fill="freeze" /></path><path d="M62.23,46.93c0.04,0.39,0.09,1-0.08,1.55c-1.03,3.27-6.92,10.45-14.99,14.85" class="stroke" stroke-dasharray="150"><set attributeName="opacity" to="0" dur="9.9s" /><animate attributeName="stroke-dashoffset" from="150" to="0" dur="1.8s" begin="9.9s" fill="freeze" /></path><path d="M67.37,57.04c0.05,0.52,0.11,1.34-0.11,2.08c-1.29,4.39-8.7,14.04-18.84,19.94" class="stroke" stroke-dasharray="150"><set attributeName="opacity" to="0" dur="10.9s" /><animate attributeName="stroke-dashoffset" from="150" to="0" dur="1.8s" begin="10.9s" fill="freeze" /></path><path d="M81.62,39.34c0.03,0.3,0.06,0.77-0.06,1.2c-0.71,2.54-4.81,8.11-10.42,11.52" class="stroke" stroke-dasharray="150"><set attributeName="opacity" to="0" dur="11.9s" /><animate attributeName="stroke-dashoffset" from="150" to="0" dur="1.8s" begin="11.9s" fill="freeze" /></path><path d="M72.06,58.45c5.21,3.25,11.99,11.75,13.78,19.82" class="stroke" stroke-dasharray="150"><set attributeName="opacity" to="0" dur="12.8s" /><animate attributeName="stroke-dashoffset" from="150" to="0" dur="1.8s" begin="12.8s" fill="freeze" /></path><path d="M41.44,94.51c10.17,0,36.88-1.1,50.92-1.51" class="stroke" stroke-dasharray="150"><set attributeName="opacity" to="0" dur="13.8s" /><animate attributeName="stroke-dashoffset" from="150" to="0" dur="1.8s" begin="13.8s" fill="freeze" /></path><text x="90" y="120" id="reset-kvg-06eb7">⟳</text><text x="70" y="120" id="pause-kvg-06eb7">◼</text><script type="text/javascript"><![CDATA[function RecurringTimer(e,t){var n,r,i=t;this.pause=function(){window.clearTimeout(n);i-=new Date-r};var s=function(){r=new Date;n=window.setTimeout(function(){i=t;s();e()},i)};this.clear=function(){window.clearTimeout(n);i=t;n=window.setTimeout(function(){i=t;s();e()},i)};this.resume=s;this.resume()}function invoketimer(){timer=new RecurringTimer(function(){svg.setCurrentTime(0)},16100.000000000002)}var svg=document.getElementById("kvg-06eb7");var pause=document.getElementById("pause-kvg-06eb7");var reset=document.getElementById("reset-kvg-06eb7");var timer;invoketimer();reset.onclick=function(){svg.setCurrentTime(0);timer.clear();svg.unpauseAnimations();pause.innerHTML = "◼";};pause.onclick=function(){if(svg.animationsPaused()){svg.unpauseAnimations();timer.resume();pause.innerHTML="◼"}else{svg.pauseAnimations();timer.pause();pause.innerHTML="▶"}}]]></script></svg>