<svg id="kvg-06f13-Kaisho" class="kanjivg" width="106" height="126" xmlns="http://www.w3.org/2000/svg" xmlns:xlink="http://www.w3.org/1999/xlink" xml:space="preserve" version="1.1" baseProfile="full"><defs><style type="text/css"><![CDATA[path.black{fill:none;stroke:black;stroke-width:5;stroke-linecap:round;stroke-linejoin:round;}path.grey{fill:none;stroke:#ddd;stroke-width:5;stroke-linecap:round;stroke-linejoin:round;}path.stroke{fill:none;stroke:black;stroke-width:5;stroke-linecap:round;stroke-linejoin:round;}rect{fill:none;stroke:#555;stroke-width:2;} text{font-size:16px;font-family:Segoe UI Symbol,Cambria Math,DejaVu Sans,Symbola,Quivira,STIX,Code2000;-webkit-touch-callout:none;cursor:pointer;-webkit-user-select:none;-khtml-user-select:none;-moz-user-select:none;-ms-user-select:none;user-select: none;}text:hover{color:#777;}#reset{font-weight:bold;}]]></style><marker id="markerStart" markerWidth="8" markerHeight="8" style="overflow:visible;"><circle cx="0" cy="0" r="1.5" style="stroke:none;fill:red;fill-opacity:0.5;"/></marker><marker id="markerEnd" style="overflow:visible;"><circle cx="0" cy="0" r="0.8" style="stroke:none;fill:blue;fill-opacity:0.5;"><animate attributeName="opacity" from="1" to="0" dur="3s" repeatCount="indefinite" /></circle></marker></defs><rect x="4" y="4" width="100" height="100" /><path d="M16.63,17.5c4.45,1.52,11.5,6.23,12.62,8.59" class="grey" /><path d="M13.75,41c4.5,1.59,11.62,6.53,12.75,9" class="grey" /><path d="M13.25,89.73c1.71,1.27,3.78,1.32,4.86-0.25c3.14-4.57,8.79-16.66,11.64-22.49" class="grey" /><path d="M62.75,9.75c2,1.5,4.75,5.25,5.13,8.46" class="grey" /><path d="M40.42,24.01c2.09,0.33,3.92,0.56,6.33,0.47C59.5,24,71.38,22.77,88.04,22.1c2.45-0.1,3.7,0.04,5.53,0.6" class="grey" /><path d="M75.96,27.93c0.35,0.45,0.7,0.81,0.18,1.61c-4.71,7.16-10.89,11.71-21.87,16.9" class="grey" /><path d="M56.56,31.35c7.37,2.18,17.98,9.26,21.83,14.45" class="grey" /><path d="M47.67,31.3c0.42,0.2,1.3,1.47,1.38,1.86c0.61,2.87-0.54,16.6-0.58,17.53c-0.04,0.93,0.91,1.41,1.73,1.33c13.05-1.27,31.65-2.36,35.97-2.55" class="grey" /><path d="M86.88,28.08c0.42,0.2,1.3,1.47,1.38,1.86c0.08,0.39-1.31,14.7-1.68,22.42" class="grey" /><path d="M42.9,61.73c0.75,0.9,0.88,2.34,1.01,3.98C44.25,70,45.66,96.29,45.66,99" class="grey" /><path d="M44.13,63.46c6.68-0.76,46.19-2.96,47.52-2.96c1.93,0,3.16,0.57,3.16,2.27c0,3.59-2.07,23.36-3.35,28.72c-2.06,8.65-5.45,3.74-7.24,1.94" class="grey" /><path d="M66.54,53.25c0.29,0.5,0.37,2.46,0.1,3.08c-3.88,8.92-8.29,15.85-12.27,21.57c-1.26,1.81-1.25,3.35,0.58,2.81c8.3-2.46,15.55-4.46,22.99-6.56" class="grey" /><path d="M73.08,66.81c3.08,2.76,7.96,11.36,8.73,15.66" class="grey" /><path d="M16.63,17.5c4.45,1.52,11.5,6.23,12.62,8.59" class="stroke" stroke-dasharray="150"><animate attributeName="stroke-dashoffset" from="150" to="0" dur="1.8s" begin="0.0s" fill="freeze" /></path><path d="M13.75,41c4.5,1.59,11.62,6.53,12.75,9" class="stroke" stroke-dasharray="150"><set attributeName="opacity" to="0" dur="0.9s" /><animate attributeName="stroke-dashoffset" from="150" to="0" dur="1.8s" begin="0.9s" fill="freeze" /></path><path d="M13.25,89.73c1.71,1.27,3.78,1.32,4.86-0.25c3.14-4.57,8.79-16.66,11.64-22.49" class="stroke" stroke-dasharray="150"><set attributeName="opacity" to="0" dur="1.8s" /><animate attributeName="stroke-dashoffset" from="150" to="0" dur="1.8s" begin="1.8s" fill="freeze" /></path><path d="M62.75,9.75c2,1.5,4.75,5.25,5.13,8.46" class="stroke" stroke-dasharray="150"><set attributeName="opacity" to="0" dur="2.8s" /><animate attributeName="stroke-dashoffset" from="150" to="0" dur="1.8s" begin="2.8s" fill="freeze" /></path><path d="M40.42,24.01c2.09,0.33,3.92,0.56,6.33,0.47C59.5,24,71.38,22.77,88.04,22.1c2.45-0.1,3.7,0.04,5.53,0.6" class="stroke" stroke-dasharray="150"><set attributeName="opacity" to="0" dur="3.6999999999999997s" /><animate attributeName="stroke-dashoffset" from="150" to="0" dur="1.8s" begin="3.6999999999999997s" fill="freeze" /></path><path d="M75.96,27.93c0.35,0.45,0.7,0.81,0.18,1.61c-4.71,7.16-10.89,11.71-21.87,16.9" class="stroke" stroke-dasharray="150"><set attributeName="opacity" to="0" dur="5.0s" /><animate attributeName="stroke-dashoffset" from="150" to="0" dur="1.8s" begin="5.0s" fill="freeze" /></path><path d="M56.56,31.35c7.37,2.18,17.98,9.26,21.83,14.45" class="stroke" stroke-dasharray="150"><set attributeName="opacity" to="0" dur="6.0s" /><animate attributeName="stroke-dashoffset" from="150" to="0" dur="1.8s" begin="6.0s" fill="freeze" /></path><path d="M47.67,31.3c0.42,0.2,1.3,1.47,1.38,1.86c0.61,2.87-0.54,16.6-0.58,17.53c-0.04,0.93,0.91,1.41,1.73,1.33c13.05-1.27,31.65-2.36,35.97-2.55" class="stroke" stroke-dasharray="150"><set attributeName="opacity" to="0" dur="7.0s" /><animate attributeName="stroke-dashoffset" from="150" to="0" dur="1.8s" begin="7.0s" fill="freeze" /></path><path d="M86.88,28.08c0.42,0.2,1.3,1.47,1.38,1.86c0.08,0.39-1.31,14.7-1.68,22.42" class="stroke" stroke-dasharray="150"><set attributeName="opacity" to="0" dur="8.4s" /><animate attributeName="stroke-dashoffset" from="150" to="0" dur="1.8s" begin="8.4s" fill="freeze" /></path><path d="M42.9,61.73c0.75,0.9,0.88,2.34,1.01,3.98C44.25,70,45.66,96.29,45.66,99" class="stroke" stroke-dasharray="150"><set attributeName="opacity" to="0" dur="9.4s" /><animate attributeName="stroke-dashoffset" from="150" to="0" dur="1.8s" begin="9.4s" fill="freeze" /></path><path d="M44.13,63.46c6.68-0.76,46.19-2.96,47.52-2.96c1.93,0,3.16,0.57,3.16,2.27c0,3.59-2.07,23.36-3.35,28.72c-2.06,8.65-5.45,3.74-7.24,1.94" class="stroke" stroke-dasharray="150"><set attributeName="opacity" to="0" dur="10.4s" /><animate attributeName="stroke-dashoffset" from="150" to="0" dur="1.8s" begin="10.4s" fill="freeze" /></path><path d="M66.54,53.25c0.29,0.5,0.37,2.46,0.1,3.08c-3.88,8.92-8.29,15.85-12.27,21.57c-1.26,1.81-1.25,3.35,0.58,2.81c8.3-2.46,15.55-4.46,22.99-6.56" class="stroke" stroke-dasharray="150"><set attributeName="opacity" to="0" dur="12.200000000000001s" /><animate attributeName="stroke-dashoffset" from="150" to="0" dur="1.8s" begin="12.200000000000001s" fill="freeze" /></path><path d="M73.08,66.81c3.08,2.76,7.96,11.36,8.73,15.66" class="stroke" stroke-dasharray="150"><set attributeName="opacity" to="0" dur="13.600000000000001s" /><animate attributeName="stroke-dashoffset" from="150" to="0" dur="1.8s" begin="13.600000000000001s" fill="freeze" /></path><text x="90" y="120" id="reset-kvg-06f13-Kaisho">⟳</text><text x="70" y="120" id="pause-kvg-06f13-Kaisho">◼</text><script type="text/javascript"><![CDATA[function RecurringTimer(e,t){var n,r,i=t;this.pause=function(){window.clearTimeout(n);i-=new Date-r};var s=function(){r=new Date;n=window.setTimeout(function(){i=t;s();e()},i)};this.clear=function(){window.clearTimeout(n);i=t;n=window.setTimeout(function(){i=t;s();e()},i)};this.resume=s;this.resume()}function invoketimer(){timer=new RecurringTimer(function(){svg.setCurrentTime(0)},15500.000000000002)}var svg=document.getElementById("kvg-06f13-Kaisho");var pause=document.getElementById("pause-kvg-06f13-Kaisho");var reset=document.getElementById("reset-kvg-06f13-Kaisho");var timer;invoketimer();reset.onclick=function(){svg.setCurrentTime(0);timer.clear();svg.unpauseAnimations();pause.innerHTML = "◼";};pause.onclick=function(){if(svg.animationsPaused()){svg.unpauseAnimations();timer.resume();pause.innerHTML="◼"}else{svg.pauseAnimations();timer.pause();pause.innerHTML="▶"}}]]></script></svg>