<svg id="kvg-06f64-KaishoVtLst" class="kanjivg" width="106" height="126" xmlns="http://www.w3.org/2000/svg" xmlns:xlink="http://www.w3.org/1999/xlink" xml:space="preserve" version="1.1" baseProfile="full"><defs><style type="text/css"><![CDATA[path.black{fill:none;stroke:black;stroke-width:5;stroke-linecap:round;stroke-linejoin:round;}path.grey{fill:none;stroke:#ddd;stroke-width:5;stroke-linecap:round;stroke-linejoin:round;}path.stroke{fill:none;stroke:black;stroke-width:5;stroke-linecap:round;stroke-linejoin:round;}rect{fill:none;stroke:#555;stroke-width:2;} text{font-size:16px;font-family:Segoe UI Symbol,Cambria Math,DejaVu Sans,Symbola,Quivira,STIX,Code2000;-webkit-touch-callout:none;cursor:pointer;-webkit-user-select:none;-khtml-user-select:none;-moz-user-select:none;-ms-user-select:none;user-select: none;}text:hover{color:#777;}#reset{font-weight:bold;}]]></style><marker id="markerStart" markerWidth="8" markerHeight="8" style="overflow:visible;"><circle cx="0" cy="0" r="1.5" style="stroke:none;fill:red;fill-opacity:0.5;"/></marker><marker id="markerEnd" style="overflow:visible;"><circle cx="0" cy="0" r="0.8" style="stroke:none;fill:blue;fill-opacity:0.5;"><animate attributeName="opacity" from="1" to="0" dur="3s" repeatCount="indefinite" /></circle></marker></defs><rect x="4" y="4" width="100" height="100" /><path d="M18.88,14.25c4.01,1.38,10.36,5.69,11.37,7.84" class="grey" /><path d="M14.75,36.5c3.62,1.68,9.34,6.89,10.25,9.5" class="grey" /><path d="M13.75,83.71c1.5,1.31,3.31,1.36,4.25-0.25C20.75,78.75,23.5,73,26,67" class="grey" /><path d="M37.64,16.78c0.61,0.42,2.01,3.17,2.01,4.02c0,4.45-0.08,65.37-0.2,70.66" class="grey" /><path d="M39.82,19.4c2.02-0.1,14.37-2.55,16.21-2.66c1.53-0.1,2.33,0.86,2.4,1.62c0.11,1.16-0.97,21.1-0.97,21.67" class="grey" /><path d="M40.18,29.12c2.99-0.34,5.97-0.82,8.94-1.29c0.8-0.13,1.61-0.25,2.4-0.38" class="grey" /><path d="M39.82,41.02c6.72-1.09,11.12-1.92,17.06-2.42" class="grey" /><path d="M72.75,14.18c0.39,0.59,0.79,1.82,0.79,2.58c0,0.76-0.13,22.16,0,22.93" class="grey" /><path d="M73.69,16.27c6.12-0.88,16.16-3.33,18.18-3.36c1.68-0.02,2.65,1.15,2.64,1.73c-0.44,17.49-0.44,62.78-0.44,75.48c0,9.79-5.02,2.28-6.31,1.05" class="grey" /><path d="M74.58,26.31c3.04-0.32,6.07-0.71,9.11-1.06c0.8-0.09,1.6-0.18,2.4-0.27" class="grey" /><path d="M74.19,37.67c7.19-0.4,12.14-1,18.63-1.25" class="grey" /><path d="M51.5,52.43c0.45,0.29,1.92,0.03,2.38,0.02c5.62-0.19,18.2-1.08,23.31-1.38c0.7-0.04,1.33,0.06,1.91,0.3" class="grey" /><path d="M54.09,65.29c0.45,0.32,1.92,0.15,2.38,0.14c6.03-0.18,13.21-1.17,18.8-1.73c0.56-0.06,1.79-0.13,2.62,0.15" class="grey" /><path d="M49.78,79.21c0.4,0.18,2.47,0.5,3.15,0.46c6.32-0.42,17.07-1.17,25.2-2.26c1.07-0.14,2.39,0.29,2.93,0.57" class="grey" /><path d="M64.55,53.41c0.83,1.33,0.83,2.13,0.83,3.19c0,4.03-0.01,17.2-0.01,22.12" class="grey" /><path d="M18.88,14.25c4.01,1.38,10.36,5.69,11.37,7.84" class="stroke" stroke-dasharray="150"><animate attributeName="stroke-dashoffset" from="150" to="0" dur="1.8s" begin="0.0s" fill="freeze" /></path><path d="M14.75,36.5c3.62,1.68,9.34,6.89,10.25,9.5" class="stroke" stroke-dasharray="150"><set attributeName="opacity" to="0" dur="0.9s" /><animate attributeName="stroke-dashoffset" from="150" to="0" dur="1.8s" begin="0.9s" fill="freeze" /></path><path d="M13.75,83.71c1.5,1.31,3.31,1.36,4.25-0.25C20.75,78.75,23.5,73,26,67" class="stroke" stroke-dasharray="150"><set attributeName="opacity" to="0" dur="1.8s" /><animate attributeName="stroke-dashoffset" from="150" to="0" dur="1.8s" begin="1.8s" fill="freeze" /></path><path d="M37.64,16.78c0.61,0.42,2.01,3.17,2.01,4.02c0,4.45-0.08,65.37-0.2,70.66" class="stroke" stroke-dasharray="150"><set attributeName="opacity" to="0" dur="2.8s" /><animate attributeName="stroke-dashoffset" from="150" to="0" dur="1.8s" begin="2.8s" fill="freeze" /></path><path d="M39.82,19.4c2.02-0.1,14.37-2.55,16.21-2.66c1.53-0.1,2.33,0.86,2.4,1.62c0.11,1.16-0.97,21.1-0.97,21.67" class="stroke" stroke-dasharray="150"><set attributeName="opacity" to="0" dur="4.5s" /><animate attributeName="stroke-dashoffset" from="150" to="0" dur="1.8s" begin="4.5s" fill="freeze" /></path><path d="M40.18,29.12c2.99-0.34,5.97-0.82,8.94-1.29c0.8-0.13,1.61-0.25,2.4-0.38" class="stroke" stroke-dasharray="150"><set attributeName="opacity" to="0" dur="5.6s" /><animate attributeName="stroke-dashoffset" from="150" to="0" dur="1.8s" begin="5.6s" fill="freeze" /></path><path d="M39.82,41.02c6.72-1.09,11.12-1.92,17.06-2.42" class="stroke" stroke-dasharray="150"><set attributeName="opacity" to="0" dur="6.5s" /><animate attributeName="stroke-dashoffset" from="150" to="0" dur="1.8s" begin="6.5s" fill="freeze" /></path><path d="M72.75,14.18c0.39,0.59,0.79,1.82,0.79,2.58c0,0.76-0.13,22.16,0,22.93" class="stroke" stroke-dasharray="150"><set attributeName="opacity" to="0" dur="7.4s" /><animate attributeName="stroke-dashoffset" from="150" to="0" dur="1.8s" begin="7.4s" fill="freeze" /></path><path d="M73.69,16.27c6.12-0.88,16.16-3.33,18.18-3.36c1.68-0.02,2.65,1.15,2.64,1.73c-0.44,17.49-0.44,62.78-0.44,75.48c0,9.79-5.02,2.28-6.31,1.05" class="stroke" stroke-dasharray="150"><set attributeName="opacity" to="0" dur="8.4s" /><animate attributeName="stroke-dashoffset" from="150" to="0" dur="1.8s" begin="8.4s" fill="freeze" /></path><path d="M74.58,26.31c3.04-0.32,6.07-0.71,9.11-1.06c0.8-0.09,1.6-0.18,2.4-0.27" class="stroke" stroke-dasharray="150"><set attributeName="opacity" to="0" dur="10.3s" /><animate attributeName="stroke-dashoffset" from="150" to="0" dur="1.8s" begin="10.3s" fill="freeze" /></path><path d="M74.19,37.67c7.19-0.4,12.14-1,18.63-1.25" class="stroke" stroke-dasharray="150"><set attributeName="opacity" to="0" dur="11.200000000000001s" /><animate attributeName="stroke-dashoffset" from="150" to="0" dur="1.8s" begin="11.200000000000001s" fill="freeze" /></path><path d="M51.5,52.43c0.45,0.29,1.92,0.03,2.38,0.02c5.62-0.19,18.2-1.08,23.31-1.38c0.7-0.04,1.33,0.06,1.91,0.3" class="stroke" stroke-dasharray="150"><set attributeName="opacity" to="0" dur="12.100000000000001s" /><animate attributeName="stroke-dashoffset" from="150" to="0" dur="1.8s" begin="12.100000000000001s" fill="freeze" /></path><path d="M54.09,65.29c0.45,0.32,1.92,0.15,2.38,0.14c6.03-0.18,13.21-1.17,18.8-1.73c0.56-0.06,1.79-0.13,2.62,0.15" class="stroke" stroke-dasharray="150"><set attributeName="opacity" to="0" dur="13.100000000000001s" /><animate attributeName="stroke-dashoffset" from="150" to="0" dur="1.8s" begin="13.100000000000001s" fill="freeze" /></path><path d="M49.78,79.21c0.4,0.18,2.47,0.5,3.15,0.46c6.32-0.42,17.07-1.17,25.2-2.26c1.07-0.14,2.39,0.29,2.93,0.57" class="stroke" stroke-dasharray="150"><set attributeName="opacity" to="0" dur="14.100000000000001s" /><animate attributeName="stroke-dashoffset" from="150" to="0" dur="1.8s" begin="14.100000000000001s" fill="freeze" /></path><path d="M64.55,53.41c0.83,1.33,0.83,2.13,0.83,3.19c0,4.03-0.01,17.2-0.01,22.12" class="stroke" stroke-dasharray="150"><set attributeName="opacity" to="0" dur="15.100000000000001s" /><animate attributeName="stroke-dashoffset" from="150" to="0" dur="1.8s" begin="15.100000000000001s" fill="freeze" /></path><text x="90" y="120" id="reset-kvg-06f64-KaishoVtLst">⟳</text><text x="70" y="120" id="pause-kvg-06f64-KaishoVtLst">◼</text><script type="text/javascript"><![CDATA[function RecurringTimer(e,t){var n,r,i=t;this.pause=function(){window.clearTimeout(n);i-=new Date-r};var s=function(){r=new Date;n=window.setTimeout(function(){i=t;s();e()},i)};this.clear=function(){window.clearTimeout(n);i=t;n=window.setTimeout(function(){i=t;s();e()},i)};this.resume=s;this.resume()}function invoketimer(){timer=new RecurringTimer(function(){svg.setCurrentTime(0)},17100.0)}var svg=document.getElementById("kvg-06f64-KaishoVtLst");var pause=document.getElementById("pause-kvg-06f64-KaishoVtLst");var reset=document.getElementById("reset-kvg-06f64-KaishoVtLst");var timer;invoketimer();reset.onclick=function(){svg.setCurrentTime(0);timer.clear();svg.unpauseAnimations();pause.innerHTML = "◼";};pause.onclick=function(){if(svg.animationsPaused()){svg.unpauseAnimations();timer.resume();pause.innerHTML="◼"}else{svg.pauseAnimations();timer.pause();pause.innerHTML="▶"}}]]></script></svg>