<svg id="kvg-06f6f" class="kanjivg" width="106" height="126" xmlns="http://www.w3.org/2000/svg" xmlns:xlink="http://www.w3.org/1999/xlink" xml:space="preserve" version="1.1" baseProfile="full"><defs><style type="text/css"><![CDATA[path.black{fill:none;stroke:black;stroke-width:5;stroke-linecap:round;stroke-linejoin:round;}path.grey{fill:none;stroke:#ddd;stroke-width:5;stroke-linecap:round;stroke-linejoin:round;}path.stroke{fill:none;stroke:black;stroke-width:5;stroke-linecap:round;stroke-linejoin:round;}rect{fill:none;stroke:#555;stroke-width:2;} text{font-size:16px;font-family:Segoe UI Symbol,Cambria Math,DejaVu Sans,Symbola,Quivira,STIX,Code2000;-webkit-touch-callout:none;cursor:pointer;-webkit-user-select:none;-khtml-user-select:none;-moz-user-select:none;-ms-user-select:none;user-select: none;}text:hover{color:#777;}#reset{font-weight:bold;}]]></style><marker id="markerStart" markerWidth="8" markerHeight="8" style="overflow:visible;"><circle cx="0" cy="0" r="1.5" style="stroke:none;fill:red;fill-opacity:0.5;"/></marker><marker id="markerEnd" style="overflow:visible;"><circle cx="0" cy="0" r="0.8" style="stroke:none;fill:blue;fill-opacity:0.5;"><animate attributeName="opacity" from="1" to="0" dur="3s" repeatCount="indefinite" /></circle></marker></defs><rect x="4" y="4" width="100" height="100" /><path d="M18.38,16c4.01,1.6,10.36,6.6,11.37,9.09" class="grey" /><path d="M15,42.25c4.06,1.54,10.48,6.35,11.5,8.75" class="grey" /><path d="M13.25,88.73c1.71,1.27,3.78,1.32,4.86-0.25c3.14-4.57,7.29-13.66,10.14-19.49" class="grey" /><path d="M46.17,15.84c1.94,0.21,2.86,0.57,4.64,0.43c10.84-0.85,21.45-2.52,28.96-3.27c2.5-0.25,3.8,1.56,3.42,3.69c-1.01,5.57-1.74,6.8-3.1,16.39" class="grey" /><path d="M37.85,25.52c2.02,0.17,3.59,0.53,5.82,0.34c15.58-1.36,32.13-3.3,46.08-3.98c2.32-0.11,4.49-0.38,6.89,0.25" class="grey" /><path d="M44.61,35c0.97,0.13,2.71,0.46,3.87,0.39c10.64-0.65,20.34-2.19,30.02-2.45c1.55-0.04,2.52,0,3.68,0.13" class="grey" /><path d="M38.28,44.81c0.54,0.18,1.61,0.21,2.16,0.17c3.46-0.31,13.05-1.83,16.9-2.12c0.9-0.07,1.88-0.08,2.34,0" class="grey" /><path d="M48.19,45c0.9,0.31,1.62,1.39,1.62,2.03c0,4.52,0.03,4.78,0.03,11.48" class="grey" /><path d="M38.44,61.94c0.57,0.56,1.72,0.86,3.44,0.12c4.78-2.05,13.37-5.7,18.15-7.74" class="grey" /><path d="M65.19,40.84c0.43,0.29,0.87,0.54,1.05,0.9c1.48,2.9,2.24,10.3,3.25,15.51" class="grey" /><path d="M66.6,42.97c7.76-1.58,17.21-2.83,21.66-3.23c1.62-0.15,2.6,0.86,2.37,1.72c-0.96,3.54-2.09,7.33-3.52,12.23" class="grey" /><path d="M69.69,55.09c5.22-0.37,12.87-1,20.04-1.56" class="grey" /><path d="M34.63,71.48c1.84,0.78,5.2,0.88,7.08,0.78C64,71,69.64,68.94,92.17,67.76c3.07-0.16,4.92,0.37,6.46,0.76" class="grey" /><path d="M77.85,60.32c0.07,0.42,1.01,2.2,1.01,4.89c0,18.07-0.2,23.18-0.2,27.57c0,10.66-6.69,1.58-8.45,0.22" class="grey" /><path d="M51.12,77.62c2.45,1.89,6.33,7.76,6.95,10.7" class="grey" /><path d="M18.38,16c4.01,1.6,10.36,6.6,11.37,9.09" class="stroke" stroke-dasharray="150"><animate attributeName="stroke-dashoffset" from="150" to="0" dur="1.8s" begin="0.0s" fill="freeze" /></path><path d="M15,42.25c4.06,1.54,10.48,6.35,11.5,8.75" class="stroke" stroke-dasharray="150"><set attributeName="opacity" to="0" dur="0.9s" /><animate attributeName="stroke-dashoffset" from="150" to="0" dur="1.8s" begin="0.9s" fill="freeze" /></path><path d="M13.25,88.73c1.71,1.27,3.78,1.32,4.86-0.25c3.14-4.57,7.29-13.66,10.14-19.49" class="stroke" stroke-dasharray="150"><set attributeName="opacity" to="0" dur="1.8s" /><animate attributeName="stroke-dashoffset" from="150" to="0" dur="1.8s" begin="1.8s" fill="freeze" /></path><path d="M46.17,15.84c1.94,0.21,2.86,0.57,4.64,0.43c10.84-0.85,21.45-2.52,28.96-3.27c2.5-0.25,3.8,1.56,3.42,3.69c-1.01,5.57-1.74,6.8-3.1,16.39" class="stroke" stroke-dasharray="150"><set attributeName="opacity" to="0" dur="2.8s" /><animate attributeName="stroke-dashoffset" from="150" to="0" dur="1.8s" begin="2.8s" fill="freeze" /></path><path d="M37.85,25.52c2.02,0.17,3.59,0.53,5.82,0.34c15.58-1.36,32.13-3.3,46.08-3.98c2.32-0.11,4.49-0.38,6.89,0.25" class="stroke" stroke-dasharray="150"><set attributeName="opacity" to="0" dur="4.199999999999999s" /><animate attributeName="stroke-dashoffset" from="150" to="0" dur="1.8s" begin="4.199999999999999s" fill="freeze" /></path><path d="M44.61,35c0.97,0.13,2.71,0.46,3.87,0.39c10.64-0.65,20.34-2.19,30.02-2.45c1.55-0.04,2.52,0,3.68,0.13" class="stroke" stroke-dasharray="150"><set attributeName="opacity" to="0" dur="5.6s" /><animate attributeName="stroke-dashoffset" from="150" to="0" dur="1.8s" begin="5.6s" fill="freeze" /></path><path d="M38.28,44.81c0.54,0.18,1.61,0.21,2.16,0.17c3.46-0.31,13.05-1.83,16.9-2.12c0.9-0.07,1.88-0.08,2.34,0" class="stroke" stroke-dasharray="150"><set attributeName="opacity" to="0" dur="6.6s" /><animate attributeName="stroke-dashoffset" from="150" to="0" dur="1.8s" begin="6.6s" fill="freeze" /></path><path d="M48.19,45c0.9,0.31,1.62,1.39,1.62,2.03c0,4.52,0.03,4.78,0.03,11.48" class="stroke" stroke-dasharray="150"><set attributeName="opacity" to="0" dur="7.6s" /><animate attributeName="stroke-dashoffset" from="150" to="0" dur="1.8s" begin="7.6s" fill="freeze" /></path><path d="M38.44,61.94c0.57,0.56,1.72,0.86,3.44,0.12c4.78-2.05,13.37-5.7,18.15-7.74" class="stroke" stroke-dasharray="150"><set attributeName="opacity" to="0" dur="8.5s" /><animate attributeName="stroke-dashoffset" from="150" to="0" dur="1.8s" begin="8.5s" fill="freeze" /></path><path d="M65.19,40.84c0.43,0.29,0.87,0.54,1.05,0.9c1.48,2.9,2.24,10.3,3.25,15.51" class="stroke" stroke-dasharray="150"><set attributeName="opacity" to="0" dur="9.5s" /><animate attributeName="stroke-dashoffset" from="150" to="0" dur="1.8s" begin="9.5s" fill="freeze" /></path><path d="M66.6,42.97c7.76-1.58,17.21-2.83,21.66-3.23c1.62-0.15,2.6,0.86,2.37,1.72c-0.96,3.54-2.09,7.33-3.52,12.23" class="stroke" stroke-dasharray="150"><set attributeName="opacity" to="0" dur="10.4s" /><animate attributeName="stroke-dashoffset" from="150" to="0" dur="1.8s" begin="10.4s" fill="freeze" /></path><path d="M69.69,55.09c5.22-0.37,12.87-1,20.04-1.56" class="stroke" stroke-dasharray="150"><set attributeName="opacity" to="0" dur="11.4s" /><animate attributeName="stroke-dashoffset" from="150" to="0" dur="1.8s" begin="11.4s" fill="freeze" /></path><path d="M34.63,71.48c1.84,0.78,5.2,0.88,7.08,0.78C64,71,69.64,68.94,92.17,67.76c3.07-0.16,4.92,0.37,6.46,0.76" class="stroke" stroke-dasharray="150"><set attributeName="opacity" to="0" dur="12.4s" /><animate attributeName="stroke-dashoffset" from="150" to="0" dur="1.8s" begin="12.4s" fill="freeze" /></path><path d="M77.85,60.32c0.07,0.42,1.01,2.2,1.01,4.89c0,18.07-0.2,23.18-0.2,27.57c0,10.66-6.69,1.58-8.45,0.22" class="stroke" stroke-dasharray="150"><set attributeName="opacity" to="0" dur="13.9s" /><animate attributeName="stroke-dashoffset" from="150" to="0" dur="1.8s" begin="13.9s" fill="freeze" /></path><path d="M51.12,77.62c2.45,1.89,6.33,7.76,6.95,10.7" class="stroke" stroke-dasharray="150"><set attributeName="opacity" to="0" dur="15.1s" /><animate attributeName="stroke-dashoffset" from="150" to="0" dur="1.8s" begin="15.1s" fill="freeze" /></path><text x="90" y="120" id="reset-kvg-06f6f">⟳</text><text x="70" y="120" id="pause-kvg-06f6f">◼</text><script type="text/javascript"><![CDATA[function RecurringTimer(e,t){var n,r,i=t;this.pause=function(){window.clearTimeout(n);i-=new Date-r};var s=function(){r=new Date;n=window.setTimeout(function(){i=t;s();e()},i)};this.clear=function(){window.clearTimeout(n);i=t;n=window.setTimeout(function(){i=t;s();e()},i)};this.resume=s;this.resume()}function invoketimer(){timer=new RecurringTimer(function(){svg.setCurrentTime(0)},17000.0)}var svg=document.getElementById("kvg-06f6f");var pause=document.getElementById("pause-kvg-06f6f");var reset=document.getElementById("reset-kvg-06f6f");var timer;invoketimer();reset.onclick=function(){svg.setCurrentTime(0);timer.clear();svg.unpauseAnimations();pause.innerHTML = "◼";};pause.onclick=function(){if(svg.animationsPaused()){svg.unpauseAnimations();timer.resume();pause.innerHTML="◼"}else{svg.pauseAnimations();timer.pause();pause.innerHTML="▶"}}]]></script></svg>