<svg id="kvg-06f7c" class="kanjivg" width="106" height="126" xmlns="http://www.w3.org/2000/svg" xmlns:xlink="http://www.w3.org/1999/xlink" xml:space="preserve" version="1.1" baseProfile="full"><defs><style type="text/css"><![CDATA[path.black{fill:none;stroke:black;stroke-width:5;stroke-linecap:round;stroke-linejoin:round;}path.grey{fill:none;stroke:#ddd;stroke-width:5;stroke-linecap:round;stroke-linejoin:round;}path.stroke{fill:none;stroke:black;stroke-width:5;stroke-linecap:round;stroke-linejoin:round;}rect{fill:none;stroke:#555;stroke-width:2;} text{font-size:16px;font-family:Segoe UI Symbol,Cambria Math,DejaVu Sans,Symbola,Quivira,STIX,Code2000;-webkit-touch-callout:none;cursor:pointer;-webkit-user-select:none;-khtml-user-select:none;-moz-user-select:none;-ms-user-select:none;user-select: none;}text:hover{color:#777;}#reset{font-weight:bold;}]]></style><marker id="markerStart" markerWidth="8" markerHeight="8" style="overflow:visible;"><circle cx="0" cy="0" r="1.5" style="stroke:none;fill:red;fill-opacity:0.5;"/></marker><marker id="markerEnd" style="overflow:visible;"><circle cx="0" cy="0" r="0.8" style="stroke:none;fill:blue;fill-opacity:0.5;"><animate attributeName="opacity" from="1" to="0" dur="3s" repeatCount="indefinite" /></circle></marker></defs><rect x="4" y="4" width="100" height="100" /><path d="M20.13,16.5c3.92,1.6,10.13,6.6,11.12,9.09" class="grey" /><path d="M14.5,41.5c4.41,1.68,11.4,6.89,12.5,9.5" class="grey" /><path d="M13.75,88.23c1.71,1.27,3.78,1.32,4.86-0.25c3.14-4.57,8.29-14.66,11.14-20.49" class="grey" /><path d="M63.52,10.75c0.9,0.75,1.35,0.75,1.35,2.5c0,1.75,0,4.74,0,9.49" class="grey" /><path d="M42.11,23.87c1.36,0.43,2.95,0.49,4.3,0.43c7.67-0.37,27.54-2.69,39.14-3c2.26-0.06,3.62,0.2,4.75,0.42" class="grey" /><path d="M51.1,27.7c2.8,3.01,4.07,5.66,4.33,7.64" class="grey" /><path d="M77.68,25.42c0.07,0.58-0.29,1.56-0.46,1.8c-1.72,2.53-3.98,6.58-5.07,8.06" class="grey" /><path d="M36.22,39.38c1.68,0.5,3.65,0.59,5.33,0.5c12.2-0.63,36.2-2.63,49.33-3.44c2.8-0.17,4.49,0.24,5.89,0.49" class="grey" /><path d="M44.7,47.6c0.3,0.37,0.81,1.63,0.97,2.09c1.35,3.84,3.07,15.04,3.91,22.2" class="grey" /><path d="M46.6,49.12c10.44-0.97,28.34-3.11,36.13-3.92c2.86-0.3,4.79,2.28,4.64,3.33c-0.54,3.87-2.54,12.63-4.55,20.85" class="grey" /><path d="M48.55,59.04c3.4-0.38,33.28-2.64,36.09-2.79" class="grey" /><path d="M49.66,69.88c7.52-0.41,23.28-2.18,33.66-2.85" class="grey" /><path d="M64.36,49.29c0.56,0.53,0.97,1.52,1,2.82c0.19,9.48,0.07,36.22,0.07,38.86" class="grey" /><path d="M44.83,80.36c1.13,0.53,3.2,0.58,4.34,0.53c11.77-0.6,21.87-2.58,36.44-2.69c1.89-0.02,3.02,0.25,3.96,0.51" class="grey" /><path d="M36.49,93.76c1.58,0.64,4.47,0.74,6.04,0.64c16.41-1.07,28.27-2.58,50.67-2.57c2.63,0,4.2,0.3,5.52,0.63" class="grey" /><path d="M20.13,16.5c3.92,1.6,10.13,6.6,11.12,9.09" class="stroke" stroke-dasharray="150"><animate attributeName="stroke-dashoffset" from="150" to="0" dur="1.8s" begin="0.0s" fill="freeze" /></path><path d="M14.5,41.5c4.41,1.68,11.4,6.89,12.5,9.5" class="stroke" stroke-dasharray="150"><set attributeName="opacity" to="0" dur="0.9s" /><animate attributeName="stroke-dashoffset" from="150" to="0" dur="1.8s" begin="0.9s" fill="freeze" /></path><path d="M13.75,88.23c1.71,1.27,3.78,1.32,4.86-0.25c3.14-4.57,8.29-14.66,11.14-20.49" class="stroke" stroke-dasharray="150"><set attributeName="opacity" to="0" dur="1.8s" /><animate attributeName="stroke-dashoffset" from="150" to="0" dur="1.8s" begin="1.8s" fill="freeze" /></path><path d="M63.52,10.75c0.9,0.75,1.35,0.75,1.35,2.5c0,1.75,0,4.74,0,9.49" class="stroke" stroke-dasharray="150"><set attributeName="opacity" to="0" dur="2.8s" /><animate attributeName="stroke-dashoffset" from="150" to="0" dur="1.8s" begin="2.8s" fill="freeze" /></path><path d="M42.11,23.87c1.36,0.43,2.95,0.49,4.3,0.43c7.67-0.37,27.54-2.69,39.14-3c2.26-0.06,3.62,0.2,4.75,0.42" class="stroke" stroke-dasharray="150"><set attributeName="opacity" to="0" dur="3.6999999999999997s" /><animate attributeName="stroke-dashoffset" from="150" to="0" dur="1.8s" begin="3.6999999999999997s" fill="freeze" /></path><path d="M51.1,27.7c2.8,3.01,4.07,5.66,4.33,7.64" class="stroke" stroke-dasharray="150"><set attributeName="opacity" to="0" dur="4.8999999999999995s" /><animate attributeName="stroke-dashoffset" from="150" to="0" dur="1.8s" begin="4.8999999999999995s" fill="freeze" /></path><path d="M77.68,25.42c0.07,0.58-0.29,1.56-0.46,1.8c-1.72,2.53-3.98,6.58-5.07,8.06" class="stroke" stroke-dasharray="150"><set attributeName="opacity" to="0" dur="5.8s" /><animate attributeName="stroke-dashoffset" from="150" to="0" dur="1.8s" begin="5.8s" fill="freeze" /></path><path d="M36.22,39.38c1.68,0.5,3.65,0.59,5.33,0.5c12.2-0.63,36.2-2.63,49.33-3.44c2.8-0.17,4.49,0.24,5.89,0.49" class="stroke" stroke-dasharray="150"><set attributeName="opacity" to="0" dur="6.7s" /><animate attributeName="stroke-dashoffset" from="150" to="0" dur="1.8s" begin="6.7s" fill="freeze" /></path><path d="M44.7,47.6c0.3,0.37,0.81,1.63,0.97,2.09c1.35,3.84,3.07,15.04,3.91,22.2" class="stroke" stroke-dasharray="150"><set attributeName="opacity" to="0" dur="8.2s" /><animate attributeName="stroke-dashoffset" from="150" to="0" dur="1.8s" begin="8.2s" fill="freeze" /></path><path d="M46.6,49.12c10.44-0.97,28.34-3.11,36.13-3.92c2.86-0.3,4.79,2.28,4.64,3.33c-0.54,3.87-2.54,12.63-4.55,20.85" class="stroke" stroke-dasharray="150"><set attributeName="opacity" to="0" dur="9.2s" /><animate attributeName="stroke-dashoffset" from="150" to="0" dur="1.8s" begin="9.2s" fill="freeze" /></path><path d="M48.55,59.04c3.4-0.38,33.28-2.64,36.09-2.79" class="stroke" stroke-dasharray="150"><set attributeName="opacity" to="0" dur="10.7s" /><animate attributeName="stroke-dashoffset" from="150" to="0" dur="1.8s" begin="10.7s" fill="freeze" /></path><path d="M49.66,69.88c7.52-0.41,23.28-2.18,33.66-2.85" class="stroke" stroke-dasharray="150"><set attributeName="opacity" to="0" dur="11.7s" /><animate attributeName="stroke-dashoffset" from="150" to="0" dur="1.8s" begin="11.7s" fill="freeze" /></path><path d="M64.36,49.29c0.56,0.53,0.97,1.52,1,2.82c0.19,9.48,0.07,36.22,0.07,38.86" class="stroke" stroke-dasharray="150"><set attributeName="opacity" to="0" dur="12.7s" /><animate attributeName="stroke-dashoffset" from="150" to="0" dur="1.8s" begin="12.7s" fill="freeze" /></path><path d="M44.83,80.36c1.13,0.53,3.2,0.58,4.34,0.53c11.77-0.6,21.87-2.58,36.44-2.69c1.89-0.02,3.02,0.25,3.96,0.51" class="stroke" stroke-dasharray="150"><set attributeName="opacity" to="0" dur="13.799999999999999s" /><animate attributeName="stroke-dashoffset" from="150" to="0" dur="1.8s" begin="13.799999999999999s" fill="freeze" /></path><path d="M36.49,93.76c1.58,0.64,4.47,0.74,6.04,0.64c16.41-1.07,28.27-2.58,50.67-2.57c2.63,0,4.2,0.3,5.52,0.63" class="stroke" stroke-dasharray="150"><set attributeName="opacity" to="0" dur="14.899999999999999s" /><animate attributeName="stroke-dashoffset" from="150" to="0" dur="1.8s" begin="14.899999999999999s" fill="freeze" /></path><text x="90" y="120" id="reset-kvg-06f7c">⟳</text><text x="70" y="120" id="pause-kvg-06f7c">◼</text><script type="text/javascript"><![CDATA[function RecurringTimer(e,t){var n,r,i=t;this.pause=function(){window.clearTimeout(n);i-=new Date-r};var s=function(){r=new Date;n=window.setTimeout(function(){i=t;s();e()},i)};this.clear=function(){window.clearTimeout(n);i=t;n=window.setTimeout(function(){i=t;s();e()},i)};this.resume=s;this.resume()}function invoketimer(){timer=new RecurringTimer(function(){svg.setCurrentTime(0)},17400.0)}var svg=document.getElementById("kvg-06f7c");var pause=document.getElementById("pause-kvg-06f7c");var reset=document.getElementById("reset-kvg-06f7c");var timer;invoketimer();reset.onclick=function(){svg.setCurrentTime(0);timer.clear();svg.unpauseAnimations();pause.innerHTML = "◼";};pause.onclick=function(){if(svg.animationsPaused()){svg.unpauseAnimations();timer.resume();pause.innerHTML="◼"}else{svg.pauseAnimations();timer.pause();pause.innerHTML="▶"}}]]></script></svg>