<svg id="kvg-06feb" class="kanjivg" width="106" height="126" xmlns="http://www.w3.org/2000/svg" xmlns:xlink="http://www.w3.org/1999/xlink" xml:space="preserve" version="1.1" baseProfile="full"><defs><style type="text/css"><![CDATA[path.black{fill:none;stroke:black;stroke-width:5;stroke-linecap:round;stroke-linejoin:round;}path.grey{fill:none;stroke:#ddd;stroke-width:5;stroke-linecap:round;stroke-linejoin:round;}path.stroke{fill:none;stroke:black;stroke-width:5;stroke-linecap:round;stroke-linejoin:round;}rect{fill:none;stroke:#555;stroke-width:2;} text{font-size:16px;font-family:Segoe UI Symbol,Cambria Math,DejaVu Sans,Symbola,Quivira,STIX,Code2000;-webkit-touch-callout:none;cursor:pointer;-webkit-user-select:none;-khtml-user-select:none;-moz-user-select:none;-ms-user-select:none;user-select: none;}text:hover{color:#777;}#reset{font-weight:bold;}]]></style><marker id="markerStart" markerWidth="8" markerHeight="8" style="overflow:visible;"><circle cx="0" cy="0" r="1.5" style="stroke:none;fill:red;fill-opacity:0.5;"/></marker><marker id="markerEnd" style="overflow:visible;"><circle cx="0" cy="0" r="0.8" style="stroke:none;fill:blue;fill-opacity:0.5;"><animate attributeName="opacity" from="1" to="0" dur="3s" repeatCount="indefinite" /></circle></marker></defs><rect x="4" y="4" width="100" height="100" /><path d="M17.88,14.75c3.48,1.52,9,6.23,9.87,8.59" class="grey" /><path d="M13.75,35.5c3.79,1.5,9.8,6.17,10.75,8.5" class="grey" /><path d="M12,86.48c1.62,0.39,2.62-0.12,3.61-1.75c3.39-5.61,6.04-10.66,8.89-16.49" class="grey" /><path d="M39.02,17.61c1.06,1.06,1.28,2.27,1.28,3.77c0,6.28-0.06,25.32-0.06,34.87c0,1.37,0.02,4.24,0,4.87" class="grey" /><path d="M40.88,18.26c5.62-0.63,14.58-1.85,21.09-2.13c0.99-0.04,1.58-0.1,2.07,0.06" class="grey" /><path d="M52.74,19.3c0.79,0.79,0.88,1.56,0.88,2.8c0,2.77-0.08,5.14-0.08,8.06" class="grey" /><path d="M41.55,32.83c6.08-0.8,12.68-1.81,17.33-2.44c2.92-0.4,3.87,0.31,3.32,3.26c-0.46,2.49-1.04,5.41-1.47,8.25" class="grey" /><path d="M41.58,45.03c2.23-0.28,12.72-1.75,18.46-2.33c1.49-0.15,2.62-0.26,3.16-0.3" class="grey" /><path d="M52.78,45.46c0.69,0.69,0.88,1.41,0.88,2.68c0,3.2,0.02,6.35-0.04,8.74" class="grey" /><path d="M41.6,59.2c5.77-0.58,12.26-1.44,18.77-2.06c1.34-0.13,3-0.27,4.45-0.15" class="grey" /><path d="M77.6,17.25c0.02,0.6,0.17,1.61-0.05,2.41c-1.63,5.88-4.59,14.46-8.8,22.59" class="grey" /><path d="M76.55,33.39c1.45,0.11,2.84,0.04,3.49-0.08c5.45-0.95,8.53-1.5,12.34-2.12c1.06-0.17,2.74-0.32,3.98-0.18" class="grey" /><path d="M72.6,49.66c1.65,0.09,2.87,0.14,3.88,0.04c7.14-0.7,12.84-1.4,14.37-1.61s2.91-0.36,4.04-0.03" class="grey" /><path d="M39.87,70.62c0.6,0.58,1.34,1.37,1.5,2.46c0.88,5.93,1.36,9.27,2.08,16.45" class="grey" /><path d="M41.86,72.06c10.1-1.58,30.27-3.69,40.27-4.23c4.04-0.22,5.89,0.42,5.02,5.05c-0.69,3.67-1.39,6.75-2.62,14.2" class="grey" /><path d="M54.19,72.74c0.25,0.38,0.54,0.68,0.61,1.16c0.7,4.85,1.04,7.92,1.65,14.7" class="grey" /><path d="M69.53,70.27c0.46,0.44,0.89,1.21,0.82,1.8c-0.73,5.87-1.03,8.43-1.92,15.95" class="grey" /><path d="M28.5,90.79c3.25,1.13,6.74,0.92,10.11,0.61c13.89-1.27,30.43-2.72,49.01-3.49c3.54-0.15,7.53,0.16,10.98,0.84" class="grey" /><path d="M17.88,14.75c3.48,1.52,9,6.23,9.87,8.59" class="stroke" stroke-dasharray="150"><animate attributeName="stroke-dashoffset" from="150" to="0" dur="1.8s" begin="0.0s" fill="freeze" /></path><path d="M13.75,35.5c3.79,1.5,9.8,6.17,10.75,8.5" class="stroke" stroke-dasharray="150"><set attributeName="opacity" to="0" dur="0.9s" /><animate attributeName="stroke-dashoffset" from="150" to="0" dur="1.8s" begin="0.9s" fill="freeze" /></path><path d="M12,86.48c1.62,0.39,2.62-0.12,3.61-1.75c3.39-5.61,6.04-10.66,8.89-16.49" class="stroke" stroke-dasharray="150"><set attributeName="opacity" to="0" dur="1.8s" /><animate attributeName="stroke-dashoffset" from="150" to="0" dur="1.8s" begin="1.8s" fill="freeze" /></path><path d="M39.02,17.61c1.06,1.06,1.28,2.27,1.28,3.77c0,6.28-0.06,25.32-0.06,34.87c0,1.37,0.02,4.24,0,4.87" class="stroke" stroke-dasharray="150"><set attributeName="opacity" to="0" dur="2.8s" /><animate attributeName="stroke-dashoffset" from="150" to="0" dur="1.8s" begin="2.8s" fill="freeze" /></path><path d="M40.88,18.26c5.62-0.63,14.58-1.85,21.09-2.13c0.99-0.04,1.58-0.1,2.07,0.06" class="stroke" stroke-dasharray="150"><set attributeName="opacity" to="0" dur="3.9s" /><animate attributeName="stroke-dashoffset" from="150" to="0" dur="1.8s" begin="3.9s" fill="freeze" /></path><path d="M52.74,19.3c0.79,0.79,0.88,1.56,0.88,2.8c0,2.77-0.08,5.14-0.08,8.06" class="stroke" stroke-dasharray="150"><set attributeName="opacity" to="0" dur="4.9s" /><animate attributeName="stroke-dashoffset" from="150" to="0" dur="1.8s" begin="4.9s" fill="freeze" /></path><path d="M41.55,32.83c6.08-0.8,12.68-1.81,17.33-2.44c2.92-0.4,3.87,0.31,3.32,3.26c-0.46,2.49-1.04,5.41-1.47,8.25" class="stroke" stroke-dasharray="150"><set attributeName="opacity" to="0" dur="5.800000000000001s" /><animate attributeName="stroke-dashoffset" from="150" to="0" dur="1.8s" begin="5.800000000000001s" fill="freeze" /></path><path d="M41.58,45.03c2.23-0.28,12.72-1.75,18.46-2.33c1.49-0.15,2.62-0.26,3.16-0.3" class="stroke" stroke-dasharray="150"><set attributeName="opacity" to="0" dur="6.800000000000001s" /><animate attributeName="stroke-dashoffset" from="150" to="0" dur="1.8s" begin="6.800000000000001s" fill="freeze" /></path><path d="M52.78,45.46c0.69,0.69,0.88,1.41,0.88,2.68c0,3.2,0.02,6.35-0.04,8.74" class="stroke" stroke-dasharray="150"><set attributeName="opacity" to="0" dur="7.800000000000001s" /><animate attributeName="stroke-dashoffset" from="150" to="0" dur="1.8s" begin="7.800000000000001s" fill="freeze" /></path><path d="M41.6,59.2c5.77-0.58,12.26-1.44,18.77-2.06c1.34-0.13,3-0.27,4.45-0.15" class="stroke" stroke-dasharray="150"><set attributeName="opacity" to="0" dur="8.700000000000001s" /><animate attributeName="stroke-dashoffset" from="150" to="0" dur="1.8s" begin="8.700000000000001s" fill="freeze" /></path><path d="M77.6,17.25c0.02,0.6,0.17,1.61-0.05,2.41c-1.63,5.88-4.59,14.46-8.8,22.59" class="stroke" stroke-dasharray="150"><set attributeName="opacity" to="0" dur="9.700000000000001s" /><animate attributeName="stroke-dashoffset" from="150" to="0" dur="1.8s" begin="9.700000000000001s" fill="freeze" /></path><path d="M76.55,33.39c1.45,0.11,2.84,0.04,3.49-0.08c5.45-0.95,8.53-1.5,12.34-2.12c1.06-0.17,2.74-0.32,3.98-0.18" class="stroke" stroke-dasharray="150"><set attributeName="opacity" to="0" dur="10.700000000000001s" /><animate attributeName="stroke-dashoffset" from="150" to="0" dur="1.8s" begin="10.700000000000001s" fill="freeze" /></path><path d="M72.6,49.66c1.65,0.09,2.87,0.14,3.88,0.04c7.14-0.7,12.84-1.4,14.37-1.61s2.91-0.36,4.04-0.03" class="stroke" stroke-dasharray="150"><set attributeName="opacity" to="0" dur="11.700000000000001s" /><animate attributeName="stroke-dashoffset" from="150" to="0" dur="1.8s" begin="11.700000000000001s" fill="freeze" /></path><path d="M39.87,70.62c0.6,0.58,1.34,1.37,1.5,2.46c0.88,5.93,1.36,9.27,2.08,16.45" class="stroke" stroke-dasharray="150"><set attributeName="opacity" to="0" dur="12.700000000000001s" /><animate attributeName="stroke-dashoffset" from="150" to="0" dur="1.8s" begin="12.700000000000001s" fill="freeze" /></path><path d="M41.86,72.06c10.1-1.58,30.27-3.69,40.27-4.23c4.04-0.22,5.89,0.42,5.02,5.05c-0.69,3.67-1.39,6.75-2.62,14.2" class="stroke" stroke-dasharray="150"><set attributeName="opacity" to="0" dur="13.600000000000001s" /><animate attributeName="stroke-dashoffset" from="150" to="0" dur="1.8s" begin="13.600000000000001s" fill="freeze" /></path><path d="M54.19,72.74c0.25,0.38,0.54,0.68,0.61,1.16c0.7,4.85,1.04,7.92,1.65,14.7" class="stroke" stroke-dasharray="150"><set attributeName="opacity" to="0" dur="15.100000000000001s" /><animate attributeName="stroke-dashoffset" from="150" to="0" dur="1.8s" begin="15.100000000000001s" fill="freeze" /></path><path d="M69.53,70.27c0.46,0.44,0.89,1.21,0.82,1.8c-0.73,5.87-1.03,8.43-1.92,15.95" class="stroke" stroke-dasharray="150"><set attributeName="opacity" to="0" dur="16.0s" /><animate attributeName="stroke-dashoffset" from="150" to="0" dur="1.8s" begin="16.0s" fill="freeze" /></path><path d="M28.5,90.79c3.25,1.13,6.74,0.92,10.11,0.61c13.89-1.27,30.43-2.72,49.01-3.49c3.54-0.15,7.53,0.16,10.98,0.84" class="stroke" stroke-dasharray="150"><set attributeName="opacity" to="0" dur="16.9s" /><animate attributeName="stroke-dashoffset" from="150" to="0" dur="1.8s" begin="16.9s" fill="freeze" /></path><text x="90" y="120" id="reset-kvg-06feb">⟳</text><text x="70" y="120" id="pause-kvg-06feb">◼</text><script type="text/javascript"><![CDATA[function RecurringTimer(e,t){var n,r,i=t;this.pause=function(){window.clearTimeout(n);i-=new Date-r};var s=function(){r=new Date;n=window.setTimeout(function(){i=t;s();e()},i)};this.clear=function(){window.clearTimeout(n);i=t;n=window.setTimeout(function(){i=t;s();e()},i)};this.resume=s;this.resume()}function invoketimer(){timer=new RecurringTimer(function(){svg.setCurrentTime(0)},19599.999999999996)}var svg=document.getElementById("kvg-06feb");var pause=document.getElementById("pause-kvg-06feb");var reset=document.getElementById("reset-kvg-06feb");var timer;invoketimer();reset.onclick=function(){svg.setCurrentTime(0);timer.clear();svg.unpauseAnimations();pause.innerHTML = "◼";};pause.onclick=function(){if(svg.animationsPaused()){svg.unpauseAnimations();timer.resume();pause.innerHTML="◼"}else{svg.pauseAnimations();timer.pause();pause.innerHTML="▶"}}]]></script></svg>