<svg id="kvg-0701d" class="kanjivg" width="106" height="126" xmlns="http://www.w3.org/2000/svg" xmlns:xlink="http://www.w3.org/1999/xlink" xml:space="preserve" version="1.1" baseProfile="full"><defs><style type="text/css"><![CDATA[path.black{fill:none;stroke:black;stroke-width:5;stroke-linecap:round;stroke-linejoin:round;}path.grey{fill:none;stroke:#ddd;stroke-width:5;stroke-linecap:round;stroke-linejoin:round;}path.stroke{fill:none;stroke:black;stroke-width:5;stroke-linecap:round;stroke-linejoin:round;}rect{fill:none;stroke:#555;stroke-width:2;} text{font-size:16px;font-family:Segoe UI Symbol,Cambria Math,DejaVu Sans,Symbola,Quivira,STIX,Code2000;-webkit-touch-callout:none;cursor:pointer;-webkit-user-select:none;-khtml-user-select:none;-moz-user-select:none;-ms-user-select:none;user-select: none;}text:hover{color:#777;}#reset{font-weight:bold;}]]></style><marker id="markerStart" markerWidth="8" markerHeight="8" style="overflow:visible;"><circle cx="0" cy="0" r="1.5" style="stroke:none;fill:red;fill-opacity:0.5;"/></marker><marker id="markerEnd" style="overflow:visible;"><circle cx="0" cy="0" r="0.8" style="stroke:none;fill:blue;fill-opacity:0.5;"><animate attributeName="opacity" from="1" to="0" dur="3s" repeatCount="indefinite" /></circle></marker></defs><rect x="4" y="4" width="100" height="100" /><path d="M14.63,17c4.63,1.6,11.96,6.6,13.12,9.09" class="grey" /><path d="M12.25,40.75c4.68,1.72,12.08,7.07,13.25,9.75" class="grey" /><path d="M11.75,86.23c1.71,1.27,3.78,1.32,4.86-0.25c3.14-4.57,8.29-15.16,11.14-20.99" class="grey" /><path d="M37.3,19.16c1.51,0.68,4.29,0.75,5.81,0.68c17.56-0.79,23.44-2.77,43.21-3.04c2.52-0.03,4.04,0.32,5.3,0.66" class="grey" /><path d="M42.03,20.25c0.05,1.64-0.01,2.22-0.09,4.57C41,51.5,37.5,73,26.31,89.22" class="grey" /><path d="M62.74,24c0.04,0.2,0.09,0.51-0.08,0.79c-1.01,1.66-6.78,5.31-14.68,7.55" class="grey" /><path d="M46.06,39.15c0.31,0.15,1.55,0.47,2.38,0.45c5.32-0.1,8.82-1.1,15.19-1.82c0.82-0.09,1.86,0.18,2.38,0.33" class="grey" /><path d="M56.41,32.52c0.27,0.22,0.43,0.99,0.49,1.44c0.05,0.44,0,22.78-0.05,25.54" class="grey" /><path d="M56.12,39.3c-2.42,5.87-6.25,11.78-12.02,15.08" class="grey" /><path d="M58.01,43.19c2.75,1.22,5.91,3.51,7.17,6.23" class="grey" /><path d="M88.53,22.5c0.04,0.17,0.09,0.45-0.08,0.7c-1.02,1.47-6.84,4.69-14.81,6.65" class="grey" /><path d="M70.18,37.73c0.33,0.09,1.67,0.33,2.55,0.27c3.99-0.27,13.42-1.53,20.18-1.78c0.89-0.03,2,0.11,2.55,0.19" class="grey" /><path d="M81.08,30.14c0.27,0.19,0.43,0.84,0.48,1.21c0.05,0.37,0,26.45-0.05,28.78" class="grey" /><path d="M80.82,37.99C78.75,43.75,73.25,50.25,66,53.57" class="grey" /><path d="M81.39,38.41c2.11,3.34,8.11,11.09,11.75,13.64c0.77,0.54,1.21,0.97,1.86,1.16" class="grey" /><path d="M66.32,60.75c0.83,0.47,1.33,2.1,1.5,3.04c0.17,0.93,0.45,20.62,0.28,26.46" class="grey" /><path d="M68.17,74.72c5.98-0.42,12.15-1.4,18.44-1.69c1.46-0.07,1.83-0.14,2.75,0" class="grey" /><path d="M51.43,69.01c0.8,0.45,1.28,2.02,1.44,2.91c0.16,0.9,0.33,13.8,0.18,19.41" class="grey" /><path d="M37.41,91.61c0.74,0.21,2.73,0.69,4.71,0.64C53.01,92,74.04,90,89.77,89.97c1.99,0,5.43,0.43,6.56,0.64" class="grey" /><path d="M14.63,17c4.63,1.6,11.96,6.6,13.12,9.09" class="stroke" stroke-dasharray="150"><animate attributeName="stroke-dashoffset" from="150" to="0" dur="1.8s" begin="0.0s" fill="freeze" /></path><path d="M12.25,40.75c4.68,1.72,12.08,7.07,13.25,9.75" class="stroke" stroke-dasharray="150"><set attributeName="opacity" to="0" dur="0.9s" /><animate attributeName="stroke-dashoffset" from="150" to="0" dur="1.8s" begin="0.9s" fill="freeze" /></path><path d="M11.75,86.23c1.71,1.27,3.78,1.32,4.86-0.25c3.14-4.57,8.29-15.16,11.14-20.99" class="stroke" stroke-dasharray="150"><set attributeName="opacity" to="0" dur="1.8s" /><animate attributeName="stroke-dashoffset" from="150" to="0" dur="1.8s" begin="1.8s" fill="freeze" /></path><path d="M37.3,19.16c1.51,0.68,4.29,0.75,5.81,0.68c17.56-0.79,23.44-2.77,43.21-3.04c2.52-0.03,4.04,0.32,5.3,0.66" class="stroke" stroke-dasharray="150"><set attributeName="opacity" to="0" dur="2.8s" /><animate attributeName="stroke-dashoffset" from="150" to="0" dur="1.8s" begin="2.8s" fill="freeze" /></path><path d="M42.03,20.25c0.05,1.64-0.01,2.22-0.09,4.57C41,51.5,37.5,73,26.31,89.22" class="stroke" stroke-dasharray="150"><set attributeName="opacity" to="0" dur="4.1s" /><animate attributeName="stroke-dashoffset" from="150" to="0" dur="1.8s" begin="4.1s" fill="freeze" /></path><path d="M62.74,24c0.04,0.2,0.09,0.51-0.08,0.79c-1.01,1.66-6.78,5.31-14.68,7.55" class="stroke" stroke-dasharray="150"><set attributeName="opacity" to="0" dur="5.8s" /><animate attributeName="stroke-dashoffset" from="150" to="0" dur="1.8s" begin="5.8s" fill="freeze" /></path><path d="M46.06,39.15c0.31,0.15,1.55,0.47,2.38,0.45c5.32-0.1,8.82-1.1,15.19-1.82c0.82-0.09,1.86,0.18,2.38,0.33" class="stroke" stroke-dasharray="150"><set attributeName="opacity" to="0" dur="6.7s" /><animate attributeName="stroke-dashoffset" from="150" to="0" dur="1.8s" begin="6.7s" fill="freeze" /></path><path d="M56.41,32.52c0.27,0.22,0.43,0.99,0.49,1.44c0.05,0.44,0,22.78-0.05,25.54" class="stroke" stroke-dasharray="150"><set attributeName="opacity" to="0" dur="7.7s" /><animate attributeName="stroke-dashoffset" from="150" to="0" dur="1.8s" begin="7.7s" fill="freeze" /></path><path d="M56.12,39.3c-2.42,5.87-6.25,11.78-12.02,15.08" class="stroke" stroke-dasharray="150"><set attributeName="opacity" to="0" dur="8.7s" /><animate attributeName="stroke-dashoffset" from="150" to="0" dur="1.8s" begin="8.7s" fill="freeze" /></path><path d="M58.01,43.19c2.75,1.22,5.91,3.51,7.17,6.23" class="stroke" stroke-dasharray="150"><set attributeName="opacity" to="0" dur="9.6s" /><animate attributeName="stroke-dashoffset" from="150" to="0" dur="1.8s" begin="9.6s" fill="freeze" /></path><path d="M88.53,22.5c0.04,0.17,0.09,0.45-0.08,0.7c-1.02,1.47-6.84,4.69-14.81,6.65" class="stroke" stroke-dasharray="150"><set attributeName="opacity" to="0" dur="10.5s" /><animate attributeName="stroke-dashoffset" from="150" to="0" dur="1.8s" begin="10.5s" fill="freeze" /></path><path d="M70.18,37.73c0.33,0.09,1.67,0.33,2.55,0.27c3.99-0.27,13.42-1.53,20.18-1.78c0.89-0.03,2,0.11,2.55,0.19" class="stroke" stroke-dasharray="150"><set attributeName="opacity" to="0" dur="11.4s" /><animate attributeName="stroke-dashoffset" from="150" to="0" dur="1.8s" begin="11.4s" fill="freeze" /></path><path d="M81.08,30.14c0.27,0.19,0.43,0.84,0.48,1.21c0.05,0.37,0,26.45-0.05,28.78" class="stroke" stroke-dasharray="150"><set attributeName="opacity" to="0" dur="12.4s" /><animate attributeName="stroke-dashoffset" from="150" to="0" dur="1.8s" begin="12.4s" fill="freeze" /></path><path d="M80.82,37.99C78.75,43.75,73.25,50.25,66,53.57" class="stroke" stroke-dasharray="150"><set attributeName="opacity" to="0" dur="13.4s" /><animate attributeName="stroke-dashoffset" from="150" to="0" dur="1.8s" begin="13.4s" fill="freeze" /></path><path d="M81.39,38.41c2.11,3.34,8.11,11.09,11.75,13.64c0.77,0.54,1.21,0.97,1.86,1.16" class="stroke" stroke-dasharray="150"><set attributeName="opacity" to="0" dur="14.4s" /><animate attributeName="stroke-dashoffset" from="150" to="0" dur="1.8s" begin="14.4s" fill="freeze" /></path><path d="M66.32,60.75c0.83,0.47,1.33,2.1,1.5,3.04c0.17,0.93,0.45,20.62,0.28,26.46" class="stroke" stroke-dasharray="150"><set attributeName="opacity" to="0" dur="15.4s" /><animate attributeName="stroke-dashoffset" from="150" to="0" dur="1.8s" begin="15.4s" fill="freeze" /></path><path d="M68.17,74.72c5.98-0.42,12.15-1.4,18.44-1.69c1.46-0.07,1.83-0.14,2.75,0" class="stroke" stroke-dasharray="150"><set attributeName="opacity" to="0" dur="16.4s" /><animate attributeName="stroke-dashoffset" from="150" to="0" dur="1.8s" begin="16.4s" fill="freeze" /></path><path d="M51.43,69.01c0.8,0.45,1.28,2.02,1.44,2.91c0.16,0.9,0.33,13.8,0.18,19.41" class="stroke" stroke-dasharray="150"><set attributeName="opacity" to="0" dur="17.4s" /><animate attributeName="stroke-dashoffset" from="150" to="0" dur="1.8s" begin="17.4s" fill="freeze" /></path><path d="M37.41,91.61c0.74,0.21,2.73,0.69,4.71,0.64C53.01,92,74.04,90,89.77,89.97c1.99,0,5.43,0.43,6.56,0.64" class="stroke" stroke-dasharray="150"><set attributeName="opacity" to="0" dur="18.4s" /><animate attributeName="stroke-dashoffset" from="150" to="0" dur="1.8s" begin="18.4s" fill="freeze" /></path><text x="90" y="120" id="reset-kvg-0701d">⟳</text><text x="70" y="120" id="pause-kvg-0701d">◼</text><script type="text/javascript"><![CDATA[function RecurringTimer(e,t){var n,r,i=t;this.pause=function(){window.clearTimeout(n);i-=new Date-r};var s=function(){r=new Date;n=window.setTimeout(function(){i=t;s();e()},i)};this.clear=function(){window.clearTimeout(n);i=t;n=window.setTimeout(function(){i=t;s();e()},i)};this.resume=s;this.resume()}function invoketimer(){timer=new RecurringTimer(function(){svg.setCurrentTime(0)},20799.999999999996)}var svg=document.getElementById("kvg-0701d");var pause=document.getElementById("pause-kvg-0701d");var reset=document.getElementById("reset-kvg-0701d");var timer;invoketimer();reset.onclick=function(){svg.setCurrentTime(0);timer.clear();svg.unpauseAnimations();pause.innerHTML = "◼";};pause.onclick=function(){if(svg.animationsPaused()){svg.unpauseAnimations();timer.resume();pause.innerHTML="◼"}else{svg.pauseAnimations();timer.pause();pause.innerHTML="▶"}}]]></script></svg>