<svg id="kvg-07092" class="kanjivg" width="106" height="126" xmlns="http://www.w3.org/2000/svg" xmlns:xlink="http://www.w3.org/1999/xlink" xml:space="preserve" version="1.1" baseProfile="full"><defs><style type="text/css"><![CDATA[path.black{fill:none;stroke:black;stroke-width:5;stroke-linecap:round;stroke-linejoin:round;}path.grey{fill:none;stroke:#ddd;stroke-width:5;stroke-linecap:round;stroke-linejoin:round;}path.stroke{fill:none;stroke:black;stroke-width:5;stroke-linecap:round;stroke-linejoin:round;}rect{fill:none;stroke:#555;stroke-width:2;} text{font-size:16px;font-family:Segoe UI Symbol,Cambria Math,DejaVu Sans,Symbola,Quivira,STIX,Code2000;-webkit-touch-callout:none;cursor:pointer;-webkit-user-select:none;-khtml-user-select:none;-moz-user-select:none;-ms-user-select:none;user-select: none;}text:hover{color:#777;}#reset{font-weight:bold;}]]></style><marker id="markerStart" markerWidth="8" markerHeight="8" style="overflow:visible;"><circle cx="0" cy="0" r="1.5" style="stroke:none;fill:red;fill-opacity:0.5;"/></marker><marker id="markerEnd" style="overflow:visible;"><circle cx="0" cy="0" r="0.8" style="stroke:none;fill:blue;fill-opacity:0.5;"><animate attributeName="opacity" from="1" to="0" dur="3s" repeatCount="indefinite" /></circle></marker></defs><rect x="4" y="4" width="100" height="100" /><path d="M11.74,37.75c2.88,3.72,7.06,14.28,7.84,18" class="grey" /><path d="M41.11,30.25c0.68,0.83,0.99,1.92,0.37,3.2c-0.61,1.28-6.93,11.31-10.01,14.3" class="grey" /><path d="M26.75,14.25c0.76,0.79,1.52,1.83,1.53,3.14C28.5,71.38,24.5,82.12,12,95.75" class="grey" /><path d="M29.75,67c4.75,3.09,10.75,12.87,12,17.25" class="grey" /><path d="M67.6,11.75c0.07,0.36,1.57,1.87,1.64,4.15c0.35,10.95-0.22,38.9-0.22,42.63c0,9.52-6.2,0.57-7.49-0.37" class="grey" /><path d="M56.95,30.19c0.04,0.49,0.14,1.29-0.07,1.96c-1.52,4.88-6.98,13.75-12.2,18.25" class="grey" /><path d="M82.43,27.98C88.05,31.61,95.59,40.94,97,46.59" class="grey" /><path d="M86.78,47.22c0.13,1.17,0.51,3.1-0.28,4.68C79.5,66,61,86,37.72,96.25" class="grey" /><path d="M11.74,37.75c2.88,3.72,7.06,14.28,7.84,18" class="stroke" stroke-dasharray="150"><animate attributeName="stroke-dashoffset" from="150" to="0" dur="1.8s" begin="0.0s" fill="freeze" /></path><path d="M41.11,30.25c0.68,0.83,0.99,1.92,0.37,3.2c-0.61,1.28-6.93,11.31-10.01,14.3" class="stroke" stroke-dasharray="150"><set attributeName="opacity" to="0" dur="0.9s" /><animate attributeName="stroke-dashoffset" from="150" to="0" dur="1.8s" begin="0.9s" fill="freeze" /></path><path d="M26.75,14.25c0.76,0.79,1.52,1.83,1.53,3.14C28.5,71.38,24.5,82.12,12,95.75" class="stroke" stroke-dasharray="150"><set attributeName="opacity" to="0" dur="1.9s" /><animate attributeName="stroke-dashoffset" from="150" to="0" dur="1.8s" begin="1.9s" fill="freeze" /></path><path d="M29.75,67c4.75,3.09,10.75,12.87,12,17.25" class="stroke" stroke-dasharray="150"><set attributeName="opacity" to="0" dur="3.5999999999999996s" /><animate attributeName="stroke-dashoffset" from="150" to="0" dur="1.8s" begin="3.5999999999999996s" fill="freeze" /></path><path d="M67.6,11.75c0.07,0.36,1.57,1.87,1.64,4.15c0.35,10.95-0.22,38.9-0.22,42.63c0,9.52-6.2,0.57-7.49-0.37" class="stroke" stroke-dasharray="150"><set attributeName="opacity" to="0" dur="4.6s" /><animate attributeName="stroke-dashoffset" from="150" to="0" dur="1.8s" begin="4.6s" fill="freeze" /></path><path d="M56.95,30.19c0.04,0.49,0.14,1.29-0.07,1.96c-1.52,4.88-6.98,13.75-12.2,18.25" class="stroke" stroke-dasharray="150"><set attributeName="opacity" to="0" dur="6.0s" /><animate attributeName="stroke-dashoffset" from="150" to="0" dur="1.8s" begin="6.0s" fill="freeze" /></path><path d="M82.43,27.98C88.05,31.61,95.59,40.94,97,46.59" class="stroke" stroke-dasharray="150"><set attributeName="opacity" to="0" dur="7.0s" /><animate attributeName="stroke-dashoffset" from="150" to="0" dur="1.8s" begin="7.0s" fill="freeze" /></path><path d="M86.78,47.22c0.13,1.17,0.51,3.1-0.28,4.68C79.5,66,61,86,37.72,96.25" class="stroke" stroke-dasharray="150"><set attributeName="opacity" to="0" dur="8.0s" /><animate attributeName="stroke-dashoffset" from="150" to="0" dur="1.8s" begin="8.0s" fill="freeze" /></path><text x="90" y="120" id="reset-kvg-07092">⟳</text><text x="70" y="120" id="pause-kvg-07092">◼</text><script type="text/javascript"><![CDATA[function RecurringTimer(e,t){var n,r,i=t;this.pause=function(){window.clearTimeout(n);i-=new Date-r};var s=function(){r=new Date;n=window.setTimeout(function(){i=t;s();e()},i)};this.clear=function(){window.clearTimeout(n);i=t;n=window.setTimeout(function(){i=t;s();e()},i)};this.resume=s;this.resume()}function invoketimer(){timer=new RecurringTimer(function(){svg.setCurrentTime(0)},10700.0)}var svg=document.getElementById("kvg-07092");var pause=document.getElementById("pause-kvg-07092");var reset=document.getElementById("reset-kvg-07092");var timer;invoketimer();reset.onclick=function(){svg.setCurrentTime(0);timer.clear();svg.unpauseAnimations();pause.innerHTML = "◼";};pause.onclick=function(){if(svg.animationsPaused()){svg.unpauseAnimations();timer.resume();pause.innerHTML="◼"}else{svg.pauseAnimations();timer.pause();pause.innerHTML="▶"}}]]></script></svg>