<svg id="kvg-070f9" class="kanjivg" width="106" height="126" xmlns="http://www.w3.org/2000/svg" xmlns:xlink="http://www.w3.org/1999/xlink" xml:space="preserve" version="1.1" baseProfile="full"><defs><style type="text/css"><![CDATA[path.black{fill:none;stroke:black;stroke-width:5;stroke-linecap:round;stroke-linejoin:round;}path.grey{fill:none;stroke:#ddd;stroke-width:5;stroke-linecap:round;stroke-linejoin:round;}path.stroke{fill:none;stroke:black;stroke-width:5;stroke-linecap:round;stroke-linejoin:round;}rect{fill:none;stroke:#555;stroke-width:2;} text{font-size:16px;font-family:Segoe UI Symbol,Cambria Math,DejaVu Sans,Symbola,Quivira,STIX,Code2000;-webkit-touch-callout:none;cursor:pointer;-webkit-user-select:none;-khtml-user-select:none;-moz-user-select:none;-ms-user-select:none;user-select: none;}text:hover{color:#777;}#reset{font-weight:bold;}]]></style><marker id="markerStart" markerWidth="8" markerHeight="8" style="overflow:visible;"><circle cx="0" cy="0" r="1.5" style="stroke:none;fill:red;fill-opacity:0.5;"/></marker><marker id="markerEnd" style="overflow:visible;"><circle cx="0" cy="0" r="0.8" style="stroke:none;fill:blue;fill-opacity:0.5;"><animate attributeName="opacity" from="1" to="0" dur="3s" repeatCount="indefinite" /></circle></marker></defs><rect x="4" y="4" width="100" height="100" /><path d="M51.98,8.5c0.85,0.43,2.25,2.11,2.25,2.97c0,3.18-0.27,6.8-0.11,9.49" class="grey" /><path d="M17.5,22.86c2,0.37,3.76,0.71,6.06,0.52c13.94-1.13,44.19-3.17,60.14-3.92c2.35-0.11,3.55,0.04,5.3,0.66" class="grey" /><path d="M31.89,30.73c0.37,0.24,0.74,0.44,0.91,0.75c1.28,2.41,2.8,9.48,3.68,13.8" class="grey" /><path d="M33.68,32.06c9.01-1.01,33.9-3.34,38.55-3.68c1.7-0.12,2.72,1.25,2.48,1.99c-1.01,3.03-2.16,5.22-4.31,9.59" class="grey" /><path d="M36.84,43.26c5.46-0.38,28.33-2.54,35.25-2.93" class="grey" /><path d="M25.53,52.75c1.3,0.31,3.76,0.79,5.72,0.52c2.39-0.33,37.93-4.79,40.21-4.79c2.28,0,4.19,2.15,1.59,3.57c-4.56,2.5-14.46,8.09-19.9,11.88" class="grey" /><path d="M50.23,60.85c6.02,4.9,8.26,14.82,4.56,23.97C52.5,90.5,49,86,47.18,83.29" class="grey" /><path d="M24,87c0,5.25-5.16,13-6.5,14.5" class="grey" /><path d="M39.52,88.83c2.93,2.15,5.7,8.05,6.44,11.38" class="grey" /><path d="M62.87,88.08c2.8,1.92,7.23,7.9,7.93,10.88" class="grey" /><path d="M82.77,87.08c3.46,2.27,8.93,9.35,9.79,12.88" class="grey" /><path d="M51.98,8.5c0.85,0.43,2.25,2.11,2.25,2.97c0,3.18-0.27,6.8-0.11,9.49" class="stroke" stroke-dasharray="150"><animate attributeName="stroke-dashoffset" from="150" to="0" dur="1.8s" begin="0.0s" fill="freeze" /></path><path d="M17.5,22.86c2,0.37,3.76,0.71,6.06,0.52c13.94-1.13,44.19-3.17,60.14-3.92c2.35-0.11,3.55,0.04,5.3,0.66" class="stroke" stroke-dasharray="150"><set attributeName="opacity" to="0" dur="0.9s" /><animate attributeName="stroke-dashoffset" from="150" to="0" dur="1.8s" begin="0.9s" fill="freeze" /></path><path d="M31.89,30.73c0.37,0.24,0.74,0.44,0.91,0.75c1.28,2.41,2.8,9.48,3.68,13.8" class="stroke" stroke-dasharray="150"><set attributeName="opacity" to="0" dur="2.6s" /><animate attributeName="stroke-dashoffset" from="150" to="0" dur="1.8s" begin="2.6s" fill="freeze" /></path><path d="M33.68,32.06c9.01-1.01,33.9-3.34,38.55-3.68c1.7-0.12,2.72,1.25,2.48,1.99c-1.01,3.03-2.16,5.22-4.31,9.59" class="stroke" stroke-dasharray="150"><set attributeName="opacity" to="0" dur="3.5s" /><animate attributeName="stroke-dashoffset" from="150" to="0" dur="1.8s" begin="3.5s" fill="freeze" /></path><path d="M36.84,43.26c5.46-0.38,28.33-2.54,35.25-2.93" class="stroke" stroke-dasharray="150"><set attributeName="opacity" to="0" dur="4.8s" /><animate attributeName="stroke-dashoffset" from="150" to="0" dur="1.8s" begin="4.8s" fill="freeze" /></path><path d="M25.53,52.75c1.3,0.31,3.76,0.79,5.72,0.52c2.39-0.33,37.93-4.79,40.21-4.79c2.28,0,4.19,2.15,1.59,3.57c-4.56,2.5-14.46,8.09-19.9,11.88" class="stroke" stroke-dasharray="150"><set attributeName="opacity" to="0" dur="5.8s" /><animate attributeName="stroke-dashoffset" from="150" to="0" dur="1.8s" begin="5.8s" fill="freeze" /></path><path d="M50.23,60.85c6.02,4.9,8.26,14.82,4.56,23.97C52.5,90.5,49,86,47.18,83.29" class="stroke" stroke-dasharray="150"><set attributeName="opacity" to="0" dur="7.5s" /><animate attributeName="stroke-dashoffset" from="150" to="0" dur="1.8s" begin="7.5s" fill="freeze" /></path><path d="M24,87c0,5.25-5.16,13-6.5,14.5" class="stroke" stroke-dasharray="150"><set attributeName="opacity" to="0" dur="8.5s" /><animate attributeName="stroke-dashoffset" from="150" to="0" dur="1.8s" begin="8.5s" fill="freeze" /></path><path d="M39.52,88.83c2.93,2.15,5.7,8.05,6.44,11.38" class="stroke" stroke-dasharray="150"><set attributeName="opacity" to="0" dur="9.4s" /><animate attributeName="stroke-dashoffset" from="150" to="0" dur="1.8s" begin="9.4s" fill="freeze" /></path><path d="M62.87,88.08c2.8,1.92,7.23,7.9,7.93,10.88" class="stroke" stroke-dasharray="150"><set attributeName="opacity" to="0" dur="10.3s" /><animate attributeName="stroke-dashoffset" from="150" to="0" dur="1.8s" begin="10.3s" fill="freeze" /></path><path d="M82.77,87.08c3.46,2.27,8.93,9.35,9.79,12.88" class="stroke" stroke-dasharray="150"><set attributeName="opacity" to="0" dur="11.200000000000001s" /><animate attributeName="stroke-dashoffset" from="150" to="0" dur="1.8s" begin="11.200000000000001s" fill="freeze" /></path><text x="90" y="120" id="reset-kvg-070f9">⟳</text><text x="70" y="120" id="pause-kvg-070f9">◼</text><script type="text/javascript"><![CDATA[function RecurringTimer(e,t){var n,r,i=t;this.pause=function(){window.clearTimeout(n);i-=new Date-r};var s=function(){r=new Date;n=window.setTimeout(function(){i=t;s();e()},i)};this.clear=function(){window.clearTimeout(n);i=t;n=window.setTimeout(function(){i=t;s();e()},i)};this.resume=s;this.resume()}function invoketimer(){timer=new RecurringTimer(function(){svg.setCurrentTime(0)},13100.000000000002)}var svg=document.getElementById("kvg-070f9");var pause=document.getElementById("pause-kvg-070f9");var reset=document.getElementById("reset-kvg-070f9");var timer;invoketimer();reset.onclick=function(){svg.setCurrentTime(0);timer.clear();svg.unpauseAnimations();pause.innerHTML = "◼";};pause.onclick=function(){if(svg.animationsPaused()){svg.unpauseAnimations();timer.resume();pause.innerHTML="◼"}else{svg.pauseAnimations();timer.pause();pause.innerHTML="▶"}}]]></script></svg>