<svg id="kvg-071d0" class="kanjivg" width="106" height="126" xmlns="http://www.w3.org/2000/svg" xmlns:xlink="http://www.w3.org/1999/xlink" xml:space="preserve" version="1.1" baseProfile="full"><defs><style type="text/css"><![CDATA[path.black{fill:none;stroke:black;stroke-width:5;stroke-linecap:round;stroke-linejoin:round;}path.grey{fill:none;stroke:#ddd;stroke-width:5;stroke-linecap:round;stroke-linejoin:round;}path.stroke{fill:none;stroke:black;stroke-width:5;stroke-linecap:round;stroke-linejoin:round;}rect{fill:none;stroke:#555;stroke-width:2;} text{font-size:16px;font-family:Segoe UI Symbol,Cambria Math,DejaVu Sans,Symbola,Quivira,STIX,Code2000;-webkit-touch-callout:none;cursor:pointer;-webkit-user-select:none;-khtml-user-select:none;-moz-user-select:none;-ms-user-select:none;user-select: none;}text:hover{color:#777;}#reset{font-weight:bold;}]]></style><marker id="markerStart" markerWidth="8" markerHeight="8" style="overflow:visible;"><circle cx="0" cy="0" r="1.5" style="stroke:none;fill:red;fill-opacity:0.5;"/></marker><marker id="markerEnd" style="overflow:visible;"><circle cx="0" cy="0" r="0.8" style="stroke:none;fill:blue;fill-opacity:0.5;"><animate attributeName="opacity" from="1" to="0" dur="3s" repeatCount="indefinite" /></circle></marker></defs><rect x="4" y="4" width="100" height="100" /><path d="M12.24,37c0.86,3.47,2.11,13.28,2.34,16.75" class="grey" /><path d="M35.15,29.75c0.68,0.86,0.94,2,0.32,3.34s-6.91,10.3-10,13.41" class="grey" /><path d="M23.11,14.5c0.59,0.74,1.18,1.72,1.17,2.95C24.16,66.39,20.42,79.18,9.5,90" class="grey" /><path d="M22.5,64.75c4.26,2.6,9.63,10.82,10.75,14.5" class="grey" /><path d="M46.34,16.78c2.69,1.63,6.75,6.23,7.42,8.77" class="grey" /><path d="M82.6,12.5c0.02,0.3,0.05,0.78-0.05,1.22c-0.57,2.57-3.85,8.2-8.33,11.65" class="grey" /><path d="M42.75,31.83c0.51,0.2,1.88,0.52,3.25,0.6c3.76,0.2,34.05-5.16,40.04-4.76c1.37,0.09,1.71-0.2,2.57,0" class="grey" /><path d="M63.65,11c0.82,0.3,1.32,1.35,1.48,1.96c0.16,0.6,0,36.28-0.17,40.04" class="grey" /><path d="M63.15,30.31c-3.7,7.24-12.7,17.4-21.02,21.57" class="grey" /><path d="M64.77,30.71c4.07,2.69,21.9,15.39,26.32,18.03c1.5,0.9,2.78,1.28,4.28,1.53" class="grey" /><path d="M48.78,53.56c0.13,0.31,0.39,1.24,0.25,1.86c-0.83,3.67-5.91,11.59-12.43,16.51" class="grey" /><path d="M49.99,60.86c0.21,0.03,1.11,0,1.72-0.08c1.98-0.26,6.49-1.02,9.14-2.03c1.9-0.73,2.5,0.64,2,2.17c-2.72,8.36-16.45,28.81-28.59,33.12" class="grey" /><path d="M43.32,69.69c2.25,1.39,5.82,5.7,6.38,7.86" class="grey" /><path d="M67.67,65.77c0.72,0.2,2.04,0.26,2.75,0.2c4.58-0.35,16.6-2.38,21.54-2.3c1.2,0.02,1.92,0.1,2.51,0.2" class="grey" /><path d="M71.37,66.7c0.12,0.78,0.07,13-0.1,14.11" class="grey" /><path d="M61.02,81.64c0.89,0.11,2.09,0.24,3.48,0.11c10.5-1,28.81-3.25,30.14-3.25c1.53,0,3.63,0,5.36,0.27" class="grey" /><path d="M81.14,52c0.88,0.28,1.41,1.25,1.58,1.8c0.18,0.55,0,41.99-0.18,45.45" class="grey" /><path d="M12.24,37c0.86,3.47,2.11,13.28,2.34,16.75" class="stroke" stroke-dasharray="150"><animate attributeName="stroke-dashoffset" from="150" to="0" dur="1.8s" begin="0.0s" fill="freeze" /></path><path d="M35.15,29.75c0.68,0.86,0.94,2,0.32,3.34s-6.91,10.3-10,13.41" class="stroke" stroke-dasharray="150"><set attributeName="opacity" to="0" dur="0.9s" /><animate attributeName="stroke-dashoffset" from="150" to="0" dur="1.8s" begin="0.9s" fill="freeze" /></path><path d="M23.11,14.5c0.59,0.74,1.18,1.72,1.17,2.95C24.16,66.39,20.42,79.18,9.5,90" class="stroke" stroke-dasharray="150"><set attributeName="opacity" to="0" dur="1.9s" /><animate attributeName="stroke-dashoffset" from="150" to="0" dur="1.8s" begin="1.9s" fill="freeze" /></path><path d="M22.5,64.75c4.26,2.6,9.63,10.82,10.75,14.5" class="stroke" stroke-dasharray="150"><set attributeName="opacity" to="0" dur="3.5999999999999996s" /><animate attributeName="stroke-dashoffset" from="150" to="0" dur="1.8s" begin="3.5999999999999996s" fill="freeze" /></path><path d="M46.34,16.78c2.69,1.63,6.75,6.23,7.42,8.77" class="stroke" stroke-dasharray="150"><set attributeName="opacity" to="0" dur="4.5s" /><animate attributeName="stroke-dashoffset" from="150" to="0" dur="1.8s" begin="4.5s" fill="freeze" /></path><path d="M82.6,12.5c0.02,0.3,0.05,0.78-0.05,1.22c-0.57,2.57-3.85,8.2-8.33,11.65" class="stroke" stroke-dasharray="150"><set attributeName="opacity" to="0" dur="5.4s" /><animate attributeName="stroke-dashoffset" from="150" to="0" dur="1.8s" begin="5.4s" fill="freeze" /></path><path d="M42.75,31.83c0.51,0.2,1.88,0.52,3.25,0.6c3.76,0.2,34.05-5.16,40.04-4.76c1.37,0.09,1.71-0.2,2.57,0" class="stroke" stroke-dasharray="150"><set attributeName="opacity" to="0" dur="6.300000000000001s" /><animate attributeName="stroke-dashoffset" from="150" to="0" dur="1.8s" begin="6.300000000000001s" fill="freeze" /></path><path d="M63.65,11c0.82,0.3,1.32,1.35,1.48,1.96c0.16,0.6,0,36.28-0.17,40.04" class="stroke" stroke-dasharray="150"><set attributeName="opacity" to="0" dur="7.500000000000001s" /><animate attributeName="stroke-dashoffset" from="150" to="0" dur="1.8s" begin="7.500000000000001s" fill="freeze" /></path><path d="M63.15,30.31c-3.7,7.24-12.7,17.4-21.02,21.57" class="stroke" stroke-dasharray="150"><set attributeName="opacity" to="0" dur="8.600000000000001s" /><animate attributeName="stroke-dashoffset" from="150" to="0" dur="1.8s" begin="8.600000000000001s" fill="freeze" /></path><path d="M64.77,30.71c4.07,2.69,21.9,15.39,26.32,18.03c1.5,0.9,2.78,1.28,4.28,1.53" class="stroke" stroke-dasharray="150"><set attributeName="opacity" to="0" dur="9.600000000000001s" /><animate attributeName="stroke-dashoffset" from="150" to="0" dur="1.8s" begin="9.600000000000001s" fill="freeze" /></path><path d="M48.78,53.56c0.13,0.31,0.39,1.24,0.25,1.86c-0.83,3.67-5.91,11.59-12.43,16.51" class="stroke" stroke-dasharray="150"><set attributeName="opacity" to="0" dur="10.600000000000001s" /><animate attributeName="stroke-dashoffset" from="150" to="0" dur="1.8s" begin="10.600000000000001s" fill="freeze" /></path><path d="M49.99,60.86c0.21,0.03,1.11,0,1.72-0.08c1.98-0.26,6.49-1.02,9.14-2.03c1.9-0.73,2.5,0.64,2,2.17c-2.72,8.36-16.45,28.81-28.59,33.12" class="stroke" stroke-dasharray="150"><set attributeName="opacity" to="0" dur="11.600000000000001s" /><animate attributeName="stroke-dashoffset" from="150" to="0" dur="1.8s" begin="11.600000000000001s" fill="freeze" /></path><path d="M43.32,69.69c2.25,1.39,5.82,5.7,6.38,7.86" class="stroke" stroke-dasharray="150"><set attributeName="opacity" to="0" dur="13.000000000000002s" /><animate attributeName="stroke-dashoffset" from="150" to="0" dur="1.8s" begin="13.000000000000002s" fill="freeze" /></path><path d="M67.67,65.77c0.72,0.2,2.04,0.26,2.75,0.2c4.58-0.35,16.6-2.38,21.54-2.3c1.2,0.02,1.92,0.1,2.51,0.2" class="stroke" stroke-dasharray="150"><set attributeName="opacity" to="0" dur="13.900000000000002s" /><animate attributeName="stroke-dashoffset" from="150" to="0" dur="1.8s" begin="13.900000000000002s" fill="freeze" /></path><path d="M71.37,66.7c0.12,0.78,0.07,13-0.1,14.11" class="stroke" stroke-dasharray="150"><set attributeName="opacity" to="0" dur="14.900000000000002s" /><animate attributeName="stroke-dashoffset" from="150" to="0" dur="1.8s" begin="14.900000000000002s" fill="freeze" /></path><path d="M61.02,81.64c0.89,0.11,2.09,0.24,3.48,0.11c10.5-1,28.81-3.25,30.14-3.25c1.53,0,3.63,0,5.36,0.27" class="stroke" stroke-dasharray="150"><set attributeName="opacity" to="0" dur="15.800000000000002s" /><animate attributeName="stroke-dashoffset" from="150" to="0" dur="1.8s" begin="15.800000000000002s" fill="freeze" /></path><path d="M81.14,52c0.88,0.28,1.41,1.25,1.58,1.8c0.18,0.55,0,41.99-0.18,45.45" class="stroke" stroke-dasharray="150"><set attributeName="opacity" to="0" dur="16.800000000000004s" /><animate attributeName="stroke-dashoffset" from="150" to="0" dur="1.8s" begin="16.800000000000004s" fill="freeze" /></path><text x="90" y="120" id="reset-kvg-071d0">⟳</text><text x="70" y="120" id="pause-kvg-071d0">◼</text><script type="text/javascript"><![CDATA[function RecurringTimer(e,t){var n,r,i=t;this.pause=function(){window.clearTimeout(n);i-=new Date-r};var s=function(){r=new Date;n=window.setTimeout(function(){i=t;s();e()},i)};this.clear=function(){window.clearTimeout(n);i=t;n=window.setTimeout(function(){i=t;s();e()},i)};this.resume=s;this.resume()}function invoketimer(){timer=new RecurringTimer(function(){svg.setCurrentTime(0)},19000.000000000004)}var svg=document.getElementById("kvg-071d0");var pause=document.getElementById("pause-kvg-071d0");var reset=document.getElementById("reset-kvg-071d0");var timer;invoketimer();reset.onclick=function(){svg.setCurrentTime(0);timer.clear();svg.unpauseAnimations();pause.innerHTML = "◼";};pause.onclick=function(){if(svg.animationsPaused()){svg.unpauseAnimations();timer.resume();pause.innerHTML="◼"}else{svg.pauseAnimations();timer.pause();pause.innerHTML="▶"}}]]></script></svg>