<svg id="kvg-07272" class="kanjivg" width="106" height="126" xmlns="http://www.w3.org/2000/svg" xmlns:xlink="http://www.w3.org/1999/xlink" xml:space="preserve" version="1.1" baseProfile="full"><defs><style type="text/css"><![CDATA[path.black{fill:none;stroke:black;stroke-width:5;stroke-linecap:round;stroke-linejoin:round;}path.grey{fill:none;stroke:#ddd;stroke-width:5;stroke-linecap:round;stroke-linejoin:round;}path.stroke{fill:none;stroke:black;stroke-width:5;stroke-linecap:round;stroke-linejoin:round;}rect{fill:none;stroke:#555;stroke-width:2;} text{font-size:16px;font-family:Segoe UI Symbol,Cambria Math,DejaVu Sans,Symbola,Quivira,STIX,Code2000;-webkit-touch-callout:none;cursor:pointer;-webkit-user-select:none;-khtml-user-select:none;-moz-user-select:none;-ms-user-select:none;user-select: none;}text:hover{color:#777;}#reset{font-weight:bold;}]]></style><marker id="markerStart" markerWidth="8" markerHeight="8" style="overflow:visible;"><circle cx="0" cy="0" r="1.5" style="stroke:none;fill:red;fill-opacity:0.5;"/></marker><marker id="markerEnd" style="overflow:visible;"><circle cx="0" cy="0" r="0.8" style="stroke:none;fill:blue;fill-opacity:0.5;"><animate attributeName="opacity" from="1" to="0" dur="3s" repeatCount="indefinite" /></circle></marker></defs><rect x="4" y="4" width="100" height="100" /><path d="M22.02,27.89c0.03,0.6,0.22,1.58-0.06,2.4c-2.21,6.33-5.09,13.21-11.15,20.18" class="grey" /><path d="M22.75,38.5c1.25,0,2.52,0.02,3.78-0.19c7.72-1.31,12.22-2.23,15.97-3.06c1.22-0.27,2.75-0.5,4-0.25" class="grey" /><path d="M33.62,12c1.25,1.25,1.46,2.5,1.46,4c0,0.67,0.04,51.85,0.04,73.75c0,5.79,0,9.53-0.01,9.75" class="grey" /><path d="M12.97,71.1c1.53,0.9,2.66,0.46,4.19-0.82c1.02-0.85,18.75-15.95,23.09-20.03" class="grey" /><path d="M57.64,23.09c0.23,0.91,0.2,1.79-0.06,2.75c-2.34,8.78-4.09,15.78-10,25.31" class="grey" /><path d="M57.8,38.75c1.94,0.21,3.67,0.1,5.59-0.12c5.54-0.65,17.06-2.22,23.64-3.05c2.11-0.26,4.39-0.34,6.52-0.1" class="grey" /><path d="M70.24,11.63c1.63,1.63,1.9,3.24,1.9,5.49c0,6-0.01,65.48-0.01,72.75" class="grey" /><path d="M52.8,63.83c2.08,0.54,4.32,0.51,5.95,0.22c8.12-1.42,20.23-2.34,27.28-3c2.21-0.21,4.16-0.11,6.35,0.07" class="grey" /><path d="M44.5,91.74c2.41,0.74,4.79,0.86,7.26,0.64c11.12-1,30.65-1.94,39.74-2.45c3.12-0.17,6.12,0.2,9.11,1.1" class="grey" /><path d="M22.02,27.89c0.03,0.6,0.22,1.58-0.06,2.4c-2.21,6.33-5.09,13.21-11.15,20.18" class="stroke" stroke-dasharray="150"><animate attributeName="stroke-dashoffset" from="150" to="0" dur="1.8s" begin="0.0s" fill="freeze" /></path><path d="M22.75,38.5c1.25,0,2.52,0.02,3.78-0.19c7.72-1.31,12.22-2.23,15.97-3.06c1.22-0.27,2.75-0.5,4-0.25" class="stroke" stroke-dasharray="150"><set attributeName="opacity" to="0" dur="1.0s" /><animate attributeName="stroke-dashoffset" from="150" to="0" dur="1.8s" begin="1.0s" fill="freeze" /></path><path d="M33.62,12c1.25,1.25,1.46,2.5,1.46,4c0,0.67,0.04,51.85,0.04,73.75c0,5.79,0,9.53-0.01,9.75" class="stroke" stroke-dasharray="150"><set attributeName="opacity" to="0" dur="2.0s" /><animate attributeName="stroke-dashoffset" from="150" to="0" dur="1.8s" begin="2.0s" fill="freeze" /></path><path d="M12.97,71.1c1.53,0.9,2.66,0.46,4.19-0.82c1.02-0.85,18.75-15.95,23.09-20.03" class="stroke" stroke-dasharray="150"><set attributeName="opacity" to="0" dur="3.7s" /><animate attributeName="stroke-dashoffset" from="150" to="0" dur="1.8s" begin="3.7s" fill="freeze" /></path><path d="M57.64,23.09c0.23,0.91,0.2,1.79-0.06,2.75c-2.34,8.78-4.09,15.78-10,25.31" class="stroke" stroke-dasharray="150"><set attributeName="opacity" to="0" dur="4.7s" /><animate attributeName="stroke-dashoffset" from="150" to="0" dur="1.8s" begin="4.7s" fill="freeze" /></path><path d="M57.8,38.75c1.94,0.21,3.67,0.1,5.59-0.12c5.54-0.65,17.06-2.22,23.64-3.05c2.11-0.26,4.39-0.34,6.52-0.1" class="stroke" stroke-dasharray="150"><set attributeName="opacity" to="0" dur="5.7s" /><animate attributeName="stroke-dashoffset" from="150" to="0" dur="1.8s" begin="5.7s" fill="freeze" /></path><path d="M70.24,11.63c1.63,1.63,1.9,3.24,1.9,5.49c0,6-0.01,65.48-0.01,72.75" class="stroke" stroke-dasharray="150"><set attributeName="opacity" to="0" dur="6.7s" /><animate attributeName="stroke-dashoffset" from="150" to="0" dur="1.8s" begin="6.7s" fill="freeze" /></path><path d="M52.8,63.83c2.08,0.54,4.32,0.51,5.95,0.22c8.12-1.42,20.23-2.34,27.28-3c2.21-0.21,4.16-0.11,6.35,0.07" class="stroke" stroke-dasharray="150"><set attributeName="opacity" to="0" dur="8.4s" /><animate attributeName="stroke-dashoffset" from="150" to="0" dur="1.8s" begin="8.4s" fill="freeze" /></path><path d="M44.5,91.74c2.41,0.74,4.79,0.86,7.26,0.64c11.12-1,30.65-1.94,39.74-2.45c3.12-0.17,6.12,0.2,9.11,1.1" class="stroke" stroke-dasharray="150"><set attributeName="opacity" to="0" dur="9.4s" /><animate attributeName="stroke-dashoffset" from="150" to="0" dur="1.8s" begin="9.4s" fill="freeze" /></path><text x="90" y="120" id="reset-kvg-07272">⟳</text><text x="70" y="120" id="pause-kvg-07272">◼</text><script type="text/javascript"><![CDATA[function RecurringTimer(e,t){var n,r,i=t;this.pause=function(){window.clearTimeout(n);i-=new Date-r};var s=function(){r=new Date;n=window.setTimeout(function(){i=t;s();e()},i)};this.clear=function(){window.clearTimeout(n);i=t;n=window.setTimeout(function(){i=t;s();e()},i)};this.resume=s;this.resume()}function invoketimer(){timer=new RecurringTimer(function(){svg.setCurrentTime(0)},11800.0)}var svg=document.getElementById("kvg-07272");var pause=document.getElementById("pause-kvg-07272");var reset=document.getElementById("reset-kvg-07272");var timer;invoketimer();reset.onclick=function(){svg.setCurrentTime(0);timer.clear();svg.unpauseAnimations();pause.innerHTML = "◼";};pause.onclick=function(){if(svg.animationsPaused()){svg.unpauseAnimations();timer.resume();pause.innerHTML="◼"}else{svg.pauseAnimations();timer.pause();pause.innerHTML="▶"}}]]></script></svg>