<svg id="kvg-072b6" class="kanjivg" width="106" height="126" xmlns="http://www.w3.org/2000/svg" xmlns:xlink="http://www.w3.org/1999/xlink" xml:space="preserve" version="1.1" baseProfile="full"><defs><style type="text/css"><![CDATA[path.black{fill:none;stroke:black;stroke-width:5;stroke-linecap:round;stroke-linejoin:round;}path.grey{fill:none;stroke:#ddd;stroke-width:5;stroke-linecap:round;stroke-linejoin:round;}path.stroke{fill:none;stroke:black;stroke-width:5;stroke-linecap:round;stroke-linejoin:round;}rect{fill:none;stroke:#555;stroke-width:2;} text{font-size:16px;font-family:Segoe UI Symbol,Cambria Math,DejaVu Sans,Symbola,Quivira,STIX,Code2000;-webkit-touch-callout:none;cursor:pointer;-webkit-user-select:none;-khtml-user-select:none;-moz-user-select:none;-ms-user-select:none;user-select: none;}text:hover{color:#777;}#reset{font-weight:bold;}]]></style><marker id="markerStart" markerWidth="8" markerHeight="8" style="overflow:visible;"><circle cx="0" cy="0" r="1.5" style="stroke:none;fill:red;fill-opacity:0.5;"/></marker><marker id="markerEnd" style="overflow:visible;"><circle cx="0" cy="0" r="0.8" style="stroke:none;fill:blue;fill-opacity:0.5;"><animate attributeName="opacity" from="1" to="0" dur="3s" repeatCount="indefinite" /></circle></marker></defs><rect x="4" y="4" width="100" height="100" /><path d="M33.37,16.5c0.94,0.94,1.46,3,1.46,4.25c0,0.85-0.11,46.62-0.11,67c0,3.92,0.03,6,0.03,7.87" class="grey" /><path d="M14.75,30.5c3.53,1.85,8.12,6.62,10,10.5" class="grey" /><path d="M11.25,73.14c1.5,0.99,3.37,0.36,4.54-0.96C19.21,68.34,21.5,66,26.75,59.5" class="grey" /><path d="M43.88,47.11c2,0.64,4.9,0.47,6.62,0.26c8.75-1.08,24.18-3.39,31.96-4.29c1.79-0.21,4.41-0.21,6.19,0.17" class="grey" /><path d="M63.01,16.5c1,0.99,1.42,2.66,1.49,4.82c1,29.68-2.75,57.56-21.72,72.43" class="grey" /><path d="M64.25,46.25c4.35,11.11,15.58,29.31,22.97,38.03c1.53,1.81,3.66,4.35,6.03,6.1" class="grey" /><path d="M78.31,19.5c4.56,3.52,6.56,6.95,7.98,10.25" class="grey" /><path d="M33.37,16.5c0.94,0.94,1.46,3,1.46,4.25c0,0.85-0.11,46.62-0.11,67c0,3.92,0.03,6,0.03,7.87" class="stroke" stroke-dasharray="150"><animate attributeName="stroke-dashoffset" from="150" to="0" dur="1.8s" begin="0.0s" fill="freeze" /></path><path d="M14.75,30.5c3.53,1.85,8.12,6.62,10,10.5" class="stroke" stroke-dasharray="150"><set attributeName="opacity" to="0" dur="1.7s" /><animate attributeName="stroke-dashoffset" from="150" to="0" dur="1.8s" begin="1.7s" fill="freeze" /></path><path d="M11.25,73.14c1.5,0.99,3.37,0.36,4.54-0.96C19.21,68.34,21.5,66,26.75,59.5" class="stroke" stroke-dasharray="150"><set attributeName="opacity" to="0" dur="2.6s" /><animate attributeName="stroke-dashoffset" from="150" to="0" dur="1.8s" begin="2.6s" fill="freeze" /></path><path d="M43.88,47.11c2,0.64,4.9,0.47,6.62,0.26c8.75-1.08,24.18-3.39,31.96-4.29c1.79-0.21,4.41-0.21,6.19,0.17" class="stroke" stroke-dasharray="150"><set attributeName="opacity" to="0" dur="3.6s" /><animate attributeName="stroke-dashoffset" from="150" to="0" dur="1.8s" begin="3.6s" fill="freeze" /></path><path d="M63.01,16.5c1,0.99,1.42,2.66,1.49,4.82c1,29.68-2.75,57.56-21.72,72.43" class="stroke" stroke-dasharray="150"><set attributeName="opacity" to="0" dur="4.8s" /><animate attributeName="stroke-dashoffset" from="150" to="0" dur="1.8s" begin="4.8s" fill="freeze" /></path><path d="M64.25,46.25c4.35,11.11,15.58,29.31,22.97,38.03c1.53,1.81,3.66,4.35,6.03,6.1" class="stroke" stroke-dasharray="150"><set attributeName="opacity" to="0" dur="6.5s" /><animate attributeName="stroke-dashoffset" from="150" to="0" dur="1.8s" begin="6.5s" fill="freeze" /></path><path d="M78.31,19.5c4.56,3.52,6.56,6.95,7.98,10.25" class="stroke" stroke-dasharray="150"><set attributeName="opacity" to="0" dur="7.8s" /><animate attributeName="stroke-dashoffset" from="150" to="0" dur="1.8s" begin="7.8s" fill="freeze" /></path><text x="90" y="120" id="reset-kvg-072b6">⟳</text><text x="70" y="120" id="pause-kvg-072b6">◼</text><script type="text/javascript"><![CDATA[function RecurringTimer(e,t){var n,r,i=t;this.pause=function(){window.clearTimeout(n);i-=new Date-r};var s=function(){r=new Date;n=window.setTimeout(function(){i=t;s();e()},i)};this.clear=function(){window.clearTimeout(n);i=t;n=window.setTimeout(function(){i=t;s();e()},i)};this.resume=s;this.resume()}function invoketimer(){timer=new RecurringTimer(function(){svg.setCurrentTime(0)},9700.0)}var svg=document.getElementById("kvg-072b6");var pause=document.getElementById("pause-kvg-072b6");var reset=document.getElementById("reset-kvg-072b6");var timer;invoketimer();reset.onclick=function(){svg.setCurrentTime(0);timer.clear();svg.unpauseAnimations();pause.innerHTML = "◼";};pause.onclick=function(){if(svg.animationsPaused()){svg.unpauseAnimations();timer.resume();pause.innerHTML="◼"}else{svg.pauseAnimations();timer.pause();pause.innerHTML="▶"}}]]></script></svg>