<svg id="kvg-0730a-HzLst" class="kanjivg" width="106" height="126" xmlns="http://www.w3.org/2000/svg" xmlns:xlink="http://www.w3.org/1999/xlink" xml:space="preserve" version="1.1" baseProfile="full"><defs><style type="text/css"><![CDATA[path.black{fill:none;stroke:black;stroke-width:5;stroke-linecap:round;stroke-linejoin:round;}path.grey{fill:none;stroke:#ddd;stroke-width:5;stroke-linecap:round;stroke-linejoin:round;}path.stroke{fill:none;stroke:black;stroke-width:5;stroke-linecap:round;stroke-linejoin:round;}rect{fill:none;stroke:#555;stroke-width:2;} text{font-size:16px;font-family:Segoe UI Symbol,Cambria Math,DejaVu Sans,Symbola,Quivira,STIX,Code2000;-webkit-touch-callout:none;cursor:pointer;-webkit-user-select:none;-khtml-user-select:none;-moz-user-select:none;-ms-user-select:none;user-select: none;}text:hover{color:#777;}#reset{font-weight:bold;}]]></style><marker id="markerStart" markerWidth="8" markerHeight="8" style="overflow:visible;"><circle cx="0" cy="0" r="1.5" style="stroke:none;fill:red;fill-opacity:0.5;"/></marker><marker id="markerEnd" style="overflow:visible;"><circle cx="0" cy="0" r="0.8" style="stroke:none;fill:blue;fill-opacity:0.5;"><animate attributeName="opacity" from="1" to="0" dur="3s" repeatCount="indefinite" /></circle></marker></defs><rect x="4" y="4" width="100" height="100" /><path d="M38.04,16.25c0.07,0.61,0.32,1.8-0.14,2.46C32.08,27.17,26.16,33.15,12,42.29" class="grey" /><path d="M18,19.25c28.25,22.94,17.46,83.01,5.75,70.29" class="grey" /><path d="M31.33,43.5c0.05,0.67,0.23,1.96-0.1,2.68c-4.16,9.19-8.38,15.68-18.48,25.62" class="grey" /><path d="M63.6,15.96c0.04,0.22-0.63,1.64-0.9,1.87c-3.54,3.06-6.32,6.5-14.89,10.47" class="grey" /><path d="M46.11,27.51c0.67,0.57,0.94,1.85,1.1,3.02c0.6,4.28,2.06,20.06,2.67,25.85" class="grey" /><path d="M71.94,23.95c0.79,0.13,1.42,0.39,2.51,0.39c1.1,0,11.83-2.56,13.09-2.69s2.77,0.85,2.6,2.33c-0.96,8.18-2.98,29.6-3.14,30.12" class="grey" /><path d="M49.01,39.76c3.92-0.7,10.81-1.86,11.75-1.86s2.24,0,2.99,0" class="grey" /><path d="M71.62,37.06c0.79,0.13,1.42,0.39,2.52,0.39c1.1,0,12.9-1.54,14.16-1.67" class="grey" /><path d="M50.04,53.72c3.93-0.26,34.87-2.14,37.23-2.27" class="grey" /><path d="M59.66,58c0.05,0.83,0.07,2.15-0.1,3.35c-1.25,8.77-5.26,24.26-17.14,32.04" class="grey" /><path d="M71.26,56.14c0.59,1.07,1.06,2.33,1.1,3.97c0.16,7.35-0.02,17.82-0.02,22.82c0,8.82,2.17,10.35,12.19,10.35c10.23,0,12.12-2.04,12.12-8.19" class="grey" /><path d="M38.04,16.25c0.07,0.61,0.32,1.8-0.14,2.46C32.08,27.17,26.16,33.15,12,42.29" class="stroke" stroke-dasharray="150"><animate attributeName="stroke-dashoffset" from="150" to="0" dur="1.8s" begin="0.0s" fill="freeze" /></path><path d="M18,19.25c28.25,22.94,17.46,83.01,5.75,70.29" class="stroke" stroke-dasharray="150"><set attributeName="opacity" to="0" dur="1.0s" /><animate attributeName="stroke-dashoffset" from="150" to="0" dur="1.8s" begin="1.0s" fill="freeze" /></path><path d="M31.33,43.5c0.05,0.67,0.23,1.96-0.1,2.68c-4.16,9.19-8.38,15.68-18.48,25.62" class="stroke" stroke-dasharray="150"><set attributeName="opacity" to="0" dur="2.7s" /><animate attributeName="stroke-dashoffset" from="150" to="0" dur="1.8s" begin="2.7s" fill="freeze" /></path><path d="M63.6,15.96c0.04,0.22-0.63,1.64-0.9,1.87c-3.54,3.06-6.32,6.5-14.89,10.47" class="stroke" stroke-dasharray="150"><set attributeName="opacity" to="0" dur="3.7s" /><animate attributeName="stroke-dashoffset" from="150" to="0" dur="1.8s" begin="3.7s" fill="freeze" /></path><path d="M46.11,27.51c0.67,0.57,0.94,1.85,1.1,3.02c0.6,4.28,2.06,20.06,2.67,25.85" class="stroke" stroke-dasharray="150"><set attributeName="opacity" to="0" dur="4.7s" /><animate attributeName="stroke-dashoffset" from="150" to="0" dur="1.8s" begin="4.7s" fill="freeze" /></path><path d="M71.94,23.95c0.79,0.13,1.42,0.39,2.51,0.39c1.1,0,11.83-2.56,13.09-2.69s2.77,0.85,2.6,2.33c-0.96,8.18-2.98,29.6-3.14,30.12" class="stroke" stroke-dasharray="150"><set attributeName="opacity" to="0" dur="5.7s" /><animate attributeName="stroke-dashoffset" from="150" to="0" dur="1.8s" begin="5.7s" fill="freeze" /></path><path d="M49.01,39.76c3.92-0.7,10.81-1.86,11.75-1.86s2.24,0,2.99,0" class="stroke" stroke-dasharray="150"><set attributeName="opacity" to="0" dur="7.0s" /><animate attributeName="stroke-dashoffset" from="150" to="0" dur="1.8s" begin="7.0s" fill="freeze" /></path><path d="M71.62,37.06c0.79,0.13,1.42,0.39,2.52,0.39c1.1,0,12.9-1.54,14.16-1.67" class="stroke" stroke-dasharray="150"><set attributeName="opacity" to="0" dur="7.9s" /><animate attributeName="stroke-dashoffset" from="150" to="0" dur="1.8s" begin="7.9s" fill="freeze" /></path><path d="M50.04,53.72c3.93-0.26,34.87-2.14,37.23-2.27" class="stroke" stroke-dasharray="150"><set attributeName="opacity" to="0" dur="8.8s" /><animate attributeName="stroke-dashoffset" from="150" to="0" dur="1.8s" begin="8.8s" fill="freeze" /></path><path d="M59.66,58c0.05,0.83,0.07,2.15-0.1,3.35c-1.25,8.77-5.26,24.26-17.14,32.04" class="stroke" stroke-dasharray="150"><set attributeName="opacity" to="0" dur="9.8s" /><animate attributeName="stroke-dashoffset" from="150" to="0" dur="1.8s" begin="9.8s" fill="freeze" /></path><path d="M71.26,56.14c0.59,1.07,1.06,2.33,1.1,3.97c0.16,7.35-0.02,17.82-0.02,22.82c0,8.82,2.17,10.35,12.19,10.35c10.23,0,12.12-2.04,12.12-8.19" class="stroke" stroke-dasharray="150"><set attributeName="opacity" to="0" dur="10.9s" /><animate attributeName="stroke-dashoffset" from="150" to="0" dur="1.8s" begin="10.9s" fill="freeze" /></path><text x="90" y="120" id="reset-kvg-0730a-HzLst">⟳</text><text x="70" y="120" id="pause-kvg-0730a-HzLst">◼</text><script type="text/javascript"><![CDATA[function RecurringTimer(e,t){var n,r,i=t;this.pause=function(){window.clearTimeout(n);i-=new Date-r};var s=function(){r=new Date;n=window.setTimeout(function(){i=t;s();e()},i)};this.clear=function(){window.clearTimeout(n);i=t;n=window.setTimeout(function(){i=t;s();e()},i)};this.resume=s;this.resume()}function invoketimer(){timer=new RecurringTimer(function(){svg.setCurrentTime(0)},13400.0)}var svg=document.getElementById("kvg-0730a-HzLst");var pause=document.getElementById("pause-kvg-0730a-HzLst");var reset=document.getElementById("reset-kvg-0730a-HzLst");var timer;invoketimer();reset.onclick=function(){svg.setCurrentTime(0);timer.clear();svg.unpauseAnimations();pause.innerHTML = "◼";};pause.onclick=function(){if(svg.animationsPaused()){svg.unpauseAnimations();timer.resume();pause.innerHTML="◼"}else{svg.pauseAnimations();timer.pause();pause.innerHTML="▶"}}]]></script></svg>