<svg id="kvg-07368" class="kanjivg" width="106" height="126" xmlns="http://www.w3.org/2000/svg" xmlns:xlink="http://www.w3.org/1999/xlink" xml:space="preserve" version="1.1" baseProfile="full"><defs><style type="text/css"><![CDATA[path.black{fill:none;stroke:black;stroke-width:5;stroke-linecap:round;stroke-linejoin:round;}path.grey{fill:none;stroke:#ddd;stroke-width:5;stroke-linecap:round;stroke-linejoin:round;}path.stroke{fill:none;stroke:black;stroke-width:5;stroke-linecap:round;stroke-linejoin:round;}rect{fill:none;stroke:#555;stroke-width:2;} text{font-size:16px;font-family:Segoe UI Symbol,Cambria Math,DejaVu Sans,Symbola,Quivira,STIX,Code2000;-webkit-touch-callout:none;cursor:pointer;-webkit-user-select:none;-khtml-user-select:none;-moz-user-select:none;-ms-user-select:none;user-select: none;}text:hover{color:#777;}#reset{font-weight:bold;}]]></style><marker id="markerStart" markerWidth="8" markerHeight="8" style="overflow:visible;"><circle cx="0" cy="0" r="1.5" style="stroke:none;fill:red;fill-opacity:0.5;"/></marker><marker id="markerEnd" style="overflow:visible;"><circle cx="0" cy="0" r="0.8" style="stroke:none;fill:blue;fill-opacity:0.5;"><animate attributeName="opacity" from="1" to="0" dur="3s" repeatCount="indefinite" /></circle></marker></defs><rect x="4" y="4" width="100" height="100" /><path d="M36.31,17.5c0.06,0.64,0.27,1.87-0.12,2.56C31.2,28.84,26.13,35.05,14,44.54" class="grey" /><path d="M19,21c23.5,19.75,18.25,80.5,7.5,68.5" class="grey" /><path d="M31.33,47.5c0.05,0.57,0.22,1.66-0.1,2.27c-4.05,7.81-8.16,13.33-17.99,21.77" class="grey" /><path d="M45.46,19.42c0.22,0.31,0.45,0.56,0.55,0.95c0.77,3.06,3.22,11.02,3.74,16.51" class="grey" /><path d="M46.78,20.03C54.75,19,81.75,16,85.51,16.23c0.96,0.06,3.24,1.53,2.98,3.25c-0.53,3.58-2.24,10.27-4.19,14.87" class="grey" /><path d="M59.79,20.32c0.04,0.54,0.62,1.6,0.72,2.91c0.26,3.6,0.64,8.14,0.54,10.34" class="grey" /><path d="M72.51,19.55c0.3,0.36,0.55,1.25,0.55,2.44c0,5.25-0.39,8.52-0.62,10.05" class="grey" /><path d="M50.45,35.22c3.05-0.45,30.01-3.27,34.2-3.97" class="grey" /><path d="M58.04,38.08c0.04,0.4,0.08,1.03-0.08,1.61c-0.98,3.39-6.59,10.83-14.27,15.39" class="grey" /><path d="M57.7,44.46c0.99,0.62,2.34,0.68,3.94,0.41c5.75-0.96,21.63-3.34,25.57-3.54c3.94-0.21,5.03,1.02,4.64,5.35C90.75,59,89.5,76.5,82.88,92.93c-1.68,4.17-3.98,1.54-6.3-1.03" class="grey" /><path d="M48.25,59.02c0.47,0.32,1.07,1.52,1.16,1.94c0.64,3.06,1.71,7.57,2.61,13.36" class="grey" /><path d="M50.17,60.17c7.18-0.61,18.06-2.65,23.23-3.28c1.36-0.16,2.96,1.35,2.71,2.27c-0.86,3.14-1.36,6.83-2.41,12" class="grey" /><path d="M52.28,72.12c5.78-0.62,13.09-2.02,21.17-2.6" class="grey" /><path d="M60.55,51.07c0.71,0.96,1.21,2.98,1.21,3.93c0,4.7,0,22.62-0.23,28.34" class="grey" /><path d="M46.35,86.3c0.7,0.67,2.11,1.01,2.81,0.84c0.69-0.17,23.05-6.91,27.35-8.25" class="grey" /><path d="M69.84,74.69c2.92,1.62,7.55,6.68,8.28,9.2" class="grey" /><path d="M36.31,17.5c0.06,0.64,0.27,1.87-0.12,2.56C31.2,28.84,26.13,35.05,14,44.54" class="stroke" stroke-dasharray="150"><animate attributeName="stroke-dashoffset" from="150" to="0" dur="1.8s" begin="0.0s" fill="freeze" /></path><path d="M19,21c23.5,19.75,18.25,80.5,7.5,68.5" class="stroke" stroke-dasharray="150"><set attributeName="opacity" to="0" dur="1.0s" /><animate attributeName="stroke-dashoffset" from="150" to="0" dur="1.8s" begin="1.0s" fill="freeze" /></path><path d="M31.33,47.5c0.05,0.57,0.22,1.66-0.1,2.27c-4.05,7.81-8.16,13.33-17.99,21.77" class="stroke" stroke-dasharray="150"><set attributeName="opacity" to="0" dur="2.7s" /><animate attributeName="stroke-dashoffset" from="150" to="0" dur="1.8s" begin="2.7s" fill="freeze" /></path><path d="M45.46,19.42c0.22,0.31,0.45,0.56,0.55,0.95c0.77,3.06,3.22,11.02,3.74,16.51" class="stroke" stroke-dasharray="150"><set attributeName="opacity" to="0" dur="3.7s" /><animate attributeName="stroke-dashoffset" from="150" to="0" dur="1.8s" begin="3.7s" fill="freeze" /></path><path d="M46.78,20.03C54.75,19,81.75,16,85.51,16.23c0.96,0.06,3.24,1.53,2.98,3.25c-0.53,3.58-2.24,10.27-4.19,14.87" class="stroke" stroke-dasharray="150"><set attributeName="opacity" to="0" dur="4.6000000000000005s" /><animate attributeName="stroke-dashoffset" from="150" to="0" dur="1.8s" begin="4.6000000000000005s" fill="freeze" /></path><path d="M59.79,20.32c0.04,0.54,0.62,1.6,0.72,2.91c0.26,3.6,0.64,8.14,0.54,10.34" class="stroke" stroke-dasharray="150"><set attributeName="opacity" to="0" dur="6.0s" /><animate attributeName="stroke-dashoffset" from="150" to="0" dur="1.8s" begin="6.0s" fill="freeze" /></path><path d="M72.51,19.55c0.3,0.36,0.55,1.25,0.55,2.44c0,5.25-0.39,8.52-0.62,10.05" class="stroke" stroke-dasharray="150"><set attributeName="opacity" to="0" dur="6.9s" /><animate attributeName="stroke-dashoffset" from="150" to="0" dur="1.8s" begin="6.9s" fill="freeze" /></path><path d="M50.45,35.22c3.05-0.45,30.01-3.27,34.2-3.97" class="stroke" stroke-dasharray="150"><set attributeName="opacity" to="0" dur="7.800000000000001s" /><animate attributeName="stroke-dashoffset" from="150" to="0" dur="1.8s" begin="7.800000000000001s" fill="freeze" /></path><path d="M58.04,38.08c0.04,0.4,0.08,1.03-0.08,1.61c-0.98,3.39-6.59,10.83-14.27,15.39" class="stroke" stroke-dasharray="150"><set attributeName="opacity" to="0" dur="8.8s" /><animate attributeName="stroke-dashoffset" from="150" to="0" dur="1.8s" begin="8.8s" fill="freeze" /></path><path d="M57.7,44.46c0.99,0.62,2.34,0.68,3.94,0.41c5.75-0.96,21.63-3.34,25.57-3.54c3.94-0.21,5.03,1.02,4.64,5.35C90.75,59,89.5,76.5,82.88,92.93c-1.68,4.17-3.98,1.54-6.3-1.03" class="stroke" stroke-dasharray="150"><set attributeName="opacity" to="0" dur="9.8s" /><animate attributeName="stroke-dashoffset" from="150" to="0" dur="1.8s" begin="9.8s" fill="freeze" /></path><path d="M48.25,59.02c0.47,0.32,1.07,1.52,1.16,1.94c0.64,3.06,1.71,7.57,2.61,13.36" class="stroke" stroke-dasharray="150"><set attributeName="opacity" to="0" dur="11.600000000000001s" /><animate attributeName="stroke-dashoffset" from="150" to="0" dur="1.8s" begin="11.600000000000001s" fill="freeze" /></path><path d="M50.17,60.17c7.18-0.61,18.06-2.65,23.23-3.28c1.36-0.16,2.96,1.35,2.71,2.27c-0.86,3.14-1.36,6.83-2.41,12" class="stroke" stroke-dasharray="150"><set attributeName="opacity" to="0" dur="12.500000000000002s" /><animate attributeName="stroke-dashoffset" from="150" to="0" dur="1.8s" begin="12.500000000000002s" fill="freeze" /></path><path d="M52.28,72.12c5.78-0.62,13.09-2.02,21.17-2.6" class="stroke" stroke-dasharray="150"><set attributeName="opacity" to="0" dur="13.500000000000002s" /><animate attributeName="stroke-dashoffset" from="150" to="0" dur="1.8s" begin="13.500000000000002s" fill="freeze" /></path><path d="M60.55,51.07c0.71,0.96,1.21,2.98,1.21,3.93c0,4.7,0,22.62-0.23,28.34" class="stroke" stroke-dasharray="150"><set attributeName="opacity" to="0" dur="14.500000000000002s" /><animate attributeName="stroke-dashoffset" from="150" to="0" dur="1.8s" begin="14.500000000000002s" fill="freeze" /></path><path d="M46.35,86.3c0.7,0.67,2.11,1.01,2.81,0.84c0.69-0.17,23.05-6.91,27.35-8.25" class="stroke" stroke-dasharray="150"><set attributeName="opacity" to="0" dur="15.500000000000002s" /><animate attributeName="stroke-dashoffset" from="150" to="0" dur="1.8s" begin="15.500000000000002s" fill="freeze" /></path><path d="M69.84,74.69c2.92,1.62,7.55,6.68,8.28,9.2" class="stroke" stroke-dasharray="150"><set attributeName="opacity" to="0" dur="16.5s" /><animate attributeName="stroke-dashoffset" from="150" to="0" dur="1.8s" begin="16.5s" fill="freeze" /></path><text x="90" y="120" id="reset-kvg-07368">⟳</text><text x="70" y="120" id="pause-kvg-07368">◼</text><script type="text/javascript"><![CDATA[function RecurringTimer(e,t){var n,r,i=t;this.pause=function(){window.clearTimeout(n);i-=new Date-r};var s=function(){r=new Date;n=window.setTimeout(function(){i=t;s();e()},i)};this.clear=function(){window.clearTimeout(n);i=t;n=window.setTimeout(function(){i=t;s();e()},i)};this.resume=s;this.resume()}function invoketimer(){timer=new RecurringTimer(function(){svg.setCurrentTime(0)},18400.0)}var svg=document.getElementById("kvg-07368");var pause=document.getElementById("pause-kvg-07368");var reset=document.getElementById("reset-kvg-07368");var timer;invoketimer();reset.onclick=function(){svg.setCurrentTime(0);timer.clear();svg.unpauseAnimations();pause.innerHTML = "◼";};pause.onclick=function(){if(svg.animationsPaused()){svg.unpauseAnimations();timer.resume();pause.innerHTML="◼"}else{svg.pauseAnimations();timer.pause();pause.innerHTML="▶"}}]]></script></svg>