<svg id="kvg-0736a-Kaisho" class="kanjivg" width="106" height="126" xmlns="http://www.w3.org/2000/svg" xmlns:xlink="http://www.w3.org/1999/xlink" xml:space="preserve" version="1.1" baseProfile="full"><defs><style type="text/css"><![CDATA[path.black{fill:none;stroke:black;stroke-width:5;stroke-linecap:round;stroke-linejoin:round;}path.grey{fill:none;stroke:#ddd;stroke-width:5;stroke-linecap:round;stroke-linejoin:round;}path.stroke{fill:none;stroke:black;stroke-width:5;stroke-linecap:round;stroke-linejoin:round;}rect{fill:none;stroke:#555;stroke-width:2;} text{font-size:16px;font-family:Segoe UI Symbol,Cambria Math,DejaVu Sans,Symbola,Quivira,STIX,Code2000;-webkit-touch-callout:none;cursor:pointer;-webkit-user-select:none;-khtml-user-select:none;-moz-user-select:none;-ms-user-select:none;user-select: none;}text:hover{color:#777;}#reset{font-weight:bold;}]]></style><marker id="markerStart" markerWidth="8" markerHeight="8" style="overflow:visible;"><circle cx="0" cy="0" r="1.5" style="stroke:none;fill:red;fill-opacity:0.5;"/></marker><marker id="markerEnd" style="overflow:visible;"><circle cx="0" cy="0" r="0.8" style="stroke:none;fill:blue;fill-opacity:0.5;"><animate attributeName="opacity" from="1" to="0" dur="3s" repeatCount="indefinite" /></circle></marker></defs><rect x="4" y="4" width="100" height="100" /><path d="M36.04,15.75c0.07,0.67,0.32,1.97-0.14,2.7c-5.94,9.27-11.97,15.82-26.4,25.84" class="grey" /><path d="M13.5,16.75c28.25,24.93,17.46,90.21,5.75,76.39" class="grey" /><path d="M26.84,45.5c0.04,0.6,0.2,1.77-0.09,2.42c-3.71,8.29-7.48,14.16-16.5,23.13" class="grey" /><path d="M64.58,10.75c0.08,0.75,0.31,2.03-0.16,3.03C61.15,20.89,51.83,32.63,37,42.77" class="grey" /><path d="M64.76,14.84c4.45,4.7,23.11,19.54,28.02,22.98c1.67,1.17,3.8,1.67,5.47,2" class="grey" /><path d="M53.31,35.79c0.76,0.25,2.16,0.3,2.92,0.25c4.99-0.34,13.62-1.8,18.67-1.87c1.27-0.02,2.03,0.12,2.67,0.24" class="grey" /><path d="M42.75,44.97c0.37,0.75,1.22,2.17,1.38,3.15c0.43,2.7,2.09,13.9,2.85,17.95" class="grey" /><path d="M44.76,46.81c3.84-0.77,40.67-3.93,42.27-4.08c1.33-0.12,2.21,1.37,2.09,2.09c-0.58,3.33-3.31,14.9-4.14,18.88" class="grey" /><path d="M64.47,46c0.78,0.75,1,1.08,1.02,2.5c0.04,4.21,0.17,11.69,0.17,13.58" class="grey" /><path d="M50.87,51.56c2.2,1.26,5.68,5.17,6.23,7.13" class="grey" /><path d="M78.95,48.86c0.02,0.24,0.04,0.62-0.04,0.96c-0.43,2.03-2.9,6.49-6.27,9.22" class="grey" /><path d="M47.2,63.84c4.99-0.47,34.55-2.27,38.34-2.27" class="grey" /><path d="M51.06,71.66c0.22,0.49,0.85,1.81,0.85,2.42c0,7.66,0.06,16.41,0.06,25.15" class="grey" /><path d="M52.1,72.87c7.76-0.67,21.06-1.78,26.85-2.39c2.13-0.23,3.22,1.2,3.11,2.54c-0.4,4.92-0.65,16.83-1.62,25.03" class="grey" /><path d="M52.17,84.64c4.88-0.59,9.81-0.85,14.7-1.23c1.67-0.13,3.34-0.26,4.92-0.38" class="grey" /><path d="M52,96.28c6.58-0.58,22.06-1.2,28.44-1.66" class="grey" /><path d="M36.04,15.75c0.07,0.67,0.32,1.97-0.14,2.7c-5.94,9.27-11.97,15.82-26.4,25.84" class="stroke" stroke-dasharray="150"><animate attributeName="stroke-dashoffset" from="150" to="0" dur="1.8s" begin="0.0s" fill="freeze" /></path><path d="M13.5,16.75c28.25,24.93,17.46,90.21,5.75,76.39" class="stroke" stroke-dasharray="150"><set attributeName="opacity" to="0" dur="1.0s" /><animate attributeName="stroke-dashoffset" from="150" to="0" dur="1.8s" begin="1.0s" fill="freeze" /></path><path d="M26.84,45.5c0.04,0.6,0.2,1.77-0.09,2.42c-3.71,8.29-7.48,14.16-16.5,23.13" class="stroke" stroke-dasharray="150"><set attributeName="opacity" to="0" dur="2.7s" /><animate attributeName="stroke-dashoffset" from="150" to="0" dur="1.8s" begin="2.7s" fill="freeze" /></path><path d="M64.58,10.75c0.08,0.75,0.31,2.03-0.16,3.03C61.15,20.89,51.83,32.63,37,42.77" class="stroke" stroke-dasharray="150"><set attributeName="opacity" to="0" dur="3.7s" /><animate attributeName="stroke-dashoffset" from="150" to="0" dur="1.8s" begin="3.7s" fill="freeze" /></path><path d="M64.76,14.84c4.45,4.7,23.11,19.54,28.02,22.98c1.67,1.17,3.8,1.67,5.47,2" class="stroke" stroke-dasharray="150"><set attributeName="opacity" to="0" dur="4.800000000000001s" /><animate attributeName="stroke-dashoffset" from="150" to="0" dur="1.8s" begin="4.800000000000001s" fill="freeze" /></path><path d="M53.31,35.79c0.76,0.25,2.16,0.3,2.92,0.25c4.99-0.34,13.62-1.8,18.67-1.87c1.27-0.02,2.03,0.12,2.67,0.24" class="stroke" stroke-dasharray="150"><set attributeName="opacity" to="0" dur="5.9s" /><animate attributeName="stroke-dashoffset" from="150" to="0" dur="1.8s" begin="5.9s" fill="freeze" /></path><path d="M42.75,44.97c0.37,0.75,1.22,2.17,1.38,3.15c0.43,2.7,2.09,13.9,2.85,17.95" class="stroke" stroke-dasharray="150"><set attributeName="opacity" to="0" dur="6.9s" /><animate attributeName="stroke-dashoffset" from="150" to="0" dur="1.8s" begin="6.9s" fill="freeze" /></path><path d="M44.76,46.81c3.84-0.77,40.67-3.93,42.27-4.08c1.33-0.12,2.21,1.37,2.09,2.09c-0.58,3.33-3.31,14.9-4.14,18.88" class="stroke" stroke-dasharray="150"><set attributeName="opacity" to="0" dur="7.9s" /><animate attributeName="stroke-dashoffset" from="150" to="0" dur="1.8s" begin="7.9s" fill="freeze" /></path><path d="M64.47,46c0.78,0.75,1,1.08,1.02,2.5c0.04,4.21,0.17,11.69,0.17,13.58" class="stroke" stroke-dasharray="150"><set attributeName="opacity" to="0" dur="9.4s" /><animate attributeName="stroke-dashoffset" from="150" to="0" dur="1.8s" begin="9.4s" fill="freeze" /></path><path d="M50.87,51.56c2.2,1.26,5.68,5.17,6.23,7.13" class="stroke" stroke-dasharray="150"><set attributeName="opacity" to="0" dur="10.3s" /><animate attributeName="stroke-dashoffset" from="150" to="0" dur="1.8s" begin="10.3s" fill="freeze" /></path><path d="M78.95,48.86c0.02,0.24,0.04,0.62-0.04,0.96c-0.43,2.03-2.9,6.49-6.27,9.22" class="stroke" stroke-dasharray="150"><set attributeName="opacity" to="0" dur="11.200000000000001s" /><animate attributeName="stroke-dashoffset" from="150" to="0" dur="1.8s" begin="11.200000000000001s" fill="freeze" /></path><path d="M47.2,63.84c4.99-0.47,34.55-2.27,38.34-2.27" class="stroke" stroke-dasharray="150"><set attributeName="opacity" to="0" dur="12.100000000000001s" /><animate attributeName="stroke-dashoffset" from="150" to="0" dur="1.8s" begin="12.100000000000001s" fill="freeze" /></path><path d="M51.06,71.66c0.22,0.49,0.85,1.81,0.85,2.42c0,7.66,0.06,16.41,0.06,25.15" class="stroke" stroke-dasharray="150"><set attributeName="opacity" to="0" dur="13.100000000000001s" /><animate attributeName="stroke-dashoffset" from="150" to="0" dur="1.8s" begin="13.100000000000001s" fill="freeze" /></path><path d="M52.1,72.87c7.76-0.67,21.06-1.78,26.85-2.39c2.13-0.23,3.22,1.2,3.11,2.54c-0.4,4.92-0.65,16.83-1.62,25.03" class="stroke" stroke-dasharray="150"><set attributeName="opacity" to="0" dur="14.100000000000001s" /><animate attributeName="stroke-dashoffset" from="150" to="0" dur="1.8s" begin="14.100000000000001s" fill="freeze" /></path><path d="M52.17,84.64c4.88-0.59,9.81-0.85,14.7-1.23c1.67-0.13,3.34-0.26,4.92-0.38" class="stroke" stroke-dasharray="150"><set attributeName="opacity" to="0" dur="15.500000000000002s" /><animate attributeName="stroke-dashoffset" from="150" to="0" dur="1.8s" begin="15.500000000000002s" fill="freeze" /></path><path d="M52,96.28c6.58-0.58,22.06-1.2,28.44-1.66" class="stroke" stroke-dasharray="150"><set attributeName="opacity" to="0" dur="16.400000000000002s" /><animate attributeName="stroke-dashoffset" from="150" to="0" dur="1.8s" begin="16.400000000000002s" fill="freeze" /></path><text x="90" y="120" id="reset-kvg-0736a-Kaisho">⟳</text><text x="70" y="120" id="pause-kvg-0736a-Kaisho">◼</text><script type="text/javascript"><![CDATA[function RecurringTimer(e,t){var n,r,i=t;this.pause=function(){window.clearTimeout(n);i-=new Date-r};var s=function(){r=new Date;n=window.setTimeout(function(){i=t;s();e()},i)};this.clear=function(){window.clearTimeout(n);i=t;n=window.setTimeout(function(){i=t;s();e()},i)};this.resume=s;this.resume()}function invoketimer(){timer=new RecurringTimer(function(){svg.setCurrentTime(0)},18400.000000000004)}var svg=document.getElementById("kvg-0736a-Kaisho");var pause=document.getElementById("pause-kvg-0736a-Kaisho");var reset=document.getElementById("reset-kvg-0736a-Kaisho");var timer;invoketimer();reset.onclick=function(){svg.setCurrentTime(0);timer.clear();svg.unpauseAnimations();pause.innerHTML = "◼";};pause.onclick=function(){if(svg.animationsPaused()){svg.unpauseAnimations();timer.resume();pause.innerHTML="◼"}else{svg.pauseAnimations();timer.pause();pause.innerHTML="▶"}}]]></script></svg>