<svg id="kvg-0737a-Kaisho" class="kanjivg" width="106" height="126" xmlns="http://www.w3.org/2000/svg" xmlns:xlink="http://www.w3.org/1999/xlink" xml:space="preserve" version="1.1" baseProfile="full"><defs><style type="text/css"><![CDATA[path.black{fill:none;stroke:black;stroke-width:5;stroke-linecap:round;stroke-linejoin:round;}path.grey{fill:none;stroke:#ddd;stroke-width:5;stroke-linecap:round;stroke-linejoin:round;}path.stroke{fill:none;stroke:black;stroke-width:5;stroke-linecap:round;stroke-linejoin:round;}rect{fill:none;stroke:#555;stroke-width:2;} text{font-size:16px;font-family:Segoe UI Symbol,Cambria Math,DejaVu Sans,Symbola,Quivira,STIX,Code2000;-webkit-touch-callout:none;cursor:pointer;-webkit-user-select:none;-khtml-user-select:none;-moz-user-select:none;-ms-user-select:none;user-select: none;}text:hover{color:#777;}#reset{font-weight:bold;}]]></style><marker id="markerStart" markerWidth="8" markerHeight="8" style="overflow:visible;"><circle cx="0" cy="0" r="1.5" style="stroke:none;fill:red;fill-opacity:0.5;"/></marker><marker id="markerEnd" style="overflow:visible;"><circle cx="0" cy="0" r="0.8" style="stroke:none;fill:blue;fill-opacity:0.5;"><animate attributeName="opacity" from="1" to="0" dur="3s" repeatCount="indefinite" /></circle></marker></defs><rect x="4" y="4" width="100" height="100" /><path d="M35.06,15.25c0.06,0.68,0.29,1.99-0.13,2.72C29.66,27.32,24.3,33.93,11.5,44.04" class="grey" /><path d="M14.5,19.25c28.25,23.18,17.46,83.88,5.75,71.02" class="grey" /><path d="M27.84,48c0.04,0.59,0.2,1.73-0.09,2.37C24.1,58.5,20.38,64.25,11.5,73.04" class="grey" /><path d="M37.68,28.58c0.58,0.28,2.61,0.25,3.19,0.2c4.89-0.38,16.45-1.85,21.69-2.12c0.97-0.05,2.51,0.13,3,0.27" class="grey" /><path d="M38.83,38.88c0.2,0.36,0.91,1.17,1,1.62c0.7,3.61,2.42,11.88,2.9,18.36" class="grey" /><path d="M40.09,40.85c8.16-1.6,20.42-3.18,22.79-3.42c1.87-0.19,2.9,1.84,2.51,3.93c-1.04,5.61-2.29,8.08-3.11,12.36" class="grey" /><path d="M43.32,56.24c7.24-0.9,14.77-1.87,20.2-2.55" class="grey" /><path d="M50.89,12.5c0.97,0.48,1.55,2.18,1.74,3.15s-0.19,69.84-0.19,75.89c0,11.21-4.32,2.84-5.44,1.71" class="grey" /><path d="M52.39,55.52c-2.93,9.34-10.54,22.55-16.62,27.83" class="grey" /><path d="M55.2,64.13c4.42,2.22,7.98,6.59,10.2,11.02" class="grey" /><path d="M67.25,16.75C68.5,17.25,70,17.5,72,17.37c4.01-0.26,19.57-3.19,21.77-3.41c1.43-0.14,1.83,1.65,1.75,2.65c-0.21,2.65-3.02,12.89-6.03,17.28c-1.51,2.2-3.5,0.86-4.32-0.72" class="grey" /><path d="M78.49,20.18c0.02,0.35,0.05,0.9-0.04,1.39c-0.73,3.68-2.99,9.55-7.8,13.33" class="grey" /><path d="M71.69,41.71c0.35,0.97,0.85,1.7,0.85,2.96s-0.23,37.65-0.23,38.28" class="grey" /><path d="M73.12,43.48c1.96-0.05,18.15-2.43,19.94-2.52c1.49-0.07,1.78,1.19,1.78,3.02c0,1.51-0.44,36.34-0.44,37.28" class="grey" /><path d="M73.09,55.6c3.43-0.5,6.89-0.88,10.34-1.25c1.09-0.12,2.19-0.24,3.25-0.34" class="grey" /><path d="M72.99,67.07c3.75-0.15,7.48-0.63,11.2-1.1c0.93-0.12,1.85-0.23,2.75-0.34" class="grey" /><path d="M72.74,80.56c5.8-0.37,15.42-1.86,21.12-2" class="grey" /><path d="M77.61,84.84c0.29,1.07,0.22,1.62-0.27,2.48c-1.61,2.8-5.91,7.01-10.34,9.86" class="grey" /><path d="M88.63,84.98c4.05,3.09,9.15,9.94,10.25,12.53" class="grey" /><path d="M35.06,15.25c0.06,0.68,0.29,1.99-0.13,2.72C29.66,27.32,24.3,33.93,11.5,44.04" class="stroke" stroke-dasharray="150"><animate attributeName="stroke-dashoffset" from="150" to="0" dur="1.8s" begin="0.0s" fill="freeze" /></path><path d="M14.5,19.25c28.25,23.18,17.46,83.88,5.75,71.02" class="stroke" stroke-dasharray="150"><set attributeName="opacity" to="0" dur="1.0s" /><animate attributeName="stroke-dashoffset" from="150" to="0" dur="1.8s" begin="1.0s" fill="freeze" /></path><path d="M27.84,48c0.04,0.59,0.2,1.73-0.09,2.37C24.1,58.5,20.38,64.25,11.5,73.04" class="stroke" stroke-dasharray="150"><set attributeName="opacity" to="0" dur="2.7s" /><animate attributeName="stroke-dashoffset" from="150" to="0" dur="1.8s" begin="2.7s" fill="freeze" /></path><path d="M37.68,28.58c0.58,0.28,2.61,0.25,3.19,0.2c4.89-0.38,16.45-1.85,21.69-2.12c0.97-0.05,2.51,0.13,3,0.27" class="stroke" stroke-dasharray="150"><set attributeName="opacity" to="0" dur="3.7s" /><animate attributeName="stroke-dashoffset" from="150" to="0" dur="1.8s" begin="3.7s" fill="freeze" /></path><path d="M38.83,38.88c0.2,0.36,0.91,1.17,1,1.62c0.7,3.61,2.42,11.88,2.9,18.36" class="stroke" stroke-dasharray="150"><set attributeName="opacity" to="0" dur="4.7s" /><animate attributeName="stroke-dashoffset" from="150" to="0" dur="1.8s" begin="4.7s" fill="freeze" /></path><path d="M40.09,40.85c8.16-1.6,20.42-3.18,22.79-3.42c1.87-0.19,2.9,1.84,2.51,3.93c-1.04,5.61-2.29,8.08-3.11,12.36" class="stroke" stroke-dasharray="150"><set attributeName="opacity" to="0" dur="5.7s" /><animate attributeName="stroke-dashoffset" from="150" to="0" dur="1.8s" begin="5.7s" fill="freeze" /></path><path d="M43.32,56.24c7.24-0.9,14.77-1.87,20.2-2.55" class="stroke" stroke-dasharray="150"><set attributeName="opacity" to="0" dur="6.800000000000001s" /><animate attributeName="stroke-dashoffset" from="150" to="0" dur="1.8s" begin="6.800000000000001s" fill="freeze" /></path><path d="M50.89,12.5c0.97,0.48,1.55,2.18,1.74,3.15s-0.19,69.84-0.19,75.89c0,11.21-4.32,2.84-5.44,1.71" class="stroke" stroke-dasharray="150"><set attributeName="opacity" to="0" dur="7.800000000000001s" /><animate attributeName="stroke-dashoffset" from="150" to="0" dur="1.8s" begin="7.800000000000001s" fill="freeze" /></path><path d="M52.39,55.52c-2.93,9.34-10.54,22.55-16.62,27.83" class="stroke" stroke-dasharray="150"><set attributeName="opacity" to="0" dur="9.600000000000001s" /><animate attributeName="stroke-dashoffset" from="150" to="0" dur="1.8s" begin="9.600000000000001s" fill="freeze" /></path><path d="M55.2,64.13c4.42,2.22,7.98,6.59,10.2,11.02" class="stroke" stroke-dasharray="150"><set attributeName="opacity" to="0" dur="10.600000000000001s" /><animate attributeName="stroke-dashoffset" from="150" to="0" dur="1.8s" begin="10.600000000000001s" fill="freeze" /></path><path d="M67.25,16.75C68.5,17.25,70,17.5,72,17.37c4.01-0.26,19.57-3.19,21.77-3.41c1.43-0.14,1.83,1.65,1.75,2.65c-0.21,2.65-3.02,12.89-6.03,17.28c-1.51,2.2-3.5,0.86-4.32-0.72" class="stroke" stroke-dasharray="150"><set attributeName="opacity" to="0" dur="11.500000000000002s" /><animate attributeName="stroke-dashoffset" from="150" to="0" dur="1.8s" begin="11.500000000000002s" fill="freeze" /></path><path d="M78.49,20.18c0.02,0.35,0.05,0.9-0.04,1.39c-0.73,3.68-2.99,9.55-7.8,13.33" class="stroke" stroke-dasharray="150"><set attributeName="opacity" to="0" dur="12.800000000000002s" /><animate attributeName="stroke-dashoffset" from="150" to="0" dur="1.8s" begin="12.800000000000002s" fill="freeze" /></path><path d="M71.69,41.71c0.35,0.97,0.85,1.7,0.85,2.96s-0.23,37.65-0.23,38.28" class="stroke" stroke-dasharray="150"><set attributeName="opacity" to="0" dur="13.700000000000003s" /><animate attributeName="stroke-dashoffset" from="150" to="0" dur="1.8s" begin="13.700000000000003s" fill="freeze" /></path><path d="M73.12,43.48c1.96-0.05,18.15-2.43,19.94-2.52c1.49-0.07,1.78,1.19,1.78,3.02c0,1.51-0.44,36.34-0.44,37.28" class="stroke" stroke-dasharray="150"><set attributeName="opacity" to="0" dur="14.800000000000002s" /><animate attributeName="stroke-dashoffset" from="150" to="0" dur="1.8s" begin="14.800000000000002s" fill="freeze" /></path><path d="M73.09,55.6c3.43-0.5,6.89-0.88,10.34-1.25c1.09-0.12,2.19-0.24,3.25-0.34" class="stroke" stroke-dasharray="150"><set attributeName="opacity" to="0" dur="16.300000000000004s" /><animate attributeName="stroke-dashoffset" from="150" to="0" dur="1.8s" begin="16.300000000000004s" fill="freeze" /></path><path d="M72.99,67.07c3.75-0.15,7.48-0.63,11.2-1.1c0.93-0.12,1.85-0.23,2.75-0.34" class="stroke" stroke-dasharray="150"><set attributeName="opacity" to="0" dur="17.200000000000003s" /><animate attributeName="stroke-dashoffset" from="150" to="0" dur="1.8s" begin="17.200000000000003s" fill="freeze" /></path><path d="M72.74,80.56c5.8-0.37,15.42-1.86,21.12-2" class="stroke" stroke-dasharray="150"><set attributeName="opacity" to="0" dur="18.1s" /><animate attributeName="stroke-dashoffset" from="150" to="0" dur="1.8s" begin="18.1s" fill="freeze" /></path><path d="M77.61,84.84c0.29,1.07,0.22,1.62-0.27,2.48c-1.61,2.8-5.91,7.01-10.34,9.86" class="stroke" stroke-dasharray="150"><set attributeName="opacity" to="0" dur="19.1s" /><animate attributeName="stroke-dashoffset" from="150" to="0" dur="1.8s" begin="19.1s" fill="freeze" /></path><path d="M88.63,84.98c4.05,3.09,9.15,9.94,10.25,12.53" class="stroke" stroke-dasharray="150"><set attributeName="opacity" to="0" dur="20.0s" /><animate attributeName="stroke-dashoffset" from="150" to="0" dur="1.8s" begin="20.0s" fill="freeze" /></path><text x="90" y="120" id="reset-kvg-0737a-Kaisho">⟳</text><text x="70" y="120" id="pause-kvg-0737a-Kaisho">◼</text><script type="text/javascript"><![CDATA[function RecurringTimer(e,t){var n,r,i=t;this.pause=function(){window.clearTimeout(n);i-=new Date-r};var s=function(){r=new Date;n=window.setTimeout(function(){i=t;s();e()},i)};this.clear=function(){window.clearTimeout(n);i=t;n=window.setTimeout(function(){i=t;s();e()},i)};this.resume=s;this.resume()}function invoketimer(){timer=new RecurringTimer(function(){svg.setCurrentTime(0)},21900.0)}var svg=document.getElementById("kvg-0737a-Kaisho");var pause=document.getElementById("pause-kvg-0737a-Kaisho");var reset=document.getElementById("reset-kvg-0737a-Kaisho");var timer;invoketimer();reset.onclick=function(){svg.setCurrentTime(0);timer.clear();svg.unpauseAnimations();pause.innerHTML = "◼";};pause.onclick=function(){if(svg.animationsPaused()){svg.unpauseAnimations();timer.resume();pause.innerHTML="◼"}else{svg.pauseAnimations();timer.pause();pause.innerHTML="▶"}}]]></script></svg>