<svg id="kvg-073c8" class="kanjivg" width="106" height="126" xmlns="http://www.w3.org/2000/svg" xmlns:xlink="http://www.w3.org/1999/xlink" xml:space="preserve" version="1.1" baseProfile="full"><defs><style type="text/css"><![CDATA[path.black{fill:none;stroke:black;stroke-width:5;stroke-linecap:round;stroke-linejoin:round;}path.grey{fill:none;stroke:#ddd;stroke-width:5;stroke-linecap:round;stroke-linejoin:round;}path.stroke{fill:none;stroke:black;stroke-width:5;stroke-linecap:round;stroke-linejoin:round;}rect{fill:none;stroke:#555;stroke-width:2;} text{font-size:16px;font-family:Segoe UI Symbol,Cambria Math,DejaVu Sans,Symbola,Quivira,STIX,Code2000;-webkit-touch-callout:none;cursor:pointer;-webkit-user-select:none;-khtml-user-select:none;-moz-user-select:none;-ms-user-select:none;user-select: none;}text:hover{color:#777;}#reset{font-weight:bold;}]]></style><marker id="markerStart" markerWidth="8" markerHeight="8" style="overflow:visible;"><circle cx="0" cy="0" r="1.5" style="stroke:none;fill:red;fill-opacity:0.5;"/></marker><marker id="markerEnd" style="overflow:visible;"><circle cx="0" cy="0" r="0.8" style="stroke:none;fill:blue;fill-opacity:0.5;"><animate attributeName="opacity" from="1" to="0" dur="3s" repeatCount="indefinite" /></circle></marker></defs><rect x="4" y="4" width="100" height="100" /><path d="M10.75,25.75c0.56,0.37,3.6,0.45,4.16,0.34c2.63-0.5,13.34-1.59,19.66-2.14c0.86-0.07,2.46-0.26,3.18,0.04" class="grey" /><path d="M23.07,27.02c0.87,0.88,1.48,2.78,1.48,3.48c0,5.95,0.52,40.12,0.35,44.07" class="grey" /><path d="M11,49.71c0.47,0.19,3.8,0.22,4.28,0.18c2.77-0.25,13-1.73,16.84-2c0.59-0.04,2.74-0.08,3.63,0.09" class="grey" /><path d="M10.25,80.25c1.5,1,3.22,1.19,4.5,0.5c6-3.25,11.75-5.75,19.75-10.5" class="grey" /><path d="M36.11,36.26c1.14,0.74,3.9,1.52,4.67,1.39c6.97-1.15,17.8-2.78,21.17-3.52c2.19-0.48,3.8,0.67,3.68,4.05C65.3,47.08,60.5,78,55.23,89.77c-3.93,8.78-6.96,1.33-7.84,0.28" class="grey" /><path d="M52.64,13.68c0.25,0.42,0.97,2.26,0.85,4.36c-1.16,19.54-6.99,54.21-24.59,71.6" class="grey" /><path d="M71.81,32.48c0.69,1.27,1.53,1.77,1.64,2.98c0.91,9.59,1.49,36.53,2.11,53.75" class="grey" /><path d="M73.19,34.49c7.84-1.38,15.27-2.38,19.67-2.58c1.88-0.09,3.36,1.04,3.21,3.28c-0.32,4.81-1.79,30.2-3.01,48.69" class="grey" /><path d="M75.83,86.28c5.58-0.47,12.14-1.62,19.44-2.18" class="grey" /><path d="M10.75,25.75c0.56,0.37,3.6,0.45,4.16,0.34c2.63-0.5,13.34-1.59,19.66-2.14c0.86-0.07,2.46-0.26,3.18,0.04" class="stroke" stroke-dasharray="150"><animate attributeName="stroke-dashoffset" from="150" to="0" dur="1.8s" begin="0.0s" fill="freeze" /></path><path d="M23.07,27.02c0.87,0.88,1.48,2.78,1.48,3.48c0,5.95,0.52,40.12,0.35,44.07" class="stroke" stroke-dasharray="150"><set attributeName="opacity" to="0" dur="1.0s" /><animate attributeName="stroke-dashoffset" from="150" to="0" dur="1.8s" begin="1.0s" fill="freeze" /></path><path d="M11,49.71c0.47,0.19,3.8,0.22,4.28,0.18c2.77-0.25,13-1.73,16.84-2c0.59-0.04,2.74-0.08,3.63,0.09" class="stroke" stroke-dasharray="150"><set attributeName="opacity" to="0" dur="2.2s" /><animate attributeName="stroke-dashoffset" from="150" to="0" dur="1.8s" begin="2.2s" fill="freeze" /></path><path d="M10.25,80.25c1.5,1,3.22,1.19,4.5,0.5c6-3.25,11.75-5.75,19.75-10.5" class="stroke" stroke-dasharray="150"><set attributeName="opacity" to="0" dur="3.2s" /><animate attributeName="stroke-dashoffset" from="150" to="0" dur="1.8s" begin="3.2s" fill="freeze" /></path><path d="M36.11,36.26c1.14,0.74,3.9,1.52,4.67,1.39c6.97-1.15,17.8-2.78,21.17-3.52c2.19-0.48,3.8,0.67,3.68,4.05C65.3,47.08,60.5,78,55.23,89.77c-3.93,8.78-6.96,1.33-7.84,0.28" class="stroke" stroke-dasharray="150"><set attributeName="opacity" to="0" dur="4.2s" /><animate attributeName="stroke-dashoffset" from="150" to="0" dur="1.8s" begin="4.2s" fill="freeze" /></path><path d="M52.64,13.68c0.25,0.42,0.97,2.26,0.85,4.36c-1.16,19.54-6.99,54.21-24.59,71.6" class="stroke" stroke-dasharray="150"><set attributeName="opacity" to="0" dur="6.0s" /><animate attributeName="stroke-dashoffset" from="150" to="0" dur="1.8s" begin="6.0s" fill="freeze" /></path><path d="M71.81,32.48c0.69,1.27,1.53,1.77,1.64,2.98c0.91,9.59,1.49,36.53,2.11,53.75" class="stroke" stroke-dasharray="150"><set attributeName="opacity" to="0" dur="7.7s" /><animate attributeName="stroke-dashoffset" from="150" to="0" dur="1.8s" begin="7.7s" fill="freeze" /></path><path d="M73.19,34.49c7.84-1.38,15.27-2.38,19.67-2.58c1.88-0.09,3.36,1.04,3.21,3.28c-0.32,4.81-1.79,30.2-3.01,48.69" class="stroke" stroke-dasharray="150"><set attributeName="opacity" to="0" dur="9.1s" /><animate attributeName="stroke-dashoffset" from="150" to="0" dur="1.8s" begin="9.1s" fill="freeze" /></path><path d="M75.83,86.28c5.58-0.47,12.14-1.62,19.44-2.18" class="stroke" stroke-dasharray="150"><set attributeName="opacity" to="0" dur="10.799999999999999s" /><animate attributeName="stroke-dashoffset" from="150" to="0" dur="1.8s" begin="10.799999999999999s" fill="freeze" /></path><text x="90" y="120" id="reset-kvg-073c8">⟳</text><text x="70" y="120" id="pause-kvg-073c8">◼</text><script type="text/javascript"><![CDATA[function RecurringTimer(e,t){var n,r,i=t;this.pause=function(){window.clearTimeout(n);i-=new Date-r};var s=function(){r=new Date;n=window.setTimeout(function(){i=t;s();e()},i)};this.clear=function(){window.clearTimeout(n);i=t;n=window.setTimeout(function(){i=t;s();e()},i)};this.resume=s;this.resume()}function invoketimer(){timer=new RecurringTimer(function(){svg.setCurrentTime(0)},12700.0)}var svg=document.getElementById("kvg-073c8");var pause=document.getElementById("pause-kvg-073c8");var reset=document.getElementById("reset-kvg-073c8");var timer;invoketimer();reset.onclick=function(){svg.setCurrentTime(0);timer.clear();svg.unpauseAnimations();pause.innerHTML = "◼";};pause.onclick=function(){if(svg.animationsPaused()){svg.unpauseAnimations();timer.resume();pause.innerHTML="◼"}else{svg.pauseAnimations();timer.pause();pause.innerHTML="▶"}}]]></script></svg>