<svg id="kvg-073e0-Kaisho" class="kanjivg" width="106" height="126" xmlns="http://www.w3.org/2000/svg" xmlns:xlink="http://www.w3.org/1999/xlink" xml:space="preserve" version="1.1" baseProfile="full"><defs><style type="text/css"><![CDATA[path.black{fill:none;stroke:black;stroke-width:5;stroke-linecap:round;stroke-linejoin:round;}path.grey{fill:none;stroke:#ddd;stroke-width:5;stroke-linecap:round;stroke-linejoin:round;}path.stroke{fill:none;stroke:black;stroke-width:5;stroke-linecap:round;stroke-linejoin:round;}rect{fill:none;stroke:#555;stroke-width:2;} text{font-size:16px;font-family:Segoe UI Symbol,Cambria Math,DejaVu Sans,Symbola,Quivira,STIX,Code2000;-webkit-touch-callout:none;cursor:pointer;-webkit-user-select:none;-khtml-user-select:none;-moz-user-select:none;-ms-user-select:none;user-select: none;}text:hover{color:#777;}#reset{font-weight:bold;}]]></style><marker id="markerStart" markerWidth="8" markerHeight="8" style="overflow:visible;"><circle cx="0" cy="0" r="1.5" style="stroke:none;fill:red;fill-opacity:0.5;"/></marker><marker id="markerEnd" style="overflow:visible;"><circle cx="0" cy="0" r="0.8" style="stroke:none;fill:blue;fill-opacity:0.5;"><animate attributeName="opacity" from="1" to="0" dur="3s" repeatCount="indefinite" /></circle></marker></defs><rect x="4" y="4" width="100" height="100" /><path d="M10.65,28.02c0.52,0.33,3.35,0.41,3.88,0.31c2.45-0.45,12.43-1.9,18.32-2.39c0.8-0.07,2.29-0.24,2.96,0.04" class="grey" /><path d="M22.59,30.08c0.81,0.8,1.38,2.51,1.38,3.15c0,5.39-0.18,29.02-0.18,39.66" class="grey" /><path d="M10.98,50.35c0.52,0.37,3.14,0.38,3.67,0.34c5.1-0.44,12.6-2.69,17.38-3.3c0.64-0.08,2-0.15,2.96,0.17" class="grey" /><path d="M10.75,76.9c0.51,0.2,2.49,1.75,3.26,1.36c4.89-2.49,11.88-6.12,19.33-10.42" class="grey" /><path d="M50.78,22.74c0.03,0.51,0.11,1.48-0.06,2.06c-2.06,7.22-5.11,13.85-10.48,19.67" class="grey" /><path d="M49.76,33.55c0.6,0.23,1.69,0.26,2.3,0.23c6.23-0.26,20.55-3.52,28.13-4.27c1-0.1,1.6,0.11,2.1,0.22" class="grey" /><path d="M39.93,52.22c0.61,0.15,2.23,0.55,3.84,0.44c6.41-0.44,30.64-3.07,41.75-3.8c1.61-0.11,3.04,0.15,4.05,0.29" class="grey" /><path d="M61.43,11.75c1.32,1.01,1.86,2.24,2.15,3.23s-0.29,75.27-0.29,76.52c0,12.5-4.91,3.12-6.54,1.5" class="grey" /><path d="M62.04,53.01C56.76,64.06,43.09,79.82,32.1,86.08" class="grey" /><path d="M64.78,52.28c3.86,5.68,20.15,21.9,25.9,26.65c1.43,1.19,2.58,1.79,3.98,2.15" class="grey" /><path d="M10.65,28.02c0.52,0.33,3.35,0.41,3.88,0.31c2.45-0.45,12.43-1.9,18.32-2.39c0.8-0.07,2.29-0.24,2.96,0.04" class="stroke" stroke-dasharray="150"><animate attributeName="stroke-dashoffset" from="150" to="0" dur="1.8s" begin="0.0s" fill="freeze" /></path><path d="M22.59,30.08c0.81,0.8,1.38,2.51,1.38,3.15c0,5.39-0.18,29.02-0.18,39.66" class="stroke" stroke-dasharray="150"><set attributeName="opacity" to="0" dur="1.0s" /><animate attributeName="stroke-dashoffset" from="150" to="0" dur="1.8s" begin="1.0s" fill="freeze" /></path><path d="M10.98,50.35c0.52,0.37,3.14,0.38,3.67,0.34c5.1-0.44,12.6-2.69,17.38-3.3c0.64-0.08,2-0.15,2.96,0.17" class="stroke" stroke-dasharray="150"><set attributeName="opacity" to="0" dur="2.1s" /><animate attributeName="stroke-dashoffset" from="150" to="0" dur="1.8s" begin="2.1s" fill="freeze" /></path><path d="M10.75,76.9c0.51,0.2,2.49,1.75,3.26,1.36c4.89-2.49,11.88-6.12,19.33-10.42" class="stroke" stroke-dasharray="150"><set attributeName="opacity" to="0" dur="3.1s" /><animate attributeName="stroke-dashoffset" from="150" to="0" dur="1.8s" begin="3.1s" fill="freeze" /></path><path d="M50.78,22.74c0.03,0.51,0.11,1.48-0.06,2.06c-2.06,7.22-5.11,13.85-10.48,19.67" class="stroke" stroke-dasharray="150"><set attributeName="opacity" to="0" dur="4.1s" /><animate attributeName="stroke-dashoffset" from="150" to="0" dur="1.8s" begin="4.1s" fill="freeze" /></path><path d="M49.76,33.55c0.6,0.23,1.69,0.26,2.3,0.23c6.23-0.26,20.55-3.52,28.13-4.27c1-0.1,1.6,0.11,2.1,0.22" class="stroke" stroke-dasharray="150"><set attributeName="opacity" to="0" dur="5.1s" /><animate attributeName="stroke-dashoffset" from="150" to="0" dur="1.8s" begin="5.1s" fill="freeze" /></path><path d="M39.93,52.22c0.61,0.15,2.23,0.55,3.84,0.44c6.41-0.44,30.64-3.07,41.75-3.8c1.61-0.11,3.04,0.15,4.05,0.29" class="stroke" stroke-dasharray="150"><set attributeName="opacity" to="0" dur="6.1s" /><animate attributeName="stroke-dashoffset" from="150" to="0" dur="1.8s" begin="6.1s" fill="freeze" /></path><path d="M61.43,11.75c1.32,1.01,1.86,2.24,2.15,3.23s-0.29,75.27-0.29,76.52c0,12.5-4.91,3.12-6.54,1.5" class="stroke" stroke-dasharray="150"><set attributeName="opacity" to="0" dur="7.3s" /><animate attributeName="stroke-dashoffset" from="150" to="0" dur="1.8s" begin="7.3s" fill="freeze" /></path><path d="M62.04,53.01C56.76,64.06,43.09,79.82,32.1,86.08" class="stroke" stroke-dasharray="150"><set attributeName="opacity" to="0" dur="9.1s" /><animate attributeName="stroke-dashoffset" from="150" to="0" dur="1.8s" begin="9.1s" fill="freeze" /></path><path d="M64.78,52.28c3.86,5.68,20.15,21.9,25.9,26.65c1.43,1.19,2.58,1.79,3.98,2.15" class="stroke" stroke-dasharray="150"><set attributeName="opacity" to="0" dur="10.299999999999999s" /><animate attributeName="stroke-dashoffset" from="150" to="0" dur="1.8s" begin="10.299999999999999s" fill="freeze" /></path><text x="90" y="120" id="reset-kvg-073e0-Kaisho">⟳</text><text x="70" y="120" id="pause-kvg-073e0-Kaisho">◼</text><script type="text/javascript"><![CDATA[function RecurringTimer(e,t){var n,r,i=t;this.pause=function(){window.clearTimeout(n);i-=new Date-r};var s=function(){r=new Date;n=window.setTimeout(function(){i=t;s();e()},i)};this.clear=function(){window.clearTimeout(n);i=t;n=window.setTimeout(function(){i=t;s();e()},i)};this.resume=s;this.resume()}function invoketimer(){timer=new RecurringTimer(function(){svg.setCurrentTime(0)},12399.999999999998)}var svg=document.getElementById("kvg-073e0-Kaisho");var pause=document.getElementById("pause-kvg-073e0-Kaisho");var reset=document.getElementById("reset-kvg-073e0-Kaisho");var timer;invoketimer();reset.onclick=function(){svg.setCurrentTime(0);timer.clear();svg.unpauseAnimations();pause.innerHTML = "◼";};pause.onclick=function(){if(svg.animationsPaused()){svg.unpauseAnimations();timer.resume();pause.innerHTML="◼"}else{svg.pauseAnimations();timer.pause();pause.innerHTML="▶"}}]]></script></svg>