<svg id="kvg-07441-KaishoVtLst" class="kanjivg" width="106" height="126" xmlns="http://www.w3.org/2000/svg" xmlns:xlink="http://www.w3.org/1999/xlink" xml:space="preserve" version="1.1" baseProfile="full"><defs><style type="text/css"><![CDATA[path.black{fill:none;stroke:black;stroke-width:5;stroke-linecap:round;stroke-linejoin:round;}path.grey{fill:none;stroke:#ddd;stroke-width:5;stroke-linecap:round;stroke-linejoin:round;}path.stroke{fill:none;stroke:black;stroke-width:5;stroke-linecap:round;stroke-linejoin:round;}rect{fill:none;stroke:#555;stroke-width:2;} text{font-size:16px;font-family:Segoe UI Symbol,Cambria Math,DejaVu Sans,Symbola,Quivira,STIX,Code2000;-webkit-touch-callout:none;cursor:pointer;-webkit-user-select:none;-khtml-user-select:none;-moz-user-select:none;-ms-user-select:none;user-select: none;}text:hover{color:#777;}#reset{font-weight:bold;}]]></style><marker id="markerStart" markerWidth="8" markerHeight="8" style="overflow:visible;"><circle cx="0" cy="0" r="1.5" style="stroke:none;fill:red;fill-opacity:0.5;"/></marker><marker id="markerEnd" style="overflow:visible;"><circle cx="0" cy="0" r="0.8" style="stroke:none;fill:blue;fill-opacity:0.5;"><animate attributeName="opacity" from="1" to="0" dur="3s" repeatCount="indefinite" /></circle></marker></defs><rect x="4" y="4" width="100" height="100" /><path d="M12.1,25.25c0.67,0.37,4.31,0.45,4.99,0.34c3.16-0.5,14.48-2.09,22.06-2.64c1.03-0.07,2.95-0.26,3.8,0.04" class="grey" /><path d="M13.52,52c0.59,0.4,4.75,0.46,5.36,0.37c3.47-0.53,15.28-2.62,20.08-3.19c0.74-0.09,3.44-0.16,4.54,0.19" class="grey" /><path d="M13.75,85.25c1.25,1,3.86,0.93,4.74,0.5c5.61-2.75,14.12-7.25,22.67-12" class="grey" /><path d="M27.05,27.52c0.93,0.88,1.58,2.78,1.58,3.48c0,5.95,0.05,44.62-0.13,48.57" class="grey" /><path d="M47.07,16.03c0.35,0.43,0.76,1.19,0.96,1.73c1.57,4.44,3.14,16.56,4.11,24.84" class="grey" /><path d="M48.67,17.57c11.39-1.14,31.73-2.07,40.23-3.02c3.12-0.35,3.96,1.84,3.8,3.09c-0.59,4.56-1.92,15.5-3.35,23.11" class="grey" /><path d="M56.52,27c0.59,0.4,4.75,0.46,5.36,0.37c3.47-0.53,12.28-1.12,17.08-1.69c0.74-0.09,3.44-0.16,4.54,0.19" class="grey" /><path d="M57.77,39.5c0.56,0.4,4.53,0.46,5.11,0.37c3.31-0.53,11.71-1.12,16.29-1.69c0.71-0.09,3.28-0.16,4.33,0.19" class="grey" /><path d="M54.79,49.15c0.71,1.01,1.24,2.73,1.24,4.07c0,1.35-0.48,43.43-0.48,44.1" class="grey" /><path d="M55.68,50.94c2.7-0.17,25.91-2.59,28.37-2.79c2.05-0.17,3.49,0.94,3.49,4.13c0,4.83-0.49,28.99-0.48,43.78" class="grey" /><path d="M56.24,63.65c5.27-0.22,10.54-0.88,15.79-1.38c1.63-0.16,3.24-0.31,4.79-0.45" class="grey" /><path d="M56.11,78.22c5.21-0.42,10.93-0.69,16.15-0.96c1.51-0.08,3.01-0.15,4.47-0.21" class="grey" /><path d="M56.08,93.81c6.14-0.3,23.95-1.98,30.9-1.98" class="grey" /><path d="M12.1,25.25c0.67,0.37,4.31,0.45,4.99,0.34c3.16-0.5,14.48-2.09,22.06-2.64c1.03-0.07,2.95-0.26,3.8,0.04" class="stroke" stroke-dasharray="150"><animate attributeName="stroke-dashoffset" from="150" to="0" dur="1.8s" begin="0.0s" fill="freeze" /></path><path d="M13.52,52c0.59,0.4,4.75,0.46,5.36,0.37c3.47-0.53,15.28-2.62,20.08-3.19c0.74-0.09,3.44-0.16,4.54,0.19" class="stroke" stroke-dasharray="150"><set attributeName="opacity" to="0" dur="1.0s" /><animate attributeName="stroke-dashoffset" from="150" to="0" dur="1.8s" begin="1.0s" fill="freeze" /></path><path d="M13.75,85.25c1.25,1,3.86,0.93,4.74,0.5c5.61-2.75,14.12-7.25,22.67-12" class="stroke" stroke-dasharray="150"><set attributeName="opacity" to="0" dur="2.0s" /><animate attributeName="stroke-dashoffset" from="150" to="0" dur="1.8s" begin="2.0s" fill="freeze" /></path><path d="M27.05,27.52c0.93,0.88,1.58,2.78,1.58,3.48c0,5.95,0.05,44.62-0.13,48.57" class="stroke" stroke-dasharray="150"><set attributeName="opacity" to="0" dur="3.0s" /><animate attributeName="stroke-dashoffset" from="150" to="0" dur="1.8s" begin="3.0s" fill="freeze" /></path><path d="M47.07,16.03c0.35,0.43,0.76,1.19,0.96,1.73c1.57,4.44,3.14,16.56,4.11,24.84" class="stroke" stroke-dasharray="150"><set attributeName="opacity" to="0" dur="4.3s" /><animate attributeName="stroke-dashoffset" from="150" to="0" dur="1.8s" begin="4.3s" fill="freeze" /></path><path d="M48.67,17.57c11.39-1.14,31.73-2.07,40.23-3.02c3.12-0.35,3.96,1.84,3.8,3.09c-0.59,4.56-1.92,15.5-3.35,23.11" class="stroke" stroke-dasharray="150"><set attributeName="opacity" to="0" dur="5.3s" /><animate attributeName="stroke-dashoffset" from="150" to="0" dur="1.8s" begin="5.3s" fill="freeze" /></path><path d="M56.52,27c0.59,0.4,4.75,0.46,5.36,0.37c3.47-0.53,12.28-1.12,17.08-1.69c0.74-0.09,3.44-0.16,4.54,0.19" class="stroke" stroke-dasharray="150"><set attributeName="opacity" to="0" dur="6.8s" /><animate attributeName="stroke-dashoffset" from="150" to="0" dur="1.8s" begin="6.8s" fill="freeze" /></path><path d="M57.77,39.5c0.56,0.4,4.53,0.46,5.11,0.37c3.31-0.53,11.71-1.12,16.29-1.69c0.71-0.09,3.28-0.16,4.33,0.19" class="stroke" stroke-dasharray="150"><set attributeName="opacity" to="0" dur="7.8s" /><animate attributeName="stroke-dashoffset" from="150" to="0" dur="1.8s" begin="7.8s" fill="freeze" /></path><path d="M54.79,49.15c0.71,1.01,1.24,2.73,1.24,4.07c0,1.35-0.48,43.43-0.48,44.1" class="stroke" stroke-dasharray="150"><set attributeName="opacity" to="0" dur="8.8s" /><animate attributeName="stroke-dashoffset" from="150" to="0" dur="1.8s" begin="8.8s" fill="freeze" /></path><path d="M55.68,50.94c2.7-0.17,25.91-2.59,28.37-2.79c2.05-0.17,3.49,0.94,3.49,4.13c0,4.83-0.49,28.99-0.48,43.78" class="stroke" stroke-dasharray="150"><set attributeName="opacity" to="0" dur="10.0s" /><animate attributeName="stroke-dashoffset" from="150" to="0" dur="1.8s" begin="10.0s" fill="freeze" /></path><path d="M56.24,63.65c5.27-0.22,10.54-0.88,15.79-1.38c1.63-0.16,3.24-0.31,4.79-0.45" class="stroke" stroke-dasharray="150"><set attributeName="opacity" to="0" dur="11.7s" /><animate attributeName="stroke-dashoffset" from="150" to="0" dur="1.8s" begin="11.7s" fill="freeze" /></path><path d="M56.11,78.22c5.21-0.42,10.93-0.69,16.15-0.96c1.51-0.08,3.01-0.15,4.47-0.21" class="stroke" stroke-dasharray="150"><set attributeName="opacity" to="0" dur="12.7s" /><animate attributeName="stroke-dashoffset" from="150" to="0" dur="1.8s" begin="12.7s" fill="freeze" /></path><path d="M56.08,93.81c6.14-0.3,23.95-1.98,30.9-1.98" class="stroke" stroke-dasharray="150"><set attributeName="opacity" to="0" dur="13.7s" /><animate attributeName="stroke-dashoffset" from="150" to="0" dur="1.8s" begin="13.7s" fill="freeze" /></path><text x="90" y="120" id="reset-kvg-07441-KaishoVtLst">⟳</text><text x="70" y="120" id="pause-kvg-07441-KaishoVtLst">◼</text><script type="text/javascript"><![CDATA[function RecurringTimer(e,t){var n,r,i=t;this.pause=function(){window.clearTimeout(n);i-=new Date-r};var s=function(){r=new Date;n=window.setTimeout(function(){i=t;s();e()},i)};this.clear=function(){window.clearTimeout(n);i=t;n=window.setTimeout(function(){i=t;s();e()},i)};this.resume=s;this.resume()}function invoketimer(){timer=new RecurringTimer(function(){svg.setCurrentTime(0)},15700.0)}var svg=document.getElementById("kvg-07441-KaishoVtLst");var pause=document.getElementById("pause-kvg-07441-KaishoVtLst");var reset=document.getElementById("reset-kvg-07441-KaishoVtLst");var timer;invoketimer();reset.onclick=function(){svg.setCurrentTime(0);timer.clear();svg.unpauseAnimations();pause.innerHTML = "◼";};pause.onclick=function(){if(svg.animationsPaused()){svg.unpauseAnimations();timer.resume();pause.innerHTML="◼"}else{svg.pauseAnimations();timer.pause();pause.innerHTML="▶"}}]]></script></svg>