<svg id="kvg-07460" class="kanjivg" width="106" height="126" xmlns="http://www.w3.org/2000/svg" xmlns:xlink="http://www.w3.org/1999/xlink" xml:space="preserve" version="1.1" baseProfile="full"><defs><style type="text/css"><![CDATA[path.black{fill:none;stroke:black;stroke-width:5;stroke-linecap:round;stroke-linejoin:round;}path.grey{fill:none;stroke:#ddd;stroke-width:5;stroke-linecap:round;stroke-linejoin:round;}path.stroke{fill:none;stroke:black;stroke-width:5;stroke-linecap:round;stroke-linejoin:round;}rect{fill:none;stroke:#555;stroke-width:2;} text{font-size:16px;font-family:Segoe UI Symbol,Cambria Math,DejaVu Sans,Symbola,Quivira,STIX,Code2000;-webkit-touch-callout:none;cursor:pointer;-webkit-user-select:none;-khtml-user-select:none;-moz-user-select:none;-ms-user-select:none;user-select: none;}text:hover{color:#777;}#reset{font-weight:bold;}]]></style><marker id="markerStart" markerWidth="8" markerHeight="8" style="overflow:visible;"><circle cx="0" cy="0" r="1.5" style="stroke:none;fill:red;fill-opacity:0.5;"/></marker><marker id="markerEnd" style="overflow:visible;"><circle cx="0" cy="0" r="0.8" style="stroke:none;fill:blue;fill-opacity:0.5;"><animate attributeName="opacity" from="1" to="0" dur="3s" repeatCount="indefinite" /></circle></marker></defs><rect x="4" y="4" width="100" height="100" /><path d="M11.35,23.5c2.27,0.63,4.22,0.36,5.79,0.11c3.81-0.59,11.79-1.74,17.62-2.28c1.37-0.13,3.36-0.61,4.68-0.07" class="grey" /><path d="M25.3,24.77c0.93,0.88,1.58,2.78,1.58,3.48c0,5.95-0.01,45.05-0.01,49.88" class="grey" /><path d="M12.27,50.51c2.11,0.74,5.01,0.33,6.5,0.09c5.23-0.85,11.85-2.41,15.46-3.02c0.65-0.11,2.76-0.45,4.01-0.26" class="grey" /><path d="M12.75,84.43c1.23,1.06,2.5,1.2,4.16,0.31c5.5-2.93,12.34-6.86,22-12.49" class="grey" /><path d="M59.85,11.44c0.1,1.02-0.23,2.04-0.84,2.88c-2.51,3.43-5.88,6.18-12.23,10.57" class="grey" /><path d="M44.12,26.6c0.96,0.96,1.24,1.78,1.24,3.09c0,3.82-0.1,16.94-0.1,21.69c0,1.8,1.58,2.54,3,1.25c2.62-2.38,7.38-7.62,14.04-13.4" class="grey" /><path d="M57.38,28.87c4.15,3.63,6.8,9,8.39,14.28" class="grey" /><path d="M67.12,20.24c1.82,0.78,4.85,0.74,6.76,0.41c5.78-1.01,13.48-2.36,17.62-2.96c3.15-0.46,5.01,0.54,4.75,4.03c-0.33,4.53-3.71,19.19-6.83,26.3c-1.99,4.54-4.98,5.65-7.98,1.21" class="grey" /><path d="M79.69,23.5c0.04,0.67,0.14,1.75-0.09,2.67C77.04,36.27,73,44.5,63.83,53.63" class="grey" /><path d="M48.11,63.47c1.02,1.02,1.25,2.35,1.42,3.52c0.97,6.7,1.81,15.52,2.69,24.49c0.22,2.25,0.45,4.52,0.68,6.76" class="grey" /><path d="M50.12,64.9c10.84-1.42,27.5-3.74,35.87-4.53c4.1-0.38,6.21,0.67,5.67,5.01c-0.96,7.6-1.81,15.1-3.13,24.12c-0.26,1.81-0.55,3.68-0.85,5.65" class="grey" /><path d="M69.39,64.54c0.56,0.56,1.03,1.7,1.02,3.18c-0.02,7.6-0.03,22.28-0.03,24.77" class="grey" /><path d="M52.19,79.44c8.44-1.07,27.94-3.19,37.43-3.77" class="grey" /><path d="M53.69,94.95c8.78-0.79,23.16-2.58,33.32-2.74" class="grey" /><path d="M11.35,23.5c2.27,0.63,4.22,0.36,5.79,0.11c3.81-0.59,11.79-1.74,17.62-2.28c1.37-0.13,3.36-0.61,4.68-0.07" class="stroke" stroke-dasharray="150"><animate attributeName="stroke-dashoffset" from="150" to="0" dur="1.8s" begin="0.0s" fill="freeze" /></path><path d="M25.3,24.77c0.93,0.88,1.58,2.78,1.58,3.48c0,5.95-0.01,45.05-0.01,49.88" class="stroke" stroke-dasharray="150"><set attributeName="opacity" to="0" dur="1.0s" /><animate attributeName="stroke-dashoffset" from="150" to="0" dur="1.8s" begin="1.0s" fill="freeze" /></path><path d="M12.27,50.51c2.11,0.74,5.01,0.33,6.5,0.09c5.23-0.85,11.85-2.41,15.46-3.02c0.65-0.11,2.76-0.45,4.01-0.26" class="stroke" stroke-dasharray="150"><set attributeName="opacity" to="0" dur="2.3s" /><animate attributeName="stroke-dashoffset" from="150" to="0" dur="1.8s" begin="2.3s" fill="freeze" /></path><path d="M12.75,84.43c1.23,1.06,2.5,1.2,4.16,0.31c5.5-2.93,12.34-6.86,22-12.49" class="stroke" stroke-dasharray="150"><set attributeName="opacity" to="0" dur="3.3s" /><animate attributeName="stroke-dashoffset" from="150" to="0" dur="1.8s" begin="3.3s" fill="freeze" /></path><path d="M59.85,11.44c0.1,1.02-0.23,2.04-0.84,2.88c-2.51,3.43-5.88,6.18-12.23,10.57" class="stroke" stroke-dasharray="150"><set attributeName="opacity" to="0" dur="4.3s" /><animate attributeName="stroke-dashoffset" from="150" to="0" dur="1.8s" begin="4.3s" fill="freeze" /></path><path d="M44.12,26.6c0.96,0.96,1.24,1.78,1.24,3.09c0,3.82-0.1,16.94-0.1,21.69c0,1.8,1.58,2.54,3,1.25c2.62-2.38,7.38-7.62,14.04-13.4" class="stroke" stroke-dasharray="150"><set attributeName="opacity" to="0" dur="5.2s" /><animate attributeName="stroke-dashoffset" from="150" to="0" dur="1.8s" begin="5.2s" fill="freeze" /></path><path d="M57.38,28.87c4.15,3.63,6.8,9,8.39,14.28" class="stroke" stroke-dasharray="150"><set attributeName="opacity" to="0" dur="6.4s" /><animate attributeName="stroke-dashoffset" from="150" to="0" dur="1.8s" begin="6.4s" fill="freeze" /></path><path d="M67.12,20.24c1.82,0.78,4.85,0.74,6.76,0.41c5.78-1.01,13.48-2.36,17.62-2.96c3.15-0.46,5.01,0.54,4.75,4.03c-0.33,4.53-3.71,19.19-6.83,26.3c-1.99,4.54-4.98,5.65-7.98,1.21" class="stroke" stroke-dasharray="150"><set attributeName="opacity" to="0" dur="7.300000000000001s" /><animate attributeName="stroke-dashoffset" from="150" to="0" dur="1.8s" begin="7.300000000000001s" fill="freeze" /></path><path d="M79.69,23.5c0.04,0.67,0.14,1.75-0.09,2.67C77.04,36.27,73,44.5,63.83,53.63" class="stroke" stroke-dasharray="150"><set attributeName="opacity" to="0" dur="9.0s" /><animate attributeName="stroke-dashoffset" from="150" to="0" dur="1.8s" begin="9.0s" fill="freeze" /></path><path d="M48.11,63.47c1.02,1.02,1.25,2.35,1.42,3.52c0.97,6.7,1.81,15.52,2.69,24.49c0.22,2.25,0.45,4.52,0.68,6.76" class="stroke" stroke-dasharray="150"><set attributeName="opacity" to="0" dur="10.0s" /><animate attributeName="stroke-dashoffset" from="150" to="0" dur="1.8s" begin="10.0s" fill="freeze" /></path><path d="M50.12,64.9c10.84-1.42,27.5-3.74,35.87-4.53c4.1-0.38,6.21,0.67,5.67,5.01c-0.96,7.6-1.81,15.1-3.13,24.12c-0.26,1.81-0.55,3.68-0.85,5.65" class="stroke" stroke-dasharray="150"><set attributeName="opacity" to="0" dur="11.0s" /><animate attributeName="stroke-dashoffset" from="150" to="0" dur="1.8s" begin="11.0s" fill="freeze" /></path><path d="M69.39,64.54c0.56,0.56,1.03,1.7,1.02,3.18c-0.02,7.6-0.03,22.28-0.03,24.77" class="stroke" stroke-dasharray="150"><set attributeName="opacity" to="0" dur="12.7s" /><animate attributeName="stroke-dashoffset" from="150" to="0" dur="1.8s" begin="12.7s" fill="freeze" /></path><path d="M52.19,79.44c8.44-1.07,27.94-3.19,37.43-3.77" class="stroke" stroke-dasharray="150"><set attributeName="opacity" to="0" dur="13.7s" /><animate attributeName="stroke-dashoffset" from="150" to="0" dur="1.8s" begin="13.7s" fill="freeze" /></path><path d="M53.69,94.95c8.78-0.79,23.16-2.58,33.32-2.74" class="stroke" stroke-dasharray="150"><set attributeName="opacity" to="0" dur="14.7s" /><animate attributeName="stroke-dashoffset" from="150" to="0" dur="1.8s" begin="14.7s" fill="freeze" /></path><text x="90" y="120" id="reset-kvg-07460">⟳</text><text x="70" y="120" id="pause-kvg-07460">◼</text><script type="text/javascript"><![CDATA[function RecurringTimer(e,t){var n,r,i=t;this.pause=function(){window.clearTimeout(n);i-=new Date-r};var s=function(){r=new Date;n=window.setTimeout(function(){i=t;s();e()},i)};this.clear=function(){window.clearTimeout(n);i=t;n=window.setTimeout(function(){i=t;s();e()},i)};this.resume=s;this.resume()}function invoketimer(){timer=new RecurringTimer(function(){svg.setCurrentTime(0)},16700.0)}var svg=document.getElementById("kvg-07460");var pause=document.getElementById("pause-kvg-07460");var reset=document.getElementById("reset-kvg-07460");var timer;invoketimer();reset.onclick=function(){svg.setCurrentTime(0);timer.clear();svg.unpauseAnimations();pause.innerHTML = "◼";};pause.onclick=function(){if(svg.animationsPaused()){svg.unpauseAnimations();timer.resume();pause.innerHTML="◼"}else{svg.pauseAnimations();timer.pause();pause.innerHTML="▶"}}]]></script></svg>