<svg id="kvg-07511" class="kanjivg" width="106" height="126" xmlns="http://www.w3.org/2000/svg" xmlns:xlink="http://www.w3.org/1999/xlink" xml:space="preserve" version="1.1" baseProfile="full"><defs><style type="text/css"><![CDATA[path.black{fill:none;stroke:black;stroke-width:5;stroke-linecap:round;stroke-linejoin:round;}path.grey{fill:none;stroke:#ddd;stroke-width:5;stroke-linecap:round;stroke-linejoin:round;}path.stroke{fill:none;stroke:black;stroke-width:5;stroke-linecap:round;stroke-linejoin:round;}rect{fill:none;stroke:#555;stroke-width:2;} text{font-size:16px;font-family:Segoe UI Symbol,Cambria Math,DejaVu Sans,Symbola,Quivira,STIX,Code2000;-webkit-touch-callout:none;cursor:pointer;-webkit-user-select:none;-khtml-user-select:none;-moz-user-select:none;-ms-user-select:none;user-select: none;}text:hover{color:#777;}#reset{font-weight:bold;}]]></style><marker id="markerStart" markerWidth="8" markerHeight="8" style="overflow:visible;"><circle cx="0" cy="0" r="1.5" style="stroke:none;fill:red;fill-opacity:0.5;"/></marker><marker id="markerEnd" style="overflow:visible;"><circle cx="0" cy="0" r="0.8" style="stroke:none;fill:blue;fill-opacity:0.5;"><animate attributeName="opacity" from="1" to="0" dur="3s" repeatCount="indefinite" /></circle></marker></defs><rect x="4" y="4" width="100" height="100" /><path d="M19.659375,14.98625 c 0.07,0.94 0.06,1.89 -0.36,2.73 -1.61,3.21 -5.544375,9.222083 -10.14625,13.860833" class="grey" /><path d="M 31.528125,10.245417 c 2.4221,0.281288 3.918494,2.273817 4.847006,2.975391 2.725664,2.059485 10.622333,10.270773 14.741327,15.667109" class="grey" /><path d="M11.47,33.8c0.93,0.93,1.01,1.65,1.29,2.7c0.99,5.52,1.83,10.85,2.62,16.16c0.3,2.03,0.59,4.06,0.87,6.1" class="grey" /><path d="M13.49,35.68c9.02-1.38,23.25-3.65,31.64-4.59c3.79-0.42,5.61,0.64,5.12,4.65c-0.43,3.55-1.29,8.66-2.4,14.38c-0.38,1.95-0.78,3.98-1.21,6.04" class="grey" /><path d="M30.14,34.76c0.8,0.8,0.99,1.62,0.99,2.75c0,5.31,0.1,12.37,0.1,17.49" class="grey" /><path d="M 19,40.5 c 1.75,1.16 5.8725,6.927292 6.3125,8.727292" class="grey" /><path d="M 43.38,38.47 c 0.01,0.21 0.02,0.53 -0.02,0.83 -0.2,1.74 -2.7325,6.818958 -4.3425,9.158958" class="grey" /><path d="M17.55,57.02c8.58-0.9,19.2-1.9,28.17-2.51" class="grey" /><path d="M18.11,65.05c0.92,0.92,1.24,2.34,1.34,3.19c0.73,6.21,1.35,12.8,2.15,20.14c0.22,1.98,0.45,4.02,0.7,6.12" class="grey" /><path d="M19.59,66.77c5.34-0.73,15.25-2.51,20.04-3.12c3.03-0.38,4.71,0.64,4.45,3.84c-0.31,3.88-1.06,11.95-1.99,19.63c-0.22,1.84-0.46,3.66-0.7,5.4" class="grey" /><path d="M21.57,78.99c5.56-0.61,16.06-1.86,21.38-2.03" class="grey" /><path d="M23.27,92.17c6.34-0.42,11.1-1.17,17.27-1.36" class="grey" /><path d="M54.8,20.95c2.71,0.61,5.44,0.48,8.19,0.09c7.3-0.75,17.03-1.28,23.26-1.63c2.34-0.23,4.68-0.19,7.02,0.13" class="grey" /><path d="m 67.92,24.25 c 0.76,0.5 1.565481,2.761123 1.36,3.75 -4.068957,19.581832 -8.025888,40.705157 -12.212084,60.211198" class="grey" /><path d="m 48.842448,91.327396 c 0.9425,0.349114 2.621198,0.146563 3.57026,-0.476354 C 57.952708,87.621042 71.86,80.32 77.51,77.5" class="grey" /><path d="M67.74,43.29c1.63,0.25,3.22,0.12,4.76-0.4c2.62-0.67,6.88-1.86,9.5-2.64c2.65-0.78,4.08,0.24,3.69,3.5c-0.68,5.52-2.39,20.42-4.12,30.54c-3.15,18.52-1.41,20.26,5.66,20.52c4.76,0.17,8.08-0.56,8.25-10.29" class="grey" /><path d="M68,56.08c3.15,2.36,8.65,9.71,9.44,13.38" class="grey" /><path d="M19.659375,14.98625 c 0.07,0.94 0.06,1.89 -0.36,2.73 -1.61,3.21 -5.544375,9.222083 -10.14625,13.860833" class="stroke" stroke-dasharray="150"><animate attributeName="stroke-dashoffset" from="150" to="0" dur="1.8s" begin="0.0s" fill="freeze" /></path><path d="M 31.528125,10.245417 c 2.4221,0.281288 3.918494,2.273817 4.847006,2.975391 2.725664,2.059485 10.622333,10.270773 14.741327,15.667109" class="stroke" stroke-dasharray="150"><set attributeName="opacity" to="0" dur="1.0s" /><animate attributeName="stroke-dashoffset" from="150" to="0" dur="1.8s" begin="1.0s" fill="freeze" /></path><path d="M11.47,33.8c0.93,0.93,1.01,1.65,1.29,2.7c0.99,5.52,1.83,10.85,2.62,16.16c0.3,2.03,0.59,4.06,0.87,6.1" class="stroke" stroke-dasharray="150"><set attributeName="opacity" to="0" dur="2.0s" /><animate attributeName="stroke-dashoffset" from="150" to="0" dur="1.8s" begin="2.0s" fill="freeze" /></path><path d="M13.49,35.68c9.02-1.38,23.25-3.65,31.64-4.59c3.79-0.42,5.61,0.64,5.12,4.65c-0.43,3.55-1.29,8.66-2.4,14.38c-0.38,1.95-0.78,3.98-1.21,6.04" class="stroke" stroke-dasharray="150"><set attributeName="opacity" to="0" dur="3.0s" /><animate attributeName="stroke-dashoffset" from="150" to="0" dur="1.8s" begin="3.0s" fill="freeze" /></path><path d="M30.14,34.76c0.8,0.8,0.99,1.62,0.99,2.75c0,5.31,0.1,12.37,0.1,17.49" class="stroke" stroke-dasharray="150"><set attributeName="opacity" to="0" dur="4.5s" /><animate attributeName="stroke-dashoffset" from="150" to="0" dur="1.8s" begin="4.5s" fill="freeze" /></path><path d="M 19,40.5 c 1.75,1.16 5.8725,6.927292 6.3125,8.727292" class="stroke" stroke-dasharray="150"><set attributeName="opacity" to="0" dur="5.5s" /><animate attributeName="stroke-dashoffset" from="150" to="0" dur="1.8s" begin="5.5s" fill="freeze" /></path><path d="M 43.38,38.47 c 0.01,0.21 0.02,0.53 -0.02,0.83 -0.2,1.74 -2.7325,6.818958 -4.3425,9.158958" class="stroke" stroke-dasharray="150"><set attributeName="opacity" to="0" dur="6.4s" /><animate attributeName="stroke-dashoffset" from="150" to="0" dur="1.8s" begin="6.4s" fill="freeze" /></path><path d="M17.55,57.02c8.58-0.9,19.2-1.9,28.17-2.51" class="stroke" stroke-dasharray="150"><set attributeName="opacity" to="0" dur="7.300000000000001s" /><animate attributeName="stroke-dashoffset" from="150" to="0" dur="1.8s" begin="7.300000000000001s" fill="freeze" /></path><path d="M18.11,65.05c0.92,0.92,1.24,2.34,1.34,3.19c0.73,6.21,1.35,12.8,2.15,20.14c0.22,1.98,0.45,4.02,0.7,6.12" class="stroke" stroke-dasharray="150"><set attributeName="opacity" to="0" dur="8.3s" /><animate attributeName="stroke-dashoffset" from="150" to="0" dur="1.8s" begin="8.3s" fill="freeze" /></path><path d="M19.59,66.77c5.34-0.73,15.25-2.51,20.04-3.12c3.03-0.38,4.71,0.64,4.45,3.84c-0.31,3.88-1.06,11.95-1.99,19.63c-0.22,1.84-0.46,3.66-0.7,5.4" class="stroke" stroke-dasharray="150"><set attributeName="opacity" to="0" dur="9.3s" /><animate attributeName="stroke-dashoffset" from="150" to="0" dur="1.8s" begin="9.3s" fill="freeze" /></path><path d="M21.57,78.99c5.56-0.61,16.06-1.86,21.38-2.03" class="stroke" stroke-dasharray="150"><set attributeName="opacity" to="0" dur="10.600000000000001s" /><animate attributeName="stroke-dashoffset" from="150" to="0" dur="1.8s" begin="10.600000000000001s" fill="freeze" /></path><path d="M23.27,92.17c6.34-0.42,11.1-1.17,17.27-1.36" class="stroke" stroke-dasharray="150"><set attributeName="opacity" to="0" dur="11.600000000000001s" /><animate attributeName="stroke-dashoffset" from="150" to="0" dur="1.8s" begin="11.600000000000001s" fill="freeze" /></path><path d="M54.8,20.95c2.71,0.61,5.44,0.48,8.19,0.09c7.3-0.75,17.03-1.28,23.26-1.63c2.34-0.23,4.68-0.19,7.02,0.13" class="stroke" stroke-dasharray="150"><set attributeName="opacity" to="0" dur="12.500000000000002s" /><animate attributeName="stroke-dashoffset" from="150" to="0" dur="1.8s" begin="12.500000000000002s" fill="freeze" /></path><path d="m 67.92,24.25 c 0.76,0.5 1.565481,2.761123 1.36,3.75 -4.068957,19.581832 -8.025888,40.705157 -12.212084,60.211198" class="stroke" stroke-dasharray="150"><set attributeName="opacity" to="0" dur="13.500000000000002s" /><animate attributeName="stroke-dashoffset" from="150" to="0" dur="1.8s" begin="13.500000000000002s" fill="freeze" /></path><path d="m 48.842448,91.327396 c 0.9425,0.349114 2.621198,0.146563 3.57026,-0.476354 C 57.952708,87.621042 71.86,80.32 77.51,77.5" class="stroke" stroke-dasharray="150"><set attributeName="opacity" to="0" dur="15.000000000000002s" /><animate attributeName="stroke-dashoffset" from="150" to="0" dur="1.8s" begin="15.000000000000002s" fill="freeze" /></path><path d="M67.74,43.29c1.63,0.25,3.22,0.12,4.76-0.4c2.62-0.67,6.88-1.86,9.5-2.64c2.65-0.78,4.08,0.24,3.69,3.5c-0.68,5.52-2.39,20.42-4.12,30.54c-3.15,18.52-1.41,20.26,5.66,20.52c4.76,0.17,8.08-0.56,8.25-10.29" class="stroke" stroke-dasharray="150"><set attributeName="opacity" to="0" dur="16.0s" /><animate attributeName="stroke-dashoffset" from="150" to="0" dur="1.8s" begin="16.0s" fill="freeze" /></path><path d="M68,56.08c3.15,2.36,8.65,9.71,9.44,13.38" class="stroke" stroke-dasharray="150"><set attributeName="opacity" to="0" dur="17.8s" /><animate attributeName="stroke-dashoffset" from="150" to="0" dur="1.8s" begin="17.8s" fill="freeze" /></path><text x="90" y="120" id="reset-kvg-07511">⟳</text><text x="70" y="120" id="pause-kvg-07511">◼</text><script type="text/javascript"><![CDATA[function RecurringTimer(e,t){var n,r,i=t;this.pause=function(){window.clearTimeout(n);i-=new Date-r};var s=function(){r=new Date;n=window.setTimeout(function(){i=t;s();e()},i)};this.clear=function(){window.clearTimeout(n);i=t;n=window.setTimeout(function(){i=t;s();e()},i)};this.resume=s;this.resume()}function invoketimer(){timer=new RecurringTimer(function(){svg.setCurrentTime(0)},19700.0)}var svg=document.getElementById("kvg-07511");var pause=document.getElementById("pause-kvg-07511");var reset=document.getElementById("reset-kvg-07511");var timer;invoketimer();reset.onclick=function(){svg.setCurrentTime(0);timer.clear();svg.unpauseAnimations();pause.innerHTML = "◼";};pause.onclick=function(){if(svg.animationsPaused()){svg.unpauseAnimations();timer.resume();pause.innerHTML="◼"}else{svg.pauseAnimations();timer.pause();pause.innerHTML="▶"}}]]></script></svg>