<svg id="kvg-07515-Kaisho" class="kanjivg" width="106" height="126" xmlns="http://www.w3.org/2000/svg" xmlns:xlink="http://www.w3.org/1999/xlink" xml:space="preserve" version="1.1" baseProfile="full"><defs><style type="text/css"><![CDATA[path.black{fill:none;stroke:black;stroke-width:5;stroke-linecap:round;stroke-linejoin:round;}path.grey{fill:none;stroke:#ddd;stroke-width:5;stroke-linecap:round;stroke-linejoin:round;}path.stroke{fill:none;stroke:black;stroke-width:5;stroke-linecap:round;stroke-linejoin:round;}rect{fill:none;stroke:#555;stroke-width:2;} text{font-size:16px;font-family:Segoe UI Symbol,Cambria Math,DejaVu Sans,Symbola,Quivira,STIX,Code2000;-webkit-touch-callout:none;cursor:pointer;-webkit-user-select:none;-khtml-user-select:none;-moz-user-select:none;-ms-user-select:none;user-select: none;}text:hover{color:#777;}#reset{font-weight:bold;}]]></style><marker id="markerStart" markerWidth="8" markerHeight="8" style="overflow:visible;"><circle cx="0" cy="0" r="1.5" style="stroke:none;fill:red;fill-opacity:0.5;"/></marker><marker id="markerEnd" style="overflow:visible;"><circle cx="0" cy="0" r="0.8" style="stroke:none;fill:blue;fill-opacity:0.5;"><animate attributeName="opacity" from="1" to="0" dur="3s" repeatCount="indefinite" /></circle></marker></defs><rect x="4" y="4" width="100" height="100" /><path d="M50.83,8.25c1.66,1.02,3.89,3.97,3.89,6" class="grey" /><path d="M17.78,19.11c2.58,0.33,4.85,0.6,7.82,0.46c17.66-0.82,39.88-1.57,60.46-2.24c3.03-0.1,4.57,0.04,6.83,0.59" class="grey" /><path d="M41.19,38.16c0.06,0.6,0.16,1.71-0.11,2.4c-3.2,8.07-9.58,16.19-20.65,22.95" class="grey" /><path d="M27.76,23.82c0.3,0.6,0.33,1.02-0.15,1.71c-2.01,2.93-3.75,6.66-6.99,8.67c-0.55,0.34-0.34,1.06,0.25,1.18c3.12,0.6,6.06,1.1,9.13,2.47" class="grey" /><path d="M39.3,25.92c0.3,0.35,0.1,1.65-0.25,2.06c-4.31,5.08-12.98,14.78-20.12,20.51c-0.96,0.77-0.61,1.7,0.59,1.52c6.47-1,11.4-2.78,17.93-4.08" class="grey" /><path d="M56.8,22.82c0.12,0.87-0.03,2.01-0.42,2.75c-2.48,4.75-5.62,8.77-11.3,14.55" class="grey" /><path d="M51.97,32.75c0.53,0.47,0.94,1.5,0.98,2.23c0.32,6.48-0.43,22.15-0.17,25.52" class="grey" /><path d="M72.6,21.65c0.04,0.48-0.01,1.1-0.15,1.51c-0.85,2.6-1.94,4.61-3.9,7.78" class="grey" /><path d="M53.29,33.83c7.47-0.4,32.61-2.54,35.48-2.83" class="grey" /><path d="M67.56,33.36c0.32,0.21,0.58,0.5,0.58,0.85c0,3.66,0.04,16.78-0.16,22.55" class="grey" /><path d="M54.19,41.04c8.78-0.25,27.26-1.19,29.97-1.43" class="grey" /><path d="M53.42,48.98c6.65-0.37,28.25-1.62,31.1-1.83" class="grey" /><path d="M53.42,57.45c8.08,0,33.91-1.51,36.78-1.8" class="grey" /><path d="M20.8,67.11c1.93,0.61,5.47,0.75,7.39,0.61c15.38-1.11,42.55-2.93,54.59-3.2c3.21-0.07,5.14,0.29,6.75,0.6" class="grey" /><path d="M41.17,70.25c0.08,0.77-0.22,2.35-0.45,2.77c-2.47,4.36-10.94,20.26-13.22,23.8c-0.88,1.37,0.17,2.13,2.13,1.81c7.62-1.23,24.87-3.54,32.87-4.51" class="grey" /><path d="M43.74,76.54c0.87,0.21,2.27,0.06,3.14,0c7.37-0.54,16.59-2.28,22.27-2.29c1.35,0,2.85,1.5,2.66,3.03c-0.57,4.49-1.97,6.45-2.56,11.97c-0.75,7-0.75,9.5,12.5,9.5c9.25,0,10.75-1.5,10.75-9" class="grey" /><path d="M47.1,82.33c2.62,0.99,6.78,4.09,7.44,5.63" class="grey" /><path d="M50.83,8.25c1.66,1.02,3.89,3.97,3.89,6" class="stroke" stroke-dasharray="150"><animate attributeName="stroke-dashoffset" from="150" to="0" dur="1.8s" begin="0.0s" fill="freeze" /></path><path d="M17.78,19.11c2.58,0.33,4.85,0.6,7.82,0.46c17.66-0.82,39.88-1.57,60.46-2.24c3.03-0.1,4.57,0.04,6.83,0.59" class="stroke" stroke-dasharray="150"><set attributeName="opacity" to="0" dur="0.9s" /><animate attributeName="stroke-dashoffset" from="150" to="0" dur="1.8s" begin="0.9s" fill="freeze" /></path><path d="M41.19,38.16c0.06,0.6,0.16,1.71-0.11,2.4c-3.2,8.07-9.58,16.19-20.65,22.95" class="stroke" stroke-dasharray="150"><set attributeName="opacity" to="0" dur="2.6s" /><animate attributeName="stroke-dashoffset" from="150" to="0" dur="1.8s" begin="2.6s" fill="freeze" /></path><path d="M27.76,23.82c0.3,0.6,0.33,1.02-0.15,1.71c-2.01,2.93-3.75,6.66-6.99,8.67c-0.55,0.34-0.34,1.06,0.25,1.18c3.12,0.6,6.06,1.1,9.13,2.47" class="stroke" stroke-dasharray="150"><set attributeName="opacity" to="0" dur="3.6s" /><animate attributeName="stroke-dashoffset" from="150" to="0" dur="1.8s" begin="3.6s" fill="freeze" /></path><path d="M39.3,25.92c0.3,0.35,0.1,1.65-0.25,2.06c-4.31,5.08-12.98,14.78-20.12,20.51c-0.96,0.77-0.61,1.7,0.59,1.52c6.47-1,11.4-2.78,17.93-4.08" class="stroke" stroke-dasharray="150"><set attributeName="opacity" to="0" dur="4.6s" /><animate attributeName="stroke-dashoffset" from="150" to="0" dur="1.8s" begin="4.6s" fill="freeze" /></path><path d="M56.8,22.82c0.12,0.87-0.03,2.01-0.42,2.75c-2.48,4.75-5.62,8.77-11.3,14.55" class="stroke" stroke-dasharray="150"><set attributeName="opacity" to="0" dur="5.8999999999999995s" /><animate attributeName="stroke-dashoffset" from="150" to="0" dur="1.8s" begin="5.8999999999999995s" fill="freeze" /></path><path d="M51.97,32.75c0.53,0.47,0.94,1.5,0.98,2.23c0.32,6.48-0.43,22.15-0.17,25.52" class="stroke" stroke-dasharray="150"><set attributeName="opacity" to="0" dur="6.8999999999999995s" /><animate attributeName="stroke-dashoffset" from="150" to="0" dur="1.8s" begin="6.8999999999999995s" fill="freeze" /></path><path d="M72.6,21.65c0.04,0.48-0.01,1.1-0.15,1.51c-0.85,2.6-1.94,4.61-3.9,7.78" class="stroke" stroke-dasharray="150"><set attributeName="opacity" to="0" dur="7.8999999999999995s" /><animate attributeName="stroke-dashoffset" from="150" to="0" dur="1.8s" begin="7.8999999999999995s" fill="freeze" /></path><path d="M53.29,33.83c7.47-0.4,32.61-2.54,35.48-2.83" class="stroke" stroke-dasharray="150"><set attributeName="opacity" to="0" dur="8.799999999999999s" /><animate attributeName="stroke-dashoffset" from="150" to="0" dur="1.8s" begin="8.799999999999999s" fill="freeze" /></path><path d="M67.56,33.36c0.32,0.21,0.58,0.5,0.58,0.85c0,3.66,0.04,16.78-0.16,22.55" class="stroke" stroke-dasharray="150"><set attributeName="opacity" to="0" dur="9.799999999999999s" /><animate attributeName="stroke-dashoffset" from="150" to="0" dur="1.8s" begin="9.799999999999999s" fill="freeze" /></path><path d="M54.19,41.04c8.78-0.25,27.26-1.19,29.97-1.43" class="stroke" stroke-dasharray="150"><set attributeName="opacity" to="0" dur="10.799999999999999s" /><animate attributeName="stroke-dashoffset" from="150" to="0" dur="1.8s" begin="10.799999999999999s" fill="freeze" /></path><path d="M53.42,48.98c6.65-0.37,28.25-1.62,31.1-1.83" class="stroke" stroke-dasharray="150"><set attributeName="opacity" to="0" dur="11.799999999999999s" /><animate attributeName="stroke-dashoffset" from="150" to="0" dur="1.8s" begin="11.799999999999999s" fill="freeze" /></path><path d="M53.42,57.45c8.08,0,33.91-1.51,36.78-1.8" class="stroke" stroke-dasharray="150"><set attributeName="opacity" to="0" dur="12.799999999999999s" /><animate attributeName="stroke-dashoffset" from="150" to="0" dur="1.8s" begin="12.799999999999999s" fill="freeze" /></path><path d="M20.8,67.11c1.93,0.61,5.47,0.75,7.39,0.61c15.38-1.11,42.55-2.93,54.59-3.2c3.21-0.07,5.14,0.29,6.75,0.6" class="stroke" stroke-dasharray="150"><set attributeName="opacity" to="0" dur="13.799999999999999s" /><animate attributeName="stroke-dashoffset" from="150" to="0" dur="1.8s" begin="13.799999999999999s" fill="freeze" /></path><path d="M41.17,70.25c0.08,0.77-0.22,2.35-0.45,2.77c-2.47,4.36-10.94,20.26-13.22,23.8c-0.88,1.37,0.17,2.13,2.13,1.81c7.62-1.23,24.87-3.54,32.87-4.51" class="stroke" stroke-dasharray="150"><set attributeName="opacity" to="0" dur="15.299999999999999s" /><animate attributeName="stroke-dashoffset" from="150" to="0" dur="1.8s" begin="15.299999999999999s" fill="freeze" /></path><path d="M43.74,76.54c0.87,0.21,2.27,0.06,3.14,0c7.37-0.54,16.59-2.28,22.27-2.29c1.35,0,2.85,1.5,2.66,3.03c-0.57,4.49-1.97,6.45-2.56,11.97c-0.75,7-0.75,9.5,12.5,9.5c9.25,0,10.75-1.5,10.75-9" class="stroke" stroke-dasharray="150"><set attributeName="opacity" to="0" dur="16.799999999999997s" /><animate attributeName="stroke-dashoffset" from="150" to="0" dur="1.8s" begin="16.799999999999997s" fill="freeze" /></path><path d="M47.1,82.33c2.62,0.99,6.78,4.09,7.44,5.63" class="stroke" stroke-dasharray="150"><set attributeName="opacity" to="0" dur="18.499999999999996s" /><animate attributeName="stroke-dashoffset" from="150" to="0" dur="1.8s" begin="18.499999999999996s" fill="freeze" /></path><text x="90" y="120" id="reset-kvg-07515-Kaisho">⟳</text><text x="70" y="120" id="pause-kvg-07515-Kaisho">◼</text><script type="text/javascript"><![CDATA[function RecurringTimer(e,t){var n,r,i=t;this.pause=function(){window.clearTimeout(n);i-=new Date-r};var s=function(){r=new Date;n=window.setTimeout(function(){i=t;s();e()},i)};this.clear=function(){window.clearTimeout(n);i=t;n=window.setTimeout(function(){i=t;s();e()},i)};this.resume=s;this.resume()}function invoketimer(){timer=new RecurringTimer(function(){svg.setCurrentTime(0)},20399.999999999996)}var svg=document.getElementById("kvg-07515-Kaisho");var pause=document.getElementById("pause-kvg-07515-Kaisho");var reset=document.getElementById("reset-kvg-07515-Kaisho");var timer;invoketimer();reset.onclick=function(){svg.setCurrentTime(0);timer.clear();svg.unpauseAnimations();pause.innerHTML = "◼";};pause.onclick=function(){if(svg.animationsPaused()){svg.unpauseAnimations();timer.resume();pause.innerHTML="◼"}else{svg.pauseAnimations();timer.pause();pause.innerHTML="▶"}}]]></script></svg>