<svg id="kvg-0754f-Kaisho" class="kanjivg" width="106" height="126" xmlns="http://www.w3.org/2000/svg" xmlns:xlink="http://www.w3.org/1999/xlink" xml:space="preserve" version="1.1" baseProfile="full"><defs><style type="text/css"><![CDATA[path.black{fill:none;stroke:black;stroke-width:5;stroke-linecap:round;stroke-linejoin:round;}path.grey{fill:none;stroke:#ddd;stroke-width:5;stroke-linecap:round;stroke-linejoin:round;}path.stroke{fill:none;stroke:black;stroke-width:5;stroke-linecap:round;stroke-linejoin:round;}rect{fill:none;stroke:#555;stroke-width:2;} text{font-size:16px;font-family:Segoe UI Symbol,Cambria Math,DejaVu Sans,Symbola,Quivira,STIX,Code2000;-webkit-touch-callout:none;cursor:pointer;-webkit-user-select:none;-khtml-user-select:none;-moz-user-select:none;-ms-user-select:none;user-select: none;}text:hover{color:#777;}#reset{font-weight:bold;}]]></style><marker id="markerStart" markerWidth="8" markerHeight="8" style="overflow:visible;"><circle cx="0" cy="0" r="1.5" style="stroke:none;fill:red;fill-opacity:0.5;"/></marker><marker id="markerEnd" style="overflow:visible;"><circle cx="0" cy="0" r="0.8" style="stroke:none;fill:blue;fill-opacity:0.5;"><animate attributeName="opacity" from="1" to="0" dur="3s" repeatCount="indefinite" /></circle></marker></defs><rect x="4" y="4" width="100" height="100" /><path d="M27.23,16.38c0.35,0.52,0.36,0.87,0.55,1.52c1.58,5.31,3.5,18.57,4.42,28.35" class="grey" /><path d="M28.4,17.18c12.1-1.18,37-3.94,46.35-4.46c3.44-0.19,5.18,1.35,5,2.77c-0.69,5.21-2.49,17-4.67,26.38" class="grey" /><path d="M51.93,15.53c0.32,0.72,0.96,1.12,0.96,2.06c-0.05,6.16,0.22,20.97,0.22,23.2" class="grey" /><path d="M31.63,30.3c10.08-0.64,20.15-1.79,30.22-2.67c1.21-0.11,2.39-0.21,3.52-0.31" class="grey" /><path d="M32.86,43.37c11.64-1.12,29.88-2.69,42.32-2.83" class="grey" /><path d="M15,56.65c1.79,0.3,4.7,0.72,6.04,0.59c16.33-1.49,52.14-6.25,66.01-6.23c2.24,0,3.58,0.28,4.7,0.58" class="grey" /><path d="M31.51,57.87c0.99,0.88,1.44,2.9,1.44,4.25c0,5.14,0.69,25.74,0.33,28.99c-0.33,2.94-0.44,4.99,3.48,2.7c3.92-2.29,9.74-6.8,16.44-10.89" class="grey" /><path d="M77.01,58.67c0.33,1.49,0.25,2.63-0.86,3.74c-2.98,2.95-7.9,7.25-10.9,9.34" class="grey" /><path d="M44.85,60.57c7.4,0.18,35,27.76,39.58,29.84c6.59,2.98,7.58,2.98,10.88,3.64" class="grey" /><path d="M27.23,16.38c0.35,0.52,0.36,0.87,0.55,1.52c1.58,5.31,3.5,18.57,4.42,28.35" class="stroke" stroke-dasharray="150"><animate attributeName="stroke-dashoffset" from="150" to="0" dur="1.8s" begin="0.0s" fill="freeze" /></path><path d="M28.4,17.18c12.1-1.18,37-3.94,46.35-4.46c3.44-0.19,5.18,1.35,5,2.77c-0.69,5.21-2.49,17-4.67,26.38" class="stroke" stroke-dasharray="150"><set attributeName="opacity" to="0" dur="1.0s" /><animate attributeName="stroke-dashoffset" from="150" to="0" dur="1.8s" begin="1.0s" fill="freeze" /></path><path d="M51.93,15.53c0.32,0.72,0.96,1.12,0.96,2.06c-0.05,6.16,0.22,20.97,0.22,23.2" class="stroke" stroke-dasharray="150"><set attributeName="opacity" to="0" dur="2.7s" /><animate attributeName="stroke-dashoffset" from="150" to="0" dur="1.8s" begin="2.7s" fill="freeze" /></path><path d="M31.63,30.3c10.08-0.64,20.15-1.79,30.22-2.67c1.21-0.11,2.39-0.21,3.52-0.31" class="stroke" stroke-dasharray="150"><set attributeName="opacity" to="0" dur="3.7s" /><animate attributeName="stroke-dashoffset" from="150" to="0" dur="1.8s" begin="3.7s" fill="freeze" /></path><path d="M32.86,43.37c11.64-1.12,29.88-2.69,42.32-2.83" class="stroke" stroke-dasharray="150"><set attributeName="opacity" to="0" dur="4.7s" /><animate attributeName="stroke-dashoffset" from="150" to="0" dur="1.8s" begin="4.7s" fill="freeze" /></path><path d="M15,56.65c1.79,0.3,4.7,0.72,6.04,0.59c16.33-1.49,52.14-6.25,66.01-6.23c2.24,0,3.58,0.28,4.7,0.58" class="stroke" stroke-dasharray="150"><set attributeName="opacity" to="0" dur="5.800000000000001s" /><animate attributeName="stroke-dashoffset" from="150" to="0" dur="1.8s" begin="5.800000000000001s" fill="freeze" /></path><path d="M31.51,57.87c0.99,0.88,1.44,2.9,1.44,4.25c0,5.14,0.69,25.74,0.33,28.99c-0.33,2.94-0.44,4.99,3.48,2.7c3.92-2.29,9.74-6.8,16.44-10.89" class="stroke" stroke-dasharray="150"><set attributeName="opacity" to="0" dur="7.500000000000001s" /><animate attributeName="stroke-dashoffset" from="150" to="0" dur="1.8s" begin="7.500000000000001s" fill="freeze" /></path><path d="M77.01,58.67c0.33,1.49,0.25,2.63-0.86,3.74c-2.98,2.95-7.9,7.25-10.9,9.34" class="stroke" stroke-dasharray="150"><set attributeName="opacity" to="0" dur="9.0s" /><animate attributeName="stroke-dashoffset" from="150" to="0" dur="1.8s" begin="9.0s" fill="freeze" /></path><path d="M44.85,60.57c7.4,0.18,35,27.76,39.58,29.84c6.59,2.98,7.58,2.98,10.88,3.64" class="stroke" stroke-dasharray="150"><set attributeName="opacity" to="0" dur="9.9s" /><animate attributeName="stroke-dashoffset" from="150" to="0" dur="1.8s" begin="9.9s" fill="freeze" /></path><text x="90" y="120" id="reset-kvg-0754f-Kaisho">⟳</text><text x="70" y="120" id="pause-kvg-0754f-Kaisho">◼</text><script type="text/javascript"><![CDATA[function RecurringTimer(e,t){var n,r,i=t;this.pause=function(){window.clearTimeout(n);i-=new Date-r};var s=function(){r=new Date;n=window.setTimeout(function(){i=t;s();e()},i)};this.clear=function(){window.clearTimeout(n);i=t;n=window.setTimeout(function(){i=t;s();e()},i)};this.resume=s;this.resume()}function invoketimer(){timer=new RecurringTimer(function(){svg.setCurrentTime(0)},12400.0)}var svg=document.getElementById("kvg-0754f-Kaisho");var pause=document.getElementById("pause-kvg-0754f-Kaisho");var reset=document.getElementById("reset-kvg-0754f-Kaisho");var timer;invoketimer();reset.onclick=function(){svg.setCurrentTime(0);timer.clear();svg.unpauseAnimations();pause.innerHTML = "◼";};pause.onclick=function(){if(svg.animationsPaused()){svg.unpauseAnimations();timer.resume();pause.innerHTML="◼"}else{svg.pauseAnimations();timer.pause();pause.innerHTML="▶"}}]]></script></svg>