<svg id="kvg-0756d-Kaisho" class="kanjivg" width="106" height="126" xmlns="http://www.w3.org/2000/svg" xmlns:xlink="http://www.w3.org/1999/xlink" xml:space="preserve" version="1.1" baseProfile="full"><defs><style type="text/css"><![CDATA[path.black{fill:none;stroke:black;stroke-width:5;stroke-linecap:round;stroke-linejoin:round;}path.grey{fill:none;stroke:#ddd;stroke-width:5;stroke-linecap:round;stroke-linejoin:round;}path.stroke{fill:none;stroke:black;stroke-width:5;stroke-linecap:round;stroke-linejoin:round;}rect{fill:none;stroke:#555;stroke-width:2;} text{font-size:16px;font-family:Segoe UI Symbol,Cambria Math,DejaVu Sans,Symbola,Quivira,STIX,Code2000;-webkit-touch-callout:none;cursor:pointer;-webkit-user-select:none;-khtml-user-select:none;-moz-user-select:none;-ms-user-select:none;user-select: none;}text:hover{color:#777;}#reset{font-weight:bold;}]]></style><marker id="markerStart" markerWidth="8" markerHeight="8" style="overflow:visible;"><circle cx="0" cy="0" r="1.5" style="stroke:none;fill:red;fill-opacity:0.5;"/></marker><marker id="markerEnd" style="overflow:visible;"><circle cx="0" cy="0" r="0.8" style="stroke:none;fill:blue;fill-opacity:0.5;"><animate attributeName="opacity" from="1" to="0" dur="3s" repeatCount="indefinite" /></circle></marker></defs><rect x="4" y="4" width="100" height="100" /><path d="M13.24,26.6c0.21,0.8,1.21,1.86,1.33,2.85c0.94,8.1,0.82,30.37,1.4,45.26" class="grey" /><path d="M14.72,28.38c7.26-0.63,19.21-1.71,24.63-2.37c1.99-0.24,3.01,2.12,2.91,4.29c-0.37,7.92-1.3,29.51-2.21,42.69" class="grey" /><path d="M27.3,27.66c0.45,0.55,1.03,2.26,1.04,2.92c0.21,10.97,0.09,33.3,0.09,39.78" class="grey" /><path d="M15.57,49.13c5.57-0.77,11.31-0.87,16.92-1.2c0.68-0.04,1.34-0.08,1.97-0.11" class="grey" /><path d="M16.34,71.04c5.23,0.13,16.48-1.31,23.7-1.34" class="grey" /><path d="M68.31,10.5c0.08,0.81,0.29,2.16-0.16,3.27c-2.84,6.93-8.9,20.48-21.94,31.3" class="grey" /><path d="M67.54,14.99c3.87,5.03,21.93,22.14,25.75,25.89c1.29,1.27,2.96,1.82,4.25,2.18" class="grey" /><path d="M54.5,44.18c1.01,0.26,2.86,0.3,3.88,0.26c9.78-0.43,13.72-1.72,21.93-2.06c1.51-0.06,2.43,0.12,3.19,0.25" class="grey" /><path d="M46.49,60.91c1.44,0.56,4.09,0.74,5.54,0.62c14.83-1.15,23.38-3.06,37.46-3.36c2.73-0.06,4.38,0.2,5.75,0.39" class="grey" /><path d="M69.04,47.3c0.08,0.46,1.21,2.39,1.21,5.3c0,18.93-0.25,33.26-0.25,38.02c0,10.8-5.96,1.92-7.4,0.72" class="grey" /><path d="M57.22,72.25c0.04,0.45,0.18,1.23-0.08,1.82c-1.96,4.35-7,10.83-15,17.44" class="grey" /><path d="M81.62,72.99c4.62,2.82,11.94,11.58,13.09,15.96" class="grey" /><path d="M13.24,26.6c0.21,0.8,1.21,1.86,1.33,2.85c0.94,8.1,0.82,30.37,1.4,45.26" class="stroke" stroke-dasharray="150"><animate attributeName="stroke-dashoffset" from="150" to="0" dur="1.8s" begin="0.0s" fill="freeze" /></path><path d="M14.72,28.38c7.26-0.63,19.21-1.71,24.63-2.37c1.99-0.24,3.01,2.12,2.91,4.29c-0.37,7.92-1.3,29.51-2.21,42.69" class="stroke" stroke-dasharray="150"><set attributeName="opacity" to="0" dur="1.2s" /><animate attributeName="stroke-dashoffset" from="150" to="0" dur="1.8s" begin="1.2s" fill="freeze" /></path><path d="M27.3,27.66c0.45,0.55,1.03,2.26,1.04,2.92c0.21,10.97,0.09,33.3,0.09,39.78" class="stroke" stroke-dasharray="150"><set attributeName="opacity" to="0" dur="2.9s" /><animate attributeName="stroke-dashoffset" from="150" to="0" dur="1.8s" begin="2.9s" fill="freeze" /></path><path d="M15.57,49.13c5.57-0.77,11.31-0.87,16.92-1.2c0.68-0.04,1.34-0.08,1.97-0.11" class="stroke" stroke-dasharray="150"><set attributeName="opacity" to="0" dur="4.0s" /><animate attributeName="stroke-dashoffset" from="150" to="0" dur="1.8s" begin="4.0s" fill="freeze" /></path><path d="M16.34,71.04c5.23,0.13,16.48-1.31,23.7-1.34" class="stroke" stroke-dasharray="150"><set attributeName="opacity" to="0" dur="4.9s" /><animate attributeName="stroke-dashoffset" from="150" to="0" dur="1.8s" begin="4.9s" fill="freeze" /></path><path d="M68.31,10.5c0.08,0.81,0.29,2.16-0.16,3.27c-2.84,6.93-8.9,20.48-21.94,31.3" class="stroke" stroke-dasharray="150"><set attributeName="opacity" to="0" dur="5.9s" /><animate attributeName="stroke-dashoffset" from="150" to="0" dur="1.8s" begin="5.9s" fill="freeze" /></path><path d="M67.54,14.99c3.87,5.03,21.93,22.14,25.75,25.89c1.29,1.27,2.96,1.82,4.25,2.18" class="stroke" stroke-dasharray="150"><set attributeName="opacity" to="0" dur="7.0s" /><animate attributeName="stroke-dashoffset" from="150" to="0" dur="1.8s" begin="7.0s" fill="freeze" /></path><path d="M54.5,44.18c1.01,0.26,2.86,0.3,3.88,0.26c9.78-0.43,13.72-1.72,21.93-2.06c1.51-0.06,2.43,0.12,3.19,0.25" class="stroke" stroke-dasharray="150"><set attributeName="opacity" to="0" dur="8.1s" /><animate attributeName="stroke-dashoffset" from="150" to="0" dur="1.8s" begin="8.1s" fill="freeze" /></path><path d="M46.49,60.91c1.44,0.56,4.09,0.74,5.54,0.62c14.83-1.15,23.38-3.06,37.46-3.36c2.73-0.06,4.38,0.2,5.75,0.39" class="stroke" stroke-dasharray="150"><set attributeName="opacity" to="0" dur="9.1s" /><animate attributeName="stroke-dashoffset" from="150" to="0" dur="1.8s" begin="9.1s" fill="freeze" /></path><path d="M69.04,47.3c0.08,0.46,1.21,2.39,1.21,5.3c0,18.93-0.25,33.26-0.25,38.02c0,10.8-5.96,1.92-7.4,0.72" class="stroke" stroke-dasharray="150"><set attributeName="opacity" to="0" dur="10.299999999999999s" /><animate attributeName="stroke-dashoffset" from="150" to="0" dur="1.8s" begin="10.299999999999999s" fill="freeze" /></path><path d="M57.22,72.25c0.04,0.45,0.18,1.23-0.08,1.82c-1.96,4.35-7,10.83-15,17.44" class="stroke" stroke-dasharray="150"><set attributeName="opacity" to="0" dur="11.7s" /><animate attributeName="stroke-dashoffset" from="150" to="0" dur="1.8s" begin="11.7s" fill="freeze" /></path><path d="M81.62,72.99c4.62,2.82,11.94,11.58,13.09,15.96" class="stroke" stroke-dasharray="150"><set attributeName="opacity" to="0" dur="12.7s" /><animate attributeName="stroke-dashoffset" from="150" to="0" dur="1.8s" begin="12.7s" fill="freeze" /></path><text x="90" y="120" id="reset-kvg-0756d-Kaisho">⟳</text><text x="70" y="120" id="pause-kvg-0756d-Kaisho">◼</text><script type="text/javascript"><![CDATA[function RecurringTimer(e,t){var n,r,i=t;this.pause=function(){window.clearTimeout(n);i-=new Date-r};var s=function(){r=new Date;n=window.setTimeout(function(){i=t;s();e()},i)};this.clear=function(){window.clearTimeout(n);i=t;n=window.setTimeout(function(){i=t;s();e()},i)};this.resume=s;this.resume()}function invoketimer(){timer=new RecurringTimer(function(){svg.setCurrentTime(0)},14700.0)}var svg=document.getElementById("kvg-0756d-Kaisho");var pause=document.getElementById("pause-kvg-0756d-Kaisho");var reset=document.getElementById("reset-kvg-0756d-Kaisho");var timer;invoketimer();reset.onclick=function(){svg.setCurrentTime(0);timer.clear();svg.unpauseAnimations();pause.innerHTML = "◼";};pause.onclick=function(){if(svg.animationsPaused()){svg.unpauseAnimations();timer.resume();pause.innerHTML="◼"}else{svg.pauseAnimations();timer.pause();pause.innerHTML="▶"}}]]></script></svg>