<svg id="kvg-0759a-Kaisho" class="kanjivg" width="106" height="126" xmlns="http://www.w3.org/2000/svg" xmlns:xlink="http://www.w3.org/1999/xlink" xml:space="preserve" version="1.1" baseProfile="full"><defs><style type="text/css"><![CDATA[path.black{fill:none;stroke:black;stroke-width:5;stroke-linecap:round;stroke-linejoin:round;}path.grey{fill:none;stroke:#ddd;stroke-width:5;stroke-linecap:round;stroke-linejoin:round;}path.stroke{fill:none;stroke:black;stroke-width:5;stroke-linecap:round;stroke-linejoin:round;}rect{fill:none;stroke:#555;stroke-width:2;} text{font-size:16px;font-family:Segoe UI Symbol,Cambria Math,DejaVu Sans,Symbola,Quivira,STIX,Code2000;-webkit-touch-callout:none;cursor:pointer;-webkit-user-select:none;-khtml-user-select:none;-moz-user-select:none;-ms-user-select:none;user-select: none;}text:hover{color:#777;}#reset{font-weight:bold;}]]></style><marker id="markerStart" markerWidth="8" markerHeight="8" style="overflow:visible;"><circle cx="0" cy="0" r="1.5" style="stroke:none;fill:red;fill-opacity:0.5;"/></marker><marker id="markerEnd" style="overflow:visible;"><circle cx="0" cy="0" r="0.8" style="stroke:none;fill:blue;fill-opacity:0.5;"><animate attributeName="opacity" from="1" to="0" dur="3s" repeatCount="indefinite" /></circle></marker></defs><rect x="4" y="4" width="100" height="100" /><path d="M53.8,12.13c1.99,0.8,4.88,5.96,5.28,7.55" class="grey" /><path d="M25.63,25.49c1.89,0.67,5.36,0.78,7.26,0.67c19.7-1.13,35.59-2.64,53.12-3.52c3.15-0.16,5.05,0.32,6.62,0.66" class="grey" /><path d="M30.49,26.5c0,0.93,0,1.85-0.01,2.76c-0.18,35.05-3.83,51.63-17.18,66.46" class="grey" /><path d="M12.5,36.75c3.35,1.94,8.66,7.98,9.5,11" class="grey" /><path d="M10.67,67.04c1.53,0.67,2.01,0.47,3.35-0.34c5.45-3.28,7.1-4.37,11.22-7.2" class="grey" /><path d="M57.05,32c0.06,0.77,0.12,1.98-0.12,3.08c-1.38,6.48-8.42,21.13-19.23,29.84" class="grey" /><path d="M56.46,41.9c1.28,0.29,3.06,0.77,4.51,0.58c2.92-0.39,12.83-2.55,14.37-2.71c1.87-0.19,2.5,1.03,2.05,2.23c-6.15,16.5-25.4,44.5-51.65,54" class="grey" /><path d="M63.04,66.77C68,73.25,83.25,88.75,89.89,92.79c1.71,1.04,2.84,1.85,4.36,2.21" class="grey" /><path d="M53.8,12.13c1.99,0.8,4.88,5.96,5.28,7.55" class="stroke" stroke-dasharray="150"><animate attributeName="stroke-dashoffset" from="150" to="0" dur="1.8s" begin="0.0s" fill="freeze" /></path><path d="M25.63,25.49c1.89,0.67,5.36,0.78,7.26,0.67c19.7-1.13,35.59-2.64,53.12-3.52c3.15-0.16,5.05,0.32,6.62,0.66" class="stroke" stroke-dasharray="150"><set attributeName="opacity" to="0" dur="0.9s" /><animate attributeName="stroke-dashoffset" from="150" to="0" dur="1.8s" begin="0.9s" fill="freeze" /></path><path d="M30.49,26.5c0,0.93,0,1.85-0.01,2.76c-0.18,35.05-3.83,51.63-17.18,66.46" class="stroke" stroke-dasharray="150"><set attributeName="opacity" to="0" dur="2.4s" /><animate attributeName="stroke-dashoffset" from="150" to="0" dur="1.8s" begin="2.4s" fill="freeze" /></path><path d="M12.5,36.75c3.35,1.94,8.66,7.98,9.5,11" class="stroke" stroke-dasharray="150"><set attributeName="opacity" to="0" dur="4.1s" /><animate attributeName="stroke-dashoffset" from="150" to="0" dur="1.8s" begin="4.1s" fill="freeze" /></path><path d="M10.67,67.04c1.53,0.67,2.01,0.47,3.35-0.34c5.45-3.28,7.1-4.37,11.22-7.2" class="stroke" stroke-dasharray="150"><set attributeName="opacity" to="0" dur="5.0s" /><animate attributeName="stroke-dashoffset" from="150" to="0" dur="1.8s" begin="5.0s" fill="freeze" /></path><path d="M57.05,32c0.06,0.77,0.12,1.98-0.12,3.08c-1.38,6.48-8.42,21.13-19.23,29.84" class="stroke" stroke-dasharray="150"><set attributeName="opacity" to="0" dur="5.9s" /><animate attributeName="stroke-dashoffset" from="150" to="0" dur="1.8s" begin="5.9s" fill="freeze" /></path><path d="M56.46,41.9c1.28,0.29,3.06,0.77,4.51,0.58c2.92-0.39,12.83-2.55,14.37-2.71c1.87-0.19,2.5,1.03,2.05,2.23c-6.15,16.5-25.4,44.5-51.65,54" class="stroke" stroke-dasharray="150"><set attributeName="opacity" to="0" dur="6.9s" /><animate attributeName="stroke-dashoffset" from="150" to="0" dur="1.8s" begin="6.9s" fill="freeze" /></path><path d="M63.04,66.77C68,73.25,83.25,88.75,89.89,92.79c1.71,1.04,2.84,1.85,4.36,2.21" class="stroke" stroke-dasharray="150"><set attributeName="opacity" to="0" dur="8.700000000000001s" /><animate attributeName="stroke-dashoffset" from="150" to="0" dur="1.8s" begin="8.700000000000001s" fill="freeze" /></path><text x="90" y="120" id="reset-kvg-0759a-Kaisho">⟳</text><text x="70" y="120" id="pause-kvg-0759a-Kaisho">◼</text><script type="text/javascript"><![CDATA[function RecurringTimer(e,t){var n,r,i=t;this.pause=function(){window.clearTimeout(n);i-=new Date-r};var s=function(){r=new Date;n=window.setTimeout(function(){i=t;s();e()},i)};this.clear=function(){window.clearTimeout(n);i=t;n=window.setTimeout(function(){i=t;s();e()},i)};this.resume=s;this.resume()}function invoketimer(){timer=new RecurringTimer(function(){svg.setCurrentTime(0)},10800.0)}var svg=document.getElementById("kvg-0759a-Kaisho");var pause=document.getElementById("pause-kvg-0759a-Kaisho");var reset=document.getElementById("reset-kvg-0759a-Kaisho");var timer;invoketimer();reset.onclick=function(){svg.setCurrentTime(0);timer.clear();svg.unpauseAnimations();pause.innerHTML = "◼";};pause.onclick=function(){if(svg.animationsPaused()){svg.unpauseAnimations();timer.resume();pause.innerHTML="◼"}else{svg.pauseAnimations();timer.pause();pause.innerHTML="▶"}}]]></script></svg>