<svg id="kvg-075ff-Kaisho" class="kanjivg" width="106" height="126" xmlns="http://www.w3.org/2000/svg" xmlns:xlink="http://www.w3.org/1999/xlink" xml:space="preserve" version="1.1" baseProfile="full"><defs><style type="text/css"><![CDATA[path.black{fill:none;stroke:black;stroke-width:5;stroke-linecap:round;stroke-linejoin:round;}path.grey{fill:none;stroke:#ddd;stroke-width:5;stroke-linecap:round;stroke-linejoin:round;}path.stroke{fill:none;stroke:black;stroke-width:5;stroke-linecap:round;stroke-linejoin:round;}rect{fill:none;stroke:#555;stroke-width:2;} text{font-size:16px;font-family:Segoe UI Symbol,Cambria Math,DejaVu Sans,Symbola,Quivira,STIX,Code2000;-webkit-touch-callout:none;cursor:pointer;-webkit-user-select:none;-khtml-user-select:none;-moz-user-select:none;-ms-user-select:none;user-select: none;}text:hover{color:#777;}#reset{font-weight:bold;}]]></style><marker id="markerStart" markerWidth="8" markerHeight="8" style="overflow:visible;"><circle cx="0" cy="0" r="1.5" style="stroke:none;fill:red;fill-opacity:0.5;"/></marker><marker id="markerEnd" style="overflow:visible;"><circle cx="0" cy="0" r="0.8" style="stroke:none;fill:blue;fill-opacity:0.5;"><animate attributeName="opacity" from="1" to="0" dur="3s" repeatCount="indefinite" /></circle></marker></defs><rect x="4" y="4" width="100" height="100" /><path d="M53.09,10.63c1.7,0.82,5.31,6.12,5.64,7.75" class="grey" /><path d="M24.13,24.23c1.52,0.54,4.3,0.63,5.82,0.54c15.8-0.91,42.05-3.02,56.11-3.73c2.53-0.13,4.05,0.26,5.31,0.53" class="grey" /><path d="M29.49,25c0,1.1,0,2.18,0,3.25C29.45,62.05,27.5,76.5,13.81,92.47" class="grey" /><path d="M11.75,34.5c3.44,2.25,8.89,9.25,9.75,12.75" class="grey" /><path d="M9.17,62.57c1.44,0.61,1.88,0.43,3.15-0.31c5.11-3,8.06-4.92,11.93-7.51" class="grey" /><path d="M75.25,29c0.09,0.23,0.19,0.61-0.18,0.94c-2.23,1.98-15.05,6.34-32.59,9" class="grey" /><path d="M37.02,47.01c0.78,0.13,2.85,0.43,4.92,0.38c8.28-0.19,26.86-2.91,42.89-3.18c2.07-0.04,3.59,0.37,4.88,0.5" class="grey" /><path d="M60.59,37.88c0.63,0.24,1.01,1.06,1.14,1.54c0.13,0.47,0,20.28-0.13,23.23" class="grey" /><path d="M59.03,46.25c-5.6,6.95-15.89,15.01-26.73,18.48" class="grey" /><path d="M62.07,46.64C66.25,50,79.25,57.5,85.78,59.52c1.63,0.51,2.74,0.73,4.22,0.97" class="grey" /><path d="M57,63.67c0.38,0.82,0.21,1.88-0.19,2.87c-2.24,5.49-4.51,9.37-9.25,15.1c-1.03,1.25-0.96,2.04,0.95,2.08c11.11,0.25,28.01,8.15,35.59,14.15" class="grey" /><path d="M75.06,67.56c0.1,0.74,0.2,2.54-0.21,3.6c-3.5,9.1-13.07,22.01-35.33,27.37" class="grey" /><path d="M32.59,72.64c0.83,0.26,2.66,0.88,4.72,0.75c11.35-0.74,38.31-3.12,54.28-3.19c1.39-0.01,3.78,0.25,4.91,0.72" class="grey" /><path d="M53.09,10.63c1.7,0.82,5.31,6.12,5.64,7.75" class="stroke" stroke-dasharray="150"><animate attributeName="stroke-dashoffset" from="150" to="0" dur="1.8s" begin="0.0s" fill="freeze" /></path><path d="M24.13,24.23c1.52,0.54,4.3,0.63,5.82,0.54c15.8-0.91,42.05-3.02,56.11-3.73c2.53-0.13,4.05,0.26,5.31,0.53" class="stroke" stroke-dasharray="150"><set attributeName="opacity" to="0" dur="0.9s" /><animate attributeName="stroke-dashoffset" from="150" to="0" dur="1.8s" begin="0.9s" fill="freeze" /></path><path d="M29.49,25c0,1.1,0,2.18,0,3.25C29.45,62.05,27.5,76.5,13.81,92.47" class="stroke" stroke-dasharray="150"><set attributeName="opacity" to="0" dur="2.4s" /><animate attributeName="stroke-dashoffset" from="150" to="0" dur="1.8s" begin="2.4s" fill="freeze" /></path><path d="M11.75,34.5c3.44,2.25,8.89,9.25,9.75,12.75" class="stroke" stroke-dasharray="150"><set attributeName="opacity" to="0" dur="4.1s" /><animate attributeName="stroke-dashoffset" from="150" to="0" dur="1.8s" begin="4.1s" fill="freeze" /></path><path d="M9.17,62.57c1.44,0.61,1.88,0.43,3.15-0.31c5.11-3,8.06-4.92,11.93-7.51" class="stroke" stroke-dasharray="150"><set attributeName="opacity" to="0" dur="5.0s" /><animate attributeName="stroke-dashoffset" from="150" to="0" dur="1.8s" begin="5.0s" fill="freeze" /></path><path d="M75.25,29c0.09,0.23,0.19,0.61-0.18,0.94c-2.23,1.98-15.05,6.34-32.59,9" class="stroke" stroke-dasharray="150"><set attributeName="opacity" to="0" dur="5.9s" /><animate attributeName="stroke-dashoffset" from="150" to="0" dur="1.8s" begin="5.9s" fill="freeze" /></path><path d="M37.02,47.01c0.78,0.13,2.85,0.43,4.92,0.38c8.28-0.19,26.86-2.91,42.89-3.18c2.07-0.04,3.59,0.37,4.88,0.5" class="stroke" stroke-dasharray="150"><set attributeName="opacity" to="0" dur="6.9s" /><animate attributeName="stroke-dashoffset" from="150" to="0" dur="1.8s" begin="6.9s" fill="freeze" /></path><path d="M60.59,37.88c0.63,0.24,1.01,1.06,1.14,1.54c0.13,0.47,0,20.28-0.13,23.23" class="stroke" stroke-dasharray="150"><set attributeName="opacity" to="0" dur="8.200000000000001s" /><animate attributeName="stroke-dashoffset" from="150" to="0" dur="1.8s" begin="8.200000000000001s" fill="freeze" /></path><path d="M59.03,46.25c-5.6,6.95-15.89,15.01-26.73,18.48" class="stroke" stroke-dasharray="150"><set attributeName="opacity" to="0" dur="9.200000000000001s" /><animate attributeName="stroke-dashoffset" from="150" to="0" dur="1.8s" begin="9.200000000000001s" fill="freeze" /></path><path d="M62.07,46.64C66.25,50,79.25,57.5,85.78,59.52c1.63,0.51,2.74,0.73,4.22,0.97" class="stroke" stroke-dasharray="150"><set attributeName="opacity" to="0" dur="10.200000000000001s" /><animate attributeName="stroke-dashoffset" from="150" to="0" dur="1.8s" begin="10.200000000000001s" fill="freeze" /></path><path d="M57,63.67c0.38,0.82,0.21,1.88-0.19,2.87c-2.24,5.49-4.51,9.37-9.25,15.1c-1.03,1.25-0.96,2.04,0.95,2.08c11.11,0.25,28.01,8.15,35.59,14.15" class="stroke" stroke-dasharray="150"><set attributeName="opacity" to="0" dur="11.200000000000001s" /><animate attributeName="stroke-dashoffset" from="150" to="0" dur="1.8s" begin="11.200000000000001s" fill="freeze" /></path><path d="M75.06,67.56c0.1,0.74,0.2,2.54-0.21,3.6c-3.5,9.1-13.07,22.01-35.33,27.37" class="stroke" stroke-dasharray="150"><set attributeName="opacity" to="0" dur="12.700000000000001s" /><animate attributeName="stroke-dashoffset" from="150" to="0" dur="1.8s" begin="12.700000000000001s" fill="freeze" /></path><path d="M32.59,72.64c0.83,0.26,2.66,0.88,4.72,0.75c11.35-0.74,38.31-3.12,54.28-3.19c1.39-0.01,3.78,0.25,4.91,0.72" class="stroke" stroke-dasharray="150"><set attributeName="opacity" to="0" dur="14.000000000000002s" /><animate attributeName="stroke-dashoffset" from="150" to="0" dur="1.8s" begin="14.000000000000002s" fill="freeze" /></path><text x="90" y="120" id="reset-kvg-075ff-Kaisho">⟳</text><text x="70" y="120" id="pause-kvg-075ff-Kaisho">◼</text><script type="text/javascript"><![CDATA[function RecurringTimer(e,t){var n,r,i=t;this.pause=function(){window.clearTimeout(n);i-=new Date-r};var s=function(){r=new Date;n=window.setTimeout(function(){i=t;s();e()},i)};this.clear=function(){window.clearTimeout(n);i=t;n=window.setTimeout(function(){i=t;s();e()},i)};this.resume=s;this.resume()}function invoketimer(){timer=new RecurringTimer(function(){svg.setCurrentTime(0)},16500.0)}var svg=document.getElementById("kvg-075ff-Kaisho");var pause=document.getElementById("pause-kvg-075ff-Kaisho");var reset=document.getElementById("reset-kvg-075ff-Kaisho");var timer;invoketimer();reset.onclick=function(){svg.setCurrentTime(0);timer.clear();svg.unpauseAnimations();pause.innerHTML = "◼";};pause.onclick=function(){if(svg.animationsPaused()){svg.unpauseAnimations();timer.resume();pause.innerHTML="◼"}else{svg.pauseAnimations();timer.pause();pause.innerHTML="▶"}}]]></script></svg>