<svg id="kvg-07662-KaishoVtLst" class="kanjivg" width="106" height="126" xmlns="http://www.w3.org/2000/svg" xmlns:xlink="http://www.w3.org/1999/xlink" xml:space="preserve" version="1.1" baseProfile="full"><defs><style type="text/css"><![CDATA[path.black{fill:none;stroke:black;stroke-width:5;stroke-linecap:round;stroke-linejoin:round;}path.grey{fill:none;stroke:#ddd;stroke-width:5;stroke-linecap:round;stroke-linejoin:round;}path.stroke{fill:none;stroke:black;stroke-width:5;stroke-linecap:round;stroke-linejoin:round;}rect{fill:none;stroke:#555;stroke-width:2;} text{font-size:16px;font-family:Segoe UI Symbol,Cambria Math,DejaVu Sans,Symbola,Quivira,STIX,Code2000;-webkit-touch-callout:none;cursor:pointer;-webkit-user-select:none;-khtml-user-select:none;-moz-user-select:none;-ms-user-select:none;user-select: none;}text:hover{color:#777;}#reset{font-weight:bold;}]]></style><marker id="markerStart" markerWidth="8" markerHeight="8" style="overflow:visible;"><circle cx="0" cy="0" r="1.5" style="stroke:none;fill:red;fill-opacity:0.5;"/></marker><marker id="markerEnd" style="overflow:visible;"><circle cx="0" cy="0" r="0.8" style="stroke:none;fill:blue;fill-opacity:0.5;"><animate attributeName="opacity" from="1" to="0" dur="3s" repeatCount="indefinite" /></circle></marker></defs><rect x="4" y="4" width="100" height="100" /><path d="M52.38,10.13c1.59,0.78,4.95,5.87,5.26,7.44" class="grey" /><path d="M25.63,22.48c1.87,0.67,5.3,0.77,7.17,0.67c19.46-1.12,32.21-2.6,49.53-3.48c3.11-0.16,4.99,0.32,6.55,0.65" class="grey" /><path d="M29.99,23.5c0,37.49-1.24,55-15.19,70.22" class="grey" /><path d="M13,37.25c3.35,1.76,8.66,7.26,9.5,10" class="grey" /><path d="M11.67,67.03c1.29,0.68,1.7,0.49,2.83-0.35c4.6-3.37,7.26-5.52,10.75-8.43" class="grey" /><path d="M48.35,26.4c2.24,1.05,5.79,4.31,6.35,5.94" class="grey" /><path d="M72.11,25.39c0.01,0.15,0.03,0.4-0.03,0.62c-0.34,1.3-2.31,4.15-5.01,5.9" class="grey" /><path d="M40.34,35.89c1.17,0.19,3.32,0.25,4.49,0.19c11.29-0.53,22.52-2.5,34.72-3.17c1.93-0.11,3.12,0.09,4.1,0.19" class="grey" /><path d="M42.66,44.18c1.08,0.24,3.08,0.32,4.16,0.24c8.19-0.62,17.67-1.94,29.65-2.66c1.8-0.11,2.89,0.11,3.8,0.23" class="grey" /><path d="M36.14,52.5c1.58,0.31,4.49,0.42,6.06,0.31c11.2-0.81,27.75-3.12,45.55-3.79c2.62-0.1,4.21,0.15,5.53,0.3" class="grey" /><path d="M59.93,34.73c0.83,0.37,1.33,1.68,1.49,2.43c0.17,0.75,0,7.74-0.17,12.41" class="grey" /><path d="M53.29,52.31c0.06,0.43,0.24,1.16-0.12,1.74c-2.91,4.83-11.59,12.51-20.67,16.67" class="grey" /><path d="M70.92,50.45c3.64,2.14,15.98,11.34,19.22,13.29c1.1,0.66,2.51,0.94,3.61,1.13" class="grey" /><path d="M60.5,56.81c1.75,0.84,3,1.97,4,3.38" class="grey" /><path d="M50.9,64.96c2.12-0.06,20.06-2.25,22-2.33c1.61-0.06,2.62,0.47,2.52,1.82c-0.21,2.83-2.46,13.29-2.46,13.65" class="grey" /><path d="M51.27,71.48c3.68,0,7.43-0.65,11.08-1.04c1.21-0.13,2.43-0.26,3.59-0.38" class="grey" /><path d="M51.14,78.47c5.84-0.26,13.66-1.74,20.93-1.96" class="grey" /><path d="M48.62,63.7c1.06,0.32,1.69,1.42,1.9,2.05c0.21,0.63-0.29,27.37-0.29,28.95c0,2.31,0.6,3.03,3.13,1.93c2.54-1.1,6.38-3.38,11.76-5.9" class="grey" /><path d="M80.03,78.17c0.21,0.79,0.15,2.13-0.58,2.6c-2.45,1.59-5.65,3.78-7.55,4.89" class="grey" /><path d="M61.22,81.47c2.9,0,18.09,12.49,20.46,13.43c3.41,1.34,3.92,1.34,5.62,1.64" class="grey" /><path d="M52.38,10.13c1.59,0.78,4.95,5.87,5.26,7.44" class="stroke" stroke-dasharray="150"><animate attributeName="stroke-dashoffset" from="150" to="0" dur="1.8s" begin="0.0s" fill="freeze" /></path><path d="M25.63,22.48c1.87,0.67,5.3,0.77,7.17,0.67c19.46-1.12,32.21-2.6,49.53-3.48c3.11-0.16,4.99,0.32,6.55,0.65" class="stroke" stroke-dasharray="150"><set attributeName="opacity" to="0" dur="0.9s" /><animate attributeName="stroke-dashoffset" from="150" to="0" dur="1.8s" begin="0.9s" fill="freeze" /></path><path d="M29.99,23.5c0,37.49-1.24,55-15.19,70.22" class="stroke" stroke-dasharray="150"><set attributeName="opacity" to="0" dur="2.4s" /><animate attributeName="stroke-dashoffset" from="150" to="0" dur="1.8s" begin="2.4s" fill="freeze" /></path><path d="M13,37.25c3.35,1.76,8.66,7.26,9.5,10" class="stroke" stroke-dasharray="150"><set attributeName="opacity" to="0" dur="4.1s" /><animate attributeName="stroke-dashoffset" from="150" to="0" dur="1.8s" begin="4.1s" fill="freeze" /></path><path d="M11.67,67.03c1.29,0.68,1.7,0.49,2.83-0.35c4.6-3.37,7.26-5.52,10.75-8.43" class="stroke" stroke-dasharray="150"><set attributeName="opacity" to="0" dur="5.0s" /><animate attributeName="stroke-dashoffset" from="150" to="0" dur="1.8s" begin="5.0s" fill="freeze" /></path><path d="M48.35,26.4c2.24,1.05,5.79,4.31,6.35,5.94" class="stroke" stroke-dasharray="150"><set attributeName="opacity" to="0" dur="5.9s" /><animate attributeName="stroke-dashoffset" from="150" to="0" dur="1.8s" begin="5.9s" fill="freeze" /></path><path d="M72.11,25.39c0.01,0.15,0.03,0.4-0.03,0.62c-0.34,1.3-2.31,4.15-5.01,5.9" class="stroke" stroke-dasharray="150"><set attributeName="opacity" to="0" dur="6.800000000000001s" /><animate attributeName="stroke-dashoffset" from="150" to="0" dur="1.8s" begin="6.800000000000001s" fill="freeze" /></path><path d="M40.34,35.89c1.17,0.19,3.32,0.25,4.49,0.19c11.29-0.53,22.52-2.5,34.72-3.17c1.93-0.11,3.12,0.09,4.1,0.19" class="stroke" stroke-dasharray="150"><set attributeName="opacity" to="0" dur="7.700000000000001s" /><animate attributeName="stroke-dashoffset" from="150" to="0" dur="1.8s" begin="7.700000000000001s" fill="freeze" /></path><path d="M42.66,44.18c1.08,0.24,3.08,0.32,4.16,0.24c8.19-0.62,17.67-1.94,29.65-2.66c1.8-0.11,2.89,0.11,3.8,0.23" class="stroke" stroke-dasharray="150"><set attributeName="opacity" to="0" dur="8.8s" /><animate attributeName="stroke-dashoffset" from="150" to="0" dur="1.8s" begin="8.8s" fill="freeze" /></path><path d="M36.14,52.5c1.58,0.31,4.49,0.42,6.06,0.31c11.2-0.81,27.75-3.12,45.55-3.79c2.62-0.1,4.21,0.15,5.53,0.3" class="stroke" stroke-dasharray="150"><set attributeName="opacity" to="0" dur="9.8s" /><animate attributeName="stroke-dashoffset" from="150" to="0" dur="1.8s" begin="9.8s" fill="freeze" /></path><path d="M59.93,34.73c0.83,0.37,1.33,1.68,1.49,2.43c0.17,0.75,0,7.74-0.17,12.41" class="stroke" stroke-dasharray="150"><set attributeName="opacity" to="0" dur="11.200000000000001s" /><animate attributeName="stroke-dashoffset" from="150" to="0" dur="1.8s" begin="11.200000000000001s" fill="freeze" /></path><path d="M53.29,52.31c0.06,0.43,0.24,1.16-0.12,1.74c-2.91,4.83-11.59,12.51-20.67,16.67" class="stroke" stroke-dasharray="150"><set attributeName="opacity" to="0" dur="12.100000000000001s" /><animate attributeName="stroke-dashoffset" from="150" to="0" dur="1.8s" begin="12.100000000000001s" fill="freeze" /></path><path d="M70.92,50.45c3.64,2.14,15.98,11.34,19.22,13.29c1.1,0.66,2.51,0.94,3.61,1.13" class="stroke" stroke-dasharray="150"><set attributeName="opacity" to="0" dur="13.100000000000001s" /><animate attributeName="stroke-dashoffset" from="150" to="0" dur="1.8s" begin="13.100000000000001s" fill="freeze" /></path><path d="M60.5,56.81c1.75,0.84,3,1.97,4,3.38" class="stroke" stroke-dasharray="150"><set attributeName="opacity" to="0" dur="14.100000000000001s" /><animate attributeName="stroke-dashoffset" from="150" to="0" dur="1.8s" begin="14.100000000000001s" fill="freeze" /></path><path d="M50.9,64.96c2.12-0.06,20.06-2.25,22-2.33c1.61-0.06,2.62,0.47,2.52,1.82c-0.21,2.83-2.46,13.29-2.46,13.65" class="stroke" stroke-dasharray="150"><set attributeName="opacity" to="0" dur="15.000000000000002s" /><animate attributeName="stroke-dashoffset" from="150" to="0" dur="1.8s" begin="15.000000000000002s" fill="freeze" /></path><path d="M51.27,71.48c3.68,0,7.43-0.65,11.08-1.04c1.21-0.13,2.43-0.26,3.59-0.38" class="stroke" stroke-dasharray="150"><set attributeName="opacity" to="0" dur="16.0s" /><animate attributeName="stroke-dashoffset" from="150" to="0" dur="1.8s" begin="16.0s" fill="freeze" /></path><path d="M51.14,78.47c5.84-0.26,13.66-1.74,20.93-1.96" class="stroke" stroke-dasharray="150"><set attributeName="opacity" to="0" dur="16.9s" /><animate attributeName="stroke-dashoffset" from="150" to="0" dur="1.8s" begin="16.9s" fill="freeze" /></path><path d="M48.62,63.7c1.06,0.32,1.69,1.42,1.9,2.05c0.21,0.63-0.29,27.37-0.29,28.95c0,2.31,0.6,3.03,3.13,1.93c2.54-1.1,6.38-3.38,11.76-5.9" class="stroke" stroke-dasharray="150"><set attributeName="opacity" to="0" dur="17.9s" /><animate attributeName="stroke-dashoffset" from="150" to="0" dur="1.8s" begin="17.9s" fill="freeze" /></path><path d="M80.03,78.17c0.21,0.79,0.15,2.13-0.58,2.6c-2.45,1.59-5.65,3.78-7.55,4.89" class="stroke" stroke-dasharray="150"><set attributeName="opacity" to="0" dur="19.2s" /><animate attributeName="stroke-dashoffset" from="150" to="0" dur="1.8s" begin="19.2s" fill="freeze" /></path><path d="M61.22,81.47c2.9,0,18.09,12.49,20.46,13.43c3.41,1.34,3.92,1.34,5.62,1.64" class="stroke" stroke-dasharray="150"><set attributeName="opacity" to="0" dur="20.099999999999998s" /><animate attributeName="stroke-dashoffset" from="150" to="0" dur="1.8s" begin="20.099999999999998s" fill="freeze" /></path><text x="90" y="120" id="reset-kvg-07662-KaishoVtLst">⟳</text><text x="70" y="120" id="pause-kvg-07662-KaishoVtLst">◼</text><script type="text/javascript"><![CDATA[function RecurringTimer(e,t){var n,r,i=t;this.pause=function(){window.clearTimeout(n);i-=new Date-r};var s=function(){r=new Date;n=window.setTimeout(function(){i=t;s();e()},i)};this.clear=function(){window.clearTimeout(n);i=t;n=window.setTimeout(function(){i=t;s();e()},i)};this.resume=s;this.resume()}function invoketimer(){timer=new RecurringTimer(function(){svg.setCurrentTime(0)},22099.999999999996)}var svg=document.getElementById("kvg-07662-KaishoVtLst");var pause=document.getElementById("pause-kvg-07662-KaishoVtLst");var reset=document.getElementById("reset-kvg-07662-KaishoVtLst");var timer;invoketimer();reset.onclick=function(){svg.setCurrentTime(0);timer.clear();svg.unpauseAnimations();pause.innerHTML = "◼";};pause.onclick=function(){if(svg.animationsPaused()){svg.unpauseAnimations();timer.resume();pause.innerHTML="◼"}else{svg.pauseAnimations();timer.pause();pause.innerHTML="▶"}}]]></script></svg>