<svg id="kvg-076ae" class="kanjivg" width="106" height="126" xmlns="http://www.w3.org/2000/svg" xmlns:xlink="http://www.w3.org/1999/xlink" xml:space="preserve" version="1.1" baseProfile="full"><defs><style type="text/css"><![CDATA[path.black{fill:none;stroke:black;stroke-width:5;stroke-linecap:round;stroke-linejoin:round;}path.grey{fill:none;stroke:#ddd;stroke-width:5;stroke-linecap:round;stroke-linejoin:round;}path.stroke{fill:none;stroke:black;stroke-width:5;stroke-linecap:round;stroke-linejoin:round;}rect{fill:none;stroke:#555;stroke-width:2;} text{font-size:16px;font-family:Segoe UI Symbol,Cambria Math,DejaVu Sans,Symbola,Quivira,STIX,Code2000;-webkit-touch-callout:none;cursor:pointer;-webkit-user-select:none;-khtml-user-select:none;-moz-user-select:none;-ms-user-select:none;user-select: none;}text:hover{color:#777;}#reset{font-weight:bold;}]]></style><marker id="markerStart" markerWidth="8" markerHeight="8" style="overflow:visible;"><circle cx="0" cy="0" r="1.5" style="stroke:none;fill:red;fill-opacity:0.5;"/></marker><marker id="markerEnd" style="overflow:visible;"><circle cx="0" cy="0" r="0.8" style="stroke:none;fill:blue;fill-opacity:0.5;"><animate attributeName="opacity" from="1" to="0" dur="3s" repeatCount="indefinite" /></circle></marker></defs><rect x="4" y="4" width="100" height="100" /><path d="M22.41,32.87c1.3,1.3,1.71,2.72,1.7,5.07C24,64.5,22,80.88,11.87,92.63" class="grey" /><path d="M25.14,35.26C45.12,32,66.62,29.62,75.7,29.09c12.11-0.72,5.93,5.29,0.8,10.28" class="grey" /><path d="M51.87,13.75c1.06,1.06,1.46,2.5,1.46,3.75c0,1.02-0.08,23-0.08,33.25" class="grey" /><path d="M36,53.94c2.02,0.49,4.11,0.19,6.13-0.17c5.68-1,21.7-4.05,23.58-4.54c3.29-0.86,4.96,0.72,3.12,4.31C59.12,72.5,43.38,85.99,25,95.17" class="grey" /><path d="M36.23,62.9c4.67,0.76,26.56,20.08,43.46,29.57c3.08,1.73,6.32,3.56,9.84,4.21" class="grey" /><path d="M22.41,32.87c1.3,1.3,1.71,2.72,1.7,5.07C24,64.5,22,80.88,11.87,92.63" class="stroke" stroke-dasharray="150"><animate attributeName="stroke-dashoffset" from="150" to="0" dur="1.8s" begin="0.0s" fill="freeze" /></path><path d="M25.14,35.26C45.12,32,66.62,29.62,75.7,29.09c12.11-0.72,5.93,5.29,0.8,10.28" class="stroke" stroke-dasharray="150"><set attributeName="opacity" to="0" dur="1.5s" /><animate attributeName="stroke-dashoffset" from="150" to="0" dur="1.8s" begin="1.5s" fill="freeze" /></path><path d="M51.87,13.75c1.06,1.06,1.46,2.5,1.46,3.75c0,1.02-0.08,23-0.08,33.25" class="stroke" stroke-dasharray="150"><set attributeName="opacity" to="0" dur="3.0s" /><animate attributeName="stroke-dashoffset" from="150" to="0" dur="1.8s" begin="3.0s" fill="freeze" /></path><path d="M36,53.94c2.02,0.49,4.11,0.19,6.13-0.17c5.68-1,21.7-4.05,23.58-4.54c3.29-0.86,4.96,0.72,3.12,4.31C59.12,72.5,43.38,85.99,25,95.17" class="stroke" stroke-dasharray="150"><set attributeName="opacity" to="0" dur="4.0s" /><animate attributeName="stroke-dashoffset" from="150" to="0" dur="1.8s" begin="4.0s" fill="freeze" /></path><path d="M36.23,62.9c4.67,0.76,26.56,20.08,43.46,29.57c3.08,1.73,6.32,3.56,9.84,4.21" class="stroke" stroke-dasharray="150"><set attributeName="opacity" to="0" dur="5.8s" /><animate attributeName="stroke-dashoffset" from="150" to="0" dur="1.8s" begin="5.8s" fill="freeze" /></path><text x="90" y="120" id="reset-kvg-076ae">⟳</text><text x="70" y="120" id="pause-kvg-076ae">◼</text><script type="text/javascript"><![CDATA[function RecurringTimer(e,t){var n,r,i=t;this.pause=function(){window.clearTimeout(n);i-=new Date-r};var s=function(){r=new Date;n=window.setTimeout(function(){i=t;s();e()},i)};this.clear=function(){window.clearTimeout(n);i=t;n=window.setTimeout(function(){i=t;s();e()},i)};this.resume=s;this.resume()}function invoketimer(){timer=new RecurringTimer(function(){svg.setCurrentTime(0)},8300.0)}var svg=document.getElementById("kvg-076ae");var pause=document.getElementById("pause-kvg-076ae");var reset=document.getElementById("reset-kvg-076ae");var timer;invoketimer();reset.onclick=function(){svg.setCurrentTime(0);timer.clear();svg.unpauseAnimations();pause.innerHTML = "◼";};pause.onclick=function(){if(svg.animationsPaused()){svg.unpauseAnimations();timer.resume();pause.innerHTML="◼"}else{svg.pauseAnimations();timer.pause();pause.innerHTML="▶"}}]]></script></svg>