<svg id="kvg-076e5" class="kanjivg" width="106" height="126" xmlns="http://www.w3.org/2000/svg" xmlns:xlink="http://www.w3.org/1999/xlink" xml:space="preserve" version="1.1" baseProfile="full"><defs><style type="text/css"><![CDATA[path.black{fill:none;stroke:black;stroke-width:5;stroke-linecap:round;stroke-linejoin:round;}path.grey{fill:none;stroke:#ddd;stroke-width:5;stroke-linecap:round;stroke-linejoin:round;}path.stroke{fill:none;stroke:black;stroke-width:5;stroke-linecap:round;stroke-linejoin:round;}rect{fill:none;stroke:#555;stroke-width:2;} text{font-size:16px;font-family:Segoe UI Symbol,Cambria Math,DejaVu Sans,Symbola,Quivira,STIX,Code2000;-webkit-touch-callout:none;cursor:pointer;-webkit-user-select:none;-khtml-user-select:none;-moz-user-select:none;-ms-user-select:none;user-select: none;}text:hover{color:#777;}#reset{font-weight:bold;}]]></style><marker id="markerStart" markerWidth="8" markerHeight="8" style="overflow:visible;"><circle cx="0" cy="0" r="1.5" style="stroke:none;fill:red;fill-opacity:0.5;"/></marker><marker id="markerEnd" style="overflow:visible;"><circle cx="0" cy="0" r="0.8" style="stroke:none;fill:blue;fill-opacity:0.5;"><animate attributeName="opacity" from="1" to="0" dur="3s" repeatCount="indefinite" /></circle></marker></defs><rect x="4" y="4" width="100" height="100" /><path d="M52.68,13.58c0.58,0.54,0.99,1.48,1.04,3.28c0.24,8.65-0.15,36.65-0.15,39.6c0,5.82-4.47,0.52-5.36-0.22" class="grey" /><path d="M36.71,32.5c1.04,0.17,2.26,0.69,3.3,0.35c1.04-0.35,5.11-0.93,6.85-1.62s3.1,0.51,2.6,2.07c-2.32,7.24-9.79,17.25-16.21,21.22" class="grey" /><path d="M68.6,24.17c0.06,0.24-0.11,0.94-0.32,1.25c-1.96,2.98-6.13,6.65-9.68,8.2" class="grey" /><path d="M54.7,31.67c4.16,6.9,11.13,16.21,15.78,20.18c0.98,0.84,1.91,1.26,2.81,1.55" class="grey" /><path d="M35.84,14.88c0.04,0.23,0.15,0.65-0.08,0.91c-2.9,3.19-7.19,6.13-14.76,8.7" class="grey" /><path d="M16.87,23.91c1.09,0.55,1.74,2.47,1.96,3.56c0.22,1.1,3.92,28.78,5.42,37.56" class="grey" /><path d="M20.75,37.4c5-0.77,10.5-2.06,12.75-2.06" class="grey" /><path d="M22.5,49.23c4.5-1.02,8.5-1.34,11.25-1.34" class="grey" /><path d="M74.6,18.95c1.4,0.02,2.3,0.36,4.23,0.12c6.68-0.83,9.02-1.53,9.59-1.53c1.61,0,2.37,1.21,2.1,2.81c-1.02,6.14-4.04,39.91-5.02,43.53" class="grey" /><path d="M74.5,33.75c3.25,0.77,13.25-1.02,14.5-1.02" class="grey" /><path d="M74,45.79c3.5,0.77,10.25-0.54,13-0.5" class="grey" /><path d="M24.06,71.11c0.67,1.05,1.54,2.36,1.68,3.25c1.13,7.08,2.6,13.07,3.37,20.33" class="grey" /><path d="M25.78,73.34c11.87-1.45,50.25-2.9,55.23-3.47c1.72-0.2,2.76,1.17,2.51,2.33c-1.02,4.79-3.06,15.38-4.1,21.28" class="grey" /><path d="M44.21,73.56c0.28,0.67,0.56,1.24,0.68,2.08c0.95,6.57,0.54,11.72,1.21,18.71" class="grey" /><path d="M62.23,72.27c0.44,0.67,0.89,1.65,0.83,2.53c-0.42,5.62-0.59,11.17-1.6,18.55" class="grey" /><path d="M12.79,95.35c2.03,0.72,5.76,0.84,7.79,0.72c21.14-1.21,43.98-2.44,71.27-2.02c3.39,0.05,5.42,0.34,7.11,0.71" class="grey" /><path d="M52.68,13.58c0.58,0.54,0.99,1.48,1.04,3.28c0.24,8.65-0.15,36.65-0.15,39.6c0,5.82-4.47,0.52-5.36-0.22" class="stroke" stroke-dasharray="150"><animate attributeName="stroke-dashoffset" from="150" to="0" dur="1.8s" begin="0.0s" fill="freeze" /></path><path d="M36.71,32.5c1.04,0.17,2.26,0.69,3.3,0.35c1.04-0.35,5.11-0.93,6.85-1.62s3.1,0.51,2.6,2.07c-2.32,7.24-9.79,17.25-16.21,21.22" class="stroke" stroke-dasharray="150"><set attributeName="opacity" to="0" dur="1.3s" /><animate attributeName="stroke-dashoffset" from="150" to="0" dur="1.8s" begin="1.3s" fill="freeze" /></path><path d="M68.6,24.17c0.06,0.24-0.11,0.94-0.32,1.25c-1.96,2.98-6.13,6.65-9.68,8.2" class="stroke" stroke-dasharray="150"><set attributeName="opacity" to="0" dur="2.4000000000000004s" /><animate attributeName="stroke-dashoffset" from="150" to="0" dur="1.8s" begin="2.4000000000000004s" fill="freeze" /></path><path d="M54.7,31.67c4.16,6.9,11.13,16.21,15.78,20.18c0.98,0.84,1.91,1.26,2.81,1.55" class="stroke" stroke-dasharray="150"><set attributeName="opacity" to="0" dur="3.3000000000000003s" /><animate attributeName="stroke-dashoffset" from="150" to="0" dur="1.8s" begin="3.3000000000000003s" fill="freeze" /></path><path d="M35.84,14.88c0.04,0.23,0.15,0.65-0.08,0.91c-2.9,3.19-7.19,6.13-14.76,8.7" class="stroke" stroke-dasharray="150"><set attributeName="opacity" to="0" dur="4.300000000000001s" /><animate attributeName="stroke-dashoffset" from="150" to="0" dur="1.8s" begin="4.300000000000001s" fill="freeze" /></path><path d="M16.87,23.91c1.09,0.55,1.74,2.47,1.96,3.56c0.22,1.1,3.92,28.78,5.42,37.56" class="stroke" stroke-dasharray="150"><set attributeName="opacity" to="0" dur="5.200000000000001s" /><animate attributeName="stroke-dashoffset" from="150" to="0" dur="1.8s" begin="5.200000000000001s" fill="freeze" /></path><path d="M20.75,37.4c5-0.77,10.5-2.06,12.75-2.06" class="stroke" stroke-dasharray="150"><set attributeName="opacity" to="0" dur="6.300000000000001s" /><animate attributeName="stroke-dashoffset" from="150" to="0" dur="1.8s" begin="6.300000000000001s" fill="freeze" /></path><path d="M22.5,49.23c4.5-1.02,8.5-1.34,11.25-1.34" class="stroke" stroke-dasharray="150"><set attributeName="opacity" to="0" dur="7.200000000000001s" /><animate attributeName="stroke-dashoffset" from="150" to="0" dur="1.8s" begin="7.200000000000001s" fill="freeze" /></path><path d="M74.6,18.95c1.4,0.02,2.3,0.36,4.23,0.12c6.68-0.83,9.02-1.53,9.59-1.53c1.61,0,2.37,1.21,2.1,2.81c-1.02,6.14-4.04,39.91-5.02,43.53" class="stroke" stroke-dasharray="150"><set attributeName="opacity" to="0" dur="8.100000000000001s" /><animate attributeName="stroke-dashoffset" from="150" to="0" dur="1.8s" begin="8.100000000000001s" fill="freeze" /></path><path d="M74.5,33.75c3.25,0.77,13.25-1.02,14.5-1.02" class="stroke" stroke-dasharray="150"><set attributeName="opacity" to="0" dur="9.600000000000001s" /><animate attributeName="stroke-dashoffset" from="150" to="0" dur="1.8s" begin="9.600000000000001s" fill="freeze" /></path><path d="M74,45.79c3.5,0.77,10.25-0.54,13-0.5" class="stroke" stroke-dasharray="150"><set attributeName="opacity" to="0" dur="10.500000000000002s" /><animate attributeName="stroke-dashoffset" from="150" to="0" dur="1.8s" begin="10.500000000000002s" fill="freeze" /></path><path d="M24.06,71.11c0.67,1.05,1.54,2.36,1.68,3.25c1.13,7.08,2.6,13.07,3.37,20.33" class="stroke" stroke-dasharray="150"><set attributeName="opacity" to="0" dur="11.400000000000002s" /><animate attributeName="stroke-dashoffset" from="150" to="0" dur="1.8s" begin="11.400000000000002s" fill="freeze" /></path><path d="M25.78,73.34c11.87-1.45,50.25-2.9,55.23-3.47c1.72-0.2,2.76,1.17,2.51,2.33c-1.02,4.79-3.06,15.38-4.1,21.28" class="stroke" stroke-dasharray="150"><set attributeName="opacity" to="0" dur="12.400000000000002s" /><animate attributeName="stroke-dashoffset" from="150" to="0" dur="1.8s" begin="12.400000000000002s" fill="freeze" /></path><path d="M44.21,73.56c0.28,0.67,0.56,1.24,0.68,2.08c0.95,6.57,0.54,11.72,1.21,18.71" class="stroke" stroke-dasharray="150"><set attributeName="opacity" to="0" dur="14.100000000000001s" /><animate attributeName="stroke-dashoffset" from="150" to="0" dur="1.8s" begin="14.100000000000001s" fill="freeze" /></path><path d="M62.23,72.27c0.44,0.67,0.89,1.65,0.83,2.53c-0.42,5.62-0.59,11.17-1.6,18.55" class="stroke" stroke-dasharray="150"><set attributeName="opacity" to="0" dur="15.100000000000001s" /><animate attributeName="stroke-dashoffset" from="150" to="0" dur="1.8s" begin="15.100000000000001s" fill="freeze" /></path><path d="M12.79,95.35c2.03,0.72,5.76,0.84,7.79,0.72c21.14-1.21,43.98-2.44,71.27-2.02c3.39,0.05,5.42,0.34,7.11,0.71" class="stroke" stroke-dasharray="150"><set attributeName="opacity" to="0" dur="16.1s" /><animate attributeName="stroke-dashoffset" from="150" to="0" dur="1.8s" begin="16.1s" fill="freeze" /></path><text x="90" y="120" id="reset-kvg-076e5">⟳</text><text x="70" y="120" id="pause-kvg-076e5">◼</text><script type="text/javascript"><![CDATA[function RecurringTimer(e,t){var n,r,i=t;this.pause=function(){window.clearTimeout(n);i-=new Date-r};var s=function(){r=new Date;n=window.setTimeout(function(){i=t;s();e()},i)};this.clear=function(){window.clearTimeout(n);i=t;n=window.setTimeout(function(){i=t;s();e()},i)};this.resume=s;this.resume()}function invoketimer(){timer=new RecurringTimer(function(){svg.setCurrentTime(0)},18800.0)}var svg=document.getElementById("kvg-076e5");var pause=document.getElementById("pause-kvg-076e5");var reset=document.getElementById("reset-kvg-076e5");var timer;invoketimer();reset.onclick=function(){svg.setCurrentTime(0);timer.clear();svg.unpauseAnimations();pause.innerHTML = "◼";};pause.onclick=function(){if(svg.animationsPaused()){svg.unpauseAnimations();timer.resume();pause.innerHTML="◼"}else{svg.pauseAnimations();timer.pause();pause.innerHTML="▶"}}]]></script></svg>