<svg id="kvg-07738" class="kanjivg" width="106" height="126" xmlns="http://www.w3.org/2000/svg" xmlns:xlink="http://www.w3.org/1999/xlink" xml:space="preserve" version="1.1" baseProfile="full"><defs><style type="text/css"><![CDATA[path.black{fill:none;stroke:black;stroke-width:5;stroke-linecap:round;stroke-linejoin:round;}path.grey{fill:none;stroke:#ddd;stroke-width:5;stroke-linecap:round;stroke-linejoin:round;}path.stroke{fill:none;stroke:black;stroke-width:5;stroke-linecap:round;stroke-linejoin:round;}rect{fill:none;stroke:#555;stroke-width:2;} text{font-size:16px;font-family:Segoe UI Symbol,Cambria Math,DejaVu Sans,Symbola,Quivira,STIX,Code2000;-webkit-touch-callout:none;cursor:pointer;-webkit-user-select:none;-khtml-user-select:none;-moz-user-select:none;-ms-user-select:none;user-select: none;}text:hover{color:#777;}#reset{font-weight:bold;}]]></style><marker id="markerStart" markerWidth="8" markerHeight="8" style="overflow:visible;"><circle cx="0" cy="0" r="1.5" style="stroke:none;fill:red;fill-opacity:0.5;"/></marker><marker id="markerEnd" style="overflow:visible;"><circle cx="0" cy="0" r="0.8" style="stroke:none;fill:blue;fill-opacity:0.5;"><animate attributeName="opacity" from="1" to="0" dur="3s" repeatCount="indefinite" /></circle></marker></defs><rect x="4" y="4" width="100" height="100" /><path d="M13.38,21.3c0.84,0.84,1.11,2.36,1.11,4.09c0,1.38,0,33.69,0,48.98c0,3.93,0,6.74,0,7.61" class="grey" /><path d="M15.08,23.48c3.25-0.42,13.23-2.06,17.3-2.5c3.25-0.35,4.02,1.42,3.99,4.4c-0.06,7.57-0.16,32.7-0.18,47.99c0,2.82-0.01,5.31-0.01,7.29" class="grey" /><path d="M15.54,41.49c5.46-0.45,14.33-1.12,19.82-1.03" class="grey" /><path d="M15.7,58.76c5.24-0.21,12.42-0.88,19.36-1.07" class="grey" /><path d="M15.68,78.05c5.38-0.25,11.2-0.92,19.42-1.11" class="grey" /><path d="M67.7,9c0.05,1-0.25,2.41-0.66,2.94C61.38,19,54.5,25.75,47.77,31.66c-1.92,1.69-1.55,4.13,1.09,3.55c8.89-1.96,25.52-5.46,36.15-7.57" class="grey" /><path d="M77.84,17.9c5.28,2.97,13.65,12.2,14.97,16.81" class="grey" /><path d="M56.07,41.64c0.07,1.12-0.21,2.44-0.66,3.49c-2.16,4.99-5.44,10.56-11.07,17.61" class="grey" /><path d="M56.23,51.17c2.4,0.46,4.18,0.29,5.89,0.19c7.18-0.42,15.34-0.81,23.27-1.25c1.97-0.11,4.01-0.21,5.92,0.43" class="grey" /><path d="M43.75,69.73c3.12,0.77,6.87,0.36,9.74,0.21c10.26-0.56,22.64-1.06,37.64-1.83c2.63-0.13,5.31-0.04,7.88,0.71" class="grey" /><path d="M68.45,37.13c0.9,0.9,1.48,2.37,1.48,4.25c0,3.83,0.04,32.37,0.06,48.49c0,4.36,0.01,7.82,0.01,9.62" class="grey" /><path d="M13.38,21.3c0.84,0.84,1.11,2.36,1.11,4.09c0,1.38,0,33.69,0,48.98c0,3.93,0,6.74,0,7.61" class="stroke" stroke-dasharray="150"><animate attributeName="stroke-dashoffset" from="150" to="0" dur="1.8s" begin="0.0s" fill="freeze" /></path><path d="M15.08,23.48c3.25-0.42,13.23-2.06,17.3-2.5c3.25-0.35,4.02,1.42,3.99,4.4c-0.06,7.57-0.16,32.7-0.18,47.99c0,2.82-0.01,5.31-0.01,7.29" class="stroke" stroke-dasharray="150"><set attributeName="opacity" to="0" dur="1.5s" /><animate attributeName="stroke-dashoffset" from="150" to="0" dur="1.8s" begin="1.5s" fill="freeze" /></path><path d="M15.54,41.49c5.46-0.45,14.33-1.12,19.82-1.03" class="stroke" stroke-dasharray="150"><set attributeName="opacity" to="0" dur="3.2s" /><animate attributeName="stroke-dashoffset" from="150" to="0" dur="1.8s" begin="3.2s" fill="freeze" /></path><path d="M15.7,58.76c5.24-0.21,12.42-0.88,19.36-1.07" class="stroke" stroke-dasharray="150"><set attributeName="opacity" to="0" dur="4.1000000000000005s" /><animate attributeName="stroke-dashoffset" from="150" to="0" dur="1.8s" begin="4.1000000000000005s" fill="freeze" /></path><path d="M15.68,78.05c5.38-0.25,11.2-0.92,19.42-1.11" class="stroke" stroke-dasharray="150"><set attributeName="opacity" to="0" dur="5.000000000000001s" /><animate attributeName="stroke-dashoffset" from="150" to="0" dur="1.8s" begin="5.000000000000001s" fill="freeze" /></path><path d="M67.7,9c0.05,1-0.25,2.41-0.66,2.94C61.38,19,54.5,25.75,47.77,31.66c-1.92,1.69-1.55,4.13,1.09,3.55c8.89-1.96,25.52-5.46,36.15-7.57" class="stroke" stroke-dasharray="150"><set attributeName="opacity" to="0" dur="5.900000000000001s" /><animate attributeName="stroke-dashoffset" from="150" to="0" dur="1.8s" begin="5.900000000000001s" fill="freeze" /></path><path d="M77.84,17.9c5.28,2.97,13.65,12.2,14.97,16.81" class="stroke" stroke-dasharray="150"><set attributeName="opacity" to="0" dur="7.600000000000001s" /><animate attributeName="stroke-dashoffset" from="150" to="0" dur="1.8s" begin="7.600000000000001s" fill="freeze" /></path><path d="M56.07,41.64c0.07,1.12-0.21,2.44-0.66,3.49c-2.16,4.99-5.44,10.56-11.07,17.61" class="stroke" stroke-dasharray="150"><set attributeName="opacity" to="0" dur="8.600000000000001s" /><animate attributeName="stroke-dashoffset" from="150" to="0" dur="1.8s" begin="8.600000000000001s" fill="freeze" /></path><path d="M56.23,51.17c2.4,0.46,4.18,0.29,5.89,0.19c7.18-0.42,15.34-0.81,23.27-1.25c1.97-0.11,4.01-0.21,5.92,0.43" class="stroke" stroke-dasharray="150"><set attributeName="opacity" to="0" dur="9.600000000000001s" /><animate attributeName="stroke-dashoffset" from="150" to="0" dur="1.8s" begin="9.600000000000001s" fill="freeze" /></path><path d="M43.75,69.73c3.12,0.77,6.87,0.36,9.74,0.21c10.26-0.56,22.64-1.06,37.64-1.83c2.63-0.13,5.31-0.04,7.88,0.71" class="stroke" stroke-dasharray="150"><set attributeName="opacity" to="0" dur="10.600000000000001s" /><animate attributeName="stroke-dashoffset" from="150" to="0" dur="1.8s" begin="10.600000000000001s" fill="freeze" /></path><path d="M68.45,37.13c0.9,0.9,1.48,2.37,1.48,4.25c0,3.83,0.04,32.37,0.06,48.49c0,4.36,0.01,7.82,0.01,9.62" class="stroke" stroke-dasharray="150"><set attributeName="opacity" to="0" dur="12.000000000000002s" /><animate attributeName="stroke-dashoffset" from="150" to="0" dur="1.8s" begin="12.000000000000002s" fill="freeze" /></path><text x="90" y="120" id="reset-kvg-07738">⟳</text><text x="70" y="120" id="pause-kvg-07738">◼</text><script type="text/javascript"><![CDATA[function RecurringTimer(e,t){var n,r,i=t;this.pause=function(){window.clearTimeout(n);i-=new Date-r};var s=function(){r=new Date;n=window.setTimeout(function(){i=t;s();e()},i)};this.clear=function(){window.clearTimeout(n);i=t;n=window.setTimeout(function(){i=t;s();e()},i)};this.resume=s;this.resume()}function invoketimer(){timer=new RecurringTimer(function(){svg.setCurrentTime(0)},14500.000000000002)}var svg=document.getElementById("kvg-07738");var pause=document.getElementById("pause-kvg-07738");var reset=document.getElementById("reset-kvg-07738");var timer;invoketimer();reset.onclick=function(){svg.setCurrentTime(0);timer.clear();svg.unpauseAnimations();pause.innerHTML = "◼";};pause.onclick=function(){if(svg.animationsPaused()){svg.unpauseAnimations();timer.resume();pause.innerHTML="◼"}else{svg.pauseAnimations();timer.pause();pause.innerHTML="▶"}}]]></script></svg>