<svg id="kvg-07766" class="kanjivg" width="106" height="126" xmlns="http://www.w3.org/2000/svg" xmlns:xlink="http://www.w3.org/1999/xlink" xml:space="preserve" version="1.1" baseProfile="full"><defs><style type="text/css"><![CDATA[path.black{fill:none;stroke:black;stroke-width:5;stroke-linecap:round;stroke-linejoin:round;}path.grey{fill:none;stroke:#ddd;stroke-width:5;stroke-linecap:round;stroke-linejoin:round;}path.stroke{fill:none;stroke:black;stroke-width:5;stroke-linecap:round;stroke-linejoin:round;}rect{fill:none;stroke:#555;stroke-width:2;} text{font-size:16px;font-family:Segoe UI Symbol,Cambria Math,DejaVu Sans,Symbola,Quivira,STIX,Code2000;-webkit-touch-callout:none;cursor:pointer;-webkit-user-select:none;-khtml-user-select:none;-moz-user-select:none;-ms-user-select:none;user-select: none;}text:hover{color:#777;}#reset{font-weight:bold;}]]></style><marker id="markerStart" markerWidth="8" markerHeight="8" style="overflow:visible;"><circle cx="0" cy="0" r="1.5" style="stroke:none;fill:red;fill-opacity:0.5;"/></marker><marker id="markerEnd" style="overflow:visible;"><circle cx="0" cy="0" r="0.8" style="stroke:none;fill:blue;fill-opacity:0.5;"><animate attributeName="opacity" from="1" to="0" dur="3s" repeatCount="indefinite" /></circle></marker></defs><rect x="4" y="4" width="100" height="100" /><path d="M13.88,26.3c0.97,0.97,1.36,2.34,1.36,4.06c0,1.36-0.07,34.15-0.05,48.64c0.01,3.82,0.02,6.37,0.05,6.73" class="grey" /><path d="M15.83,28.47c2.55-0.4,11.98-1.91,16.05-2.44c2.99-0.39,4.25,0.88,4.25,3.96c0,7.21,0.04,33.18,0.05,48.38c0,2.41,0,4.55,0,6.3" class="grey" /><path d="M16.29,46.07c5.46-0.45,13.46-1.57,18.57-2.02" class="grey" /><path d="M15.95,64.19c6.55-0.94,12.17-1.82,18.86-2.31" class="grey" /><path d="M16.18,83.58c6.57-0.95,11.07-1.33,18.42-1.85" class="grey" /><path d="M51.79,29.04c1.71,0.59,4.22,0.44,5.97,0.22c5.66-0.73,16.85-2.73,22.37-3.12c1.64-0.12,3.3-0.13,4.92,0.21" class="grey" /><path d="M65.45,11.87c0.97,0.97,1.27,2.13,1.27,3.59c0,8.8-0.06,19.8-0.06,25.99" class="grey" /><path d="M42.97,44.14c3.65,0.61,5.91,0.63,8.78,0.24c8.13-1.09,22.12-2.51,35.12-3.45c2.9-0.21,5.85-0.04,8.7,0.5" class="grey" /><path d="M58.24,47.65c0.16,1.06-0.12,2.46-0.65,3.39c-2.84,4.97-6.97,9.72-13.84,15.42" class="grey" /><path d="M75.76,44.84c0.95,0.95,1.13,1.9,1.13,3.24c0,1.81,0.03,5.2,0.03,6.49c0,3.52,0.95,4.97,7.41,4.97c4.4,0,7.64-0.25,9.5-1.39" class="grey" /><path d="M48.11,75.15c2.26,0.35,4.44,0.47,6.64,0.21c8.69-1.02,20.12-2.31,27.36-2.72c1.95-0.11,3.95-0.31,5.87,0.14" class="grey" /><path d="M65.54,58.91c1.21,1.21,1.61,2.47,1.61,4.22c0,6.87,0.09,23.5,0.09,28.25" class="grey" /><path d="M39.5,93c2.47,1.39,6.29,0.86,9,0.61c12.59-1.15,28.51-1.86,40.14-2.39c3.02-0.14,6.39,0.15,9.29,0.99" class="grey" /><path d="M13.88,26.3c0.97,0.97,1.36,2.34,1.36,4.06c0,1.36-0.07,34.15-0.05,48.64c0.01,3.82,0.02,6.37,0.05,6.73" class="stroke" stroke-dasharray="150"><animate attributeName="stroke-dashoffset" from="150" to="0" dur="1.8s" begin="0.0s" fill="freeze" /></path><path d="M15.83,28.47c2.55-0.4,11.98-1.91,16.05-2.44c2.99-0.39,4.25,0.88,4.25,3.96c0,7.21,0.04,33.18,0.05,48.38c0,2.41,0,4.55,0,6.3" class="stroke" stroke-dasharray="150"><set attributeName="opacity" to="0" dur="1.4s" /><animate attributeName="stroke-dashoffset" from="150" to="0" dur="1.8s" begin="1.4s" fill="freeze" /></path><path d="M16.29,46.07c5.46-0.45,13.46-1.57,18.57-2.02" class="stroke" stroke-dasharray="150"><set attributeName="opacity" to="0" dur="3.0999999999999996s" /><animate attributeName="stroke-dashoffset" from="150" to="0" dur="1.8s" begin="3.0999999999999996s" fill="freeze" /></path><path d="M15.95,64.19c6.55-0.94,12.17-1.82,18.86-2.31" class="stroke" stroke-dasharray="150"><set attributeName="opacity" to="0" dur="3.9999999999999996s" /><animate attributeName="stroke-dashoffset" from="150" to="0" dur="1.8s" begin="3.9999999999999996s" fill="freeze" /></path><path d="M16.18,83.58c6.57-0.95,11.07-1.33,18.42-1.85" class="stroke" stroke-dasharray="150"><set attributeName="opacity" to="0" dur="4.8999999999999995s" /><animate attributeName="stroke-dashoffset" from="150" to="0" dur="1.8s" begin="4.8999999999999995s" fill="freeze" /></path><path d="M51.79,29.04c1.71,0.59,4.22,0.44,5.97,0.22c5.66-0.73,16.85-2.73,22.37-3.12c1.64-0.12,3.3-0.13,4.92,0.21" class="stroke" stroke-dasharray="150"><set attributeName="opacity" to="0" dur="5.8s" /><animate attributeName="stroke-dashoffset" from="150" to="0" dur="1.8s" begin="5.8s" fill="freeze" /></path><path d="M65.45,11.87c0.97,0.97,1.27,2.13,1.27,3.59c0,8.8-0.06,19.8-0.06,25.99" class="stroke" stroke-dasharray="150"><set attributeName="opacity" to="0" dur="6.8s" /><animate attributeName="stroke-dashoffset" from="150" to="0" dur="1.8s" begin="6.8s" fill="freeze" /></path><path d="M42.97,44.14c3.65,0.61,5.91,0.63,8.78,0.24c8.13-1.09,22.12-2.51,35.12-3.45c2.9-0.21,5.85-0.04,8.7,0.5" class="stroke" stroke-dasharray="150"><set attributeName="opacity" to="0" dur="7.8s" /><animate attributeName="stroke-dashoffset" from="150" to="0" dur="1.8s" begin="7.8s" fill="freeze" /></path><path d="M58.24,47.65c0.16,1.06-0.12,2.46-0.65,3.39c-2.84,4.97-6.97,9.72-13.84,15.42" class="stroke" stroke-dasharray="150"><set attributeName="opacity" to="0" dur="9.1s" /><animate attributeName="stroke-dashoffset" from="150" to="0" dur="1.8s" begin="9.1s" fill="freeze" /></path><path d="M75.76,44.84c0.95,0.95,1.13,1.9,1.13,3.24c0,1.81,0.03,5.2,0.03,6.49c0,3.52,0.95,4.97,7.41,4.97c4.4,0,7.64-0.25,9.5-1.39" class="stroke" stroke-dasharray="150"><set attributeName="opacity" to="0" dur="10.1s" /><animate attributeName="stroke-dashoffset" from="150" to="0" dur="1.8s" begin="10.1s" fill="freeze" /></path><path d="M48.11,75.15c2.26,0.35,4.44,0.47,6.64,0.21c8.69-1.02,20.12-2.31,27.36-2.72c1.95-0.11,3.95-0.31,5.87,0.14" class="stroke" stroke-dasharray="150"><set attributeName="opacity" to="0" dur="11.1s" /><animate attributeName="stroke-dashoffset" from="150" to="0" dur="1.8s" begin="11.1s" fill="freeze" /></path><path d="M65.54,58.91c1.21,1.21,1.61,2.47,1.61,4.22c0,6.87,0.09,23.5,0.09,28.25" class="stroke" stroke-dasharray="150"><set attributeName="opacity" to="0" dur="12.2s" /><animate attributeName="stroke-dashoffset" from="150" to="0" dur="1.8s" begin="12.2s" fill="freeze" /></path><path d="M39.5,93c2.47,1.39,6.29,0.86,9,0.61c12.59-1.15,28.51-1.86,40.14-2.39c3.02-0.14,6.39,0.15,9.29,0.99" class="stroke" stroke-dasharray="150"><set attributeName="opacity" to="0" dur="13.2s" /><animate attributeName="stroke-dashoffset" from="150" to="0" dur="1.8s" begin="13.2s" fill="freeze" /></path><text x="90" y="120" id="reset-kvg-07766">⟳</text><text x="70" y="120" id="pause-kvg-07766">◼</text><script type="text/javascript"><![CDATA[function RecurringTimer(e,t){var n,r,i=t;this.pause=function(){window.clearTimeout(n);i-=new Date-r};var s=function(){r=new Date;n=window.setTimeout(function(){i=t;s();e()},i)};this.clear=function(){window.clearTimeout(n);i=t;n=window.setTimeout(function(){i=t;s();e()},i)};this.resume=s;this.resume()}function invoketimer(){timer=new RecurringTimer(function(){svg.setCurrentTime(0)},15600.0)}var svg=document.getElementById("kvg-07766");var pause=document.getElementById("pause-kvg-07766");var reset=document.getElementById("reset-kvg-07766");var timer;invoketimer();reset.onclick=function(){svg.setCurrentTime(0);timer.clear();svg.unpauseAnimations();pause.innerHTML = "◼";};pause.onclick=function(){if(svg.animationsPaused()){svg.unpauseAnimations();timer.resume();pause.innerHTML="◼"}else{svg.pauseAnimations();timer.pause();pause.innerHTML="▶"}}]]></script></svg>