<svg id="kvg-07765" class="kanjivg" width="106" height="126" xmlns="http://www.w3.org/2000/svg" xmlns:xlink="http://www.w3.org/1999/xlink" xml:space="preserve" version="1.1" baseProfile="full"><defs><style type="text/css"><![CDATA[path.black{fill:none;stroke:black;stroke-width:5;stroke-linecap:round;stroke-linejoin:round;}path.grey{fill:none;stroke:#ddd;stroke-width:5;stroke-linecap:round;stroke-linejoin:round;}path.stroke{fill:none;stroke:black;stroke-width:5;stroke-linecap:round;stroke-linejoin:round;}rect{fill:none;stroke:#555;stroke-width:2;} text{font-size:16px;font-family:Segoe UI Symbol,Cambria Math,DejaVu Sans,Symbola,Quivira,STIX,Code2000;-webkit-touch-callout:none;cursor:pointer;-webkit-user-select:none;-khtml-user-select:none;-moz-user-select:none;-ms-user-select:none;user-select: none;}text:hover{color:#777;}#reset{font-weight:bold;}]]></style><marker id="markerStart" markerWidth="8" markerHeight="8" style="overflow:visible;"><circle cx="0" cy="0" r="1.5" style="stroke:none;fill:red;fill-opacity:0.5;"/></marker><marker id="markerEnd" style="overflow:visible;"><circle cx="0" cy="0" r="0.8" style="stroke:none;fill:blue;fill-opacity:0.5;"><animate attributeName="opacity" from="1" to="0" dur="3s" repeatCount="indefinite" /></circle></marker></defs><rect x="4" y="4" width="100" height="100" /><path d="M14.88,18.51c0.37,0.99,0.76,2.22,0.76,3.85c0,1.63-0.1,61.97,0,63.61" class="grey" /><path d="M16.16,20.15c1.76-0.02,14.59-2.22,16.19-2.3c1.33-0.06,2.27,1.38,2.27,2.9c0,5.59-0.62,51.21-0.62,63.97" class="grey" /><path d="M16.13,41.28c4.85-0.43,12.12-1.28,18.15-1.73" class="grey" /><path d="M15.78,60.8c4.65-0.19,13.47-1.3,18.13-1.53" class="grey" /><path d="M16.09,82.99c4.77-0.23,11.81-1.34,17.85-1.31" class="grey" /><path d="M69.78,11.14c0.02,0.3,0.05,0.78-0.04,1.21c-0.56,2.56-3.78,8.17-8.18,11.61" class="grey" /><path d="M46.02,25.59c0.37,0.55,0.37,0.94,0.58,1.63c1.65,5.73,2.21,15.56,3.24,26.24" class="grey" /><path d="M47.37,26.97c10.74-1.23,29.48-2.15,37.5-3.18c2.95-0.38,4.09,0.66,3.88,3.25c-0.4,4.95-2.35,17.32-3.69,25.55" class="grey" /><path d="M49.38,39.06c3.5-0.48,33.72-2.36,36.61-2.56" class="grey" /><path d="M50.52,52.12c7.74-0.52,22.73-1.62,34.54-1.88" class="grey" /><path d="M67.54,27.43c0.43,0.93,0.4,2.33,0.28,3.58c-1.13,12.54-2.58,26.5-14.07,34.25" class="grey" /><path d="M43.25,72.81c0.89,0.25,3.26,0.93,5.61,0.75c15.88-1.24,28.81-2.32,43.9-2.56c2.36-0.04,4.27,0.07,5.74,0.32" class="grey" /><path d="M74.37,55.25c1.09,0.5,1.74,2.25,1.96,3.25c0.22,1,0,33.25-0.22,39.5" class="grey" /><path d="M14.88,18.51c0.37,0.99,0.76,2.22,0.76,3.85c0,1.63-0.1,61.97,0,63.61" class="stroke" stroke-dasharray="150"><animate attributeName="stroke-dashoffset" from="150" to="0" dur="1.8s" begin="0.0s" fill="freeze" /></path><path d="M16.16,20.15c1.76-0.02,14.59-2.22,16.19-2.3c1.33-0.06,2.27,1.38,2.27,2.9c0,5.59-0.62,51.21-0.62,63.97" class="stroke" stroke-dasharray="150"><set attributeName="opacity" to="0" dur="1.5s" /><animate attributeName="stroke-dashoffset" from="150" to="0" dur="1.8s" begin="1.5s" fill="freeze" /></path><path d="M16.13,41.28c4.85-0.43,12.12-1.28,18.15-1.73" class="stroke" stroke-dasharray="150"><set attributeName="opacity" to="0" dur="3.2s" /><animate attributeName="stroke-dashoffset" from="150" to="0" dur="1.8s" begin="3.2s" fill="freeze" /></path><path d="M15.78,60.8c4.65-0.19,13.47-1.3,18.13-1.53" class="stroke" stroke-dasharray="150"><set attributeName="opacity" to="0" dur="4.1000000000000005s" /><animate attributeName="stroke-dashoffset" from="150" to="0" dur="1.8s" begin="4.1000000000000005s" fill="freeze" /></path><path d="M16.09,82.99c4.77-0.23,11.81-1.34,17.85-1.31" class="stroke" stroke-dasharray="150"><set attributeName="opacity" to="0" dur="5.000000000000001s" /><animate attributeName="stroke-dashoffset" from="150" to="0" dur="1.8s" begin="5.000000000000001s" fill="freeze" /></path><path d="M69.78,11.14c0.02,0.3,0.05,0.78-0.04,1.21c-0.56,2.56-3.78,8.17-8.18,11.61" class="stroke" stroke-dasharray="150"><set attributeName="opacity" to="0" dur="5.900000000000001s" /><animate attributeName="stroke-dashoffset" from="150" to="0" dur="1.8s" begin="5.900000000000001s" fill="freeze" /></path><path d="M46.02,25.59c0.37,0.55,0.37,0.94,0.58,1.63c1.65,5.73,2.21,15.56,3.24,26.24" class="stroke" stroke-dasharray="150"><set attributeName="opacity" to="0" dur="6.800000000000002s" /><animate attributeName="stroke-dashoffset" from="150" to="0" dur="1.8s" begin="6.800000000000002s" fill="freeze" /></path><path d="M47.37,26.97c10.74-1.23,29.48-2.15,37.5-3.18c2.95-0.38,4.09,0.66,3.88,3.25c-0.4,4.95-2.35,17.32-3.69,25.55" class="stroke" stroke-dasharray="150"><set attributeName="opacity" to="0" dur="7.800000000000002s" /><animate attributeName="stroke-dashoffset" from="150" to="0" dur="1.8s" begin="7.800000000000002s" fill="freeze" /></path><path d="M49.38,39.06c3.5-0.48,33.72-2.36,36.61-2.56" class="stroke" stroke-dasharray="150"><set attributeName="opacity" to="0" dur="9.3s" /><animate attributeName="stroke-dashoffset" from="150" to="0" dur="1.8s" begin="9.3s" fill="freeze" /></path><path d="M50.52,52.12c7.74-0.52,22.73-1.62,34.54-1.88" class="stroke" stroke-dasharray="150"><set attributeName="opacity" to="0" dur="10.3s" /><animate attributeName="stroke-dashoffset" from="150" to="0" dur="1.8s" begin="10.3s" fill="freeze" /></path><path d="M67.54,27.43c0.43,0.93,0.4,2.33,0.28,3.58c-1.13,12.54-2.58,26.5-14.07,34.25" class="stroke" stroke-dasharray="150"><set attributeName="opacity" to="0" dur="11.3s" /><animate attributeName="stroke-dashoffset" from="150" to="0" dur="1.8s" begin="11.3s" fill="freeze" /></path><path d="M43.25,72.81c0.89,0.25,3.26,0.93,5.61,0.75c15.88-1.24,28.81-2.32,43.9-2.56c2.36-0.04,4.27,0.07,5.74,0.32" class="stroke" stroke-dasharray="150"><set attributeName="opacity" to="0" dur="12.4s" /><animate attributeName="stroke-dashoffset" from="150" to="0" dur="1.8s" begin="12.4s" fill="freeze" /></path><path d="M74.37,55.25c1.09,0.5,1.74,2.25,1.96,3.25c0.22,1,0,33.25-0.22,39.5" class="stroke" stroke-dasharray="150"><set attributeName="opacity" to="0" dur="13.8s" /><animate attributeName="stroke-dashoffset" from="150" to="0" dur="1.8s" begin="13.8s" fill="freeze" /></path><text x="90" y="120" id="reset-kvg-07765">⟳</text><text x="70" y="120" id="pause-kvg-07765">◼</text><script type="text/javascript"><![CDATA[function RecurringTimer(e,t){var n,r,i=t;this.pause=function(){window.clearTimeout(n);i-=new Date-r};var s=function(){r=new Date;n=window.setTimeout(function(){i=t;s();e()},i)};this.clear=function(){window.clearTimeout(n);i=t;n=window.setTimeout(function(){i=t;s();e()},i)};this.resume=s;this.resume()}function invoketimer(){timer=new RecurringTimer(function(){svg.setCurrentTime(0)},15900.0)}var svg=document.getElementById("kvg-07765");var pause=document.getElementById("pause-kvg-07765");var reset=document.getElementById("reset-kvg-07765");var timer;invoketimer();reset.onclick=function(){svg.setCurrentTime(0);timer.clear();svg.unpauseAnimations();pause.innerHTML = "◼";};pause.onclick=function(){if(svg.animationsPaused()){svg.unpauseAnimations();timer.resume();pause.innerHTML="◼"}else{svg.pauseAnimations();timer.pause();pause.innerHTML="▶"}}]]></script></svg>