<svg id="kvg-07815" class="kanjivg" width="106" height="126" xmlns="http://www.w3.org/2000/svg" xmlns:xlink="http://www.w3.org/1999/xlink" xml:space="preserve" version="1.1" baseProfile="full"><defs><style type="text/css"><![CDATA[path.black{fill:none;stroke:black;stroke-width:5;stroke-linecap:round;stroke-linejoin:round;}path.grey{fill:none;stroke:#ddd;stroke-width:5;stroke-linecap:round;stroke-linejoin:round;}path.stroke{fill:none;stroke:black;stroke-width:5;stroke-linecap:round;stroke-linejoin:round;}rect{fill:none;stroke:#555;stroke-width:2;} text{font-size:16px;font-family:Segoe UI Symbol,Cambria Math,DejaVu Sans,Symbola,Quivira,STIX,Code2000;-webkit-touch-callout:none;cursor:pointer;-webkit-user-select:none;-khtml-user-select:none;-moz-user-select:none;-ms-user-select:none;user-select: none;}text:hover{color:#777;}#reset{font-weight:bold;}]]></style><marker id="markerStart" markerWidth="8" markerHeight="8" style="overflow:visible;"><circle cx="0" cy="0" r="1.5" style="stroke:none;fill:red;fill-opacity:0.5;"/></marker><marker id="markerEnd" style="overflow:visible;"><circle cx="0" cy="0" r="0.8" style="stroke:none;fill:blue;fill-opacity:0.5;"><animate attributeName="opacity" from="1" to="0" dur="3s" repeatCount="indefinite" /></circle></marker></defs><rect x="4" y="4" width="100" height="100" /><path d="M10.82,29.34c1.57,0.42,3.8,0.37,5.42,0.22c7.26-0.69,13.63-1.55,22.89-2.84c1.58-0.22,2.93-0.27,4.5-0.02" class="grey" /><path d="M24.2,32.18c0.04,0.89,0.22,2.32-0.09,3.57C22,44.12,16.28,59.58,7.75,69.71" class="grey" /><path d="M19.45,54.56c0.59,0.9,0.93,1.88,1.01,2.94c0.8,4.59,1.68,12.91,2.33,20.47c0.15,1.74,0.29,3.41,0.41,4.94" class="grey" /><path d="M21.33,55.49c6.5-1.32,12.26-2.21,16.06-2.84c3.11-0.52,4.41,0.13,3.92,3.61c-0.8,5.67-2.15,13.15-3.21,20.62" class="grey" /><path d="M24.35,79.5c4.2-0.79,6.17-0.86,11.16-1.4c1.33-0.14,2.79-0.3,4.47-0.49" class="grey" /><path d="M65.5,12.12c0.35,1.26,0.4,2.22,0.24,3.5c-2.42,19.3-6.95,30.31-17.86,39.88" class="grey" /><path d="M50.29,23.87c0.85,0.35,4.03,0.12,5.09,0c3.37-0.37,19.37-3.37,23.25-4.02c2.09-0.35,2.99,1.66,2.71,3.11c-0.59,3.04-1.55,9.91-1.55,14.88c0,8.02,1.46,9.41,8.64,9.41c7.07,0,8.53-1.11,8.53-5.79" class="grey" /><path d="M46.88,67.18c2.1,0.84,5.21,0.56,7.39,0.28c12.48-1.59,25.11-2.71,36.23-3.33c2.39-0.13,5.03-0.07,7.38,0.5" class="grey" /><path d="M69.52,49.82c0.95,0.95,1.23,2.24,1.23,3.93c0,0.67,0.18,24.84,0.09,37.25c-0.02,3.17-0.05,5.58-0.07,6.63" class="grey" /><path d="M10.82,29.34c1.57,0.42,3.8,0.37,5.42,0.22c7.26-0.69,13.63-1.55,22.89-2.84c1.58-0.22,2.93-0.27,4.5-0.02" class="stroke" stroke-dasharray="150"><animate attributeName="stroke-dashoffset" from="150" to="0" dur="1.8s" begin="0.0s" fill="freeze" /></path><path d="M24.2,32.18c0.04,0.89,0.22,2.32-0.09,3.57C22,44.12,16.28,59.58,7.75,69.71" class="stroke" stroke-dasharray="150"><set attributeName="opacity" to="0" dur="1.0s" /><animate attributeName="stroke-dashoffset" from="150" to="0" dur="1.8s" begin="1.0s" fill="freeze" /></path><path d="M19.45,54.56c0.59,0.9,0.93,1.88,1.01,2.94c0.8,4.59,1.68,12.91,2.33,20.47c0.15,1.74,0.29,3.41,0.41,4.94" class="stroke" stroke-dasharray="150"><set attributeName="opacity" to="0" dur="2.1s" /><animate attributeName="stroke-dashoffset" from="150" to="0" dur="1.8s" begin="2.1s" fill="freeze" /></path><path d="M21.33,55.49c6.5-1.32,12.26-2.21,16.06-2.84c3.11-0.52,4.41,0.13,3.92,3.61c-0.8,5.67-2.15,13.15-3.21,20.62" class="stroke" stroke-dasharray="150"><set attributeName="opacity" to="0" dur="3.1s" /><animate attributeName="stroke-dashoffset" from="150" to="0" dur="1.8s" begin="3.1s" fill="freeze" /></path><path d="M24.35,79.5c4.2-0.79,6.17-0.86,11.16-1.4c1.33-0.14,2.79-0.3,4.47-0.49" class="stroke" stroke-dasharray="150"><set attributeName="opacity" to="0" dur="4.2s" /><animate attributeName="stroke-dashoffset" from="150" to="0" dur="1.8s" begin="4.2s" fill="freeze" /></path><path d="M65.5,12.12c0.35,1.26,0.4,2.22,0.24,3.5c-2.42,19.3-6.95,30.31-17.86,39.88" class="stroke" stroke-dasharray="150"><set attributeName="opacity" to="0" dur="5.1000000000000005s" /><animate attributeName="stroke-dashoffset" from="150" to="0" dur="1.8s" begin="5.1000000000000005s" fill="freeze" /></path><path d="M50.29,23.87c0.85,0.35,4.03,0.12,5.09,0c3.37-0.37,19.37-3.37,23.25-4.02c2.09-0.35,2.99,1.66,2.71,3.11c-0.59,3.04-1.55,9.91-1.55,14.88c0,8.02,1.46,9.41,8.64,9.41c7.07,0,8.53-1.11,8.53-5.79" class="stroke" stroke-dasharray="150"><set attributeName="opacity" to="0" dur="6.300000000000001s" /><animate attributeName="stroke-dashoffset" from="150" to="0" dur="1.8s" begin="6.300000000000001s" fill="freeze" /></path><path d="M46.88,67.18c2.1,0.84,5.21,0.56,7.39,0.28c12.48-1.59,25.11-2.71,36.23-3.33c2.39-0.13,5.03-0.07,7.38,0.5" class="stroke" stroke-dasharray="150"><set attributeName="opacity" to="0" dur="8.0s" /><animate attributeName="stroke-dashoffset" from="150" to="0" dur="1.8s" begin="8.0s" fill="freeze" /></path><path d="M69.52,49.82c0.95,0.95,1.23,2.24,1.23,3.93c0,0.67,0.18,24.84,0.09,37.25c-0.02,3.17-0.05,5.58-0.07,6.63" class="stroke" stroke-dasharray="150"><set attributeName="opacity" to="0" dur="9.3s" /><animate attributeName="stroke-dashoffset" from="150" to="0" dur="1.8s" begin="9.3s" fill="freeze" /></path><text x="90" y="120" id="reset-kvg-07815">⟳</text><text x="70" y="120" id="pause-kvg-07815">◼</text><script type="text/javascript"><![CDATA[function RecurringTimer(e,t){var n,r,i=t;this.pause=function(){window.clearTimeout(n);i-=new Date-r};var s=function(){r=new Date;n=window.setTimeout(function(){i=t;s();e()},i)};this.clear=function(){window.clearTimeout(n);i=t;n=window.setTimeout(function(){i=t;s();e()},i)};this.resume=s;this.resume()}function invoketimer(){timer=new RecurringTimer(function(){svg.setCurrentTime(0)},11500.0)}var svg=document.getElementById("kvg-07815");var pause=document.getElementById("pause-kvg-07815");var reset=document.getElementById("reset-kvg-07815");var timer;invoketimer();reset.onclick=function(){svg.setCurrentTime(0);timer.clear();svg.unpauseAnimations();pause.innerHTML = "◼";};pause.onclick=function(){if(svg.animationsPaused()){svg.unpauseAnimations();timer.resume();pause.innerHTML="◼"}else{svg.pauseAnimations();timer.pause();pause.innerHTML="▶"}}]]></script></svg>