<svg id="kvg-07826-HzFst" class="kanjivg" width="106" height="126" xmlns="http://www.w3.org/2000/svg" xmlns:xlink="http://www.w3.org/1999/xlink" xml:space="preserve" version="1.1" baseProfile="full"><defs><style type="text/css"><![CDATA[path.black{fill:none;stroke:black;stroke-width:5;stroke-linecap:round;stroke-linejoin:round;}path.grey{fill:none;stroke:#ddd;stroke-width:5;stroke-linecap:round;stroke-linejoin:round;}path.stroke{fill:none;stroke:black;stroke-width:5;stroke-linecap:round;stroke-linejoin:round;}rect{fill:none;stroke:#555;stroke-width:2;} text{font-size:16px;font-family:Segoe UI Symbol,Cambria Math,DejaVu Sans,Symbola,Quivira,STIX,Code2000;-webkit-touch-callout:none;cursor:pointer;-webkit-user-select:none;-khtml-user-select:none;-moz-user-select:none;-ms-user-select:none;user-select: none;}text:hover{color:#777;}#reset{font-weight:bold;}]]></style><marker id="markerStart" markerWidth="8" markerHeight="8" style="overflow:visible;"><circle cx="0" cy="0" r="1.5" style="stroke:none;fill:red;fill-opacity:0.5;"/></marker><marker id="markerEnd" style="overflow:visible;"><circle cx="0" cy="0" r="0.8" style="stroke:none;fill:blue;fill-opacity:0.5;"><animate attributeName="opacity" from="1" to="0" dur="3s" repeatCount="indefinite" /></circle></marker></defs><rect x="4" y="4" width="100" height="100" /><path d="M39.25,28.65c3.93-0.45,9.47-1.36,13.33-1.82c0.96-0.11,1.2-0.15,1.8,0" class="grey" /><path d="M37.2,11.98c0.89,0.3,1.42,1.36,1.59,1.97c0.18,0.61-0.06,27.17-0.06,33.68" class="grey" /><path d="M25.19,28.6c0.89,0.3,1.59,1.35,1.59,1.97c0,3.33,0.23,16.51,0.23,20.9" class="grey" /><path d="M17.79,52.65c0.42,0.58,2.3,0.65,3.4,0.43c5.95-1.17,22.87-7.03,32.17-10.36" class="grey" /><path d="M88.95,16.51c0.17,0.28-0.22,1.59-0.66,2.02c-2.87,2.78-12.2,9.93-21.46,12.77" class="grey" /><path d="M63.08,11c1.01,0.61,1.08,1.02,1.42,1.84c0.34,0.82,0.11,24.79,0.11,30.36s4.93,6.68,15.29,6.68S94.46,48,94.46,42.42" class="grey" /><path d="M20.73,61.31c1.31,0.32,4.24,0.41,5.54,0.32c16.42-1.14,40.83-3.41,60.52-3.6c2.19-0.02,3.5,0.15,4.59,0.32" class="grey" /><path d="M43.68,63.12c0.09,0.7,0.18,1.81-0.17,2.81c-2.11,5.94-14.2,18.96-30.75,26.94" class="grey" /><path d="M39.99,76.49c0.59,0.46,1.34,2.31,1.45,2.92c0.8,4.39,1.76,11.78,2.89,20.09" class="grey" /><path d="M42.26,78.65c8.97-0.88,31.39-3.81,37.51-3.95c2.53-0.06,2.97,2.27,2.68,3.58c-0.95,4.22-2.7,8.47-5.45,17.2" class="grey" /><path d="M44.81,97.76c7.17-0.45,24.9-1.93,34.05-2.06" class="grey" /><path d="M39.25,28.65c3.93-0.45,9.47-1.36,13.33-1.82c0.96-0.11,1.2-0.15,1.8,0" class="stroke" stroke-dasharray="150"><animate attributeName="stroke-dashoffset" from="150" to="0" dur="1.8s" begin="0.0s" fill="freeze" /></path><path d="M37.2,11.98c0.89,0.3,1.42,1.36,1.59,1.97c0.18,0.61-0.06,27.17-0.06,33.68" class="stroke" stroke-dasharray="150"><set attributeName="opacity" to="0" dur="0.9s" /><animate attributeName="stroke-dashoffset" from="150" to="0" dur="1.8s" begin="0.9s" fill="freeze" /></path><path d="M25.19,28.6c0.89,0.3,1.59,1.35,1.59,1.97c0,3.33,0.23,16.51,0.23,20.9" class="stroke" stroke-dasharray="150"><set attributeName="opacity" to="0" dur="1.9s" /><animate attributeName="stroke-dashoffset" from="150" to="0" dur="1.8s" begin="1.9s" fill="freeze" /></path><path d="M17.79,52.65c0.42,0.58,2.3,0.65,3.4,0.43c5.95-1.17,22.87-7.03,32.17-10.36" class="stroke" stroke-dasharray="150"><set attributeName="opacity" to="0" dur="2.9s" /><animate attributeName="stroke-dashoffset" from="150" to="0" dur="1.8s" begin="2.9s" fill="freeze" /></path><path d="M88.95,16.51c0.17,0.28-0.22,1.59-0.66,2.02c-2.87,2.78-12.2,9.93-21.46,12.77" class="stroke" stroke-dasharray="150"><set attributeName="opacity" to="0" dur="3.9s" /><animate attributeName="stroke-dashoffset" from="150" to="0" dur="1.8s" begin="3.9s" fill="freeze" /></path><path d="M63.08,11c1.01,0.61,1.08,1.02,1.42,1.84c0.34,0.82,0.11,24.79,0.11,30.36s4.93,6.68,15.29,6.68S94.46,48,94.46,42.42" class="stroke" stroke-dasharray="150"><set attributeName="opacity" to="0" dur="4.9s" /><animate attributeName="stroke-dashoffset" from="150" to="0" dur="1.8s" begin="4.9s" fill="freeze" /></path><path d="M20.73,61.31c1.31,0.32,4.24,0.41,5.54,0.32c16.42-1.14,40.83-3.41,60.52-3.6c2.19-0.02,3.5,0.15,4.59,0.32" class="stroke" stroke-dasharray="150"><set attributeName="opacity" to="0" dur="6.6000000000000005s" /><animate attributeName="stroke-dashoffset" from="150" to="0" dur="1.8s" begin="6.6000000000000005s" fill="freeze" /></path><path d="M43.68,63.12c0.09,0.7,0.18,1.81-0.17,2.81c-2.11,5.94-14.2,18.96-30.75,26.94" class="stroke" stroke-dasharray="150"><set attributeName="opacity" to="0" dur="8.3s" /><animate attributeName="stroke-dashoffset" from="150" to="0" dur="1.8s" begin="8.3s" fill="freeze" /></path><path d="M39.99,76.49c0.59,0.46,1.34,2.31,1.45,2.92c0.8,4.39,1.76,11.78,2.89,20.09" class="stroke" stroke-dasharray="150"><set attributeName="opacity" to="0" dur="9.4s" /><animate attributeName="stroke-dashoffset" from="150" to="0" dur="1.8s" begin="9.4s" fill="freeze" /></path><path d="M42.26,78.65c8.97-0.88,31.39-3.81,37.51-3.95c2.53-0.06,2.97,2.27,2.68,3.58c-0.95,4.22-2.7,8.47-5.45,17.2" class="stroke" stroke-dasharray="150"><set attributeName="opacity" to="0" dur="10.4s" /><animate attributeName="stroke-dashoffset" from="150" to="0" dur="1.8s" begin="10.4s" fill="freeze" /></path><path d="M44.81,97.76c7.17-0.45,24.9-1.93,34.05-2.06" class="stroke" stroke-dasharray="150"><set attributeName="opacity" to="0" dur="11.9s" /><animate attributeName="stroke-dashoffset" from="150" to="0" dur="1.8s" begin="11.9s" fill="freeze" /></path><text x="90" y="120" id="reset-kvg-07826-HzFst">⟳</text><text x="70" y="120" id="pause-kvg-07826-HzFst">◼</text><script type="text/javascript"><![CDATA[function RecurringTimer(e,t){var n,r,i=t;this.pause=function(){window.clearTimeout(n);i-=new Date-r};var s=function(){r=new Date;n=window.setTimeout(function(){i=t;s();e()},i)};this.clear=function(){window.clearTimeout(n);i=t;n=window.setTimeout(function(){i=t;s();e()},i)};this.resume=s;this.resume()}function invoketimer(){timer=new RecurringTimer(function(){svg.setCurrentTime(0)},13900.0)}var svg=document.getElementById("kvg-07826-HzFst");var pause=document.getElementById("pause-kvg-07826-HzFst");var reset=document.getElementById("reset-kvg-07826-HzFst");var timer;invoketimer();reset.onclick=function(){svg.setCurrentTime(0);timer.clear();svg.unpauseAnimations();pause.innerHTML = "◼";};pause.onclick=function(){if(svg.animationsPaused()){svg.unpauseAnimations();timer.resume();pause.innerHTML="◼"}else{svg.pauseAnimations();timer.pause();pause.innerHTML="▶"}}]]></script></svg>