<svg id="kvg-07893" class="kanjivg" width="106" height="126" xmlns="http://www.w3.org/2000/svg" xmlns:xlink="http://www.w3.org/1999/xlink" xml:space="preserve" version="1.1" baseProfile="full"><defs><style type="text/css"><![CDATA[path.black{fill:none;stroke:black;stroke-width:5;stroke-linecap:round;stroke-linejoin:round;}path.grey{fill:none;stroke:#ddd;stroke-width:5;stroke-linecap:round;stroke-linejoin:round;}path.stroke{fill:none;stroke:black;stroke-width:5;stroke-linecap:round;stroke-linejoin:round;}rect{fill:none;stroke:#555;stroke-width:2;} text{font-size:16px;font-family:Segoe UI Symbol,Cambria Math,DejaVu Sans,Symbola,Quivira,STIX,Code2000;-webkit-touch-callout:none;cursor:pointer;-webkit-user-select:none;-khtml-user-select:none;-moz-user-select:none;-ms-user-select:none;user-select: none;}text:hover{color:#777;}#reset{font-weight:bold;}]]></style><marker id="markerStart" markerWidth="8" markerHeight="8" style="overflow:visible;"><circle cx="0" cy="0" r="1.5" style="stroke:none;fill:red;fill-opacity:0.5;"/></marker><marker id="markerEnd" style="overflow:visible;"><circle cx="0" cy="0" r="0.8" style="stroke:none;fill:blue;fill-opacity:0.5;"><animate attributeName="opacity" from="1" to="0" dur="3s" repeatCount="indefinite" /></circle></marker></defs><rect x="4" y="4" width="100" height="100" /><path d="M15.38,31.01c1.65,0.2,3.29,0.17,4.91-0.09c6.94-1.13,11.54-1.9,18.07-3.44c1.58-0.37,3.18-0.42,4.78-0.14" class="grey" /><path d="M26.95,32.93c0.28,0.89,0.45,2.08,0.15,3.35c-1.96,8.23-7.17,22.14-17.1,34.47" class="grey" /><path d="M21,55.29c0.54,0.73,0.84,1.54,0.92,2.43c0.73,3.8,1.72,11.45,2.43,17.96c0.24,2.22,0.45,4.32,0.61,6.08" class="grey" /><path d="M23.23,56.37c5.85-1.4,10.95-2.38,15.35-3.38c2.04-0.47,3.34,0.96,3,3.12c-0.77,4.86-1.28,11.01-2.33,17.74" class="grey" /><path d="M25.09,77.09c3.76-0.64,7.28-1.23,11.62-1.95c1.32-0.22,2.72-0.45,4.23-0.69" class="grey" /><path d="M58.13,15.5c0.15,1.69-0.04,3.91-0.51,5.36C54.64,30.1,50.85,37.93,44,49.18" class="grey" /><path d="M52.19,36.9c0.73,0.73,1.15,2.45,1.15,4.16c0,8.95,0.14,28.09,0.08,41.14c-0.02,4.62-0.03,8.27-0.03,10.05" class="grey" /><path d="M80.19,15c0.09,0.86-0.02,2-0.3,2.74c-1.75,4.72-3.98,8.37-8,14.12" class="grey" /><path d="M53.66,34.41c7.36-0.47,23.03-1.65,31.71-2.51c3.5-0.35,6.11-0.65,7.01-0.83" class="grey" /><path d="M72.48,35.83c0.83,1.05,1.21,2.19,1.13,3.42c-0.01,8.51-0.17,33.89-0.17,46.05" class="grey" /><path d="M54.64,52.07c6.33-0.45,21.49-1.31,30.06-1.93c2.96-0.21,5.13-0.4,5.89-0.53" class="grey" /><path d="M54.3,67.29c6.15-0.31,22.08-0.94,31.1-1.42c3.09-0.17,5.37-0.31,6.16-0.42" class="grey" /><path d="M54.3,87.18c6.92-0.37,25.43-1.21,35.58-1.87c3.38-0.22,5.83-0.42,6.62-0.58" class="grey" /><path d="M15.38,31.01c1.65,0.2,3.29,0.17,4.91-0.09c6.94-1.13,11.54-1.9,18.07-3.44c1.58-0.37,3.18-0.42,4.78-0.14" class="stroke" stroke-dasharray="150"><animate attributeName="stroke-dashoffset" from="150" to="0" dur="1.8s" begin="0.0s" fill="freeze" /></path><path d="M26.95,32.93c0.28,0.89,0.45,2.08,0.15,3.35c-1.96,8.23-7.17,22.14-17.1,34.47" class="stroke" stroke-dasharray="150"><set attributeName="opacity" to="0" dur="1.0s" /><animate attributeName="stroke-dashoffset" from="150" to="0" dur="1.8s" begin="1.0s" fill="freeze" /></path><path d="M21,55.29c0.54,0.73,0.84,1.54,0.92,2.43c0.73,3.8,1.72,11.45,2.43,17.96c0.24,2.22,0.45,4.32,0.61,6.08" class="stroke" stroke-dasharray="150"><set attributeName="opacity" to="0" dur="2.1s" /><animate attributeName="stroke-dashoffset" from="150" to="0" dur="1.8s" begin="2.1s" fill="freeze" /></path><path d="M23.23,56.37c5.85-1.4,10.95-2.38,15.35-3.38c2.04-0.47,3.34,0.96,3,3.12c-0.77,4.86-1.28,11.01-2.33,17.74" class="stroke" stroke-dasharray="150"><set attributeName="opacity" to="0" dur="3.1s" /><animate attributeName="stroke-dashoffset" from="150" to="0" dur="1.8s" begin="3.1s" fill="freeze" /></path><path d="M25.09,77.09c3.76-0.64,7.28-1.23,11.62-1.95c1.32-0.22,2.72-0.45,4.23-0.69" class="stroke" stroke-dasharray="150"><set attributeName="opacity" to="0" dur="4.1s" /><animate attributeName="stroke-dashoffset" from="150" to="0" dur="1.8s" begin="4.1s" fill="freeze" /></path><path d="M58.13,15.5c0.15,1.69-0.04,3.91-0.51,5.36C54.64,30.1,50.85,37.93,44,49.18" class="stroke" stroke-dasharray="150"><set attributeName="opacity" to="0" dur="5.0s" /><animate attributeName="stroke-dashoffset" from="150" to="0" dur="1.8s" begin="5.0s" fill="freeze" /></path><path d="M52.19,36.9c0.73,0.73,1.15,2.45,1.15,4.16c0,8.95,0.14,28.09,0.08,41.14c-0.02,4.62-0.03,8.27-0.03,10.05" class="stroke" stroke-dasharray="150"><set attributeName="opacity" to="0" dur="6.0s" /><animate attributeName="stroke-dashoffset" from="150" to="0" dur="1.8s" begin="6.0s" fill="freeze" /></path><path d="M80.19,15c0.09,0.86-0.02,2-0.3,2.74c-1.75,4.72-3.98,8.37-8,14.12" class="stroke" stroke-dasharray="150"><set attributeName="opacity" to="0" dur="7.4s" /><animate attributeName="stroke-dashoffset" from="150" to="0" dur="1.8s" begin="7.4s" fill="freeze" /></path><path d="M53.66,34.41c7.36-0.47,23.03-1.65,31.71-2.51c3.5-0.35,6.11-0.65,7.01-0.83" class="stroke" stroke-dasharray="150"><set attributeName="opacity" to="0" dur="8.3s" /><animate attributeName="stroke-dashoffset" from="150" to="0" dur="1.8s" begin="8.3s" fill="freeze" /></path><path d="M72.48,35.83c0.83,1.05,1.21,2.19,1.13,3.42c-0.01,8.51-0.17,33.89-0.17,46.05" class="stroke" stroke-dasharray="150"><set attributeName="opacity" to="0" dur="9.3s" /><animate attributeName="stroke-dashoffset" from="150" to="0" dur="1.8s" begin="9.3s" fill="freeze" /></path><path d="M54.64,52.07c6.33-0.45,21.49-1.31,30.06-1.93c2.96-0.21,5.13-0.4,5.89-0.53" class="stroke" stroke-dasharray="150"><set attributeName="opacity" to="0" dur="10.5s" /><animate attributeName="stroke-dashoffset" from="150" to="0" dur="1.8s" begin="10.5s" fill="freeze" /></path><path d="M54.3,67.29c6.15-0.31,22.08-0.94,31.1-1.42c3.09-0.17,5.37-0.31,6.16-0.42" class="stroke" stroke-dasharray="150"><set attributeName="opacity" to="0" dur="11.5s" /><animate attributeName="stroke-dashoffset" from="150" to="0" dur="1.8s" begin="11.5s" fill="freeze" /></path><path d="M54.3,87.18c6.92-0.37,25.43-1.21,35.58-1.87c3.38-0.22,5.83-0.42,6.62-0.58" class="stroke" stroke-dasharray="150"><set attributeName="opacity" to="0" dur="12.5s" /><animate attributeName="stroke-dashoffset" from="150" to="0" dur="1.8s" begin="12.5s" fill="freeze" /></path><text x="90" y="120" id="reset-kvg-07893">⟳</text><text x="70" y="120" id="pause-kvg-07893">◼</text><script type="text/javascript"><![CDATA[function RecurringTimer(e,t){var n,r,i=t;this.pause=function(){window.clearTimeout(n);i-=new Date-r};var s=function(){r=new Date;n=window.setTimeout(function(){i=t;s();e()},i)};this.clear=function(){window.clearTimeout(n);i=t;n=window.setTimeout(function(){i=t;s();e()},i)};this.resume=s;this.resume()}function invoketimer(){timer=new RecurringTimer(function(){svg.setCurrentTime(0)},14600.0)}var svg=document.getElementById("kvg-07893");var pause=document.getElementById("pause-kvg-07893");var reset=document.getElementById("reset-kvg-07893");var timer;invoketimer();reset.onclick=function(){svg.setCurrentTime(0);timer.clear();svg.unpauseAnimations();pause.innerHTML = "◼";};pause.onclick=function(){if(svg.animationsPaused()){svg.unpauseAnimations();timer.resume();pause.innerHTML="◼"}else{svg.pauseAnimations();timer.pause();pause.innerHTML="▶"}}]]></script></svg>