<svg id="kvg-079bf" class="kanjivg" width="106" height="126" xmlns="http://www.w3.org/2000/svg" xmlns:xlink="http://www.w3.org/1999/xlink" xml:space="preserve" version="1.1" baseProfile="full"><defs><style type="text/css"><![CDATA[path.black{fill:none;stroke:black;stroke-width:5;stroke-linecap:round;stroke-linejoin:round;}path.grey{fill:none;stroke:#ddd;stroke-width:5;stroke-linecap:round;stroke-linejoin:round;}path.stroke{fill:none;stroke:black;stroke-width:5;stroke-linecap:round;stroke-linejoin:round;}rect{fill:none;stroke:#555;stroke-width:2;} text{font-size:16px;font-family:Segoe UI Symbol,Cambria Math,DejaVu Sans,Symbola,Quivira,STIX,Code2000;-webkit-touch-callout:none;cursor:pointer;-webkit-user-select:none;-khtml-user-select:none;-moz-user-select:none;-ms-user-select:none;user-select: none;}text:hover{color:#777;}#reset{font-weight:bold;}]]></style><marker id="markerStart" markerWidth="8" markerHeight="8" style="overflow:visible;"><circle cx="0" cy="0" r="1.5" style="stroke:none;fill:red;fill-opacity:0.5;"/></marker><marker id="markerEnd" style="overflow:visible;"><circle cx="0" cy="0" r="0.8" style="stroke:none;fill:blue;fill-opacity:0.5;"><animate attributeName="opacity" from="1" to="0" dur="3s" repeatCount="indefinite" /></circle></marker></defs><rect x="4" y="4" width="100" height="100" /><path d="M67.02,10.5c0.11,0.35,0.23,0.91-0.22,1.42c-2.68,2.99-18.03,9.56-39.05,13.58" class="grey" /><path d="M15.75,33.52c0.76,0.23,3.79,0.84,5.81,0.69c9.09-0.69,48.23-3.97,63.63-4.61c2.02-0.08,4.54,0.27,5.81,0.5" class="grey" /><path d="M52.72,21.5c0.89,0.46,1.42,2.05,1.6,2.97c0.18,0.91,0,24.58-0.18,30.28" class="grey" /><path d="M50.25,32.18C44,42.75,30.5,54.75,12.25,59.75" class="grey" /><path d="M54.25,31.96c5.22,3.3,29.08,18.91,34.76,22.16c1.92,1.1,3.57,1.57,5.49,1.89" class="grey" /><path d="M42,59c0.75,1,0.85,2.84,0.87,4.18C43,73.25,38.5,92.25,18.92,98.42" class="grey" /><path d="M61.99,58.37c1.51,0.63,1.6,2.63,1.64,4.48c0.17,8.29-0.44,16.35-0.44,21.99c0,10.65,4.06,11.68,14.6,11.68c11.47,0,15.6-1.78,15.6-9.24" class="grey" /><path d="M67.02,10.5c0.11,0.35,0.23,0.91-0.22,1.42c-2.68,2.99-18.03,9.56-39.05,13.58" class="stroke" stroke-dasharray="150"><animate attributeName="stroke-dashoffset" from="150" to="0" dur="1.8s" begin="0.0s" fill="freeze" /></path><path d="M15.75,33.52c0.76,0.23,3.79,0.84,5.81,0.69c9.09-0.69,48.23-3.97,63.63-4.61c2.02-0.08,4.54,0.27,5.81,0.5" class="stroke" stroke-dasharray="150"><set attributeName="opacity" to="0" dur="1.1s" /><animate attributeName="stroke-dashoffset" from="150" to="0" dur="1.8s" begin="1.1s" fill="freeze" /></path><path d="M52.72,21.5c0.89,0.46,1.42,2.05,1.6,2.97c0.18,0.91,0,24.58-0.18,30.28" class="stroke" stroke-dasharray="150"><set attributeName="opacity" to="0" dur="2.8s" /><animate attributeName="stroke-dashoffset" from="150" to="0" dur="1.8s" begin="2.8s" fill="freeze" /></path><path d="M50.25,32.18C44,42.75,30.5,54.75,12.25,59.75" class="stroke" stroke-dasharray="150"><set attributeName="opacity" to="0" dur="3.8s" /><animate attributeName="stroke-dashoffset" from="150" to="0" dur="1.8s" begin="3.8s" fill="freeze" /></path><path d="M54.25,31.96c5.22,3.3,29.08,18.91,34.76,22.16c1.92,1.1,3.57,1.57,5.49,1.89" class="stroke" stroke-dasharray="150"><set attributeName="opacity" to="0" dur="5.0s" /><animate attributeName="stroke-dashoffset" from="150" to="0" dur="1.8s" begin="5.0s" fill="freeze" /></path><path d="M42,59c0.75,1,0.85,2.84,0.87,4.18C43,73.25,38.5,92.25,18.92,98.42" class="stroke" stroke-dasharray="150"><set attributeName="opacity" to="0" dur="6.2s" /><animate attributeName="stroke-dashoffset" from="150" to="0" dur="1.8s" begin="6.2s" fill="freeze" /></path><path d="M61.99,58.37c1.51,0.63,1.6,2.63,1.64,4.48c0.17,8.29-0.44,16.35-0.44,21.99c0,10.65,4.06,11.68,14.6,11.68c11.47,0,15.6-1.78,15.6-9.24" class="stroke" stroke-dasharray="150"><set attributeName="opacity" to="0" dur="7.5s" /><animate attributeName="stroke-dashoffset" from="150" to="0" dur="1.8s" begin="7.5s" fill="freeze" /></path><text x="90" y="120" id="reset-kvg-079bf">⟳</text><text x="70" y="120" id="pause-kvg-079bf">◼</text><script type="text/javascript"><![CDATA[function RecurringTimer(e,t){var n,r,i=t;this.pause=function(){window.clearTimeout(n);i-=new Date-r};var s=function(){r=new Date;n=window.setTimeout(function(){i=t;s();e()},i)};this.clear=function(){window.clearTimeout(n);i=t;n=window.setTimeout(function(){i=t;s();e()},i)};this.resume=s;this.resume()}function invoketimer(){timer=new RecurringTimer(function(){svg.setCurrentTime(0)},10200.0)}var svg=document.getElementById("kvg-079bf");var pause=document.getElementById("pause-kvg-079bf");var reset=document.getElementById("reset-kvg-079bf");var timer;invoketimer();reset.onclick=function(){svg.setCurrentTime(0);timer.clear();svg.unpauseAnimations();pause.innerHTML = "◼";};pause.onclick=function(){if(svg.animationsPaused()){svg.unpauseAnimations();timer.resume();pause.innerHTML="◼"}else{svg.pauseAnimations();timer.pause();pause.innerHTML="▶"}}]]></script></svg>