<svg id="kvg-079e7-Kaisho" class="kanjivg" width="106" height="126" xmlns="http://www.w3.org/2000/svg" xmlns:xlink="http://www.w3.org/1999/xlink" xml:space="preserve" version="1.1" baseProfile="full"><defs><style type="text/css"><![CDATA[path.black{fill:none;stroke:black;stroke-width:5;stroke-linecap:round;stroke-linejoin:round;}path.grey{fill:none;stroke:#ddd;stroke-width:5;stroke-linecap:round;stroke-linejoin:round;}path.stroke{fill:none;stroke:black;stroke-width:5;stroke-linecap:round;stroke-linejoin:round;}rect{fill:none;stroke:#555;stroke-width:2;} text{font-size:16px;font-family:Segoe UI Symbol,Cambria Math,DejaVu Sans,Symbola,Quivira,STIX,Code2000;-webkit-touch-callout:none;cursor:pointer;-webkit-user-select:none;-khtml-user-select:none;-moz-user-select:none;-ms-user-select:none;user-select: none;}text:hover{color:#777;}#reset{font-weight:bold;}]]></style><marker id="markerStart" markerWidth="8" markerHeight="8" style="overflow:visible;"><circle cx="0" cy="0" r="1.5" style="stroke:none;fill:red;fill-opacity:0.5;"/></marker><marker id="markerEnd" style="overflow:visible;"><circle cx="0" cy="0" r="0.8" style="stroke:none;fill:blue;fill-opacity:0.5;"><animate attributeName="opacity" from="1" to="0" dur="3s" repeatCount="indefinite" /></circle></marker></defs><rect x="4" y="4" width="100" height="100" /><path d="M39.75,17.5c0.07,0.33,0.14,0.85-0.14,1.32C38,21.62,28.71,27.75,16,31.5" class="grey" /><path d="M12.37,44.33c0.5,0.12,1.84,0.31,3.18,0.35c3.67,0.12,17.76-1.76,26.95-2.35c1.33-0.08,1.67-0.12,2.51,0" class="grey" /><path d="M30.83,28.16c0.37,0.41,0.58,1.86,0.66,2.69c0.07,0.83-0.07,59.71-0.07,59.9c0,11-4.66,3.5-5.91,2" class="grey" /><path d="M31.43,46.47C27.49,57.87,20.92,71.93,12,81.25" class="grey" /><path d="M34.25,54.5c3.15,2.39,5.81,7.17,7.5,10.25" class="grey" /><path d="M49.95,34.72c0.93,1.02,1.4,1.83,1.63,3.04c0.23,1.22,1.67,18.12,1.9,19.54" class="grey" /><path d="M52.11,36.77c3.09-0.44,28.88-3.09,33.06-3.75c4.18-0.66,4.91,0.88,4.55,2.87c-0.37,1.99-3.23,16.94-3.59,19.36" class="grey" /><path d="M45.25,57.9c0.83,0.22,2.95,0.36,3.86,0.31c12.5-0.74,23.31-2.23,43.41-3.08c1.15-0.05,2.78,0.09,5.34,0.47" class="grey" /><path d="M67.37,15c0,1.96,0.66,2.39,0.69,4.78c0.68,51.97-4.57,61.47-27.32,74.47" class="grey" /><path d="M67.35,57.19C73.58,68,83.5,83.5,92.1,91.21c2.42,2.17,2.85,2.83,3.82,3.06" class="grey" /><path d="M39.75,17.5c0.07,0.33,0.14,0.85-0.14,1.32C38,21.62,28.71,27.75,16,31.5" class="stroke" stroke-dasharray="150"><animate attributeName="stroke-dashoffset" from="150" to="0" dur="1.8s" begin="0.0s" fill="freeze" /></path><path d="M12.37,44.33c0.5,0.12,1.84,0.31,3.18,0.35c3.67,0.12,17.76-1.76,26.95-2.35c1.33-0.08,1.67-0.12,2.51,0" class="stroke" stroke-dasharray="150"><set attributeName="opacity" to="0" dur="1.0s" /><animate attributeName="stroke-dashoffset" from="150" to="0" dur="1.8s" begin="1.0s" fill="freeze" /></path><path d="M30.83,28.16c0.37,0.41,0.58,1.86,0.66,2.69c0.07,0.83-0.07,59.71-0.07,59.9c0,11-4.66,3.5-5.91,2" class="stroke" stroke-dasharray="150"><set attributeName="opacity" to="0" dur="2.0s" /><animate attributeName="stroke-dashoffset" from="150" to="0" dur="1.8s" begin="2.0s" fill="freeze" /></path><path d="M31.43,46.47C27.49,57.87,20.92,71.93,12,81.25" class="stroke" stroke-dasharray="150"><set attributeName="opacity" to="0" dur="3.7s" /><animate attributeName="stroke-dashoffset" from="150" to="0" dur="1.8s" begin="3.7s" fill="freeze" /></path><path d="M34.25,54.5c3.15,2.39,5.81,7.17,7.5,10.25" class="stroke" stroke-dasharray="150"><set attributeName="opacity" to="0" dur="4.800000000000001s" /><animate attributeName="stroke-dashoffset" from="150" to="0" dur="1.8s" begin="4.800000000000001s" fill="freeze" /></path><path d="M49.95,34.72c0.93,1.02,1.4,1.83,1.63,3.04c0.23,1.22,1.67,18.12,1.9,19.54" class="stroke" stroke-dasharray="150"><set attributeName="opacity" to="0" dur="5.700000000000001s" /><animate attributeName="stroke-dashoffset" from="150" to="0" dur="1.8s" begin="5.700000000000001s" fill="freeze" /></path><path d="M52.11,36.77c3.09-0.44,28.88-3.09,33.06-3.75c4.18-0.66,4.91,0.88,4.55,2.87c-0.37,1.99-3.23,16.94-3.59,19.36" class="stroke" stroke-dasharray="150"><set attributeName="opacity" to="0" dur="6.700000000000001s" /><animate attributeName="stroke-dashoffset" from="150" to="0" dur="1.8s" begin="6.700000000000001s" fill="freeze" /></path><path d="M45.25,57.9c0.83,0.22,2.95,0.36,3.86,0.31c12.5-0.74,23.31-2.23,43.41-3.08c1.15-0.05,2.78,0.09,5.34,0.47" class="stroke" stroke-dasharray="150"><set attributeName="opacity" to="0" dur="8.100000000000001s" /><animate attributeName="stroke-dashoffset" from="150" to="0" dur="1.8s" begin="8.100000000000001s" fill="freeze" /></path><path d="M67.37,15c0,1.96,0.66,2.39,0.69,4.78c0.68,51.97-4.57,61.47-27.32,74.47" class="stroke" stroke-dasharray="150"><set attributeName="opacity" to="0" dur="9.400000000000002s" /><animate attributeName="stroke-dashoffset" from="150" to="0" dur="1.8s" begin="9.400000000000002s" fill="freeze" /></path><path d="M67.35,57.19C73.58,68,83.5,83.5,92.1,91.21c2.42,2.17,2.85,2.83,3.82,3.06" class="stroke" stroke-dasharray="150"><set attributeName="opacity" to="0" dur="11.100000000000001s" /><animate attributeName="stroke-dashoffset" from="150" to="0" dur="1.8s" begin="11.100000000000001s" fill="freeze" /></path><text x="90" y="120" id="reset-kvg-079e7-Kaisho">⟳</text><text x="70" y="120" id="pause-kvg-079e7-Kaisho">◼</text><script type="text/javascript"><![CDATA[function RecurringTimer(e,t){var n,r,i=t;this.pause=function(){window.clearTimeout(n);i-=new Date-r};var s=function(){r=new Date;n=window.setTimeout(function(){i=t;s();e()},i)};this.clear=function(){window.clearTimeout(n);i=t;n=window.setTimeout(function(){i=t;s();e()},i)};this.resume=s;this.resume()}function invoketimer(){timer=new RecurringTimer(function(){svg.setCurrentTime(0)},13300.0)}var svg=document.getElementById("kvg-079e7-Kaisho");var pause=document.getElementById("pause-kvg-079e7-Kaisho");var reset=document.getElementById("reset-kvg-079e7-Kaisho");var timer;invoketimer();reset.onclick=function(){svg.setCurrentTime(0);timer.clear();svg.unpauseAnimations();pause.innerHTML = "◼";};pause.onclick=function(){if(svg.animationsPaused()){svg.unpauseAnimations();timer.resume();pause.innerHTML="◼"}else{svg.pauseAnimations();timer.pause();pause.innerHTML="▶"}}]]></script></svg>