<svg id="kvg-07ac3-Kaisho" class="kanjivg" width="106" height="126" xmlns="http://www.w3.org/2000/svg" xmlns:xlink="http://www.w3.org/1999/xlink" xml:space="preserve" version="1.1" baseProfile="full"><defs><style type="text/css"><![CDATA[path.black{fill:none;stroke:black;stroke-width:5;stroke-linecap:round;stroke-linejoin:round;}path.grey{fill:none;stroke:#ddd;stroke-width:5;stroke-linecap:round;stroke-linejoin:round;}path.stroke{fill:none;stroke:black;stroke-width:5;stroke-linecap:round;stroke-linejoin:round;}rect{fill:none;stroke:#555;stroke-width:2;} text{font-size:16px;font-family:Segoe UI Symbol,Cambria Math,DejaVu Sans,Symbola,Quivira,STIX,Code2000;-webkit-touch-callout:none;cursor:pointer;-webkit-user-select:none;-khtml-user-select:none;-moz-user-select:none;-ms-user-select:none;user-select: none;}text:hover{color:#777;}#reset{font-weight:bold;}]]></style><marker id="markerStart" markerWidth="8" markerHeight="8" style="overflow:visible;"><circle cx="0" cy="0" r="1.5" style="stroke:none;fill:red;fill-opacity:0.5;"/></marker><marker id="markerEnd" style="overflow:visible;"><circle cx="0" cy="0" r="0.8" style="stroke:none;fill:blue;fill-opacity:0.5;"><animate attributeName="opacity" from="1" to="0" dur="3s" repeatCount="indefinite" /></circle></marker></defs><rect x="4" y="4" width="100" height="100" /><path d="M49.34,9.5c2.4,0.68,5.83,4.03,5.78,6" class="grey" /><path d="M24.65,20.04c0,2.73-2.05,10.24-2.98,12.06" class="grey" /><path d="M24.73,22.78c10.85-1.69,48.05-5.23,55.96-5.14c10.24,0.12,2.17,5.43-0.38,7.03" class="grey" /><path d="M40.35,24.34c0.04,0.3,0.17,0.81-0.08,1.21c-2.31,3.73-7.15,8.03-14.68,11.61" class="grey" /><path d="M58.77,20.69c0.38,0.37,0.71,0.8,0.71,1.36c0,1.5-0.27,4.12-0.27,5.84c0,4,5.52,3.55,10.02,3.55c4.75,0,8.82-0.52,9.49-0.81" class="grey" /><path d="M32.79,40.63c0.73,0.3,2.08,0.37,2.81,0.3c9.43-1.01,25.88-3.14,35.37-3.4c1.22-0.03,1.96,0.14,2.57,0.29" class="grey" /><path d="M52.08,29.62c0.09,0.23,1.32,1.18,1.32,2.63c0,2.75-0.27,11.5-0.27,14.77" class="grey" /><path d="M19.88,49.29c1.28,0.47,3.64,0.58,4.92,0.47c15.89-1.33,45.88-4.96,60.09-5.58c2.14-0.09,3.42,0.23,4.49,0.46" class="grey" /><path d="M26.75,54.81c0.74,0.28,1.49,1.89,1.49,2.33c0,0.32,2.3,11.98,2.5,12.32" class="grey" /><path d="M27.98,55.38c4.21-0.38,46.67-4.34,50.52-4.34c2,0,3,0.7,3,2.06c0,2.69-2.99,12.02-2.99,12.36" class="grey" /><path d="M29.22,61.49c11.2-0.83,22.39-1.8,33.58-2.71c1.35-0.11,2.67-0.22,3.94-0.32" class="grey" /><path d="M30.48,67.91c8.77-0.78,41.42-3.46,48.31-3.98" class="grey" /><path d="M24.78,75.38c0.79,0.32,1.59,2.17,1.59,2.68c0,0.36,2.45,13.76,2.66,14.16" class="grey" /><path d="M26.08,76.03c4.47-0.43,50.11-4.99,54.2-4.99c2.13,0,3.19,0.81,3.19,2.37c0,3.09-4.17,15.32-4.17,15.7" class="grey" /><path d="M27.4,83.05c11.9-0.98,23.8-2.07,35.69-3.11c1.43-0.13,2.83-0.25,4.18-0.37" class="grey" /><path d="M28.74,90.42c9.32-0.9,44.02-3.97,51.35-4.58" class="grey" /><path d="M51.99,55.87c0.85,1.33,1.53,2.9,1.58,4.95c0.23,9.16-0.61,19.06-0.61,25.29c0,11.38,2.54,11.9,20.27,11.9c19.52,0,21.66-2.27,21.66-10.21" class="grey" /><path d="M49.34,9.5c2.4,0.68,5.83,4.03,5.78,6" class="stroke" stroke-dasharray="150"><animate attributeName="stroke-dashoffset" from="150" to="0" dur="1.8s" begin="0.0s" fill="freeze" /></path><path d="M24.65,20.04c0,2.73-2.05,10.24-2.98,12.06" class="stroke" stroke-dasharray="150"><set attributeName="opacity" to="0" dur="0.9s" /><animate attributeName="stroke-dashoffset" from="150" to="0" dur="1.8s" begin="0.9s" fill="freeze" /></path><path d="M24.73,22.78c10.85-1.69,48.05-5.23,55.96-5.14c10.24,0.12,2.17,5.43-0.38,7.03" class="stroke" stroke-dasharray="150"><set attributeName="opacity" to="0" dur="1.8s" /><animate attributeName="stroke-dashoffset" from="150" to="0" dur="1.8s" begin="1.8s" fill="freeze" /></path><path d="M40.35,24.34c0.04,0.3,0.17,0.81-0.08,1.21c-2.31,3.73-7.15,8.03-14.68,11.61" class="stroke" stroke-dasharray="150"><set attributeName="opacity" to="0" dur="3.3s" /><animate attributeName="stroke-dashoffset" from="150" to="0" dur="1.8s" begin="3.3s" fill="freeze" /></path><path d="M58.77,20.69c0.38,0.37,0.71,0.8,0.71,1.36c0,1.5-0.27,4.12-0.27,5.84c0,4,5.52,3.55,10.02,3.55c4.75,0,8.82-0.52,9.49-0.81" class="stroke" stroke-dasharray="150"><set attributeName="opacity" to="0" dur="4.3s" /><animate attributeName="stroke-dashoffset" from="150" to="0" dur="1.8s" begin="4.3s" fill="freeze" /></path><path d="M32.79,40.63c0.73,0.3,2.08,0.37,2.81,0.3c9.43-1.01,25.88-3.14,35.37-3.4c1.22-0.03,1.96,0.14,2.57,0.29" class="stroke" stroke-dasharray="150"><set attributeName="opacity" to="0" dur="5.3s" /><animate attributeName="stroke-dashoffset" from="150" to="0" dur="1.8s" begin="5.3s" fill="freeze" /></path><path d="M52.08,29.62c0.09,0.23,1.32,1.18,1.32,2.63c0,2.75-0.27,11.5-0.27,14.77" class="stroke" stroke-dasharray="150"><set attributeName="opacity" to="0" dur="6.4s" /><animate attributeName="stroke-dashoffset" from="150" to="0" dur="1.8s" begin="6.4s" fill="freeze" /></path><path d="M19.88,49.29c1.28,0.47,3.64,0.58,4.92,0.47c15.89-1.33,45.88-4.96,60.09-5.58c2.14-0.09,3.42,0.23,4.49,0.46" class="stroke" stroke-dasharray="150"><set attributeName="opacity" to="0" dur="7.300000000000001s" /><animate attributeName="stroke-dashoffset" from="150" to="0" dur="1.8s" begin="7.300000000000001s" fill="freeze" /></path><path d="M26.75,54.81c0.74,0.28,1.49,1.89,1.49,2.33c0,0.32,2.3,11.98,2.5,12.32" class="stroke" stroke-dasharray="150"><set attributeName="opacity" to="0" dur="8.8s" /><animate attributeName="stroke-dashoffset" from="150" to="0" dur="1.8s" begin="8.8s" fill="freeze" /></path><path d="M27.98,55.38c4.21-0.38,46.67-4.34,50.52-4.34c2,0,3,0.7,3,2.06c0,2.69-2.99,12.02-2.99,12.36" class="stroke" stroke-dasharray="150"><set attributeName="opacity" to="0" dur="9.700000000000001s" /><animate attributeName="stroke-dashoffset" from="150" to="0" dur="1.8s" begin="9.700000000000001s" fill="freeze" /></path><path d="M29.22,61.49c11.2-0.83,22.39-1.8,33.58-2.71c1.35-0.11,2.67-0.22,3.94-0.32" class="stroke" stroke-dasharray="150"><set attributeName="opacity" to="0" dur="11.200000000000001s" /><animate attributeName="stroke-dashoffset" from="150" to="0" dur="1.8s" begin="11.200000000000001s" fill="freeze" /></path><path d="M30.48,67.91c8.77-0.78,41.42-3.46,48.31-3.98" class="stroke" stroke-dasharray="150"><set attributeName="opacity" to="0" dur="12.200000000000001s" /><animate attributeName="stroke-dashoffset" from="150" to="0" dur="1.8s" begin="12.200000000000001s" fill="freeze" /></path><path d="M24.78,75.38c0.79,0.32,1.59,2.17,1.59,2.68c0,0.36,2.45,13.76,2.66,14.16" class="stroke" stroke-dasharray="150"><set attributeName="opacity" to="0" dur="13.4s" /><animate attributeName="stroke-dashoffset" from="150" to="0" dur="1.8s" begin="13.4s" fill="freeze" /></path><path d="M26.08,76.03c4.47-0.43,50.11-4.99,54.2-4.99c2.13,0,3.19,0.81,3.19,2.37c0,3.09-4.17,15.32-4.17,15.7" class="stroke" stroke-dasharray="150"><set attributeName="opacity" to="0" dur="14.3s" /><animate attributeName="stroke-dashoffset" from="150" to="0" dur="1.8s" begin="14.3s" fill="freeze" /></path><path d="M27.4,83.05c11.9-0.98,23.8-2.07,35.69-3.11c1.43-0.13,2.83-0.25,4.18-0.37" class="stroke" stroke-dasharray="150"><set attributeName="opacity" to="0" dur="16.0s" /><animate attributeName="stroke-dashoffset" from="150" to="0" dur="1.8s" begin="16.0s" fill="freeze" /></path><path d="M28.74,90.42c9.32-0.9,44.02-3.97,51.35-4.58" class="stroke" stroke-dasharray="150"><set attributeName="opacity" to="0" dur="17.1s" /><animate attributeName="stroke-dashoffset" from="150" to="0" dur="1.8s" begin="17.1s" fill="freeze" /></path><path d="M51.99,55.87c0.85,1.33,1.53,2.9,1.58,4.95c0.23,9.16-0.61,19.06-0.61,25.29c0,11.38,2.54,11.9,20.27,11.9c19.52,0,21.66-2.27,21.66-10.21" class="stroke" stroke-dasharray="150"><set attributeName="opacity" to="0" dur="18.400000000000002s" /><animate attributeName="stroke-dashoffset" from="150" to="0" dur="1.8s" begin="18.400000000000002s" fill="freeze" /></path><text x="90" y="120" id="reset-kvg-07ac3-Kaisho">⟳</text><text x="70" y="120" id="pause-kvg-07ac3-Kaisho">◼</text><script type="text/javascript"><![CDATA[function RecurringTimer(e,t){var n,r,i=t;this.pause=function(){window.clearTimeout(n);i-=new Date-r};var s=function(){r=new Date;n=window.setTimeout(function(){i=t;s();e()},i)};this.clear=function(){window.clearTimeout(n);i=t;n=window.setTimeout(function(){i=t;s();e()},i)};this.resume=s;this.resume()}function invoketimer(){timer=new RecurringTimer(function(){svg.setCurrentTime(0)},21100.0)}var svg=document.getElementById("kvg-07ac3-Kaisho");var pause=document.getElementById("pause-kvg-07ac3-Kaisho");var reset=document.getElementById("reset-kvg-07ac3-Kaisho");var timer;invoketimer();reset.onclick=function(){svg.setCurrentTime(0);timer.clear();svg.unpauseAnimations();pause.innerHTML = "◼";};pause.onclick=function(){if(svg.animationsPaused()){svg.unpauseAnimations();timer.resume();pause.innerHTML="◼"}else{svg.pauseAnimations();timer.pause();pause.innerHTML="▶"}}]]></script></svg>