<svg id="kvg-07ae1-Kaisho" class="kanjivg" width="106" height="126" xmlns="http://www.w3.org/2000/svg" xmlns:xlink="http://www.w3.org/1999/xlink" xml:space="preserve" version="1.1" baseProfile="full"><defs><style type="text/css"><![CDATA[path.black{fill:none;stroke:black;stroke-width:5;stroke-linecap:round;stroke-linejoin:round;}path.grey{fill:none;stroke:#ddd;stroke-width:5;stroke-linecap:round;stroke-linejoin:round;}path.stroke{fill:none;stroke:black;stroke-width:5;stroke-linecap:round;stroke-linejoin:round;}rect{fill:none;stroke:#555;stroke-width:2;} text{font-size:16px;font-family:Segoe UI Symbol,Cambria Math,DejaVu Sans,Symbola,Quivira,STIX,Code2000;-webkit-touch-callout:none;cursor:pointer;-webkit-user-select:none;-khtml-user-select:none;-moz-user-select:none;-ms-user-select:none;user-select: none;}text:hover{color:#777;}#reset{font-weight:bold;}]]></style><marker id="markerStart" markerWidth="8" markerHeight="8" style="overflow:visible;"><circle cx="0" cy="0" r="1.5" style="stroke:none;fill:red;fill-opacity:0.5;"/></marker><marker id="markerEnd" style="overflow:visible;"><circle cx="0" cy="0" r="0.8" style="stroke:none;fill:blue;fill-opacity:0.5;"><animate attributeName="opacity" from="1" to="0" dur="3s" repeatCount="indefinite" /></circle></marker></defs><rect x="4" y="4" width="100" height="100" /><path d="M20.79,14.25c5.84,4.75,9.03,10.5,11.09,16.15" class="grey" /><path d="M11.5,37.79c1.05,0.41,2.28,0.47,3.33,0.41c5.93-0.35,17.68-2.46,25.74-3.28c1.75-0.18,2.8,0.19,3.68,0.4" class="grey" /><path d="M14.5,48.4c5.34,11.13,7.76,22.51,8.25,29.85" class="grey" /><path d="M38.8,43.75c1.13,1.31,0.64,4.05,0.4,5.1C36.7,59.62,31.98,76.41,29.75,82" class="grey" /><path d="M12,91.44c0.99,1.36,3.19,1.33,4.17,0.79C26.92,86.33,35.71,80.87,45.25,76" class="grey" /><path d="M46.46,19.99c1.42,0.41,4.04,0.55,5.46,0.41c12.84-1.22,23.26-2.69,41.64-3.53c2.37-0.11,3.8,0.2,4.99,0.4" class="grey" /><path d="M70.85,20.88c0.33,0.61,0.39,1.35,0.3,1.89c-0.47,3.14-4.53,11.64-8.22,15.85" class="grey" /><path d="M52.49,38.15c0.57,1.41,1.27,2.23,1.27,4.19c0,19.91,0.44,46.16,0.44,55.41" class="grey" /><path d="M54.34,40.3c3.41-0.24,30.69-3.06,33.8-3.34c2.59-0.24,4.26,1.6,4.06,3.02c-0.41,2.87-1.44,40.72-1.76,56.01" class="grey" /><path d="M54.28,64.63c6.66-0.38,13.32-0.87,19.97-1.3c1.51-0.1,2.98-0.19,4.4-0.27" class="grey" /><path d="M56,93.24c10.93-0.73,22.56-1.44,32.84-1.88" class="grey" /><path d="M20.79,14.25c5.84,4.75,9.03,10.5,11.09,16.15" class="stroke" stroke-dasharray="150"><animate attributeName="stroke-dashoffset" from="150" to="0" dur="1.8s" begin="0.0s" fill="freeze" /></path><path d="M11.5,37.79c1.05,0.41,2.28,0.47,3.33,0.41c5.93-0.35,17.68-2.46,25.74-3.28c1.75-0.18,2.8,0.19,3.68,0.4" class="stroke" stroke-dasharray="150"><set attributeName="opacity" to="0" dur="0.9s" /><animate attributeName="stroke-dashoffset" from="150" to="0" dur="1.8s" begin="0.9s" fill="freeze" /></path><path d="M14.5,48.4c5.34,11.13,7.76,22.51,8.25,29.85" class="stroke" stroke-dasharray="150"><set attributeName="opacity" to="0" dur="1.9s" /><animate attributeName="stroke-dashoffset" from="150" to="0" dur="1.8s" begin="1.9s" fill="freeze" /></path><path d="M38.8,43.75c1.13,1.31,0.64,4.05,0.4,5.1C36.7,59.62,31.98,76.41,29.75,82" class="stroke" stroke-dasharray="150"><set attributeName="opacity" to="0" dur="2.9s" /><animate attributeName="stroke-dashoffset" from="150" to="0" dur="1.8s" begin="2.9s" fill="freeze" /></path><path d="M12,91.44c0.99,1.36,3.19,1.33,4.17,0.79C26.92,86.33,35.71,80.87,45.25,76" class="stroke" stroke-dasharray="150"><set attributeName="opacity" to="0" dur="3.9s" /><animate attributeName="stroke-dashoffset" from="150" to="0" dur="1.8s" begin="3.9s" fill="freeze" /></path><path d="M46.46,19.99c1.42,0.41,4.04,0.55,5.46,0.41c12.84-1.22,23.26-2.69,41.64-3.53c2.37-0.11,3.8,0.2,4.99,0.4" class="stroke" stroke-dasharray="150"><set attributeName="opacity" to="0" dur="4.9s" /><animate attributeName="stroke-dashoffset" from="150" to="0" dur="1.8s" begin="4.9s" fill="freeze" /></path><path d="M70.85,20.88c0.33,0.61,0.39,1.35,0.3,1.89c-0.47,3.14-4.53,11.64-8.22,15.85" class="stroke" stroke-dasharray="150"><set attributeName="opacity" to="0" dur="6.2s" /><animate attributeName="stroke-dashoffset" from="150" to="0" dur="1.8s" begin="6.2s" fill="freeze" /></path><path d="M52.49,38.15c0.57,1.41,1.27,2.23,1.27,4.19c0,19.91,0.44,46.16,0.44,55.41" class="stroke" stroke-dasharray="150"><set attributeName="opacity" to="0" dur="7.1000000000000005s" /><animate attributeName="stroke-dashoffset" from="150" to="0" dur="1.8s" begin="7.1000000000000005s" fill="freeze" /></path><path d="M54.34,40.3c3.41-0.24,30.69-3.06,33.8-3.34c2.59-0.24,4.26,1.6,4.06,3.02c-0.41,2.87-1.44,40.72-1.76,56.01" class="stroke" stroke-dasharray="150"><set attributeName="opacity" to="0" dur="8.5s" /><animate attributeName="stroke-dashoffset" from="150" to="0" dur="1.8s" begin="8.5s" fill="freeze" /></path><path d="M54.28,64.63c6.66-0.38,13.32-0.87,19.97-1.3c1.51-0.1,2.98-0.19,4.4-0.27" class="stroke" stroke-dasharray="150"><set attributeName="opacity" to="0" dur="10.3s" /><animate attributeName="stroke-dashoffset" from="150" to="0" dur="1.8s" begin="10.3s" fill="freeze" /></path><path d="M56,93.24c10.93-0.73,22.56-1.44,32.84-1.88" class="stroke" stroke-dasharray="150"><set attributeName="opacity" to="0" dur="11.3s" /><animate attributeName="stroke-dashoffset" from="150" to="0" dur="1.8s" begin="11.3s" fill="freeze" /></path><text x="90" y="120" id="reset-kvg-07ae1-Kaisho">⟳</text><text x="70" y="120" id="pause-kvg-07ae1-Kaisho">◼</text><script type="text/javascript"><![CDATA[function RecurringTimer(e,t){var n,r,i=t;this.pause=function(){window.clearTimeout(n);i-=new Date-r};var s=function(){r=new Date;n=window.setTimeout(function(){i=t;s();e()},i)};this.clear=function(){window.clearTimeout(n);i=t;n=window.setTimeout(function(){i=t;s();e()},i)};this.resume=s;this.resume()}function invoketimer(){timer=new RecurringTimer(function(){svg.setCurrentTime(0)},13300.0)}var svg=document.getElementById("kvg-07ae1-Kaisho");var pause=document.getElementById("pause-kvg-07ae1-Kaisho");var reset=document.getElementById("reset-kvg-07ae1-Kaisho");var timer;invoketimer();reset.onclick=function(){svg.setCurrentTime(0);timer.clear();svg.unpauseAnimations();pause.innerHTML = "◼";};pause.onclick=function(){if(svg.animationsPaused()){svg.unpauseAnimations();timer.resume();pause.innerHTML="◼"}else{svg.pauseAnimations();timer.pause();pause.innerHTML="▶"}}]]></script></svg>