<svg id="kvg-07b04" class="kanjivg" width="106" height="126" xmlns="http://www.w3.org/2000/svg" xmlns:xlink="http://www.w3.org/1999/xlink" xml:space="preserve" version="1.1" baseProfile="full"><defs><style type="text/css"><![CDATA[path.black{fill:none;stroke:black;stroke-width:5;stroke-linecap:round;stroke-linejoin:round;}path.grey{fill:none;stroke:#ddd;stroke-width:5;stroke-linecap:round;stroke-linejoin:round;}path.stroke{fill:none;stroke:black;stroke-width:5;stroke-linecap:round;stroke-linejoin:round;}rect{fill:none;stroke:#555;stroke-width:2;} text{font-size:16px;font-family:Segoe UI Symbol,Cambria Math,DejaVu Sans,Symbola,Quivira,STIX,Code2000;-webkit-touch-callout:none;cursor:pointer;-webkit-user-select:none;-khtml-user-select:none;-moz-user-select:none;-ms-user-select:none;user-select: none;}text:hover{color:#777;}#reset{font-weight:bold;}]]></style><marker id="markerStart" markerWidth="8" markerHeight="8" style="overflow:visible;"><circle cx="0" cy="0" r="1.5" style="stroke:none;fill:red;fill-opacity:0.5;"/></marker><marker id="markerEnd" style="overflow:visible;"><circle cx="0" cy="0" r="0.8" style="stroke:none;fill:blue;fill-opacity:0.5;"><animate attributeName="opacity" from="1" to="0" dur="3s" repeatCount="indefinite" /></circle></marker></defs><rect x="4" y="4" width="100" height="100" /><path d="M28,12c0.04,0.56,0.09,1.46-0.08,2.27C26.93,19.06,21.26,29.57,13.5,36" class="grey" /><path d="M28.23,23.79c3.71,0,18.61-2.29,22.77-2.29" class="grey" /><path d="M33.52,24.83c2.66,1.79,6.88,7.35,7.54,10.13" class="grey" /><path d="M65.75,10.25c0.04,0.55,0.18,1.43-0.09,2.2c-2.01,5.76-7.56,13.98-14.92,21.05" class="grey" /><path d="M64.98,21.6c7.02-0.1,22.08-2.72,27.4-2.72" class="grey" /><path d="M77.54,23.11c0.02,0.25,0.05,0.65-0.05,1.01c-0.58,2.12-3.92,6.78-8.49,9.63" class="grey" /><path d="M23.25,43.24c1.5,0.45,4.24,0.5,5.75,0.45c9.02-0.32,37.75-3.05,51.26-2.88c2.5,0.03,4,0.21,5.25,0.44" class="grey" /><path d="M14.25,64.22c1.53,0.33,4.35,0.34,5.87,0.33c10.13-0.05,59.71-3.47,70.27-3.38c2.55,0.02,4.08,0.16,5.36,0.32" class="grey" /><path d="M40.33,45.12c0.92,0.88,1.17,1.78,1.17,2.96c0,1.19,0.5,2.76,0.5,12.84S35.84,92.16,20.25,97.5" class="grey" /><path d="M65.51,43.28c1.13,0.78,1.99,2.55,1.99,3.33s0,49.57,0,51.9" class="grey" /><path d="M28,12c0.04,0.56,0.09,1.46-0.08,2.27C26.93,19.06,21.26,29.57,13.5,36" class="stroke" stroke-dasharray="150"><animate attributeName="stroke-dashoffset" from="150" to="0" dur="1.8s" begin="0.0s" fill="freeze" /></path><path d="M28.23,23.79c3.71,0,18.61-2.29,22.77-2.29" class="stroke" stroke-dasharray="150"><set attributeName="opacity" to="0" dur="1.0s" /><animate attributeName="stroke-dashoffset" from="150" to="0" dur="1.8s" begin="1.0s" fill="freeze" /></path><path d="M33.52,24.83c2.66,1.79,6.88,7.35,7.54,10.13" class="stroke" stroke-dasharray="150"><set attributeName="opacity" to="0" dur="2.0s" /><animate attributeName="stroke-dashoffset" from="150" to="0" dur="1.8s" begin="2.0s" fill="freeze" /></path><path d="M65.75,10.25c0.04,0.55,0.18,1.43-0.09,2.2c-2.01,5.76-7.56,13.98-14.92,21.05" class="stroke" stroke-dasharray="150"><set attributeName="opacity" to="0" dur="2.9s" /><animate attributeName="stroke-dashoffset" from="150" to="0" dur="1.8s" begin="2.9s" fill="freeze" /></path><path d="M64.98,21.6c7.02-0.1,22.08-2.72,27.4-2.72" class="stroke" stroke-dasharray="150"><set attributeName="opacity" to="0" dur="3.9s" /><animate attributeName="stroke-dashoffset" from="150" to="0" dur="1.8s" begin="3.9s" fill="freeze" /></path><path d="M77.54,23.11c0.02,0.25,0.05,0.65-0.05,1.01c-0.58,2.12-3.92,6.78-8.49,9.63" class="stroke" stroke-dasharray="150"><set attributeName="opacity" to="0" dur="4.9s" /><animate attributeName="stroke-dashoffset" from="150" to="0" dur="1.8s" begin="4.9s" fill="freeze" /></path><path d="M23.25,43.24c1.5,0.45,4.24,0.5,5.75,0.45c9.02-0.32,37.75-3.05,51.26-2.88c2.5,0.03,4,0.21,5.25,0.44" class="stroke" stroke-dasharray="150"><set attributeName="opacity" to="0" dur="5.800000000000001s" /><animate attributeName="stroke-dashoffset" from="150" to="0" dur="1.8s" begin="5.800000000000001s" fill="freeze" /></path><path d="M14.25,64.22c1.53,0.33,4.35,0.34,5.87,0.33c10.13-0.05,59.71-3.47,70.27-3.38c2.55,0.02,4.08,0.16,5.36,0.32" class="stroke" stroke-dasharray="150"><set attributeName="opacity" to="0" dur="7.300000000000001s" /><animate attributeName="stroke-dashoffset" from="150" to="0" dur="1.8s" begin="7.300000000000001s" fill="freeze" /></path><path d="M40.33,45.12c0.92,0.88,1.17,1.78,1.17,2.96c0,1.19,0.5,2.76,0.5,12.84S35.84,92.16,20.25,97.5" class="stroke" stroke-dasharray="150"><set attributeName="opacity" to="0" dur="9.0s" /><animate attributeName="stroke-dashoffset" from="150" to="0" dur="1.8s" begin="9.0s" fill="freeze" /></path><path d="M65.51,43.28c1.13,0.78,1.99,2.55,1.99,3.33s0,49.57,0,51.9" class="stroke" stroke-dasharray="150"><set attributeName="opacity" to="0" dur="10.5s" /><animate attributeName="stroke-dashoffset" from="150" to="0" dur="1.8s" begin="10.5s" fill="freeze" /></path><text x="90" y="120" id="reset-kvg-07b04">⟳</text><text x="70" y="120" id="pause-kvg-07b04">◼</text><script type="text/javascript"><![CDATA[function RecurringTimer(e,t){var n,r,i=t;this.pause=function(){window.clearTimeout(n);i-=new Date-r};var s=function(){r=new Date;n=window.setTimeout(function(){i=t;s();e()},i)};this.clear=function(){window.clearTimeout(n);i=t;n=window.setTimeout(function(){i=t;s();e()},i)};this.resume=s;this.resume()}function invoketimer(){timer=new RecurringTimer(function(){svg.setCurrentTime(0)},12900.0)}var svg=document.getElementById("kvg-07b04");var pause=document.getElementById("pause-kvg-07b04");var reset=document.getElementById("reset-kvg-07b04");var timer;invoketimer();reset.onclick=function(){svg.setCurrentTime(0);timer.clear();svg.unpauseAnimations();pause.innerHTML = "◼";};pause.onclick=function(){if(svg.animationsPaused()){svg.unpauseAnimations();timer.resume();pause.innerHTML="◼"}else{svg.pauseAnimations();timer.pause();pause.innerHTML="▶"}}]]></script></svg>