<svg id="kvg-07b46" class="kanjivg" width="106" height="126" xmlns="http://www.w3.org/2000/svg" xmlns:xlink="http://www.w3.org/1999/xlink" xml:space="preserve" version="1.1" baseProfile="full"><defs><style type="text/css"><![CDATA[path.black{fill:none;stroke:black;stroke-width:5;stroke-linecap:round;stroke-linejoin:round;}path.grey{fill:none;stroke:#ddd;stroke-width:5;stroke-linecap:round;stroke-linejoin:round;}path.stroke{fill:none;stroke:black;stroke-width:5;stroke-linecap:round;stroke-linejoin:round;}rect{fill:none;stroke:#555;stroke-width:2;} text{font-size:16px;font-family:Segoe UI Symbol,Cambria Math,DejaVu Sans,Symbola,Quivira,STIX,Code2000;-webkit-touch-callout:none;cursor:pointer;-webkit-user-select:none;-khtml-user-select:none;-moz-user-select:none;-ms-user-select:none;user-select: none;}text:hover{color:#777;}#reset{font-weight:bold;}]]></style><marker id="markerStart" markerWidth="8" markerHeight="8" style="overflow:visible;"><circle cx="0" cy="0" r="1.5" style="stroke:none;fill:red;fill-opacity:0.5;"/></marker><marker id="markerEnd" style="overflow:visible;"><circle cx="0" cy="0" r="0.8" style="stroke:none;fill:blue;fill-opacity:0.5;"><animate attributeName="opacity" from="1" to="0" dur="3s" repeatCount="indefinite" /></circle></marker></defs><rect x="4" y="4" width="100" height="100" /><path d="M30.75,11.07c0.08,1.14-0.05,2.15-0.43,3.24c-1.63,4.65-7.22,13.06-13.82,18.26" class="grey" /><path d="M28.73,23.6c2.9,0,12.34-2.23,18.31-3.14c1.34-0.2,2.61-0.15,3.96-0.15" class="grey" /><path d="M35.5,25.44c1.87,1.34,4.84,5.51,5.31,7.59" class="grey" /><path d="M66.26,11.57c0.09,0.84-0.03,1.9-0.37,2.67c-1.14,3.37-3.55,7.75-6.63,11.58" class="grey" /><path d="M66.98,20.72c3.6,0,11.75-1.9,17.78-2.84c1.63-0.25,3.22-0.48,4.87-0.48" class="grey" /><path d="M75.13,22.94c0.05,0.51-0.03,1-0.23,1.48c-0.69,1.9-2.73,5.1-5.4,7.15" class="grey" /><path d="M32.75,39.32c1.88,0.5,3.7,0.66,6,0.5c10.5-0.75,26.5-3.25,36.5-3.75c3.25-0.16,3.88,1.88,3.25,4c-1.18,4.02-3.25,9.25-4.5,16.75" class="grey" /><path d="M16.25,52.07c3.18,0.25,5.69,0.37,9.2,0c17.8-1.88,42.39-4.62,62.46-5.25c3.9-0.12,7.08,0.5,8.84,0.75" class="grey" /><path d="M33.75,61.57c1.41,0.25,3.95,0.42,5.62,0.25c12.38-1.25,21.88-2.62,31.78-3.25c2.25-0.14,3.66,0,5.34,0.25" class="grey" /><path d="M31.25,72.73c1.43,0.38,4.06,0.5,5.49,0.38c12.75-1.05,26.13-2.55,37.12-3.63c2.37-0.23,3.82,0.18,5.01,0.37" class="grey" /><path d="M20.63,85.29c2.52,0.54,6.26,0.79,8.77,0.54c18.98-1.89,33.6-3.39,50.92-4.48c4.18-0.26,6.71,0.01,8.81,0.28" class="grey" /><path d="M53.12,30.07c1.25,1.25,1.46,2.75,1.46,3.75c0,0.9-0.36,45.09-0.45,62.25c-0.01,2.46-0.02,4.36-0.02,5.5" class="grey" /><path d="M30.75,11.07c0.08,1.14-0.05,2.15-0.43,3.24c-1.63,4.65-7.22,13.06-13.82,18.26" class="stroke" stroke-dasharray="150"><animate attributeName="stroke-dashoffset" from="150" to="0" dur="1.8s" begin="0.0s" fill="freeze" /></path><path d="M28.73,23.6c2.9,0,12.34-2.23,18.31-3.14c1.34-0.2,2.61-0.15,3.96-0.15" class="stroke" stroke-dasharray="150"><set attributeName="opacity" to="0" dur="1.0s" /><animate attributeName="stroke-dashoffset" from="150" to="0" dur="1.8s" begin="1.0s" fill="freeze" /></path><path d="M35.5,25.44c1.87,1.34,4.84,5.51,5.31,7.59" class="stroke" stroke-dasharray="150"><set attributeName="opacity" to="0" dur="2.0s" /><animate attributeName="stroke-dashoffset" from="150" to="0" dur="1.8s" begin="2.0s" fill="freeze" /></path><path d="M66.26,11.57c0.09,0.84-0.03,1.9-0.37,2.67c-1.14,3.37-3.55,7.75-6.63,11.58" class="stroke" stroke-dasharray="150"><set attributeName="opacity" to="0" dur="2.9s" /><animate attributeName="stroke-dashoffset" from="150" to="0" dur="1.8s" begin="2.9s" fill="freeze" /></path><path d="M66.98,20.72c3.6,0,11.75-1.9,17.78-2.84c1.63-0.25,3.22-0.48,4.87-0.48" class="stroke" stroke-dasharray="150"><set attributeName="opacity" to="0" dur="3.8s" /><animate attributeName="stroke-dashoffset" from="150" to="0" dur="1.8s" begin="3.8s" fill="freeze" /></path><path d="M75.13,22.94c0.05,0.51-0.03,1-0.23,1.48c-0.69,1.9-2.73,5.1-5.4,7.15" class="stroke" stroke-dasharray="150"><set attributeName="opacity" to="0" dur="4.8s" /><animate attributeName="stroke-dashoffset" from="150" to="0" dur="1.8s" begin="4.8s" fill="freeze" /></path><path d="M32.75,39.32c1.88,0.5,3.7,0.66,6,0.5c10.5-0.75,26.5-3.25,36.5-3.75c3.25-0.16,3.88,1.88,3.25,4c-1.18,4.02-3.25,9.25-4.5,16.75" class="stroke" stroke-dasharray="150"><set attributeName="opacity" to="0" dur="5.7s" /><animate attributeName="stroke-dashoffset" from="150" to="0" dur="1.8s" begin="5.7s" fill="freeze" /></path><path d="M16.25,52.07c3.18,0.25,5.69,0.37,9.2,0c17.8-1.88,42.39-4.62,62.46-5.25c3.9-0.12,7.08,0.5,8.84,0.75" class="stroke" stroke-dasharray="150"><set attributeName="opacity" to="0" dur="7.2s" /><animate attributeName="stroke-dashoffset" from="150" to="0" dur="1.8s" begin="7.2s" fill="freeze" /></path><path d="M33.75,61.57c1.41,0.25,3.95,0.42,5.62,0.25c12.38-1.25,21.88-2.62,31.78-3.25c2.25-0.14,3.66,0,5.34,0.25" class="stroke" stroke-dasharray="150"><set attributeName="opacity" to="0" dur="8.9s" /><animate attributeName="stroke-dashoffset" from="150" to="0" dur="1.8s" begin="8.9s" fill="freeze" /></path><path d="M31.25,72.73c1.43,0.38,4.06,0.5,5.49,0.38c12.75-1.05,26.13-2.55,37.12-3.63c2.37-0.23,3.82,0.18,5.01,0.37" class="stroke" stroke-dasharray="150"><set attributeName="opacity" to="0" dur="10.0s" /><animate attributeName="stroke-dashoffset" from="150" to="0" dur="1.8s" begin="10.0s" fill="freeze" /></path><path d="M20.63,85.29c2.52,0.54,6.26,0.79,8.77,0.54c18.98-1.89,33.6-3.39,50.92-4.48c4.18-0.26,6.71,0.01,8.81,0.28" class="stroke" stroke-dasharray="150"><set attributeName="opacity" to="0" dur="11.2s" /><animate attributeName="stroke-dashoffset" from="150" to="0" dur="1.8s" begin="11.2s" fill="freeze" /></path><path d="M53.12,30.07c1.25,1.25,1.46,2.75,1.46,3.75c0,0.9-0.36,45.09-0.45,62.25c-0.01,2.46-0.02,4.36-0.02,5.5" class="stroke" stroke-dasharray="150"><set attributeName="opacity" to="0" dur="12.7s" /><animate attributeName="stroke-dashoffset" from="150" to="0" dur="1.8s" begin="12.7s" fill="freeze" /></path><text x="90" y="120" id="reset-kvg-07b46">⟳</text><text x="70" y="120" id="pause-kvg-07b46">◼</text><script type="text/javascript"><![CDATA[function RecurringTimer(e,t){var n,r,i=t;this.pause=function(){window.clearTimeout(n);i-=new Date-r};var s=function(){r=new Date;n=window.setTimeout(function(){i=t;s();e()},i)};this.clear=function(){window.clearTimeout(n);i=t;n=window.setTimeout(function(){i=t;s();e()},i)};this.resume=s;this.resume()}function invoketimer(){timer=new RecurringTimer(function(){svg.setCurrentTime(0)},15399.999999999998)}var svg=document.getElementById("kvg-07b46");var pause=document.getElementById("pause-kvg-07b46");var reset=document.getElementById("reset-kvg-07b46");var timer;invoketimer();reset.onclick=function(){svg.setCurrentTime(0);timer.clear();svg.unpauseAnimations();pause.innerHTML = "◼";};pause.onclick=function(){if(svg.animationsPaused()){svg.unpauseAnimations();timer.resume();pause.innerHTML="◼"}else{svg.pauseAnimations();timer.pause();pause.innerHTML="▶"}}]]></script></svg>