<svg id="kvg-07b71" class="kanjivg" width="106" height="126" xmlns="http://www.w3.org/2000/svg" xmlns:xlink="http://www.w3.org/1999/xlink" xml:space="preserve" version="1.1" baseProfile="full"><defs><style type="text/css"><![CDATA[path.black{fill:none;stroke:black;stroke-width:5;stroke-linecap:round;stroke-linejoin:round;}path.grey{fill:none;stroke:#ddd;stroke-width:5;stroke-linecap:round;stroke-linejoin:round;}path.stroke{fill:none;stroke:black;stroke-width:5;stroke-linecap:round;stroke-linejoin:round;}rect{fill:none;stroke:#555;stroke-width:2;} text{font-size:16px;font-family:Segoe UI Symbol,Cambria Math,DejaVu Sans,Symbola,Quivira,STIX,Code2000;-webkit-touch-callout:none;cursor:pointer;-webkit-user-select:none;-khtml-user-select:none;-moz-user-select:none;-ms-user-select:none;user-select: none;}text:hover{color:#777;}#reset{font-weight:bold;}]]></style><marker id="markerStart" markerWidth="8" markerHeight="8" style="overflow:visible;"><circle cx="0" cy="0" r="1.5" style="stroke:none;fill:red;fill-opacity:0.5;"/></marker><marker id="markerEnd" style="overflow:visible;"><circle cx="0" cy="0" r="0.8" style="stroke:none;fill:blue;fill-opacity:0.5;"><animate attributeName="opacity" from="1" to="0" dur="3s" repeatCount="indefinite" /></circle></marker></defs><rect x="4" y="4" width="100" height="100" /><path d="M28.5,11c0.04,0.58,0.09,1.49-0.09,2.32C27.32,18.2,21.06,28.93,12.5,35.5" class="grey" /><path d="M26.73,23.06c4.27,0,17.98-3.08,22.77-3.08" class="grey" /><path d="M34.52,24.83c2.22,1.7,5.74,6.99,6.29,9.63" class="grey" /><path d="M61.51,10.75c0.04,0.52,0.16,1.35-0.08,2.08c-1.77,5.45-6.68,13.23-13.18,19.92" class="grey" /><path d="M60.75,20.97c5.83,0,27.2-3.72,33.75-3.72" class="grey" /><path d="M78.24,22.5c0.03,0.24,0.06,0.62-0.06,0.97c-0.7,2.05-4.7,6.53-10.18,9.28" class="grey" /><path d="M32.5,35.75c0.22,1.79-0.06,4.13-0.77,5.66C27.18,51.17,21.42,60.33,11,72.21" class="grey" /><path d="M24.98,53.47c0.62,0.82,1.57,1.59,1.66,2.66c0.96,10.38-0.53,37.59,0.22,43.62" class="grey" /><path d="M39.42,46.66c0.7,0.7,1.19,1.53,1.25,3.86c0.29,11.19-0.02,35.81-0.02,39.62" class="grey" /><path d="M62,35c0.04,0.66,0.27,1.74-0.08,2.65c-2.25,5.83-8.36,19.03-16.16,27.1" class="grey" /><path d="M59.97,47.48c0.04-0.2,1.86,0.57,2.52,0.52c6.83-0.59,18.53-2.7,28.96-3.65c1.17-0.11,1.89-0.03,2.2,0.1" class="grey" /><path d="M81.96,48.67c0.63,1.25,0.97,2.15,0.32,4.44C76.3,73.93,62.67,92.53,43,99.75" class="grey" /><path d="M56,54c7.75,10.75,24.02,34.04,35.04,42.24c2.12,1.58,3.47,1.84,5.21,2.01" class="grey" /><path d="M28.5,11c0.04,0.58,0.09,1.49-0.09,2.32C27.32,18.2,21.06,28.93,12.5,35.5" class="stroke" stroke-dasharray="150"><animate attributeName="stroke-dashoffset" from="150" to="0" dur="1.8s" begin="0.0s" fill="freeze" /></path><path d="M26.73,23.06c4.27,0,17.98-3.08,22.77-3.08" class="stroke" stroke-dasharray="150"><set attributeName="opacity" to="0" dur="1.0s" /><animate attributeName="stroke-dashoffset" from="150" to="0" dur="1.8s" begin="1.0s" fill="freeze" /></path><path d="M34.52,24.83c2.22,1.7,5.74,6.99,6.29,9.63" class="stroke" stroke-dasharray="150"><set attributeName="opacity" to="0" dur="2.0s" /><animate attributeName="stroke-dashoffset" from="150" to="0" dur="1.8s" begin="2.0s" fill="freeze" /></path><path d="M61.51,10.75c0.04,0.52,0.16,1.35-0.08,2.08c-1.77,5.45-6.68,13.23-13.18,19.92" class="stroke" stroke-dasharray="150"><set attributeName="opacity" to="0" dur="2.9s" /><animate attributeName="stroke-dashoffset" from="150" to="0" dur="1.8s" begin="2.9s" fill="freeze" /></path><path d="M60.75,20.97c5.83,0,27.2-3.72,33.75-3.72" class="stroke" stroke-dasharray="150"><set attributeName="opacity" to="0" dur="3.9s" /><animate attributeName="stroke-dashoffset" from="150" to="0" dur="1.8s" begin="3.9s" fill="freeze" /></path><path d="M78.24,22.5c0.03,0.24,0.06,0.62-0.06,0.97c-0.7,2.05-4.7,6.53-10.18,9.28" class="stroke" stroke-dasharray="150"><set attributeName="opacity" to="0" dur="4.9s" /><animate attributeName="stroke-dashoffset" from="150" to="0" dur="1.8s" begin="4.9s" fill="freeze" /></path><path d="M32.5,35.75c0.22,1.79-0.06,4.13-0.77,5.66C27.18,51.17,21.42,60.33,11,72.21" class="stroke" stroke-dasharray="150"><set attributeName="opacity" to="0" dur="5.800000000000001s" /><animate attributeName="stroke-dashoffset" from="150" to="0" dur="1.8s" begin="5.800000000000001s" fill="freeze" /></path><path d="M24.98,53.47c0.62,0.82,1.57,1.59,1.66,2.66c0.96,10.38-0.53,37.59,0.22,43.62" class="stroke" stroke-dasharray="150"><set attributeName="opacity" to="0" dur="6.9s" /><animate attributeName="stroke-dashoffset" from="150" to="0" dur="1.8s" begin="6.9s" fill="freeze" /></path><path d="M39.42,46.66c0.7,0.7,1.19,1.53,1.25,3.86c0.29,11.19-0.02,35.81-0.02,39.62" class="stroke" stroke-dasharray="150"><set attributeName="opacity" to="0" dur="8.1s" /><animate attributeName="stroke-dashoffset" from="150" to="0" dur="1.8s" begin="8.1s" fill="freeze" /></path><path d="M62,35c0.04,0.66,0.27,1.74-0.08,2.65c-2.25,5.83-8.36,19.03-16.16,27.1" class="stroke" stroke-dasharray="150"><set attributeName="opacity" to="0" dur="9.2s" /><animate attributeName="stroke-dashoffset" from="150" to="0" dur="1.8s" begin="9.2s" fill="freeze" /></path><path d="M59.97,47.48c0.04-0.2,1.86,0.57,2.52,0.52c6.83-0.59,18.53-2.7,28.96-3.65c1.17-0.11,1.89-0.03,2.2,0.1" class="stroke" stroke-dasharray="150"><set attributeName="opacity" to="0" dur="10.2s" /><animate attributeName="stroke-dashoffset" from="150" to="0" dur="1.8s" begin="10.2s" fill="freeze" /></path><path d="M81.96,48.67c0.63,1.25,0.97,2.15,0.32,4.44C76.3,73.93,62.67,92.53,43,99.75" class="stroke" stroke-dasharray="150"><set attributeName="opacity" to="0" dur="11.2s" /><animate attributeName="stroke-dashoffset" from="150" to="0" dur="1.8s" begin="11.2s" fill="freeze" /></path><path d="M56,54c7.75,10.75,24.02,34.04,35.04,42.24c2.12,1.58,3.47,1.84,5.21,2.01" class="stroke" stroke-dasharray="150"><set attributeName="opacity" to="0" dur="12.7s" /><animate attributeName="stroke-dashoffset" from="150" to="0" dur="1.8s" begin="12.7s" fill="freeze" /></path><text x="90" y="120" id="reset-kvg-07b71">⟳</text><text x="70" y="120" id="pause-kvg-07b71">◼</text><script type="text/javascript"><![CDATA[function RecurringTimer(e,t){var n,r,i=t;this.pause=function(){window.clearTimeout(n);i-=new Date-r};var s=function(){r=new Date;n=window.setTimeout(function(){i=t;s();e()},i)};this.clear=function(){window.clearTimeout(n);i=t;n=window.setTimeout(function(){i=t;s();e()},i)};this.resume=s;this.resume()}function invoketimer(){timer=new RecurringTimer(function(){svg.setCurrentTime(0)},15200.0)}var svg=document.getElementById("kvg-07b71");var pause=document.getElementById("pause-kvg-07b71");var reset=document.getElementById("reset-kvg-07b71");var timer;invoketimer();reset.onclick=function(){svg.setCurrentTime(0);timer.clear();svg.unpauseAnimations();pause.innerHTML = "◼";};pause.onclick=function(){if(svg.animationsPaused()){svg.unpauseAnimations();timer.resume();pause.innerHTML="◼"}else{svg.pauseAnimations();timer.pause();pause.innerHTML="▶"}}]]></script></svg>