<svg id="kvg-07b9c" class="kanjivg" width="106" height="126" xmlns="http://www.w3.org/2000/svg" xmlns:xlink="http://www.w3.org/1999/xlink" xml:space="preserve" version="1.1" baseProfile="full"><defs><style type="text/css"><![CDATA[path.black{fill:none;stroke:black;stroke-width:5;stroke-linecap:round;stroke-linejoin:round;}path.grey{fill:none;stroke:#ddd;stroke-width:5;stroke-linecap:round;stroke-linejoin:round;}path.stroke{fill:none;stroke:black;stroke-width:5;stroke-linecap:round;stroke-linejoin:round;}rect{fill:none;stroke:#555;stroke-width:2;} text{font-size:16px;font-family:Segoe UI Symbol,Cambria Math,DejaVu Sans,Symbola,Quivira,STIX,Code2000;-webkit-touch-callout:none;cursor:pointer;-webkit-user-select:none;-khtml-user-select:none;-moz-user-select:none;-ms-user-select:none;user-select: none;}text:hover{color:#777;}#reset{font-weight:bold;}]]></style><marker id="markerStart" markerWidth="8" markerHeight="8" style="overflow:visible;"><circle cx="0" cy="0" r="1.5" style="stroke:none;fill:red;fill-opacity:0.5;"/></marker><marker id="markerEnd" style="overflow:visible;"><circle cx="0" cy="0" r="0.8" style="stroke:none;fill:blue;fill-opacity:0.5;"><animate attributeName="opacity" from="1" to="0" dur="3s" repeatCount="indefinite" /></circle></marker></defs><rect x="4" y="4" width="100" height="100" /><path d="M28.75,10c0.04,0.56,0.09,1.46-0.08,2.27C27.64,17.06,21.77,27.57,13.75,34" class="grey" /><path d="M27,21.64c4.41,0,20.05-2.53,25-2.53" class="grey" /><path d="M34,24c2.38,1.9,6.16,7.8,6.75,10.75" class="grey" /><path d="M62.5,9.25c0.04,0.47,0.17,1.21-0.08,1.87C60.58,16.01,55.49,22.99,48.75,29" class="grey" /><path d="M61.92,20.02c5.11,0.22,24.02-3.29,29.76-3.04" class="grey" /><path d="M75.99,21.25c0.03,0.29,0.07,0.75-0.06,1.16c-0.78,2.44-5.28,7.81-11.43,11.09" class="grey" /><path d="M52.31,31.75c1.69,0.75,1.93,1.5,1.93,2.88c0,2.65-0.08,5.38-0.08,7.79" class="grey" /><path d="M21.69,42.75c0,3.68-3.32,13.8-4.83,16.25" class="grey" /><path d="M22.73,45.79C26.25,45.25,77.61,41,84.81,41c13.44,0,4.94,6.5,1.19,10.25" class="grey" /><path d="M43.48,47.25c0.12,0.6,0.14,1.54-0.25,2.42c-3.39,7.71-9.73,14.58-22.24,22.08" class="grey" /><path d="M59.47,44.16c1.19,0.91,2.13,1.99,2.2,3.39c0.16,3.14,0.08,6.1,0.08,8.57c0,6.12,4.75,6.96,15.31,6.96c5.65,0,11.43-0.84,13.45-1.86" class="grey" /><path d="M30.23,74.23c0.95,0.57,3.05,0.77,4.04,0.7c8.97-0.66,29.8-3.03,40.88-3.4c1.5-0.05,2.86,0.22,4.09,0.71" class="grey" /><path d="M53.08,75.45c0.96,1.25,0.96,2,0.96,3c0,7,0.15,8.8,0.15,16.8" class="grey" /><path d="M20,97.55c0.85,0.32,3.91,1.15,5.35,1.01c12.69-1.3,43.06-4.05,60.14-4.78c2.32-0.1,5.1,0.53,6.26,1.03" class="grey" /><path d="M28.75,10c0.04,0.56,0.09,1.46-0.08,2.27C27.64,17.06,21.77,27.57,13.75,34" class="stroke" stroke-dasharray="150"><animate attributeName="stroke-dashoffset" from="150" to="0" dur="1.8s" begin="0.0s" fill="freeze" /></path><path d="M27,21.64c4.41,0,20.05-2.53,25-2.53" class="stroke" stroke-dasharray="150"><set attributeName="opacity" to="0" dur="1.0s" /><animate attributeName="stroke-dashoffset" from="150" to="0" dur="1.8s" begin="1.0s" fill="freeze" /></path><path d="M34,24c2.38,1.9,6.16,7.8,6.75,10.75" class="stroke" stroke-dasharray="150"><set attributeName="opacity" to="0" dur="2.0s" /><animate attributeName="stroke-dashoffset" from="150" to="0" dur="1.8s" begin="2.0s" fill="freeze" /></path><path d="M62.5,9.25c0.04,0.47,0.17,1.21-0.08,1.87C60.58,16.01,55.49,22.99,48.75,29" class="stroke" stroke-dasharray="150"><set attributeName="opacity" to="0" dur="2.9s" /><animate attributeName="stroke-dashoffset" from="150" to="0" dur="1.8s" begin="2.9s" fill="freeze" /></path><path d="M61.92,20.02c5.11,0.22,24.02-3.29,29.76-3.04" class="stroke" stroke-dasharray="150"><set attributeName="opacity" to="0" dur="3.9s" /><animate attributeName="stroke-dashoffset" from="150" to="0" dur="1.8s" begin="3.9s" fill="freeze" /></path><path d="M75.99,21.25c0.03,0.29,0.07,0.75-0.06,1.16c-0.78,2.44-5.28,7.81-11.43,11.09" class="stroke" stroke-dasharray="150"><set attributeName="opacity" to="0" dur="4.9s" /><animate attributeName="stroke-dashoffset" from="150" to="0" dur="1.8s" begin="4.9s" fill="freeze" /></path><path d="M52.31,31.75c1.69,0.75,1.93,1.5,1.93,2.88c0,2.65-0.08,5.38-0.08,7.79" class="stroke" stroke-dasharray="150"><set attributeName="opacity" to="0" dur="5.800000000000001s" /><animate attributeName="stroke-dashoffset" from="150" to="0" dur="1.8s" begin="5.800000000000001s" fill="freeze" /></path><path d="M21.69,42.75c0,3.68-3.32,13.8-4.83,16.25" class="stroke" stroke-dasharray="150"><set attributeName="opacity" to="0" dur="6.700000000000001s" /><animate attributeName="stroke-dashoffset" from="150" to="0" dur="1.8s" begin="6.700000000000001s" fill="freeze" /></path><path d="M22.73,45.79C26.25,45.25,77.61,41,84.81,41c13.44,0,4.94,6.5,1.19,10.25" class="stroke" stroke-dasharray="150"><set attributeName="opacity" to="0" dur="7.600000000000001s" /><animate attributeName="stroke-dashoffset" from="150" to="0" dur="1.8s" begin="7.600000000000001s" fill="freeze" /></path><path d="M43.48,47.25c0.12,0.6,0.14,1.54-0.25,2.42c-3.39,7.71-9.73,14.58-22.24,22.08" class="stroke" stroke-dasharray="150"><set attributeName="opacity" to="0" dur="9.3s" /><animate attributeName="stroke-dashoffset" from="150" to="0" dur="1.8s" begin="9.3s" fill="freeze" /></path><path d="M59.47,44.16c1.19,0.91,2.13,1.99,2.2,3.39c0.16,3.14,0.08,6.1,0.08,8.57c0,6.12,4.75,6.96,15.31,6.96c5.65,0,11.43-0.84,13.45-1.86" class="stroke" stroke-dasharray="150"><set attributeName="opacity" to="0" dur="10.3s" /><animate attributeName="stroke-dashoffset" from="150" to="0" dur="1.8s" begin="10.3s" fill="freeze" /></path><path d="M30.23,74.23c0.95,0.57,3.05,0.77,4.04,0.7c8.97-0.66,29.8-3.03,40.88-3.4c1.5-0.05,2.86,0.22,4.09,0.71" class="stroke" stroke-dasharray="150"><set attributeName="opacity" to="0" dur="11.5s" /><animate attributeName="stroke-dashoffset" from="150" to="0" dur="1.8s" begin="11.5s" fill="freeze" /></path><path d="M53.08,75.45c0.96,1.25,0.96,2,0.96,3c0,7,0.15,8.8,0.15,16.8" class="stroke" stroke-dasharray="150"><set attributeName="opacity" to="0" dur="12.7s" /><animate attributeName="stroke-dashoffset" from="150" to="0" dur="1.8s" begin="12.7s" fill="freeze" /></path><path d="M20,97.55c0.85,0.32,3.91,1.15,5.35,1.01c12.69-1.3,43.06-4.05,60.14-4.78c2.32-0.1,5.1,0.53,6.26,1.03" class="stroke" stroke-dasharray="150"><set attributeName="opacity" to="0" dur="13.7s" /><animate attributeName="stroke-dashoffset" from="150" to="0" dur="1.8s" begin="13.7s" fill="freeze" /></path><text x="90" y="120" id="reset-kvg-07b9c">⟳</text><text x="70" y="120" id="pause-kvg-07b9c">◼</text><script type="text/javascript"><![CDATA[function RecurringTimer(e,t){var n,r,i=t;this.pause=function(){window.clearTimeout(n);i-=new Date-r};var s=function(){r=new Date;n=window.setTimeout(function(){i=t;s();e()},i)};this.clear=function(){window.clearTimeout(n);i=t;n=window.setTimeout(function(){i=t;s();e()},i)};this.resume=s;this.resume()}function invoketimer(){timer=new RecurringTimer(function(){svg.setCurrentTime(0)},16400.0)}var svg=document.getElementById("kvg-07b9c");var pause=document.getElementById("pause-kvg-07b9c");var reset=document.getElementById("reset-kvg-07b9c");var timer;invoketimer();reset.onclick=function(){svg.setCurrentTime(0);timer.clear();svg.unpauseAnimations();pause.innerHTML = "◼";};pause.onclick=function(){if(svg.animationsPaused()){svg.unpauseAnimations();timer.resume();pause.innerHTML="◼"}else{svg.pauseAnimations();timer.pause();pause.innerHTML="▶"}}]]></script></svg>