<svg id="kvg-07c2a-Kaisho" class="kanjivg" width="106" height="126" xmlns="http://www.w3.org/2000/svg" xmlns:xlink="http://www.w3.org/1999/xlink" xml:space="preserve" version="1.1" baseProfile="full"><defs><style type="text/css"><![CDATA[path.black{fill:none;stroke:black;stroke-width:5;stroke-linecap:round;stroke-linejoin:round;}path.grey{fill:none;stroke:#ddd;stroke-width:5;stroke-linecap:round;stroke-linejoin:round;}path.stroke{fill:none;stroke:black;stroke-width:5;stroke-linecap:round;stroke-linejoin:round;}rect{fill:none;stroke:#555;stroke-width:2;} text{font-size:16px;font-family:Segoe UI Symbol,Cambria Math,DejaVu Sans,Symbola,Quivira,STIX,Code2000;-webkit-touch-callout:none;cursor:pointer;-webkit-user-select:none;-khtml-user-select:none;-moz-user-select:none;-ms-user-select:none;user-select: none;}text:hover{color:#777;}#reset{font-weight:bold;}]]></style><marker id="markerStart" markerWidth="8" markerHeight="8" style="overflow:visible;"><circle cx="0" cy="0" r="1.5" style="stroke:none;fill:red;fill-opacity:0.5;"/></marker><marker id="markerEnd" style="overflow:visible;"><circle cx="0" cy="0" r="0.8" style="stroke:none;fill:blue;fill-opacity:0.5;"><animate attributeName="opacity" from="1" to="0" dur="3s" repeatCount="indefinite" /></circle></marker></defs><rect x="4" y="4" width="100" height="100" /><path d="M27,9.5c0.04,0.54,0.09,1.4-0.08,2.18c-1.01,4.59-6.77,14.66-14.67,20.82" class="grey" /><path d="M25.73,20.33c4.27,0,17.98-2.88,22.77-2.88" class="grey" /><path d="M32.52,21.33c1.85,1.31,4.77,5.38,5.23,7.42" class="grey" /><path d="M61.23,9.75c0.03,0.39,0.15,1.01-0.07,1.56C59.53,15.4,55,21.23,49,26.25" class="grey" /><path d="M59.98,17.65c5.55,0,25.91-3.56,32.15-3.56" class="grey" /><path d="M75.02,18.55c0.03,0.22,0.06,0.56-0.05,0.87c-0.63,1.83-4.26,5.86-9.22,8.33" class="grey" /><path d="M19.79,34.85c0.81,0.17,2.31,0.22,3.12,0.17c4.25-0.3,15.65-1.72,21.64-1.87c1.35-0.03,2.17,0.08,2.85,0.16" class="grey" /><path d="M24.09,35.19c0.28,0.26,0.51,1.42,0.5,1.98c-0.02,2.74,0.01,5.29,0.06,9.82" class="grey" /><path d="M11.75,47.87c0.92,0.1,3.74,0.71,4.86,0.62c6.83-0.56,23.9-2.24,29.85-2.65c1.57-0.11,2.16-0.04,3.78,0.16" class="grey" /><path d="M37.7,35.81c0.35,0.41,0.4,1.79-0.06,2.73C32.5,49,26.25,57.5,14.25,65.5" class="grey" /><path d="M35.9,48.45c0.28,0.5,0.5,1.1,0.52,1.88c0.08,3.47-0.21,9.74-0.21,11.33S36,65,38,63.5s7.5-6,10.25-8.25" class="grey" /><path d="M57.32,31.93c0.7,0.21,1.99,0.29,2.69,0.21c3.67-0.39,18.23-1.86,23.4-2.06c1.17-0.04,1.87,0.1,2.46,0.21" class="grey" /><path d="M61.1,33.42c0.25,0.28,0.39,1.46,0.34,2.02c-0.25,2.73-0.46,5.77-0.79,10.29" class="grey" /><path d="M54.5,45.38c1,0.08,4.07,0.62,5.29,0.54c7.43-0.49,21.63-2.42,28.1-2.78c1.7-0.09,2.34-0.03,4.11,0.14" class="grey" /><path d="M73.04,33.9c0.31,0.4,0.79,1.25,0.39,2.17c-4.68,10.68-9.93,18.18-21.18,26.68" class="grey" /><path d="M71.65,44.95c0.48,0.48,0.87,1.05,0.9,1.8c0.13,3.32,0.13,5.09,0.13,7.33c0,4.92,1.57,5.72,10.95,5.72c8.88,0,10.33-1.3,10.33-5.18" class="grey" /><path d="M30.5,69.23c0.16,0.52,1.28,2.35,1.35,3c0.84,7.79,3.31,18.35,3.84,28.05" class="grey" /><path d="M32.3,70.79c11.68-1.26,33.8-2.43,42.52-3.49c3.2-0.39,4.34,1.49,4.18,2.87c-0.6,5.07-1.75,19.33-3.75,28.08" class="grey" /><path d="M34.98,83.41c7.04-0.77,14.16-1.09,21.23-1.58c2.38-0.16,4.76-0.33,7.01-0.48" class="grey" /><path d="M36.4,96.12c8.77-0.42,25.78-1.47,37.9-2.18" class="grey" /><path d="M27,9.5c0.04,0.54,0.09,1.4-0.08,2.18c-1.01,4.59-6.77,14.66-14.67,20.82" class="stroke" stroke-dasharray="150"><animate attributeName="stroke-dashoffset" from="150" to="0" dur="1.8s" begin="0.0s" fill="freeze" /></path><path d="M25.73,20.33c4.27,0,17.98-2.88,22.77-2.88" class="stroke" stroke-dasharray="150"><set attributeName="opacity" to="0" dur="1.0s" /><animate attributeName="stroke-dashoffset" from="150" to="0" dur="1.8s" begin="1.0s" fill="freeze" /></path><path d="M32.52,21.33c1.85,1.31,4.77,5.38,5.23,7.42" class="stroke" stroke-dasharray="150"><set attributeName="opacity" to="0" dur="2.0s" /><animate attributeName="stroke-dashoffset" from="150" to="0" dur="1.8s" begin="2.0s" fill="freeze" /></path><path d="M61.23,9.75c0.03,0.39,0.15,1.01-0.07,1.56C59.53,15.4,55,21.23,49,26.25" class="stroke" stroke-dasharray="150"><set attributeName="opacity" to="0" dur="2.9s" /><animate attributeName="stroke-dashoffset" from="150" to="0" dur="1.8s" begin="2.9s" fill="freeze" /></path><path d="M59.98,17.65c5.55,0,25.91-3.56,32.15-3.56" class="stroke" stroke-dasharray="150"><set attributeName="opacity" to="0" dur="3.9s" /><animate attributeName="stroke-dashoffset" from="150" to="0" dur="1.8s" begin="3.9s" fill="freeze" /></path><path d="M75.02,18.55c0.03,0.22,0.06,0.56-0.05,0.87c-0.63,1.83-4.26,5.86-9.22,8.33" class="stroke" stroke-dasharray="150"><set attributeName="opacity" to="0" dur="4.9s" /><animate attributeName="stroke-dashoffset" from="150" to="0" dur="1.8s" begin="4.9s" fill="freeze" /></path><path d="M19.79,34.85c0.81,0.17,2.31,0.22,3.12,0.17c4.25-0.3,15.65-1.72,21.64-1.87c1.35-0.03,2.17,0.08,2.85,0.16" class="stroke" stroke-dasharray="150"><set attributeName="opacity" to="0" dur="5.800000000000001s" /><animate attributeName="stroke-dashoffset" from="150" to="0" dur="1.8s" begin="5.800000000000001s" fill="freeze" /></path><path d="M24.09,35.19c0.28,0.26,0.51,1.42,0.5,1.98c-0.02,2.74,0.01,5.29,0.06,9.82" class="stroke" stroke-dasharray="150"><set attributeName="opacity" to="0" dur="6.800000000000001s" /><animate attributeName="stroke-dashoffset" from="150" to="0" dur="1.8s" begin="6.800000000000001s" fill="freeze" /></path><path d="M11.75,47.87c0.92,0.1,3.74,0.71,4.86,0.62c6.83-0.56,23.9-2.24,29.85-2.65c1.57-0.11,2.16-0.04,3.78,0.16" class="stroke" stroke-dasharray="150"><set attributeName="opacity" to="0" dur="7.700000000000001s" /><animate attributeName="stroke-dashoffset" from="150" to="0" dur="1.8s" begin="7.700000000000001s" fill="freeze" /></path><path d="M37.7,35.81c0.35,0.41,0.4,1.79-0.06,2.73C32.5,49,26.25,57.5,14.25,65.5" class="stroke" stroke-dasharray="150"><set attributeName="opacity" to="0" dur="8.700000000000001s" /><animate attributeName="stroke-dashoffset" from="150" to="0" dur="1.8s" begin="8.700000000000001s" fill="freeze" /></path><path d="M35.9,48.45c0.28,0.5,0.5,1.1,0.52,1.88c0.08,3.47-0.21,9.74-0.21,11.33S36,65,38,63.5s7.5-6,10.25-8.25" class="stroke" stroke-dasharray="150"><set attributeName="opacity" to="0" dur="9.700000000000001s" /><animate attributeName="stroke-dashoffset" from="150" to="0" dur="1.8s" begin="9.700000000000001s" fill="freeze" /></path><path d="M57.32,31.93c0.7,0.21,1.99,0.29,2.69,0.21c3.67-0.39,18.23-1.86,23.4-2.06c1.17-0.04,1.87,0.1,2.46,0.21" class="stroke" stroke-dasharray="150"><set attributeName="opacity" to="0" dur="10.700000000000001s" /><animate attributeName="stroke-dashoffset" from="150" to="0" dur="1.8s" begin="10.700000000000001s" fill="freeze" /></path><path d="M61.1,33.42c0.25,0.28,0.39,1.46,0.34,2.02c-0.25,2.73-0.46,5.77-0.79,10.29" class="stroke" stroke-dasharray="150"><set attributeName="opacity" to="0" dur="11.700000000000001s" /><animate attributeName="stroke-dashoffset" from="150" to="0" dur="1.8s" begin="11.700000000000001s" fill="freeze" /></path><path d="M54.5,45.38c1,0.08,4.07,0.62,5.29,0.54c7.43-0.49,21.63-2.42,28.1-2.78c1.7-0.09,2.34-0.03,4.11,0.14" class="stroke" stroke-dasharray="150"><set attributeName="opacity" to="0" dur="12.600000000000001s" /><animate attributeName="stroke-dashoffset" from="150" to="0" dur="1.8s" begin="12.600000000000001s" fill="freeze" /></path><path d="M73.04,33.9c0.31,0.4,0.79,1.25,0.39,2.17c-4.68,10.68-9.93,18.18-21.18,26.68" class="stroke" stroke-dasharray="150"><set attributeName="opacity" to="0" dur="13.600000000000001s" /><animate attributeName="stroke-dashoffset" from="150" to="0" dur="1.8s" begin="13.600000000000001s" fill="freeze" /></path><path d="M71.65,44.95c0.48,0.48,0.87,1.05,0.9,1.8c0.13,3.32,0.13,5.09,0.13,7.33c0,4.92,1.57,5.72,10.95,5.72c8.88,0,10.33-1.3,10.33-5.18" class="stroke" stroke-dasharray="150"><set attributeName="opacity" to="0" dur="14.600000000000001s" /><animate attributeName="stroke-dashoffset" from="150" to="0" dur="1.8s" begin="14.600000000000001s" fill="freeze" /></path><path d="M30.5,69.23c0.16,0.52,1.28,2.35,1.35,3c0.84,7.79,3.31,18.35,3.84,28.05" class="stroke" stroke-dasharray="150"><set attributeName="opacity" to="0" dur="15.600000000000001s" /><animate attributeName="stroke-dashoffset" from="150" to="0" dur="1.8s" begin="15.600000000000001s" fill="freeze" /></path><path d="M32.3,70.79c11.68-1.26,33.8-2.43,42.52-3.49c3.2-0.39,4.34,1.49,4.18,2.87c-0.6,5.07-1.75,19.33-3.75,28.08" class="stroke" stroke-dasharray="150"><set attributeName="opacity" to="0" dur="16.6s" /><animate attributeName="stroke-dashoffset" from="150" to="0" dur="1.8s" begin="16.6s" fill="freeze" /></path><path d="M34.98,83.41c7.04-0.77,14.16-1.09,21.23-1.58c2.38-0.16,4.76-0.33,7.01-0.48" class="stroke" stroke-dasharray="150"><set attributeName="opacity" to="0" dur="18.3s" /><animate attributeName="stroke-dashoffset" from="150" to="0" dur="1.8s" begin="18.3s" fill="freeze" /></path><path d="M36.4,96.12c8.77-0.42,25.78-1.47,37.9-2.18" class="stroke" stroke-dasharray="150"><set attributeName="opacity" to="0" dur="19.3s" /><animate attributeName="stroke-dashoffset" from="150" to="0" dur="1.8s" begin="19.3s" fill="freeze" /></path><text x="90" y="120" id="reset-kvg-07c2a-Kaisho">⟳</text><text x="70" y="120" id="pause-kvg-07c2a-Kaisho">◼</text><script type="text/javascript"><![CDATA[function RecurringTimer(e,t){var n,r,i=t;this.pause=function(){window.clearTimeout(n);i-=new Date-r};var s=function(){r=new Date;n=window.setTimeout(function(){i=t;s();e()},i)};this.clear=function(){window.clearTimeout(n);i=t;n=window.setTimeout(function(){i=t;s();e()},i)};this.resume=s;this.resume()}function invoketimer(){timer=new RecurringTimer(function(){svg.setCurrentTime(0)},21300.0)}var svg=document.getElementById("kvg-07c2a-Kaisho");var pause=document.getElementById("pause-kvg-07c2a-Kaisho");var reset=document.getElementById("reset-kvg-07c2a-Kaisho");var timer;invoketimer();reset.onclick=function(){svg.setCurrentTime(0);timer.clear();svg.unpauseAnimations();pause.innerHTML = "◼";};pause.onclick=function(){if(svg.animationsPaused()){svg.unpauseAnimations();timer.resume();pause.innerHTML="◼"}else{svg.pauseAnimations();timer.pause();pause.innerHTML="▶"}}]]></script></svg>