<svg id="kvg-07c40-Kaisho" class="kanjivg" width="106" height="126" xmlns="http://www.w3.org/2000/svg" xmlns:xlink="http://www.w3.org/1999/xlink" xml:space="preserve" version="1.1" baseProfile="full"><defs><style type="text/css"><![CDATA[path.black{fill:none;stroke:black;stroke-width:5;stroke-linecap:round;stroke-linejoin:round;}path.grey{fill:none;stroke:#ddd;stroke-width:5;stroke-linecap:round;stroke-linejoin:round;}path.stroke{fill:none;stroke:black;stroke-width:5;stroke-linecap:round;stroke-linejoin:round;}rect{fill:none;stroke:#555;stroke-width:2;} text{font-size:16px;font-family:Segoe UI Symbol,Cambria Math,DejaVu Sans,Symbola,Quivira,STIX,Code2000;-webkit-touch-callout:none;cursor:pointer;-webkit-user-select:none;-khtml-user-select:none;-moz-user-select:none;-ms-user-select:none;user-select: none;}text:hover{color:#777;}#reset{font-weight:bold;}]]></style><marker id="markerStart" markerWidth="8" markerHeight="8" style="overflow:visible;"><circle cx="0" cy="0" r="1.5" style="stroke:none;fill:red;fill-opacity:0.5;"/></marker><marker id="markerEnd" style="overflow:visible;"><circle cx="0" cy="0" r="0.8" style="stroke:none;fill:blue;fill-opacity:0.5;"><animate attributeName="opacity" from="1" to="0" dur="3s" repeatCount="indefinite" /></circle></marker></defs><rect x="4" y="4" width="100" height="100" /><path d="M27,11.25c0.04,0.51,0.08,1.32-0.08,2.06C25.99,17.65,20.61,27.17,13.25,33" class="grey" /><path d="M27.22,21.19c3.93,0.19,18.69-2.81,23.1-2.6" class="grey" /><path d="M35.75,23c2.05,1.8,5.3,7.41,5.81,10.22" class="grey" /><path d="M60.74,9.75c0.03,0.44,0.11,1.15-0.05,1.77c-1.27,4.64-4.79,11.27-9.44,16.98" class="grey" /><path d="M60.48,20.11c5.23,0,25.9-3.61,31.77-3.61" class="grey" /><path d="M76.27,21.75c0.02,0.18,0.04,0.47-0.04,0.73c-0.44,1.55-3,4.94-6.49,7.02" class="grey" /><path d="M14.75,50.27c1.82,0.21,1.09,0.21,3.06,0.21c3.73,0,15.82-1.63,23.85-2.63" class="grey" /><path d="M28.69,34.58c0.44,0.73,1.52,1.98,1.59,4.39c0.36,11.57-0.23,47.31-0.23,51.25c0,12.03-5.05,5.03-6.49,2.99" class="grey" /><path d="M13.75,73.82c1,1.18,2.31,1.86,4.94,0.5c1.55-0.8,16-8.96,22.56-12.82" class="grey" /><path d="M60.76,32.5c0.03,0.17,0.1,0.5-0.05,0.69c-1.9,2.44-4.72,4.68-9.69,6.65" class="grey" /><path d="M48.25,39.21c0.38,0.31,1.11,1.92,1.18,2.54c0.08,0.63-0.03,15.88-0.12,17.44c-0.08,1.42,0.2,2.66,1.66,1.38c2.63-2.3,10.73-8.49,13.5-10.6" class="grey" /><path d="M58.7,42.83c4.04,2.82,6.61,7.01,8.16,11.12" class="grey" /><path d="M70.49,37.05c0.73,0.32,2.04,0.28,2.68,0.17c5.22-0.9,14.08-3.14,16.97-3.48c1.88-0.22,3.35,1.37,3.25,2.88c-0.28,4-4.44,16.9-7.01,21.49c-1.86,3.33-3.95,1.77-5.35-0.4" class="grey" /><path d="M79.68,38.63c0.04,0.49,0.12,1.29-0.08,1.98c-2.12,7.48-4.02,12.83-12.86,20.14" class="grey" /><path d="M49.59,69.77c0.32,0.5,0.86,1.27,1.03,1.88c1.44,5.08,2.91,17.74,3.76,27.09" class="grey" /><path d="M51.3,71.6c10.06-1.2,27.04-3.28,33.66-3.75c2.43-0.17,3.67,0.76,3.54,3.26c-0.26,4.75-2.33,16.1-3.79,24.53" class="grey" /><path d="M67.79,70.65c0.48,0.43,0.88,1.3,0.88,2.43c-0.02,5.79,0.16,18.82,0.16,20.71" class="grey" /><path d="M53.25,83.84c7.47-0.92,14.97-1.64,22.46-2.39c0.91-0.09,1.79-0.18,2.63-0.26" class="grey" /><path d="M54.39,96.6c7.57-0.79,21.18-2.83,29.93-2.99" class="grey" /><path d="M27,11.25c0.04,0.51,0.08,1.32-0.08,2.06C25.99,17.65,20.61,27.17,13.25,33" class="stroke" stroke-dasharray="150"><animate attributeName="stroke-dashoffset" from="150" to="0" dur="1.8s" begin="0.0s" fill="freeze" /></path><path d="M27.22,21.19c3.93,0.19,18.69-2.81,23.1-2.6" class="stroke" stroke-dasharray="150"><set attributeName="opacity" to="0" dur="1.0s" /><animate attributeName="stroke-dashoffset" from="150" to="0" dur="1.8s" begin="1.0s" fill="freeze" /></path><path d="M35.75,23c2.05,1.8,5.3,7.41,5.81,10.22" class="stroke" stroke-dasharray="150"><set attributeName="opacity" to="0" dur="2.0s" /><animate attributeName="stroke-dashoffset" from="150" to="0" dur="1.8s" begin="2.0s" fill="freeze" /></path><path d="M60.74,9.75c0.03,0.44,0.11,1.15-0.05,1.77c-1.27,4.64-4.79,11.27-9.44,16.98" class="stroke" stroke-dasharray="150"><set attributeName="opacity" to="0" dur="2.9s" /><animate attributeName="stroke-dashoffset" from="150" to="0" dur="1.8s" begin="2.9s" fill="freeze" /></path><path d="M60.48,20.11c5.23,0,25.9-3.61,31.77-3.61" class="stroke" stroke-dasharray="150"><set attributeName="opacity" to="0" dur="3.9s" /><animate attributeName="stroke-dashoffset" from="150" to="0" dur="1.8s" begin="3.9s" fill="freeze" /></path><path d="M76.27,21.75c0.02,0.18,0.04,0.47-0.04,0.73c-0.44,1.55-3,4.94-6.49,7.02" class="stroke" stroke-dasharray="150"><set attributeName="opacity" to="0" dur="4.9s" /><animate attributeName="stroke-dashoffset" from="150" to="0" dur="1.8s" begin="4.9s" fill="freeze" /></path><path d="M14.75,50.27c1.82,0.21,1.09,0.21,3.06,0.21c3.73,0,15.82-1.63,23.85-2.63" class="stroke" stroke-dasharray="150"><set attributeName="opacity" to="0" dur="5.800000000000001s" /><animate attributeName="stroke-dashoffset" from="150" to="0" dur="1.8s" begin="5.800000000000001s" fill="freeze" /></path><path d="M28.69,34.58c0.44,0.73,1.52,1.98,1.59,4.39c0.36,11.57-0.23,47.31-0.23,51.25c0,12.03-5.05,5.03-6.49,2.99" class="stroke" stroke-dasharray="150"><set attributeName="opacity" to="0" dur="6.800000000000001s" /><animate attributeName="stroke-dashoffset" from="150" to="0" dur="1.8s" begin="6.800000000000001s" fill="freeze" /></path><path d="M13.75,73.82c1,1.18,2.31,1.86,4.94,0.5c1.55-0.8,16-8.96,22.56-12.82" class="stroke" stroke-dasharray="150"><set attributeName="opacity" to="0" dur="8.3s" /><animate attributeName="stroke-dashoffset" from="150" to="0" dur="1.8s" begin="8.3s" fill="freeze" /></path><path d="M60.76,32.5c0.03,0.17,0.1,0.5-0.05,0.69c-1.9,2.44-4.72,4.68-9.69,6.65" class="stroke" stroke-dasharray="150"><set attributeName="opacity" to="0" dur="9.3s" /><animate attributeName="stroke-dashoffset" from="150" to="0" dur="1.8s" begin="9.3s" fill="freeze" /></path><path d="M48.25,39.21c0.38,0.31,1.11,1.92,1.18,2.54c0.08,0.63-0.03,15.88-0.12,17.44c-0.08,1.42,0.2,2.66,1.66,1.38c2.63-2.3,10.73-8.49,13.5-10.6" class="stroke" stroke-dasharray="150"><set attributeName="opacity" to="0" dur="10.200000000000001s" /><animate attributeName="stroke-dashoffset" from="150" to="0" dur="1.8s" begin="10.200000000000001s" fill="freeze" /></path><path d="M58.7,42.83c4.04,2.82,6.61,7.01,8.16,11.12" class="stroke" stroke-dasharray="150"><set attributeName="opacity" to="0" dur="11.3s" /><animate attributeName="stroke-dashoffset" from="150" to="0" dur="1.8s" begin="11.3s" fill="freeze" /></path><path d="M70.49,37.05c0.73,0.32,2.04,0.28,2.68,0.17c5.22-0.9,14.08-3.14,16.97-3.48c1.88-0.22,3.35,1.37,3.25,2.88c-0.28,4-4.44,16.9-7.01,21.49c-1.86,3.33-3.95,1.77-5.35-0.4" class="stroke" stroke-dasharray="150"><set attributeName="opacity" to="0" dur="12.200000000000001s" /><animate attributeName="stroke-dashoffset" from="150" to="0" dur="1.8s" begin="12.200000000000001s" fill="freeze" /></path><path d="M79.68,38.63c0.04,0.49,0.12,1.29-0.08,1.98c-2.12,7.48-4.02,12.83-12.86,20.14" class="stroke" stroke-dasharray="150"><set attributeName="opacity" to="0" dur="13.500000000000002s" /><animate attributeName="stroke-dashoffset" from="150" to="0" dur="1.8s" begin="13.500000000000002s" fill="freeze" /></path><path d="M49.59,69.77c0.32,0.5,0.86,1.27,1.03,1.88c1.44,5.08,2.91,17.74,3.76,27.09" class="stroke" stroke-dasharray="150"><set attributeName="opacity" to="0" dur="14.500000000000002s" /><animate attributeName="stroke-dashoffset" from="150" to="0" dur="1.8s" begin="14.500000000000002s" fill="freeze" /></path><path d="M51.3,71.6c10.06-1.2,27.04-3.28,33.66-3.75c2.43-0.17,3.67,0.76,3.54,3.26c-0.26,4.75-2.33,16.1-3.79,24.53" class="stroke" stroke-dasharray="150"><set attributeName="opacity" to="0" dur="15.500000000000002s" /><animate attributeName="stroke-dashoffset" from="150" to="0" dur="1.8s" begin="15.500000000000002s" fill="freeze" /></path><path d="M67.79,70.65c0.48,0.43,0.88,1.3,0.88,2.43c-0.02,5.79,0.16,18.82,0.16,20.71" class="stroke" stroke-dasharray="150"><set attributeName="opacity" to="0" dur="17.0s" /><animate attributeName="stroke-dashoffset" from="150" to="0" dur="1.8s" begin="17.0s" fill="freeze" /></path><path d="M53.25,83.84c7.47-0.92,14.97-1.64,22.46-2.39c0.91-0.09,1.79-0.18,2.63-0.26" class="stroke" stroke-dasharray="150"><set attributeName="opacity" to="0" dur="18.0s" /><animate attributeName="stroke-dashoffset" from="150" to="0" dur="1.8s" begin="18.0s" fill="freeze" /></path><path d="M54.39,96.6c7.57-0.79,21.18-2.83,29.93-2.99" class="stroke" stroke-dasharray="150"><set attributeName="opacity" to="0" dur="19.0s" /><animate attributeName="stroke-dashoffset" from="150" to="0" dur="1.8s" begin="19.0s" fill="freeze" /></path><text x="90" y="120" id="reset-kvg-07c40-Kaisho">⟳</text><text x="70" y="120" id="pause-kvg-07c40-Kaisho">◼</text><script type="text/javascript"><![CDATA[function RecurringTimer(e,t){var n,r,i=t;this.pause=function(){window.clearTimeout(n);i-=new Date-r};var s=function(){r=new Date;n=window.setTimeout(function(){i=t;s();e()},i)};this.clear=function(){window.clearTimeout(n);i=t;n=window.setTimeout(function(){i=t;s();e()},i)};this.resume=s;this.resume()}function invoketimer(){timer=new RecurringTimer(function(){svg.setCurrentTime(0)},21000.0)}var svg=document.getElementById("kvg-07c40-Kaisho");var pause=document.getElementById("pause-kvg-07c40-Kaisho");var reset=document.getElementById("reset-kvg-07c40-Kaisho");var timer;invoketimer();reset.onclick=function(){svg.setCurrentTime(0);timer.clear();svg.unpauseAnimations();pause.innerHTML = "◼";};pause.onclick=function(){if(svg.animationsPaused()){svg.unpauseAnimations();timer.resume();pause.innerHTML="◼"}else{svg.pauseAnimations();timer.pause();pause.innerHTML="▶"}}]]></script></svg>