<svg id="kvg-07c98" class="kanjivg" width="106" height="126" xmlns="http://www.w3.org/2000/svg" xmlns:xlink="http://www.w3.org/1999/xlink" xml:space="preserve" version="1.1" baseProfile="full"><defs><style type="text/css"><![CDATA[path.black{fill:none;stroke:black;stroke-width:5;stroke-linecap:round;stroke-linejoin:round;}path.grey{fill:none;stroke:#ddd;stroke-width:5;stroke-linecap:round;stroke-linejoin:round;}path.stroke{fill:none;stroke:black;stroke-width:5;stroke-linecap:round;stroke-linejoin:round;}rect{fill:none;stroke:#555;stroke-width:2;} text{font-size:16px;font-family:Segoe UI Symbol,Cambria Math,DejaVu Sans,Symbola,Quivira,STIX,Code2000;-webkit-touch-callout:none;cursor:pointer;-webkit-user-select:none;-khtml-user-select:none;-moz-user-select:none;-ms-user-select:none;user-select: none;}text:hover{color:#777;}#reset{font-weight:bold;}]]></style><marker id="markerStart" markerWidth="8" markerHeight="8" style="overflow:visible;"><circle cx="0" cy="0" r="1.5" style="stroke:none;fill:red;fill-opacity:0.5;"/></marker><marker id="markerEnd" style="overflow:visible;"><circle cx="0" cy="0" r="0.8" style="stroke:none;fill:blue;fill-opacity:0.5;"><animate attributeName="opacity" from="1" to="0" dur="3s" repeatCount="indefinite" /></circle></marker></defs><rect x="4" y="4" width="100" height="100" /><path d="M18.15,26.29c2.88,2.1,7.23,8.05,7.96,11.33" class="grey" /><path d="M50.77,21.61c0.13,0.8,0.01,1.55-0.35,2.26c-1.47,3.85-3.82,7.49-7.64,12.31" class="grey" /><path d="M15.16,46.2c1.76,0.7,4.31,0.39,6.1,0.04c6.53-1.29,18.43-3.25,25.24-4.2c1.71-0.24,4.04-0.51,5.75-0.1" class="grey" /><path d="M35.37,14.46c1.02,1.02,1.08,2.16,1.08,3.64c0,0.7,0.05,51.41,0.05,70.51c0,4.31,0,7.02-0.01,7.17" class="grey" /><path d="M35.1,45.37c0,1.13-0.42,2.58-1.43,4.43c-5.42,9.96-11.8,19.58-19.94,29.14" class="grey" /><path d="M39.14,52.78c2.98,2.35,7.36,7.35,9.11,11.92" class="grey" /><path d="M70.81,16.63c1.34,1.34,1.51,2.87,1.51,4.5c0,0.91,0,33.87,0,47" class="grey" /><path d="M73.25,43.75c7.27-0.75,15.35-2,16.36-2c1.01,0,2.83,0,3.64,0.25" class="grey" /><path d="M54.91,69.3c0.9,0.9,1.29,1.79,1.41,2.93c1.05,5.27,2.14,11.86,3,18.51c0.23,1.83,0.45,3.58,0.64,5.17" class="grey" /><path d="M56.96,70.44c10.68-1.17,24.61-2.1,31.07-2.75c3.07-0.3,5.18,0.89,4.53,4.2c-1.08,5.48-2.42,10.9-3.89,17.87" class="grey" /><path d="M60.86,92.41c6.21-0.33,15.6-0.97,24.67-1.44c2.1-0.11,4.12-0.2,6.01-0.25" class="grey" /><path d="M18.15,26.29c2.88,2.1,7.23,8.05,7.96,11.33" class="stroke" stroke-dasharray="150"><animate attributeName="stroke-dashoffset" from="150" to="0" dur="1.8s" begin="0.0s" fill="freeze" /></path><path d="M50.77,21.61c0.13,0.8,0.01,1.55-0.35,2.26c-1.47,3.85-3.82,7.49-7.64,12.31" class="stroke" stroke-dasharray="150"><set attributeName="opacity" to="0" dur="0.9s" /><animate attributeName="stroke-dashoffset" from="150" to="0" dur="1.8s" begin="0.9s" fill="freeze" /></path><path d="M15.16,46.2c1.76,0.7,4.31,0.39,6.1,0.04c6.53-1.29,18.43-3.25,25.24-4.2c1.71-0.24,4.04-0.51,5.75-0.1" class="stroke" stroke-dasharray="150"><set attributeName="opacity" to="0" dur="1.8s" /><animate attributeName="stroke-dashoffset" from="150" to="0" dur="1.8s" begin="1.8s" fill="freeze" /></path><path d="M35.37,14.46c1.02,1.02,1.08,2.16,1.08,3.64c0,0.7,0.05,51.41,0.05,70.51c0,4.31,0,7.02-0.01,7.17" class="stroke" stroke-dasharray="150"><set attributeName="opacity" to="0" dur="2.8s" /><animate attributeName="stroke-dashoffset" from="150" to="0" dur="1.8s" begin="2.8s" fill="freeze" /></path><path d="M35.1,45.37c0,1.13-0.42,2.58-1.43,4.43c-5.42,9.96-11.8,19.58-19.94,29.14" class="stroke" stroke-dasharray="150"><set attributeName="opacity" to="0" dur="4.5s" /><animate attributeName="stroke-dashoffset" from="150" to="0" dur="1.8s" begin="4.5s" fill="freeze" /></path><path d="M39.14,52.78c2.98,2.35,7.36,7.35,9.11,11.92" class="stroke" stroke-dasharray="150"><set attributeName="opacity" to="0" dur="5.6s" /><animate attributeName="stroke-dashoffset" from="150" to="0" dur="1.8s" begin="5.6s" fill="freeze" /></path><path d="M70.81,16.63c1.34,1.34,1.51,2.87,1.51,4.5c0,0.91,0,33.87,0,47" class="stroke" stroke-dasharray="150"><set attributeName="opacity" to="0" dur="6.5s" /><animate attributeName="stroke-dashoffset" from="150" to="0" dur="1.8s" begin="6.5s" fill="freeze" /></path><path d="M73.25,43.75c7.27-0.75,15.35-2,16.36-2c1.01,0,2.83,0,3.64,0.25" class="stroke" stroke-dasharray="150"><set attributeName="opacity" to="0" dur="7.8s" /><animate attributeName="stroke-dashoffset" from="150" to="0" dur="1.8s" begin="7.8s" fill="freeze" /></path><path d="M54.91,69.3c0.9,0.9,1.29,1.79,1.41,2.93c1.05,5.27,2.14,11.86,3,18.51c0.23,1.83,0.45,3.58,0.64,5.17" class="stroke" stroke-dasharray="150"><set attributeName="opacity" to="0" dur="8.8s" /><animate attributeName="stroke-dashoffset" from="150" to="0" dur="1.8s" begin="8.8s" fill="freeze" /></path><path d="M56.96,70.44c10.68-1.17,24.61-2.1,31.07-2.75c3.07-0.3,5.18,0.89,4.53,4.2c-1.08,5.48-2.42,10.9-3.89,17.87" class="stroke" stroke-dasharray="150"><set attributeName="opacity" to="0" dur="9.8s" /><animate attributeName="stroke-dashoffset" from="150" to="0" dur="1.8s" begin="9.8s" fill="freeze" /></path><path d="M60.86,92.41c6.21-0.33,15.6-0.97,24.67-1.44c2.1-0.11,4.12-0.2,6.01-0.25" class="stroke" stroke-dasharray="150"><set attributeName="opacity" to="0" dur="11.200000000000001s" /><animate attributeName="stroke-dashoffset" from="150" to="0" dur="1.8s" begin="11.200000000000001s" fill="freeze" /></path><text x="90" y="120" id="reset-kvg-07c98">⟳</text><text x="70" y="120" id="pause-kvg-07c98">◼</text><script type="text/javascript"><![CDATA[function RecurringTimer(e,t){var n,r,i=t;this.pause=function(){window.clearTimeout(n);i-=new Date-r};var s=function(){r=new Date;n=window.setTimeout(function(){i=t;s();e()},i)};this.clear=function(){window.clearTimeout(n);i=t;n=window.setTimeout(function(){i=t;s();e()},i)};this.resume=s;this.resume()}function invoketimer(){timer=new RecurringTimer(function(){svg.setCurrentTime(0)},13200.000000000002)}var svg=document.getElementById("kvg-07c98");var pause=document.getElementById("pause-kvg-07c98");var reset=document.getElementById("reset-kvg-07c98");var timer;invoketimer();reset.onclick=function(){svg.setCurrentTime(0);timer.clear();svg.unpauseAnimations();pause.innerHTML = "◼";};pause.onclick=function(){if(svg.animationsPaused()){svg.unpauseAnimations();timer.resume();pause.innerHTML="◼"}else{svg.pauseAnimations();timer.pause();pause.innerHTML="▶"}}]]></script></svg>