<svg id="kvg-07cde" class="kanjivg" width="106" height="126" xmlns="http://www.w3.org/2000/svg" xmlns:xlink="http://www.w3.org/1999/xlink" xml:space="preserve" version="1.1" baseProfile="full"><defs><style type="text/css"><![CDATA[path.black{fill:none;stroke:black;stroke-width:5;stroke-linecap:round;stroke-linejoin:round;}path.grey{fill:none;stroke:#ddd;stroke-width:5;stroke-linecap:round;stroke-linejoin:round;}path.stroke{fill:none;stroke:black;stroke-width:5;stroke-linecap:round;stroke-linejoin:round;}rect{fill:none;stroke:#555;stroke-width:2;} text{font-size:16px;font-family:Segoe UI Symbol,Cambria Math,DejaVu Sans,Symbola,Quivira,STIX,Code2000;-webkit-touch-callout:none;cursor:pointer;-webkit-user-select:none;-khtml-user-select:none;-moz-user-select:none;-ms-user-select:none;user-select: none;}text:hover{color:#777;}#reset{font-weight:bold;}]]></style><marker id="markerStart" markerWidth="8" markerHeight="8" style="overflow:visible;"><circle cx="0" cy="0" r="1.5" style="stroke:none;fill:red;fill-opacity:0.5;"/></marker><marker id="markerEnd" style="overflow:visible;"><circle cx="0" cy="0" r="0.8" style="stroke:none;fill:blue;fill-opacity:0.5;"><animate attributeName="opacity" from="1" to="0" dur="3s" repeatCount="indefinite" /></circle></marker></defs><rect x="4" y="4" width="100" height="100" /><path d="M32.54,11.07c2.61,1.4,6.56,5.37,7.21,7.55" class="grey" /><path d="M75.7,10.11c0.03,0.21,0.06,0.54-0.06,0.84c-0.71,1.78-4.76,5.68-10.3,8.07" class="grey" /><path d="M20.19,24.63c0.77,0.26,2.83,0.68,4.88,0.77c5.65,0.26,50.42-3.4,60.13-3.67c2.05-0.06,2.57,0.24,3.85,0.5" class="grey" /><path d="M52.66,10c1.06,0.42,1.69,1.9,1.9,2.75c0.21,0.84,0,18.97-0.21,24.25" class="grey" /><path d="M51.16,24.02c-6.03,6.62-20.67,15.92-34.23,19.74" class="grey" /><path d="M57.17,23.79c4.7,1.93,25.33,11.07,30.45,12.97c1.73,0.64,3.22,0.92,4.95,1.1" class="grey" /><path d="M31.6,42.55c0.34,0.34,0.34,0.57,0.52,0.99C33.62,47,34.88,54.63,35.75,61" class="grey" /><path d="M33.14,43.72c13.61-1.22,34-2.91,42.85-3.24c3.25-0.12,3.09,1.82,2.9,2.77c-1.13,5.5-2.13,10.75-3.69,15.39" class="grey" /><path d="M53.03,42.62c0.52,0.45,1.33,1.26,1.33,2.39c0,4.52-0.24,8.4-0.24,13.41" class="grey" /><path d="M35.25,51.26c3.86-0.17,37.78-2.14,40.97-2.14" class="grey" /><path d="M36.42,59.46c10.59-0.88,30.65-1.52,38.83-1.83" class="grey" /><path d="M30.35,71.3c1.01,0.2,2.86,0.3,3.86,0.2c4.07-0.4,34.33-2.7,43.9-2.7c1.68,0,2.68,0.1,3.52,0.2" class="grey" /><path d="M42.47,64.38c0.71,0.2,1.21,0.9,1.27,1.31C44.5,71,45,75.25,45.99,81.73" class="grey" /><path d="M64.49,61.28c0.76,0.72,1.48,2.22,1.44,2.78C65.35,71.6,64,76.5,63.11,80.27" class="grey" /><path d="M19.23,82.76c1.5,0.3,4.26,0.38,5.75,0.3c9.81-0.54,51.75-2.7,64.29-2.96c2.5-0.05,4,0.14,5.25,0.29" class="grey" /><path d="M44.16,88.34c0.05,0.29,0.11,0.74-0.1,1.14c-1.24,2.42-9.4,7.08-18.12,10.96" class="grey" /><path d="M66.09,87.08c6.03,2.32,15.57,9.53,17.08,13.14" class="grey" /><path d="M32.54,11.07c2.61,1.4,6.56,5.37,7.21,7.55" class="stroke" stroke-dasharray="150"><animate attributeName="stroke-dashoffset" from="150" to="0" dur="1.8s" begin="0.0s" fill="freeze" /></path><path d="M75.7,10.11c0.03,0.21,0.06,0.54-0.06,0.84c-0.71,1.78-4.76,5.68-10.3,8.07" class="stroke" stroke-dasharray="150"><set attributeName="opacity" to="0" dur="0.9s" /><animate attributeName="stroke-dashoffset" from="150" to="0" dur="1.8s" begin="0.9s" fill="freeze" /></path><path d="M20.19,24.63c0.77,0.26,2.83,0.68,4.88,0.77c5.65,0.26,50.42-3.4,60.13-3.67c2.05-0.06,2.57,0.24,3.85,0.5" class="stroke" stroke-dasharray="150"><set attributeName="opacity" to="0" dur="1.8s" /><animate attributeName="stroke-dashoffset" from="150" to="0" dur="1.8s" begin="1.8s" fill="freeze" /></path><path d="M52.66,10c1.06,0.42,1.69,1.9,1.9,2.75c0.21,0.84,0,18.97-0.21,24.25" class="stroke" stroke-dasharray="150"><set attributeName="opacity" to="0" dur="3.3s" /><animate attributeName="stroke-dashoffset" from="150" to="0" dur="1.8s" begin="3.3s" fill="freeze" /></path><path d="M51.16,24.02c-6.03,6.62-20.67,15.92-34.23,19.74" class="stroke" stroke-dasharray="150"><set attributeName="opacity" to="0" dur="4.3s" /><animate attributeName="stroke-dashoffset" from="150" to="0" dur="1.8s" begin="4.3s" fill="freeze" /></path><path d="M57.17,23.79c4.7,1.93,25.33,11.07,30.45,12.97c1.73,0.64,3.22,0.92,4.95,1.1" class="stroke" stroke-dasharray="150"><set attributeName="opacity" to="0" dur="5.3s" /><animate attributeName="stroke-dashoffset" from="150" to="0" dur="1.8s" begin="5.3s" fill="freeze" /></path><path d="M31.6,42.55c0.34,0.34,0.34,0.57,0.52,0.99C33.62,47,34.88,54.63,35.75,61" class="stroke" stroke-dasharray="150"><set attributeName="opacity" to="0" dur="6.3s" /><animate attributeName="stroke-dashoffset" from="150" to="0" dur="1.8s" begin="6.3s" fill="freeze" /></path><path d="M33.14,43.72c13.61-1.22,34-2.91,42.85-3.24c3.25-0.12,3.09,1.82,2.9,2.77c-1.13,5.5-2.13,10.75-3.69,15.39" class="stroke" stroke-dasharray="150"><set attributeName="opacity" to="0" dur="7.2s" /><animate attributeName="stroke-dashoffset" from="150" to="0" dur="1.8s" begin="7.2s" fill="freeze" /></path><path d="M53.03,42.62c0.52,0.45,1.33,1.26,1.33,2.39c0,4.52-0.24,8.4-0.24,13.41" class="stroke" stroke-dasharray="150"><set attributeName="opacity" to="0" dur="8.7s" /><animate attributeName="stroke-dashoffset" from="150" to="0" dur="1.8s" begin="8.7s" fill="freeze" /></path><path d="M35.25,51.26c3.86-0.17,37.78-2.14,40.97-2.14" class="stroke" stroke-dasharray="150"><set attributeName="opacity" to="0" dur="9.6s" /><animate attributeName="stroke-dashoffset" from="150" to="0" dur="1.8s" begin="9.6s" fill="freeze" /></path><path d="M36.42,59.46c10.59-0.88,30.65-1.52,38.83-1.83" class="stroke" stroke-dasharray="150"><set attributeName="opacity" to="0" dur="10.7s" /><animate attributeName="stroke-dashoffset" from="150" to="0" dur="1.8s" begin="10.7s" fill="freeze" /></path><path d="M30.35,71.3c1.01,0.2,2.86,0.3,3.86,0.2c4.07-0.4,34.33-2.7,43.9-2.7c1.68,0,2.68,0.1,3.52,0.2" class="stroke" stroke-dasharray="150"><set attributeName="opacity" to="0" dur="11.7s" /><animate attributeName="stroke-dashoffset" from="150" to="0" dur="1.8s" begin="11.7s" fill="freeze" /></path><path d="M42.47,64.38c0.71,0.2,1.21,0.9,1.27,1.31C44.5,71,45,75.25,45.99,81.73" class="stroke" stroke-dasharray="150"><set attributeName="opacity" to="0" dur="13.0s" /><animate attributeName="stroke-dashoffset" from="150" to="0" dur="1.8s" begin="13.0s" fill="freeze" /></path><path d="M64.49,61.28c0.76,0.72,1.48,2.22,1.44,2.78C65.35,71.6,64,76.5,63.11,80.27" class="stroke" stroke-dasharray="150"><set attributeName="opacity" to="0" dur="13.9s" /><animate attributeName="stroke-dashoffset" from="150" to="0" dur="1.8s" begin="13.9s" fill="freeze" /></path><path d="M19.23,82.76c1.5,0.3,4.26,0.38,5.75,0.3c9.81-0.54,51.75-2.7,64.29-2.96c2.5-0.05,4,0.14,5.25,0.29" class="stroke" stroke-dasharray="150"><set attributeName="opacity" to="0" dur="14.8s" /><animate attributeName="stroke-dashoffset" from="150" to="0" dur="1.8s" begin="14.8s" fill="freeze" /></path><path d="M44.16,88.34c0.05,0.29,0.11,0.74-0.1,1.14c-1.24,2.42-9.4,7.08-18.12,10.96" class="stroke" stroke-dasharray="150"><set attributeName="opacity" to="0" dur="16.5s" /><animate attributeName="stroke-dashoffset" from="150" to="0" dur="1.8s" begin="16.5s" fill="freeze" /></path><path d="M66.09,87.08c6.03,2.32,15.57,9.53,17.08,13.14" class="stroke" stroke-dasharray="150"><set attributeName="opacity" to="0" dur="17.5s" /><animate attributeName="stroke-dashoffset" from="150" to="0" dur="1.8s" begin="17.5s" fill="freeze" /></path><text x="90" y="120" id="reset-kvg-07cde">⟳</text><text x="70" y="120" id="pause-kvg-07cde">◼</text><script type="text/javascript"><![CDATA[function RecurringTimer(e,t){var n,r,i=t;this.pause=function(){window.clearTimeout(n);i-=new Date-r};var s=function(){r=new Date;n=window.setTimeout(function(){i=t;s();e()},i)};this.clear=function(){window.clearTimeout(n);i=t;n=window.setTimeout(function(){i=t;s();e()},i)};this.resume=s;this.resume()}function invoketimer(){timer=new RecurringTimer(function(){svg.setCurrentTime(0)},19500.0)}var svg=document.getElementById("kvg-07cde");var pause=document.getElementById("pause-kvg-07cde");var reset=document.getElementById("reset-kvg-07cde");var timer;invoketimer();reset.onclick=function(){svg.setCurrentTime(0);timer.clear();svg.unpauseAnimations();pause.innerHTML = "◼";};pause.onclick=function(){if(svg.animationsPaused()){svg.unpauseAnimations();timer.resume();pause.innerHTML="◼"}else{svg.pauseAnimations();timer.pause();pause.innerHTML="▶"}}]]></script></svg>