<svg id="kvg-07d02-Kaisho" class="kanjivg" width="106" height="126" xmlns="http://www.w3.org/2000/svg" xmlns:xlink="http://www.w3.org/1999/xlink" xml:space="preserve" version="1.1" baseProfile="full"><defs><style type="text/css"><![CDATA[path.black{fill:none;stroke:black;stroke-width:5;stroke-linecap:round;stroke-linejoin:round;}path.grey{fill:none;stroke:#ddd;stroke-width:5;stroke-linecap:round;stroke-linejoin:round;}path.stroke{fill:none;stroke:black;stroke-width:5;stroke-linecap:round;stroke-linejoin:round;}rect{fill:none;stroke:#555;stroke-width:2;} text{font-size:16px;font-family:Segoe UI Symbol,Cambria Math,DejaVu Sans,Symbola,Quivira,STIX,Code2000;-webkit-touch-callout:none;cursor:pointer;-webkit-user-select:none;-khtml-user-select:none;-moz-user-select:none;-ms-user-select:none;user-select: none;}text:hover{color:#777;}#reset{font-weight:bold;}]]></style><marker id="markerStart" markerWidth="8" markerHeight="8" style="overflow:visible;"><circle cx="0" cy="0" r="1.5" style="stroke:none;fill:red;fill-opacity:0.5;"/></marker><marker id="markerEnd" style="overflow:visible;"><circle cx="0" cy="0" r="0.8" style="stroke:none;fill:blue;fill-opacity:0.5;"><animate attributeName="opacity" from="1" to="0" dur="3s" repeatCount="indefinite" /></circle></marker></defs><rect x="4" y="4" width="100" height="100" /><path d="M28.83,11.75c0.34,1.51,0.43,2.66-0.17,4.28c-3.04,8.17-6.64,14.08-10.33,20.91c-0.5,0.92-0.68,3.5,0,3.78c3.62,1.51,8.69,4.03,11.79,6.81" class="grey" /><path d="M41.73,25.38c0.32,0.68,0.42,2.93,0,3.66C35.6,39.76,26.45,54.71,18.03,64.5c-1.93,2.24,0.48,3.53,1.74,3.07c5.27-1.91,16.21-5.32,22.98-7.15" class="grey" /><path d="M38.37,51.59c2.74,2.75,7.08,11.29,7.76,15.56" class="grey" /><path d="M12.87,81.48c4.16,3.43,7.35,11.41,8.31,14.52" class="grey" /><path d="M24.79,77.05c4.71,2.98,8.33,9.89,9.42,12.58" class="grey" /><path d="M36.71,71.78c4.57,2.38,8.08,7.93,9.15,10.09" class="grey" /><path d="M47,38.18c1.18,0.26,3.33,0.32,4.52,0.26c13.06-0.72,28.22-2.19,42.61-2.58c1.96-0.05,3.14,0.12,4.12,0.25" class="grey" /><path d="M80.13,14.08c0.09,0.46,1.27,2.4,1.27,5.32c0,19.66-0.26,63.27-0.26,68.05c0,11.6-5.69,3.89-7.78,1.21" class="grey" /><path d="M56.75,53c3.56,2.45,9.19,10.06,10.08,13.87" class="grey" /><path d="M28.83,11.75c0.34,1.51,0.43,2.66-0.17,4.28c-3.04,8.17-6.64,14.08-10.33,20.91c-0.5,0.92-0.68,3.5,0,3.78c3.62,1.51,8.69,4.03,11.79,6.81" class="stroke" stroke-dasharray="150"><animate attributeName="stroke-dashoffset" from="150" to="0" dur="1.8s" begin="0.0s" fill="freeze" /></path><path d="M41.73,25.38c0.32,0.68,0.42,2.93,0,3.66C35.6,39.76,26.45,54.71,18.03,64.5c-1.93,2.24,0.48,3.53,1.74,3.07c5.27-1.91,16.21-5.32,22.98-7.15" class="stroke" stroke-dasharray="150"><set attributeName="opacity" to="0" dur="1.2s" /><animate attributeName="stroke-dashoffset" from="150" to="0" dur="1.8s" begin="1.2s" fill="freeze" /></path><path d="M38.37,51.59c2.74,2.75,7.08,11.29,7.76,15.56" class="stroke" stroke-dasharray="150"><set attributeName="opacity" to="0" dur="2.9s" /><animate attributeName="stroke-dashoffset" from="150" to="0" dur="1.8s" begin="2.9s" fill="freeze" /></path><path d="M12.87,81.48c4.16,3.43,7.35,11.41,8.31,14.52" class="stroke" stroke-dasharray="150"><set attributeName="opacity" to="0" dur="3.8s" /><animate attributeName="stroke-dashoffset" from="150" to="0" dur="1.8s" begin="3.8s" fill="freeze" /></path><path d="M24.79,77.05c4.71,2.98,8.33,9.89,9.42,12.58" class="stroke" stroke-dasharray="150"><set attributeName="opacity" to="0" dur="4.7s" /><animate attributeName="stroke-dashoffset" from="150" to="0" dur="1.8s" begin="4.7s" fill="freeze" /></path><path d="M36.71,71.78c4.57,2.38,8.08,7.93,9.15,10.09" class="stroke" stroke-dasharray="150"><set attributeName="opacity" to="0" dur="5.6000000000000005s" /><animate attributeName="stroke-dashoffset" from="150" to="0" dur="1.8s" begin="5.6000000000000005s" fill="freeze" /></path><path d="M47,38.18c1.18,0.26,3.33,0.32,4.52,0.26c13.06-0.72,28.22-2.19,42.61-2.58c1.96-0.05,3.14,0.12,4.12,0.25" class="stroke" stroke-dasharray="150"><set attributeName="opacity" to="0" dur="6.500000000000001s" /><animate attributeName="stroke-dashoffset" from="150" to="0" dur="1.8s" begin="6.500000000000001s" fill="freeze" /></path><path d="M80.13,14.08c0.09,0.46,1.27,2.4,1.27,5.32c0,19.66-0.26,63.27-0.26,68.05c0,11.6-5.69,3.89-7.78,1.21" class="stroke" stroke-dasharray="150"><set attributeName="opacity" to="0" dur="7.800000000000001s" /><animate attributeName="stroke-dashoffset" from="150" to="0" dur="1.8s" begin="7.800000000000001s" fill="freeze" /></path><path d="M56.75,53c3.56,2.45,9.19,10.06,10.08,13.87" class="stroke" stroke-dasharray="150"><set attributeName="opacity" to="0" dur="9.5s" /><animate attributeName="stroke-dashoffset" from="150" to="0" dur="1.8s" begin="9.5s" fill="freeze" /></path><text x="90" y="120" id="reset-kvg-07d02-Kaisho">⟳</text><text x="70" y="120" id="pause-kvg-07d02-Kaisho">◼</text><script type="text/javascript"><![CDATA[function RecurringTimer(e,t){var n,r,i=t;this.pause=function(){window.clearTimeout(n);i-=new Date-r};var s=function(){r=new Date;n=window.setTimeout(function(){i=t;s();e()},i)};this.clear=function(){window.clearTimeout(n);i=t;n=window.setTimeout(function(){i=t;s();e()},i)};this.resume=s;this.resume()}function invoketimer(){timer=new RecurringTimer(function(){svg.setCurrentTime(0)},11400.0)}var svg=document.getElementById("kvg-07d02-Kaisho");var pause=document.getElementById("pause-kvg-07d02-Kaisho");var reset=document.getElementById("reset-kvg-07d02-Kaisho");var timer;invoketimer();reset.onclick=function(){svg.setCurrentTime(0);timer.clear();svg.unpauseAnimations();pause.innerHTML = "◼";};pause.onclick=function(){if(svg.animationsPaused()){svg.unpauseAnimations();timer.resume();pause.innerHTML="◼"}else{svg.pauseAnimations();timer.pause();pause.innerHTML="▶"}}]]></script></svg>