<svg id="kvg-07d30-Kaisho" class="kanjivg" width="106" height="126" xmlns="http://www.w3.org/2000/svg" xmlns:xlink="http://www.w3.org/1999/xlink" xml:space="preserve" version="1.1" baseProfile="full"><defs><style type="text/css"><![CDATA[path.black{fill:none;stroke:black;stroke-width:5;stroke-linecap:round;stroke-linejoin:round;}path.grey{fill:none;stroke:#ddd;stroke-width:5;stroke-linecap:round;stroke-linejoin:round;}path.stroke{fill:none;stroke:black;stroke-width:5;stroke-linecap:round;stroke-linejoin:round;}rect{fill:none;stroke:#555;stroke-width:2;} text{font-size:16px;font-family:Segoe UI Symbol,Cambria Math,DejaVu Sans,Symbola,Quivira,STIX,Code2000;-webkit-touch-callout:none;cursor:pointer;-webkit-user-select:none;-khtml-user-select:none;-moz-user-select:none;-ms-user-select:none;user-select: none;}text:hover{color:#777;}#reset{font-weight:bold;}]]></style><marker id="markerStart" markerWidth="8" markerHeight="8" style="overflow:visible;"><circle cx="0" cy="0" r="1.5" style="stroke:none;fill:red;fill-opacity:0.5;"/></marker><marker id="markerEnd" style="overflow:visible;"><circle cx="0" cy="0" r="0.8" style="stroke:none;fill:blue;fill-opacity:0.5;"><animate attributeName="opacity" from="1" to="0" dur="3s" repeatCount="indefinite" /></circle></marker></defs><rect x="4" y="4" width="100" height="100" /><path d="M29.37,15.75c0.32,1.42,0.4,2.5-0.16,4.02c-2.84,7.66-6.21,13.2-9.65,19.61c-0.46,0.86-0.64,3.28,0,3.55c3.38,1.42,8.12,3.78,11.02,6.38" class="grey" /><path d="M41.43,28.53c0.3,0.64,0.39,2.75,0,3.43C35.7,42.02,27.15,56.03,19.28,65.21c-1.81,2.1,0.45,3.31,1.62,2.88c4.93-1.79,15.15-4.99,21.48-6.7" class="grey" /><path d="M38.29,53.11c2.56,2.58,6.61,10.59,7.25,14.59" class="grey" /><path d="M14.46,81.14c3.89,3.22,6.87,10.7,7.77,13.61" class="grey" /><path d="M25.6,76.98c4.4,2.79,7.78,9.27,8.81,11.8" class="grey" /><path d="M36.74,72.04c4.27,2.24,7.55,7.43,8.55,9.46" class="grey" /><path d="M53.75,36.84c0.29,0.85,0.29,1.41,0.45,2.45c1.28,8.56,1.44,29.94,2.2,45.71" class="grey" /><path d="M55.11,38.14c10.2-0.86,26.68-2.32,34.3-3.15c2.8-0.31,4.22,2.17,4.07,4.47c-0.56,8.41-2,29.36-2.58,42.53" class="grey" /><path d="M71.77,38.4c0.73,1.1,1.46,2.21,1.46,4.6c-0.01,10.89,0.18,33.83,0.18,37.23" class="grey" /><path d="M56.93,60.1c3.32-0.42,22.83-2.91,25.57-2.91" class="grey" /><path d="M56.93,82.78c7.34,0,23.92-1.91,34.06-2.14" class="grey" /><path d="M29.37,15.75c0.32,1.42,0.4,2.5-0.16,4.02c-2.84,7.66-6.21,13.2-9.65,19.61c-0.46,0.86-0.64,3.28,0,3.55c3.38,1.42,8.12,3.78,11.02,6.38" class="stroke" stroke-dasharray="150"><animate attributeName="stroke-dashoffset" from="150" to="0" dur="1.8s" begin="0.0s" fill="freeze" /></path><path d="M41.43,28.53c0.3,0.64,0.39,2.75,0,3.43C35.7,42.02,27.15,56.03,19.28,65.21c-1.81,2.1,0.45,3.31,1.62,2.88c4.93-1.79,15.15-4.99,21.48-6.7" class="stroke" stroke-dasharray="150"><set attributeName="opacity" to="0" dur="1.1s" /><animate attributeName="stroke-dashoffset" from="150" to="0" dur="1.8s" begin="1.1s" fill="freeze" /></path><path d="M38.29,53.11c2.56,2.58,6.61,10.59,7.25,14.59" class="stroke" stroke-dasharray="150"><set attributeName="opacity" to="0" dur="2.8s" /><animate attributeName="stroke-dashoffset" from="150" to="0" dur="1.8s" begin="2.8s" fill="freeze" /></path><path d="M14.46,81.14c3.89,3.22,6.87,10.7,7.77,13.61" class="stroke" stroke-dasharray="150"><set attributeName="opacity" to="0" dur="3.6999999999999997s" /><animate attributeName="stroke-dashoffset" from="150" to="0" dur="1.8s" begin="3.6999999999999997s" fill="freeze" /></path><path d="M25.6,76.98c4.4,2.79,7.78,9.27,8.81,11.8" class="stroke" stroke-dasharray="150"><set attributeName="opacity" to="0" dur="4.6s" /><animate attributeName="stroke-dashoffset" from="150" to="0" dur="1.8s" begin="4.6s" fill="freeze" /></path><path d="M36.74,72.04c4.27,2.24,7.55,7.43,8.55,9.46" class="stroke" stroke-dasharray="150"><set attributeName="opacity" to="0" dur="5.5s" /><animate attributeName="stroke-dashoffset" from="150" to="0" dur="1.8s" begin="5.5s" fill="freeze" /></path><path d="M53.75,36.84c0.29,0.85,0.29,1.41,0.45,2.45c1.28,8.56,1.44,29.94,2.2,45.71" class="stroke" stroke-dasharray="150"><set attributeName="opacity" to="0" dur="6.4s" /><animate attributeName="stroke-dashoffset" from="150" to="0" dur="1.8s" begin="6.4s" fill="freeze" /></path><path d="M55.11,38.14c10.2-0.86,26.68-2.32,34.3-3.15c2.8-0.31,4.22,2.17,4.07,4.47c-0.56,8.41-2,29.36-2.58,42.53" class="stroke" stroke-dasharray="150"><set attributeName="opacity" to="0" dur="7.6000000000000005s" /><animate attributeName="stroke-dashoffset" from="150" to="0" dur="1.8s" begin="7.6000000000000005s" fill="freeze" /></path><path d="M71.77,38.4c0.73,1.1,1.46,2.21,1.46,4.6c-0.01,10.89,0.18,33.83,0.18,37.23" class="stroke" stroke-dasharray="150"><set attributeName="opacity" to="0" dur="9.3s" /><animate attributeName="stroke-dashoffset" from="150" to="0" dur="1.8s" begin="9.3s" fill="freeze" /></path><path d="M56.93,60.1c3.32-0.42,22.83-2.91,25.57-2.91" class="stroke" stroke-dasharray="150"><set attributeName="opacity" to="0" dur="10.4s" /><animate attributeName="stroke-dashoffset" from="150" to="0" dur="1.8s" begin="10.4s" fill="freeze" /></path><path d="M56.93,82.78c7.34,0,23.92-1.91,34.06-2.14" class="stroke" stroke-dasharray="150"><set attributeName="opacity" to="0" dur="11.4s" /><animate attributeName="stroke-dashoffset" from="150" to="0" dur="1.8s" begin="11.4s" fill="freeze" /></path><text x="90" y="120" id="reset-kvg-07d30-Kaisho">⟳</text><text x="70" y="120" id="pause-kvg-07d30-Kaisho">◼</text><script type="text/javascript"><![CDATA[function RecurringTimer(e,t){var n,r,i=t;this.pause=function(){window.clearTimeout(n);i-=new Date-r};var s=function(){r=new Date;n=window.setTimeout(function(){i=t;s();e()},i)};this.clear=function(){window.clearTimeout(n);i=t;n=window.setTimeout(function(){i=t;s();e()},i)};this.resume=s;this.resume()}function invoketimer(){timer=new RecurringTimer(function(){svg.setCurrentTime(0)},13400.0)}var svg=document.getElementById("kvg-07d30-Kaisho");var pause=document.getElementById("pause-kvg-07d30-Kaisho");var reset=document.getElementById("reset-kvg-07d30-Kaisho");var timer;invoketimer();reset.onclick=function(){svg.setCurrentTime(0);timer.clear();svg.unpauseAnimations();pause.innerHTML = "◼";};pause.onclick=function(){if(svg.animationsPaused()){svg.unpauseAnimations();timer.resume();pause.innerHTML="◼"}else{svg.pauseAnimations();timer.pause();pause.innerHTML="▶"}}]]></script></svg>