<svg id="kvg-07d30" class="kanjivg" width="106" height="126" xmlns="http://www.w3.org/2000/svg" xmlns:xlink="http://www.w3.org/1999/xlink" xml:space="preserve" version="1.1" baseProfile="full"><defs><style type="text/css"><![CDATA[path.black{fill:none;stroke:black;stroke-width:5;stroke-linecap:round;stroke-linejoin:round;}path.grey{fill:none;stroke:#ddd;stroke-width:5;stroke-linecap:round;stroke-linejoin:round;}path.stroke{fill:none;stroke:black;stroke-width:5;stroke-linecap:round;stroke-linejoin:round;}rect{fill:none;stroke:#555;stroke-width:2;} text{font-size:16px;font-family:Segoe UI Symbol,Cambria Math,DejaVu Sans,Symbola,Quivira,STIX,Code2000;-webkit-touch-callout:none;cursor:pointer;-webkit-user-select:none;-khtml-user-select:none;-moz-user-select:none;-ms-user-select:none;user-select: none;}text:hover{color:#777;}#reset{font-weight:bold;}]]></style><marker id="markerStart" markerWidth="8" markerHeight="8" style="overflow:visible;"><circle cx="0" cy="0" r="1.5" style="stroke:none;fill:red;fill-opacity:0.5;"/></marker><marker id="markerEnd" style="overflow:visible;"><circle cx="0" cy="0" r="0.8" style="stroke:none;fill:blue;fill-opacity:0.5;"><animate attributeName="opacity" from="1" to="0" dur="3s" repeatCount="indefinite" /></circle></marker></defs><rect x="4" y="4" width="100" height="100" /><path d="M30.47,16.5c0.29,1.27,0.3,2.6-0.4,3.85c-3.03,5.51-7.49,12.35-11.23,16.54c-1.1,1.23-0.85,2.36,0.5,2.93c3.03,1.28,5.11,2.64,7.71,4.97" class="grey" /><path d="M40.29,27.75c0.34,1.25,0.32,2.11-0.5,3.19c-7.41,9.81-14.41,17.93-23.7,27.85c-1.14,1.21-0.13,3,1.13,2.6c5.28-1.67,18.46-4.69,25.25-6.29" class="grey" /><path d="M38.5,48.25c2.65,2.34,6.34,9.11,7,12.75" class="grey" /><path d="M30.19,60.45c0.68,0.68,1.14,1.74,1.19,3.26c0.16,5.28,0.01,17.33-0.08,25.04c-0.03,2.92-0.06,5.07-0.06,5.75" class="grey" /><path d="M20.89,69.5c0.37,1.03,0.46,2.17-0.16,3.91c-1.89,5.33-5.31,12.12-7.73,15.51" class="grey" /><path d="M39.25,69c2.2,3.05,5.96,11.19,6.75,14.25" class="grey" /><path d="M52.5,36.59c1.02,1.02,1.75,2.42,1.86,3.61c1.02,11.92,1.02,26.96,1.58,41.55c0.06,1.64,0.13,3.23,0.2,4.75" class="grey" /><path d="M55.02,38.49c10.16-0.97,27.78-3.28,34.38-4c2.8-0.31,4.22,2.17,4.07,4.47c-0.5,7.61-1.33,27.22-1.9,40.55c-0.06,1.4-0.12,2.73-0.17,3.98" class="grey" /><path d="M71.27,39.4c0.92,0.92,1.46,2.35,1.46,4.35c0,8.59,0.18,35.76,0.18,36.48" class="grey" /><path d="M56.43,59.6c9.57-1.23,26.2-2.85,35-3.16" class="grey" /><path d="M57.18,82.78c9.32-0.65,22.57-1.78,33.06-2.14" class="grey" /><path d="M30.47,16.5c0.29,1.27,0.3,2.6-0.4,3.85c-3.03,5.51-7.49,12.35-11.23,16.54c-1.1,1.23-0.85,2.36,0.5,2.93c3.03,1.28,5.11,2.64,7.71,4.97" class="stroke" stroke-dasharray="150"><animate attributeName="stroke-dashoffset" from="150" to="0" dur="1.8s" begin="0.0s" fill="freeze" /></path><path d="M40.29,27.75c0.34,1.25,0.32,2.11-0.5,3.19c-7.41,9.81-14.41,17.93-23.7,27.85c-1.14,1.21-0.13,3,1.13,2.6c5.28-1.67,18.46-4.69,25.25-6.29" class="stroke" stroke-dasharray="150"><set attributeName="opacity" to="0" dur="1.0s" /><animate attributeName="stroke-dashoffset" from="150" to="0" dur="1.8s" begin="1.0s" fill="freeze" /></path><path d="M38.5,48.25c2.65,2.34,6.34,9.11,7,12.75" class="stroke" stroke-dasharray="150"><set attributeName="opacity" to="0" dur="2.5s" /><animate attributeName="stroke-dashoffset" from="150" to="0" dur="1.8s" begin="2.5s" fill="freeze" /></path><path d="M30.19,60.45c0.68,0.68,1.14,1.74,1.19,3.26c0.16,5.28,0.01,17.33-0.08,25.04c-0.03,2.92-0.06,5.07-0.06,5.75" class="stroke" stroke-dasharray="150"><set attributeName="opacity" to="0" dur="3.4s" /><animate attributeName="stroke-dashoffset" from="150" to="0" dur="1.8s" begin="3.4s" fill="freeze" /></path><path d="M20.89,69.5c0.37,1.03,0.46,2.17-0.16,3.91c-1.89,5.33-5.31,12.12-7.73,15.51" class="stroke" stroke-dasharray="150"><set attributeName="opacity" to="0" dur="4.4s" /><animate attributeName="stroke-dashoffset" from="150" to="0" dur="1.8s" begin="4.4s" fill="freeze" /></path><path d="M39.25,69c2.2,3.05,5.96,11.19,6.75,14.25" class="stroke" stroke-dasharray="150"><set attributeName="opacity" to="0" dur="5.4s" /><animate attributeName="stroke-dashoffset" from="150" to="0" dur="1.8s" begin="5.4s" fill="freeze" /></path><path d="M52.5,36.59c1.02,1.02,1.75,2.42,1.86,3.61c1.02,11.92,1.02,26.96,1.58,41.55c0.06,1.64,0.13,3.23,0.2,4.75" class="stroke" stroke-dasharray="150"><set attributeName="opacity" to="0" dur="6.300000000000001s" /><animate attributeName="stroke-dashoffset" from="150" to="0" dur="1.8s" begin="6.300000000000001s" fill="freeze" /></path><path d="M55.02,38.49c10.16-0.97,27.78-3.28,34.38-4c2.8-0.31,4.22,2.17,4.07,4.47c-0.5,7.61-1.33,27.22-1.9,40.55c-0.06,1.4-0.12,2.73-0.17,3.98" class="stroke" stroke-dasharray="150"><set attributeName="opacity" to="0" dur="7.6000000000000005s" /><animate attributeName="stroke-dashoffset" from="150" to="0" dur="1.8s" begin="7.6000000000000005s" fill="freeze" /></path><path d="M71.27,39.4c0.92,0.92,1.46,2.35,1.46,4.35c0,8.59,0.18,35.76,0.18,36.48" class="stroke" stroke-dasharray="150"><set attributeName="opacity" to="0" dur="9.3s" /><animate attributeName="stroke-dashoffset" from="150" to="0" dur="1.8s" begin="9.3s" fill="freeze" /></path><path d="M56.43,59.6c9.57-1.23,26.2-2.85,35-3.16" class="stroke" stroke-dasharray="150"><set attributeName="opacity" to="0" dur="10.4s" /><animate attributeName="stroke-dashoffset" from="150" to="0" dur="1.8s" begin="10.4s" fill="freeze" /></path><path d="M57.18,82.78c9.32-0.65,22.57-1.78,33.06-2.14" class="stroke" stroke-dasharray="150"><set attributeName="opacity" to="0" dur="11.4s" /><animate attributeName="stroke-dashoffset" from="150" to="0" dur="1.8s" begin="11.4s" fill="freeze" /></path><text x="90" y="120" id="reset-kvg-07d30">⟳</text><text x="70" y="120" id="pause-kvg-07d30">◼</text><script type="text/javascript"><![CDATA[function RecurringTimer(e,t){var n,r,i=t;this.pause=function(){window.clearTimeout(n);i-=new Date-r};var s=function(){r=new Date;n=window.setTimeout(function(){i=t;s();e()},i)};this.clear=function(){window.clearTimeout(n);i=t;n=window.setTimeout(function(){i=t;s();e()},i)};this.resume=s;this.resume()}function invoketimer(){timer=new RecurringTimer(function(){svg.setCurrentTime(0)},13400.0)}var svg=document.getElementById("kvg-07d30");var pause=document.getElementById("pause-kvg-07d30");var reset=document.getElementById("reset-kvg-07d30");var timer;invoketimer();reset.onclick=function(){svg.setCurrentTime(0);timer.clear();svg.unpauseAnimations();pause.innerHTML = "◼";};pause.onclick=function(){if(svg.animationsPaused()){svg.unpauseAnimations();timer.resume();pause.innerHTML="◼"}else{svg.pauseAnimations();timer.pause();pause.innerHTML="▶"}}]]></script></svg>