<svg id="kvg-07d68" class="kanjivg" width="106" height="126" xmlns="http://www.w3.org/2000/svg" xmlns:xlink="http://www.w3.org/1999/xlink" xml:space="preserve" version="1.1" baseProfile="full"><defs><style type="text/css"><![CDATA[path.black{fill:none;stroke:black;stroke-width:5;stroke-linecap:round;stroke-linejoin:round;}path.grey{fill:none;stroke:#ddd;stroke-width:5;stroke-linecap:round;stroke-linejoin:round;}path.stroke{fill:none;stroke:black;stroke-width:5;stroke-linecap:round;stroke-linejoin:round;}rect{fill:none;stroke:#555;stroke-width:2;} text{font-size:16px;font-family:Segoe UI Symbol,Cambria Math,DejaVu Sans,Symbola,Quivira,STIX,Code2000;-webkit-touch-callout:none;cursor:pointer;-webkit-user-select:none;-khtml-user-select:none;-moz-user-select:none;-ms-user-select:none;user-select: none;}text:hover{color:#777;}#reset{font-weight:bold;}]]></style><marker id="markerStart" markerWidth="8" markerHeight="8" style="overflow:visible;"><circle cx="0" cy="0" r="1.5" style="stroke:none;fill:red;fill-opacity:0.5;"/></marker><marker id="markerEnd" style="overflow:visible;"><circle cx="0" cy="0" r="0.8" style="stroke:none;fill:blue;fill-opacity:0.5;"><animate attributeName="opacity" from="1" to="0" dur="3s" repeatCount="indefinite" /></circle></marker></defs><rect x="4" y="4" width="100" height="100" /><path d="M26.93,12.42c0.31,1.43,0.33,2.49-0.16,4.04c-2.13,6.86-7.25,14.67-11.41,20.15c-0.58,0.76-0.62,3.3,0,3.57c3.29,1.43,8.34,3.3,11.16,5.92" class="grey" /><path d="M39.36,24.68c0.29,0.58,0.36,2.46,0,3.09C33.78,37.5,24.48,49.94,16.8,58.21c-1.76,1.89,0.44,2.98,1.58,2.59c4.8-1.61,14.21-4.49,20.39-6.03" class="grey" /><path d="M34,48c2.38,2.16,6.16,8.89,6.75,12.25" class="grey" /><path d="M27.14,60.87c0.07,0.36,0.91,1.85,0.98,4.09c0.31,10.79-0.2,28.79-0.2,32.46" class="grey" /><path d="M18.86,71.1c0.14,0.96,0.12,2.86-0.14,3.55c-1.72,4.5-6.03,13.17-8.47,17.03" class="grey" /><path d="M35.43,68.04c3.5,3.47,6.18,11.54,6.99,14.69" class="grey" /><path d="M43.75,39.19c1.02,0.3,2.9,0.39,3.91,0.3c8.02-0.69,34.23-3.59,43.43-4c1.7-0.08,2.72,0.14,3.57,0.29" class="grey" /><path d="M45.31,65.77c0.73,0.48,2.23,0.72,3.13,0.46c8.1-2.32,14.5-4.14,20.58-5.91" class="grey" /><path d="M57.53,46.39c0.41,1.26,1,2.25,1,3.82c0,14.38,0.61,31.82-12.33,42.51" class="grey" /><path d="M68.75,12.75c1.17,1.79,1.21,2.3,1.61,6.13c3.39,31.87,10.89,60.37,23.55,75.59c3.84,4.62,3.96,0.77,3.37-7.15" class="grey" /><path d="M89.48,48.25c0.08,1.12,0.17,2.89-0.16,4.49c-1.99,9.47-13.42,31.29-29.07,44.01" class="grey" /><path d="M80.05,17c2.93,2.08,7.62,6.82,8.98,10.38" class="grey" /><path d="M26.93,12.42c0.31,1.43,0.33,2.49-0.16,4.04c-2.13,6.86-7.25,14.67-11.41,20.15c-0.58,0.76-0.62,3.3,0,3.57c3.29,1.43,8.34,3.3,11.16,5.92" class="stroke" stroke-dasharray="150"><animate attributeName="stroke-dashoffset" from="150" to="0" dur="1.8s" begin="0.0s" fill="freeze" /></path><path d="M39.36,24.68c0.29,0.58,0.36,2.46,0,3.09C33.78,37.5,24.48,49.94,16.8,58.21c-1.76,1.89,0.44,2.98,1.58,2.59c4.8-1.61,14.21-4.49,20.39-6.03" class="stroke" stroke-dasharray="150"><set attributeName="opacity" to="0" dur="1.1s" /><animate attributeName="stroke-dashoffset" from="150" to="0" dur="1.8s" begin="1.1s" fill="freeze" /></path><path d="M34,48c2.38,2.16,6.16,8.89,6.75,12.25" class="stroke" stroke-dasharray="150"><set attributeName="opacity" to="0" dur="2.6s" /><animate attributeName="stroke-dashoffset" from="150" to="0" dur="1.8s" begin="2.6s" fill="freeze" /></path><path d="M27.14,60.87c0.07,0.36,0.91,1.85,0.98,4.09c0.31,10.79-0.2,28.79-0.2,32.46" class="stroke" stroke-dasharray="150"><set attributeName="opacity" to="0" dur="3.5s" /><animate attributeName="stroke-dashoffset" from="150" to="0" dur="1.8s" begin="3.5s" fill="freeze" /></path><path d="M18.86,71.1c0.14,0.96,0.12,2.86-0.14,3.55c-1.72,4.5-6.03,13.17-8.47,17.03" class="stroke" stroke-dasharray="150"><set attributeName="opacity" to="0" dur="4.5s" /><animate attributeName="stroke-dashoffset" from="150" to="0" dur="1.8s" begin="4.5s" fill="freeze" /></path><path d="M35.43,68.04c3.5,3.47,6.18,11.54,6.99,14.69" class="stroke" stroke-dasharray="150"><set attributeName="opacity" to="0" dur="5.5s" /><animate attributeName="stroke-dashoffset" from="150" to="0" dur="1.8s" begin="5.5s" fill="freeze" /></path><path d="M43.75,39.19c1.02,0.3,2.9,0.39,3.91,0.3c8.02-0.69,34.23-3.59,43.43-4c1.7-0.08,2.72,0.14,3.57,0.29" class="stroke" stroke-dasharray="150"><set attributeName="opacity" to="0" dur="6.4s" /><animate attributeName="stroke-dashoffset" from="150" to="0" dur="1.8s" begin="6.4s" fill="freeze" /></path><path d="M45.31,65.77c0.73,0.48,2.23,0.72,3.13,0.46c8.1-2.32,14.5-4.14,20.58-5.91" class="stroke" stroke-dasharray="150"><set attributeName="opacity" to="0" dur="7.7s" /><animate attributeName="stroke-dashoffset" from="150" to="0" dur="1.8s" begin="7.7s" fill="freeze" /></path><path d="M57.53,46.39c0.41,1.26,1,2.25,1,3.82c0,14.38,0.61,31.82-12.33,42.51" class="stroke" stroke-dasharray="150"><set attributeName="opacity" to="0" dur="8.7s" /><animate attributeName="stroke-dashoffset" from="150" to="0" dur="1.8s" begin="8.7s" fill="freeze" /></path><path d="M68.75,12.75c1.17,1.79,1.21,2.3,1.61,6.13c3.39,31.87,10.89,60.37,23.55,75.59c3.84,4.62,3.96,0.77,3.37-7.15" class="stroke" stroke-dasharray="150"><set attributeName="opacity" to="0" dur="9.899999999999999s" /><animate attributeName="stroke-dashoffset" from="150" to="0" dur="1.8s" begin="9.899999999999999s" fill="freeze" /></path><path d="M89.48,48.25c0.08,1.12,0.17,2.89-0.16,4.49c-1.99,9.47-13.42,31.29-29.07,44.01" class="stroke" stroke-dasharray="150"><set attributeName="opacity" to="0" dur="11.7s" /><animate attributeName="stroke-dashoffset" from="150" to="0" dur="1.8s" begin="11.7s" fill="freeze" /></path><path d="M80.05,17c2.93,2.08,7.62,6.82,8.98,10.38" class="stroke" stroke-dasharray="150"><set attributeName="opacity" to="0" dur="13.1s" /><animate attributeName="stroke-dashoffset" from="150" to="0" dur="1.8s" begin="13.1s" fill="freeze" /></path><text x="90" y="120" id="reset-kvg-07d68">⟳</text><text x="70" y="120" id="pause-kvg-07d68">◼</text><script type="text/javascript"><![CDATA[function RecurringTimer(e,t){var n,r,i=t;this.pause=function(){window.clearTimeout(n);i-=new Date-r};var s=function(){r=new Date;n=window.setTimeout(function(){i=t;s();e()},i)};this.clear=function(){window.clearTimeout(n);i=t;n=window.setTimeout(function(){i=t;s();e()},i)};this.resume=s;this.resume()}function invoketimer(){timer=new RecurringTimer(function(){svg.setCurrentTime(0)},15000.0)}var svg=document.getElementById("kvg-07d68");var pause=document.getElementById("pause-kvg-07d68");var reset=document.getElementById("reset-kvg-07d68");var timer;invoketimer();reset.onclick=function(){svg.setCurrentTime(0);timer.clear();svg.unpauseAnimations();pause.innerHTML = "◼";};pause.onclick=function(){if(svg.animationsPaused()){svg.unpauseAnimations();timer.resume();pause.innerHTML="◼"}else{svg.pauseAnimations();timer.pause();pause.innerHTML="▶"}}]]></script></svg>