<svg id="kvg-07dab-Kaisho" class="kanjivg" width="106" height="126" xmlns="http://www.w3.org/2000/svg" xmlns:xlink="http://www.w3.org/1999/xlink" xml:space="preserve" version="1.1" baseProfile="full"><defs><style type="text/css"><![CDATA[path.black{fill:none;stroke:black;stroke-width:5;stroke-linecap:round;stroke-linejoin:round;}path.grey{fill:none;stroke:#ddd;stroke-width:5;stroke-linecap:round;stroke-linejoin:round;}path.stroke{fill:none;stroke:black;stroke-width:5;stroke-linecap:round;stroke-linejoin:round;}rect{fill:none;stroke:#555;stroke-width:2;} text{font-size:16px;font-family:Segoe UI Symbol,Cambria Math,DejaVu Sans,Symbola,Quivira,STIX,Code2000;-webkit-touch-callout:none;cursor:pointer;-webkit-user-select:none;-khtml-user-select:none;-moz-user-select:none;-ms-user-select:none;user-select: none;}text:hover{color:#777;}#reset{font-weight:bold;}]]></style><marker id="markerStart" markerWidth="8" markerHeight="8" style="overflow:visible;"><circle cx="0" cy="0" r="1.5" style="stroke:none;fill:red;fill-opacity:0.5;"/></marker><marker id="markerEnd" style="overflow:visible;"><circle cx="0" cy="0" r="0.8" style="stroke:none;fill:blue;fill-opacity:0.5;"><animate attributeName="opacity" from="1" to="0" dur="3s" repeatCount="indefinite" /></circle></marker></defs><rect x="4" y="4" width="100" height="100" /><path d="M26.6,14c0.34,1.48,0.42,2.6-0.17,4.18c-2.96,7.97-6.48,13.75-10.08,20.42c-0.48,0.9-0.67,3.41,0,3.69c3.53,1.48,8.48,3.94,11.51,6.65" class="grey" /><path d="M39.19,27.3c0.31,0.67,0.4,2.86,0,3.57C33.2,41.35,24.27,55.94,16.05,65.49c-1.89,2.19,0.47,3.44,1.7,3c5.15-1.87,15.82-5.19,22.44-6.98" class="grey" /><path d="M35.91,52.9c2.67,2.68,6.91,11.02,7.58,15.19" class="grey" /><path d="M11.02,82.08c4.06,3.35,7.17,11.14,8.12,14.17" class="grey" /><path d="M22.65,77.75c4.6,2.9,8.13,9.65,9.2,12.28" class="grey" /><path d="M34.29,72.61c4.84,2.56,8.55,8.52,9.68,10.85" class="grey" /><path d="M45.72,28.31c0.94,0.34,2.67,0.39,3.61,0.34c7.33-0.32,26.76-2.99,35.24-3.46c1.57-0.09,2.51,0.17,3.29,0.34" class="grey" /><path d="M59.06,10.25c1.33,0.88,1.93,2.15,2.21,4.05c2.32,15.92,10.77,31.45,27.01,37.39c5.21,1.91,5.13-0.32,3.81-6.6" class="grey" /><path d="M81.68,30.95c-0.19,0.6-0.36,1.23-0.79,1.78C77.11,37.56,67.1,44.5,51.32,50.2" class="grey" /><path d="M72.17,11.18c3.26,1.5,8.46,4.93,9.99,7.5" class="grey" /><path d="M48.02,67.38c0.96,0.44,2.73,0.57,3.69,0.44c8.42-1.12,29.01-3.33,37.68-3.93c1.6-0.11,2.57,0.21,3.37,0.43" class="grey" /><path d="M60.51,52.92c1.43,0.96,2.04,1.71,2.34,3.78c2.5,17.36,10.72,34.3,28.2,40.78c5.61,2.08,5.7-0.73,4.1-7.36" class="grey" /><path d="M83.4,71.53c0.1,0.57,0.22,1.46-0.21,2.28c-2.51,4.8-16.63,15.87-36.39,22.32" class="grey" /><path d="M72.17,51.12c2.77,1.45,7.19,4.77,8.49,7.25" class="grey" /><path d="M26.6,14c0.34,1.48,0.42,2.6-0.17,4.18c-2.96,7.97-6.48,13.75-10.08,20.42c-0.48,0.9-0.67,3.41,0,3.69c3.53,1.48,8.48,3.94,11.51,6.65" class="stroke" stroke-dasharray="150"><animate attributeName="stroke-dashoffset" from="150" to="0" dur="1.8s" begin="0.0s" fill="freeze" /></path><path d="M39.19,27.3c0.31,0.67,0.4,2.86,0,3.57C33.2,41.35,24.27,55.94,16.05,65.49c-1.89,2.19,0.47,3.44,1.7,3c5.15-1.87,15.82-5.19,22.44-6.98" class="stroke" stroke-dasharray="150"><set attributeName="opacity" to="0" dur="1.1s" /><animate attributeName="stroke-dashoffset" from="150" to="0" dur="1.8s" begin="1.1s" fill="freeze" /></path><path d="M35.91,52.9c2.67,2.68,6.91,11.02,7.58,15.19" class="stroke" stroke-dasharray="150"><set attributeName="opacity" to="0" dur="2.8s" /><animate attributeName="stroke-dashoffset" from="150" to="0" dur="1.8s" begin="2.8s" fill="freeze" /></path><path d="M11.02,82.08c4.06,3.35,7.17,11.14,8.12,14.17" class="stroke" stroke-dasharray="150"><set attributeName="opacity" to="0" dur="3.6999999999999997s" /><animate attributeName="stroke-dashoffset" from="150" to="0" dur="1.8s" begin="3.6999999999999997s" fill="freeze" /></path><path d="M22.65,77.75c4.6,2.9,8.13,9.65,9.2,12.28" class="stroke" stroke-dasharray="150"><set attributeName="opacity" to="0" dur="4.6s" /><animate attributeName="stroke-dashoffset" from="150" to="0" dur="1.8s" begin="4.6s" fill="freeze" /></path><path d="M34.29,72.61c4.84,2.56,8.55,8.52,9.68,10.85" class="stroke" stroke-dasharray="150"><set attributeName="opacity" to="0" dur="5.5s" /><animate attributeName="stroke-dashoffset" from="150" to="0" dur="1.8s" begin="5.5s" fill="freeze" /></path><path d="M45.72,28.31c0.94,0.34,2.67,0.39,3.61,0.34c7.33-0.32,26.76-2.99,35.24-3.46c1.57-0.09,2.51,0.17,3.29,0.34" class="stroke" stroke-dasharray="150"><set attributeName="opacity" to="0" dur="6.4s" /><animate attributeName="stroke-dashoffset" from="150" to="0" dur="1.8s" begin="6.4s" fill="freeze" /></path><path d="M59.06,10.25c1.33,0.88,1.93,2.15,2.21,4.05c2.32,15.92,10.77,31.45,27.01,37.39c5.21,1.91,5.13-0.32,3.81-6.6" class="stroke" stroke-dasharray="150"><set attributeName="opacity" to="0" dur="7.5s" /><animate attributeName="stroke-dashoffset" from="150" to="0" dur="1.8s" begin="7.5s" fill="freeze" /></path><path d="M81.68,30.95c-0.19,0.6-0.36,1.23-0.79,1.78C77.11,37.56,67.1,44.5,51.32,50.2" class="stroke" stroke-dasharray="150"><set attributeName="opacity" to="0" dur="9.0s" /><animate attributeName="stroke-dashoffset" from="150" to="0" dur="1.8s" begin="9.0s" fill="freeze" /></path><path d="M72.17,11.18c3.26,1.5,8.46,4.93,9.99,7.5" class="stroke" stroke-dasharray="150"><set attributeName="opacity" to="0" dur="10.0s" /><animate attributeName="stroke-dashoffset" from="150" to="0" dur="1.8s" begin="10.0s" fill="freeze" /></path><path d="M48.02,67.38c0.96,0.44,2.73,0.57,3.69,0.44c8.42-1.12,29.01-3.33,37.68-3.93c1.6-0.11,2.57,0.21,3.37,0.43" class="stroke" stroke-dasharray="150"><set attributeName="opacity" to="0" dur="10.9s" /><animate attributeName="stroke-dashoffset" from="150" to="0" dur="1.8s" begin="10.9s" fill="freeze" /></path><path d="M60.51,52.92c1.43,0.96,2.04,1.71,2.34,3.78c2.5,17.36,10.72,34.3,28.2,40.78c5.61,2.08,5.7-0.73,4.1-7.36" class="stroke" stroke-dasharray="150"><set attributeName="opacity" to="0" dur="12.1s" /><animate attributeName="stroke-dashoffset" from="150" to="0" dur="1.8s" begin="12.1s" fill="freeze" /></path><path d="M83.4,71.53c0.1,0.57,0.22,1.46-0.21,2.28c-2.51,4.8-16.63,15.87-36.39,22.32" class="stroke" stroke-dasharray="150"><set attributeName="opacity" to="0" dur="13.6s" /><animate attributeName="stroke-dashoffset" from="150" to="0" dur="1.8s" begin="13.6s" fill="freeze" /></path><path d="M72.17,51.12c2.77,1.45,7.19,4.77,8.49,7.25" class="stroke" stroke-dasharray="150"><set attributeName="opacity" to="0" dur="14.799999999999999s" /><animate attributeName="stroke-dashoffset" from="150" to="0" dur="1.8s" begin="14.799999999999999s" fill="freeze" /></path><text x="90" y="120" id="reset-kvg-07dab-Kaisho">⟳</text><text x="70" y="120" id="pause-kvg-07dab-Kaisho">◼</text><script type="text/javascript"><![CDATA[function RecurringTimer(e,t){var n,r,i=t;this.pause=function(){window.clearTimeout(n);i-=new Date-r};var s=function(){r=new Date;n=window.setTimeout(function(){i=t;s();e()},i)};this.clear=function(){window.clearTimeout(n);i=t;n=window.setTimeout(function(){i=t;s();e()},i)};this.resume=s;this.resume()}function invoketimer(){timer=new RecurringTimer(function(){svg.setCurrentTime(0)},16700.0)}var svg=document.getElementById("kvg-07dab-Kaisho");var pause=document.getElementById("pause-kvg-07dab-Kaisho");var reset=document.getElementById("reset-kvg-07dab-Kaisho");var timer;invoketimer();reset.onclick=function(){svg.setCurrentTime(0);timer.clear();svg.unpauseAnimations();pause.innerHTML = "◼";};pause.onclick=function(){if(svg.animationsPaused()){svg.unpauseAnimations();timer.resume();pause.innerHTML="◼"}else{svg.pauseAnimations();timer.pause();pause.innerHTML="▶"}}]]></script></svg>