<svg id="kvg-07db5-Kaisho" class="kanjivg" width="106" height="126" xmlns="http://www.w3.org/2000/svg" xmlns:xlink="http://www.w3.org/1999/xlink" xml:space="preserve" version="1.1" baseProfile="full"><defs><style type="text/css"><![CDATA[path.black{fill:none;stroke:black;stroke-width:5;stroke-linecap:round;stroke-linejoin:round;}path.grey{fill:none;stroke:#ddd;stroke-width:5;stroke-linecap:round;stroke-linejoin:round;}path.stroke{fill:none;stroke:black;stroke-width:5;stroke-linecap:round;stroke-linejoin:round;}rect{fill:none;stroke:#555;stroke-width:2;} text{font-size:16px;font-family:Segoe UI Symbol,Cambria Math,DejaVu Sans,Symbola,Quivira,STIX,Code2000;-webkit-touch-callout:none;cursor:pointer;-webkit-user-select:none;-khtml-user-select:none;-moz-user-select:none;-ms-user-select:none;user-select: none;}text:hover{color:#777;}#reset{font-weight:bold;}]]></style><marker id="markerStart" markerWidth="8" markerHeight="8" style="overflow:visible;"><circle cx="0" cy="0" r="1.5" style="stroke:none;fill:red;fill-opacity:0.5;"/></marker><marker id="markerEnd" style="overflow:visible;"><circle cx="0" cy="0" r="0.8" style="stroke:none;fill:blue;fill-opacity:0.5;"><animate attributeName="opacity" from="1" to="0" dur="3s" repeatCount="indefinite" /></circle></marker></defs><rect x="4" y="4" width="100" height="100" /><path d="M25.85,12.25c0.34,1.48,0.42,2.6-0.17,4.18c-2.96,7.97-6.48,13.75-10.08,20.42c-0.48,0.9-0.67,3.41,0,3.69c3.53,1.48,8.48,3.94,11.51,6.65" class="grey" /><path d="M38.44,25.55c0.31,0.67,0.4,2.86,0,3.57C32.45,39.6,23.52,54.19,15.3,63.74c-1.89,2.19,0.47,3.44,1.7,3c5.15-1.87,15.82-5.19,22.44-6.98" class="grey" /><path d="M35.16,51.15c2.67,2.68,6.91,11.02,7.58,15.19" class="grey" /><path d="M10.27,80.33c4.06,3.35,7.17,11.14,8.12,14.17" class="grey" /><path d="M21.9,76c4.6,2.9,8.13,9.65,9.2,12.28" class="grey" /><path d="M33.54,70.86c4.46,2.33,7.89,7.74,8.93,9.85" class="grey" /><path d="M84,10.5c0.09,0.21,0.2,0.55-0.19,0.85C81.49,13.15,68.2,17.09,50,19.5" class="grey" /><path d="M53.69,27.53c0.03,0.44,0.13,1.17-0.05,1.77c-1.22,3.94-5.04,11.45-9.89,16.95" class="grey" /><path d="M65.52,26.11c2.64,2.49,6.82,10.26,7.48,14.14" class="grey" /><path d="M81.36,23.2C86.17,26.25,93.79,35.75,95,40.5" class="grey" /><path d="M47.41,57.03c1.33,0,3.32,0.16,5.08,0.25c4.86,0.25,27.35-2.05,40.39-2.56c1.76-0.07,2.21-0.26,3.31,0" class="grey" /><path d="M67.87,45.25c0.88,0.31,1.58,2.95,1.58,3.6c0,3.97-0.18,42.73-0.18,46.65c0,11-5.77,3-6.77,1.75" class="grey" /><path d="M68.15,58.65c-3.48,9.87-16.26,26.8-25.65,32" class="grey" /><path d="M69.25,58.75c4.5,6.5,17.25,23.5,23.65,28.7c1.4,1.14,2.5,1.71,3.85,2.05" class="grey" /><path d="M25.85,12.25c0.34,1.48,0.42,2.6-0.17,4.18c-2.96,7.97-6.48,13.75-10.08,20.42c-0.48,0.9-0.67,3.41,0,3.69c3.53,1.48,8.48,3.94,11.51,6.65" class="stroke" stroke-dasharray="150"><animate attributeName="stroke-dashoffset" from="150" to="0" dur="1.8s" begin="0.0s" fill="freeze" /></path><path d="M38.44,25.55c0.31,0.67,0.4,2.86,0,3.57C32.45,39.6,23.52,54.19,15.3,63.74c-1.89,2.19,0.47,3.44,1.7,3c5.15-1.87,15.82-5.19,22.44-6.98" class="stroke" stroke-dasharray="150"><set attributeName="opacity" to="0" dur="1.1s" /><animate attributeName="stroke-dashoffset" from="150" to="0" dur="1.8s" begin="1.1s" fill="freeze" /></path><path d="M35.16,51.15c2.67,2.68,6.91,11.02,7.58,15.19" class="stroke" stroke-dasharray="150"><set attributeName="opacity" to="0" dur="2.8s" /><animate attributeName="stroke-dashoffset" from="150" to="0" dur="1.8s" begin="2.8s" fill="freeze" /></path><path d="M10.27,80.33c4.06,3.35,7.17,11.14,8.12,14.17" class="stroke" stroke-dasharray="150"><set attributeName="opacity" to="0" dur="3.6999999999999997s" /><animate attributeName="stroke-dashoffset" from="150" to="0" dur="1.8s" begin="3.6999999999999997s" fill="freeze" /></path><path d="M21.9,76c4.6,2.9,8.13,9.65,9.2,12.28" class="stroke" stroke-dasharray="150"><set attributeName="opacity" to="0" dur="4.6s" /><animate attributeName="stroke-dashoffset" from="150" to="0" dur="1.8s" begin="4.6s" fill="freeze" /></path><path d="M33.54,70.86c4.46,2.33,7.89,7.74,8.93,9.85" class="stroke" stroke-dasharray="150"><set attributeName="opacity" to="0" dur="5.5s" /><animate attributeName="stroke-dashoffset" from="150" to="0" dur="1.8s" begin="5.5s" fill="freeze" /></path><path d="M84,10.5c0.09,0.21,0.2,0.55-0.19,0.85C81.49,13.15,68.2,17.09,50,19.5" class="stroke" stroke-dasharray="150"><set attributeName="opacity" to="0" dur="6.4s" /><animate attributeName="stroke-dashoffset" from="150" to="0" dur="1.8s" begin="6.4s" fill="freeze" /></path><path d="M53.69,27.53c0.03,0.44,0.13,1.17-0.05,1.77c-1.22,3.94-5.04,11.45-9.89,16.95" class="stroke" stroke-dasharray="150"><set attributeName="opacity" to="0" dur="7.4s" /><animate attributeName="stroke-dashoffset" from="150" to="0" dur="1.8s" begin="7.4s" fill="freeze" /></path><path d="M65.52,26.11c2.64,2.49,6.82,10.26,7.48,14.14" class="stroke" stroke-dasharray="150"><set attributeName="opacity" to="0" dur="8.4s" /><animate attributeName="stroke-dashoffset" from="150" to="0" dur="1.8s" begin="8.4s" fill="freeze" /></path><path d="M81.36,23.2C86.17,26.25,93.79,35.75,95,40.5" class="stroke" stroke-dasharray="150"><set attributeName="opacity" to="0" dur="9.3s" /><animate attributeName="stroke-dashoffset" from="150" to="0" dur="1.8s" begin="9.3s" fill="freeze" /></path><path d="M47.41,57.03c1.33,0,3.32,0.16,5.08,0.25c4.86,0.25,27.35-2.05,40.39-2.56c1.76-0.07,2.21-0.26,3.31,0" class="stroke" stroke-dasharray="150"><set attributeName="opacity" to="0" dur="10.3s" /><animate attributeName="stroke-dashoffset" from="150" to="0" dur="1.8s" begin="10.3s" fill="freeze" /></path><path d="M67.87,45.25c0.88,0.31,1.58,2.95,1.58,3.6c0,3.97-0.18,42.73-0.18,46.65c0,11-5.77,3-6.77,1.75" class="stroke" stroke-dasharray="150"><set attributeName="opacity" to="0" dur="11.5s" /><animate attributeName="stroke-dashoffset" from="150" to="0" dur="1.8s" begin="11.5s" fill="freeze" /></path><path d="M68.15,58.65c-3.48,9.87-16.26,26.8-25.65,32" class="stroke" stroke-dasharray="150"><set attributeName="opacity" to="0" dur="13.0s" /><animate attributeName="stroke-dashoffset" from="150" to="0" dur="1.8s" begin="13.0s" fill="freeze" /></path><path d="M69.25,58.75c4.5,6.5,17.25,23.5,23.65,28.7c1.4,1.14,2.5,1.71,3.85,2.05" class="stroke" stroke-dasharray="150"><set attributeName="opacity" to="0" dur="14.1s" /><animate attributeName="stroke-dashoffset" from="150" to="0" dur="1.8s" begin="14.1s" fill="freeze" /></path><text x="90" y="120" id="reset-kvg-07db5-Kaisho">⟳</text><text x="70" y="120" id="pause-kvg-07db5-Kaisho">◼</text><script type="text/javascript"><![CDATA[function RecurringTimer(e,t){var n,r,i=t;this.pause=function(){window.clearTimeout(n);i-=new Date-r};var s=function(){r=new Date;n=window.setTimeout(function(){i=t;s();e()},i)};this.clear=function(){window.clearTimeout(n);i=t;n=window.setTimeout(function(){i=t;s();e()},i)};this.resume=s;this.resume()}function invoketimer(){timer=new RecurringTimer(function(){svg.setCurrentTime(0)},16200.0)}var svg=document.getElementById("kvg-07db5-Kaisho");var pause=document.getElementById("pause-kvg-07db5-Kaisho");var reset=document.getElementById("reset-kvg-07db5-Kaisho");var timer;invoketimer();reset.onclick=function(){svg.setCurrentTime(0);timer.clear();svg.unpauseAnimations();pause.innerHTML = "◼";};pause.onclick=function(){if(svg.animationsPaused()){svg.unpauseAnimations();timer.resume();pause.innerHTML="◼"}else{svg.pauseAnimations();timer.pause();pause.innerHTML="▶"}}]]></script></svg>