<svg id="kvg-07dec-Kaisho" class="kanjivg" width="106" height="126" xmlns="http://www.w3.org/2000/svg" xmlns:xlink="http://www.w3.org/1999/xlink" xml:space="preserve" version="1.1" baseProfile="full"><defs><style type="text/css"><![CDATA[path.black{fill:none;stroke:black;stroke-width:5;stroke-linecap:round;stroke-linejoin:round;}path.grey{fill:none;stroke:#ddd;stroke-width:5;stroke-linecap:round;stroke-linejoin:round;}path.stroke{fill:none;stroke:black;stroke-width:5;stroke-linecap:round;stroke-linejoin:round;}rect{fill:none;stroke:#555;stroke-width:2;} text{font-size:16px;font-family:Segoe UI Symbol,Cambria Math,DejaVu Sans,Symbola,Quivira,STIX,Code2000;-webkit-touch-callout:none;cursor:pointer;-webkit-user-select:none;-khtml-user-select:none;-moz-user-select:none;-ms-user-select:none;user-select: none;}text:hover{color:#777;}#reset{font-weight:bold;}]]></style><marker id="markerStart" markerWidth="8" markerHeight="8" style="overflow:visible;"><circle cx="0" cy="0" r="1.5" style="stroke:none;fill:red;fill-opacity:0.5;"/></marker><marker id="markerEnd" style="overflow:visible;"><circle cx="0" cy="0" r="0.8" style="stroke:none;fill:blue;fill-opacity:0.5;"><animate attributeName="opacity" from="1" to="0" dur="3s" repeatCount="indefinite" /></circle></marker></defs><rect x="4" y="4" width="100" height="100" /><path d="M25.9,14.75c0.31,1.43,0.39,2.52-0.16,4.06C23,26.54,19.75,32.13,16.42,38.6c-0.45,0.87-0.62,3.31,0,3.58c3.26,1.43,7.84,3.82,10.64,6.44" class="grey" /><path d="M37.53,27.65c0.29,0.65,0.38,2.77,0,3.46C32,41.27,23.75,55.41,16.15,64.68c-1.74,2.12,0.43,3.34,1.57,2.91c4.75-1.81,14.62-5.04,20.73-6.77" class="grey" /><path d="M34.5,52.47c2.47,2.6,6.38,10.69,7,14.73" class="grey" /><path d="M11.5,80.76c3.75,3.25,6.63,10.8,7.5,13.74" class="grey" /><path d="M22.25,76.56c4.25,2.82,7.51,9.36,8.5,11.91" class="grey" /><path d="M33,71.57c4.12,2.26,7.29,7.5,8.25,9.55" class="grey" /><path d="M42.28,18.07c1.28,0.46,3.63,1,4.91,0.96c8.32-0.28,31.05-3.81,45.53-4.02c2.13-0.03,3.41,0.22,4.48,0.45" class="grey" /><path d="M66.24,20.68c0.02,0.44,0.04,1.13-0.04,1.75c-0.53,3.7-3.54,11.81-7.66,16.78" class="grey" /><path d="M45.75,41.06c0.72,1.01,1.03,1.78,1.13,3.12C48,59,48.75,76,49.25,95" class="grey" /><path d="M46.92,42.77c11.66-1.36,35.66-3.82,43.09-4.13c3.08-0.12,4.69,2.77,4.46,5.68c-0.93,12.02-1.73,30.93-3.73,48.29" class="grey" /><path d="M61.3,42.96c0.48,0.79,0.95,2.11,0.95,3.17c0,1.06,1.13,45.51,1.13,45.51" class="grey" /><path d="M77.3,40.32c0.48,1.32,0.95,2.11,0.95,3.17c0,1.06-1.11,44.69-1.11,47.33" class="grey" /><path d="M62.73,57.16c1.58,0,7.49-0.85,9.08-0.85" class="grey" /><path d="M63.2,72.79c4.55-0.29,6.22-0.58,8.44-0.85" class="grey" /><path d="M49.53,92.28c3.33-0.27,36.6-1.67,40.56-1.67" class="grey" /><path d="M25.9,14.75c0.31,1.43,0.39,2.52-0.16,4.06C23,26.54,19.75,32.13,16.42,38.6c-0.45,0.87-0.62,3.31,0,3.58c3.26,1.43,7.84,3.82,10.64,6.44" class="stroke" stroke-dasharray="150"><animate attributeName="stroke-dashoffset" from="150" to="0" dur="1.8s" begin="0.0s" fill="freeze" /></path><path d="M37.53,27.65c0.29,0.65,0.38,2.77,0,3.46C32,41.27,23.75,55.41,16.15,64.68c-1.74,2.12,0.43,3.34,1.57,2.91c4.75-1.81,14.62-5.04,20.73-6.77" class="stroke" stroke-dasharray="150"><set attributeName="opacity" to="0" dur="1.1s" /><animate attributeName="stroke-dashoffset" from="150" to="0" dur="1.8s" begin="1.1s" fill="freeze" /></path><path d="M34.5,52.47c2.47,2.6,6.38,10.69,7,14.73" class="stroke" stroke-dasharray="150"><set attributeName="opacity" to="0" dur="2.6s" /><animate attributeName="stroke-dashoffset" from="150" to="0" dur="1.8s" begin="2.6s" fill="freeze" /></path><path d="M11.5,80.76c3.75,3.25,6.63,10.8,7.5,13.74" class="stroke" stroke-dasharray="150"><set attributeName="opacity" to="0" dur="3.5s" /><animate attributeName="stroke-dashoffset" from="150" to="0" dur="1.8s" begin="3.5s" fill="freeze" /></path><path d="M22.25,76.56c4.25,2.82,7.51,9.36,8.5,11.91" class="stroke" stroke-dasharray="150"><set attributeName="opacity" to="0" dur="4.4s" /><animate attributeName="stroke-dashoffset" from="150" to="0" dur="1.8s" begin="4.4s" fill="freeze" /></path><path d="M33,71.57c4.12,2.26,7.29,7.5,8.25,9.55" class="stroke" stroke-dasharray="150"><set attributeName="opacity" to="0" dur="5.300000000000001s" /><animate attributeName="stroke-dashoffset" from="150" to="0" dur="1.8s" begin="5.300000000000001s" fill="freeze" /></path><path d="M42.28,18.07c1.28,0.46,3.63,1,4.91,0.96c8.32-0.28,31.05-3.81,45.53-4.02c2.13-0.03,3.41,0.22,4.48,0.45" class="stroke" stroke-dasharray="150"><set attributeName="opacity" to="0" dur="6.200000000000001s" /><animate attributeName="stroke-dashoffset" from="150" to="0" dur="1.8s" begin="6.200000000000001s" fill="freeze" /></path><path d="M66.24,20.68c0.02,0.44,0.04,1.13-0.04,1.75c-0.53,3.7-3.54,11.81-7.66,16.78" class="stroke" stroke-dasharray="150"><set attributeName="opacity" to="0" dur="7.600000000000001s" /><animate attributeName="stroke-dashoffset" from="150" to="0" dur="1.8s" begin="7.600000000000001s" fill="freeze" /></path><path d="M45.75,41.06c0.72,1.01,1.03,1.78,1.13,3.12C48,59,48.75,76,49.25,95" class="stroke" stroke-dasharray="150"><set attributeName="opacity" to="0" dur="8.600000000000001s" /><animate attributeName="stroke-dashoffset" from="150" to="0" dur="1.8s" begin="8.600000000000001s" fill="freeze" /></path><path d="M46.92,42.77c11.66-1.36,35.66-3.82,43.09-4.13c3.08-0.12,4.69,2.77,4.46,5.68c-0.93,12.02-1.73,30.93-3.73,48.29" class="stroke" stroke-dasharray="150"><set attributeName="opacity" to="0" dur="9.900000000000002s" /><animate attributeName="stroke-dashoffset" from="150" to="0" dur="1.8s" begin="9.900000000000002s" fill="freeze" /></path><path d="M61.3,42.96c0.48,0.79,0.95,2.11,0.95,3.17c0,1.06,1.13,45.51,1.13,45.51" class="stroke" stroke-dasharray="150"><set attributeName="opacity" to="0" dur="11.700000000000003s" /><animate attributeName="stroke-dashoffset" from="150" to="0" dur="1.8s" begin="11.700000000000003s" fill="freeze" /></path><path d="M77.3,40.32c0.48,1.32,0.95,2.11,0.95,3.17c0,1.06-1.11,44.69-1.11,47.33" class="stroke" stroke-dasharray="150"><set attributeName="opacity" to="0" dur="12.900000000000002s" /><animate attributeName="stroke-dashoffset" from="150" to="0" dur="1.8s" begin="12.900000000000002s" fill="freeze" /></path><path d="M62.73,57.16c1.58,0,7.49-0.85,9.08-0.85" class="stroke" stroke-dasharray="150"><set attributeName="opacity" to="0" dur="14.200000000000003s" /><animate attributeName="stroke-dashoffset" from="150" to="0" dur="1.8s" begin="14.200000000000003s" fill="freeze" /></path><path d="M63.2,72.79c4.55-0.29,6.22-0.58,8.44-0.85" class="stroke" stroke-dasharray="150"><set attributeName="opacity" to="0" dur="15.100000000000003s" /><animate attributeName="stroke-dashoffset" from="150" to="0" dur="1.8s" begin="15.100000000000003s" fill="freeze" /></path><path d="M49.53,92.28c3.33-0.27,36.6-1.67,40.56-1.67" class="stroke" stroke-dasharray="150"><set attributeName="opacity" to="0" dur="16.000000000000004s" /><animate attributeName="stroke-dashoffset" from="150" to="0" dur="1.8s" begin="16.000000000000004s" fill="freeze" /></path><text x="90" y="120" id="reset-kvg-07dec-Kaisho">⟳</text><text x="70" y="120" id="pause-kvg-07dec-Kaisho">◼</text><script type="text/javascript"><![CDATA[function RecurringTimer(e,t){var n,r,i=t;this.pause=function(){window.clearTimeout(n);i-=new Date-r};var s=function(){r=new Date;n=window.setTimeout(function(){i=t;s();e()},i)};this.clear=function(){window.clearTimeout(n);i=t;n=window.setTimeout(function(){i=t;s();e()},i)};this.resume=s;this.resume()}function invoketimer(){timer=new RecurringTimer(function(){svg.setCurrentTime(0)},18100.000000000004)}var svg=document.getElementById("kvg-07dec-Kaisho");var pause=document.getElementById("pause-kvg-07dec-Kaisho");var reset=document.getElementById("reset-kvg-07dec-Kaisho");var timer;invoketimer();reset.onclick=function(){svg.setCurrentTime(0);timer.clear();svg.unpauseAnimations();pause.innerHTML = "◼";};pause.onclick=function(){if(svg.animationsPaused()){svg.unpauseAnimations();timer.resume();pause.innerHTML="◼"}else{svg.pauseAnimations();timer.pause();pause.innerHTML="▶"}}]]></script></svg>