<svg id="kvg-07de9-Kaisho" class="kanjivg" width="106" height="126" xmlns="http://www.w3.org/2000/svg" xmlns:xlink="http://www.w3.org/1999/xlink" xml:space="preserve" version="1.1" baseProfile="full"><defs><style type="text/css"><![CDATA[path.black{fill:none;stroke:black;stroke-width:5;stroke-linecap:round;stroke-linejoin:round;}path.grey{fill:none;stroke:#ddd;stroke-width:5;stroke-linecap:round;stroke-linejoin:round;}path.stroke{fill:none;stroke:black;stroke-width:5;stroke-linecap:round;stroke-linejoin:round;}rect{fill:none;stroke:#555;stroke-width:2;} text{font-size:16px;font-family:Segoe UI Symbol,Cambria Math,DejaVu Sans,Symbola,Quivira,STIX,Code2000;-webkit-touch-callout:none;cursor:pointer;-webkit-user-select:none;-khtml-user-select:none;-moz-user-select:none;-ms-user-select:none;user-select: none;}text:hover{color:#777;}#reset{font-weight:bold;}]]></style><marker id="markerStart" markerWidth="8" markerHeight="8" style="overflow:visible;"><circle cx="0" cy="0" r="1.5" style="stroke:none;fill:red;fill-opacity:0.5;"/></marker><marker id="markerEnd" style="overflow:visible;"><circle cx="0" cy="0" r="0.8" style="stroke:none;fill:blue;fill-opacity:0.5;"><animate attributeName="opacity" from="1" to="0" dur="3s" repeatCount="indefinite" /></circle></marker></defs><rect x="4" y="4" width="100" height="100" /><path d="M77.24,12.04c0.07,0.31,0.15,0.8-0.14,1.25c-1.72,2.64-11.59,8.42-25.1,11.96" class="grey" /><path d="M49.5,30.75c1.86,1.56,4.81,6.4,5.28,8.82" class="grey" /><path d="M63.62,27c1.53,1.54,3.96,6.35,4.34,8.75" class="grey" /><path d="M87.52,22.89c0.03,0.34,0.07,0.89-0.06,1.38c-0.75,2.92-5.06,9.31-10.96,13.23" class="grey" /><path d="M51.54,46.22c0.81,0.36,2.29,0.43,3.11,0.36c6.11-0.57,21.86-2.82,27.1-3.69c1.33-0.22,2.16,0.17,2.84,0.35" class="grey" /><path d="M47.86,59.78c1.31,0.5,3.72,0.69,5.02,0.5C62,59,79.25,56.25,86.04,55.81c2.18-0.14,3.49,0.24,4.59,0.49" class="grey" /><path d="M63.34,47.29c0.19,0.79,0.41,1.66,0.22,3.09C62.18,60.95,56.41,78.2,44,89.75" class="grey" /><path d="M61.64,68.35c0.25,0.03,2.01-0.03,2.74-0.09c3.26-0.25,11.46-2.3,14.88-3.18c2.34-0.61,2.83,1.2,2.04,2.75c-4.31,8.46-18.69,22.89-33.32,27.53" class="grey" /><path d="M57.5,72.75c3.54,0.6,21.3,13.68,28.1,17.5c5.06,2.84,9.39,4.13,11.2,4.42" class="grey" /><path d="M28.37,14.75c0.32,1.42,0.4,2.5-0.16,4.02c-2.84,7.66-6.21,13.2-9.65,19.61c-0.46,0.86-0.64,3.28,0,3.55c3.38,1.42,8.12,3.78,11.02,6.38" class="grey" /><path d="M40.43,27.53c0.3,0.64,0.39,2.75,0,3.43C34.7,41.02,26.15,55.03,18.28,64.21c-1.81,2.1,0.45,3.31,1.62,2.88c4.93-1.79,15.15-4.99,21.48-6.7" class="grey" /><path d="M37.29,52.11c2.56,2.58,6.61,10.59,7.25,14.59" class="grey" /><path d="M13.46,80.14c3.89,3.22,6.87,10.7,7.77,13.61" class="grey" /><path d="M24.6,75.98c4.4,2.79,7.78,9.27,8.81,11.8" class="grey" /><path d="M35.74,71.04c4.27,2.24,7.55,7.43,8.55,9.46" class="grey" /><path d="M77.24,12.04c0.07,0.31,0.15,0.8-0.14,1.25c-1.72,2.64-11.59,8.42-25.1,11.96" class="stroke" stroke-dasharray="150"><animate attributeName="stroke-dashoffset" from="150" to="0" dur="1.8s" begin="0.0s" fill="freeze" /></path><path d="M49.5,30.75c1.86,1.56,4.81,6.4,5.28,8.82" class="stroke" stroke-dasharray="150"><set attributeName="opacity" to="0" dur="1.0s" /><animate attributeName="stroke-dashoffset" from="150" to="0" dur="1.8s" begin="1.0s" fill="freeze" /></path><path d="M63.62,27c1.53,1.54,3.96,6.35,4.34,8.75" class="stroke" stroke-dasharray="150"><set attributeName="opacity" to="0" dur="1.9s" /><animate attributeName="stroke-dashoffset" from="150" to="0" dur="1.8s" begin="1.9s" fill="freeze" /></path><path d="M87.52,22.89c0.03,0.34,0.07,0.89-0.06,1.38c-0.75,2.92-5.06,9.31-10.96,13.23" class="stroke" stroke-dasharray="150"><set attributeName="opacity" to="0" dur="2.8s" /><animate attributeName="stroke-dashoffset" from="150" to="0" dur="1.8s" begin="2.8s" fill="freeze" /></path><path d="M51.54,46.22c0.81,0.36,2.29,0.43,3.11,0.36c6.11-0.57,21.86-2.82,27.1-3.69c1.33-0.22,2.16,0.17,2.84,0.35" class="stroke" stroke-dasharray="150"><set attributeName="opacity" to="0" dur="3.6999999999999997s" /><animate attributeName="stroke-dashoffset" from="150" to="0" dur="1.8s" begin="3.6999999999999997s" fill="freeze" /></path><path d="M47.86,59.78c1.31,0.5,3.72,0.69,5.02,0.5C62,59,79.25,56.25,86.04,55.81c2.18-0.14,3.49,0.24,4.59,0.49" class="stroke" stroke-dasharray="150"><set attributeName="opacity" to="0" dur="4.699999999999999s" /><animate attributeName="stroke-dashoffset" from="150" to="0" dur="1.8s" begin="4.699999999999999s" fill="freeze" /></path><path d="M63.34,47.29c0.19,0.79,0.41,1.66,0.22,3.09C62.18,60.95,56.41,78.2,44,89.75" class="stroke" stroke-dasharray="150"><set attributeName="opacity" to="0" dur="5.799999999999999s" /><animate attributeName="stroke-dashoffset" from="150" to="0" dur="1.8s" begin="5.799999999999999s" fill="freeze" /></path><path d="M61.64,68.35c0.25,0.03,2.01-0.03,2.74-0.09c3.26-0.25,11.46-2.3,14.88-3.18c2.34-0.61,2.83,1.2,2.04,2.75c-4.31,8.46-18.69,22.89-33.32,27.53" class="stroke" stroke-dasharray="150"><set attributeName="opacity" to="0" dur="6.999999999999999s" /><animate attributeName="stroke-dashoffset" from="150" to="0" dur="1.8s" begin="6.999999999999999s" fill="freeze" /></path><path d="M57.5,72.75c3.54,0.6,21.3,13.68,28.1,17.5c5.06,2.84,9.39,4.13,11.2,4.42" class="stroke" stroke-dasharray="150"><set attributeName="opacity" to="0" dur="8.5s" /><animate attributeName="stroke-dashoffset" from="150" to="0" dur="1.8s" begin="8.5s" fill="freeze" /></path><path d="M28.37,14.75c0.32,1.42,0.4,2.5-0.16,4.02c-2.84,7.66-6.21,13.2-9.65,19.61c-0.46,0.86-0.64,3.28,0,3.55c3.38,1.42,8.12,3.78,11.02,6.38" class="stroke" stroke-dasharray="150"><set attributeName="opacity" to="0" dur="9.7s" /><animate attributeName="stroke-dashoffset" from="150" to="0" dur="1.8s" begin="9.7s" fill="freeze" /></path><path d="M40.43,27.53c0.3,0.64,0.39,2.75,0,3.43C34.7,41.02,26.15,55.03,18.28,64.21c-1.81,2.1,0.45,3.31,1.62,2.88c4.93-1.79,15.15-4.99,21.48-6.7" class="stroke" stroke-dasharray="150"><set attributeName="opacity" to="0" dur="10.799999999999999s" /><animate attributeName="stroke-dashoffset" from="150" to="0" dur="1.8s" begin="10.799999999999999s" fill="freeze" /></path><path d="M37.29,52.11c2.56,2.58,6.61,10.59,7.25,14.59" class="stroke" stroke-dasharray="150"><set attributeName="opacity" to="0" dur="12.499999999999998s" /><animate attributeName="stroke-dashoffset" from="150" to="0" dur="1.8s" begin="12.499999999999998s" fill="freeze" /></path><path d="M13.46,80.14c3.89,3.22,6.87,10.7,7.77,13.61" class="stroke" stroke-dasharray="150"><set attributeName="opacity" to="0" dur="13.399999999999999s" /><animate attributeName="stroke-dashoffset" from="150" to="0" dur="1.8s" begin="13.399999999999999s" fill="freeze" /></path><path d="M24.6,75.98c4.4,2.79,7.78,9.27,8.81,11.8" class="stroke" stroke-dasharray="150"><set attributeName="opacity" to="0" dur="14.299999999999999s" /><animate attributeName="stroke-dashoffset" from="150" to="0" dur="1.8s" begin="14.299999999999999s" fill="freeze" /></path><path d="M35.74,71.04c4.27,2.24,7.55,7.43,8.55,9.46" class="stroke" stroke-dasharray="150"><set attributeName="opacity" to="0" dur="15.2s" /><animate attributeName="stroke-dashoffset" from="150" to="0" dur="1.8s" begin="15.2s" fill="freeze" /></path><text x="90" y="120" id="reset-kvg-07de9-Kaisho">⟳</text><text x="70" y="120" id="pause-kvg-07de9-Kaisho">◼</text><script type="text/javascript"><![CDATA[function RecurringTimer(e,t){var n,r,i=t;this.pause=function(){window.clearTimeout(n);i-=new Date-r};var s=function(){r=new Date;n=window.setTimeout(function(){i=t;s();e()},i)};this.clear=function(){window.clearTimeout(n);i=t;n=window.setTimeout(function(){i=t;s();e()},i)};this.resume=s;this.resume()}function invoketimer(){timer=new RecurringTimer(function(){svg.setCurrentTime(0)},17100.0)}var svg=document.getElementById("kvg-07de9-Kaisho");var pause=document.getElementById("pause-kvg-07de9-Kaisho");var reset=document.getElementById("reset-kvg-07de9-Kaisho");var timer;invoketimer();reset.onclick=function(){svg.setCurrentTime(0);timer.clear();svg.unpauseAnimations();pause.innerHTML = "◼";};pause.onclick=function(){if(svg.animationsPaused()){svg.unpauseAnimations();timer.resume();pause.innerHTML="◼"}else{svg.pauseAnimations();timer.pause();pause.innerHTML="▶"}}]]></script></svg>