<svg id="kvg-07e0b-Kaisho" class="kanjivg" width="106" height="126" xmlns="http://www.w3.org/2000/svg" xmlns:xlink="http://www.w3.org/1999/xlink" xml:space="preserve" version="1.1" baseProfile="full"><defs><style type="text/css"><![CDATA[path.black{fill:none;stroke:black;stroke-width:5;stroke-linecap:round;stroke-linejoin:round;}path.grey{fill:none;stroke:#ddd;stroke-width:5;stroke-linecap:round;stroke-linejoin:round;}path.stroke{fill:none;stroke:black;stroke-width:5;stroke-linecap:round;stroke-linejoin:round;}rect{fill:none;stroke:#555;stroke-width:2;} text{font-size:16px;font-family:Segoe UI Symbol,Cambria Math,DejaVu Sans,Symbola,Quivira,STIX,Code2000;-webkit-touch-callout:none;cursor:pointer;-webkit-user-select:none;-khtml-user-select:none;-moz-user-select:none;-ms-user-select:none;user-select: none;}text:hover{color:#777;}#reset{font-weight:bold;}]]></style><marker id="markerStart" markerWidth="8" markerHeight="8" style="overflow:visible;"><circle cx="0" cy="0" r="1.5" style="stroke:none;fill:red;fill-opacity:0.5;"/></marker><marker id="markerEnd" style="overflow:visible;"><circle cx="0" cy="0" r="0.8" style="stroke:none;fill:blue;fill-opacity:0.5;"><animate attributeName="opacity" from="1" to="0" dur="3s" repeatCount="indefinite" /></circle></marker></defs><rect x="4" y="4" width="100" height="100" /><path d="M24.12,11.5c0.32,1.46,0.4,2.58-0.16,4.14c-2.84,7.9-6.21,13.62-9.65,20.23c-0.46,0.89-0.64,3.38,0,3.66c3.38,1.46,8.12,3.9,11.02,6.58" class="grey" /><path d="M36.18,24.68c0.3,0.66,0.39,2.83,0,3.54C30.45,38.6,21.9,53.05,14.03,62.52c-1.8,2.17,0.45,3.41,1.62,2.97c4.93-1.85,15.15-5.15,21.48-6.91" class="grey" /><path d="M33.04,50.04c2.56,2.66,6.61,10.92,7.25,15.06" class="grey" /><path d="M9.21,78.96c3.89,3.32,6.87,11.04,7.77,14.04" class="grey" /><path d="M20.35,74.66c4.4,2.88,7.78,9.56,8.81,12.17" class="grey" /><path d="M31.49,69.57c4.27,2.31,7.55,7.67,8.55,9.76" class="grey" /><path d="M81.25,12.25c0.02,0.31,0.04,0.81-0.04,1.26c-0.5,2.65-3.58,8.94-7.46,12.49" class="grey" /><path d="M66.92,27.25c0.49,0.48,0.79,2.14,0.89,3.09c0.1,0.95,0,44.48-0.1,50.41" class="grey" /><path d="M68.5,29.81c6.67-1.39,19.24-2.82,22.67-3.29c1.26-0.17,2.01,1.73,1.83,2.74c-0.75,4.18-1.59,7.28-3.19,13.3" class="grey" /><path d="M67.97,45.57c9.98-0.8,18.57-1.88,23.28-2.17" class="grey" /><path d="M67.92,59.24c7.08-0.74,19.84-1.82,23.2-2.3c1.23-0.17,1.97,1.78,1.8,2.83c-0.73,4.31-2.06,9.01-3.62,15.22" class="grey" /><path d="M68.13,77.15c3.66-0.37,18.97-1.4,23.62-1.77" class="grey" /><path d="M45.71,15.5c3.89,1.54,9.04,5.25,11.04,8.25" class="grey" /><path d="M44.25,35c3.35,1.24,8.66,5.08,9.5,7" class="grey" /><path d="M44.25,55.5c1.82,0.88,3.04,1.42,3.85,1.2c0.81-0.22,6.67-2.51,7.88-2.96c1.22-0.44,2.54,0.11,1.73,1.43c-0.81,1.33-4.59,8.47-5.2,9.58c-0.61,1.11-0.96,2.95,0.25,4.5c1.21,1.55,1.97,2.97,3,4c1.5,1.5,1.71,3.64,0.5,4.75c-1.21,1.11-9.29,6.81-10.5,7.25" class="grey" /><path d="M42.16,86.28c2.08-0.4,6.25-1.4,9.38-0.6c3.12,0.8,20.89,5.37,23.96,6.4c8.34,2.8,14.76,2.8,21.01,1.4" class="grey" /><path d="M24.12,11.5c0.32,1.46,0.4,2.58-0.16,4.14c-2.84,7.9-6.21,13.62-9.65,20.23c-0.46,0.89-0.64,3.38,0,3.66c3.38,1.46,8.12,3.9,11.02,6.58" class="stroke" stroke-dasharray="150"><animate attributeName="stroke-dashoffset" from="150" to="0" dur="1.8s" begin="0.0s" fill="freeze" /></path><path d="M36.18,24.68c0.3,0.66,0.39,2.83,0,3.54C30.45,38.6,21.9,53.05,14.03,62.52c-1.8,2.17,0.45,3.41,1.62,2.97c4.93-1.85,15.15-5.15,21.48-6.91" class="stroke" stroke-dasharray="150"><set attributeName="opacity" to="0" dur="1.1s" /><animate attributeName="stroke-dashoffset" from="150" to="0" dur="1.8s" begin="1.1s" fill="freeze" /></path><path d="M33.04,50.04c2.56,2.66,6.61,10.92,7.25,15.06" class="stroke" stroke-dasharray="150"><set attributeName="opacity" to="0" dur="2.8s" /><animate attributeName="stroke-dashoffset" from="150" to="0" dur="1.8s" begin="2.8s" fill="freeze" /></path><path d="M9.21,78.96c3.89,3.32,6.87,11.04,7.77,14.04" class="stroke" stroke-dasharray="150"><set attributeName="opacity" to="0" dur="3.6999999999999997s" /><animate attributeName="stroke-dashoffset" from="150" to="0" dur="1.8s" begin="3.6999999999999997s" fill="freeze" /></path><path d="M20.35,74.66c4.4,2.88,7.78,9.56,8.81,12.17" class="stroke" stroke-dasharray="150"><set attributeName="opacity" to="0" dur="4.6s" /><animate attributeName="stroke-dashoffset" from="150" to="0" dur="1.8s" begin="4.6s" fill="freeze" /></path><path d="M31.49,69.57c4.27,2.31,7.55,7.67,8.55,9.76" class="stroke" stroke-dasharray="150"><set attributeName="opacity" to="0" dur="5.5s" /><animate attributeName="stroke-dashoffset" from="150" to="0" dur="1.8s" begin="5.5s" fill="freeze" /></path><path d="M81.25,12.25c0.02,0.31,0.04,0.81-0.04,1.26c-0.5,2.65-3.58,8.94-7.46,12.49" class="stroke" stroke-dasharray="150"><set attributeName="opacity" to="0" dur="6.4s" /><animate attributeName="stroke-dashoffset" from="150" to="0" dur="1.8s" begin="6.4s" fill="freeze" /></path><path d="M66.92,27.25c0.49,0.48,0.79,2.14,0.89,3.09c0.1,0.95,0,44.48-0.1,50.41" class="stroke" stroke-dasharray="150"><set attributeName="opacity" to="0" dur="7.300000000000001s" /><animate attributeName="stroke-dashoffset" from="150" to="0" dur="1.8s" begin="7.300000000000001s" fill="freeze" /></path><path d="M68.5,29.81c6.67-1.39,19.24-2.82,22.67-3.29c1.26-0.17,2.01,1.73,1.83,2.74c-0.75,4.18-1.59,7.28-3.19,13.3" class="stroke" stroke-dasharray="150"><set attributeName="opacity" to="0" dur="8.600000000000001s" /><animate attributeName="stroke-dashoffset" from="150" to="0" dur="1.8s" begin="8.600000000000001s" fill="freeze" /></path><path d="M67.97,45.57c9.98-0.8,18.57-1.88,23.28-2.17" class="stroke" stroke-dasharray="150"><set attributeName="opacity" to="0" dur="9.700000000000001s" /><animate attributeName="stroke-dashoffset" from="150" to="0" dur="1.8s" begin="9.700000000000001s" fill="freeze" /></path><path d="M67.92,59.24c7.08-0.74,19.84-1.82,23.2-2.3c1.23-0.17,1.97,1.78,1.8,2.83c-0.73,4.31-2.06,9.01-3.62,15.22" class="stroke" stroke-dasharray="150"><set attributeName="opacity" to="0" dur="10.700000000000001s" /><animate attributeName="stroke-dashoffset" from="150" to="0" dur="1.8s" begin="10.700000000000001s" fill="freeze" /></path><path d="M68.13,77.15c3.66-0.37,18.97-1.4,23.62-1.77" class="stroke" stroke-dasharray="150"><set attributeName="opacity" to="0" dur="11.8s" /><animate attributeName="stroke-dashoffset" from="150" to="0" dur="1.8s" begin="11.8s" fill="freeze" /></path><path d="M45.71,15.5c3.89,1.54,9.04,5.25,11.04,8.25" class="stroke" stroke-dasharray="150"><set attributeName="opacity" to="0" dur="12.8s" /><animate attributeName="stroke-dashoffset" from="150" to="0" dur="1.8s" begin="12.8s" fill="freeze" /></path><path d="M44.25,35c3.35,1.24,8.66,5.08,9.5,7" class="stroke" stroke-dasharray="150"><set attributeName="opacity" to="0" dur="13.700000000000001s" /><animate attributeName="stroke-dashoffset" from="150" to="0" dur="1.8s" begin="13.700000000000001s" fill="freeze" /></path><path d="M44.25,55.5c1.82,0.88,3.04,1.42,3.85,1.2c0.81-0.22,6.67-2.51,7.88-2.96c1.22-0.44,2.54,0.11,1.73,1.43c-0.81,1.33-4.59,8.47-5.2,9.58c-0.61,1.11-0.96,2.95,0.25,4.5c1.21,1.55,1.97,2.97,3,4c1.5,1.5,1.71,3.64,0.5,4.75c-1.21,1.11-9.29,6.81-10.5,7.25" class="stroke" stroke-dasharray="150"><set attributeName="opacity" to="0" dur="14.600000000000001s" /><animate attributeName="stroke-dashoffset" from="150" to="0" dur="1.8s" begin="14.600000000000001s" fill="freeze" /></path><path d="M42.16,86.28c2.08-0.4,6.25-1.4,9.38-0.6c3.12,0.8,20.89,5.37,23.96,6.4c8.34,2.8,14.76,2.8,21.01,1.4" class="stroke" stroke-dasharray="150"><set attributeName="opacity" to="0" dur="15.900000000000002s" /><animate attributeName="stroke-dashoffset" from="150" to="0" dur="1.8s" begin="15.900000000000002s" fill="freeze" /></path><text x="90" y="120" id="reset-kvg-07e0b-Kaisho">⟳</text><text x="70" y="120" id="pause-kvg-07e0b-Kaisho">◼</text><script type="text/javascript"><![CDATA[function RecurringTimer(e,t){var n,r,i=t;this.pause=function(){window.clearTimeout(n);i-=new Date-r};var s=function(){r=new Date;n=window.setTimeout(function(){i=t;s();e()},i)};this.clear=function(){window.clearTimeout(n);i=t;n=window.setTimeout(function(){i=t;s();e()},i)};this.resume=s;this.resume()}function invoketimer(){timer=new RecurringTimer(function(){svg.setCurrentTime(0)},18300.0)}var svg=document.getElementById("kvg-07e0b-Kaisho");var pause=document.getElementById("pause-kvg-07e0b-Kaisho");var reset=document.getElementById("reset-kvg-07e0b-Kaisho");var timer;invoketimer();reset.onclick=function(){svg.setCurrentTime(0);timer.clear();svg.unpauseAnimations();pause.innerHTML = "◼";};pause.onclick=function(){if(svg.animationsPaused()){svg.unpauseAnimations();timer.resume();pause.innerHTML="◼"}else{svg.pauseAnimations();timer.pause();pause.innerHTML="▶"}}]]></script></svg>