<svg id="kvg-07e92-KaishoVtLst" class="kanjivg" width="106" height="126" xmlns="http://www.w3.org/2000/svg" xmlns:xlink="http://www.w3.org/1999/xlink" xml:space="preserve" version="1.1" baseProfile="full"><defs><style type="text/css"><![CDATA[path.black{fill:none;stroke:black;stroke-width:5;stroke-linecap:round;stroke-linejoin:round;}path.grey{fill:none;stroke:#ddd;stroke-width:5;stroke-linecap:round;stroke-linejoin:round;}path.stroke{fill:none;stroke:black;stroke-width:5;stroke-linecap:round;stroke-linejoin:round;}rect{fill:none;stroke:#555;stroke-width:2;} text{font-size:16px;font-family:Segoe UI Symbol,Cambria Math,DejaVu Sans,Symbola,Quivira,STIX,Code2000;-webkit-touch-callout:none;cursor:pointer;-webkit-user-select:none;-khtml-user-select:none;-moz-user-select:none;-ms-user-select:none;user-select: none;}text:hover{color:#777;}#reset{font-weight:bold;}]]></style><marker id="markerStart" markerWidth="8" markerHeight="8" style="overflow:visible;"><circle cx="0" cy="0" r="1.5" style="stroke:none;fill:red;fill-opacity:0.5;"/></marker><marker id="markerEnd" style="overflow:visible;"><circle cx="0" cy="0" r="0.8" style="stroke:none;fill:blue;fill-opacity:0.5;"><animate attributeName="opacity" from="1" to="0" dur="3s" repeatCount="indefinite" /></circle></marker></defs><rect x="4" y="4" width="100" height="100" /><path d="M25.62,13.5c0.32,1.42,0.4,2.5-0.16,4.02c-2.84,7.66-6.21,13.2-9.65,19.61c-0.46,0.86-0.64,3.28,0,3.55c3.38,1.42,8.12,3.78,11.02,6.38" class="grey" /><path d="M37.68,26.28c0.3,0.64,0.39,2.75,0,3.43C31.95,39.77,23.4,53.78,15.53,62.96c-1.81,2.1,0.45,3.31,1.62,2.88c4.93-1.79,15.15-4.99,21.48-6.7" class="grey" /><path d="M34.54,50.86c2.56,2.58,6.61,10.59,7.25,14.59" class="grey" /><path d="M10.71,78.89c3.89,3.22,6.87,10.7,7.77,13.61" class="grey" /><path d="M21.85,74.73c4.4,2.79,7.78,9.27,8.81,11.8" class="grey" /><path d="M32.99,69.79c3.77,2.06,6.67,6.84,7.55,8.71" class="grey" /><path d="M46.4,15.6c1.14,0.39,3.23,0.45,4.37,0.39c13.05-0.73,25.37-2.67,40.24-2.82c1.9-0.02,3.04,0.19,3.99,0.38" class="grey" /><path d="M51,16c0.05,1.83-0.03,4.73-0.09,7.36C50.5,41.25,49.75,75.25,35.5,93.25" class="grey" /><path d="M57.46,24.42c0.25,0.29,0.55,1.14,0.69,1.5c1.11,3.01,2.16,10.94,2.85,16.56" class="grey" /><path d="M58.16,25.43c8.41-0.69,22.97-2.18,29.24-2.76c2.31-0.21,3.48,1.34,3.37,2.43c-0.28,2.78-1.63,9.79-3.34,14.67" class="grey" /><path d="M59.75,33.25c7.43-0.75,15.5-2,21.37-1.81" class="grey" /><path d="M60.63,40.32c6.06-0.29,19.08-1.66,27.45-2.14" class="grey" /><path d="M59.16,49.18c0.6,0.14,1.69,0.16,2.29,0.14c6.21-0.16,13.98-1.58,25.4-1.62c0.99,0,1.59,0.07,2.09,0.14" class="grey" /><path d="M54.35,57.16c0.97,0.27,2.74,0.31,3.71,0.27c10.08-0.45,21.22-1.86,35.29-1.86c1.62,0,2.58,0.13,3.39,0.27" class="grey" /><path d="M72.67,24.01c0.46,0.44,0.68,0.7,0.7,1.24c0.21,6.19,0.09,27.72,0.09,29.9" class="grey" /><path d="M56.25,64.5c-0.59,3.83-3.45,8.29-4.22,9.25" class="grey" /><path d="M64.04,63.75c2.14,1.25,3.87,3.87,4.71,6.62" class="grey" /><path d="M77.73,61.53c2.25,1.45,5.52,5.66,5.52,8.22" class="grey" /><path d="M90.5,61.5c2.67,1.51,6.89,6.22,7.56,8.58" class="grey" /><path d="M55.75,82.06c0.96,0.27,2.73,0.34,3.69,0.27c12.38-0.9,17.79-2.15,30.25-2.39c1.61-0.03,2.57,0.13,3.37,0.26" class="grey" /><path d="M74.07,72.75c0.05,0.21,0.73,1.07,0.73,2.38c0,3.65-0.15,13.39-0.15,16.78" class="grey" /><path d="M48.67,94.6c1.3,0.49,3.69,0.6,4.98,0.49c16.09-1.38,26.22-2.12,40.62-2.77c2.17-0.1,3.47,0.23,4.55,0.48" class="grey" /><path d="M25.62,13.5c0.32,1.42,0.4,2.5-0.16,4.02c-2.84,7.66-6.21,13.2-9.65,19.61c-0.46,0.86-0.64,3.28,0,3.55c3.38,1.42,8.12,3.78,11.02,6.38" class="stroke" stroke-dasharray="150"><animate attributeName="stroke-dashoffset" from="150" to="0" dur="1.8s" begin="0.0s" fill="freeze" /></path><path d="M37.68,26.28c0.3,0.64,0.39,2.75,0,3.43C31.95,39.77,23.4,53.78,15.53,62.96c-1.81,2.1,0.45,3.31,1.62,2.88c4.93-1.79,15.15-4.99,21.48-6.7" class="stroke" stroke-dasharray="150"><set attributeName="opacity" to="0" dur="1.1s" /><animate attributeName="stroke-dashoffset" from="150" to="0" dur="1.8s" begin="1.1s" fill="freeze" /></path><path d="M34.54,50.86c2.56,2.58,6.61,10.59,7.25,14.59" class="stroke" stroke-dasharray="150"><set attributeName="opacity" to="0" dur="2.8s" /><animate attributeName="stroke-dashoffset" from="150" to="0" dur="1.8s" begin="2.8s" fill="freeze" /></path><path d="M10.71,78.89c3.89,3.22,6.87,10.7,7.77,13.61" class="stroke" stroke-dasharray="150"><set attributeName="opacity" to="0" dur="3.6999999999999997s" /><animate attributeName="stroke-dashoffset" from="150" to="0" dur="1.8s" begin="3.6999999999999997s" fill="freeze" /></path><path d="M21.85,74.73c4.4,2.79,7.78,9.27,8.81,11.8" class="stroke" stroke-dasharray="150"><set attributeName="opacity" to="0" dur="4.6s" /><animate attributeName="stroke-dashoffset" from="150" to="0" dur="1.8s" begin="4.6s" fill="freeze" /></path><path d="M32.99,69.79c3.77,2.06,6.67,6.84,7.55,8.71" class="stroke" stroke-dasharray="150"><set attributeName="opacity" to="0" dur="5.5s" /><animate attributeName="stroke-dashoffset" from="150" to="0" dur="1.8s" begin="5.5s" fill="freeze" /></path><path d="M46.4,15.6c1.14,0.39,3.23,0.45,4.37,0.39c13.05-0.73,25.37-2.67,40.24-2.82c1.9-0.02,3.04,0.19,3.99,0.38" class="stroke" stroke-dasharray="150"><set attributeName="opacity" to="0" dur="6.4s" /><animate attributeName="stroke-dashoffset" from="150" to="0" dur="1.8s" begin="6.4s" fill="freeze" /></path><path d="M51,16c0.05,1.83-0.03,4.73-0.09,7.36C50.5,41.25,49.75,75.25,35.5,93.25" class="stroke" stroke-dasharray="150"><set attributeName="opacity" to="0" dur="7.6000000000000005s" /><animate attributeName="stroke-dashoffset" from="150" to="0" dur="1.8s" begin="7.6000000000000005s" fill="freeze" /></path><path d="M57.46,24.42c0.25,0.29,0.55,1.14,0.69,1.5c1.11,3.01,2.16,10.94,2.85,16.56" class="stroke" stroke-dasharray="150"><set attributeName="opacity" to="0" dur="9.3s" /><animate attributeName="stroke-dashoffset" from="150" to="0" dur="1.8s" begin="9.3s" fill="freeze" /></path><path d="M58.16,25.43c8.41-0.69,22.97-2.18,29.24-2.76c2.31-0.21,3.48,1.34,3.37,2.43c-0.28,2.78-1.63,9.79-3.34,14.67" class="stroke" stroke-dasharray="150"><set attributeName="opacity" to="0" dur="10.200000000000001s" /><animate attributeName="stroke-dashoffset" from="150" to="0" dur="1.8s" begin="10.200000000000001s" fill="freeze" /></path><path d="M59.75,33.25c7.43-0.75,15.5-2,21.37-1.81" class="stroke" stroke-dasharray="150"><set attributeName="opacity" to="0" dur="11.4s" /><animate attributeName="stroke-dashoffset" from="150" to="0" dur="1.8s" begin="11.4s" fill="freeze" /></path><path d="M60.63,40.32c6.06-0.29,19.08-1.66,27.45-2.14" class="stroke" stroke-dasharray="150"><set attributeName="opacity" to="0" dur="12.4s" /><animate attributeName="stroke-dashoffset" from="150" to="0" dur="1.8s" begin="12.4s" fill="freeze" /></path><path d="M59.16,49.18c0.6,0.14,1.69,0.16,2.29,0.14c6.21-0.16,13.98-1.58,25.4-1.62c0.99,0,1.59,0.07,2.09,0.14" class="stroke" stroke-dasharray="150"><set attributeName="opacity" to="0" dur="13.4s" /><animate attributeName="stroke-dashoffset" from="150" to="0" dur="1.8s" begin="13.4s" fill="freeze" /></path><path d="M54.35,57.16c0.97,0.27,2.74,0.31,3.71,0.27c10.08-0.45,21.22-1.86,35.29-1.86c1.62,0,2.58,0.13,3.39,0.27" class="stroke" stroke-dasharray="150"><set attributeName="opacity" to="0" dur="14.4s" /><animate attributeName="stroke-dashoffset" from="150" to="0" dur="1.8s" begin="14.4s" fill="freeze" /></path><path d="M72.67,24.01c0.46,0.44,0.68,0.7,0.7,1.24c0.21,6.19,0.09,27.72,0.09,29.9" class="stroke" stroke-dasharray="150"><set attributeName="opacity" to="0" dur="15.5s" /><animate attributeName="stroke-dashoffset" from="150" to="0" dur="1.8s" begin="15.5s" fill="freeze" /></path><path d="M56.25,64.5c-0.59,3.83-3.45,8.29-4.22,9.25" class="stroke" stroke-dasharray="150"><set attributeName="opacity" to="0" dur="16.5s" /><animate attributeName="stroke-dashoffset" from="150" to="0" dur="1.8s" begin="16.5s" fill="freeze" /></path><path d="M64.04,63.75c2.14,1.25,3.87,3.87,4.71,6.62" class="stroke" stroke-dasharray="150"><set attributeName="opacity" to="0" dur="17.4s" /><animate attributeName="stroke-dashoffset" from="150" to="0" dur="1.8s" begin="17.4s" fill="freeze" /></path><path d="M77.73,61.53c2.25,1.45,5.52,5.66,5.52,8.22" class="stroke" stroke-dasharray="150"><set attributeName="opacity" to="0" dur="18.299999999999997s" /><animate attributeName="stroke-dashoffset" from="150" to="0" dur="1.8s" begin="18.299999999999997s" fill="freeze" /></path><path d="M90.5,61.5c2.67,1.51,6.89,6.22,7.56,8.58" class="stroke" stroke-dasharray="150"><set attributeName="opacity" to="0" dur="19.199999999999996s" /><animate attributeName="stroke-dashoffset" from="150" to="0" dur="1.8s" begin="19.199999999999996s" fill="freeze" /></path><path d="M55.75,82.06c0.96,0.27,2.73,0.34,3.69,0.27c12.38-0.9,17.79-2.15,30.25-2.39c1.61-0.03,2.57,0.13,3.37,0.26" class="stroke" stroke-dasharray="150"><set attributeName="opacity" to="0" dur="20.099999999999994s" /><animate attributeName="stroke-dashoffset" from="150" to="0" dur="1.8s" begin="20.099999999999994s" fill="freeze" /></path><path d="M74.07,72.75c0.05,0.21,0.73,1.07,0.73,2.38c0,3.65-0.15,13.39-0.15,16.78" class="stroke" stroke-dasharray="150"><set attributeName="opacity" to="0" dur="21.099999999999994s" /><animate attributeName="stroke-dashoffset" from="150" to="0" dur="1.8s" begin="21.099999999999994s" fill="freeze" /></path><path d="M48.67,94.6c1.3,0.49,3.69,0.6,4.98,0.49c16.09-1.38,26.22-2.12,40.62-2.77c2.17-0.1,3.47,0.23,4.55,0.48" class="stroke" stroke-dasharray="150"><set attributeName="opacity" to="0" dur="21.999999999999993s" /><animate attributeName="stroke-dashoffset" from="150" to="0" dur="1.8s" begin="21.999999999999993s" fill="freeze" /></path><text x="90" y="120" id="reset-kvg-07e92-KaishoVtLst">⟳</text><text x="70" y="120" id="pause-kvg-07e92-KaishoVtLst">◼</text><script type="text/javascript"><![CDATA[function RecurringTimer(e,t){var n,r,i=t;this.pause=function(){window.clearTimeout(n);i-=new Date-r};var s=function(){r=new Date;n=window.setTimeout(function(){i=t;s();e()},i)};this.clear=function(){window.clearTimeout(n);i=t;n=window.setTimeout(function(){i=t;s();e()},i)};this.resume=s;this.resume()}function invoketimer(){timer=new RecurringTimer(function(){svg.setCurrentTime(0)},24299.999999999993)}var svg=document.getElementById("kvg-07e92-KaishoVtLst");var pause=document.getElementById("pause-kvg-07e92-KaishoVtLst");var reset=document.getElementById("reset-kvg-07e92-KaishoVtLst");var timer;invoketimer();reset.onclick=function(){svg.setCurrentTime(0);timer.clear();svg.unpauseAnimations();pause.innerHTML = "◼";};pause.onclick=function(){if(svg.animationsPaused()){svg.unpauseAnimations();timer.resume();pause.innerHTML="◼"}else{svg.pauseAnimations();timer.pause();pause.innerHTML="▶"}}]]></script></svg>