<svg id="kvg-07e94" class="kanjivg" width="106" height="126" xmlns="http://www.w3.org/2000/svg" xmlns:xlink="http://www.w3.org/1999/xlink" xml:space="preserve" version="1.1" baseProfile="full"><defs><style type="text/css"><![CDATA[path.black{fill:none;stroke:black;stroke-width:5;stroke-linecap:round;stroke-linejoin:round;}path.grey{fill:none;stroke:#ddd;stroke-width:5;stroke-linecap:round;stroke-linejoin:round;}path.stroke{fill:none;stroke:black;stroke-width:5;stroke-linecap:round;stroke-linejoin:round;}rect{fill:none;stroke:#555;stroke-width:2;} text{font-size:16px;font-family:Segoe UI Symbol,Cambria Math,DejaVu Sans,Symbola,Quivira,STIX,Code2000;-webkit-touch-callout:none;cursor:pointer;-webkit-user-select:none;-khtml-user-select:none;-moz-user-select:none;-ms-user-select:none;user-select: none;}text:hover{color:#777;}#reset{font-weight:bold;}]]></style><marker id="markerStart" markerWidth="8" markerHeight="8" style="overflow:visible;"><circle cx="0" cy="0" r="1.5" style="stroke:none;fill:red;fill-opacity:0.5;"/></marker><marker id="markerEnd" style="overflow:visible;"><circle cx="0" cy="0" r="0.8" style="stroke:none;fill:blue;fill-opacity:0.5;"><animate attributeName="opacity" from="1" to="0" dur="3s" repeatCount="indefinite" /></circle></marker></defs><rect x="4" y="4" width="100" height="100" /><path d="M26.7,13.17c0.28,1.45,0.29,2.52-0.14,4.11c-1.92,6.97-6.99,14.38-10.74,19.95c-0.52,0.77-0.56,3.35,0,3.62c2.97,1.45,7.02,2.35,9.56,5.01" class="grey" /><path d="M36.4,26.43c0.28,0.56,0.35,2.39,0,3C31,38.9,21.97,50.99,14.53,59.03c-1.71,1.84,0.42,2.9,1.54,2.52c4.66-1.57,15.72-4.37,21.7-5.87" class="grey" /><path d="M32.38,46.88c3.04,2.62,7.86,10.79,8.62,14.87" class="grey" /><path d="M26.89,61.62c0.07,0.34,0.91,1.75,0.98,3.88c0.31,10.22-0.2,28.27-0.2,31.76" class="grey" /><path d="M19.85,68.6c0.16,1,0.13,2.98-0.16,3.69c-1.92,4.68-5.72,13.7-8.44,17.71" class="grey" /><path d="M34.93,68.04c3.53,4.31,6.25,14.31,7.07,18.21" class="grey" /><path d="M61.5,9.4c0.04,0.36,0.17,0.96-0.09,1.43c-1.88,3.49-7.99,10-15.17,14.17" class="grey" /><path d="M58.54,16.11c1.44,0,19.85-3.35,21.36-3.48c1.3-0.11,1.7,1.18,1.16,1.72c-2.28,2.29-5.49,5.19-9.09,8.86" class="grey" /><path d="M51.61,24.27c0.3,0.27,0.6,0.5,0.73,0.84c1.03,2.69,1.35,5.95,2.06,10.79" class="grey" /><path d="M53.42,25.58c7.83-0.58,31.47-2.78,34.78-3.11c1.21-0.12,1.94,1.22,1.76,1.94c-0.72,2.95-0.99,3.59-3.1,7.74" class="grey" /><path d="M54.81,34.47c2.57-0.22,30.8-1.81,33.63-1.92" class="grey" /><path d="M53.3,44.69c3.82-0.09,7.67-1,11-1.15c0.98-0.05,1.6-0.04,2.1-0.02" class="grey" /><path d="M51.75,39.26c0.71,0.33,1.33,1.89,1.33,2.33c0,1.23-0.23,9.76-0.23,11.67c0,1.6-0.2,2.77,2.88,0.92c4.02-2.41,6.02-2.72,10.41-4.63" class="grey" /><path d="M90.46,38.5c0.19,0.29,0.48,0.79,0.16,1.3c-0.45,0.73-9.72,4.09-15.37,5.7" class="grey" /><path d="M71.65,37.75c0.84,0.37,1.56,1.57,1.56,2.03c0,1.23,0.08,5.57,0.08,7.01c0,6.74,5.74,5.81,11.39,5.81c4.39,0,8.83-0.19,10.48-1.23c1.65-1.04,0.73-1.83,0.89-2.86" class="grey" /><path d="M62.5,54.5c0.05,0.31,0.1,0.81-0.1,1.25c-1.19,2.64-8.03,8.95-17.4,12.5" class="grey" /><path d="M62.04,59.54c5.98-0.25,11.26-1.31,15.26-2.2c1.56-0.35,1.94,1.01,1.44,1.59c-2,2.32-3.56,4.41-5.72,6.28" class="grey" /><path d="M52.34,66.64c0.17,0.25,0.34,0.47,0.42,0.79c0.59,2.53,1.28,7.57,1.68,12.12" class="grey" /><path d="M52.68,68.24c6.36-1.12,34.5-3.15,37.78-3.52c1.2-0.14,1.92,1.39,1.75,2.2c-0.71,3.35-1.95,5.33-3.63,9.87" class="grey" /><path d="M54.59,77.73c2.42-0.29,31.65-2.48,34.32-2.62" class="grey" /><path d="M70.8,68.5c0.31,0.61,0.58,1.71,0.33,2.7C69.4,77.9,63.05,92.48,44,97.5" class="grey" /><path d="M73.73,78.68c0.5,0.6,0.9,1.3,0.93,2.23c0.13,4.12-0.36,7.11-0.36,9.92c0,6.54,6.01,6.55,11.92,6.55c9.02,0,12.74-2.13,12.74-5.09" class="grey" /><path d="M82,82.25c2.65,1.32,6.84,5.44,7.5,7.5" class="grey" /><path d="M26.7,13.17c0.28,1.45,0.29,2.52-0.14,4.11c-1.92,6.97-6.99,14.38-10.74,19.95c-0.52,0.77-0.56,3.35,0,3.62c2.97,1.45,7.02,2.35,9.56,5.01" class="stroke" stroke-dasharray="150"><animate attributeName="stroke-dashoffset" from="150" to="0" dur="1.8s" begin="0.0s" fill="freeze" /></path><path d="M36.4,26.43c0.28,0.56,0.35,2.39,0,3C31,38.9,21.97,50.99,14.53,59.03c-1.71,1.84,0.42,2.9,1.54,2.52c4.66-1.57,15.72-4.37,21.7-5.87" class="stroke" stroke-dasharray="150"><set attributeName="opacity" to="0" dur="1.1s" /><animate attributeName="stroke-dashoffset" from="150" to="0" dur="1.8s" begin="1.1s" fill="freeze" /></path><path d="M32.38,46.88c3.04,2.62,7.86,10.79,8.62,14.87" class="stroke" stroke-dasharray="150"><set attributeName="opacity" to="0" dur="2.6s" /><animate attributeName="stroke-dashoffset" from="150" to="0" dur="1.8s" begin="2.6s" fill="freeze" /></path><path d="M26.89,61.62c0.07,0.34,0.91,1.75,0.98,3.88c0.31,10.22-0.2,28.27-0.2,31.76" class="stroke" stroke-dasharray="150"><set attributeName="opacity" to="0" dur="3.5s" /><animate attributeName="stroke-dashoffset" from="150" to="0" dur="1.8s" begin="3.5s" fill="freeze" /></path><path d="M19.85,68.6c0.16,1,0.13,2.98-0.16,3.69c-1.92,4.68-5.72,13.7-8.44,17.71" class="stroke" stroke-dasharray="150"><set attributeName="opacity" to="0" dur="4.5s" /><animate attributeName="stroke-dashoffset" from="150" to="0" dur="1.8s" begin="4.5s" fill="freeze" /></path><path d="M34.93,68.04c3.53,4.31,6.25,14.31,7.07,18.21" class="stroke" stroke-dasharray="150"><set attributeName="opacity" to="0" dur="5.5s" /><animate attributeName="stroke-dashoffset" from="150" to="0" dur="1.8s" begin="5.5s" fill="freeze" /></path><path d="M61.5,9.4c0.04,0.36,0.17,0.96-0.09,1.43c-1.88,3.49-7.99,10-15.17,14.17" class="stroke" stroke-dasharray="150"><set attributeName="opacity" to="0" dur="6.4s" /><animate attributeName="stroke-dashoffset" from="150" to="0" dur="1.8s" begin="6.4s" fill="freeze" /></path><path d="M58.54,16.11c1.44,0,19.85-3.35,21.36-3.48c1.3-0.11,1.7,1.18,1.16,1.72c-2.28,2.29-5.49,5.19-9.09,8.86" class="stroke" stroke-dasharray="150"><set attributeName="opacity" to="0" dur="7.4s" /><animate attributeName="stroke-dashoffset" from="150" to="0" dur="1.8s" begin="7.4s" fill="freeze" /></path><path d="M51.61,24.27c0.3,0.27,0.6,0.5,0.73,0.84c1.03,2.69,1.35,5.95,2.06,10.79" class="stroke" stroke-dasharray="150"><set attributeName="opacity" to="0" dur="8.4s" /><animate attributeName="stroke-dashoffset" from="150" to="0" dur="1.8s" begin="8.4s" fill="freeze" /></path><path d="M53.42,25.58c7.83-0.58,31.47-2.78,34.78-3.11c1.21-0.12,1.94,1.22,1.76,1.94c-0.72,2.95-0.99,3.59-3.1,7.74" class="stroke" stroke-dasharray="150"><set attributeName="opacity" to="0" dur="9.3s" /><animate attributeName="stroke-dashoffset" from="150" to="0" dur="1.8s" begin="9.3s" fill="freeze" /></path><path d="M54.81,34.47c2.57-0.22,30.8-1.81,33.63-1.92" class="stroke" stroke-dasharray="150"><set attributeName="opacity" to="0" dur="10.5s" /><animate attributeName="stroke-dashoffset" from="150" to="0" dur="1.8s" begin="10.5s" fill="freeze" /></path><path d="M53.3,44.69c3.82-0.09,7.67-1,11-1.15c0.98-0.05,1.6-0.04,2.1-0.02" class="stroke" stroke-dasharray="150"><set attributeName="opacity" to="0" dur="11.5s" /><animate attributeName="stroke-dashoffset" from="150" to="0" dur="1.8s" begin="11.5s" fill="freeze" /></path><path d="M51.75,39.26c0.71,0.33,1.33,1.89,1.33,2.33c0,1.23-0.23,9.76-0.23,11.67c0,1.6-0.2,2.77,2.88,0.92c4.02-2.41,6.02-2.72,10.41-4.63" class="stroke" stroke-dasharray="150"><set attributeName="opacity" to="0" dur="12.4s" /><animate attributeName="stroke-dashoffset" from="150" to="0" dur="1.8s" begin="12.4s" fill="freeze" /></path><path d="M90.46,38.5c0.19,0.29,0.48,0.79,0.16,1.3c-0.45,0.73-9.72,4.09-15.37,5.7" class="stroke" stroke-dasharray="150"><set attributeName="opacity" to="0" dur="13.4s" /><animate attributeName="stroke-dashoffset" from="150" to="0" dur="1.8s" begin="13.4s" fill="freeze" /></path><path d="M71.65,37.75c0.84,0.37,1.56,1.57,1.56,2.03c0,1.23,0.08,5.57,0.08,7.01c0,6.74,5.74,5.81,11.39,5.81c4.39,0,8.83-0.19,10.48-1.23c1.65-1.04,0.73-1.83,0.89-2.86" class="stroke" stroke-dasharray="150"><set attributeName="opacity" to="0" dur="14.3s" /><animate attributeName="stroke-dashoffset" from="150" to="0" dur="1.8s" begin="14.3s" fill="freeze" /></path><path d="M62.5,54.5c0.05,0.31,0.1,0.81-0.1,1.25c-1.19,2.64-8.03,8.95-17.4,12.5" class="stroke" stroke-dasharray="150"><set attributeName="opacity" to="0" dur="15.3s" /><animate attributeName="stroke-dashoffset" from="150" to="0" dur="1.8s" begin="15.3s" fill="freeze" /></path><path d="M62.04,59.54c5.98-0.25,11.26-1.31,15.26-2.2c1.56-0.35,1.94,1.01,1.44,1.59c-2,2.32-3.56,4.41-5.72,6.28" class="stroke" stroke-dasharray="150"><set attributeName="opacity" to="0" dur="16.3s" /><animate attributeName="stroke-dashoffset" from="150" to="0" dur="1.8s" begin="16.3s" fill="freeze" /></path><path d="M52.34,66.64c0.17,0.25,0.34,0.47,0.42,0.79c0.59,2.53,1.28,7.57,1.68,12.12" class="stroke" stroke-dasharray="150"><set attributeName="opacity" to="0" dur="17.3s" /><animate attributeName="stroke-dashoffset" from="150" to="0" dur="1.8s" begin="17.3s" fill="freeze" /></path><path d="M52.68,68.24c6.36-1.12,34.5-3.15,37.78-3.52c1.2-0.14,1.92,1.39,1.75,2.2c-0.71,3.35-1.95,5.33-3.63,9.87" class="stroke" stroke-dasharray="150"><set attributeName="opacity" to="0" dur="18.2s" /><animate attributeName="stroke-dashoffset" from="150" to="0" dur="1.8s" begin="18.2s" fill="freeze" /></path><path d="M54.59,77.73c2.42-0.29,31.65-2.48,34.32-2.62" class="stroke" stroke-dasharray="150"><set attributeName="opacity" to="0" dur="19.5s" /><animate attributeName="stroke-dashoffset" from="150" to="0" dur="1.8s" begin="19.5s" fill="freeze" /></path><path d="M70.8,68.5c0.31,0.61,0.58,1.71,0.33,2.7C69.4,77.9,63.05,92.48,44,97.5" class="stroke" stroke-dasharray="150"><set attributeName="opacity" to="0" dur="20.5s" /><animate attributeName="stroke-dashoffset" from="150" to="0" dur="1.8s" begin="20.5s" fill="freeze" /></path><path d="M73.73,78.68c0.5,0.6,0.9,1.3,0.93,2.23c0.13,4.12-0.36,7.11-0.36,9.92c0,6.54,6.01,6.55,11.92,6.55c9.02,0,12.74-2.13,12.74-5.09" class="stroke" stroke-dasharray="150"><set attributeName="opacity" to="0" dur="21.6s" /><animate attributeName="stroke-dashoffset" from="150" to="0" dur="1.8s" begin="21.6s" fill="freeze" /></path><path d="M82,82.25c2.65,1.32,6.84,5.44,7.5,7.5" class="stroke" stroke-dasharray="150"><set attributeName="opacity" to="0" dur="22.700000000000003s" /><animate attributeName="stroke-dashoffset" from="150" to="0" dur="1.8s" begin="22.700000000000003s" fill="freeze" /></path><text x="90" y="120" id="reset-kvg-07e94">⟳</text><text x="70" y="120" id="pause-kvg-07e94">◼</text><script type="text/javascript"><![CDATA[function RecurringTimer(e,t){var n,r,i=t;this.pause=function(){window.clearTimeout(n);i-=new Date-r};var s=function(){r=new Date;n=window.setTimeout(function(){i=t;s();e()},i)};this.clear=function(){window.clearTimeout(n);i=t;n=window.setTimeout(function(){i=t;s();e()},i)};this.resume=s;this.resume()}function invoketimer(){timer=new RecurringTimer(function(){svg.setCurrentTime(0)},24600.0)}var svg=document.getElementById("kvg-07e94");var pause=document.getElementById("pause-kvg-07e94");var reset=document.getElementById("reset-kvg-07e94");var timer;invoketimer();reset.onclick=function(){svg.setCurrentTime(0);timer.clear();svg.unpauseAnimations();pause.innerHTML = "◼";};pause.onclick=function(){if(svg.animationsPaused()){svg.unpauseAnimations();timer.resume();pause.innerHTML="◼"}else{svg.pauseAnimations();timer.pause();pause.innerHTML="▶"}}]]></script></svg>