<svg id="kvg-07f8e-KaishoVtLst" class="kanjivg" width="106" height="126" xmlns="http://www.w3.org/2000/svg" xmlns:xlink="http://www.w3.org/1999/xlink" xml:space="preserve" version="1.1" baseProfile="full"><defs><style type="text/css"><![CDATA[path.black{fill:none;stroke:black;stroke-width:5;stroke-linecap:round;stroke-linejoin:round;}path.grey{fill:none;stroke:#ddd;stroke-width:5;stroke-linecap:round;stroke-linejoin:round;}path.stroke{fill:none;stroke:black;stroke-width:5;stroke-linecap:round;stroke-linejoin:round;}rect{fill:none;stroke:#555;stroke-width:2;} text{font-size:16px;font-family:Segoe UI Symbol,Cambria Math,DejaVu Sans,Symbola,Quivira,STIX,Code2000;-webkit-touch-callout:none;cursor:pointer;-webkit-user-select:none;-khtml-user-select:none;-moz-user-select:none;-ms-user-select:none;user-select: none;}text:hover{color:#777;}#reset{font-weight:bold;}]]></style><marker id="markerStart" markerWidth="8" markerHeight="8" style="overflow:visible;"><circle cx="0" cy="0" r="1.5" style="stroke:none;fill:red;fill-opacity:0.5;"/></marker><marker id="markerEnd" style="overflow:visible;"><circle cx="0" cy="0" r="0.8" style="stroke:none;fill:blue;fill-opacity:0.5;"><animate attributeName="opacity" from="1" to="0" dur="3s" repeatCount="indefinite" /></circle></marker></defs><rect x="4" y="4" width="100" height="100" /><path d="M36.77,15.65c2.57,1.88,6.65,7.71,7.29,10.63" class="grey" /><path d="M69.78,11.96c0.03,0.31,0.05,0.81-0.05,1.26c-0.63,2.66-4.23,8.49-9.17,12.06" class="grey" /><path d="M29.5,30.46c0.94,0.38,2.66,0.39,3.6,0.38c5.15-0.02,32.9-4.27,42.11-4.13c1.57,0.02,2.5,0.18,3.29,0.37" class="grey" /><path d="M31.75,42.96c0.94,0.38,2.66,0.48,3.6,0.38c7.4-0.77,25.4-3.77,37.11-4.38c1.56-0.08,2.5,0.18,3.29,0.37" class="grey" /><path d="M26.75,55.77c1.52,0.54,4.31,0.7,5.82,0.54c7.18-0.74,37.18-4.49,44.11-4.73c2.53-0.09,4.05-0.24,5.31,0.03" class="grey" /><path d="M52.49,29.82c0.86,0.5,1.55,2.24,1.55,3.25c0,6-0.04,12.25-0.04,20.25" class="grey" /><path d="M14.38,72.68c1.62,0.39,3.45,0.22,4.51,0.11c16.86-1.72,58.61-5.97,69.36-6.14c1.34-0.02,3.75-0.08,5.25-0.08" class="grey" /><path d="M52.43,57.07c0.55,0.59,1.02,2.29,0.81,3.54c-3.49,21.21-16.74,33.96-34.99,39.46" class="grey" /><path d="M57.25,74.32c8.14,4.2,19.27,15.12,25.34,22.28" class="grey" /><path d="M36.77,15.65c2.57,1.88,6.65,7.71,7.29,10.63" class="stroke" stroke-dasharray="150"><animate attributeName="stroke-dashoffset" from="150" to="0" dur="1.8s" begin="0.0s" fill="freeze" /></path><path d="M69.78,11.96c0.03,0.31,0.05,0.81-0.05,1.26c-0.63,2.66-4.23,8.49-9.17,12.06" class="stroke" stroke-dasharray="150"><set attributeName="opacity" to="0" dur="0.9s" /><animate attributeName="stroke-dashoffset" from="150" to="0" dur="1.8s" begin="0.9s" fill="freeze" /></path><path d="M29.5,30.46c0.94,0.38,2.66,0.39,3.6,0.38c5.15-0.02,32.9-4.27,42.11-4.13c1.57,0.02,2.5,0.18,3.29,0.37" class="stroke" stroke-dasharray="150"><set attributeName="opacity" to="0" dur="1.8s" /><animate attributeName="stroke-dashoffset" from="150" to="0" dur="1.8s" begin="1.8s" fill="freeze" /></path><path d="M31.75,42.96c0.94,0.38,2.66,0.48,3.6,0.38c7.4-0.77,25.4-3.77,37.11-4.38c1.56-0.08,2.5,0.18,3.29,0.37" class="stroke" stroke-dasharray="150"><set attributeName="opacity" to="0" dur="3.0s" /><animate attributeName="stroke-dashoffset" from="150" to="0" dur="1.8s" begin="3.0s" fill="freeze" /></path><path d="M26.75,55.77c1.52,0.54,4.31,0.7,5.82,0.54c7.18-0.74,37.18-4.49,44.11-4.73c2.53-0.09,4.05-0.24,5.31,0.03" class="stroke" stroke-dasharray="150"><set attributeName="opacity" to="0" dur="4.1s" /><animate attributeName="stroke-dashoffset" from="150" to="0" dur="1.8s" begin="4.1s" fill="freeze" /></path><path d="M52.49,29.82c0.86,0.5,1.55,2.24,1.55,3.25c0,6-0.04,12.25-0.04,20.25" class="stroke" stroke-dasharray="150"><set attributeName="opacity" to="0" dur="5.5s" /><animate attributeName="stroke-dashoffset" from="150" to="0" dur="1.8s" begin="5.5s" fill="freeze" /></path><path d="M14.38,72.68c1.62,0.39,3.45,0.22,4.51,0.11c16.86-1.72,58.61-5.97,69.36-6.14c1.34-0.02,3.75-0.08,5.25-0.08" class="stroke" stroke-dasharray="150"><set attributeName="opacity" to="0" dur="6.5s" /><animate attributeName="stroke-dashoffset" from="150" to="0" dur="1.8s" begin="6.5s" fill="freeze" /></path><path d="M52.43,57.07c0.55,0.59,1.02,2.29,0.81,3.54c-3.49,21.21-16.74,33.96-34.99,39.46" class="stroke" stroke-dasharray="150"><set attributeName="opacity" to="0" dur="8.2s" /><animate attributeName="stroke-dashoffset" from="150" to="0" dur="1.8s" begin="8.2s" fill="freeze" /></path><path d="M57.25,74.32c8.14,4.2,19.27,15.12,25.34,22.28" class="stroke" stroke-dasharray="150"><set attributeName="opacity" to="0" dur="9.6s" /><animate attributeName="stroke-dashoffset" from="150" to="0" dur="1.8s" begin="9.6s" fill="freeze" /></path><text x="90" y="120" id="reset-kvg-07f8e-KaishoVtLst">⟳</text><text x="70" y="120" id="pause-kvg-07f8e-KaishoVtLst">◼</text><script type="text/javascript"><![CDATA[function RecurringTimer(e,t){var n,r,i=t;this.pause=function(){window.clearTimeout(n);i-=new Date-r};var s=function(){r=new Date;n=window.setTimeout(function(){i=t;s();e()},i)};this.clear=function(){window.clearTimeout(n);i=t;n=window.setTimeout(function(){i=t;s();e()},i)};this.resume=s;this.resume()}function invoketimer(){timer=new RecurringTimer(function(){svg.setCurrentTime(0)},11600.0)}var svg=document.getElementById("kvg-07f8e-KaishoVtLst");var pause=document.getElementById("pause-kvg-07f8e-KaishoVtLst");var reset=document.getElementById("reset-kvg-07f8e-KaishoVtLst");var timer;invoketimer();reset.onclick=function(){svg.setCurrentTime(0);timer.clear();svg.unpauseAnimations();pause.innerHTML = "◼";};pause.onclick=function(){if(svg.animationsPaused()){svg.unpauseAnimations();timer.resume();pause.innerHTML="◼"}else{svg.pauseAnimations();timer.pause();pause.innerHTML="▶"}}]]></script></svg>