<svg id="kvg-07fd2" class="kanjivg" width="106" height="126" xmlns="http://www.w3.org/2000/svg" xmlns:xlink="http://www.w3.org/1999/xlink" xml:space="preserve" version="1.1" baseProfile="full"><defs><style type="text/css"><![CDATA[path.black{fill:none;stroke:black;stroke-width:5;stroke-linecap:round;stroke-linejoin:round;}path.grey{fill:none;stroke:#ddd;stroke-width:5;stroke-linecap:round;stroke-linejoin:round;}path.stroke{fill:none;stroke:black;stroke-width:5;stroke-linecap:round;stroke-linejoin:round;}rect{fill:none;stroke:#555;stroke-width:2;} text{font-size:16px;font-family:Segoe UI Symbol,Cambria Math,DejaVu Sans,Symbola,Quivira,STIX,Code2000;-webkit-touch-callout:none;cursor:pointer;-webkit-user-select:none;-khtml-user-select:none;-moz-user-select:none;-ms-user-select:none;user-select: none;}text:hover{color:#777;}#reset{font-weight:bold;}]]></style><marker id="markerStart" markerWidth="8" markerHeight="8" style="overflow:visible;"><circle cx="0" cy="0" r="1.5" style="stroke:none;fill:red;fill-opacity:0.5;"/></marker><marker id="markerEnd" style="overflow:visible;"><circle cx="0" cy="0" r="0.8" style="stroke:none;fill:blue;fill-opacity:0.5;"><animate attributeName="opacity" from="1" to="0" dur="3s" repeatCount="indefinite" /></circle></marker></defs><rect x="4" y="4" width="100" height="100" /><path d="M18,20.7c2,0.55,3.77,0.75,6.32,0.27c5.65-1.07,12.79-2.92,15.59-3.44c3.82-0.71,5.61,1.23,5.61,4.1c0,4.36-0.67,18.84-0.67,28.08c0,9.42-5.96,2.8-7.61,1.3" class="grey" /><path d="M20.75,28.75c3.46,0.84,7.75,3,9.81,4.74" class="grey" /><path d="M17.35,50.73c1.15,0.4,2.32,0.46,3.46-0.32c0.9-0.62,7.88-5.84,11.68-8.8" class="grey" /><path d="M56.5,17.95c2.12,0.67,4,0.89,6.57,0.52c4.41-0.65,13.35-2.54,17.05-3.25c4.12-0.8,6.16,0.26,6.14,4.41c-0.03,4.99-0.17,21.87-0.17,31.83c0,9.67-5.46,3.17-6.86,1.55" class="grey" /><path d="M60,27.25c3.9,1.13,8.62,3,10.81,5.25" class="grey" /><path d="M59.13,48.49c1.12,0.6,2.16,0.7,3.35-0.06c0.93-0.59,7.11-4.24,10.27-6.94" class="grey" /><path d="M53.76,51.25c0.25,0.72,0.02,1.44-0.4,2.24c-1.48,2.85-2.79,5.07-6.32,9.11" class="grey" /><path d="M32.18,65.01c0.78,0.78,1.35,1.62,1.44,2.6c0.33,3.39,2.18,17.3,3.15,25.12c0.14,1.16,0.27,2.18,0.37,3.02" class="grey" /><path d="M34.55,67c12.7-1.5,38.49-4.67,42.19-4.81c3.09-0.12,4.44,2.08,4.08,5.06c-0.52,4.29-1.59,12.37-3.2,22.79c-0.17,1.11-0.35,2.24-0.53,3.38" class="grey" /><path d="M36.27,79.48c8.48-0.98,33.23-2.98,41.93-3.32" class="grey" /><path d="M38.08,93.39c10.79-0.64,26.79-2.26,38.35-2.57" class="grey" /><path d="M18,20.7c2,0.55,3.77,0.75,6.32,0.27c5.65-1.07,12.79-2.92,15.59-3.44c3.82-0.71,5.61,1.23,5.61,4.1c0,4.36-0.67,18.84-0.67,28.08c0,9.42-5.96,2.8-7.61,1.3" class="stroke" stroke-dasharray="150"><animate attributeName="stroke-dashoffset" from="150" to="0" dur="1.8s" begin="0.0s" fill="freeze" /></path><path d="M20.75,28.75c3.46,0.84,7.75,3,9.81,4.74" class="stroke" stroke-dasharray="150"><set attributeName="opacity" to="0" dur="1.7s" /><animate attributeName="stroke-dashoffset" from="150" to="0" dur="1.8s" begin="1.7s" fill="freeze" /></path><path d="M17.35,50.73c1.15,0.4,2.32,0.46,3.46-0.32c0.9-0.62,7.88-5.84,11.68-8.8" class="stroke" stroke-dasharray="150"><set attributeName="opacity" to="0" dur="2.6s" /><animate attributeName="stroke-dashoffset" from="150" to="0" dur="1.8s" begin="2.6s" fill="freeze" /></path><path d="M56.5,17.95c2.12,0.67,4,0.89,6.57,0.52c4.41-0.65,13.35-2.54,17.05-3.25c4.12-0.8,6.16,0.26,6.14,4.41c-0.03,4.99-0.17,21.87-0.17,31.83c0,9.67-5.46,3.17-6.86,1.55" class="stroke" stroke-dasharray="150"><set attributeName="opacity" to="0" dur="3.5s" /><animate attributeName="stroke-dashoffset" from="150" to="0" dur="1.8s" begin="3.5s" fill="freeze" /></path><path d="M60,27.25c3.9,1.13,8.62,3,10.81,5.25" class="stroke" stroke-dasharray="150"><set attributeName="opacity" to="0" dur="5.2s" /><animate attributeName="stroke-dashoffset" from="150" to="0" dur="1.8s" begin="5.2s" fill="freeze" /></path><path d="M59.13,48.49c1.12,0.6,2.16,0.7,3.35-0.06c0.93-0.59,7.11-4.24,10.27-6.94" class="stroke" stroke-dasharray="150"><set attributeName="opacity" to="0" dur="6.1000000000000005s" /><animate attributeName="stroke-dashoffset" from="150" to="0" dur="1.8s" begin="6.1000000000000005s" fill="freeze" /></path><path d="M53.76,51.25c0.25,0.72,0.02,1.44-0.4,2.24c-1.48,2.85-2.79,5.07-6.32,9.11" class="stroke" stroke-dasharray="150"><set attributeName="opacity" to="0" dur="7.000000000000001s" /><animate attributeName="stroke-dashoffset" from="150" to="0" dur="1.8s" begin="7.000000000000001s" fill="freeze" /></path><path d="M32.18,65.01c0.78,0.78,1.35,1.62,1.44,2.6c0.33,3.39,2.18,17.3,3.15,25.12c0.14,1.16,0.27,2.18,0.37,3.02" class="stroke" stroke-dasharray="150"><set attributeName="opacity" to="0" dur="7.900000000000001s" /><animate attributeName="stroke-dashoffset" from="150" to="0" dur="1.8s" begin="7.900000000000001s" fill="freeze" /></path><path d="M34.55,67c12.7-1.5,38.49-4.67,42.19-4.81c3.09-0.12,4.44,2.08,4.08,5.06c-0.52,4.29-1.59,12.37-3.2,22.79c-0.17,1.11-0.35,2.24-0.53,3.38" class="stroke" stroke-dasharray="150"><set attributeName="opacity" to="0" dur="8.900000000000002s" /><animate attributeName="stroke-dashoffset" from="150" to="0" dur="1.8s" begin="8.900000000000002s" fill="freeze" /></path><path d="M36.27,79.48c8.48-0.98,33.23-2.98,41.93-3.32" class="stroke" stroke-dasharray="150"><set attributeName="opacity" to="0" dur="10.600000000000001s" /><animate attributeName="stroke-dashoffset" from="150" to="0" dur="1.8s" begin="10.600000000000001s" fill="freeze" /></path><path d="M38.08,93.39c10.79-0.64,26.79-2.26,38.35-2.57" class="stroke" stroke-dasharray="150"><set attributeName="opacity" to="0" dur="11.700000000000001s" /><animate attributeName="stroke-dashoffset" from="150" to="0" dur="1.8s" begin="11.700000000000001s" fill="freeze" /></path><text x="90" y="120" id="reset-kvg-07fd2">⟳</text><text x="70" y="120" id="pause-kvg-07fd2">◼</text><script type="text/javascript"><![CDATA[function RecurringTimer(e,t){var n,r,i=t;this.pause=function(){window.clearTimeout(n);i-=new Date-r};var s=function(){r=new Date;n=window.setTimeout(function(){i=t;s();e()},i)};this.clear=function(){window.clearTimeout(n);i=t;n=window.setTimeout(function(){i=t;s();e()},i)};this.resume=s;this.resume()}function invoketimer(){timer=new RecurringTimer(function(){svg.setCurrentTime(0)},13700.000000000002)}var svg=document.getElementById("kvg-07fd2");var pause=document.getElementById("pause-kvg-07fd2");var reset=document.getElementById("reset-kvg-07fd2");var timer;invoketimer();reset.onclick=function(){svg.setCurrentTime(0);timer.clear();svg.unpauseAnimations();pause.innerHTML = "◼";};pause.onclick=function(){if(svg.animationsPaused()){svg.unpauseAnimations();timer.resume();pause.innerHTML="◼"}else{svg.pauseAnimations();timer.pause();pause.innerHTML="▶"}}]]></script></svg>