<svg id="kvg-08003" class="kanjivg" width="106" height="126" xmlns="http://www.w3.org/2000/svg" xmlns:xlink="http://www.w3.org/1999/xlink" xml:space="preserve" version="1.1" baseProfile="full"><defs><style type="text/css"><![CDATA[path.black{fill:none;stroke:black;stroke-width:5;stroke-linecap:round;stroke-linejoin:round;}path.grey{fill:none;stroke:#ddd;stroke-width:5;stroke-linecap:round;stroke-linejoin:round;}path.stroke{fill:none;stroke:black;stroke-width:5;stroke-linecap:round;stroke-linejoin:round;}rect{fill:none;stroke:#555;stroke-width:2;} text{font-size:16px;font-family:Segoe UI Symbol,Cambria Math,DejaVu Sans,Symbola,Quivira,STIX,Code2000;-webkit-touch-callout:none;cursor:pointer;-webkit-user-select:none;-khtml-user-select:none;-moz-user-select:none;-ms-user-select:none;user-select: none;}text:hover{color:#777;}#reset{font-weight:bold;}]]></style><marker id="markerStart" markerWidth="8" markerHeight="8" style="overflow:visible;"><circle cx="0" cy="0" r="1.5" style="stroke:none;fill:red;fill-opacity:0.5;"/></marker><marker id="markerEnd" style="overflow:visible;"><circle cx="0" cy="0" r="0.8" style="stroke:none;fill:blue;fill-opacity:0.5;"><animate attributeName="opacity" from="1" to="0" dur="3s" repeatCount="indefinite" /></circle></marker></defs><rect x="4" y="4" width="100" height="100" /><path d="M35,24.52c1.5,0.27,4.25,0.38,5.76,0.27c9.12-0.64,17.37-2.13,24.11-2.52c2.49-0.14,4.01,0.13,5.26,0.26" class="grey" /><path d="M52.17,10.87c0.98,0.98,1.77,2.38,1.77,3.89c0,6.96,0.13,18.42,0.08,23.5" class="grey" /><path d="M13.25,42.28c2.79,0.69,7.32,0.7,10.11,0.44c22.93-2.1,39.09-4.6,63.81-5.43c4.63-0.16,7.14,0.08,9.46,0.43" class="grey" /><path d="M81.59,14.23c0.19,1.38-0.08,3.39-1.47,5.03C63,39.62,46.88,55.25,14.62,72.75" class="grey" /><path d="M76.26,48.75c-0.26,1.12-0.94,2.24-2.61,3.04C68.75,54.12,62,56.38,54.5,58.5" class="grey" /><path d="M53.25,50.25c0.5,1.25-0.22,3.1-1.73,5.58c-1.77,2.92-4.76,6.83-5.26,7.45c-2.01,2.47-1.51,4.36,1.14,4.25c3.47-0.15,23.72-2.52,29.51-3.24c3.35-0.42,4.84,1.97,3.93,4.6c-2.3,6.72-7.79,21.33-12.08,26.38c-2.52,2.98-5.27,0.73-7.54-2.57" class="grey" /><path d="M35,24.52c1.5,0.27,4.25,0.38,5.76,0.27c9.12-0.64,17.37-2.13,24.11-2.52c2.49-0.14,4.01,0.13,5.26,0.26" class="stroke" stroke-dasharray="150"><animate attributeName="stroke-dashoffset" from="150" to="0" dur="1.8s" begin="0.0s" fill="freeze" /></path><path d="M52.17,10.87c0.98,0.98,1.77,2.38,1.77,3.89c0,6.96,0.13,18.42,0.08,23.5" class="stroke" stroke-dasharray="150"><set attributeName="opacity" to="0" dur="1.0s" /><animate attributeName="stroke-dashoffset" from="150" to="0" dur="1.8s" begin="1.0s" fill="freeze" /></path><path d="M13.25,42.28c2.79,0.69,7.32,0.7,10.11,0.44c22.93-2.1,39.09-4.6,63.81-5.43c4.63-0.16,7.14,0.08,9.46,0.43" class="stroke" stroke-dasharray="150"><set attributeName="opacity" to="0" dur="2.0s" /><animate attributeName="stroke-dashoffset" from="150" to="0" dur="1.8s" begin="2.0s" fill="freeze" /></path><path d="M81.59,14.23c0.19,1.38-0.08,3.39-1.47,5.03C63,39.62,46.88,55.25,14.62,72.75" class="stroke" stroke-dasharray="150"><set attributeName="opacity" to="0" dur="3.7s" /><animate attributeName="stroke-dashoffset" from="150" to="0" dur="1.8s" begin="3.7s" fill="freeze" /></path><path d="M76.26,48.75c-0.26,1.12-0.94,2.24-2.61,3.04C68.75,54.12,62,56.38,54.5,58.5" class="stroke" stroke-dasharray="150"><set attributeName="opacity" to="0" dur="5.5s" /><animate attributeName="stroke-dashoffset" from="150" to="0" dur="1.8s" begin="5.5s" fill="freeze" /></path><path d="M53.25,50.25c0.5,1.25-0.22,3.1-1.73,5.58c-1.77,2.92-4.76,6.83-5.26,7.45c-2.01,2.47-1.51,4.36,1.14,4.25c3.47-0.15,23.72-2.52,29.51-3.24c3.35-0.42,4.84,1.97,3.93,4.6c-2.3,6.72-7.79,21.33-12.08,26.38c-2.52,2.98-5.27,0.73-7.54-2.57" class="stroke" stroke-dasharray="150"><set attributeName="opacity" to="0" dur="6.5s" /><animate attributeName="stroke-dashoffset" from="150" to="0" dur="1.8s" begin="6.5s" fill="freeze" /></path><text x="90" y="120" id="reset-kvg-08003">⟳</text><text x="70" y="120" id="pause-kvg-08003">◼</text><script type="text/javascript"><![CDATA[function RecurringTimer(e,t){var n,r,i=t;this.pause=function(){window.clearTimeout(n);i-=new Date-r};var s=function(){r=new Date;n=window.setTimeout(function(){i=t;s();e()},i)};this.clear=function(){window.clearTimeout(n);i=t;n=window.setTimeout(function(){i=t;s();e()},i)};this.resume=s;this.resume()}function invoketimer(){timer=new RecurringTimer(function(){svg.setCurrentTime(0)},9300.0)}var svg=document.getElementById("kvg-08003");var pause=document.getElementById("pause-kvg-08003");var reset=document.getElementById("reset-kvg-08003");var timer;invoketimer();reset.onclick=function(){svg.setCurrentTime(0);timer.clear();svg.unpauseAnimations();pause.innerHTML = "◼";};pause.onclick=function(){if(svg.animationsPaused()){svg.unpauseAnimations();timer.resume();pause.innerHTML="◼"}else{svg.pauseAnimations();timer.pause();pause.innerHTML="▶"}}]]></script></svg>