<svg id="kvg-08106" class="kanjivg" width="106" height="126" xmlns="http://www.w3.org/2000/svg" xmlns:xlink="http://www.w3.org/1999/xlink" xml:space="preserve" version="1.1" baseProfile="full"><defs><style type="text/css"><![CDATA[path.black{fill:none;stroke:black;stroke-width:5;stroke-linecap:round;stroke-linejoin:round;}path.grey{fill:none;stroke:#ddd;stroke-width:5;stroke-linecap:round;stroke-linejoin:round;}path.stroke{fill:none;stroke:black;stroke-width:5;stroke-linecap:round;stroke-linejoin:round;}rect{fill:none;stroke:#555;stroke-width:2;} text{font-size:16px;font-family:Segoe UI Symbol,Cambria Math,DejaVu Sans,Symbola,Quivira,STIX,Code2000;-webkit-touch-callout:none;cursor:pointer;-webkit-user-select:none;-khtml-user-select:none;-moz-user-select:none;-ms-user-select:none;user-select: none;}text:hover{color:#777;}#reset{font-weight:bold;}]]></style><marker id="markerStart" markerWidth="8" markerHeight="8" style="overflow:visible;"><circle cx="0" cy="0" r="1.5" style="stroke:none;fill:red;fill-opacity:0.5;"/></marker><marker id="markerEnd" style="overflow:visible;"><circle cx="0" cy="0" r="0.8" style="stroke:none;fill:blue;fill-opacity:0.5;"><animate attributeName="opacity" from="1" to="0" dur="3s" repeatCount="indefinite" /></circle></marker></defs><rect x="4" y="4" width="100" height="100" /><path d="M20.47,22.24c0.83,0.83,1.05,1.89,1.05,3.05c-0.02,48.84-3.81,57.62-11.02,67.6" class="grey" /><path d="M22.07,23.06c2.4-0.44,7.72-1.48,10.69-1.97c3.65-0.59,4.79,0.52,4.76,4.15c-0.08,8.82-0.01,45.6-0.01,62.31c0,12.61-6.16,3.55-7.95,2.04" class="grey" /><path d="M22.07,41.2c5.43-0.58,9.93-0.95,14.58-1.32" class="grey" /><path d="M21.5,59.5c4.24-0.27,9.73-0.71,14.88-1.12" class="grey" /><path d="M63.1,14.25c-0.04,1.04-0.33,1.98-0.88,2.81C57.71,24.76,52,33.38,45.02,39.25" class="grey" /><path d="M60.92,22.63c0.95,0.24,2.16,0.34,4.2,0.12c4.39-0.49,11.58-1.5,14.12-1.89c2.53-0.38,3.79,1.31,2.34,3.32c-3.58,4.94-5.92,8.44-10.33,14.69" class="grey" /><path d="M50.58,42.07c3.67,0.43,6.68,0.25,10.32-0.21c9.73-1.24,16.54-1.88,25.1-2.63c2.93-0.4,5.84-0.33,8.72,0.21" class="grey" /><path d="M52.8,42.92c0.89,0.89,0.96,1.96,0.94,3.25C53.38,65.25,51,81.5,43.06,92.99" class="grey" /><path d="M62.48,56c2.01,0.41,4.01,0.44,6.02,0.07c5.68-0.96,9.62-1.95,14.58-2.91c2.57-0.5,4.19,1.31,4.09,3.73c-0.16,3.73-1.34,11.51-4.1,17.44c-2.46,5.29-3.58,4.92-5.95,2.11" class="grey" /><path d="M64.2,57.3c0.94,0.94,0.89,1.95,0.89,3.57c0,9.38,0.18,14.5,0.18,20.88c0,10.82,1.28,12.21,14.68,12.21c13.67,0,15.69-1.21,15.69-10.46" class="grey" /><path d="M20.47,22.24c0.83,0.83,1.05,1.89,1.05,3.05c-0.02,48.84-3.81,57.62-11.02,67.6" class="stroke" stroke-dasharray="150"><animate attributeName="stroke-dashoffset" from="150" to="0" dur="1.8s" begin="0.0s" fill="freeze" /></path><path d="M22.07,23.06c2.4-0.44,7.72-1.48,10.69-1.97c3.65-0.59,4.79,0.52,4.76,4.15c-0.08,8.82-0.01,45.6-0.01,62.31c0,12.61-6.16,3.55-7.95,2.04" class="stroke" stroke-dasharray="150"><set attributeName="opacity" to="0" dur="1.7s" /><animate attributeName="stroke-dashoffset" from="150" to="0" dur="1.8s" begin="1.7s" fill="freeze" /></path><path d="M22.07,41.2c5.43-0.58,9.93-0.95,14.58-1.32" class="stroke" stroke-dasharray="150"><set attributeName="opacity" to="0" dur="3.5s" /><animate attributeName="stroke-dashoffset" from="150" to="0" dur="1.8s" begin="3.5s" fill="freeze" /></path><path d="M21.5,59.5c4.24-0.27,9.73-0.71,14.88-1.12" class="stroke" stroke-dasharray="150"><set attributeName="opacity" to="0" dur="4.4s" /><animate attributeName="stroke-dashoffset" from="150" to="0" dur="1.8s" begin="4.4s" fill="freeze" /></path><path d="M63.1,14.25c-0.04,1.04-0.33,1.98-0.88,2.81C57.71,24.76,52,33.38,45.02,39.25" class="stroke" stroke-dasharray="150"><set attributeName="opacity" to="0" dur="5.300000000000001s" /><animate attributeName="stroke-dashoffset" from="150" to="0" dur="1.8s" begin="5.300000000000001s" fill="freeze" /></path><path d="M60.92,22.63c0.95,0.24,2.16,0.34,4.2,0.12c4.39-0.49,11.58-1.5,14.12-1.89c2.53-0.38,3.79,1.31,2.34,3.32c-3.58,4.94-5.92,8.44-10.33,14.69" class="stroke" stroke-dasharray="150"><set attributeName="opacity" to="0" dur="6.300000000000001s" /><animate attributeName="stroke-dashoffset" from="150" to="0" dur="1.8s" begin="6.300000000000001s" fill="freeze" /></path><path d="M50.58,42.07c3.67,0.43,6.68,0.25,10.32-0.21c9.73-1.24,16.54-1.88,25.1-2.63c2.93-0.4,5.84-0.33,8.72,0.21" class="stroke" stroke-dasharray="150"><set attributeName="opacity" to="0" dur="7.4s" /><animate attributeName="stroke-dashoffset" from="150" to="0" dur="1.8s" begin="7.4s" fill="freeze" /></path><path d="M52.8,42.92c0.89,0.89,0.96,1.96,0.94,3.25C53.38,65.25,51,81.5,43.06,92.99" class="stroke" stroke-dasharray="150"><set attributeName="opacity" to="0" dur="8.5s" /><animate attributeName="stroke-dashoffset" from="150" to="0" dur="1.8s" begin="8.5s" fill="freeze" /></path><path d="M62.48,56c2.01,0.41,4.01,0.44,6.02,0.07c5.68-0.96,9.62-1.95,14.58-2.91c2.57-0.5,4.19,1.31,4.09,3.73c-0.16,3.73-1.34,11.51-4.1,17.44c-2.46,5.29-3.58,4.92-5.95,2.11" class="stroke" stroke-dasharray="150"><set attributeName="opacity" to="0" dur="9.8s" /><animate attributeName="stroke-dashoffset" from="150" to="0" dur="1.8s" begin="9.8s" fill="freeze" /></path><path d="M64.2,57.3c0.94,0.94,0.89,1.95,0.89,3.57c0,9.38,0.18,14.5,0.18,20.88c0,10.82,1.28,12.21,14.68,12.21c13.67,0,15.69-1.21,15.69-10.46" class="stroke" stroke-dasharray="150"><set attributeName="opacity" to="0" dur="11.100000000000001s" /><animate attributeName="stroke-dashoffset" from="150" to="0" dur="1.8s" begin="11.100000000000001s" fill="freeze" /></path><text x="90" y="120" id="reset-kvg-08106">⟳</text><text x="70" y="120" id="pause-kvg-08106">◼</text><script type="text/javascript"><![CDATA[function RecurringTimer(e,t){var n,r,i=t;this.pause=function(){window.clearTimeout(n);i-=new Date-r};var s=function(){r=new Date;n=window.setTimeout(function(){i=t;s();e()},i)};this.clear=function(){window.clearTimeout(n);i=t;n=window.setTimeout(function(){i=t;s();e()},i)};this.resume=s;this.resume()}function invoketimer(){timer=new RecurringTimer(function(){svg.setCurrentTime(0)},13800.0)}var svg=document.getElementById("kvg-08106");var pause=document.getElementById("pause-kvg-08106");var reset=document.getElementById("reset-kvg-08106");var timer;invoketimer();reset.onclick=function(){svg.setCurrentTime(0);timer.clear();svg.unpauseAnimations();pause.innerHTML = "◼";};pause.onclick=function(){if(svg.animationsPaused()){svg.unpauseAnimations();timer.resume();pause.innerHTML="◼"}else{svg.pauseAnimations();timer.pause();pause.innerHTML="▶"}}]]></script></svg>