<svg id="kvg-0813e-Kaisho" class="kanjivg" width="106" height="126" xmlns="http://www.w3.org/2000/svg" xmlns:xlink="http://www.w3.org/1999/xlink" xml:space="preserve" version="1.1" baseProfile="full"><defs><style type="text/css"><![CDATA[path.black{fill:none;stroke:black;stroke-width:5;stroke-linecap:round;stroke-linejoin:round;}path.grey{fill:none;stroke:#ddd;stroke-width:5;stroke-linecap:round;stroke-linejoin:round;}path.stroke{fill:none;stroke:black;stroke-width:5;stroke-linecap:round;stroke-linejoin:round;}rect{fill:none;stroke:#555;stroke-width:2;} text{font-size:16px;font-family:Segoe UI Symbol,Cambria Math,DejaVu Sans,Symbola,Quivira,STIX,Code2000;-webkit-touch-callout:none;cursor:pointer;-webkit-user-select:none;-khtml-user-select:none;-moz-user-select:none;-ms-user-select:none;user-select: none;}text:hover{color:#777;}#reset{font-weight:bold;}]]></style><marker id="markerStart" markerWidth="8" markerHeight="8" style="overflow:visible;"><circle cx="0" cy="0" r="1.5" style="stroke:none;fill:red;fill-opacity:0.5;"/></marker><marker id="markerEnd" style="overflow:visible;"><circle cx="0" cy="0" r="0.8" style="stroke:none;fill:blue;fill-opacity:0.5;"><animate attributeName="opacity" from="1" to="0" dur="3s" repeatCount="indefinite" /></circle></marker></defs><rect x="4" y="4" width="100" height="100" /><path d="M17.92,18.25c0.49,0.97,1.5,1.75,1.5,3.33c0,0.95,0,25.21-0.52,33.1c-0.74,11.23-1.5,22.55-8.48,35.45" class="grey" /><path d="M20.32,20.83c1.9-0.06,10.97-2.28,12.39-2.4c2.53-0.22,3.16,1.27,3.16,2.6c0,3.15-0.29,44.18-0.29,62.05c0,12.29-4.55,6.14-6.17,4.67" class="grey" /><path d="M19.82,40.1c2.67-0.22,4.32-0.67,6.96-1.04c0.75-0.11,1.5-0.21,2.22-0.3" class="grey" /><path d="M19.25,57.58c2.52-0.06,5.04-0.32,7.55-0.54c0.75-0.07,1.52-0.14,2.27-0.21" class="grey" /><path d="M66.53,11.23c0.03,0.26,0.05,0.68-0.04,1.06c-0.57,2.23-3.81,7.11-8.26,10.1" class="grey" /><path d="M46.92,24.08c0.4,0.42,1.84,1.94,1.95,2.5c1.13,5.91,2.94,14.83,4.05,23" class="grey" /><path d="M49.08,25.75c9.99-1.12,28.38-3.39,35.83-4.33c2.74-0.35,5.24,0.92,4.84,3.25C88.75,30.5,88,39.75,85.75,47.58" class="grey" /><path d="M51.04,36.65c8.49-0.68,15.97-1.4,24.46-2.1c0.97-0.08,1.91-0.16,2.81-0.23" class="grey" /><path d="M53.8,48.05c7.22-0.48,22.28-2,32.25-2.79" class="grey" /><path d="M67.69,25.68c0.56,0.93,0.52,2.31,0.37,3.56c-1.47,12.46-7.81,28.02-17.3,34.52" class="grey" /><path d="M44.42,68.08c0.66,0.25,3.92,0.4,5.67,0.17c13.17-1.75,29.43-3.26,40.67-3.5c1.76-0.04,4.57,0.08,5.67,0.33" class="grey" /><path d="M72.58,49.75c0.95,0.47,1.71,2,1.71,3.81c0,0.96,0.31,36.31,0.12,42.19" class="grey" /><path d="M17.92,18.25c0.49,0.97,1.5,1.75,1.5,3.33c0,0.95,0,25.21-0.52,33.1c-0.74,11.23-1.5,22.55-8.48,35.45" class="stroke" stroke-dasharray="150"><animate attributeName="stroke-dashoffset" from="150" to="0" dur="1.8s" begin="0.0s" fill="freeze" /></path><path d="M20.32,20.83c1.9-0.06,10.97-2.28,12.39-2.4c2.53-0.22,3.16,1.27,3.16,2.6c0,3.15-0.29,44.18-0.29,62.05c0,12.29-4.55,6.14-6.17,4.67" class="stroke" stroke-dasharray="150"><set attributeName="opacity" to="0" dur="1.7s" /><animate attributeName="stroke-dashoffset" from="150" to="0" dur="1.8s" begin="1.7s" fill="freeze" /></path><path d="M19.82,40.1c2.67-0.22,4.32-0.67,6.96-1.04c0.75-0.11,1.5-0.21,2.22-0.3" class="stroke" stroke-dasharray="150"><set attributeName="opacity" to="0" dur="3.5s" /><animate attributeName="stroke-dashoffset" from="150" to="0" dur="1.8s" begin="3.5s" fill="freeze" /></path><path d="M19.25,57.58c2.52-0.06,5.04-0.32,7.55-0.54c0.75-0.07,1.52-0.14,2.27-0.21" class="stroke" stroke-dasharray="150"><set attributeName="opacity" to="0" dur="4.4s" /><animate attributeName="stroke-dashoffset" from="150" to="0" dur="1.8s" begin="4.4s" fill="freeze" /></path><path d="M66.53,11.23c0.03,0.26,0.05,0.68-0.04,1.06c-0.57,2.23-3.81,7.11-8.26,10.1" class="stroke" stroke-dasharray="150"><set attributeName="opacity" to="0" dur="5.300000000000001s" /><animate attributeName="stroke-dashoffset" from="150" to="0" dur="1.8s" begin="5.300000000000001s" fill="freeze" /></path><path d="M46.92,24.08c0.4,0.42,1.84,1.94,1.95,2.5c1.13,5.91,2.94,14.83,4.05,23" class="stroke" stroke-dasharray="150"><set attributeName="opacity" to="0" dur="6.200000000000001s" /><animate attributeName="stroke-dashoffset" from="150" to="0" dur="1.8s" begin="6.200000000000001s" fill="freeze" /></path><path d="M49.08,25.75c9.99-1.12,28.38-3.39,35.83-4.33c2.74-0.35,5.24,0.92,4.84,3.25C88.75,30.5,88,39.75,85.75,47.58" class="stroke" stroke-dasharray="150"><set attributeName="opacity" to="0" dur="7.200000000000001s" /><animate attributeName="stroke-dashoffset" from="150" to="0" dur="1.8s" begin="7.200000000000001s" fill="freeze" /></path><path d="M51.04,36.65c8.49-0.68,15.97-1.4,24.46-2.1c0.97-0.08,1.91-0.16,2.81-0.23" class="stroke" stroke-dasharray="150"><set attributeName="opacity" to="0" dur="8.700000000000001s" /><animate attributeName="stroke-dashoffset" from="150" to="0" dur="1.8s" begin="8.700000000000001s" fill="freeze" /></path><path d="M53.8,48.05c7.22-0.48,22.28-2,32.25-2.79" class="stroke" stroke-dasharray="150"><set attributeName="opacity" to="0" dur="9.700000000000001s" /><animate attributeName="stroke-dashoffset" from="150" to="0" dur="1.8s" begin="9.700000000000001s" fill="freeze" /></path><path d="M67.69,25.68c0.56,0.93,0.52,2.31,0.37,3.56c-1.47,12.46-7.81,28.02-17.3,34.52" class="stroke" stroke-dasharray="150"><set attributeName="opacity" to="0" dur="10.700000000000001s" /><animate attributeName="stroke-dashoffset" from="150" to="0" dur="1.8s" begin="10.700000000000001s" fill="freeze" /></path><path d="M44.42,68.08c0.66,0.25,3.92,0.4,5.67,0.17c13.17-1.75,29.43-3.26,40.67-3.5c1.76-0.04,4.57,0.08,5.67,0.33" class="stroke" stroke-dasharray="150"><set attributeName="opacity" to="0" dur="11.8s" /><animate attributeName="stroke-dashoffset" from="150" to="0" dur="1.8s" begin="11.8s" fill="freeze" /></path><path d="M72.58,49.75c0.95,0.47,1.71,2,1.71,3.81c0,0.96,0.31,36.31,0.12,42.19" class="stroke" stroke-dasharray="150"><set attributeName="opacity" to="0" dur="13.100000000000001s" /><animate attributeName="stroke-dashoffset" from="150" to="0" dur="1.8s" begin="13.100000000000001s" fill="freeze" /></path><text x="90" y="120" id="reset-kvg-0813e-Kaisho">⟳</text><text x="70" y="120" id="pause-kvg-0813e-Kaisho">◼</text><script type="text/javascript"><![CDATA[function RecurringTimer(e,t){var n,r,i=t;this.pause=function(){window.clearTimeout(n);i-=new Date-r};var s=function(){r=new Date;n=window.setTimeout(function(){i=t;s();e()},i)};this.clear=function(){window.clearTimeout(n);i=t;n=window.setTimeout(function(){i=t;s();e()},i)};this.resume=s;this.resume()}function invoketimer(){timer=new RecurringTimer(function(){svg.setCurrentTime(0)},15300.0)}var svg=document.getElementById("kvg-0813e-Kaisho");var pause=document.getElementById("pause-kvg-0813e-Kaisho");var reset=document.getElementById("reset-kvg-0813e-Kaisho");var timer;invoketimer();reset.onclick=function(){svg.setCurrentTime(0);timer.clear();svg.unpauseAnimations();pause.innerHTML = "◼";};pause.onclick=function(){if(svg.animationsPaused()){svg.unpauseAnimations();timer.resume();pause.innerHTML="◼"}else{svg.pauseAnimations();timer.pause();pause.innerHTML="▶"}}]]></script></svg>