<svg id="kvg-0814e-KaishoHzFst" class="kanjivg" width="106" height="126" xmlns="http://www.w3.org/2000/svg" xmlns:xlink="http://www.w3.org/1999/xlink" xml:space="preserve" version="1.1" baseProfile="full"><defs><style type="text/css"><![CDATA[path.black{fill:none;stroke:black;stroke-width:5;stroke-linecap:round;stroke-linejoin:round;}path.grey{fill:none;stroke:#ddd;stroke-width:5;stroke-linecap:round;stroke-linejoin:round;}path.stroke{fill:none;stroke:black;stroke-width:5;stroke-linecap:round;stroke-linejoin:round;}rect{fill:none;stroke:#555;stroke-width:2;} text{font-size:16px;font-family:Segoe UI Symbol,Cambria Math,DejaVu Sans,Symbola,Quivira,STIX,Code2000;-webkit-touch-callout:none;cursor:pointer;-webkit-user-select:none;-khtml-user-select:none;-moz-user-select:none;-ms-user-select:none;user-select: none;}text:hover{color:#777;}#reset{font-weight:bold;}]]></style><marker id="markerStart" markerWidth="8" markerHeight="8" style="overflow:visible;"><circle cx="0" cy="0" r="1.5" style="stroke:none;fill:red;fill-opacity:0.5;"/></marker><marker id="markerEnd" style="overflow:visible;"><circle cx="0" cy="0" r="0.8" style="stroke:none;fill:blue;fill-opacity:0.5;"><animate attributeName="opacity" from="1" to="0" dur="3s" repeatCount="indefinite" /></circle></marker></defs><rect x="4" y="4" width="100" height="100" /><path d="M20.48,15.21c3.4-0.36,18.53-2.19,26.45-2.62c1.2-0.07,1.92-0.13,2.52-0.03" class="grey" /><path d="M19.41,13.44c0.32,0.81,0.84,2.07,0.95,2.48c0.11,0.41,0.47,30.35,0.41,32.91" class="grey" /><path d="M34.16,14.18c0.52,0.2,0.84,0.91,0.95,1.32c0.11,0.41,0.15,5.53,0.09,8.09" class="grey" /><path d="M20.83,25.04c8.15-0.88,19.54-1.79,25.19-2.4c2.29-0.25,2.94,0.59,2.64,1.7c-0.55,2.01-1.83,4.89-2.38,7.3" class="grey" /><path d="M21.01,34.25c3.4-0.36,23.27-1.86,26.47-2.1" class="grey" /><path d="M33.82,33.32c0.52,0.2,0.84,0.91,0.95,1.32c0.11,0.41,0.18,7.37,0.12,9.93" class="grey" /><path d="M20.96,45.92c3.4-0.36,17.62-2.02,25.54-2.45c1.2-0.06,1.92-0.13,2.52-0.03" class="grey" /><path d="M58.3,15.25c1.01,0.22,1.14,0.55,3.17,0.22c2.03-0.33,20.19-2.75,21.58-3.08c1.4-0.33,2.41,1.21,1.9,2.43c-5.96,14.35-18.48,23.95-29.88,29.36" class="grey" /><path d="M58.19,21.16C61.59,21.71,78.17,36.31,90,42.3c1.84,0.93,3.18,1.55,4.9,1.86" class="grey" /><path d="M36.2,52.45c0.69,0.92,1.14,1.83,1.37,2.75C37.8,56.11,37.9,95.95,37.8,98" class="grey" /><path d="M38.94,54.28c2.75-0.23,28.44-3.09,30.49-3.35c3.66-0.46,5.04,2.98,4.58,4.35c-0.44,1.32-0.69,17.59-0.69,36.13c0,11.9-5.49,4.12-7.78,2.06" class="grey" /><path d="M37.94,64.9c6.01-0.88,12.11-1.21,18.16-1.57c1.67-0.1,3.32-0.19,4.93-0.28" class="grey" /><path d="M38.13,76.99c5.66-0.52,11.82-0.99,17.48-1.44c1.68-0.13,3.37-0.26,5.03-0.39" class="grey" /><path d="M20.48,15.21c3.4-0.36,18.53-2.19,26.45-2.62c1.2-0.07,1.92-0.13,2.52-0.03" class="stroke" stroke-dasharray="150"><animate attributeName="stroke-dashoffset" from="150" to="0" dur="1.8s" begin="0.0s" fill="freeze" /></path><path d="M19.41,13.44c0.32,0.81,0.84,2.07,0.95,2.48c0.11,0.41,0.47,30.35,0.41,32.91" class="stroke" stroke-dasharray="150"><set attributeName="opacity" to="0" dur="1.0s" /><animate attributeName="stroke-dashoffset" from="150" to="0" dur="1.8s" begin="1.0s" fill="freeze" /></path><path d="M34.16,14.18c0.52,0.2,0.84,0.91,0.95,1.32c0.11,0.41,0.15,5.53,0.09,8.09" class="stroke" stroke-dasharray="150"><set attributeName="opacity" to="0" dur="2.0s" /><animate attributeName="stroke-dashoffset" from="150" to="0" dur="1.8s" begin="2.0s" fill="freeze" /></path><path d="M20.83,25.04c8.15-0.88,19.54-1.79,25.19-2.4c2.29-0.25,2.94,0.59,2.64,1.7c-0.55,2.01-1.83,4.89-2.38,7.3" class="stroke" stroke-dasharray="150"><set attributeName="opacity" to="0" dur="2.9s" /><animate attributeName="stroke-dashoffset" from="150" to="0" dur="1.8s" begin="2.9s" fill="freeze" /></path><path d="M21.01,34.25c3.4-0.36,23.27-1.86,26.47-2.1" class="stroke" stroke-dasharray="150"><set attributeName="opacity" to="0" dur="3.9s" /><animate attributeName="stroke-dashoffset" from="150" to="0" dur="1.8s" begin="3.9s" fill="freeze" /></path><path d="M33.82,33.32c0.52,0.2,0.84,0.91,0.95,1.32c0.11,0.41,0.18,7.37,0.12,9.93" class="stroke" stroke-dasharray="150"><set attributeName="opacity" to="0" dur="4.9s" /><animate attributeName="stroke-dashoffset" from="150" to="0" dur="1.8s" begin="4.9s" fill="freeze" /></path><path d="M20.96,45.92c3.4-0.36,17.62-2.02,25.54-2.45c1.2-0.06,1.92-0.13,2.52-0.03" class="stroke" stroke-dasharray="150"><set attributeName="opacity" to="0" dur="5.800000000000001s" /><animate attributeName="stroke-dashoffset" from="150" to="0" dur="1.8s" begin="5.800000000000001s" fill="freeze" /></path><path d="M58.3,15.25c1.01,0.22,1.14,0.55,3.17,0.22c2.03-0.33,20.19-2.75,21.58-3.08c1.4-0.33,2.41,1.21,1.9,2.43c-5.96,14.35-18.48,23.95-29.88,29.36" class="stroke" stroke-dasharray="150"><set attributeName="opacity" to="0" dur="6.800000000000001s" /><animate attributeName="stroke-dashoffset" from="150" to="0" dur="1.8s" begin="6.800000000000001s" fill="freeze" /></path><path d="M58.19,21.16C61.59,21.71,78.17,36.31,90,42.3c1.84,0.93,3.18,1.55,4.9,1.86" class="stroke" stroke-dasharray="150"><set attributeName="opacity" to="0" dur="8.5s" /><animate attributeName="stroke-dashoffset" from="150" to="0" dur="1.8s" begin="8.5s" fill="freeze" /></path><path d="M36.2,52.45c0.69,0.92,1.14,1.83,1.37,2.75C37.8,56.11,37.9,95.95,37.8,98" class="stroke" stroke-dasharray="150"><set attributeName="opacity" to="0" dur="9.6s" /><animate attributeName="stroke-dashoffset" from="150" to="0" dur="1.8s" begin="9.6s" fill="freeze" /></path><path d="M38.94,54.28c2.75-0.23,28.44-3.09,30.49-3.35c3.66-0.46,5.04,2.98,4.58,4.35c-0.44,1.32-0.69,17.59-0.69,36.13c0,11.9-5.49,4.12-7.78,2.06" class="stroke" stroke-dasharray="150"><set attributeName="opacity" to="0" dur="10.799999999999999s" /><animate attributeName="stroke-dashoffset" from="150" to="0" dur="1.8s" begin="10.799999999999999s" fill="freeze" /></path><path d="M37.94,64.9c6.01-0.88,12.11-1.21,18.16-1.57c1.67-0.1,3.32-0.19,4.93-0.28" class="stroke" stroke-dasharray="150"><set attributeName="opacity" to="0" dur="12.499999999999998s" /><animate attributeName="stroke-dashoffset" from="150" to="0" dur="1.8s" begin="12.499999999999998s" fill="freeze" /></path><path d="M38.13,76.99c5.66-0.52,11.82-0.99,17.48-1.44c1.68-0.13,3.37-0.26,5.03-0.39" class="stroke" stroke-dasharray="150"><set attributeName="opacity" to="0" dur="13.499999999999998s" /><animate attributeName="stroke-dashoffset" from="150" to="0" dur="1.8s" begin="13.499999999999998s" fill="freeze" /></path><text x="90" y="120" id="reset-kvg-0814e-KaishoHzFst">⟳</text><text x="70" y="120" id="pause-kvg-0814e-KaishoHzFst">◼</text><script type="text/javascript"><![CDATA[function RecurringTimer(e,t){var n,r,i=t;this.pause=function(){window.clearTimeout(n);i-=new Date-r};var s=function(){r=new Date;n=window.setTimeout(function(){i=t;s();e()},i)};this.clear=function(){window.clearTimeout(n);i=t;n=window.setTimeout(function(){i=t;s();e()},i)};this.resume=s;this.resume()}function invoketimer(){timer=new RecurringTimer(function(){svg.setCurrentTime(0)},15499.999999999998)}var svg=document.getElementById("kvg-0814e-KaishoHzFst");var pause=document.getElementById("pause-kvg-0814e-KaishoHzFst");var reset=document.getElementById("reset-kvg-0814e-KaishoHzFst");var timer;invoketimer();reset.onclick=function(){svg.setCurrentTime(0);timer.clear();svg.unpauseAnimations();pause.innerHTML = "◼";};pause.onclick=function(){if(svg.animationsPaused()){svg.unpauseAnimations();timer.resume();pause.innerHTML="◼"}else{svg.pauseAnimations();timer.pause();pause.innerHTML="▶"}}]]></script></svg>