<svg id="kvg-0814b" class="kanjivg" width="106" height="126" xmlns="http://www.w3.org/2000/svg" xmlns:xlink="http://www.w3.org/1999/xlink" xml:space="preserve" version="1.1" baseProfile="full"><defs><style type="text/css"><![CDATA[path.black{fill:none;stroke:black;stroke-width:5;stroke-linecap:round;stroke-linejoin:round;}path.grey{fill:none;stroke:#ddd;stroke-width:5;stroke-linecap:round;stroke-linejoin:round;}path.stroke{fill:none;stroke:black;stroke-width:5;stroke-linecap:round;stroke-linejoin:round;}rect{fill:none;stroke:#555;stroke-width:2;} text{font-size:16px;font-family:Segoe UI Symbol,Cambria Math,DejaVu Sans,Symbola,Quivira,STIX,Code2000;-webkit-touch-callout:none;cursor:pointer;-webkit-user-select:none;-khtml-user-select:none;-moz-user-select:none;-ms-user-select:none;user-select: none;}text:hover{color:#777;}#reset{font-weight:bold;}]]></style><marker id="markerStart" markerWidth="8" markerHeight="8" style="overflow:visible;"><circle cx="0" cy="0" r="1.5" style="stroke:none;fill:red;fill-opacity:0.5;"/></marker><marker id="markerEnd" style="overflow:visible;"><circle cx="0" cy="0" r="0.8" style="stroke:none;fill:blue;fill-opacity:0.5;"><animate attributeName="opacity" from="1" to="0" dur="3s" repeatCount="indefinite" /></circle></marker></defs><rect x="4" y="4" width="100" height="100" /><path d="M16.42,18.92c0.83,0.83,1.53,2.42,1.53,3.35c0,6.74,0.14,25.66-0.36,33.32c-0.7,10.89-1.42,21.87-8.01,34.39" class="grey" /><path d="M17.58,21.08c1.82-0.06,11.81-1.71,13.17-1.83c2.42-0.23,3.45,1.63,3.45,2.98c0,3.19,0.05,46.09,0.05,64.17c0,12.44-4.62,3.84-6.17,2.35" class="grey" /><path d="M18.32,40.42c3.89-0.31,12-1.8,15.42-1.83" class="grey" /><path d="M18.26,57.4c3.27-0.08,11.02-1.28,15.45-1.7" class="grey" /><path d="M64.58,13.25c0.73,0.57,2.17,2,2.17,4.17c0,4.16-0.23,5.72-0.23,9.28" class="grey" /><path d="M43.25,28.92c1.75,0.58,4.37,0.3,5.33,0.17c7.81-1.09,29.06-3.38,39.67-3.67c1.64-0.04,3.61,0.05,4.83,0.67" class="grey" /><path d="M57.62,33.07c0.18,1.31-0.05,3.03-0.61,4.16c-3.6,7.17-8.17,15.18-16.42,23.91" class="grey" /><path d="M49.25,53.17c1,1.08,1.79,2.99,1.79,3.93c0,6.12-0.13,27.05-0.13,35.81" class="grey" /><path d="M76.06,32.04c0.26,0.54,0.38,2.16,0.02,3.2C73.75,42,66.5,53,55.54,63.6" class="grey" /><path d="M75.92,42.25c0.3,0.04,1.75,0.61,2.58,0.41c2.75-0.66,5-1.66,9.42-2.5c2.79-0.53,3.68,1.4,2.84,3.4C84,59.75,74,77,57.34,85.64" class="grey" /><path d="M71.5,50.05c2.57,1.6,7.11,7.04,7.75,9.54" class="grey" /><path d="M63.55,57.56C70,64.75,80.5,80,91.5,87.78c1.66,1.18,2.81,2.18,4.33,2.62" class="grey" /><path d="M16.42,18.92c0.83,0.83,1.53,2.42,1.53,3.35c0,6.74,0.14,25.66-0.36,33.32c-0.7,10.89-1.42,21.87-8.01,34.39" class="stroke" stroke-dasharray="150"><animate attributeName="stroke-dashoffset" from="150" to="0" dur="1.8s" begin="0.0s" fill="freeze" /></path><path d="M17.58,21.08c1.82-0.06,11.81-1.71,13.17-1.83c2.42-0.23,3.45,1.63,3.45,2.98c0,3.19,0.05,46.09,0.05,64.17c0,12.44-4.62,3.84-6.17,2.35" class="stroke" stroke-dasharray="150"><set attributeName="opacity" to="0" dur="1.7s" /><animate attributeName="stroke-dashoffset" from="150" to="0" dur="1.8s" begin="1.7s" fill="freeze" /></path><path d="M18.32,40.42c3.89-0.31,12-1.8,15.42-1.83" class="stroke" stroke-dasharray="150"><set attributeName="opacity" to="0" dur="3.5s" /><animate attributeName="stroke-dashoffset" from="150" to="0" dur="1.8s" begin="3.5s" fill="freeze" /></path><path d="M18.26,57.4c3.27-0.08,11.02-1.28,15.45-1.7" class="stroke" stroke-dasharray="150"><set attributeName="opacity" to="0" dur="4.4s" /><animate attributeName="stroke-dashoffset" from="150" to="0" dur="1.8s" begin="4.4s" fill="freeze" /></path><path d="M64.58,13.25c0.73,0.57,2.17,2,2.17,4.17c0,4.16-0.23,5.72-0.23,9.28" class="stroke" stroke-dasharray="150"><set attributeName="opacity" to="0" dur="5.300000000000001s" /><animate attributeName="stroke-dashoffset" from="150" to="0" dur="1.8s" begin="5.300000000000001s" fill="freeze" /></path><path d="M43.25,28.92c1.75,0.58,4.37,0.3,5.33,0.17c7.81-1.09,29.06-3.38,39.67-3.67c1.64-0.04,3.61,0.05,4.83,0.67" class="stroke" stroke-dasharray="150"><set attributeName="opacity" to="0" dur="6.200000000000001s" /><animate attributeName="stroke-dashoffset" from="150" to="0" dur="1.8s" begin="6.200000000000001s" fill="freeze" /></path><path d="M57.62,33.07c0.18,1.31-0.05,3.03-0.61,4.16c-3.6,7.17-8.17,15.18-16.42,23.91" class="stroke" stroke-dasharray="150"><set attributeName="opacity" to="0" dur="7.500000000000001s" /><animate attributeName="stroke-dashoffset" from="150" to="0" dur="1.8s" begin="7.500000000000001s" fill="freeze" /></path><path d="M49.25,53.17c1,1.08,1.79,2.99,1.79,3.93c0,6.12-0.13,27.05-0.13,35.81" class="stroke" stroke-dasharray="150"><set attributeName="opacity" to="0" dur="8.5s" /><animate attributeName="stroke-dashoffset" from="150" to="0" dur="1.8s" begin="8.5s" fill="freeze" /></path><path d="M76.06,32.04c0.26,0.54,0.38,2.16,0.02,3.2C73.75,42,66.5,53,55.54,63.6" class="stroke" stroke-dasharray="150"><set attributeName="opacity" to="0" dur="9.6s" /><animate attributeName="stroke-dashoffset" from="150" to="0" dur="1.8s" begin="9.6s" fill="freeze" /></path><path d="M75.92,42.25c0.3,0.04,1.75,0.61,2.58,0.41c2.75-0.66,5-1.66,9.42-2.5c2.79-0.53,3.68,1.4,2.84,3.4C84,59.75,74,77,57.34,85.64" class="stroke" stroke-dasharray="150"><set attributeName="opacity" to="0" dur="10.6s" /><animate attributeName="stroke-dashoffset" from="150" to="0" dur="1.8s" begin="10.6s" fill="freeze" /></path><path d="M71.5,50.05c2.57,1.6,7.11,7.04,7.75,9.54" class="stroke" stroke-dasharray="150"><set attributeName="opacity" to="0" dur="12.299999999999999s" /><animate attributeName="stroke-dashoffset" from="150" to="0" dur="1.8s" begin="12.299999999999999s" fill="freeze" /></path><path d="M63.55,57.56C70,64.75,80.5,80,91.5,87.78c1.66,1.18,2.81,2.18,4.33,2.62" class="stroke" stroke-dasharray="150"><set attributeName="opacity" to="0" dur="13.2s" /><animate attributeName="stroke-dashoffset" from="150" to="0" dur="1.8s" begin="13.2s" fill="freeze" /></path><text x="90" y="120" id="reset-kvg-0814b">⟳</text><text x="70" y="120" id="pause-kvg-0814b">◼</text><script type="text/javascript"><![CDATA[function RecurringTimer(e,t){var n,r,i=t;this.pause=function(){window.clearTimeout(n);i-=new Date-r};var s=function(){r=new Date;n=window.setTimeout(function(){i=t;s();e()},i)};this.clear=function(){window.clearTimeout(n);i=t;n=window.setTimeout(function(){i=t;s();e()},i)};this.resume=s;this.resume()}function invoketimer(){timer=new RecurringTimer(function(){svg.setCurrentTime(0)},15399.999999999998)}var svg=document.getElementById("kvg-0814b");var pause=document.getElementById("pause-kvg-0814b");var reset=document.getElementById("reset-kvg-0814b");var timer;invoketimer();reset.onclick=function(){svg.setCurrentTime(0);timer.clear();svg.unpauseAnimations();pause.innerHTML = "◼";};pause.onclick=function(){if(svg.animationsPaused()){svg.unpauseAnimations();timer.resume();pause.innerHTML="◼"}else{svg.pauseAnimations();timer.pause();pause.innerHTML="▶"}}]]></script></svg>