<svg id="kvg-08154-Kaisho" class="kanjivg" width="106" height="126" xmlns="http://www.w3.org/2000/svg" xmlns:xlink="http://www.w3.org/1999/xlink" xml:space="preserve" version="1.1" baseProfile="full"><defs><style type="text/css"><![CDATA[path.black{fill:none;stroke:black;stroke-width:5;stroke-linecap:round;stroke-linejoin:round;}path.grey{fill:none;stroke:#ddd;stroke-width:5;stroke-linecap:round;stroke-linejoin:round;}path.stroke{fill:none;stroke:black;stroke-width:5;stroke-linecap:round;stroke-linejoin:round;}rect{fill:none;stroke:#555;stroke-width:2;} text{font-size:16px;font-family:Segoe UI Symbol,Cambria Math,DejaVu Sans,Symbola,Quivira,STIX,Code2000;-webkit-touch-callout:none;cursor:pointer;-webkit-user-select:none;-khtml-user-select:none;-moz-user-select:none;-ms-user-select:none;user-select: none;}text:hover{color:#777;}#reset{font-weight:bold;}]]></style><marker id="markerStart" markerWidth="8" markerHeight="8" style="overflow:visible;"><circle cx="0" cy="0" r="1.5" style="stroke:none;fill:red;fill-opacity:0.5;"/></marker><marker id="markerEnd" style="overflow:visible;"><circle cx="0" cy="0" r="0.8" style="stroke:none;fill:blue;fill-opacity:0.5;"><animate attributeName="opacity" from="1" to="0" dur="3s" repeatCount="indefinite" /></circle></marker></defs><rect x="4" y="4" width="100" height="100" /><path d="M17.47,20.74c0.52,0.95,0.88,1.88,1.05,2.8c0.17,0.92,0.15,25.9-0.41,33.63c-0.8,11-0.61,20.08-8.11,34.72" class="grey" /><path d="M19.57,21.81c2.1-0.06,12.15-2.34,13.71-2.46c2.8-0.23,3.5,1.31,3.5,2.67c0,3.23-0.53,46.22-0.53,64.55c0,12.61-5.91,3.55-7.7,2.04" class="grey" /><path d="M19.57,41.7c2.93-0.23,5.84-0.73,8.75-1.16c0.8-0.12,1.59-0.23,2.36-0.34" class="grey" /><path d="M19.51,59.15c2.63-0.05,5.27-0.41,7.88-0.72c0.77-0.09,1.55-0.18,2.33-0.28" class="grey" /><path d="M61.59,13.75c3.08,1.09,7.13,5.39,7.4,8.53" class="grey" /><path d="M46.57,28.23c0,3.51-2.06,13.18-2.99,15.52" class="grey" /><path d="M48.61,30.13c6.14-1.13,36.74-4.35,41.37-4.63c7.67-0.47,3.21,4.67-0.47,8.17" class="grey" /><path d="M59.52,36.75c0.07,0.58,0.08,1.49-0.15,2.34C57.33,46.56,54.72,52.26,46,59.5" class="grey" /><path d="M74.51,33.72c0.94,1.02,1.68,2.22,1.74,3.78c0.12,3.47,0.11,7.25,0.06,9.98c-0.06,3.27,2.19,3.91,7.95,3.91c3.85,0,9.8-0.55,11.74-1.14" class="grey" /><path d="M51.17,66.17c0.81,0.36,2.56,0.44,3.38,0.37c7.42-0.69,19.18-2.06,28.36-2.61c1.24-0.07,2.38,0.07,3.41,0.37" class="grey" /><path d="M67.08,67.95c0.96,1.25,0.96,2,0.96,3c0,7,0.15,10.8,0.15,18.8" class="grey" /><path d="M44.75,91.05c0.72,0.32,4.53,0.57,5.75,0.51C61.5,91,75.98,90,90.45,89.27c1.96-0.1,4.32,0.53,5.3,1.03" class="grey" /><path d="M17.47,20.74c0.52,0.95,0.88,1.88,1.05,2.8c0.17,0.92,0.15,25.9-0.41,33.63c-0.8,11-0.61,20.08-8.11,34.72" class="stroke" stroke-dasharray="150"><animate attributeName="stroke-dashoffset" from="150" to="0" dur="1.8s" begin="0.0s" fill="freeze" /></path><path d="M19.57,21.81c2.1-0.06,12.15-2.34,13.71-2.46c2.8-0.23,3.5,1.31,3.5,2.67c0,3.23-0.53,46.22-0.53,64.55c0,12.61-5.91,3.55-7.7,2.04" class="stroke" stroke-dasharray="150"><set attributeName="opacity" to="0" dur="1.7s" /><animate attributeName="stroke-dashoffset" from="150" to="0" dur="1.8s" begin="1.7s" fill="freeze" /></path><path d="M19.57,41.7c2.93-0.23,5.84-0.73,8.75-1.16c0.8-0.12,1.59-0.23,2.36-0.34" class="stroke" stroke-dasharray="150"><set attributeName="opacity" to="0" dur="3.5s" /><animate attributeName="stroke-dashoffset" from="150" to="0" dur="1.8s" begin="3.5s" fill="freeze" /></path><path d="M19.51,59.15c2.63-0.05,5.27-0.41,7.88-0.72c0.77-0.09,1.55-0.18,2.33-0.28" class="stroke" stroke-dasharray="150"><set attributeName="opacity" to="0" dur="4.4s" /><animate attributeName="stroke-dashoffset" from="150" to="0" dur="1.8s" begin="4.4s" fill="freeze" /></path><path d="M61.59,13.75c3.08,1.09,7.13,5.39,7.4,8.53" class="stroke" stroke-dasharray="150"><set attributeName="opacity" to="0" dur="5.300000000000001s" /><animate attributeName="stroke-dashoffset" from="150" to="0" dur="1.8s" begin="5.300000000000001s" fill="freeze" /></path><path d="M46.57,28.23c0,3.51-2.06,13.18-2.99,15.52" class="stroke" stroke-dasharray="150"><set attributeName="opacity" to="0" dur="6.200000000000001s" /><animate attributeName="stroke-dashoffset" from="150" to="0" dur="1.8s" begin="6.200000000000001s" fill="freeze" /></path><path d="M48.61,30.13c6.14-1.13,36.74-4.35,41.37-4.63c7.67-0.47,3.21,4.67-0.47,8.17" class="stroke" stroke-dasharray="150"><set attributeName="opacity" to="0" dur="7.100000000000001s" /><animate attributeName="stroke-dashoffset" from="150" to="0" dur="1.8s" begin="7.100000000000001s" fill="freeze" /></path><path d="M59.52,36.75c0.07,0.58,0.08,1.49-0.15,2.34C57.33,46.56,54.72,52.26,46,59.5" class="stroke" stroke-dasharray="150"><set attributeName="opacity" to="0" dur="8.400000000000002s" /><animate attributeName="stroke-dashoffset" from="150" to="0" dur="1.8s" begin="8.400000000000002s" fill="freeze" /></path><path d="M74.51,33.72c0.94,1.02,1.68,2.22,1.74,3.78c0.12,3.47,0.11,7.25,0.06,9.98c-0.06,3.27,2.19,3.91,7.95,3.91c3.85,0,9.8-0.55,11.74-1.14" class="stroke" stroke-dasharray="150"><set attributeName="opacity" to="0" dur="9.400000000000002s" /><animate attributeName="stroke-dashoffset" from="150" to="0" dur="1.8s" begin="9.400000000000002s" fill="freeze" /></path><path d="M51.17,66.17c0.81,0.36,2.56,0.44,3.38,0.37c7.42-0.69,19.18-2.06,28.36-2.61c1.24-0.07,2.38,0.07,3.41,0.37" class="stroke" stroke-dasharray="150"><set attributeName="opacity" to="0" dur="10.400000000000002s" /><animate attributeName="stroke-dashoffset" from="150" to="0" dur="1.8s" begin="10.400000000000002s" fill="freeze" /></path><path d="M67.08,67.95c0.96,1.25,0.96,2,0.96,3c0,7,0.15,10.8,0.15,18.8" class="stroke" stroke-dasharray="150"><set attributeName="opacity" to="0" dur="11.400000000000002s" /><animate attributeName="stroke-dashoffset" from="150" to="0" dur="1.8s" begin="11.400000000000002s" fill="freeze" /></path><path d="M44.75,91.05c0.72,0.32,4.53,0.57,5.75,0.51C61.5,91,75.98,90,90.45,89.27c1.96-0.1,4.32,0.53,5.3,1.03" class="stroke" stroke-dasharray="150"><set attributeName="opacity" to="0" dur="12.400000000000002s" /><animate attributeName="stroke-dashoffset" from="150" to="0" dur="1.8s" begin="12.400000000000002s" fill="freeze" /></path><text x="90" y="120" id="reset-kvg-08154-Kaisho">⟳</text><text x="70" y="120" id="pause-kvg-08154-Kaisho">◼</text><script type="text/javascript"><![CDATA[function RecurringTimer(e,t){var n,r,i=t;this.pause=function(){window.clearTimeout(n);i-=new Date-r};var s=function(){r=new Date;n=window.setTimeout(function(){i=t;s();e()},i)};this.clear=function(){window.clearTimeout(n);i=t;n=window.setTimeout(function(){i=t;s();e()},i)};this.resume=s;this.resume()}function invoketimer(){timer=new RecurringTimer(function(){svg.setCurrentTime(0)},14700.000000000004)}var svg=document.getElementById("kvg-08154-Kaisho");var pause=document.getElementById("pause-kvg-08154-Kaisho");var reset=document.getElementById("reset-kvg-08154-Kaisho");var timer;invoketimer();reset.onclick=function(){svg.setCurrentTime(0);timer.clear();svg.unpauseAnimations();pause.innerHTML = "◼";};pause.onclick=function(){if(svg.animationsPaused()){svg.unpauseAnimations();timer.resume();pause.innerHTML="◼"}else{svg.pauseAnimations();timer.pause();pause.innerHTML="▶"}}]]></script></svg>