<svg id="kvg-08179-Kaisho" class="kanjivg" width="106" height="126" xmlns="http://www.w3.org/2000/svg" xmlns:xlink="http://www.w3.org/1999/xlink" xml:space="preserve" version="1.1" baseProfile="full"><defs><style type="text/css"><![CDATA[path.black{fill:none;stroke:black;stroke-width:5;stroke-linecap:round;stroke-linejoin:round;}path.grey{fill:none;stroke:#ddd;stroke-width:5;stroke-linecap:round;stroke-linejoin:round;}path.stroke{fill:none;stroke:black;stroke-width:5;stroke-linecap:round;stroke-linejoin:round;}rect{fill:none;stroke:#555;stroke-width:2;} text{font-size:16px;font-family:Segoe UI Symbol,Cambria Math,DejaVu Sans,Symbola,Quivira,STIX,Code2000;-webkit-touch-callout:none;cursor:pointer;-webkit-user-select:none;-khtml-user-select:none;-moz-user-select:none;-ms-user-select:none;user-select: none;}text:hover{color:#777;}#reset{font-weight:bold;}]]></style><marker id="markerStart" markerWidth="8" markerHeight="8" style="overflow:visible;"><circle cx="0" cy="0" r="1.5" style="stroke:none;fill:red;fill-opacity:0.5;"/></marker><marker id="markerEnd" style="overflow:visible;"><circle cx="0" cy="0" r="0.8" style="stroke:none;fill:blue;fill-opacity:0.5;"><animate attributeName="opacity" from="1" to="0" dur="3s" repeatCount="indefinite" /></circle></marker></defs><rect x="4" y="4" width="100" height="100" /><path d="M17.42,22.49c0.55,0.95,0.92,1.89,1.11,2.81c0.18,0.92,0.16,25.99-0.43,33.74C17.26,70.08,16.5,81.5,8.5,93.88" class="grey" /><path d="M19.63,23.57c2.21-0.06,13.33-2.34,14.97-2.47c2.95-0.23,3.69,1.31,3.69,2.68c0,3.24-0.55,46.37-0.55,64.76c0,11.26-6.22,3.57-8.1,2.05" class="grey" /><path d="M19.63,42.03c2.88-0.21,5.75-0.6,8.61-0.97c0.79-0.1,1.59-0.21,2.38-0.31" class="grey" /><path d="M19.57,60.54c2.94-0.43,5.89-0.86,8.84-1.24c0.77-0.1,1.53-0.2,2.29-0.29" class="grey" /><path d="M56.36,12.5c0.03,0.49,0.12,1.41-0.06,1.97C54.07,21.38,50.75,26.5,45,33.29" class="grey" /><path d="M57.25,21.97c0.69,0.28,1.94,0.35,2.63,0.28c4.37-0.48,20.12-2.75,26.97-3.83c1.13-0.18,1.51-0.06,2.42-0.03" class="grey" /><path d="M54.77,33.9c0.39,0.53,0.78,0.79,0.78,1.5c0,0.71,2.24,18.93,2.24,19.28c0,0.35,0.13,0.35,0.26,1.06" class="grey" /><path d="M56.69,35.49c4.06-0.74,23.91-4.14,25.92-4.25c1.67-0.09,2.74,1.98,2.61,2.5c-0.26,1.06-3.02,20.11-3.02,20.64" class="grey" /><path d="M57.08,44.56c4.55-0.7,9.12-1.29,13.69-1.88c1.26-0.16,2.52-0.32,3.75-0.47" class="grey" /><path d="M58.94,53.76c6.06-0.38,14.81-1.39,22.35-1.72" class="grey" /><path d="M59.33,60.25c0.04,0.47,0.08,1.23-0.08,1.91c-0.97,4.02-6.52,12.86-14.12,18.26" class="grey" /><path d="M61.72,65.98c0.25,0.03,1.84,0,2.57-0.08c2.39-0.26,10.32-2.73,13.73-3.53c2.34-0.55,3.01,0.63,2.41,2.13C77.15,72.7,59.62,92.77,45,97" class="grey" /><path d="M57.4,72.56c4.61,3.93,25.49,18.89,31.7,22.48c1.85,1.07,3.35,1.59,5.15,1.91" class="grey" /><path d="M17.42,22.49c0.55,0.95,0.92,1.89,1.11,2.81c0.18,0.92,0.16,25.99-0.43,33.74C17.26,70.08,16.5,81.5,8.5,93.88" class="stroke" stroke-dasharray="150"><animate attributeName="stroke-dashoffset" from="150" to="0" dur="1.8s" begin="0.0s" fill="freeze" /></path><path d="M19.63,23.57c2.21-0.06,13.33-2.34,14.97-2.47c2.95-0.23,3.69,1.31,3.69,2.68c0,3.24-0.55,46.37-0.55,64.76c0,11.26-6.22,3.57-8.1,2.05" class="stroke" stroke-dasharray="150"><set attributeName="opacity" to="0" dur="1.7s" /><animate attributeName="stroke-dashoffset" from="150" to="0" dur="1.8s" begin="1.7s" fill="freeze" /></path><path d="M19.63,42.03c2.88-0.21,5.75-0.6,8.61-0.97c0.79-0.1,1.59-0.21,2.38-0.31" class="stroke" stroke-dasharray="150"><set attributeName="opacity" to="0" dur="3.5s" /><animate attributeName="stroke-dashoffset" from="150" to="0" dur="1.8s" begin="3.5s" fill="freeze" /></path><path d="M19.57,60.54c2.94-0.43,5.89-0.86,8.84-1.24c0.77-0.1,1.53-0.2,2.29-0.29" class="stroke" stroke-dasharray="150"><set attributeName="opacity" to="0" dur="4.4s" /><animate attributeName="stroke-dashoffset" from="150" to="0" dur="1.8s" begin="4.4s" fill="freeze" /></path><path d="M56.36,12.5c0.03,0.49,0.12,1.41-0.06,1.97C54.07,21.38,50.75,26.5,45,33.29" class="stroke" stroke-dasharray="150"><set attributeName="opacity" to="0" dur="5.300000000000001s" /><animate attributeName="stroke-dashoffset" from="150" to="0" dur="1.8s" begin="5.300000000000001s" fill="freeze" /></path><path d="M57.25,21.97c0.69,0.28,1.94,0.35,2.63,0.28c4.37-0.48,20.12-2.75,26.97-3.83c1.13-0.18,1.51-0.06,2.42-0.03" class="stroke" stroke-dasharray="150"><set attributeName="opacity" to="0" dur="6.300000000000001s" /><animate attributeName="stroke-dashoffset" from="150" to="0" dur="1.8s" begin="6.300000000000001s" fill="freeze" /></path><path d="M54.77,33.9c0.39,0.53,0.78,0.79,0.78,1.5c0,0.71,2.24,18.93,2.24,19.28c0,0.35,0.13,0.35,0.26,1.06" class="stroke" stroke-dasharray="150"><set attributeName="opacity" to="0" dur="7.300000000000001s" /><animate attributeName="stroke-dashoffset" from="150" to="0" dur="1.8s" begin="7.300000000000001s" fill="freeze" /></path><path d="M56.69,35.49c4.06-0.74,23.91-4.14,25.92-4.25c1.67-0.09,2.74,1.98,2.61,2.5c-0.26,1.06-3.02,20.11-3.02,20.64" class="stroke" stroke-dasharray="150"><set attributeName="opacity" to="0" dur="8.3s" /><animate attributeName="stroke-dashoffset" from="150" to="0" dur="1.8s" begin="8.3s" fill="freeze" /></path><path d="M57.08,44.56c4.55-0.7,9.12-1.29,13.69-1.88c1.26-0.16,2.52-0.32,3.75-0.47" class="stroke" stroke-dasharray="150"><set attributeName="opacity" to="0" dur="9.600000000000001s" /><animate attributeName="stroke-dashoffset" from="150" to="0" dur="1.8s" begin="9.600000000000001s" fill="freeze" /></path><path d="M58.94,53.76c6.06-0.38,14.81-1.39,22.35-1.72" class="stroke" stroke-dasharray="150"><set attributeName="opacity" to="0" dur="10.500000000000002s" /><animate attributeName="stroke-dashoffset" from="150" to="0" dur="1.8s" begin="10.500000000000002s" fill="freeze" /></path><path d="M59.33,60.25c0.04,0.47,0.08,1.23-0.08,1.91c-0.97,4.02-6.52,12.86-14.12,18.26" class="stroke" stroke-dasharray="150"><set attributeName="opacity" to="0" dur="11.500000000000002s" /><animate attributeName="stroke-dashoffset" from="150" to="0" dur="1.8s" begin="11.500000000000002s" fill="freeze" /></path><path d="M61.72,65.98c0.25,0.03,1.84,0,2.57-0.08c2.39-0.26,10.32-2.73,13.73-3.53c2.34-0.55,3.01,0.63,2.41,2.13C77.15,72.7,59.62,92.77,45,97" class="stroke" stroke-dasharray="150"><set attributeName="opacity" to="0" dur="12.500000000000002s" /><animate attributeName="stroke-dashoffset" from="150" to="0" dur="1.8s" begin="12.500000000000002s" fill="freeze" /></path><path d="M57.4,72.56c4.61,3.93,25.49,18.89,31.7,22.48c1.85,1.07,3.35,1.59,5.15,1.91" class="stroke" stroke-dasharray="150"><set attributeName="opacity" to="0" dur="14.200000000000001s" /><animate attributeName="stroke-dashoffset" from="150" to="0" dur="1.8s" begin="14.200000000000001s" fill="freeze" /></path><text x="90" y="120" id="reset-kvg-08179-Kaisho">⟳</text><text x="70" y="120" id="pause-kvg-08179-Kaisho">◼</text><script type="text/javascript"><![CDATA[function RecurringTimer(e,t){var n,r,i=t;this.pause=function(){window.clearTimeout(n);i-=new Date-r};var s=function(){r=new Date;n=window.setTimeout(function(){i=t;s();e()},i)};this.clear=function(){window.clearTimeout(n);i=t;n=window.setTimeout(function(){i=t;s();e()},i)};this.resume=s;this.resume()}function invoketimer(){timer=new RecurringTimer(function(){svg.setCurrentTime(0)},16300.0)}var svg=document.getElementById("kvg-08179-Kaisho");var pause=document.getElementById("pause-kvg-08179-Kaisho");var reset=document.getElementById("reset-kvg-08179-Kaisho");var timer;invoketimer();reset.onclick=function(){svg.setCurrentTime(0);timer.clear();svg.unpauseAnimations();pause.innerHTML = "◼";};pause.onclick=function(){if(svg.animationsPaused()){svg.unpauseAnimations();timer.resume();pause.innerHTML="◼"}else{svg.pauseAnimations();timer.pause();pause.innerHTML="▶"}}]]></script></svg>