<svg id="kvg-08188" class="kanjivg" width="106" height="126" xmlns="http://www.w3.org/2000/svg" xmlns:xlink="http://www.w3.org/1999/xlink" xml:space="preserve" version="1.1" baseProfile="full"><defs><style type="text/css"><![CDATA[path.black{fill:none;stroke:black;stroke-width:5;stroke-linecap:round;stroke-linejoin:round;}path.grey{fill:none;stroke:#ddd;stroke-width:5;stroke-linecap:round;stroke-linejoin:round;}path.stroke{fill:none;stroke:black;stroke-width:5;stroke-linecap:round;stroke-linejoin:round;}rect{fill:none;stroke:#555;stroke-width:2;} text{font-size:16px;font-family:Segoe UI Symbol,Cambria Math,DejaVu Sans,Symbola,Quivira,STIX,Code2000;-webkit-touch-callout:none;cursor:pointer;-webkit-user-select:none;-khtml-user-select:none;-moz-user-select:none;-ms-user-select:none;user-select: none;}text:hover{color:#777;}#reset{font-weight:bold;}]]></style><marker id="markerStart" markerWidth="8" markerHeight="8" style="overflow:visible;"><circle cx="0" cy="0" r="1.5" style="stroke:none;fill:red;fill-opacity:0.5;"/></marker><marker id="markerEnd" style="overflow:visible;"><circle cx="0" cy="0" r="0.8" style="stroke:none;fill:blue;fill-opacity:0.5;"><animate attributeName="opacity" from="1" to="0" dur="3s" repeatCount="indefinite" /></circle></marker></defs><rect x="4" y="4" width="100" height="100" /><path d="M18.92,18.42c0.52,0.97,1,2.83,1,4.5c0,0.95,0.34,24.81-0.21,32.69c-0.78,11.2-1.59,22.49-8.96,35.37" class="grey" /><path d="M20.82,19.98C22.84,19.93,32.5,18.22,34,18.1c2.69-0.22,3.37,1.26,3.37,2.58c0,3.13-0.5,44.25-0.5,62.01c0,12.21-4.73,5.53-6.45,4.06" class="grey" /><path d="M20.65,39.16c4.2-0.22,11.89-1.29,15.58-1.31" class="grey" /><path d="M20.6,58.51c3.64-0.07,11.18-1.19,16.12-1.58" class="grey" /><path d="M47.42,16.92c2.33,0.58,3.83,0.79,5.33,0.67c7-0.58,25.54-1.34,34.5-2.33c2.25-0.25,4.75,0,6.67,0.17" class="grey" /><path d="M53.92,26.08c0.27,0.26,1.38,2.01,1.5,2.33c0.94,2.58,1.19,7.52,1.83,12.17" class="grey" /><path d="M56.25,27.42c7.81-1.29,22.97-2.56,27-3c1.47-0.16,3.38,1.89,3.17,2.83c-0.87,3.88-2,5.45-3.17,9.67" class="grey" /><path d="M58.08,38.92c5-0.22,21.33-1.28,27.67-1.5" class="grey" /><path d="M48.58,47.08c0.67,0.92,2,3.25,1.83,5.17c-0.17,1.91,0,38.64,0,41.83" class="grey" /><path d="M50.42,49.58c5.68-0.76,39.14-2.97,40.26-3.23c1.8-0.42,2.9,0.88,2.9,3.59c0,2.96-0.45,31.96-0.45,36.34c0,7.05-4.13,3.47-7.21,1.47" class="grey" /><path d="M64.58,51.08c0.35,0.79,0,1.48-0.09,1.97c-0.7,3.58-3.3,8.69-10.16,12.43" class="grey" /><path d="M74.63,50.43c0.32,0.61,0.58,1.34,0.6,2.28c0.09,4.22,0.06,3.82,0.06,5.36c0,3.61,2.74,3.01,5.96,3.01c3.4,0,6.18-0.27,6.66-0.54" class="grey" /><path d="M56.92,69.75c0.32,0.12,2.66,0.79,3.5,0.83c2.32,0.12,14.2-1.35,21.11-2.05c1-0.1,2.42,0.41,3.05,0.55" class="grey" /><path d="M69.61,72.2c0.77,0.9,1.29,1.44,1.29,2.33c0,3.46-0.19,11.59-0.19,19.41" class="grey" /><path d="M18.92,18.42c0.52,0.97,1,2.83,1,4.5c0,0.95,0.34,24.81-0.21,32.69c-0.78,11.2-1.59,22.49-8.96,35.37" class="stroke" stroke-dasharray="150"><animate attributeName="stroke-dashoffset" from="150" to="0" dur="1.8s" begin="0.0s" fill="freeze" /></path><path d="M20.82,19.98C22.84,19.93,32.5,18.22,34,18.1c2.69-0.22,3.37,1.26,3.37,2.58c0,3.13-0.5,44.25-0.5,62.01c0,12.21-4.73,5.53-6.45,4.06" class="stroke" stroke-dasharray="150"><set attributeName="opacity" to="0" dur="1.7s" /><animate attributeName="stroke-dashoffset" from="150" to="0" dur="1.8s" begin="1.7s" fill="freeze" /></path><path d="M20.65,39.16c4.2-0.22,11.89-1.29,15.58-1.31" class="stroke" stroke-dasharray="150"><set attributeName="opacity" to="0" dur="3.5s" /><animate attributeName="stroke-dashoffset" from="150" to="0" dur="1.8s" begin="3.5s" fill="freeze" /></path><path d="M20.6,58.51c3.64-0.07,11.18-1.19,16.12-1.58" class="stroke" stroke-dasharray="150"><set attributeName="opacity" to="0" dur="4.4s" /><animate attributeName="stroke-dashoffset" from="150" to="0" dur="1.8s" begin="4.4s" fill="freeze" /></path><path d="M47.42,16.92c2.33,0.58,3.83,0.79,5.33,0.67c7-0.58,25.54-1.34,34.5-2.33c2.25-0.25,4.75,0,6.67,0.17" class="stroke" stroke-dasharray="150"><set attributeName="opacity" to="0" dur="5.300000000000001s" /><animate attributeName="stroke-dashoffset" from="150" to="0" dur="1.8s" begin="5.300000000000001s" fill="freeze" /></path><path d="M53.92,26.08c0.27,0.26,1.38,2.01,1.5,2.33c0.94,2.58,1.19,7.52,1.83,12.17" class="stroke" stroke-dasharray="150"><set attributeName="opacity" to="0" dur="6.500000000000001s" /><animate attributeName="stroke-dashoffset" from="150" to="0" dur="1.8s" begin="6.500000000000001s" fill="freeze" /></path><path d="M56.25,27.42c7.81-1.29,22.97-2.56,27-3c1.47-0.16,3.38,1.89,3.17,2.83c-0.87,3.88-2,5.45-3.17,9.67" class="stroke" stroke-dasharray="150"><set attributeName="opacity" to="0" dur="7.400000000000001s" /><animate attributeName="stroke-dashoffset" from="150" to="0" dur="1.8s" begin="7.400000000000001s" fill="freeze" /></path><path d="M58.08,38.92c5-0.22,21.33-1.28,27.67-1.5" class="stroke" stroke-dasharray="150"><set attributeName="opacity" to="0" dur="8.500000000000002s" /><animate attributeName="stroke-dashoffset" from="150" to="0" dur="1.8s" begin="8.500000000000002s" fill="freeze" /></path><path d="M48.58,47.08c0.67,0.92,2,3.25,1.83,5.17c-0.17,1.91,0,38.64,0,41.83" class="stroke" stroke-dasharray="150"><set attributeName="opacity" to="0" dur="9.500000000000002s" /><animate attributeName="stroke-dashoffset" from="150" to="0" dur="1.8s" begin="9.500000000000002s" fill="freeze" /></path><path d="M50.42,49.58c5.68-0.76,39.14-2.97,40.26-3.23c1.8-0.42,2.9,0.88,2.9,3.59c0,2.96-0.45,31.96-0.45,36.34c0,7.05-4.13,3.47-7.21,1.47" class="stroke" stroke-dasharray="150"><set attributeName="opacity" to="0" dur="10.700000000000001s" /><animate attributeName="stroke-dashoffset" from="150" to="0" dur="1.8s" begin="10.700000000000001s" fill="freeze" /></path><path d="M64.58,51.08c0.35,0.79,0,1.48-0.09,1.97c-0.7,3.58-3.3,8.69-10.16,12.43" class="stroke" stroke-dasharray="150"><set attributeName="opacity" to="0" dur="12.500000000000002s" /><animate attributeName="stroke-dashoffset" from="150" to="0" dur="1.8s" begin="12.500000000000002s" fill="freeze" /></path><path d="M74.63,50.43c0.32,0.61,0.58,1.34,0.6,2.28c0.09,4.22,0.06,3.82,0.06,5.36c0,3.61,2.74,3.01,5.96,3.01c3.4,0,6.18-0.27,6.66-0.54" class="stroke" stroke-dasharray="150"><set attributeName="opacity" to="0" dur="13.400000000000002s" /><animate attributeName="stroke-dashoffset" from="150" to="0" dur="1.8s" begin="13.400000000000002s" fill="freeze" /></path><path d="M56.92,69.75c0.32,0.12,2.66,0.79,3.5,0.83c2.32,0.12,14.2-1.35,21.11-2.05c1-0.1,2.42,0.41,3.05,0.55" class="stroke" stroke-dasharray="150"><set attributeName="opacity" to="0" dur="14.400000000000002s" /><animate attributeName="stroke-dashoffset" from="150" to="0" dur="1.8s" begin="14.400000000000002s" fill="freeze" /></path><path d="M69.61,72.2c0.77,0.9,1.29,1.44,1.29,2.33c0,3.46-0.19,11.59-0.19,19.41" class="stroke" stroke-dasharray="150"><set attributeName="opacity" to="0" dur="15.400000000000002s" /><animate attributeName="stroke-dashoffset" from="150" to="0" dur="1.8s" begin="15.400000000000002s" fill="freeze" /></path><text x="90" y="120" id="reset-kvg-08188">⟳</text><text x="70" y="120" id="pause-kvg-08188">◼</text><script type="text/javascript"><![CDATA[function RecurringTimer(e,t){var n,r,i=t;this.pause=function(){window.clearTimeout(n);i-=new Date-r};var s=function(){r=new Date;n=window.setTimeout(function(){i=t;s();e()},i)};this.clear=function(){window.clearTimeout(n);i=t;n=window.setTimeout(function(){i=t;s();e()},i)};this.resume=s;this.resume()}function invoketimer(){timer=new RecurringTimer(function(){svg.setCurrentTime(0)},17400.000000000004)}var svg=document.getElementById("kvg-08188");var pause=document.getElementById("pause-kvg-08188");var reset=document.getElementById("reset-kvg-08188");var timer;invoketimer();reset.onclick=function(){svg.setCurrentTime(0);timer.clear();svg.unpauseAnimations();pause.innerHTML = "◼";};pause.onclick=function(){if(svg.animationsPaused()){svg.unpauseAnimations();timer.resume();pause.innerHTML="◼"}else{svg.pauseAnimations();timer.pause();pause.innerHTML="▶"}}]]></script></svg>