<svg id="kvg-08193" class="kanjivg" width="106" height="126" xmlns="http://www.w3.org/2000/svg" xmlns:xlink="http://www.w3.org/1999/xlink" xml:space="preserve" version="1.1" baseProfile="full"><defs><style type="text/css"><![CDATA[path.black{fill:none;stroke:black;stroke-width:5;stroke-linecap:round;stroke-linejoin:round;}path.grey{fill:none;stroke:#ddd;stroke-width:5;stroke-linecap:round;stroke-linejoin:round;}path.stroke{fill:none;stroke:black;stroke-width:5;stroke-linecap:round;stroke-linejoin:round;}rect{fill:none;stroke:#555;stroke-width:2;} text{font-size:16px;font-family:Segoe UI Symbol,Cambria Math,DejaVu Sans,Symbola,Quivira,STIX,Code2000;-webkit-touch-callout:none;cursor:pointer;-webkit-user-select:none;-khtml-user-select:none;-moz-user-select:none;-ms-user-select:none;user-select: none;}text:hover{color:#777;}#reset{font-weight:bold;}]]></style><marker id="markerStart" markerWidth="8" markerHeight="8" style="overflow:visible;"><circle cx="0" cy="0" r="1.5" style="stroke:none;fill:red;fill-opacity:0.5;"/></marker><marker id="markerEnd" style="overflow:visible;"><circle cx="0" cy="0" r="0.8" style="stroke:none;fill:blue;fill-opacity:0.5;"><animate attributeName="opacity" from="1" to="0" dur="3s" repeatCount="indefinite" /></circle></marker></defs><rect x="4" y="4" width="100" height="100" /><path d="M19.58,18.75c0.56,0.95,0.81,1.91,1,2.83c0.19,0.92,0.01,26.41-0.59,34.17c-0.75,9.77-4.45,26.5-9.75,34.88" class="grey" /><path d="M20.82,20.18c1.88-0.06,10.86-2.29,12.25-2.41c2.5-0.22,3.13,1.28,3.13,2.61c0,3.16-0.47,45.28-0.47,63.24c0,15.39-5.39,6.12-6.98,4.64" class="grey" /><path d="M21.15,40.68c3.62-0.29,10.75-1.58,13.93-1.6" class="grey" /><path d="M19.92,59.42c3.57-0.1,10.33-1.44,15.17-2" class="grey" /><path d="M56.85,13.41c0.03,0.44,0.13,1.27-0.07,1.76c-2.52,6.19-6.17,12.18-12.83,17.74" class="grey" /><path d="M56.42,22.25c1.33,0.25,3.21,0.39,3.92,0.25c4.49-0.85,18.26-2.63,23.25-3.42c1.17-0.19,3.91-0.25,4.5,0" class="grey" /><path d="M52.75,29.92c1,0.58,1.91,1.64,2,2.17c0.62,3.68,2.59,16.1,2.67,16.63" class="grey" /><path d="M54.92,31.42c4.65-0.6,19.86-3.02,25.81-3.42c1.04-0.07,1.66,1.63,1.62,2.08c-0.45,5.67-0.83,12.67-2.26,17.51" class="grey" /><path d="M56.92,39.08c1.95,0,22.13-2.5,24.33-2.5" class="grey" /><path d="M57.72,47.66c3.96-0.42,17.6-2.22,22.53-2.58" class="grey" /><path d="M44.92,56.08c1.04,0.43,3.84,0.85,5.83,0.67c10.75-1,28.97-3.33,39.17-3.5c1.74-0.03,3.79,0.12,4.67,0.33" class="grey" /><path d="M57.56,59.05c0.04,0.4,0.2,1.08-0.07,1.6c-1.91,3.71-6.74,9.33-13.11,14.27" class="grey" /><path d="M57.75,65.42c0.7,0.44,1.72,0.79,2.83,0.5c1.12-0.29,24.41-2.52,27.19-2.67c2.79-0.14,3.34,1.46,2.93,4.51c-0.42,3.05-5.15,18.7-11.28,26.99c-1.84,2.49-5.02,0.65-6.67-1.17" class="grey" /><path d="M62.53,68.64c0.04,0.34,0.13,0.9-0.09,1.38c-2.07,4.77-7.75,11.39-15.92,15.3" class="grey" /><path d="M75.01,66.72c0.09,0.74,0.32,1.96-0.17,2.98c-3.11,6.42-9.65,16.07-22.33,24.49" class="grey" /><path d="M19.58,18.75c0.56,0.95,0.81,1.91,1,2.83c0.19,0.92,0.01,26.41-0.59,34.17c-0.75,9.77-4.45,26.5-9.75,34.88" class="stroke" stroke-dasharray="150"><animate attributeName="stroke-dashoffset" from="150" to="0" dur="1.8s" begin="0.0s" fill="freeze" /></path><path d="M20.82,20.18c1.88-0.06,10.86-2.29,12.25-2.41c2.5-0.22,3.13,1.28,3.13,2.61c0,3.16-0.47,45.28-0.47,63.24c0,15.39-5.39,6.12-6.98,4.64" class="stroke" stroke-dasharray="150"><set attributeName="opacity" to="0" dur="1.7s" /><animate attributeName="stroke-dashoffset" from="150" to="0" dur="1.8s" begin="1.7s" fill="freeze" /></path><path d="M21.15,40.68c3.62-0.29,10.75-1.58,13.93-1.6" class="stroke" stroke-dasharray="150"><set attributeName="opacity" to="0" dur="3.5s" /><animate attributeName="stroke-dashoffset" from="150" to="0" dur="1.8s" begin="3.5s" fill="freeze" /></path><path d="M19.92,59.42c3.57-0.1,10.33-1.44,15.17-2" class="stroke" stroke-dasharray="150"><set attributeName="opacity" to="0" dur="4.4s" /><animate attributeName="stroke-dashoffset" from="150" to="0" dur="1.8s" begin="4.4s" fill="freeze" /></path><path d="M56.85,13.41c0.03,0.44,0.13,1.27-0.07,1.76c-2.52,6.19-6.17,12.18-12.83,17.74" class="stroke" stroke-dasharray="150"><set attributeName="opacity" to="0" dur="5.300000000000001s" /><animate attributeName="stroke-dashoffset" from="150" to="0" dur="1.8s" begin="5.300000000000001s" fill="freeze" /></path><path d="M56.42,22.25c1.33,0.25,3.21,0.39,3.92,0.25c4.49-0.85,18.26-2.63,23.25-3.42c1.17-0.19,3.91-0.25,4.5,0" class="stroke" stroke-dasharray="150"><set attributeName="opacity" to="0" dur="6.300000000000001s" /><animate attributeName="stroke-dashoffset" from="150" to="0" dur="1.8s" begin="6.300000000000001s" fill="freeze" /></path><path d="M52.75,29.92c1,0.58,1.91,1.64,2,2.17c0.62,3.68,2.59,16.1,2.67,16.63" class="stroke" stroke-dasharray="150"><set attributeName="opacity" to="0" dur="7.300000000000001s" /><animate attributeName="stroke-dashoffset" from="150" to="0" dur="1.8s" begin="7.300000000000001s" fill="freeze" /></path><path d="M54.92,31.42c4.65-0.6,19.86-3.02,25.81-3.42c1.04-0.07,1.66,1.63,1.62,2.08c-0.45,5.67-0.83,12.67-2.26,17.51" class="stroke" stroke-dasharray="150"><set attributeName="opacity" to="0" dur="8.200000000000001s" /><animate attributeName="stroke-dashoffset" from="150" to="0" dur="1.8s" begin="8.200000000000001s" fill="freeze" /></path><path d="M56.92,39.08c1.95,0,22.13-2.5,24.33-2.5" class="stroke" stroke-dasharray="150"><set attributeName="opacity" to="0" dur="9.4s" /><animate attributeName="stroke-dashoffset" from="150" to="0" dur="1.8s" begin="9.4s" fill="freeze" /></path><path d="M57.72,47.66c3.96-0.42,17.6-2.22,22.53-2.58" class="stroke" stroke-dasharray="150"><set attributeName="opacity" to="0" dur="10.4s" /><animate attributeName="stroke-dashoffset" from="150" to="0" dur="1.8s" begin="10.4s" fill="freeze" /></path><path d="M44.92,56.08c1.04,0.43,3.84,0.85,5.83,0.67c10.75-1,28.97-3.33,39.17-3.5c1.74-0.03,3.79,0.12,4.67,0.33" class="stroke" stroke-dasharray="150"><set attributeName="opacity" to="0" dur="11.4s" /><animate attributeName="stroke-dashoffset" from="150" to="0" dur="1.8s" begin="11.4s" fill="freeze" /></path><path d="M57.56,59.05c0.04,0.4,0.2,1.08-0.07,1.6c-1.91,3.71-6.74,9.33-13.11,14.27" class="stroke" stroke-dasharray="150"><set attributeName="opacity" to="0" dur="12.6s" /><animate attributeName="stroke-dashoffset" from="150" to="0" dur="1.8s" begin="12.6s" fill="freeze" /></path><path d="M57.75,65.42c0.7,0.44,1.72,0.79,2.83,0.5c1.12-0.29,24.41-2.52,27.19-2.67c2.79-0.14,3.34,1.46,2.93,4.51c-0.42,3.05-5.15,18.7-11.28,26.99c-1.84,2.49-5.02,0.65-6.67-1.17" class="stroke" stroke-dasharray="150"><set attributeName="opacity" to="0" dur="13.6s" /><animate attributeName="stroke-dashoffset" from="150" to="0" dur="1.8s" begin="13.6s" fill="freeze" /></path><path d="M62.53,68.64c0.04,0.34,0.13,0.9-0.09,1.38c-2.07,4.77-7.75,11.39-15.92,15.3" class="stroke" stroke-dasharray="150"><set attributeName="opacity" to="0" dur="15.299999999999999s" /><animate attributeName="stroke-dashoffset" from="150" to="0" dur="1.8s" begin="15.299999999999999s" fill="freeze" /></path><path d="M75.01,66.72c0.09,0.74,0.32,1.96-0.17,2.98c-3.11,6.42-9.65,16.07-22.33,24.49" class="stroke" stroke-dasharray="150"><set attributeName="opacity" to="0" dur="16.299999999999997s" /><animate attributeName="stroke-dashoffset" from="150" to="0" dur="1.8s" begin="16.299999999999997s" fill="freeze" /></path><text x="90" y="120" id="reset-kvg-08193">⟳</text><text x="70" y="120" id="pause-kvg-08193">◼</text><script type="text/javascript"><![CDATA[function RecurringTimer(e,t){var n,r,i=t;this.pause=function(){window.clearTimeout(n);i-=new Date-r};var s=function(){r=new Date;n=window.setTimeout(function(){i=t;s();e()},i)};this.clear=function(){window.clearTimeout(n);i=t;n=window.setTimeout(function(){i=t;s();e()},i)};this.resume=s;this.resume()}function invoketimer(){timer=new RecurringTimer(function(){svg.setCurrentTime(0)},18299.999999999996)}var svg=document.getElementById("kvg-08193");var pause=document.getElementById("pause-kvg-08193");var reset=document.getElementById("reset-kvg-08193");var timer;invoketimer();reset.onclick=function(){svg.setCurrentTime(0);timer.clear();svg.unpauseAnimations();pause.innerHTML = "◼";};pause.onclick=function(){if(svg.animationsPaused()){svg.unpauseAnimations();timer.resume();pause.innerHTML="◼"}else{svg.pauseAnimations();timer.pause();pause.innerHTML="▶"}}]]></script></svg>