<svg id="kvg-0819d" class="kanjivg" width="106" height="126" xmlns="http://www.w3.org/2000/svg" xmlns:xlink="http://www.w3.org/1999/xlink" xml:space="preserve" version="1.1" baseProfile="full"><defs><style type="text/css"><![CDATA[path.black{fill:none;stroke:black;stroke-width:5;stroke-linecap:round;stroke-linejoin:round;}path.grey{fill:none;stroke:#ddd;stroke-width:5;stroke-linecap:round;stroke-linejoin:round;}path.stroke{fill:none;stroke:black;stroke-width:5;stroke-linecap:round;stroke-linejoin:round;}rect{fill:none;stroke:#555;stroke-width:2;} text{font-size:16px;font-family:Segoe UI Symbol,Cambria Math,DejaVu Sans,Symbola,Quivira,STIX,Code2000;-webkit-touch-callout:none;cursor:pointer;-webkit-user-select:none;-khtml-user-select:none;-moz-user-select:none;-ms-user-select:none;user-select: none;}text:hover{color:#777;}#reset{font-weight:bold;}]]></style><marker id="markerStart" markerWidth="8" markerHeight="8" style="overflow:visible;"><circle cx="0" cy="0" r="1.5" style="stroke:none;fill:red;fill-opacity:0.5;"/></marker><marker id="markerEnd" style="overflow:visible;"><circle cx="0" cy="0" r="0.8" style="stroke:none;fill:blue;fill-opacity:0.5;"><animate attributeName="opacity" from="1" to="0" dur="3s" repeatCount="indefinite" /></circle></marker></defs><rect x="4" y="4" width="100" height="100" /><path d="M17.47,21.24c0.52,0.95,0.88,1.88,1.05,2.8c0.17,0.92,0.15,25.9-0.41,33.63c-0.8,11-1.61,22.08-9.11,34.72" class="grey" /><path d="M19.57,22.31c2.1-0.06,12.15-2.34,13.71-2.46c2.8-0.23,3.5,1.31,3.5,2.67c0,3.23-0.53,46.22-0.53,64.55c0,12.61-5.91,3.55-7.7,2.04" class="grey" /><path d="M19.57,41.2c4.61-0.35,13.03-2.04,17.08-2.07" class="grey" /><path d="M19.51,58.15c3.79-0.08,11.64-1.28,16.79-1.7" class="grey" /><path d="M45.41,26.62c1.11,0.36,2.37,0.48,3.64,0.36c6.5-0.59,25.85-3.65,35.67-4.35c1.26-0.09,2.06,0.06,3.33,0.32" class="grey" /><path d="M65.49,13.25c0.88,0.52,1.59,2.32,1.59,3.4c0,10.99,0.5,17.31,0.32,23.85" class="grey" /><path d="M66.95,24.19c-4.02,6.79-14.78,17.17-23.14,21.01" class="grey" /><path d="M69.5,28.75c8.25,2,17.25,7.5,22,14.25" class="grey" /><path d="M64.74,44.25c0.06,0.54,0.22,1.43-0.12,2.15c-2.22,4.65-9.73,14.18-21.65,20.6" class="grey" /><path d="M65.49,46.24c4.16,3.54,22.09,15.09,26.68,17.68c1.56,0.88,3.56,1.25,5.11,1.5" class="grey" /><path d="M67.3,56.58c0.07,0.39,0.96,2.04,1.03,4.53c0.33,11.96-0.21,23.42-0.21,27.49c0,9.64-4.42,2.23-5.65,1.21" class="grey" /><path d="M52.56,65.64c1.94,1.13,5,4.64,5.48,6.39" class="grey" /><path d="M46.1,85.24c1.41,1.23,2.58,1.76,3.99,0.71c0.83-0.62,7.5-6.16,11.02-9.16" class="grey" /><path d="M81.33,63.18c0.02,0.19,0.04,0.5-0.04,0.77c-0.44,1.63-2.98,5.21-6.45,7.4" class="grey" /><path d="M75.21,76.32c3.35,1.12,12.05,9.88,13.33,13.45" class="grey" /><path d="M17.47,21.24c0.52,0.95,0.88,1.88,1.05,2.8c0.17,0.92,0.15,25.9-0.41,33.63c-0.8,11-1.61,22.08-9.11,34.72" class="stroke" stroke-dasharray="150"><animate attributeName="stroke-dashoffset" from="150" to="0" dur="1.8s" begin="0.0s" fill="freeze" /></path><path d="M19.57,22.31c2.1-0.06,12.15-2.34,13.71-2.46c2.8-0.23,3.5,1.31,3.5,2.67c0,3.23-0.53,46.22-0.53,64.55c0,12.61-5.91,3.55-7.7,2.04" class="stroke" stroke-dasharray="150"><set attributeName="opacity" to="0" dur="1.7s" /><animate attributeName="stroke-dashoffset" from="150" to="0" dur="1.8s" begin="1.7s" fill="freeze" /></path><path d="M19.57,41.2c4.61-0.35,13.03-2.04,17.08-2.07" class="stroke" stroke-dasharray="150"><set attributeName="opacity" to="0" dur="3.5s" /><animate attributeName="stroke-dashoffset" from="150" to="0" dur="1.8s" begin="3.5s" fill="freeze" /></path><path d="M19.51,58.15c3.79-0.08,11.64-1.28,16.79-1.7" class="stroke" stroke-dasharray="150"><set attributeName="opacity" to="0" dur="4.4s" /><animate attributeName="stroke-dashoffset" from="150" to="0" dur="1.8s" begin="4.4s" fill="freeze" /></path><path d="M45.41,26.62c1.11,0.36,2.37,0.48,3.64,0.36c6.5-0.59,25.85-3.65,35.67-4.35c1.26-0.09,2.06,0.06,3.33,0.32" class="stroke" stroke-dasharray="150"><set attributeName="opacity" to="0" dur="5.300000000000001s" /><animate attributeName="stroke-dashoffset" from="150" to="0" dur="1.8s" begin="5.300000000000001s" fill="freeze" /></path><path d="M65.49,13.25c0.88,0.52,1.59,2.32,1.59,3.4c0,10.99,0.5,17.31,0.32,23.85" class="stroke" stroke-dasharray="150"><set attributeName="opacity" to="0" dur="6.4s" /><animate attributeName="stroke-dashoffset" from="150" to="0" dur="1.8s" begin="6.4s" fill="freeze" /></path><path d="M66.95,24.19c-4.02,6.79-14.78,17.17-23.14,21.01" class="stroke" stroke-dasharray="150"><set attributeName="opacity" to="0" dur="7.4s" /><animate attributeName="stroke-dashoffset" from="150" to="0" dur="1.8s" begin="7.4s" fill="freeze" /></path><path d="M69.5,28.75c8.25,2,17.25,7.5,22,14.25" class="stroke" stroke-dasharray="150"><set attributeName="opacity" to="0" dur="8.4s" /><animate attributeName="stroke-dashoffset" from="150" to="0" dur="1.8s" begin="8.4s" fill="freeze" /></path><path d="M64.74,44.25c0.06,0.54,0.22,1.43-0.12,2.15c-2.22,4.65-9.73,14.18-21.65,20.6" class="stroke" stroke-dasharray="150"><set attributeName="opacity" to="0" dur="9.4s" /><animate attributeName="stroke-dashoffset" from="150" to="0" dur="1.8s" begin="9.4s" fill="freeze" /></path><path d="M65.49,46.24c4.16,3.54,22.09,15.09,26.68,17.68c1.56,0.88,3.56,1.25,5.11,1.5" class="stroke" stroke-dasharray="150"><set attributeName="opacity" to="0" dur="10.4s" /><animate attributeName="stroke-dashoffset" from="150" to="0" dur="1.8s" begin="10.4s" fill="freeze" /></path><path d="M67.3,56.58c0.07,0.39,0.96,2.04,1.03,4.53c0.33,11.96-0.21,23.42-0.21,27.49c0,9.64-4.42,2.23-5.65,1.21" class="stroke" stroke-dasharray="150"><set attributeName="opacity" to="0" dur="11.4s" /><animate attributeName="stroke-dashoffset" from="150" to="0" dur="1.8s" begin="11.4s" fill="freeze" /></path><path d="M52.56,65.64c1.94,1.13,5,4.64,5.48,6.39" class="stroke" stroke-dasharray="150"><set attributeName="opacity" to="0" dur="12.5s" /><animate attributeName="stroke-dashoffset" from="150" to="0" dur="1.8s" begin="12.5s" fill="freeze" /></path><path d="M46.1,85.24c1.41,1.23,2.58,1.76,3.99,0.71c0.83-0.62,7.5-6.16,11.02-9.16" class="stroke" stroke-dasharray="150"><set attributeName="opacity" to="0" dur="13.4s" /><animate attributeName="stroke-dashoffset" from="150" to="0" dur="1.8s" begin="13.4s" fill="freeze" /></path><path d="M81.33,63.18c0.02,0.19,0.04,0.5-0.04,0.77c-0.44,1.63-2.98,5.21-6.45,7.4" class="stroke" stroke-dasharray="150"><set attributeName="opacity" to="0" dur="14.3s" /><animate attributeName="stroke-dashoffset" from="150" to="0" dur="1.8s" begin="14.3s" fill="freeze" /></path><path d="M75.21,76.32c3.35,1.12,12.05,9.88,13.33,13.45" class="stroke" stroke-dasharray="150"><set attributeName="opacity" to="0" dur="15.200000000000001s" /><animate attributeName="stroke-dashoffset" from="150" to="0" dur="1.8s" begin="15.200000000000001s" fill="freeze" /></path><text x="90" y="120" id="reset-kvg-0819d">⟳</text><text x="70" y="120" id="pause-kvg-0819d">◼</text><script type="text/javascript"><![CDATA[function RecurringTimer(e,t){var n,r,i=t;this.pause=function(){window.clearTimeout(n);i-=new Date-r};var s=function(){r=new Date;n=window.setTimeout(function(){i=t;s();e()},i)};this.clear=function(){window.clearTimeout(n);i=t;n=window.setTimeout(function(){i=t;s();e()},i)};this.resume=s;this.resume()}function invoketimer(){timer=new RecurringTimer(function(){svg.setCurrentTime(0)},17100.0)}var svg=document.getElementById("kvg-0819d");var pause=document.getElementById("pause-kvg-0819d");var reset=document.getElementById("reset-kvg-0819d");var timer;invoketimer();reset.onclick=function(){svg.setCurrentTime(0);timer.clear();svg.unpauseAnimations();pause.innerHTML = "◼";};pause.onclick=function(){if(svg.animationsPaused()){svg.unpauseAnimations();timer.resume();pause.innerHTML="◼"}else{svg.pauseAnimations();timer.pause();pause.innerHTML="▶"}}]]></script></svg>