<svg id="kvg-081c8" class="kanjivg" width="106" height="126" xmlns="http://www.w3.org/2000/svg" xmlns:xlink="http://www.w3.org/1999/xlink" xml:space="preserve" version="1.1" baseProfile="full"><defs><style type="text/css"><![CDATA[path.black{fill:none;stroke:black;stroke-width:5;stroke-linecap:round;stroke-linejoin:round;}path.grey{fill:none;stroke:#ddd;stroke-width:5;stroke-linecap:round;stroke-linejoin:round;}path.stroke{fill:none;stroke:black;stroke-width:5;stroke-linecap:round;stroke-linejoin:round;}rect{fill:none;stroke:#555;stroke-width:2;} text{font-size:16px;font-family:Segoe UI Symbol,Cambria Math,DejaVu Sans,Symbola,Quivira,STIX,Code2000;-webkit-touch-callout:none;cursor:pointer;-webkit-user-select:none;-khtml-user-select:none;-moz-user-select:none;-ms-user-select:none;user-select: none;}text:hover{color:#777;}#reset{font-weight:bold;}]]></style><marker id="markerStart" markerWidth="8" markerHeight="8" style="overflow:visible;"><circle cx="0" cy="0" r="1.5" style="stroke:none;fill:red;fill-opacity:0.5;"/></marker><marker id="markerEnd" style="overflow:visible;"><circle cx="0" cy="0" r="0.8" style="stroke:none;fill:blue;fill-opacity:0.5;"><animate attributeName="opacity" from="1" to="0" dur="3s" repeatCount="indefinite" /></circle></marker></defs><rect x="4" y="4" width="100" height="100" /><path d="M16.92,18.75c0.83,1,1.47,3.21,1.67,4.17c0.2,0.96-0.21,26.08-0.83,34.17c-0.89,11.51,0.02,19.24-7.83,36.4" class="grey" /><path d="M19.2,20.82c3.3-0.82,10.88-1.77,12.41-1.89c2.74-0.22,3.42,1.27,3.42,2.59c0,3.13-0.04,43.86-0.04,61.66c0,12.23-3.33,6.37-5.08,4.91" class="grey" /><path d="M18.7,39.92c4.28-0.37,12.1-1.64,15.86-1.67" class="grey" /><path d="M18.25,56.75c3.32-0.11,10.99-0.74,15.5-1.33" class="grey" /><path d="M43.42,23.08c0.9,0.35,4.53,0.16,5.44,0.09c8.29-0.64,31.64-3.17,41.74-3.99c1.5-0.12,3.57-0.11,4.32,0.06" class="grey" /><path d="M53.75,12.25c1.75,0.5,2.53,1.56,2.67,2.17c1.3,5.67,1.83,9.83,2.24,13.73" class="grey" /><path d="M79.73,9.6c0.23,0.85,0.53,1.48,0.27,2.53c-1.49,6.14-2.17,9.21-3.8,14.99" class="grey" /><path d="M48.08,33.08c0.34,0.35,2.19,1.87,2.29,2.34c1.38,7.08,2.67,11.77,3.62,18.61" class="grey" /><path d="M49.75,34.42c8.97-0.81,27.61-3.52,35.9-4.05c2.47-0.16,2.96,1.43,2.84,2.32c-0.46,3.24-2.95,14.31-4.07,19.73" class="grey" /><path d="M53.08,42.92c5.05-0.45,30.61-3.04,33.17-3.17" class="grey" /><path d="M55.25,52.25c8.37-0.43,20.43-1.97,28.83-2.17" class="grey" /><path d="M57.31,55.54c0.04,0.47,0.2,1.25-0.08,1.89c-2.16,4.82-7.08,11.9-15.31,18.07" class="grey" /><path d="M56.9,63.28c0.89,0.42,2.14,0.56,3.58,0.28c1.43-0.28,26.62-3.49,30.18-3.82c2.21-0.21,3.75,1.1,3.37,4.03C92.72,73.89,90.25,83,85.25,94.08c-1.76,3.9-4.97,4.74-7.31,0.6" class="grey" /><path d="M67.7,66.79c0.3,0.24-0.04,1.49-0.25,1.95c-2.08,4.59-4.15,8.46-11.59,13.99" class="grey" /><path d="M67.8,73.76c2.91,1.2,6.63,4.41,8.05,7.45" class="grey" /><path d="M50.75,71.75c0.59,0.35,1.47,1.99,1.47,2.71c0,2.79-0.42,5.29-0.42,11.19c0,1.44,0.48,2.36,2.11,2.2c3.79-0.37,15.39-1.45,22.01-1.93c1.44-0.11,3.62,0.33,4.33,0.33" class="grey" /><path d="M16.92,18.75c0.83,1,1.47,3.21,1.67,4.17c0.2,0.96-0.21,26.08-0.83,34.17c-0.89,11.51,0.02,19.24-7.83,36.4" class="stroke" stroke-dasharray="150"><animate attributeName="stroke-dashoffset" from="150" to="0" dur="1.8s" begin="0.0s" fill="freeze" /></path><path d="M19.2,20.82c3.3-0.82,10.88-1.77,12.41-1.89c2.74-0.22,3.42,1.27,3.42,2.59c0,3.13-0.04,43.86-0.04,61.66c0,12.23-3.33,6.37-5.08,4.91" class="stroke" stroke-dasharray="150"><set attributeName="opacity" to="0" dur="1.7s" /><animate attributeName="stroke-dashoffset" from="150" to="0" dur="1.8s" begin="1.7s" fill="freeze" /></path><path d="M18.7,39.92c4.28-0.37,12.1-1.64,15.86-1.67" class="stroke" stroke-dasharray="150"><set attributeName="opacity" to="0" dur="3.5s" /><animate attributeName="stroke-dashoffset" from="150" to="0" dur="1.8s" begin="3.5s" fill="freeze" /></path><path d="M18.25,56.75c3.32-0.11,10.99-0.74,15.5-1.33" class="stroke" stroke-dasharray="150"><set attributeName="opacity" to="0" dur="4.4s" /><animate attributeName="stroke-dashoffset" from="150" to="0" dur="1.8s" begin="4.4s" fill="freeze" /></path><path d="M43.42,23.08c0.9,0.35,4.53,0.16,5.44,0.09c8.29-0.64,31.64-3.17,41.74-3.99c1.5-0.12,3.57-0.11,4.32,0.06" class="stroke" stroke-dasharray="150"><set attributeName="opacity" to="0" dur="5.300000000000001s" /><animate attributeName="stroke-dashoffset" from="150" to="0" dur="1.8s" begin="5.300000000000001s" fill="freeze" /></path><path d="M53.75,12.25c1.75,0.5,2.53,1.56,2.67,2.17c1.3,5.67,1.83,9.83,2.24,13.73" class="stroke" stroke-dasharray="150"><set attributeName="opacity" to="0" dur="6.6000000000000005s" /><animate attributeName="stroke-dashoffset" from="150" to="0" dur="1.8s" begin="6.6000000000000005s" fill="freeze" /></path><path d="M79.73,9.6c0.23,0.85,0.53,1.48,0.27,2.53c-1.49,6.14-2.17,9.21-3.8,14.99" class="stroke" stroke-dasharray="150"><set attributeName="opacity" to="0" dur="7.500000000000001s" /><animate attributeName="stroke-dashoffset" from="150" to="0" dur="1.8s" begin="7.500000000000001s" fill="freeze" /></path><path d="M48.08,33.08c0.34,0.35,2.19,1.87,2.29,2.34c1.38,7.08,2.67,11.77,3.62,18.61" class="stroke" stroke-dasharray="150"><set attributeName="opacity" to="0" dur="8.4s" /><animate attributeName="stroke-dashoffset" from="150" to="0" dur="1.8s" begin="8.4s" fill="freeze" /></path><path d="M49.75,34.42c8.97-0.81,27.61-3.52,35.9-4.05c2.47-0.16,2.96,1.43,2.84,2.32c-0.46,3.24-2.95,14.31-4.07,19.73" class="stroke" stroke-dasharray="150"><set attributeName="opacity" to="0" dur="9.4s" /><animate attributeName="stroke-dashoffset" from="150" to="0" dur="1.8s" begin="9.4s" fill="freeze" /></path><path d="M53.08,42.92c5.05-0.45,30.61-3.04,33.17-3.17" class="stroke" stroke-dasharray="150"><set attributeName="opacity" to="0" dur="10.9s" /><animate attributeName="stroke-dashoffset" from="150" to="0" dur="1.8s" begin="10.9s" fill="freeze" /></path><path d="M55.25,52.25c8.37-0.43,20.43-1.97,28.83-2.17" class="stroke" stroke-dasharray="150"><set attributeName="opacity" to="0" dur="11.9s" /><animate attributeName="stroke-dashoffset" from="150" to="0" dur="1.8s" begin="11.9s" fill="freeze" /></path><path d="M57.31,55.54c0.04,0.47,0.2,1.25-0.08,1.89c-2.16,4.82-7.08,11.9-15.31,18.07" class="stroke" stroke-dasharray="150"><set attributeName="opacity" to="0" dur="12.9s" /><animate attributeName="stroke-dashoffset" from="150" to="0" dur="1.8s" begin="12.9s" fill="freeze" /></path><path d="M56.9,63.28c0.89,0.42,2.14,0.56,3.58,0.28c1.43-0.28,26.62-3.49,30.18-3.82c2.21-0.21,3.75,1.1,3.37,4.03C92.72,73.89,90.25,83,85.25,94.08c-1.76,3.9-4.97,4.74-7.31,0.6" class="stroke" stroke-dasharray="150"><set attributeName="opacity" to="0" dur="13.9s" /><animate attributeName="stroke-dashoffset" from="150" to="0" dur="1.8s" begin="13.9s" fill="freeze" /></path><path d="M67.7,66.79c0.3,0.24-0.04,1.49-0.25,1.95c-2.08,4.59-4.15,8.46-11.59,13.99" class="stroke" stroke-dasharray="150"><set attributeName="opacity" to="0" dur="15.6s" /><animate attributeName="stroke-dashoffset" from="150" to="0" dur="1.8s" begin="15.6s" fill="freeze" /></path><path d="M67.8,73.76c2.91,1.2,6.63,4.41,8.05,7.45" class="stroke" stroke-dasharray="150"><set attributeName="opacity" to="0" dur="16.6s" /><animate attributeName="stroke-dashoffset" from="150" to="0" dur="1.8s" begin="16.6s" fill="freeze" /></path><path d="M50.75,71.75c0.59,0.35,1.47,1.99,1.47,2.71c0,2.79-0.42,5.29-0.42,11.19c0,1.44,0.48,2.36,2.11,2.2c3.79-0.37,15.39-1.45,22.01-1.93c1.44-0.11,3.62,0.33,4.33,0.33" class="stroke" stroke-dasharray="150"><set attributeName="opacity" to="0" dur="17.5s" /><animate attributeName="stroke-dashoffset" from="150" to="0" dur="1.8s" begin="17.5s" fill="freeze" /></path><text x="90" y="120" id="reset-kvg-081c8">⟳</text><text x="70" y="120" id="pause-kvg-081c8">◼</text><script type="text/javascript"><![CDATA[function RecurringTimer(e,t){var n,r,i=t;this.pause=function(){window.clearTimeout(n);i-=new Date-r};var s=function(){r=new Date;n=window.setTimeout(function(){i=t;s();e()},i)};this.clear=function(){window.clearTimeout(n);i=t;n=window.setTimeout(function(){i=t;s();e()},i)};this.resume=s;this.resume()}function invoketimer(){timer=new RecurringTimer(function(){svg.setCurrentTime(0)},19600.0)}var svg=document.getElementById("kvg-081c8");var pause=document.getElementById("pause-kvg-081c8");var reset=document.getElementById("reset-kvg-081c8");var timer;invoketimer();reset.onclick=function(){svg.setCurrentTime(0);timer.clear();svg.unpauseAnimations();pause.innerHTML = "◼";};pause.onclick=function(){if(svg.animationsPaused()){svg.unpauseAnimations();timer.resume();pause.innerHTML="◼"}else{svg.pauseAnimations();timer.pause();pause.innerHTML="▶"}}]]></script></svg>