<svg id="kvg-081fe" class="kanjivg" width="106" height="126" xmlns="http://www.w3.org/2000/svg" xmlns:xlink="http://www.w3.org/1999/xlink" xml:space="preserve" version="1.1" baseProfile="full"><defs><style type="text/css"><![CDATA[path.black{fill:none;stroke:black;stroke-width:5;stroke-linecap:round;stroke-linejoin:round;}path.grey{fill:none;stroke:#ddd;stroke-width:5;stroke-linecap:round;stroke-linejoin:round;}path.stroke{fill:none;stroke:black;stroke-width:5;stroke-linecap:round;stroke-linejoin:round;}rect{fill:none;stroke:#555;stroke-width:2;} text{font-size:16px;font-family:Segoe UI Symbol,Cambria Math,DejaVu Sans,Symbola,Quivira,STIX,Code2000;-webkit-touch-callout:none;cursor:pointer;-webkit-user-select:none;-khtml-user-select:none;-moz-user-select:none;-ms-user-select:none;user-select: none;}text:hover{color:#777;}#reset{font-weight:bold;}]]></style><marker id="markerStart" markerWidth="8" markerHeight="8" style="overflow:visible;"><circle cx="0" cy="0" r="1.5" style="stroke:none;fill:red;fill-opacity:0.5;"/></marker><marker id="markerEnd" style="overflow:visible;"><circle cx="0" cy="0" r="0.8" style="stroke:none;fill:blue;fill-opacity:0.5;"><animate attributeName="opacity" from="1" to="0" dur="3s" repeatCount="indefinite" /></circle></marker></defs><rect x="4" y="4" width="100" height="100" /><path d="M41.85,20.42c0.05,0.29-0.28,1.43-0.59,1.74c-4.21,4.15-8.14,7.28-17.75,10.59" class="grey" /><path d="M22.36,31.98c0.83,0.86,1.17,2.78,1.38,4.54c0.75,6.43,3.13,19.96,3.89,28.65" class="grey" /><path d="M25.67,44.43c4.11-0.39,15-2.03,15.98-2.03c0.98,0,2.35,0,3.13,0" class="grey" /><path d="M27.75,62.12c4.11-0.39,14-2.03,14.98-2.03c0.98,0,2.35,0,3.13,0" class="grey" /><path d="M63.47,25.36c0.98,0.19,1.76,0.59,3.13,0.59c1.37,0,14.88-2.35,16.45-2.54c1.57-0.2,2.86,0.97,2.74,2.15c-1.17,11.34-4.91,36.9-5.1,37.68" class="grey" /><path d="M61.87,40.55c0.98,0.19,1.76,0.59,3.13,0.59c1.37,0,15.47-0.99,17.04-1.19" class="grey" /><path d="M61.77,58.44c0.98,0.19,1.76,0.59,3.13,0.59c1.37,0,14.47-0.99,16.04-1.19" class="grey" /><path d="M53.25,11.25c1.25,2,0.78,2.92,0.78,5.99c0,52.01-3.04,65.51-38.79,83.76" class="grey" /><path d="M52.75,56.75c5.64,11.3,19.5,31.19,32.86,38.71c2.32,1.31,4.45,2.54,6.39,3.04" class="grey" /><path d="M41.85,20.42c0.05,0.29-0.28,1.43-0.59,1.74c-4.21,4.15-8.14,7.28-17.75,10.59" class="stroke" stroke-dasharray="150"><animate attributeName="stroke-dashoffset" from="150" to="0" dur="1.8s" begin="0.0s" fill="freeze" /></path><path d="M22.36,31.98c0.83,0.86,1.17,2.78,1.38,4.54c0.75,6.43,3.13,19.96,3.89,28.65" class="stroke" stroke-dasharray="150"><set attributeName="opacity" to="0" dur="1.0s" /><animate attributeName="stroke-dashoffset" from="150" to="0" dur="1.8s" begin="1.0s" fill="freeze" /></path><path d="M25.67,44.43c4.11-0.39,15-2.03,15.98-2.03c0.98,0,2.35,0,3.13,0" class="stroke" stroke-dasharray="150"><set attributeName="opacity" to="0" dur="2.0s" /><animate attributeName="stroke-dashoffset" from="150" to="0" dur="1.8s" begin="2.0s" fill="freeze" /></path><path d="M27.75,62.12c4.11-0.39,14-2.03,14.98-2.03c0.98,0,2.35,0,3.13,0" class="stroke" stroke-dasharray="150"><set attributeName="opacity" to="0" dur="2.9s" /><animate attributeName="stroke-dashoffset" from="150" to="0" dur="1.8s" begin="2.9s" fill="freeze" /></path><path d="M63.47,25.36c0.98,0.19,1.76,0.59,3.13,0.59c1.37,0,14.88-2.35,16.45-2.54c1.57-0.2,2.86,0.97,2.74,2.15c-1.17,11.34-4.91,36.9-5.1,37.68" class="stroke" stroke-dasharray="150"><set attributeName="opacity" to="0" dur="3.8s" /><animate attributeName="stroke-dashoffset" from="150" to="0" dur="1.8s" begin="3.8s" fill="freeze" /></path><path d="M61.87,40.55c0.98,0.19,1.76,0.59,3.13,0.59c1.37,0,15.47-0.99,17.04-1.19" class="stroke" stroke-dasharray="150"><set attributeName="opacity" to="0" dur="5.3s" /><animate attributeName="stroke-dashoffset" from="150" to="0" dur="1.8s" begin="5.3s" fill="freeze" /></path><path d="M61.77,58.44c0.98,0.19,1.76,0.59,3.13,0.59c1.37,0,14.47-0.99,16.04-1.19" class="stroke" stroke-dasharray="150"><set attributeName="opacity" to="0" dur="6.3s" /><animate attributeName="stroke-dashoffset" from="150" to="0" dur="1.8s" begin="6.3s" fill="freeze" /></path><path d="M53.25,11.25c1.25,2,0.78,2.92,0.78,5.99c0,52.01-3.04,65.51-38.79,83.76" class="stroke" stroke-dasharray="150"><set attributeName="opacity" to="0" dur="7.2s" /><animate attributeName="stroke-dashoffset" from="150" to="0" dur="1.8s" begin="7.2s" fill="freeze" /></path><path d="M52.75,56.75c5.64,11.3,19.5,31.19,32.86,38.71c2.32,1.31,4.45,2.54,6.39,3.04" class="stroke" stroke-dasharray="150"><set attributeName="opacity" to="0" dur="9.1s" /><animate attributeName="stroke-dashoffset" from="150" to="0" dur="1.8s" begin="9.1s" fill="freeze" /></path><text x="90" y="120" id="reset-kvg-081fe">⟳</text><text x="70" y="120" id="pause-kvg-081fe">◼</text><script type="text/javascript"><![CDATA[function RecurringTimer(e,t){var n,r,i=t;this.pause=function(){window.clearTimeout(n);i-=new Date-r};var s=function(){r=new Date;n=window.setTimeout(function(){i=t;s();e()},i)};this.clear=function(){window.clearTimeout(n);i=t;n=window.setTimeout(function(){i=t;s();e()},i)};this.resume=s;this.resume()}function invoketimer(){timer=new RecurringTimer(function(){svg.setCurrentTime(0)},11500.0)}var svg=document.getElementById("kvg-081fe");var pause=document.getElementById("pause-kvg-081fe");var reset=document.getElementById("reset-kvg-081fe");var timer;invoketimer();reset.onclick=function(){svg.setCurrentTime(0);timer.clear();svg.unpauseAnimations();pause.innerHTML = "◼";};pause.onclick=function(){if(svg.animationsPaused()){svg.unpauseAnimations();timer.resume();pause.innerHTML="◼"}else{svg.pauseAnimations();timer.pause();pause.innerHTML="▶"}}]]></script></svg>