<svg id="kvg-0821c" class="kanjivg" width="106" height="126" xmlns="http://www.w3.org/2000/svg" xmlns:xlink="http://www.w3.org/1999/xlink" xml:space="preserve" version="1.1" baseProfile="full"><defs><style type="text/css"><![CDATA[path.black{fill:none;stroke:black;stroke-width:5;stroke-linecap:round;stroke-linejoin:round;}path.grey{fill:none;stroke:#ddd;stroke-width:5;stroke-linecap:round;stroke-linejoin:round;}path.stroke{fill:none;stroke:black;stroke-width:5;stroke-linecap:round;stroke-linejoin:round;}rect{fill:none;stroke:#555;stroke-width:2;} text{font-size:16px;font-family:Segoe UI Symbol,Cambria Math,DejaVu Sans,Symbola,Quivira,STIX,Code2000;-webkit-touch-callout:none;cursor:pointer;-webkit-user-select:none;-khtml-user-select:none;-moz-user-select:none;-ms-user-select:none;user-select: none;}text:hover{color:#777;}#reset{font-weight:bold;}]]></style><marker id="markerStart" markerWidth="8" markerHeight="8" style="overflow:visible;"><circle cx="0" cy="0" r="1.5" style="stroke:none;fill:red;fill-opacity:0.5;"/></marker><marker id="markerEnd" style="overflow:visible;"><circle cx="0" cy="0" r="0.8" style="stroke:none;fill:blue;fill-opacity:0.5;"><animate attributeName="opacity" from="1" to="0" dur="3s" repeatCount="indefinite" /></circle></marker></defs><rect x="4" y="4" width="100" height="100" /><path d="M74.69,11.14c-0.44,1.36-1.55,2.17-2.43,2.62c-5.92,2.96-21.26,7.66-41.2,10.71" class="grey" /><path d="M34.52,29.08c2.13,1.7,5.51,6.99,6.04,9.63" class="grey" /><path d="M50.64,27.46c1.65,1.46,4.26,5.99,4.67,8.26" class="grey" /><path d="M73.54,24.39c0.06,0.91-0.03,1.8-0.28,2.68C72.51,30.01,70.51,33.85,68,38" class="grey" /><path d="M19.88,40.12c0,3.65-3.01,13.69-4.38,16.12" class="grey" /><path d="M19.98,45.22c14.15-1.47,41.02-3.85,65.3-4.89c11.41-0.49,2.42,6.53-0.42,8.53" class="grey" /><path d="M32.69,51.84c0.31,0.91,0.12,2.05-0.2,2.89c-2.24,5.9-6.74,13.27-15.07,22.13" class="grey" /><path d="M33.03,60.89c0.85,0.24,1.78,0.25,2.47,0.15c1.91-0.26,5.36-1.05,8.14-1.99c3.21-1.1,4.76-0.21,3.45,3.36C43.3,72.74,32.12,90.38,16.87,98.52" class="grey" /><path d="M26.62,71.62c2.48,1.35,6.42,5.55,7.04,7.66" class="grey" /><path d="M55.93,59.81c1.43,0.47,3.23,0.53,4.7,0.46c5.84-0.25,15.98-1.27,21.74-1.5c1.6-0.06,3.22-0.09,4.8,0.22" class="grey" /><path d="M58.75,61.13c0.81,0.81,0.75,1.77,0.75,2.87c0,4.92,0,12.53,0,14.5" class="grey" /><path d="M47.5,79.64c2,0.81,4.28,0.65,6.38,0.57c8.86-0.3,24.65-1.66,32.48-2.2c1.84-0.13,3.58-0.19,5.39,0.25" class="grey" /><path d="M71.82,50.25c1.34,1.34,1.73,2.75,1.73,4.67c0,0.93-0.03,24.21-0.04,36.21c0,3.14,0,5.51,0,6.5" class="grey" /><path d="M74.69,11.14c-0.44,1.36-1.55,2.17-2.43,2.62c-5.92,2.96-21.26,7.66-41.2,10.71" class="stroke" stroke-dasharray="150"><animate attributeName="stroke-dashoffset" from="150" to="0" dur="1.8s" begin="0.0s" fill="freeze" /></path><path d="M34.52,29.08c2.13,1.7,5.51,6.99,6.04,9.63" class="stroke" stroke-dasharray="150"><set attributeName="opacity" to="0" dur="1.2s" /><animate attributeName="stroke-dashoffset" from="150" to="0" dur="1.8s" begin="1.2s" fill="freeze" /></path><path d="M50.64,27.46c1.65,1.46,4.26,5.99,4.67,8.26" class="stroke" stroke-dasharray="150"><set attributeName="opacity" to="0" dur="2.1s" /><animate attributeName="stroke-dashoffset" from="150" to="0" dur="1.8s" begin="2.1s" fill="freeze" /></path><path d="M73.54,24.39c0.06,0.91-0.03,1.8-0.28,2.68C72.51,30.01,70.51,33.85,68,38" class="stroke" stroke-dasharray="150"><set attributeName="opacity" to="0" dur="3.0s" /><animate attributeName="stroke-dashoffset" from="150" to="0" dur="1.8s" begin="3.0s" fill="freeze" /></path><path d="M19.88,40.12c0,3.65-3.01,13.69-4.38,16.12" class="stroke" stroke-dasharray="150"><set attributeName="opacity" to="0" dur="3.9s" /><animate attributeName="stroke-dashoffset" from="150" to="0" dur="1.8s" begin="3.9s" fill="freeze" /></path><path d="M19.98,45.22c14.15-1.47,41.02-3.85,65.3-4.89c11.41-0.49,2.42,6.53-0.42,8.53" class="stroke" stroke-dasharray="150"><set attributeName="opacity" to="0" dur="4.8s" /><animate attributeName="stroke-dashoffset" from="150" to="0" dur="1.8s" begin="4.8s" fill="freeze" /></path><path d="M32.69,51.84c0.31,0.91,0.12,2.05-0.2,2.89c-2.24,5.9-6.74,13.27-15.07,22.13" class="stroke" stroke-dasharray="150"><set attributeName="opacity" to="0" dur="6.5s" /><animate attributeName="stroke-dashoffset" from="150" to="0" dur="1.8s" begin="6.5s" fill="freeze" /></path><path d="M33.03,60.89c0.85,0.24,1.78,0.25,2.47,0.15c1.91-0.26,5.36-1.05,8.14-1.99c3.21-1.1,4.76-0.21,3.45,3.36C43.3,72.74,32.12,90.38,16.87,98.52" class="stroke" stroke-dasharray="150"><set attributeName="opacity" to="0" dur="7.5s" /><animate attributeName="stroke-dashoffset" from="150" to="0" dur="1.8s" begin="7.5s" fill="freeze" /></path><path d="M26.62,71.62c2.48,1.35,6.42,5.55,7.04,7.66" class="stroke" stroke-dasharray="150"><set attributeName="opacity" to="0" dur="9.0s" /><animate attributeName="stroke-dashoffset" from="150" to="0" dur="1.8s" begin="9.0s" fill="freeze" /></path><path d="M55.93,59.81c1.43,0.47,3.23,0.53,4.7,0.46c5.84-0.25,15.98-1.27,21.74-1.5c1.6-0.06,3.22-0.09,4.8,0.22" class="stroke" stroke-dasharray="150"><set attributeName="opacity" to="0" dur="9.9s" /><animate attributeName="stroke-dashoffset" from="150" to="0" dur="1.8s" begin="9.9s" fill="freeze" /></path><path d="M58.75,61.13c0.81,0.81,0.75,1.77,0.75,2.87c0,4.92,0,12.53,0,14.5" class="stroke" stroke-dasharray="150"><set attributeName="opacity" to="0" dur="10.9s" /><animate attributeName="stroke-dashoffset" from="150" to="0" dur="1.8s" begin="10.9s" fill="freeze" /></path><path d="M47.5,79.64c2,0.81,4.28,0.65,6.38,0.57c8.86-0.3,24.65-1.66,32.48-2.2c1.84-0.13,3.58-0.19,5.39,0.25" class="stroke" stroke-dasharray="150"><set attributeName="opacity" to="0" dur="11.8s" /><animate attributeName="stroke-dashoffset" from="150" to="0" dur="1.8s" begin="11.8s" fill="freeze" /></path><path d="M71.82,50.25c1.34,1.34,1.73,2.75,1.73,4.67c0,0.93-0.03,24.21-0.04,36.21c0,3.14,0,5.51,0,6.5" class="stroke" stroke-dasharray="150"><set attributeName="opacity" to="0" dur="12.9s" /><animate attributeName="stroke-dashoffset" from="150" to="0" dur="1.8s" begin="12.9s" fill="freeze" /></path><text x="90" y="120" id="reset-kvg-0821c">⟳</text><text x="70" y="120" id="pause-kvg-0821c">◼</text><script type="text/javascript"><![CDATA[function RecurringTimer(e,t){var n,r,i=t;this.pause=function(){window.clearTimeout(n);i-=new Date-r};var s=function(){r=new Date;n=window.setTimeout(function(){i=t;s();e()},i)};this.clear=function(){window.clearTimeout(n);i=t;n=window.setTimeout(function(){i=t;s();e()},i)};this.resume=s;this.resume()}function invoketimer(){timer=new RecurringTimer(function(){svg.setCurrentTime(0)},15100.0)}var svg=document.getElementById("kvg-0821c");var pause=document.getElementById("pause-kvg-0821c");var reset=document.getElementById("reset-kvg-0821c");var timer;invoketimer();reset.onclick=function(){svg.setCurrentTime(0);timer.clear();svg.unpauseAnimations();pause.innerHTML = "◼";};pause.onclick=function(){if(svg.animationsPaused()){svg.unpauseAnimations();timer.resume();pause.innerHTML="◼"}else{svg.pauseAnimations();timer.pause();pause.innerHTML="▶"}}]]></script></svg>