<svg id="kvg-08237-Kaisho" class="kanjivg" width="106" height="126" xmlns="http://www.w3.org/2000/svg" xmlns:xlink="http://www.w3.org/1999/xlink" xml:space="preserve" version="1.1" baseProfile="full"><defs><style type="text/css"><![CDATA[path.black{fill:none;stroke:black;stroke-width:5;stroke-linecap:round;stroke-linejoin:round;}path.grey{fill:none;stroke:#ddd;stroke-width:5;stroke-linecap:round;stroke-linejoin:round;}path.stroke{fill:none;stroke:black;stroke-width:5;stroke-linecap:round;stroke-linejoin:round;}rect{fill:none;stroke:#555;stroke-width:2;} text{font-size:16px;font-family:Segoe UI Symbol,Cambria Math,DejaVu Sans,Symbola,Quivira,STIX,Code2000;-webkit-touch-callout:none;cursor:pointer;-webkit-user-select:none;-khtml-user-select:none;-moz-user-select:none;-ms-user-select:none;user-select: none;}text:hover{color:#777;}#reset{font-weight:bold;}]]></style><marker id="markerStart" markerWidth="8" markerHeight="8" style="overflow:visible;"><circle cx="0" cy="0" r="1.5" style="stroke:none;fill:red;fill-opacity:0.5;"/></marker><marker id="markerEnd" style="overflow:visible;"><circle cx="0" cy="0" r="0.8" style="stroke:none;fill:blue;fill-opacity:0.5;"><animate attributeName="opacity" from="1" to="0" dur="3s" repeatCount="indefinite" /></circle></marker></defs><rect x="4" y="4" width="100" height="100" /><path d="M32.45,12.25c0.94,1.93,1.07,1.93,0.75,3.47c-0.31,1.54-4.57,9.24-8.96,15.78" class="grey" /><path d="M19.56,31.22c0.86,1.3,1.08,3.56,1.08,5.18c0,1.62,0.12,23,0.22,25.92c0.43,12.76-4.1,27.68-10.6,35.18" class="grey" /><path d="M21.75,33.06c4.2-0.64,14.8-2.86,18.6-3.5c3.8-0.64,3.6,1.27,3.6,3.5c0,2.22-0.4,53.71-0.4,56.89c0,9.05-5.4,1.91-6.2,1.27" class="grey" /><path d="M28.03,38.52c1.56,1.8,5.46,6.61,5.85,8.72" class="grey" /><path d="M30.05,57.89c1,1.59,1.2,2.54,1.2,3.81c0,1.27-0.4,12.3-0.4,18.21" class="grey" /><path d="M11,60c0.44,1.12,2.36,1.31,3.75,1s30.75-11.75,34.5-13.25" class="grey" /><path d="M67.56,13c2.96,1.55,7.85,7.55,7.85,10.63" class="grey" /><path d="M53,30.73c0.9,0.07,2.95,0.49,3.83,0.39c7.06-0.82,26.26-3.59,36.33-4.15c1.48-0.08,2.24,0.03,3.34,0.5" class="grey" /><path d="M70.59,32.28c0.37,1.46,0.6,2.63-0.18,4.14C67,42.99,63.25,48.75,57.01,56.29c-0.67,0.82-0.24,1.88,0.5,2.15c4.99,1.8,10.7,3.43,13.99,6.11" class="grey" /><path d="M85.21,41.84c0.54,1.54,0.15,4.62-0.5,5.56C75.75,60.33,70,70.23,55.96,87.03c-1.57,1.88-1.01,3.29,1,2.78c10.04-2.56,16.79-3.58,31-7.62" class="grey" /><path d="M81.71,71.1c4.32,4.02,11.17,16.51,12.25,22.76" class="grey" /><path d="M32.45,12.25c0.94,1.93,1.07,1.93,0.75,3.47c-0.31,1.54-4.57,9.24-8.96,15.78" class="stroke" stroke-dasharray="150"><animate attributeName="stroke-dashoffset" from="150" to="0" dur="1.8s" begin="0.0s" fill="freeze" /></path><path d="M19.56,31.22c0.86,1.3,1.08,3.56,1.08,5.18c0,1.62,0.12,23,0.22,25.92c0.43,12.76-4.1,27.68-10.6,35.18" class="stroke" stroke-dasharray="150"><set attributeName="opacity" to="0" dur="1.0s" /><animate attributeName="stroke-dashoffset" from="150" to="0" dur="1.8s" begin="1.0s" fill="freeze" /></path><path d="M21.75,33.06c4.2-0.64,14.8-2.86,18.6-3.5c3.8-0.64,3.6,1.27,3.6,3.5c0,2.22-0.4,53.71-0.4,56.89c0,9.05-5.4,1.91-6.2,1.27" class="stroke" stroke-dasharray="150"><set attributeName="opacity" to="0" dur="2.5s" /><animate attributeName="stroke-dashoffset" from="150" to="0" dur="1.8s" begin="2.5s" fill="freeze" /></path><path d="M28.03,38.52c1.56,1.8,5.46,6.61,5.85,8.72" class="stroke" stroke-dasharray="150"><set attributeName="opacity" to="0" dur="4.3s" /><animate attributeName="stroke-dashoffset" from="150" to="0" dur="1.8s" begin="4.3s" fill="freeze" /></path><path d="M30.05,57.89c1,1.59,1.2,2.54,1.2,3.81c0,1.27-0.4,12.3-0.4,18.21" class="stroke" stroke-dasharray="150"><set attributeName="opacity" to="0" dur="5.2s" /><animate attributeName="stroke-dashoffset" from="150" to="0" dur="1.8s" begin="5.2s" fill="freeze" /></path><path d="M11,60c0.44,1.12,2.36,1.31,3.75,1s30.75-11.75,34.5-13.25" class="stroke" stroke-dasharray="150"><set attributeName="opacity" to="0" dur="6.2s" /><animate attributeName="stroke-dashoffset" from="150" to="0" dur="1.8s" begin="6.2s" fill="freeze" /></path><path d="M67.56,13c2.96,1.55,7.85,7.55,7.85,10.63" class="stroke" stroke-dasharray="150"><set attributeName="opacity" to="0" dur="7.300000000000001s" /><animate attributeName="stroke-dashoffset" from="150" to="0" dur="1.8s" begin="7.300000000000001s" fill="freeze" /></path><path d="M53,30.73c0.9,0.07,2.95,0.49,3.83,0.39c7.06-0.82,26.26-3.59,36.33-4.15c1.48-0.08,2.24,0.03,3.34,0.5" class="stroke" stroke-dasharray="150"><set attributeName="opacity" to="0" dur="8.200000000000001s" /><animate attributeName="stroke-dashoffset" from="150" to="0" dur="1.8s" begin="8.200000000000001s" fill="freeze" /></path><path d="M70.59,32.28c0.37,1.46,0.6,2.63-0.18,4.14C67,42.99,63.25,48.75,57.01,56.29c-0.67,0.82-0.24,1.88,0.5,2.15c4.99,1.8,10.7,3.43,13.99,6.11" class="stroke" stroke-dasharray="150"><set attributeName="opacity" to="0" dur="9.3s" /><animate attributeName="stroke-dashoffset" from="150" to="0" dur="1.8s" begin="9.3s" fill="freeze" /></path><path d="M85.21,41.84c0.54,1.54,0.15,4.62-0.5,5.56C75.75,60.33,70,70.23,55.96,87.03c-1.57,1.88-1.01,3.29,1,2.78c10.04-2.56,16.79-3.58,31-7.62" class="stroke" stroke-dasharray="150"><set attributeName="opacity" to="0" dur="10.5s" /><animate attributeName="stroke-dashoffset" from="150" to="0" dur="1.8s" begin="10.5s" fill="freeze" /></path><path d="M81.71,71.1c4.32,4.02,11.17,16.51,12.25,22.76" class="stroke" stroke-dasharray="150"><set attributeName="opacity" to="0" dur="12.3s" /><animate attributeName="stroke-dashoffset" from="150" to="0" dur="1.8s" begin="12.3s" fill="freeze" /></path><text x="90" y="120" id="reset-kvg-08237-Kaisho">⟳</text><text x="70" y="120" id="pause-kvg-08237-Kaisho">◼</text><script type="text/javascript"><![CDATA[function RecurringTimer(e,t){var n,r,i=t;this.pause=function(){window.clearTimeout(n);i-=new Date-r};var s=function(){r=new Date;n=window.setTimeout(function(){i=t;s();e()},i)};this.clear=function(){window.clearTimeout(n);i=t;n=window.setTimeout(function(){i=t;s();e()},i)};this.resume=s;this.resume()}function invoketimer(){timer=new RecurringTimer(function(){svg.setCurrentTime(0)},14300.0)}var svg=document.getElementById("kvg-08237-Kaisho");var pause=document.getElementById("pause-kvg-08237-Kaisho");var reset=document.getElementById("reset-kvg-08237-Kaisho");var timer;invoketimer();reset.onclick=function(){svg.setCurrentTime(0);timer.clear();svg.unpauseAnimations();pause.innerHTML = "◼";};pause.onclick=function(){if(svg.animationsPaused()){svg.unpauseAnimations();timer.resume();pause.innerHTML="◼"}else{svg.pauseAnimations();timer.pause();pause.innerHTML="▶"}}]]></script></svg>