<svg id="kvg-08233" class="kanjivg" width="106" height="126" xmlns="http://www.w3.org/2000/svg" xmlns:xlink="http://www.w3.org/1999/xlink" xml:space="preserve" version="1.1" baseProfile="full"><defs><style type="text/css"><![CDATA[path.black{fill:none;stroke:black;stroke-width:5;stroke-linecap:round;stroke-linejoin:round;}path.grey{fill:none;stroke:#ddd;stroke-width:5;stroke-linecap:round;stroke-linejoin:round;}path.stroke{fill:none;stroke:black;stroke-width:5;stroke-linecap:round;stroke-linejoin:round;}rect{fill:none;stroke:#555;stroke-width:2;} text{font-size:16px;font-family:Segoe UI Symbol,Cambria Math,DejaVu Sans,Symbola,Quivira,STIX,Code2000;-webkit-touch-callout:none;cursor:pointer;-webkit-user-select:none;-khtml-user-select:none;-moz-user-select:none;-ms-user-select:none;user-select: none;}text:hover{color:#777;}#reset{font-weight:bold;}]]></style><marker id="markerStart" markerWidth="8" markerHeight="8" style="overflow:visible;"><circle cx="0" cy="0" r="1.5" style="stroke:none;fill:red;fill-opacity:0.5;"/></marker><marker id="markerEnd" style="overflow:visible;"><circle cx="0" cy="0" r="0.8" style="stroke:none;fill:blue;fill-opacity:0.5;"><animate attributeName="opacity" from="1" to="0" dur="3s" repeatCount="indefinite" /></circle></marker></defs><rect x="4" y="4" width="100" height="100" /><path d="M27.58,12.42c1.07,1.69,0.22,2.38-0.14,3.73c-0.36,1.35-2.45,4.1-6.28,9.44" class="grey" /><path d="M16.58,26.25c0.81,1.31,3,2.7,3,4.33c0,1.64,0.09,19.13,0.19,22.08c0.53,16.81-3.52,34.59-10.02,40.59" class="grey" /><path d="M19.42,28.18c3.66-0.62,13.5-2.41,16.81-3.04c3.31-0.62,3.14,1.24,3.14,3.42c0,2.17-0.35,54.96-0.35,58.06c0,3.11-0.38,4.57-2.44,4.04c-1.57-0.4-3.3-1.46-3.99-2.08" class="grey" /><path d="M26.36,35.11c1.16,1.91,4.05,6.99,4.34,9.22" class="grey" /><path d="M27.75,55.58c0.75,1.61,0.73,2.88,0.73,4.17c0,2.2,0.24,17.24,0,19.83" class="grey" /><path d="M11.42,55.25c1.33,1,2.29,0.83,3.5,0.5C16.13,55.42,44.49,45.33,46,45.33" class="grey" /><path d="M52.25,43.58c1.67,1.17,1.9,3.47,2,4.5c0.85,8.46,1.83,26.75,2.33,42.33" class="grey" /><path d="M54.77,45.47c12.5-2.22,26.57-3.02,34.48-3.89c2.91-0.32,5.82,1.45,5.67,3.83c-0.58,8.73-3.17,30.33-5.5,44.17" class="grey" /><path d="M69.92,14.92c2.08,1.33,2.5,3.57,2.5,5c0.04,14.16,0.33,63.47,0.33,67.17" class="grey" /><path d="M55.92,65.08c3.35-0.32,32.9-2.83,35.67-2.83" class="grey" /><path d="M57.08,88.25c6.12-0.4,17.57-1.54,32.17-1.83" class="grey" /><path d="M27.58,12.42c1.07,1.69,0.22,2.38-0.14,3.73c-0.36,1.35-2.45,4.1-6.28,9.44" class="stroke" stroke-dasharray="150"><animate attributeName="stroke-dashoffset" from="150" to="0" dur="1.8s" begin="0.0s" fill="freeze" /></path><path d="M16.58,26.25c0.81,1.31,3,2.7,3,4.33c0,1.64,0.09,19.13,0.19,22.08c0.53,16.81-3.52,34.59-10.02,40.59" class="stroke" stroke-dasharray="150"><set attributeName="opacity" to="0" dur="0.9s" /><animate attributeName="stroke-dashoffset" from="150" to="0" dur="1.8s" begin="0.9s" fill="freeze" /></path><path d="M19.42,28.18c3.66-0.62,13.5-2.41,16.81-3.04c3.31-0.62,3.14,1.24,3.14,3.42c0,2.17-0.35,54.96-0.35,58.06c0,3.11-0.38,4.57-2.44,4.04c-1.57-0.4-3.3-1.46-3.99-2.08" class="stroke" stroke-dasharray="150"><set attributeName="opacity" to="0" dur="2.6s" /><animate attributeName="stroke-dashoffset" from="150" to="0" dur="1.8s" begin="2.6s" fill="freeze" /></path><path d="M26.36,35.11c1.16,1.91,4.05,6.99,4.34,9.22" class="stroke" stroke-dasharray="150"><set attributeName="opacity" to="0" dur="4.4s" /><animate attributeName="stroke-dashoffset" from="150" to="0" dur="1.8s" begin="4.4s" fill="freeze" /></path><path d="M27.75,55.58c0.75,1.61,0.73,2.88,0.73,4.17c0,2.2,0.24,17.24,0,19.83" class="stroke" stroke-dasharray="150"><set attributeName="opacity" to="0" dur="5.300000000000001s" /><animate attributeName="stroke-dashoffset" from="150" to="0" dur="1.8s" begin="5.300000000000001s" fill="freeze" /></path><path d="M11.42,55.25c1.33,1,2.29,0.83,3.5,0.5C16.13,55.42,44.49,45.33,46,45.33" class="stroke" stroke-dasharray="150"><set attributeName="opacity" to="0" dur="6.300000000000001s" /><animate attributeName="stroke-dashoffset" from="150" to="0" dur="1.8s" begin="6.300000000000001s" fill="freeze" /></path><path d="M52.25,43.58c1.67,1.17,1.9,3.47,2,4.5c0.85,8.46,1.83,26.75,2.33,42.33" class="stroke" stroke-dasharray="150"><set attributeName="opacity" to="0" dur="7.300000000000001s" /><animate attributeName="stroke-dashoffset" from="150" to="0" dur="1.8s" begin="7.300000000000001s" fill="freeze" /></path><path d="M54.77,45.47c12.5-2.22,26.57-3.02,34.48-3.89c2.91-0.32,5.82,1.45,5.67,3.83c-0.58,8.73-3.17,30.33-5.5,44.17" class="stroke" stroke-dasharray="150"><set attributeName="opacity" to="0" dur="8.5s" /><animate attributeName="stroke-dashoffset" from="150" to="0" dur="1.8s" begin="8.5s" fill="freeze" /></path><path d="M69.92,14.92c2.08,1.33,2.5,3.57,2.5,5c0.04,14.16,0.33,63.47,0.33,67.17" class="stroke" stroke-dasharray="150"><set attributeName="opacity" to="0" dur="10.2s" /><animate attributeName="stroke-dashoffset" from="150" to="0" dur="1.8s" begin="10.2s" fill="freeze" /></path><path d="M55.92,65.08c3.35-0.32,32.9-2.83,35.67-2.83" class="stroke" stroke-dasharray="150"><set attributeName="opacity" to="0" dur="11.899999999999999s" /><animate attributeName="stroke-dashoffset" from="150" to="0" dur="1.8s" begin="11.899999999999999s" fill="freeze" /></path><path d="M57.08,88.25c6.12-0.4,17.57-1.54,32.17-1.83" class="stroke" stroke-dasharray="150"><set attributeName="opacity" to="0" dur="12.899999999999999s" /><animate attributeName="stroke-dashoffset" from="150" to="0" dur="1.8s" begin="12.899999999999999s" fill="freeze" /></path><text x="90" y="120" id="reset-kvg-08233">⟳</text><text x="70" y="120" id="pause-kvg-08233">◼</text><script type="text/javascript"><![CDATA[function RecurringTimer(e,t){var n,r,i=t;this.pause=function(){window.clearTimeout(n);i-=new Date-r};var s=function(){r=new Date;n=window.setTimeout(function(){i=t;s();e()},i)};this.clear=function(){window.clearTimeout(n);i=t;n=window.setTimeout(function(){i=t;s();e()},i)};this.resume=s;this.resume()}function invoketimer(){timer=new RecurringTimer(function(){svg.setCurrentTime(0)},14899.999999999998)}var svg=document.getElementById("kvg-08233");var pause=document.getElementById("pause-kvg-08233");var reset=document.getElementById("reset-kvg-08233");var timer;invoketimer();reset.onclick=function(){svg.setCurrentTime(0);timer.clear();svg.unpauseAnimations();pause.innerHTML = "◼";};pause.onclick=function(){if(svg.animationsPaused()){svg.unpauseAnimations();timer.resume();pause.innerHTML="◼"}else{svg.pauseAnimations();timer.pause();pause.innerHTML="▶"}}]]></script></svg>