<svg id="kvg-082df" class="kanjivg" width="106" height="126" xmlns="http://www.w3.org/2000/svg" xmlns:xlink="http://www.w3.org/1999/xlink" xml:space="preserve" version="1.1" baseProfile="full"><defs><style type="text/css"><![CDATA[path.black{fill:none;stroke:black;stroke-width:5;stroke-linecap:round;stroke-linejoin:round;}path.grey{fill:none;stroke:#ddd;stroke-width:5;stroke-linecap:round;stroke-linejoin:round;}path.stroke{fill:none;stroke:black;stroke-width:5;stroke-linecap:round;stroke-linejoin:round;}rect{fill:none;stroke:#555;stroke-width:2;} text{font-size:16px;font-family:Segoe UI Symbol,Cambria Math,DejaVu Sans,Symbola,Quivira,STIX,Code2000;-webkit-touch-callout:none;cursor:pointer;-webkit-user-select:none;-khtml-user-select:none;-moz-user-select:none;-ms-user-select:none;user-select: none;}text:hover{color:#777;}#reset{font-weight:bold;}]]></style><marker id="markerStart" markerWidth="8" markerHeight="8" style="overflow:visible;"><circle cx="0" cy="0" r="1.5" style="stroke:none;fill:red;fill-opacity:0.5;"/></marker><marker id="markerEnd" style="overflow:visible;"><circle cx="0" cy="0" r="0.8" style="stroke:none;fill:blue;fill-opacity:0.5;"><animate attributeName="opacity" from="1" to="0" dur="3s" repeatCount="indefinite" /></circle></marker></defs><rect x="4" y="4" width="100" height="100" /><path d="M19.75,25.52c1.29,0.53,2.8,0.63,4.1,0.53c11.9-0.96,49.9-4.96,63.62-5.03c2.16-0.01,3.45,0.25,4.53,0.51" class="grey" /><path d="M33.5,13c1.61,1.27,2.13,1.66,2.3,2.44c1.61,7.33,1.7,12.56,2.45,17.06" class="grey" /><path d="M66.61,10.25c1.14,0.75,1.46,2.69,1.24,3.89c-1.31,7.01-1.91,9.52-3.34,16.11" class="grey" /><path d="M44.62,30.75c0.08,0.69,0.17,1.77-0.16,2.76c-1.92,5.82-12.91,18.58-27.96,26.4" class="grey" /><path d="M42.31,41.72c0.97,0.63,2.33,0.84,3.88,0.42c1.55-0.42,31.65-4.31,35.49-4.86c2.91-0.42,4.27,1.47,4.07,4.4c-0.43,6.49-4.65,39.01-10.86,53.25c-1.79,4.1-3.92,1.57-6.21-1.05" class="grey" /><path d="M30.67,56.05c0.38,0.3,0.77,0.56,0.94,0.94c1.33,3.01,2.32,13.53,3.22,18.94" class="grey" /><path d="M32.15,58.22c9.85-1.7,21.48-3.38,26.79-3.83c1.94-0.17,3.23,0.78,2.83,2.33c-1.03,4.03-2,8.85-3.71,14.39" class="grey" /><path d="M35.09,73.89c6.24-0.51,16.8-1.39,25.37-2.17" class="grey" /><path d="M19.75,25.52c1.29,0.53,2.8,0.63,4.1,0.53c11.9-0.96,49.9-4.96,63.62-5.03c2.16-0.01,3.45,0.25,4.53,0.51" class="stroke" stroke-dasharray="150"><animate attributeName="stroke-dashoffset" from="150" to="0" dur="1.8s" begin="0.0s" fill="freeze" /></path><path d="M33.5,13c1.61,1.27,2.13,1.66,2.3,2.44c1.61,7.33,1.7,12.56,2.45,17.06" class="stroke" stroke-dasharray="150"><set attributeName="opacity" to="0" dur="1.7s" /><animate attributeName="stroke-dashoffset" from="150" to="0" dur="1.8s" begin="1.7s" fill="freeze" /></path><path d="M66.61,10.25c1.14,0.75,1.46,2.69,1.24,3.89c-1.31,7.01-1.91,9.52-3.34,16.11" class="stroke" stroke-dasharray="150"><set attributeName="opacity" to="0" dur="2.7s" /><animate attributeName="stroke-dashoffset" from="150" to="0" dur="1.8s" begin="2.7s" fill="freeze" /></path><path d="M44.62,30.75c0.08,0.69,0.17,1.77-0.16,2.76c-1.92,5.82-12.91,18.58-27.96,26.4" class="stroke" stroke-dasharray="150"><set attributeName="opacity" to="0" dur="3.7s" /><animate attributeName="stroke-dashoffset" from="150" to="0" dur="1.8s" begin="3.7s" fill="freeze" /></path><path d="M42.31,41.72c0.97,0.63,2.33,0.84,3.88,0.42c1.55-0.42,31.65-4.31,35.49-4.86c2.91-0.42,4.27,1.47,4.07,4.4c-0.43,6.49-4.65,39.01-10.86,53.25c-1.79,4.1-3.92,1.57-6.21-1.05" class="stroke" stroke-dasharray="150"><set attributeName="opacity" to="0" dur="4.800000000000001s" /><animate attributeName="stroke-dashoffset" from="150" to="0" dur="1.8s" begin="4.800000000000001s" fill="freeze" /></path><path d="M30.67,56.05c0.38,0.3,0.77,0.56,0.94,0.94c1.33,3.01,2.32,13.53,3.22,18.94" class="stroke" stroke-dasharray="150"><set attributeName="opacity" to="0" dur="6.800000000000001s" /><animate attributeName="stroke-dashoffset" from="150" to="0" dur="1.8s" begin="6.800000000000001s" fill="freeze" /></path><path d="M32.15,58.22c9.85-1.7,21.48-3.38,26.79-3.83c1.94-0.17,3.23,0.78,2.83,2.33c-1.03,4.03-2,8.85-3.71,14.39" class="stroke" stroke-dasharray="150"><set attributeName="opacity" to="0" dur="7.800000000000001s" /><animate attributeName="stroke-dashoffset" from="150" to="0" dur="1.8s" begin="7.800000000000001s" fill="freeze" /></path><path d="M35.09,73.89c6.24-0.51,16.8-1.39,25.37-2.17" class="stroke" stroke-dasharray="150"><set attributeName="opacity" to="0" dur="9.0s" /><animate attributeName="stroke-dashoffset" from="150" to="0" dur="1.8s" begin="9.0s" fill="freeze" /></path><text x="90" y="120" id="reset-kvg-082df">⟳</text><text x="70" y="120" id="pause-kvg-082df">◼</text><script type="text/javascript"><![CDATA[function RecurringTimer(e,t){var n,r,i=t;this.pause=function(){window.clearTimeout(n);i-=new Date-r};var s=function(){r=new Date;n=window.setTimeout(function(){i=t;s();e()},i)};this.clear=function(){window.clearTimeout(n);i=t;n=window.setTimeout(function(){i=t;s();e()},i)};this.resume=s;this.resume()}function invoketimer(){timer=new RecurringTimer(function(){svg.setCurrentTime(0)},11000.0)}var svg=document.getElementById("kvg-082df");var pause=document.getElementById("pause-kvg-082df");var reset=document.getElementById("reset-kvg-082df");var timer;invoketimer();reset.onclick=function(){svg.setCurrentTime(0);timer.clear();svg.unpauseAnimations();pause.innerHTML = "◼";};pause.onclick=function(){if(svg.animationsPaused()){svg.unpauseAnimations();timer.resume();pause.innerHTML="◼"}else{svg.pauseAnimations();timer.pause();pause.innerHTML="▶"}}]]></script></svg>