<svg id="kvg-082d3-Insatsu" class="kanjivg" width="106" height="126" xmlns="http://www.w3.org/2000/svg" xmlns:xlink="http://www.w3.org/1999/xlink" xml:space="preserve" version="1.1" baseProfile="full"><defs><style type="text/css"><![CDATA[path.black{fill:none;stroke:black;stroke-width:5;stroke-linecap:round;stroke-linejoin:round;}path.grey{fill:none;stroke:#ddd;stroke-width:5;stroke-linecap:round;stroke-linejoin:round;}path.stroke{fill:none;stroke:black;stroke-width:5;stroke-linecap:round;stroke-linejoin:round;}rect{fill:none;stroke:#555;stroke-width:2;} text{font-size:16px;font-family:Segoe UI Symbol,Cambria Math,DejaVu Sans,Symbola,Quivira,STIX,Code2000;-webkit-touch-callout:none;cursor:pointer;-webkit-user-select:none;-khtml-user-select:none;-moz-user-select:none;-ms-user-select:none;user-select: none;}text:hover{color:#777;}#reset{font-weight:bold;}]]></style><marker id="markerStart" markerWidth="8" markerHeight="8" style="overflow:visible;"><circle cx="0" cy="0" r="1.5" style="stroke:none;fill:red;fill-opacity:0.5;"/></marker><marker id="markerEnd" style="overflow:visible;"><circle cx="0" cy="0" r="0.8" style="stroke:none;fill:blue;fill-opacity:0.5;"><animate attributeName="opacity" from="1" to="0" dur="3s" repeatCount="indefinite" /></circle></marker></defs><rect x="4" y="4" width="100" height="100" /><path d="M16.5,22.74c1.41,0.56,3.04,0.67,4.45,0.56c12.93-1.01,50.97-4.71,65.87-4.78c2.34-0.01,3.75,0.26,4.92,0.54" class="grey" /><path d="M36.25,11c1.75,1.43,2.31,1.87,2.5,2.75C40.5,22,40,29,40.5,32" class="grey" /><path d="M67.25,8.75c1.12,1,1.87,2.52,1.5,4c-1.12,4.5-1.88,11.5-3.5,17.25" class="grey" /><path d="M52.13,27.5c0.11,0.9,0.49,2.36-0.22,3.62c-4.49,7.93-18.73,24.16-35.41,33.8" class="grey" /><path d="M52.6,30.57c6.44,4.56,29.9,23.01,35.34,26.8c1.85,1.29,4.22,1.84,6.06,2.2" class="grey" /><path d="M 38.81375,56.548542 c 0.796567,0.398856 1.99342,0.319857 3.120988,0.180143 5.4,-0.66 23.29875,-1.76 28.69875,-2.24 1.157425,-0.08971 2.576567,0.01086 3.52342,0.330429" class="grey" /><path d="M  31.736272,67.174506 c 0.770572,0.752146 2.109971,0.936178 3.326853,0.950286 3.089776,0.03582 41.947291,-4.02 43.467291,-4.17 1.52,-0.15 4.28,-0.29 3.95,2.89 -0.43,4.17 -1.771667,10.902292 -5.091667,17.822292 -1.89,3.94 -3.18,3.45 -6.23,0.46" class="grey" /><path d="M 48.3,68.3 c 0.87,0.87 1.8,2 1.8,3.5 -0.219826,6.959729 -0.02436,17.789477 -0.18,27.355633" class="grey" /><path d="M16.5,22.74c1.41,0.56,3.04,0.67,4.45,0.56c12.93-1.01,50.97-4.71,65.87-4.78c2.34-0.01,3.75,0.26,4.92,0.54" class="stroke" stroke-dasharray="150"><animate attributeName="stroke-dashoffset" from="150" to="0" dur="1.8s" begin="0.0s" fill="freeze" /></path><path d="M36.25,11c1.75,1.43,2.31,1.87,2.5,2.75C40.5,22,40,29,40.5,32" class="stroke" stroke-dasharray="150"><set attributeName="opacity" to="0" dur="1.7s" /><animate attributeName="stroke-dashoffset" from="150" to="0" dur="1.8s" begin="1.7s" fill="freeze" /></path><path d="M67.25,8.75c1.12,1,1.87,2.52,1.5,4c-1.12,4.5-1.88,11.5-3.5,17.25" class="stroke" stroke-dasharray="150"><set attributeName="opacity" to="0" dur="2.7s" /><animate attributeName="stroke-dashoffset" from="150" to="0" dur="1.8s" begin="2.7s" fill="freeze" /></path><path d="M52.13,27.5c0.11,0.9,0.49,2.36-0.22,3.62c-4.49,7.93-18.73,24.16-35.41,33.8" class="stroke" stroke-dasharray="150"><set attributeName="opacity" to="0" dur="3.7s" /><animate attributeName="stroke-dashoffset" from="150" to="0" dur="1.8s" begin="3.7s" fill="freeze" /></path><path d="M52.6,30.57c6.44,4.56,29.9,23.01,35.34,26.8c1.85,1.29,4.22,1.84,6.06,2.2" class="stroke" stroke-dasharray="150"><set attributeName="opacity" to="0" dur="5.0s" /><animate attributeName="stroke-dashoffset" from="150" to="0" dur="1.8s" begin="5.0s" fill="freeze" /></path><path d="M 38.81375,56.548542 c 0.796567,0.398856 1.99342,0.319857 3.120988,0.180143 5.4,-0.66 23.29875,-1.76 28.69875,-2.24 1.157425,-0.08971 2.576567,0.01086 3.52342,0.330429" class="stroke" stroke-dasharray="150"><set attributeName="opacity" to="0" dur="6.3s" /><animate attributeName="stroke-dashoffset" from="150" to="0" dur="1.8s" begin="6.3s" fill="freeze" /></path><path d="M  31.736272,67.174506 c 0.770572,0.752146 2.109971,0.936178 3.326853,0.950286 3.089776,0.03582 41.947291,-4.02 43.467291,-4.17 1.52,-0.15 4.28,-0.29 3.95,2.89 -0.43,4.17 -1.771667,10.902292 -5.091667,17.822292 -1.89,3.94 -3.18,3.45 -6.23,0.46" class="stroke" stroke-dasharray="150"><set attributeName="opacity" to="0" dur="7.3s" /><animate attributeName="stroke-dashoffset" from="150" to="0" dur="1.8s" begin="7.3s" fill="freeze" /></path><path d="M 48.3,68.3 c 0.87,0.87 1.8,2 1.8,3.5 -0.219826,6.959729 -0.02436,17.789477 -0.18,27.355633" class="stroke" stroke-dasharray="150"><set attributeName="opacity" to="0" dur="9.0s" /><animate attributeName="stroke-dashoffset" from="150" to="0" dur="1.8s" begin="9.0s" fill="freeze" /></path><text x="90" y="120" id="reset-kvg-082d3-Insatsu">⟳</text><text x="70" y="120" id="pause-kvg-082d3-Insatsu">◼</text><script type="text/javascript"><![CDATA[function RecurringTimer(e,t){var n,r,i=t;this.pause=function(){window.clearTimeout(n);i-=new Date-r};var s=function(){r=new Date;n=window.setTimeout(function(){i=t;s();e()},i)};this.clear=function(){window.clearTimeout(n);i=t;n=window.setTimeout(function(){i=t;s();e()},i)};this.resume=s;this.resume()}function invoketimer(){timer=new RecurringTimer(function(){svg.setCurrentTime(0)},11000.0)}var svg=document.getElementById("kvg-082d3-Insatsu");var pause=document.getElementById("pause-kvg-082d3-Insatsu");var reset=document.getElementById("reset-kvg-082d3-Insatsu");var timer;invoketimer();reset.onclick=function(){svg.setCurrentTime(0);timer.clear();svg.unpauseAnimations();pause.innerHTML = "◼";};pause.onclick=function(){if(svg.animationsPaused()){svg.unpauseAnimations();timer.resume();pause.innerHTML="◼"}else{svg.pauseAnimations();timer.pause();pause.innerHTML="▶"}}]]></script></svg>