<svg id="kvg-082e7" class="kanjivg" width="106" height="126" xmlns="http://www.w3.org/2000/svg" xmlns:xlink="http://www.w3.org/1999/xlink" xml:space="preserve" version="1.1" baseProfile="full"><defs><style type="text/css"><![CDATA[path.black{fill:none;stroke:black;stroke-width:5;stroke-linecap:round;stroke-linejoin:round;}path.grey{fill:none;stroke:#ddd;stroke-width:5;stroke-linecap:round;stroke-linejoin:round;}path.stroke{fill:none;stroke:black;stroke-width:5;stroke-linecap:round;stroke-linejoin:round;}rect{fill:none;stroke:#555;stroke-width:2;} text{font-size:16px;font-family:Segoe UI Symbol,Cambria Math,DejaVu Sans,Symbola,Quivira,STIX,Code2000;-webkit-touch-callout:none;cursor:pointer;-webkit-user-select:none;-khtml-user-select:none;-moz-user-select:none;-ms-user-select:none;user-select: none;}text:hover{color:#777;}#reset{font-weight:bold;}]]></style><marker id="markerStart" markerWidth="8" markerHeight="8" style="overflow:visible;"><circle cx="0" cy="0" r="1.5" style="stroke:none;fill:red;fill-opacity:0.5;"/></marker><marker id="markerEnd" style="overflow:visible;"><circle cx="0" cy="0" r="0.8" style="stroke:none;fill:blue;fill-opacity:0.5;"><animate attributeName="opacity" from="1" to="0" dur="3s" repeatCount="indefinite" /></circle></marker></defs><rect x="4" y="4" width="100" height="100" /><path d="M18,22.24c1.38,0.56,2.99,0.67,4.38,0.56c12.72-1.01,50.12-4.71,64.78-4.78c2.31-0.01,3.69,0.26,4.84,0.54" class="grey" /><path d="M35.75,9.5c1.42,1.33,1.87,1.74,2.02,2.56C39.19,19.73,39.6,26.71,40,29.5" class="grey" /><path d="M69.23,7.75c1.02,0.91,1.7,2.29,1.36,3.63c-1.02,4.09-1.7,10.9-3.18,16.12" class="grey" /><path d="M51.6,26.12c1.15,0.38,2.8,2.22,2.77,3.3c-0.08,3.41-0.08,6.72-0.09,9.82" class="grey" /><path d="M19.41,40.38c0,3.54-3.38,13.26-4.91,15.62" class="grey" /><path d="M19.24,42.74c9.51-0.99,61.24-6.03,68.95-6.4c12.05-0.59,2.55,7.16-0.45,9.28" class="grey" /><path d="M16.5,62.04c1.44,0.5,4.08,0.62,5.52,0.5c14.73-1.31,46.23-4.92,63.95-5.57c2.4-0.09,3.84,0.24,5.04,0.49" class="grey" /><path d="M54.27,62.64c0.08,0.42,1.17,2.2,1.25,4.89c0.4,12.89-0.25,20.59-0.25,24.98c0,9.95-6.96,1.45-8.46,0.34" class="grey" /><path d="M18,22.24c1.38,0.56,2.99,0.67,4.38,0.56c12.72-1.01,50.12-4.71,64.78-4.78c2.31-0.01,3.69,0.26,4.84,0.54" class="stroke" stroke-dasharray="150"><animate attributeName="stroke-dashoffset" from="150" to="0" dur="1.8s" begin="0.0s" fill="freeze" /></path><path d="M35.75,9.5c1.42,1.33,1.87,1.74,2.02,2.56C39.19,19.73,39.6,26.71,40,29.5" class="stroke" stroke-dasharray="150"><set attributeName="opacity" to="0" dur="1.7s" /><animate attributeName="stroke-dashoffset" from="150" to="0" dur="1.8s" begin="1.7s" fill="freeze" /></path><path d="M69.23,7.75c1.02,0.91,1.7,2.29,1.36,3.63c-1.02,4.09-1.7,10.9-3.18,16.12" class="stroke" stroke-dasharray="150"><set attributeName="opacity" to="0" dur="2.7s" /><animate attributeName="stroke-dashoffset" from="150" to="0" dur="1.8s" begin="2.7s" fill="freeze" /></path><path d="M51.6,26.12c1.15,0.38,2.8,2.22,2.77,3.3c-0.08,3.41-0.08,6.72-0.09,9.82" class="stroke" stroke-dasharray="150"><set attributeName="opacity" to="0" dur="3.7s" /><animate attributeName="stroke-dashoffset" from="150" to="0" dur="1.8s" begin="3.7s" fill="freeze" /></path><path d="M19.41,40.38c0,3.54-3.38,13.26-4.91,15.62" class="stroke" stroke-dasharray="150"><set attributeName="opacity" to="0" dur="4.6000000000000005s" /><animate attributeName="stroke-dashoffset" from="150" to="0" dur="1.8s" begin="4.6000000000000005s" fill="freeze" /></path><path d="M19.24,42.74c9.51-0.99,61.24-6.03,68.95-6.4c12.05-0.59,2.55,7.16-0.45,9.28" class="stroke" stroke-dasharray="150"><set attributeName="opacity" to="0" dur="5.500000000000001s" /><animate attributeName="stroke-dashoffset" from="150" to="0" dur="1.8s" begin="5.500000000000001s" fill="freeze" /></path><path d="M16.5,62.04c1.44,0.5,4.08,0.62,5.52,0.5c14.73-1.31,46.23-4.92,63.95-5.57c2.4-0.09,3.84,0.24,5.04,0.49" class="stroke" stroke-dasharray="150"><set attributeName="opacity" to="0" dur="7.200000000000001s" /><animate attributeName="stroke-dashoffset" from="150" to="0" dur="1.8s" begin="7.200000000000001s" fill="freeze" /></path><path d="M54.27,62.64c0.08,0.42,1.17,2.2,1.25,4.89c0.4,12.89-0.25,20.59-0.25,24.98c0,9.95-6.96,1.45-8.46,0.34" class="stroke" stroke-dasharray="150"><set attributeName="opacity" to="0" dur="8.9s" /><animate attributeName="stroke-dashoffset" from="150" to="0" dur="1.8s" begin="8.9s" fill="freeze" /></path><text x="90" y="120" id="reset-kvg-082e7">⟳</text><text x="70" y="120" id="pause-kvg-082e7">◼</text><script type="text/javascript"><![CDATA[function RecurringTimer(e,t){var n,r,i=t;this.pause=function(){window.clearTimeout(n);i-=new Date-r};var s=function(){r=new Date;n=window.setTimeout(function(){i=t;s();e()},i)};this.clear=function(){window.clearTimeout(n);i=t;n=window.setTimeout(function(){i=t;s();e()},i)};this.resume=s;this.resume()}function invoketimer(){timer=new RecurringTimer(function(){svg.setCurrentTime(0)},11000.0)}var svg=document.getElementById("kvg-082e7");var pause=document.getElementById("pause-kvg-082e7");var reset=document.getElementById("reset-kvg-082e7");var timer;invoketimer();reset.onclick=function(){svg.setCurrentTime(0);timer.clear();svg.unpauseAnimations();pause.innerHTML = "◼";};pause.onclick=function(){if(svg.animationsPaused()){svg.unpauseAnimations();timer.resume();pause.innerHTML="◼"}else{svg.pauseAnimations();timer.pause();pause.innerHTML="▶"}}]]></script></svg>