<svg id="kvg-082e1" class="kanjivg" width="106" height="126" xmlns="http://www.w3.org/2000/svg" xmlns:xlink="http://www.w3.org/1999/xlink" xml:space="preserve" version="1.1" baseProfile="full"><defs><style type="text/css"><![CDATA[path.black{fill:none;stroke:black;stroke-width:5;stroke-linecap:round;stroke-linejoin:round;}path.grey{fill:none;stroke:#ddd;stroke-width:5;stroke-linecap:round;stroke-linejoin:round;}path.stroke{fill:none;stroke:black;stroke-width:5;stroke-linecap:round;stroke-linejoin:round;}rect{fill:none;stroke:#555;stroke-width:2;} text{font-size:16px;font-family:Segoe UI Symbol,Cambria Math,DejaVu Sans,Symbola,Quivira,STIX,Code2000;-webkit-touch-callout:none;cursor:pointer;-webkit-user-select:none;-khtml-user-select:none;-moz-user-select:none;-ms-user-select:none;user-select: none;}text:hover{color:#777;}#reset{font-weight:bold;}]]></style><marker id="markerStart" markerWidth="8" markerHeight="8" style="overflow:visible;"><circle cx="0" cy="0" r="1.5" style="stroke:none;fill:red;fill-opacity:0.5;"/></marker><marker id="markerEnd" style="overflow:visible;"><circle cx="0" cy="0" r="0.8" style="stroke:none;fill:blue;fill-opacity:0.5;"><animate attributeName="opacity" from="1" to="0" dur="3s" repeatCount="indefinite" /></circle></marker></defs><rect x="4" y="4" width="100" height="100" /><path d="M17.25,23.92c1.29,0.53,6.8,0.73,8.1,0.63c11.9-0.96,45.68-4.06,59.4-4.13c2.16-0.01,6.25,0.9,7.33,1.17" class="grey" /><path d="M37.75,12.25c1,1,2.57,2.75,2.67,3.67c1.08,10.58,1.62,15.95,2.17,19" class="grey" /><path d="M66.08,10.25c1.12,1,1.82,2.15,1.67,3.67c-0.5,5-2.38,14.08-4,19.83" class="grey" /><path d="m21.591369,40.667301c1.09,0.5,2.28,1.72,2.46,3.25,1.67,14.37,3.67,31,4.92,39.75" class="grey" /><path d="m15.280894,90.593896c2.25,1.32,3.9,0.34,6.32,-1.32,1.61,-1.11,14.59,-10.49,21.43,-15.82" class="grey" /><path d="m42.400494,42.083327c4.3,4.16,11.11,17.12,12.18,23.59" class="grey" /><path d="M75.75,39c1.25,1.75,1.9,3.26,1.5,5.25C72.87,66.2,66.5,85.5,48.06,98.32" class="grey" /><path d="M72.1,72.17C78.44,76.6,88.48,90.4,90.06,97.3" class="grey" /><path d="M17.25,23.92c1.29,0.53,6.8,0.73,8.1,0.63c11.9-0.96,45.68-4.06,59.4-4.13c2.16-0.01,6.25,0.9,7.33,1.17" class="stroke" stroke-dasharray="150"><animate attributeName="stroke-dashoffset" from="150" to="0" dur="1.8s" begin="0.0s" fill="freeze" /></path><path d="M37.75,12.25c1,1,2.57,2.75,2.67,3.67c1.08,10.58,1.62,15.95,2.17,19" class="stroke" stroke-dasharray="150"><set attributeName="opacity" to="0" dur="1.7s" /><animate attributeName="stroke-dashoffset" from="150" to="0" dur="1.8s" begin="1.7s" fill="freeze" /></path><path d="M66.08,10.25c1.12,1,1.82,2.15,1.67,3.67c-0.5,5-2.38,14.08-4,19.83" class="stroke" stroke-dasharray="150"><set attributeName="opacity" to="0" dur="2.7s" /><animate attributeName="stroke-dashoffset" from="150" to="0" dur="1.8s" begin="2.7s" fill="freeze" /></path><path d="m21.591369,40.667301c1.09,0.5,2.28,1.72,2.46,3.25,1.67,14.37,3.67,31,4.92,39.75" class="stroke" stroke-dasharray="150"><set attributeName="opacity" to="0" dur="3.7s" /><animate attributeName="stroke-dashoffset" from="150" to="0" dur="1.8s" begin="3.7s" fill="freeze" /></path><path d="m15.280894,90.593896c2.25,1.32,3.9,0.34,6.32,-1.32,1.61,-1.11,14.59,-10.49,21.43,-15.82" class="stroke" stroke-dasharray="150"><set attributeName="opacity" to="0" dur="4.800000000000001s" /><animate attributeName="stroke-dashoffset" from="150" to="0" dur="1.8s" begin="4.800000000000001s" fill="freeze" /></path><path d="m42.400494,42.083327c4.3,4.16,11.11,17.12,12.18,23.59" class="stroke" stroke-dasharray="150"><set attributeName="opacity" to="0" dur="5.800000000000001s" /><animate attributeName="stroke-dashoffset" from="150" to="0" dur="1.8s" begin="5.800000000000001s" fill="freeze" /></path><path d="M75.75,39c1.25,1.75,1.9,3.26,1.5,5.25C72.87,66.2,66.5,85.5,48.06,98.32" class="stroke" stroke-dasharray="150"><set attributeName="opacity" to="0" dur="6.800000000000001s" /><animate attributeName="stroke-dashoffset" from="150" to="0" dur="1.8s" begin="6.800000000000001s" fill="freeze" /></path><path d="M72.1,72.17C78.44,76.6,88.48,90.4,90.06,97.3" class="stroke" stroke-dasharray="150"><set attributeName="opacity" to="0" dur="8.3s" /><animate attributeName="stroke-dashoffset" from="150" to="0" dur="1.8s" begin="8.3s" fill="freeze" /></path><text x="90" y="120" id="reset-kvg-082e1">⟳</text><text x="70" y="120" id="pause-kvg-082e1">◼</text><script type="text/javascript"><![CDATA[function RecurringTimer(e,t){var n,r,i=t;this.pause=function(){window.clearTimeout(n);i-=new Date-r};var s=function(){r=new Date;n=window.setTimeout(function(){i=t;s();e()},i)};this.clear=function(){window.clearTimeout(n);i=t;n=window.setTimeout(function(){i=t;s();e()},i)};this.resume=s;this.resume()}function invoketimer(){timer=new RecurringTimer(function(){svg.setCurrentTime(0)},10300.0)}var svg=document.getElementById("kvg-082e1");var pause=document.getElementById("pause-kvg-082e1");var reset=document.getElementById("reset-kvg-082e1");var timer;invoketimer();reset.onclick=function(){svg.setCurrentTime(0);timer.clear();svg.unpauseAnimations();pause.innerHTML = "◼";};pause.onclick=function(){if(svg.animationsPaused()){svg.unpauseAnimations();timer.resume();pause.innerHTML="◼"}else{svg.pauseAnimations();timer.pause();pause.innerHTML="▶"}}]]></script></svg>