<svg id="kvg-08334" class="kanjivg" width="106" height="126" xmlns="http://www.w3.org/2000/svg" xmlns:xlink="http://www.w3.org/1999/xlink" xml:space="preserve" version="1.1" baseProfile="full"><defs><style type="text/css"><![CDATA[path.black{fill:none;stroke:black;stroke-width:5;stroke-linecap:round;stroke-linejoin:round;}path.grey{fill:none;stroke:#ddd;stroke-width:5;stroke-linecap:round;stroke-linejoin:round;}path.stroke{fill:none;stroke:black;stroke-width:5;stroke-linecap:round;stroke-linejoin:round;}rect{fill:none;stroke:#555;stroke-width:2;} text{font-size:16px;font-family:Segoe UI Symbol,Cambria Math,DejaVu Sans,Symbola,Quivira,STIX,Code2000;-webkit-touch-callout:none;cursor:pointer;-webkit-user-select:none;-khtml-user-select:none;-moz-user-select:none;-ms-user-select:none;user-select: none;}text:hover{color:#777;}#reset{font-weight:bold;}]]></style><marker id="markerStart" markerWidth="8" markerHeight="8" style="overflow:visible;"><circle cx="0" cy="0" r="1.5" style="stroke:none;fill:red;fill-opacity:0.5;"/></marker><marker id="markerEnd" style="overflow:visible;"><circle cx="0" cy="0" r="0.8" style="stroke:none;fill:blue;fill-opacity:0.5;"><animate attributeName="opacity" from="1" to="0" dur="3s" repeatCount="indefinite" /></circle></marker></defs><rect x="4" y="4" width="100" height="100" /><path d="M16.25,23.42c1.72,0.7,5.62,1.19,8,1c11.9-0.96,46.61-4.43,60.33-4.5c2.32-0.01,7.14,0.58,8.17,0.83" class="grey" /><path d="M37.58,12.25c2.17,0.5,3.04,2.64,3.17,3.5c1.14,8.06,1.34,14.74,1.67,17.67" class="grey" /><path d="M66.92,11.25c1.08,1.25,1.32,2.15,1.17,3.67c-0.5,4.83-1.33,10.08-3,17" class="grey" /><path d="M23.42,41.42c2,1.17,2.17,2.84,2.33,4.5c1.07,11.26,1.26,28.64,2.83,50.67" class="grey" /><path d="M26.92,43.25c17.83-1.5,43.83-3.5,55.33-4.17c2.23-0.13,4.11,2.22,3.85,4.88c-1.22,12.64-2.9,33.22-5.34,50.29" class="grey" /><path d="M39.92,56.92c0.38,0.36,1.5,2.22,1.67,2.67c1.33,3.54,1.86,11.81,3,18.17" class="grey" /><path d="M41.58,58.08c7.17-0.33,19-1.68,23.17-2.17c1.52-0.18,2.22,0.37,2,1.41c-0.9,4.3-1.96,9.49-3.3,15.44" class="grey" /><path d="M44.92,75.08c6.08-0.33,12-1.17,19.67-1.5" class="grey" /><path d="M29.25,92.25c12.95-0.47,35.83-1.33,51.5-2" class="grey" /><path d="M16.25,23.42c1.72,0.7,5.62,1.19,8,1c11.9-0.96,46.61-4.43,60.33-4.5c2.32-0.01,7.14,0.58,8.17,0.83" class="stroke" stroke-dasharray="150"><animate attributeName="stroke-dashoffset" from="150" to="0" dur="1.8s" begin="0.0s" fill="freeze" /></path><path d="M37.58,12.25c2.17,0.5,3.04,2.64,3.17,3.5c1.14,8.06,1.34,14.74,1.67,17.67" class="stroke" stroke-dasharray="150"><set attributeName="opacity" to="0" dur="1.7s" /><animate attributeName="stroke-dashoffset" from="150" to="0" dur="1.8s" begin="1.7s" fill="freeze" /></path><path d="M66.92,11.25c1.08,1.25,1.32,2.15,1.17,3.67c-0.5,4.83-1.33,10.08-3,17" class="stroke" stroke-dasharray="150"><set attributeName="opacity" to="0" dur="2.7s" /><animate attributeName="stroke-dashoffset" from="150" to="0" dur="1.8s" begin="2.7s" fill="freeze" /></path><path d="M23.42,41.42c2,1.17,2.17,2.84,2.33,4.5c1.07,11.26,1.26,28.64,2.83,50.67" class="stroke" stroke-dasharray="150"><set attributeName="opacity" to="0" dur="3.7s" /><animate attributeName="stroke-dashoffset" from="150" to="0" dur="1.8s" begin="3.7s" fill="freeze" /></path><path d="M26.92,43.25c17.83-1.5,43.83-3.5,55.33-4.17c2.23-0.13,4.11,2.22,3.85,4.88c-1.22,12.64-2.9,33.22-5.34,50.29" class="stroke" stroke-dasharray="150"><set attributeName="opacity" to="0" dur="5.1s" /><animate attributeName="stroke-dashoffset" from="150" to="0" dur="1.8s" begin="5.1s" fill="freeze" /></path><path d="M39.92,56.92c0.38,0.36,1.5,2.22,1.67,2.67c1.33,3.54,1.86,11.81,3,18.17" class="stroke" stroke-dasharray="150"><set attributeName="opacity" to="0" dur="7.1s" /><animate attributeName="stroke-dashoffset" from="150" to="0" dur="1.8s" begin="7.1s" fill="freeze" /></path><path d="M41.58,58.08c7.17-0.33,19-1.68,23.17-2.17c1.52-0.18,2.22,0.37,2,1.41c-0.9,4.3-1.96,9.49-3.3,15.44" class="stroke" stroke-dasharray="150"><set attributeName="opacity" to="0" dur="8.1s" /><animate attributeName="stroke-dashoffset" from="150" to="0" dur="1.8s" begin="8.1s" fill="freeze" /></path><path d="M44.92,75.08c6.08-0.33,12-1.17,19.67-1.5" class="stroke" stroke-dasharray="150"><set attributeName="opacity" to="0" dur="9.2s" /><animate attributeName="stroke-dashoffset" from="150" to="0" dur="1.8s" begin="9.2s" fill="freeze" /></path><path d="M29.25,92.25c12.95-0.47,35.83-1.33,51.5-2" class="stroke" stroke-dasharray="150"><set attributeName="opacity" to="0" dur="10.1s" /><animate attributeName="stroke-dashoffset" from="150" to="0" dur="1.8s" begin="10.1s" fill="freeze" /></path><text x="90" y="120" id="reset-kvg-08334">⟳</text><text x="70" y="120" id="pause-kvg-08334">◼</text><script type="text/javascript"><![CDATA[function RecurringTimer(e,t){var n,r,i=t;this.pause=function(){window.clearTimeout(n);i-=new Date-r};var s=function(){r=new Date;n=window.setTimeout(function(){i=t;s();e()},i)};this.clear=function(){window.clearTimeout(n);i=t;n=window.setTimeout(function(){i=t;s();e()},i)};this.resume=s;this.resume()}function invoketimer(){timer=new RecurringTimer(function(){svg.setCurrentTime(0)},12400.0)}var svg=document.getElementById("kvg-08334");var pause=document.getElementById("pause-kvg-08334");var reset=document.getElementById("reset-kvg-08334");var timer;invoketimer();reset.onclick=function(){svg.setCurrentTime(0);timer.clear();svg.unpauseAnimations();pause.innerHTML = "◼";};pause.onclick=function(){if(svg.animationsPaused()){svg.unpauseAnimations();timer.resume();pause.innerHTML="◼"}else{svg.pauseAnimations();timer.pause();pause.innerHTML="▶"}}]]></script></svg>