<svg id="kvg-08373" class="kanjivg" width="106" height="126" xmlns="http://www.w3.org/2000/svg" xmlns:xlink="http://www.w3.org/1999/xlink" xml:space="preserve" version="1.1" baseProfile="full"><defs><style type="text/css"><![CDATA[path.black{fill:none;stroke:black;stroke-width:5;stroke-linecap:round;stroke-linejoin:round;}path.grey{fill:none;stroke:#ddd;stroke-width:5;stroke-linecap:round;stroke-linejoin:round;}path.stroke{fill:none;stroke:black;stroke-width:5;stroke-linecap:round;stroke-linejoin:round;}rect{fill:none;stroke:#555;stroke-width:2;} text{font-size:16px;font-family:Segoe UI Symbol,Cambria Math,DejaVu Sans,Symbola,Quivira,STIX,Code2000;-webkit-touch-callout:none;cursor:pointer;-webkit-user-select:none;-khtml-user-select:none;-moz-user-select:none;-ms-user-select:none;user-select: none;}text:hover{color:#777;}#reset{font-weight:bold;}]]></style><marker id="markerStart" markerWidth="8" markerHeight="8" style="overflow:visible;"><circle cx="0" cy="0" r="1.5" style="stroke:none;fill:red;fill-opacity:0.5;"/></marker><marker id="markerEnd" style="overflow:visible;"><circle cx="0" cy="0" r="0.8" style="stroke:none;fill:blue;fill-opacity:0.5;"><animate attributeName="opacity" from="1" to="0" dur="3s" repeatCount="indefinite" /></circle></marker></defs><rect x="4" y="4" width="100" height="100" /><path d="M17.67,23.67c1.29,0.53,5.54,0.8,6.83,0.67C37,23,71.12,20.74,84.83,20.67c2.16-0.01,6.92,0.4,8,0.67" class="grey" /><path d="M36.5,12c2.67,0.83,3.8,2.47,4,3.33c1.86,8.06,2.13,14.4,2.67,17.33" class="grey" /><path d="M66.17,10.5c1.33,1,2.06,2.4,1.77,3.86c-0.86,4.43-1.36,11.65-2.6,17.31" class="grey" /><path d="M25.17,38c1.04,0.49,3.58,1,7.17,0.83C43.1,38.33,61,37,79.17,36c1.72-0.09,5.14-0.08,6,0.17" class="grey" /><path d="M32.33,48.83c0.58,0.34,1.57,2.29,1.68,2.74c0.79,3.28,2.1,9.97,3.15,16.59" class="grey" /><path d="M34,50.17c7.77-0.65,32.2-2.23,37.5-2.33c2.19-0.04,3.71,1.23,3.51,3.17c-0.34,3.33-2.5,8.49-4.17,13.33" class="grey" /><path d="M38,66.17c5.82,0,27.47-1.57,35.5-1.67" class="grey" /><path d="M35,72.8c2.87,2.83,7.42,11.63,8.14,16.03" class="grey" /><path d="M71.11,68.87c0.02,0.51,0.22,1.86-0.05,2.54c-1.81,4.59-3.93,13.26-8.51,19.06" class="grey" /><path d="M19.17,94.33c1.47,0.38,4.22,1.31,5.69,1.2c17.25-1.25,45.31-3.03,62.13-2.63c2.45,0.06,4.79,1.07,6.02,1.26" class="grey" /><path d="M17.67,23.67c1.29,0.53,5.54,0.8,6.83,0.67C37,23,71.12,20.74,84.83,20.67c2.16-0.01,6.92,0.4,8,0.67" class="stroke" stroke-dasharray="150"><animate attributeName="stroke-dashoffset" from="150" to="0" dur="1.8s" begin="0.0s" fill="freeze" /></path><path d="M36.5,12c2.67,0.83,3.8,2.47,4,3.33c1.86,8.06,2.13,14.4,2.67,17.33" class="stroke" stroke-dasharray="150"><set attributeName="opacity" to="0" dur="1.7s" /><animate attributeName="stroke-dashoffset" from="150" to="0" dur="1.8s" begin="1.7s" fill="freeze" /></path><path d="M66.17,10.5c1.33,1,2.06,2.4,1.77,3.86c-0.86,4.43-1.36,11.65-2.6,17.31" class="stroke" stroke-dasharray="150"><set attributeName="opacity" to="0" dur="2.7s" /><animate attributeName="stroke-dashoffset" from="150" to="0" dur="1.8s" begin="2.7s" fill="freeze" /></path><path d="M25.17,38c1.04,0.49,3.58,1,7.17,0.83C43.1,38.33,61,37,79.17,36c1.72-0.09,5.14-0.08,6,0.17" class="stroke" stroke-dasharray="150"><set attributeName="opacity" to="0" dur="3.7s" /><animate attributeName="stroke-dashoffset" from="150" to="0" dur="1.8s" begin="3.7s" fill="freeze" /></path><path d="M32.33,48.83c0.58,0.34,1.57,2.29,1.68,2.74c0.79,3.28,2.1,9.97,3.15,16.59" class="stroke" stroke-dasharray="150"><set attributeName="opacity" to="0" dur="5.2s" /><animate attributeName="stroke-dashoffset" from="150" to="0" dur="1.8s" begin="5.2s" fill="freeze" /></path><path d="M34,50.17c7.77-0.65,32.2-2.23,37.5-2.33c2.19-0.04,3.71,1.23,3.51,3.17c-0.34,3.33-2.5,8.49-4.17,13.33" class="stroke" stroke-dasharray="150"><set attributeName="opacity" to="0" dur="6.2s" /><animate attributeName="stroke-dashoffset" from="150" to="0" dur="1.8s" begin="6.2s" fill="freeze" /></path><path d="M38,66.17c5.82,0,27.47-1.57,35.5-1.67" class="stroke" stroke-dasharray="150"><set attributeName="opacity" to="0" dur="7.6s" /><animate attributeName="stroke-dashoffset" from="150" to="0" dur="1.8s" begin="7.6s" fill="freeze" /></path><path d="M35,72.8c2.87,2.83,7.42,11.63,8.14,16.03" class="stroke" stroke-dasharray="150"><set attributeName="opacity" to="0" dur="8.6s" /><animate attributeName="stroke-dashoffset" from="150" to="0" dur="1.8s" begin="8.6s" fill="freeze" /></path><path d="M71.11,68.87c0.02,0.51,0.22,1.86-0.05,2.54c-1.81,4.59-3.93,13.26-8.51,19.06" class="stroke" stroke-dasharray="150"><set attributeName="opacity" to="0" dur="9.5s" /><animate attributeName="stroke-dashoffset" from="150" to="0" dur="1.8s" begin="9.5s" fill="freeze" /></path><path d="M19.17,94.33c1.47,0.38,4.22,1.31,5.69,1.2c17.25-1.25,45.31-3.03,62.13-2.63c2.45,0.06,4.79,1.07,6.02,1.26" class="stroke" stroke-dasharray="150"><set attributeName="opacity" to="0" dur="10.5s" /><animate attributeName="stroke-dashoffset" from="150" to="0" dur="1.8s" begin="10.5s" fill="freeze" /></path><text x="90" y="120" id="reset-kvg-08373">⟳</text><text x="70" y="120" id="pause-kvg-08373">◼</text><script type="text/javascript"><![CDATA[function RecurringTimer(e,t){var n,r,i=t;this.pause=function(){window.clearTimeout(n);i-=new Date-r};var s=function(){r=new Date;n=window.setTimeout(function(){i=t;s();e()},i)};this.clear=function(){window.clearTimeout(n);i=t;n=window.setTimeout(function(){i=t;s();e()},i)};this.resume=s;this.resume()}function invoketimer(){timer=new RecurringTimer(function(){svg.setCurrentTime(0)},13200.0)}var svg=document.getElementById("kvg-08373");var pause=document.getElementById("pause-kvg-08373");var reset=document.getElementById("reset-kvg-08373");var timer;invoketimer();reset.onclick=function(){svg.setCurrentTime(0);timer.clear();svg.unpauseAnimations();pause.innerHTML = "◼";};pause.onclick=function(){if(svg.animationsPaused()){svg.unpauseAnimations();timer.resume();pause.innerHTML="◼"}else{svg.pauseAnimations();timer.pause();pause.innerHTML="▶"}}]]></script></svg>