<svg id="kvg-0839e-Kaisho" class="kanjivg" width="106" height="126" xmlns="http://www.w3.org/2000/svg" xmlns:xlink="http://www.w3.org/1999/xlink" xml:space="preserve" version="1.1" baseProfile="full"><defs><style type="text/css"><![CDATA[path.black{fill:none;stroke:black;stroke-width:5;stroke-linecap:round;stroke-linejoin:round;}path.grey{fill:none;stroke:#ddd;stroke-width:5;stroke-linecap:round;stroke-linejoin:round;}path.stroke{fill:none;stroke:black;stroke-width:5;stroke-linecap:round;stroke-linejoin:round;}rect{fill:none;stroke:#555;stroke-width:2;} text{font-size:16px;font-family:Segoe UI Symbol,Cambria Math,DejaVu Sans,Symbola,Quivira,STIX,Code2000;-webkit-touch-callout:none;cursor:pointer;-webkit-user-select:none;-khtml-user-select:none;-moz-user-select:none;-ms-user-select:none;user-select: none;}text:hover{color:#777;}#reset{font-weight:bold;}]]></style><marker id="markerStart" markerWidth="8" markerHeight="8" style="overflow:visible;"><circle cx="0" cy="0" r="1.5" style="stroke:none;fill:red;fill-opacity:0.5;"/></marker><marker id="markerEnd" style="overflow:visible;"><circle cx="0" cy="0" r="0.8" style="stroke:none;fill:blue;fill-opacity:0.5;"><animate attributeName="opacity" from="1" to="0" dur="3s" repeatCount="indefinite" /></circle></marker></defs><rect x="4" y="4" width="100" height="100" /><path d="M20.25,24.02c1.29,0.53,2.8,0.63,4.1,0.53c11.9-0.96,47.4-4.46,61.12-4.53c2.16-0.01,3.45,0.25,4.53,0.51" class="grey" /><path d="M38,12.25c1.47,1.13,1.94,1.47,2.1,2.17c1.47,6.51,2.73,13.21,3.15,15.58" class="grey" /><path d="M67.83,10.5c0.22,0.84,0.5,1.46,0.26,2.49c-1.41,6.05-2.05,9.07-3.59,14.76" class="grey" /><path d="M50.74,27.75c2.51,1.5,3.76,3.25,5.04,5.43" class="grey" /><path d="M25.6,38.02c0,3.41-1.85,11.73-4.51,15.07" class="grey" /><path d="M25.35,42.1C36.5,41,75.5,36.31,81.65,36.29c9.85-0.04-0.32,8.25-1.86,9.1" class="grey" /><path d="M37.32,52.68c0.93,0.23,2.66,0.36,3.58,0.23c8.35-1.16,15.6-2.41,23.12-3.15c1.55-0.15,2.49,0.11,3.27,0.23" class="grey" /><path d="M28.08,66.92c1.09,0.39,3.09,0.46,4.18,0.39c7.99-0.56,30.74-4.56,42.84-4.96c1.82-0.06,2.91,0.19,3.82,0.38" class="grey" /><path d="M44.99,69.25c0.07,0.69,0.15,1.77-0.14,2.76c-1.73,5.82-10.82,19.7-25.19,26.41" class="grey" /><path d="M60.24,66.62c0.74,1.19,1.38,2.59,1.38,4.43c0,3.7-0.53,9.7-0.53,13.7c0,10.75,4.17,11.53,16.67,11.53c9.25,0,12.34-1.68,13.64-2.62c2.75-2,2-3,2.25-6.5" class="grey" /><path d="M20.25,24.02c1.29,0.53,2.8,0.63,4.1,0.53c11.9-0.96,47.4-4.46,61.12-4.53c2.16-0.01,3.45,0.25,4.53,0.51" class="stroke" stroke-dasharray="150"><animate attributeName="stroke-dashoffset" from="150" to="0" dur="1.8s" begin="0.0s" fill="freeze" /></path><path d="M38,12.25c1.47,1.13,1.94,1.47,2.1,2.17c1.47,6.51,2.73,13.21,3.15,15.58" class="stroke" stroke-dasharray="150"><set attributeName="opacity" to="0" dur="1.7s" /><animate attributeName="stroke-dashoffset" from="150" to="0" dur="1.8s" begin="1.7s" fill="freeze" /></path><path d="M67.83,10.5c0.22,0.84,0.5,1.46,0.26,2.49c-1.41,6.05-2.05,9.07-3.59,14.76" class="stroke" stroke-dasharray="150"><set attributeName="opacity" to="0" dur="2.6s" /><animate attributeName="stroke-dashoffset" from="150" to="0" dur="1.8s" begin="2.6s" fill="freeze" /></path><path d="M50.74,27.75c2.51,1.5,3.76,3.25,5.04,5.43" class="stroke" stroke-dasharray="150"><set attributeName="opacity" to="0" dur="3.5s" /><animate attributeName="stroke-dashoffset" from="150" to="0" dur="1.8s" begin="3.5s" fill="freeze" /></path><path d="M25.6,38.02c0,3.41-1.85,11.73-4.51,15.07" class="stroke" stroke-dasharray="150"><set attributeName="opacity" to="0" dur="4.4s" /><animate attributeName="stroke-dashoffset" from="150" to="0" dur="1.8s" begin="4.4s" fill="freeze" /></path><path d="M25.35,42.1C36.5,41,75.5,36.31,81.65,36.29c9.85-0.04-0.32,8.25-1.86,9.1" class="stroke" stroke-dasharray="150"><set attributeName="opacity" to="0" dur="5.300000000000001s" /><animate attributeName="stroke-dashoffset" from="150" to="0" dur="1.8s" begin="5.300000000000001s" fill="freeze" /></path><path d="M37.32,52.68c0.93,0.23,2.66,0.36,3.58,0.23c8.35-1.16,15.6-2.41,23.12-3.15c1.55-0.15,2.49,0.11,3.27,0.23" class="stroke" stroke-dasharray="150"><set attributeName="opacity" to="0" dur="7.000000000000001s" /><animate attributeName="stroke-dashoffset" from="150" to="0" dur="1.8s" begin="7.000000000000001s" fill="freeze" /></path><path d="M28.08,66.92c1.09,0.39,3.09,0.46,4.18,0.39c7.99-0.56,30.74-4.56,42.84-4.96c1.82-0.06,2.91,0.19,3.82,0.38" class="stroke" stroke-dasharray="150"><set attributeName="opacity" to="0" dur="8.0s" /><animate attributeName="stroke-dashoffset" from="150" to="0" dur="1.8s" begin="8.0s" fill="freeze" /></path><path d="M44.99,69.25c0.07,0.69,0.15,1.77-0.14,2.76c-1.73,5.82-10.82,19.7-25.19,26.41" class="stroke" stroke-dasharray="150"><set attributeName="opacity" to="0" dur="9.3s" /><animate attributeName="stroke-dashoffset" from="150" to="0" dur="1.8s" begin="9.3s" fill="freeze" /></path><path d="M60.24,66.62c0.74,1.19,1.38,2.59,1.38,4.43c0,3.7-0.53,9.7-0.53,13.7c0,10.75,4.17,11.53,16.67,11.53c9.25,0,12.34-1.68,13.64-2.62c2.75-2,2-3,2.25-6.5" class="stroke" stroke-dasharray="150"><set attributeName="opacity" to="0" dur="10.4s" /><animate attributeName="stroke-dashoffset" from="150" to="0" dur="1.8s" begin="10.4s" fill="freeze" /></path><text x="90" y="120" id="reset-kvg-0839e-Kaisho">⟳</text><text x="70" y="120" id="pause-kvg-0839e-Kaisho">◼</text><script type="text/javascript"><![CDATA[function RecurringTimer(e,t){var n,r,i=t;this.pause=function(){window.clearTimeout(n);i-=new Date-r};var s=function(){r=new Date;n=window.setTimeout(function(){i=t;s();e()},i)};this.clear=function(){window.clearTimeout(n);i=t;n=window.setTimeout(function(){i=t;s();e()},i)};this.resume=s;this.resume()}function invoketimer(){timer=new RecurringTimer(function(){svg.setCurrentTime(0)},12900.0)}var svg=document.getElementById("kvg-0839e-Kaisho");var pause=document.getElementById("pause-kvg-0839e-Kaisho");var reset=document.getElementById("reset-kvg-0839e-Kaisho");var timer;invoketimer();reset.onclick=function(){svg.setCurrentTime(0);timer.clear();svg.unpauseAnimations();pause.innerHTML = "◼";};pause.onclick=function(){if(svg.animationsPaused()){svg.unpauseAnimations();timer.resume();pause.innerHTML="◼"}else{svg.pauseAnimations();timer.pause();pause.innerHTML="▶"}}]]></script></svg>