<svg id="kvg-083d6" class="kanjivg" width="106" height="126" xmlns="http://www.w3.org/2000/svg" xmlns:xlink="http://www.w3.org/1999/xlink" xml:space="preserve" version="1.1" baseProfile="full"><defs><style type="text/css"><![CDATA[path.black{fill:none;stroke:black;stroke-width:5;stroke-linecap:round;stroke-linejoin:round;}path.grey{fill:none;stroke:#ddd;stroke-width:5;stroke-linecap:round;stroke-linejoin:round;}path.stroke{fill:none;stroke:black;stroke-width:5;stroke-linecap:round;stroke-linejoin:round;}rect{fill:none;stroke:#555;stroke-width:2;} text{font-size:16px;font-family:Segoe UI Symbol,Cambria Math,DejaVu Sans,Symbola,Quivira,STIX,Code2000;-webkit-touch-callout:none;cursor:pointer;-webkit-user-select:none;-khtml-user-select:none;-moz-user-select:none;-ms-user-select:none;user-select: none;}text:hover{color:#777;}#reset{font-weight:bold;}]]></style><marker id="markerStart" markerWidth="8" markerHeight="8" style="overflow:visible;"><circle cx="0" cy="0" r="1.5" style="stroke:none;fill:red;fill-opacity:0.5;"/></marker><marker id="markerEnd" style="overflow:visible;"><circle cx="0" cy="0" r="0.8" style="stroke:none;fill:blue;fill-opacity:0.5;"><animate attributeName="opacity" from="1" to="0" dur="3s" repeatCount="indefinite" /></circle></marker></defs><rect x="4" y="4" width="100" height="100" /><path d="M17.5,23.38c2.59,1.05,6.14,0.67,8.87,0.44c13.32-1.1,38.15-3.16,52.88-3.68c3.32-0.12,7-0.12,10.25,0.67" class="grey" /><path d="M37.25,11.25c1,1,1.62,2.11,1.75,3c1.25,8.5,1.75,13.12,2.5,18.5" class="grey" /><path d="M69.65,10.38c0.38,1.16,0.2,2.26-0.22,3.68C66.96,22.41,66.07,26.09,64.5,31" class="grey" /><path d="M31.26,38.48c0.95,0.87,1.4,1.69,1.67,3c1.13,5.38,2.3,11.14,3.34,16.27c0.29,1.44,0.57,2.84,0.83,4.16" class="grey" /><path d="M33.57,39.52c10.74-1.15,26.82-2.22,35.82-3c3.79-0.33,6.69-0.43,5.86,4.11c-0.65,3.58-2.16,9.84-3.71,15.28c-0.44,1.54-0.88,3-1.31,4.33" class="grey" /><path d="M35.73,49.09c10.52-0.96,26.64-2.09,37.06-2.3" class="grey" /><path d="M37.7,59.53c10.68-0.66,21.69-1.1,31.91-1.65" class="grey" /><path d="M25.31,69.14c0.93,0.79,1.02,1.82,1.27,2.97c1.13,5.23,2.61,14.58,3.61,20.76c0.29,1.77,0.53,3.27,0.72,4.34" class="grey" /><path d="M27.24,70.42c15.51-1.3,38.63-2.8,50.9-3.55c3.38-0.21,4.84,1.38,4.31,4.51c-0.76,4.47-2.12,12.25-3.68,19.26c-0.43,1.93-0.85,3.77-1.25,5.41" class="grey" /><path d="M29.8,81.91c14.32-0.91,35.95-2.41,50-2.89" class="grey" /><path d="M31.65,94.02c12.6-0.52,34.85-1.27,45.16-1.32" class="grey" /><path d="M17.5,23.38c2.59,1.05,6.14,0.67,8.87,0.44c13.32-1.1,38.15-3.16,52.88-3.68c3.32-0.12,7-0.12,10.25,0.67" class="stroke" stroke-dasharray="150"><animate attributeName="stroke-dashoffset" from="150" to="0" dur="1.8s" begin="0.0s" fill="freeze" /></path><path d="M37.25,11.25c1,1,1.62,2.11,1.75,3c1.25,8.5,1.75,13.12,2.5,18.5" class="stroke" stroke-dasharray="150"><set attributeName="opacity" to="0" dur="1.7s" /><animate attributeName="stroke-dashoffset" from="150" to="0" dur="1.8s" begin="1.7s" fill="freeze" /></path><path d="M69.65,10.38c0.38,1.16,0.2,2.26-0.22,3.68C66.96,22.41,66.07,26.09,64.5,31" class="stroke" stroke-dasharray="150"><set attributeName="opacity" to="0" dur="2.7s" /><animate attributeName="stroke-dashoffset" from="150" to="0" dur="1.8s" begin="2.7s" fill="freeze" /></path><path d="M31.26,38.48c0.95,0.87,1.4,1.69,1.67,3c1.13,5.38,2.3,11.14,3.34,16.27c0.29,1.44,0.57,2.84,0.83,4.16" class="stroke" stroke-dasharray="150"><set attributeName="opacity" to="0" dur="3.7s" /><animate attributeName="stroke-dashoffset" from="150" to="0" dur="1.8s" begin="3.7s" fill="freeze" /></path><path d="M33.57,39.52c10.74-1.15,26.82-2.22,35.82-3c3.79-0.33,6.69-0.43,5.86,4.11c-0.65,3.58-2.16,9.84-3.71,15.28c-0.44,1.54-0.88,3-1.31,4.33" class="stroke" stroke-dasharray="150"><set attributeName="opacity" to="0" dur="4.7s" /><animate attributeName="stroke-dashoffset" from="150" to="0" dur="1.8s" begin="4.7s" fill="freeze" /></path><path d="M35.73,49.09c10.52-0.96,26.64-2.09,37.06-2.3" class="stroke" stroke-dasharray="150"><set attributeName="opacity" to="0" dur="6.2s" /><animate attributeName="stroke-dashoffset" from="150" to="0" dur="1.8s" begin="6.2s" fill="freeze" /></path><path d="M37.7,59.53c10.68-0.66,21.69-1.1,31.91-1.65" class="stroke" stroke-dasharray="150"><set attributeName="opacity" to="0" dur="7.2s" /><animate attributeName="stroke-dashoffset" from="150" to="0" dur="1.8s" begin="7.2s" fill="freeze" /></path><path d="M25.31,69.14c0.93,0.79,1.02,1.82,1.27,2.97c1.13,5.23,2.61,14.58,3.61,20.76c0.29,1.77,0.53,3.27,0.72,4.34" class="stroke" stroke-dasharray="150"><set attributeName="opacity" to="0" dur="8.2s" /><animate attributeName="stroke-dashoffset" from="150" to="0" dur="1.8s" begin="8.2s" fill="freeze" /></path><path d="M27.24,70.42c15.51-1.3,38.63-2.8,50.9-3.55c3.38-0.21,4.84,1.38,4.31,4.51c-0.76,4.47-2.12,12.25-3.68,19.26c-0.43,1.93-0.85,3.77-1.25,5.41" class="stroke" stroke-dasharray="150"><set attributeName="opacity" to="0" dur="9.2s" /><animate attributeName="stroke-dashoffset" from="150" to="0" dur="1.8s" begin="9.2s" fill="freeze" /></path><path d="M29.8,81.91c14.32-0.91,35.95-2.41,50-2.89" class="stroke" stroke-dasharray="150"><set attributeName="opacity" to="0" dur="10.899999999999999s" /><animate attributeName="stroke-dashoffset" from="150" to="0" dur="1.8s" begin="10.899999999999999s" fill="freeze" /></path><path d="M31.65,94.02c12.6-0.52,34.85-1.27,45.16-1.32" class="stroke" stroke-dasharray="150"><set attributeName="opacity" to="0" dur="12.2s" /><animate attributeName="stroke-dashoffset" from="150" to="0" dur="1.8s" begin="12.2s" fill="freeze" /></path><text x="90" y="120" id="reset-kvg-083d6">⟳</text><text x="70" y="120" id="pause-kvg-083d6">◼</text><script type="text/javascript"><![CDATA[function RecurringTimer(e,t){var n,r,i=t;this.pause=function(){window.clearTimeout(n);i-=new Date-r};var s=function(){r=new Date;n=window.setTimeout(function(){i=t;s();e()},i)};this.clear=function(){window.clearTimeout(n);i=t;n=window.setTimeout(function(){i=t;s();e()},i)};this.resume=s;this.resume()}function invoketimer(){timer=new RecurringTimer(function(){svg.setCurrentTime(0)},14399.999999999998)}var svg=document.getElementById("kvg-083d6");var pause=document.getElementById("pause-kvg-083d6");var reset=document.getElementById("reset-kvg-083d6");var timer;invoketimer();reset.onclick=function(){svg.setCurrentTime(0);timer.clear();svg.unpauseAnimations();pause.innerHTML = "◼";};pause.onclick=function(){if(svg.animationsPaused()){svg.unpauseAnimations();timer.resume();pause.innerHTML="◼"}else{svg.pauseAnimations();timer.pause();pause.innerHTML="▶"}}]]></script></svg>