<svg id="kvg-08435-HzFst" class="kanjivg" width="106" height="126" xmlns="http://www.w3.org/2000/svg" xmlns:xlink="http://www.w3.org/1999/xlink" xml:space="preserve" version="1.1" baseProfile="full"><defs><style type="text/css"><![CDATA[path.black{fill:none;stroke:black;stroke-width:5;stroke-linecap:round;stroke-linejoin:round;}path.grey{fill:none;stroke:#ddd;stroke-width:5;stroke-linecap:round;stroke-linejoin:round;}path.stroke{fill:none;stroke:black;stroke-width:5;stroke-linecap:round;stroke-linejoin:round;}rect{fill:none;stroke:#555;stroke-width:2;} text{font-size:16px;font-family:Segoe UI Symbol,Cambria Math,DejaVu Sans,Symbola,Quivira,STIX,Code2000;-webkit-touch-callout:none;cursor:pointer;-webkit-user-select:none;-khtml-user-select:none;-moz-user-select:none;-ms-user-select:none;user-select: none;}text:hover{color:#777;}#reset{font-weight:bold;}]]></style><marker id="markerStart" markerWidth="8" markerHeight="8" style="overflow:visible;"><circle cx="0" cy="0" r="1.5" style="stroke:none;fill:red;fill-opacity:0.5;"/></marker><marker id="markerEnd" style="overflow:visible;"><circle cx="0" cy="0" r="0.8" style="stroke:none;fill:blue;fill-opacity:0.5;"><animate attributeName="opacity" from="1" to="0" dur="3s" repeatCount="indefinite" /></circle></marker></defs><rect x="4" y="4" width="100" height="100" /><path d="M16,21.57c1.83,0.74,3.96,0.89,5.8,0.74c16.84-1.36,45.13-2.98,64.54-3.08c3.05-0.02,4.88,0.35,6.41,0.73" class="grey" /><path d="M35.25,11.5c1.75,1.43,2.31,1.87,2.5,2.75C39.5,22.5,40,27.5,40.5,30.5" class="grey" /><path d="M67.25,10.25c1.12,1,1.37,2.52,1,4c-1.12,4.5-1.88,9-3.5,14.75" class="grey" /><path d="M30.6,33.94c0.65,1.05,1.12,2.31,1.3,4.2c0.65,6.94,1.35,13.85,1.5,22.8" class="grey" /><path d="M31.9,36.12c8.24-0.84,38.23-1.84,41.91-2.28c1.73-0.21,3.46,0.66,3.04,2.52c-0.87,3.78-2.1,17.6-2.97,23.48" class="grey" /><path d="M55.33,46.13c3.04-0.21,15.3-1.18,19.63-1.6" class="grey" /><path d="M52.48,44.29c0.94,0.42,1.51,1.89,1.7,2.73c0.19,0.84,0.12,8.62-0.07,13.87" class="grey" /><path d="M19.75,61.94c0.65,1.05,1.62,2.73,1.73,4.62C22.25,79,23.25,88.75,23.51,99.9" class="grey" /><path d="M20.98,63.55c8.24-0.84,62.31-3.75,63.93-4.04c3.47-0.63,4.46,1.48,4.58,2.52c0.43,3.57-2.25,21.98-4.47,31.34c-2,8.45-4.54,2.99-7.15,0.26" class="grey" /><path d="M39.59,71.28c0.37,0.42,0.74,0.78,0.9,1.31c1.27,4.21,2.35,10.24,3.22,17.81" class="grey" /><path d="M41.44,73.09c8.56-1.34,19.2-2.4,23.48-2.96c1.56-0.2,2.51,1.2,2.28,2.39c-0.93,4.92-2.27,9.01-3.39,13.37" class="grey" /><path d="M43.88,87.88c5.03-0.63,15.2-1.06,22.11-2.03" class="grey" /><path d="M16,21.57c1.83,0.74,3.96,0.89,5.8,0.74c16.84-1.36,45.13-2.98,64.54-3.08c3.05-0.02,4.88,0.35,6.41,0.73" class="stroke" stroke-dasharray="150"><animate attributeName="stroke-dashoffset" from="150" to="0" dur="1.8s" begin="0.0s" fill="freeze" /></path><path d="M35.25,11.5c1.75,1.43,2.31,1.87,2.5,2.75C39.5,22.5,40,27.5,40.5,30.5" class="stroke" stroke-dasharray="150"><set attributeName="opacity" to="0" dur="1.7s" /><animate attributeName="stroke-dashoffset" from="150" to="0" dur="1.8s" begin="1.7s" fill="freeze" /></path><path d="M67.25,10.25c1.12,1,1.37,2.52,1,4c-1.12,4.5-1.88,9-3.5,14.75" class="stroke" stroke-dasharray="150"><set attributeName="opacity" to="0" dur="2.7s" /><animate attributeName="stroke-dashoffset" from="150" to="0" dur="1.8s" begin="2.7s" fill="freeze" /></path><path d="M30.6,33.94c0.65,1.05,1.12,2.31,1.3,4.2c0.65,6.94,1.35,13.85,1.5,22.8" class="stroke" stroke-dasharray="150"><set attributeName="opacity" to="0" dur="3.6s" /><animate attributeName="stroke-dashoffset" from="150" to="0" dur="1.8s" begin="3.6s" fill="freeze" /></path><path d="M31.9,36.12c8.24-0.84,38.23-1.84,41.91-2.28c1.73-0.21,3.46,0.66,3.04,2.52c-0.87,3.78-2.1,17.6-2.97,23.48" class="stroke" stroke-dasharray="150"><set attributeName="opacity" to="0" dur="4.6s" /><animate attributeName="stroke-dashoffset" from="150" to="0" dur="1.8s" begin="4.6s" fill="freeze" /></path><path d="M55.33,46.13c3.04-0.21,15.3-1.18,19.63-1.6" class="stroke" stroke-dasharray="150"><set attributeName="opacity" to="0" dur="6.3s" /><animate attributeName="stroke-dashoffset" from="150" to="0" dur="1.8s" begin="6.3s" fill="freeze" /></path><path d="M52.48,44.29c0.94,0.42,1.51,1.89,1.7,2.73c0.19,0.84,0.12,8.62-0.07,13.87" class="stroke" stroke-dasharray="150"><set attributeName="opacity" to="0" dur="7.2s" /><animate attributeName="stroke-dashoffset" from="150" to="0" dur="1.8s" begin="7.2s" fill="freeze" /></path><path d="M19.75,61.94c0.65,1.05,1.62,2.73,1.73,4.62C22.25,79,23.25,88.75,23.51,99.9" class="stroke" stroke-dasharray="150"><set attributeName="opacity" to="0" dur="8.1s" /><animate attributeName="stroke-dashoffset" from="150" to="0" dur="1.8s" begin="8.1s" fill="freeze" /></path><path d="M20.98,63.55c8.24-0.84,62.31-3.75,63.93-4.04c3.47-0.63,4.46,1.48,4.58,2.52c0.43,3.57-2.25,21.98-4.47,31.34c-2,8.45-4.54,2.99-7.15,0.26" class="stroke" stroke-dasharray="150"><set attributeName="opacity" to="0" dur="9.1s" /><animate attributeName="stroke-dashoffset" from="150" to="0" dur="1.8s" begin="9.1s" fill="freeze" /></path><path d="M39.59,71.28c0.37,0.42,0.74,0.78,0.9,1.31c1.27,4.21,2.35,10.24,3.22,17.81" class="stroke" stroke-dasharray="150"><set attributeName="opacity" to="0" dur="11.1s" /><animate attributeName="stroke-dashoffset" from="150" to="0" dur="1.8s" begin="11.1s" fill="freeze" /></path><path d="M41.44,73.09c8.56-1.34,19.2-2.4,23.48-2.96c1.56-0.2,2.51,1.2,2.28,2.39c-0.93,4.92-2.27,9.01-3.39,13.37" class="stroke" stroke-dasharray="150"><set attributeName="opacity" to="0" dur="12.0s" /><animate attributeName="stroke-dashoffset" from="150" to="0" dur="1.8s" begin="12.0s" fill="freeze" /></path><path d="M43.88,87.88c5.03-0.63,15.2-1.06,22.11-2.03" class="stroke" stroke-dasharray="150"><set attributeName="opacity" to="0" dur="13.1s" /><animate attributeName="stroke-dashoffset" from="150" to="0" dur="1.8s" begin="13.1s" fill="freeze" /></path><text x="90" y="120" id="reset-kvg-08435-HzFst">⟳</text><text x="70" y="120" id="pause-kvg-08435-HzFst">◼</text><script type="text/javascript"><![CDATA[function RecurringTimer(e,t){var n,r,i=t;this.pause=function(){window.clearTimeout(n);i-=new Date-r};var s=function(){r=new Date;n=window.setTimeout(function(){i=t;s();e()},i)};this.clear=function(){window.clearTimeout(n);i=t;n=window.setTimeout(function(){i=t;s();e()},i)};this.resume=s;this.resume()}function invoketimer(){timer=new RecurringTimer(function(){svg.setCurrentTime(0)},15100.0)}var svg=document.getElementById("kvg-08435-HzFst");var pause=document.getElementById("pause-kvg-08435-HzFst");var reset=document.getElementById("reset-kvg-08435-HzFst");var timer;invoketimer();reset.onclick=function(){svg.setCurrentTime(0);timer.clear();svg.unpauseAnimations();pause.innerHTML = "◼";};pause.onclick=function(){if(svg.animationsPaused()){svg.unpauseAnimations();timer.resume();pause.innerHTML="◼"}else{svg.pauseAnimations();timer.pause();pause.innerHTML="▶"}}]]></script></svg>