<svg id="kvg-084ff" class="kanjivg" width="106" height="126" xmlns="http://www.w3.org/2000/svg" xmlns:xlink="http://www.w3.org/1999/xlink" xml:space="preserve" version="1.1" baseProfile="full"><defs><style type="text/css"><![CDATA[path.black{fill:none;stroke:black;stroke-width:5;stroke-linecap:round;stroke-linejoin:round;}path.grey{fill:none;stroke:#ddd;stroke-width:5;stroke-linecap:round;stroke-linejoin:round;}path.stroke{fill:none;stroke:black;stroke-width:5;stroke-linecap:round;stroke-linejoin:round;}rect{fill:none;stroke:#555;stroke-width:2;} text{font-size:16px;font-family:Segoe UI Symbol,Cambria Math,DejaVu Sans,Symbola,Quivira,STIX,Code2000;-webkit-touch-callout:none;cursor:pointer;-webkit-user-select:none;-khtml-user-select:none;-moz-user-select:none;-ms-user-select:none;user-select: none;}text:hover{color:#777;}#reset{font-weight:bold;}]]></style><marker id="markerStart" markerWidth="8" markerHeight="8" style="overflow:visible;"><circle cx="0" cy="0" r="1.5" style="stroke:none;fill:red;fill-opacity:0.5;"/></marker><marker id="markerEnd" style="overflow:visible;"><circle cx="0" cy="0" r="0.8" style="stroke:none;fill:blue;fill-opacity:0.5;"><animate attributeName="opacity" from="1" to="0" dur="3s" repeatCount="indefinite" /></circle></marker></defs><rect x="4" y="4" width="100" height="100" /><path d="M16.5,20.1c1.73,0.7,3.74,0.84,5.48,0.7c15.9-1.29,44.13-3.46,62.47-3.56c2.88-0.02,4.62,0.33,6.06,0.69" class="grey" /><path d="M35.97,11c1.34,1.1,1.77,1.43,1.92,2.11C39.23,19.44,39.62,25.2,40,27.5" class="grey" /><path d="M69.24,9.25c0.87,0.77,0.94,1.94,0.65,3.08c-0.87,3.47-1.44,9.24-2.7,13.67" class="grey" /><path d="M51.21,23c1.04,0.33,2.51,1.2,2.49,2.16c-0.08,3.04-0.08,5.49-0.08,8.26" class="grey" /><path d="M21.27,34.25c0,3.49-3.39,13.58-4.7,15.91" class="grey" /><path d="M21.08,36.46c1.5,0.08,56.34-5.29,63.95-5.29c12.82,0,5.47,6.58,1.56,10.06" class="grey" /><path d="M39.49,39.15c0.25,1.69-0.07,3.89-0.88,5.33c-5.19,9.2-11.24,17.44-23.14,28.64" class="grey" /><path d="M29.42,61.88c0.58,0.62,1.19,2.47,1.26,4.09c0.37,9.09-0.91,28.69-0.5,33.71" class="grey" /><path d="M44.46,49.25c1.29,0.21,3.65,0.28,4.93,0.21C61,48.83,74,47.25,83.49,46.91c2.14-0.08,3.43,0.1,4.5,0.21" class="grey" /><path d="M63.95,50.08c0.36,0.38,0.42,0.84,0.33,1.17c-0.51,1.95-1.68,5.11-5.98,10.68" class="grey" /><path d="M48.19,62.88c0.56,0.88,0.96,1.32,1.12,2.49c0.98,7.07,0.64,27.1,0.87,32.86" class="grey" /><path d="M49.64,63.92c3.28-0.16,28.43-2.7,31.41-2.89c2.48-0.16,3.39,1.22,3.39,3.51c0,1.95-1.9,22.79-2.21,32.96" class="grey" /><path d="M50.5,79.32c13.56-1.07,24.01-2.48,31.85-2.38" class="grey" /><path d="M51.16,95.81c10.75-0.63,20.67-1.18,30.78-1.19" class="grey" /><path d="M16.5,20.1c1.73,0.7,3.74,0.84,5.48,0.7c15.9-1.29,44.13-3.46,62.47-3.56c2.88-0.02,4.62,0.33,6.06,0.69" class="stroke" stroke-dasharray="150"><animate attributeName="stroke-dashoffset" from="150" to="0" dur="1.8s" begin="0.0s" fill="freeze" /></path><path d="M35.97,11c1.34,1.1,1.77,1.43,1.92,2.11C39.23,19.44,39.62,25.2,40,27.5" class="stroke" stroke-dasharray="150"><set attributeName="opacity" to="0" dur="1.7s" /><animate attributeName="stroke-dashoffset" from="150" to="0" dur="1.8s" begin="1.7s" fill="freeze" /></path><path d="M69.24,9.25c0.87,0.77,0.94,1.94,0.65,3.08c-0.87,3.47-1.44,9.24-2.7,13.67" class="stroke" stroke-dasharray="150"><set attributeName="opacity" to="0" dur="2.6s" /><animate attributeName="stroke-dashoffset" from="150" to="0" dur="1.8s" begin="2.6s" fill="freeze" /></path><path d="M51.21,23c1.04,0.33,2.51,1.2,2.49,2.16c-0.08,3.04-0.08,5.49-0.08,8.26" class="stroke" stroke-dasharray="150"><set attributeName="opacity" to="0" dur="3.5s" /><animate attributeName="stroke-dashoffset" from="150" to="0" dur="1.8s" begin="3.5s" fill="freeze" /></path><path d="M21.27,34.25c0,3.49-3.39,13.58-4.7,15.91" class="stroke" stroke-dasharray="150"><set attributeName="opacity" to="0" dur="4.4s" /><animate attributeName="stroke-dashoffset" from="150" to="0" dur="1.8s" begin="4.4s" fill="freeze" /></path><path d="M21.08,36.46c1.5,0.08,56.34-5.29,63.95-5.29c12.82,0,5.47,6.58,1.56,10.06" class="stroke" stroke-dasharray="150"><set attributeName="opacity" to="0" dur="5.300000000000001s" /><animate attributeName="stroke-dashoffset" from="150" to="0" dur="1.8s" begin="5.300000000000001s" fill="freeze" /></path><path d="M39.49,39.15c0.25,1.69-0.07,3.89-0.88,5.33c-5.19,9.2-11.24,17.44-23.14,28.64" class="stroke" stroke-dasharray="150"><set attributeName="opacity" to="0" dur="7.000000000000001s" /><animate attributeName="stroke-dashoffset" from="150" to="0" dur="1.8s" begin="7.000000000000001s" fill="freeze" /></path><path d="M29.42,61.88c0.58,0.62,1.19,2.47,1.26,4.09c0.37,9.09-0.91,28.69-0.5,33.71" class="stroke" stroke-dasharray="150"><set attributeName="opacity" to="0" dur="8.100000000000001s" /><animate attributeName="stroke-dashoffset" from="150" to="0" dur="1.8s" begin="8.100000000000001s" fill="freeze" /></path><path d="M44.46,49.25c1.29,0.21,3.65,0.28,4.93,0.21C61,48.83,74,47.25,83.49,46.91c2.14-0.08,3.43,0.1,4.5,0.21" class="stroke" stroke-dasharray="150"><set attributeName="opacity" to="0" dur="9.100000000000001s" /><animate attributeName="stroke-dashoffset" from="150" to="0" dur="1.8s" begin="9.100000000000001s" fill="freeze" /></path><path d="M63.95,50.08c0.36,0.38,0.42,0.84,0.33,1.17c-0.51,1.95-1.68,5.11-5.98,10.68" class="stroke" stroke-dasharray="150"><set attributeName="opacity" to="0" dur="10.200000000000001s" /><animate attributeName="stroke-dashoffset" from="150" to="0" dur="1.8s" begin="10.200000000000001s" fill="freeze" /></path><path d="M48.19,62.88c0.56,0.88,0.96,1.32,1.12,2.49c0.98,7.07,0.64,27.1,0.87,32.86" class="stroke" stroke-dasharray="150"><set attributeName="opacity" to="0" dur="11.100000000000001s" /><animate attributeName="stroke-dashoffset" from="150" to="0" dur="1.8s" begin="11.100000000000001s" fill="freeze" /></path><path d="M49.64,63.92c3.28-0.16,28.43-2.7,31.41-2.89c2.48-0.16,3.39,1.22,3.39,3.51c0,1.95-1.9,22.79-2.21,32.96" class="stroke" stroke-dasharray="150"><set attributeName="opacity" to="0" dur="12.100000000000001s" /><animate attributeName="stroke-dashoffset" from="150" to="0" dur="1.8s" begin="12.100000000000001s" fill="freeze" /></path><path d="M50.5,79.32c13.56-1.07,24.01-2.48,31.85-2.38" class="stroke" stroke-dasharray="150"><set attributeName="opacity" to="0" dur="13.8s" /><animate attributeName="stroke-dashoffset" from="150" to="0" dur="1.8s" begin="13.8s" fill="freeze" /></path><path d="M51.16,95.81c10.75-0.63,20.67-1.18,30.78-1.19" class="stroke" stroke-dasharray="150"><set attributeName="opacity" to="0" dur="14.8s" /><animate attributeName="stroke-dashoffset" from="150" to="0" dur="1.8s" begin="14.8s" fill="freeze" /></path><text x="90" y="120" id="reset-kvg-084ff">⟳</text><text x="70" y="120" id="pause-kvg-084ff">◼</text><script type="text/javascript"><![CDATA[function RecurringTimer(e,t){var n,r,i=t;this.pause=function(){window.clearTimeout(n);i-=new Date-r};var s=function(){r=new Date;n=window.setTimeout(function(){i=t;s();e()},i)};this.clear=function(){window.clearTimeout(n);i=t;n=window.setTimeout(function(){i=t;s();e()},i)};this.resume=s;this.resume()}function invoketimer(){timer=new RecurringTimer(function(){svg.setCurrentTime(0)},16800.0)}var svg=document.getElementById("kvg-084ff");var pause=document.getElementById("pause-kvg-084ff");var reset=document.getElementById("reset-kvg-084ff");var timer;invoketimer();reset.onclick=function(){svg.setCurrentTime(0);timer.clear();svg.unpauseAnimations();pause.innerHTML = "◼";};pause.onclick=function(){if(svg.animationsPaused()){svg.unpauseAnimations();timer.resume();pause.innerHTML="◼"}else{svg.pauseAnimations();timer.pause();pause.innerHTML="▶"}}]]></script></svg>