<svg id="kvg-08513" class="kanjivg" width="106" height="126" xmlns="http://www.w3.org/2000/svg" xmlns:xlink="http://www.w3.org/1999/xlink" xml:space="preserve" version="1.1" baseProfile="full"><defs><style type="text/css"><![CDATA[path.black{fill:none;stroke:black;stroke-width:5;stroke-linecap:round;stroke-linejoin:round;}path.grey{fill:none;stroke:#ddd;stroke-width:5;stroke-linecap:round;stroke-linejoin:round;}path.stroke{fill:none;stroke:black;stroke-width:5;stroke-linecap:round;stroke-linejoin:round;}rect{fill:none;stroke:#555;stroke-width:2;} text{font-size:16px;font-family:Segoe UI Symbol,Cambria Math,DejaVu Sans,Symbola,Quivira,STIX,Code2000;-webkit-touch-callout:none;cursor:pointer;-webkit-user-select:none;-khtml-user-select:none;-moz-user-select:none;-ms-user-select:none;user-select: none;}text:hover{color:#777;}#reset{font-weight:bold;}]]></style><marker id="markerStart" markerWidth="8" markerHeight="8" style="overflow:visible;"><circle cx="0" cy="0" r="1.5" style="stroke:none;fill:red;fill-opacity:0.5;"/></marker><marker id="markerEnd" style="overflow:visible;"><circle cx="0" cy="0" r="0.8" style="stroke:none;fill:blue;fill-opacity:0.5;"><animate attributeName="opacity" from="1" to="0" dur="3s" repeatCount="indefinite" /></circle></marker></defs><rect x="4" y="4" width="100" height="100" /><path d="M19.5,20.77c1.29,0.53,2.8,0.63,4.1,0.53c11.9-0.96,46.9-3.96,60.62-4.03c2.16-0.01,3.45,0.25,4.53,0.51" class="grey" /><path d="M37.6,12.5c1.18,0.97,1.56,1.26,1.69,1.85c1.18,5.56,2.02,10.12,2.35,12.15" class="grey" /><path d="M66.69,9.75c0.79,0.7,0.81,2.27,0.55,3.3c-0.79,3.16-1.81,6.91-2.95,10.95" class="grey" /><path d="M33.27,31.14c0.29,0.28,0.29,0.48,0.45,0.84c1.3,2.95,2.53,10.78,3.33,16.27" class="grey" /><path d="M34.62,31.92c10.09-0.74,28.86-2.78,36.4-3.4c2.77-0.23,4.28,0.75,4.04,2.55c-0.4,2.98-2.29,8.79-3.56,13.75" class="grey" /><path d="M36.5,39.15c3.29-0.29,34.63-2.42,37.35-2.53" class="grey" /><path d="M37.58,46.67c7.26-0.32,23.39-2.25,33.42-2.76" class="grey" /><path d="M24.28,53.88c0.31,0.22,0.63,0.9,0.77,1.18c1.09,2.21,2.25,8.33,2.99,12.32" class="grey" /><path d="M25.8,55.45c6.91-1.04,54.66-4,58.33-4.38c1.34-0.14,3.16,1.18,2.8,2.44c-0.75,2.64-1.68,6.24-3.1,9.97" class="grey" /><path d="M44.56,53.74c0.21,1.48,0.82,8.72,1.03,10.39" class="grey" /><path d="M65.96,52.83c-0.21,2.42-0.84,7.56-1.26,10.26" class="grey" /><path d="M29.04,65.75c4.31-0.44,49.37-3.53,55.29-4.18" class="grey" /><path d="M36.23,73.28c1.69,0.23,1.9,0.57,5.28,0.23c3.38-0.34,27.99-4.24,30.32-4.58c2.32-0.34,3.84,1.7,2.25,3.37C62,85,44.75,93.5,23.52,100" class="grey" /><path d="M38.1,79.63c5.01,0.45,29.48,12.6,46.91,17.58c2.71,0.77,4.69,1.29,7.22,1.55" class="grey" /><path d="M19.5,20.77c1.29,0.53,2.8,0.63,4.1,0.53c11.9-0.96,46.9-3.96,60.62-4.03c2.16-0.01,3.45,0.25,4.53,0.51" class="stroke" stroke-dasharray="150"><animate attributeName="stroke-dashoffset" from="150" to="0" dur="1.8s" begin="0.0s" fill="freeze" /></path><path d="M37.6,12.5c1.18,0.97,1.56,1.26,1.69,1.85c1.18,5.56,2.02,10.12,2.35,12.15" class="stroke" stroke-dasharray="150"><set attributeName="opacity" to="0" dur="1.5s" /><animate attributeName="stroke-dashoffset" from="150" to="0" dur="1.8s" begin="1.5s" fill="freeze" /></path><path d="M66.69,9.75c0.79,0.7,0.81,2.27,0.55,3.3c-0.79,3.16-1.81,6.91-2.95,10.95" class="stroke" stroke-dasharray="150"><set attributeName="opacity" to="0" dur="2.4s" /><animate attributeName="stroke-dashoffset" from="150" to="0" dur="1.8s" begin="2.4s" fill="freeze" /></path><path d="M33.27,31.14c0.29,0.28,0.29,0.48,0.45,0.84c1.3,2.95,2.53,10.78,3.33,16.27" class="stroke" stroke-dasharray="150"><set attributeName="opacity" to="0" dur="3.3s" /><animate attributeName="stroke-dashoffset" from="150" to="0" dur="1.8s" begin="3.3s" fill="freeze" /></path><path d="M34.62,31.92c10.09-0.74,28.86-2.78,36.4-3.4c2.77-0.23,4.28,0.75,4.04,2.55c-0.4,2.98-2.29,8.79-3.56,13.75" class="stroke" stroke-dasharray="150"><set attributeName="opacity" to="0" dur="4.2s" /><animate attributeName="stroke-dashoffset" from="150" to="0" dur="1.8s" begin="4.2s" fill="freeze" /></path><path d="M36.5,39.15c3.29-0.29,34.63-2.42,37.35-2.53" class="stroke" stroke-dasharray="150"><set attributeName="opacity" to="0" dur="5.6s" /><animate attributeName="stroke-dashoffset" from="150" to="0" dur="1.8s" begin="5.6s" fill="freeze" /></path><path d="M37.58,46.67c7.26-0.32,23.39-2.25,33.42-2.76" class="stroke" stroke-dasharray="150"><set attributeName="opacity" to="0" dur="6.6s" /><animate attributeName="stroke-dashoffset" from="150" to="0" dur="1.8s" begin="6.6s" fill="freeze" /></path><path d="M24.28,53.88c0.31,0.22,0.63,0.9,0.77,1.18c1.09,2.21,2.25,8.33,2.99,12.32" class="stroke" stroke-dasharray="150"><set attributeName="opacity" to="0" dur="7.6s" /><animate attributeName="stroke-dashoffset" from="150" to="0" dur="1.8s" begin="7.6s" fill="freeze" /></path><path d="M25.8,55.45c6.91-1.04,54.66-4,58.33-4.38c1.34-0.14,3.16,1.18,2.8,2.44c-0.75,2.64-1.68,6.24-3.1,9.97" class="stroke" stroke-dasharray="150"><set attributeName="opacity" to="0" dur="8.5s" /><animate attributeName="stroke-dashoffset" from="150" to="0" dur="1.8s" begin="8.5s" fill="freeze" /></path><path d="M44.56,53.74c0.21,1.48,0.82,8.72,1.03,10.39" class="stroke" stroke-dasharray="150"><set attributeName="opacity" to="0" dur="10.2s" /><animate attributeName="stroke-dashoffset" from="150" to="0" dur="1.8s" begin="10.2s" fill="freeze" /></path><path d="M65.96,52.83c-0.21,2.42-0.84,7.56-1.26,10.26" class="stroke" stroke-dasharray="150"><set attributeName="opacity" to="0" dur="11.1s" /><animate attributeName="stroke-dashoffset" from="150" to="0" dur="1.8s" begin="11.1s" fill="freeze" /></path><path d="M29.04,65.75c4.31-0.44,49.37-3.53,55.29-4.18" class="stroke" stroke-dasharray="150"><set attributeName="opacity" to="0" dur="12.0s" /><animate attributeName="stroke-dashoffset" from="150" to="0" dur="1.8s" begin="12.0s" fill="freeze" /></path><path d="M36.23,73.28c1.69,0.23,1.9,0.57,5.28,0.23c3.38-0.34,27.99-4.24,30.32-4.58c2.32-0.34,3.84,1.7,2.25,3.37C62,85,44.75,93.5,23.52,100" class="stroke" stroke-dasharray="150"><set attributeName="opacity" to="0" dur="13.4s" /><animate attributeName="stroke-dashoffset" from="150" to="0" dur="1.8s" begin="13.4s" fill="freeze" /></path><path d="M38.1,79.63c5.01,0.45,29.48,12.6,46.91,17.58c2.71,0.77,4.69,1.29,7.22,1.55" class="stroke" stroke-dasharray="150"><set attributeName="opacity" to="0" dur="15.200000000000001s" /><animate attributeName="stroke-dashoffset" from="150" to="0" dur="1.8s" begin="15.200000000000001s" fill="freeze" /></path><text x="90" y="120" id="reset-kvg-08513">⟳</text><text x="70" y="120" id="pause-kvg-08513">◼</text><script type="text/javascript"><![CDATA[function RecurringTimer(e,t){var n,r,i=t;this.pause=function(){window.clearTimeout(n);i-=new Date-r};var s=function(){r=new Date;n=window.setTimeout(function(){i=t;s();e()},i)};this.clear=function(){window.clearTimeout(n);i=t;n=window.setTimeout(function(){i=t;s();e()},i)};this.resume=s;this.resume()}function invoketimer(){timer=new RecurringTimer(function(){svg.setCurrentTime(0)},17600.0)}var svg=document.getElementById("kvg-08513");var pause=document.getElementById("pause-kvg-08513");var reset=document.getElementById("reset-kvg-08513");var timer;invoketimer();reset.onclick=function(){svg.setCurrentTime(0);timer.clear();svg.unpauseAnimations();pause.innerHTML = "◼";};pause.onclick=function(){if(svg.animationsPaused()){svg.unpauseAnimations();timer.resume();pause.innerHTML="◼"}else{svg.pauseAnimations();timer.pause();pause.innerHTML="▶"}}]]></script></svg>