<svg id="kvg-08557" class="kanjivg" width="106" height="126" xmlns="http://www.w3.org/2000/svg" xmlns:xlink="http://www.w3.org/1999/xlink" xml:space="preserve" version="1.1" baseProfile="full"><defs><style type="text/css"><![CDATA[path.black{fill:none;stroke:black;stroke-width:5;stroke-linecap:round;stroke-linejoin:round;}path.grey{fill:none;stroke:#ddd;stroke-width:5;stroke-linecap:round;stroke-linejoin:round;}path.stroke{fill:none;stroke:black;stroke-width:5;stroke-linecap:round;stroke-linejoin:round;}rect{fill:none;stroke:#555;stroke-width:2;} text{font-size:16px;font-family:Segoe UI Symbol,Cambria Math,DejaVu Sans,Symbola,Quivira,STIX,Code2000;-webkit-touch-callout:none;cursor:pointer;-webkit-user-select:none;-khtml-user-select:none;-moz-user-select:none;-ms-user-select:none;user-select: none;}text:hover{color:#777;}#reset{font-weight:bold;}]]></style><marker id="markerStart" markerWidth="8" markerHeight="8" style="overflow:visible;"><circle cx="0" cy="0" r="1.5" style="stroke:none;fill:red;fill-opacity:0.5;"/></marker><marker id="markerEnd" style="overflow:visible;"><circle cx="0" cy="0" r="0.8" style="stroke:none;fill:blue;fill-opacity:0.5;"><animate attributeName="opacity" from="1" to="0" dur="3s" repeatCount="indefinite" /></circle></marker></defs><rect x="4" y="4" width="100" height="100" /><path d="M19.5,22.69c3.25,0.56,5.85,0.65,8.63,0.38c13.87-1.32,38.1-2.89,52.13-3.27c3.25-0.09,6.23-0.07,9.41,0.6" class="grey" /><path d="M37.69,12.2c0.93,0.93,1.38,2.09,1.49,2.86c1.2,8.56,1.45,10.06,2.23,15.19" class="grey" /><path d="M68.74,10.42c0.43,1.02,0.55,1.98,0.25,3.3c-1.03,4.65-2.07,9.59-3.58,15" class="grey" /><path d="M20.25,38.62c0.9,0.89,1.06,1.8,1.35,2.98c0.72,2.97,1.48,7.52,2.07,11.53c0.18,1.22,0.34,2.38,0.49,3.44" class="grey" /><path d="M21.97,40.14c7.73-1.44,15.1-2.27,19.8-3c3.23-0.51,4.48,1.49,3.84,4.27c-0.79,3.45-1.55,6.9-2.7,10.97" class="grey" /><path d="M25.34,55.38c4.28-0.38,9.21-0.98,14.76-1.58c1.45-0.16,2.94-0.31,4.48-0.47" class="grey" /><path d="M32.87,57.29c0.86,0.86,0.96,2.09,0.96,3.64c0,5.19,0.03,22.44,0.03,29.27" class="grey" /><path d="M35.26,69.7c3.15-0.63,5.37-1.33,8.94-2.17c1.59-0.38,2.79-0.32,3.8,0" class="grey" /><path d="M20.87,66.89c0.93,0.93,1.15,2.23,1.21,3.14c0.42,6.21,1.17,17.96,1.78,25.67" class="grey" /><path d="M18.25,97.3c1,0.7,2.29,0.88,3.07,0.47c9.43-4.9,14.43-7.52,23.93-12.72" class="grey" /><path d="M62,33.98c0.08,1.15,0.01,2.09-0.37,3.19c-2,5.71-5.5,13.33-13.76,21.59" class="grey" /><path d="M63.39,40.95c1.85,0.19,3.09-0.1,4.9-0.52c3.96-0.93,5.92-1.58,8.73-2.19c2.86-0.62,3.52,1.29,2.45,3.49C75.1,50.7,64,66,45.19,75.17" class="grey" /><path d="M58.24,48.36c2.86,1,17.93,13.48,26.29,19.67c2.58,1.91,5.12,3.3,7.97,4.72" class="grey" /><path d="M53.12,76.75c0.81,0.81,1.45,2.06,1.68,3.36c0.79,4.63,1.55,9.04,2.27,13.75c0.25,1.67,0.51,3.37,0.75,5.13" class="grey" /><path d="M54.98,78.34c7.76-1.09,19.64-2.43,24.9-3.05c2.93-0.34,3.94,0.42,3.39,3.37c-0.81,4.29-1.74,9.88-2.9,15.27" class="grey" /><path d="M58.23,96.57c4.98-0.37,12.86-1.03,20.01-1.41c1.49-0.08,2.95-0.15,4.35-0.2" class="grey" /><path d="M19.5,22.69c3.25,0.56,5.85,0.65,8.63,0.38c13.87-1.32,38.1-2.89,52.13-3.27c3.25-0.09,6.23-0.07,9.41,0.6" class="stroke" stroke-dasharray="150"><animate attributeName="stroke-dashoffset" from="150" to="0" dur="1.8s" begin="0.0s" fill="freeze" /></path><path d="M37.69,12.2c0.93,0.93,1.38,2.09,1.49,2.86c1.2,8.56,1.45,10.06,2.23,15.19" class="stroke" stroke-dasharray="150"><set attributeName="opacity" to="0" dur="1.7s" /><animate attributeName="stroke-dashoffset" from="150" to="0" dur="1.8s" begin="1.7s" fill="freeze" /></path><path d="M68.74,10.42c0.43,1.02,0.55,1.98,0.25,3.3c-1.03,4.65-2.07,9.59-3.58,15" class="stroke" stroke-dasharray="150"><set attributeName="opacity" to="0" dur="2.6s" /><animate attributeName="stroke-dashoffset" from="150" to="0" dur="1.8s" begin="2.6s" fill="freeze" /></path><path d="M20.25,38.62c0.9,0.89,1.06,1.8,1.35,2.98c0.72,2.97,1.48,7.52,2.07,11.53c0.18,1.22,0.34,2.38,0.49,3.44" class="stroke" stroke-dasharray="150"><set attributeName="opacity" to="0" dur="3.5s" /><animate attributeName="stroke-dashoffset" from="150" to="0" dur="1.8s" begin="3.5s" fill="freeze" /></path><path d="M21.97,40.14c7.73-1.44,15.1-2.27,19.8-3c3.23-0.51,4.48,1.49,3.84,4.27c-0.79,3.45-1.55,6.9-2.7,10.97" class="stroke" stroke-dasharray="150"><set attributeName="opacity" to="0" dur="4.4s" /><animate attributeName="stroke-dashoffset" from="150" to="0" dur="1.8s" begin="4.4s" fill="freeze" /></path><path d="M25.34,55.38c4.28-0.38,9.21-0.98,14.76-1.58c1.45-0.16,2.94-0.31,4.48-0.47" class="stroke" stroke-dasharray="150"><set attributeName="opacity" to="0" dur="5.4s" /><animate attributeName="stroke-dashoffset" from="150" to="0" dur="1.8s" begin="5.4s" fill="freeze" /></path><path d="M32.87,57.29c0.86,0.86,0.96,2.09,0.96,3.64c0,5.19,0.03,22.44,0.03,29.27" class="stroke" stroke-dasharray="150"><set attributeName="opacity" to="0" dur="6.300000000000001s" /><animate attributeName="stroke-dashoffset" from="150" to="0" dur="1.8s" begin="6.300000000000001s" fill="freeze" /></path><path d="M35.26,69.7c3.15-0.63,5.37-1.33,8.94-2.17c1.59-0.38,2.79-0.32,3.8,0" class="stroke" stroke-dasharray="150"><set attributeName="opacity" to="0" dur="7.300000000000001s" /><animate attributeName="stroke-dashoffset" from="150" to="0" dur="1.8s" begin="7.300000000000001s" fill="freeze" /></path><path d="M20.87,66.89c0.93,0.93,1.15,2.23,1.21,3.14c0.42,6.21,1.17,17.96,1.78,25.67" class="stroke" stroke-dasharray="150"><set attributeName="opacity" to="0" dur="8.200000000000001s" /><animate attributeName="stroke-dashoffset" from="150" to="0" dur="1.8s" begin="8.200000000000001s" fill="freeze" /></path><path d="M18.25,97.3c1,0.7,2.29,0.88,3.07,0.47c9.43-4.9,14.43-7.52,23.93-12.72" class="stroke" stroke-dasharray="150"><set attributeName="opacity" to="0" dur="9.200000000000001s" /><animate attributeName="stroke-dashoffset" from="150" to="0" dur="1.8s" begin="9.200000000000001s" fill="freeze" /></path><path d="M62,33.98c0.08,1.15,0.01,2.09-0.37,3.19c-2,5.71-5.5,13.33-13.76,21.59" class="stroke" stroke-dasharray="150"><set attributeName="opacity" to="0" dur="10.200000000000001s" /><animate attributeName="stroke-dashoffset" from="150" to="0" dur="1.8s" begin="10.200000000000001s" fill="freeze" /></path><path d="M63.39,40.95c1.85,0.19,3.09-0.1,4.9-0.52c3.96-0.93,5.92-1.58,8.73-2.19c2.86-0.62,3.52,1.29,2.45,3.49C75.1,50.7,64,66,45.19,75.17" class="stroke" stroke-dasharray="150"><set attributeName="opacity" to="0" dur="11.200000000000001s" /><animate attributeName="stroke-dashoffset" from="150" to="0" dur="1.8s" begin="11.200000000000001s" fill="freeze" /></path><path d="M58.24,48.36c2.86,1,17.93,13.48,26.29,19.67c2.58,1.91,5.12,3.3,7.97,4.72" class="stroke" stroke-dasharray="150"><set attributeName="opacity" to="0" dur="12.700000000000001s" /><animate attributeName="stroke-dashoffset" from="150" to="0" dur="1.8s" begin="12.700000000000001s" fill="freeze" /></path><path d="M53.12,76.75c0.81,0.81,1.45,2.06,1.68,3.36c0.79,4.63,1.55,9.04,2.27,13.75c0.25,1.67,0.51,3.37,0.75,5.13" class="stroke" stroke-dasharray="150"><set attributeName="opacity" to="0" dur="13.8s" /><animate attributeName="stroke-dashoffset" from="150" to="0" dur="1.8s" begin="13.8s" fill="freeze" /></path><path d="M54.98,78.34c7.76-1.09,19.64-2.43,24.9-3.05c2.93-0.34,3.94,0.42,3.39,3.37c-0.81,4.29-1.74,9.88-2.9,15.27" class="stroke" stroke-dasharray="150"><set attributeName="opacity" to="0" dur="14.8s" /><animate attributeName="stroke-dashoffset" from="150" to="0" dur="1.8s" begin="14.8s" fill="freeze" /></path><path d="M58.23,96.57c4.98-0.37,12.86-1.03,20.01-1.41c1.49-0.08,2.95-0.15,4.35-0.2" class="stroke" stroke-dasharray="150"><set attributeName="opacity" to="0" dur="16.0s" /><animate attributeName="stroke-dashoffset" from="150" to="0" dur="1.8s" begin="16.0s" fill="freeze" /></path><text x="90" y="120" id="reset-kvg-08557">⟳</text><text x="70" y="120" id="pause-kvg-08557">◼</text><script type="text/javascript"><![CDATA[function RecurringTimer(e,t){var n,r,i=t;this.pause=function(){window.clearTimeout(n);i-=new Date-r};var s=function(){r=new Date;n=window.setTimeout(function(){i=t;s();e()},i)};this.clear=function(){window.clearTimeout(n);i=t;n=window.setTimeout(function(){i=t;s();e()},i)};this.resume=s;this.resume()}function invoketimer(){timer=new RecurringTimer(function(){svg.setCurrentTime(0)},18000.0)}var svg=document.getElementById("kvg-08557");var pause=document.getElementById("pause-kvg-08557");var reset=document.getElementById("reset-kvg-08557");var timer;invoketimer();reset.onclick=function(){svg.setCurrentTime(0);timer.clear();svg.unpauseAnimations();pause.innerHTML = "◼";};pause.onclick=function(){if(svg.animationsPaused()){svg.unpauseAnimations();timer.resume();pause.innerHTML="◼"}else{svg.pauseAnimations();timer.pause();pause.innerHTML="▶"}}]]></script></svg>