<svg id="kvg-085ba" class="kanjivg" width="106" height="126" xmlns="http://www.w3.org/2000/svg" xmlns:xlink="http://www.w3.org/1999/xlink" xml:space="preserve" version="1.1" baseProfile="full"><defs><style type="text/css"><![CDATA[path.black{fill:none;stroke:black;stroke-width:5;stroke-linecap:round;stroke-linejoin:round;}path.grey{fill:none;stroke:#ddd;stroke-width:5;stroke-linecap:round;stroke-linejoin:round;}path.stroke{fill:none;stroke:black;stroke-width:5;stroke-linecap:round;stroke-linejoin:round;}rect{fill:none;stroke:#555;stroke-width:2;} text{font-size:16px;font-family:Segoe UI Symbol,Cambria Math,DejaVu Sans,Symbola,Quivira,STIX,Code2000;-webkit-touch-callout:none;cursor:pointer;-webkit-user-select:none;-khtml-user-select:none;-moz-user-select:none;-ms-user-select:none;user-select: none;}text:hover{color:#777;}#reset{font-weight:bold;}]]></style><marker id="markerStart" markerWidth="8" markerHeight="8" style="overflow:visible;"><circle cx="0" cy="0" r="1.5" style="stroke:none;fill:red;fill-opacity:0.5;"/></marker><marker id="markerEnd" style="overflow:visible;"><circle cx="0" cy="0" r="0.8" style="stroke:none;fill:blue;fill-opacity:0.5;"><animate attributeName="opacity" from="1" to="0" dur="3s" repeatCount="indefinite" /></circle></marker></defs><rect x="4" y="4" width="100" height="100" /><path d="M19,20.77c1.69,0.53,3.67,0.63,5.36,0.53c15.58-0.96,41.75-3.46,59.71-3.53c2.83-0.01,4.52,0.25,5.93,0.51" class="grey" /><path d="M37,11.25c1.33,1.19,1.76,1.56,1.9,2.29C40.24,20.42,40.62,27.5,41,30" class="grey" /><path d="M68.5,10.5c0.33,0.78,0.72,1.35,0.57,2.31c-0.83,5.61-1.18,8.41-2.19,13.69" class="grey" /><path d="M52.45,24.25c0.74,0.36,1.95,1.75,1.95,2.47c0,2.64-0.23,3.85-0.1,6.08" class="grey" /><path d="M21.75,34.75c2.06,0.37,3.87,0.63,6.25,0.51c14.49-0.72,40.65-2.96,57.11-3.71c2.42-0.11,3.66,0.04,5.47,0.65" class="grey" /><path d="M45.31,37.91c1.85,1.07,4.78,4.42,5.24,6.09" class="grey" /><path d="M61.81,36.68c0.02,0.2,0.04,0.52-0.03,0.8c-0.4,1.69-2.67,5.41-5.78,7.68" class="grey" /><path d="M53.36,48.27c0.43,0.36,0.74,0.79,0.77,2c0.18,5.79-0.01,13-0.01,14.98" class="grey" /><path d="M20.38,46.19c0.57,0.21,1.79,0.18,2.29,0.11c4.08-0.58,17.98-2.12,20.24-2.34c1.47-0.14,1.95,0.63,1.8,1.6c-0.85,5.38-2.61,10.71-5.19,14.8c-1.35,2.14-2.93,1.46-3.92-0.21" class="grey" /><path d="M32.41,45.75c0.03,0.39,0.07,1.01-0.06,1.57c-0.95,4.15-4.98,10.02-10.11,15.07" class="grey" /><path d="M83.23,36.72c0.04,0.18,0.09,0.47-0.08,0.72c-0.98,1.52-7.45,5.26-15.1,7.31" class="grey" /><path d="M66.62,43.62c0.38,0.52,0.67,1.22,0.67,2c0,0.78-0.1,11.8-0.1,13.02c0,1.22,0.1,1.57,1.35,0.7c1.25-0.87,7.83-4.75,8.6-5.27" class="grey" /><path d="M75.48,42.42c3.02,4.83,8.27,11.08,12.35,16.09c1.14,1.4,3.28,1.95,5.08,2.64" class="grey" /><path d="M32.85,63.65c0.86,0.48,1.17,1.69,1.17,2.21c0,2.8-0.16,11.82-0.26,12.9c-0.56,6.18-2.74,14.57-11.2,19.8" class="grey" /><path d="M34.53,71.26c4.68-0.48,39.68-2.62,42.99-2.83" class="grey" /><path d="M33.57,81.43c4.22-0.11,38.27-2.54,43.9-2.71" class="grey" /><path d="M76.08,61.33c0.64,0.47,1.68,2.26,1.68,3.18c0,3.66-0.02,33-0.09,35.62" class="grey" /><path d="M19,20.77c1.69,0.53,3.67,0.63,5.36,0.53c15.58-0.96,41.75-3.46,59.71-3.53c2.83-0.01,4.52,0.25,5.93,0.51" class="stroke" stroke-dasharray="150"><animate attributeName="stroke-dashoffset" from="150" to="0" dur="1.8s" begin="0.0s" fill="freeze" /></path><path d="M37,11.25c1.33,1.19,1.76,1.56,1.9,2.29C40.24,20.42,40.62,27.5,41,30" class="stroke" stroke-dasharray="150"><set attributeName="opacity" to="0" dur="1.7s" /><animate attributeName="stroke-dashoffset" from="150" to="0" dur="1.8s" begin="1.7s" fill="freeze" /></path><path d="M68.5,10.5c0.33,0.78,0.72,1.35,0.57,2.31c-0.83,5.61-1.18,8.41-2.19,13.69" class="stroke" stroke-dasharray="150"><set attributeName="opacity" to="0" dur="2.6s" /><animate attributeName="stroke-dashoffset" from="150" to="0" dur="1.8s" begin="2.6s" fill="freeze" /></path><path d="M52.45,24.25c0.74,0.36,1.95,1.75,1.95,2.47c0,2.64-0.23,3.85-0.1,6.08" class="stroke" stroke-dasharray="150"><set attributeName="opacity" to="0" dur="3.5s" /><animate attributeName="stroke-dashoffset" from="150" to="0" dur="1.8s" begin="3.5s" fill="freeze" /></path><path d="M21.75,34.75c2.06,0.37,3.87,0.63,6.25,0.51c14.49-0.72,40.65-2.96,57.11-3.71c2.42-0.11,3.66,0.04,5.47,0.65" class="stroke" stroke-dasharray="150"><set attributeName="opacity" to="0" dur="4.4s" /><animate attributeName="stroke-dashoffset" from="150" to="0" dur="1.8s" begin="4.4s" fill="freeze" /></path><path d="M45.31,37.91c1.85,1.07,4.78,4.42,5.24,6.09" class="stroke" stroke-dasharray="150"><set attributeName="opacity" to="0" dur="5.9s" /><animate attributeName="stroke-dashoffset" from="150" to="0" dur="1.8s" begin="5.9s" fill="freeze" /></path><path d="M61.81,36.68c0.02,0.2,0.04,0.52-0.03,0.8c-0.4,1.69-2.67,5.41-5.78,7.68" class="stroke" stroke-dasharray="150"><set attributeName="opacity" to="0" dur="6.800000000000001s" /><animate attributeName="stroke-dashoffset" from="150" to="0" dur="1.8s" begin="6.800000000000001s" fill="freeze" /></path><path d="M53.36,48.27c0.43,0.36,0.74,0.79,0.77,2c0.18,5.79-0.01,13-0.01,14.98" class="stroke" stroke-dasharray="150"><set attributeName="opacity" to="0" dur="7.700000000000001s" /><animate attributeName="stroke-dashoffset" from="150" to="0" dur="1.8s" begin="7.700000000000001s" fill="freeze" /></path><path d="M20.38,46.19c0.57,0.21,1.79,0.18,2.29,0.11c4.08-0.58,17.98-2.12,20.24-2.34c1.47-0.14,1.95,0.63,1.8,1.6c-0.85,5.38-2.61,10.71-5.19,14.8c-1.35,2.14-2.93,1.46-3.92-0.21" class="stroke" stroke-dasharray="150"><set attributeName="opacity" to="0" dur="8.600000000000001s" /><animate attributeName="stroke-dashoffset" from="150" to="0" dur="1.8s" begin="8.600000000000001s" fill="freeze" /></path><path d="M32.41,45.75c0.03,0.39,0.07,1.01-0.06,1.57c-0.95,4.15-4.98,10.02-10.11,15.07" class="stroke" stroke-dasharray="150"><set attributeName="opacity" to="0" dur="9.8s" /><animate attributeName="stroke-dashoffset" from="150" to="0" dur="1.8s" begin="9.8s" fill="freeze" /></path><path d="M83.23,36.72c0.04,0.18,0.09,0.47-0.08,0.72c-0.98,1.52-7.45,5.26-15.1,7.31" class="stroke" stroke-dasharray="150"><set attributeName="opacity" to="0" dur="10.700000000000001s" /><animate attributeName="stroke-dashoffset" from="150" to="0" dur="1.8s" begin="10.700000000000001s" fill="freeze" /></path><path d="M66.62,43.62c0.38,0.52,0.67,1.22,0.67,2c0,0.78-0.1,11.8-0.1,13.02c0,1.22,0.1,1.57,1.35,0.7c1.25-0.87,7.83-4.75,8.6-5.27" class="stroke" stroke-dasharray="150"><set attributeName="opacity" to="0" dur="11.600000000000001s" /><animate attributeName="stroke-dashoffset" from="150" to="0" dur="1.8s" begin="11.600000000000001s" fill="freeze" /></path><path d="M75.48,42.42c3.02,4.83,8.27,11.08,12.35,16.09c1.14,1.4,3.28,1.95,5.08,2.64" class="stroke" stroke-dasharray="150"><set attributeName="opacity" to="0" dur="12.600000000000001s" /><animate attributeName="stroke-dashoffset" from="150" to="0" dur="1.8s" begin="12.600000000000001s" fill="freeze" /></path><path d="M32.85,63.65c0.86,0.48,1.17,1.69,1.17,2.21c0,2.8-0.16,11.82-0.26,12.9c-0.56,6.18-2.74,14.57-11.2,19.8" class="stroke" stroke-dasharray="150"><set attributeName="opacity" to="0" dur="13.600000000000001s" /><animate attributeName="stroke-dashoffset" from="150" to="0" dur="1.8s" begin="13.600000000000001s" fill="freeze" /></path><path d="M34.53,71.26c4.68-0.48,39.68-2.62,42.99-2.83" class="stroke" stroke-dasharray="150"><set attributeName="opacity" to="0" dur="14.600000000000001s" /><animate attributeName="stroke-dashoffset" from="150" to="0" dur="1.8s" begin="14.600000000000001s" fill="freeze" /></path><path d="M33.57,81.43c4.22-0.11,38.27-2.54,43.9-2.71" class="stroke" stroke-dasharray="150"><set attributeName="opacity" to="0" dur="15.700000000000001s" /><animate attributeName="stroke-dashoffset" from="150" to="0" dur="1.8s" begin="15.700000000000001s" fill="freeze" /></path><path d="M76.08,61.33c0.64,0.47,1.68,2.26,1.68,3.18c0,3.66-0.02,33-0.09,35.62" class="stroke" stroke-dasharray="150"><set attributeName="opacity" to="0" dur="16.8s" /><animate attributeName="stroke-dashoffset" from="150" to="0" dur="1.8s" begin="16.8s" fill="freeze" /></path><text x="90" y="120" id="reset-kvg-085ba">⟳</text><text x="70" y="120" id="pause-kvg-085ba">◼</text><script type="text/javascript"><![CDATA[function RecurringTimer(e,t){var n,r,i=t;this.pause=function(){window.clearTimeout(n);i-=new Date-r};var s=function(){r=new Date;n=window.setTimeout(function(){i=t;s();e()},i)};this.clear=function(){window.clearTimeout(n);i=t;n=window.setTimeout(function(){i=t;s();e()},i)};this.resume=s;this.resume()}function invoketimer(){timer=new RecurringTimer(function(){svg.setCurrentTime(0)},18800.0)}var svg=document.getElementById("kvg-085ba");var pause=document.getElementById("pause-kvg-085ba");var reset=document.getElementById("reset-kvg-085ba");var timer;invoketimer();reset.onclick=function(){svg.setCurrentTime(0);timer.clear();svg.unpauseAnimations();pause.innerHTML = "◼";};pause.onclick=function(){if(svg.animationsPaused()){svg.unpauseAnimations();timer.resume();pause.innerHTML="◼"}else{svg.pauseAnimations();timer.pause();pause.innerHTML="▶"}}]]></script></svg>