<svg id="kvg-085d0-Kaisho" class="kanjivg" width="106" height="126" xmlns="http://www.w3.org/2000/svg" xmlns:xlink="http://www.w3.org/1999/xlink" xml:space="preserve" version="1.1" baseProfile="full"><defs><style type="text/css"><![CDATA[path.black{fill:none;stroke:black;stroke-width:5;stroke-linecap:round;stroke-linejoin:round;}path.grey{fill:none;stroke:#ddd;stroke-width:5;stroke-linecap:round;stroke-linejoin:round;}path.stroke{fill:none;stroke:black;stroke-width:5;stroke-linecap:round;stroke-linejoin:round;}rect{fill:none;stroke:#555;stroke-width:2;} text{font-size:16px;font-family:Segoe UI Symbol,Cambria Math,DejaVu Sans,Symbola,Quivira,STIX,Code2000;-webkit-touch-callout:none;cursor:pointer;-webkit-user-select:none;-khtml-user-select:none;-moz-user-select:none;-ms-user-select:none;user-select: none;}text:hover{color:#777;}#reset{font-weight:bold;}]]></style><marker id="markerStart" markerWidth="8" markerHeight="8" style="overflow:visible;"><circle cx="0" cy="0" r="1.5" style="stroke:none;fill:red;fill-opacity:0.5;"/></marker><marker id="markerEnd" style="overflow:visible;"><circle cx="0" cy="0" r="0.8" style="stroke:none;fill:blue;fill-opacity:0.5;"><animate attributeName="opacity" from="1" to="0" dur="3s" repeatCount="indefinite" /></circle></marker></defs><rect x="4" y="4" width="100" height="100" /><path d="M17.5,21.39c1.71,0.41,3.71,0.49,5.43,0.41c15.75-0.75,42.92-3.49,61.08-3.54c2.86-0.01,4.57,0.2,6,0.4" class="grey" /><path d="M37.75,10.5c1.58,1.13,2.09,1.48,2.26,2.17c1.58,6.52,2.04,12.45,2.49,14.83" class="grey" /><path d="M66.58,10c0.9,0.8,1.5,2.02,1.2,3.2c-0.9,3.6-1.5,9.59-2.8,14.19" class="grey" /><path d="M37.62,28.96c0.06,0.37,0.24,1.07-0.12,1.49C33.05,35.69,26.48,40.5,14.9,44.72" class="grey" /><path d="M18.75,46.42c1.78,1.33,4.59,5.49,5.04,7.57" class="grey" /><path d="M29.7,40.26c1.88,0.98,4.84,4.03,5.31,5.56" class="grey" /><path d="M43.49,40.03c0.07,0.9-0.16,1.94-0.64,2.5c-6.37,7.53-13.94,13.19-27.27,19.36" class="grey" /><path d="M32.1,54.72c8.62,6.05,13.06,23.87,6.62,38.76c-3.76,8.69-7.5,0.8-8.47,0.04" class="grey" /><path d="M34.14,59.7c0.05,0.35,0.1,0.9-0.1,1.4c-1.18,2.95-7.97,9.44-17.25,13.41" class="grey" /><path d="M37.84,68.31c0.06,0.52,0.27,1.4-0.13,2.07c-2.94,4.97-10.91,13.29-22.25,19.85" class="grey" /><path d="M69.42,27.75c0.26,0.42,0.12,1.68,0,2.02c-0.86,2.54-3.31,6.57-6.21,9.46" class="grey" /><path d="M51.83,40.35c0.53,0.61,0.98,1.71,1.08,2.51c0.35,3.06,2.84,18.65,3.06,22.64" class="grey" /><path d="M53.22,41.78c3.03-0.1,27.69-3.2,30.45-3.36c2.83-0.17,4.58,1.58,4.46,3.94c-0.14,2.79-2.99,15.28-4.18,21.73" class="grey" /><path d="M54.59,52.11c5.39-0.26,10.78-0.81,16.16-1.26c1.6-0.13,3.18-0.27,4.69-0.39" class="grey" /><path d="M56.28,63.55c7.6-0.33,19.99-1.89,28.09-2.04" class="grey" /><path d="M61.45,66.91c0.05,0.76,0.02,1.97-0.1,3.08C60.5,78,55.5,93.75,44.22,99.42" class="grey" /><path d="M71.8,64.96c0.51,1.04,0.91,2.27,0.94,3.88c0.14,7.17,0,15.41,0,20.28c0,8.63,1.27,9.16,11.52,9.16c8.75,0,9.88-1.83,9.88-8.05" class="grey" /><path d="M17.5,21.39c1.71,0.41,3.71,0.49,5.43,0.41c15.75-0.75,42.92-3.49,61.08-3.54c2.86-0.01,4.57,0.2,6,0.4" class="stroke" stroke-dasharray="150"><animate attributeName="stroke-dashoffset" from="150" to="0" dur="1.8s" begin="0.0s" fill="freeze" /></path><path d="M37.75,10.5c1.58,1.13,2.09,1.48,2.26,2.17c1.58,6.52,2.04,12.45,2.49,14.83" class="stroke" stroke-dasharray="150"><set attributeName="opacity" to="0" dur="1.7s" /><animate attributeName="stroke-dashoffset" from="150" to="0" dur="1.8s" begin="1.7s" fill="freeze" /></path><path d="M66.58,10c0.9,0.8,1.5,2.02,1.2,3.2c-0.9,3.6-1.5,9.59-2.8,14.19" class="stroke" stroke-dasharray="150"><set attributeName="opacity" to="0" dur="2.6s" /><animate attributeName="stroke-dashoffset" from="150" to="0" dur="1.8s" begin="2.6s" fill="freeze" /></path><path d="M37.62,28.96c0.06,0.37,0.24,1.07-0.12,1.49C33.05,35.69,26.48,40.5,14.9,44.72" class="stroke" stroke-dasharray="150"><set attributeName="opacity" to="0" dur="3.5s" /><animate attributeName="stroke-dashoffset" from="150" to="0" dur="1.8s" begin="3.5s" fill="freeze" /></path><path d="M18.75,46.42c1.78,1.33,4.59,5.49,5.04,7.57" class="stroke" stroke-dasharray="150"><set attributeName="opacity" to="0" dur="4.5s" /><animate attributeName="stroke-dashoffset" from="150" to="0" dur="1.8s" begin="4.5s" fill="freeze" /></path><path d="M29.7,40.26c1.88,0.98,4.84,4.03,5.31,5.56" class="stroke" stroke-dasharray="150"><set attributeName="opacity" to="0" dur="5.4s" /><animate attributeName="stroke-dashoffset" from="150" to="0" dur="1.8s" begin="5.4s" fill="freeze" /></path><path d="M43.49,40.03c0.07,0.9-0.16,1.94-0.64,2.5c-6.37,7.53-13.94,13.19-27.27,19.36" class="stroke" stroke-dasharray="150"><set attributeName="opacity" to="0" dur="6.300000000000001s" /><animate attributeName="stroke-dashoffset" from="150" to="0" dur="1.8s" begin="6.300000000000001s" fill="freeze" /></path><path d="M32.1,54.72c8.62,6.05,13.06,23.87,6.62,38.76c-3.76,8.69-7.5,0.8-8.47,0.04" class="stroke" stroke-dasharray="150"><set attributeName="opacity" to="0" dur="7.300000000000001s" /><animate attributeName="stroke-dashoffset" from="150" to="0" dur="1.8s" begin="7.300000000000001s" fill="freeze" /></path><path d="M34.14,59.7c0.05,0.35,0.1,0.9-0.1,1.4c-1.18,2.95-7.97,9.44-17.25,13.41" class="stroke" stroke-dasharray="150"><set attributeName="opacity" to="0" dur="8.600000000000001s" /><animate attributeName="stroke-dashoffset" from="150" to="0" dur="1.8s" begin="8.600000000000001s" fill="freeze" /></path><path d="M37.84,68.31c0.06,0.52,0.27,1.4-0.13,2.07c-2.94,4.97-10.91,13.29-22.25,19.85" class="stroke" stroke-dasharray="150"><set attributeName="opacity" to="0" dur="9.600000000000001s" /><animate attributeName="stroke-dashoffset" from="150" to="0" dur="1.8s" begin="9.600000000000001s" fill="freeze" /></path><path d="M69.42,27.75c0.26,0.42,0.12,1.68,0,2.02c-0.86,2.54-3.31,6.57-6.21,9.46" class="stroke" stroke-dasharray="150"><set attributeName="opacity" to="0" dur="10.600000000000001s" /><animate attributeName="stroke-dashoffset" from="150" to="0" dur="1.8s" begin="10.600000000000001s" fill="freeze" /></path><path d="M51.83,40.35c0.53,0.61,0.98,1.71,1.08,2.51c0.35,3.06,2.84,18.65,3.06,22.64" class="stroke" stroke-dasharray="150"><set attributeName="opacity" to="0" dur="11.500000000000002s" /><animate attributeName="stroke-dashoffset" from="150" to="0" dur="1.8s" begin="11.500000000000002s" fill="freeze" /></path><path d="M53.22,41.78c3.03-0.1,27.69-3.2,30.45-3.36c2.83-0.17,4.58,1.58,4.46,3.94c-0.14,2.79-2.99,15.28-4.18,21.73" class="stroke" stroke-dasharray="150"><set attributeName="opacity" to="0" dur="12.500000000000002s" /><animate attributeName="stroke-dashoffset" from="150" to="0" dur="1.8s" begin="12.500000000000002s" fill="freeze" /></path><path d="M54.59,52.11c5.39-0.26,10.78-0.81,16.16-1.26c1.6-0.13,3.18-0.27,4.69-0.39" class="stroke" stroke-dasharray="150"><set attributeName="opacity" to="0" dur="13.900000000000002s" /><animate attributeName="stroke-dashoffset" from="150" to="0" dur="1.8s" begin="13.900000000000002s" fill="freeze" /></path><path d="M56.28,63.55c7.6-0.33,19.99-1.89,28.09-2.04" class="stroke" stroke-dasharray="150"><set attributeName="opacity" to="0" dur="14.900000000000002s" /><animate attributeName="stroke-dashoffset" from="150" to="0" dur="1.8s" begin="14.900000000000002s" fill="freeze" /></path><path d="M61.45,66.91c0.05,0.76,0.02,1.97-0.1,3.08C60.5,78,55.5,93.75,44.22,99.42" class="stroke" stroke-dasharray="150"><set attributeName="opacity" to="0" dur="15.900000000000002s" /><animate attributeName="stroke-dashoffset" from="150" to="0" dur="1.8s" begin="15.900000000000002s" fill="freeze" /></path><path d="M71.8,64.96c0.51,1.04,0.91,2.27,0.94,3.88c0.14,7.17,0,15.41,0,20.28c0,8.63,1.27,9.16,11.52,9.16c8.75,0,9.88-1.83,9.88-8.05" class="stroke" stroke-dasharray="150"><set attributeName="opacity" to="0" dur="16.900000000000002s" /><animate attributeName="stroke-dashoffset" from="150" to="0" dur="1.8s" begin="16.900000000000002s" fill="freeze" /></path><text x="90" y="120" id="reset-kvg-085d0-Kaisho">⟳</text><text x="70" y="120" id="pause-kvg-085d0-Kaisho">◼</text><script type="text/javascript"><![CDATA[function RecurringTimer(e,t){var n,r,i=t;this.pause=function(){window.clearTimeout(n);i-=new Date-r};var s=function(){r=new Date;n=window.setTimeout(function(){i=t;s();e()},i)};this.clear=function(){window.clearTimeout(n);i=t;n=window.setTimeout(function(){i=t;s();e()},i)};this.resume=s;this.resume()}function invoketimer(){timer=new RecurringTimer(function(){svg.setCurrentTime(0)},19300.0)}var svg=document.getElementById("kvg-085d0-Kaisho");var pause=document.getElementById("pause-kvg-085d0-Kaisho");var reset=document.getElementById("reset-kvg-085d0-Kaisho");var timer;invoketimer();reset.onclick=function(){svg.setCurrentTime(0);timer.clear();svg.unpauseAnimations();pause.innerHTML = "◼";};pause.onclick=function(){if(svg.animationsPaused()){svg.unpauseAnimations();timer.resume();pause.innerHTML="◼"}else{svg.pauseAnimations();timer.pause();pause.innerHTML="▶"}}]]></script></svg>