<svg id="kvg-0860a-Kaisho" class="kanjivg" width="106" height="126" xmlns="http://www.w3.org/2000/svg" xmlns:xlink="http://www.w3.org/1999/xlink" xml:space="preserve" version="1.1" baseProfile="full"><defs><style type="text/css"><![CDATA[path.black{fill:none;stroke:black;stroke-width:5;stroke-linecap:round;stroke-linejoin:round;}path.grey{fill:none;stroke:#ddd;stroke-width:5;stroke-linecap:round;stroke-linejoin:round;}path.stroke{fill:none;stroke:black;stroke-width:5;stroke-linecap:round;stroke-linejoin:round;}rect{fill:none;stroke:#555;stroke-width:2;} text{font-size:16px;font-family:Segoe UI Symbol,Cambria Math,DejaVu Sans,Symbola,Quivira,STIX,Code2000;-webkit-touch-callout:none;cursor:pointer;-webkit-user-select:none;-khtml-user-select:none;-moz-user-select:none;-ms-user-select:none;user-select: none;}text:hover{color:#777;}#reset{font-weight:bold;}]]></style><marker id="markerStart" markerWidth="8" markerHeight="8" style="overflow:visible;"><circle cx="0" cy="0" r="1.5" style="stroke:none;fill:red;fill-opacity:0.5;"/></marker><marker id="markerEnd" style="overflow:visible;"><circle cx="0" cy="0" r="0.8" style="stroke:none;fill:blue;fill-opacity:0.5;"><animate attributeName="opacity" from="1" to="0" dur="3s" repeatCount="indefinite" /></circle></marker></defs><rect x="4" y="4" width="100" height="100" /><path d="M20.5,21c1.61,0.65,3.47,0.78,5.08,0.65c14.75-1.19,40.05-3.17,57.05-3.26c2.68-0.01,4.28,0.31,5.62,0.64" class="grey" /><path d="M36.36,11c1.55,1.27,2.04,1.65,2.21,2.43C40.12,20.72,40.56,27.35,41,30" class="grey" /><path d="M65.79,9.75c0.89,0.79,1.48,2,1.19,3.17c-0.89,3.57-1.49,9.52-2.78,14.08" class="grey" /><path d="M28.37,29.5c0.32,1.19,0.4,2.1-0.16,3.37c-2.84,6.42-6.21,11.07-9.65,16.44c-0.46,0.72-0.64,2.75,0,2.97c3.38,1.19,8.12,3.17,11.02,5.35" class="grey" /><path d="M40.43,40.22c0.3,0.54,0.39,2.3,0,2.88c-5.73,8.44-14.28,20.19-22.16,27.88c-1.81,1.76,0.45,2.78,1.62,2.42c4.93-1.5,15.15-4.18,21.48-5.62" class="grey" /><path d="M37.29,60.83c2.56,2.16,6.61,8.88,7.25,12.24" class="grey" /><path d="M13.46,84.33c3.89,2.7,6.87,8.97,7.77,11.42" class="grey" /><path d="M24.6,80.85c4.4,2.34,7.78,7.77,8.81,9.89" class="grey" /><path d="M35.74,76.71c4.27,1.88,7.55,6.23,8.55,7.93" class="grey" /><path d="M53.13,35.04c0.36,0.42,0.81,1.56,0.9,2.11c0.78,4.59,2.94,13.89,3.74,23.18" class="grey" /><path d="M54.39,36.13c9.93-1.21,26.16-2.35,32-2.86c2.35-0.21,2.78,1.03,2.57,2.84c-0.68,5.73-2.31,15.42-3.63,22.36" class="grey" /><path d="M69.89,39.01c0.05,0.33,0.2,1.04,0.11,1.54c-0.54,2.97-2.75,7.45-6.91,12.48" class="grey" /><path d="M70.91,44.83c3.21,0.99,7.87,4.95,8.67,6.88" class="grey" /><path d="M57.8,57.94c6.35,0,18.75-1.94,27.52-2.06" class="grey" /><path d="M52.98,69.17c0.46,0.65,1.13,1.36,1.16,1.92C54.5,77.5,55.08,87,55.08,94.48" class="grey" /><path d="M54.86,71.05c8.3-0.91,30.89-3.42,33.9-3.61c1.89-0.12,2.94,0.87,2.75,2.67c-0.28,2.55-2.6,19.64-3.57,23.08" class="grey" /><path d="M65.02,71.26c0.19,0.42,0.39,0.77,0.47,1.29c0.67,4.16,1.16,14.08,1.62,21.56" class="grey" /><path d="M76.62,70.41c0.35,0.5,0.69,1.36,0.63,2.01c-0.58,6.44,0.07,12.35-0.64,20.6" class="grey" /><path d="M43.58,95.27c1.33,0.43,3.78,0.5,5.12,0.43c13.89-0.72,18.74-2.45,44.31-2.56c2.22-0.01,3.56,0.2,4.67,0.42" class="grey" /><path d="M20.5,21c1.61,0.65,3.47,0.78,5.08,0.65c14.75-1.19,40.05-3.17,57.05-3.26c2.68-0.01,4.28,0.31,5.62,0.64" class="stroke" stroke-dasharray="150"><animate attributeName="stroke-dashoffset" from="150" to="0" dur="1.8s" begin="0.0s" fill="freeze" /></path><path d="M36.36,11c1.55,1.27,2.04,1.65,2.21,2.43C40.12,20.72,40.56,27.35,41,30" class="stroke" stroke-dasharray="150"><set attributeName="opacity" to="0" dur="1.5s" /><animate attributeName="stroke-dashoffset" from="150" to="0" dur="1.8s" begin="1.5s" fill="freeze" /></path><path d="M65.79,9.75c0.89,0.79,1.48,2,1.19,3.17c-0.89,3.57-1.49,9.52-2.78,14.08" class="stroke" stroke-dasharray="150"><set attributeName="opacity" to="0" dur="2.5s" /><animate attributeName="stroke-dashoffset" from="150" to="0" dur="1.8s" begin="2.5s" fill="freeze" /></path><path d="M28.37,29.5c0.32,1.19,0.4,2.1-0.16,3.37c-2.84,6.42-6.21,11.07-9.65,16.44c-0.46,0.72-0.64,2.75,0,2.97c3.38,1.19,8.12,3.17,11.02,5.35" class="stroke" stroke-dasharray="150"><set attributeName="opacity" to="0" dur="3.4s" /><animate attributeName="stroke-dashoffset" from="150" to="0" dur="1.8s" begin="3.4s" fill="freeze" /></path><path d="M40.43,40.22c0.3,0.54,0.39,2.3,0,2.88c-5.73,8.44-14.28,20.19-22.16,27.88c-1.81,1.76,0.45,2.78,1.62,2.42c4.93-1.5,15.15-4.18,21.48-5.62" class="stroke" stroke-dasharray="150"><set attributeName="opacity" to="0" dur="4.4s" /><animate attributeName="stroke-dashoffset" from="150" to="0" dur="1.8s" begin="4.4s" fill="freeze" /></path><path d="M37.29,60.83c2.56,2.16,6.61,8.88,7.25,12.24" class="stroke" stroke-dasharray="150"><set attributeName="opacity" to="0" dur="5.9s" /><animate attributeName="stroke-dashoffset" from="150" to="0" dur="1.8s" begin="5.9s" fill="freeze" /></path><path d="M13.46,84.33c3.89,2.7,6.87,8.97,7.77,11.42" class="stroke" stroke-dasharray="150"><set attributeName="opacity" to="0" dur="6.800000000000001s" /><animate attributeName="stroke-dashoffset" from="150" to="0" dur="1.8s" begin="6.800000000000001s" fill="freeze" /></path><path d="M24.6,80.85c4.4,2.34,7.78,7.77,8.81,9.89" class="stroke" stroke-dasharray="150"><set attributeName="opacity" to="0" dur="7.700000000000001s" /><animate attributeName="stroke-dashoffset" from="150" to="0" dur="1.8s" begin="7.700000000000001s" fill="freeze" /></path><path d="M35.74,76.71c4.27,1.88,7.55,6.23,8.55,7.93" class="stroke" stroke-dasharray="150"><set attributeName="opacity" to="0" dur="8.600000000000001s" /><animate attributeName="stroke-dashoffset" from="150" to="0" dur="1.8s" begin="8.600000000000001s" fill="freeze" /></path><path d="M53.13,35.04c0.36,0.42,0.81,1.56,0.9,2.11c0.78,4.59,2.94,13.89,3.74,23.18" class="stroke" stroke-dasharray="150"><set attributeName="opacity" to="0" dur="9.500000000000002s" /><animate attributeName="stroke-dashoffset" from="150" to="0" dur="1.8s" begin="9.500000000000002s" fill="freeze" /></path><path d="M54.39,36.13c9.93-1.21,26.16-2.35,32-2.86c2.35-0.21,2.78,1.03,2.57,2.84c-0.68,5.73-2.31,15.42-3.63,22.36" class="stroke" stroke-dasharray="150"><set attributeName="opacity" to="0" dur="10.500000000000002s" /><animate attributeName="stroke-dashoffset" from="150" to="0" dur="1.8s" begin="10.500000000000002s" fill="freeze" /></path><path d="M69.89,39.01c0.05,0.33,0.2,1.04,0.11,1.54c-0.54,2.97-2.75,7.45-6.91,12.48" class="stroke" stroke-dasharray="150"><set attributeName="opacity" to="0" dur="11.900000000000002s" /><animate attributeName="stroke-dashoffset" from="150" to="0" dur="1.8s" begin="11.900000000000002s" fill="freeze" /></path><path d="M70.91,44.83c3.21,0.99,7.87,4.95,8.67,6.88" class="stroke" stroke-dasharray="150"><set attributeName="opacity" to="0" dur="12.800000000000002s" /><animate attributeName="stroke-dashoffset" from="150" to="0" dur="1.8s" begin="12.800000000000002s" fill="freeze" /></path><path d="M57.8,57.94c6.35,0,18.75-1.94,27.52-2.06" class="stroke" stroke-dasharray="150"><set attributeName="opacity" to="0" dur="13.700000000000003s" /><animate attributeName="stroke-dashoffset" from="150" to="0" dur="1.8s" begin="13.700000000000003s" fill="freeze" /></path><path d="M52.98,69.17c0.46,0.65,1.13,1.36,1.16,1.92C54.5,77.5,55.08,87,55.08,94.48" class="stroke" stroke-dasharray="150"><set attributeName="opacity" to="0" dur="14.700000000000003s" /><animate attributeName="stroke-dashoffset" from="150" to="0" dur="1.8s" begin="14.700000000000003s" fill="freeze" /></path><path d="M54.86,71.05c8.3-0.91,30.89-3.42,33.9-3.61c1.89-0.12,2.94,0.87,2.75,2.67c-0.28,2.55-2.6,19.64-3.57,23.08" class="stroke" stroke-dasharray="150"><set attributeName="opacity" to="0" dur="15.700000000000003s" /><animate attributeName="stroke-dashoffset" from="150" to="0" dur="1.8s" begin="15.700000000000003s" fill="freeze" /></path><path d="M65.02,71.26c0.19,0.42,0.39,0.77,0.47,1.29c0.67,4.16,1.16,14.08,1.62,21.56" class="stroke" stroke-dasharray="150"><set attributeName="opacity" to="0" dur="17.200000000000003s" /><animate attributeName="stroke-dashoffset" from="150" to="0" dur="1.8s" begin="17.200000000000003s" fill="freeze" /></path><path d="M76.62,70.41c0.35,0.5,0.69,1.36,0.63,2.01c-0.58,6.44,0.07,12.35-0.64,20.6" class="stroke" stroke-dasharray="150"><set attributeName="opacity" to="0" dur="18.200000000000003s" /><animate attributeName="stroke-dashoffset" from="150" to="0" dur="1.8s" begin="18.200000000000003s" fill="freeze" /></path><path d="M43.58,95.27c1.33,0.43,3.78,0.5,5.12,0.43c13.89-0.72,18.74-2.45,44.31-2.56c2.22-0.01,3.56,0.2,4.67,0.42" class="stroke" stroke-dasharray="150"><set attributeName="opacity" to="0" dur="19.200000000000003s" /><animate attributeName="stroke-dashoffset" from="150" to="0" dur="1.8s" begin="19.200000000000003s" fill="freeze" /></path><text x="90" y="120" id="reset-kvg-0860a-Kaisho">⟳</text><text x="70" y="120" id="pause-kvg-0860a-Kaisho">◼</text><script type="text/javascript"><![CDATA[function RecurringTimer(e,t){var n,r,i=t;this.pause=function(){window.clearTimeout(n);i-=new Date-r};var s=function(){r=new Date;n=window.setTimeout(function(){i=t;s();e()},i)};this.clear=function(){window.clearTimeout(n);i=t;n=window.setTimeout(function(){i=t;s();e()},i)};this.resume=s;this.resume()}function invoketimer(){timer=new RecurringTimer(function(){svg.setCurrentTime(0)},21500.000000000004)}var svg=document.getElementById("kvg-0860a-Kaisho");var pause=document.getElementById("pause-kvg-0860a-Kaisho");var reset=document.getElementById("reset-kvg-0860a-Kaisho");var timer;invoketimer();reset.onclick=function(){svg.setCurrentTime(0);timer.clear();svg.unpauseAnimations();pause.innerHTML = "◼";};pause.onclick=function(){if(svg.animationsPaused()){svg.unpauseAnimations();timer.resume();pause.innerHTML="◼"}else{svg.pauseAnimations();timer.pause();pause.innerHTML="▶"}}]]></script></svg>