<svg id="kvg-08630" class="kanjivg" width="106" height="126" xmlns="http://www.w3.org/2000/svg" xmlns:xlink="http://www.w3.org/1999/xlink" xml:space="preserve" version="1.1" baseProfile="full"><defs><style type="text/css"><![CDATA[path.black{fill:none;stroke:black;stroke-width:5;stroke-linecap:round;stroke-linejoin:round;}path.grey{fill:none;stroke:#ddd;stroke-width:5;stroke-linecap:round;stroke-linejoin:round;}path.stroke{fill:none;stroke:black;stroke-width:5;stroke-linecap:round;stroke-linejoin:round;}rect{fill:none;stroke:#555;stroke-width:2;} text{font-size:16px;font-family:Segoe UI Symbol,Cambria Math,DejaVu Sans,Symbola,Quivira,STIX,Code2000;-webkit-touch-callout:none;cursor:pointer;-webkit-user-select:none;-khtml-user-select:none;-moz-user-select:none;-ms-user-select:none;user-select: none;}text:hover{color:#777;}#reset{font-weight:bold;}]]></style><marker id="markerStart" markerWidth="8" markerHeight="8" style="overflow:visible;"><circle cx="0" cy="0" r="1.5" style="stroke:none;fill:red;fill-opacity:0.5;"/></marker><marker id="markerEnd" style="overflow:visible;"><circle cx="0" cy="0" r="0.8" style="stroke:none;fill:blue;fill-opacity:0.5;"><animate attributeName="opacity" from="1" to="0" dur="3s" repeatCount="indefinite" /></circle></marker></defs><rect x="4" y="4" width="100" height="100" /><path d="M20.5,21.01c1.61,0.65,3.48,0.78,5.1,0.65c14.81-1.2,40.19-3.69,57.26-3.78c2.68-0.01,4.3,0.31,5.64,0.64" class="grey" /><path d="M37.23,11.5c1.43,1.17,1.88,1.52,2.04,2.24c1.42,6.72,1.83,12.82,2.24,15.26" class="grey" /><path d="M66.21,9c0.9,0.8,1.5,2.03,1.21,3.22c-0.91,3.62-1.51,9.66-2.82,14.28" class="grey" /><path d="M29.4,29.17c0.36,1.1,0.38,1.91-0.18,3.11c-2.46,5.28-5.21,9.22-9.78,14.61c-0.57,0.68-0.72,2.54,0,2.74c3.81,1.1,6.64,2.04,9.91,4.05" class="grey" /><path d="M42.3,37.44c0.3,0.45,0.37,1.91,0,2.39c-5.8,7.54-17.49,20.18-25.48,26.58c-1.83,1.47-1.32,3.09,1.15,2.51c5.01-1.18,16.87-3.98,23.29-5.17" class="grey" /><path d="M38.88,57.1c1.98,2,5.13,8.23,5.62,11.34" class="grey" /><path d="M30.14,68.97c0.07,0.28,0.91,1.43,0.98,3.17c0.31,8.36-0.2,23.79-0.2,26.64" class="grey" /><path d="M21.61,75.39c0.15,0.95,0.13,2.83-0.15,3.5c-1.82,4.44-5.87,12.99-8.45,16.8" class="grey" /><path d="M37.93,74.16c2.75,3.1,4.85,10.31,5.49,13.12" class="grey" /><path d="M52.78,33.08c0.25,0.3,0.25,0.5,0.39,0.88c1.12,3.09,2.17,11.3,2.87,17.07" class="grey" /><path d="M53.94,33.9c8.68-0.78,24.82-2.91,31.3-3.57c2.38-0.24,3.68,0.79,3.48,2.68c-0.34,3.13-2.4,10.79-3.49,15.99" class="grey" /><path d="M55.56,41.49c2.83-0.3,29.36-2.53,31.69-2.66" class="grey" /><path d="M56.49,49.38c6.25-0.33,20.12-1.31,28.74-1.85" class="grey" /><path d="M50.65,57.03c0.23,0.23,0.46,0.42,0.56,0.72c0.79,2.33,2.14,8.8,2.68,13.01" class="grey" /><path d="M51.75,58.17c5.04-1.05,37.38-3.85,40.05-4.23c0.98-0.14,2.3,0.74,2.04,2.07c-0.55,2.78-1.89,7.55-3.35,11.53" class="grey" /><path d="M64.42,56.51c0.16,1.56,0.6,9.2,0.75,10.96" class="grey" /><path d="M78.57,55.16c-0.15,2.55-0.62,7.96-0.92,10.81" class="grey" /><path d="M54.61,69.05c3.14-0.43,31.93-2.88,36.25-3.53" class="grey" /><path d="M54.78,77.35c1.26,0.2,1.42,0.51,3.95,0.2c2.53-0.31,21.95-3.84,23.69-4.15c1.74-0.3,2.97,1.2,1.68,2.57C73.66,87.07,61.7,94.32,46.27,98.5" class="grey" /><path d="M57.57,80.62c3.32,0.41,19.55,11.31,31.12,15.78c1.8,0.69,3.11,1.16,4.79,1.39" class="grey" /><path d="M20.5,21.01c1.61,0.65,3.48,0.78,5.1,0.65c14.81-1.2,40.19-3.69,57.26-3.78c2.68-0.01,4.3,0.31,5.64,0.64" class="stroke" stroke-dasharray="150"><animate attributeName="stroke-dashoffset" from="150" to="0" dur="1.8s" begin="0.0s" fill="freeze" /></path><path d="M37.23,11.5c1.43,1.17,1.88,1.52,2.04,2.24c1.42,6.72,1.83,12.82,2.24,15.26" class="stroke" stroke-dasharray="150"><set attributeName="opacity" to="0" dur="1.5s" /><animate attributeName="stroke-dashoffset" from="150" to="0" dur="1.8s" begin="1.5s" fill="freeze" /></path><path d="M66.21,9c0.9,0.8,1.5,2.03,1.21,3.22c-0.91,3.62-1.51,9.66-2.82,14.28" class="stroke" stroke-dasharray="150"><set attributeName="opacity" to="0" dur="2.4s" /><animate attributeName="stroke-dashoffset" from="150" to="0" dur="1.8s" begin="2.4s" fill="freeze" /></path><path d="M29.4,29.17c0.36,1.1,0.38,1.91-0.18,3.11c-2.46,5.28-5.21,9.22-9.78,14.61c-0.57,0.68-0.72,2.54,0,2.74c3.81,1.1,6.64,2.04,9.91,4.05" class="stroke" stroke-dasharray="150"><set attributeName="opacity" to="0" dur="3.3s" /><animate attributeName="stroke-dashoffset" from="150" to="0" dur="1.8s" begin="3.3s" fill="freeze" /></path><path d="M42.3,37.44c0.3,0.45,0.37,1.91,0,2.39c-5.8,7.54-17.49,20.18-25.48,26.58c-1.83,1.47-1.32,3.09,1.15,2.51c5.01-1.18,16.87-3.98,23.29-5.17" class="stroke" stroke-dasharray="150"><set attributeName="opacity" to="0" dur="4.3s" /><animate attributeName="stroke-dashoffset" from="150" to="0" dur="1.8s" begin="4.3s" fill="freeze" /></path><path d="M38.88,57.1c1.98,2,5.13,8.23,5.62,11.34" class="stroke" stroke-dasharray="150"><set attributeName="opacity" to="0" dur="5.8s" /><animate attributeName="stroke-dashoffset" from="150" to="0" dur="1.8s" begin="5.8s" fill="freeze" /></path><path d="M30.14,68.97c0.07,0.28,0.91,1.43,0.98,3.17c0.31,8.36-0.2,23.79-0.2,26.64" class="stroke" stroke-dasharray="150"><set attributeName="opacity" to="0" dur="6.7s" /><animate attributeName="stroke-dashoffset" from="150" to="0" dur="1.8s" begin="6.7s" fill="freeze" /></path><path d="M21.61,75.39c0.15,0.95,0.13,2.83-0.15,3.5c-1.82,4.44-5.87,12.99-8.45,16.8" class="stroke" stroke-dasharray="150"><set attributeName="opacity" to="0" dur="7.7s" /><animate attributeName="stroke-dashoffset" from="150" to="0" dur="1.8s" begin="7.7s" fill="freeze" /></path><path d="M37.93,74.16c2.75,3.1,4.85,10.31,5.49,13.12" class="stroke" stroke-dasharray="150"><set attributeName="opacity" to="0" dur="8.7s" /><animate attributeName="stroke-dashoffset" from="150" to="0" dur="1.8s" begin="8.7s" fill="freeze" /></path><path d="M52.78,33.08c0.25,0.3,0.25,0.5,0.39,0.88c1.12,3.09,2.17,11.3,2.87,17.07" class="stroke" stroke-dasharray="150"><set attributeName="opacity" to="0" dur="9.6s" /><animate attributeName="stroke-dashoffset" from="150" to="0" dur="1.8s" begin="9.6s" fill="freeze" /></path><path d="M53.94,33.9c8.68-0.78,24.82-2.91,31.3-3.57c2.38-0.24,3.68,0.79,3.48,2.68c-0.34,3.13-2.4,10.79-3.49,15.99" class="stroke" stroke-dasharray="150"><set attributeName="opacity" to="0" dur="10.5s" /><animate attributeName="stroke-dashoffset" from="150" to="0" dur="1.8s" begin="10.5s" fill="freeze" /></path><path d="M55.56,41.49c2.83-0.3,29.36-2.53,31.69-2.66" class="stroke" stroke-dasharray="150"><set attributeName="opacity" to="0" dur="11.8s" /><animate attributeName="stroke-dashoffset" from="150" to="0" dur="1.8s" begin="11.8s" fill="freeze" /></path><path d="M56.49,49.38c6.25-0.33,20.12-1.31,28.74-1.85" class="stroke" stroke-dasharray="150"><set attributeName="opacity" to="0" dur="12.8s" /><animate attributeName="stroke-dashoffset" from="150" to="0" dur="1.8s" begin="12.8s" fill="freeze" /></path><path d="M50.65,57.03c0.23,0.23,0.46,0.42,0.56,0.72c0.79,2.33,2.14,8.8,2.68,13.01" class="stroke" stroke-dasharray="150"><set attributeName="opacity" to="0" dur="13.8s" /><animate attributeName="stroke-dashoffset" from="150" to="0" dur="1.8s" begin="13.8s" fill="freeze" /></path><path d="M51.75,58.17c5.04-1.05,37.38-3.85,40.05-4.23c0.98-0.14,2.3,0.74,2.04,2.07c-0.55,2.78-1.89,7.55-3.35,11.53" class="stroke" stroke-dasharray="150"><set attributeName="opacity" to="0" dur="14.700000000000001s" /><animate attributeName="stroke-dashoffset" from="150" to="0" dur="1.8s" begin="14.700000000000001s" fill="freeze" /></path><path d="M64.42,56.51c0.16,1.56,0.6,9.2,0.75,10.96" class="stroke" stroke-dasharray="150"><set attributeName="opacity" to="0" dur="16.1s" /><animate attributeName="stroke-dashoffset" from="150" to="0" dur="1.8s" begin="16.1s" fill="freeze" /></path><path d="M78.57,55.16c-0.15,2.55-0.62,7.96-0.92,10.81" class="stroke" stroke-dasharray="150"><set attributeName="opacity" to="0" dur="17.0s" /><animate attributeName="stroke-dashoffset" from="150" to="0" dur="1.8s" begin="17.0s" fill="freeze" /></path><path d="M54.61,69.05c3.14-0.43,31.93-2.88,36.25-3.53" class="stroke" stroke-dasharray="150"><set attributeName="opacity" to="0" dur="17.9s" /><animate attributeName="stroke-dashoffset" from="150" to="0" dur="1.8s" begin="17.9s" fill="freeze" /></path><path d="M54.78,77.35c1.26,0.2,1.42,0.51,3.95,0.2c2.53-0.31,21.95-3.84,23.69-4.15c1.74-0.3,2.97,1.2,1.68,2.57C73.66,87.07,61.7,94.32,46.27,98.5" class="stroke" stroke-dasharray="150"><set attributeName="opacity" to="0" dur="18.9s" /><animate attributeName="stroke-dashoffset" from="150" to="0" dur="1.8s" begin="18.9s" fill="freeze" /></path><path d="M57.57,80.62c3.32,0.41,19.55,11.31,31.12,15.78c1.8,0.69,3.11,1.16,4.79,1.39" class="stroke" stroke-dasharray="150"><set attributeName="opacity" to="0" dur="20.599999999999998s" /><animate attributeName="stroke-dashoffset" from="150" to="0" dur="1.8s" begin="20.599999999999998s" fill="freeze" /></path><text x="90" y="120" id="reset-kvg-08630">⟳</text><text x="70" y="120" id="pause-kvg-08630">◼</text><script type="text/javascript"><![CDATA[function RecurringTimer(e,t){var n,r,i=t;this.pause=function(){window.clearTimeout(n);i-=new Date-r};var s=function(){r=new Date;n=window.setTimeout(function(){i=t;s();e()},i)};this.clear=function(){window.clearTimeout(n);i=t;n=window.setTimeout(function(){i=t;s();e()},i)};this.resume=s;this.resume()}function invoketimer(){timer=new RecurringTimer(function(){svg.setCurrentTime(0)},22599.999999999996)}var svg=document.getElementById("kvg-08630");var pause=document.getElementById("pause-kvg-08630");var reset=document.getElementById("reset-kvg-08630");var timer;invoketimer();reset.onclick=function(){svg.setCurrentTime(0);timer.clear();svg.unpauseAnimations();pause.innerHTML = "◼";};pause.onclick=function(){if(svg.animationsPaused()){svg.unpauseAnimations();timer.resume();pause.innerHTML="◼"}else{svg.pauseAnimations();timer.pause();pause.innerHTML="▶"}}]]></script></svg>