<svg id="kvg-086b6" class="kanjivg" width="106" height="126" xmlns="http://www.w3.org/2000/svg" xmlns:xlink="http://www.w3.org/1999/xlink" xml:space="preserve" version="1.1" baseProfile="full"><defs><style type="text/css"><![CDATA[path.black{fill:none;stroke:black;stroke-width:5;stroke-linecap:round;stroke-linejoin:round;}path.grey{fill:none;stroke:#ddd;stroke-width:5;stroke-linecap:round;stroke-linejoin:round;}path.stroke{fill:none;stroke:black;stroke-width:5;stroke-linecap:round;stroke-linejoin:round;}rect{fill:none;stroke:#555;stroke-width:2;} text{font-size:16px;font-family:Segoe UI Symbol,Cambria Math,DejaVu Sans,Symbola,Quivira,STIX,Code2000;-webkit-touch-callout:none;cursor:pointer;-webkit-user-select:none;-khtml-user-select:none;-moz-user-select:none;-ms-user-select:none;user-select: none;}text:hover{color:#777;}#reset{font-weight:bold;}]]></style><marker id="markerStart" markerWidth="8" markerHeight="8" style="overflow:visible;"><circle cx="0" cy="0" r="1.5" style="stroke:none;fill:red;fill-opacity:0.5;"/></marker><marker id="markerEnd" style="overflow:visible;"><circle cx="0" cy="0" r="0.8" style="stroke:none;fill:blue;fill-opacity:0.5;"><animate attributeName="opacity" from="1" to="0" dur="3s" repeatCount="indefinite" /></circle></marker></defs><rect x="4" y="4" width="100" height="100" /><path d="M12.26,37.9c0.46,0.51,1.02,1.4,1.12,2.06c0.87,5.79,1.87,13.29,3.12,21.93" class="grey" /><path d="M14.22,40.48c6.93-0.97,19.61-2.83,24.63-3.2c1.96-0.14,2.86,1.38,2.62,2.83c-0.83,4.98-1.98,9.84-3.33,18.12" class="grey" /><path d="M16.76,60.43c6.24-0.68,15.96-1.48,23.76-2.39" class="grey" /><path d="M25.42,19.25c1.08,1,2.26,2.75,2.26,4.47c0,4.78-0.2,42.28-0.2,55.66" class="grey" /><path d="M11.57,86.25c0.57,1.18,2.32,1.13,2.89,0.84c0.57-0.29,23.16-12.86,26.68-15.22" class="grey" /><path d="M36.5,65.25c2.84,2.5,7.35,10.26,8.06,14.14" class="grey" /><path d="M46.86,36.52c1.62,0.46,4.6,0.57,6.22,0.46c11.94-0.84,20.3-2.73,39.88-3.83c2.7-0.15,4.33,0.22,5.68,0.45" class="grey" /><path d="M57.17,17.37c1.07,0.49,1.71,2.19,1.93,3.17c0.21,0.98,0,68.12-0.21,74.21" class="grey" /><path d="M82.12,15.5c1.07,0.49,1.71,2.19,1.93,3.17c0.21,0.98,0,67.51-0.21,73.6" class="grey" /><path d="M59.76,61.34c5.49-0.34,20.28-1.93,23.23-1.93" class="grey" /><path d="M59.76,91.65c6.4-0.24,17.08-1.71,22.98-1.95" class="grey" /><path d="M12.26,37.9c0.46,0.51,1.02,1.4,1.12,2.06c0.87,5.79,1.87,13.29,3.12,21.93" class="stroke" stroke-dasharray="150"><animate attributeName="stroke-dashoffset" from="150" to="0" dur="1.8s" begin="0.0s" fill="freeze" /></path><path d="M14.22,40.48c6.93-0.97,19.61-2.83,24.63-3.2c1.96-0.14,2.86,1.38,2.62,2.83c-0.83,4.98-1.98,9.84-3.33,18.12" class="stroke" stroke-dasharray="150"><set attributeName="opacity" to="0" dur="1.0s" /><animate attributeName="stroke-dashoffset" from="150" to="0" dur="1.8s" begin="1.0s" fill="freeze" /></path><path d="M16.76,60.43c6.24-0.68,15.96-1.48,23.76-2.39" class="stroke" stroke-dasharray="150"><set attributeName="opacity" to="0" dur="2.2s" /><animate attributeName="stroke-dashoffset" from="150" to="0" dur="1.8s" begin="2.2s" fill="freeze" /></path><path d="M25.42,19.25c1.08,1,2.26,2.75,2.26,4.47c0,4.78-0.2,42.28-0.2,55.66" class="stroke" stroke-dasharray="150"><set attributeName="opacity" to="0" dur="3.2s" /><animate attributeName="stroke-dashoffset" from="150" to="0" dur="1.8s" begin="3.2s" fill="freeze" /></path><path d="M11.57,86.25c0.57,1.18,2.32,1.13,2.89,0.84c0.57-0.29,23.16-12.86,26.68-15.22" class="stroke" stroke-dasharray="150"><set attributeName="opacity" to="0" dur="4.7s" /><animate attributeName="stroke-dashoffset" from="150" to="0" dur="1.8s" begin="4.7s" fill="freeze" /></path><path d="M36.5,65.25c2.84,2.5,7.35,10.26,8.06,14.14" class="stroke" stroke-dasharray="150"><set attributeName="opacity" to="0" dur="5.7s" /><animate attributeName="stroke-dashoffset" from="150" to="0" dur="1.8s" begin="5.7s" fill="freeze" /></path><path d="M46.86,36.52c1.62,0.46,4.6,0.57,6.22,0.46c11.94-0.84,20.3-2.73,39.88-3.83c2.7-0.15,4.33,0.22,5.68,0.45" class="stroke" stroke-dasharray="150"><set attributeName="opacity" to="0" dur="6.6000000000000005s" /><animate attributeName="stroke-dashoffset" from="150" to="0" dur="1.8s" begin="6.6000000000000005s" fill="freeze" /></path><path d="M57.17,17.37c1.07,0.49,1.71,2.19,1.93,3.17c0.21,0.98,0,68.12-0.21,74.21" class="stroke" stroke-dasharray="150"><set attributeName="opacity" to="0" dur="7.9s" /><animate attributeName="stroke-dashoffset" from="150" to="0" dur="1.8s" begin="7.9s" fill="freeze" /></path><path d="M82.12,15.5c1.07,0.49,1.71,2.19,1.93,3.17c0.21,0.98,0,67.51-0.21,73.6" class="stroke" stroke-dasharray="150"><set attributeName="opacity" to="0" dur="9.6s" /><animate attributeName="stroke-dashoffset" from="150" to="0" dur="1.8s" begin="9.6s" fill="freeze" /></path><path d="M59.76,61.34c5.49-0.34,20.28-1.93,23.23-1.93" class="stroke" stroke-dasharray="150"><set attributeName="opacity" to="0" dur="11.299999999999999s" /><animate attributeName="stroke-dashoffset" from="150" to="0" dur="1.8s" begin="11.299999999999999s" fill="freeze" /></path><path d="M59.76,91.65c6.4-0.24,17.08-1.71,22.98-1.95" class="stroke" stroke-dasharray="150"><set attributeName="opacity" to="0" dur="12.299999999999999s" /><animate attributeName="stroke-dashoffset" from="150" to="0" dur="1.8s" begin="12.299999999999999s" fill="freeze" /></path><text x="90" y="120" id="reset-kvg-086b6">⟳</text><text x="70" y="120" id="pause-kvg-086b6">◼</text><script type="text/javascript"><![CDATA[function RecurringTimer(e,t){var n,r,i=t;this.pause=function(){window.clearTimeout(n);i-=new Date-r};var s=function(){r=new Date;n=window.setTimeout(function(){i=t;s();e()},i)};this.clear=function(){window.clearTimeout(n);i=t;n=window.setTimeout(function(){i=t;s();e()},i)};this.resume=s;this.resume()}function invoketimer(){timer=new RecurringTimer(function(){svg.setCurrentTime(0)},14299.999999999998)}var svg=document.getElementById("kvg-086b6");var pause=document.getElementById("pause-kvg-086b6");var reset=document.getElementById("reset-kvg-086b6");var timer;invoketimer();reset.onclick=function(){svg.setCurrentTime(0);timer.clear();svg.unpauseAnimations();pause.innerHTML = "◼";};pause.onclick=function(){if(svg.animationsPaused()){svg.unpauseAnimations();timer.resume();pause.innerHTML="◼"}else{svg.pauseAnimations();timer.pause();pause.innerHTML="▶"}}]]></script></svg>