<svg id="kvg-08827" class="kanjivg" width="106" height="126" xmlns="http://www.w3.org/2000/svg" xmlns:xlink="http://www.w3.org/1999/xlink" xml:space="preserve" version="1.1" baseProfile="full"><defs><style type="text/css"><![CDATA[path.black{fill:none;stroke:black;stroke-width:5;stroke-linecap:round;stroke-linejoin:round;}path.grey{fill:none;stroke:#ddd;stroke-width:5;stroke-linecap:round;stroke-linejoin:round;}path.stroke{fill:none;stroke:black;stroke-width:5;stroke-linecap:round;stroke-linejoin:round;}rect{fill:none;stroke:#555;stroke-width:2;} text{font-size:16px;font-family:Segoe UI Symbol,Cambria Math,DejaVu Sans,Symbola,Quivira,STIX,Code2000;-webkit-touch-callout:none;cursor:pointer;-webkit-user-select:none;-khtml-user-select:none;-moz-user-select:none;-ms-user-select:none;user-select: none;}text:hover{color:#777;}#reset{font-weight:bold;}]]></style><marker id="markerStart" markerWidth="8" markerHeight="8" style="overflow:visible;"><circle cx="0" cy="0" r="1.5" style="stroke:none;fill:red;fill-opacity:0.5;"/></marker><marker id="markerEnd" style="overflow:visible;"><circle cx="0" cy="0" r="0.8" style="stroke:none;fill:blue;fill-opacity:0.5;"><animate attributeName="opacity" from="1" to="0" dur="3s" repeatCount="indefinite" /></circle></marker></defs><rect x="4" y="4" width="100" height="100" /><path d="M26.25,18.74c1.34,0.31,3.91,0.59,5.25,0.51c17.27-1.07,30.75-2,44.36-2.8c2.24-0.13,3.58,0.15,4.71,0.31" class="grey" /><path d="M53.27,10.75c0.13,0.3,1.34,1.59,1.34,3.53c0,3.22,0.12,6.72,0.12,12.63" class="grey" /><path d="M30.47,28.22c1.38,0.49,3.92,0.57,5.3,0.49C48,28,62.25,27,71.74,26.45c2.3-0.13,3.69-0.27,4.84-0.02" class="grey" /><path d="M19.91,35.63c0,3.48-3.03,13.05-4.41,15.37" class="grey" /><path d="M20.24,38.24c9.51-0.99,60.24-4.53,67.95-4.9c12.05-0.59,2.55,7.16-0.45,9.28" class="grey" /><path d="M28.92,43.98c1.28,0.21,4.13,0.26,5.4,0.21c11.48-0.41,28.23-1.92,39.34-2.54c2.13-0.12,3.41,0.1,4.47,0.21" class="grey" /><path d="M43.25,44.05c0.07,0.4,0.15,1.04-0.15,1.62c-1.77,3.43-11.43,10.45-25.34,15.06" class="grey" /><path d="M40,51.08c0.35,0.21,0.8,1.08,0.87,1.36c0.48,2.04,1.35,5.95,2.02,9.81" class="grey" /><path d="M41.36,51.85c5.35-0.41,28.33-2.77,31.99-2.84c1.51-0.03,1.77,1.06,1.6,1.67c-0.57,1.96-1.58,4.52-2.35,8" class="grey" /><path d="M42.88,60.97c4.28-0.21,25.36-1.9,30.82-1.96" class="grey" /><path d="M18.12,71.61c0.43,0.26,0.75,0.91,0.83,1.25c0.59,2.49,1.65,7.36,2.47,12.08" class="grey" /><path d="M19.27,72.62c6.62-0.5,22.6-1.94,27.39-2.12c1.87-0.08,1.95,0.8,1.77,1.9c-0.43,2.57-0.69,4.06-1.98,8.31" class="grey" /><path d="M21.21,82.74c5.32-0.5,19.63-1.67,27.08-2.14" class="grey" /><path d="M31.74,62.12c1.22,0.44,1.95,1.97,2.19,2.85C34.18,65.85,34.19,87,34.19,93" class="grey" /><path d="M16,95.73c0.76,0.4,2.21,0.9,2.97,0.8c0.76-0.1,19.95-4.52,26.61-5.82" class="grey" /><path d="M42.13,86.15c2.67,1.97,6.9,8.1,7.56,11.16" class="grey" /><path d="M56.37,71.11c0.43,0.26,0.75,0.91,0.83,1.25c0.59,2.49,1.65,7.36,2.47,12.08" class="grey" /><path d="M57.52,72.12c6.62-0.5,24.6-1.94,29.39-2.12c1.87-0.08,1.95,0.8,1.77,1.9c-0.43,2.57-0.69,4.06-1.98,8.31" class="grey" /><path d="M59.46,82.24c5.32-0.5,21.63-1.67,29.08-2.14" class="grey" /><path d="M69.99,62.62c1.22,0.44,1.95,1.97,2.19,2.85c0.24,0.87,0.26,22.03,0.26,28.03" class="grey" /><path d="M57.25,95.73c0.76,0.4,2.21,0.9,2.97,0.8c0.76-0.1,19.95-4.52,26.61-5.82" class="grey" /><path d="M83.63,86.15c3.46,2.24,8.95,9.18,9.81,12.66" class="grey" /><path d="M26.25,18.74c1.34,0.31,3.91,0.59,5.25,0.51c17.27-1.07,30.75-2,44.36-2.8c2.24-0.13,3.58,0.15,4.71,0.31" class="stroke" stroke-dasharray="150"><animate attributeName="stroke-dashoffset" from="150" to="0" dur="1.8s" begin="0.0s" fill="freeze" /></path><path d="M53.27,10.75c0.13,0.3,1.34,1.59,1.34,3.53c0,3.22,0.12,6.72,0.12,12.63" class="stroke" stroke-dasharray="150"><set attributeName="opacity" to="0" dur="1.3s" /><animate attributeName="stroke-dashoffset" from="150" to="0" dur="1.8s" begin="1.3s" fill="freeze" /></path><path d="M30.47,28.22c1.38,0.49,3.92,0.57,5.3,0.49C48,28,62.25,27,71.74,26.45c2.3-0.13,3.69-0.27,4.84-0.02" class="stroke" stroke-dasharray="150"><set attributeName="opacity" to="0" dur="2.2s" /><animate attributeName="stroke-dashoffset" from="150" to="0" dur="1.8s" begin="2.2s" fill="freeze" /></path><path d="M19.91,35.63c0,3.48-3.03,13.05-4.41,15.37" class="stroke" stroke-dasharray="150"><set attributeName="opacity" to="0" dur="3.4000000000000004s" /><animate attributeName="stroke-dashoffset" from="150" to="0" dur="1.8s" begin="3.4000000000000004s" fill="freeze" /></path><path d="M20.24,38.24c9.51-0.99,60.24-4.53,67.95-4.9c12.05-0.59,2.55,7.16-0.45,9.28" class="stroke" stroke-dasharray="150"><set attributeName="opacity" to="0" dur="4.300000000000001s" /><animate attributeName="stroke-dashoffset" from="150" to="0" dur="1.8s" begin="4.300000000000001s" fill="freeze" /></path><path d="M28.92,43.98c1.28,0.21,4.13,0.26,5.4,0.21c11.48-0.41,28.23-1.92,39.34-2.54c2.13-0.12,3.41,0.1,4.47,0.21" class="stroke" stroke-dasharray="150"><set attributeName="opacity" to="0" dur="6.000000000000001s" /><animate attributeName="stroke-dashoffset" from="150" to="0" dur="1.8s" begin="6.000000000000001s" fill="freeze" /></path><path d="M43.25,44.05c0.07,0.4,0.15,1.04-0.15,1.62c-1.77,3.43-11.43,10.45-25.34,15.06" class="stroke" stroke-dasharray="150"><set attributeName="opacity" to="0" dur="7.200000000000001s" /><animate attributeName="stroke-dashoffset" from="150" to="0" dur="1.8s" begin="7.200000000000001s" fill="freeze" /></path><path d="M40,51.08c0.35,0.21,0.8,1.08,0.87,1.36c0.48,2.04,1.35,5.95,2.02,9.81" class="stroke" stroke-dasharray="150"><set attributeName="opacity" to="0" dur="8.200000000000001s" /><animate attributeName="stroke-dashoffset" from="150" to="0" dur="1.8s" begin="8.200000000000001s" fill="freeze" /></path><path d="M41.36,51.85c5.35-0.41,28.33-2.77,31.99-2.84c1.51-0.03,1.77,1.06,1.6,1.67c-0.57,1.96-1.58,4.52-2.35,8" class="stroke" stroke-dasharray="150"><set attributeName="opacity" to="0" dur="9.100000000000001s" /><animate attributeName="stroke-dashoffset" from="150" to="0" dur="1.8s" begin="9.100000000000001s" fill="freeze" /></path><path d="M42.88,60.97c4.28-0.21,25.36-1.9,30.82-1.96" class="stroke" stroke-dasharray="150"><set attributeName="opacity" to="0" dur="10.200000000000001s" /><animate attributeName="stroke-dashoffset" from="150" to="0" dur="1.8s" begin="10.200000000000001s" fill="freeze" /></path><path d="M18.12,71.61c0.43,0.26,0.75,0.91,0.83,1.25c0.59,2.49,1.65,7.36,2.47,12.08" class="stroke" stroke-dasharray="150"><set attributeName="opacity" to="0" dur="11.200000000000001s" /><animate attributeName="stroke-dashoffset" from="150" to="0" dur="1.8s" begin="11.200000000000001s" fill="freeze" /></path><path d="M19.27,72.62c6.62-0.5,22.6-1.94,27.39-2.12c1.87-0.08,1.95,0.8,1.77,1.9c-0.43,2.57-0.69,4.06-1.98,8.31" class="stroke" stroke-dasharray="150"><set attributeName="opacity" to="0" dur="12.100000000000001s" /><animate attributeName="stroke-dashoffset" from="150" to="0" dur="1.8s" begin="12.100000000000001s" fill="freeze" /></path><path d="M21.21,82.74c5.32-0.5,19.63-1.67,27.08-2.14" class="stroke" stroke-dasharray="150"><set attributeName="opacity" to="0" dur="13.100000000000001s" /><animate attributeName="stroke-dashoffset" from="150" to="0" dur="1.8s" begin="13.100000000000001s" fill="freeze" /></path><path d="M31.74,62.12c1.22,0.44,1.95,1.97,2.19,2.85C34.18,65.85,34.19,87,34.19,93" class="stroke" stroke-dasharray="150"><set attributeName="opacity" to="0" dur="14.100000000000001s" /><animate attributeName="stroke-dashoffset" from="150" to="0" dur="1.8s" begin="14.100000000000001s" fill="freeze" /></path><path d="M16,95.73c0.76,0.4,2.21,0.9,2.97,0.8c0.76-0.1,19.95-4.52,26.61-5.82" class="stroke" stroke-dasharray="150"><set attributeName="opacity" to="0" dur="15.100000000000001s" /><animate attributeName="stroke-dashoffset" from="150" to="0" dur="1.8s" begin="15.100000000000001s" fill="freeze" /></path><path d="M42.13,86.15c2.67,1.97,6.9,8.1,7.56,11.16" class="stroke" stroke-dasharray="150"><set attributeName="opacity" to="0" dur="16.1s" /><animate attributeName="stroke-dashoffset" from="150" to="0" dur="1.8s" begin="16.1s" fill="freeze" /></path><path d="M56.37,71.11c0.43,0.26,0.75,0.91,0.83,1.25c0.59,2.49,1.65,7.36,2.47,12.08" class="stroke" stroke-dasharray="150"><set attributeName="opacity" to="0" dur="17.0s" /><animate attributeName="stroke-dashoffset" from="150" to="0" dur="1.8s" begin="17.0s" fill="freeze" /></path><path d="M57.52,72.12c6.62-0.5,24.6-1.94,29.39-2.12c1.87-0.08,1.95,0.8,1.77,1.9c-0.43,2.57-0.69,4.06-1.98,8.31" class="stroke" stroke-dasharray="150"><set attributeName="opacity" to="0" dur="17.9s" /><animate attributeName="stroke-dashoffset" from="150" to="0" dur="1.8s" begin="17.9s" fill="freeze" /></path><path d="M59.46,82.24c5.32-0.5,21.63-1.67,29.08-2.14" class="stroke" stroke-dasharray="150"><set attributeName="opacity" to="0" dur="19.0s" /><animate attributeName="stroke-dashoffset" from="150" to="0" dur="1.8s" begin="19.0s" fill="freeze" /></path><path d="M69.99,62.62c1.22,0.44,1.95,1.97,2.19,2.85c0.24,0.87,0.26,22.03,0.26,28.03" class="stroke" stroke-dasharray="150"><set attributeName="opacity" to="0" dur="20.0s" /><animate attributeName="stroke-dashoffset" from="150" to="0" dur="1.8s" begin="20.0s" fill="freeze" /></path><path d="M57.25,95.73c0.76,0.4,2.21,0.9,2.97,0.8c0.76-0.1,19.95-4.52,26.61-5.82" class="stroke" stroke-dasharray="150"><set attributeName="opacity" to="0" dur="21.0s" /><animate attributeName="stroke-dashoffset" from="150" to="0" dur="1.8s" begin="21.0s" fill="freeze" /></path><path d="M83.63,86.15c3.46,2.24,8.95,9.18,9.81,12.66" class="stroke" stroke-dasharray="150"><set attributeName="opacity" to="0" dur="22.0s" /><animate attributeName="stroke-dashoffset" from="150" to="0" dur="1.8s" begin="22.0s" fill="freeze" /></path><text x="90" y="120" id="reset-kvg-08827">⟳</text><text x="70" y="120" id="pause-kvg-08827">◼</text><script type="text/javascript"><![CDATA[function RecurringTimer(e,t){var n,r,i=t;this.pause=function(){window.clearTimeout(n);i-=new Date-r};var s=function(){r=new Date;n=window.setTimeout(function(){i=t;s();e()},i)};this.clear=function(){window.clearTimeout(n);i=t;n=window.setTimeout(function(){i=t;s();e()},i)};this.resume=s;this.resume()}function invoketimer(){timer=new RecurringTimer(function(){svg.setCurrentTime(0)},23900.0)}var svg=document.getElementById("kvg-08827");var pause=document.getElementById("pause-kvg-08827");var reset=document.getElementById("reset-kvg-08827");var timer;invoketimer();reset.onclick=function(){svg.setCurrentTime(0);timer.clear();svg.unpauseAnimations();pause.innerHTML = "◼";};pause.onclick=function(){if(svg.animationsPaused()){svg.unpauseAnimations();timer.resume();pause.innerHTML="◼"}else{svg.pauseAnimations();timer.pause();pause.innerHTML="▶"}}]]></script></svg>