<svg id="kvg-0887e" class="kanjivg" width="106" height="126" xmlns="http://www.w3.org/2000/svg" xmlns:xlink="http://www.w3.org/1999/xlink" xml:space="preserve" version="1.1" baseProfile="full"><defs><style type="text/css"><![CDATA[path.black{fill:none;stroke:black;stroke-width:5;stroke-linecap:round;stroke-linejoin:round;}path.grey{fill:none;stroke:#ddd;stroke-width:5;stroke-linecap:round;stroke-linejoin:round;}path.stroke{fill:none;stroke:black;stroke-width:5;stroke-linecap:round;stroke-linejoin:round;}rect{fill:none;stroke:#555;stroke-width:2;} text{font-size:16px;font-family:Segoe UI Symbol,Cambria Math,DejaVu Sans,Symbola,Quivira,STIX,Code2000;-webkit-touch-callout:none;cursor:pointer;-webkit-user-select:none;-khtml-user-select:none;-moz-user-select:none;-ms-user-select:none;user-select: none;}text:hover{color:#777;}#reset{font-weight:bold;}]]></style><marker id="markerStart" markerWidth="8" markerHeight="8" style="overflow:visible;"><circle cx="0" cy="0" r="1.5" style="stroke:none;fill:red;fill-opacity:0.5;"/></marker><marker id="markerEnd" style="overflow:visible;"><circle cx="0" cy="0" r="0.8" style="stroke:none;fill:blue;fill-opacity:0.5;"><animate attributeName="opacity" from="1" to="0" dur="3s" repeatCount="indefinite" /></circle></marker></defs><rect x="4" y="4" width="100" height="100" /><path d="M52.43,8.5c0.1,0.75,0.5,2.02-0.21,3.02c-4.86,6.97-14.88,19.12-34.97,28.93" class="grey" /><path d="M54.41,10.73c5.22,5.18,27.68,22.1,33.43,25.89c1.95,1.29,4.46,1.84,6.41,2.2" class="grey" /><path d="M42.73,31.9c0.38,0.13,2.71,0.14,3.1,0.13c3.97-0.15,13.8-1.99,17.71-1.98c0.63,0,3.29,0.06,3.61,0.13" class="grey" /><path d="M29.5,41.9c1.5,0.37,4.07,0.81,6.5,0.55c6.31-0.67,26.75-2.48,33.49-3.33c3.99-0.51,4.98,1.13,3.01,4.15c-3.25,4.98-5.25,8.48-8.25,12.73" class="grey" /><path d="M52.1,50.75c0.8,0.43,2.13,1.94,2.13,2.94c0,1.65-0.11,7.42-0.11,9.23" class="grey" /><path d="M19.5,65.25c2.25,0.5,4.64,0.4,6.02,0.33c15.35-0.7,43.13-4.67,58.24-4.85c2.33-0.03,3.52,0.03,5.26,0.43" class="grey" /><path d="M45.92,66.66c0.09,0.46,0.36,1.22-0.18,1.84c-3.48,4.01-17.5,14-32.19,17.64" class="grey" /><path d="M39.22,78.17c0.45,0.31,0.94,1.62,0.94,2.16c-0.03,6.85-0.3,15.67-0.3,16.83c0,1.16,1.11,1.82,2.52,0.95C43.78,97.24,53.5,90,61.21,85.87" class="grey" /><path d="M74.52,67.12c0.02,0.21,0.26,0.99,0.11,1.26c-0.91,1.69-3.74,4.11-8.35,7.47" class="grey" /><path d="M53.04,68.83c1.96,0.17,5.28,2.65,5.73,3c6.72,5.19,20.73,17.42,26.59,20.51c1.82,0.96,4.17,2.65,5.88,2.98" class="grey" /><path d="M52.43,8.5c0.1,0.75,0.5,2.02-0.21,3.02c-4.86,6.97-14.88,19.12-34.97,28.93" class="stroke" stroke-dasharray="150"><animate attributeName="stroke-dashoffset" from="150" to="0" dur="1.8s" begin="0.0s" fill="freeze" /></path><path d="M54.41,10.73c5.22,5.18,27.68,22.1,33.43,25.89c1.95,1.29,4.46,1.84,6.41,2.2" class="stroke" stroke-dasharray="150"><set attributeName="opacity" to="0" dur="1.2s" /><animate attributeName="stroke-dashoffset" from="150" to="0" dur="1.8s" begin="1.2s" fill="freeze" /></path><path d="M42.73,31.9c0.38,0.13,2.71,0.14,3.1,0.13c3.97-0.15,13.8-1.99,17.71-1.98c0.63,0,3.29,0.06,3.61,0.13" class="stroke" stroke-dasharray="150"><set attributeName="opacity" to="0" dur="2.4s" /><animate attributeName="stroke-dashoffset" from="150" to="0" dur="1.8s" begin="2.4s" fill="freeze" /></path><path d="M29.5,41.9c1.5,0.37,4.07,0.81,6.5,0.55c6.31-0.67,26.75-2.48,33.49-3.33c3.99-0.51,4.98,1.13,3.01,4.15c-3.25,4.98-5.25,8.48-8.25,12.73" class="stroke" stroke-dasharray="150"><set attributeName="opacity" to="0" dur="3.4s" /><animate attributeName="stroke-dashoffset" from="150" to="0" dur="1.8s" begin="3.4s" fill="freeze" /></path><path d="M52.1,50.75c0.8,0.43,2.13,1.94,2.13,2.94c0,1.65-0.11,7.42-0.11,9.23" class="stroke" stroke-dasharray="150"><set attributeName="opacity" to="0" dur="4.9s" /><animate attributeName="stroke-dashoffset" from="150" to="0" dur="1.8s" begin="4.9s" fill="freeze" /></path><path d="M19.5,65.25c2.25,0.5,4.64,0.4,6.02,0.33c15.35-0.7,43.13-4.67,58.24-4.85c2.33-0.03,3.52,0.03,5.26,0.43" class="stroke" stroke-dasharray="150"><set attributeName="opacity" to="0" dur="5.800000000000001s" /><animate attributeName="stroke-dashoffset" from="150" to="0" dur="1.8s" begin="5.800000000000001s" fill="freeze" /></path><path d="M45.92,66.66c0.09,0.46,0.36,1.22-0.18,1.84c-3.48,4.01-17.5,14-32.19,17.64" class="stroke" stroke-dasharray="150"><set attributeName="opacity" to="0" dur="7.300000000000001s" /><animate attributeName="stroke-dashoffset" from="150" to="0" dur="1.8s" begin="7.300000000000001s" fill="freeze" /></path><path d="M39.22,78.17c0.45,0.31,0.94,1.62,0.94,2.16c-0.03,6.85-0.3,15.67-0.3,16.83c0,1.16,1.11,1.82,2.52,0.95C43.78,97.24,53.5,90,61.21,85.87" class="stroke" stroke-dasharray="150"><set attributeName="opacity" to="0" dur="8.3s" /><animate attributeName="stroke-dashoffset" from="150" to="0" dur="1.8s" begin="8.3s" fill="freeze" /></path><path d="M74.52,67.12c0.02,0.21,0.26,0.99,0.11,1.26c-0.91,1.69-3.74,4.11-8.35,7.47" class="stroke" stroke-dasharray="150"><set attributeName="opacity" to="0" dur="9.5s" /><animate attributeName="stroke-dashoffset" from="150" to="0" dur="1.8s" begin="9.5s" fill="freeze" /></path><path d="M53.04,68.83c1.96,0.17,5.28,2.65,5.73,3c6.72,5.19,20.73,17.42,26.59,20.51c1.82,0.96,4.17,2.65,5.88,2.98" class="stroke" stroke-dasharray="150"><set attributeName="opacity" to="0" dur="10.4s" /><animate attributeName="stroke-dashoffset" from="150" to="0" dur="1.8s" begin="10.4s" fill="freeze" /></path><text x="90" y="120" id="reset-kvg-0887e">⟳</text><text x="70" y="120" id="pause-kvg-0887e">◼</text><script type="text/javascript"><![CDATA[function RecurringTimer(e,t){var n,r,i=t;this.pause=function(){window.clearTimeout(n);i-=new Date-r};var s=function(){r=new Date;n=window.setTimeout(function(){i=t;s();e()},i)};this.clear=function(){window.clearTimeout(n);i=t;n=window.setTimeout(function(){i=t;s();e()},i)};this.resume=s;this.resume()}function invoketimer(){timer=new RecurringTimer(function(){svg.setCurrentTime(0)},12600.0)}var svg=document.getElementById("kvg-0887e");var pause=document.getElementById("pause-kvg-0887e");var reset=document.getElementById("reset-kvg-0887e");var timer;invoketimer();reset.onclick=function(){svg.setCurrentTime(0);timer.clear();svg.unpauseAnimations();pause.innerHTML = "◼";};pause.onclick=function(){if(svg.animationsPaused()){svg.unpauseAnimations();timer.resume();pause.innerHTML="◼"}else{svg.pauseAnimations();timer.pause();pause.innerHTML="▶"}}]]></script></svg>