<svg id="kvg-08896" class="kanjivg" width="106" height="126" xmlns="http://www.w3.org/2000/svg" xmlns:xlink="http://www.w3.org/1999/xlink" xml:space="preserve" version="1.1" baseProfile="full"><defs><style type="text/css"><![CDATA[path.black{fill:none;stroke:black;stroke-width:5;stroke-linecap:round;stroke-linejoin:round;}path.grey{fill:none;stroke:#ddd;stroke-width:5;stroke-linecap:round;stroke-linejoin:round;}path.stroke{fill:none;stroke:black;stroke-width:5;stroke-linecap:round;stroke-linejoin:round;}rect{fill:none;stroke:#555;stroke-width:2;} text{font-size:16px;font-family:Segoe UI Symbol,Cambria Math,DejaVu Sans,Symbola,Quivira,STIX,Code2000;-webkit-touch-callout:none;cursor:pointer;-webkit-user-select:none;-khtml-user-select:none;-moz-user-select:none;-ms-user-select:none;user-select: none;}text:hover{color:#777;}#reset{font-weight:bold;}]]></style><marker id="markerStart" markerWidth="8" markerHeight="8" style="overflow:visible;"><circle cx="0" cy="0" r="1.5" style="stroke:none;fill:red;fill-opacity:0.5;"/></marker><marker id="markerEnd" style="overflow:visible;"><circle cx="0" cy="0" r="0.8" style="stroke:none;fill:blue;fill-opacity:0.5;"><animate attributeName="opacity" from="1" to="0" dur="3s" repeatCount="indefinite" /></circle></marker></defs><rect x="4" y="4" width="100" height="100" /><path d="M23.83,16.5c3.42,2.59,7.07,6.22,10,10.75" class="grey" /><path d="M13.2,39.86c2.56,0.86,5.01,0.55,7.62-0.12c5.81-1.49,15.04-4.02,16.79-4.51c3.39-0.96,4.06,1.62,2.69,3.71C32.6,50.62,22.75,64,11.5,74" class="grey" /><path d="M30,56.11c0.88,0.88,1.27,2.01,1.27,3.64c0,6.56,0.03,21.2,0.05,29.75c0.01,3.12,0.01,5.43,0.01,6.25" class="grey" /><path d="M43.08,51.39c0,0.74-0.13,1.37-0.46,1.98c-1,1.88-1.7,3.8-3.17,5.63" class="grey" /><path d="M35.08,60c3.5,2.18,6,4.19,9,8" class="grey" /><path d="M50.5,47.33c1.02,1.02,1.38,2.12,1.5,3.15c1.2,10.31,2.32,20.21,3.68,33.01c0.34,3.21,0.7,6.6,1.08,10.22" class="grey" /><path d="M52.52,49.6c14.83-1.89,28.85-3.48,37.48-4.34c4.04-0.4,5.43,1.79,5.13,5.5c-0.7,8.82-2.13,26.37-4.12,40.07" class="grey" /><path d="M70.86,15.86c1.33,1.33,1.85,2.77,1.85,4.1c0,14.16-0.04,64.55-0.04,68.58" class="grey" /><path d="M55.04,68.87c13.09-1.74,23.84-2.49,37.97-3.53" class="grey" /><path d="M57.36,90.61c13.52-0.98,21.68-1.8,33-2.02" class="grey" /><path d="M23.83,16.5c3.42,2.59,7.07,6.22,10,10.75" class="stroke" stroke-dasharray="150"><animate attributeName="stroke-dashoffset" from="150" to="0" dur="1.8s" begin="0.0s" fill="freeze" /></path><path d="M13.2,39.86c2.56,0.86,5.01,0.55,7.62-0.12c5.81-1.49,15.04-4.02,16.79-4.51c3.39-0.96,4.06,1.62,2.69,3.71C32.6,50.62,22.75,64,11.5,74" class="stroke" stroke-dasharray="150"><set attributeName="opacity" to="0" dur="0.9s" /><animate attributeName="stroke-dashoffset" from="150" to="0" dur="1.8s" begin="0.9s" fill="freeze" /></path><path d="M30,56.11c0.88,0.88,1.27,2.01,1.27,3.64c0,6.56,0.03,21.2,0.05,29.75c0.01,3.12,0.01,5.43,0.01,6.25" class="stroke" stroke-dasharray="150"><set attributeName="opacity" to="0" dur="2.6s" /><animate attributeName="stroke-dashoffset" from="150" to="0" dur="1.8s" begin="2.6s" fill="freeze" /></path><path d="M43.08,51.39c0,0.74-0.13,1.37-0.46,1.98c-1,1.88-1.7,3.8-3.17,5.63" class="stroke" stroke-dasharray="150"><set attributeName="opacity" to="0" dur="3.6s" /><animate attributeName="stroke-dashoffset" from="150" to="0" dur="1.8s" begin="3.6s" fill="freeze" /></path><path d="M35.08,60c3.5,2.18,6,4.19,9,8" class="stroke" stroke-dasharray="150"><set attributeName="opacity" to="0" dur="4.5s" /><animate attributeName="stroke-dashoffset" from="150" to="0" dur="1.8s" begin="4.5s" fill="freeze" /></path><path d="M50.5,47.33c1.02,1.02,1.38,2.12,1.5,3.15c1.2,10.31,2.32,20.21,3.68,33.01c0.34,3.21,0.7,6.6,1.08,10.22" class="stroke" stroke-dasharray="150"><set attributeName="opacity" to="0" dur="5.4s" /><animate attributeName="stroke-dashoffset" from="150" to="0" dur="1.8s" begin="5.4s" fill="freeze" /></path><path d="M52.52,49.6c14.83-1.89,28.85-3.48,37.48-4.34c4.04-0.4,5.43,1.79,5.13,5.5c-0.7,8.82-2.13,26.37-4.12,40.07" class="stroke" stroke-dasharray="150"><set attributeName="opacity" to="0" dur="6.6000000000000005s" /><animate attributeName="stroke-dashoffset" from="150" to="0" dur="1.8s" begin="6.6000000000000005s" fill="freeze" /></path><path d="M70.86,15.86c1.33,1.33,1.85,2.77,1.85,4.1c0,14.16-0.04,64.55-0.04,68.58" class="stroke" stroke-dasharray="150"><set attributeName="opacity" to="0" dur="8.3s" /><animate attributeName="stroke-dashoffset" from="150" to="0" dur="1.8s" begin="8.3s" fill="freeze" /></path><path d="M55.04,68.87c13.09-1.74,23.84-2.49,37.97-3.53" class="stroke" stroke-dasharray="150"><set attributeName="opacity" to="0" dur="10.0s" /><animate attributeName="stroke-dashoffset" from="150" to="0" dur="1.8s" begin="10.0s" fill="freeze" /></path><path d="M57.36,90.61c13.52-0.98,21.68-1.8,33-2.02" class="stroke" stroke-dasharray="150"><set attributeName="opacity" to="0" dur="11.0s" /><animate attributeName="stroke-dashoffset" from="150" to="0" dur="1.8s" begin="11.0s" fill="freeze" /></path><text x="90" y="120" id="reset-kvg-08896">⟳</text><text x="70" y="120" id="pause-kvg-08896">◼</text><script type="text/javascript"><![CDATA[function RecurringTimer(e,t){var n,r,i=t;this.pause=function(){window.clearTimeout(n);i-=new Date-r};var s=function(){r=new Date;n=window.setTimeout(function(){i=t;s();e()},i)};this.clear=function(){window.clearTimeout(n);i=t;n=window.setTimeout(function(){i=t;s();e()},i)};this.resume=s;this.resume()}function invoketimer(){timer=new RecurringTimer(function(){svg.setCurrentTime(0)},13000.0)}var svg=document.getElementById("kvg-08896");var pause=document.getElementById("pause-kvg-08896");var reset=document.getElementById("reset-kvg-08896");var timer;invoketimer();reset.onclick=function(){svg.setCurrentTime(0);timer.clear();svg.unpauseAnimations();pause.innerHTML = "◼";};pause.onclick=function(){if(svg.animationsPaused()){svg.unpauseAnimations();timer.resume();pause.innerHTML="◼"}else{svg.pauseAnimations();timer.pause();pause.innerHTML="▶"}}]]></script></svg>