<svg id="kvg-088bf" class="kanjivg" width="106" height="126" xmlns="http://www.w3.org/2000/svg" xmlns:xlink="http://www.w3.org/1999/xlink" xml:space="preserve" version="1.1" baseProfile="full"><defs><style type="text/css"><![CDATA[path.black{fill:none;stroke:black;stroke-width:5;stroke-linecap:round;stroke-linejoin:round;}path.grey{fill:none;stroke:#ddd;stroke-width:5;stroke-linecap:round;stroke-linejoin:round;}path.stroke{fill:none;stroke:black;stroke-width:5;stroke-linecap:round;stroke-linejoin:round;}rect{fill:none;stroke:#555;stroke-width:2;} text{font-size:16px;font-family:Segoe UI Symbol,Cambria Math,DejaVu Sans,Symbola,Quivira,STIX,Code2000;-webkit-touch-callout:none;cursor:pointer;-webkit-user-select:none;-khtml-user-select:none;-moz-user-select:none;-ms-user-select:none;user-select: none;}text:hover{color:#777;}#reset{font-weight:bold;}]]></style><marker id="markerStart" markerWidth="8" markerHeight="8" style="overflow:visible;"><circle cx="0" cy="0" r="1.5" style="stroke:none;fill:red;fill-opacity:0.5;"/></marker><marker id="markerEnd" style="overflow:visible;"><circle cx="0" cy="0" r="0.8" style="stroke:none;fill:blue;fill-opacity:0.5;"><animate attributeName="opacity" from="1" to="0" dur="3s" repeatCount="indefinite" /></circle></marker></defs><rect x="4" y="4" width="100" height="100" /><path d="M19.83,13.75c3.59,2.35,7.43,5.88,10.5,10" class="grey" /><path d="M11.7,35.86c0.94,0.39,3.36,0.83,4.96,0.61C20,36,32.52,31.63,34.85,30.97c2.33-0.66,4.08,1.33,2.76,3.35C29.86,46.15,21.4,60.52,10,69.5" class="grey" /><path d="M26.5,51.61c0.12,0.29,1.65,1.53,1.77,3.39c0.57,8.93,0.06,39.7,0.06,42.75" class="grey" /><path d="M40.29,45.89c0.17,0.95,0.33,1.21,0,1.9c-1,2.09-4.09,7.23-6.09,9.71" class="grey" /><path d="M30.33,58.75c3.5,2.65,7.25,6.62,10.25,11.25" class="grey" /><path d="M52.05,29.24c0.95,0.48,2.71,0.63,3.66,0.48c11.04-1.72,21.04-2.97,32-4.3c1.58-0.19,2.55,0.23,3.34,0.47" class="grey" /><path d="M66.95,11.37c0.13,0.32,1.91,1.65,1.91,3.66c0,12.97,0.15,12.71,0.15,29.86" class="grey" /><path d="M45.7,46.15c1.44,0.51,3.08,0.58,4.53,0.51C58.75,46.25,81,44,90.45,43.63c2.4-0.09,3.33,0.24,4.55,0.5" class="grey" /><path d="M48.82,71.46c0.98,0.38,2.76,0.45,3.74,0.38c14.59-0.99,25.11-2.86,36.03-3.15c1.62-0.04,2.6,0.18,3.41,0.37" class="grey" /><path d="M68.1,52.32c0.12,0.28,1.68,1.45,1.68,3.22c0,11.39,0.13,22.64,0.13,37.7" class="grey" /><path d="M41.05,95.52c1.67,0.61,3.57,0.75,5.24,0.61c20.65-1.71,28.18-2.71,46.65-3.52c2.78-0.12,3.87,0.29,5.26,0.6" class="grey" /><path d="M19.83,13.75c3.59,2.35,7.43,5.88,10.5,10" class="stroke" stroke-dasharray="150"><animate attributeName="stroke-dashoffset" from="150" to="0" dur="1.8s" begin="0.0s" fill="freeze" /></path><path d="M11.7,35.86c0.94,0.39,3.36,0.83,4.96,0.61C20,36,32.52,31.63,34.85,30.97c2.33-0.66,4.08,1.33,2.76,3.35C29.86,46.15,21.4,60.52,10,69.5" class="stroke" stroke-dasharray="150"><set attributeName="opacity" to="0" dur="0.9s" /><animate attributeName="stroke-dashoffset" from="150" to="0" dur="1.8s" begin="0.9s" fill="freeze" /></path><path d="M26.5,51.61c0.12,0.29,1.65,1.53,1.77,3.39c0.57,8.93,0.06,39.7,0.06,42.75" class="stroke" stroke-dasharray="150"><set attributeName="opacity" to="0" dur="2.6s" /><animate attributeName="stroke-dashoffset" from="150" to="0" dur="1.8s" begin="2.6s" fill="freeze" /></path><path d="M40.29,45.89c0.17,0.95,0.33,1.21,0,1.9c-1,2.09-4.09,7.23-6.09,9.71" class="stroke" stroke-dasharray="150"><set attributeName="opacity" to="0" dur="3.8s" /><animate attributeName="stroke-dashoffset" from="150" to="0" dur="1.8s" begin="3.8s" fill="freeze" /></path><path d="M30.33,58.75c3.5,2.65,7.25,6.62,10.25,11.25" class="stroke" stroke-dasharray="150"><set attributeName="opacity" to="0" dur="4.7s" /><animate attributeName="stroke-dashoffset" from="150" to="0" dur="1.8s" begin="4.7s" fill="freeze" /></path><path d="M52.05,29.24c0.95,0.48,2.71,0.63,3.66,0.48c11.04-1.72,21.04-2.97,32-4.3c1.58-0.19,2.55,0.23,3.34,0.47" class="stroke" stroke-dasharray="150"><set attributeName="opacity" to="0" dur="5.6000000000000005s" /><animate attributeName="stroke-dashoffset" from="150" to="0" dur="1.8s" begin="5.6000000000000005s" fill="freeze" /></path><path d="M66.95,11.37c0.13,0.32,1.91,1.65,1.91,3.66c0,12.97,0.15,12.71,0.15,29.86" class="stroke" stroke-dasharray="150"><set attributeName="opacity" to="0" dur="6.6000000000000005s" /><animate attributeName="stroke-dashoffset" from="150" to="0" dur="1.8s" begin="6.6000000000000005s" fill="freeze" /></path><path d="M45.7,46.15c1.44,0.51,3.08,0.58,4.53,0.51C58.75,46.25,81,44,90.45,43.63c2.4-0.09,3.33,0.24,4.55,0.5" class="stroke" stroke-dasharray="150"><set attributeName="opacity" to="0" dur="7.6000000000000005s" /><animate attributeName="stroke-dashoffset" from="150" to="0" dur="1.8s" begin="7.6000000000000005s" fill="freeze" /></path><path d="M48.82,71.46c0.98,0.38,2.76,0.45,3.74,0.38c14.59-0.99,25.11-2.86,36.03-3.15c1.62-0.04,2.6,0.18,3.41,0.37" class="stroke" stroke-dasharray="150"><set attributeName="opacity" to="0" dur="8.8s" /><animate attributeName="stroke-dashoffset" from="150" to="0" dur="1.8s" begin="8.8s" fill="freeze" /></path><path d="M68.1,52.32c0.12,0.28,1.68,1.45,1.68,3.22c0,11.39,0.13,22.64,0.13,37.7" class="stroke" stroke-dasharray="150"><set attributeName="opacity" to="0" dur="9.9s" /><animate attributeName="stroke-dashoffset" from="150" to="0" dur="1.8s" begin="9.9s" fill="freeze" /></path><path d="M41.05,95.52c1.67,0.61,3.57,0.75,5.24,0.61c20.65-1.71,28.18-2.71,46.65-3.52c2.78-0.12,3.87,0.29,5.26,0.6" class="stroke" stroke-dasharray="150"><set attributeName="opacity" to="0" dur="11.0s" /><animate attributeName="stroke-dashoffset" from="150" to="0" dur="1.8s" begin="11.0s" fill="freeze" /></path><text x="90" y="120" id="reset-kvg-088bf">⟳</text><text x="70" y="120" id="pause-kvg-088bf">◼</text><script type="text/javascript"><![CDATA[function RecurringTimer(e,t){var n,r,i=t;this.pause=function(){window.clearTimeout(n);i-=new Date-r};var s=function(){r=new Date;n=window.setTimeout(function(){i=t;s();e()},i)};this.clear=function(){window.clearTimeout(n);i=t;n=window.setTimeout(function(){i=t;s();e()},i)};this.resume=s;this.resume()}function invoketimer(){timer=new RecurringTimer(function(){svg.setCurrentTime(0)},13400.0)}var svg=document.getElementById("kvg-088bf");var pause=document.getElementById("pause-kvg-088bf");var reset=document.getElementById("reset-kvg-088bf");var timer;invoketimer();reset.onclick=function(){svg.setCurrentTime(0);timer.clear();svg.unpauseAnimations();pause.innerHTML = "◼";};pause.onclick=function(){if(svg.animationsPaused()){svg.unpauseAnimations();timer.resume();pause.innerHTML="◼"}else{svg.pauseAnimations();timer.pause();pause.innerHTML="▶"}}]]></script></svg>