<svg id="kvg-088f8-Kaisho" class="kanjivg" width="106" height="126" xmlns="http://www.w3.org/2000/svg" xmlns:xlink="http://www.w3.org/1999/xlink" xml:space="preserve" version="1.1" baseProfile="full"><defs><style type="text/css"><![CDATA[path.black{fill:none;stroke:black;stroke-width:5;stroke-linecap:round;stroke-linejoin:round;}path.grey{fill:none;stroke:#ddd;stroke-width:5;stroke-linecap:round;stroke-linejoin:round;}path.stroke{fill:none;stroke:black;stroke-width:5;stroke-linecap:round;stroke-linejoin:round;}rect{fill:none;stroke:#555;stroke-width:2;} text{font-size:16px;font-family:Segoe UI Symbol,Cambria Math,DejaVu Sans,Symbola,Quivira,STIX,Code2000;-webkit-touch-callout:none;cursor:pointer;-webkit-user-select:none;-khtml-user-select:none;-moz-user-select:none;-ms-user-select:none;user-select: none;}text:hover{color:#777;}#reset{font-weight:bold;}]]></style><marker id="markerStart" markerWidth="8" markerHeight="8" style="overflow:visible;"><circle cx="0" cy="0" r="1.5" style="stroke:none;fill:red;fill-opacity:0.5;"/></marker><marker id="markerEnd" style="overflow:visible;"><circle cx="0" cy="0" r="0.8" style="stroke:none;fill:blue;fill-opacity:0.5;"><animate attributeName="opacity" from="1" to="0" dur="3s" repeatCount="indefinite" /></circle></marker></defs><rect x="4" y="4" width="100" height="100" /><path d="M23.08,13.25c2.73,2.18,5.66,5.44,8,9.25" class="grey" /><path d="M11.45,34.11c0.94,0.39,2.41,1.05,3.96,0.61c1.9-0.54,19.37-5.33,21.69-5.99c2.33-0.66,3.58,0.83,2.26,2.85C31.61,43.4,21.5,58,9.75,69.25" class="grey" /><path d="M27.25,50.86c0.12,0.29,1.65,1.53,1.77,3.39c0.57,8.93,0.06,38.2,0.06,41.25" class="grey" /><path d="M41.53,45.64c0.17,0.83,0.34,1.05,0,1.66c-1.04,1.82-4.25,6.3-6.33,8.45" class="grey" /><path d="M32.08,57.25c2.99,2.24,6.19,5.59,8.75,9.5" class="grey" /><path d="M47.01,14.19c0.6,0.66,1.45,1.44,1.45,2.32c0,0.88,3.46,24.23,3.46,24.67s0.11,0.44,0.21,1.32" class="grey" /><path d="M48.58,15.64c1.79-0.11,36.32-2.65,37.96-2.64c2.15,0.01,3.05,2.56,2.95,3.21c-0.21,1.32-5.22,22.59-5.22,23.25" class="grey" /><path d="M50.12,28.02c8,0,16.21-1.46,24.16-2.23c1-0.1,1.97-0.19,2.89-0.28" class="grey" /><path d="M52.86,40.47c4.94-0.47,24.91-2.18,31.06-2.59" class="grey" /><path d="M43.85,53.97c0.53,0.18,1.94,0.47,3.35,0.53c3.87,0.18,34.3-3.4,45.57-3.75c1.41-0.04,1.76,0.18,2.64,0.35" class="grey" /><path d="M65.48,16c0.91,0.5,1.46,2.25,1.64,3.25c0.18,1-0.18,70.74-0.18,72c0,11.75-4.93,2.5-6.18,1.25" class="grey" /><path d="M66.11,54c-4.91,10.9-17.66,26.33-27.86,32.5" class="grey" /><path d="M67.11,53.5c3.87,4.12,20.85,23.6,25.06,27.65c1.42,1.37,2.65,1.96,4.07,2.35" class="grey" /><path d="M23.08,13.25c2.73,2.18,5.66,5.44,8,9.25" class="stroke" stroke-dasharray="150"><animate attributeName="stroke-dashoffset" from="150" to="0" dur="1.8s" begin="0.0s" fill="freeze" /></path><path d="M11.45,34.11c0.94,0.39,2.41,1.05,3.96,0.61c1.9-0.54,19.37-5.33,21.69-5.99c2.33-0.66,3.58,0.83,2.26,2.85C31.61,43.4,21.5,58,9.75,69.25" class="stroke" stroke-dasharray="150"><set attributeName="opacity" to="0" dur="0.9s" /><animate attributeName="stroke-dashoffset" from="150" to="0" dur="1.8s" begin="0.9s" fill="freeze" /></path><path d="M27.25,50.86c0.12,0.29,1.65,1.53,1.77,3.39c0.57,8.93,0.06,38.2,0.06,41.25" class="stroke" stroke-dasharray="150"><set attributeName="opacity" to="0" dur="2.6s" /><animate attributeName="stroke-dashoffset" from="150" to="0" dur="1.8s" begin="2.6s" fill="freeze" /></path><path d="M41.53,45.64c0.17,0.83,0.34,1.05,0,1.66c-1.04,1.82-4.25,6.3-6.33,8.45" class="stroke" stroke-dasharray="150"><set attributeName="opacity" to="0" dur="3.8s" /><animate attributeName="stroke-dashoffset" from="150" to="0" dur="1.8s" begin="3.8s" fill="freeze" /></path><path d="M32.08,57.25c2.99,2.24,6.19,5.59,8.75,9.5" class="stroke" stroke-dasharray="150"><set attributeName="opacity" to="0" dur="4.7s" /><animate attributeName="stroke-dashoffset" from="150" to="0" dur="1.8s" begin="4.7s" fill="freeze" /></path><path d="M47.01,14.19c0.6,0.66,1.45,1.44,1.45,2.32c0,0.88,3.46,24.23,3.46,24.67s0.11,0.44,0.21,1.32" class="stroke" stroke-dasharray="150"><set attributeName="opacity" to="0" dur="5.6000000000000005s" /><animate attributeName="stroke-dashoffset" from="150" to="0" dur="1.8s" begin="5.6000000000000005s" fill="freeze" /></path><path d="M48.58,15.64c1.79-0.11,36.32-2.65,37.96-2.64c2.15,0.01,3.05,2.56,2.95,3.21c-0.21,1.32-5.22,22.59-5.22,23.25" class="stroke" stroke-dasharray="150"><set attributeName="opacity" to="0" dur="6.6000000000000005s" /><animate attributeName="stroke-dashoffset" from="150" to="0" dur="1.8s" begin="6.6000000000000005s" fill="freeze" /></path><path d="M50.12,28.02c8,0,16.21-1.46,24.16-2.23c1-0.1,1.97-0.19,2.89-0.28" class="stroke" stroke-dasharray="150"><set attributeName="opacity" to="0" dur="8.100000000000001s" /><animate attributeName="stroke-dashoffset" from="150" to="0" dur="1.8s" begin="8.100000000000001s" fill="freeze" /></path><path d="M52.86,40.47c4.94-0.47,24.91-2.18,31.06-2.59" class="stroke" stroke-dasharray="150"><set attributeName="opacity" to="0" dur="9.100000000000001s" /><animate attributeName="stroke-dashoffset" from="150" to="0" dur="1.8s" begin="9.100000000000001s" fill="freeze" /></path><path d="M43.85,53.97c0.53,0.18,1.94,0.47,3.35,0.53c3.87,0.18,34.3-3.4,45.57-3.75c1.41-0.04,1.76,0.18,2.64,0.35" class="stroke" stroke-dasharray="150"><set attributeName="opacity" to="0" dur="10.100000000000001s" /><animate attributeName="stroke-dashoffset" from="150" to="0" dur="1.8s" begin="10.100000000000001s" fill="freeze" /></path><path d="M65.48,16c0.91,0.5,1.46,2.25,1.64,3.25c0.18,1-0.18,70.74-0.18,72c0,11.75-4.93,2.5-6.18,1.25" class="stroke" stroke-dasharray="150"><set attributeName="opacity" to="0" dur="11.400000000000002s" /><animate attributeName="stroke-dashoffset" from="150" to="0" dur="1.8s" begin="11.400000000000002s" fill="freeze" /></path><path d="M66.11,54c-4.91,10.9-17.66,26.33-27.86,32.5" class="stroke" stroke-dasharray="150"><set attributeName="opacity" to="0" dur="13.100000000000001s" /><animate attributeName="stroke-dashoffset" from="150" to="0" dur="1.8s" begin="13.100000000000001s" fill="freeze" /></path><path d="M67.11,53.5c3.87,4.12,20.85,23.6,25.06,27.65c1.42,1.37,2.65,1.96,4.07,2.35" class="stroke" stroke-dasharray="150"><set attributeName="opacity" to="0" dur="14.200000000000001s" /><animate attributeName="stroke-dashoffset" from="150" to="0" dur="1.8s" begin="14.200000000000001s" fill="freeze" /></path><text x="90" y="120" id="reset-kvg-088f8-Kaisho">⟳</text><text x="70" y="120" id="pause-kvg-088f8-Kaisho">◼</text><script type="text/javascript"><![CDATA[function RecurringTimer(e,t){var n,r,i=t;this.pause=function(){window.clearTimeout(n);i-=new Date-r};var s=function(){r=new Date;n=window.setTimeout(function(){i=t;s();e()},i)};this.clear=function(){window.clearTimeout(n);i=t;n=window.setTimeout(function(){i=t;s();e()},i)};this.resume=s;this.resume()}function invoketimer(){timer=new RecurringTimer(function(){svg.setCurrentTime(0)},16300.0)}var svg=document.getElementById("kvg-088f8-Kaisho");var pause=document.getElementById("pause-kvg-088f8-Kaisho");var reset=document.getElementById("reset-kvg-088f8-Kaisho");var timer;invoketimer();reset.onclick=function(){svg.setCurrentTime(0);timer.clear();svg.unpauseAnimations();pause.innerHTML = "◼";};pause.onclick=function(){if(svg.animationsPaused()){svg.unpauseAnimations();timer.resume();pause.innerHTML="◼"}else{svg.pauseAnimations();timer.pause();pause.innerHTML="▶"}}]]></script></svg>