<svg id="kvg-089f4-Kaisho" class="kanjivg" width="106" height="126" xmlns="http://www.w3.org/2000/svg" xmlns:xlink="http://www.w3.org/1999/xlink" xml:space="preserve" version="1.1" baseProfile="full"><defs><style type="text/css"><![CDATA[path.black{fill:none;stroke:black;stroke-width:5;stroke-linecap:round;stroke-linejoin:round;}path.grey{fill:none;stroke:#ddd;stroke-width:5;stroke-linecap:round;stroke-linejoin:round;}path.stroke{fill:none;stroke:black;stroke-width:5;stroke-linecap:round;stroke-linejoin:round;}rect{fill:none;stroke:#555;stroke-width:2;} text{font-size:16px;font-family:Segoe UI Symbol,Cambria Math,DejaVu Sans,Symbola,Quivira,STIX,Code2000;-webkit-touch-callout:none;cursor:pointer;-webkit-user-select:none;-khtml-user-select:none;-moz-user-select:none;-ms-user-select:none;user-select: none;}text:hover{color:#777;}#reset{font-weight:bold;}]]></style><marker id="markerStart" markerWidth="8" markerHeight="8" style="overflow:visible;"><circle cx="0" cy="0" r="1.5" style="stroke:none;fill:red;fill-opacity:0.5;"/></marker><marker id="markerEnd" style="overflow:visible;"><circle cx="0" cy="0" r="0.8" style="stroke:none;fill:blue;fill-opacity:0.5;"><animate attributeName="opacity" from="1" to="0" dur="3s" repeatCount="indefinite" /></circle></marker></defs><rect x="4" y="4" width="100" height="100" /><path d="M30.23,12.5c0.04,0.49,0.24,1.32-0.08,1.96c-2.4,4.79-8.65,14.29-16.65,21.79" class="grey" /><path d="M26.89,20c2,0,10.61-1.25,14.32-2.25c2.16-0.58,3.29,1.14,2,2.75c-4.21,5.25-5.99,7.25-9.15,13" class="grey" /><path d="M19.93,35.69c0.7,0.74,1.39,2.82,1.4,3.6c0.02,1.9-0.5,23.69-0.64,25.35c-0.87,10.72-2.84,20.6-8.73,27.25" class="grey" /><path d="M22.29,37.08c2.05-0.17,17.58-2.56,19.11-2.75c2.73-0.34,3.76,2.22,3.42,3.25c-0.33,0.99-0.51,37.77-0.51,51.63c0,9.95-5.1,1.77-6.99,0.33" class="grey" /><path d="M31.61,36.81c0.04,0.2,0.56,1.02,0.6,2.27c0.19,5.99-0.12,24.52-0.12,26.56" class="grey" /><path d="M21.48,52.02c4.69-0.6,9.38-1.17,14.08-1.72c0.45-0.05,0.9-0.11,1.35-0.16" class="grey" /><path d="M21.47,67.07c5.49-0.41,14.31-1.85,22.32-2.46" class="grey" /><path d="M61.42,12c0.03,0.43,0.1,1.25-0.05,1.74c-1.84,6.11-4.5,12.01-9.35,17.51" class="grey" /><path d="M61.72,20.69c1.06,0.5,3.15,0.61,4.21,0.47c6.76-0.86,14.17-2.44,21.68-3.24c1.76-0.19,3.67-0.24,4.56,0.01" class="grey" /><path d="M60.35,29.11c0.22,0.44,0.36,0.67,0.44,1.24c0.54,4.05,2.18,17.6,2.25,18.19" class="grey" /><path d="M61.33,30.32c4.23-0.57,18.1-2.6,23.52-2.99c0.94-0.07,1.5,1.56,1.47,2.01c-0.41,5.45-1.65,12.29-2.96,16.94" class="grey" /><path d="M62.18,37.84c3.66,0,8.29-0.5,12.31-0.91c0.96-0.1,1.88-0.19,2.75-0.27c0.08-0.01,0.16-0.01,0.24-0.02" class="grey" /><path d="M63.3,46.25c3.41-0.43,15.44-1.34,19.69-1.71" class="grey" /><path d="M50.45,54.73c1.05,0.29,2.98,0.33,4.04,0.29c10.96-0.48,29.57-3.16,39.84-3.27c1.76-0.02,2.81,0.14,3.69,0.28" class="grey" /><path d="M63,56.32c0.04,0.44,0.2,1.18-0.07,1.75c-1.94,4.05-6.85,10.2-13.32,15.6" class="grey" /><path d="M62.98,63.53c0.68,0.48,1.59,0.47,2.71,0.32c8.06-1.1,22.11-2.56,24.82-2.72c2.71-0.16,4.25,0.59,3.84,3.94c-0.41,3.35-5.05,17.58-9.78,27.37c-2.32,4.81-5.3,1.55-6.9-0.45" class="grey" /><path d="M68.66,66.35c0.04,0.37,0.11,0.97-0.08,1.49c-1.83,5.14-6.83,12.27-14.04,16.49" class="grey" /><path d="M81.53,65.23c0.09,0.8,0.35,2.1-0.18,3.19C78,75.29,70.96,85.65,57.32,94.66" class="grey" /><path d="M30.23,12.5c0.04,0.49,0.24,1.32-0.08,1.96c-2.4,4.79-8.65,14.29-16.65,21.79" class="stroke" stroke-dasharray="150"><animate attributeName="stroke-dashoffset" from="150" to="0" dur="1.8s" begin="0.0s" fill="freeze" /></path><path d="M26.89,20c2,0,10.61-1.25,14.32-2.25c2.16-0.58,3.29,1.14,2,2.75c-4.21,5.25-5.99,7.25-9.15,13" class="stroke" stroke-dasharray="150"><set attributeName="opacity" to="0" dur="1.0s" /><animate attributeName="stroke-dashoffset" from="150" to="0" dur="1.8s" begin="1.0s" fill="freeze" /></path><path d="M19.93,35.69c0.7,0.74,1.39,2.82,1.4,3.6c0.02,1.9-0.5,23.69-0.64,25.35c-0.87,10.72-2.84,20.6-8.73,27.25" class="stroke" stroke-dasharray="150"><set attributeName="opacity" to="0" dur="2.0s" /><animate attributeName="stroke-dashoffset" from="150" to="0" dur="1.8s" begin="2.0s" fill="freeze" /></path><path d="M22.29,37.08c2.05-0.17,17.58-2.56,19.11-2.75c2.73-0.34,3.76,2.22,3.42,3.25c-0.33,0.99-0.51,37.77-0.51,51.63c0,9.95-5.1,1.77-6.99,0.33" class="stroke" stroke-dasharray="150"><set attributeName="opacity" to="0" dur="3.4s" /><animate attributeName="stroke-dashoffset" from="150" to="0" dur="1.8s" begin="3.4s" fill="freeze" /></path><path d="M31.61,36.81c0.04,0.2,0.56,1.02,0.6,2.27c0.19,5.99-0.12,24.52-0.12,26.56" class="stroke" stroke-dasharray="150"><set attributeName="opacity" to="0" dur="5.1s" /><animate attributeName="stroke-dashoffset" from="150" to="0" dur="1.8s" begin="5.1s" fill="freeze" /></path><path d="M21.48,52.02c4.69-0.6,9.38-1.17,14.08-1.72c0.45-0.05,0.9-0.11,1.35-0.16" class="stroke" stroke-dasharray="150"><set attributeName="opacity" to="0" dur="6.1s" /><animate attributeName="stroke-dashoffset" from="150" to="0" dur="1.8s" begin="6.1s" fill="freeze" /></path><path d="M21.47,67.07c5.49-0.41,14.31-1.85,22.32-2.46" class="stroke" stroke-dasharray="150"><set attributeName="opacity" to="0" dur="7.0s" /><animate attributeName="stroke-dashoffset" from="150" to="0" dur="1.8s" begin="7.0s" fill="freeze" /></path><path d="M61.42,12c0.03,0.43,0.1,1.25-0.05,1.74c-1.84,6.11-4.5,12.01-9.35,17.51" class="stroke" stroke-dasharray="150"><set attributeName="opacity" to="0" dur="8.0s" /><animate attributeName="stroke-dashoffset" from="150" to="0" dur="1.8s" begin="8.0s" fill="freeze" /></path><path d="M61.72,20.69c1.06,0.5,3.15,0.61,4.21,0.47c6.76-0.86,14.17-2.44,21.68-3.24c1.76-0.19,3.67-0.24,4.56,0.01" class="stroke" stroke-dasharray="150"><set attributeName="opacity" to="0" dur="9.0s" /><animate attributeName="stroke-dashoffset" from="150" to="0" dur="1.8s" begin="9.0s" fill="freeze" /></path><path d="M60.35,29.11c0.22,0.44,0.36,0.67,0.44,1.24c0.54,4.05,2.18,17.6,2.25,18.19" class="stroke" stroke-dasharray="150"><set attributeName="opacity" to="0" dur="10.0s" /><animate attributeName="stroke-dashoffset" from="150" to="0" dur="1.8s" begin="10.0s" fill="freeze" /></path><path d="M61.33,30.32c4.23-0.57,18.1-2.6,23.52-2.99c0.94-0.07,1.5,1.56,1.47,2.01c-0.41,5.45-1.65,12.29-2.96,16.94" class="stroke" stroke-dasharray="150"><set attributeName="opacity" to="0" dur="10.9s" /><animate attributeName="stroke-dashoffset" from="150" to="0" dur="1.8s" begin="10.9s" fill="freeze" /></path><path d="M62.18,37.84c3.66,0,8.29-0.5,12.31-0.91c0.96-0.1,1.88-0.19,2.75-0.27c0.08-0.01,0.16-0.01,0.24-0.02" class="stroke" stroke-dasharray="150"><set attributeName="opacity" to="0" dur="12.0s" /><animate attributeName="stroke-dashoffset" from="150" to="0" dur="1.8s" begin="12.0s" fill="freeze" /></path><path d="M63.3,46.25c3.41-0.43,15.44-1.34,19.69-1.71" class="stroke" stroke-dasharray="150"><set attributeName="opacity" to="0" dur="12.9s" /><animate attributeName="stroke-dashoffset" from="150" to="0" dur="1.8s" begin="12.9s" fill="freeze" /></path><path d="M50.45,54.73c1.05,0.29,2.98,0.33,4.04,0.29c10.96-0.48,29.57-3.16,39.84-3.27c1.76-0.02,2.81,0.14,3.69,0.28" class="stroke" stroke-dasharray="150"><set attributeName="opacity" to="0" dur="13.8s" /><animate attributeName="stroke-dashoffset" from="150" to="0" dur="1.8s" begin="13.8s" fill="freeze" /></path><path d="M63,56.32c0.04,0.44,0.2,1.18-0.07,1.75c-1.94,4.05-6.85,10.2-13.32,15.6" class="stroke" stroke-dasharray="150"><set attributeName="opacity" to="0" dur="15.0s" /><animate attributeName="stroke-dashoffset" from="150" to="0" dur="1.8s" begin="15.0s" fill="freeze" /></path><path d="M62.98,63.53c0.68,0.48,1.59,0.47,2.71,0.32c8.06-1.1,22.11-2.56,24.82-2.72c2.71-0.16,4.25,0.59,3.84,3.94c-0.41,3.35-5.05,17.58-9.78,27.37c-2.32,4.81-5.3,1.55-6.9-0.45" class="stroke" stroke-dasharray="150"><set attributeName="opacity" to="0" dur="16.0s" /><animate attributeName="stroke-dashoffset" from="150" to="0" dur="1.8s" begin="16.0s" fill="freeze" /></path><path d="M68.66,66.35c0.04,0.37,0.11,0.97-0.08,1.49c-1.83,5.14-6.83,12.27-14.04,16.49" class="stroke" stroke-dasharray="150"><set attributeName="opacity" to="0" dur="17.7s" /><animate attributeName="stroke-dashoffset" from="150" to="0" dur="1.8s" begin="17.7s" fill="freeze" /></path><path d="M81.53,65.23c0.09,0.8,0.35,2.1-0.18,3.19C78,75.29,70.96,85.65,57.32,94.66" class="stroke" stroke-dasharray="150"><set attributeName="opacity" to="0" dur="18.7s" /><animate attributeName="stroke-dashoffset" from="150" to="0" dur="1.8s" begin="18.7s" fill="freeze" /></path><text x="90" y="120" id="reset-kvg-089f4-Kaisho">⟳</text><text x="70" y="120" id="pause-kvg-089f4-Kaisho">◼</text><script type="text/javascript"><![CDATA[function RecurringTimer(e,t){var n,r,i=t;this.pause=function(){window.clearTimeout(n);i-=new Date-r};var s=function(){r=new Date;n=window.setTimeout(function(){i=t;s();e()},i)};this.clear=function(){window.clearTimeout(n);i=t;n=window.setTimeout(function(){i=t;s();e()},i)};this.resume=s;this.resume()}function invoketimer(){timer=new RecurringTimer(function(){svg.setCurrentTime(0)},20700.0)}var svg=document.getElementById("kvg-089f4-Kaisho");var pause=document.getElementById("pause-kvg-089f4-Kaisho");var reset=document.getElementById("reset-kvg-089f4-Kaisho");var timer;invoketimer();reset.onclick=function(){svg.setCurrentTime(0);timer.clear();svg.unpauseAnimations();pause.innerHTML = "◼";};pause.onclick=function(){if(svg.animationsPaused()){svg.unpauseAnimations();timer.resume();pause.innerHTML="◼"}else{svg.pauseAnimations();timer.pause();pause.innerHTML="▶"}}]]></script></svg>