<svg id="kvg-08a63-Kaisho" class="kanjivg" width="106" height="126" xmlns="http://www.w3.org/2000/svg" xmlns:xlink="http://www.w3.org/1999/xlink" xml:space="preserve" version="1.1" baseProfile="full"><defs><style type="text/css"><![CDATA[path.black{fill:none;stroke:black;stroke-width:5;stroke-linecap:round;stroke-linejoin:round;}path.grey{fill:none;stroke:#ddd;stroke-width:5;stroke-linecap:round;stroke-linejoin:round;}path.stroke{fill:none;stroke:black;stroke-width:5;stroke-linecap:round;stroke-linejoin:round;}rect{fill:none;stroke:#555;stroke-width:2;} text{font-size:16px;font-family:Segoe UI Symbol,Cambria Math,DejaVu Sans,Symbola,Quivira,STIX,Code2000;-webkit-touch-callout:none;cursor:pointer;-webkit-user-select:none;-khtml-user-select:none;-moz-user-select:none;-ms-user-select:none;user-select: none;}text:hover{color:#777;}#reset{font-weight:bold;}]]></style><marker id="markerStart" markerWidth="8" markerHeight="8" style="overflow:visible;"><circle cx="0" cy="0" r="1.5" style="stroke:none;fill:red;fill-opacity:0.5;"/></marker><marker id="markerEnd" style="overflow:visible;"><circle cx="0" cy="0" r="0.8" style="stroke:none;fill:blue;fill-opacity:0.5;"><animate attributeName="opacity" from="1" to="0" dur="3s" repeatCount="indefinite" /></circle></marker></defs><rect x="4" y="4" width="100" height="100" /><path d="M26.85,16c2.92,1.72,7.54,7.07,8.27,9.75" class="grey" /><path d="M13.87,35.65c0.74,0.25,3.55,0.29,4.29,0.25c9.12-0.45,19.85-2.83,26.48-3.05c1.23-0.04,3.08,0.12,3.7,0.24" class="grey" /><path d="M20.83,47.56c0.42,0.12,2.99,0.13,3.41,0.12c4.38-0.14,10.3-1.56,14.61-1.55c0.7,0,3.62,0.06,3.97,0.12" class="grey" /><path d="M21.43,60.33c0.38,0.12,2.67,0.13,3.05,0.12c3.91-0.13,11.27-2.11,15.12-2.09c0.62,0,3.24,0.06,3.55,0.11" class="grey" /><path d="M20.67,72.4c0.38,0.36,0.82,0.65,0.95,1.13c1.09,4.21,2.98,14.54,4.08,20.71" class="grey" /><path d="M22.07,74.87c7.1-0.89,14.7-2.1,21.25-3c1.64-0.22,2.64,1.04,2.4,2.06c-0.98,4.25-1.83,8.22-3.57,15.28" class="grey" /><path d="M25.5,91.05c5.29-0.54,10.25-0.55,18.79-1.31" class="grey" /><path d="M57,34c7.01-1.22,17.11-4.01,22-4.5c2.5-0.25,2.75-0.5,5,0" class="grey" /><path d="M55.73,15c0.72,0.53,1.01,2.31,1.01,3.11c0,3.79-0.07,10.96-0.07,18.53c0,11.86,2.46,12.95,17.82,12.95C85,49.6,88.75,48,91.5,45.03" class="grey" /><path d="M58.13,59.74c0.49,0.88,1.28,2.62,1.28,3.68c0,1.06,1.24,30.52,1.24,31.05" class="grey" /><path d="M60.06,61.3c2.21-0.13,25-3.22,27.01-3.37c1.67-0.13,2.75,1.47,2.62,2.25c-0.26,1.59-2.68,33.62-2.68,34.41" class="grey" /><path d="M60.95,76.65c4.19,0,8.46-0.7,12.62-1.12c1.41-0.14,2.84-0.29,4.21-0.42" class="grey" /><path d="M61.31,92.7c6.08-0.57,17.38-1.09,24.95-1.58" class="grey" /><path d="M26.85,16c2.92,1.72,7.54,7.07,8.27,9.75" class="stroke" stroke-dasharray="150"><animate attributeName="stroke-dashoffset" from="150" to="0" dur="1.8s" begin="0.0s" fill="freeze" /></path><path d="M13.87,35.65c0.74,0.25,3.55,0.29,4.29,0.25c9.12-0.45,19.85-2.83,26.48-3.05c1.23-0.04,3.08,0.12,3.7,0.24" class="stroke" stroke-dasharray="150"><set attributeName="opacity" to="0" dur="0.9s" /><animate attributeName="stroke-dashoffset" from="150" to="0" dur="1.8s" begin="0.9s" fill="freeze" /></path><path d="M20.83,47.56c0.42,0.12,2.99,0.13,3.41,0.12c4.38-0.14,10.3-1.56,14.61-1.55c0.7,0,3.62,0.06,3.97,0.12" class="stroke" stroke-dasharray="150"><set attributeName="opacity" to="0" dur="1.9s" /><animate attributeName="stroke-dashoffset" from="150" to="0" dur="1.8s" begin="1.9s" fill="freeze" /></path><path d="M21.43,60.33c0.38,0.12,2.67,0.13,3.05,0.12c3.91-0.13,11.27-2.11,15.12-2.09c0.62,0,3.24,0.06,3.55,0.11" class="stroke" stroke-dasharray="150"><set attributeName="opacity" to="0" dur="2.9s" /><animate attributeName="stroke-dashoffset" from="150" to="0" dur="1.8s" begin="2.9s" fill="freeze" /></path><path d="M20.67,72.4c0.38,0.36,0.82,0.65,0.95,1.13c1.09,4.21,2.98,14.54,4.08,20.71" class="stroke" stroke-dasharray="150"><set attributeName="opacity" to="0" dur="3.9s" /><animate attributeName="stroke-dashoffset" from="150" to="0" dur="1.8s" begin="3.9s" fill="freeze" /></path><path d="M22.07,74.87c7.1-0.89,14.7-2.1,21.25-3c1.64-0.22,2.64,1.04,2.4,2.06c-0.98,4.25-1.83,8.22-3.57,15.28" class="stroke" stroke-dasharray="150"><set attributeName="opacity" to="0" dur="4.9s" /><animate attributeName="stroke-dashoffset" from="150" to="0" dur="1.8s" begin="4.9s" fill="freeze" /></path><path d="M25.5,91.05c5.29-0.54,10.25-0.55,18.79-1.31" class="stroke" stroke-dasharray="150"><set attributeName="opacity" to="0" dur="6.0s" /><animate attributeName="stroke-dashoffset" from="150" to="0" dur="1.8s" begin="6.0s" fill="freeze" /></path><path d="M57,34c7.01-1.22,17.11-4.01,22-4.5c2.5-0.25,2.75-0.5,5,0" class="stroke" stroke-dasharray="150"><set attributeName="opacity" to="0" dur="6.9s" /><animate attributeName="stroke-dashoffset" from="150" to="0" dur="1.8s" begin="6.9s" fill="freeze" /></path><path d="M55.73,15c0.72,0.53,1.01,2.31,1.01,3.11c0,3.79-0.07,10.96-0.07,18.53c0,11.86,2.46,12.95,17.82,12.95C85,49.6,88.75,48,91.5,45.03" class="stroke" stroke-dasharray="150"><set attributeName="opacity" to="0" dur="7.9s" /><animate attributeName="stroke-dashoffset" from="150" to="0" dur="1.8s" begin="7.9s" fill="freeze" /></path><path d="M58.13,59.74c0.49,0.88,1.28,2.62,1.28,3.68c0,1.06,1.24,30.52,1.24,31.05" class="stroke" stroke-dasharray="150"><set attributeName="opacity" to="0" dur="9.4s" /><animate attributeName="stroke-dashoffset" from="150" to="0" dur="1.8s" begin="9.4s" fill="freeze" /></path><path d="M60.06,61.3c2.21-0.13,25-3.22,27.01-3.37c1.67-0.13,2.75,1.47,2.62,2.25c-0.26,1.59-2.68,33.62-2.68,34.41" class="stroke" stroke-dasharray="150"><set attributeName="opacity" to="0" dur="10.4s" /><animate attributeName="stroke-dashoffset" from="150" to="0" dur="1.8s" begin="10.4s" fill="freeze" /></path><path d="M60.95,76.65c4.19,0,8.46-0.7,12.62-1.12c1.41-0.14,2.84-0.29,4.21-0.42" class="stroke" stroke-dasharray="150"><set attributeName="opacity" to="0" dur="11.9s" /><animate attributeName="stroke-dashoffset" from="150" to="0" dur="1.8s" begin="11.9s" fill="freeze" /></path><path d="M61.31,92.7c6.08-0.57,17.38-1.09,24.95-1.58" class="stroke" stroke-dasharray="150"><set attributeName="opacity" to="0" dur="12.8s" /><animate attributeName="stroke-dashoffset" from="150" to="0" dur="1.8s" begin="12.8s" fill="freeze" /></path><text x="90" y="120" id="reset-kvg-08a63-Kaisho">⟳</text><text x="70" y="120" id="pause-kvg-08a63-Kaisho">◼</text><script type="text/javascript"><![CDATA[function RecurringTimer(e,t){var n,r,i=t;this.pause=function(){window.clearTimeout(n);i-=new Date-r};var s=function(){r=new Date;n=window.setTimeout(function(){i=t;s();e()},i)};this.clear=function(){window.clearTimeout(n);i=t;n=window.setTimeout(function(){i=t;s();e()},i)};this.resume=s;this.resume()}function invoketimer(){timer=new RecurringTimer(function(){svg.setCurrentTime(0)},14800.0)}var svg=document.getElementById("kvg-08a63-Kaisho");var pause=document.getElementById("pause-kvg-08a63-Kaisho");var reset=document.getElementById("reset-kvg-08a63-Kaisho");var timer;invoketimer();reset.onclick=function(){svg.setCurrentTime(0);timer.clear();svg.unpauseAnimations();pause.innerHTML = "◼";};pause.onclick=function(){if(svg.animationsPaused()){svg.unpauseAnimations();timer.resume();pause.innerHTML="◼"}else{svg.pauseAnimations();timer.pause();pause.innerHTML="▶"}}]]></script></svg>