<svg id="kvg-08acd" class="kanjivg" width="106" height="126" xmlns="http://www.w3.org/2000/svg" xmlns:xlink="http://www.w3.org/1999/xlink" xml:space="preserve" version="1.1" baseProfile="full"><defs><style type="text/css"><![CDATA[path.black{fill:none;stroke:black;stroke-width:5;stroke-linecap:round;stroke-linejoin:round;}path.grey{fill:none;stroke:#ddd;stroke-width:5;stroke-linecap:round;stroke-linejoin:round;}path.stroke{fill:none;stroke:black;stroke-width:5;stroke-linecap:round;stroke-linejoin:round;}rect{fill:none;stroke:#555;stroke-width:2;} text{font-size:16px;font-family:Segoe UI Symbol,Cambria Math,DejaVu Sans,Symbola,Quivira,STIX,Code2000;-webkit-touch-callout:none;cursor:pointer;-webkit-user-select:none;-khtml-user-select:none;-moz-user-select:none;-ms-user-select:none;user-select: none;}text:hover{color:#777;}#reset{font-weight:bold;}]]></style><marker id="markerStart" markerWidth="8" markerHeight="8" style="overflow:visible;"><circle cx="0" cy="0" r="1.5" style="stroke:none;fill:red;fill-opacity:0.5;"/></marker><marker id="markerEnd" style="overflow:visible;"><circle cx="0" cy="0" r="0.8" style="stroke:none;fill:blue;fill-opacity:0.5;"><animate attributeName="opacity" from="1" to="0" dur="3s" repeatCount="indefinite" /></circle></marker></defs><rect x="4" y="4" width="100" height="100" /><path d="M21.13,16.25c3.57,2.03,9.23,8.34,10.12,11.5" class="grey" /><path d="M10.12,37.75c0.68,0.24,3.27,0.28,3.95,0.24c8.39-0.44,18.26-2.77,24.37-2.98c1.14-0.04,2.84,0.12,3.4,0.24" class="grey" /><path d="M16.73,49.06c0.38,0.12,2.71,0.13,3.1,0.12c3.97-0.14,9.3-1.56,13.21-1.55c0.63,0,3.29,0.06,3.61,0.12" class="grey" /><path d="M16.23,61.83c0.34,0.12,2.42,0.13,2.77,0.12c3.55-0.13,11.32-1.61,14.81-1.59c0.57,0,2.94,0.06,3.22,0.11" class="grey" /><path d="M15.14,74.91c0.39,0.4,0.83,0.72,0.96,1.24c1.1,4.62,2.51,15.32,3.62,22.1" class="grey" /><path d="M16.55,76.71c7.4-1.01,13.77-2.32,20.6-3.34c1.71-0.25,2.75,1.18,2.5,2.34c-1.02,4.82-1.91,10.05-3.72,18.07" class="grey" /><path d="M20.02,95.15c5.34-0.33,11.12-0.91,18.45-1.43" class="grey" /><path d="M83.72,12.64c-0.47,1.36-1.32,2.58-1.91,2.87c-7.31,3.49-13.74,6-31.76,9.25" class="grey" /><path d="M52.45,29.65c0.02,0.34,0.05,0.88-0.04,1.37c-0.54,2.88-3.66,9.21-7.93,13.08" class="grey" /><path d="M63.53,26.02c2.46,2.12,6.36,8.73,6.98,12.03" class="grey" /><path d="M79.38,22.27c5.38,2.89,13.9,11.88,15.25,16.37" class="grey" /><path d="M49.82,43.98c1.43,0.23,2.65,0.61,4.3,0.46c10.04-0.92,21.89-3.27,31.39-3.95c2.33-0.17,2.87,1.6,2.51,3.89c-0.94,5.99-2.43,15.66-3.15,22.98" class="grey" /><path d="M42.5,57.28c1.9,0.19,3.39,0.56,5.5,0.38c18.4-1.54,30.13-3.16,44.72-3.74c2.33-0.09,4.23,0.39,5.29,0.58" class="grey" /><path d="M49.47,69.65c1.25,0.2,3.51,0.69,5.01,0.59c13.78-0.98,16.73-1.71,29.26-2.1c2-0.06,3.26,0,4.76,0.2" class="grey" /><path d="M68.37,44.93c0.48,0.84,1.37,2.75,1.42,5.55c0.23,13.42-0.14,35.3-0.14,39.87c0,9.67-6.96,1.15-7.59,0.28" class="grey" /><path d="M21.13,16.25c3.57,2.03,9.23,8.34,10.12,11.5" class="stroke" stroke-dasharray="150"><animate attributeName="stroke-dashoffset" from="150" to="0" dur="1.8s" begin="0.0s" fill="freeze" /></path><path d="M10.12,37.75c0.68,0.24,3.27,0.28,3.95,0.24c8.39-0.44,18.26-2.77,24.37-2.98c1.14-0.04,2.84,0.12,3.4,0.24" class="stroke" stroke-dasharray="150"><set attributeName="opacity" to="0" dur="0.9s" /><animate attributeName="stroke-dashoffset" from="150" to="0" dur="1.8s" begin="0.9s" fill="freeze" /></path><path d="M16.73,49.06c0.38,0.12,2.71,0.13,3.1,0.12c3.97-0.14,9.3-1.56,13.21-1.55c0.63,0,3.29,0.06,3.61,0.12" class="stroke" stroke-dasharray="150"><set attributeName="opacity" to="0" dur="1.9s" /><animate attributeName="stroke-dashoffset" from="150" to="0" dur="1.8s" begin="1.9s" fill="freeze" /></path><path d="M16.23,61.83c0.34,0.12,2.42,0.13,2.77,0.12c3.55-0.13,11.32-1.61,14.81-1.59c0.57,0,2.94,0.06,3.22,0.11" class="stroke" stroke-dasharray="150"><set attributeName="opacity" to="0" dur="2.9s" /><animate attributeName="stroke-dashoffset" from="150" to="0" dur="1.8s" begin="2.9s" fill="freeze" /></path><path d="M15.14,74.91c0.39,0.4,0.83,0.72,0.96,1.24c1.1,4.62,2.51,15.32,3.62,22.1" class="stroke" stroke-dasharray="150"><set attributeName="opacity" to="0" dur="3.9s" /><animate attributeName="stroke-dashoffset" from="150" to="0" dur="1.8s" begin="3.9s" fill="freeze" /></path><path d="M16.55,76.71c7.4-1.01,13.77-2.32,20.6-3.34c1.71-0.25,2.75,1.18,2.5,2.34c-1.02,4.82-1.91,10.05-3.72,18.07" class="stroke" stroke-dasharray="150"><set attributeName="opacity" to="0" dur="4.9s" /><animate attributeName="stroke-dashoffset" from="150" to="0" dur="1.8s" begin="4.9s" fill="freeze" /></path><path d="M20.02,95.15c5.34-0.33,11.12-0.91,18.45-1.43" class="stroke" stroke-dasharray="150"><set attributeName="opacity" to="0" dur="6.0s" /><animate attributeName="stroke-dashoffset" from="150" to="0" dur="1.8s" begin="6.0s" fill="freeze" /></path><path d="M83.72,12.64c-0.47,1.36-1.32,2.58-1.91,2.87c-7.31,3.49-13.74,6-31.76,9.25" class="stroke" stroke-dasharray="150"><set attributeName="opacity" to="0" dur="6.9s" /><animate attributeName="stroke-dashoffset" from="150" to="0" dur="1.8s" begin="6.9s" fill="freeze" /></path><path d="M52.45,29.65c0.02,0.34,0.05,0.88-0.04,1.37c-0.54,2.88-3.66,9.21-7.93,13.08" class="stroke" stroke-dasharray="150"><set attributeName="opacity" to="0" dur="7.9s" /><animate attributeName="stroke-dashoffset" from="150" to="0" dur="1.8s" begin="7.9s" fill="freeze" /></path><path d="M63.53,26.02c2.46,2.12,6.36,8.73,6.98,12.03" class="stroke" stroke-dasharray="150"><set attributeName="opacity" to="0" dur="8.8s" /><animate attributeName="stroke-dashoffset" from="150" to="0" dur="1.8s" begin="8.8s" fill="freeze" /></path><path d="M79.38,22.27c5.38,2.89,13.9,11.88,15.25,16.37" class="stroke" stroke-dasharray="150"><set attributeName="opacity" to="0" dur="9.700000000000001s" /><animate attributeName="stroke-dashoffset" from="150" to="0" dur="1.8s" begin="9.700000000000001s" fill="freeze" /></path><path d="M49.82,43.98c1.43,0.23,2.65,0.61,4.3,0.46c10.04-0.92,21.89-3.27,31.39-3.95c2.33-0.17,2.87,1.6,2.51,3.89c-0.94,5.99-2.43,15.66-3.15,22.98" class="stroke" stroke-dasharray="150"><set attributeName="opacity" to="0" dur="10.700000000000001s" /><animate attributeName="stroke-dashoffset" from="150" to="0" dur="1.8s" begin="10.700000000000001s" fill="freeze" /></path><path d="M42.5,57.28c1.9,0.19,3.39,0.56,5.5,0.38c18.4-1.54,30.13-3.16,44.72-3.74c2.33-0.09,4.23,0.39,5.29,0.58" class="stroke" stroke-dasharray="150"><set attributeName="opacity" to="0" dur="12.200000000000001s" /><animate attributeName="stroke-dashoffset" from="150" to="0" dur="1.8s" begin="12.200000000000001s" fill="freeze" /></path><path d="M49.47,69.65c1.25,0.2,3.51,0.69,5.01,0.59c13.78-0.98,16.73-1.71,29.26-2.1c2-0.06,3.26,0,4.76,0.2" class="stroke" stroke-dasharray="150"><set attributeName="opacity" to="0" dur="13.600000000000001s" /><animate attributeName="stroke-dashoffset" from="150" to="0" dur="1.8s" begin="13.600000000000001s" fill="freeze" /></path><path d="M68.37,44.93c0.48,0.84,1.37,2.75,1.42,5.55c0.23,13.42-0.14,35.3-0.14,39.87c0,9.67-6.96,1.15-7.59,0.28" class="stroke" stroke-dasharray="150"><set attributeName="opacity" to="0" dur="14.600000000000001s" /><animate attributeName="stroke-dashoffset" from="150" to="0" dur="1.8s" begin="14.600000000000001s" fill="freeze" /></path><text x="90" y="120" id="reset-kvg-08acd">⟳</text><text x="70" y="120" id="pause-kvg-08acd">◼</text><script type="text/javascript"><![CDATA[function RecurringTimer(e,t){var n,r,i=t;this.pause=function(){window.clearTimeout(n);i-=new Date-r};var s=function(){r=new Date;n=window.setTimeout(function(){i=t;s();e()},i)};this.clear=function(){window.clearTimeout(n);i=t;n=window.setTimeout(function(){i=t;s();e()},i)};this.resume=s;this.resume()}function invoketimer(){timer=new RecurringTimer(function(){svg.setCurrentTime(0)},17000.0)}var svg=document.getElementById("kvg-08acd");var pause=document.getElementById("pause-kvg-08acd");var reset=document.getElementById("reset-kvg-08acd");var timer;invoketimer();reset.onclick=function(){svg.setCurrentTime(0);timer.clear();svg.unpauseAnimations();pause.innerHTML = "◼";};pause.onclick=function(){if(svg.animationsPaused()){svg.unpauseAnimations();timer.resume();pause.innerHTML="◼"}else{svg.pauseAnimations();timer.pause();pause.innerHTML="▶"}}]]></script></svg>