<svg id="kvg-08b17-Kaisho" class="kanjivg" width="106" height="126" xmlns="http://www.w3.org/2000/svg" xmlns:xlink="http://www.w3.org/1999/xlink" xml:space="preserve" version="1.1" baseProfile="full"><defs><style type="text/css"><![CDATA[path.black{fill:none;stroke:black;stroke-width:5;stroke-linecap:round;stroke-linejoin:round;}path.grey{fill:none;stroke:#ddd;stroke-width:5;stroke-linecap:round;stroke-linejoin:round;}path.stroke{fill:none;stroke:black;stroke-width:5;stroke-linecap:round;stroke-linejoin:round;}rect{fill:none;stroke:#555;stroke-width:2;} text{font-size:16px;font-family:Segoe UI Symbol,Cambria Math,DejaVu Sans,Symbola,Quivira,STIX,Code2000;-webkit-touch-callout:none;cursor:pointer;-webkit-user-select:none;-khtml-user-select:none;-moz-user-select:none;-ms-user-select:none;user-select: none;}text:hover{color:#777;}#reset{font-weight:bold;}]]></style><marker id="markerStart" markerWidth="8" markerHeight="8" style="overflow:visible;"><circle cx="0" cy="0" r="1.5" style="stroke:none;fill:red;fill-opacity:0.5;"/></marker><marker id="markerEnd" style="overflow:visible;"><circle cx="0" cy="0" r="0.8" style="stroke:none;fill:blue;fill-opacity:0.5;"><animate attributeName="opacity" from="1" to="0" dur="3s" repeatCount="indefinite" /></circle></marker></defs><rect x="4" y="4" width="100" height="100" /><path d="M18.8,13.5c3.66,2.16,9.46,8.89,10.38,12.25" class="grey" /><path d="M8.62,34.58c0.71,0.23,3.4,0.27,4.1,0.23c8.73-0.42,17.03-2.06,23.33-3.37c1.16-0.24,2.95,0.11,3.54,0.23" class="grey" /><path d="M15.18,46.56c0.43,0.12,3.04,0.13,3.47,0.12c4.44-0.14,8.86-1.43,13.34-2.05c0.7-0.1,3.68,0.06,4.04,0.12" class="grey" /><path d="M14.3,59.83c0.38,0.12,2.71,0.13,3.1,0.12c3.97-0.13,10.36-1.2,14.83-2.09c0.62-0.12,3.29,0.06,3.6,0.11" class="grey" /><path d="M14.01,73.24c0.35,0.33,0.74,1.06,0.85,1.5c0.99,3.86,1.69,13.35,2.68,19.02" class="grey" /><path d="M15.29,74.58c6.41-0.82,12.82-1.89,18.73-2.71c1.48-0.2,2.38,0.95,2.17,1.89c-0.88,3.9-1.21,8-2.78,14.49" class="grey" /><path d="M17.83,90.85c4.78-0.5,10.5-0.89,17.07-1.66" class="grey" /><path d="M65.96,10.75c2.39,1.2,5.06,4.25,5.97,6.98" class="grey" /><path d="M48.98,23.07c1.19,0.43,3.58,0.5,4.76,0.43c6.7-0.37,23.15-1.68,33.28-2c1.98-0.06,3.17,0.21,4.16,0.43" class="grey" /><path d="M55.52,28.33c2.46,3.36,4.03,7.4,4.25,9.61" class="grey" /><path d="M83.54,25.09c0.22,1.13,0.41,2.06,0.24,2.36c-1.72,3.06-4.67,8.86-5.91,10.73" class="grey" /><path d="M45.77,39.73c-0.14,3.36-3.56,12.13-4.77,14.13" class="grey" /><path d="M45.61,43.29c7.25-0.89,31-3.61,45.12-3.98c8.63-0.23,2.78,5.95-1,8.35" class="grey" /><path d="M64.58,46.12c2.34,1.03,5.27,4.63,6.2,7.07" class="grey" /><path d="M46.05,59.88c1.22,0.09,4.02,0.6,5.21,0.47c9.61-1,25.65-2.73,38.71-3.42c2.02-0.11,3.05,0.04,4.55,0.61" class="grey" /><path d="M66.57,66C70,68.25,80,71.25,84.02,71.87c1.81,0.28,2.34,2.17,1.72,3.67C83.5,81,78.53,89.28,73.43,94.87c-4.68,5.13-6.93,0.38-7.85-2.65" class="grey" /><path d="M67.45,61.2c0.41,0.87,0.33,1.85-0.16,2.83c-3.33,6.75-12.98,20.37-27.96,26.75" class="grey" /><path d="M18.8,13.5c3.66,2.16,9.46,8.89,10.38,12.25" class="stroke" stroke-dasharray="150"><animate attributeName="stroke-dashoffset" from="150" to="0" dur="1.8s" begin="0.0s" fill="freeze" /></path><path d="M8.62,34.58c0.71,0.23,3.4,0.27,4.1,0.23c8.73-0.42,17.03-2.06,23.33-3.37c1.16-0.24,2.95,0.11,3.54,0.23" class="stroke" stroke-dasharray="150"><set attributeName="opacity" to="0" dur="0.9s" /><animate attributeName="stroke-dashoffset" from="150" to="0" dur="1.8s" begin="0.9s" fill="freeze" /></path><path d="M15.18,46.56c0.43,0.12,3.04,0.13,3.47,0.12c4.44-0.14,8.86-1.43,13.34-2.05c0.7-0.1,3.68,0.06,4.04,0.12" class="stroke" stroke-dasharray="150"><set attributeName="opacity" to="0" dur="1.9s" /><animate attributeName="stroke-dashoffset" from="150" to="0" dur="1.8s" begin="1.9s" fill="freeze" /></path><path d="M14.3,59.83c0.38,0.12,2.71,0.13,3.1,0.12c3.97-0.13,10.36-1.2,14.83-2.09c0.62-0.12,3.29,0.06,3.6,0.11" class="stroke" stroke-dasharray="150"><set attributeName="opacity" to="0" dur="2.9s" /><animate attributeName="stroke-dashoffset" from="150" to="0" dur="1.8s" begin="2.9s" fill="freeze" /></path><path d="M14.01,73.24c0.35,0.33,0.74,1.06,0.85,1.5c0.99,3.86,1.69,13.35,2.68,19.02" class="stroke" stroke-dasharray="150"><set attributeName="opacity" to="0" dur="3.9s" /><animate attributeName="stroke-dashoffset" from="150" to="0" dur="1.8s" begin="3.9s" fill="freeze" /></path><path d="M15.29,74.58c6.41-0.82,12.82-1.89,18.73-2.71c1.48-0.2,2.38,0.95,2.17,1.89c-0.88,3.9-1.21,8-2.78,14.49" class="stroke" stroke-dasharray="150"><set attributeName="opacity" to="0" dur="4.9s" /><animate attributeName="stroke-dashoffset" from="150" to="0" dur="1.8s" begin="4.9s" fill="freeze" /></path><path d="M17.83,90.85c4.78-0.5,10.5-0.89,17.07-1.66" class="stroke" stroke-dasharray="150"><set attributeName="opacity" to="0" dur="5.9s" /><animate attributeName="stroke-dashoffset" from="150" to="0" dur="1.8s" begin="5.9s" fill="freeze" /></path><path d="M65.96,10.75c2.39,1.2,5.06,4.25,5.97,6.98" class="stroke" stroke-dasharray="150"><set attributeName="opacity" to="0" dur="6.800000000000001s" /><animate attributeName="stroke-dashoffset" from="150" to="0" dur="1.8s" begin="6.800000000000001s" fill="freeze" /></path><path d="M48.98,23.07c1.19,0.43,3.58,0.5,4.76,0.43c6.7-0.37,23.15-1.68,33.28-2c1.98-0.06,3.17,0.21,4.16,0.43" class="stroke" stroke-dasharray="150"><set attributeName="opacity" to="0" dur="7.700000000000001s" /><animate attributeName="stroke-dashoffset" from="150" to="0" dur="1.8s" begin="7.700000000000001s" fill="freeze" /></path><path d="M55.52,28.33c2.46,3.36,4.03,7.4,4.25,9.61" class="stroke" stroke-dasharray="150"><set attributeName="opacity" to="0" dur="8.8s" /><animate attributeName="stroke-dashoffset" from="150" to="0" dur="1.8s" begin="8.8s" fill="freeze" /></path><path d="M83.54,25.09c0.22,1.13,0.41,2.06,0.24,2.36c-1.72,3.06-4.67,8.86-5.91,10.73" class="stroke" stroke-dasharray="150"><set attributeName="opacity" to="0" dur="9.700000000000001s" /><animate attributeName="stroke-dashoffset" from="150" to="0" dur="1.8s" begin="9.700000000000001s" fill="freeze" /></path><path d="M45.77,39.73c-0.14,3.36-3.56,12.13-4.77,14.13" class="stroke" stroke-dasharray="150"><set attributeName="opacity" to="0" dur="10.600000000000001s" /><animate attributeName="stroke-dashoffset" from="150" to="0" dur="1.8s" begin="10.600000000000001s" fill="freeze" /></path><path d="M45.61,43.29c7.25-0.89,31-3.61,45.12-3.98c8.63-0.23,2.78,5.95-1,8.35" class="stroke" stroke-dasharray="150"><set attributeName="opacity" to="0" dur="11.500000000000002s" /><animate attributeName="stroke-dashoffset" from="150" to="0" dur="1.8s" begin="11.500000000000002s" fill="freeze" /></path><path d="M64.58,46.12c2.34,1.03,5.27,4.63,6.2,7.07" class="stroke" stroke-dasharray="150"><set attributeName="opacity" to="0" dur="12.900000000000002s" /><animate attributeName="stroke-dashoffset" from="150" to="0" dur="1.8s" begin="12.900000000000002s" fill="freeze" /></path><path d="M46.05,59.88c1.22,0.09,4.02,0.6,5.21,0.47c9.61-1,25.65-2.73,38.71-3.42c2.02-0.11,3.05,0.04,4.55,0.61" class="stroke" stroke-dasharray="150"><set attributeName="opacity" to="0" dur="13.800000000000002s" /><animate attributeName="stroke-dashoffset" from="150" to="0" dur="1.8s" begin="13.800000000000002s" fill="freeze" /></path><path d="M66.57,66C70,68.25,80,71.25,84.02,71.87c1.81,0.28,2.34,2.17,1.72,3.67C83.5,81,78.53,89.28,73.43,94.87c-4.68,5.13-6.93,0.38-7.85-2.65" class="stroke" stroke-dasharray="150"><set attributeName="opacity" to="0" dur="15.000000000000002s" /><animate attributeName="stroke-dashoffset" from="150" to="0" dur="1.8s" begin="15.000000000000002s" fill="freeze" /></path><path d="M67.45,61.2c0.41,0.87,0.33,1.85-0.16,2.83c-3.33,6.75-12.98,20.37-27.96,26.75" class="stroke" stroke-dasharray="150"><set attributeName="opacity" to="0" dur="16.400000000000002s" /><animate attributeName="stroke-dashoffset" from="150" to="0" dur="1.8s" begin="16.400000000000002s" fill="freeze" /></path><text x="90" y="120" id="reset-kvg-08b17-Kaisho">⟳</text><text x="70" y="120" id="pause-kvg-08b17-Kaisho">◼</text><script type="text/javascript"><![CDATA[function RecurringTimer(e,t){var n,r,i=t;this.pause=function(){window.clearTimeout(n);i-=new Date-r};var s=function(){r=new Date;n=window.setTimeout(function(){i=t;s();e()},i)};this.clear=function(){window.clearTimeout(n);i=t;n=window.setTimeout(function(){i=t;s();e()},i)};this.resume=s;this.resume()}function invoketimer(){timer=new RecurringTimer(function(){svg.setCurrentTime(0)},18500.000000000004)}var svg=document.getElementById("kvg-08b17-Kaisho");var pause=document.getElementById("pause-kvg-08b17-Kaisho");var reset=document.getElementById("reset-kvg-08b17-Kaisho");var timer;invoketimer();reset.onclick=function(){svg.setCurrentTime(0);timer.clear();svg.unpauseAnimations();pause.innerHTML = "◼";};pause.onclick=function(){if(svg.animationsPaused()){svg.unpauseAnimations();timer.resume();pause.innerHTML="◼"}else{svg.pauseAnimations();timer.pause();pause.innerHTML="▶"}}]]></script></svg>