<svg id="kvg-08ca8" class="kanjivg" width="106" height="126" xmlns="http://www.w3.org/2000/svg" xmlns:xlink="http://www.w3.org/1999/xlink" xml:space="preserve" version="1.1" baseProfile="full"><defs><style type="text/css"><![CDATA[path.black{fill:none;stroke:black;stroke-width:5;stroke-linecap:round;stroke-linejoin:round;}path.grey{fill:none;stroke:#ddd;stroke-width:5;stroke-linecap:round;stroke-linejoin:round;}path.stroke{fill:none;stroke:black;stroke-width:5;stroke-linecap:round;stroke-linejoin:round;}rect{fill:none;stroke:#555;stroke-width:2;} text{font-size:16px;font-family:Segoe UI Symbol,Cambria Math,DejaVu Sans,Symbola,Quivira,STIX,Code2000;-webkit-touch-callout:none;cursor:pointer;-webkit-user-select:none;-khtml-user-select:none;-moz-user-select:none;-ms-user-select:none;user-select: none;}text:hover{color:#777;}#reset{font-weight:bold;}]]></style><marker id="markerStart" markerWidth="8" markerHeight="8" style="overflow:visible;"><circle cx="0" cy="0" r="1.5" style="stroke:none;fill:red;fill-opacity:0.5;"/></marker><marker id="markerEnd" style="overflow:visible;"><circle cx="0" cy="0" r="0.8" style="stroke:none;fill:blue;fill-opacity:0.5;"><animate attributeName="opacity" from="1" to="0" dur="3s" repeatCount="indefinite" /></circle></marker></defs><rect x="4" y="4" width="100" height="100" /><path d="M37.57,12.11c0.22,1.2-0.06,2.77-0.76,3.8c-4.48,6.56-10.16,12.72-20.43,20.7" class="grey" /><path d="M30.49,26.71c0.72,0.72,1.25,1.94,1.24,3.17c-0.04,5.38-0.15,12.25-0.2,17.62c-0.02,1.9-0.03,3.61-0.03,5" class="grey" /><path d="M82.44,14.5c0,0.99-0.23,1.44-1.38,2.38c-3.62,2.96-13.78,8.02-18.44,9.5" class="grey" /><path d="M58.45,11.75c0.84,0.84,1.27,2,1.27,3.18c0,0.37-0.04,8.08-0.04,13.7c0,8.75,1.82,9.64,15.32,9.64c14.38,0,15.5-1.39,15.5-7.69" class="grey" /><path d="M38.98,47.27c0.51,0.87,1.01,2.27,1.01,3.45c0,1-0.06,22.51-0.08,31.41c0,1.6-0.01,2.8-0.01,3.39" class="grey" /><path d="M40.85,48.83c2.55-0.18,20.21-2.61,26.16-3.34c3.44-0.42,5.47,0.53,5.45,4.14c-0.02,5.04-0.08,17.92-0.09,29.12c0,1.36,0,2.69,0,3.98" class="grey" /><path d="M41.05,60.05c6.83-0.8,25.56-2.91,30.21-3.01" class="grey" /><path d="M41.29,71.9c7.84-1.03,21.21-2.78,30.13-3.37" class="grey" /><path d="M41.03,83.16c8.47-0.91,22.92-2.71,30.38-2.87" class="grey" /><path d="M46.73,88.03c0.39,0.96,0.02,1.98-0.75,2.68c-2.32,2.12-6.98,5.79-14.35,9.6" class="grey" /><path d="M66.44,88.97c6.18,3.09,13.49,8.69,15.18,11.39" class="grey" /><path d="M37.57,12.11c0.22,1.2-0.06,2.77-0.76,3.8c-4.48,6.56-10.16,12.72-20.43,20.7" class="stroke" stroke-dasharray="150"><animate attributeName="stroke-dashoffset" from="150" to="0" dur="1.8s" begin="0.0s" fill="freeze" /></path><path d="M30.49,26.71c0.72,0.72,1.25,1.94,1.24,3.17c-0.04,5.38-0.15,12.25-0.2,17.62c-0.02,1.9-0.03,3.61-0.03,5" class="stroke" stroke-dasharray="150"><set attributeName="opacity" to="0" dur="1.0s" /><animate attributeName="stroke-dashoffset" from="150" to="0" dur="1.8s" begin="1.0s" fill="freeze" /></path><path d="M82.44,14.5c0,0.99-0.23,1.44-1.38,2.38c-3.62,2.96-13.78,8.02-18.44,9.5" class="stroke" stroke-dasharray="150"><set attributeName="opacity" to="0" dur="2.0s" /><animate attributeName="stroke-dashoffset" from="150" to="0" dur="1.8s" begin="2.0s" fill="freeze" /></path><path d="M58.45,11.75c0.84,0.84,1.27,2,1.27,3.18c0,0.37-0.04,8.08-0.04,13.7c0,8.75,1.82,9.64,15.32,9.64c14.38,0,15.5-1.39,15.5-7.69" class="stroke" stroke-dasharray="150"><set attributeName="opacity" to="0" dur="3.0s" /><animate attributeName="stroke-dashoffset" from="150" to="0" dur="1.8s" begin="3.0s" fill="freeze" /></path><path d="M38.98,47.27c0.51,0.87,1.01,2.27,1.01,3.45c0,1-0.06,22.51-0.08,31.41c0,1.6-0.01,2.8-0.01,3.39" class="stroke" stroke-dasharray="150"><set attributeName="opacity" to="0" dur="4.4s" /><animate attributeName="stroke-dashoffset" from="150" to="0" dur="1.8s" begin="4.4s" fill="freeze" /></path><path d="M40.85,48.83c2.55-0.18,20.21-2.61,26.16-3.34c3.44-0.42,5.47,0.53,5.45,4.14c-0.02,5.04-0.08,17.92-0.09,29.12c0,1.36,0,2.69,0,3.98" class="stroke" stroke-dasharray="150"><set attributeName="opacity" to="0" dur="5.4s" /><animate attributeName="stroke-dashoffset" from="150" to="0" dur="1.8s" begin="5.4s" fill="freeze" /></path><path d="M41.05,60.05c6.83-0.8,25.56-2.91,30.21-3.01" class="stroke" stroke-dasharray="150"><set attributeName="opacity" to="0" dur="6.9s" /><animate attributeName="stroke-dashoffset" from="150" to="0" dur="1.8s" begin="6.9s" fill="freeze" /></path><path d="M41.29,71.9c7.84-1.03,21.21-2.78,30.13-3.37" class="stroke" stroke-dasharray="150"><set attributeName="opacity" to="0" dur="7.9s" /><animate attributeName="stroke-dashoffset" from="150" to="0" dur="1.8s" begin="7.9s" fill="freeze" /></path><path d="M41.03,83.16c8.47-0.91,22.92-2.71,30.38-2.87" class="stroke" stroke-dasharray="150"><set attributeName="opacity" to="0" dur="8.9s" /><animate attributeName="stroke-dashoffset" from="150" to="0" dur="1.8s" begin="8.9s" fill="freeze" /></path><path d="M46.73,88.03c0.39,0.96,0.02,1.98-0.75,2.68c-2.32,2.12-6.98,5.79-14.35,9.6" class="stroke" stroke-dasharray="150"><set attributeName="opacity" to="0" dur="9.9s" /><animate attributeName="stroke-dashoffset" from="150" to="0" dur="1.8s" begin="9.9s" fill="freeze" /></path><path d="M66.44,88.97c6.18,3.09,13.49,8.69,15.18,11.39" class="stroke" stroke-dasharray="150"><set attributeName="opacity" to="0" dur="10.9s" /><animate attributeName="stroke-dashoffset" from="150" to="0" dur="1.8s" begin="10.9s" fill="freeze" /></path><text x="90" y="120" id="reset-kvg-08ca8">⟳</text><text x="70" y="120" id="pause-kvg-08ca8">◼</text><script type="text/javascript"><![CDATA[function RecurringTimer(e,t){var n,r,i=t;this.pause=function(){window.clearTimeout(n);i-=new Date-r};var s=function(){r=new Date;n=window.setTimeout(function(){i=t;s();e()},i)};this.clear=function(){window.clearTimeout(n);i=t;n=window.setTimeout(function(){i=t;s();e()},i)};this.resume=s;this.resume()}function invoketimer(){timer=new RecurringTimer(function(){svg.setCurrentTime(0)},12800.0)}var svg=document.getElementById("kvg-08ca8");var pause=document.getElementById("pause-kvg-08ca8");var reset=document.getElementById("reset-kvg-08ca8");var timer;invoketimer();reset.onclick=function(){svg.setCurrentTime(0);timer.clear();svg.unpauseAnimations();pause.innerHTML = "◼";};pause.onclick=function(){if(svg.animationsPaused()){svg.unpauseAnimations();timer.resume();pause.innerHTML="◼"}else{svg.pauseAnimations();timer.pause();pause.innerHTML="▶"}}]]></script></svg>