<svg id="kvg-08d0a-Kaisho" class="kanjivg" width="106" height="126" xmlns="http://www.w3.org/2000/svg" xmlns:xlink="http://www.w3.org/1999/xlink" xml:space="preserve" version="1.1" baseProfile="full"><defs><style type="text/css"><![CDATA[path.black{fill:none;stroke:black;stroke-width:5;stroke-linecap:round;stroke-linejoin:round;}path.grey{fill:none;stroke:#ddd;stroke-width:5;stroke-linecap:round;stroke-linejoin:round;}path.stroke{fill:none;stroke:black;stroke-width:5;stroke-linecap:round;stroke-linejoin:round;}rect{fill:none;stroke:#555;stroke-width:2;} text{font-size:16px;font-family:Segoe UI Symbol,Cambria Math,DejaVu Sans,Symbola,Quivira,STIX,Code2000;-webkit-touch-callout:none;cursor:pointer;-webkit-user-select:none;-khtml-user-select:none;-moz-user-select:none;-ms-user-select:none;user-select: none;}text:hover{color:#777;}#reset{font-weight:bold;}]]></style><marker id="markerStart" markerWidth="8" markerHeight="8" style="overflow:visible;"><circle cx="0" cy="0" r="1.5" style="stroke:none;fill:red;fill-opacity:0.5;"/></marker><marker id="markerEnd" style="overflow:visible;"><circle cx="0" cy="0" r="0.8" style="stroke:none;fill:blue;fill-opacity:0.5;"><animate attributeName="opacity" from="1" to="0" dur="3s" repeatCount="indefinite" /></circle></marker></defs><rect x="4" y="4" width="100" height="100" /><path d="M29.56,12.87c0.05,0.37,0.14,0.98-0.1,1.49C28,17.5,24.5,23.75,20.59,27.4" class="grey" /><path d="M27.19,20.97c0.41,0.16,2.36,0.2,2.78,0.16c3.88-0.33,12.25-1.34,16.64-1.85c0.68-0.08,2.3,0.08,2.64,0.16" class="grey" /><path d="M35.77,9.63c0.38,0.21,1.17,1.61,1.25,2.04c0.08,0.43,0.04,13.68-0.04,16.37" class="grey" /><path d="M17.14,32.09c0.93,0.27,2.65,0.36,3.57,0.27c7.8-0.81,17.71-2.89,27.64-3.76c1.55-0.14,2.49,0.13,3.26,0.26" class="grey" /><path d="M31.35,33.65c0.03,0.34,0.07,0.87-0.07,1.36c-0.82,2.87-5.04,9.15-11.48,13" class="grey" /><path d="M40.84,29.65c0.27,0.64,0.49,1.39,0.51,2.38c0.04,2.57-0.1,5.93-0.1,8.97c0,1.69,1.07,1.65,2.25,1c4.5-2.5,5.5-3.5,8.5-5.5" class="grey" /><path d="M62.57,11.62c0.04,0.34,0.13,0.9-0.07,1.37C61,16.5,58.25,21.5,55.84,24.9" class="grey" /><path d="M62.19,19.4c0.47,0.17,2.69,0.21,3.16,0.17c4.4-0.35,13.92-1.45,18.91-1.99c0.78-0.08,2.61,0.08,3,0.17" class="grey" /><path d="M70.83,9.38c0.34,0.19,1.06,1.46,1.13,1.85c0.07,0.39,0.04,12.38-0.03,14.81" class="grey" /><path d="M56.64,28.96c0.92,0.32,2.61,0.35,3.53,0.32c7.34-0.26,22.58-3.03,28.22-3.61c1.53-0.16,2.46,0.15,3.22,0.31" class="grey" /><path d="M67.6,30.65c0.03,0.31,0.07,0.8-0.07,1.24c-0.82,2.62-5.04,8.36-11.48,11.87" class="grey" /><path d="M75.34,27.9c0.3,0.51,0.54,1.11,0.56,1.9c0.05,2.05-0.23,4.99-0.23,7.42c0,4.25,0.17,5.55,6.98,5.56c10.4,0.01,8.63-2.41,8.74-3.92" class="grey" /><path d="M33.31,48.31c0.65,1.28,1.61,2.24,1.61,3.95s0.3,27-0.48,34.16" class="grey" /><path d="M36.01,50.8c3.7-0.21,31.88-2.95,35.25-3.21c2.81-0.21,4.31,1.18,4.31,2.78c0,3.91-0.83,33.44-0.83,34.72" class="grey" /><path d="M34.99,61.35c6.74-0.48,13.47-1.12,20.2-1.67c2.08-0.17,4.15-0.34,6.13-0.49" class="grey" /><path d="M35.29,72.56c6.49-0.58,13.97-1.24,20.47-1.8c1.79-0.16,3.59-0.3,5.36-0.44" class="grey" /><path d="M34.81,84.07c10.43-0.7,30.37-2.56,39.88-2.56" class="grey" /><path d="M43.54,87.03c0.54,1.21-0.41,2.39-1.49,3.27c-3.25,2.66-11.8,8.32-18.3,11.46" class="grey" /><path d="M63.78,86.3c7.32,3.65,15.98,10.27,17.97,13.46" class="grey" /><path d="M29.56,12.87c0.05,0.37,0.14,0.98-0.1,1.49C28,17.5,24.5,23.75,20.59,27.4" class="stroke" stroke-dasharray="150"><animate attributeName="stroke-dashoffset" from="150" to="0" dur="1.8s" begin="0.0s" fill="freeze" /></path><path d="M27.19,20.97c0.41,0.16,2.36,0.2,2.78,0.16c3.88-0.33,12.25-1.34,16.64-1.85c0.68-0.08,2.3,0.08,2.64,0.16" class="stroke" stroke-dasharray="150"><set attributeName="opacity" to="0" dur="0.9s" /><animate attributeName="stroke-dashoffset" from="150" to="0" dur="1.8s" begin="0.9s" fill="freeze" /></path><path d="M35.77,9.63c0.38,0.21,1.17,1.61,1.25,2.04c0.08,0.43,0.04,13.68-0.04,16.37" class="stroke" stroke-dasharray="150"><set attributeName="opacity" to="0" dur="1.9s" /><animate attributeName="stroke-dashoffset" from="150" to="0" dur="1.8s" begin="1.9s" fill="freeze" /></path><path d="M17.14,32.09c0.93,0.27,2.65,0.36,3.57,0.27c7.8-0.81,17.71-2.89,27.64-3.76c1.55-0.14,2.49,0.13,3.26,0.26" class="stroke" stroke-dasharray="150"><set attributeName="opacity" to="0" dur="2.8s" /><animate attributeName="stroke-dashoffset" from="150" to="0" dur="1.8s" begin="2.8s" fill="freeze" /></path><path d="M31.35,33.65c0.03,0.34,0.07,0.87-0.07,1.36c-0.82,2.87-5.04,9.15-11.48,13" class="stroke" stroke-dasharray="150"><set attributeName="opacity" to="0" dur="3.8s" /><animate attributeName="stroke-dashoffset" from="150" to="0" dur="1.8s" begin="3.8s" fill="freeze" /></path><path d="M40.84,29.65c0.27,0.64,0.49,1.39,0.51,2.38c0.04,2.57-0.1,5.93-0.1,8.97c0,1.69,1.07,1.65,2.25,1c4.5-2.5,5.5-3.5,8.5-5.5" class="stroke" stroke-dasharray="150"><set attributeName="opacity" to="0" dur="4.7s" /><animate attributeName="stroke-dashoffset" from="150" to="0" dur="1.8s" begin="4.7s" fill="freeze" /></path><path d="M62.57,11.62c0.04,0.34,0.13,0.9-0.07,1.37C61,16.5,58.25,21.5,55.84,24.9" class="stroke" stroke-dasharray="150"><set attributeName="opacity" to="0" dur="5.7s" /><animate attributeName="stroke-dashoffset" from="150" to="0" dur="1.8s" begin="5.7s" fill="freeze" /></path><path d="M62.19,19.4c0.47,0.17,2.69,0.21,3.16,0.17c4.4-0.35,13.92-1.45,18.91-1.99c0.78-0.08,2.61,0.08,3,0.17" class="stroke" stroke-dasharray="150"><set attributeName="opacity" to="0" dur="6.6000000000000005s" /><animate attributeName="stroke-dashoffset" from="150" to="0" dur="1.8s" begin="6.6000000000000005s" fill="freeze" /></path><path d="M70.83,9.38c0.34,0.19,1.06,1.46,1.13,1.85c0.07,0.39,0.04,12.38-0.03,14.81" class="stroke" stroke-dasharray="150"><set attributeName="opacity" to="0" dur="7.6000000000000005s" /><animate attributeName="stroke-dashoffset" from="150" to="0" dur="1.8s" begin="7.6000000000000005s" fill="freeze" /></path><path d="M56.64,28.96c0.92,0.32,2.61,0.35,3.53,0.32c7.34-0.26,22.58-3.03,28.22-3.61c1.53-0.16,2.46,0.15,3.22,0.31" class="stroke" stroke-dasharray="150"><set attributeName="opacity" to="0" dur="8.5s" /><animate attributeName="stroke-dashoffset" from="150" to="0" dur="1.8s" begin="8.5s" fill="freeze" /></path><path d="M67.6,30.65c0.03,0.31,0.07,0.8-0.07,1.24c-0.82,2.62-5.04,8.36-11.48,11.87" class="stroke" stroke-dasharray="150"><set attributeName="opacity" to="0" dur="9.5s" /><animate attributeName="stroke-dashoffset" from="150" to="0" dur="1.8s" begin="9.5s" fill="freeze" /></path><path d="M75.34,27.9c0.3,0.51,0.54,1.11,0.56,1.9c0.05,2.05-0.23,4.99-0.23,7.42c0,4.25,0.17,5.55,6.98,5.56c10.4,0.01,8.63-2.41,8.74-3.92" class="stroke" stroke-dasharray="150"><set attributeName="opacity" to="0" dur="10.4s" /><animate attributeName="stroke-dashoffset" from="150" to="0" dur="1.8s" begin="10.4s" fill="freeze" /></path><path d="M33.31,48.31c0.65,1.28,1.61,2.24,1.61,3.95s0.3,27-0.48,34.16" class="stroke" stroke-dasharray="150"><set attributeName="opacity" to="0" dur="11.4s" /><animate attributeName="stroke-dashoffset" from="150" to="0" dur="1.8s" begin="11.4s" fill="freeze" /></path><path d="M36.01,50.8c3.7-0.21,31.88-2.95,35.25-3.21c2.81-0.21,4.31,1.18,4.31,2.78c0,3.91-0.83,33.44-0.83,34.72" class="stroke" stroke-dasharray="150"><set attributeName="opacity" to="0" dur="12.4s" /><animate attributeName="stroke-dashoffset" from="150" to="0" dur="1.8s" begin="12.4s" fill="freeze" /></path><path d="M34.99,61.35c6.74-0.48,13.47-1.12,20.2-1.67c2.08-0.17,4.15-0.34,6.13-0.49" class="stroke" stroke-dasharray="150"><set attributeName="opacity" to="0" dur="14.1s" /><animate attributeName="stroke-dashoffset" from="150" to="0" dur="1.8s" begin="14.1s" fill="freeze" /></path><path d="M35.29,72.56c6.49-0.58,13.97-1.24,20.47-1.8c1.79-0.16,3.59-0.3,5.36-0.44" class="stroke" stroke-dasharray="150"><set attributeName="opacity" to="0" dur="15.1s" /><animate attributeName="stroke-dashoffset" from="150" to="0" dur="1.8s" begin="15.1s" fill="freeze" /></path><path d="M34.81,84.07c10.43-0.7,30.37-2.56,39.88-2.56" class="stroke" stroke-dasharray="150"><set attributeName="opacity" to="0" dur="16.1s" /><animate attributeName="stroke-dashoffset" from="150" to="0" dur="1.8s" begin="16.1s" fill="freeze" /></path><path d="M43.54,87.03c0.54,1.21-0.41,2.39-1.49,3.27c-3.25,2.66-11.8,8.32-18.3,11.46" class="stroke" stroke-dasharray="150"><set attributeName="opacity" to="0" dur="17.1s" /><animate attributeName="stroke-dashoffset" from="150" to="0" dur="1.8s" begin="17.1s" fill="freeze" /></path><path d="M63.78,86.3c7.32,3.65,15.98,10.27,17.97,13.46" class="stroke" stroke-dasharray="150"><set attributeName="opacity" to="0" dur="18.1s" /><animate attributeName="stroke-dashoffset" from="150" to="0" dur="1.8s" begin="18.1s" fill="freeze" /></path><text x="90" y="120" id="reset-kvg-08d0a-Kaisho">⟳</text><text x="70" y="120" id="pause-kvg-08d0a-Kaisho">◼</text><script type="text/javascript"><![CDATA[function RecurringTimer(e,t){var n,r,i=t;this.pause=function(){window.clearTimeout(n);i-=new Date-r};var s=function(){r=new Date;n=window.setTimeout(function(){i=t;s();e()},i)};this.clear=function(){window.clearTimeout(n);i=t;n=window.setTimeout(function(){i=t;s();e()},i)};this.resume=s;this.resume()}function invoketimer(){timer=new RecurringTimer(function(){svg.setCurrentTime(0)},20100.0)}var svg=document.getElementById("kvg-08d0a-Kaisho");var pause=document.getElementById("pause-kvg-08d0a-Kaisho");var reset=document.getElementById("reset-kvg-08d0a-Kaisho");var timer;invoketimer();reset.onclick=function(){svg.setCurrentTime(0);timer.clear();svg.unpauseAnimations();pause.innerHTML = "◼";};pause.onclick=function(){if(svg.animationsPaused()){svg.unpauseAnimations();timer.resume();pause.innerHTML="◼"}else{svg.pauseAnimations();timer.pause();pause.innerHTML="▶"}}]]></script></svg>