<svg id="kvg-08d0b-Kaisho" class="kanjivg" width="106" height="126" xmlns="http://www.w3.org/2000/svg" xmlns:xlink="http://www.w3.org/1999/xlink" xml:space="preserve" version="1.1" baseProfile="full"><defs><style type="text/css"><![CDATA[path.black{fill:none;stroke:black;stroke-width:5;stroke-linecap:round;stroke-linejoin:round;}path.grey{fill:none;stroke:#ddd;stroke-width:5;stroke-linecap:round;stroke-linejoin:round;}path.stroke{fill:none;stroke:black;stroke-width:5;stroke-linecap:round;stroke-linejoin:round;}rect{fill:none;stroke:#555;stroke-width:2;} text{font-size:16px;font-family:Segoe UI Symbol,Cambria Math,DejaVu Sans,Symbola,Quivira,STIX,Code2000;-webkit-touch-callout:none;cursor:pointer;-webkit-user-select:none;-khtml-user-select:none;-moz-user-select:none;-ms-user-select:none;user-select: none;}text:hover{color:#777;}#reset{font-weight:bold;}]]></style><marker id="markerStart" markerWidth="8" markerHeight="8" style="overflow:visible;"><circle cx="0" cy="0" r="1.5" style="stroke:none;fill:red;fill-opacity:0.5;"/></marker><marker id="markerEnd" style="overflow:visible;"><circle cx="0" cy="0" r="0.8" style="stroke:none;fill:blue;fill-opacity:0.5;"><animate attributeName="opacity" from="1" to="0" dur="3s" repeatCount="indefinite" /></circle></marker></defs><rect x="4" y="4" width="100" height="100" /><path d="M23.13,16.73c1.52,0.54,4.3,0.63,5.82,0.54c15.8-0.91,39.3-3.52,54.61-4.23c2.53-0.12,4.05,0.26,5.31,0.53" class="grey" /><path d="M25.97,17.5c0.54,1.49,0.55,1.9,0.46,4.34c-0.73,19.57-2.61,50.71-14.12,67.38" class="grey" /><path d="M43.69,22.48c0.08,0.49,0.14,1.11-0.07,1.72c-1.3,3.83-6.34,11.25-12.4,16.44" class="grey" /><path d="M38.91,36.24c0.49,0.22,1.13,1.22,1.13,1.68c0,4.76-0.24,11.67-0.24,14.87" class="grey" /><path d="M58.1,19.82c0.12,0.78-0.03,1.8-0.4,2.47c-2.37,4.25-5.38,7.85-10.81,13.03" class="grey" /><path d="M53.31,29.66c0.5,0.34,0.87,1.07,0.91,1.59c0.29,4.64-0.4,18.33-0.16,20.75" class="grey" /><path d="M72.32,19.5c0.04,0.42-0.01,0.98-0.12,1.34c-0.7,2.31-1.58,4.1-3.18,6.92" class="grey" /><path d="M54.08,29.33c5.74-0.44,28.53-1.99,30.99-2.23" class="grey" /><path d="M68.49,29.15c0.28,0.17,0.5,0.41,0.5,0.7c0,3.01,0.03,13.79-0.14,18.53" class="grey" /><path d="M54.85,35.9c5.42-0.36,25.64-1.7,27.96-1.9" class="grey" /><path d="M54.19,42.23c5.72-0.31,26.51-1.42,28.96-1.59" class="grey" /><path d="M54.19,49.39c5.75-0.44,32.01-1.84,34.47-2.08" class="grey" /><path d="M39.91,58.6c0.56,0.64,1.38,1.12,1.38,1.97c0,0.85,0.26,22.82-0.41,26.4" class="grey" /><path d="M42.22,59.34c3.17-0.11,27.3-1.47,30.19-1.6c2.4-0.11,3.69,0.51,3.69,2.39c0,1.95-0.71,25.54-0.71,26.18" class="grey" /><path d="M41.34,68.36c5.77-0.24,11.53-0.63,17.3-0.96c1.78-0.1,3.55-0.2,5.25-0.29" class="grey" /><path d="M41.6,76.46c5.56-0.29,11.11-0.62,16.67-0.9c1.53-0.08,3.07-0.15,4.59-0.22" class="grey" /><path d="M41.19,85.29c8.93-0.35,26-1.28,34.15-1.28" class="grey" /><path d="M47.74,90.02c0.47,0.86-0.36,1.7-1.3,2.33c-2.84,1.89-10.31,5.92-16,8.16" class="grey" /><path d="M67.46,89.28c6.26,2.94,13.65,8.28,15.36,10.85" class="grey" /><path d="M23.13,16.73c1.52,0.54,4.3,0.63,5.82,0.54c15.8-0.91,39.3-3.52,54.61-4.23c2.53-0.12,4.05,0.26,5.31,0.53" class="stroke" stroke-dasharray="150"><animate attributeName="stroke-dashoffset" from="150" to="0" dur="1.8s" begin="0.0s" fill="freeze" /></path><path d="M25.97,17.5c0.54,1.49,0.55,1.9,0.46,4.34c-0.73,19.57-2.61,50.71-14.12,67.38" class="stroke" stroke-dasharray="150"><set attributeName="opacity" to="0" dur="1.5s" /><animate attributeName="stroke-dashoffset" from="150" to="0" dur="1.8s" begin="1.5s" fill="freeze" /></path><path d="M43.69,22.48c0.08,0.49,0.14,1.11-0.07,1.72c-1.3,3.83-6.34,11.25-12.4,16.44" class="stroke" stroke-dasharray="150"><set attributeName="opacity" to="0" dur="3.2s" /><animate attributeName="stroke-dashoffset" from="150" to="0" dur="1.8s" begin="3.2s" fill="freeze" /></path><path d="M38.91,36.24c0.49,0.22,1.13,1.22,1.13,1.68c0,4.76-0.24,11.67-0.24,14.87" class="stroke" stroke-dasharray="150"><set attributeName="opacity" to="0" dur="4.2s" /><animate attributeName="stroke-dashoffset" from="150" to="0" dur="1.8s" begin="4.2s" fill="freeze" /></path><path d="M58.1,19.82c0.12,0.78-0.03,1.8-0.4,2.47c-2.37,4.25-5.38,7.85-10.81,13.03" class="stroke" stroke-dasharray="150"><set attributeName="opacity" to="0" dur="5.1000000000000005s" /><animate attributeName="stroke-dashoffset" from="150" to="0" dur="1.8s" begin="5.1000000000000005s" fill="freeze" /></path><path d="M53.31,29.66c0.5,0.34,0.87,1.07,0.91,1.59c0.29,4.64-0.4,18.33-0.16,20.75" class="stroke" stroke-dasharray="150"><set attributeName="opacity" to="0" dur="6.000000000000001s" /><animate attributeName="stroke-dashoffset" from="150" to="0" dur="1.8s" begin="6.000000000000001s" fill="freeze" /></path><path d="M72.32,19.5c0.04,0.42-0.01,0.98-0.12,1.34c-0.7,2.31-1.58,4.1-3.18,6.92" class="stroke" stroke-dasharray="150"><set attributeName="opacity" to="0" dur="7.000000000000001s" /><animate attributeName="stroke-dashoffset" from="150" to="0" dur="1.8s" begin="7.000000000000001s" fill="freeze" /></path><path d="M54.08,29.33c5.74-0.44,28.53-1.99,30.99-2.23" class="stroke" stroke-dasharray="150"><set attributeName="opacity" to="0" dur="7.900000000000001s" /><animate attributeName="stroke-dashoffset" from="150" to="0" dur="1.8s" begin="7.900000000000001s" fill="freeze" /></path><path d="M68.49,29.15c0.28,0.17,0.5,0.41,0.5,0.7c0,3.01,0.03,13.79-0.14,18.53" class="stroke" stroke-dasharray="150"><set attributeName="opacity" to="0" dur="8.900000000000002s" /><animate attributeName="stroke-dashoffset" from="150" to="0" dur="1.8s" begin="8.900000000000002s" fill="freeze" /></path><path d="M54.85,35.9c5.42-0.36,25.64-1.7,27.96-1.9" class="stroke" stroke-dasharray="150"><set attributeName="opacity" to="0" dur="9.800000000000002s" /><animate attributeName="stroke-dashoffset" from="150" to="0" dur="1.8s" begin="9.800000000000002s" fill="freeze" /></path><path d="M54.19,42.23c5.72-0.31,26.51-1.42,28.96-1.59" class="stroke" stroke-dasharray="150"><set attributeName="opacity" to="0" dur="10.800000000000002s" /><animate attributeName="stroke-dashoffset" from="150" to="0" dur="1.8s" begin="10.800000000000002s" fill="freeze" /></path><path d="M54.19,49.39c5.75-0.44,32.01-1.84,34.47-2.08" class="stroke" stroke-dasharray="150"><set attributeName="opacity" to="0" dur="11.800000000000002s" /><animate attributeName="stroke-dashoffset" from="150" to="0" dur="1.8s" begin="11.800000000000002s" fill="freeze" /></path><path d="M39.91,58.6c0.56,0.64,1.38,1.12,1.38,1.97c0,0.85,0.26,22.82-0.41,26.4" class="stroke" stroke-dasharray="150"><set attributeName="opacity" to="0" dur="12.800000000000002s" /><animate attributeName="stroke-dashoffset" from="150" to="0" dur="1.8s" begin="12.800000000000002s" fill="freeze" /></path><path d="M42.22,59.34c3.17-0.11,27.3-1.47,30.19-1.6c2.4-0.11,3.69,0.51,3.69,2.39c0,1.95-0.71,25.54-0.71,26.18" class="stroke" stroke-dasharray="150"><set attributeName="opacity" to="0" dur="13.800000000000002s" /><animate attributeName="stroke-dashoffset" from="150" to="0" dur="1.8s" begin="13.800000000000002s" fill="freeze" /></path><path d="M41.34,68.36c5.77-0.24,11.53-0.63,17.3-0.96c1.78-0.1,3.55-0.2,5.25-0.29" class="stroke" stroke-dasharray="150"><set attributeName="opacity" to="0" dur="15.300000000000002s" /><animate attributeName="stroke-dashoffset" from="150" to="0" dur="1.8s" begin="15.300000000000002s" fill="freeze" /></path><path d="M41.6,76.46c5.56-0.29,11.11-0.62,16.67-0.9c1.53-0.08,3.07-0.15,4.59-0.22" class="stroke" stroke-dasharray="150"><set attributeName="opacity" to="0" dur="16.300000000000004s" /><animate attributeName="stroke-dashoffset" from="150" to="0" dur="1.8s" begin="16.300000000000004s" fill="freeze" /></path><path d="M41.19,85.29c8.93-0.35,26-1.28,34.15-1.28" class="stroke" stroke-dasharray="150"><set attributeName="opacity" to="0" dur="17.300000000000004s" /><animate attributeName="stroke-dashoffset" from="150" to="0" dur="1.8s" begin="17.300000000000004s" fill="freeze" /></path><path d="M47.74,90.02c0.47,0.86-0.36,1.7-1.3,2.33c-2.84,1.89-10.31,5.92-16,8.16" class="stroke" stroke-dasharray="150"><set attributeName="opacity" to="0" dur="18.300000000000004s" /><animate attributeName="stroke-dashoffset" from="150" to="0" dur="1.8s" begin="18.300000000000004s" fill="freeze" /></path><path d="M67.46,89.28c6.26,2.94,13.65,8.28,15.36,10.85" class="stroke" stroke-dasharray="150"><set attributeName="opacity" to="0" dur="19.300000000000004s" /><animate attributeName="stroke-dashoffset" from="150" to="0" dur="1.8s" begin="19.300000000000004s" fill="freeze" /></path><text x="90" y="120" id="reset-kvg-08d0b-Kaisho">⟳</text><text x="70" y="120" id="pause-kvg-08d0b-Kaisho">◼</text><script type="text/javascript"><![CDATA[function RecurringTimer(e,t){var n,r,i=t;this.pause=function(){window.clearTimeout(n);i-=new Date-r};var s=function(){r=new Date;n=window.setTimeout(function(){i=t;s();e()},i)};this.clear=function(){window.clearTimeout(n);i=t;n=window.setTimeout(function(){i=t;s();e()},i)};this.resume=s;this.resume()}function invoketimer(){timer=new RecurringTimer(function(){svg.setCurrentTime(0)},21200.000000000004)}var svg=document.getElementById("kvg-08d0b-Kaisho");var pause=document.getElementById("pause-kvg-08d0b-Kaisho");var reset=document.getElementById("reset-kvg-08d0b-Kaisho");var timer;invoketimer();reset.onclick=function(){svg.setCurrentTime(0);timer.clear();svg.unpauseAnimations();pause.innerHTML = "◼";};pause.onclick=function(){if(svg.animationsPaused()){svg.unpauseAnimations();timer.resume();pause.innerHTML="◼"}else{svg.pauseAnimations();timer.pause();pause.innerHTML="▶"}}]]></script></svg>