<svg id="kvg-08d77" class="kanjivg" width="106" height="126" xmlns="http://www.w3.org/2000/svg" xmlns:xlink="http://www.w3.org/1999/xlink" xml:space="preserve" version="1.1" baseProfile="full"><defs><style type="text/css"><![CDATA[path.black{fill:none;stroke:black;stroke-width:5;stroke-linecap:round;stroke-linejoin:round;}path.grey{fill:none;stroke:#ddd;stroke-width:5;stroke-linecap:round;stroke-linejoin:round;}path.stroke{fill:none;stroke:black;stroke-width:5;stroke-linecap:round;stroke-linejoin:round;}rect{fill:none;stroke:#555;stroke-width:2;} text{font-size:16px;font-family:Segoe UI Symbol,Cambria Math,DejaVu Sans,Symbola,Quivira,STIX,Code2000;-webkit-touch-callout:none;cursor:pointer;-webkit-user-select:none;-khtml-user-select:none;-moz-user-select:none;-ms-user-select:none;user-select: none;}text:hover{color:#777;}#reset{font-weight:bold;}]]></style><marker id="markerStart" markerWidth="8" markerHeight="8" style="overflow:visible;"><circle cx="0" cy="0" r="1.5" style="stroke:none;fill:red;fill-opacity:0.5;"/></marker><marker id="markerEnd" style="overflow:visible;"><circle cx="0" cy="0" r="0.8" style="stroke:none;fill:blue;fill-opacity:0.5;"><animate attributeName="opacity" from="1" to="0" dur="3s" repeatCount="indefinite" /></circle></marker></defs><rect x="4" y="4" width="100" height="100" /><path d="M18.2,31.55c1.62,0.35,3.24,0.42,4.86,0.23c7.72-0.7,16-1.96,21.56-2.73c1.71-0.3,3.44-0.35,5.19-0.13" class="grey" /><path d="M34.09,14.62c0.83,0.83,1.33,2.03,1.33,3.89c0,10.25-0.02,23.2-0.02,26.25" class="grey" /><path d="M13.35,47.95c1.36,0.55,3.85,0.74,5.23,0.55c7.37-1,19.26-3.12,27.17-4c2.25-0.25,4.04-0.23,6.5,0.17" class="grey" /><path d="M34.55,49.25c0.97,0.97,1.47,2.25,1.47,3.75c0,3.68-0.06,19.67-0.06,24.75" class="grey" /><path d="M37.16,63.5c4.51-0.5,9.58-1.59,11.61-1.84c1.35-0.16,2.63-0.07,3.22,0.12" class="grey" /><path d="M24.9,63c0.2,1.3,0.1,2.56-0.3,3.77c-1.85,6.61-6.42,18.33-14.1,26.48" class="grey" /><path d="M23.6,75.25c11.51,2.08,40.24,13.29,55.89,16.38c3.34,0.66,7.48,1.15,10.76,1.37" class="grey" /><path d="M59.56,25.67c2.19,0.46,3.71,0.38,5.3,0.2c4.31-0.48,13.11-2.22,19.52-3.16c2.75-0.4,4.21,1.43,3.83,3.36c-0.59,3.05-2.09,6.92-3.65,14.89" class="grey" /><path d="M60.25,44.62c1.5,0.25,2.81,0.34,4.24,0.21c5.01-0.46,12.59-1.88,17.41-2.49c1.82-0.23,2.97-0.1,4.09,0.13" class="grey" /><path d="M61.49,45.21c0.9,0.9,1.56,2.03,1.55,4c-0.02,5.18-0.36,8.78-0.36,12.04c0,11.25,0.7,12.04,16.25,12.04c13.2,0,13.57-1.54,13.57-9.28" class="grey" /><path d="M18.2,31.55c1.62,0.35,3.24,0.42,4.86,0.23c7.72-0.7,16-1.96,21.56-2.73c1.71-0.3,3.44-0.35,5.19-0.13" class="stroke" stroke-dasharray="150"><animate attributeName="stroke-dashoffset" from="150" to="0" dur="1.8s" begin="0.0s" fill="freeze" /></path><path d="M34.09,14.62c0.83,0.83,1.33,2.03,1.33,3.89c0,10.25-0.02,23.2-0.02,26.25" class="stroke" stroke-dasharray="150"><set attributeName="opacity" to="0" dur="1.0s" /><animate attributeName="stroke-dashoffset" from="150" to="0" dur="1.8s" begin="1.0s" fill="freeze" /></path><path d="M13.35,47.95c1.36,0.55,3.85,0.74,5.23,0.55c7.37-1,19.26-3.12,27.17-4c2.25-0.25,4.04-0.23,6.5,0.17" class="stroke" stroke-dasharray="150"><set attributeName="opacity" to="0" dur="2.0s" /><animate attributeName="stroke-dashoffset" from="150" to="0" dur="1.8s" begin="2.0s" fill="freeze" /></path><path d="M34.55,49.25c0.97,0.97,1.47,2.25,1.47,3.75c0,3.68-0.06,19.67-0.06,24.75" class="stroke" stroke-dasharray="150"><set attributeName="opacity" to="0" dur="3.0s" /><animate attributeName="stroke-dashoffset" from="150" to="0" dur="1.8s" begin="3.0s" fill="freeze" /></path><path d="M37.16,63.5c4.51-0.5,9.58-1.59,11.61-1.84c1.35-0.16,2.63-0.07,3.22,0.12" class="stroke" stroke-dasharray="150"><set attributeName="opacity" to="0" dur="4.0s" /><animate attributeName="stroke-dashoffset" from="150" to="0" dur="1.8s" begin="4.0s" fill="freeze" /></path><path d="M24.9,63c0.2,1.3,0.1,2.56-0.3,3.77c-1.85,6.61-6.42,18.33-14.1,26.48" class="stroke" stroke-dasharray="150"><set attributeName="opacity" to="0" dur="4.9s" /><animate attributeName="stroke-dashoffset" from="150" to="0" dur="1.8s" begin="4.9s" fill="freeze" /></path><path d="M23.6,75.25c11.51,2.08,40.24,13.29,55.89,16.38c3.34,0.66,7.48,1.15,10.76,1.37" class="stroke" stroke-dasharray="150"><set attributeName="opacity" to="0" dur="5.9s" /><animate attributeName="stroke-dashoffset" from="150" to="0" dur="1.8s" begin="5.9s" fill="freeze" /></path><path d="M59.56,25.67c2.19,0.46,3.71,0.38,5.3,0.2c4.31-0.48,13.11-2.22,19.52-3.16c2.75-0.4,4.21,1.43,3.83,3.36c-0.59,3.05-2.09,6.92-3.65,14.89" class="stroke" stroke-dasharray="150"><set attributeName="opacity" to="0" dur="7.4s" /><animate attributeName="stroke-dashoffset" from="150" to="0" dur="1.8s" begin="7.4s" fill="freeze" /></path><path d="M60.25,44.62c1.5,0.25,2.81,0.34,4.24,0.21c5.01-0.46,12.59-1.88,17.41-2.49c1.82-0.23,2.97-0.1,4.09,0.13" class="stroke" stroke-dasharray="150"><set attributeName="opacity" to="0" dur="8.6s" /><animate attributeName="stroke-dashoffset" from="150" to="0" dur="1.8s" begin="8.6s" fill="freeze" /></path><path d="M61.49,45.21c0.9,0.9,1.56,2.03,1.55,4c-0.02,5.18-0.36,8.78-0.36,12.04c0,11.25,0.7,12.04,16.25,12.04c13.2,0,13.57-1.54,13.57-9.28" class="stroke" stroke-dasharray="150"><set attributeName="opacity" to="0" dur="9.6s" /><animate attributeName="stroke-dashoffset" from="150" to="0" dur="1.8s" begin="9.6s" fill="freeze" /></path><text x="90" y="120" id="reset-kvg-08d77">⟳</text><text x="70" y="120" id="pause-kvg-08d77">◼</text><script type="text/javascript"><![CDATA[function RecurringTimer(e,t){var n,r,i=t;this.pause=function(){window.clearTimeout(n);i-=new Date-r};var s=function(){r=new Date;n=window.setTimeout(function(){i=t;s();e()},i)};this.clear=function(){window.clearTimeout(n);i=t;n=window.setTimeout(function(){i=t;s();e()},i)};this.resume=s;this.resume()}function invoketimer(){timer=new RecurringTimer(function(){svg.setCurrentTime(0)},12100.0)}var svg=document.getElementById("kvg-08d77");var pause=document.getElementById("pause-kvg-08d77");var reset=document.getElementById("reset-kvg-08d77");var timer;invoketimer();reset.onclick=function(){svg.setCurrentTime(0);timer.clear();svg.unpauseAnimations();pause.innerHTML = "◼";};pause.onclick=function(){if(svg.animationsPaused()){svg.unpauseAnimations();timer.resume();pause.innerHTML="◼"}else{svg.pauseAnimations();timer.pause();pause.innerHTML="▶"}}]]></script></svg>