<svg id="kvg-08e1e" class="kanjivg" width="106" height="126" xmlns="http://www.w3.org/2000/svg" xmlns:xlink="http://www.w3.org/1999/xlink" xml:space="preserve" version="1.1" baseProfile="full"><defs><style type="text/css"><![CDATA[path.black{fill:none;stroke:black;stroke-width:5;stroke-linecap:round;stroke-linejoin:round;}path.grey{fill:none;stroke:#ddd;stroke-width:5;stroke-linecap:round;stroke-linejoin:round;}path.stroke{fill:none;stroke:black;stroke-width:5;stroke-linecap:round;stroke-linejoin:round;}rect{fill:none;stroke:#555;stroke-width:2;} text{font-size:16px;font-family:Segoe UI Symbol,Cambria Math,DejaVu Sans,Symbola,Quivira,STIX,Code2000;-webkit-touch-callout:none;cursor:pointer;-webkit-user-select:none;-khtml-user-select:none;-moz-user-select:none;-ms-user-select:none;user-select: none;}text:hover{color:#777;}#reset{font-weight:bold;}]]></style><marker id="markerStart" markerWidth="8" markerHeight="8" style="overflow:visible;"><circle cx="0" cy="0" r="1.5" style="stroke:none;fill:red;fill-opacity:0.5;"/></marker><marker id="markerEnd" style="overflow:visible;"><circle cx="0" cy="0" r="0.8" style="stroke:none;fill:blue;fill-opacity:0.5;"><animate attributeName="opacity" from="1" to="0" dur="3s" repeatCount="indefinite" /></circle></marker></defs><rect x="4" y="4" width="100" height="100" /><path d="M13.78,18.23c0.38,0.32,0.78,0.58,0.95,0.98c1.33,3.16,2.44,15.36,3.35,21.04" class="grey" /><path d="M15.68,19.94c9.11-1.7,17.96-3.04,22.46-3.45c1.65-0.15,2.64,0.9,2.4,1.79c-1.09,4.1-2.23,12.48-3.57,17.18" class="grey" /><path d="M18.75,37.91c5.29-0.47,12.61-0.84,19.88-1.57" class="grey" /><path d="M26.37,39.24c1.09,0.5,1.96,2.23,1.96,3.25c0,5.51,0.28,32.01,0.28,42" class="grey" /><path d="M28.88,59.74c3.37-0.49,6.87-1.74,10.35-2c1.74-0.13,2.18-0.25,3.26,0" class="grey" /><path d="M14.37,57.49c1.09,0.5,1.74,2.25,1.96,3.25c0.22,1,0.42,18.51,0.42,30.26" class="grey" /><path d="M11,91.57c1.5,0.93,3,1.68,5.2,0.4c8.08-4.7,14.74-8.47,23.8-13.48" class="grey" /><path d="M50.09,16.73c1.29,0.52,3.8,0.99,5.17,0.88c7.4-0.58,31.54-3.25,34.51-3.46c1.47-0.1,2.81,1.33,2.5,2.85c-0.77,3.74-2.84,8.02-3.97,13.57" class="grey" /><path d="M54.29,33.44c3.71-0.17,27.82-2,36.02-3.17" class="grey" /><path d="M53.64,18.29c0,3.1,0.17,9.4,0.15,12.31C53.59,51.62,52,78.25,40.31,91.81" class="grey" /><path d="M55.32,52.18c0.68,0.26,2.52,0.45,4.34,0.27c7.48-0.77,23.58-2.7,33.06-3.22c1.83-0.1,2.29-0.26,3.43,0" class="grey" /><path d="M71.97,35.94c0.63,0.35,1.91,2.09,1.91,4.14c0,12.3-0.13,27.17-0.13,31.79" class="grey" /><path d="M57.7,72.67c0.24,0.75,1.06,2.43,1.14,3c0.61,4.14,1.98,13.73,2.83,21.57" class="grey" /><path d="M58.93,73.88c6.8-0.83,26.89-3.53,31.53-3.66c1.92-0.05,2.64,1.75,2.38,2.98c-1.01,4.75-2.77,11.96-3.81,18.29" class="grey" /><path d="M62.04,94.09c5.62-0.35,21.9-1.54,28.65-1.98" class="grey" /><path d="M13.78,18.23c0.38,0.32,0.78,0.58,0.95,0.98c1.33,3.16,2.44,15.36,3.35,21.04" class="stroke" stroke-dasharray="150"><animate attributeName="stroke-dashoffset" from="150" to="0" dur="1.8s" begin="0.0s" fill="freeze" /></path><path d="M15.68,19.94c9.11-1.7,17.96-3.04,22.46-3.45c1.65-0.15,2.64,0.9,2.4,1.79c-1.09,4.1-2.23,12.48-3.57,17.18" class="stroke" stroke-dasharray="150"><set attributeName="opacity" to="0" dur="1.0s" /><animate attributeName="stroke-dashoffset" from="150" to="0" dur="1.8s" begin="1.0s" fill="freeze" /></path><path d="M18.75,37.91c5.29-0.47,12.61-0.84,19.88-1.57" class="stroke" stroke-dasharray="150"><set attributeName="opacity" to="0" dur="2.1s" /><animate attributeName="stroke-dashoffset" from="150" to="0" dur="1.8s" begin="2.1s" fill="freeze" /></path><path d="M26.37,39.24c1.09,0.5,1.96,2.23,1.96,3.25c0,5.51,0.28,32.01,0.28,42" class="stroke" stroke-dasharray="150"><set attributeName="opacity" to="0" dur="3.0s" /><animate attributeName="stroke-dashoffset" from="150" to="0" dur="1.8s" begin="3.0s" fill="freeze" /></path><path d="M28.88,59.74c3.37-0.49,6.87-1.74,10.35-2c1.74-0.13,2.18-0.25,3.26,0" class="stroke" stroke-dasharray="150"><set attributeName="opacity" to="0" dur="4.2s" /><animate attributeName="stroke-dashoffset" from="150" to="0" dur="1.8s" begin="4.2s" fill="freeze" /></path><path d="M14.37,57.49c1.09,0.5,1.74,2.25,1.96,3.25c0.22,1,0.42,18.51,0.42,30.26" class="stroke" stroke-dasharray="150"><set attributeName="opacity" to="0" dur="5.1000000000000005s" /><animate attributeName="stroke-dashoffset" from="150" to="0" dur="1.8s" begin="5.1000000000000005s" fill="freeze" /></path><path d="M11,91.57c1.5,0.93,3,1.68,5.2,0.4c8.08-4.7,14.74-8.47,23.8-13.48" class="stroke" stroke-dasharray="150"><set attributeName="opacity" to="0" dur="6.1000000000000005s" /><animate attributeName="stroke-dashoffset" from="150" to="0" dur="1.8s" begin="6.1000000000000005s" fill="freeze" /></path><path d="M50.09,16.73c1.29,0.52,3.8,0.99,5.17,0.88c7.4-0.58,31.54-3.25,34.51-3.46c1.47-0.1,2.81,1.33,2.5,2.85c-0.77,3.74-2.84,8.02-3.97,13.57" class="stroke" stroke-dasharray="150"><set attributeName="opacity" to="0" dur="7.1000000000000005s" /><animate attributeName="stroke-dashoffset" from="150" to="0" dur="1.8s" begin="7.1000000000000005s" fill="freeze" /></path><path d="M54.29,33.44c3.71-0.17,27.82-2,36.02-3.17" class="stroke" stroke-dasharray="150"><set attributeName="opacity" to="0" dur="8.5s" /><animate attributeName="stroke-dashoffset" from="150" to="0" dur="1.8s" begin="8.5s" fill="freeze" /></path><path d="M53.64,18.29c0,3.1,0.17,9.4,0.15,12.31C53.59,51.62,52,78.25,40.31,91.81" class="stroke" stroke-dasharray="150"><set attributeName="opacity" to="0" dur="9.5s" /><animate attributeName="stroke-dashoffset" from="150" to="0" dur="1.8s" begin="9.5s" fill="freeze" /></path><path d="M55.32,52.18c0.68,0.26,2.52,0.45,4.34,0.27c7.48-0.77,23.58-2.7,33.06-3.22c1.83-0.1,2.29-0.26,3.43,0" class="stroke" stroke-dasharray="150"><set attributeName="opacity" to="0" dur="11.2s" /><animate attributeName="stroke-dashoffset" from="150" to="0" dur="1.8s" begin="11.2s" fill="freeze" /></path><path d="M71.97,35.94c0.63,0.35,1.91,2.09,1.91,4.14c0,12.3-0.13,27.17-0.13,31.79" class="stroke" stroke-dasharray="150"><set attributeName="opacity" to="0" dur="12.299999999999999s" /><animate attributeName="stroke-dashoffset" from="150" to="0" dur="1.8s" begin="12.299999999999999s" fill="freeze" /></path><path d="M57.7,72.67c0.24,0.75,1.06,2.43,1.14,3c0.61,4.14,1.98,13.73,2.83,21.57" class="stroke" stroke-dasharray="150"><set attributeName="opacity" to="0" dur="13.299999999999999s" /><animate attributeName="stroke-dashoffset" from="150" to="0" dur="1.8s" begin="13.299999999999999s" fill="freeze" /></path><path d="M58.93,73.88c6.8-0.83,26.89-3.53,31.53-3.66c1.92-0.05,2.64,1.75,2.38,2.98c-1.01,4.75-2.77,11.96-3.81,18.29" class="stroke" stroke-dasharray="150"><set attributeName="opacity" to="0" dur="14.299999999999999s" /><animate attributeName="stroke-dashoffset" from="150" to="0" dur="1.8s" begin="14.299999999999999s" fill="freeze" /></path><path d="M62.04,94.09c5.62-0.35,21.9-1.54,28.65-1.98" class="stroke" stroke-dasharray="150"><set attributeName="opacity" to="0" dur="15.6s" /><animate attributeName="stroke-dashoffset" from="150" to="0" dur="1.8s" begin="15.6s" fill="freeze" /></path><text x="90" y="120" id="reset-kvg-08e1e">⟳</text><text x="70" y="120" id="pause-kvg-08e1e">◼</text><script type="text/javascript"><![CDATA[function RecurringTimer(e,t){var n,r,i=t;this.pause=function(){window.clearTimeout(n);i-=new Date-r};var s=function(){r=new Date;n=window.setTimeout(function(){i=t;s();e()},i)};this.clear=function(){window.clearTimeout(n);i=t;n=window.setTimeout(function(){i=t;s();e()},i)};this.resume=s;this.resume()}function invoketimer(){timer=new RecurringTimer(function(){svg.setCurrentTime(0)},17600.0)}var svg=document.getElementById("kvg-08e1e");var pause=document.getElementById("pause-kvg-08e1e");var reset=document.getElementById("reset-kvg-08e1e");var timer;invoketimer();reset.onclick=function(){svg.setCurrentTime(0);timer.clear();svg.unpauseAnimations();pause.innerHTML = "◼";};pause.onclick=function(){if(svg.animationsPaused()){svg.unpauseAnimations();timer.resume();pause.innerHTML="◼"}else{svg.pauseAnimations();timer.pause();pause.innerHTML="▶"}}]]></script></svg>