<svg id="kvg-08fef" class="kanjivg" width="106" height="126" xmlns="http://www.w3.org/2000/svg" xmlns:xlink="http://www.w3.org/1999/xlink" xml:space="preserve" version="1.1" baseProfile="full"><defs><style type="text/css"><![CDATA[path.black{fill:none;stroke:black;stroke-width:5;stroke-linecap:round;stroke-linejoin:round;}path.grey{fill:none;stroke:#ddd;stroke-width:5;stroke-linecap:round;stroke-linejoin:round;}path.stroke{fill:none;stroke:black;stroke-width:5;stroke-linecap:round;stroke-linejoin:round;}rect{fill:none;stroke:#555;stroke-width:2;} text{font-size:16px;font-family:Segoe UI Symbol,Cambria Math,DejaVu Sans,Symbola,Quivira,STIX,Code2000;-webkit-touch-callout:none;cursor:pointer;-webkit-user-select:none;-khtml-user-select:none;-moz-user-select:none;-ms-user-select:none;user-select: none;}text:hover{color:#777;}#reset{font-weight:bold;}]]></style><marker id="markerStart" markerWidth="8" markerHeight="8" style="overflow:visible;"><circle cx="0" cy="0" r="1.5" style="stroke:none;fill:red;fill-opacity:0.5;"/></marker><marker id="markerEnd" style="overflow:visible;"><circle cx="0" cy="0" r="0.8" style="stroke:none;fill:blue;fill-opacity:0.5;"><animate attributeName="opacity" from="1" to="0" dur="3s" repeatCount="indefinite" /></circle></marker></defs><rect x="4" y="4" width="100" height="100" /><path d="M51.88,15.28c0.16,0.6,0.58,2.41,0.31,3.59c-1.69,7.38-6.66,23.26-15.45,31.83" class="grey" /><path d="M53.46,27.62c0.24,0.04,1.25-0.07,1.95-0.13c2.59-0.24,6.25-0.77,9.94-2.13c1.65-0.61,2.95,1.35,2.46,2.9C63.52,41.79,50.79,70.23,37,77.12" class="grey" /><path d="M45.36,45.52c2.68,1.43,6.91,5.88,7.58,8.11" class="grey" /><path d="M74.74,12.63c0.54,0.39,1.67,2.92,1.78,3.7c0.11,0.78-0.07,62.93-0.18,67.8" class="grey" /><path d="M79.34,40.7c5.97,2.8,15.42,11.51,16.91,15.87" class="grey" /><path d="M17.46,14c3.9,1.74,10.07,7.17,11.04,9.88" class="grey" /><path d="M12.96,33c4.34,1.61,11.21,6.63,12.29,9.13" class="grey" /><path d="M11,55.94c2.25,0.85,3.75,0.43,4.75,0.21c1-0.21,8-2.99,9.5-3.42c1.5-0.43,3.75,1.07,2.75,2.35s-4.5,6.69-5.25,7.76c-0.75,1.07-0.5,2.99,1,4.48s2.75,3.7,3.5,4.98C28,73.59,28,74.66,26.5,75.73c-1.5,1.07-9.5,7.04-11,7.47" class="grey" /><path d="M11.75,84.57c3.07-0.47,9.2-1.63,13.8-0.7c4.6,0.93,30.75,7.18,35.27,8.38c12.27,3.26,21.73,4.19,30.93,2.56" class="grey" /><path d="M51.88,15.28c0.16,0.6,0.58,2.41,0.31,3.59c-1.69,7.38-6.66,23.26-15.45,31.83" class="stroke" stroke-dasharray="150"><animate attributeName="stroke-dashoffset" from="150" to="0" dur="1.8s" begin="0.0s" fill="freeze" /></path><path d="M53.46,27.62c0.24,0.04,1.25-0.07,1.95-0.13c2.59-0.24,6.25-0.77,9.94-2.13c1.65-0.61,2.95,1.35,2.46,2.9C63.52,41.79,50.79,70.23,37,77.12" class="stroke" stroke-dasharray="150"><set attributeName="opacity" to="0" dur="1.0s" /><animate attributeName="stroke-dashoffset" from="150" to="0" dur="1.8s" begin="1.0s" fill="freeze" /></path><path d="M45.36,45.52c2.68,1.43,6.91,5.88,7.58,8.11" class="stroke" stroke-dasharray="150"><set attributeName="opacity" to="0" dur="2.7s" /><animate attributeName="stroke-dashoffset" from="150" to="0" dur="1.8s" begin="2.7s" fill="freeze" /></path><path d="M74.74,12.63c0.54,0.39,1.67,2.92,1.78,3.7c0.11,0.78-0.07,62.93-0.18,67.8" class="stroke" stroke-dasharray="150"><set attributeName="opacity" to="0" dur="3.6s" /><animate attributeName="stroke-dashoffset" from="150" to="0" dur="1.8s" begin="3.6s" fill="freeze" /></path><path d="M79.34,40.7c5.97,2.8,15.42,11.51,16.91,15.87" class="stroke" stroke-dasharray="150"><set attributeName="opacity" to="0" dur="5.3s" /><animate attributeName="stroke-dashoffset" from="150" to="0" dur="1.8s" begin="5.3s" fill="freeze" /></path><path d="M17.46,14c3.9,1.74,10.07,7.17,11.04,9.88" class="stroke" stroke-dasharray="150"><set attributeName="opacity" to="0" dur="6.3s" /><animate attributeName="stroke-dashoffset" from="150" to="0" dur="1.8s" begin="6.3s" fill="freeze" /></path><path d="M12.96,33c4.34,1.61,11.21,6.63,12.29,9.13" class="stroke" stroke-dasharray="150"><set attributeName="opacity" to="0" dur="7.2s" /><animate attributeName="stroke-dashoffset" from="150" to="0" dur="1.8s" begin="7.2s" fill="freeze" /></path><path d="M11,55.94c2.25,0.85,3.75,0.43,4.75,0.21c1-0.21,8-2.99,9.5-3.42c1.5-0.43,3.75,1.07,2.75,2.35s-4.5,6.69-5.25,7.76c-0.75,1.07-0.5,2.99,1,4.48s2.75,3.7,3.5,4.98C28,73.59,28,74.66,26.5,75.73c-1.5,1.07-9.5,7.04-11,7.47" class="stroke" stroke-dasharray="150"><set attributeName="opacity" to="0" dur="8.1s" /><animate attributeName="stroke-dashoffset" from="150" to="0" dur="1.8s" begin="8.1s" fill="freeze" /></path><path d="M11.75,84.57c3.07-0.47,9.2-1.63,13.8-0.7c4.6,0.93,30.75,7.18,35.27,8.38c12.27,3.26,21.73,4.19,30.93,2.56" class="stroke" stroke-dasharray="150"><set attributeName="opacity" to="0" dur="9.5s" /><animate attributeName="stroke-dashoffset" from="150" to="0" dur="1.8s" begin="9.5s" fill="freeze" /></path><text x="90" y="120" id="reset-kvg-08fef">⟳</text><text x="70" y="120" id="pause-kvg-08fef">◼</text><script type="text/javascript"><![CDATA[function RecurringTimer(e,t){var n,r,i=t;this.pause=function(){window.clearTimeout(n);i-=new Date-r};var s=function(){r=new Date;n=window.setTimeout(function(){i=t;s();e()},i)};this.clear=function(){window.clearTimeout(n);i=t;n=window.setTimeout(function(){i=t;s();e()},i)};this.resume=s;this.resume()}function invoketimer(){timer=new RecurringTimer(function(){svg.setCurrentTime(0)},12200.0)}var svg=document.getElementById("kvg-08fef");var pause=document.getElementById("pause-kvg-08fef");var reset=document.getElementById("reset-kvg-08fef");var timer;invoketimer();reset.onclick=function(){svg.setCurrentTime(0);timer.clear();svg.unpauseAnimations();pause.innerHTML = "◼";};pause.onclick=function(){if(svg.animationsPaused()){svg.unpauseAnimations();timer.resume();pause.innerHTML="◼"}else{svg.pauseAnimations();timer.pause();pause.innerHTML="▶"}}]]></script></svg>