<svg id="kvg-0900f" class="kanjivg" width="106" height="126" xmlns="http://www.w3.org/2000/svg" xmlns:xlink="http://www.w3.org/1999/xlink" xml:space="preserve" version="1.1" baseProfile="full"><defs><style type="text/css"><![CDATA[path.black{fill:none;stroke:black;stroke-width:5;stroke-linecap:round;stroke-linejoin:round;}path.grey{fill:none;stroke:#ddd;stroke-width:5;stroke-linecap:round;stroke-linejoin:round;}path.stroke{fill:none;stroke:black;stroke-width:5;stroke-linecap:round;stroke-linejoin:round;}rect{fill:none;stroke:#555;stroke-width:2;} text{font-size:16px;font-family:Segoe UI Symbol,Cambria Math,DejaVu Sans,Symbola,Quivira,STIX,Code2000;-webkit-touch-callout:none;cursor:pointer;-webkit-user-select:none;-khtml-user-select:none;-moz-user-select:none;-ms-user-select:none;user-select: none;}text:hover{color:#777;}#reset{font-weight:bold;}]]></style><marker id="markerStart" markerWidth="8" markerHeight="8" style="overflow:visible;"><circle cx="0" cy="0" r="1.5" style="stroke:none;fill:red;fill-opacity:0.5;"/></marker><marker id="markerEnd" style="overflow:visible;"><circle cx="0" cy="0" r="0.8" style="stroke:none;fill:blue;fill-opacity:0.5;"><animate attributeName="opacity" from="1" to="0" dur="3s" repeatCount="indefinite" /></circle></marker></defs><rect x="4" y="4" width="100" height="100" /><path d="M73.46,12.25c-0.21,0.88-0.41,1.3-0.97,1.67c-4.12,2.71-10.51,5.51-23.74,8.64" class="grey" /><path d="M39.82,32.17c1.99,0.68,4.27,0.32,6.3,0.13c7.85-0.7,24.75-2.93,36.12-3.7c2.19-0.15,4.62-0.33,6.76,0.11" class="grey" /><path d="M62.66,21.06c0.89,0.89,1.17,2.07,1.17,3.55c0,0.65-0.07,12.64-0.07,20.39c0,1.76,0.02,3.08-0.01,4" class="grey" /><path d="M61.72,31.47c0,1.78-0.99,2.79-2.14,4.28C54.75,42.04,47.55,47.49,37.9,52.2" class="grey" /><path d="M65,31.5c3.75,3.12,12.38,9.5,20.61,14.32c2.28,1.34,4.51,2.93,6.99,3.8" class="grey" /><path d="M59.05,57.5c0.07,1,0.05,2.06-0.38,2.93C55.75,66.25,49.75,75,40.5,80.4" class="grey" /><path d="M49.89,55c1.79,0.6,3.78,0.28,5.61,0.13c6.36-0.53,11.72-1.32,17.76-2.36c2.98-0.52,3.93,0.7,2.65,2.68c-7.96,12.24-9.01,11.17,3.6,8.5c2.11-0.45,3.45,0.44,2.83,2.46c-2.1,6.84-3.85,10.72-8.05,16c-2.48,3.11-5.57,1.05-6.64-0.42" class="grey" /><path d="M17.96,17.75c3.54,1.83,9.16,7.53,10.04,10.38" class="grey" /><path d="M12.5,55.03c2.25,0.94,3.79,0.6,4.75,0.24C20.62,54,25.12,52,27.75,51c1.47-0.56,2.88,1.1,2,2.59c-7.5,12.66-7,8.16,0.5,15.4c1.15,1.11,1.03,2.11-0.25,3.52c-2.5,2.74-8.12,8.24-11.5,10.99" class="grey" /><path d="M14.5,84.33c2.93-0.42,8.97-0.16,13.45-0.13c8.93,0.06,29.4,6.52,33.73,7.61c11.73,2.96,16.57,3.45,27.07,3.58" class="grey" /><path d="M73.46,12.25c-0.21,0.88-0.41,1.3-0.97,1.67c-4.12,2.71-10.51,5.51-23.74,8.64" class="stroke" stroke-dasharray="150"><animate attributeName="stroke-dashoffset" from="150" to="0" dur="1.8s" begin="0.0s" fill="freeze" /></path><path d="M39.82,32.17c1.99,0.68,4.27,0.32,6.3,0.13c7.85-0.7,24.75-2.93,36.12-3.7c2.19-0.15,4.62-0.33,6.76,0.11" class="stroke" stroke-dasharray="150"><set attributeName="opacity" to="0" dur="1.0s" /><animate attributeName="stroke-dashoffset" from="150" to="0" dur="1.8s" begin="1.0s" fill="freeze" /></path><path d="M62.66,21.06c0.89,0.89,1.17,2.07,1.17,3.55c0,0.65-0.07,12.64-0.07,20.39c0,1.76,0.02,3.08-0.01,4" class="stroke" stroke-dasharray="150"><set attributeName="opacity" to="0" dur="2.2s" /><animate attributeName="stroke-dashoffset" from="150" to="0" dur="1.8s" begin="2.2s" fill="freeze" /></path><path d="M61.72,31.47c0,1.78-0.99,2.79-2.14,4.28C54.75,42.04,47.55,47.49,37.9,52.2" class="stroke" stroke-dasharray="150"><set attributeName="opacity" to="0" dur="3.2s" /><animate attributeName="stroke-dashoffset" from="150" to="0" dur="1.8s" begin="3.2s" fill="freeze" /></path><path d="M65,31.5c3.75,3.12,12.38,9.5,20.61,14.32c2.28,1.34,4.51,2.93,6.99,3.8" class="stroke" stroke-dasharray="150"><set attributeName="opacity" to="0" dur="4.2s" /><animate attributeName="stroke-dashoffset" from="150" to="0" dur="1.8s" begin="4.2s" fill="freeze" /></path><path d="M59.05,57.5c0.07,1,0.05,2.06-0.38,2.93C55.75,66.25,49.75,75,40.5,80.4" class="stroke" stroke-dasharray="150"><set attributeName="opacity" to="0" dur="5.2s" /><animate attributeName="stroke-dashoffset" from="150" to="0" dur="1.8s" begin="5.2s" fill="freeze" /></path><path d="M49.89,55c1.79,0.6,3.78,0.28,5.61,0.13c6.36-0.53,11.72-1.32,17.76-2.36c2.98-0.52,3.93,0.7,2.65,2.68c-7.96,12.24-9.01,11.17,3.6,8.5c2.11-0.45,3.45,0.44,2.83,2.46c-2.1,6.84-3.85,10.72-8.05,16c-2.48,3.11-5.57,1.05-6.64-0.42" class="stroke" stroke-dasharray="150"><set attributeName="opacity" to="0" dur="6.2s" /><animate attributeName="stroke-dashoffset" from="150" to="0" dur="1.8s" begin="6.2s" fill="freeze" /></path><path d="M17.96,17.75c3.54,1.83,9.16,7.53,10.04,10.38" class="stroke" stroke-dasharray="150"><set attributeName="opacity" to="0" dur="7.9s" /><animate attributeName="stroke-dashoffset" from="150" to="0" dur="1.8s" begin="7.9s" fill="freeze" /></path><path d="M12.5,55.03c2.25,0.94,3.79,0.6,4.75,0.24C20.62,54,25.12,52,27.75,51c1.47-0.56,2.88,1.1,2,2.59c-7.5,12.66-7,8.16,0.5,15.4c1.15,1.11,1.03,2.11-0.25,3.52c-2.5,2.74-8.12,8.24-11.5,10.99" class="stroke" stroke-dasharray="150"><set attributeName="opacity" to="0" dur="8.8s" /><animate attributeName="stroke-dashoffset" from="150" to="0" dur="1.8s" begin="8.8s" fill="freeze" /></path><path d="M14.5,84.33c2.93-0.42,8.97-0.16,13.45-0.13c8.93,0.06,29.4,6.52,33.73,7.61c11.73,2.96,16.57,3.45,27.07,3.58" class="stroke" stroke-dasharray="150"><set attributeName="opacity" to="0" dur="10.200000000000001s" /><animate attributeName="stroke-dashoffset" from="150" to="0" dur="1.8s" begin="10.200000000000001s" fill="freeze" /></path><text x="90" y="120" id="reset-kvg-0900f">⟳</text><text x="70" y="120" id="pause-kvg-0900f">◼</text><script type="text/javascript"><![CDATA[function RecurringTimer(e,t){var n,r,i=t;this.pause=function(){window.clearTimeout(n);i-=new Date-r};var s=function(){r=new Date;n=window.setTimeout(function(){i=t;s();e()},i)};this.clear=function(){window.clearTimeout(n);i=t;n=window.setTimeout(function(){i=t;s();e()},i)};this.resume=s;this.resume()}function invoketimer(){timer=new RecurringTimer(function(){svg.setCurrentTime(0)},12900.0)}var svg=document.getElementById("kvg-0900f");var pause=document.getElementById("pause-kvg-0900f");var reset=document.getElementById("reset-kvg-0900f");var timer;invoketimer();reset.onclick=function(){svg.setCurrentTime(0);timer.clear();svg.unpauseAnimations();pause.innerHTML = "◼";};pause.onclick=function(){if(svg.animationsPaused()){svg.unpauseAnimations();timer.resume();pause.innerHTML="◼"}else{svg.pauseAnimations();timer.pause();pause.innerHTML="▶"}}]]></script></svg>