<svg id="kvg-0901a" class="kanjivg" width="106" height="126" xmlns="http://www.w3.org/2000/svg" xmlns:xlink="http://www.w3.org/1999/xlink" xml:space="preserve" version="1.1" baseProfile="full"><defs><style type="text/css"><![CDATA[path.black{fill:none;stroke:black;stroke-width:5;stroke-linecap:round;stroke-linejoin:round;}path.grey{fill:none;stroke:#ddd;stroke-width:5;stroke-linecap:round;stroke-linejoin:round;}path.stroke{fill:none;stroke:black;stroke-width:5;stroke-linecap:round;stroke-linejoin:round;}rect{fill:none;stroke:#555;stroke-width:2;} text{font-size:16px;font-family:Segoe UI Symbol,Cambria Math,DejaVu Sans,Symbola,Quivira,STIX,Code2000;-webkit-touch-callout:none;cursor:pointer;-webkit-user-select:none;-khtml-user-select:none;-moz-user-select:none;-ms-user-select:none;user-select: none;}text:hover{color:#777;}#reset{font-weight:bold;}]]></style><marker id="markerStart" markerWidth="8" markerHeight="8" style="overflow:visible;"><circle cx="0" cy="0" r="1.5" style="stroke:none;fill:red;fill-opacity:0.5;"/></marker><marker id="markerEnd" style="overflow:visible;"><circle cx="0" cy="0" r="0.8" style="stroke:none;fill:blue;fill-opacity:0.5;"><animate attributeName="opacity" from="1" to="0" dur="3s" repeatCount="indefinite" /></circle></marker></defs><rect x="4" y="4" width="100" height="100" /><path d="M42.26,16.34c2.02,1.05,3.83,1.18,6.02,0.82c4.89-0.81,17.88-2.68,24.07-3.87c5.4-1.04,5.65,0.21,2.48,3.24c-1.27,1.22-10.89,9.19-12.62,10.4" class="grey" /><path d="M53.25,24.5c2.46,0.84,8.84,4.06,10,6.25" class="grey" /><path d="M42.91,33.72c1,1,1.06,2.28,1.08,3.53c0.1,5.12,0.12,25.25,0.12,34.75c0,2.93,0,4.9,0,5.18" class="grey" /><path d="M45.08,35.4c9.66-1.15,31.03-4.16,32.28-4.28c2.39-0.24,4.44,1.51,4.44,3.58c0,2.68-0.02,28.32-0.02,40.41c0,6.64-3.78,3.39-6.48,0.77" class="grey" /><path d="M45.23,48.8c10.02-1.55,28.02-3.55,35.12-3.88" class="grey" /><path d="M45.23,61.89c8.02-1.14,28.9-3.34,35.27-3.64" class="grey" /><path d="M60.46,35.46c1.04,1.04,1.51,2.54,1.51,4.04c0,5.06,0,24.15-0.09,34c-0.02,2.63-0.05,4.53-0.08,5.22" class="grey" /><path d="M15.21,18.75c3.81,1.32,9.84,5.44,10.79,7.5" class="grey" /><path d="M10.75,52c2.25,1,3.75,0.5,4.75,0.25s6-3.5,8.75-5.25c2.2-1.4,4.55-0.71,1.75,4c-5.5,9.25-5.72,9.46,0.75,14.75c4.12,3.38,3.99,4.09,0.25,6.5c-3.88,2.5-8,5.25-12.5,8.5" class="grey" /><path d="M10.75,83.91c4.5-1.66,9.53-1.34,14.17-1.19c8.83,0.28,30.46,6.62,34.94,7.81c12.15,3.23,21.52,4.15,30.64,2.54" class="grey" /><path d="M42.26,16.34c2.02,1.05,3.83,1.18,6.02,0.82c4.89-0.81,17.88-2.68,24.07-3.87c5.4-1.04,5.65,0.21,2.48,3.24c-1.27,1.22-10.89,9.19-12.62,10.4" class="stroke" stroke-dasharray="150"><animate attributeName="stroke-dashoffset" from="150" to="0" dur="1.8s" begin="0.0s" fill="freeze" /></path><path d="M53.25,24.5c2.46,0.84,8.84,4.06,10,6.25" class="stroke" stroke-dasharray="150"><set attributeName="opacity" to="0" dur="1.4s" /><animate attributeName="stroke-dashoffset" from="150" to="0" dur="1.8s" begin="1.4s" fill="freeze" /></path><path d="M42.91,33.72c1,1,1.06,2.28,1.08,3.53c0.1,5.12,0.12,25.25,0.12,34.75c0,2.93,0,4.9,0,5.18" class="stroke" stroke-dasharray="150"><set attributeName="opacity" to="0" dur="2.3s" /><animate attributeName="stroke-dashoffset" from="150" to="0" dur="1.8s" begin="2.3s" fill="freeze" /></path><path d="M45.08,35.4c9.66-1.15,31.03-4.16,32.28-4.28c2.39-0.24,4.44,1.51,4.44,3.58c0,2.68-0.02,28.32-0.02,40.41c0,6.64-3.78,3.39-6.48,0.77" class="stroke" stroke-dasharray="150"><set attributeName="opacity" to="0" dur="3.4s" /><animate attributeName="stroke-dashoffset" from="150" to="0" dur="1.8s" begin="3.4s" fill="freeze" /></path><path d="M45.23,48.8c10.02-1.55,28.02-3.55,35.12-3.88" class="stroke" stroke-dasharray="150"><set attributeName="opacity" to="0" dur="5.1s" /><animate attributeName="stroke-dashoffset" from="150" to="0" dur="1.8s" begin="5.1s" fill="freeze" /></path><path d="M45.23,61.89c8.02-1.14,28.9-3.34,35.27-3.64" class="stroke" stroke-dasharray="150"><set attributeName="opacity" to="0" dur="6.1s" /><animate attributeName="stroke-dashoffset" from="150" to="0" dur="1.8s" begin="6.1s" fill="freeze" /></path><path d="M60.46,35.46c1.04,1.04,1.51,2.54,1.51,4.04c0,5.06,0,24.15-0.09,34c-0.02,2.63-0.05,4.53-0.08,5.22" class="stroke" stroke-dasharray="150"><set attributeName="opacity" to="0" dur="7.1s" /><animate attributeName="stroke-dashoffset" from="150" to="0" dur="1.8s" begin="7.1s" fill="freeze" /></path><path d="M15.21,18.75c3.81,1.32,9.84,5.44,10.79,7.5" class="stroke" stroke-dasharray="150"><set attributeName="opacity" to="0" dur="8.2s" /><animate attributeName="stroke-dashoffset" from="150" to="0" dur="1.8s" begin="8.2s" fill="freeze" /></path><path d="M10.75,52c2.25,1,3.75,0.5,4.75,0.25s6-3.5,8.75-5.25c2.2-1.4,4.55-0.71,1.75,4c-5.5,9.25-5.72,9.46,0.75,14.75c4.12,3.38,3.99,4.09,0.25,6.5c-3.88,2.5-8,5.25-12.5,8.5" class="stroke" stroke-dasharray="150"><set attributeName="opacity" to="0" dur="9.1s" /><animate attributeName="stroke-dashoffset" from="150" to="0" dur="1.8s" begin="9.1s" fill="freeze" /></path><path d="M10.75,83.91c4.5-1.66,9.53-1.34,14.17-1.19c8.83,0.28,30.46,6.62,34.94,7.81c12.15,3.23,21.52,4.15,30.64,2.54" class="stroke" stroke-dasharray="150"><set attributeName="opacity" to="0" dur="10.6s" /><animate attributeName="stroke-dashoffset" from="150" to="0" dur="1.8s" begin="10.6s" fill="freeze" /></path><text x="90" y="120" id="reset-kvg-0901a">⟳</text><text x="70" y="120" id="pause-kvg-0901a">◼</text><script type="text/javascript"><![CDATA[function RecurringTimer(e,t){var n,r,i=t;this.pause=function(){window.clearTimeout(n);i-=new Date-r};var s=function(){r=new Date;n=window.setTimeout(function(){i=t;s();e()},i)};this.clear=function(){window.clearTimeout(n);i=t;n=window.setTimeout(function(){i=t;s();e()},i)};this.resume=s;this.resume()}function invoketimer(){timer=new RecurringTimer(function(){svg.setCurrentTime(0)},13299.999999999998)}var svg=document.getElementById("kvg-0901a");var pause=document.getElementById("pause-kvg-0901a");var reset=document.getElementById("reset-kvg-0901a");var timer;invoketimer();reset.onclick=function(){svg.setCurrentTime(0);timer.clear();svg.unpauseAnimations();pause.innerHTML = "◼";};pause.onclick=function(){if(svg.animationsPaused()){svg.unpauseAnimations();timer.resume();pause.innerHTML="◼"}else{svg.pauseAnimations();timer.pause();pause.innerHTML="▶"}}]]></script></svg>