<svg id="kvg-0901f" class="kanjivg" width="106" height="126" xmlns="http://www.w3.org/2000/svg" xmlns:xlink="http://www.w3.org/1999/xlink" xml:space="preserve" version="1.1" baseProfile="full"><defs><style type="text/css"><![CDATA[path.black{fill:none;stroke:black;stroke-width:5;stroke-linecap:round;stroke-linejoin:round;}path.grey{fill:none;stroke:#ddd;stroke-width:5;stroke-linecap:round;stroke-linejoin:round;}path.stroke{fill:none;stroke:black;stroke-width:5;stroke-linecap:round;stroke-linejoin:round;}rect{fill:none;stroke:#555;stroke-width:2;} text{font-size:16px;font-family:Segoe UI Symbol,Cambria Math,DejaVu Sans,Symbola,Quivira,STIX,Code2000;-webkit-touch-callout:none;cursor:pointer;-webkit-user-select:none;-khtml-user-select:none;-moz-user-select:none;-ms-user-select:none;user-select: none;}text:hover{color:#777;}#reset{font-weight:bold;}]]></style><marker id="markerStart" markerWidth="8" markerHeight="8" style="overflow:visible;"><circle cx="0" cy="0" r="1.5" style="stroke:none;fill:red;fill-opacity:0.5;"/></marker><marker id="markerEnd" style="overflow:visible;"><circle cx="0" cy="0" r="0.8" style="stroke:none;fill:blue;fill-opacity:0.5;"><animate attributeName="opacity" from="1" to="0" dur="3s" repeatCount="indefinite" /></circle></marker></defs><rect x="4" y="4" width="100" height="100" /><path d="M43.9,24.93c1.61,0.32,4.56,0.52,6.16,0.32c10.94-1.38,25.06-3.63,33.76-4.26c2.67-0.19,4.29-0.1,5.62,0.06" class="grey" /><path d="M46.92,37.15c0.65,0.53,1.04,1.21,1.16,2.03c0.91,3.16,2.09,7.83,2.87,12.3c0.15,0.84,0.28,1.68,0.39,2.49" class="grey" /><path d="M48.75,38.38c10.06-1.37,30.05-4.49,33.98-4.81c2.45-0.2,4,2.05,3.35,3.89c-1.73,4.92-1.9,6.34-3.28,10.1" class="grey" /><path d="M52.25,51.87c8.54-1.06,19.98-2.47,29.02-3.32c1.23-0.12,2.39-0.21,3.48-0.28" class="grey" /><path d="M65.02,10.25c0.99,0.99,1.63,2.36,1.63,3.22c0,3.01,0.06,44.48,0.09,62.53c0,3.85,0.01,6.63,0.01,7.75" class="grey" /><path d="M64.7,51.13c0,0.87-0.34,1.75-1,2.8c-5.36,8.49-15.63,18.92-24.03,23.39" class="grey" /><path d="M70.12,58.25c6,3,15.12,9.5,20.79,17.15" class="grey" /><path d="M20.5,18.88c3.79,1.85,9.8,7.62,10.75,10.51" class="grey" /><path d="M13,50.75c2.25,1,3.75,0.5,4.75,0.25s9.02-3.2,10.5-3.75c2.38-0.88,3.6-0.08,2.25,2.75c-6.12,12.88-6.62,9.5,0.5,18.5c1.04,1.31,0.75,3-0.75,4.25S21.5,80.5,20,81" class="grey" /><path d="M15.5,82.25c3-0.5,8.92-1.24,13.5-0.75c7,0.75,30.07,7.71,34.5,9c12,3.5,16.5,4.5,25.75,5" class="grey" /><path d="M43.9,24.93c1.61,0.32,4.56,0.52,6.16,0.32c10.94-1.38,25.06-3.63,33.76-4.26c2.67-0.19,4.29-0.1,5.62,0.06" class="stroke" stroke-dasharray="150"><animate attributeName="stroke-dashoffset" from="150" to="0" dur="1.8s" begin="0.0s" fill="freeze" /></path><path d="M46.92,37.15c0.65,0.53,1.04,1.21,1.16,2.03c0.91,3.16,2.09,7.83,2.87,12.3c0.15,0.84,0.28,1.68,0.39,2.49" class="stroke" stroke-dasharray="150"><set attributeName="opacity" to="0" dur="1.2s" /><animate attributeName="stroke-dashoffset" from="150" to="0" dur="1.8s" begin="1.2s" fill="freeze" /></path><path d="M48.75,38.38c10.06-1.37,30.05-4.49,33.98-4.81c2.45-0.2,4,2.05,3.35,3.89c-1.73,4.92-1.9,6.34-3.28,10.1" class="stroke" stroke-dasharray="150"><set attributeName="opacity" to="0" dur="2.1s" /><animate attributeName="stroke-dashoffset" from="150" to="0" dur="1.8s" begin="2.1s" fill="freeze" /></path><path d="M52.25,51.87c8.54-1.06,19.98-2.47,29.02-3.32c1.23-0.12,2.39-0.21,3.48-0.28" class="stroke" stroke-dasharray="150"><set attributeName="opacity" to="0" dur="3.4000000000000004s" /><animate attributeName="stroke-dashoffset" from="150" to="0" dur="1.8s" begin="3.4000000000000004s" fill="freeze" /></path><path d="M65.02,10.25c0.99,0.99,1.63,2.36,1.63,3.22c0,3.01,0.06,44.48,0.09,62.53c0,3.85,0.01,6.63,0.01,7.75" class="stroke" stroke-dasharray="150"><set attributeName="opacity" to="0" dur="4.4s" /><animate attributeName="stroke-dashoffset" from="150" to="0" dur="1.8s" begin="4.4s" fill="freeze" /></path><path d="M64.7,51.13c0,0.87-0.34,1.75-1,2.8c-5.36,8.49-15.63,18.92-24.03,23.39" class="stroke" stroke-dasharray="150"><set attributeName="opacity" to="0" dur="6.1000000000000005s" /><animate attributeName="stroke-dashoffset" from="150" to="0" dur="1.8s" begin="6.1000000000000005s" fill="freeze" /></path><path d="M70.12,58.25c6,3,15.12,9.5,20.79,17.15" class="stroke" stroke-dasharray="150"><set attributeName="opacity" to="0" dur="7.1000000000000005s" /><animate attributeName="stroke-dashoffset" from="150" to="0" dur="1.8s" begin="7.1000000000000005s" fill="freeze" /></path><path d="M20.5,18.88c3.79,1.85,9.8,7.62,10.75,10.51" class="stroke" stroke-dasharray="150"><set attributeName="opacity" to="0" dur="8.100000000000001s" /><animate attributeName="stroke-dashoffset" from="150" to="0" dur="1.8s" begin="8.100000000000001s" fill="freeze" /></path><path d="M13,50.75c2.25,1,3.75,0.5,4.75,0.25s9.02-3.2,10.5-3.75c2.38-0.88,3.6-0.08,2.25,2.75c-6.12,12.88-6.62,9.5,0.5,18.5c1.04,1.31,0.75,3-0.75,4.25S21.5,80.5,20,81" class="stroke" stroke-dasharray="150"><set attributeName="opacity" to="0" dur="9.000000000000002s" /><animate attributeName="stroke-dashoffset" from="150" to="0" dur="1.8s" begin="9.000000000000002s" fill="freeze" /></path><path d="M15.5,82.25c3-0.5,8.92-1.24,13.5-0.75c7,0.75,30.07,7.71,34.5,9c12,3.5,16.5,4.5,25.75,5" class="stroke" stroke-dasharray="150"><set attributeName="opacity" to="0" dur="10.500000000000002s" /><animate attributeName="stroke-dashoffset" from="150" to="0" dur="1.8s" begin="10.500000000000002s" fill="freeze" /></path><text x="90" y="120" id="reset-kvg-0901f">⟳</text><text x="70" y="120" id="pause-kvg-0901f">◼</text><script type="text/javascript"><![CDATA[function RecurringTimer(e,t){var n,r,i=t;this.pause=function(){window.clearTimeout(n);i-=new Date-r};var s=function(){r=new Date;n=window.setTimeout(function(){i=t;s();e()},i)};this.clear=function(){window.clearTimeout(n);i=t;n=window.setTimeout(function(){i=t;s();e()},i)};this.resume=s;this.resume()}function invoketimer(){timer=new RecurringTimer(function(){svg.setCurrentTime(0)},13200.000000000002)}var svg=document.getElementById("kvg-0901f");var pause=document.getElementById("pause-kvg-0901f");var reset=document.getElementById("reset-kvg-0901f");var timer;invoketimer();reset.onclick=function(){svg.setCurrentTime(0);timer.clear();svg.unpauseAnimations();pause.innerHTML = "◼";};pause.onclick=function(){if(svg.animationsPaused()){svg.unpauseAnimations();timer.resume();pause.innerHTML="◼"}else{svg.pauseAnimations();timer.pause();pause.innerHTML="▶"}}]]></script></svg>