<svg id="kvg-0904d-Kaisho" class="kanjivg" width="106" height="126" xmlns="http://www.w3.org/2000/svg" xmlns:xlink="http://www.w3.org/1999/xlink" xml:space="preserve" version="1.1" baseProfile="full"><defs><style type="text/css"><![CDATA[path.black{fill:none;stroke:black;stroke-width:5;stroke-linecap:round;stroke-linejoin:round;}path.grey{fill:none;stroke:#ddd;stroke-width:5;stroke-linecap:round;stroke-linejoin:round;}path.stroke{fill:none;stroke:black;stroke-width:5;stroke-linecap:round;stroke-linejoin:round;}rect{fill:none;stroke:#555;stroke-width:2;} text{font-size:16px;font-family:Segoe UI Symbol,Cambria Math,DejaVu Sans,Symbola,Quivira,STIX,Code2000;-webkit-touch-callout:none;cursor:pointer;-webkit-user-select:none;-khtml-user-select:none;-moz-user-select:none;-ms-user-select:none;user-select: none;}text:hover{color:#777;}#reset{font-weight:bold;}]]></style><marker id="markerStart" markerWidth="8" markerHeight="8" style="overflow:visible;"><circle cx="0" cy="0" r="1.5" style="stroke:none;fill:red;fill-opacity:0.5;"/></marker><marker id="markerEnd" style="overflow:visible;"><circle cx="0" cy="0" r="0.8" style="stroke:none;fill:blue;fill-opacity:0.5;"><animate attributeName="opacity" from="1" to="0" dur="3s" repeatCount="indefinite" /></circle></marker></defs><rect x="4" y="4" width="100" height="100" /><path d="M45.22,16.18c0.67,0.24,1.9,0.27,2.57,0.24c6.98-0.28,27.34-2.99,33.48-3.26c1.12-0.05,1.79,0.11,2.35,0.23" class="grey" /><path d="M47.01,28.31c1.49,0.44,1.96,0.54,3.25,0.47c8.75-0.45,26.15-3.31,32.1-4.12c1.27-0.17,3.04,1.31,2.57,3.56c-0.84,4-1.93,5.85-3.04,9.76" class="grey" /><path d="M48.86,42.13c5.24-0.24,26.05-3.01,35.26-3.83" class="grey" /><path d="M48.98,28.96c0.04,1.02-0.09,2.63-0.08,4.1c0.13,18.53-4.78,31.87-13.02,39.68" class="grey" /><path d="M50.15,53.22c0.41,0.48,0.69,1.24,0.55,2.1c-0.18,1.11,0.12,24.58,0.12,26.18" class="grey" /><path d="M51.07,54.8c5.24-0.38,34.21-3.89,35.24-4.02c2.21-0.29,3.13,1.76,3.21,2.26C90.25,57.5,89.15,76.9,88.51,79c-1.18,3.87-2.34,1.81-4,0.57" class="grey" /><path d="M50.86,66.27c5.99-0.29,25.09-2.43,38.19-2.62" class="grey" /><path d="M61.43,55.79c0.77,0.2,1.24,0.89,1.39,1.29c0.15,0.4,0,20.37-0.15,22.85" class="grey" /><path d="M73.5,53.98c0.77,0.2,1.23,0.89,1.39,1.29c0.16,0.4,0,21.72-0.16,24.2" class="grey" /><path d="M16.71,21.75C20.69,23.23,27,27.83,28,30.13" class="grey" /><path d="M13,50.39c2.25,0.91,3.75,0.45,4.75,0.23c1-0.23,9-3.67,10.5-4.12s3.25,1.13,2.25,2.49s-6,7.07-6.75,8.2c-0.75,1.13-0.5,3.17,1,4.76c1.5,1.58,4.25,3.4,5,4.76c0.75,1.36,0.75,2.49-0.75,3.62s-10.75,8.93-14.5,11.43" class="grey" /><path d="M10.25,83.46c3.2-0.48,9.6-1.68,14.41-0.72c4.8,0.96,32.09,7.41,36.81,8.65c12.8,3.37,22.68,4.33,32.28,2.64" class="grey" /><path d="M45.22,16.18c0.67,0.24,1.9,0.27,2.57,0.24c6.98-0.28,27.34-2.99,33.48-3.26c1.12-0.05,1.79,0.11,2.35,0.23" class="stroke" stroke-dasharray="150"><animate attributeName="stroke-dashoffset" from="150" to="0" dur="1.8s" begin="0.0s" fill="freeze" /></path><path d="M47.01,28.31c1.49,0.44,1.96,0.54,3.25,0.47c8.75-0.45,26.15-3.31,32.1-4.12c1.27-0.17,3.04,1.31,2.57,3.56c-0.84,4-1.93,5.85-3.04,9.76" class="stroke" stroke-dasharray="150"><set attributeName="opacity" to="0" dur="1.0s" /><animate attributeName="stroke-dashoffset" from="150" to="0" dur="1.8s" begin="1.0s" fill="freeze" /></path><path d="M48.86,42.13c5.24-0.24,26.05-3.01,35.26-3.83" class="stroke" stroke-dasharray="150"><set attributeName="opacity" to="0" dur="2.3s" /><animate attributeName="stroke-dashoffset" from="150" to="0" dur="1.8s" begin="2.3s" fill="freeze" /></path><path d="M48.98,28.96c0.04,1.02-0.09,2.63-0.08,4.1c0.13,18.53-4.78,31.87-13.02,39.68" class="stroke" stroke-dasharray="150"><set attributeName="opacity" to="0" dur="3.3s" /><animate attributeName="stroke-dashoffset" from="150" to="0" dur="1.8s" begin="3.3s" fill="freeze" /></path><path d="M50.15,53.22c0.41,0.48,0.69,1.24,0.55,2.1c-0.18,1.11,0.12,24.58,0.12,26.18" class="stroke" stroke-dasharray="150"><set attributeName="opacity" to="0" dur="4.5s" /><animate attributeName="stroke-dashoffset" from="150" to="0" dur="1.8s" begin="4.5s" fill="freeze" /></path><path d="M51.07,54.8c5.24-0.38,34.21-3.89,35.24-4.02c2.21-0.29,3.13,1.76,3.21,2.26C90.25,57.5,89.15,76.9,88.51,79c-1.18,3.87-2.34,1.81-4,0.57" class="stroke" stroke-dasharray="150"><set attributeName="opacity" to="0" dur="5.5s" /><animate attributeName="stroke-dashoffset" from="150" to="0" dur="1.8s" begin="5.5s" fill="freeze" /></path><path d="M50.86,66.27c5.99-0.29,25.09-2.43,38.19-2.62" class="stroke" stroke-dasharray="150"><set attributeName="opacity" to="0" dur="7.2s" /><animate attributeName="stroke-dashoffset" from="150" to="0" dur="1.8s" begin="7.2s" fill="freeze" /></path><path d="M61.43,55.79c0.77,0.2,1.24,0.89,1.39,1.29c0.15,0.4,0,20.37-0.15,22.85" class="stroke" stroke-dasharray="150"><set attributeName="opacity" to="0" dur="8.2s" /><animate attributeName="stroke-dashoffset" from="150" to="0" dur="1.8s" begin="8.2s" fill="freeze" /></path><path d="M73.5,53.98c0.77,0.2,1.23,0.89,1.39,1.29c0.16,0.4,0,21.72-0.16,24.2" class="stroke" stroke-dasharray="150"><set attributeName="opacity" to="0" dur="9.2s" /><animate attributeName="stroke-dashoffset" from="150" to="0" dur="1.8s" begin="9.2s" fill="freeze" /></path><path d="M16.71,21.75C20.69,23.23,27,27.83,28,30.13" class="stroke" stroke-dasharray="150"><set attributeName="opacity" to="0" dur="10.2s" /><animate attributeName="stroke-dashoffset" from="150" to="0" dur="1.8s" begin="10.2s" fill="freeze" /></path><path d="M13,50.39c2.25,0.91,3.75,0.45,4.75,0.23c1-0.23,9-3.67,10.5-4.12s3.25,1.13,2.25,2.49s-6,7.07-6.75,8.2c-0.75,1.13-0.5,3.17,1,4.76c1.5,1.58,4.25,3.4,5,4.76c0.75,1.36,0.75,2.49-0.75,3.62s-10.75,8.93-14.5,11.43" class="stroke" stroke-dasharray="150"><set attributeName="opacity" to="0" dur="11.1s" /><animate attributeName="stroke-dashoffset" from="150" to="0" dur="1.8s" begin="11.1s" fill="freeze" /></path><path d="M10.25,83.46c3.2-0.48,9.6-1.68,14.41-0.72c4.8,0.96,32.09,7.41,36.81,8.65c12.8,3.37,22.68,4.33,32.28,2.64" class="stroke" stroke-dasharray="150"><set attributeName="opacity" to="0" dur="12.6s" /><animate attributeName="stroke-dashoffset" from="150" to="0" dur="1.8s" begin="12.6s" fill="freeze" /></path><text x="90" y="120" id="reset-kvg-0904d-Kaisho">⟳</text><text x="70" y="120" id="pause-kvg-0904d-Kaisho">◼</text><script type="text/javascript"><![CDATA[function RecurringTimer(e,t){var n,r,i=t;this.pause=function(){window.clearTimeout(n);i-=new Date-r};var s=function(){r=new Date;n=window.setTimeout(function(){i=t;s();e()},i)};this.clear=function(){window.clearTimeout(n);i=t;n=window.setTimeout(function(){i=t;s();e()},i)};this.resume=s;this.resume()}function invoketimer(){timer=new RecurringTimer(function(){svg.setCurrentTime(0)},15299.999999999998)}var svg=document.getElementById("kvg-0904d-Kaisho");var pause=document.getElementById("pause-kvg-0904d-Kaisho");var reset=document.getElementById("reset-kvg-0904d-Kaisho");var timer;invoketimer();reset.onclick=function(){svg.setCurrentTime(0);timer.clear();svg.unpauseAnimations();pause.innerHTML = "◼";};pause.onclick=function(){if(svg.animationsPaused()){svg.unpauseAnimations();timer.resume();pause.innerHTML="◼"}else{svg.pauseAnimations();timer.pause();pause.innerHTML="▶"}}]]></script></svg>