<svg id="kvg-0905c-Hyougai" class="kanjivg" width="106" height="126" xmlns="http://www.w3.org/2000/svg" xmlns:xlink="http://www.w3.org/1999/xlink" xml:space="preserve" version="1.1" baseProfile="full"><defs><style type="text/css"><![CDATA[path.black{fill:none;stroke:black;stroke-width:5;stroke-linecap:round;stroke-linejoin:round;}path.grey{fill:none;stroke:#ddd;stroke-width:5;stroke-linecap:round;stroke-linejoin:round;}path.stroke{fill:none;stroke:black;stroke-width:5;stroke-linecap:round;stroke-linejoin:round;}rect{fill:none;stroke:#555;stroke-width:2;} text{font-size:16px;font-family:Segoe UI Symbol,Cambria Math,DejaVu Sans,Symbola,Quivira,STIX,Code2000;-webkit-touch-callout:none;cursor:pointer;-webkit-user-select:none;-khtml-user-select:none;-moz-user-select:none;-ms-user-select:none;user-select: none;}text:hover{color:#777;}#reset{font-weight:bold;}]]></style><marker id="markerStart" markerWidth="8" markerHeight="8" style="overflow:visible;"><circle cx="0" cy="0" r="1.5" style="stroke:none;fill:red;fill-opacity:0.5;"/></marker><marker id="markerEnd" style="overflow:visible;"><circle cx="0" cy="0" r="0.8" style="stroke:none;fill:blue;fill-opacity:0.5;"><animate attributeName="opacity" from="1" to="0" dur="3s" repeatCount="indefinite" /></circle></marker></defs><rect x="4" y="4" width="100" height="100" /><path d="M34.62,19.85c1.95,0.51,3.91,0.6,5.9,0.25c4.54-0.82,11.92-2.35,14.72-2.81c2.69-0.44,3.18,1.22,1.75,2.95c-2.1,2.52-8.09,9.19-10.76,11.74" class="grey" /><path d="M44.26,31.49c8.99,6.51,11.77,23.08,7.29,39.73c-2.41,8.97-7.8,3.28-9.18,1.65" class="grey" /><path d="M35.5,54.98c1.03,0.75,2.25,0.62,3.79-0.43c6.77-4.66,9.6-6.43,18.67-13.44" class="grey" /><path d="M87.78,12.14c-0.14,1.12-0.66,1.88-1.55,2.28c-4.48,2.62-9.41,4.84-20.7,8.45" class="grey" /><path d="M76.45,22.24c0.27,0.91,0.16,1.8-0.64,2.58c-4.3,4.18-5.96,6.2-8.57,8.81c-1.07,1.08-0.99,2.29,0.35,3.06c3.15,1.81,4.78,2.56,7.65,4.44" class="grey" /><path d="M88.19,29.29c0,1.21-0.49,2.13-1,2.67c-7.41,7.94-11.82,11.51-21.31,19.92c-1.4,1.24-1.75,3.08,0.71,2.5c6.11-1.43,14.98-3.17,22.48-4.46" class="grey" /><path d="M86.71,42.64c2.5,2.36,6.45,9.44,7.07,13.1" class="grey" /><path d="M77.4,55.18c0.83,0.83,1.14,1.82,1.14,3.27c0,4.73,0.01,13.62,0.01,19.18c0,2.26,0,3.97,0,4.62" class="grey" /><path d="M67.92,64.24c0,1.01-0.29,1.76-0.9,2.64c-1.95,2.84-5.82,8.09-8.38,10.6" class="grey" /><path d="M88.17,63.11c3.33,2.89,7.58,9.64,8.33,14.18" class="grey" /><path d="M15.71,17.75c3.63,1.74,9.38,7.17,10.29,9.88" class="grey" /><path d="M10.5,47c2.17,0.52,4.3,0.49,6.39-0.09c2.58-0.81,7.88-2.5,9.11-2.91c2.93-0.98,4.07,0.89,2.5,3.25c-1,1.5-6,7.75-6.75,9c-1.26,2.1-0.66,3.32,1,5.25c1.5,1.75,2,2.25,3,3.75c0.93,1.4,0.49,2.49-0.75,4c-3.5,4.25-5.25,6.12-8,8.75" class="grey" /><path d="M11.75,79.61C30.38,76,44,83.12,62.36,88.9c12.61,3.97,19.02,5.22,29.39,5.02" class="grey" /><path d="M34.62,19.85c1.95,0.51,3.91,0.6,5.9,0.25c4.54-0.82,11.92-2.35,14.72-2.81c2.69-0.44,3.18,1.22,1.75,2.95c-2.1,2.52-8.09,9.19-10.76,11.74" class="stroke" stroke-dasharray="150"><animate attributeName="stroke-dashoffset" from="150" to="0" dur="1.8s" begin="0.0s" fill="freeze" /></path><path d="M44.26,31.49c8.99,6.51,11.77,23.08,7.29,39.73c-2.41,8.97-7.8,3.28-9.18,1.65" class="stroke" stroke-dasharray="150"><set attributeName="opacity" to="0" dur="1.1s" /><animate attributeName="stroke-dashoffset" from="150" to="0" dur="1.8s" begin="1.1s" fill="freeze" /></path><path d="M35.5,54.98c1.03,0.75,2.25,0.62,3.79-0.43c6.77-4.66,9.6-6.43,18.67-13.44" class="stroke" stroke-dasharray="150"><set attributeName="opacity" to="0" dur="2.5s" /><animate attributeName="stroke-dashoffset" from="150" to="0" dur="1.8s" begin="2.5s" fill="freeze" /></path><path d="M87.78,12.14c-0.14,1.12-0.66,1.88-1.55,2.28c-4.48,2.62-9.41,4.84-20.7,8.45" class="stroke" stroke-dasharray="150"><set attributeName="opacity" to="0" dur="3.5s" /><animate attributeName="stroke-dashoffset" from="150" to="0" dur="1.8s" begin="3.5s" fill="freeze" /></path><path d="M76.45,22.24c0.27,0.91,0.16,1.8-0.64,2.58c-4.3,4.18-5.96,6.2-8.57,8.81c-1.07,1.08-0.99,2.29,0.35,3.06c3.15,1.81,4.78,2.56,7.65,4.44" class="stroke" stroke-dasharray="150"><set attributeName="opacity" to="0" dur="4.5s" /><animate attributeName="stroke-dashoffset" from="150" to="0" dur="1.8s" begin="4.5s" fill="freeze" /></path><path d="M88.19,29.29c0,1.21-0.49,2.13-1,2.67c-7.41,7.94-11.82,11.51-21.31,19.92c-1.4,1.24-1.75,3.08,0.71,2.5c6.11-1.43,14.98-3.17,22.48-4.46" class="stroke" stroke-dasharray="150"><set attributeName="opacity" to="0" dur="5.5s" /><animate attributeName="stroke-dashoffset" from="150" to="0" dur="1.8s" begin="5.5s" fill="freeze" /></path><path d="M86.71,42.64c2.5,2.36,6.45,9.44,7.07,13.1" class="stroke" stroke-dasharray="150"><set attributeName="opacity" to="0" dur="6.9s" /><animate attributeName="stroke-dashoffset" from="150" to="0" dur="1.8s" begin="6.9s" fill="freeze" /></path><path d="M77.4,55.18c0.83,0.83,1.14,1.82,1.14,3.27c0,4.73,0.01,13.62,0.01,19.18c0,2.26,0,3.97,0,4.62" class="stroke" stroke-dasharray="150"><set attributeName="opacity" to="0" dur="7.800000000000001s" /><animate attributeName="stroke-dashoffset" from="150" to="0" dur="1.8s" begin="7.800000000000001s" fill="freeze" /></path><path d="M67.92,64.24c0,1.01-0.29,1.76-0.9,2.64c-1.95,2.84-5.82,8.09-8.38,10.6" class="stroke" stroke-dasharray="150"><set attributeName="opacity" to="0" dur="8.8s" /><animate attributeName="stroke-dashoffset" from="150" to="0" dur="1.8s" begin="8.8s" fill="freeze" /></path><path d="M88.17,63.11c3.33,2.89,7.58,9.64,8.33,14.18" class="stroke" stroke-dasharray="150"><set attributeName="opacity" to="0" dur="9.700000000000001s" /><animate attributeName="stroke-dashoffset" from="150" to="0" dur="1.8s" begin="9.700000000000001s" fill="freeze" /></path><path d="M15.71,17.75c3.63,1.74,9.38,7.17,10.29,9.88" class="stroke" stroke-dasharray="150"><set attributeName="opacity" to="0" dur="10.600000000000001s" /><animate attributeName="stroke-dashoffset" from="150" to="0" dur="1.8s" begin="10.600000000000001s" fill="freeze" /></path><path d="M10.5,47c2.17,0.52,4.3,0.49,6.39-0.09c2.58-0.81,7.88-2.5,9.11-2.91c2.93-0.98,4.07,0.89,2.5,3.25c-1,1.5-6,7.75-6.75,9c-1.26,2.1-0.66,3.32,1,5.25c1.5,1.75,2,2.25,3,3.75c0.93,1.4,0.49,2.49-0.75,4c-3.5,4.25-5.25,6.12-8,8.75" class="stroke" stroke-dasharray="150"><set attributeName="opacity" to="0" dur="11.500000000000002s" /><animate attributeName="stroke-dashoffset" from="150" to="0" dur="1.8s" begin="11.500000000000002s" fill="freeze" /></path><path d="M11.75,79.61C30.38,76,44,83.12,62.36,88.9c12.61,3.97,19.02,5.22,29.39,5.02" class="stroke" stroke-dasharray="150"><set attributeName="opacity" to="0" dur="13.000000000000002s" /><animate attributeName="stroke-dashoffset" from="150" to="0" dur="1.8s" begin="13.000000000000002s" fill="freeze" /></path><text x="90" y="120" id="reset-kvg-0905c-Hyougai">⟳</text><text x="70" y="120" id="pause-kvg-0905c-Hyougai">◼</text><script type="text/javascript"><![CDATA[function RecurringTimer(e,t){var n,r,i=t;this.pause=function(){window.clearTimeout(n);i-=new Date-r};var s=function(){r=new Date;n=window.setTimeout(function(){i=t;s();e()},i)};this.clear=function(){window.clearTimeout(n);i=t;n=window.setTimeout(function(){i=t;s();e()},i)};this.resume=s;this.resume()}function invoketimer(){timer=new RecurringTimer(function(){svg.setCurrentTime(0)},15700.000000000002)}var svg=document.getElementById("kvg-0905c-Hyougai");var pause=document.getElementById("pause-kvg-0905c-Hyougai");var reset=document.getElementById("reset-kvg-0905c-Hyougai");var timer;invoketimer();reset.onclick=function(){svg.setCurrentTime(0);timer.clear();svg.unpauseAnimations();pause.innerHTML = "◼";};pause.onclick=function(){if(svg.animationsPaused()){svg.unpauseAnimations();timer.resume();pause.innerHTML="◼"}else{svg.pauseAnimations();timer.pause();pause.innerHTML="▶"}}]]></script></svg>