<svg id="kvg-090e8" class="kanjivg" width="106" height="126" xmlns="http://www.w3.org/2000/svg" xmlns:xlink="http://www.w3.org/1999/xlink" xml:space="preserve" version="1.1" baseProfile="full"><defs><style type="text/css"><![CDATA[path.black{fill:none;stroke:black;stroke-width:5;stroke-linecap:round;stroke-linejoin:round;}path.grey{fill:none;stroke:#ddd;stroke-width:5;stroke-linecap:round;stroke-linejoin:round;}path.stroke{fill:none;stroke:black;stroke-width:5;stroke-linecap:round;stroke-linejoin:round;}rect{fill:none;stroke:#555;stroke-width:2;} text{font-size:16px;font-family:Segoe UI Symbol,Cambria Math,DejaVu Sans,Symbola,Quivira,STIX,Code2000;-webkit-touch-callout:none;cursor:pointer;-webkit-user-select:none;-khtml-user-select:none;-moz-user-select:none;-ms-user-select:none;user-select: none;}text:hover{color:#777;}#reset{font-weight:bold;}]]></style><marker id="markerStart" markerWidth="8" markerHeight="8" style="overflow:visible;"><circle cx="0" cy="0" r="1.5" style="stroke:none;fill:red;fill-opacity:0.5;"/></marker><marker id="markerEnd" style="overflow:visible;"><circle cx="0" cy="0" r="0.8" style="stroke:none;fill:blue;fill-opacity:0.5;"><animate attributeName="opacity" from="1" to="0" dur="3s" repeatCount="indefinite" /></circle></marker></defs><rect x="4" y="4" width="100" height="100" /><path d="M35.6,13.25c0.88,0.66,1.32,1.91,1.32,3.45s0,4.63,0,8.81" class="grey" /><path d="M16.79,27.98c1.81,0.51,3.75,0.46,5.6,0.34c6.87-0.44,18.87-2.19,26.99-3.98c2.05-0.45,4.15-0.46,6.23-0.11" class="grey" /><path d="M23.64,32.15c3.38,4.42,4.91,8.93,5.21,11.84" class="grey" /><path d="M47.75,28c0.38,0.75,0.5,1.93,0.19,2.78c-1.81,4.96-4.31,11.09-5.87,14.25" class="grey" /><path d="M12.67,50.39c2.29,0.61,4.53,0.3,6.84,0.04C30.98,49.12,39,47.72,52.13,47c2.61-0.14,5.12-0.24,7.71,0.18" class="grey" /><path d="M22.16,63.08c0.8,0.64,1.26,1.47,1.38,2.49c0.98,3.6,1.97,10.3,2.75,15.78c0.19,1.31,0.36,2.54,0.52,3.65" class="grey" /><path d="M24.07,64.38c7.15-1.03,17.57-2.36,23.07-3.05c2.61-0.33,4.48,1.05,3.95,3.84c-0.84,4.42-2.09,10.38-3.34,15.32" class="grey" /><path d="M28.25,83.78c4.48-0.45,11.21-1.17,17.99-1.87c1.28-0.13,2.52-0.27,3.68-0.4" class="grey" /><path d="M65.27,19.39c1.23,0.61,2.76,0.57,4.23,0.47c6.16-0.43,14.88-1.86,19.33-2.89c3.26-0.75,5.42,0.28,3.92,4.28c-1,2.66-7.62,12.88-12.1,19.23" class="grey" /><path d="M80.65,40.73c20.48,10.02,17.48,43.14,4.65,31.63" class="grey" /><path d="M67.37,20.14c0.74,0.74,1.07,2.1,1.07,3.19c0,2.91,0.02,49.64,0.02,68.04c0,2.4,0,4.31,0,5.59" class="grey" /><path d="M35.6,13.25c0.88,0.66,1.32,1.91,1.32,3.45s0,4.63,0,8.81" class="stroke" stroke-dasharray="150"><animate attributeName="stroke-dashoffset" from="150" to="0" dur="1.8s" begin="0.0s" fill="freeze" /></path><path d="M16.79,27.98c1.81,0.51,3.75,0.46,5.6,0.34c6.87-0.44,18.87-2.19,26.99-3.98c2.05-0.45,4.15-0.46,6.23-0.11" class="stroke" stroke-dasharray="150"><set attributeName="opacity" to="0" dur="0.9s" /><animate attributeName="stroke-dashoffset" from="150" to="0" dur="1.8s" begin="0.9s" fill="freeze" /></path><path d="M23.64,32.15c3.38,4.42,4.91,8.93,5.21,11.84" class="stroke" stroke-dasharray="150"><set attributeName="opacity" to="0" dur="1.9s" /><animate attributeName="stroke-dashoffset" from="150" to="0" dur="1.8s" begin="1.9s" fill="freeze" /></path><path d="M47.75,28c0.38,0.75,0.5,1.93,0.19,2.78c-1.81,4.96-4.31,11.09-5.87,14.25" class="stroke" stroke-dasharray="150"><set attributeName="opacity" to="0" dur="2.8s" /><animate attributeName="stroke-dashoffset" from="150" to="0" dur="1.8s" begin="2.8s" fill="freeze" /></path><path d="M12.67,50.39c2.29,0.61,4.53,0.3,6.84,0.04C30.98,49.12,39,47.72,52.13,47c2.61-0.14,5.12-0.24,7.71,0.18" class="stroke" stroke-dasharray="150"><set attributeName="opacity" to="0" dur="3.6999999999999997s" /><animate attributeName="stroke-dashoffset" from="150" to="0" dur="1.8s" begin="3.6999999999999997s" fill="freeze" /></path><path d="M22.16,63.08c0.8,0.64,1.26,1.47,1.38,2.49c0.98,3.6,1.97,10.3,2.75,15.78c0.19,1.31,0.36,2.54,0.52,3.65" class="stroke" stroke-dasharray="150"><set attributeName="opacity" to="0" dur="4.8999999999999995s" /><animate attributeName="stroke-dashoffset" from="150" to="0" dur="1.8s" begin="4.8999999999999995s" fill="freeze" /></path><path d="M24.07,64.38c7.15-1.03,17.57-2.36,23.07-3.05c2.61-0.33,4.48,1.05,3.95,3.84c-0.84,4.42-2.09,10.38-3.34,15.32" class="stroke" stroke-dasharray="150"><set attributeName="opacity" to="0" dur="5.8999999999999995s" /><animate attributeName="stroke-dashoffset" from="150" to="0" dur="1.8s" begin="5.8999999999999995s" fill="freeze" /></path><path d="M28.25,83.78c4.48-0.45,11.21-1.17,17.99-1.87c1.28-0.13,2.52-0.27,3.68-0.4" class="stroke" stroke-dasharray="150"><set attributeName="opacity" to="0" dur="7.1s" /><animate attributeName="stroke-dashoffset" from="150" to="0" dur="1.8s" begin="7.1s" fill="freeze" /></path><path d="M65.27,19.39c1.23,0.61,2.76,0.57,4.23,0.47c6.16-0.43,14.88-1.86,19.33-2.89c3.26-0.75,5.42,0.28,3.92,4.28c-1,2.66-7.62,12.88-12.1,19.23" class="stroke" stroke-dasharray="150"><set attributeName="opacity" to="0" dur="8.1s" /><animate attributeName="stroke-dashoffset" from="150" to="0" dur="1.8s" begin="8.1s" fill="freeze" /></path><path d="M80.65,40.73c20.48,10.02,17.48,43.14,4.65,31.63" class="stroke" stroke-dasharray="150"><set attributeName="opacity" to="0" dur="9.4s" /><animate attributeName="stroke-dashoffset" from="150" to="0" dur="1.8s" begin="9.4s" fill="freeze" /></path><path d="M67.37,20.14c0.74,0.74,1.07,2.1,1.07,3.19c0,2.91,0.02,49.64,0.02,68.04c0,2.4,0,4.31,0,5.59" class="stroke" stroke-dasharray="150"><set attributeName="opacity" to="0" dur="10.6s" /><animate attributeName="stroke-dashoffset" from="150" to="0" dur="1.8s" begin="10.6s" fill="freeze" /></path><text x="90" y="120" id="reset-kvg-090e8">⟳</text><text x="70" y="120" id="pause-kvg-090e8">◼</text><script type="text/javascript"><![CDATA[function RecurringTimer(e,t){var n,r,i=t;this.pause=function(){window.clearTimeout(n);i-=new Date-r};var s=function(){r=new Date;n=window.setTimeout(function(){i=t;s();e()},i)};this.clear=function(){window.clearTimeout(n);i=t;n=window.setTimeout(function(){i=t;s();e()},i)};this.resume=s;this.resume()}function invoketimer(){timer=new RecurringTimer(function(){svg.setCurrentTime(0)},13299.999999999998)}var svg=document.getElementById("kvg-090e8");var pause=document.getElementById("pause-kvg-090e8");var reset=document.getElementById("reset-kvg-090e8");var timer;invoketimer();reset.onclick=function(){svg.setCurrentTime(0);timer.clear();svg.unpauseAnimations();pause.innerHTML = "◼";};pause.onclick=function(){if(svg.animationsPaused()){svg.unpauseAnimations();timer.resume();pause.innerHTML="◼"}else{svg.pauseAnimations();timer.pause();pause.innerHTML="▶"}}]]></script></svg>