<svg id="kvg-091f5" class="kanjivg" width="106" height="126" xmlns="http://www.w3.org/2000/svg" xmlns:xlink="http://www.w3.org/1999/xlink" xml:space="preserve" version="1.1" baseProfile="full"><defs><style type="text/css"><![CDATA[path.black{fill:none;stroke:black;stroke-width:5;stroke-linecap:round;stroke-linejoin:round;}path.grey{fill:none;stroke:#ddd;stroke-width:5;stroke-linecap:round;stroke-linejoin:round;}path.stroke{fill:none;stroke:black;stroke-width:5;stroke-linecap:round;stroke-linejoin:round;}rect{fill:none;stroke:#555;stroke-width:2;} text{font-size:16px;font-family:Segoe UI Symbol,Cambria Math,DejaVu Sans,Symbola,Quivira,STIX,Code2000;-webkit-touch-callout:none;cursor:pointer;-webkit-user-select:none;-khtml-user-select:none;-moz-user-select:none;-ms-user-select:none;user-select: none;}text:hover{color:#777;}#reset{font-weight:bold;}]]></style><marker id="markerStart" markerWidth="8" markerHeight="8" style="overflow:visible;"><circle cx="0" cy="0" r="1.5" style="stroke:none;fill:red;fill-opacity:0.5;"/></marker><marker id="markerEnd" style="overflow:visible;"><circle cx="0" cy="0" r="0.8" style="stroke:none;fill:blue;fill-opacity:0.5;"><animate attributeName="opacity" from="1" to="0" dur="3s" repeatCount="indefinite" /></circle></marker></defs><rect x="4" y="4" width="100" height="100" /><path d="M32.75,12.24c0,0.92,0.06,1.66-0.16,2.77c-1.13,5.78-11.9,25.06-21.11,33.61" class="grey" /><path d="M34.64,21.21c3.84,1.83,8.74,6.68,10.61,11.29" class="grey" /><path d="M22,41.5c1.5,0,2.18,0.09,2.67,0.06C29,41.24,35,40.03,40.1,39.8c0.74-0.03,0.9-0.05,2.15-0.05" class="grey" /><path d="M13.59,55.81c0.64,0.33,2.76,0.48,3.41,0.43c5.91-0.49,17.25-1.99,24.52-3.17c0.79-0.13,2.56-0.13,3.75,0.15" class="grey" /><path d="M29.45,43.69c1.24,0.78,1.24,2.52,1.24,3.14c0,4.35,0.62,32.63,0.31,36.98" class="grey" /><path d="M15.14,66.01c3.93,5.13,5.85,10.69,6.65,13.69" class="grey" /><path d="M44.2,60.05c0.3,0.84,0.46,2.06,0.34,2.76c-0.3,1.81-2.71,6.13-6.12,11.47" class="grey" /><path d="M13.5,90.31c1.27,0.92,2.8,0.69,4.58,0.23c1.32-0.34,12.95-5.78,26.17-11.29" class="grey" /><path d="M50.03,25.45c1.58,0.5,3.72,0.42,6.95,0c5.27-0.69,25.38-3.45,27.63-3.94c3.39-0.75,5.22,1.27,3.97,5.46C78.5,60.75,63,84.75,41.5,94.97" class="grey" /><path d="M61.15,33.85c4.12,1.98,10.64,8.15,11.67,11.24" class="grey" /><path d="M50.17,35.14c4.29,1.4,25.23,38.94,40.15,54.32c2.32,2.39,4.02,3.99,6.18,4.79" class="grey" /><path d="M32.75,12.24c0,0.92,0.06,1.66-0.16,2.77c-1.13,5.78-11.9,25.06-21.11,33.61" class="stroke" stroke-dasharray="150"><animate attributeName="stroke-dashoffset" from="150" to="0" dur="1.8s" begin="0.0s" fill="freeze" /></path><path d="M34.64,21.21c3.84,1.83,8.74,6.68,10.61,11.29" class="stroke" stroke-dasharray="150"><set attributeName="opacity" to="0" dur="1.1s" /><animate attributeName="stroke-dashoffset" from="150" to="0" dur="1.8s" begin="1.1s" fill="freeze" /></path><path d="M22,41.5c1.5,0,2.18,0.09,2.67,0.06C29,41.24,35,40.03,40.1,39.8c0.74-0.03,0.9-0.05,2.15-0.05" class="stroke" stroke-dasharray="150"><set attributeName="opacity" to="0" dur="2.0s" /><animate attributeName="stroke-dashoffset" from="150" to="0" dur="1.8s" begin="2.0s" fill="freeze" /></path><path d="M13.59,55.81c0.64,0.33,2.76,0.48,3.41,0.43c5.91-0.49,17.25-1.99,24.52-3.17c0.79-0.13,2.56-0.13,3.75,0.15" class="stroke" stroke-dasharray="150"><set attributeName="opacity" to="0" dur="3.0s" /><animate attributeName="stroke-dashoffset" from="150" to="0" dur="1.8s" begin="3.0s" fill="freeze" /></path><path d="M29.45,43.69c1.24,0.78,1.24,2.52,1.24,3.14c0,4.35,0.62,32.63,0.31,36.98" class="stroke" stroke-dasharray="150"><set attributeName="opacity" to="0" dur="4.0s" /><animate attributeName="stroke-dashoffset" from="150" to="0" dur="1.8s" begin="4.0s" fill="freeze" /></path><path d="M15.14,66.01c3.93,5.13,5.85,10.69,6.65,13.69" class="stroke" stroke-dasharray="150"><set attributeName="opacity" to="0" dur="5.1s" /><animate attributeName="stroke-dashoffset" from="150" to="0" dur="1.8s" begin="5.1s" fill="freeze" /></path><path d="M44.2,60.05c0.3,0.84,0.46,2.06,0.34,2.76c-0.3,1.81-2.71,6.13-6.12,11.47" class="stroke" stroke-dasharray="150"><set attributeName="opacity" to="0" dur="6.0s" /><animate attributeName="stroke-dashoffset" from="150" to="0" dur="1.8s" begin="6.0s" fill="freeze" /></path><path d="M13.5,90.31c1.27,0.92,2.8,0.69,4.58,0.23c1.32-0.34,12.95-5.78,26.17-11.29" class="stroke" stroke-dasharray="150"><set attributeName="opacity" to="0" dur="6.9s" /><animate attributeName="stroke-dashoffset" from="150" to="0" dur="1.8s" begin="6.9s" fill="freeze" /></path><path d="M50.03,25.45c1.58,0.5,3.72,0.42,6.95,0c5.27-0.69,25.38-3.45,27.63-3.94c3.39-0.75,5.22,1.27,3.97,5.46C78.5,60.75,63,84.75,41.5,94.97" class="stroke" stroke-dasharray="150"><set attributeName="opacity" to="0" dur="7.9s" /><animate attributeName="stroke-dashoffset" from="150" to="0" dur="1.8s" begin="7.9s" fill="freeze" /></path><path d="M61.15,33.85c4.12,1.98,10.64,8.15,11.67,11.24" class="stroke" stroke-dasharray="150"><set attributeName="opacity" to="0" dur="9.9s" /><animate attributeName="stroke-dashoffset" from="150" to="0" dur="1.8s" begin="9.9s" fill="freeze" /></path><path d="M50.17,35.14c4.29,1.4,25.23,38.94,40.15,54.32c2.32,2.39,4.02,3.99,6.18,4.79" class="stroke" stroke-dasharray="150"><set attributeName="opacity" to="0" dur="10.8s" /><animate attributeName="stroke-dashoffset" from="150" to="0" dur="1.8s" begin="10.8s" fill="freeze" /></path><text x="90" y="120" id="reset-kvg-091f5">⟳</text><text x="70" y="120" id="pause-kvg-091f5">◼</text><script type="text/javascript"><![CDATA[function RecurringTimer(e,t){var n,r,i=t;this.pause=function(){window.clearTimeout(n);i-=new Date-r};var s=function(){r=new Date;n=window.setTimeout(function(){i=t;s();e()},i)};this.clear=function(){window.clearTimeout(n);i=t;n=window.setTimeout(function(){i=t;s();e()},i)};this.resume=s;this.resume()}function invoketimer(){timer=new RecurringTimer(function(){svg.setCurrentTime(0)},13500.0)}var svg=document.getElementById("kvg-091f5");var pause=document.getElementById("pause-kvg-091f5");var reset=document.getElementById("reset-kvg-091f5");var timer;invoketimer();reset.onclick=function(){svg.setCurrentTime(0);timer.clear();svg.unpauseAnimations();pause.innerHTML = "◼";};pause.onclick=function(){if(svg.animationsPaused()){svg.unpauseAnimations();timer.resume();pause.innerHTML="◼"}else{svg.pauseAnimations();timer.pause();pause.innerHTML="▶"}}]]></script></svg>