<svg id="kvg-09298" class="kanjivg" width="106" height="126" xmlns="http://www.w3.org/2000/svg" xmlns:xlink="http://www.w3.org/1999/xlink" xml:space="preserve" version="1.1" baseProfile="full"><defs><style type="text/css"><![CDATA[path.black{fill:none;stroke:black;stroke-width:5;stroke-linecap:round;stroke-linejoin:round;}path.grey{fill:none;stroke:#ddd;stroke-width:5;stroke-linecap:round;stroke-linejoin:round;}path.stroke{fill:none;stroke:black;stroke-width:5;stroke-linecap:round;stroke-linejoin:round;}rect{fill:none;stroke:#555;stroke-width:2;} text{font-size:16px;font-family:Segoe UI Symbol,Cambria Math,DejaVu Sans,Symbola,Quivira,STIX,Code2000;-webkit-touch-callout:none;cursor:pointer;-webkit-user-select:none;-khtml-user-select:none;-moz-user-select:none;-ms-user-select:none;user-select: none;}text:hover{color:#777;}#reset{font-weight:bold;}]]></style><marker id="markerStart" markerWidth="8" markerHeight="8" style="overflow:visible;"><circle cx="0" cy="0" r="1.5" style="stroke:none;fill:red;fill-opacity:0.5;"/></marker><marker id="markerEnd" style="overflow:visible;"><circle cx="0" cy="0" r="0.8" style="stroke:none;fill:blue;fill-opacity:0.5;"><animate attributeName="opacity" from="1" to="0" dur="3s" repeatCount="indefinite" /></circle></marker></defs><rect x="4" y="4" width="100" height="100" /><path d="M31.25,13.49c0,0.85,0.05,1.54-0.15,2.56c-1.07,5.34-10.7,23.17-19.37,31.07" class="grey" /><path d="M34.02,19.84c4.52,1.93,10.29,7.05,12.48,11.91" class="grey" /><path d="M21,41.75c1.64,0,3.01,0.08,4.66-0.2c3.65-0.63,8.22-1.86,12.23-2.35c1.28-0.16,2.58-0.45,3.87-0.45" class="grey" /><path d="M13.34,57.81c2.16,0.69,4.65,0.53,6.29,0.27c5.99-0.94,15.68-3.23,22.03-4.24c1.36-0.21,3.22-0.47,4.61-0.37" class="grey" /><path d="M29.95,44.19c0.87,0.87,1.24,1.93,1.24,3.64c0,4.35,0.06,28.92,0.06,35.98" class="grey" /><path d="M16.14,69.51c3.78,4.01,5.63,8.35,6.4,10.69" class="grey" /><path d="M44.04,62.05c0.23,0.71,0.03,1.8-0.24,2.35c-1.05,2.11-2.68,5.23-4.88,8.38" class="grey" /><path d="M14,89.6c1,0.9,2.3,0.83,3.39,0.42C22,88.25,29.29,85.86,42.75,81" class="grey" /><path d="M69.06,14.39c0.2,0.52,0.26,1.84-0.11,2.81c-2.7,7.04-10.2,18.04-19.03,26.4" class="grey" /><path d="M69.13,25.43c1.12,0.32,2.75,0.19,3.71,0.08C77.25,25,80.5,24,85.44,23.09c3.15-0.58,3.94,0.99,3.16,3.36C84.3,39.41,67.12,63.5,47,72.03" class="grey" /><path d="M60.19,41.23c3.48,1.52,9,6.23,9.87,8.59" class="grey" /><path d="M59.12,68.12c0.94,0.94,1.4,2.11,1.68,3.57c0.83,4.33,1.77,10.98,2.59,17.47c0.22,1.72,0.43,3.44,0.63,5.09" class="grey" /><path d="M61.2,69.27c6.36-0.86,21.46-3.36,27.69-3.86c2.92-0.23,5.06,1.28,4.21,4.4c-1.26,4.64-2.46,10.38-4.32,18.27" class="grey" /><path d="M64.9,90.84c5.85-0.59,14.73-1.39,22.32-1.86c1.55-0.1,2.97-0.17,4.18-0.19" class="grey" /><path d="M31.25,13.49c0,0.85,0.05,1.54-0.15,2.56c-1.07,5.34-10.7,23.17-19.37,31.07" class="stroke" stroke-dasharray="150"><animate attributeName="stroke-dashoffset" from="150" to="0" dur="1.8s" begin="0.0s" fill="freeze" /></path><path d="M34.02,19.84c4.52,1.93,10.29,7.05,12.48,11.91" class="stroke" stroke-dasharray="150"><set attributeName="opacity" to="0" dur="1.0s" /><animate attributeName="stroke-dashoffset" from="150" to="0" dur="1.8s" begin="1.0s" fill="freeze" /></path><path d="M21,41.75c1.64,0,3.01,0.08,4.66-0.2c3.65-0.63,8.22-1.86,12.23-2.35c1.28-0.16,2.58-0.45,3.87-0.45" class="stroke" stroke-dasharray="150"><set attributeName="opacity" to="0" dur="1.9s" /><animate attributeName="stroke-dashoffset" from="150" to="0" dur="1.8s" begin="1.9s" fill="freeze" /></path><path d="M13.34,57.81c2.16,0.69,4.65,0.53,6.29,0.27c5.99-0.94,15.68-3.23,22.03-4.24c1.36-0.21,3.22-0.47,4.61-0.37" class="stroke" stroke-dasharray="150"><set attributeName="opacity" to="0" dur="2.9s" /><animate attributeName="stroke-dashoffset" from="150" to="0" dur="1.8s" begin="2.9s" fill="freeze" /></path><path d="M29.95,44.19c0.87,0.87,1.24,1.93,1.24,3.64c0,4.35,0.06,28.92,0.06,35.98" class="stroke" stroke-dasharray="150"><set attributeName="opacity" to="0" dur="3.9s" /><animate attributeName="stroke-dashoffset" from="150" to="0" dur="1.8s" begin="3.9s" fill="freeze" /></path><path d="M16.14,69.51c3.78,4.01,5.63,8.35,6.4,10.69" class="stroke" stroke-dasharray="150"><set attributeName="opacity" to="0" dur="4.9s" /><animate attributeName="stroke-dashoffset" from="150" to="0" dur="1.8s" begin="4.9s" fill="freeze" /></path><path d="M44.04,62.05c0.23,0.71,0.03,1.8-0.24,2.35c-1.05,2.11-2.68,5.23-4.88,8.38" class="stroke" stroke-dasharray="150"><set attributeName="opacity" to="0" dur="5.800000000000001s" /><animate attributeName="stroke-dashoffset" from="150" to="0" dur="1.8s" begin="5.800000000000001s" fill="freeze" /></path><path d="M14,89.6c1,0.9,2.3,0.83,3.39,0.42C22,88.25,29.29,85.86,42.75,81" class="stroke" stroke-dasharray="150"><set attributeName="opacity" to="0" dur="6.700000000000001s" /><animate attributeName="stroke-dashoffset" from="150" to="0" dur="1.8s" begin="6.700000000000001s" fill="freeze" /></path><path d="M69.06,14.39c0.2,0.52,0.26,1.84-0.11,2.81c-2.7,7.04-10.2,18.04-19.03,26.4" class="stroke" stroke-dasharray="150"><set attributeName="opacity" to="0" dur="7.700000000000001s" /><animate attributeName="stroke-dashoffset" from="150" to="0" dur="1.8s" begin="7.700000000000001s" fill="freeze" /></path><path d="M69.13,25.43c1.12,0.32,2.75,0.19,3.71,0.08C77.25,25,80.5,24,85.44,23.09c3.15-0.58,3.94,0.99,3.16,3.36C84.3,39.41,67.12,63.5,47,72.03" class="stroke" stroke-dasharray="150"><set attributeName="opacity" to="0" dur="8.700000000000001s" /><animate attributeName="stroke-dashoffset" from="150" to="0" dur="1.8s" begin="8.700000000000001s" fill="freeze" /></path><path d="M60.19,41.23c3.48,1.52,9,6.23,9.87,8.59" class="stroke" stroke-dasharray="150"><set attributeName="opacity" to="0" dur="10.4s" /><animate attributeName="stroke-dashoffset" from="150" to="0" dur="1.8s" begin="10.4s" fill="freeze" /></path><path d="M59.12,68.12c0.94,0.94,1.4,2.11,1.68,3.57c0.83,4.33,1.77,10.98,2.59,17.47c0.22,1.72,0.43,3.44,0.63,5.09" class="stroke" stroke-dasharray="150"><set attributeName="opacity" to="0" dur="11.3s" /><animate attributeName="stroke-dashoffset" from="150" to="0" dur="1.8s" begin="11.3s" fill="freeze" /></path><path d="M61.2,69.27c6.36-0.86,21.46-3.36,27.69-3.86c2.92-0.23,5.06,1.28,4.21,4.4c-1.26,4.64-2.46,10.38-4.32,18.27" class="stroke" stroke-dasharray="150"><set attributeName="opacity" to="0" dur="12.3s" /><animate attributeName="stroke-dashoffset" from="150" to="0" dur="1.8s" begin="12.3s" fill="freeze" /></path><path d="M64.9,90.84c5.85-0.59,14.73-1.39,22.32-1.86c1.55-0.1,2.97-0.17,4.18-0.19" class="stroke" stroke-dasharray="150"><set attributeName="opacity" to="0" dur="13.600000000000001s" /><animate attributeName="stroke-dashoffset" from="150" to="0" dur="1.8s" begin="13.600000000000001s" fill="freeze" /></path><text x="90" y="120" id="reset-kvg-09298">⟳</text><text x="70" y="120" id="pause-kvg-09298">◼</text><script type="text/javascript"><![CDATA[function RecurringTimer(e,t){var n,r,i=t;this.pause=function(){window.clearTimeout(n);i-=new Date-r};var s=function(){r=new Date;n=window.setTimeout(function(){i=t;s();e()},i)};this.clear=function(){window.clearTimeout(n);i=t;n=window.setTimeout(function(){i=t;s();e()},i)};this.resume=s;this.resume()}function invoketimer(){timer=new RecurringTimer(function(){svg.setCurrentTime(0)},15600.000000000002)}var svg=document.getElementById("kvg-09298");var pause=document.getElementById("pause-kvg-09298");var reset=document.getElementById("reset-kvg-09298");var timer;invoketimer();reset.onclick=function(){svg.setCurrentTime(0);timer.clear();svg.unpauseAnimations();pause.innerHTML = "◼";};pause.onclick=function(){if(svg.animationsPaused()){svg.unpauseAnimations();timer.resume();pause.innerHTML="◼"}else{svg.pauseAnimations();timer.pause();pause.innerHTML="▶"}}]]></script></svg>