<svg id="kvg-09318" class="kanjivg" width="106" height="126" xmlns="http://www.w3.org/2000/svg" xmlns:xlink="http://www.w3.org/1999/xlink" xml:space="preserve" version="1.1" baseProfile="full"><defs><style type="text/css"><![CDATA[path.black{fill:none;stroke:black;stroke-width:5;stroke-linecap:round;stroke-linejoin:round;}path.grey{fill:none;stroke:#ddd;stroke-width:5;stroke-linecap:round;stroke-linejoin:round;}path.stroke{fill:none;stroke:black;stroke-width:5;stroke-linecap:round;stroke-linejoin:round;}rect{fill:none;stroke:#555;stroke-width:2;} text{font-size:16px;font-family:Segoe UI Symbol,Cambria Math,DejaVu Sans,Symbola,Quivira,STIX,Code2000;-webkit-touch-callout:none;cursor:pointer;-webkit-user-select:none;-khtml-user-select:none;-moz-user-select:none;-ms-user-select:none;user-select: none;}text:hover{color:#777;}#reset{font-weight:bold;}]]></style><marker id="markerStart" markerWidth="8" markerHeight="8" style="overflow:visible;"><circle cx="0" cy="0" r="1.5" style="stroke:none;fill:red;fill-opacity:0.5;"/></marker><marker id="markerEnd" style="overflow:visible;"><circle cx="0" cy="0" r="0.8" style="stroke:none;fill:blue;fill-opacity:0.5;"><animate attributeName="opacity" from="1" to="0" dur="3s" repeatCount="indefinite" /></circle></marker></defs><rect x="4" y="4" width="100" height="100" /><path d="M30,17.49c0,0.78,0.05,1.41-0.14,2.35c-1,4.9-8.98,18.53-18.38,28.28" class="grey" /><path d="M31.62,24.25c3.66,1.62,8.34,5.92,10.12,10" class="grey" /><path d="M19.75,43.75c1.24,0,2.52,0.1,3.76-0.05c3.74-0.45,7.37-1.2,11.87-2.05c1.12-0.21,2.49-0.16,3.62-0.16" class="grey" /><path d="M13.59,58.31c2.04,0.81,4.47,0.57,6.27,0.35c5.16-0.61,11.58-1.92,17.17-3.09c0.73-0.15,2.38-0.38,3.49-0.1" class="grey" /><path d="M27.7,46.44c0.99,0.99,1.24,2.06,1.24,3.64c0,4.35,0.06,19.79,0.06,32.98" class="grey" /><path d="M15.14,69.26c3.04,3.73,4.53,7.76,5.15,9.94" class="grey" /><path d="M40.79,62.8c0.23,0.71,0.27,1.8,0.01,2.35c-1.3,2.73-2.43,4.73-5.63,8.88" class="grey" /><path d="M14,90c1,1.25,2.21,0.93,3.5,0.25c11-5.75,12.25-6.5,23.25-12.5" class="grey" /><path d="M78.78,13.75c-0.16,1.25-0.79,1.93-1.76,2.54c-5.9,3.71-10.65,5.84-22.72,9.5" class="grey" /><path d="M48.43,35.9c2.32,0.6,4.69,0.36,6.59,0.17c7.86-0.8,22.27-2.67,29.74-3.32c2.12-0.19,4.38-0.44,6.44,0.24" class="grey" /><path d="M45.74,55.52c2.76,0.48,5.34,0.36,7.65,0.04c10.69-1.49,27.31-3.06,37.24-3.79c2.27-0.17,4.37-0.27,6.96,0.26" class="grey" /><path d="M52.67,44c0.92,0.92,1.52,2.42,1.57,3.34C54.75,57.5,55,60,55.61,67" class="grey" /><path d="M86.32,40.25c0.8,1.12,0.7,2.26,0.48,3.68c-1.49,9.83-2.05,13.7-3.22,20.07" class="grey" /><path d="M48.72,73.9c2.65,0.6,4.75,0.35,6.67,0.17c7.86-0.75,22.33-2.39,29.49-2.89c1.94-0.14,3.96-0.3,5.83,0.31" class="grey" /><path d="M67.34,25c1.08,1.08,1.18,2.25,1.18,3.25c0,6.12-0.02,50.12-0.02,60.12" class="grey" /><path d="M44.02,90.15c1.98,0.72,4.8,0.74,6.98,0.56c9.01-0.74,30.75-3.09,39.38-2.65c2.05,0.1,5.71,0.29,7.65,0.93" class="grey" /><path d="M30,17.49c0,0.78,0.05,1.41-0.14,2.35c-1,4.9-8.98,18.53-18.38,28.28" class="stroke" stroke-dasharray="150"><animate attributeName="stroke-dashoffset" from="150" to="0" dur="1.8s" begin="0.0s" fill="freeze" /></path><path d="M31.62,24.25c3.66,1.62,8.34,5.92,10.12,10" class="stroke" stroke-dasharray="150"><set attributeName="opacity" to="0" dur="1.0s" /><animate attributeName="stroke-dashoffset" from="150" to="0" dur="1.8s" begin="1.0s" fill="freeze" /></path><path d="M19.75,43.75c1.24,0,2.52,0.1,3.76-0.05c3.74-0.45,7.37-1.2,11.87-2.05c1.12-0.21,2.49-0.16,3.62-0.16" class="stroke" stroke-dasharray="150"><set attributeName="opacity" to="0" dur="1.9s" /><animate attributeName="stroke-dashoffset" from="150" to="0" dur="1.8s" begin="1.9s" fill="freeze" /></path><path d="M13.59,58.31c2.04,0.81,4.47,0.57,6.27,0.35c5.16-0.61,11.58-1.92,17.17-3.09c0.73-0.15,2.38-0.38,3.49-0.1" class="stroke" stroke-dasharray="150"><set attributeName="opacity" to="0" dur="2.8s" /><animate attributeName="stroke-dashoffset" from="150" to="0" dur="1.8s" begin="2.8s" fill="freeze" /></path><path d="M27.7,46.44c0.99,0.99,1.24,2.06,1.24,3.64c0,4.35,0.06,19.79,0.06,32.98" class="stroke" stroke-dasharray="150"><set attributeName="opacity" to="0" dur="3.8s" /><animate attributeName="stroke-dashoffset" from="150" to="0" dur="1.8s" begin="3.8s" fill="freeze" /></path><path d="M15.14,69.26c3.04,3.73,4.53,7.76,5.15,9.94" class="stroke" stroke-dasharray="150"><set attributeName="opacity" to="0" dur="4.8s" /><animate attributeName="stroke-dashoffset" from="150" to="0" dur="1.8s" begin="4.8s" fill="freeze" /></path><path d="M40.79,62.8c0.23,0.71,0.27,1.8,0.01,2.35c-1.3,2.73-2.43,4.73-5.63,8.88" class="stroke" stroke-dasharray="150"><set attributeName="opacity" to="0" dur="5.7s" /><animate attributeName="stroke-dashoffset" from="150" to="0" dur="1.8s" begin="5.7s" fill="freeze" /></path><path d="M14,90c1,1.25,2.21,0.93,3.5,0.25c11-5.75,12.25-6.5,23.25-12.5" class="stroke" stroke-dasharray="150"><set attributeName="opacity" to="0" dur="6.6000000000000005s" /><animate attributeName="stroke-dashoffset" from="150" to="0" dur="1.8s" begin="6.6000000000000005s" fill="freeze" /></path><path d="M78.78,13.75c-0.16,1.25-0.79,1.93-1.76,2.54c-5.9,3.71-10.65,5.84-22.72,9.5" class="stroke" stroke-dasharray="150"><set attributeName="opacity" to="0" dur="7.6000000000000005s" /><animate attributeName="stroke-dashoffset" from="150" to="0" dur="1.8s" begin="7.6000000000000005s" fill="freeze" /></path><path d="M48.43,35.9c2.32,0.6,4.69,0.36,6.59,0.17c7.86-0.8,22.27-2.67,29.74-3.32c2.12-0.19,4.38-0.44,6.44,0.24" class="stroke" stroke-dasharray="150"><set attributeName="opacity" to="0" dur="8.600000000000001s" /><animate attributeName="stroke-dashoffset" from="150" to="0" dur="1.8s" begin="8.600000000000001s" fill="freeze" /></path><path d="M45.74,55.52c2.76,0.48,5.34,0.36,7.65,0.04c10.69-1.49,27.31-3.06,37.24-3.79c2.27-0.17,4.37-0.27,6.96,0.26" class="stroke" stroke-dasharray="150"><set attributeName="opacity" to="0" dur="9.700000000000001s" /><animate attributeName="stroke-dashoffset" from="150" to="0" dur="1.8s" begin="9.700000000000001s" fill="freeze" /></path><path d="M52.67,44c0.92,0.92,1.52,2.42,1.57,3.34C54.75,57.5,55,60,55.61,67" class="stroke" stroke-dasharray="150"><set attributeName="opacity" to="0" dur="11.000000000000002s" /><animate attributeName="stroke-dashoffset" from="150" to="0" dur="1.8s" begin="11.000000000000002s" fill="freeze" /></path><path d="M86.32,40.25c0.8,1.12,0.7,2.26,0.48,3.68c-1.49,9.83-2.05,13.7-3.22,20.07" class="stroke" stroke-dasharray="150"><set attributeName="opacity" to="0" dur="12.000000000000002s" /><animate attributeName="stroke-dashoffset" from="150" to="0" dur="1.8s" begin="12.000000000000002s" fill="freeze" /></path><path d="M48.72,73.9c2.65,0.6,4.75,0.35,6.67,0.17c7.86-0.75,22.33-2.39,29.49-2.89c1.94-0.14,3.96-0.3,5.83,0.31" class="stroke" stroke-dasharray="150"><set attributeName="opacity" to="0" dur="13.000000000000002s" /><animate attributeName="stroke-dashoffset" from="150" to="0" dur="1.8s" begin="13.000000000000002s" fill="freeze" /></path><path d="M67.34,25c1.08,1.08,1.18,2.25,1.18,3.25c0,6.12-0.02,50.12-0.02,60.12" class="stroke" stroke-dasharray="150"><set attributeName="opacity" to="0" dur="14.100000000000001s" /><animate attributeName="stroke-dashoffset" from="150" to="0" dur="1.8s" begin="14.100000000000001s" fill="freeze" /></path><path d="M44.02,90.15c1.98,0.72,4.8,0.74,6.98,0.56c9.01-0.74,30.75-3.09,39.38-2.65c2.05,0.1,5.71,0.29,7.65,0.93" class="stroke" stroke-dasharray="150"><set attributeName="opacity" to="0" dur="15.600000000000001s" /><animate attributeName="stroke-dashoffset" from="150" to="0" dur="1.8s" begin="15.600000000000001s" fill="freeze" /></path><text x="90" y="120" id="reset-kvg-09318">⟳</text><text x="70" y="120" id="pause-kvg-09318">◼</text><script type="text/javascript"><![CDATA[function RecurringTimer(e,t){var n,r,i=t;this.pause=function(){window.clearTimeout(n);i-=new Date-r};var s=function(){r=new Date;n=window.setTimeout(function(){i=t;s();e()},i)};this.clear=function(){window.clearTimeout(n);i=t;n=window.setTimeout(function(){i=t;s();e()},i)};this.resume=s;this.resume()}function invoketimer(){timer=new RecurringTimer(function(){svg.setCurrentTime(0)},17900.000000000004)}var svg=document.getElementById("kvg-09318");var pause=document.getElementById("pause-kvg-09318");var reset=document.getElementById("reset-kvg-09318");var timer;invoketimer();reset.onclick=function(){svg.setCurrentTime(0);timer.clear();svg.unpauseAnimations();pause.innerHTML = "◼";};pause.onclick=function(){if(svg.animationsPaused()){svg.unpauseAnimations();timer.resume();pause.innerHTML="◼"}else{svg.pauseAnimations();timer.pause();pause.innerHTML="▶"}}]]></script></svg>