<svg id="kvg-09435" class="kanjivg" width="106" height="126" xmlns="http://www.w3.org/2000/svg" xmlns:xlink="http://www.w3.org/1999/xlink" xml:space="preserve" version="1.1" baseProfile="full"><defs><style type="text/css"><![CDATA[path.black{fill:none;stroke:black;stroke-width:5;stroke-linecap:round;stroke-linejoin:round;}path.grey{fill:none;stroke:#ddd;stroke-width:5;stroke-linecap:round;stroke-linejoin:round;}path.stroke{fill:none;stroke:black;stroke-width:5;stroke-linecap:round;stroke-linejoin:round;}rect{fill:none;stroke:#555;stroke-width:2;} text{font-size:16px;font-family:Segoe UI Symbol,Cambria Math,DejaVu Sans,Symbola,Quivira,STIX,Code2000;-webkit-touch-callout:none;cursor:pointer;-webkit-user-select:none;-khtml-user-select:none;-moz-user-select:none;-ms-user-select:none;user-select: none;}text:hover{color:#777;}#reset{font-weight:bold;}]]></style><marker id="markerStart" markerWidth="8" markerHeight="8" style="overflow:visible;"><circle cx="0" cy="0" r="1.5" style="stroke:none;fill:red;fill-opacity:0.5;"/></marker><marker id="markerEnd" style="overflow:visible;"><circle cx="0" cy="0" r="0.8" style="stroke:none;fill:blue;fill-opacity:0.5;"><animate attributeName="opacity" from="1" to="0" dur="3s" repeatCount="indefinite" /></circle></marker></defs><rect x="4" y="4" width="100" height="100" /><path d="M28.25,17.74c0,0.69,0.04,1.24-0.13,2.07c-0.88,4.31-9.24,18.69-16.4,25.07" class="grey" /><path d="M28.89,21.46c4.38,1.62,9.98,5.94,12.11,10.04" class="grey" /><path d="M18,43.5c1.5,0,2.68,0.09,3.17,0.06C25.5,43.24,31,42.25,36.1,41.3c0.73-0.13,0.9-0.05,2.15-0.05" class="grey" /><path d="M12.59,57.81c0.59,0.33,2.56,0.48,3.17,0.43c5.49-0.49,15.74-2.74,22.78-3.67c0.74-0.1,2.38-0.13,3.49,0.15" class="grey" /><path d="M27.45,44.19c1.24,0.78,1.24,2.52,1.24,3.14c0,4.35,0.62,35.13,0.31,39.48" class="grey" /><path d="M13.89,67.26c4.08,4.85,6.07,10.11,6.9,12.94" class="grey" /><path d="M40.71,61.55c0.29,0.9,0.44,2.21,0.33,2.97c-0.29,1.95-2.6,5.52-5.87,11.26" class="grey" /><path d="M12,91.82c1.23,0.9,2.7,0.67,4.42,0.22c1.27-0.33,11.05-5.16,23.83-10.54" class="grey" /><path d="M46.5,28.25c0.77,0.24,2.19,0.28,2.97,0.24c5.42-0.34,12.52-2.02,17.61-2.54c1.28-0.13,2.07,0.11,2.71,0.23" class="grey" /><path d="M57.38,15.3c0.08,0.26,1.25,1.37,1.25,3.04c0,10.77,0.1,5.93,0.1,20.18" class="grey" /><path d="M43.88,39.71c1.05,0.32,2.97,0.43,4.01,0.32c14.33-1.5,35.69-4.49,47.28-4.91c1.74-0.06,2.79,0.15,3.66,0.32" class="grey" /><path d="M47.75,47.77c0.32,0.24,0.65,0.43,0.79,0.73c1.11,2.34,2.45,8.8,3.21,13" class="grey" /><path d="M49.75,49.36c6.57-1.22,13.06-2.57,16.83-2.88c1.37-0.11,2.2,0.67,2,1.33c-0.81,2.73-1.77,6.04-2.98,9.82" class="grey" /><path d="M51.9,59.45c4.42-0.35,9.01-0.95,15.08-1.48" class="grey" /><path d="M48.51,69.14c0.42,0.19,2.73,0.24,3.16,0.18c2-0.26,10.12-1.09,14.91-1.38c0.66-0.04,1.87-0.14,2.41,0.02" class="grey" /><path d="M55.92,69.11c0.59,0.34,1,1.05,1,1.32c0,2.26,0.35,14.3,0.23,15.81" class="grey" /><path d="M47.92,78.04c0.37,0.15,3,0.18,3.39,0.14c2.19-0.2,9.79-1.88,12.82-2.09c0.47-0.04,2.17-0.06,2.87,0.07" class="grey" /><path d="M46.25,89.17c0.45,0.13,2.22,1.11,2.9,0.86c4.36-1.58,10.58-3.88,17.22-6.61" class="grey" /><path d="M73.24,15c0.95,1.7,1.63,2.17,1.85,5.81c1.65,28.26,6.17,58.94,18.79,70.7c3.89,3.63,3.2,0.73,2.73-6.78" class="grey" /><path d="M91.73,45.88c0.07,1.06,0.24,2.76-0.14,4.26c-2.46,9.66-10.5,29.26-24.26,41.33" class="grey" /><path d="M83.67,19.26c2.97,1.96,7.73,6.44,9.12,9.8" class="grey" /><path d="M28.25,17.74c0,0.69,0.04,1.24-0.13,2.07c-0.88,4.31-9.24,18.69-16.4,25.07" class="stroke" stroke-dasharray="150"><animate attributeName="stroke-dashoffset" from="150" to="0" dur="1.8s" begin="0.0s" fill="freeze" /></path><path d="M28.89,21.46c4.38,1.62,9.98,5.94,12.11,10.04" class="stroke" stroke-dasharray="150"><set attributeName="opacity" to="0" dur="1.0s" /><animate attributeName="stroke-dashoffset" from="150" to="0" dur="1.8s" begin="1.0s" fill="freeze" /></path><path d="M18,43.5c1.5,0,2.68,0.09,3.17,0.06C25.5,43.24,31,42.25,36.1,41.3c0.73-0.13,0.9-0.05,2.15-0.05" class="stroke" stroke-dasharray="150"><set attributeName="opacity" to="0" dur="1.9s" /><animate attributeName="stroke-dashoffset" from="150" to="0" dur="1.8s" begin="1.9s" fill="freeze" /></path><path d="M12.59,57.81c0.59,0.33,2.56,0.48,3.17,0.43c5.49-0.49,15.74-2.74,22.78-3.67c0.74-0.1,2.38-0.13,3.49,0.15" class="stroke" stroke-dasharray="150"><set attributeName="opacity" to="0" dur="2.9s" /><animate attributeName="stroke-dashoffset" from="150" to="0" dur="1.8s" begin="2.9s" fill="freeze" /></path><path d="M27.45,44.19c1.24,0.78,1.24,2.52,1.24,3.14c0,4.35,0.62,35.13,0.31,39.48" class="stroke" stroke-dasharray="150"><set attributeName="opacity" to="0" dur="3.9s" /><animate attributeName="stroke-dashoffset" from="150" to="0" dur="1.8s" begin="3.9s" fill="freeze" /></path><path d="M13.89,67.26c4.08,4.85,6.07,10.11,6.9,12.94" class="stroke" stroke-dasharray="150"><set attributeName="opacity" to="0" dur="5.0s" /><animate attributeName="stroke-dashoffset" from="150" to="0" dur="1.8s" begin="5.0s" fill="freeze" /></path><path d="M40.71,61.55c0.29,0.9,0.44,2.21,0.33,2.97c-0.29,1.95-2.6,5.52-5.87,11.26" class="stroke" stroke-dasharray="150"><set attributeName="opacity" to="0" dur="5.9s" /><animate attributeName="stroke-dashoffset" from="150" to="0" dur="1.8s" begin="5.9s" fill="freeze" /></path><path d="M12,91.82c1.23,0.9,2.7,0.67,4.42,0.22c1.27-0.33,11.05-5.16,23.83-10.54" class="stroke" stroke-dasharray="150"><set attributeName="opacity" to="0" dur="6.800000000000001s" /><animate attributeName="stroke-dashoffset" from="150" to="0" dur="1.8s" begin="6.800000000000001s" fill="freeze" /></path><path d="M46.5,28.25c0.77,0.24,2.19,0.28,2.97,0.24c5.42-0.34,12.52-2.02,17.61-2.54c1.28-0.13,2.07,0.11,2.71,0.23" class="stroke" stroke-dasharray="150"><set attributeName="opacity" to="0" dur="7.800000000000001s" /><animate attributeName="stroke-dashoffset" from="150" to="0" dur="1.8s" begin="7.800000000000001s" fill="freeze" /></path><path d="M57.38,15.3c0.08,0.26,1.25,1.37,1.25,3.04c0,10.77,0.1,5.93,0.1,20.18" class="stroke" stroke-dasharray="150"><set attributeName="opacity" to="0" dur="8.8s" /><animate attributeName="stroke-dashoffset" from="150" to="0" dur="1.8s" begin="8.8s" fill="freeze" /></path><path d="M43.88,39.71c1.05,0.32,2.97,0.43,4.01,0.32c14.33-1.5,35.69-4.49,47.28-4.91c1.74-0.06,2.79,0.15,3.66,0.32" class="stroke" stroke-dasharray="150"><set attributeName="opacity" to="0" dur="9.8s" /><animate attributeName="stroke-dashoffset" from="150" to="0" dur="1.8s" begin="9.8s" fill="freeze" /></path><path d="M47.75,47.77c0.32,0.24,0.65,0.43,0.79,0.73c1.11,2.34,2.45,8.8,3.21,13" class="stroke" stroke-dasharray="150"><set attributeName="opacity" to="0" dur="11.200000000000001s" /><animate attributeName="stroke-dashoffset" from="150" to="0" dur="1.8s" begin="11.200000000000001s" fill="freeze" /></path><path d="M49.75,49.36c6.57-1.22,13.06-2.57,16.83-2.88c1.37-0.11,2.2,0.67,2,1.33c-0.81,2.73-1.77,6.04-2.98,9.82" class="stroke" stroke-dasharray="150"><set attributeName="opacity" to="0" dur="12.100000000000001s" /><animate attributeName="stroke-dashoffset" from="150" to="0" dur="1.8s" begin="12.100000000000001s" fill="freeze" /></path><path d="M51.9,59.45c4.42-0.35,9.01-0.95,15.08-1.48" class="stroke" stroke-dasharray="150"><set attributeName="opacity" to="0" dur="13.100000000000001s" /><animate attributeName="stroke-dashoffset" from="150" to="0" dur="1.8s" begin="13.100000000000001s" fill="freeze" /></path><path d="M48.51,69.14c0.42,0.19,2.73,0.24,3.16,0.18c2-0.26,10.12-1.09,14.91-1.38c0.66-0.04,1.87-0.14,2.41,0.02" class="stroke" stroke-dasharray="150"><set attributeName="opacity" to="0" dur="14.000000000000002s" /><animate attributeName="stroke-dashoffset" from="150" to="0" dur="1.8s" begin="14.000000000000002s" fill="freeze" /></path><path d="M55.92,69.11c0.59,0.34,1,1.05,1,1.32c0,2.26,0.35,14.3,0.23,15.81" class="stroke" stroke-dasharray="150"><set attributeName="opacity" to="0" dur="15.000000000000002s" /><animate attributeName="stroke-dashoffset" from="150" to="0" dur="1.8s" begin="15.000000000000002s" fill="freeze" /></path><path d="M47.92,78.04c0.37,0.15,3,0.18,3.39,0.14c2.19-0.2,9.79-1.88,12.82-2.09c0.47-0.04,2.17-0.06,2.87,0.07" class="stroke" stroke-dasharray="150"><set attributeName="opacity" to="0" dur="15.900000000000002s" /><animate attributeName="stroke-dashoffset" from="150" to="0" dur="1.8s" begin="15.900000000000002s" fill="freeze" /></path><path d="M46.25,89.17c0.45,0.13,2.22,1.11,2.9,0.86c4.36-1.58,10.58-3.88,17.22-6.61" class="stroke" stroke-dasharray="150"><set attributeName="opacity" to="0" dur="16.8s" /><animate attributeName="stroke-dashoffset" from="150" to="0" dur="1.8s" begin="16.8s" fill="freeze" /></path><path d="M73.24,15c0.95,1.7,1.63,2.17,1.85,5.81c1.65,28.26,6.17,58.94,18.79,70.7c3.89,3.63,3.2,0.73,2.73-6.78" class="stroke" stroke-dasharray="150"><set attributeName="opacity" to="0" dur="17.8s" /><animate attributeName="stroke-dashoffset" from="150" to="0" dur="1.8s" begin="17.8s" fill="freeze" /></path><path d="M91.73,45.88c0.07,1.06,0.24,2.76-0.14,4.26c-2.46,9.66-10.5,29.26-24.26,41.33" class="stroke" stroke-dasharray="150"><set attributeName="opacity" to="0" dur="19.6s" /><animate attributeName="stroke-dashoffset" from="150" to="0" dur="1.8s" begin="19.6s" fill="freeze" /></path><path d="M83.67,19.26c2.97,1.96,7.73,6.44,9.12,9.8" class="stroke" stroke-dasharray="150"><set attributeName="opacity" to="0" dur="20.900000000000002s" /><animate attributeName="stroke-dashoffset" from="150" to="0" dur="1.8s" begin="20.900000000000002s" fill="freeze" /></path><text x="90" y="120" id="reset-kvg-09435">⟳</text><text x="70" y="120" id="pause-kvg-09435">◼</text><script type="text/javascript"><![CDATA[function RecurringTimer(e,t){var n,r,i=t;this.pause=function(){window.clearTimeout(n);i-=new Date-r};var s=function(){r=new Date;n=window.setTimeout(function(){i=t;s();e()},i)};this.clear=function(){window.clearTimeout(n);i=t;n=window.setTimeout(function(){i=t;s();e()},i)};this.resume=s;this.resume()}function invoketimer(){timer=new RecurringTimer(function(){svg.setCurrentTime(0)},22800.0)}var svg=document.getElementById("kvg-09435");var pause=document.getElementById("pause-kvg-09435");var reset=document.getElementById("reset-kvg-09435");var timer;invoketimer();reset.onclick=function(){svg.setCurrentTime(0);timer.clear();svg.unpauseAnimations();pause.innerHTML = "◼";};pause.onclick=function(){if(svg.animationsPaused()){svg.unpauseAnimations();timer.resume();pause.innerHTML="◼"}else{svg.pauseAnimations();timer.pause();pause.innerHTML="▶"}}]]></script></svg>