<svg id="kvg-09589" class="kanjivg" width="106" height="126" xmlns="http://www.w3.org/2000/svg" xmlns:xlink="http://www.w3.org/1999/xlink" xml:space="preserve" version="1.1" baseProfile="full"><defs><style type="text/css"><![CDATA[path.black{fill:none;stroke:black;stroke-width:5;stroke-linecap:round;stroke-linejoin:round;}path.grey{fill:none;stroke:#ddd;stroke-width:5;stroke-linecap:round;stroke-linejoin:round;}path.stroke{fill:none;stroke:black;stroke-width:5;stroke-linecap:round;stroke-linejoin:round;}rect{fill:none;stroke:#555;stroke-width:2;} text{font-size:16px;font-family:Segoe UI Symbol,Cambria Math,DejaVu Sans,Symbola,Quivira,STIX,Code2000;-webkit-touch-callout:none;cursor:pointer;-webkit-user-select:none;-khtml-user-select:none;-moz-user-select:none;-ms-user-select:none;user-select: none;}text:hover{color:#777;}#reset{font-weight:bold;}]]></style><marker id="markerStart" markerWidth="8" markerHeight="8" style="overflow:visible;"><circle cx="0" cy="0" r="1.5" style="stroke:none;fill:red;fill-opacity:0.5;"/></marker><marker id="markerEnd" style="overflow:visible;"><circle cx="0" cy="0" r="0.8" style="stroke:none;fill:blue;fill-opacity:0.5;"><animate attributeName="opacity" from="1" to="0" dur="3s" repeatCount="indefinite" /></circle></marker></defs><rect x="4" y="4" width="100" height="100" /><path d="M17.14,18.79c1.1,1.1,1.18,2.59,1.18,4.15c0,0.7-0.06,43.44-0.07,66.31c0,2.63,0,4.99,0,7" class="grey" /><path d="M18.91,20.12c3.84-0.75,13.24-2.6,17.65-3.56c2.56-0.56,3.96,0.16,4.01,2.93c0.07,3.59,0.06,13.15,0.06,21.14c0,1.04-0.12,3.24-0.12,3.93" class="grey" /><path d="M19.27,33.18c7.23-1.55,13.86-2.8,20.46-3.64" class="grey" /><path d="M19.41,45.75c6.69-1.31,13.87-2.56,19.78-3.16" class="grey" /><path d="M63.37,14.51c1,1,1.13,2.11,1.13,3.24c0,0.63,0.11,13.12,0.11,20.25c0,2.45-0.06,4.38-0.06,4.49" class="grey" /><path d="M65.8,16.11c3.42-0.64,15.26-2.67,19.84-3.22c3.02-0.36,4.36,0.3,4.36,3.35c0,20.42,0.02,61.68,0.02,76.26c0,11.99-6.36,1.9-7.75,0.62" class="grey" /><path d="M65.74,27.72c6.01-0.97,19.34-2.99,23.15-2.99" class="grey" /><path d="M65.8,39.51c7.7-1.01,14.95-2.01,23.05-2.56" class="grey" /><path d="M32.92,57.33c2.08,0.3,3.94,0.27,5.96,0.01c7.47-0.96,22.28-2.65,30.73-3.5c2.03-0.21,3.94-0.21,5.95,0.2" class="grey" /><path d="M57.43,44.33c0.93,0.93,1.3,2.54,1.3,4.04c0,10.88-0.11,36.1-0.11,40.63c0,5.63-4.25,1.38-5.89-0.33" class="grey" /><path d="M57.43,55.89c0.07,0.73-0.36,1.99-0.9,2.95c-3.91,7.03-11.41,16.41-25.48,27.49" class="grey" /><path d="M17.14,18.79c1.1,1.1,1.18,2.59,1.18,4.15c0,0.7-0.06,43.44-0.07,66.31c0,2.63,0,4.99,0,7" class="stroke" stroke-dasharray="150"><animate attributeName="stroke-dashoffset" from="150" to="0" dur="1.8s" begin="0.0s" fill="freeze" /></path><path d="M18.91,20.12c3.84-0.75,13.24-2.6,17.65-3.56c2.56-0.56,3.96,0.16,4.01,2.93c0.07,3.59,0.06,13.15,0.06,21.14c0,1.04-0.12,3.24-0.12,3.93" class="stroke" stroke-dasharray="150"><set attributeName="opacity" to="0" dur="1.7s" /><animate attributeName="stroke-dashoffset" from="150" to="0" dur="1.8s" begin="1.7s" fill="freeze" /></path><path d="M19.27,33.18c7.23-1.55,13.86-2.8,20.46-3.64" class="stroke" stroke-dasharray="150"><set attributeName="opacity" to="0" dur="2.9s" /><animate attributeName="stroke-dashoffset" from="150" to="0" dur="1.8s" begin="2.9s" fill="freeze" /></path><path d="M19.41,45.75c6.69-1.31,13.87-2.56,19.78-3.16" class="stroke" stroke-dasharray="150"><set attributeName="opacity" to="0" dur="3.9s" /><animate attributeName="stroke-dashoffset" from="150" to="0" dur="1.8s" begin="3.9s" fill="freeze" /></path><path d="M63.37,14.51c1,1,1.13,2.11,1.13,3.24c0,0.63,0.11,13.12,0.11,20.25c0,2.45-0.06,4.38-0.06,4.49" class="stroke" stroke-dasharray="150"><set attributeName="opacity" to="0" dur="4.9s" /><animate attributeName="stroke-dashoffset" from="150" to="0" dur="1.8s" begin="4.9s" fill="freeze" /></path><path d="M65.8,16.11c3.42-0.64,15.26-2.67,19.84-3.22c3.02-0.36,4.36,0.3,4.36,3.35c0,20.42,0.02,61.68,0.02,76.26c0,11.99-6.36,1.9-7.75,0.62" class="stroke" stroke-dasharray="150"><set attributeName="opacity" to="0" dur="5.9s" /><animate attributeName="stroke-dashoffset" from="150" to="0" dur="1.8s" begin="5.9s" fill="freeze" /></path><path d="M65.74,27.72c6.01-0.97,19.34-2.99,23.15-2.99" class="stroke" stroke-dasharray="150"><set attributeName="opacity" to="0" dur="7.9s" /><animate attributeName="stroke-dashoffset" from="150" to="0" dur="1.8s" begin="7.9s" fill="freeze" /></path><path d="M65.8,39.51c7.7-1.01,14.95-2.01,23.05-2.56" class="stroke" stroke-dasharray="150"><set attributeName="opacity" to="0" dur="8.9s" /><animate attributeName="stroke-dashoffset" from="150" to="0" dur="1.8s" begin="8.9s" fill="freeze" /></path><path d="M32.92,57.33c2.08,0.3,3.94,0.27,5.96,0.01c7.47-0.96,22.28-2.65,30.73-3.5c2.03-0.21,3.94-0.21,5.95,0.2" class="stroke" stroke-dasharray="150"><set attributeName="opacity" to="0" dur="9.9s" /><animate attributeName="stroke-dashoffset" from="150" to="0" dur="1.8s" begin="9.9s" fill="freeze" /></path><path d="M57.43,44.33c0.93,0.93,1.3,2.54,1.3,4.04c0,10.88-0.11,36.1-0.11,40.63c0,5.63-4.25,1.38-5.89-0.33" class="stroke" stroke-dasharray="150"><set attributeName="opacity" to="0" dur="11.0s" /><animate attributeName="stroke-dashoffset" from="150" to="0" dur="1.8s" begin="11.0s" fill="freeze" /></path><path d="M57.43,55.89c0.07,0.73-0.36,1.99-0.9,2.95c-3.91,7.03-11.41,16.41-25.48,27.49" class="stroke" stroke-dasharray="150"><set attributeName="opacity" to="0" dur="12.3s" /><animate attributeName="stroke-dashoffset" from="150" to="0" dur="1.8s" begin="12.3s" fill="freeze" /></path><text x="90" y="120" id="reset-kvg-09589">⟳</text><text x="70" y="120" id="pause-kvg-09589">◼</text><script type="text/javascript"><![CDATA[function RecurringTimer(e,t){var n,r,i=t;this.pause=function(){window.clearTimeout(n);i-=new Date-r};var s=function(){r=new Date;n=window.setTimeout(function(){i=t;s();e()},i)};this.clear=function(){window.clearTimeout(n);i=t;n=window.setTimeout(function(){i=t;s();e()},i)};this.resume=s;this.resume()}function invoketimer(){timer=new RecurringTimer(function(){svg.setCurrentTime(0)},14400.0)}var svg=document.getElementById("kvg-09589");var pause=document.getElementById("pause-kvg-09589");var reset=document.getElementById("reset-kvg-09589");var timer;invoketimer();reset.onclick=function(){svg.setCurrentTime(0);timer.clear();svg.unpauseAnimations();pause.innerHTML = "◼";};pause.onclick=function(){if(svg.animationsPaused()){svg.unpauseAnimations();timer.resume();pause.innerHTML="◼"}else{svg.pauseAnimations();timer.pause();pause.innerHTML="▶"}}]]></script></svg>