<svg id="kvg-095a4" class="kanjivg" width="106" height="126" xmlns="http://www.w3.org/2000/svg" xmlns:xlink="http://www.w3.org/1999/xlink" xml:space="preserve" version="1.1" baseProfile="full"><defs><style type="text/css"><![CDATA[path.black{fill:none;stroke:black;stroke-width:5;stroke-linecap:round;stroke-linejoin:round;}path.grey{fill:none;stroke:#ddd;stroke-width:5;stroke-linecap:round;stroke-linejoin:round;}path.stroke{fill:none;stroke:black;stroke-width:5;stroke-linecap:round;stroke-linejoin:round;}rect{fill:none;stroke:#555;stroke-width:2;} text{font-size:16px;font-family:Segoe UI Symbol,Cambria Math,DejaVu Sans,Symbola,Quivira,STIX,Code2000;-webkit-touch-callout:none;cursor:pointer;-webkit-user-select:none;-khtml-user-select:none;-moz-user-select:none;-ms-user-select:none;user-select: none;}text:hover{color:#777;}#reset{font-weight:bold;}]]></style><marker id="markerStart" markerWidth="8" markerHeight="8" style="overflow:visible;"><circle cx="0" cy="0" r="1.5" style="stroke:none;fill:red;fill-opacity:0.5;"/></marker><marker id="markerEnd" style="overflow:visible;"><circle cx="0" cy="0" r="0.8" style="stroke:none;fill:blue;fill-opacity:0.5;"><animate attributeName="opacity" from="1" to="0" dur="3s" repeatCount="indefinite" /></circle></marker></defs><rect x="4" y="4" width="100" height="100" /><path d="M19.39,18.04c0.91,0.91,0.93,2.34,0.93,3.65c0,0.71,0,38.82,0.01,60.06c0,6.74,0,11.79,0,13.38" class="grey" /><path d="M21.02,19.08c3.49-0.62,14.36-2.4,18.46-2.9c2.19-0.27,4.25,0.53,4.16,2.94c-0.11,2.91-0.54,9.73-0.87,14.87c-0.22,3.5-0.4,6.23-0.4,6.44" class="grey" /><path d="M20.95,30.14c6.92-0.77,13.55-1.64,21.13-2.26" class="grey" /><path d="M21.52,41.23c8.11-1.15,12.64-1.78,19.81-2.31" class="grey" /><path d="M64.44,15.01c0.71,0.71,0.88,1.61,0.88,2.48c0,0.49-0.07,9.49-0.07,15.64c0,3.05,0.02,5.4,0.07,5.65" class="grey" /><path d="M66.55,16.66c2.15-0.09,14.14-1.73,18.85-2.26c2.87-0.32,4.55,0.65,4.55,3.6c0,20.5-0.2,58.79-0.2,72.44c0,11.06-6.7,1.16-8.15-0.14" class="grey" /><path d="M66.24,26.22c6.51-0.59,17.88-1.84,22.65-1.99" class="grey" /><path d="M66.05,36.51c7.07-0.38,15.2-1.51,22.55-1.81" class="grey" /><path d="M53.51,39c-0.14,1.52-0.61,2.91-1.41,4.19C48.38,49.5,43,57,30.6,66.33" class="grey" /><path d="M54.08,41.55C56.7,44.41,66,52.62,71.84,57.17c2.32,1.81,4.53,3.57,7.31,4.53" class="grey" /><path d="M44.5,61.77c1.49,0.39,2.99,0.48,4.5,0.28c3.81-0.36,8.12-1.04,13.25-1.87c1.16-0.19,2.34-0.03,3.5,0.1" class="grey" /><path d="M40.77,71.17c0.48,0.81,0.84,1.66,0.98,2.58c0.67,4.45,1.13,7.66,1.59,10.88c0.23,1.58,0.45,3.17,0.7,4.9" class="grey" /><path d="M42.04,73.6c8.62-1.7,20.62-3.02,25.56-3.44c1.8-0.16,2.89,0.93,2.63,1.85c-1.07,3.82-1.71,6.91-3.91,12.25" class="grey" /><path d="M44.94,86.51c5.38-0.3,12.75-0.79,20.06-1.26c1.75-0.11,3.48-0.21,5.12-0.28" class="grey" /><path d="M19.39,18.04c0.91,0.91,0.93,2.34,0.93,3.65c0,0.71,0,38.82,0.01,60.06c0,6.74,0,11.79,0,13.38" class="stroke" stroke-dasharray="150"><animate attributeName="stroke-dashoffset" from="150" to="0" dur="1.8s" begin="0.0s" fill="freeze" /></path><path d="M21.02,19.08c3.49-0.62,14.36-2.4,18.46-2.9c2.19-0.27,4.25,0.53,4.16,2.94c-0.11,2.91-0.54,9.73-0.87,14.87c-0.22,3.5-0.4,6.23-0.4,6.44" class="stroke" stroke-dasharray="150"><set attributeName="opacity" to="0" dur="1.7s" /><animate attributeName="stroke-dashoffset" from="150" to="0" dur="1.8s" begin="1.7s" fill="freeze" /></path><path d="M20.95,30.14c6.92-0.77,13.55-1.64,21.13-2.26" class="stroke" stroke-dasharray="150"><set attributeName="opacity" to="0" dur="2.9s" /><animate attributeName="stroke-dashoffset" from="150" to="0" dur="1.8s" begin="2.9s" fill="freeze" /></path><path d="M21.52,41.23c8.11-1.15,12.64-1.78,19.81-2.31" class="stroke" stroke-dasharray="150"><set attributeName="opacity" to="0" dur="3.9s" /><animate attributeName="stroke-dashoffset" from="150" to="0" dur="1.8s" begin="3.9s" fill="freeze" /></path><path d="M64.44,15.01c0.71,0.71,0.88,1.61,0.88,2.48c0,0.49-0.07,9.49-0.07,15.64c0,3.05,0.02,5.4,0.07,5.65" class="stroke" stroke-dasharray="150"><set attributeName="opacity" to="0" dur="4.8s" /><animate attributeName="stroke-dashoffset" from="150" to="0" dur="1.8s" begin="4.8s" fill="freeze" /></path><path d="M66.55,16.66c2.15-0.09,14.14-1.73,18.85-2.26c2.87-0.32,4.55,0.65,4.55,3.6c0,20.5-0.2,58.79-0.2,72.44c0,11.06-6.7,1.16-8.15-0.14" class="stroke" stroke-dasharray="150"><set attributeName="opacity" to="0" dur="5.8s" /><animate attributeName="stroke-dashoffset" from="150" to="0" dur="1.8s" begin="5.8s" fill="freeze" /></path><path d="M66.24,26.22c6.51-0.59,17.88-1.84,22.65-1.99" class="stroke" stroke-dasharray="150"><set attributeName="opacity" to="0" dur="7.8s" /><animate attributeName="stroke-dashoffset" from="150" to="0" dur="1.8s" begin="7.8s" fill="freeze" /></path><path d="M66.05,36.51c7.07-0.38,15.2-1.51,22.55-1.81" class="stroke" stroke-dasharray="150"><set attributeName="opacity" to="0" dur="8.8s" /><animate attributeName="stroke-dashoffset" from="150" to="0" dur="1.8s" begin="8.8s" fill="freeze" /></path><path d="M53.51,39c-0.14,1.52-0.61,2.91-1.41,4.19C48.38,49.5,43,57,30.6,66.33" class="stroke" stroke-dasharray="150"><set attributeName="opacity" to="0" dur="9.8s" /><animate attributeName="stroke-dashoffset" from="150" to="0" dur="1.8s" begin="9.8s" fill="freeze" /></path><path d="M54.08,41.55C56.7,44.41,66,52.62,71.84,57.17c2.32,1.81,4.53,3.57,7.31,4.53" class="stroke" stroke-dasharray="150"><set attributeName="opacity" to="0" dur="10.8s" /><animate attributeName="stroke-dashoffset" from="150" to="0" dur="1.8s" begin="10.8s" fill="freeze" /></path><path d="M44.5,61.77c1.49,0.39,2.99,0.48,4.5,0.28c3.81-0.36,8.12-1.04,13.25-1.87c1.16-0.19,2.34-0.03,3.5,0.1" class="stroke" stroke-dasharray="150"><set attributeName="opacity" to="0" dur="11.8s" /><animate attributeName="stroke-dashoffset" from="150" to="0" dur="1.8s" begin="11.8s" fill="freeze" /></path><path d="M40.77,71.17c0.48,0.81,0.84,1.66,0.98,2.58c0.67,4.45,1.13,7.66,1.59,10.88c0.23,1.58,0.45,3.17,0.7,4.9" class="stroke" stroke-dasharray="150"><set attributeName="opacity" to="0" dur="12.8s" /><animate attributeName="stroke-dashoffset" from="150" to="0" dur="1.8s" begin="12.8s" fill="freeze" /></path><path d="M42.04,73.6c8.62-1.7,20.62-3.02,25.56-3.44c1.8-0.16,2.89,0.93,2.63,1.85c-1.07,3.82-1.71,6.91-3.91,12.25" class="stroke" stroke-dasharray="150"><set attributeName="opacity" to="0" dur="13.700000000000001s" /><animate attributeName="stroke-dashoffset" from="150" to="0" dur="1.8s" begin="13.700000000000001s" fill="freeze" /></path><path d="M44.94,86.51c5.38-0.3,12.75-0.79,20.06-1.26c1.75-0.11,3.48-0.21,5.12-0.28" class="stroke" stroke-dasharray="150"><set attributeName="opacity" to="0" dur="14.8s" /><animate attributeName="stroke-dashoffset" from="150" to="0" dur="1.8s" begin="14.8s" fill="freeze" /></path><text x="90" y="120" id="reset-kvg-095a4">⟳</text><text x="70" y="120" id="pause-kvg-095a4">◼</text><script type="text/javascript"><![CDATA[function RecurringTimer(e,t){var n,r,i=t;this.pause=function(){window.clearTimeout(n);i-=new Date-r};var s=function(){r=new Date;n=window.setTimeout(function(){i=t;s();e()},i)};this.clear=function(){window.clearTimeout(n);i=t;n=window.setTimeout(function(){i=t;s();e()},i)};this.resume=s;this.resume()}function invoketimer(){timer=new RecurringTimer(function(){svg.setCurrentTime(0)},16800.0)}var svg=document.getElementById("kvg-095a4");var pause=document.getElementById("pause-kvg-095a4");var reset=document.getElementById("reset-kvg-095a4");var timer;invoketimer();reset.onclick=function(){svg.setCurrentTime(0);timer.clear();svg.unpauseAnimations();pause.innerHTML = "◼";};pause.onclick=function(){if(svg.animationsPaused()){svg.unpauseAnimations();timer.resume();pause.innerHTML="◼"}else{svg.pauseAnimations();timer.pause();pause.innerHTML="▶"}}]]></script></svg>