<svg id="kvg-09678" class="kanjivg" width="106" height="126" xmlns="http://www.w3.org/2000/svg" xmlns:xlink="http://www.w3.org/1999/xlink" xml:space="preserve" version="1.1" baseProfile="full"><defs><style type="text/css"><![CDATA[path.black{fill:none;stroke:black;stroke-width:5;stroke-linecap:round;stroke-linejoin:round;}path.grey{fill:none;stroke:#ddd;stroke-width:5;stroke-linecap:round;stroke-linejoin:round;}path.stroke{fill:none;stroke:black;stroke-width:5;stroke-linecap:round;stroke-linejoin:round;}rect{fill:none;stroke:#555;stroke-width:2;} text{font-size:16px;font-family:Segoe UI Symbol,Cambria Math,DejaVu Sans,Symbola,Quivira,STIX,Code2000;-webkit-touch-callout:none;cursor:pointer;-webkit-user-select:none;-khtml-user-select:none;-moz-user-select:none;-ms-user-select:none;user-select: none;}text:hover{color:#777;}#reset{font-weight:bold;}]]></style><marker id="markerStart" markerWidth="8" markerHeight="8" style="overflow:visible;"><circle cx="0" cy="0" r="1.5" style="stroke:none;fill:red;fill-opacity:0.5;"/></marker><marker id="markerEnd" style="overflow:visible;"><circle cx="0" cy="0" r="0.8" style="stroke:none;fill:blue;fill-opacity:0.5;"><animate attributeName="opacity" from="1" to="0" dur="3s" repeatCount="indefinite" /></circle></marker></defs><rect x="4" y="4" width="100" height="100" /><path d="M16.88,22.38c1,0.5,1.78,0.87,2.73,0.8c4.4-0.3,10.15-1.8,13.64-2.76c2.89-0.79,4.4,1.25,3.15,3.58S29.8,37.67,27.6,41" class="grey" /><path d="M27.6,41c12.56,8.33,12.62,33.33,1.32,29" class="grey" /><path d="M18.37,23.75c0.75,0.75,1.1,2.12,1.1,3.25c0,0.88-0.15,46.41-0.19,63.25c-0.01,2.64-0.01,4.57-0.01,5.5" class="grey" /><path d="M50.79,29.79c1.1,0.29,3.13,0.43,4.23,0.29c7.73-0.96,19.26-2.33,25.93-2.78c1.83-0.12,2.94,0.14,3.86,0.29" class="grey" /><path d="M65.7,14.37c0.97,0.97,1.27,2.16,1.27,3.59c0,8.92-0.06,16.92-0.06,22.99" class="grey" /><path d="M40.72,43.61c1.65,0.48,4.96,0.65,6.6,0.48c15.19-1.52,30.13-3.47,42.61-3.61c2.75-0.03,4.4,0.23,5.77,0.47" class="grey" /><path d="M57.49,46.4c0.07,0.5-0.09,1.57-0.4,2.28c-2.46,5.55-5.48,10.77-13.46,17.45" class="grey" /><path d="M73.51,44.59c0.76,0.76,1.01,2.03,1.01,3.46c0,2.44-0.24,5.32-0.24,7.18c0,3.76,0.84,5.06,8.13,5.06c4.83,0,8.38-0.5,10.42-1.71" class="grey" /><path d="M47.86,74.65c2.14,0.47,4.04,0.4,6.08,0.08C62,73.5,74.62,72,82.39,71.78c2.05-0.06,3.43-0.02,4.72,0.25" class="grey" /><path d="M65.79,60.66c0.96,0.96,1.36,2.34,1.36,3.72c0,6.87,0.09,15.25,0.09,25.5" class="grey" /><path d="M40,91.65c1.73,0.58,4.97,0.99,7.21,0.86c12.11-0.69,24.71-1.97,40.98-2.41c2.09-0.06,5.07,0.1,7.88,0.59" class="grey" /><path d="M16.88,22.38c1,0.5,1.78,0.87,2.73,0.8c4.4-0.3,10.15-1.8,13.64-2.76c2.89-0.79,4.4,1.25,3.15,3.58S29.8,37.67,27.6,41" class="stroke" stroke-dasharray="150"><animate attributeName="stroke-dashoffset" from="150" to="0" dur="1.8s" begin="0.0s" fill="freeze" /></path><path d="M27.6,41c12.56,8.33,12.62,33.33,1.32,29" class="stroke" stroke-dasharray="150"><set attributeName="opacity" to="0" dur="1.1s" /><animate attributeName="stroke-dashoffset" from="150" to="0" dur="1.8s" begin="1.1s" fill="freeze" /></path><path d="M18.37,23.75c0.75,0.75,1.1,2.12,1.1,3.25c0,0.88-0.15,46.41-0.19,63.25c-0.01,2.64-0.01,4.57-0.01,5.5" class="stroke" stroke-dasharray="150"><set attributeName="opacity" to="0" dur="2.1s" /><animate attributeName="stroke-dashoffset" from="150" to="0" dur="1.8s" begin="2.1s" fill="freeze" /></path><path d="M50.79,29.79c1.1,0.29,3.13,0.43,4.23,0.29c7.73-0.96,19.26-2.33,25.93-2.78c1.83-0.12,2.94,0.14,3.86,0.29" class="stroke" stroke-dasharray="150"><set attributeName="opacity" to="0" dur="3.8s" /><animate attributeName="stroke-dashoffset" from="150" to="0" dur="1.8s" begin="3.8s" fill="freeze" /></path><path d="M65.7,14.37c0.97,0.97,1.27,2.16,1.27,3.59c0,8.92-0.06,16.92-0.06,22.99" class="stroke" stroke-dasharray="150"><set attributeName="opacity" to="0" dur="4.8s" /><animate attributeName="stroke-dashoffset" from="150" to="0" dur="1.8s" begin="4.8s" fill="freeze" /></path><path d="M40.72,43.61c1.65,0.48,4.96,0.65,6.6,0.48c15.19-1.52,30.13-3.47,42.61-3.61c2.75-0.03,4.4,0.23,5.77,0.47" class="stroke" stroke-dasharray="150"><set attributeName="opacity" to="0" dur="5.8s" /><animate attributeName="stroke-dashoffset" from="150" to="0" dur="1.8s" begin="5.8s" fill="freeze" /></path><path d="M57.49,46.4c0.07,0.5-0.09,1.57-0.4,2.28c-2.46,5.55-5.48,10.77-13.46,17.45" class="stroke" stroke-dasharray="150"><set attributeName="opacity" to="0" dur="7.199999999999999s" /><animate attributeName="stroke-dashoffset" from="150" to="0" dur="1.8s" begin="7.199999999999999s" fill="freeze" /></path><path d="M73.51,44.59c0.76,0.76,1.01,2.03,1.01,3.46c0,2.44-0.24,5.32-0.24,7.18c0,3.76,0.84,5.06,8.13,5.06c4.83,0,8.38-0.5,10.42-1.71" class="stroke" stroke-dasharray="150"><set attributeName="opacity" to="0" dur="8.2s" /><animate attributeName="stroke-dashoffset" from="150" to="0" dur="1.8s" begin="8.2s" fill="freeze" /></path><path d="M47.86,74.65c2.14,0.47,4.04,0.4,6.08,0.08C62,73.5,74.62,72,82.39,71.78c2.05-0.06,3.43-0.02,4.72,0.25" class="stroke" stroke-dasharray="150"><set attributeName="opacity" to="0" dur="9.2s" /><animate attributeName="stroke-dashoffset" from="150" to="0" dur="1.8s" begin="9.2s" fill="freeze" /></path><path d="M65.79,60.66c0.96,0.96,1.36,2.34,1.36,3.72c0,6.87,0.09,15.25,0.09,25.5" class="stroke" stroke-dasharray="150"><set attributeName="opacity" to="0" dur="10.2s" /><animate attributeName="stroke-dashoffset" from="150" to="0" dur="1.8s" begin="10.2s" fill="freeze" /></path><path d="M40,91.65c1.73,0.58,4.97,0.99,7.21,0.86c12.11-0.69,24.71-1.97,40.98-2.41c2.09-0.06,5.07,0.1,7.88,0.59" class="stroke" stroke-dasharray="150"><set attributeName="opacity" to="0" dur="11.2s" /><animate attributeName="stroke-dashoffset" from="150" to="0" dur="1.8s" begin="11.2s" fill="freeze" /></path><text x="90" y="120" id="reset-kvg-09678">⟳</text><text x="70" y="120" id="pause-kvg-09678">◼</text><script type="text/javascript"><![CDATA[function RecurringTimer(e,t){var n,r,i=t;this.pause=function(){window.clearTimeout(n);i-=new Date-r};var s=function(){r=new Date;n=window.setTimeout(function(){i=t;s();e()},i)};this.clear=function(){window.clearTimeout(n);i=t;n=window.setTimeout(function(){i=t;s();e()},i)};this.resume=s;this.resume()}function invoketimer(){timer=new RecurringTimer(function(){svg.setCurrentTime(0)},13600.0)}var svg=document.getElementById("kvg-09678");var pause=document.getElementById("pause-kvg-09678");var reset=document.getElementById("reset-kvg-09678");var timer;invoketimer();reset.onclick=function(){svg.setCurrentTime(0);timer.clear();svg.unpauseAnimations();pause.innerHTML = "◼";};pause.onclick=function(){if(svg.animationsPaused()){svg.unpauseAnimations();timer.resume();pause.innerHTML="◼"}else{svg.pauseAnimations();timer.pause();pause.innerHTML="▶"}}]]></script></svg>