<svg id="kvg-0968f-Kaisho" class="kanjivg" width="106" height="126" xmlns="http://www.w3.org/2000/svg" xmlns:xlink="http://www.w3.org/1999/xlink" xml:space="preserve" version="1.1" baseProfile="full"><defs><style type="text/css"><![CDATA[path.black{fill:none;stroke:black;stroke-width:5;stroke-linecap:round;stroke-linejoin:round;}path.grey{fill:none;stroke:#ddd;stroke-width:5;stroke-linecap:round;stroke-linejoin:round;}path.stroke{fill:none;stroke:black;stroke-width:5;stroke-linecap:round;stroke-linejoin:round;}rect{fill:none;stroke:#555;stroke-width:2;} text{font-size:16px;font-family:Segoe UI Symbol,Cambria Math,DejaVu Sans,Symbola,Quivira,STIX,Code2000;-webkit-touch-callout:none;cursor:pointer;-webkit-user-select:none;-khtml-user-select:none;-moz-user-select:none;-ms-user-select:none;user-select: none;}text:hover{color:#777;}#reset{font-weight:bold;}]]></style><marker id="markerStart" markerWidth="8" markerHeight="8" style="overflow:visible;"><circle cx="0" cy="0" r="1.5" style="stroke:none;fill:red;fill-opacity:0.5;"/></marker><marker id="markerEnd" style="overflow:visible;"><circle cx="0" cy="0" r="0.8" style="stroke:none;fill:blue;fill-opacity:0.5;"><animate attributeName="opacity" from="1" to="0" dur="3s" repeatCount="indefinite" /></circle></marker></defs><rect x="4" y="4" width="100" height="100" /><path d="M15.35,20.44c0.9,0.14,2.39,0.77,3.4,0.66c5.75-0.6,10.55-2.35,12.49-3c2.33-0.78,4.67,0.78,3.63,2.59s-5.44,10.63-7.26,13.22" class="grey" /><path d="M27.61,34.31c10.37,6.48,10.63,25.92,1.3,22.55" class="grey" /><path d="M17.37,21.75c0.38,1,0.74,2.25,0.96,3.25c0.22,1,0,62.25-0.22,68.5" class="grey" /><path d="M68.72,13.68c0.05,0.79,0.13,2.05-0.11,3.19c-1.8,8.42-7.35,21.87-19.15,30.54" class="grey" /><path d="M46.05,27.71c0.86,0.43,2.44,0.53,3.3,0.43c5.06-0.58,31.67-4.13,40.84-4.12c1.43,0,2.29,0.2,3.01,0.42" class="grey" /><path d="M59.32,40.68c0.47,0.61,0.78,1.22,0.94,1.83c0.16,0.61,0.22,35.34,0.16,36.71" class="grey" /><path d="M61.19,42.08c1.88-0.15,19.1-3.12,20.5-3.29c2.5-0.31,3.44,1.98,3.13,2.9c-0.3,0.88-0.47,24.14-0.47,36.49c0,10.07-5.69,0.64-6.32-0.13" class="grey" /><path d="M61.19,53.04c3.85-0.55,7.7-1.06,11.56-1.54c1.03-0.13,2.06-0.25,3.06-0.37" class="grey" /><path d="M61.66,63.51c3.53-0.32,7.05-0.75,10.58-1.12c1.02-0.11,2.55-0.22,3.56-0.32" class="grey" /><path d="M38.98,35.5c2.7,1.44,6.96,5.91,7.64,8.15" class="grey" /><path d="M36,57.98c1.93,0.83,3.22-0.09,4.08-0.29c0.86-0.21,6.36-2.89,7.65-3.3c1.29-0.41,3.22,1.03,2.36,2.27c-0.86,1.24-3.43,5.98-4.08,7.01c-0.64,1.03-0.43,2.89,0.86,4.33c1.29,1.44,2.36,3.09,3,4.33c0.64,1.24,0.64,2.27-0.64,3.3c-1.29,1.03-7.72,6.8-9.01,7.22" class="grey" /><path d="M34.68,83.62c2.29-0.43,6.88-1.51,10.32-0.65c3.44,0.86,22.99,6.66,26.38,7.77c9.17,3.02,16.25,3.89,23.13,2.38" class="grey" /><path d="M15.35,20.44c0.9,0.14,2.39,0.77,3.4,0.66c5.75-0.6,10.55-2.35,12.49-3c2.33-0.78,4.67,0.78,3.63,2.59s-5.44,10.63-7.26,13.22" class="stroke" stroke-dasharray="150"><animate attributeName="stroke-dashoffset" from="150" to="0" dur="1.8s" begin="0.0s" fill="freeze" /></path><path d="M27.61,34.31c10.37,6.48,10.63,25.92,1.3,22.55" class="stroke" stroke-dasharray="150"><set attributeName="opacity" to="0" dur="1.0s" /><animate attributeName="stroke-dashoffset" from="150" to="0" dur="1.8s" begin="1.0s" fill="freeze" /></path><path d="M17.37,21.75c0.38,1,0.74,2.25,0.96,3.25c0.22,1,0,62.25-0.22,68.5" class="stroke" stroke-dasharray="150"><set attributeName="opacity" to="0" dur="2.0s" /><animate attributeName="stroke-dashoffset" from="150" to="0" dur="1.8s" begin="2.0s" fill="freeze" /></path><path d="M68.72,13.68c0.05,0.79,0.13,2.05-0.11,3.19c-1.8,8.42-7.35,21.87-19.15,30.54" class="stroke" stroke-dasharray="150"><set attributeName="opacity" to="0" dur="3.7s" /><animate attributeName="stroke-dashoffset" from="150" to="0" dur="1.8s" begin="3.7s" fill="freeze" /></path><path d="M46.05,27.71c0.86,0.43,2.44,0.53,3.3,0.43c5.06-0.58,31.67-4.13,40.84-4.12c1.43,0,2.29,0.2,3.01,0.42" class="stroke" stroke-dasharray="150"><set attributeName="opacity" to="0" dur="4.800000000000001s" /><animate attributeName="stroke-dashoffset" from="150" to="0" dur="1.8s" begin="4.800000000000001s" fill="freeze" /></path><path d="M59.32,40.68c0.47,0.61,0.78,1.22,0.94,1.83c0.16,0.61,0.22,35.34,0.16,36.71" class="stroke" stroke-dasharray="150"><set attributeName="opacity" to="0" dur="6.000000000000001s" /><animate attributeName="stroke-dashoffset" from="150" to="0" dur="1.8s" begin="6.000000000000001s" fill="freeze" /></path><path d="M61.19,42.08c1.88-0.15,19.1-3.12,20.5-3.29c2.5-0.31,3.44,1.98,3.13,2.9c-0.3,0.88-0.47,24.14-0.47,36.49c0,10.07-5.69,0.64-6.32-0.13" class="stroke" stroke-dasharray="150"><set attributeName="opacity" to="0" dur="7.000000000000001s" /><animate attributeName="stroke-dashoffset" from="150" to="0" dur="1.8s" begin="7.000000000000001s" fill="freeze" /></path><path d="M61.19,53.04c3.85-0.55,7.7-1.06,11.56-1.54c1.03-0.13,2.06-0.25,3.06-0.37" class="stroke" stroke-dasharray="150"><set attributeName="opacity" to="0" dur="8.700000000000001s" /><animate attributeName="stroke-dashoffset" from="150" to="0" dur="1.8s" begin="8.700000000000001s" fill="freeze" /></path><path d="M61.66,63.51c3.53-0.32,7.05-0.75,10.58-1.12c1.02-0.11,2.55-0.22,3.56-0.32" class="stroke" stroke-dasharray="150"><set attributeName="opacity" to="0" dur="9.600000000000001s" /><animate attributeName="stroke-dashoffset" from="150" to="0" dur="1.8s" begin="9.600000000000001s" fill="freeze" /></path><path d="M38.98,35.5c2.7,1.44,6.96,5.91,7.64,8.15" class="stroke" stroke-dasharray="150"><set attributeName="opacity" to="0" dur="10.500000000000002s" /><animate attributeName="stroke-dashoffset" from="150" to="0" dur="1.8s" begin="10.500000000000002s" fill="freeze" /></path><path d="M36,57.98c1.93,0.83,3.22-0.09,4.08-0.29c0.86-0.21,6.36-2.89,7.65-3.3c1.29-0.41,3.22,1.03,2.36,2.27c-0.86,1.24-3.43,5.98-4.08,7.01c-0.64,1.03-0.43,2.89,0.86,4.33c1.29,1.44,2.36,3.09,3,4.33c0.64,1.24,0.64,2.27-0.64,3.3c-1.29,1.03-7.72,6.8-9.01,7.22" class="stroke" stroke-dasharray="150"><set attributeName="opacity" to="0" dur="11.400000000000002s" /><animate attributeName="stroke-dashoffset" from="150" to="0" dur="1.8s" begin="11.400000000000002s" fill="freeze" /></path><path d="M34.68,83.62c2.29-0.43,6.88-1.51,10.32-0.65c3.44,0.86,22.99,6.66,26.38,7.77c9.17,3.02,16.25,3.89,23.13,2.38" class="stroke" stroke-dasharray="150"><set attributeName="opacity" to="0" dur="12.700000000000003s" /><animate attributeName="stroke-dashoffset" from="150" to="0" dur="1.8s" begin="12.700000000000003s" fill="freeze" /></path><text x="90" y="120" id="reset-kvg-0968f-Kaisho">⟳</text><text x="70" y="120" id="pause-kvg-0968f-Kaisho">◼</text><script type="text/javascript"><![CDATA[function RecurringTimer(e,t){var n,r,i=t;this.pause=function(){window.clearTimeout(n);i-=new Date-r};var s=function(){r=new Date;n=window.setTimeout(function(){i=t;s();e()},i)};this.clear=function(){window.clearTimeout(n);i=t;n=window.setTimeout(function(){i=t;s();e()},i)};this.resume=s;this.resume()}function invoketimer(){timer=new RecurringTimer(function(){svg.setCurrentTime(0)},15200.000000000004)}var svg=document.getElementById("kvg-0968f-Kaisho");var pause=document.getElementById("pause-kvg-0968f-Kaisho");var reset=document.getElementById("reset-kvg-0968f-Kaisho");var timer;invoketimer();reset.onclick=function(){svg.setCurrentTime(0);timer.clear();svg.unpauseAnimations();pause.innerHTML = "◼";};pause.onclick=function(){if(svg.animationsPaused()){svg.unpauseAnimations();timer.resume();pause.innerHTML="◼"}else{svg.pauseAnimations();timer.pause();pause.innerHTML="▶"}}]]></script></svg>