<svg id="kvg-096c5" class="kanjivg" width="106" height="126" xmlns="http://www.w3.org/2000/svg" xmlns:xlink="http://www.w3.org/1999/xlink" xml:space="preserve" version="1.1" baseProfile="full"><defs><style type="text/css"><![CDATA[path.black{fill:none;stroke:black;stroke-width:5;stroke-linecap:round;stroke-linejoin:round;}path.grey{fill:none;stroke:#ddd;stroke-width:5;stroke-linecap:round;stroke-linejoin:round;}path.stroke{fill:none;stroke:black;stroke-width:5;stroke-linecap:round;stroke-linejoin:round;}rect{fill:none;stroke:#555;stroke-width:2;} text{font-size:16px;font-family:Segoe UI Symbol,Cambria Math,DejaVu Sans,Symbola,Quivira,STIX,Code2000;-webkit-touch-callout:none;cursor:pointer;-webkit-user-select:none;-khtml-user-select:none;-moz-user-select:none;-ms-user-select:none;user-select: none;}text:hover{color:#777;}#reset{font-weight:bold;}]]></style><marker id="markerStart" markerWidth="8" markerHeight="8" style="overflow:visible;"><circle cx="0" cy="0" r="1.5" style="stroke:none;fill:red;fill-opacity:0.5;"/></marker><marker id="markerEnd" style="overflow:visible;"><circle cx="0" cy="0" r="0.8" style="stroke:none;fill:blue;fill-opacity:0.5;"><animate attributeName="opacity" from="1" to="0" dur="3s" repeatCount="indefinite" /></circle></marker></defs><rect x="4" y="4" width="100" height="100" /><path d="M15.41,22.6c2.47,0.65,4.8,0.51,6.71,0.22c6.85-1.05,16.35-2.35,22.16-3.43c1.71-0.32,3.85-0.65,5.58-0.26" class="grey" /><path d="M23.94,26.15c0.83,0.83,1.09,2.05,0.99,3.1c-0.68,7-1.18,13.75-1.38,18.6" class="grey" /><path d="M11.85,50.13c2.41,0.52,5.1,0.31,7.52-0.09c8.02-1.32,18.18-2.91,25.02-4.12c1.73-0.31,2.99-0.67,5.13-0.31" class="grey" /><path d="M40.56,23.3c0.76,0.76,1.3,1.83,1.3,4.05c0,18.6-0.01,55.23-0.01,61.56c0,12.67-5.95,2.92-7.5,1.32" class="grey" /><path d="M39.9,48.43c0,0.82-0.65,3.01-1.04,3.86C34.88,61,25.03,76.51,10.75,86.5" class="grey" /><path d="M63.63,15c0.15,1.79-0.05,2.85-0.54,4.35C59.94,28.88,55.7,38.11,48.5,49.5" class="grey" /><path d="M57.01,35.84c0.58,0.58,0.91,1.36,0.91,2.66c0,9.03-0.03,34.3-0.04,49.63c0,3.78,0,6.95,0,9.12" class="grey" /><path d="M82.75,14.75c0.08,0.88,0.04,2.05-0.28,2.77c-2.21,4.98-3.46,7.87-7.2,13.57" class="grey" /><path d="M58.68,34.14c7.57-0.89,20.82-1.89,31.11-3.16c2.73-0.34,3.72-0.23,5.47-0.04" class="grey" /><path d="M75.86,34.6c0.77,0.77,1.14,2.17,1.14,3.48c0,2.5,0,43.32,0,50.8" class="grey" /><path d="M58.97,52.38c5.43-0.54,19.53-1.88,29.03-2.79c2.45-0.23,4.33-0.19,5.23-0.08" class="grey" /><path d="M59.1,70.67c5.94-0.41,21.25-1.88,29.94-2.54c2.11-0.16,3.75-0.24,4.66-0.21" class="grey" /><path d="M58.98,91.44c6.85-0.37,25.32-2.15,35.04-2.68c2.01-0.11,3.59-0.17,4.54-0.14" class="grey" /><path d="M15.41,22.6c2.47,0.65,4.8,0.51,6.71,0.22c6.85-1.05,16.35-2.35,22.16-3.43c1.71-0.32,3.85-0.65,5.58-0.26" class="stroke" stroke-dasharray="150"><animate attributeName="stroke-dashoffset" from="150" to="0" dur="1.8s" begin="0.0s" fill="freeze" /></path><path d="M23.94,26.15c0.83,0.83,1.09,2.05,0.99,3.1c-0.68,7-1.18,13.75-1.38,18.6" class="stroke" stroke-dasharray="150"><set attributeName="opacity" to="0" dur="1.0s" /><animate attributeName="stroke-dashoffset" from="150" to="0" dur="1.8s" begin="1.0s" fill="freeze" /></path><path d="M11.85,50.13c2.41,0.52,5.1,0.31,7.52-0.09c8.02-1.32,18.18-2.91,25.02-4.12c1.73-0.31,2.99-0.67,5.13-0.31" class="stroke" stroke-dasharray="150"><set attributeName="opacity" to="0" dur="2.0s" /><animate attributeName="stroke-dashoffset" from="150" to="0" dur="1.8s" begin="2.0s" fill="freeze" /></path><path d="M40.56,23.3c0.76,0.76,1.3,1.83,1.3,4.05c0,18.6-0.01,55.23-0.01,61.56c0,12.67-5.95,2.92-7.5,1.32" class="stroke" stroke-dasharray="150"><set attributeName="opacity" to="0" dur="3.0s" /><animate attributeName="stroke-dashoffset" from="150" to="0" dur="1.8s" begin="3.0s" fill="freeze" /></path><path d="M39.9,48.43c0,0.82-0.65,3.01-1.04,3.86C34.88,61,25.03,76.51,10.75,86.5" class="stroke" stroke-dasharray="150"><set attributeName="opacity" to="0" dur="4.7s" /><animate attributeName="stroke-dashoffset" from="150" to="0" dur="1.8s" begin="4.7s" fill="freeze" /></path><path d="M63.63,15c0.15,1.79-0.05,2.85-0.54,4.35C59.94,28.88,55.7,38.11,48.5,49.5" class="stroke" stroke-dasharray="150"><set attributeName="opacity" to="0" dur="5.9s" /><animate attributeName="stroke-dashoffset" from="150" to="0" dur="1.8s" begin="5.9s" fill="freeze" /></path><path d="M57.01,35.84c0.58,0.58,0.91,1.36,0.91,2.66c0,9.03-0.03,34.3-0.04,49.63c0,3.78,0,6.95,0,9.12" class="stroke" stroke-dasharray="150"><set attributeName="opacity" to="0" dur="6.9s" /><animate attributeName="stroke-dashoffset" from="150" to="0" dur="1.8s" begin="6.9s" fill="freeze" /></path><path d="M82.75,14.75c0.08,0.88,0.04,2.05-0.28,2.77c-2.21,4.98-3.46,7.87-7.2,13.57" class="stroke" stroke-dasharray="150"><set attributeName="opacity" to="0" dur="8.4s" /><animate attributeName="stroke-dashoffset" from="150" to="0" dur="1.8s" begin="8.4s" fill="freeze" /></path><path d="M58.68,34.14c7.57-0.89,20.82-1.89,31.11-3.16c2.73-0.34,3.72-0.23,5.47-0.04" class="stroke" stroke-dasharray="150"><set attributeName="opacity" to="0" dur="9.3s" /><animate attributeName="stroke-dashoffset" from="150" to="0" dur="1.8s" begin="9.3s" fill="freeze" /></path><path d="M75.86,34.6c0.77,0.77,1.14,2.17,1.14,3.48c0,2.5,0,43.32,0,50.8" class="stroke" stroke-dasharray="150"><set attributeName="opacity" to="0" dur="10.3s" /><animate attributeName="stroke-dashoffset" from="150" to="0" dur="1.8s" begin="10.3s" fill="freeze" /></path><path d="M58.97,52.38c5.43-0.54,19.53-1.88,29.03-2.79c2.45-0.23,4.33-0.19,5.23-0.08" class="stroke" stroke-dasharray="150"><set attributeName="opacity" to="0" dur="11.600000000000001s" /><animate attributeName="stroke-dashoffset" from="150" to="0" dur="1.8s" begin="11.600000000000001s" fill="freeze" /></path><path d="M59.1,70.67c5.94-0.41,21.25-1.88,29.94-2.54c2.11-0.16,3.75-0.24,4.66-0.21" class="stroke" stroke-dasharray="150"><set attributeName="opacity" to="0" dur="12.600000000000001s" /><animate attributeName="stroke-dashoffset" from="150" to="0" dur="1.8s" begin="12.600000000000001s" fill="freeze" /></path><path d="M58.98,91.44c6.85-0.37,25.32-2.15,35.04-2.68c2.01-0.11,3.59-0.17,4.54-0.14" class="stroke" stroke-dasharray="150"><set attributeName="opacity" to="0" dur="13.600000000000001s" /><animate attributeName="stroke-dashoffset" from="150" to="0" dur="1.8s" begin="13.600000000000001s" fill="freeze" /></path><text x="90" y="120" id="reset-kvg-096c5">⟳</text><text x="70" y="120" id="pause-kvg-096c5">◼</text><script type="text/javascript"><![CDATA[function RecurringTimer(e,t){var n,r,i=t;this.pause=function(){window.clearTimeout(n);i-=new Date-r};var s=function(){r=new Date;n=window.setTimeout(function(){i=t;s();e()},i)};this.clear=function(){window.clearTimeout(n);i=t;n=window.setTimeout(function(){i=t;s();e()},i)};this.resume=s;this.resume()}function invoketimer(){timer=new RecurringTimer(function(){svg.setCurrentTime(0)},15600.000000000002)}var svg=document.getElementById("kvg-096c5");var pause=document.getElementById("pause-kvg-096c5");var reset=document.getElementById("reset-kvg-096c5");var timer;invoketimer();reset.onclick=function(){svg.setCurrentTime(0);timer.clear();svg.unpauseAnimations();pause.innerHTML = "◼";};pause.onclick=function(){if(svg.animationsPaused()){svg.unpauseAnimations();timer.resume();pause.innerHTML="◼"}else{svg.pauseAnimations();timer.pause();pause.innerHTML="▶"}}]]></script></svg>