<svg id="kvg-0971c-Kaisho" class="kanjivg" width="106" height="126" xmlns="http://www.w3.org/2000/svg" xmlns:xlink="http://www.w3.org/1999/xlink" xml:space="preserve" version="1.1" baseProfile="full"><defs><style type="text/css"><![CDATA[path.black{fill:none;stroke:black;stroke-width:5;stroke-linecap:round;stroke-linejoin:round;}path.grey{fill:none;stroke:#ddd;stroke-width:5;stroke-linecap:round;stroke-linejoin:round;}path.stroke{fill:none;stroke:black;stroke-width:5;stroke-linecap:round;stroke-linejoin:round;}rect{fill:none;stroke:#555;stroke-width:2;} text{font-size:16px;font-family:Segoe UI Symbol,Cambria Math,DejaVu Sans,Symbola,Quivira,STIX,Code2000;-webkit-touch-callout:none;cursor:pointer;-webkit-user-select:none;-khtml-user-select:none;-moz-user-select:none;-ms-user-select:none;user-select: none;}text:hover{color:#777;}#reset{font-weight:bold;}]]></style><marker id="markerStart" markerWidth="8" markerHeight="8" style="overflow:visible;"><circle cx="0" cy="0" r="1.5" style="stroke:none;fill:red;fill-opacity:0.5;"/></marker><marker id="markerEnd" style="overflow:visible;"><circle cx="0" cy="0" r="0.8" style="stroke:none;fill:blue;fill-opacity:0.5;"><animate attributeName="opacity" from="1" to="0" dur="3s" repeatCount="indefinite" /></circle></marker></defs><rect x="4" y="4" width="100" height="100" /><path d="M32.26,16.82c1.37,0.18,3.16,0.31,4.4,0.14C44,16,58.81,13.89,70.19,13.15c1.74-0.11,3.19-0.15,4.79,0.1" class="grey" /><path d="M20.66,28c-0.07,5.44-0.69,11.47-1.14,16.97" class="grey" /><path d="M21.81,30.13c19.99-2.88,49.96-5.88,64.91-5.88c7.74,0,3.73,4.25-0.27,8" class="grey" /><path d="M52.52,17.59c1.23,0.65,1.71,1.91,1.71,3.32c0,6.34-0.24,22.51-0.24,23.93" class="grey" /><path d="M36.09,34.19c2.42,0.53,5.71,2.11,7.02,2.98" class="grey" /><path d="M34.2,41.88c2.35,0.59,5.98,2.77,7.26,3.76" class="grey" /><path d="M65.91,30.52c3.25,1.07,6.93,3.22,8.23,4.11" class="grey" /><path d="M67.15,39.18c2.33,0.59,5.52,2.37,6.79,3.35" class="grey" /><path d="M14.64,61.77c1.61,0.73,3.16,0.38,5.09,0.31C27.75,61.75,38,59,46.79,57.9c1.92-0.24,2.42-0.31,3.63,0" class="grey" /><path d="M33.28,50.5c0.94,0.31,1.5,1.4,1.69,2.02c0.19,0.62-0.19,30.23-0.19,38.48c0,10-3.53,3.75-5.28,2" class="grey" /><path d="M34.97,59.9c-3.11,8.38-11.18,20.25-17.64,24.99" class="grey" /><path d="M37.16,66.77c4.42,1.41,8.32,4.82,11.7,8.83" class="grey" /><path d="M58.68,53.7c0.42,0.89,1.04,1.55,1.04,2.73s-0.14,38.29,0,39.47" class="grey" /><path d="M60.43,55.06c2.4-0.15,20.29-2.04,22.48-2.22c1.82-0.15,3.26,0.83,3.1,1.92c-0.2,1.39-0.7,38.28-0.85,39.16" class="grey" /><path d="M60.39,66.12c4.14-0.18,8.28-0.64,12.41-1.01c1.24-0.11,2.48-0.22,3.66-0.32" class="grey" /><path d="M60.58,78.53c4.1-0.32,8.19-0.73,12.29-1.07c1.14-0.09,2.27-0.19,3.38-0.27" class="grey" /><path d="M61.34,91.85c4.76,0,16.99-1.32,23.16-1.32" class="grey" /><path d="M32.26,16.82c1.37,0.18,3.16,0.31,4.4,0.14C44,16,58.81,13.89,70.19,13.15c1.74-0.11,3.19-0.15,4.79,0.1" class="stroke" stroke-dasharray="150"><animate attributeName="stroke-dashoffset" from="150" to="0" dur="1.8s" begin="0.0s" fill="freeze" /></path><path d="M20.66,28c-0.07,5.44-0.69,11.47-1.14,16.97" class="stroke" stroke-dasharray="150"><set attributeName="opacity" to="0" dur="1.1s" /><animate attributeName="stroke-dashoffset" from="150" to="0" dur="1.8s" begin="1.1s" fill="freeze" /></path><path d="M21.81,30.13c19.99-2.88,49.96-5.88,64.91-5.88c7.74,0,3.73,4.25-0.27,8" class="stroke" stroke-dasharray="150"><set attributeName="opacity" to="0" dur="2.0s" /><animate attributeName="stroke-dashoffset" from="150" to="0" dur="1.8s" begin="2.0s" fill="freeze" /></path><path d="M52.52,17.59c1.23,0.65,1.71,1.91,1.71,3.32c0,6.34-0.24,22.51-0.24,23.93" class="stroke" stroke-dasharray="150"><set attributeName="opacity" to="0" dur="3.7s" /><animate attributeName="stroke-dashoffset" from="150" to="0" dur="1.8s" begin="3.7s" fill="freeze" /></path><path d="M36.09,34.19c2.42,0.53,5.71,2.11,7.02,2.98" class="stroke" stroke-dasharray="150"><set attributeName="opacity" to="0" dur="4.7s" /><animate attributeName="stroke-dashoffset" from="150" to="0" dur="1.8s" begin="4.7s" fill="freeze" /></path><path d="M34.2,41.88c2.35,0.59,5.98,2.77,7.26,3.76" class="stroke" stroke-dasharray="150"><set attributeName="opacity" to="0" dur="5.6000000000000005s" /><animate attributeName="stroke-dashoffset" from="150" to="0" dur="1.8s" begin="5.6000000000000005s" fill="freeze" /></path><path d="M65.91,30.52c3.25,1.07,6.93,3.22,8.23,4.11" class="stroke" stroke-dasharray="150"><set attributeName="opacity" to="0" dur="6.500000000000001s" /><animate attributeName="stroke-dashoffset" from="150" to="0" dur="1.8s" begin="6.500000000000001s" fill="freeze" /></path><path d="M67.15,39.18c2.33,0.59,5.52,2.37,6.79,3.35" class="stroke" stroke-dasharray="150"><set attributeName="opacity" to="0" dur="7.400000000000001s" /><animate attributeName="stroke-dashoffset" from="150" to="0" dur="1.8s" begin="7.400000000000001s" fill="freeze" /></path><path d="M14.64,61.77c1.61,0.73,3.16,0.38,5.09,0.31C27.75,61.75,38,59,46.79,57.9c1.92-0.24,2.42-0.31,3.63,0" class="stroke" stroke-dasharray="150"><set attributeName="opacity" to="0" dur="8.3s" /><animate attributeName="stroke-dashoffset" from="150" to="0" dur="1.8s" begin="8.3s" fill="freeze" /></path><path d="M33.28,50.5c0.94,0.31,1.5,1.4,1.69,2.02c0.19,0.62-0.19,30.23-0.19,38.48c0,10-3.53,3.75-5.28,2" class="stroke" stroke-dasharray="150"><set attributeName="opacity" to="0" dur="9.3s" /><animate attributeName="stroke-dashoffset" from="150" to="0" dur="1.8s" begin="9.3s" fill="freeze" /></path><path d="M34.97,59.9c-3.11,8.38-11.18,20.25-17.64,24.99" class="stroke" stroke-dasharray="150"><set attributeName="opacity" to="0" dur="10.600000000000001s" /><animate attributeName="stroke-dashoffset" from="150" to="0" dur="1.8s" begin="10.600000000000001s" fill="freeze" /></path><path d="M37.16,66.77c4.42,1.41,8.32,4.82,11.7,8.83" class="stroke" stroke-dasharray="150"><set attributeName="opacity" to="0" dur="11.600000000000001s" /><animate attributeName="stroke-dashoffset" from="150" to="0" dur="1.8s" begin="11.600000000000001s" fill="freeze" /></path><path d="M58.68,53.7c0.42,0.89,1.04,1.55,1.04,2.73s-0.14,38.29,0,39.47" class="stroke" stroke-dasharray="150"><set attributeName="opacity" to="0" dur="12.500000000000002s" /><animate attributeName="stroke-dashoffset" from="150" to="0" dur="1.8s" begin="12.500000000000002s" fill="freeze" /></path><path d="M60.43,55.06c2.4-0.15,20.29-2.04,22.48-2.22c1.82-0.15,3.26,0.83,3.1,1.92c-0.2,1.39-0.7,38.28-0.85,39.16" class="stroke" stroke-dasharray="150"><set attributeName="opacity" to="0" dur="13.600000000000001s" /><animate attributeName="stroke-dashoffset" from="150" to="0" dur="1.8s" begin="13.600000000000001s" fill="freeze" /></path><path d="M60.39,66.12c4.14-0.18,8.28-0.64,12.41-1.01c1.24-0.11,2.48-0.22,3.66-0.32" class="stroke" stroke-dasharray="150"><set attributeName="opacity" to="0" dur="15.100000000000001s" /><animate attributeName="stroke-dashoffset" from="150" to="0" dur="1.8s" begin="15.100000000000001s" fill="freeze" /></path><path d="M60.58,78.53c4.1-0.32,8.19-0.73,12.29-1.07c1.14-0.09,2.27-0.19,3.38-0.27" class="stroke" stroke-dasharray="150"><set attributeName="opacity" to="0" dur="16.0s" /><animate attributeName="stroke-dashoffset" from="150" to="0" dur="1.8s" begin="16.0s" fill="freeze" /></path><path d="M61.34,91.85c4.76,0,16.99-1.32,23.16-1.32" class="stroke" stroke-dasharray="150"><set attributeName="opacity" to="0" dur="16.9s" /><animate attributeName="stroke-dashoffset" from="150" to="0" dur="1.8s" begin="16.9s" fill="freeze" /></path><text x="90" y="120" id="reset-kvg-0971c-Kaisho">⟳</text><text x="70" y="120" id="pause-kvg-0971c-Kaisho">◼</text><script type="text/javascript"><![CDATA[function RecurringTimer(e,t){var n,r,i=t;this.pause=function(){window.clearTimeout(n);i-=new Date-r};var s=function(){r=new Date;n=window.setTimeout(function(){i=t;s();e()},i)};this.clear=function(){window.clearTimeout(n);i=t;n=window.setTimeout(function(){i=t;s();e()},i)};this.resume=s;this.resume()}function invoketimer(){timer=new RecurringTimer(function(){svg.setCurrentTime(0)},18900.0)}var svg=document.getElementById("kvg-0971c-Kaisho");var pause=document.getElementById("pause-kvg-0971c-Kaisho");var reset=document.getElementById("reset-kvg-0971c-Kaisho");var timer;invoketimer();reset.onclick=function(){svg.setCurrentTime(0);timer.clear();svg.unpauseAnimations();pause.innerHTML = "◼";};pause.onclick=function(){if(svg.animationsPaused()){svg.unpauseAnimations();timer.resume();pause.innerHTML="◼"}else{svg.pauseAnimations();timer.pause();pause.innerHTML="▶"}}]]></script></svg>