<svg id="kvg-0977a" class="kanjivg" width="106" height="126" xmlns="http://www.w3.org/2000/svg" xmlns:xlink="http://www.w3.org/1999/xlink" xml:space="preserve" version="1.1" baseProfile="full"><defs><style type="text/css"><![CDATA[path.black{fill:none;stroke:black;stroke-width:5;stroke-linecap:round;stroke-linejoin:round;}path.grey{fill:none;stroke:#ddd;stroke-width:5;stroke-linecap:round;stroke-linejoin:round;}path.stroke{fill:none;stroke:black;stroke-width:5;stroke-linecap:round;stroke-linejoin:round;}rect{fill:none;stroke:#555;stroke-width:2;} text{font-size:16px;font-family:Segoe UI Symbol,Cambria Math,DejaVu Sans,Symbola,Quivira,STIX,Code2000;-webkit-touch-callout:none;cursor:pointer;-webkit-user-select:none;-khtml-user-select:none;-moz-user-select:none;-ms-user-select:none;user-select: none;}text:hover{color:#777;}#reset{font-weight:bold;}]]></style><marker id="markerStart" markerWidth="8" markerHeight="8" style="overflow:visible;"><circle cx="0" cy="0" r="1.5" style="stroke:none;fill:red;fill-opacity:0.5;"/></marker><marker id="markerEnd" style="overflow:visible;"><circle cx="0" cy="0" r="0.8" style="stroke:none;fill:blue;fill-opacity:0.5;"><animate attributeName="opacity" from="1" to="0" dur="3s" repeatCount="indefinite" /></circle></marker></defs><rect x="4" y="4" width="100" height="100" /><path d="M10.4,25.23c0.87,0.37,2.46,0.44,3.33,0.37c4.54-0.34,20.76-1.6,30.68-3.24c1.43-0.24,2.32,0.18,3.04,0.36" class="grey" /><path d="M17.35,15.46c0.47,0.33,1.25,1.98,1.34,2.64c0.81,5.9,1.23,10.94,1.73,18.4" class="grey" /><path d="M36.05,11c0.52,0.37,1,1.63,0.93,2.37c-0.72,7.6-0.36,10.44-1.73,20.65" class="grey" /><path d="M22.33,35.75c1.77,0,13.68-1.23,15.27-1.37" class="grey" /><path d="M12.12,45.05c0.3,0.51,0.61,0.93,0.74,1.56c1.05,5.01,1.93,8.09,2.65,17.1" class="grey" /><path d="M13.4,46.23c8.9-1.83,24.79-3.25,28.6-3.96c1.4-0.26,2.58,1.56,2.33,3.07c-0.5,3.1-1.85,7.36-2.94,12.75" class="grey" /><path d="M15.28,61.47c4.48-0.8,20.11-2.06,27.51-2.59" class="grey" /><path d="M9.75,75.7c0.86,0.54,2.92,0.49,3.79,0.54c4.71,0.26,19.46-1.99,30.45-3.73c1.41-0.22,2.29,0.26,3.01,0.53" class="grey" /><path d="M27.96,37.25c0.36,1,0.54,2.23,0.54,3.25c0,8.5,0,52.25-0.12,58.5" class="grey" /><path d="M47.93,31.4c1.08,0.49,3.05,0.58,4.13,0.49c5.44-0.45,33.03-3.86,39.36-4.07c1.79-0.06,2.87,0.23,3.77,0.48" class="grey" /><path d="M51.42,49.69c0.66,0.28,2.44,0.42,4.21,0.28c9.36-0.73,24.39-2.64,33.93-3.21c1.77-0.11,2.22-0.28,3.32,0" class="grey" /><path d="M68.3,12c1.2,0.48,1.92,2.15,2.15,3.11s0,77.9-0.24,83.89" class="grey" /><path d="M70.16,48.8c-4.88,12.96-17.57,31.31-27.72,38.65" class="grey" /><path d="M70.34,53.06c3.55,4.6,19.13,26.36,22.99,30.88c1.31,1.53,2.43,2.19,3.74,2.63" class="grey" /><path d="M10.4,25.23c0.87,0.37,2.46,0.44,3.33,0.37c4.54-0.34,20.76-1.6,30.68-3.24c1.43-0.24,2.32,0.18,3.04,0.36" class="stroke" stroke-dasharray="150"><animate attributeName="stroke-dashoffset" from="150" to="0" dur="1.8s" begin="0.0s" fill="freeze" /></path><path d="M17.35,15.46c0.47,0.33,1.25,1.98,1.34,2.64c0.81,5.9,1.23,10.94,1.73,18.4" class="stroke" stroke-dasharray="150"><set attributeName="opacity" to="0" dur="1.0s" /><animate attributeName="stroke-dashoffset" from="150" to="0" dur="1.8s" begin="1.0s" fill="freeze" /></path><path d="M36.05,11c0.52,0.37,1,1.63,0.93,2.37c-0.72,7.6-0.36,10.44-1.73,20.65" class="stroke" stroke-dasharray="150"><set attributeName="opacity" to="0" dur="2.0s" /><animate attributeName="stroke-dashoffset" from="150" to="0" dur="1.8s" begin="2.0s" fill="freeze" /></path><path d="M22.33,35.75c1.77,0,13.68-1.23,15.27-1.37" class="stroke" stroke-dasharray="150"><set attributeName="opacity" to="0" dur="3.0s" /><animate attributeName="stroke-dashoffset" from="150" to="0" dur="1.8s" begin="3.0s" fill="freeze" /></path><path d="M12.12,45.05c0.3,0.51,0.61,0.93,0.74,1.56c1.05,5.01,1.93,8.09,2.65,17.1" class="stroke" stroke-dasharray="150"><set attributeName="opacity" to="0" dur="3.9s" /><animate attributeName="stroke-dashoffset" from="150" to="0" dur="1.8s" begin="3.9s" fill="freeze" /></path><path d="M13.4,46.23c8.9-1.83,24.79-3.25,28.6-3.96c1.4-0.26,2.58,1.56,2.33,3.07c-0.5,3.1-1.85,7.36-2.94,12.75" class="stroke" stroke-dasharray="150"><set attributeName="opacity" to="0" dur="4.8s" /><animate attributeName="stroke-dashoffset" from="150" to="0" dur="1.8s" begin="4.8s" fill="freeze" /></path><path d="M15.28,61.47c4.48-0.8,20.11-2.06,27.51-2.59" class="stroke" stroke-dasharray="150"><set attributeName="opacity" to="0" dur="6.0s" /><animate attributeName="stroke-dashoffset" from="150" to="0" dur="1.8s" begin="6.0s" fill="freeze" /></path><path d="M9.75,75.7c0.86,0.54,2.92,0.49,3.79,0.54c4.71,0.26,19.46-1.99,30.45-3.73c1.41-0.22,2.29,0.26,3.01,0.53" class="stroke" stroke-dasharray="150"><set attributeName="opacity" to="0" dur="7.0s" /><animate attributeName="stroke-dashoffset" from="150" to="0" dur="1.8s" begin="7.0s" fill="freeze" /></path><path d="M27.96,37.25c0.36,1,0.54,2.23,0.54,3.25c0,8.5,0,52.25-0.12,58.5" class="stroke" stroke-dasharray="150"><set attributeName="opacity" to="0" dur="8.0s" /><animate attributeName="stroke-dashoffset" from="150" to="0" dur="1.8s" begin="8.0s" fill="freeze" /></path><path d="M47.93,31.4c1.08,0.49,3.05,0.58,4.13,0.49c5.44-0.45,33.03-3.86,39.36-4.07c1.79-0.06,2.87,0.23,3.77,0.48" class="stroke" stroke-dasharray="150"><set attributeName="opacity" to="0" dur="9.5s" /><animate attributeName="stroke-dashoffset" from="150" to="0" dur="1.8s" begin="9.5s" fill="freeze" /></path><path d="M51.42,49.69c0.66,0.28,2.44,0.42,4.21,0.28c9.36-0.73,24.39-2.64,33.93-3.21c1.77-0.11,2.22-0.28,3.32,0" class="stroke" stroke-dasharray="150"><set attributeName="opacity" to="0" dur="10.7s" /><animate attributeName="stroke-dashoffset" from="150" to="0" dur="1.8s" begin="10.7s" fill="freeze" /></path><path d="M68.3,12c1.2,0.48,1.92,2.15,2.15,3.11s0,77.9-0.24,83.89" class="stroke" stroke-dasharray="150"><set attributeName="opacity" to="0" dur="11.799999999999999s" /><animate attributeName="stroke-dashoffset" from="150" to="0" dur="1.8s" begin="11.799999999999999s" fill="freeze" /></path><path d="M70.16,48.8c-4.88,12.96-17.57,31.31-27.72,38.65" class="stroke" stroke-dasharray="150"><set attributeName="opacity" to="0" dur="13.499999999999998s" /><animate attributeName="stroke-dashoffset" from="150" to="0" dur="1.8s" begin="13.499999999999998s" fill="freeze" /></path><path d="M70.34,53.06c3.55,4.6,19.13,26.36,22.99,30.88c1.31,1.53,2.43,2.19,3.74,2.63" class="stroke" stroke-dasharray="150"><set attributeName="opacity" to="0" dur="14.699999999999998s" /><animate attributeName="stroke-dashoffset" from="150" to="0" dur="1.8s" begin="14.699999999999998s" fill="freeze" /></path><text x="90" y="120" id="reset-kvg-0977a">⟳</text><text x="70" y="120" id="pause-kvg-0977a">◼</text><script type="text/javascript"><![CDATA[function RecurringTimer(e,t){var n,r,i=t;this.pause=function(){window.clearTimeout(n);i-=new Date-r};var s=function(){r=new Date;n=window.setTimeout(function(){i=t;s();e()},i)};this.clear=function(){window.clearTimeout(n);i=t;n=window.setTimeout(function(){i=t;s();e()},i)};this.resume=s;this.resume()}function invoketimer(){timer=new RecurringTimer(function(){svg.setCurrentTime(0)},16799.999999999996)}var svg=document.getElementById("kvg-0977a");var pause=document.getElementById("pause-kvg-0977a");var reset=document.getElementById("reset-kvg-0977a");var timer;invoketimer();reset.onclick=function(){svg.setCurrentTime(0);timer.clear();svg.unpauseAnimations();pause.innerHTML = "◼";};pause.onclick=function(){if(svg.animationsPaused()){svg.unpauseAnimations();timer.resume();pause.innerHTML="◼"}else{svg.pauseAnimations();timer.pause();pause.innerHTML="▶"}}]]></script></svg>