<svg id="kvg-097f5-Kaisho" class="kanjivg" width="106" height="126" xmlns="http://www.w3.org/2000/svg" xmlns:xlink="http://www.w3.org/1999/xlink" xml:space="preserve" version="1.1" baseProfile="full"><defs><style type="text/css"><![CDATA[path.black{fill:none;stroke:black;stroke-width:5;stroke-linecap:round;stroke-linejoin:round;}path.grey{fill:none;stroke:#ddd;stroke-width:5;stroke-linecap:round;stroke-linejoin:round;}path.stroke{fill:none;stroke:black;stroke-width:5;stroke-linecap:round;stroke-linejoin:round;}rect{fill:none;stroke:#555;stroke-width:2;} text{font-size:16px;font-family:Segoe UI Symbol,Cambria Math,DejaVu Sans,Symbola,Quivira,STIX,Code2000;-webkit-touch-callout:none;cursor:pointer;-webkit-user-select:none;-khtml-user-select:none;-moz-user-select:none;-ms-user-select:none;user-select: none;}text:hover{color:#777;}#reset{font-weight:bold;}]]></style><marker id="markerStart" markerWidth="8" markerHeight="8" style="overflow:visible;"><circle cx="0" cy="0" r="1.5" style="stroke:none;fill:red;fill-opacity:0.5;"/></marker><marker id="markerEnd" style="overflow:visible;"><circle cx="0" cy="0" r="0.8" style="stroke:none;fill:blue;fill-opacity:0.5;"><animate attributeName="opacity" from="1" to="0" dur="3s" repeatCount="indefinite" /></circle></marker></defs><rect x="4" y="4" width="100" height="100" /><path d="M25.59,12.46c3.89,1.9,7.4,6.1,9.28,10.32" class="grey" /><path d="M12.14,30.67c0.89,0.1,2.92,0.12,3.8,0.04c7.56-0.7,17.29-2.13,27.57-2.67c1.48-0.08,2.35-0.18,3.09-0.16" class="grey" /><path d="M18.86,33.89c2.35,2.49,4.55,9.76,5.09,12.56" class="grey" /><path d="M40.69,30.86C41,31.75,41.41,33,41.3,33.38c-1.07,3.84-2.73,8.54-4.44,11.59" class="grey" /><path d="M9.88,50.75c1.12,0.25,2.51,0.41,3.63,0.39c6.65-0.13,20.28-2.63,31.17-3.15c1.45-0.1,3.07,0,3.95,0.49" class="grey" /><path d="M16.2,61.35c0.45,0.78,0.82,1.38,1.01,2.43c0.82,4.63,2.73,29.68,2.73,30.76" class="grey" /><path d="M18.52,62.76c2.57-0.27,19.23-2.01,23.38-2.43c2.35-0.24,3.33,0.93,3.33,2.76c0,3.06-2.79,28.4-3.18,29.72" class="grey" /><path d="M19.03,76.63c4.47-0.39,8.93-0.75,13.4-1.1c1.17-0.09,2.32-0.18,3.41-0.26" class="grey" /><path d="M20.81,93.15c5.14-0.28,14.01-1.11,20.66-1.48" class="grey" /><path d="M65.8,14.75c0.04,0.79,0.07,2.04-0.07,3.18c-0.86,6.71-5.76,21.43-12.48,30.45" class="grey" /><path d="M64.54,29.92c1.46,0.33,3.1,0.17,4.6-0.04C75.5,29,86,27.25,90.28,26.25c3.51-0.82,5.12,0.3,4.78,5.19c-0.79,11.29-2.75,44.6-8.24,58.98c-2.32,6.08-5.57,4.33-8.76-0.16" class="grey" /><path d="M59.09,51.08c0.49,0.24,2.13,0.36,2.63,0.32c4.56-0.37,11.03-1.91,15.41-2.5c0.61-0.08,1.97-0.1,2.9,0.11" class="grey" /><path d="M 58.337267,72.911276 c 0.708054,0.522572 2.350289,0.413627 3.893151,-0.574141 4.257275,-2.725583 9.500253,-5.560258 18.958176,-10.561457" class="grey" /><path d="M25.59,12.46c3.89,1.9,7.4,6.1,9.28,10.32" class="stroke" stroke-dasharray="150"><animate attributeName="stroke-dashoffset" from="150" to="0" dur="1.8s" begin="0.0s" fill="freeze" /></path><path d="M12.14,30.67c0.89,0.1,2.92,0.12,3.8,0.04c7.56-0.7,17.29-2.13,27.57-2.67c1.48-0.08,2.35-0.18,3.09-0.16" class="stroke" stroke-dasharray="150"><set attributeName="opacity" to="0" dur="0.9s" /><animate attributeName="stroke-dashoffset" from="150" to="0" dur="1.8s" begin="0.9s" fill="freeze" /></path><path d="M18.86,33.89c2.35,2.49,4.55,9.76,5.09,12.56" class="stroke" stroke-dasharray="150"><set attributeName="opacity" to="0" dur="1.9s" /><animate attributeName="stroke-dashoffset" from="150" to="0" dur="1.8s" begin="1.9s" fill="freeze" /></path><path d="M40.69,30.86C41,31.75,41.41,33,41.3,33.38c-1.07,3.84-2.73,8.54-4.44,11.59" class="stroke" stroke-dasharray="150"><set attributeName="opacity" to="0" dur="2.8s" /><animate attributeName="stroke-dashoffset" from="150" to="0" dur="1.8s" begin="2.8s" fill="freeze" /></path><path d="M9.88,50.75c1.12,0.25,2.51,0.41,3.63,0.39c6.65-0.13,20.28-2.63,31.17-3.15c1.45-0.1,3.07,0,3.95,0.49" class="stroke" stroke-dasharray="150"><set attributeName="opacity" to="0" dur="3.6999999999999997s" /><animate attributeName="stroke-dashoffset" from="150" to="0" dur="1.8s" begin="3.6999999999999997s" fill="freeze" /></path><path d="M16.2,61.35c0.45,0.78,0.82,1.38,1.01,2.43c0.82,4.63,2.73,29.68,2.73,30.76" class="stroke" stroke-dasharray="150"><set attributeName="opacity" to="0" dur="4.699999999999999s" /><animate attributeName="stroke-dashoffset" from="150" to="0" dur="1.8s" begin="4.699999999999999s" fill="freeze" /></path><path d="M18.52,62.76c2.57-0.27,19.23-2.01,23.38-2.43c2.35-0.24,3.33,0.93,3.33,2.76c0,3.06-2.79,28.4-3.18,29.72" class="stroke" stroke-dasharray="150"><set attributeName="opacity" to="0" dur="5.699999999999999s" /><animate attributeName="stroke-dashoffset" from="150" to="0" dur="1.8s" begin="5.699999999999999s" fill="freeze" /></path><path d="M19.03,76.63c4.47-0.39,8.93-0.75,13.4-1.1c1.17-0.09,2.32-0.18,3.41-0.26" class="stroke" stroke-dasharray="150"><set attributeName="opacity" to="0" dur="7.1s" /><animate attributeName="stroke-dashoffset" from="150" to="0" dur="1.8s" begin="7.1s" fill="freeze" /></path><path d="M20.81,93.15c5.14-0.28,14.01-1.11,20.66-1.48" class="stroke" stroke-dasharray="150"><set attributeName="opacity" to="0" dur="8.0s" /><animate attributeName="stroke-dashoffset" from="150" to="0" dur="1.8s" begin="8.0s" fill="freeze" /></path><path d="M65.8,14.75c0.04,0.79,0.07,2.04-0.07,3.18c-0.86,6.71-5.76,21.43-12.48,30.45" class="stroke" stroke-dasharray="150"><set attributeName="opacity" to="0" dur="9.0s" /><animate attributeName="stroke-dashoffset" from="150" to="0" dur="1.8s" begin="9.0s" fill="freeze" /></path><path d="M64.54,29.92c1.46,0.33,3.1,0.17,4.6-0.04C75.5,29,86,27.25,90.28,26.25c3.51-0.82,5.12,0.3,4.78,5.19c-0.79,11.29-2.75,44.6-8.24,58.98c-2.32,6.08-5.57,4.33-8.76-0.16" class="stroke" stroke-dasharray="150"><set attributeName="opacity" to="0" dur="10.0s" /><animate attributeName="stroke-dashoffset" from="150" to="0" dur="1.8s" begin="10.0s" fill="freeze" /></path><path d="M59.09,51.08c0.49,0.24,2.13,0.36,2.63,0.32c4.56-0.37,11.03-1.91,15.41-2.5c0.61-0.08,1.97-0.1,2.9,0.11" class="stroke" stroke-dasharray="150"><set attributeName="opacity" to="0" dur="11.9s" /><animate attributeName="stroke-dashoffset" from="150" to="0" dur="1.8s" begin="11.9s" fill="freeze" /></path><path d="M 58.337267,72.911276 c 0.708054,0.522572 2.350289,0.413627 3.893151,-0.574141 4.257275,-2.725583 9.500253,-5.560258 18.958176,-10.561457" class="stroke" stroke-dasharray="150"><set attributeName="opacity" to="0" dur="12.9s" /><animate attributeName="stroke-dashoffset" from="150" to="0" dur="1.8s" begin="12.9s" fill="freeze" /></path><text x="90" y="120" id="reset-kvg-097f5-Kaisho">⟳</text><text x="70" y="120" id="pause-kvg-097f5-Kaisho">◼</text><script type="text/javascript"><![CDATA[function RecurringTimer(e,t){var n,r,i=t;this.pause=function(){window.clearTimeout(n);i-=new Date-r};var s=function(){r=new Date;n=window.setTimeout(function(){i=t;s();e()},i)};this.clear=function(){window.clearTimeout(n);i=t;n=window.setTimeout(function(){i=t;s();e()},i)};this.resume=s;this.resume()}function invoketimer(){timer=new RecurringTimer(function(){svg.setCurrentTime(0)},14900.0)}var svg=document.getElementById("kvg-097f5-Kaisho");var pause=document.getElementById("pause-kvg-097f5-Kaisho");var reset=document.getElementById("reset-kvg-097f5-Kaisho");var timer;invoketimer();reset.onclick=function(){svg.setCurrentTime(0);timer.clear();svg.unpauseAnimations();pause.innerHTML = "◼";};pause.onclick=function(){if(svg.animationsPaused()){svg.unpauseAnimations();timer.resume();pause.innerHTML="◼"}else{svg.pauseAnimations();timer.pause();pause.innerHTML="▶"}}]]></script></svg>