<svg id="kvg-09803-Kaisho" class="kanjivg" width="106" height="126" xmlns="http://www.w3.org/2000/svg" xmlns:xlink="http://www.w3.org/1999/xlink" xml:space="preserve" version="1.1" baseProfile="full"><defs><style type="text/css"><![CDATA[path.black{fill:none;stroke:black;stroke-width:5;stroke-linecap:round;stroke-linejoin:round;}path.grey{fill:none;stroke:#ddd;stroke-width:5;stroke-linecap:round;stroke-linejoin:round;}path.stroke{fill:none;stroke:black;stroke-width:5;stroke-linecap:round;stroke-linejoin:round;}rect{fill:none;stroke:#555;stroke-width:2;} text{font-size:16px;font-family:Segoe UI Symbol,Cambria Math,DejaVu Sans,Symbola,Quivira,STIX,Code2000;-webkit-touch-callout:none;cursor:pointer;-webkit-user-select:none;-khtml-user-select:none;-moz-user-select:none;-ms-user-select:none;user-select: none;}text:hover{color:#777;}#reset{font-weight:bold;}]]></style><marker id="markerStart" markerWidth="8" markerHeight="8" style="overflow:visible;"><circle cx="0" cy="0" r="1.5" style="stroke:none;fill:red;fill-opacity:0.5;"/></marker><marker id="markerEnd" style="overflow:visible;"><circle cx="0" cy="0" r="0.8" style="stroke:none;fill:blue;fill-opacity:0.5;"><animate attributeName="opacity" from="1" to="0" dur="3s" repeatCount="indefinite" /></circle></marker></defs><rect x="4" y="4" width="100" height="100" /><path d="M19,42.75c9.25-1.5,13-2.25,19.15-3.6c1.07-0.24,2.85-0.4,4.65-0.58" class="grey" /><path d="M17,17.5c0.81,0.87,1.5,2.25,1.5,3.34c0,2.88-0.38,43.94-0.38,47.33C18.13,71,20,72,22.75,70.5c3.71-2.02,12-6.5,17.81-9.3" class="grey" /><path d="M43.44,17.24c1.08,0.62,3.56,0.92,4.64,0.82c11.96-1.03,34.42-3.31,45.02-4.03c1.8-0.12,2.88,0.45,3.78,0.79" class="grey" /><path d="M66.45,19.88c0.02,0.29,0.03,0.75-0.04,1.16c-0.41,2.44-2.72,7.72-5.87,10.88" class="grey" /><path d="M53.26,32.76c0.48,1.15,1.19,2.03,1.18,3.51c-0.01,1.49-0.48,40.92-0.49,41.66c0,0.74,0.16,0.75,0.32,2.25" class="grey" /><path d="M55.26,34.38c2.76-0.01,24.49-3.03,27-3.09c2.09-0.05,3.74,2.31,3.55,3.68c-0.23,1.74-0.91,23.48-0.96,39.86c-0.01,1.68-0.17,2.41-0.18,3.52" class="grey" /><path d="M54.66,48.07c4.71,0.31,9.69-0.55,14.37-0.97c1.58-0.14,3.18-0.29,4.73-0.42" class="grey" /><path d="M55.33,62.28c5.02-0.28,10.02-0.74,15.03-1.16c1.24-0.1,2.46-0.2,3.66-0.3" class="grey" /><path d="M55.99,77.6c6.36-0.69,19.94-1.43,27.96-1.47" class="grey" /><path d="M59.76,83.19c0.59,1.39,1.17,1.78-0.02,2.73C56.15,88.77,46.5,96,37.88,98.94" class="grey" /><path d="M76.11,82.28c7.1,4.45,15.49,12.28,17.41,15.95" class="grey" /><path d="M19,42.75c9.25-1.5,13-2.25,19.15-3.6c1.07-0.24,2.85-0.4,4.65-0.58" class="stroke" stroke-dasharray="150"><animate attributeName="stroke-dashoffset" from="150" to="0" dur="1.8s" begin="0.0s" fill="freeze" /></path><path d="M17,17.5c0.81,0.87,1.5,2.25,1.5,3.34c0,2.88-0.38,43.94-0.38,47.33C18.13,71,20,72,22.75,70.5c3.71-2.02,12-6.5,17.81-9.3" class="stroke" stroke-dasharray="150"><set attributeName="opacity" to="0" dur="1.0s" /><animate attributeName="stroke-dashoffset" from="150" to="0" dur="1.8s" begin="1.0s" fill="freeze" /></path><path d="M43.44,17.24c1.08,0.62,3.56,0.92,4.64,0.82c11.96-1.03,34.42-3.31,45.02-4.03c1.8-0.12,2.88,0.45,3.78,0.79" class="stroke" stroke-dasharray="150"><set attributeName="opacity" to="0" dur="2.7s" /><animate attributeName="stroke-dashoffset" from="150" to="0" dur="1.8s" begin="2.7s" fill="freeze" /></path><path d="M66.45,19.88c0.02,0.29,0.03,0.75-0.04,1.16c-0.41,2.44-2.72,7.72-5.87,10.88" class="stroke" stroke-dasharray="150"><set attributeName="opacity" to="0" dur="4.0s" /><animate attributeName="stroke-dashoffset" from="150" to="0" dur="1.8s" begin="4.0s" fill="freeze" /></path><path d="M53.26,32.76c0.48,1.15,1.19,2.03,1.18,3.51c-0.01,1.49-0.48,40.92-0.49,41.66c0,0.74,0.16,0.75,0.32,2.25" class="stroke" stroke-dasharray="150"><set attributeName="opacity" to="0" dur="4.9s" /><animate attributeName="stroke-dashoffset" from="150" to="0" dur="1.8s" begin="4.9s" fill="freeze" /></path><path d="M55.26,34.38c2.76-0.01,24.49-3.03,27-3.09c2.09-0.05,3.74,2.31,3.55,3.68c-0.23,1.74-0.91,23.48-0.96,39.86c-0.01,1.68-0.17,2.41-0.18,3.52" class="stroke" stroke-dasharray="150"><set attributeName="opacity" to="0" dur="6.1000000000000005s" /><animate attributeName="stroke-dashoffset" from="150" to="0" dur="1.8s" begin="6.1000000000000005s" fill="freeze" /></path><path d="M54.66,48.07c4.71,0.31,9.69-0.55,14.37-0.97c1.58-0.14,3.18-0.29,4.73-0.42" class="stroke" stroke-dasharray="150"><set attributeName="opacity" to="0" dur="7.800000000000001s" /><animate attributeName="stroke-dashoffset" from="150" to="0" dur="1.8s" begin="7.800000000000001s" fill="freeze" /></path><path d="M55.33,62.28c5.02-0.28,10.02-0.74,15.03-1.16c1.24-0.1,2.46-0.2,3.66-0.3" class="stroke" stroke-dasharray="150"><set attributeName="opacity" to="0" dur="8.700000000000001s" /><animate attributeName="stroke-dashoffset" from="150" to="0" dur="1.8s" begin="8.700000000000001s" fill="freeze" /></path><path d="M55.99,77.6c6.36-0.69,19.94-1.43,27.96-1.47" class="stroke" stroke-dasharray="150"><set attributeName="opacity" to="0" dur="9.600000000000001s" /><animate attributeName="stroke-dashoffset" from="150" to="0" dur="1.8s" begin="9.600000000000001s" fill="freeze" /></path><path d="M59.76,83.19c0.59,1.39,1.17,1.78-0.02,2.73C56.15,88.77,46.5,96,37.88,98.94" class="stroke" stroke-dasharray="150"><set attributeName="opacity" to="0" dur="10.600000000000001s" /><animate attributeName="stroke-dashoffset" from="150" to="0" dur="1.8s" begin="10.600000000000001s" fill="freeze" /></path><path d="M76.11,82.28c7.1,4.45,15.49,12.28,17.41,15.95" class="stroke" stroke-dasharray="150"><set attributeName="opacity" to="0" dur="11.600000000000001s" /><animate attributeName="stroke-dashoffset" from="150" to="0" dur="1.8s" begin="11.600000000000001s" fill="freeze" /></path><text x="90" y="120" id="reset-kvg-09803-Kaisho">⟳</text><text x="70" y="120" id="pause-kvg-09803-Kaisho">◼</text><script type="text/javascript"><![CDATA[function RecurringTimer(e,t){var n,r,i=t;this.pause=function(){window.clearTimeout(n);i-=new Date-r};var s=function(){r=new Date;n=window.setTimeout(function(){i=t;s();e()},i)};this.clear=function(){window.clearTimeout(n);i=t;n=window.setTimeout(function(){i=t;s();e()},i)};this.resume=s;this.resume()}function invoketimer(){timer=new RecurringTimer(function(){svg.setCurrentTime(0)},13600.000000000002)}var svg=document.getElementById("kvg-09803-Kaisho");var pause=document.getElementById("pause-kvg-09803-Kaisho");var reset=document.getElementById("reset-kvg-09803-Kaisho");var timer;invoketimer();reset.onclick=function(){svg.setCurrentTime(0);timer.clear();svg.unpauseAnimations();pause.innerHTML = "◼";};pause.onclick=function(){if(svg.animationsPaused()){svg.unpauseAnimations();timer.resume();pause.innerHTML="◼"}else{svg.pauseAnimations();timer.pause();pause.innerHTML="▶"}}]]></script></svg>