<svg id="kvg-0990c-HyougaiKaisho" class="kanjivg" width="106" height="126" xmlns="http://www.w3.org/2000/svg" xmlns:xlink="http://www.w3.org/1999/xlink" xml:space="preserve" version="1.1" baseProfile="full"><defs><style type="text/css"><![CDATA[path.black{fill:none;stroke:black;stroke-width:5;stroke-linecap:round;stroke-linejoin:round;}path.grey{fill:none;stroke:#ddd;stroke-width:5;stroke-linecap:round;stroke-linejoin:round;}path.stroke{fill:none;stroke:black;stroke-width:5;stroke-linecap:round;stroke-linejoin:round;}rect{fill:none;stroke:#555;stroke-width:2;} text{font-size:16px;font-family:Segoe UI Symbol,Cambria Math,DejaVu Sans,Symbola,Quivira,STIX,Code2000;-webkit-touch-callout:none;cursor:pointer;-webkit-user-select:none;-khtml-user-select:none;-moz-user-select:none;-ms-user-select:none;user-select: none;}text:hover{color:#777;}#reset{font-weight:bold;}]]></style><marker id="markerStart" markerWidth="8" markerHeight="8" style="overflow:visible;"><circle cx="0" cy="0" r="1.5" style="stroke:none;fill:red;fill-opacity:0.5;"/></marker><marker id="markerEnd" style="overflow:visible;"><circle cx="0" cy="0" r="0.8" style="stroke:none;fill:blue;fill-opacity:0.5;"><animate attributeName="opacity" from="1" to="0" dur="3s" repeatCount="indefinite" /></circle></marker></defs><rect x="4" y="4" width="100" height="100" /><path d="M34.82,12.17c0.06,0.71,0.26,1.89-0.13,2.85c-3.16,7.92-12.07,21-21.94,27.82" class="grey" /><path d="M35.13,16.55c5.81,3.75,11.74,9.56,15.12,14.85" class="grey" /><path d="M32.36,30.33c2.75,1.17,4.39,2.93,4.94,5.27" class="grey" /><path d="M23.87,41.85c1.53-0.11,18.33-2.7,19.71-2.91c2.35-0.36,3.05,1.33,2.84,2.99c-1,7.71-2.58,26.52-2.58,27.17" class="grey" /><path d="M24.14,55.07c3.05,0,6.2-0.62,9.21-1.01c1.05-0.14,2.11-0.28,3.15-0.43" class="grey" /><path d="M24.04,68.69c4.21-0.49,12.24-2.06,18.64-2.86" class="grey" /><path d="M22,41.37c0.87,0.52,1.39,2.34,1.56,3.39c0.17,1.04,0.36,44.61,0.17,47.2c-0.17,2.35-1.56,5.75,0.52,3.93c2.09-1.82,14-11.15,18.35-13.99" class="grey" /><path d="M40.49,75.38c2.52,2.82,6.46,10.33,7.9,16.28" class="grey" /><path d="M53.5,25.51c0.9,0.44,2.53,0.5,3.44,0.44c9.87-0.66,16.44-1.88,34.47-3.19c1.49-0.11,2.39,0.21,3.14,0.43" class="grey" /><path d="M60.36,28.39c0.78,0.5,1.2,1.81,1.2,3.16c0,1.35-0.24,43.31-0.24,48.16" class="grey" /><path d="M61.88,43.73c3.34-0.45,6.69-0.81,10.04-1.13c0.99-0.1,1.99-0.19,3-0.28" class="grey" /><path d="M61.51,61.73c3.45-0.52,6.89-1.1,10.35-1.6c0.95-0.14,1.92-0.27,2.89-0.4" class="grey" /><path d="M52.71,80.97c1.28,0.39,3.23,0.4,4.4,0.08c4.7-1.26,30.18-8.25,37.4-10.27" class="grey" /><path d="M82.87,25.79c0.37,0.82,0.91,1.84,0.91,2.86c0,1.02,0.18,61.99,0.18,70.35" class="grey" /><path d="M34.82,12.17c0.06,0.71,0.26,1.89-0.13,2.85c-3.16,7.92-12.07,21-21.94,27.82" class="stroke" stroke-dasharray="150"><animate attributeName="stroke-dashoffset" from="150" to="0" dur="1.8s" begin="0.0s" fill="freeze" /></path><path d="M35.13,16.55c5.81,3.75,11.74,9.56,15.12,14.85" class="stroke" stroke-dasharray="150"><set attributeName="opacity" to="0" dur="1.0s" /><animate attributeName="stroke-dashoffset" from="150" to="0" dur="1.8s" begin="1.0s" fill="freeze" /></path><path d="M32.36,30.33c2.75,1.17,4.39,2.93,4.94,5.27" class="stroke" stroke-dasharray="150"><set attributeName="opacity" to="0" dur="2.0s" /><animate attributeName="stroke-dashoffset" from="150" to="0" dur="1.8s" begin="2.0s" fill="freeze" /></path><path d="M23.87,41.85c1.53-0.11,18.33-2.7,19.71-2.91c2.35-0.36,3.05,1.33,2.84,2.99c-1,7.71-2.58,26.52-2.58,27.17" class="stroke" stroke-dasharray="150"><set attributeName="opacity" to="0" dur="2.9s" /><animate attributeName="stroke-dashoffset" from="150" to="0" dur="1.8s" begin="2.9s" fill="freeze" /></path><path d="M24.14,55.07c3.05,0,6.2-0.62,9.21-1.01c1.05-0.14,2.11-0.28,3.15-0.43" class="stroke" stroke-dasharray="150"><set attributeName="opacity" to="0" dur="4.2s" /><animate attributeName="stroke-dashoffset" from="150" to="0" dur="1.8s" begin="4.2s" fill="freeze" /></path><path d="M24.04,68.69c4.21-0.49,12.24-2.06,18.64-2.86" class="stroke" stroke-dasharray="150"><set attributeName="opacity" to="0" dur="5.1000000000000005s" /><animate attributeName="stroke-dashoffset" from="150" to="0" dur="1.8s" begin="5.1000000000000005s" fill="freeze" /></path><path d="M22,41.37c0.87,0.52,1.39,2.34,1.56,3.39c0.17,1.04,0.36,44.61,0.17,47.2c-0.17,2.35-1.56,5.75,0.52,3.93c2.09-1.82,14-11.15,18.35-13.99" class="stroke" stroke-dasharray="150"><set attributeName="opacity" to="0" dur="6.000000000000001s" /><animate attributeName="stroke-dashoffset" from="150" to="0" dur="1.8s" begin="6.000000000000001s" fill="freeze" /></path><path d="M40.49,75.38c2.52,2.82,6.46,10.33,7.9,16.28" class="stroke" stroke-dasharray="150"><set attributeName="opacity" to="0" dur="7.700000000000001s" /><animate attributeName="stroke-dashoffset" from="150" to="0" dur="1.8s" begin="7.700000000000001s" fill="freeze" /></path><path d="M53.5,25.51c0.9,0.44,2.53,0.5,3.44,0.44c9.87-0.66,16.44-1.88,34.47-3.19c1.49-0.11,2.39,0.21,3.14,0.43" class="stroke" stroke-dasharray="150"><set attributeName="opacity" to="0" dur="8.600000000000001s" /><animate attributeName="stroke-dashoffset" from="150" to="0" dur="1.8s" begin="8.600000000000001s" fill="freeze" /></path><path d="M60.36,28.39c0.78,0.5,1.2,1.81,1.2,3.16c0,1.35-0.24,43.31-0.24,48.16" class="stroke" stroke-dasharray="150"><set attributeName="opacity" to="0" dur="9.700000000000001s" /><animate attributeName="stroke-dashoffset" from="150" to="0" dur="1.8s" begin="9.700000000000001s" fill="freeze" /></path><path d="M61.88,43.73c3.34-0.45,6.69-0.81,10.04-1.13c0.99-0.1,1.99-0.19,3-0.28" class="stroke" stroke-dasharray="150"><set attributeName="opacity" to="0" dur="11.000000000000002s" /><animate attributeName="stroke-dashoffset" from="150" to="0" dur="1.8s" begin="11.000000000000002s" fill="freeze" /></path><path d="M61.51,61.73c3.45-0.52,6.89-1.1,10.35-1.6c0.95-0.14,1.92-0.27,2.89-0.4" class="stroke" stroke-dasharray="150"><set attributeName="opacity" to="0" dur="11.900000000000002s" /><animate attributeName="stroke-dashoffset" from="150" to="0" dur="1.8s" begin="11.900000000000002s" fill="freeze" /></path><path d="M52.71,80.97c1.28,0.39,3.23,0.4,4.4,0.08c4.7-1.26,30.18-8.25,37.4-10.27" class="stroke" stroke-dasharray="150"><set attributeName="opacity" to="0" dur="12.800000000000002s" /><animate attributeName="stroke-dashoffset" from="150" to="0" dur="1.8s" begin="12.800000000000002s" fill="freeze" /></path><path d="M82.87,25.79c0.37,0.82,0.91,1.84,0.91,2.86c0,1.02,0.18,61.99,0.18,70.35" class="stroke" stroke-dasharray="150"><set attributeName="opacity" to="0" dur="13.900000000000002s" /><animate attributeName="stroke-dashoffset" from="150" to="0" dur="1.8s" begin="13.900000000000002s" fill="freeze" /></path><text x="90" y="120" id="reset-kvg-0990c-HyougaiKaisho">⟳</text><text x="70" y="120" id="pause-kvg-0990c-HyougaiKaisho">◼</text><script type="text/javascript"><![CDATA[function RecurringTimer(e,t){var n,r,i=t;this.pause=function(){window.clearTimeout(n);i-=new Date-r};var s=function(){r=new Date;n=window.setTimeout(function(){i=t;s();e()},i)};this.clear=function(){window.clearTimeout(n);i=t;n=window.setTimeout(function(){i=t;s();e()},i)};this.resume=s;this.resume()}function invoketimer(){timer=new RecurringTimer(function(){svg.setCurrentTime(0)},16600.0)}var svg=document.getElementById("kvg-0990c-HyougaiKaisho");var pause=document.getElementById("pause-kvg-0990c-HyougaiKaisho");var reset=document.getElementById("reset-kvg-0990c-HyougaiKaisho");var timer;invoketimer();reset.onclick=function(){svg.setCurrentTime(0);timer.clear();svg.unpauseAnimations();pause.innerHTML = "◼";};pause.onclick=function(){if(svg.animationsPaused()){svg.unpauseAnimations();timer.resume();pause.innerHTML="◼"}else{svg.pauseAnimations();timer.pause();pause.innerHTML="▶"}}]]></script></svg>