<svg id="kvg-0990a" class="kanjivg" width="106" height="126" xmlns="http://www.w3.org/2000/svg" xmlns:xlink="http://www.w3.org/1999/xlink" xml:space="preserve" version="1.1" baseProfile="full"><defs><style type="text/css"><![CDATA[path.black{fill:none;stroke:black;stroke-width:5;stroke-linecap:round;stroke-linejoin:round;}path.grey{fill:none;stroke:#ddd;stroke-width:5;stroke-linecap:round;stroke-linejoin:round;}path.stroke{fill:none;stroke:black;stroke-width:5;stroke-linecap:round;stroke-linejoin:round;}rect{fill:none;stroke:#555;stroke-width:2;} text{font-size:16px;font-family:Segoe UI Symbol,Cambria Math,DejaVu Sans,Symbola,Quivira,STIX,Code2000;-webkit-touch-callout:none;cursor:pointer;-webkit-user-select:none;-khtml-user-select:none;-moz-user-select:none;-ms-user-select:none;user-select: none;}text:hover{color:#777;}#reset{font-weight:bold;}]]></style><marker id="markerStart" markerWidth="8" markerHeight="8" style="overflow:visible;"><circle cx="0" cy="0" r="1.5" style="stroke:none;fill:red;fill-opacity:0.5;"/></marker><marker id="markerEnd" style="overflow:visible;"><circle cx="0" cy="0" r="0.8" style="stroke:none;fill:blue;fill-opacity:0.5;"><animate attributeName="opacity" from="1" to="0" dur="3s" repeatCount="indefinite" /></circle></marker></defs><rect x="4" y="4" width="100" height="100" /><path d="M38.12,10.38c2.36,1.28,6.1,5.27,6.69,7.27" class="grey" /><path d="M64.45,9.89c0.02,0.24,0.1,0.9-0.03,1.23c-1.04,2.5-3.37,5.6-6.42,8.38" class="grey" /><path d="M31.52,23.6c1.63,0.42,4.63,0.54,6.26,0.42c10.47-0.77,22.84-2.4,33.21-3.65c2.69-0.32,4.36-0.3,5.72-0.09" class="grey" /><path d="M52.68,25.21c0.81,0.81,1.44,2.04,1.44,3.29c0,2.63,0.06,8.13,0.06,13.5" class="grey" /><path d="M31.58,33.96c1.49,0.41,3.93,0.59,5.32,0.49c10.17-0.71,18.82-1.79,34.15-3.27c2.3-0.22,4.13-0.14,5.29,0.1" class="grey" /><path d="M17.03,45.76c3.06,0.49,6.36,0.62,8.58,0.39c16.78-1.77,36.53-4.39,57.14-5.57c3.72-0.21,5.97,0.05,7.84,0.37" class="grey" /><path d="M40.37,46.25c0.08,0.57-0.11,1.57-0.66,2.31C34.62,55.38,25.5,63.38,11.5,70.62" class="grey" /><path d="M64.58,42.85c4.02,2.97,16.31,14.4,22.31,19.52c1.91,1.63,3.8,2.81,5.99,4.01" class="grey" /><path d="M51.64,48.26c0.92,0.92,1.65,2.12,1.65,3.07c0,1.8-0.01,2.65-0.01,4.95" class="grey" /><path d="M38.83,58.34c0.79,0.66,2.83,0.8,4.29,0.62c6.3-0.78,20.28-2.73,21.78-2.8c1.59-0.08,2.6,0.59,2.5,2.29c-0.18,3.08-0.92,8.45-1.22,13.43c-0.05,0.79-0.23,3.56-0.23,4.01" class="grey" /><path d="M41.7,67.29c3.92-0.42,18.8-2.42,23.76-2.87" class="grey" /><path d="M41.82,76.11c8.8-0.86,17.3-1.98,23.25-2.47" class="grey" /><path d="M39.26,58.71c0.83,0.83,1.4,1.79,1.4,3.1c0,0.76-0.01,30.21-0.01,32.03c0,2.28,1.23,2.9,2.72,2.19c2.83-1.36,9.73-4.79,12.12-6.42" class="grey" /><path d="M75,76.5c0.19,0.81-0.25,1.74-0.82,2.24c-1.62,1.42-3.63,3.1-5.95,5.04" class="grey" /><path d="M54.11,80.5c3.52,0.25,20.52,13.25,25.52,16c2.75,1.51,4.82,2.41,7.08,2.79" class="grey" /><path d="M38.12,10.38c2.36,1.28,6.1,5.27,6.69,7.27" class="stroke" stroke-dasharray="150"><animate attributeName="stroke-dashoffset" from="150" to="0" dur="1.8s" begin="0.0s" fill="freeze" /></path><path d="M64.45,9.89c0.02,0.24,0.1,0.9-0.03,1.23c-1.04,2.5-3.37,5.6-6.42,8.38" class="stroke" stroke-dasharray="150"><set attributeName="opacity" to="0" dur="0.9s" /><animate attributeName="stroke-dashoffset" from="150" to="0" dur="1.8s" begin="0.9s" fill="freeze" /></path><path d="M31.52,23.6c1.63,0.42,4.63,0.54,6.26,0.42c10.47-0.77,22.84-2.4,33.21-3.65c2.69-0.32,4.36-0.3,5.72-0.09" class="stroke" stroke-dasharray="150"><set attributeName="opacity" to="0" dur="1.8s" /><animate attributeName="stroke-dashoffset" from="150" to="0" dur="1.8s" begin="1.8s" fill="freeze" /></path><path d="M52.68,25.21c0.81,0.81,1.44,2.04,1.44,3.29c0,2.63,0.06,8.13,0.06,13.5" class="stroke" stroke-dasharray="150"><set attributeName="opacity" to="0" dur="3.0s" /><animate attributeName="stroke-dashoffset" from="150" to="0" dur="1.8s" begin="3.0s" fill="freeze" /></path><path d="M31.58,33.96c1.49,0.41,3.93,0.59,5.32,0.49c10.17-0.71,18.82-1.79,34.15-3.27c2.3-0.22,4.13-0.14,5.29,0.1" class="stroke" stroke-dasharray="150"><set attributeName="opacity" to="0" dur="3.9s" /><animate attributeName="stroke-dashoffset" from="150" to="0" dur="1.8s" begin="3.9s" fill="freeze" /></path><path d="M17.03,45.76c3.06,0.49,6.36,0.62,8.58,0.39c16.78-1.77,36.53-4.39,57.14-5.57c3.72-0.21,5.97,0.05,7.84,0.37" class="stroke" stroke-dasharray="150"><set attributeName="opacity" to="0" dur="5.0s" /><animate attributeName="stroke-dashoffset" from="150" to="0" dur="1.8s" begin="5.0s" fill="freeze" /></path><path d="M40.37,46.25c0.08,0.57-0.11,1.57-0.66,2.31C34.62,55.38,25.5,63.38,11.5,70.62" class="stroke" stroke-dasharray="150"><set attributeName="opacity" to="0" dur="6.7s" /><animate attributeName="stroke-dashoffset" from="150" to="0" dur="1.8s" begin="6.7s" fill="freeze" /></path><path d="M64.58,42.85c4.02,2.97,16.31,14.4,22.31,19.52c1.91,1.63,3.8,2.81,5.99,4.01" class="stroke" stroke-dasharray="150"><set attributeName="opacity" to="0" dur="7.7s" /><animate attributeName="stroke-dashoffset" from="150" to="0" dur="1.8s" begin="7.7s" fill="freeze" /></path><path d="M51.64,48.26c0.92,0.92,1.65,2.12,1.65,3.07c0,1.8-0.01,2.65-0.01,4.95" class="stroke" stroke-dasharray="150"><set attributeName="opacity" to="0" dur="8.7s" /><animate attributeName="stroke-dashoffset" from="150" to="0" dur="1.8s" begin="8.7s" fill="freeze" /></path><path d="M38.83,58.34c0.79,0.66,2.83,0.8,4.29,0.62c6.3-0.78,20.28-2.73,21.78-2.8c1.59-0.08,2.6,0.59,2.5,2.29c-0.18,3.08-0.92,8.45-1.22,13.43c-0.05,0.79-0.23,3.56-0.23,4.01" class="stroke" stroke-dasharray="150"><set attributeName="opacity" to="0" dur="9.6s" /><animate attributeName="stroke-dashoffset" from="150" to="0" dur="1.8s" begin="9.6s" fill="freeze" /></path><path d="M41.7,67.29c3.92-0.42,18.8-2.42,23.76-2.87" class="stroke" stroke-dasharray="150"><set attributeName="opacity" to="0" dur="10.799999999999999s" /><animate attributeName="stroke-dashoffset" from="150" to="0" dur="1.8s" begin="10.799999999999999s" fill="freeze" /></path><path d="M41.82,76.11c8.8-0.86,17.3-1.98,23.25-2.47" class="stroke" stroke-dasharray="150"><set attributeName="opacity" to="0" dur="11.799999999999999s" /><animate attributeName="stroke-dashoffset" from="150" to="0" dur="1.8s" begin="11.799999999999999s" fill="freeze" /></path><path d="M39.26,58.71c0.83,0.83,1.4,1.79,1.4,3.1c0,0.76-0.01,30.21-0.01,32.03c0,2.28,1.23,2.9,2.72,2.19c2.83-1.36,9.73-4.79,12.12-6.42" class="stroke" stroke-dasharray="150"><set attributeName="opacity" to="0" dur="12.799999999999999s" /><animate attributeName="stroke-dashoffset" from="150" to="0" dur="1.8s" begin="12.799999999999999s" fill="freeze" /></path><path d="M75,76.5c0.19,0.81-0.25,1.74-0.82,2.24c-1.62,1.42-3.63,3.1-5.95,5.04" class="stroke" stroke-dasharray="150"><set attributeName="opacity" to="0" dur="14.1s" /><animate attributeName="stroke-dashoffset" from="150" to="0" dur="1.8s" begin="14.1s" fill="freeze" /></path><path d="M54.11,80.5c3.52,0.25,20.52,13.25,25.52,16c2.75,1.51,4.82,2.41,7.08,2.79" class="stroke" stroke-dasharray="150"><set attributeName="opacity" to="0" dur="15.0s" /><animate attributeName="stroke-dashoffset" from="150" to="0" dur="1.8s" begin="15.0s" fill="freeze" /></path><text x="90" y="120" id="reset-kvg-0990a">⟳</text><text x="70" y="120" id="pause-kvg-0990a">◼</text><script type="text/javascript"><![CDATA[function RecurringTimer(e,t){var n,r,i=t;this.pause=function(){window.clearTimeout(n);i-=new Date-r};var s=function(){r=new Date;n=window.setTimeout(function(){i=t;s();e()},i)};this.clear=function(){window.clearTimeout(n);i=t;n=window.setTimeout(function(){i=t;s();e()},i)};this.resume=s;this.resume()}function invoketimer(){timer=new RecurringTimer(function(){svg.setCurrentTime(0)},17000.0)}var svg=document.getElementById("kvg-0990a");var pause=document.getElementById("pause-kvg-0990a");var reset=document.getElementById("reset-kvg-0990a");var timer;invoketimer();reset.onclick=function(){svg.setCurrentTime(0);timer.clear();svg.unpauseAnimations();pause.innerHTML = "◼";};pause.onclick=function(){if(svg.animationsPaused()){svg.unpauseAnimations();timer.resume();pause.innerHTML="◼"}else{svg.pauseAnimations();timer.pause();pause.innerHTML="▶"}}]]></script></svg>