<svg id="kvg-09910-HyougaiKaisho" class="kanjivg" width="106" height="126" xmlns="http://www.w3.org/2000/svg" xmlns:xlink="http://www.w3.org/1999/xlink" xml:space="preserve" version="1.1" baseProfile="full"><defs><style type="text/css"><![CDATA[path.black{fill:none;stroke:black;stroke-width:5;stroke-linecap:round;stroke-linejoin:round;}path.grey{fill:none;stroke:#ddd;stroke-width:5;stroke-linecap:round;stroke-linejoin:round;}path.stroke{fill:none;stroke:black;stroke-width:5;stroke-linecap:round;stroke-linejoin:round;}rect{fill:none;stroke:#555;stroke-width:2;} text{font-size:16px;font-family:Segoe UI Symbol,Cambria Math,DejaVu Sans,Symbola,Quivira,STIX,Code2000;-webkit-touch-callout:none;cursor:pointer;-webkit-user-select:none;-khtml-user-select:none;-moz-user-select:none;-ms-user-select:none;user-select: none;}text:hover{color:#777;}#reset{font-weight:bold;}]]></style><marker id="markerStart" markerWidth="8" markerHeight="8" style="overflow:visible;"><circle cx="0" cy="0" r="1.5" style="stroke:none;fill:red;fill-opacity:0.5;"/></marker><marker id="markerEnd" style="overflow:visible;"><circle cx="0" cy="0" r="0.8" style="stroke:none;fill:blue;fill-opacity:0.5;"><animate attributeName="opacity" from="1" to="0" dur="3s" repeatCount="indefinite" /></circle></marker></defs><rect x="4" y="4" width="100" height="100" /><path d="M36.12,9.28c0.57,0.58,1.25,2.25,1.33,2.6c0.08,0.35-0.05,11.12-0.13,13.31" class="grey" /><path d="M37.43,16.4c4.33-0.83,11.94-2.07,12.6-2.07c0.66,0,1.85,0,2.38,0.1" class="grey" /><path d="M28.72,21.03c0.13,0.29,0.39,1.14,0.25,1.71c-0.82,3.36-5.82,10.63-12.25,15.15" class="grey" /><path d="M29.97,26.07c0.2,0.02,2.07,0,2.65-0.07c1.91-0.22,10.98-1.33,13.52-2.16c1.83-0.6,2.55,0.6,1.92,1.78c-4.56,8.62-17.19,19.73-30.53,25.23" class="grey" /><path d="M27.24,32.92c2.71,1.13,7,4.66,7.68,6.42" class="grey" /><path d="M62.4,16.07c0.88,0.2,0.99,0.5,2.74,0.2c1.75-0.3,17.85-2.4,19.05-2.7c1.21-0.3,2.25,1.18,1.64,2.2C80,25.5,72.1,32.14,62.24,37.03" class="grey" /><path d="M62.1,23.38c9.4,1.87,19.9,8.87,26.03,16.03" class="grey" /><path d="M51.55,35c0.1,0.69,0.43,1.83-0.21,2.76C46.07,45.41,30.41,57.55,14,64.14" class="grey" /><path d="M51.29,38.42c5.49,3.7,29.15,15.78,35.21,18.49c2.06,0.92,4.69,1.31,6.75,1.57" class="grey" /><path d="M51.14,48c2.99,0.99,5.05,3.76,5.39,5.81" class="grey" /><path d="M40.56,59.22c2.14-0.08,24.34-2.37,26.29-2.46c1.63-0.08,2.55,1.34,2.55,1.81c0,2.94-0.69,12.91-0.85,18.54" class="grey" /><path d="M40.94,67.56c4.48,0,9.03-0.68,13.49-1.07c1.51-0.13,3.02-0.27,4.47-0.39" class="grey" /><path d="M40.8,77.03c5.91-0.33,19.37-2.22,26.72-2.5" class="grey" /><path d="M37.93,57.31c1.22,0.37,1.95,1.66,2.19,2.39c0.24,0.74,0.51,32.82,0.24,34.65c-0.24,1.66-1.19,4.79,1.73,3.5c2.93-1.29,10.7-6.39,13.14-8.05" class="grey" /><path d="M76.78,76.6c0.24,0.92,0.55,1.3-0.01,2.03c-2.01,2.62-3.76,4.12-7.06,6.71" class="grey" /><path d="M52.56,80.26c3.7,0,21.21,13.96,26.12,16.8c2.07,1.19,4.82,1.94,7.18,2.05" class="grey" /><path d="M36.12,9.28c0.57,0.58,1.25,2.25,1.33,2.6c0.08,0.35-0.05,11.12-0.13,13.31" class="stroke" stroke-dasharray="150"><animate attributeName="stroke-dashoffset" from="150" to="0" dur="1.8s" begin="0.0s" fill="freeze" /></path><path d="M37.43,16.4c4.33-0.83,11.94-2.07,12.6-2.07c0.66,0,1.85,0,2.38,0.1" class="stroke" stroke-dasharray="150"><set attributeName="opacity" to="0" dur="0.9s" /><animate attributeName="stroke-dashoffset" from="150" to="0" dur="1.8s" begin="0.9s" fill="freeze" /></path><path d="M28.72,21.03c0.13,0.29,0.39,1.14,0.25,1.71c-0.82,3.36-5.82,10.63-12.25,15.15" class="stroke" stroke-dasharray="150"><set attributeName="opacity" to="0" dur="1.8s" /><animate attributeName="stroke-dashoffset" from="150" to="0" dur="1.8s" begin="1.8s" fill="freeze" /></path><path d="M29.97,26.07c0.2,0.02,2.07,0,2.65-0.07c1.91-0.22,10.98-1.33,13.52-2.16c1.83-0.6,2.55,0.6,1.92,1.78c-4.56,8.62-17.19,19.73-30.53,25.23" class="stroke" stroke-dasharray="150"><set attributeName="opacity" to="0" dur="2.8s" /><animate attributeName="stroke-dashoffset" from="150" to="0" dur="1.8s" begin="2.8s" fill="freeze" /></path><path d="M27.24,32.92c2.71,1.13,7,4.66,7.68,6.42" class="stroke" stroke-dasharray="150"><set attributeName="opacity" to="0" dur="4.3s" /><animate attributeName="stroke-dashoffset" from="150" to="0" dur="1.8s" begin="4.3s" fill="freeze" /></path><path d="M62.4,16.07c0.88,0.2,0.99,0.5,2.74,0.2c1.75-0.3,17.85-2.4,19.05-2.7c1.21-0.3,2.25,1.18,1.64,2.2C80,25.5,72.1,32.14,62.24,37.03" class="stroke" stroke-dasharray="150"><set attributeName="opacity" to="0" dur="5.2s" /><animate attributeName="stroke-dashoffset" from="150" to="0" dur="1.8s" begin="5.2s" fill="freeze" /></path><path d="M62.1,23.38c9.4,1.87,19.9,8.87,26.03,16.03" class="stroke" stroke-dasharray="150"><set attributeName="opacity" to="0" dur="6.6s" /><animate attributeName="stroke-dashoffset" from="150" to="0" dur="1.8s" begin="6.6s" fill="freeze" /></path><path d="M51.55,35c0.1,0.69,0.43,1.83-0.21,2.76C46.07,45.41,30.41,57.55,14,64.14" class="stroke" stroke-dasharray="150"><set attributeName="opacity" to="0" dur="7.6s" /><animate attributeName="stroke-dashoffset" from="150" to="0" dur="1.8s" begin="7.6s" fill="freeze" /></path><path d="M51.29,38.42c5.49,3.7,29.15,15.78,35.21,18.49c2.06,0.92,4.69,1.31,6.75,1.57" class="stroke" stroke-dasharray="150"><set attributeName="opacity" to="0" dur="8.799999999999999s" /><animate attributeName="stroke-dashoffset" from="150" to="0" dur="1.8s" begin="8.799999999999999s" fill="freeze" /></path><path d="M51.14,48c2.99,0.99,5.05,3.76,5.39,5.81" class="stroke" stroke-dasharray="150"><set attributeName="opacity" to="0" dur="9.999999999999998s" /><animate attributeName="stroke-dashoffset" from="150" to="0" dur="1.8s" begin="9.999999999999998s" fill="freeze" /></path><path d="M40.56,59.22c2.14-0.08,24.34-2.37,26.29-2.46c1.63-0.08,2.55,1.34,2.55,1.81c0,2.94-0.69,12.91-0.85,18.54" class="stroke" stroke-dasharray="150"><set attributeName="opacity" to="0" dur="10.899999999999999s" /><animate attributeName="stroke-dashoffset" from="150" to="0" dur="1.8s" begin="10.899999999999999s" fill="freeze" /></path><path d="M40.94,67.56c4.48,0,9.03-0.68,13.49-1.07c1.51-0.13,3.02-0.27,4.47-0.39" class="stroke" stroke-dasharray="150"><set attributeName="opacity" to="0" dur="12.099999999999998s" /><animate attributeName="stroke-dashoffset" from="150" to="0" dur="1.8s" begin="12.099999999999998s" fill="freeze" /></path><path d="M40.8,77.03c5.91-0.33,19.37-2.22,26.72-2.5" class="stroke" stroke-dasharray="150"><set attributeName="opacity" to="0" dur="12.999999999999998s" /><animate attributeName="stroke-dashoffset" from="150" to="0" dur="1.8s" begin="12.999999999999998s" fill="freeze" /></path><path d="M37.93,57.31c1.22,0.37,1.95,1.66,2.19,2.39c0.24,0.74,0.51,32.82,0.24,34.65c-0.24,1.66-1.19,4.79,1.73,3.5c2.93-1.29,10.7-6.39,13.14-8.05" class="stroke" stroke-dasharray="150"><set attributeName="opacity" to="0" dur="13.999999999999998s" /><animate attributeName="stroke-dashoffset" from="150" to="0" dur="1.8s" begin="13.999999999999998s" fill="freeze" /></path><path d="M76.78,76.6c0.24,0.92,0.55,1.3-0.01,2.03c-2.01,2.62-3.76,4.12-7.06,6.71" class="stroke" stroke-dasharray="150"><set attributeName="opacity" to="0" dur="15.399999999999999s" /><animate attributeName="stroke-dashoffset" from="150" to="0" dur="1.8s" begin="15.399999999999999s" fill="freeze" /></path><path d="M52.56,80.26c3.7,0,21.21,13.96,26.12,16.8c2.07,1.19,4.82,1.94,7.18,2.05" class="stroke" stroke-dasharray="150"><set attributeName="opacity" to="0" dur="16.299999999999997s" /><animate attributeName="stroke-dashoffset" from="150" to="0" dur="1.8s" begin="16.299999999999997s" fill="freeze" /></path><text x="90" y="120" id="reset-kvg-09910-HyougaiKaisho">⟳</text><text x="70" y="120" id="pause-kvg-09910-HyougaiKaisho">◼</text><script type="text/javascript"><![CDATA[function RecurringTimer(e,t){var n,r,i=t;this.pause=function(){window.clearTimeout(n);i-=new Date-r};var s=function(){r=new Date;n=window.setTimeout(function(){i=t;s();e()},i)};this.clear=function(){window.clearTimeout(n);i=t;n=window.setTimeout(function(){i=t;s();e()},i)};this.resume=s;this.resume()}function invoketimer(){timer=new RecurringTimer(function(){svg.setCurrentTime(0)},18299.999999999996)}var svg=document.getElementById("kvg-09910-HyougaiKaisho");var pause=document.getElementById("pause-kvg-09910-HyougaiKaisho");var reset=document.getElementById("reset-kvg-09910-HyougaiKaisho");var timer;invoketimer();reset.onclick=function(){svg.setCurrentTime(0);timer.clear();svg.unpauseAnimations();pause.innerHTML = "◼";};pause.onclick=function(){if(svg.animationsPaused()){svg.unpauseAnimations();timer.resume();pause.innerHTML="◼"}else{svg.pauseAnimations();timer.pause();pause.innerHTML="▶"}}]]></script></svg>