<svg id="kvg-09998" class="kanjivg" width="106" height="126" xmlns="http://www.w3.org/2000/svg" xmlns:xlink="http://www.w3.org/1999/xlink" xml:space="preserve" version="1.1" baseProfile="full"><defs><style type="text/css"><![CDATA[path.black{fill:none;stroke:black;stroke-width:5;stroke-linecap:round;stroke-linejoin:round;}path.grey{fill:none;stroke:#ddd;stroke-width:5;stroke-linecap:round;stroke-linejoin:round;}path.stroke{fill:none;stroke:black;stroke-width:5;stroke-linecap:round;stroke-linejoin:round;}rect{fill:none;stroke:#555;stroke-width:2;} text{font-size:16px;font-family:Segoe UI Symbol,Cambria Math,DejaVu Sans,Symbola,Quivira,STIX,Code2000;-webkit-touch-callout:none;cursor:pointer;-webkit-user-select:none;-khtml-user-select:none;-moz-user-select:none;-ms-user-select:none;user-select: none;}text:hover{color:#777;}#reset{font-weight:bold;}]]></style><marker id="markerStart" markerWidth="8" markerHeight="8" style="overflow:visible;"><circle cx="0" cy="0" r="1.5" style="stroke:none;fill:red;fill-opacity:0.5;"/></marker><marker id="markerEnd" style="overflow:visible;"><circle cx="0" cy="0" r="0.8" style="stroke:none;fill:blue;fill-opacity:0.5;"><animate attributeName="opacity" from="1" to="0" dur="3s" repeatCount="indefinite" /></circle></marker></defs><rect x="4" y="4" width="100" height="100" /><path d="M14.57,16.7c2.76,2.28,7.13,9.39,7.81,12.94" class="grey" /><path d="M38.17,17.25c0.02,0.32,0.04,0.82-0.04,1.27c-0.48,2.69-3.22,8.58-6.97,12.18" class="grey" /><path d="M10.81,34.86c0.96,0.48,2.73,0.56,3.69,0.48c10.02-0.8,10.82-1.33,26.08-1.73c1.6-0.04,2.57,0.23,3.37,0.47" class="grey" /><path d="M26.5,35.28c0.28,0.12-0.26,2.14-0.43,2.49c-1.14,2.36-2.3,5.57-4.98,8.68" class="grey" /><path d="M14.62,47.59c0.36,0.95,0.87,1.66,0.87,2.92c0,1.27-0.12,39.63,0,40.89" class="grey" /><path d="M16.09,49.69c2.01-0.16,16.83-3.12,18.66-3.31c1.53-0.16,2.73,0.89,2.6,2.06c-0.17,1.49-0.59,40.64-0.71,41.58" class="grey" /><path d="M16.05,60.37c3.96-0.21,16.98-1.88,20.2-1.88" class="grey" /><path d="M16.22,72.78c5.33-0.53,14.63-1.77,19.8-1.77" class="grey" /><path d="M16.41,87.89c4,0,14-1.22,19.17-1.22" class="grey" /><path d="M48.5,33.66c1,0.18,2.83,0.25,3.82,0.18c7.66-0.58,29.13-2.64,38.1-2.89c1.66-0.05,2.65,0.09,3.48,0.18" class="grey" /><path d="M47.34,45.74c0.23,0.31,0.5,0.55,0.57,0.96c0.66,3.56,2.5,11.82,3.17,17.05" class="grey" /><path d="M48.79,46.83c4.29-0.75,10.46-1.33,15.94-2.47c0.99-0.2,1.59,0.88,1.45,1.75c-0.59,3.6-1.11,7.38-2.16,13.37" class="grey" /><path d="M51.56,61.88c3.2-0.46,9.06-1.25,13.46-1.95" class="grey" /><path d="M45.75,77.82c0.58,0.68,1.75,1.05,3.5,0.15c4.87-2.5,13.63-6.96,18.49-9.46" class="grey" /><path d="M68.58,14.5c1.15,1.72,1.53,2.2,1.86,5.91C73,49,81.75,81,94.51,92.77c4.26,3.93,3.87,0.74,3.3-6.89" class="grey" /><path d="M88.19,42.39c0.09,1.12,0.19,2.89-0.18,4.5c-2.17,9.48-14.76,33.36-31.65,44.08" class="grey" /><path d="M80.16,16c3.18,1.9,8.27,6.24,9.75,9.5" class="grey" /><path d="M14.57,16.7c2.76,2.28,7.13,9.39,7.81,12.94" class="stroke" stroke-dasharray="150"><animate attributeName="stroke-dashoffset" from="150" to="0" dur="1.8s" begin="0.0s" fill="freeze" /></path><path d="M38.17,17.25c0.02,0.32,0.04,0.82-0.04,1.27c-0.48,2.69-3.22,8.58-6.97,12.18" class="stroke" stroke-dasharray="150"><set attributeName="opacity" to="0" dur="0.9s" /><animate attributeName="stroke-dashoffset" from="150" to="0" dur="1.8s" begin="0.9s" fill="freeze" /></path><path d="M10.81,34.86c0.96,0.48,2.73,0.56,3.69,0.48c10.02-0.8,10.82-1.33,26.08-1.73c1.6-0.04,2.57,0.23,3.37,0.47" class="stroke" stroke-dasharray="150"><set attributeName="opacity" to="0" dur="1.8s" /><animate attributeName="stroke-dashoffset" from="150" to="0" dur="1.8s" begin="1.8s" fill="freeze" /></path><path d="M26.5,35.28c0.28,0.12-0.26,2.14-0.43,2.49c-1.14,2.36-2.3,5.57-4.98,8.68" class="stroke" stroke-dasharray="150"><set attributeName="opacity" to="0" dur="2.8s" /><animate attributeName="stroke-dashoffset" from="150" to="0" dur="1.8s" begin="2.8s" fill="freeze" /></path><path d="M14.62,47.59c0.36,0.95,0.87,1.66,0.87,2.92c0,1.27-0.12,39.63,0,40.89" class="stroke" stroke-dasharray="150"><set attributeName="opacity" to="0" dur="3.6999999999999997s" /><animate attributeName="stroke-dashoffset" from="150" to="0" dur="1.8s" begin="3.6999999999999997s" fill="freeze" /></path><path d="M16.09,49.69c2.01-0.16,16.83-3.12,18.66-3.31c1.53-0.16,2.73,0.89,2.6,2.06c-0.17,1.49-0.59,40.64-0.71,41.58" class="stroke" stroke-dasharray="150"><set attributeName="opacity" to="0" dur="4.8s" /><animate attributeName="stroke-dashoffset" from="150" to="0" dur="1.8s" begin="4.8s" fill="freeze" /></path><path d="M16.05,60.37c3.96-0.21,16.98-1.88,20.2-1.88" class="stroke" stroke-dasharray="150"><set attributeName="opacity" to="0" dur="6.3s" /><animate attributeName="stroke-dashoffset" from="150" to="0" dur="1.8s" begin="6.3s" fill="freeze" /></path><path d="M16.22,72.78c5.33-0.53,14.63-1.77,19.8-1.77" class="stroke" stroke-dasharray="150"><set attributeName="opacity" to="0" dur="7.3s" /><animate attributeName="stroke-dashoffset" from="150" to="0" dur="1.8s" begin="7.3s" fill="freeze" /></path><path d="M16.41,87.89c4,0,14-1.22,19.17-1.22" class="stroke" stroke-dasharray="150"><set attributeName="opacity" to="0" dur="8.2s" /><animate attributeName="stroke-dashoffset" from="150" to="0" dur="1.8s" begin="8.2s" fill="freeze" /></path><path d="M48.5,33.66c1,0.18,2.83,0.25,3.82,0.18c7.66-0.58,29.13-2.64,38.1-2.89c1.66-0.05,2.65,0.09,3.48,0.18" class="stroke" stroke-dasharray="150"><set attributeName="opacity" to="0" dur="9.1s" /><animate attributeName="stroke-dashoffset" from="150" to="0" dur="1.8s" begin="9.1s" fill="freeze" /></path><path d="M47.34,45.74c0.23,0.31,0.5,0.55,0.57,0.96c0.66,3.56,2.5,11.82,3.17,17.05" class="stroke" stroke-dasharray="150"><set attributeName="opacity" to="0" dur="10.299999999999999s" /><animate attributeName="stroke-dashoffset" from="150" to="0" dur="1.8s" begin="10.299999999999999s" fill="freeze" /></path><path d="M48.79,46.83c4.29-0.75,10.46-1.33,15.94-2.47c0.99-0.2,1.59,0.88,1.45,1.75c-0.59,3.6-1.11,7.38-2.16,13.37" class="stroke" stroke-dasharray="150"><set attributeName="opacity" to="0" dur="11.2s" /><animate attributeName="stroke-dashoffset" from="150" to="0" dur="1.8s" begin="11.2s" fill="freeze" /></path><path d="M51.56,61.88c3.2-0.46,9.06-1.25,13.46-1.95" class="stroke" stroke-dasharray="150"><set attributeName="opacity" to="0" dur="12.2s" /><animate attributeName="stroke-dashoffset" from="150" to="0" dur="1.8s" begin="12.2s" fill="freeze" /></path><path d="M45.75,77.82c0.58,0.68,1.75,1.05,3.5,0.15c4.87-2.5,13.63-6.96,18.49-9.46" class="stroke" stroke-dasharray="150"><set attributeName="opacity" to="0" dur="13.1s" /><animate attributeName="stroke-dashoffset" from="150" to="0" dur="1.8s" begin="13.1s" fill="freeze" /></path><path d="M68.58,14.5c1.15,1.72,1.53,2.2,1.86,5.91C73,49,81.75,81,94.51,92.77c4.26,3.93,3.87,0.74,3.3-6.89" class="stroke" stroke-dasharray="150"><set attributeName="opacity" to="0" dur="14.1s" /><animate attributeName="stroke-dashoffset" from="150" to="0" dur="1.8s" begin="14.1s" fill="freeze" /></path><path d="M88.19,42.39c0.09,1.12,0.19,2.89-0.18,4.5c-2.17,9.48-14.76,33.36-31.65,44.08" class="stroke" stroke-dasharray="150"><set attributeName="opacity" to="0" dur="15.9s" /><animate attributeName="stroke-dashoffset" from="150" to="0" dur="1.8s" begin="15.9s" fill="freeze" /></path><path d="M80.16,16c3.18,1.9,8.27,6.24,9.75,9.5" class="stroke" stroke-dasharray="150"><set attributeName="opacity" to="0" dur="17.3s" /><animate attributeName="stroke-dashoffset" from="150" to="0" dur="1.8s" begin="17.3s" fill="freeze" /></path><text x="90" y="120" id="reset-kvg-09998">⟳</text><text x="70" y="120" id="pause-kvg-09998">◼</text><script type="text/javascript"><![CDATA[function RecurringTimer(e,t){var n,r,i=t;this.pause=function(){window.clearTimeout(n);i-=new Date-r};var s=function(){r=new Date;n=window.setTimeout(function(){i=t;s();e()},i)};this.clear=function(){window.clearTimeout(n);i=t;n=window.setTimeout(function(){i=t;s();e()},i)};this.resume=s;this.resume()}function invoketimer(){timer=new RecurringTimer(function(){svg.setCurrentTime(0)},19200.0)}var svg=document.getElementById("kvg-09998");var pause=document.getElementById("pause-kvg-09998");var reset=document.getElementById("reset-kvg-09998");var timer;invoketimer();reset.onclick=function(){svg.setCurrentTime(0);timer.clear();svg.unpauseAnimations();pause.innerHTML = "◼";};pause.onclick=function(){if(svg.animationsPaused()){svg.unpauseAnimations();timer.resume();pause.innerHTML="◼"}else{svg.pauseAnimations();timer.pause();pause.innerHTML="▶"}}]]></script></svg>