<svg id="kvg-099d2-Vt6" class="kanjivg" width="106" height="126" xmlns="http://www.w3.org/2000/svg" xmlns:xlink="http://www.w3.org/1999/xlink" xml:space="preserve" version="1.1" baseProfile="full"><defs><style type="text/css"><![CDATA[path.black{fill:none;stroke:black;stroke-width:5;stroke-linecap:round;stroke-linejoin:round;}path.grey{fill:none;stroke:#ddd;stroke-width:5;stroke-linecap:round;stroke-linejoin:round;}path.stroke{fill:none;stroke:black;stroke-width:5;stroke-linecap:round;stroke-linejoin:round;}rect{fill:none;stroke:#555;stroke-width:2;} text{font-size:16px;font-family:Segoe UI Symbol,Cambria Math,DejaVu Sans,Symbola,Quivira,STIX,Code2000;-webkit-touch-callout:none;cursor:pointer;-webkit-user-select:none;-khtml-user-select:none;-moz-user-select:none;-ms-user-select:none;user-select: none;}text:hover{color:#777;}#reset{font-weight:bold;}]]></style><marker id="markerStart" markerWidth="8" markerHeight="8" style="overflow:visible;"><circle cx="0" cy="0" r="1.5" style="stroke:none;fill:red;fill-opacity:0.5;"/></marker><marker id="markerEnd" style="overflow:visible;"><circle cx="0" cy="0" r="0.8" style="stroke:none;fill:blue;fill-opacity:0.5;"><animate attributeName="opacity" from="1" to="0" dur="3s" repeatCount="indefinite" /></circle></marker></defs><rect x="4" y="4" width="100" height="100" /><path d="M15.99,16.37c0.26,0.88,0.5,1.7,0.49,2.63c-0.05,9.19-0.28,38.27-0.98,41" class="grey" /><path d="M17.02,19.01c7.82-0.52,22.9-2.33,25.26-2.67c0.94-0.14,2.53-0.25,3-0.03" class="grey" /><path d="M16.91,31.34c6.26-0.58,19.75-1.6,22.44-1.99c0.94-0.14,2.53-0.24,3-0.02" class="grey" /><path d="M17.01,44.38c6.26-0.59,20.25-2.1,22.94-2.49c0.94-0.14,2.53-0.25,3-0.03" class="grey" /><path d="M16.24,59.4c6.17-1.41,22.04-3.04,25.43-3.63c4.33-0.76,4.19,1.81,3.95,5.45C44.95,71.56,42.21,84.05,39,90.75c-2.75,5.75-5.32,0.41-6.21-0.86" class="grey" /><path d="M29.06,18.57c0.25,0.38,0.96,0.88,0.95,1.49c-0.02,6.17-0.06,26.96-0.25,36.66" class="grey" /><path d="M12.93,71c0.46,6.53-0.94,12.27-1.43,13.57" class="grey" /><path d="M18.86,69.5c1.22,2.54,2.25,5.73,2.53,10.25" class="grey" /><path d="M25.63,67.72c0.73,1.06,3.36,4.56,3.69,8.03" class="grey" /><path d="M32.52,65.25c1.4,2.08,3.71,4.24,4.22,7" class="grey" /><path d="M62.56,14.92c0.05,0.76,0.19,1.98-0.09,3.05c-1.97,7.54-8.22,19.29-16.72,29.16" class="grey" /><path d="M59.85,33.65c1.15,0.35,2.83,0.2,4.16-0.03c2.23-0.37,23.79-4.52,26.92-5.15c2.37-0.47,3.47,1.66,3.32,4.99c-0.51,11.29-3.51,42.04-11.35,56.5c-2.32,4.28-3.91,5.29-8.06,0.31" class="grey" /><path d="M54.77,50.49c0.25,0.33,0.51,0.61,0.62,1.02c0.87,3.29,2.51,14.83,3.11,20.74" class="grey" /><path d="M55.74,52.36c8.26-2.11,14.12-2.7,17.62-3.19c1.28-0.18,2.12,0.85,1.86,2.55c-0.68,4.41-1.64,9.17-2.76,15.23" class="grey" /><path d="M58.33,69.44c4.1-0.56,10.06-1.52,15.69-2.38" class="grey" /><path d="M15.99,16.37c0.26,0.88,0.5,1.7,0.49,2.63c-0.05,9.19-0.28,38.27-0.98,41" class="stroke" stroke-dasharray="150"><animate attributeName="stroke-dashoffset" from="150" to="0" dur="1.8s" begin="0.0s" fill="freeze" /></path><path d="M17.02,19.01c7.82-0.52,22.9-2.33,25.26-2.67c0.94-0.14,2.53-0.25,3-0.03" class="stroke" stroke-dasharray="150"><set attributeName="opacity" to="0" dur="1.1s" /><animate attributeName="stroke-dashoffset" from="150" to="0" dur="1.8s" begin="1.1s" fill="freeze" /></path><path d="M16.91,31.34c6.26-0.58,19.75-1.6,22.44-1.99c0.94-0.14,2.53-0.24,3-0.02" class="stroke" stroke-dasharray="150"><set attributeName="opacity" to="0" dur="2.1s" /><animate attributeName="stroke-dashoffset" from="150" to="0" dur="1.8s" begin="2.1s" fill="freeze" /></path><path d="M17.01,44.38c6.26-0.59,20.25-2.1,22.94-2.49c0.94-0.14,2.53-0.25,3-0.03" class="stroke" stroke-dasharray="150"><set attributeName="opacity" to="0" dur="3.1s" /><animate attributeName="stroke-dashoffset" from="150" to="0" dur="1.8s" begin="3.1s" fill="freeze" /></path><path d="M16.24,59.4c6.17-1.41,22.04-3.04,25.43-3.63c4.33-0.76,4.19,1.81,3.95,5.45C44.95,71.56,42.21,84.05,39,90.75c-2.75,5.75-5.32,0.41-6.21-0.86" class="stroke" stroke-dasharray="150"><set attributeName="opacity" to="0" dur="4.1s" /><animate attributeName="stroke-dashoffset" from="150" to="0" dur="1.8s" begin="4.1s" fill="freeze" /></path><path d="M29.06,18.57c0.25,0.38,0.96,0.88,0.95,1.49c-0.02,6.17-0.06,26.96-0.25,36.66" class="stroke" stroke-dasharray="150"><set attributeName="opacity" to="0" dur="5.8s" /><animate attributeName="stroke-dashoffset" from="150" to="0" dur="1.8s" begin="5.8s" fill="freeze" /></path><path d="M12.93,71c0.46,6.53-0.94,12.27-1.43,13.57" class="stroke" stroke-dasharray="150"><set attributeName="opacity" to="0" dur="6.8s" /><animate attributeName="stroke-dashoffset" from="150" to="0" dur="1.8s" begin="6.8s" fill="freeze" /></path><path d="M18.86,69.5c1.22,2.54,2.25,5.73,2.53,10.25" class="stroke" stroke-dasharray="150"><set attributeName="opacity" to="0" dur="7.7s" /><animate attributeName="stroke-dashoffset" from="150" to="0" dur="1.8s" begin="7.7s" fill="freeze" /></path><path d="M25.63,67.72c0.73,1.06,3.36,4.56,3.69,8.03" class="stroke" stroke-dasharray="150"><set attributeName="opacity" to="0" dur="8.6s" /><animate attributeName="stroke-dashoffset" from="150" to="0" dur="1.8s" begin="8.6s" fill="freeze" /></path><path d="M32.52,65.25c1.4,2.08,3.71,4.24,4.22,7" class="stroke" stroke-dasharray="150"><set attributeName="opacity" to="0" dur="9.5s" /><animate attributeName="stroke-dashoffset" from="150" to="0" dur="1.8s" begin="9.5s" fill="freeze" /></path><path d="M62.56,14.92c0.05,0.76,0.19,1.98-0.09,3.05c-1.97,7.54-8.22,19.29-16.72,29.16" class="stroke" stroke-dasharray="150"><set attributeName="opacity" to="0" dur="10.4s" /><animate attributeName="stroke-dashoffset" from="150" to="0" dur="1.8s" begin="10.4s" fill="freeze" /></path><path d="M59.85,33.65c1.15,0.35,2.83,0.2,4.16-0.03c2.23-0.37,23.79-4.52,26.92-5.15c2.37-0.47,3.47,1.66,3.32,4.99c-0.51,11.29-3.51,42.04-11.35,56.5c-2.32,4.28-3.91,5.29-8.06,0.31" class="stroke" stroke-dasharray="150"><set attributeName="opacity" to="0" dur="11.4s" /><animate attributeName="stroke-dashoffset" from="150" to="0" dur="1.8s" begin="11.4s" fill="freeze" /></path><path d="M54.77,50.49c0.25,0.33,0.51,0.61,0.62,1.02c0.87,3.29,2.51,14.83,3.11,20.74" class="stroke" stroke-dasharray="150"><set attributeName="opacity" to="0" dur="13.3s" /><animate attributeName="stroke-dashoffset" from="150" to="0" dur="1.8s" begin="13.3s" fill="freeze" /></path><path d="M55.74,52.36c8.26-2.11,14.12-2.7,17.62-3.19c1.28-0.18,2.12,0.85,1.86,2.55c-0.68,4.41-1.64,9.17-2.76,15.23" class="stroke" stroke-dasharray="150"><set attributeName="opacity" to="0" dur="14.3s" /><animate attributeName="stroke-dashoffset" from="150" to="0" dur="1.8s" begin="14.3s" fill="freeze" /></path><path d="M58.33,69.44c4.1-0.56,10.06-1.52,15.69-2.38" class="stroke" stroke-dasharray="150"><set attributeName="opacity" to="0" dur="15.3s" /><animate attributeName="stroke-dashoffset" from="150" to="0" dur="1.8s" begin="15.3s" fill="freeze" /></path><text x="90" y="120" id="reset-kvg-099d2-Vt6">⟳</text><text x="70" y="120" id="pause-kvg-099d2-Vt6">◼</text><script type="text/javascript"><![CDATA[function RecurringTimer(e,t){var n,r,i=t;this.pause=function(){window.clearTimeout(n);i-=new Date-r};var s=function(){r=new Date;n=window.setTimeout(function(){i=t;s();e()},i)};this.clear=function(){window.clearTimeout(n);i=t;n=window.setTimeout(function(){i=t;s();e()},i)};this.resume=s;this.resume()}function invoketimer(){timer=new RecurringTimer(function(){svg.setCurrentTime(0)},17200.0)}var svg=document.getElementById("kvg-099d2-Vt6");var pause=document.getElementById("pause-kvg-099d2-Vt6");var reset=document.getElementById("reset-kvg-099d2-Vt6");var timer;invoketimer();reset.onclick=function(){svg.setCurrentTime(0);timer.clear();svg.unpauseAnimations();pause.innerHTML = "◼";};pause.onclick=function(){if(svg.animationsPaused()){svg.unpauseAnimations();timer.resume();pause.innerHTML="◼"}else{svg.pauseAnimations();timer.pause();pause.innerHTML="▶"}}]]></script></svg>