<svg id="kvg-09a40-KaishoVt6" class="kanjivg" width="106" height="126" xmlns="http://www.w3.org/2000/svg" xmlns:xlink="http://www.w3.org/1999/xlink" xml:space="preserve" version="1.1" baseProfile="full"><defs><style type="text/css"><![CDATA[path.black{fill:none;stroke:black;stroke-width:5;stroke-linecap:round;stroke-linejoin:round;}path.grey{fill:none;stroke:#ddd;stroke-width:5;stroke-linecap:round;stroke-linejoin:round;}path.stroke{fill:none;stroke:black;stroke-width:5;stroke-linecap:round;stroke-linejoin:round;}rect{fill:none;stroke:#555;stroke-width:2;} text{font-size:16px;font-family:Segoe UI Symbol,Cambria Math,DejaVu Sans,Symbola,Quivira,STIX,Code2000;-webkit-touch-callout:none;cursor:pointer;-webkit-user-select:none;-khtml-user-select:none;-moz-user-select:none;-ms-user-select:none;user-select: none;}text:hover{color:#777;}#reset{font-weight:bold;}]]></style><marker id="markerStart" markerWidth="8" markerHeight="8" style="overflow:visible;"><circle cx="0" cy="0" r="1.5" style="stroke:none;fill:red;fill-opacity:0.5;"/></marker><marker id="markerEnd" style="overflow:visible;"><circle cx="0" cy="0" r="0.8" style="stroke:none;fill:blue;fill-opacity:0.5;"><animate attributeName="opacity" from="1" to="0" dur="3s" repeatCount="indefinite" /></circle></marker></defs><rect x="4" y="4" width="100" height="100" /><path d="M21,18.39c1.54,0.54,3.34,0.65,4.89,0.54c14.2-0.98,39.84-4.06,56.21-4.13c2.57-0.01,4.12,0.26,5.41,0.53" class="grey" /><path d="M36.75,9.93c1.75,1.07,2.31,1.4,2.5,2.06C41,18.15,40.5,20.88,41,23.12" class="grey" /><path d="M66.32,8.25c0.38,0.79,0.78,1.36,0.45,2.35c-1.56,4.71-1.23,6.23-3.01,10.93" class="grey" /><path d="M31.02,27.31c0.52,0.44,1.46,1.89,1.55,2.47c0.7,4.4,2.68,13.85,2.68,14.14c0,0.29,0.17,0.29,0.35,0.87" class="grey" /><path d="M33.44,28.62c7.92-0.82,37.33-3.41,40.02-3.49c2.24-0.07,3.6,2.02,3.51,2.47c-0.73,3.5-3,12.14-4.23,15.75" class="grey" /><path d="M33.96,36.17c7.08-0.43,14.14-1.2,21.2-1.83c2.23-0.2,4.45-0.4,6.56-0.58" class="grey" /><path d="M35.8,43.57c8.13-0.31,26.6-1.56,36.73-1.83" class="grey" /><path d="M16.88,52.93c2.21,0.42,4.7,0.23,6.15,0.12c27.07-2.09,40.7-3.49,61.82-4.46c1.83-0.09,5.11-0.09,7.15-0.09" class="grey" /><path d="M44.16,45.54C44,46.5,44.45,47.02,44,47.78C37,59.5,26.5,68,10.75,75.5" class="grey" /><path d="M60.25,50.62c6.5,1.49,23.87,16.09,30.77,19.3c2.35,1.09,3.16,1.25,4.23,1.36" class="grey" /><path d="M36.68,58.87c0.3,0.19,0.62,1.23,0.62,1.55c0,3.3,0.03,16.95-0.15,22.14" class="grey" /><path d="M38.16,60.26c7.28-0.65,21.27-1.9,24.4-2.26c1.09-0.12,2.94-0.27,3.49-0.17" class="grey" /><path d="M37.83,67.59c7.28-0.65,22.98-1.91,26.1-2.26c1.09-0.12,2.94-0.27,3.49-0.17" class="grey" /><path d="M38,74.54c7.28-0.65,22.98-1.91,26.1-2.26c1.09-0.12,2.94-0.27,3.49-0.17" class="grey" /><path d="M37.16,82.26c10.02-1.23,34.1-2.82,39.66-3.27c3.61-0.29,5.65,1.35,5.22,3.39c-1.19,5.6-2.54,10.88-4.46,14.93c-2.73,5.76-5.83,1.45-7.79-1.02" class="grey" /><path d="M52.7,60.06c0.3,0.18,0.53,0.44,0.53,0.77c0,3.3,0.03,14.43-0.15,19.62" class="grey" /><path d="M30.43,89.33c-0.18,3.92-2.1,7.86-4.54,10.08" class="grey" /><path d="M39.83,88.56c1.31,1.68,2.55,6.29,2.87,8.9" class="grey" /><path d="M52.39,86.97c1.25,1.39,3.22,5.7,3.53,7.86" class="grey" /><path d="M62.26,84.53c1.51,1.1,3.91,4.52,4.28,6.23" class="grey" /><path d="M21,18.39c1.54,0.54,3.34,0.65,4.89,0.54c14.2-0.98,39.84-4.06,56.21-4.13c2.57-0.01,4.12,0.26,5.41,0.53" class="stroke" stroke-dasharray="150"><animate attributeName="stroke-dashoffset" from="150" to="0" dur="1.8s" begin="0.0s" fill="freeze" /></path><path d="M36.75,9.93c1.75,1.07,2.31,1.4,2.5,2.06C41,18.15,40.5,20.88,41,23.12" class="stroke" stroke-dasharray="150"><set attributeName="opacity" to="0" dur="1.5s" /><animate attributeName="stroke-dashoffset" from="150" to="0" dur="1.8s" begin="1.5s" fill="freeze" /></path><path d="M66.32,8.25c0.38,0.79,0.78,1.36,0.45,2.35c-1.56,4.71-1.23,6.23-3.01,10.93" class="stroke" stroke-dasharray="150"><set attributeName="opacity" to="0" dur="2.4s" /><animate attributeName="stroke-dashoffset" from="150" to="0" dur="1.8s" begin="2.4s" fill="freeze" /></path><path d="M31.02,27.31c0.52,0.44,1.46,1.89,1.55,2.47c0.7,4.4,2.68,13.85,2.68,14.14c0,0.29,0.17,0.29,0.35,0.87" class="stroke" stroke-dasharray="150"><set attributeName="opacity" to="0" dur="3.3s" /><animate attributeName="stroke-dashoffset" from="150" to="0" dur="1.8s" begin="3.3s" fill="freeze" /></path><path d="M33.44,28.62c7.92-0.82,37.33-3.41,40.02-3.49c2.24-0.07,3.6,2.02,3.51,2.47c-0.73,3.5-3,12.14-4.23,15.75" class="stroke" stroke-dasharray="150"><set attributeName="opacity" to="0" dur="4.2s" /><animate attributeName="stroke-dashoffset" from="150" to="0" dur="1.8s" begin="4.2s" fill="freeze" /></path><path d="M33.96,36.17c7.08-0.43,14.14-1.2,21.2-1.83c2.23-0.2,4.45-0.4,6.56-0.58" class="stroke" stroke-dasharray="150"><set attributeName="opacity" to="0" dur="5.7s" /><animate attributeName="stroke-dashoffset" from="150" to="0" dur="1.8s" begin="5.7s" fill="freeze" /></path><path d="M35.8,43.57c8.13-0.31,26.6-1.56,36.73-1.83" class="stroke" stroke-dasharray="150"><set attributeName="opacity" to="0" dur="6.7s" /><animate attributeName="stroke-dashoffset" from="150" to="0" dur="1.8s" begin="6.7s" fill="freeze" /></path><path d="M16.88,52.93c2.21,0.42,4.7,0.23,6.15,0.12c27.07-2.09,40.7-3.49,61.82-4.46c1.83-0.09,5.11-0.09,7.15-0.09" class="stroke" stroke-dasharray="150"><set attributeName="opacity" to="0" dur="7.7s" /><animate attributeName="stroke-dashoffset" from="150" to="0" dur="1.8s" begin="7.7s" fill="freeze" /></path><path d="M44.16,45.54C44,46.5,44.45,47.02,44,47.78C37,59.5,26.5,68,10.75,75.5" class="stroke" stroke-dasharray="150"><set attributeName="opacity" to="0" dur="9.4s" /><animate attributeName="stroke-dashoffset" from="150" to="0" dur="1.8s" begin="9.4s" fill="freeze" /></path><path d="M60.25,50.62c6.5,1.49,23.87,16.09,30.77,19.3c2.35,1.09,3.16,1.25,4.23,1.36" class="stroke" stroke-dasharray="150"><set attributeName="opacity" to="0" dur="10.6s" /><animate attributeName="stroke-dashoffset" from="150" to="0" dur="1.8s" begin="10.6s" fill="freeze" /></path><path d="M36.68,58.87c0.3,0.19,0.62,1.23,0.62,1.55c0,3.3,0.03,16.95-0.15,22.14" class="stroke" stroke-dasharray="150"><set attributeName="opacity" to="0" dur="11.7s" /><animate attributeName="stroke-dashoffset" from="150" to="0" dur="1.8s" begin="11.7s" fill="freeze" /></path><path d="M38.16,60.26c7.28-0.65,21.27-1.9,24.4-2.26c1.09-0.12,2.94-0.27,3.49-0.17" class="stroke" stroke-dasharray="150"><set attributeName="opacity" to="0" dur="12.7s" /><animate attributeName="stroke-dashoffset" from="150" to="0" dur="1.8s" begin="12.7s" fill="freeze" /></path><path d="M37.83,67.59c7.28-0.65,22.98-1.91,26.1-2.26c1.09-0.12,2.94-0.27,3.49-0.17" class="stroke" stroke-dasharray="150"><set attributeName="opacity" to="0" dur="13.7s" /><animate attributeName="stroke-dashoffset" from="150" to="0" dur="1.8s" begin="13.7s" fill="freeze" /></path><path d="M38,74.54c7.28-0.65,22.98-1.91,26.1-2.26c1.09-0.12,2.94-0.27,3.49-0.17" class="stroke" stroke-dasharray="150"><set attributeName="opacity" to="0" dur="14.7s" /><animate attributeName="stroke-dashoffset" from="150" to="0" dur="1.8s" begin="14.7s" fill="freeze" /></path><path d="M37.16,82.26c10.02-1.23,34.1-2.82,39.66-3.27c3.61-0.29,5.65,1.35,5.22,3.39c-1.19,5.6-2.54,10.88-4.46,14.93c-2.73,5.76-5.83,1.45-7.79-1.02" class="stroke" stroke-dasharray="150"><set attributeName="opacity" to="0" dur="15.7s" /><animate attributeName="stroke-dashoffset" from="150" to="0" dur="1.8s" begin="15.7s" fill="freeze" /></path><path d="M52.7,60.06c0.3,0.18,0.53,0.44,0.53,0.77c0,3.3,0.03,14.43-0.15,19.62" class="stroke" stroke-dasharray="150"><set attributeName="opacity" to="0" dur="17.4s" /><animate attributeName="stroke-dashoffset" from="150" to="0" dur="1.8s" begin="17.4s" fill="freeze" /></path><path d="M30.43,89.33c-0.18,3.92-2.1,7.86-4.54,10.08" class="stroke" stroke-dasharray="150"><set attributeName="opacity" to="0" dur="18.4s" /><animate attributeName="stroke-dashoffset" from="150" to="0" dur="1.8s" begin="18.4s" fill="freeze" /></path><path d="M39.83,88.56c1.31,1.68,2.55,6.29,2.87,8.9" class="stroke" stroke-dasharray="150"><set attributeName="opacity" to="0" dur="19.299999999999997s" /><animate attributeName="stroke-dashoffset" from="150" to="0" dur="1.8s" begin="19.299999999999997s" fill="freeze" /></path><path d="M52.39,86.97c1.25,1.39,3.22,5.7,3.53,7.86" class="stroke" stroke-dasharray="150"><set attributeName="opacity" to="0" dur="20.199999999999996s" /><animate attributeName="stroke-dashoffset" from="150" to="0" dur="1.8s" begin="20.199999999999996s" fill="freeze" /></path><path d="M62.26,84.53c1.51,1.1,3.91,4.52,4.28,6.23" class="stroke" stroke-dasharray="150"><set attributeName="opacity" to="0" dur="21.099999999999994s" /><animate attributeName="stroke-dashoffset" from="150" to="0" dur="1.8s" begin="21.099999999999994s" fill="freeze" /></path><text x="90" y="120" id="reset-kvg-09a40-KaishoVt6">⟳</text><text x="70" y="120" id="pause-kvg-09a40-KaishoVt6">◼</text><script type="text/javascript"><![CDATA[function RecurringTimer(e,t){var n,r,i=t;this.pause=function(){window.clearTimeout(n);i-=new Date-r};var s=function(){r=new Date;n=window.setTimeout(function(){i=t;s();e()},i)};this.clear=function(){window.clearTimeout(n);i=t;n=window.setTimeout(function(){i=t;s();e()},i)};this.resume=s;this.resume()}function invoketimer(){timer=new RecurringTimer(function(){svg.setCurrentTime(0)},22999.999999999993)}var svg=document.getElementById("kvg-09a40-KaishoVt6");var pause=document.getElementById("pause-kvg-09a40-KaishoVt6");var reset=document.getElementById("reset-kvg-09a40-KaishoVt6");var timer;invoketimer();reset.onclick=function(){svg.setCurrentTime(0);timer.clear();svg.unpauseAnimations();pause.innerHTML = "◼";};pause.onclick=function(){if(svg.animationsPaused()){svg.unpauseAnimations();timer.resume();pause.innerHTML="◼"}else{svg.pauseAnimations();timer.pause();pause.innerHTML="▶"}}]]></script></svg>