<svg id="kvg-09a57" class="kanjivg" width="106" height="126" xmlns="http://www.w3.org/2000/svg" xmlns:xlink="http://www.w3.org/1999/xlink" xml:space="preserve" version="1.1" baseProfile="full"><defs><style type="text/css"><![CDATA[path.black{fill:none;stroke:black;stroke-width:5;stroke-linecap:round;stroke-linejoin:round;}path.grey{fill:none;stroke:#ddd;stroke-width:5;stroke-linecap:round;stroke-linejoin:round;}path.stroke{fill:none;stroke:black;stroke-width:5;stroke-linecap:round;stroke-linejoin:round;}rect{fill:none;stroke:#555;stroke-width:2;} text{font-size:16px;font-family:Segoe UI Symbol,Cambria Math,DejaVu Sans,Symbola,Quivira,STIX,Code2000;-webkit-touch-callout:none;cursor:pointer;-webkit-user-select:none;-khtml-user-select:none;-moz-user-select:none;-ms-user-select:none;user-select: none;}text:hover{color:#777;}#reset{font-weight:bold;}]]></style><marker id="markerStart" markerWidth="8" markerHeight="8" style="overflow:visible;"><circle cx="0" cy="0" r="1.5" style="stroke:none;fill:red;fill-opacity:0.5;"/></marker><marker id="markerEnd" style="overflow:visible;"><circle cx="0" cy="0" r="0.8" style="stroke:none;fill:blue;fill-opacity:0.5;"><animate attributeName="opacity" from="1" to="0" dur="3s" repeatCount="indefinite" /></circle></marker></defs><rect x="4" y="4" width="100" height="100" /><path d="M15.24,16.12c1.26,0.88,0.99,3.1,0.99,4.39c-0.06,9.78-0.29,37.59-0.97,40.24" class="grey" /><path d="M17.02,18.12c8.73-1.12,22.09-2.89,24.49-3.17c0.95-0.11,2.55-0.2,3.03-0.02" class="grey" /><path d="M28.81,18.32c0.25,0.38,0.96,0.88,0.95,1.49c-0.02,6.17-0.06,27.96-0.25,37.66" class="grey" /><path d="M16.66,32.59c6.26-0.58,20.25-3.1,22.94-3.49c0.94-0.14,2.53-0.24,3-0.02" class="grey" /><path d="M16.76,45.12c6.26-0.59,20.25-2.6,22.94-2.99c0.94-0.14,2.53-0.25,3-0.03" class="grey" /><path d="M15.99,60.65c6.17-1.41,21.54-3.54,24.93-4.13c4.33-0.76,4.19,2.31,3.95,5.95C44.2,72.81,41.46,84.3,38.25,91c-2.75,5.75-5.32,0.41-6.21-0.86" class="grey" /><path d="M11.09,71c0.32,6.41-0.64,12.04-0.98,13.32" class="grey" /><path d="M17.13,69.25c1.56,2.54,2.88,5.73,3.23,10.25" class="grey" /><path d="M24.62,67.97c0.79,1.13,3.6,4.85,3.95,8.53" class="grey" /><path d="M31.75,66.25c1.25,2.01,3.3,4.09,3.75,6.75" class="grey" /><path d="M69.87,12.75c0.06,0.81,0.28,2.18-0.12,3.28c-2.58,6.95-9.87,21.56-22.07,31.36" class="grey" /><path d="M70.03,17.06c3.8,4.67,20.18,19.93,24.38,23.35c1.42,1.16,3.25,1.66,4.67,1.99" class="grey" /><path d="M58.96,41.36c0.62,0.18,1.75,0.19,2.36,0.18c4.74-0.05,16.22-2.51,20.03-2.3c1.03,0.06,1.65,0.09,2.16,0.18" class="grey" /><path d="M52.33,52.35c0.22,0.24,0.44,0.44,0.54,0.75c0.76,2.4,2,9.01,2.52,13.31" class="grey" /><path d="M53.36,53.62c5.55-1.09,10.77-2.28,13.33-2.59c0.94-0.12,1.5,0.68,1.37,1.36c-0.56,2.8-1.71,6.89-2.53,10.76" class="grey" /><path d="M55.5,65.01c3.01-0.36,7.5-0.97,11.64-1.52" class="grey" /><path d="M73.05,50.09c0.23,0.24,0.48,0.44,0.58,0.73c0.82,2.36,1.79,8.87,2.35,13.11" class="grey" /><path d="M74.51,51.31c4.91-0.9,10.66-1.44,13.41-1.75c1.01-0.11,1.61,0.67,1.46,1.34c-0.59,2.76-1.29,6.47-2.18,10.28" class="grey" /><path d="M76.08,63.02c3.23-0.35,8.69-0.96,13.13-1.49" class="grey" /><path d="M60.35,69.57c0.16,1.08,0.1,2.12-0.11,2.82C58.36,78.51,54.07,86.62,46.39,94" class="grey" /><path d="M59.21,78.09c3.04,1.48,6.93,5.42,8.41,9.15" class="grey" /><path d="M82.09,67.39c0.17,1.19,0.11,2.33-0.12,3.1c-2.08,6.74-6.84,15.64-15.36,23.76" class="grey" /><path d="M80.87,78.75c4.5,2.57,10.25,9.39,12.44,15.85" class="grey" /><path d="M15.24,16.12c1.26,0.88,0.99,3.1,0.99,4.39c-0.06,9.78-0.29,37.59-0.97,40.24" class="stroke" stroke-dasharray="150"><animate attributeName="stroke-dashoffset" from="150" to="0" dur="1.8s" begin="0.0s" fill="freeze" /></path><path d="M17.02,18.12c8.73-1.12,22.09-2.89,24.49-3.17c0.95-0.11,2.55-0.2,3.03-0.02" class="stroke" stroke-dasharray="150"><set attributeName="opacity" to="0" dur="1.1s" /><animate attributeName="stroke-dashoffset" from="150" to="0" dur="1.8s" begin="1.1s" fill="freeze" /></path><path d="M28.81,18.32c0.25,0.38,0.96,0.88,0.95,1.49c-0.02,6.17-0.06,27.96-0.25,37.66" class="stroke" stroke-dasharray="150"><set attributeName="opacity" to="0" dur="2.1s" /><animate attributeName="stroke-dashoffset" from="150" to="0" dur="1.8s" begin="2.1s" fill="freeze" /></path><path d="M16.66,32.59c6.26-0.58,20.25-3.1,22.94-3.49c0.94-0.14,2.53-0.24,3-0.02" class="stroke" stroke-dasharray="150"><set attributeName="opacity" to="0" dur="3.1s" /><animate attributeName="stroke-dashoffset" from="150" to="0" dur="1.8s" begin="3.1s" fill="freeze" /></path><path d="M16.76,45.12c6.26-0.59,20.25-2.6,22.94-2.99c0.94-0.14,2.53-0.25,3-0.03" class="stroke" stroke-dasharray="150"><set attributeName="opacity" to="0" dur="4.1s" /><animate attributeName="stroke-dashoffset" from="150" to="0" dur="1.8s" begin="4.1s" fill="freeze" /></path><path d="M15.99,60.65c6.17-1.41,21.54-3.54,24.93-4.13c4.33-0.76,4.19,2.31,3.95,5.95C44.2,72.81,41.46,84.3,38.25,91c-2.75,5.75-5.32,0.41-6.21-0.86" class="stroke" stroke-dasharray="150"><set attributeName="opacity" to="0" dur="5.1s" /><animate attributeName="stroke-dashoffset" from="150" to="0" dur="1.8s" begin="5.1s" fill="freeze" /></path><path d="M11.09,71c0.32,6.41-0.64,12.04-0.98,13.32" class="stroke" stroke-dasharray="150"><set attributeName="opacity" to="0" dur="6.8s" /><animate attributeName="stroke-dashoffset" from="150" to="0" dur="1.8s" begin="6.8s" fill="freeze" /></path><path d="M17.13,69.25c1.56,2.54,2.88,5.73,3.23,10.25" class="stroke" stroke-dasharray="150"><set attributeName="opacity" to="0" dur="7.7s" /><animate attributeName="stroke-dashoffset" from="150" to="0" dur="1.8s" begin="7.7s" fill="freeze" /></path><path d="M24.62,67.97c0.79,1.13,3.6,4.85,3.95,8.53" class="stroke" stroke-dasharray="150"><set attributeName="opacity" to="0" dur="8.6s" /><animate attributeName="stroke-dashoffset" from="150" to="0" dur="1.8s" begin="8.6s" fill="freeze" /></path><path d="M31.75,66.25c1.25,2.01,3.3,4.09,3.75,6.75" class="stroke" stroke-dasharray="150"><set attributeName="opacity" to="0" dur="9.5s" /><animate attributeName="stroke-dashoffset" from="150" to="0" dur="1.8s" begin="9.5s" fill="freeze" /></path><path d="M69.87,12.75c0.06,0.81,0.28,2.18-0.12,3.28c-2.58,6.95-9.87,21.56-22.07,31.36" class="stroke" stroke-dasharray="150"><set attributeName="opacity" to="0" dur="10.4s" /><animate attributeName="stroke-dashoffset" from="150" to="0" dur="1.8s" begin="10.4s" fill="freeze" /></path><path d="M70.03,17.06c3.8,4.67,20.18,19.93,24.38,23.35c1.42,1.16,3.25,1.66,4.67,1.99" class="stroke" stroke-dasharray="150"><set attributeName="opacity" to="0" dur="11.5s" /><animate attributeName="stroke-dashoffset" from="150" to="0" dur="1.8s" begin="11.5s" fill="freeze" /></path><path d="M58.96,41.36c0.62,0.18,1.75,0.19,2.36,0.18c4.74-0.05,16.22-2.51,20.03-2.3c1.03,0.06,1.65,0.09,2.16,0.18" class="stroke" stroke-dasharray="150"><set attributeName="opacity" to="0" dur="12.5s" /><animate attributeName="stroke-dashoffset" from="150" to="0" dur="1.8s" begin="12.5s" fill="freeze" /></path><path d="M52.33,52.35c0.22,0.24,0.44,0.44,0.54,0.75c0.76,2.4,2,9.01,2.52,13.31" class="stroke" stroke-dasharray="150"><set attributeName="opacity" to="0" dur="13.5s" /><animate attributeName="stroke-dashoffset" from="150" to="0" dur="1.8s" begin="13.5s" fill="freeze" /></path><path d="M53.36,53.62c5.55-1.09,10.77-2.28,13.33-2.59c0.94-0.12,1.5,0.68,1.37,1.36c-0.56,2.8-1.71,6.89-2.53,10.76" class="stroke" stroke-dasharray="150"><set attributeName="opacity" to="0" dur="14.4s" /><animate attributeName="stroke-dashoffset" from="150" to="0" dur="1.8s" begin="14.4s" fill="freeze" /></path><path d="M55.5,65.01c3.01-0.36,7.5-0.97,11.64-1.52" class="stroke" stroke-dasharray="150"><set attributeName="opacity" to="0" dur="15.4s" /><animate attributeName="stroke-dashoffset" from="150" to="0" dur="1.8s" begin="15.4s" fill="freeze" /></path><path d="M73.05,50.09c0.23,0.24,0.48,0.44,0.58,0.73c0.82,2.36,1.79,8.87,2.35,13.11" class="stroke" stroke-dasharray="150"><set attributeName="opacity" to="0" dur="16.3s" /><animate attributeName="stroke-dashoffset" from="150" to="0" dur="1.8s" begin="16.3s" fill="freeze" /></path><path d="M74.51,51.31c4.91-0.9,10.66-1.44,13.41-1.75c1.01-0.11,1.61,0.67,1.46,1.34c-0.59,2.76-1.29,6.47-2.18,10.28" class="stroke" stroke-dasharray="150"><set attributeName="opacity" to="0" dur="17.2s" /><animate attributeName="stroke-dashoffset" from="150" to="0" dur="1.8s" begin="17.2s" fill="freeze" /></path><path d="M76.08,63.02c3.23-0.35,8.69-0.96,13.13-1.49" class="stroke" stroke-dasharray="150"><set attributeName="opacity" to="0" dur="18.2s" /><animate attributeName="stroke-dashoffset" from="150" to="0" dur="1.8s" begin="18.2s" fill="freeze" /></path><path d="M60.35,69.57c0.16,1.08,0.1,2.12-0.11,2.82C58.36,78.51,54.07,86.62,46.39,94" class="stroke" stroke-dasharray="150"><set attributeName="opacity" to="0" dur="19.099999999999998s" /><animate attributeName="stroke-dashoffset" from="150" to="0" dur="1.8s" begin="19.099999999999998s" fill="freeze" /></path><path d="M59.21,78.09c3.04,1.48,6.93,5.42,8.41,9.15" class="stroke" stroke-dasharray="150"><set attributeName="opacity" to="0" dur="20.099999999999998s" /><animate attributeName="stroke-dashoffset" from="150" to="0" dur="1.8s" begin="20.099999999999998s" fill="freeze" /></path><path d="M82.09,67.39c0.17,1.19,0.11,2.33-0.12,3.1c-2.08,6.74-6.84,15.64-15.36,23.76" class="stroke" stroke-dasharray="150"><set attributeName="opacity" to="0" dur="20.999999999999996s" /><animate attributeName="stroke-dashoffset" from="150" to="0" dur="1.8s" begin="20.999999999999996s" fill="freeze" /></path><path d="M80.87,78.75c4.5,2.57,10.25,9.39,12.44,15.85" class="stroke" stroke-dasharray="150"><set attributeName="opacity" to="0" dur="21.999999999999996s" /><animate attributeName="stroke-dashoffset" from="150" to="0" dur="1.8s" begin="21.999999999999996s" fill="freeze" /></path><text x="90" y="120" id="reset-kvg-09a57">⟳</text><text x="70" y="120" id="pause-kvg-09a57">◼</text><script type="text/javascript"><![CDATA[function RecurringTimer(e,t){var n,r,i=t;this.pause=function(){window.clearTimeout(n);i-=new Date-r};var s=function(){r=new Date;n=window.setTimeout(function(){i=t;s();e()},i)};this.clear=function(){window.clearTimeout(n);i=t;n=window.setTimeout(function(){i=t;s();e()},i)};this.resume=s;this.resume()}function invoketimer(){timer=new RecurringTimer(function(){svg.setCurrentTime(0)},23999.999999999996)}var svg=document.getElementById("kvg-09a57");var pause=document.getElementById("pause-kvg-09a57");var reset=document.getElementById("reset-kvg-09a57");var timer;invoketimer();reset.onclick=function(){svg.setCurrentTime(0);timer.clear();svg.unpauseAnimations();pause.innerHTML = "◼";};pause.onclick=function(){if(svg.animationsPaused()){svg.unpauseAnimations();timer.resume();pause.innerHTML="◼"}else{svg.pauseAnimations();timer.pause();pause.innerHTML="▶"}}]]></script></svg>