<svg id="kvg-09a65-Kaisho" class="kanjivg" width="106" height="126" xmlns="http://www.w3.org/2000/svg" xmlns:xlink="http://www.w3.org/1999/xlink" xml:space="preserve" version="1.1" baseProfile="full"><defs><style type="text/css"><![CDATA[path.black{fill:none;stroke:black;stroke-width:5;stroke-linecap:round;stroke-linejoin:round;}path.grey{fill:none;stroke:#ddd;stroke-width:5;stroke-linecap:round;stroke-linejoin:round;}path.stroke{fill:none;stroke:black;stroke-width:5;stroke-linecap:round;stroke-linejoin:round;}rect{fill:none;stroke:#555;stroke-width:2;} text{font-size:16px;font-family:Segoe UI Symbol,Cambria Math,DejaVu Sans,Symbola,Quivira,STIX,Code2000;-webkit-touch-callout:none;cursor:pointer;-webkit-user-select:none;-khtml-user-select:none;-moz-user-select:none;-ms-user-select:none;user-select: none;}text:hover{color:#777;}#reset{font-weight:bold;}]]></style><marker id="markerStart" markerWidth="8" markerHeight="8" style="overflow:visible;"><circle cx="0" cy="0" r="1.5" style="stroke:none;fill:red;fill-opacity:0.5;"/></marker><marker id="markerEnd" style="overflow:visible;"><circle cx="0" cy="0" r="0.8" style="stroke:none;fill:blue;fill-opacity:0.5;"><animate attributeName="opacity" from="1" to="0" dur="3s" repeatCount="indefinite" /></circle></marker></defs><rect x="4" y="4" width="100" height="100" /><path d="M14.74,16.87c0.76,0.82,1.49,3.07,1.49,4.32c-0.05,9.79-0.29,36.91-0.97,39.62" class="grey" /><path d="M16.77,18.01c7.82-0.53,21.4-2.37,23.76-2.73c0.94-0.14,2.53-0.25,3-0.03" class="grey" /><path d="M28.81,18.07c0.25,0.38,0.96,0.9,0.95,1.51c-0.02,6.29-0.06,28.5-0.25,38.39" class="grey" /><path d="M16.66,32.61c6.26-0.6,19.75-2.63,22.44-3.03c0.94-0.14,2.53-0.25,3-0.02" class="grey" /><path d="M16.76,45.39c6.26-0.6,20.25-2.14,22.94-2.54c0.94-0.14,2.53-0.25,3-0.03" class="grey" /><path d="M15.99,60.7c6.17-1.44,20.54-3.61,23.93-4.22c4.33-0.78,4.19,2.86,3.95,6.58c-0.67,10.55-2.92,21.25-6.12,28.08c-2.75,5.86-5.32,0.42-6.21-0.88" class="grey" /><path d="M10.79,70.83c0.28,6.53-0.57,12.28-0.87,13.58" class="grey" /><path d="M17.41,69.05c1.29,2.64,2.38,5.96,2.67,10.66" class="grey" /><path d="M24.59,67.95c0.7,1.18,3.2,5.07,3.51,8.93" class="grey" /><path d="M31.75,66.42c1.25,2.05,3.3,4.17,3.75,6.88" class="grey" /><path d="M49.17,21.02c1.28,0.16,1.6,0.23,2.87,0.23c1.28,0,10.05-1.21,11.17-1.21" class="grey" /><path d="M62.41,12.19c0.59,0.82,1.08,1.78,1.08,2.33c0,0.55,0.1,13.31,0.1,14.82" class="grey" /><path d="M48.62,33.33c0.72,1.23,1.84,1.33,2.91,0.92c6.46-2.45,13.74-5.05,17.15-6.41" class="grey" /><path d="M92.04,14c0.09,0.12,0.13,0.46-0.09,0.66c-2.16,1.94-7.49,4.79-12.16,5.8" class="grey" /><path d="M76.09,10.2c0.45,0.31,1.06,0.93,1.06,1.57c0,0.43,0.15,13.12,0.15,14.42c0,3.27,2.8,4.27,10.18,4.41c5.77,0.11,9.19-0.64,9.19-4.27" class="grey" /><path d="M55.11,39.77c0.23,0.34,0.24,0.57,0.36,0.99c1.04,3.45,2.61,12.07,3.22,18.44" class="grey" /><path d="M56.53,40.94c9.72-1.24,23.97-3.49,32.12-3.81c1.77-0.07,3.6,1.07,3.14,3.27c-1,4.71-1.6,9.02-2.79,15.87" class="grey" /><path d="M72.71,39.77c0.36,0.45,0.92,1.26,0.92,2.39c0,4.51-0.17,8.38-0.17,13.39" class="grey" /><path d="M58,49.47c7.2-0.46,14.39-1.49,21.56-2.24c0.87-0.09,1.71-0.18,2.52-0.26" class="grey" /><path d="M58.81,57.65c7.37-0.88,24.88-2.59,30.58-2.9" class="grey" /><path d="M52.53,69.35c1,0.31,2.83,0.34,3.82,0.31c9.94-0.3,24.1-2.98,33.56-2.98c1.66,0,2.66,0.15,3.48,0.3" class="grey" /><path d="M62.29,62.89c0.58,0.35,1.03,1.55,1.04,2.25c0.08,3.96,0.96,9.69,1.09,14.95" class="grey" /><path d="M81.33,59.98c0.67,0.39,1.26,1.75,1.21,2.55c-0.28,4.34-1.05,12.27-1.52,16.44" class="grey" /><path d="M49,81.13c1.38,0.31,3.9,0.4,5.27,0.31c9-0.57,28.71-2.71,40.2-3c2.29-0.06,3.67,0.15,4.82,0.31" class="grey" /><path d="M64.34,86.3c0.04,0.3,0.08,0.76-0.08,1.19c-0.94,2.52-7.14,7.37-13.76,11.41" class="grey" /><path d="M80.63,85.57c4.74,2.28,12.26,9.35,13.44,12.89" class="grey" /><path d="M14.74,16.87c0.76,0.82,1.49,3.07,1.49,4.32c-0.05,9.79-0.29,36.91-0.97,39.62" class="stroke" stroke-dasharray="150"><animate attributeName="stroke-dashoffset" from="150" to="0" dur="1.8s" begin="0.0s" fill="freeze" /></path><path d="M16.77,18.01c7.82-0.53,21.4-2.37,23.76-2.73c0.94-0.14,2.53-0.25,3-0.03" class="stroke" stroke-dasharray="150"><set attributeName="opacity" to="0" dur="1.1s" /><animate attributeName="stroke-dashoffset" from="150" to="0" dur="1.8s" begin="1.1s" fill="freeze" /></path><path d="M28.81,18.07c0.25,0.38,0.96,0.9,0.95,1.51c-0.02,6.29-0.06,28.5-0.25,38.39" class="stroke" stroke-dasharray="150"><set attributeName="opacity" to="0" dur="2.1s" /><animate attributeName="stroke-dashoffset" from="150" to="0" dur="1.8s" begin="2.1s" fill="freeze" /></path><path d="M16.66,32.61c6.26-0.6,19.75-2.63,22.44-3.03c0.94-0.14,2.53-0.25,3-0.02" class="stroke" stroke-dasharray="150"><set attributeName="opacity" to="0" dur="3.2s" /><animate attributeName="stroke-dashoffset" from="150" to="0" dur="1.8s" begin="3.2s" fill="freeze" /></path><path d="M16.76,45.39c6.26-0.6,20.25-2.14,22.94-2.54c0.94-0.14,2.53-0.25,3-0.03" class="stroke" stroke-dasharray="150"><set attributeName="opacity" to="0" dur="4.2s" /><animate attributeName="stroke-dashoffset" from="150" to="0" dur="1.8s" begin="4.2s" fill="freeze" /></path><path d="M15.99,60.7c6.17-1.44,20.54-3.61,23.93-4.22c4.33-0.78,4.19,2.86,3.95,6.58c-0.67,10.55-2.92,21.25-6.12,28.08c-2.75,5.86-5.32,0.42-6.21-0.88" class="stroke" stroke-dasharray="150"><set attributeName="opacity" to="0" dur="5.2s" /><animate attributeName="stroke-dashoffset" from="150" to="0" dur="1.8s" begin="5.2s" fill="freeze" /></path><path d="M10.79,70.83c0.28,6.53-0.57,12.28-0.87,13.58" class="stroke" stroke-dasharray="150"><set attributeName="opacity" to="0" dur="6.9s" /><animate attributeName="stroke-dashoffset" from="150" to="0" dur="1.8s" begin="6.9s" fill="freeze" /></path><path d="M17.41,69.05c1.29,2.64,2.38,5.96,2.67,10.66" class="stroke" stroke-dasharray="150"><set attributeName="opacity" to="0" dur="7.800000000000001s" /><animate attributeName="stroke-dashoffset" from="150" to="0" dur="1.8s" begin="7.800000000000001s" fill="freeze" /></path><path d="M24.59,67.95c0.7,1.18,3.2,5.07,3.51,8.93" class="stroke" stroke-dasharray="150"><set attributeName="opacity" to="0" dur="8.700000000000001s" /><animate attributeName="stroke-dashoffset" from="150" to="0" dur="1.8s" begin="8.700000000000001s" fill="freeze" /></path><path d="M31.75,66.42c1.25,2.05,3.3,4.17,3.75,6.88" class="stroke" stroke-dasharray="150"><set attributeName="opacity" to="0" dur="9.600000000000001s" /><animate attributeName="stroke-dashoffset" from="150" to="0" dur="1.8s" begin="9.600000000000001s" fill="freeze" /></path><path d="M49.17,21.02c1.28,0.16,1.6,0.23,2.87,0.23c1.28,0,10.05-1.21,11.17-1.21" class="stroke" stroke-dasharray="150"><set attributeName="opacity" to="0" dur="10.500000000000002s" /><animate attributeName="stroke-dashoffset" from="150" to="0" dur="1.8s" begin="10.500000000000002s" fill="freeze" /></path><path d="M62.41,12.19c0.59,0.82,1.08,1.78,1.08,2.33c0,0.55,0.1,13.31,0.1,14.82" class="stroke" stroke-dasharray="150"><set attributeName="opacity" to="0" dur="11.400000000000002s" /><animate attributeName="stroke-dashoffset" from="150" to="0" dur="1.8s" begin="11.400000000000002s" fill="freeze" /></path><path d="M48.62,33.33c0.72,1.23,1.84,1.33,2.91,0.92c6.46-2.45,13.74-5.05,17.15-6.41" class="stroke" stroke-dasharray="150"><set attributeName="opacity" to="0" dur="12.300000000000002s" /><animate attributeName="stroke-dashoffset" from="150" to="0" dur="1.8s" begin="12.300000000000002s" fill="freeze" /></path><path d="M92.04,14c0.09,0.12,0.13,0.46-0.09,0.66c-2.16,1.94-7.49,4.79-12.16,5.8" class="stroke" stroke-dasharray="150"><set attributeName="opacity" to="0" dur="13.300000000000002s" /><animate attributeName="stroke-dashoffset" from="150" to="0" dur="1.8s" begin="13.300000000000002s" fill="freeze" /></path><path d="M76.09,10.2c0.45,0.31,1.06,0.93,1.06,1.57c0,0.43,0.15,13.12,0.15,14.42c0,3.27,2.8,4.27,10.18,4.41c5.77,0.11,9.19-0.64,9.19-4.27" class="stroke" stroke-dasharray="150"><set attributeName="opacity" to="0" dur="14.200000000000003s" /><animate attributeName="stroke-dashoffset" from="150" to="0" dur="1.8s" begin="14.200000000000003s" fill="freeze" /></path><path d="M55.11,39.77c0.23,0.34,0.24,0.57,0.36,0.99c1.04,3.45,2.61,12.07,3.22,18.44" class="stroke" stroke-dasharray="150"><set attributeName="opacity" to="0" dur="15.300000000000002s" /><animate attributeName="stroke-dashoffset" from="150" to="0" dur="1.8s" begin="15.300000000000002s" fill="freeze" /></path><path d="M56.53,40.94c9.72-1.24,23.97-3.49,32.12-3.81c1.77-0.07,3.6,1.07,3.14,3.27c-1,4.71-1.6,9.02-2.79,15.87" class="stroke" stroke-dasharray="150"><set attributeName="opacity" to="0" dur="16.200000000000003s" /><animate attributeName="stroke-dashoffset" from="150" to="0" dur="1.8s" begin="16.200000000000003s" fill="freeze" /></path><path d="M72.71,39.77c0.36,0.45,0.92,1.26,0.92,2.39c0,4.51-0.17,8.38-0.17,13.39" class="stroke" stroke-dasharray="150"><set attributeName="opacity" to="0" dur="17.500000000000004s" /><animate attributeName="stroke-dashoffset" from="150" to="0" dur="1.8s" begin="17.500000000000004s" fill="freeze" /></path><path d="M58,49.47c7.2-0.46,14.39-1.49,21.56-2.24c0.87-0.09,1.71-0.18,2.52-0.26" class="stroke" stroke-dasharray="150"><set attributeName="opacity" to="0" dur="18.400000000000002s" /><animate attributeName="stroke-dashoffset" from="150" to="0" dur="1.8s" begin="18.400000000000002s" fill="freeze" /></path><path d="M58.81,57.65c7.37-0.88,24.88-2.59,30.58-2.9" class="stroke" stroke-dasharray="150"><set attributeName="opacity" to="0" dur="19.400000000000002s" /><animate attributeName="stroke-dashoffset" from="150" to="0" dur="1.8s" begin="19.400000000000002s" fill="freeze" /></path><path d="M52.53,69.35c1,0.31,2.83,0.34,3.82,0.31c9.94-0.3,24.1-2.98,33.56-2.98c1.66,0,2.66,0.15,3.48,0.3" class="stroke" stroke-dasharray="150"><set attributeName="opacity" to="0" dur="20.400000000000002s" /><animate attributeName="stroke-dashoffset" from="150" to="0" dur="1.8s" begin="20.400000000000002s" fill="freeze" /></path><path d="M62.29,62.89c0.58,0.35,1.03,1.55,1.04,2.25c0.08,3.96,0.96,9.69,1.09,14.95" class="stroke" stroke-dasharray="150"><set attributeName="opacity" to="0" dur="21.500000000000004s" /><animate attributeName="stroke-dashoffset" from="150" to="0" dur="1.8s" begin="21.500000000000004s" fill="freeze" /></path><path d="M81.33,59.98c0.67,0.39,1.26,1.75,1.21,2.55c-0.28,4.34-1.05,12.27-1.52,16.44" class="stroke" stroke-dasharray="150"><set attributeName="opacity" to="0" dur="22.400000000000002s" /><animate attributeName="stroke-dashoffset" from="150" to="0" dur="1.8s" begin="22.400000000000002s" fill="freeze" /></path><path d="M49,81.13c1.38,0.31,3.9,0.4,5.27,0.31c9-0.57,28.71-2.71,40.2-3c2.29-0.06,3.67,0.15,4.82,0.31" class="stroke" stroke-dasharray="150"><set attributeName="opacity" to="0" dur="23.3s" /><animate attributeName="stroke-dashoffset" from="150" to="0" dur="1.8s" begin="23.3s" fill="freeze" /></path><path d="M64.34,86.3c0.04,0.3,0.08,0.76-0.08,1.19c-0.94,2.52-7.14,7.37-13.76,11.41" class="stroke" stroke-dasharray="150"><set attributeName="opacity" to="0" dur="24.6s" /><animate attributeName="stroke-dashoffset" from="150" to="0" dur="1.8s" begin="24.6s" fill="freeze" /></path><path d="M80.63,85.57c4.74,2.28,12.26,9.35,13.44,12.89" class="stroke" stroke-dasharray="150"><set attributeName="opacity" to="0" dur="25.5s" /><animate attributeName="stroke-dashoffset" from="150" to="0" dur="1.8s" begin="25.5s" fill="freeze" /></path><text x="90" y="120" id="reset-kvg-09a65-Kaisho">⟳</text><text x="70" y="120" id="pause-kvg-09a65-Kaisho">◼</text><script type="text/javascript"><![CDATA[function RecurringTimer(e,t){var n,r,i=t;this.pause=function(){window.clearTimeout(n);i-=new Date-r};var s=function(){r=new Date;n=window.setTimeout(function(){i=t;s();e()},i)};this.clear=function(){window.clearTimeout(n);i=t;n=window.setTimeout(function(){i=t;s();e()},i)};this.resume=s;this.resume()}function invoketimer(){timer=new RecurringTimer(function(){svg.setCurrentTime(0)},27400.0)}var svg=document.getElementById("kvg-09a65-Kaisho");var pause=document.getElementById("pause-kvg-09a65-Kaisho");var reset=document.getElementById("reset-kvg-09a65-Kaisho");var timer;invoketimer();reset.onclick=function(){svg.setCurrentTime(0);timer.clear();svg.unpauseAnimations();pause.innerHTML = "◼";};pause.onclick=function(){if(svg.animationsPaused()){svg.unpauseAnimations();timer.resume();pause.innerHTML="◼"}else{svg.pauseAnimations();timer.pause();pause.innerHTML="▶"}}]]></script></svg>