<svg id="kvg-09b31" class="kanjivg" width="106" height="126" xmlns="http://www.w3.org/2000/svg" xmlns:xlink="http://www.w3.org/1999/xlink" xml:space="preserve" version="1.1" baseProfile="full"><defs><style type="text/css"><![CDATA[path.black{fill:none;stroke:black;stroke-width:5;stroke-linecap:round;stroke-linejoin:round;}path.grey{fill:none;stroke:#ddd;stroke-width:5;stroke-linecap:round;stroke-linejoin:round;}path.stroke{fill:none;stroke:black;stroke-width:5;stroke-linecap:round;stroke-linejoin:round;}rect{fill:none;stroke:#555;stroke-width:2;} text{font-size:16px;font-family:Segoe UI Symbol,Cambria Math,DejaVu Sans,Symbola,Quivira,STIX,Code2000;-webkit-touch-callout:none;cursor:pointer;-webkit-user-select:none;-khtml-user-select:none;-moz-user-select:none;-ms-user-select:none;user-select: none;}text:hover{color:#777;}#reset{font-weight:bold;}]]></style><marker id="markerStart" markerWidth="8" markerHeight="8" style="overflow:visible;"><circle cx="0" cy="0" r="1.5" style="stroke:none;fill:red;fill-opacity:0.5;"/></marker><marker id="markerEnd" style="overflow:visible;"><circle cx="0" cy="0" r="0.8" style="stroke:none;fill:blue;fill-opacity:0.5;"><animate attributeName="opacity" from="1" to="0" dur="3s" repeatCount="indefinite" /></circle></marker></defs><rect x="4" y="4" width="100" height="100" /><path d="M48.3,10.89c0.02,0.26,0.04,0.66-0.04,1.03c-0.49,2.16-3.33,6.91-7.22,9.82" class="grey" /><path d="M47.11,16.35c0.31,0.13,0.88,0.15,1.19,0.13c3.8-0.35,9.58-1.17,12.99-1.61c0.51-0.07,0.83,0.06,1.08,0.12" class="grey" /><path d="M40.26,24.54c0.5,0.18,1.42,0.21,1.92,0.18c5.22-0.3,15.2-1.82,22.82-1.89c0.83-0.01,1.34,0.08,1.75,0.17" class="grey" /><path d="M53.11,16.58c0.31,0.45,0.66,0.78,0.66,1.4c0,2.18-0.03,15.57-0.08,17.41" class="grey" /><path d="M44.2,29.3c0.25,0.15,0.5,0.77,0.5,1.07c-0.02,1.85-0.02,1.1,0,4.61c0,0.68-0.12,1.34,0.5,1.24c1.71-0.29,13.7-1.9,16.84-1.99" class="grey" /><path d="M63.35,27.91c0.25,0.15,0.54,1.11,0.5,1.4c-0.25,1.82-0.5,3.19-0.91,6.57" class="grey" /><path d="M14.87,19.27c0.52,0.09,2.1,0.08,3.49,0c4.88-0.26,11.48-0.71,16.71-0.88c0.89-0.03,1.94-0.31,3.31-0.18" class="grey" /><path d="M28.06,10.34c0.59,0.23,0.94,1.06,1.06,1.53c0.12,0.47,0,23.55-0.12,26.49" class="grey" /><path d="M29.4,20.03c-2.67,4.49-10.61,12.03-16.15,14.57" class="grey" /><path d="M31.28,23.22c2.12,1.2,4.39,3.61,5.6,5.72" class="grey" /><path d="M68.83,18.29c0.33,0.12,1.06,0.18,1.95,0.12c3.15-0.24,12.6-1.06,18.75-1.65c0.89-0.08,1.67-0.12,2.23,0" class="grey" /><path d="M77.1,10.4c0.59,0.23,0.94,1.06,1.06,1.53c0.12,0.47,0,21.26-0.12,24.2" class="grey" /><path d="M78.07,18.62c-1.53,4.22-6.28,10.08-9.83,12.25" class="grey" /><path d="M78.02,18.54c3.84,4.51,9.99,10.29,13.1,12.07c0.89,0.51,1.39,0.86,2.13,1.03" class="grey" /><path d="M19.16,41.13c0,2.91-3.72,10.92-5.41,12.87" class="grey" /><path d="M18.99,44.24c9.51-0.99,60.24-3.03,67.95-3.4C99,40.25,89.5,48,86.5,50.11" class="grey" /><path d="M44.91,49.53c0.05,0.47,0.27,1.29-0.1,1.9C42.5,55.25,34.5,65,27.1,69.61" class="grey" /><path d="M29.57,52.91c5.7,2.95,14.71,12.14,16.14,16.74" class="grey" /><path d="M33.78,47.58c1.41,0.79,3.63,3.24,3.99,4.47" class="grey" /><path d="M26.71,56.64c1.41,0.88,3.63,3.6,3.99,4.97" class="grey" /><path d="M45.7,58.3c1.14,0.79,2.95,3.24,3.24,4.47" class="grey" /><path d="M35.51,65.78c1.19,0.56,3.07,2.31,3.37,3.18" class="grey" /><path d="M19.46,53.75c0.32,0.2,0.86,0.97,0.86,1.94c0,0.41,1.67,16.44,1.64,17.41c-0.03,0.96,0.29,1.65,1.35,1.54c5.9-0.57,25.29-1.48,28.67-1.68" class="grey" /><path d="M52.64,51.99c0.62,0.28,1.08,0.85,1.08,1.94c0,2.18-0.21,11.43-0.95,21.2" class="grey" /><path d="M46.74,79.93c0.17,0.18,0.28,0.72-0.17,1c-2.9,1.83-12.86,6.87-22.25,8.73" class="grey" /><path d="M21.46,79.82c0.59,0.56,0.63,0.93,0.83,1.67c0.2,0.75-0.04,8.93-0.04,11.26c0,5.99,7.88,5.06,14.59,5.06c5.2,0,9.54-0.32,11.5-1.99c1.96-1.67,1.72-3.62,1.92-5.3" class="grey" /><path d="M80.11,50.75c0.06,0.34,0.22,0.92-0.12,1.36C77,56,71.25,60.25,59.75,64.63" class="grey" /><path d="M85.67,64.39c0.08,0.4,0.28,1.09-0.15,1.61c-2.95,3.51-16.27,11.5-27.03,15.37" class="grey" /><path d="M91.3,79c0.1,0.47,0.2,1.22-0.18,1.9C88.85,84.89,75.86,93.64,58.07,99" class="grey" /><path d="M48.3,10.89c0.02,0.26,0.04,0.66-0.04,1.03c-0.49,2.16-3.33,6.91-7.22,9.82" class="stroke" stroke-dasharray="150"><animate attributeName="stroke-dashoffset" from="150" to="0" dur="1.8s" begin="0.0s" fill="freeze" /></path><path d="M47.11,16.35c0.31,0.13,0.88,0.15,1.19,0.13c3.8-0.35,9.58-1.17,12.99-1.61c0.51-0.07,0.83,0.06,1.08,0.12" class="stroke" stroke-dasharray="150"><set attributeName="opacity" to="0" dur="0.9s" /><animate attributeName="stroke-dashoffset" from="150" to="0" dur="1.8s" begin="0.9s" fill="freeze" /></path><path d="M40.26,24.54c0.5,0.18,1.42,0.21,1.92,0.18c5.22-0.3,15.2-1.82,22.82-1.89c0.83-0.01,1.34,0.08,1.75,0.17" class="stroke" stroke-dasharray="150"><set attributeName="opacity" to="0" dur="1.8s" /><animate attributeName="stroke-dashoffset" from="150" to="0" dur="1.8s" begin="1.8s" fill="freeze" /></path><path d="M53.11,16.58c0.31,0.45,0.66,0.78,0.66,1.4c0,2.18-0.03,15.57-0.08,17.41" class="stroke" stroke-dasharray="150"><set attributeName="opacity" to="0" dur="2.8s" /><animate attributeName="stroke-dashoffset" from="150" to="0" dur="1.8s" begin="2.8s" fill="freeze" /></path><path d="M44.2,29.3c0.25,0.15,0.5,0.77,0.5,1.07c-0.02,1.85-0.02,1.1,0,4.61c0,0.68-0.12,1.34,0.5,1.24c1.71-0.29,13.7-1.9,16.84-1.99" class="stroke" stroke-dasharray="150"><set attributeName="opacity" to="0" dur="3.6999999999999997s" /><animate attributeName="stroke-dashoffset" from="150" to="0" dur="1.8s" begin="3.6999999999999997s" fill="freeze" /></path><path d="M63.35,27.91c0.25,0.15,0.54,1.11,0.5,1.4c-0.25,1.82-0.5,3.19-0.91,6.57" class="stroke" stroke-dasharray="150"><set attributeName="opacity" to="0" dur="4.699999999999999s" /><animate attributeName="stroke-dashoffset" from="150" to="0" dur="1.8s" begin="4.699999999999999s" fill="freeze" /></path><path d="M14.87,19.27c0.52,0.09,2.1,0.08,3.49,0c4.88-0.26,11.48-0.71,16.71-0.88c0.89-0.03,1.94-0.31,3.31-0.18" class="stroke" stroke-dasharray="150"><set attributeName="opacity" to="0" dur="5.6s" /><animate attributeName="stroke-dashoffset" from="150" to="0" dur="1.8s" begin="5.6s" fill="freeze" /></path><path d="M28.06,10.34c0.59,0.23,0.94,1.06,1.06,1.53c0.12,0.47,0,23.55-0.12,26.49" class="stroke" stroke-dasharray="150"><set attributeName="opacity" to="0" dur="6.6s" /><animate attributeName="stroke-dashoffset" from="150" to="0" dur="1.8s" begin="6.6s" fill="freeze" /></path><path d="M29.4,20.03c-2.67,4.49-10.61,12.03-16.15,14.57" class="stroke" stroke-dasharray="150"><set attributeName="opacity" to="0" dur="7.6s" /><animate attributeName="stroke-dashoffset" from="150" to="0" dur="1.8s" begin="7.6s" fill="freeze" /></path><path d="M31.28,23.22c2.12,1.2,4.39,3.61,5.6,5.72" class="stroke" stroke-dasharray="150"><set attributeName="opacity" to="0" dur="8.6s" /><animate attributeName="stroke-dashoffset" from="150" to="0" dur="1.8s" begin="8.6s" fill="freeze" /></path><path d="M68.83,18.29c0.33,0.12,1.06,0.18,1.95,0.12c3.15-0.24,12.6-1.06,18.75-1.65c0.89-0.08,1.67-0.12,2.23,0" class="stroke" stroke-dasharray="150"><set attributeName="opacity" to="0" dur="9.5s" /><animate attributeName="stroke-dashoffset" from="150" to="0" dur="1.8s" begin="9.5s" fill="freeze" /></path><path d="M77.1,10.4c0.59,0.23,0.94,1.06,1.06,1.53c0.12,0.47,0,21.26-0.12,24.2" class="stroke" stroke-dasharray="150"><set attributeName="opacity" to="0" dur="10.5s" /><animate attributeName="stroke-dashoffset" from="150" to="0" dur="1.8s" begin="10.5s" fill="freeze" /></path><path d="M78.07,18.62c-1.53,4.22-6.28,10.08-9.83,12.25" class="stroke" stroke-dasharray="150"><set attributeName="opacity" to="0" dur="11.5s" /><animate attributeName="stroke-dashoffset" from="150" to="0" dur="1.8s" begin="11.5s" fill="freeze" /></path><path d="M78.02,18.54c3.84,4.51,9.99,10.29,13.1,12.07c0.89,0.51,1.39,0.86,2.13,1.03" class="stroke" stroke-dasharray="150"><set attributeName="opacity" to="0" dur="12.4s" /><animate attributeName="stroke-dashoffset" from="150" to="0" dur="1.8s" begin="12.4s" fill="freeze" /></path><path d="M19.16,41.13c0,2.91-3.72,10.92-5.41,12.87" class="stroke" stroke-dasharray="150"><set attributeName="opacity" to="0" dur="13.4s" /><animate attributeName="stroke-dashoffset" from="150" to="0" dur="1.8s" begin="13.4s" fill="freeze" /></path><path d="M18.99,44.24c9.51-0.99,60.24-3.03,67.95-3.4C99,40.25,89.5,48,86.5,50.11" class="stroke" stroke-dasharray="150"><set attributeName="opacity" to="0" dur="14.3s" /><animate attributeName="stroke-dashoffset" from="150" to="0" dur="1.8s" begin="14.3s" fill="freeze" /></path><path d="M44.91,49.53c0.05,0.47,0.27,1.29-0.1,1.9C42.5,55.25,34.5,65,27.1,69.61" class="stroke" stroke-dasharray="150"><set attributeName="opacity" to="0" dur="16.0s" /><animate attributeName="stroke-dashoffset" from="150" to="0" dur="1.8s" begin="16.0s" fill="freeze" /></path><path d="M29.57,52.91c5.7,2.95,14.71,12.14,16.14,16.74" class="stroke" stroke-dasharray="150"><set attributeName="opacity" to="0" dur="17.0s" /><animate attributeName="stroke-dashoffset" from="150" to="0" dur="1.8s" begin="17.0s" fill="freeze" /></path><path d="M33.78,47.58c1.41,0.79,3.63,3.24,3.99,4.47" class="stroke" stroke-dasharray="150"><set attributeName="opacity" to="0" dur="18.0s" /><animate attributeName="stroke-dashoffset" from="150" to="0" dur="1.8s" begin="18.0s" fill="freeze" /></path><path d="M26.71,56.64c1.41,0.88,3.63,3.6,3.99,4.97" class="stroke" stroke-dasharray="150"><set attributeName="opacity" to="0" dur="18.9s" /><animate attributeName="stroke-dashoffset" from="150" to="0" dur="1.8s" begin="18.9s" fill="freeze" /></path><path d="M45.7,58.3c1.14,0.79,2.95,3.24,3.24,4.47" class="stroke" stroke-dasharray="150"><set attributeName="opacity" to="0" dur="19.799999999999997s" /><animate attributeName="stroke-dashoffset" from="150" to="0" dur="1.8s" begin="19.799999999999997s" fill="freeze" /></path><path d="M35.51,65.78c1.19,0.56,3.07,2.31,3.37,3.18" class="stroke" stroke-dasharray="150"><set attributeName="opacity" to="0" dur="20.699999999999996s" /><animate attributeName="stroke-dashoffset" from="150" to="0" dur="1.8s" begin="20.699999999999996s" fill="freeze" /></path><path d="M19.46,53.75c0.32,0.2,0.86,0.97,0.86,1.94c0,0.41,1.67,16.44,1.64,17.41c-0.03,0.96,0.29,1.65,1.35,1.54c5.9-0.57,25.29-1.48,28.67-1.68" class="stroke" stroke-dasharray="150"><set attributeName="opacity" to="0" dur="21.599999999999994s" /><animate attributeName="stroke-dashoffset" from="150" to="0" dur="1.8s" begin="21.599999999999994s" fill="freeze" /></path><path d="M52.64,51.99c0.62,0.28,1.08,0.85,1.08,1.94c0,2.18-0.21,11.43-0.95,21.2" class="stroke" stroke-dasharray="150"><set attributeName="opacity" to="0" dur="22.899999999999995s" /><animate attributeName="stroke-dashoffset" from="150" to="0" dur="1.8s" begin="22.899999999999995s" fill="freeze" /></path><path d="M46.74,79.93c0.17,0.18,0.28,0.72-0.17,1c-2.9,1.83-12.86,6.87-22.25,8.73" class="stroke" stroke-dasharray="150"><set attributeName="opacity" to="0" dur="23.899999999999995s" /><animate attributeName="stroke-dashoffset" from="150" to="0" dur="1.8s" begin="23.899999999999995s" fill="freeze" /></path><path d="M21.46,79.82c0.59,0.56,0.63,0.93,0.83,1.67c0.2,0.75-0.04,8.93-0.04,11.26c0,5.99,7.88,5.06,14.59,5.06c5.2,0,9.54-0.32,11.5-1.99c1.96-1.67,1.72-3.62,1.92-5.3" class="stroke" stroke-dasharray="150"><set attributeName="opacity" to="0" dur="24.899999999999995s" /><animate attributeName="stroke-dashoffset" from="150" to="0" dur="1.8s" begin="24.899999999999995s" fill="freeze" /></path><path d="M80.11,50.75c0.06,0.34,0.22,0.92-0.12,1.36C77,56,71.25,60.25,59.75,64.63" class="stroke" stroke-dasharray="150"><set attributeName="opacity" to="0" dur="26.099999999999994s" /><animate attributeName="stroke-dashoffset" from="150" to="0" dur="1.8s" begin="26.099999999999994s" fill="freeze" /></path><path d="M85.67,64.39c0.08,0.4,0.28,1.09-0.15,1.61c-2.95,3.51-16.27,11.5-27.03,15.37" class="stroke" stroke-dasharray="150"><set attributeName="opacity" to="0" dur="27.099999999999994s" /><animate attributeName="stroke-dashoffset" from="150" to="0" dur="1.8s" begin="27.099999999999994s" fill="freeze" /></path><path d="M91.3,79c0.1,0.47,0.2,1.22-0.18,1.9C88.85,84.89,75.86,93.64,58.07,99" class="stroke" stroke-dasharray="150"><set attributeName="opacity" to="0" dur="28.099999999999994s" /><animate attributeName="stroke-dashoffset" from="150" to="0" dur="1.8s" begin="28.099999999999994s" fill="freeze" /></path><text x="90" y="120" id="reset-kvg-09b31">⟳</text><text x="70" y="120" id="pause-kvg-09b31">◼</text><script type="text/javascript"><![CDATA[function RecurringTimer(e,t){var n,r,i=t;this.pause=function(){window.clearTimeout(n);i-=new Date-r};var s=function(){r=new Date;n=window.setTimeout(function(){i=t;s();e()},i)};this.clear=function(){window.clearTimeout(n);i=t;n=window.setTimeout(function(){i=t;s();e()},i)};this.resume=s;this.resume()}function invoketimer(){timer=new RecurringTimer(function(){svg.setCurrentTime(0)},30199.999999999996)}var svg=document.getElementById("kvg-09b31");var pause=document.getElementById("pause-kvg-09b31");var reset=document.getElementById("reset-kvg-09b31");var timer;invoketimer();reset.onclick=function(){svg.setCurrentTime(0);timer.clear();svg.unpauseAnimations();pause.innerHTML = "◼";};pause.onclick=function(){if(svg.animationsPaused()){svg.unpauseAnimations();timer.resume();pause.innerHTML="◼"}else{svg.pauseAnimations();timer.pause();pause.innerHTML="▶"}}]]></script></svg>