<svg id="kvg-09b9f" class="kanjivg" width="106" height="126" xmlns="http://www.w3.org/2000/svg" xmlns:xlink="http://www.w3.org/1999/xlink" xml:space="preserve" version="1.1" baseProfile="full"><defs><style type="text/css"><![CDATA[path.black{fill:none;stroke:black;stroke-width:5;stroke-linecap:round;stroke-linejoin:round;}path.grey{fill:none;stroke:#ddd;stroke-width:5;stroke-linecap:round;stroke-linejoin:round;}path.stroke{fill:none;stroke:black;stroke-width:5;stroke-linecap:round;stroke-linejoin:round;}rect{fill:none;stroke:#555;stroke-width:2;} text{font-size:16px;font-family:Segoe UI Symbol,Cambria Math,DejaVu Sans,Symbola,Quivira,STIX,Code2000;-webkit-touch-callout:none;cursor:pointer;-webkit-user-select:none;-khtml-user-select:none;-moz-user-select:none;-ms-user-select:none;user-select: none;}text:hover{color:#777;}#reset{font-weight:bold;}]]></style><marker id="markerStart" markerWidth="8" markerHeight="8" style="overflow:visible;"><circle cx="0" cy="0" r="1.5" style="stroke:none;fill:red;fill-opacity:0.5;"/></marker><marker id="markerEnd" style="overflow:visible;"><circle cx="0" cy="0" r="0.8" style="stroke:none;fill:blue;fill-opacity:0.5;"><animate attributeName="opacity" from="1" to="0" dur="3s" repeatCount="indefinite" /></circle></marker></defs><rect x="4" y="4" width="100" height="100" /><path d="M26.49,13.25c0.04,0.56,0.19,1.48-0.08,2.26C24,22.25,19.5,31.5,11.24,38.62" class="grey" /><path d="M23.89,22.38c1.93,0,13.82-2.94,15.85-3.23c1.74-0.25,2.63,1.67,1.91,2.9c-3.05,5.19-5.98,11.16-10.95,19.4" class="grey" /><path d="M14.22,44.45c0.22,0.46,0.22,0.78,0.35,1.37c0.99,4.8,2.55,17.42,3.16,26.37" class="grey" /><path d="M15.25,46.11c7.68-1.21,21.32-4.28,27.06-5.29c2.1-0.37,3.18,0.94,3.08,2.26c-0.4,4.84-1.74,17.54-3.42,26.6" class="grey" /><path d="M28.6,43.78c0.87,0.6,1.54,2.55,1.56,4.1c0.12,6.84,0.02,16.53,0.02,19.92" class="grey" /><path d="M17.17,57.5c2.5-0.47,24.47-3.94,26.54-4.13" class="grey" /><path d="M18.12,69.87c5.53-0.52,16.56-2.67,24.19-3.51" class="grey" /><path d="M15.64,81.07c0,5.59-1.89,12.68-3.72,14.93" class="grey" /><path d="M24.01,80.58c1.19,2.5,2.32,9.4,2.62,13.29" class="grey" /><path d="M31.88,78.44c2.05,2.15,5.3,8.86,5.81,12.21" class="grey" /><path d="M41.55,76.62c2.28,2.04,5.88,8.37,6.45,11.53" class="grey" /><path d="M70.99,12.98c0.91,0.38,1.78,2.45,1.75,3.53c-0.07,3.41-0.07,9.22-0.07,12.33" class="grey" /><path d="M54.48,27.63c0,3.26-1.62,12.24-2.35,14.41" class="grey" /><path d="M54.55,31.47c7.2-1.72,32.53-4.9,37.3-4.81c7.67,0.15-0.5,7.6-1.7,8.28" class="grey" /><path d="M71.02,35.5c0.39,1.41,0.12,3.19-0.19,4.94c-1.53,8.6-5.15,18.08-10.8,27.91c-1.18,2.05-1.34,2.69,0.8,3.06C70,73,86.9,84.19,92.75,95.25" class="grey" /><path d="M85.85,50.47c0.11,1.07,0.18,3.66-0.22,5.2c-3.26,12.5-14.24,31.78-35.94,39.08" class="grey" /><path d="M51.38,54.02c0.79,0.35,3.03,0.4,3.83,0.35c5.04-0.32,27.04-3.12,38.11-4.46c1.32-0.16,3.61,0.33,4.68,0.94" class="grey" /><path d="M26.49,13.25c0.04,0.56,0.19,1.48-0.08,2.26C24,22.25,19.5,31.5,11.24,38.62" class="stroke" stroke-dasharray="150"><animate attributeName="stroke-dashoffset" from="150" to="0" dur="1.8s" begin="0.0s" fill="freeze" /></path><path d="M23.89,22.38c1.93,0,13.82-2.94,15.85-3.23c1.74-0.25,2.63,1.67,1.91,2.9c-3.05,5.19-5.98,11.16-10.95,19.4" class="stroke" stroke-dasharray="150"><set attributeName="opacity" to="0" dur="1.0s" /><animate attributeName="stroke-dashoffset" from="150" to="0" dur="1.8s" begin="1.0s" fill="freeze" /></path><path d="M14.22,44.45c0.22,0.46,0.22,0.78,0.35,1.37c0.99,4.8,2.55,17.42,3.16,26.37" class="stroke" stroke-dasharray="150"><set attributeName="opacity" to="0" dur="2.1s" /><animate attributeName="stroke-dashoffset" from="150" to="0" dur="1.8s" begin="2.1s" fill="freeze" /></path><path d="M15.25,46.11c7.68-1.21,21.32-4.28,27.06-5.29c2.1-0.37,3.18,0.94,3.08,2.26c-0.4,4.84-1.74,17.54-3.42,26.6" class="stroke" stroke-dasharray="150"><set attributeName="opacity" to="0" dur="3.1s" /><animate attributeName="stroke-dashoffset" from="150" to="0" dur="1.8s" begin="3.1s" fill="freeze" /></path><path d="M28.6,43.78c0.87,0.6,1.54,2.55,1.56,4.1c0.12,6.84,0.02,16.53,0.02,19.92" class="stroke" stroke-dasharray="150"><set attributeName="opacity" to="0" dur="4.5s" /><animate attributeName="stroke-dashoffset" from="150" to="0" dur="1.8s" begin="4.5s" fill="freeze" /></path><path d="M17.17,57.5c2.5-0.47,24.47-3.94,26.54-4.13" class="stroke" stroke-dasharray="150"><set attributeName="opacity" to="0" dur="5.5s" /><animate attributeName="stroke-dashoffset" from="150" to="0" dur="1.8s" begin="5.5s" fill="freeze" /></path><path d="M18.12,69.87c5.53-0.52,16.56-2.67,24.19-3.51" class="stroke" stroke-dasharray="150"><set attributeName="opacity" to="0" dur="6.5s" /><animate attributeName="stroke-dashoffset" from="150" to="0" dur="1.8s" begin="6.5s" fill="freeze" /></path><path d="M15.64,81.07c0,5.59-1.89,12.68-3.72,14.93" class="stroke" stroke-dasharray="150"><set attributeName="opacity" to="0" dur="7.5s" /><animate attributeName="stroke-dashoffset" from="150" to="0" dur="1.8s" begin="7.5s" fill="freeze" /></path><path d="M24.01,80.58c1.19,2.5,2.32,9.4,2.62,13.29" class="stroke" stroke-dasharray="150"><set attributeName="opacity" to="0" dur="8.4s" /><animate attributeName="stroke-dashoffset" from="150" to="0" dur="1.8s" begin="8.4s" fill="freeze" /></path><path d="M31.88,78.44c2.05,2.15,5.3,8.86,5.81,12.21" class="stroke" stroke-dasharray="150"><set attributeName="opacity" to="0" dur="9.3s" /><animate attributeName="stroke-dashoffset" from="150" to="0" dur="1.8s" begin="9.3s" fill="freeze" /></path><path d="M41.55,76.62c2.28,2.04,5.88,8.37,6.45,11.53" class="stroke" stroke-dasharray="150"><set attributeName="opacity" to="0" dur="10.200000000000001s" /><animate attributeName="stroke-dashoffset" from="150" to="0" dur="1.8s" begin="10.200000000000001s" fill="freeze" /></path><path d="M70.99,12.98c0.91,0.38,1.78,2.45,1.75,3.53c-0.07,3.41-0.07,9.22-0.07,12.33" class="stroke" stroke-dasharray="150"><set attributeName="opacity" to="0" dur="11.100000000000001s" /><animate attributeName="stroke-dashoffset" from="150" to="0" dur="1.8s" begin="11.100000000000001s" fill="freeze" /></path><path d="M54.48,27.63c0,3.26-1.62,12.24-2.35,14.41" class="stroke" stroke-dasharray="150"><set attributeName="opacity" to="0" dur="12.000000000000002s" /><animate attributeName="stroke-dashoffset" from="150" to="0" dur="1.8s" begin="12.000000000000002s" fill="freeze" /></path><path d="M54.55,31.47c7.2-1.72,32.53-4.9,37.3-4.81c7.67,0.15-0.5,7.6-1.7,8.28" class="stroke" stroke-dasharray="150"><set attributeName="opacity" to="0" dur="12.900000000000002s" /><animate attributeName="stroke-dashoffset" from="150" to="0" dur="1.8s" begin="12.900000000000002s" fill="freeze" /></path><path d="M71.02,35.5c0.39,1.41,0.12,3.19-0.19,4.94c-1.53,8.6-5.15,18.08-10.8,27.91c-1.18,2.05-1.34,2.69,0.8,3.06C70,73,86.9,84.19,92.75,95.25" class="stroke" stroke-dasharray="150"><set attributeName="opacity" to="0" dur="14.200000000000003s" /><animate attributeName="stroke-dashoffset" from="150" to="0" dur="1.8s" begin="14.200000000000003s" fill="freeze" /></path><path d="M85.85,50.47c0.11,1.07,0.18,3.66-0.22,5.2c-3.26,12.5-14.24,31.78-35.94,39.08" class="stroke" stroke-dasharray="150"><set attributeName="opacity" to="0" dur="15.900000000000002s" /><animate attributeName="stroke-dashoffset" from="150" to="0" dur="1.8s" begin="15.900000000000002s" fill="freeze" /></path><path d="M51.38,54.02c0.79,0.35,3.03,0.4,3.83,0.35c5.04-0.32,27.04-3.12,38.11-4.46c1.32-0.16,3.61,0.33,4.68,0.94" class="stroke" stroke-dasharray="150"><set attributeName="opacity" to="0" dur="17.400000000000002s" /><animate attributeName="stroke-dashoffset" from="150" to="0" dur="1.8s" begin="17.400000000000002s" fill="freeze" /></path><text x="90" y="120" id="reset-kvg-09b9f">⟳</text><text x="70" y="120" id="pause-kvg-09b9f">◼</text><script type="text/javascript"><![CDATA[function RecurringTimer(e,t){var n,r,i=t;this.pause=function(){window.clearTimeout(n);i-=new Date-r};var s=function(){r=new Date;n=window.setTimeout(function(){i=t;s();e()},i)};this.clear=function(){window.clearTimeout(n);i=t;n=window.setTimeout(function(){i=t;s();e()},i)};this.resume=s;this.resume()}function invoketimer(){timer=new RecurringTimer(function(){svg.setCurrentTime(0)},19600.0)}var svg=document.getElementById("kvg-09b9f");var pause=document.getElementById("pause-kvg-09b9f");var reset=document.getElementById("reset-kvg-09b9f");var timer;invoketimer();reset.onclick=function(){svg.setCurrentTime(0);timer.clear();svg.unpauseAnimations();pause.innerHTML = "◼";};pause.onclick=function(){if(svg.animationsPaused()){svg.unpauseAnimations();timer.resume();pause.innerHTML="◼"}else{svg.pauseAnimations();timer.pause();pause.innerHTML="▶"}}]]></script></svg>