<svg id="kvg-09bc6-Kaisho" class="kanjivg" width="106" height="126" xmlns="http://www.w3.org/2000/svg" xmlns:xlink="http://www.w3.org/1999/xlink" xml:space="preserve" version="1.1" baseProfile="full"><defs><style type="text/css"><![CDATA[path.black{fill:none;stroke:black;stroke-width:5;stroke-linecap:round;stroke-linejoin:round;}path.grey{fill:none;stroke:#ddd;stroke-width:5;stroke-linecap:round;stroke-linejoin:round;}path.stroke{fill:none;stroke:black;stroke-width:5;stroke-linecap:round;stroke-linejoin:round;}rect{fill:none;stroke:#555;stroke-width:2;} text{font-size:16px;font-family:Segoe UI Symbol,Cambria Math,DejaVu Sans,Symbola,Quivira,STIX,Code2000;-webkit-touch-callout:none;cursor:pointer;-webkit-user-select:none;-khtml-user-select:none;-moz-user-select:none;-ms-user-select:none;user-select: none;}text:hover{color:#777;}#reset{font-weight:bold;}]]></style><marker id="markerStart" markerWidth="8" markerHeight="8" style="overflow:visible;"><circle cx="0" cy="0" r="1.5" style="stroke:none;fill:red;fill-opacity:0.5;"/></marker><marker id="markerEnd" style="overflow:visible;"><circle cx="0" cy="0" r="0.8" style="stroke:none;fill:blue;fill-opacity:0.5;"><animate attributeName="opacity" from="1" to="0" dur="3s" repeatCount="indefinite" /></circle></marker></defs><rect x="4" y="4" width="100" height="100" /><path d="M26.99,13.25c0.04,0.56,0.13,1.46-0.08,2.26C25,22.5,19.14,32.72,11.24,39.12" class="grey" /><path d="M24.89,21.38c6.36-0.13,12.82-1.44,14.85-1.73c1.74-0.25,3.13,2.17,2.41,3.4c-3.05,5.19-5.48,8.66-10.45,16.9" class="grey" /><path d="M17.72,39.97c0.26,0.53,0.27,0.9,0.41,1.56c1.19,5.49,2.45,19.91,3.19,30.14" class="grey" /><path d="M18.95,42.62c9.21-1.38,15.56-2.39,22.44-3.55c2.52-0.43,3.82,1.08,3.69,2.59C44.6,47.2,44,57.75,42.97,69.07" class="grey" /><path d="M29.5,42.21c0.99,0.66,1.76,2.79,1.79,4.47c0.13,7.46,0.03,18.03,0.03,21.73" class="grey" /><path d="M21.25,55.65c5.15-1.19,10.58-1.54,15.83-2.06c0.55-0.06,1.09-0.11,1.61-0.16" class="grey" /><path d="M21.8,69.29c6.63-0.59,16.45-1.29,21.11-1.51" class="grey" /><path d="M17.01,83.07c0,5.23-2.99,12.94-3.76,14.43" class="grey" /><path d="M25,80.83c1.24,2.41,2.41,9.04,2.72,12.79" class="grey" /><path d="M33.63,79.19c1.25,2.07,3.22,8.5,3.53,11.71" class="grey" /><path d="M41.94,76.87c1.61,1.9,4.16,7.82,4.56,10.78" class="grey" /><path d="M53.25,26.95c1.02,0.48,2.88,0.56,3.9,0.48c8.35-0.67,18.85-2.67,30.29-3.09c1.69-0.06,2.71,0.23,3.56,0.46" class="grey" /><path d="M53.35,39.86c0.6,0.8,1,1.61,1.2,2.41c0.2,0.8-0.24,48.1-0.22,55.35" class="grey" /><path d="M55.1,41.8c6.14-0.31,34.63-2.81,36.26-3.01c2.92-0.37,4.01,2.39,3.65,3.49c-0.04,2.48-0.62,30.89-0.62,47.69c0,11.98-6,1.79-7.29,1.07" class="grey" /><path d="M55.1,56.86c8.66-0.68,17.34-1.04,26.01-1.52c0.95-0.05,1.88-0.1,2.78-0.15" class="grey" /><path d="M55.27,72.79c8.37-0.79,16.81-1.03,25.21-1.46c0.99-0.05,1.96-0.1,2.9-0.15" class="grey" /><path d="M70.7,11.8c1.29,0.59,2.06,2.67,2.32,3.85c0.26,1.19,0,74.07-0.26,81.48" class="grey" /><path d="M84.25,13.5c4.59,1.41,11.1,5.3,12.25,7.5" class="grey" /><path d="M26.99,13.25c0.04,0.56,0.13,1.46-0.08,2.26C25,22.5,19.14,32.72,11.24,39.12" class="stroke" stroke-dasharray="150"><animate attributeName="stroke-dashoffset" from="150" to="0" dur="1.8s" begin="0.0s" fill="freeze" /></path><path d="M24.89,21.38c6.36-0.13,12.82-1.44,14.85-1.73c1.74-0.25,3.13,2.17,2.41,3.4c-3.05,5.19-5.48,8.66-10.45,16.9" class="stroke" stroke-dasharray="150"><set attributeName="opacity" to="0" dur="1.0s" /><animate attributeName="stroke-dashoffset" from="150" to="0" dur="1.8s" begin="1.0s" fill="freeze" /></path><path d="M17.72,39.97c0.26,0.53,0.27,0.9,0.41,1.56c1.19,5.49,2.45,19.91,3.19,30.14" class="stroke" stroke-dasharray="150"><set attributeName="opacity" to="0" dur="2.0s" /><animate attributeName="stroke-dashoffset" from="150" to="0" dur="1.8s" begin="2.0s" fill="freeze" /></path><path d="M18.95,42.62c9.21-1.38,15.56-2.39,22.44-3.55c2.52-0.43,3.82,1.08,3.69,2.59C44.6,47.2,44,57.75,42.97,69.07" class="stroke" stroke-dasharray="150"><set attributeName="opacity" to="0" dur="3.0s" /><animate attributeName="stroke-dashoffset" from="150" to="0" dur="1.8s" begin="3.0s" fill="freeze" /></path><path d="M29.5,42.21c0.99,0.66,1.76,2.79,1.79,4.47c0.13,7.46,0.03,18.03,0.03,21.73" class="stroke" stroke-dasharray="150"><set attributeName="opacity" to="0" dur="4.4s" /><animate attributeName="stroke-dashoffset" from="150" to="0" dur="1.8s" begin="4.4s" fill="freeze" /></path><path d="M21.25,55.65c5.15-1.19,10.58-1.54,15.83-2.06c0.55-0.06,1.09-0.11,1.61-0.16" class="stroke" stroke-dasharray="150"><set attributeName="opacity" to="0" dur="5.4s" /><animate attributeName="stroke-dashoffset" from="150" to="0" dur="1.8s" begin="5.4s" fill="freeze" /></path><path d="M21.8,69.29c6.63-0.59,16.45-1.29,21.11-1.51" class="stroke" stroke-dasharray="150"><set attributeName="opacity" to="0" dur="6.300000000000001s" /><animate attributeName="stroke-dashoffset" from="150" to="0" dur="1.8s" begin="6.300000000000001s" fill="freeze" /></path><path d="M17.01,83.07c0,5.23-2.99,12.94-3.76,14.43" class="stroke" stroke-dasharray="150"><set attributeName="opacity" to="0" dur="7.300000000000001s" /><animate attributeName="stroke-dashoffset" from="150" to="0" dur="1.8s" begin="7.300000000000001s" fill="freeze" /></path><path d="M25,80.83c1.24,2.41,2.41,9.04,2.72,12.79" class="stroke" stroke-dasharray="150"><set attributeName="opacity" to="0" dur="8.200000000000001s" /><animate attributeName="stroke-dashoffset" from="150" to="0" dur="1.8s" begin="8.200000000000001s" fill="freeze" /></path><path d="M33.63,79.19c1.25,2.07,3.22,8.5,3.53,11.71" class="stroke" stroke-dasharray="150"><set attributeName="opacity" to="0" dur="9.100000000000001s" /><animate attributeName="stroke-dashoffset" from="150" to="0" dur="1.8s" begin="9.100000000000001s" fill="freeze" /></path><path d="M41.94,76.87c1.61,1.9,4.16,7.82,4.56,10.78" class="stroke" stroke-dasharray="150"><set attributeName="opacity" to="0" dur="10.000000000000002s" /><animate attributeName="stroke-dashoffset" from="150" to="0" dur="1.8s" begin="10.000000000000002s" fill="freeze" /></path><path d="M53.25,26.95c1.02,0.48,2.88,0.56,3.9,0.48c8.35-0.67,18.85-2.67,30.29-3.09c1.69-0.06,2.71,0.23,3.56,0.46" class="stroke" stroke-dasharray="150"><set attributeName="opacity" to="0" dur="10.900000000000002s" /><animate attributeName="stroke-dashoffset" from="150" to="0" dur="1.8s" begin="10.900000000000002s" fill="freeze" /></path><path d="M53.35,39.86c0.6,0.8,1,1.61,1.2,2.41c0.2,0.8-0.24,48.1-0.22,55.35" class="stroke" stroke-dasharray="150"><set attributeName="opacity" to="0" dur="11.900000000000002s" /><animate attributeName="stroke-dashoffset" from="150" to="0" dur="1.8s" begin="11.900000000000002s" fill="freeze" /></path><path d="M55.1,41.8c6.14-0.31,34.63-2.81,36.26-3.01c2.92-0.37,4.01,2.39,3.65,3.49c-0.04,2.48-0.62,30.89-0.62,47.69c0,11.98-6,1.79-7.29,1.07" class="stroke" stroke-dasharray="150"><set attributeName="opacity" to="0" dur="13.300000000000002s" /><animate attributeName="stroke-dashoffset" from="150" to="0" dur="1.8s" begin="13.300000000000002s" fill="freeze" /></path><path d="M55.1,56.86c8.66-0.68,17.34-1.04,26.01-1.52c0.95-0.05,1.88-0.1,2.78-0.15" class="stroke" stroke-dasharray="150"><set attributeName="opacity" to="0" dur="15.200000000000003s" /><animate attributeName="stroke-dashoffset" from="150" to="0" dur="1.8s" begin="15.200000000000003s" fill="freeze" /></path><path d="M55.27,72.79c8.37-0.79,16.81-1.03,25.21-1.46c0.99-0.05,1.96-0.1,2.9-0.15" class="stroke" stroke-dasharray="150"><set attributeName="opacity" to="0" dur="16.200000000000003s" /><animate attributeName="stroke-dashoffset" from="150" to="0" dur="1.8s" begin="16.200000000000003s" fill="freeze" /></path><path d="M70.7,11.8c1.29,0.59,2.06,2.67,2.32,3.85c0.26,1.19,0,74.07-0.26,81.48" class="stroke" stroke-dasharray="150"><set attributeName="opacity" to="0" dur="17.200000000000003s" /><animate attributeName="stroke-dashoffset" from="150" to="0" dur="1.8s" begin="17.200000000000003s" fill="freeze" /></path><path d="M84.25,13.5c4.59,1.41,11.1,5.3,12.25,7.5" class="stroke" stroke-dasharray="150"><set attributeName="opacity" to="0" dur="18.900000000000002s" /><animate attributeName="stroke-dashoffset" from="150" to="0" dur="1.8s" begin="18.900000000000002s" fill="freeze" /></path><text x="90" y="120" id="reset-kvg-09bc6-Kaisho">⟳</text><text x="70" y="120" id="pause-kvg-09bc6-Kaisho">◼</text><script type="text/javascript"><![CDATA[function RecurringTimer(e,t){var n,r,i=t;this.pause=function(){window.clearTimeout(n);i-=new Date-r};var s=function(){r=new Date;n=window.setTimeout(function(){i=t;s();e()},i)};this.clear=function(){window.clearTimeout(n);i=t;n=window.setTimeout(function(){i=t;s();e()},i)};this.resume=s;this.resume()}function invoketimer(){timer=new RecurringTimer(function(){svg.setCurrentTime(0)},20800.0)}var svg=document.getElementById("kvg-09bc6-Kaisho");var pause=document.getElementById("pause-kvg-09bc6-Kaisho");var reset=document.getElementById("reset-kvg-09bc6-Kaisho");var timer;invoketimer();reset.onclick=function(){svg.setCurrentTime(0);timer.clear();svg.unpauseAnimations();pause.innerHTML = "◼";};pause.onclick=function(){if(svg.animationsPaused()){svg.unpauseAnimations();timer.resume();pause.innerHTML="◼"}else{svg.pauseAnimations();timer.pause();pause.innerHTML="▶"}}]]></script></svg>