<svg id="kvg-09bca-Kaisho" class="kanjivg" width="106" height="126" xmlns="http://www.w3.org/2000/svg" xmlns:xlink="http://www.w3.org/1999/xlink" xml:space="preserve" version="1.1" baseProfile="full"><defs><style type="text/css"><![CDATA[path.black{fill:none;stroke:black;stroke-width:5;stroke-linecap:round;stroke-linejoin:round;}path.grey{fill:none;stroke:#ddd;stroke-width:5;stroke-linecap:round;stroke-linejoin:round;}path.stroke{fill:none;stroke:black;stroke-width:5;stroke-linecap:round;stroke-linejoin:round;}rect{fill:none;stroke:#555;stroke-width:2;} text{font-size:16px;font-family:Segoe UI Symbol,Cambria Math,DejaVu Sans,Symbola,Quivira,STIX,Code2000;-webkit-touch-callout:none;cursor:pointer;-webkit-user-select:none;-khtml-user-select:none;-moz-user-select:none;-ms-user-select:none;user-select: none;}text:hover{color:#777;}#reset{font-weight:bold;}]]></style><marker id="markerStart" markerWidth="8" markerHeight="8" style="overflow:visible;"><circle cx="0" cy="0" r="1.5" style="stroke:none;fill:red;fill-opacity:0.5;"/></marker><marker id="markerEnd" style="overflow:visible;"><circle cx="0" cy="0" r="0.8" style="stroke:none;fill:blue;fill-opacity:0.5;"><animate attributeName="opacity" from="1" to="0" dur="3s" repeatCount="indefinite" /></circle></marker></defs><rect x="4" y="4" width="100" height="100" /><path d="M22.88,11.45c3.48,1.31,9,5.39,9.87,7.43" class="grey" /><path d="M14.5,26.71c4.06,0.55,10.48,2.27,11.5,3.13" class="grey" /><path d="M17.75,49.94c1.41,0.59,3.1,0.61,3.99-0.11c2.58-2.11,11.16-13.19,13.51-15.88" class="grey" /><path d="M64.2,8.95c0.06,0.24,0.86,1.28,0.93,2.83c0.3,7.47-0.19,15.38-0.19,17.93c0,7.22-4.96,1.51-6.06,0.87" class="grey" /><path d="M54.17,16.32c0.04,0.38,0.14,1-0.08,1.53c-1.61,3.8-8.41,11.13-13.93,14.63" class="grey" /><path d="M76.5,16.08c6.37,3.15,14.91,11.27,16.5,16.18" class="grey" /><path d="M79.37,23.25c0.12,0.56,0.36,1.47-0.25,2.27c-5.07,6.6-24.58,17.74-44.37,22.18" class="grey" /><path d="M53.99,43.7c0.08,0.41,0.16,1.05-0.15,1.64c-1.82,3.45-12.27,11.01-26.59,15.65" class="grey" /><path d="M52,48.94c4.5,0.01,13.75-1.74,17.83-2.79c1.99-0.51,3.1,1.55,2.25,2.26c-3.59,3.01-7.59,6.32-11.38,10.38" class="grey" /><path d="M33.49,61.2c0.37,0.34,0.38,0.57,0.59,1c1.69,3.5,2.28,12.85,3.32,19.39" class="grey" /><path d="M34.74,62.17c13.08-0.88,37-3.88,46.77-4.62c3.59-0.27,3.93,2.69,3.74,3.65c-0.68,3.53-2.75,12.49-4.48,17.56" class="grey" /><path d="M58.3,60.21c0.47,4.55,0.24,14.5,0.24,17.54" class="grey" /><path d="M37.18,70.23c10.15-0.82,20.32-1.42,30.48-2.09c1.22-0.08,2.41-0.16,3.54-0.23" class="grey" /><path d="M38.58,79.64c9.42-0.38,28.17-2.69,42.69-2.56" class="grey" /><path d="M26.5,86.34c0,4.47-6.74,11.08-8.5,12.36" class="grey" /><path d="M41.27,86.25c2.58,2.3,5.04,8.62,5.69,12.2" class="grey" /><path d="M59.37,86.38c2.8,2.27,7.23,9.36,7.93,12.9" class="grey" /><path d="M77.02,84.85c5.49,2.58,14.17,10.61,15.54,14.62" class="grey" /><path d="M22.88,11.45c3.48,1.31,9,5.39,9.87,7.43" class="stroke" stroke-dasharray="150"><animate attributeName="stroke-dashoffset" from="150" to="0" dur="1.8s" begin="0.0s" fill="freeze" /></path><path d="M14.5,26.71c4.06,0.55,10.48,2.27,11.5,3.13" class="stroke" stroke-dasharray="150"><set attributeName="opacity" to="0" dur="0.9s" /><animate attributeName="stroke-dashoffset" from="150" to="0" dur="1.8s" begin="0.9s" fill="freeze" /></path><path d="M17.75,49.94c1.41,0.59,3.1,0.61,3.99-0.11c2.58-2.11,11.16-13.19,13.51-15.88" class="stroke" stroke-dasharray="150"><set attributeName="opacity" to="0" dur="1.8s" /><animate attributeName="stroke-dashoffset" from="150" to="0" dur="1.8s" begin="1.8s" fill="freeze" /></path><path d="M64.2,8.95c0.06,0.24,0.86,1.28,0.93,2.83c0.3,7.47-0.19,15.38-0.19,17.93c0,7.22-4.96,1.51-6.06,0.87" class="stroke" stroke-dasharray="150"><set attributeName="opacity" to="0" dur="2.8s" /><animate attributeName="stroke-dashoffset" from="150" to="0" dur="1.8s" begin="2.8s" fill="freeze" /></path><path d="M54.17,16.32c0.04,0.38,0.14,1-0.08,1.53c-1.61,3.8-8.41,11.13-13.93,14.63" class="stroke" stroke-dasharray="150"><set attributeName="opacity" to="0" dur="3.8s" /><animate attributeName="stroke-dashoffset" from="150" to="0" dur="1.8s" begin="3.8s" fill="freeze" /></path><path d="M76.5,16.08c6.37,3.15,14.91,11.27,16.5,16.18" class="stroke" stroke-dasharray="150"><set attributeName="opacity" to="0" dur="4.8s" /><animate attributeName="stroke-dashoffset" from="150" to="0" dur="1.8s" begin="4.8s" fill="freeze" /></path><path d="M79.37,23.25c0.12,0.56,0.36,1.47-0.25,2.27c-5.07,6.6-24.58,17.74-44.37,22.18" class="stroke" stroke-dasharray="150"><set attributeName="opacity" to="0" dur="5.8s" /><animate attributeName="stroke-dashoffset" from="150" to="0" dur="1.8s" begin="5.8s" fill="freeze" /></path><path d="M53.99,43.7c0.08,0.41,0.16,1.05-0.15,1.64c-1.82,3.45-12.27,11.01-26.59,15.65" class="stroke" stroke-dasharray="150"><set attributeName="opacity" to="0" dur="7.1s" /><animate attributeName="stroke-dashoffset" from="150" to="0" dur="1.8s" begin="7.1s" fill="freeze" /></path><path d="M52,48.94c4.5,0.01,13.75-1.74,17.83-2.79c1.99-0.51,3.1,1.55,2.25,2.26c-3.59,3.01-7.59,6.32-11.38,10.38" class="stroke" stroke-dasharray="150"><set attributeName="opacity" to="0" dur="8.1s" /><animate attributeName="stroke-dashoffset" from="150" to="0" dur="1.8s" begin="8.1s" fill="freeze" /></path><path d="M33.49,61.2c0.37,0.34,0.38,0.57,0.59,1c1.69,3.5,2.28,12.85,3.32,19.39" class="stroke" stroke-dasharray="150"><set attributeName="opacity" to="0" dur="9.1s" /><animate attributeName="stroke-dashoffset" from="150" to="0" dur="1.8s" begin="9.1s" fill="freeze" /></path><path d="M34.74,62.17c13.08-0.88,37-3.88,46.77-4.62c3.59-0.27,3.93,2.69,3.74,3.65c-0.68,3.53-2.75,12.49-4.48,17.56" class="stroke" stroke-dasharray="150"><set attributeName="opacity" to="0" dur="10.1s" /><animate attributeName="stroke-dashoffset" from="150" to="0" dur="1.8s" begin="10.1s" fill="freeze" /></path><path d="M58.3,60.21c0.47,4.55,0.24,14.5,0.24,17.54" class="stroke" stroke-dasharray="150"><set attributeName="opacity" to="0" dur="11.799999999999999s" /><animate attributeName="stroke-dashoffset" from="150" to="0" dur="1.8s" begin="11.799999999999999s" fill="freeze" /></path><path d="M37.18,70.23c10.15-0.82,20.32-1.42,30.48-2.09c1.22-0.08,2.41-0.16,3.54-0.23" class="stroke" stroke-dasharray="150"><set attributeName="opacity" to="0" dur="12.7s" /><animate attributeName="stroke-dashoffset" from="150" to="0" dur="1.8s" begin="12.7s" fill="freeze" /></path><path d="M38.58,79.64c9.42-0.38,28.17-2.69,42.69-2.56" class="stroke" stroke-dasharray="150"><set attributeName="opacity" to="0" dur="13.7s" /><animate attributeName="stroke-dashoffset" from="150" to="0" dur="1.8s" begin="13.7s" fill="freeze" /></path><path d="M26.5,86.34c0,4.47-6.74,11.08-8.5,12.36" class="stroke" stroke-dasharray="150"><set attributeName="opacity" to="0" dur="14.799999999999999s" /><animate attributeName="stroke-dashoffset" from="150" to="0" dur="1.8s" begin="14.799999999999999s" fill="freeze" /></path><path d="M41.27,86.25c2.58,2.3,5.04,8.62,5.69,12.2" class="stroke" stroke-dasharray="150"><set attributeName="opacity" to="0" dur="15.7s" /><animate attributeName="stroke-dashoffset" from="150" to="0" dur="1.8s" begin="15.7s" fill="freeze" /></path><path d="M59.37,86.38c2.8,2.27,7.23,9.36,7.93,12.9" class="stroke" stroke-dasharray="150"><set attributeName="opacity" to="0" dur="16.599999999999998s" /><animate attributeName="stroke-dashoffset" from="150" to="0" dur="1.8s" begin="16.599999999999998s" fill="freeze" /></path><path d="M77.02,84.85c5.49,2.58,14.17,10.61,15.54,14.62" class="stroke" stroke-dasharray="150"><set attributeName="opacity" to="0" dur="17.499999999999996s" /><animate attributeName="stroke-dashoffset" from="150" to="0" dur="1.8s" begin="17.499999999999996s" fill="freeze" /></path><text x="90" y="120" id="reset-kvg-09bca-Kaisho">⟳</text><text x="70" y="120" id="pause-kvg-09bca-Kaisho">◼</text><script type="text/javascript"><![CDATA[function RecurringTimer(e,t){var n,r,i=t;this.pause=function(){window.clearTimeout(n);i-=new Date-r};var s=function(){r=new Date;n=window.setTimeout(function(){i=t;s();e()},i)};this.clear=function(){window.clearTimeout(n);i=t;n=window.setTimeout(function(){i=t;s();e()},i)};this.resume=s;this.resume()}function invoketimer(){timer=new RecurringTimer(function(){svg.setCurrentTime(0)},19499.999999999996)}var svg=document.getElementById("kvg-09bca-Kaisho");var pause=document.getElementById("pause-kvg-09bca-Kaisho");var reset=document.getElementById("reset-kvg-09bca-Kaisho");var timer;invoketimer();reset.onclick=function(){svg.setCurrentTime(0);timer.clear();svg.unpauseAnimations();pause.innerHTML = "◼";};pause.onclick=function(){if(svg.animationsPaused()){svg.unpauseAnimations();timer.resume();pause.innerHTML="◼"}else{svg.pauseAnimations();timer.pause();pause.innerHTML="▶"}}]]></script></svg>