<svg id="kvg-09bd6" class="kanjivg" width="106" height="126" xmlns="http://www.w3.org/2000/svg" xmlns:xlink="http://www.w3.org/1999/xlink" xml:space="preserve" version="1.1" baseProfile="full"><defs><style type="text/css"><![CDATA[path.black{fill:none;stroke:black;stroke-width:5;stroke-linecap:round;stroke-linejoin:round;}path.grey{fill:none;stroke:#ddd;stroke-width:5;stroke-linecap:round;stroke-linejoin:round;}path.stroke{fill:none;stroke:black;stroke-width:5;stroke-linecap:round;stroke-linejoin:round;}rect{fill:none;stroke:#555;stroke-width:2;} text{font-size:16px;font-family:Segoe UI Symbol,Cambria Math,DejaVu Sans,Symbola,Quivira,STIX,Code2000;-webkit-touch-callout:none;cursor:pointer;-webkit-user-select:none;-khtml-user-select:none;-moz-user-select:none;-ms-user-select:none;user-select: none;}text:hover{color:#777;}#reset{font-weight:bold;}]]></style><marker id="markerStart" markerWidth="8" markerHeight="8" style="overflow:visible;"><circle cx="0" cy="0" r="1.5" style="stroke:none;fill:red;fill-opacity:0.5;"/></marker><marker id="markerEnd" style="overflow:visible;"><circle cx="0" cy="0" r="0.8" style="stroke:none;fill:blue;fill-opacity:0.5;"><animate attributeName="opacity" from="1" to="0" dur="3s" repeatCount="indefinite" /></circle></marker></defs><rect x="4" y="4" width="100" height="100" /><path d="M29.24,15.5c0,1.12-0.26,2.17-0.96,3.21c-2.61,5.01-8.72,13.11-16.54,19.41" class="grey" /><path d="M26.39,24.75c0.35,0,2.03-0.07,2.92-0.19c3.27-0.42,7.04-1.29,9.22-1.71c2.3-0.44,4.09,0.58,2.62,2.73c-3.05,4.48-4.04,6.06-9.02,13.17" class="grey" /><path d="M15.22,41.89c0.82,0.82,1.06,2.22,1.2,3.35c0.58,5.3,1.23,11.79,1.75,17.88c0.22,2.54,0.41,5.02,0.58,7.31" class="grey" /><path d="M16.76,43.27c7.49-1.27,18.42-2.59,25.03-3.56c2.53-0.37,5.78,0.23,5.48,3.42c-0.39,4.1-1.36,11.24-2.5,18.02c-0.35,2.09-0.71,4.15-1.08,6.07" class="grey" /><path d="M30.21,43.48c0.97,0.97,1.05,2.26,1.07,3.79c0.12,6.73,0.02,14.77,0.02,18.1" class="grey" /><path d="M18.69,55.23c5.94-0.98,16.56-2.36,26.25-3.06" class="grey" /><path d="M19.65,67.15c9.66-1.06,14.73-1.53,23.39-2.2" class="grey" /><path d="M14.95,81.57c0,4.86-2.7,12.04-3.34,13.43" class="grey" /><path d="M22.95,78.33c0.91,2.36,1.77,8.87,1.99,12.54" class="grey" /><path d="M32.12,76.44c1.17,2.07,3.28,8.5,3.57,11.71" class="grey" /><path d="M42.8,74.87c1.66,1.9,4.28,7.82,4.7,10.78" class="grey" /><path d="M55.86,25.14c2.29,0.51,4.59,0.51,6.9,0.01c6.9-1.04,17.88-2.11,23.75-2.63c2.21-0.39,4.42-0.42,6.63-0.09" class="grey" /><path d="M72.4,12.63c0.92,0.92,1.28,2.12,1.28,3.12c0,0.52-0.05,19.6-0.05,28.24" class="grey" /><path d="M57.27,35.77c2.21,0.41,4.39,0.2,6.63-0.13c6.27-0.94,15.57-1.99,20.71-2.6c2.02-0.37,4.05-0.39,6.09-0.05" class="grey" /><path d="M53.63,46.2c2.84,0.38,5.67,0.39,8.51,0.03c8.73-1.11,19.75-2.1,27.37-2.72c2.92-0.36,5.83-0.27,8.75,0.26" class="grey" /><path d="M59.65,55.43c0.83,0.83,1.07,2.07,1.07,3.01c0,0.46-0.05,18.38-0.08,30.31c-0.01,4.02-0.02,7.37-0.02,9.13" class="grey" /><path d="M61.79,56.77c1.94-0.13,17.88-2.36,22.22-2.92c3.46-0.44,4.64,1.18,4.64,4.28c0,6.12,0.1,26.5,0.1,36.09c0,7.78-5.11,0.55-5.83-0.18" class="grey" /><path d="M 74.777083,56.68125 c 0.04919,4.354279 0.151509,10.752614 0.02781,15.859065" class="grey" /><path d="M61.83,75.1c9.42-1.1,17.54-1.97,25.6-2.05" class="grey" /><path d="M29.24,15.5c0,1.12-0.26,2.17-0.96,3.21c-2.61,5.01-8.72,13.11-16.54,19.41" class="stroke" stroke-dasharray="150"><animate attributeName="stroke-dashoffset" from="150" to="0" dur="1.8s" begin="0.0s" fill="freeze" /></path><path d="M26.39,24.75c0.35,0,2.03-0.07,2.92-0.19c3.27-0.42,7.04-1.29,9.22-1.71c2.3-0.44,4.09,0.58,2.62,2.73c-3.05,4.48-4.04,6.06-9.02,13.17" class="stroke" stroke-dasharray="150"><set attributeName="opacity" to="0" dur="1.0s" /><animate attributeName="stroke-dashoffset" from="150" to="0" dur="1.8s" begin="1.0s" fill="freeze" /></path><path d="M15.22,41.89c0.82,0.82,1.06,2.22,1.2,3.35c0.58,5.3,1.23,11.79,1.75,17.88c0.22,2.54,0.41,5.02,0.58,7.31" class="stroke" stroke-dasharray="150"><set attributeName="opacity" to="0" dur="2.0s" /><animate attributeName="stroke-dashoffset" from="150" to="0" dur="1.8s" begin="2.0s" fill="freeze" /></path><path d="M16.76,43.27c7.49-1.27,18.42-2.59,25.03-3.56c2.53-0.37,5.78,0.23,5.48,3.42c-0.39,4.1-1.36,11.24-2.5,18.02c-0.35,2.09-0.71,4.15-1.08,6.07" class="stroke" stroke-dasharray="150"><set attributeName="opacity" to="0" dur="3.0s" /><animate attributeName="stroke-dashoffset" from="150" to="0" dur="1.8s" begin="3.0s" fill="freeze" /></path><path d="M30.21,43.48c0.97,0.97,1.05,2.26,1.07,3.79c0.12,6.73,0.02,14.77,0.02,18.1" class="stroke" stroke-dasharray="150"><set attributeName="opacity" to="0" dur="4.4s" /><animate attributeName="stroke-dashoffset" from="150" to="0" dur="1.8s" begin="4.4s" fill="freeze" /></path><path d="M18.69,55.23c5.94-0.98,16.56-2.36,26.25-3.06" class="stroke" stroke-dasharray="150"><set attributeName="opacity" to="0" dur="5.4s" /><animate attributeName="stroke-dashoffset" from="150" to="0" dur="1.8s" begin="5.4s" fill="freeze" /></path><path d="M19.65,67.15c9.66-1.06,14.73-1.53,23.39-2.2" class="stroke" stroke-dasharray="150"><set attributeName="opacity" to="0" dur="6.4s" /><animate attributeName="stroke-dashoffset" from="150" to="0" dur="1.8s" begin="6.4s" fill="freeze" /></path><path d="M14.95,81.57c0,4.86-2.7,12.04-3.34,13.43" class="stroke" stroke-dasharray="150"><set attributeName="opacity" to="0" dur="7.4s" /><animate attributeName="stroke-dashoffset" from="150" to="0" dur="1.8s" begin="7.4s" fill="freeze" /></path><path d="M22.95,78.33c0.91,2.36,1.77,8.87,1.99,12.54" class="stroke" stroke-dasharray="150"><set attributeName="opacity" to="0" dur="8.3s" /><animate attributeName="stroke-dashoffset" from="150" to="0" dur="1.8s" begin="8.3s" fill="freeze" /></path><path d="M32.12,76.44c1.17,2.07,3.28,8.5,3.57,11.71" class="stroke" stroke-dasharray="150"><set attributeName="opacity" to="0" dur="9.200000000000001s" /><animate attributeName="stroke-dashoffset" from="150" to="0" dur="1.8s" begin="9.200000000000001s" fill="freeze" /></path><path d="M42.8,74.87c1.66,1.9,4.28,7.82,4.7,10.78" class="stroke" stroke-dasharray="150"><set attributeName="opacity" to="0" dur="10.100000000000001s" /><animate attributeName="stroke-dashoffset" from="150" to="0" dur="1.8s" begin="10.100000000000001s" fill="freeze" /></path><path d="M55.86,25.14c2.29,0.51,4.59,0.51,6.9,0.01c6.9-1.04,17.88-2.11,23.75-2.63c2.21-0.39,4.42-0.42,6.63-0.09" class="stroke" stroke-dasharray="150"><set attributeName="opacity" to="0" dur="11.000000000000002s" /><animate attributeName="stroke-dashoffset" from="150" to="0" dur="1.8s" begin="11.000000000000002s" fill="freeze" /></path><path d="M72.4,12.63c0.92,0.92,1.28,2.12,1.28,3.12c0,0.52-0.05,19.6-0.05,28.24" class="stroke" stroke-dasharray="150"><set attributeName="opacity" to="0" dur="12.000000000000002s" /><animate attributeName="stroke-dashoffset" from="150" to="0" dur="1.8s" begin="12.000000000000002s" fill="freeze" /></path><path d="M57.27,35.77c2.21,0.41,4.39,0.2,6.63-0.13c6.27-0.94,15.57-1.99,20.71-2.6c2.02-0.37,4.05-0.39,6.09-0.05" class="stroke" stroke-dasharray="150"><set attributeName="opacity" to="0" dur="13.000000000000002s" /><animate attributeName="stroke-dashoffset" from="150" to="0" dur="1.8s" begin="13.000000000000002s" fill="freeze" /></path><path d="M53.63,46.2c2.84,0.38,5.67,0.39,8.51,0.03c8.73-1.11,19.75-2.1,27.37-2.72c2.92-0.36,5.83-0.27,8.75,0.26" class="stroke" stroke-dasharray="150"><set attributeName="opacity" to="0" dur="14.000000000000002s" /><animate attributeName="stroke-dashoffset" from="150" to="0" dur="1.8s" begin="14.000000000000002s" fill="freeze" /></path><path d="M59.65,55.43c0.83,0.83,1.07,2.07,1.07,3.01c0,0.46-0.05,18.38-0.08,30.31c-0.01,4.02-0.02,7.37-0.02,9.13" class="stroke" stroke-dasharray="150"><set attributeName="opacity" to="0" dur="15.100000000000001s" /><animate attributeName="stroke-dashoffset" from="150" to="0" dur="1.8s" begin="15.100000000000001s" fill="freeze" /></path><path d="M61.79,56.77c1.94-0.13,17.88-2.36,22.22-2.92c3.46-0.44,4.64,1.18,4.64,4.28c0,6.12,0.1,26.5,0.1,36.09c0,7.78-5.11,0.55-5.83-0.18" class="stroke" stroke-dasharray="150"><set attributeName="opacity" to="0" dur="16.200000000000003s" /><animate attributeName="stroke-dashoffset" from="150" to="0" dur="1.8s" begin="16.200000000000003s" fill="freeze" /></path><path d="M 74.777083,56.68125 c 0.04919,4.354279 0.151509,10.752614 0.02781,15.859065" class="stroke" stroke-dasharray="150"><set attributeName="opacity" to="0" dur="17.900000000000002s" /><animate attributeName="stroke-dashoffset" from="150" to="0" dur="1.8s" begin="17.900000000000002s" fill="freeze" /></path><path d="M61.83,75.1c9.42-1.1,17.54-1.97,25.6-2.05" class="stroke" stroke-dasharray="150"><set attributeName="opacity" to="0" dur="18.8s" /><animate attributeName="stroke-dashoffset" from="150" to="0" dur="1.8s" begin="18.8s" fill="freeze" /></path><text x="90" y="120" id="reset-kvg-09bd6">⟳</text><text x="70" y="120" id="pause-kvg-09bd6">◼</text><script type="text/javascript"><![CDATA[function RecurringTimer(e,t){var n,r,i=t;this.pause=function(){window.clearTimeout(n);i-=new Date-r};var s=function(){r=new Date;n=window.setTimeout(function(){i=t;s();e()},i)};this.clear=function(){window.clearTimeout(n);i=t;n=window.setTimeout(function(){i=t;s();e()},i)};this.resume=s;this.resume()}function invoketimer(){timer=new RecurringTimer(function(){svg.setCurrentTime(0)},20800.0)}var svg=document.getElementById("kvg-09bd6");var pause=document.getElementById("pause-kvg-09bd6");var reset=document.getElementById("reset-kvg-09bd6");var timer;invoketimer();reset.onclick=function(){svg.setCurrentTime(0);timer.clear();svg.unpauseAnimations();pause.innerHTML = "◼";};pause.onclick=function(){if(svg.animationsPaused()){svg.unpauseAnimations();timer.resume();pause.innerHTML="◼"}else{svg.pauseAnimations();timer.pause();pause.innerHTML="▶"}}]]></script></svg>