<svg id="kvg-09c0a" class="kanjivg" width="106" height="126" xmlns="http://www.w3.org/2000/svg" xmlns:xlink="http://www.w3.org/1999/xlink" xml:space="preserve" version="1.1" baseProfile="full"><defs><style type="text/css"><![CDATA[path.black{fill:none;stroke:black;stroke-width:5;stroke-linecap:round;stroke-linejoin:round;}path.grey{fill:none;stroke:#ddd;stroke-width:5;stroke-linecap:round;stroke-linejoin:round;}path.stroke{fill:none;stroke:black;stroke-width:5;stroke-linecap:round;stroke-linejoin:round;}rect{fill:none;stroke:#555;stroke-width:2;} text{font-size:16px;font-family:Segoe UI Symbol,Cambria Math,DejaVu Sans,Symbola,Quivira,STIX,Code2000;-webkit-touch-callout:none;cursor:pointer;-webkit-user-select:none;-khtml-user-select:none;-moz-user-select:none;-ms-user-select:none;user-select: none;}text:hover{color:#777;}#reset{font-weight:bold;}]]></style><marker id="markerStart" markerWidth="8" markerHeight="8" style="overflow:visible;"><circle cx="0" cy="0" r="1.5" style="stroke:none;fill:red;fill-opacity:0.5;"/></marker><marker id="markerEnd" style="overflow:visible;"><circle cx="0" cy="0" r="0.8" style="stroke:none;fill:blue;fill-opacity:0.5;"><animate attributeName="opacity" from="1" to="0" dur="3s" repeatCount="indefinite" /></circle></marker></defs><rect x="4" y="4" width="100" height="100" /><path d="M24.49,14.25c0.04,0.56,0.09,1.45-0.08,2.26c-1,4.76-6.77,15.21-14.67,21.61" class="grey" /><path d="M23.39,21.38c1.93,0,13.32-1.94,15.35-2.23c1.74-0.25,2.13,2.17,1.41,3.4c-3.05,5.19-7.48,10.16-12.45,18.4" class="grey" /><path d="M12.72,42.39c0.21,0.46,0.72,1.77,0.84,2.35c0.97,4.72,2,19.14,2.6,27.95" class="grey" /><path d="M14.22,44.52c7.49-1.19,20.31-2.21,25.91-3.21c2.05-0.37,3.11,0.93,3,2.23c-0.39,4.76-1.19,17.76-2.84,26.67" class="grey" /><path d="M26.75,43.23c0.85,0.59,1.5,2.51,1.52,4.04c0.11,6.73,0.02,18.27,0.02,21.6" class="grey" /><path d="M16.09,56.23c2.44-0.46,23.88-2.37,25.9-2.56" class="grey" /><path d="M16.54,70.4c5.39-0.51,16.15-2.12,23.6-2.95" class="grey" /><path d="M12.57,81.32c0,5.32-1.66,13.16-2.09,14.68" class="grey" /><path d="M19.89,79.83c1.41,2.36,2.75,8.87,3.11,12.54" class="grey" /><path d="M27.77,77.19c1.95,2.2,5.04,9.04,5.53,12.46" class="grey" /><path d="M37.3,74.87c2.01,1.9,5.2,7.82,5.7,10.78" class="grey" /><path d="M49.08,29.07c1.04,0.4,2.81,0.77,4.6,0.58c10.82-1.15,26.62-3.25,34.54-3.97c1.95-0.18,3.79-0.04,5.53,0.31" class="grey" /><path d="M51.76,39.75c0.23,0.4,0.48,0.72,0.58,1.22c0.81,3.91,2.21,13.26,2.77,20.29" class="grey" /><path d="M52.64,41.97c7.05-1.57,32.97-4.11,35.72-4.48c1.72-0.23,3.11,1.81,2.84,3.99c-0.77,6.35-3.59,13.78-4.56,18.08" class="grey" /><path d="M59.22,45.46c2.17,1.51,5.62,6.22,6.16,8.57" class="grey" /><path d="M82.06,43.35c0.02,0.22,0.03,0.57-0.03,0.89c-0.35,1.88-2.35,6.02-5.09,8.55" class="grey" /><path d="M54.93,59.49c7.69-0.88,24.66-2.08,31.85-2.52" class="grey" /><path d="M69.26,13.75c0.81,0.5,1.3,2.25,1.47,3.25c0.16,1,0,74.25-0.16,80.5" class="grey" /><path d="M70.07,59.25c-4.5,9.98-14.32,24-25.57,29.75" class="grey" /><path d="M70.87,58.75C75.25,65,87.75,80,93.73,84.36c1.47,1.07,2.45,1.78,3.77,2.14" class="grey" /><path d="M24.49,14.25c0.04,0.56,0.09,1.45-0.08,2.26c-1,4.76-6.77,15.21-14.67,21.61" class="stroke" stroke-dasharray="150"><animate attributeName="stroke-dashoffset" from="150" to="0" dur="1.8s" begin="0.0s" fill="freeze" /></path><path d="M23.39,21.38c1.93,0,13.32-1.94,15.35-2.23c1.74-0.25,2.13,2.17,1.41,3.4c-3.05,5.19-7.48,10.16-12.45,18.4" class="stroke" stroke-dasharray="150"><set attributeName="opacity" to="0" dur="1.0s" /><animate attributeName="stroke-dashoffset" from="150" to="0" dur="1.8s" begin="1.0s" fill="freeze" /></path><path d="M12.72,42.39c0.21,0.46,0.72,1.77,0.84,2.35c0.97,4.72,2,19.14,2.6,27.95" class="stroke" stroke-dasharray="150"><set attributeName="opacity" to="0" dur="2.1s" /><animate attributeName="stroke-dashoffset" from="150" to="0" dur="1.8s" begin="2.1s" fill="freeze" /></path><path d="M14.22,44.52c7.49-1.19,20.31-2.21,25.91-3.21c2.05-0.37,3.11,0.93,3,2.23c-0.39,4.76-1.19,17.76-2.84,26.67" class="stroke" stroke-dasharray="150"><set attributeName="opacity" to="0" dur="3.1s" /><animate attributeName="stroke-dashoffset" from="150" to="0" dur="1.8s" begin="3.1s" fill="freeze" /></path><path d="M26.75,43.23c0.85,0.59,1.5,2.51,1.52,4.04c0.11,6.73,0.02,18.27,0.02,21.6" class="stroke" stroke-dasharray="150"><set attributeName="opacity" to="0" dur="4.5s" /><animate attributeName="stroke-dashoffset" from="150" to="0" dur="1.8s" begin="4.5s" fill="freeze" /></path><path d="M16.09,56.23c2.44-0.46,23.88-2.37,25.9-2.56" class="stroke" stroke-dasharray="150"><set attributeName="opacity" to="0" dur="5.5s" /><animate attributeName="stroke-dashoffset" from="150" to="0" dur="1.8s" begin="5.5s" fill="freeze" /></path><path d="M16.54,70.4c5.39-0.51,16.15-2.12,23.6-2.95" class="stroke" stroke-dasharray="150"><set attributeName="opacity" to="0" dur="6.5s" /><animate attributeName="stroke-dashoffset" from="150" to="0" dur="1.8s" begin="6.5s" fill="freeze" /></path><path d="M12.57,81.32c0,5.32-1.66,13.16-2.09,14.68" class="stroke" stroke-dasharray="150"><set attributeName="opacity" to="0" dur="7.5s" /><animate attributeName="stroke-dashoffset" from="150" to="0" dur="1.8s" begin="7.5s" fill="freeze" /></path><path d="M19.89,79.83c1.41,2.36,2.75,8.87,3.11,12.54" class="stroke" stroke-dasharray="150"><set attributeName="opacity" to="0" dur="8.4s" /><animate attributeName="stroke-dashoffset" from="150" to="0" dur="1.8s" begin="8.4s" fill="freeze" /></path><path d="M27.77,77.19c1.95,2.2,5.04,9.04,5.53,12.46" class="stroke" stroke-dasharray="150"><set attributeName="opacity" to="0" dur="9.3s" /><animate attributeName="stroke-dashoffset" from="150" to="0" dur="1.8s" begin="9.3s" fill="freeze" /></path><path d="M37.3,74.87c2.01,1.9,5.2,7.82,5.7,10.78" class="stroke" stroke-dasharray="150"><set attributeName="opacity" to="0" dur="10.200000000000001s" /><animate attributeName="stroke-dashoffset" from="150" to="0" dur="1.8s" begin="10.200000000000001s" fill="freeze" /></path><path d="M49.08,29.07c1.04,0.4,2.81,0.77,4.6,0.58c10.82-1.15,26.62-3.25,34.54-3.97c1.95-0.18,3.79-0.04,5.53,0.31" class="stroke" stroke-dasharray="150"><set attributeName="opacity" to="0" dur="11.100000000000001s" /><animate attributeName="stroke-dashoffset" from="150" to="0" dur="1.8s" begin="11.100000000000001s" fill="freeze" /></path><path d="M51.76,39.75c0.23,0.4,0.48,0.72,0.58,1.22c0.81,3.91,2.21,13.26,2.77,20.29" class="stroke" stroke-dasharray="150"><set attributeName="opacity" to="0" dur="12.3s" /><animate attributeName="stroke-dashoffset" from="150" to="0" dur="1.8s" begin="12.3s" fill="freeze" /></path><path d="M52.64,41.97c7.05-1.57,32.97-4.11,35.72-4.48c1.72-0.23,3.11,1.81,2.84,3.99c-0.77,6.35-3.59,13.78-4.56,18.08" class="stroke" stroke-dasharray="150"><set attributeName="opacity" to="0" dur="13.3s" /><animate attributeName="stroke-dashoffset" from="150" to="0" dur="1.8s" begin="13.3s" fill="freeze" /></path><path d="M59.22,45.46c2.17,1.51,5.62,6.22,6.16,8.57" class="stroke" stroke-dasharray="150"><set attributeName="opacity" to="0" dur="14.8s" /><animate attributeName="stroke-dashoffset" from="150" to="0" dur="1.8s" begin="14.8s" fill="freeze" /></path><path d="M82.06,43.35c0.02,0.22,0.03,0.57-0.03,0.89c-0.35,1.88-2.35,6.02-5.09,8.55" class="stroke" stroke-dasharray="150"><set attributeName="opacity" to="0" dur="15.700000000000001s" /><animate attributeName="stroke-dashoffset" from="150" to="0" dur="1.8s" begin="15.700000000000001s" fill="freeze" /></path><path d="M54.93,59.49c7.69-0.88,24.66-2.08,31.85-2.52" class="stroke" stroke-dasharray="150"><set attributeName="opacity" to="0" dur="16.6s" /><animate attributeName="stroke-dashoffset" from="150" to="0" dur="1.8s" begin="16.6s" fill="freeze" /></path><path d="M69.26,13.75c0.81,0.5,1.3,2.25,1.47,3.25c0.16,1,0,74.25-0.16,80.5" class="stroke" stroke-dasharray="150"><set attributeName="opacity" to="0" dur="17.6s" /><animate attributeName="stroke-dashoffset" from="150" to="0" dur="1.8s" begin="17.6s" fill="freeze" /></path><path d="M70.07,59.25c-4.5,9.98-14.32,24-25.57,29.75" class="stroke" stroke-dasharray="150"><set attributeName="opacity" to="0" dur="19.3s" /><animate attributeName="stroke-dashoffset" from="150" to="0" dur="1.8s" begin="19.3s" fill="freeze" /></path><path d="M70.87,58.75C75.25,65,87.75,80,93.73,84.36c1.47,1.07,2.45,1.78,3.77,2.14" class="stroke" stroke-dasharray="150"><set attributeName="opacity" to="0" dur="20.3s" /><animate attributeName="stroke-dashoffset" from="150" to="0" dur="1.8s" begin="20.3s" fill="freeze" /></path><text x="90" y="120" id="reset-kvg-09c0a">⟳</text><text x="70" y="120" id="pause-kvg-09c0a">◼</text><script type="text/javascript"><![CDATA[function RecurringTimer(e,t){var n,r,i=t;this.pause=function(){window.clearTimeout(n);i-=new Date-r};var s=function(){r=new Date;n=window.setTimeout(function(){i=t;s();e()},i)};this.clear=function(){window.clearTimeout(n);i=t;n=window.setTimeout(function(){i=t;s();e()},i)};this.resume=s;this.resume()}function invoketimer(){timer=new RecurringTimer(function(){svg.setCurrentTime(0)},22300.0)}var svg=document.getElementById("kvg-09c0a");var pause=document.getElementById("pause-kvg-09c0a");var reset=document.getElementById("reset-kvg-09c0a");var timer;invoketimer();reset.onclick=function(){svg.setCurrentTime(0);timer.clear();svg.unpauseAnimations();pause.innerHTML = "◼";};pause.onclick=function(){if(svg.animationsPaused()){svg.unpauseAnimations();timer.resume();pause.innerHTML="◼"}else{svg.pauseAnimations();timer.pause();pause.innerHTML="▶"}}]]></script></svg>