<svg id="kvg-09c13-Kaisho" class="kanjivg" width="106" height="126" xmlns="http://www.w3.org/2000/svg" xmlns:xlink="http://www.w3.org/1999/xlink" xml:space="preserve" version="1.1" baseProfile="full"><defs><style type="text/css"><![CDATA[path.black{fill:none;stroke:black;stroke-width:5;stroke-linecap:round;stroke-linejoin:round;}path.grey{fill:none;stroke:#ddd;stroke-width:5;stroke-linecap:round;stroke-linejoin:round;}path.stroke{fill:none;stroke:black;stroke-width:5;stroke-linecap:round;stroke-linejoin:round;}rect{fill:none;stroke:#555;stroke-width:2;} text{font-size:16px;font-family:Segoe UI Symbol,Cambria Math,DejaVu Sans,Symbola,Quivira,STIX,Code2000;-webkit-touch-callout:none;cursor:pointer;-webkit-user-select:none;-khtml-user-select:none;-moz-user-select:none;-ms-user-select:none;user-select: none;}text:hover{color:#777;}#reset{font-weight:bold;}]]></style><marker id="markerStart" markerWidth="8" markerHeight="8" style="overflow:visible;"><circle cx="0" cy="0" r="1.5" style="stroke:none;fill:red;fill-opacity:0.5;"/></marker><marker id="markerEnd" style="overflow:visible;"><circle cx="0" cy="0" r="0.8" style="stroke:none;fill:blue;fill-opacity:0.5;"><animate attributeName="opacity" from="1" to="0" dur="3s" repeatCount="indefinite" /></circle></marker></defs><rect x="4" y="4" width="100" height="100" /><path d="M26.49,13.75c0.04,0.55,0.26,1.48-0.09,2.21C23.5,22,18,29.75,10.74,37.12" class="grey" /><path d="M24.39,21.38c1.93,0,13.82-2.44,15.85-2.73c1.74-0.25,2.13,2.17,1.41,3.4c-3.05,5.19-6.48,10.16-11.45,18.4" class="grey" /><path d="M12.22,44.39c0.23,0.46,0.23,0.77,0.36,1.35c1.02,4.72,2.61,17.14,3.25,25.95" class="grey" /><path d="M13.28,46.02c7.92-1.19,21.01-3.71,26.92-4.71c2.17-0.37,3.29,0.93,3.17,2.23c-0.41,4.76-1.29,16.76-3.03,25.67" class="grey" /><path d="M26.56,45.23c0.9,0.59,1.58,2.51,1.61,4.04c0.12,6.73,0.03,15.27,0.03,18.6" class="grey" /><path d="M15.76,57.73c5.9-1.07,11.86-1.91,17.78-2.81c0.71-0.11,1.4-0.21,2.06-0.31" class="grey" /><path d="M16.23,69.9c5.71-0.51,16.61-2.62,24.49-3.45" class="grey" /><path d="M13.89,80.32c0,5.32-1.57,13.16-1.98,14.68" class="grey" /><path d="M21.51,80.83c1.19,2.36,2.32,8.87,2.62,12.54" class="grey" /><path d="M29.25,77.69c1.61,1.76,4.16,7.23,4.57,9.96" class="grey" /><path d="M38.8,75.12c1.66,1.86,4.28,7.64,4.7,10.53" class="grey" /><path d="M52.38,20.87c0.27,0.56,0.62,1.47,0.76,2.16c1.2,5.65,3.58,25.67,4.29,36.09" class="grey" /><path d="M53.31,22.3c14.44-1.3,28.35-2.77,35.48-3.33c2.62-0.2,3.26,3.06,3.12,4.57c-0.52,5.55-2.61,24.1-4.9,34.44" class="grey" /><path d="M71.06,22.05c0.34,0.81,0.65,2.09,0.64,3.52c-0.05,7.81,0.05,25.82,0.05,28.14" class="grey" /><path d="M55.94,37.85c3.11-0.27,31.7-3.04,34.27-3.04" class="grey" /><path d="M57.49,57.63c7.43-1.51,23.3-2.76,30.05-3.21" class="grey" /><path d="M52.44,78.42c0.31,2.01-3.08,10.87-5.54,14.21" class="grey" /><path d="M56.53,69.94c4.85,13.46,14.19,24.31,31.12,24.39c5.88,0.03,5.53-2.42,2.1-7.02" class="grey" /><path d="M72.88,73.14c1.24,1.9,3.8,5.17,4.58,2.48" class="grey" /><path d="M87.55,70.02c5.15,2.81,9.32,5.27,12.45,9.64" class="grey" /><path d="M26.49,13.75c0.04,0.55,0.26,1.48-0.09,2.21C23.5,22,18,29.75,10.74,37.12" class="stroke" stroke-dasharray="150"><animate attributeName="stroke-dashoffset" from="150" to="0" dur="1.8s" begin="0.0s" fill="freeze" /></path><path d="M24.39,21.38c1.93,0,13.82-2.44,15.85-2.73c1.74-0.25,2.13,2.17,1.41,3.4c-3.05,5.19-6.48,10.16-11.45,18.4" class="stroke" stroke-dasharray="150"><set attributeName="opacity" to="0" dur="1.0s" /><animate attributeName="stroke-dashoffset" from="150" to="0" dur="1.8s" begin="1.0s" fill="freeze" /></path><path d="M12.22,44.39c0.23,0.46,0.23,0.77,0.36,1.35c1.02,4.72,2.61,17.14,3.25,25.95" class="stroke" stroke-dasharray="150"><set attributeName="opacity" to="0" dur="2.1s" /><animate attributeName="stroke-dashoffset" from="150" to="0" dur="1.8s" begin="2.1s" fill="freeze" /></path><path d="M13.28,46.02c7.92-1.19,21.01-3.71,26.92-4.71c2.17-0.37,3.29,0.93,3.17,2.23c-0.41,4.76-1.29,16.76-3.03,25.67" class="stroke" stroke-dasharray="150"><set attributeName="opacity" to="0" dur="3.1s" /><animate attributeName="stroke-dashoffset" from="150" to="0" dur="1.8s" begin="3.1s" fill="freeze" /></path><path d="M26.56,45.23c0.9,0.59,1.58,2.51,1.61,4.04c0.12,6.73,0.03,15.27,0.03,18.6" class="stroke" stroke-dasharray="150"><set attributeName="opacity" to="0" dur="4.5s" /><animate attributeName="stroke-dashoffset" from="150" to="0" dur="1.8s" begin="4.5s" fill="freeze" /></path><path d="M15.76,57.73c5.9-1.07,11.86-1.91,17.78-2.81c0.71-0.11,1.4-0.21,2.06-0.31" class="stroke" stroke-dasharray="150"><set attributeName="opacity" to="0" dur="5.5s" /><animate attributeName="stroke-dashoffset" from="150" to="0" dur="1.8s" begin="5.5s" fill="freeze" /></path><path d="M16.23,69.9c5.71-0.51,16.61-2.62,24.49-3.45" class="stroke" stroke-dasharray="150"><set attributeName="opacity" to="0" dur="6.5s" /><animate attributeName="stroke-dashoffset" from="150" to="0" dur="1.8s" begin="6.5s" fill="freeze" /></path><path d="M13.89,80.32c0,5.32-1.57,13.16-1.98,14.68" class="stroke" stroke-dasharray="150"><set attributeName="opacity" to="0" dur="7.5s" /><animate attributeName="stroke-dashoffset" from="150" to="0" dur="1.8s" begin="7.5s" fill="freeze" /></path><path d="M21.51,80.83c1.19,2.36,2.32,8.87,2.62,12.54" class="stroke" stroke-dasharray="150"><set attributeName="opacity" to="0" dur="8.4s" /><animate attributeName="stroke-dashoffset" from="150" to="0" dur="1.8s" begin="8.4s" fill="freeze" /></path><path d="M29.25,77.69c1.61,1.76,4.16,7.23,4.57,9.96" class="stroke" stroke-dasharray="150"><set attributeName="opacity" to="0" dur="9.3s" /><animate attributeName="stroke-dashoffset" from="150" to="0" dur="1.8s" begin="9.3s" fill="freeze" /></path><path d="M38.8,75.12c1.66,1.86,4.28,7.64,4.7,10.53" class="stroke" stroke-dasharray="150"><set attributeName="opacity" to="0" dur="10.200000000000001s" /><animate attributeName="stroke-dashoffset" from="150" to="0" dur="1.8s" begin="10.200000000000001s" fill="freeze" /></path><path d="M52.38,20.87c0.27,0.56,0.62,1.47,0.76,2.16c1.2,5.65,3.58,25.67,4.29,36.09" class="stroke" stroke-dasharray="150"><set attributeName="opacity" to="0" dur="11.100000000000001s" /><animate attributeName="stroke-dashoffset" from="150" to="0" dur="1.8s" begin="11.100000000000001s" fill="freeze" /></path><path d="M53.31,22.3c14.44-1.3,28.35-2.77,35.48-3.33c2.62-0.2,3.26,3.06,3.12,4.57c-0.52,5.55-2.61,24.1-4.9,34.44" class="stroke" stroke-dasharray="150"><set attributeName="opacity" to="0" dur="12.100000000000001s" /><animate attributeName="stroke-dashoffset" from="150" to="0" dur="1.8s" begin="12.100000000000001s" fill="freeze" /></path><path d="M71.06,22.05c0.34,0.81,0.65,2.09,0.64,3.52c-0.05,7.81,0.05,25.82,0.05,28.14" class="stroke" stroke-dasharray="150"><set attributeName="opacity" to="0" dur="13.8s" /><animate attributeName="stroke-dashoffset" from="150" to="0" dur="1.8s" begin="13.8s" fill="freeze" /></path><path d="M55.94,37.85c3.11-0.27,31.7-3.04,34.27-3.04" class="stroke" stroke-dasharray="150"><set attributeName="opacity" to="0" dur="14.8s" /><animate attributeName="stroke-dashoffset" from="150" to="0" dur="1.8s" begin="14.8s" fill="freeze" /></path><path d="M57.49,57.63c7.43-1.51,23.3-2.76,30.05-3.21" class="stroke" stroke-dasharray="150"><set attributeName="opacity" to="0" dur="15.8s" /><animate attributeName="stroke-dashoffset" from="150" to="0" dur="1.8s" begin="15.8s" fill="freeze" /></path><path d="M52.44,78.42c0.31,2.01-3.08,10.87-5.54,14.21" class="stroke" stroke-dasharray="150"><set attributeName="opacity" to="0" dur="16.8s" /><animate attributeName="stroke-dashoffset" from="150" to="0" dur="1.8s" begin="16.8s" fill="freeze" /></path><path d="M56.53,69.94c4.85,13.46,14.19,24.31,31.12,24.39c5.88,0.03,5.53-2.42,2.1-7.02" class="stroke" stroke-dasharray="150"><set attributeName="opacity" to="0" dur="17.7s" /><animate attributeName="stroke-dashoffset" from="150" to="0" dur="1.8s" begin="17.7s" fill="freeze" /></path><path d="M72.88,73.14c1.24,1.9,3.8,5.17,4.58,2.48" class="stroke" stroke-dasharray="150"><set attributeName="opacity" to="0" dur="19.0s" /><animate attributeName="stroke-dashoffset" from="150" to="0" dur="1.8s" begin="19.0s" fill="freeze" /></path><path d="M87.55,70.02c5.15,2.81,9.32,5.27,12.45,9.64" class="stroke" stroke-dasharray="150"><set attributeName="opacity" to="0" dur="19.9s" /><animate attributeName="stroke-dashoffset" from="150" to="0" dur="1.8s" begin="19.9s" fill="freeze" /></path><text x="90" y="120" id="reset-kvg-09c13-Kaisho">⟳</text><text x="70" y="120" id="pause-kvg-09c13-Kaisho">◼</text><script type="text/javascript"><![CDATA[function RecurringTimer(e,t){var n,r,i=t;this.pause=function(){window.clearTimeout(n);i-=new Date-r};var s=function(){r=new Date;n=window.setTimeout(function(){i=t;s();e()},i)};this.clear=function(){window.clearTimeout(n);i=t;n=window.setTimeout(function(){i=t;s();e()},i)};this.resume=s;this.resume()}function invoketimer(){timer=new RecurringTimer(function(){svg.setCurrentTime(0)},21799.999999999996)}var svg=document.getElementById("kvg-09c13-Kaisho");var pause=document.getElementById("pause-kvg-09c13-Kaisho");var reset=document.getElementById("reset-kvg-09c13-Kaisho");var timer;invoketimer();reset.onclick=function(){svg.setCurrentTime(0);timer.clear();svg.unpauseAnimations();pause.innerHTML = "◼";};pause.onclick=function(){if(svg.animationsPaused()){svg.unpauseAnimations();timer.resume();pause.innerHTML="◼"}else{svg.pauseAnimations();timer.pause();pause.innerHTML="▶"}}]]></script></svg>