<svg id="kvg-09c24" class="kanjivg" width="106" height="126" xmlns="http://www.w3.org/2000/svg" xmlns:xlink="http://www.w3.org/1999/xlink" xml:space="preserve" version="1.1" baseProfile="full"><defs><style type="text/css"><![CDATA[path.black{fill:none;stroke:black;stroke-width:5;stroke-linecap:round;stroke-linejoin:round;}path.grey{fill:none;stroke:#ddd;stroke-width:5;stroke-linecap:round;stroke-linejoin:round;}path.stroke{fill:none;stroke:black;stroke-width:5;stroke-linecap:round;stroke-linejoin:round;}rect{fill:none;stroke:#555;stroke-width:2;} text{font-size:16px;font-family:Segoe UI Symbol,Cambria Math,DejaVu Sans,Symbola,Quivira,STIX,Code2000;-webkit-touch-callout:none;cursor:pointer;-webkit-user-select:none;-khtml-user-select:none;-moz-user-select:none;-ms-user-select:none;user-select: none;}text:hover{color:#777;}#reset{font-weight:bold;}]]></style><marker id="markerStart" markerWidth="8" markerHeight="8" style="overflow:visible;"><circle cx="0" cy="0" r="1.5" style="stroke:none;fill:red;fill-opacity:0.5;"/></marker><marker id="markerEnd" style="overflow:visible;"><circle cx="0" cy="0" r="0.8" style="stroke:none;fill:blue;fill-opacity:0.5;"><animate attributeName="opacity" from="1" to="0" dur="3s" repeatCount="indefinite" /></circle></marker></defs><rect x="4" y="4" width="100" height="100" /><path d="M23.5,11.75c0.04,0.56,0.08,1.45-0.08,2.26c-0.94,4.76-6.31,15.21-13.68,21.61" class="grey" /><path d="M22.39,19.88c1.93,0,13.82-2.44,15.85-2.73c1.74-0.25,3.13,1.17,2.41,2.4c-3.05,5.19-7.48,11.66-12.45,19.9" class="grey" /><path d="M12.72,41.15c0.23,0.49,0.23,0.83,0.36,1.44c1.02,5.07,2.61,18.39,3.25,27.84" class="grey" /><path d="M13.78,42.91c7.92-1.28,20.51-3.02,26.42-4.08c2.17-0.39,3.29,1,3.17,2.39c-0.41,5.11-1.29,17.01-3.03,26.58" class="grey" /><path d="M27.06,40.94c0.9,0.64,1.58,2.69,1.61,4.33c0.12,7.22,0.03,17.45,0.03,21.03" class="grey" /><path d="M15.76,54.93c2.58-0.5,23.76-3.15,25.89-3.36" class="grey" /><path d="M16.73,67.99c5.71-0.54,16.11-1.31,23.99-2.2" class="grey" /><path d="M13.02,78.32c0,5.32-2.18,13.16-2.74,14.68" class="grey" /><path d="M20.39,77.83c1.42,2.36,2.76,8.87,3.11,12.54" class="grey" /><path d="M29.75,76.94c1.61,2.07,4.16,8.5,4.57,11.71" class="grey" /><path d="M38.55,75.37c2.1,1.9,5.42,7.82,5.95,10.78" class="grey" /><path d="M63.96,15.39c0.02,0.27,0.09,0.71-0.05,1.07c-1.32,3.5-4.05,6.93-8.47,10.7" class="grey" /><path d="M51.29,27.66c0.63,0.46,1.01,2.06,1.13,2.97c0.13,0.91,0,54.66-0.13,60.37" class="grey" /><path d="M52.65,31.63c4.23-1.06,11.07-2.45,13.25-2.81c0.8-0.13,1.78,1.32,1.66,2.09c-0.47,3.18-1.72,10.39-2.53,16.84" class="grey" /><path d="M52.74,50.66c6.9-1.11,10.13-1.15,13.38-1.56" class="grey" /><path d="M52.7,63.15c4.78-1.25,9.63-2.4,12.1-2.82c0.9-0.15,1.44,1.56,1.31,2.47c-0.53,3.76-2.14,14.96-3.29,20.38" class="grey" /><path d="M52.66,84.62c2.9-0.48,9.46-0.5,13.13-0.98" class="grey" /><path d="M70.16,19.89c0.84,0.35,2.39,0.39,3.24,0.35c8.2-0.43,16.36-2.12,22.89-2.31c1.41-0.04,2.25,0.17,2.96,0.34" class="grey" /><path d="M71.76,39.41c0.31,0.36,0.97,2.71,1.04,3.43c0.06,0.72-0.04,30.37-0.1,34.89" class="grey" /><path d="M72.58,40.7c1.96-0.25,19.82-2.63,21.28-2.83c2.64-0.37,3.02,1.13,3.02,4.33c0,8.31-0.28,20.29-0.28,28.98c0,8.57-5.25,3.06-5.9,1.79" class="grey" /><path d="M83.13,20.38c0.32,0.4,0.98,3.01,1.05,3.82s-0.04,67.16-0.1,72.18" class="grey" /><path d="M23.5,11.75c0.04,0.56,0.08,1.45-0.08,2.26c-0.94,4.76-6.31,15.21-13.68,21.61" class="stroke" stroke-dasharray="150"><animate attributeName="stroke-dashoffset" from="150" to="0" dur="1.8s" begin="0.0s" fill="freeze" /></path><path d="M22.39,19.88c1.93,0,13.82-2.44,15.85-2.73c1.74-0.25,3.13,1.17,2.41,2.4c-3.05,5.19-7.48,11.66-12.45,19.9" class="stroke" stroke-dasharray="150"><set attributeName="opacity" to="0" dur="1.0s" /><animate attributeName="stroke-dashoffset" from="150" to="0" dur="1.8s" begin="1.0s" fill="freeze" /></path><path d="M12.72,41.15c0.23,0.49,0.23,0.83,0.36,1.44c1.02,5.07,2.61,18.39,3.25,27.84" class="stroke" stroke-dasharray="150"><set attributeName="opacity" to="0" dur="2.1s" /><animate attributeName="stroke-dashoffset" from="150" to="0" dur="1.8s" begin="2.1s" fill="freeze" /></path><path d="M13.78,42.91c7.92-1.28,20.51-3.02,26.42-4.08c2.17-0.39,3.29,1,3.17,2.39c-0.41,5.11-1.29,17.01-3.03,26.58" class="stroke" stroke-dasharray="150"><set attributeName="opacity" to="0" dur="3.1s" /><animate attributeName="stroke-dashoffset" from="150" to="0" dur="1.8s" begin="3.1s" fill="freeze" /></path><path d="M27.06,40.94c0.9,0.64,1.58,2.69,1.61,4.33c0.12,7.22,0.03,17.45,0.03,21.03" class="stroke" stroke-dasharray="150"><set attributeName="opacity" to="0" dur="4.5s" /><animate attributeName="stroke-dashoffset" from="150" to="0" dur="1.8s" begin="4.5s" fill="freeze" /></path><path d="M15.76,54.93c2.58-0.5,23.76-3.15,25.89-3.36" class="stroke" stroke-dasharray="150"><set attributeName="opacity" to="0" dur="5.5s" /><animate attributeName="stroke-dashoffset" from="150" to="0" dur="1.8s" begin="5.5s" fill="freeze" /></path><path d="M16.73,67.99c5.71-0.54,16.11-1.31,23.99-2.2" class="stroke" stroke-dasharray="150"><set attributeName="opacity" to="0" dur="6.5s" /><animate attributeName="stroke-dashoffset" from="150" to="0" dur="1.8s" begin="6.5s" fill="freeze" /></path><path d="M13.02,78.32c0,5.32-2.18,13.16-2.74,14.68" class="stroke" stroke-dasharray="150"><set attributeName="opacity" to="0" dur="7.5s" /><animate attributeName="stroke-dashoffset" from="150" to="0" dur="1.8s" begin="7.5s" fill="freeze" /></path><path d="M20.39,77.83c1.42,2.36,2.76,8.87,3.11,12.54" class="stroke" stroke-dasharray="150"><set attributeName="opacity" to="0" dur="8.4s" /><animate attributeName="stroke-dashoffset" from="150" to="0" dur="1.8s" begin="8.4s" fill="freeze" /></path><path d="M29.75,76.94c1.61,2.07,4.16,8.5,4.57,11.71" class="stroke" stroke-dasharray="150"><set attributeName="opacity" to="0" dur="9.3s" /><animate attributeName="stroke-dashoffset" from="150" to="0" dur="1.8s" begin="9.3s" fill="freeze" /></path><path d="M38.55,75.37c2.1,1.9,5.42,7.82,5.95,10.78" class="stroke" stroke-dasharray="150"><set attributeName="opacity" to="0" dur="10.200000000000001s" /><animate attributeName="stroke-dashoffset" from="150" to="0" dur="1.8s" begin="10.200000000000001s" fill="freeze" /></path><path d="M63.96,15.39c0.02,0.27,0.09,0.71-0.05,1.07c-1.32,3.5-4.05,6.93-8.47,10.7" class="stroke" stroke-dasharray="150"><set attributeName="opacity" to="0" dur="11.100000000000001s" /><animate attributeName="stroke-dashoffset" from="150" to="0" dur="1.8s" begin="11.100000000000001s" fill="freeze" /></path><path d="M51.29,27.66c0.63,0.46,1.01,2.06,1.13,2.97c0.13,0.91,0,54.66-0.13,60.37" class="stroke" stroke-dasharray="150"><set attributeName="opacity" to="0" dur="12.000000000000002s" /><animate attributeName="stroke-dashoffset" from="150" to="0" dur="1.8s" begin="12.000000000000002s" fill="freeze" /></path><path d="M52.65,31.63c4.23-1.06,11.07-2.45,13.25-2.81c0.8-0.13,1.78,1.32,1.66,2.09c-0.47,3.18-1.72,10.39-2.53,16.84" class="stroke" stroke-dasharray="150"><set attributeName="opacity" to="0" dur="13.500000000000002s" /><animate attributeName="stroke-dashoffset" from="150" to="0" dur="1.8s" begin="13.500000000000002s" fill="freeze" /></path><path d="M52.74,50.66c6.9-1.11,10.13-1.15,13.38-1.56" class="stroke" stroke-dasharray="150"><set attributeName="opacity" to="0" dur="14.500000000000002s" /><animate attributeName="stroke-dashoffset" from="150" to="0" dur="1.8s" begin="14.500000000000002s" fill="freeze" /></path><path d="M52.7,63.15c4.78-1.25,9.63-2.4,12.1-2.82c0.9-0.15,1.44,1.56,1.31,2.47c-0.53,3.76-2.14,14.96-3.29,20.38" class="stroke" stroke-dasharray="150"><set attributeName="opacity" to="0" dur="15.400000000000002s" /><animate attributeName="stroke-dashoffset" from="150" to="0" dur="1.8s" begin="15.400000000000002s" fill="freeze" /></path><path d="M52.66,84.62c2.9-0.48,9.46-0.5,13.13-0.98" class="stroke" stroke-dasharray="150"><set attributeName="opacity" to="0" dur="16.400000000000002s" /><animate attributeName="stroke-dashoffset" from="150" to="0" dur="1.8s" begin="16.400000000000002s" fill="freeze" /></path><path d="M70.16,19.89c0.84,0.35,2.39,0.39,3.24,0.35c8.2-0.43,16.36-2.12,22.89-2.31c1.41-0.04,2.25,0.17,2.96,0.34" class="stroke" stroke-dasharray="150"><set attributeName="opacity" to="0" dur="17.3s" /><animate attributeName="stroke-dashoffset" from="150" to="0" dur="1.8s" begin="17.3s" fill="freeze" /></path><path d="M71.76,39.41c0.31,0.36,0.97,2.71,1.04,3.43c0.06,0.72-0.04,30.37-0.1,34.89" class="stroke" stroke-dasharray="150"><set attributeName="opacity" to="0" dur="18.3s" /><animate attributeName="stroke-dashoffset" from="150" to="0" dur="1.8s" begin="18.3s" fill="freeze" /></path><path d="M72.58,40.7c1.96-0.25,19.82-2.63,21.28-2.83c2.64-0.37,3.02,1.13,3.02,4.33c0,8.31-0.28,20.29-0.28,28.98c0,8.57-5.25,3.06-5.9,1.79" class="stroke" stroke-dasharray="150"><set attributeName="opacity" to="0" dur="19.3s" /><animate attributeName="stroke-dashoffset" from="150" to="0" dur="1.8s" begin="19.3s" fill="freeze" /></path><path d="M83.13,20.38c0.32,0.4,0.98,3.01,1.05,3.82s-0.04,67.16-0.1,72.18" class="stroke" stroke-dasharray="150"><set attributeName="opacity" to="0" dur="20.8s" /><animate attributeName="stroke-dashoffset" from="150" to="0" dur="1.8s" begin="20.8s" fill="freeze" /></path><text x="90" y="120" id="reset-kvg-09c24">⟳</text><text x="70" y="120" id="pause-kvg-09c24">◼</text><script type="text/javascript"><![CDATA[function RecurringTimer(e,t){var n,r,i=t;this.pause=function(){window.clearTimeout(n);i-=new Date-r};var s=function(){r=new Date;n=window.setTimeout(function(){i=t;s();e()},i)};this.clear=function(){window.clearTimeout(n);i=t;n=window.setTimeout(function(){i=t;s();e()},i)};this.resume=s;this.resume()}function invoketimer(){timer=new RecurringTimer(function(){svg.setCurrentTime(0)},23500.0)}var svg=document.getElementById("kvg-09c24");var pause=document.getElementById("pause-kvg-09c24");var reset=document.getElementById("reset-kvg-09c24");var timer;invoketimer();reset.onclick=function(){svg.setCurrentTime(0);timer.clear();svg.unpauseAnimations();pause.innerHTML = "◼";};pause.onclick=function(){if(svg.animationsPaused()){svg.unpauseAnimations();timer.resume();pause.innerHTML="◼"}else{svg.pauseAnimations();timer.pause();pause.innerHTML="▶"}}]]></script></svg>