<svg id="kvg-09c76-Kaisho" class="kanjivg" width="106" height="126" xmlns="http://www.w3.org/2000/svg" xmlns:xlink="http://www.w3.org/1999/xlink" xml:space="preserve" version="1.1" baseProfile="full"><defs><style type="text/css"><![CDATA[path.black{fill:none;stroke:black;stroke-width:5;stroke-linecap:round;stroke-linejoin:round;}path.grey{fill:none;stroke:#ddd;stroke-width:5;stroke-linecap:round;stroke-linejoin:round;}path.stroke{fill:none;stroke:black;stroke-width:5;stroke-linecap:round;stroke-linejoin:round;}rect{fill:none;stroke:#555;stroke-width:2;} text{font-size:16px;font-family:Segoe UI Symbol,Cambria Math,DejaVu Sans,Symbola,Quivira,STIX,Code2000;-webkit-touch-callout:none;cursor:pointer;-webkit-user-select:none;-khtml-user-select:none;-moz-user-select:none;-ms-user-select:none;user-select: none;}text:hover{color:#777;}#reset{font-weight:bold;}]]></style><marker id="markerStart" markerWidth="8" markerHeight="8" style="overflow:visible;"><circle cx="0" cy="0" r="1.5" style="stroke:none;fill:red;fill-opacity:0.5;"/></marker><marker id="markerEnd" style="overflow:visible;"><circle cx="0" cy="0" r="0.8" style="stroke:none;fill:blue;fill-opacity:0.5;"><animate attributeName="opacity" from="1" to="0" dur="3s" repeatCount="indefinite" /></circle></marker></defs><rect x="4" y="4" width="100" height="100" /><path d="M23.5,13c0.04,0.59,0.08,1.53-0.07,2.38c-0.87,5.01-5.86,16.01-12.69,22.74" class="grey" /><path d="M20.89,23.38c4.86-0.63,12.61-1.88,16.85-4.23c1.53-0.85,2.13,2.17,1.41,3.4c-3.05,5.19-5.98,10.16-10.95,18.4" class="grey" /><path d="M12.22,42.18c0.22,0.49,0.22,0.82,0.34,1.43c0.98,5.01,2.01,18.06,2.62,27.3" class="grey" /><path d="M13.73,43.98c7.55-0.59,20.98-2.59,26.62-3.15c2.07-0.21,3.13,1.24,3.03,2.58c-0.39,4.93-1.21,16.36-2.87,25.52" class="grey" /><path d="M26.37,42.71c0.86,0.69,1.51,2.75,1.54,4.34c0.11,7.03,0.02,16.97,0.02,20.45" class="grey" /><path d="M15.12,55.83c5.84-0.67,11.74-0.99,17.61-1.43c0.7-0.05,1.39-0.1,2.05-0.15" class="grey" /><path d="M15.57,68.57c5.44-0.06,16.79-1.3,24.3-1.51" class="grey" /><path d="M12.1,80.32c0,5.14-1.91,12.71-2.4,14.18" class="grey" /><path d="M20.26,79.83c0.96,2.65,1.88,9.93,2.12,14.04" class="grey" /><path d="M29.79,78.69c1.76,2.29,4.54,9.41,4.98,12.96" class="grey" /><path d="M39.05,76.87c2.1,2.17,5.42,8.91,5.95,12.28" class="grey" /><path d="M55.36,13.36c2.44,1.71,6.29,7.04,6.9,9.7" class="grey" /><path d="M79.87,11.89c0.01,0.23,0.03,0.6-0.03,0.93c-0.34,1.96-2.31,6.26-5.01,8.89" class="grey" /><path d="M50.39,25.1c0.76,0.16,2.16,0.21,2.92,0.16c7.35-0.45,26.34-2.2,34.28-2.77c1.26-0.09,2.03,0.08,2.67,0.16" class="grey" /><path d="M68.14,26.78c0.71,0.42,1.13,1.88,1.27,2.71c0.14,0.83,0,8.64-0.14,13.85" class="grey" /><path d="M52.15,35.24c0.67,0.19,1.89,0.26,2.55,0.19c5.03-0.5,23.64-1.96,30.99-2.54c1.1-0.09,1.78,0.09,2.33,0.19" class="grey" /><path d="M46.59,44.82c0.88,0.23,2.51,0.31,3.39,0.23c6.26-0.6,33.55-2.69,43.49-3.19c1.47-0.07,2.35,0.11,3.09,0.22" class="grey" /><path d="M59.8,44.78c0.04,0.48,0.16,1.27-0.08,1.91c-2.04,5.31-8.11,13.74-14.46,18.32" class="grey" /><path d="M77.5,44.89c3.06,2.55,13.47,13.54,16.2,15.86c0.93,0.79,2.12,1.13,3.04,1.35" class="grey" /><path d="M67.65,51.56c1.54,1.09,1.85,2.19,3.14,3.55" class="grey" /><path d="M59.67,60.64c1.81-0.07,18.15-2.52,19.8-2.6c1.37-0.07,2.23,0.52,2.15,2.03c-0.18,3.16-2.1,14.84-2.1,15.24" class="grey" /><path d="M59.99,67.92c3.3,0,6.71-0.73,9.97-1.16c1.1-0.14,2.2-0.29,3.25-0.42" class="grey" /><path d="M59.88,75.73c4.97-0.29,12.7-1.95,18.89-2.19" class="grey" /><path d="M57.73,59.79c0.9,0.35,1.44,1.58,1.62,2.29c0.18,0.7,0.18,29.88,0.18,31.64c0,2.58-0.77,5.06,1.39,3.83c2.16-1.23,8.8-6.12,10.6-7.7" class="grey" /><path d="M85.62,75.33c0.18,0.88,0.12,2.38-0.49,2.91c-2.09,1.78-4.81,4.22-6.44,5.46" class="grey" /><path d="M68.04,78.59c3.11,0,19.4,15.92,21.94,17.1c3.66,1.71,4.21,1.71,6.03,2.09" class="grey" /><path d="M23.5,13c0.04,0.59,0.08,1.53-0.07,2.38c-0.87,5.01-5.86,16.01-12.69,22.74" class="stroke" stroke-dasharray="150"><animate attributeName="stroke-dashoffset" from="150" to="0" dur="1.8s" begin="0.0s" fill="freeze" /></path><path d="M20.89,23.38c4.86-0.63,12.61-1.88,16.85-4.23c1.53-0.85,2.13,2.17,1.41,3.4c-3.05,5.19-5.98,10.16-10.95,18.4" class="stroke" stroke-dasharray="150"><set attributeName="opacity" to="0" dur="1.0s" /><animate attributeName="stroke-dashoffset" from="150" to="0" dur="1.8s" begin="1.0s" fill="freeze" /></path><path d="M12.22,42.18c0.22,0.49,0.22,0.82,0.34,1.43c0.98,5.01,2.01,18.06,2.62,27.3" class="stroke" stroke-dasharray="150"><set attributeName="opacity" to="0" dur="2.1s" /><animate attributeName="stroke-dashoffset" from="150" to="0" dur="1.8s" begin="2.1s" fill="freeze" /></path><path d="M13.73,43.98c7.55-0.59,20.98-2.59,26.62-3.15c2.07-0.21,3.13,1.24,3.03,2.58c-0.39,4.93-1.21,16.36-2.87,25.52" class="stroke" stroke-dasharray="150"><set attributeName="opacity" to="0" dur="3.1s" /><animate attributeName="stroke-dashoffset" from="150" to="0" dur="1.8s" begin="3.1s" fill="freeze" /></path><path d="M26.37,42.71c0.86,0.69,1.51,2.75,1.54,4.34c0.11,7.03,0.02,16.97,0.02,20.45" class="stroke" stroke-dasharray="150"><set attributeName="opacity" to="0" dur="4.5s" /><animate attributeName="stroke-dashoffset" from="150" to="0" dur="1.8s" begin="4.5s" fill="freeze" /></path><path d="M15.12,55.83c5.84-0.67,11.74-0.99,17.61-1.43c0.7-0.05,1.39-0.1,2.05-0.15" class="stroke" stroke-dasharray="150"><set attributeName="opacity" to="0" dur="5.5s" /><animate attributeName="stroke-dashoffset" from="150" to="0" dur="1.8s" begin="5.5s" fill="freeze" /></path><path d="M15.57,68.57c5.44-0.06,16.79-1.3,24.3-1.51" class="stroke" stroke-dasharray="150"><set attributeName="opacity" to="0" dur="6.4s" /><animate attributeName="stroke-dashoffset" from="150" to="0" dur="1.8s" begin="6.4s" fill="freeze" /></path><path d="M12.1,80.32c0,5.14-1.91,12.71-2.4,14.18" class="stroke" stroke-dasharray="150"><set attributeName="opacity" to="0" dur="7.4s" /><animate attributeName="stroke-dashoffset" from="150" to="0" dur="1.8s" begin="7.4s" fill="freeze" /></path><path d="M20.26,79.83c0.96,2.65,1.88,9.93,2.12,14.04" class="stroke" stroke-dasharray="150"><set attributeName="opacity" to="0" dur="8.3s" /><animate attributeName="stroke-dashoffset" from="150" to="0" dur="1.8s" begin="8.3s" fill="freeze" /></path><path d="M29.79,78.69c1.76,2.29,4.54,9.41,4.98,12.96" class="stroke" stroke-dasharray="150"><set attributeName="opacity" to="0" dur="9.200000000000001s" /><animate attributeName="stroke-dashoffset" from="150" to="0" dur="1.8s" begin="9.200000000000001s" fill="freeze" /></path><path d="M39.05,76.87c2.1,2.17,5.42,8.91,5.95,12.28" class="stroke" stroke-dasharray="150"><set attributeName="opacity" to="0" dur="10.100000000000001s" /><animate attributeName="stroke-dashoffset" from="150" to="0" dur="1.8s" begin="10.100000000000001s" fill="freeze" /></path><path d="M55.36,13.36c2.44,1.71,6.29,7.04,6.9,9.7" class="stroke" stroke-dasharray="150"><set attributeName="opacity" to="0" dur="11.000000000000002s" /><animate attributeName="stroke-dashoffset" from="150" to="0" dur="1.8s" begin="11.000000000000002s" fill="freeze" /></path><path d="M79.87,11.89c0.01,0.23,0.03,0.6-0.03,0.93c-0.34,1.96-2.31,6.26-5.01,8.89" class="stroke" stroke-dasharray="150"><set attributeName="opacity" to="0" dur="11.900000000000002s" /><animate attributeName="stroke-dashoffset" from="150" to="0" dur="1.8s" begin="11.900000000000002s" fill="freeze" /></path><path d="M50.39,25.1c0.76,0.16,2.16,0.21,2.92,0.16c7.35-0.45,26.34-2.2,34.28-2.77c1.26-0.09,2.03,0.08,2.67,0.16" class="stroke" stroke-dasharray="150"><set attributeName="opacity" to="0" dur="12.800000000000002s" /><animate attributeName="stroke-dashoffset" from="150" to="0" dur="1.8s" begin="12.800000000000002s" fill="freeze" /></path><path d="M68.14,26.78c0.71,0.42,1.13,1.88,1.27,2.71c0.14,0.83,0,8.64-0.14,13.85" class="stroke" stroke-dasharray="150"><set attributeName="opacity" to="0" dur="13.900000000000002s" /><animate attributeName="stroke-dashoffset" from="150" to="0" dur="1.8s" begin="13.900000000000002s" fill="freeze" /></path><path d="M52.15,35.24c0.67,0.19,1.89,0.26,2.55,0.19c5.03-0.5,23.64-1.96,30.99-2.54c1.1-0.09,1.78,0.09,2.33,0.19" class="stroke" stroke-dasharray="150"><set attributeName="opacity" to="0" dur="14.800000000000002s" /><animate attributeName="stroke-dashoffset" from="150" to="0" dur="1.8s" begin="14.800000000000002s" fill="freeze" /></path><path d="M46.59,44.82c0.88,0.23,2.51,0.31,3.39,0.23c6.26-0.6,33.55-2.69,43.49-3.19c1.47-0.07,2.35,0.11,3.09,0.22" class="stroke" stroke-dasharray="150"><set attributeName="opacity" to="0" dur="15.800000000000002s" /><animate attributeName="stroke-dashoffset" from="150" to="0" dur="1.8s" begin="15.800000000000002s" fill="freeze" /></path><path d="M59.8,44.78c0.04,0.48,0.16,1.27-0.08,1.91c-2.04,5.31-8.11,13.74-14.46,18.32" class="stroke" stroke-dasharray="150"><set attributeName="opacity" to="0" dur="17.1s" /><animate attributeName="stroke-dashoffset" from="150" to="0" dur="1.8s" begin="17.1s" fill="freeze" /></path><path d="M77.5,44.89c3.06,2.55,13.47,13.54,16.2,15.86c0.93,0.79,2.12,1.13,3.04,1.35" class="stroke" stroke-dasharray="150"><set attributeName="opacity" to="0" dur="18.1s" /><animate attributeName="stroke-dashoffset" from="150" to="0" dur="1.8s" begin="18.1s" fill="freeze" /></path><path d="M67.65,51.56c1.54,1.09,1.85,2.19,3.14,3.55" class="stroke" stroke-dasharray="150"><set attributeName="opacity" to="0" dur="19.1s" /><animate attributeName="stroke-dashoffset" from="150" to="0" dur="1.8s" begin="19.1s" fill="freeze" /></path><path d="M59.67,60.64c1.81-0.07,18.15-2.52,19.8-2.6c1.37-0.07,2.23,0.52,2.15,2.03c-0.18,3.16-2.1,14.84-2.1,15.24" class="stroke" stroke-dasharray="150"><set attributeName="opacity" to="0" dur="20.0s" /><animate attributeName="stroke-dashoffset" from="150" to="0" dur="1.8s" begin="20.0s" fill="freeze" /></path><path d="M59.99,67.92c3.3,0,6.71-0.73,9.97-1.16c1.1-0.14,2.2-0.29,3.25-0.42" class="stroke" stroke-dasharray="150"><set attributeName="opacity" to="0" dur="21.0s" /><animate attributeName="stroke-dashoffset" from="150" to="0" dur="1.8s" begin="21.0s" fill="freeze" /></path><path d="M59.88,75.73c4.97-0.29,12.7-1.95,18.89-2.19" class="stroke" stroke-dasharray="150"><set attributeName="opacity" to="0" dur="21.9s" /><animate attributeName="stroke-dashoffset" from="150" to="0" dur="1.8s" begin="21.9s" fill="freeze" /></path><path d="M57.73,59.79c0.9,0.35,1.44,1.58,1.62,2.29c0.18,0.7,0.18,29.88,0.18,31.64c0,2.58-0.77,5.06,1.39,3.83c2.16-1.23,8.8-6.12,10.6-7.7" class="stroke" stroke-dasharray="150"><set attributeName="opacity" to="0" dur="22.799999999999997s" /><animate attributeName="stroke-dashoffset" from="150" to="0" dur="1.8s" begin="22.799999999999997s" fill="freeze" /></path><path d="M85.62,75.33c0.18,0.88,0.12,2.38-0.49,2.91c-2.09,1.78-4.81,4.22-6.44,5.46" class="stroke" stroke-dasharray="150"><set attributeName="opacity" to="0" dur="24.099999999999998s" /><animate attributeName="stroke-dashoffset" from="150" to="0" dur="1.8s" begin="24.099999999999998s" fill="freeze" /></path><path d="M68.04,78.59c3.11,0,19.4,15.92,21.94,17.1c3.66,1.71,4.21,1.71,6.03,2.09" class="stroke" stroke-dasharray="150"><set attributeName="opacity" to="0" dur="24.999999999999996s" /><animate attributeName="stroke-dashoffset" from="150" to="0" dur="1.8s" begin="24.999999999999996s" fill="freeze" /></path><text x="90" y="120" id="reset-kvg-09c76-Kaisho">⟳</text><text x="70" y="120" id="pause-kvg-09c76-Kaisho">◼</text><script type="text/javascript"><![CDATA[function RecurringTimer(e,t){var n,r,i=t;this.pause=function(){window.clearTimeout(n);i-=new Date-r};var s=function(){r=new Date;n=window.setTimeout(function(){i=t;s();e()},i)};this.clear=function(){window.clearTimeout(n);i=t;n=window.setTimeout(function(){i=t;s();e()},i)};this.resume=s;this.resume()}function invoketimer(){timer=new RecurringTimer(function(){svg.setCurrentTime(0)},26999.999999999996)}var svg=document.getElementById("kvg-09c76-Kaisho");var pause=document.getElementById("pause-kvg-09c76-Kaisho");var reset=document.getElementById("reset-kvg-09c76-Kaisho");var timer;invoketimer();reset.onclick=function(){svg.setCurrentTime(0);timer.clear();svg.unpauseAnimations();pause.innerHTML = "◼";};pause.onclick=function(){if(svg.animationsPaused()){svg.unpauseAnimations();timer.resume();pause.innerHTML="◼"}else{svg.pauseAnimations();timer.pause();pause.innerHTML="▶"}}]]></script></svg>