<svg id="kvg-09cf4" class="kanjivg" width="106" height="126" xmlns="http://www.w3.org/2000/svg" xmlns:xlink="http://www.w3.org/1999/xlink" xml:space="preserve" version="1.1" baseProfile="full"><defs><style type="text/css"><![CDATA[path.black{fill:none;stroke:black;stroke-width:5;stroke-linecap:round;stroke-linejoin:round;}path.grey{fill:none;stroke:#ddd;stroke-width:5;stroke-linecap:round;stroke-linejoin:round;}path.stroke{fill:none;stroke:black;stroke-width:5;stroke-linecap:round;stroke-linejoin:round;}rect{fill:none;stroke:#555;stroke-width:2;} text{font-size:16px;font-family:Segoe UI Symbol,Cambria Math,DejaVu Sans,Symbola,Quivira,STIX,Code2000;-webkit-touch-callout:none;cursor:pointer;-webkit-user-select:none;-khtml-user-select:none;-moz-user-select:none;-ms-user-select:none;user-select: none;}text:hover{color:#777;}#reset{font-weight:bold;}]]></style><marker id="markerStart" markerWidth="8" markerHeight="8" style="overflow:visible;"><circle cx="0" cy="0" r="1.5" style="stroke:none;fill:red;fill-opacity:0.5;"/></marker><marker id="markerEnd" style="overflow:visible;"><circle cx="0" cy="0" r="0.8" style="stroke:none;fill:blue;fill-opacity:0.5;"><animate attributeName="opacity" from="1" to="0" dur="3s" repeatCount="indefinite" /></circle></marker></defs><rect x="4" y="4" width="100" height="100" /><path d="M13.17,38.73c0.93,0.93,1.5,1.9,1.62,2.77c0.92,3.74,1.68,10.13,2.44,16.01c0.18,1.37,0.34,2.72,0.48,4" class="grey" /><path d="M15.29,40.19c6.83-1.31,15.8-3.06,19.14-3.7c1.94-0.37,3.32,1.01,2.9,3.16c-0.89,4.51-1.58,8.97-3.28,15.48" class="grey" /><path d="M17.86,58.94c3.8-0.48,9.58-1.5,14.88-2.26c1.29-0.19,2.59-0.37,3.87-0.55" class="grey" /><path d="M64.2,9.62c0.08,0.79-0.07,1.54-0.43,2.25c-1.1,2.6-4.06,6.73-7.91,9.27" class="grey" /><path d="M49.06,20.86c0.85,0.85,1.42,1.76,1.42,3.23c0,6.34-0.18,29.3-0.87,42.42c-0.1,1.81-0.2,3.45-0.32,4.86" class="grey" /><path d="M51.81,23.72c6.73-0.87,22.73-3.18,24.02-3.1c2.51,0.16,3.73,2.15,3.51,4.01c-0.12,0.99-0.84,7.61-1.91,15.86c-0.17,1.32-0.35,2.68-0.54,4.06" class="grey" /><path d="M51.22,34c4.03-0.37,23.87-2.75,26.28-2.6" class="grey" /><path d="M51.12,45.51c6.25-0.63,18.88-2.01,24.74-2.5" class="grey" /><path d="M51.36,57.22c10.98-0.84,30.89-3.61,35.6-4.14c1.65-0.18,4.68-0.35,5.52-0.1" class="grey" /><path d="M49.3,71.59c11.95-2.09,35.4-4.92,41.04-5.41c3.67-0.32,6,1.99,4.9,5.55c-2.62,8.51-5.62,16.76-9.01,22.7C83.92,98.52,80.5,98,76.5,93.5" class="grey" /><path d="M32.9,81.88c-0.52,5.37-2.07,10.78-4.38,13.57" class="grey" /><path d="M44.62,79.75c2.08,2.35,4.06,8.54,4.58,12" class="grey" /><path d="M59,78.38c1.94,1.75,5.01,7.04,5.5,9.62" class="grey" /><path d="M72.5,74.88c2.29,1.72,5.92,6.86,6.5,9.38" class="grey" /><path d="M13.17,38.73c0.93,0.93,1.5,1.9,1.62,2.77c0.92,3.74,1.68,10.13,2.44,16.01c0.18,1.37,0.34,2.72,0.48,4" class="stroke" stroke-dasharray="150"><animate attributeName="stroke-dashoffset" from="150" to="0" dur="1.8s" begin="0.0s" fill="freeze" /></path><path d="M15.29,40.19c6.83-1.31,15.8-3.06,19.14-3.7c1.94-0.37,3.32,1.01,2.9,3.16c-0.89,4.51-1.58,8.97-3.28,15.48" class="stroke" stroke-dasharray="150"><set attributeName="opacity" to="0" dur="1.0s" /><animate attributeName="stroke-dashoffset" from="150" to="0" dur="1.8s" begin="1.0s" fill="freeze" /></path><path d="M17.86,58.94c3.8-0.48,9.58-1.5,14.88-2.26c1.29-0.19,2.59-0.37,3.87-0.55" class="stroke" stroke-dasharray="150"><set attributeName="opacity" to="0" dur="2.1s" /><animate attributeName="stroke-dashoffset" from="150" to="0" dur="1.8s" begin="2.1s" fill="freeze" /></path><path d="M64.2,9.62c0.08,0.79-0.07,1.54-0.43,2.25c-1.1,2.6-4.06,6.73-7.91,9.27" class="stroke" stroke-dasharray="150"><set attributeName="opacity" to="0" dur="3.0s" /><animate attributeName="stroke-dashoffset" from="150" to="0" dur="1.8s" begin="3.0s" fill="freeze" /></path><path d="M49.06,20.86c0.85,0.85,1.42,1.76,1.42,3.23c0,6.34-0.18,29.3-0.87,42.42c-0.1,1.81-0.2,3.45-0.32,4.86" class="stroke" stroke-dasharray="150"><set attributeName="opacity" to="0" dur="3.9s" /><animate attributeName="stroke-dashoffset" from="150" to="0" dur="1.8s" begin="3.9s" fill="freeze" /></path><path d="M51.81,23.72c6.73-0.87,22.73-3.18,24.02-3.1c2.51,0.16,3.73,2.15,3.51,4.01c-0.12,0.99-0.84,7.61-1.91,15.86c-0.17,1.32-0.35,2.68-0.54,4.06" class="stroke" stroke-dasharray="150"><set attributeName="opacity" to="0" dur="5.2s" /><animate attributeName="stroke-dashoffset" from="150" to="0" dur="1.8s" begin="5.2s" fill="freeze" /></path><path d="M51.22,34c4.03-0.37,23.87-2.75,26.28-2.6" class="stroke" stroke-dasharray="150"><set attributeName="opacity" to="0" dur="6.5s" /><animate attributeName="stroke-dashoffset" from="150" to="0" dur="1.8s" begin="6.5s" fill="freeze" /></path><path d="M51.12,45.51c6.25-0.63,18.88-2.01,24.74-2.5" class="stroke" stroke-dasharray="150"><set attributeName="opacity" to="0" dur="7.5s" /><animate attributeName="stroke-dashoffset" from="150" to="0" dur="1.8s" begin="7.5s" fill="freeze" /></path><path d="M51.36,57.22c10.98-0.84,30.89-3.61,35.6-4.14c1.65-0.18,4.68-0.35,5.52-0.1" class="stroke" stroke-dasharray="150"><set attributeName="opacity" to="0" dur="8.5s" /><animate attributeName="stroke-dashoffset" from="150" to="0" dur="1.8s" begin="8.5s" fill="freeze" /></path><path d="M49.3,71.59c11.95-2.09,35.4-4.92,41.04-5.41c3.67-0.32,6,1.99,4.9,5.55c-2.62,8.51-5.62,16.76-9.01,22.7C83.92,98.52,80.5,98,76.5,93.5" class="stroke" stroke-dasharray="150"><set attributeName="opacity" to="0" dur="9.6s" /><animate attributeName="stroke-dashoffset" from="150" to="0" dur="1.8s" begin="9.6s" fill="freeze" /></path><path d="M32.9,81.88c-0.52,5.37-2.07,10.78-4.38,13.57" class="stroke" stroke-dasharray="150"><set attributeName="opacity" to="0" dur="11.299999999999999s" /><animate attributeName="stroke-dashoffset" from="150" to="0" dur="1.8s" begin="11.299999999999999s" fill="freeze" /></path><path d="M44.62,79.75c2.08,2.35,4.06,8.54,4.58,12" class="stroke" stroke-dasharray="150"><set attributeName="opacity" to="0" dur="12.2s" /><animate attributeName="stroke-dashoffset" from="150" to="0" dur="1.8s" begin="12.2s" fill="freeze" /></path><path d="M59,78.38c1.94,1.75,5.01,7.04,5.5,9.62" class="stroke" stroke-dasharray="150"><set attributeName="opacity" to="0" dur="13.1s" /><animate attributeName="stroke-dashoffset" from="150" to="0" dur="1.8s" begin="13.1s" fill="freeze" /></path><path d="M72.5,74.88c2.29,1.72,5.92,6.86,6.5,9.38" class="stroke" stroke-dasharray="150"><set attributeName="opacity" to="0" dur="14.0s" /><animate attributeName="stroke-dashoffset" from="150" to="0" dur="1.8s" begin="14.0s" fill="freeze" /></path><text x="90" y="120" id="reset-kvg-09cf4">⟳</text><text x="70" y="120" id="pause-kvg-09cf4">◼</text><script type="text/javascript"><![CDATA[function RecurringTimer(e,t){var n,r,i=t;this.pause=function(){window.clearTimeout(n);i-=new Date-r};var s=function(){r=new Date;n=window.setTimeout(function(){i=t;s();e()},i)};this.clear=function(){window.clearTimeout(n);i=t;n=window.setTimeout(function(){i=t;s();e()},i)};this.resume=s;this.resume()}function invoketimer(){timer=new RecurringTimer(function(){svg.setCurrentTime(0)},15900.0)}var svg=document.getElementById("kvg-09cf4");var pause=document.getElementById("pause-kvg-09cf4");var reset=document.getElementById("reset-kvg-09cf4");var timer;invoketimer();reset.onclick=function(){svg.setCurrentTime(0);timer.clear();svg.unpauseAnimations();pause.innerHTML = "◼";};pause.onclick=function(){if(svg.animationsPaused()){svg.unpauseAnimations();timer.resume();pause.innerHTML="◼"}else{svg.pauseAnimations();timer.pause();pause.innerHTML="▶"}}]]></script></svg>