<svg id="kvg-09d15-Kaisho" class="kanjivg" width="106" height="126" xmlns="http://www.w3.org/2000/svg" xmlns:xlink="http://www.w3.org/1999/xlink" xml:space="preserve" version="1.1" baseProfile="full"><defs><style type="text/css"><![CDATA[path.black{fill:none;stroke:black;stroke-width:5;stroke-linecap:round;stroke-linejoin:round;}path.grey{fill:none;stroke:#ddd;stroke-width:5;stroke-linecap:round;stroke-linejoin:round;}path.stroke{fill:none;stroke:black;stroke-width:5;stroke-linecap:round;stroke-linejoin:round;}rect{fill:none;stroke:#555;stroke-width:2;} text{font-size:16px;font-family:Segoe UI Symbol,Cambria Math,DejaVu Sans,Symbola,Quivira,STIX,Code2000;-webkit-touch-callout:none;cursor:pointer;-webkit-user-select:none;-khtml-user-select:none;-moz-user-select:none;-ms-user-select:none;user-select: none;}text:hover{color:#777;}#reset{font-weight:bold;}]]></style><marker id="markerStart" markerWidth="8" markerHeight="8" style="overflow:visible;"><circle cx="0" cy="0" r="1.5" style="stroke:none;fill:red;fill-opacity:0.5;"/></marker><marker id="markerEnd" style="overflow:visible;"><circle cx="0" cy="0" r="0.8" style="stroke:none;fill:blue;fill-opacity:0.5;"><animate attributeName="opacity" from="1" to="0" dur="3s" repeatCount="indefinite" /></circle></marker></defs><rect x="4" y="4" width="100" height="100" /><path d="M27.54,10.66c0.02,0.31,0.04,0.8-0.04,1.24c-0.48,2.58-3.2,8.09-6.92,11.3" class="grey" /><path d="M14.3,22.92c0.33,0.43,0.6,1.02,0.6,1.73c0,7.23,0.04,31.01-0.17,42.38" class="grey" /><path d="M15.31,25.25c1.55,0,20.5-3.17,22.01-3.06c2.24,0.16,3.33,2.15,3.13,4.02c-0.12,1.15-1.64,11.69-3.08,20.46" class="grey" /><path d="M15.56,35.08c3.7,0.27,7.89-0.83,11.53-1.3c1.33-0.17,2.66-0.34,3.92-0.5" class="grey" /><path d="M15.47,46.62c3.88-0.14,17.05-2.48,21.88-2.5" class="grey" /><path d="M15.69,56.36c8.18-0.84,26.79-2.86,30.3-3.38c1.22-0.19,3.3-0.35,3.92-0.11" class="grey" /><path d="M14.74,67.25c9.1-1.63,26.63-3.42,31.67-3.9c3.28-0.31,4.97,0.89,4.38,4.57c-1.64,10.24-4.65,18.96-7.5,25.25c-2.86,6.33-5.97,1.04-7.3-0.24" class="grey" /><path d="M12.77,79.73c0.4,3.71-0.29,8.16-1.46,10.44" class="grey" /><path d="M19.82,77.49c1.84,1.84,3.58,6.67,4.04,9.37" class="grey" /><path d="M28.7,75.79c1.34,1.42,3.46,5.68,3.8,7.76" class="grey" /><path d="M36.16,72.48c1.71,1.35,4.43,5.41,4.86,7.39" class="grey" /><path d="M67.41,12.49c3.84,1.51,7.67,7.08,8.63,10.44" class="grey" /><path d="M54.63,29.24c0,3.62-1.85,11.09-2.92,13.51" class="grey" /><path d="M54.67,30.11c12.83-1.86,33.46-3.56,38.79-3.34c7.04,0.29-0.51,6.19-2.26,7.87" class="grey" /><path d="M90.52,44.51c0.19,0.42,0.31,1.63-0.18,2.27c-3.2,4.15-14.19,15.59-24.54,19.84" class="grey" /><path d="M63,39.38c0.7,1.02,0.75,1.7,0.98,3.05c0.23,1.36-0.09,39.13-0.09,43.38c0,9.19,1.61,11.71,16.65,11.71c6.17,0,10.66-1.08,12.99-4.13c2.33-3.05,2.04-6.6,2.27-9.65" class="grey" /><path d="M27.54,10.66c0.02,0.31,0.04,0.8-0.04,1.24c-0.48,2.58-3.2,8.09-6.92,11.3" class="stroke" stroke-dasharray="150"><animate attributeName="stroke-dashoffset" from="150" to="0" dur="1.8s" begin="0.0s" fill="freeze" /></path><path d="M14.3,22.92c0.33,0.43,0.6,1.02,0.6,1.73c0,7.23,0.04,31.01-0.17,42.38" class="stroke" stroke-dasharray="150"><set attributeName="opacity" to="0" dur="0.9s" /><animate attributeName="stroke-dashoffset" from="150" to="0" dur="1.8s" begin="0.9s" fill="freeze" /></path><path d="M15.31,25.25c1.55,0,20.5-3.17,22.01-3.06c2.24,0.16,3.33,2.15,3.13,4.02c-0.12,1.15-1.64,11.69-3.08,20.46" class="stroke" stroke-dasharray="150"><set attributeName="opacity" to="0" dur="2.0s" /><animate attributeName="stroke-dashoffset" from="150" to="0" dur="1.8s" begin="2.0s" fill="freeze" /></path><path d="M15.56,35.08c3.7,0.27,7.89-0.83,11.53-1.3c1.33-0.17,2.66-0.34,3.92-0.5" class="stroke" stroke-dasharray="150"><set attributeName="opacity" to="0" dur="3.2s" /><animate attributeName="stroke-dashoffset" from="150" to="0" dur="1.8s" begin="3.2s" fill="freeze" /></path><path d="M15.47,46.62c3.88-0.14,17.05-2.48,21.88-2.5" class="stroke" stroke-dasharray="150"><set attributeName="opacity" to="0" dur="4.1000000000000005s" /><animate attributeName="stroke-dashoffset" from="150" to="0" dur="1.8s" begin="4.1000000000000005s" fill="freeze" /></path><path d="M15.69,56.36c8.18-0.84,26.79-2.86,30.3-3.38c1.22-0.19,3.3-0.35,3.92-0.11" class="stroke" stroke-dasharray="150"><set attributeName="opacity" to="0" dur="5.1000000000000005s" /><animate attributeName="stroke-dashoffset" from="150" to="0" dur="1.8s" begin="5.1000000000000005s" fill="freeze" /></path><path d="M14.74,67.25c9.1-1.63,26.63-3.42,31.67-3.9c3.28-0.31,4.97,0.89,4.38,4.57c-1.64,10.24-4.65,18.96-7.5,25.25c-2.86,6.33-5.97,1.04-7.3-0.24" class="stroke" stroke-dasharray="150"><set attributeName="opacity" to="0" dur="6.1000000000000005s" /><animate attributeName="stroke-dashoffset" from="150" to="0" dur="1.8s" begin="6.1000000000000005s" fill="freeze" /></path><path d="M12.77,79.73c0.4,3.71-0.29,8.16-1.46,10.44" class="stroke" stroke-dasharray="150"><set attributeName="opacity" to="0" dur="7.800000000000001s" /><animate attributeName="stroke-dashoffset" from="150" to="0" dur="1.8s" begin="7.800000000000001s" fill="freeze" /></path><path d="M19.82,77.49c1.84,1.84,3.58,6.67,4.04,9.37" class="stroke" stroke-dasharray="150"><set attributeName="opacity" to="0" dur="8.700000000000001s" /><animate attributeName="stroke-dashoffset" from="150" to="0" dur="1.8s" begin="8.700000000000001s" fill="freeze" /></path><path d="M28.7,75.79c1.34,1.42,3.46,5.68,3.8,7.76" class="stroke" stroke-dasharray="150"><set attributeName="opacity" to="0" dur="9.600000000000001s" /><animate attributeName="stroke-dashoffset" from="150" to="0" dur="1.8s" begin="9.600000000000001s" fill="freeze" /></path><path d="M36.16,72.48c1.71,1.35,4.43,5.41,4.86,7.39" class="stroke" stroke-dasharray="150"><set attributeName="opacity" to="0" dur="10.500000000000002s" /><animate attributeName="stroke-dashoffset" from="150" to="0" dur="1.8s" begin="10.500000000000002s" fill="freeze" /></path><path d="M67.41,12.49c3.84,1.51,7.67,7.08,8.63,10.44" class="stroke" stroke-dasharray="150"><set attributeName="opacity" to="0" dur="11.400000000000002s" /><animate attributeName="stroke-dashoffset" from="150" to="0" dur="1.8s" begin="11.400000000000002s" fill="freeze" /></path><path d="M54.63,29.24c0,3.62-1.85,11.09-2.92,13.51" class="stroke" stroke-dasharray="150"><set attributeName="opacity" to="0" dur="12.300000000000002s" /><animate attributeName="stroke-dashoffset" from="150" to="0" dur="1.8s" begin="12.300000000000002s" fill="freeze" /></path><path d="M54.67,30.11c12.83-1.86,33.46-3.56,38.79-3.34c7.04,0.29-0.51,6.19-2.26,7.87" class="stroke" stroke-dasharray="150"><set attributeName="opacity" to="0" dur="13.200000000000003s" /><animate attributeName="stroke-dashoffset" from="150" to="0" dur="1.8s" begin="13.200000000000003s" fill="freeze" /></path><path d="M90.52,44.51c0.19,0.42,0.31,1.63-0.18,2.27c-3.2,4.15-14.19,15.59-24.54,19.84" class="stroke" stroke-dasharray="150"><set attributeName="opacity" to="0" dur="14.500000000000004s" /><animate attributeName="stroke-dashoffset" from="150" to="0" dur="1.8s" begin="14.500000000000004s" fill="freeze" /></path><path d="M63,39.38c0.7,1.02,0.75,1.7,0.98,3.05c0.23,1.36-0.09,39.13-0.09,43.38c0,9.19,1.61,11.71,16.65,11.71c6.17,0,10.66-1.08,12.99-4.13c2.33-3.05,2.04-6.6,2.27-9.65" class="stroke" stroke-dasharray="150"><set attributeName="opacity" to="0" dur="15.500000000000004s" /><animate attributeName="stroke-dashoffset" from="150" to="0" dur="1.8s" begin="15.500000000000004s" fill="freeze" /></path><text x="90" y="120" id="reset-kvg-09d15-Kaisho">⟳</text><text x="70" y="120" id="pause-kvg-09d15-Kaisho">◼</text><script type="text/javascript"><![CDATA[function RecurringTimer(e,t){var n,r,i=t;this.pause=function(){window.clearTimeout(n);i-=new Date-r};var s=function(){r=new Date;n=window.setTimeout(function(){i=t;s();e()},i)};this.clear=function(){window.clearTimeout(n);i=t;n=window.setTimeout(function(){i=t;s();e()},i)};this.resume=s;this.resume()}function invoketimer(){timer=new RecurringTimer(function(){svg.setCurrentTime(0)},18300.000000000004)}var svg=document.getElementById("kvg-09d15-Kaisho");var pause=document.getElementById("pause-kvg-09d15-Kaisho");var reset=document.getElementById("reset-kvg-09d15-Kaisho");var timer;invoketimer();reset.onclick=function(){svg.setCurrentTime(0);timer.clear();svg.unpauseAnimations();pause.innerHTML = "◼";};pause.onclick=function(){if(svg.animationsPaused()){svg.unpauseAnimations();timer.resume();pause.innerHTML="◼"}else{svg.pauseAnimations();timer.pause();pause.innerHTML="▶"}}]]></script></svg>