<svg id="kvg-09d2c-Kaisho" class="kanjivg" width="106" height="126" xmlns="http://www.w3.org/2000/svg" xmlns:xlink="http://www.w3.org/1999/xlink" xml:space="preserve" version="1.1" baseProfile="full"><defs><style type="text/css"><![CDATA[path.black{fill:none;stroke:black;stroke-width:5;stroke-linecap:round;stroke-linejoin:round;}path.grey{fill:none;stroke:#ddd;stroke-width:5;stroke-linecap:round;stroke-linejoin:round;}path.stroke{fill:none;stroke:black;stroke-width:5;stroke-linecap:round;stroke-linejoin:round;}rect{fill:none;stroke:#555;stroke-width:2;} text{font-size:16px;font-family:Segoe UI Symbol,Cambria Math,DejaVu Sans,Symbola,Quivira,STIX,Code2000;-webkit-touch-callout:none;cursor:pointer;-webkit-user-select:none;-khtml-user-select:none;-moz-user-select:none;-ms-user-select:none;user-select: none;}text:hover{color:#777;}#reset{font-weight:bold;}]]></style><marker id="markerStart" markerWidth="8" markerHeight="8" style="overflow:visible;"><circle cx="0" cy="0" r="1.5" style="stroke:none;fill:red;fill-opacity:0.5;"/></marker><marker id="markerEnd" style="overflow:visible;"><circle cx="0" cy="0" r="0.8" style="stroke:none;fill:blue;fill-opacity:0.5;"><animate attributeName="opacity" from="1" to="0" dur="3s" repeatCount="indefinite" /></circle></marker></defs><rect x="4" y="4" width="100" height="100" /><path d="M29,16.25c3.5,3,7.25,8.25,7.75,9.75" class="grey" /><path d="M48,11c1.71,2.1,5.82,7.6,6.5,11" class="grey" /><path d="M77.29,9.75c0.63,0.74,0.59,2.5-0.05,3.45c-1.74,2.55-6.27,7.85-8.49,10.05" class="grey" /><path d="M22.75,31.75c0,3-2.25,11.75-3.5,13.75" class="grey" /><path d="M24.25,34.25c11.25-1,53.25-5.5,60.25-5.5s8.5,2.75,0.5,9" class="grey" /><path d="M49.48,34.51c0.02,0.23,0.03,0.58-0.03,0.91c-0.39,1.91-2.63,6.1-5.7,8.67" class="grey" /><path d="M35.63,45.16c0.46,0.27,0.82,1.71,0.82,2.18c0,4.73,0.05,22.89-0.23,30.33" class="grey" /><path d="M37.02,47.06c2.13-0.07,30.09-3.51,32.17-3.51c3.07,0,3.32,1.34,2.79,4.1c-0.14,0.76-1.48,6.92-2.73,12.66" class="grey" /><path d="M37.36,54.34c5.31,0,10.8-1.05,16.06-1.63c1.85-0.2,3.7-0.41,5.46-0.6" class="grey" /><path d="M37.24,61.89c5.31-0.27,25.37-2.37,31.98-2.6" class="grey" /><path d="M37.53,69.56c11.22-0.93,39.9-3.95,44.72-4.45c1.68-0.18,4.03-0.38,4.88-0.25" class="grey" /><path d="M36.23,77.82c12.48-1.49,40.83-3.99,47.77-3.99c2.75,0,4.17,1.61,3.5,4.1c-1.75,6.49-6.25,13.79-9.5,18.92c-2.91,4.6-5.5,1.59-7.5-0.9" class="grey" /><path d="M24.57,84.16c-0.07,5.2-1.64,9.75-4.25,12.51" class="grey" /><path d="M34.5,83.78c1.32,2.01,2.58,7.53,2.91,10.65" class="grey" /><path d="M48,83.05c1.68,1.6,4.33,6.59,4.75,9.08" class="grey" /><path d="M62.75,81.68c1.24,1.45,3.19,5.94,3.5,8.19" class="grey" /><path d="M29,16.25c3.5,3,7.25,8.25,7.75,9.75" class="stroke" stroke-dasharray="150"><animate attributeName="stroke-dashoffset" from="150" to="0" dur="1.8s" begin="0.0s" fill="freeze" /></path><path d="M48,11c1.71,2.1,5.82,7.6,6.5,11" class="stroke" stroke-dasharray="150"><set attributeName="opacity" to="0" dur="0.9s" /><animate attributeName="stroke-dashoffset" from="150" to="0" dur="1.8s" begin="0.9s" fill="freeze" /></path><path d="M77.29,9.75c0.63,0.74,0.59,2.5-0.05,3.45c-1.74,2.55-6.27,7.85-8.49,10.05" class="stroke" stroke-dasharray="150"><set attributeName="opacity" to="0" dur="1.8s" /><animate attributeName="stroke-dashoffset" from="150" to="0" dur="1.8s" begin="1.8s" fill="freeze" /></path><path d="M22.75,31.75c0,3-2.25,11.75-3.5,13.75" class="stroke" stroke-dasharray="150"><set attributeName="opacity" to="0" dur="2.7s" /><animate attributeName="stroke-dashoffset" from="150" to="0" dur="1.8s" begin="2.7s" fill="freeze" /></path><path d="M24.25,34.25c11.25-1,53.25-5.5,60.25-5.5s8.5,2.75,0.5,9" class="stroke" stroke-dasharray="150"><set attributeName="opacity" to="0" dur="3.6s" /><animate attributeName="stroke-dashoffset" from="150" to="0" dur="1.8s" begin="3.6s" fill="freeze" /></path><path d="M49.48,34.51c0.02,0.23,0.03,0.58-0.03,0.91c-0.39,1.91-2.63,6.1-5.7,8.67" class="stroke" stroke-dasharray="150"><set attributeName="opacity" to="0" dur="5.3s" /><animate attributeName="stroke-dashoffset" from="150" to="0" dur="1.8s" begin="5.3s" fill="freeze" /></path><path d="M35.63,45.16c0.46,0.27,0.82,1.71,0.82,2.18c0,4.73,0.05,22.89-0.23,30.33" class="stroke" stroke-dasharray="150"><set attributeName="opacity" to="0" dur="6.2s" /><animate attributeName="stroke-dashoffset" from="150" to="0" dur="1.8s" begin="6.2s" fill="freeze" /></path><path d="M37.02,47.06c2.13-0.07,30.09-3.51,32.17-3.51c3.07,0,3.32,1.34,2.79,4.1c-0.14,0.76-1.48,6.92-2.73,12.66" class="stroke" stroke-dasharray="150"><set attributeName="opacity" to="0" dur="7.2s" /><animate attributeName="stroke-dashoffset" from="150" to="0" dur="1.8s" begin="7.2s" fill="freeze" /></path><path d="M37.36,54.34c5.31,0,10.8-1.05,16.06-1.63c1.85-0.2,3.7-0.41,5.46-0.6" class="stroke" stroke-dasharray="150"><set attributeName="opacity" to="0" dur="8.5s" /><animate attributeName="stroke-dashoffset" from="150" to="0" dur="1.8s" begin="8.5s" fill="freeze" /></path><path d="M37.24,61.89c5.31-0.27,25.37-2.37,31.98-2.6" class="stroke" stroke-dasharray="150"><set attributeName="opacity" to="0" dur="9.5s" /><animate attributeName="stroke-dashoffset" from="150" to="0" dur="1.8s" begin="9.5s" fill="freeze" /></path><path d="M37.53,69.56c11.22-0.93,39.9-3.95,44.72-4.45c1.68-0.18,4.03-0.38,4.88-0.25" class="stroke" stroke-dasharray="150"><set attributeName="opacity" to="0" dur="10.5s" /><animate attributeName="stroke-dashoffset" from="150" to="0" dur="1.8s" begin="10.5s" fill="freeze" /></path><path d="M36.23,77.82c12.48-1.49,40.83-3.99,47.77-3.99c2.75,0,4.17,1.61,3.5,4.1c-1.75,6.49-6.25,13.79-9.5,18.92c-2.91,4.6-5.5,1.59-7.5-0.9" class="stroke" stroke-dasharray="150"><set attributeName="opacity" to="0" dur="11.7s" /><animate attributeName="stroke-dashoffset" from="150" to="0" dur="1.8s" begin="11.7s" fill="freeze" /></path><path d="M24.57,84.16c-0.07,5.2-1.64,9.75-4.25,12.51" class="stroke" stroke-dasharray="150"><set attributeName="opacity" to="0" dur="13.399999999999999s" /><animate attributeName="stroke-dashoffset" from="150" to="0" dur="1.8s" begin="13.399999999999999s" fill="freeze" /></path><path d="M34.5,83.78c1.32,2.01,2.58,7.53,2.91,10.65" class="stroke" stroke-dasharray="150"><set attributeName="opacity" to="0" dur="14.299999999999999s" /><animate attributeName="stroke-dashoffset" from="150" to="0" dur="1.8s" begin="14.299999999999999s" fill="freeze" /></path><path d="M48,83.05c1.68,1.6,4.33,6.59,4.75,9.08" class="stroke" stroke-dasharray="150"><set attributeName="opacity" to="0" dur="15.2s" /><animate attributeName="stroke-dashoffset" from="150" to="0" dur="1.8s" begin="15.2s" fill="freeze" /></path><path d="M62.75,81.68c1.24,1.45,3.19,5.94,3.5,8.19" class="stroke" stroke-dasharray="150"><set attributeName="opacity" to="0" dur="16.099999999999998s" /><animate attributeName="stroke-dashoffset" from="150" to="0" dur="1.8s" begin="16.099999999999998s" fill="freeze" /></path><text x="90" y="120" id="reset-kvg-09d2c-Kaisho">⟳</text><text x="70" y="120" id="pause-kvg-09d2c-Kaisho">◼</text><script type="text/javascript"><![CDATA[function RecurringTimer(e,t){var n,r,i=t;this.pause=function(){window.clearTimeout(n);i-=new Date-r};var s=function(){r=new Date;n=window.setTimeout(function(){i=t;s();e()},i)};this.clear=function(){window.clearTimeout(n);i=t;n=window.setTimeout(function(){i=t;s();e()},i)};this.resume=s;this.resume()}function invoketimer(){timer=new RecurringTimer(function(){svg.setCurrentTime(0)},17999.999999999996)}var svg=document.getElementById("kvg-09d2c-Kaisho");var pause=document.getElementById("pause-kvg-09d2c-Kaisho");var reset=document.getElementById("reset-kvg-09d2c-Kaisho");var timer;invoketimer();reset.onclick=function(){svg.setCurrentTime(0);timer.clear();svg.unpauseAnimations();pause.innerHTML = "◼";};pause.onclick=function(){if(svg.animationsPaused()){svg.unpauseAnimations();timer.resume();pause.innerHTML="◼"}else{svg.pauseAnimations();timer.pause();pause.innerHTML="▶"}}]]></script></svg>