<svg id="kvg-09dfa-Kaisho" class="kanjivg" width="106" height="126" xmlns="http://www.w3.org/2000/svg" xmlns:xlink="http://www.w3.org/1999/xlink" xml:space="preserve" version="1.1" baseProfile="full"><defs><style type="text/css"><![CDATA[path.black{fill:none;stroke:black;stroke-width:5;stroke-linecap:round;stroke-linejoin:round;}path.grey{fill:none;stroke:#ddd;stroke-width:5;stroke-linecap:round;stroke-linejoin:round;}path.stroke{fill:none;stroke:black;stroke-width:5;stroke-linecap:round;stroke-linejoin:round;}rect{fill:none;stroke:#555;stroke-width:2;} text{font-size:16px;font-family:Segoe UI Symbol,Cambria Math,DejaVu Sans,Symbola,Quivira,STIX,Code2000;-webkit-touch-callout:none;cursor:pointer;-webkit-user-select:none;-khtml-user-select:none;-moz-user-select:none;-ms-user-select:none;user-select: none;}text:hover{color:#777;}#reset{font-weight:bold;}]]></style><marker id="markerStart" markerWidth="8" markerHeight="8" style="overflow:visible;"><circle cx="0" cy="0" r="1.5" style="stroke:none;fill:red;fill-opacity:0.5;"/></marker><marker id="markerEnd" style="overflow:visible;"><circle cx="0" cy="0" r="0.8" style="stroke:none;fill:blue;fill-opacity:0.5;"><animate attributeName="opacity" from="1" to="0" dur="3s" repeatCount="indefinite" /></circle></marker></defs><rect x="4" y="4" width="100" height="100" /><path d="M19.03,13.09c0.36,0.19,0.73,0.36,0.88,0.6c1.25,1.92,1.24,7.64,2.09,11.1" class="grey" /><path d="M20.81,14.13c8.5-1.03,15.79-2.85,20-3.1c1.54-0.09,1.75,1,1.74,1.59c-0.05,3.38-1.36,6.37-2.33,8.6" class="grey" /><path d="M22.17,23.72c4.94-0.29,12.8-1.78,19.59-2.22" class="grey" /><path d="M29.87,23.51c0.88,0.99,0.96,2.14,0.96,2.72c0,2.8,0.5,13.5,0.28,16.98" class="grey" /><path d="M31.38,31.77c3.12-0.59,5.62-1.2,8.85-1.66c1.72-0.24,2.18-0.14,3.26,0" class="grey" /><path d="M17.37,30.3c1.09,0.28,1.74,1.25,1.96,1.81c0.22,0.56,1.17,10.38,1.78,14.95" class="grey" /><path d="M14.75,47.38c0.3,0.46,2.56,1.05,3.3,0.79c7.31-2.54,15.38-5.67,23.45-8.52" class="grey" /><path d="M63.41,8.59c0.04,0.36,0.16,0.94-0.07,1.44c-1.59,3.43-5.8,9.73-12.56,13.82" class="grey" /><path d="M63.55,14.54c0.29,0.02,1.54,0,2.37-0.04c2.74-0.14,8.99-1.29,12.84-2.12c1.74-0.37,2.45,1.35,1.76,2.19c-3.76,4.59-16.96,15.78-33.83,18.81" class="grey" /><path d="M58.12,18.83c3.55,0.66,25.72,10.69,31.99,12.72c1.87,0.61,3.38,0.9,5.2,1.08" class="grey" /><path d="M56.99,35.48c0.27,0.19,0.54,0.34,0.66,0.57c0.92,1.85,1.97,6.24,2.6,9.56" class="grey" /><path d="M58.15,35.82c6.04-0.83,17.5-2.11,20.62-2.35c1.14-0.09,1.82,0.52,1.66,1.04c-0.67,2.16-1.46,4.68-2.47,7.66" class="grey" /><path d="M60.37,44.11c3.66-0.27,14.21-1.25,19.24-1.67" class="grey" /><path d="M49.04,42.18c0.01,0.2,0.03,0.52-0.03,0.81c-0.36,1.72-2.45,5.48-5.31,7.79" class="grey" /><path d="M32.47,51.96c0.28,0.79,0.87,1.55,0.87,1.96c0,4.11-0.45,19.88-0.74,26.35" class="grey" /><path d="M33.95,53.67c2.26-0.06,36.77-2.62,38.97-2.62c3.25,0,3.84,1.09,3.55,2.16c-0.18,0.66-0.71,8.28-1.98,12.46" class="grey" /><path d="M33.81,60.04c6.81,0,13.71-0.78,20.5-1.2c2.4-0.15,4.79-0.3,7.07-0.44" class="grey" /><path d="M34.18,66.09c5.63-0.23,33.26-1.59,40.27-1.79" class="grey" /><path d="M34.49,72.75c11.89-0.8,44.51-2,50.24-2.43c1.78-0.13,3.77-0.07,5.7,0.28" class="grey" /><path d="M32.62,80.9c13.22-1.29,47.92-2.6,55.27-2.46c3.37,0.06,4.22,2.45,3.36,4.56c-2.38,5.88-4.24,9-7.57,13.97c-2.86,4.27-4.67,2.29-7.6-0.84" class="grey" /><path d="M23.2,88.23c-0.7,3.52-3.45,8.77-6.31,11.02" class="grey" /><path d="M34.87,86.15c1.85,2.29,3.61,8.61,4.08,12.18" class="grey" /><path d="M49.04,85.7c1.36,1.71,3.5,7.04,3.84,9.7" class="grey" /><path d="M62.36,83.59c1.91,1.57,4.94,6.47,5.42,8.92" class="grey" /><path d="M19.03,13.09c0.36,0.19,0.73,0.36,0.88,0.6c1.25,1.92,1.24,7.64,2.09,11.1" class="stroke" stroke-dasharray="150"><animate attributeName="stroke-dashoffset" from="150" to="0" dur="1.8s" begin="0.0s" fill="freeze" /></path><path d="M20.81,14.13c8.5-1.03,15.79-2.85,20-3.1c1.54-0.09,1.75,1,1.74,1.59c-0.05,3.38-1.36,6.37-2.33,8.6" class="stroke" stroke-dasharray="150"><set attributeName="opacity" to="0" dur="0.9s" /><animate attributeName="stroke-dashoffset" from="150" to="0" dur="1.8s" begin="0.9s" fill="freeze" /></path><path d="M22.17,23.72c4.94-0.29,12.8-1.78,19.59-2.22" class="stroke" stroke-dasharray="150"><set attributeName="opacity" to="0" dur="1.9s" /><animate attributeName="stroke-dashoffset" from="150" to="0" dur="1.8s" begin="1.9s" fill="freeze" /></path><path d="M29.87,23.51c0.88,0.99,0.96,2.14,0.96,2.72c0,2.8,0.5,13.5,0.28,16.98" class="stroke" stroke-dasharray="150"><set attributeName="opacity" to="0" dur="2.8s" /><animate attributeName="stroke-dashoffset" from="150" to="0" dur="1.8s" begin="2.8s" fill="freeze" /></path><path d="M31.38,31.77c3.12-0.59,5.62-1.2,8.85-1.66c1.72-0.24,2.18-0.14,3.26,0" class="stroke" stroke-dasharray="150"><set attributeName="opacity" to="0" dur="3.6999999999999997s" /><animate attributeName="stroke-dashoffset" from="150" to="0" dur="1.8s" begin="3.6999999999999997s" fill="freeze" /></path><path d="M17.37,30.3c1.09,0.28,1.74,1.25,1.96,1.81c0.22,0.56,1.17,10.38,1.78,14.95" class="stroke" stroke-dasharray="150"><set attributeName="opacity" to="0" dur="4.6s" /><animate attributeName="stroke-dashoffset" from="150" to="0" dur="1.8s" begin="4.6s" fill="freeze" /></path><path d="M14.75,47.38c0.3,0.46,2.56,1.05,3.3,0.79c7.31-2.54,15.38-5.67,23.45-8.52" class="stroke" stroke-dasharray="150"><set attributeName="opacity" to="0" dur="5.5s" /><animate attributeName="stroke-dashoffset" from="150" to="0" dur="1.8s" begin="5.5s" fill="freeze" /></path><path d="M63.41,8.59c0.04,0.36,0.16,0.94-0.07,1.44c-1.59,3.43-5.8,9.73-12.56,13.82" class="stroke" stroke-dasharray="150"><set attributeName="opacity" to="0" dur="6.5s" /><animate attributeName="stroke-dashoffset" from="150" to="0" dur="1.8s" begin="6.5s" fill="freeze" /></path><path d="M63.55,14.54c0.29,0.02,1.54,0,2.37-0.04c2.74-0.14,8.99-1.29,12.84-2.12c1.74-0.37,2.45,1.35,1.76,2.19c-3.76,4.59-16.96,15.78-33.83,18.81" class="stroke" stroke-dasharray="150"><set attributeName="opacity" to="0" dur="7.5s" /><animate attributeName="stroke-dashoffset" from="150" to="0" dur="1.8s" begin="7.5s" fill="freeze" /></path><path d="M58.12,18.83c3.55,0.66,25.72,10.69,31.99,12.72c1.87,0.61,3.38,0.9,5.2,1.08" class="stroke" stroke-dasharray="150"><set attributeName="opacity" to="0" dur="8.9s" /><animate attributeName="stroke-dashoffset" from="150" to="0" dur="1.8s" begin="8.9s" fill="freeze" /></path><path d="M56.99,35.48c0.27,0.19,0.54,0.34,0.66,0.57c0.92,1.85,1.97,6.24,2.6,9.56" class="stroke" stroke-dasharray="150"><set attributeName="opacity" to="0" dur="9.9s" /><animate attributeName="stroke-dashoffset" from="150" to="0" dur="1.8s" begin="9.9s" fill="freeze" /></path><path d="M58.15,35.82c6.04-0.83,17.5-2.11,20.62-2.35c1.14-0.09,1.82,0.52,1.66,1.04c-0.67,2.16-1.46,4.68-2.47,7.66" class="stroke" stroke-dasharray="150"><set attributeName="opacity" to="0" dur="10.8s" /><animate attributeName="stroke-dashoffset" from="150" to="0" dur="1.8s" begin="10.8s" fill="freeze" /></path><path d="M60.37,44.11c3.66-0.27,14.21-1.25,19.24-1.67" class="stroke" stroke-dasharray="150"><set attributeName="opacity" to="0" dur="11.8s" /><animate attributeName="stroke-dashoffset" from="150" to="0" dur="1.8s" begin="11.8s" fill="freeze" /></path><path d="M49.04,42.18c0.01,0.2,0.03,0.52-0.03,0.81c-0.36,1.72-2.45,5.48-5.31,7.79" class="stroke" stroke-dasharray="150"><set attributeName="opacity" to="0" dur="12.700000000000001s" /><animate attributeName="stroke-dashoffset" from="150" to="0" dur="1.8s" begin="12.700000000000001s" fill="freeze" /></path><path d="M32.47,51.96c0.28,0.79,0.87,1.55,0.87,1.96c0,4.11-0.45,19.88-0.74,26.35" class="stroke" stroke-dasharray="150"><set attributeName="opacity" to="0" dur="13.600000000000001s" /><animate attributeName="stroke-dashoffset" from="150" to="0" dur="1.8s" begin="13.600000000000001s" fill="freeze" /></path><path d="M33.95,53.67c2.26-0.06,36.77-2.62,38.97-2.62c3.25,0,3.84,1.09,3.55,2.16c-0.18,0.66-0.71,8.28-1.98,12.46" class="stroke" stroke-dasharray="150"><set attributeName="opacity" to="0" dur="14.600000000000001s" /><animate attributeName="stroke-dashoffset" from="150" to="0" dur="1.8s" begin="14.600000000000001s" fill="freeze" /></path><path d="M33.81,60.04c6.81,0,13.71-0.78,20.5-1.2c2.4-0.15,4.79-0.3,7.07-0.44" class="stroke" stroke-dasharray="150"><set attributeName="opacity" to="0" dur="16.0s" /><animate attributeName="stroke-dashoffset" from="150" to="0" dur="1.8s" begin="16.0s" fill="freeze" /></path><path d="M34.18,66.09c5.63-0.23,33.26-1.59,40.27-1.79" class="stroke" stroke-dasharray="150"><set attributeName="opacity" to="0" dur="17.0s" /><animate attributeName="stroke-dashoffset" from="150" to="0" dur="1.8s" begin="17.0s" fill="freeze" /></path><path d="M34.49,72.75c11.89-0.8,44.51-2,50.24-2.43c1.78-0.13,3.77-0.07,5.7,0.28" class="stroke" stroke-dasharray="150"><set attributeName="opacity" to="0" dur="18.1s" /><animate attributeName="stroke-dashoffset" from="150" to="0" dur="1.8s" begin="18.1s" fill="freeze" /></path><path d="M32.62,80.9c13.22-1.29,47.92-2.6,55.27-2.46c3.37,0.06,4.22,2.45,3.36,4.56c-2.38,5.88-4.24,9-7.57,13.97c-2.86,4.27-4.67,2.29-7.6-0.84" class="stroke" stroke-dasharray="150"><set attributeName="opacity" to="0" dur="19.5s" /><animate attributeName="stroke-dashoffset" from="150" to="0" dur="1.8s" begin="19.5s" fill="freeze" /></path><path d="M23.2,88.23c-0.7,3.52-3.45,8.77-6.31,11.02" class="stroke" stroke-dasharray="150"><set attributeName="opacity" to="0" dur="21.2s" /><animate attributeName="stroke-dashoffset" from="150" to="0" dur="1.8s" begin="21.2s" fill="freeze" /></path><path d="M34.87,86.15c1.85,2.29,3.61,8.61,4.08,12.18" class="stroke" stroke-dasharray="150"><set attributeName="opacity" to="0" dur="22.099999999999998s" /><animate attributeName="stroke-dashoffset" from="150" to="0" dur="1.8s" begin="22.099999999999998s" fill="freeze" /></path><path d="M49.04,85.7c1.36,1.71,3.5,7.04,3.84,9.7" class="stroke" stroke-dasharray="150"><set attributeName="opacity" to="0" dur="22.999999999999996s" /><animate attributeName="stroke-dashoffset" from="150" to="0" dur="1.8s" begin="22.999999999999996s" fill="freeze" /></path><path d="M62.36,83.59c1.91,1.57,4.94,6.47,5.42,8.92" class="stroke" stroke-dasharray="150"><set attributeName="opacity" to="0" dur="23.899999999999995s" /><animate attributeName="stroke-dashoffset" from="150" to="0" dur="1.8s" begin="23.899999999999995s" fill="freeze" /></path><text x="90" y="120" id="reset-kvg-09dfa-Kaisho">⟳</text><text x="70" y="120" id="pause-kvg-09dfa-Kaisho">◼</text><script type="text/javascript"><![CDATA[function RecurringTimer(e,t){var n,r,i=t;this.pause=function(){window.clearTimeout(n);i-=new Date-r};var s=function(){r=new Date;n=window.setTimeout(function(){i=t;s();e()},i)};this.clear=function(){window.clearTimeout(n);i=t;n=window.setTimeout(function(){i=t;s();e()},i)};this.resume=s;this.resume()}function invoketimer(){timer=new RecurringTimer(function(){svg.setCurrentTime(0)},25799.999999999993)}var svg=document.getElementById("kvg-09dfa-Kaisho");var pause=document.getElementById("pause-kvg-09dfa-Kaisho");var reset=document.getElementById("reset-kvg-09dfa-Kaisho");var timer;invoketimer();reset.onclick=function(){svg.setCurrentTime(0);timer.clear();svg.unpauseAnimations();pause.innerHTML = "◼";};pause.onclick=function(){if(svg.animationsPaused()){svg.unpauseAnimations();timer.resume();pause.innerHTML="◼"}else{svg.pauseAnimations();timer.pause();pause.innerHTML="▶"}}]]></script></svg>