<svg id="kvg-09ef6-KaishoVtLst" class="kanjivg" width="106" height="126" xmlns="http://www.w3.org/2000/svg" xmlns:xlink="http://www.w3.org/1999/xlink" xml:space="preserve" version="1.1" baseProfile="full"><defs><style type="text/css"><![CDATA[path.black{fill:none;stroke:black;stroke-width:5;stroke-linecap:round;stroke-linejoin:round;}path.grey{fill:none;stroke:#ddd;stroke-width:5;stroke-linecap:round;stroke-linejoin:round;}path.stroke{fill:none;stroke:black;stroke-width:5;stroke-linecap:round;stroke-linejoin:round;}rect{fill:none;stroke:#555;stroke-width:2;} text{font-size:16px;font-family:Segoe UI Symbol,Cambria Math,DejaVu Sans,Symbola,Quivira,STIX,Code2000;-webkit-touch-callout:none;cursor:pointer;-webkit-user-select:none;-khtml-user-select:none;-moz-user-select:none;-ms-user-select:none;user-select: none;}text:hover{color:#777;}#reset{font-weight:bold;}]]></style><marker id="markerStart" markerWidth="8" markerHeight="8" style="overflow:visible;"><circle cx="0" cy="0" r="1.5" style="stroke:none;fill:red;fill-opacity:0.5;"/></marker><marker id="markerEnd" style="overflow:visible;"><circle cx="0" cy="0" r="0.8" style="stroke:none;fill:blue;fill-opacity:0.5;"><animate attributeName="opacity" from="1" to="0" dur="3s" repeatCount="indefinite" /></circle></marker></defs><rect x="4" y="4" width="100" height="100" /><path d="M18.43,12.24c2.01,0.5,5.69,0.6,7.7,0.5C41.5,12,65.25,10.25,79.94,9.31c3.34-0.21,5.36,0.24,7.03,0.49" class="grey" /><path d="M21.26,13.17c0.42,1,0.43,1.26,0.36,2.89C21.05,29.09,19.25,49,10.56,60.92" class="grey" /><path d="M29.48,17.5c0.28,0.28,0.48,0.72,0.56,1.08c0.27,1.24,1.83,10.79,1.83,10.97" class="grey" /><path d="M30.51,18.22c1.59-0.05,18.17-1.97,19.62-2.03c1.21-0.05,1.99,1.39,1.89,1.66c-0.19,0.55-1.13,10.4-1.13,10.68" class="grey" /><path d="M30.71,22.8c3.35,0,6.74-0.42,10.08-0.67c1.13-0.08,2.26-0.17,3.34-0.25" class="grey" /><path d="M32.53,28.02c5.16-0.15,12.54-0.87,17.53-0.95" class="grey" /><path d="M30.2,34.8c0.31,0.36,0.62,1.02,0.62,1.39c0,2.54,0.1,14.58,0.1,17.39" class="grey" /><path d="M31.45,35.16c1.25-0.09,17.34-1.67,18.27-1.77c1.66-0.18,2.29,1.18,2.08,1.72c-0.2,0.52-0.31,5.81-0.31,13.14c0,6.21-3.02,2.17-4.66,0.82" class="grey" /><path d="M31.45,41.03c3.3-0.15,6.59-0.5,9.87-0.8c0.99-0.09,1.97-0.18,2.92-0.27" class="grey" /><path d="M31.16,46.25c3.22-0.26,6.44-0.48,9.66-0.7c1.01-0.07,2.02-0.14,3-0.2" class="grey" /><path d="M56.5,28.98c0.6,0.14,2.63,0.31,3.77,0.23c6.01-0.42,18.72-1.63,25.96-1.92c0.83-0.03,2,0.05,3.85,0.29" class="grey" /><path d="M70.05,16.36c0.42,0.5,0.71,0.99,0.73,1.98C71,28.5,69,44,56.07,51.48" class="grey" /><path d="M70.51,28.67c4.04,5.83,11.9,15.7,17.06,19.86c1.36,1.09,1.85,1.23,2.47,1.33" class="grey" /><path d="M77.77,15.76c4.43,2.35,5.65,4.15,7.02,6.36" class="grey" /><path d="M28.71,57.91c0.4,0.45,0.98,1.74,1.11,2.33C30.5,63.25,32,70.5,32.41,73" class="grey" /><path d="M30.39,58.98c12.72-1.07,38.96-4,48.5-3.79c2.6,0.06,3.26,2.31,3.1,4.01c-0.42,4.32-1.74,7.8-2.81,11.15" class="grey" /><path d="M40.34,61.56c1.85,0.94,4.79,3.86,5.25,5.32" class="grey" /><path d="M70.51,58.16c0.01,0.2,0.03,0.5-0.02,0.78c-0.3,1.65-2.02,5.28-4.38,7.5" class="grey" /><path d="M32.13,70.91c9.16-0.46,34.87-2.36,47.53-3.11" class="grey" /><path d="M29.8,77.74c1.46,0.45,4.13,0.56,5.59,0.45c12.36-0.94,27.36-1.44,38.56-2.26c2.42-0.18,3.89,0.21,5.1,0.44" class="grey" /><path d="M21.23,85.49c1.75,0.79,4.97,0.92,6.72,0.79c18.24-1.33,38.56-2.24,55.76-2.67c2.92-0.07,4.67,0.38,6.13,0.78" class="grey" /><path d="M53.66,58.81c0.91,0.89,1.38,1.42,1.38,2.5c0,13.18,0.17,18.77,0.17,23.18" class="grey" /><path d="M26.71,90.74c-0.93,4.87-5.42,10.54-6.63,11.76" class="grey" /><path d="M42.64,90.62c2.52,1.76,5.11,6.38,5.54,9.36" class="grey" /><path d="M61.36,90c2.59,1.74,6.36,6.79,6.36,9.87" class="grey" /><path d="M79.97,88.28c3.71,1.78,9.58,7.3,10.5,10.07" class="grey" /><path d="M18.43,12.24c2.01,0.5,5.69,0.6,7.7,0.5C41.5,12,65.25,10.25,79.94,9.31c3.34-0.21,5.36,0.24,7.03,0.49" class="stroke" stroke-dasharray="150"><animate attributeName="stroke-dashoffset" from="150" to="0" dur="1.8s" begin="0.0s" fill="freeze" /></path><path d="M21.26,13.17c0.42,1,0.43,1.26,0.36,2.89C21.05,29.09,19.25,49,10.56,60.92" class="stroke" stroke-dasharray="150"><set attributeName="opacity" to="0" dur="1.5s" /><animate attributeName="stroke-dashoffset" from="150" to="0" dur="1.8s" begin="1.5s" fill="freeze" /></path><path d="M29.48,17.5c0.28,0.28,0.48,0.72,0.56,1.08c0.27,1.24,1.83,10.79,1.83,10.97" class="stroke" stroke-dasharray="150"><set attributeName="opacity" to="0" dur="2.7s" /><animate attributeName="stroke-dashoffset" from="150" to="0" dur="1.8s" begin="2.7s" fill="freeze" /></path><path d="M30.51,18.22c1.59-0.05,18.17-1.97,19.62-2.03c1.21-0.05,1.99,1.39,1.89,1.66c-0.19,0.55-1.13,10.4-1.13,10.68" class="stroke" stroke-dasharray="150"><set attributeName="opacity" to="0" dur="3.6s" /><animate attributeName="stroke-dashoffset" from="150" to="0" dur="1.8s" begin="3.6s" fill="freeze" /></path><path d="M30.71,22.8c3.35,0,6.74-0.42,10.08-0.67c1.13-0.08,2.26-0.17,3.34-0.25" class="stroke" stroke-dasharray="150"><set attributeName="opacity" to="0" dur="4.6s" /><animate attributeName="stroke-dashoffset" from="150" to="0" dur="1.8s" begin="4.6s" fill="freeze" /></path><path d="M32.53,28.02c5.16-0.15,12.54-0.87,17.53-0.95" class="stroke" stroke-dasharray="150"><set attributeName="opacity" to="0" dur="5.5s" /><animate attributeName="stroke-dashoffset" from="150" to="0" dur="1.8s" begin="5.5s" fill="freeze" /></path><path d="M30.2,34.8c0.31,0.36,0.62,1.02,0.62,1.39c0,2.54,0.1,14.58,0.1,17.39" class="stroke" stroke-dasharray="150"><set attributeName="opacity" to="0" dur="6.4s" /><animate attributeName="stroke-dashoffset" from="150" to="0" dur="1.8s" begin="6.4s" fill="freeze" /></path><path d="M31.45,35.16c1.25-0.09,17.34-1.67,18.27-1.77c1.66-0.18,2.29,1.18,2.08,1.72c-0.2,0.52-0.31,5.81-0.31,13.14c0,6.21-3.02,2.17-4.66,0.82" class="stroke" stroke-dasharray="150"><set attributeName="opacity" to="0" dur="7.300000000000001s" /><animate attributeName="stroke-dashoffset" from="150" to="0" dur="1.8s" begin="7.300000000000001s" fill="freeze" /></path><path d="M31.45,41.03c3.3-0.15,6.59-0.5,9.87-0.8c0.99-0.09,1.97-0.18,2.92-0.27" class="stroke" stroke-dasharray="150"><set attributeName="opacity" to="0" dur="8.4s" /><animate attributeName="stroke-dashoffset" from="150" to="0" dur="1.8s" begin="8.4s" fill="freeze" /></path><path d="M31.16,46.25c3.22-0.26,6.44-0.48,9.66-0.7c1.01-0.07,2.02-0.14,3-0.2" class="stroke" stroke-dasharray="150"><set attributeName="opacity" to="0" dur="9.3s" /><animate attributeName="stroke-dashoffset" from="150" to="0" dur="1.8s" begin="9.3s" fill="freeze" /></path><path d="M56.5,28.98c0.6,0.14,2.63,0.31,3.77,0.23c6.01-0.42,18.72-1.63,25.96-1.92c0.83-0.03,2,0.05,3.85,0.29" class="stroke" stroke-dasharray="150"><set attributeName="opacity" to="0" dur="10.200000000000001s" /><animate attributeName="stroke-dashoffset" from="150" to="0" dur="1.8s" begin="10.200000000000001s" fill="freeze" /></path><path d="M70.05,16.36c0.42,0.5,0.71,0.99,0.73,1.98C71,28.5,69,44,56.07,51.48" class="stroke" stroke-dasharray="150"><set attributeName="opacity" to="0" dur="11.200000000000001s" /><animate attributeName="stroke-dashoffset" from="150" to="0" dur="1.8s" begin="11.200000000000001s" fill="freeze" /></path><path d="M70.51,28.67c4.04,5.83,11.9,15.7,17.06,19.86c1.36,1.09,1.85,1.23,2.47,1.33" class="stroke" stroke-dasharray="150"><set attributeName="opacity" to="0" dur="12.3s" /><animate attributeName="stroke-dashoffset" from="150" to="0" dur="1.8s" begin="12.3s" fill="freeze" /></path><path d="M77.77,15.76c4.43,2.35,5.65,4.15,7.02,6.36" class="stroke" stroke-dasharray="150"><set attributeName="opacity" to="0" dur="13.3s" /><animate attributeName="stroke-dashoffset" from="150" to="0" dur="1.8s" begin="13.3s" fill="freeze" /></path><path d="M28.71,57.91c0.4,0.45,0.98,1.74,1.11,2.33C30.5,63.25,32,70.5,32.41,73" class="stroke" stroke-dasharray="150"><set attributeName="opacity" to="0" dur="14.200000000000001s" /><animate attributeName="stroke-dashoffset" from="150" to="0" dur="1.8s" begin="14.200000000000001s" fill="freeze" /></path><path d="M30.39,58.98c12.72-1.07,38.96-4,48.5-3.79c2.6,0.06,3.26,2.31,3.1,4.01c-0.42,4.32-1.74,7.8-2.81,11.15" class="stroke" stroke-dasharray="150"><set attributeName="opacity" to="0" dur="15.100000000000001s" /><animate attributeName="stroke-dashoffset" from="150" to="0" dur="1.8s" begin="15.100000000000001s" fill="freeze" /></path><path d="M40.34,61.56c1.85,0.94,4.79,3.86,5.25,5.32" class="stroke" stroke-dasharray="150"><set attributeName="opacity" to="0" dur="16.6s" /><animate attributeName="stroke-dashoffset" from="150" to="0" dur="1.8s" begin="16.6s" fill="freeze" /></path><path d="M70.51,58.16c0.01,0.2,0.03,0.5-0.02,0.78c-0.3,1.65-2.02,5.28-4.38,7.5" class="stroke" stroke-dasharray="150"><set attributeName="opacity" to="0" dur="17.5s" /><animate attributeName="stroke-dashoffset" from="150" to="0" dur="1.8s" begin="17.5s" fill="freeze" /></path><path d="M32.13,70.91c9.16-0.46,34.87-2.36,47.53-3.11" class="stroke" stroke-dasharray="150"><set attributeName="opacity" to="0" dur="18.4s" /><animate attributeName="stroke-dashoffset" from="150" to="0" dur="1.8s" begin="18.4s" fill="freeze" /></path><path d="M29.8,77.74c1.46,0.45,4.13,0.56,5.59,0.45c12.36-0.94,27.36-1.44,38.56-2.26c2.42-0.18,3.89,0.21,5.1,0.44" class="stroke" stroke-dasharray="150"><set attributeName="opacity" to="0" dur="19.599999999999998s" /><animate attributeName="stroke-dashoffset" from="150" to="0" dur="1.8s" begin="19.599999999999998s" fill="freeze" /></path><path d="M21.23,85.49c1.75,0.79,4.97,0.92,6.72,0.79c18.24-1.33,38.56-2.24,55.76-2.67c2.92-0.07,4.67,0.38,6.13,0.78" class="stroke" stroke-dasharray="150"><set attributeName="opacity" to="0" dur="20.799999999999997s" /><animate attributeName="stroke-dashoffset" from="150" to="0" dur="1.8s" begin="20.799999999999997s" fill="freeze" /></path><path d="M53.66,58.81c0.91,0.89,1.38,1.42,1.38,2.5c0,13.18,0.17,18.77,0.17,23.18" class="stroke" stroke-dasharray="150"><set attributeName="opacity" to="0" dur="22.299999999999997s" /><animate attributeName="stroke-dashoffset" from="150" to="0" dur="1.8s" begin="22.299999999999997s" fill="freeze" /></path><path d="M26.71,90.74c-0.93,4.87-5.42,10.54-6.63,11.76" class="stroke" stroke-dasharray="150"><set attributeName="opacity" to="0" dur="23.299999999999997s" /><animate attributeName="stroke-dashoffset" from="150" to="0" dur="1.8s" begin="23.299999999999997s" fill="freeze" /></path><path d="M42.64,90.62c2.52,1.76,5.11,6.38,5.54,9.36" class="stroke" stroke-dasharray="150"><set attributeName="opacity" to="0" dur="24.199999999999996s" /><animate attributeName="stroke-dashoffset" from="150" to="0" dur="1.8s" begin="24.199999999999996s" fill="freeze" /></path><path d="M61.36,90c2.59,1.74,6.36,6.79,6.36,9.87" class="stroke" stroke-dasharray="150"><set attributeName="opacity" to="0" dur="25.099999999999994s" /><animate attributeName="stroke-dashoffset" from="150" to="0" dur="1.8s" begin="25.099999999999994s" fill="freeze" /></path><path d="M79.97,88.28c3.71,1.78,9.58,7.3,10.5,10.07" class="stroke" stroke-dasharray="150"><set attributeName="opacity" to="0" dur="25.999999999999993s" /><animate attributeName="stroke-dashoffset" from="150" to="0" dur="1.8s" begin="25.999999999999993s" fill="freeze" /></path><text x="90" y="120" id="reset-kvg-09ef6-KaishoVtLst">⟳</text><text x="70" y="120" id="pause-kvg-09ef6-KaishoVtLst">◼</text><script type="text/javascript"><![CDATA[function RecurringTimer(e,t){var n,r,i=t;this.pause=function(){window.clearTimeout(n);i-=new Date-r};var s=function(){r=new Date;n=window.setTimeout(function(){i=t;s();e()},i)};this.clear=function(){window.clearTimeout(n);i=t;n=window.setTimeout(function(){i=t;s();e()},i)};this.resume=s;this.resume()}function invoketimer(){timer=new RecurringTimer(function(){svg.setCurrentTime(0)},27899.999999999993)}var svg=document.getElementById("kvg-09ef6-KaishoVtLst");var pause=document.getElementById("pause-kvg-09ef6-KaishoVtLst");var reset=document.getElementById("reset-kvg-09ef6-KaishoVtLst");var timer;invoketimer();reset.onclick=function(){svg.setCurrentTime(0);timer.clear();svg.unpauseAnimations();pause.innerHTML = "◼";};pause.onclick=function(){if(svg.animationsPaused()){svg.unpauseAnimations();timer.resume();pause.innerHTML="◼"}else{svg.pauseAnimations();timer.pause();pause.innerHTML="▶"}}]]></script></svg>