<svg id="kvg-09f21-Kaisho" class="kanjivg" width="106" height="126" xmlns="http://www.w3.org/2000/svg" xmlns:xlink="http://www.w3.org/1999/xlink" xml:space="preserve" version="1.1" baseProfile="full"><defs><style type="text/css"><![CDATA[path.black{fill:none;stroke:black;stroke-width:5;stroke-linecap:round;stroke-linejoin:round;}path.grey{fill:none;stroke:#ddd;stroke-width:5;stroke-linecap:round;stroke-linejoin:round;}path.stroke{fill:none;stroke:black;stroke-width:5;stroke-linecap:round;stroke-linejoin:round;}rect{fill:none;stroke:#555;stroke-width:2;} text{font-size:16px;font-family:Segoe UI Symbol,Cambria Math,DejaVu Sans,Symbola,Quivira,STIX,Code2000;-webkit-touch-callout:none;cursor:pointer;-webkit-user-select:none;-khtml-user-select:none;-moz-user-select:none;-ms-user-select:none;user-select: none;}text:hover{color:#777;}#reset{font-weight:bold;}]]></style><marker id="markerStart" markerWidth="8" markerHeight="8" style="overflow:visible;"><circle cx="0" cy="0" r="1.5" style="stroke:none;fill:red;fill-opacity:0.5;"/></marker><marker id="markerEnd" style="overflow:visible;"><circle cx="0" cy="0" r="0.8" style="stroke:none;fill:blue;fill-opacity:0.5;"><animate attributeName="opacity" from="1" to="0" dur="3s" repeatCount="indefinite" /></circle></marker></defs><rect x="4" y="4" width="100" height="100" /><path d="M24.43,17.52c5.18,4.68,10.73,12.88,11.47,15.23" class="grey" /><path d="M43.95,11.94c2.88,3.22,9.8,11.68,10.96,16.92" class="grey" /><path d="M80.11,9.5c0.63,0.94,1.97,2.16,0.94,3.76c-2.55,3.99-9.71,13.66-11.9,16.48" class="grey" /><path d="M27.47,39.39c1.03,0.81,1.72,1.62,2.06,2.43c0.34,0.81,0.34,21.36,0.34,23.18c0,15.19-7.11,29.39-16.37,35.25" class="grey" /><path d="M29.75,42.5c11-1.75,41.75-5.75,45.75-5.75c2.25,0,5,1,5,3.75c0,18.5-1.92,37.7,7.5,54.25c5.07,8.91,5.75,3.5,6-3" class="grey" /><path d="M30.24,58.91c10.81-0.8,21.57-2.14,32.36-3.11c1.16-0.1,2.3-0.21,3.42-0.3" class="grey" /><path d="M29,76c11.13-0.99,22.26-1.97,33.4-2.88c1.29-0.11,2.57-0.21,3.81-0.31" class="grey" /><path d="M52.37,41.75c1.09,0.5,1.74,2.25,1.96,3.25c0.22,1,0,46.75-0.22,53" class="grey" /><path d="M24.43,17.52c5.18,4.68,10.73,12.88,11.47,15.23" class="stroke" stroke-dasharray="150"><animate attributeName="stroke-dashoffset" from="150" to="0" dur="1.8s" begin="0.0s" fill="freeze" /></path><path d="M43.95,11.94c2.88,3.22,9.8,11.68,10.96,16.92" class="stroke" stroke-dasharray="150"><set attributeName="opacity" to="0" dur="0.9s" /><animate attributeName="stroke-dashoffset" from="150" to="0" dur="1.8s" begin="0.9s" fill="freeze" /></path><path d="M80.11,9.5c0.63,0.94,1.97,2.16,0.94,3.76c-2.55,3.99-9.71,13.66-11.9,16.48" class="stroke" stroke-dasharray="150"><set attributeName="opacity" to="0" dur="1.9s" /><animate attributeName="stroke-dashoffset" from="150" to="0" dur="1.8s" begin="1.9s" fill="freeze" /></path><path d="M27.47,39.39c1.03,0.81,1.72,1.62,2.06,2.43c0.34,0.81,0.34,21.36,0.34,23.18c0,15.19-7.11,29.39-16.37,35.25" class="stroke" stroke-dasharray="150"><set attributeName="opacity" to="0" dur="2.9s" /><animate attributeName="stroke-dashoffset" from="150" to="0" dur="1.8s" begin="2.9s" fill="freeze" /></path><path d="M29.75,42.5c11-1.75,41.75-5.75,45.75-5.75c2.25,0,5,1,5,3.75c0,18.5-1.92,37.7,7.5,54.25c5.07,8.91,5.75,3.5,6-3" class="stroke" stroke-dasharray="150"><set attributeName="opacity" to="0" dur="4.4s" /><animate attributeName="stroke-dashoffset" from="150" to="0" dur="1.8s" begin="4.4s" fill="freeze" /></path><path d="M30.24,58.91c10.81-0.8,21.57-2.14,32.36-3.11c1.16-0.1,2.3-0.21,3.42-0.3" class="stroke" stroke-dasharray="150"><set attributeName="opacity" to="0" dur="6.4s" /><animate attributeName="stroke-dashoffset" from="150" to="0" dur="1.8s" begin="6.4s" fill="freeze" /></path><path d="M29,76c11.13-0.99,22.26-1.97,33.4-2.88c1.29-0.11,2.57-0.21,3.81-0.31" class="stroke" stroke-dasharray="150"><set attributeName="opacity" to="0" dur="7.4s" /><animate attributeName="stroke-dashoffset" from="150" to="0" dur="1.8s" begin="7.4s" fill="freeze" /></path><path d="M52.37,41.75c1.09,0.5,1.74,2.25,1.96,3.25c0.22,1,0,46.75-0.22,53" class="stroke" stroke-dasharray="150"><set attributeName="opacity" to="0" dur="8.4s" /><animate attributeName="stroke-dashoffset" from="150" to="0" dur="1.8s" begin="8.4s" fill="freeze" /></path><text x="90" y="120" id="reset-kvg-09f21-Kaisho">⟳</text><text x="70" y="120" id="pause-kvg-09f21-Kaisho">◼</text><script type="text/javascript"><![CDATA[function RecurringTimer(e,t){var n,r,i=t;this.pause=function(){window.clearTimeout(n);i-=new Date-r};var s=function(){r=new Date;n=window.setTimeout(function(){i=t;s();e()},i)};this.clear=function(){window.clearTimeout(n);i=t;n=window.setTimeout(function(){i=t;s();e()},i)};this.resume=s;this.resume()}function invoketimer(){timer=new RecurringTimer(function(){svg.setCurrentTime(0)},10800.0)}var svg=document.getElementById("kvg-09f21-Kaisho");var pause=document.getElementById("pause-kvg-09f21-Kaisho");var reset=document.getElementById("reset-kvg-09f21-Kaisho");var timer;invoketimer();reset.onclick=function(){svg.setCurrentTime(0);timer.clear();svg.unpauseAnimations();pause.innerHTML = "◼";};pause.onclick=function(){if(svg.animationsPaused()){svg.unpauseAnimations();timer.resume();pause.innerHTML="◼"}else{svg.pauseAnimations();timer.pause();pause.innerHTML="▶"}}]]></script></svg>