<svg id="kvg-09f4e-Kaisho" class="kanjivg" width="106" height="126" xmlns="http://www.w3.org/2000/svg" xmlns:xlink="http://www.w3.org/1999/xlink" xml:space="preserve" version="1.1" baseProfile="full"><defs><style type="text/css"><![CDATA[path.black{fill:none;stroke:black;stroke-width:5;stroke-linecap:round;stroke-linejoin:round;}path.grey{fill:none;stroke:#ddd;stroke-width:5;stroke-linecap:round;stroke-linejoin:round;}path.stroke{fill:none;stroke:black;stroke-width:5;stroke-linecap:round;stroke-linejoin:round;}rect{fill:none;stroke:#555;stroke-width:2;} text{font-size:16px;font-family:Segoe UI Symbol,Cambria Math,DejaVu Sans,Symbola,Quivira,STIX,Code2000;-webkit-touch-callout:none;cursor:pointer;-webkit-user-select:none;-khtml-user-select:none;-moz-user-select:none;-ms-user-select:none;user-select: none;}text:hover{color:#777;}#reset{font-weight:bold;}]]></style><marker id="markerStart" markerWidth="8" markerHeight="8" style="overflow:visible;"><circle cx="0" cy="0" r="1.5" style="stroke:none;fill:red;fill-opacity:0.5;"/></marker><marker id="markerEnd" style="overflow:visible;"><circle cx="0" cy="0" r="0.8" style="stroke:none;fill:blue;fill-opacity:0.5;"><animate attributeName="opacity" from="1" to="0" dur="3s" repeatCount="indefinite" /></circle></marker></defs><rect x="4" y="4" width="100" height="100" /><path d="M50.62,10.25c1.93,0.65,4.13,2.75,5.11,4.45" class="grey" /><path d="M18.83,20.69c2.13,0.34,4.01,0.71,6.45,0.48C37.5,20,67.28,17.48,84.27,16.79c2.5-0.1,3.78,0.04,5.64,0.61" class="grey" /><path d="M44.52,23.08c1.69,1.08,4.37,4.45,4.79,6.13" class="grey" /><path d="M61.78,21.14c0.02,0.2,0.04,0.51-0.04,0.79c-0.48,1.66-3.2,5.31-6.94,7.54" class="grey" /><path d="M53.31,30.33c0.42,0.4,0.72,0.86,0.76,2.17c0.17,6.28-0.01,11.61-0.01,13.75" class="grey" /><path d="M21.6,30.84c0.49,0.21,1.55,0.19,1.98,0.11c3.52-0.59,15.51-2.16,17.47-2.37c1.27-0.14,1.68,0.64,1.55,1.62c-0.73,5.46-2.25,10.89-4.48,15.04c-1.17,2.18-2.53,1.48-3.38-0.21" class="grey" /><path d="M30.97,32.02c0.04,0.35,0.09,0.91-0.07,1.42c-1.17,3.74-6.15,9.02-12.5,13.57" class="grey" /><path d="M79.97,22.39c0.03,0.18,0.06,0.48-0.06,0.74c-0.69,1.56-5.25,5.37-10.63,7.46" class="grey" /><path d="M67.75,29.27c0.41,0.61,0.71,1.43,0.71,2.34c0,0.92-0.1,9.82-0.1,11.25c0,1.43,0.1,1.83,1.42,0.81c1.32-1.02,8.29-5.56,9.1-6.17" class="grey" /><path d="M76.12,26.86c3.63,4.89,6.38,8.14,12.31,14.29c1.2,1.24,3.27,1.73,5.06,2.35" class="grey" /><path d="M30.82,51.32c1.05,0.62,1.43,2.2,1.43,2.88c0,3.65-0.2,15.37-0.32,16.77c-0.69,8.03-3.35,18.94-13.72,25.75" class="grey" /><path d="M41.8,51.32c0.58-0.07,1.59,0.31,2.94,0.23c4.77-0.3,11.77-1.05,15.52-1.2c2.54-0.1,4.34-0.3,5-0.35" class="grey" /><path d="M38.79,58.13c1.71,0.12,1.97,0.26,3.96,0.11c10-0.75,14.41-1.52,22.77-1.97c2.13-0.12,3.77-0.2,4.7-0.23" class="grey" /><path d="M43.1,64.87c0.35,0.52,0.86,0.9,0.86,1.6c0,0.71,0.16,18.9-0.26,21.88" class="grey" /><path d="M44.54,65.43c1.98-0.15,17.1-2.31,18.89-2.63c1.2-0.22,2.12,0.65,2.31,1.77c0.26,1.59-0.44,22-0.44,22.53" class="grey" /><path d="M44,72.58c3.61-0.31,7.22-0.75,10.82-1.14c1.11-0.12,2.22-0.24,3.28-0.35" class="grey" /><path d="M44.16,79.63c3.48-0.35,6.95-0.74,10.43-1.08c0.96-0.09,2.42-0.19,3.37-0.28" class="grey" /><path d="M43.91,86.95c5.59-0.47,16.27-1.59,21.37-1.75" class="grey" /><path d="M47.95,91.13c0.34,0.75-0.26,1.48-0.94,2.02c-2.04,1.65-7.41,5.16-11.5,7.1" class="grey" /><path d="M59.57,90.77c4.04,2.31,8.81,6.49,9.91,8.51" class="grey" /><path d="M78.22,47.51c0.69,0.56,1.83,2.71,1.83,3.83c0,4.4-0.02,44.65-0.09,47.8" class="grey" /><path d="M50.62,10.25c1.93,0.65,4.13,2.75,5.11,4.45" class="stroke" stroke-dasharray="150"><animate attributeName="stroke-dashoffset" from="150" to="0" dur="1.8s" begin="0.0s" fill="freeze" /></path><path d="M18.83,20.69c2.13,0.34,4.01,0.71,6.45,0.48C37.5,20,67.28,17.48,84.27,16.79c2.5-0.1,3.78,0.04,5.64,0.61" class="stroke" stroke-dasharray="150"><set attributeName="opacity" to="0" dur="0.9s" /><animate attributeName="stroke-dashoffset" from="150" to="0" dur="1.8s" begin="0.9s" fill="freeze" /></path><path d="M44.52,23.08c1.69,1.08,4.37,4.45,4.79,6.13" class="stroke" stroke-dasharray="150"><set attributeName="opacity" to="0" dur="2.6s" /><animate attributeName="stroke-dashoffset" from="150" to="0" dur="1.8s" begin="2.6s" fill="freeze" /></path><path d="M61.78,21.14c0.02,0.2,0.04,0.51-0.04,0.79c-0.48,1.66-3.2,5.31-6.94,7.54" class="stroke" stroke-dasharray="150"><set attributeName="opacity" to="0" dur="3.5s" /><animate attributeName="stroke-dashoffset" from="150" to="0" dur="1.8s" begin="3.5s" fill="freeze" /></path><path d="M53.31,30.33c0.42,0.4,0.72,0.86,0.76,2.17c0.17,6.28-0.01,11.61-0.01,13.75" class="stroke" stroke-dasharray="150"><set attributeName="opacity" to="0" dur="4.4s" /><animate attributeName="stroke-dashoffset" from="150" to="0" dur="1.8s" begin="4.4s" fill="freeze" /></path><path d="M21.6,30.84c0.49,0.21,1.55,0.19,1.98,0.11c3.52-0.59,15.51-2.16,17.47-2.37c1.27-0.14,1.68,0.64,1.55,1.62c-0.73,5.46-2.25,10.89-4.48,15.04c-1.17,2.18-2.53,1.48-3.38-0.21" class="stroke" stroke-dasharray="150"><set attributeName="opacity" to="0" dur="5.300000000000001s" /><animate attributeName="stroke-dashoffset" from="150" to="0" dur="1.8s" begin="5.300000000000001s" fill="freeze" /></path><path d="M30.97,32.02c0.04,0.35,0.09,0.91-0.07,1.42c-1.17,3.74-6.15,9.02-12.5,13.57" class="stroke" stroke-dasharray="150"><set attributeName="opacity" to="0" dur="6.4s" /><animate attributeName="stroke-dashoffset" from="150" to="0" dur="1.8s" begin="6.4s" fill="freeze" /></path><path d="M79.97,22.39c0.03,0.18,0.06,0.48-0.06,0.74c-0.69,1.56-5.25,5.37-10.63,7.46" class="stroke" stroke-dasharray="150"><set attributeName="opacity" to="0" dur="7.4s" /><animate attributeName="stroke-dashoffset" from="150" to="0" dur="1.8s" begin="7.4s" fill="freeze" /></path><path d="M67.75,29.27c0.41,0.61,0.71,1.43,0.71,2.34c0,0.92-0.1,9.82-0.1,11.25c0,1.43,0.1,1.83,1.42,0.81c1.32-1.02,8.29-5.56,9.1-6.17" class="stroke" stroke-dasharray="150"><set attributeName="opacity" to="0" dur="8.3s" /><animate attributeName="stroke-dashoffset" from="150" to="0" dur="1.8s" begin="8.3s" fill="freeze" /></path><path d="M76.12,26.86c3.63,4.89,6.38,8.14,12.31,14.29c1.2,1.24,3.27,1.73,5.06,2.35" class="stroke" stroke-dasharray="150"><set attributeName="opacity" to="0" dur="9.3s" /><animate attributeName="stroke-dashoffset" from="150" to="0" dur="1.8s" begin="9.3s" fill="freeze" /></path><path d="M30.82,51.32c1.05,0.62,1.43,2.2,1.43,2.88c0,3.65-0.2,15.37-0.32,16.77c-0.69,8.03-3.35,18.94-13.72,25.75" class="stroke" stroke-dasharray="150"><set attributeName="opacity" to="0" dur="10.3s" /><animate attributeName="stroke-dashoffset" from="150" to="0" dur="1.8s" begin="10.3s" fill="freeze" /></path><path d="M41.8,51.32c0.58-0.07,1.59,0.31,2.94,0.23c4.77-0.3,11.77-1.05,15.52-1.2c2.54-0.1,4.34-0.3,5-0.35" class="stroke" stroke-dasharray="150"><set attributeName="opacity" to="0" dur="11.600000000000001s" /><animate attributeName="stroke-dashoffset" from="150" to="0" dur="1.8s" begin="11.600000000000001s" fill="freeze" /></path><path d="M38.79,58.13c1.71,0.12,1.97,0.26,3.96,0.11c10-0.75,14.41-1.52,22.77-1.97c2.13-0.12,3.77-0.2,4.7-0.23" class="stroke" stroke-dasharray="150"><set attributeName="opacity" to="0" dur="12.600000000000001s" /><animate attributeName="stroke-dashoffset" from="150" to="0" dur="1.8s" begin="12.600000000000001s" fill="freeze" /></path><path d="M43.1,64.87c0.35,0.52,0.86,0.9,0.86,1.6c0,0.71,0.16,18.9-0.26,21.88" class="stroke" stroke-dasharray="150"><set attributeName="opacity" to="0" dur="13.600000000000001s" /><animate attributeName="stroke-dashoffset" from="150" to="0" dur="1.8s" begin="13.600000000000001s" fill="freeze" /></path><path d="M44.54,65.43c1.98-0.15,17.1-2.31,18.89-2.63c1.2-0.22,2.12,0.65,2.31,1.77c0.26,1.59-0.44,22-0.44,22.53" class="stroke" stroke-dasharray="150"><set attributeName="opacity" to="0" dur="14.600000000000001s" /><animate attributeName="stroke-dashoffset" from="150" to="0" dur="1.8s" begin="14.600000000000001s" fill="freeze" /></path><path d="M44,72.58c3.61-0.31,7.22-0.75,10.82-1.14c1.11-0.12,2.22-0.24,3.28-0.35" class="stroke" stroke-dasharray="150"><set attributeName="opacity" to="0" dur="15.700000000000001s" /><animate attributeName="stroke-dashoffset" from="150" to="0" dur="1.8s" begin="15.700000000000001s" fill="freeze" /></path><path d="M44.16,79.63c3.48-0.35,6.95-0.74,10.43-1.08c0.96-0.09,2.42-0.19,3.37-0.28" class="stroke" stroke-dasharray="150"><set attributeName="opacity" to="0" dur="16.6s" /><animate attributeName="stroke-dashoffset" from="150" to="0" dur="1.8s" begin="16.6s" fill="freeze" /></path><path d="M43.91,86.95c5.59-0.47,16.27-1.59,21.37-1.75" class="stroke" stroke-dasharray="150"><set attributeName="opacity" to="0" dur="17.5s" /><animate attributeName="stroke-dashoffset" from="150" to="0" dur="1.8s" begin="17.5s" fill="freeze" /></path><path d="M47.95,91.13c0.34,0.75-0.26,1.48-0.94,2.02c-2.04,1.65-7.41,5.16-11.5,7.1" class="stroke" stroke-dasharray="150"><set attributeName="opacity" to="0" dur="18.5s" /><animate attributeName="stroke-dashoffset" from="150" to="0" dur="1.8s" begin="18.5s" fill="freeze" /></path><path d="M59.57,90.77c4.04,2.31,8.81,6.49,9.91,8.51" class="stroke" stroke-dasharray="150"><set attributeName="opacity" to="0" dur="19.4s" /><animate attributeName="stroke-dashoffset" from="150" to="0" dur="1.8s" begin="19.4s" fill="freeze" /></path><path d="M78.22,47.51c0.69,0.56,1.83,2.71,1.83,3.83c0,4.4-0.02,44.65-0.09,47.8" class="stroke" stroke-dasharray="150"><set attributeName="opacity" to="0" dur="20.299999999999997s" /><animate attributeName="stroke-dashoffset" from="150" to="0" dur="1.8s" begin="20.299999999999997s" fill="freeze" /></path><text x="90" y="120" id="reset-kvg-09f4e-Kaisho">⟳</text><text x="70" y="120" id="pause-kvg-09f4e-Kaisho">◼</text><script type="text/javascript"><![CDATA[function RecurringTimer(e,t){var n,r,i=t;this.pause=function(){window.clearTimeout(n);i-=new Date-r};var s=function(){r=new Date;n=window.setTimeout(function(){i=t;s();e()},i)};this.clear=function(){window.clearTimeout(n);i=t;n=window.setTimeout(function(){i=t;s();e()},i)};this.resume=s;this.resume()}function invoketimer(){timer=new RecurringTimer(function(){svg.setCurrentTime(0)},22599.999999999996)}var svg=document.getElementById("kvg-09f4e-Kaisho");var pause=document.getElementById("pause-kvg-09f4e-Kaisho");var reset=document.getElementById("reset-kvg-09f4e-Kaisho");var timer;invoketimer();reset.onclick=function(){svg.setCurrentTime(0);timer.clear();svg.unpauseAnimations();pause.innerHTML = "◼";};pause.onclick=function(){if(svg.animationsPaused()){svg.unpauseAnimations();timer.resume();pause.innerHTML="◼"}else{svg.pauseAnimations();timer.pause();pause.innerHTML="▶"}}]]></script></svg>