<svg id="kvg-09f6c" class="kanjivg" width="106" height="126" xmlns="http://www.w3.org/2000/svg" xmlns:xlink="http://www.w3.org/1999/xlink" xml:space="preserve" version="1.1" baseProfile="full"><defs><style type="text/css"><![CDATA[path.black{fill:none;stroke:black;stroke-width:5;stroke-linecap:round;stroke-linejoin:round;}path.grey{fill:none;stroke:#ddd;stroke-width:5;stroke-linecap:round;stroke-linejoin:round;}path.stroke{fill:none;stroke:black;stroke-width:5;stroke-linecap:round;stroke-linejoin:round;}rect{fill:none;stroke:#555;stroke-width:2;} text{font-size:16px;font-family:Segoe UI Symbol,Cambria Math,DejaVu Sans,Symbola,Quivira,STIX,Code2000;-webkit-touch-callout:none;cursor:pointer;-webkit-user-select:none;-khtml-user-select:none;-moz-user-select:none;-ms-user-select:none;user-select: none;}text:hover{color:#777;}#reset{font-weight:bold;}]]></style><marker id="markerStart" markerWidth="8" markerHeight="8" style="overflow:visible;"><circle cx="0" cy="0" r="1.5" style="stroke:none;fill:red;fill-opacity:0.5;"/></marker><marker id="markerEnd" style="overflow:visible;"><circle cx="0" cy="0" r="0.8" style="stroke:none;fill:blue;fill-opacity:0.5;"><animate attributeName="opacity" from="1" to="0" dur="3s" repeatCount="indefinite" /></circle></marker></defs><rect x="4" y="4" width="100" height="100" /><path d="M32.09,12c0.65,0.51,1.17,2.25,1.17,3.29c0,5.31,0.17,11.92,0.17,16.98" class="grey" /><path d="M33.39,22.89c5.06-0.76,9.35-1.02,14.67-1.53c1.24-0.12,1.55-0.25,2.32,0" class="grey" /><path d="M19.99,18.08c0.65,0.51,1.04,2.28,1.17,3.29c0.13,1.01,0,5.84-0.13,12.17" class="grey" /><path d="M11,33.54c0.61,0.25,2.23,0.85,3.85,0.76c8.73-0.51,24.76-2.55,33.03-2.55c1.62,0,4.44,0.01,5.37,0.26" class="grey" /><path d="M27.97,39.06c0.11,0.19-0.06,1.93-0.14,2.34c-0.93,4.55-3.34,12-6.77,16.28" class="grey" /><path d="M26.77,46.41c2.04,0.99,4.64,3.64,5.63,6.14" class="grey" /><path d="M41.59,39.56c0.15,0.18-0.07,1.87-0.19,2.28c-1.22,4.42-4.37,11.67-8.87,15.83" class="grey" /><path d="M39.15,49.15c1.76,1.11,4.02,4.08,4.88,6.89" class="grey" /><path d="M15.91,64.13c2.1,0,31.07-1.79,33.03-1.79" class="grey" /><path d="M28.46,69.42c0.14,0.17-0.07,1.77-0.18,2.16c-1.2,4.18-4.3,11.03-8.72,14.97" class="grey" /><path d="M27.02,77.26c1.37,0.87,3.11,3.18,3.78,5.37" class="grey" /><path d="M40.19,68.9c0.15,0.2-0.08,2.01-0.19,2.44c-1.27,4.73-4.57,12.48-9.26,16.94" class="grey" /><path d="M38.2,77.48c1.93,1.28,4.39,4.68,5.33,7.9" class="grey" /><path d="M14.8,41.26c0.46,0.45,1.32,1.89,1.21,4.3c-0.04,0.92-0.26,45.15-0.3,46.53c-0.04,1.38,0.39,2.48,1.29,2.42c11-0.76,22.77-1.3,31.94-1.81" class="grey" /><path d="M48.16,37.71c0.28,0.45,0.89,3.39,0.94,4.3s-0.12,33.25-0.09,54.38" class="grey" /><path d="M62.04,18.65c0.85,0.26,2.41,0.19,3.27,0.15c5.91-0.26,19.2-1.55,24.91-2.15c1.42-0.15,2.28,0.04,2.99,0.15" class="grey" /><path d="M74.25,20.25c0.37,0.29,0.48,2.34,0.34,3.05c-1.34,6.84-7.19,23.63-8.6,27.95" class="grey" /><path d="M59.93,33.71c0.79,0.4,2.88,0.51,3.53,0.46c9.05-0.67,13.3-1.67,19.81-2.4c1.5-0.17,3.21,1.23,3.21,2.93c0,2.91-1.27,8.67-2.48,15.05" class="grey" /><path d="M54.33,52.46c1.15,0.24,3.99,0.18,5.14,0.08c6.29-0.54,27.8-2.29,34.24-2.52c1.92-0.07,3.8-0.02,4.76,0.09" class="grey" /><path d="M60.27,64.88c0.36,0.51,0.72,0.94,0.88,1.58c1.24,5.09,2.72,19.14,3.57,28.28" class="grey" /><path d="M61.86,67.29C73.25,66,83,65.58,88.84,65.02c2.14-0.21,3.42,1.22,3.11,2.43c-1.27,5-2.96,15.3-4.63,22.96" class="grey" /><path d="M64.7,92.24C71.57,91.61,81,91,90.96,90.53" class="grey" /><path d="M32.09,12c0.65,0.51,1.17,2.25,1.17,3.29c0,5.31,0.17,11.92,0.17,16.98" class="stroke" stroke-dasharray="150"><animate attributeName="stroke-dashoffset" from="150" to="0" dur="1.8s" begin="0.0s" fill="freeze" /></path><path d="M33.39,22.89c5.06-0.76,9.35-1.02,14.67-1.53c1.24-0.12,1.55-0.25,2.32,0" class="stroke" stroke-dasharray="150"><set attributeName="opacity" to="0" dur="1.0s" /><animate attributeName="stroke-dashoffset" from="150" to="0" dur="1.8s" begin="1.0s" fill="freeze" /></path><path d="M19.99,18.08c0.65,0.51,1.04,2.28,1.17,3.29c0.13,1.01,0,5.84-0.13,12.17" class="stroke" stroke-dasharray="150"><set attributeName="opacity" to="0" dur="1.9s" /><animate attributeName="stroke-dashoffset" from="150" to="0" dur="1.8s" begin="1.9s" fill="freeze" /></path><path d="M11,33.54c0.61,0.25,2.23,0.85,3.85,0.76c8.73-0.51,24.76-2.55,33.03-2.55c1.62,0,4.44,0.01,5.37,0.26" class="stroke" stroke-dasharray="150"><set attributeName="opacity" to="0" dur="2.8s" /><animate attributeName="stroke-dashoffset" from="150" to="0" dur="1.8s" begin="2.8s" fill="freeze" /></path><path d="M27.97,39.06c0.11,0.19-0.06,1.93-0.14,2.34c-0.93,4.55-3.34,12-6.77,16.28" class="stroke" stroke-dasharray="150"><set attributeName="opacity" to="0" dur="3.9s" /><animate attributeName="stroke-dashoffset" from="150" to="0" dur="1.8s" begin="3.9s" fill="freeze" /></path><path d="M26.77,46.41c2.04,0.99,4.64,3.64,5.63,6.14" class="stroke" stroke-dasharray="150"><set attributeName="opacity" to="0" dur="4.9s" /><animate attributeName="stroke-dashoffset" from="150" to="0" dur="1.8s" begin="4.9s" fill="freeze" /></path><path d="M41.59,39.56c0.15,0.18-0.07,1.87-0.19,2.28c-1.22,4.42-4.37,11.67-8.87,15.83" class="stroke" stroke-dasharray="150"><set attributeName="opacity" to="0" dur="5.800000000000001s" /><animate attributeName="stroke-dashoffset" from="150" to="0" dur="1.8s" begin="5.800000000000001s" fill="freeze" /></path><path d="M39.15,49.15c1.76,1.11,4.02,4.08,4.88,6.89" class="stroke" stroke-dasharray="150"><set attributeName="opacity" to="0" dur="6.800000000000001s" /><animate attributeName="stroke-dashoffset" from="150" to="0" dur="1.8s" begin="6.800000000000001s" fill="freeze" /></path><path d="M15.91,64.13c2.1,0,31.07-1.79,33.03-1.79" class="stroke" stroke-dasharray="150"><set attributeName="opacity" to="0" dur="7.700000000000001s" /><animate attributeName="stroke-dashoffset" from="150" to="0" dur="1.8s" begin="7.700000000000001s" fill="freeze" /></path><path d="M28.46,69.42c0.14,0.17-0.07,1.77-0.18,2.16c-1.2,4.18-4.3,11.03-8.72,14.97" class="stroke" stroke-dasharray="150"><set attributeName="opacity" to="0" dur="8.700000000000001s" /><animate attributeName="stroke-dashoffset" from="150" to="0" dur="1.8s" begin="8.700000000000001s" fill="freeze" /></path><path d="M27.02,77.26c1.37,0.87,3.11,3.18,3.78,5.37" class="stroke" stroke-dasharray="150"><set attributeName="opacity" to="0" dur="9.600000000000001s" /><animate attributeName="stroke-dashoffset" from="150" to="0" dur="1.8s" begin="9.600000000000001s" fill="freeze" /></path><path d="M40.19,68.9c0.15,0.2-0.08,2.01-0.19,2.44c-1.27,4.73-4.57,12.48-9.26,16.94" class="stroke" stroke-dasharray="150"><set attributeName="opacity" to="0" dur="10.500000000000002s" /><animate attributeName="stroke-dashoffset" from="150" to="0" dur="1.8s" begin="10.500000000000002s" fill="freeze" /></path><path d="M38.2,77.48c1.93,1.28,4.39,4.68,5.33,7.9" class="stroke" stroke-dasharray="150"><set attributeName="opacity" to="0" dur="11.500000000000002s" /><animate attributeName="stroke-dashoffset" from="150" to="0" dur="1.8s" begin="11.500000000000002s" fill="freeze" /></path><path d="M14.8,41.26c0.46,0.45,1.32,1.89,1.21,4.3c-0.04,0.92-0.26,45.15-0.3,46.53c-0.04,1.38,0.39,2.48,1.29,2.42c11-0.76,22.77-1.3,31.94-1.81" class="stroke" stroke-dasharray="150"><set attributeName="opacity" to="0" dur="12.400000000000002s" /><animate attributeName="stroke-dashoffset" from="150" to="0" dur="1.8s" begin="12.400000000000002s" fill="freeze" /></path><path d="M48.16,37.71c0.28,0.45,0.89,3.39,0.94,4.3s-0.12,33.25-0.09,54.38" class="stroke" stroke-dasharray="150"><set attributeName="opacity" to="0" dur="14.100000000000001s" /><animate attributeName="stroke-dashoffset" from="150" to="0" dur="1.8s" begin="14.100000000000001s" fill="freeze" /></path><path d="M62.04,18.65c0.85,0.26,2.41,0.19,3.27,0.15c5.91-0.26,19.2-1.55,24.91-2.15c1.42-0.15,2.28,0.04,2.99,0.15" class="stroke" stroke-dasharray="150"><set attributeName="opacity" to="0" dur="15.500000000000002s" /><animate attributeName="stroke-dashoffset" from="150" to="0" dur="1.8s" begin="15.500000000000002s" fill="freeze" /></path><path d="M74.25,20.25c0.37,0.29,0.48,2.34,0.34,3.05c-1.34,6.84-7.19,23.63-8.6,27.95" class="stroke" stroke-dasharray="150"><set attributeName="opacity" to="0" dur="16.5s" /><animate attributeName="stroke-dashoffset" from="150" to="0" dur="1.8s" begin="16.5s" fill="freeze" /></path><path d="M59.93,33.71c0.79,0.4,2.88,0.51,3.53,0.46c9.05-0.67,13.3-1.67,19.81-2.4c1.5-0.17,3.21,1.23,3.21,2.93c0,2.91-1.27,8.67-2.48,15.05" class="stroke" stroke-dasharray="150"><set attributeName="opacity" to="0" dur="17.5s" /><animate attributeName="stroke-dashoffset" from="150" to="0" dur="1.8s" begin="17.5s" fill="freeze" /></path><path d="M54.33,52.46c1.15,0.24,3.99,0.18,5.14,0.08c6.29-0.54,27.8-2.29,34.24-2.52c1.92-0.07,3.8-0.02,4.76,0.09" class="stroke" stroke-dasharray="150"><set attributeName="opacity" to="0" dur="18.6s" /><animate attributeName="stroke-dashoffset" from="150" to="0" dur="1.8s" begin="18.6s" fill="freeze" /></path><path d="M60.27,64.88c0.36,0.51,0.72,0.94,0.88,1.58c1.24,5.09,2.72,19.14,3.57,28.28" class="stroke" stroke-dasharray="150"><set attributeName="opacity" to="0" dur="19.700000000000003s" /><animate attributeName="stroke-dashoffset" from="150" to="0" dur="1.8s" begin="19.700000000000003s" fill="freeze" /></path><path d="M61.86,67.29C73.25,66,83,65.58,88.84,65.02c2.14-0.21,3.42,1.22,3.11,2.43c-1.27,5-2.96,15.3-4.63,22.96" class="stroke" stroke-dasharray="150"><set attributeName="opacity" to="0" dur="20.700000000000003s" /><animate attributeName="stroke-dashoffset" from="150" to="0" dur="1.8s" begin="20.700000000000003s" fill="freeze" /></path><path d="M64.7,92.24C71.57,91.61,81,91,90.96,90.53" class="stroke" stroke-dasharray="150"><set attributeName="opacity" to="0" dur="22.1s" /><animate attributeName="stroke-dashoffset" from="150" to="0" dur="1.8s" begin="22.1s" fill="freeze" /></path><text x="90" y="120" id="reset-kvg-09f6c">⟳</text><text x="70" y="120" id="pause-kvg-09f6c">◼</text><script type="text/javascript"><![CDATA[function RecurringTimer(e,t){var n,r,i=t;this.pause=function(){window.clearTimeout(n);i-=new Date-r};var s=function(){r=new Date;n=window.setTimeout(function(){i=t;s();e()},i)};this.clear=function(){window.clearTimeout(n);i=t;n=window.setTimeout(function(){i=t;s();e()},i)};this.resume=s;this.resume()}function invoketimer(){timer=new RecurringTimer(function(){svg.setCurrentTime(0)},24100.0)}var svg=document.getElementById("kvg-09f6c");var pause=document.getElementById("pause-kvg-09f6c");var reset=document.getElementById("reset-kvg-09f6c");var timer;invoketimer();reset.onclick=function(){svg.setCurrentTime(0);timer.clear();svg.unpauseAnimations();pause.innerHTML = "◼";};pause.onclick=function(){if(svg.animationsPaused()){svg.unpauseAnimations();timer.resume();pause.innerHTML="◼"}else{svg.pauseAnimations();timer.pause();pause.innerHTML="▶"}}]]></script></svg>