<svg id="kvg-0342c" class="kanjivg" width="106" height="126" xmlns="http://www.w3.org/2000/svg" xmlns:xlink="http://www.w3.org/1999/xlink" xml:space="preserve" version="1.1" baseProfile="full"><defs><style type="text/css"><![CDATA[path.black{fill:none;stroke:black;stroke-width:5;stroke-linecap:round;stroke-linejoin:round;}path.grey{fill:none;stroke:#ddd;stroke-width:5;stroke-linecap:round;stroke-linejoin:round;}path.stroke{fill:none;stroke:black;stroke-width:5;stroke-linecap:round;stroke-linejoin:round;}rect{fill:none;stroke:#555;stroke-width:2;} text{font-size:16px;font-family:Segoe UI Symbol,Cambria Math,DejaVu Sans,Symbola,Quivira,STIX,Code2000;-webkit-touch-callout:none;cursor:pointer;-webkit-user-select:none;-khtml-user-select:none;-moz-user-select:none;-ms-user-select:none;user-select: none;}text:hover{color:#777;}#reset{font-weight:bold;}]]></style><marker id="markerStart" markerWidth="8" markerHeight="8" style="overflow:visible;"><circle cx="0" cy="0" r="1.5" style="stroke:none;fill:red;fill-opacity:0.5;"/></marker><marker id="markerEnd" style="overflow:visible;"><circle cx="0" cy="0" r="0.8" style="stroke:none;fill:blue;fill-opacity:0.5;"><animate attributeName="opacity" from="1" to="0" dur="3s" repeatCount="indefinite" /></circle></marker></defs><rect x="4" y="4" width="100" height="100" /><path d="M49.006179,6.3643159C50.501036,7.4395806,50.949493,8.8159195,50.949493,9.7191418C50.949493,13.009452,51.054132,18.72986,51.054132,22.396513" class="grey" /><path d="M17.031205,25.47177C21.426083,25.83736,24.909098,25.762091,28.885415,25.374996C41.980355,24.063173,65.748569,21.407269,79.725474,20.654584C82.999209,20.482541,86.571916,20.159962,89.726062,21.009421" class="grey" /><path d="M46.569564,26.514776C47.018021,27.858857,46.479873,29.235196,46.001519,29.729818C42.712835,33.235181,36.73341,38.740536,32.413276,42.353425C28.720981,45.439435,30.215837,46.503947,34.595766,45.665241C46.524718,43.38568,56.764483,41.331924,71.115103,39.020105" class="grey" /><path d="M62.51968,30.009387C68.768178,33.138407,78.649178,42.8588,80.203828,47.718996" class="grey" /><path d="M29.064798,59.192071C29.991609,59.858735,30.156043,61.192063,30.096249,62.460875C29.45346,76.912433,25.71632,87.944649,9.3625931,95.568275" class="grey" /><path d="M47.421632,52.987793C48.916488,54.063058,49.305151,55.417892,49.305151,57.310357C49.305151,64.643663,49.305151,77.105981,49.305151,84.987671C49.305151,88.826366,49.305151,91.579043,49.305151,92.105923" class="grey" /><path d="M69.216635,51.912529C70.636749,52.93403,70.890874,54.331874,70.890874,56.407135C70.890874,65.213553,70.846029,77.79415,70.846029,83.772622C70.846029,93.450004,72.430576,94.28871,83.059004,94.28871C95.227133,94.28871,96.348275,92.912372,96.348275,84.482296" class="grey" /><path d="M49.006179,6.3643159C50.501036,7.4395806,50.949493,8.8159195,50.949493,9.7191418C50.949493,13.009452,51.054132,18.72986,51.054132,22.396513" class="stroke" stroke-dasharray="150"><animate attributeName="stroke-dashoffset" from="150" to="0" dur="1.8s" begin="0.0s" fill="freeze" /></path><path d="M17.031205,25.47177C21.426083,25.83736,24.909098,25.762091,28.885415,25.374996C41.980355,24.063173,65.748569,21.407269,79.725474,20.654584C82.999209,20.482541,86.571916,20.159962,89.726062,21.009421" class="stroke" stroke-dasharray="150"><set attributeName="opacity" to="0" dur="0.9s" /><animate attributeName="stroke-dashoffset" from="150" to="0" dur="1.8s" begin="0.9s" fill="freeze" /></path><path d="M46.569564,26.514776C47.018021,27.858857,46.479873,29.235196,46.001519,29.729818C42.712835,33.235181,36.73341,38.740536,32.413276,42.353425C28.720981,45.439435,30.215837,46.503947,34.595766,45.665241C46.524718,43.38568,56.764483,41.331924,71.115103,39.020105" class="stroke" stroke-dasharray="150"><set attributeName="opacity" to="0" dur="2.6s" /><animate attributeName="stroke-dashoffset" from="150" to="0" dur="1.8s" begin="2.6s" fill="freeze" /></path><path d="M62.51968,30.009387C68.768178,33.138407,78.649178,42.8588,80.203828,47.718996" class="stroke" stroke-dasharray="150"><set attributeName="opacity" to="0" dur="4.1s" /><animate attributeName="stroke-dashoffset" from="150" to="0" dur="1.8s" begin="4.1s" fill="freeze" /></path><path d="M29.064798,59.192071C29.991609,59.858735,30.156043,61.192063,30.096249,62.460875C29.45346,76.912433,25.71632,87.944649,9.3625931,95.568275" class="stroke" stroke-dasharray="150"><set attributeName="opacity" to="0" dur="5.1s" /><animate attributeName="stroke-dashoffset" from="150" to="0" dur="1.8s" begin="5.1s" fill="freeze" /></path><path d="M47.421632,52.987793C48.916488,54.063058,49.305151,55.417892,49.305151,57.310357C49.305151,64.643663,49.305151,77.105981,49.305151,84.987671C49.305151,88.826366,49.305151,91.579043,49.305151,92.105923" class="stroke" stroke-dasharray="150"><set attributeName="opacity" to="0" dur="6.3s" /><animate attributeName="stroke-dashoffset" from="150" to="0" dur="1.8s" begin="6.3s" fill="freeze" /></path><path d="M69.216635,51.912529C70.636749,52.93403,70.890874,54.331874,70.890874,56.407135C70.890874,65.213553,70.846029,77.79415,70.846029,83.772622C70.846029,93.450004,72.430576,94.28871,83.059004,94.28871C95.227133,94.28871,96.348275,92.912372,96.348275,84.482296" class="stroke" stroke-dasharray="150"><set attributeName="opacity" to="0" dur="7.3s" /><animate attributeName="stroke-dashoffset" from="150" to="0" dur="1.8s" begin="7.3s" fill="freeze" /></path><text x="90" y="120" id="reset-kvg-0342c">⟳</text><text x="70" y="120" id="pause-kvg-0342c">◼</text><script type="text/javascript"><![CDATA[function RecurringTimer(e,t){var n,r,i=t;this.pause=function(){window.clearTimeout(n);i-=new Date-r};var s=function(){r=new Date;n=window.setTimeout(function(){i=t;s();e()},i)};this.clear=function(){window.clearTimeout(n);i=t;n=window.setTimeout(function(){i=t;s();e()},i)};this.resume=s;this.resume()}function invoketimer(){timer=new RecurringTimer(function(){svg.setCurrentTime(0)},10000.0)}var svg=document.getElementById("kvg-0342c");var pause=document.getElementById("pause-kvg-0342c");var reset=document.getElementById("reset-kvg-0342c");var timer;invoketimer();reset.onclick=function(){svg.setCurrentTime(0);timer.clear();svg.unpauseAnimations();pause.innerHTML = "◼";};pause.onclick=function(){if(svg.animationsPaused()){svg.unpauseAnimations();timer.resume();pause.innerHTML="◼"}else{svg.pauseAnimations();timer.pause();pause.innerHTML="▶"}}]]></script></svg>