<svg id="kvg-04e21" class="kanjivg" width="106" height="126" xmlns="http://www.w3.org/2000/svg" xmlns:xlink="http://www.w3.org/1999/xlink" xml:space="preserve" version="1.1" baseProfile="full"><defs><style type="text/css"><![CDATA[path.black{fill:none;stroke:black;stroke-width:5;stroke-linecap:round;stroke-linejoin:round;}path.grey{fill:none;stroke:#ddd;stroke-width:5;stroke-linecap:round;stroke-linejoin:round;}path.stroke{fill:none;stroke:black;stroke-width:5;stroke-linecap:round;stroke-linejoin:round;}rect{fill:none;stroke:#555;stroke-width:2;} text{font-size:16px;font-family:Segoe UI Symbol,Cambria Math,DejaVu Sans,Symbola,Quivira,STIX,Code2000;-webkit-touch-callout:none;cursor:pointer;-webkit-user-select:none;-khtml-user-select:none;-moz-user-select:none;-ms-user-select:none;user-select: none;}text:hover{color:#777;}#reset{font-weight:bold;}]]></style><marker id="markerStart" markerWidth="8" markerHeight="8" style="overflow:visible;"><circle cx="0" cy="0" r="1.5" style="stroke:none;fill:red;fill-opacity:0.5;"/></marker><marker id="markerEnd" style="overflow:visible;"><circle cx="0" cy="0" r="0.8" style="stroke:none;fill:blue;fill-opacity:0.5;"><animate attributeName="opacity" from="1" to="0" dur="3s" repeatCount="indefinite" /></circle></marker></defs><rect x="4" y="4" width="100" height="100" /><path d="M23.25,22.95c3.12,0.68,6.55,0.52,9.63,0.22c10.04-0.99,30.3-3.66,43.12-4.47c3.06-0.19,5.99-0.3,9,0.34" class="grey" /><path d="M19.75,41.9c1.11,1.11,1.68,2.69,1.75,4.24c0.48,10.52,1.1,31.64,1.37,42.11c0.08,3.2,0.13,5.4,0.13,6" class="grey" /><path d="M21.75,45.35c10.5-1.1,61.11-6.07,63-6.15c5-0.21,7.88,2.04,7.5,5.52c-0.38,3.52-3,35.53-6.75,44.78c-2.32,5.73-5,4.5-8.5-1" class="grey" /><path d="M53.04,23.75c0.98,0.98,1.66,2.85,1.66,3.75c0,2.88-0.08,40.4-0.19,46" class="grey" /><path d="M39.06,58.5c0.61,0.45,1.31,2.35,1.22,3.25c-0.4,4-0.59,7.12-1.07,11.75c-0.34,3.25,0.39,3.77,3.21,3.25c7.45-1.38,14.45-2.5,27.91-4.25" class="grey" /><path d="M71.53,54.25c1.11,1.11,1.64,2.62,1.47,4.25c-0.65,6.12-0.96,8.52-1.52,12.52c-0.19,1.39-0.42,2.98-0.7,4.98" class="grey" /><path d="M23.25,22.95c3.12,0.68,6.55,0.52,9.63,0.22c10.04-0.99,30.3-3.66,43.12-4.47c3.06-0.19,5.99-0.3,9,0.34" class="stroke" stroke-dasharray="150"><animate attributeName="stroke-dashoffset" from="150" to="0" dur="1.8s" begin="0.0s" fill="freeze" /></path><path d="M19.75,41.9c1.11,1.11,1.68,2.69,1.75,4.24c0.48,10.52,1.1,31.64,1.37,42.11c0.08,3.2,0.13,5.4,0.13,6" class="stroke" stroke-dasharray="150"><set attributeName="opacity" to="0" dur="1.5s" /><animate attributeName="stroke-dashoffset" from="150" to="0" dur="1.8s" begin="1.5s" fill="freeze" /></path><path d="M21.75,45.35c10.5-1.1,61.11-6.07,63-6.15c5-0.21,7.88,2.04,7.5,5.52c-0.38,3.52-3,35.53-6.75,44.78c-2.32,5.73-5,4.5-8.5-1" class="stroke" stroke-dasharray="150"><set attributeName="opacity" to="0" dur="2.8s" /><animate attributeName="stroke-dashoffset" from="150" to="0" dur="1.8s" begin="2.8s" fill="freeze" /></path><path d="M53.04,23.75c0.98,0.98,1.66,2.85,1.66,3.75c0,2.88-0.08,40.4-0.19,46" class="stroke" stroke-dasharray="150"><set attributeName="opacity" to="0" dur="4.8s" /><animate attributeName="stroke-dashoffset" from="150" to="0" dur="1.8s" begin="4.8s" fill="freeze" /></path><path d="M39.06,58.5c0.61,0.45,1.31,2.35,1.22,3.25c-0.4,4-0.59,7.12-1.07,11.75c-0.34,3.25,0.39,3.77,3.21,3.25c7.45-1.38,14.45-2.5,27.91-4.25" class="stroke" stroke-dasharray="150"><set attributeName="opacity" to="0" dur="6.1s" /><animate attributeName="stroke-dashoffset" from="150" to="0" dur="1.8s" begin="6.1s" fill="freeze" /></path><path d="M71.53,54.25c1.11,1.11,1.64,2.62,1.47,4.25c-0.65,6.12-0.96,8.52-1.52,12.52c-0.19,1.39-0.42,2.98-0.7,4.98" class="stroke" stroke-dasharray="150"><set attributeName="opacity" to="0" dur="7.3s" /><animate attributeName="stroke-dashoffset" from="150" to="0" dur="1.8s" begin="7.3s" fill="freeze" /></path><text x="90" y="120" id="reset-kvg-04e21">⟳</text><text x="70" y="120" id="pause-kvg-04e21">◼</text><script type="text/javascript"><![CDATA[function RecurringTimer(e,t){var n,r,i=t;this.pause=function(){window.clearTimeout(n);i-=new Date-r};var s=function(){r=new Date;n=window.setTimeout(function(){i=t;s();e()},i)};this.clear=function(){window.clearTimeout(n);i=t;n=window.setTimeout(function(){i=t;s();e()},i)};this.resume=s;this.resume()}function invoketimer(){timer=new RecurringTimer(function(){svg.setCurrentTime(0)},9300.0)}var svg=document.getElementById("kvg-04e21");var pause=document.getElementById("pause-kvg-04e21");var reset=document.getElementById("reset-kvg-04e21");var timer;invoketimer();reset.onclick=function(){svg.setCurrentTime(0);timer.clear();svg.unpauseAnimations();pause.innerHTML = "◼";};pause.onclick=function(){if(svg.animationsPaused()){svg.unpauseAnimations();timer.resume();pause.innerHTML="◼"}else{svg.pauseAnimations();timer.pause();pause.innerHTML="▶"}}]]></script></svg>