<svg id="kvg-04ec2" class="kanjivg" width="106" height="126" xmlns="http://www.w3.org/2000/svg" xmlns:xlink="http://www.w3.org/1999/xlink" xml:space="preserve" version="1.1" baseProfile="full"><defs><style type="text/css"><![CDATA[path.black{fill:none;stroke:black;stroke-width:5;stroke-linecap:round;stroke-linejoin:round;}path.grey{fill:none;stroke:#ddd;stroke-width:5;stroke-linecap:round;stroke-linejoin:round;}path.stroke{fill:none;stroke:black;stroke-width:5;stroke-linecap:round;stroke-linejoin:round;}rect{fill:none;stroke:#555;stroke-width:2;} text{font-size:16px;font-family:Segoe UI Symbol,Cambria Math,DejaVu Sans,Symbola,Quivira,STIX,Code2000;-webkit-touch-callout:none;cursor:pointer;-webkit-user-select:none;-khtml-user-select:none;-moz-user-select:none;-ms-user-select:none;user-select: none;}text:hover{color:#777;}#reset{font-weight:bold;}]]></style><marker id="markerStart" markerWidth="8" markerHeight="8" style="overflow:visible;"><circle cx="0" cy="0" r="1.5" style="stroke:none;fill:red;fill-opacity:0.5;"/></marker><marker id="markerEnd" style="overflow:visible;"><circle cx="0" cy="0" r="0.8" style="stroke:none;fill:blue;fill-opacity:0.5;"><animate attributeName="opacity" from="1" to="0" dur="3s" repeatCount="indefinite" /></circle></marker></defs><rect x="4" y="4" width="100" height="100" /><path d="M32.99,15.39c0.14,1.17,0.24,2.64-0.12,4.08c-2.29,9.09-11.14,26.67-21.81,39" class="grey" /><path d="M27.01,39.5c0.63,0.65,0.81,2.1,0.81,3.45c0,13.9-0.31,42.84-0.31,52.18" class="grey" /><path d="M40.41,38.12c1.32,0.77,2.97,0.58,4.15,0.42c11.09-1.52,37.59-5.51,42.89-5.79c5.27-0.28,5.55,2.31,5.39,5.91c-0.59,13.59-4.59,40.84-11.38,53.52c-4.17,7.79-7.7,0.35-9.07-0.77" class="grey" /><path d="M68.43,14.18c0.32,1.57,0.38,2.56,0.35,5.12C68.5,40.75,60,74.5,42.39,89.4" class="grey" /><path d="M32.99,15.39c0.14,1.17,0.24,2.64-0.12,4.08c-2.29,9.09-11.14,26.67-21.81,39" class="stroke" stroke-dasharray="150"><animate attributeName="stroke-dashoffset" from="150" to="0" dur="1.8s" begin="0.0s" fill="freeze" /></path><path d="M27.01,39.5c0.63,0.65,0.81,2.1,0.81,3.45c0,13.9-0.31,42.84-0.31,52.18" class="stroke" stroke-dasharray="150"><set attributeName="opacity" to="0" dur="1.2s" /><animate attributeName="stroke-dashoffset" from="150" to="0" dur="1.8s" begin="1.2s" fill="freeze" /></path><path d="M40.41,38.12c1.32,0.77,2.97,0.58,4.15,0.42c11.09-1.52,37.59-5.51,42.89-5.79c5.27-0.28,5.55,2.31,5.39,5.91c-0.59,13.59-4.59,40.84-11.38,53.52c-4.17,7.79-7.7,0.35-9.07-0.77" class="stroke" stroke-dasharray="150"><set attributeName="opacity" to="0" dur="2.5999999999999996s" /><animate attributeName="stroke-dashoffset" from="150" to="0" dur="1.8s" begin="2.5999999999999996s" fill="freeze" /></path><path d="M68.43,14.18c0.32,1.57,0.38,2.56,0.35,5.12C68.5,40.75,60,74.5,42.39,89.4" class="stroke" stroke-dasharray="150"><set attributeName="opacity" to="0" dur="4.6s" /><animate attributeName="stroke-dashoffset" from="150" to="0" dur="1.8s" begin="4.6s" fill="freeze" /></path><text x="90" y="120" id="reset-kvg-04ec2">⟳</text><text x="70" y="120" id="pause-kvg-04ec2">◼</text><script type="text/javascript"><![CDATA[function RecurringTimer(e,t){var n,r,i=t;this.pause=function(){window.clearTimeout(n);i-=new Date-r};var s=function(){r=new Date;n=window.setTimeout(function(){i=t;s();e()},i)};this.clear=function(){window.clearTimeout(n);i=t;n=window.setTimeout(function(){i=t;s();e()},i)};this.resume=s;this.resume()}function invoketimer(){timer=new RecurringTimer(function(){svg.setCurrentTime(0)},7300.0)}var svg=document.getElementById("kvg-04ec2");var pause=document.getElementById("pause-kvg-04ec2");var reset=document.getElementById("reset-kvg-04ec2");var timer;invoketimer();reset.onclick=function(){svg.setCurrentTime(0);timer.clear();svg.unpauseAnimations();pause.innerHTML = "◼";};pause.onclick=function(){if(svg.animationsPaused()){svg.unpauseAnimations();timer.resume();pause.innerHTML="◼"}else{svg.pauseAnimations();timer.pause();pause.innerHTML="▶"}}]]></script></svg>