<svg id="kvg-04ef2" class="kanjivg" width="106" height="126" xmlns="http://www.w3.org/2000/svg" xmlns:xlink="http://www.w3.org/1999/xlink" xml:space="preserve" version="1.1" baseProfile="full"><defs><style type="text/css"><![CDATA[path.black{fill:none;stroke:black;stroke-width:5;stroke-linecap:round;stroke-linejoin:round;}path.grey{fill:none;stroke:#ddd;stroke-width:5;stroke-linecap:round;stroke-linejoin:round;}path.stroke{fill:none;stroke:black;stroke-width:5;stroke-linecap:round;stroke-linejoin:round;}rect{fill:none;stroke:#555;stroke-width:2;} text{font-size:16px;font-family:Segoe UI Symbol,Cambria Math,DejaVu Sans,Symbola,Quivira,STIX,Code2000;-webkit-touch-callout:none;cursor:pointer;-webkit-user-select:none;-khtml-user-select:none;-moz-user-select:none;-ms-user-select:none;user-select: none;}text:hover{color:#777;}#reset{font-weight:bold;}]]></style><marker id="markerStart" markerWidth="8" markerHeight="8" style="overflow:visible;"><circle cx="0" cy="0" r="1.5" style="stroke:none;fill:red;fill-opacity:0.5;"/></marker><marker id="markerEnd" style="overflow:visible;"><circle cx="0" cy="0" r="0.8" style="stroke:none;fill:blue;fill-opacity:0.5;"><animate attributeName="opacity" from="1" to="0" dur="3s" repeatCount="indefinite" /></circle></marker></defs><rect x="4" y="4" width="100" height="100" /><path d="M35.25,18.38c0.25,1.43,0.18,3.05-0.63,4.86C29.44,34.77,23.88,46.25,11,59.62" class="grey" /><path d="M27.28,42.75c0.86,0.86,1.25,2.24,1.25,3.26c0,10.24-0.02,29.97-0.03,40.74c0,2.16,0,3.96,0,5.25" class="grey" /><path d="M43.06,40.63c0.78,0.78,1.31,1.72,1.57,3.04c1.04,5.2,1.68,9.97,2.76,16.83c0.21,1.33,0.44,2.74,0.69,4.25" class="grey" /><path d="M45.2,42.03c14.67-2.66,37.93-5.42,46.63-5.8c3.39-0.15,4.07,2.43,3.65,3.92c-1.44,5.1-1.83,7.54-4.17,16.02" class="grey" /><path d="M48.72,61.71c10.07-1.22,26.28-2.96,40.92-4.25c1.28-0.11,2.51-0.25,3.7-0.37" class="grey" /><path d="M67.76,15c1.12,1.12,1.73,2.75,1.73,4.16c0,4.65-0.17,51.71-0.21,69.59c-0.01,2.64-0.01,5.14-0.01,6.25" class="grey" /><path d="M35.25,18.38c0.25,1.43,0.18,3.05-0.63,4.86C29.44,34.77,23.88,46.25,11,59.62" class="stroke" stroke-dasharray="150"><animate attributeName="stroke-dashoffset" from="150" to="0" dur="1.8s" begin="0.0s" fill="freeze" /></path><path d="M27.28,42.75c0.86,0.86,1.25,2.24,1.25,3.26c0,10.24-0.02,29.97-0.03,40.74c0,2.16,0,3.96,0,5.25" class="stroke" stroke-dasharray="150"><set attributeName="opacity" to="0" dur="1.2s" /><animate attributeName="stroke-dashoffset" from="150" to="0" dur="1.8s" begin="1.2s" fill="freeze" /></path><path d="M43.06,40.63c0.78,0.78,1.31,1.72,1.57,3.04c1.04,5.2,1.68,9.97,2.76,16.83c0.21,1.33,0.44,2.74,0.69,4.25" class="stroke" stroke-dasharray="150"><set attributeName="opacity" to="0" dur="2.4s" /><animate attributeName="stroke-dashoffset" from="150" to="0" dur="1.8s" begin="2.4s" fill="freeze" /></path><path d="M45.2,42.03c14.67-2.66,37.93-5.42,46.63-5.8c3.39-0.15,4.07,2.43,3.65,3.92c-1.44,5.1-1.83,7.54-4.17,16.02" class="stroke" stroke-dasharray="150"><set attributeName="opacity" to="0" dur="3.4s" /><animate attributeName="stroke-dashoffset" from="150" to="0" dur="1.8s" begin="3.4s" fill="freeze" /></path><path d="M48.72,61.71c10.07-1.22,26.28-2.96,40.92-4.25c1.28-0.11,2.51-0.25,3.7-0.37" class="stroke" stroke-dasharray="150"><set attributeName="opacity" to="0" dur="4.9s" /><animate attributeName="stroke-dashoffset" from="150" to="0" dur="1.8s" begin="4.9s" fill="freeze" /></path><path d="M67.76,15c1.12,1.12,1.73,2.75,1.73,4.16c0,4.65-0.17,51.71-0.21,69.59c-0.01,2.64-0.01,5.14-0.01,6.25" class="stroke" stroke-dasharray="150"><set attributeName="opacity" to="0" dur="6.0s" /><animate attributeName="stroke-dashoffset" from="150" to="0" dur="1.8s" begin="6.0s" fill="freeze" /></path><text x="90" y="120" id="reset-kvg-04ef2">⟳</text><text x="70" y="120" id="pause-kvg-04ef2">◼</text><script type="text/javascript"><![CDATA[function RecurringTimer(e,t){var n,r,i=t;this.pause=function(){window.clearTimeout(n);i-=new Date-r};var s=function(){r=new Date;n=window.setTimeout(function(){i=t;s();e()},i)};this.clear=function(){window.clearTimeout(n);i=t;n=window.setTimeout(function(){i=t;s();e()},i)};this.resume=s;this.resume()}function invoketimer(){timer=new RecurringTimer(function(){svg.setCurrentTime(0)},8700.0)}var svg=document.getElementById("kvg-04ef2");var pause=document.getElementById("pause-kvg-04ef2");var reset=document.getElementById("reset-kvg-04ef2");var timer;invoketimer();reset.onclick=function(){svg.setCurrentTime(0);timer.clear();svg.unpauseAnimations();pause.innerHTML = "◼";};pause.onclick=function(){if(svg.animationsPaused()){svg.unpauseAnimations();timer.resume();pause.innerHTML="◼"}else{svg.pauseAnimations();timer.pause();pause.innerHTML="▶"}}]]></script></svg>