<svg id="kvg-04ef0" class="kanjivg" width="106" height="126" xmlns="http://www.w3.org/2000/svg" xmlns:xlink="http://www.w3.org/1999/xlink" xml:space="preserve" version="1.1" baseProfile="full"><defs><style type="text/css"><![CDATA[path.black{fill:none;stroke:black;stroke-width:5;stroke-linecap:round;stroke-linejoin:round;}path.grey{fill:none;stroke:#ddd;stroke-width:5;stroke-linecap:round;stroke-linejoin:round;}path.stroke{fill:none;stroke:black;stroke-width:5;stroke-linecap:round;stroke-linejoin:round;}rect{fill:none;stroke:#555;stroke-width:2;} text{font-size:16px;font-family:Segoe UI Symbol,Cambria Math,DejaVu Sans,Symbola,Quivira,STIX,Code2000;-webkit-touch-callout:none;cursor:pointer;-webkit-user-select:none;-khtml-user-select:none;-moz-user-select:none;-ms-user-select:none;user-select: none;}text:hover{color:#777;}#reset{font-weight:bold;}]]></style><marker id="markerStart" markerWidth="8" markerHeight="8" style="overflow:visible;"><circle cx="0" cy="0" r="1.5" style="stroke:none;fill:red;fill-opacity:0.5;"/></marker><marker id="markerEnd" style="overflow:visible;"><circle cx="0" cy="0" r="0.8" style="stroke:none;fill:blue;fill-opacity:0.5;"><animate attributeName="opacity" from="1" to="0" dur="3s" repeatCount="indefinite" /></circle></marker></defs><rect x="4" y="4" width="100" height="100" /><path d="M30.77,17.5c0.2,2.09-0.05,3.57-0.69,5.35c-4.02,11.39-9.62,23.33-18.83,37.19" class="grey" /><path d="M23.78,42.75c1.05,1.05,1.26,2.38,1.26,3.98c0,13.4,0.13,32.05,0,43.27C25.02,92.33,25,94.29,25,95.75" class="grey" /><path d="M59.84,14.44c0.12,0.9-0.06,1.73-0.71,2.41c-3.13,3.28-5.75,5.53-12,8.78" class="grey" /><path d="M43.37,24.35c0.71,0.71,1.07,2.03,1.07,3.34c0,2.96-0.07,36.81-0.07,40.94c0,1.8,0.61,2.14,2.38,0.75s9-6.38,17.57-12.15" class="grey" /><path d="M70.5,25.58c1.25,0.3,2.73,0.34,4.05,0.15c1.32-0.19,16.26-3.41,17.91-3.6c1.65-0.19,4.08-0.38,4.29,3.64C97,30.5,95.25,52,91.7,62.39c-2.77,8.12-6.27,0.96-6.76,0.57" class="grey" /><path d="M71.66,26.62c0.86,0.86,1.31,2.25,1.31,3.87c0,8.5,0,61.75,0,68.35" class="grey" /><path d="M30.77,17.5c0.2,2.09-0.05,3.57-0.69,5.35c-4.02,11.39-9.62,23.33-18.83,37.19" class="stroke" stroke-dasharray="150"><animate attributeName="stroke-dashoffset" from="150" to="0" dur="1.8s" begin="0.0s" fill="freeze" /></path><path d="M23.78,42.75c1.05,1.05,1.26,2.38,1.26,3.98c0,13.4,0.13,32.05,0,43.27C25.02,92.33,25,94.29,25,95.75" class="stroke" stroke-dasharray="150"><set attributeName="opacity" to="0" dur="1.2s" /><animate attributeName="stroke-dashoffset" from="150" to="0" dur="1.8s" begin="1.2s" fill="freeze" /></path><path d="M59.84,14.44c0.12,0.9-0.06,1.73-0.71,2.41c-3.13,3.28-5.75,5.53-12,8.78" class="stroke" stroke-dasharray="150"><set attributeName="opacity" to="0" dur="2.5s" /><animate attributeName="stroke-dashoffset" from="150" to="0" dur="1.8s" begin="2.5s" fill="freeze" /></path><path d="M43.37,24.35c0.71,0.71,1.07,2.03,1.07,3.34c0,2.96-0.07,36.81-0.07,40.94c0,1.8,0.61,2.14,2.38,0.75s9-6.38,17.57-12.15" class="stroke" stroke-dasharray="150"><set attributeName="opacity" to="0" dur="3.4s" /><animate attributeName="stroke-dashoffset" from="150" to="0" dur="1.8s" begin="3.4s" fill="freeze" /></path><path d="M70.5,25.58c1.25,0.3,2.73,0.34,4.05,0.15c1.32-0.19,16.26-3.41,17.91-3.6c1.65-0.19,4.08-0.38,4.29,3.64C97,30.5,95.25,52,91.7,62.39c-2.77,8.12-6.27,0.96-6.76,0.57" class="stroke" stroke-dasharray="150"><set attributeName="opacity" to="0" dur="4.9s" /><animate attributeName="stroke-dashoffset" from="150" to="0" dur="1.8s" begin="4.9s" fill="freeze" /></path><path d="M71.66,26.62c0.86,0.86,1.31,2.25,1.31,3.87c0,8.5,0,61.75,0,68.35" class="stroke" stroke-dasharray="150"><set attributeName="opacity" to="0" dur="6.6000000000000005s" /><animate attributeName="stroke-dashoffset" from="150" to="0" dur="1.8s" begin="6.6000000000000005s" fill="freeze" /></path><text x="90" y="120" id="reset-kvg-04ef0">⟳</text><text x="70" y="120" id="pause-kvg-04ef0">◼</text><script type="text/javascript"><![CDATA[function RecurringTimer(e,t){var n,r,i=t;this.pause=function(){window.clearTimeout(n);i-=new Date-r};var s=function(){r=new Date;n=window.setTimeout(function(){i=t;s();e()},i)};this.clear=function(){window.clearTimeout(n);i=t;n=window.setTimeout(function(){i=t;s();e()},i)};this.resume=s;this.resume()}function invoketimer(){timer=new RecurringTimer(function(){svg.setCurrentTime(0)},9300.0)}var svg=document.getElementById("kvg-04ef0");var pause=document.getElementById("pause-kvg-04ef0");var reset=document.getElementById("reset-kvg-04ef0");var timer;invoketimer();reset.onclick=function(){svg.setCurrentTime(0);timer.clear();svg.unpauseAnimations();pause.innerHTML = "◼";};pause.onclick=function(){if(svg.animationsPaused()){svg.unpauseAnimations();timer.resume();pause.innerHTML="◼"}else{svg.pauseAnimations();timer.pause();pause.innerHTML="▶"}}]]></script></svg>