<svg id="kvg-04fca" class="kanjivg" width="106" height="126" xmlns="http://www.w3.org/2000/svg" xmlns:xlink="http://www.w3.org/1999/xlink" xml:space="preserve" version="1.1" baseProfile="full"><defs><style type="text/css"><![CDATA[path.black{fill:none;stroke:black;stroke-width:5;stroke-linecap:round;stroke-linejoin:round;}path.grey{fill:none;stroke:#ddd;stroke-width:5;stroke-linecap:round;stroke-linejoin:round;}path.stroke{fill:none;stroke:black;stroke-width:5;stroke-linecap:round;stroke-linejoin:round;}rect{fill:none;stroke:#555;stroke-width:2;} text{font-size:16px;font-family:Segoe UI Symbol,Cambria Math,DejaVu Sans,Symbola,Quivira,STIX,Code2000;-webkit-touch-callout:none;cursor:pointer;-webkit-user-select:none;-khtml-user-select:none;-moz-user-select:none;-ms-user-select:none;user-select: none;}text:hover{color:#777;}#reset{font-weight:bold;}]]></style><marker id="markerStart" markerWidth="8" markerHeight="8" style="overflow:visible;"><circle cx="0" cy="0" r="1.5" style="stroke:none;fill:red;fill-opacity:0.5;"/></marker><marker id="markerEnd" style="overflow:visible;"><circle cx="0" cy="0" r="0.8" style="stroke:none;fill:blue;fill-opacity:0.5;"><animate attributeName="opacity" from="1" to="0" dur="3s" repeatCount="indefinite" /></circle></marker></defs><rect x="4" y="4" width="100" height="100" /><path d="M34.75,17.5c0.12,1.75-0.07,3.1-0.83,4.99C29.06,34.55,23,47.25,11.25,62.04" class="grey" /><path d="M26.78,42c0.92,0.92,1.26,2.22,1.26,3.48c0,10.99-0.03,31.66-0.04,44.02c0,3.13,0,5.73,0,7.5" class="grey" /><path d="M61.91,11.5c0.34,0.75,0.14,2.03-0.6,3.08c-4.8,6.8-6.55,8.92-12.99,15.82c-1.67,1.78-1.36,3.15,1.38,2.52C60.75,30.38,73.12,27.5,84.3,25" class="grey" /><path d="M77.02,18.51c5.48,3.61,10.6,9.74,12.53,13.87" class="grey" /><path d="M56.56,36.36c0.04,0.43-0.07,1.4-0.33,1.98c-1.73,3.91-6.35,9.54-13.53,15.83" class="grey" /><path d="M70.48,31.55c0.73,0.73,0.96,1.95,0.96,3.12c0,3.46-0.02,6.07-0.02,8.43c0,3.9,1.46,4.87,9.57,4.87c6.26,0,8.45-0.92,9.29-2.29" class="grey" /><path d="M59.34,53.5c0.05,0.6-0.21,2.14-0.6,2.94c-2.7,5.64-7.63,15-17.71,22.91" class="grey" /><path d="M61.5,59.56c2,0.57,4.47,0.52,5.75,0.29c3.44-0.61,7.5-1.73,11.39-2.88c2.3-0.68,3.74,1.15,2.64,3.6C76.04,72.14,59,89.75,43.17,96" class="grey" /><path d="M55,68.75c3.89,0.7,20.42,15.06,29.79,21.49c2.95,2.02,5.33,3.39,8.53,4.65" class="grey" /><path d="M34.75,17.5c0.12,1.75-0.07,3.1-0.83,4.99C29.06,34.55,23,47.25,11.25,62.04" class="stroke" stroke-dasharray="150"><animate attributeName="stroke-dashoffset" from="150" to="0" dur="1.8s" begin="0.0s" fill="freeze" /></path><path d="M26.78,42c0.92,0.92,1.26,2.22,1.26,3.48c0,10.99-0.03,31.66-0.04,44.02c0,3.13,0,5.73,0,7.5" class="stroke" stroke-dasharray="150"><set attributeName="opacity" to="0" dur="1.3s" /><animate attributeName="stroke-dashoffset" from="150" to="0" dur="1.8s" begin="1.3s" fill="freeze" /></path><path d="M61.91,11.5c0.34,0.75,0.14,2.03-0.6,3.08c-4.8,6.8-6.55,8.92-12.99,15.82c-1.67,1.78-1.36,3.15,1.38,2.52C60.75,30.38,73.12,27.5,84.3,25" class="stroke" stroke-dasharray="150"><set attributeName="opacity" to="0" dur="2.7s" /><animate attributeName="stroke-dashoffset" from="150" to="0" dur="1.8s" begin="2.7s" fill="freeze" /></path><path d="M77.02,18.51c5.48,3.61,10.6,9.74,12.53,13.87" class="stroke" stroke-dasharray="150"><set attributeName="opacity" to="0" dur="4.2s" /><animate attributeName="stroke-dashoffset" from="150" to="0" dur="1.8s" begin="4.2s" fill="freeze" /></path><path d="M56.56,36.36c0.04,0.43-0.07,1.4-0.33,1.98c-1.73,3.91-6.35,9.54-13.53,15.83" class="stroke" stroke-dasharray="150"><set attributeName="opacity" to="0" dur="5.1000000000000005s" /><animate attributeName="stroke-dashoffset" from="150" to="0" dur="1.8s" begin="5.1000000000000005s" fill="freeze" /></path><path d="M70.48,31.55c0.73,0.73,0.96,1.95,0.96,3.12c0,3.46-0.02,6.07-0.02,8.43c0,3.9,1.46,4.87,9.57,4.87c6.26,0,8.45-0.92,9.29-2.29" class="stroke" stroke-dasharray="150"><set attributeName="opacity" to="0" dur="6.1000000000000005s" /><animate attributeName="stroke-dashoffset" from="150" to="0" dur="1.8s" begin="6.1000000000000005s" fill="freeze" /></path><path d="M59.34,53.5c0.05,0.6-0.21,2.14-0.6,2.94c-2.7,5.64-7.63,15-17.71,22.91" class="stroke" stroke-dasharray="150"><set attributeName="opacity" to="0" dur="7.1000000000000005s" /><animate attributeName="stroke-dashoffset" from="150" to="0" dur="1.8s" begin="7.1000000000000005s" fill="freeze" /></path><path d="M61.5,59.56c2,0.57,4.47,0.52,5.75,0.29c3.44-0.61,7.5-1.73,11.39-2.88c2.3-0.68,3.74,1.15,2.64,3.6C76.04,72.14,59,89.75,43.17,96" class="stroke" stroke-dasharray="150"><set attributeName="opacity" to="0" dur="8.100000000000001s" /><animate attributeName="stroke-dashoffset" from="150" to="0" dur="1.8s" begin="8.100000000000001s" fill="freeze" /></path><path d="M55,68.75c3.89,0.7,20.42,15.06,29.79,21.49c2.95,2.02,5.33,3.39,8.53,4.65" class="stroke" stroke-dasharray="150"><set attributeName="opacity" to="0" dur="9.8s" /><animate attributeName="stroke-dashoffset" from="150" to="0" dur="1.8s" begin="9.8s" fill="freeze" /></path><text x="90" y="120" id="reset-kvg-04fca">⟳</text><text x="70" y="120" id="pause-kvg-04fca">◼</text><script type="text/javascript"><![CDATA[function RecurringTimer(e,t){var n,r,i=t;this.pause=function(){window.clearTimeout(n);i-=new Date-r};var s=function(){r=new Date;n=window.setTimeout(function(){i=t;s();e()},i)};this.clear=function(){window.clearTimeout(n);i=t;n=window.setTimeout(function(){i=t;s();e()},i)};this.resume=s;this.resume()}function invoketimer(){timer=new RecurringTimer(function(){svg.setCurrentTime(0)},12000.0)}var svg=document.getElementById("kvg-04fca");var pause=document.getElementById("pause-kvg-04fca");var reset=document.getElementById("reset-kvg-04fca");var timer;invoketimer();reset.onclick=function(){svg.setCurrentTime(0);timer.clear();svg.unpauseAnimations();pause.innerHTML = "◼";};pause.onclick=function(){if(svg.animationsPaused()){svg.unpauseAnimations();timer.resume();pause.innerHTML="◼"}else{svg.pauseAnimations();timer.pause();pause.innerHTML="▶"}}]]></script></svg>