<svg id="kvg-04fd8" class="kanjivg" width="106" height="126" xmlns="http://www.w3.org/2000/svg" xmlns:xlink="http://www.w3.org/1999/xlink" xml:space="preserve" version="1.1" baseProfile="full"><defs><style type="text/css"><![CDATA[path.black{fill:none;stroke:black;stroke-width:5;stroke-linecap:round;stroke-linejoin:round;}path.grey{fill:none;stroke:#ddd;stroke-width:5;stroke-linecap:round;stroke-linejoin:round;}path.stroke{fill:none;stroke:black;stroke-width:5;stroke-linecap:round;stroke-linejoin:round;}rect{fill:none;stroke:#555;stroke-width:2;} text{font-size:16px;font-family:Segoe UI Symbol,Cambria Math,DejaVu Sans,Symbola,Quivira,STIX,Code2000;-webkit-touch-callout:none;cursor:pointer;-webkit-user-select:none;-khtml-user-select:none;-moz-user-select:none;-ms-user-select:none;user-select: none;}text:hover{color:#777;}#reset{font-weight:bold;}]]></style><marker id="markerStart" markerWidth="8" markerHeight="8" style="overflow:visible;"><circle cx="0" cy="0" r="1.5" style="stroke:none;fill:red;fill-opacity:0.5;"/></marker><marker id="markerEnd" style="overflow:visible;"><circle cx="0" cy="0" r="0.8" style="stroke:none;fill:blue;fill-opacity:0.5;"><animate attributeName="opacity" from="1" to="0" dur="3s" repeatCount="indefinite" /></circle></marker></defs><rect x="4" y="4" width="100" height="100" /><path d="M36.47,16.39c0.16,1.16,0.27,2.62-0.14,4.05c-2.6,9.04-12.66,26.52-24.77,38.77" class="grey" /><path d="M25.99,45c0.66,0.68,0.84,2.19,0.84,3.58c0,14.46-0.32,40.58-0.32,50.29" class="grey" /><path d="M74.43,12.04c0.08,0.26,0.16,0.68-0.15,1.06c-1.83,2.23-12.84,8.14-26.66,10.13" class="grey" /><path d="M46.66,27.84c0.03,0.42,0.07,1.09-0.06,1.7c-0.78,3.59-5.29,11.47-11.45,16.29" class="grey" /><path d="M60.77,27.49c2.26,2.09,5.85,8.59,6.41,11.84" class="grey" /><path d="M77.11,23.76C83,26.64,92.32,35.61,93.79,40.1" class="grey" /><path d="M46.17,47.62c0.85,0.26,2.45,0.67,3.73,0.44c1.56-0.28,28.43-4.56,29.91-4.56c1.48,0,2.19,0.78,0.7,2.34c-1.48,1.56-12.31,8.49-16.07,11.32" class="grey" /><path d="M60.45,56.91c17.8,8.84,10.55,52.59-0.3,36.6" class="grey" /><path d="M36.75,68.72c1.12,0.52,3.17,0.6,4.3,0.52c9.47-0.65,42.91-5.47,52.02-5.32c1.87,0.03,2.99,0.25,3.93,0.51" class="grey" /><path d="M36.47,16.39c0.16,1.16,0.27,2.62-0.14,4.05c-2.6,9.04-12.66,26.52-24.77,38.77" class="stroke" stroke-dasharray="150"><animate attributeName="stroke-dashoffset" from="150" to="0" dur="1.8s" begin="0.0s" fill="freeze" /></path><path d="M25.99,45c0.66,0.68,0.84,2.19,0.84,3.58c0,14.46-0.32,40.58-0.32,50.29" class="stroke" stroke-dasharray="150"><set attributeName="opacity" to="0" dur="1.3s" /><animate attributeName="stroke-dashoffset" from="150" to="0" dur="1.8s" begin="1.3s" fill="freeze" /></path><path d="M74.43,12.04c0.08,0.26,0.16,0.68-0.15,1.06c-1.83,2.23-12.84,8.14-26.66,10.13" class="stroke" stroke-dasharray="150"><set attributeName="opacity" to="0" dur="2.6s" /><animate attributeName="stroke-dashoffset" from="150" to="0" dur="1.8s" begin="2.6s" fill="freeze" /></path><path d="M46.66,27.84c0.03,0.42,0.07,1.09-0.06,1.7c-0.78,3.59-5.29,11.47-11.45,16.29" class="stroke" stroke-dasharray="150"><set attributeName="opacity" to="0" dur="3.6s" /><animate attributeName="stroke-dashoffset" from="150" to="0" dur="1.8s" begin="3.6s" fill="freeze" /></path><path d="M60.77,27.49c2.26,2.09,5.85,8.59,6.41,11.84" class="stroke" stroke-dasharray="150"><set attributeName="opacity" to="0" dur="4.6s" /><animate attributeName="stroke-dashoffset" from="150" to="0" dur="1.8s" begin="4.6s" fill="freeze" /></path><path d="M77.11,23.76C83,26.64,92.32,35.61,93.79,40.1" class="stroke" stroke-dasharray="150"><set attributeName="opacity" to="0" dur="5.5s" /><animate attributeName="stroke-dashoffset" from="150" to="0" dur="1.8s" begin="5.5s" fill="freeze" /></path><path d="M46.17,47.62c0.85,0.26,2.45,0.67,3.73,0.44c1.56-0.28,28.43-4.56,29.91-4.56c1.48,0,2.19,0.78,0.7,2.34c-1.48,1.56-12.31,8.49-16.07,11.32" class="stroke" stroke-dasharray="150"><set attributeName="opacity" to="0" dur="6.5s" /><animate attributeName="stroke-dashoffset" from="150" to="0" dur="1.8s" begin="6.5s" fill="freeze" /></path><path d="M60.45,56.91c17.8,8.84,10.55,52.59-0.3,36.6" class="stroke" stroke-dasharray="150"><set attributeName="opacity" to="0" dur="7.9s" /><animate attributeName="stroke-dashoffset" from="150" to="0" dur="1.8s" begin="7.9s" fill="freeze" /></path><path d="M36.75,68.72c1.12,0.52,3.17,0.6,4.3,0.52c9.47-0.65,42.91-5.47,52.02-5.32c1.87,0.03,2.99,0.25,3.93,0.51" class="stroke" stroke-dasharray="150"><set attributeName="opacity" to="0" dur="9.200000000000001s" /><animate attributeName="stroke-dashoffset" from="150" to="0" dur="1.8s" begin="9.200000000000001s" fill="freeze" /></path><text x="90" y="120" id="reset-kvg-04fd8">⟳</text><text x="70" y="120" id="pause-kvg-04fd8">◼</text><script type="text/javascript"><![CDATA[function RecurringTimer(e,t){var n,r,i=t;this.pause=function(){window.clearTimeout(n);i-=new Date-r};var s=function(){r=new Date;n=window.setTimeout(function(){i=t;s();e()},i)};this.clear=function(){window.clearTimeout(n);i=t;n=window.setTimeout(function(){i=t;s();e()},i)};this.resume=s;this.resume()}function invoketimer(){timer=new RecurringTimer(function(){svg.setCurrentTime(0)},11700.000000000002)}var svg=document.getElementById("kvg-04fd8");var pause=document.getElementById("pause-kvg-04fd8");var reset=document.getElementById("reset-kvg-04fd8");var timer;invoketimer();reset.onclick=function(){svg.setCurrentTime(0);timer.clear();svg.unpauseAnimations();pause.innerHTML = "◼";};pause.onclick=function(){if(svg.animationsPaused()){svg.unpauseAnimations();timer.resume();pause.innerHTML="◼"}else{svg.pauseAnimations();timer.pause();pause.innerHTML="▶"}}]]></script></svg>