<svg id="kvg-04ffa-Kaisho" class="kanjivg" width="106" height="126" xmlns="http://www.w3.org/2000/svg" xmlns:xlink="http://www.w3.org/1999/xlink" xml:space="preserve" version="1.1" baseProfile="full"><defs><style type="text/css"><![CDATA[path.black{fill:none;stroke:black;stroke-width:5;stroke-linecap:round;stroke-linejoin:round;}path.grey{fill:none;stroke:#ddd;stroke-width:5;stroke-linecap:round;stroke-linejoin:round;}path.stroke{fill:none;stroke:black;stroke-width:5;stroke-linecap:round;stroke-linejoin:round;}rect{fill:none;stroke:#555;stroke-width:2;} text{font-size:16px;font-family:Segoe UI Symbol,Cambria Math,DejaVu Sans,Symbola,Quivira,STIX,Code2000;-webkit-touch-callout:none;cursor:pointer;-webkit-user-select:none;-khtml-user-select:none;-moz-user-select:none;-ms-user-select:none;user-select: none;}text:hover{color:#777;}#reset{font-weight:bold;}]]></style><marker id="markerStart" markerWidth="8" markerHeight="8" style="overflow:visible;"><circle cx="0" cy="0" r="1.5" style="stroke:none;fill:red;fill-opacity:0.5;"/></marker><marker id="markerEnd" style="overflow:visible;"><circle cx="0" cy="0" r="0.8" style="stroke:none;fill:blue;fill-opacity:0.5;"><animate attributeName="opacity" from="1" to="0" dur="3s" repeatCount="indefinite" /></circle></marker></defs><rect x="4" y="4" width="100" height="100" /><path d="M33,16.39c0.13,1.14,0.22,2.56-0.11,3.96c-2.13,8.83-10.38,25.9-20.33,37.87" class="grey" /><path d="M26.53,40c0.59,0.61,0.76,1.97,0.76,3.23c0,13.02-0.29,43.65-0.29,52.4" class="grey" /><path d="M39.24,31.69c0.82,0.58,3,0.77,4.74,0.51c11.77-1.74,29.26-3.94,39.82-4.78c1.82-0.14,3.28,0.38,4.92,0.84" class="grey" /><path d="M62.96,13.25c0.32,1.13,0.01,2.85-0.44,4.11c-6.59,18.59-14.7,30.62-29.02,41.52" class="grey" /><path d="M64.36,29.67c6.55,5.51,21.83,19.54,28.37,23.23c2.23,1.25,3,1.44,4.01,1.56" class="grey" /><path d="M43.94,53.39c0.51,0.5,1.03,1.55,1.03,2.27c0.01,0.72,3.31,21.36,3.49,22.07" class="grey" /><path d="M45.81,54.51c2.87-0.34,29.58-3.67,32.19-4c2.18-0.27,3.24,1.24,3.04,2.9c-0.41,3.39-1.55,12.65-2.84,20.75" class="grey" /><path d="M47.1,64.33c7.09-0.6,14.16-1.61,21.22-2.45c0.85-0.1,1.68-0.2,2.48-0.29" class="grey" /><path d="M48.96,74.72c5.99-0.69,23.97-2.69,28.68-3.09" class="grey" /><path d="M61.67,42.34c0.6,1.1,1.07,2.4,1.11,4.1c0.16,7.58-0.42,34.62-0.42,39.77c0,8.8,2.1,9.09,15.41,9.07c14.49-0.03,15.97-1.88,15.97-10.3" class="grey" /><path d="M33,16.39c0.13,1.14,0.22,2.56-0.11,3.96c-2.13,8.83-10.38,25.9-20.33,37.87" class="stroke" stroke-dasharray="150"><animate attributeName="stroke-dashoffset" from="150" to="0" dur="1.8s" begin="0.0s" fill="freeze" /></path><path d="M26.53,40c0.59,0.61,0.76,1.97,0.76,3.23c0,13.02-0.29,43.65-0.29,52.4" class="stroke" stroke-dasharray="150"><set attributeName="opacity" to="0" dur="1.2s" /><animate attributeName="stroke-dashoffset" from="150" to="0" dur="1.8s" begin="1.2s" fill="freeze" /></path><path d="M39.24,31.69c0.82,0.58,3,0.77,4.74,0.51c11.77-1.74,29.26-3.94,39.82-4.78c1.82-0.14,3.28,0.38,4.92,0.84" class="stroke" stroke-dasharray="150"><set attributeName="opacity" to="0" dur="2.5999999999999996s" /><animate attributeName="stroke-dashoffset" from="150" to="0" dur="1.8s" begin="2.5999999999999996s" fill="freeze" /></path><path d="M62.96,13.25c0.32,1.13,0.01,2.85-0.44,4.11c-6.59,18.59-14.7,30.62-29.02,41.52" class="stroke" stroke-dasharray="150"><set attributeName="opacity" to="0" dur="3.8s" /><animate attributeName="stroke-dashoffset" from="150" to="0" dur="1.8s" begin="3.8s" fill="freeze" /></path><path d="M64.36,29.67c6.55,5.51,21.83,19.54,28.37,23.23c2.23,1.25,3,1.44,4.01,1.56" class="stroke" stroke-dasharray="150"><set attributeName="opacity" to="0" dur="5.199999999999999s" /><animate attributeName="stroke-dashoffset" from="150" to="0" dur="1.8s" begin="5.199999999999999s" fill="freeze" /></path><path d="M43.94,53.39c0.51,0.5,1.03,1.55,1.03,2.27c0.01,0.72,3.31,21.36,3.49,22.07" class="stroke" stroke-dasharray="150"><set attributeName="opacity" to="0" dur="6.299999999999999s" /><animate attributeName="stroke-dashoffset" from="150" to="0" dur="1.8s" begin="6.299999999999999s" fill="freeze" /></path><path d="M45.81,54.51c2.87-0.34,29.58-3.67,32.19-4c2.18-0.27,3.24,1.24,3.04,2.9c-0.41,3.39-1.55,12.65-2.84,20.75" class="stroke" stroke-dasharray="150"><set attributeName="opacity" to="0" dur="7.299999999999999s" /><animate attributeName="stroke-dashoffset" from="150" to="0" dur="1.8s" begin="7.299999999999999s" fill="freeze" /></path><path d="M47.1,64.33c7.09-0.6,14.16-1.61,21.22-2.45c0.85-0.1,1.68-0.2,2.48-0.29" class="stroke" stroke-dasharray="150"><set attributeName="opacity" to="0" dur="8.7s" /><animate attributeName="stroke-dashoffset" from="150" to="0" dur="1.8s" begin="8.7s" fill="freeze" /></path><path d="M48.96,74.72c5.99-0.69,23.97-2.69,28.68-3.09" class="stroke" stroke-dasharray="150"><set attributeName="opacity" to="0" dur="9.7s" /><animate attributeName="stroke-dashoffset" from="150" to="0" dur="1.8s" begin="9.7s" fill="freeze" /></path><path d="M61.67,42.34c0.6,1.1,1.07,2.4,1.11,4.1c0.16,7.58-0.42,34.62-0.42,39.77c0,8.8,2.1,9.09,15.41,9.07c14.49-0.03,15.97-1.88,15.97-10.3" class="stroke" stroke-dasharray="150"><set attributeName="opacity" to="0" dur="10.7s" /><animate attributeName="stroke-dashoffset" from="150" to="0" dur="1.8s" begin="10.7s" fill="freeze" /></path><text x="90" y="120" id="reset-kvg-04ffa-Kaisho">⟳</text><text x="70" y="120" id="pause-kvg-04ffa-Kaisho">◼</text><script type="text/javascript"><![CDATA[function RecurringTimer(e,t){var n,r,i=t;this.pause=function(){window.clearTimeout(n);i-=new Date-r};var s=function(){r=new Date;n=window.setTimeout(function(){i=t;s();e()},i)};this.clear=function(){window.clearTimeout(n);i=t;n=window.setTimeout(function(){i=t;s();e()},i)};this.resume=s;this.resume()}function invoketimer(){timer=new RecurringTimer(function(){svg.setCurrentTime(0)},13399.999999999998)}var svg=document.getElementById("kvg-04ffa-Kaisho");var pause=document.getElementById("pause-kvg-04ffa-Kaisho");var reset=document.getElementById("reset-kvg-04ffa-Kaisho");var timer;invoketimer();reset.onclick=function(){svg.setCurrentTime(0);timer.clear();svg.unpauseAnimations();pause.innerHTML = "◼";};pause.onclick=function(){if(svg.animationsPaused()){svg.unpauseAnimations();timer.resume();pause.innerHTML="◼"}else{svg.pauseAnimations();timer.pause();pause.innerHTML="▶"}}]]></script></svg>