<svg id="kvg-0502b-Kaisho" class="kanjivg" width="106" height="126" xmlns="http://www.w3.org/2000/svg" xmlns:xlink="http://www.w3.org/1999/xlink" xml:space="preserve" version="1.1" baseProfile="full"><defs><style type="text/css"><![CDATA[path.black{fill:none;stroke:black;stroke-width:5;stroke-linecap:round;stroke-linejoin:round;}path.grey{fill:none;stroke:#ddd;stroke-width:5;stroke-linecap:round;stroke-linejoin:round;}path.stroke{fill:none;stroke:black;stroke-width:5;stroke-linecap:round;stroke-linejoin:round;}rect{fill:none;stroke:#555;stroke-width:2;} text{font-size:16px;font-family:Segoe UI Symbol,Cambria Math,DejaVu Sans,Symbola,Quivira,STIX,Code2000;-webkit-touch-callout:none;cursor:pointer;-webkit-user-select:none;-khtml-user-select:none;-moz-user-select:none;-ms-user-select:none;user-select: none;}text:hover{color:#777;}#reset{font-weight:bold;}]]></style><marker id="markerStart" markerWidth="8" markerHeight="8" style="overflow:visible;"><circle cx="0" cy="0" r="1.5" style="stroke:none;fill:red;fill-opacity:0.5;"/></marker><marker id="markerEnd" style="overflow:visible;"><circle cx="0" cy="0" r="0.8" style="stroke:none;fill:blue;fill-opacity:0.5;"><animate attributeName="opacity" from="1" to="0" dur="3s" repeatCount="indefinite" /></circle></marker></defs><rect x="4" y="4" width="100" height="100" /><path d="M26.27,16.14c0.1,1.15,0.18,2.59-0.1,4.01c-1.77,8.93-8.62,26.21-16.86,38.32" class="grey" /><path d="M22.28,40.75c0.59,0.61,0.76,1.97,0.76,3.23c0,13.02-0.29,43.15-0.29,51.9" class="grey" /><path d="M57.06,12.4c0.08,0.81,0.33,2.15-0.15,3.25C53.5,23.5,46,36.95,31.24,47.15" class="grey" /><path d="M57.49,16.57c6.35,3.95,26.7,19.15,32.06,22.43c1.82,1.11,4.15,1.59,5.97,1.91" class="grey" /><path d="M45.25,42.21c0.9,0.31,2.54,0.39,3.43,0.31c5.71-0.53,16.44-2.44,22.84-2.73c1.49-0.07,2.39,0.15,3.13,0.3" class="grey" /><path d="M36.83,56.35c0.58,0.62,1.3,1.61,1.4,2.75c0.54,6.12-0.31,28.37,0.45,34.58" class="grey" /><path d="M38.85,58.64c7.41-0.5,43.43-4.17,44.89-4.35c3.12-0.38,4.26,2.62,4.29,3.87c0.17,6.67-0.51,18.18-0.51,30.09c0,7.86-2.47,5.29-6.43,2.54" class="grey" /><path d="M39.43,73.24c5.93-0.43,44.26-3.64,48.44-3.86" class="grey" /><path d="M52.89,59.2c0.87,0.79,1.47,1.7,1.54,4.3c0.35,12.48-0.02,23.05-0.02,27.3" class="grey" /><path d="M68.61,58.11c0.87,0.79,1.54,1.7,1.54,4.3c0,11.34-0.02,24.23-0.02,28.48" class="grey" /><path d="M26.27,16.14c0.1,1.15,0.18,2.59-0.1,4.01c-1.77,8.93-8.62,26.21-16.86,38.32" class="stroke" stroke-dasharray="150"><animate attributeName="stroke-dashoffset" from="150" to="0" dur="1.8s" begin="0.0s" fill="freeze" /></path><path d="M22.28,40.75c0.59,0.61,0.76,1.97,0.76,3.23c0,13.02-0.29,43.15-0.29,51.9" class="stroke" stroke-dasharray="150"><set attributeName="opacity" to="0" dur="1.2s" /><animate attributeName="stroke-dashoffset" from="150" to="0" dur="1.8s" begin="1.2s" fill="freeze" /></path><path d="M57.06,12.4c0.08,0.81,0.33,2.15-0.15,3.25C53.5,23.5,46,36.95,31.24,47.15" class="stroke" stroke-dasharray="150"><set attributeName="opacity" to="0" dur="2.5999999999999996s" /><animate attributeName="stroke-dashoffset" from="150" to="0" dur="1.8s" begin="2.5999999999999996s" fill="freeze" /></path><path d="M57.49,16.57c6.35,3.95,26.7,19.15,32.06,22.43c1.82,1.11,4.15,1.59,5.97,1.91" class="stroke" stroke-dasharray="150"><set attributeName="opacity" to="0" dur="3.6999999999999997s" /><animate attributeName="stroke-dashoffset" from="150" to="0" dur="1.8s" begin="3.6999999999999997s" fill="freeze" /></path><path d="M45.25,42.21c0.9,0.31,2.54,0.39,3.43,0.31c5.71-0.53,16.44-2.44,22.84-2.73c1.49-0.07,2.39,0.15,3.13,0.3" class="stroke" stroke-dasharray="150"><set attributeName="opacity" to="0" dur="4.8999999999999995s" /><animate attributeName="stroke-dashoffset" from="150" to="0" dur="1.8s" begin="4.8999999999999995s" fill="freeze" /></path><path d="M36.83,56.35c0.58,0.62,1.3,1.61,1.4,2.75c0.54,6.12-0.31,28.37,0.45,34.58" class="stroke" stroke-dasharray="150"><set attributeName="opacity" to="0" dur="5.8999999999999995s" /><animate attributeName="stroke-dashoffset" from="150" to="0" dur="1.8s" begin="5.8999999999999995s" fill="freeze" /></path><path d="M38.85,58.64c7.41-0.5,43.43-4.17,44.89-4.35c3.12-0.38,4.26,2.62,4.29,3.87c0.17,6.67-0.51,18.18-0.51,30.09c0,7.86-2.47,5.29-6.43,2.54" class="stroke" stroke-dasharray="150"><set attributeName="opacity" to="0" dur="6.8999999999999995s" /><animate attributeName="stroke-dashoffset" from="150" to="0" dur="1.8s" begin="6.8999999999999995s" fill="freeze" /></path><path d="M39.43,73.24c5.93-0.43,44.26-3.64,48.44-3.86" class="stroke" stroke-dasharray="150"><set attributeName="opacity" to="0" dur="8.7s" /><animate attributeName="stroke-dashoffset" from="150" to="0" dur="1.8s" begin="8.7s" fill="freeze" /></path><path d="M52.89,59.2c0.87,0.79,1.47,1.7,1.54,4.3c0.35,12.48-0.02,23.05-0.02,27.3" class="stroke" stroke-dasharray="150"><set attributeName="opacity" to="0" dur="9.899999999999999s" /><animate attributeName="stroke-dashoffset" from="150" to="0" dur="1.8s" begin="9.899999999999999s" fill="freeze" /></path><path d="M68.61,58.11c0.87,0.79,1.54,1.7,1.54,4.3c0,11.34-0.02,24.23-0.02,28.48" class="stroke" stroke-dasharray="150"><set attributeName="opacity" to="0" dur="10.899999999999999s" /><animate attributeName="stroke-dashoffset" from="150" to="0" dur="1.8s" begin="10.899999999999999s" fill="freeze" /></path><text x="90" y="120" id="reset-kvg-0502b-Kaisho">⟳</text><text x="70" y="120" id="pause-kvg-0502b-Kaisho">◼</text><script type="text/javascript"><![CDATA[function RecurringTimer(e,t){var n,r,i=t;this.pause=function(){window.clearTimeout(n);i-=new Date-r};var s=function(){r=new Date;n=window.setTimeout(function(){i=t;s();e()},i)};this.clear=function(){window.clearTimeout(n);i=t;n=window.setTimeout(function(){i=t;s();e()},i)};this.resume=s;this.resume()}function invoketimer(){timer=new RecurringTimer(function(){svg.setCurrentTime(0)},12899.999999999998)}var svg=document.getElementById("kvg-0502b-Kaisho");var pause=document.getElementById("pause-kvg-0502b-Kaisho");var reset=document.getElementById("reset-kvg-0502b-Kaisho");var timer;invoketimer();reset.onclick=function(){svg.setCurrentTime(0);timer.clear();svg.unpauseAnimations();pause.innerHTML = "◼";};pause.onclick=function(){if(svg.animationsPaused()){svg.unpauseAnimations();timer.resume();pause.innerHTML="◼"}else{svg.pauseAnimations();timer.pause();pause.innerHTML="▶"}}]]></script></svg>