<svg id="kvg-0505a" class="kanjivg" width="106" height="126" xmlns="http://www.w3.org/2000/svg" xmlns:xlink="http://www.w3.org/1999/xlink" xml:space="preserve" version="1.1" baseProfile="full"><defs><style type="text/css"><![CDATA[path.black{fill:none;stroke:black;stroke-width:5;stroke-linecap:round;stroke-linejoin:round;}path.grey{fill:none;stroke:#ddd;stroke-width:5;stroke-linecap:round;stroke-linejoin:round;}path.stroke{fill:none;stroke:black;stroke-width:5;stroke-linecap:round;stroke-linejoin:round;}rect{fill:none;stroke:#555;stroke-width:2;} text{font-size:16px;font-family:Segoe UI Symbol,Cambria Math,DejaVu Sans,Symbola,Quivira,STIX,Code2000;-webkit-touch-callout:none;cursor:pointer;-webkit-user-select:none;-khtml-user-select:none;-moz-user-select:none;-ms-user-select:none;user-select: none;}text:hover{color:#777;}#reset{font-weight:bold;}]]></style><marker id="markerStart" markerWidth="8" markerHeight="8" style="overflow:visible;"><circle cx="0" cy="0" r="1.5" style="stroke:none;fill:red;fill-opacity:0.5;"/></marker><marker id="markerEnd" style="overflow:visible;"><circle cx="0" cy="0" r="0.8" style="stroke:none;fill:blue;fill-opacity:0.5;"><animate attributeName="opacity" from="1" to="0" dur="3s" repeatCount="indefinite" /></circle></marker></defs><rect x="4" y="4" width="100" height="100" /><path d="M30.94,15.5c0.13,1.1,0.23,2.48-0.12,3.84c-2.16,8.56-10.51,25.13-20.57,36.73" class="grey" /><path d="M21.98,43.61c0.59,0.61,0.76,1.97,0.76,3.23c0,13.02-0.29,40.15-0.29,48.9" class="grey" /><path d="M28.75,40.9c0.52,0.15,1.93,0.56,3.32,0.45c5.4-0.43,18.68-2.6,25.6-3.6c1.39-0.2,1.75-0.15,2.62,0" class="grey" /><path d="M45.13,13.99c0.74,0.45,1.32,2,1.32,2.92c0,15.7-1,39.17-1.15,44.78" class="grey" /><path d="M33.48,62.75c0.22,0.84,0.47,1.42,0.54,2.06c0.54,4.65,2.23,14.13,2.99,22.94" class="grey" /><path d="M34.58,64.21c4.93-0.83,16.76-3.58,20.13-3.71c1.39-0.05,2.14,1.17,2.02,2.43c-0.46,4.76-2.23,12.51-2.98,18.82" class="grey" /><path d="M36.96,85.09c4.1-0.52,11.29-1.59,17.64-2.01" class="grey" /><path d="M73.88,15.89c0.04,0.83,0.22,2.2-0.07,3.34c-1.83,7.34-5.93,20.84-12.25,31" class="grey" /><path d="M68.57,40.29c0.52,0.23,1.87,0.3,2.39,0.23c7.05-0.94,11.96-2.34,19.45-4.23c0.89-0.22,2.68-0.32,2.92-0.27" class="grey" /><path d="M83.43,42.07c0.44,1.27,0.68,2.17,0.22,4.49c-4.17,21.06-12.33,39.37-27.37,47.18" class="grey" /><path d="M67.22,55.02c3.28,4.73,17.92,28.88,26.19,36.36c1.59,1.44,2.61,1.68,3.91,1.83" class="grey" /><path d="M30.94,15.5c0.13,1.1,0.23,2.48-0.12,3.84c-2.16,8.56-10.51,25.13-20.57,36.73" class="stroke" stroke-dasharray="150"><animate attributeName="stroke-dashoffset" from="150" to="0" dur="1.8s" begin="0.0s" fill="freeze" /></path><path d="M21.98,43.61c0.59,0.61,0.76,1.97,0.76,3.23c0,13.02-0.29,40.15-0.29,48.9" class="stroke" stroke-dasharray="150"><set attributeName="opacity" to="0" dur="1.2s" /><animate attributeName="stroke-dashoffset" from="150" to="0" dur="1.8s" begin="1.2s" fill="freeze" /></path><path d="M28.75,40.9c0.52,0.15,1.93,0.56,3.32,0.45c5.4-0.43,18.68-2.6,25.6-3.6c1.39-0.2,1.75-0.15,2.62,0" class="stroke" stroke-dasharray="150"><set attributeName="opacity" to="0" dur="2.5s" /><animate attributeName="stroke-dashoffset" from="150" to="0" dur="1.8s" begin="2.5s" fill="freeze" /></path><path d="M45.13,13.99c0.74,0.45,1.32,2,1.32,2.92c0,15.7-1,39.17-1.15,44.78" class="stroke" stroke-dasharray="150"><set attributeName="opacity" to="0" dur="3.5s" /><animate attributeName="stroke-dashoffset" from="150" to="0" dur="1.8s" begin="3.5s" fill="freeze" /></path><path d="M33.48,62.75c0.22,0.84,0.47,1.42,0.54,2.06c0.54,4.65,2.23,14.13,2.99,22.94" class="stroke" stroke-dasharray="150"><set attributeName="opacity" to="0" dur="4.7s" /><animate attributeName="stroke-dashoffset" from="150" to="0" dur="1.8s" begin="4.7s" fill="freeze" /></path><path d="M34.58,64.21c4.93-0.83,16.76-3.58,20.13-3.71c1.39-0.05,2.14,1.17,2.02,2.43c-0.46,4.76-2.23,12.51-2.98,18.82" class="stroke" stroke-dasharray="150"><set attributeName="opacity" to="0" dur="5.7s" /><animate attributeName="stroke-dashoffset" from="150" to="0" dur="1.8s" begin="5.7s" fill="freeze" /></path><path d="M36.96,85.09c4.1-0.52,11.29-1.59,17.64-2.01" class="stroke" stroke-dasharray="150"><set attributeName="opacity" to="0" dur="6.800000000000001s" /><animate attributeName="stroke-dashoffset" from="150" to="0" dur="1.8s" begin="6.800000000000001s" fill="freeze" /></path><path d="M73.88,15.89c0.04,0.83,0.22,2.2-0.07,3.34c-1.83,7.34-5.93,20.84-12.25,31" class="stroke" stroke-dasharray="150"><set attributeName="opacity" to="0" dur="7.700000000000001s" /><animate attributeName="stroke-dashoffset" from="150" to="0" dur="1.8s" begin="7.700000000000001s" fill="freeze" /></path><path d="M68.57,40.29c0.52,0.23,1.87,0.3,2.39,0.23c7.05-0.94,11.96-2.34,19.45-4.23c0.89-0.22,2.68-0.32,2.92-0.27" class="stroke" stroke-dasharray="150"><set attributeName="opacity" to="0" dur="8.700000000000001s" /><animate attributeName="stroke-dashoffset" from="150" to="0" dur="1.8s" begin="8.700000000000001s" fill="freeze" /></path><path d="M83.43,42.07c0.44,1.27,0.68,2.17,0.22,4.49c-4.17,21.06-12.33,39.37-27.37,47.18" class="stroke" stroke-dasharray="150"><set attributeName="opacity" to="0" dur="9.700000000000001s" /><animate attributeName="stroke-dashoffset" from="150" to="0" dur="1.8s" begin="9.700000000000001s" fill="freeze" /></path><path d="M67.22,55.02c3.28,4.73,17.92,28.88,26.19,36.36c1.59,1.44,2.61,1.68,3.91,1.83" class="stroke" stroke-dasharray="150"><set attributeName="opacity" to="0" dur="11.200000000000001s" /><animate attributeName="stroke-dashoffset" from="150" to="0" dur="1.8s" begin="11.200000000000001s" fill="freeze" /></path><text x="90" y="120" id="reset-kvg-0505a">⟳</text><text x="70" y="120" id="pause-kvg-0505a">◼</text><script type="text/javascript"><![CDATA[function RecurringTimer(e,t){var n,r,i=t;this.pause=function(){window.clearTimeout(n);i-=new Date-r};var s=function(){r=new Date;n=window.setTimeout(function(){i=t;s();e()},i)};this.clear=function(){window.clearTimeout(n);i=t;n=window.setTimeout(function(){i=t;s();e()},i)};this.resume=s;this.resume()}function invoketimer(){timer=new RecurringTimer(function(){svg.setCurrentTime(0)},13400.0)}var svg=document.getElementById("kvg-0505a");var pause=document.getElementById("pause-kvg-0505a");var reset=document.getElementById("reset-kvg-0505a");var timer;invoketimer();reset.onclick=function(){svg.setCurrentTime(0);timer.clear();svg.unpauseAnimations();pause.innerHTML = "◼";};pause.onclick=function(){if(svg.animationsPaused()){svg.unpauseAnimations();timer.resume();pause.innerHTML="◼"}else{svg.pauseAnimations();timer.pause();pause.innerHTML="▶"}}]]></script></svg>