<svg id="kvg-050b4" class="kanjivg" width="106" height="126" xmlns="http://www.w3.org/2000/svg" xmlns:xlink="http://www.w3.org/1999/xlink" xml:space="preserve" version="1.1" baseProfile="full"><defs><style type="text/css"><![CDATA[path.black{fill:none;stroke:black;stroke-width:5;stroke-linecap:round;stroke-linejoin:round;}path.grey{fill:none;stroke:#ddd;stroke-width:5;stroke-linecap:round;stroke-linejoin:round;}path.stroke{fill:none;stroke:black;stroke-width:5;stroke-linecap:round;stroke-linejoin:round;}rect{fill:none;stroke:#555;stroke-width:2;} text{font-size:16px;font-family:Segoe UI Symbol,Cambria Math,DejaVu Sans,Symbola,Quivira,STIX,Code2000;-webkit-touch-callout:none;cursor:pointer;-webkit-user-select:none;-khtml-user-select:none;-moz-user-select:none;-ms-user-select:none;user-select: none;}text:hover{color:#777;}#reset{font-weight:bold;}]]></style><marker id="markerStart" markerWidth="8" markerHeight="8" style="overflow:visible;"><circle cx="0" cy="0" r="1.5" style="stroke:none;fill:red;fill-opacity:0.5;"/></marker><marker id="markerEnd" style="overflow:visible;"><circle cx="0" cy="0" r="0.8" style="stroke:none;fill:blue;fill-opacity:0.5;"><animate attributeName="opacity" from="1" to="0" dur="3s" repeatCount="indefinite" /></circle></marker></defs><rect x="4" y="4" width="100" height="100" /><path d="M31.44,17c0.13,1.23,0.22,2.78-0.11,4.29C29.19,30.86,20.94,49.36,11,62.32" class="grey" /><path d="M25.98,41.61c0.59,0.61,0.76,1.97,0.76,3.23c0,13.02-0.29,40.15-0.29,48.9" class="grey" /><path d="M39.38,21.22c1.35,0.47,3.82,0.55,5.16,0.47c14.02-0.79,26.67-3.23,41.79-3.66c2.24-0.06,3.59,0.23,4.71,0.46" class="grey" /><path d="M55.43,30.87c0.31,0.31,0.64,0.57,0.77,0.96c1.09,3.08,2.39,11.57,3.14,17.09" class="grey" /><path d="M56.84,32.38c7.49-1.18,20.09-2.56,24.38-3.03c1.57-0.17,2.51,1.02,2.29,2.04c-0.93,4.19-1.58,6.5-2.96,12.3" class="grey" /><path d="M59.29,46.48c5.04-0.53,16.34-1.45,23.26-2.27" class="grey" /><path d="M50.37,59.89c0.37,0.36,0.74,0.66,0.9,1.12c1.27,3.59,2.61,14.79,3.48,21.24" class="grey" /><path d="M52.21,62.32c4.67-0.95,10.4-3.02,14.69-3.49c1.57-0.17,2.51,1.02,2.29,2.04c-0.93,4.19-1.58,11.56-2.96,17.36" class="grey" /><path d="M54.67,80.1c5.04-0.53,11.65-1.92,13.57-1.81" class="grey" /><path d="M74.3,57.14c0.37,0.4,0.74,0.72,0.9,1.22c1.27,3.91,2.29,14.19,3.16,21.21" class="grey" /><path d="M75.72,58.79c7.06-1.53,12.07-2.79,16.37-3.3c1.57-0.19,2.51,1.11,2.29,2.21c-0.93,4.57-2.01,10.58-3.4,16.89" class="grey" /><path d="M78.6,77.64c5.04-0.58,7.02-0.58,13.94-1.48" class="grey" /><path d="M43.18,22.11c0,3.5-0.44,64.64-0.44,67.92c0,2.78,0.88,3.61,2.44,3.5c8.87-0.66,41.33-3.36,44.22-3.36c2.88,0,3.84,0.33,6.09,1.16" class="grey" /><path d="M31.44,17c0.13,1.23,0.22,2.78-0.11,4.29C29.19,30.86,20.94,49.36,11,62.32" class="stroke" stroke-dasharray="150"><animate attributeName="stroke-dashoffset" from="150" to="0" dur="1.8s" begin="0.0s" fill="freeze" /></path><path d="M25.98,41.61c0.59,0.61,0.76,1.97,0.76,3.23c0,13.02-0.29,40.15-0.29,48.9" class="stroke" stroke-dasharray="150"><set attributeName="opacity" to="0" dur="1.3s" /><animate attributeName="stroke-dashoffset" from="150" to="0" dur="1.8s" begin="1.3s" fill="freeze" /></path><path d="M39.38,21.22c1.35,0.47,3.82,0.55,5.16,0.47c14.02-0.79,26.67-3.23,41.79-3.66c2.24-0.06,3.59,0.23,4.71,0.46" class="stroke" stroke-dasharray="150"><set attributeName="opacity" to="0" dur="2.6s" /><animate attributeName="stroke-dashoffset" from="150" to="0" dur="1.8s" begin="2.6s" fill="freeze" /></path><path d="M55.43,30.87c0.31,0.31,0.64,0.57,0.77,0.96c1.09,3.08,2.39,11.57,3.14,17.09" class="stroke" stroke-dasharray="150"><set attributeName="opacity" to="0" dur="3.9000000000000004s" /><animate attributeName="stroke-dashoffset" from="150" to="0" dur="1.8s" begin="3.9000000000000004s" fill="freeze" /></path><path d="M56.84,32.38c7.49-1.18,20.09-2.56,24.38-3.03c1.57-0.17,2.51,1.02,2.29,2.04c-0.93,4.19-1.58,6.5-2.96,12.3" class="stroke" stroke-dasharray="150"><set attributeName="opacity" to="0" dur="4.800000000000001s" /><animate attributeName="stroke-dashoffset" from="150" to="0" dur="1.8s" begin="4.800000000000001s" fill="freeze" /></path><path d="M59.29,46.48c5.04-0.53,16.34-1.45,23.26-2.27" class="stroke" stroke-dasharray="150"><set attributeName="opacity" to="0" dur="5.9s" /><animate attributeName="stroke-dashoffset" from="150" to="0" dur="1.8s" begin="5.9s" fill="freeze" /></path><path d="M50.37,59.89c0.37,0.36,0.74,0.66,0.9,1.12c1.27,3.59,2.61,14.79,3.48,21.24" class="stroke" stroke-dasharray="150"><set attributeName="opacity" to="0" dur="6.9s" /><animate attributeName="stroke-dashoffset" from="150" to="0" dur="1.8s" begin="6.9s" fill="freeze" /></path><path d="M52.21,62.32c4.67-0.95,10.4-3.02,14.69-3.49c1.57-0.17,2.51,1.02,2.29,2.04c-0.93,4.19-1.58,11.56-2.96,17.36" class="stroke" stroke-dasharray="150"><set attributeName="opacity" to="0" dur="7.9s" /><animate attributeName="stroke-dashoffset" from="150" to="0" dur="1.8s" begin="7.9s" fill="freeze" /></path><path d="M54.67,80.1c5.04-0.53,11.65-1.92,13.57-1.81" class="stroke" stroke-dasharray="150"><set attributeName="opacity" to="0" dur="8.9s" /><animate attributeName="stroke-dashoffset" from="150" to="0" dur="1.8s" begin="8.9s" fill="freeze" /></path><path d="M74.3,57.14c0.37,0.4,0.74,0.72,0.9,1.22c1.27,3.91,2.29,14.19,3.16,21.21" class="stroke" stroke-dasharray="150"><set attributeName="opacity" to="0" dur="9.8s" /><animate attributeName="stroke-dashoffset" from="150" to="0" dur="1.8s" begin="9.8s" fill="freeze" /></path><path d="M75.72,58.79c7.06-1.53,12.07-2.79,16.37-3.3c1.57-0.19,2.51,1.11,2.29,2.21c-0.93,4.57-2.01,10.58-3.4,16.89" class="stroke" stroke-dasharray="150"><set attributeName="opacity" to="0" dur="10.8s" /><animate attributeName="stroke-dashoffset" from="150" to="0" dur="1.8s" begin="10.8s" fill="freeze" /></path><path d="M78.6,77.64c5.04-0.58,7.02-0.58,13.94-1.48" class="stroke" stroke-dasharray="150"><set attributeName="opacity" to="0" dur="11.8s" /><animate attributeName="stroke-dashoffset" from="150" to="0" dur="1.8s" begin="11.8s" fill="freeze" /></path><path d="M43.18,22.11c0,3.5-0.44,64.64-0.44,67.92c0,2.78,0.88,3.61,2.44,3.5c8.87-0.66,41.33-3.36,44.22-3.36c2.88,0,3.84,0.33,6.09,1.16" class="stroke" stroke-dasharray="150"><set attributeName="opacity" to="0" dur="12.700000000000001s" /><animate attributeName="stroke-dashoffset" from="150" to="0" dur="1.8s" begin="12.700000000000001s" fill="freeze" /></path><text x="90" y="120" id="reset-kvg-050b4">⟳</text><text x="70" y="120" id="pause-kvg-050b4">◼</text><script type="text/javascript"><![CDATA[function RecurringTimer(e,t){var n,r,i=t;this.pause=function(){window.clearTimeout(n);i-=new Date-r};var s=function(){r=new Date;n=window.setTimeout(function(){i=t;s();e()},i)};this.clear=function(){window.clearTimeout(n);i=t;n=window.setTimeout(function(){i=t;s();e()},i)};this.resume=s;this.resume()}function invoketimer(){timer=new RecurringTimer(function(){svg.setCurrentTime(0)},15700.000000000002)}var svg=document.getElementById("kvg-050b4");var pause=document.getElementById("pause-kvg-050b4");var reset=document.getElementById("reset-kvg-050b4");var timer;invoketimer();reset.onclick=function(){svg.setCurrentTime(0);timer.clear();svg.unpauseAnimations();pause.innerHTML = "◼";};pause.onclick=function(){if(svg.animationsPaused()){svg.unpauseAnimations();timer.resume();pause.innerHTML="◼"}else{svg.pauseAnimations();timer.pause();pause.innerHTML="▶"}}]]></script></svg>