<svg id="kvg-050cd" class="kanjivg" width="106" height="126" xmlns="http://www.w3.org/2000/svg" xmlns:xlink="http://www.w3.org/1999/xlink" xml:space="preserve" version="1.1" baseProfile="full"><defs><style type="text/css"><![CDATA[path.black{fill:none;stroke:black;stroke-width:5;stroke-linecap:round;stroke-linejoin:round;}path.grey{fill:none;stroke:#ddd;stroke-width:5;stroke-linecap:round;stroke-linejoin:round;}path.stroke{fill:none;stroke:black;stroke-width:5;stroke-linecap:round;stroke-linejoin:round;}rect{fill:none;stroke:#555;stroke-width:2;} text{font-size:16px;font-family:Segoe UI Symbol,Cambria Math,DejaVu Sans,Symbola,Quivira,STIX,Code2000;-webkit-touch-callout:none;cursor:pointer;-webkit-user-select:none;-khtml-user-select:none;-moz-user-select:none;-ms-user-select:none;user-select: none;}text:hover{color:#777;}#reset{font-weight:bold;}]]></style><marker id="markerStart" markerWidth="8" markerHeight="8" style="overflow:visible;"><circle cx="0" cy="0" r="1.5" style="stroke:none;fill:red;fill-opacity:0.5;"/></marker><marker id="markerEnd" style="overflow:visible;"><circle cx="0" cy="0" r="0.8" style="stroke:none;fill:blue;fill-opacity:0.5;"><animate attributeName="opacity" from="1" to="0" dur="3s" repeatCount="indefinite" /></circle></marker></defs><rect x="4" y="4" width="100" height="100" /><path d="M29.5,17c0.25,1.35,0.25,2.7-0.24,4C24.7,32.98,18.88,47.23,9,60.29" class="grey" /><path d="M21.78,43.5c0.73,0.73,1,1.97,1,3.12c0,10.4-0.02,29.95-0.03,41c0,2.58,0,4.69,0,6.12" class="grey" /><path d="M58.89,13.26c-0.02,1.11-0.41,1.84-1.27,2.72c-2.51,2.56-10.37,6.88-21.52,10.78" class="grey" /><path d="M30.22,35.31c1.51,0.19,3.54,0.23,4.81,0.1c10.52-1.04,20.28-2.42,30.05-3.23c2.08-0.17,3.35,0.14,4.39,0.35" class="grey" /><path d="M34.12,45.15c0.87,0.87,1.27,1.88,1.43,2.72c0.83,3.78,1.62,9.21,2.17,14.51c0.11,1.06,0.21,2.12,0.3,3.16" class="grey" /><path d="M36.13,46.05c7.57-1.21,19.25-2.43,25.82-3.06c2.1-0.2,3.67,0.98,3.38,2.91c-0.49,3.24-1.45,8.35-2.72,13.87c-0.24,1.04-0.49,2.09-0.75,3.15" class="grey" /><path d="M38.26,54.64c5.24-0.64,20.12-2.26,24.57-2.4" class="grey" /><path d="M39.38,64.09c6.12-0.84,13-1.59,21.48-2.21" class="grey" /><path d="M49.19,24.41c0.76,0.76,1.03,2.09,1.03,3.29c0,0.88-0.14,48.42-0.14,54.39" class="grey" /><path d="M34.94,73.71c1.03,0.34,2.98,0.35,4.06,0.2c8-1.16,15.88-2.54,20.26-3.25c1.17-0.19,2.45-0.42,3.64-0.2" class="grey" /><path d="M32.42,88.36c1.08,0.89,2.71,1.01,4.56,0.28c9.7-3.83,12.81-5.14,23.93-9.61" class="grey" /><path d="M72.34,44.06c1.41,0.32,2.64,0.43,3.49,0.33c5.57-0.69,13.03-2.52,17.2-3.34c3.24-0.63,4.39,0.73,4.23,3.99c-0.36,7.5-6.56,38.02-10.38,43.1c-2.93,3.89-3.46,2.15-6.54-0.61" class="grey" /><path d="M81.76,21.18c0.99,1.32,1.26,2.91,1.19,5.37c-0.58,19.58-6.7,49.2-24.88,67.54" class="grey" /><path d="M29.5,17c0.25,1.35,0.25,2.7-0.24,4C24.7,32.98,18.88,47.23,9,60.29" class="stroke" stroke-dasharray="150"><animate attributeName="stroke-dashoffset" from="150" to="0" dur="1.8s" begin="0.0s" fill="freeze" /></path><path d="M21.78,43.5c0.73,0.73,1,1.97,1,3.12c0,10.4-0.02,29.95-0.03,41c0,2.58,0,4.69,0,6.12" class="stroke" stroke-dasharray="150"><set attributeName="opacity" to="0" dur="1.2s" /><animate attributeName="stroke-dashoffset" from="150" to="0" dur="1.8s" begin="1.2s" fill="freeze" /></path><path d="M58.89,13.26c-0.02,1.11-0.41,1.84-1.27,2.72c-2.51,2.56-10.37,6.88-21.52,10.78" class="stroke" stroke-dasharray="150"><set attributeName="opacity" to="0" dur="2.5s" /><animate attributeName="stroke-dashoffset" from="150" to="0" dur="1.8s" begin="2.5s" fill="freeze" /></path><path d="M30.22,35.31c1.51,0.19,3.54,0.23,4.81,0.1c10.52-1.04,20.28-2.42,30.05-3.23c2.08-0.17,3.35,0.14,4.39,0.35" class="stroke" stroke-dasharray="150"><set attributeName="opacity" to="0" dur="3.5s" /><animate attributeName="stroke-dashoffset" from="150" to="0" dur="1.8s" begin="3.5s" fill="freeze" /></path><path d="M34.12,45.15c0.87,0.87,1.27,1.88,1.43,2.72c0.83,3.78,1.62,9.21,2.17,14.51c0.11,1.06,0.21,2.12,0.3,3.16" class="stroke" stroke-dasharray="150"><set attributeName="opacity" to="0" dur="4.5s" /><animate attributeName="stroke-dashoffset" from="150" to="0" dur="1.8s" begin="4.5s" fill="freeze" /></path><path d="M36.13,46.05c7.57-1.21,19.25-2.43,25.82-3.06c2.1-0.2,3.67,0.98,3.38,2.91c-0.49,3.24-1.45,8.35-2.72,13.87c-0.24,1.04-0.49,2.09-0.75,3.15" class="stroke" stroke-dasharray="150"><set attributeName="opacity" to="0" dur="5.5s" /><animate attributeName="stroke-dashoffset" from="150" to="0" dur="1.8s" begin="5.5s" fill="freeze" /></path><path d="M38.26,54.64c5.24-0.64,20.12-2.26,24.57-2.4" class="stroke" stroke-dasharray="150"><set attributeName="opacity" to="0" dur="6.7s" /><animate attributeName="stroke-dashoffset" from="150" to="0" dur="1.8s" begin="6.7s" fill="freeze" /></path><path d="M39.38,64.09c6.12-0.84,13-1.59,21.48-2.21" class="stroke" stroke-dasharray="150"><set attributeName="opacity" to="0" dur="7.7s" /><animate attributeName="stroke-dashoffset" from="150" to="0" dur="1.8s" begin="7.7s" fill="freeze" /></path><path d="M49.19,24.41c0.76,0.76,1.03,2.09,1.03,3.29c0,0.88-0.14,48.42-0.14,54.39" class="stroke" stroke-dasharray="150"><set attributeName="opacity" to="0" dur="8.7s" /><animate attributeName="stroke-dashoffset" from="150" to="0" dur="1.8s" begin="8.7s" fill="freeze" /></path><path d="M34.94,73.71c1.03,0.34,2.98,0.35,4.06,0.2c8-1.16,15.88-2.54,20.26-3.25c1.17-0.19,2.45-0.42,3.64-0.2" class="stroke" stroke-dasharray="150"><set attributeName="opacity" to="0" dur="10.1s" /><animate attributeName="stroke-dashoffset" from="150" to="0" dur="1.8s" begin="10.1s" fill="freeze" /></path><path d="M32.42,88.36c1.08,0.89,2.71,1.01,4.56,0.28c9.7-3.83,12.81-5.14,23.93-9.61" class="stroke" stroke-dasharray="150"><set attributeName="opacity" to="0" dur="11.1s" /><animate attributeName="stroke-dashoffset" from="150" to="0" dur="1.8s" begin="11.1s" fill="freeze" /></path><path d="M72.34,44.06c1.41,0.32,2.64,0.43,3.49,0.33c5.57-0.69,13.03-2.52,17.2-3.34c3.24-0.63,4.39,0.73,4.23,3.99c-0.36,7.5-6.56,38.02-10.38,43.1c-2.93,3.89-3.46,2.15-6.54-0.61" class="stroke" stroke-dasharray="150"><set attributeName="opacity" to="0" dur="12.1s" /><animate attributeName="stroke-dashoffset" from="150" to="0" dur="1.8s" begin="12.1s" fill="freeze" /></path><path d="M81.76,21.18c0.99,1.32,1.26,2.91,1.19,5.37c-0.58,19.58-6.7,49.2-24.88,67.54" class="stroke" stroke-dasharray="150"><set attributeName="opacity" to="0" dur="13.799999999999999s" /><animate attributeName="stroke-dashoffset" from="150" to="0" dur="1.8s" begin="13.799999999999999s" fill="freeze" /></path><text x="90" y="120" id="reset-kvg-050cd">⟳</text><text x="70" y="120" id="pause-kvg-050cd">◼</text><script type="text/javascript"><![CDATA[function RecurringTimer(e,t){var n,r,i=t;this.pause=function(){window.clearTimeout(n);i-=new Date-r};var s=function(){r=new Date;n=window.setTimeout(function(){i=t;s();e()},i)};this.clear=function(){window.clearTimeout(n);i=t;n=window.setTimeout(function(){i=t;s();e()},i)};this.resume=s;this.resume()}function invoketimer(){timer=new RecurringTimer(function(){svg.setCurrentTime(0)},16500.0)}var svg=document.getElementById("kvg-050cd");var pause=document.getElementById("pause-kvg-050cd");var reset=document.getElementById("reset-kvg-050cd");var timer;invoketimer();reset.onclick=function(){svg.setCurrentTime(0);timer.clear();svg.unpauseAnimations();pause.innerHTML = "◼";};pause.onclick=function(){if(svg.animationsPaused()){svg.unpauseAnimations();timer.resume();pause.innerHTML="◼"}else{svg.pauseAnimations();timer.pause();pause.innerHTML="▶"}}]]></script></svg>