<svg id="kvg-051e7" class="kanjivg" width="106" height="126" xmlns="http://www.w3.org/2000/svg" xmlns:xlink="http://www.w3.org/1999/xlink" xml:space="preserve" version="1.1" baseProfile="full"><defs><style type="text/css"><![CDATA[path.black{fill:none;stroke:black;stroke-width:5;stroke-linecap:round;stroke-linejoin:round;}path.grey{fill:none;stroke:#ddd;stroke-width:5;stroke-linecap:round;stroke-linejoin:round;}path.stroke{fill:none;stroke:black;stroke-width:5;stroke-linecap:round;stroke-linejoin:round;}rect{fill:none;stroke:#555;stroke-width:2;} text{font-size:16px;font-family:Segoe UI Symbol,Cambria Math,DejaVu Sans,Symbola,Quivira,STIX,Code2000;-webkit-touch-callout:none;cursor:pointer;-webkit-user-select:none;-khtml-user-select:none;-moz-user-select:none;-ms-user-select:none;user-select: none;}text:hover{color:#777;}#reset{font-weight:bold;}]]></style><marker id="markerStart" markerWidth="8" markerHeight="8" style="overflow:visible;"><circle cx="0" cy="0" r="1.5" style="stroke:none;fill:red;fill-opacity:0.5;"/></marker><marker id="markerEnd" style="overflow:visible;"><circle cx="0" cy="0" r="0.8" style="stroke:none;fill:blue;fill-opacity:0.5;"><animate attributeName="opacity" from="1" to="0" dur="3s" repeatCount="indefinite" /></circle></marker></defs><rect x="4" y="4" width="100" height="100" /><path d="M27.29,20c0.46,1.95,1.11,3.49,1.11,5.92c0,22.27,1.1,50.33-13.65,65.83" class="grey" /><path d="M28.25,21.5c11-1.75,44.75-5.75,48.75-5.75s5.83,0.94,5.5,4.75c-1.75,20.25-3.08,47.96,8,64.75c8.25,12.5,6.5,7,6-3" class="grey" /><path d="M38.39,44.54c0.37,0.36,1.16,2.71,1.23,3.43c0.07,0.72-0.05,25.36-0.12,29.88" class="grey" /><path d="M39.45,45.83c2.32-0.25,28.59-4.21,30.32-4.33c3.47-0.25,3.48,2.18,3.4,3.83c-0.37,8.3-0.5,20.83-1.69,28.97c-0.86,5.85-4.99,0.95-6.54-1.21" class="grey" /><path d="M53.59,24.88c0.37,0.36,1.16,2.71,1.23,3.43c0.07,0.72-0.05,64.05-0.12,68.57" class="grey" /><path d="M27.29,20c0.46,1.95,1.11,3.49,1.11,5.92c0,22.27,1.1,50.33-13.65,65.83" class="stroke" stroke-dasharray="150"><animate attributeName="stroke-dashoffset" from="150" to="0" dur="1.8s" begin="0.0s" fill="freeze" /></path><path d="M28.25,21.5c11-1.75,44.75-5.75,48.75-5.75s5.83,0.94,5.5,4.75c-1.75,20.25-3.08,47.96,8,64.75c8.25,12.5,6.5,7,6-3" class="stroke" stroke-dasharray="150"><set attributeName="opacity" to="0" dur="1.7s" /><animate attributeName="stroke-dashoffset" from="150" to="0" dur="1.8s" begin="1.7s" fill="freeze" /></path><path d="M38.39,44.54c0.37,0.36,1.16,2.71,1.23,3.43c0.07,0.72-0.05,25.36-0.12,29.88" class="stroke" stroke-dasharray="150"><set attributeName="opacity" to="0" dur="3.7s" /><animate attributeName="stroke-dashoffset" from="150" to="0" dur="1.8s" begin="3.7s" fill="freeze" /></path><path d="M39.45,45.83c2.32-0.25,28.59-4.21,30.32-4.33c3.47-0.25,3.48,2.18,3.4,3.83c-0.37,8.3-0.5,20.83-1.69,28.97c-0.86,5.85-4.99,0.95-6.54-1.21" class="stroke" stroke-dasharray="150"><set attributeName="opacity" to="0" dur="4.7s" /><animate attributeName="stroke-dashoffset" from="150" to="0" dur="1.8s" begin="4.7s" fill="freeze" /></path><path d="M53.59,24.88c0.37,0.36,1.16,2.71,1.23,3.43c0.07,0.72-0.05,64.05-0.12,68.57" class="stroke" stroke-dasharray="150"><set attributeName="opacity" to="0" dur="6.4s" /><animate attributeName="stroke-dashoffset" from="150" to="0" dur="1.8s" begin="6.4s" fill="freeze" /></path><text x="90" y="120" id="reset-kvg-051e7">⟳</text><text x="70" y="120" id="pause-kvg-051e7">◼</text><script type="text/javascript"><![CDATA[function RecurringTimer(e,t){var n,r,i=t;this.pause=function(){window.clearTimeout(n);i-=new Date-r};var s=function(){r=new Date;n=window.setTimeout(function(){i=t;s();e()},i)};this.clear=function(){window.clearTimeout(n);i=t;n=window.setTimeout(function(){i=t;s();e()},i)};this.resume=s;this.resume()}function invoketimer(){timer=new RecurringTimer(function(){svg.setCurrentTime(0)},9100.0)}var svg=document.getElementById("kvg-051e7");var pause=document.getElementById("pause-kvg-051e7");var reset=document.getElementById("reset-kvg-051e7");var timer;invoketimer();reset.onclick=function(){svg.setCurrentTime(0);timer.clear();svg.unpauseAnimations();pause.innerHTML = "◼";};pause.onclick=function(){if(svg.animationsPaused()){svg.unpauseAnimations();timer.resume();pause.innerHTML="◼"}else{svg.pauseAnimations();timer.pause();pause.innerHTML="▶"}}]]></script></svg>