<svg id="kvg-0524f" class="kanjivg" width="106" height="126" xmlns="http://www.w3.org/2000/svg" xmlns:xlink="http://www.w3.org/1999/xlink" xml:space="preserve" version="1.1" baseProfile="full"><defs><style type="text/css"><![CDATA[path.black{fill:none;stroke:black;stroke-width:5;stroke-linecap:round;stroke-linejoin:round;}path.grey{fill:none;stroke:#ddd;stroke-width:5;stroke-linecap:round;stroke-linejoin:round;}path.stroke{fill:none;stroke:black;stroke-width:5;stroke-linecap:round;stroke-linejoin:round;}rect{fill:none;stroke:#555;stroke-width:2;} text{font-size:16px;font-family:Segoe UI Symbol,Cambria Math,DejaVu Sans,Symbola,Quivira,STIX,Code2000;-webkit-touch-callout:none;cursor:pointer;-webkit-user-select:none;-khtml-user-select:none;-moz-user-select:none;-ms-user-select:none;user-select: none;}text:hover{color:#777;}#reset{font-weight:bold;}]]></style><marker id="markerStart" markerWidth="8" markerHeight="8" style="overflow:visible;"><circle cx="0" cy="0" r="1.5" style="stroke:none;fill:red;fill-opacity:0.5;"/></marker><marker id="markerEnd" style="overflow:visible;"><circle cx="0" cy="0" r="0.8" style="stroke:none;fill:blue;fill-opacity:0.5;"><animate attributeName="opacity" from="1" to="0" dur="3s" repeatCount="indefinite" /></circle></marker></defs><rect x="4" y="4" width="100" height="100" /><path d="M16.46,16.59c2.99,2.15,7.73,8.85,8.48,12.21" class="grey" /><path d="M43.05,11.89c0.02,0.35,0.01,0.9-0.05,1.42c-0.5,4.44-3.25,11.94-7.04,17.55" class="grey" /><path d="M13.2,35.99c1.05,0.5,2.98,0.61,4.03,0.5C25.02,35.71,38,33,46.29,32.31c1.75-0.15,2.8,0.24,3.68,0.49" class="grey" /><path d="M8.25,60.2c1.25,0.59,3.53,0.71,4.77,0.59C26.5,59.45,33,56.5,47.64,55.81c2.07-0.1,3.32,0.28,4.36,0.57" class="grey" /><path d="M24.17,38.43c0.46,1.48,0.61,2.64,0.61,4.49c0,16.89,0.96,38.33-12.19,53.41" class="grey" /><path d="M38.41,35.73c0.7,0.42,1.12,1.91,1.26,2.76c0.14,0.85,0,52.69-0.14,58" class="grey" /><path d="M52.22,25.9c1.66,0.83,3.73,0.57,5.21,0.45C68,25.5,75,24.11,81.57,23.26c4.27-0.55,6.02,1.66,5.93,5.55c-0.25,11.69-0.75,41.44-7.87,61.91c-3.13,9.01-5.69,5.81-8.88,0.26" class="grey" /><path d="M65.95,28.83c0.3,1.67,0.57,2.76,0.4,4.86c-1.72,20.54-6.85,45.56-17.6,60.67" class="grey" /><path d="M51.5,39.5c1.5,0,2.4,0.58,3.09,1.41c8.08,9.74,28.24,36.73,37.9,44.27c2.35,1.84,3.91,3.19,6.01,3.82" class="grey" /><path d="M16.46,16.59c2.99,2.15,7.73,8.85,8.48,12.21" class="stroke" stroke-dasharray="150"><animate attributeName="stroke-dashoffset" from="150" to="0" dur="1.8s" begin="0.0s" fill="freeze" /></path><path d="M43.05,11.89c0.02,0.35,0.01,0.9-0.05,1.42c-0.5,4.44-3.25,11.94-7.04,17.55" class="stroke" stroke-dasharray="150"><set attributeName="opacity" to="0" dur="0.9s" /><animate attributeName="stroke-dashoffset" from="150" to="0" dur="1.8s" begin="0.9s" fill="freeze" /></path><path d="M13.2,35.99c1.05,0.5,2.98,0.61,4.03,0.5C25.02,35.71,38,33,46.29,32.31c1.75-0.15,2.8,0.24,3.68,0.49" class="stroke" stroke-dasharray="150"><set attributeName="opacity" to="0" dur="1.9s" /><animate attributeName="stroke-dashoffset" from="150" to="0" dur="1.8s" begin="1.9s" fill="freeze" /></path><path d="M8.25,60.2c1.25,0.59,3.53,0.71,4.77,0.59C26.5,59.45,33,56.5,47.64,55.81c2.07-0.1,3.32,0.28,4.36,0.57" class="stroke" stroke-dasharray="150"><set attributeName="opacity" to="0" dur="2.9s" /><animate attributeName="stroke-dashoffset" from="150" to="0" dur="1.8s" begin="2.9s" fill="freeze" /></path><path d="M24.17,38.43c0.46,1.48,0.61,2.64,0.61,4.49c0,16.89,0.96,38.33-12.19,53.41" class="stroke" stroke-dasharray="150"><set attributeName="opacity" to="0" dur="4.0s" /><animate attributeName="stroke-dashoffset" from="150" to="0" dur="1.8s" begin="4.0s" fill="freeze" /></path><path d="M38.41,35.73c0.7,0.42,1.12,1.91,1.26,2.76c0.14,0.85,0,52.69-0.14,58" class="stroke" stroke-dasharray="150"><set attributeName="opacity" to="0" dur="5.5s" /><animate attributeName="stroke-dashoffset" from="150" to="0" dur="1.8s" begin="5.5s" fill="freeze" /></path><path d="M52.22,25.9c1.66,0.83,3.73,0.57,5.21,0.45C68,25.5,75,24.11,81.57,23.26c4.27-0.55,6.02,1.66,5.93,5.55c-0.25,11.69-0.75,41.44-7.87,61.91c-3.13,9.01-5.69,5.81-8.88,0.26" class="stroke" stroke-dasharray="150"><set attributeName="opacity" to="0" dur="7.0s" /><animate attributeName="stroke-dashoffset" from="150" to="0" dur="1.8s" begin="7.0s" fill="freeze" /></path><path d="M65.95,28.83c0.3,1.67,0.57,2.76,0.4,4.86c-1.72,20.54-6.85,45.56-17.6,60.67" class="stroke" stroke-dasharray="150"><set attributeName="opacity" to="0" dur="9.0s" /><animate attributeName="stroke-dashoffset" from="150" to="0" dur="1.8s" begin="9.0s" fill="freeze" /></path><path d="M51.5,39.5c1.5,0,2.4,0.58,3.09,1.41c8.08,9.74,28.24,36.73,37.9,44.27c2.35,1.84,3.91,3.19,6.01,3.82" class="stroke" stroke-dasharray="150"><set attributeName="opacity" to="0" dur="10.5s" /><animate attributeName="stroke-dashoffset" from="150" to="0" dur="1.8s" begin="10.5s" fill="freeze" /></path><text x="90" y="120" id="reset-kvg-0524f">⟳</text><text x="70" y="120" id="pause-kvg-0524f">◼</text><script type="text/javascript"><![CDATA[function RecurringTimer(e,t){var n,r,i=t;this.pause=function(){window.clearTimeout(n);i-=new Date-r};var s=function(){r=new Date;n=window.setTimeout(function(){i=t;s();e()},i)};this.clear=function(){window.clearTimeout(n);i=t;n=window.setTimeout(function(){i=t;s();e()},i)};this.resume=s;this.resume()}function invoketimer(){timer=new RecurringTimer(function(){svg.setCurrentTime(0)},13000.0)}var svg=document.getElementById("kvg-0524f");var pause=document.getElementById("pause-kvg-0524f");var reset=document.getElementById("reset-kvg-0524f");var timer;invoketimer();reset.onclick=function(){svg.setCurrentTime(0);timer.clear();svg.unpauseAnimations();pause.innerHTML = "◼";};pause.onclick=function(){if(svg.animationsPaused()){svg.unpauseAnimations();timer.resume();pause.innerHTML="◼"}else{svg.pauseAnimations();timer.pause();pause.innerHTML="▶"}}]]></script></svg>