<svg id="kvg-052d7-Kaisho" class="kanjivg" width="106" height="126" xmlns="http://www.w3.org/2000/svg" xmlns:xlink="http://www.w3.org/1999/xlink" xml:space="preserve" version="1.1" baseProfile="full"><defs><style type="text/css"><![CDATA[path.black{fill:none;stroke:black;stroke-width:5;stroke-linecap:round;stroke-linejoin:round;}path.grey{fill:none;stroke:#ddd;stroke-width:5;stroke-linecap:round;stroke-linejoin:round;}path.stroke{fill:none;stroke:black;stroke-width:5;stroke-linecap:round;stroke-linejoin:round;}rect{fill:none;stroke:#555;stroke-width:2;} text{font-size:16px;font-family:Segoe UI Symbol,Cambria Math,DejaVu Sans,Symbola,Quivira,STIX,Code2000;-webkit-touch-callout:none;cursor:pointer;-webkit-user-select:none;-khtml-user-select:none;-moz-user-select:none;-ms-user-select:none;user-select: none;}text:hover{color:#777;}#reset{font-weight:bold;}]]></style><marker id="markerStart" markerWidth="8" markerHeight="8" style="overflow:visible;"><circle cx="0" cy="0" r="1.5" style="stroke:none;fill:red;fill-opacity:0.5;"/></marker><marker id="markerEnd" style="overflow:visible;"><circle cx="0" cy="0" r="0.8" style="stroke:none;fill:blue;fill-opacity:0.5;"><animate attributeName="opacity" from="1" to="0" dur="3s" repeatCount="indefinite" /></circle></marker></defs><rect x="4" y="4" width="100" height="100" /><path d="M27.16,15.24c0.36,0.38,0.87,1.14,1.07,1.62c1.56,3.76,3.63,13.72,4.65,21.1" class="grey" /><path d="M29.34,16.27c12.56-0.99,37.09-3.66,46.47-4.48c3.44-0.31,4.21,2.77,4.03,3.85c-0.65,3.95-2.84,13.12-5.82,20.29" class="grey" /><path d="M31.18,26.39c7.44-0.7,14.91-1.12,22.36-1.65c2.57-0.18,5.17-0.37,7.66-0.54" class="grey" /><path d="M33.02,36.89c9.04-0.42,29-2.17,41.49-2.86" class="grey" /><path d="M23.15,46.68c0.5,0.74,0.83,1.46,1,2.18c0.17,0.72,0.37,41.51,0.31,43.1" class="grey" /><path d="M24.43,49.38c1.68-0.06,18.1-2.81,19.35-2.92c2.24-0.19,3.1,2.13,2.82,3.02c-0.27,0.86-0.13,19.62-0.21,31.86" class="grey" /><path d="M24.49,62.22c3.42-0.43,6.81-1.03,10.22-1.56c0.94-0.15,2.4-0.29,3.36-0.44" class="grey" /><path d="M24.83,75.03c3.58-0.51,7.14-1.24,10.69-1.92c0.95-0.18,1.91-0.36,2.85-0.54" class="grey" /><path d="M16.25,93.18c1.22,1.49,1.95,1.43,4.62,0.49c1.9-0.67,20.91-8.19,28.88-11.87" class="grey" /><path d="M53.83,54.41c1.07,0.47,2.94,0.4,3.91,0.25c8.77-1.26,22.3-3.84,26.64-4.32c2.83-0.32,4.93,1.42,4.73,3.64C88,65.75,83.5,82.5,77.43,93.51c-2.3,4.16-5.43,2.49-7.46-0.48" class="grey" /><path d="M70.6,41.17c0.42,0.43,0.93,3.09,0.49,4.75C67.5,59.5,59.5,84.5,46.38,95.48" class="grey" /><path d="M27.16,15.24c0.36,0.38,0.87,1.14,1.07,1.62c1.56,3.76,3.63,13.72,4.65,21.1" class="stroke" stroke-dasharray="150"><animate attributeName="stroke-dashoffset" from="150" to="0" dur="1.8s" begin="0.0s" fill="freeze" /></path><path d="M29.34,16.27c12.56-0.99,37.09-3.66,46.47-4.48c3.44-0.31,4.21,2.77,4.03,3.85c-0.65,3.95-2.84,13.12-5.82,20.29" class="stroke" stroke-dasharray="150"><set attributeName="opacity" to="0" dur="1.0s" /><animate attributeName="stroke-dashoffset" from="150" to="0" dur="1.8s" begin="1.0s" fill="freeze" /></path><path d="M31.18,26.39c7.44-0.7,14.91-1.12,22.36-1.65c2.57-0.18,5.17-0.37,7.66-0.54" class="stroke" stroke-dasharray="150"><set attributeName="opacity" to="0" dur="2.7s" /><animate attributeName="stroke-dashoffset" from="150" to="0" dur="1.8s" begin="2.7s" fill="freeze" /></path><path d="M33.02,36.89c9.04-0.42,29-2.17,41.49-2.86" class="stroke" stroke-dasharray="150"><set attributeName="opacity" to="0" dur="3.7s" /><animate attributeName="stroke-dashoffset" from="150" to="0" dur="1.8s" begin="3.7s" fill="freeze" /></path><path d="M23.15,46.68c0.5,0.74,0.83,1.46,1,2.18c0.17,0.72,0.37,41.51,0.31,43.1" class="stroke" stroke-dasharray="150"><set attributeName="opacity" to="0" dur="4.800000000000001s" /><animate attributeName="stroke-dashoffset" from="150" to="0" dur="1.8s" begin="4.800000000000001s" fill="freeze" /></path><path d="M24.43,49.38c1.68-0.06,18.1-2.81,19.35-2.92c2.24-0.19,3.1,2.13,2.82,3.02c-0.27,0.86-0.13,19.62-0.21,31.86" class="stroke" stroke-dasharray="150"><set attributeName="opacity" to="0" dur="6.000000000000001s" /><animate attributeName="stroke-dashoffset" from="150" to="0" dur="1.8s" begin="6.000000000000001s" fill="freeze" /></path><path d="M24.49,62.22c3.42-0.43,6.81-1.03,10.22-1.56c0.94-0.15,2.4-0.29,3.36-0.44" class="stroke" stroke-dasharray="150"><set attributeName="opacity" to="0" dur="7.4s" /><animate attributeName="stroke-dashoffset" from="150" to="0" dur="1.8s" begin="7.4s" fill="freeze" /></path><path d="M24.83,75.03c3.58-0.51,7.14-1.24,10.69-1.92c0.95-0.18,1.91-0.36,2.85-0.54" class="stroke" stroke-dasharray="150"><set attributeName="opacity" to="0" dur="8.3s" /><animate attributeName="stroke-dashoffset" from="150" to="0" dur="1.8s" begin="8.3s" fill="freeze" /></path><path d="M16.25,93.18c1.22,1.49,1.95,1.43,4.62,0.49c1.9-0.67,20.91-8.19,28.88-11.87" class="stroke" stroke-dasharray="150"><set attributeName="opacity" to="0" dur="9.200000000000001s" /><animate attributeName="stroke-dashoffset" from="150" to="0" dur="1.8s" begin="9.200000000000001s" fill="freeze" /></path><path d="M53.83,54.41c1.07,0.47,2.94,0.4,3.91,0.25c8.77-1.26,22.3-3.84,26.64-4.32c2.83-0.32,4.93,1.42,4.73,3.64C88,65.75,83.5,82.5,77.43,93.51c-2.3,4.16-5.43,2.49-7.46-0.48" class="stroke" stroke-dasharray="150"><set attributeName="opacity" to="0" dur="10.200000000000001s" /><animate attributeName="stroke-dashoffset" from="150" to="0" dur="1.8s" begin="10.200000000000001s" fill="freeze" /></path><path d="M70.6,41.17c0.42,0.43,0.93,3.09,0.49,4.75C67.5,59.5,59.5,84.5,46.38,95.48" class="stroke" stroke-dasharray="150"><set attributeName="opacity" to="0" dur="11.9s" /><animate attributeName="stroke-dashoffset" from="150" to="0" dur="1.8s" begin="11.9s" fill="freeze" /></path><text x="90" y="120" id="reset-kvg-052d7-Kaisho">⟳</text><text x="70" y="120" id="pause-kvg-052d7-Kaisho">◼</text><script type="text/javascript"><![CDATA[function RecurringTimer(e,t){var n,r,i=t;this.pause=function(){window.clearTimeout(n);i-=new Date-r};var s=function(){r=new Date;n=window.setTimeout(function(){i=t;s();e()},i)};this.clear=function(){window.clearTimeout(n);i=t;n=window.setTimeout(function(){i=t;s();e()},i)};this.resume=s;this.resume()}function invoketimer(){timer=new RecurringTimer(function(){svg.setCurrentTime(0)},14400.0)}var svg=document.getElementById("kvg-052d7-Kaisho");var pause=document.getElementById("pause-kvg-052d7-Kaisho");var reset=document.getElementById("reset-kvg-052d7-Kaisho");var timer;invoketimer();reset.onclick=function(){svg.setCurrentTime(0);timer.clear();svg.unpauseAnimations();pause.innerHTML = "◼";};pause.onclick=function(){if(svg.animationsPaused()){svg.unpauseAnimations();timer.resume();pause.innerHTML="◼"}else{svg.pauseAnimations();timer.pause();pause.innerHTML="▶"}}]]></script></svg>