<svg id="kvg-052e4-VtLst" class="kanjivg" width="106" height="126" xmlns="http://www.w3.org/2000/svg" xmlns:xlink="http://www.w3.org/1999/xlink" xml:space="preserve" version="1.1" baseProfile="full"><defs><style type="text/css"><![CDATA[path.black{fill:none;stroke:black;stroke-width:5;stroke-linecap:round;stroke-linejoin:round;}path.grey{fill:none;stroke:#ddd;stroke-width:5;stroke-linecap:round;stroke-linejoin:round;}path.stroke{fill:none;stroke:black;stroke-width:5;stroke-linecap:round;stroke-linejoin:round;}rect{fill:none;stroke:#555;stroke-width:2;} text{font-size:16px;font-family:Segoe UI Symbol,Cambria Math,DejaVu Sans,Symbola,Quivira,STIX,Code2000;-webkit-touch-callout:none;cursor:pointer;-webkit-user-select:none;-khtml-user-select:none;-moz-user-select:none;-ms-user-select:none;user-select: none;}text:hover{color:#777;}#reset{font-weight:bold;}]]></style><marker id="markerStart" markerWidth="8" markerHeight="8" style="overflow:visible;"><circle cx="0" cy="0" r="1.5" style="stroke:none;fill:red;fill-opacity:0.5;"/></marker><marker id="markerEnd" style="overflow:visible;"><circle cx="0" cy="0" r="0.8" style="stroke:none;fill:blue;fill-opacity:0.5;"><animate attributeName="opacity" from="1" to="0" dur="3s" repeatCount="indefinite" /></circle></marker></defs><rect x="4" y="4" width="100" height="100" /><path d="M13.25,26.27c0.81,0.5,1.76,0.6,2.57,0.5c7.48-0.92,29.46-3.72,38.08-3.79c1.36-0.01,2.17,0.24,2.85,0.49" class="grey" /><path d="M24.06,14.27c0.69,0.48,1.74,1.52,1.84,2.24c0.94,6.73,1.74,15.17,2,17.61" class="grey" /><path d="M44.63,12.62c0.12,0.88,0.52,2.68,0.27,3.86c-1.47,6.94-2.14,10.4-3.74,16.93" class="grey" /><path d="M15.75,39.77c0.38,0.3,0.77,0.54,0.94,0.91c1.32,2.93,2.4,11.02,3.3,16.28" class="grey" /><path d="M18.12,41.27c9.31-1.23,26.88-2.84,31.67-3.26c1.76-0.15,2.81,1.53,2.56,2.42c-1.04,3.69-1.73,6.37-3.96,11.69" class="grey" /><path d="M20.36,55.02c5.64-0.47,22.63-2.47,29.79-2.94" class="grey" /><path d="M20,65.56c0.53,0.19,2.15,0.22,2.69,0.19c4.9-0.34,16.06-1.99,23.45-2.96c0.88-0.12,2.42,0.09,2.87,0.18" class="grey" /><path d="M19.25,75.81c0.53,0.19,3.15,0.2,3.69,0.19C30,75.75,36.75,74,44.88,72.53c0.87-0.16,2.42,0.09,2.87,0.18" class="grey" /><path d="M16.5,89.2c0.5,1.05,1.97,1.34,4.44,0.62c6.86-2,19.2-5.57,26.06-7.57" class="grey" /><path d="M32.87,42.25c1.09,0.5,1.74,2.25,1.96,3.25c0.22,1,0,33.75-0.22,40" class="grey" /><path d="M59.75,40.35c1.07,0.68,2.41,0.49,3.36,0.37c9.39-1.22,22.03-2.93,26.28-3.63c2.76-0.45,4.61,1.41,4.37,5.22c-0.52,8.38-8.51,41.95-13.57,47.86c-4.89,5.71-6.24,0.31-7.36-0.68" class="grey" /><path d="M75.93,17.18c0.08,1.75,0.19,4.54-0.16,7.04c-2.57,18.59-9.52,49.53-27.38,67.43" class="grey" /><path d="M13.25,26.27c0.81,0.5,1.76,0.6,2.57,0.5c7.48-0.92,29.46-3.72,38.08-3.79c1.36-0.01,2.17,0.24,2.85,0.49" class="stroke" stroke-dasharray="150"><animate attributeName="stroke-dashoffset" from="150" to="0" dur="1.8s" begin="0.0s" fill="freeze" /></path><path d="M24.06,14.27c0.69,0.48,1.74,1.52,1.84,2.24c0.94,6.73,1.74,15.17,2,17.61" class="stroke" stroke-dasharray="150"><set attributeName="opacity" to="0" dur="1.1s" /><animate attributeName="stroke-dashoffset" from="150" to="0" dur="1.8s" begin="1.1s" fill="freeze" /></path><path d="M44.63,12.62c0.12,0.88,0.52,2.68,0.27,3.86c-1.47,6.94-2.14,10.4-3.74,16.93" class="stroke" stroke-dasharray="150"><set attributeName="opacity" to="0" dur="2.1s" /><animate attributeName="stroke-dashoffset" from="150" to="0" dur="1.8s" begin="2.1s" fill="freeze" /></path><path d="M15.75,39.77c0.38,0.3,0.77,0.54,0.94,0.91c1.32,2.93,2.4,11.02,3.3,16.28" class="stroke" stroke-dasharray="150"><set attributeName="opacity" to="0" dur="3.1s" /><animate attributeName="stroke-dashoffset" from="150" to="0" dur="1.8s" begin="3.1s" fill="freeze" /></path><path d="M18.12,41.27c9.31-1.23,26.88-2.84,31.67-3.26c1.76-0.15,2.81,1.53,2.56,2.42c-1.04,3.69-1.73,6.37-3.96,11.69" class="stroke" stroke-dasharray="150"><set attributeName="opacity" to="0" dur="4.0s" /><animate attributeName="stroke-dashoffset" from="150" to="0" dur="1.8s" begin="4.0s" fill="freeze" /></path><path d="M20.36,55.02c5.64-0.47,22.63-2.47,29.79-2.94" class="stroke" stroke-dasharray="150"><set attributeName="opacity" to="0" dur="5.2s" /><animate attributeName="stroke-dashoffset" from="150" to="0" dur="1.8s" begin="5.2s" fill="freeze" /></path><path d="M20,65.56c0.53,0.19,2.15,0.22,2.69,0.19c4.9-0.34,16.06-1.99,23.45-2.96c0.88-0.12,2.42,0.09,2.87,0.18" class="stroke" stroke-dasharray="150"><set attributeName="opacity" to="0" dur="6.2s" /><animate attributeName="stroke-dashoffset" from="150" to="0" dur="1.8s" begin="6.2s" fill="freeze" /></path><path d="M19.25,75.81c0.53,0.19,3.15,0.2,3.69,0.19C30,75.75,36.75,74,44.88,72.53c0.87-0.16,2.42,0.09,2.87,0.18" class="stroke" stroke-dasharray="150"><set attributeName="opacity" to="0" dur="7.2s" /><animate attributeName="stroke-dashoffset" from="150" to="0" dur="1.8s" begin="7.2s" fill="freeze" /></path><path d="M16.5,89.2c0.5,1.05,1.97,1.34,4.44,0.62c6.86-2,19.2-5.57,26.06-7.57" class="stroke" stroke-dasharray="150"><set attributeName="opacity" to="0" dur="8.2s" /><animate attributeName="stroke-dashoffset" from="150" to="0" dur="1.8s" begin="8.2s" fill="freeze" /></path><path d="M32.87,42.25c1.09,0.5,1.74,2.25,1.96,3.25c0.22,1,0,33.75-0.22,40" class="stroke" stroke-dasharray="150"><set attributeName="opacity" to="0" dur="9.2s" /><animate attributeName="stroke-dashoffset" from="150" to="0" dur="1.8s" begin="9.2s" fill="freeze" /></path><path d="M59.75,40.35c1.07,0.68,2.41,0.49,3.36,0.37c9.39-1.22,22.03-2.93,26.28-3.63c2.76-0.45,4.61,1.41,4.37,5.22c-0.52,8.38-8.51,41.95-13.57,47.86c-4.89,5.71-6.24,0.31-7.36-0.68" class="stroke" stroke-dasharray="150"><set attributeName="opacity" to="0" dur="10.299999999999999s" /><animate attributeName="stroke-dashoffset" from="150" to="0" dur="1.8s" begin="10.299999999999999s" fill="freeze" /></path><path d="M75.93,17.18c0.08,1.75,0.19,4.54-0.16,7.04c-2.57,18.59-9.52,49.53-27.38,67.43" class="stroke" stroke-dasharray="150"><set attributeName="opacity" to="0" dur="12.1s" /><animate attributeName="stroke-dashoffset" from="150" to="0" dur="1.8s" begin="12.1s" fill="freeze" /></path><text x="90" y="120" id="reset-kvg-052e4-VtLst">⟳</text><text x="70" y="120" id="pause-kvg-052e4-VtLst">◼</text><script type="text/javascript"><![CDATA[function RecurringTimer(e,t){var n,r,i=t;this.pause=function(){window.clearTimeout(n);i-=new Date-r};var s=function(){r=new Date;n=window.setTimeout(function(){i=t;s();e()},i)};this.clear=function(){window.clearTimeout(n);i=t;n=window.setTimeout(function(){i=t;s();e()},i)};this.resume=s;this.resume()}function invoketimer(){timer=new RecurringTimer(function(){svg.setCurrentTime(0)},14799.999999999998)}var svg=document.getElementById("kvg-052e4-VtLst");var pause=document.getElementById("pause-kvg-052e4-VtLst");var reset=document.getElementById("reset-kvg-052e4-VtLst");var timer;invoketimer();reset.onclick=function(){svg.setCurrentTime(0);timer.clear();svg.unpauseAnimations();pause.innerHTML = "◼";};pause.onclick=function(){if(svg.animationsPaused()){svg.unpauseAnimations();timer.resume();pause.innerHTML="◼"}else{svg.pauseAnimations();timer.pause();pause.innerHTML="▶"}}]]></script></svg>