<svg id="kvg-0531d" class="kanjivg" width="106" height="126" xmlns="http://www.w3.org/2000/svg" xmlns:xlink="http://www.w3.org/1999/xlink" xml:space="preserve" version="1.1" baseProfile="full"><defs><style type="text/css"><![CDATA[path.black{fill:none;stroke:black;stroke-width:5;stroke-linecap:round;stroke-linejoin:round;}path.grey{fill:none;stroke:#ddd;stroke-width:5;stroke-linecap:round;stroke-linejoin:round;}path.stroke{fill:none;stroke:black;stroke-width:5;stroke-linecap:round;stroke-linejoin:round;}rect{fill:none;stroke:#555;stroke-width:2;} text{font-size:16px;font-family:Segoe UI Symbol,Cambria Math,DejaVu Sans,Symbola,Quivira,STIX,Code2000;-webkit-touch-callout:none;cursor:pointer;-webkit-user-select:none;-khtml-user-select:none;-moz-user-select:none;-ms-user-select:none;user-select: none;}text:hover{color:#777;}#reset{font-weight:bold;}]]></style><marker id="markerStart" markerWidth="8" markerHeight="8" style="overflow:visible;"><circle cx="0" cy="0" r="1.5" style="stroke:none;fill:red;fill-opacity:0.5;"/></marker><marker id="markerEnd" style="overflow:visible;"><circle cx="0" cy="0" r="0.8" style="stroke:none;fill:blue;fill-opacity:0.5;"><animate attributeName="opacity" from="1" to="0" dur="3s" repeatCount="indefinite" /></circle></marker></defs><rect x="4" y="4" width="100" height="100" /><path d="M19.88,20.54c4.06,0.52,8.1,0.54,12.12,0.07c14.5-1.35,31.1-2.52,47.5-3.29c3.2-0.15,6.39,0.35,9.57,0.72" class="grey" /><path d="M37.31,40.71c0.8,0.8,1.21,1.91,1.21,3.15c0,0.48,0.05,15.14,0.07,24.14c0.01,2.59,0.01,4.65,0.01,5.67" class="grey" /><path d="M39.49,42.25c13.86-1.7,24.14-2.93,35.89-3.99c2.7-0.24,4.55,1.18,4.63,3.99c0.21,7.52,0.33,16.56-0.47,24.38c-0.66,6.5-2.04,6.5-6.16,1.92" class="grey" /><path d="M56.92,24.61c0.92,0.92,1.21,2.26,1.21,3.65c0,0.47,0.05,31.59,0.07,47.99c0.01,5.09,0.01,8.76,0.01,9.66" class="grey" /><path d="M22.58,21.96c0.98,0.98,1,2.41,1,3.91c0,14.75,0,61.03,0,64.11c0,2.99,0.98,3.91,3.66,3.74c9.58-0.63,39.01-1.99,51.01-2.37c4.26-0.13,8.51,0.28,12.75,0.83" class="grey" /><path d="M19.88,20.54c4.06,0.52,8.1,0.54,12.12,0.07c14.5-1.35,31.1-2.52,47.5-3.29c3.2-0.15,6.39,0.35,9.57,0.72" class="stroke" stroke-dasharray="150"><animate attributeName="stroke-dashoffset" from="150" to="0" dur="1.8s" begin="0.0s" fill="freeze" /></path><path d="M37.31,40.71c0.8,0.8,1.21,1.91,1.21,3.15c0,0.48,0.05,15.14,0.07,24.14c0.01,2.59,0.01,4.65,0.01,5.67" class="stroke" stroke-dasharray="150"><set attributeName="opacity" to="0" dur="1.5s" /><animate attributeName="stroke-dashoffset" from="150" to="0" dur="1.8s" begin="1.5s" fill="freeze" /></path><path d="M39.49,42.25c13.86-1.7,24.14-2.93,35.89-3.99c2.7-0.24,4.55,1.18,4.63,3.99c0.21,7.52,0.33,16.56-0.47,24.38c-0.66,6.5-2.04,6.5-6.16,1.92" class="stroke" stroke-dasharray="150"><set attributeName="opacity" to="0" dur="2.5s" /><animate attributeName="stroke-dashoffset" from="150" to="0" dur="1.8s" begin="2.5s" fill="freeze" /></path><path d="M56.92,24.61c0.92,0.92,1.21,2.26,1.21,3.65c0,0.47,0.05,31.59,0.07,47.99c0.01,5.09,0.01,8.76,0.01,9.66" class="stroke" stroke-dasharray="150"><set attributeName="opacity" to="0" dur="4.2s" /><animate attributeName="stroke-dashoffset" from="150" to="0" dur="1.8s" begin="4.2s" fill="freeze" /></path><path d="M22.58,21.96c0.98,0.98,1,2.41,1,3.91c0,14.75,0,61.03,0,64.11c0,2.99,0.98,3.91,3.66,3.74c9.58-0.63,39.01-1.99,51.01-2.37c4.26-0.13,8.51,0.28,12.75,0.83" class="stroke" stroke-dasharray="150"><set attributeName="opacity" to="0" dur="5.7s" /><animate attributeName="stroke-dashoffset" from="150" to="0" dur="1.8s" begin="5.7s" fill="freeze" /></path><text x="90" y="120" id="reset-kvg-0531d">⟳</text><text x="70" y="120" id="pause-kvg-0531d">◼</text><script type="text/javascript"><![CDATA[function RecurringTimer(e,t){var n,r,i=t;this.pause=function(){window.clearTimeout(n);i-=new Date-r};var s=function(){r=new Date;n=window.setTimeout(function(){i=t;s();e()},i)};this.clear=function(){window.clearTimeout(n);i=t;n=window.setTimeout(function(){i=t;s();e()},i)};this.resume=s;this.resume()}function invoketimer(){timer=new RecurringTimer(function(){svg.setCurrentTime(0)},8700.0)}var svg=document.getElementById("kvg-0531d");var pause=document.getElementById("pause-kvg-0531d");var reset=document.getElementById("reset-kvg-0531d");var timer;invoketimer();reset.onclick=function(){svg.setCurrentTime(0);timer.clear();svg.unpauseAnimations();pause.innerHTML = "◼";};pause.onclick=function(){if(svg.animationsPaused()){svg.unpauseAnimations();timer.resume();pause.innerHTML="◼"}else{svg.pauseAnimations();timer.pause();pause.innerHTML="▶"}}]]></script></svg>