<svg id="kvg-053a0-Kaisho" class="kanjivg" width="106" height="126" xmlns="http://www.w3.org/2000/svg" xmlns:xlink="http://www.w3.org/1999/xlink" xml:space="preserve" version="1.1" baseProfile="full"><defs><style type="text/css"><![CDATA[path.black{fill:none;stroke:black;stroke-width:5;stroke-linecap:round;stroke-linejoin:round;}path.grey{fill:none;stroke:#ddd;stroke-width:5;stroke-linecap:round;stroke-linejoin:round;}path.stroke{fill:none;stroke:black;stroke-width:5;stroke-linecap:round;stroke-linejoin:round;}rect{fill:none;stroke:#555;stroke-width:2;} text{font-size:16px;font-family:Segoe UI Symbol,Cambria Math,DejaVu Sans,Symbola,Quivira,STIX,Code2000;-webkit-touch-callout:none;cursor:pointer;-webkit-user-select:none;-khtml-user-select:none;-moz-user-select:none;-ms-user-select:none;user-select: none;}text:hover{color:#777;}#reset{font-weight:bold;}]]></style><marker id="markerStart" markerWidth="8" markerHeight="8" style="overflow:visible;"><circle cx="0" cy="0" r="1.5" style="stroke:none;fill:red;fill-opacity:0.5;"/></marker><marker id="markerEnd" style="overflow:visible;"><circle cx="0" cy="0" r="0.8" style="stroke:none;fill:blue;fill-opacity:0.5;"><animate attributeName="opacity" from="1" to="0" dur="3s" repeatCount="indefinite" /></circle></marker></defs><rect x="4" y="4" width="100" height="100" /><path d="M21.13,19.23c1.52,0.54,4.3,0.63,5.82,0.54c15.8-0.91,42.8-4.02,58.11-4.73c2.53-0.12,4.05,0.26,5.31,0.53" class="grey" /><path d="M24.5,20c0.5,1.5,0.51,1.9,0.43,4.36C24.25,44,22.5,75.25,11.81,91.97" class="grey" /><path d="M34.38,30.3c0.33,1.19,0.82,2.07,0.82,3.65c0,1.58-0.11,44.48,0,46.06" class="grey" /><path d="M35.76,31.78c1.89-0.2,16.26-3.22,17.98-3.46c1.43-0.2,2.56,1.1,2.44,2.57c-0.15,1.86-0.67,45.64-0.67,46.82" class="grey" /><path d="M35.72,46.42c3.04-0.46,6.07-0.94,9.11-1.38c0.91-0.13,1.83-0.27,2.74-0.4" class="grey" /><path d="M35.88,60.95c3.09-0.42,6.68-1.27,9.78-1.57c0.8-0.08,1.61-0.15,2.41-0.23" class="grey" /><path d="M36.36,77.2c4.53-0.86,12.86-2.03,18.63-2.37" class="grey" /><path d="M40.74,81.63c0.31,1.13,0.58,1.41,0,2.26c-2.61,3.82-7.21,8.59-10.95,11.53" class="grey" /><path d="M50.38,82.26c4.51,3.73,9.83,10.5,11.06,13.77" class="grey" /><path d="M69.81,33.44c1.01,0.88,1.72,1.9,1.8,4.81c0.41,13.95-0.02,30.51-0.02,35.27" class="grey" /><path d="M87.72,26.33c1.01,0.88,1.72,1.9,1.8,4.81c0.41,13.95-0.26,53-0.26,57.75c0,9.35-4.12,4.34-8.94,0.24" class="grey" /><path d="M21.13,19.23c1.52,0.54,4.3,0.63,5.82,0.54c15.8-0.91,42.8-4.02,58.11-4.73c2.53-0.12,4.05,0.26,5.31,0.53" class="stroke" stroke-dasharray="150"><animate attributeName="stroke-dashoffset" from="150" to="0" dur="1.8s" begin="0.0s" fill="freeze" /></path><path d="M24.5,20c0.5,1.5,0.51,1.9,0.43,4.36C24.25,44,22.5,75.25,11.81,91.97" class="stroke" stroke-dasharray="150"><set attributeName="opacity" to="0" dur="1.5s" /><animate attributeName="stroke-dashoffset" from="150" to="0" dur="1.8s" begin="1.5s" fill="freeze" /></path><path d="M34.38,30.3c0.33,1.19,0.82,2.07,0.82,3.65c0,1.58-0.11,44.48,0,46.06" class="stroke" stroke-dasharray="150"><set attributeName="opacity" to="0" dur="3.2s" /><animate attributeName="stroke-dashoffset" from="150" to="0" dur="1.8s" begin="3.2s" fill="freeze" /></path><path d="M35.76,31.78c1.89-0.2,16.26-3.22,17.98-3.46c1.43-0.2,2.56,1.1,2.44,2.57c-0.15,1.86-0.67,45.64-0.67,46.82" class="stroke" stroke-dasharray="150"><set attributeName="opacity" to="0" dur="4.4s" /><animate attributeName="stroke-dashoffset" from="150" to="0" dur="1.8s" begin="4.4s" fill="freeze" /></path><path d="M35.72,46.42c3.04-0.46,6.07-0.94,9.11-1.38c0.91-0.13,1.83-0.27,2.74-0.4" class="stroke" stroke-dasharray="150"><set attributeName="opacity" to="0" dur="5.9s" /><animate attributeName="stroke-dashoffset" from="150" to="0" dur="1.8s" begin="5.9s" fill="freeze" /></path><path d="M35.88,60.95c3.09-0.42,6.68-1.27,9.78-1.57c0.8-0.08,1.61-0.15,2.41-0.23" class="stroke" stroke-dasharray="150"><set attributeName="opacity" to="0" dur="6.800000000000001s" /><animate attributeName="stroke-dashoffset" from="150" to="0" dur="1.8s" begin="6.800000000000001s" fill="freeze" /></path><path d="M36.36,77.2c4.53-0.86,12.86-2.03,18.63-2.37" class="stroke" stroke-dasharray="150"><set attributeName="opacity" to="0" dur="7.700000000000001s" /><animate attributeName="stroke-dashoffset" from="150" to="0" dur="1.8s" begin="7.700000000000001s" fill="freeze" /></path><path d="M40.74,81.63c0.31,1.13,0.58,1.41,0,2.26c-2.61,3.82-7.21,8.59-10.95,11.53" class="stroke" stroke-dasharray="150"><set attributeName="opacity" to="0" dur="8.600000000000001s" /><animate attributeName="stroke-dashoffset" from="150" to="0" dur="1.8s" begin="8.600000000000001s" fill="freeze" /></path><path d="M50.38,82.26c4.51,3.73,9.83,10.5,11.06,13.77" class="stroke" stroke-dasharray="150"><set attributeName="opacity" to="0" dur="9.500000000000002s" /><animate attributeName="stroke-dashoffset" from="150" to="0" dur="1.8s" begin="9.500000000000002s" fill="freeze" /></path><path d="M69.81,33.44c1.01,0.88,1.72,1.9,1.8,4.81c0.41,13.95-0.02,30.51-0.02,35.27" class="stroke" stroke-dasharray="150"><set attributeName="opacity" to="0" dur="10.400000000000002s" /><animate attributeName="stroke-dashoffset" from="150" to="0" dur="1.8s" begin="10.400000000000002s" fill="freeze" /></path><path d="M87.72,26.33c1.01,0.88,1.72,1.9,1.8,4.81c0.41,13.95-0.26,53-0.26,57.75c0,9.35-4.12,4.34-8.94,0.24" class="stroke" stroke-dasharray="150"><set attributeName="opacity" to="0" dur="11.500000000000002s" /><animate attributeName="stroke-dashoffset" from="150" to="0" dur="1.8s" begin="11.500000000000002s" fill="freeze" /></path><text x="90" y="120" id="reset-kvg-053a0-Kaisho">⟳</text><text x="70" y="120" id="pause-kvg-053a0-Kaisho">◼</text><script type="text/javascript"><![CDATA[function RecurringTimer(e,t){var n,r,i=t;this.pause=function(){window.clearTimeout(n);i-=new Date-r};var s=function(){r=new Date;n=window.setTimeout(function(){i=t;s();e()},i)};this.clear=function(){window.clearTimeout(n);i=t;n=window.setTimeout(function(){i=t;s();e()},i)};this.resume=s;this.resume()}function invoketimer(){timer=new RecurringTimer(function(){svg.setCurrentTime(0)},14200.000000000002)}var svg=document.getElementById("kvg-053a0-Kaisho");var pause=document.getElementById("pause-kvg-053a0-Kaisho");var reset=document.getElementById("reset-kvg-053a0-Kaisho");var timer;invoketimer();reset.onclick=function(){svg.setCurrentTime(0);timer.clear();svg.unpauseAnimations();pause.innerHTML = "◼";};pause.onclick=function(){if(svg.animationsPaused()){svg.unpauseAnimations();timer.resume();pause.innerHTML="◼"}else{svg.pauseAnimations();timer.pause();pause.innerHTML="▶"}}]]></script></svg>