<svg id="kvg-0540c" class="kanjivg" width="106" height="126" xmlns="http://www.w3.org/2000/svg" xmlns:xlink="http://www.w3.org/1999/xlink" xml:space="preserve" version="1.1" baseProfile="full"><defs><style type="text/css"><![CDATA[path.black{fill:none;stroke:black;stroke-width:5;stroke-linecap:round;stroke-linejoin:round;}path.grey{fill:none;stroke:#ddd;stroke-width:5;stroke-linecap:round;stroke-linejoin:round;}path.stroke{fill:none;stroke:black;stroke-width:5;stroke-linecap:round;stroke-linejoin:round;}rect{fill:none;stroke:#555;stroke-width:2;} text{font-size:16px;font-family:Segoe UI Symbol,Cambria Math,DejaVu Sans,Symbola,Quivira,STIX,Code2000;-webkit-touch-callout:none;cursor:pointer;-webkit-user-select:none;-khtml-user-select:none;-moz-user-select:none;-ms-user-select:none;user-select: none;}text:hover{color:#777;}#reset{font-weight:bold;}]]></style><marker id="markerStart" markerWidth="8" markerHeight="8" style="overflow:visible;"><circle cx="0" cy="0" r="1.5" style="stroke:none;fill:red;fill-opacity:0.5;"/></marker><marker id="markerEnd" style="overflow:visible;"><circle cx="0" cy="0" r="0.8" style="stroke:none;fill:blue;fill-opacity:0.5;"><animate attributeName="opacity" from="1" to="0" dur="3s" repeatCount="indefinite" /></circle></marker></defs><rect x="4" y="4" width="100" height="100" /><path d="M21.67,16.73c1.08,1.27,1.69,3.02,1.69,5.32c0,4.15-0.19,49.87-0.25,67.2c-0.01,3.37-0.02,5.63-0.02,6.25" class="grey" /><path d="M24.04,19.17c15.63-1.45,57.69-4.83,59.24-5c3.88-0.42,5.19,1.58,5.19,4.37c0,2.54-0.26,65.26-0.26,71.1c0,12.6-5.08,4.85-7.96,2.05" class="grey" /><path d="M37.38,33.92c1.35,0.38,3.82,0.54,5.16,0.38c6.96-0.8,18.96-2.05,25.62-2.63c2.23-0.2,3.59,0.18,4.71,0.37" class="grey" /><path d="M38.83,48.39c0.82,0.55,1.53,1.56,1.76,2.49c1.15,4.62,2.13,10.46,3.01,16.32c0.27,1.8,0.52,2.78,0.76,4.3" class="grey" /><path d="M41.44,49.72c9.31-1.22,20.85-2.46,26.25-3.06c2.2-0.24,3.53,1.44,3.21,2.87c-1.09,4.92-2.33,9.95-3.83,16.33" class="grey" /><path d="M45.09,69.33c5.52-0.48,12.6-1.51,20.15-2.26c1.19-0.12,2.51-0.07,3.84-0.1" class="grey" /><path d="M21.67,16.73c1.08,1.27,1.69,3.02,1.69,5.32c0,4.15-0.19,49.87-0.25,67.2c-0.01,3.37-0.02,5.63-0.02,6.25" class="stroke" stroke-dasharray="150"><animate attributeName="stroke-dashoffset" from="150" to="0" dur="1.8s" begin="0.0s" fill="freeze" /></path><path d="M24.04,19.17c15.63-1.45,57.69-4.83,59.24-5c3.88-0.42,5.19,1.58,5.19,4.37c0,2.54-0.26,65.26-0.26,71.1c0,12.6-5.08,4.85-7.96,2.05" class="stroke" stroke-dasharray="200"><set attributeName="opacity" to="0" dur="1.7s" /><animate attributeName="stroke-dashoffset" from="200" to="0" dur="1.8s" begin="1.7s" fill="freeze" /></path><path d="M37.38,33.92c1.35,0.38,3.82,0.54,5.16,0.38c6.96-0.8,18.96-2.05,25.62-2.63c2.23-0.2,3.59,0.18,4.71,0.37" class="stroke" stroke-dasharray="150"><set attributeName="opacity" to="0" dur="3.7s" /><animate attributeName="stroke-dashoffset" from="150" to="0" dur="1.8s" begin="3.7s" fill="freeze" /></path><path d="M38.83,48.39c0.82,0.55,1.53,1.56,1.76,2.49c1.15,4.62,2.13,10.46,3.01,16.32c0.27,1.8,0.52,2.78,0.76,4.3" class="stroke" stroke-dasharray="150"><set attributeName="opacity" to="0" dur="4.7s" /><animate attributeName="stroke-dashoffset" from="150" to="0" dur="1.8s" begin="4.7s" fill="freeze" /></path><path d="M41.44,49.72c9.31-1.22,20.85-2.46,26.25-3.06c2.2-0.24,3.53,1.44,3.21,2.87c-1.09,4.92-2.33,9.95-3.83,16.33" class="stroke" stroke-dasharray="150"><set attributeName="opacity" to="0" dur="5.7s" /><animate attributeName="stroke-dashoffset" from="150" to="0" dur="1.8s" begin="5.7s" fill="freeze" /></path><path d="M45.09,69.33c5.52-0.48,12.6-1.51,20.15-2.26c1.19-0.12,2.51-0.07,3.84-0.1" class="stroke" stroke-dasharray="150"><set attributeName="opacity" to="0" dur="6.9s" /><animate attributeName="stroke-dashoffset" from="150" to="0" dur="1.8s" begin="6.9s" fill="freeze" /></path><text x="90" y="120" id="reset-kvg-0540c">⟳</text><text x="70" y="120" id="pause-kvg-0540c">◼</text><script type="text/javascript"><![CDATA[function RecurringTimer(e,t){var n,r,i=t;this.pause=function(){window.clearTimeout(n);i-=new Date-r};var s=function(){r=new Date;n=window.setTimeout(function(){i=t;s();e()},i)};this.clear=function(){window.clearTimeout(n);i=t;n=window.setTimeout(function(){i=t;s();e()},i)};this.resume=s;this.resume()}function invoketimer(){timer=new RecurringTimer(function(){svg.setCurrentTime(0)},8900.0)}var svg=document.getElementById("kvg-0540c");var pause=document.getElementById("pause-kvg-0540c");var reset=document.getElementById("reset-kvg-0540c");var timer;invoketimer();reset.onclick=function(){svg.setCurrentTime(0);timer.clear();svg.unpauseAnimations();pause.innerHTML = "◼";};pause.onclick=function(){if(svg.animationsPaused()){svg.unpauseAnimations();timer.resume();pause.innerHTML="◼"}else{svg.pauseAnimations();timer.pause();pause.innerHTML="▶"}}]]></script></svg>