<svg id="kvg-0544a" class="kanjivg" width="106" height="126" xmlns="http://www.w3.org/2000/svg" xmlns:xlink="http://www.w3.org/1999/xlink" xml:space="preserve" version="1.1" baseProfile="full"><defs><style type="text/css"><![CDATA[path.black{fill:none;stroke:black;stroke-width:5;stroke-linecap:round;stroke-linejoin:round;}path.grey{fill:none;stroke:#ddd;stroke-width:5;stroke-linecap:round;stroke-linejoin:round;}path.stroke{fill:none;stroke:black;stroke-width:5;stroke-linecap:round;stroke-linejoin:round;}rect{fill:none;stroke:#555;stroke-width:2;} text{font-size:16px;font-family:Segoe UI Symbol,Cambria Math,DejaVu Sans,Symbola,Quivira,STIX,Code2000;-webkit-touch-callout:none;cursor:pointer;-webkit-user-select:none;-khtml-user-select:none;-moz-user-select:none;-ms-user-select:none;user-select: none;}text:hover{color:#777;}#reset{font-weight:bold;}]]></style><marker id="markerStart" markerWidth="8" markerHeight="8" style="overflow:visible;"><circle cx="0" cy="0" r="1.5" style="stroke:none;fill:red;fill-opacity:0.5;"/></marker><marker id="markerEnd" style="overflow:visible;"><circle cx="0" cy="0" r="0.8" style="stroke:none;fill:blue;fill-opacity:0.5;"><animate attributeName="opacity" from="1" to="0" dur="3s" repeatCount="indefinite" /></circle></marker></defs><rect x="4" y="4" width="100" height="100" /><path d="M34.89,20.39c0.04,0.59,0.18,1.54-0.08,2.35C33.12,28,28.5,37.25,21,45.25" class="grey" /><path d="M33.13,34.17c1.62,0.21,2.91,0.19,3.85,0.13c9.4-0.55,21.77-2.05,32.4-3.37c2.16-0.27,4.37-0.41,6.5,0.11" class="grey" /><path d="M52.81,10.13c1.22,1.22,1.51,2.74,1.51,4.25c0,5.12,0,33.62,0,40.12" class="grey" /><path d="M12.88,58.73c1.92,0.54,5.45,0.75,7.36,0.54c19.89-2.14,47.39-4.89,66.43-6.23c3.19-0.22,5.12,0.26,6.72,0.53" class="grey" /><path d="M29.75,71.6c1.12,1.04,1.62,2.09,1.86,3.62c1.33,8.62,2.24,15.02,2.95,20.77c0.17,1.35,0.32,2.67,0.47,3.97" class="grey" /><path d="M32.64,74.21c13.21-2.16,31.39-4.69,40.98-5.52c3.64-0.32,6.11,1,5.16,4.95c-1.34,5.65-3.12,12.52-5.87,20.38" class="grey" /><path d="M36.04,97.38c9.92-0.53,24.79-1.6,34.96-2.14c1.84-0.1,3.53-0.18,5-0.24" class="grey" /><path d="M34.89,20.39c0.04,0.59,0.18,1.54-0.08,2.35C33.12,28,28.5,37.25,21,45.25" class="stroke" stroke-dasharray="150"><animate attributeName="stroke-dashoffset" from="150" to="0" dur="1.8s" begin="0.0s" fill="freeze" /></path><path d="M33.13,34.17c1.62,0.21,2.91,0.19,3.85,0.13c9.4-0.55,21.77-2.05,32.4-3.37c2.16-0.27,4.37-0.41,6.5,0.11" class="stroke" stroke-dasharray="150"><set attributeName="opacity" to="0" dur="1.0s" /><animate attributeName="stroke-dashoffset" from="150" to="0" dur="1.8s" begin="1.0s" fill="freeze" /></path><path d="M52.81,10.13c1.22,1.22,1.51,2.74,1.51,4.25c0,5.12,0,33.62,0,40.12" class="stroke" stroke-dasharray="150"><set attributeName="opacity" to="0" dur="2.1s" /><animate attributeName="stroke-dashoffset" from="150" to="0" dur="1.8s" begin="2.1s" fill="freeze" /></path><path d="M12.88,58.73c1.92,0.54,5.45,0.75,7.36,0.54c19.89-2.14,47.39-4.89,66.43-6.23c3.19-0.22,5.12,0.26,6.72,0.53" class="stroke" stroke-dasharray="150"><set attributeName="opacity" to="0" dur="3.2s" /><animate attributeName="stroke-dashoffset" from="150" to="0" dur="1.8s" begin="3.2s" fill="freeze" /></path><path d="M29.75,71.6c1.12,1.04,1.62,2.09,1.86,3.62c1.33,8.62,2.24,15.02,2.95,20.77c0.17,1.35,0.32,2.67,0.47,3.97" class="stroke" stroke-dasharray="150"><set attributeName="opacity" to="0" dur="4.9s" /><animate attributeName="stroke-dashoffset" from="150" to="0" dur="1.8s" begin="4.9s" fill="freeze" /></path><path d="M32.64,74.21c13.21-2.16,31.39-4.69,40.98-5.52c3.64-0.32,6.11,1,5.16,4.95c-1.34,5.65-3.12,12.52-5.87,20.38" class="stroke" stroke-dasharray="150"><set attributeName="opacity" to="0" dur="5.9s" /><animate attributeName="stroke-dashoffset" from="150" to="0" dur="1.8s" begin="5.9s" fill="freeze" /></path><path d="M36.04,97.38c9.92-0.53,24.79-1.6,34.96-2.14c1.84-0.1,3.53-0.18,5-0.24" class="stroke" stroke-dasharray="150"><set attributeName="opacity" to="0" dur="7.6000000000000005s" /><animate attributeName="stroke-dashoffset" from="150" to="0" dur="1.8s" begin="7.6000000000000005s" fill="freeze" /></path><text x="90" y="120" id="reset-kvg-0544a">⟳</text><text x="70" y="120" id="pause-kvg-0544a">◼</text><script type="text/javascript"><![CDATA[function RecurringTimer(e,t){var n,r,i=t;this.pause=function(){window.clearTimeout(n);i-=new Date-r};var s=function(){r=new Date;n=window.setTimeout(function(){i=t;s();e()},i)};this.clear=function(){window.clearTimeout(n);i=t;n=window.setTimeout(function(){i=t;s();e()},i)};this.resume=s;this.resume()}function invoketimer(){timer=new RecurringTimer(function(){svg.setCurrentTime(0)},9700.000000000002)}var svg=document.getElementById("kvg-0544a");var pause=document.getElementById("pause-kvg-0544a");var reset=document.getElementById("reset-kvg-0544a");var timer;invoketimer();reset.onclick=function(){svg.setCurrentTime(0);timer.clear();svg.unpauseAnimations();pause.innerHTML = "◼";};pause.onclick=function(){if(svg.animationsPaused()){svg.unpauseAnimations();timer.resume();pause.innerHTML="◼"}else{svg.pauseAnimations();timer.pause();pause.innerHTML="▶"}}]]></script></svg>