<svg id="kvg-054c7" class="kanjivg" width="106" height="126" xmlns="http://www.w3.org/2000/svg" xmlns:xlink="http://www.w3.org/1999/xlink" xml:space="preserve" version="1.1" baseProfile="full"><defs><style type="text/css"><![CDATA[path.black{fill:none;stroke:black;stroke-width:5;stroke-linecap:round;stroke-linejoin:round;}path.grey{fill:none;stroke:#ddd;stroke-width:5;stroke-linecap:round;stroke-linejoin:round;}path.stroke{fill:none;stroke:black;stroke-width:5;stroke-linecap:round;stroke-linejoin:round;}rect{fill:none;stroke:#555;stroke-width:2;} text{font-size:16px;font-family:Segoe UI Symbol,Cambria Math,DejaVu Sans,Symbola,Quivira,STIX,Code2000;-webkit-touch-callout:none;cursor:pointer;-webkit-user-select:none;-khtml-user-select:none;-moz-user-select:none;-ms-user-select:none;user-select: none;}text:hover{color:#777;}#reset{font-weight:bold;}]]></style><marker id="markerStart" markerWidth="8" markerHeight="8" style="overflow:visible;"><circle cx="0" cy="0" r="1.5" style="stroke:none;fill:red;fill-opacity:0.5;"/></marker><marker id="markerEnd" style="overflow:visible;"><circle cx="0" cy="0" r="0.8" style="stroke:none;fill:blue;fill-opacity:0.5;"><animate attributeName="opacity" from="1" to="0" dur="3s" repeatCount="indefinite" /></circle></marker></defs><rect x="4" y="4" width="100" height="100" /><path d="M11.5,33.85c0.22,0.47,0.94,2.37,1.03,2.94c0.75,4.49,3.15,17.74,3.67,25.71" class="grey" /><path d="M12.85,35.53c5.31-1.19,17.81-3.45,20.56-3.65c1.84-0.13,3.09,0.87,2.96,2.82c-0.38,5.48-2.77,13.66-4.04,21.49" class="grey" /><path d="M15.91,58.62c3.21-0.3,14.33-1.92,18.41-2.12" class="grey" /><path d="M48.05,32.74c0.95,0.48,2.7,0.55,3.66,0.48c9-0.61,21.65-2.87,34-3.3c1.59-0.06,2.55,0.23,3.34,0.47" class="grey" /><path d="M65.45,11.87c0.13,0.32,1.91,1.65,1.91,3.66c0,12.97,0.15,18.21,0.15,35.36" class="grey" /><path d="M45.2,52.15c1.57,0.51,3.35,0.58,4.92,0.51c9.26-0.42,28.18-2.67,38.44-3.04c2.61-0.09,3.62,0.24,4.94,0.5" class="grey" /><path d="M46.82,71.96c0.98,0.38,2.76,0.45,3.74,0.38c14.59-0.99,25.11-2.36,36.03-2.65c1.62-0.04,2.6,0.18,3.41,0.37" class="grey" /><path d="M66.6,55.82c0.12,0.28,1.68,1.45,1.68,3.22c0,11.39,0.13,17.64,0.13,32.7" class="grey" /><path d="M40.8,93.09c1.61,0.57,3.44,0.7,5.05,0.57c19.9-1.61,29.23-2.08,47.03-2.83c2.68-0.11,3.73,0.27,5.07,0.56" class="grey" /><path d="M11.5,33.85c0.22,0.47,0.94,2.37,1.03,2.94c0.75,4.49,3.15,17.74,3.67,25.71" class="stroke" stroke-dasharray="150"><animate attributeName="stroke-dashoffset" from="150" to="0" dur="1.8s" begin="0.0s" fill="freeze" /></path><path d="M12.85,35.53c5.31-1.19,17.81-3.45,20.56-3.65c1.84-0.13,3.09,0.87,2.96,2.82c-0.38,5.48-2.77,13.66-4.04,21.49" class="stroke" stroke-dasharray="150"><set attributeName="opacity" to="0" dur="1.0s" /><animate attributeName="stroke-dashoffset" from="150" to="0" dur="1.8s" begin="1.0s" fill="freeze" /></path><path d="M15.91,58.62c3.21-0.3,14.33-1.92,18.41-2.12" class="stroke" stroke-dasharray="150"><set attributeName="opacity" to="0" dur="2.2s" /><animate attributeName="stroke-dashoffset" from="150" to="0" dur="1.8s" begin="2.2s" fill="freeze" /></path><path d="M48.05,32.74c0.95,0.48,2.7,0.55,3.66,0.48c9-0.61,21.65-2.87,34-3.3c1.59-0.06,2.55,0.23,3.34,0.47" class="stroke" stroke-dasharray="150"><set attributeName="opacity" to="0" dur="3.1s" /><animate attributeName="stroke-dashoffset" from="150" to="0" dur="1.8s" begin="3.1s" fill="freeze" /></path><path d="M65.45,11.87c0.13,0.32,1.91,1.65,1.91,3.66c0,12.97,0.15,18.21,0.15,35.36" class="stroke" stroke-dasharray="150"><set attributeName="opacity" to="0" dur="4.2s" /><animate attributeName="stroke-dashoffset" from="150" to="0" dur="1.8s" begin="4.2s" fill="freeze" /></path><path d="M45.2,52.15c1.57,0.51,3.35,0.58,4.92,0.51c9.26-0.42,28.18-2.67,38.44-3.04c2.61-0.09,3.62,0.24,4.94,0.5" class="stroke" stroke-dasharray="150"><set attributeName="opacity" to="0" dur="5.2s" /><animate attributeName="stroke-dashoffset" from="150" to="0" dur="1.8s" begin="5.2s" fill="freeze" /></path><path d="M46.82,71.96c0.98,0.38,2.76,0.45,3.74,0.38c14.59-0.99,25.11-2.36,36.03-2.65c1.62-0.04,2.6,0.18,3.41,0.37" class="stroke" stroke-dasharray="150"><set attributeName="opacity" to="0" dur="6.4s" /><animate attributeName="stroke-dashoffset" from="150" to="0" dur="1.8s" begin="6.4s" fill="freeze" /></path><path d="M66.6,55.82c0.12,0.28,1.68,1.45,1.68,3.22c0,11.39,0.13,17.64,0.13,32.7" class="stroke" stroke-dasharray="150"><set attributeName="opacity" to="0" dur="7.5s" /><animate attributeName="stroke-dashoffset" from="150" to="0" dur="1.8s" begin="7.5s" fill="freeze" /></path><path d="M40.8,93.09c1.61,0.57,3.44,0.7,5.05,0.57c19.9-1.61,29.23-2.08,47.03-2.83c2.68-0.11,3.73,0.27,5.07,0.56" class="stroke" stroke-dasharray="150"><set attributeName="opacity" to="0" dur="8.5s" /><animate attributeName="stroke-dashoffset" from="150" to="0" dur="1.8s" begin="8.5s" fill="freeze" /></path><text x="90" y="120" id="reset-kvg-054c7">⟳</text><text x="70" y="120" id="pause-kvg-054c7">◼</text><script type="text/javascript"><![CDATA[function RecurringTimer(e,t){var n,r,i=t;this.pause=function(){window.clearTimeout(n);i-=new Date-r};var s=function(){r=new Date;n=window.setTimeout(function(){i=t;s();e()},i)};this.clear=function(){window.clearTimeout(n);i=t;n=window.setTimeout(function(){i=t;s();e()},i)};this.resume=s;this.resume()}function invoketimer(){timer=new RecurringTimer(function(){svg.setCurrentTime(0)},10900.0)}var svg=document.getElementById("kvg-054c7");var pause=document.getElementById("pause-kvg-054c7");var reset=document.getElementById("reset-kvg-054c7");var timer;invoketimer();reset.onclick=function(){svg.setCurrentTime(0);timer.clear();svg.unpauseAnimations();pause.innerHTML = "◼";};pause.onclick=function(){if(svg.animationsPaused()){svg.unpauseAnimations();timer.resume();pause.innerHTML="◼"}else{svg.pauseAnimations();timer.pause();pause.innerHTML="▶"}}]]></script></svg>