<svg id="kvg-0553e" class="kanjivg" width="106" height="126" xmlns="http://www.w3.org/2000/svg" xmlns:xlink="http://www.w3.org/1999/xlink" xml:space="preserve" version="1.1" baseProfile="full"><defs><style type="text/css"><![CDATA[path.black{fill:none;stroke:black;stroke-width:5;stroke-linecap:round;stroke-linejoin:round;}path.grey{fill:none;stroke:#ddd;stroke-width:5;stroke-linecap:round;stroke-linejoin:round;}path.stroke{fill:none;stroke:black;stroke-width:5;stroke-linecap:round;stroke-linejoin:round;}rect{fill:none;stroke:#555;stroke-width:2;} text{font-size:16px;font-family:Segoe UI Symbol,Cambria Math,DejaVu Sans,Symbola,Quivira,STIX,Code2000;-webkit-touch-callout:none;cursor:pointer;-webkit-user-select:none;-khtml-user-select:none;-moz-user-select:none;-ms-user-select:none;user-select: none;}text:hover{color:#777;}#reset{font-weight:bold;}]]></style><marker id="markerStart" markerWidth="8" markerHeight="8" style="overflow:visible;"><circle cx="0" cy="0" r="1.5" style="stroke:none;fill:red;fill-opacity:0.5;"/></marker><marker id="markerEnd" style="overflow:visible;"><circle cx="0" cy="0" r="0.8" style="stroke:none;fill:blue;fill-opacity:0.5;"><animate attributeName="opacity" from="1" to="0" dur="3s" repeatCount="indefinite" /></circle></marker></defs><rect x="4" y="4" width="100" height="100" /><path d="M11.5,35.54c0.98,0.98,1.34,2.01,1.46,3.07c0.96,5.86,1.96,13.09,2.83,20.16c0.3,2.45,0.59,4.89,0.85,7.24" class="grey" /><path d="M13.33,37.22c8.53-1.3,13.91-1.91,18.06-2.49c2.33-0.33,4.21,1.05,3.77,3.65c-0.96,5.77-2.47,13.01-3.8,20.73" class="grey" /><path d="M16.82,61.8c3.89-0.57,7.44-0.95,12.07-1.55c1.48-0.19,3.07-0.41,4.82-0.65" class="grey" /><path d="M80.21,12.5c0,0.88-0.58,1.82-1.5,2.38C72.38,18.75,64,22.62,48.84,26.54" class="grey" /><path d="M43.06,37.79c2.79,0.73,5.56,0.47,8.45,0.12c9.34-1.14,24.55-2.89,33.12-3.6c2.73-0.38,5.45-0.36,8.17,0.04" class="grey" /><path d="M40,56.8c3.31,0.76,6.56,0.25,10-0.11c11.37-1.19,27.05-2.39,38.38-3.19c3.56-0.25,7.11-0.5,10.7-0.25" class="grey" /><path d="M49.92,46.25c0.98,0.98,1.28,2.18,1.36,3.09c0.85,9.28,1.22,11.78,1.91,18.66" class="grey" /><path d="M88.01,42.25c0.49,1,0.5,2.27,0.24,3.68c-1.75,9.45-2.12,11.45-3.81,20.57" class="grey" /><path d="M44.62,75.45c2.91,0.56,5.8,0.34,8.77,0.06c9.24-0.88,22.27-2,31.1-2.48c2.89-0.16,5.71-0.35,8.53,0.18" class="grey" /><path d="M67,24.25c1.19,1.19,1.22,2.75,1.22,4c0,1.02-0.06,53.5-0.06,63.5" class="grey" /><path d="M40.52,93.71c3.44,0.53,6.88,0.41,10.35,0.09c11.38-1.05,27.63-2.05,37.75-2.23c3.67-0.06,7.28,0.15,10.88,0.87" class="grey" /><path d="M11.5,35.54c0.98,0.98,1.34,2.01,1.46,3.07c0.96,5.86,1.96,13.09,2.83,20.16c0.3,2.45,0.59,4.89,0.85,7.24" class="stroke" stroke-dasharray="150"><animate attributeName="stroke-dashoffset" from="150" to="0" dur="1.8s" begin="0.0s" fill="freeze" /></path><path d="M13.33,37.22c8.53-1.3,13.91-1.91,18.06-2.49c2.33-0.33,4.21,1.05,3.77,3.65c-0.96,5.77-2.47,13.01-3.8,20.73" class="stroke" stroke-dasharray="150"><set attributeName="opacity" to="0" dur="1.0s" /><animate attributeName="stroke-dashoffset" from="150" to="0" dur="1.8s" begin="1.0s" fill="freeze" /></path><path d="M16.82,61.8c3.89-0.57,7.44-0.95,12.07-1.55c1.48-0.19,3.07-0.41,4.82-0.65" class="stroke" stroke-dasharray="150"><set attributeName="opacity" to="0" dur="2.2s" /><animate attributeName="stroke-dashoffset" from="150" to="0" dur="1.8s" begin="2.2s" fill="freeze" /></path><path d="M80.21,12.5c0,0.88-0.58,1.82-1.5,2.38C72.38,18.75,64,22.62,48.84,26.54" class="stroke" stroke-dasharray="150"><set attributeName="opacity" to="0" dur="3.1s" /><animate attributeName="stroke-dashoffset" from="150" to="0" dur="1.8s" begin="3.1s" fill="freeze" /></path><path d="M43.06,37.79c2.79,0.73,5.56,0.47,8.45,0.12c9.34-1.14,24.55-2.89,33.12-3.6c2.73-0.38,5.45-0.36,8.17,0.04" class="stroke" stroke-dasharray="150"><set attributeName="opacity" to="0" dur="4.1s" /><animate attributeName="stroke-dashoffset" from="150" to="0" dur="1.8s" begin="4.1s" fill="freeze" /></path><path d="M40,56.8c3.31,0.76,6.56,0.25,10-0.11c11.37-1.19,27.05-2.39,38.38-3.19c3.56-0.25,7.11-0.5,10.7-0.25" class="stroke" stroke-dasharray="150"><set attributeName="opacity" to="0" dur="5.3999999999999995s" /><animate attributeName="stroke-dashoffset" from="150" to="0" dur="1.8s" begin="5.3999999999999995s" fill="freeze" /></path><path d="M49.92,46.25c0.98,0.98,1.28,2.18,1.36,3.09c0.85,9.28,1.22,11.78,1.91,18.66" class="stroke" stroke-dasharray="150"><set attributeName="opacity" to="0" dur="6.799999999999999s" /><animate attributeName="stroke-dashoffset" from="150" to="0" dur="1.8s" begin="6.799999999999999s" fill="freeze" /></path><path d="M88.01,42.25c0.49,1,0.5,2.27,0.24,3.68c-1.75,9.45-2.12,11.45-3.81,20.57" class="stroke" stroke-dasharray="150"><set attributeName="opacity" to="0" dur="7.799999999999999s" /><animate attributeName="stroke-dashoffset" from="150" to="0" dur="1.8s" begin="7.799999999999999s" fill="freeze" /></path><path d="M44.62,75.45c2.91,0.56,5.8,0.34,8.77,0.06c9.24-0.88,22.27-2,31.1-2.48c2.89-0.16,5.71-0.35,8.53,0.18" class="stroke" stroke-dasharray="150"><set attributeName="opacity" to="0" dur="8.799999999999999s" /><animate attributeName="stroke-dashoffset" from="150" to="0" dur="1.8s" begin="8.799999999999999s" fill="freeze" /></path><path d="M67,24.25c1.19,1.19,1.22,2.75,1.22,4c0,1.02-0.06,53.5-0.06,63.5" class="stroke" stroke-dasharray="150"><set attributeName="opacity" to="0" dur="9.999999999999998s" /><animate attributeName="stroke-dashoffset" from="150" to="0" dur="1.8s" begin="9.999999999999998s" fill="freeze" /></path><path d="M40.52,93.71c3.44,0.53,6.88,0.41,10.35,0.09c11.38-1.05,27.63-2.05,37.75-2.23c3.67-0.06,7.28,0.15,10.88,0.87" class="stroke" stroke-dasharray="150"><set attributeName="opacity" to="0" dur="11.499999999999998s" /><animate attributeName="stroke-dashoffset" from="150" to="0" dur="1.8s" begin="11.499999999999998s" fill="freeze" /></path><text x="90" y="120" id="reset-kvg-0553e">⟳</text><text x="70" y="120" id="pause-kvg-0553e">◼</text><script type="text/javascript"><![CDATA[function RecurringTimer(e,t){var n,r,i=t;this.pause=function(){window.clearTimeout(n);i-=new Date-r};var s=function(){r=new Date;n=window.setTimeout(function(){i=t;s();e()},i)};this.clear=function(){window.clearTimeout(n);i=t;n=window.setTimeout(function(){i=t;s();e()},i)};this.resume=s;this.resume()}function invoketimer(){timer=new RecurringTimer(function(){svg.setCurrentTime(0)},13899.999999999998)}var svg=document.getElementById("kvg-0553e");var pause=document.getElementById("pause-kvg-0553e");var reset=document.getElementById("reset-kvg-0553e");var timer;invoketimer();reset.onclick=function(){svg.setCurrentTime(0);timer.clear();svg.unpauseAnimations();pause.innerHTML = "◼";};pause.onclick=function(){if(svg.animationsPaused()){svg.unpauseAnimations();timer.resume();pause.innerHTML="◼"}else{svg.pauseAnimations();timer.pause();pause.innerHTML="▶"}}]]></script></svg>