<svg id="kvg-056e0" class="kanjivg" width="106" height="126" xmlns="http://www.w3.org/2000/svg" xmlns:xlink="http://www.w3.org/1999/xlink" xml:space="preserve" version="1.1" baseProfile="full"><defs><style type="text/css"><![CDATA[path.black{fill:none;stroke:black;stroke-width:5;stroke-linecap:round;stroke-linejoin:round;}path.grey{fill:none;stroke:#ddd;stroke-width:5;stroke-linecap:round;stroke-linejoin:round;}path.stroke{fill:none;stroke:black;stroke-width:5;stroke-linecap:round;stroke-linejoin:round;}rect{fill:none;stroke:#555;stroke-width:2;} text{font-size:16px;font-family:Segoe UI Symbol,Cambria Math,DejaVu Sans,Symbola,Quivira,STIX,Code2000;-webkit-touch-callout:none;cursor:pointer;-webkit-user-select:none;-khtml-user-select:none;-moz-user-select:none;-ms-user-select:none;user-select: none;}text:hover{color:#777;}#reset{font-weight:bold;}]]></style><marker id="markerStart" markerWidth="8" markerHeight="8" style="overflow:visible;"><circle cx="0" cy="0" r="1.5" style="stroke:none;fill:red;fill-opacity:0.5;"/></marker><marker id="markerEnd" style="overflow:visible;"><circle cx="0" cy="0" r="0.8" style="stroke:none;fill:blue;fill-opacity:0.5;"><animate attributeName="opacity" from="1" to="0" dur="3s" repeatCount="indefinite" /></circle></marker></defs><rect x="4" y="4" width="100" height="100" /><path d="M18.75,16.32c1.22,1.22,1.86,3.01,1.86,4.91c0,12.2-0.05,48.6-0.06,68.4c0,2.96,0,5.54,0,7.62" class="grey" /><path d="M21.23,18.4c18.9-1.27,51.45-3.15,63.52-3.15c2.75,0,4.55,1.74,4.5,4.75c-0.22,13.86-0.05,45.05-0.01,67.75c0.01,3.1,0.01,6.04,0.01,8.75" class="grey" /><path d="M32.11,45.55c2.2,0.53,4.69,0.23,6.89,0c10.93-1.16,23.62-2.45,33.64-3.32c2.15-0.19,4.36-0.35,6.41,0" class="grey" /><path d="M53.55,24.5c0.41,0.81,0.62,1.73,0.61,3.47C54.12,56.38,46,73,29.75,83.25" class="grey" /><path d="M54.97,54.31c8.18,5.54,18.49,15.5,23.44,26.3" class="grey" /><path d="M21.75,94.51C41.62,93.75,69.96,92.41,88,92" class="grey" /><path d="M18.75,16.32c1.22,1.22,1.86,3.01,1.86,4.91c0,12.2-0.05,48.6-0.06,68.4c0,2.96,0,5.54,0,7.62" class="stroke" stroke-dasharray="150"><animate attributeName="stroke-dashoffset" from="150" to="0" dur="1.8s" begin="0.0s" fill="freeze" /></path><path d="M21.23,18.4c18.9-1.27,51.45-3.15,63.52-3.15c2.75,0,4.55,1.74,4.5,4.75c-0.22,13.86-0.05,45.05-0.01,67.75c0.01,3.1,0.01,6.04,0.01,8.75" class="stroke" stroke-dasharray="150"><set attributeName="opacity" to="0" dur="1.7s" /><animate attributeName="stroke-dashoffset" from="150" to="0" dur="1.8s" begin="1.7s" fill="freeze" /></path><path d="M32.11,45.55c2.2,0.53,4.69,0.23,6.89,0c10.93-1.16,23.62-2.45,33.64-3.32c2.15-0.19,4.36-0.35,6.41,0" class="stroke" stroke-dasharray="150"><set attributeName="opacity" to="0" dur="3.7s" /><animate attributeName="stroke-dashoffset" from="150" to="0" dur="1.8s" begin="3.7s" fill="freeze" /></path><path d="M53.55,24.5c0.41,0.81,0.62,1.73,0.61,3.47C54.12,56.38,46,73,29.75,83.25" class="stroke" stroke-dasharray="150"><set attributeName="opacity" to="0" dur="4.9s" /><animate attributeName="stroke-dashoffset" from="150" to="0" dur="1.8s" begin="4.9s" fill="freeze" /></path><path d="M54.97,54.31c8.18,5.54,18.49,15.5,23.44,26.3" class="stroke" stroke-dasharray="150"><set attributeName="opacity" to="0" dur="6.4s" /><animate attributeName="stroke-dashoffset" from="150" to="0" dur="1.8s" begin="6.4s" fill="freeze" /></path><path d="M21.75,94.51C41.62,93.75,69.96,92.41,88,92" class="stroke" stroke-dasharray="150"><set attributeName="opacity" to="0" dur="7.4s" /><animate attributeName="stroke-dashoffset" from="150" to="0" dur="1.8s" begin="7.4s" fill="freeze" /></path><text x="90" y="120" id="reset-kvg-056e0">⟳</text><text x="70" y="120" id="pause-kvg-056e0">◼</text><script type="text/javascript"><![CDATA[function RecurringTimer(e,t){var n,r,i=t;this.pause=function(){window.clearTimeout(n);i-=new Date-r};var s=function(){r=new Date;n=window.setTimeout(function(){i=t;s();e()},i)};this.clear=function(){window.clearTimeout(n);i=t;n=window.setTimeout(function(){i=t;s();e()},i)};this.resume=s;this.resume()}function invoketimer(){timer=new RecurringTimer(function(){svg.setCurrentTime(0)},9900.0)}var svg=document.getElementById("kvg-056e0");var pause=document.getElementById("pause-kvg-056e0");var reset=document.getElementById("reset-kvg-056e0");var timer;invoketimer();reset.onclick=function(){svg.setCurrentTime(0);timer.clear();svg.unpauseAnimations();pause.innerHTML = "◼";};pause.onclick=function(){if(svg.animationsPaused()){svg.unpauseAnimations();timer.resume();pause.innerHTML="◼"}else{svg.pauseAnimations();timer.pause();pause.innerHTML="▶"}}]]></script></svg>