<svg id="kvg-056fd" class="kanjivg" width="106" height="126" xmlns="http://www.w3.org/2000/svg" xmlns:xlink="http://www.w3.org/1999/xlink" xml:space="preserve" version="1.1" baseProfile="full"><defs><style type="text/css"><![CDATA[path.black{fill:none;stroke:black;stroke-width:5;stroke-linecap:round;stroke-linejoin:round;}path.grey{fill:none;stroke:#ddd;stroke-width:5;stroke-linecap:round;stroke-linejoin:round;}path.stroke{fill:none;stroke:black;stroke-width:5;stroke-linecap:round;stroke-linejoin:round;}rect{fill:none;stroke:#555;stroke-width:2;} text{font-size:16px;font-family:Segoe UI Symbol,Cambria Math,DejaVu Sans,Symbola,Quivira,STIX,Code2000;-webkit-touch-callout:none;cursor:pointer;-webkit-user-select:none;-khtml-user-select:none;-moz-user-select:none;-ms-user-select:none;user-select: none;}text:hover{color:#777;}#reset{font-weight:bold;}]]></style><marker id="markerStart" markerWidth="8" markerHeight="8" style="overflow:visible;"><circle cx="0" cy="0" r="1.5" style="stroke:none;fill:red;fill-opacity:0.5;"/></marker><marker id="markerEnd" style="overflow:visible;"><circle cx="0" cy="0" r="0.8" style="stroke:none;fill:blue;fill-opacity:0.5;"><animate attributeName="opacity" from="1" to="0" dur="3s" repeatCount="indefinite" /></circle></marker></defs><rect x="4" y="4" width="100" height="100" /><path d="M19,16.82c1.09,1.09,1.61,2.51,1.61,4.41c0,14.65-0.22,44.9-0.22,71.53c0,1.95-0.06,3.86-0.09,5.75" class="grey" /><path d="M21.52,18.67C41.38,16.75,74.03,13.5,85,13.5c3.38,0,5,1.85,5,5.25c0,15.36-0.04,47.89-0.08,70.62c0,1.68,0,3.31,0,4.88" class="grey" /><path d="M35.12,33.88c1.32,0.28,4.2,0.44,5.51,0.28c10.47-1.29,20.62-2.54,28.62-3.13c2.02-0.15,3.88-0.19,5.56,0.04" class="grey" /><path d="M52.8,34.89c0.96,0.97,1.47,2.48,1.47,3.81c0,3.99-0.13,24.74-0.09,33.55" class="grey" /><path d="M37.58,52.16c1.79,0.22,3.41,0.14,5.36-0.08c7.56-0.83,17.56-1.99,25.38-2.8c1.25-0.13,4.02-0.15,5.89,0.17" class="grey" /><path d="M31.08,75.14c1.54,0.36,3.85,0.28,5.19,0.16c9.98-0.92,25.85-2.67,37.03-3.54c2.15-0.17,5.04-0.18,6.12,0.13" class="grey" /><path d="M67.75,56.62c3,1.75,6.12,5.12,8,8.38" class="grey" /><path d="M21.5,93.01c14.25-0.51,48.38-1.89,67-2.51" class="grey" /><path d="M19,16.82c1.09,1.09,1.61,2.51,1.61,4.41c0,14.65-0.22,44.9-0.22,71.53c0,1.95-0.06,3.86-0.09,5.75" class="stroke" stroke-dasharray="150"><animate attributeName="stroke-dashoffset" from="150" to="0" dur="1.8s" begin="0.0s" fill="freeze" /></path><path d="M21.52,18.67C41.38,16.75,74.03,13.5,85,13.5c3.38,0,5,1.85,5,5.25c0,15.36-0.04,47.89-0.08,70.62c0,1.68,0,3.31,0,4.88" class="stroke" stroke-dasharray="150"><set attributeName="opacity" to="0" dur="1.7s" /><animate attributeName="stroke-dashoffset" from="150" to="0" dur="1.8s" begin="1.7s" fill="freeze" /></path><path d="M35.12,33.88c1.32,0.28,4.2,0.44,5.51,0.28c10.47-1.29,20.62-2.54,28.62-3.13c2.02-0.15,3.88-0.19,5.56,0.04" class="stroke" stroke-dasharray="150"><set attributeName="opacity" to="0" dur="3.7s" /><animate attributeName="stroke-dashoffset" from="150" to="0" dur="1.8s" begin="3.7s" fill="freeze" /></path><path d="M52.8,34.89c0.96,0.97,1.47,2.48,1.47,3.81c0,3.99-0.13,24.74-0.09,33.55" class="stroke" stroke-dasharray="150"><set attributeName="opacity" to="0" dur="4.7s" /><animate attributeName="stroke-dashoffset" from="150" to="0" dur="1.8s" begin="4.7s" fill="freeze" /></path><path d="M37.58,52.16c1.79,0.22,3.41,0.14,5.36-0.08c7.56-0.83,17.56-1.99,25.38-2.8c1.25-0.13,4.02-0.15,5.89,0.17" class="stroke" stroke-dasharray="150"><set attributeName="opacity" to="0" dur="5.7s" /><animate attributeName="stroke-dashoffset" from="150" to="0" dur="1.8s" begin="5.7s" fill="freeze" /></path><path d="M31.08,75.14c1.54,0.36,3.85,0.28,5.19,0.16c9.98-0.92,25.85-2.67,37.03-3.54c2.15-0.17,5.04-0.18,6.12,0.13" class="stroke" stroke-dasharray="150"><set attributeName="opacity" to="0" dur="6.7s" /><animate attributeName="stroke-dashoffset" from="150" to="0" dur="1.8s" begin="6.7s" fill="freeze" /></path><path d="M67.75,56.62c3,1.75,6.12,5.12,8,8.38" class="stroke" stroke-dasharray="150"><set attributeName="opacity" to="0" dur="7.9s" /><animate attributeName="stroke-dashoffset" from="150" to="0" dur="1.8s" begin="7.9s" fill="freeze" /></path><path d="M21.5,93.01c14.25-0.51,48.38-1.89,67-2.51" class="stroke" stroke-dasharray="150"><set attributeName="opacity" to="0" dur="8.8s" /><animate attributeName="stroke-dashoffset" from="150" to="0" dur="1.8s" begin="8.8s" fill="freeze" /></path><text x="90" y="120" id="reset-kvg-056fd">⟳</text><text x="70" y="120" id="pause-kvg-056fd">◼</text><script type="text/javascript"><![CDATA[function RecurringTimer(e,t){var n,r,i=t;this.pause=function(){window.clearTimeout(n);i-=new Date-r};var s=function(){r=new Date;n=window.setTimeout(function(){i=t;s();e()},i)};this.clear=function(){window.clearTimeout(n);i=t;n=window.setTimeout(function(){i=t;s();e()},i)};this.resume=s;this.resume()}function invoketimer(){timer=new RecurringTimer(function(){svg.setCurrentTime(0)},11300.0)}var svg=document.getElementById("kvg-056fd");var pause=document.getElementById("pause-kvg-056fd");var reset=document.getElementById("reset-kvg-056fd");var timer;invoketimer();reset.onclick=function(){svg.setCurrentTime(0);timer.clear();svg.unpauseAnimations();pause.innerHTML = "◼";};pause.onclick=function(){if(svg.animationsPaused()){svg.unpauseAnimations();timer.resume();pause.innerHTML="◼"}else{svg.pauseAnimations();timer.pause();pause.innerHTML="▶"}}]]></script></svg>