<svg id="kvg-057a2" class="kanjivg" width="106" height="126" xmlns="http://www.w3.org/2000/svg" xmlns:xlink="http://www.w3.org/1999/xlink" xml:space="preserve" version="1.1" baseProfile="full"><defs><style type="text/css"><![CDATA[path.black{fill:none;stroke:black;stroke-width:5;stroke-linecap:round;stroke-linejoin:round;}path.grey{fill:none;stroke:#ddd;stroke-width:5;stroke-linecap:round;stroke-linejoin:round;}path.stroke{fill:none;stroke:black;stroke-width:5;stroke-linecap:round;stroke-linejoin:round;}rect{fill:none;stroke:#555;stroke-width:2;} text{font-size:16px;font-family:Segoe UI Symbol,Cambria Math,DejaVu Sans,Symbola,Quivira,STIX,Code2000;-webkit-touch-callout:none;cursor:pointer;-webkit-user-select:none;-khtml-user-select:none;-moz-user-select:none;-ms-user-select:none;user-select: none;}text:hover{color:#777;}#reset{font-weight:bold;}]]></style><marker id="markerStart" markerWidth="8" markerHeight="8" style="overflow:visible;"><circle cx="0" cy="0" r="1.5" style="stroke:none;fill:red;fill-opacity:0.5;"/></marker><marker id="markerEnd" style="overflow:visible;"><circle cx="0" cy="0" r="0.8" style="stroke:none;fill:blue;fill-opacity:0.5;"><animate attributeName="opacity" from="1" to="0" dur="3s" repeatCount="indefinite" /></circle></marker></defs><rect x="4" y="4" width="100" height="100" /><path d="M11.5,47.39c2.07,0.42,4.16,0.49,6.26,0.22c5.85-0.86,14.46-2.79,18.62-3.59c1.61-0.31,3.23-0.48,4.87-0.51" class="grey" /><path d="M27.37,16.5c1.19,1.19,1.21,2.5,1.21,3.75c0,1.02,0.03,48.5,0.03,55.25" class="grey" /><path d="M13,83.75c1.12,0.87,2.35,0.84,4.2-0.29c6.92-4.22,14.17-8.84,21.3-13.72" class="grey" /><path d="M81.99,13.64c-0.18,1.08-0.62,2.04-1.3,2.88c-5.18,4.6-11.47,8.4-25.06,14.1" class="grey" /><path d="M51.64,30.75c0.99,0.99,1.13,2.36,1.09,3.33c-1.35,29.42-6.1,45.3-19.98,56.67" class="grey" /><path d="M55.18,47.65c2.57,0.35,4.63-0.12,7.18-0.4c7.41-0.81,18.16-3.25,25.04-4.28c2.3-0.34,5.58-1.27,7.86-0.6" class="grey" /><path d="M55.19,68.35c1.08,1.11,1.35,2.43,1.56,3.92c0.83,5.85,1.54,11.24,2.17,16.47c0.27,2.26,0.53,4.49,0.78,6.72" class="grey" /><path d="M57.07,70.26c8.37-1.07,19.43-2.39,28.21-3.09c3.07-0.25,6.24,0.17,5.33,3.95c-1.99,8.25-2.43,10.53-4.49,19.38" class="grey" /><path d="M60.62,93.5c5.35-0.48,14.63-1.1,22-1.59c2.28-0.15,4.37-0.29,6.11-0.41" class="grey" /><path d="M11.5,47.39c2.07,0.42,4.16,0.49,6.26,0.22c5.85-0.86,14.46-2.79,18.62-3.59c1.61-0.31,3.23-0.48,4.87-0.51" class="stroke" stroke-dasharray="150"><animate attributeName="stroke-dashoffset" from="150" to="0" dur="1.8s" begin="0.0s" fill="freeze" /></path><path d="M27.37,16.5c1.19,1.19,1.21,2.5,1.21,3.75c0,1.02,0.03,48.5,0.03,55.25" class="stroke" stroke-dasharray="150"><set attributeName="opacity" to="0" dur="1.0s" /><animate attributeName="stroke-dashoffset" from="150" to="0" dur="1.8s" begin="1.0s" fill="freeze" /></path><path d="M13,83.75c1.12,0.87,2.35,0.84,4.2-0.29c6.92-4.22,14.17-8.84,21.3-13.72" class="stroke" stroke-dasharray="150"><set attributeName="opacity" to="0" dur="2.4s" /><animate attributeName="stroke-dashoffset" from="150" to="0" dur="1.8s" begin="2.4s" fill="freeze" /></path><path d="M81.99,13.64c-0.18,1.08-0.62,2.04-1.3,2.88c-5.18,4.6-11.47,8.4-25.06,14.1" class="stroke" stroke-dasharray="150"><set attributeName="opacity" to="0" dur="3.4s" /><animate attributeName="stroke-dashoffset" from="150" to="0" dur="1.8s" begin="3.4s" fill="freeze" /></path><path d="M51.64,30.75c0.99,0.99,1.13,2.36,1.09,3.33c-1.35,29.42-6.1,45.3-19.98,56.67" class="stroke" stroke-dasharray="150"><set attributeName="opacity" to="0" dur="4.4s" /><animate attributeName="stroke-dashoffset" from="150" to="0" dur="1.8s" begin="4.4s" fill="freeze" /></path><path d="M55.18,47.65c2.57,0.35,4.63-0.12,7.18-0.4c7.41-0.81,18.16-3.25,25.04-4.28c2.3-0.34,5.58-1.27,7.86-0.6" class="stroke" stroke-dasharray="150"><set attributeName="opacity" to="0" dur="5.9s" /><animate attributeName="stroke-dashoffset" from="150" to="0" dur="1.8s" begin="5.9s" fill="freeze" /></path><path d="M55.19,68.35c1.08,1.11,1.35,2.43,1.56,3.92c0.83,5.85,1.54,11.24,2.17,16.47c0.27,2.26,0.53,4.49,0.78,6.72" class="stroke" stroke-dasharray="150"><set attributeName="opacity" to="0" dur="7.0s" /><animate attributeName="stroke-dashoffset" from="150" to="0" dur="1.8s" begin="7.0s" fill="freeze" /></path><path d="M57.07,70.26c8.37-1.07,19.43-2.39,28.21-3.09c3.07-0.25,6.24,0.17,5.33,3.95c-1.99,8.25-2.43,10.53-4.49,19.38" class="stroke" stroke-dasharray="150"><set attributeName="opacity" to="0" dur="8.0s" /><animate attributeName="stroke-dashoffset" from="150" to="0" dur="1.8s" begin="8.0s" fill="freeze" /></path><path d="M60.62,93.5c5.35-0.48,14.63-1.1,22-1.59c2.28-0.15,4.37-0.29,6.11-0.41" class="stroke" stroke-dasharray="150"><set attributeName="opacity" to="0" dur="9.4s" /><animate attributeName="stroke-dashoffset" from="150" to="0" dur="1.8s" begin="9.4s" fill="freeze" /></path><text x="90" y="120" id="reset-kvg-057a2">⟳</text><text x="70" y="120" id="pause-kvg-057a2">◼</text><script type="text/javascript"><![CDATA[function RecurringTimer(e,t){var n,r,i=t;this.pause=function(){window.clearTimeout(n);i-=new Date-r};var s=function(){r=new Date;n=window.setTimeout(function(){i=t;s();e()},i)};this.clear=function(){window.clearTimeout(n);i=t;n=window.setTimeout(function(){i=t;s();e()},i)};this.resume=s;this.resume()}function invoketimer(){timer=new RecurringTimer(function(){svg.setCurrentTime(0)},11400.0)}var svg=document.getElementById("kvg-057a2");var pause=document.getElementById("pause-kvg-057a2");var reset=document.getElementById("reset-kvg-057a2");var timer;invoketimer();reset.onclick=function(){svg.setCurrentTime(0);timer.clear();svg.unpauseAnimations();pause.innerHTML = "◼";};pause.onclick=function(){if(svg.animationsPaused()){svg.unpauseAnimations();timer.resume();pause.innerHTML="◼"}else{svg.pauseAnimations();timer.pause();pause.innerHTML="▶"}}]]></script></svg>