<svg id="kvg-057ce" class="kanjivg" width="106" height="126" xmlns="http://www.w3.org/2000/svg" xmlns:xlink="http://www.w3.org/1999/xlink" xml:space="preserve" version="1.1" baseProfile="full"><defs><style type="text/css"><![CDATA[path.black{fill:none;stroke:black;stroke-width:5;stroke-linecap:round;stroke-linejoin:round;}path.grey{fill:none;stroke:#ddd;stroke-width:5;stroke-linecap:round;stroke-linejoin:round;}path.stroke{fill:none;stroke:black;stroke-width:5;stroke-linecap:round;stroke-linejoin:round;}rect{fill:none;stroke:#555;stroke-width:2;} text{font-size:16px;font-family:Segoe UI Symbol,Cambria Math,DejaVu Sans,Symbola,Quivira,STIX,Code2000;-webkit-touch-callout:none;cursor:pointer;-webkit-user-select:none;-khtml-user-select:none;-moz-user-select:none;-ms-user-select:none;user-select: none;}text:hover{color:#777;}#reset{font-weight:bold;}]]></style><marker id="markerStart" markerWidth="8" markerHeight="8" style="overflow:visible;"><circle cx="0" cy="0" r="1.5" style="stroke:none;fill:red;fill-opacity:0.5;"/></marker><marker id="markerEnd" style="overflow:visible;"><circle cx="0" cy="0" r="0.8" style="stroke:none;fill:blue;fill-opacity:0.5;"><animate attributeName="opacity" from="1" to="0" dur="3s" repeatCount="indefinite" /></circle></marker></defs><rect x="4" y="4" width="100" height="100" /><path d="M11.5,45.87c1.62,0.51,3.87,0.39,5.26,0.23c6.12-0.72,12.12-2.22,17.12-3.07c1.1-0.19,2.31-0.16,2.87,0.01" class="grey" /><path d="M24.62,22.5c1,1,1.46,2.5,1.46,4c0,7.25-0.03,31.03-0.03,40.76" class="grey" /><path d="M11.5,76.39c1,0.61,2.12,0.48,3.57-0.51C20.59,72.1,29.69,65.31,35,61.25" class="grey" /><path d="M42.41,39.6c0.81,0.81,1.36,2.03,1.32,3.33c-0.49,19.44,0.64,32.44-10.92,45.59" class="grey" /><path d="M41.19,39.08c1.27,0.53,3.61,0.44,4.88,0.28c5.2-0.67,25.31-4.01,35.4-6.14c2.09-0.44,5.04-0.84,6.78-0.68" class="grey" /><path d="M44.88,55.36c5.31-1.32,9.5-2.49,12.14-3.01c1.95-0.39,3.13,0.9,2.83,3.32c-0.25,2.04-1.62,15.05-4.82,23.01c-1.57,3.91-3.7,5.09-6.84,1.24" class="grey" /><path d="M59.61,13.75c1.48,1.65,2.06,2.1,2.4,5.65c2.87,29.98,11.87,54.98,29.93,69.95c5.22,4.33,4.98,0.71,4.24-6.59" class="grey" /><path d="M84.21,42.96c0.29,1.04,0.38,2.5,0.12,4.02C82.77,56,73.88,76.88,62.07,87.85" class="grey" /><path d="M74.98,15.97c2.93,1.35,7.63,4.45,9,6.77" class="grey" /><path d="M11.5,45.87c1.62,0.51,3.87,0.39,5.26,0.23c6.12-0.72,12.12-2.22,17.12-3.07c1.1-0.19,2.31-0.16,2.87,0.01" class="stroke" stroke-dasharray="150"><animate attributeName="stroke-dashoffset" from="150" to="0" dur="1.8s" begin="0.0s" fill="freeze" /></path><path d="M24.62,22.5c1,1,1.46,2.5,1.46,4c0,7.25-0.03,31.03-0.03,40.76" class="stroke" stroke-dasharray="150"><set attributeName="opacity" to="0" dur="1.0s" /><animate attributeName="stroke-dashoffset" from="150" to="0" dur="1.8s" begin="1.0s" fill="freeze" /></path><path d="M11.5,76.39c1,0.61,2.12,0.48,3.57-0.51C20.59,72.1,29.69,65.31,35,61.25" class="stroke" stroke-dasharray="150"><set attributeName="opacity" to="0" dur="2.2s" /><animate attributeName="stroke-dashoffset" from="150" to="0" dur="1.8s" begin="2.2s" fill="freeze" /></path><path d="M42.41,39.6c0.81,0.81,1.36,2.03,1.32,3.33c-0.49,19.44,0.64,32.44-10.92,45.59" class="stroke" stroke-dasharray="150"><set attributeName="opacity" to="0" dur="3.2s" /><animate attributeName="stroke-dashoffset" from="150" to="0" dur="1.8s" begin="3.2s" fill="freeze" /></path><path d="M41.19,39.08c1.27,0.53,3.61,0.44,4.88,0.28c5.2-0.67,25.31-4.01,35.4-6.14c2.09-0.44,5.04-0.84,6.78-0.68" class="stroke" stroke-dasharray="150"><set attributeName="opacity" to="0" dur="4.5s" /><animate attributeName="stroke-dashoffset" from="150" to="0" dur="1.8s" begin="4.5s" fill="freeze" /></path><path d="M44.88,55.36c5.31-1.32,9.5-2.49,12.14-3.01c1.95-0.39,3.13,0.9,2.83,3.32c-0.25,2.04-1.62,15.05-4.82,23.01c-1.57,3.91-3.7,5.09-6.84,1.24" class="stroke" stroke-dasharray="150"><set attributeName="opacity" to="0" dur="5.7s" /><animate attributeName="stroke-dashoffset" from="150" to="0" dur="1.8s" begin="5.7s" fill="freeze" /></path><path d="M59.61,13.75c1.48,1.65,2.06,2.1,2.4,5.65c2.87,29.98,11.87,54.98,29.93,69.95c5.22,4.33,4.98,0.71,4.24-6.59" class="stroke" stroke-dasharray="150"><set attributeName="opacity" to="0" dur="7.0s" /><animate attributeName="stroke-dashoffset" from="150" to="0" dur="1.8s" begin="7.0s" fill="freeze" /></path><path d="M84.21,42.96c0.29,1.04,0.38,2.5,0.12,4.02C82.77,56,73.88,76.88,62.07,87.85" class="stroke" stroke-dasharray="150"><set attributeName="opacity" to="0" dur="8.8s" /><animate attributeName="stroke-dashoffset" from="150" to="0" dur="1.8s" begin="8.8s" fill="freeze" /></path><path d="M74.98,15.97c2.93,1.35,7.63,4.45,9,6.77" class="stroke" stroke-dasharray="150"><set attributeName="opacity" to="0" dur="10.100000000000001s" /><animate attributeName="stroke-dashoffset" from="150" to="0" dur="1.8s" begin="10.100000000000001s" fill="freeze" /></path><text x="90" y="120" id="reset-kvg-057ce">⟳</text><text x="70" y="120" id="pause-kvg-057ce">◼</text><script type="text/javascript"><![CDATA[function RecurringTimer(e,t){var n,r,i=t;this.pause=function(){window.clearTimeout(n);i-=new Date-r};var s=function(){r=new Date;n=window.setTimeout(function(){i=t;s();e()},i)};this.clear=function(){window.clearTimeout(n);i=t;n=window.setTimeout(function(){i=t;s();e()},i)};this.resume=s;this.resume()}function invoketimer(){timer=new RecurringTimer(function(){svg.setCurrentTime(0)},12000.000000000002)}var svg=document.getElementById("kvg-057ce");var pause=document.getElementById("pause-kvg-057ce");var reset=document.getElementById("reset-kvg-057ce");var timer;invoketimer();reset.onclick=function(){svg.setCurrentTime(0);timer.clear();svg.unpauseAnimations();pause.innerHTML = "◼";};pause.onclick=function(){if(svg.animationsPaused()){svg.unpauseAnimations();timer.resume();pause.innerHTML="◼"}else{svg.pauseAnimations();timer.pause();pause.innerHTML="▶"}}]]></script></svg>