<svg id="kvg-057f9-Kaisho" class="kanjivg" width="106" height="126" xmlns="http://www.w3.org/2000/svg" xmlns:xlink="http://www.w3.org/1999/xlink" xml:space="preserve" version="1.1" baseProfile="full"><defs><style type="text/css"><![CDATA[path.black{fill:none;stroke:black;stroke-width:5;stroke-linecap:round;stroke-linejoin:round;}path.grey{fill:none;stroke:#ddd;stroke-width:5;stroke-linecap:round;stroke-linejoin:round;}path.stroke{fill:none;stroke:black;stroke-width:5;stroke-linecap:round;stroke-linejoin:round;}rect{fill:none;stroke:#555;stroke-width:2;} text{font-size:16px;font-family:Segoe UI Symbol,Cambria Math,DejaVu Sans,Symbola,Quivira,STIX,Code2000;-webkit-touch-callout:none;cursor:pointer;-webkit-user-select:none;-khtml-user-select:none;-moz-user-select:none;-ms-user-select:none;user-select: none;}text:hover{color:#777;}#reset{font-weight:bold;}]]></style><marker id="markerStart" markerWidth="8" markerHeight="8" style="overflow:visible;"><circle cx="0" cy="0" r="1.5" style="stroke:none;fill:red;fill-opacity:0.5;"/></marker><marker id="markerEnd" style="overflow:visible;"><circle cx="0" cy="0" r="0.8" style="stroke:none;fill:blue;fill-opacity:0.5;"><animate attributeName="opacity" from="1" to="0" dur="3s" repeatCount="indefinite" /></circle></marker></defs><rect x="4" y="4" width="100" height="100" /><path d="M13,43.64c0.76,0.38,2.24,0.46,3,0.36c4.82-0.66,16.15-2.39,21.5-3c1.25-0.14,2.62-0.18,3.25,0.01" class="grey" /><path d="M27.37,18.5c1.09,0.5,1.96,2.23,1.96,3.25c0,7.25,0.03,36.25,0.03,47" class="grey" /><path d="M13.5,76.29c0.75,0.96,2.29,1.53,4.5,0.21C25.5,72,31.5,67,40.25,61.75" class="grey" /><path d="M64.4,12.75c3.85,3.21,6.7,7.13,8.62,10.83" class="grey" /><path d="M47.5,30.5c1.16,0.32,2.53,0.37,3.68,0.32c6.57-0.28,25.57-3.49,35.49-3.72c1.94-0.05,3.1,0.15,4.07,0.32" class="grey" /><path d="M55.5,37.2c3.56,4.7,5.18,9.5,5.5,12.6" class="grey" /><path d="M81.5,31.01c0.77,0.64,0.43,1.99,0.27,2.5c-1.52,4.73-5.23,13.72-6.77,16.51" class="grey" /><path d="M43.25,55.76c1.46,0.39,3.17,0.54,4.62,0.39c15.88-1.67,26.88-3.64,45.28-4.43c2.43-0.1,3.89,0.18,5.1,0.38" class="grey" /><path d="M52.25,67.94c0.42,0.39,0.85,0.71,1.04,1.2C54.75,72.99,56,85.09,57,92" class="grey" /><path d="M54.88,69.07c8.87-1.27,25.62-2.75,30.56-3.25c1.8-0.18,2.89,1.1,2.63,2.18c-1.07,4.5-2.82,12.4-4.41,18.62" class="grey" /><path d="M57.2,89.61c5.8-0.57,20.3-1.56,28.27-2.44" class="grey" /><path d="M13,43.64c0.76,0.38,2.24,0.46,3,0.36c4.82-0.66,16.15-2.39,21.5-3c1.25-0.14,2.62-0.18,3.25,0.01" class="stroke" stroke-dasharray="150"><animate attributeName="stroke-dashoffset" from="150" to="0" dur="1.8s" begin="0.0s" fill="freeze" /></path><path d="M27.37,18.5c1.09,0.5,1.96,2.23,1.96,3.25c0,7.25,0.03,36.25,0.03,47" class="stroke" stroke-dasharray="150"><set attributeName="opacity" to="0" dur="1.0s" /><animate attributeName="stroke-dashoffset" from="150" to="0" dur="1.8s" begin="1.0s" fill="freeze" /></path><path d="M13.5,76.29c0.75,0.96,2.29,1.53,4.5,0.21C25.5,72,31.5,67,40.25,61.75" class="stroke" stroke-dasharray="150"><set attributeName="opacity" to="0" dur="2.3s" /><animate attributeName="stroke-dashoffset" from="150" to="0" dur="1.8s" begin="2.3s" fill="freeze" /></path><path d="M64.4,12.75c3.85,3.21,6.7,7.13,8.62,10.83" class="stroke" stroke-dasharray="150"><set attributeName="opacity" to="0" dur="3.3s" /><animate attributeName="stroke-dashoffset" from="150" to="0" dur="1.8s" begin="3.3s" fill="freeze" /></path><path d="M47.5,30.5c1.16,0.32,2.53,0.37,3.68,0.32c6.57-0.28,25.57-3.49,35.49-3.72c1.94-0.05,3.1,0.15,4.07,0.32" class="stroke" stroke-dasharray="150"><set attributeName="opacity" to="0" dur="4.2s" /><animate attributeName="stroke-dashoffset" from="150" to="0" dur="1.8s" begin="4.2s" fill="freeze" /></path><path d="M55.5,37.2c3.56,4.7,5.18,9.5,5.5,12.6" class="stroke" stroke-dasharray="150"><set attributeName="opacity" to="0" dur="5.300000000000001s" /><animate attributeName="stroke-dashoffset" from="150" to="0" dur="1.8s" begin="5.300000000000001s" fill="freeze" /></path><path d="M81.5,31.01c0.77,0.64,0.43,1.99,0.27,2.5c-1.52,4.73-5.23,13.72-6.77,16.51" class="stroke" stroke-dasharray="150"><set attributeName="opacity" to="0" dur="6.200000000000001s" /><animate attributeName="stroke-dashoffset" from="150" to="0" dur="1.8s" begin="6.200000000000001s" fill="freeze" /></path><path d="M43.25,55.76c1.46,0.39,3.17,0.54,4.62,0.39c15.88-1.67,26.88-3.64,45.28-4.43c2.43-0.1,3.89,0.18,5.1,0.38" class="stroke" stroke-dasharray="150"><set attributeName="opacity" to="0" dur="7.200000000000001s" /><animate attributeName="stroke-dashoffset" from="150" to="0" dur="1.8s" begin="7.200000000000001s" fill="freeze" /></path><path d="M52.25,67.94c0.42,0.39,0.85,0.71,1.04,1.2C54.75,72.99,56,85.09,57,92" class="stroke" stroke-dasharray="150"><set attributeName="opacity" to="0" dur="8.600000000000001s" /><animate attributeName="stroke-dashoffset" from="150" to="0" dur="1.8s" begin="8.600000000000001s" fill="freeze" /></path><path d="M54.88,69.07c8.87-1.27,25.62-2.75,30.56-3.25c1.8-0.18,2.89,1.1,2.63,2.18c-1.07,4.5-2.82,12.4-4.41,18.62" class="stroke" stroke-dasharray="150"><set attributeName="opacity" to="0" dur="9.600000000000001s" /><animate attributeName="stroke-dashoffset" from="150" to="0" dur="1.8s" begin="9.600000000000001s" fill="freeze" /></path><path d="M57.2,89.61c5.8-0.57,20.3-1.56,28.27-2.44" class="stroke" stroke-dasharray="150"><set attributeName="opacity" to="0" dur="10.900000000000002s" /><animate attributeName="stroke-dashoffset" from="150" to="0" dur="1.8s" begin="10.900000000000002s" fill="freeze" /></path><text x="90" y="120" id="reset-kvg-057f9-Kaisho">⟳</text><text x="70" y="120" id="pause-kvg-057f9-Kaisho">◼</text><script type="text/javascript"><![CDATA[function RecurringTimer(e,t){var n,r,i=t;this.pause=function(){window.clearTimeout(n);i-=new Date-r};var s=function(){r=new Date;n=window.setTimeout(function(){i=t;s();e()},i)};this.clear=function(){window.clearTimeout(n);i=t;n=window.setTimeout(function(){i=t;s();e()},i)};this.resume=s;this.resume()}function invoketimer(){timer=new RecurringTimer(function(){svg.setCurrentTime(0)},12900.000000000002)}var svg=document.getElementById("kvg-057f9-Kaisho");var pause=document.getElementById("pause-kvg-057f9-Kaisho");var reset=document.getElementById("reset-kvg-057f9-Kaisho");var timer;invoketimer();reset.onclick=function(){svg.setCurrentTime(0);timer.clear();svg.unpauseAnimations();pause.innerHTML = "◼";};pause.onclick=function(){if(svg.animationsPaused()){svg.unpauseAnimations();timer.resume();pause.innerHTML="◼"}else{svg.pauseAnimations();timer.pause();pause.innerHTML="▶"}}]]></script></svg>