<svg id="kvg-058d3-Kaisho" class="kanjivg" width="106" height="126" xmlns="http://www.w3.org/2000/svg" xmlns:xlink="http://www.w3.org/1999/xlink" xml:space="preserve" version="1.1" baseProfile="full"><defs><style type="text/css"><![CDATA[path.black{fill:none;stroke:black;stroke-width:5;stroke-linecap:round;stroke-linejoin:round;}path.grey{fill:none;stroke:#ddd;stroke-width:5;stroke-linecap:round;stroke-linejoin:round;}path.stroke{fill:none;stroke:black;stroke-width:5;stroke-linecap:round;stroke-linejoin:round;}rect{fill:none;stroke:#555;stroke-width:2;} text{font-size:16px;font-family:Segoe UI Symbol,Cambria Math,DejaVu Sans,Symbola,Quivira,STIX,Code2000;-webkit-touch-callout:none;cursor:pointer;-webkit-user-select:none;-khtml-user-select:none;-moz-user-select:none;-ms-user-select:none;user-select: none;}text:hover{color:#777;}#reset{font-weight:bold;}]]></style><marker id="markerStart" markerWidth="8" markerHeight="8" style="overflow:visible;"><circle cx="0" cy="0" r="1.5" style="stroke:none;fill:red;fill-opacity:0.5;"/></marker><marker id="markerEnd" style="overflow:visible;"><circle cx="0" cy="0" r="0.8" style="stroke:none;fill:blue;fill-opacity:0.5;"><animate attributeName="opacity" from="1" to="0" dur="3s" repeatCount="indefinite" /></circle></marker></defs><rect x="4" y="4" width="100" height="100" /><path d="M20.84,16.61c1.36,0.39,3.85,0.45,5.21,0.39c14.15-0.65,40.53-3.46,54.24-3.97c2.26-0.08,3.62,0.19,4.76,0.38" class="grey" /><path d="M24.12,17.17c0.42,1.13,0.42,1.43,0.35,3.28c-0.56,14.81-2.02,38.36-10.92,50.96" class="grey" /><path d="M30.76,22.65c0.28,0.31,0.48,0.82,0.56,1.23c0.27,1.41,2.3,12.25,2.3,12.47" class="grey" /><path d="M31.78,23.47c1.57-0.05,18.43-2.24,19.86-2.3c1.19-0.05,1.96,1.58,1.87,1.89c-0.19,0.63-1.11,11.25-1.11,11.56" class="grey" /><path d="M32.47,29.24c3.29,0,6.69-0.66,9.95-1.05c1.12-0.13,2.23-0.26,3.3-0.38" class="grey" /><path d="M34.26,35.18c5.1-0.17,12.38-1.56,17.3-1.65" class="grey" /><path d="M32.46,41.74c0.35,0.41,0.71,1.16,0.71,1.57c0,2.88,0.12,22.82,0.12,26.01" class="grey" /><path d="M33.87,42.15c1.41-0.1,14.52-1.33,15.57-1.44c1.88-0.21,2.59,1.34,2.35,1.96c-0.23,0.59-0.35,13.41-0.35,21.75c0,7.05-3.42,2.47-5.27,0.93" class="grey" /><path d="M33.87,49.96c2.88-0.13,5.75-0.39,8.62-0.63c0.8-0.07,1.59-0.14,2.37-0.2" class="grey" /><path d="M33.54,57.03c2.79-0.23,5.59-0.37,8.38-0.52c0.82-0.04,1.65-0.09,2.46-0.13" class="grey" /><path d="M57.18,37.41c0.4,0.16,1.76,0.35,2.53,0.26c4.03-0.48,18-2.42,22.86-2.75c0.55-0.04,1.34,0.06,2.58,0.33" class="grey" /><path d="M67.48,20.22c0.35,0.65,0.57,1.3,0.61,2.6c0.62,17-1.93,36.01-12.32,43.55" class="grey" /><path d="M69.04,38.75c4.45,6.94,13.1,18.68,18.78,23.63c1.49,1.3,2.04,1.47,2.72,1.59" class="grey" /><path d="M76.94,20.68c3.75,2.67,4.78,4.71,5.94,7.22" class="grey" /><path d="M30.75,81.47c0.91,0.25,2.59,0.31,3.51,0.25c11.76-0.85,32.27-2.63,44.11-2.85c1.52-0.03,2.44,0.12,3.2,0.24" class="grey" /><path d="M54.49,71c0.11,0.26,1.58,1.36,1.58,3.02c0,3.48-0.32,15.98-0.32,19.98" class="grey" /><path d="M19.98,95.62c1.36,0.3,3.86,0.37,5.22,0.3c16.87-0.85,48.72-2.53,63.81-2.93c2.27-0.06,3.63,0.14,4.77,0.3" class="grey" /><path d="M20.84,16.61c1.36,0.39,3.85,0.45,5.21,0.39c14.15-0.65,40.53-3.46,54.24-3.97c2.26-0.08,3.62,0.19,4.76,0.38" class="stroke" stroke-dasharray="150"><animate attributeName="stroke-dashoffset" from="150" to="0" dur="1.8s" begin="0.0s" fill="freeze" /></path><path d="M24.12,17.17c0.42,1.13,0.42,1.43,0.35,3.28c-0.56,14.81-2.02,38.36-10.92,50.96" class="stroke" stroke-dasharray="150"><set attributeName="opacity" to="0" dur="1.5s" /><animate attributeName="stroke-dashoffset" from="150" to="0" dur="1.8s" begin="1.5s" fill="freeze" /></path><path d="M30.76,22.65c0.28,0.31,0.48,0.82,0.56,1.23c0.27,1.41,2.3,12.25,2.3,12.47" class="stroke" stroke-dasharray="150"><set attributeName="opacity" to="0" dur="2.9s" /><animate attributeName="stroke-dashoffset" from="150" to="0" dur="1.8s" begin="2.9s" fill="freeze" /></path><path d="M31.78,23.47c1.57-0.05,18.43-2.24,19.86-2.3c1.19-0.05,1.96,1.58,1.87,1.89c-0.19,0.63-1.11,11.25-1.11,11.56" class="stroke" stroke-dasharray="150"><set attributeName="opacity" to="0" dur="3.8s" /><animate attributeName="stroke-dashoffset" from="150" to="0" dur="1.8s" begin="3.8s" fill="freeze" /></path><path d="M32.47,29.24c3.29,0,6.69-0.66,9.95-1.05c1.12-0.13,2.23-0.26,3.3-0.38" class="stroke" stroke-dasharray="150"><set attributeName="opacity" to="0" dur="4.8s" /><animate attributeName="stroke-dashoffset" from="150" to="0" dur="1.8s" begin="4.8s" fill="freeze" /></path><path d="M34.26,35.18c5.1-0.17,12.38-1.56,17.3-1.65" class="stroke" stroke-dasharray="150"><set attributeName="opacity" to="0" dur="5.7s" /><animate attributeName="stroke-dashoffset" from="150" to="0" dur="1.8s" begin="5.7s" fill="freeze" /></path><path d="M32.46,41.74c0.35,0.41,0.71,1.16,0.71,1.57c0,2.88,0.12,22.82,0.12,26.01" class="stroke" stroke-dasharray="150"><set attributeName="opacity" to="0" dur="6.6000000000000005s" /><animate attributeName="stroke-dashoffset" from="150" to="0" dur="1.8s" begin="6.6000000000000005s" fill="freeze" /></path><path d="M33.87,42.15c1.41-0.1,14.52-1.33,15.57-1.44c1.88-0.21,2.59,1.34,2.35,1.96c-0.23,0.59-0.35,13.41-0.35,21.75c0,7.05-3.42,2.47-5.27,0.93" class="stroke" stroke-dasharray="150"><set attributeName="opacity" to="0" dur="7.6000000000000005s" /><animate attributeName="stroke-dashoffset" from="150" to="0" dur="1.8s" begin="7.6000000000000005s" fill="freeze" /></path><path d="M33.87,49.96c2.88-0.13,5.75-0.39,8.62-0.63c0.8-0.07,1.59-0.14,2.37-0.2" class="stroke" stroke-dasharray="150"><set attributeName="opacity" to="0" dur="8.9s" /><animate attributeName="stroke-dashoffset" from="150" to="0" dur="1.8s" begin="8.9s" fill="freeze" /></path><path d="M33.54,57.03c2.79-0.23,5.59-0.37,8.38-0.52c0.82-0.04,1.65-0.09,2.46-0.13" class="stroke" stroke-dasharray="150"><set attributeName="opacity" to="0" dur="9.8s" /><animate attributeName="stroke-dashoffset" from="150" to="0" dur="1.8s" begin="9.8s" fill="freeze" /></path><path d="M57.18,37.41c0.4,0.16,1.76,0.35,2.53,0.26c4.03-0.48,18-2.42,22.86-2.75c0.55-0.04,1.34,0.06,2.58,0.33" class="stroke" stroke-dasharray="150"><set attributeName="opacity" to="0" dur="10.700000000000001s" /><animate attributeName="stroke-dashoffset" from="150" to="0" dur="1.8s" begin="10.700000000000001s" fill="freeze" /></path><path d="M67.48,20.22c0.35,0.65,0.57,1.3,0.61,2.6c0.62,17-1.93,36.01-12.32,43.55" class="stroke" stroke-dasharray="150"><set attributeName="opacity" to="0" dur="11.700000000000001s" /><animate attributeName="stroke-dashoffset" from="150" to="0" dur="1.8s" begin="11.700000000000001s" fill="freeze" /></path><path d="M69.04,38.75c4.45,6.94,13.1,18.68,18.78,23.63c1.49,1.3,2.04,1.47,2.72,1.59" class="stroke" stroke-dasharray="150"><set attributeName="opacity" to="0" dur="12.9s" /><animate attributeName="stroke-dashoffset" from="150" to="0" dur="1.8s" begin="12.9s" fill="freeze" /></path><path d="M76.94,20.68c3.75,2.67,4.78,4.71,5.94,7.22" class="stroke" stroke-dasharray="150"><set attributeName="opacity" to="0" dur="13.9s" /><animate attributeName="stroke-dashoffset" from="150" to="0" dur="1.8s" begin="13.9s" fill="freeze" /></path><path d="M30.75,81.47c0.91,0.25,2.59,0.31,3.51,0.25c11.76-0.85,32.27-2.63,44.11-2.85c1.52-0.03,2.44,0.12,3.2,0.24" class="stroke" stroke-dasharray="150"><set attributeName="opacity" to="0" dur="14.8s" /><animate attributeName="stroke-dashoffset" from="150" to="0" dur="1.8s" begin="14.8s" fill="freeze" /></path><path d="M54.49,71c0.11,0.26,1.58,1.36,1.58,3.02c0,3.48-0.32,15.98-0.32,19.98" class="stroke" stroke-dasharray="150"><set attributeName="opacity" to="0" dur="16.1s" /><animate attributeName="stroke-dashoffset" from="150" to="0" dur="1.8s" begin="16.1s" fill="freeze" /></path><path d="M19.98,95.62c1.36,0.3,3.86,0.37,5.22,0.3c16.87-0.85,48.72-2.53,63.81-2.93c2.27-0.06,3.63,0.14,4.77,0.3" class="stroke" stroke-dasharray="150"><set attributeName="opacity" to="0" dur="17.1s" /><animate attributeName="stroke-dashoffset" from="150" to="0" dur="1.8s" begin="17.1s" fill="freeze" /></path><text x="90" y="120" id="reset-kvg-058d3-Kaisho">⟳</text><text x="70" y="120" id="pause-kvg-058d3-Kaisho">◼</text><script type="text/javascript"><![CDATA[function RecurringTimer(e,t){var n,r,i=t;this.pause=function(){window.clearTimeout(n);i-=new Date-r};var s=function(){r=new Date;n=window.setTimeout(function(){i=t;s();e()},i)};this.clear=function(){window.clearTimeout(n);i=t;n=window.setTimeout(function(){i=t;s();e()},i)};this.resume=s;this.resume()}function invoketimer(){timer=new RecurringTimer(function(){svg.setCurrentTime(0)},19800.0)}var svg=document.getElementById("kvg-058d3-Kaisho");var pause=document.getElementById("pause-kvg-058d3-Kaisho");var reset=document.getElementById("reset-kvg-058d3-Kaisho");var timer;invoketimer();reset.onclick=function(){svg.setCurrentTime(0);timer.clear();svg.unpauseAnimations();pause.innerHTML = "◼";};pause.onclick=function(){if(svg.animationsPaused()){svg.unpauseAnimations();timer.resume();pause.innerHTML="◼"}else{svg.pauseAnimations();timer.pause();pause.innerHTML="▶"}}]]></script></svg>