<svg id="kvg-0591b-Kaisho" class="kanjivg" width="106" height="126" xmlns="http://www.w3.org/2000/svg" xmlns:xlink="http://www.w3.org/1999/xlink" xml:space="preserve" version="1.1" baseProfile="full"><defs><style type="text/css"><![CDATA[path.black{fill:none;stroke:black;stroke-width:5;stroke-linecap:round;stroke-linejoin:round;}path.grey{fill:none;stroke:#ddd;stroke-width:5;stroke-linecap:round;stroke-linejoin:round;}path.stroke{fill:none;stroke:black;stroke-width:5;stroke-linecap:round;stroke-linejoin:round;}rect{fill:none;stroke:#555;stroke-width:2;} text{font-size:16px;font-family:Segoe UI Symbol,Cambria Math,DejaVu Sans,Symbola,Quivira,STIX,Code2000;-webkit-touch-callout:none;cursor:pointer;-webkit-user-select:none;-khtml-user-select:none;-moz-user-select:none;-ms-user-select:none;user-select: none;}text:hover{color:#777;}#reset{font-weight:bold;}]]></style><marker id="markerStart" markerWidth="8" markerHeight="8" style="overflow:visible;"><circle cx="0" cy="0" r="1.5" style="stroke:none;fill:red;fill-opacity:0.5;"/></marker><marker id="markerEnd" style="overflow:visible;"><circle cx="0" cy="0" r="0.8" style="stroke:none;fill:blue;fill-opacity:0.5;"><animate attributeName="opacity" from="1" to="0" dur="3s" repeatCount="indefinite" /></circle></marker></defs><rect x="4" y="4" width="100" height="100" /><path d="M29,15.25c2,0.5,3.7,0.66,6,0.5c14-1,30.5-2.75,41.5-2.75c3.25,0,4.7,1.3,4,3.75c-1.5,5.25-3.5,11.5-5,21.5" class="grey" /><path d="M28.75,28c2.25,0.25,4.01,0.67,6.5,0.5c11.73-0.78,15.69-1.72,26.25-2.33c2.95-0.17,5.86-0.31,8.75-0.42" class="grey" /><path d="M14,42.37c3.25,1.13,5.47,1.22,8,0.91c21-2.54,47.17-4.96,68.42-5.57c3.4-0.1,5.53,0,8.08,0.3" class="grey" /><path d="M53.88,43.64c0.12,1.11,0.03,2.37-0.49,3.23c-3.75,6.25-11.43,16.5-25.72,23.73" class="grey" /><path d="M52.17,52.06c1.77,0.35,3.49,0.35,4.84,0.23c4.42-0.39,10.14-1.06,16.03-2.54c4.23-1.06,5.76,0.99,4.46,3.18C67.12,70.45,49.25,89.25,18.25,100" class="grey" /><path d="M40.33,65.02c4.84,1.88,12.51,7.72,13.72,10.64" class="grey" /><path d="M29,15.25c2,0.5,3.7,0.66,6,0.5c14-1,30.5-2.75,41.5-2.75c3.25,0,4.7,1.3,4,3.75c-1.5,5.25-3.5,11.5-5,21.5" class="stroke" stroke-dasharray="150"><animate attributeName="stroke-dashoffset" from="150" to="0" dur="1.8s" begin="0.0s" fill="freeze" /></path><path d="M28.75,28c2.25,0.25,4.01,0.67,6.5,0.5c11.73-0.78,15.69-1.72,26.25-2.33c2.95-0.17,5.86-0.31,8.75-0.42" class="stroke" stroke-dasharray="150"><set attributeName="opacity" to="0" dur="1.7s" /><animate attributeName="stroke-dashoffset" from="150" to="0" dur="1.8s" begin="1.7s" fill="freeze" /></path><path d="M14,42.37c3.25,1.13,5.47,1.22,8,0.91c21-2.54,47.17-4.96,68.42-5.57c3.4-0.1,5.53,0,8.08,0.3" class="stroke" stroke-dasharray="150"><set attributeName="opacity" to="0" dur="2.8s" /><animate attributeName="stroke-dashoffset" from="150" to="0" dur="1.8s" begin="2.8s" fill="freeze" /></path><path d="M53.88,43.64c0.12,1.11,0.03,2.37-0.49,3.23c-3.75,6.25-11.43,16.5-25.72,23.73" class="stroke" stroke-dasharray="150"><set attributeName="opacity" to="0" dur="4.5s" /><animate attributeName="stroke-dashoffset" from="150" to="0" dur="1.8s" begin="4.5s" fill="freeze" /></path><path d="M52.17,52.06c1.77,0.35,3.49,0.35,4.84,0.23c4.42-0.39,10.14-1.06,16.03-2.54c4.23-1.06,5.76,0.99,4.46,3.18C67.12,70.45,49.25,89.25,18.25,100" class="stroke" stroke-dasharray="150"><set attributeName="opacity" to="0" dur="5.5s" /><animate attributeName="stroke-dashoffset" from="150" to="0" dur="1.8s" begin="5.5s" fill="freeze" /></path><path d="M40.33,65.02c4.84,1.88,12.51,7.72,13.72,10.64" class="stroke" stroke-dasharray="150"><set attributeName="opacity" to="0" dur="7.4s" /><animate attributeName="stroke-dashoffset" from="150" to="0" dur="1.8s" begin="7.4s" fill="freeze" /></path><text x="90" y="120" id="reset-kvg-0591b-Kaisho">⟳</text><text x="70" y="120" id="pause-kvg-0591b-Kaisho">◼</text><script type="text/javascript"><![CDATA[function RecurringTimer(e,t){var n,r,i=t;this.pause=function(){window.clearTimeout(n);i-=new Date-r};var s=function(){r=new Date;n=window.setTimeout(function(){i=t;s();e()},i)};this.clear=function(){window.clearTimeout(n);i=t;n=window.setTimeout(function(){i=t;s();e()},i)};this.resume=s;this.resume()}function invoketimer(){timer=new RecurringTimer(function(){svg.setCurrentTime(0)},9300.0)}var svg=document.getElementById("kvg-0591b-Kaisho");var pause=document.getElementById("pause-kvg-0591b-Kaisho");var reset=document.getElementById("reset-kvg-0591b-Kaisho");var timer;invoketimer();reset.onclick=function(){svg.setCurrentTime(0);timer.clear();svg.unpauseAnimations();pause.innerHTML = "◼";};pause.onclick=function(){if(svg.animationsPaused()){svg.unpauseAnimations();timer.resume();pause.innerHTML="◼"}else{svg.pauseAnimations();timer.pause();pause.innerHTML="▶"}}]]></script></svg>