<svg id="kvg-05951-VtLst" class="kanjivg" width="106" height="126" xmlns="http://www.w3.org/2000/svg" xmlns:xlink="http://www.w3.org/1999/xlink" xml:space="preserve" version="1.1" baseProfile="full"><defs><style type="text/css"><![CDATA[path.black{fill:none;stroke:black;stroke-width:5;stroke-linecap:round;stroke-linejoin:round;}path.grey{fill:none;stroke:#ddd;stroke-width:5;stroke-linecap:round;stroke-linejoin:round;}path.stroke{fill:none;stroke:black;stroke-width:5;stroke-linecap:round;stroke-linejoin:round;}rect{fill:none;stroke:#555;stroke-width:2;} text{font-size:16px;font-family:Segoe UI Symbol,Cambria Math,DejaVu Sans,Symbola,Quivira,STIX,Code2000;-webkit-touch-callout:none;cursor:pointer;-webkit-user-select:none;-khtml-user-select:none;-moz-user-select:none;-ms-user-select:none;user-select: none;}text:hover{color:#777;}#reset{font-weight:bold;}]]></style><marker id="markerStart" markerWidth="8" markerHeight="8" style="overflow:visible;"><circle cx="0" cy="0" r="1.5" style="stroke:none;fill:red;fill-opacity:0.5;"/></marker><marker id="markerEnd" style="overflow:visible;"><circle cx="0" cy="0" r="0.8" style="stroke:none;fill:blue;fill-opacity:0.5;"><animate attributeName="opacity" from="1" to="0" dur="3s" repeatCount="indefinite" /></circle></marker></defs><rect x="4" y="4" width="100" height="100" /><path d="M15.5,25.25c1.5,0,1.56,0.12,3.05,0c9.7-0.75,23.95-3.75,29.15-4.5c1.48-0.21,1.87-0.25,2.8,0" class="grey" /><path d="M19.5,39.25c1.5,0,1.56,0.12,3.05,0c9.7-0.75,19.45-3.75,24.65-4.5c1.48-0.21,1.87-0.25,2.8,0" class="grey" /><path d="M13.75,57.25c1.5,1.5,2.4,2.19,5.25,1c7.75-3.25,17.5-7,28.75-11.25" class="grey" /><path d="M33.87,9.25c1.09,0.5,1.74,2.25,1.96,3.25c0.22,1-0.33,27.75-0.33,38.25" class="grey" /><path d="M58.99,21.53c1.2,0.42,2.71,0.37,3.76,0.22c8.57-1.16,22.96-4.62,27.71-5.04c3.09-0.28,4.46,0.83,4.29,2.77c-0.45,5.12-3.51,19.01-8.08,27.66c-1.06,2-2.37,3.28-5.15,1.38c-1.93-1.32-2.23-1.45-3.09-1.8" class="grey" /><path d="M73.75,21.99c0.04,0.64,0.14,1.67-0.09,2.58C71.25,34,68,41.5,58.77,50.83" class="grey" /><path d="M18.15,73.11c1.52,0.39,3.23,0.27,4.22,0.11C36.25,71,68.5,67,84.25,66.08c1.25-0.07,3.5-0.08,4.9-0.08" class="grey" /><path d="M51.19,52.25c0.47,0.66,0.71,1.43,0.69,2.87C51.66,79.99,40.45,93.11,22,100.75" class="grey" /><path d="M53.58,68.93c8.56,6.8,27.12,22.84,35.67,27.39c2.91,1.55,3.92,1.78,5.25,1.93" class="grey" /><path d="M15.5,25.25c1.5,0,1.56,0.12,3.05,0c9.7-0.75,23.95-3.75,29.15-4.5c1.48-0.21,1.87-0.25,2.8,0" class="stroke" stroke-dasharray="150"><animate attributeName="stroke-dashoffset" from="150" to="0" dur="1.8s" begin="0.0s" fill="freeze" /></path><path d="M19.5,39.25c1.5,0,1.56,0.12,3.05,0c9.7-0.75,19.45-3.75,24.65-4.5c1.48-0.21,1.87-0.25,2.8,0" class="stroke" stroke-dasharray="150"><set attributeName="opacity" to="0" dur="1.0s" /><animate attributeName="stroke-dashoffset" from="150" to="0" dur="1.8s" begin="1.0s" fill="freeze" /></path><path d="M13.75,57.25c1.5,1.5,2.4,2.19,5.25,1c7.75-3.25,17.5-7,28.75-11.25" class="stroke" stroke-dasharray="150"><set attributeName="opacity" to="0" dur="2.0s" /><animate attributeName="stroke-dashoffset" from="150" to="0" dur="1.8s" begin="2.0s" fill="freeze" /></path><path d="M33.87,9.25c1.09,0.5,1.74,2.25,1.96,3.25c0.22,1-0.33,27.75-0.33,38.25" class="stroke" stroke-dasharray="150"><set attributeName="opacity" to="0" dur="3.0s" /><animate attributeName="stroke-dashoffset" from="150" to="0" dur="1.8s" begin="3.0s" fill="freeze" /></path><path d="M58.99,21.53c1.2,0.42,2.71,0.37,3.76,0.22c8.57-1.16,22.96-4.62,27.71-5.04c3.09-0.28,4.46,0.83,4.29,2.77c-0.45,5.12-3.51,19.01-8.08,27.66c-1.06,2-2.37,3.28-5.15,1.38c-1.93-1.32-2.23-1.45-3.09-1.8" class="stroke" stroke-dasharray="150"><set attributeName="opacity" to="0" dur="4.1s" /><animate attributeName="stroke-dashoffset" from="150" to="0" dur="1.8s" begin="4.1s" fill="freeze" /></path><path d="M73.75,21.99c0.04,0.64,0.14,1.67-0.09,2.58C71.25,34,68,41.5,58.77,50.83" class="stroke" stroke-dasharray="150"><set attributeName="opacity" to="0" dur="5.8s" /><animate attributeName="stroke-dashoffset" from="150" to="0" dur="1.8s" begin="5.8s" fill="freeze" /></path><path d="M18.15,73.11c1.52,0.39,3.23,0.27,4.22,0.11C36.25,71,68.5,67,84.25,66.08c1.25-0.07,3.5-0.08,4.9-0.08" class="stroke" stroke-dasharray="150"><set attributeName="opacity" to="0" dur="6.8s" /><animate attributeName="stroke-dashoffset" from="150" to="0" dur="1.8s" begin="6.8s" fill="freeze" /></path><path d="M51.19,52.25c0.47,0.66,0.71,1.43,0.69,2.87C51.66,79.99,40.45,93.11,22,100.75" class="stroke" stroke-dasharray="150"><set attributeName="opacity" to="0" dur="8.5s" /><animate attributeName="stroke-dashoffset" from="150" to="0" dur="1.8s" begin="8.5s" fill="freeze" /></path><path d="M53.58,68.93c8.56,6.8,27.12,22.84,35.67,27.39c2.91,1.55,3.92,1.78,5.25,1.93" class="stroke" stroke-dasharray="150"><set attributeName="opacity" to="0" dur="10.0s" /><animate attributeName="stroke-dashoffset" from="150" to="0" dur="1.8s" begin="10.0s" fill="freeze" /></path><text x="90" y="120" id="reset-kvg-05951-VtLst">⟳</text><text x="70" y="120" id="pause-kvg-05951-VtLst">◼</text><script type="text/javascript"><![CDATA[function RecurringTimer(e,t){var n,r,i=t;this.pause=function(){window.clearTimeout(n);i-=new Date-r};var s=function(){r=new Date;n=window.setTimeout(function(){i=t;s();e()},i)};this.clear=function(){window.clearTimeout(n);i=t;n=window.setTimeout(function(){i=t;s();e()},i)};this.resume=s;this.resume()}function invoketimer(){timer=new RecurringTimer(function(){svg.setCurrentTime(0)},12300.0)}var svg=document.getElementById("kvg-05951-VtLst");var pause=document.getElementById("pause-kvg-05951-VtLst");var reset=document.getElementById("reset-kvg-05951-VtLst");var timer;invoketimer();reset.onclick=function(){svg.setCurrentTime(0);timer.clear();svg.unpauseAnimations();pause.innerHTML = "◼";};pause.onclick=function(){if(svg.animationsPaused()){svg.unpauseAnimations();timer.resume();pause.innerHTML="◼"}else{svg.pauseAnimations();timer.pause();pause.innerHTML="▶"}}]]></script></svg>