<svg id="kvg-05955" class="kanjivg" width="106" height="126" xmlns="http://www.w3.org/2000/svg" xmlns:xlink="http://www.w3.org/1999/xlink" xml:space="preserve" version="1.1" baseProfile="full"><defs><style type="text/css"><![CDATA[path.black{fill:none;stroke:black;stroke-width:5;stroke-linecap:round;stroke-linejoin:round;}path.grey{fill:none;stroke:#ddd;stroke-width:5;stroke-linecap:round;stroke-linejoin:round;}path.stroke{fill:none;stroke:black;stroke-width:5;stroke-linecap:round;stroke-linejoin:round;}rect{fill:none;stroke:#555;stroke-width:2;} text{font-size:16px;font-family:Segoe UI Symbol,Cambria Math,DejaVu Sans,Symbola,Quivira,STIX,Code2000;-webkit-touch-callout:none;cursor:pointer;-webkit-user-select:none;-khtml-user-select:none;-moz-user-select:none;-ms-user-select:none;user-select: none;}text:hover{color:#777;}#reset{font-weight:bold;}]]></style><marker id="markerStart" markerWidth="8" markerHeight="8" style="overflow:visible;"><circle cx="0" cy="0" r="1.5" style="stroke:none;fill:red;fill-opacity:0.5;"/></marker><marker id="markerEnd" style="overflow:visible;"><circle cx="0" cy="0" r="0.8" style="stroke:none;fill:blue;fill-opacity:0.5;"><animate attributeName="opacity" from="1" to="0" dur="3s" repeatCount="indefinite" /></circle></marker></defs><rect x="4" y="4" width="100" height="100" /><path d="M51.78,11.25c0.89,0.34,2.35,2.17,2.35,2.86c0,2.52-0.28,6.72-0.12,8.86" class="grey" /><path d="M20.27,24.71c1.29,0.06,4.25,0.42,5.51,0.33c10.17-0.69,46.76-3.25,59.67-3.43c2.13-0.03,3.22,0.03,4.81,0.42" class="grey" /><path d="M46.91,25.98c0.55,0.91,0.97,1.64,0.83,2.77C46.5,38.75,43.5,52,35.83,57.5" class="grey" /><path d="M62.26,24.81c0.78,0.52,1.38,2.12,1.38,3.84c0,9.99-0.2,19.21-0.2,22.02c0,5.88-2.45,3.83-6.37,0.14" class="grey" /><path d="M35.01,32.4c0.05,0.43,0.3,1.14-0.1,1.71c-3.03,4.43-8.69,10.86-17.11,16.37" class="grey" /><path d="M72.33,33.09c5.84,2.75,15.09,11.3,16.55,15.58" class="grey" /><path d="M18.8,68.38c1.29,0.41,4.72,0.88,7.45,0.7c18.48-1.21,42.75-3.63,59.34-4.21c2.85-0.1,5.15-0.05,7.72,0.27" class="grey" /><path d="M52.35,55.12c0.58,0.63,0.89,1.36,0.87,2.73c-0.28,23.66-13.47,37.4-37.38,43.4" class="grey" /><path d="M53.29,66.55c7.71,7.27,25.7,25.78,33.4,30.64c2.62,1.65,3.53,1.9,4.72,2.06" class="grey" /><path d="M51.78,11.25c0.89,0.34,2.35,2.17,2.35,2.86c0,2.52-0.28,6.72-0.12,8.86" class="stroke" stroke-dasharray="150"><animate attributeName="stroke-dashoffset" from="150" to="0" dur="1.8s" begin="0.0s" fill="freeze" /></path><path d="M20.27,24.71c1.29,0.06,4.25,0.42,5.51,0.33c10.17-0.69,46.76-3.25,59.67-3.43c2.13-0.03,3.22,0.03,4.81,0.42" class="stroke" stroke-dasharray="150"><set attributeName="opacity" to="0" dur="0.9s" /><animate attributeName="stroke-dashoffset" from="150" to="0" dur="1.8s" begin="0.9s" fill="freeze" /></path><path d="M46.91,25.98c0.55,0.91,0.97,1.64,0.83,2.77C46.5,38.75,43.5,52,35.83,57.5" class="stroke" stroke-dasharray="150"><set attributeName="opacity" to="0" dur="2.6s" /><animate attributeName="stroke-dashoffset" from="150" to="0" dur="1.8s" begin="2.6s" fill="freeze" /></path><path d="M62.26,24.81c0.78,0.52,1.38,2.12,1.38,3.84c0,9.99-0.2,19.21-0.2,22.02c0,5.88-2.45,3.83-6.37,0.14" class="stroke" stroke-dasharray="150"><set attributeName="opacity" to="0" dur="3.6s" /><animate attributeName="stroke-dashoffset" from="150" to="0" dur="1.8s" begin="3.6s" fill="freeze" /></path><path d="M35.01,32.4c0.05,0.43,0.3,1.14-0.1,1.71c-3.03,4.43-8.69,10.86-17.11,16.37" class="stroke" stroke-dasharray="150"><set attributeName="opacity" to="0" dur="4.6s" /><animate attributeName="stroke-dashoffset" from="150" to="0" dur="1.8s" begin="4.6s" fill="freeze" /></path><path d="M72.33,33.09c5.84,2.75,15.09,11.3,16.55,15.58" class="stroke" stroke-dasharray="150"><set attributeName="opacity" to="0" dur="5.6s" /><animate attributeName="stroke-dashoffset" from="150" to="0" dur="1.8s" begin="5.6s" fill="freeze" /></path><path d="M18.8,68.38c1.29,0.41,4.72,0.88,7.45,0.7c18.48-1.21,42.75-3.63,59.34-4.21c2.85-0.1,5.15-0.05,7.72,0.27" class="stroke" stroke-dasharray="150"><set attributeName="opacity" to="0" dur="6.6s" /><animate attributeName="stroke-dashoffset" from="150" to="0" dur="1.8s" begin="6.6s" fill="freeze" /></path><path d="M52.35,55.12c0.58,0.63,0.89,1.36,0.87,2.73c-0.28,23.66-13.47,37.4-37.38,43.4" class="stroke" stroke-dasharray="150"><set attributeName="opacity" to="0" dur="8.299999999999999s" /><animate attributeName="stroke-dashoffset" from="150" to="0" dur="1.8s" begin="8.299999999999999s" fill="freeze" /></path><path d="M53.29,66.55c7.71,7.27,25.7,25.78,33.4,30.64c2.62,1.65,3.53,1.9,4.72,2.06" class="stroke" stroke-dasharray="150"><set attributeName="opacity" to="0" dur="9.799999999999999s" /><animate attributeName="stroke-dashoffset" from="150" to="0" dur="1.8s" begin="9.799999999999999s" fill="freeze" /></path><text x="90" y="120" id="reset-kvg-05955">⟳</text><text x="70" y="120" id="pause-kvg-05955">◼</text><script type="text/javascript"><![CDATA[function RecurringTimer(e,t){var n,r,i=t;this.pause=function(){window.clearTimeout(n);i-=new Date-r};var s=function(){r=new Date;n=window.setTimeout(function(){i=t;s();e()},i)};this.clear=function(){window.clearTimeout(n);i=t;n=window.setTimeout(function(){i=t;s();e()},i)};this.resume=s;this.resume()}function invoketimer(){timer=new RecurringTimer(function(){svg.setCurrentTime(0)},12100.0)}var svg=document.getElementById("kvg-05955");var pause=document.getElementById("pause-kvg-05955");var reset=document.getElementById("reset-kvg-05955");var timer;invoketimer();reset.onclick=function(){svg.setCurrentTime(0);timer.clear();svg.unpauseAnimations();pause.innerHTML = "◼";};pause.onclick=function(){if(svg.animationsPaused()){svg.unpauseAnimations();timer.resume();pause.innerHTML="◼"}else{svg.pauseAnimations();timer.pause();pause.innerHTML="▶"}}]]></script></svg>