<svg id="kvg-05951" class="kanjivg" width="106" height="126" xmlns="http://www.w3.org/2000/svg" xmlns:xlink="http://www.w3.org/1999/xlink" xml:space="preserve" version="1.1" baseProfile="full"><defs><style type="text/css"><![CDATA[path.black{fill:none;stroke:black;stroke-width:5;stroke-linecap:round;stroke-linejoin:round;}path.grey{fill:none;stroke:#ddd;stroke-width:5;stroke-linecap:round;stroke-linejoin:round;}path.stroke{fill:none;stroke:black;stroke-width:5;stroke-linecap:round;stroke-linejoin:round;}rect{fill:none;stroke:#555;stroke-width:2;} text{font-size:16px;font-family:Segoe UI Symbol,Cambria Math,DejaVu Sans,Symbola,Quivira,STIX,Code2000;-webkit-touch-callout:none;cursor:pointer;-webkit-user-select:none;-khtml-user-select:none;-moz-user-select:none;-ms-user-select:none;user-select: none;}text:hover{color:#777;}#reset{font-weight:bold;}]]></style><marker id="markerStart" markerWidth="8" markerHeight="8" style="overflow:visible;"><circle cx="0" cy="0" r="1.5" style="stroke:none;fill:red;fill-opacity:0.5;"/></marker><marker id="markerEnd" style="overflow:visible;"><circle cx="0" cy="0" r="0.8" style="stroke:none;fill:blue;fill-opacity:0.5;"><animate attributeName="opacity" from="1" to="0" dur="3s" repeatCount="indefinite" /></circle></marker></defs><rect x="4" y="4" width="100" height="100" /><path d="M15.25,24.75c2,0.75,3.76,0.61,5.86,0.29c8.78-1.33,19.04-3.06,24.77-3.94c1.69-0.3,3.39-0.41,5.11-0.35" class="grey" /><path d="M34.87,9.5c0.94,0.94,1.21,2.5,1.21,3.75c0,1.02-0.08,26.5-0.08,37" class="grey" /><path d="M19.25,38.5c1.75,0.62,3.81,0.58,5.51,0.3c7.74-1.3,15.89-2.9,21.76-4.1c1.29-0.27,2.44-0.54,3.74-0.19" class="grey" /><path d="M13.75,57c1.12,1.12,2.09,1.54,5,0.5c8.38-3,18.5-6.5,29.75-10.75" class="grey" /><path d="M57.99,21.28c2.06,0.71,5.02,0.31,7.11-0.04c7.42-1.24,17.87-3.45,23.26-4.26c3.94-0.59,6.85-0.37,6.19,4.27c-0.86,6.06-3.71,18.12-7.87,25.89c-2.8,5.23-4.93,2.11-7.49-1.42" class="grey" /><path d="M73.75,22.99c0.04,0.64-0.04,1.68-0.34,2.56C70.5,34,67,41.62,58.38,50.12" class="grey" /><path d="M17.4,72.36c2.94,0.76,5.72,0.91,8.71,0.42c14.89-2.41,39.05-5.02,54.14-6.16c3.18-0.24,6.53-0.17,9.66,0.38" class="grey" /><path d="M51.44,52.75c0.97,0.97,1.27,2.68,1.19,4.12C51.38,81.75,40.45,92.86,22,100.5" class="grey" /><path d="M55.62,70c6.75,5.62,19.92,18.01,28.68,23.88c2.75,1.84,5.04,3.16,7.57,4.25" class="grey" /><path d="M15.25,24.75c2,0.75,3.76,0.61,5.86,0.29c8.78-1.33,19.04-3.06,24.77-3.94c1.69-0.3,3.39-0.41,5.11-0.35" class="stroke" stroke-dasharray="150"><animate attributeName="stroke-dashoffset" from="150" to="0" dur="1.8s" begin="0.0s" fill="freeze" /></path><path d="M34.87,9.5c0.94,0.94,1.21,2.5,1.21,3.75c0,1.02-0.08,26.5-0.08,37" class="stroke" stroke-dasharray="150"><set attributeName="opacity" to="0" dur="1.0s" /><animate attributeName="stroke-dashoffset" from="150" to="0" dur="1.8s" begin="1.0s" fill="freeze" /></path><path d="M19.25,38.5c1.75,0.62,3.81,0.58,5.51,0.3c7.74-1.3,15.89-2.9,21.76-4.1c1.29-0.27,2.44-0.54,3.74-0.19" class="stroke" stroke-dasharray="150"><set attributeName="opacity" to="0" dur="2.1s" /><animate attributeName="stroke-dashoffset" from="150" to="0" dur="1.8s" begin="2.1s" fill="freeze" /></path><path d="M13.75,57c1.12,1.12,2.09,1.54,5,0.5c8.38-3,18.5-6.5,29.75-10.75" class="stroke" stroke-dasharray="150"><set attributeName="opacity" to="0" dur="3.1s" /><animate attributeName="stroke-dashoffset" from="150" to="0" dur="1.8s" begin="3.1s" fill="freeze" /></path><path d="M57.99,21.28c2.06,0.71,5.02,0.31,7.11-0.04c7.42-1.24,17.87-3.45,23.26-4.26c3.94-0.59,6.85-0.37,6.19,4.27c-0.86,6.06-3.71,18.12-7.87,25.89c-2.8,5.23-4.93,2.11-7.49-1.42" class="stroke" stroke-dasharray="150"><set attributeName="opacity" to="0" dur="4.1s" /><animate attributeName="stroke-dashoffset" from="150" to="0" dur="1.8s" begin="4.1s" fill="freeze" /></path><path d="M73.75,22.99c0.04,0.64-0.04,1.68-0.34,2.56C70.5,34,67,41.62,58.38,50.12" class="stroke" stroke-dasharray="150"><set attributeName="opacity" to="0" dur="5.8s" /><animate attributeName="stroke-dashoffset" from="150" to="0" dur="1.8s" begin="5.8s" fill="freeze" /></path><path d="M17.4,72.36c2.94,0.76,5.72,0.91,8.71,0.42c14.89-2.41,39.05-5.02,54.14-6.16c3.18-0.24,6.53-0.17,9.66,0.38" class="stroke" stroke-dasharray="150"><set attributeName="opacity" to="0" dur="6.8s" /><animate attributeName="stroke-dashoffset" from="150" to="0" dur="1.8s" begin="6.8s" fill="freeze" /></path><path d="M51.44,52.75c0.97,0.97,1.27,2.68,1.19,4.12C51.38,81.75,40.45,92.86,22,100.5" class="stroke" stroke-dasharray="150"><set attributeName="opacity" to="0" dur="8.5s" /><animate attributeName="stroke-dashoffset" from="150" to="0" dur="1.8s" begin="8.5s" fill="freeze" /></path><path d="M55.62,70c6.75,5.62,19.92,18.01,28.68,23.88c2.75,1.84,5.04,3.16,7.57,4.25" class="stroke" stroke-dasharray="150"><set attributeName="opacity" to="0" dur="10.0s" /><animate attributeName="stroke-dashoffset" from="150" to="0" dur="1.8s" begin="10.0s" fill="freeze" /></path><text x="90" y="120" id="reset-kvg-05951">⟳</text><text x="70" y="120" id="pause-kvg-05951">◼</text><script type="text/javascript"><![CDATA[function RecurringTimer(e,t){var n,r,i=t;this.pause=function(){window.clearTimeout(n);i-=new Date-r};var s=function(){r=new Date;n=window.setTimeout(function(){i=t;s();e()},i)};this.clear=function(){window.clearTimeout(n);i=t;n=window.setTimeout(function(){i=t;s();e()},i)};this.resume=s;this.resume()}function invoketimer(){timer=new RecurringTimer(function(){svg.setCurrentTime(0)},12200.0)}var svg=document.getElementById("kvg-05951");var pause=document.getElementById("pause-kvg-05951");var reset=document.getElementById("reset-kvg-05951");var timer;invoketimer();reset.onclick=function(){svg.setCurrentTime(0);timer.clear();svg.unpauseAnimations();pause.innerHTML = "◼";};pause.onclick=function(){if(svg.animationsPaused()){svg.unpauseAnimations();timer.resume();pause.innerHTML="◼"}else{svg.pauseAnimations();timer.pause();pause.innerHTML="▶"}}]]></script></svg>