<svg id="kvg-05957-HzFst" class="kanjivg" width="106" height="126" xmlns="http://www.w3.org/2000/svg" xmlns:xlink="http://www.w3.org/1999/xlink" xml:space="preserve" version="1.1" baseProfile="full"><defs><style type="text/css"><![CDATA[path.black{fill:none;stroke:black;stroke-width:5;stroke-linecap:round;stroke-linejoin:round;}path.grey{fill:none;stroke:#ddd;stroke-width:5;stroke-linecap:round;stroke-linejoin:round;}path.stroke{fill:none;stroke:black;stroke-width:5;stroke-linecap:round;stroke-linejoin:round;}rect{fill:none;stroke:#555;stroke-width:2;} text{font-size:16px;font-family:Segoe UI Symbol,Cambria Math,DejaVu Sans,Symbola,Quivira,STIX,Code2000;-webkit-touch-callout:none;cursor:pointer;-webkit-user-select:none;-khtml-user-select:none;-moz-user-select:none;-ms-user-select:none;user-select: none;}text:hover{color:#777;}#reset{font-weight:bold;}]]></style><marker id="markerStart" markerWidth="8" markerHeight="8" style="overflow:visible;"><circle cx="0" cy="0" r="1.5" style="stroke:none;fill:red;fill-opacity:0.5;"/></marker><marker id="markerEnd" style="overflow:visible;"><circle cx="0" cy="0" r="0.8" style="stroke:none;fill:blue;fill-opacity:0.5;"><animate attributeName="opacity" from="1" to="0" dur="3s" repeatCount="indefinite" /></circle></marker></defs><rect x="4" y="4" width="100" height="100" /><path d="M22.38,24.54c1.1,0.4,4.03,0.88,6.36,0.7c15.78-1.2,36.5-3.61,50.67-4.19c2.44-0.1,4.39-0.05,6.59,0.26" class="grey" /><path d="M53.62,10.75c0.13,1.25,0.5,2.41-0.13,3.48C43.75,30.75,32.25,42.75,17.5,52.75" class="grey" /><path d="M55,23c8.04,5.39,26.8,19.12,34.83,22.72c2.73,1.23,3.68,1.41,4.92,1.53" class="grey" /><path d="M40,37.75c1.5,1.5,1.5,1.75,1.5,3.25s0,30,0,32.25" class="grey" /><path d="M41.75,39.55c9.22-0.13,20.2-2.34,22.24-2.34c1.6,0,1.8,0,3.01,0.26" class="grey" /><path d="M41.75,50.5c8.49-0.11,19.35-2,21.23-2c1.48,0,1.67-0.01,2.77,0.22" class="grey" /><path d="M42,61.75c8.85-0.09,17.5-1.4,20.77-1.59c1.53-0.09,3.06-0.07,4.23,0.09" class="grey" /><path d="M16.88,75.2c1.39,0.33,3.94,0.38,5.33,0.33c14.47-0.55,46.3-4.56,66.05-5c2.32-0.05,3.71,0.16,4.87,0.32" class="grey" /><path d="M48.49,76.75c0.1,0.92-0.14,1.84-0.48,2.28C43.5,85,39.53,90.45,32.59,94.29c-3.09,1.71-2.07,3.52,0.98,2.83c8.17-1.86,29.17-6.61,40.47-8.02" class="grey" /><path d="M64.38,80.13c6.11,3.32,15.78,13.67,17.31,18.84" class="grey" /><path d="M22.38,24.54c1.1,0.4,4.03,0.88,6.36,0.7c15.78-1.2,36.5-3.61,50.67-4.19c2.44-0.1,4.39-0.05,6.59,0.26" class="stroke" stroke-dasharray="150"><animate attributeName="stroke-dashoffset" from="150" to="0" dur="1.8s" begin="0.0s" fill="freeze" /></path><path d="M53.62,10.75c0.13,1.25,0.5,2.41-0.13,3.48C43.75,30.75,32.25,42.75,17.5,52.75" class="stroke" stroke-dasharray="150"><set attributeName="opacity" to="0" dur="1.5s" /><animate attributeName="stroke-dashoffset" from="150" to="0" dur="1.8s" begin="1.5s" fill="freeze" /></path><path d="M55,23c8.04,5.39,26.8,19.12,34.83,22.72c2.73,1.23,3.68,1.41,4.92,1.53" class="stroke" stroke-dasharray="150"><set attributeName="opacity" to="0" dur="2.9s" /><animate attributeName="stroke-dashoffset" from="150" to="0" dur="1.8s" begin="2.9s" fill="freeze" /></path><path d="M40,37.75c1.5,1.5,1.5,1.75,1.5,3.25s0,30,0,32.25" class="stroke" stroke-dasharray="150"><set attributeName="opacity" to="0" dur="4.1s" /><animate attributeName="stroke-dashoffset" from="150" to="0" dur="1.8s" begin="4.1s" fill="freeze" /></path><path d="M41.75,39.55c9.22-0.13,20.2-2.34,22.24-2.34c1.6,0,1.8,0,3.01,0.26" class="stroke" stroke-dasharray="150"><set attributeName="opacity" to="0" dur="5.1s" /><animate attributeName="stroke-dashoffset" from="150" to="0" dur="1.8s" begin="5.1s" fill="freeze" /></path><path d="M41.75,50.5c8.49-0.11,19.35-2,21.23-2c1.48,0,1.67-0.01,2.77,0.22" class="stroke" stroke-dasharray="150"><set attributeName="opacity" to="0" dur="6.1s" /><animate attributeName="stroke-dashoffset" from="150" to="0" dur="1.8s" begin="6.1s" fill="freeze" /></path><path d="M42,61.75c8.85-0.09,17.5-1.4,20.77-1.59c1.53-0.09,3.06-0.07,4.23,0.09" class="stroke" stroke-dasharray="150"><set attributeName="opacity" to="0" dur="7.1s" /><animate attributeName="stroke-dashoffset" from="150" to="0" dur="1.8s" begin="7.1s" fill="freeze" /></path><path d="M16.88,75.2c1.39,0.33,3.94,0.38,5.33,0.33c14.47-0.55,46.3-4.56,66.05-5c2.32-0.05,3.71,0.16,4.87,0.32" class="stroke" stroke-dasharray="150"><set attributeName="opacity" to="0" dur="8.1s" /><animate attributeName="stroke-dashoffset" from="150" to="0" dur="1.8s" begin="8.1s" fill="freeze" /></path><path d="M48.49,76.75c0.1,0.92-0.14,1.84-0.48,2.28C43.5,85,39.53,90.45,32.59,94.29c-3.09,1.71-2.07,3.52,0.98,2.83c8.17-1.86,29.17-6.61,40.47-8.02" class="stroke" stroke-dasharray="150"><set attributeName="opacity" to="0" dur="9.799999999999999s" /><animate attributeName="stroke-dashoffset" from="150" to="0" dur="1.8s" begin="9.799999999999999s" fill="freeze" /></path><path d="M64.38,80.13c6.11,3.32,15.78,13.67,17.31,18.84" class="stroke" stroke-dasharray="150"><set attributeName="opacity" to="0" dur="11.499999999999998s" /><animate attributeName="stroke-dashoffset" from="150" to="0" dur="1.8s" begin="11.499999999999998s" fill="freeze" /></path><text x="90" y="120" id="reset-kvg-05957-HzFst">⟳</text><text x="70" y="120" id="pause-kvg-05957-HzFst">◼</text><script type="text/javascript"><![CDATA[function RecurringTimer(e,t){var n,r,i=t;this.pause=function(){window.clearTimeout(n);i-=new Date-r};var s=function(){r=new Date;n=window.setTimeout(function(){i=t;s();e()},i)};this.clear=function(){window.clearTimeout(n);i=t;n=window.setTimeout(function(){i=t;s();e()},i)};this.resume=s;this.resume()}function invoketimer(){timer=new RecurringTimer(function(){svg.setCurrentTime(0)},13499.999999999998)}var svg=document.getElementById("kvg-05957-HzFst");var pause=document.getElementById("pause-kvg-05957-HzFst");var reset=document.getElementById("reset-kvg-05957-HzFst");var timer;invoketimer();reset.onclick=function(){svg.setCurrentTime(0);timer.clear();svg.unpauseAnimations();pause.innerHTML = "◼";};pause.onclick=function(){if(svg.animationsPaused()){svg.unpauseAnimations();timer.resume();pause.innerHTML="◼"}else{svg.pauseAnimations();timer.pause();pause.innerHTML="▶"}}]]></script></svg>