<svg id="kvg-05ac1" class="kanjivg" width="106" height="126" xmlns="http://www.w3.org/2000/svg" xmlns:xlink="http://www.w3.org/1999/xlink" xml:space="preserve" version="1.1" baseProfile="full"><defs><style type="text/css"><![CDATA[path.black{fill:none;stroke:black;stroke-width:5;stroke-linecap:round;stroke-linejoin:round;}path.grey{fill:none;stroke:#ddd;stroke-width:5;stroke-linecap:round;stroke-linejoin:round;}path.stroke{fill:none;stroke:black;stroke-width:5;stroke-linecap:round;stroke-linejoin:round;}rect{fill:none;stroke:#555;stroke-width:2;} text{font-size:16px;font-family:Segoe UI Symbol,Cambria Math,DejaVu Sans,Symbola,Quivira,STIX,Code2000;-webkit-touch-callout:none;cursor:pointer;-webkit-user-select:none;-khtml-user-select:none;-moz-user-select:none;-ms-user-select:none;user-select: none;}text:hover{color:#777;}#reset{font-weight:bold;}]]></style><marker id="markerStart" markerWidth="8" markerHeight="8" style="overflow:visible;"><circle cx="0" cy="0" r="1.5" style="stroke:none;fill:red;fill-opacity:0.5;"/></marker><marker id="markerEnd" style="overflow:visible;"><circle cx="0" cy="0" r="0.8" style="stroke:none;fill:blue;fill-opacity:0.5;"><animate attributeName="opacity" from="1" to="0" dur="3s" repeatCount="indefinite" /></circle></marker></defs><rect x="4" y="4" width="100" height="100" /><path d="M28.37,18.37c0.38,1.13,0.57,2.49,0.38,4.13c-0.97,8.06-6.24,33-10.52,42.43c-0.88,1.94-0.85,2.19,0.88,2.87c5.49,2.14,10.27,4.58,15.59,10c2.09,2.13,3.77,4.83,5.31,7.7" class="grey" /><path d="M38.75,38.25c0.37,1.25,0.39,2.69,0.08,4.56C36.36,57.97,30.21,80.72,12.5,92" class="grey" /><path d="M11.5,50.17c0.66,1.08,2.02,1.52,3.73,1.08c4.77-1.25,15.89-4.87,26.52-8" class="grey" /><path d="M66.68,13.54C67.7,14.55,68,15.79,68,17.25c0,3.11,0.1,7.4,0.1,10.23" class="grey" /><path d="M49.5,27.38c0,3.36-1.37,11.61-2.19,13.86" class="grey" /><path d="M50.31,30.59C63.5,28.5,79,26.5,88.56,26.06c9.12-0.42,0.1,6.17-1.01,6.86" class="grey" /><path d="M54.06,42.1c1.31,0.4,3.77,0.27,5.66-0.05c6.02-1.02,14.51-1.99,18.53-2.43c1.36-0.15,2.88-0.24,4.32,0.04" class="grey" /><path d="M67.63,43.38c0.14,0.94-0.05,1.79-0.64,2.51C64,49.5,58,53.88,47.88,59.5" class="grey" /><path d="M64.2,48.91C71.25,54,78,72.25,70.99,89.73c-2.18,5.44-6.57,0.32-7.45-0.45" class="grey" /><path d="M66.46,56.01c0.14,0.95,0.01,1.85-0.58,2.58c-3.01,3.67-8.31,8.19-17.5,13.39" class="grey" /><path d="M69.76,64.84c0.14,1.14,0.11,2.2-0.55,3.14c-3.34,4.77-10.7,12.06-22.96,19.77" class="grey" /><path d="M86.81,48.02c0.09,0.74-0.09,1.41-0.54,2.02c-2.02,2.47-4.9,5.34-10.65,8.97" class="grey" /><path d="M72.34,59.47c2.69,2.75,12.4,13.34,18.18,19.25c1.47,1.5,4.36,3.78,6.46,5.36" class="grey" /><path d="M28.37,18.37c0.38,1.13,0.57,2.49,0.38,4.13c-0.97,8.06-6.24,33-10.52,42.43c-0.88,1.94-0.85,2.19,0.88,2.87c5.49,2.14,10.27,4.58,15.59,10c2.09,2.13,3.77,4.83,5.31,7.7" class="stroke" stroke-dasharray="150"><animate attributeName="stroke-dashoffset" from="150" to="0" dur="1.8s" begin="0.0s" fill="freeze" /></path><path d="M38.75,38.25c0.37,1.25,0.39,2.69,0.08,4.56C36.36,57.97,30.21,80.72,12.5,92" class="stroke" stroke-dasharray="150"><set attributeName="opacity" to="0" dur="1.7s" /><animate attributeName="stroke-dashoffset" from="150" to="0" dur="1.8s" begin="1.7s" fill="freeze" /></path><path d="M11.5,50.17c0.66,1.08,2.02,1.52,3.73,1.08c4.77-1.25,15.89-4.87,26.52-8" class="stroke" stroke-dasharray="150"><set attributeName="opacity" to="0" dur="3.2s" /><animate attributeName="stroke-dashoffset" from="150" to="0" dur="1.8s" begin="3.2s" fill="freeze" /></path><path d="M66.68,13.54C67.7,14.55,68,15.79,68,17.25c0,3.11,0.1,7.4,0.1,10.23" class="stroke" stroke-dasharray="150"><set attributeName="opacity" to="0" dur="4.2s" /><animate attributeName="stroke-dashoffset" from="150" to="0" dur="1.8s" begin="4.2s" fill="freeze" /></path><path d="M49.5,27.38c0,3.36-1.37,11.61-2.19,13.86" class="stroke" stroke-dasharray="150"><set attributeName="opacity" to="0" dur="5.1000000000000005s" /><animate attributeName="stroke-dashoffset" from="150" to="0" dur="1.8s" begin="5.1000000000000005s" fill="freeze" /></path><path d="M50.31,30.59C63.5,28.5,79,26.5,88.56,26.06c9.12-0.42,0.1,6.17-1.01,6.86" class="stroke" stroke-dasharray="150"><set attributeName="opacity" to="0" dur="6.000000000000001s" /><animate attributeName="stroke-dashoffset" from="150" to="0" dur="1.8s" begin="6.000000000000001s" fill="freeze" /></path><path d="M54.06,42.1c1.31,0.4,3.77,0.27,5.66-0.05c6.02-1.02,14.51-1.99,18.53-2.43c1.36-0.15,2.88-0.24,4.32,0.04" class="stroke" stroke-dasharray="150"><set attributeName="opacity" to="0" dur="7.300000000000001s" /><animate attributeName="stroke-dashoffset" from="150" to="0" dur="1.8s" begin="7.300000000000001s" fill="freeze" /></path><path d="M67.63,43.38c0.14,0.94-0.05,1.79-0.64,2.51C64,49.5,58,53.88,47.88,59.5" class="stroke" stroke-dasharray="150"><set attributeName="opacity" to="0" dur="8.3s" /><animate attributeName="stroke-dashoffset" from="150" to="0" dur="1.8s" begin="8.3s" fill="freeze" /></path><path d="M64.2,48.91C71.25,54,78,72.25,70.99,89.73c-2.18,5.44-6.57,0.32-7.45-0.45" class="stroke" stroke-dasharray="150"><set attributeName="opacity" to="0" dur="9.3s" /><animate attributeName="stroke-dashoffset" from="150" to="0" dur="1.8s" begin="9.3s" fill="freeze" /></path><path d="M66.46,56.01c0.14,0.95,0.01,1.85-0.58,2.58c-3.01,3.67-8.31,8.19-17.5,13.39" class="stroke" stroke-dasharray="150"><set attributeName="opacity" to="0" dur="10.600000000000001s" /><animate attributeName="stroke-dashoffset" from="150" to="0" dur="1.8s" begin="10.600000000000001s" fill="freeze" /></path><path d="M69.76,64.84c0.14,1.14,0.11,2.2-0.55,3.14c-3.34,4.77-10.7,12.06-22.96,19.77" class="stroke" stroke-dasharray="150"><set attributeName="opacity" to="0" dur="11.600000000000001s" /><animate attributeName="stroke-dashoffset" from="150" to="0" dur="1.8s" begin="11.600000000000001s" fill="freeze" /></path><path d="M86.81,48.02c0.09,0.74-0.09,1.41-0.54,2.02c-2.02,2.47-4.9,5.34-10.65,8.97" class="stroke" stroke-dasharray="150"><set attributeName="opacity" to="0" dur="12.600000000000001s" /><animate attributeName="stroke-dashoffset" from="150" to="0" dur="1.8s" begin="12.600000000000001s" fill="freeze" /></path><path d="M72.34,59.47c2.69,2.75,12.4,13.34,18.18,19.25c1.47,1.5,4.36,3.78,6.46,5.36" class="stroke" stroke-dasharray="150"><set attributeName="opacity" to="0" dur="13.500000000000002s" /><animate attributeName="stroke-dashoffset" from="150" to="0" dur="1.8s" begin="13.500000000000002s" fill="freeze" /></path><text x="90" y="120" id="reset-kvg-05ac1">⟳</text><text x="70" y="120" id="pause-kvg-05ac1">◼</text><script type="text/javascript"><![CDATA[function RecurringTimer(e,t){var n,r,i=t;this.pause=function(){window.clearTimeout(n);i-=new Date-r};var s=function(){r=new Date;n=window.setTimeout(function(){i=t;s();e()},i)};this.clear=function(){window.clearTimeout(n);i=t;n=window.setTimeout(function(){i=t;s();e()},i)};this.resume=s;this.resume()}function invoketimer(){timer=new RecurringTimer(function(){svg.setCurrentTime(0)},15500.000000000002)}var svg=document.getElementById("kvg-05ac1");var pause=document.getElementById("pause-kvg-05ac1");var reset=document.getElementById("reset-kvg-05ac1");var timer;invoketimer();reset.onclick=function(){svg.setCurrentTime(0);timer.clear();svg.unpauseAnimations();pause.innerHTML = "◼";};pause.onclick=function(){if(svg.animationsPaused()){svg.unpauseAnimations();timer.resume();pause.innerHTML="◼"}else{svg.pauseAnimations();timer.pause();pause.innerHTML="▶"}}]]></script></svg>