<svg id="kvg-05ae3-HzFst" class="kanjivg" width="106" height="126" xmlns="http://www.w3.org/2000/svg" xmlns:xlink="http://www.w3.org/1999/xlink" xml:space="preserve" version="1.1" baseProfile="full"><defs><style type="text/css"><![CDATA[path.black{fill:none;stroke:black;stroke-width:5;stroke-linecap:round;stroke-linejoin:round;}path.grey{fill:none;stroke:#ddd;stroke-width:5;stroke-linecap:round;stroke-linejoin:round;}path.stroke{fill:none;stroke:black;stroke-width:5;stroke-linecap:round;stroke-linejoin:round;}rect{fill:none;stroke:#555;stroke-width:2;} text{font-size:16px;font-family:Segoe UI Symbol,Cambria Math,DejaVu Sans,Symbola,Quivira,STIX,Code2000;-webkit-touch-callout:none;cursor:pointer;-webkit-user-select:none;-khtml-user-select:none;-moz-user-select:none;-ms-user-select:none;user-select: none;}text:hover{color:#777;}#reset{font-weight:bold;}]]></style><marker id="markerStart" markerWidth="8" markerHeight="8" style="overflow:visible;"><circle cx="0" cy="0" r="1.5" style="stroke:none;fill:red;fill-opacity:0.5;"/></marker><marker id="markerEnd" style="overflow:visible;"><circle cx="0" cy="0" r="0.8" style="stroke:none;fill:blue;fill-opacity:0.5;"><animate attributeName="opacity" from="1" to="0" dur="3s" repeatCount="indefinite" /></circle></marker></defs><rect x="4" y="4" width="100" height="100" /><path d="M27.48,16.87c0.39,1.04,1.08,2.74,0.89,4.24c-0.98,7.39-7.31,34.65-11.63,43.29c-0.89,1.77,0.4,2.46,0.89,2.63C27,70.25,35,76.16,40.25,83.78" class="grey" /><path d="M39.75,37.39c0.08,1.27,0.14,4.34-0.16,6.18C37.18,58.41,30.23,79.46,13,90.5" class="grey" /><path d="M8,47.22c0.75,0.94,1.75,1.62,3.75,1.39c2.15-0.24,21.34-4.35,30.25-6.73" class="grey" /><path d="M50.15,17.38c1,0.33,2.84,0.38,3.85,0.33c10.07-0.49,25.01-2.95,34.99-3.54c1.67-0.1,2.68,0.16,3.51,0.32" class="grey" /><path d="M71.88,28.92C77.75,28.25,82.5,27,88.61,26.6c0.53-0.03,1.85,0.05,2.12,0.11" class="grey" /><path d="M70.95,19.01c0.05,0.22,0.67,1.16,0.71,2.57c0.23,6.77-0.15,17.6-0.15,19.91" class="grey" /><path d="M56.77,27.66c0.05,0.18,1.21,1.44,1.26,2.59c0.24,5.53-0.01,11.14-0.01,13.02" class="grey" /><path d="M46.96,43.7c1.14,0.26,3.6,0.64,4.69,0.57c9.7-0.63,31.85-4.02,42.76-4.77c1.83-0.12,3.42-0.12,4.38,0.27" class="grey" /><path d="M57.61,54.97c6.28-0.01,20.06-2.37,32.83-3.48c1.09-0.09,1.74,0.08,2.28,0.17" class="grey" /><path d="M57.99,46.15c0.33,0.35,0.78,2.28,0.69,2.86c-1.05,6.78-1.96,10.63-3.07,14.48c-0.45,1.55,0.09,3.92,1.83,3.29c3.83-1.4,29.04-3.66,34.76-4.46c3.72-0.52,5.62,0.93,4.96,4.5c-1.44,7.77-3.9,20.19-7.98,26.86c-2.52,4.11-5.74,5.17-8.74-0.51" class="grey" /><path d="M47.91,78.58c-0.6,5.28-2.06,11.02-4.94,14" class="grey" /><path d="M56.06,76.69c1.52,2.48,2.96,9.3,3.34,13.16" class="grey" /><path d="M65.92,75.33c2,2.04,5.16,8.38,5.67,11.55" class="grey" /><path d="M77.51,72.59c2.25,1.92,5.82,7.88,6.39,10.86" class="grey" /><path d="M27.48,16.87c0.39,1.04,1.08,2.74,0.89,4.24c-0.98,7.39-7.31,34.65-11.63,43.29c-0.89,1.77,0.4,2.46,0.89,2.63C27,70.25,35,76.16,40.25,83.78" class="stroke" stroke-dasharray="150"><animate attributeName="stroke-dashoffset" from="150" to="0" dur="1.8s" begin="0.0s" fill="freeze" /></path><path d="M39.75,37.39c0.08,1.27,0.14,4.34-0.16,6.18C37.18,58.41,30.23,79.46,13,90.5" class="stroke" stroke-dasharray="150"><set attributeName="opacity" to="0" dur="1.7s" /><animate attributeName="stroke-dashoffset" from="150" to="0" dur="1.8s" begin="1.7s" fill="freeze" /></path><path d="M8,47.22c0.75,0.94,1.75,1.62,3.75,1.39c2.15-0.24,21.34-4.35,30.25-6.73" class="stroke" stroke-dasharray="150"><set attributeName="opacity" to="0" dur="3.2s" /><animate attributeName="stroke-dashoffset" from="150" to="0" dur="1.8s" begin="3.2s" fill="freeze" /></path><path d="M50.15,17.38c1,0.33,2.84,0.38,3.85,0.33c10.07-0.49,25.01-2.95,34.99-3.54c1.67-0.1,2.68,0.16,3.51,0.32" class="stroke" stroke-dasharray="150"><set attributeName="opacity" to="0" dur="4.2s" /><animate attributeName="stroke-dashoffset" from="150" to="0" dur="1.8s" begin="4.2s" fill="freeze" /></path><path d="M71.88,28.92C77.75,28.25,82.5,27,88.61,26.6c0.53-0.03,1.85,0.05,2.12,0.11" class="stroke" stroke-dasharray="150"><set attributeName="opacity" to="0" dur="5.300000000000001s" /><animate attributeName="stroke-dashoffset" from="150" to="0" dur="1.8s" begin="5.300000000000001s" fill="freeze" /></path><path d="M70.95,19.01c0.05,0.22,0.67,1.16,0.71,2.57c0.23,6.77-0.15,17.6-0.15,19.91" class="stroke" stroke-dasharray="150"><set attributeName="opacity" to="0" dur="6.200000000000001s" /><animate attributeName="stroke-dashoffset" from="150" to="0" dur="1.8s" begin="6.200000000000001s" fill="freeze" /></path><path d="M56.77,27.66c0.05,0.18,1.21,1.44,1.26,2.59c0.24,5.53-0.01,11.14-0.01,13.02" class="stroke" stroke-dasharray="150"><set attributeName="opacity" to="0" dur="7.200000000000001s" /><animate attributeName="stroke-dashoffset" from="150" to="0" dur="1.8s" begin="7.200000000000001s" fill="freeze" /></path><path d="M46.96,43.7c1.14,0.26,3.6,0.64,4.69,0.57c9.7-0.63,31.85-4.02,42.76-4.77c1.83-0.12,3.42-0.12,4.38,0.27" class="stroke" stroke-dasharray="150"><set attributeName="opacity" to="0" dur="8.100000000000001s" /><animate attributeName="stroke-dashoffset" from="150" to="0" dur="1.8s" begin="8.100000000000001s" fill="freeze" /></path><path d="M57.61,54.97c6.28-0.01,20.06-2.37,32.83-3.48c1.09-0.09,1.74,0.08,2.28,0.17" class="stroke" stroke-dasharray="150"><set attributeName="opacity" to="0" dur="9.400000000000002s" /><animate attributeName="stroke-dashoffset" from="150" to="0" dur="1.8s" begin="9.400000000000002s" fill="freeze" /></path><path d="M57.99,46.15c0.33,0.35,0.78,2.28,0.69,2.86c-1.05,6.78-1.96,10.63-3.07,14.48c-0.45,1.55,0.09,3.92,1.83,3.29c3.83-1.4,29.04-3.66,34.76-4.46c3.72-0.52,5.62,0.93,4.96,4.5c-1.44,7.77-3.9,20.19-7.98,26.86c-2.52,4.11-5.74,5.17-8.74-0.51" class="stroke" stroke-dasharray="150"><set attributeName="opacity" to="0" dur="10.400000000000002s" /><animate attributeName="stroke-dashoffset" from="150" to="0" dur="1.8s" begin="10.400000000000002s" fill="freeze" /></path><path d="M47.91,78.58c-0.6,5.28-2.06,11.02-4.94,14" class="stroke" stroke-dasharray="150"><set attributeName="opacity" to="0" dur="12.300000000000002s" /><animate attributeName="stroke-dashoffset" from="150" to="0" dur="1.8s" begin="12.300000000000002s" fill="freeze" /></path><path d="M56.06,76.69c1.52,2.48,2.96,9.3,3.34,13.16" class="stroke" stroke-dasharray="150"><set attributeName="opacity" to="0" dur="13.200000000000003s" /><animate attributeName="stroke-dashoffset" from="150" to="0" dur="1.8s" begin="13.200000000000003s" fill="freeze" /></path><path d="M65.92,75.33c2,2.04,5.16,8.38,5.67,11.55" class="stroke" stroke-dasharray="150"><set attributeName="opacity" to="0" dur="14.100000000000003s" /><animate attributeName="stroke-dashoffset" from="150" to="0" dur="1.8s" begin="14.100000000000003s" fill="freeze" /></path><path d="M77.51,72.59c2.25,1.92,5.82,7.88,6.39,10.86" class="stroke" stroke-dasharray="150"><set attributeName="opacity" to="0" dur="15.000000000000004s" /><animate attributeName="stroke-dashoffset" from="150" to="0" dur="1.8s" begin="15.000000000000004s" fill="freeze" /></path><text x="90" y="120" id="reset-kvg-05ae3-HzFst">⟳</text><text x="70" y="120" id="pause-kvg-05ae3-HzFst">◼</text><script type="text/javascript"><![CDATA[function RecurringTimer(e,t){var n,r,i=t;this.pause=function(){window.clearTimeout(n);i-=new Date-r};var s=function(){r=new Date;n=window.setTimeout(function(){i=t;s();e()},i)};this.clear=function(){window.clearTimeout(n);i=t;n=window.setTimeout(function(){i=t;s();e()},i)};this.resume=s;this.resume()}function invoketimer(){timer=new RecurringTimer(function(){svg.setCurrentTime(0)},16900.000000000004)}var svg=document.getElementById("kvg-05ae3-HzFst");var pause=document.getElementById("pause-kvg-05ae3-HzFst");var reset=document.getElementById("reset-kvg-05ae3-HzFst");var timer;invoketimer();reset.onclick=function(){svg.setCurrentTime(0);timer.clear();svg.unpauseAnimations();pause.innerHTML = "◼";};pause.onclick=function(){if(svg.animationsPaused()){svg.unpauseAnimations();timer.resume();pause.innerHTML="◼"}else{svg.pauseAnimations();timer.pause();pause.innerHTML="▶"}}]]></script></svg>