<svg id="kvg-05b5f" class="kanjivg" width="106" height="126" xmlns="http://www.w3.org/2000/svg" xmlns:xlink="http://www.w3.org/1999/xlink" xml:space="preserve" version="1.1" baseProfile="full"><defs><style type="text/css"><![CDATA[path.black{fill:none;stroke:black;stroke-width:5;stroke-linecap:round;stroke-linejoin:round;}path.grey{fill:none;stroke:#ddd;stroke-width:5;stroke-linecap:round;stroke-linejoin:round;}path.stroke{fill:none;stroke:black;stroke-width:5;stroke-linecap:round;stroke-linejoin:round;}rect{fill:none;stroke:#555;stroke-width:2;} text{font-size:16px;font-family:Segoe UI Symbol,Cambria Math,DejaVu Sans,Symbola,Quivira,STIX,Code2000;-webkit-touch-callout:none;cursor:pointer;-webkit-user-select:none;-khtml-user-select:none;-moz-user-select:none;-ms-user-select:none;user-select: none;}text:hover{color:#777;}#reset{font-weight:bold;}]]></style><marker id="markerStart" markerWidth="8" markerHeight="8" style="overflow:visible;"><circle cx="0" cy="0" r="1.5" style="stroke:none;fill:red;fill-opacity:0.5;"/></marker><marker id="markerEnd" style="overflow:visible;"><circle cx="0" cy="0" r="0.8" style="stroke:none;fill:blue;fill-opacity:0.5;"><animate attributeName="opacity" from="1" to="0" dur="3s" repeatCount="indefinite" /></circle></marker></defs><rect x="4" y="4" width="100" height="100" /><path d="M31.12,16.51c2.86,1.02,5.79,1.29,8.76,0.78c8.59-1.5,24.14-4.18,30.41-5.29c2.84-0.5,3.24,2.57,1.23,3.95c-4.64,3.18-8.64,5.68-17.23,10.92" class="grey" /><path d="M49.86,27.1c7.39,3.15,11.14,14.4,8.16,29.27c-1.13,5.6-5.26,3.26-7.81-0.44" class="grey" /><path d="M16.79,39.61c4.58,1.14,8.43,0.78,12.47,0.26c13.62-1.74,37.62-4.12,51.74-4.41c4.16-0.09,8.27-0.11,12.21,1.38" class="grey" /><path d="M25.56,66.01c1.03,1.03,1.38,2.24,1.53,3.25c1.19,8.04,1.87,15.25,2.98,23.39" class="grey" /><path d="M28.15,68.29c11.74-1.25,38.48-3.96,48.84-4.77c3.9-0.31,6.43,0.42,5.68,5.02c-0.92,5.64-2.17,13.72-3.24,20.79" class="grey" /><path d="M43.69,68.19c0.87,0.87,1.13,2.19,1.22,3.15c0.71,6.91,1.33,13.16,2.03,19.9" class="grey" /><path d="M62.49,67.54c0.51,1.34,0.58,2.49,0.47,3.67c-0.71,7.92-1.21,12.29-1.92,19.11" class="grey" /><path d="M13.38,93.54c3.39,1.21,7.64,0.77,11.11,0.44C40.12,92.5,62.25,91.25,86,90.57c3.97-0.11,8.22,0.3,12.13,1.14" class="grey" /><path d="M31.12,16.51c2.86,1.02,5.79,1.29,8.76,0.78c8.59-1.5,24.14-4.18,30.41-5.29c2.84-0.5,3.24,2.57,1.23,3.95c-4.64,3.18-8.64,5.68-17.23,10.92" class="stroke" stroke-dasharray="150"><animate attributeName="stroke-dashoffset" from="150" to="0" dur="1.8s" begin="0.0s" fill="freeze" /></path><path d="M49.86,27.1c7.39,3.15,11.14,14.4,8.16,29.27c-1.13,5.6-5.26,3.26-7.81-0.44" class="stroke" stroke-dasharray="150"><set attributeName="opacity" to="0" dur="1.5s" /><animate attributeName="stroke-dashoffset" from="150" to="0" dur="1.8s" begin="1.5s" fill="freeze" /></path><path d="M16.79,39.61c4.58,1.14,8.43,0.78,12.47,0.26c13.62-1.74,37.62-4.12,51.74-4.41c4.16-0.09,8.27-0.11,12.21,1.38" class="stroke" stroke-dasharray="150"><set attributeName="opacity" to="0" dur="2.6s" /><animate attributeName="stroke-dashoffset" from="150" to="0" dur="1.8s" begin="2.6s" fill="freeze" /></path><path d="M25.56,66.01c1.03,1.03,1.38,2.24,1.53,3.25c1.19,8.04,1.87,15.25,2.98,23.39" class="stroke" stroke-dasharray="150"><set attributeName="opacity" to="0" dur="4.3s" /><animate attributeName="stroke-dashoffset" from="150" to="0" dur="1.8s" begin="4.3s" fill="freeze" /></path><path d="M28.15,68.29c11.74-1.25,38.48-3.96,48.84-4.77c3.9-0.31,6.43,0.42,5.68,5.02c-0.92,5.64-2.17,13.72-3.24,20.79" class="stroke" stroke-dasharray="150"><set attributeName="opacity" to="0" dur="5.3s" /><animate attributeName="stroke-dashoffset" from="150" to="0" dur="1.8s" begin="5.3s" fill="freeze" /></path><path d="M43.69,68.19c0.87,0.87,1.13,2.19,1.22,3.15c0.71,6.91,1.33,13.16,2.03,19.9" class="stroke" stroke-dasharray="150"><set attributeName="opacity" to="0" dur="7.0s" /><animate attributeName="stroke-dashoffset" from="150" to="0" dur="1.8s" begin="7.0s" fill="freeze" /></path><path d="M62.49,67.54c0.51,1.34,0.58,2.49,0.47,3.67c-0.71,7.92-1.21,12.29-1.92,19.11" class="stroke" stroke-dasharray="150"><set attributeName="opacity" to="0" dur="8.0s" /><animate attributeName="stroke-dashoffset" from="150" to="0" dur="1.8s" begin="8.0s" fill="freeze" /></path><path d="M13.38,93.54c3.39,1.21,7.64,0.77,11.11,0.44C40.12,92.5,62.25,91.25,86,90.57c3.97-0.11,8.22,0.3,12.13,1.14" class="stroke" stroke-dasharray="150"><set attributeName="opacity" to="0" dur="9.0s" /><animate attributeName="stroke-dashoffset" from="150" to="0" dur="1.8s" begin="9.0s" fill="freeze" /></path><text x="90" y="120" id="reset-kvg-05b5f">⟳</text><text x="70" y="120" id="pause-kvg-05b5f">◼</text><script type="text/javascript"><![CDATA[function RecurringTimer(e,t){var n,r,i=t;this.pause=function(){window.clearTimeout(n);i-=new Date-r};var s=function(){r=new Date;n=window.setTimeout(function(){i=t;s();e()},i)};this.clear=function(){window.clearTimeout(n);i=t;n=window.setTimeout(function(){i=t;s();e()},i)};this.resume=s;this.resume()}function invoketimer(){timer=new RecurringTimer(function(){svg.setCurrentTime(0)},11700.0)}var svg=document.getElementById("kvg-05b5f");var pause=document.getElementById("pause-kvg-05b5f");var reset=document.getElementById("reset-kvg-05b5f");var timer;invoketimer();reset.onclick=function(){svg.setCurrentTime(0);timer.clear();svg.unpauseAnimations();pause.innerHTML = "◼";};pause.onclick=function(){if(svg.animationsPaused()){svg.unpauseAnimations();timer.resume();pause.innerHTML="◼"}else{svg.pauseAnimations();timer.pause();pause.innerHTML="▶"}}]]></script></svg>