<svg id="kvg-05b89" class="kanjivg" width="106" height="126" xmlns="http://www.w3.org/2000/svg" xmlns:xlink="http://www.w3.org/1999/xlink" xml:space="preserve" version="1.1" baseProfile="full"><defs><style type="text/css"><![CDATA[path.black{fill:none;stroke:black;stroke-width:5;stroke-linecap:round;stroke-linejoin:round;}path.grey{fill:none;stroke:#ddd;stroke-width:5;stroke-linecap:round;stroke-linejoin:round;}path.stroke{fill:none;stroke:black;stroke-width:5;stroke-linecap:round;stroke-linejoin:round;}rect{fill:none;stroke:#555;stroke-width:2;} text{font-size:16px;font-family:Segoe UI Symbol,Cambria Math,DejaVu Sans,Symbola,Quivira,STIX,Code2000;-webkit-touch-callout:none;cursor:pointer;-webkit-user-select:none;-khtml-user-select:none;-moz-user-select:none;-ms-user-select:none;user-select: none;}text:hover{color:#777;}#reset{font-weight:bold;}]]></style><marker id="markerStart" markerWidth="8" markerHeight="8" style="overflow:visible;"><circle cx="0" cy="0" r="1.5" style="stroke:none;fill:red;fill-opacity:0.5;"/></marker><marker id="markerEnd" style="overflow:visible;"><circle cx="0" cy="0" r="0.8" style="stroke:none;fill:blue;fill-opacity:0.5;"><animate attributeName="opacity" from="1" to="0" dur="3s" repeatCount="indefinite" /></circle></marker></defs><rect x="4" y="4" width="100" height="100" /><path d="M53.06,13.73c0.92,0.92,1.63,2.6,1.6,3.75c-0.09,3.62-0.09,7.03-0.09,10.33" class="grey" /><path d="M26.67,28.85c0,3.6-3.32,13.5-4.83,15.9" class="grey" /><path d="M27.53,30.96c12.72-1.58,40.97-4.21,54.14-4.86c9.82-0.48,1.45,6.65-2.17,9.9" class="grey" /><path d="M49.87,36.87c0.51,1.45,0.52,3.55,0,5.32c-2.74,9.22-7.03,20.09-13.85,30.42c-1.43,2.17-0.76,2.95,1.26,3.14c8.23,0.75,21.61,4.5,33.74,11.77c4.36,2.61,8.24,5.98,10.24,9.48" class="grey" /><path d="M70,50c0.38,1.48,0.22,3.46-0.26,5.13c-3.88,13.52-17.45,34.6-43.24,42.49" class="grey" /><path d="M15.13,60.22c2.85,0.74,6.22,0.42,9.12,0.2c11.33-0.85,40.73-4.55,64.72-4.64c2.27-0.01,6.19,0.33,8.03,0.96" class="grey" /><path d="M53.06,13.73c0.92,0.92,1.63,2.6,1.6,3.75c-0.09,3.62-0.09,7.03-0.09,10.33" class="stroke" stroke-dasharray="150"><animate attributeName="stroke-dashoffset" from="150" to="0" dur="1.8s" begin="0.0s" fill="freeze" /></path><path d="M26.67,28.85c0,3.6-3.32,13.5-4.83,15.9" class="stroke" stroke-dasharray="150"><set attributeName="opacity" to="0" dur="0.9s" /><animate attributeName="stroke-dashoffset" from="150" to="0" dur="1.8s" begin="0.9s" fill="freeze" /></path><path d="M27.53,30.96c12.72-1.58,40.97-4.21,54.14-4.86c9.82-0.48,1.45,6.65-2.17,9.9" class="stroke" stroke-dasharray="150"><set attributeName="opacity" to="0" dur="1.8s" /><animate attributeName="stroke-dashoffset" from="150" to="0" dur="1.8s" begin="1.8s" fill="freeze" /></path><path d="M49.87,36.87c0.51,1.45,0.52,3.55,0,5.32c-2.74,9.22-7.03,20.09-13.85,30.42c-1.43,2.17-0.76,2.95,1.26,3.14c8.23,0.75,21.61,4.5,33.74,11.77c4.36,2.61,8.24,5.98,10.24,9.48" class="stroke" stroke-dasharray="150"><set attributeName="opacity" to="0" dur="3.5s" /><animate attributeName="stroke-dashoffset" from="150" to="0" dur="1.8s" begin="3.5s" fill="freeze" /></path><path d="M70,50c0.38,1.48,0.22,3.46-0.26,5.13c-3.88,13.52-17.45,34.6-43.24,42.49" class="stroke" stroke-dasharray="150"><set attributeName="opacity" to="0" dur="5.3s" /><animate attributeName="stroke-dashoffset" from="150" to="0" dur="1.8s" begin="5.3s" fill="freeze" /></path><path d="M15.13,60.22c2.85,0.74,6.22,0.42,9.12,0.2c11.33-0.85,40.73-4.55,64.72-4.64c2.27-0.01,6.19,0.33,8.03,0.96" class="stroke" stroke-dasharray="150"><set attributeName="opacity" to="0" dur="6.8s" /><animate attributeName="stroke-dashoffset" from="150" to="0" dur="1.8s" begin="6.8s" fill="freeze" /></path><text x="90" y="120" id="reset-kvg-05b89">⟳</text><text x="70" y="120" id="pause-kvg-05b89">◼</text><script type="text/javascript"><![CDATA[function RecurringTimer(e,t){var n,r,i=t;this.pause=function(){window.clearTimeout(n);i-=new Date-r};var s=function(){r=new Date;n=window.setTimeout(function(){i=t;s();e()},i)};this.clear=function(){window.clearTimeout(n);i=t;n=window.setTimeout(function(){i=t;s();e()},i)};this.resume=s;this.resume()}function invoketimer(){timer=new RecurringTimer(function(){svg.setCurrentTime(0)},9500.0)}var svg=document.getElementById("kvg-05b89");var pause=document.getElementById("pause-kvg-05b89");var reset=document.getElementById("reset-kvg-05b89");var timer;invoketimer();reset.onclick=function(){svg.setCurrentTime(0);timer.clear();svg.unpauseAnimations();pause.innerHTML = "◼";};pause.onclick=function(){if(svg.animationsPaused()){svg.unpauseAnimations();timer.resume();pause.innerHTML="◼"}else{svg.pauseAnimations();timer.pause();pause.innerHTML="▶"}}]]></script></svg>