<svg id="kvg-05b9c" class="kanjivg" width="106" height="126" xmlns="http://www.w3.org/2000/svg" xmlns:xlink="http://www.w3.org/1999/xlink" xml:space="preserve" version="1.1" baseProfile="full"><defs><style type="text/css"><![CDATA[path.black{fill:none;stroke:black;stroke-width:5;stroke-linecap:round;stroke-linejoin:round;}path.grey{fill:none;stroke:#ddd;stroke-width:5;stroke-linecap:round;stroke-linejoin:round;}path.stroke{fill:none;stroke:black;stroke-width:5;stroke-linecap:round;stroke-linejoin:round;}rect{fill:none;stroke:#555;stroke-width:2;} text{font-size:16px;font-family:Segoe UI Symbol,Cambria Math,DejaVu Sans,Symbola,Quivira,STIX,Code2000;-webkit-touch-callout:none;cursor:pointer;-webkit-user-select:none;-khtml-user-select:none;-moz-user-select:none;-ms-user-select:none;user-select: none;}text:hover{color:#777;}#reset{font-weight:bold;}]]></style><marker id="markerStart" markerWidth="8" markerHeight="8" style="overflow:visible;"><circle cx="0" cy="0" r="1.5" style="stroke:none;fill:red;fill-opacity:0.5;"/></marker><marker id="markerEnd" style="overflow:visible;"><circle cx="0" cy="0" r="0.8" style="stroke:none;fill:blue;fill-opacity:0.5;"><animate attributeName="opacity" from="1" to="0" dur="3s" repeatCount="indefinite" /></circle></marker></defs><rect x="4" y="4" width="100" height="100" /><path d="M52.94,12c0.97,0.97,1.3,2.38,1.3,3.79c0,3.15-0.08,6.25-0.08,9.12" class="grey" /><path d="M26.95,26.5c0,3.77-2.95,14.13-4.3,16.65" class="grey" /><path d="M27.4,29.39c12.48-1.76,44.1-5.26,53.83-5.71c9.73-0.44,3.52,5.57-1.11,8.99" class="grey" /><path d="M38.02,42.63c0.62,0.72,0.99,1.74,0.99,2.88c0,0.73-0.01,40.98-0.01,44.36" class="grey" /><path d="M40.23,44.77c4.89-0.52,24.21-3.08,26.03-3.2c3.27-0.21,4.12,1.18,4.12,3.47c0,6.46-0.01,27.71-0.01,41.58" class="grey" /><path d="M40.07,60.52c8.38-0.7,21.83-2.45,29.19-2.67" class="grey" /><path d="M40.06,75.48c10.44-1.23,18.31-1.98,29.17-2.76" class="grey" /><path d="M17.37,91.82c3.11,0.92,6.72,0.39,9.9,0.17c14.02-0.99,39.36-3.62,55.49-4.05c3.59-0.1,7.49,0.23,11.05,0.85" class="grey" /><path d="M52.94,12c0.97,0.97,1.3,2.38,1.3,3.79c0,3.15-0.08,6.25-0.08,9.12" class="stroke" stroke-dasharray="150"><animate attributeName="stroke-dashoffset" from="150" to="0" dur="1.8s" begin="0.0s" fill="freeze" /></path><path d="M26.95,26.5c0,3.77-2.95,14.13-4.3,16.65" class="stroke" stroke-dasharray="150"><set attributeName="opacity" to="0" dur="0.9s" /><animate attributeName="stroke-dashoffset" from="150" to="0" dur="1.8s" begin="0.9s" fill="freeze" /></path><path d="M27.4,29.39c12.48-1.76,44.1-5.26,53.83-5.71c9.73-0.44,3.52,5.57-1.11,8.99" class="stroke" stroke-dasharray="150"><set attributeName="opacity" to="0" dur="1.8s" /><animate attributeName="stroke-dashoffset" from="150" to="0" dur="1.8s" begin="1.8s" fill="freeze" /></path><path d="M38.02,42.63c0.62,0.72,0.99,1.74,0.99,2.88c0,0.73-0.01,40.98-0.01,44.36" class="stroke" stroke-dasharray="150"><set attributeName="opacity" to="0" dur="3.3s" /><animate attributeName="stroke-dashoffset" from="150" to="0" dur="1.8s" begin="3.3s" fill="freeze" /></path><path d="M40.23,44.77c4.89-0.52,24.21-3.08,26.03-3.2c3.27-0.21,4.12,1.18,4.12,3.47c0,6.46-0.01,27.71-0.01,41.58" class="stroke" stroke-dasharray="150"><set attributeName="opacity" to="0" dur="4.5s" /><animate attributeName="stroke-dashoffset" from="150" to="0" dur="1.8s" begin="4.5s" fill="freeze" /></path><path d="M40.07,60.52c8.38-0.7,21.83-2.45,29.19-2.67" class="stroke" stroke-dasharray="150"><set attributeName="opacity" to="0" dur="6.2s" /><animate attributeName="stroke-dashoffset" from="150" to="0" dur="1.8s" begin="6.2s" fill="freeze" /></path><path d="M40.06,75.48c10.44-1.23,18.31-1.98,29.17-2.76" class="stroke" stroke-dasharray="150"><set attributeName="opacity" to="0" dur="7.2s" /><animate attributeName="stroke-dashoffset" from="150" to="0" dur="1.8s" begin="7.2s" fill="freeze" /></path><path d="M17.37,91.82c3.11,0.92,6.72,0.39,9.9,0.17c14.02-0.99,39.36-3.62,55.49-4.05c3.59-0.1,7.49,0.23,11.05,0.85" class="stroke" stroke-dasharray="150"><set attributeName="opacity" to="0" dur="8.2s" /><animate attributeName="stroke-dashoffset" from="150" to="0" dur="1.8s" begin="8.2s" fill="freeze" /></path><text x="90" y="120" id="reset-kvg-05b9c">⟳</text><text x="70" y="120" id="pause-kvg-05b9c">◼</text><script type="text/javascript"><![CDATA[function RecurringTimer(e,t){var n,r,i=t;this.pause=function(){window.clearTimeout(n);i-=new Date-r};var s=function(){r=new Date;n=window.setTimeout(function(){i=t;s();e()},i)};this.clear=function(){window.clearTimeout(n);i=t;n=window.setTimeout(function(){i=t;s();e()},i)};this.resume=s;this.resume()}function invoketimer(){timer=new RecurringTimer(function(){svg.setCurrentTime(0)},10899.999999999998)}var svg=document.getElementById("kvg-05b9c");var pause=document.getElementById("pause-kvg-05b9c");var reset=document.getElementById("reset-kvg-05b9c");var timer;invoketimer();reset.onclick=function(){svg.setCurrentTime(0);timer.clear();svg.unpauseAnimations();pause.innerHTML = "◼";};pause.onclick=function(){if(svg.animationsPaused()){svg.unpauseAnimations();timer.resume();pause.innerHTML="◼"}else{svg.pauseAnimations();timer.pause();pause.innerHTML="▶"}}]]></script></svg>