<svg id="kvg-05bfe-Kaisho" class="kanjivg" width="106" height="126" xmlns="http://www.w3.org/2000/svg" xmlns:xlink="http://www.w3.org/1999/xlink" xml:space="preserve" version="1.1" baseProfile="full"><defs><style type="text/css"><![CDATA[path.black{fill:none;stroke:black;stroke-width:5;stroke-linecap:round;stroke-linejoin:round;}path.grey{fill:none;stroke:#ddd;stroke-width:5;stroke-linecap:round;stroke-linejoin:round;}path.stroke{fill:none;stroke:black;stroke-width:5;stroke-linecap:round;stroke-linejoin:round;}rect{fill:none;stroke:#555;stroke-width:2;} text{font-size:16px;font-family:Segoe UI Symbol,Cambria Math,DejaVu Sans,Symbola,Quivira,STIX,Code2000;-webkit-touch-callout:none;cursor:pointer;-webkit-user-select:none;-khtml-user-select:none;-moz-user-select:none;-ms-user-select:none;user-select: none;}text:hover{color:#777;}#reset{font-weight:bold;}]]></style><marker id="markerStart" markerWidth="8" markerHeight="8" style="overflow:visible;"><circle cx="0" cy="0" r="1.5" style="stroke:none;fill:red;fill-opacity:0.5;"/></marker><marker id="markerEnd" style="overflow:visible;"><circle cx="0" cy="0" r="0.8" style="stroke:none;fill:blue;fill-opacity:0.5;"><animate attributeName="opacity" from="1" to="0" dur="3s" repeatCount="indefinite" /></circle></marker></defs><rect x="4" y="4" width="100" height="100" /><path d="M27.75,15.5c4.79,2.12,11.55,10.31,12.63,14.49" class="grey" /><path d="M13.5,37.54c0.89,0.09,2.92,0.56,3.78,0.5c7.25-0.47,22.21-4.55,30.51-5.17c1.46-0.11,1.95-0.13,3.7-0.13" class="grey" /><path d="M41.59,40.81c0.35,1.04,0.67,1.78,0.17,3.7c-4.5,17.54-15.81,35.7-27.88,43.24" class="grey" /><path d="M21.71,53.26C31.75,59,42.57,71.84,47.75,80.5" class="grey" /><path d="M54.38,43.17c1.58,0.8,4.51,1.17,6.07,0.8C67.75,42.25,85,39,91.08,38.79c2.64-0.09,4.22-0.12,5.54,0.28" class="grey" /><path d="M78.27,13.83c0.98,0.67,2.17,2.99,2.26,6.02c0.4,14.55-0.02,64.66-0.26,69.62c-0.31,6.27-1.29,5.94-3.96,4c-1.99-1.45-2.56-2.22-4.75-3.75" class="grey" /><path d="M56.46,59.37c3.18,1.59,8.21,6.53,9,9" class="grey" /><path d="M27.75,15.5c4.79,2.12,11.55,10.31,12.63,14.49" class="stroke" stroke-dasharray="150"><animate attributeName="stroke-dashoffset" from="150" to="0" dur="1.8s" begin="0.0s" fill="freeze" /></path><path d="M13.5,37.54c0.89,0.09,2.92,0.56,3.78,0.5c7.25-0.47,22.21-4.55,30.51-5.17c1.46-0.11,1.95-0.13,3.7-0.13" class="stroke" stroke-dasharray="150"><set attributeName="opacity" to="0" dur="0.9s" /><animate attributeName="stroke-dashoffset" from="150" to="0" dur="1.8s" begin="0.9s" fill="freeze" /></path><path d="M41.59,40.81c0.35,1.04,0.67,1.78,0.17,3.7c-4.5,17.54-15.81,35.7-27.88,43.24" class="stroke" stroke-dasharray="150"><set attributeName="opacity" to="0" dur="1.9s" /><animate attributeName="stroke-dashoffset" from="150" to="0" dur="1.8s" begin="1.9s" fill="freeze" /></path><path d="M21.71,53.26C31.75,59,42.57,71.84,47.75,80.5" class="stroke" stroke-dasharray="150"><set attributeName="opacity" to="0" dur="3.3s" /><animate attributeName="stroke-dashoffset" from="150" to="0" dur="1.8s" begin="3.3s" fill="freeze" /></path><path d="M54.38,43.17c1.58,0.8,4.51,1.17,6.07,0.8C67.75,42.25,85,39,91.08,38.79c2.64-0.09,4.22-0.12,5.54,0.28" class="stroke" stroke-dasharray="150"><set attributeName="opacity" to="0" dur="4.3s" /><animate attributeName="stroke-dashoffset" from="150" to="0" dur="1.8s" begin="4.3s" fill="freeze" /></path><path d="M78.27,13.83c0.98,0.67,2.17,2.99,2.26,6.02c0.4,14.55-0.02,64.66-0.26,69.62c-0.31,6.27-1.29,5.94-3.96,4c-1.99-1.45-2.56-2.22-4.75-3.75" class="stroke" stroke-dasharray="150"><set attributeName="opacity" to="0" dur="5.4s" /><animate attributeName="stroke-dashoffset" from="150" to="0" dur="1.8s" begin="5.4s" fill="freeze" /></path><path d="M56.46,59.37c3.18,1.59,8.21,6.53,9,9" class="stroke" stroke-dasharray="150"><set attributeName="opacity" to="0" dur="7.2s" /><animate attributeName="stroke-dashoffset" from="150" to="0" dur="1.8s" begin="7.2s" fill="freeze" /></path><text x="90" y="120" id="reset-kvg-05bfe-Kaisho">⟳</text><text x="70" y="120" id="pause-kvg-05bfe-Kaisho">◼</text><script type="text/javascript"><![CDATA[function RecurringTimer(e,t){var n,r,i=t;this.pause=function(){window.clearTimeout(n);i-=new Date-r};var s=function(){r=new Date;n=window.setTimeout(function(){i=t;s();e()},i)};this.clear=function(){window.clearTimeout(n);i=t;n=window.setTimeout(function(){i=t;s();e()},i)};this.resume=s;this.resume()}function invoketimer(){timer=new RecurringTimer(function(){svg.setCurrentTime(0)},9100.0)}var svg=document.getElementById("kvg-05bfe-Kaisho");var pause=document.getElementById("pause-kvg-05bfe-Kaisho");var reset=document.getElementById("reset-kvg-05bfe-Kaisho");var timer;invoketimer();reset.onclick=function(){svg.setCurrentTime(0);timer.clear();svg.unpauseAnimations();pause.innerHTML = "◼";};pause.onclick=function(){if(svg.animationsPaused()){svg.unpauseAnimations();timer.resume();pause.innerHTML="◼"}else{svg.pauseAnimations();timer.pause();pause.innerHTML="▶"}}]]></script></svg>