<svg id="kvg-05c04" class="kanjivg" width="106" height="126" xmlns="http://www.w3.org/2000/svg" xmlns:xlink="http://www.w3.org/1999/xlink" xml:space="preserve" version="1.1" baseProfile="full"><defs><style type="text/css"><![CDATA[path.black{fill:none;stroke:black;stroke-width:5;stroke-linecap:round;stroke-linejoin:round;}path.grey{fill:none;stroke:#ddd;stroke-width:5;stroke-linecap:round;stroke-linejoin:round;}path.stroke{fill:none;stroke:black;stroke-width:5;stroke-linecap:round;stroke-linejoin:round;}rect{fill:none;stroke:#555;stroke-width:2;} text{font-size:16px;font-family:Segoe UI Symbol,Cambria Math,DejaVu Sans,Symbola,Quivira,STIX,Code2000;-webkit-touch-callout:none;cursor:pointer;-webkit-user-select:none;-khtml-user-select:none;-moz-user-select:none;-ms-user-select:none;user-select: none;}text:hover{color:#777;}#reset{font-weight:bold;}]]></style><marker id="markerStart" markerWidth="8" markerHeight="8" style="overflow:visible;"><circle cx="0" cy="0" r="1.5" style="stroke:none;fill:red;fill-opacity:0.5;"/></marker><marker id="markerEnd" style="overflow:visible;"><circle cx="0" cy="0" r="0.8" style="stroke:none;fill:blue;fill-opacity:0.5;"><animate attributeName="opacity" from="1" to="0" dur="3s" repeatCount="indefinite" /></circle></marker></defs><rect x="4" y="4" width="100" height="100" /><path d="M36.39,10.14c0.36,0.61,0.21,1.66,0.05,2.13c-1.19,3.48-3.69,9.1-7.06,14.19" class="grey" /><path d="M21.47,26.5c0.76,0.76,1.31,2.24,1.31,3.25c0,3.38-0.04,29.5-0.04,37.25" class="grey" /><path d="M23.78,28.59c3.5-0.84,15.96-3.34,18.83-3.36c2.41-0.02,2.99,1.02,2.99,4.02c0,12.39-0.19,49.81-0.19,60.93c0,10.33-4.41,5.33-6.77,2.07" class="grey" /><path d="M23.32,41.75c5.03-1,19.01-2.75,21.36-3" class="grey" /><path d="M23.82,53.5c6.18-1,13.68-2.25,20.85-2.75" class="grey" /><path d="M12.5,70.37c1.12,0.88,2.56,0.78,4.23,0.13c6.14-2.41,20.77-7.75,27.78-11" class="grey" /><path d="M54.74,45.75c0.26,1.25,0.07,2.37-1,4.12C46.5,61.62,26.38,82.38,11.28,91" class="grey" /><path d="M59.63,43.26c1.92,0.75,5.02,0.52,7.05,0.24c9.7-1.37,16.07-2.62,25.07-3.38c2.07-0.18,4.38-0.32,6.38,0.15" class="grey" /><path d="M84.17,13.83c1,1,1.46,2.79,1.46,4.77c0,20.4,0,68.91,0,73.87c0,12.03-6.39,2.91-8.59,0.5" class="grey" /><path d="M64.56,59.12c2.63,2.25,6.8,9.25,7.46,12.75" class="grey" /><path d="M36.39,10.14c0.36,0.61,0.21,1.66,0.05,2.13c-1.19,3.48-3.69,9.1-7.06,14.19" class="stroke" stroke-dasharray="150"><animate attributeName="stroke-dashoffset" from="150" to="0" dur="1.8s" begin="0.0s" fill="freeze" /></path><path d="M21.47,26.5c0.76,0.76,1.31,2.24,1.31,3.25c0,3.38-0.04,29.5-0.04,37.25" class="stroke" stroke-dasharray="150"><set attributeName="opacity" to="0" dur="0.9s" /><animate attributeName="stroke-dashoffset" from="150" to="0" dur="1.8s" begin="0.9s" fill="freeze" /></path><path d="M23.78,28.59c3.5-0.84,15.96-3.34,18.83-3.36c2.41-0.02,2.99,1.02,2.99,4.02c0,12.39-0.19,49.81-0.19,60.93c0,10.33-4.41,5.33-6.77,2.07" class="stroke" stroke-dasharray="150"><set attributeName="opacity" to="0" dur="2.0s" /><animate attributeName="stroke-dashoffset" from="150" to="0" dur="1.8s" begin="2.0s" fill="freeze" /></path><path d="M23.32,41.75c5.03-1,19.01-2.75,21.36-3" class="stroke" stroke-dasharray="150"><set attributeName="opacity" to="0" dur="3.8s" /><animate attributeName="stroke-dashoffset" from="150" to="0" dur="1.8s" begin="3.8s" fill="freeze" /></path><path d="M23.82,53.5c6.18-1,13.68-2.25,20.85-2.75" class="stroke" stroke-dasharray="150"><set attributeName="opacity" to="0" dur="4.8s" /><animate attributeName="stroke-dashoffset" from="150" to="0" dur="1.8s" begin="4.8s" fill="freeze" /></path><path d="M12.5,70.37c1.12,0.88,2.56,0.78,4.23,0.13c6.14-2.41,20.77-7.75,27.78-11" class="stroke" stroke-dasharray="150"><set attributeName="opacity" to="0" dur="5.8s" /><animate attributeName="stroke-dashoffset" from="150" to="0" dur="1.8s" begin="5.8s" fill="freeze" /></path><path d="M54.74,45.75c0.26,1.25,0.07,2.37-1,4.12C46.5,61.62,26.38,82.38,11.28,91" class="stroke" stroke-dasharray="150"><set attributeName="opacity" to="0" dur="6.8s" /><animate attributeName="stroke-dashoffset" from="150" to="0" dur="1.8s" begin="6.8s" fill="freeze" /></path><path d="M59.63,43.26c1.92,0.75,5.02,0.52,7.05,0.24c9.7-1.37,16.07-2.62,25.07-3.38c2.07-0.18,4.38-0.32,6.38,0.15" class="stroke" stroke-dasharray="150"><set attributeName="opacity" to="0" dur="8.3s" /><animate attributeName="stroke-dashoffset" from="150" to="0" dur="1.8s" begin="8.3s" fill="freeze" /></path><path d="M84.17,13.83c1,1,1.46,2.79,1.46,4.77c0,20.4,0,68.91,0,73.87c0,12.03-6.39,2.91-8.59,0.5" class="stroke" stroke-dasharray="150"><set attributeName="opacity" to="0" dur="9.3s" /><animate attributeName="stroke-dashoffset" from="150" to="0" dur="1.8s" begin="9.3s" fill="freeze" /></path><path d="M64.56,59.12c2.63,2.25,6.8,9.25,7.46,12.75" class="stroke" stroke-dasharray="150"><set attributeName="opacity" to="0" dur="11.100000000000001s" /><animate attributeName="stroke-dashoffset" from="150" to="0" dur="1.8s" begin="11.100000000000001s" fill="freeze" /></path><text x="90" y="120" id="reset-kvg-05c04">⟳</text><text x="70" y="120" id="pause-kvg-05c04">◼</text><script type="text/javascript"><![CDATA[function RecurringTimer(e,t){var n,r,i=t;this.pause=function(){window.clearTimeout(n);i-=new Date-r};var s=function(){r=new Date;n=window.setTimeout(function(){i=t;s();e()},i)};this.clear=function(){window.clearTimeout(n);i=t;n=window.setTimeout(function(){i=t;s();e()},i)};this.resume=s;this.resume()}function invoketimer(){timer=new RecurringTimer(function(){svg.setCurrentTime(0)},13000.000000000002)}var svg=document.getElementById("kvg-05c04");var pause=document.getElementById("pause-kvg-05c04");var reset=document.getElementById("reset-kvg-05c04");var timer;invoketimer();reset.onclick=function(){svg.setCurrentTime(0);timer.clear();svg.unpauseAnimations();pause.innerHTML = "◼";};pause.onclick=function(){if(svg.animationsPaused()){svg.unpauseAnimations();timer.resume();pause.innerHTML="◼"}else{svg.pauseAnimations();timer.pause();pause.innerHTML="▶"}}]]></script></svg>