<svg id="kvg-05c0b" class="kanjivg" width="106" height="126" xmlns="http://www.w3.org/2000/svg" xmlns:xlink="http://www.w3.org/1999/xlink" xml:space="preserve" version="1.1" baseProfile="full"><defs><style type="text/css"><![CDATA[path.black{fill:none;stroke:black;stroke-width:5;stroke-linecap:round;stroke-linejoin:round;}path.grey{fill:none;stroke:#ddd;stroke-width:5;stroke-linecap:round;stroke-linejoin:round;}path.stroke{fill:none;stroke:black;stroke-width:5;stroke-linecap:round;stroke-linejoin:round;}rect{fill:none;stroke:#555;stroke-width:2;} text{font-size:16px;font-family:Segoe UI Symbol,Cambria Math,DejaVu Sans,Symbola,Quivira,STIX,Code2000;-webkit-touch-callout:none;cursor:pointer;-webkit-user-select:none;-khtml-user-select:none;-moz-user-select:none;-ms-user-select:none;user-select: none;}text:hover{color:#777;}#reset{font-weight:bold;}]]></style><marker id="markerStart" markerWidth="8" markerHeight="8" style="overflow:visible;"><circle cx="0" cy="0" r="1.5" style="stroke:none;fill:red;fill-opacity:0.5;"/></marker><marker id="markerEnd" style="overflow:visible;"><circle cx="0" cy="0" r="0.8" style="stroke:none;fill:blue;fill-opacity:0.5;"><animate attributeName="opacity" from="1" to="0" dur="3s" repeatCount="indefinite" /></circle></marker></defs><rect x="4" y="4" width="100" height="100" /><path d="M32.13,13.59c2.74,0.66,5.54,0.65,8.48,0.42c11.43-0.9,25.39-2.33,32.9-3.01c2.75-0.25,4.18,1.56,3.76,3.69c-0.95,4.77-1.31,8-2.33,14.84c-0.17,1.16-0.36,2.41-0.58,3.8" class="grey" /><path d="M31.48,24.52c2.02,0.48,4.22,0.6,6.53,0.39c12.72-1.17,30.87-2.91,36.78-3.28" class="grey" /><path d="M30.41,35.75c2.18,0.27,4.15,0.48,6.34,0.26c12.62-1.26,26.75-2.89,36.2-3.56" class="grey" /><path d="M23.35,46.81c1.27,0.37,2.76,0.14,4.03,0.01c4.09-0.44,11.26-1.69,15.27-2.09c1.28-0.13,2.72-0.09,4,0.13" class="grey" /><path d="M34.01,47.5c0.81,0.81,1.03,1.5,1.03,2.73c0,1.52,0.03,5.77,0.03,7.53" class="grey" /><path d="M20.6,61.49c1.02,1.01,2.03,0.98,4.09,0.36c6.93-2.1,13.81-4.23,21.59-6.53" class="grey" /><path d="M55.25,43.34c0.84,0.37,1.37,1,1.57,1.89c0.79,2.04,1.36,5.23,1.93,8.27c0.25,1.31,0.49,2.59,0.75,3.75" class="grey" /><path d="M57.63,44.5c7.86-1.17,17.31-2.2,22.62-2.66c2.75-0.24,3.88,1.03,2.98,3.62c-0.97,2.79-1.48,4.54-2.32,6.97" class="grey" /><path d="M60.45,55.09c4.85-0.31,11.59-0.8,18.33-1.28c1.32-0.09,2.85-0.03,3.94-0.03" class="grey" /><path d="M14.13,71.73c3.37,1.02,7.84,0.82,11.26,0.39c19.81-2.53,43.57-4.46,60.63-5.59c3.34-0.22,7.13,0.01,10.36,0.99" class="grey" /><path d="M68.64,59.32c0.9,0.9,1.11,2.43,1.11,4.39c0,5.67,0.03,24.67,0.03,28.57c0,10.66-5.16,2.08-7.1,0.72" class="grey" /><path d="M39.75,77.62c2.41,1.71,6.22,7.04,6.82,9.7" class="grey" /><path d="M32.13,13.59c2.74,0.66,5.54,0.65,8.48,0.42c11.43-0.9,25.39-2.33,32.9-3.01c2.75-0.25,4.18,1.56,3.76,3.69c-0.95,4.77-1.31,8-2.33,14.84c-0.17,1.16-0.36,2.41-0.58,3.8" class="stroke" stroke-dasharray="150"><animate attributeName="stroke-dashoffset" from="150" to="0" dur="1.8s" begin="0.0s" fill="freeze" /></path><path d="M31.48,24.52c2.02,0.48,4.22,0.6,6.53,0.39c12.72-1.17,30.87-2.91,36.78-3.28" class="stroke" stroke-dasharray="150"><set attributeName="opacity" to="0" dur="1.5s" /><animate attributeName="stroke-dashoffset" from="150" to="0" dur="1.8s" begin="1.5s" fill="freeze" /></path><path d="M30.41,35.75c2.18,0.27,4.15,0.48,6.34,0.26c12.62-1.26,26.75-2.89,36.2-3.56" class="stroke" stroke-dasharray="150"><set attributeName="opacity" to="0" dur="2.6s" /><animate attributeName="stroke-dashoffset" from="150" to="0" dur="1.8s" begin="2.6s" fill="freeze" /></path><path d="M23.35,46.81c1.27,0.37,2.76,0.14,4.03,0.01c4.09-0.44,11.26-1.69,15.27-2.09c1.28-0.13,2.72-0.09,4,0.13" class="stroke" stroke-dasharray="150"><set attributeName="opacity" to="0" dur="3.7s" /><animate attributeName="stroke-dashoffset" from="150" to="0" dur="1.8s" begin="3.7s" fill="freeze" /></path><path d="M34.01,47.5c0.81,0.81,1.03,1.5,1.03,2.73c0,1.52,0.03,5.77,0.03,7.53" class="stroke" stroke-dasharray="150"><set attributeName="opacity" to="0" dur="4.7s" /><animate attributeName="stroke-dashoffset" from="150" to="0" dur="1.8s" begin="4.7s" fill="freeze" /></path><path d="M20.6,61.49c1.02,1.01,2.03,0.98,4.09,0.36c6.93-2.1,13.81-4.23,21.59-6.53" class="stroke" stroke-dasharray="150"><set attributeName="opacity" to="0" dur="5.6000000000000005s" /><animate attributeName="stroke-dashoffset" from="150" to="0" dur="1.8s" begin="5.6000000000000005s" fill="freeze" /></path><path d="M55.25,43.34c0.84,0.37,1.37,1,1.57,1.89c0.79,2.04,1.36,5.23,1.93,8.27c0.25,1.31,0.49,2.59,0.75,3.75" class="stroke" stroke-dasharray="150"><set attributeName="opacity" to="0" dur="6.6000000000000005s" /><animate attributeName="stroke-dashoffset" from="150" to="0" dur="1.8s" begin="6.6000000000000005s" fill="freeze" /></path><path d="M57.63,44.5c7.86-1.17,17.31-2.2,22.62-2.66c2.75-0.24,3.88,1.03,2.98,3.62c-0.97,2.79-1.48,4.54-2.32,6.97" class="stroke" stroke-dasharray="150"><set attributeName="opacity" to="0" dur="7.500000000000001s" /><animate attributeName="stroke-dashoffset" from="150" to="0" dur="1.8s" begin="7.500000000000001s" fill="freeze" /></path><path d="M60.45,55.09c4.85-0.31,11.59-0.8,18.33-1.28c1.32-0.09,2.85-0.03,3.94-0.03" class="stroke" stroke-dasharray="150"><set attributeName="opacity" to="0" dur="8.5s" /><animate attributeName="stroke-dashoffset" from="150" to="0" dur="1.8s" begin="8.5s" fill="freeze" /></path><path d="M14.13,71.73c3.37,1.02,7.84,0.82,11.26,0.39c19.81-2.53,43.57-4.46,60.63-5.59c3.34-0.22,7.13,0.01,10.36,0.99" class="stroke" stroke-dasharray="150"><set attributeName="opacity" to="0" dur="9.5s" /><animate attributeName="stroke-dashoffset" from="150" to="0" dur="1.8s" begin="9.5s" fill="freeze" /></path><path d="M68.64,59.32c0.9,0.9,1.11,2.43,1.11,4.39c0,5.67,0.03,24.67,0.03,28.57c0,10.66-5.16,2.08-7.1,0.72" class="stroke" stroke-dasharray="150"><set attributeName="opacity" to="0" dur="11.2s" /><animate attributeName="stroke-dashoffset" from="150" to="0" dur="1.8s" begin="11.2s" fill="freeze" /></path><path d="M39.75,77.62c2.41,1.71,6.22,7.04,6.82,9.7" class="stroke" stroke-dasharray="150"><set attributeName="opacity" to="0" dur="12.399999999999999s" /><animate attributeName="stroke-dashoffset" from="150" to="0" dur="1.8s" begin="12.399999999999999s" fill="freeze" /></path><text x="90" y="120" id="reset-kvg-05c0b">⟳</text><text x="70" y="120" id="pause-kvg-05c0b">◼</text><script type="text/javascript"><![CDATA[function RecurringTimer(e,t){var n,r,i=t;this.pause=function(){window.clearTimeout(n);i-=new Date-r};var s=function(){r=new Date;n=window.setTimeout(function(){i=t;s();e()},i)};this.clear=function(){window.clearTimeout(n);i=t;n=window.setTimeout(function(){i=t;s();e()},i)};this.resume=s;this.resume()}function invoketimer(){timer=new RecurringTimer(function(){svg.setCurrentTime(0)},14299.999999999998)}var svg=document.getElementById("kvg-05c0b");var pause=document.getElementById("pause-kvg-05c0b");var reset=document.getElementById("reset-kvg-05c0b");var timer;invoketimer();reset.onclick=function(){svg.setCurrentTime(0);timer.clear();svg.unpauseAnimations();pause.innerHTML = "◼";};pause.onclick=function(){if(svg.animationsPaused()){svg.unpauseAnimations();timer.resume();pause.innerHTML="◼"}else{svg.pauseAnimations();timer.pause();pause.innerHTML="▶"}}]]></script></svg>