<svg id="kvg-05c0b-Kaisho" class="kanjivg" width="106" height="126" xmlns="http://www.w3.org/2000/svg" xmlns:xlink="http://www.w3.org/1999/xlink" xml:space="preserve" version="1.1" baseProfile="full"><defs><style type="text/css"><![CDATA[path.black{fill:none;stroke:black;stroke-width:5;stroke-linecap:round;stroke-linejoin:round;}path.grey{fill:none;stroke:#ddd;stroke-width:5;stroke-linecap:round;stroke-linejoin:round;}path.stroke{fill:none;stroke:black;stroke-width:5;stroke-linecap:round;stroke-linejoin:round;}rect{fill:none;stroke:#555;stroke-width:2;} text{font-size:16px;font-family:Segoe UI Symbol,Cambria Math,DejaVu Sans,Symbola,Quivira,STIX,Code2000;-webkit-touch-callout:none;cursor:pointer;-webkit-user-select:none;-khtml-user-select:none;-moz-user-select:none;-ms-user-select:none;user-select: none;}text:hover{color:#777;}#reset{font-weight:bold;}]]></style><marker id="markerStart" markerWidth="8" markerHeight="8" style="overflow:visible;"><circle cx="0" cy="0" r="1.5" style="stroke:none;fill:red;fill-opacity:0.5;"/></marker><marker id="markerEnd" style="overflow:visible;"><circle cx="0" cy="0" r="0.8" style="stroke:none;fill:blue;fill-opacity:0.5;"><animate attributeName="opacity" from="1" to="0" dur="3s" repeatCount="indefinite" /></circle></marker></defs><rect x="4" y="4" width="100" height="100" /><path d="M32.13,13.84c2.13,0.21,3.15,0.57,5.11,0.43c11.92-0.85,28.01-2.52,36.27-3.27c2.75-0.25,4.18,1.56,3.76,3.69c-1.11,5.57-1.92,7.3-3.41,16.89" class="grey" /><path d="M31.23,25.02c1.52,0.17,2.71,0.49,4.4,0.34c12.2-1.12,15.65-1.69,25.89-2.41c2.12-0.15,4.21-0.26,6.27-0.32" class="grey" /><path d="M30.41,35.5c1.06,0.13,2.99,0.46,4.26,0.39c11.71-0.65,25.13-3.19,35.78-3.45c1.7-0.04,2.77,0,4.04,0.13" class="grey" /><path d="M22.35,46.81c0.6,0.18,1.78,0.21,2.37,0.17c3.81-0.31,14.36-1.83,18.6-2.12c0.99-0.07,2.07-0.08,2.57,0" class="grey" /><path d="M33.26,47c0.99,0.27,1.78,1.18,1.78,1.73c0,3.85,0.03,4.07,0.03,9.78" class="grey" /><path d="M20.6,62.24c0.68,0.51,2.05,0.78,4.09,0.11c5.68-1.86,15.91-5.18,21.59-7.03" class="grey" /><path d="M55.25,43.34c0.42,0.25,0.85,0.45,1.04,0.76c1.46,2.46,2.21,8.73,3.21,13.15" class="grey" /><path d="M57.38,44.5c8.62-1.28,19.12-2.7,24.06-3.02c1.8-0.12,2.89,0.7,2.63,1.39c-1.07,2.87-2.32,6.34-3.91,10.31" class="grey" /><path d="M59.7,55.09c5.8-0.37,14.3-1,22.27-1.56" class="grey" /><path d="M13.38,71.98c1.55,0.78,4.36,0.88,5.93,0.78c18.69-1.26,52.03-5.32,70.91-6.5c2.57-0.16,4.12,0.37,5.41,0.76" class="grey" /><path d="M68.64,59.82c0.08,0.42,1.11,2.2,1.11,4.89c0,18.07-0.22,23.18-0.22,27.57c0,10.66-5.16,2.08-7.1,0.72" class="grey" /><path d="M39.5,77.62c2.41,1.71,6.22,7.04,6.82,9.7" class="grey" /><path d="M32.13,13.84c2.13,0.21,3.15,0.57,5.11,0.43c11.92-0.85,28.01-2.52,36.27-3.27c2.75-0.25,4.18,1.56,3.76,3.69c-1.11,5.57-1.92,7.3-3.41,16.89" class="stroke" stroke-dasharray="150"><animate attributeName="stroke-dashoffset" from="150" to="0" dur="1.8s" begin="0.0s" fill="freeze" /></path><path d="M31.23,25.02c1.52,0.17,2.71,0.49,4.4,0.34c12.2-1.12,15.65-1.69,25.89-2.41c2.12-0.15,4.21-0.26,6.27-0.32" class="stroke" stroke-dasharray="150"><set attributeName="opacity" to="0" dur="1.5s" /><animate attributeName="stroke-dashoffset" from="150" to="0" dur="1.8s" begin="1.5s" fill="freeze" /></path><path d="M30.41,35.5c1.06,0.13,2.99,0.46,4.26,0.39c11.71-0.65,25.13-3.19,35.78-3.45c1.7-0.04,2.77,0,4.04,0.13" class="stroke" stroke-dasharray="150"><set attributeName="opacity" to="0" dur="2.5s" /><animate attributeName="stroke-dashoffset" from="150" to="0" dur="1.8s" begin="2.5s" fill="freeze" /></path><path d="M22.35,46.81c0.6,0.18,1.78,0.21,2.37,0.17c3.81-0.31,14.36-1.83,18.6-2.12c0.99-0.07,2.07-0.08,2.57,0" class="stroke" stroke-dasharray="150"><set attributeName="opacity" to="0" dur="3.6s" /><animate attributeName="stroke-dashoffset" from="150" to="0" dur="1.8s" begin="3.6s" fill="freeze" /></path><path d="M33.26,47c0.99,0.27,1.78,1.18,1.78,1.73c0,3.85,0.03,4.07,0.03,9.78" class="stroke" stroke-dasharray="150"><set attributeName="opacity" to="0" dur="4.6s" /><animate attributeName="stroke-dashoffset" from="150" to="0" dur="1.8s" begin="4.6s" fill="freeze" /></path><path d="M20.6,62.24c0.68,0.51,2.05,0.78,4.09,0.11c5.68-1.86,15.91-5.18,21.59-7.03" class="stroke" stroke-dasharray="150"><set attributeName="opacity" to="0" dur="5.5s" /><animate attributeName="stroke-dashoffset" from="150" to="0" dur="1.8s" begin="5.5s" fill="freeze" /></path><path d="M55.25,43.34c0.42,0.25,0.85,0.45,1.04,0.76c1.46,2.46,2.21,8.73,3.21,13.15" class="stroke" stroke-dasharray="150"><set attributeName="opacity" to="0" dur="6.5s" /><animate attributeName="stroke-dashoffset" from="150" to="0" dur="1.8s" begin="6.5s" fill="freeze" /></path><path d="M57.38,44.5c8.62-1.28,19.12-2.7,24.06-3.02c1.8-0.12,2.89,0.7,2.63,1.39c-1.07,2.87-2.32,6.34-3.91,10.31" class="stroke" stroke-dasharray="150"><set attributeName="opacity" to="0" dur="7.4s" /><animate attributeName="stroke-dashoffset" from="150" to="0" dur="1.8s" begin="7.4s" fill="freeze" /></path><path d="M59.7,55.09c5.8-0.37,14.3-1,22.27-1.56" class="stroke" stroke-dasharray="150"><set attributeName="opacity" to="0" dur="8.4s" /><animate attributeName="stroke-dashoffset" from="150" to="0" dur="1.8s" begin="8.4s" fill="freeze" /></path><path d="M13.38,71.98c1.55,0.78,4.36,0.88,5.93,0.78c18.69-1.26,52.03-5.32,70.91-6.5c2.57-0.16,4.12,0.37,5.41,0.76" class="stroke" stroke-dasharray="150"><set attributeName="opacity" to="0" dur="9.4s" /><animate attributeName="stroke-dashoffset" from="150" to="0" dur="1.8s" begin="9.4s" fill="freeze" /></path><path d="M68.64,59.82c0.08,0.42,1.11,2.2,1.11,4.89c0,18.07-0.22,23.18-0.22,27.57c0,10.66-5.16,2.08-7.1,0.72" class="stroke" stroke-dasharray="150"><set attributeName="opacity" to="0" dur="11.1s" /><animate attributeName="stroke-dashoffset" from="150" to="0" dur="1.8s" begin="11.1s" fill="freeze" /></path><path d="M39.5,77.62c2.41,1.71,6.22,7.04,6.82,9.7" class="stroke" stroke-dasharray="150"><set attributeName="opacity" to="0" dur="12.299999999999999s" /><animate attributeName="stroke-dashoffset" from="150" to="0" dur="1.8s" begin="12.299999999999999s" fill="freeze" /></path><text x="90" y="120" id="reset-kvg-05c0b-Kaisho">⟳</text><text x="70" y="120" id="pause-kvg-05c0b-Kaisho">◼</text><script type="text/javascript"><![CDATA[function RecurringTimer(e,t){var n,r,i=t;this.pause=function(){window.clearTimeout(n);i-=new Date-r};var s=function(){r=new Date;n=window.setTimeout(function(){i=t;s();e()},i)};this.clear=function(){window.clearTimeout(n);i=t;n=window.setTimeout(function(){i=t;s();e()},i)};this.resume=s;this.resume()}function invoketimer(){timer=new RecurringTimer(function(){svg.setCurrentTime(0)},14200.0)}var svg=document.getElementById("kvg-05c0b-Kaisho");var pause=document.getElementById("pause-kvg-05c0b-Kaisho");var reset=document.getElementById("reset-kvg-05c0b-Kaisho");var timer;invoketimer();reset.onclick=function(){svg.setCurrentTime(0);timer.clear();svg.unpauseAnimations();pause.innerHTML = "◼";};pause.onclick=function(){if(svg.animationsPaused()){svg.unpauseAnimations();timer.resume();pause.innerHTML="◼"}else{svg.pauseAnimations();timer.pause();pause.innerHTML="▶"}}]]></script></svg>