<svg id="kvg-05d90" class="kanjivg" width="106" height="126" xmlns="http://www.w3.org/2000/svg" xmlns:xlink="http://www.w3.org/1999/xlink" xml:space="preserve" version="1.1" baseProfile="full"><defs><style type="text/css"><![CDATA[path.black{fill:none;stroke:black;stroke-width:5;stroke-linecap:round;stroke-linejoin:round;}path.grey{fill:none;stroke:#ddd;stroke-width:5;stroke-linecap:round;stroke-linejoin:round;}path.stroke{fill:none;stroke:black;stroke-width:5;stroke-linecap:round;stroke-linejoin:round;}rect{fill:none;stroke:#555;stroke-width:2;} text{font-size:16px;font-family:Segoe UI Symbol,Cambria Math,DejaVu Sans,Symbola,Quivira,STIX,Code2000;-webkit-touch-callout:none;cursor:pointer;-webkit-user-select:none;-khtml-user-select:none;-moz-user-select:none;-ms-user-select:none;user-select: none;}text:hover{color:#777;}#reset{font-weight:bold;}]]></style><marker id="markerStart" markerWidth="8" markerHeight="8" style="overflow:visible;"><circle cx="0" cy="0" r="1.5" style="stroke:none;fill:red;fill-opacity:0.5;"/></marker><marker id="markerEnd" style="overflow:visible;"><circle cx="0" cy="0" r="0.8" style="stroke:none;fill:blue;fill-opacity:0.5;"><animate attributeName="opacity" from="1" to="0" dur="3s" repeatCount="indefinite" /></circle></marker></defs><rect x="4" y="4" width="100" height="100" /><path d="M52.68,9.38c0.61,0.33,1.9,2.48,2.02,3.15c0.12,0.66-0.08,9.08-0.2,13.23" class="grey" /><path d="M26.57,16.75c0.61,0.33,1.22,1.73,1.22,2.41c0,2.59,0.09,3.84-1.32,7.76c-0.52,1.45,0.9,2.59,2.3,2.28c5.37-1.2,47.2-5.92,52.67-6.05" class="grey" /><path d="M82.17,12.62c0.61,0.33,1.32,2.48,1.22,3.15c-0.6,4.07-0.79,7.23-1.76,11.19" class="grey" /><path d="M19.87,43.87c6.11-0.96,12.61-2.9,15.51-3.86c2.89-0.96,4.79,1.46,3.5,3.7c-1.29,2.24-7.75,13.12-10,16.33" class="grey" /><path d="M28.87,60.51C42.5,69.5,40,94.5,27.1,85.48" class="grey" /><path d="M18.14,42.03c1.05,0.48,1.68,2.16,1.89,3.12c0.21,0.96,0,49.1-0.21,55.1" class="grey" /><path d="M56.67,33.25c0.04,0.48,0.08,1.25-0.08,1.94c-0.93,4.08-6.24,13.05-13.51,18.53" class="grey" /><path d="M56.22,41.67c0.27,0.02,1.74,0.23,2.52,0.17c3.47-0.29,13.17-2.3,16.81-3.04c2.5-0.51,3.21,0.58,2.57,1.97c-3.5,7.58-21.16,19.14-36.78,23.04" class="grey" /><path d="M52.68,43.26c5.07,2.98,28.05,14.32,34.89,17.04c2.04,0.81,3.69,1.21,5.67,1.45" class="grey" /><path d="M53.04,64.02c0.61,0.16,1.73,0.19,2.34,0.16c4.4-0.23,16.6-1.41,20.4-1.65c1.01-0.06,1.44-0.04,1.97-0.01" class="grey" /><path d="M53.19,69.31c0.03,0.38,0.06,0.97-0.06,1.51C52.42,74,48.31,80.99,42.68,85.27" class="grey" /><path d="M53.86,76.41c0.69,0.2,1.97,0.24,2.66,0.2c5.01-0.29,21.97-2.65,26.29-2.96c1.15-0.08,1.63-0.05,2.24-0.01" class="grey" /><path d="M65.65,67.54c0.49,0.23,1.54,1.75,1.64,2.22c0.1,0.47-0.06,22.55-0.16,25.47" class="grey" /><path d="M50.04,86.02c0.64,0.16,1.81,0.19,2.46,0.16c4.62-0.23,24.21-2.41,28.19-2.65c1.06-0.06,1.5-0.04,2.07-0.01" class="grey" /><path d="M39.15,97.39c1.13,0.16,3.21,0.82,4.33,0.66c10.52-1.55,39.9-3.92,46.93-4.16c1.87-0.06,3.45,0.13,5.19,0.52" class="grey" /><path d="M52.68,9.38c0.61,0.33,1.9,2.48,2.02,3.15c0.12,0.66-0.08,9.08-0.2,13.23" class="stroke" stroke-dasharray="150"><animate attributeName="stroke-dashoffset" from="150" to="0" dur="1.8s" begin="0.0s" fill="freeze" /></path><path d="M26.57,16.75c0.61,0.33,1.22,1.73,1.22,2.41c0,2.59,0.09,3.84-1.32,7.76c-0.52,1.45,0.9,2.59,2.3,2.28c5.37-1.2,47.2-5.92,52.67-6.05" class="stroke" stroke-dasharray="150"><set attributeName="opacity" to="0" dur="0.9s" /><animate attributeName="stroke-dashoffset" from="150" to="0" dur="1.8s" begin="0.9s" fill="freeze" /></path><path d="M82.17,12.62c0.61,0.33,1.32,2.48,1.22,3.15c-0.6,4.07-0.79,7.23-1.76,11.19" class="stroke" stroke-dasharray="150"><set attributeName="opacity" to="0" dur="2.4s" /><animate attributeName="stroke-dashoffset" from="150" to="0" dur="1.8s" begin="2.4s" fill="freeze" /></path><path d="M19.87,43.87c6.11-0.96,12.61-2.9,15.51-3.86c2.89-0.96,4.79,1.46,3.5,3.7c-1.29,2.24-7.75,13.12-10,16.33" class="stroke" stroke-dasharray="150"><set attributeName="opacity" to="0" dur="3.3s" /><animate attributeName="stroke-dashoffset" from="150" to="0" dur="1.8s" begin="3.3s" fill="freeze" /></path><path d="M28.87,60.51C42.5,69.5,40,94.5,27.1,85.48" class="stroke" stroke-dasharray="150"><set attributeName="opacity" to="0" dur="4.4s" /><animate attributeName="stroke-dashoffset" from="150" to="0" dur="1.8s" begin="4.4s" fill="freeze" /></path><path d="M18.14,42.03c1.05,0.48,1.68,2.16,1.89,3.12c0.21,0.96,0,49.1-0.21,55.1" class="stroke" stroke-dasharray="150"><set attributeName="opacity" to="0" dur="5.4s" /><animate attributeName="stroke-dashoffset" from="150" to="0" dur="1.8s" begin="5.4s" fill="freeze" /></path><path d="M56.67,33.25c0.04,0.48,0.08,1.25-0.08,1.94c-0.93,4.08-6.24,13.05-13.51,18.53" class="stroke" stroke-dasharray="150"><set attributeName="opacity" to="0" dur="6.800000000000001s" /><animate attributeName="stroke-dashoffset" from="150" to="0" dur="1.8s" begin="6.800000000000001s" fill="freeze" /></path><path d="M56.22,41.67c0.27,0.02,1.74,0.23,2.52,0.17c3.47-0.29,13.17-2.3,16.81-3.04c2.5-0.51,3.21,0.58,2.57,1.97c-3.5,7.58-21.16,19.14-36.78,23.04" class="stroke" stroke-dasharray="150"><set attributeName="opacity" to="0" dur="7.800000000000001s" /><animate attributeName="stroke-dashoffset" from="150" to="0" dur="1.8s" begin="7.800000000000001s" fill="freeze" /></path><path d="M52.68,43.26c5.07,2.98,28.05,14.32,34.89,17.04c2.04,0.81,3.69,1.21,5.67,1.45" class="stroke" stroke-dasharray="150"><set attributeName="opacity" to="0" dur="9.3s" /><animate attributeName="stroke-dashoffset" from="150" to="0" dur="1.8s" begin="9.3s" fill="freeze" /></path><path d="M53.04,64.02c0.61,0.16,1.73,0.19,2.34,0.16c4.4-0.23,16.6-1.41,20.4-1.65c1.01-0.06,1.44-0.04,1.97-0.01" class="stroke" stroke-dasharray="150"><set attributeName="opacity" to="0" dur="10.4s" /><animate attributeName="stroke-dashoffset" from="150" to="0" dur="1.8s" begin="10.4s" fill="freeze" /></path><path d="M53.19,69.31c0.03,0.38,0.06,0.97-0.06,1.51C52.42,74,48.31,80.99,42.68,85.27" class="stroke" stroke-dasharray="150"><set attributeName="opacity" to="0" dur="11.4s" /><animate attributeName="stroke-dashoffset" from="150" to="0" dur="1.8s" begin="11.4s" fill="freeze" /></path><path d="M53.86,76.41c0.69,0.2,1.97,0.24,2.66,0.2c5.01-0.29,21.97-2.65,26.29-2.96c1.15-0.08,1.63-0.05,2.24-0.01" class="stroke" stroke-dasharray="150"><set attributeName="opacity" to="0" dur="12.3s" /><animate attributeName="stroke-dashoffset" from="150" to="0" dur="1.8s" begin="12.3s" fill="freeze" /></path><path d="M65.65,67.54c0.49,0.23,1.54,1.75,1.64,2.22c0.1,0.47-0.06,22.55-0.16,25.47" class="stroke" stroke-dasharray="150"><set attributeName="opacity" to="0" dur="13.3s" /><animate attributeName="stroke-dashoffset" from="150" to="0" dur="1.8s" begin="13.3s" fill="freeze" /></path><path d="M50.04,86.02c0.64,0.16,1.81,0.19,2.46,0.16c4.62-0.23,24.21-2.41,28.19-2.65c1.06-0.06,1.5-0.04,2.07-0.01" class="stroke" stroke-dasharray="150"><set attributeName="opacity" to="0" dur="14.3s" /><animate attributeName="stroke-dashoffset" from="150" to="0" dur="1.8s" begin="14.3s" fill="freeze" /></path><path d="M39.15,97.39c1.13,0.16,3.21,0.82,4.33,0.66c10.52-1.55,39.9-3.92,46.93-4.16c1.87-0.06,3.45,0.13,5.19,0.52" class="stroke" stroke-dasharray="150"><set attributeName="opacity" to="0" dur="15.3s" /><animate attributeName="stroke-dashoffset" from="150" to="0" dur="1.8s" begin="15.3s" fill="freeze" /></path><text x="90" y="120" id="reset-kvg-05d90">⟳</text><text x="70" y="120" id="pause-kvg-05d90">◼</text><script type="text/javascript"><![CDATA[function RecurringTimer(e,t){var n,r,i=t;this.pause=function(){window.clearTimeout(n);i-=new Date-r};var s=function(){r=new Date;n=window.setTimeout(function(){i=t;s();e()},i)};this.clear=function(){window.clearTimeout(n);i=t;n=window.setTimeout(function(){i=t;s();e()},i)};this.resume=s;this.resume()}function invoketimer(){timer=new RecurringTimer(function(){svg.setCurrentTime(0)},17700.0)}var svg=document.getElementById("kvg-05d90");var pause=document.getElementById("pause-kvg-05d90");var reset=document.getElementById("reset-kvg-05d90");var timer;invoketimer();reset.onclick=function(){svg.setCurrentTime(0);timer.clear();svg.unpauseAnimations();pause.innerHTML = "◼";};pause.onclick=function(){if(svg.animationsPaused()){svg.unpauseAnimations();timer.resume();pause.innerHTML="◼"}else{svg.pauseAnimations();timer.pause();pause.innerHTML="▶"}}]]></script></svg>