<svg id="kvg-05dde" class="kanjivg" width="106" height="126" xmlns="http://www.w3.org/2000/svg" xmlns:xlink="http://www.w3.org/1999/xlink" xml:space="preserve" version="1.1" baseProfile="full"><defs><style type="text/css"><![CDATA[path.black{fill:none;stroke:black;stroke-width:5;stroke-linecap:round;stroke-linejoin:round;}path.grey{fill:none;stroke:#ddd;stroke-width:5;stroke-linecap:round;stroke-linejoin:round;}path.stroke{fill:none;stroke:black;stroke-width:5;stroke-linecap:round;stroke-linejoin:round;}rect{fill:none;stroke:#555;stroke-width:2;} text{font-size:16px;font-family:Segoe UI Symbol,Cambria Math,DejaVu Sans,Symbola,Quivira,STIX,Code2000;-webkit-touch-callout:none;cursor:pointer;-webkit-user-select:none;-khtml-user-select:none;-moz-user-select:none;-ms-user-select:none;user-select: none;}text:hover{color:#777;}#reset{font-weight:bold;}]]></style><marker id="markerStart" markerWidth="8" markerHeight="8" style="overflow:visible;"><circle cx="0" cy="0" r="1.5" style="stroke:none;fill:red;fill-opacity:0.5;"/></marker><marker id="markerEnd" style="overflow:visible;"><circle cx="0" cy="0" r="0.8" style="stroke:none;fill:blue;fill-opacity:0.5;"><animate attributeName="opacity" from="1" to="0" dur="3s" repeatCount="indefinite" /></circle></marker></defs><rect x="4" y="4" width="100" height="100" /><path d="M20,42.75c-0.02,5.98-1.27,10.26-5.69,15.13" class="grey" /><path d="M29.24,20.93c1.11,1.11,1.6,2.82,1.62,4.89C31.38,71.75,26,79,13.56,90.49" class="grey" /><path d="M41.38,43.62c2.39,2.13,6.17,8.77,6.77,12.09" class="grey" /><path d="M56,17.88c1.12,1.12,1.66,2.87,1.66,4.15c0,0.6-0.04,40.61-0.1,56.84c-0.01,3.38-0.03,5.74-0.04,6.51" class="grey" /><path d="M68.75,42c2.96,2.42,7.65,9.95,8.39,13.72" class="grey" /><path d="M87.31,17.13c1.28,1.28,2.01,2.87,2.01,5c0,3.28-0.07,48.91-0.18,66.49c-0.02,3.17-0.04,5.4-0.07,6.26" class="grey" /><path d="M20,42.75c-0.02,5.98-1.27,10.26-5.69,15.13" class="stroke" stroke-dasharray="150"><animate attributeName="stroke-dashoffset" from="150" to="0" dur="1.8s" begin="0.0s" fill="freeze" /></path><path d="M29.24,20.93c1.11,1.11,1.6,2.82,1.62,4.89C31.38,71.75,26,79,13.56,90.49" class="stroke" stroke-dasharray="150"><set attributeName="opacity" to="0" dur="0.9s" /><animate attributeName="stroke-dashoffset" from="150" to="0" dur="1.8s" begin="0.9s" fill="freeze" /></path><path d="M41.38,43.62c2.39,2.13,6.17,8.77,6.77,12.09" class="stroke" stroke-dasharray="150"><set attributeName="opacity" to="0" dur="2.6s" /><animate attributeName="stroke-dashoffset" from="150" to="0" dur="1.8s" begin="2.6s" fill="freeze" /></path><path d="M56,17.88c1.12,1.12,1.66,2.87,1.66,4.15c0,0.6-0.04,40.61-0.1,56.84c-0.01,3.38-0.03,5.74-0.04,6.51" class="stroke" stroke-dasharray="150"><set attributeName="opacity" to="0" dur="3.5s" /><animate attributeName="stroke-dashoffset" from="150" to="0" dur="1.8s" begin="3.5s" fill="freeze" /></path><path d="M68.75,42c2.96,2.42,7.65,9.95,8.39,13.72" class="stroke" stroke-dasharray="150"><set attributeName="opacity" to="0" dur="5.0s" /><animate attributeName="stroke-dashoffset" from="150" to="0" dur="1.8s" begin="5.0s" fill="freeze" /></path><path d="M87.31,17.13c1.28,1.28,2.01,2.87,2.01,5c0,3.28-0.07,48.91-0.18,66.49c-0.02,3.17-0.04,5.4-0.07,6.26" class="stroke" stroke-dasharray="150"><set attributeName="opacity" to="0" dur="5.9s" /><animate attributeName="stroke-dashoffset" from="150" to="0" dur="1.8s" begin="5.9s" fill="freeze" /></path><text x="90" y="120" id="reset-kvg-05dde">⟳</text><text x="70" y="120" id="pause-kvg-05dde">◼</text><script type="text/javascript"><![CDATA[function RecurringTimer(e,t){var n,r,i=t;this.pause=function(){window.clearTimeout(n);i-=new Date-r};var s=function(){r=new Date;n=window.setTimeout(function(){i=t;s();e()},i)};this.clear=function(){window.clearTimeout(n);i=t;n=window.setTimeout(function(){i=t;s();e()},i)};this.resume=s;this.resume()}function invoketimer(){timer=new RecurringTimer(function(){svg.setCurrentTime(0)},8600.0)}var svg=document.getElementById("kvg-05dde");var pause=document.getElementById("pause-kvg-05dde");var reset=document.getElementById("reset-kvg-05dde");var timer;invoketimer();reset.onclick=function(){svg.setCurrentTime(0);timer.clear();svg.unpauseAnimations();pause.innerHTML = "◼";};pause.onclick=function(){if(svg.animationsPaused()){svg.unpauseAnimations();timer.resume();pause.innerHTML="◼"}else{svg.pauseAnimations();timer.pause();pause.innerHTML="▶"}}]]></script></svg>