<svg id="kvg-05dee-VtLst" class="kanjivg" width="106" height="126" xmlns="http://www.w3.org/2000/svg" xmlns:xlink="http://www.w3.org/1999/xlink" xml:space="preserve" version="1.1" baseProfile="full"><defs><style type="text/css"><![CDATA[path.black{fill:none;stroke:black;stroke-width:5;stroke-linecap:round;stroke-linejoin:round;}path.grey{fill:none;stroke:#ddd;stroke-width:5;stroke-linecap:round;stroke-linejoin:round;}path.stroke{fill:none;stroke:black;stroke-width:5;stroke-linecap:round;stroke-linejoin:round;}rect{fill:none;stroke:#555;stroke-width:2;} text{font-size:16px;font-family:Segoe UI Symbol,Cambria Math,DejaVu Sans,Symbola,Quivira,STIX,Code2000;-webkit-touch-callout:none;cursor:pointer;-webkit-user-select:none;-khtml-user-select:none;-moz-user-select:none;-ms-user-select:none;user-select: none;}text:hover{color:#777;}#reset{font-weight:bold;}]]></style><marker id="markerStart" markerWidth="8" markerHeight="8" style="overflow:visible;"><circle cx="0" cy="0" r="1.5" style="stroke:none;fill:red;fill-opacity:0.5;"/></marker><marker id="markerEnd" style="overflow:visible;"><circle cx="0" cy="0" r="0.8" style="stroke:none;fill:blue;fill-opacity:0.5;"><animate attributeName="opacity" from="1" to="0" dur="3s" repeatCount="indefinite" /></circle></marker></defs><rect x="4" y="4" width="100" height="100" /><path d="M36.45,14.83c3.33,1.96,8.6,8.07,9.43,11.12" class="grey" /><path d="M69.56,11.52c0.03,0.42,0.05,1.09-0.05,1.69c-0.63,3.57-4.25,11.4-9.22,16.19" class="grey" /><path d="M30.88,33.18c0.81,0.34,2.3,0.41,3.11,0.34c6.48-0.52,33.86-3.31,41.17-3.18c1.35,0.02,2.16,0.16,2.84,0.33" class="grey" /><path d="M33.34,45.22c0.81,0.34,2.29,0.38,3.11,0.34c6.71-0.31,26.02-3.81,35.22-3.96c1.35-0.02,2.16,0.16,2.84,0.33" class="grey" /><path d="M19.48,57.87c1.31,0.48,3.71,0.55,5.02,0.48C31.78,58,72.09,54,85.87,53.69c2.18-0.05,3.5,0.23,4.59,0.47" class="grey" /><path d="M53.07,32.43c1.08,0.45,1.73,2.01,1.94,2.9s0.5,13.86,0.28,19.43" class="grey" /><path d="M40.21,59.52c0.08,0.82,0.35,2.22-0.16,3.29c-3.39,7.13-11.46,19.87-25.49,30.84" class="grey" /><path d="M43.28,71.86c0.78,0.45,3.34,0.6,4.13,0.46c3.69-0.61,20.99-3.15,27.19-3.62c1.21-0.09,2.31,0.09,3.31,0.47" class="grey" /><path d="M60.03,72.54c0.83,1.09,0.83,1.75,0.83,2.62c0,6.11,0,12.3-0.21,18.41" class="grey" /><path d="M33.25,96.32c0.76,0.28,3.06,0.18,4.34,0c13.02-1.79,34.24-3.07,46.84-3.48c2.07-0.07,4.55,0.46,5.58,0.9" class="grey" /><path d="M36.45,14.83c3.33,1.96,8.6,8.07,9.43,11.12" class="stroke" stroke-dasharray="150"><animate attributeName="stroke-dashoffset" from="150" to="0" dur="1.8s" begin="0.0s" fill="freeze" /></path><path d="M69.56,11.52c0.03,0.42,0.05,1.09-0.05,1.69c-0.63,3.57-4.25,11.4-9.22,16.19" class="stroke" stroke-dasharray="150"><set attributeName="opacity" to="0" dur="0.9s" /><animate attributeName="stroke-dashoffset" from="150" to="0" dur="1.8s" begin="0.9s" fill="freeze" /></path><path d="M30.88,33.18c0.81,0.34,2.3,0.41,3.11,0.34c6.48-0.52,33.86-3.31,41.17-3.18c1.35,0.02,2.16,0.16,2.84,0.33" class="stroke" stroke-dasharray="150"><set attributeName="opacity" to="0" dur="1.9s" /><animate attributeName="stroke-dashoffset" from="150" to="0" dur="1.8s" begin="1.9s" fill="freeze" /></path><path d="M33.34,45.22c0.81,0.34,2.29,0.38,3.11,0.34c6.71-0.31,26.02-3.81,35.22-3.96c1.35-0.02,2.16,0.16,2.84,0.33" class="stroke" stroke-dasharray="150"><set attributeName="opacity" to="0" dur="3.0999999999999996s" /><animate attributeName="stroke-dashoffset" from="150" to="0" dur="1.8s" begin="3.0999999999999996s" fill="freeze" /></path><path d="M19.48,57.87c1.31,0.48,3.71,0.55,5.02,0.48C31.78,58,72.09,54,85.87,53.69c2.18-0.05,3.5,0.23,4.59,0.47" class="stroke" stroke-dasharray="150"><set attributeName="opacity" to="0" dur="4.199999999999999s" /><animate attributeName="stroke-dashoffset" from="150" to="0" dur="1.8s" begin="4.199999999999999s" fill="freeze" /></path><path d="M53.07,32.43c1.08,0.45,1.73,2.01,1.94,2.9s0.5,13.86,0.28,19.43" class="stroke" stroke-dasharray="150"><set attributeName="opacity" to="0" dur="5.8999999999999995s" /><animate attributeName="stroke-dashoffset" from="150" to="0" dur="1.8s" begin="5.8999999999999995s" fill="freeze" /></path><path d="M40.21,59.52c0.08,0.82,0.35,2.22-0.16,3.29c-3.39,7.13-11.46,19.87-25.49,30.84" class="stroke" stroke-dasharray="150"><set attributeName="opacity" to="0" dur="6.8999999999999995s" /><animate attributeName="stroke-dashoffset" from="150" to="0" dur="1.8s" begin="6.8999999999999995s" fill="freeze" /></path><path d="M43.28,71.86c0.78,0.45,3.34,0.6,4.13,0.46c3.69-0.61,20.99-3.15,27.19-3.62c1.21-0.09,2.31,0.09,3.31,0.47" class="stroke" stroke-dasharray="150"><set attributeName="opacity" to="0" dur="8.0s" /><animate attributeName="stroke-dashoffset" from="150" to="0" dur="1.8s" begin="8.0s" fill="freeze" /></path><path d="M60.03,72.54c0.83,1.09,0.83,1.75,0.83,2.62c0,6.11,0,12.3-0.21,18.41" class="stroke" stroke-dasharray="150"><set attributeName="opacity" to="0" dur="9.0s" /><animate attributeName="stroke-dashoffset" from="150" to="0" dur="1.8s" begin="9.0s" fill="freeze" /></path><path d="M33.25,96.32c0.76,0.28,3.06,0.18,4.34,0c13.02-1.79,34.24-3.07,46.84-3.48c2.07-0.07,4.55,0.46,5.58,0.9" class="stroke" stroke-dasharray="150"><set attributeName="opacity" to="0" dur="10.0s" /><animate attributeName="stroke-dashoffset" from="150" to="0" dur="1.8s" begin="10.0s" fill="freeze" /></path><text x="90" y="120" id="reset-kvg-05dee-VtLst">⟳</text><text x="70" y="120" id="pause-kvg-05dee-VtLst">◼</text><script type="text/javascript"><![CDATA[function RecurringTimer(e,t){var n,r,i=t;this.pause=function(){window.clearTimeout(n);i-=new Date-r};var s=function(){r=new Date;n=window.setTimeout(function(){i=t;s();e()},i)};this.clear=function(){window.clearTimeout(n);i=t;n=window.setTimeout(function(){i=t;s();e()},i)};this.resume=s;this.resume()}function invoketimer(){timer=new RecurringTimer(function(){svg.setCurrentTime(0)},12400.0)}var svg=document.getElementById("kvg-05dee-VtLst");var pause=document.getElementById("pause-kvg-05dee-VtLst");var reset=document.getElementById("reset-kvg-05dee-VtLst");var timer;invoketimer();reset.onclick=function(){svg.setCurrentTime(0);timer.clear();svg.unpauseAnimations();pause.innerHTML = "◼";};pause.onclick=function(){if(svg.animationsPaused()){svg.unpauseAnimations();timer.resume();pause.innerHTML="◼"}else{svg.pauseAnimations();timer.pause();pause.innerHTML="▶"}}]]></script></svg>