<svg id="kvg-05deb" class="kanjivg" width="106" height="126" xmlns="http://www.w3.org/2000/svg" xmlns:xlink="http://www.w3.org/1999/xlink" xml:space="preserve" version="1.1" baseProfile="full"><defs><style type="text/css"><![CDATA[path.black{fill:none;stroke:black;stroke-width:5;stroke-linecap:round;stroke-linejoin:round;}path.grey{fill:none;stroke:#ddd;stroke-width:5;stroke-linecap:round;stroke-linejoin:round;}path.stroke{fill:none;stroke:black;stroke-width:5;stroke-linecap:round;stroke-linejoin:round;}rect{fill:none;stroke:#555;stroke-width:2;} text{font-size:16px;font-family:Segoe UI Symbol,Cambria Math,DejaVu Sans,Symbola,Quivira,STIX,Code2000;-webkit-touch-callout:none;cursor:pointer;-webkit-user-select:none;-khtml-user-select:none;-moz-user-select:none;-ms-user-select:none;user-select: none;}text:hover{color:#777;}#reset{font-weight:bold;}]]></style><marker id="markerStart" markerWidth="8" markerHeight="8" style="overflow:visible;"><circle cx="0" cy="0" r="1.5" style="stroke:none;fill:red;fill-opacity:0.5;"/></marker><marker id="markerEnd" style="overflow:visible;"><circle cx="0" cy="0" r="0.8" style="stroke:none;fill:blue;fill-opacity:0.5;"><animate attributeName="opacity" from="1" to="0" dur="3s" repeatCount="indefinite" /></circle></marker></defs><rect x="4" y="4" width="100" height="100" /><path d="M24.75,26.6c1.06,0.4,4.53,0.53,5.6,0.41c5-0.54,42.01-3.64,50.41-4.06c1.64-0.08,3.13,0.08,4.49,0.41" class="grey" /><path d="M52.12,26.25c2.27,2.83,2.27,4.53,2.27,6.8c0,15.86-0.07,24.01-0.07,51.2" class="grey" /><path d="M34.75,40.74C35,41.5,34.94,43.16,34.59,44C31.25,52.25,26,63,15.72,70.88" class="grey" /><path d="M31.89,54.36c4.56,2.26,10.39,8.28,12.61,13.98" class="grey" /><path d="M78.26,37.74c0.24,0.77,0.18,2.45-0.15,3.31c-3.17,8.39-8.15,19.31-17.89,27.32" class="grey" /><path d="M75.39,52.36c5.65,2.51,12.86,9.17,15.61,15.48" class="grey" /><path d="M16,86.21c0.96,0.22,4.39,0.45,6.01,0.35c17.5-1.09,52.25-3.71,68.19-4.04c2.61-0.05,5.75,0.37,7.05,0.72" class="grey" /><path d="M24.75,26.6c1.06,0.4,4.53,0.53,5.6,0.41c5-0.54,42.01-3.64,50.41-4.06c1.64-0.08,3.13,0.08,4.49,0.41" class="stroke" stroke-dasharray="150"><animate attributeName="stroke-dashoffset" from="150" to="0" dur="1.8s" begin="0.0s" fill="freeze" /></path><path d="M52.12,26.25c2.27,2.83,2.27,4.53,2.27,6.8c0,15.86-0.07,24.01-0.07,51.2" class="stroke" stroke-dasharray="150"><set attributeName="opacity" to="0" dur="1.5s" /><animate attributeName="stroke-dashoffset" from="150" to="0" dur="1.8s" begin="1.5s" fill="freeze" /></path><path d="M34.75,40.74C35,41.5,34.94,43.16,34.59,44C31.25,52.25,26,63,15.72,70.88" class="stroke" stroke-dasharray="150"><set attributeName="opacity" to="0" dur="2.9s" /><animate attributeName="stroke-dashoffset" from="150" to="0" dur="1.8s" begin="2.9s" fill="freeze" /></path><path d="M31.89,54.36c4.56,2.26,10.39,8.28,12.61,13.98" class="stroke" stroke-dasharray="150"><set attributeName="opacity" to="0" dur="3.9s" /><animate attributeName="stroke-dashoffset" from="150" to="0" dur="1.8s" begin="3.9s" fill="freeze" /></path><path d="M78.26,37.74c0.24,0.77,0.18,2.45-0.15,3.31c-3.17,8.39-8.15,19.31-17.89,27.32" class="stroke" stroke-dasharray="150"><set attributeName="opacity" to="0" dur="4.8s" /><animate attributeName="stroke-dashoffset" from="150" to="0" dur="1.8s" begin="4.8s" fill="freeze" /></path><path d="M75.39,52.36c5.65,2.51,12.86,9.17,15.61,15.48" class="stroke" stroke-dasharray="150"><set attributeName="opacity" to="0" dur="5.8s" /><animate attributeName="stroke-dashoffset" from="150" to="0" dur="1.8s" begin="5.8s" fill="freeze" /></path><path d="M16,86.21c0.96,0.22,4.39,0.45,6.01,0.35c17.5-1.09,52.25-3.71,68.19-4.04c2.61-0.05,5.75,0.37,7.05,0.72" class="stroke" stroke-dasharray="150"><set attributeName="opacity" to="0" dur="6.8s" /><animate attributeName="stroke-dashoffset" from="150" to="0" dur="1.8s" begin="6.8s" fill="freeze" /></path><text x="90" y="120" id="reset-kvg-05deb">⟳</text><text x="70" y="120" id="pause-kvg-05deb">◼</text><script type="text/javascript"><![CDATA[function RecurringTimer(e,t){var n,r,i=t;this.pause=function(){window.clearTimeout(n);i-=new Date-r};var s=function(){r=new Date;n=window.setTimeout(function(){i=t;s();e()},i)};this.clear=function(){window.clearTimeout(n);i=t;n=window.setTimeout(function(){i=t;s();e()},i)};this.resume=s;this.resume()}function invoketimer(){timer=new RecurringTimer(function(){svg.setCurrentTime(0)},9500.0)}var svg=document.getElementById("kvg-05deb");var pause=document.getElementById("pause-kvg-05deb");var reset=document.getElementById("reset-kvg-05deb");var timer;invoketimer();reset.onclick=function(){svg.setCurrentTime(0);timer.clear();svg.unpauseAnimations();pause.innerHTML = "◼";};pause.onclick=function(){if(svg.animationsPaused()){svg.unpauseAnimations();timer.resume();pause.innerHTML="◼"}else{svg.pauseAnimations();timer.pause();pause.innerHTML="▶"}}]]></script></svg>