<svg id="kvg-05e7c" class="kanjivg" width="106" height="126" xmlns="http://www.w3.org/2000/svg" xmlns:xlink="http://www.w3.org/1999/xlink" xml:space="preserve" version="1.1" baseProfile="full"><defs><style type="text/css"><![CDATA[path.black{fill:none;stroke:black;stroke-width:5;stroke-linecap:round;stroke-linejoin:round;}path.grey{fill:none;stroke:#ddd;stroke-width:5;stroke-linecap:round;stroke-linejoin:round;}path.stroke{fill:none;stroke:black;stroke-width:5;stroke-linecap:round;stroke-linejoin:round;}rect{fill:none;stroke:#555;stroke-width:2;} text{font-size:16px;font-family:Segoe UI Symbol,Cambria Math,DejaVu Sans,Symbola,Quivira,STIX,Code2000;-webkit-touch-callout:none;cursor:pointer;-webkit-user-select:none;-khtml-user-select:none;-moz-user-select:none;-ms-user-select:none;user-select: none;}text:hover{color:#777;}#reset{font-weight:bold;}]]></style><marker id="markerStart" markerWidth="8" markerHeight="8" style="overflow:visible;"><circle cx="0" cy="0" r="1.5" style="stroke:none;fill:red;fill-opacity:0.5;"/></marker><marker id="markerEnd" style="overflow:visible;"><circle cx="0" cy="0" r="0.8" style="stroke:none;fill:blue;fill-opacity:0.5;"><animate attributeName="opacity" from="1" to="0" dur="3s" repeatCount="indefinite" /></circle></marker></defs><rect x="4" y="4" width="100" height="100" /><path d="M31.89,20.62c0.38,1.43,0.58,2.48-0.19,4.06c-3.82,7.82-7.82,14.82-11.98,20.84c-0.61,0.88-0.44,2.52,0.32,2.79c4.04,1.43,6.59,2.56,12.39,6.87" class="grey" /><path d="M44.73,32.5c0.4,1.5,0.27,2.88-0.57,4.47C38.1,48.49,28.6,63.75,19.89,75.85C17.62,79,18.5,81,22.41,79.2C30.23,75.61,36.75,72,46.75,68" class="grey" /><path d="M41.92,59.9c3.13,2.68,8.08,11.01,8.86,15.17" class="grey" /><path d="M54.15,42.34c2.35,1.04,5.08,0.97,7.62,0.52c9.79-1.76,22.78-4.41,28.12-5.29c3.75-0.62,5.17,1.33,4.97,5c-0.38,6.95-5.43,29.26-10.53,39.78c-4.2,8.65-8.45,6.78-12.23,2.51" class="grey" /><path d="M74.09,17.68c0.66,0.95,0.91,2.2,0.84,4.29C74.27,41,66.25,76.25,45.04,92.05" class="grey" /><path d="M31.89,20.62c0.38,1.43,0.58,2.48-0.19,4.06c-3.82,7.82-7.82,14.82-11.98,20.84c-0.61,0.88-0.44,2.52,0.32,2.79c4.04,1.43,6.59,2.56,12.39,6.87" class="stroke" stroke-dasharray="150"><animate attributeName="stroke-dashoffset" from="150" to="0" dur="1.8s" begin="0.0s" fill="freeze" /></path><path d="M44.73,32.5c0.4,1.5,0.27,2.88-0.57,4.47C38.1,48.49,28.6,63.75,19.89,75.85C17.62,79,18.5,81,22.41,79.2C30.23,75.61,36.75,72,46.75,68" class="stroke" stroke-dasharray="150"><set attributeName="opacity" to="0" dur="1.2s" /><animate attributeName="stroke-dashoffset" from="150" to="0" dur="1.8s" begin="1.2s" fill="freeze" /></path><path d="M41.92,59.9c3.13,2.68,8.08,11.01,8.86,15.17" class="stroke" stroke-dasharray="150"><set attributeName="opacity" to="0" dur="2.9s" /><animate attributeName="stroke-dashoffset" from="150" to="0" dur="1.8s" begin="2.9s" fill="freeze" /></path><path d="M54.15,42.34c2.35,1.04,5.08,0.97,7.62,0.52c9.79-1.76,22.78-4.41,28.12-5.29c3.75-0.62,5.17,1.33,4.97,5c-0.38,6.95-5.43,29.26-10.53,39.78c-4.2,8.65-8.45,6.78-12.23,2.51" class="stroke" stroke-dasharray="150"><set attributeName="opacity" to="0" dur="3.8s" /><animate attributeName="stroke-dashoffset" from="150" to="0" dur="1.8s" begin="3.8s" fill="freeze" /></path><path d="M74.09,17.68c0.66,0.95,0.91,2.2,0.84,4.29C74.27,41,66.25,76.25,45.04,92.05" class="stroke" stroke-dasharray="150"><set attributeName="opacity" to="0" dur="5.699999999999999s" /><animate attributeName="stroke-dashoffset" from="150" to="0" dur="1.8s" begin="5.699999999999999s" fill="freeze" /></path><text x="90" y="120" id="reset-kvg-05e7c">⟳</text><text x="70" y="120" id="pause-kvg-05e7c">◼</text><script type="text/javascript"><![CDATA[function RecurringTimer(e,t){var n,r,i=t;this.pause=function(){window.clearTimeout(n);i-=new Date-r};var s=function(){r=new Date;n=window.setTimeout(function(){i=t;s();e()},i)};this.clear=function(){window.clearTimeout(n);i=t;n=window.setTimeout(function(){i=t;s();e()},i)};this.resume=s;this.resume()}function invoketimer(){timer=new RecurringTimer(function(){svg.setCurrentTime(0)},8400.0)}var svg=document.getElementById("kvg-05e7c");var pause=document.getElementById("pause-kvg-05e7c");var reset=document.getElementById("reset-kvg-05e7c");var timer;invoketimer();reset.onclick=function(){svg.setCurrentTime(0);timer.clear();svg.unpauseAnimations();pause.innerHTML = "◼";};pause.onclick=function(){if(svg.animationsPaused()){svg.unpauseAnimations();timer.resume();pause.innerHTML="◼"}else{svg.pauseAnimations();timer.pause();pause.innerHTML="▶"}}]]></script></svg>