<svg id="kvg-05e8a-Kaisho" class="kanjivg" width="106" height="126" xmlns="http://www.w3.org/2000/svg" xmlns:xlink="http://www.w3.org/1999/xlink" xml:space="preserve" version="1.1" baseProfile="full"><defs><style type="text/css"><![CDATA[path.black{fill:none;stroke:black;stroke-width:5;stroke-linecap:round;stroke-linejoin:round;}path.grey{fill:none;stroke:#ddd;stroke-width:5;stroke-linecap:round;stroke-linejoin:round;}path.stroke{fill:none;stroke:black;stroke-width:5;stroke-linecap:round;stroke-linejoin:round;}rect{fill:none;stroke:#555;stroke-width:2;} text{font-size:16px;font-family:Segoe UI Symbol,Cambria Math,DejaVu Sans,Symbola,Quivira,STIX,Code2000;-webkit-touch-callout:none;cursor:pointer;-webkit-user-select:none;-khtml-user-select:none;-moz-user-select:none;-ms-user-select:none;user-select: none;}text:hover{color:#777;}#reset{font-weight:bold;}]]></style><marker id="markerStart" markerWidth="8" markerHeight="8" style="overflow:visible;"><circle cx="0" cy="0" r="1.5" style="stroke:none;fill:red;fill-opacity:0.5;"/></marker><marker id="markerEnd" style="overflow:visible;"><circle cx="0" cy="0" r="0.8" style="stroke:none;fill:blue;fill-opacity:0.5;"><animate attributeName="opacity" from="1" to="0" dur="3s" repeatCount="indefinite" /></circle></marker></defs><rect x="4" y="4" width="100" height="100" /><path d="M48.35,10.63c2.24,0.88,6.98,6.55,7.42,8.3" class="grey" /><path d="M19.13,27.23c1.52,0.54,4.3,0.63,5.82,0.54c15.8-0.91,34.3-5.52,54.11-5.73c2.53-0.03,4.05,0.26,5.31,0.53" class="grey" /><path d="M24,29c0.04,1.36,0.09,3.5-0.08,5.45c-1.02,11.5-3.33,39.38-14.35,51.77" class="grey" /><path d="M30.5,50.23c1.42,0.46,3.04,0.61,4.67,0.46c8.32-0.76,29.98-4.4,42.57-5.29c1.62-0.11,2.64,0.08,4.26,0.41" class="grey" /><path d="M53.75,32.75C55,33.25,56,35.47,56,36.5c0,10.5-0.25,48.75-0.25,55c0,12-5.12,3.88-7.5,1.5" class="grey" /><path d="M55.75,48C49.54,60.36,32.91,79.25,20,86.25" class="grey" /><path d="M57,49c4.88,4.16,27.81,25.03,33.12,29.12c1.8,1.39,3.34,1.98,5.13,2.38" class="grey" /><path d="M48.35,10.63c2.24,0.88,6.98,6.55,7.42,8.3" class="stroke" stroke-dasharray="150"><animate attributeName="stroke-dashoffset" from="150" to="0" dur="1.8s" begin="0.0s" fill="freeze" /></path><path d="M19.13,27.23c1.52,0.54,4.3,0.63,5.82,0.54c15.8-0.91,34.3-5.52,54.11-5.73c2.53-0.03,4.05,0.26,5.31,0.53" class="stroke" stroke-dasharray="150"><set attributeName="opacity" to="0" dur="0.9s" /><animate attributeName="stroke-dashoffset" from="150" to="0" dur="1.8s" begin="0.9s" fill="freeze" /></path><path d="M24,29c0.04,1.36,0.09,3.5-0.08,5.45c-1.02,11.5-3.33,39.38-14.35,51.77" class="stroke" stroke-dasharray="150"><set attributeName="opacity" to="0" dur="2.4s" /><animate attributeName="stroke-dashoffset" from="150" to="0" dur="1.8s" begin="2.4s" fill="freeze" /></path><path d="M30.5,50.23c1.42,0.46,3.04,0.61,4.67,0.46c8.32-0.76,29.98-4.4,42.57-5.29c1.62-0.11,2.64,0.08,4.26,0.41" class="stroke" stroke-dasharray="150"><set attributeName="opacity" to="0" dur="3.8s" /><animate attributeName="stroke-dashoffset" from="150" to="0" dur="1.8s" begin="3.8s" fill="freeze" /></path><path d="M53.75,32.75C55,33.25,56,35.47,56,36.5c0,10.5-0.25,48.75-0.25,55c0,12-5.12,3.88-7.5,1.5" class="stroke" stroke-dasharray="150"><set attributeName="opacity" to="0" dur="5.1s" /><animate attributeName="stroke-dashoffset" from="150" to="0" dur="1.8s" begin="5.1s" fill="freeze" /></path><path d="M55.75,48C49.54,60.36,32.91,79.25,20,86.25" class="stroke" stroke-dasharray="150"><set attributeName="opacity" to="0" dur="6.8s" /><animate attributeName="stroke-dashoffset" from="150" to="0" dur="1.8s" begin="6.8s" fill="freeze" /></path><path d="M57,49c4.88,4.16,27.81,25.03,33.12,29.12c1.8,1.39,3.34,1.98,5.13,2.38" class="stroke" stroke-dasharray="150"><set attributeName="opacity" to="0" dur="8.1s" /><animate attributeName="stroke-dashoffset" from="150" to="0" dur="1.8s" begin="8.1s" fill="freeze" /></path><text x="90" y="120" id="reset-kvg-05e8a-Kaisho">⟳</text><text x="70" y="120" id="pause-kvg-05e8a-Kaisho">◼</text><script type="text/javascript"><![CDATA[function RecurringTimer(e,t){var n,r,i=t;this.pause=function(){window.clearTimeout(n);i-=new Date-r};var s=function(){r=new Date;n=window.setTimeout(function(){i=t;s();e()},i)};this.clear=function(){window.clearTimeout(n);i=t;n=window.setTimeout(function(){i=t;s();e()},i)};this.resume=s;this.resume()}function invoketimer(){timer=new RecurringTimer(function(){svg.setCurrentTime(0)},10299.999999999998)}var svg=document.getElementById("kvg-05e8a-Kaisho");var pause=document.getElementById("pause-kvg-05e8a-Kaisho");var reset=document.getElementById("reset-kvg-05e8a-Kaisho");var timer;invoketimer();reset.onclick=function(){svg.setCurrentTime(0);timer.clear();svg.unpauseAnimations();pause.innerHTML = "◼";};pause.onclick=function(){if(svg.animationsPaused()){svg.unpauseAnimations();timer.resume();pause.innerHTML="◼"}else{svg.pauseAnimations();timer.pause();pause.innerHTML="▶"}}]]></script></svg>