<svg id="kvg-05eb6-Kaisho" class="kanjivg" width="106" height="126" xmlns="http://www.w3.org/2000/svg" xmlns:xlink="http://www.w3.org/1999/xlink" xml:space="preserve" version="1.1" baseProfile="full"><defs><style type="text/css"><![CDATA[path.black{fill:none;stroke:black;stroke-width:5;stroke-linecap:round;stroke-linejoin:round;}path.grey{fill:none;stroke:#ddd;stroke-width:5;stroke-linecap:round;stroke-linejoin:round;}path.stroke{fill:none;stroke:black;stroke-width:5;stroke-linecap:round;stroke-linejoin:round;}rect{fill:none;stroke:#555;stroke-width:2;} text{font-size:16px;font-family:Segoe UI Symbol,Cambria Math,DejaVu Sans,Symbola,Quivira,STIX,Code2000;-webkit-touch-callout:none;cursor:pointer;-webkit-user-select:none;-khtml-user-select:none;-moz-user-select:none;-ms-user-select:none;user-select: none;}text:hover{color:#777;}#reset{font-weight:bold;}]]></style><marker id="markerStart" markerWidth="8" markerHeight="8" style="overflow:visible;"><circle cx="0" cy="0" r="1.5" style="stroke:none;fill:red;fill-opacity:0.5;"/></marker><marker id="markerEnd" style="overflow:visible;"><circle cx="0" cy="0" r="0.8" style="stroke:none;fill:blue;fill-opacity:0.5;"><animate attributeName="opacity" from="1" to="0" dur="3s" repeatCount="indefinite" /></circle></marker></defs><rect x="4" y="4" width="100" height="100" /><path d="M52.38,12.13c2.37,0.93,7.4,6.95,7.87,8.8" class="grey" /><path d="M23.13,28.23c1.52,0.54,4.3,0.63,5.82,0.54c15.8-0.91,36.3-3.52,56.61-4.23c2.53-0.09,4.05,0.26,5.31,0.53" class="grey" /><path d="M26.99,30c0.05,1.4,0.1,3.61-0.09,5.62c-1.15,11.85-3.73,40.59-16.09,53.35" class="grey" /><path d="M33.25,49.66c1.59,0.7,4.5,0.86,6.08,0.7C50.75,49.25,75,46,84.95,45.38c2.64-0.16,4.23,0.34,5.55,0.69" class="grey" /><path d="M46.75,35.75C48,36.25,48.75,38,49,39s0.5,25.75,0.25,32" class="grey" /><path d="M69.25,33.75c1.25,0.5,2,2.25,2.25,3.25s-1,18.25-1.75,27.5" class="grey" /><path d="M49.75,68.75c4.75,0,17.98-1.78,22.25-2" class="grey" /><path d="M33.94,79.25c0,6.06-5.1,15.02-6.44,16.75" class="grey" /><path d="M47.68,78.33c2,3.18,3.9,11.93,4.4,16.88" class="grey" /><path d="M64.5,77.58c2.2,2.8,5.69,11.52,6.24,15.88" class="grey" /><path d="M82.68,76.33c3.84,2.93,9.92,12.07,10.88,16.63" class="grey" /><path d="M52.38,12.13c2.37,0.93,7.4,6.95,7.87,8.8" class="stroke" stroke-dasharray="150"><animate attributeName="stroke-dashoffset" from="150" to="0" dur="1.8s" begin="0.0s" fill="freeze" /></path><path d="M23.13,28.23c1.52,0.54,4.3,0.63,5.82,0.54c15.8-0.91,36.3-3.52,56.61-4.23c2.53-0.09,4.05,0.26,5.31,0.53" class="stroke" stroke-dasharray="150"><set attributeName="opacity" to="0" dur="0.9s" /><animate attributeName="stroke-dashoffset" from="150" to="0" dur="1.8s" begin="0.9s" fill="freeze" /></path><path d="M26.99,30c0.05,1.4,0.1,3.61-0.09,5.62c-1.15,11.85-3.73,40.59-16.09,53.35" class="stroke" stroke-dasharray="150"><set attributeName="opacity" to="0" dur="2.4s" /><animate attributeName="stroke-dashoffset" from="150" to="0" dur="1.8s" begin="2.4s" fill="freeze" /></path><path d="M33.25,49.66c1.59,0.7,4.5,0.86,6.08,0.7C50.75,49.25,75,46,84.95,45.38c2.64-0.16,4.23,0.34,5.55,0.69" class="stroke" stroke-dasharray="150"><set attributeName="opacity" to="0" dur="3.9s" /><animate attributeName="stroke-dashoffset" from="150" to="0" dur="1.8s" begin="3.9s" fill="freeze" /></path><path d="M46.75,35.75C48,36.25,48.75,38,49,39s0.5,25.75,0.25,32" class="stroke" stroke-dasharray="150"><set attributeName="opacity" to="0" dur="5.3s" /><animate attributeName="stroke-dashoffset" from="150" to="0" dur="1.8s" begin="5.3s" fill="freeze" /></path><path d="M69.25,33.75c1.25,0.5,2,2.25,2.25,3.25s-1,18.25-1.75,27.5" class="stroke" stroke-dasharray="150"><set attributeName="opacity" to="0" dur="6.3s" /><animate attributeName="stroke-dashoffset" from="150" to="0" dur="1.8s" begin="6.3s" fill="freeze" /></path><path d="M49.75,68.75c4.75,0,17.98-1.78,22.25-2" class="stroke" stroke-dasharray="150"><set attributeName="opacity" to="0" dur="7.3s" /><animate attributeName="stroke-dashoffset" from="150" to="0" dur="1.8s" begin="7.3s" fill="freeze" /></path><path d="M33.94,79.25c0,6.06-5.1,15.02-6.44,16.75" class="stroke" stroke-dasharray="150"><set attributeName="opacity" to="0" dur="8.3s" /><animate attributeName="stroke-dashoffset" from="150" to="0" dur="1.8s" begin="8.3s" fill="freeze" /></path><path d="M47.68,78.33c2,3.18,3.9,11.93,4.4,16.88" class="stroke" stroke-dasharray="150"><set attributeName="opacity" to="0" dur="9.200000000000001s" /><animate attributeName="stroke-dashoffset" from="150" to="0" dur="1.8s" begin="9.200000000000001s" fill="freeze" /></path><path d="M64.5,77.58c2.2,2.8,5.69,11.52,6.24,15.88" class="stroke" stroke-dasharray="150"><set attributeName="opacity" to="0" dur="10.100000000000001s" /><animate attributeName="stroke-dashoffset" from="150" to="0" dur="1.8s" begin="10.100000000000001s" fill="freeze" /></path><path d="M82.68,76.33c3.84,2.93,9.92,12.07,10.88,16.63" class="stroke" stroke-dasharray="150"><set attributeName="opacity" to="0" dur="11.000000000000002s" /><animate attributeName="stroke-dashoffset" from="150" to="0" dur="1.8s" begin="11.000000000000002s" fill="freeze" /></path><text x="90" y="120" id="reset-kvg-05eb6-Kaisho">⟳</text><text x="70" y="120" id="pause-kvg-05eb6-Kaisho">◼</text><script type="text/javascript"><![CDATA[function RecurringTimer(e,t){var n,r,i=t;this.pause=function(){window.clearTimeout(n);i-=new Date-r};var s=function(){r=new Date;n=window.setTimeout(function(){i=t;s();e()},i)};this.clear=function(){window.clearTimeout(n);i=t;n=window.setTimeout(function(){i=t;s();e()},i)};this.resume=s;this.resume()}function invoketimer(){timer=new RecurringTimer(function(){svg.setCurrentTime(0)},13000.000000000002)}var svg=document.getElementById("kvg-05eb6-Kaisho");var pause=document.getElementById("pause-kvg-05eb6-Kaisho");var reset=document.getElementById("reset-kvg-05eb6-Kaisho");var timer;invoketimer();reset.onclick=function(){svg.setCurrentTime(0);timer.clear();svg.unpauseAnimations();pause.innerHTML = "◼";};pause.onclick=function(){if(svg.animationsPaused()){svg.unpauseAnimations();timer.resume();pause.innerHTML="◼"}else{svg.pauseAnimations();timer.pause();pause.innerHTML="▶"}}]]></script></svg>