<svg id="kvg-05f18" class="kanjivg" width="106" height="126" xmlns="http://www.w3.org/2000/svg" xmlns:xlink="http://www.w3.org/1999/xlink" xml:space="preserve" version="1.1" baseProfile="full"><defs><style type="text/css"><![CDATA[path.black{fill:none;stroke:black;stroke-width:5;stroke-linecap:round;stroke-linejoin:round;}path.grey{fill:none;stroke:#ddd;stroke-width:5;stroke-linecap:round;stroke-linejoin:round;}path.stroke{fill:none;stroke:black;stroke-width:5;stroke-linecap:round;stroke-linejoin:round;}rect{fill:none;stroke:#555;stroke-width:2;} text{font-size:16px;font-family:Segoe UI Symbol,Cambria Math,DejaVu Sans,Symbola,Quivira,STIX,Code2000;-webkit-touch-callout:none;cursor:pointer;-webkit-user-select:none;-khtml-user-select:none;-moz-user-select:none;-ms-user-select:none;user-select: none;}text:hover{color:#777;}#reset{font-weight:bold;}]]></style><marker id="markerStart" markerWidth="8" markerHeight="8" style="overflow:visible;"><circle cx="0" cy="0" r="1.5" style="stroke:none;fill:red;fill-opacity:0.5;"/></marker><marker id="markerEnd" style="overflow:visible;"><circle cx="0" cy="0" r="0.8" style="stroke:none;fill:blue;fill-opacity:0.5;"><animate attributeName="opacity" from="1" to="0" dur="3s" repeatCount="indefinite" /></circle></marker></defs><rect x="4" y="4" width="100" height="100" /><path d="M23.25,18.84c1.5,1.03,3.74,1.11,5.63,0.89c6.38-0.72,14.64-2.51,18.09-2.89c2.5-0.27,3.45,1.59,2.49,3.64c-0.67,1.44-3.52,10.63-3.71,11.51" class="grey" /><path d="M23.5,34.5c1.25,0.62,3.41,0.6,5.04,0.38c4.88-0.67,13.23-1.78,14.55-1.88c1.66-0.12,3.51-0.25,4.91-0.25" class="grey" /><path d="M24.38,35.43c0.37,1.07,0.24,2.19-0.39,3.83c-0.65,1.66-4.88,10.77-5.24,11.68c-1,2.56-0.49,3.92,2.75,3.06c4.75-1.25,15.5-4,20.71-4.94c2.96-0.53,4.35,1.92,3.54,4.69C42.38,65.25,38,78.88,29.75,89c-4.02,4.94-6.12,1.5-7.94-1.42" class="grey" /><path d="M70.82,21c0.3,1.5,0.01,2.79-0.48,4.29C64,44.75,57,62.38,49.54,79.12c-1.98,4.43-0.77,4.49,2.55,3.54c6.98-2,21.67-5.41,32.48-8.02" class="grey" /><path d="M76.35,59.99c5.42,4.94,14.01,20.3,15.37,27.98" class="grey" /><path d="M23.25,18.84c1.5,1.03,3.74,1.11,5.63,0.89c6.38-0.72,14.64-2.51,18.09-2.89c2.5-0.27,3.45,1.59,2.49,3.64c-0.67,1.44-3.52,10.63-3.71,11.51" class="stroke" stroke-dasharray="150"><animate attributeName="stroke-dashoffset" from="150" to="0" dur="1.8s" begin="0.0s" fill="freeze" /></path><path d="M23.5,34.5c1.25,0.62,3.41,0.6,5.04,0.38c4.88-0.67,13.23-1.78,14.55-1.88c1.66-0.12,3.51-0.25,4.91-0.25" class="stroke" stroke-dasharray="150"><set attributeName="opacity" to="0" dur="1.1s" /><animate attributeName="stroke-dashoffset" from="150" to="0" dur="1.8s" begin="1.1s" fill="freeze" /></path><path d="M24.38,35.43c0.37,1.07,0.24,2.19-0.39,3.83c-0.65,1.66-4.88,10.77-5.24,11.68c-1,2.56-0.49,3.92,2.75,3.06c4.75-1.25,15.5-4,20.71-4.94c2.96-0.53,4.35,1.92,3.54,4.69C42.38,65.25,38,78.88,29.75,89c-4.02,4.94-6.12,1.5-7.94-1.42" class="stroke" stroke-dasharray="150"><set attributeName="opacity" to="0" dur="2.1s" /><animate attributeName="stroke-dashoffset" from="150" to="0" dur="1.8s" begin="2.1s" fill="freeze" /></path><path d="M70.82,21c0.3,1.5,0.01,2.79-0.48,4.29C64,44.75,57,62.38,49.54,79.12c-1.98,4.43-0.77,4.49,2.55,3.54c6.98-2,21.67-5.41,32.48-8.02" class="stroke" stroke-dasharray="150"><set attributeName="opacity" to="0" dur="4.0s" /><animate attributeName="stroke-dashoffset" from="150" to="0" dur="1.8s" begin="4.0s" fill="freeze" /></path><path d="M76.35,59.99c5.42,4.94,14.01,20.3,15.37,27.98" class="stroke" stroke-dasharray="150"><set attributeName="opacity" to="0" dur="5.9s" /><animate attributeName="stroke-dashoffset" from="150" to="0" dur="1.8s" begin="5.9s" fill="freeze" /></path><text x="90" y="120" id="reset-kvg-05f18">⟳</text><text x="70" y="120" id="pause-kvg-05f18">◼</text><script type="text/javascript"><![CDATA[function RecurringTimer(e,t){var n,r,i=t;this.pause=function(){window.clearTimeout(n);i-=new Date-r};var s=function(){r=new Date;n=window.setTimeout(function(){i=t;s();e()},i)};this.clear=function(){window.clearTimeout(n);i=t;n=window.setTimeout(function(){i=t;s();e()},i)};this.resume=s;this.resume()}function invoketimer(){timer=new RecurringTimer(function(){svg.setCurrentTime(0)},7900.0)}var svg=document.getElementById("kvg-05f18");var pause=document.getElementById("pause-kvg-05f18");var reset=document.getElementById("reset-kvg-05f18");var timer;invoketimer();reset.onclick=function(){svg.setCurrentTime(0);timer.clear();svg.unpauseAnimations();pause.innerHTML = "◼";};pause.onclick=function(){if(svg.animationsPaused()){svg.unpauseAnimations();timer.resume();pause.innerHTML="◼"}else{svg.pauseAnimations();timer.pause();pause.innerHTML="▶"}}]]></script></svg>