<svg id="kvg-05f16" class="kanjivg" width="106" height="126" xmlns="http://www.w3.org/2000/svg" xmlns:xlink="http://www.w3.org/1999/xlink" xml:space="preserve" version="1.1" baseProfile="full"><defs><style type="text/css"><![CDATA[path.black{fill:none;stroke:black;stroke-width:5;stroke-linecap:round;stroke-linejoin:round;}path.grey{fill:none;stroke:#ddd;stroke-width:5;stroke-linecap:round;stroke-linejoin:round;}path.stroke{fill:none;stroke:black;stroke-width:5;stroke-linecap:round;stroke-linejoin:round;}rect{fill:none;stroke:#555;stroke-width:2;} text{font-size:16px;font-family:Segoe UI Symbol,Cambria Math,DejaVu Sans,Symbola,Quivira,STIX,Code2000;-webkit-touch-callout:none;cursor:pointer;-webkit-user-select:none;-khtml-user-select:none;-moz-user-select:none;-ms-user-select:none;user-select: none;}text:hover{color:#777;}#reset{font-weight:bold;}]]></style><marker id="markerStart" markerWidth="8" markerHeight="8" style="overflow:visible;"><circle cx="0" cy="0" r="1.5" style="stroke:none;fill:red;fill-opacity:0.5;"/></marker><marker id="markerEnd" style="overflow:visible;"><circle cx="0" cy="0" r="0.8" style="stroke:none;fill:blue;fill-opacity:0.5;"><animate attributeName="opacity" from="1" to="0" dur="3s" repeatCount="indefinite" /></circle></marker></defs><rect x="4" y="4" width="100" height="100" /><path d="M32.2,17.81c1.55,1.19,3.24,1.49,5.04,1.27c1.8-0.21,26.62-2.97,30.22-3.61s4.6,1.53,3.52,3.22c-0.73,1.15-2.06,6.77-2.97,11.05c-0.43,2.05-0.77,3.79-0.91,4.59" class="grey" /><path d="M38.5,37.25c2.64,0,24.32-2.5,26.21-2.5s3.78,0,5.29,0" class="grey" /><path d="M37.64,33.97c0.61,1.28,0.41,3.16-0.29,4.5c-0.8,1.54-7.04,14.64-7.41,15.49c-0.36,0.85,0,2.97,2.88,2.55c5.17-0.76,32.78-4.95,38.55-5.58c5.77-0.64,4.37,4.27,3.95,5.79c-2.16,7.86-4.57,15.29-9.39,24.14c-2.79,5.12-8.5-0.14-10.14-1.78" class="grey" /><path d="M15,95.02c2.33,0.29,6.12,0.7,7.86,0.58c21.26-1.46,47.47-4.45,65.52-4.44c2.91,0,4.66,0.28,6.12,0.57" class="grey" /><path d="M32.2,17.81c1.55,1.19,3.24,1.49,5.04,1.27c1.8-0.21,26.62-2.97,30.22-3.61s4.6,1.53,3.52,3.22c-0.73,1.15-2.06,6.77-2.97,11.05c-0.43,2.05-0.77,3.79-0.91,4.59" class="stroke" stroke-dasharray="150"><animate attributeName="stroke-dashoffset" from="150" to="0" dur="1.8s" begin="0.0s" fill="freeze" /></path><path d="M38.5,37.25c2.64,0,24.32-2.5,26.21-2.5s3.78,0,5.29,0" class="stroke" stroke-dasharray="150"><set attributeName="opacity" to="0" dur="1.4s" /><animate attributeName="stroke-dashoffset" from="150" to="0" dur="1.8s" begin="1.4s" fill="freeze" /></path><path d="M37.64,33.97c0.61,1.28,0.41,3.16-0.29,4.5c-0.8,1.54-7.04,14.64-7.41,15.49c-0.36,0.85,0,2.97,2.88,2.55c5.17-0.76,32.78-4.95,38.55-5.58c5.77-0.64,4.37,4.27,3.95,5.79c-2.16,7.86-4.57,15.29-9.39,24.14c-2.79,5.12-8.5-0.14-10.14-1.78" class="stroke" stroke-dasharray="150"><set attributeName="opacity" to="0" dur="2.4s" /><animate attributeName="stroke-dashoffset" from="150" to="0" dur="1.8s" begin="2.4s" fill="freeze" /></path><path d="M15,95.02c2.33,0.29,6.12,0.7,7.86,0.58c21.26-1.46,47.47-4.45,65.52-4.44c2.91,0,4.66,0.28,6.12,0.57" class="stroke" stroke-dasharray="150"><set attributeName="opacity" to="0" dur="4.4s" /><animate attributeName="stroke-dashoffset" from="150" to="0" dur="1.8s" begin="4.4s" fill="freeze" /></path><text x="90" y="120" id="reset-kvg-05f16">⟳</text><text x="70" y="120" id="pause-kvg-05f16">◼</text><script type="text/javascript"><![CDATA[function RecurringTimer(e,t){var n,r,i=t;this.pause=function(){window.clearTimeout(n);i-=new Date-r};var s=function(){r=new Date;n=window.setTimeout(function(){i=t;s();e()},i)};this.clear=function(){window.clearTimeout(n);i=t;n=window.setTimeout(function(){i=t;s();e()},i)};this.resume=s;this.resume()}function invoketimer(){timer=new RecurringTimer(function(){svg.setCurrentTime(0)},7100.000000000001)}var svg=document.getElementById("kvg-05f16");var pause=document.getElementById("pause-kvg-05f16");var reset=document.getElementById("reset-kvg-05f16");var timer;invoketimer();reset.onclick=function(){svg.setCurrentTime(0);timer.clear();svg.unpauseAnimations();pause.innerHTML = "◼";};pause.onclick=function(){if(svg.animationsPaused()){svg.unpauseAnimations();timer.resume();pause.innerHTML="◼"}else{svg.pauseAnimations();timer.pause();pause.innerHTML="▶"}}]]></script></svg>