<svg id="kvg-05f14" class="kanjivg" width="106" height="126" xmlns="http://www.w3.org/2000/svg" xmlns:xlink="http://www.w3.org/1999/xlink" xml:space="preserve" version="1.1" baseProfile="full"><defs><style type="text/css"><![CDATA[path.black{fill:none;stroke:black;stroke-width:5;stroke-linecap:round;stroke-linejoin:round;}path.grey{fill:none;stroke:#ddd;stroke-width:5;stroke-linecap:round;stroke-linejoin:round;}path.stroke{fill:none;stroke:black;stroke-width:5;stroke-linecap:round;stroke-linejoin:round;}rect{fill:none;stroke:#555;stroke-width:2;} text{font-size:16px;font-family:Segoe UI Symbol,Cambria Math,DejaVu Sans,Symbola,Quivira,STIX,Code2000;-webkit-touch-callout:none;cursor:pointer;-webkit-user-select:none;-khtml-user-select:none;-moz-user-select:none;-ms-user-select:none;user-select: none;}text:hover{color:#777;}#reset{font-weight:bold;}]]></style><marker id="markerStart" markerWidth="8" markerHeight="8" style="overflow:visible;"><circle cx="0" cy="0" r="1.5" style="stroke:none;fill:red;fill-opacity:0.5;"/></marker><marker id="markerEnd" style="overflow:visible;"><circle cx="0" cy="0" r="0.8" style="stroke:none;fill:blue;fill-opacity:0.5;"><animate attributeName="opacity" from="1" to="0" dur="3s" repeatCount="indefinite" /></circle></marker></defs><rect x="4" y="4" width="100" height="100" /><path d="M25.62,17.93c2.38,1.07,4.15,1.2,6.22,0.97c19.28-2.15,32.28-3.4,45.68-4.56c5.06-0.44,5.97,0.91,5.24,4.96c-0.73,4.05-2.84,12.9-3.24,15.31" class="grey" /><path d="M26.75,40.97c2.13,0.59,4.63,0.03,6.77-0.19c12.9-1.37,33.63-3.91,41.25-4.92c2.35-0.31,4.62-0.34,6.98-0.34" class="grey" /><path d="M27.68,41.8c0.69,1.2,0.44,2.58-0.26,4.18c-1.8,4.15-3.3,7.77-5.12,11.71c-1,2.17-0.3,3.32,2.32,2.93c2.5-0.37,55.36-7.17,62-7.91c6.64-0.73,5.02,4.91,4.54,6.67c-0.91,3.37-4.4,13.89-7.74,19.67c-2.42,4.2-5.05,2.2-7.67-1.3" class="grey" /><path d="M53.04,19.75c0.98,0.98,1.59,2.25,1.59,4.3c0,1.11,0.12,43.95,0.12,64.96c0,4.57-0.12,7.23-0.12,9.36" class="grey" /><path d="M25.62,17.93c2.38,1.07,4.15,1.2,6.22,0.97c19.28-2.15,32.28-3.4,45.68-4.56c5.06-0.44,5.97,0.91,5.24,4.96c-0.73,4.05-2.84,12.9-3.24,15.31" class="stroke" stroke-dasharray="150"><animate attributeName="stroke-dashoffset" from="150" to="0" dur="1.8s" begin="0.0s" fill="freeze" /></path><path d="M26.75,40.97c2.13,0.59,4.63,0.03,6.77-0.19c12.9-1.37,33.63-3.91,41.25-4.92c2.35-0.31,4.62-0.34,6.98-0.34" class="stroke" stroke-dasharray="150"><set attributeName="opacity" to="0" dur="1.7s" /><animate attributeName="stroke-dashoffset" from="150" to="0" dur="1.8s" begin="1.7s" fill="freeze" /></path><path d="M27.68,41.8c0.69,1.2,0.44,2.58-0.26,4.18c-1.8,4.15-3.3,7.77-5.12,11.71c-1,2.17-0.3,3.32,2.32,2.93c2.5-0.37,55.36-7.17,62-7.91c6.64-0.73,5.02,4.91,4.54,6.67c-0.91,3.37-4.4,13.89-7.74,19.67c-2.42,4.2-5.05,2.2-7.67-1.3" class="stroke" stroke-dasharray="150"><set attributeName="opacity" to="0" dur="3.0999999999999996s" /><animate attributeName="stroke-dashoffset" from="150" to="0" dur="1.8s" begin="3.0999999999999996s" fill="freeze" /></path><path d="M53.04,19.75c0.98,0.98,1.59,2.25,1.59,4.3c0,1.11,0.12,43.95,0.12,64.96c0,4.57-0.12,7.23-0.12,9.36" class="stroke" stroke-dasharray="150"><set attributeName="opacity" to="0" dur="5.1s" /><animate attributeName="stroke-dashoffset" from="150" to="0" dur="1.8s" begin="5.1s" fill="freeze" /></path><text x="90" y="120" id="reset-kvg-05f14">⟳</text><text x="70" y="120" id="pause-kvg-05f14">◼</text><script type="text/javascript"><![CDATA[function RecurringTimer(e,t){var n,r,i=t;this.pause=function(){window.clearTimeout(n);i-=new Date-r};var s=function(){r=new Date;n=window.setTimeout(function(){i=t;s();e()},i)};this.clear=function(){window.clearTimeout(n);i=t;n=window.setTimeout(function(){i=t;s();e()},i)};this.resume=s;this.resume()}function invoketimer(){timer=new RecurringTimer(function(){svg.setCurrentTime(0)},7800.0)}var svg=document.getElementById("kvg-05f14");var pause=document.getElementById("pause-kvg-05f14");var reset=document.getElementById("reset-kvg-05f14");var timer;invoketimer();reset.onclick=function(){svg.setCurrentTime(0);timer.clear();svg.unpauseAnimations();pause.innerHTML = "◼";};pause.onclick=function(){if(svg.animationsPaused()){svg.unpauseAnimations();timer.resume();pause.innerHTML="◼"}else{svg.pauseAnimations();timer.pause();pause.innerHTML="▶"}}]]></script></svg>