<svg id="kvg-05f4a" class="kanjivg" width="106" height="126" xmlns="http://www.w3.org/2000/svg" xmlns:xlink="http://www.w3.org/1999/xlink" xml:space="preserve" version="1.1" baseProfile="full"><defs><style type="text/css"><![CDATA[path.black{fill:none;stroke:black;stroke-width:5;stroke-linecap:round;stroke-linejoin:round;}path.grey{fill:none;stroke:#ddd;stroke-width:5;stroke-linecap:round;stroke-linejoin:round;}path.stroke{fill:none;stroke:black;stroke-width:5;stroke-linecap:round;stroke-linejoin:round;}rect{fill:none;stroke:#555;stroke-width:2;} text{font-size:16px;font-family:Segoe UI Symbol,Cambria Math,DejaVu Sans,Symbola,Quivira,STIX,Code2000;-webkit-touch-callout:none;cursor:pointer;-webkit-user-select:none;-khtml-user-select:none;-moz-user-select:none;-ms-user-select:none;user-select: none;}text:hover{color:#777;}#reset{font-weight:bold;}]]></style><marker id="markerStart" markerWidth="8" markerHeight="8" style="overflow:visible;"><circle cx="0" cy="0" r="1.5" style="stroke:none;fill:red;fill-opacity:0.5;"/></marker><marker id="markerEnd" style="overflow:visible;"><circle cx="0" cy="0" r="0.8" style="stroke:none;fill:blue;fill-opacity:0.5;"><animate attributeName="opacity" from="1" to="0" dur="3s" repeatCount="indefinite" /></circle></marker></defs><rect x="4" y="4" width="100" height="100" /><path d="M15.5,21.59c2.23,0.55,4.49,0.5,6.73,0.15c5.53-0.87,9.53-1.74,14.56-3.07c2.59-0.68,3.99,0.19,2.92,3.57C38.75,25.25,36.25,32,35,36.25" class="grey" /><path d="M18.5,39.5c5.5-0.88,10.5-1.75,14.49-2.25c1.6-0.2,3.22-0.5,4.51-0.5" class="grey" /><path d="M17.13,36.68C18,38,18.1,39.11,17.75,40.62c-0.41,1.74-3.4,10.9-3.75,11.81c-1,2.56-0.52,3.79,2.75,3.06c6.75-1.5,9.75-2,14.39-2.89c4.68-0.9,5.23-0.02,4.36,6.64c-1.38,10.5-3.25,25.25-8.25,32.5c-4.14,6-6.38,1.12-8.19-2.17" class="grey" /><path d="M47.75,19.48c3.02,0.44,5.97,0.05,9-0.29c8.28-0.92,18.37-1.94,27.75-2.62c2.69-0.19,5.33-0.39,8-0.04" class="grey" /><path d="M49.81,27.93c0.69,0.86,1.12,1.84,1.29,2.92c0.76,4.26,1.57,9.46,2.29,14.04c0.26,1.63,0.51,3.18,0.74,4.58" class="grey" /><path d="M51.5,28.92c1.9-0.12,19.87-2.17,31.46-3.14c3.07-0.26,4.45,1.02,3.84,3.87c-0.71,3.32-2.08,9.02-3.05,12.98c-0.55,2.25-0.97,3.94-1.07,4.34" class="grey" /><path d="M66.65,29.73c0.75,0.75,0.89,1.64,0.89,2.7c0,4.23,0,11.73,0.01,13.26" class="grey" /><path d="M53.16,38.14c12.97-1.51,19.22-2.26,31.09-2.77" class="grey" /><path d="M54.84,47.23c5.98-0.4,16.28-1.23,27.17-1.87" class="grey" /><path d="M44.25,55.69c3.35,0.46,6.66,0.17,10.02-0.15c9.73-0.92,21.1-1.79,31.23-2.26c2.85-0.13,5.67-0.34,8.5,0.03" class="grey" /><path d="M49.81,64c0.74,0.85,1.16,1.81,1.25,2.88c1.16,7.57,2.55,18.32,2.66,19.34" class="grey" /><path d="M51.76,65.17C62.62,64,73,62.75,83.62,62.02c3.19-0.22,3.96,1.55,3.45,4.15c-0.95,4.79-1.97,10.34-3.01,14.84c-0.32,1.4-0.65,2.7-0.97,3.85" class="grey" /><path d="M66.67,65.48c0.74,0.74,0.92,1.39,0.92,2.28c0,3.93-0.09,12.24-0.09,13.99" class="grey" /><path d="M53.48,74.48c10.89-1.23,21.89-2.1,31.21-2.33" class="grey" /><path d="M54.19,84.12c7.81-0.5,18.61-1.27,28.22-1.94" class="grey" /><path d="M41,93.83c3.09,0.39,6.17,0.44,9.26,0.14c12.36-0.97,24.49-1.84,38.12-2.3c3.4-0.25,6.78,0,10.12,0.77" class="grey" /><path d="M15.5,21.59c2.23,0.55,4.49,0.5,6.73,0.15c5.53-0.87,9.53-1.74,14.56-3.07c2.59-0.68,3.99,0.19,2.92,3.57C38.75,25.25,36.25,32,35,36.25" class="stroke" stroke-dasharray="150"><animate attributeName="stroke-dashoffset" from="150" to="0" dur="1.8s" begin="0.0s" fill="freeze" /></path><path d="M18.5,39.5c5.5-0.88,10.5-1.75,14.49-2.25c1.6-0.2,3.22-0.5,4.51-0.5" class="stroke" stroke-dasharray="150"><set attributeName="opacity" to="0" dur="1.1s" /><animate attributeName="stroke-dashoffset" from="150" to="0" dur="1.8s" begin="1.1s" fill="freeze" /></path><path d="M17.13,36.68C18,38,18.1,39.11,17.75,40.62c-0.41,1.74-3.4,10.9-3.75,11.81c-1,2.56-0.52,3.79,2.75,3.06c6.75-1.5,9.75-2,14.39-2.89c4.68-0.9,5.23-0.02,4.36,6.64c-1.38,10.5-3.25,25.25-8.25,32.5c-4.14,6-6.38,1.12-8.19-2.17" class="stroke" stroke-dasharray="150"><set attributeName="opacity" to="0" dur="2.0s" /><animate attributeName="stroke-dashoffset" from="150" to="0" dur="1.8s" begin="2.0s" fill="freeze" /></path><path d="M47.75,19.48c3.02,0.44,5.97,0.05,9-0.29c8.28-0.92,18.37-1.94,27.75-2.62c2.69-0.19,5.33-0.39,8-0.04" class="stroke" stroke-dasharray="150"><set attributeName="opacity" to="0" dur="3.8s" /><animate attributeName="stroke-dashoffset" from="150" to="0" dur="1.8s" begin="3.8s" fill="freeze" /></path><path d="M49.81,27.93c0.69,0.86,1.12,1.84,1.29,2.92c0.76,4.26,1.57,9.46,2.29,14.04c0.26,1.63,0.51,3.18,0.74,4.58" class="stroke" stroke-dasharray="150"><set attributeName="opacity" to="0" dur="4.9s" /><animate attributeName="stroke-dashoffset" from="150" to="0" dur="1.8s" begin="4.9s" fill="freeze" /></path><path d="M51.5,28.92c1.9-0.12,19.87-2.17,31.46-3.14c3.07-0.26,4.45,1.02,3.84,3.87c-0.71,3.32-2.08,9.02-3.05,12.98c-0.55,2.25-0.97,3.94-1.07,4.34" class="stroke" stroke-dasharray="150"><set attributeName="opacity" to="0" dur="5.9s" /><animate attributeName="stroke-dashoffset" from="150" to="0" dur="1.8s" begin="5.9s" fill="freeze" /></path><path d="M66.65,29.73c0.75,0.75,0.89,1.64,0.89,2.7c0,4.23,0,11.73,0.01,13.26" class="stroke" stroke-dasharray="150"><set attributeName="opacity" to="0" dur="7.300000000000001s" /><animate attributeName="stroke-dashoffset" from="150" to="0" dur="1.8s" begin="7.300000000000001s" fill="freeze" /></path><path d="M53.16,38.14c12.97-1.51,19.22-2.26,31.09-2.77" class="stroke" stroke-dasharray="150"><set attributeName="opacity" to="0" dur="8.200000000000001s" /><animate attributeName="stroke-dashoffset" from="150" to="0" dur="1.8s" begin="8.200000000000001s" fill="freeze" /></path><path d="M54.84,47.23c5.98-0.4,16.28-1.23,27.17-1.87" class="stroke" stroke-dasharray="150"><set attributeName="opacity" to="0" dur="9.200000000000001s" /><animate attributeName="stroke-dashoffset" from="150" to="0" dur="1.8s" begin="9.200000000000001s" fill="freeze" /></path><path d="M44.25,55.69c3.35,0.46,6.66,0.17,10.02-0.15c9.73-0.92,21.1-1.79,31.23-2.26c2.85-0.13,5.67-0.34,8.5,0.03" class="stroke" stroke-dasharray="150"><set attributeName="opacity" to="0" dur="10.200000000000001s" /><animate attributeName="stroke-dashoffset" from="150" to="0" dur="1.8s" begin="10.200000000000001s" fill="freeze" /></path><path d="M49.81,64c0.74,0.85,1.16,1.81,1.25,2.88c1.16,7.57,2.55,18.32,2.66,19.34" class="stroke" stroke-dasharray="150"><set attributeName="opacity" to="0" dur="11.4s" /><animate attributeName="stroke-dashoffset" from="150" to="0" dur="1.8s" begin="11.4s" fill="freeze" /></path><path d="M51.76,65.17C62.62,64,73,62.75,83.62,62.02c3.19-0.22,3.96,1.55,3.45,4.15c-0.95,4.79-1.97,10.34-3.01,14.84c-0.32,1.4-0.65,2.7-0.97,3.85" class="stroke" stroke-dasharray="150"><set attributeName="opacity" to="0" dur="12.4s" /><animate attributeName="stroke-dashoffset" from="150" to="0" dur="1.8s" begin="12.4s" fill="freeze" /></path><path d="M66.67,65.48c0.74,0.74,0.92,1.39,0.92,2.28c0,3.93-0.09,12.24-0.09,13.99" class="stroke" stroke-dasharray="150"><set attributeName="opacity" to="0" dur="13.8s" /><animate attributeName="stroke-dashoffset" from="150" to="0" dur="1.8s" begin="13.8s" fill="freeze" /></path><path d="M53.48,74.48c10.89-1.23,21.89-2.1,31.21-2.33" class="stroke" stroke-dasharray="150"><set attributeName="opacity" to="0" dur="14.700000000000001s" /><animate attributeName="stroke-dashoffset" from="150" to="0" dur="1.8s" begin="14.700000000000001s" fill="freeze" /></path><path d="M54.19,84.12c7.81-0.5,18.61-1.27,28.22-1.94" class="stroke" stroke-dasharray="150"><set attributeName="opacity" to="0" dur="15.700000000000001s" /><animate attributeName="stroke-dashoffset" from="150" to="0" dur="1.8s" begin="15.700000000000001s" fill="freeze" /></path><path d="M41,93.83c3.09,0.39,6.17,0.44,9.26,0.14c12.36-0.97,24.49-1.84,38.12-2.3c3.4-0.25,6.78,0,10.12,0.77" class="stroke" stroke-dasharray="150"><set attributeName="opacity" to="0" dur="16.700000000000003s" /><animate attributeName="stroke-dashoffset" from="150" to="0" dur="1.8s" begin="16.700000000000003s" fill="freeze" /></path><text x="90" y="120" id="reset-kvg-05f4a">⟳</text><text x="70" y="120" id="pause-kvg-05f4a">◼</text><script type="text/javascript"><![CDATA[function RecurringTimer(e,t){var n,r,i=t;this.pause=function(){window.clearTimeout(n);i-=new Date-r};var s=function(){r=new Date;n=window.setTimeout(function(){i=t;s();e()},i)};this.clear=function(){window.clearTimeout(n);i=t;n=window.setTimeout(function(){i=t;s();e()},i)};this.resume=s;this.resume()}function invoketimer(){timer=new RecurringTimer(function(){svg.setCurrentTime(0)},19100.0)}var svg=document.getElementById("kvg-05f4a");var pause=document.getElementById("pause-kvg-05f4a");var reset=document.getElementById("reset-kvg-05f4a");var timer;invoketimer();reset.onclick=function(){svg.setCurrentTime(0);timer.clear();svg.unpauseAnimations();pause.innerHTML = "◼";};pause.onclick=function(){if(svg.animationsPaused()){svg.unpauseAnimations();timer.resume();pause.innerHTML="◼"}else{svg.pauseAnimations();timer.pause();pause.innerHTML="▶"}}]]></script></svg>