<svg id="kvg-05f48-Kaisho" class="kanjivg" width="106" height="126" xmlns="http://www.w3.org/2000/svg" xmlns:xlink="http://www.w3.org/1999/xlink" xml:space="preserve" version="1.1" baseProfile="full"><defs><style type="text/css"><![CDATA[path.black{fill:none;stroke:black;stroke-width:5;stroke-linecap:round;stroke-linejoin:round;}path.grey{fill:none;stroke:#ddd;stroke-width:5;stroke-linecap:round;stroke-linejoin:round;}path.stroke{fill:none;stroke:black;stroke-width:5;stroke-linecap:round;stroke-linejoin:round;}rect{fill:none;stroke:#555;stroke-width:2;} text{font-size:16px;font-family:Segoe UI Symbol,Cambria Math,DejaVu Sans,Symbola,Quivira,STIX,Code2000;-webkit-touch-callout:none;cursor:pointer;-webkit-user-select:none;-khtml-user-select:none;-moz-user-select:none;-ms-user-select:none;user-select: none;}text:hover{color:#777;}#reset{font-weight:bold;}]]></style><marker id="markerStart" markerWidth="8" markerHeight="8" style="overflow:visible;"><circle cx="0" cy="0" r="1.5" style="stroke:none;fill:red;fill-opacity:0.5;"/></marker><marker id="markerEnd" style="overflow:visible;"><circle cx="0" cy="0" r="0.8" style="stroke:none;fill:blue;fill-opacity:0.5;"><animate attributeName="opacity" from="1" to="0" dur="3s" repeatCount="indefinite" /></circle></marker></defs><rect x="4" y="4" width="100" height="100" /><path d="M14,19.09c1,0.66,2.49,1.08,3.69,1.04c3.81-0.13,14.08-2.83,16.77-3.29c2.04-0.35,3.7,1.34,2.74,3.39c-0.68,1.47-2.09,6.76-3.07,10.74c-0.39,1.57-0.71,2.93-0.89,3.78" class="grey" /><path d="M18.25,38.25c5.25-0.75,12.73-2.5,14.32-2.5c1.58,0,3.17-0.5,4.43-0.5" class="grey" /><path d="M17.13,37.18c0.55,0.96,0.46,4.56,0.11,6.08c-0.41,1.74-1.38,8.77-1.74,9.68c-1,2.56-0.25,4.56,2.75,3.06c1.21-0.6,11.75-2.75,15.96-3.19c2.99-0.31,2,5.21,1.79,6.94c-1.09,8.88-4.97,27.2-8.75,33.5c-3.75,6.25-6.36-0.31-7.19-2.17" class="grey" /><path d="M44.5,15.58c0.28,0.29,0.6,0.52,0.7,0.9c0.63,2.65,1.68,6.75,2.49,10.78c0.22,1.09,0.42,2.17,0.59,3.21" class="grey" /><path d="M46.27,17.65c0.79-0.11,1.56-0.23,2.32-0.37c4.26-0.78,8.11-1.96,12.2-2.57c1.21-0.18,1.94,0.83,1.76,1.65c-0.59,2.76-0.87,3.97-1.65,7.38c-0.18,0.77-0.38,1.66-0.62,2.7" class="grey" /><path d="M48.87,29.16c3.29-0.37,6.48-1.29,10.61-1.97c0.76-0.12,1.54-0.24,2.37-0.34" class="grey" /><path d="M69.29,14.15c0.25,0.29,1,1.38,1.08,1.77c0.59,2.77,1.22,5.84,1.83,9.58c0.14,0.85,0.27,1.72,0.41,2.64" class="grey" /><path d="M70.6,15.41c0.81-0.11,1.63-0.22,2.45-0.33c5.21-0.73,10.41-1.58,14.15-2.21c1.08-0.18,1.74,0.84,1.59,1.67c-0.49,2.59-1.3,5.06-2.04,7.71c-0.24,0.86-0.47,1.74-0.68,2.64" class="grey" /><path d="M72.41,26.87c3.84-0.23,7.72-1.06,12.84-1.4c1.02-0.07,2.09-0.12,3.23-0.13" class="grey" /><path d="M47.48,38.51c0.27,0.47,0.78,1.29,0.93,1.88c1.05,4.11,2.35,12.83,3.19,20.86c0.15,1.4,0.28,2.78,0.4,4.11" class="grey" /><path d="M49.25,40.33c1.52-0.24,3.21-0.5,5-0.78c10.38-1.59,24.36-3.65,30.41-4.36c2.61-0.3,4.18,0.65,4.1,2.68c-0.14,3.68-1.82,13.72-3.02,19.92c-0.37,1.94-0.7,3.5-0.92,4.38" class="grey" /><path d="M50.82,51.13c7.96-0.99,15.9-2.22,23.87-3.2c0.98-0.12,1.95-0.24,2.87-0.35" class="grey" /><path d="M52.37,63.04C63,61.75,75.6,60.2,85.41,59.26" class="grey" /><path d="M40.44,75.88c1.2,0.51,3.41,0.6,4.62,0.51c6.69-0.46,31.02-4.27,46.04-4.97c2.01-0.09,3.21,0.25,4.22,0.5" class="grey" /><path d="M66.53,39.49c0.89,0.6,1.45,2.29,1.47,4.35c0.05,8.44,0.19,37.28,0.26,49.41c0.02,2.86,0.03,3.85,0.03,4.5" class="grey" /><path d="M14,19.09c1,0.66,2.49,1.08,3.69,1.04c3.81-0.13,14.08-2.83,16.77-3.29c2.04-0.35,3.7,1.34,2.74,3.39c-0.68,1.47-2.09,6.76-3.07,10.74c-0.39,1.57-0.71,2.93-0.89,3.78" class="stroke" stroke-dasharray="150"><animate attributeName="stroke-dashoffset" from="150" to="0" dur="1.8s" begin="0.0s" fill="freeze" /></path><path d="M18.25,38.25c5.25-0.75,12.73-2.5,14.32-2.5c1.58,0,3.17-0.5,4.43-0.5" class="stroke" stroke-dasharray="150"><set attributeName="opacity" to="0" dur="1.1s" /><animate attributeName="stroke-dashoffset" from="150" to="0" dur="1.8s" begin="1.1s" fill="freeze" /></path><path d="M17.13,37.18c0.55,0.96,0.46,4.56,0.11,6.08c-0.41,1.74-1.38,8.77-1.74,9.68c-1,2.56-0.25,4.56,2.75,3.06c1.21-0.6,11.75-2.75,15.96-3.19c2.99-0.31,2,5.21,1.79,6.94c-1.09,8.88-4.97,27.2-8.75,33.5c-3.75,6.25-6.36-0.31-7.19-2.17" class="stroke" stroke-dasharray="150"><set attributeName="opacity" to="0" dur="2.0s" /><animate attributeName="stroke-dashoffset" from="150" to="0" dur="1.8s" begin="2.0s" fill="freeze" /></path><path d="M44.5,15.58c0.28,0.29,0.6,0.52,0.7,0.9c0.63,2.65,1.68,6.75,2.49,10.78c0.22,1.09,0.42,2.17,0.59,3.21" class="stroke" stroke-dasharray="150"><set attributeName="opacity" to="0" dur="3.8s" /><animate attributeName="stroke-dashoffset" from="150" to="0" dur="1.8s" begin="3.8s" fill="freeze" /></path><path d="M46.27,17.65c0.79-0.11,1.56-0.23,2.32-0.37c4.26-0.78,8.11-1.96,12.2-2.57c1.21-0.18,1.94,0.83,1.76,1.65c-0.59,2.76-0.87,3.97-1.65,7.38c-0.18,0.77-0.38,1.66-0.62,2.7" class="stroke" stroke-dasharray="150"><set attributeName="opacity" to="0" dur="4.7s" /><animate attributeName="stroke-dashoffset" from="150" to="0" dur="1.8s" begin="4.7s" fill="freeze" /></path><path d="M48.87,29.16c3.29-0.37,6.48-1.29,10.61-1.97c0.76-0.12,1.54-0.24,2.37-0.34" class="stroke" stroke-dasharray="150"><set attributeName="opacity" to="0" dur="5.7s" /><animate attributeName="stroke-dashoffset" from="150" to="0" dur="1.8s" begin="5.7s" fill="freeze" /></path><path d="M69.29,14.15c0.25,0.29,1,1.38,1.08,1.77c0.59,2.77,1.22,5.84,1.83,9.58c0.14,0.85,0.27,1.72,0.41,2.64" class="stroke" stroke-dasharray="150"><set attributeName="opacity" to="0" dur="6.6000000000000005s" /><animate attributeName="stroke-dashoffset" from="150" to="0" dur="1.8s" begin="6.6000000000000005s" fill="freeze" /></path><path d="M70.6,15.41c0.81-0.11,1.63-0.22,2.45-0.33c5.21-0.73,10.41-1.58,14.15-2.21c1.08-0.18,1.74,0.84,1.59,1.67c-0.49,2.59-1.3,5.06-2.04,7.71c-0.24,0.86-0.47,1.74-0.68,2.64" class="stroke" stroke-dasharray="150"><set attributeName="opacity" to="0" dur="7.500000000000001s" /><animate attributeName="stroke-dashoffset" from="150" to="0" dur="1.8s" begin="7.500000000000001s" fill="freeze" /></path><path d="M72.41,26.87c3.84-0.23,7.72-1.06,12.84-1.4c1.02-0.07,2.09-0.12,3.23-0.13" class="stroke" stroke-dasharray="150"><set attributeName="opacity" to="0" dur="8.5s" /><animate attributeName="stroke-dashoffset" from="150" to="0" dur="1.8s" begin="8.5s" fill="freeze" /></path><path d="M47.48,38.51c0.27,0.47,0.78,1.29,0.93,1.88c1.05,4.11,2.35,12.83,3.19,20.86c0.15,1.4,0.28,2.78,0.4,4.11" class="stroke" stroke-dasharray="150"><set attributeName="opacity" to="0" dur="9.4s" /><animate attributeName="stroke-dashoffset" from="150" to="0" dur="1.8s" begin="9.4s" fill="freeze" /></path><path d="M49.25,40.33c1.52-0.24,3.21-0.5,5-0.78c10.38-1.59,24.36-3.65,30.41-4.36c2.61-0.3,4.18,0.65,4.1,2.68c-0.14,3.68-1.82,13.72-3.02,19.92c-0.37,1.94-0.7,3.5-0.92,4.38" class="stroke" stroke-dasharray="150"><set attributeName="opacity" to="0" dur="10.4s" /><animate attributeName="stroke-dashoffset" from="150" to="0" dur="1.8s" begin="10.4s" fill="freeze" /></path><path d="M50.82,51.13c7.96-0.99,15.9-2.22,23.87-3.2c0.98-0.12,1.95-0.24,2.87-0.35" class="stroke" stroke-dasharray="150"><set attributeName="opacity" to="0" dur="11.9s" /><animate attributeName="stroke-dashoffset" from="150" to="0" dur="1.8s" begin="11.9s" fill="freeze" /></path><path d="M52.37,63.04C63,61.75,75.6,60.2,85.41,59.26" class="stroke" stroke-dasharray="150"><set attributeName="opacity" to="0" dur="12.9s" /><animate attributeName="stroke-dashoffset" from="150" to="0" dur="1.8s" begin="12.9s" fill="freeze" /></path><path d="M40.44,75.88c1.2,0.51,3.41,0.6,4.62,0.51c6.69-0.46,31.02-4.27,46.04-4.97c2.01-0.09,3.21,0.25,4.22,0.5" class="stroke" stroke-dasharray="150"><set attributeName="opacity" to="0" dur="13.9s" /><animate attributeName="stroke-dashoffset" from="150" to="0" dur="1.8s" begin="13.9s" fill="freeze" /></path><path d="M66.53,39.49c0.89,0.6,1.45,2.29,1.47,4.35c0.05,8.44,0.19,37.28,0.26,49.41c0.02,2.86,0.03,3.85,0.03,4.5" class="stroke" stroke-dasharray="150"><set attributeName="opacity" to="0" dur="15.3s" /><animate attributeName="stroke-dashoffset" from="150" to="0" dur="1.8s" begin="15.3s" fill="freeze" /></path><text x="90" y="120" id="reset-kvg-05f48-Kaisho">⟳</text><text x="70" y="120" id="pause-kvg-05f48-Kaisho">◼</text><script type="text/javascript"><![CDATA[function RecurringTimer(e,t){var n,r,i=t;this.pause=function(){window.clearTimeout(n);i-=new Date-r};var s=function(){r=new Date;n=window.setTimeout(function(){i=t;s();e()},i)};this.clear=function(){window.clearTimeout(n);i=t;n=window.setTimeout(function(){i=t;s();e()},i)};this.resume=s;this.resume()}function invoketimer(){timer=new RecurringTimer(function(){svg.setCurrentTime(0)},17700.0)}var svg=document.getElementById("kvg-05f48-Kaisho");var pause=document.getElementById("pause-kvg-05f48-Kaisho");var reset=document.getElementById("reset-kvg-05f48-Kaisho");var timer;invoketimer();reset.onclick=function(){svg.setCurrentTime(0);timer.clear();svg.unpauseAnimations();pause.innerHTML = "◼";};pause.onclick=function(){if(svg.animationsPaused()){svg.unpauseAnimations();timer.resume();pause.innerHTML="◼"}else{svg.pauseAnimations();timer.pause();pause.innerHTML="▶"}}]]></script></svg>