<svg id="kvg-05f7c" class="kanjivg" width="106" height="126" xmlns="http://www.w3.org/2000/svg" xmlns:xlink="http://www.w3.org/1999/xlink" xml:space="preserve" version="1.1" baseProfile="full"><defs><style type="text/css"><![CDATA[path.black{fill:none;stroke:black;stroke-width:5;stroke-linecap:round;stroke-linejoin:round;}path.grey{fill:none;stroke:#ddd;stroke-width:5;stroke-linecap:round;stroke-linejoin:round;}path.stroke{fill:none;stroke:black;stroke-width:5;stroke-linecap:round;stroke-linejoin:round;}rect{fill:none;stroke:#555;stroke-width:2;} text{font-size:16px;font-family:Segoe UI Symbol,Cambria Math,DejaVu Sans,Symbola,Quivira,STIX,Code2000;-webkit-touch-callout:none;cursor:pointer;-webkit-user-select:none;-khtml-user-select:none;-moz-user-select:none;-ms-user-select:none;user-select: none;}text:hover{color:#777;}#reset{font-weight:bold;}]]></style><marker id="markerStart" markerWidth="8" markerHeight="8" style="overflow:visible;"><circle cx="0" cy="0" r="1.5" style="stroke:none;fill:red;fill-opacity:0.5;"/></marker><marker id="markerEnd" style="overflow:visible;"><circle cx="0" cy="0" r="0.8" style="stroke:none;fill:blue;fill-opacity:0.5;"><animate attributeName="opacity" from="1" to="0" dur="3s" repeatCount="indefinite" /></circle></marker></defs><rect x="4" y="4" width="100" height="100" /><path d="M31.83,16.75c0.13,0.96-0.51,1.9-1.06,2.61c-3.17,4.1-10.39,11.14-18.9,16.14" class="grey" /><path d="M32.61,35.75c0.06,0.7-0.21,1.69-0.62,2.54C29.11,44.32,21.62,55,11.25,65.25" class="grey" /><path d="M25.97,51.75c0.83,0.83,0.9,1.88,0.9,2.91c0,0.41,0.02,22.68-0.03,33.34c-0.01,2.68-0.03,4.61-0.04,5.25" class="grey" /><path d="M46.76,36.45c0.9,0.9,0.98,2.35,0.91,4.5c-0.67,21.8-3.3,37.8-11.87,50.39" class="grey" /><path d="M48.24,37.41c13.89-3.41,23.51-5.16,37.2-6.26c9.82-0.79,3.43,5.1,0.21,8.92" class="grey" /><path d="M66.38,15.25c1.06,1.06,1.39,2.12,1.39,3.6c0,0.98-0.02,23.86-0.02,33.65" class="grey" /><path d="M55.75,55.14c1.23,0.33,2.47,0.3,4.95-0.12c3.8-0.65,15.05-3.65,18.25-4.39c2.56-0.6,4.06,1.05,2.81,3.93c-7.8,17.89-20.27,29.39-35.05,37.7" class="grey" /><path d="M55.47,63.92c3.49,0.61,18.28,14.83,30.88,23.62c2.24,1.56,4.15,2.84,7.25,4.15" class="grey" /><path d="M31.83,16.75c0.13,0.96-0.51,1.9-1.06,2.61c-3.17,4.1-10.39,11.14-18.9,16.14" class="stroke" stroke-dasharray="150"><animate attributeName="stroke-dashoffset" from="150" to="0" dur="1.8s" begin="0.0s" fill="freeze" /></path><path d="M32.61,35.75c0.06,0.7-0.21,1.69-0.62,2.54C29.11,44.32,21.62,55,11.25,65.25" class="stroke" stroke-dasharray="150"><set attributeName="opacity" to="0" dur="1.0s" /><animate attributeName="stroke-dashoffset" from="150" to="0" dur="1.8s" begin="1.0s" fill="freeze" /></path><path d="M25.97,51.75c0.83,0.83,0.9,1.88,0.9,2.91c0,0.41,0.02,22.68-0.03,33.34c-0.01,2.68-0.03,4.61-0.04,5.25" class="stroke" stroke-dasharray="150"><set attributeName="opacity" to="0" dur="2.0s" /><animate attributeName="stroke-dashoffset" from="150" to="0" dur="1.8s" begin="2.0s" fill="freeze" /></path><path d="M46.76,36.45c0.9,0.9,0.98,2.35,0.91,4.5c-0.67,21.8-3.3,37.8-11.87,50.39" class="stroke" stroke-dasharray="150"><set attributeName="opacity" to="0" dur="3.1s" /><animate attributeName="stroke-dashoffset" from="150" to="0" dur="1.8s" begin="3.1s" fill="freeze" /></path><path d="M48.24,37.41c13.89-3.41,23.51-5.16,37.2-6.26c9.82-0.79,3.43,5.1,0.21,8.92" class="stroke" stroke-dasharray="150"><set attributeName="opacity" to="0" dur="4.5s" /><animate attributeName="stroke-dashoffset" from="150" to="0" dur="1.8s" begin="4.5s" fill="freeze" /></path><path d="M66.38,15.25c1.06,1.06,1.39,2.12,1.39,3.6c0,0.98-0.02,23.86-0.02,33.65" class="stroke" stroke-dasharray="150"><set attributeName="opacity" to="0" dur="5.8s" /><animate attributeName="stroke-dashoffset" from="150" to="0" dur="1.8s" begin="5.8s" fill="freeze" /></path><path d="M55.75,55.14c1.23,0.33,2.47,0.3,4.95-0.12c3.8-0.65,15.05-3.65,18.25-4.39c2.56-0.6,4.06,1.05,2.81,3.93c-7.8,17.89-20.27,29.39-35.05,37.7" class="stroke" stroke-dasharray="150"><set attributeName="opacity" to="0" dur="6.8s" /><animate attributeName="stroke-dashoffset" from="150" to="0" dur="1.8s" begin="6.8s" fill="freeze" /></path><path d="M55.47,63.92c3.49,0.61,18.28,14.83,30.88,23.62c2.24,1.56,4.15,2.84,7.25,4.15" class="stroke" stroke-dasharray="150"><set attributeName="opacity" to="0" dur="8.5s" /><animate attributeName="stroke-dashoffset" from="150" to="0" dur="1.8s" begin="8.5s" fill="freeze" /></path><text x="90" y="120" id="reset-kvg-05f7c">⟳</text><text x="70" y="120" id="pause-kvg-05f7c">◼</text><script type="text/javascript"><![CDATA[function RecurringTimer(e,t){var n,r,i=t;this.pause=function(){window.clearTimeout(n);i-=new Date-r};var s=function(){r=new Date;n=window.setTimeout(function(){i=t;s();e()},i)};this.clear=function(){window.clearTimeout(n);i=t;n=window.setTimeout(function(){i=t;s();e()},i)};this.resume=s;this.resume()}function invoketimer(){timer=new RecurringTimer(function(){svg.setCurrentTime(0)},10700.0)}var svg=document.getElementById("kvg-05f7c");var pause=document.getElementById("pause-kvg-05f7c");var reset=document.getElementById("reset-kvg-05f7c");var timer;invoketimer();reset.onclick=function(){svg.setCurrentTime(0);timer.clear();svg.unpauseAnimations();pause.innerHTML = "◼";};pause.onclick=function(){if(svg.animationsPaused()){svg.unpauseAnimations();timer.resume();pause.innerHTML="◼"}else{svg.pauseAnimations();timer.pause();pause.innerHTML="▶"}}]]></script></svg>