<svg id="kvg-05f83-VtLst" class="kanjivg" width="106" height="126" xmlns="http://www.w3.org/2000/svg" xmlns:xlink="http://www.w3.org/1999/xlink" xml:space="preserve" version="1.1" baseProfile="full"><defs><style type="text/css"><![CDATA[path.black{fill:none;stroke:black;stroke-width:5;stroke-linecap:round;stroke-linejoin:round;}path.grey{fill:none;stroke:#ddd;stroke-width:5;stroke-linecap:round;stroke-linejoin:round;}path.stroke{fill:none;stroke:black;stroke-width:5;stroke-linecap:round;stroke-linejoin:round;}rect{fill:none;stroke:#555;stroke-width:2;} text{font-size:16px;font-family:Segoe UI Symbol,Cambria Math,DejaVu Sans,Symbola,Quivira,STIX,Code2000;-webkit-touch-callout:none;cursor:pointer;-webkit-user-select:none;-khtml-user-select:none;-moz-user-select:none;-ms-user-select:none;user-select: none;}text:hover{color:#777;}#reset{font-weight:bold;}]]></style><marker id="markerStart" markerWidth="8" markerHeight="8" style="overflow:visible;"><circle cx="0" cy="0" r="1.5" style="stroke:none;fill:red;fill-opacity:0.5;"/></marker><marker id="markerEnd" style="overflow:visible;"><circle cx="0" cy="0" r="0.8" style="stroke:none;fill:blue;fill-opacity:0.5;"><animate attributeName="opacity" from="1" to="0" dur="3s" repeatCount="indefinite" /></circle></marker></defs><rect x="4" y="4" width="100" height="100" /><path d="M34.09,16.25c0.05,0.52,0.27,1.44-0.11,2.08c-2.68,4.5-10.75,15.33-18.61,19.92" class="grey" /><path d="M38.84,33.75c0.07,0.75,0.33,2.1-0.14,3.03c-3.32,6.54-12.04,17.91-24.2,28.97" class="grey" /><path d="M27.72,56c0.36,0.25,0.57,1.15,0.65,1.66c0.07,0.51,0,36.65-0.07,39.84" class="grey" /><path d="M52.88,25.59c0.04,0.73,0.19,1.9-0.08,2.92c-1.8,6.99-6.3,17.24-14.22,27.9" class="grey" /><path d="M50.3,44.53c1,0.6,2.82,0.72,3.82,0.6c7.19-0.86,26.5-4.91,32.7-5.83c1.65-0.25,2.34-0.14,3.22-0.04" class="grey" /><path d="M49.55,66.98c0.86,0.35,2.44,0.42,3.3,0.35c6.2-0.5,25.9-3.61,31.25-4.15c1.43-0.14,2.02-0.08,2.78-0.02" class="grey" /><path d="M38.75,94.3c1.17,0.44,3.33,1.06,4.5,0.94C54.5,94,78.75,91.5,90.96,91.56c1.95,0.01,3.59,0.36,5.39,1.42" class="grey" /><path d="M64.99,14.88c0.8,0.55,2.15,1.87,2.15,5.24c0,1.12-0.1,64.75-0.26,71.65" class="grey" /><path d="M34.09,16.25c0.05,0.52,0.27,1.44-0.11,2.08c-2.68,4.5-10.75,15.33-18.61,19.92" class="stroke" stroke-dasharray="150"><animate attributeName="stroke-dashoffset" from="150" to="0" dur="1.8s" begin="0.0s" fill="freeze" /></path><path d="M38.84,33.75c0.07,0.75,0.33,2.1-0.14,3.03c-3.32,6.54-12.04,17.91-24.2,28.97" class="stroke" stroke-dasharray="150"><set attributeName="opacity" to="0" dur="1.0s" /><animate attributeName="stroke-dashoffset" from="150" to="0" dur="1.8s" begin="1.0s" fill="freeze" /></path><path d="M27.72,56c0.36,0.25,0.57,1.15,0.65,1.66c0.07,0.51,0,36.65-0.07,39.84" class="stroke" stroke-dasharray="150"><set attributeName="opacity" to="0" dur="2.1s" /><animate attributeName="stroke-dashoffset" from="150" to="0" dur="1.8s" begin="2.1s" fill="freeze" /></path><path d="M52.88,25.59c0.04,0.73,0.19,1.9-0.08,2.92c-1.8,6.99-6.3,17.24-14.22,27.9" class="stroke" stroke-dasharray="150"><set attributeName="opacity" to="0" dur="3.2s" /><animate attributeName="stroke-dashoffset" from="150" to="0" dur="1.8s" begin="3.2s" fill="freeze" /></path><path d="M50.3,44.53c1,0.6,2.82,0.72,3.82,0.6c7.19-0.86,26.5-4.91,32.7-5.83c1.65-0.25,2.34-0.14,3.22-0.04" class="stroke" stroke-dasharray="150"><set attributeName="opacity" to="0" dur="4.2s" /><animate attributeName="stroke-dashoffset" from="150" to="0" dur="1.8s" begin="4.2s" fill="freeze" /></path><path d="M49.55,66.98c0.86,0.35,2.44,0.42,3.3,0.35c6.2-0.5,25.9-3.61,31.25-4.15c1.43-0.14,2.02-0.08,2.78-0.02" class="stroke" stroke-dasharray="150"><set attributeName="opacity" to="0" dur="5.300000000000001s" /><animate attributeName="stroke-dashoffset" from="150" to="0" dur="1.8s" begin="5.300000000000001s" fill="freeze" /></path><path d="M38.75,94.3c1.17,0.44,3.33,1.06,4.5,0.94C54.5,94,78.75,91.5,90.96,91.56c1.95,0.01,3.59,0.36,5.39,1.42" class="stroke" stroke-dasharray="150"><set attributeName="opacity" to="0" dur="6.300000000000001s" /><animate attributeName="stroke-dashoffset" from="150" to="0" dur="1.8s" begin="6.300000000000001s" fill="freeze" /></path><path d="M64.99,14.88c0.8,0.55,2.15,1.87,2.15,5.24c0,1.12-0.1,64.75-0.26,71.65" class="stroke" stroke-dasharray="150"><set attributeName="opacity" to="0" dur="7.700000000000001s" /><animate attributeName="stroke-dashoffset" from="150" to="0" dur="1.8s" begin="7.700000000000001s" fill="freeze" /></path><text x="90" y="120" id="reset-kvg-05f83-VtLst">⟳</text><text x="70" y="120" id="pause-kvg-05f83-VtLst">◼</text><script type="text/javascript"><![CDATA[function RecurringTimer(e,t){var n,r,i=t;this.pause=function(){window.clearTimeout(n);i-=new Date-r};var s=function(){r=new Date;n=window.setTimeout(function(){i=t;s();e()},i)};this.clear=function(){window.clearTimeout(n);i=t;n=window.setTimeout(function(){i=t;s();e()},i)};this.resume=s;this.resume()}function invoketimer(){timer=new RecurringTimer(function(){svg.setCurrentTime(0)},10400.0)}var svg=document.getElementById("kvg-05f83-VtLst");var pause=document.getElementById("pause-kvg-05f83-VtLst");var reset=document.getElementById("reset-kvg-05f83-VtLst");var timer;invoketimer();reset.onclick=function(){svg.setCurrentTime(0);timer.clear();svg.unpauseAnimations();pause.innerHTML = "◼";};pause.onclick=function(){if(svg.animationsPaused()){svg.unpauseAnimations();timer.resume();pause.innerHTML="◼"}else{svg.pauseAnimations();timer.pause();pause.innerHTML="▶"}}]]></script></svg>