<svg id="kvg-05fbd-Kaisho" class="kanjivg" width="106" height="126" xmlns="http://www.w3.org/2000/svg" xmlns:xlink="http://www.w3.org/1999/xlink" xml:space="preserve" version="1.1" baseProfile="full"><defs><style type="text/css"><![CDATA[path.black{fill:none;stroke:black;stroke-width:5;stroke-linecap:round;stroke-linejoin:round;}path.grey{fill:none;stroke:#ddd;stroke-width:5;stroke-linecap:round;stroke-linejoin:round;}path.stroke{fill:none;stroke:black;stroke-width:5;stroke-linecap:round;stroke-linejoin:round;}rect{fill:none;stroke:#555;stroke-width:2;} text{font-size:16px;font-family:Segoe UI Symbol,Cambria Math,DejaVu Sans,Symbola,Quivira,STIX,Code2000;-webkit-touch-callout:none;cursor:pointer;-webkit-user-select:none;-khtml-user-select:none;-moz-user-select:none;-ms-user-select:none;user-select: none;}text:hover{color:#777;}#reset{font-weight:bold;}]]></style><marker id="markerStart" markerWidth="8" markerHeight="8" style="overflow:visible;"><circle cx="0" cy="0" r="1.5" style="stroke:none;fill:red;fill-opacity:0.5;"/></marker><marker id="markerEnd" style="overflow:visible;"><circle cx="0" cy="0" r="0.8" style="stroke:none;fill:blue;fill-opacity:0.5;"><animate attributeName="opacity" from="1" to="0" dur="3s" repeatCount="indefinite" /></circle></marker></defs><rect x="4" y="4" width="100" height="100" /><path d="M28.11,17.25c0.04,0.5,0.21,1.4-0.08,2.01C25.95,23.6,19.7,34.07,13.62,38.5" class="grey" /><path d="M30.36,35.25c0.06,0.68,0.29,1.89-0.12,2.72C27.4,43.85,19.93,54.06,9.5,64" class="grey" /><path d="M23.22,53.5c0.36,0.25,0.57,1.15,0.65,1.66c0.07,0.51,0,35.15-0.07,38.34" class="grey" /><path d="M49.98,13.67c0.27,0.33,0.89,1.73,0.89,3.13c0,0.67-0.03,10.57-0.09,14.69" class="grey" /><path d="M37.98,20.89c0.29,0.36,0.62,1.89,0.58,2.61c-0.19,3.21-0.39,4.1-0.73,7.13c-0.19,1.61-0.15,3.23,0.58,3.01c2.59-0.8,21.01-2.62,24.66-2.82" class="grey" /><path d="M64.19,17.8c0.29,0.36,0.62,2.68,0.58,3.41c-0.22,4.6-1.83,8.3-2.11,12.38" class="grey" /><path d="M37.8,40.27c0.95,0.14,2.7,0,3.21-0.02c5.3-0.23,11.46-1.71,19.55-2.08c0.91-0.04,1.47-0.01,1.7,0.04" class="grey" /><path d="M47.07,42c0.25,0.71,0.26,1.23-0.13,2c-1.7,3.4-5.7,7.46-9.03,10.17c-0.46,0.38-0.5,1.63,0,1.77c2.63,0.71,6.67,1.64,8.93,2.93" class="grey" /><path d="M58.49,48.89c0.29,0.36,0.36,1.53,0,1.92c-5.59,6.04-14.92,13.76-22.61,18.89c-1.76,1.18,0.44,1.85,1.59,1.61c4.81-1,16.25-2.79,22.44-3.75" class="grey" /><path d="M56.41,61.88c2.52,1.74,6.5,7.14,7.13,9.85" class="grey" /><path d="M48.24,72.24c0.06,0.22,0.88,1.15,0.94,2.54c0.3,6.7-0.19,13.36-0.19,15.65c0,10.58-4.11,2.45-5.24,1.33" class="grey" /><path d="M38.77,79.48c0.14,0.58,0.12,1.73-0.14,2.15c-1.65,2.72-5.79,7.98-8.13,10.31" class="grey" /><path d="M56.94,76.55c2.74,2.16,4.85,7.16,5.49,9.11" class="grey" /><path d="M77.19,16.89c0.03,0.78,0.18,2.04-0.07,3.13c-1.78,7.89-5.78,21.25-11.94,30.76" class="grey" /><path d="M72.05,38.89c0.92,0.23,2.62,0,3.12-0.03c5.14-0.37,11.11-2.74,18.96-3.33c0.88-0.07,1.42-0.02,1.65,0.06" class="grey" /><path d="M84.9,40.38c0.36,1.26,0.56,2.16,0.18,4.46C81.66,65.74,73.91,83.72,62.6,92.5" class="grey" /><path d="M67.4,54.22c1.1,0,1.74,0.91,2.61,2.16c5.89,8.44,16.72,24.75,24.58,32.75c1.45,1.47,2.98,2.45,4.2,2.6" class="grey" /><path d="M28.11,17.25c0.04,0.5,0.21,1.4-0.08,2.01C25.95,23.6,19.7,34.07,13.62,38.5" class="stroke" stroke-dasharray="150"><animate attributeName="stroke-dashoffset" from="150" to="0" dur="1.8s" begin="0.0s" fill="freeze" /></path><path d="M30.36,35.25c0.06,0.68,0.29,1.89-0.12,2.72C27.4,43.85,19.93,54.06,9.5,64" class="stroke" stroke-dasharray="150"><set attributeName="opacity" to="0" dur="1.0s" /><animate attributeName="stroke-dashoffset" from="150" to="0" dur="1.8s" begin="1.0s" fill="freeze" /></path><path d="M23.22,53.5c0.36,0.25,0.57,1.15,0.65,1.66c0.07,0.51,0,35.15-0.07,38.34" class="stroke" stroke-dasharray="150"><set attributeName="opacity" to="0" dur="2.0s" /><animate attributeName="stroke-dashoffset" from="150" to="0" dur="1.8s" begin="2.0s" fill="freeze" /></path><path d="M49.98,13.67c0.27,0.33,0.89,1.73,0.89,3.13c0,0.67-0.03,10.57-0.09,14.69" class="stroke" stroke-dasharray="150"><set attributeName="opacity" to="0" dur="3.1s" /><animate attributeName="stroke-dashoffset" from="150" to="0" dur="1.8s" begin="3.1s" fill="freeze" /></path><path d="M37.98,20.89c0.29,0.36,0.62,1.89,0.58,2.61c-0.19,3.21-0.39,4.1-0.73,7.13c-0.19,1.61-0.15,3.23,0.58,3.01c2.59-0.8,21.01-2.62,24.66-2.82" class="stroke" stroke-dasharray="150"><set attributeName="opacity" to="0" dur="4.0s" /><animate attributeName="stroke-dashoffset" from="150" to="0" dur="1.8s" begin="4.0s" fill="freeze" /></path><path d="M64.19,17.8c0.29,0.36,0.62,2.68,0.58,3.41c-0.22,4.6-1.83,8.3-2.11,12.38" class="stroke" stroke-dasharray="150"><set attributeName="opacity" to="0" dur="5.0s" /><animate attributeName="stroke-dashoffset" from="150" to="0" dur="1.8s" begin="5.0s" fill="freeze" /></path><path d="M37.8,40.27c0.95,0.14,2.7,0,3.21-0.02c5.3-0.23,11.46-1.71,19.55-2.08c0.91-0.04,1.47-0.01,1.7,0.04" class="stroke" stroke-dasharray="150"><set attributeName="opacity" to="0" dur="5.9s" /><animate attributeName="stroke-dashoffset" from="150" to="0" dur="1.8s" begin="5.9s" fill="freeze" /></path><path d="M47.07,42c0.25,0.71,0.26,1.23-0.13,2c-1.7,3.4-5.7,7.46-9.03,10.17c-0.46,0.38-0.5,1.63,0,1.77c2.63,0.71,6.67,1.64,8.93,2.93" class="stroke" stroke-dasharray="150"><set attributeName="opacity" to="0" dur="6.9s" /><animate attributeName="stroke-dashoffset" from="150" to="0" dur="1.8s" begin="6.9s" fill="freeze" /></path><path d="M58.49,48.89c0.29,0.36,0.36,1.53,0,1.92c-5.59,6.04-14.92,13.76-22.61,18.89c-1.76,1.18,0.44,1.85,1.59,1.61c4.81-1,16.25-2.79,22.44-3.75" class="stroke" stroke-dasharray="150"><set attributeName="opacity" to="0" dur="7.9s" /><animate attributeName="stroke-dashoffset" from="150" to="0" dur="1.8s" begin="7.9s" fill="freeze" /></path><path d="M56.41,61.88c2.52,1.74,6.5,7.14,7.13,9.85" class="stroke" stroke-dasharray="150"><set attributeName="opacity" to="0" dur="9.3s" /><animate attributeName="stroke-dashoffset" from="150" to="0" dur="1.8s" begin="9.3s" fill="freeze" /></path><path d="M48.24,72.24c0.06,0.22,0.88,1.15,0.94,2.54c0.3,6.7-0.19,13.36-0.19,15.65c0,10.58-4.11,2.45-5.24,1.33" class="stroke" stroke-dasharray="150"><set attributeName="opacity" to="0" dur="10.200000000000001s" /><animate attributeName="stroke-dashoffset" from="150" to="0" dur="1.8s" begin="10.200000000000001s" fill="freeze" /></path><path d="M38.77,79.48c0.14,0.58,0.12,1.73-0.14,2.15c-1.65,2.72-5.79,7.98-8.13,10.31" class="stroke" stroke-dasharray="150"><set attributeName="opacity" to="0" dur="11.200000000000001s" /><animate attributeName="stroke-dashoffset" from="150" to="0" dur="1.8s" begin="11.200000000000001s" fill="freeze" /></path><path d="M56.94,76.55c2.74,2.16,4.85,7.16,5.49,9.11" class="stroke" stroke-dasharray="150"><set attributeName="opacity" to="0" dur="12.100000000000001s" /><animate attributeName="stroke-dashoffset" from="150" to="0" dur="1.8s" begin="12.100000000000001s" fill="freeze" /></path><path d="M77.19,16.89c0.03,0.78,0.18,2.04-0.07,3.13c-1.78,7.89-5.78,21.25-11.94,30.76" class="stroke" stroke-dasharray="150"><set attributeName="opacity" to="0" dur="13.000000000000002s" /><animate attributeName="stroke-dashoffset" from="150" to="0" dur="1.8s" begin="13.000000000000002s" fill="freeze" /></path><path d="M72.05,38.89c0.92,0.23,2.62,0,3.12-0.03c5.14-0.37,11.11-2.74,18.96-3.33c0.88-0.07,1.42-0.02,1.65,0.06" class="stroke" stroke-dasharray="150"><set attributeName="opacity" to="0" dur="14.000000000000002s" /><animate attributeName="stroke-dashoffset" from="150" to="0" dur="1.8s" begin="14.000000000000002s" fill="freeze" /></path><path d="M84.9,40.38c0.36,1.26,0.56,2.16,0.18,4.46C81.66,65.74,73.91,83.72,62.6,92.5" class="stroke" stroke-dasharray="150"><set attributeName="opacity" to="0" dur="15.000000000000002s" /><animate attributeName="stroke-dashoffset" from="150" to="0" dur="1.8s" begin="15.000000000000002s" fill="freeze" /></path><path d="M67.4,54.22c1.1,0,1.74,0.91,2.61,2.16c5.89,8.44,16.72,24.75,24.58,32.75c1.45,1.47,2.98,2.45,4.2,2.6" class="stroke" stroke-dasharray="150"><set attributeName="opacity" to="0" dur="16.400000000000002s" /><animate attributeName="stroke-dashoffset" from="150" to="0" dur="1.8s" begin="16.400000000000002s" fill="freeze" /></path><text x="90" y="120" id="reset-kvg-05fbd-Kaisho">⟳</text><text x="70" y="120" id="pause-kvg-05fbd-Kaisho">◼</text><script type="text/javascript"><![CDATA[function RecurringTimer(e,t){var n,r,i=t;this.pause=function(){window.clearTimeout(n);i-=new Date-r};var s=function(){r=new Date;n=window.setTimeout(function(){i=t;s();e()},i)};this.clear=function(){window.clearTimeout(n);i=t;n=window.setTimeout(function(){i=t;s();e()},i)};this.resume=s;this.resume()}function invoketimer(){timer=new RecurringTimer(function(){svg.setCurrentTime(0)},18600.0)}var svg=document.getElementById("kvg-05fbd-Kaisho");var pause=document.getElementById("pause-kvg-05fbd-Kaisho");var reset=document.getElementById("reset-kvg-05fbd-Kaisho");var timer;invoketimer();reset.onclick=function(){svg.setCurrentTime(0);timer.clear();svg.unpauseAnimations();pause.innerHTML = "◼";};pause.onclick=function(){if(svg.animationsPaused()){svg.unpauseAnimations();timer.resume();pause.innerHTML="◼"}else{svg.pauseAnimations();timer.pause();pause.innerHTML="▶"}}]]></script></svg>