<svg id="kvg-06019" class="kanjivg" width="106" height="126" xmlns="http://www.w3.org/2000/svg" xmlns:xlink="http://www.w3.org/1999/xlink" xml:space="preserve" version="1.1" baseProfile="full"><defs><style type="text/css"><![CDATA[path.black{fill:none;stroke:black;stroke-width:5;stroke-linecap:round;stroke-linejoin:round;}path.grey{fill:none;stroke:#ddd;stroke-width:5;stroke-linecap:round;stroke-linejoin:round;}path.stroke{fill:none;stroke:black;stroke-width:5;stroke-linecap:round;stroke-linejoin:round;}rect{fill:none;stroke:#555;stroke-width:2;} text{font-size:16px;font-family:Segoe UI Symbol,Cambria Math,DejaVu Sans,Symbola,Quivira,STIX,Code2000;-webkit-touch-callout:none;cursor:pointer;-webkit-user-select:none;-khtml-user-select:none;-moz-user-select:none;-ms-user-select:none;user-select: none;}text:hover{color:#777;}#reset{font-weight:bold;}]]></style><marker id="markerStart" markerWidth="8" markerHeight="8" style="overflow:visible;"><circle cx="0" cy="0" r="1.5" style="stroke:none;fill:red;fill-opacity:0.5;"/></marker><marker id="markerEnd" style="overflow:visible;"><circle cx="0" cy="0" r="0.8" style="stroke:none;fill:blue;fill-opacity:0.5;"><animate attributeName="opacity" from="1" to="0" dur="3s" repeatCount="indefinite" /></circle></marker></defs><rect x="4" y="4" width="100" height="100" /><path d="M19.22,35.5c0,6.34-4.11,15.69-5.19,17.5" class="grey" /><path d="M29.77,30.33c3.28,2.41,8.47,9.89,9.29,13.63" class="grey" /><path d="M25.87,13.25c1.09,0.5,1.74,2.25,1.96,3.25c0.22,1,0,75.25-0.22,81.5" class="grey" /><path d="M45.05,38.53c0.71,0.11,2.6,0.4,4.47,0.34c10.77-0.36,30.62-3.21,41.69-3.21c1.89,0,2.36-0.11,3.53,0" class="grey" /><path d="M66.15,13c1.43,0.66,2.58,2.93,2.58,4.28c0,22.97-0.29,38.47-0.29,48.33" class="grey" /><path d="M50.54,66.39c0.3,0.8,0.65,1.36,0.75,1.97c0.75,4.46,2.41,17.94,3.46,26.39" class="grey" /><path d="M52.06,67.69c8.39-0.89,28.24-3.17,33.96-3.31c2.37-0.06,3.64,1.26,3.43,2.62c-0.78,5.13-3.3,15.87-4.58,22.68" class="grey" /><path d="M54.7,92.97c6.94-0.38,24.39-1.65,32.72-2.13" class="grey" /><path d="M19.22,35.5c0,6.34-4.11,15.69-5.19,17.5" class="stroke" stroke-dasharray="150"><animate attributeName="stroke-dashoffset" from="150" to="0" dur="1.8s" begin="0.0s" fill="freeze" /></path><path d="M29.77,30.33c3.28,2.41,8.47,9.89,9.29,13.63" class="stroke" stroke-dasharray="150"><set attributeName="opacity" to="0" dur="0.9s" /><animate attributeName="stroke-dashoffset" from="150" to="0" dur="1.8s" begin="0.9s" fill="freeze" /></path><path d="M25.87,13.25c1.09,0.5,1.74,2.25,1.96,3.25c0.22,1,0,75.25-0.22,81.5" class="stroke" stroke-dasharray="150"><set attributeName="opacity" to="0" dur="1.8s" /><animate attributeName="stroke-dashoffset" from="150" to="0" dur="1.8s" begin="1.8s" fill="freeze" /></path><path d="M45.05,38.53c0.71,0.11,2.6,0.4,4.47,0.34c10.77-0.36,30.62-3.21,41.69-3.21c1.89,0,2.36-0.11,3.53,0" class="stroke" stroke-dasharray="150"><set attributeName="opacity" to="0" dur="3.5s" /><animate attributeName="stroke-dashoffset" from="150" to="0" dur="1.8s" begin="3.5s" fill="freeze" /></path><path d="M66.15,13c1.43,0.66,2.58,2.93,2.58,4.28c0,22.97-0.29,38.47-0.29,48.33" class="stroke" stroke-dasharray="150"><set attributeName="opacity" to="0" dur="4.7s" /><animate attributeName="stroke-dashoffset" from="150" to="0" dur="1.8s" begin="4.7s" fill="freeze" /></path><path d="M50.54,66.39c0.3,0.8,0.65,1.36,0.75,1.97c0.75,4.46,2.41,17.94,3.46,26.39" class="stroke" stroke-dasharray="150"><set attributeName="opacity" to="0" dur="6.0s" /><animate attributeName="stroke-dashoffset" from="150" to="0" dur="1.8s" begin="6.0s" fill="freeze" /></path><path d="M52.06,67.69c8.39-0.89,28.24-3.17,33.96-3.31c2.37-0.06,3.64,1.26,3.43,2.62c-0.78,5.13-3.3,15.87-4.58,22.68" class="stroke" stroke-dasharray="150"><set attributeName="opacity" to="0" dur="7.0s" /><animate attributeName="stroke-dashoffset" from="150" to="0" dur="1.8s" begin="7.0s" fill="freeze" /></path><path d="M54.7,92.97c6.94-0.38,24.39-1.65,32.72-2.13" class="stroke" stroke-dasharray="150"><set attributeName="opacity" to="0" dur="8.5s" /><animate attributeName="stroke-dashoffset" from="150" to="0" dur="1.8s" begin="8.5s" fill="freeze" /></path><text x="90" y="120" id="reset-kvg-06019">⟳</text><text x="70" y="120" id="pause-kvg-06019">◼</text><script type="text/javascript"><![CDATA[function RecurringTimer(e,t){var n,r,i=t;this.pause=function(){window.clearTimeout(n);i-=new Date-r};var s=function(){r=new Date;n=window.setTimeout(function(){i=t;s();e()},i)};this.clear=function(){window.clearTimeout(n);i=t;n=window.setTimeout(function(){i=t;s();e()},i)};this.resume=s;this.resume()}function invoketimer(){timer=new RecurringTimer(function(){svg.setCurrentTime(0)},10500.0)}var svg=document.getElementById("kvg-06019");var pause=document.getElementById("pause-kvg-06019");var reset=document.getElementById("reset-kvg-06019");var timer;invoketimer();reset.onclick=function(){svg.setCurrentTime(0);timer.clear();svg.unpauseAnimations();pause.innerHTML = "◼";};pause.onclick=function(){if(svg.animationsPaused()){svg.unpauseAnimations();timer.resume();pause.innerHTML="◼"}else{svg.pauseAnimations();timer.pause();pause.innerHTML="▶"}}]]></script></svg>