<svg id="kvg-0604d" class="kanjivg" width="106" height="126" xmlns="http://www.w3.org/2000/svg" xmlns:xlink="http://www.w3.org/1999/xlink" xml:space="preserve" version="1.1" baseProfile="full"><defs><style type="text/css"><![CDATA[path.black{fill:none;stroke:black;stroke-width:5;stroke-linecap:round;stroke-linejoin:round;}path.grey{fill:none;stroke:#ddd;stroke-width:5;stroke-linecap:round;stroke-linejoin:round;}path.stroke{fill:none;stroke:black;stroke-width:5;stroke-linecap:round;stroke-linejoin:round;}rect{fill:none;stroke:#555;stroke-width:2;} text{font-size:16px;font-family:Segoe UI Symbol,Cambria Math,DejaVu Sans,Symbola,Quivira,STIX,Code2000;-webkit-touch-callout:none;cursor:pointer;-webkit-user-select:none;-khtml-user-select:none;-moz-user-select:none;-ms-user-select:none;user-select: none;}text:hover{color:#777;}#reset{font-weight:bold;}]]></style><marker id="markerStart" markerWidth="8" markerHeight="8" style="overflow:visible;"><circle cx="0" cy="0" r="1.5" style="stroke:none;fill:red;fill-opacity:0.5;"/></marker><marker id="markerEnd" style="overflow:visible;"><circle cx="0" cy="0" r="0.8" style="stroke:none;fill:blue;fill-opacity:0.5;"><animate attributeName="opacity" from="1" to="0" dur="3s" repeatCount="indefinite" /></circle></marker></defs><rect x="4" y="4" width="100" height="100" /><path d="M15.72,36c0.03,4.31-2.47,14.14-4.69,17.5" class="grey" /><path d="M29.27,30.33c2.22,1.96,5.74,8.08,6.29,11.13" class="grey" /><path d="M21.37,13.75c1.09,0.5,1.74,2.25,1.96,3.25c0.22,1,0,72.25-0.22,78.5" class="grey" /><path d="M62.25,14.37c1.25,0.63,1.91,2.85,1.97,4.49c0.31,7.9-0.2,25.57-0.2,28.26" class="grey" /><path d="M42.94,26.83c3.27,2.32,8.44,9.53,9.26,13.13" class="grey" /><path d="M84.17,23.25c0.03,0.38,0.06,0.97-0.06,1.51c-0.73,3.19-4.9,10.18-10.62,14.46" class="grey" /><path d="M37.38,48.98c1.09,0.54,3.09,0.59,4.18,0.54C53.25,49,76,45.25,91.43,45.29c1.82,0,2.91,0.26,3.82,0.53" class="grey" /><path d="M55.84,52.5c0.06,0.98,0.17,2.55-0.12,3.95c-2.43,11.88-7.22,29.8-21.21,37.8" class="grey" /><path d="M69.82,49.87c0.52,1.19,0.94,2.59,0.97,4.43c0.09,5.5-0.33,19.39-0.33,27.19c0,12.01,2.54,12.54,12.75,12.54c10.04,0,11.68-0.78,11.68-12.62" class="grey" /><path d="M15.72,36c0.03,4.31-2.47,14.14-4.69,17.5" class="stroke" stroke-dasharray="150"><animate attributeName="stroke-dashoffset" from="150" to="0" dur="1.8s" begin="0.0s" fill="freeze" /></path><path d="M29.27,30.33c2.22,1.96,5.74,8.08,6.29,11.13" class="stroke" stroke-dasharray="150"><set attributeName="opacity" to="0" dur="0.9s" /><animate attributeName="stroke-dashoffset" from="150" to="0" dur="1.8s" begin="0.9s" fill="freeze" /></path><path d="M21.37,13.75c1.09,0.5,1.74,2.25,1.96,3.25c0.22,1,0,72.25-0.22,78.5" class="stroke" stroke-dasharray="150"><set attributeName="opacity" to="0" dur="1.8s" /><animate attributeName="stroke-dashoffset" from="150" to="0" dur="1.8s" begin="1.8s" fill="freeze" /></path><path d="M62.25,14.37c1.25,0.63,1.91,2.85,1.97,4.49c0.31,7.9-0.2,25.57-0.2,28.26" class="stroke" stroke-dasharray="150"><set attributeName="opacity" to="0" dur="3.5s" /><animate attributeName="stroke-dashoffset" from="150" to="0" dur="1.8s" begin="3.5s" fill="freeze" /></path><path d="M42.94,26.83c3.27,2.32,8.44,9.53,9.26,13.13" class="stroke" stroke-dasharray="150"><set attributeName="opacity" to="0" dur="4.5s" /><animate attributeName="stroke-dashoffset" from="150" to="0" dur="1.8s" begin="4.5s" fill="freeze" /></path><path d="M84.17,23.25c0.03,0.38,0.06,0.97-0.06,1.51c-0.73,3.19-4.9,10.18-10.62,14.46" class="stroke" stroke-dasharray="150"><set attributeName="opacity" to="0" dur="5.4s" /><animate attributeName="stroke-dashoffset" from="150" to="0" dur="1.8s" begin="5.4s" fill="freeze" /></path><path d="M37.38,48.98c1.09,0.54,3.09,0.59,4.18,0.54C53.25,49,76,45.25,91.43,45.29c1.82,0,2.91,0.26,3.82,0.53" class="stroke" stroke-dasharray="150"><set attributeName="opacity" to="0" dur="6.300000000000001s" /><animate attributeName="stroke-dashoffset" from="150" to="0" dur="1.8s" begin="6.300000000000001s" fill="freeze" /></path><path d="M55.84,52.5c0.06,0.98,0.17,2.55-0.12,3.95c-2.43,11.88-7.22,29.8-21.21,37.8" class="stroke" stroke-dasharray="150"><set attributeName="opacity" to="0" dur="7.700000000000001s" /><animate attributeName="stroke-dashoffset" from="150" to="0" dur="1.8s" begin="7.700000000000001s" fill="freeze" /></path><path d="M69.82,49.87c0.52,1.19,0.94,2.59,0.97,4.43c0.09,5.5-0.33,19.39-0.33,27.19c0,12.01,2.54,12.54,12.75,12.54c10.04,0,11.68-0.78,11.68-12.62" class="stroke" stroke-dasharray="150"><set attributeName="opacity" to="0" dur="8.9s" /><animate attributeName="stroke-dashoffset" from="150" to="0" dur="1.8s" begin="8.9s" fill="freeze" /></path><text x="90" y="120" id="reset-kvg-0604d">⟳</text><text x="70" y="120" id="pause-kvg-0604d">◼</text><script type="text/javascript"><![CDATA[function RecurringTimer(e,t){var n,r,i=t;this.pause=function(){window.clearTimeout(n);i-=new Date-r};var s=function(){r=new Date;n=window.setTimeout(function(){i=t;s();e()},i)};this.clear=function(){window.clearTimeout(n);i=t;n=window.setTimeout(function(){i=t;s();e()},i)};this.resume=s;this.resume()}function invoketimer(){timer=new RecurringTimer(function(){svg.setCurrentTime(0)},11600.0)}var svg=document.getElementById("kvg-0604d");var pause=document.getElementById("pause-kvg-0604d");var reset=document.getElementById("reset-kvg-0604d");var timer;invoketimer();reset.onclick=function(){svg.setCurrentTime(0);timer.clear();svg.unpauseAnimations();pause.innerHTML = "◼";};pause.onclick=function(){if(svg.animationsPaused()){svg.unpauseAnimations();timer.resume();pause.innerHTML="◼"}else{svg.pauseAnimations();timer.pause();pause.innerHTML="▶"}}]]></script></svg>