<svg id="kvg-06041" class="kanjivg" width="106" height="126" xmlns="http://www.w3.org/2000/svg" xmlns:xlink="http://www.w3.org/1999/xlink" xml:space="preserve" version="1.1" baseProfile="full"><defs><style type="text/css"><![CDATA[path.black{fill:none;stroke:black;stroke-width:5;stroke-linecap:round;stroke-linejoin:round;}path.grey{fill:none;stroke:#ddd;stroke-width:5;stroke-linecap:round;stroke-linejoin:round;}path.stroke{fill:none;stroke:black;stroke-width:5;stroke-linecap:round;stroke-linejoin:round;}rect{fill:none;stroke:#555;stroke-width:2;} text{font-size:16px;font-family:Segoe UI Symbol,Cambria Math,DejaVu Sans,Symbola,Quivira,STIX,Code2000;-webkit-touch-callout:none;cursor:pointer;-webkit-user-select:none;-khtml-user-select:none;-moz-user-select:none;-ms-user-select:none;user-select: none;}text:hover{color:#777;}#reset{font-weight:bold;}]]></style><marker id="markerStart" markerWidth="8" markerHeight="8" style="overflow:visible;"><circle cx="0" cy="0" r="1.5" style="stroke:none;fill:red;fill-opacity:0.5;"/></marker><marker id="markerEnd" style="overflow:visible;"><circle cx="0" cy="0" r="0.8" style="stroke:none;fill:blue;fill-opacity:0.5;"><animate attributeName="opacity" from="1" to="0" dur="3s" repeatCount="indefinite" /></circle></marker></defs><rect x="4" y="4" width="100" height="100" /><path d="M37.36,13.41c0.26,1.63-0.07,3.77-0.91,5.17C31.07,27.49,25.31,36.27,13,47.12" class="grey" /><path d="M28.47,32.42c0.1,0.59,0.61,1.35,0.67,2.23c0.46,7.86-0.9,25.99-0.48,30.59" class="grey" /><path d="M77.84,13.25c0.09,0.31,0.36,0.91-0.18,1.26c-6.69,4.44-16.58,8.52-34.02,12.1" class="grey" /><path d="M37.61,41.2c1.24,0.33,3.52,0.38,4.77,0.33c12.94-0.55,29.03-3.22,43.82-3.2c2.08,0,3.32,0.16,4.35,0.32" class="grey" /><path d="M61.1,24.65c0.79,0.29,1.27,1.31,1.42,1.9c0.16,0.58,0,29.01-0.16,32.66" class="grey" /><path d="M43.52,60.18c1.01,0.26,2.85,0.28,3.86,0.26c13.31-0.31,19.45-1.83,33.49-1.8c1.68,0,2.68,0.12,3.52,0.25" class="grey" /><path d="M22.9,79.57c0.32,2.28-3.23,12.36-5.82,16.17" class="grey" /><path d="M35.08,73.5c6.67,13.39,17.22,25.02,42.94,25.18c12.41,0.08,13.22-3.57,2.87-9.67" class="grey" /><path d="M57.41,73.25c2.17,5.25,5.32,10.5,7.63,2.46" class="grey" /><path d="M81.88,68.73c4.63,2.07,8.09,3.96,11.85,10.36" class="grey" /><path d="M37.36,13.41c0.26,1.63-0.07,3.77-0.91,5.17C31.07,27.49,25.31,36.27,13,47.12" class="stroke" stroke-dasharray="150"><animate attributeName="stroke-dashoffset" from="150" to="0" dur="1.8s" begin="0.0s" fill="freeze" /></path><path d="M28.47,32.42c0.1,0.59,0.61,1.35,0.67,2.23c0.46,7.86-0.9,25.99-0.48,30.59" class="stroke" stroke-dasharray="150"><set attributeName="opacity" to="0" dur="1.1s" /><animate attributeName="stroke-dashoffset" from="150" to="0" dur="1.8s" begin="1.1s" fill="freeze" /></path><path d="M77.84,13.25c0.09,0.31,0.36,0.91-0.18,1.26c-6.69,4.44-16.58,8.52-34.02,12.1" class="stroke" stroke-dasharray="150"><set attributeName="opacity" to="0" dur="2.1s" /><animate attributeName="stroke-dashoffset" from="150" to="0" dur="1.8s" begin="2.1s" fill="freeze" /></path><path d="M37.61,41.2c1.24,0.33,3.52,0.38,4.77,0.33c12.94-0.55,29.03-3.22,43.82-3.2c2.08,0,3.32,0.16,4.35,0.32" class="stroke" stroke-dasharray="150"><set attributeName="opacity" to="0" dur="3.1s" /><animate attributeName="stroke-dashoffset" from="150" to="0" dur="1.8s" begin="3.1s" fill="freeze" /></path><path d="M61.1,24.65c0.79,0.29,1.27,1.31,1.42,1.9c0.16,0.58,0,29.01-0.16,32.66" class="stroke" stroke-dasharray="150"><set attributeName="opacity" to="0" dur="4.4s" /><animate attributeName="stroke-dashoffset" from="150" to="0" dur="1.8s" begin="4.4s" fill="freeze" /></path><path d="M43.52,60.18c1.01,0.26,2.85,0.28,3.86,0.26c13.31-0.31,19.45-1.83,33.49-1.8c1.68,0,2.68,0.12,3.52,0.25" class="stroke" stroke-dasharray="150"><set attributeName="opacity" to="0" dur="5.4s" /><animate attributeName="stroke-dashoffset" from="150" to="0" dur="1.8s" begin="5.4s" fill="freeze" /></path><path d="M22.9,79.57c0.32,2.28-3.23,12.36-5.82,16.17" class="stroke" stroke-dasharray="150"><set attributeName="opacity" to="0" dur="6.5s" /><animate attributeName="stroke-dashoffset" from="150" to="0" dur="1.8s" begin="6.5s" fill="freeze" /></path><path d="M35.08,73.5c6.67,13.39,17.22,25.02,42.94,25.18c12.41,0.08,13.22-3.57,2.87-9.67" class="stroke" stroke-dasharray="150"><set attributeName="opacity" to="0" dur="7.4s" /><animate attributeName="stroke-dashoffset" from="150" to="0" dur="1.8s" begin="7.4s" fill="freeze" /></path><path d="M57.41,73.25c2.17,5.25,5.32,10.5,7.63,2.46" class="stroke" stroke-dasharray="150"><set attributeName="opacity" to="0" dur="9.1s" /><animate attributeName="stroke-dashoffset" from="150" to="0" dur="1.8s" begin="9.1s" fill="freeze" /></path><path d="M81.88,68.73c4.63,2.07,8.09,3.96,11.85,10.36" class="stroke" stroke-dasharray="150"><set attributeName="opacity" to="0" dur="10.0s" /><animate attributeName="stroke-dashoffset" from="150" to="0" dur="1.8s" begin="10.0s" fill="freeze" /></path><text x="90" y="120" id="reset-kvg-06041">⟳</text><text x="70" y="120" id="pause-kvg-06041">◼</text><script type="text/javascript"><![CDATA[function RecurringTimer(e,t){var n,r,i=t;this.pause=function(){window.clearTimeout(n);i-=new Date-r};var s=function(){r=new Date;n=window.setTimeout(function(){i=t;s();e()},i)};this.clear=function(){window.clearTimeout(n);i=t;n=window.setTimeout(function(){i=t;s();e()},i)};this.resume=s;this.resume()}function invoketimer(){timer=new RecurringTimer(function(){svg.setCurrentTime(0)},11900.0)}var svg=document.getElementById("kvg-06041");var pause=document.getElementById("pause-kvg-06041");var reset=document.getElementById("reset-kvg-06041");var timer;invoketimer();reset.onclick=function(){svg.setCurrentTime(0);timer.clear();svg.unpauseAnimations();pause.innerHTML = "◼";};pause.onclick=function(){if(svg.animationsPaused()){svg.unpauseAnimations();timer.resume();pause.innerHTML="◼"}else{svg.pauseAnimations();timer.pause();pause.innerHTML="▶"}}]]></script></svg>