<svg id="kvg-060dc-Kaisho" class="kanjivg" width="106" height="126" xmlns="http://www.w3.org/2000/svg" xmlns:xlink="http://www.w3.org/1999/xlink" xml:space="preserve" version="1.1" baseProfile="full"><defs><style type="text/css"><![CDATA[path.black{fill:none;stroke:black;stroke-width:5;stroke-linecap:round;stroke-linejoin:round;}path.grey{fill:none;stroke:#ddd;stroke-width:5;stroke-linecap:round;stroke-linejoin:round;}path.stroke{fill:none;stroke:black;stroke-width:5;stroke-linecap:round;stroke-linejoin:round;}rect{fill:none;stroke:#555;stroke-width:2;} text{font-size:16px;font-family:Segoe UI Symbol,Cambria Math,DejaVu Sans,Symbola,Quivira,STIX,Code2000;-webkit-touch-callout:none;cursor:pointer;-webkit-user-select:none;-khtml-user-select:none;-moz-user-select:none;-ms-user-select:none;user-select: none;}text:hover{color:#777;}#reset{font-weight:bold;}]]></style><marker id="markerStart" markerWidth="8" markerHeight="8" style="overflow:visible;"><circle cx="0" cy="0" r="1.5" style="stroke:none;fill:red;fill-opacity:0.5;"/></marker><marker id="markerEnd" style="overflow:visible;"><circle cx="0" cy="0" r="0.8" style="stroke:none;fill:blue;fill-opacity:0.5;"><animate attributeName="opacity" from="1" to="0" dur="3s" repeatCount="indefinite" /></circle></marker></defs><rect x="4" y="4" width="100" height="100" /><path d="M17.22,36.5c0.03,4.31-2.21,14.14-4.19,17.5" class="grey" /><path d="M33.27,32.83c2.75,1.79,7.1,7.35,7.79,10.13" class="grey" /><path d="M24.87,17.25c1.09,0.5,1.74,2.25,1.96,3.25c0.22,1,0,68.75-0.22,75" class="grey" /><path d="M47.12,32.81c0.74,0.39,2.1,0.45,2.85,0.39c8.28-0.7,33.79-4.86,39.7-4.97c1.24-0.02,1.98,0.19,2.6,0.38" class="grey" /><path d="M56.52,19.88c0.86,0.51,1.38,2.3,1.55,3.33c0.17,1.02,0.83,15.13,1.43,24.85" class="grey" /><path d="M77.6,14.75c0.86,0.51,1.62,2.29,1.55,3.33C78.75,24,78.25,33,76.69,46.01" class="grey" /><path d="M39.22,50.3c1.07,0.49,3.02,0.6,4.09,0.49c13.2-1.29,36.3-4.48,49.25-4.7c1.78-0.03,2.84,0.23,3.73,0.48" class="grey" /><path d="M54.09,59.89c0.39,0.76,1.22,2.05,1.22,3.06c0,1.01,0,26.06,0,32.81" class="grey" /><path d="M55.96,61.42c2.2-0.13,24.5-2.66,26.51-2.81c1.67-0.13,2.75,1.4,2.62,2.15c-0.26,1.52-0.52,31.19-0.52,31.94" class="grey" /><path d="M56.35,75.11c4.48,0,9.06-0.72,13.51-1.15c1.51-0.14,3.02-0.29,4.47-0.42" class="grey" /><path d="M56.21,89.91c6.08-0.54,19.88-1.08,27.45-1.55" class="grey" /><path d="M17.22,36.5c0.03,4.31-2.21,14.14-4.19,17.5" class="stroke" stroke-dasharray="150"><animate attributeName="stroke-dashoffset" from="150" to="0" dur="1.8s" begin="0.0s" fill="freeze" /></path><path d="M33.27,32.83c2.75,1.79,7.1,7.35,7.79,10.13" class="stroke" stroke-dasharray="150"><set attributeName="opacity" to="0" dur="0.9s" /><animate attributeName="stroke-dashoffset" from="150" to="0" dur="1.8s" begin="0.9s" fill="freeze" /></path><path d="M24.87,17.25c1.09,0.5,1.74,2.25,1.96,3.25c0.22,1,0,68.75-0.22,75" class="stroke" stroke-dasharray="150"><set attributeName="opacity" to="0" dur="1.8s" /><animate attributeName="stroke-dashoffset" from="150" to="0" dur="1.8s" begin="1.8s" fill="freeze" /></path><path d="M47.12,32.81c0.74,0.39,2.1,0.45,2.85,0.39c8.28-0.7,33.79-4.86,39.7-4.97c1.24-0.02,1.98,0.19,2.6,0.38" class="stroke" stroke-dasharray="150"><set attributeName="opacity" to="0" dur="3.5s" /><animate attributeName="stroke-dashoffset" from="150" to="0" dur="1.8s" begin="3.5s" fill="freeze" /></path><path d="M56.52,19.88c0.86,0.51,1.38,2.3,1.55,3.33c0.17,1.02,0.83,15.13,1.43,24.85" class="stroke" stroke-dasharray="150"><set attributeName="opacity" to="0" dur="4.7s" /><animate attributeName="stroke-dashoffset" from="150" to="0" dur="1.8s" begin="4.7s" fill="freeze" /></path><path d="M77.6,14.75c0.86,0.51,1.62,2.29,1.55,3.33C78.75,24,78.25,33,76.69,46.01" class="stroke" stroke-dasharray="150"><set attributeName="opacity" to="0" dur="5.7s" /><animate attributeName="stroke-dashoffset" from="150" to="0" dur="1.8s" begin="5.7s" fill="freeze" /></path><path d="M39.22,50.3c1.07,0.49,3.02,0.6,4.09,0.49c13.2-1.29,36.3-4.48,49.25-4.7c1.78-0.03,2.84,0.23,3.73,0.48" class="stroke" stroke-dasharray="150"><set attributeName="opacity" to="0" dur="6.7s" /><animate attributeName="stroke-dashoffset" from="150" to="0" dur="1.8s" begin="6.7s" fill="freeze" /></path><path d="M54.09,59.89c0.39,0.76,1.22,2.05,1.22,3.06c0,1.01,0,26.06,0,32.81" class="stroke" stroke-dasharray="150"><set attributeName="opacity" to="0" dur="8.1s" /><animate attributeName="stroke-dashoffset" from="150" to="0" dur="1.8s" begin="8.1s" fill="freeze" /></path><path d="M55.96,61.42c2.2-0.13,24.5-2.66,26.51-2.81c1.67-0.13,2.75,1.4,2.62,2.15c-0.26,1.52-0.52,31.19-0.52,31.94" class="stroke" stroke-dasharray="150"><set attributeName="opacity" to="0" dur="9.1s" /><animate attributeName="stroke-dashoffset" from="150" to="0" dur="1.8s" begin="9.1s" fill="freeze" /></path><path d="M56.35,75.11c4.48,0,9.06-0.72,13.51-1.15c1.51-0.14,3.02-0.29,4.47-0.42" class="stroke" stroke-dasharray="150"><set attributeName="opacity" to="0" dur="10.6s" /><animate attributeName="stroke-dashoffset" from="150" to="0" dur="1.8s" begin="10.6s" fill="freeze" /></path><path d="M56.21,89.91c6.08-0.54,19.88-1.08,27.45-1.55" class="stroke" stroke-dasharray="150"><set attributeName="opacity" to="0" dur="11.5s" /><animate attributeName="stroke-dashoffset" from="150" to="0" dur="1.8s" begin="11.5s" fill="freeze" /></path><text x="90" y="120" id="reset-kvg-060dc-Kaisho">⟳</text><text x="70" y="120" id="pause-kvg-060dc-Kaisho">◼</text><script type="text/javascript"><![CDATA[function RecurringTimer(e,t){var n,r,i=t;this.pause=function(){window.clearTimeout(n);i-=new Date-r};var s=function(){r=new Date;n=window.setTimeout(function(){i=t;s();e()},i)};this.clear=function(){window.clearTimeout(n);i=t;n=window.setTimeout(function(){i=t;s();e()},i)};this.resume=s;this.resume()}function invoketimer(){timer=new RecurringTimer(function(){svg.setCurrentTime(0)},13500.0)}var svg=document.getElementById("kvg-060dc-Kaisho");var pause=document.getElementById("pause-kvg-060dc-Kaisho");var reset=document.getElementById("reset-kvg-060dc-Kaisho");var timer;invoketimer();reset.onclick=function(){svg.setCurrentTime(0);timer.clear();svg.unpauseAnimations();pause.innerHTML = "◼";};pause.onclick=function(){if(svg.animationsPaused()){svg.unpauseAnimations();timer.resume();pause.innerHTML="◼"}else{svg.pauseAnimations();timer.pause();pause.innerHTML="▶"}}]]></script></svg>