<svg id="kvg-060fb-Kaisho" class="kanjivg" width="106" height="126" xmlns="http://www.w3.org/2000/svg" xmlns:xlink="http://www.w3.org/1999/xlink" xml:space="preserve" version="1.1" baseProfile="full"><defs><style type="text/css"><![CDATA[path.black{fill:none;stroke:black;stroke-width:5;stroke-linecap:round;stroke-linejoin:round;}path.grey{fill:none;stroke:#ddd;stroke-width:5;stroke-linecap:round;stroke-linejoin:round;}path.stroke{fill:none;stroke:black;stroke-width:5;stroke-linecap:round;stroke-linejoin:round;}rect{fill:none;stroke:#555;stroke-width:2;} text{font-size:16px;font-family:Segoe UI Symbol,Cambria Math,DejaVu Sans,Symbola,Quivira,STIX,Code2000;-webkit-touch-callout:none;cursor:pointer;-webkit-user-select:none;-khtml-user-select:none;-moz-user-select:none;-ms-user-select:none;user-select: none;}text:hover{color:#777;}#reset{font-weight:bold;}]]></style><marker id="markerStart" markerWidth="8" markerHeight="8" style="overflow:visible;"><circle cx="0" cy="0" r="1.5" style="stroke:none;fill:red;fill-opacity:0.5;"/></marker><marker id="markerEnd" style="overflow:visible;"><circle cx="0" cy="0" r="0.8" style="stroke:none;fill:blue;fill-opacity:0.5;"><animate attributeName="opacity" from="1" to="0" dur="3s" repeatCount="indefinite" /></circle></marker></defs><rect x="4" y="4" width="100" height="100" /><path d="M16.22,37c0.03,4.31-2.47,14.14-4.69,17.5" class="grey" /><path d="M30.77,32.58c1.69,2.27,4.37,9.35,4.79,12.88" class="grey" /><path d="M22.37,14.75c1.09,0.5,1.74,2.25,1.96,3.25c0.22,1,0,70.75-0.22,77" class="grey" /><path d="M42.83,17.93c0.3,1.25,0.74,2.17,0.74,3.83c0,1.66-0.1,50.72,0,52.38" class="grey" /><path d="M44.07,19.94c1.7-0.21,14.66-2.86,16.21-3.11c1.29-0.21,2.31,1.16,2.2,2.7c-0.14,1.95-0.6,52.54-0.6,53.78" class="grey" /><path d="M44.04,36.35c2.72-0.48,5.47-0.84,8.21-1.2c0.82-0.11,1.65-0.22,2.47-0.32" class="grey" /><path d="M44.18,52.62c2.78-0.44,5.57-0.8,8.37-1.12c0.72-0.08,1.45-0.16,2.17-0.24" class="grey" /><path d="M44.12,71.69c5.38-0.69,12.1-1.63,17.3-1.99" class="grey" /><path d="M47.55,79.04c0.41,1.38,0.77,1.73,0,2.77c-3.46,4.67-9.56,10.52-14.51,14.12" class="grey" /><path d="M58.32,79.79c3.27,3.84,7.13,10.81,8.02,14.17" class="grey" /><path d="M75.53,24.1c0.94,0.99,1.6,2.15,1.68,5.42c0.38,15.72-0.02,38.45-0.02,43.81" class="grey" /><path d="M91.35,14.33c0.94,0.99,1.68,2.15,1.68,5.42c0,16-0.25,64.76-0.25,70.12c0,7.33-3.84,4.9-8.33,0.27" class="grey" /><path d="M16.22,37c0.03,4.31-2.47,14.14-4.69,17.5" class="stroke" stroke-dasharray="150"><animate attributeName="stroke-dashoffset" from="150" to="0" dur="1.8s" begin="0.0s" fill="freeze" /></path><path d="M30.77,32.58c1.69,2.27,4.37,9.35,4.79,12.88" class="stroke" stroke-dasharray="150"><set attributeName="opacity" to="0" dur="0.9s" /><animate attributeName="stroke-dashoffset" from="150" to="0" dur="1.8s" begin="0.9s" fill="freeze" /></path><path d="M22.37,14.75c1.09,0.5,1.74,2.25,1.96,3.25c0.22,1,0,70.75-0.22,77" class="stroke" stroke-dasharray="150"><set attributeName="opacity" to="0" dur="1.8s" /><animate attributeName="stroke-dashoffset" from="150" to="0" dur="1.8s" begin="1.8s" fill="freeze" /></path><path d="M42.83,17.93c0.3,1.25,0.74,2.17,0.74,3.83c0,1.66-0.1,50.72,0,52.38" class="stroke" stroke-dasharray="150"><set attributeName="opacity" to="0" dur="3.5s" /><animate attributeName="stroke-dashoffset" from="150" to="0" dur="1.8s" begin="3.5s" fill="freeze" /></path><path d="M44.07,19.94c1.7-0.21,14.66-2.86,16.21-3.11c1.29-0.21,2.31,1.16,2.2,2.7c-0.14,1.95-0.6,52.54-0.6,53.78" class="stroke" stroke-dasharray="150"><set attributeName="opacity" to="0" dur="4.9s" /><animate attributeName="stroke-dashoffset" from="150" to="0" dur="1.8s" begin="4.9s" fill="freeze" /></path><path d="M44.04,36.35c2.72-0.48,5.47-0.84,8.21-1.2c0.82-0.11,1.65-0.22,2.47-0.32" class="stroke" stroke-dasharray="150"><set attributeName="opacity" to="0" dur="6.6000000000000005s" /><animate attributeName="stroke-dashoffset" from="150" to="0" dur="1.8s" begin="6.6000000000000005s" fill="freeze" /></path><path d="M44.18,52.62c2.78-0.44,5.57-0.8,8.37-1.12c0.72-0.08,1.45-0.16,2.17-0.24" class="stroke" stroke-dasharray="150"><set attributeName="opacity" to="0" dur="7.500000000000001s" /><animate attributeName="stroke-dashoffset" from="150" to="0" dur="1.8s" begin="7.500000000000001s" fill="freeze" /></path><path d="M44.12,71.69c5.38-0.69,12.1-1.63,17.3-1.99" class="stroke" stroke-dasharray="150"><set attributeName="opacity" to="0" dur="8.4s" /><animate attributeName="stroke-dashoffset" from="150" to="0" dur="1.8s" begin="8.4s" fill="freeze" /></path><path d="M47.55,79.04c0.41,1.38,0.77,1.73,0,2.77c-3.46,4.67-9.56,10.52-14.51,14.12" class="stroke" stroke-dasharray="150"><set attributeName="opacity" to="0" dur="9.3s" /><animate attributeName="stroke-dashoffset" from="150" to="0" dur="1.8s" begin="9.3s" fill="freeze" /></path><path d="M58.32,79.79c3.27,3.84,7.13,10.81,8.02,14.17" class="stroke" stroke-dasharray="150"><set attributeName="opacity" to="0" dur="10.3s" /><animate attributeName="stroke-dashoffset" from="150" to="0" dur="1.8s" begin="10.3s" fill="freeze" /></path><path d="M75.53,24.1c0.94,0.99,1.6,2.15,1.68,5.42c0.38,15.72-0.02,38.45-0.02,43.81" class="stroke" stroke-dasharray="150"><set attributeName="opacity" to="0" dur="11.200000000000001s" /><animate attributeName="stroke-dashoffset" from="150" to="0" dur="1.8s" begin="11.200000000000001s" fill="freeze" /></path><path d="M91.35,14.33c0.94,0.99,1.68,2.15,1.68,5.42c0,16-0.25,64.76-0.25,70.12c0,7.33-3.84,4.9-8.33,0.27" class="stroke" stroke-dasharray="150"><set attributeName="opacity" to="0" dur="12.4s" /><animate attributeName="stroke-dashoffset" from="150" to="0" dur="1.8s" begin="12.4s" fill="freeze" /></path><text x="90" y="120" id="reset-kvg-060fb-Kaisho">⟳</text><text x="70" y="120" id="pause-kvg-060fb-Kaisho">◼</text><script type="text/javascript"><![CDATA[function RecurringTimer(e,t){var n,r,i=t;this.pause=function(){window.clearTimeout(n);i-=new Date-r};var s=function(){r=new Date;n=window.setTimeout(function(){i=t;s();e()},i)};this.clear=function(){window.clearTimeout(n);i=t;n=window.setTimeout(function(){i=t;s();e()},i)};this.resume=s;this.resume()}function invoketimer(){timer=new RecurringTimer(function(){svg.setCurrentTime(0)},15100.0)}var svg=document.getElementById("kvg-060fb-Kaisho");var pause=document.getElementById("pause-kvg-060fb-Kaisho");var reset=document.getElementById("reset-kvg-060fb-Kaisho");var timer;invoketimer();reset.onclick=function(){svg.setCurrentTime(0);timer.clear();svg.unpauseAnimations();pause.innerHTML = "◼";};pause.onclick=function(){if(svg.animationsPaused()){svg.unpauseAnimations();timer.resume();pause.innerHTML="◼"}else{svg.pauseAnimations();timer.pause();pause.innerHTML="▶"}}]]></script></svg>