<svg id="kvg-06108-Hyougai" class="kanjivg" width="106" height="126" xmlns="http://www.w3.org/2000/svg" xmlns:xlink="http://www.w3.org/1999/xlink" xml:space="preserve" version="1.1" baseProfile="full"><defs><style type="text/css"><![CDATA[path.black{fill:none;stroke:black;stroke-width:5;stroke-linecap:round;stroke-linejoin:round;}path.grey{fill:none;stroke:#ddd;stroke-width:5;stroke-linecap:round;stroke-linejoin:round;}path.stroke{fill:none;stroke:black;stroke-width:5;stroke-linecap:round;stroke-linejoin:round;}rect{fill:none;stroke:#555;stroke-width:2;} text{font-size:16px;font-family:Segoe UI Symbol,Cambria Math,DejaVu Sans,Symbola,Quivira,STIX,Code2000;-webkit-touch-callout:none;cursor:pointer;-webkit-user-select:none;-khtml-user-select:none;-moz-user-select:none;-ms-user-select:none;user-select: none;}text:hover{color:#777;}#reset{font-weight:bold;}]]></style><marker id="markerStart" markerWidth="8" markerHeight="8" style="overflow:visible;"><circle cx="0" cy="0" r="1.5" style="stroke:none;fill:red;fill-opacity:0.5;"/></marker><marker id="markerEnd" style="overflow:visible;"><circle cx="0" cy="0" r="0.8" style="stroke:none;fill:blue;fill-opacity:0.5;"><animate attributeName="opacity" from="1" to="0" dur="3s" repeatCount="indefinite" /></circle></marker></defs><rect x="4" y="4" width="100" height="100" /><path d="M52.63,10.25c0.1,0.71,0.53,1.97-0.21,2.84C46.5,20,33.25,32.25,16,40.23" class="grey" /><path d="M52.73,12.89c5.44,4.64,28.85,19.78,34.85,23.17c2.03,1.15,4.64,1.65,6.68,1.97" class="grey" /><path d="M41.37,32.92c0.6,0.18,1.7,0.23,2.3,0.18c3.83-0.31,16.72-1.69,21.06-1.79c1-0.02,1.6,0.08,2.1,0.17" class="grey" /><path d="M27.24,41.76c0.67,0.72,1.12,1.43,1.35,2.15c0.22,0.72,0.32,27.61,0.22,29.22" class="grey" /><path d="M29.94,42.81c1.5-0.1,14.1-1.82,15.22-1.94c2-0.2,2.76,1.33,2.5,1.94c-0.24,0.59-0.38,18.48-0.38,26.74c0,7.31-3.28,2.12-4.53,1.2" class="grey" /><path d="M29.64,51.51c4.74-0.41,12.84-1.18,17.66-1.56" class="grey" /><path d="M29.4,60.06c5.32-0.21,11.36-0.79,17.71-1.01" class="grey" /><path d="M60.85,42.08c0.79,0.43,1.35,0.93,1.42,2.34c0.33,6.8-0.02,18.38-0.02,20.69" class="grey" /><path d="M77.03,38.52c0.79,0.43,1.35,0.93,1.42,2.34c0.33,6.8-0.21,26.79-0.21,29.1c0,8.79-3.49,2.29-5.04,0.62" class="grey" /><path d="M23.03,83.24c0.33,2.02-3.31,10.94-5.95,14.31" class="grey" /><path d="M34,80.63c6.31,9.73,16.29,18.18,40.61,18.3c11.74,0.06,11.64-3.68,4.71-9.53" class="grey" /><path d="M55.31,77.53c2,4.2,4.92,8.4,7.06,1.97" class="grey" /><path d="M83.61,78.73c4.83,2.33,8.45,4.45,12.38,11.67" class="grey" /><path d="M52.63,10.25c0.1,0.71,0.53,1.97-0.21,2.84C46.5,20,33.25,32.25,16,40.23" class="stroke" stroke-dasharray="150"><animate attributeName="stroke-dashoffset" from="150" to="0" dur="1.8s" begin="0.0s" fill="freeze" /></path><path d="M52.73,12.89c5.44,4.64,28.85,19.78,34.85,23.17c2.03,1.15,4.64,1.65,6.68,1.97" class="stroke" stroke-dasharray="150"><set attributeName="opacity" to="0" dur="1.2s" /><animate attributeName="stroke-dashoffset" from="150" to="0" dur="1.8s" begin="1.2s" fill="freeze" /></path><path d="M41.37,32.92c0.6,0.18,1.7,0.23,2.3,0.18c3.83-0.31,16.72-1.69,21.06-1.79c1-0.02,1.6,0.08,2.1,0.17" class="stroke" stroke-dasharray="150"><set attributeName="opacity" to="0" dur="2.4s" /><animate attributeName="stroke-dashoffset" from="150" to="0" dur="1.8s" begin="2.4s" fill="freeze" /></path><path d="M27.24,41.76c0.67,0.72,1.12,1.43,1.35,2.15c0.22,0.72,0.32,27.61,0.22,29.22" class="stroke" stroke-dasharray="150"><set attributeName="opacity" to="0" dur="3.4s" /><animate attributeName="stroke-dashoffset" from="150" to="0" dur="1.8s" begin="3.4s" fill="freeze" /></path><path d="M29.94,42.81c1.5-0.1,14.1-1.82,15.22-1.94c2-0.2,2.76,1.33,2.5,1.94c-0.24,0.59-0.38,18.48-0.38,26.74c0,7.31-3.28,2.12-4.53,1.2" class="stroke" stroke-dasharray="150"><set attributeName="opacity" to="0" dur="4.4s" /><animate attributeName="stroke-dashoffset" from="150" to="0" dur="1.8s" begin="4.4s" fill="freeze" /></path><path d="M29.64,51.51c4.74-0.41,12.84-1.18,17.66-1.56" class="stroke" stroke-dasharray="150"><set attributeName="opacity" to="0" dur="5.7s" /><animate attributeName="stroke-dashoffset" from="150" to="0" dur="1.8s" begin="5.7s" fill="freeze" /></path><path d="M29.4,60.06c5.32-0.21,11.36-0.79,17.71-1.01" class="stroke" stroke-dasharray="150"><set attributeName="opacity" to="0" dur="6.6000000000000005s" /><animate attributeName="stroke-dashoffset" from="150" to="0" dur="1.8s" begin="6.6000000000000005s" fill="freeze" /></path><path d="M60.85,42.08c0.79,0.43,1.35,0.93,1.42,2.34c0.33,6.8-0.02,18.38-0.02,20.69" class="stroke" stroke-dasharray="150"><set attributeName="opacity" to="0" dur="7.500000000000001s" /><animate attributeName="stroke-dashoffset" from="150" to="0" dur="1.8s" begin="7.500000000000001s" fill="freeze" /></path><path d="M77.03,38.52c0.79,0.43,1.35,0.93,1.42,2.34c0.33,6.8-0.21,26.79-0.21,29.1c0,8.79-3.49,2.29-5.04,0.62" class="stroke" stroke-dasharray="150"><set attributeName="opacity" to="0" dur="8.5s" /><animate attributeName="stroke-dashoffset" from="150" to="0" dur="1.8s" begin="8.5s" fill="freeze" /></path><path d="M23.03,83.24c0.33,2.02-3.31,10.94-5.95,14.31" class="stroke" stroke-dasharray="150"><set attributeName="opacity" to="0" dur="9.6s" /><animate attributeName="stroke-dashoffset" from="150" to="0" dur="1.8s" begin="9.6s" fill="freeze" /></path><path d="M34,80.63c6.31,9.73,16.29,18.18,40.61,18.3c11.74,0.06,11.64-3.68,4.71-9.53" class="stroke" stroke-dasharray="150"><set attributeName="opacity" to="0" dur="10.5s" /><animate attributeName="stroke-dashoffset" from="150" to="0" dur="1.8s" begin="10.5s" fill="freeze" /></path><path d="M55.31,77.53c2,4.2,4.92,8.4,7.06,1.97" class="stroke" stroke-dasharray="150"><set attributeName="opacity" to="0" dur="12.0s" /><animate attributeName="stroke-dashoffset" from="150" to="0" dur="1.8s" begin="12.0s" fill="freeze" /></path><path d="M83.61,78.73c4.83,2.33,8.45,4.45,12.38,11.67" class="stroke" stroke-dasharray="150"><set attributeName="opacity" to="0" dur="12.9s" /><animate attributeName="stroke-dashoffset" from="150" to="0" dur="1.8s" begin="12.9s" fill="freeze" /></path><text x="90" y="120" id="reset-kvg-06108-Hyougai">⟳</text><text x="70" y="120" id="pause-kvg-06108-Hyougai">◼</text><script type="text/javascript"><![CDATA[function RecurringTimer(e,t){var n,r,i=t;this.pause=function(){window.clearTimeout(n);i-=new Date-r};var s=function(){r=new Date;n=window.setTimeout(function(){i=t;s();e()},i)};this.clear=function(){window.clearTimeout(n);i=t;n=window.setTimeout(function(){i=t;s();e()},i)};this.resume=s;this.resume()}function invoketimer(){timer=new RecurringTimer(function(){svg.setCurrentTime(0)},14800.0)}var svg=document.getElementById("kvg-06108-Hyougai");var pause=document.getElementById("pause-kvg-06108-Hyougai");var reset=document.getElementById("reset-kvg-06108-Hyougai");var timer;invoketimer();reset.onclick=function(){svg.setCurrentTime(0);timer.clear();svg.unpauseAnimations();pause.innerHTML = "◼";};pause.onclick=function(){if(svg.animationsPaused()){svg.unpauseAnimations();timer.resume();pause.innerHTML="◼"}else{svg.pauseAnimations();timer.pause();pause.innerHTML="▶"}}]]></script></svg>