<svg id="kvg-0610f-Kaisho" class="kanjivg" width="106" height="126" xmlns="http://www.w3.org/2000/svg" xmlns:xlink="http://www.w3.org/1999/xlink" xml:space="preserve" version="1.1" baseProfile="full"><defs><style type="text/css"><![CDATA[path.black{fill:none;stroke:black;stroke-width:5;stroke-linecap:round;stroke-linejoin:round;}path.grey{fill:none;stroke:#ddd;stroke-width:5;stroke-linecap:round;stroke-linejoin:round;}path.stroke{fill:none;stroke:black;stroke-width:5;stroke-linecap:round;stroke-linejoin:round;}rect{fill:none;stroke:#555;stroke-width:2;} text{font-size:16px;font-family:Segoe UI Symbol,Cambria Math,DejaVu Sans,Symbola,Quivira,STIX,Code2000;-webkit-touch-callout:none;cursor:pointer;-webkit-user-select:none;-khtml-user-select:none;-moz-user-select:none;-ms-user-select:none;user-select: none;}text:hover{color:#777;}#reset{font-weight:bold;}]]></style><marker id="markerStart" markerWidth="8" markerHeight="8" style="overflow:visible;"><circle cx="0" cy="0" r="1.5" style="stroke:none;fill:red;fill-opacity:0.5;"/></marker><marker id="markerEnd" style="overflow:visible;"><circle cx="0" cy="0" r="0.8" style="stroke:none;fill:blue;fill-opacity:0.5;"><animate attributeName="opacity" from="1" to="0" dur="3s" repeatCount="indefinite" /></circle></marker></defs><rect x="4" y="4" width="100" height="100" /><path d="M49.9,10.25c3.28,0.89,3.99,2.88,5.14,5.74" class="grey" /><path d="M27,22.41c0.89,0.06,2.94,0.48,3.8,0.35c3.54-0.52,27.24-2.32,44.1-3.63c1.47-0.11,2.36-0.11,3.1-0.1" class="grey" /><path d="M37,26c3.32,3.92,4,7.7,4.48,10.45" class="grey" /><path d="M67,21.99c0.5,1.01,0.67,3.2,0.5,3.59c-1.75,3.97-4.03,9.19-5.33,11.45" class="grey" /><path d="M12.75,41.05c1.57,0.08,3.42-0.03,4.92-0.11c23.83-1.19,50.58-4.69,70.82-4.74c2.58-0.01,5.45,0,7.01,0.45" class="grey" /><path d="M29.55,48.31c0.58,0.53,1.58,1.53,1.58,2.25c0,0.73,2.62,19.99,2.62,20.35c0,0.36,0.25,1.35,0.25,2.08" class="grey" /><path d="M32.1,50.08c3.29-0.19,35.43-2.83,38.33-3.28c2.9-0.45,4.38,0.65,3.81,3.69c-0.75,4-2.75,14-4,20.25" class="grey" /><path d="M33,60.25c6.51-0.18,13.05-1.04,19.53-1.62c2.17-0.19,4.35-0.39,6.43-0.57" class="grey" /><path d="M35.11,70.25c6.58-0.19,25.18-1.43,33.69-1.68" class="grey" /><path d="M20.28,84.31c0.4,1.83-3.96,9.89-7.13,12.94" class="grey" /><path d="M33.14,81.65c8.11,10.85,21.55,18.92,42.61,17.01c6.38-0.58,6.38-2.45,2.88-5.19" class="grey" /><path d="M50.58,78.25c1.65,2.45,5.97,7.93,7,4.47" class="grey" /><path d="M83.25,77.75c3.51,1.95,6,4.5,9,9.73" class="grey" /><path d="M49.9,10.25c3.28,0.89,3.99,2.88,5.14,5.74" class="stroke" stroke-dasharray="150"><animate attributeName="stroke-dashoffset" from="150" to="0" dur="1.8s" begin="0.0s" fill="freeze" /></path><path d="M27,22.41c0.89,0.06,2.94,0.48,3.8,0.35c3.54-0.52,27.24-2.32,44.1-3.63c1.47-0.11,2.36-0.11,3.1-0.1" class="stroke" stroke-dasharray="150"><set attributeName="opacity" to="0" dur="0.9s" /><animate attributeName="stroke-dashoffset" from="150" to="0" dur="1.8s" begin="0.9s" fill="freeze" /></path><path d="M37,26c3.32,3.92,4,7.7,4.48,10.45" class="stroke" stroke-dasharray="150"><set attributeName="opacity" to="0" dur="2.2s" /><animate attributeName="stroke-dashoffset" from="150" to="0" dur="1.8s" begin="2.2s" fill="freeze" /></path><path d="M67,21.99c0.5,1.01,0.67,3.2,0.5,3.59c-1.75,3.97-4.03,9.19-5.33,11.45" class="stroke" stroke-dasharray="150"><set attributeName="opacity" to="0" dur="3.1s" /><animate attributeName="stroke-dashoffset" from="150" to="0" dur="1.8s" begin="3.1s" fill="freeze" /></path><path d="M12.75,41.05c1.57,0.08,3.42-0.03,4.92-0.11c23.83-1.19,50.58-4.69,70.82-4.74c2.58-0.01,5.45,0,7.01,0.45" class="stroke" stroke-dasharray="150"><set attributeName="opacity" to="0" dur="4.0s" /><animate attributeName="stroke-dashoffset" from="150" to="0" dur="1.8s" begin="4.0s" fill="freeze" /></path><path d="M29.55,48.31c0.58,0.53,1.58,1.53,1.58,2.25c0,0.73,2.62,19.99,2.62,20.35c0,0.36,0.25,1.35,0.25,2.08" class="stroke" stroke-dasharray="150"><set attributeName="opacity" to="0" dur="5.7s" /><animate attributeName="stroke-dashoffset" from="150" to="0" dur="1.8s" begin="5.7s" fill="freeze" /></path><path d="M32.1,50.08c3.29-0.19,35.43-2.83,38.33-3.28c2.9-0.45,4.38,0.65,3.81,3.69c-0.75,4-2.75,14-4,20.25" class="stroke" stroke-dasharray="150"><set attributeName="opacity" to="0" dur="6.7s" /><animate attributeName="stroke-dashoffset" from="150" to="0" dur="1.8s" begin="6.7s" fill="freeze" /></path><path d="M33,60.25c6.51-0.18,13.05-1.04,19.53-1.62c2.17-0.19,4.35-0.39,6.43-0.57" class="stroke" stroke-dasharray="150"><set attributeName="opacity" to="0" dur="8.2s" /><animate attributeName="stroke-dashoffset" from="150" to="0" dur="1.8s" begin="8.2s" fill="freeze" /></path><path d="M35.11,70.25c6.58-0.19,25.18-1.43,33.69-1.68" class="stroke" stroke-dasharray="150"><set attributeName="opacity" to="0" dur="9.2s" /><animate attributeName="stroke-dashoffset" from="150" to="0" dur="1.8s" begin="9.2s" fill="freeze" /></path><path d="M20.28,84.31c0.4,1.83-3.96,9.89-7.13,12.94" class="stroke" stroke-dasharray="150"><set attributeName="opacity" to="0" dur="10.2s" /><animate attributeName="stroke-dashoffset" from="150" to="0" dur="1.8s" begin="10.2s" fill="freeze" /></path><path d="M33.14,81.65c8.11,10.85,21.55,18.92,42.61,17.01c6.38-0.58,6.38-2.45,2.88-5.19" class="stroke" stroke-dasharray="150"><set attributeName="opacity" to="0" dur="11.1s" /><animate attributeName="stroke-dashoffset" from="150" to="0" dur="1.8s" begin="11.1s" fill="freeze" /></path><path d="M50.58,78.25c1.65,2.45,5.97,7.93,7,4.47" class="stroke" stroke-dasharray="150"><set attributeName="opacity" to="0" dur="12.5s" /><animate attributeName="stroke-dashoffset" from="150" to="0" dur="1.8s" begin="12.5s" fill="freeze" /></path><path d="M83.25,77.75c3.51,1.95,6,4.5,9,9.73" class="stroke" stroke-dasharray="150"><set attributeName="opacity" to="0" dur="13.4s" /><animate attributeName="stroke-dashoffset" from="150" to="0" dur="1.8s" begin="13.4s" fill="freeze" /></path><text x="90" y="120" id="reset-kvg-0610f-Kaisho">⟳</text><text x="70" y="120" id="pause-kvg-0610f-Kaisho">◼</text><script type="text/javascript"><![CDATA[function RecurringTimer(e,t){var n,r,i=t;this.pause=function(){window.clearTimeout(n);i-=new Date-r};var s=function(){r=new Date;n=window.setTimeout(function(){i=t;s();e()},i)};this.clear=function(){window.clearTimeout(n);i=t;n=window.setTimeout(function(){i=t;s();e()},i)};this.resume=s;this.resume()}function invoketimer(){timer=new RecurringTimer(function(){svg.setCurrentTime(0)},15300.0)}var svg=document.getElementById("kvg-0610f-Kaisho");var pause=document.getElementById("pause-kvg-0610f-Kaisho");var reset=document.getElementById("reset-kvg-0610f-Kaisho");var timer;invoketimer();reset.onclick=function(){svg.setCurrentTime(0);timer.clear();svg.unpauseAnimations();pause.innerHTML = "◼";};pause.onclick=function(){if(svg.animationsPaused()){svg.unpauseAnimations();timer.resume();pause.innerHTML="◼"}else{svg.pauseAnimations();timer.pause();pause.innerHTML="▶"}}]]></script></svg>