<svg id="kvg-0613f" class="kanjivg" width="106" height="126" xmlns="http://www.w3.org/2000/svg" xmlns:xlink="http://www.w3.org/1999/xlink" xml:space="preserve" version="1.1" baseProfile="full"><defs><style type="text/css"><![CDATA[path.black{fill:none;stroke:black;stroke-width:5;stroke-linecap:round;stroke-linejoin:round;}path.grey{fill:none;stroke:#ddd;stroke-width:5;stroke-linecap:round;stroke-linejoin:round;}path.stroke{fill:none;stroke:black;stroke-width:5;stroke-linecap:round;stroke-linejoin:round;}rect{fill:none;stroke:#555;stroke-width:2;} text{font-size:16px;font-family:Segoe UI Symbol,Cambria Math,DejaVu Sans,Symbola,Quivira,STIX,Code2000;-webkit-touch-callout:none;cursor:pointer;-webkit-user-select:none;-khtml-user-select:none;-moz-user-select:none;-ms-user-select:none;user-select: none;}text:hover{color:#777;}#reset{font-weight:bold;}]]></style><marker id="markerStart" markerWidth="8" markerHeight="8" style="overflow:visible;"><circle cx="0" cy="0" r="1.5" style="stroke:none;fill:red;fill-opacity:0.5;"/></marker><marker id="markerEnd" style="overflow:visible;"><circle cx="0" cy="0" r="0.8" style="stroke:none;fill:blue;fill-opacity:0.5;"><animate attributeName="opacity" from="1" to="0" dur="3s" repeatCount="indefinite" /></circle></marker></defs><rect x="4" y="4" width="100" height="100" /><path d="M24.52,14.32c1.4,0.44,3.97,0.52,5.37,0.44c14.57-0.74,35.61-3.01,53.59-3.47c2.33-0.06,3.73,0.21,4.9,0.44" class="grey" /><path d="M29.5,15.59c0.04,1.22,0.08,3.14-0.09,4.89C28,34.5,24.5,54.25,14,66.93" class="grey" /><path d="M55.41,16.01c0.34,0.99,0.07,2.32-0.12,2.58c-1.54,2.16-2.29,3.66-5.66,6.52" class="grey" /><path d="M36.75,25.12c0.7,0.48,1.6,1.71,1.75,2.38c0.5,2.25,3.23,15.65,3.74,19" class="grey" /><path d="M39.54,26.4c3.78-0.25,35.49-3.14,38.94-3.39c2.87-0.21,4.4,1.74,4.02,3.39c-0.75,3.27-2.75,8.85-5.39,17.04" class="grey" /><path d="M40.82,35.12c5.13-0.23,32.55-2.88,38.35-3.14" class="grey" /><path d="M42.29,44.5c8.96-1.23,26.21-2.14,35.23-2.87" class="grey" /><path d="M58.02,44.12c0.98,0.63,1.41,2,1.41,3.22c0,9.41-0.19,15.49-0.19,17.49c0,6.92-7.24-0.98-8.34-1.49" class="grey" /><path d="M42.41,52.83c0.05,0.33,0.24,0.92-0.09,1.33c-2.24,2.74-6.87,8.01-16.56,12.71" class="grey" /><path d="M70.5,51.2c6.53,2.18,16.87,8.95,18.5,12.33" class="grey" /><path d="M24.14,79.82c0.39,2.46-3.92,13.32-7.06,17.42" class="grey" /><path d="M34.33,75c6.58,12.46,16.97,23.28,42.33,23.43c12.23,0.08,13.03-3.32,2.83-9" class="grey" /><path d="M57.41,76.25c2.17,5.25,5.32,10.5,7.63,2.46" class="grey" /><path d="M81.88,71.98c5.41,2.32,9.46,4.43,13.85,11.61" class="grey" /><path d="M24.52,14.32c1.4,0.44,3.97,0.52,5.37,0.44c14.57-0.74,35.61-3.01,53.59-3.47c2.33-0.06,3.73,0.21,4.9,0.44" class="stroke" stroke-dasharray="150"><animate attributeName="stroke-dashoffset" from="150" to="0" dur="1.8s" begin="0.0s" fill="freeze" /></path><path d="M29.5,15.59c0.04,1.22,0.08,3.14-0.09,4.89C28,34.5,24.5,54.25,14,66.93" class="stroke" stroke-dasharray="150"><set attributeName="opacity" to="0" dur="1.5s" /><animate attributeName="stroke-dashoffset" from="150" to="0" dur="1.8s" begin="1.5s" fill="freeze" /></path><path d="M55.41,16.01c0.34,0.99,0.07,2.32-0.12,2.58c-1.54,2.16-2.29,3.66-5.66,6.52" class="stroke" stroke-dasharray="150"><set attributeName="opacity" to="0" dur="2.8s" /><animate attributeName="stroke-dashoffset" from="150" to="0" dur="1.8s" begin="2.8s" fill="freeze" /></path><path d="M36.75,25.12c0.7,0.48,1.6,1.71,1.75,2.38c0.5,2.25,3.23,15.65,3.74,19" class="stroke" stroke-dasharray="150"><set attributeName="opacity" to="0" dur="3.6999999999999997s" /><animate attributeName="stroke-dashoffset" from="150" to="0" dur="1.8s" begin="3.6999999999999997s" fill="freeze" /></path><path d="M39.54,26.4c3.78-0.25,35.49-3.14,38.94-3.39c2.87-0.21,4.4,1.74,4.02,3.39c-0.75,3.27-2.75,8.85-5.39,17.04" class="stroke" stroke-dasharray="150"><set attributeName="opacity" to="0" dur="4.699999999999999s" /><animate attributeName="stroke-dashoffset" from="150" to="0" dur="1.8s" begin="4.699999999999999s" fill="freeze" /></path><path d="M40.82,35.12c5.13-0.23,32.55-2.88,38.35-3.14" class="stroke" stroke-dasharray="150"><set attributeName="opacity" to="0" dur="6.199999999999999s" /><animate attributeName="stroke-dashoffset" from="150" to="0" dur="1.8s" begin="6.199999999999999s" fill="freeze" /></path><path d="M42.29,44.5c8.96-1.23,26.21-2.14,35.23-2.87" class="stroke" stroke-dasharray="150"><set attributeName="opacity" to="0" dur="7.199999999999999s" /><animate attributeName="stroke-dashoffset" from="150" to="0" dur="1.8s" begin="7.199999999999999s" fill="freeze" /></path><path d="M58.02,44.12c0.98,0.63,1.41,2,1.41,3.22c0,9.41-0.19,15.49-0.19,17.49c0,6.92-7.24-0.98-8.34-1.49" class="stroke" stroke-dasharray="150"><set attributeName="opacity" to="0" dur="8.2s" /><animate attributeName="stroke-dashoffset" from="150" to="0" dur="1.8s" begin="8.2s" fill="freeze" /></path><path d="M42.41,52.83c0.05,0.33,0.24,0.92-0.09,1.33c-2.24,2.74-6.87,8.01-16.56,12.71" class="stroke" stroke-dasharray="150"><set attributeName="opacity" to="0" dur="9.2s" /><animate attributeName="stroke-dashoffset" from="150" to="0" dur="1.8s" begin="9.2s" fill="freeze" /></path><path d="M70.5,51.2c6.53,2.18,16.87,8.95,18.5,12.33" class="stroke" stroke-dasharray="150"><set attributeName="opacity" to="0" dur="10.2s" /><animate attributeName="stroke-dashoffset" from="150" to="0" dur="1.8s" begin="10.2s" fill="freeze" /></path><path d="M24.14,79.82c0.39,2.46-3.92,13.32-7.06,17.42" class="stroke" stroke-dasharray="150"><set attributeName="opacity" to="0" dur="11.2s" /><animate attributeName="stroke-dashoffset" from="150" to="0" dur="1.8s" begin="11.2s" fill="freeze" /></path><path d="M34.33,75c6.58,12.46,16.97,23.28,42.33,23.43c12.23,0.08,13.03-3.32,2.83-9" class="stroke" stroke-dasharray="150"><set attributeName="opacity" to="0" dur="12.1s" /><animate attributeName="stroke-dashoffset" from="150" to="0" dur="1.8s" begin="12.1s" fill="freeze" /></path><path d="M57.41,76.25c2.17,5.25,5.32,10.5,7.63,2.46" class="stroke" stroke-dasharray="150"><set attributeName="opacity" to="0" dur="13.799999999999999s" /><animate attributeName="stroke-dashoffset" from="150" to="0" dur="1.8s" begin="13.799999999999999s" fill="freeze" /></path><path d="M81.88,71.98c5.41,2.32,9.46,4.43,13.85,11.61" class="stroke" stroke-dasharray="150"><set attributeName="opacity" to="0" dur="14.7s" /><animate attributeName="stroke-dashoffset" from="150" to="0" dur="1.8s" begin="14.7s" fill="freeze" /></path><text x="90" y="120" id="reset-kvg-0613f">⟳</text><text x="70" y="120" id="pause-kvg-0613f">◼</text><script type="text/javascript"><![CDATA[function RecurringTimer(e,t){var n,r,i=t;this.pause=function(){window.clearTimeout(n);i-=new Date-r};var s=function(){r=new Date;n=window.setTimeout(function(){i=t;s();e()},i)};this.clear=function(){window.clearTimeout(n);i=t;n=window.setTimeout(function(){i=t;s();e()},i)};this.resume=s;this.resume()}function invoketimer(){timer=new RecurringTimer(function(){svg.setCurrentTime(0)},16600.0)}var svg=document.getElementById("kvg-0613f");var pause=document.getElementById("pause-kvg-0613f");var reset=document.getElementById("reset-kvg-0613f");var timer;invoketimer();reset.onclick=function(){svg.setCurrentTime(0);timer.clear();svg.unpauseAnimations();pause.innerHTML = "◼";};pause.onclick=function(){if(svg.animationsPaused()){svg.unpauseAnimations();timer.resume();pause.innerHTML="◼"}else{svg.pauseAnimations();timer.pause();pause.innerHTML="▶"}}]]></script></svg>