<svg id="kvg-0616e-KaishoHzFstRiLe" class="kanjivg" width="106" height="126" xmlns="http://www.w3.org/2000/svg" xmlns:xlink="http://www.w3.org/1999/xlink" xml:space="preserve" version="1.1" baseProfile="full"><defs><style type="text/css"><![CDATA[path.black{fill:none;stroke:black;stroke-width:5;stroke-linecap:round;stroke-linejoin:round;}path.grey{fill:none;stroke:#ddd;stroke-width:5;stroke-linecap:round;stroke-linejoin:round;}path.stroke{fill:none;stroke:black;stroke-width:5;stroke-linecap:round;stroke-linejoin:round;}rect{fill:none;stroke:#555;stroke-width:2;} text{font-size:16px;font-family:Segoe UI Symbol,Cambria Math,DejaVu Sans,Symbola,Quivira,STIX,Code2000;-webkit-touch-callout:none;cursor:pointer;-webkit-user-select:none;-khtml-user-select:none;-moz-user-select:none;-ms-user-select:none;user-select: none;}text:hover{color:#777;}#reset{font-weight:bold;}]]></style><marker id="markerStart" markerWidth="8" markerHeight="8" style="overflow:visible;"><circle cx="0" cy="0" r="1.5" style="stroke:none;fill:red;fill-opacity:0.5;"/></marker><marker id="markerEnd" style="overflow:visible;"><circle cx="0" cy="0" r="0.8" style="stroke:none;fill:blue;fill-opacity:0.5;"><animate attributeName="opacity" from="1" to="0" dur="3s" repeatCount="indefinite" /></circle></marker></defs><rect x="4" y="4" width="100" height="100" /><path d="M55.47,17.02c4.42-0.77,10.37-1.77,14.85-2.38c1.48-0.2,2.38,0.18,3.13,0.37" class="grey" /><path d="M52.44,9.83c0.78,0.77,1.39,1.66,1.39,4.19c0,4.92-0.02,6.84-0.02,10.98" class="grey" /><path d="M28.41,28.99c1.59-0.24,3.1-0.44,4.89-0.72c12.72-2.02,36.3-4.52,47.19-4.68c11.48-0.17,2.43,6.16-0.43,8.28" class="grey" /><path d="M26.33,26.93c0.92,0.82,1.69,2.82,1.69,4.32c0,24-5.52,45.25-16.52,57.75" class="grey" /><path d="M35.83,37.94c0.76,0.37,2.62,0.47,3.37,0.37c7.55-1.06,22.38-4.07,30.55-4.97c1.25-0.14,2.01,0.18,2.65,0.36" class="grey" /><path d="M51.55,28.93c0.4,0.31,0.93,1.56,0.93,2c0,3.51-0.07,6.44-0.07,8.01c0,4.66,2.22,4.31,7.97,4.31c2.14,0,7.34,0,9.18-0.63" class="grey" /><path d="M37.11,52.33c0.3,0.31,0.31,0.51,0.47,0.89c1.34,3.1,2.54,13.21,3.33,18.92" class="grey" /><path d="M38.53,52.8c10.62-0.31,29.05-2.02,36.98-2.33c2.91-0.11,4.03,0.54,3.74,3.21c-0.5,4.57-2.39,11.04-3.95,16.18" class="grey" /><path d="M56.94,52.12c-0.15,1.8,0,16.14,0,17.65" class="grey" /><path d="M40.74,61.11c8-0.36,16-0.91,24-1.35c0.96-0.05,1.89-0.1,2.78-0.15" class="grey" /><path d="M42.08,71.1c8.26-0.83,25.8-2.08,33.31-2.32" class="grey" /><path d="M31.88,81.61c0.34,1.76-3.36,9.51-6.05,12.44" class="grey" /><path d="M44.65,81.63c4.37,8.08,20.3,15.86,40.13,14.34c6.01-0.46,6.01-1.95,2.71-4.13" class="grey" /><path d="M56.78,77.05c1.66,2.39,5.09,6.47,6.12,3.1" class="grey" /><path d="M81.97,73.58c4.3,1.96,7.54,3.75,11.03,9.82" class="grey" /><path d="M55.47,17.02c4.42-0.77,10.37-1.77,14.85-2.38c1.48-0.2,2.38,0.18,3.13,0.37" class="stroke" stroke-dasharray="150"><animate attributeName="stroke-dashoffset" from="150" to="0" dur="1.8s" begin="0.0s" fill="freeze" /></path><path d="M52.44,9.83c0.78,0.77,1.39,1.66,1.39,4.19c0,4.92-0.02,6.84-0.02,10.98" class="stroke" stroke-dasharray="150"><set attributeName="opacity" to="0" dur="0.9s" /><animate attributeName="stroke-dashoffset" from="150" to="0" dur="1.8s" begin="0.9s" fill="freeze" /></path><path d="M28.41,28.99c1.59-0.24,3.1-0.44,4.89-0.72c12.72-2.02,36.3-4.52,47.19-4.68c11.48-0.17,2.43,6.16-0.43,8.28" class="stroke" stroke-dasharray="150"><set attributeName="opacity" to="0" dur="1.8s" /><animate attributeName="stroke-dashoffset" from="150" to="0" dur="1.8s" begin="1.8s" fill="freeze" /></path><path d="M26.33,26.93c0.92,0.82,1.69,2.82,1.69,4.32c0,24-5.52,45.25-16.52,57.75" class="stroke" stroke-dasharray="150"><set attributeName="opacity" to="0" dur="3.3s" /><animate attributeName="stroke-dashoffset" from="150" to="0" dur="1.8s" begin="3.3s" fill="freeze" /></path><path d="M35.83,37.94c0.76,0.37,2.62,0.47,3.37,0.37c7.55-1.06,22.38-4.07,30.55-4.97c1.25-0.14,2.01,0.18,2.65,0.36" class="stroke" stroke-dasharray="150"><set attributeName="opacity" to="0" dur="4.8s" /><animate attributeName="stroke-dashoffset" from="150" to="0" dur="1.8s" begin="4.8s" fill="freeze" /></path><path d="M51.55,28.93c0.4,0.31,0.93,1.56,0.93,2c0,3.51-0.07,6.44-0.07,8.01c0,4.66,2.22,4.31,7.97,4.31c2.14,0,7.34,0,9.18-0.63" class="stroke" stroke-dasharray="150"><set attributeName="opacity" to="0" dur="5.8s" /><animate attributeName="stroke-dashoffset" from="150" to="0" dur="1.8s" begin="5.8s" fill="freeze" /></path><path d="M37.11,52.33c0.3,0.31,0.31,0.51,0.47,0.89c1.34,3.1,2.54,13.21,3.33,18.92" class="stroke" stroke-dasharray="150"><set attributeName="opacity" to="0" dur="6.8s" /><animate attributeName="stroke-dashoffset" from="150" to="0" dur="1.8s" begin="6.8s" fill="freeze" /></path><path d="M38.53,52.8c10.62-0.31,29.05-2.02,36.98-2.33c2.91-0.11,4.03,0.54,3.74,3.21c-0.5,4.57-2.39,11.04-3.95,16.18" class="stroke" stroke-dasharray="150"><set attributeName="opacity" to="0" dur="7.8s" /><animate attributeName="stroke-dashoffset" from="150" to="0" dur="1.8s" begin="7.8s" fill="freeze" /></path><path d="M56.94,52.12c-0.15,1.8,0,16.14,0,17.65" class="stroke" stroke-dasharray="150"><set attributeName="opacity" to="0" dur="9.2s" /><animate attributeName="stroke-dashoffset" from="150" to="0" dur="1.8s" begin="9.2s" fill="freeze" /></path><path d="M40.74,61.11c8-0.36,16-0.91,24-1.35c0.96-0.05,1.89-0.1,2.78-0.15" class="stroke" stroke-dasharray="150"><set attributeName="opacity" to="0" dur="10.1s" /><animate attributeName="stroke-dashoffset" from="150" to="0" dur="1.8s" begin="10.1s" fill="freeze" /></path><path d="M42.08,71.1c8.26-0.83,25.8-2.08,33.31-2.32" class="stroke" stroke-dasharray="150"><set attributeName="opacity" to="0" dur="11.1s" /><animate attributeName="stroke-dashoffset" from="150" to="0" dur="1.8s" begin="11.1s" fill="freeze" /></path><path d="M31.88,81.61c0.34,1.76-3.36,9.51-6.05,12.44" class="stroke" stroke-dasharray="150"><set attributeName="opacity" to="0" dur="12.1s" /><animate attributeName="stroke-dashoffset" from="150" to="0" dur="1.8s" begin="12.1s" fill="freeze" /></path><path d="M44.65,81.63c4.37,8.08,20.3,15.86,40.13,14.34c6.01-0.46,6.01-1.95,2.71-4.13" class="stroke" stroke-dasharray="150"><set attributeName="opacity" to="0" dur="13.0s" /><animate attributeName="stroke-dashoffset" from="150" to="0" dur="1.8s" begin="13.0s" fill="freeze" /></path><path d="M56.78,77.05c1.66,2.39,5.09,6.47,6.12,3.1" class="stroke" stroke-dasharray="150"><set attributeName="opacity" to="0" dur="14.3s" /><animate attributeName="stroke-dashoffset" from="150" to="0" dur="1.8s" begin="14.3s" fill="freeze" /></path><path d="M81.97,73.58c4.3,1.96,7.54,3.75,11.03,9.82" class="stroke" stroke-dasharray="150"><set attributeName="opacity" to="0" dur="15.200000000000001s" /><animate attributeName="stroke-dashoffset" from="150" to="0" dur="1.8s" begin="15.200000000000001s" fill="freeze" /></path><text x="90" y="120" id="reset-kvg-0616e-KaishoHzFstRiLe">⟳</text><text x="70" y="120" id="pause-kvg-0616e-KaishoHzFstRiLe">◼</text><script type="text/javascript"><![CDATA[function RecurringTimer(e,t){var n,r,i=t;this.pause=function(){window.clearTimeout(n);i-=new Date-r};var s=function(){r=new Date;n=window.setTimeout(function(){i=t;s();e()},i)};this.clear=function(){window.clearTimeout(n);i=t;n=window.setTimeout(function(){i=t;s();e()},i)};this.resume=s;this.resume()}function invoketimer(){timer=new RecurringTimer(function(){svg.setCurrentTime(0)},17100.0)}var svg=document.getElementById("kvg-0616e-KaishoHzFstRiLe");var pause=document.getElementById("pause-kvg-0616e-KaishoHzFstRiLe");var reset=document.getElementById("reset-kvg-0616e-KaishoHzFstRiLe");var timer;invoketimer();reset.onclick=function(){svg.setCurrentTime(0);timer.clear();svg.unpauseAnimations();pause.innerHTML = "◼";};pause.onclick=function(){if(svg.animationsPaused()){svg.unpauseAnimations();timer.resume();pause.innerHTML="◼"}else{svg.pauseAnimations();timer.pause();pause.innerHTML="▶"}}]]></script></svg>