<svg id="kvg-061ac-Kaisho" class="kanjivg" width="106" height="126" xmlns="http://www.w3.org/2000/svg" xmlns:xlink="http://www.w3.org/1999/xlink" xml:space="preserve" version="1.1" baseProfile="full"><defs><style type="text/css"><![CDATA[path.black{fill:none;stroke:black;stroke-width:5;stroke-linecap:round;stroke-linejoin:round;}path.grey{fill:none;stroke:#ddd;stroke-width:5;stroke-linecap:round;stroke-linejoin:round;}path.stroke{fill:none;stroke:black;stroke-width:5;stroke-linecap:round;stroke-linejoin:round;}rect{fill:none;stroke:#555;stroke-width:2;} text{font-size:16px;font-family:Segoe UI Symbol,Cambria Math,DejaVu Sans,Symbola,Quivira,STIX,Code2000;-webkit-touch-callout:none;cursor:pointer;-webkit-user-select:none;-khtml-user-select:none;-moz-user-select:none;-ms-user-select:none;user-select: none;}text:hover{color:#777;}#reset{font-weight:bold;}]]></style><marker id="markerStart" markerWidth="8" markerHeight="8" style="overflow:visible;"><circle cx="0" cy="0" r="1.5" style="stroke:none;fill:red;fill-opacity:0.5;"/></marker><marker id="markerEnd" style="overflow:visible;"><circle cx="0" cy="0" r="0.8" style="stroke:none;fill:blue;fill-opacity:0.5;"><animate attributeName="opacity" from="1" to="0" dur="3s" repeatCount="indefinite" /></circle></marker></defs><rect x="4" y="4" width="100" height="100" /><path d="M16.97,34.75C17,39.13,14.1,49.1,11.53,52.5" class="grey" /><path d="M32.02,28.83c2.13,2.05,5.51,8.44,6.04,11.63" class="grey" /><path d="M23.87,12.75c1.09,0.5,1.74,2.25,1.96,3.25c0.22,1,0,75.75-0.22,82" class="grey" /><path d="M47.43,13.56c0.52,0.49,0.92,1.67,1.04,2.35c0.57,3.24,2.01,13.97,2.7,19.22" class="grey" /><path d="M48.96,15.45c2.9-0.29,32.28-2.83,34.92-3.12c2.2-0.24,3.65,1.32,3.47,3.19c-0.37,3.82-4.86,16.58-4.86,17.1" class="grey" /><path d="M49.92,24.08c5.52-0.39,11.03-0.88,16.54-1.33c1.87-0.15,3.78-0.31,5.63-0.46" class="grey" /><path d="M51.52,32.67c8.15-0.73,23.7-1.69,31.22-2.22" class="grey" /><path d="M64.08,35.67c1.66,0.85,3.92,3.33,4.89,5.98" class="grey" /><path d="M43,46.59c1.02,0.05,3.33,0.37,4.32,0.29c10.93-0.88,33.43-2.63,43.92-3.75c1.67-0.18,2.53-0.03,3.77,0.41" class="grey" /><path d="M51.59,54.07c0.39,0.29,0.87,2,0.96,2.38c0.59,2.81,1.39,8.25,2.26,13.58" class="grey" /><path d="M52.87,55.38c7.13-0.63,26.24-2.81,30.21-3.26c1.64-0.19,3.17,1.54,2.5,3.68c-0.74,2.39-2.12,7.34-3.15,10.66" class="grey" /><path d="M55.08,68.58C64.25,68,74,67.5,84.26,66.88" class="grey" /><path d="M67.98,70.38c0.06,0.39,0.8,2.02,0.9,4.47c0.16,3.97-0.18,14.1-0.18,17.51c0,8.63-5.17,0.4-6.24-0.61" class="grey" /><path d="M54.5,76.9c0.04,0.37,0.09,0.95-0.08,1.49c-0.98,3.13-6.64,10-14.37,14.21" class="grey" /><path d="M81.31,76.15c5.1,2.93,12.14,11.1,13.42,15.66" class="grey" /><path d="M16.97,34.75C17,39.13,14.1,49.1,11.53,52.5" class="stroke" stroke-dasharray="150"><animate attributeName="stroke-dashoffset" from="150" to="0" dur="1.8s" begin="0.0s" fill="freeze" /></path><path d="M32.02,28.83c2.13,2.05,5.51,8.44,6.04,11.63" class="stroke" stroke-dasharray="150"><set attributeName="opacity" to="0" dur="0.9s" /><animate attributeName="stroke-dashoffset" from="150" to="0" dur="1.8s" begin="0.9s" fill="freeze" /></path><path d="M23.87,12.75c1.09,0.5,1.74,2.25,1.96,3.25c0.22,1,0,75.75-0.22,82" class="stroke" stroke-dasharray="150"><set attributeName="opacity" to="0" dur="1.8s" /><animate attributeName="stroke-dashoffset" from="150" to="0" dur="1.8s" begin="1.8s" fill="freeze" /></path><path d="M47.43,13.56c0.52,0.49,0.92,1.67,1.04,2.35c0.57,3.24,2.01,13.97,2.7,19.22" class="stroke" stroke-dasharray="150"><set attributeName="opacity" to="0" dur="3.5s" /><animate attributeName="stroke-dashoffset" from="150" to="0" dur="1.8s" begin="3.5s" fill="freeze" /></path><path d="M48.96,15.45c2.9-0.29,32.28-2.83,34.92-3.12c2.2-0.24,3.65,1.32,3.47,3.19c-0.37,3.82-4.86,16.58-4.86,17.1" class="stroke" stroke-dasharray="150"><set attributeName="opacity" to="0" dur="4.5s" /><animate attributeName="stroke-dashoffset" from="150" to="0" dur="1.8s" begin="4.5s" fill="freeze" /></path><path d="M49.92,24.08c5.52-0.39,11.03-0.88,16.54-1.33c1.87-0.15,3.78-0.31,5.63-0.46" class="stroke" stroke-dasharray="150"><set attributeName="opacity" to="0" dur="5.9s" /><animate attributeName="stroke-dashoffset" from="150" to="0" dur="1.8s" begin="5.9s" fill="freeze" /></path><path d="M51.52,32.67c8.15-0.73,23.7-1.69,31.22-2.22" class="stroke" stroke-dasharray="150"><set attributeName="opacity" to="0" dur="6.9s" /><animate attributeName="stroke-dashoffset" from="150" to="0" dur="1.8s" begin="6.9s" fill="freeze" /></path><path d="M64.08,35.67c1.66,0.85,3.92,3.33,4.89,5.98" class="stroke" stroke-dasharray="150"><set attributeName="opacity" to="0" dur="7.9s" /><animate attributeName="stroke-dashoffset" from="150" to="0" dur="1.8s" begin="7.9s" fill="freeze" /></path><path d="M43,46.59c1.02,0.05,3.33,0.37,4.32,0.29c10.93-0.88,33.43-2.63,43.92-3.75c1.67-0.18,2.53-0.03,3.77,0.41" class="stroke" stroke-dasharray="150"><set attributeName="opacity" to="0" dur="8.8s" /><animate attributeName="stroke-dashoffset" from="150" to="0" dur="1.8s" begin="8.8s" fill="freeze" /></path><path d="M51.59,54.07c0.39,0.29,0.87,2,0.96,2.38c0.59,2.81,1.39,8.25,2.26,13.58" class="stroke" stroke-dasharray="150"><set attributeName="opacity" to="0" dur="10.100000000000001s" /><animate attributeName="stroke-dashoffset" from="150" to="0" dur="1.8s" begin="10.100000000000001s" fill="freeze" /></path><path d="M52.87,55.38c7.13-0.63,26.24-2.81,30.21-3.26c1.64-0.19,3.17,1.54,2.5,3.68c-0.74,2.39-2.12,7.34-3.15,10.66" class="stroke" stroke-dasharray="150"><set attributeName="opacity" to="0" dur="11.000000000000002s" /><animate attributeName="stroke-dashoffset" from="150" to="0" dur="1.8s" begin="11.000000000000002s" fill="freeze" /></path><path d="M55.08,68.58C64.25,68,74,67.5,84.26,66.88" class="stroke" stroke-dasharray="150"><set attributeName="opacity" to="0" dur="12.200000000000001s" /><animate attributeName="stroke-dashoffset" from="150" to="0" dur="1.8s" begin="12.200000000000001s" fill="freeze" /></path><path d="M67.98,70.38c0.06,0.39,0.8,2.02,0.9,4.47c0.16,3.97-0.18,14.1-0.18,17.51c0,8.63-5.17,0.4-6.24-0.61" class="stroke" stroke-dasharray="150"><set attributeName="opacity" to="0" dur="13.200000000000001s" /><animate attributeName="stroke-dashoffset" from="150" to="0" dur="1.8s" begin="13.200000000000001s" fill="freeze" /></path><path d="M54.5,76.9c0.04,0.37,0.09,0.95-0.08,1.49c-0.98,3.13-6.64,10-14.37,14.21" class="stroke" stroke-dasharray="150"><set attributeName="opacity" to="0" dur="14.200000000000001s" /><animate attributeName="stroke-dashoffset" from="150" to="0" dur="1.8s" begin="14.200000000000001s" fill="freeze" /></path><path d="M81.31,76.15c5.1,2.93,12.14,11.1,13.42,15.66" class="stroke" stroke-dasharray="150"><set attributeName="opacity" to="0" dur="15.200000000000001s" /><animate attributeName="stroke-dashoffset" from="150" to="0" dur="1.8s" begin="15.200000000000001s" fill="freeze" /></path><text x="90" y="120" id="reset-kvg-061ac-Kaisho">⟳</text><text x="70" y="120" id="pause-kvg-061ac-Kaisho">◼</text><script type="text/javascript"><![CDATA[function RecurringTimer(e,t){var n,r,i=t;this.pause=function(){window.clearTimeout(n);i-=new Date-r};var s=function(){r=new Date;n=window.setTimeout(function(){i=t;s();e()},i)};this.clear=function(){window.clearTimeout(n);i=t;n=window.setTimeout(function(){i=t;s();e()},i)};this.resume=s;this.resume()}function invoketimer(){timer=new RecurringTimer(function(){svg.setCurrentTime(0)},17200.000000000004)}var svg=document.getElementById("kvg-061ac-Kaisho");var pause=document.getElementById("pause-kvg-061ac-Kaisho");var reset=document.getElementById("reset-kvg-061ac-Kaisho");var timer;invoketimer();reset.onclick=function(){svg.setCurrentTime(0);timer.clear();svg.unpauseAnimations();pause.innerHTML = "◼";};pause.onclick=function(){if(svg.animationsPaused()){svg.unpauseAnimations();timer.resume();pause.innerHTML="◼"}else{svg.pauseAnimations();timer.pause();pause.innerHTML="▶"}}]]></script></svg>