<svg id="kvg-061c8" class="kanjivg" width="106" height="126" xmlns="http://www.w3.org/2000/svg" xmlns:xlink="http://www.w3.org/1999/xlink" xml:space="preserve" version="1.1" baseProfile="full"><defs><style type="text/css"><![CDATA[path.black{fill:none;stroke:black;stroke-width:5;stroke-linecap:round;stroke-linejoin:round;}path.grey{fill:none;stroke:#ddd;stroke-width:5;stroke-linecap:round;stroke-linejoin:round;}path.stroke{fill:none;stroke:black;stroke-width:5;stroke-linecap:round;stroke-linejoin:round;}rect{fill:none;stroke:#555;stroke-width:2;} text{font-size:16px;font-family:Segoe UI Symbol,Cambria Math,DejaVu Sans,Symbola,Quivira,STIX,Code2000;-webkit-touch-callout:none;cursor:pointer;-webkit-user-select:none;-khtml-user-select:none;-moz-user-select:none;-ms-user-select:none;user-select: none;}text:hover{color:#777;}#reset{font-weight:bold;}]]></style><marker id="markerStart" markerWidth="8" markerHeight="8" style="overflow:visible;"><circle cx="0" cy="0" r="1.5" style="stroke:none;fill:red;fill-opacity:0.5;"/></marker><marker id="markerEnd" style="overflow:visible;"><circle cx="0" cy="0" r="0.8" style="stroke:none;fill:blue;fill-opacity:0.5;"><animate attributeName="opacity" from="1" to="0" dur="3s" repeatCount="indefinite" /></circle></marker></defs><rect x="4" y="4" width="100" height="100" /><path d="M14.97,36.75C15,40.88,12.9,50.29,11.03,53.5" class="grey" /><path d="M25.27,33.83c2.4,2.14,6.19,8.8,6.79,12.13" class="grey" /><path d="M20.37,13.25c1.09,0.5,1.74,2.25,1.96,3.25c0.22,1,0,73.75-0.22,80" class="grey" /><path d="M46.42,10.25c0.04,0.51,0.08,1.33-0.07,2.07c-0.9,4.36-6.03,13.92-13.07,19.77" class="grey" /><path d="M44.55,19.61c1.51,0,11.03-1.72,13.84-2.7c1.63-0.57,2.49,1.12,1.51,2.69c-3.18,5.14-6.43,9.03-8.82,14.67" class="grey" /><path d="M39.32,35.25c0.71,0.76,1.41,2.9,1.42,3.71c0.02,1.96-0.51,24.38-0.65,26.09c-0.88,11.04-2.87,21.2-8.84,28.05" class="grey" /><path d="M40.63,36.42c1.89-0.2,16.71-3.15,18.12-3.38c2.52-0.41,3.47,2.65,3.15,3.88c-0.3,1.18-0.47,34.35-0.47,50.89c0,11.88-3.32,3.3-5.06,1.59" class="grey" /><path d="M50.72,36.59c0.04,0.23,0.52,1.22,0.55,2.71c0.18,7.15-0.11,23.4-0.11,25.83" class="grey" /><path d="M40.37,51.76c7.89-1.32,13.19-1.56,20.91-2.78" class="grey" /><path d="M40.37,66.84c5.06-0.49,13.19-1.21,20.58-1.94" class="grey" /><path d="M68.82,18.26c0.87,0.25,1.97,0.22,2.74,0.13c6.22-0.69,16.71-2.28,20.16-2.54c2.25-0.17,2.86,1.72,2.74,2.88c-0.33,3.08-1.79,11.18-4.36,15.2c-3.42,5.36-3.99,1.51-5.23,0.16" class="grey" /><path d="M80.18,20.46c0.04,0.43,0.06,1.12-0.09,1.75c-1.48,6.12-6.34,12.65-13.18,17.34" class="grey" /><path d="M72.63,43.45c0.02,0.44,0,1.12-0.04,1.75c-0.34,4.55-2.09,12.3-7.38,17.32" class="grey" /><path d="M73.86,53.82c0.46,0.24,2.43,0.29,2.88,0.24c5.59-0.66,11.15-1.82,16.28-2.03c0.76-0.03,2.35,0.11,2.73,0.23" class="grey" /><path d="M66.52,69.6c0.81,0.2,2.29,0.18,3.1,0.2C79,70,90.19,67.65,97.08,67.47c1.35-0.03,2.16,0.09,2.83,0.19" class="grey" /><path d="M81.33,39.67c0.4,0.31,1.25,2.3,1.33,2.92c0.08,0.62-0.05,48.81-0.13,52.66" class="grey" /><path d="M14.97,36.75C15,40.88,12.9,50.29,11.03,53.5" class="stroke" stroke-dasharray="150"><animate attributeName="stroke-dashoffset" from="150" to="0" dur="1.8s" begin="0.0s" fill="freeze" /></path><path d="M25.27,33.83c2.4,2.14,6.19,8.8,6.79,12.13" class="stroke" stroke-dasharray="150"><set attributeName="opacity" to="0" dur="0.9s" /><animate attributeName="stroke-dashoffset" from="150" to="0" dur="1.8s" begin="0.9s" fill="freeze" /></path><path d="M20.37,13.25c1.09,0.5,1.74,2.25,1.96,3.25c0.22,1,0,73.75-0.22,80" class="stroke" stroke-dasharray="150"><set attributeName="opacity" to="0" dur="1.8s" /><animate attributeName="stroke-dashoffset" from="150" to="0" dur="1.8s" begin="1.8s" fill="freeze" /></path><path d="M46.42,10.25c0.04,0.51,0.08,1.33-0.07,2.07c-0.9,4.36-6.03,13.92-13.07,19.77" class="stroke" stroke-dasharray="150"><set attributeName="opacity" to="0" dur="3.5s" /><animate attributeName="stroke-dashoffset" from="150" to="0" dur="1.8s" begin="3.5s" fill="freeze" /></path><path d="M44.55,19.61c1.51,0,11.03-1.72,13.84-2.7c1.63-0.57,2.49,1.12,1.51,2.69c-3.18,5.14-6.43,9.03-8.82,14.67" class="stroke" stroke-dasharray="150"><set attributeName="opacity" to="0" dur="4.5s" /><animate attributeName="stroke-dashoffset" from="150" to="0" dur="1.8s" begin="4.5s" fill="freeze" /></path><path d="M39.32,35.25c0.71,0.76,1.41,2.9,1.42,3.71c0.02,1.96-0.51,24.38-0.65,26.09c-0.88,11.04-2.87,21.2-8.84,28.05" class="stroke" stroke-dasharray="150"><set attributeName="opacity" to="0" dur="5.5s" /><animate attributeName="stroke-dashoffset" from="150" to="0" dur="1.8s" begin="5.5s" fill="freeze" /></path><path d="M40.63,36.42c1.89-0.2,16.71-3.15,18.12-3.38c2.52-0.41,3.47,2.65,3.15,3.88c-0.3,1.18-0.47,34.35-0.47,50.89c0,11.88-3.32,3.3-5.06,1.59" class="stroke" stroke-dasharray="150"><set attributeName="opacity" to="0" dur="7.0s" /><animate attributeName="stroke-dashoffset" from="150" to="0" dur="1.8s" begin="7.0s" fill="freeze" /></path><path d="M50.72,36.59c0.04,0.23,0.52,1.22,0.55,2.71c0.18,7.15-0.11,23.4-0.11,25.83" class="stroke" stroke-dasharray="150"><set attributeName="opacity" to="0" dur="8.7s" /><animate attributeName="stroke-dashoffset" from="150" to="0" dur="1.8s" begin="8.7s" fill="freeze" /></path><path d="M40.37,51.76c7.89-1.32,13.19-1.56,20.91-2.78" class="stroke" stroke-dasharray="150"><set attributeName="opacity" to="0" dur="9.7s" /><animate attributeName="stroke-dashoffset" from="150" to="0" dur="1.8s" begin="9.7s" fill="freeze" /></path><path d="M40.37,66.84c5.06-0.49,13.19-1.21,20.58-1.94" class="stroke" stroke-dasharray="150"><set attributeName="opacity" to="0" dur="10.7s" /><animate attributeName="stroke-dashoffset" from="150" to="0" dur="1.8s" begin="10.7s" fill="freeze" /></path><path d="M68.82,18.26c0.87,0.25,1.97,0.22,2.74,0.13c6.22-0.69,16.71-2.28,20.16-2.54c2.25-0.17,2.86,1.72,2.74,2.88c-0.33,3.08-1.79,11.18-4.36,15.2c-3.42,5.36-3.99,1.51-5.23,0.16" class="stroke" stroke-dasharray="150"><set attributeName="opacity" to="0" dur="11.7s" /><animate attributeName="stroke-dashoffset" from="150" to="0" dur="1.8s" begin="11.7s" fill="freeze" /></path><path d="M80.18,20.46c0.04,0.43,0.06,1.12-0.09,1.75c-1.48,6.12-6.34,12.65-13.18,17.34" class="stroke" stroke-dasharray="150"><set attributeName="opacity" to="0" dur="13.0s" /><animate attributeName="stroke-dashoffset" from="150" to="0" dur="1.8s" begin="13.0s" fill="freeze" /></path><path d="M72.63,43.45c0.02,0.44,0,1.12-0.04,1.75c-0.34,4.55-2.09,12.3-7.38,17.32" class="stroke" stroke-dasharray="150"><set attributeName="opacity" to="0" dur="14.0s" /><animate attributeName="stroke-dashoffset" from="150" to="0" dur="1.8s" begin="14.0s" fill="freeze" /></path><path d="M73.86,53.82c0.46,0.24,2.43,0.29,2.88,0.24c5.59-0.66,11.15-1.82,16.28-2.03c0.76-0.03,2.35,0.11,2.73,0.23" class="stroke" stroke-dasharray="150"><set attributeName="opacity" to="0" dur="15.0s" /><animate attributeName="stroke-dashoffset" from="150" to="0" dur="1.8s" begin="15.0s" fill="freeze" /></path><path d="M66.52,69.6c0.81,0.2,2.29,0.18,3.1,0.2C79,70,90.19,67.65,97.08,67.47c1.35-0.03,2.16,0.09,2.83,0.19" class="stroke" stroke-dasharray="150"><set attributeName="opacity" to="0" dur="16.0s" /><animate attributeName="stroke-dashoffset" from="150" to="0" dur="1.8s" begin="16.0s" fill="freeze" /></path><path d="M81.33,39.67c0.4,0.31,1.25,2.3,1.33,2.92c0.08,0.62-0.05,48.81-0.13,52.66" class="stroke" stroke-dasharray="150"><set attributeName="opacity" to="0" dur="17.0s" /><animate attributeName="stroke-dashoffset" from="150" to="0" dur="1.8s" begin="17.0s" fill="freeze" /></path><text x="90" y="120" id="reset-kvg-061c8">⟳</text><text x="70" y="120" id="pause-kvg-061c8">◼</text><script type="text/javascript"><![CDATA[function RecurringTimer(e,t){var n,r,i=t;this.pause=function(){window.clearTimeout(n);i-=new Date-r};var s=function(){r=new Date;n=window.setTimeout(function(){i=t;s();e()},i)};this.clear=function(){window.clearTimeout(n);i=t;n=window.setTimeout(function(){i=t;s();e()},i)};this.resume=s;this.resume()}function invoketimer(){timer=new RecurringTimer(function(){svg.setCurrentTime(0)},19400.0)}var svg=document.getElementById("kvg-061c8");var pause=document.getElementById("pause-kvg-061c8");var reset=document.getElementById("reset-kvg-061c8");var timer;invoketimer();reset.onclick=function(){svg.setCurrentTime(0);timer.clear();svg.unpauseAnimations();pause.innerHTML = "◼";};pause.onclick=function(){if(svg.animationsPaused()){svg.unpauseAnimations();timer.resume();pause.innerHTML="◼"}else{svg.pauseAnimations();timer.pause();pause.innerHTML="▶"}}]]></script></svg>