<svg id="kvg-061cd-Kaisho" class="kanjivg" width="106" height="126" xmlns="http://www.w3.org/2000/svg" xmlns:xlink="http://www.w3.org/1999/xlink" xml:space="preserve" version="1.1" baseProfile="full"><defs><style type="text/css"><![CDATA[path.black{fill:none;stroke:black;stroke-width:5;stroke-linecap:round;stroke-linejoin:round;}path.grey{fill:none;stroke:#ddd;stroke-width:5;stroke-linecap:round;stroke-linejoin:round;}path.stroke{fill:none;stroke:black;stroke-width:5;stroke-linecap:round;stroke-linejoin:round;}rect{fill:none;stroke:#555;stroke-width:2;} text{font-size:16px;font-family:Segoe UI Symbol,Cambria Math,DejaVu Sans,Symbola,Quivira,STIX,Code2000;-webkit-touch-callout:none;cursor:pointer;-webkit-user-select:none;-khtml-user-select:none;-moz-user-select:none;-ms-user-select:none;user-select: none;}text:hover{color:#777;}#reset{font-weight:bold;}]]></style><marker id="markerStart" markerWidth="8" markerHeight="8" style="overflow:visible;"><circle cx="0" cy="0" r="1.5" style="stroke:none;fill:red;fill-opacity:0.5;"/></marker><marker id="markerEnd" style="overflow:visible;"><circle cx="0" cy="0" r="0.8" style="stroke:none;fill:blue;fill-opacity:0.5;"><animate attributeName="opacity" from="1" to="0" dur="3s" repeatCount="indefinite" /></circle></marker></defs><rect x="4" y="4" width="100" height="100" /><path d="M15.47,32.5c0.03,4.19-2.07,13.74-3.94,17" class="grey" /><path d="M30.52,31.08c2.13,2.45,5.51,10.07,6.04,13.88" class="grey" /><path d="M21.37,13.75c1.09,0.5,1.74,2.25,1.96,3.25c0.22,1,0,75.25-0.22,81.5" class="grey" /><path d="M61.34,10c2.03,0.95,4.41,3.75,5.36,6.49" class="grey" /><path d="M37.17,22.21c1.67,0.33,3.13,1.1,5.05,0.96c12.53-0.92,32.91-3,46.2-3.67c1.96-0.1,2.96,0.04,4.41,0.58" class="grey" /><path d="M44.21,30.95c0.59,0.61,0.68,1.75,0.8,2.51c0.82,5.17,1.89,14.16,3.09,24.29" class="grey" /><path d="M44.95,32.72c10.58-0.67,33.22-3.47,40.31-3.47c1.61,0,2.74,2.01,2.55,3.23c-0.88,5.77-1.81,12.77-2.85,21.94" class="grey" /><path d="M56.02,37.3c0.18,0.17,0.37,0.81,0.45,1.01c0.63,1.65,1.21,7.28,1.75,10.25" class="grey" /><path d="M56.65,38.5c3.73-0.86,15.77-1.81,17.91-2.03c0.78-0.08,1.25,0.47,1.14,0.94c-0.46,1.93-1,5.26-1.69,7.93" class="grey" /><path d="M57.89,46.9c2.7-0.42,14.46-0.95,17.9-1.33" class="grey" /><path d="M48.34,54.98c10.25-0.73,26.23-2.82,37.03-3.41" class="grey" /><path d="M77.79,56.5c0.09,0.24,0.2,0.62-0.19,0.96c-2.28,2.04-15.34,6.5-33.22,9.24" class="grey" /><path d="M38.07,74.08c0.57,0.22,2.86,0.8,4.37,0.66c6.84-0.66,37.07-3.29,48.66-3.9c1.52-0.08,3.42,0.26,4.37,0.48" class="grey" /><path d="M65.15,65.48c0.73,0.41,1.17,1.82,1.31,2.63S66.35,89.94,66.32,95c-0.07,8.5-4.07,2.75-5.07,1.75" class="grey" /><path d="M64.25,73.01C57.43,82.46,49.4,90.64,36.5,95.56" class="grey" /><path d="M66.11,72.86C71.25,77.5,84,88.25,91.49,91.81c1.53,0.73,2.61,1.34,4.01,1.61" class="grey" /><path d="M15.47,32.5c0.03,4.19-2.07,13.74-3.94,17" class="stroke" stroke-dasharray="150"><animate attributeName="stroke-dashoffset" from="150" to="0" dur="1.8s" begin="0.0s" fill="freeze" /></path><path d="M30.52,31.08c2.13,2.45,5.51,10.07,6.04,13.88" class="stroke" stroke-dasharray="150"><set attributeName="opacity" to="0" dur="0.9s" /><animate attributeName="stroke-dashoffset" from="150" to="0" dur="1.8s" begin="0.9s" fill="freeze" /></path><path d="M21.37,13.75c1.09,0.5,1.74,2.25,1.96,3.25c0.22,1,0,75.25-0.22,81.5" class="stroke" stroke-dasharray="150"><set attributeName="opacity" to="0" dur="1.8s" /><animate attributeName="stroke-dashoffset" from="150" to="0" dur="1.8s" begin="1.8s" fill="freeze" /></path><path d="M61.34,10c2.03,0.95,4.41,3.75,5.36,6.49" class="stroke" stroke-dasharray="150"><set attributeName="opacity" to="0" dur="3.5s" /><animate attributeName="stroke-dashoffset" from="150" to="0" dur="1.8s" begin="3.5s" fill="freeze" /></path><path d="M37.17,22.21c1.67,0.33,3.13,1.1,5.05,0.96c12.53-0.92,32.91-3,46.2-3.67c1.96-0.1,2.96,0.04,4.41,0.58" class="stroke" stroke-dasharray="150"><set attributeName="opacity" to="0" dur="4.4s" /><animate attributeName="stroke-dashoffset" from="150" to="0" dur="1.8s" begin="4.4s" fill="freeze" /></path><path d="M44.21,30.95c0.59,0.61,0.68,1.75,0.8,2.51c0.82,5.17,1.89,14.16,3.09,24.29" class="stroke" stroke-dasharray="150"><set attributeName="opacity" to="0" dur="5.800000000000001s" /><animate attributeName="stroke-dashoffset" from="150" to="0" dur="1.8s" begin="5.800000000000001s" fill="freeze" /></path><path d="M44.95,32.72c10.58-0.67,33.22-3.47,40.31-3.47c1.61,0,2.74,2.01,2.55,3.23c-0.88,5.77-1.81,12.77-2.85,21.94" class="stroke" stroke-dasharray="150"><set attributeName="opacity" to="0" dur="6.800000000000001s" /><animate attributeName="stroke-dashoffset" from="150" to="0" dur="1.8s" begin="6.800000000000001s" fill="freeze" /></path><path d="M56.02,37.3c0.18,0.17,0.37,0.81,0.45,1.01c0.63,1.65,1.21,7.28,1.75,10.25" class="stroke" stroke-dasharray="150"><set attributeName="opacity" to="0" dur="8.3s" /><animate attributeName="stroke-dashoffset" from="150" to="0" dur="1.8s" begin="8.3s" fill="freeze" /></path><path d="M56.65,38.5c3.73-0.86,15.77-1.81,17.91-2.03c0.78-0.08,1.25,0.47,1.14,0.94c-0.46,1.93-1,5.26-1.69,7.93" class="stroke" stroke-dasharray="150"><set attributeName="opacity" to="0" dur="9.200000000000001s" /><animate attributeName="stroke-dashoffset" from="150" to="0" dur="1.8s" begin="9.200000000000001s" fill="freeze" /></path><path d="M57.89,46.9c2.7-0.42,14.46-0.95,17.9-1.33" class="stroke" stroke-dasharray="150"><set attributeName="opacity" to="0" dur="10.200000000000001s" /><animate attributeName="stroke-dashoffset" from="150" to="0" dur="1.8s" begin="10.200000000000001s" fill="freeze" /></path><path d="M48.34,54.98c10.25-0.73,26.23-2.82,37.03-3.41" class="stroke" stroke-dasharray="150"><set attributeName="opacity" to="0" dur="11.100000000000001s" /><animate attributeName="stroke-dashoffset" from="150" to="0" dur="1.8s" begin="11.100000000000001s" fill="freeze" /></path><path d="M77.79,56.5c0.09,0.24,0.2,0.62-0.19,0.96c-2.28,2.04-15.34,6.5-33.22,9.24" class="stroke" stroke-dasharray="150"><set attributeName="opacity" to="0" dur="12.100000000000001s" /><animate attributeName="stroke-dashoffset" from="150" to="0" dur="1.8s" begin="12.100000000000001s" fill="freeze" /></path><path d="M38.07,74.08c0.57,0.22,2.86,0.8,4.37,0.66c6.84-0.66,37.07-3.29,48.66-3.9c1.52-0.08,3.42,0.26,4.37,0.48" class="stroke" stroke-dasharray="150"><set attributeName="opacity" to="0" dur="13.100000000000001s" /><animate attributeName="stroke-dashoffset" from="150" to="0" dur="1.8s" begin="13.100000000000001s" fill="freeze" /></path><path d="M65.15,65.48c0.73,0.41,1.17,1.82,1.31,2.63S66.35,89.94,66.32,95c-0.07,8.5-4.07,2.75-5.07,1.75" class="stroke" stroke-dasharray="150"><set attributeName="opacity" to="0" dur="14.500000000000002s" /><animate attributeName="stroke-dashoffset" from="150" to="0" dur="1.8s" begin="14.500000000000002s" fill="freeze" /></path><path d="M64.25,73.01C57.43,82.46,49.4,90.64,36.5,95.56" class="stroke" stroke-dasharray="150"><set attributeName="opacity" to="0" dur="15.500000000000002s" /><animate attributeName="stroke-dashoffset" from="150" to="0" dur="1.8s" begin="15.500000000000002s" fill="freeze" /></path><path d="M66.11,72.86C71.25,77.5,84,88.25,91.49,91.81c1.53,0.73,2.61,1.34,4.01,1.61" class="stroke" stroke-dasharray="150"><set attributeName="opacity" to="0" dur="16.5s" /><animate attributeName="stroke-dashoffset" from="150" to="0" dur="1.8s" begin="16.5s" fill="freeze" /></path><text x="90" y="120" id="reset-kvg-061cd-Kaisho">⟳</text><text x="70" y="120" id="pause-kvg-061cd-Kaisho">◼</text><script type="text/javascript"><![CDATA[function RecurringTimer(e,t){var n,r,i=t;this.pause=function(){window.clearTimeout(n);i-=new Date-r};var s=function(){r=new Date;n=window.setTimeout(function(){i=t;s();e()},i)};this.clear=function(){window.clearTimeout(n);i=t;n=window.setTimeout(function(){i=t;s();e()},i)};this.resume=s;this.resume()}function invoketimer(){timer=new RecurringTimer(function(){svg.setCurrentTime(0)},18500.0)}var svg=document.getElementById("kvg-061cd-Kaisho");var pause=document.getElementById("pause-kvg-061cd-Kaisho");var reset=document.getElementById("reset-kvg-061cd-Kaisho");var timer;invoketimer();reset.onclick=function(){svg.setCurrentTime(0);timer.clear();svg.unpauseAnimations();pause.innerHTML = "◼";};pause.onclick=function(){if(svg.animationsPaused()){svg.unpauseAnimations();timer.resume();pause.innerHTML="◼"}else{svg.pauseAnimations();timer.pause();pause.innerHTML="▶"}}]]></script></svg>