<svg id="kvg-061f4" class="kanjivg" width="106" height="126" xmlns="http://www.w3.org/2000/svg" xmlns:xlink="http://www.w3.org/1999/xlink" xml:space="preserve" version="1.1" baseProfile="full"><defs><style type="text/css"><![CDATA[path.black{fill:none;stroke:black;stroke-width:5;stroke-linecap:round;stroke-linejoin:round;}path.grey{fill:none;stroke:#ddd;stroke-width:5;stroke-linecap:round;stroke-linejoin:round;}path.stroke{fill:none;stroke:black;stroke-width:5;stroke-linecap:round;stroke-linejoin:round;}rect{fill:none;stroke:#555;stroke-width:2;} text{font-size:16px;font-family:Segoe UI Symbol,Cambria Math,DejaVu Sans,Symbola,Quivira,STIX,Code2000;-webkit-touch-callout:none;cursor:pointer;-webkit-user-select:none;-khtml-user-select:none;-moz-user-select:none;-ms-user-select:none;user-select: none;}text:hover{color:#777;}#reset{font-weight:bold;}]]></style><marker id="markerStart" markerWidth="8" markerHeight="8" style="overflow:visible;"><circle cx="0" cy="0" r="1.5" style="stroke:none;fill:red;fill-opacity:0.5;"/></marker><marker id="markerEnd" style="overflow:visible;"><circle cx="0" cy="0" r="0.8" style="stroke:none;fill:blue;fill-opacity:0.5;"><animate attributeName="opacity" from="1" to="0" dur="3s" repeatCount="indefinite" /></circle></marker></defs><rect x="4" y="4" width="100" height="100" /><path d="M17.72,40c0.03,4.31-2.47,14.14-4.69,17.5" class="grey" /><path d="M27.27,34.33c2.13,1.83,5.51,7.53,6.04,10.38" class="grey" /><path d="M22.87,15.25c1.09,0.5,1.74,2.25,1.96,3.25c0.22,1,0,71.75-0.22,78" class="grey" /><path d="M38.11,27.38c0.9,0.26,2.56,0.32,3.46,0.26c6.31-0.38,14.58-2.25,20.51-2.83c1.49-0.14,2.41,0.12,3.16,0.26" class="grey" /><path d="M50.82,14.62c0.09,0.29,1.31,1.52,1.31,3.39c0,12,0.1,4,0.1,19.86" class="grey" /><path d="M37.88,39.73c1.13,0.54,3.19,0.69,4.32,0.54c9.56-1.27,34.92-5.52,47.39-6.23c1.88-0.11,3,0.26,3.94,0.53" class="grey" /><path d="M47.34,41.91c0.49,0.29,0.79,1.3,0.89,1.88c0.1,0.58,0,37.32-0.1,40.93" class="grey" /><path d="M55.39,40.75c0.49,0.29,0.79,1.3,0.89,1.88c0.1,0.58,0,35.4-0.1,39.01" class="grey" /><path d="M34.35,53.99c0.43,0.22,1.21,0.22,1.63,0.22c3.47-0.01,7.27-1.46,10.72-2.09c0.7-0.13,1.04-0.08,1.49-0.08" class="grey" /><path d="M33.96,63.98c0.43,0.22,1.21,0.22,1.63,0.22c3.47-0.01,7.65-1.45,10.99-2.38c0.68-0.19,1.04-0.08,1.49-0.08" class="grey" /><path d="M33.78,74.96c0.43,0.22,1.21,0.22,1.63,0.22c3.47-0.01,7.78-1.67,11.17-2.46c0.7-0.16,1.04-0.08,1.49-0.08" class="grey" /><path d="M56.47,50.9c0.57,0,0.53-0.01,0.95-0.07c2.71-0.38,7.3-1.02,9.9-1.38c0.71-0.1,1.14,0.11,1.49,0.21" class="grey" /><path d="M56.36,60.52c0.57,0,0.53-0.01,0.95-0.07c2.72-0.38,7.03-1.52,9.62-1.88c0.71-0.1,1.14,0.1,1.49,0.21" class="grey" /><path d="M56.47,70.5c0.57,0,0.53-0.01,0.95-0.07c2.71-0.38,7.48-1.02,10.08-1.38c0.71-0.1,1.14,0.11,1.49,0.21" class="grey" /><path d="M34.83,88.22c0.93,1.01,3.2,0.62,3.91,0.32c10.12-4.24,18.94-7.05,28.47-10.97" class="grey" /><path d="M69.05,14c1.07,1.73,1.83,2.21,2.07,5.95c1.86,28.9,5.87,58.3,21.12,73.33c4.06,4,3.6,0.74,3.07-6.94" class="grey" /><path d="M89.76,43.39c0.09,1.15,0.31,2.98-0.19,4.61c-3.16,10.45-11.33,32.5-31.22,44.71" class="grey" /><path d="M82.65,16.25c2.36,1.85,6.13,6.08,7.23,9.25" class="grey" /><path d="M17.72,40c0.03,4.31-2.47,14.14-4.69,17.5" class="stroke" stroke-dasharray="150"><animate attributeName="stroke-dashoffset" from="150" to="0" dur="1.8s" begin="0.0s" fill="freeze" /></path><path d="M27.27,34.33c2.13,1.83,5.51,7.53,6.04,10.38" class="stroke" stroke-dasharray="150"><set attributeName="opacity" to="0" dur="0.9s" /><animate attributeName="stroke-dashoffset" from="150" to="0" dur="1.8s" begin="0.9s" fill="freeze" /></path><path d="M22.87,15.25c1.09,0.5,1.74,2.25,1.96,3.25c0.22,1,0,71.75-0.22,78" class="stroke" stroke-dasharray="150"><set attributeName="opacity" to="0" dur="1.8s" /><animate attributeName="stroke-dashoffset" from="150" to="0" dur="1.8s" begin="1.8s" fill="freeze" /></path><path d="M38.11,27.38c0.9,0.26,2.56,0.32,3.46,0.26c6.31-0.38,14.58-2.25,20.51-2.83c1.49-0.14,2.41,0.12,3.16,0.26" class="stroke" stroke-dasharray="150"><set attributeName="opacity" to="0" dur="3.5s" /><animate attributeName="stroke-dashoffset" from="150" to="0" dur="1.8s" begin="3.5s" fill="freeze" /></path><path d="M50.82,14.62c0.09,0.29,1.31,1.52,1.31,3.39c0,12,0.1,4,0.1,19.86" class="stroke" stroke-dasharray="150"><set attributeName="opacity" to="0" dur="4.5s" /><animate attributeName="stroke-dashoffset" from="150" to="0" dur="1.8s" begin="4.5s" fill="freeze" /></path><path d="M37.88,39.73c1.13,0.54,3.19,0.69,4.32,0.54c9.56-1.27,34.92-5.52,47.39-6.23c1.88-0.11,3,0.26,3.94,0.53" class="stroke" stroke-dasharray="150"><set attributeName="opacity" to="0" dur="5.5s" /><animate attributeName="stroke-dashoffset" from="150" to="0" dur="1.8s" begin="5.5s" fill="freeze" /></path><path d="M47.34,41.91c0.49,0.29,0.79,1.3,0.89,1.88c0.1,0.58,0,37.32-0.1,40.93" class="stroke" stroke-dasharray="150"><set attributeName="opacity" to="0" dur="6.9s" /><animate attributeName="stroke-dashoffset" from="150" to="0" dur="1.8s" begin="6.9s" fill="freeze" /></path><path d="M55.39,40.75c0.49,0.29,0.79,1.3,0.89,1.88c0.1,0.58,0,35.4-0.1,39.01" class="stroke" stroke-dasharray="150"><set attributeName="opacity" to="0" dur="8.0s" /><animate attributeName="stroke-dashoffset" from="150" to="0" dur="1.8s" begin="8.0s" fill="freeze" /></path><path d="M34.35,53.99c0.43,0.22,1.21,0.22,1.63,0.22c3.47-0.01,7.27-1.46,10.72-2.09c0.7-0.13,1.04-0.08,1.49-0.08" class="stroke" stroke-dasharray="150"><set attributeName="opacity" to="0" dur="9.1s" /><animate attributeName="stroke-dashoffset" from="150" to="0" dur="1.8s" begin="9.1s" fill="freeze" /></path><path d="M33.96,63.98c0.43,0.22,1.21,0.22,1.63,0.22c3.47-0.01,7.65-1.45,10.99-2.38c0.68-0.19,1.04-0.08,1.49-0.08" class="stroke" stroke-dasharray="150"><set attributeName="opacity" to="0" dur="10.0s" /><animate attributeName="stroke-dashoffset" from="150" to="0" dur="1.8s" begin="10.0s" fill="freeze" /></path><path d="M33.78,74.96c0.43,0.22,1.21,0.22,1.63,0.22c3.47-0.01,7.78-1.67,11.17-2.46c0.7-0.16,1.04-0.08,1.49-0.08" class="stroke" stroke-dasharray="150"><set attributeName="opacity" to="0" dur="10.9s" /><animate attributeName="stroke-dashoffset" from="150" to="0" dur="1.8s" begin="10.9s" fill="freeze" /></path><path d="M56.47,50.9c0.57,0,0.53-0.01,0.95-0.07c2.71-0.38,7.3-1.02,9.9-1.38c0.71-0.1,1.14,0.11,1.49,0.21" class="stroke" stroke-dasharray="150"><set attributeName="opacity" to="0" dur="11.8s" /><animate attributeName="stroke-dashoffset" from="150" to="0" dur="1.8s" begin="11.8s" fill="freeze" /></path><path d="M56.36,60.52c0.57,0,0.53-0.01,0.95-0.07c2.72-0.38,7.03-1.52,9.62-1.88c0.71-0.1,1.14,0.1,1.49,0.21" class="stroke" stroke-dasharray="150"><set attributeName="opacity" to="0" dur="12.700000000000001s" /><animate attributeName="stroke-dashoffset" from="150" to="0" dur="1.8s" begin="12.700000000000001s" fill="freeze" /></path><path d="M56.47,70.5c0.57,0,0.53-0.01,0.95-0.07c2.71-0.38,7.48-1.02,10.08-1.38c0.71-0.1,1.14,0.11,1.49,0.21" class="stroke" stroke-dasharray="150"><set attributeName="opacity" to="0" dur="13.600000000000001s" /><animate attributeName="stroke-dashoffset" from="150" to="0" dur="1.8s" begin="13.600000000000001s" fill="freeze" /></path><path d="M34.83,88.22c0.93,1.01,3.2,0.62,3.91,0.32c10.12-4.24,18.94-7.05,28.47-10.97" class="stroke" stroke-dasharray="150"><set attributeName="opacity" to="0" dur="14.500000000000002s" /><animate attributeName="stroke-dashoffset" from="150" to="0" dur="1.8s" begin="14.500000000000002s" fill="freeze" /></path><path d="M69.05,14c1.07,1.73,1.83,2.21,2.07,5.95c1.86,28.9,5.87,58.3,21.12,73.33c4.06,4,3.6,0.74,3.07-6.94" class="stroke" stroke-dasharray="150"><set attributeName="opacity" to="0" dur="15.500000000000002s" /><animate attributeName="stroke-dashoffset" from="150" to="0" dur="1.8s" begin="15.500000000000002s" fill="freeze" /></path><path d="M89.76,43.39c0.09,1.15,0.31,2.98-0.19,4.61c-3.16,10.45-11.33,32.5-31.22,44.71" class="stroke" stroke-dasharray="150"><set attributeName="opacity" to="0" dur="17.3s" /><animate attributeName="stroke-dashoffset" from="150" to="0" dur="1.8s" begin="17.3s" fill="freeze" /></path><path d="M82.65,16.25c2.36,1.85,6.13,6.08,7.23,9.25" class="stroke" stroke-dasharray="150"><set attributeName="opacity" to="0" dur="18.8s" /><animate attributeName="stroke-dashoffset" from="150" to="0" dur="1.8s" begin="18.8s" fill="freeze" /></path><text x="90" y="120" id="reset-kvg-061f4">⟳</text><text x="70" y="120" id="pause-kvg-061f4">◼</text><script type="text/javascript"><![CDATA[function RecurringTimer(e,t){var n,r,i=t;this.pause=function(){window.clearTimeout(n);i-=new Date-r};var s=function(){r=new Date;n=window.setTimeout(function(){i=t;s();e()},i)};this.clear=function(){window.clearTimeout(n);i=t;n=window.setTimeout(function(){i=t;s();e()},i)};this.resume=s;this.resume()}function invoketimer(){timer=new RecurringTimer(function(){svg.setCurrentTime(0)},20700.0)}var svg=document.getElementById("kvg-061f4");var pause=document.getElementById("pause-kvg-061f4");var reset=document.getElementById("reset-kvg-061f4");var timer;invoketimer();reset.onclick=function(){svg.setCurrentTime(0);timer.clear();svg.unpauseAnimations();pause.innerHTML = "◼";};pause.onclick=function(){if(svg.animationsPaused()){svg.unpauseAnimations();timer.resume();pause.innerHTML="◼"}else{svg.pauseAnimations();timer.pause();pause.innerHTML="▶"}}]]></script></svg>