<svg id="kvg-0620d" class="kanjivg" width="106" height="126" xmlns="http://www.w3.org/2000/svg" xmlns:xlink="http://www.w3.org/1999/xlink" xml:space="preserve" version="1.1" baseProfile="full"><defs><style type="text/css"><![CDATA[path.black{fill:none;stroke:black;stroke-width:5;stroke-linecap:round;stroke-linejoin:round;}path.grey{fill:none;stroke:#ddd;stroke-width:5;stroke-linecap:round;stroke-linejoin:round;}path.stroke{fill:none;stroke:black;stroke-width:5;stroke-linecap:round;stroke-linejoin:round;}rect{fill:none;stroke:#555;stroke-width:2;} text{font-size:16px;font-family:Segoe UI Symbol,Cambria Math,DejaVu Sans,Symbola,Quivira,STIX,Code2000;-webkit-touch-callout:none;cursor:pointer;-webkit-user-select:none;-khtml-user-select:none;-moz-user-select:none;-ms-user-select:none;user-select: none;}text:hover{color:#777;}#reset{font-weight:bold;}]]></style><marker id="markerStart" markerWidth="8" markerHeight="8" style="overflow:visible;"><circle cx="0" cy="0" r="1.5" style="stroke:none;fill:red;fill-opacity:0.5;"/></marker><marker id="markerEnd" style="overflow:visible;"><circle cx="0" cy="0" r="0.8" style="stroke:none;fill:blue;fill-opacity:0.5;"><animate attributeName="opacity" from="1" to="0" dur="3s" repeatCount="indefinite" /></circle></marker></defs><rect x="4" y="4" width="100" height="100" /><path d="M25.76,35.64c0.99,0.99,1.2,2.85,1.15,4.86c-0.41,18.75-5.41,45.75-16.1,54.47" class="grey" /><path d="M22.75,33.7c2.66,0.58,5.32,0.7,7.99,0.37c9.35-0.78,34.33-3.32,49.51-3.97c2.6-0.21,5.18-0.06,7.75,0.44" class="grey" /><path d="M37.75,54.75c2.75,1.5,7.75,8,10.25,14" class="grey" /><path d="M53.75,11c1.72,1.84,2.29,3.34,2.54,7.29C58.38,51.25,69.5,80.75,89.75,93c6.69,4.05,5.71,2.71,4.85-5.42" class="grey" /><path d="M82.21,42.14c0.29,1.23,0.12,2.94-0.46,4.5c-3.62,9.73-15.5,31.23-35.19,44.58" class="grey" /><path d="M73.25,11.5c3.1,2,8.05,6.57,9.5,10" class="grey" /><path d="M25.76,35.64c0.99,0.99,1.2,2.85,1.15,4.86c-0.41,18.75-5.41,45.75-16.1,54.47" class="stroke" stroke-dasharray="150"><animate attributeName="stroke-dashoffset" from="150" to="0" dur="1.8s" begin="0.0s" fill="freeze" /></path><path d="M22.75,33.7c2.66,0.58,5.32,0.7,7.99,0.37c9.35-0.78,34.33-3.32,49.51-3.97c2.6-0.21,5.18-0.06,7.75,0.44" class="stroke" stroke-dasharray="150"><set attributeName="opacity" to="0" dur="1.5s" /><animate attributeName="stroke-dashoffset" from="150" to="0" dur="1.8s" begin="1.5s" fill="freeze" /></path><path d="M37.75,54.75c2.75,1.5,7.75,8,10.25,14" class="stroke" stroke-dasharray="150"><set attributeName="opacity" to="0" dur="3.0s" /><animate attributeName="stroke-dashoffset" from="150" to="0" dur="1.8s" begin="3.0s" fill="freeze" /></path><path d="M53.75,11c1.72,1.84,2.29,3.34,2.54,7.29C58.38,51.25,69.5,80.75,89.75,93c6.69,4.05,5.71,2.71,4.85-5.42" class="stroke" stroke-dasharray="150"><set attributeName="opacity" to="0" dur="3.9s" /><animate attributeName="stroke-dashoffset" from="150" to="0" dur="1.8s" begin="3.9s" fill="freeze" /></path><path d="M82.21,42.14c0.29,1.23,0.12,2.94-0.46,4.5c-3.62,9.73-15.5,31.23-35.19,44.58" class="stroke" stroke-dasharray="150"><set attributeName="opacity" to="0" dur="5.8s" /><animate attributeName="stroke-dashoffset" from="150" to="0" dur="1.8s" begin="5.8s" fill="freeze" /></path><path d="M73.25,11.5c3.1,2,8.05,6.57,9.5,10" class="stroke" stroke-dasharray="150"><set attributeName="opacity" to="0" dur="7.3s" /><animate attributeName="stroke-dashoffset" from="150" to="0" dur="1.8s" begin="7.3s" fill="freeze" /></path><text x="90" y="120" id="reset-kvg-0620d">⟳</text><text x="70" y="120" id="pause-kvg-0620d">◼</text><script type="text/javascript"><![CDATA[function RecurringTimer(e,t){var n,r,i=t;this.pause=function(){window.clearTimeout(n);i-=new Date-r};var s=function(){r=new Date;n=window.setTimeout(function(){i=t;s();e()},i)};this.clear=function(){window.clearTimeout(n);i=t;n=window.setTimeout(function(){i=t;s();e()},i)};this.resume=s;this.resume()}function invoketimer(){timer=new RecurringTimer(function(){svg.setCurrentTime(0)},9200.0)}var svg=document.getElementById("kvg-0620d");var pause=document.getElementById("pause-kvg-0620d");var reset=document.getElementById("reset-kvg-0620d");var timer;invoketimer();reset.onclick=function(){svg.setCurrentTime(0);timer.clear();svg.unpauseAnimations();pause.innerHTML = "◼";};pause.onclick=function(){if(svg.animationsPaused()){svg.unpauseAnimations();timer.resume();pause.innerHTML="◼"}else{svg.pauseAnimations();timer.pause();pause.innerHTML="▶"}}]]></script></svg>