<svg id="kvg-0624e" class="kanjivg" width="106" height="126" xmlns="http://www.w3.org/2000/svg" xmlns:xlink="http://www.w3.org/1999/xlink" xml:space="preserve" version="1.1" baseProfile="full"><defs><style type="text/css"><![CDATA[path.black{fill:none;stroke:black;stroke-width:5;stroke-linecap:round;stroke-linejoin:round;}path.grey{fill:none;stroke:#ddd;stroke-width:5;stroke-linecap:round;stroke-linejoin:round;}path.stroke{fill:none;stroke:black;stroke-width:5;stroke-linecap:round;stroke-linejoin:round;}rect{fill:none;stroke:#555;stroke-width:2;} text{font-size:16px;font-family:Segoe UI Symbol,Cambria Math,DejaVu Sans,Symbola,Quivira,STIX,Code2000;-webkit-touch-callout:none;cursor:pointer;-webkit-user-select:none;-khtml-user-select:none;-moz-user-select:none;-ms-user-select:none;user-select: none;}text:hover{color:#777;}#reset{font-weight:bold;}]]></style><marker id="markerStart" markerWidth="8" markerHeight="8" style="overflow:visible;"><circle cx="0" cy="0" r="1.5" style="stroke:none;fill:red;fill-opacity:0.5;"/></marker><marker id="markerEnd" style="overflow:visible;"><circle cx="0" cy="0" r="0.8" style="stroke:none;fill:blue;fill-opacity:0.5;"><animate attributeName="opacity" from="1" to="0" dur="3s" repeatCount="indefinite" /></circle></marker></defs><rect x="4" y="4" width="100" height="100" /><path d="M13.5,35.47c2,0.78,2.21,0.92,4.84,0.7c6.83-0.59,18.74-2.47,30.11-3.39" class="grey" /><path d="M31.33,14c0.5,0.95,1.73,2.58,1.82,5.72c0.42,15.1,0.25,65.28,0.25,70.42c0,14.78-6.56,3.66-8.05,2.07" class="grey" /><path d="M12.5,67.38c2.76,1.84,4.53,1,7.29-0.58c1.63-0.93,19.56-12.17,26.46-16.63" class="grey" /><path d="M60.49,14.37c0.83,0.92,1.69,2.72,1.73,4.65c0.17,8.6-0.45,60.04-0.45,65.89c0,10.77,3.11,12.11,17.9,12.11c11.97,0,13.48-4.16,13.48-11.09" class="grey" /><path d="M13.5,35.47c2,0.78,2.21,0.92,4.84,0.7c6.83-0.59,18.74-2.47,30.11-3.39" class="stroke" stroke-dasharray="150"><animate attributeName="stroke-dashoffset" from="150" to="0" dur="1.8s" begin="0.0s" fill="freeze" /></path><path d="M31.33,14c0.5,0.95,1.73,2.58,1.82,5.72c0.42,15.1,0.25,65.28,0.25,70.42c0,14.78-6.56,3.66-8.05,2.07" class="stroke" stroke-dasharray="150"><set attributeName="opacity" to="0" dur="1.0s" /><animate attributeName="stroke-dashoffset" from="150" to="0" dur="1.8s" begin="1.0s" fill="freeze" /></path><path d="M12.5,67.38c2.76,1.84,4.53,1,7.29-0.58c1.63-0.93,19.56-12.17,26.46-16.63" class="stroke" stroke-dasharray="150"><set attributeName="opacity" to="0" dur="2.8s" /><animate attributeName="stroke-dashoffset" from="150" to="0" dur="1.8s" begin="2.8s" fill="freeze" /></path><path d="M60.49,14.37c0.83,0.92,1.69,2.72,1.73,4.65c0.17,8.6-0.45,60.04-0.45,65.89c0,10.77,3.11,12.11,17.9,12.11c11.97,0,13.48-4.16,13.48-11.09" class="stroke" stroke-dasharray="150"><set attributeName="opacity" to="0" dur="3.8s" /><animate attributeName="stroke-dashoffset" from="150" to="0" dur="1.8s" begin="3.8s" fill="freeze" /></path><text x="90" y="120" id="reset-kvg-0624e">⟳</text><text x="70" y="120" id="pause-kvg-0624e">◼</text><script type="text/javascript"><![CDATA[function RecurringTimer(e,t){var n,r,i=t;this.pause=function(){window.clearTimeout(n);i-=new Date-r};var s=function(){r=new Date;n=window.setTimeout(function(){i=t;s();e()},i)};this.clear=function(){window.clearTimeout(n);i=t;n=window.setTimeout(function(){i=t;s();e()},i)};this.resume=s;this.resume()}function invoketimer(){timer=new RecurringTimer(function(){svg.setCurrentTime(0)},6800.0)}var svg=document.getElementById("kvg-0624e");var pause=document.getElementById("pause-kvg-0624e");var reset=document.getElementById("reset-kvg-0624e");var timer;invoketimer();reset.onclick=function(){svg.setCurrentTime(0);timer.clear();svg.unpauseAnimations();pause.innerHTML = "◼";};pause.onclick=function(){if(svg.animationsPaused()){svg.unpauseAnimations();timer.resume();pause.innerHTML="◼"}else{svg.pauseAnimations();timer.pause();pause.innerHTML="▶"}}]]></script></svg>