<svg id="kvg-06282" class="kanjivg" width="106" height="126" xmlns="http://www.w3.org/2000/svg" xmlns:xlink="http://www.w3.org/1999/xlink" xml:space="preserve" version="1.1" baseProfile="full"><defs><style type="text/css"><![CDATA[path.black{fill:none;stroke:black;stroke-width:5;stroke-linecap:round;stroke-linejoin:round;}path.grey{fill:none;stroke:#ddd;stroke-width:5;stroke-linecap:round;stroke-linejoin:round;}path.stroke{fill:none;stroke:black;stroke-width:5;stroke-linecap:round;stroke-linejoin:round;}rect{fill:none;stroke:#555;stroke-width:2;} text{font-size:16px;font-family:Segoe UI Symbol,Cambria Math,DejaVu Sans,Symbola,Quivira,STIX,Code2000;-webkit-touch-callout:none;cursor:pointer;-webkit-user-select:none;-khtml-user-select:none;-moz-user-select:none;-ms-user-select:none;user-select: none;}text:hover{color:#777;}#reset{font-weight:bold;}]]></style><marker id="markerStart" markerWidth="8" markerHeight="8" style="overflow:visible;"><circle cx="0" cy="0" r="1.5" style="stroke:none;fill:red;fill-opacity:0.5;"/></marker><marker id="markerEnd" style="overflow:visible;"><circle cx="0" cy="0" r="0.8" style="stroke:none;fill:blue;fill-opacity:0.5;"><animate attributeName="opacity" from="1" to="0" dur="3s" repeatCount="indefinite" /></circle></marker></defs><rect x="4" y="4" width="100" height="100" /><path d="M13,38.34c2.4,0.29,1.46,0.64,4.03,0.29c6.33-0.86,17.84-2.88,28.39-4.22" class="grey" /><path d="M29.77,13c0.48,0.92,1.67,2.49,1.76,5.52c0.4,14.55,0.24,62.94,0.24,67.9c0,14.25-6.82,4.53-8.27,3" class="grey" /><path d="M12,66.38c2.57,1.84,4.22,1,6.8-0.58c1.52-0.93,18.28-12.17,24.7-16.63" class="grey" /><path d="M46.36,25.97c1.89,0.28,3.73,0.62,4.86,0.53c12.31-0.98,26.03-1.99,36.7-2.85c1.71-0.14,3.28,0.08,4.69,0.42" class="grey" /><path d="M67.61,26.86c1.74,2.33,1.74,3.73,1.74,5.6c0,13.06-0.02,37.21-0.02,58.14" class="grey" /><path d="M48.64,57.37c0.79,0.52,3.41,0.78,4.23,0.73c9.88-0.6,23.47-1.23,33.41-2.15c0.99-0.09,3.17-0.21,4.65,0.25" class="grey" /><path d="M41.59,91.89c1.41,0.36,3.89,0.72,6.1,0.5C62,91,76.5,89.75,93.4,90.02c1.76,0.03,3.87,0.4,4.75,0.78" class="grey" /><path d="M13,38.34c2.4,0.29,1.46,0.64,4.03,0.29c6.33-0.86,17.84-2.88,28.39-4.22" class="stroke" stroke-dasharray="150"><animate attributeName="stroke-dashoffset" from="150" to="0" dur="1.8s" begin="0.0s" fill="freeze" /></path><path d="M29.77,13c0.48,0.92,1.67,2.49,1.76,5.52c0.4,14.55,0.24,62.94,0.24,67.9c0,14.25-6.82,4.53-8.27,3" class="stroke" stroke-dasharray="150"><set attributeName="opacity" to="0" dur="1.0s" /><animate attributeName="stroke-dashoffset" from="150" to="0" dur="1.8s" begin="1.0s" fill="freeze" /></path><path d="M12,66.38c2.57,1.84,4.22,1,6.8-0.58c1.52-0.93,18.28-12.17,24.7-16.63" class="stroke" stroke-dasharray="150"><set attributeName="opacity" to="0" dur="2.8s" /><animate attributeName="stroke-dashoffset" from="150" to="0" dur="1.8s" begin="2.8s" fill="freeze" /></path><path d="M46.36,25.97c1.89,0.28,3.73,0.62,4.86,0.53c12.31-0.98,26.03-1.99,36.7-2.85c1.71-0.14,3.28,0.08,4.69,0.42" class="stroke" stroke-dasharray="150"><set attributeName="opacity" to="0" dur="3.8s" /><animate attributeName="stroke-dashoffset" from="150" to="0" dur="1.8s" begin="3.8s" fill="freeze" /></path><path d="M67.61,26.86c1.74,2.33,1.74,3.73,1.74,5.6c0,13.06-0.02,37.21-0.02,58.14" class="stroke" stroke-dasharray="150"><set attributeName="opacity" to="0" dur="5.0s" /><animate attributeName="stroke-dashoffset" from="150" to="0" dur="1.8s" begin="5.0s" fill="freeze" /></path><path d="M48.64,57.37c0.79,0.52,3.41,0.78,4.23,0.73c9.88-0.6,23.47-1.23,33.41-2.15c0.99-0.09,3.17-0.21,4.65,0.25" class="stroke" stroke-dasharray="150"><set attributeName="opacity" to="0" dur="6.5s" /><animate attributeName="stroke-dashoffset" from="150" to="0" dur="1.8s" begin="6.5s" fill="freeze" /></path><path d="M41.59,91.89c1.41,0.36,3.89,0.72,6.1,0.5C62,91,76.5,89.75,93.4,90.02c1.76,0.03,3.87,0.4,4.75,0.78" class="stroke" stroke-dasharray="150"><set attributeName="opacity" to="0" dur="7.6s" /><animate attributeName="stroke-dashoffset" from="150" to="0" dur="1.8s" begin="7.6s" fill="freeze" /></path><text x="90" y="120" id="reset-kvg-06282">⟳</text><text x="70" y="120" id="pause-kvg-06282">◼</text><script type="text/javascript"><![CDATA[function RecurringTimer(e,t){var n,r,i=t;this.pause=function(){window.clearTimeout(n);i-=new Date-r};var s=function(){r=new Date;n=window.setTimeout(function(){i=t;s();e()},i)};this.clear=function(){window.clearTimeout(n);i=t;n=window.setTimeout(function(){i=t;s();e()},i)};this.resume=s;this.resume()}function invoketimer(){timer=new RecurringTimer(function(){svg.setCurrentTime(0)},10000.0)}var svg=document.getElementById("kvg-06282");var pause=document.getElementById("pause-kvg-06282");var reset=document.getElementById("reset-kvg-06282");var timer;invoketimer();reset.onclick=function(){svg.setCurrentTime(0);timer.clear();svg.unpauseAnimations();pause.innerHTML = "◼";};pause.onclick=function(){if(svg.animationsPaused()){svg.unpauseAnimations();timer.resume();pause.innerHTML="◼"}else{svg.pauseAnimations();timer.pause();pause.innerHTML="▶"}}]]></script></svg>