<svg id="kvg-062c2" class="kanjivg" width="106" height="126" xmlns="http://www.w3.org/2000/svg" xmlns:xlink="http://www.w3.org/1999/xlink" xml:space="preserve" version="1.1" baseProfile="full"><defs><style type="text/css"><![CDATA[path.black{fill:none;stroke:black;stroke-width:5;stroke-linecap:round;stroke-linejoin:round;}path.grey{fill:none;stroke:#ddd;stroke-width:5;stroke-linecap:round;stroke-linejoin:round;}path.stroke{fill:none;stroke:black;stroke-width:5;stroke-linecap:round;stroke-linejoin:round;}rect{fill:none;stroke:#555;stroke-width:2;} text{font-size:16px;font-family:Segoe UI Symbol,Cambria Math,DejaVu Sans,Symbola,Quivira,STIX,Code2000;-webkit-touch-callout:none;cursor:pointer;-webkit-user-select:none;-khtml-user-select:none;-moz-user-select:none;-ms-user-select:none;user-select: none;}text:hover{color:#777;}#reset{font-weight:bold;}]]></style><marker id="markerStart" markerWidth="8" markerHeight="8" style="overflow:visible;"><circle cx="0" cy="0" r="1.5" style="stroke:none;fill:red;fill-opacity:0.5;"/></marker><marker id="markerEnd" style="overflow:visible;"><circle cx="0" cy="0" r="0.8" style="stroke:none;fill:blue;fill-opacity:0.5;"><animate attributeName="opacity" from="1" to="0" dur="3s" repeatCount="indefinite" /></circle></marker></defs><rect x="4" y="4" width="100" height="100" /><path d="M14,38.42c2.08,0.25,1.27,0.55,3.5,0.25c5.5-0.75,15-2.5,24.17-3.67" class="grey" /><path d="M28.77,14.5c0.48,0.92,1.76,2.49,1.76,5.52c0,15.23,0.24,56.46,0.24,67.9c0,14.25-6.32,3.53-7.77,2" class="grey" /><path d="M13.5,62.52c1.25,1.48,3.24,2.35,6,0.98c1.63-0.81,12.85-7.7,19.75-11.58" class="grey" /><path d="M46.32,29.5c1.26,1.17,2.44,1.52,4.05,1.3c1.61-0.22,31.49-4.62,34.71-5.27s3.78,2.83,3.14,4.84c-0.72,2.24-1.3,5.22-2.03,8.62c-0.29,1.36-0.61,2.79-0.98,4.27" class="grey" /><path d="M51.25,47.25c9-1.25,30.34-4,32.62-4c2.28,0,3.56,0,5.38,0" class="grey" /><path d="M49.84,46.03c0.43,0.75,0.7,3.22,0.16,4.4c-0.62,1.36-4.51,10.25-4.79,10.99c-0.28,0.75,0.11,3.12,2.22,2.25c1.59-0.66,38.81-4.43,43.22-5.33c1.37-0.28,3.36,0.67,3.08,3.28c-0.43,4.14-3.6,14.65-6.43,19.18c-2.88,4.61-4.16,1.72-5.75-1.6" class="grey" /><path d="M57.25,14.37c0.79,0.99,1.44,3.48,1.44,6.26c0,8.62,0.15,13.36,0.12,26.23C58.75,64.46,56.25,84.5,40.95,96.2" class="grey" /><path d="M70.44,12c1.3,0.59,2.07,2.68,2.33,3.87c0.26,1.19,0,73.95-0.26,81.38" class="grey" /><path d="M14,38.42c2.08,0.25,1.27,0.55,3.5,0.25c5.5-0.75,15-2.5,24.17-3.67" class="stroke" stroke-dasharray="150"><animate attributeName="stroke-dashoffset" from="150" to="0" dur="1.8s" begin="0.0s" fill="freeze" /></path><path d="M28.77,14.5c0.48,0.92,1.76,2.49,1.76,5.52c0,15.23,0.24,56.46,0.24,67.9c0,14.25-6.32,3.53-7.77,2" class="stroke" stroke-dasharray="150"><set attributeName="opacity" to="0" dur="1.0s" /><animate attributeName="stroke-dashoffset" from="150" to="0" dur="1.8s" begin="1.0s" fill="freeze" /></path><path d="M13.5,62.52c1.25,1.48,3.24,2.35,6,0.98c1.63-0.81,12.85-7.7,19.75-11.58" class="stroke" stroke-dasharray="150"><set attributeName="opacity" to="0" dur="2.7s" /><animate attributeName="stroke-dashoffset" from="150" to="0" dur="1.8s" begin="2.7s" fill="freeze" /></path><path d="M46.32,29.5c1.26,1.17,2.44,1.52,4.05,1.3c1.61-0.22,31.49-4.62,34.71-5.27s3.78,2.83,3.14,4.84c-0.72,2.24-1.3,5.22-2.03,8.62c-0.29,1.36-0.61,2.79-0.98,4.27" class="stroke" stroke-dasharray="150"><set attributeName="opacity" to="0" dur="3.7s" /><animate attributeName="stroke-dashoffset" from="150" to="0" dur="1.8s" begin="3.7s" fill="freeze" /></path><path d="M51.25,47.25c9-1.25,30.34-4,32.62-4c2.28,0,3.56,0,5.38,0" class="stroke" stroke-dasharray="150"><set attributeName="opacity" to="0" dur="5.1s" /><animate attributeName="stroke-dashoffset" from="150" to="0" dur="1.8s" begin="5.1s" fill="freeze" /></path><path d="M49.84,46.03c0.43,0.75,0.7,3.22,0.16,4.4c-0.62,1.36-4.51,10.25-4.79,10.99c-0.28,0.75,0.11,3.12,2.22,2.25c1.59-0.66,38.81-4.43,43.22-5.33c1.37-0.28,3.36,0.67,3.08,3.28c-0.43,4.14-3.6,14.65-6.43,19.18c-2.88,4.61-4.16,1.72-5.75-1.6" class="stroke" stroke-dasharray="150"><set attributeName="opacity" to="0" dur="6.1s" /><animate attributeName="stroke-dashoffset" from="150" to="0" dur="1.8s" begin="6.1s" fill="freeze" /></path><path d="M57.25,14.37c0.79,0.99,1.44,3.48,1.44,6.26c0,8.62,0.15,13.36,0.12,26.23C58.75,64.46,56.25,84.5,40.95,96.2" class="stroke" stroke-dasharray="150"><set attributeName="opacity" to="0" dur="7.8999999999999995s" /><animate attributeName="stroke-dashoffset" from="150" to="0" dur="1.8s" begin="7.8999999999999995s" fill="freeze" /></path><path d="M70.44,12c1.3,0.59,2.07,2.68,2.33,3.87c0.26,1.19,0,73.95-0.26,81.38" class="stroke" stroke-dasharray="150"><set attributeName="opacity" to="0" dur="9.6s" /><animate attributeName="stroke-dashoffset" from="150" to="0" dur="1.8s" begin="9.6s" fill="freeze" /></path><text x="90" y="120" id="reset-kvg-062c2">⟳</text><text x="70" y="120" id="pause-kvg-062c2">◼</text><script type="text/javascript"><![CDATA[function RecurringTimer(e,t){var n,r,i=t;this.pause=function(){window.clearTimeout(n);i-=new Date-r};var s=function(){r=new Date;n=window.setTimeout(function(){i=t;s();e()},i)};this.clear=function(){window.clearTimeout(n);i=t;n=window.setTimeout(function(){i=t;s();e()},i)};this.resume=s;this.resume()}function invoketimer(){timer=new RecurringTimer(function(){svg.setCurrentTime(0)},12299.999999999998)}var svg=document.getElementById("kvg-062c2");var pause=document.getElementById("pause-kvg-062c2");var reset=document.getElementById("reset-kvg-062c2");var timer;invoketimer();reset.onclick=function(){svg.setCurrentTime(0);timer.clear();svg.unpauseAnimations();pause.innerHTML = "◼";};pause.onclick=function(){if(svg.animationsPaused()){svg.unpauseAnimations();timer.resume();pause.innerHTML="◼"}else{svg.pauseAnimations();timer.pause();pause.innerHTML="▶"}}]]></script></svg>