<svg id="kvg-062e0" class="kanjivg" width="106" height="126" xmlns="http://www.w3.org/2000/svg" xmlns:xlink="http://www.w3.org/1999/xlink" xml:space="preserve" version="1.1" baseProfile="full"><defs><style type="text/css"><![CDATA[path.black{fill:none;stroke:black;stroke-width:5;stroke-linecap:round;stroke-linejoin:round;}path.grey{fill:none;stroke:#ddd;stroke-width:5;stroke-linecap:round;stroke-linejoin:round;}path.stroke{fill:none;stroke:black;stroke-width:5;stroke-linecap:round;stroke-linejoin:round;}rect{fill:none;stroke:#555;stroke-width:2;} text{font-size:16px;font-family:Segoe UI Symbol,Cambria Math,DejaVu Sans,Symbola,Quivira,STIX,Code2000;-webkit-touch-callout:none;cursor:pointer;-webkit-user-select:none;-khtml-user-select:none;-moz-user-select:none;-ms-user-select:none;user-select: none;}text:hover{color:#777;}#reset{font-weight:bold;}]]></style><marker id="markerStart" markerWidth="8" markerHeight="8" style="overflow:visible;"><circle cx="0" cy="0" r="1.5" style="stroke:none;fill:red;fill-opacity:0.5;"/></marker><marker id="markerEnd" style="overflow:visible;"><circle cx="0" cy="0" r="0.8" style="stroke:none;fill:blue;fill-opacity:0.5;"><animate attributeName="opacity" from="1" to="0" dur="3s" repeatCount="indefinite" /></circle></marker></defs><rect x="4" y="4" width="100" height="100" /><path d="M11.75,38.42c1.89,0.23,3.56,0.56,5.51,0.19c5.86-1.11,12.24-2.63,19.21-4.51c0.78-0.21,1.61,0,2.44-0.1" class="grey" /><path d="M25.77,15.25c1.12,1.12,1.51,2.88,1.51,5.02c0,15.23-0.01,54.71-0.01,66.15c0,14.25-6.32,4.03-7.77,2.5" class="grey" /><path d="M11.31,66.66c1.2,1.2,2.56,1.21,3.87,0.18c6.13-4.84,9.44-7.96,18.31-16.34" class="grey" /><path d="M47.09,19c0.54,1,0.64,1.87,0.5,3.19C46.73,29.97,43.5,48,35,57.25" class="grey" /><path d="M48.99,30.24c0.15,0.04,1.11,0.07,1.69-0.13c1.82-0.61,4.74-1.67,6.15-2.2s3.51,0.07,3.02,2.55C56.38,48.25,51.38,71.25,35.25,86" class="grey" /><path d="M39.92,53c5.83,0,22.96,17,39.2,30.68c3.63,3.06,7.38,5.44,12.13,7.07" class="grey" /><path d="M67.37,28.08c0.84,0.84,1.31,1.91,1.31,3.25c0,12.21,0.32,20.8-7.04,29.79" class="grey" /><path d="M69.11,29.42c3.01-0.54,10.38-3.08,11.8-3.51c1.67-0.5,3.34,0.47,2.88,2.33C81.66,37.04,81,47.33,81,58.25c0,4.88,2.62,7.94,8.35,7.94c5.9,0,7.39-1.69,7.39-5.31" class="grey" /><path d="M11.75,38.42c1.89,0.23,3.56,0.56,5.51,0.19c5.86-1.11,12.24-2.63,19.21-4.51c0.78-0.21,1.61,0,2.44-0.1" class="stroke" stroke-dasharray="150"><animate attributeName="stroke-dashoffset" from="150" to="0" dur="1.8s" begin="0.0s" fill="freeze" /></path><path d="M25.77,15.25c1.12,1.12,1.51,2.88,1.51,5.02c0,15.23-0.01,54.71-0.01,66.15c0,14.25-6.32,4.03-7.77,2.5" class="stroke" stroke-dasharray="150"><set attributeName="opacity" to="0" dur="1.0s" /><animate attributeName="stroke-dashoffset" from="150" to="0" dur="1.8s" begin="1.0s" fill="freeze" /></path><path d="M11.31,66.66c1.2,1.2,2.56,1.21,3.87,0.18c6.13-4.84,9.44-7.96,18.31-16.34" class="stroke" stroke-dasharray="150"><set attributeName="opacity" to="0" dur="2.7s" /><animate attributeName="stroke-dashoffset" from="150" to="0" dur="1.8s" begin="2.7s" fill="freeze" /></path><path d="M47.09,19c0.54,1,0.64,1.87,0.5,3.19C46.73,29.97,43.5,48,35,57.25" class="stroke" stroke-dasharray="150"><set attributeName="opacity" to="0" dur="3.7s" /><animate attributeName="stroke-dashoffset" from="150" to="0" dur="1.8s" begin="3.7s" fill="freeze" /></path><path d="M48.99,30.24c0.15,0.04,1.11,0.07,1.69-0.13c1.82-0.61,4.74-1.67,6.15-2.2s3.51,0.07,3.02,2.55C56.38,48.25,51.38,71.25,35.25,86" class="stroke" stroke-dasharray="150"><set attributeName="opacity" to="0" dur="4.800000000000001s" /><animate attributeName="stroke-dashoffset" from="150" to="0" dur="1.8s" begin="4.800000000000001s" fill="freeze" /></path><path d="M39.92,53c5.83,0,22.96,17,39.2,30.68c3.63,3.06,7.38,5.44,12.13,7.07" class="stroke" stroke-dasharray="150"><set attributeName="opacity" to="0" dur="6.500000000000001s" /><animate attributeName="stroke-dashoffset" from="150" to="0" dur="1.8s" begin="6.500000000000001s" fill="freeze" /></path><path d="M67.37,28.08c0.84,0.84,1.31,1.91,1.31,3.25c0,12.21,0.32,20.8-7.04,29.79" class="stroke" stroke-dasharray="150"><set attributeName="opacity" to="0" dur="8.0s" /><animate attributeName="stroke-dashoffset" from="150" to="0" dur="1.8s" begin="8.0s" fill="freeze" /></path><path d="M69.11,29.42c3.01-0.54,10.38-3.08,11.8-3.51c1.67-0.5,3.34,0.47,2.88,2.33C81.66,37.04,81,47.33,81,58.25c0,4.88,2.62,7.94,8.35,7.94c5.9,0,7.39-1.69,7.39-5.31" class="stroke" stroke-dasharray="150"><set attributeName="opacity" to="0" dur="9.0s" /><animate attributeName="stroke-dashoffset" from="150" to="0" dur="1.8s" begin="9.0s" fill="freeze" /></path><text x="90" y="120" id="reset-kvg-062e0">⟳</text><text x="70" y="120" id="pause-kvg-062e0">◼</text><script type="text/javascript"><![CDATA[function RecurringTimer(e,t){var n,r,i=t;this.pause=function(){window.clearTimeout(n);i-=new Date-r};var s=function(){r=new Date;n=window.setTimeout(function(){i=t;s();e()},i)};this.clear=function(){window.clearTimeout(n);i=t;n=window.setTimeout(function(){i=t;s();e()},i)};this.resume=s;this.resume()}function invoketimer(){timer=new RecurringTimer(function(){svg.setCurrentTime(0)},11700.0)}var svg=document.getElementById("kvg-062e0");var pause=document.getElementById("pause-kvg-062e0");var reset=document.getElementById("reset-kvg-062e0");var timer;invoketimer();reset.onclick=function(){svg.setCurrentTime(0);timer.clear();svg.unpauseAnimations();pause.innerHTML = "◼";};pause.onclick=function(){if(svg.animationsPaused()){svg.unpauseAnimations();timer.resume();pause.innerHTML="◼"}else{svg.pauseAnimations();timer.pause();pause.innerHTML="▶"}}]]></script></svg>