<svg id="kvg-06383-Kaisho" class="kanjivg" width="106" height="126" xmlns="http://www.w3.org/2000/svg" xmlns:xlink="http://www.w3.org/1999/xlink" xml:space="preserve" version="1.1" baseProfile="full"><defs><style type="text/css"><![CDATA[path.black{fill:none;stroke:black;stroke-width:5;stroke-linecap:round;stroke-linejoin:round;}path.grey{fill:none;stroke:#ddd;stroke-width:5;stroke-linecap:round;stroke-linejoin:round;}path.stroke{fill:none;stroke:black;stroke-width:5;stroke-linecap:round;stroke-linejoin:round;}rect{fill:none;stroke:#555;stroke-width:2;} text{font-size:16px;font-family:Segoe UI Symbol,Cambria Math,DejaVu Sans,Symbola,Quivira,STIX,Code2000;-webkit-touch-callout:none;cursor:pointer;-webkit-user-select:none;-khtml-user-select:none;-moz-user-select:none;-ms-user-select:none;user-select: none;}text:hover{color:#777;}#reset{font-weight:bold;}]]></style><marker id="markerStart" markerWidth="8" markerHeight="8" style="overflow:visible;"><circle cx="0" cy="0" r="1.5" style="stroke:none;fill:red;fill-opacity:0.5;"/></marker><marker id="markerEnd" style="overflow:visible;"><circle cx="0" cy="0" r="0.8" style="stroke:none;fill:blue;fill-opacity:0.5;"><animate attributeName="opacity" from="1" to="0" dur="3s" repeatCount="indefinite" /></circle></marker></defs><rect x="4" y="4" width="100" height="100" /><path d="M14.5,39.42c2.08,0.25,1.27,0.55,3.5,0.25c5.5-0.75,14.5-2,23.67-3.17" class="grey" /><path d="M29.27,15c0.48,0.92,1.76,2.49,1.76,5.52c0,15.23,0.24,52.96,0.24,64.4c0,14.25-6.32,3.53-7.77,2" class="grey" /><path d="M11.5,67.68c1.25,1.78,3.96,1.79,6.5-0.18c6.75-5.25,8-7,19.25-15.08" class="grey" /><path d="M52.25,15.25c1.01,0.24,2.5,0.43,4.18,0.43c0.95,0,25.04-2.68,26.57-2.93c1.52-0.24,3.42,0.75,3.05,2.44c-1.33,6.1-2.03,18.05-2.6,21.95" class="grey" /><path d="M51.39,26.82c0.68,0.23,1.94,0.24,2.62,0.23c4.16-0.04,9.51-0.62,17.98-1.37c2.21-0.2,4.15-0.33,5.62-0.38" class="grey" /><path d="M51.18,37.6c0.63,0.21,2.79,0.21,3.42,0.21c5.9-0.06,17.9-2.06,26.64-1.87c1.05,0.02,1.68,0.1,2.21,0.2" class="grey" /><path d="M46.28,45.92c-0.08,4.74-1.96,12.83-2.63,15.66" class="grey" /><path d="M48.27,48.84c2.41,0,3.72-0.2,5.65-0.44c14.33-1.73,25.61-3.04,37.71-3.68c8.88-0.47,2.13,5.53-1.47,8.22" class="grey" /><path d="M51.38,61.33c0.43,0.27,1.35,2,1.44,2.54c0.09,0.54-0.06,18.7-0.14,22.04" class="grey" /><path d="M53.2,63.76c2.71-0.19,28.56-3.46,30.58-3.57c2.38-0.14,3.92,2.35,3.84,3.57c-0.43,6.13,0.2,12.9-1.09,18.94c-1.35,6.34-3.81,0.04-4.71-0.89" class="grey" /><path d="M68.25,50.47c0.37,0.28,1.17,2.12,1.25,2.68c0.07,0.57-0.05,43.22-0.12,46.76" class="grey" /><path d="M14.5,39.42c2.08,0.25,1.27,0.55,3.5,0.25c5.5-0.75,14.5-2,23.67-3.17" class="stroke" stroke-dasharray="150"><animate attributeName="stroke-dashoffset" from="150" to="0" dur="1.8s" begin="0.0s" fill="freeze" /></path><path d="M29.27,15c0.48,0.92,1.76,2.49,1.76,5.52c0,15.23,0.24,52.96,0.24,64.4c0,14.25-6.32,3.53-7.77,2" class="stroke" stroke-dasharray="150"><set attributeName="opacity" to="0" dur="1.0s" /><animate attributeName="stroke-dashoffset" from="150" to="0" dur="1.8s" begin="1.0s" fill="freeze" /></path><path d="M11.5,67.68c1.25,1.78,3.96,1.79,6.5-0.18c6.75-5.25,8-7,19.25-15.08" class="stroke" stroke-dasharray="150"><set attributeName="opacity" to="0" dur="2.7s" /><animate attributeName="stroke-dashoffset" from="150" to="0" dur="1.8s" begin="2.7s" fill="freeze" /></path><path d="M52.25,15.25c1.01,0.24,2.5,0.43,4.18,0.43c0.95,0,25.04-2.68,26.57-2.93c1.52-0.24,3.42,0.75,3.05,2.44c-1.33,6.1-2.03,18.05-2.6,21.95" class="stroke" stroke-dasharray="150"><set attributeName="opacity" to="0" dur="3.7s" /><animate attributeName="stroke-dashoffset" from="150" to="0" dur="1.8s" begin="3.7s" fill="freeze" /></path><path d="M51.39,26.82c0.68,0.23,1.94,0.24,2.62,0.23c4.16-0.04,9.51-0.62,17.98-1.37c2.21-0.2,4.15-0.33,5.62-0.38" class="stroke" stroke-dasharray="150"><set attributeName="opacity" to="0" dur="5.1s" /><animate attributeName="stroke-dashoffset" from="150" to="0" dur="1.8s" begin="5.1s" fill="freeze" /></path><path d="M51.18,37.6c0.63,0.21,2.79,0.21,3.42,0.21c5.9-0.06,17.9-2.06,26.64-1.87c1.05,0.02,1.68,0.1,2.21,0.2" class="stroke" stroke-dasharray="150"><set attributeName="opacity" to="0" dur="6.1s" /><animate attributeName="stroke-dashoffset" from="150" to="0" dur="1.8s" begin="6.1s" fill="freeze" /></path><path d="M46.28,45.92c-0.08,4.74-1.96,12.83-2.63,15.66" class="stroke" stroke-dasharray="150"><set attributeName="opacity" to="0" dur="7.1s" /><animate attributeName="stroke-dashoffset" from="150" to="0" dur="1.8s" begin="7.1s" fill="freeze" /></path><path d="M48.27,48.84c2.41,0,3.72-0.2,5.65-0.44c14.33-1.73,25.61-3.04,37.71-3.68c8.88-0.47,2.13,5.53-1.47,8.22" class="stroke" stroke-dasharray="150"><set attributeName="opacity" to="0" dur="8.0s" /><animate attributeName="stroke-dashoffset" from="150" to="0" dur="1.8s" begin="8.0s" fill="freeze" /></path><path d="M51.38,61.33c0.43,0.27,1.35,2,1.44,2.54c0.09,0.54-0.06,18.7-0.14,22.04" class="stroke" stroke-dasharray="150"><set attributeName="opacity" to="0" dur="9.4s" /><animate attributeName="stroke-dashoffset" from="150" to="0" dur="1.8s" begin="9.4s" fill="freeze" /></path><path d="M53.2,63.76c2.71-0.19,28.56-3.46,30.58-3.57c2.38-0.14,3.92,2.35,3.84,3.57c-0.43,6.13,0.2,12.9-1.09,18.94c-1.35,6.34-3.81,0.04-4.71-0.89" class="stroke" stroke-dasharray="150"><set attributeName="opacity" to="0" dur="10.4s" /><animate attributeName="stroke-dashoffset" from="150" to="0" dur="1.8s" begin="10.4s" fill="freeze" /></path><path d="M68.25,50.47c0.37,0.28,1.17,2.12,1.25,2.68c0.07,0.57-0.05,43.22-0.12,46.76" class="stroke" stroke-dasharray="150"><set attributeName="opacity" to="0" dur="11.9s" /><animate attributeName="stroke-dashoffset" from="150" to="0" dur="1.8s" begin="11.9s" fill="freeze" /></path><text x="90" y="120" id="reset-kvg-06383-Kaisho">⟳</text><text x="70" y="120" id="pause-kvg-06383-Kaisho">◼</text><script type="text/javascript"><![CDATA[function RecurringTimer(e,t){var n,r,i=t;this.pause=function(){window.clearTimeout(n);i-=new Date-r};var s=function(){r=new Date;n=window.setTimeout(function(){i=t;s();e()},i)};this.clear=function(){window.clearTimeout(n);i=t;n=window.setTimeout(function(){i=t;s();e()},i)};this.resume=s;this.resume()}function invoketimer(){timer=new RecurringTimer(function(){svg.setCurrentTime(0)},14100.0)}var svg=document.getElementById("kvg-06383-Kaisho");var pause=document.getElementById("pause-kvg-06383-Kaisho");var reset=document.getElementById("reset-kvg-06383-Kaisho");var timer;invoketimer();reset.onclick=function(){svg.setCurrentTime(0);timer.clear();svg.unpauseAnimations();pause.innerHTML = "◼";};pause.onclick=function(){if(svg.animationsPaused()){svg.unpauseAnimations();timer.resume();pause.innerHTML="◼"}else{svg.pauseAnimations();timer.pause();pause.innerHTML="▶"}}]]></script></svg>