<svg id="kvg-0639b" class="kanjivg" width="106" height="126" xmlns="http://www.w3.org/2000/svg" xmlns:xlink="http://www.w3.org/1999/xlink" xml:space="preserve" version="1.1" baseProfile="full"><defs><style type="text/css"><![CDATA[path.black{fill:none;stroke:black;stroke-width:5;stroke-linecap:round;stroke-linejoin:round;}path.grey{fill:none;stroke:#ddd;stroke-width:5;stroke-linecap:round;stroke-linejoin:round;}path.stroke{fill:none;stroke:black;stroke-width:5;stroke-linecap:round;stroke-linejoin:round;}rect{fill:none;stroke:#555;stroke-width:2;} text{font-size:16px;font-family:Segoe UI Symbol,Cambria Math,DejaVu Sans,Symbola,Quivira,STIX,Code2000;-webkit-touch-callout:none;cursor:pointer;-webkit-user-select:none;-khtml-user-select:none;-moz-user-select:none;-ms-user-select:none;user-select: none;}text:hover{color:#777;}#reset{font-weight:bold;}]]></style><marker id="markerStart" markerWidth="8" markerHeight="8" style="overflow:visible;"><circle cx="0" cy="0" r="1.5" style="stroke:none;fill:red;fill-opacity:0.5;"/></marker><marker id="markerEnd" style="overflow:visible;"><circle cx="0" cy="0" r="0.8" style="stroke:none;fill:blue;fill-opacity:0.5;"><animate attributeName="opacity" from="1" to="0" dur="3s" repeatCount="indefinite" /></circle></marker></defs><rect x="4" y="4" width="100" height="100" /><path d="M14.5,39.67c2.11,0.25,3.73,0.23,5.89-0.09c4.2-0.64,9.03-1.47,15.38-2.42c0.93-0.14,1.89-0.27,2.9-0.4" class="grey" /><path d="M28.27,16.25c0.93,0.93,1.51,2.88,1.51,5.02c0,15.23-0.01,52.21-0.01,63.65c0,14.25-6.07,3.53-7.52,2" class="grey" /><path d="m13.5,67.39c1.62,0.99,2.5,0.99,4.12,-0.51,4.43,-4.09,7.63,-7,18.45,-17.66" class="grey" /><path d="M43.96,34.22c1.01,0.5,2.66,0.28,3.67,0.16c7.24-0.88,11.99-1.63,16.38-2.22c1.28-0.17,2.54-0.24,3.78,0.13" class="grey" /><path d="M54.98,17.25c0.82,0.82,1.11,1.77,1.11,3.33c0,10.02-0.1,13.41-0.1,26.67" class="grey" /><path d="M41.61,49.48c0.86,0.42,2.44,0.51,3.29,0.42c6.1-0.65,14.05-2.21,23.57-2.76c1.43-0.08,2.29,0.2,3.01,0.41" class="grey" /><path d="M42.91,68.19c1.2,0.65,3.09,0.53,4.34,0.29c6.58-1.27,13.75-2.22,18.51-2.77c1.18-0.14,2.64-0.37,3.77,0" class="grey" /><path d="M55.59,55c0.77,0.77,1.25,1.94,1.25,3.17c0,9.46-0.09,10.57-0.09,23.08" class="grey" /><path d="M42.04,86.57c1.08,0.8,2.67,0.65,3.44,0.34c10.7-4.32,15.28-6.22,25.38-10.2" class="grey" /><path d="M77.68,15.05c1.01,1.01,1.73,2.45,1.73,4.34c0,0.59,0.04,52.87,0.05,71.85c0,3.61,0,6.01,0,6.63" class="grey" /><path d="M82.75,47.25c5.12,3.12,11.62,8.88,14,14.5" class="grey" /><path d="M14.5,39.67c2.11,0.25,3.73,0.23,5.89-0.09c4.2-0.64,9.03-1.47,15.38-2.42c0.93-0.14,1.89-0.27,2.9-0.4" class="stroke" stroke-dasharray="150"><animate attributeName="stroke-dashoffset" from="150" to="0" dur="1.8s" begin="0.0s" fill="freeze" /></path><path d="M28.27,16.25c0.93,0.93,1.51,2.88,1.51,5.02c0,15.23-0.01,52.21-0.01,63.65c0,14.25-6.07,3.53-7.52,2" class="stroke" stroke-dasharray="150"><set attributeName="opacity" to="0" dur="1.0s" /><animate attributeName="stroke-dashoffset" from="150" to="0" dur="1.8s" begin="1.0s" fill="freeze" /></path><path d="m13.5,67.39c1.62,0.99,2.5,0.99,4.12,-0.51,4.43,-4.09,7.63,-7,18.45,-17.66" class="stroke" stroke-dasharray="150"><set attributeName="opacity" to="0" dur="2.7s" /><animate attributeName="stroke-dashoffset" from="150" to="0" dur="1.8s" begin="2.7s" fill="freeze" /></path><path d="M43.96,34.22c1.01,0.5,2.66,0.28,3.67,0.16c7.24-0.88,11.99-1.63,16.38-2.22c1.28-0.17,2.54-0.24,3.78,0.13" class="stroke" stroke-dasharray="150"><set attributeName="opacity" to="0" dur="3.7s" /><animate attributeName="stroke-dashoffset" from="150" to="0" dur="1.8s" begin="3.7s" fill="freeze" /></path><path d="M54.98,17.25c0.82,0.82,1.11,1.77,1.11,3.33c0,10.02-0.1,13.41-0.1,26.67" class="stroke" stroke-dasharray="150"><set attributeName="opacity" to="0" dur="4.7s" /><animate attributeName="stroke-dashoffset" from="150" to="0" dur="1.8s" begin="4.7s" fill="freeze" /></path><path d="M41.61,49.48c0.86,0.42,2.44,0.51,3.29,0.42c6.1-0.65,14.05-2.21,23.57-2.76c1.43-0.08,2.29,0.2,3.01,0.41" class="stroke" stroke-dasharray="150"><set attributeName="opacity" to="0" dur="5.7s" /><animate attributeName="stroke-dashoffset" from="150" to="0" dur="1.8s" begin="5.7s" fill="freeze" /></path><path d="M42.91,68.19c1.2,0.65,3.09,0.53,4.34,0.29c6.58-1.27,13.75-2.22,18.51-2.77c1.18-0.14,2.64-0.37,3.77,0" class="stroke" stroke-dasharray="150"><set attributeName="opacity" to="0" dur="6.7s" /><animate attributeName="stroke-dashoffset" from="150" to="0" dur="1.8s" begin="6.7s" fill="freeze" /></path><path d="M55.59,55c0.77,0.77,1.25,1.94,1.25,3.17c0,9.46-0.09,10.57-0.09,23.08" class="stroke" stroke-dasharray="150"><set attributeName="opacity" to="0" dur="7.7s" /><animate attributeName="stroke-dashoffset" from="150" to="0" dur="1.8s" begin="7.7s" fill="freeze" /></path><path d="M42.04,86.57c1.08,0.8,2.67,0.65,3.44,0.34c10.7-4.32,15.28-6.22,25.38-10.2" class="stroke" stroke-dasharray="150"><set attributeName="opacity" to="0" dur="8.7s" /><animate attributeName="stroke-dashoffset" from="150" to="0" dur="1.8s" begin="8.7s" fill="freeze" /></path><path d="M77.68,15.05c1.01,1.01,1.73,2.45,1.73,4.34c0,0.59,0.04,52.87,0.05,71.85c0,3.61,0,6.01,0,6.63" class="stroke" stroke-dasharray="150"><set attributeName="opacity" to="0" dur="9.7s" /><animate attributeName="stroke-dashoffset" from="150" to="0" dur="1.8s" begin="9.7s" fill="freeze" /></path><path d="M82.75,47.25c5.12,3.12,11.62,8.88,14,14.5" class="stroke" stroke-dasharray="150"><set attributeName="opacity" to="0" dur="11.399999999999999s" /><animate attributeName="stroke-dashoffset" from="150" to="0" dur="1.8s" begin="11.399999999999999s" fill="freeze" /></path><text x="90" y="120" id="reset-kvg-0639b">⟳</text><text x="70" y="120" id="pause-kvg-0639b">◼</text><script type="text/javascript"><![CDATA[function RecurringTimer(e,t){var n,r,i=t;this.pause=function(){window.clearTimeout(n);i-=new Date-r};var s=function(){r=new Date;n=window.setTimeout(function(){i=t;s();e()},i)};this.clear=function(){window.clearTimeout(n);i=t;n=window.setTimeout(function(){i=t;s();e()},i)};this.resume=s;this.resume()}function invoketimer(){timer=new RecurringTimer(function(){svg.setCurrentTime(0)},13399.999999999998)}var svg=document.getElementById("kvg-0639b");var pause=document.getElementById("pause-kvg-0639b");var reset=document.getElementById("reset-kvg-0639b");var timer;invoketimer();reset.onclick=function(){svg.setCurrentTime(0);timer.clear();svg.unpauseAnimations();pause.innerHTML = "◼";};pause.onclick=function(){if(svg.animationsPaused()){svg.unpauseAnimations();timer.resume();pause.innerHTML="◼"}else{svg.pauseAnimations();timer.pause();pause.innerHTML="▶"}}]]></script></svg>