<svg id="kvg-0639f-Kaisho" class="kanjivg" width="106" height="126" xmlns="http://www.w3.org/2000/svg" xmlns:xlink="http://www.w3.org/1999/xlink" xml:space="preserve" version="1.1" baseProfile="full"><defs><style type="text/css"><![CDATA[path.black{fill:none;stroke:black;stroke-width:5;stroke-linecap:round;stroke-linejoin:round;}path.grey{fill:none;stroke:#ddd;stroke-width:5;stroke-linecap:round;stroke-linejoin:round;}path.stroke{fill:none;stroke:black;stroke-width:5;stroke-linecap:round;stroke-linejoin:round;}rect{fill:none;stroke:#555;stroke-width:2;} text{font-size:16px;font-family:Segoe UI Symbol,Cambria Math,DejaVu Sans,Symbola,Quivira,STIX,Code2000;-webkit-touch-callout:none;cursor:pointer;-webkit-user-select:none;-khtml-user-select:none;-moz-user-select:none;-ms-user-select:none;user-select: none;}text:hover{color:#777;}#reset{font-weight:bold;}]]></style><marker id="markerStart" markerWidth="8" markerHeight="8" style="overflow:visible;"><circle cx="0" cy="0" r="1.5" style="stroke:none;fill:red;fill-opacity:0.5;"/></marker><marker id="markerEnd" style="overflow:visible;"><circle cx="0" cy="0" r="0.8" style="stroke:none;fill:blue;fill-opacity:0.5;"><animate attributeName="opacity" from="1" to="0" dur="3s" repeatCount="indefinite" /></circle></marker></defs><rect x="4" y="4" width="100" height="100" /><path d="M12.75,37.98c2.07,0.22,1.26,0.48,3.47,0.22c5.45-0.66,15.36-2.19,24.45-3.21" class="grey" /><path d="M28.77,14.5c0.48,0.92,1.76,2.49,1.76,5.52c0,15.23,0.24,54.46,0.24,65.9c0,14.25-6.32,3.53-7.77,2" class="grey" /><path d="M12,67.2c0.78,0.88,2.01,1.39,3.73,0.58c1.01-0.48,21.49-12.56,25.77-14.86" class="grey" /><path d="M64.5,14.67c2.15,2.06,4.56,4.62,6.56,10.05" class="grey" /><path d="M48.79,30.91c0,3.31-2.59,12.43-3.77,14.64" class="grey" /><path d="M49.12,33.32c10.66-1.87,30.15-3.98,40.19-4.43c9.21-0.41,1.92,6.49-0.95,8.92" class="grey" /><path d="M51.32,49.96c2.07,0.42,4.07,0.33,6.17,0c4.97-0.78,22.71-2.9,26-2.9c2.84,0,1.83,0.12,4.11,0.12" class="grey" /><path d="M65.91,48.95c0.81,0.42,1.3,1.9,1.46,2.75c0.16,0.85,0.37,27.58,0.21,32.87" class="grey" /><path d="M67.78,66.6c5.97-0.51,8.34-1.03,17.35-2.06c1.45-0.17,1.82-0.17,2.74,0" class="grey" /><path d="M52.53,60.46c0.04,0.89,0.02,2.28-0.09,3.56C51.75,72.25,46.5,88,36.31,96.67" class="grey" /><path d="M52.19,76.05C55.5,76.5,77.75,92,87.07,94.67c2.1,0.6,3.69,1.32,5.67,1.58" class="grey" /><path d="M12.75,37.98c2.07,0.22,1.26,0.48,3.47,0.22c5.45-0.66,15.36-2.19,24.45-3.21" class="stroke" stroke-dasharray="150"><animate attributeName="stroke-dashoffset" from="150" to="0" dur="1.8s" begin="0.0s" fill="freeze" /></path><path d="M28.77,14.5c0.48,0.92,1.76,2.49,1.76,5.52c0,15.23,0.24,54.46,0.24,65.9c0,14.25-6.32,3.53-7.77,2" class="stroke" stroke-dasharray="150"><set attributeName="opacity" to="0" dur="1.0s" /><animate attributeName="stroke-dashoffset" from="150" to="0" dur="1.8s" begin="1.0s" fill="freeze" /></path><path d="M12,67.2c0.78,0.88,2.01,1.39,3.73,0.58c1.01-0.48,21.49-12.56,25.77-14.86" class="stroke" stroke-dasharray="150"><set attributeName="opacity" to="0" dur="2.7s" /><animate attributeName="stroke-dashoffset" from="150" to="0" dur="1.8s" begin="2.7s" fill="freeze" /></path><path d="M64.5,14.67c2.15,2.06,4.56,4.62,6.56,10.05" class="stroke" stroke-dasharray="150"><set attributeName="opacity" to="0" dur="3.7s" /><animate attributeName="stroke-dashoffset" from="150" to="0" dur="1.8s" begin="3.7s" fill="freeze" /></path><path d="M48.79,30.91c0,3.31-2.59,12.43-3.77,14.64" class="stroke" stroke-dasharray="150"><set attributeName="opacity" to="0" dur="4.6000000000000005s" /><animate attributeName="stroke-dashoffset" from="150" to="0" dur="1.8s" begin="4.6000000000000005s" fill="freeze" /></path><path d="M49.12,33.32c10.66-1.87,30.15-3.98,40.19-4.43c9.21-0.41,1.92,6.49-0.95,8.92" class="stroke" stroke-dasharray="150"><set attributeName="opacity" to="0" dur="5.500000000000001s" /><animate attributeName="stroke-dashoffset" from="150" to="0" dur="1.8s" begin="5.500000000000001s" fill="freeze" /></path><path d="M51.32,49.96c2.07,0.42,4.07,0.33,6.17,0c4.97-0.78,22.71-2.9,26-2.9c2.84,0,1.83,0.12,4.11,0.12" class="stroke" stroke-dasharray="150"><set attributeName="opacity" to="0" dur="6.800000000000001s" /><animate attributeName="stroke-dashoffset" from="150" to="0" dur="1.8s" begin="6.800000000000001s" fill="freeze" /></path><path d="M65.91,48.95c0.81,0.42,1.3,1.9,1.46,2.75c0.16,0.85,0.37,27.58,0.21,32.87" class="stroke" stroke-dasharray="150"><set attributeName="opacity" to="0" dur="7.800000000000001s" /><animate attributeName="stroke-dashoffset" from="150" to="0" dur="1.8s" begin="7.800000000000001s" fill="freeze" /></path><path d="M67.78,66.6c5.97-0.51,8.34-1.03,17.35-2.06c1.45-0.17,1.82-0.17,2.74,0" class="stroke" stroke-dasharray="150"><set attributeName="opacity" to="0" dur="8.8s" /><animate attributeName="stroke-dashoffset" from="150" to="0" dur="1.8s" begin="8.8s" fill="freeze" /></path><path d="M52.53,60.46c0.04,0.89,0.02,2.28-0.09,3.56C51.75,72.25,46.5,88,36.31,96.67" class="stroke" stroke-dasharray="150"><set attributeName="opacity" to="0" dur="9.8s" /><animate attributeName="stroke-dashoffset" from="150" to="0" dur="1.8s" begin="9.8s" fill="freeze" /></path><path d="M52.19,76.05C55.5,76.5,77.75,92,87.07,94.67c2.1,0.6,3.69,1.32,5.67,1.58" class="stroke" stroke-dasharray="150"><set attributeName="opacity" to="0" dur="10.9s" /><animate attributeName="stroke-dashoffset" from="150" to="0" dur="1.8s" begin="10.9s" fill="freeze" /></path><text x="90" y="120" id="reset-kvg-0639f-Kaisho">⟳</text><text x="70" y="120" id="pause-kvg-0639f-Kaisho">◼</text><script type="text/javascript"><![CDATA[function RecurringTimer(e,t){var n,r,i=t;this.pause=function(){window.clearTimeout(n);i-=new Date-r};var s=function(){r=new Date;n=window.setTimeout(function(){i=t;s();e()},i)};this.clear=function(){window.clearTimeout(n);i=t;n=window.setTimeout(function(){i=t;s();e()},i)};this.resume=s;this.resume()}function invoketimer(){timer=new RecurringTimer(function(){svg.setCurrentTime(0)},13100.0)}var svg=document.getElementById("kvg-0639f-Kaisho");var pause=document.getElementById("pause-kvg-0639f-Kaisho");var reset=document.getElementById("reset-kvg-0639f-Kaisho");var timer;invoketimer();reset.onclick=function(){svg.setCurrentTime(0);timer.clear();svg.unpauseAnimations();pause.innerHTML = "◼";};pause.onclick=function(){if(svg.animationsPaused()){svg.unpauseAnimations();timer.resume();pause.innerHTML="◼"}else{svg.pauseAnimations();timer.pause();pause.innerHTML="▶"}}]]></script></svg>