<svg id="kvg-063c3-Hyougai" class="kanjivg" width="106" height="126" xmlns="http://www.w3.org/2000/svg" xmlns:xlink="http://www.w3.org/1999/xlink" xml:space="preserve" version="1.1" baseProfile="full"><defs><style type="text/css"><![CDATA[path.black{fill:none;stroke:black;stroke-width:5;stroke-linecap:round;stroke-linejoin:round;}path.grey{fill:none;stroke:#ddd;stroke-width:5;stroke-linecap:round;stroke-linejoin:round;}path.stroke{fill:none;stroke:black;stroke-width:5;stroke-linecap:round;stroke-linejoin:round;}rect{fill:none;stroke:#555;stroke-width:2;} text{font-size:16px;font-family:Segoe UI Symbol,Cambria Math,DejaVu Sans,Symbola,Quivira,STIX,Code2000;-webkit-touch-callout:none;cursor:pointer;-webkit-user-select:none;-khtml-user-select:none;-moz-user-select:none;-ms-user-select:none;user-select: none;}text:hover{color:#777;}#reset{font-weight:bold;}]]></style><marker id="markerStart" markerWidth="8" markerHeight="8" style="overflow:visible;"><circle cx="0" cy="0" r="1.5" style="stroke:none;fill:red;fill-opacity:0.5;"/></marker><marker id="markerEnd" style="overflow:visible;"><circle cx="0" cy="0" r="0.8" style="stroke:none;fill:blue;fill-opacity:0.5;"><animate attributeName="opacity" from="1" to="0" dur="3s" repeatCount="indefinite" /></circle></marker></defs><rect x="4" y="4" width="100" height="100" /><path d="M12.5,41.25c1.93,0.23,3.78,0.46,5.74,0.2c4.1-0.55,8.65-1.53,14.64-2.36c1.25-0.19,2.51-0.27,3.78-0.25" class="grey" /><path d="M26.52,17.08c1.2,1.2,1.51,2.92,1.51,4.77c0,14.56-0.01,60.69-0.01,65.65c0,14.25-4.82,5.53-6.27,4" class="grey" /><path d="M12,68.08c1.62,1.05,3,0.94,4.75-0.33C23.04,63.2,28.77,59.06,35,54" class="grey" /><path d="M47.41,15.17c3.42,1.99,8.84,8.2,9.69,11.3" class="grey" /><path d="M81.07,13.25c0,1.12-0.32,1.97-0.86,2.76c-1.94,3.14-6.01,8.46-8.49,10.99" class="grey" /><path d="M39.88,32.48c3.23,0.74,6.42,0.43,9.73-0.01C61.5,30.88,71.12,30,84.88,29.21c3.61-0.21,7.33-0.4,10.83,0.36" class="grey" /><path d="M43.73,45.21c0.78,0.78,0.96,2.04,0.96,3.04c0,0.54-0.04,25.2-0.06,38.12c0,3.72-0.01,6.46-0.01,7.38" class="grey" /><path d="M45.4,46.89c1.18-0.14,10.14-2.03,13.83-2.71c3.06-0.56,3.83,0.92,3.83,3.82c0,6-0.04,31.82-0.04,44.27c0,6.73-3.52,1.98-5.3,0.03" class="grey" /><path d="M45.65,60.01c6.85-0.76,9.85-1.39,16.64-2.07" class="grey" /><path d="M45.76,73.97c3.81-0.51,11.89-1.04,16.29-1.39" class="grey" /><path d="M76.71,45.33c0.98,0.98,1.18,2.54,1.18,4.33c0,3.58,0,12.04-0.01,18.59c0,2.76,0,5.18,0,6.75" class="grey" /><path d="M90.44,39.25c1.09,1.09,1.32,2.75,1.32,4.52c0,14.48-0.02,43.15-0.02,48.11c0,7.37-4,2.62-6.74,0.01" class="grey" /><path d="M12.5,41.25c1.93,0.23,3.78,0.46,5.74,0.2c4.1-0.55,8.65-1.53,14.64-2.36c1.25-0.19,2.51-0.27,3.78-0.25" class="stroke" stroke-dasharray="150"><animate attributeName="stroke-dashoffset" from="150" to="0" dur="1.8s" begin="0.0s" fill="freeze" /></path><path d="M26.52,17.08c1.2,1.2,1.51,2.92,1.51,4.77c0,14.56-0.01,60.69-0.01,65.65c0,14.25-4.82,5.53-6.27,4" class="stroke" stroke-dasharray="150"><set attributeName="opacity" to="0" dur="1.0s" /><animate attributeName="stroke-dashoffset" from="150" to="0" dur="1.8s" begin="1.0s" fill="freeze" /></path><path d="M12,68.08c1.62,1.05,3,0.94,4.75-0.33C23.04,63.2,28.77,59.06,35,54" class="stroke" stroke-dasharray="150"><set attributeName="opacity" to="0" dur="2.7s" /><animate attributeName="stroke-dashoffset" from="150" to="0" dur="1.8s" begin="2.7s" fill="freeze" /></path><path d="M47.41,15.17c3.42,1.99,8.84,8.2,9.69,11.3" class="stroke" stroke-dasharray="150"><set attributeName="opacity" to="0" dur="3.7s" /><animate attributeName="stroke-dashoffset" from="150" to="0" dur="1.8s" begin="3.7s" fill="freeze" /></path><path d="M81.07,13.25c0,1.12-0.32,1.97-0.86,2.76c-1.94,3.14-6.01,8.46-8.49,10.99" class="stroke" stroke-dasharray="150"><set attributeName="opacity" to="0" dur="4.6000000000000005s" /><animate attributeName="stroke-dashoffset" from="150" to="0" dur="1.8s" begin="4.6000000000000005s" fill="freeze" /></path><path d="M39.88,32.48c3.23,0.74,6.42,0.43,9.73-0.01C61.5,30.88,71.12,30,84.88,29.21c3.61-0.21,7.33-0.4,10.83,0.36" class="stroke" stroke-dasharray="150"><set attributeName="opacity" to="0" dur="5.500000000000001s" /><animate attributeName="stroke-dashoffset" from="150" to="0" dur="1.8s" begin="5.500000000000001s" fill="freeze" /></path><path d="M43.73,45.21c0.78,0.78,0.96,2.04,0.96,3.04c0,0.54-0.04,25.2-0.06,38.12c0,3.72-0.01,6.46-0.01,7.38" class="stroke" stroke-dasharray="150"><set attributeName="opacity" to="0" dur="6.9s" /><animate attributeName="stroke-dashoffset" from="150" to="0" dur="1.8s" begin="6.9s" fill="freeze" /></path><path d="M45.4,46.89c1.18-0.14,10.14-2.03,13.83-2.71c3.06-0.56,3.83,0.92,3.83,3.82c0,6-0.04,31.82-0.04,44.27c0,6.73-3.52,1.98-5.3,0.03" class="stroke" stroke-dasharray="150"><set attributeName="opacity" to="0" dur="8.1s" /><animate attributeName="stroke-dashoffset" from="150" to="0" dur="1.8s" begin="8.1s" fill="freeze" /></path><path d="M45.65,60.01c6.85-0.76,9.85-1.39,16.64-2.07" class="stroke" stroke-dasharray="150"><set attributeName="opacity" to="0" dur="9.799999999999999s" /><animate attributeName="stroke-dashoffset" from="150" to="0" dur="1.8s" begin="9.799999999999999s" fill="freeze" /></path><path d="M45.76,73.97c3.81-0.51,11.89-1.04,16.29-1.39" class="stroke" stroke-dasharray="150"><set attributeName="opacity" to="0" dur="10.7s" /><animate attributeName="stroke-dashoffset" from="150" to="0" dur="1.8s" begin="10.7s" fill="freeze" /></path><path d="M76.71,45.33c0.98,0.98,1.18,2.54,1.18,4.33c0,3.58,0,12.04-0.01,18.59c0,2.76,0,5.18,0,6.75" class="stroke" stroke-dasharray="150"><set attributeName="opacity" to="0" dur="11.6s" /><animate attributeName="stroke-dashoffset" from="150" to="0" dur="1.8s" begin="11.6s" fill="freeze" /></path><path d="M90.44,39.25c1.09,1.09,1.32,2.75,1.32,4.52c0,14.48-0.02,43.15-0.02,48.11c0,7.37-4,2.62-6.74,0.01" class="stroke" stroke-dasharray="150"><set attributeName="opacity" to="0" dur="12.6s" /><animate attributeName="stroke-dashoffset" from="150" to="0" dur="1.8s" begin="12.6s" fill="freeze" /></path><text x="90" y="120" id="reset-kvg-063c3-Hyougai">⟳</text><text x="70" y="120" id="pause-kvg-063c3-Hyougai">◼</text><script type="text/javascript"><![CDATA[function RecurringTimer(e,t){var n,r,i=t;this.pause=function(){window.clearTimeout(n);i-=new Date-r};var s=function(){r=new Date;n=window.setTimeout(function(){i=t;s();e()},i)};this.clear=function(){window.clearTimeout(n);i=t;n=window.setTimeout(function(){i=t;s();e()},i)};this.resume=s;this.resume()}function invoketimer(){timer=new RecurringTimer(function(){svg.setCurrentTime(0)},15100.0)}var svg=document.getElementById("kvg-063c3-Hyougai");var pause=document.getElementById("pause-kvg-063c3-Hyougai");var reset=document.getElementById("reset-kvg-063c3-Hyougai");var timer;invoketimer();reset.onclick=function(){svg.setCurrentTime(0);timer.clear();svg.unpauseAnimations();pause.innerHTML = "◼";};pause.onclick=function(){if(svg.animationsPaused()){svg.unpauseAnimations();timer.resume();pause.innerHTML="◼"}else{svg.pauseAnimations();timer.pause();pause.innerHTML="▶"}}]]></script></svg>