<svg id="kvg-064ab-HzLst" class="kanjivg" width="106" height="126" xmlns="http://www.w3.org/2000/svg" xmlns:xlink="http://www.w3.org/1999/xlink" xml:space="preserve" version="1.1" baseProfile="full"><defs><style type="text/css"><![CDATA[path.black{fill:none;stroke:black;stroke-width:5;stroke-linecap:round;stroke-linejoin:round;}path.grey{fill:none;stroke:#ddd;stroke-width:5;stroke-linecap:round;stroke-linejoin:round;}path.stroke{fill:none;stroke:black;stroke-width:5;stroke-linecap:round;stroke-linejoin:round;}rect{fill:none;stroke:#555;stroke-width:2;} text{font-size:16px;font-family:Segoe UI Symbol,Cambria Math,DejaVu Sans,Symbola,Quivira,STIX,Code2000;-webkit-touch-callout:none;cursor:pointer;-webkit-user-select:none;-khtml-user-select:none;-moz-user-select:none;-ms-user-select:none;user-select: none;}text:hover{color:#777;}#reset{font-weight:bold;}]]></style><marker id="markerStart" markerWidth="8" markerHeight="8" style="overflow:visible;"><circle cx="0" cy="0" r="1.5" style="stroke:none;fill:red;fill-opacity:0.5;"/></marker><marker id="markerEnd" style="overflow:visible;"><circle cx="0" cy="0" r="0.8" style="stroke:none;fill:blue;fill-opacity:0.5;"><animate attributeName="opacity" from="1" to="0" dur="3s" repeatCount="indefinite" /></circle></marker></defs><rect x="4" y="4" width="100" height="100" /><path d="M12.5,36.92c2.08,0.25,1.27,0.55,3.5,0.25c5.5-0.75,12-1.5,21.17-2.67" class="grey" /><path d="M26.27,11.5c0.48,0.92,1.67,2.49,1.76,5.52c0.4,14.55,0.24,66.94,0.24,71.9c0,14.25-6.32,3.53-7.77,2" class="grey" /><path d="M12.5,66.5c2.46,1.63,4.05,0.89,6.51-0.51c1.45-0.83,10.33-6.35,16.49-10.32" class="grey" /><path d="M54.57,14.5c0.04,0.58,0.16,1.67-0.08,2.32c-2.93,8.16-7.25,15.64-14.88,22.22" class="grey" /><path d="M52.45,27.5c6.53-0.21,27.31-3.6,33.58-4.12c1.45-0.12,2.34,0.15,3.07,0.32" class="grey" /><path d="M39.5,52.7c1.15,0.54,3.24,0.67,4.4,0.54c8.85-0.99,40.43-3.24,52.84-3.98c1.91-0.11,3.06,0.26,4.01,0.53" class="grey" /><path d="M42.53,72.7c1.15,0.54,3.25,0.67,4.4,0.54c6.55-0.74,32.11-2.49,44.53-3.23c1.91-0.11,3.06,0.26,4.01,0.53" class="grey" /><path d="M47.69,40.25c0.82,0.5,1.31,2.25,1.48,3.25c0.16,1,1.26,17.75,1.83,29" class="grey" /><path d="M60.02,35.75c0.82,0.5,1.49,2.23,1.48,3.25c-0.06,5.5,0.13,18.5,0.13,32.75" class="grey" /><path d="M73.84,33.75c0.82,0.5,1.54,2.23,1.48,3.25c-0.44,8-1.57,18.5-3.38,33.75" class="grey" /><path d="M86.05,33.25c0.82,0.5,1.73,2.28,1.48,4.25c-1,8-1.88,16.75-3.77,32.25" class="grey" /><path d="M42.55,82.25c0,4.98-4.34,12.33-5.48,13.75" class="grey" /><path d="M54.84,82.58c2.3,2.57,4.47,9.64,5.05,13.63" class="grey" /><path d="M71.09,81.83c2.31,2.36,5.97,9.71,6.55,13.38" class="grey" /><path d="M87.56,79.83c2.9,2.67,7.48,10.98,8.21,15.13" class="grey" /><path d="M12.5,36.92c2.08,0.25,1.27,0.55,3.5,0.25c5.5-0.75,12-1.5,21.17-2.67" class="stroke" stroke-dasharray="150"><animate attributeName="stroke-dashoffset" from="150" to="0" dur="1.8s" begin="0.0s" fill="freeze" /></path><path d="M26.27,11.5c0.48,0.92,1.67,2.49,1.76,5.52c0.4,14.55,0.24,66.94,0.24,71.9c0,14.25-6.32,3.53-7.77,2" class="stroke" stroke-dasharray="150"><set attributeName="opacity" to="0" dur="1.0s" /><animate attributeName="stroke-dashoffset" from="150" to="0" dur="1.8s" begin="1.0s" fill="freeze" /></path><path d="M12.5,66.5c2.46,1.63,4.05,0.89,6.51-0.51c1.45-0.83,10.33-6.35,16.49-10.32" class="stroke" stroke-dasharray="150"><set attributeName="opacity" to="0" dur="2.8s" /><animate attributeName="stroke-dashoffset" from="150" to="0" dur="1.8s" begin="2.8s" fill="freeze" /></path><path d="M54.57,14.5c0.04,0.58,0.16,1.67-0.08,2.32c-2.93,8.16-7.25,15.64-14.88,22.22" class="stroke" stroke-dasharray="150"><set attributeName="opacity" to="0" dur="3.8s" /><animate attributeName="stroke-dashoffset" from="150" to="0" dur="1.8s" begin="3.8s" fill="freeze" /></path><path d="M52.45,27.5c6.53-0.21,27.31-3.6,33.58-4.12c1.45-0.12,2.34,0.15,3.07,0.32" class="stroke" stroke-dasharray="150"><set attributeName="opacity" to="0" dur="4.8s" /><animate attributeName="stroke-dashoffset" from="150" to="0" dur="1.8s" begin="4.8s" fill="freeze" /></path><path d="M39.5,52.7c1.15,0.54,3.24,0.67,4.4,0.54c8.85-0.99,40.43-3.24,52.84-3.98c1.91-0.11,3.06,0.26,4.01,0.53" class="stroke" stroke-dasharray="150"><set attributeName="opacity" to="0" dur="5.8s" /><animate attributeName="stroke-dashoffset" from="150" to="0" dur="1.8s" begin="5.8s" fill="freeze" /></path><path d="M42.53,72.7c1.15,0.54,3.25,0.67,4.4,0.54c6.55-0.74,32.11-2.49,44.53-3.23c1.91-0.11,3.06,0.26,4.01,0.53" class="stroke" stroke-dasharray="150"><set attributeName="opacity" to="0" dur="7.3s" /><animate attributeName="stroke-dashoffset" from="150" to="0" dur="1.8s" begin="7.3s" fill="freeze" /></path><path d="M47.69,40.25c0.82,0.5,1.31,2.25,1.48,3.25c0.16,1,1.26,17.75,1.83,29" class="stroke" stroke-dasharray="150"><set attributeName="opacity" to="0" dur="8.6s" /><animate attributeName="stroke-dashoffset" from="150" to="0" dur="1.8s" begin="8.6s" fill="freeze" /></path><path d="M60.02,35.75c0.82,0.5,1.49,2.23,1.48,3.25c-0.06,5.5,0.13,18.5,0.13,32.75" class="stroke" stroke-dasharray="150"><set attributeName="opacity" to="0" dur="9.6s" /><animate attributeName="stroke-dashoffset" from="150" to="0" dur="1.8s" begin="9.6s" fill="freeze" /></path><path d="M73.84,33.75c0.82,0.5,1.54,2.23,1.48,3.25c-0.44,8-1.57,18.5-3.38,33.75" class="stroke" stroke-dasharray="150"><set attributeName="opacity" to="0" dur="10.6s" /><animate attributeName="stroke-dashoffset" from="150" to="0" dur="1.8s" begin="10.6s" fill="freeze" /></path><path d="M86.05,33.25c0.82,0.5,1.73,2.28,1.48,4.25c-1,8-1.88,16.75-3.77,32.25" class="stroke" stroke-dasharray="150"><set attributeName="opacity" to="0" dur="11.6s" /><animate attributeName="stroke-dashoffset" from="150" to="0" dur="1.8s" begin="11.6s" fill="freeze" /></path><path d="M42.55,82.25c0,4.98-4.34,12.33-5.48,13.75" class="stroke" stroke-dasharray="150"><set attributeName="opacity" to="0" dur="12.6s" /><animate attributeName="stroke-dashoffset" from="150" to="0" dur="1.8s" begin="12.6s" fill="freeze" /></path><path d="M54.84,82.58c2.3,2.57,4.47,9.64,5.05,13.63" class="stroke" stroke-dasharray="150"><set attributeName="opacity" to="0" dur="13.5s" /><animate attributeName="stroke-dashoffset" from="150" to="0" dur="1.8s" begin="13.5s" fill="freeze" /></path><path d="M71.09,81.83c2.31,2.36,5.97,9.71,6.55,13.38" class="stroke" stroke-dasharray="150"><set attributeName="opacity" to="0" dur="14.4s" /><animate attributeName="stroke-dashoffset" from="150" to="0" dur="1.8s" begin="14.4s" fill="freeze" /></path><path d="M87.56,79.83c2.9,2.67,7.48,10.98,8.21,15.13" class="stroke" stroke-dasharray="150"><set attributeName="opacity" to="0" dur="15.3s" /><animate attributeName="stroke-dashoffset" from="150" to="0" dur="1.8s" begin="15.3s" fill="freeze" /></path><text x="90" y="120" id="reset-kvg-064ab-HzLst">⟳</text><text x="70" y="120" id="pause-kvg-064ab-HzLst">◼</text><script type="text/javascript"><![CDATA[function RecurringTimer(e,t){var n,r,i=t;this.pause=function(){window.clearTimeout(n);i-=new Date-r};var s=function(){r=new Date;n=window.setTimeout(function(){i=t;s();e()},i)};this.clear=function(){window.clearTimeout(n);i=t;n=window.setTimeout(function(){i=t;s();e()},i)};this.resume=s;this.resume()}function invoketimer(){timer=new RecurringTimer(function(){svg.setCurrentTime(0)},17200.0)}var svg=document.getElementById("kvg-064ab-HzLst");var pause=document.getElementById("pause-kvg-064ab-HzLst");var reset=document.getElementById("reset-kvg-064ab-HzLst");var timer;invoketimer();reset.onclick=function(){svg.setCurrentTime(0);timer.clear();svg.unpauseAnimations();pause.innerHTML = "◼";};pause.onclick=function(){if(svg.animationsPaused()){svg.unpauseAnimations();timer.resume();pause.innerHTML="◼"}else{svg.pauseAnimations();timer.pause();pause.innerHTML="▶"}}]]></script></svg>