<svg id="kvg-064e1" class="kanjivg" width="106" height="126" xmlns="http://www.w3.org/2000/svg" xmlns:xlink="http://www.w3.org/1999/xlink" xml:space="preserve" version="1.1" baseProfile="full"><defs><style type="text/css"><![CDATA[path.black{fill:none;stroke:black;stroke-width:5;stroke-linecap:round;stroke-linejoin:round;}path.grey{fill:none;stroke:#ddd;stroke-width:5;stroke-linecap:round;stroke-linejoin:round;}path.stroke{fill:none;stroke:black;stroke-width:5;stroke-linecap:round;stroke-linejoin:round;}rect{fill:none;stroke:#555;stroke-width:2;} text{font-size:16px;font-family:Segoe UI Symbol,Cambria Math,DejaVu Sans,Symbola,Quivira,STIX,Code2000;-webkit-touch-callout:none;cursor:pointer;-webkit-user-select:none;-khtml-user-select:none;-moz-user-select:none;-ms-user-select:none;user-select: none;}text:hover{color:#777;}#reset{font-weight:bold;}]]></style><marker id="markerStart" markerWidth="8" markerHeight="8" style="overflow:visible;"><circle cx="0" cy="0" r="1.5" style="stroke:none;fill:red;fill-opacity:0.5;"/></marker><marker id="markerEnd" style="overflow:visible;"><circle cx="0" cy="0" r="0.8" style="stroke:none;fill:blue;fill-opacity:0.5;"><animate attributeName="opacity" from="1" to="0" dur="3s" repeatCount="indefinite" /></circle></marker></defs><rect x="4" y="4" width="100" height="100" /><path d="M12,38.42c2.08,0.25,1.27,0.55,3.5,0.25c5.5-0.75,15-2,24.17-3.17" class="grey" /><path d="M26.17,13.5c0.51,0.96,1.84,2.6,1.84,5.77c0,15.94,0.26,59.09,0.26,71.05c0,14.91-6.62,3.7-8.13,2.09" class="grey" /><path d="M10.5,65.43c0.94,1.12,2.45,1.78,4.53,0.74c1.23-0.61,18.22-12.67,24.42-16.75" class="grey" /><path d="M46.07,20.26c0.94,0.5,2.66,0.48,3.61,0.46c9.46-0.24,21.5-1.58,33.95-2.91c1.57-0.17,2.51,0.09,3.29,0.32" class="grey" /><path d="M64.57,10.26c0.48,0.8,1.39,2.13,1.39,2.95c0,5.15-0.15,12.79-0.15,15.94" class="grey" /><path d="M52.19,30.55c0.73,0.14,2.06,0.12,2.78,0.07c6.23-0.37,14.34-1.87,24.17-2.38c1.21-0.06,1.94,0.02,2.54,0.08" class="grey" /><path d="M50.3,37.64c0.17,0.17,0.35,0.31,0.42,0.52c0.6,1.67,1.31,6.29,1.72,9.3" class="grey" /><path d="M51.37,38.72c4.22-0.7,27.26-3.12,29.43-3.36c0.8-0.09,1.27,0.87,1.16,1.38c-0.47,2.11-1.51,3.92-2.52,6.96" class="grey" /><path d="M52.61,46.36c2.55-0.27,25.14-2.12,28.38-2.39" class="grey" /><path d="M43.37,51.44c-0.12,3.4-3.07,12.29-4.12,14.31" class="grey" /><path d="M43.34,53.5c2.48,0,34.26-4.39,46.71-4.39c8.47,0,2.67,5.31-0.49,8.77" class="grey" /><path d="M49.98,60.26c0.66,0.31,1.86,0.34,2.52,0.31c8.56-0.32,16.77-1.89,27.79-2.28c1.1-0.04,1.75,0.15,2.3,0.31" class="grey" /><path d="M63.34,61.34c0.1,0.45,0.14,1.24-0.15,1.59C59.81,66.98,55.3,69.1,50.62,73c-1.51,1.26-1.56,2.51,0.81,1.73c6.83-2.24,20.64-4.18,29.55-5.61" class="grey" /><path d="M75.62,64.2c3.9,1.73,10.07,7.1,11.04,9.78" class="grey" /><path d="M48.84,84.2c0.74,0.36,2.09,0.38,2.83,0.36c8.84-0.31,24.09-2.06,31.05-2.79c1.22-0.13,1.97,0.17,2.58,0.34" class="grey" /><path d="M66.21,74.48c0.08,0.2,1.17,1.02,1.14,2.28c-0.12,7.16-0.02,16.69-0.02,18.74" class="grey" /><path d="M39.89,96.77c1.02,0.38,2.89,0.39,3.91,0.38c8.98-0.1,30.85-2.6,50.38-2.7c1.7-0.01,2.72,0.18,3.57,0.37" class="grey" /><path d="M12,38.42c2.08,0.25,1.27,0.55,3.5,0.25c5.5-0.75,15-2,24.17-3.17" class="stroke" stroke-dasharray="150"><animate attributeName="stroke-dashoffset" from="150" to="0" dur="1.8s" begin="0.0s" fill="freeze" /></path><path d="M26.17,13.5c0.51,0.96,1.84,2.6,1.84,5.77c0,15.94,0.26,59.09,0.26,71.05c0,14.91-6.62,3.7-8.13,2.09" class="stroke" stroke-dasharray="150"><set attributeName="opacity" to="0" dur="1.0s" /><animate attributeName="stroke-dashoffset" from="150" to="0" dur="1.8s" begin="1.0s" fill="freeze" /></path><path d="M10.5,65.43c0.94,1.12,2.45,1.78,4.53,0.74c1.23-0.61,18.22-12.67,24.42-16.75" class="stroke" stroke-dasharray="150"><set attributeName="opacity" to="0" dur="2.8s" /><animate attributeName="stroke-dashoffset" from="150" to="0" dur="1.8s" begin="2.8s" fill="freeze" /></path><path d="M46.07,20.26c0.94,0.5,2.66,0.48,3.61,0.46c9.46-0.24,21.5-1.58,33.95-2.91c1.57-0.17,2.51,0.09,3.29,0.32" class="stroke" stroke-dasharray="150"><set attributeName="opacity" to="0" dur="3.8s" /><animate attributeName="stroke-dashoffset" from="150" to="0" dur="1.8s" begin="3.8s" fill="freeze" /></path><path d="M64.57,10.26c0.48,0.8,1.39,2.13,1.39,2.95c0,5.15-0.15,12.79-0.15,15.94" class="stroke" stroke-dasharray="150"><set attributeName="opacity" to="0" dur="4.9s" /><animate attributeName="stroke-dashoffset" from="150" to="0" dur="1.8s" begin="4.9s" fill="freeze" /></path><path d="M52.19,30.55c0.73,0.14,2.06,0.12,2.78,0.07c6.23-0.37,14.34-1.87,24.17-2.38c1.21-0.06,1.94,0.02,2.54,0.08" class="stroke" stroke-dasharray="150"><set attributeName="opacity" to="0" dur="5.800000000000001s" /><animate attributeName="stroke-dashoffset" from="150" to="0" dur="1.8s" begin="5.800000000000001s" fill="freeze" /></path><path d="M50.3,37.64c0.17,0.17,0.35,0.31,0.42,0.52c0.6,1.67,1.31,6.29,1.72,9.3" class="stroke" stroke-dasharray="150"><set attributeName="opacity" to="0" dur="6.800000000000001s" /><animate attributeName="stroke-dashoffset" from="150" to="0" dur="1.8s" begin="6.800000000000001s" fill="freeze" /></path><path d="M51.37,38.72c4.22-0.7,27.26-3.12,29.43-3.36c0.8-0.09,1.27,0.87,1.16,1.38c-0.47,2.11-1.51,3.92-2.52,6.96" class="stroke" stroke-dasharray="150"><set attributeName="opacity" to="0" dur="7.700000000000001s" /><animate attributeName="stroke-dashoffset" from="150" to="0" dur="1.8s" begin="7.700000000000001s" fill="freeze" /></path><path d="M52.61,46.36c2.55-0.27,25.14-2.12,28.38-2.39" class="stroke" stroke-dasharray="150"><set attributeName="opacity" to="0" dur="8.700000000000001s" /><animate attributeName="stroke-dashoffset" from="150" to="0" dur="1.8s" begin="8.700000000000001s" fill="freeze" /></path><path d="M43.37,51.44c-0.12,3.4-3.07,12.29-4.12,14.31" class="stroke" stroke-dasharray="150"><set attributeName="opacity" to="0" dur="9.700000000000001s" /><animate attributeName="stroke-dashoffset" from="150" to="0" dur="1.8s" begin="9.700000000000001s" fill="freeze" /></path><path d="M43.34,53.5c2.48,0,34.26-4.39,46.71-4.39c8.47,0,2.67,5.31-0.49,8.77" class="stroke" stroke-dasharray="150"><set attributeName="opacity" to="0" dur="10.600000000000001s" /><animate attributeName="stroke-dashoffset" from="150" to="0" dur="1.8s" begin="10.600000000000001s" fill="freeze" /></path><path d="M49.98,60.26c0.66,0.31,1.86,0.34,2.52,0.31c8.56-0.32,16.77-1.89,27.79-2.28c1.1-0.04,1.75,0.15,2.3,0.31" class="stroke" stroke-dasharray="150"><set attributeName="opacity" to="0" dur="12.100000000000001s" /><animate attributeName="stroke-dashoffset" from="150" to="0" dur="1.8s" begin="12.100000000000001s" fill="freeze" /></path><path d="M63.34,61.34c0.1,0.45,0.14,1.24-0.15,1.59C59.81,66.98,55.3,69.1,50.62,73c-1.51,1.26-1.56,2.51,0.81,1.73c6.83-2.24,20.64-4.18,29.55-5.61" class="stroke" stroke-dasharray="150"><set attributeName="opacity" to="0" dur="13.100000000000001s" /><animate attributeName="stroke-dashoffset" from="150" to="0" dur="1.8s" begin="13.100000000000001s" fill="freeze" /></path><path d="M75.62,64.2c3.9,1.73,10.07,7.1,11.04,9.78" class="stroke" stroke-dasharray="150"><set attributeName="opacity" to="0" dur="14.400000000000002s" /><animate attributeName="stroke-dashoffset" from="150" to="0" dur="1.8s" begin="14.400000000000002s" fill="freeze" /></path><path d="M48.84,84.2c0.74,0.36,2.09,0.38,2.83,0.36c8.84-0.31,24.09-2.06,31.05-2.79c1.22-0.13,1.97,0.17,2.58,0.34" class="stroke" stroke-dasharray="150"><set attributeName="opacity" to="0" dur="15.300000000000002s" /><animate attributeName="stroke-dashoffset" from="150" to="0" dur="1.8s" begin="15.300000000000002s" fill="freeze" /></path><path d="M66.21,74.48c0.08,0.2,1.17,1.02,1.14,2.28c-0.12,7.16-0.02,16.69-0.02,18.74" class="stroke" stroke-dasharray="150"><set attributeName="opacity" to="0" dur="16.300000000000004s" /><animate attributeName="stroke-dashoffset" from="150" to="0" dur="1.8s" begin="16.300000000000004s" fill="freeze" /></path><path d="M39.89,96.77c1.02,0.38,2.89,0.39,3.91,0.38c8.98-0.1,30.85-2.6,50.38-2.7c1.7-0.01,2.72,0.18,3.57,0.37" class="stroke" stroke-dasharray="150"><set attributeName="opacity" to="0" dur="17.300000000000004s" /><animate attributeName="stroke-dashoffset" from="150" to="0" dur="1.8s" begin="17.300000000000004s" fill="freeze" /></path><text x="90" y="120" id="reset-kvg-064e1">⟳</text><text x="70" y="120" id="pause-kvg-064e1">◼</text><script type="text/javascript"><![CDATA[function RecurringTimer(e,t){var n,r,i=t;this.pause=function(){window.clearTimeout(n);i-=new Date-r};var s=function(){r=new Date;n=window.setTimeout(function(){i=t;s();e()},i)};this.clear=function(){window.clearTimeout(n);i=t;n=window.setTimeout(function(){i=t;s();e()},i)};this.resume=s;this.resume()}function invoketimer(){timer=new RecurringTimer(function(){svg.setCurrentTime(0)},19700.000000000004)}var svg=document.getElementById("kvg-064e1");var pause=document.getElementById("pause-kvg-064e1");var reset=document.getElementById("reset-kvg-064e1");var timer;invoketimer();reset.onclick=function(){svg.setCurrentTime(0);timer.clear();svg.unpauseAnimations();pause.innerHTML = "◼";};pause.onclick=function(){if(svg.animationsPaused()){svg.unpauseAnimations();timer.resume();pause.innerHTML="◼"}else{svg.pauseAnimations();timer.pause();pause.innerHTML="▶"}}]]></script></svg>