<svg id="kvg-06575" class="kanjivg" width="106" height="126" xmlns="http://www.w3.org/2000/svg" xmlns:xlink="http://www.w3.org/1999/xlink" xml:space="preserve" version="1.1" baseProfile="full"><defs><style type="text/css"><![CDATA[path.black{fill:none;stroke:black;stroke-width:5;stroke-linecap:round;stroke-linejoin:round;}path.grey{fill:none;stroke:#ddd;stroke-width:5;stroke-linecap:round;stroke-linejoin:round;}path.stroke{fill:none;stroke:black;stroke-width:5;stroke-linecap:round;stroke-linejoin:round;}rect{fill:none;stroke:#555;stroke-width:2;} text{font-size:16px;font-family:Segoe UI Symbol,Cambria Math,DejaVu Sans,Symbola,Quivira,STIX,Code2000;-webkit-touch-callout:none;cursor:pointer;-webkit-user-select:none;-khtml-user-select:none;-moz-user-select:none;-ms-user-select:none;user-select: none;}text:hover{color:#777;}#reset{font-weight:bold;}]]></style><marker id="markerStart" markerWidth="8" markerHeight="8" style="overflow:visible;"><circle cx="0" cy="0" r="1.5" style="stroke:none;fill:red;fill-opacity:0.5;"/></marker><marker id="markerEnd" style="overflow:visible;"><circle cx="0" cy="0" r="0.8" style="stroke:none;fill:blue;fill-opacity:0.5;"><animate attributeName="opacity" from="1" to="0" dur="3s" repeatCount="indefinite" /></circle></marker></defs><rect x="4" y="4" width="100" height="100" /><path d="M29.75,13.75c1,0.75,1.5,2,1.5,3.75s0,4.88,0,8" class="grey" /><path d="M11,28.45c2.38,0.42,4.46,0.37,6.62,0.09c7.76-1.04,20.11-2.9,28.88-3.43c2.1-0.13,4.25-0.23,6.25-0.02" class="grey" /><path d="M19.88,31.5c2.83,3.73,4.12,7.54,4.38,10" class="grey" /><path d="M41.73,28.5c0.27,0.75,0.18,1.63,0.04,1.94c-1.4,3.18-3.69,8.06-4.78,9.81" class="grey" /><path d="M12,43.73c0.88,0.88,1.42,2.25,1.29,3.63c-0.11,1.1,0.04,26.93,0.11,38.64c0.02,2.98,0.03,5.03,0.03,5.5" class="grey" /><path d="M14.54,45.52c5.09-0.61,23.59-2.9,32.75-4.07c2.17-0.28,3.48,0.3,3.48,2.59c0,1.29,0.1,41.09,0.1,44.62c0,7.96-4.62,1.84-6.63-0.08" class="grey" /><path d="M19,55.31c1.4,0.48,2.73,0.5,4.16,0.3c4.43-0.59,12.76-1.88,17.6-2.21c0.9-0.06,2.51-0.28,3.5-0.08" class="grey" /><path d="M30.2,46.75c1.02,1.02,1.5,2.25,1.5,3.88c0,6.12,0.17,9.74,0.17,14.3" class="grey" /><path d="M21.69,66.54c0.82,0.82,1.06,1.71,1.36,3.22c0.4,2.03,1.22,4.91,1.71,7.95c0.22,1.39,0.42,2.7,0.56,3.79" class="grey" /><path d="M23.21,67.17c5.16-0.8,12.66-1.8,16.62-2.35c1.18-0.16,2.04,0.67,1.73,2.01c-0.57,2.44-1.66,5.7-2.31,8.98" class="grey" /><path d="M26.04,78.4c2.76-0.14,7.14-0.77,11.25-1.24c1.09-0.13,2.11-0.22,2.99-0.27" class="grey" /><path d="M68.56,14.89c0.19,0.98,0.2,1.71-0.06,2.87c-1.68,7.4-5.45,22.25-11.25,32.49" class="grey" /><path d="M65.25,40.01c1.25,0.11,2.11-0.09,2.59-0.13c4.34-0.37,11.79-2.38,17.79-3.61c1.27-0.26,3.37-0.52,4.62-0.3" class="grey" /><path d="M78.26,41.93c0.35,1.22,0.54,2.09,0.17,4.31c-3.3,20.2-10.18,36.39-22.18,45.26" class="grey" /><path d="M58.04,55.51c2.28,0.56,20.11,21.2,31.51,30.1c2.21,1.72,4.83,3.9,7.46,4.65" class="grey" /><path d="M29.75,13.75c1,0.75,1.5,2,1.5,3.75s0,4.88,0,8" class="stroke" stroke-dasharray="150"><animate attributeName="stroke-dashoffset" from="150" to="0" dur="1.8s" begin="0.0s" fill="freeze" /></path><path d="M11,28.45c2.38,0.42,4.46,0.37,6.62,0.09c7.76-1.04,20.11-2.9,28.88-3.43c2.1-0.13,4.25-0.23,6.25-0.02" class="stroke" stroke-dasharray="150"><set attributeName="opacity" to="0" dur="0.9s" /><animate attributeName="stroke-dashoffset" from="150" to="0" dur="1.8s" begin="0.9s" fill="freeze" /></path><path d="M19.88,31.5c2.83,3.73,4.12,7.54,4.38,10" class="stroke" stroke-dasharray="150"><set attributeName="opacity" to="0" dur="2.0s" /><animate attributeName="stroke-dashoffset" from="150" to="0" dur="1.8s" begin="2.0s" fill="freeze" /></path><path d="M41.73,28.5c0.27,0.75,0.18,1.63,0.04,1.94c-1.4,3.18-3.69,8.06-4.78,9.81" class="stroke" stroke-dasharray="150"><set attributeName="opacity" to="0" dur="2.9s" /><animate attributeName="stroke-dashoffset" from="150" to="0" dur="1.8s" begin="2.9s" fill="freeze" /></path><path d="M12,43.73c0.88,0.88,1.42,2.25,1.29,3.63c-0.11,1.1,0.04,26.93,0.11,38.64c0.02,2.98,0.03,5.03,0.03,5.5" class="stroke" stroke-dasharray="150"><set attributeName="opacity" to="0" dur="3.8s" /><animate attributeName="stroke-dashoffset" from="150" to="0" dur="1.8s" begin="3.8s" fill="freeze" /></path><path d="M14.54,45.52c5.09-0.61,23.59-2.9,32.75-4.07c2.17-0.28,3.48,0.3,3.48,2.59c0,1.29,0.1,41.09,0.1,44.62c0,7.96-4.62,1.84-6.63-0.08" class="stroke" stroke-dasharray="150"><set attributeName="opacity" to="0" dur="5.0s" /><animate attributeName="stroke-dashoffset" from="150" to="0" dur="1.8s" begin="5.0s" fill="freeze" /></path><path d="M19,55.31c1.4,0.48,2.73,0.5,4.16,0.3c4.43-0.59,12.76-1.88,17.6-2.21c0.9-0.06,2.51-0.28,3.5-0.08" class="stroke" stroke-dasharray="150"><set attributeName="opacity" to="0" dur="6.8s" /><animate attributeName="stroke-dashoffset" from="150" to="0" dur="1.8s" begin="6.8s" fill="freeze" /></path><path d="M30.2,46.75c1.02,1.02,1.5,2.25,1.5,3.88c0,6.12,0.17,9.74,0.17,14.3" class="stroke" stroke-dasharray="150"><set attributeName="opacity" to="0" dur="7.8s" /><animate attributeName="stroke-dashoffset" from="150" to="0" dur="1.8s" begin="7.8s" fill="freeze" /></path><path d="M21.69,66.54c0.82,0.82,1.06,1.71,1.36,3.22c0.4,2.03,1.22,4.91,1.71,7.95c0.22,1.39,0.42,2.7,0.56,3.79" class="stroke" stroke-dasharray="150"><set attributeName="opacity" to="0" dur="8.7s" /><animate attributeName="stroke-dashoffset" from="150" to="0" dur="1.8s" begin="8.7s" fill="freeze" /></path><path d="M23.21,67.17c5.16-0.8,12.66-1.8,16.62-2.35c1.18-0.16,2.04,0.67,1.73,2.01c-0.57,2.44-1.66,5.7-2.31,8.98" class="stroke" stroke-dasharray="150"><set attributeName="opacity" to="0" dur="9.6s" /><animate attributeName="stroke-dashoffset" from="150" to="0" dur="1.8s" begin="9.6s" fill="freeze" /></path><path d="M26.04,78.4c2.76-0.14,7.14-0.77,11.25-1.24c1.09-0.13,2.11-0.22,2.99-0.27" class="stroke" stroke-dasharray="150"><set attributeName="opacity" to="0" dur="10.6s" /><animate attributeName="stroke-dashoffset" from="150" to="0" dur="1.8s" begin="10.6s" fill="freeze" /></path><path d="M68.56,14.89c0.19,0.98,0.2,1.71-0.06,2.87c-1.68,7.4-5.45,22.25-11.25,32.49" class="stroke" stroke-dasharray="150"><set attributeName="opacity" to="0" dur="11.5s" /><animate attributeName="stroke-dashoffset" from="150" to="0" dur="1.8s" begin="11.5s" fill="freeze" /></path><path d="M65.25,40.01c1.25,0.11,2.11-0.09,2.59-0.13c4.34-0.37,11.79-2.38,17.79-3.61c1.27-0.26,3.37-0.52,4.62-0.3" class="stroke" stroke-dasharray="150"><set attributeName="opacity" to="0" dur="12.5s" /><animate attributeName="stroke-dashoffset" from="150" to="0" dur="1.8s" begin="12.5s" fill="freeze" /></path><path d="M78.26,41.93c0.35,1.22,0.54,2.09,0.17,4.31c-3.3,20.2-10.18,36.39-22.18,45.26" class="stroke" stroke-dasharray="150"><set attributeName="opacity" to="0" dur="13.5s" /><animate attributeName="stroke-dashoffset" from="150" to="0" dur="1.8s" begin="13.5s" fill="freeze" /></path><path d="M58.04,55.51c2.28,0.56,20.11,21.2,31.51,30.1c2.21,1.72,4.83,3.9,7.46,4.65" class="stroke" stroke-dasharray="150"><set attributeName="opacity" to="0" dur="14.9s" /><animate attributeName="stroke-dashoffset" from="150" to="0" dur="1.8s" begin="14.9s" fill="freeze" /></path><text x="90" y="120" id="reset-kvg-06575">⟳</text><text x="70" y="120" id="pause-kvg-06575">◼</text><script type="text/javascript"><![CDATA[function RecurringTimer(e,t){var n,r,i=t;this.pause=function(){window.clearTimeout(n);i-=new Date-r};var s=function(){r=new Date;n=window.setTimeout(function(){i=t;s();e()},i)};this.clear=function(){window.clearTimeout(n);i=t;n=window.setTimeout(function(){i=t;s();e()},i)};this.resume=s;this.resume()}function invoketimer(){timer=new RecurringTimer(function(){svg.setCurrentTime(0)},17200.0)}var svg=document.getElementById("kvg-06575");var pause=document.getElementById("pause-kvg-06575");var reset=document.getElementById("reset-kvg-06575");var timer;invoketimer();reset.onclick=function(){svg.setCurrentTime(0);timer.clear();svg.unpauseAnimations();pause.innerHTML = "◼";};pause.onclick=function(){if(svg.animationsPaused()){svg.unpauseAnimations();timer.resume();pause.innerHTML="◼"}else{svg.pauseAnimations();timer.pause();pause.innerHTML="▶"}}]]></script></svg>