<svg id="kvg-0659f" class="kanjivg" width="106" height="126" xmlns="http://www.w3.org/2000/svg" xmlns:xlink="http://www.w3.org/1999/xlink" xml:space="preserve" version="1.1" baseProfile="full"><defs><style type="text/css"><![CDATA[path.black{fill:none;stroke:black;stroke-width:5;stroke-linecap:round;stroke-linejoin:round;}path.grey{fill:none;stroke:#ddd;stroke-width:5;stroke-linecap:round;stroke-linejoin:round;}path.stroke{fill:none;stroke:black;stroke-width:5;stroke-linecap:round;stroke-linejoin:round;}rect{fill:none;stroke:#555;stroke-width:2;} text{font-size:16px;font-family:Segoe UI Symbol,Cambria Math,DejaVu Sans,Symbola,Quivira,STIX,Code2000;-webkit-touch-callout:none;cursor:pointer;-webkit-user-select:none;-khtml-user-select:none;-moz-user-select:none;-ms-user-select:none;user-select: none;}text:hover{color:#777;}#reset{font-weight:bold;}]]></style><marker id="markerStart" markerWidth="8" markerHeight="8" style="overflow:visible;"><circle cx="0" cy="0" r="1.5" style="stroke:none;fill:red;fill-opacity:0.5;"/></marker><marker id="markerEnd" style="overflow:visible;"><circle cx="0" cy="0" r="0.8" style="stroke:none;fill:blue;fill-opacity:0.5;"><animate attributeName="opacity" from="1" to="0" dur="3s" repeatCount="indefinite" /></circle></marker></defs><rect x="4" y="4" width="100" height="100" /><path d="M13.28,27.91c0.89,0.43,2.53,0.54,3.42,0.43c6.57-0.79,25.8-2.59,37.18-3.54c1.48-0.12,2.38,0.21,3.12,0.42" class="grey" /><path d="M24.75,15.75c0.78,0.48,1.24,2.16,1.4,3.12c0.16,0.96,0.15,39.18,0.02,44.13" class="grey" /><path d="M44.31,12.53c0.8,0.5,1.28,2.23,1.44,3.22c0.16,0.99,0.22,40.01,0.09,44.96" class="grey" /><path d="M26.69,38.87c2.5-0.4,16.88-1.88,18.64-1.88" class="grey" /><path d="M26.69,50.05c3.82-0.2,15.47-1.39,19-1.58" class="grey" /><path d="M10.75,64.3c1.05,0.44,2.99,0.51,4.04,0.44c10.97-0.73,28.55-4.03,39.27-4.79c1.75-0.12,2.81,0.21,3.69,0.43" class="grey" /><path d="M32.5,66.25c0.26,0.29,0.57,1.03,0.51,1.61c-0.52,4.72-4.12,12.62-8.25,15.39" class="grey" /><path d="M40.71,63.78c0.57,0.88,1.05,1.91,1.05,3.26c0,1.95-0.13,1.62-0.13,5.06c0,6.94,1.71,7.14,6.63,7.14c4.24,0,5.52-0.79,6.24-1.62" class="grey" /><path d="M19.06,67.64c0.82,1.26,1.51,2.74,1.51,4.68c0,2.8-0.08,9.02-0.08,13.18c0,8.42,2.68,8.5,15.85,8.5c11.34,0,14.78-0.76,16.7-1.77" class="grey" /><path d="M64.25,27.5C67.34,29,72.23,33.67,73,36" class="grey" /><path d="M60.25,44.25c3.26,1.41,8.43,5.8,9.25,8" class="grey" /><path d="M56.75,66.25c0.65,0.25,2.4,0.93,4.13,0.75c7.12-0.75,25.62-4,35.85-4c1.74,0,2.18-0.25,3.26,0" class="grey" /><path d="M79.37,12.25c1.09,0.5,1.74,2.25,1.96,3.25c0.22,1,0,75.25-0.22,81.5" class="grey" /><path d="M13.28,27.91c0.89,0.43,2.53,0.54,3.42,0.43c6.57-0.79,25.8-2.59,37.18-3.54c1.48-0.12,2.38,0.21,3.12,0.42" class="stroke" stroke-dasharray="150"><animate attributeName="stroke-dashoffset" from="150" to="0" dur="1.8s" begin="0.0s" fill="freeze" /></path><path d="M24.75,15.75c0.78,0.48,1.24,2.16,1.4,3.12c0.16,0.96,0.15,39.18,0.02,44.13" class="stroke" stroke-dasharray="150"><set attributeName="opacity" to="0" dur="1.1s" /><animate attributeName="stroke-dashoffset" from="150" to="0" dur="1.8s" begin="1.1s" fill="freeze" /></path><path d="M44.31,12.53c0.8,0.5,1.28,2.23,1.44,3.22c0.16,0.99,0.22,40.01,0.09,44.96" class="stroke" stroke-dasharray="150"><set attributeName="opacity" to="0" dur="2.3s" /><animate attributeName="stroke-dashoffset" from="150" to="0" dur="1.8s" begin="2.3s" fill="freeze" /></path><path d="M26.69,38.87c2.5-0.4,16.88-1.88,18.64-1.88" class="stroke" stroke-dasharray="150"><set attributeName="opacity" to="0" dur="3.5s" /><animate attributeName="stroke-dashoffset" from="150" to="0" dur="1.8s" begin="3.5s" fill="freeze" /></path><path d="M26.69,50.05c3.82-0.2,15.47-1.39,19-1.58" class="stroke" stroke-dasharray="150"><set attributeName="opacity" to="0" dur="4.4s" /><animate attributeName="stroke-dashoffset" from="150" to="0" dur="1.8s" begin="4.4s" fill="freeze" /></path><path d="M10.75,64.3c1.05,0.44,2.99,0.51,4.04,0.44c10.97-0.73,28.55-4.03,39.27-4.79c1.75-0.12,2.81,0.21,3.69,0.43" class="stroke" stroke-dasharray="150"><set attributeName="opacity" to="0" dur="5.300000000000001s" /><animate attributeName="stroke-dashoffset" from="150" to="0" dur="1.8s" begin="5.300000000000001s" fill="freeze" /></path><path d="M32.5,66.25c0.26,0.29,0.57,1.03,0.51,1.61c-0.52,4.72-4.12,12.62-8.25,15.39" class="stroke" stroke-dasharray="150"><set attributeName="opacity" to="0" dur="6.500000000000001s" /><animate attributeName="stroke-dashoffset" from="150" to="0" dur="1.8s" begin="6.500000000000001s" fill="freeze" /></path><path d="M40.71,63.78c0.57,0.88,1.05,1.91,1.05,3.26c0,1.95-0.13,1.62-0.13,5.06c0,6.94,1.71,7.14,6.63,7.14c4.24,0,5.52-0.79,6.24-1.62" class="stroke" stroke-dasharray="150"><set attributeName="opacity" to="0" dur="7.400000000000001s" /><animate attributeName="stroke-dashoffset" from="150" to="0" dur="1.8s" begin="7.400000000000001s" fill="freeze" /></path><path d="M19.06,67.64c0.82,1.26,1.51,2.74,1.51,4.68c0,2.8-0.08,9.02-0.08,13.18c0,8.42,2.68,8.5,15.85,8.5c11.34,0,14.78-0.76,16.7-1.77" class="stroke" stroke-dasharray="150"><set attributeName="opacity" to="0" dur="8.400000000000002s" /><animate attributeName="stroke-dashoffset" from="150" to="0" dur="1.8s" begin="8.400000000000002s" fill="freeze" /></path><path d="M64.25,27.5C67.34,29,72.23,33.67,73,36" class="stroke" stroke-dasharray="150"><set attributeName="opacity" to="0" dur="9.800000000000002s" /><animate attributeName="stroke-dashoffset" from="150" to="0" dur="1.8s" begin="9.800000000000002s" fill="freeze" /></path><path d="M60.25,44.25c3.26,1.41,8.43,5.8,9.25,8" class="stroke" stroke-dasharray="150"><set attributeName="opacity" to="0" dur="10.700000000000003s" /><animate attributeName="stroke-dashoffset" from="150" to="0" dur="1.8s" begin="10.700000000000003s" fill="freeze" /></path><path d="M56.75,66.25c0.65,0.25,2.4,0.93,4.13,0.75c7.12-0.75,25.62-4,35.85-4c1.74,0,2.18-0.25,3.26,0" class="stroke" stroke-dasharray="150"><set attributeName="opacity" to="0" dur="11.600000000000003s" /><animate attributeName="stroke-dashoffset" from="150" to="0" dur="1.8s" begin="11.600000000000003s" fill="freeze" /></path><path d="M79.37,12.25c1.09,0.5,1.74,2.25,1.96,3.25c0.22,1,0,75.25-0.22,81.5" class="stroke" stroke-dasharray="150"><set attributeName="opacity" to="0" dur="12.700000000000003s" /><animate attributeName="stroke-dashoffset" from="150" to="0" dur="1.8s" begin="12.700000000000003s" fill="freeze" /></path><text x="90" y="120" id="reset-kvg-0659f">⟳</text><text x="70" y="120" id="pause-kvg-0659f">◼</text><script type="text/javascript"><![CDATA[function RecurringTimer(e,t){var n,r,i=t;this.pause=function(){window.clearTimeout(n);i-=new Date-r};var s=function(){r=new Date;n=window.setTimeout(function(){i=t;s();e()},i)};this.clear=function(){window.clearTimeout(n);i=t;n=window.setTimeout(function(){i=t;s();e()},i)};this.resume=s;this.resume()}function invoketimer(){timer=new RecurringTimer(function(){svg.setCurrentTime(0)},15400.000000000002)}var svg=document.getElementById("kvg-0659f");var pause=document.getElementById("pause-kvg-0659f");var reset=document.getElementById("reset-kvg-0659f");var timer;invoketimer();reset.onclick=function(){svg.setCurrentTime(0);timer.clear();svg.unpauseAnimations();pause.innerHTML = "◼";};pause.onclick=function(){if(svg.animationsPaused()){svg.unpauseAnimations();timer.resume();pause.innerHTML="◼"}else{svg.pauseAnimations();timer.pause();pause.innerHTML="▶"}}]]></script></svg>