<svg id="kvg-06591-Kaisho" class="kanjivg" width="106" height="126" xmlns="http://www.w3.org/2000/svg" xmlns:xlink="http://www.w3.org/1999/xlink" xml:space="preserve" version="1.1" baseProfile="full"><defs><style type="text/css"><![CDATA[path.black{fill:none;stroke:black;stroke-width:5;stroke-linecap:round;stroke-linejoin:round;}path.grey{fill:none;stroke:#ddd;stroke-width:5;stroke-linecap:round;stroke-linejoin:round;}path.stroke{fill:none;stroke:black;stroke-width:5;stroke-linecap:round;stroke-linejoin:round;}rect{fill:none;stroke:#555;stroke-width:2;} text{font-size:16px;font-family:Segoe UI Symbol,Cambria Math,DejaVu Sans,Symbola,Quivira,STIX,Code2000;-webkit-touch-callout:none;cursor:pointer;-webkit-user-select:none;-khtml-user-select:none;-moz-user-select:none;-ms-user-select:none;user-select: none;}text:hover{color:#777;}#reset{font-weight:bold;}]]></style><marker id="markerStart" markerWidth="8" markerHeight="8" style="overflow:visible;"><circle cx="0" cy="0" r="1.5" style="stroke:none;fill:red;fill-opacity:0.5;"/></marker><marker id="markerEnd" style="overflow:visible;"><circle cx="0" cy="0" r="0.8" style="stroke:none;fill:blue;fill-opacity:0.5;"><animate attributeName="opacity" from="1" to="0" dur="3s" repeatCount="indefinite" /></circle></marker></defs><rect x="4" y="4" width="100" height="100" /><path d="M12.25,27.25c0.56,0.37,3.6,0.45,4.16,0.34c2.63-0.5,13.34-2.09,19.66-2.64c0.86-0.07,2.46-0.26,3.18,0.04" class="grey" /><path d="M25.57,29.52c0.87,0.88,1.48,2.78,1.48,3.48c0,5.95,0.52,37.62,0.35,41.57" class="grey" /><path d="M12.5,52.32c0.5,0.36,3.99,0.42,4.5,0.33c2.91-0.48,13.66-2.25,17.69-2.76c0.62-0.08,2.88-0.15,3.81,0.17" class="grey" /><path d="M13.25,80.75c1.25,1.5,3.18,1.43,4,1C22.5,79,29.5,75.5,37.5,70.75" class="grey" /><path d="M51.47,17.75c2.25,1.46,5.33,7.15,5.93,9.99" class="grey" /><path d="M40.5,35.69c0.67,0.07,2.21,0.4,2.86,0.36c5.48-0.34,16.81-3.26,23.08-3.7c1.11-0.08,1.48-0.09,2.8-0.09" class="grey" /><path d="M62.09,36.81c0.35,1.24,0.66,2.12,0.17,4.41C57.8,62.12,46.6,83.76,34.63,92.75" class="grey" /><path d="M44.21,47.01c7.92,5.9,16.45,19.1,20.54,27.99" class="grey" /><path d="M67.5,24.86c0.63,0.45,2.67,0.08,3.31,0.03c4.94-0.39,13.69-1.39,20.5-2.68c0.96-0.18,1.85,0.09,2.65,0.46" class="grey" /><path d="M79.25,26.56c1.61,2.19,1.61,3.5,1.61,5.25c0,12.25-0.02,33.88-0.02,53.51" class="grey" /><path d="M67.95,53.54c0.47,0.31,3.5,0.69,3.98,0.63c4.96-0.54,12.76-2.12,18.59-2.66c0.58-0.05,1.86-0.12,2.73,0.14" class="grey" /><path d="M61.25,87.11c0.42,0.12,2.63,0.06,3.35,0c10.04-0.83,20.55-1.84,31.29-2.13c1.15-0.03,2.54,0.2,3.12,0.38" class="grey" /><path d="M12.25,27.25c0.56,0.37,3.6,0.45,4.16,0.34c2.63-0.5,13.34-2.09,19.66-2.64c0.86-0.07,2.46-0.26,3.18,0.04" class="stroke" stroke-dasharray="150"><animate attributeName="stroke-dashoffset" from="150" to="0" dur="1.8s" begin="0.0s" fill="freeze" /></path><path d="M25.57,29.52c0.87,0.88,1.48,2.78,1.48,3.48c0,5.95,0.52,37.62,0.35,41.57" class="stroke" stroke-dasharray="150"><set attributeName="opacity" to="0" dur="1.0s" /><animate attributeName="stroke-dashoffset" from="150" to="0" dur="1.8s" begin="1.0s" fill="freeze" /></path><path d="M12.5,52.32c0.5,0.36,3.99,0.42,4.5,0.33c2.91-0.48,13.66-2.25,17.69-2.76c0.62-0.08,2.88-0.15,3.81,0.17" class="stroke" stroke-dasharray="150"><set attributeName="opacity" to="0" dur="2.2s" /><animate attributeName="stroke-dashoffset" from="150" to="0" dur="1.8s" begin="2.2s" fill="freeze" /></path><path d="M13.25,80.75c1.25,1.5,3.18,1.43,4,1C22.5,79,29.5,75.5,37.5,70.75" class="stroke" stroke-dasharray="150"><set attributeName="opacity" to="0" dur="3.2s" /><animate attributeName="stroke-dashoffset" from="150" to="0" dur="1.8s" begin="3.2s" fill="freeze" /></path><path d="M51.47,17.75c2.25,1.46,5.33,7.15,5.93,9.99" class="stroke" stroke-dasharray="150"><set attributeName="opacity" to="0" dur="4.2s" /><animate attributeName="stroke-dashoffset" from="150" to="0" dur="1.8s" begin="4.2s" fill="freeze" /></path><path d="M40.5,35.69c0.67,0.07,2.21,0.4,2.86,0.36c5.48-0.34,16.81-3.26,23.08-3.7c1.11-0.08,1.48-0.09,2.8-0.09" class="stroke" stroke-dasharray="150"><set attributeName="opacity" to="0" dur="5.1000000000000005s" /><animate attributeName="stroke-dashoffset" from="150" to="0" dur="1.8s" begin="5.1000000000000005s" fill="freeze" /></path><path d="M62.09,36.81c0.35,1.24,0.66,2.12,0.17,4.41C57.8,62.12,46.6,83.76,34.63,92.75" class="stroke" stroke-dasharray="150"><set attributeName="opacity" to="0" dur="6.1000000000000005s" /><animate attributeName="stroke-dashoffset" from="150" to="0" dur="1.8s" begin="6.1000000000000005s" fill="freeze" /></path><path d="M44.21,47.01c7.92,5.9,16.45,19.1,20.54,27.99" class="stroke" stroke-dasharray="150"><set attributeName="opacity" to="0" dur="7.6000000000000005s" /><animate attributeName="stroke-dashoffset" from="150" to="0" dur="1.8s" begin="7.6000000000000005s" fill="freeze" /></path><path d="M67.5,24.86c0.63,0.45,2.67,0.08,3.31,0.03c4.94-0.39,13.69-1.39,20.5-2.68c0.96-0.18,1.85,0.09,2.65,0.46" class="stroke" stroke-dasharray="150"><set attributeName="opacity" to="0" dur="8.600000000000001s" /><animate attributeName="stroke-dashoffset" from="150" to="0" dur="1.8s" begin="8.600000000000001s" fill="freeze" /></path><path d="M79.25,26.56c1.61,2.19,1.61,3.5,1.61,5.25c0,12.25-0.02,33.88-0.02,53.51" class="stroke" stroke-dasharray="150"><set attributeName="opacity" to="0" dur="9.600000000000001s" /><animate attributeName="stroke-dashoffset" from="150" to="0" dur="1.8s" begin="9.600000000000001s" fill="freeze" /></path><path d="M67.95,53.54c0.47,0.31,3.5,0.69,3.98,0.63c4.96-0.54,12.76-2.12,18.59-2.66c0.58-0.05,1.86-0.12,2.73,0.14" class="stroke" stroke-dasharray="150"><set attributeName="opacity" to="0" dur="11.000000000000002s" /><animate attributeName="stroke-dashoffset" from="150" to="0" dur="1.8s" begin="11.000000000000002s" fill="freeze" /></path><path d="M61.25,87.11c0.42,0.12,2.63,0.06,3.35,0c10.04-0.83,20.55-1.84,31.29-2.13c1.15-0.03,2.54,0.2,3.12,0.38" class="stroke" stroke-dasharray="150"><set attributeName="opacity" to="0" dur="12.000000000000002s" /><animate attributeName="stroke-dashoffset" from="150" to="0" dur="1.8s" begin="12.000000000000002s" fill="freeze" /></path><text x="90" y="120" id="reset-kvg-06591-Kaisho">⟳</text><text x="70" y="120" id="pause-kvg-06591-Kaisho">◼</text><script type="text/javascript"><![CDATA[function RecurringTimer(e,t){var n,r,i=t;this.pause=function(){window.clearTimeout(n);i-=new Date-r};var s=function(){r=new Date;n=window.setTimeout(function(){i=t;s();e()},i)};this.clear=function(){window.clearTimeout(n);i=t;n=window.setTimeout(function(){i=t;s();e()},i)};this.resume=s;this.resume()}function invoketimer(){timer=new RecurringTimer(function(){svg.setCurrentTime(0)},14000.000000000002)}var svg=document.getElementById("kvg-06591-Kaisho");var pause=document.getElementById("pause-kvg-06591-Kaisho");var reset=document.getElementById("reset-kvg-06591-Kaisho");var timer;invoketimer();reset.onclick=function(){svg.setCurrentTime(0);timer.clear();svg.unpauseAnimations();pause.innerHTML = "◼";};pause.onclick=function(){if(svg.animationsPaused()){svg.unpauseAnimations();timer.resume();pause.innerHTML="◼"}else{svg.pauseAnimations();timer.pause();pause.innerHTML="▶"}}]]></script></svg>