<svg id="kvg-065b0-Kaisho" class="kanjivg" width="106" height="126" xmlns="http://www.w3.org/2000/svg" xmlns:xlink="http://www.w3.org/1999/xlink" xml:space="preserve" version="1.1" baseProfile="full"><defs><style type="text/css"><![CDATA[path.black{fill:none;stroke:black;stroke-width:5;stroke-linecap:round;stroke-linejoin:round;}path.grey{fill:none;stroke:#ddd;stroke-width:5;stroke-linecap:round;stroke-linejoin:round;}path.stroke{fill:none;stroke:black;stroke-width:5;stroke-linecap:round;stroke-linejoin:round;}rect{fill:none;stroke:#555;stroke-width:2;} text{font-size:16px;font-family:Segoe UI Symbol,Cambria Math,DejaVu Sans,Symbola,Quivira,STIX,Code2000;-webkit-touch-callout:none;cursor:pointer;-webkit-user-select:none;-khtml-user-select:none;-moz-user-select:none;-ms-user-select:none;user-select: none;}text:hover{color:#777;}#reset{font-weight:bold;}]]></style><marker id="markerStart" markerWidth="8" markerHeight="8" style="overflow:visible;"><circle cx="0" cy="0" r="1.5" style="stroke:none;fill:red;fill-opacity:0.5;"/></marker><marker id="markerEnd" style="overflow:visible;"><circle cx="0" cy="0" r="0.8" style="stroke:none;fill:blue;fill-opacity:0.5;"><animate attributeName="opacity" from="1" to="0" dur="3s" repeatCount="indefinite" /></circle></marker></defs><rect x="4" y="4" width="100" height="100" /><path d="M31.31,13.01c3.19,1.49,6,4.99,7.06,8.19" class="grey" /><path d="M18.57,28.94c0.59,0.11,1.29,0.14,1.87,0.03c2.39-0.44,17.35-2.72,28.65-3.47c0.98-0.07,1.57-0.03,2.07,0.02" class="grey" /><path d="M23.89,34.06c2.8,4.85,3.32,8.13,3.58,11.43" class="grey" /><path d="M45.44,29.67c0.31,1.08,0.3,2.33,0.14,2.77c-1.83,4.81-4.69,10.95-5.95,13.42" class="grey" /><path d="M14.42,50.95c0.74,0.13,3.61,0.13,4.34,0.03c5.24-0.73,23.99-3.23,31.65-3.24c1.24,0,2.97-0.04,3.59,0.01" class="grey" /><path d="M17.26,63.67c0.59,0.22,2.18,0.8,3.76,0.68c7.48-0.59,20.23-2.84,27.96-3.51c1.58-0.14,1.98-0.23,2.97,0" class="grey" /><path d="M34,50.25c1.13,0.45,1.8,2.03,2.03,2.93C36.39,54.64,35.8,88.19,35.8,89c0,11.5-5.43,2.88-6.3,2" class="grey" /><path d="M28,72.84c-1.72,4.33-6.18,10.46-9.75,12.91" class="grey" /><path d="M38.59,68c7.34,3.9,8.72,6.53,9.4,9.18" class="grey" /><path d="M82.74,17.44c0.05,0.44,0.21,1.26-0.11,1.75C78.56,25.34,72,30.5,61.94,35.95" class="grey" /><path d="M60.2,35.64c0.8,1.55,0.74,3.03,0.78,4.71C61.5,59.75,59.5,79,51.75,87.5" class="grey" /><path d="M63.64,47.36c0.41,0.17,2.33,0.72,3.41,0.52c6-1.09,19.43-3.26,26.24-3.8c1.09-0.09,2.99-0.17,3.67,0" class="grey" /><path d="M80.32,48.54c0.88,0.55,1.41,2.46,1.59,3.55c0.18,1.09,0.27,36.83,0.09,43.66" class="grey" /><path d="M31.31,13.01c3.19,1.49,6,4.99,7.06,8.19" class="stroke" stroke-dasharray="150"><animate attributeName="stroke-dashoffset" from="150" to="0" dur="1.8s" begin="0.0s" fill="freeze" /></path><path d="M18.57,28.94c0.59,0.11,1.29,0.14,1.87,0.03c2.39-0.44,17.35-2.72,28.65-3.47c0.98-0.07,1.57-0.03,2.07,0.02" class="stroke" stroke-dasharray="150"><set attributeName="opacity" to="0" dur="0.9s" /><animate attributeName="stroke-dashoffset" from="150" to="0" dur="1.8s" begin="0.9s" fill="freeze" /></path><path d="M23.89,34.06c2.8,4.85,3.32,8.13,3.58,11.43" class="stroke" stroke-dasharray="150"><set attributeName="opacity" to="0" dur="1.9s" /><animate attributeName="stroke-dashoffset" from="150" to="0" dur="1.8s" begin="1.9s" fill="freeze" /></path><path d="M45.44,29.67c0.31,1.08,0.3,2.33,0.14,2.77c-1.83,4.81-4.69,10.95-5.95,13.42" class="stroke" stroke-dasharray="150"><set attributeName="opacity" to="0" dur="2.8s" /><animate attributeName="stroke-dashoffset" from="150" to="0" dur="1.8s" begin="2.8s" fill="freeze" /></path><path d="M14.42,50.95c0.74,0.13,3.61,0.13,4.34,0.03c5.24-0.73,23.99-3.23,31.65-3.24c1.24,0,2.97-0.04,3.59,0.01" class="stroke" stroke-dasharray="150"><set attributeName="opacity" to="0" dur="3.6999999999999997s" /><animate attributeName="stroke-dashoffset" from="150" to="0" dur="1.8s" begin="3.6999999999999997s" fill="freeze" /></path><path d="M17.26,63.67c0.59,0.22,2.18,0.8,3.76,0.68c7.48-0.59,20.23-2.84,27.96-3.51c1.58-0.14,1.98-0.23,2.97,0" class="stroke" stroke-dasharray="150"><set attributeName="opacity" to="0" dur="4.699999999999999s" /><animate attributeName="stroke-dashoffset" from="150" to="0" dur="1.8s" begin="4.699999999999999s" fill="freeze" /></path><path d="M34,50.25c1.13,0.45,1.8,2.03,2.03,2.93C36.39,54.64,35.8,88.19,35.8,89c0,11.5-5.43,2.88-6.3,2" class="stroke" stroke-dasharray="150"><set attributeName="opacity" to="0" dur="5.699999999999999s" /><animate attributeName="stroke-dashoffset" from="150" to="0" dur="1.8s" begin="5.699999999999999s" fill="freeze" /></path><path d="M28,72.84c-1.72,4.33-6.18,10.46-9.75,12.91" class="stroke" stroke-dasharray="150"><set attributeName="opacity" to="0" dur="6.999999999999999s" /><animate attributeName="stroke-dashoffset" from="150" to="0" dur="1.8s" begin="6.999999999999999s" fill="freeze" /></path><path d="M38.59,68c7.34,3.9,8.72,6.53,9.4,9.18" class="stroke" stroke-dasharray="150"><set attributeName="opacity" to="0" dur="7.8999999999999995s" /><animate attributeName="stroke-dashoffset" from="150" to="0" dur="1.8s" begin="7.8999999999999995s" fill="freeze" /></path><path d="M82.74,17.44c0.05,0.44,0.21,1.26-0.11,1.75C78.56,25.34,72,30.5,61.94,35.95" class="stroke" stroke-dasharray="150"><set attributeName="opacity" to="0" dur="8.799999999999999s" /><animate attributeName="stroke-dashoffset" from="150" to="0" dur="1.8s" begin="8.799999999999999s" fill="freeze" /></path><path d="M60.2,35.64c0.8,1.55,0.74,3.03,0.78,4.71C61.5,59.75,59.5,79,51.75,87.5" class="stroke" stroke-dasharray="150"><set attributeName="opacity" to="0" dur="9.799999999999999s" /><animate attributeName="stroke-dashoffset" from="150" to="0" dur="1.8s" begin="9.799999999999999s" fill="freeze" /></path><path d="M63.64,47.36c0.41,0.17,2.33,0.72,3.41,0.52c6-1.09,19.43-3.26,26.24-3.8c1.09-0.09,2.99-0.17,3.67,0" class="stroke" stroke-dasharray="150"><set attributeName="opacity" to="0" dur="11.1s" /><animate attributeName="stroke-dashoffset" from="150" to="0" dur="1.8s" begin="11.1s" fill="freeze" /></path><path d="M80.32,48.54c0.88,0.55,1.41,2.46,1.59,3.55c0.18,1.09,0.27,36.83,0.09,43.66" class="stroke" stroke-dasharray="150"><set attributeName="opacity" to="0" dur="12.1s" /><animate attributeName="stroke-dashoffset" from="150" to="0" dur="1.8s" begin="12.1s" fill="freeze" /></path><text x="90" y="120" id="reset-kvg-065b0-Kaisho">⟳</text><text x="70" y="120" id="pause-kvg-065b0-Kaisho">◼</text><script type="text/javascript"><![CDATA[function RecurringTimer(e,t){var n,r,i=t;this.pause=function(){window.clearTimeout(n);i-=new Date-r};var s=function(){r=new Date;n=window.setTimeout(function(){i=t;s();e()},i)};this.clear=function(){window.clearTimeout(n);i=t;n=window.setTimeout(function(){i=t;s();e()},i)};this.resume=s;this.resume()}function invoketimer(){timer=new RecurringTimer(function(){svg.setCurrentTime(0)},14299.999999999998)}var svg=document.getElementById("kvg-065b0-Kaisho");var pause=document.getElementById("pause-kvg-065b0-Kaisho");var reset=document.getElementById("reset-kvg-065b0-Kaisho");var timer;invoketimer();reset.onclick=function(){svg.setCurrentTime(0);timer.clear();svg.unpauseAnimations();pause.innerHTML = "◼";};pause.onclick=function(){if(svg.animationsPaused()){svg.unpauseAnimations();timer.resume();pause.innerHTML="◼"}else{svg.pauseAnimations();timer.pause();pause.innerHTML="▶"}}]]></script></svg>