<svg id="kvg-065e7-Kaisho" class="kanjivg" width="106" height="126" xmlns="http://www.w3.org/2000/svg" xmlns:xlink="http://www.w3.org/1999/xlink" xml:space="preserve" version="1.1" baseProfile="full"><defs><style type="text/css"><![CDATA[path.black{fill:none;stroke:black;stroke-width:5;stroke-linecap:round;stroke-linejoin:round;}path.grey{fill:none;stroke:#ddd;stroke-width:5;stroke-linecap:round;stroke-linejoin:round;}path.stroke{fill:none;stroke:black;stroke-width:5;stroke-linecap:round;stroke-linejoin:round;}rect{fill:none;stroke:#555;stroke-width:2;} text{font-size:16px;font-family:Segoe UI Symbol,Cambria Math,DejaVu Sans,Symbola,Quivira,STIX,Code2000;-webkit-touch-callout:none;cursor:pointer;-webkit-user-select:none;-khtml-user-select:none;-moz-user-select:none;-ms-user-select:none;user-select: none;}text:hover{color:#777;}#reset{font-weight:bold;}]]></style><marker id="markerStart" markerWidth="8" markerHeight="8" style="overflow:visible;"><circle cx="0" cy="0" r="1.5" style="stroke:none;fill:red;fill-opacity:0.5;"/></marker><marker id="markerEnd" style="overflow:visible;"><circle cx="0" cy="0" r="0.8" style="stroke:none;fill:blue;fill-opacity:0.5;"><animate attributeName="opacity" from="1" to="0" dur="3s" repeatCount="indefinite" /></circle></marker></defs><rect x="4" y="4" width="100" height="100" /><path d="M23.41,23c1.08,0.43,1.73,1.95,1.95,2.82c0.22,0.87-0.5,61.52-0.72,66.93" class="grey" /><path d="M46.25,23.55c0.63,1.52,1.26,2.28,1.26,4.31c0,2.03-0.71,61.36-0.5,63.39" class="grey" /><path d="M47.55,25.8c3.54-0.25,32.01-3.25,35.24-3.55c2.69-0.25,3.92,1.81,3.71,3.31c-0.42,3.05-0.83,62.15-0.83,63.67" class="grey" /><path d="M47.68,55.24c6.7-0.6,13.4-1.22,20.11-1.8c1.95-0.17,3.87-0.33,5.71-0.48" class="grey" /><path d="M47.55,86.96C57.5,86.5,74.5,84.5,85.8,84.43" class="grey" /><path d="M23.41,23c1.08,0.43,1.73,1.95,1.95,2.82c0.22,0.87-0.5,61.52-0.72,66.93" class="stroke" stroke-dasharray="150"><animate attributeName="stroke-dashoffset" from="150" to="0" dur="1.8s" begin="0.0s" fill="freeze" /></path><path d="M46.25,23.55c0.63,1.52,1.26,2.28,1.26,4.31c0,2.03-0.71,61.36-0.5,63.39" class="stroke" stroke-dasharray="150"><set attributeName="opacity" to="0" dur="1.7s" /><animate attributeName="stroke-dashoffset" from="150" to="0" dur="1.8s" begin="1.7s" fill="freeze" /></path><path d="M47.55,25.8c3.54-0.25,32.01-3.25,35.24-3.55c2.69-0.25,3.92,1.81,3.71,3.31c-0.42,3.05-0.83,62.15-0.83,63.67" class="stroke" stroke-dasharray="150"><set attributeName="opacity" to="0" dur="3.2s" /><animate attributeName="stroke-dashoffset" from="150" to="0" dur="1.8s" begin="3.2s" fill="freeze" /></path><path d="M47.68,55.24c6.7-0.6,13.4-1.22,20.11-1.8c1.95-0.17,3.87-0.33,5.71-0.48" class="stroke" stroke-dasharray="150"><set attributeName="opacity" to="0" dur="5.1s" /><animate attributeName="stroke-dashoffset" from="150" to="0" dur="1.8s" begin="5.1s" fill="freeze" /></path><path d="M47.55,86.96C57.5,86.5,74.5,84.5,85.8,84.43" class="stroke" stroke-dasharray="150"><set attributeName="opacity" to="0" dur="6.1s" /><animate attributeName="stroke-dashoffset" from="150" to="0" dur="1.8s" begin="6.1s" fill="freeze" /></path><text x="90" y="120" id="reset-kvg-065e7-Kaisho">⟳</text><text x="70" y="120" id="pause-kvg-065e7-Kaisho">◼</text><script type="text/javascript"><![CDATA[function RecurringTimer(e,t){var n,r,i=t;this.pause=function(){window.clearTimeout(n);i-=new Date-r};var s=function(){r=new Date;n=window.setTimeout(function(){i=t;s();e()},i)};this.clear=function(){window.clearTimeout(n);i=t;n=window.setTimeout(function(){i=t;s();e()},i)};this.resume=s;this.resume()}function invoketimer(){timer=new RecurringTimer(function(){svg.setCurrentTime(0)},8100.0)}var svg=document.getElementById("kvg-065e7-Kaisho");var pause=document.getElementById("pause-kvg-065e7-Kaisho");var reset=document.getElementById("reset-kvg-065e7-Kaisho");var timer;invoketimer();reset.onclick=function(){svg.setCurrentTime(0);timer.clear();svg.unpauseAnimations();pause.innerHTML = "◼";};pause.onclick=function(){if(svg.animationsPaused()){svg.unpauseAnimations();timer.resume();pause.innerHTML="◼"}else{svg.pauseAnimations();timer.pause();pause.innerHTML="▶"}}]]></script></svg>