<svg id="kvg-06614-Kaisho" class="kanjivg" width="106" height="126" xmlns="http://www.w3.org/2000/svg" xmlns:xlink="http://www.w3.org/1999/xlink" xml:space="preserve" version="1.1" baseProfile="full"><defs><style type="text/css"><![CDATA[path.black{fill:none;stroke:black;stroke-width:5;stroke-linecap:round;stroke-linejoin:round;}path.grey{fill:none;stroke:#ddd;stroke-width:5;stroke-linecap:round;stroke-linejoin:round;}path.stroke{fill:none;stroke:black;stroke-width:5;stroke-linecap:round;stroke-linejoin:round;}rect{fill:none;stroke:#555;stroke-width:2;} text{font-size:16px;font-family:Segoe UI Symbol,Cambria Math,DejaVu Sans,Symbola,Quivira,STIX,Code2000;-webkit-touch-callout:none;cursor:pointer;-webkit-user-select:none;-khtml-user-select:none;-moz-user-select:none;-ms-user-select:none;user-select: none;}text:hover{color:#777;}#reset{font-weight:bold;}]]></style><marker id="markerStart" markerWidth="8" markerHeight="8" style="overflow:visible;"><circle cx="0" cy="0" r="1.5" style="stroke:none;fill:red;fill-opacity:0.5;"/></marker><marker id="markerEnd" style="overflow:visible;"><circle cx="0" cy="0" r="0.8" style="stroke:none;fill:blue;fill-opacity:0.5;"><animate attributeName="opacity" from="1" to="0" dur="3s" repeatCount="indefinite" /></circle></marker></defs><rect x="4" y="4" width="100" height="100" /><path d="M29.75,31.39c0.94,0.38,2.66,0.49,3.6,0.38C39.33,31.11,69,28,76.46,27.89c1.56-0.02,2.5,0.18,3.29,0.37" class="grey" /><path d="M40.37,18.75c1.09,0.5,1.74,2.25,1.96,3.25c0.22,1,0.42,16.25,1.17,25.75" class="grey" /><path d="M66.37,13.25c1.09,0.5,1.74,2.25,1.96,3.25c0.22,1-2.83,19-4.33,29.25" class="grey" /><path d="M14.25,50.2c1.52,0.54,4.31,0.72,5.82,0.54C34.5,49,71.75,45.25,90.19,45.01c2.53-0.03,4.05,0.26,5.31,0.53" class="grey" /><path d="M37.02,60.64c0.45,0.83,1.4,2.25,1.4,3.36c0,1.11-0.3,30.53-0.3,31.08c0,0.55,0.15,0.55,0.3,1.67" class="grey" /><path d="M39.17,61.78c2.54-0.14,28.22-2.37,30.54-2.54c1.93-0.14,3.17,1.54,3.02,2.36c-0.3,1.67-0.45,19.15-0.45,31.36c0,1.26-0.15,1.8-0.15,2.64" class="grey" /><path d="M39.61,76.81c5.18,0,10.41-0.62,15.57-0.99c1.74-0.12,3.48-0.25,5.14-0.36" class="grey" /><path d="M39.46,93.63c7-0.6,22.89-1.19,31.61-1.7" class="grey" /><path d="M29.75,31.39c0.94,0.38,2.66,0.49,3.6,0.38C39.33,31.11,69,28,76.46,27.89c1.56-0.02,2.5,0.18,3.29,0.37" class="stroke" stroke-dasharray="150"><animate attributeName="stroke-dashoffset" from="150" to="0" dur="1.8s" begin="0.0s" fill="freeze" /></path><path d="M40.37,18.75c1.09,0.5,1.74,2.25,1.96,3.25c0.22,1,0.42,16.25,1.17,25.75" class="stroke" stroke-dasharray="150"><set attributeName="opacity" to="0" dur="1.3s" /><animate attributeName="stroke-dashoffset" from="150" to="0" dur="1.8s" begin="1.3s" fill="freeze" /></path><path d="M66.37,13.25c1.09,0.5,1.74,2.25,1.96,3.25c0.22,1-2.83,19-4.33,29.25" class="stroke" stroke-dasharray="150"><set attributeName="opacity" to="0" dur="2.3s" /><animate attributeName="stroke-dashoffset" from="150" to="0" dur="1.8s" begin="2.3s" fill="freeze" /></path><path d="M14.25,50.2c1.52,0.54,4.31,0.72,5.82,0.54C34.5,49,71.75,45.25,90.19,45.01c2.53-0.03,4.05,0.26,5.31,0.53" class="stroke" stroke-dasharray="150"><set attributeName="opacity" to="0" dur="3.3s" /><animate attributeName="stroke-dashoffset" from="150" to="0" dur="1.8s" begin="3.3s" fill="freeze" /></path><path d="M37.02,60.64c0.45,0.83,1.4,2.25,1.4,3.36c0,1.11-0.3,30.53-0.3,31.08c0,0.55,0.15,0.55,0.3,1.67" class="stroke" stroke-dasharray="150"><set attributeName="opacity" to="0" dur="5.0s" /><animate attributeName="stroke-dashoffset" from="150" to="0" dur="1.8s" begin="5.0s" fill="freeze" /></path><path d="M39.17,61.78c2.54-0.14,28.22-2.37,30.54-2.54c1.93-0.14,3.17,1.54,3.02,2.36c-0.3,1.67-0.45,19.15-0.45,31.36c0,1.26-0.15,1.8-0.15,2.64" class="stroke" stroke-dasharray="150"><set attributeName="opacity" to="0" dur="6.0s" /><animate attributeName="stroke-dashoffset" from="150" to="0" dur="1.8s" begin="6.0s" fill="freeze" /></path><path d="M39.61,76.81c5.18,0,10.41-0.62,15.57-0.99c1.74-0.12,3.48-0.25,5.14-0.36" class="stroke" stroke-dasharray="150"><set attributeName="opacity" to="0" dur="7.5s" /><animate attributeName="stroke-dashoffset" from="150" to="0" dur="1.8s" begin="7.5s" fill="freeze" /></path><path d="M39.46,93.63c7-0.6,22.89-1.19,31.61-1.7" class="stroke" stroke-dasharray="150"><set attributeName="opacity" to="0" dur="8.5s" /><animate attributeName="stroke-dashoffset" from="150" to="0" dur="1.8s" begin="8.5s" fill="freeze" /></path><text x="90" y="120" id="reset-kvg-06614-Kaisho">⟳</text><text x="70" y="120" id="pause-kvg-06614-Kaisho">◼</text><script type="text/javascript"><![CDATA[function RecurringTimer(e,t){var n,r,i=t;this.pause=function(){window.clearTimeout(n);i-=new Date-r};var s=function(){r=new Date;n=window.setTimeout(function(){i=t;s();e()},i)};this.clear=function(){window.clearTimeout(n);i=t;n=window.setTimeout(function(){i=t;s();e()},i)};this.resume=s;this.resume()}function invoketimer(){timer=new RecurringTimer(function(){svg.setCurrentTime(0)},10500.0)}var svg=document.getElementById("kvg-06614-Kaisho");var pause=document.getElementById("pause-kvg-06614-Kaisho");var reset=document.getElementById("reset-kvg-06614-Kaisho");var timer;invoketimer();reset.onclick=function(){svg.setCurrentTime(0);timer.clear();svg.unpauseAnimations();pause.innerHTML = "◼";};pause.onclick=function(){if(svg.animationsPaused()){svg.unpauseAnimations();timer.resume();pause.innerHTML="◼"}else{svg.pauseAnimations();timer.pause();pause.innerHTML="▶"}}]]></script></svg>