<svg id="kvg-06662-Kaisho" class="kanjivg" width="106" height="126" xmlns="http://www.w3.org/2000/svg" xmlns:xlink="http://www.w3.org/1999/xlink" xml:space="preserve" version="1.1" baseProfile="full"><defs><style type="text/css"><![CDATA[path.black{fill:none;stroke:black;stroke-width:5;stroke-linecap:round;stroke-linejoin:round;}path.grey{fill:none;stroke:#ddd;stroke-width:5;stroke-linecap:round;stroke-linejoin:round;}path.stroke{fill:none;stroke:black;stroke-width:5;stroke-linecap:round;stroke-linejoin:round;}rect{fill:none;stroke:#555;stroke-width:2;} text{font-size:16px;font-family:Segoe UI Symbol,Cambria Math,DejaVu Sans,Symbola,Quivira,STIX,Code2000;-webkit-touch-callout:none;cursor:pointer;-webkit-user-select:none;-khtml-user-select:none;-moz-user-select:none;-ms-user-select:none;user-select: none;}text:hover{color:#777;}#reset{font-weight:bold;}]]></style><marker id="markerStart" markerWidth="8" markerHeight="8" style="overflow:visible;"><circle cx="0" cy="0" r="1.5" style="stroke:none;fill:red;fill-opacity:0.5;"/></marker><marker id="markerEnd" style="overflow:visible;"><circle cx="0" cy="0" r="0.8" style="stroke:none;fill:blue;fill-opacity:0.5;"><animate attributeName="opacity" from="1" to="0" dur="3s" repeatCount="indefinite" /></circle></marker></defs><rect x="4" y="4" width="100" height="100" /><path d="M15,27.66c2.22,0.14,1.33,0.14,3.73,0.14c4.54,0,18.66-1.82,28.43-2.9" class="grey" /><path d="M31.16,11.33c0.46,0.73,1.59,1.97,1.67,4.37c0.38,11.53-0.24,39.09-0.24,43.02c0,10.13-5.89,1.98-7.32,0.99" class="grey" /><path d="M13.5,45.93c1.49,0.73,2.48,1.11,4.71,0.36c1.74-0.58,18.13-7.31,25.29-10.48" class="grey" /><path d="M80.19,11.22c0.06,0.33,0.22,0.94-0.12,1.31c-4.25,4.59-10.51,8.8-21.57,12.51" class="grey" /><path d="M55.89,24.37c0.64,1.17,0.98,1.94,0.98,3.22c0,19.25-2.09,29.36-9.36,35.43" class="grey" /><path d="M59.75,33.94c0.42,0.14,2.83,0.21,3.95,0.06c6.16-0.86,19.88-2.58,26.32-3.54c1.11-0.16,3.07-0.14,3.78,0" class="grey" /><path d="M75.81,34.88c0.91,0.43,1.45,1.94,1.63,2.81c0.18,0.86,0,19.91-0.18,25.31" class="grey" /><path d="M34,70.84c0.36,0.48,0.72,0.87,0.88,1.47c1.24,4.72,2.71,18.23,3.56,26.7" class="grey" /><path d="M35.91,73.01C48.5,72,65.18,70.36,72.74,69.74c2.76-0.23,4.21,1.27,4.03,2.67C75.92,78.8,74.5,90.5,72.94,98.4" class="grey" /><path d="M37.32,85c5.79-0.46,11.58-1.01,17.37-1.5c1.63-0.14,3.27-0.27,4.93-0.41" class="grey" /><path d="M38.77,97.14c8.88-0.7,21.43-0.99,33.62-2.07" class="grey" /><path d="M15,27.66c2.22,0.14,1.33,0.14,3.73,0.14c4.54,0,18.66-1.82,28.43-2.9" class="stroke" stroke-dasharray="150"><animate attributeName="stroke-dashoffset" from="150" to="0" dur="1.8s" begin="0.0s" fill="freeze" /></path><path d="M31.16,11.33c0.46,0.73,1.59,1.97,1.67,4.37c0.38,11.53-0.24,39.09-0.24,43.02c0,10.13-5.89,1.98-7.32,0.99" class="stroke" stroke-dasharray="150"><set attributeName="opacity" to="0" dur="1.0s" /><animate attributeName="stroke-dashoffset" from="150" to="0" dur="1.8s" begin="1.0s" fill="freeze" /></path><path d="M13.5,45.93c1.49,0.73,2.48,1.11,4.71,0.36c1.74-0.58,18.13-7.31,25.29-10.48" class="stroke" stroke-dasharray="150"><set attributeName="opacity" to="0" dur="2.5s" /><animate attributeName="stroke-dashoffset" from="150" to="0" dur="1.8s" begin="2.5s" fill="freeze" /></path><path d="M80.19,11.22c0.06,0.33,0.22,0.94-0.12,1.31c-4.25,4.59-10.51,8.8-21.57,12.51" class="stroke" stroke-dasharray="150"><set attributeName="opacity" to="0" dur="3.5s" /><animate attributeName="stroke-dashoffset" from="150" to="0" dur="1.8s" begin="3.5s" fill="freeze" /></path><path d="M55.89,24.37c0.64,1.17,0.98,1.94,0.98,3.22c0,19.25-2.09,29.36-9.36,35.43" class="stroke" stroke-dasharray="150"><set attributeName="opacity" to="0" dur="4.5s" /><animate attributeName="stroke-dashoffset" from="150" to="0" dur="1.8s" begin="4.5s" fill="freeze" /></path><path d="M59.75,33.94c0.42,0.14,2.83,0.21,3.95,0.06c6.16-0.86,19.88-2.58,26.32-3.54c1.11-0.16,3.07-0.14,3.78,0" class="stroke" stroke-dasharray="150"><set attributeName="opacity" to="0" dur="5.6s" /><animate attributeName="stroke-dashoffset" from="150" to="0" dur="1.8s" begin="5.6s" fill="freeze" /></path><path d="M75.81,34.88c0.91,0.43,1.45,1.94,1.63,2.81c0.18,0.86,0,19.91-0.18,25.31" class="stroke" stroke-dasharray="150"><set attributeName="opacity" to="0" dur="6.6s" /><animate attributeName="stroke-dashoffset" from="150" to="0" dur="1.8s" begin="6.6s" fill="freeze" /></path><path d="M34,70.84c0.36,0.48,0.72,0.87,0.88,1.47c1.24,4.72,2.71,18.23,3.56,26.7" class="stroke" stroke-dasharray="150"><set attributeName="opacity" to="0" dur="7.6s" /><animate attributeName="stroke-dashoffset" from="150" to="0" dur="1.8s" begin="7.6s" fill="freeze" /></path><path d="M35.91,73.01C48.5,72,65.18,70.36,72.74,69.74c2.76-0.23,4.21,1.27,4.03,2.67C75.92,78.8,74.5,90.5,72.94,98.4" class="stroke" stroke-dasharray="150"><set attributeName="opacity" to="0" dur="8.6s" /><animate attributeName="stroke-dashoffset" from="150" to="0" dur="1.8s" begin="8.6s" fill="freeze" /></path><path d="M37.32,85c5.79-0.46,11.58-1.01,17.37-1.5c1.63-0.14,3.27-0.27,4.93-0.41" class="stroke" stroke-dasharray="150"><set attributeName="opacity" to="0" dur="10.1s" /><animate attributeName="stroke-dashoffset" from="150" to="0" dur="1.8s" begin="10.1s" fill="freeze" /></path><path d="M38.77,97.14c8.88-0.7,21.43-0.99,33.62-2.07" class="stroke" stroke-dasharray="150"><set attributeName="opacity" to="0" dur="11.1s" /><animate attributeName="stroke-dashoffset" from="150" to="0" dur="1.8s" begin="11.1s" fill="freeze" /></path><text x="90" y="120" id="reset-kvg-06662-Kaisho">⟳</text><text x="70" y="120" id="pause-kvg-06662-Kaisho">◼</text><script type="text/javascript"><![CDATA[function RecurringTimer(e,t){var n,r,i=t;this.pause=function(){window.clearTimeout(n);i-=new Date-r};var s=function(){r=new Date;n=window.setTimeout(function(){i=t;s();e()},i)};this.clear=function(){window.clearTimeout(n);i=t;n=window.setTimeout(function(){i=t;s();e()},i)};this.resume=s;this.resume()}function invoketimer(){timer=new RecurringTimer(function(){svg.setCurrentTime(0)},13100.0)}var svg=document.getElementById("kvg-06662-Kaisho");var pause=document.getElementById("pause-kvg-06662-Kaisho");var reset=document.getElementById("reset-kvg-06662-Kaisho");var timer;invoketimer();reset.onclick=function(){svg.setCurrentTime(0);timer.clear();svg.unpauseAnimations();pause.innerHTML = "◼";};pause.onclick=function(){if(svg.animationsPaused()){svg.unpauseAnimations();timer.resume();pause.innerHTML="◼"}else{svg.pauseAnimations();timer.pause();pause.innerHTML="▶"}}]]></script></svg>