<svg id="kvg-06689-Kaisho" class="kanjivg" width="106" height="126" xmlns="http://www.w3.org/2000/svg" xmlns:xlink="http://www.w3.org/1999/xlink" xml:space="preserve" version="1.1" baseProfile="full"><defs><style type="text/css"><![CDATA[path.black{fill:none;stroke:black;stroke-width:5;stroke-linecap:round;stroke-linejoin:round;}path.grey{fill:none;stroke:#ddd;stroke-width:5;stroke-linecap:round;stroke-linejoin:round;}path.stroke{fill:none;stroke:black;stroke-width:5;stroke-linecap:round;stroke-linejoin:round;}rect{fill:none;stroke:#555;stroke-width:2;} text{font-size:16px;font-family:Segoe UI Symbol,Cambria Math,DejaVu Sans,Symbola,Quivira,STIX,Code2000;-webkit-touch-callout:none;cursor:pointer;-webkit-user-select:none;-khtml-user-select:none;-moz-user-select:none;-ms-user-select:none;user-select: none;}text:hover{color:#777;}#reset{font-weight:bold;}]]></style><marker id="markerStart" markerWidth="8" markerHeight="8" style="overflow:visible;"><circle cx="0" cy="0" r="1.5" style="stroke:none;fill:red;fill-opacity:0.5;"/></marker><marker id="markerEnd" style="overflow:visible;"><circle cx="0" cy="0" r="0.8" style="stroke:none;fill:blue;fill-opacity:0.5;"><animate attributeName="opacity" from="1" to="0" dur="3s" repeatCount="indefinite" /></circle></marker></defs><rect x="4" y="4" width="100" height="100" /><path d="M12.02,22.19c0.38,0.78,0.76,1.68,0.76,2.72c0,1.04-0.13,49.29,0,50.34" class="grey" /><path d="M13.41,23.89c4.94-1.09,11.75-2.12,15.51-2.89c1.6-0.33,2.55,1.46,2.55,2.26c0,4.11-0.5,44.11-0.5,51.47" class="grey" /><path d="M12.81,46.97c3.14-0.36,6.29-0.68,9.44-0.98c0.76-0.07,1.51-0.15,2.26-0.22" class="grey" /><path d="M13.17,73.29c5.91-0.57,10.28-1.09,17.4-1.58" class="grey" /><path d="M42.43,13.97c-0.11,3.63-2.8,13.12-3.76,15.28" class="grey" /><path d="M42.24,16.08c6.43-0.67,34.13-3.62,46.85-3.62c10.91,0,1,8.15-0.19,9.29" class="grey" /><path d="M46.39,32.45c0.97,0.37,2.75,0.46,3.72,0.37C59.5,32,73,30,83.96,29.53c1.62-0.07,2.59,0.18,3.4,0.36" class="grey" /><path d="M43.82,42.83c0.69,0.48,1.58,2.35,1.71,2.98c0.94,4.59,2.08,14.41,3.4,23.1" class="grey" /><path d="M46.49,44.57c10.58-0.92,32.69-3.67,39.9-3.81c2.99-0.06,3.6,1.26,3.47,2.7c-0.44,4.95-1.52,14.56-3.89,22.67" class="grey" /><path d="M47.99,55.53c8.27-0.24,16.53-1.22,24.76-1.93c0.96-0.08,1.91-0.16,2.86-0.24" class="grey" /><path d="M48.99,66.98c9.27-0.95,24.93-3.32,36.99-3.32" class="grey" /><path d="M37.25,79.24c1.19,0.46,3.35,0.52,4.56,0.46C56.5,79,77.5,76.75,94.33,76.19c1.98-0.07,3.17,0.22,4.17,0.45" class="grey" /><path d="M64.67,19.88c0.71,0.58,2.22,4.38,2.37,5.54c0.14,1.17-0.09,67.65-0.24,74.96" class="grey" /><path d="M12.02,22.19c0.38,0.78,0.76,1.68,0.76,2.72c0,1.04-0.13,49.29,0,50.34" class="stroke" stroke-dasharray="150"><animate attributeName="stroke-dashoffset" from="150" to="0" dur="1.8s" begin="0.0s" fill="freeze" /></path><path d="M13.41,23.89c4.94-1.09,11.75-2.12,15.51-2.89c1.6-0.33,2.55,1.46,2.55,2.26c0,4.11-0.5,44.11-0.5,51.47" class="stroke" stroke-dasharray="150"><set attributeName="opacity" to="0" dur="1.3s" /><animate attributeName="stroke-dashoffset" from="150" to="0" dur="1.8s" begin="1.3s" fill="freeze" /></path><path d="M12.81,46.97c3.14-0.36,6.29-0.68,9.44-0.98c0.76-0.07,1.51-0.15,2.26-0.22" class="stroke" stroke-dasharray="150"><set attributeName="opacity" to="0" dur="3.0s" /><animate attributeName="stroke-dashoffset" from="150" to="0" dur="1.8s" begin="3.0s" fill="freeze" /></path><path d="M13.17,73.29c5.91-0.57,10.28-1.09,17.4-1.58" class="stroke" stroke-dasharray="150"><set attributeName="opacity" to="0" dur="3.9s" /><animate attributeName="stroke-dashoffset" from="150" to="0" dur="1.8s" begin="3.9s" fill="freeze" /></path><path d="M42.43,13.97c-0.11,3.63-2.8,13.12-3.76,15.28" class="stroke" stroke-dasharray="150"><set attributeName="opacity" to="0" dur="4.8s" /><animate attributeName="stroke-dashoffset" from="150" to="0" dur="1.8s" begin="4.8s" fill="freeze" /></path><path d="M42.24,16.08c6.43-0.67,34.13-3.62,46.85-3.62c10.91,0,1,8.15-0.19,9.29" class="stroke" stroke-dasharray="150"><set attributeName="opacity" to="0" dur="5.7s" /><animate attributeName="stroke-dashoffset" from="150" to="0" dur="1.8s" begin="5.7s" fill="freeze" /></path><path d="M46.39,32.45c0.97,0.37,2.75,0.46,3.72,0.37C59.5,32,73,30,83.96,29.53c1.62-0.07,2.59,0.18,3.4,0.36" class="stroke" stroke-dasharray="150"><set attributeName="opacity" to="0" dur="7.2s" /><animate attributeName="stroke-dashoffset" from="150" to="0" dur="1.8s" begin="7.2s" fill="freeze" /></path><path d="M43.82,42.83c0.69,0.48,1.58,2.35,1.71,2.98c0.94,4.59,2.08,14.41,3.4,23.1" class="stroke" stroke-dasharray="150"><set attributeName="opacity" to="0" dur="8.3s" /><animate attributeName="stroke-dashoffset" from="150" to="0" dur="1.8s" begin="8.3s" fill="freeze" /></path><path d="M46.49,44.57c10.58-0.92,32.69-3.67,39.9-3.81c2.99-0.06,3.6,1.26,3.47,2.7c-0.44,4.95-1.52,14.56-3.89,22.67" class="stroke" stroke-dasharray="150"><set attributeName="opacity" to="0" dur="9.3s" /><animate attributeName="stroke-dashoffset" from="150" to="0" dur="1.8s" begin="9.3s" fill="freeze" /></path><path d="M47.99,55.53c8.27-0.24,16.53-1.22,24.76-1.93c0.96-0.08,1.91-0.16,2.86-0.24" class="stroke" stroke-dasharray="150"><set attributeName="opacity" to="0" dur="10.8s" /><animate attributeName="stroke-dashoffset" from="150" to="0" dur="1.8s" begin="10.8s" fill="freeze" /></path><path d="M48.99,66.98c9.27-0.95,24.93-3.32,36.99-3.32" class="stroke" stroke-dasharray="150"><set attributeName="opacity" to="0" dur="11.8s" /><animate attributeName="stroke-dashoffset" from="150" to="0" dur="1.8s" begin="11.8s" fill="freeze" /></path><path d="M37.25,79.24c1.19,0.46,3.35,0.52,4.56,0.46C56.5,79,77.5,76.75,94.33,76.19c1.98-0.07,3.17,0.22,4.17,0.45" class="stroke" stroke-dasharray="150"><set attributeName="opacity" to="0" dur="12.8s" /><animate attributeName="stroke-dashoffset" from="150" to="0" dur="1.8s" begin="12.8s" fill="freeze" /></path><path d="M64.67,19.88c0.71,0.58,2.22,4.38,2.37,5.54c0.14,1.17-0.09,67.65-0.24,74.96" class="stroke" stroke-dasharray="150"><set attributeName="opacity" to="0" dur="14.3s" /><animate attributeName="stroke-dashoffset" from="150" to="0" dur="1.8s" begin="14.3s" fill="freeze" /></path><text x="90" y="120" id="reset-kvg-06689-Kaisho">⟳</text><text x="70" y="120" id="pause-kvg-06689-Kaisho">◼</text><script type="text/javascript"><![CDATA[function RecurringTimer(e,t){var n,r,i=t;this.pause=function(){window.clearTimeout(n);i-=new Date-r};var s=function(){r=new Date;n=window.setTimeout(function(){i=t;s();e()},i)};this.clear=function(){window.clearTimeout(n);i=t;n=window.setTimeout(function(){i=t;s();e()},i)};this.resume=s;this.resume()}function invoketimer(){timer=new RecurringTimer(function(){svg.setCurrentTime(0)},17000.0)}var svg=document.getElementById("kvg-06689-Kaisho");var pause=document.getElementById("pause-kvg-06689-Kaisho");var reset=document.getElementById("reset-kvg-06689-Kaisho");var timer;invoketimer();reset.onclick=function(){svg.setCurrentTime(0);timer.clear();svg.unpauseAnimations();pause.innerHTML = "◼";};pause.onclick=function(){if(svg.animationsPaused()){svg.unpauseAnimations();timer.resume();pause.innerHTML="◼"}else{svg.pauseAnimations();timer.pause();pause.innerHTML="▶"}}]]></script></svg>