<svg id="kvg-066c4-Kaisho" class="kanjivg" width="106" height="126" xmlns="http://www.w3.org/2000/svg" xmlns:xlink="http://www.w3.org/1999/xlink" xml:space="preserve" version="1.1" baseProfile="full"><defs><style type="text/css"><![CDATA[path.black{fill:none;stroke:black;stroke-width:5;stroke-linecap:round;stroke-linejoin:round;}path.grey{fill:none;stroke:#ddd;stroke-width:5;stroke-linecap:round;stroke-linejoin:round;}path.stroke{fill:none;stroke:black;stroke-width:5;stroke-linecap:round;stroke-linejoin:round;}rect{fill:none;stroke:#555;stroke-width:2;} text{font-size:16px;font-family:Segoe UI Symbol,Cambria Math,DejaVu Sans,Symbola,Quivira,STIX,Code2000;-webkit-touch-callout:none;cursor:pointer;-webkit-user-select:none;-khtml-user-select:none;-moz-user-select:none;-ms-user-select:none;user-select: none;}text:hover{color:#777;}#reset{font-weight:bold;}]]></style><marker id="markerStart" markerWidth="8" markerHeight="8" style="overflow:visible;"><circle cx="0" cy="0" r="1.5" style="stroke:none;fill:red;fill-opacity:0.5;"/></marker><marker id="markerEnd" style="overflow:visible;"><circle cx="0" cy="0" r="0.8" style="stroke:none;fill:blue;fill-opacity:0.5;"><animate attributeName="opacity" from="1" to="0" dur="3s" repeatCount="indefinite" /></circle></marker></defs><rect x="4" y="4" width="100" height="100" /><path d="M14.27,21c0.32,0.81,0.65,1.74,0.65,2.82c0,1.08-0.11,51.09,0,52.17" class="grey" /><path d="M15.45,22.69c4.8-0.69,10.88-1.67,14.09-2.45c1.37-0.33,2.18,1.49,2.18,2.3c0,4.18-0.43,44.37-0.43,51.86" class="grey" /><path d="M14.94,46.18c2.82-0.38,5.65-0.7,8.49-1c0.7-0.08,1.4-0.15,2.09-0.22" class="grey" /><path d="M15.25,72.96c5.05-0.58,9.63-1.12,15.7-1.62" class="grey" /><path d="M39.52,20.95c1.06,0.41,3.4,0.49,4.46,0.41c9.78-0.75,34.42-2.96,45.69-3.02c1.77-0.01,3.38,0.19,4.27,0.4" class="grey" /><path d="M51.79,10.68c1.1,1.12,1.52,1.45,1.57,2.14c0.39,4.93,1.54,13.04,1.86,15.38" class="grey" /><path d="M76.47,8.63c0.46,1.09,1.39,2.31,1.08,3.69c-1.08,4.85-1.35,7.66-2.69,14.58" class="grey" /><path d="M40.75,33.96c1.36,0.52,2.94,0.64,4.3,0.52c8.86-0.78,27.31-1.79,41.99-2.79c2.26-0.15,3.62,0.25,4.75,0.51" class="grey" /><path d="M34.85,51.18c1.67,0.56,4.73,0.71,6.4,0.56c17.79-1.55,32.19-3.37,50.81-3.36c2.78,0,4.45,0.27,5.84,0.55" class="grey" /><path d="M46.59,40.37c1.5,1.24,2.11,1.61,2.14,2.39C49,49.5,49.5,56,50.04,61.32" class="grey" /><path d="M83.2,37.71c0.34,1.19,0.97,2.5,0.81,4.06c-0.67,6.34-1.01,9.6-2.02,17.21" class="grey" /><path d="M42.35,67.17c1.35,0.52,2.91,0.54,4.27,0.52c12.13-0.19,31.99-2.3,40.95-2.27c2.25,0.01,3.6,0.25,4.72,0.51" class="grey" /><path d="M36.54,80.39c1.59,0.5,3.43,0.6,5.02,0.5c9.55-0.66,32.58-2.19,49.74-3.15c2.63-0.15,4.23,0.24,5.55,0.48" class="grey" /><path d="M63.43,35.64c1.2,0.52,1.92,2.34,2.16,3.37c0.24,1.04,0,53.75-0.24,60.24" class="grey" /><path d="M14.27,21c0.32,0.81,0.65,1.74,0.65,2.82c0,1.08-0.11,51.09,0,52.17" class="stroke" stroke-dasharray="150"><animate attributeName="stroke-dashoffset" from="150" to="0" dur="1.8s" begin="0.0s" fill="freeze" /></path><path d="M15.45,22.69c4.8-0.69,10.88-1.67,14.09-2.45c1.37-0.33,2.18,1.49,2.18,2.3c0,4.18-0.43,44.37-0.43,51.86" class="stroke" stroke-dasharray="150"><set attributeName="opacity" to="0" dur="1.4s" /><animate attributeName="stroke-dashoffset" from="150" to="0" dur="1.8s" begin="1.4s" fill="freeze" /></path><path d="M14.94,46.18c2.82-0.38,5.65-0.7,8.49-1c0.7-0.08,1.4-0.15,2.09-0.22" class="stroke" stroke-dasharray="150"><set attributeName="opacity" to="0" dur="2.9s" /><animate attributeName="stroke-dashoffset" from="150" to="0" dur="1.8s" begin="2.9s" fill="freeze" /></path><path d="M15.25,72.96c5.05-0.58,9.63-1.12,15.7-1.62" class="stroke" stroke-dasharray="150"><set attributeName="opacity" to="0" dur="3.8s" /><animate attributeName="stroke-dashoffset" from="150" to="0" dur="1.8s" begin="3.8s" fill="freeze" /></path><path d="M39.52,20.95c1.06,0.41,3.4,0.49,4.46,0.41c9.78-0.75,34.42-2.96,45.69-3.02c1.77-0.01,3.38,0.19,4.27,0.4" class="stroke" stroke-dasharray="150"><set attributeName="opacity" to="0" dur="4.7s" /><animate attributeName="stroke-dashoffset" from="150" to="0" dur="1.8s" begin="4.7s" fill="freeze" /></path><path d="M51.79,10.68c1.1,1.12,1.52,1.45,1.57,2.14c0.39,4.93,1.54,13.04,1.86,15.38" class="stroke" stroke-dasharray="150"><set attributeName="opacity" to="0" dur="6.0s" /><animate attributeName="stroke-dashoffset" from="150" to="0" dur="1.8s" begin="6.0s" fill="freeze" /></path><path d="M76.47,8.63c0.46,1.09,1.39,2.31,1.08,3.69c-1.08,4.85-1.35,7.66-2.69,14.58" class="stroke" stroke-dasharray="150"><set attributeName="opacity" to="0" dur="6.9s" /><animate attributeName="stroke-dashoffset" from="150" to="0" dur="1.8s" begin="6.9s" fill="freeze" /></path><path d="M40.75,33.96c1.36,0.52,2.94,0.64,4.3,0.52c8.86-0.78,27.31-1.79,41.99-2.79c2.26-0.15,3.62,0.25,4.75,0.51" class="stroke" stroke-dasharray="150"><set attributeName="opacity" to="0" dur="7.800000000000001s" /><animate attributeName="stroke-dashoffset" from="150" to="0" dur="1.8s" begin="7.800000000000001s" fill="freeze" /></path><path d="M34.85,51.18c1.67,0.56,4.73,0.71,6.4,0.56c17.79-1.55,32.19-3.37,50.81-3.36c2.78,0,4.45,0.27,5.84,0.55" class="stroke" stroke-dasharray="150"><set attributeName="opacity" to="0" dur="9.100000000000001s" /><animate attributeName="stroke-dashoffset" from="150" to="0" dur="1.8s" begin="9.100000000000001s" fill="freeze" /></path><path d="M46.59,40.37c1.5,1.24,2.11,1.61,2.14,2.39C49,49.5,49.5,56,50.04,61.32" class="stroke" stroke-dasharray="150"><set attributeName="opacity" to="0" dur="10.600000000000001s" /><animate attributeName="stroke-dashoffset" from="150" to="0" dur="1.8s" begin="10.600000000000001s" fill="freeze" /></path><path d="M83.2,37.71c0.34,1.19,0.97,2.5,0.81,4.06c-0.67,6.34-1.01,9.6-2.02,17.21" class="stroke" stroke-dasharray="150"><set attributeName="opacity" to="0" dur="11.600000000000001s" /><animate attributeName="stroke-dashoffset" from="150" to="0" dur="1.8s" begin="11.600000000000001s" fill="freeze" /></path><path d="M42.35,67.17c1.35,0.52,2.91,0.54,4.27,0.52c12.13-0.19,31.99-2.3,40.95-2.27c2.25,0.01,3.6,0.25,4.72,0.51" class="stroke" stroke-dasharray="150"><set attributeName="opacity" to="0" dur="12.600000000000001s" /><animate attributeName="stroke-dashoffset" from="150" to="0" dur="1.8s" begin="12.600000000000001s" fill="freeze" /></path><path d="M36.54,80.39c1.59,0.5,3.43,0.6,5.02,0.5c9.55-0.66,32.58-2.19,49.74-3.15c2.63-0.15,4.23,0.24,5.55,0.48" class="stroke" stroke-dasharray="150"><set attributeName="opacity" to="0" dur="13.900000000000002s" /><animate attributeName="stroke-dashoffset" from="150" to="0" dur="1.8s" begin="13.900000000000002s" fill="freeze" /></path><path d="M63.43,35.64c1.2,0.52,1.92,2.34,2.16,3.37c0.24,1.04,0,53.75-0.24,60.24" class="stroke" stroke-dasharray="150"><set attributeName="opacity" to="0" dur="15.400000000000002s" /><animate attributeName="stroke-dashoffset" from="150" to="0" dur="1.8s" begin="15.400000000000002s" fill="freeze" /></path><text x="90" y="120" id="reset-kvg-066c4-Kaisho">⟳</text><text x="70" y="120" id="pause-kvg-066c4-Kaisho">◼</text><script type="text/javascript"><![CDATA[function RecurringTimer(e,t){var n,r,i=t;this.pause=function(){window.clearTimeout(n);i-=new Date-r};var s=function(){r=new Date;n=window.setTimeout(function(){i=t;s();e()},i)};this.clear=function(){window.clearTimeout(n);i=t;n=window.setTimeout(function(){i=t;s();e()},i)};this.resume=s;this.resume()}function invoketimer(){timer=new RecurringTimer(function(){svg.setCurrentTime(0)},17900.000000000004)}var svg=document.getElementById("kvg-066c4-Kaisho");var pause=document.getElementById("pause-kvg-066c4-Kaisho");var reset=document.getElementById("reset-kvg-066c4-Kaisho");var timer;invoketimer();reset.onclick=function(){svg.setCurrentTime(0);timer.clear();svg.unpauseAnimations();pause.innerHTML = "◼";};pause.onclick=function(){if(svg.animationsPaused()){svg.unpauseAnimations();timer.resume();pause.innerHTML="◼"}else{svg.pauseAnimations();timer.pause();pause.innerHTML="▶"}}]]></script></svg>