<svg id="kvg-066e0" class="kanjivg" width="106" height="126" xmlns="http://www.w3.org/2000/svg" xmlns:xlink="http://www.w3.org/1999/xlink" xml:space="preserve" version="1.1" baseProfile="full"><defs><style type="text/css"><![CDATA[path.black{fill:none;stroke:black;stroke-width:5;stroke-linecap:round;stroke-linejoin:round;}path.grey{fill:none;stroke:#ddd;stroke-width:5;stroke-linecap:round;stroke-linejoin:round;}path.stroke{fill:none;stroke:black;stroke-width:5;stroke-linecap:round;stroke-linejoin:round;}rect{fill:none;stroke:#555;stroke-width:2;} text{font-size:16px;font-family:Segoe UI Symbol,Cambria Math,DejaVu Sans,Symbola,Quivira,STIX,Code2000;-webkit-touch-callout:none;cursor:pointer;-webkit-user-select:none;-khtml-user-select:none;-moz-user-select:none;-ms-user-select:none;user-select: none;}text:hover{color:#777;}#reset{font-weight:bold;}]]></style><marker id="markerStart" markerWidth="8" markerHeight="8" style="overflow:visible;"><circle cx="0" cy="0" r="1.5" style="stroke:none;fill:red;fill-opacity:0.5;"/></marker><marker id="markerEnd" style="overflow:visible;"><circle cx="0" cy="0" r="0.8" style="stroke:none;fill:blue;fill-opacity:0.5;"><animate attributeName="opacity" from="1" to="0" dur="3s" repeatCount="indefinite" /></circle></marker></defs><rect x="4" y="4" width="100" height="100" /><path d="M13.27,24.19c0.39,0.78,0.78,1.18,0.78,2.22c0,1.04-0.13,42.29,0,43.34" class="grey" /><path d="M14.69,25.32c2.2-0.13,13.91-1.67,15.92-1.83c1.67-0.13,2.74,1.45,2.61,2.22c-0.26,1.57-0.52,42.73-0.52,43.51" class="grey" /><path d="M15.08,45.48c2.97,0,13.36-1.31,16.72-1.31" class="grey" /><path d="M14.94,66.81c6.06-0.56,9.31-0.56,16.85-1.04" class="grey" /><path d="M66.84,9.88c0.5,0.32,1.57,2.39,1.67,3.02c0.1,0.64,0.05,3.99-0.05,7.98" class="grey" /><path d="M43.68,22.11c1.27,0.46,3.59,0.53,4.86,0.46c13.18-0.76,29.68-2.74,42.45-3.34c2.11-0.1,3.38,0.22,4.43,0.45" class="grey" /><path d="M47.26,23.03c0.24,1.46,0.49,4.08,0.4,6.36c-0.9,21.87-3.9,43.87-16.35,60.36" class="grey" /><path d="M53.13,34.6c0.95,0.29,2.69,0.34,3.64,0.29c11.61-0.63,22.08-2.56,32.6-3.17c1.58-0.09,2.53,0.14,3.32,0.28" class="grey" /><path d="M61.22,27.47c0.38,0.24,1.19,1.78,1.21,2.27c0.11,3.27,0.77,8.04,2.04,14.97" class="grey" /><path d="M79.78,25.12c0.38,0.28,0.83,2.09,0.77,2.65c-0.38,3.43-1.21,7.22-1.84,13.61" class="grey" /><path d="M64.24,42.98c2.49,0,13.34-1.26,16.13-1.26" class="grey" /><path d="M51.57,51.24c1.02,0.43,2.89,0.52,3.9,0.43c9.43-0.87,23.66-2.99,35.14-3.16c1.7-0.03,2.72,0.21,3.56,0.42" class="grey" /><path d="M52.65,60.62c0.55,0.37,1.31,1.97,1.36,2.46c0.35,3.8,2.17,13.25,2.81,20.6" class="grey" /><path d="M54.78,62.24c10.04-1.82,26.51-2.95,32.24-3.05c2.37-0.05,3.24,1.51,3.11,2.58c-0.47,3.92-1.83,11.56-4.33,19.96" class="grey" /><path d="M69.89,51.28c0.53,0.33,0.98,2.01,0.98,2.42c0.01,6.81,0.11,24.84,0.11,26.66" class="grey" /><path d="M56.1,71.26c2.81-0.19,29.74-2.43,32.06-2.43" class="grey" /><path d="M57.59,81.65c8.13-1.36,18.71-1.58,28.27-2.08" class="grey" /><path d="M62,87.17c0.05,0.32,0.11,0.84-0.1,1.3c-1.24,2.75-8.33,7.84-18.03,11.53" class="grey" /><path d="M79.2,86.8c5.22,2.2,13.48,9.05,14.78,12.47" class="grey" /><path d="M13.27,24.19c0.39,0.78,0.78,1.18,0.78,2.22c0,1.04-0.13,42.29,0,43.34" class="stroke" stroke-dasharray="150"><animate attributeName="stroke-dashoffset" from="150" to="0" dur="1.8s" begin="0.0s" fill="freeze" /></path><path d="M14.69,25.32c2.2-0.13,13.91-1.67,15.92-1.83c1.67-0.13,2.74,1.45,2.61,2.22c-0.26,1.57-0.52,42.73-0.52,43.51" class="stroke" stroke-dasharray="150"><set attributeName="opacity" to="0" dur="1.2s" /><animate attributeName="stroke-dashoffset" from="150" to="0" dur="1.8s" begin="1.2s" fill="freeze" /></path><path d="M15.08,45.48c2.97,0,13.36-1.31,16.72-1.31" class="stroke" stroke-dasharray="150"><set attributeName="opacity" to="0" dur="2.7s" /><animate attributeName="stroke-dashoffset" from="150" to="0" dur="1.8s" begin="2.7s" fill="freeze" /></path><path d="M14.94,66.81c6.06-0.56,9.31-0.56,16.85-1.04" class="stroke" stroke-dasharray="150"><set attributeName="opacity" to="0" dur="3.6s" /><animate attributeName="stroke-dashoffset" from="150" to="0" dur="1.8s" begin="3.6s" fill="freeze" /></path><path d="M66.84,9.88c0.5,0.32,1.57,2.39,1.67,3.02c0.1,0.64,0.05,3.99-0.05,7.98" class="stroke" stroke-dasharray="150"><set attributeName="opacity" to="0" dur="4.5s" /><animate attributeName="stroke-dashoffset" from="150" to="0" dur="1.8s" begin="4.5s" fill="freeze" /></path><path d="M43.68,22.11c1.27,0.46,3.59,0.53,4.86,0.46c13.18-0.76,29.68-2.74,42.45-3.34c2.11-0.1,3.38,0.22,4.43,0.45" class="stroke" stroke-dasharray="150"><set attributeName="opacity" to="0" dur="5.4s" /><animate attributeName="stroke-dashoffset" from="150" to="0" dur="1.8s" begin="5.4s" fill="freeze" /></path><path d="M47.26,23.03c0.24,1.46,0.49,4.08,0.4,6.36c-0.9,21.87-3.9,43.87-16.35,60.36" class="stroke" stroke-dasharray="150"><set attributeName="opacity" to="0" dur="6.7s" /><animate attributeName="stroke-dashoffset" from="150" to="0" dur="1.8s" begin="6.7s" fill="freeze" /></path><path d="M53.13,34.6c0.95,0.29,2.69,0.34,3.64,0.29c11.61-0.63,22.08-2.56,32.6-3.17c1.58-0.09,2.53,0.14,3.32,0.28" class="stroke" stroke-dasharray="150"><set attributeName="opacity" to="0" dur="8.2s" /><animate attributeName="stroke-dashoffset" from="150" to="0" dur="1.8s" begin="8.2s" fill="freeze" /></path><path d="M61.22,27.47c0.38,0.24,1.19,1.78,1.21,2.27c0.11,3.27,0.77,8.04,2.04,14.97" class="stroke" stroke-dasharray="150"><set attributeName="opacity" to="0" dur="9.2s" /><animate attributeName="stroke-dashoffset" from="150" to="0" dur="1.8s" begin="9.2s" fill="freeze" /></path><path d="M79.78,25.12c0.38,0.28,0.83,2.09,0.77,2.65c-0.38,3.43-1.21,7.22-1.84,13.61" class="stroke" stroke-dasharray="150"><set attributeName="opacity" to="0" dur="10.1s" /><animate attributeName="stroke-dashoffset" from="150" to="0" dur="1.8s" begin="10.1s" fill="freeze" /></path><path d="M64.24,42.98c2.49,0,13.34-1.26,16.13-1.26" class="stroke" stroke-dasharray="150"><set attributeName="opacity" to="0" dur="11.0s" /><animate attributeName="stroke-dashoffset" from="150" to="0" dur="1.8s" begin="11.0s" fill="freeze" /></path><path d="M51.57,51.24c1.02,0.43,2.89,0.52,3.9,0.43c9.43-0.87,23.66-2.99,35.14-3.16c1.7-0.03,2.72,0.21,3.56,0.42" class="stroke" stroke-dasharray="150"><set attributeName="opacity" to="0" dur="11.9s" /><animate attributeName="stroke-dashoffset" from="150" to="0" dur="1.8s" begin="11.9s" fill="freeze" /></path><path d="M52.65,60.62c0.55,0.37,1.31,1.97,1.36,2.46c0.35,3.8,2.17,13.25,2.81,20.6" class="stroke" stroke-dasharray="150"><set attributeName="opacity" to="0" dur="13.0s" /><animate attributeName="stroke-dashoffset" from="150" to="0" dur="1.8s" begin="13.0s" fill="freeze" /></path><path d="M54.78,62.24c10.04-1.82,26.51-2.95,32.24-3.05c2.37-0.05,3.24,1.51,3.11,2.58c-0.47,3.92-1.83,11.56-4.33,19.96" class="stroke" stroke-dasharray="150"><set attributeName="opacity" to="0" dur="14.0s" /><animate attributeName="stroke-dashoffset" from="150" to="0" dur="1.8s" begin="14.0s" fill="freeze" /></path><path d="M69.89,51.28c0.53,0.33,0.98,2.01,0.98,2.42c0.01,6.81,0.11,24.84,0.11,26.66" class="stroke" stroke-dasharray="150"><set attributeName="opacity" to="0" dur="15.4s" /><animate attributeName="stroke-dashoffset" from="150" to="0" dur="1.8s" begin="15.4s" fill="freeze" /></path><path d="M56.1,71.26c2.81-0.19,29.74-2.43,32.06-2.43" class="stroke" stroke-dasharray="150"><set attributeName="opacity" to="0" dur="16.4s" /><animate attributeName="stroke-dashoffset" from="150" to="0" dur="1.8s" begin="16.4s" fill="freeze" /></path><path d="M57.59,81.65c8.13-1.36,18.71-1.58,28.27-2.08" class="stroke" stroke-dasharray="150"><set attributeName="opacity" to="0" dur="17.4s" /><animate attributeName="stroke-dashoffset" from="150" to="0" dur="1.8s" begin="17.4s" fill="freeze" /></path><path d="M62,87.17c0.05,0.32,0.11,0.84-0.1,1.3c-1.24,2.75-8.33,7.84-18.03,11.53" class="stroke" stroke-dasharray="150"><set attributeName="opacity" to="0" dur="18.4s" /><animate attributeName="stroke-dashoffset" from="150" to="0" dur="1.8s" begin="18.4s" fill="freeze" /></path><path d="M79.2,86.8c5.22,2.2,13.48,9.05,14.78,12.47" class="stroke" stroke-dasharray="150"><set attributeName="opacity" to="0" dur="19.4s" /><animate attributeName="stroke-dashoffset" from="150" to="0" dur="1.8s" begin="19.4s" fill="freeze" /></path><text x="90" y="120" id="reset-kvg-066e0">⟳</text><text x="70" y="120" id="pause-kvg-066e0">◼</text><script type="text/javascript"><![CDATA[function RecurringTimer(e,t){var n,r,i=t;this.pause=function(){window.clearTimeout(n);i-=new Date-r};var s=function(){r=new Date;n=window.setTimeout(function(){i=t;s();e()},i)};this.clear=function(){window.clearTimeout(n);i=t;n=window.setTimeout(function(){i=t;s();e()},i)};this.resume=s;this.resume()}function invoketimer(){timer=new RecurringTimer(function(){svg.setCurrentTime(0)},21299.999999999996)}var svg=document.getElementById("kvg-066e0");var pause=document.getElementById("pause-kvg-066e0");var reset=document.getElementById("reset-kvg-066e0");var timer;invoketimer();reset.onclick=function(){svg.setCurrentTime(0);timer.clear();svg.unpauseAnimations();pause.innerHTML = "◼";};pause.onclick=function(){if(svg.animationsPaused()){svg.unpauseAnimations();timer.resume();pause.innerHTML="◼"}else{svg.pauseAnimations();timer.pause();pause.innerHTML="▶"}}]]></script></svg>