<svg id="kvg-066e6-Kaisho" class="kanjivg" width="106" height="126" xmlns="http://www.w3.org/2000/svg" xmlns:xlink="http://www.w3.org/1999/xlink" xml:space="preserve" version="1.1" baseProfile="full"><defs><style type="text/css"><![CDATA[path.black{fill:none;stroke:black;stroke-width:5;stroke-linecap:round;stroke-linejoin:round;}path.grey{fill:none;stroke:#ddd;stroke-width:5;stroke-linecap:round;stroke-linejoin:round;}path.stroke{fill:none;stroke:black;stroke-width:5;stroke-linecap:round;stroke-linejoin:round;}rect{fill:none;stroke:#555;stroke-width:2;} text{font-size:16px;font-family:Segoe UI Symbol,Cambria Math,DejaVu Sans,Symbola,Quivira,STIX,Code2000;-webkit-touch-callout:none;cursor:pointer;-webkit-user-select:none;-khtml-user-select:none;-moz-user-select:none;-ms-user-select:none;user-select: none;}text:hover{color:#777;}#reset{font-weight:bold;}]]></style><marker id="markerStart" markerWidth="8" markerHeight="8" style="overflow:visible;"><circle cx="0" cy="0" r="1.5" style="stroke:none;fill:red;fill-opacity:0.5;"/></marker><marker id="markerEnd" style="overflow:visible;"><circle cx="0" cy="0" r="0.8" style="stroke:none;fill:blue;fill-opacity:0.5;"><animate attributeName="opacity" from="1" to="0" dur="3s" repeatCount="indefinite" /></circle></marker></defs><rect x="4" y="4" width="100" height="100" /><path d="M12.77,20.44c0.38,0.78,0.76,1.68,0.76,2.72c0,1.04-0.13,55.29,0,56.34" class="grey" /><path d="M14.16,22.07C19.1,21,24.4,20.5,28.17,19.74c1.6-0.32,2.55,1.44,2.55,2.22c0,4.04-0.5,47.79-0.5,55.01" class="grey" /><path d="M13.56,48.23c2.91-0.33,5.8-0.76,8.69-1.21c0.67-0.1,1.33-0.21,1.99-0.31" class="grey" /><path d="M13.92,75.56c5.91-0.56,8.78-1.06,15.9-1.54" class="grey" /><path d="M49.01,11.62c2.39,1.62,6.58,6.66,7.18,9.18" class="grey" /><path d="M76.86,9.75c0.02,0.26,0.05,0.67-0.04,1.04c-0.49,2.19-3.08,7.31-7.06,11.34" class="grey" /><path d="M41.92,24.43c1.13,0.45,3.2,0.4,4.33,0.45c7.32,0.36,28.6-3.44,38.77-3.27c1.88,0.03,3.01,0.22,3.95,0.44" class="grey" /><path d="M64.46,24.32c0.75,0.3,1.35,1.32,1.35,1.94c0,5.08,0,9.87,0,15.19" class="grey" /><path d="M45.63,33.93c1.06,0.32,2.99,0.38,4.05,0.32c5.52-0.34,23.25-2.29,33.67-2.64c1.76-0.06,2.82,0.15,3.7,0.31" class="grey" /><path d="M38.88,43.26c1.71,0.38,3.87,0.41,5.57,0.38c9.05-0.15,29.3-1.65,44.92-3.25c2.84-0.29,4.57,0.18,6,0.38" class="grey" /><path d="M57.1,46.5c0.05,0.19,0.1,0.49-0.09,0.76c-1.12,1.6-7.57,5.1-16.39,7.24" class="grey" /><path d="M36.21,59.46c0.66,0.43,2.41,0.91,4.17,0.78c13.98-0.99,35.76-2.49,50.7-4.05c1.76-0.18,3.05,0.07,4.15,0.5" class="grey" /><path d="M51.36,54.49c0.43,0.47,0.68,2.13,0.77,3.07c0.09,0.94,0,6.45-0.08,12.35" class="grey" /><path d="M49.16,60.47c-2.39,4.33-7.42,8.96-13.91,11.28" class="grey" /><path d="M53.62,62c5.02,1.25,8.31,3.75,11.21,7.25" class="grey" /><path d="M38.91,75.32c0.72,0.27,2.03,0.34,2.74,0.27c4.56-0.47,13.66-1.45,18.22-2.28c1.17-0.21,1.91,0.13,2.51,0.26" class="grey" /><path d="M47.49,77.05c0.25,0.41,0.21,1.5,0.05,2.14c-0.19,0.73-4.71,6.29-4.79,6.69c-0.08,0.41-0.03,1.43,0.68,1.21c2.36-0.72,9.94-2.7,13.58-3.28c1.36-0.22,1.95,1.17,1.79,2.76c-0.38,3.77-4.36,8.77-6.55,12.03c-1.94,2.89-3.45,0.52-4.53-2.04" class="grey" /><path d="M71.54,47.25c1.09,1.12,1.27,1.43,1.49,3.83C74.94,71.2,81,86.25,91.75,95.75c6.5,5.75,6.5,2.75,5.85-5.89" class="grey" /><path d="M88,65.1c0.07,0.75,0.14,1.93-0.13,3c-1.63,6.33-10.67,22.29-24.21,30.01" class="grey" /><path d="M81.24,45.56c2.37,1.15,6.17,3.79,7.27,5.76" class="grey" /><path d="M12.77,20.44c0.38,0.78,0.76,1.68,0.76,2.72c0,1.04-0.13,55.29,0,56.34" class="stroke" stroke-dasharray="150"><animate attributeName="stroke-dashoffset" from="150" to="0" dur="1.8s" begin="0.0s" fill="freeze" /></path><path d="M14.16,22.07C19.1,21,24.4,20.5,28.17,19.74c1.6-0.32,2.55,1.44,2.55,2.22c0,4.04-0.5,47.79-0.5,55.01" class="stroke" stroke-dasharray="150"><set attributeName="opacity" to="0" dur="1.4s" /><animate attributeName="stroke-dashoffset" from="150" to="0" dur="1.8s" begin="1.4s" fill="freeze" /></path><path d="M13.56,48.23c2.91-0.33,5.8-0.76,8.69-1.21c0.67-0.1,1.33-0.21,1.99-0.31" class="stroke" stroke-dasharray="150"><set attributeName="opacity" to="0" dur="3.0999999999999996s" /><animate attributeName="stroke-dashoffset" from="150" to="0" dur="1.8s" begin="3.0999999999999996s" fill="freeze" /></path><path d="M13.92,75.56c5.91-0.56,8.78-1.06,15.9-1.54" class="stroke" stroke-dasharray="150"><set attributeName="opacity" to="0" dur="3.9999999999999996s" /><animate attributeName="stroke-dashoffset" from="150" to="0" dur="1.8s" begin="3.9999999999999996s" fill="freeze" /></path><path d="M49.01,11.62c2.39,1.62,6.58,6.66,7.18,9.18" class="stroke" stroke-dasharray="150"><set attributeName="opacity" to="0" dur="4.8999999999999995s" /><animate attributeName="stroke-dashoffset" from="150" to="0" dur="1.8s" begin="4.8999999999999995s" fill="freeze" /></path><path d="M76.86,9.75c0.02,0.26,0.05,0.67-0.04,1.04c-0.49,2.19-3.08,7.31-7.06,11.34" class="stroke" stroke-dasharray="150"><set attributeName="opacity" to="0" dur="5.8s" /><animate attributeName="stroke-dashoffset" from="150" to="0" dur="1.8s" begin="5.8s" fill="freeze" /></path><path d="M41.92,24.43c1.13,0.45,3.2,0.4,4.33,0.45c7.32,0.36,28.6-3.44,38.77-3.27c1.88,0.03,3.01,0.22,3.95,0.44" class="stroke" stroke-dasharray="150"><set attributeName="opacity" to="0" dur="6.7s" /><animate attributeName="stroke-dashoffset" from="150" to="0" dur="1.8s" begin="6.7s" fill="freeze" /></path><path d="M64.46,24.32c0.75,0.3,1.35,1.32,1.35,1.94c0,5.08,0,9.87,0,15.19" class="stroke" stroke-dasharray="150"><set attributeName="opacity" to="0" dur="7.9s" /><animate attributeName="stroke-dashoffset" from="150" to="0" dur="1.8s" begin="7.9s" fill="freeze" /></path><path d="M45.63,33.93c1.06,0.32,2.99,0.38,4.05,0.32c5.52-0.34,23.25-2.29,33.67-2.64c1.76-0.06,2.82,0.15,3.7,0.31" class="stroke" stroke-dasharray="150"><set attributeName="opacity" to="0" dur="8.8s" /><animate attributeName="stroke-dashoffset" from="150" to="0" dur="1.8s" begin="8.8s" fill="freeze" /></path><path d="M38.88,43.26c1.71,0.38,3.87,0.41,5.57,0.38c9.05-0.15,29.3-1.65,44.92-3.25c2.84-0.29,4.57,0.18,6,0.38" class="stroke" stroke-dasharray="150"><set attributeName="opacity" to="0" dur="9.9s" /><animate attributeName="stroke-dashoffset" from="150" to="0" dur="1.8s" begin="9.9s" fill="freeze" /></path><path d="M57.1,46.5c0.05,0.19,0.1,0.49-0.09,0.76c-1.12,1.6-7.57,5.1-16.39,7.24" class="stroke" stroke-dasharray="150"><set attributeName="opacity" to="0" dur="11.3s" /><animate attributeName="stroke-dashoffset" from="150" to="0" dur="1.8s" begin="11.3s" fill="freeze" /></path><path d="M36.21,59.46c0.66,0.43,2.41,0.91,4.17,0.78c13.98-0.99,35.76-2.49,50.7-4.05c1.76-0.18,3.05,0.07,4.15,0.5" class="stroke" stroke-dasharray="150"><set attributeName="opacity" to="0" dur="12.200000000000001s" /><animate attributeName="stroke-dashoffset" from="150" to="0" dur="1.8s" begin="12.200000000000001s" fill="freeze" /></path><path d="M51.36,54.49c0.43,0.47,0.68,2.13,0.77,3.07c0.09,0.94,0,6.45-0.08,12.35" class="stroke" stroke-dasharray="150"><set attributeName="opacity" to="0" dur="13.600000000000001s" /><animate attributeName="stroke-dashoffset" from="150" to="0" dur="1.8s" begin="13.600000000000001s" fill="freeze" /></path><path d="M49.16,60.47c-2.39,4.33-7.42,8.96-13.91,11.28" class="stroke" stroke-dasharray="150"><set attributeName="opacity" to="0" dur="14.500000000000002s" /><animate attributeName="stroke-dashoffset" from="150" to="0" dur="1.8s" begin="14.500000000000002s" fill="freeze" /></path><path d="M53.62,62c5.02,1.25,8.31,3.75,11.21,7.25" class="stroke" stroke-dasharray="150"><set attributeName="opacity" to="0" dur="15.400000000000002s" /><animate attributeName="stroke-dashoffset" from="150" to="0" dur="1.8s" begin="15.400000000000002s" fill="freeze" /></path><path d="M38.91,75.32c0.72,0.27,2.03,0.34,2.74,0.27c4.56-0.47,13.66-1.45,18.22-2.28c1.17-0.21,1.91,0.13,2.51,0.26" class="stroke" stroke-dasharray="150"><set attributeName="opacity" to="0" dur="16.3s" /><animate attributeName="stroke-dashoffset" from="150" to="0" dur="1.8s" begin="16.3s" fill="freeze" /></path><path d="M47.49,77.05c0.25,0.41,0.21,1.5,0.05,2.14c-0.19,0.73-4.71,6.29-4.79,6.69c-0.08,0.41-0.03,1.43,0.68,1.21c2.36-0.72,9.94-2.7,13.58-3.28c1.36-0.22,1.95,1.17,1.79,2.76c-0.38,3.77-4.36,8.77-6.55,12.03c-1.94,2.89-3.45,0.52-4.53-2.04" class="stroke" stroke-dasharray="150"><set attributeName="opacity" to="0" dur="17.3s" /><animate attributeName="stroke-dashoffset" from="150" to="0" dur="1.8s" begin="17.3s" fill="freeze" /></path><path d="M71.54,47.25c1.09,1.12,1.27,1.43,1.49,3.83C74.94,71.2,81,86.25,91.75,95.75c6.5,5.75,6.5,2.75,5.85-5.89" class="stroke" stroke-dasharray="150"><set attributeName="opacity" to="0" dur="18.6s" /><animate attributeName="stroke-dashoffset" from="150" to="0" dur="1.8s" begin="18.6s" fill="freeze" /></path><path d="M88,65.1c0.07,0.75,0.14,1.93-0.13,3c-1.63,6.33-10.67,22.29-24.21,30.01" class="stroke" stroke-dasharray="150"><set attributeName="opacity" to="0" dur="20.1s" /><animate attributeName="stroke-dashoffset" from="150" to="0" dur="1.8s" begin="20.1s" fill="freeze" /></path><path d="M81.24,45.56c2.37,1.15,6.17,3.79,7.27,5.76" class="stroke" stroke-dasharray="150"><set attributeName="opacity" to="0" dur="21.200000000000003s" /><animate attributeName="stroke-dashoffset" from="150" to="0" dur="1.8s" begin="21.200000000000003s" fill="freeze" /></path><text x="90" y="120" id="reset-kvg-066e6-Kaisho">⟳</text><text x="70" y="120" id="pause-kvg-066e6-Kaisho">◼</text><script type="text/javascript"><![CDATA[function RecurringTimer(e,t){var n,r,i=t;this.pause=function(){window.clearTimeout(n);i-=new Date-r};var s=function(){r=new Date;n=window.setTimeout(function(){i=t;s();e()},i)};this.clear=function(){window.clearTimeout(n);i=t;n=window.setTimeout(function(){i=t;s();e()},i)};this.resume=s;this.resume()}function invoketimer(){timer=new RecurringTimer(function(){svg.setCurrentTime(0)},23100.0)}var svg=document.getElementById("kvg-066e6-Kaisho");var pause=document.getElementById("pause-kvg-066e6-Kaisho");var reset=document.getElementById("reset-kvg-066e6-Kaisho");var timer;invoketimer();reset.onclick=function(){svg.setCurrentTime(0);timer.clear();svg.unpauseAnimations();pause.innerHTML = "◼";};pause.onclick=function(){if(svg.animationsPaused()){svg.unpauseAnimations();timer.resume();pause.innerHTML="◼"}else{svg.pauseAnimations();timer.pause();pause.innerHTML="▶"}}]]></script></svg>