<svg id="kvg-066fc" class="kanjivg" width="106" height="126" xmlns="http://www.w3.org/2000/svg" xmlns:xlink="http://www.w3.org/1999/xlink" xml:space="preserve" version="1.1" baseProfile="full"><defs><style type="text/css"><![CDATA[path.black{fill:none;stroke:black;stroke-width:5;stroke-linecap:round;stroke-linejoin:round;}path.grey{fill:none;stroke:#ddd;stroke-width:5;stroke-linecap:round;stroke-linejoin:round;}path.stroke{fill:none;stroke:black;stroke-width:5;stroke-linecap:round;stroke-linejoin:round;}rect{fill:none;stroke:#555;stroke-width:2;} text{font-size:16px;font-family:Segoe UI Symbol,Cambria Math,DejaVu Sans,Symbola,Quivira,STIX,Code2000;-webkit-touch-callout:none;cursor:pointer;-webkit-user-select:none;-khtml-user-select:none;-moz-user-select:none;-ms-user-select:none;user-select: none;}text:hover{color:#777;}#reset{font-weight:bold;}]]></style><marker id="markerStart" markerWidth="8" markerHeight="8" style="overflow:visible;"><circle cx="0" cy="0" r="1.5" style="stroke:none;fill:red;fill-opacity:0.5;"/></marker><marker id="markerEnd" style="overflow:visible;"><circle cx="0" cy="0" r="0.8" style="stroke:none;fill:blue;fill-opacity:0.5;"><animate attributeName="opacity" from="1" to="0" dur="3s" repeatCount="indefinite" /></circle></marker></defs><rect x="4" y="4" width="100" height="100" /><path d="M32.49,12.65c0.29,0.37,0.3,0.62,0.46,1.08c1.32,3.8,4.06,12.89,4.87,19.98" class="grey" /><path d="M33.85,13.16c10.2-0.96,30.2-2.08,37.81-2.88c2.8-0.3,4.23,0.75,4.09,1.79c-0.53,3.83-2.83,13.76-4.11,20.16" class="grey" /><path d="M36.76,22.98c3.32-0.37,34.53-2.61,37.27-2.77" class="grey" /><path d="M38.35,32.67c7.35-0.41,23.16-1.61,33.3-2.27" class="grey" /><path d="M20.62,40.94c0.36,0.28,0.73,0.51,0.89,0.87c1.26,2.78,3.26,9.95,4.12,14.94" class="grey" /><path d="M22.38,42.33c7.98-1.09,60.84-3.98,65.09-4.34c1.55-0.13,3.65,0.94,3.24,2.5c-0.87,3.26-3,8.86-5.31,13.51" class="grey" /><path d="M44.06,40.78c0.24,1.85,0.95,10.88,1.19,12.96" class="grey" /><path d="M66.48,39.62c-0.24,3.01-0.98,9.38-1.45,12.73" class="grey" /><path d="M26.78,55.24c4.98-0.41,52.34-2.98,59.19-3.61" class="grey" /><path d="M30.76,65.01c1.84,0.3,2.07,0.76,5.75,0.3c3.68-0.46,31.13-3.4,33.66-3.86c2.53-0.46,4.33,1.79,2.45,3.84C57.42,81.89,40,92.75,17.52,99" class="grey" /><path d="M37.35,71.41c4.85,0.66,28.52,18.3,45.4,25.53c2.63,1.12,4.54,1.88,6.99,2.25" class="grey" /><path d="M32.49,12.65c0.29,0.37,0.3,0.62,0.46,1.08c1.32,3.8,4.06,12.89,4.87,19.98" class="stroke" stroke-dasharray="150"><animate attributeName="stroke-dashoffset" from="150" to="0" dur="1.8s" begin="0.0s" fill="freeze" /></path><path d="M33.85,13.16c10.2-0.96,30.2-2.08,37.81-2.88c2.8-0.3,4.23,0.75,4.09,1.79c-0.53,3.83-2.83,13.76-4.11,20.16" class="stroke" stroke-dasharray="150"><set attributeName="opacity" to="0" dur="1.0s" /><animate attributeName="stroke-dashoffset" from="150" to="0" dur="1.8s" begin="1.0s" fill="freeze" /></path><path d="M36.76,22.98c3.32-0.37,34.53-2.61,37.27-2.77" class="stroke" stroke-dasharray="150"><set attributeName="opacity" to="0" dur="2.5s" /><animate attributeName="stroke-dashoffset" from="150" to="0" dur="1.8s" begin="2.5s" fill="freeze" /></path><path d="M38.35,32.67c7.35-0.41,23.16-1.61,33.3-2.27" class="stroke" stroke-dasharray="150"><set attributeName="opacity" to="0" dur="3.5s" /><animate attributeName="stroke-dashoffset" from="150" to="0" dur="1.8s" begin="3.5s" fill="freeze" /></path><path d="M20.62,40.94c0.36,0.28,0.73,0.51,0.89,0.87c1.26,2.78,3.26,9.95,4.12,14.94" class="stroke" stroke-dasharray="150"><set attributeName="opacity" to="0" dur="4.5s" /><animate attributeName="stroke-dashoffset" from="150" to="0" dur="1.8s" begin="4.5s" fill="freeze" /></path><path d="M22.38,42.33c7.98-1.09,60.84-3.98,65.09-4.34c1.55-0.13,3.65,0.94,3.24,2.5c-0.87,3.26-3,8.86-5.31,13.51" class="stroke" stroke-dasharray="150"><set attributeName="opacity" to="0" dur="5.4s" /><animate attributeName="stroke-dashoffset" from="150" to="0" dur="1.8s" begin="5.4s" fill="freeze" /></path><path d="M44.06,40.78c0.24,1.85,0.95,10.88,1.19,12.96" class="stroke" stroke-dasharray="150"><set attributeName="opacity" to="0" dur="7.1000000000000005s" /><animate attributeName="stroke-dashoffset" from="150" to="0" dur="1.8s" begin="7.1000000000000005s" fill="freeze" /></path><path d="M66.48,39.62c-0.24,3.01-0.98,9.38-1.45,12.73" class="stroke" stroke-dasharray="150"><set attributeName="opacity" to="0" dur="8.0s" /><animate attributeName="stroke-dashoffset" from="150" to="0" dur="1.8s" begin="8.0s" fill="freeze" /></path><path d="M26.78,55.24c4.98-0.41,52.34-2.98,59.19-3.61" class="stroke" stroke-dasharray="150"><set attributeName="opacity" to="0" dur="8.9s" /><animate attributeName="stroke-dashoffset" from="150" to="0" dur="1.8s" begin="8.9s" fill="freeze" /></path><path d="M30.76,65.01c1.84,0.3,2.07,0.76,5.75,0.3c3.68-0.46,31.13-3.4,33.66-3.86c2.53-0.46,4.33,1.79,2.45,3.84C57.42,81.89,40,92.75,17.52,99" class="stroke" stroke-dasharray="150"><set attributeName="opacity" to="0" dur="10.3s" /><animate attributeName="stroke-dashoffset" from="150" to="0" dur="1.8s" begin="10.3s" fill="freeze" /></path><path d="M37.35,71.41c4.85,0.66,28.52,18.3,45.4,25.53c2.63,1.12,4.54,1.88,6.99,2.25" class="stroke" stroke-dasharray="150"><set attributeName="opacity" to="0" dur="12.3s" /><animate attributeName="stroke-dashoffset" from="150" to="0" dur="1.8s" begin="12.3s" fill="freeze" /></path><text x="90" y="120" id="reset-kvg-066fc">⟳</text><text x="70" y="120" id="pause-kvg-066fc">◼</text><script type="text/javascript"><![CDATA[function RecurringTimer(e,t){var n,r,i=t;this.pause=function(){window.clearTimeout(n);i-=new Date-r};var s=function(){r=new Date;n=window.setTimeout(function(){i=t;s();e()},i)};this.clear=function(){window.clearTimeout(n);i=t;n=window.setTimeout(function(){i=t;s();e()},i)};this.resume=s;this.resume()}function invoketimer(){timer=new RecurringTimer(function(){svg.setCurrentTime(0)},14700.000000000002)}var svg=document.getElementById("kvg-066fc");var pause=document.getElementById("pause-kvg-066fc");var reset=document.getElementById("reset-kvg-066fc");var timer;invoketimer();reset.onclick=function(){svg.setCurrentTime(0);timer.clear();svg.unpauseAnimations();pause.innerHTML = "◼";};pause.onclick=function(){if(svg.animationsPaused()){svg.unpauseAnimations();timer.resume();pause.innerHTML="◼"}else{svg.pauseAnimations();timer.pause();pause.innerHTML="▶"}}]]></script></svg>