<svg id="kvg-066fe-Kaisho" class="kanjivg" width="106" height="126" xmlns="http://www.w3.org/2000/svg" xmlns:xlink="http://www.w3.org/1999/xlink" xml:space="preserve" version="1.1" baseProfile="full"><defs><style type="text/css"><![CDATA[path.black{fill:none;stroke:black;stroke-width:5;stroke-linecap:round;stroke-linejoin:round;}path.grey{fill:none;stroke:#ddd;stroke-width:5;stroke-linecap:round;stroke-linejoin:round;}path.stroke{fill:none;stroke:black;stroke-width:5;stroke-linecap:round;stroke-linejoin:round;}rect{fill:none;stroke:#555;stroke-width:2;} text{font-size:16px;font-family:Segoe UI Symbol,Cambria Math,DejaVu Sans,Symbola,Quivira,STIX,Code2000;-webkit-touch-callout:none;cursor:pointer;-webkit-user-select:none;-khtml-user-select:none;-moz-user-select:none;-ms-user-select:none;user-select: none;}text:hover{color:#777;}#reset{font-weight:bold;}]]></style><marker id="markerStart" markerWidth="8" markerHeight="8" style="overflow:visible;"><circle cx="0" cy="0" r="1.5" style="stroke:none;fill:red;fill-opacity:0.5;"/></marker><marker id="markerEnd" style="overflow:visible;"><circle cx="0" cy="0" r="0.8" style="stroke:none;fill:blue;fill-opacity:0.5;"><animate attributeName="opacity" from="1" to="0" dur="3s" repeatCount="indefinite" /></circle></marker></defs><rect x="4" y="4" width="100" height="100" /><path d="M40.98,11.49c0.02,0.76,0.01,3.02-0.55,3.84c-3.32,4.87-12.97,14.23-22.68,19.42" class="grey" /><path d="M58.5,9.25c1.42,0.19,2.77,0.43,3.67,0.92c8.3,4.47,18.31,13.75,26.18,16.54c3.39,1.21,4.61,1.85,7.9,2.24" class="grey" /><path d="M25.4,33.92c0.39,0.4,0.9,1.67,1.1,2.17c1.73,4.12,3.32,15,4.34,22.67" class="grey" /><path d="M27.23,35.49c15.27-1.74,39.86-4.13,52.16-4.76c3.77-0.19,3.39,2.08,3.19,3.21c-0.75,4.13-2.43,12.39-4.79,19.49" class="grey" /><path d="M53.95,33.44c0,4.77-0.26,12.55-0.26,20.67" class="grey" /><path d="M36.33,40.32c2.75,1.57,7.12,6.45,7.8,8.89" class="grey" /><path d="M70.58,37.11c0.16,0.36,0,0.78-0.22,1.21c-1.34,2.51-5.24,8.12-9.17,10.79" class="grey" /><path d="M31.06,56.15c12.64-0.95,33.21-3.6,46.84-4.2" class="grey" /><path d="M34.5,65.77c0.62,0.71,1.14,2.56,1.24,3.5C36.75,78,38.59,90.75,39,99.5" class="grey" /><path d="M35.94,67.39c3.51-0.12,31.52-3,34.72-3.14c2.66-0.12,3.41,2.76,3.34,3.5c-0.42,4.26-1.79,21.01-3.24,30.79" class="grey" /><path d="M37.9,81.02c5.69,0,11.44-0.67,17.1-1.09c1.85-0.14,3.71-0.27,5.49-0.4" class="grey" /><path d="M39.45,96.71c9.4-0.46,22.46-1.44,31.54-1.44" class="grey" /><path d="M40.98,11.49c0.02,0.76,0.01,3.02-0.55,3.84c-3.32,4.87-12.97,14.23-22.68,19.42" class="stroke" stroke-dasharray="150"><animate attributeName="stroke-dashoffset" from="150" to="0" dur="1.8s" begin="0.0s" fill="freeze" /></path><path d="M58.5,9.25c1.42,0.19,2.77,0.43,3.67,0.92c8.3,4.47,18.31,13.75,26.18,16.54c3.39,1.21,4.61,1.85,7.9,2.24" class="stroke" stroke-dasharray="150"><set attributeName="opacity" to="0" dur="1.0s" /><animate attributeName="stroke-dashoffset" from="150" to="0" dur="1.8s" begin="1.0s" fill="freeze" /></path><path d="M25.4,33.92c0.39,0.4,0.9,1.67,1.1,2.17c1.73,4.12,3.32,15,4.34,22.67" class="stroke" stroke-dasharray="150"><set attributeName="opacity" to="0" dur="2.1s" /><animate attributeName="stroke-dashoffset" from="150" to="0" dur="1.8s" begin="2.1s" fill="freeze" /></path><path d="M27.23,35.49c15.27-1.74,39.86-4.13,52.16-4.76c3.77-0.19,3.39,2.08,3.19,3.21c-0.75,4.13-2.43,12.39-4.79,19.49" class="stroke" stroke-dasharray="150"><set attributeName="opacity" to="0" dur="3.1s" /><animate attributeName="stroke-dashoffset" from="150" to="0" dur="1.8s" begin="3.1s" fill="freeze" /></path><path d="M53.95,33.44c0,4.77-0.26,12.55-0.26,20.67" class="stroke" stroke-dasharray="150"><set attributeName="opacity" to="0" dur="4.8s" /><animate attributeName="stroke-dashoffset" from="150" to="0" dur="1.8s" begin="4.8s" fill="freeze" /></path><path d="M36.33,40.32c2.75,1.57,7.12,6.45,7.8,8.89" class="stroke" stroke-dasharray="150"><set attributeName="opacity" to="0" dur="5.8s" /><animate attributeName="stroke-dashoffset" from="150" to="0" dur="1.8s" begin="5.8s" fill="freeze" /></path><path d="M70.58,37.11c0.16,0.36,0,0.78-0.22,1.21c-1.34,2.51-5.24,8.12-9.17,10.79" class="stroke" stroke-dasharray="150"><set attributeName="opacity" to="0" dur="6.7s" /><animate attributeName="stroke-dashoffset" from="150" to="0" dur="1.8s" begin="6.7s" fill="freeze" /></path><path d="M31.06,56.15c12.64-0.95,33.21-3.6,46.84-4.2" class="stroke" stroke-dasharray="150"><set attributeName="opacity" to="0" dur="7.6000000000000005s" /><animate attributeName="stroke-dashoffset" from="150" to="0" dur="1.8s" begin="7.6000000000000005s" fill="freeze" /></path><path d="M34.5,65.77c0.62,0.71,1.14,2.56,1.24,3.5C36.75,78,38.59,90.75,39,99.5" class="stroke" stroke-dasharray="150"><set attributeName="opacity" to="0" dur="8.8s" /><animate attributeName="stroke-dashoffset" from="150" to="0" dur="1.8s" begin="8.8s" fill="freeze" /></path><path d="M35.94,67.39c3.51-0.12,31.52-3,34.72-3.14c2.66-0.12,3.41,2.76,3.34,3.5c-0.42,4.26-1.79,21.01-3.24,30.79" class="stroke" stroke-dasharray="150"><set attributeName="opacity" to="0" dur="9.8s" /><animate attributeName="stroke-dashoffset" from="150" to="0" dur="1.8s" begin="9.8s" fill="freeze" /></path><path d="M37.9,81.02c5.69,0,11.44-0.67,17.1-1.09c1.85-0.14,3.71-0.27,5.49-0.4" class="stroke" stroke-dasharray="150"><set attributeName="opacity" to="0" dur="11.5s" /><animate attributeName="stroke-dashoffset" from="150" to="0" dur="1.8s" begin="11.5s" fill="freeze" /></path><path d="M39.45,96.71c9.4-0.46,22.46-1.44,31.54-1.44" class="stroke" stroke-dasharray="150"><set attributeName="opacity" to="0" dur="12.5s" /><animate attributeName="stroke-dashoffset" from="150" to="0" dur="1.8s" begin="12.5s" fill="freeze" /></path><text x="90" y="120" id="reset-kvg-066fe-Kaisho">⟳</text><text x="70" y="120" id="pause-kvg-066fe-Kaisho">◼</text><script type="text/javascript"><![CDATA[function RecurringTimer(e,t){var n,r,i=t;this.pause=function(){window.clearTimeout(n);i-=new Date-r};var s=function(){r=new Date;n=window.setTimeout(function(){i=t;s();e()},i)};this.clear=function(){window.clearTimeout(n);i=t;n=window.setTimeout(function(){i=t;s();e()},i)};this.resume=s;this.resume()}function invoketimer(){timer=new RecurringTimer(function(){svg.setCurrentTime(0)},14500.0)}var svg=document.getElementById("kvg-066fe-Kaisho");var pause=document.getElementById("pause-kvg-066fe-Kaisho");var reset=document.getElementById("reset-kvg-066fe-Kaisho");var timer;invoketimer();reset.onclick=function(){svg.setCurrentTime(0);timer.clear();svg.unpauseAnimations();pause.innerHTML = "◼";};pause.onclick=function(){if(svg.animationsPaused()){svg.unpauseAnimations();timer.resume();pause.innerHTML="◼"}else{svg.pauseAnimations();timer.pause();pause.innerHTML="▶"}}]]></script></svg>