<svg id="kvg-06731" class="kanjivg" width="106" height="126" xmlns="http://www.w3.org/2000/svg" xmlns:xlink="http://www.w3.org/1999/xlink" xml:space="preserve" version="1.1" baseProfile="full"><defs><style type="text/css"><![CDATA[path.black{fill:none;stroke:black;stroke-width:5;stroke-linecap:round;stroke-linejoin:round;}path.grey{fill:none;stroke:#ddd;stroke-width:5;stroke-linecap:round;stroke-linejoin:round;}path.stroke{fill:none;stroke:black;stroke-width:5;stroke-linecap:round;stroke-linejoin:round;}rect{fill:none;stroke:#555;stroke-width:2;} text{font-size:16px;font-family:Segoe UI Symbol,Cambria Math,DejaVu Sans,Symbola,Quivira,STIX,Code2000;-webkit-touch-callout:none;cursor:pointer;-webkit-user-select:none;-khtml-user-select:none;-moz-user-select:none;-ms-user-select:none;user-select: none;}text:hover{color:#777;}#reset{font-weight:bold;}]]></style><marker id="markerStart" markerWidth="8" markerHeight="8" style="overflow:visible;"><circle cx="0" cy="0" r="1.5" style="stroke:none;fill:red;fill-opacity:0.5;"/></marker><marker id="markerEnd" style="overflow:visible;"><circle cx="0" cy="0" r="0.8" style="stroke:none;fill:blue;fill-opacity:0.5;"><animate attributeName="opacity" from="1" to="0" dur="3s" repeatCount="indefinite" /></circle></marker></defs><rect x="4" y="4" width="100" height="100" /><path d="M35.33,18.25c0.08,1.16,0.09,2.19-0.3,3.3c-3.18,9.12-7.64,16.58-15.78,23.99" class="grey" /><path d="M32.88,34.02c1.77,0.57,4.19,0.39,6,0.12c9.58-1.46,23.21-3.72,33.25-4.74c2.14-0.22,4.49-0.21,6.59,0.2" class="grey" /><path d="M17.94,54.5c3.45,0.97,6.81,0.56,10.33,0.03c13.49-2.01,36.72-5.03,51.36-6.28c3.01-0.26,6.1,0,9.06,0.5" class="grey" /><path d="M53.16,12.25c0.98,0.98,1.42,2.75,1.42,4.5c0,12.49-0.06,49.56-0.08,72.5c0,2.77,0,5.33,0,7.62" class="grey" /><path d="M51.25,52.25c0,1.5-1.06,3.01-2.18,4.48C41.04,67.35,28.62,79.12,15,86" class="grey" /><path d="M55.5,52.25c5.85,5.85,19.07,18.73,28.12,26.04c2.99,2.41,5.78,4.33,9.13,6.21" class="grey" /><path d="M35.33,18.25c0.08,1.16,0.09,2.19-0.3,3.3c-3.18,9.12-7.64,16.58-15.78,23.99" class="stroke" stroke-dasharray="150"><animate attributeName="stroke-dashoffset" from="150" to="0" dur="1.8s" begin="0.0s" fill="freeze" /></path><path d="M32.88,34.02c1.77,0.57,4.19,0.39,6,0.12c9.58-1.46,23.21-3.72,33.25-4.74c2.14-0.22,4.49-0.21,6.59,0.2" class="stroke" stroke-dasharray="150"><set attributeName="opacity" to="0" dur="1.0s" /><animate attributeName="stroke-dashoffset" from="150" to="0" dur="1.8s" begin="1.0s" fill="freeze" /></path><path d="M17.94,54.5c3.45,0.97,6.81,0.56,10.33,0.03c13.49-2.01,36.72-5.03,51.36-6.28c3.01-0.26,6.1,0,9.06,0.5" class="stroke" stroke-dasharray="150"><set attributeName="opacity" to="0" dur="2.2s" /><animate attributeName="stroke-dashoffset" from="150" to="0" dur="1.8s" begin="2.2s" fill="freeze" /></path><path d="M53.16,12.25c0.98,0.98,1.42,2.75,1.42,4.5c0,12.49-0.06,49.56-0.08,72.5c0,2.77,0,5.33,0,7.62" class="stroke" stroke-dasharray="150"><set attributeName="opacity" to="0" dur="3.9000000000000004s" /><animate attributeName="stroke-dashoffset" from="150" to="0" dur="1.8s" begin="3.9000000000000004s" fill="freeze" /></path><path d="M51.25,52.25c0,1.5-1.06,3.01-2.18,4.48C41.04,67.35,28.62,79.12,15,86" class="stroke" stroke-dasharray="150"><set attributeName="opacity" to="0" dur="5.6000000000000005s" /><animate attributeName="stroke-dashoffset" from="150" to="0" dur="1.8s" begin="5.6000000000000005s" fill="freeze" /></path><path d="M55.5,52.25c5.85,5.85,19.07,18.73,28.12,26.04c2.99,2.41,5.78,4.33,9.13,6.21" class="stroke" stroke-dasharray="150"><set attributeName="opacity" to="0" dur="6.9s" /><animate attributeName="stroke-dashoffset" from="150" to="0" dur="1.8s" begin="6.9s" fill="freeze" /></path><text x="90" y="120" id="reset-kvg-06731">⟳</text><text x="70" y="120" id="pause-kvg-06731">◼</text><script type="text/javascript"><![CDATA[function RecurringTimer(e,t){var n,r,i=t;this.pause=function(){window.clearTimeout(n);i-=new Date-r};var s=function(){r=new Date;n=window.setTimeout(function(){i=t;s();e()},i)};this.clear=function(){window.clearTimeout(n);i=t;n=window.setTimeout(function(){i=t;s();e()},i)};this.resume=s;this.resume()}function invoketimer(){timer=new RecurringTimer(function(){svg.setCurrentTime(0)},9100.0)}var svg=document.getElementById("kvg-06731");var pause=document.getElementById("pause-kvg-06731");var reset=document.getElementById("reset-kvg-06731");var timer;invoketimer();reset.onclick=function(){svg.setCurrentTime(0);timer.clear();svg.unpauseAnimations();pause.innerHTML = "◼";};pause.onclick=function(){if(svg.animationsPaused()){svg.unpauseAnimations();timer.resume();pause.innerHTML="◼"}else{svg.pauseAnimations();timer.pause();pause.innerHTML="▶"}}]]></script></svg>