<svg id="kvg-06750-Kaisho" class="kanjivg" width="106" height="126" xmlns="http://www.w3.org/2000/svg" xmlns:xlink="http://www.w3.org/1999/xlink" xml:space="preserve" version="1.1" baseProfile="full"><defs><style type="text/css"><![CDATA[path.black{fill:none;stroke:black;stroke-width:5;stroke-linecap:round;stroke-linejoin:round;}path.grey{fill:none;stroke:#ddd;stroke-width:5;stroke-linecap:round;stroke-linejoin:round;}path.stroke{fill:none;stroke:black;stroke-width:5;stroke-linecap:round;stroke-linejoin:round;}rect{fill:none;stroke:#555;stroke-width:2;} text{font-size:16px;font-family:Segoe UI Symbol,Cambria Math,DejaVu Sans,Symbola,Quivira,STIX,Code2000;-webkit-touch-callout:none;cursor:pointer;-webkit-user-select:none;-khtml-user-select:none;-moz-user-select:none;-ms-user-select:none;user-select: none;}text:hover{color:#777;}#reset{font-weight:bold;}]]></style><marker id="markerStart" markerWidth="8" markerHeight="8" style="overflow:visible;"><circle cx="0" cy="0" r="1.5" style="stroke:none;fill:red;fill-opacity:0.5;"/></marker><marker id="markerEnd" style="overflow:visible;"><circle cx="0" cy="0" r="0.8" style="stroke:none;fill:blue;fill-opacity:0.5;"><animate attributeName="opacity" from="1" to="0" dur="3s" repeatCount="indefinite" /></circle></marker></defs><rect x="4" y="4" width="100" height="100" /><path d="M15.53,34.72c0.41,0.24,2.84,0.41,3.93,0.31c4.68-0.41,17.53-3.21,25.06-4.41c1.09-0.17,2.56-0.24,3.24,0" class="grey" /><path d="M33.27,13c1.09,0.47,2.61,2.75,2.61,4.92c0,0.96-0.36,72.72-0.36,73.58c0,13.5-6.27,2-7.27,1" class="grey" /><path d="M35.83,36.28C28.48,52.52,24,62.5,13.02,73.59" class="grey" /><path d="M38.34,44.9c2.82,1.59,7.46,6.76,9.84,9.85" class="grey" /><path d="M52.25,36c1,0,1.71,0.46,3.67,0.25C63,35.5,79.3,33,92.81,31.75c1.96-0.18,2.46-0.25,3.69,0" class="grey" /><path d="M77.77,13.33c0.09,0.48,1.17,2.49,1.26,5.52c0.4,14.55-0.26,68.16-0.26,73.12c0,10.28-7.21,0.5-8.71-0.75" class="grey" /><path d="M81.75,42c0.25,1.75-0.7,2.9-1.5,4C75,53.25,60.38,67.56,44.5,77" class="grey" /><path d="M15.53,34.72c0.41,0.24,2.84,0.41,3.93,0.31c4.68-0.41,17.53-3.21,25.06-4.41c1.09-0.17,2.56-0.24,3.24,0" class="stroke" stroke-dasharray="150"><animate attributeName="stroke-dashoffset" from="150" to="0" dur="1.8s" begin="0.0s" fill="freeze" /></path><path d="M33.27,13c1.09,0.47,2.61,2.75,2.61,4.92c0,0.96-0.36,72.72-0.36,73.58c0,13.5-6.27,2-7.27,1" class="stroke" stroke-dasharray="150"><set attributeName="opacity" to="0" dur="1.0s" /><animate attributeName="stroke-dashoffset" from="150" to="0" dur="1.8s" begin="1.0s" fill="freeze" /></path><path d="M35.83,36.28C28.48,52.52,24,62.5,13.02,73.59" class="stroke" stroke-dasharray="150"><set attributeName="opacity" to="0" dur="2.8s" /><animate attributeName="stroke-dashoffset" from="150" to="0" dur="1.8s" begin="2.8s" fill="freeze" /></path><path d="M38.34,44.9c2.82,1.59,7.46,6.76,9.84,9.85" class="stroke" stroke-dasharray="150"><set attributeName="opacity" to="0" dur="3.9s" /><animate attributeName="stroke-dashoffset" from="150" to="0" dur="1.8s" begin="3.9s" fill="freeze" /></path><path d="M52.25,36c1,0,1.71,0.46,3.67,0.25C63,35.5,79.3,33,92.81,31.75c1.96-0.18,2.46-0.25,3.69,0" class="stroke" stroke-dasharray="150"><set attributeName="opacity" to="0" dur="4.8s" /><animate attributeName="stroke-dashoffset" from="150" to="0" dur="1.8s" begin="4.8s" fill="freeze" /></path><path d="M77.77,13.33c0.09,0.48,1.17,2.49,1.26,5.52c0.4,14.55-0.26,68.16-0.26,73.12c0,10.28-7.21,0.5-8.71-0.75" class="stroke" stroke-dasharray="150"><set attributeName="opacity" to="0" dur="5.9s" /><animate attributeName="stroke-dashoffset" from="150" to="0" dur="1.8s" begin="5.9s" fill="freeze" /></path><path d="M81.75,42c0.25,1.75-0.7,2.9-1.5,4C75,53.25,60.38,67.56,44.5,77" class="stroke" stroke-dasharray="150"><set attributeName="opacity" to="0" dur="7.7s" /><animate attributeName="stroke-dashoffset" from="150" to="0" dur="1.8s" begin="7.7s" fill="freeze" /></path><text x="90" y="120" id="reset-kvg-06750-Kaisho">⟳</text><text x="70" y="120" id="pause-kvg-06750-Kaisho">◼</text><script type="text/javascript"><![CDATA[function RecurringTimer(e,t){var n,r,i=t;this.pause=function(){window.clearTimeout(n);i-=new Date-r};var s=function(){r=new Date;n=window.setTimeout(function(){i=t;s();e()},i)};this.clear=function(){window.clearTimeout(n);i=t;n=window.setTimeout(function(){i=t;s();e()},i)};this.resume=s;this.resume()}function invoketimer(){timer=new RecurringTimer(function(){svg.setCurrentTime(0)},10000.0)}var svg=document.getElementById("kvg-06750-Kaisho");var pause=document.getElementById("pause-kvg-06750-Kaisho");var reset=document.getElementById("reset-kvg-06750-Kaisho");var timer;invoketimer();reset.onclick=function(){svg.setCurrentTime(0);timer.clear();svg.unpauseAnimations();pause.innerHTML = "◼";};pause.onclick=function(){if(svg.animationsPaused()){svg.unpauseAnimations();timer.resume();pause.innerHTML="◼"}else{svg.pauseAnimations();timer.pause();pause.innerHTML="▶"}}]]></script></svg>