<svg id="kvg-0677f-Kaisho" class="kanjivg" width="106" height="126" xmlns="http://www.w3.org/2000/svg" xmlns:xlink="http://www.w3.org/1999/xlink" xml:space="preserve" version="1.1" baseProfile="full"><defs><style type="text/css"><![CDATA[path.black{fill:none;stroke:black;stroke-width:5;stroke-linecap:round;stroke-linejoin:round;}path.grey{fill:none;stroke:#ddd;stroke-width:5;stroke-linecap:round;stroke-linejoin:round;}path.stroke{fill:none;stroke:black;stroke-width:5;stroke-linecap:round;stroke-linejoin:round;}rect{fill:none;stroke:#555;stroke-width:2;} text{font-size:16px;font-family:Segoe UI Symbol,Cambria Math,DejaVu Sans,Symbola,Quivira,STIX,Code2000;-webkit-touch-callout:none;cursor:pointer;-webkit-user-select:none;-khtml-user-select:none;-moz-user-select:none;-ms-user-select:none;user-select: none;}text:hover{color:#777;}#reset{font-weight:bold;}]]></style><marker id="markerStart" markerWidth="8" markerHeight="8" style="overflow:visible;"><circle cx="0" cy="0" r="1.5" style="stroke:none;fill:red;fill-opacity:0.5;"/></marker><marker id="markerEnd" style="overflow:visible;"><circle cx="0" cy="0" r="0.8" style="stroke:none;fill:blue;fill-opacity:0.5;"><animate attributeName="opacity" from="1" to="0" dur="3s" repeatCount="indefinite" /></circle></marker></defs><rect x="4" y="4" width="100" height="100" /><path d="M12.28,38.72c0.35,0.24,2.39,0.41,3.31,0.31c3.94-0.41,15.67-3.03,22.45-3.41c0.93-0.05,2.15-0.24,2.73,0" class="grey" /><path d="M27.36,16.5c0.91,0.47,2.54,3,2.54,4.42c0,0.95-0.3,66.23-0.3,67.08c0,12.75-6.47,2.88-7.6,1.75" class="grey" /><path d="M28.94,40.28C23.2,53.69,20,59.36,11.11,71.09" class="grey" /><path d="M31.47,45.9c2.37,1.59,7.28,7.76,9.28,10.85" class="grey" /><path d="M47.36,24.87c1.39,0.13,3.16,0.09,4.28,0.02C60.67,24.39,74.5,21,82,20.79c1.86-0.05,2.97,0.25,3.9,0.51" class="grey" /><path d="M50.93,27.06c0.04,1.48-0.07,3.82-0.07,5.96c0,24.98-3.6,44.48-13.54,56.59" class="grey" /><path d="M53.39,44.46c1.33,0.36,1.49,0.89,4.15,0.36c2.66-0.54,20.28-5.19,22.1-5.73c1.83-0.54,3.15,1.97,2.49,3.94C74.32,66.28,66.25,81.75,48,92.25" class="grey" /><path d="M55.47,54.81c3.77,0.93,20.96,23.86,34.09,34.06c2.04,1.59,3.53,2.65,5.44,3.18" class="grey" /><path d="M12.28,38.72c0.35,0.24,2.39,0.41,3.31,0.31c3.94-0.41,15.67-3.03,22.45-3.41c0.93-0.05,2.15-0.24,2.73,0" class="stroke" stroke-dasharray="150"><animate attributeName="stroke-dashoffset" from="150" to="0" dur="1.8s" begin="0.0s" fill="freeze" /></path><path d="M27.36,16.5c0.91,0.47,2.54,3,2.54,4.42c0,0.95-0.3,66.23-0.3,67.08c0,12.75-6.47,2.88-7.6,1.75" class="stroke" stroke-dasharray="150"><set attributeName="opacity" to="0" dur="1.0s" /><animate attributeName="stroke-dashoffset" from="150" to="0" dur="1.8s" begin="1.0s" fill="freeze" /></path><path d="M28.94,40.28C23.2,53.69,20,59.36,11.11,71.09" class="stroke" stroke-dasharray="150"><set attributeName="opacity" to="0" dur="2.7s" /><animate attributeName="stroke-dashoffset" from="150" to="0" dur="1.8s" begin="2.7s" fill="freeze" /></path><path d="M31.47,45.9c2.37,1.59,7.28,7.76,9.28,10.85" class="stroke" stroke-dasharray="150"><set attributeName="opacity" to="0" dur="3.7s" /><animate attributeName="stroke-dashoffset" from="150" to="0" dur="1.8s" begin="3.7s" fill="freeze" /></path><path d="M47.36,24.87c1.39,0.13,3.16,0.09,4.28,0.02C60.67,24.39,74.5,21,82,20.79c1.86-0.05,2.97,0.25,3.9,0.51" class="stroke" stroke-dasharray="150"><set attributeName="opacity" to="0" dur="4.6000000000000005s" /><animate attributeName="stroke-dashoffset" from="150" to="0" dur="1.8s" begin="4.6000000000000005s" fill="freeze" /></path><path d="M50.93,27.06c0.04,1.48-0.07,3.82-0.07,5.96c0,24.98-3.6,44.48-13.54,56.59" class="stroke" stroke-dasharray="150"><set attributeName="opacity" to="0" dur="5.6000000000000005s" /><animate attributeName="stroke-dashoffset" from="150" to="0" dur="1.8s" begin="5.6000000000000005s" fill="freeze" /></path><path d="M53.39,44.46c1.33,0.36,1.49,0.89,4.15,0.36c2.66-0.54,20.28-5.19,22.1-5.73c1.83-0.54,3.15,1.97,2.49,3.94C74.32,66.28,66.25,81.75,48,92.25" class="stroke" stroke-dasharray="150"><set attributeName="opacity" to="0" dur="7.1000000000000005s" /><animate attributeName="stroke-dashoffset" from="150" to="0" dur="1.8s" begin="7.1000000000000005s" fill="freeze" /></path><path d="M55.47,54.81c3.77,0.93,20.96,23.86,34.09,34.06c2.04,1.59,3.53,2.65,5.44,3.18" class="stroke" stroke-dasharray="150"><set attributeName="opacity" to="0" dur="8.9s" /><animate attributeName="stroke-dashoffset" from="150" to="0" dur="1.8s" begin="8.9s" fill="freeze" /></path><text x="90" y="120" id="reset-kvg-0677f-Kaisho">⟳</text><text x="70" y="120" id="pause-kvg-0677f-Kaisho">◼</text><script type="text/javascript"><![CDATA[function RecurringTimer(e,t){var n,r,i=t;this.pause=function(){window.clearTimeout(n);i-=new Date-r};var s=function(){r=new Date;n=window.setTimeout(function(){i=t;s();e()},i)};this.clear=function(){window.clearTimeout(n);i=t;n=window.setTimeout(function(){i=t;s();e()},i)};this.resume=s;this.resume()}function invoketimer(){timer=new RecurringTimer(function(){svg.setCurrentTime(0)},11200.000000000002)}var svg=document.getElementById("kvg-0677f-Kaisho");var pause=document.getElementById("pause-kvg-0677f-Kaisho");var reset=document.getElementById("reset-kvg-0677f-Kaisho");var timer;invoketimer();reset.onclick=function(){svg.setCurrentTime(0);timer.clear();svg.unpauseAnimations();pause.innerHTML = "◼";};pause.onclick=function(){if(svg.animationsPaused()){svg.unpauseAnimations();timer.resume();pause.innerHTML="◼"}else{svg.pauseAnimations();timer.pause();pause.innerHTML="▶"}}]]></script></svg>