<svg id="kvg-067d1-Kaisho" class="kanjivg" width="106" height="126" xmlns="http://www.w3.org/2000/svg" xmlns:xlink="http://www.w3.org/1999/xlink" xml:space="preserve" version="1.1" baseProfile="full"><defs><style type="text/css"><![CDATA[path.black{fill:none;stroke:black;stroke-width:5;stroke-linecap:round;stroke-linejoin:round;}path.grey{fill:none;stroke:#ddd;stroke-width:5;stroke-linecap:round;stroke-linejoin:round;}path.stroke{fill:none;stroke:black;stroke-width:5;stroke-linecap:round;stroke-linejoin:round;}rect{fill:none;stroke:#555;stroke-width:2;} text{font-size:16px;font-family:Segoe UI Symbol,Cambria Math,DejaVu Sans,Symbola,Quivira,STIX,Code2000;-webkit-touch-callout:none;cursor:pointer;-webkit-user-select:none;-khtml-user-select:none;-moz-user-select:none;-ms-user-select:none;user-select: none;}text:hover{color:#777;}#reset{font-weight:bold;}]]></style><marker id="markerStart" markerWidth="8" markerHeight="8" style="overflow:visible;"><circle cx="0" cy="0" r="1.5" style="stroke:none;fill:red;fill-opacity:0.5;"/></marker><marker id="markerEnd" style="overflow:visible;"><circle cx="0" cy="0" r="0.8" style="stroke:none;fill:blue;fill-opacity:0.5;"><animate attributeName="opacity" from="1" to="0" dur="3s" repeatCount="indefinite" /></circle></marker></defs><rect x="4" y="4" width="100" height="100" /><path d="M12.28,38.22c0.35,0.24,2.39,0.41,3.31,0.31c3.94-0.41,20.62-2.71,26.95-3.91c0.92-0.17,1.15-0.24,1.73,0" class="grey" /><path d="M30.36,15.5c0.91,0.47,1.89,1.25,2.04,4.42c0.04,0.95-0.3,70.23-0.3,71.08c0,11-4.35,3.5-6.1,1.75" class="grey" /><path d="M31.94,39.78c-6.63,15.91-10.32,22.63-20.58,36.56" class="grey" /><path d="M35.22,47.9c2.76,1.71,6.58,7.57,8.91,10.89" class="grey" /><path d="M44.36,41.02c1.29,0.46,3.67,0.57,4.96,0.46c9.52-0.84,28.18-3.23,43.79-4.33c2.15-0.15,3.45,0.22,4.53,0.45" class="grey" /><path d="M55.67,16.87c1.07,0.49,1.71,2.19,1.93,3.17c0.21,0.98,0,69.62-0.21,75.71" class="grey" /><path d="M81.62,14c1.07,0.49,1.71,2.19,1.93,3.17c0.21,0.98,0.5,71.01,0.29,77.1" class="grey" /><path d="M57.76,63.84c4.62-0.28,9.22-0.86,13.82-1.34c1.34-0.14,2.67-0.28,3.92-0.41" class="grey" /><path d="M57.76,92.65c6.4-0.24,20.08-1.71,25.98-1.95" class="grey" /><path d="M12.28,38.22c0.35,0.24,2.39,0.41,3.31,0.31c3.94-0.41,20.62-2.71,26.95-3.91c0.92-0.17,1.15-0.24,1.73,0" class="stroke" stroke-dasharray="150"><animate attributeName="stroke-dashoffset" from="150" to="0" dur="1.8s" begin="0.0s" fill="freeze" /></path><path d="M30.36,15.5c0.91,0.47,1.89,1.25,2.04,4.42c0.04,0.95-0.3,70.23-0.3,71.08c0,11-4.35,3.5-6.1,1.75" class="stroke" stroke-dasharray="150"><set attributeName="opacity" to="0" dur="1.0s" /><animate attributeName="stroke-dashoffset" from="150" to="0" dur="1.8s" begin="1.0s" fill="freeze" /></path><path d="M31.94,39.78c-6.63,15.91-10.32,22.63-20.58,36.56" class="stroke" stroke-dasharray="150"><set attributeName="opacity" to="0" dur="2.7s" /><animate attributeName="stroke-dashoffset" from="150" to="0" dur="1.8s" begin="2.7s" fill="freeze" /></path><path d="M35.22,47.9c2.76,1.71,6.58,7.57,8.91,10.89" class="stroke" stroke-dasharray="150"><set attributeName="opacity" to="0" dur="3.8000000000000003s" /><animate attributeName="stroke-dashoffset" from="150" to="0" dur="1.8s" begin="3.8000000000000003s" fill="freeze" /></path><path d="M44.36,41.02c1.29,0.46,3.67,0.57,4.96,0.46c9.52-0.84,28.18-3.23,43.79-4.33c2.15-0.15,3.45,0.22,4.53,0.45" class="stroke" stroke-dasharray="150"><set attributeName="opacity" to="0" dur="4.7s" /><animate attributeName="stroke-dashoffset" from="150" to="0" dur="1.8s" begin="4.7s" fill="freeze" /></path><path d="M55.67,16.87c1.07,0.49,1.71,2.19,1.93,3.17c0.21,0.98,0,69.62-0.21,75.71" class="stroke" stroke-dasharray="150"><set attributeName="opacity" to="0" dur="6.0s" /><animate attributeName="stroke-dashoffset" from="150" to="0" dur="1.8s" begin="6.0s" fill="freeze" /></path><path d="M81.62,14c1.07,0.49,1.71,2.19,1.93,3.17c0.21,0.98,0.5,71.01,0.29,77.1" class="stroke" stroke-dasharray="150"><set attributeName="opacity" to="0" dur="7.7s" /><animate attributeName="stroke-dashoffset" from="150" to="0" dur="1.8s" begin="7.7s" fill="freeze" /></path><path d="M57.76,63.84c4.62-0.28,9.22-0.86,13.82-1.34c1.34-0.14,2.67-0.28,3.92-0.41" class="stroke" stroke-dasharray="150"><set attributeName="opacity" to="0" dur="9.4s" /><animate attributeName="stroke-dashoffset" from="150" to="0" dur="1.8s" begin="9.4s" fill="freeze" /></path><path d="M57.76,92.65c6.4-0.24,20.08-1.71,25.98-1.95" class="stroke" stroke-dasharray="150"><set attributeName="opacity" to="0" dur="10.3s" /><animate attributeName="stroke-dashoffset" from="150" to="0" dur="1.8s" begin="10.3s" fill="freeze" /></path><text x="90" y="120" id="reset-kvg-067d1-Kaisho">⟳</text><text x="70" y="120" id="pause-kvg-067d1-Kaisho">◼</text><script type="text/javascript"><![CDATA[function RecurringTimer(e,t){var n,r,i=t;this.pause=function(){window.clearTimeout(n);i-=new Date-r};var s=function(){r=new Date;n=window.setTimeout(function(){i=t;s();e()},i)};this.clear=function(){window.clearTimeout(n);i=t;n=window.setTimeout(function(){i=t;s();e()},i)};this.resume=s;this.resume()}function invoketimer(){timer=new RecurringTimer(function(){svg.setCurrentTime(0)},12300.0)}var svg=document.getElementById("kvg-067d1-Kaisho");var pause=document.getElementById("pause-kvg-067d1-Kaisho");var reset=document.getElementById("reset-kvg-067d1-Kaisho");var timer;invoketimer();reset.onclick=function(){svg.setCurrentTime(0);timer.clear();svg.unpauseAnimations();pause.innerHTML = "◼";};pause.onclick=function(){if(svg.animationsPaused()){svg.unpauseAnimations();timer.resume();pause.innerHTML="◼"}else{svg.pauseAnimations();timer.pause();pause.innerHTML="▶"}}]]></script></svg>