<svg id="kvg-06832" class="kanjivg" width="106" height="126" xmlns="http://www.w3.org/2000/svg" xmlns:xlink="http://www.w3.org/1999/xlink" xml:space="preserve" version="1.1" baseProfile="full"><defs><style type="text/css"><![CDATA[path.black{fill:none;stroke:black;stroke-width:5;stroke-linecap:round;stroke-linejoin:round;}path.grey{fill:none;stroke:#ddd;stroke-width:5;stroke-linecap:round;stroke-linejoin:round;}path.stroke{fill:none;stroke:black;stroke-width:5;stroke-linecap:round;stroke-linejoin:round;}rect{fill:none;stroke:#555;stroke-width:2;} text{font-size:16px;font-family:Segoe UI Symbol,Cambria Math,DejaVu Sans,Symbola,Quivira,STIX,Code2000;-webkit-touch-callout:none;cursor:pointer;-webkit-user-select:none;-khtml-user-select:none;-moz-user-select:none;-ms-user-select:none;user-select: none;}text:hover{color:#777;}#reset{font-weight:bold;}]]></style><marker id="markerStart" markerWidth="8" markerHeight="8" style="overflow:visible;"><circle cx="0" cy="0" r="1.5" style="stroke:none;fill:red;fill-opacity:0.5;"/></marker><marker id="markerEnd" style="overflow:visible;"><circle cx="0" cy="0" r="0.8" style="stroke:none;fill:blue;fill-opacity:0.5;"><animate attributeName="opacity" from="1" to="0" dur="3s" repeatCount="indefinite" /></circle></marker></defs><rect x="4" y="4" width="100" height="100" /><path d="M11.67,37.22c0.35,0.24,2.39,0.41,3.31,0.31c3.94-0.41,15.62-1.71,21.95-2.91c0.92-0.17,2.15-0.24,2.73,0" class="grey" /><path d="M26.75,15c0.91,0.47,2.04,1.75,2.04,3.92c0,0.95-0.12,70.75-0.3,76.58" class="grey" /><path d="M28.33,38.28c-5.1,15.04-7.94,21.4-15.83,34.56" class="grey" /><path d="M31.36,48.4c3.14,2.35,5.89,5.1,7.78,9.35" class="grey" /><path d="M47.5,29.45c0.77,0.33,2.19,0.45,2.96,0.33c9.79-1.53,14.79-1.53,23.21-2.75c1.28-0.19,2.06,0.16,2.71,0.32" class="grey" /><path d="M60.42,13.37c0.12,0.29,1.65,1.53,1.77,3.39c0.57,8.93,0.31,22.2,0.31,25.25" class="grey" /><path d="M39.25,45.78c1.5,0.72,4.32,0.82,5.33,0.69C58.5,44.75,74,42.5,90.38,41.79c1.67-0.07,3.67,0.33,4.5,0.68" class="grey" /><path d="M85.13,18.48c0.13,1.27,0.32,3.1-0.62,4.6C72.34,42.34,61.82,54.65,39.06,71.97" class="grey" /><path d="M80.51,49.5c0.05,0.23,0.14,0.62-0.11,0.92c-2.82,3.4-10.03,7.17-20.15,9.33" class="grey" /><path d="M57,52c1,1,2,3.5,2.02,4.58c0.09,4.42-0.27,6.67-0.76,9.95c-0.57,3.85,0.62,4.06,3.14,3.25c7.1-2.27,15.24-3.56,19.51-4.24c3.34-0.53,4.28,1.95,3.43,4.6C81.5,79,79,86,74.02,93.52c-2.83,4.28-6.31-1.12-7.54-2.57" class="grey" /><path d="M11.67,37.22c0.35,0.24,2.39,0.41,3.31,0.31c3.94-0.41,15.62-1.71,21.95-2.91c0.92-0.17,2.15-0.24,2.73,0" class="stroke" stroke-dasharray="150"><animate attributeName="stroke-dashoffset" from="150" to="0" dur="1.8s" begin="0.0s" fill="freeze" /></path><path d="M26.75,15c0.91,0.47,2.04,1.75,2.04,3.92c0,0.95-0.12,70.75-0.3,76.58" class="stroke" stroke-dasharray="150"><set attributeName="opacity" to="0" dur="1.0s" /><animate attributeName="stroke-dashoffset" from="150" to="0" dur="1.8s" begin="1.0s" fill="freeze" /></path><path d="M28.33,38.28c-5.1,15.04-7.94,21.4-15.83,34.56" class="stroke" stroke-dasharray="150"><set attributeName="opacity" to="0" dur="2.7s" /><animate attributeName="stroke-dashoffset" from="150" to="0" dur="1.8s" begin="2.7s" fill="freeze" /></path><path d="M31.36,48.4c3.14,2.35,5.89,5.1,7.78,9.35" class="stroke" stroke-dasharray="150"><set attributeName="opacity" to="0" dur="3.7s" /><animate attributeName="stroke-dashoffset" from="150" to="0" dur="1.8s" begin="3.7s" fill="freeze" /></path><path d="M47.5,29.45c0.77,0.33,2.19,0.45,2.96,0.33c9.79-1.53,14.79-1.53,23.21-2.75c1.28-0.19,2.06,0.16,2.71,0.32" class="stroke" stroke-dasharray="150"><set attributeName="opacity" to="0" dur="4.6000000000000005s" /><animate attributeName="stroke-dashoffset" from="150" to="0" dur="1.8s" begin="4.6000000000000005s" fill="freeze" /></path><path d="M60.42,13.37c0.12,0.29,1.65,1.53,1.77,3.39c0.57,8.93,0.31,22.2,0.31,25.25" class="stroke" stroke-dasharray="150"><set attributeName="opacity" to="0" dur="5.6000000000000005s" /><animate attributeName="stroke-dashoffset" from="150" to="0" dur="1.8s" begin="5.6000000000000005s" fill="freeze" /></path><path d="M39.25,45.78c1.5,0.72,4.32,0.82,5.33,0.69C58.5,44.75,74,42.5,90.38,41.79c1.67-0.07,3.67,0.33,4.5,0.68" class="stroke" stroke-dasharray="150"><set attributeName="opacity" to="0" dur="6.6000000000000005s" /><animate attributeName="stroke-dashoffset" from="150" to="0" dur="1.8s" begin="6.6000000000000005s" fill="freeze" /></path><path d="M85.13,18.48c0.13,1.27,0.32,3.1-0.62,4.6C72.34,42.34,61.82,54.65,39.06,71.97" class="stroke" stroke-dasharray="150"><set attributeName="opacity" to="0" dur="8.0s" /><animate attributeName="stroke-dashoffset" from="150" to="0" dur="1.8s" begin="8.0s" fill="freeze" /></path><path d="M80.51,49.5c0.05,0.23,0.14,0.62-0.11,0.92c-2.82,3.4-10.03,7.17-20.15,9.33" class="stroke" stroke-dasharray="150"><set attributeName="opacity" to="0" dur="9.7s" /><animate attributeName="stroke-dashoffset" from="150" to="0" dur="1.8s" begin="9.7s" fill="freeze" /></path><path d="M57,52c1,1,2,3.5,2.02,4.58c0.09,4.42-0.27,6.67-0.76,9.95c-0.57,3.85,0.62,4.06,3.14,3.25c7.1-2.27,15.24-3.56,19.51-4.24c3.34-0.53,4.28,1.95,3.43,4.6C81.5,79,79,86,74.02,93.52c-2.83,4.28-6.31-1.12-7.54-2.57" class="stroke" stroke-dasharray="150"><set attributeName="opacity" to="0" dur="10.7s" /><animate attributeName="stroke-dashoffset" from="150" to="0" dur="1.8s" begin="10.7s" fill="freeze" /></path><text x="90" y="120" id="reset-kvg-06832">⟳</text><text x="70" y="120" id="pause-kvg-06832">◼</text><script type="text/javascript"><![CDATA[function RecurringTimer(e,t){var n,r,i=t;this.pause=function(){window.clearTimeout(n);i-=new Date-r};var s=function(){r=new Date;n=window.setTimeout(function(){i=t;s();e()},i)};this.clear=function(){window.clearTimeout(n);i=t;n=window.setTimeout(function(){i=t;s();e()},i)};this.resume=s;this.resume()}function invoketimer(){timer=new RecurringTimer(function(){svg.setCurrentTime(0)},13399.999999999998)}var svg=document.getElementById("kvg-06832");var pause=document.getElementById("pause-kvg-06832");var reset=document.getElementById("reset-kvg-06832");var timer;invoketimer();reset.onclick=function(){svg.setCurrentTime(0);timer.clear();svg.unpauseAnimations();pause.innerHTML = "◼";};pause.onclick=function(){if(svg.animationsPaused()){svg.unpauseAnimations();timer.resume();pause.innerHTML="◼"}else{svg.pauseAnimations();timer.pause();pause.innerHTML="▶"}}]]></script></svg>