<svg id="kvg-0685c-Kaisho" class="kanjivg" width="106" height="126" xmlns="http://www.w3.org/2000/svg" xmlns:xlink="http://www.w3.org/1999/xlink" xml:space="preserve" version="1.1" baseProfile="full"><defs><style type="text/css"><![CDATA[path.black{fill:none;stroke:black;stroke-width:5;stroke-linecap:round;stroke-linejoin:round;}path.grey{fill:none;stroke:#ddd;stroke-width:5;stroke-linecap:round;stroke-linejoin:round;}path.stroke{fill:none;stroke:black;stroke-width:5;stroke-linecap:round;stroke-linejoin:round;}rect{fill:none;stroke:#555;stroke-width:2;} text{font-size:16px;font-family:Segoe UI Symbol,Cambria Math,DejaVu Sans,Symbola,Quivira,STIX,Code2000;-webkit-touch-callout:none;cursor:pointer;-webkit-user-select:none;-khtml-user-select:none;-moz-user-select:none;-ms-user-select:none;user-select: none;}text:hover{color:#777;}#reset{font-weight:bold;}]]></style><marker id="markerStart" markerWidth="8" markerHeight="8" style="overflow:visible;"><circle cx="0" cy="0" r="1.5" style="stroke:none;fill:red;fill-opacity:0.5;"/></marker><marker id="markerEnd" style="overflow:visible;"><circle cx="0" cy="0" r="0.8" style="stroke:none;fill:blue;fill-opacity:0.5;"><animate attributeName="opacity" from="1" to="0" dur="3s" repeatCount="indefinite" /></circle></marker></defs><rect x="4" y="4" width="100" height="100" /><path d="M12.28,39.72c0.35,0.24,2.39,0.41,3.31,0.31c3.94-0.41,14.12-3.21,20.45-4.41c0.92-0.17,2.15-0.24,2.73,0" class="grey" /><path d="M25.36,16.5c0.91,0.47,2.86,3.49,3.04,4.42c0.18,0.93-0.3,66.73-0.3,67.58c0,12.25-4.6,2.5-6.35,0.75" class="grey" /><path d="M27.94,42.28c-5.1,15.04-7.94,20.4-15.83,33.56" class="grey" /><path d="M30.47,43.9c2.73,1.51,7.22,6.42,9.53,9.35" class="grey" /><path d="M44.25,23.74c3.36,4.77,6.96,13.13,7.44,15.51" class="grey" /><path d="M60.06,18.94c1.87,2.94,6.36,10.65,7.1,15.42" class="grey" /><path d="M86.34,16.75c0.6,1.07,1.2,2.15,0.9,4.29c-0.3,2.15-4.99,10.46-8.95,15.38" class="grey" /><path d="M64.42,45.12c0.36,1.16,0.11,2.61-0.18,4.04c-1.39,7.04-5.82,16.11-10.75,23.91c-0.75,1.18-0.41,1.44,0.32,1.5C64,75.5,78.5,83,88,96.75" class="grey" /><path d="M78.53,55.65c0.09,0.92,0.66,3.66,0.31,4.99C76,71.43,67.81,86.72,47.52,94.75" class="grey" /><path d="M39.7,61.89c0.73,0.29,2.06,0.42,2.78,0.29c2.94-0.56,33.02-3.92,48.42-4.97c1.21-0.08,3.29,0.27,4.27,0.77" class="grey" /><path d="M12.28,39.72c0.35,0.24,2.39,0.41,3.31,0.31c3.94-0.41,14.12-3.21,20.45-4.41c0.92-0.17,2.15-0.24,2.73,0" class="stroke" stroke-dasharray="150"><animate attributeName="stroke-dashoffset" from="150" to="0" dur="1.8s" begin="0.0s" fill="freeze" /></path><path d="M25.36,16.5c0.91,0.47,2.86,3.49,3.04,4.42c0.18,0.93-0.3,66.73-0.3,67.58c0,12.25-4.6,2.5-6.35,0.75" class="stroke" stroke-dasharray="150"><set attributeName="opacity" to="0" dur="1.0s" /><animate attributeName="stroke-dashoffset" from="150" to="0" dur="1.8s" begin="1.0s" fill="freeze" /></path><path d="M27.94,42.28c-5.1,15.04-7.94,20.4-15.83,33.56" class="stroke" stroke-dasharray="150"><set attributeName="opacity" to="0" dur="2.7s" /><animate attributeName="stroke-dashoffset" from="150" to="0" dur="1.8s" begin="2.7s" fill="freeze" /></path><path d="M30.47,43.9c2.73,1.51,7.22,6.42,9.53,9.35" class="stroke" stroke-dasharray="150"><set attributeName="opacity" to="0" dur="3.7s" /><animate attributeName="stroke-dashoffset" from="150" to="0" dur="1.8s" begin="3.7s" fill="freeze" /></path><path d="M44.25,23.74c3.36,4.77,6.96,13.13,7.44,15.51" class="stroke" stroke-dasharray="150"><set attributeName="opacity" to="0" dur="4.6000000000000005s" /><animate attributeName="stroke-dashoffset" from="150" to="0" dur="1.8s" begin="4.6000000000000005s" fill="freeze" /></path><path d="M60.06,18.94c1.87,2.94,6.36,10.65,7.1,15.42" class="stroke" stroke-dasharray="150"><set attributeName="opacity" to="0" dur="5.500000000000001s" /><animate attributeName="stroke-dashoffset" from="150" to="0" dur="1.8s" begin="5.500000000000001s" fill="freeze" /></path><path d="M86.34,16.75c0.6,1.07,1.2,2.15,0.9,4.29c-0.3,2.15-4.99,10.46-8.95,15.38" class="stroke" stroke-dasharray="150"><set attributeName="opacity" to="0" dur="6.400000000000001s" /><animate attributeName="stroke-dashoffset" from="150" to="0" dur="1.8s" begin="6.400000000000001s" fill="freeze" /></path><path d="M64.42,45.12c0.36,1.16,0.11,2.61-0.18,4.04c-1.39,7.04-5.82,16.11-10.75,23.91c-0.75,1.18-0.41,1.44,0.32,1.5C64,75.5,78.5,83,88,96.75" class="stroke" stroke-dasharray="150"><set attributeName="opacity" to="0" dur="7.400000000000001s" /><animate attributeName="stroke-dashoffset" from="150" to="0" dur="1.8s" begin="7.400000000000001s" fill="freeze" /></path><path d="M78.53,55.65c0.09,0.92,0.66,3.66,0.31,4.99C76,71.43,67.81,86.72,47.52,94.75" class="stroke" stroke-dasharray="150"><set attributeName="opacity" to="0" dur="9.100000000000001s" /><animate attributeName="stroke-dashoffset" from="150" to="0" dur="1.8s" begin="9.100000000000001s" fill="freeze" /></path><path d="M39.7,61.89c0.73,0.29,2.06,0.42,2.78,0.29c2.94-0.56,33.02-3.92,48.42-4.97c1.21-0.08,3.29,0.27,4.27,0.77" class="stroke" stroke-dasharray="150"><set attributeName="opacity" to="0" dur="10.400000000000002s" /><animate attributeName="stroke-dashoffset" from="150" to="0" dur="1.8s" begin="10.400000000000002s" fill="freeze" /></path><text x="90" y="120" id="reset-kvg-0685c-Kaisho">⟳</text><text x="70" y="120" id="pause-kvg-0685c-Kaisho">◼</text><script type="text/javascript"><![CDATA[function RecurringTimer(e,t){var n,r,i=t;this.pause=function(){window.clearTimeout(n);i-=new Date-r};var s=function(){r=new Date;n=window.setTimeout(function(){i=t;s();e()},i)};this.clear=function(){window.clearTimeout(n);i=t;n=window.setTimeout(function(){i=t;s();e()},i)};this.resume=s;this.resume()}function invoketimer(){timer=new RecurringTimer(function(){svg.setCurrentTime(0)},12800.000000000002)}var svg=document.getElementById("kvg-0685c-Kaisho");var pause=document.getElementById("pause-kvg-0685c-Kaisho");var reset=document.getElementById("reset-kvg-0685c-Kaisho");var timer;invoketimer();reset.onclick=function(){svg.setCurrentTime(0);timer.clear();svg.unpauseAnimations();pause.innerHTML = "◼";};pause.onclick=function(){if(svg.animationsPaused()){svg.unpauseAnimations();timer.resume();pause.innerHTML="◼"}else{svg.pauseAnimations();timer.pause();pause.innerHTML="▶"}}]]></script></svg>