<svg id="kvg-06894-Kaisho" class="kanjivg" width="106" height="126" xmlns="http://www.w3.org/2000/svg" xmlns:xlink="http://www.w3.org/1999/xlink" xml:space="preserve" version="1.1" baseProfile="full"><defs><style type="text/css"><![CDATA[path.black{fill:none;stroke:black;stroke-width:5;stroke-linecap:round;stroke-linejoin:round;}path.grey{fill:none;stroke:#ddd;stroke-width:5;stroke-linecap:round;stroke-linejoin:round;}path.stroke{fill:none;stroke:black;stroke-width:5;stroke-linecap:round;stroke-linejoin:round;}rect{fill:none;stroke:#555;stroke-width:2;} text{font-size:16px;font-family:Segoe UI Symbol,Cambria Math,DejaVu Sans,Symbola,Quivira,STIX,Code2000;-webkit-touch-callout:none;cursor:pointer;-webkit-user-select:none;-khtml-user-select:none;-moz-user-select:none;-ms-user-select:none;user-select: none;}text:hover{color:#777;}#reset{font-weight:bold;}]]></style><marker id="markerStart" markerWidth="8" markerHeight="8" style="overflow:visible;"><circle cx="0" cy="0" r="1.5" style="stroke:none;fill:red;fill-opacity:0.5;"/></marker><marker id="markerEnd" style="overflow:visible;"><circle cx="0" cy="0" r="0.8" style="stroke:none;fill:blue;fill-opacity:0.5;"><animate attributeName="opacity" from="1" to="0" dur="3s" repeatCount="indefinite" /></circle></marker></defs><rect x="4" y="4" width="100" height="100" /><path d="M10.53,37.72c0.38,0.24,2.62,0.41,3.63,0.31c4.32-0.41,17.67-1.21,24.62-2.41c1.01-0.17,2.36-0.24,2.99,0" class="grey" /><path d="M26.86,14.5c0.91,0.47,2.54,2,2.54,4.42c0,0.95-0.3,70.73-0.3,71.58c0,11.5-4.97,3.62-6.6,2" class="grey" /><path d="M28.94,39.78c-5.58,15.58-8.69,22.17-17.33,35.81" class="grey" /><path d="M31.22,47.15c2.44,1.8,6.47,7.62,8.53,11.1" class="grey" /><path d="M83.47,12.39c0.09,0.31,0.19,0.8-0.18,1.24c-2.17,2.61-15.12,8.33-32.16,11.84" class="grey" /><path d="M48.08,24.25c0.41,0.7,1.04,2.13,1.04,3.29c0,40.16-4.21,51.46-11.87,61.71" class="grey" /><path d="M49.15,37c0.9,0.39,2.54-0.07,3.43-0.13c7.49-0.54,27.97-3.19,37.8-3.96c1.49-0.12,2.39,0.18,3.13,0.38" class="grey" /><path d="M54.4,47.76c1.1,0.49,3.75,0.81,5.12,0.65c8.54-0.98,22.8-2.9,27.98-3.39c2.14-0.2,3.2,1.83,3.01,3.04c-0.76,4.68-1.76,10.93-3,18.11" class="grey" /><path d="M71.56,47.18c0.46,0.31,0.94,2.28,0.92,2.9c-0.14,4.45-0.14,7.53-0.13,14.43" class="grey" /><path d="M57.63,66.05c3.19-0.34,26.2-1.55,29.84-1.89" class="grey" /><path d="M57.2,49.31c0.14,6.35,0.49,26.21,0.49,30.5c0,14.68,0.91,15.23,18.73,15.23c18.71,0,19.12-4.92,19.12-10.69" class="grey" /><path d="M10.53,37.72c0.38,0.24,2.62,0.41,3.63,0.31c4.32-0.41,17.67-1.21,24.62-2.41c1.01-0.17,2.36-0.24,2.99,0" class="stroke" stroke-dasharray="150"><animate attributeName="stroke-dashoffset" from="150" to="0" dur="1.8s" begin="0.0s" fill="freeze" /></path><path d="M26.86,14.5c0.91,0.47,2.54,2,2.54,4.42c0,0.95-0.3,70.73-0.3,71.58c0,11.5-4.97,3.62-6.6,2" class="stroke" stroke-dasharray="150"><set attributeName="opacity" to="0" dur="1.0s" /><animate attributeName="stroke-dashoffset" from="150" to="0" dur="1.8s" begin="1.0s" fill="freeze" /></path><path d="M28.94,39.78c-5.58,15.58-8.69,22.17-17.33,35.81" class="stroke" stroke-dasharray="150"><set attributeName="opacity" to="0" dur="2.8s" /><animate attributeName="stroke-dashoffset" from="150" to="0" dur="1.8s" begin="2.8s" fill="freeze" /></path><path d="M31.22,47.15c2.44,1.8,6.47,7.62,8.53,11.1" class="stroke" stroke-dasharray="150"><set attributeName="opacity" to="0" dur="3.8s" /><animate attributeName="stroke-dashoffset" from="150" to="0" dur="1.8s" begin="3.8s" fill="freeze" /></path><path d="M83.47,12.39c0.09,0.31,0.19,0.8-0.18,1.24c-2.17,2.61-15.12,8.33-32.16,11.84" class="stroke" stroke-dasharray="150"><set attributeName="opacity" to="0" dur="4.7s" /><animate attributeName="stroke-dashoffset" from="150" to="0" dur="1.8s" begin="4.7s" fill="freeze" /></path><path d="M48.08,24.25c0.41,0.7,1.04,2.13,1.04,3.29c0,40.16-4.21,51.46-11.87,61.71" class="stroke" stroke-dasharray="150"><set attributeName="opacity" to="0" dur="5.7s" /><animate attributeName="stroke-dashoffset" from="150" to="0" dur="1.8s" begin="5.7s" fill="freeze" /></path><path d="M49.15,37c0.9,0.39,2.54-0.07,3.43-0.13c7.49-0.54,27.97-3.19,37.8-3.96c1.49-0.12,2.39,0.18,3.13,0.38" class="stroke" stroke-dasharray="150"><set attributeName="opacity" to="0" dur="7.2s" /><animate attributeName="stroke-dashoffset" from="150" to="0" dur="1.8s" begin="7.2s" fill="freeze" /></path><path d="M54.4,47.76c1.1,0.49,3.75,0.81,5.12,0.65c8.54-0.98,22.8-2.9,27.98-3.39c2.14-0.2,3.2,1.83,3.01,3.04c-0.76,4.68-1.76,10.93-3,18.11" class="stroke" stroke-dasharray="150"><set attributeName="opacity" to="0" dur="8.3s" /><animate attributeName="stroke-dashoffset" from="150" to="0" dur="1.8s" begin="8.3s" fill="freeze" /></path><path d="M71.56,47.18c0.46,0.31,0.94,2.28,0.92,2.9c-0.14,4.45-0.14,7.53-0.13,14.43" class="stroke" stroke-dasharray="150"><set attributeName="opacity" to="0" dur="9.700000000000001s" /><animate attributeName="stroke-dashoffset" from="150" to="0" dur="1.8s" begin="9.700000000000001s" fill="freeze" /></path><path d="M57.63,66.05c3.19-0.34,26.2-1.55,29.84-1.89" class="stroke" stroke-dasharray="150"><set attributeName="opacity" to="0" dur="10.600000000000001s" /><animate attributeName="stroke-dashoffset" from="150" to="0" dur="1.8s" begin="10.600000000000001s" fill="freeze" /></path><path d="M57.2,49.31c0.14,6.35,0.49,26.21,0.49,30.5c0,14.68,0.91,15.23,18.73,15.23c18.71,0,19.12-4.92,19.12-10.69" class="stroke" stroke-dasharray="150"><set attributeName="opacity" to="0" dur="11.600000000000001s" /><animate attributeName="stroke-dashoffset" from="150" to="0" dur="1.8s" begin="11.600000000000001s" fill="freeze" /></path><text x="90" y="120" id="reset-kvg-06894-Kaisho">⟳</text><text x="70" y="120" id="pause-kvg-06894-Kaisho">◼</text><script type="text/javascript"><![CDATA[function RecurringTimer(e,t){var n,r,i=t;this.pause=function(){window.clearTimeout(n);i-=new Date-r};var s=function(){r=new Date;n=window.setTimeout(function(){i=t;s();e()},i)};this.clear=function(){window.clearTimeout(n);i=t;n=window.setTimeout(function(){i=t;s();e()},i)};this.resume=s;this.resume()}function invoketimer(){timer=new RecurringTimer(function(){svg.setCurrentTime(0)},14300.0)}var svg=document.getElementById("kvg-06894-Kaisho");var pause=document.getElementById("pause-kvg-06894-Kaisho");var reset=document.getElementById("reset-kvg-06894-Kaisho");var timer;invoketimer();reset.onclick=function(){svg.setCurrentTime(0);timer.clear();svg.unpauseAnimations();pause.innerHTML = "◼";};pause.onclick=function(){if(svg.animationsPaused()){svg.unpauseAnimations();timer.resume();pause.innerHTML="◼"}else{svg.pauseAnimations();timer.pause();pause.innerHTML="▶"}}]]></script></svg>