<svg id="kvg-068b1-Kaisho" class="kanjivg" width="106" height="126" xmlns="http://www.w3.org/2000/svg" xmlns:xlink="http://www.w3.org/1999/xlink" xml:space="preserve" version="1.1" baseProfile="full"><defs><style type="text/css"><![CDATA[path.black{fill:none;stroke:black;stroke-width:5;stroke-linecap:round;stroke-linejoin:round;}path.grey{fill:none;stroke:#ddd;stroke-width:5;stroke-linecap:round;stroke-linejoin:round;}path.stroke{fill:none;stroke:black;stroke-width:5;stroke-linecap:round;stroke-linejoin:round;}rect{fill:none;stroke:#555;stroke-width:2;} text{font-size:16px;font-family:Segoe UI Symbol,Cambria Math,DejaVu Sans,Symbola,Quivira,STIX,Code2000;-webkit-touch-callout:none;cursor:pointer;-webkit-user-select:none;-khtml-user-select:none;-moz-user-select:none;-ms-user-select:none;user-select: none;}text:hover{color:#777;}#reset{font-weight:bold;}]]></style><marker id="markerStart" markerWidth="8" markerHeight="8" style="overflow:visible;"><circle cx="0" cy="0" r="1.5" style="stroke:none;fill:red;fill-opacity:0.5;"/></marker><marker id="markerEnd" style="overflow:visible;"><circle cx="0" cy="0" r="0.8" style="stroke:none;fill:blue;fill-opacity:0.5;"><animate attributeName="opacity" from="1" to="0" dur="3s" repeatCount="indefinite" /></circle></marker></defs><rect x="4" y="4" width="100" height="100" /><path d="M13.28,37.72c0.35,0.24,2.39,0.41,3.31,0.31c3.94-0.41,14.12-2.21,20.45-3.41c0.92-0.17,1.15-0.24,1.73,0" class="grey" /><path d="M25.86,15c0.91,0.47,2.54,2.5,2.54,4.92c0,0.95-0.3,68.73-0.3,69.58c0,11.75-5.6,2-6.6,1" class="grey" /><path d="M27.94,40.28c-5.26,14.5-8.19,20.62-16.33,33.31" class="grey" /><path d="M31.47,47.9c2.37,1.91,5.66,8.44,7.66,12.14" class="grey" /><path d="M44.75,20.98c0.52,1.26,1.27,2.21,1.28,3.89c0.1,12.59,0.1,42.35-0.21,66.38" class="grey" /><path d="M47.15,23.04C60.5,21.5,83,19,91.33,19c1.9,0,2.45,2.2,2.42,4.85c-0.17,13.89-0.69,45.58-0.35,65.19" class="grey" /><path d="M52.52,41.9c0.91,0.38,1.93,0.44,2.98,0.38c5.66-0.3,18.81-2.51,26.29-3.49c1.03-0.14,1.42-0.1,2.2,0" class="grey" /><path d="M66.8,27c0.65,0.33,1.04,1.49,1.17,2.15c0.13,0.66-0.13,43.48-0.13,47.62c0,7.48-3.46,2.86-4.59,1.73" class="grey" /><path d="M67.56,42.71c-2.96,8.36-10.9,21.14-17.06,25.88" class="grey" /><path d="M67.89,43.51C70.42,46.5,82.3,61.47,85.05,64.4c0.93,1,1.73,1.42,2.66,1.71" class="grey" /><path d="M46.47,88.62c9.02,0,34.48-1.85,46.93-2.22" class="grey" /><path d="M13.28,37.72c0.35,0.24,2.39,0.41,3.31,0.31c3.94-0.41,14.12-2.21,20.45-3.41c0.92-0.17,1.15-0.24,1.73,0" class="stroke" stroke-dasharray="150"><animate attributeName="stroke-dashoffset" from="150" to="0" dur="1.8s" begin="0.0s" fill="freeze" /></path><path d="M25.86,15c0.91,0.47,2.54,2.5,2.54,4.92c0,0.95-0.3,68.73-0.3,69.58c0,11.75-5.6,2-6.6,1" class="stroke" stroke-dasharray="150"><set attributeName="opacity" to="0" dur="1.0s" /><animate attributeName="stroke-dashoffset" from="150" to="0" dur="1.8s" begin="1.0s" fill="freeze" /></path><path d="M27.94,40.28c-5.26,14.5-8.19,20.62-16.33,33.31" class="stroke" stroke-dasharray="150"><set attributeName="opacity" to="0" dur="2.7s" /><animate attributeName="stroke-dashoffset" from="150" to="0" dur="1.8s" begin="2.7s" fill="freeze" /></path><path d="M31.47,47.9c2.37,1.91,5.66,8.44,7.66,12.14" class="stroke" stroke-dasharray="150"><set attributeName="opacity" to="0" dur="3.7s" /><animate attributeName="stroke-dashoffset" from="150" to="0" dur="1.8s" begin="3.7s" fill="freeze" /></path><path d="M44.75,20.98c0.52,1.26,1.27,2.21,1.28,3.89c0.1,12.59,0.1,42.35-0.21,66.38" class="stroke" stroke-dasharray="150"><set attributeName="opacity" to="0" dur="4.6000000000000005s" /><animate attributeName="stroke-dashoffset" from="150" to="0" dur="1.8s" begin="4.6000000000000005s" fill="freeze" /></path><path d="M47.15,23.04C60.5,21.5,83,19,91.33,19c1.9,0,2.45,2.2,2.42,4.85c-0.17,13.89-0.69,45.58-0.35,65.19" class="stroke" stroke-dasharray="150"><set attributeName="opacity" to="0" dur="6.300000000000001s" /><animate attributeName="stroke-dashoffset" from="150" to="0" dur="1.8s" begin="6.300000000000001s" fill="freeze" /></path><path d="M52.52,41.9c0.91,0.38,1.93,0.44,2.98,0.38c5.66-0.3,18.81-2.51,26.29-3.49c1.03-0.14,1.42-0.1,2.2,0" class="stroke" stroke-dasharray="150"><set attributeName="opacity" to="0" dur="8.3s" /><animate attributeName="stroke-dashoffset" from="150" to="0" dur="1.8s" begin="8.3s" fill="freeze" /></path><path d="M66.8,27c0.65,0.33,1.04,1.49,1.17,2.15c0.13,0.66-0.13,43.48-0.13,47.62c0,7.48-3.46,2.86-4.59,1.73" class="stroke" stroke-dasharray="150"><set attributeName="opacity" to="0" dur="9.3s" /><animate attributeName="stroke-dashoffset" from="150" to="0" dur="1.8s" begin="9.3s" fill="freeze" /></path><path d="M67.56,42.71c-2.96,8.36-10.9,21.14-17.06,25.88" class="stroke" stroke-dasharray="150"><set attributeName="opacity" to="0" dur="10.700000000000001s" /><animate attributeName="stroke-dashoffset" from="150" to="0" dur="1.8s" begin="10.700000000000001s" fill="freeze" /></path><path d="M67.89,43.51C70.42,46.5,82.3,61.47,85.05,64.4c0.93,1,1.73,1.42,2.66,1.71" class="stroke" stroke-dasharray="150"><set attributeName="opacity" to="0" dur="11.700000000000001s" /><animate attributeName="stroke-dashoffset" from="150" to="0" dur="1.8s" begin="11.700000000000001s" fill="freeze" /></path><path d="M46.47,88.62c9.02,0,34.48-1.85,46.93-2.22" class="stroke" stroke-dasharray="150"><set attributeName="opacity" to="0" dur="12.700000000000001s" /><animate attributeName="stroke-dashoffset" from="150" to="0" dur="1.8s" begin="12.700000000000001s" fill="freeze" /></path><text x="90" y="120" id="reset-kvg-068b1-Kaisho">⟳</text><text x="70" y="120" id="pause-kvg-068b1-Kaisho">◼</text><script type="text/javascript"><![CDATA[function RecurringTimer(e,t){var n,r,i=t;this.pause=function(){window.clearTimeout(n);i-=new Date-r};var s=function(){r=new Date;n=window.setTimeout(function(){i=t;s();e()},i)};this.clear=function(){window.clearTimeout(n);i=t;n=window.setTimeout(function(){i=t;s();e()},i)};this.resume=s;this.resume()}function invoketimer(){timer=new RecurringTimer(function(){svg.setCurrentTime(0)},14900.0)}var svg=document.getElementById("kvg-068b1-Kaisho");var pause=document.getElementById("pause-kvg-068b1-Kaisho");var reset=document.getElementById("reset-kvg-068b1-Kaisho");var timer;invoketimer();reset.onclick=function(){svg.setCurrentTime(0);timer.clear();svg.unpauseAnimations();pause.innerHTML = "◼";};pause.onclick=function(){if(svg.animationsPaused()){svg.unpauseAnimations();timer.resume();pause.innerHTML="◼"}else{svg.pauseAnimations();timer.pause();pause.innerHTML="▶"}}]]></script></svg>