<svg id="kvg-068d5" class="kanjivg" width="106" height="126" xmlns="http://www.w3.org/2000/svg" xmlns:xlink="http://www.w3.org/1999/xlink" xml:space="preserve" version="1.1" baseProfile="full"><defs><style type="text/css"><![CDATA[path.black{fill:none;stroke:black;stroke-width:5;stroke-linecap:round;stroke-linejoin:round;}path.grey{fill:none;stroke:#ddd;stroke-width:5;stroke-linecap:round;stroke-linejoin:round;}path.stroke{fill:none;stroke:black;stroke-width:5;stroke-linecap:round;stroke-linejoin:round;}rect{fill:none;stroke:#555;stroke-width:2;} text{font-size:16px;font-family:Segoe UI Symbol,Cambria Math,DejaVu Sans,Symbola,Quivira,STIX,Code2000;-webkit-touch-callout:none;cursor:pointer;-webkit-user-select:none;-khtml-user-select:none;-moz-user-select:none;-ms-user-select:none;user-select: none;}text:hover{color:#777;}#reset{font-weight:bold;}]]></style><marker id="markerStart" markerWidth="8" markerHeight="8" style="overflow:visible;"><circle cx="0" cy="0" r="1.5" style="stroke:none;fill:red;fill-opacity:0.5;"/></marker><marker id="markerEnd" style="overflow:visible;"><circle cx="0" cy="0" r="0.8" style="stroke:none;fill:blue;fill-opacity:0.5;"><animate attributeName="opacity" from="1" to="0" dur="3s" repeatCount="indefinite" /></circle></marker></defs><rect x="4" y="4" width="100" height="100" /><path d="M10.28,37.81c0.37,0.26,2.57,0.44,3.56,0.34c4.24-0.44,15.18-1.33,22-2.63c0.99-0.19,2.31-0.26,2.93,0" class="grey" /><path d="M24.86,15.5c0.91,0.47,2.54,2.5,2.54,4.42c0,0.95-0.12,69.75-0.3,75.58" class="grey" /><path d="M26.94,41.28c-5.1,15.04-7.94,21.4-15.83,34.56" class="grey" /><path d="M29.47,46.9c2.37,1.59,6.28,5.76,8.28,8.85" class="grey" /><path d="M65.13,12.5c1.09,0.38,2.65,2.27,2.63,3.38c-0.08,3.5-0.08,7.52-0.08,10.7" class="grey" /><path d="M47.5,27.81c0,2.96-2.86,12.48-4.16,14.45" class="grey" /><path d="M47.69,30.2c7.28-0.82,37.09-4.25,42.99-4.56c9.23-0.48,1.96,5.93-0.34,7.68" class="grey" /><path d="M53.35,43.99c0.67,0.27,1.89,0.35,2.56,0.27c4.25-0.47,18.37-2.19,22.88-2.26c1.11-0.02,1.78,0.13,2.34,0.27" class="grey" /><path d="M44.08,59.42c1.08,0.39,3.06,0.46,4.14,0.39c8.14-0.56,27.98-3.15,41.12-3.17c1.8,0,2.88,0.18,3.78,0.38" class="grey" /><path d="M66.86,61.59c0.07,0.37,1.36,1.92,1.42,4.27c0.31,11.26,0.25,22.55,0.25,26.39c0,8.15-3.5,2.93-6.74,0.19" class="grey" /><path d="M54.24,71.67c0.04,0.48,0.08,1.25-0.08,1.94c-0.94,4.09-7.8,12.08-15.23,17.58" class="grey" /><path d="M79.9,70.68c4.76,3.26,12.54,13.03,13.74,18.09" class="grey" /><path d="M10.28,37.81c0.37,0.26,2.57,0.44,3.56,0.34c4.24-0.44,15.18-1.33,22-2.63c0.99-0.19,2.31-0.26,2.93,0" class="stroke" stroke-dasharray="150"><animate attributeName="stroke-dashoffset" from="150" to="0" dur="1.8s" begin="0.0s" fill="freeze" /></path><path d="M24.86,15.5c0.91,0.47,2.54,2.5,2.54,4.42c0,0.95-0.12,69.75-0.3,75.58" class="stroke" stroke-dasharray="150"><set attributeName="opacity" to="0" dur="1.0s" /><animate attributeName="stroke-dashoffset" from="150" to="0" dur="1.8s" begin="1.0s" fill="freeze" /></path><path d="M26.94,41.28c-5.1,15.04-7.94,21.4-15.83,34.56" class="stroke" stroke-dasharray="150"><set attributeName="opacity" to="0" dur="2.7s" /><animate attributeName="stroke-dashoffset" from="150" to="0" dur="1.8s" begin="2.7s" fill="freeze" /></path><path d="M29.47,46.9c2.37,1.59,6.28,5.76,8.28,8.85" class="stroke" stroke-dasharray="150"><set attributeName="opacity" to="0" dur="3.7s" /><animate attributeName="stroke-dashoffset" from="150" to="0" dur="1.8s" begin="3.7s" fill="freeze" /></path><path d="M65.13,12.5c1.09,0.38,2.65,2.27,2.63,3.38c-0.08,3.5-0.08,7.52-0.08,10.7" class="stroke" stroke-dasharray="150"><set attributeName="opacity" to="0" dur="4.6000000000000005s" /><animate attributeName="stroke-dashoffset" from="150" to="0" dur="1.8s" begin="4.6000000000000005s" fill="freeze" /></path><path d="M47.5,27.81c0,2.96-2.86,12.48-4.16,14.45" class="stroke" stroke-dasharray="150"><set attributeName="opacity" to="0" dur="5.500000000000001s" /><animate attributeName="stroke-dashoffset" from="150" to="0" dur="1.8s" begin="5.500000000000001s" fill="freeze" /></path><path d="M47.69,30.2c7.28-0.82,37.09-4.25,42.99-4.56c9.23-0.48,1.96,5.93-0.34,7.68" class="stroke" stroke-dasharray="150"><set attributeName="opacity" to="0" dur="6.400000000000001s" /><animate attributeName="stroke-dashoffset" from="150" to="0" dur="1.8s" begin="6.400000000000001s" fill="freeze" /></path><path d="M53.35,43.99c0.67,0.27,1.89,0.35,2.56,0.27c4.25-0.47,18.37-2.19,22.88-2.26c1.11-0.02,1.78,0.13,2.34,0.27" class="stroke" stroke-dasharray="150"><set attributeName="opacity" to="0" dur="7.800000000000001s" /><animate attributeName="stroke-dashoffset" from="150" to="0" dur="1.8s" begin="7.800000000000001s" fill="freeze" /></path><path d="M44.08,59.42c1.08,0.39,3.06,0.46,4.14,0.39c8.14-0.56,27.98-3.15,41.12-3.17c1.8,0,2.88,0.18,3.78,0.38" class="stroke" stroke-dasharray="150"><set attributeName="opacity" to="0" dur="8.8s" /><animate attributeName="stroke-dashoffset" from="150" to="0" dur="1.8s" begin="8.8s" fill="freeze" /></path><path d="M66.86,61.59c0.07,0.37,1.36,1.92,1.42,4.27c0.31,11.26,0.25,22.55,0.25,26.39c0,8.15-3.5,2.93-6.74,0.19" class="stroke" stroke-dasharray="150"><set attributeName="opacity" to="0" dur="10.0s" /><animate attributeName="stroke-dashoffset" from="150" to="0" dur="1.8s" begin="10.0s" fill="freeze" /></path><path d="M54.24,71.67c0.04,0.48,0.08,1.25-0.08,1.94c-0.94,4.09-7.8,12.08-15.23,17.58" class="stroke" stroke-dasharray="150"><set attributeName="opacity" to="0" dur="11.1s" /><animate attributeName="stroke-dashoffset" from="150" to="0" dur="1.8s" begin="11.1s" fill="freeze" /></path><path d="M79.9,70.68c4.76,3.26,12.54,13.03,13.74,18.09" class="stroke" stroke-dasharray="150"><set attributeName="opacity" to="0" dur="12.1s" /><animate attributeName="stroke-dashoffset" from="150" to="0" dur="1.8s" begin="12.1s" fill="freeze" /></path><text x="90" y="120" id="reset-kvg-068d5">⟳</text><text x="70" y="120" id="pause-kvg-068d5">◼</text><script type="text/javascript"><![CDATA[function RecurringTimer(e,t){var n,r,i=t;this.pause=function(){window.clearTimeout(n);i-=new Date-r};var s=function(){r=new Date;n=window.setTimeout(function(){i=t;s();e()},i)};this.clear=function(){window.clearTimeout(n);i=t;n=window.setTimeout(function(){i=t;s();e()},i)};this.resume=s;this.resume()}function invoketimer(){timer=new RecurringTimer(function(){svg.setCurrentTime(0)},14100.0)}var svg=document.getElementById("kvg-068d5");var pause=document.getElementById("pause-kvg-068d5");var reset=document.getElementById("reset-kvg-068d5");var timer;invoketimer();reset.onclick=function(){svg.setCurrentTime(0);timer.clear();svg.unpauseAnimations();pause.innerHTML = "◼";};pause.onclick=function(){if(svg.animationsPaused()){svg.unpauseAnimations();timer.resume();pause.innerHTML="◼"}else{svg.pauseAnimations();timer.pause();pause.innerHTML="▶"}}]]></script></svg>