<svg id="kvg-06953" class="kanjivg" width="106" height="126" xmlns="http://www.w3.org/2000/svg" xmlns:xlink="http://www.w3.org/1999/xlink" xml:space="preserve" version="1.1" baseProfile="full"><defs><style type="text/css"><![CDATA[path.black{fill:none;stroke:black;stroke-width:5;stroke-linecap:round;stroke-linejoin:round;}path.grey{fill:none;stroke:#ddd;stroke-width:5;stroke-linecap:round;stroke-linejoin:round;}path.stroke{fill:none;stroke:black;stroke-width:5;stroke-linecap:round;stroke-linejoin:round;}rect{fill:none;stroke:#555;stroke-width:2;} text{font-size:16px;font-family:Segoe UI Symbol,Cambria Math,DejaVu Sans,Symbola,Quivira,STIX,Code2000;-webkit-touch-callout:none;cursor:pointer;-webkit-user-select:none;-khtml-user-select:none;-moz-user-select:none;-ms-user-select:none;user-select: none;}text:hover{color:#777;}#reset{font-weight:bold;}]]></style><marker id="markerStart" markerWidth="8" markerHeight="8" style="overflow:visible;"><circle cx="0" cy="0" r="1.5" style="stroke:none;fill:red;fill-opacity:0.5;"/></marker><marker id="markerEnd" style="overflow:visible;"><circle cx="0" cy="0" r="0.8" style="stroke:none;fill:blue;fill-opacity:0.5;"><animate attributeName="opacity" from="1" to="0" dur="3s" repeatCount="indefinite" /></circle></marker></defs><rect x="4" y="4" width="100" height="100" /><path d="M10.78,37.97c1.24,0.86,4.74,0.39,6.12,0.18c4.67-0.73,12.58-2.38,17.87-3.43c1.26-0.25,2.48-0.59,4.5-0.35" class="grey" /><path d="M27.36,15.25c1.07,1.07,1.54,2.38,1.54,3.92c0,5.31-0.02,45.78-0.02,65.45c0,4.23,0,7.5,0,9.25" class="grey" /><path d="M28.38,38.62c0,1.38-0.67,3.66-1.17,4.9c-4.14,10.25-10.41,22.65-16.34,30.56" class="grey" /><path d="M31.38,46.5c2.26,1.78,5.97,7.55,7.88,11" class="grey" /><path d="M45.33,17.98c1.1,1.1,1.15,2.4,1.15,4.13c0,22.12,0.78,50.64-9.47,65.89" class="grey" /><path d="M47.35,19.55C57.5,18,77.81,15.5,80.8,15.5s4.31,1.01,4.11,4.98c-1.17,23.77-0.79,50.77,8.1,65.57c4.07,6.77,4.74,3.21,4.49-3.14" class="grey" /><path d="M75.08,22.62c-0.08,1-0.53,1.76-1.43,2.3c-2.88,2.62-10.64,6.52-20.38,9.21" class="grey" /><path d="M52.51,43.58c0.83,0.83,1.24,1.67,1.48,2.8c0.73,3.53,1.05,6.59,1.92,13c0.15,1.1,0.32,2.29,0.5,3.61" class="grey" /><path d="M54.34,44.78c7.3-0.94,14.49-1.85,19.54-2.32c2.01-0.19,3.74,0.35,3.38,2.83c-0.62,4.3-1.64,9.45-2.48,13.68" class="grey" /><path d="M57.6,61.02c4.39-0.31,9.15-0.69,14.78-0.92c1.46-0.06,2.98-0.1,4.57-0.14" class="grey" /><path d="M64.84,33.19c0.67,0.67,0.96,1.81,0.96,3.19c0,6.83-0.06,37.22-0.06,41.37" class="grey" /><path d="M51.81,81.14c1.34,1.55,2.49,1.76,4.41,1.1c6.16-2.12,13.48-4.53,20.03-6.99" class="grey" /><path d="M73.75,68.25c2.2,2.94,6.71,11.21,7.46,15.04" class="grey" /><path d="M10.78,37.97c1.24,0.86,4.74,0.39,6.12,0.18c4.67-0.73,12.58-2.38,17.87-3.43c1.26-0.25,2.48-0.59,4.5-0.35" class="stroke" stroke-dasharray="150"><animate attributeName="stroke-dashoffset" from="150" to="0" dur="1.8s" begin="0.0s" fill="freeze" /></path><path d="M27.36,15.25c1.07,1.07,1.54,2.38,1.54,3.92c0,5.31-0.02,45.78-0.02,65.45c0,4.23,0,7.5,0,9.25" class="stroke" stroke-dasharray="150"><set attributeName="opacity" to="0" dur="1.0s" /><animate attributeName="stroke-dashoffset" from="150" to="0" dur="1.8s" begin="1.0s" fill="freeze" /></path><path d="M28.38,38.62c0,1.38-0.67,3.66-1.17,4.9c-4.14,10.25-10.41,22.65-16.34,30.56" class="stroke" stroke-dasharray="150"><set attributeName="opacity" to="0" dur="2.7s" /><animate attributeName="stroke-dashoffset" from="150" to="0" dur="1.8s" begin="2.7s" fill="freeze" /></path><path d="M31.38,46.5c2.26,1.78,5.97,7.55,7.88,11" class="stroke" stroke-dasharray="150"><set attributeName="opacity" to="0" dur="3.7s" /><animate attributeName="stroke-dashoffset" from="150" to="0" dur="1.8s" begin="3.7s" fill="freeze" /></path><path d="M45.33,17.98c1.1,1.1,1.15,2.4,1.15,4.13c0,22.12,0.78,50.64-9.47,65.89" class="stroke" stroke-dasharray="150"><set attributeName="opacity" to="0" dur="4.6000000000000005s" /><animate attributeName="stroke-dashoffset" from="150" to="0" dur="1.8s" begin="4.6000000000000005s" fill="freeze" /></path><path d="M47.35,19.55C57.5,18,77.81,15.5,80.8,15.5s4.31,1.01,4.11,4.98c-1.17,23.77-0.79,50.77,8.1,65.57c4.07,6.77,4.74,3.21,4.49-3.14" class="stroke" stroke-dasharray="150"><set attributeName="opacity" to="0" dur="6.300000000000001s" /><animate attributeName="stroke-dashoffset" from="150" to="0" dur="1.8s" begin="6.300000000000001s" fill="freeze" /></path><path d="M75.08,22.62c-0.08,1-0.53,1.76-1.43,2.3c-2.88,2.62-10.64,6.52-20.38,9.21" class="stroke" stroke-dasharray="150"><set attributeName="opacity" to="0" dur="8.3s" /><animate attributeName="stroke-dashoffset" from="150" to="0" dur="1.8s" begin="8.3s" fill="freeze" /></path><path d="M52.51,43.58c0.83,0.83,1.24,1.67,1.48,2.8c0.73,3.53,1.05,6.59,1.92,13c0.15,1.1,0.32,2.29,0.5,3.61" class="stroke" stroke-dasharray="150"><set attributeName="opacity" to="0" dur="9.3s" /><animate attributeName="stroke-dashoffset" from="150" to="0" dur="1.8s" begin="9.3s" fill="freeze" /></path><path d="M54.34,44.78c7.3-0.94,14.49-1.85,19.54-2.32c2.01-0.19,3.74,0.35,3.38,2.83c-0.62,4.3-1.64,9.45-2.48,13.68" class="stroke" stroke-dasharray="150"><set attributeName="opacity" to="0" dur="10.3s" /><animate attributeName="stroke-dashoffset" from="150" to="0" dur="1.8s" begin="10.3s" fill="freeze" /></path><path d="M57.6,61.02c4.39-0.31,9.15-0.69,14.78-0.92c1.46-0.06,2.98-0.1,4.57-0.14" class="stroke" stroke-dasharray="150"><set attributeName="opacity" to="0" dur="11.3s" /><animate attributeName="stroke-dashoffset" from="150" to="0" dur="1.8s" begin="11.3s" fill="freeze" /></path><path d="M64.84,33.19c0.67,0.67,0.96,1.81,0.96,3.19c0,6.83-0.06,37.22-0.06,41.37" class="stroke" stroke-dasharray="150"><set attributeName="opacity" to="0" dur="12.200000000000001s" /><animate attributeName="stroke-dashoffset" from="150" to="0" dur="1.8s" begin="12.200000000000001s" fill="freeze" /></path><path d="M51.81,81.14c1.34,1.55,2.49,1.76,4.41,1.1c6.16-2.12,13.48-4.53,20.03-6.99" class="stroke" stroke-dasharray="150"><set attributeName="opacity" to="0" dur="13.3s" /><animate attributeName="stroke-dashoffset" from="150" to="0" dur="1.8s" begin="13.3s" fill="freeze" /></path><path d="M73.75,68.25c2.2,2.94,6.71,11.21,7.46,15.04" class="stroke" stroke-dasharray="150"><set attributeName="opacity" to="0" dur="14.3s" /><animate attributeName="stroke-dashoffset" from="150" to="0" dur="1.8s" begin="14.3s" fill="freeze" /></path><text x="90" y="120" id="reset-kvg-06953">⟳</text><text x="70" y="120" id="pause-kvg-06953">◼</text><script type="text/javascript"><![CDATA[function RecurringTimer(e,t){var n,r,i=t;this.pause=function(){window.clearTimeout(n);i-=new Date-r};var s=function(){r=new Date;n=window.setTimeout(function(){i=t;s();e()},i)};this.clear=function(){window.clearTimeout(n);i=t;n=window.setTimeout(function(){i=t;s();e()},i)};this.resume=s;this.resume()}function invoketimer(){timer=new RecurringTimer(function(){svg.setCurrentTime(0)},16200.000000000002)}var svg=document.getElementById("kvg-06953");var pause=document.getElementById("pause-kvg-06953");var reset=document.getElementById("reset-kvg-06953");var timer;invoketimer();reset.onclick=function(){svg.setCurrentTime(0);timer.clear();svg.unpauseAnimations();pause.innerHTML = "◼";};pause.onclick=function(){if(svg.animationsPaused()){svg.unpauseAnimations();timer.resume();pause.innerHTML="◼"}else{svg.pauseAnimations();timer.pause();pause.innerHTML="▶"}}]]></script></svg>