<svg id="kvg-06962" class="kanjivg" width="106" height="126" xmlns="http://www.w3.org/2000/svg" xmlns:xlink="http://www.w3.org/1999/xlink" xml:space="preserve" version="1.1" baseProfile="full"><defs><style type="text/css"><![CDATA[path.black{fill:none;stroke:black;stroke-width:5;stroke-linecap:round;stroke-linejoin:round;}path.grey{fill:none;stroke:#ddd;stroke-width:5;stroke-linecap:round;stroke-linejoin:round;}path.stroke{fill:none;stroke:black;stroke-width:5;stroke-linecap:round;stroke-linejoin:round;}rect{fill:none;stroke:#555;stroke-width:2;} text{font-size:16px;font-family:Segoe UI Symbol,Cambria Math,DejaVu Sans,Symbola,Quivira,STIX,Code2000;-webkit-touch-callout:none;cursor:pointer;-webkit-user-select:none;-khtml-user-select:none;-moz-user-select:none;-ms-user-select:none;user-select: none;}text:hover{color:#777;}#reset{font-weight:bold;}]]></style><marker id="markerStart" markerWidth="8" markerHeight="8" style="overflow:visible;"><circle cx="0" cy="0" r="1.5" style="stroke:none;fill:red;fill-opacity:0.5;"/></marker><marker id="markerEnd" style="overflow:visible;"><circle cx="0" cy="0" r="0.8" style="stroke:none;fill:blue;fill-opacity:0.5;"><animate attributeName="opacity" from="1" to="0" dur="3s" repeatCount="indefinite" /></circle></marker></defs><rect x="4" y="4" width="100" height="100" /><path d="M13.28,40.22c0.35,0.24,2.39,0.41,3.31,0.31c3.94-0.41,16.12-1.71,22.45-2.91c0.92-0.17,1.15-0.24,1.73,0" class="grey" /><path d="M28.86,15.5c0.91,0.47,2.54,2.25,2.54,4.42c0,0.95-0.12,71.75-0.3,77.58" class="grey" /><path d="M30.94,41.28c-5.34,15.04-8.31,21.4-16.58,34.56" class="grey" /><path d="M34.47,48.65c2.37,1.81,5.66,5.88,7.66,9.39" class="grey" /><path d="M56.98,16.66c0.03,0.43,0.06,1.11-0.06,1.72c-0.73,3.63-4.93,11.61-10.67,16.49" class="grey" /><path d="M67.91,13.75c5.03,0.87,20.61,14.32,24.54,16.66c1.33,0.79,2.47,1.13,3.8,1.36" class="grey" /><path d="M53.47,34.31c1.03,0.46,2.91,0.56,3.95,0.46c9.15-0.93,18.26-2.69,23.93-2.94c1.71-0.08,2.75,0.22,3.61,0.45" class="grey" /><path d="M49.92,47.57c0.84,1.09,1.16,3.7,1.16,5.15c0,1.45,0.05,44.94,0.05,45.37" class="grey" /><path d="M51.29,49.31c3.18-0.18,33.2-3.31,35.91-3.43c2.25-0.11,4,1.79,4,4.18c0,1.34-0.91,37.16-0.9,46.43" class="grey" /><path d="M62.79,34.52c0.3,1.36,0.69,2.54,0.71,4.01c0.19,15.43-0.39,24.85-7.49,32.74" class="grey" /><path d="M73.43,35.38c0.56,1.05,1.01,2.28,1.04,3.89c0.11,5.12-0.25,14.56-0.3,20.88c-0.04,5.49,1.58,6.17,6.95,6.17c3.4,0,6.78-0.68,7.17-1.3" class="grey" /><path d="M51.44,81.18c3.91,0,34.64-2.11,39.05-2.11" class="grey" /><path d="M51.52,93.85c7.89-0.29,28.52-1.74,38.34-1.98" class="grey" /><path d="M13.28,40.22c0.35,0.24,2.39,0.41,3.31,0.31c3.94-0.41,16.12-1.71,22.45-2.91c0.92-0.17,1.15-0.24,1.73,0" class="stroke" stroke-dasharray="150"><animate attributeName="stroke-dashoffset" from="150" to="0" dur="1.8s" begin="0.0s" fill="freeze" /></path><path d="M28.86,15.5c0.91,0.47,2.54,2.25,2.54,4.42c0,0.95-0.12,71.75-0.3,77.58" class="stroke" stroke-dasharray="150"><set attributeName="opacity" to="0" dur="1.0s" /><animate attributeName="stroke-dashoffset" from="150" to="0" dur="1.8s" begin="1.0s" fill="freeze" /></path><path d="M30.94,41.28c-5.34,15.04-8.31,21.4-16.58,34.56" class="stroke" stroke-dasharray="150"><set attributeName="opacity" to="0" dur="2.7s" /><animate attributeName="stroke-dashoffset" from="150" to="0" dur="1.8s" begin="2.7s" fill="freeze" /></path><path d="M34.47,48.65c2.37,1.81,5.66,5.88,7.66,9.39" class="stroke" stroke-dasharray="150"><set attributeName="opacity" to="0" dur="3.7s" /><animate attributeName="stroke-dashoffset" from="150" to="0" dur="1.8s" begin="3.7s" fill="freeze" /></path><path d="M56.98,16.66c0.03,0.43,0.06,1.11-0.06,1.72c-0.73,3.63-4.93,11.61-10.67,16.49" class="stroke" stroke-dasharray="150"><set attributeName="opacity" to="0" dur="4.6000000000000005s" /><animate attributeName="stroke-dashoffset" from="150" to="0" dur="1.8s" begin="4.6000000000000005s" fill="freeze" /></path><path d="M67.91,13.75c5.03,0.87,20.61,14.32,24.54,16.66c1.33,0.79,2.47,1.13,3.8,1.36" class="stroke" stroke-dasharray="150"><set attributeName="opacity" to="0" dur="5.6000000000000005s" /><animate attributeName="stroke-dashoffset" from="150" to="0" dur="1.8s" begin="5.6000000000000005s" fill="freeze" /></path><path d="M53.47,34.31c1.03,0.46,2.91,0.56,3.95,0.46c9.15-0.93,18.26-2.69,23.93-2.94c1.71-0.08,2.75,0.22,3.61,0.45" class="stroke" stroke-dasharray="150"><set attributeName="opacity" to="0" dur="6.6000000000000005s" /><animate attributeName="stroke-dashoffset" from="150" to="0" dur="1.8s" begin="6.6000000000000005s" fill="freeze" /></path><path d="M49.92,47.57c0.84,1.09,1.16,3.7,1.16,5.15c0,1.45,0.05,44.94,0.05,45.37" class="stroke" stroke-dasharray="150"><set attributeName="opacity" to="0" dur="7.6000000000000005s" /><animate attributeName="stroke-dashoffset" from="150" to="0" dur="1.8s" begin="7.6000000000000005s" fill="freeze" /></path><path d="M51.29,49.31c3.18-0.18,33.2-3.31,35.91-3.43c2.25-0.11,4,1.79,4,4.18c0,1.34-0.91,37.16-0.9,46.43" class="stroke" stroke-dasharray="150"><set attributeName="opacity" to="0" dur="8.9s" /><animate attributeName="stroke-dashoffset" from="150" to="0" dur="1.8s" begin="8.9s" fill="freeze" /></path><path d="M62.79,34.52c0.3,1.36,0.69,2.54,0.71,4.01c0.19,15.43-0.39,24.85-7.49,32.74" class="stroke" stroke-dasharray="150"><set attributeName="opacity" to="0" dur="10.6s" /><animate attributeName="stroke-dashoffset" from="150" to="0" dur="1.8s" begin="10.6s" fill="freeze" /></path><path d="M73.43,35.38c0.56,1.05,1.01,2.28,1.04,3.89c0.11,5.12-0.25,14.56-0.3,20.88c-0.04,5.49,1.58,6.17,6.95,6.17c3.4,0,6.78-0.68,7.17-1.3" class="stroke" stroke-dasharray="150"><set attributeName="opacity" to="0" dur="11.6s" /><animate attributeName="stroke-dashoffset" from="150" to="0" dur="1.8s" begin="11.6s" fill="freeze" /></path><path d="M51.44,81.18c3.91,0,34.64-2.11,39.05-2.11" class="stroke" stroke-dasharray="150"><set attributeName="opacity" to="0" dur="12.7s" /><animate attributeName="stroke-dashoffset" from="150" to="0" dur="1.8s" begin="12.7s" fill="freeze" /></path><path d="M51.52,93.85c7.89-0.29,28.52-1.74,38.34-1.98" class="stroke" stroke-dasharray="150"><set attributeName="opacity" to="0" dur="13.7s" /><animate attributeName="stroke-dashoffset" from="150" to="0" dur="1.8s" begin="13.7s" fill="freeze" /></path><text x="90" y="120" id="reset-kvg-06962">⟳</text><text x="70" y="120" id="pause-kvg-06962">◼</text><script type="text/javascript"><![CDATA[function RecurringTimer(e,t){var n,r,i=t;this.pause=function(){window.clearTimeout(n);i-=new Date-r};var s=function(){r=new Date;n=window.setTimeout(function(){i=t;s();e()},i)};this.clear=function(){window.clearTimeout(n);i=t;n=window.setTimeout(function(){i=t;s();e()},i)};this.resume=s;this.resume()}function invoketimer(){timer=new RecurringTimer(function(){svg.setCurrentTime(0)},15700.0)}var svg=document.getElementById("kvg-06962");var pause=document.getElementById("pause-kvg-06962");var reset=document.getElementById("reset-kvg-06962");var timer;invoketimer();reset.onclick=function(){svg.setCurrentTime(0);timer.clear();svg.unpauseAnimations();pause.innerHTML = "◼";};pause.onclick=function(){if(svg.animationsPaused()){svg.unpauseAnimations();timer.resume();pause.innerHTML="◼"}else{svg.pauseAnimations();timer.pause();pause.innerHTML="▶"}}]]></script></svg>