<svg id="kvg-0697c-Kaisho" class="kanjivg" width="106" height="126" xmlns="http://www.w3.org/2000/svg" xmlns:xlink="http://www.w3.org/1999/xlink" xml:space="preserve" version="1.1" baseProfile="full"><defs><style type="text/css"><![CDATA[path.black{fill:none;stroke:black;stroke-width:5;stroke-linecap:round;stroke-linejoin:round;}path.grey{fill:none;stroke:#ddd;stroke-width:5;stroke-linecap:round;stroke-linejoin:round;}path.stroke{fill:none;stroke:black;stroke-width:5;stroke-linecap:round;stroke-linejoin:round;}rect{fill:none;stroke:#555;stroke-width:2;} text{font-size:16px;font-family:Segoe UI Symbol,Cambria Math,DejaVu Sans,Symbola,Quivira,STIX,Code2000;-webkit-touch-callout:none;cursor:pointer;-webkit-user-select:none;-khtml-user-select:none;-moz-user-select:none;-ms-user-select:none;user-select: none;}text:hover{color:#777;}#reset{font-weight:bold;}]]></style><marker id="markerStart" markerWidth="8" markerHeight="8" style="overflow:visible;"><circle cx="0" cy="0" r="1.5" style="stroke:none;fill:red;fill-opacity:0.5;"/></marker><marker id="markerEnd" style="overflow:visible;"><circle cx="0" cy="0" r="0.8" style="stroke:none;fill:blue;fill-opacity:0.5;"><animate attributeName="opacity" from="1" to="0" dur="3s" repeatCount="indefinite" /></circle></marker></defs><rect x="4" y="4" width="100" height="100" /><path d="M12.03,40.47c0.35,0.24,2.39,0.41,3.31,0.31c3.94-0.41,16.12-1.21,22.45-2.41c0.92-0.17,2.15-0.24,2.73,0" class="grey" /><path d="M26.61,15.25c0.91,0.47,2.54,2.25,2.54,4.92c0,0.95-0.3,70.23-0.3,71.08c0,10.75-4.22,3.62-6.1,1.75" class="grey" /><path d="M28.69,42.03c-5.1,15.04-7.94,20.4-15.83,33.56" class="grey" /><path d="M31.22,45.65c2.73,1.32,7.22,4.79,9.53,7.35" class="grey" /><path d="M48.47,21.22c2.52,1.83,6.32,6.99,6.96,9.84" class="grey" /><path d="M83.21,16.95c0.02,0.27,0.04,0.69-0.04,1.07c-0.48,2.26-3.24,7.23-7.02,10.27" class="grey" /><path d="M44.92,35.81c0.51,0.17,1.88,0.45,3.25,0.51c3.76,0.17,34.05-4.45,40.04-4.11c1.37,0.08,1.71-0.17,2.57,0" class="grey" /><path d="M64.97,13.25c0.79,0.32,1.26,1.42,1.42,2.05s0,33.49-0.16,37.45" class="grey" /><path d="M65.47,34.59c-4.1,7.63-14.07,18.35-23.3,22.75" class="grey" /><path d="M66.97,35.04c3.54,2.35,19.05,13.47,22.89,15.78c1.3,0.78,2.42,1.12,3.72,1.34" class="grey" /><path d="M64.29,56.37c0.36,1.09,0.32,2.52-0.18,3.81c-2.36,6.07-6.31,12.86-10.85,20.48c-0.99,1.66-0.2,1.98,0.54,2c10.52,0.18,27.44,5.6,34.7,14.37" class="grey" /><path d="M80.38,63.82c0.1,0.8,0.18,2.73-0.21,3.89c-3.12,9.34-12.11,22.59-34.39,29.54" class="grey" /><path d="M38.76,68.45c1.54,0.41,3.18,0.69,3.92,0.63c15.58-1.31,35.71-3.67,50.59-3.85c1.23-0.01,3.35,0.25,4.35,0.73" class="grey" /><path d="M12.03,40.47c0.35,0.24,2.39,0.41,3.31,0.31c3.94-0.41,16.12-1.21,22.45-2.41c0.92-0.17,2.15-0.24,2.73,0" class="stroke" stroke-dasharray="150"><animate attributeName="stroke-dashoffset" from="150" to="0" dur="1.8s" begin="0.0s" fill="freeze" /></path><path d="M26.61,15.25c0.91,0.47,2.54,2.25,2.54,4.92c0,0.95-0.3,70.23-0.3,71.08c0,10.75-4.22,3.62-6.1,1.75" class="stroke" stroke-dasharray="150"><set attributeName="opacity" to="0" dur="1.0s" /><animate attributeName="stroke-dashoffset" from="150" to="0" dur="1.8s" begin="1.0s" fill="freeze" /></path><path d="M28.69,42.03c-5.1,15.04-7.94,20.4-15.83,33.56" class="stroke" stroke-dasharray="150"><set attributeName="opacity" to="0" dur="2.7s" /><animate attributeName="stroke-dashoffset" from="150" to="0" dur="1.8s" begin="2.7s" fill="freeze" /></path><path d="M31.22,45.65c2.73,1.32,7.22,4.79,9.53,7.35" class="stroke" stroke-dasharray="150"><set attributeName="opacity" to="0" dur="3.7s" /><animate attributeName="stroke-dashoffset" from="150" to="0" dur="1.8s" begin="3.7s" fill="freeze" /></path><path d="M48.47,21.22c2.52,1.83,6.32,6.99,6.96,9.84" class="stroke" stroke-dasharray="150"><set attributeName="opacity" to="0" dur="4.6000000000000005s" /><animate attributeName="stroke-dashoffset" from="150" to="0" dur="1.8s" begin="4.6000000000000005s" fill="freeze" /></path><path d="M83.21,16.95c0.02,0.27,0.04,0.69-0.04,1.07c-0.48,2.26-3.24,7.23-7.02,10.27" class="stroke" stroke-dasharray="150"><set attributeName="opacity" to="0" dur="5.500000000000001s" /><animate attributeName="stroke-dashoffset" from="150" to="0" dur="1.8s" begin="5.500000000000001s" fill="freeze" /></path><path d="M44.92,35.81c0.51,0.17,1.88,0.45,3.25,0.51c3.76,0.17,34.05-4.45,40.04-4.11c1.37,0.08,1.71-0.17,2.57,0" class="stroke" stroke-dasharray="150"><set attributeName="opacity" to="0" dur="6.400000000000001s" /><animate attributeName="stroke-dashoffset" from="150" to="0" dur="1.8s" begin="6.400000000000001s" fill="freeze" /></path><path d="M64.97,13.25c0.79,0.32,1.26,1.42,1.42,2.05s0,33.49-0.16,37.45" class="stroke" stroke-dasharray="150"><set attributeName="opacity" to="0" dur="7.600000000000001s" /><animate attributeName="stroke-dashoffset" from="150" to="0" dur="1.8s" begin="7.600000000000001s" fill="freeze" /></path><path d="M65.47,34.59c-4.1,7.63-14.07,18.35-23.3,22.75" class="stroke" stroke-dasharray="150"><set attributeName="opacity" to="0" dur="8.700000000000001s" /><animate attributeName="stroke-dashoffset" from="150" to="0" dur="1.8s" begin="8.700000000000001s" fill="freeze" /></path><path d="M66.97,35.04c3.54,2.35,19.05,13.47,22.89,15.78c1.3,0.78,2.42,1.12,3.72,1.34" class="stroke" stroke-dasharray="150"><set attributeName="opacity" to="0" dur="9.700000000000001s" /><animate attributeName="stroke-dashoffset" from="150" to="0" dur="1.8s" begin="9.700000000000001s" fill="freeze" /></path><path d="M64.29,56.37c0.36,1.09,0.32,2.52-0.18,3.81c-2.36,6.07-6.31,12.86-10.85,20.48c-0.99,1.66-0.2,1.98,0.54,2c10.52,0.18,27.44,5.6,34.7,14.37" class="stroke" stroke-dasharray="150"><set attributeName="opacity" to="0" dur="10.700000000000001s" /><animate attributeName="stroke-dashoffset" from="150" to="0" dur="1.8s" begin="10.700000000000001s" fill="freeze" /></path><path d="M80.38,63.82c0.1,0.8,0.18,2.73-0.21,3.89c-3.12,9.34-12.11,22.59-34.39,29.54" class="stroke" stroke-dasharray="150"><set attributeName="opacity" to="0" dur="12.200000000000001s" /><animate attributeName="stroke-dashoffset" from="150" to="0" dur="1.8s" begin="12.200000000000001s" fill="freeze" /></path><path d="M38.76,68.45c1.54,0.41,3.18,0.69,3.92,0.63c15.58-1.31,35.71-3.67,50.59-3.85c1.23-0.01,3.35,0.25,4.35,0.73" class="stroke" stroke-dasharray="150"><set attributeName="opacity" to="0" dur="13.500000000000002s" /><animate attributeName="stroke-dashoffset" from="150" to="0" dur="1.8s" begin="13.500000000000002s" fill="freeze" /></path><text x="90" y="120" id="reset-kvg-0697c-Kaisho">⟳</text><text x="70" y="120" id="pause-kvg-0697c-Kaisho">◼</text><script type="text/javascript"><![CDATA[function RecurringTimer(e,t){var n,r,i=t;this.pause=function(){window.clearTimeout(n);i-=new Date-r};var s=function(){r=new Date;n=window.setTimeout(function(){i=t;s();e()},i)};this.clear=function(){window.clearTimeout(n);i=t;n=window.setTimeout(function(){i=t;s();e()},i)};this.resume=s;this.resume()}function invoketimer(){timer=new RecurringTimer(function(){svg.setCurrentTime(0)},15900.000000000002)}var svg=document.getElementById("kvg-0697c-Kaisho");var pause=document.getElementById("pause-kvg-0697c-Kaisho");var reset=document.getElementById("reset-kvg-0697c-Kaisho");var timer;invoketimer();reset.onclick=function(){svg.setCurrentTime(0);timer.clear();svg.unpauseAnimations();pause.innerHTML = "◼";};pause.onclick=function(){if(svg.animationsPaused()){svg.unpauseAnimations();timer.resume();pause.innerHTML="◼"}else{svg.pauseAnimations();timer.pause();pause.innerHTML="▶"}}]]></script></svg>