<svg id="kvg-0697d" class="kanjivg" width="106" height="126" xmlns="http://www.w3.org/2000/svg" xmlns:xlink="http://www.w3.org/1999/xlink" xml:space="preserve" version="1.1" baseProfile="full"><defs><style type="text/css"><![CDATA[path.black{fill:none;stroke:black;stroke-width:5;stroke-linecap:round;stroke-linejoin:round;}path.grey{fill:none;stroke:#ddd;stroke-width:5;stroke-linecap:round;stroke-linejoin:round;}path.stroke{fill:none;stroke:black;stroke-width:5;stroke-linecap:round;stroke-linejoin:round;}rect{fill:none;stroke:#555;stroke-width:2;} text{font-size:16px;font-family:Segoe UI Symbol,Cambria Math,DejaVu Sans,Symbola,Quivira,STIX,Code2000;-webkit-touch-callout:none;cursor:pointer;-webkit-user-select:none;-khtml-user-select:none;-moz-user-select:none;-ms-user-select:none;user-select: none;}text:hover{color:#777;}#reset{font-weight:bold;}]]></style><marker id="markerStart" markerWidth="8" markerHeight="8" style="overflow:visible;"><circle cx="0" cy="0" r="1.5" style="stroke:none;fill:red;fill-opacity:0.5;"/></marker><marker id="markerEnd" style="overflow:visible;"><circle cx="0" cy="0" r="0.8" style="stroke:none;fill:blue;fill-opacity:0.5;"><animate attributeName="opacity" from="1" to="0" dur="3s" repeatCount="indefinite" /></circle></marker></defs><rect x="4" y="4" width="100" height="100" /><path d="M52.99,11c0.01,1-0.13,1.85-0.49,2.5c-0.96,2.28-4.06,5.8-6.91,8.18" class="grey" /><path d="M40.25,22.82c1.02,1.2,1.52,2.13,1.59,3.43c0.18,3.66,0.58,14.52,0.93,21.23c0.1,1.93,0.18,3.01,0.21,3.94" class="grey" /><path d="M42.02,23.77c0.46-0.02,19.25-2.12,20.85-2.23c1.68-0.12,2.64,1.22,2.64,2.27c0,1.24-0.89,14.65-1.22,23.45c-0.06,1.57-0.1,2.48-0.14,3.64" class="grey" /><path d="M43.41,36.12c3,0,17.27-1.75,20.66-1.75" class="grey" /><path d="M44.13,49.6c4.43,0,13.11-1.01,18.85-1.01" class="grey" /><path d="M20.22,20c3.89,1.72,10.05,7.07,11.03,9.75" class="grey" /><path d="M16.92,54.38c1.46,0.87,2.81,0.38,3.89-0.5c1.05-0.85,7.42-7.56,11.44-11.88" class="grey" /><path d="M87.2,17.13c0.02,0.99-0.24,1.86-0.76,2.61c-1.67,2.73-6.03,7.12-9.69,9.26" class="grey" /><path d="M77,40.5c5.12,2.03,12,7.25,14.5,11.5" class="grey" /><path d="M17.28,67.66c1.48,0.19,5.44,0.92,9.36,0.57c15.23-1.35,38.23-3.6,56.2-4.19c3.93-0.13,6.61-0.04,9.11,0.5" class="grey" /><path d="M52.45,54.75c1.05,1,1.63,2.66,1.65,3.74c0.09,4.69,0,25.11-0.12,34.76c-0.03,2.4-0.06,4.12-0.09,4.74" class="grey" /><path d="M49.25,66.75c0,1.25-1.14,2.74-1.81,3.63C40.9,79.16,28.88,89.01,18,93.75" class="grey" /><path d="M56.76,67.11C62.25,72,82.25,86,88.79,89.82c1.85,1.08,3.38,1.61,5.21,1.93" class="grey" /><path d="M52.99,11c0.01,1-0.13,1.85-0.49,2.5c-0.96,2.28-4.06,5.8-6.91,8.18" class="stroke" stroke-dasharray="150"><animate attributeName="stroke-dashoffset" from="150" to="0" dur="1.8s" begin="0.0s" fill="freeze" /></path><path d="M40.25,22.82c1.02,1.2,1.52,2.13,1.59,3.43c0.18,3.66,0.58,14.52,0.93,21.23c0.1,1.93,0.18,3.01,0.21,3.94" class="stroke" stroke-dasharray="150"><set attributeName="opacity" to="0" dur="0.9s" /><animate attributeName="stroke-dashoffset" from="150" to="0" dur="1.8s" begin="0.9s" fill="freeze" /></path><path d="M42.02,23.77c0.46-0.02,19.25-2.12,20.85-2.23c1.68-0.12,2.64,1.22,2.64,2.27c0,1.24-0.89,14.65-1.22,23.45c-0.06,1.57-0.1,2.48-0.14,3.64" class="stroke" stroke-dasharray="150"><set attributeName="opacity" to="0" dur="1.9s" /><animate attributeName="stroke-dashoffset" from="150" to="0" dur="1.8s" begin="1.9s" fill="freeze" /></path><path d="M43.41,36.12c3,0,17.27-1.75,20.66-1.75" class="stroke" stroke-dasharray="150"><set attributeName="opacity" to="0" dur="3.2s" /><animate attributeName="stroke-dashoffset" from="150" to="0" dur="1.8s" begin="3.2s" fill="freeze" /></path><path d="M44.13,49.6c4.43,0,13.11-1.01,18.85-1.01" class="stroke" stroke-dasharray="150"><set attributeName="opacity" to="0" dur="4.2s" /><animate attributeName="stroke-dashoffset" from="150" to="0" dur="1.8s" begin="4.2s" fill="freeze" /></path><path d="M20.22,20c3.89,1.72,10.05,7.07,11.03,9.75" class="stroke" stroke-dasharray="150"><set attributeName="opacity" to="0" dur="5.1000000000000005s" /><animate attributeName="stroke-dashoffset" from="150" to="0" dur="1.8s" begin="5.1000000000000005s" fill="freeze" /></path><path d="M16.92,54.38c1.46,0.87,2.81,0.38,3.89-0.5c1.05-0.85,7.42-7.56,11.44-11.88" class="stroke" stroke-dasharray="150"><set attributeName="opacity" to="0" dur="6.000000000000001s" /><animate attributeName="stroke-dashoffset" from="150" to="0" dur="1.8s" begin="6.000000000000001s" fill="freeze" /></path><path d="M87.2,17.13c0.02,0.99-0.24,1.86-0.76,2.61c-1.67,2.73-6.03,7.12-9.69,9.26" class="stroke" stroke-dasharray="150"><set attributeName="opacity" to="0" dur="7.000000000000001s" /><animate attributeName="stroke-dashoffset" from="150" to="0" dur="1.8s" begin="7.000000000000001s" fill="freeze" /></path><path d="M77,40.5c5.12,2.03,12,7.25,14.5,11.5" class="stroke" stroke-dasharray="150"><set attributeName="opacity" to="0" dur="7.900000000000001s" /><animate attributeName="stroke-dashoffset" from="150" to="0" dur="1.8s" begin="7.900000000000001s" fill="freeze" /></path><path d="M17.28,67.66c1.48,0.19,5.44,0.92,9.36,0.57c15.23-1.35,38.23-3.6,56.2-4.19c3.93-0.13,6.61-0.04,9.11,0.5" class="stroke" stroke-dasharray="150"><set attributeName="opacity" to="0" dur="8.8s" /><animate attributeName="stroke-dashoffset" from="150" to="0" dur="1.8s" begin="8.8s" fill="freeze" /></path><path d="M52.45,54.75c1.05,1,1.63,2.66,1.65,3.74c0.09,4.69,0,25.11-0.12,34.76c-0.03,2.4-0.06,4.12-0.09,4.74" class="stroke" stroke-dasharray="150"><set attributeName="opacity" to="0" dur="10.5s" /><animate attributeName="stroke-dashoffset" from="150" to="0" dur="1.8s" begin="10.5s" fill="freeze" /></path><path d="M49.25,66.75c0,1.25-1.14,2.74-1.81,3.63C40.9,79.16,28.88,89.01,18,93.75" class="stroke" stroke-dasharray="150"><set attributeName="opacity" to="0" dur="11.6s" /><animate attributeName="stroke-dashoffset" from="150" to="0" dur="1.8s" begin="11.6s" fill="freeze" /></path><path d="M56.76,67.11C62.25,72,82.25,86,88.79,89.82c1.85,1.08,3.38,1.61,5.21,1.93" class="stroke" stroke-dasharray="150"><set attributeName="opacity" to="0" dur="12.7s" /><animate attributeName="stroke-dashoffset" from="150" to="0" dur="1.8s" begin="12.7s" fill="freeze" /></path><text x="90" y="120" id="reset-kvg-0697d">⟳</text><text x="70" y="120" id="pause-kvg-0697d">◼</text><script type="text/javascript"><![CDATA[function RecurringTimer(e,t){var n,r,i=t;this.pause=function(){window.clearTimeout(n);i-=new Date-r};var s=function(){r=new Date;n=window.setTimeout(function(){i=t;s();e()},i)};this.clear=function(){window.clearTimeout(n);i=t;n=window.setTimeout(function(){i=t;s();e()},i)};this.resume=s;this.resume()}function invoketimer(){timer=new RecurringTimer(function(){svg.setCurrentTime(0)},14799.999999999998)}var svg=document.getElementById("kvg-0697d");var pause=document.getElementById("pause-kvg-0697d");var reset=document.getElementById("reset-kvg-0697d");var timer;invoketimer();reset.onclick=function(){svg.setCurrentTime(0);timer.clear();svg.unpauseAnimations();pause.innerHTML = "◼";};pause.onclick=function(){if(svg.animationsPaused()){svg.unpauseAnimations();timer.resume();pause.innerHTML="◼"}else{svg.pauseAnimations();timer.pause();pause.innerHTML="▶"}}]]></script></svg>