<svg id="kvg-06975-Kaisho" class="kanjivg" width="106" height="126" xmlns="http://www.w3.org/2000/svg" xmlns:xlink="http://www.w3.org/1999/xlink" xml:space="preserve" version="1.1" baseProfile="full"><defs><style type="text/css"><![CDATA[path.black{fill:none;stroke:black;stroke-width:5;stroke-linecap:round;stroke-linejoin:round;}path.grey{fill:none;stroke:#ddd;stroke-width:5;stroke-linecap:round;stroke-linejoin:round;}path.stroke{fill:none;stroke:black;stroke-width:5;stroke-linecap:round;stroke-linejoin:round;}rect{fill:none;stroke:#555;stroke-width:2;} text{font-size:16px;font-family:Segoe UI Symbol,Cambria Math,DejaVu Sans,Symbola,Quivira,STIX,Code2000;-webkit-touch-callout:none;cursor:pointer;-webkit-user-select:none;-khtml-user-select:none;-moz-user-select:none;-ms-user-select:none;user-select: none;}text:hover{color:#777;}#reset{font-weight:bold;}]]></style><marker id="markerStart" markerWidth="8" markerHeight="8" style="overflow:visible;"><circle cx="0" cy="0" r="1.5" style="stroke:none;fill:red;fill-opacity:0.5;"/></marker><marker id="markerEnd" style="overflow:visible;"><circle cx="0" cy="0" r="0.8" style="stroke:none;fill:blue;fill-opacity:0.5;"><animate attributeName="opacity" from="1" to="0" dur="3s" repeatCount="indefinite" /></circle></marker></defs><rect x="4" y="4" width="100" height="100" /><path d="M10.28,37.72c0.35,0.24,2.39,0.41,3.31,0.31c3.94-0.41,16.12-1.21,22.45-2.41c0.92-0.17,2.15-0.24,2.73,0" class="grey" /><path d="M24.36,12.5c0.91,0.47,3.04,2.75,3.04,4.92c0,0.95-0.3,72.23-0.3,73.08c0,12.25-4.47,3.12-6.1,1.5" class="grey" /><path d="M26.94,40.28c-5.1,15.04-7.94,20.4-15.83,33.56" class="grey" /><path d="M29.97,46.9c2.37,1.59,6.28,7.76,8.28,10.85" class="grey" /><path d="M43.53,22.45c0.84,0.36,2.37,0.48,3.2,0.36c8.51-1.3,32.13-4.54,40.07-4.54c1.39,0,2.23,0.17,2.92,0.35" class="grey" /><path d="M61.87,23.26c1.02,0.96,0.94,2.16,0.52,3.11c-0.41,0.96-2.92,8.59-3.48,9.58c-1.64,2.88-1.43,3.35,1.23,2.4c1.14-0.41,4.1-1.2,6.56-2.16c2.46-0.96,3.75,0.25,3.89,2.64c0.41,6.71-0.84,28.09-3.25,35.61c-1.23,3.83-1.85,9.1-7.59,4.79" class="grey" /><path d="M41.94,50.17c0.32,0.37,0.64,0.67,0.78,1.13c1.09,3.62,2.4,13.6,3.15,20.1" class="grey" /><path d="M43.9,51.69c5.85-1.44,10.35-2.55,14.04-3.02c1.35-0.17,2.16,1.03,1.97,2.05c-0.8,4.23-2.4,10.03-2.92,16.53" class="grey" /><path d="M46.01,70.54c4.19-1.23,6.16-1.7,12.32-2.76" class="grey" /><path d="M75.9,45.45c0.7,0.2,0.79,0.51,2.19,0.2c1.4-0.31,12.69-2.96,13.66-3.27c0.96-0.31,1.71,1.14,1.31,2.25C88.75,56.75,84,69.75,75.63,77.54" class="grey" /><path d="M77.05,53.77c6.2,4.73,12.2,10.48,16.81,18.83" class="grey" /><path d="M41,91.23c1.24,0.52,3.52,0.62,4.77,0.52c8.98-0.75,36.53-3.8,50.62-3.55c2.07,0.04,3.32,0.25,4.36,0.51" class="grey" /><path d="M10.28,37.72c0.35,0.24,2.39,0.41,3.31,0.31c3.94-0.41,16.12-1.21,22.45-2.41c0.92-0.17,2.15-0.24,2.73,0" class="stroke" stroke-dasharray="150"><animate attributeName="stroke-dashoffset" from="150" to="0" dur="1.8s" begin="0.0s" fill="freeze" /></path><path d="M24.36,12.5c0.91,0.47,3.04,2.75,3.04,4.92c0,0.95-0.3,72.23-0.3,73.08c0,12.25-4.47,3.12-6.1,1.5" class="stroke" stroke-dasharray="150"><set attributeName="opacity" to="0" dur="1.0s" /><animate attributeName="stroke-dashoffset" from="150" to="0" dur="1.8s" begin="1.0s" fill="freeze" /></path><path d="M26.94,40.28c-5.1,15.04-7.94,20.4-15.83,33.56" class="stroke" stroke-dasharray="150"><set attributeName="opacity" to="0" dur="2.8s" /><animate attributeName="stroke-dashoffset" from="150" to="0" dur="1.8s" begin="2.8s" fill="freeze" /></path><path d="M29.97,46.9c2.37,1.59,6.28,7.76,8.28,10.85" class="stroke" stroke-dasharray="150"><set attributeName="opacity" to="0" dur="3.8s" /><animate attributeName="stroke-dashoffset" from="150" to="0" dur="1.8s" begin="3.8s" fill="freeze" /></path><path d="M43.53,22.45c0.84,0.36,2.37,0.48,3.2,0.36c8.51-1.3,32.13-4.54,40.07-4.54c1.39,0,2.23,0.17,2.92,0.35" class="stroke" stroke-dasharray="150"><set attributeName="opacity" to="0" dur="4.7s" /><animate attributeName="stroke-dashoffset" from="150" to="0" dur="1.8s" begin="4.7s" fill="freeze" /></path><path d="M61.87,23.26c1.02,0.96,0.94,2.16,0.52,3.11c-0.41,0.96-2.92,8.59-3.48,9.58c-1.64,2.88-1.43,3.35,1.23,2.4c1.14-0.41,4.1-1.2,6.56-2.16c2.46-0.96,3.75,0.25,3.89,2.64c0.41,6.71-0.84,28.09-3.25,35.61c-1.23,3.83-1.85,9.1-7.59,4.79" class="stroke" stroke-dasharray="150"><set attributeName="opacity" to="0" dur="5.9s" /><animate attributeName="stroke-dashoffset" from="150" to="0" dur="1.8s" begin="5.9s" fill="freeze" /></path><path d="M41.94,50.17c0.32,0.37,0.64,0.67,0.78,1.13c1.09,3.62,2.4,13.6,3.15,20.1" class="stroke" stroke-dasharray="150"><set attributeName="opacity" to="0" dur="7.6000000000000005s" /><animate attributeName="stroke-dashoffset" from="150" to="0" dur="1.8s" begin="7.6000000000000005s" fill="freeze" /></path><path d="M43.9,51.69c5.85-1.44,10.35-2.55,14.04-3.02c1.35-0.17,2.16,1.03,1.97,2.05c-0.8,4.23-2.4,10.03-2.92,16.53" class="stroke" stroke-dasharray="150"><set attributeName="opacity" to="0" dur="8.600000000000001s" /><animate attributeName="stroke-dashoffset" from="150" to="0" dur="1.8s" begin="8.600000000000001s" fill="freeze" /></path><path d="M46.01,70.54c4.19-1.23,6.16-1.7,12.32-2.76" class="stroke" stroke-dasharray="150"><set attributeName="opacity" to="0" dur="9.600000000000001s" /><animate attributeName="stroke-dashoffset" from="150" to="0" dur="1.8s" begin="9.600000000000001s" fill="freeze" /></path><path d="M75.9,45.45c0.7,0.2,0.79,0.51,2.19,0.2c1.4-0.31,12.69-2.96,13.66-3.27c0.96-0.31,1.71,1.14,1.31,2.25C88.75,56.75,84,69.75,75.63,77.54" class="stroke" stroke-dasharray="150"><set attributeName="opacity" to="0" dur="10.500000000000002s" /><animate attributeName="stroke-dashoffset" from="150" to="0" dur="1.8s" begin="10.500000000000002s" fill="freeze" /></path><path d="M77.05,53.77c6.2,4.73,12.2,10.48,16.81,18.83" class="stroke" stroke-dasharray="150"><set attributeName="opacity" to="0" dur="11.900000000000002s" /><animate attributeName="stroke-dashoffset" from="150" to="0" dur="1.8s" begin="11.900000000000002s" fill="freeze" /></path><path d="M41,91.23c1.24,0.52,3.52,0.62,4.77,0.52c8.98-0.75,36.53-3.8,50.62-3.55c2.07,0.04,3.32,0.25,4.36,0.51" class="stroke" stroke-dasharray="150"><set attributeName="opacity" to="0" dur="12.900000000000002s" /><animate attributeName="stroke-dashoffset" from="150" to="0" dur="1.8s" begin="12.900000000000002s" fill="freeze" /></path><text x="90" y="120" id="reset-kvg-06975-Kaisho">⟳</text><text x="70" y="120" id="pause-kvg-06975-Kaisho">◼</text><script type="text/javascript"><![CDATA[function RecurringTimer(e,t){var n,r,i=t;this.pause=function(){window.clearTimeout(n);i-=new Date-r};var s=function(){r=new Date;n=window.setTimeout(function(){i=t;s();e()},i)};this.clear=function(){window.clearTimeout(n);i=t;n=window.setTimeout(function(){i=t;s();e()},i)};this.resume=s;this.resume()}function invoketimer(){timer=new RecurringTimer(function(){svg.setCurrentTime(0)},15300.000000000002)}var svg=document.getElementById("kvg-06975-Kaisho");var pause=document.getElementById("pause-kvg-06975-Kaisho");var reset=document.getElementById("reset-kvg-06975-Kaisho");var timer;invoketimer();reset.onclick=function(){svg.setCurrentTime(0);timer.clear();svg.unpauseAnimations();pause.innerHTML = "◼";};pause.onclick=function(){if(svg.animationsPaused()){svg.unpauseAnimations();timer.resume();pause.innerHTML="◼"}else{svg.pauseAnimations();timer.pause();pause.innerHTML="▶"}}]]></script></svg>