<svg id="kvg-06995-Kaisho" class="kanjivg" width="106" height="126" xmlns="http://www.w3.org/2000/svg" xmlns:xlink="http://www.w3.org/1999/xlink" xml:space="preserve" version="1.1" baseProfile="full"><defs><style type="text/css"><![CDATA[path.black{fill:none;stroke:black;stroke-width:5;stroke-linecap:round;stroke-linejoin:round;}path.grey{fill:none;stroke:#ddd;stroke-width:5;stroke-linecap:round;stroke-linejoin:round;}path.stroke{fill:none;stroke:black;stroke-width:5;stroke-linecap:round;stroke-linejoin:round;}rect{fill:none;stroke:#555;stroke-width:2;} text{font-size:16px;font-family:Segoe UI Symbol,Cambria Math,DejaVu Sans,Symbola,Quivira,STIX,Code2000;-webkit-touch-callout:none;cursor:pointer;-webkit-user-select:none;-khtml-user-select:none;-moz-user-select:none;-ms-user-select:none;user-select: none;}text:hover{color:#777;}#reset{font-weight:bold;}]]></style><marker id="markerStart" markerWidth="8" markerHeight="8" style="overflow:visible;"><circle cx="0" cy="0" r="1.5" style="stroke:none;fill:red;fill-opacity:0.5;"/></marker><marker id="markerEnd" style="overflow:visible;"><circle cx="0" cy="0" r="0.8" style="stroke:none;fill:blue;fill-opacity:0.5;"><animate attributeName="opacity" from="1" to="0" dur="3s" repeatCount="indefinite" /></circle></marker></defs><rect x="4" y="4" width="100" height="100" /><path d="M11.78,37.22c0.35,0.24,2.39,0.41,3.31,0.31c3.94-0.41,15.12-1.71,21.45-2.91c0.92-0.17,2.15-0.24,2.73,0" class="grey" /><path d="M26.86,14.5c0.91,0.47,2.04,2.25,2.04,4.42c0,0.95-0.3,65.25-0.3,71.08c0,11.5-5.35,3-6.85,1.5" class="grey" /><path d="M28.44,38.28c-5.26,16.02-8.19,22.79-16.33,36.81" class="grey" /><path d="M30.47,46.4c2.37,1.59,6.28,6.76,8.28,9.85" class="grey" /><path d="M64.33,12.91c2.11,0.91,5.17,4.09,5.57,8.04" class="grey" /><path d="M48.29,26.57c0,3.58-2.52,13.43-3.67,15.82" class="grey" /><path d="M48.81,29.64c6.24-0.83,34.53-3.5,39.6-3.55c9.2-0.09,2.18,5.48,0.21,7.25" class="grey" /><path d="M59.86,35.57c0.03,0.4,0.15,1.09-0.07,1.61c-1.71,4.07-5.33,9.73-11.86,15.45" class="grey" /><path d="M75.42,36.33c5.21,2.69,11.56,7.83,13.35,10.58" class="grey" /><path d="M68.53,44c0.07,0.7,0.29,1.89-0.14,2.82c-3.83,8.25-11.65,18-25.06,27.85" class="grey" /><path d="M67.16,49.65C71.5,51.5,85.77,66.1,91.72,69.69c1.48,0.89,3.19,1.48,4.58,1.77" class="grey" /><path d="M52.54,74.78c0.38,0.34,0.77,1.14,0.93,1.57c1.31,3.39,2.45,13.77,3.35,19.86" class="grey" /><path d="M54.32,76.71c10.34-1.56,18.44-3.36,24.78-4.04c2.16-0.23,3.49,1.55,3.16,2.56c-1.57,4.85-2.75,11.14-4.2,17.09" class="grey" /><path d="M57.84,93.97c8.33-0.47,13.21-0.92,22.77-1.65" class="grey" /><path d="M11.78,37.22c0.35,0.24,2.39,0.41,3.31,0.31c3.94-0.41,15.12-1.71,21.45-2.91c0.92-0.17,2.15-0.24,2.73,0" class="stroke" stroke-dasharray="150"><animate attributeName="stroke-dashoffset" from="150" to="0" dur="1.8s" begin="0.0s" fill="freeze" /></path><path d="M26.86,14.5c0.91,0.47,2.04,2.25,2.04,4.42c0,0.95-0.3,65.25-0.3,71.08c0,11.5-5.35,3-6.85,1.5" class="stroke" stroke-dasharray="150"><set attributeName="opacity" to="0" dur="1.0s" /><animate attributeName="stroke-dashoffset" from="150" to="0" dur="1.8s" begin="1.0s" fill="freeze" /></path><path d="M28.44,38.28c-5.26,16.02-8.19,22.79-16.33,36.81" class="stroke" stroke-dasharray="150"><set attributeName="opacity" to="0" dur="2.7s" /><animate attributeName="stroke-dashoffset" from="150" to="0" dur="1.8s" begin="2.7s" fill="freeze" /></path><path d="M30.47,46.4c2.37,1.59,6.28,6.76,8.28,9.85" class="stroke" stroke-dasharray="150"><set attributeName="opacity" to="0" dur="3.8000000000000003s" /><animate attributeName="stroke-dashoffset" from="150" to="0" dur="1.8s" begin="3.8000000000000003s" fill="freeze" /></path><path d="M64.33,12.91c2.11,0.91,5.17,4.09,5.57,8.04" class="stroke" stroke-dasharray="150"><set attributeName="opacity" to="0" dur="4.7s" /><animate attributeName="stroke-dashoffset" from="150" to="0" dur="1.8s" begin="4.7s" fill="freeze" /></path><path d="M48.29,26.57c0,3.58-2.52,13.43-3.67,15.82" class="stroke" stroke-dasharray="150"><set attributeName="opacity" to="0" dur="5.6000000000000005s" /><animate attributeName="stroke-dashoffset" from="150" to="0" dur="1.8s" begin="5.6000000000000005s" fill="freeze" /></path><path d="M48.81,29.64c6.24-0.83,34.53-3.5,39.6-3.55c9.2-0.09,2.18,5.48,0.21,7.25" class="stroke" stroke-dasharray="150"><set attributeName="opacity" to="0" dur="6.500000000000001s" /><animate attributeName="stroke-dashoffset" from="150" to="0" dur="1.8s" begin="6.500000000000001s" fill="freeze" /></path><path d="M59.86,35.57c0.03,0.4,0.15,1.09-0.07,1.61c-1.71,4.07-5.33,9.73-11.86,15.45" class="stroke" stroke-dasharray="150"><set attributeName="opacity" to="0" dur="7.800000000000001s" /><animate attributeName="stroke-dashoffset" from="150" to="0" dur="1.8s" begin="7.800000000000001s" fill="freeze" /></path><path d="M75.42,36.33c5.21,2.69,11.56,7.83,13.35,10.58" class="stroke" stroke-dasharray="150"><set attributeName="opacity" to="0" dur="8.8s" /><animate attributeName="stroke-dashoffset" from="150" to="0" dur="1.8s" begin="8.8s" fill="freeze" /></path><path d="M68.53,44c0.07,0.7,0.29,1.89-0.14,2.82c-3.83,8.25-11.65,18-25.06,27.85" class="stroke" stroke-dasharray="150"><set attributeName="opacity" to="0" dur="9.700000000000001s" /><animate attributeName="stroke-dashoffset" from="150" to="0" dur="1.8s" begin="9.700000000000001s" fill="freeze" /></path><path d="M67.16,49.65C71.5,51.5,85.77,66.1,91.72,69.69c1.48,0.89,3.19,1.48,4.58,1.77" class="stroke" stroke-dasharray="150"><set attributeName="opacity" to="0" dur="10.8s" /><animate attributeName="stroke-dashoffset" from="150" to="0" dur="1.8s" begin="10.8s" fill="freeze" /></path><path d="M52.54,74.78c0.38,0.34,0.77,1.14,0.93,1.57c1.31,3.39,2.45,13.77,3.35,19.86" class="stroke" stroke-dasharray="150"><set attributeName="opacity" to="0" dur="11.8s" /><animate attributeName="stroke-dashoffset" from="150" to="0" dur="1.8s" begin="11.8s" fill="freeze" /></path><path d="M54.32,76.71c10.34-1.56,18.44-3.36,24.78-4.04c2.16-0.23,3.49,1.55,3.16,2.56c-1.57,4.85-2.75,11.14-4.2,17.09" class="stroke" stroke-dasharray="150"><set attributeName="opacity" to="0" dur="12.8s" /><animate attributeName="stroke-dashoffset" from="150" to="0" dur="1.8s" begin="12.8s" fill="freeze" /></path><path d="M57.84,93.97c8.33-0.47,13.21-0.92,22.77-1.65" class="stroke" stroke-dasharray="150"><set attributeName="opacity" to="0" dur="14.0s" /><animate attributeName="stroke-dashoffset" from="150" to="0" dur="1.8s" begin="14.0s" fill="freeze" /></path><text x="90" y="120" id="reset-kvg-06995-Kaisho">⟳</text><text x="70" y="120" id="pause-kvg-06995-Kaisho">◼</text><script type="text/javascript"><![CDATA[function RecurringTimer(e,t){var n,r,i=t;this.pause=function(){window.clearTimeout(n);i-=new Date-r};var s=function(){r=new Date;n=window.setTimeout(function(){i=t;s();e()},i)};this.clear=function(){window.clearTimeout(n);i=t;n=window.setTimeout(function(){i=t;s();e()},i)};this.resume=s;this.resume()}function invoketimer(){timer=new RecurringTimer(function(){svg.setCurrentTime(0)},16000.0)}var svg=document.getElementById("kvg-06995-Kaisho");var pause=document.getElementById("pause-kvg-06995-Kaisho");var reset=document.getElementById("reset-kvg-06995-Kaisho");var timer;invoketimer();reset.onclick=function(){svg.setCurrentTime(0);timer.clear();svg.unpauseAnimations();pause.innerHTML = "◼";};pause.onclick=function(){if(svg.animationsPaused()){svg.unpauseAnimations();timer.resume();pause.innerHTML="◼"}else{svg.pauseAnimations();timer.pause();pause.innerHTML="▶"}}]]></script></svg>