<svg id="kvg-069cc-Hyougai" class="kanjivg" width="106" height="126" xmlns="http://www.w3.org/2000/svg" xmlns:xlink="http://www.w3.org/1999/xlink" xml:space="preserve" version="1.1" baseProfile="full"><defs><style type="text/css"><![CDATA[path.black{fill:none;stroke:black;stroke-width:5;stroke-linecap:round;stroke-linejoin:round;}path.grey{fill:none;stroke:#ddd;stroke-width:5;stroke-linecap:round;stroke-linejoin:round;}path.stroke{fill:none;stroke:black;stroke-width:5;stroke-linecap:round;stroke-linejoin:round;}rect{fill:none;stroke:#555;stroke-width:2;} text{font-size:16px;font-family:Segoe UI Symbol,Cambria Math,DejaVu Sans,Symbola,Quivira,STIX,Code2000;-webkit-touch-callout:none;cursor:pointer;-webkit-user-select:none;-khtml-user-select:none;-moz-user-select:none;-ms-user-select:none;user-select: none;}text:hover{color:#777;}#reset{font-weight:bold;}]]></style><marker id="markerStart" markerWidth="8" markerHeight="8" style="overflow:visible;"><circle cx="0" cy="0" r="1.5" style="stroke:none;fill:red;fill-opacity:0.5;"/></marker><marker id="markerEnd" style="overflow:visible;"><circle cx="0" cy="0" r="0.8" style="stroke:none;fill:blue;fill-opacity:0.5;"><animate attributeName="opacity" from="1" to="0" dur="3s" repeatCount="indefinite" /></circle></marker></defs><rect x="4" y="4" width="100" height="100" /><path d="M9.78,38.72c0.35,0.24,2.39,0.41,3.31,0.31c3.94-0.41,17.62-1.71,23.95-2.91c0.92-0.17,1.15-0.24,1.73,0" class="grey" /><path d="M24.86,14.5c0.91,0.47,2.39,1.75,2.54,4.42c0.05,0.95-0.12,71.25-0.3,77.08" class="grey" /><path d="M26.94,39.28C22.5,53.75,18.88,61.4,10.36,74.09" class="grey" /><path d="M30.47,45.9c2.3,1.32,5.47,5.83,7.41,8.39" class="grey" /><path d="M79.26,14.14c0.03,0.32,0.07,0.83-0.07,1.29c-0.82,2.73-5.91,9.2-12.32,12.86" class="grey" /><path d="M64.58,27.75c0.88,0.5,1.4,2.25,1.58,3.25c0.17,1,0,45.25-0.18,51.5" class="grey" /><path d="M66.78,30.59c5.91-1.16,21.06-4.19,24.1-4.58c1.11-0.14,1.78,1.44,1.62,2.29c-0.66,3.48-1.91,11.49-3.33,16.51" class="grey" /><path d="M66.1,47.11c11.31-0.98,19.91-2.32,25.25-2.68" class="grey" /><path d="M66.54,60.32c8.71-0.82,21.27-2.67,24.71-3.14c1.26-0.17,2.01,1.7,1.83,2.7c-0.75,4.12-2.1,11.66-3.69,17.6" class="grey" /><path d="M66.5,79.71c4.04-0.52,20.73-1.69,25.86-2.22" class="grey" /><path d="M42.79,29.25c4.18,1.48,10.8,6.08,11.84,8.38" class="grey" /><path d="M39.75,59.15c1.81,0.87,3.02,0.43,3.83,0.22c0.81-0.22,7.64-2.45,8.85-2.88c1.21-0.44,3.02,0.59,2.22,1.89s-5.22,7.31-5.83,8.39s-0.4,3.04,0.81,4.57c1.21,1.52,3.72,2.26,4.32,3.57c0.6,1.3,0.6,2.39-0.6,3.48c-1.21,1.09-8.75,6.18-9.96,6.61" class="grey" /><path d="M39.95,85.47c2.27-0.49,6.82-1.71,10.23-0.73c3.41,0.98,22.79,6.56,26.15,7.82c9.09,3.42,16.1,3.42,22.92,1.71" class="grey" /><path d="M9.78,38.72c0.35,0.24,2.39,0.41,3.31,0.31c3.94-0.41,17.62-1.71,23.95-2.91c0.92-0.17,1.15-0.24,1.73,0" class="stroke" stroke-dasharray="150"><animate attributeName="stroke-dashoffset" from="150" to="0" dur="1.8s" begin="0.0s" fill="freeze" /></path><path d="M24.86,14.5c0.91,0.47,2.39,1.75,2.54,4.42c0.05,0.95-0.12,71.25-0.3,77.08" class="stroke" stroke-dasharray="150"><set attributeName="opacity" to="0" dur="1.0s" /><animate attributeName="stroke-dashoffset" from="150" to="0" dur="1.8s" begin="1.0s" fill="freeze" /></path><path d="M26.94,39.28C22.5,53.75,18.88,61.4,10.36,74.09" class="stroke" stroke-dasharray="150"><set attributeName="opacity" to="0" dur="2.7s" /><animate attributeName="stroke-dashoffset" from="150" to="0" dur="1.8s" begin="2.7s" fill="freeze" /></path><path d="M30.47,45.9c2.3,1.32,5.47,5.83,7.41,8.39" class="stroke" stroke-dasharray="150"><set attributeName="opacity" to="0" dur="3.7s" /><animate attributeName="stroke-dashoffset" from="150" to="0" dur="1.8s" begin="3.7s" fill="freeze" /></path><path d="M79.26,14.14c0.03,0.32,0.07,0.83-0.07,1.29c-0.82,2.73-5.91,9.2-12.32,12.86" class="stroke" stroke-dasharray="150"><set attributeName="opacity" to="0" dur="4.6000000000000005s" /><animate attributeName="stroke-dashoffset" from="150" to="0" dur="1.8s" begin="4.6000000000000005s" fill="freeze" /></path><path d="M64.58,27.75c0.88,0.5,1.4,2.25,1.58,3.25c0.17,1,0,45.25-0.18,51.5" class="stroke" stroke-dasharray="150"><set attributeName="opacity" to="0" dur="5.500000000000001s" /><animate attributeName="stroke-dashoffset" from="150" to="0" dur="1.8s" begin="5.500000000000001s" fill="freeze" /></path><path d="M66.78,30.59c5.91-1.16,21.06-4.19,24.1-4.58c1.11-0.14,1.78,1.44,1.62,2.29c-0.66,3.48-1.91,11.49-3.33,16.51" class="stroke" stroke-dasharray="150"><set attributeName="opacity" to="0" dur="6.9s" /><animate attributeName="stroke-dashoffset" from="150" to="0" dur="1.8s" begin="6.9s" fill="freeze" /></path><path d="M66.1,47.11c11.31-0.98,19.91-2.32,25.25-2.68" class="stroke" stroke-dasharray="150"><set attributeName="opacity" to="0" dur="8.0s" /><animate attributeName="stroke-dashoffset" from="150" to="0" dur="1.8s" begin="8.0s" fill="freeze" /></path><path d="M66.54,60.32c8.71-0.82,21.27-2.67,24.71-3.14c1.26-0.17,2.01,1.7,1.83,2.7c-0.75,4.12-2.1,11.66-3.69,17.6" class="stroke" stroke-dasharray="150"><set attributeName="opacity" to="0" dur="9.0s" /><animate attributeName="stroke-dashoffset" from="150" to="0" dur="1.8s" begin="9.0s" fill="freeze" /></path><path d="M66.5,79.71c4.04-0.52,20.73-1.69,25.86-2.22" class="stroke" stroke-dasharray="150"><set attributeName="opacity" to="0" dur="10.2s" /><animate attributeName="stroke-dashoffset" from="150" to="0" dur="1.8s" begin="10.2s" fill="freeze" /></path><path d="M42.79,29.25c4.18,1.48,10.8,6.08,11.84,8.38" class="stroke" stroke-dasharray="150"><set attributeName="opacity" to="0" dur="11.2s" /><animate attributeName="stroke-dashoffset" from="150" to="0" dur="1.8s" begin="11.2s" fill="freeze" /></path><path d="M39.75,59.15c1.81,0.87,3.02,0.43,3.83,0.22c0.81-0.22,7.64-2.45,8.85-2.88c1.21-0.44,3.02,0.59,2.22,1.89s-5.22,7.31-5.83,8.39s-0.4,3.04,0.81,4.57c1.21,1.52,3.72,2.26,4.32,3.57c0.6,1.3,0.6,2.39-0.6,3.48c-1.21,1.09-8.75,6.18-9.96,6.61" class="stroke" stroke-dasharray="150"><set attributeName="opacity" to="0" dur="12.1s" /><animate attributeName="stroke-dashoffset" from="150" to="0" dur="1.8s" begin="12.1s" fill="freeze" /></path><path d="M39.95,85.47c2.27-0.49,6.82-1.71,10.23-0.73c3.41,0.98,22.79,6.56,26.15,7.82c9.09,3.42,16.1,3.42,22.92,1.71" class="stroke" stroke-dasharray="150"><set attributeName="opacity" to="0" dur="13.4s" /><animate attributeName="stroke-dashoffset" from="150" to="0" dur="1.8s" begin="13.4s" fill="freeze" /></path><text x="90" y="120" id="reset-kvg-069cc-Hyougai">⟳</text><text x="70" y="120" id="pause-kvg-069cc-Hyougai">◼</text><script type="text/javascript"><![CDATA[function RecurringTimer(e,t){var n,r,i=t;this.pause=function(){window.clearTimeout(n);i-=new Date-r};var s=function(){r=new Date;n=window.setTimeout(function(){i=t;s();e()},i)};this.clear=function(){window.clearTimeout(n);i=t;n=window.setTimeout(function(){i=t;s();e()},i)};this.resume=s;this.resume()}function invoketimer(){timer=new RecurringTimer(function(){svg.setCurrentTime(0)},15900.0)}var svg=document.getElementById("kvg-069cc-Hyougai");var pause=document.getElementById("pause-kvg-069cc-Hyougai");var reset=document.getElementById("reset-kvg-069cc-Hyougai");var timer;invoketimer();reset.onclick=function(){svg.setCurrentTime(0);timer.clear();svg.unpauseAnimations();pause.innerHTML = "◼";};pause.onclick=function(){if(svg.animationsPaused()){svg.unpauseAnimations();timer.resume();pause.innerHTML="◼"}else{svg.pauseAnimations();timer.pause();pause.innerHTML="▶"}}]]></script></svg>