<svg id="kvg-06a0b-Kaisho" class="kanjivg" width="106" height="126" xmlns="http://www.w3.org/2000/svg" xmlns:xlink="http://www.w3.org/1999/xlink" xml:space="preserve" version="1.1" baseProfile="full"><defs><style type="text/css"><![CDATA[path.black{fill:none;stroke:black;stroke-width:5;stroke-linecap:round;stroke-linejoin:round;}path.grey{fill:none;stroke:#ddd;stroke-width:5;stroke-linecap:round;stroke-linejoin:round;}path.stroke{fill:none;stroke:black;stroke-width:5;stroke-linecap:round;stroke-linejoin:round;}rect{fill:none;stroke:#555;stroke-width:2;} text{font-size:16px;font-family:Segoe UI Symbol,Cambria Math,DejaVu Sans,Symbola,Quivira,STIX,Code2000;-webkit-touch-callout:none;cursor:pointer;-webkit-user-select:none;-khtml-user-select:none;-moz-user-select:none;-ms-user-select:none;user-select: none;}text:hover{color:#777;}#reset{font-weight:bold;}]]></style><marker id="markerStart" markerWidth="8" markerHeight="8" style="overflow:visible;"><circle cx="0" cy="0" r="1.5" style="stroke:none;fill:red;fill-opacity:0.5;"/></marker><marker id="markerEnd" style="overflow:visible;"><circle cx="0" cy="0" r="0.8" style="stroke:none;fill:blue;fill-opacity:0.5;"><animate attributeName="opacity" from="1" to="0" dur="3s" repeatCount="indefinite" /></circle></marker></defs><rect x="4" y="4" width="100" height="100" /><path d="M11.28,37.72c0.35,0.24,2.39,0.41,3.31,0.31c3.94-0.41,15.12-2.21,21.45-3.41c0.92-0.17,1.15-0.24,1.73,0" class="grey" /><path d="M24.86,14.5c0.91,0.47,2.54,2,2.54,4.42c0,0.95-0.3,65.25-0.3,71.08c0,14-6.47,3.38-7.6,2.25" class="grey" /><path d="M26.94,39.28c-4.86,15.69-7.56,22.32-15.08,36.06" class="grey" /><path d="M29.97,45.15c2.53,1.84,6.03,5.83,8.16,9.39" class="grey" /><path d="M59.12,17.34c0.93,0.6,2.2,1.16,3.26,1.1c1.21-0.06,18.31-3.62,24.45-4.65C91.5,13,92,14.25,88.84,17.03c-1.2,1.05-10.59,8.22-14.2,10.4" class="grey" /><path d="M68.65,24c2.4,0.97,8.6,4.71,9.73,7.25" class="grey" /><path d="M61.54,36.38c0.43,0.58,0.72,1.16,0.86,1.74c0.14,0.58,0.14,40.79,0.14,42.1" class="grey" /><path d="M63.26,37.52c4.83-0.24,26.25-3.25,27.54-3.41c2.3-0.29,3.16,1.89,2.87,2.76c-0.28,0.84-0.43,28.56-0.43,40.34c0,7.54-4.49,1.25-5.4,0.75" class="grey" /><path d="M63.26,49.58c6.6-1.19,13.36-1.67,20.04-2.15c0.68-0.05,1.34-0.09,1.98-0.14" class="grey" /><path d="M63.06,61.83c6.57-1.09,13.32-1.44,19.96-1.9c0.72-0.05,1.42-0.1,2.1-0.14" class="grey" /><path d="M76.3,37.6c0.57,0.28,0.91,1.26,1.02,1.82c0.11,0.56,0,36.79-0.11,40.29" class="grey" /><path d="M46.2,16.5c2.97,1.74,7.66,7.17,8.41,9.88" class="grey" /><path d="M40.69,39c3.54,0.99,9.15,4.09,10.04,5.63" class="grey" /><path d="M39.5,60.94c1.84,0.85,3.06,0.43,3.88,0.21c0.82-0.21,6.53-2.99,7.76-3.42c1.22-0.43,3.06,1.07,2.25,2.35c-0.82,1.28-3.27,6.19-3.88,7.26c-0.61,1.07-0.41,2.99,0.82,4.48s2.25,3.2,2.86,4.48c0.61,1.28,0.61,2.35-0.61,3.42c-1.22,1.07-7.35,7.04-8.57,7.47" class="grey" /><path d="M40.35,88.07c2.02-0.24,6.06-0.85,9.08-0.37c3.03,0.49,20.23,3.76,23.21,4.39c8.07,1.71,14.3,2.19,20.35,1.34" class="grey" /><path d="M11.28,37.72c0.35,0.24,2.39,0.41,3.31,0.31c3.94-0.41,15.12-2.21,21.45-3.41c0.92-0.17,1.15-0.24,1.73,0" class="stroke" stroke-dasharray="150"><animate attributeName="stroke-dashoffset" from="150" to="0" dur="1.8s" begin="0.0s" fill="freeze" /></path><path d="M24.86,14.5c0.91,0.47,2.54,2,2.54,4.42c0,0.95-0.3,65.25-0.3,71.08c0,14-6.47,3.38-7.6,2.25" class="stroke" stroke-dasharray="150"><set attributeName="opacity" to="0" dur="1.0s" /><animate attributeName="stroke-dashoffset" from="150" to="0" dur="1.8s" begin="1.0s" fill="freeze" /></path><path d="M26.94,39.28c-4.86,15.69-7.56,22.32-15.08,36.06" class="stroke" stroke-dasharray="150"><set attributeName="opacity" to="0" dur="2.8s" /><animate attributeName="stroke-dashoffset" from="150" to="0" dur="1.8s" begin="2.8s" fill="freeze" /></path><path d="M29.97,45.15c2.53,1.84,6.03,5.83,8.16,9.39" class="stroke" stroke-dasharray="150"><set attributeName="opacity" to="0" dur="3.8s" /><animate attributeName="stroke-dashoffset" from="150" to="0" dur="1.8s" begin="3.8s" fill="freeze" /></path><path d="M59.12,17.34c0.93,0.6,2.2,1.16,3.26,1.1c1.21-0.06,18.31-3.62,24.45-4.65C91.5,13,92,14.25,88.84,17.03c-1.2,1.05-10.59,8.22-14.2,10.4" class="stroke" stroke-dasharray="150"><set attributeName="opacity" to="0" dur="4.7s" /><animate attributeName="stroke-dashoffset" from="150" to="0" dur="1.8s" begin="4.7s" fill="freeze" /></path><path d="M68.65,24c2.4,0.97,8.6,4.71,9.73,7.25" class="stroke" stroke-dasharray="150"><set attributeName="opacity" to="0" dur="6.0s" /><animate attributeName="stroke-dashoffset" from="150" to="0" dur="1.8s" begin="6.0s" fill="freeze" /></path><path d="M61.54,36.38c0.43,0.58,0.72,1.16,0.86,1.74c0.14,0.58,0.14,40.79,0.14,42.1" class="stroke" stroke-dasharray="150"><set attributeName="opacity" to="0" dur="6.9s" /><animate attributeName="stroke-dashoffset" from="150" to="0" dur="1.8s" begin="6.9s" fill="freeze" /></path><path d="M63.26,37.52c4.83-0.24,26.25-3.25,27.54-3.41c2.3-0.29,3.16,1.89,2.87,2.76c-0.28,0.84-0.43,28.56-0.43,40.34c0,7.54-4.49,1.25-5.4,0.75" class="stroke" stroke-dasharray="150"><set attributeName="opacity" to="0" dur="8.0s" /><animate attributeName="stroke-dashoffset" from="150" to="0" dur="1.8s" begin="8.0s" fill="freeze" /></path><path d="M63.26,49.58c6.6-1.19,13.36-1.67,20.04-2.15c0.68-0.05,1.34-0.09,1.98-0.14" class="stroke" stroke-dasharray="150"><set attributeName="opacity" to="0" dur="9.7s" /><animate attributeName="stroke-dashoffset" from="150" to="0" dur="1.8s" begin="9.7s" fill="freeze" /></path><path d="M63.06,61.83c6.57-1.09,13.32-1.44,19.96-1.9c0.72-0.05,1.42-0.1,2.1-0.14" class="stroke" stroke-dasharray="150"><set attributeName="opacity" to="0" dur="10.7s" /><animate attributeName="stroke-dashoffset" from="150" to="0" dur="1.8s" begin="10.7s" fill="freeze" /></path><path d="M76.3,37.6c0.57,0.28,0.91,1.26,1.02,1.82c0.11,0.56,0,36.79-0.11,40.29" class="stroke" stroke-dasharray="150"><set attributeName="opacity" to="0" dur="11.7s" /><animate attributeName="stroke-dashoffset" from="150" to="0" dur="1.8s" begin="11.7s" fill="freeze" /></path><path d="M46.2,16.5c2.97,1.74,7.66,7.17,8.41,9.88" class="stroke" stroke-dasharray="150"><set attributeName="opacity" to="0" dur="12.799999999999999s" /><animate attributeName="stroke-dashoffset" from="150" to="0" dur="1.8s" begin="12.799999999999999s" fill="freeze" /></path><path d="M40.69,39c3.54,0.99,9.15,4.09,10.04,5.63" class="stroke" stroke-dasharray="150"><set attributeName="opacity" to="0" dur="13.7s" /><animate attributeName="stroke-dashoffset" from="150" to="0" dur="1.8s" begin="13.7s" fill="freeze" /></path><path d="M39.5,60.94c1.84,0.85,3.06,0.43,3.88,0.21c0.82-0.21,6.53-2.99,7.76-3.42c1.22-0.43,3.06,1.07,2.25,2.35c-0.82,1.28-3.27,6.19-3.88,7.26c-0.61,1.07-0.41,2.99,0.82,4.48s2.25,3.2,2.86,4.48c0.61,1.28,0.61,2.35-0.61,3.42c-1.22,1.07-7.35,7.04-8.57,7.47" class="stroke" stroke-dasharray="150"><set attributeName="opacity" to="0" dur="14.6s" /><animate attributeName="stroke-dashoffset" from="150" to="0" dur="1.8s" begin="14.6s" fill="freeze" /></path><path d="M40.35,88.07c2.02-0.24,6.06-0.85,9.08-0.37c3.03,0.49,20.23,3.76,23.21,4.39c8.07,1.71,14.3,2.19,20.35,1.34" class="stroke" stroke-dasharray="150"><set attributeName="opacity" to="0" dur="15.9s" /><animate attributeName="stroke-dashoffset" from="150" to="0" dur="1.8s" begin="15.9s" fill="freeze" /></path><text x="90" y="120" id="reset-kvg-06a0b-Kaisho">⟳</text><text x="70" y="120" id="pause-kvg-06a0b-Kaisho">◼</text><script type="text/javascript"><![CDATA[function RecurringTimer(e,t){var n,r,i=t;this.pause=function(){window.clearTimeout(n);i-=new Date-r};var s=function(){r=new Date;n=window.setTimeout(function(){i=t;s();e()},i)};this.clear=function(){window.clearTimeout(n);i=t;n=window.setTimeout(function(){i=t;s();e()},i)};this.resume=s;this.resume()}function invoketimer(){timer=new RecurringTimer(function(){svg.setCurrentTime(0)},18200.0)}var svg=document.getElementById("kvg-06a0b-Kaisho");var pause=document.getElementById("pause-kvg-06a0b-Kaisho");var reset=document.getElementById("reset-kvg-06a0b-Kaisho");var timer;invoketimer();reset.onclick=function(){svg.setCurrentTime(0);timer.clear();svg.unpauseAnimations();pause.innerHTML = "◼";};pause.onclick=function(){if(svg.animationsPaused()){svg.unpauseAnimations();timer.resume();pause.innerHTML="◼"}else{svg.pauseAnimations();timer.pause();pause.innerHTML="▶"}}]]></script></svg>