<svg id="kvg-06a2b-KaishoHzFst" class="kanjivg" width="106" height="126" xmlns="http://www.w3.org/2000/svg" xmlns:xlink="http://www.w3.org/1999/xlink" xml:space="preserve" version="1.1" baseProfile="full"><defs><style type="text/css"><![CDATA[path.black{fill:none;stroke:black;stroke-width:5;stroke-linecap:round;stroke-linejoin:round;}path.grey{fill:none;stroke:#ddd;stroke-width:5;stroke-linecap:round;stroke-linejoin:round;}path.stroke{fill:none;stroke:black;stroke-width:5;stroke-linecap:round;stroke-linejoin:round;}rect{fill:none;stroke:#555;stroke-width:2;} text{font-size:16px;font-family:Segoe UI Symbol,Cambria Math,DejaVu Sans,Symbola,Quivira,STIX,Code2000;-webkit-touch-callout:none;cursor:pointer;-webkit-user-select:none;-khtml-user-select:none;-moz-user-select:none;-ms-user-select:none;user-select: none;}text:hover{color:#777;}#reset{font-weight:bold;}]]></style><marker id="markerStart" markerWidth="8" markerHeight="8" style="overflow:visible;"><circle cx="0" cy="0" r="1.5" style="stroke:none;fill:red;fill-opacity:0.5;"/></marker><marker id="markerEnd" style="overflow:visible;"><circle cx="0" cy="0" r="0.8" style="stroke:none;fill:blue;fill-opacity:0.5;"><animate attributeName="opacity" from="1" to="0" dur="3s" repeatCount="indefinite" /></circle></marker></defs><rect x="4" y="4" width="100" height="100" /><path d="M9.74,39.17c0.31,0.14,2.12,0.24,2.94,0.19c3.5-0.24,15.69-1.41,21.32-2.13c0.81-0.1,1.02-0.14,1.53,0" class="grey" /><path d="M23.06,14.5c0.87,0.47,2.38,1.75,2.38,4.46c0,0.96-0.29,71.39-0.29,72.29c0,10.25-4.78,3.12-6.41,1.5" class="grey" /><path d="M25.51,42.28c-4.72,14.49-7.34,20.62-14.65,33.31" class="grey" /><path d="M28.61,49.9c2.33,1.67,5.56,7.4,7.52,10.64" class="grey" /><path d="M41.76,20.41c5.24-0.66,13.49-2.16,20.87-3.29c0.95-0.15,1.53-0.17,2.01-0.04" class="grey" /><path d="M40.41,19.17c0.25,0.99,0.67,2.52,0.76,3.01c0.09,0.5,0.37,36.85,0.32,39.95" class="grey" /><path d="M53.26,20.11c0.42,0.25,0.67,1.14,0.76,1.65c0.09,0.51,0.12,6.44,0.07,9.66" class="grey" /><path d="M41.54,33.75c6.49-1.11,15.57-2.25,20.07-3.02c1.82-0.31,2.34,0.74,2.1,2.13c-0.43,2.52-1.45,6.14-1.89,9.17" class="grey" /><path d="M41.69,45.32c2.71-0.45,19.04-2.34,21.59-2.64" class="grey" /><path d="M52.79,44.65c0.41,0.25,0.67,1.14,0.76,1.65s0.15,7.26,0.1,10.47" class="grey" /><path d="M41.65,57.98c4.1-0.23,12.53-1.54,18.83-2.08c0.96-0.08,1.53-0.16,2.01-0.03" class="grey" /><path d="M71.59,19.44c0.81,0.25,0.91,0.63,2.52,0.25c1.62-0.38,16.28-2.37,17.39-2.75c1.11-0.38,1.92,1.39,1.51,2.78C88.28,36.17,77.9,48.82,68.81,55.01" class="grey" /><path d="M69.11,26.14c2.64,0.67,15.54,18.59,24.73,25.93c1.43,1.14,2.47,1.9,3.81,2.29" class="grey" /><path d="M46.19,76.12c0.83,0.37,2.34,0.46,3.17,0.37c10.63-1.23,27.04-2.88,37.74-3.19c1.38-0.04,2.2,0.17,2.89,0.35" class="grey" /><path d="M67.08,61.24c0.09,0.28,1.3,1.45,1.3,3.22c0,11.4-0.27,11.51-0.27,26.59" class="grey" /><path d="M40.4,92.18c1.08,0.5,3.04,0.53,4.12,0.5c13.23-0.42,37.45-2.83,49.83-2.33c1.79,0.07,2.87,0.23,3.77,0.48" class="grey" /><path d="M9.74,39.17c0.31,0.14,2.12,0.24,2.94,0.19c3.5-0.24,15.69-1.41,21.32-2.13c0.81-0.1,1.02-0.14,1.53,0" class="stroke" stroke-dasharray="150"><animate attributeName="stroke-dashoffset" from="150" to="0" dur="1.8s" begin="0.0s" fill="freeze" /></path><path d="M23.06,14.5c0.87,0.47,2.38,1.75,2.38,4.46c0,0.96-0.29,71.39-0.29,72.29c0,10.25-4.78,3.12-6.41,1.5" class="stroke" stroke-dasharray="150"><set attributeName="opacity" to="0" dur="1.0s" /><animate attributeName="stroke-dashoffset" from="150" to="0" dur="1.8s" begin="1.0s" fill="freeze" /></path><path d="M25.51,42.28c-4.72,14.49-7.34,20.62-14.65,33.31" class="stroke" stroke-dasharray="150"><set attributeName="opacity" to="0" dur="2.7s" /><animate attributeName="stroke-dashoffset" from="150" to="0" dur="1.8s" begin="2.7s" fill="freeze" /></path><path d="M28.61,49.9c2.33,1.67,5.56,7.4,7.52,10.64" class="stroke" stroke-dasharray="150"><set attributeName="opacity" to="0" dur="3.7s" /><animate attributeName="stroke-dashoffset" from="150" to="0" dur="1.8s" begin="3.7s" fill="freeze" /></path><path d="M41.76,20.41c5.24-0.66,13.49-2.16,20.87-3.29c0.95-0.15,1.53-0.17,2.01-0.04" class="stroke" stroke-dasharray="150"><set attributeName="opacity" to="0" dur="4.6000000000000005s" /><animate attributeName="stroke-dashoffset" from="150" to="0" dur="1.8s" begin="4.6000000000000005s" fill="freeze" /></path><path d="M40.41,19.17c0.25,0.99,0.67,2.52,0.76,3.01c0.09,0.5,0.37,36.85,0.32,39.95" class="stroke" stroke-dasharray="150"><set attributeName="opacity" to="0" dur="5.6000000000000005s" /><animate attributeName="stroke-dashoffset" from="150" to="0" dur="1.8s" begin="5.6000000000000005s" fill="freeze" /></path><path d="M53.26,20.11c0.42,0.25,0.67,1.14,0.76,1.65c0.09,0.51,0.12,6.44,0.07,9.66" class="stroke" stroke-dasharray="150"><set attributeName="opacity" to="0" dur="6.700000000000001s" /><animate attributeName="stroke-dashoffset" from="150" to="0" dur="1.8s" begin="6.700000000000001s" fill="freeze" /></path><path d="M41.54,33.75c6.49-1.11,15.57-2.25,20.07-3.02c1.82-0.31,2.34,0.74,2.1,2.13c-0.43,2.52-1.45,6.14-1.89,9.17" class="stroke" stroke-dasharray="150"><set attributeName="opacity" to="0" dur="7.600000000000001s" /><animate attributeName="stroke-dashoffset" from="150" to="0" dur="1.8s" begin="7.600000000000001s" fill="freeze" /></path><path d="M41.69,45.32c2.71-0.45,19.04-2.34,21.59-2.64" class="stroke" stroke-dasharray="150"><set attributeName="opacity" to="0" dur="8.600000000000001s" /><animate attributeName="stroke-dashoffset" from="150" to="0" dur="1.8s" begin="8.600000000000001s" fill="freeze" /></path><path d="M52.79,44.65c0.41,0.25,0.67,1.14,0.76,1.65s0.15,7.26,0.1,10.47" class="stroke" stroke-dasharray="150"><set attributeName="opacity" to="0" dur="9.600000000000001s" /><animate attributeName="stroke-dashoffset" from="150" to="0" dur="1.8s" begin="9.600000000000001s" fill="freeze" /></path><path d="M41.65,57.98c4.1-0.23,12.53-1.54,18.83-2.08c0.96-0.08,1.53-0.16,2.01-0.03" class="stroke" stroke-dasharray="150"><set attributeName="opacity" to="0" dur="10.500000000000002s" /><animate attributeName="stroke-dashoffset" from="150" to="0" dur="1.8s" begin="10.500000000000002s" fill="freeze" /></path><path d="M71.59,19.44c0.81,0.25,0.91,0.63,2.52,0.25c1.62-0.38,16.28-2.37,17.39-2.75c1.11-0.38,1.92,1.39,1.51,2.78C88.28,36.17,77.9,48.82,68.81,55.01" class="stroke" stroke-dasharray="150"><set attributeName="opacity" to="0" dur="11.500000000000002s" /><animate attributeName="stroke-dashoffset" from="150" to="0" dur="1.8s" begin="11.500000000000002s" fill="freeze" /></path><path d="M69.11,26.14c2.64,0.67,15.54,18.59,24.73,25.93c1.43,1.14,2.47,1.9,3.81,2.29" class="stroke" stroke-dasharray="150"><set attributeName="opacity" to="0" dur="13.000000000000002s" /><animate attributeName="stroke-dashoffset" from="150" to="0" dur="1.8s" begin="13.000000000000002s" fill="freeze" /></path><path d="M46.19,76.12c0.83,0.37,2.34,0.46,3.17,0.37c10.63-1.23,27.04-2.88,37.74-3.19c1.38-0.04,2.2,0.17,2.89,0.35" class="stroke" stroke-dasharray="150"><set attributeName="opacity" to="0" dur="14.100000000000001s" /><animate attributeName="stroke-dashoffset" from="150" to="0" dur="1.8s" begin="14.100000000000001s" fill="freeze" /></path><path d="M67.08,61.24c0.09,0.28,1.3,1.45,1.3,3.22c0,11.4-0.27,11.51-0.27,26.59" class="stroke" stroke-dasharray="150"><set attributeName="opacity" to="0" dur="15.200000000000001s" /><animate attributeName="stroke-dashoffset" from="150" to="0" dur="1.8s" begin="15.200000000000001s" fill="freeze" /></path><path d="M40.4,92.18c1.08,0.5,3.04,0.53,4.12,0.5c13.23-0.42,37.45-2.83,49.83-2.33c1.79,0.07,2.87,0.23,3.77,0.48" class="stroke" stroke-dasharray="150"><set attributeName="opacity" to="0" dur="16.200000000000003s" /><animate attributeName="stroke-dashoffset" from="150" to="0" dur="1.8s" begin="16.200000000000003s" fill="freeze" /></path><text x="90" y="120" id="reset-kvg-06a2b-KaishoHzFst">⟳</text><text x="70" y="120" id="pause-kvg-06a2b-KaishoHzFst">◼</text><script type="text/javascript"><![CDATA[function RecurringTimer(e,t){var n,r,i=t;this.pause=function(){window.clearTimeout(n);i-=new Date-r};var s=function(){r=new Date;n=window.setTimeout(function(){i=t;s();e()},i)};this.clear=function(){window.clearTimeout(n);i=t;n=window.setTimeout(function(){i=t;s();e()},i)};this.resume=s;this.resume()}function invoketimer(){timer=new RecurringTimer(function(){svg.setCurrentTime(0)},18600.0)}var svg=document.getElementById("kvg-06a2b-KaishoHzFst");var pause=document.getElementById("pause-kvg-06a2b-KaishoHzFst");var reset=document.getElementById("reset-kvg-06a2b-KaishoHzFst");var timer;invoketimer();reset.onclick=function(){svg.setCurrentTime(0);timer.clear();svg.unpauseAnimations();pause.innerHTML = "◼";};pause.onclick=function(){if(svg.animationsPaused()){svg.unpauseAnimations();timer.resume();pause.innerHTML="◼"}else{svg.pauseAnimations();timer.pause();pause.innerHTML="▶"}}]]></script></svg>