<svg id="kvg-06b21" class="kanjivg" width="106" height="126" xmlns="http://www.w3.org/2000/svg" xmlns:xlink="http://www.w3.org/1999/xlink" xml:space="preserve" version="1.1" baseProfile="full"><defs><style type="text/css"><![CDATA[path.black{fill:none;stroke:black;stroke-width:5;stroke-linecap:round;stroke-linejoin:round;}path.grey{fill:none;stroke:#ddd;stroke-width:5;stroke-linecap:round;stroke-linejoin:round;}path.stroke{fill:none;stroke:black;stroke-width:5;stroke-linecap:round;stroke-linejoin:round;}rect{fill:none;stroke:#555;stroke-width:2;} text{font-size:16px;font-family:Segoe UI Symbol,Cambria Math,DejaVu Sans,Symbola,Quivira,STIX,Code2000;-webkit-touch-callout:none;cursor:pointer;-webkit-user-select:none;-khtml-user-select:none;-moz-user-select:none;-ms-user-select:none;user-select: none;}text:hover{color:#777;}#reset{font-weight:bold;}]]></style><marker id="markerStart" markerWidth="8" markerHeight="8" style="overflow:visible;"><circle cx="0" cy="0" r="1.5" style="stroke:none;fill:red;fill-opacity:0.5;"/></marker><marker id="markerEnd" style="overflow:visible;"><circle cx="0" cy="0" r="0.8" style="stroke:none;fill:blue;fill-opacity:0.5;"><animate attributeName="opacity" from="1" to="0" dur="3s" repeatCount="indefinite" /></circle></marker></defs><rect x="4" y="4" width="100" height="100" /><path d="M17,26.38c4.41,1.57,9.88,5.25,11.75,8.62" class="grey" /><path d="M12.12,85.87c1.15,0.22,2.28-0.25,3.01-1.2c1.15-1.48,8.1-13.15,12.49-20.67" class="grey" /><path d="M53.95,16c0.43,0.86,0.6,1.9,0.35,2.81C52,26.88,44.88,40,36.25,48.41" class="grey" /><path d="M47.36,39.52c1.15,0.29,2.56,0.4,4.31,0.25C54.88,39.5,73.99,34.7,79,33.5c6.25-1.5,6,2.5-3.5,11.4" class="grey" /><path d="M56.77,49.2c0.73,1.3,0.8,2.71,0.58,4.26c-1.85,13.41-9.73,30.41-25.6,39.03" class="grey" /><path d="M57.42,56.97c5.33,6.16,17.33,19.53,27.25,28.88c2.29,2.16,4.33,3.78,7.83,5.28" class="grey" /><path d="M17,26.38c4.41,1.57,9.88,5.25,11.75,8.62" class="stroke" stroke-dasharray="150"><animate attributeName="stroke-dashoffset" from="150" to="0" dur="1.8s" begin="0.0s" fill="freeze" /></path><path d="M12.12,85.87c1.15,0.22,2.28-0.25,3.01-1.2c1.15-1.48,8.1-13.15,12.49-20.67" class="stroke" stroke-dasharray="150"><set attributeName="opacity" to="0" dur="0.9s" /><animate attributeName="stroke-dashoffset" from="150" to="0" dur="1.8s" begin="0.9s" fill="freeze" /></path><path d="M53.95,16c0.43,0.86,0.6,1.9,0.35,2.81C52,26.88,44.88,40,36.25,48.41" class="stroke" stroke-dasharray="150"><set attributeName="opacity" to="0" dur="1.9s" /><animate attributeName="stroke-dashoffset" from="150" to="0" dur="1.8s" begin="1.9s" fill="freeze" /></path><path d="M47.36,39.52c1.15,0.29,2.56,0.4,4.31,0.25C54.88,39.5,73.99,34.7,79,33.5c6.25-1.5,6,2.5-3.5,11.4" class="stroke" stroke-dasharray="150"><set attributeName="opacity" to="0" dur="2.9s" /><animate attributeName="stroke-dashoffset" from="150" to="0" dur="1.8s" begin="2.9s" fill="freeze" /></path><path d="M56.77,49.2c0.73,1.3,0.8,2.71,0.58,4.26c-1.85,13.41-9.73,30.41-25.6,39.03" class="stroke" stroke-dasharray="150"><set attributeName="opacity" to="0" dur="4.2s" /><animate attributeName="stroke-dashoffset" from="150" to="0" dur="1.8s" begin="4.2s" fill="freeze" /></path><path d="M57.42,56.97c5.33,6.16,17.33,19.53,27.25,28.88c2.29,2.16,4.33,3.78,7.83,5.28" class="stroke" stroke-dasharray="150"><set attributeName="opacity" to="0" dur="5.5s" /><animate attributeName="stroke-dashoffset" from="150" to="0" dur="1.8s" begin="5.5s" fill="freeze" /></path><text x="90" y="120" id="reset-kvg-06b21">⟳</text><text x="70" y="120" id="pause-kvg-06b21">◼</text><script type="text/javascript"><![CDATA[function RecurringTimer(e,t){var n,r,i=t;this.pause=function(){window.clearTimeout(n);i-=new Date-r};var s=function(){r=new Date;n=window.setTimeout(function(){i=t;s();e()},i)};this.clear=function(){window.clearTimeout(n);i=t;n=window.setTimeout(function(){i=t;s();e()},i)};this.resume=s;this.resume()}function invoketimer(){timer=new RecurringTimer(function(){svg.setCurrentTime(0)},7700.0)}var svg=document.getElementById("kvg-06b21");var pause=document.getElementById("pause-kvg-06b21");var reset=document.getElementById("reset-kvg-06b21");var timer;invoketimer();reset.onclick=function(){svg.setCurrentTime(0);timer.clear();svg.unpauseAnimations();pause.innerHTML = "◼";};pause.onclick=function(){if(svg.animationsPaused()){svg.unpauseAnimations();timer.resume();pause.innerHTML="◼"}else{svg.pauseAnimations();timer.pause();pause.innerHTML="▶"}}]]></script></svg>