<svg id="kvg-06b59" class="kanjivg" width="106" height="126" xmlns="http://www.w3.org/2000/svg" xmlns:xlink="http://www.w3.org/1999/xlink" xml:space="preserve" version="1.1" baseProfile="full"><defs><style type="text/css"><![CDATA[path.black{fill:none;stroke:black;stroke-width:5;stroke-linecap:round;stroke-linejoin:round;}path.grey{fill:none;stroke:#ddd;stroke-width:5;stroke-linecap:round;stroke-linejoin:round;}path.stroke{fill:none;stroke:black;stroke-width:5;stroke-linecap:round;stroke-linejoin:round;}rect{fill:none;stroke:#555;stroke-width:2;} text{font-size:16px;font-family:Segoe UI Symbol,Cambria Math,DejaVu Sans,Symbola,Quivira,STIX,Code2000;-webkit-touch-callout:none;cursor:pointer;-webkit-user-select:none;-khtml-user-select:none;-moz-user-select:none;-ms-user-select:none;user-select: none;}text:hover{color:#777;}#reset{font-weight:bold;}]]></style><marker id="markerStart" markerWidth="8" markerHeight="8" style="overflow:visible;"><circle cx="0" cy="0" r="1.5" style="stroke:none;fill:red;fill-opacity:0.5;"/></marker><marker id="markerEnd" style="overflow:visible;"><circle cx="0" cy="0" r="0.8" style="stroke:none;fill:blue;fill-opacity:0.5;"><animate attributeName="opacity" from="1" to="0" dur="3s" repeatCount="indefinite" /></circle></marker></defs><rect x="4" y="4" width="100" height="100" /><path d="M33.35,12.75c0.06,0.56,0.29,1.51-0.12,2.27c-2.82,5.28-8.96,15.09-20.98,21.68" class="grey" /><path d="M34.78,16.95c6.28,1.8,16.28,9.3,20.25,15.35" class="grey" /><path d="M25.85,31.02c0.37,0.11,2.11,0.13,2.48,0.11c3.87-0.13,9.03-1.28,14.56-1.3c0.62,0,1.52,0.05,1.83,0.11" class="grey" /><path d="M20.44,38.93c0.36,0.29,0.8,0.97,0.89,1.34c1.21,4.88,1.74,7.44,2.56,11.51" class="grey" /><path d="M22.17,40.38c9.08-1.13,19.4-2.67,23.63-3.04c1.55-0.14,2.48,0.8,2.26,1.6c-0.92,3.3-0.97,4.68-2.85,9.29" class="grey" /><path d="M23.8,50.46c5.72-0.32,16.16-1.52,23.45-1.82" class="grey" /><path d="M12.39,59.72c1.52,0.73,1.78,0.73,4.02,0.49c4.54-0.49,9.8-1.73,11.19-1.84c1.57-0.12,2.48,0.48,2.53,2.45c0.06,2.19-0.58,24.94-0.58,31.92c0,7.37-5.34,0.18-6.12-0.25" class="grey" /><path d="M21.71,62.48c0.03,0.29,0.06,0.75-0.05,1.16c-0.65,2.45-4.36,7.82-9.44,11.11" class="grey" /><path d="M24.83,72.62c0.04,0.36,0.07,0.93-0.07,1.45c-0.86,3.06-5.76,9.78-12.47,13.9" class="grey" /><path d="M34.93,59.47c1.51,0.75,1.25,0.75,3.47,0.51c4.51-0.51,10.17-1.67,11.55-1.75c3.1-0.18,2.97,0.9,2.97,3c0,3.36-0.83,24.22-0.83,31.41c0,7.64-5.31,0.97-6.08,0.52" class="grey" /><path d="M44.33,62.25c0.02,0.24,0.05,0.63-0.04,0.98c-0.54,2.06-3.65,6.58-7.91,9.34" class="grey" /><path d="M47.77,71.7c0.04,0.32,0.07,0.83-0.07,1.29c-0.83,2.73-5.58,8.72-12.08,12.38" class="grey" /><path d="M69.25,14.5c0.04,0.86,0.08,2.22-0.08,3.45C68.22,25.24,62.8,41.22,55.39,51" class="grey" /><path d="M65.72,37.49c0.91,0.36,2.64,0.93,4.01,0.61c1.67-0.39,18.68-4.65,20.26-4.85c8-1-0.83,9.59-2.5,11.5" class="grey" /><path d="M73.62,45c0.04,1.16,0.1,2.97-0.09,4.64C71.69,65.78,68.14,82.46,58,94" class="grey" /><path d="M72.42,58c3.45,8.19,15.92,27.49,21.59,34.26c1.2,1.43,2.1,2.28,3.24,2.74" class="grey" /><path d="M33.35,12.75c0.06,0.56,0.29,1.51-0.12,2.27c-2.82,5.28-8.96,15.09-20.98,21.68" class="stroke" stroke-dasharray="150"><animate attributeName="stroke-dashoffset" from="150" to="0" dur="1.8s" begin="0.0s" fill="freeze" /></path><path d="M34.78,16.95c6.28,1.8,16.28,9.3,20.25,15.35" class="stroke" stroke-dasharray="150"><set attributeName="opacity" to="0" dur="1.0s" /><animate attributeName="stroke-dashoffset" from="150" to="0" dur="1.8s" begin="1.0s" fill="freeze" /></path><path d="M25.85,31.02c0.37,0.11,2.11,0.13,2.48,0.11c3.87-0.13,9.03-1.28,14.56-1.3c0.62,0,1.52,0.05,1.83,0.11" class="stroke" stroke-dasharray="150"><set attributeName="opacity" to="0" dur="2.0s" /><animate attributeName="stroke-dashoffset" from="150" to="0" dur="1.8s" begin="2.0s" fill="freeze" /></path><path d="M20.44,38.93c0.36,0.29,0.8,0.97,0.89,1.34c1.21,4.88,1.74,7.44,2.56,11.51" class="stroke" stroke-dasharray="150"><set attributeName="opacity" to="0" dur="2.9s" /><animate attributeName="stroke-dashoffset" from="150" to="0" dur="1.8s" begin="2.9s" fill="freeze" /></path><path d="M22.17,40.38c9.08-1.13,19.4-2.67,23.63-3.04c1.55-0.14,2.48,0.8,2.26,1.6c-0.92,3.3-0.97,4.68-2.85,9.29" class="stroke" stroke-dasharray="150"><set attributeName="opacity" to="0" dur="3.8s" /><animate attributeName="stroke-dashoffset" from="150" to="0" dur="1.8s" begin="3.8s" fill="freeze" /></path><path d="M23.8,50.46c5.72-0.32,16.16-1.52,23.45-1.82" class="stroke" stroke-dasharray="150"><set attributeName="opacity" to="0" dur="4.8s" /><animate attributeName="stroke-dashoffset" from="150" to="0" dur="1.8s" begin="4.8s" fill="freeze" /></path><path d="M12.39,59.72c1.52,0.73,1.78,0.73,4.02,0.49c4.54-0.49,9.8-1.73,11.19-1.84c1.57-0.12,2.48,0.48,2.53,2.45c0.06,2.19-0.58,24.94-0.58,31.92c0,7.37-5.34,0.18-6.12-0.25" class="stroke" stroke-dasharray="150"><set attributeName="opacity" to="0" dur="5.8s" /><animate attributeName="stroke-dashoffset" from="150" to="0" dur="1.8s" begin="5.8s" fill="freeze" /></path><path d="M21.71,62.48c0.03,0.29,0.06,0.75-0.05,1.16c-0.65,2.45-4.36,7.82-9.44,11.11" class="stroke" stroke-dasharray="150"><set attributeName="opacity" to="0" dur="7.3s" /><animate attributeName="stroke-dashoffset" from="150" to="0" dur="1.8s" begin="7.3s" fill="freeze" /></path><path d="M24.83,72.62c0.04,0.36,0.07,0.93-0.07,1.45c-0.86,3.06-5.76,9.78-12.47,13.9" class="stroke" stroke-dasharray="150"><set attributeName="opacity" to="0" dur="8.2s" /><animate attributeName="stroke-dashoffset" from="150" to="0" dur="1.8s" begin="8.2s" fill="freeze" /></path><path d="M34.93,59.47c1.51,0.75,1.25,0.75,3.47,0.51c4.51-0.51,10.17-1.67,11.55-1.75c3.1-0.18,2.97,0.9,2.97,3c0,3.36-0.83,24.22-0.83,31.41c0,7.64-5.31,0.97-6.08,0.52" class="stroke" stroke-dasharray="150"><set attributeName="opacity" to="0" dur="9.2s" /><animate attributeName="stroke-dashoffset" from="150" to="0" dur="1.8s" begin="9.2s" fill="freeze" /></path><path d="M44.33,62.25c0.02,0.24,0.05,0.63-0.04,0.98c-0.54,2.06-3.65,6.58-7.91,9.34" class="stroke" stroke-dasharray="150"><set attributeName="opacity" to="0" dur="10.7s" /><animate attributeName="stroke-dashoffset" from="150" to="0" dur="1.8s" begin="10.7s" fill="freeze" /></path><path d="M47.77,71.7c0.04,0.32,0.07,0.83-0.07,1.29c-0.83,2.73-5.58,8.72-12.08,12.38" class="stroke" stroke-dasharray="150"><set attributeName="opacity" to="0" dur="11.6s" /><animate attributeName="stroke-dashoffset" from="150" to="0" dur="1.8s" begin="11.6s" fill="freeze" /></path><path d="M69.25,14.5c0.04,0.86,0.08,2.22-0.08,3.45C68.22,25.24,62.8,41.22,55.39,51" class="stroke" stroke-dasharray="150"><set attributeName="opacity" to="0" dur="12.5s" /><animate attributeName="stroke-dashoffset" from="150" to="0" dur="1.8s" begin="12.5s" fill="freeze" /></path><path d="M65.72,37.49c0.91,0.36,2.64,0.93,4.01,0.61c1.67-0.39,18.68-4.65,20.26-4.85c8-1-0.83,9.59-2.5,11.5" class="stroke" stroke-dasharray="150"><set attributeName="opacity" to="0" dur="13.5s" /><animate attributeName="stroke-dashoffset" from="150" to="0" dur="1.8s" begin="13.5s" fill="freeze" /></path><path d="M73.62,45c0.04,1.16,0.1,2.97-0.09,4.64C71.69,65.78,68.14,82.46,58,94" class="stroke" stroke-dasharray="150"><set attributeName="opacity" to="0" dur="14.6s" /><animate attributeName="stroke-dashoffset" from="150" to="0" dur="1.8s" begin="14.6s" fill="freeze" /></path><path d="M72.42,58c3.45,8.19,15.92,27.49,21.59,34.26c1.2,1.43,2.1,2.28,3.24,2.74" class="stroke" stroke-dasharray="150"><set attributeName="opacity" to="0" dur="15.9s" /><animate attributeName="stroke-dashoffset" from="150" to="0" dur="1.8s" begin="15.9s" fill="freeze" /></path><text x="90" y="120" id="reset-kvg-06b59">⟳</text><text x="70" y="120" id="pause-kvg-06b59">◼</text><script type="text/javascript"><![CDATA[function RecurringTimer(e,t){var n,r,i=t;this.pause=function(){window.clearTimeout(n);i-=new Date-r};var s=function(){r=new Date;n=window.setTimeout(function(){i=t;s();e()},i)};this.clear=function(){window.clearTimeout(n);i=t;n=window.setTimeout(function(){i=t;s();e()},i)};this.resume=s;this.resume()}function invoketimer(){timer=new RecurringTimer(function(){svg.setCurrentTime(0)},18000.0)}var svg=document.getElementById("kvg-06b59");var pause=document.getElementById("pause-kvg-06b59");var reset=document.getElementById("reset-kvg-06b59");var timer;invoketimer();reset.onclick=function(){svg.setCurrentTime(0);timer.clear();svg.unpauseAnimations();pause.innerHTML = "◼";};pause.onclick=function(){if(svg.animationsPaused()){svg.unpauseAnimations();timer.resume();pause.innerHTML="◼"}else{svg.pauseAnimations();timer.pause();pause.innerHTML="▶"}}]]></script></svg>