<svg id="kvg-06b95" class="kanjivg" width="106" height="126" xmlns="http://www.w3.org/2000/svg" xmlns:xlink="http://www.w3.org/1999/xlink" xml:space="preserve" version="1.1" baseProfile="full"><defs><style type="text/css"><![CDATA[path.black{fill:none;stroke:black;stroke-width:5;stroke-linecap:round;stroke-linejoin:round;}path.grey{fill:none;stroke:#ddd;stroke-width:5;stroke-linecap:round;stroke-linejoin:round;}path.stroke{fill:none;stroke:black;stroke-width:5;stroke-linecap:round;stroke-linejoin:round;}rect{fill:none;stroke:#555;stroke-width:2;} text{font-size:16px;font-family:Segoe UI Symbol,Cambria Math,DejaVu Sans,Symbola,Quivira,STIX,Code2000;-webkit-touch-callout:none;cursor:pointer;-webkit-user-select:none;-khtml-user-select:none;-moz-user-select:none;-ms-user-select:none;user-select: none;}text:hover{color:#777;}#reset{font-weight:bold;}]]></style><marker id="markerStart" markerWidth="8" markerHeight="8" style="overflow:visible;"><circle cx="0" cy="0" r="1.5" style="stroke:none;fill:red;fill-opacity:0.5;"/></marker><marker id="markerEnd" style="overflow:visible;"><circle cx="0" cy="0" r="0.8" style="stroke:none;fill:blue;fill-opacity:0.5;"><animate attributeName="opacity" from="1" to="0" dur="3s" repeatCount="indefinite" /></circle></marker></defs><rect x="4" y="4" width="100" height="100" /><path d="M12.75,21.97c1,0.03,3.29,0.6,4.3,0.52C23,22,35,20.25,41.28,19.51c1.64-0.19,2.64,0.25,3.47,0.5" class="grey" /><path d="M25.66,23.89c0.2,0.67,0.61,2.65,0.38,3.98c-1.79,10.38-4.98,22.76-14.87,33.29" class="grey" /><path d="M26.14,40c0.26,0.05,1.89,0.5,2.64,0.36c2.47-0.45,4.7-1.28,8.93-2.05c2.49-0.46,2.91,2.23,2.29,4.81C36.61,57.26,27.75,80.75,8.61,91" class="grey" /><path d="M19.21,56.48c2.76,1.53,7.12,6.28,7.81,8.66" class="grey" /><path d="M67.75,13.75c1,0.75,1.5,0.75,1.5,2.5s0,7.25,0,12" class="grey" /><path d="M48,29.7c1.22,0.33,2.64,0.38,3.85,0.33c6.87-0.28,26.75-3.53,37.13-3.77c2.03-0.05,3.25,0.16,4.26,0.32" class="grey" /><path d="M54.5,35.5c3.88,6.25,5.65,12.63,6,16.75" class="grey" /><path d="M82.08,31c0.69,0.69,0.77,1.05,0.69,1.62c-0.55,3.93-5.14,15.87-6.52,18.88" class="grey" /><path d="M43.75,56.3c1.46,0.39,3.17,0.54,4.62,0.39C64.25,55,76.75,54,95.15,53.2c2.43-0.11,3.89,0.19,5.1,0.38" class="grey" /><path d="M50.25,66.64c0.42,0.39,1.35,1.72,1.54,2.21c1.46,3.9,3.71,20.65,4.71,27.65" class="grey" /><path d="M52.38,68.78c8.87-1.28,28.12-2.83,33.06-3.29c2.56-0.24,3.81,0.76,3.63,2.71c-0.43,4.66-3.32,17.05-4.91,23.35" class="grey" /><path d="M56.7,94.08c5.8-0.58,19.3-1.58,29.27-1.97" class="grey" /><path d="M12.75,21.97c1,0.03,3.29,0.6,4.3,0.52C23,22,35,20.25,41.28,19.51c1.64-0.19,2.64,0.25,3.47,0.5" class="stroke" stroke-dasharray="150"><animate attributeName="stroke-dashoffset" from="150" to="0" dur="1.8s" begin="0.0s" fill="freeze" /></path><path d="M25.66,23.89c0.2,0.67,0.61,2.65,0.38,3.98c-1.79,10.38-4.98,22.76-14.87,33.29" class="stroke" stroke-dasharray="150"><set attributeName="opacity" to="0" dur="1.0s" /><animate attributeName="stroke-dashoffset" from="150" to="0" dur="1.8s" begin="1.0s" fill="freeze" /></path><path d="M26.14,40c0.26,0.05,1.89,0.5,2.64,0.36c2.47-0.45,4.7-1.28,8.93-2.05c2.49-0.46,2.91,2.23,2.29,4.81C36.61,57.26,27.75,80.75,8.61,91" class="stroke" stroke-dasharray="150"><set attributeName="opacity" to="0" dur="2.1s" /><animate attributeName="stroke-dashoffset" from="150" to="0" dur="1.8s" begin="2.1s" fill="freeze" /></path><path d="M19.21,56.48c2.76,1.53,7.12,6.28,7.81,8.66" class="stroke" stroke-dasharray="150"><set attributeName="opacity" to="0" dur="3.8s" /><animate attributeName="stroke-dashoffset" from="150" to="0" dur="1.8s" begin="3.8s" fill="freeze" /></path><path d="M67.75,13.75c1,0.75,1.5,0.75,1.5,2.5s0,7.25,0,12" class="stroke" stroke-dasharray="150"><set attributeName="opacity" to="0" dur="4.7s" /><animate attributeName="stroke-dashoffset" from="150" to="0" dur="1.8s" begin="4.7s" fill="freeze" /></path><path d="M48,29.7c1.22,0.33,2.64,0.38,3.85,0.33c6.87-0.28,26.75-3.53,37.13-3.77c2.03-0.05,3.25,0.16,4.26,0.32" class="stroke" stroke-dasharray="150"><set attributeName="opacity" to="0" dur="5.6000000000000005s" /><animate attributeName="stroke-dashoffset" from="150" to="0" dur="1.8s" begin="5.6000000000000005s" fill="freeze" /></path><path d="M54.5,35.5c3.88,6.25,5.65,12.63,6,16.75" class="stroke" stroke-dasharray="150"><set attributeName="opacity" to="0" dur="6.800000000000001s" /><animate attributeName="stroke-dashoffset" from="150" to="0" dur="1.8s" begin="6.800000000000001s" fill="freeze" /></path><path d="M82.08,31c0.69,0.69,0.77,1.05,0.69,1.62c-0.55,3.93-5.14,15.87-6.52,18.88" class="stroke" stroke-dasharray="150"><set attributeName="opacity" to="0" dur="7.700000000000001s" /><animate attributeName="stroke-dashoffset" from="150" to="0" dur="1.8s" begin="7.700000000000001s" fill="freeze" /></path><path d="M43.75,56.3c1.46,0.39,3.17,0.54,4.62,0.39C64.25,55,76.75,54,95.15,53.2c2.43-0.11,3.89,0.19,5.1,0.38" class="stroke" stroke-dasharray="150"><set attributeName="opacity" to="0" dur="8.700000000000001s" /><animate attributeName="stroke-dashoffset" from="150" to="0" dur="1.8s" begin="8.700000000000001s" fill="freeze" /></path><path d="M50.25,66.64c0.42,0.39,1.35,1.72,1.54,2.21c1.46,3.9,3.71,20.65,4.71,27.65" class="stroke" stroke-dasharray="150"><set attributeName="opacity" to="0" dur="10.100000000000001s" /><animate attributeName="stroke-dashoffset" from="150" to="0" dur="1.8s" begin="10.100000000000001s" fill="freeze" /></path><path d="M52.38,68.78c8.87-1.28,28.12-2.83,33.06-3.29c2.56-0.24,3.81,0.76,3.63,2.71c-0.43,4.66-3.32,17.05-4.91,23.35" class="stroke" stroke-dasharray="150"><set attributeName="opacity" to="0" dur="11.100000000000001s" /><animate attributeName="stroke-dashoffset" from="150" to="0" dur="1.8s" begin="11.100000000000001s" fill="freeze" /></path><path d="M56.7,94.08c5.8-0.58,19.3-1.58,29.27-1.97" class="stroke" stroke-dasharray="150"><set attributeName="opacity" to="0" dur="12.600000000000001s" /><animate attributeName="stroke-dashoffset" from="150" to="0" dur="1.8s" begin="12.600000000000001s" fill="freeze" /></path><text x="90" y="120" id="reset-kvg-06b95">⟳</text><text x="70" y="120" id="pause-kvg-06b95">◼</text><script type="text/javascript"><![CDATA[function RecurringTimer(e,t){var n,r,i=t;this.pause=function(){window.clearTimeout(n);i-=new Date-r};var s=function(){r=new Date;n=window.setTimeout(function(){i=t;s();e()},i)};this.clear=function(){window.clearTimeout(n);i=t;n=window.setTimeout(function(){i=t;s();e()},i)};this.resume=s;this.resume()}function invoketimer(){timer=new RecurringTimer(function(){svg.setCurrentTime(0)},14600.000000000002)}var svg=document.getElementById("kvg-06b95");var pause=document.getElementById("pause-kvg-06b95");var reset=document.getElementById("reset-kvg-06b95");var timer;invoketimer();reset.onclick=function(){svg.setCurrentTime(0);timer.clear();svg.unpauseAnimations();pause.innerHTML = "◼";};pause.onclick=function(){if(svg.animationsPaused()){svg.unpauseAnimations();timer.resume();pause.innerHTML="◼"}else{svg.pauseAnimations();timer.pause();pause.innerHTML="▶"}}]]></script></svg>