<svg id="kvg-06bbb" class="kanjivg" width="106" height="126" xmlns="http://www.w3.org/2000/svg" xmlns:xlink="http://www.w3.org/1999/xlink" xml:space="preserve" version="1.1" baseProfile="full"><defs><style type="text/css"><![CDATA[path.black{fill:none;stroke:black;stroke-width:5;stroke-linecap:round;stroke-linejoin:round;}path.grey{fill:none;stroke:#ddd;stroke-width:5;stroke-linecap:round;stroke-linejoin:round;}path.stroke{fill:none;stroke:black;stroke-width:5;stroke-linecap:round;stroke-linejoin:round;}rect{fill:none;stroke:#555;stroke-width:2;} text{font-size:16px;font-family:Segoe UI Symbol,Cambria Math,DejaVu Sans,Symbola,Quivira,STIX,Code2000;-webkit-touch-callout:none;cursor:pointer;-webkit-user-select:none;-khtml-user-select:none;-moz-user-select:none;-ms-user-select:none;user-select: none;}text:hover{color:#777;}#reset{font-weight:bold;}]]></style><marker id="markerStart" markerWidth="8" markerHeight="8" style="overflow:visible;"><circle cx="0" cy="0" r="1.5" style="stroke:none;fill:red;fill-opacity:0.5;"/></marker><marker id="markerEnd" style="overflow:visible;"><circle cx="0" cy="0" r="0.8" style="stroke:none;fill:blue;fill-opacity:0.5;"><animate attributeName="opacity" from="1" to="0" dur="3s" repeatCount="indefinite" /></circle></marker></defs><rect x="4" y="4" width="100" height="100" /><path d="M14.5,27.76c1.56,0.43,3.39,0.36,4.98,0.16c6.39-0.79,16.77-2.42,25.03-3.21c1.7-0.16,3.08,0.06,4.74,0.29" class="grey" /><path d="M31.28,13.38c0.86,0.86,1.38,1.92,1.38,3.21s0.02,15.79,0.02,21.51" class="grey" /><path d="M18.69,39.88c1.37,0.31,2.54,0.16,3.93,0.01c5.34-0.58,13.59-1.74,19.23-2.24c1.47-0.13,2.66-0.1,4.09,0.05" class="grey" /><path d="M16.25,49.38c-0.08,3.35-1.53,11.61-3.5,15.12" class="grey" /><path d="M16.68,52.82c9.19-1.45,19.78-3.41,28.71-4.17c6.24-0.53,1.21,3.95-0.81,6.37" class="grey" /><path d="M23.61,65.73c0.77,0.77,0.92,1.92,0.87,2.92C24,78.12,22.38,87.38,14.25,96" class="grey" /><path d="M25.69,67.08c2.07-0.32,9.85-2.12,11.5-2.43c1.65-0.32,2.78,1.01,2.78,2.65c0,3.09-0.85,17.31-0.97,18.46c-0.25,2.5,0.42,2.67,2.5,0.5c3-3.12,3.88-4.25,7-8.25" class="grey" /><path d="M58.98,16.61c0.64,0.64,1.23,1.79,1.21,2.8c-0.15,10.44-0.45,19.84-6.45,26.84" class="grey" /><path d="M60.85,19.1c4.15-0.48,12.11-2,13.55-2.21c2.6-0.39,3.5,0.54,3.3,2.4c-0.4,3.65-0.85,9.33-0.85,12.97c0,6.86,0.41,8.7,7.6,8.7c6.81,0,7.6-1.46,7.6-7.95" class="grey" /><path d="M55.75,53.84c1.31,0.38,3.22,0.7,5.83,0.13c2.61-0.57,14.67-2.84,18.15-3.67c1.83-0.44,3.5,1.7,2.7,3.67c-8.28,20.28-19.7,32.28-35.39,41.7" class="grey" /><path d="M55.03,60.6c4.63,0.79,18.47,16.27,30.37,27.27c2.57,2.37,5.23,4.51,8.82,6.3" class="grey" /><path d="M14.5,27.76c1.56,0.43,3.39,0.36,4.98,0.16c6.39-0.79,16.77-2.42,25.03-3.21c1.7-0.16,3.08,0.06,4.74,0.29" class="stroke" stroke-dasharray="150"><animate attributeName="stroke-dashoffset" from="150" to="0" dur="1.8s" begin="0.0s" fill="freeze" /></path><path d="M31.28,13.38c0.86,0.86,1.38,1.92,1.38,3.21s0.02,15.79,0.02,21.51" class="stroke" stroke-dasharray="150"><set attributeName="opacity" to="0" dur="1.0s" /><animate attributeName="stroke-dashoffset" from="150" to="0" dur="1.8s" begin="1.0s" fill="freeze" /></path><path d="M18.69,39.88c1.37,0.31,2.54,0.16,3.93,0.01c5.34-0.58,13.59-1.74,19.23-2.24c1.47-0.13,2.66-0.1,4.09,0.05" class="stroke" stroke-dasharray="150"><set attributeName="opacity" to="0" dur="2.0s" /><animate attributeName="stroke-dashoffset" from="150" to="0" dur="1.8s" begin="2.0s" fill="freeze" /></path><path d="M16.25,49.38c-0.08,3.35-1.53,11.61-3.5,15.12" class="stroke" stroke-dasharray="150"><set attributeName="opacity" to="0" dur="3.0s" /><animate attributeName="stroke-dashoffset" from="150" to="0" dur="1.8s" begin="3.0s" fill="freeze" /></path><path d="M16.68,52.82c9.19-1.45,19.78-3.41,28.71-4.17c6.24-0.53,1.21,3.95-0.81,6.37" class="stroke" stroke-dasharray="150"><set attributeName="opacity" to="0" dur="3.9s" /><animate attributeName="stroke-dashoffset" from="150" to="0" dur="1.8s" begin="3.9s" fill="freeze" /></path><path d="M23.61,65.73c0.77,0.77,0.92,1.92,0.87,2.92C24,78.12,22.38,87.38,14.25,96" class="stroke" stroke-dasharray="150"><set attributeName="opacity" to="0" dur="4.9s" /><animate attributeName="stroke-dashoffset" from="150" to="0" dur="1.8s" begin="4.9s" fill="freeze" /></path><path d="M25.69,67.08c2.07-0.32,9.85-2.12,11.5-2.43c1.65-0.32,2.78,1.01,2.78,2.65c0,3.09-0.85,17.31-0.97,18.46c-0.25,2.5,0.42,2.67,2.5,0.5c3-3.12,3.88-4.25,7-8.25" class="stroke" stroke-dasharray="150"><set attributeName="opacity" to="0" dur="5.9s" /><animate attributeName="stroke-dashoffset" from="150" to="0" dur="1.8s" begin="5.9s" fill="freeze" /></path><path d="M58.98,16.61c0.64,0.64,1.23,1.79,1.21,2.8c-0.15,10.44-0.45,19.84-6.45,26.84" class="stroke" stroke-dasharray="150"><set attributeName="opacity" to="0" dur="7.2s" /><animate attributeName="stroke-dashoffset" from="150" to="0" dur="1.8s" begin="7.2s" fill="freeze" /></path><path d="M60.85,19.1c4.15-0.48,12.11-2,13.55-2.21c2.6-0.39,3.5,0.54,3.3,2.4c-0.4,3.65-0.85,9.33-0.85,12.97c0,6.86,0.41,8.7,7.6,8.7c6.81,0,7.6-1.46,7.6-7.95" class="stroke" stroke-dasharray="150"><set attributeName="opacity" to="0" dur="8.2s" /><animate attributeName="stroke-dashoffset" from="150" to="0" dur="1.8s" begin="8.2s" fill="freeze" /></path><path d="M55.75,53.84c1.31,0.38,3.22,0.7,5.83,0.13c2.61-0.57,14.67-2.84,18.15-3.67c1.83-0.44,3.5,1.7,2.7,3.67c-8.28,20.28-19.7,32.28-35.39,41.7" class="stroke" stroke-dasharray="150"><set attributeName="opacity" to="0" dur="9.6s" /><animate attributeName="stroke-dashoffset" from="150" to="0" dur="1.8s" begin="9.6s" fill="freeze" /></path><path d="M55.03,60.6c4.63,0.79,18.47,16.27,30.37,27.27c2.57,2.37,5.23,4.51,8.82,6.3" class="stroke" stroke-dasharray="150"><set attributeName="opacity" to="0" dur="11.299999999999999s" /><animate attributeName="stroke-dashoffset" from="150" to="0" dur="1.8s" begin="11.299999999999999s" fill="freeze" /></path><text x="90" y="120" id="reset-kvg-06bbb">⟳</text><text x="70" y="120" id="pause-kvg-06bbb">◼</text><script type="text/javascript"><![CDATA[function RecurringTimer(e,t){var n,r,i=t;this.pause=function(){window.clearTimeout(n);i-=new Date-r};var s=function(){r=new Date;n=window.setTimeout(function(){i=t;s();e()},i)};this.clear=function(){window.clearTimeout(n);i=t;n=window.setTimeout(function(){i=t;s();e()},i)};this.resume=s;this.resume()}function invoketimer(){timer=new RecurringTimer(function(){svg.setCurrentTime(0)},13600.0)}var svg=document.getElementById("kvg-06bbb");var pause=document.getElementById("pause-kvg-06bbb");var reset=document.getElementById("reset-kvg-06bbb");var timer;invoketimer();reset.onclick=function(){svg.setCurrentTime(0);timer.clear();svg.unpauseAnimations();pause.innerHTML = "◼";};pause.onclick=function(){if(svg.animationsPaused()){svg.unpauseAnimations();timer.resume();pause.innerHTML="◼"}else{svg.pauseAnimations();timer.pause();pause.innerHTML="▶"}}]]></script></svg>