<svg id="kvg-06c37" class="kanjivg" width="106" height="126" xmlns="http://www.w3.org/2000/svg" xmlns:xlink="http://www.w3.org/1999/xlink" xml:space="preserve" version="1.1" baseProfile="full"><defs><style type="text/css"><![CDATA[path.black{fill:none;stroke:black;stroke-width:5;stroke-linecap:round;stroke-linejoin:round;}path.grey{fill:none;stroke:#ddd;stroke-width:5;stroke-linecap:round;stroke-linejoin:round;}path.stroke{fill:none;stroke:black;stroke-width:5;stroke-linecap:round;stroke-linejoin:round;}rect{fill:none;stroke:#555;stroke-width:2;} text{font-size:16px;font-family:Segoe UI Symbol,Cambria Math,DejaVu Sans,Symbola,Quivira,STIX,Code2000;-webkit-touch-callout:none;cursor:pointer;-webkit-user-select:none;-khtml-user-select:none;-moz-user-select:none;-ms-user-select:none;user-select: none;}text:hover{color:#777;}#reset{font-weight:bold;}]]></style><marker id="markerStart" markerWidth="8" markerHeight="8" style="overflow:visible;"><circle cx="0" cy="0" r="1.5" style="stroke:none;fill:red;fill-opacity:0.5;"/></marker><marker id="markerEnd" style="overflow:visible;"><circle cx="0" cy="0" r="0.8" style="stroke:none;fill:blue;fill-opacity:0.5;"><animate attributeName="opacity" from="1" to="0" dur="3s" repeatCount="indefinite" /></circle></marker></defs><rect x="4" y="4" width="100" height="100" /><path d="M52.02,14.83c1.33,1.33,2.01,3.04,2.01,5.27c0,14.56-0.23,63.41-0.26,68.37c-0.03,7.77-5.89,1.66-8.02-0.47" class="grey" /><path d="M24.14,25.46c4.21,1.54,10.87,6.35,11.92,8.76" class="grey" /><path d="M16.5,52.5c1.75,0.62,3.2,0.8,4.75,0.5c3.25-0.62,11.84-4.25,14.34-5.25s4.55,0.77,3.75,3C36.75,58,29.12,71.38,19.25,80" class="grey" /><path d="M81,24.88c0.16,1.1-0.23,2.47-0.97,3.25C74,34.5,66.62,40,56.75,45.5" class="grey" /><path d="M56.75,46C65.5,55.78,77,69.33,85.83,76.93c2.35,2.02,4.54,3.94,7.42,5.07" class="grey" /><path d="M52.02,14.83c1.33,1.33,2.01,3.04,2.01,5.27c0,14.56-0.23,63.41-0.26,68.37c-0.03,7.77-5.89,1.66-8.02-0.47" class="stroke" stroke-dasharray="150"><animate attributeName="stroke-dashoffset" from="150" to="0" dur="1.8s" begin="0.0s" fill="freeze" /></path><path d="M24.14,25.46c4.21,1.54,10.87,6.35,11.92,8.76" class="stroke" stroke-dasharray="150"><set attributeName="opacity" to="0" dur="1.7s" /><animate attributeName="stroke-dashoffset" from="150" to="0" dur="1.8s" begin="1.7s" fill="freeze" /></path><path d="M16.5,52.5c1.75,0.62,3.2,0.8,4.75,0.5c3.25-0.62,11.84-4.25,14.34-5.25s4.55,0.77,3.75,3C36.75,58,29.12,71.38,19.25,80" class="stroke" stroke-dasharray="150"><set attributeName="opacity" to="0" dur="2.6s" /><animate attributeName="stroke-dashoffset" from="150" to="0" dur="1.8s" begin="2.6s" fill="freeze" /></path><path d="M81,24.88c0.16,1.1-0.23,2.47-0.97,3.25C74,34.5,66.62,40,56.75,45.5" class="stroke" stroke-dasharray="150"><set attributeName="opacity" to="0" dur="4.1s" /><animate attributeName="stroke-dashoffset" from="150" to="0" dur="1.8s" begin="4.1s" fill="freeze" /></path><path d="M56.75,46C65.5,55.78,77,69.33,85.83,76.93c2.35,2.02,4.54,3.94,7.42,5.07" class="stroke" stroke-dasharray="150"><set attributeName="opacity" to="0" dur="5.1s" /><animate attributeName="stroke-dashoffset" from="150" to="0" dur="1.8s" begin="5.1s" fill="freeze" /></path><text x="90" y="120" id="reset-kvg-06c37">⟳</text><text x="70" y="120" id="pause-kvg-06c37">◼</text><script type="text/javascript"><![CDATA[function RecurringTimer(e,t){var n,r,i=t;this.pause=function(){window.clearTimeout(n);i-=new Date-r};var s=function(){r=new Date;n=window.setTimeout(function(){i=t;s();e()},i)};this.clear=function(){window.clearTimeout(n);i=t;n=window.setTimeout(function(){i=t;s();e()},i)};this.resume=s;this.resume()}function invoketimer(){timer=new RecurringTimer(function(){svg.setCurrentTime(0)},7399.999999999999)}var svg=document.getElementById("kvg-06c37");var pause=document.getElementById("pause-kvg-06c37");var reset=document.getElementById("reset-kvg-06c37");var timer;invoketimer();reset.onclick=function(){svg.setCurrentTime(0);timer.clear();svg.unpauseAnimations();pause.innerHTML = "◼";};pause.onclick=function(){if(svg.animationsPaused()){svg.unpauseAnimations();timer.resume();pause.innerHTML="◼"}else{svg.pauseAnimations();timer.pause();pause.innerHTML="▶"}}]]></script></svg>