<svg id="kvg-06c42" class="kanjivg" width="106" height="126" xmlns="http://www.w3.org/2000/svg" xmlns:xlink="http://www.w3.org/1999/xlink" xml:space="preserve" version="1.1" baseProfile="full"><defs><style type="text/css"><![CDATA[path.black{fill:none;stroke:black;stroke-width:5;stroke-linecap:round;stroke-linejoin:round;}path.grey{fill:none;stroke:#ddd;stroke-width:5;stroke-linecap:round;stroke-linejoin:round;}path.stroke{fill:none;stroke:black;stroke-width:5;stroke-linecap:round;stroke-linejoin:round;}rect{fill:none;stroke:#555;stroke-width:2;} text{font-size:16px;font-family:Segoe UI Symbol,Cambria Math,DejaVu Sans,Symbola,Quivira,STIX,Code2000;-webkit-touch-callout:none;cursor:pointer;-webkit-user-select:none;-khtml-user-select:none;-moz-user-select:none;-ms-user-select:none;user-select: none;}text:hover{color:#777;}#reset{font-weight:bold;}]]></style><marker id="markerStart" markerWidth="8" markerHeight="8" style="overflow:visible;"><circle cx="0" cy="0" r="1.5" style="stroke:none;fill:red;fill-opacity:0.5;"/></marker><marker id="markerEnd" style="overflow:visible;"><circle cx="0" cy="0" r="0.8" style="stroke:none;fill:blue;fill-opacity:0.5;"><animate attributeName="opacity" from="1" to="0" dur="3s" repeatCount="indefinite" /></circle></marker></defs><rect x="4" y="4" width="100" height="100" /><path d="M19.75,35.4c2.75,0.47,6.08,0.33,8.77,0.02C41,34,62.3,31.74,74.38,30.83c3.24-0.25,6.66-0.65,9.87,0.05" class="grey" /><path d="M52.27,11.33c1.26,1.26,1.76,2.67,1.76,4.77c0,15.77-0.01,68.02-0.01,77.12c0,8.53-5.77,2.53-8.71,0.25" class="grey" /><path d="M26.27,49.08c3.99,1.48,10.3,6.08,11.29,8.38" class="grey" /><path d="M18.45,83.33c1.18,0.55,2.93,0.42,4.3-0.7c1.7-1.39,14.5-13.38,22.75-21.38" class="grey" /><path d="M81,42.25c0,0.88-0.22,2.08-0.78,2.81c-3.37,4.36-9.59,9.13-15.47,12.19" class="grey" /><path d="M60.25,62.5c3.5,1,17.39,15.53,24.45,20.14c2.06,1.34,5.3,3.48,8.05,4.36" class="grey" /><path d="M69.5,11.5c4.08,1.63,10.54,6.69,11.56,9.22" class="grey" /><path d="M19.75,35.4c2.75,0.47,6.08,0.33,8.77,0.02C41,34,62.3,31.74,74.38,30.83c3.24-0.25,6.66-0.65,9.87,0.05" class="stroke" stroke-dasharray="150"><animate attributeName="stroke-dashoffset" from="150" to="0" dur="1.8s" begin="0.0s" fill="freeze" /></path><path d="M52.27,11.33c1.26,1.26,1.76,2.67,1.76,4.77c0,15.77-0.01,68.02-0.01,77.12c0,8.53-5.77,2.53-8.71,0.25" class="stroke" stroke-dasharray="150"><set attributeName="opacity" to="0" dur="1.5s" /><animate attributeName="stroke-dashoffset" from="150" to="0" dur="1.8s" begin="1.5s" fill="freeze" /></path><path d="M26.27,49.08c3.99,1.48,10.3,6.08,11.29,8.38" class="stroke" stroke-dasharray="150"><set attributeName="opacity" to="0" dur="3.3s" /><animate attributeName="stroke-dashoffset" from="150" to="0" dur="1.8s" begin="3.3s" fill="freeze" /></path><path d="M18.45,83.33c1.18,0.55,2.93,0.42,4.3-0.7c1.7-1.39,14.5-13.38,22.75-21.38" class="stroke" stroke-dasharray="150"><set attributeName="opacity" to="0" dur="4.2s" /><animate attributeName="stroke-dashoffset" from="150" to="0" dur="1.8s" begin="4.2s" fill="freeze" /></path><path d="M81,42.25c0,0.88-0.22,2.08-0.78,2.81c-3.37,4.36-9.59,9.13-15.47,12.19" class="stroke" stroke-dasharray="150"><set attributeName="opacity" to="0" dur="5.2s" /><animate attributeName="stroke-dashoffset" from="150" to="0" dur="1.8s" begin="5.2s" fill="freeze" /></path><path d="M60.25,62.5c3.5,1,17.39,15.53,24.45,20.14c2.06,1.34,5.3,3.48,8.05,4.36" class="stroke" stroke-dasharray="150"><set attributeName="opacity" to="0" dur="6.2s" /><animate attributeName="stroke-dashoffset" from="150" to="0" dur="1.8s" begin="6.2s" fill="freeze" /></path><path d="M69.5,11.5c4.08,1.63,10.54,6.69,11.56,9.22" class="stroke" stroke-dasharray="150"><set attributeName="opacity" to="0" dur="7.300000000000001s" /><animate attributeName="stroke-dashoffset" from="150" to="0" dur="1.8s" begin="7.300000000000001s" fill="freeze" /></path><text x="90" y="120" id="reset-kvg-06c42">⟳</text><text x="70" y="120" id="pause-kvg-06c42">◼</text><script type="text/javascript"><![CDATA[function RecurringTimer(e,t){var n,r,i=t;this.pause=function(){window.clearTimeout(n);i-=new Date-r};var s=function(){r=new Date;n=window.setTimeout(function(){i=t;s();e()},i)};this.clear=function(){window.clearTimeout(n);i=t;n=window.setTimeout(function(){i=t;s();e()},i)};this.resume=s;this.resume()}function invoketimer(){timer=new RecurringTimer(function(){svg.setCurrentTime(0)},9200.000000000002)}var svg=document.getElementById("kvg-06c42");var pause=document.getElementById("pause-kvg-06c42");var reset=document.getElementById("reset-kvg-06c42");var timer;invoketimer();reset.onclick=function(){svg.setCurrentTime(0);timer.clear();svg.unpauseAnimations();pause.innerHTML = "◼";};pause.onclick=function(){if(svg.animationsPaused()){svg.unpauseAnimations();timer.resume();pause.innerHTML="◼"}else{svg.pauseAnimations();timer.pause();pause.innerHTML="▶"}}]]></script></svg>