<svg id="kvg-06cf1" class="kanjivg" width="106" height="126" xmlns="http://www.w3.org/2000/svg" xmlns:xlink="http://www.w3.org/1999/xlink" xml:space="preserve" version="1.1" baseProfile="full"><defs><style type="text/css"><![CDATA[path.black{fill:none;stroke:black;stroke-width:5;stroke-linecap:round;stroke-linejoin:round;}path.grey{fill:none;stroke:#ddd;stroke-width:5;stroke-linecap:round;stroke-linejoin:round;}path.stroke{fill:none;stroke:black;stroke-width:5;stroke-linecap:round;stroke-linejoin:round;}rect{fill:none;stroke:#555;stroke-width:2;} text{font-size:16px;font-family:Segoe UI Symbol,Cambria Math,DejaVu Sans,Symbola,Quivira,STIX,Code2000;-webkit-touch-callout:none;cursor:pointer;-webkit-user-select:none;-khtml-user-select:none;-moz-user-select:none;-ms-user-select:none;user-select: none;}text:hover{color:#777;}#reset{font-weight:bold;}]]></style><marker id="markerStart" markerWidth="8" markerHeight="8" style="overflow:visible;"><circle cx="0" cy="0" r="1.5" style="stroke:none;fill:red;fill-opacity:0.5;"/></marker><marker id="markerEnd" style="overflow:visible;"><circle cx="0" cy="0" r="0.8" style="stroke:none;fill:blue;fill-opacity:0.5;"><animate attributeName="opacity" from="1" to="0" dur="3s" repeatCount="indefinite" /></circle></marker></defs><rect x="4" y="4" width="100" height="100" /><path d="M18.13,18c4.1,1.52,10.59,6.23,11.62,8.59" class="grey" /><path d="M13.75,42c3.97,1.68,10.26,6.89,11.25,9.5" class="grey" /><path d="M13.25,88.75c1.78,1.25,3.91,1.3,5.03-0.24c3.26-4.5,8.51-14.01,11.47-19.76" class="grey" /><path d="M41.71,31.22c0.93,1.09,1.39,1.97,1.62,3.28c0.23,1.31,1.39,17.49,1.39,21.06" class="grey" /><path d="M43.36,33.27c3.15-0.44,33.95-2.09,38.21-2.75c4.27-0.66,5.01,0.88,4.64,2.87c-0.37,1.99-2.28,17.94-2.65,20.36" class="grey" /><path d="M32.27,56.2c1.01,0.39,3.59,0.58,4.71,0.54C49.46,56.25,80,54.5,91.59,54.38c1.4-0.01,3.39-0.35,6.52,0.31" class="grey" /><path d="M61.94,14c1.03,0.77,1.23,2.41,1.29,4.82C64.5,69.75,57.25,83,32.67,96" class="grey" /><path d="M62.85,55.69C69.25,69,82.5,83.75,91.29,91.1c2.59,2.16,3.27,2.7,4.37,2.92" class="grey" /><path d="M18.13,18c4.1,1.52,10.59,6.23,11.62,8.59" class="stroke" stroke-dasharray="150"><animate attributeName="stroke-dashoffset" from="150" to="0" dur="1.8s" begin="0.0s" fill="freeze" /></path><path d="M13.75,42c3.97,1.68,10.26,6.89,11.25,9.5" class="stroke" stroke-dasharray="150"><set attributeName="opacity" to="0" dur="0.9s" /><animate attributeName="stroke-dashoffset" from="150" to="0" dur="1.8s" begin="0.9s" fill="freeze" /></path><path d="M13.25,88.75c1.78,1.25,3.91,1.3,5.03-0.24c3.26-4.5,8.51-14.01,11.47-19.76" class="stroke" stroke-dasharray="150"><set attributeName="opacity" to="0" dur="1.8s" /><animate attributeName="stroke-dashoffset" from="150" to="0" dur="1.8s" begin="1.8s" fill="freeze" /></path><path d="M41.71,31.22c0.93,1.09,1.39,1.97,1.62,3.28c0.23,1.31,1.39,17.49,1.39,21.06" class="stroke" stroke-dasharray="150"><set attributeName="opacity" to="0" dur="2.8s" /><animate attributeName="stroke-dashoffset" from="150" to="0" dur="1.8s" begin="2.8s" fill="freeze" /></path><path d="M43.36,33.27c3.15-0.44,33.95-2.09,38.21-2.75c4.27-0.66,5.01,0.88,4.64,2.87c-0.37,1.99-2.28,17.94-2.65,20.36" class="stroke" stroke-dasharray="150"><set attributeName="opacity" to="0" dur="3.8s" /><animate attributeName="stroke-dashoffset" from="150" to="0" dur="1.8s" begin="3.8s" fill="freeze" /></path><path d="M32.27,56.2c1.01,0.39,3.59,0.58,4.71,0.54C49.46,56.25,80,54.5,91.59,54.38c1.4-0.01,3.39-0.35,6.52,0.31" class="stroke" stroke-dasharray="150"><set attributeName="opacity" to="0" dur="5.3s" /><animate attributeName="stroke-dashoffset" from="150" to="0" dur="1.8s" begin="5.3s" fill="freeze" /></path><path d="M61.94,14c1.03,0.77,1.23,2.41,1.29,4.82C64.5,69.75,57.25,83,32.67,96" class="stroke" stroke-dasharray="150"><set attributeName="opacity" to="0" dur="6.8s" /><animate attributeName="stroke-dashoffset" from="150" to="0" dur="1.8s" begin="6.8s" fill="freeze" /></path><path d="M62.85,55.69C69.25,69,82.5,83.75,91.29,91.1c2.59,2.16,3.27,2.7,4.37,2.92" class="stroke" stroke-dasharray="150"><set attributeName="opacity" to="0" dur="8.6s" /><animate attributeName="stroke-dashoffset" from="150" to="0" dur="1.8s" begin="8.6s" fill="freeze" /></path><text x="90" y="120" id="reset-kvg-06cf1">⟳</text><text x="70" y="120" id="pause-kvg-06cf1">◼</text><script type="text/javascript"><![CDATA[function RecurringTimer(e,t){var n,r,i=t;this.pause=function(){window.clearTimeout(n);i-=new Date-r};var s=function(){r=new Date;n=window.setTimeout(function(){i=t;s();e()},i)};this.clear=function(){window.clearTimeout(n);i=t;n=window.setTimeout(function(){i=t;s();e()},i)};this.resume=s;this.resume()}function invoketimer(){timer=new RecurringTimer(function(){svg.setCurrentTime(0)},10900.0)}var svg=document.getElementById("kvg-06cf1");var pause=document.getElementById("pause-kvg-06cf1");var reset=document.getElementById("reset-kvg-06cf1");var timer;invoketimer();reset.onclick=function(){svg.setCurrentTime(0);timer.clear();svg.unpauseAnimations();pause.innerHTML = "◼";};pause.onclick=function(){if(svg.animationsPaused()){svg.unpauseAnimations();timer.resume();pause.innerHTML="◼"}else{svg.pauseAnimations();timer.pause();pause.innerHTML="▶"}}]]></script></svg>