<svg id="kvg-06d1f" class="kanjivg" width="106" height="126" xmlns="http://www.w3.org/2000/svg" xmlns:xlink="http://www.w3.org/1999/xlink" xml:space="preserve" version="1.1" baseProfile="full"><defs><style type="text/css"><![CDATA[path.black{fill:none;stroke:black;stroke-width:5;stroke-linecap:round;stroke-linejoin:round;}path.grey{fill:none;stroke:#ddd;stroke-width:5;stroke-linecap:round;stroke-linejoin:round;}path.stroke{fill:none;stroke:black;stroke-width:5;stroke-linecap:round;stroke-linejoin:round;}rect{fill:none;stroke:#555;stroke-width:2;} text{font-size:16px;font-family:Segoe UI Symbol,Cambria Math,DejaVu Sans,Symbola,Quivira,STIX,Code2000;-webkit-touch-callout:none;cursor:pointer;-webkit-user-select:none;-khtml-user-select:none;-moz-user-select:none;-ms-user-select:none;user-select: none;}text:hover{color:#777;}#reset{font-weight:bold;}]]></style><marker id="markerStart" markerWidth="8" markerHeight="8" style="overflow:visible;"><circle cx="0" cy="0" r="1.5" style="stroke:none;fill:red;fill-opacity:0.5;"/></marker><marker id="markerEnd" style="overflow:visible;"><circle cx="0" cy="0" r="0.8" style="stroke:none;fill:blue;fill-opacity:0.5;"><animate attributeName="opacity" from="1" to="0" dur="3s" repeatCount="indefinite" /></circle></marker></defs><rect x="4" y="4" width="100" height="100" /><path d="M17.13,18.25c4.63,1.65,11.96,6.78,13.12,9.34" class="grey" /><path d="M13.75,43.75c4.5,1.54,11.62,6.35,12.75,8.75" class="grey" /><path d="M13.25,89.23c1.71,1.27,3.78,1.32,4.86-0.25C21.25,84.42,29.39,70.83,32.25,65" class="grey" /><path d="M40.33,25.96c1.35,0.32,3.82,0.36,5.18,0.32c8.87-0.23,27.78-3.2,40.63-3.2c2.25,0,3.6,0.15,4.73,0.31" class="grey" /><path d="M43.04,36.41c1.21,0.34,2.86,1.08,4.76,0.95C53,37,77.63,34.51,81.42,33.78c3.78-0.72,4.83,1.73,3.7,3.66c-0.81,1.38-1.8,4.08-2.45,6.54c-0.26,0.98-0.47,1.92-0.59,2.73" class="grey" /><path d="M46.3,50.17C56,49,73.04,47.42,80.83,47.24c1.55-0.04,2.48,0.18,3.26,0.38" class="grey" /><path d="M46.19,48.58c0.31,1.17,0.46,2.08-0.28,3.6c-0.84,1.75-3.26,7.65-3.92,8.37c-1.5,1.67-1.29,3.92,1.7,3.39c4.15-0.73,38.09-4.33,44.14-5.05c3.09-0.37,4.88,1.14,4.14,4.6c-1.1,5.17-2.48,8.75-4.99,13.5c-2.99,5.65-4.78,1.32-6.51-0.55" class="grey" /><path d="M61.97,12.25c1.29,1.71,1.72,2.71,1.72,5.63c0,26.68,4.81,62.62-31.38,80.33" class="grey" /><path d="M60.22,66.21C64.51,71.89,83,90.43,87.73,94.58C89.33,96,91.39,96.6,93,97" class="grey" /><path d="M17.13,18.25c4.63,1.65,11.96,6.78,13.12,9.34" class="stroke" stroke-dasharray="150"><animate attributeName="stroke-dashoffset" from="150" to="0" dur="1.8s" begin="0.0s" fill="freeze" /></path><path d="M13.75,43.75c4.5,1.54,11.62,6.35,12.75,8.75" class="stroke" stroke-dasharray="150"><set attributeName="opacity" to="0" dur="0.9s" /><animate attributeName="stroke-dashoffset" from="150" to="0" dur="1.8s" begin="0.9s" fill="freeze" /></path><path d="M13.25,89.23c1.71,1.27,3.78,1.32,4.86-0.25C21.25,84.42,29.39,70.83,32.25,65" class="stroke" stroke-dasharray="150"><set attributeName="opacity" to="0" dur="1.8s" /><animate attributeName="stroke-dashoffset" from="150" to="0" dur="1.8s" begin="1.8s" fill="freeze" /></path><path d="M40.33,25.96c1.35,0.32,3.82,0.36,5.18,0.32c8.87-0.23,27.78-3.2,40.63-3.2c2.25,0,3.6,0.15,4.73,0.31" class="stroke" stroke-dasharray="150"><set attributeName="opacity" to="0" dur="2.8s" /><animate attributeName="stroke-dashoffset" from="150" to="0" dur="1.8s" begin="2.8s" fill="freeze" /></path><path d="M43.04,36.41c1.21,0.34,2.86,1.08,4.76,0.95C53,37,77.63,34.51,81.42,33.78c3.78-0.72,4.83,1.73,3.7,3.66c-0.81,1.38-1.8,4.08-2.45,6.54c-0.26,0.98-0.47,1.92-0.59,2.73" class="stroke" stroke-dasharray="150"><set attributeName="opacity" to="0" dur="4.1s" /><animate attributeName="stroke-dashoffset" from="150" to="0" dur="1.8s" begin="4.1s" fill="freeze" /></path><path d="M46.3,50.17C56,49,73.04,47.42,80.83,47.24c1.55-0.04,2.48,0.18,3.26,0.38" class="stroke" stroke-dasharray="150"><set attributeName="opacity" to="0" dur="5.5s" /><animate attributeName="stroke-dashoffset" from="150" to="0" dur="1.8s" begin="5.5s" fill="freeze" /></path><path d="M46.19,48.58c0.31,1.17,0.46,2.08-0.28,3.6c-0.84,1.75-3.26,7.65-3.92,8.37c-1.5,1.67-1.29,3.92,1.7,3.39c4.15-0.73,38.09-4.33,44.14-5.05c3.09-0.37,4.88,1.14,4.14,4.6c-1.1,5.17-2.48,8.75-4.99,13.5c-2.99,5.65-4.78,1.32-6.51-0.55" class="stroke" stroke-dasharray="150"><set attributeName="opacity" to="0" dur="6.5s" /><animate attributeName="stroke-dashoffset" from="150" to="0" dur="1.8s" begin="6.5s" fill="freeze" /></path><path d="M61.97,12.25c1.29,1.71,1.72,2.71,1.72,5.63c0,26.68,4.81,62.62-31.38,80.33" class="stroke" stroke-dasharray="150"><set attributeName="opacity" to="0" dur="8.3s" /><animate attributeName="stroke-dashoffset" from="150" to="0" dur="1.8s" begin="8.3s" fill="freeze" /></path><path d="M60.22,66.21C64.51,71.89,83,90.43,87.73,94.58C89.33,96,91.39,96.6,93,97" class="stroke" stroke-dasharray="150"><set attributeName="opacity" to="0" dur="10.100000000000001s" /><animate attributeName="stroke-dashoffset" from="150" to="0" dur="1.8s" begin="10.100000000000001s" fill="freeze" /></path><text x="90" y="120" id="reset-kvg-06d1f">⟳</text><text x="70" y="120" id="pause-kvg-06d1f">◼</text><script type="text/javascript"><![CDATA[function RecurringTimer(e,t){var n,r,i=t;this.pause=function(){window.clearTimeout(n);i-=new Date-r};var s=function(){r=new Date;n=window.setTimeout(function(){i=t;s();e()},i)};this.clear=function(){window.clearTimeout(n);i=t;n=window.setTimeout(function(){i=t;s();e()},i)};this.resume=s;this.resume()}function invoketimer(){timer=new RecurringTimer(function(){svg.setCurrentTime(0)},12300.0)}var svg=document.getElementById("kvg-06d1f");var pause=document.getElementById("pause-kvg-06d1f");var reset=document.getElementById("reset-kvg-06d1f");var timer;invoketimer();reset.onclick=function(){svg.setCurrentTime(0);timer.clear();svg.unpauseAnimations();pause.innerHTML = "◼";};pause.onclick=function(){if(svg.animationsPaused()){svg.unpauseAnimations();timer.resume();pause.innerHTML="◼"}else{svg.pauseAnimations();timer.pause();pause.innerHTML="▶"}}]]></script></svg>