<svg id="kvg-06d9c" class="kanjivg" width="106" height="126" xmlns="http://www.w3.org/2000/svg" xmlns:xlink="http://www.w3.org/1999/xlink" xml:space="preserve" version="1.1" baseProfile="full"><defs><style type="text/css"><![CDATA[path.black{fill:none;stroke:black;stroke-width:5;stroke-linecap:round;stroke-linejoin:round;}path.grey{fill:none;stroke:#ddd;stroke-width:5;stroke-linecap:round;stroke-linejoin:round;}path.stroke{fill:none;stroke:black;stroke-width:5;stroke-linecap:round;stroke-linejoin:round;}rect{fill:none;stroke:#555;stroke-width:2;} text{font-size:16px;font-family:Segoe UI Symbol,Cambria Math,DejaVu Sans,Symbola,Quivira,STIX,Code2000;-webkit-touch-callout:none;cursor:pointer;-webkit-user-select:none;-khtml-user-select:none;-moz-user-select:none;-ms-user-select:none;user-select: none;}text:hover{color:#777;}#reset{font-weight:bold;}]]></style><marker id="markerStart" markerWidth="8" markerHeight="8" style="overflow:visible;"><circle cx="0" cy="0" r="1.5" style="stroke:none;fill:red;fill-opacity:0.5;"/></marker><marker id="markerEnd" style="overflow:visible;"><circle cx="0" cy="0" r="0.8" style="stroke:none;fill:blue;fill-opacity:0.5;"><animate attributeName="opacity" from="1" to="0" dur="3s" repeatCount="indefinite" /></circle></marker></defs><rect x="4" y="4" width="100" height="100" /><path d="M18.38,19.5c4.19,1.6,10.82,6.6,11.87,9.09" class="grey" /><path d="M12.75,46c3.79,1.68,9.8,6.89,10.75,9.5" class="grey" /><path d="M15.25,90.21c1.5,1.31,3.31,1.36,4.25-0.25c2.75-4.7,5.5-10.45,8-16.45" class="grey" /><path d="M44.93,26.71c0.93,0.35,2.65,0.41,3.58,0.35c9.72-0.59,30-2.61,38.62-2.96c1.56-0.06,2.49,0.17,3.27,0.34" class="grey" /><path d="M64.45,13c1.15,0.46,1.85,2.06,2.08,2.97c0.23,0.91,0.5,15.53,0.27,21.24" class="grey" /><path d="M50.13,38.58c0.74,0.24,2.11,0.26,2.85,0.24c9.84-0.29,18.26-1.89,27.55-2.54c1.24-0.09,1.99,0.11,2.61,0.23" class="grey" /><path d="M42.77,47.98c-0.11,3.97-1.83,12.11-2.8,14.47" class="grey" /><path d="M42.72,49.94C56.4,49,74.47,45.95,89.09,45.68c9.66-0.18,0.72,7.64-0.52,8.85" class="grey" /><path d="M58.39,59.5c0.05,0.91,0.05,2.35-0.1,3.67C56.97,74.88,51,89.19,40.36,97.18" class="grey" /><path d="M71.81,56.76c0.67,1.14,1.19,2.48,1.23,4.23c0.18,7.82-2.35,29.62,1.42,33.1c3.41,3.14,6.45,2.78,10.14,2.68c4.47-0.12,8.64-0.67,9.76-1.54c2.47-1.91,1.79-2.87,2.02-6.21" class="grey" /><path d="M18.38,19.5c4.19,1.6,10.82,6.6,11.87,9.09" class="stroke" stroke-dasharray="150"><animate attributeName="stroke-dashoffset" from="150" to="0" dur="1.8s" begin="0.0s" fill="freeze" /></path><path d="M12.75,46c3.79,1.68,9.8,6.89,10.75,9.5" class="stroke" stroke-dasharray="150"><set attributeName="opacity" to="0" dur="0.9s" /><animate attributeName="stroke-dashoffset" from="150" to="0" dur="1.8s" begin="0.9s" fill="freeze" /></path><path d="M15.25,90.21c1.5,1.31,3.31,1.36,4.25-0.25c2.75-4.7,5.5-10.45,8-16.45" class="stroke" stroke-dasharray="150"><set attributeName="opacity" to="0" dur="1.8s" /><animate attributeName="stroke-dashoffset" from="150" to="0" dur="1.8s" begin="1.8s" fill="freeze" /></path><path d="M44.93,26.71c0.93,0.35,2.65,0.41,3.58,0.35c9.72-0.59,30-2.61,38.62-2.96c1.56-0.06,2.49,0.17,3.27,0.34" class="stroke" stroke-dasharray="150"><set attributeName="opacity" to="0" dur="2.8s" /><animate attributeName="stroke-dashoffset" from="150" to="0" dur="1.8s" begin="2.8s" fill="freeze" /></path><path d="M64.45,13c1.15,0.46,1.85,2.06,2.08,2.97c0.23,0.91,0.5,15.53,0.27,21.24" class="stroke" stroke-dasharray="150"><set attributeName="opacity" to="0" dur="4.0s" /><animate attributeName="stroke-dashoffset" from="150" to="0" dur="1.8s" begin="4.0s" fill="freeze" /></path><path d="M50.13,38.58c0.74,0.24,2.11,0.26,2.85,0.24c9.84-0.29,18.26-1.89,27.55-2.54c1.24-0.09,1.99,0.11,2.61,0.23" class="stroke" stroke-dasharray="150"><set attributeName="opacity" to="0" dur="5.0s" /><animate attributeName="stroke-dashoffset" from="150" to="0" dur="1.8s" begin="5.0s" fill="freeze" /></path><path d="M42.77,47.98c-0.11,3.97-1.83,12.11-2.8,14.47" class="stroke" stroke-dasharray="150"><set attributeName="opacity" to="0" dur="6.0s" /><animate attributeName="stroke-dashoffset" from="150" to="0" dur="1.8s" begin="6.0s" fill="freeze" /></path><path d="M42.72,49.94C56.4,49,74.47,45.95,89.09,45.68c9.66-0.18,0.72,7.64-0.52,8.85" class="stroke" stroke-dasharray="150"><set attributeName="opacity" to="0" dur="6.9s" /><animate attributeName="stroke-dashoffset" from="150" to="0" dur="1.8s" begin="6.9s" fill="freeze" /></path><path d="M58.39,59.5c0.05,0.91,0.05,2.35-0.1,3.67C56.97,74.88,51,89.19,40.36,97.18" class="stroke" stroke-dasharray="150"><set attributeName="opacity" to="0" dur="8.4s" /><animate attributeName="stroke-dashoffset" from="150" to="0" dur="1.8s" begin="8.4s" fill="freeze" /></path><path d="M71.81,56.76c0.67,1.14,1.19,2.48,1.23,4.23c0.18,7.82-2.35,29.62,1.42,33.1c3.41,3.14,6.45,2.78,10.14,2.68c4.47-0.12,8.64-0.67,9.76-1.54c2.47-1.91,1.79-2.87,2.02-6.21" class="stroke" stroke-dasharray="150"><set attributeName="opacity" to="0" dur="9.5s" /><animate attributeName="stroke-dashoffset" from="150" to="0" dur="1.8s" begin="9.5s" fill="freeze" /></path><text x="90" y="120" id="reset-kvg-06d9c">⟳</text><text x="70" y="120" id="pause-kvg-06d9c">◼</text><script type="text/javascript"><![CDATA[function RecurringTimer(e,t){var n,r,i=t;this.pause=function(){window.clearTimeout(n);i-=new Date-r};var s=function(){r=new Date;n=window.setTimeout(function(){i=t;s();e()},i)};this.clear=function(){window.clearTimeout(n);i=t;n=window.setTimeout(function(){i=t;s();e()},i)};this.resume=s;this.resume()}function invoketimer(){timer=new RecurringTimer(function(){svg.setCurrentTime(0)},12000.0)}var svg=document.getElementById("kvg-06d9c");var pause=document.getElementById("pause-kvg-06d9c");var reset=document.getElementById("reset-kvg-06d9c");var timer;invoketimer();reset.onclick=function(){svg.setCurrentTime(0);timer.clear();svg.unpauseAnimations();pause.innerHTML = "◼";};pause.onclick=function(){if(svg.animationsPaused()){svg.unpauseAnimations();timer.resume();pause.innerHTML="◼"}else{svg.pauseAnimations();timer.pause();pause.innerHTML="▶"}}]]></script></svg>