<svg id="kvg-06d93" class="kanjivg" width="106" height="126" xmlns="http://www.w3.org/2000/svg" xmlns:xlink="http://www.w3.org/1999/xlink" xml:space="preserve" version="1.1" baseProfile="full"><defs><style type="text/css"><![CDATA[path.black{fill:none;stroke:black;stroke-width:5;stroke-linecap:round;stroke-linejoin:round;}path.grey{fill:none;stroke:#ddd;stroke-width:5;stroke-linecap:round;stroke-linejoin:round;}path.stroke{fill:none;stroke:black;stroke-width:5;stroke-linecap:round;stroke-linejoin:round;}rect{fill:none;stroke:#555;stroke-width:2;} text{font-size:16px;font-family:Segoe UI Symbol,Cambria Math,DejaVu Sans,Symbola,Quivira,STIX,Code2000;-webkit-touch-callout:none;cursor:pointer;-webkit-user-select:none;-khtml-user-select:none;-moz-user-select:none;-ms-user-select:none;user-select: none;}text:hover{color:#777;}#reset{font-weight:bold;}]]></style><marker id="markerStart" markerWidth="8" markerHeight="8" style="overflow:visible;"><circle cx="0" cy="0" r="1.5" style="stroke:none;fill:red;fill-opacity:0.5;"/></marker><marker id="markerEnd" style="overflow:visible;"><circle cx="0" cy="0" r="0.8" style="stroke:none;fill:blue;fill-opacity:0.5;"><animate attributeName="opacity" from="1" to="0" dur="3s" repeatCount="indefinite" /></circle></marker></defs><rect x="4" y="4" width="100" height="100" /><path d="M19.63,16c4.45,1.78,11.5,7.32,12.62,10.09" class="grey" /><path d="M15,43.5c4.41,1.76,11.4,7.26,12.5,10" class="grey" /><path d="M16.25,89.76c1.84,1.23,4.05,1.29,5.2-0.24c3.37-4.44,11.73-19.86,14.8-25.52" class="grey" /><path d="M50.46,14.73c0.41,0.31,0.83,0.57,1,0.95c1.41,3.06,2.11,13.52,3.08,19.02" class="grey" /><path d="M53,16.29C63,15,80.35,14.31,85.5,13.88c1.88-0.16,3.02,1.6,2.75,2.53c-1.12,3.86-2.39,8.19-4.78,13.75" class="grey" /><path d="M54.95,32.69C61,32.2,77.56,31,87.15,30.64" class="grey" /><path d="M49.93,42.03c0.7,0.81,1.17,1.62,1.4,2.43c0.23,0.81,0.33,50.86,0.23,52.68" class="grey" /><path d="M51.22,43.84c2.79-0.2,31.99-1.85,34.08-1.85c2.2,0,4.16,1.26,4.16,3.85c0,1.25-0.12,25.86-0.12,42.26c0,10.52-5.59,3.64-7.92,1.82" class="grey" /><path d="M51.72,57.92c11.32-1.17,27.78-1.67,37.18-2.14" class="grey" /><path d="M51.69,72.41c7.45-0.61,28.71-1.43,37.32-1.83" class="grey" /><path d="M19.63,16c4.45,1.78,11.5,7.32,12.62,10.09" class="stroke" stroke-dasharray="150"><animate attributeName="stroke-dashoffset" from="150" to="0" dur="1.8s" begin="0.0s" fill="freeze" /></path><path d="M15,43.5c4.41,1.76,11.4,7.26,12.5,10" class="stroke" stroke-dasharray="150"><set attributeName="opacity" to="0" dur="0.9s" /><animate attributeName="stroke-dashoffset" from="150" to="0" dur="1.8s" begin="0.9s" fill="freeze" /></path><path d="M16.25,89.76c1.84,1.23,4.05,1.29,5.2-0.24c3.37-4.44,11.73-19.86,14.8-25.52" class="stroke" stroke-dasharray="150"><set attributeName="opacity" to="0" dur="1.8s" /><animate attributeName="stroke-dashoffset" from="150" to="0" dur="1.8s" begin="1.8s" fill="freeze" /></path><path d="M50.46,14.73c0.41,0.31,0.83,0.57,1,0.95c1.41,3.06,2.11,13.52,3.08,19.02" class="stroke" stroke-dasharray="150"><set attributeName="opacity" to="0" dur="2.8s" /><animate attributeName="stroke-dashoffset" from="150" to="0" dur="1.8s" begin="2.8s" fill="freeze" /></path><path d="M53,16.29C63,15,80.35,14.31,85.5,13.88c1.88-0.16,3.02,1.6,2.75,2.53c-1.12,3.86-2.39,8.19-4.78,13.75" class="stroke" stroke-dasharray="150"><set attributeName="opacity" to="0" dur="3.8s" /><animate attributeName="stroke-dashoffset" from="150" to="0" dur="1.8s" begin="3.8s" fill="freeze" /></path><path d="M54.95,32.69C61,32.2,77.56,31,87.15,30.64" class="stroke" stroke-dasharray="150"><set attributeName="opacity" to="0" dur="5.1s" /><animate attributeName="stroke-dashoffset" from="150" to="0" dur="1.8s" begin="5.1s" fill="freeze" /></path><path d="M49.93,42.03c0.7,0.81,1.17,1.62,1.4,2.43c0.23,0.81,0.33,50.86,0.23,52.68" class="stroke" stroke-dasharray="150"><set attributeName="opacity" to="0" dur="6.1s" /><animate attributeName="stroke-dashoffset" from="150" to="0" dur="1.8s" begin="6.1s" fill="freeze" /></path><path d="M51.22,43.84c2.79-0.2,31.99-1.85,34.08-1.85c2.2,0,4.16,1.26,4.16,3.85c0,1.25-0.12,25.86-0.12,42.26c0,10.52-5.59,3.64-7.92,1.82" class="stroke" stroke-dasharray="150"><set attributeName="opacity" to="0" dur="7.5s" /><animate attributeName="stroke-dashoffset" from="150" to="0" dur="1.8s" begin="7.5s" fill="freeze" /></path><path d="M51.72,57.92c11.32-1.17,27.78-1.67,37.18-2.14" class="stroke" stroke-dasharray="150"><set attributeName="opacity" to="0" dur="9.3s" /><animate attributeName="stroke-dashoffset" from="150" to="0" dur="1.8s" begin="9.3s" fill="freeze" /></path><path d="M51.69,72.41c7.45-0.61,28.71-1.43,37.32-1.83" class="stroke" stroke-dasharray="150"><set attributeName="opacity" to="0" dur="10.3s" /><animate attributeName="stroke-dashoffset" from="150" to="0" dur="1.8s" begin="10.3s" fill="freeze" /></path><text x="90" y="120" id="reset-kvg-06d93">⟳</text><text x="70" y="120" id="pause-kvg-06d93">◼</text><script type="text/javascript"><![CDATA[function RecurringTimer(e,t){var n,r,i=t;this.pause=function(){window.clearTimeout(n);i-=new Date-r};var s=function(){r=new Date;n=window.setTimeout(function(){i=t;s();e()},i)};this.clear=function(){window.clearTimeout(n);i=t;n=window.setTimeout(function(){i=t;s();e()},i)};this.resume=s;this.resume()}function invoketimer(){timer=new RecurringTimer(function(){svg.setCurrentTime(0)},12300.0)}var svg=document.getElementById("kvg-06d93");var pause=document.getElementById("pause-kvg-06d93");var reset=document.getElementById("reset-kvg-06d93");var timer;invoketimer();reset.onclick=function(){svg.setCurrentTime(0);timer.clear();svg.unpauseAnimations();pause.innerHTML = "◼";};pause.onclick=function(){if(svg.animationsPaused()){svg.unpauseAnimations();timer.resume();pause.innerHTML="◼"}else{svg.pauseAnimations();timer.pause();pause.innerHTML="▶"}}]]></script></svg>