<svg id="kvg-06dd1" class="kanjivg" width="106" height="126" xmlns="http://www.w3.org/2000/svg" xmlns:xlink="http://www.w3.org/1999/xlink" xml:space="preserve" version="1.1" baseProfile="full"><defs><style type="text/css"><![CDATA[path.black{fill:none;stroke:black;stroke-width:5;stroke-linecap:round;stroke-linejoin:round;}path.grey{fill:none;stroke:#ddd;stroke-width:5;stroke-linecap:round;stroke-linejoin:round;}path.stroke{fill:none;stroke:black;stroke-width:5;stroke-linecap:round;stroke-linejoin:round;}rect{fill:none;stroke:#555;stroke-width:2;} text{font-size:16px;font-family:Segoe UI Symbol,Cambria Math,DejaVu Sans,Symbola,Quivira,STIX,Code2000;-webkit-touch-callout:none;cursor:pointer;-webkit-user-select:none;-khtml-user-select:none;-moz-user-select:none;-ms-user-select:none;user-select: none;}text:hover{color:#777;}#reset{font-weight:bold;}]]></style><marker id="markerStart" markerWidth="8" markerHeight="8" style="overflow:visible;"><circle cx="0" cy="0" r="1.5" style="stroke:none;fill:red;fill-opacity:0.5;"/></marker><marker id="markerEnd" style="overflow:visible;"><circle cx="0" cy="0" r="0.8" style="stroke:none;fill:blue;fill-opacity:0.5;"><animate attributeName="opacity" from="1" to="0" dur="3s" repeatCount="indefinite" /></circle></marker></defs><rect x="4" y="4" width="100" height="100" /><path d="M15.12,18.12c3.57,1.27,9.23,5.24,10.12,7.22" class="grey" /><path d="M9.75,43.62c3.88,1.34,10.03,5.53,11,7.62" class="grey" /><path d="M11.09,89.77c1.29,0.73,2.64,0.52,3.41-0.9c2.75-5.04,5.5-11.19,8-17.62" class="grey" /><path d="M42.93,16.88c1.03,1.03,1.32,2.24,1.32,3.79c0,4.57-0.12,20.23-0.12,26.07" class="grey" /><path d="M45.59,32.04c1.65,0,5.15-1.19,9.96-1.78c1.73-0.21,2.48-0.19,3.52-0.15" class="grey" /><path d="M28.43,48.81c1.19,0.44,3.09,0.61,4.8,0.33c8.52-1.39,16.27-2.89,24.24-3.57c1-0.08,3.03-0.32,4.1,0.06" class="grey" /><path d="M44.64,50.12c0.94,0.94,1.26,2.13,1.26,3.92c0,12.71,0.04,29.3,0.04,33.28c0,9.02-5.78,1.2-6.98,0.2" class="grey" /><path d="M36.3,61.7c0.04,0.57,0.17,1.5-0.07,2.3C34.5,69.62,30,78.5,23.62,86" class="grey" /><path d="M53.68,61.06c2.37,2.53,6.11,10.4,6.7,14.33" class="grey" /><path d="M65.38,29.91c2.24,0.59,4.21,0.47,6.49,0.04c4.62-0.88,12.24-2.81,13.8-3.21C88.5,26,90,27.5,89.12,30.95C81.96,58.94,70.5,81.75,53.65,91.5" class="grey" /><path d="M65.3,36.3c2.82,8.57,13.09,29.04,21.83,43.07c1.98,3.18,4.62,7.01,7.97,9.63" class="grey" /><path d="M15.12,18.12c3.57,1.27,9.23,5.24,10.12,7.22" class="stroke" stroke-dasharray="150"><animate attributeName="stroke-dashoffset" from="150" to="0" dur="1.8s" begin="0.0s" fill="freeze" /></path><path d="M9.75,43.62c3.88,1.34,10.03,5.53,11,7.62" class="stroke" stroke-dasharray="150"><set attributeName="opacity" to="0" dur="0.9s" /><animate attributeName="stroke-dashoffset" from="150" to="0" dur="1.8s" begin="0.9s" fill="freeze" /></path><path d="M11.09,89.77c1.29,0.73,2.64,0.52,3.41-0.9c2.75-5.04,5.5-11.19,8-17.62" class="stroke" stroke-dasharray="150"><set attributeName="opacity" to="0" dur="1.8s" /><animate attributeName="stroke-dashoffset" from="150" to="0" dur="1.8s" begin="1.8s" fill="freeze" /></path><path d="M42.93,16.88c1.03,1.03,1.32,2.24,1.32,3.79c0,4.57-0.12,20.23-0.12,26.07" class="stroke" stroke-dasharray="150"><set attributeName="opacity" to="0" dur="2.8s" /><animate attributeName="stroke-dashoffset" from="150" to="0" dur="1.8s" begin="2.8s" fill="freeze" /></path><path d="M45.59,32.04c1.65,0,5.15-1.19,9.96-1.78c1.73-0.21,2.48-0.19,3.52-0.15" class="stroke" stroke-dasharray="150"><set attributeName="opacity" to="0" dur="3.8s" /><animate attributeName="stroke-dashoffset" from="150" to="0" dur="1.8s" begin="3.8s" fill="freeze" /></path><path d="M28.43,48.81c1.19,0.44,3.09,0.61,4.8,0.33c8.52-1.39,16.27-2.89,24.24-3.57c1-0.08,3.03-0.32,4.1,0.06" class="stroke" stroke-dasharray="150"><set attributeName="opacity" to="0" dur="4.7s" /><animate attributeName="stroke-dashoffset" from="150" to="0" dur="1.8s" begin="4.7s" fill="freeze" /></path><path d="M44.64,50.12c0.94,0.94,1.26,2.13,1.26,3.92c0,12.71,0.04,29.3,0.04,33.28c0,9.02-5.78,1.2-6.98,0.2" class="stroke" stroke-dasharray="150"><set attributeName="opacity" to="0" dur="5.7s" /><animate attributeName="stroke-dashoffset" from="150" to="0" dur="1.8s" begin="5.7s" fill="freeze" /></path><path d="M36.3,61.7c0.04,0.57,0.17,1.5-0.07,2.3C34.5,69.62,30,78.5,23.62,86" class="stroke" stroke-dasharray="150"><set attributeName="opacity" to="0" dur="6.9s" /><animate attributeName="stroke-dashoffset" from="150" to="0" dur="1.8s" begin="6.9s" fill="freeze" /></path><path d="M53.68,61.06c2.37,2.53,6.11,10.4,6.7,14.33" class="stroke" stroke-dasharray="150"><set attributeName="opacity" to="0" dur="7.9s" /><animate attributeName="stroke-dashoffset" from="150" to="0" dur="1.8s" begin="7.9s" fill="freeze" /></path><path d="M65.38,29.91c2.24,0.59,4.21,0.47,6.49,0.04c4.62-0.88,12.24-2.81,13.8-3.21C88.5,26,90,27.5,89.12,30.95C81.96,58.94,70.5,81.75,53.65,91.5" class="stroke" stroke-dasharray="150"><set attributeName="opacity" to="0" dur="8.8s" /><animate attributeName="stroke-dashoffset" from="150" to="0" dur="1.8s" begin="8.8s" fill="freeze" /></path><path d="M65.3,36.3c2.82,8.57,13.09,29.04,21.83,43.07c1.98,3.18,4.62,7.01,7.97,9.63" class="stroke" stroke-dasharray="150"><set attributeName="opacity" to="0" dur="10.600000000000001s" /><animate attributeName="stroke-dashoffset" from="150" to="0" dur="1.8s" begin="10.600000000000001s" fill="freeze" /></path><text x="90" y="120" id="reset-kvg-06dd1">⟳</text><text x="70" y="120" id="pause-kvg-06dd1">◼</text><script type="text/javascript"><![CDATA[function RecurringTimer(e,t){var n,r,i=t;this.pause=function(){window.clearTimeout(n);i-=new Date-r};var s=function(){r=new Date;n=window.setTimeout(function(){i=t;s();e()},i)};this.clear=function(){window.clearTimeout(n);i=t;n=window.setTimeout(function(){i=t;s();e()},i)};this.resume=s;this.resume()}function invoketimer(){timer=new RecurringTimer(function(){svg.setCurrentTime(0)},13100.000000000002)}var svg=document.getElementById("kvg-06dd1");var pause=document.getElementById("pause-kvg-06dd1");var reset=document.getElementById("reset-kvg-06dd1");var timer;invoketimer();reset.onclick=function(){svg.setCurrentTime(0);timer.clear();svg.unpauseAnimations();pause.innerHTML = "◼";};pause.onclick=function(){if(svg.animationsPaused()){svg.unpauseAnimations();timer.resume();pause.innerHTML="◼"}else{svg.pauseAnimations();timer.pause();pause.innerHTML="▶"}}]]></script></svg>