<svg id="kvg-06e90" class="kanjivg" width="106" height="126" xmlns="http://www.w3.org/2000/svg" xmlns:xlink="http://www.w3.org/1999/xlink" xml:space="preserve" version="1.1" baseProfile="full"><defs><style type="text/css"><![CDATA[path.black{fill:none;stroke:black;stroke-width:5;stroke-linecap:round;stroke-linejoin:round;}path.grey{fill:none;stroke:#ddd;stroke-width:5;stroke-linecap:round;stroke-linejoin:round;}path.stroke{fill:none;stroke:black;stroke-width:5;stroke-linecap:round;stroke-linejoin:round;}rect{fill:none;stroke:#555;stroke-width:2;} text{font-size:16px;font-family:Segoe UI Symbol,Cambria Math,DejaVu Sans,Symbola,Quivira,STIX,Code2000;-webkit-touch-callout:none;cursor:pointer;-webkit-user-select:none;-khtml-user-select:none;-moz-user-select:none;-ms-user-select:none;user-select: none;}text:hover{color:#777;}#reset{font-weight:bold;}]]></style><marker id="markerStart" markerWidth="8" markerHeight="8" style="overflow:visible;"><circle cx="0" cy="0" r="1.5" style="stroke:none;fill:red;fill-opacity:0.5;"/></marker><marker id="markerEnd" style="overflow:visible;"><circle cx="0" cy="0" r="0.8" style="stroke:none;fill:blue;fill-opacity:0.5;"><animate attributeName="opacity" from="1" to="0" dur="3s" repeatCount="indefinite" /></circle></marker></defs><rect x="4" y="4" width="100" height="100" /><path d="M19.88,15.38c3.57,1.32,9.23,5.42,10.12,7.47" class="grey" /><path d="M14.12,41.88c4.28,1.34,11.05,5.53,12.12,7.62" class="grey" /><path d="M14.91,88.95c1.19,0.49,2.38,0.22,3.09-0.99c2.75-4.7,5.5-10.45,8-16.45" class="grey" /><path d="M41.08,18.97c2.67,0.53,5.55,0.47,8.05,0.25c10.94-0.99,24.5-2.89,37.49-3.34c2.54-0.09,5.08-0.24,7.56,0.44" class="grey" /><path d="M43.03,19.73c0.81,0.81,1.44,1.89,1.41,3.22c-0.57,24.17-2.57,47.3-14.95,63.52" class="grey" /><path d="M70.21,20.77c0.4,0.91,0.36,2.28-0.13,3.13c-0.83,2.36-2.45,5.45-4.35,9.14" class="grey" /><path d="M52.62,35.02c0.68,0.68,1.38,1.6,1.66,2.89c1.35,6.29,2.22,13.7,3.12,18.82c0.32,1.84,0.56,3.22,0.62,3.76" class="grey" /><path d="M54.83,36.49c2.89-0.3,25.78-2.84,32.45-3.58c2.95-0.33,5.51,0.84,4.95,4.33c-0.84,5.25-2.06,11.38-3.4,16.37c-0.41,1.55-0.84,2.99-1.27,4.26" class="grey" /><path d="M57.16,47.33c8.71-1.08,23.21-2.2,32.25-2.67" class="grey" /><path d="M58.91,58.28C69,57.5,76.75,57,86.89,56.48" class="grey" /><path d="M70.73,60.03c0.62,0.62,1.12,1.97,1.12,3.45c0,7.64-0.16,25.22-0.16,27.65c0,7.12-5.57,0.12-7.06-1.05" class="grey" /><path d="M57.73,70.98c0.12,1.12-0.28,2.11-0.89,3.08C54.51,77.73,51,82.38,41.97,88.7" class="grey" /><path d="M84.25,71.25c3.97,2.96,10.26,12.17,11.26,16.77" class="grey" /><path d="M19.88,15.38c3.57,1.32,9.23,5.42,10.12,7.47" class="stroke" stroke-dasharray="150"><animate attributeName="stroke-dashoffset" from="150" to="0" dur="1.8s" begin="0.0s" fill="freeze" /></path><path d="M14.12,41.88c4.28,1.34,11.05,5.53,12.12,7.62" class="stroke" stroke-dasharray="150"><set attributeName="opacity" to="0" dur="0.9s" /><animate attributeName="stroke-dashoffset" from="150" to="0" dur="1.8s" begin="0.9s" fill="freeze" /></path><path d="M14.91,88.95c1.19,0.49,2.38,0.22,3.09-0.99c2.75-4.7,5.5-10.45,8-16.45" class="stroke" stroke-dasharray="150"><set attributeName="opacity" to="0" dur="1.8s" /><animate attributeName="stroke-dashoffset" from="150" to="0" dur="1.8s" begin="1.8s" fill="freeze" /></path><path d="M41.08,18.97c2.67,0.53,5.55,0.47,8.05,0.25c10.94-0.99,24.5-2.89,37.49-3.34c2.54-0.09,5.08-0.24,7.56,0.44" class="stroke" stroke-dasharray="150"><set attributeName="opacity" to="0" dur="2.8s" /><animate attributeName="stroke-dashoffset" from="150" to="0" dur="1.8s" begin="2.8s" fill="freeze" /></path><path d="M43.03,19.73c0.81,0.81,1.44,1.89,1.41,3.22c-0.57,24.17-2.57,47.3-14.95,63.52" class="stroke" stroke-dasharray="150"><set attributeName="opacity" to="0" dur="4.1s" /><animate attributeName="stroke-dashoffset" from="150" to="0" dur="1.8s" begin="4.1s" fill="freeze" /></path><path d="M70.21,20.77c0.4,0.91,0.36,2.28-0.13,3.13c-0.83,2.36-2.45,5.45-4.35,9.14" class="stroke" stroke-dasharray="150"><set attributeName="opacity" to="0" dur="5.6s" /><animate attributeName="stroke-dashoffset" from="150" to="0" dur="1.8s" begin="5.6s" fill="freeze" /></path><path d="M52.62,35.02c0.68,0.68,1.38,1.6,1.66,2.89c1.35,6.29,2.22,13.7,3.12,18.82c0.32,1.84,0.56,3.22,0.62,3.76" class="stroke" stroke-dasharray="150"><set attributeName="opacity" to="0" dur="6.5s" /><animate attributeName="stroke-dashoffset" from="150" to="0" dur="1.8s" begin="6.5s" fill="freeze" /></path><path d="M54.83,36.49c2.89-0.3,25.78-2.84,32.45-3.58c2.95-0.33,5.51,0.84,4.95,4.33c-0.84,5.25-2.06,11.38-3.4,16.37c-0.41,1.55-0.84,2.99-1.27,4.26" class="stroke" stroke-dasharray="150"><set attributeName="opacity" to="0" dur="7.5s" /><animate attributeName="stroke-dashoffset" from="150" to="0" dur="1.8s" begin="7.5s" fill="freeze" /></path><path d="M57.16,47.33c8.71-1.08,23.21-2.2,32.25-2.67" class="stroke" stroke-dasharray="150"><set attributeName="opacity" to="0" dur="9.0s" /><animate attributeName="stroke-dashoffset" from="150" to="0" dur="1.8s" begin="9.0s" fill="freeze" /></path><path d="M58.91,58.28C69,57.5,76.75,57,86.89,56.48" class="stroke" stroke-dasharray="150"><set attributeName="opacity" to="0" dur="10.0s" /><animate attributeName="stroke-dashoffset" from="150" to="0" dur="1.8s" begin="10.0s" fill="freeze" /></path><path d="M70.73,60.03c0.62,0.62,1.12,1.97,1.12,3.45c0,7.64-0.16,25.22-0.16,27.65c0,7.12-5.57,0.12-7.06-1.05" class="stroke" stroke-dasharray="150"><set attributeName="opacity" to="0" dur="11.0s" /><animate attributeName="stroke-dashoffset" from="150" to="0" dur="1.8s" begin="11.0s" fill="freeze" /></path><path d="M57.73,70.98c0.12,1.12-0.28,2.11-0.89,3.08C54.51,77.73,51,82.38,41.97,88.7" class="stroke" stroke-dasharray="150"><set attributeName="opacity" to="0" dur="12.1s" /><animate attributeName="stroke-dashoffset" from="150" to="0" dur="1.8s" begin="12.1s" fill="freeze" /></path><path d="M84.25,71.25c3.97,2.96,10.26,12.17,11.26,16.77" class="stroke" stroke-dasharray="150"><set attributeName="opacity" to="0" dur="13.1s" /><animate attributeName="stroke-dashoffset" from="150" to="0" dur="1.8s" begin="13.1s" fill="freeze" /></path><text x="90" y="120" id="reset-kvg-06e90">⟳</text><text x="70" y="120" id="pause-kvg-06e90">◼</text><script type="text/javascript"><![CDATA[function RecurringTimer(e,t){var n,r,i=t;this.pause=function(){window.clearTimeout(n);i-=new Date-r};var s=function(){r=new Date;n=window.setTimeout(function(){i=t;s();e()},i)};this.clear=function(){window.clearTimeout(n);i=t;n=window.setTimeout(function(){i=t;s();e()},i)};this.resume=s;this.resume()}function invoketimer(){timer=new RecurringTimer(function(){svg.setCurrentTime(0)},15100.0)}var svg=document.getElementById("kvg-06e90");var pause=document.getElementById("pause-kvg-06e90");var reset=document.getElementById("reset-kvg-06e90");var timer;invoketimer();reset.onclick=function(){svg.setCurrentTime(0);timer.clear();svg.unpauseAnimations();pause.innerHTML = "◼";};pause.onclick=function(){if(svg.animationsPaused()){svg.unpauseAnimations();timer.resume();pause.innerHTML="◼"}else{svg.pauseAnimations();timer.pause();pause.innerHTML="▶"}}]]></script></svg>