<svg id="kvg-06eb6" class="kanjivg" width="106" height="126" xmlns="http://www.w3.org/2000/svg" xmlns:xlink="http://www.w3.org/1999/xlink" xml:space="preserve" version="1.1" baseProfile="full"><defs><style type="text/css"><![CDATA[path.black{fill:none;stroke:black;stroke-width:5;stroke-linecap:round;stroke-linejoin:round;}path.grey{fill:none;stroke:#ddd;stroke-width:5;stroke-linecap:round;stroke-linejoin:round;}path.stroke{fill:none;stroke:black;stroke-width:5;stroke-linecap:round;stroke-linejoin:round;}rect{fill:none;stroke:#555;stroke-width:2;} text{font-size:16px;font-family:Segoe UI Symbol,Cambria Math,DejaVu Sans,Symbola,Quivira,STIX,Code2000;-webkit-touch-callout:none;cursor:pointer;-webkit-user-select:none;-khtml-user-select:none;-moz-user-select:none;-ms-user-select:none;user-select: none;}text:hover{color:#777;}#reset{font-weight:bold;}]]></style><marker id="markerStart" markerWidth="8" markerHeight="8" style="overflow:visible;"><circle cx="0" cy="0" r="1.5" style="stroke:none;fill:red;fill-opacity:0.5;"/></marker><marker id="markerEnd" style="overflow:visible;"><circle cx="0" cy="0" r="0.8" style="stroke:none;fill:blue;fill-opacity:0.5;"><animate attributeName="opacity" from="1" to="0" dur="3s" repeatCount="indefinite" /></circle></marker></defs><rect x="4" y="4" width="100" height="100" /><path d="M17.38,15.62c4.1,1.54,10.6,6.32,11.62,8.72" class="grey" /><path d="M14.62,39.25c3.93,1.46,10.14,5.99,11.12,8.25" class="grey" /><path d="M11.5,90.23c2.12,1.02,3.28,0.32,4.36-1.25c3.14-4.57,6.39-10.24,9.39-15.24" class="grey" /><path d="M61.69,10.41c1.2,1.2,1.65,2.09,1.65,3.7c0,3.57-0.09,5.52-0.09,9.01" class="grey" /><path d="M38.29,24.82c0,3.19-2.52,11.95-3.67,14.07" class="grey" /><path d="M39.06,27.08c8.94-1.46,40.06-4.83,48.98-4.99c9.95-0.17,1.06,7.06-1.07,9" class="grey" /><path d="M52.85,35.07c0.13,0.98-0.36,1.57-0.97,2.4c-2.17,2.96-5.12,5.53-12.2,10.41" class="grey" /><path d="M70.75,34.75c4.89,2.33,10.84,6.78,12.51,9.16" class="grey" /><path d="M61.02,46.5c0.08,0.66,0.14,1.82-0.41,2.65c-4.74,7.22-12.9,16.73-28.03,26.01" class="grey" /><path d="M61.66,49.4c7.51,6.29,17.7,14.3,25.07,18.71c2.11,1.26,4.27,2.49,6.58,3.35" class="grey" /><path d="M45.04,73.49c0.7,0.62,1.21,2.01,1.35,2.87c0.86,5.26,1.65,9.7,2.33,14.64c0.21,1.52,0.41,2.95,0.6,4.2" class="grey" /><path d="M47.32,75.38c9.71-1.44,20.97-2.2,27.56-2.84c2.97-0.29,4.89,0.65,3.88,3.96c-1.33,4.31-2.66,7.98-3.95,13.17" class="grey" /><path d="M50.09,92.52c6.99-0.38,14.73-1.1,22.7-1.74c1.52-0.12,3.05-0.24,4.58-0.36" class="grey" /><path d="M17.38,15.62c4.1,1.54,10.6,6.32,11.62,8.72" class="stroke" stroke-dasharray="150"><animate attributeName="stroke-dashoffset" from="150" to="0" dur="1.8s" begin="0.0s" fill="freeze" /></path><path d="M14.62,39.25c3.93,1.46,10.14,5.99,11.12,8.25" class="stroke" stroke-dasharray="150"><set attributeName="opacity" to="0" dur="0.9s" /><animate attributeName="stroke-dashoffset" from="150" to="0" dur="1.8s" begin="0.9s" fill="freeze" /></path><path d="M11.5,90.23c2.12,1.02,3.28,0.32,4.36-1.25c3.14-4.57,6.39-10.24,9.39-15.24" class="stroke" stroke-dasharray="150"><set attributeName="opacity" to="0" dur="1.8s" /><animate attributeName="stroke-dashoffset" from="150" to="0" dur="1.8s" begin="1.8s" fill="freeze" /></path><path d="M61.69,10.41c1.2,1.2,1.65,2.09,1.65,3.7c0,3.57-0.09,5.52-0.09,9.01" class="stroke" stroke-dasharray="150"><set attributeName="opacity" to="0" dur="2.8s" /><animate attributeName="stroke-dashoffset" from="150" to="0" dur="1.8s" begin="2.8s" fill="freeze" /></path><path d="M38.29,24.82c0,3.19-2.52,11.95-3.67,14.07" class="stroke" stroke-dasharray="150"><set attributeName="opacity" to="0" dur="3.6999999999999997s" /><animate attributeName="stroke-dashoffset" from="150" to="0" dur="1.8s" begin="3.6999999999999997s" fill="freeze" /></path><path d="M39.06,27.08c8.94-1.46,40.06-4.83,48.98-4.99c9.95-0.17,1.06,7.06-1.07,9" class="stroke" stroke-dasharray="150"><set attributeName="opacity" to="0" dur="4.6s" /><animate attributeName="stroke-dashoffset" from="150" to="0" dur="1.8s" begin="4.6s" fill="freeze" /></path><path d="M52.85,35.07c0.13,0.98-0.36,1.57-0.97,2.4c-2.17,2.96-5.12,5.53-12.2,10.41" class="stroke" stroke-dasharray="150"><set attributeName="opacity" to="0" dur="6.1s" /><animate attributeName="stroke-dashoffset" from="150" to="0" dur="1.8s" begin="6.1s" fill="freeze" /></path><path d="M70.75,34.75c4.89,2.33,10.84,6.78,12.51,9.16" class="stroke" stroke-dasharray="150"><set attributeName="opacity" to="0" dur="7.0s" /><animate attributeName="stroke-dashoffset" from="150" to="0" dur="1.8s" begin="7.0s" fill="freeze" /></path><path d="M61.02,46.5c0.08,0.66,0.14,1.82-0.41,2.65c-4.74,7.22-12.9,16.73-28.03,26.01" class="stroke" stroke-dasharray="150"><set attributeName="opacity" to="0" dur="7.9s" /><animate attributeName="stroke-dashoffset" from="150" to="0" dur="1.8s" begin="7.9s" fill="freeze" /></path><path d="M61.66,49.4c7.51,6.29,17.7,14.3,25.07,18.71c2.11,1.26,4.27,2.49,6.58,3.35" class="stroke" stroke-dasharray="150"><set attributeName="opacity" to="0" dur="9.0s" /><animate attributeName="stroke-dashoffset" from="150" to="0" dur="1.8s" begin="9.0s" fill="freeze" /></path><path d="M45.04,73.49c0.7,0.62,1.21,2.01,1.35,2.87c0.86,5.26,1.65,9.7,2.33,14.64c0.21,1.52,0.41,2.95,0.6,4.2" class="stroke" stroke-dasharray="150"><set attributeName="opacity" to="0" dur="10.0s" /><animate attributeName="stroke-dashoffset" from="150" to="0" dur="1.8s" begin="10.0s" fill="freeze" /></path><path d="M47.32,75.38c9.71-1.44,20.97-2.2,27.56-2.84c2.97-0.29,4.89,0.65,3.88,3.96c-1.33,4.31-2.66,7.98-3.95,13.17" class="stroke" stroke-dasharray="150"><set attributeName="opacity" to="0" dur="11.0s" /><animate attributeName="stroke-dashoffset" from="150" to="0" dur="1.8s" begin="11.0s" fill="freeze" /></path><path d="M50.09,92.52c6.99-0.38,14.73-1.1,22.7-1.74c1.52-0.12,3.05-0.24,4.58-0.36" class="stroke" stroke-dasharray="150"><set attributeName="opacity" to="0" dur="12.2s" /><animate attributeName="stroke-dashoffset" from="150" to="0" dur="1.8s" begin="12.2s" fill="freeze" /></path><text x="90" y="120" id="reset-kvg-06eb6">⟳</text><text x="70" y="120" id="pause-kvg-06eb6">◼</text><script type="text/javascript"><![CDATA[function RecurringTimer(e,t){var n,r,i=t;this.pause=function(){window.clearTimeout(n);i-=new Date-r};var s=function(){r=new Date;n=window.setTimeout(function(){i=t;s();e()},i)};this.clear=function(){window.clearTimeout(n);i=t;n=window.setTimeout(function(){i=t;s();e()},i)};this.resume=s;this.resume()}function invoketimer(){timer=new RecurringTimer(function(){svg.setCurrentTime(0)},14200.0)}var svg=document.getElementById("kvg-06eb6");var pause=document.getElementById("pause-kvg-06eb6");var reset=document.getElementById("reset-kvg-06eb6");var timer;invoketimer();reset.onclick=function(){svg.setCurrentTime(0);timer.clear();svg.unpauseAnimations();pause.innerHTML = "◼";};pause.onclick=function(){if(svg.animationsPaused()){svg.unpauseAnimations();timer.resume();pause.innerHTML="◼"}else{svg.pauseAnimations();timer.pause();pause.innerHTML="▶"}}]]></script></svg>