<svg id="kvg-06ed1" class="kanjivg" width="106" height="126" xmlns="http://www.w3.org/2000/svg" xmlns:xlink="http://www.w3.org/1999/xlink" xml:space="preserve" version="1.1" baseProfile="full"><defs><style type="text/css"><![CDATA[path.black{fill:none;stroke:black;stroke-width:5;stroke-linecap:round;stroke-linejoin:round;}path.grey{fill:none;stroke:#ddd;stroke-width:5;stroke-linecap:round;stroke-linejoin:round;}path.stroke{fill:none;stroke:black;stroke-width:5;stroke-linecap:round;stroke-linejoin:round;}rect{fill:none;stroke:#555;stroke-width:2;} text{font-size:16px;font-family:Segoe UI Symbol,Cambria Math,DejaVu Sans,Symbola,Quivira,STIX,Code2000;-webkit-touch-callout:none;cursor:pointer;-webkit-user-select:none;-khtml-user-select:none;-moz-user-select:none;-ms-user-select:none;user-select: none;}text:hover{color:#777;}#reset{font-weight:bold;}]]></style><marker id="markerStart" markerWidth="8" markerHeight="8" style="overflow:visible;"><circle cx="0" cy="0" r="1.5" style="stroke:none;fill:red;fill-opacity:0.5;"/></marker><marker id="markerEnd" style="overflow:visible;"><circle cx="0" cy="0" r="0.8" style="stroke:none;fill:blue;fill-opacity:0.5;"><animate attributeName="opacity" from="1" to="0" dur="3s" repeatCount="indefinite" /></circle></marker></defs><rect x="4" y="4" width="100" height="100" /><path d="M21.38,14.75c4.1,1.52,10.59,6.23,11.62,8.59" class="grey" /><path d="M16.12,42c4.1,1.28,10.6,5.26,11.62,7.25" class="grey" /><path d="M16.93,88.64c1.32,0.56,2.66,0.31,3.45-0.96C23.34,82.92,26.3,77.08,29,71" class="grey" /><path d="M48.47,15.21c0.97,0.97,1.28,2.04,1.4,3.91c0.36,5.54,1.01,20.35,1.01,20.68" class="grey" /><path d="M50.13,16.23c4.75-0.65,21.86-3.39,27.37-4.09c3.23-0.41,4.22,0.34,4.03,3.36c-0.4,6.25-1.15,11.87-1.78,20.72" class="grey" /><path d="M62.34,23.68c0.8,0.8,1.06,1.69,1.06,2.98c0,5.34,0.1,12.72,0.1,11.32" class="grey" /><path d="M64.32,25.45c4.56-0.7,13.89-2.06,15.96-2.3" class="grey" /><path d="M39.26,39.07c0,3.47-2.36,12.57-3.18,14.88" class="grey" /><path d="M40.14,42.28c9.29-1.39,36.36-4.91,49.97-5.72c9.52-0.57,2.02,5.68-0.36,7.65" class="grey" /><path d="M50.11,50.12c0.76,0.76,1.11,1.76,1.11,3.1c0,4.28-0.03,25.5-0.03,37.78c0,3.67-0.01,6.19-0.03,6.55" class="grey" /><path d="M52.09,51.82c1.95-0.15,17.49-2.22,22.42-2.91c3.71-0.52,5.07,0.3,5.06,4.09c-0.01,5.45-0.05,26.67-0.05,39.83c0,9.09-4.45,3.15-6.3,1.57" class="grey" /><path d="M52.34,63.56c7.6-1.05,19.52-2.14,26.19-2.67" class="grey" /><path d="M52.38,75.92C60.12,75,71.55,74.05,78.4,73.7" class="grey" /><path d="M21.38,14.75c4.1,1.52,10.59,6.23,11.62,8.59" class="stroke" stroke-dasharray="150"><animate attributeName="stroke-dashoffset" from="150" to="0" dur="1.8s" begin="0.0s" fill="freeze" /></path><path d="M16.12,42c4.1,1.28,10.6,5.26,11.62,7.25" class="stroke" stroke-dasharray="150"><set attributeName="opacity" to="0" dur="0.9s" /><animate attributeName="stroke-dashoffset" from="150" to="0" dur="1.8s" begin="0.9s" fill="freeze" /></path><path d="M16.93,88.64c1.32,0.56,2.66,0.31,3.45-0.96C23.34,82.92,26.3,77.08,29,71" class="stroke" stroke-dasharray="150"><set attributeName="opacity" to="0" dur="1.8s" /><animate attributeName="stroke-dashoffset" from="150" to="0" dur="1.8s" begin="1.8s" fill="freeze" /></path><path d="M48.47,15.21c0.97,0.97,1.28,2.04,1.4,3.91c0.36,5.54,1.01,20.35,1.01,20.68" class="stroke" stroke-dasharray="150"><set attributeName="opacity" to="0" dur="2.8s" /><animate attributeName="stroke-dashoffset" from="150" to="0" dur="1.8s" begin="2.8s" fill="freeze" /></path><path d="M50.13,16.23c4.75-0.65,21.86-3.39,27.37-4.09c3.23-0.41,4.22,0.34,4.03,3.36c-0.4,6.25-1.15,11.87-1.78,20.72" class="stroke" stroke-dasharray="150"><set attributeName="opacity" to="0" dur="3.8s" /><animate attributeName="stroke-dashoffset" from="150" to="0" dur="1.8s" begin="3.8s" fill="freeze" /></path><path d="M62.34,23.68c0.8,0.8,1.06,1.69,1.06,2.98c0,5.34,0.1,12.72,0.1,11.32" class="stroke" stroke-dasharray="150"><set attributeName="opacity" to="0" dur="5.199999999999999s" /><animate attributeName="stroke-dashoffset" from="150" to="0" dur="1.8s" begin="5.199999999999999s" fill="freeze" /></path><path d="M64.32,25.45c4.56-0.7,13.89-2.06,15.96-2.3" class="stroke" stroke-dasharray="150"><set attributeName="opacity" to="0" dur="6.1s" /><animate attributeName="stroke-dashoffset" from="150" to="0" dur="1.8s" begin="6.1s" fill="freeze" /></path><path d="M39.26,39.07c0,3.47-2.36,12.57-3.18,14.88" class="stroke" stroke-dasharray="150"><set attributeName="opacity" to="0" dur="7.0s" /><animate attributeName="stroke-dashoffset" from="150" to="0" dur="1.8s" begin="7.0s" fill="freeze" /></path><path d="M40.14,42.28c9.29-1.39,36.36-4.91,49.97-5.72c9.52-0.57,2.02,5.68-0.36,7.65" class="stroke" stroke-dasharray="150"><set attributeName="opacity" to="0" dur="7.9s" /><animate attributeName="stroke-dashoffset" from="150" to="0" dur="1.8s" begin="7.9s" fill="freeze" /></path><path d="M50.11,50.12c0.76,0.76,1.11,1.76,1.11,3.1c0,4.28-0.03,25.5-0.03,37.78c0,3.67-0.01,6.19-0.03,6.55" class="stroke" stroke-dasharray="150"><set attributeName="opacity" to="0" dur="9.4s" /><animate attributeName="stroke-dashoffset" from="150" to="0" dur="1.8s" begin="9.4s" fill="freeze" /></path><path d="M52.09,51.82c1.95-0.15,17.49-2.22,22.42-2.91c3.71-0.52,5.07,0.3,5.06,4.09c-0.01,5.45-0.05,26.67-0.05,39.83c0,9.09-4.45,3.15-6.3,1.57" class="stroke" stroke-dasharray="150"><set attributeName="opacity" to="0" dur="10.6s" /><animate attributeName="stroke-dashoffset" from="150" to="0" dur="1.8s" begin="10.6s" fill="freeze" /></path><path d="M52.34,63.56c7.6-1.05,19.52-2.14,26.19-2.67" class="stroke" stroke-dasharray="150"><set attributeName="opacity" to="0" dur="12.299999999999999s" /><animate attributeName="stroke-dashoffset" from="150" to="0" dur="1.8s" begin="12.299999999999999s" fill="freeze" /></path><path d="M52.38,75.92C60.12,75,71.55,74.05,78.4,73.7" class="stroke" stroke-dasharray="150"><set attributeName="opacity" to="0" dur="13.299999999999999s" /><animate attributeName="stroke-dashoffset" from="150" to="0" dur="1.8s" begin="13.299999999999999s" fill="freeze" /></path><text x="90" y="120" id="reset-kvg-06ed1">⟳</text><text x="70" y="120" id="pause-kvg-06ed1">◼</text><script type="text/javascript"><![CDATA[function RecurringTimer(e,t){var n,r,i=t;this.pause=function(){window.clearTimeout(n);i-=new Date-r};var s=function(){r=new Date;n=window.setTimeout(function(){i=t;s();e()},i)};this.clear=function(){window.clearTimeout(n);i=t;n=window.setTimeout(function(){i=t;s();e()},i)};this.resume=s;this.resume()}function invoketimer(){timer=new RecurringTimer(function(){svg.setCurrentTime(0)},15299.999999999998)}var svg=document.getElementById("kvg-06ed1");var pause=document.getElementById("pause-kvg-06ed1");var reset=document.getElementById("reset-kvg-06ed1");var timer;invoketimer();reset.onclick=function(){svg.setCurrentTime(0);timer.clear();svg.unpauseAnimations();pause.innerHTML = "◼";};pause.onclick=function(){if(svg.animationsPaused()){svg.unpauseAnimations();timer.resume();pause.innerHTML="◼"}else{svg.pauseAnimations();timer.pause();pause.innerHTML="▶"}}]]></script></svg>