<svg id="kvg-06f2b-Kaisho" class="kanjivg" width="106" height="126" xmlns="http://www.w3.org/2000/svg" xmlns:xlink="http://www.w3.org/1999/xlink" xml:space="preserve" version="1.1" baseProfile="full"><defs><style type="text/css"><![CDATA[path.black{fill:none;stroke:black;stroke-width:5;stroke-linecap:round;stroke-linejoin:round;}path.grey{fill:none;stroke:#ddd;stroke-width:5;stroke-linecap:round;stroke-linejoin:round;}path.stroke{fill:none;stroke:black;stroke-width:5;stroke-linecap:round;stroke-linejoin:round;}rect{fill:none;stroke:#555;stroke-width:2;} text{font-size:16px;font-family:Segoe UI Symbol,Cambria Math,DejaVu Sans,Symbola,Quivira,STIX,Code2000;-webkit-touch-callout:none;cursor:pointer;-webkit-user-select:none;-khtml-user-select:none;-moz-user-select:none;-ms-user-select:none;user-select: none;}text:hover{color:#777;}#reset{font-weight:bold;}]]></style><marker id="markerStart" markerWidth="8" markerHeight="8" style="overflow:visible;"><circle cx="0" cy="0" r="1.5" style="stroke:none;fill:red;fill-opacity:0.5;"/></marker><marker id="markerEnd" style="overflow:visible;"><circle cx="0" cy="0" r="0.8" style="stroke:none;fill:blue;fill-opacity:0.5;"><animate attributeName="opacity" from="1" to="0" dur="3s" repeatCount="indefinite" /></circle></marker></defs><rect x="4" y="4" width="100" height="100" /><path d="M18.13,14.5c4.45,1.78,11.5,7.32,12.62,10.09" class="grey" /><path d="M13,39.5c4.41,1.5,11.4,6.17,12.5,8.5" class="grey" /><path d="M13.25,91.73c1.71,1.27,3.78,1.32,4.86-0.25c3.14-4.57,7.79-12.66,10.64-18.49" class="grey" /><path d="M42.99,15.65c0.29,0.37,0.3,0.62,0.46,1.08c1.32,3.8,2.56,13.89,3.37,20.98" class="grey" /><path d="M44.35,16.66c10.2-0.96,29.2-3.58,36.81-4.38c2.8-0.3,4.33,0.97,4.09,3.29c-0.4,3.84-2.83,13.26-4.11,19.66" class="grey" /><path d="M46.26,25.98c6.27-0.7,12.57-1.16,18.85-1.72c2.14-0.19,4.28-0.37,6.3-0.55" class="grey" /><path d="M47.35,35.67c7.35-0.41,23.66-1.61,33.8-2.27" class="grey" /><path d="M38.62,44.52c0.27,0.29,0.56,0.53,0.68,0.89c0.95,2.85,1.97,10.71,2.62,15.84" class="grey" /><path d="M39.95,45.94c6.05-1.12,46.09-4.08,49.31-4.46c1.17-0.14,2.77,0.97,2.45,2.57c-0.66,3.35-2.27,9.09-4.02,13.87" class="grey" /><path d="M56.38,44.35c0.18,1.9,0.72,11.17,0.9,13.31" class="grey" /><path d="M73.36,43.16c-0.18,3.09-0.74,9.63-1.1,13.07" class="grey" /><path d="M42.79,59.2c3.77-0.42,40.16-3.06,45.34-3.71" class="grey" /><path d="M46.9,68.55c1.48,0.29,1.66,0.71,4.62,0.29c2.96-0.43,24.5-4.7,26.54-5.13c2.03-0.43,3.48,1.68,1.97,3.61C67.82,82.91,53.82,93.12,35.77,99" class="grey" /><path d="M46.35,75.91c4.55,0.51,26.76,14.18,42.58,19.79c2.46,0.87,4.26,1.45,6.55,1.74" class="grey" /><path d="M18.13,14.5c4.45,1.78,11.5,7.32,12.62,10.09" class="stroke" stroke-dasharray="150"><animate attributeName="stroke-dashoffset" from="150" to="0" dur="1.8s" begin="0.0s" fill="freeze" /></path><path d="M13,39.5c4.41,1.5,11.4,6.17,12.5,8.5" class="stroke" stroke-dasharray="150"><set attributeName="opacity" to="0" dur="0.9s" /><animate attributeName="stroke-dashoffset" from="150" to="0" dur="1.8s" begin="0.9s" fill="freeze" /></path><path d="M13.25,91.73c1.71,1.27,3.78,1.32,4.86-0.25c3.14-4.57,7.79-12.66,10.64-18.49" class="stroke" stroke-dasharray="150"><set attributeName="opacity" to="0" dur="1.8s" /><animate attributeName="stroke-dashoffset" from="150" to="0" dur="1.8s" begin="1.8s" fill="freeze" /></path><path d="M42.99,15.65c0.29,0.37,0.3,0.62,0.46,1.08c1.32,3.8,2.56,13.89,3.37,20.98" class="stroke" stroke-dasharray="150"><set attributeName="opacity" to="0" dur="2.8s" /><animate attributeName="stroke-dashoffset" from="150" to="0" dur="1.8s" begin="2.8s" fill="freeze" /></path><path d="M44.35,16.66c10.2-0.96,29.2-3.58,36.81-4.38c2.8-0.3,4.33,0.97,4.09,3.29c-0.4,3.84-2.83,13.26-4.11,19.66" class="stroke" stroke-dasharray="150"><set attributeName="opacity" to="0" dur="3.8s" /><animate attributeName="stroke-dashoffset" from="150" to="0" dur="1.8s" begin="3.8s" fill="freeze" /></path><path d="M46.26,25.98c6.27-0.7,12.57-1.16,18.85-1.72c2.14-0.19,4.28-0.37,6.3-0.55" class="stroke" stroke-dasharray="150"><set attributeName="opacity" to="0" dur="5.3s" /><animate attributeName="stroke-dashoffset" from="150" to="0" dur="1.8s" begin="5.3s" fill="freeze" /></path><path d="M47.35,35.67c7.35-0.41,23.66-1.61,33.8-2.27" class="stroke" stroke-dasharray="150"><set attributeName="opacity" to="0" dur="6.3s" /><animate attributeName="stroke-dashoffset" from="150" to="0" dur="1.8s" begin="6.3s" fill="freeze" /></path><path d="M38.62,44.52c0.27,0.29,0.56,0.53,0.68,0.89c0.95,2.85,1.97,10.71,2.62,15.84" class="stroke" stroke-dasharray="150"><set attributeName="opacity" to="0" dur="7.3s" /><animate attributeName="stroke-dashoffset" from="150" to="0" dur="1.8s" begin="7.3s" fill="freeze" /></path><path d="M39.95,45.94c6.05-1.12,46.09-4.08,49.31-4.46c1.17-0.14,2.77,0.97,2.45,2.57c-0.66,3.35-2.27,9.09-4.02,13.87" class="stroke" stroke-dasharray="150"><set attributeName="opacity" to="0" dur="8.2s" /><animate attributeName="stroke-dashoffset" from="150" to="0" dur="1.8s" begin="8.2s" fill="freeze" /></path><path d="M56.38,44.35c0.18,1.9,0.72,11.17,0.9,13.31" class="stroke" stroke-dasharray="150"><set attributeName="opacity" to="0" dur="9.7s" /><animate attributeName="stroke-dashoffset" from="150" to="0" dur="1.8s" begin="9.7s" fill="freeze" /></path><path d="M73.36,43.16c-0.18,3.09-0.74,9.63-1.1,13.07" class="stroke" stroke-dasharray="150"><set attributeName="opacity" to="0" dur="10.6s" /><animate attributeName="stroke-dashoffset" from="150" to="0" dur="1.8s" begin="10.6s" fill="freeze" /></path><path d="M42.79,59.2c3.77-0.42,40.16-3.06,45.34-3.71" class="stroke" stroke-dasharray="150"><set attributeName="opacity" to="0" dur="11.5s" /><animate attributeName="stroke-dashoffset" from="150" to="0" dur="1.8s" begin="11.5s" fill="freeze" /></path><path d="M46.9,68.55c1.48,0.29,1.66,0.71,4.62,0.29c2.96-0.43,24.5-4.7,26.54-5.13c2.03-0.43,3.48,1.68,1.97,3.61C67.82,82.91,53.82,93.12,35.77,99" class="stroke" stroke-dasharray="150"><set attributeName="opacity" to="0" dur="12.7s" /><animate attributeName="stroke-dashoffset" from="150" to="0" dur="1.8s" begin="12.7s" fill="freeze" /></path><path d="M46.35,75.91c4.55,0.51,26.76,14.18,42.58,19.79c2.46,0.87,4.26,1.45,6.55,1.74" class="stroke" stroke-dasharray="150"><set attributeName="opacity" to="0" dur="14.5s" /><animate attributeName="stroke-dashoffset" from="150" to="0" dur="1.8s" begin="14.5s" fill="freeze" /></path><text x="90" y="120" id="reset-kvg-06f2b-Kaisho">⟳</text><text x="70" y="120" id="pause-kvg-06f2b-Kaisho">◼</text><script type="text/javascript"><![CDATA[function RecurringTimer(e,t){var n,r,i=t;this.pause=function(){window.clearTimeout(n);i-=new Date-r};var s=function(){r=new Date;n=window.setTimeout(function(){i=t;s();e()},i)};this.clear=function(){window.clearTimeout(n);i=t;n=window.setTimeout(function(){i=t;s();e()},i)};this.resume=s;this.resume()}function invoketimer(){timer=new RecurringTimer(function(){svg.setCurrentTime(0)},16800.0)}var svg=document.getElementById("kvg-06f2b-Kaisho");var pause=document.getElementById("pause-kvg-06f2b-Kaisho");var reset=document.getElementById("reset-kvg-06f2b-Kaisho");var timer;invoketimer();reset.onclick=function(){svg.setCurrentTime(0);timer.clear();svg.unpauseAnimations();pause.innerHTML = "◼";};pause.onclick=function(){if(svg.animationsPaused()){svg.unpauseAnimations();timer.resume();pause.innerHTML="◼"}else{svg.pauseAnimations();timer.pause();pause.innerHTML="▶"}}]]></script></svg>