<svg id="kvg-06f5f" class="kanjivg" width="106" height="126" xmlns="http://www.w3.org/2000/svg" xmlns:xlink="http://www.w3.org/1999/xlink" xml:space="preserve" version="1.1" baseProfile="full"><defs><style type="text/css"><![CDATA[path.black{fill:none;stroke:black;stroke-width:5;stroke-linecap:round;stroke-linejoin:round;}path.grey{fill:none;stroke:#ddd;stroke-width:5;stroke-linecap:round;stroke-linejoin:round;}path.stroke{fill:none;stroke:black;stroke-width:5;stroke-linecap:round;stroke-linejoin:round;}rect{fill:none;stroke:#555;stroke-width:2;} text{font-size:16px;font-family:Segoe UI Symbol,Cambria Math,DejaVu Sans,Symbola,Quivira,STIX,Code2000;-webkit-touch-callout:none;cursor:pointer;-webkit-user-select:none;-khtml-user-select:none;-moz-user-select:none;-ms-user-select:none;user-select: none;}text:hover{color:#777;}#reset{font-weight:bold;}]]></style><marker id="markerStart" markerWidth="8" markerHeight="8" style="overflow:visible;"><circle cx="0" cy="0" r="1.5" style="stroke:none;fill:red;fill-opacity:0.5;"/></marker><marker id="markerEnd" style="overflow:visible;"><circle cx="0" cy="0" r="0.8" style="stroke:none;fill:blue;fill-opacity:0.5;"><animate attributeName="opacity" from="1" to="0" dur="3s" repeatCount="indefinite" /></circle></marker></defs><rect x="4" y="4" width="100" height="100" /><path d="M22.38,17.75c3.31,1.47,8.54,6.05,9.37,8.34" class="grey" /><path d="M14.75,40.25c3.79,1.54,9.8,6.35,10.75,8.75" class="grey" /><path d="M13.25,88.71c1.5,1.31,3.31,1.36,4.25-0.25C20.25,83.75,23,78,25.5,72" class="grey" /><path d="M59.03,11.96c0.04,0.26,0.2,0.77-0.08,1.04c-2.95,2.75-6.25,5.98-14.4,8.91" class="grey" /><path d="M42.83,21.07c0.67,0.61,0.99,1.96,1.11,3.21c0.33,3.48,2.52,19.32,3.13,25.48" class="grey" /><path d="M46.49,34.38 c 0.79,0.14,1.42,0.42,2.53,0.42c1.11,0,12.48-1.36,13.75-1.49" class="grey" /><path d="M68.91,18.87c0.79,0.14,1.42,0.42,2.53,0.42c1.11,0,14.3-2.16,15.56-2.3c1.26-0.14,2.36,0.69,2.21,1.52c-1.46,8-5.46,22.5-7.82,29.73" class="grey" /><path d="M69.22,32.2c0.79,0.14,1.42,0.42,2.53,0.42c1.11,0,12.48-1.11,13.75-1.24" class="grey" /><path d="M47.23,47.4c2.05,0,31.16-1.8,33.53-1.94" class="grey" /><path d="M52.03,51.5c0.06,0.51,0.12,1.31-0.11,2.03c-1.35,4.29-9.08,13.7-19.67,19.47" class="grey" /><path d="M49.73,62.66c1,0.41,2.4,0.55,4.01,0.27c1.6-0.27,31.64-3.6,35.64-3.73c4-0.14,4.85,1.38,4.2,4.24c-2.33,10.32-6.08,21.32-11.62,30.12c-1.88,2.99-4.04,1.03-6.41-0.68" class="grey" /><path d="M35.71,77c0,4.71-0.6,11.65-0.75,13" class="grey" /><path d="M48,73.25c2.84,2.16,5.53,8.11,6.25,11.47" class="grey" /><path d="M60.75,71.25c2.05,1.71,5.31,7.05,5.82,9.72" class="grey" /><path d="M72,67.75c2.67,1.71,6.89,7.05,7.56,9.72" class="grey" /><path d="M22.38,17.75c3.31,1.47,8.54,6.05,9.37,8.34" class="stroke" stroke-dasharray="150"><animate attributeName="stroke-dashoffset" from="150" to="0" dur="1.8s" begin="0.0s" fill="freeze" /></path><path d="M14.75,40.25c3.79,1.54,9.8,6.35,10.75,8.75" class="stroke" stroke-dasharray="150"><set attributeName="opacity" to="0" dur="0.9s" /><animate attributeName="stroke-dashoffset" from="150" to="0" dur="1.8s" begin="0.9s" fill="freeze" /></path><path d="M13.25,88.71c1.5,1.31,3.31,1.36,4.25-0.25C20.25,83.75,23,78,25.5,72" class="stroke" stroke-dasharray="150"><set attributeName="opacity" to="0" dur="1.8s" /><animate attributeName="stroke-dashoffset" from="150" to="0" dur="1.8s" begin="1.8s" fill="freeze" /></path><path d="M59.03,11.96c0.04,0.26,0.2,0.77-0.08,1.04c-2.95,2.75-6.25,5.98-14.4,8.91" class="stroke" stroke-dasharray="150"><set attributeName="opacity" to="0" dur="2.8s" /><animate attributeName="stroke-dashoffset" from="150" to="0" dur="1.8s" begin="2.8s" fill="freeze" /></path><path d="M42.83,21.07c0.67,0.61,0.99,1.96,1.11,3.21c0.33,3.48,2.52,19.32,3.13,25.48" class="stroke" stroke-dasharray="150"><set attributeName="opacity" to="0" dur="3.6999999999999997s" /><animate attributeName="stroke-dashoffset" from="150" to="0" dur="1.8s" begin="3.6999999999999997s" fill="freeze" /></path><path d="M46.49,34.38 c 0.79,0.14,1.42,0.42,2.53,0.42c1.11,0,12.48-1.36,13.75-1.49" class="stroke" stroke-dasharray="150"><set attributeName="opacity" to="0" dur="4.699999999999999s" /><animate attributeName="stroke-dashoffset" from="150" to="0" dur="1.8s" begin="4.699999999999999s" fill="freeze" /></path><path d="M68.91,18.87c0.79,0.14,1.42,0.42,2.53,0.42c1.11,0,14.3-2.16,15.56-2.3c1.26-0.14,2.36,0.69,2.21,1.52c-1.46,8-5.46,22.5-7.82,29.73" class="stroke" stroke-dasharray="150"><set attributeName="opacity" to="0" dur="5.6s" /><animate attributeName="stroke-dashoffset" from="150" to="0" dur="1.8s" begin="5.6s" fill="freeze" /></path><path d="M69.22,32.2c0.79,0.14,1.42,0.42,2.53,0.42c1.11,0,12.48-1.11,13.75-1.24" class="stroke" stroke-dasharray="150"><set attributeName="opacity" to="0" dur="6.8999999999999995s" /><animate attributeName="stroke-dashoffset" from="150" to="0" dur="1.8s" begin="6.8999999999999995s" fill="freeze" /></path><path d="M47.23,47.4c2.05,0,31.16-1.8,33.53-1.94" class="stroke" stroke-dasharray="150"><set attributeName="opacity" to="0" dur="7.8s" /><animate attributeName="stroke-dashoffset" from="150" to="0" dur="1.8s" begin="7.8s" fill="freeze" /></path><path d="M52.03,51.5c0.06,0.51,0.12,1.31-0.11,2.03c-1.35,4.29-9.08,13.7-19.67,19.47" class="stroke" stroke-dasharray="150"><set attributeName="opacity" to="0" dur="8.8s" /><animate attributeName="stroke-dashoffset" from="150" to="0" dur="1.8s" begin="8.8s" fill="freeze" /></path><path d="M49.73,62.66c1,0.41,2.4,0.55,4.01,0.27c1.6-0.27,31.64-3.6,35.64-3.73c4-0.14,4.85,1.38,4.2,4.24c-2.33,10.32-6.08,21.32-11.62,30.12c-1.88,2.99-4.04,1.03-6.41-0.68" class="stroke" stroke-dasharray="150"><set attributeName="opacity" to="0" dur="9.8s" /><animate attributeName="stroke-dashoffset" from="150" to="0" dur="1.8s" begin="9.8s" fill="freeze" /></path><path d="M35.71,77c0,4.71-0.6,11.65-0.75,13" class="stroke" stroke-dasharray="150"><set attributeName="opacity" to="0" dur="11.5s" /><animate attributeName="stroke-dashoffset" from="150" to="0" dur="1.8s" begin="11.5s" fill="freeze" /></path><path d="M48,73.25c2.84,2.16,5.53,8.11,6.25,11.47" class="stroke" stroke-dasharray="150"><set attributeName="opacity" to="0" dur="12.4s" /><animate attributeName="stroke-dashoffset" from="150" to="0" dur="1.8s" begin="12.4s" fill="freeze" /></path><path d="M60.75,71.25c2.05,1.71,5.31,7.05,5.82,9.72" class="stroke" stroke-dasharray="150"><set attributeName="opacity" to="0" dur="13.3s" /><animate attributeName="stroke-dashoffset" from="150" to="0" dur="1.8s" begin="13.3s" fill="freeze" /></path><path d="M72,67.75c2.67,1.71,6.89,7.05,7.56,9.72" class="stroke" stroke-dasharray="150"><set attributeName="opacity" to="0" dur="14.200000000000001s" /><animate attributeName="stroke-dashoffset" from="150" to="0" dur="1.8s" begin="14.200000000000001s" fill="freeze" /></path><text x="90" y="120" id="reset-kvg-06f5f">⟳</text><text x="70" y="120" id="pause-kvg-06f5f">◼</text><script type="text/javascript"><![CDATA[function RecurringTimer(e,t){var n,r,i=t;this.pause=function(){window.clearTimeout(n);i-=new Date-r};var s=function(){r=new Date;n=window.setTimeout(function(){i=t;s();e()},i)};this.clear=function(){window.clearTimeout(n);i=t;n=window.setTimeout(function(){i=t;s();e()},i)};this.resume=s;this.resume()}function invoketimer(){timer=new RecurringTimer(function(){svg.setCurrentTime(0)},16100.000000000002)}var svg=document.getElementById("kvg-06f5f");var pause=document.getElementById("pause-kvg-06f5f");var reset=document.getElementById("reset-kvg-06f5f");var timer;invoketimer();reset.onclick=function(){svg.setCurrentTime(0);timer.clear();svg.unpauseAnimations();pause.innerHTML = "◼";};pause.onclick=function(){if(svg.animationsPaused()){svg.unpauseAnimations();timer.resume();pause.innerHTML="◼"}else{svg.pauseAnimations();timer.pause();pause.innerHTML="▶"}}]]></script></svg>