<svg id="kvg-06f84" class="kanjivg" width="106" height="126" xmlns="http://www.w3.org/2000/svg" xmlns:xlink="http://www.w3.org/1999/xlink" xml:space="preserve" version="1.1" baseProfile="full"><defs><style type="text/css"><![CDATA[path.black{fill:none;stroke:black;stroke-width:5;stroke-linecap:round;stroke-linejoin:round;}path.grey{fill:none;stroke:#ddd;stroke-width:5;stroke-linecap:round;stroke-linejoin:round;}path.stroke{fill:none;stroke:black;stroke-width:5;stroke-linecap:round;stroke-linejoin:round;}rect{fill:none;stroke:#555;stroke-width:2;} text{font-size:16px;font-family:Segoe UI Symbol,Cambria Math,DejaVu Sans,Symbola,Quivira,STIX,Code2000;-webkit-touch-callout:none;cursor:pointer;-webkit-user-select:none;-khtml-user-select:none;-moz-user-select:none;-ms-user-select:none;user-select: none;}text:hover{color:#777;}#reset{font-weight:bold;}]]></style><marker id="markerStart" markerWidth="8" markerHeight="8" style="overflow:visible;"><circle cx="0" cy="0" r="1.5" style="stroke:none;fill:red;fill-opacity:0.5;"/></marker><marker id="markerEnd" style="overflow:visible;"><circle cx="0" cy="0" r="0.8" style="stroke:none;fill:blue;fill-opacity:0.5;"><animate attributeName="opacity" from="1" to="0" dur="3s" repeatCount="indefinite" /></circle></marker></defs><rect x="4" y="4" width="100" height="100" /><path d="M17.88,17.5c4.1,1.43,10.6,5.87,11.62,8.09" class="grey" /><path d="M14,40.38c3.71,1.39,9.57,5.71,10.5,7.88" class="grey" /><path d="M11.4,86.82c1.27,0.65,2.59,0.43,3.35-0.87c2.75-4.7,5.5-10.45,8-16.45" class="grey" /><path d="M41.53,18.67c1.57,0.76,3.36,0.48,4.99,0.21c3.64-0.6,4.56-1.13,9.26-1.93c3.12-0.54,3.75,0.48,2.75,3.55c-2.35,7.19-12.78,26-26.78,32.47" class="grey" /><path d="M37.38,29.25c3.22,1.16,8.31,4.78,9.11,6.59" class="grey" /><path d="M76.31,17.85c0.1,0.51-0.02,1.2-0.36,1.57c-1.24,2.03-2.89,3.92-6.33,6.45" class="grey" /><path d="M59.58,21.99c4.4,2.35,16.44,13.51,24.09,19.86c2.75,2.28,6,4.3,9.08,6.1" class="grey" /><path d="M86.14,26.12c0.07,0.54-0.04,1.03-0.35,1.47c-1,1.71-3.84,4.14-7.55,6.14" class="grey" /><path d="M47.82,44.94c1.8,0.44,3.3,0.24,4.79,0.03c5.5-0.77,10.04-1.24,14.51-1.63c1.65-0.14,3.24-0.31,4.86,0.14" class="grey" /><path d="M42.56,55.18c0.88,0.88,1.32,1.82,1.64,3.06c0.67,2.62,1.48,5.96,2.42,11.19c0.23,1.25,0.44,1.72,0.62,2.89" class="grey" /><path d="M44.33,55.99c7.03-0.66,24.73-2.85,29.53-2.95c1.98-0.04,3.39,1.88,2.88,3.77c-0.87,3.2-1.75,6.2-3.1,10.67" class="grey" /><path d="M48.57,70.64c6-0.53,15.93-1.51,23.43-1.89c1.43-0.07,2.68-0.21,3.67-0.25" class="grey" /><path d="M46.54,78.25c1.79,1.81,4.58,6.44,5.03,9.26" class="grey" /><path d="M74.8,74.97c0.02,0.35,0.05,0.91-0.05,1.42c-0.47,2.41-2.74,7.15-6,10.99" class="grey" /><path d="M31.53,91.1c3.34,0.9,6.74,0.57,9.72,0.36c12.04-0.82,31.58-2.22,43.87-2.76c3.03-0.13,6.11,0.05,9.08,0.78" class="grey" /><path d="M17.88,17.5c4.1,1.43,10.6,5.87,11.62,8.09" class="stroke" stroke-dasharray="150"><animate attributeName="stroke-dashoffset" from="150" to="0" dur="1.8s" begin="0.0s" fill="freeze" /></path><path d="M14,40.38c3.71,1.39,9.57,5.71,10.5,7.88" class="stroke" stroke-dasharray="150"><set attributeName="opacity" to="0" dur="0.9s" /><animate attributeName="stroke-dashoffset" from="150" to="0" dur="1.8s" begin="0.9s" fill="freeze" /></path><path d="M11.4,86.82c1.27,0.65,2.59,0.43,3.35-0.87c2.75-4.7,5.5-10.45,8-16.45" class="stroke" stroke-dasharray="150"><set attributeName="opacity" to="0" dur="1.8s" /><animate attributeName="stroke-dashoffset" from="150" to="0" dur="1.8s" begin="1.8s" fill="freeze" /></path><path d="M41.53,18.67c1.57,0.76,3.36,0.48,4.99,0.21c3.64-0.6,4.56-1.13,9.26-1.93c3.12-0.54,3.75,0.48,2.75,3.55c-2.35,7.19-12.78,26-26.78,32.47" class="stroke" stroke-dasharray="150"><set attributeName="opacity" to="0" dur="2.8s" /><animate attributeName="stroke-dashoffset" from="150" to="0" dur="1.8s" begin="2.8s" fill="freeze" /></path><path d="M37.38,29.25c3.22,1.16,8.31,4.78,9.11,6.59" class="stroke" stroke-dasharray="150"><set attributeName="opacity" to="0" dur="4.3s" /><animate attributeName="stroke-dashoffset" from="150" to="0" dur="1.8s" begin="4.3s" fill="freeze" /></path><path d="M76.31,17.85c0.1,0.51-0.02,1.2-0.36,1.57c-1.24,2.03-2.89,3.92-6.33,6.45" class="stroke" stroke-dasharray="150"><set attributeName="opacity" to="0" dur="5.2s" /><animate attributeName="stroke-dashoffset" from="150" to="0" dur="1.8s" begin="5.2s" fill="freeze" /></path><path d="M59.58,21.99c4.4,2.35,16.44,13.51,24.09,19.86c2.75,2.28,6,4.3,9.08,6.1" class="stroke" stroke-dasharray="150"><set attributeName="opacity" to="0" dur="6.1000000000000005s" /><animate attributeName="stroke-dashoffset" from="150" to="0" dur="1.8s" begin="6.1000000000000005s" fill="freeze" /></path><path d="M86.14,26.12c0.07,0.54-0.04,1.03-0.35,1.47c-1,1.71-3.84,4.14-7.55,6.14" class="stroke" stroke-dasharray="150"><set attributeName="opacity" to="0" dur="7.200000000000001s" /><animate attributeName="stroke-dashoffset" from="150" to="0" dur="1.8s" begin="7.200000000000001s" fill="freeze" /></path><path d="M47.82,44.94c1.8,0.44,3.3,0.24,4.79,0.03c5.5-0.77,10.04-1.24,14.51-1.63c1.65-0.14,3.24-0.31,4.86,0.14" class="stroke" stroke-dasharray="150"><set attributeName="opacity" to="0" dur="8.100000000000001s" /><animate attributeName="stroke-dashoffset" from="150" to="0" dur="1.8s" begin="8.100000000000001s" fill="freeze" /></path><path d="M42.56,55.18c0.88,0.88,1.32,1.82,1.64,3.06c0.67,2.62,1.48,5.96,2.42,11.19c0.23,1.25,0.44,1.72,0.62,2.89" class="stroke" stroke-dasharray="150"><set attributeName="opacity" to="0" dur="9.100000000000001s" /><animate attributeName="stroke-dashoffset" from="150" to="0" dur="1.8s" begin="9.100000000000001s" fill="freeze" /></path><path d="M44.33,55.99c7.03-0.66,24.73-2.85,29.53-2.95c1.98-0.04,3.39,1.88,2.88,3.77c-0.87,3.2-1.75,6.2-3.1,10.67" class="stroke" stroke-dasharray="150"><set attributeName="opacity" to="0" dur="10.000000000000002s" /><animate attributeName="stroke-dashoffset" from="150" to="0" dur="1.8s" begin="10.000000000000002s" fill="freeze" /></path><path d="M48.57,70.64c6-0.53,15.93-1.51,23.43-1.89c1.43-0.07,2.68-0.21,3.67-0.25" class="stroke" stroke-dasharray="150"><set attributeName="opacity" to="0" dur="11.200000000000001s" /><animate attributeName="stroke-dashoffset" from="150" to="0" dur="1.8s" begin="11.200000000000001s" fill="freeze" /></path><path d="M46.54,78.25c1.79,1.81,4.58,6.44,5.03,9.26" class="stroke" stroke-dasharray="150"><set attributeName="opacity" to="0" dur="12.200000000000001s" /><animate attributeName="stroke-dashoffset" from="150" to="0" dur="1.8s" begin="12.200000000000001s" fill="freeze" /></path><path d="M74.8,74.97c0.02,0.35,0.05,0.91-0.05,1.42c-0.47,2.41-2.74,7.15-6,10.99" class="stroke" stroke-dasharray="150"><set attributeName="opacity" to="0" dur="13.100000000000001s" /><animate attributeName="stroke-dashoffset" from="150" to="0" dur="1.8s" begin="13.100000000000001s" fill="freeze" /></path><path d="M31.53,91.1c3.34,0.9,6.74,0.57,9.72,0.36c12.04-0.82,31.58-2.22,43.87-2.76c3.03-0.13,6.11,0.05,9.08,0.78" class="stroke" stroke-dasharray="150"><set attributeName="opacity" to="0" dur="14.000000000000002s" /><animate attributeName="stroke-dashoffset" from="150" to="0" dur="1.8s" begin="14.000000000000002s" fill="freeze" /></path><text x="90" y="120" id="reset-kvg-06f84">⟳</text><text x="70" y="120" id="pause-kvg-06f84">◼</text><script type="text/javascript"><![CDATA[function RecurringTimer(e,t){var n,r,i=t;this.pause=function(){window.clearTimeout(n);i-=new Date-r};var s=function(){r=new Date;n=window.setTimeout(function(){i=t;s();e()},i)};this.clear=function(){window.clearTimeout(n);i=t;n=window.setTimeout(function(){i=t;s();e()},i)};this.resume=s;this.resume()}function invoketimer(){timer=new RecurringTimer(function(){svg.setCurrentTime(0)},16500.0)}var svg=document.getElementById("kvg-06f84");var pause=document.getElementById("pause-kvg-06f84");var reset=document.getElementById("reset-kvg-06f84");var timer;invoketimer();reset.onclick=function(){svg.setCurrentTime(0);timer.clear();svg.unpauseAnimations();pause.innerHTML = "◼";};pause.onclick=function(){if(svg.animationsPaused()){svg.unpauseAnimations();timer.resume();pause.innerHTML="◼"}else{svg.pauseAnimations();timer.pause();pause.innerHTML="▶"}}]]></script></svg>