<svg id="kvg-071c9-Kaisho" class="kanjivg" width="106" height="126" xmlns="http://www.w3.org/2000/svg" xmlns:xlink="http://www.w3.org/1999/xlink" xml:space="preserve" version="1.1" baseProfile="full"><defs><style type="text/css"><![CDATA[path.black{fill:none;stroke:black;stroke-width:5;stroke-linecap:round;stroke-linejoin:round;}path.grey{fill:none;stroke:#ddd;stroke-width:5;stroke-linecap:round;stroke-linejoin:round;}path.stroke{fill:none;stroke:black;stroke-width:5;stroke-linecap:round;stroke-linejoin:round;}rect{fill:none;stroke:#555;stroke-width:2;} text{font-size:16px;font-family:Segoe UI Symbol,Cambria Math,DejaVu Sans,Symbola,Quivira,STIX,Code2000;-webkit-touch-callout:none;cursor:pointer;-webkit-user-select:none;-khtml-user-select:none;-moz-user-select:none;-ms-user-select:none;user-select: none;}text:hover{color:#777;}#reset{font-weight:bold;}]]></style><marker id="markerStart" markerWidth="8" markerHeight="8" style="overflow:visible;"><circle cx="0" cy="0" r="1.5" style="stroke:none;fill:red;fill-opacity:0.5;"/></marker><marker id="markerEnd" style="overflow:visible;"><circle cx="0" cy="0" r="0.8" style="stroke:none;fill:blue;fill-opacity:0.5;"><animate attributeName="opacity" from="1" to="0" dur="3s" repeatCount="indefinite" /></circle></marker></defs><rect x="4" y="4" width="100" height="100" /><path d="M10.74,35.5c1.96,3.47,4.81,13.28,5.34,16.75" class="grey" /><path d="M36.23,33.75c0.27,1,0.32,2.04-0.19,3.06c-0.51,1.02-5.26,8.55-7.81,10.94" class="grey" /><path d="M24.95,11.75c0.8,0.8,1.07,2.39,1.08,3.73C26.26,70.29,22.59,80.66,9.5,94.5" class="grey" /><path d="M25,72c4.26,2.91,9.63,12.13,10.75,16.25" class="grey" /><path d="M50.37,10c1.63,1.75,3.38,4.25,4.34,7.12" class="grey" /><path d="M37.55,23.66c0.89,0.09,2.93,0.58,3.8,0.48c7.15-0.88,13.99-1.56,24-2.25c1.47-0.1,2.23,0.04,3.32,0.61" class="grey" /><path d="M42.72,32.68c0.23,0.27,0.47,0.5,0.57,0.84c0.81,2.7,2.05,9.81,2.6,14.66" class="grey" /><path d="M43.94,33.51c6.06-0.76,14.74-2.15,17.36-2.49C62.25,30.89,64,32,63.69,33.5c-0.63,3.01-1.71,6.82-2.93,11.18" class="grey" /><path d="M45.68,46.87c3.07-0.38,12.64-1.43,16.53-1.82" class="grey" /><path d="M39.91,55.62c0.63,0.21,1.82,0.53,2.77,0.35c1.16-0.22,17.54-3.22,18.64-3.22s1.68,1.11,0.58,2.34c-1.33,1.49-5.9,5.41-11.77,9.68" class="grey" /><path d="M49.68,65.41c4.57,1.84,8.5,16.45,4.53,27.69c-2.35,6.65-5.21,2.4-6.61,0.06" class="grey" /><path d="M37.82,78.35c0.59,1.3,2.58,0.68,3.59,0.21c5.92-2.78,15.63-7.25,24.53-11.31" class="grey" /><path d="M79.41,12.89c0.04,0.8,0.18,2.1-0.07,3.22c-1.81,8.12-5.88,21.87-12.14,31.66" class="grey" /><path d="M76.54,34.07c1.04,0.24,2.96,0.05,3.52-0.03C86.75,33,90.5,32,95,31.25c1.02-0.17,3.01-0.33,3.85-0.08" class="grey" /><path d="M89.49,37.18c0.45,1.36,0.69,2.33,0.22,4.82c-4.23,22.58-13.96,40.5-27.8,51.5" class="grey" /><path d="M69.76,52.6C75.25,64.25,84,80.75,93.24,90.44c1.51,1.59,2.85,2.83,4.01,3" class="grey" /><path d="M10.74,35.5c1.96,3.47,4.81,13.28,5.34,16.75" class="stroke" stroke-dasharray="150"><animate attributeName="stroke-dashoffset" from="150" to="0" dur="1.8s" begin="0.0s" fill="freeze" /></path><path d="M36.23,33.75c0.27,1,0.32,2.04-0.19,3.06c-0.51,1.02-5.26,8.55-7.81,10.94" class="stroke" stroke-dasharray="150"><set attributeName="opacity" to="0" dur="0.9s" /><animate attributeName="stroke-dashoffset" from="150" to="0" dur="1.8s" begin="0.9s" fill="freeze" /></path><path d="M24.95,11.75c0.8,0.8,1.07,2.39,1.08,3.73C26.26,70.29,22.59,80.66,9.5,94.5" class="stroke" stroke-dasharray="150"><set attributeName="opacity" to="0" dur="1.8s" /><animate attributeName="stroke-dashoffset" from="150" to="0" dur="1.8s" begin="1.8s" fill="freeze" /></path><path d="M25,72c4.26,2.91,9.63,12.13,10.75,16.25" class="stroke" stroke-dasharray="150"><set attributeName="opacity" to="0" dur="3.5s" /><animate attributeName="stroke-dashoffset" from="150" to="0" dur="1.8s" begin="3.5s" fill="freeze" /></path><path d="M50.37,10c1.63,1.75,3.38,4.25,4.34,7.12" class="stroke" stroke-dasharray="150"><set attributeName="opacity" to="0" dur="4.4s" /><animate attributeName="stroke-dashoffset" from="150" to="0" dur="1.8s" begin="4.4s" fill="freeze" /></path><path d="M37.55,23.66c0.89,0.09,2.93,0.58,3.8,0.48c7.15-0.88,13.99-1.56,24-2.25c1.47-0.1,2.23,0.04,3.32,0.61" class="stroke" stroke-dasharray="150"><set attributeName="opacity" to="0" dur="5.300000000000001s" /><animate attributeName="stroke-dashoffset" from="150" to="0" dur="1.8s" begin="5.300000000000001s" fill="freeze" /></path><path d="M42.72,32.68c0.23,0.27,0.47,0.5,0.57,0.84c0.81,2.7,2.05,9.81,2.6,14.66" class="stroke" stroke-dasharray="150"><set attributeName="opacity" to="0" dur="6.300000000000001s" /><animate attributeName="stroke-dashoffset" from="150" to="0" dur="1.8s" begin="6.300000000000001s" fill="freeze" /></path><path d="M43.94,33.51c6.06-0.76,14.74-2.15,17.36-2.49C62.25,30.89,64,32,63.69,33.5c-0.63,3.01-1.71,6.82-2.93,11.18" class="stroke" stroke-dasharray="150"><set attributeName="opacity" to="0" dur="7.200000000000001s" /><animate attributeName="stroke-dashoffset" from="150" to="0" dur="1.8s" begin="7.200000000000001s" fill="freeze" /></path><path d="M45.68,46.87c3.07-0.38,12.64-1.43,16.53-1.82" class="stroke" stroke-dasharray="150"><set attributeName="opacity" to="0" dur="8.200000000000001s" /><animate attributeName="stroke-dashoffset" from="150" to="0" dur="1.8s" begin="8.200000000000001s" fill="freeze" /></path><path d="M39.91,55.62c0.63,0.21,1.82,0.53,2.77,0.35c1.16-0.22,17.54-3.22,18.64-3.22s1.68,1.11,0.58,2.34c-1.33,1.49-5.9,5.41-11.77,9.68" class="stroke" stroke-dasharray="150"><set attributeName="opacity" to="0" dur="9.100000000000001s" /><animate attributeName="stroke-dashoffset" from="150" to="0" dur="1.8s" begin="9.100000000000001s" fill="freeze" /></path><path d="M49.68,65.41c4.57,1.84,8.5,16.45,4.53,27.69c-2.35,6.65-5.21,2.4-6.61,0.06" class="stroke" stroke-dasharray="150"><set attributeName="opacity" to="0" dur="10.200000000000001s" /><animate attributeName="stroke-dashoffset" from="150" to="0" dur="1.8s" begin="10.200000000000001s" fill="freeze" /></path><path d="M37.82,78.35c0.59,1.3,2.58,0.68,3.59,0.21c5.92-2.78,15.63-7.25,24.53-11.31" class="stroke" stroke-dasharray="150"><set attributeName="opacity" to="0" dur="11.200000000000001s" /><animate attributeName="stroke-dashoffset" from="150" to="0" dur="1.8s" begin="11.200000000000001s" fill="freeze" /></path><path d="M79.41,12.89c0.04,0.8,0.18,2.1-0.07,3.22c-1.81,8.12-5.88,21.87-12.14,31.66" class="stroke" stroke-dasharray="150"><set attributeName="opacity" to="0" dur="12.200000000000001s" /><animate attributeName="stroke-dashoffset" from="150" to="0" dur="1.8s" begin="12.200000000000001s" fill="freeze" /></path><path d="M76.54,34.07c1.04,0.24,2.96,0.05,3.52-0.03C86.75,33,90.5,32,95,31.25c1.02-0.17,3.01-0.33,3.85-0.08" class="stroke" stroke-dasharray="150"><set attributeName="opacity" to="0" dur="13.200000000000001s" /><animate attributeName="stroke-dashoffset" from="150" to="0" dur="1.8s" begin="13.200000000000001s" fill="freeze" /></path><path d="M89.49,37.18c0.45,1.36,0.69,2.33,0.22,4.82c-4.23,22.58-13.96,40.5-27.8,51.5" class="stroke" stroke-dasharray="150"><set attributeName="opacity" to="0" dur="14.200000000000001s" /><animate attributeName="stroke-dashoffset" from="150" to="0" dur="1.8s" begin="14.200000000000001s" fill="freeze" /></path><path d="M69.76,52.6C75.25,64.25,84,80.75,93.24,90.44c1.51,1.59,2.85,2.83,4.01,3" class="stroke" stroke-dasharray="150"><set attributeName="opacity" to="0" dur="15.700000000000001s" /><animate attributeName="stroke-dashoffset" from="150" to="0" dur="1.8s" begin="15.700000000000001s" fill="freeze" /></path><text x="90" y="120" id="reset-kvg-071c9-Kaisho">⟳</text><text x="70" y="120" id="pause-kvg-071c9-Kaisho">◼</text><script type="text/javascript"><![CDATA[function RecurringTimer(e,t){var n,r,i=t;this.pause=function(){window.clearTimeout(n);i-=new Date-r};var s=function(){r=new Date;n=window.setTimeout(function(){i=t;s();e()},i)};this.clear=function(){window.clearTimeout(n);i=t;n=window.setTimeout(function(){i=t;s();e()},i)};this.resume=s;this.resume()}function invoketimer(){timer=new RecurringTimer(function(){svg.setCurrentTime(0)},17900.000000000004)}var svg=document.getElementById("kvg-071c9-Kaisho");var pause=document.getElementById("pause-kvg-071c9-Kaisho");var reset=document.getElementById("reset-kvg-071c9-Kaisho");var timer;invoketimer();reset.onclick=function(){svg.setCurrentTime(0);timer.clear();svg.unpauseAnimations();pause.innerHTML = "◼";};pause.onclick=function(){if(svg.animationsPaused()){svg.unpauseAnimations();timer.resume();pause.innerHTML="◼"}else{svg.pauseAnimations();timer.pause();pause.innerHTML="▶"}}]]></script></svg>