<svg id="kvg-071f9" class="kanjivg" width="106" height="126" xmlns="http://www.w3.org/2000/svg" xmlns:xlink="http://www.w3.org/1999/xlink" xml:space="preserve" version="1.1" baseProfile="full"><defs><style type="text/css"><![CDATA[path.black{fill:none;stroke:black;stroke-width:5;stroke-linecap:round;stroke-linejoin:round;}path.grey{fill:none;stroke:#ddd;stroke-width:5;stroke-linecap:round;stroke-linejoin:round;}path.stroke{fill:none;stroke:black;stroke-width:5;stroke-linecap:round;stroke-linejoin:round;}rect{fill:none;stroke:#555;stroke-width:2;} text{font-size:16px;font-family:Segoe UI Symbol,Cambria Math,DejaVu Sans,Symbola,Quivira,STIX,Code2000;-webkit-touch-callout:none;cursor:pointer;-webkit-user-select:none;-khtml-user-select:none;-moz-user-select:none;-ms-user-select:none;user-select: none;}text:hover{color:#777;}#reset{font-weight:bold;}]]></style><marker id="markerStart" markerWidth="8" markerHeight="8" style="overflow:visible;"><circle cx="0" cy="0" r="1.5" style="stroke:none;fill:red;fill-opacity:0.5;"/></marker><marker id="markerEnd" style="overflow:visible;"><circle cx="0" cy="0" r="0.8" style="stroke:none;fill:blue;fill-opacity:0.5;"><animate attributeName="opacity" from="1" to="0" dur="3s" repeatCount="indefinite" /></circle></marker></defs><rect x="4" y="4" width="100" height="100" /><path d="M17.77,16.49c0.97,0.45,2.74,0.55,3.71,0.45c6.93-0.71,14.81-2.45,25.71-2.64c1.61-0.03,2.58,0.22,3.39,0.44" class="grey" /><path d="M34.16,18.02c0.04,0.31,0.09,0.8-0.08,1.25c-1.02,2.63-6.85,8.4-14.83,11.94" class="grey" /><path d="M32.62,24.25c5.38,5.75,7.41,14.19,5.4,25.2c-1.52,8.31-5.68,2.02-6.31,1.52" class="grey" /><path d="M32.08,28.78c0.04,0.27,0.08,0.7-0.07,1.09c-0.86,2.3-5.82,7.36-12.61,10.45" class="grey" /><path d="M34.94,35.25c0.04,0.31,0.08,0.81-0.08,1.25c-0.98,2.64-6.63,8.45-14.35,12" class="grey" /><path d="M47.31,21.95c0.02,0.21,0.05,0.55-0.05,0.86c-0.59,1.8-3.97,5.76-8.6,8.19" class="grey" /><path d="M39.49,34.37c3.82,1.98,8.79,7.15,10.1,12.06" class="grey" /><path d="M58.02,15.8c0.83,0.42,2.36,0.51,3.19,0.42c5.96-0.66,16.59-2.8,25.96-2.99c1.39-0.03,2.22,0.2,2.91,0.41" class="grey" /><path d="M71.41,16.25c0.04,0.28,0.08,0.72-0.08,1.12c-0.91,2.37-6.16,7.57-13.34,10.76" class="grey" /><path d="M68.62,23c7.22,7.72,10.95,17.1,6.9,28.41c-2.32,6.48-5.68,2.19-6.31,1.65" class="grey" /><path d="M68.59,28.33c0.03,0.25,0.07,0.66-0.07,1.02c-0.79,2.15-5.36,6.86-11.61,9.75" class="grey" /><path d="M72.44,34.27c0.04,0.33,0.08,0.85-0.08,1.32c-0.93,2.78-6.29,8.88-13.61,12.62" class="grey" /><path d="M86.81,22.1c0.02,0.25,0.05,0.66-0.05,1.02c-0.56,2.16-3.74,6.89-8.11,9.79" class="grey" /><path d="M77.74,36.61c4.86,2.12,11.18,7.68,12.85,12.95" class="grey" /><path d="M27.5,64.43c3.52,2.63,9.29,11.41,10.25,14.04" class="grey" /><path d="M79.26,61.5c0.24,1.25,0.24,2.21-0.5,3.15s-8.33,8.06-12.01,10.24" class="grey" /><path d="M53.42,54.5c0.83,1,1.09,2.08,1.08,2.79C54,82.5,37.25,94,19.75,98.75" class="grey" /><path d="M52.75,71.01c10.99,10.38,24.32,20.93,31.57,25.26c2.28,1.36,2.81,1.21,4.68,1.56" class="grey" /><path d="M17.77,16.49c0.97,0.45,2.74,0.55,3.71,0.45c6.93-0.71,14.81-2.45,25.71-2.64c1.61-0.03,2.58,0.22,3.39,0.44" class="stroke" stroke-dasharray="150"><animate attributeName="stroke-dashoffset" from="150" to="0" dur="1.8s" begin="0.0s" fill="freeze" /></path><path d="M34.16,18.02c0.04,0.31,0.09,0.8-0.08,1.25c-1.02,2.63-6.85,8.4-14.83,11.94" class="stroke" stroke-dasharray="150"><set attributeName="opacity" to="0" dur="1.0s" /><animate attributeName="stroke-dashoffset" from="150" to="0" dur="1.8s" begin="1.0s" fill="freeze" /></path><path d="M32.62,24.25c5.38,5.75,7.41,14.19,5.4,25.2c-1.52,8.31-5.68,2.02-6.31,1.52" class="stroke" stroke-dasharray="150"><set attributeName="opacity" to="0" dur="2.0s" /><animate attributeName="stroke-dashoffset" from="150" to="0" dur="1.8s" begin="2.0s" fill="freeze" /></path><path d="M32.08,28.78c0.04,0.27,0.08,0.7-0.07,1.09c-0.86,2.3-5.82,7.36-12.61,10.45" class="stroke" stroke-dasharray="150"><set attributeName="opacity" to="0" dur="3.0s" /><animate attributeName="stroke-dashoffset" from="150" to="0" dur="1.8s" begin="3.0s" fill="freeze" /></path><path d="M34.94,35.25c0.04,0.31,0.08,0.81-0.08,1.25c-0.98,2.64-6.63,8.45-14.35,12" class="stroke" stroke-dasharray="150"><set attributeName="opacity" to="0" dur="3.9s" /><animate attributeName="stroke-dashoffset" from="150" to="0" dur="1.8s" begin="3.9s" fill="freeze" /></path><path d="M47.31,21.95c0.02,0.21,0.05,0.55-0.05,0.86c-0.59,1.8-3.97,5.76-8.6,8.19" class="stroke" stroke-dasharray="150"><set attributeName="opacity" to="0" dur="4.9s" /><animate attributeName="stroke-dashoffset" from="150" to="0" dur="1.8s" begin="4.9s" fill="freeze" /></path><path d="M39.49,34.37c3.82,1.98,8.79,7.15,10.1,12.06" class="stroke" stroke-dasharray="150"><set attributeName="opacity" to="0" dur="5.800000000000001s" /><animate attributeName="stroke-dashoffset" from="150" to="0" dur="1.8s" begin="5.800000000000001s" fill="freeze" /></path><path d="M58.02,15.8c0.83,0.42,2.36,0.51,3.19,0.42c5.96-0.66,16.59-2.8,25.96-2.99c1.39-0.03,2.22,0.2,2.91,0.41" class="stroke" stroke-dasharray="150"><set attributeName="opacity" to="0" dur="6.700000000000001s" /><animate attributeName="stroke-dashoffset" from="150" to="0" dur="1.8s" begin="6.700000000000001s" fill="freeze" /></path><path d="M71.41,16.25c0.04,0.28,0.08,0.72-0.08,1.12c-0.91,2.37-6.16,7.57-13.34,10.76" class="stroke" stroke-dasharray="150"><set attributeName="opacity" to="0" dur="7.700000000000001s" /><animate attributeName="stroke-dashoffset" from="150" to="0" dur="1.8s" begin="7.700000000000001s" fill="freeze" /></path><path d="M68.62,23c7.22,7.72,10.95,17.1,6.9,28.41c-2.32,6.48-5.68,2.19-6.31,1.65" class="stroke" stroke-dasharray="150"><set attributeName="opacity" to="0" dur="8.600000000000001s" /><animate attributeName="stroke-dashoffset" from="150" to="0" dur="1.8s" begin="8.600000000000001s" fill="freeze" /></path><path d="M68.59,28.33c0.03,0.25,0.07,0.66-0.07,1.02c-0.79,2.15-5.36,6.86-11.61,9.75" class="stroke" stroke-dasharray="150"><set attributeName="opacity" to="0" dur="9.600000000000001s" /><animate attributeName="stroke-dashoffset" from="150" to="0" dur="1.8s" begin="9.600000000000001s" fill="freeze" /></path><path d="M72.44,34.27c0.04,0.33,0.08,0.85-0.08,1.32c-0.93,2.78-6.29,8.88-13.61,12.62" class="stroke" stroke-dasharray="150"><set attributeName="opacity" to="0" dur="10.500000000000002s" /><animate attributeName="stroke-dashoffset" from="150" to="0" dur="1.8s" begin="10.500000000000002s" fill="freeze" /></path><path d="M86.81,22.1c0.02,0.25,0.05,0.66-0.05,1.02c-0.56,2.16-3.74,6.89-8.11,9.79" class="stroke" stroke-dasharray="150"><set attributeName="opacity" to="0" dur="11.500000000000002s" /><animate attributeName="stroke-dashoffset" from="150" to="0" dur="1.8s" begin="11.500000000000002s" fill="freeze" /></path><path d="M77.74,36.61c4.86,2.12,11.18,7.68,12.85,12.95" class="stroke" stroke-dasharray="150"><set attributeName="opacity" to="0" dur="12.400000000000002s" /><animate attributeName="stroke-dashoffset" from="150" to="0" dur="1.8s" begin="12.400000000000002s" fill="freeze" /></path><path d="M27.5,64.43c3.52,2.63,9.29,11.41,10.25,14.04" class="stroke" stroke-dasharray="150"><set attributeName="opacity" to="0" dur="13.300000000000002s" /><animate attributeName="stroke-dashoffset" from="150" to="0" dur="1.8s" begin="13.300000000000002s" fill="freeze" /></path><path d="M79.26,61.5c0.24,1.25,0.24,2.21-0.5,3.15s-8.33,8.06-12.01,10.24" class="stroke" stroke-dasharray="150"><set attributeName="opacity" to="0" dur="14.200000000000003s" /><animate attributeName="stroke-dashoffset" from="150" to="0" dur="1.8s" begin="14.200000000000003s" fill="freeze" /></path><path d="M53.42,54.5c0.83,1,1.09,2.08,1.08,2.79C54,82.5,37.25,94,19.75,98.75" class="stroke" stroke-dasharray="150"><set attributeName="opacity" to="0" dur="15.100000000000003s" /><animate attributeName="stroke-dashoffset" from="150" to="0" dur="1.8s" begin="15.100000000000003s" fill="freeze" /></path><path d="M52.75,71.01c10.99,10.38,24.32,20.93,31.57,25.26c2.28,1.36,2.81,1.21,4.68,1.56" class="stroke" stroke-dasharray="150"><set attributeName="opacity" to="0" dur="16.6s" /><animate attributeName="stroke-dashoffset" from="150" to="0" dur="1.8s" begin="16.6s" fill="freeze" /></path><text x="90" y="120" id="reset-kvg-071f9">⟳</text><text x="70" y="120" id="pause-kvg-071f9">◼</text><script type="text/javascript"><![CDATA[function RecurringTimer(e,t){var n,r,i=t;this.pause=function(){window.clearTimeout(n);i-=new Date-r};var s=function(){r=new Date;n=window.setTimeout(function(){i=t;s();e()},i)};this.clear=function(){window.clearTimeout(n);i=t;n=window.setTimeout(function(){i=t;s();e()},i)};this.resume=s;this.resume()}function invoketimer(){timer=new RecurringTimer(function(){svg.setCurrentTime(0)},18800.0)}var svg=document.getElementById("kvg-071f9");var pause=document.getElementById("pause-kvg-071f9");var reset=document.getElementById("reset-kvg-071f9");var timer;invoketimer();reset.onclick=function(){svg.setCurrentTime(0);timer.clear();svg.unpauseAnimations();pause.innerHTML = "◼";};pause.onclick=function(){if(svg.animationsPaused()){svg.unpauseAnimations();timer.resume();pause.innerHTML="◼"}else{svg.pauseAnimations();timer.pause();pause.innerHTML="▶"}}]]></script></svg>