<svg id="kvg-0722d" class="kanjivg" width="106" height="126" xmlns="http://www.w3.org/2000/svg" xmlns:xlink="http://www.w3.org/1999/xlink" xml:space="preserve" version="1.1" baseProfile="full"><defs><style type="text/css"><![CDATA[path.black{fill:none;stroke:black;stroke-width:5;stroke-linecap:round;stroke-linejoin:round;}path.grey{fill:none;stroke:#ddd;stroke-width:5;stroke-linecap:round;stroke-linejoin:round;}path.stroke{fill:none;stroke:black;stroke-width:5;stroke-linecap:round;stroke-linejoin:round;}rect{fill:none;stroke:#555;stroke-width:2;} text{font-size:16px;font-family:Segoe UI Symbol,Cambria Math,DejaVu Sans,Symbola,Quivira,STIX,Code2000;-webkit-touch-callout:none;cursor:pointer;-webkit-user-select:none;-khtml-user-select:none;-moz-user-select:none;-ms-user-select:none;user-select: none;}text:hover{color:#777;}#reset{font-weight:bold;}]]></style><marker id="markerStart" markerWidth="8" markerHeight="8" style="overflow:visible;"><circle cx="0" cy="0" r="1.5" style="stroke:none;fill:red;fill-opacity:0.5;"/></marker><marker id="markerEnd" style="overflow:visible;"><circle cx="0" cy="0" r="0.8" style="stroke:none;fill:blue;fill-opacity:0.5;"><animate attributeName="opacity" from="1" to="0" dur="3s" repeatCount="indefinite" /></circle></marker></defs><rect x="4" y="4" width="100" height="100" /><path d="M73.44,9.39c0.06,1.11-1.05,2.21-1.73,2.5c-3.71,1.61-17.5,5.24-39.65,8.07" class="grey" /><path d="M32.27,26.14c0.04,0.4,0.08,1.04-0.07,1.62c-0.9,3.41-6.06,10.88-13.13,15.46" class="grey" /><path d="M48.77,24.33c2.57,1.92,6.65,7.9,7.29,10.88" class="grey" /><path d="M74.02,21.08c5.04,2.23,13.03,9.17,14.29,12.63" class="grey" /><path d="M30,42.25c2,0.25,3.7,0.66,6,0.5c14-1,27.75-3,41-3.75c3.24-0.18,4,1.75,3.5,4.25c-1.31,6.54-2,15-3,23" class="grey" /><path d="M15.25,56.5c2.42,0.25,4.31,0.73,6.98,0.5c23.37-2,50.77-4.5,69.3-5.25c2.96-0.12,5.37,0.5,6.71,0.75" class="grey" /><path d="M29.5,70.18c1.25,0.15,3.51,0.54,5,0.46c13.75-0.76,29.75-3.48,42.25-3.79c2-0.05,3.25,0,4.75,0.15" class="grey" /><path d="M53.08,43.33c0.67,0.92,1.91,3.01,1.98,6.06c0.31,14.66-0.2,38.55-0.2,43.55c0,10.56-6.92,0.2-7.8-0.75" class="grey" /><path d="M73.44,9.39c0.06,1.11-1.05,2.21-1.73,2.5c-3.71,1.61-17.5,5.24-39.65,8.07" class="stroke" stroke-dasharray="150"><animate attributeName="stroke-dashoffset" from="150" to="0" dur="1.8s" begin="0.0s" fill="freeze" /></path><path d="M32.27,26.14c0.04,0.4,0.08,1.04-0.07,1.62c-0.9,3.41-6.06,10.88-13.13,15.46" class="stroke" stroke-dasharray="150"><set attributeName="opacity" to="0" dur="1.1s" /><animate attributeName="stroke-dashoffset" from="150" to="0" dur="1.8s" begin="1.1s" fill="freeze" /></path><path d="M48.77,24.33c2.57,1.92,6.65,7.9,7.29,10.88" class="stroke" stroke-dasharray="150"><set attributeName="opacity" to="0" dur="2.1s" /><animate attributeName="stroke-dashoffset" from="150" to="0" dur="1.8s" begin="2.1s" fill="freeze" /></path><path d="M74.02,21.08c5.04,2.23,13.03,9.17,14.29,12.63" class="stroke" stroke-dasharray="150"><set attributeName="opacity" to="0" dur="3.0s" /><animate attributeName="stroke-dashoffset" from="150" to="0" dur="1.8s" begin="3.0s" fill="freeze" /></path><path d="M30,42.25c2,0.25,3.7,0.66,6,0.5c14-1,27.75-3,41-3.75c3.24-0.18,4,1.75,3.5,4.25c-1.31,6.54-2,15-3,23" class="stroke" stroke-dasharray="150"><set attributeName="opacity" to="0" dur="3.9s" /><animate attributeName="stroke-dashoffset" from="150" to="0" dur="1.8s" begin="3.9s" fill="freeze" /></path><path d="M15.25,56.5c2.42,0.25,4.31,0.73,6.98,0.5c23.37-2,50.77-4.5,69.3-5.25c2.96-0.12,5.37,0.5,6.71,0.75" class="stroke" stroke-dasharray="150"><set attributeName="opacity" to="0" dur="5.6s" /><animate attributeName="stroke-dashoffset" from="150" to="0" dur="1.8s" begin="5.6s" fill="freeze" /></path><path d="M29.5,70.18c1.25,0.15,3.51,0.54,5,0.46c13.75-0.76,29.75-3.48,42.25-3.79c2-0.05,3.25,0,4.75,0.15" class="stroke" stroke-dasharray="150"><set attributeName="opacity" to="0" dur="7.3s" /><animate attributeName="stroke-dashoffset" from="150" to="0" dur="1.8s" begin="7.3s" fill="freeze" /></path><path d="M53.08,43.33c0.67,0.92,1.91,3.01,1.98,6.06c0.31,14.66-0.2,38.55-0.2,43.55c0,10.56-6.92,0.2-7.8-0.75" class="stroke" stroke-dasharray="150"><set attributeName="opacity" to="0" dur="8.6s" /><animate attributeName="stroke-dashoffset" from="150" to="0" dur="1.8s" begin="8.6s" fill="freeze" /></path><text x="90" y="120" id="reset-kvg-0722d">⟳</text><text x="70" y="120" id="pause-kvg-0722d">◼</text><script type="text/javascript"><![CDATA[function RecurringTimer(e,t){var n,r,i=t;this.pause=function(){window.clearTimeout(n);i-=new Date-r};var s=function(){r=new Date;n=window.setTimeout(function(){i=t;s();e()},i)};this.clear=function(){window.clearTimeout(n);i=t;n=window.setTimeout(function(){i=t;s();e()},i)};this.resume=s;this.resume()}function invoketimer(){timer=new RecurringTimer(function(){svg.setCurrentTime(0)},11100.0)}var svg=document.getElementById("kvg-0722d");var pause=document.getElementById("pause-kvg-0722d");var reset=document.getElementById("reset-kvg-0722d");var timer;invoketimer();reset.onclick=function(){svg.setCurrentTime(0);timer.clear();svg.unpauseAnimations();pause.innerHTML = "◼";};pause.onclick=function(){if(svg.animationsPaused()){svg.unpauseAnimations();timer.resume();pause.innerHTML="◼"}else{svg.pauseAnimations();timer.pause();pause.innerHTML="▶"}}]]></script></svg>