<svg id="kvg-072fc" class="kanjivg" width="106" height="126" xmlns="http://www.w3.org/2000/svg" xmlns:xlink="http://www.w3.org/1999/xlink" xml:space="preserve" version="1.1" baseProfile="full"><defs><style type="text/css"><![CDATA[path.black{fill:none;stroke:black;stroke-width:5;stroke-linecap:round;stroke-linejoin:round;}path.grey{fill:none;stroke:#ddd;stroke-width:5;stroke-linecap:round;stroke-linejoin:round;}path.stroke{fill:none;stroke:black;stroke-width:5;stroke-linecap:round;stroke-linejoin:round;}rect{fill:none;stroke:#555;stroke-width:2;} text{font-size:16px;font-family:Segoe UI Symbol,Cambria Math,DejaVu Sans,Symbola,Quivira,STIX,Code2000;-webkit-touch-callout:none;cursor:pointer;-webkit-user-select:none;-khtml-user-select:none;-moz-user-select:none;-ms-user-select:none;user-select: none;}text:hover{color:#777;}#reset{font-weight:bold;}]]></style><marker id="markerStart" markerWidth="8" markerHeight="8" style="overflow:visible;"><circle cx="0" cy="0" r="1.5" style="stroke:none;fill:red;fill-opacity:0.5;"/></marker><marker id="markerEnd" style="overflow:visible;"><circle cx="0" cy="0" r="0.8" style="stroke:none;fill:blue;fill-opacity:0.5;"><animate attributeName="opacity" from="1" to="0" dur="3s" repeatCount="indefinite" /></circle></marker></defs><rect x="4" y="4" width="100" height="100" /><path d="M36.31,15c0.06,0.63,0.27,1.85-0.12,2.53C31.2,26.23,26.13,32.39,14,41.79" class="grey" /><path d="M18,21c28.75,24,15.75,81.5,5,69.5" class="grey" /><path d="M29.83,43c0.05,0.66,0.22,1.94-0.1,2.65c-4.1,9.1-8.27,15.54-18.23,25.39" class="grey" /><path d="M61.25,12.75c1.17,0.59,1.87,1.47,2.1,2.64c0.23,1.17,0.23,6.86,0.23,9.8" class="grey" /><path d="M49.32,27.81c2.3-0.11,27.14-3.69,29.23-3.82c1.74-0.11,2.75,1.25,2.73,1.93c-0.12,4.83-3.04,19.83-4.01,24.63" class="grey" /><path d="M49.98,40.44c5.77-0.54,23.04-2.67,28.59-3.1" class="grey" /><path d="M49.59,53.42c7.91-0.87,21.29-2.12,29.88-2.95" class="grey" /><path d="M47.01,25.73c1.31,0.53,2.09,2.39,2.35,3.45c0.26,1.06,0.26,57.87,0.26,60.52c0,3.05-0.18,5.34,2.99,3.23C57.75,89.5,58.75,89,67,84" class="grey" /><path d="M86.17,52.05c0.33,1.43,0.53,2-0.57,3.15c-2.14,2.23-8.59,7.4-11.52,9.41" class="grey" /><path d="M57.88,54.23c5.78,3.93,21.02,22.28,29.8,28.97c4.68,3.57,7.06,4.51,9.63,5.19" class="grey" /><path d="M36.31,15c0.06,0.63,0.27,1.85-0.12,2.53C31.2,26.23,26.13,32.39,14,41.79" class="stroke" stroke-dasharray="150"><animate attributeName="stroke-dashoffset" from="150" to="0" dur="1.8s" begin="0.0s" fill="freeze" /></path><path d="M18,21c28.75,24,15.75,81.5,5,69.5" class="stroke" stroke-dasharray="150"><set attributeName="opacity" to="0" dur="1.0s" /><animate attributeName="stroke-dashoffset" from="150" to="0" dur="1.8s" begin="1.0s" fill="freeze" /></path><path d="M29.83,43c0.05,0.66,0.22,1.94-0.1,2.65c-4.1,9.1-8.27,15.54-18.23,25.39" class="stroke" stroke-dasharray="150"><set attributeName="opacity" to="0" dur="2.7s" /><animate attributeName="stroke-dashoffset" from="150" to="0" dur="1.8s" begin="2.7s" fill="freeze" /></path><path d="M61.25,12.75c1.17,0.59,1.87,1.47,2.1,2.64c0.23,1.17,0.23,6.86,0.23,9.8" class="stroke" stroke-dasharray="150"><set attributeName="opacity" to="0" dur="3.7s" /><animate attributeName="stroke-dashoffset" from="150" to="0" dur="1.8s" begin="3.7s" fill="freeze" /></path><path d="M49.32,27.81c2.3-0.11,27.14-3.69,29.23-3.82c1.74-0.11,2.75,1.25,2.73,1.93c-0.12,4.83-3.04,19.83-4.01,24.63" class="stroke" stroke-dasharray="150"><set attributeName="opacity" to="0" dur="4.6000000000000005s" /><animate attributeName="stroke-dashoffset" from="150" to="0" dur="1.8s" begin="4.6000000000000005s" fill="freeze" /></path><path d="M49.98,40.44c5.77-0.54,23.04-2.67,28.59-3.1" class="stroke" stroke-dasharray="150"><set attributeName="opacity" to="0" dur="6.0s" /><animate attributeName="stroke-dashoffset" from="150" to="0" dur="1.8s" begin="6.0s" fill="freeze" /></path><path d="M49.59,53.42c7.91-0.87,21.29-2.12,29.88-2.95" class="stroke" stroke-dasharray="150"><set attributeName="opacity" to="0" dur="7.0s" /><animate attributeName="stroke-dashoffset" from="150" to="0" dur="1.8s" begin="7.0s" fill="freeze" /></path><path d="M47.01,25.73c1.31,0.53,2.09,2.39,2.35,3.45c0.26,1.06,0.26,57.87,0.26,60.52c0,3.05-0.18,5.34,2.99,3.23C57.75,89.5,58.75,89,67,84" class="stroke" stroke-dasharray="150"><set attributeName="opacity" to="0" dur="8.0s" /><animate attributeName="stroke-dashoffset" from="150" to="0" dur="1.8s" begin="8.0s" fill="freeze" /></path><path d="M86.17,52.05c0.33,1.43,0.53,2-0.57,3.15c-2.14,2.23-8.59,7.4-11.52,9.41" class="stroke" stroke-dasharray="150"><set attributeName="opacity" to="0" dur="9.7s" /><animate attributeName="stroke-dashoffset" from="150" to="0" dur="1.8s" begin="9.7s" fill="freeze" /></path><path d="M57.88,54.23c5.78,3.93,21.02,22.28,29.8,28.97c4.68,3.57,7.06,4.51,9.63,5.19" class="stroke" stroke-dasharray="150"><set attributeName="opacity" to="0" dur="10.6s" /><animate attributeName="stroke-dashoffset" from="150" to="0" dur="1.8s" begin="10.6s" fill="freeze" /></path><text x="90" y="120" id="reset-kvg-072fc">⟳</text><text x="70" y="120" id="pause-kvg-072fc">◼</text><script type="text/javascript"><![CDATA[function RecurringTimer(e,t){var n,r,i=t;this.pause=function(){window.clearTimeout(n);i-=new Date-r};var s=function(){r=new Date;n=window.setTimeout(function(){i=t;s();e()},i)};this.clear=function(){window.clearTimeout(n);i=t;n=window.setTimeout(function(){i=t;s();e()},i)};this.resume=s;this.resume()}function invoketimer(){timer=new RecurringTimer(function(){svg.setCurrentTime(0)},12900.0)}var svg=document.getElementById("kvg-072fc");var pause=document.getElementById("pause-kvg-072fc");var reset=document.getElementById("reset-kvg-072fc");var timer;invoketimer();reset.onclick=function(){svg.setCurrentTime(0);timer.clear();svg.unpauseAnimations();pause.innerHTML = "◼";};pause.onclick=function(){if(svg.animationsPaused()){svg.unpauseAnimations();timer.resume();pause.innerHTML="◼"}else{svg.pauseAnimations();timer.pause();pause.innerHTML="▶"}}]]></script></svg>