<svg id="kvg-072f9" class="kanjivg" width="106" height="126" xmlns="http://www.w3.org/2000/svg" xmlns:xlink="http://www.w3.org/1999/xlink" xml:space="preserve" version="1.1" baseProfile="full"><defs><style type="text/css"><![CDATA[path.black{fill:none;stroke:black;stroke-width:5;stroke-linecap:round;stroke-linejoin:round;}path.grey{fill:none;stroke:#ddd;stroke-width:5;stroke-linecap:round;stroke-linejoin:round;}path.stroke{fill:none;stroke:black;stroke-width:5;stroke-linecap:round;stroke-linejoin:round;}rect{fill:none;stroke:#555;stroke-width:2;} text{font-size:16px;font-family:Segoe UI Symbol,Cambria Math,DejaVu Sans,Symbola,Quivira,STIX,Code2000;-webkit-touch-callout:none;cursor:pointer;-webkit-user-select:none;-khtml-user-select:none;-moz-user-select:none;-ms-user-select:none;user-select: none;}text:hover{color:#777;}#reset{font-weight:bold;}]]></style><marker id="markerStart" markerWidth="8" markerHeight="8" style="overflow:visible;"><circle cx="0" cy="0" r="1.5" style="stroke:none;fill:red;fill-opacity:0.5;"/></marker><marker id="markerEnd" style="overflow:visible;"><circle cx="0" cy="0" r="0.8" style="stroke:none;fill:blue;fill-opacity:0.5;"><animate attributeName="opacity" from="1" to="0" dur="3s" repeatCount="indefinite" /></circle></marker></defs><rect x="4" y="4" width="100" height="100" /><path d="M37.05,16.5c0.07,0.57,0.31,1.68-0.14,2.3c-5.66,7.89-11.41,13.46-25.16,21.99" class="grey" /><path d="M17.5,17.75c28.25,23.5,17.46,85.03,5.75,72" class="grey" /><path d="M31.33,44c0.05,0.61,0.23,1.8-0.1,2.46c-4.21,8.46-8.49,14.43-18.73,23.58" class="grey" /><path d="M41.25,30.15c1.18,0.28,3.35,0.35,4.53,0.28c7.53-0.48,36.28-3.52,43.58-3.2c1.96,0.09,3.15,0.13,4.14,0.27" class="grey" /><path d="M51.01,38.74c0,0.56,0.04,1.03-0.07,1.69c-1.04,6.11-4.15,13.7-8.72,20.45" class="grey" /><path d="M50.39,49.71c2.84,1.5,6.48,5.5,7.86,9.29" class="grey" /><path d="M83.27,36.74c0,0.5,0.07,0.92-0.07,1.49c-1.27,4.86-4.9,13.5-9.22,18.4" class="grey" /><path d="M81.14,47.46c4.7,2.79,8.3,6.29,11.11,10.54" class="grey" /><path d="M65.34,13.25c0.44,1.13,1.15,2.43,1.15,4.86c0,45.19-1.47,62.29-28.74,77.39" class="grey" /><path d="M66.25,57.5c5.72,10.21,18.31,28.33,26.07,34.2c2.17,1.65,2.75,2.12,3.68,2.3" class="grey" /><path d="M37.05,16.5c0.07,0.57,0.31,1.68-0.14,2.3c-5.66,7.89-11.41,13.46-25.16,21.99" class="stroke" stroke-dasharray="150"><animate attributeName="stroke-dashoffset" from="150" to="0" dur="1.8s" begin="0.0s" fill="freeze" /></path><path d="M17.5,17.75c28.25,23.5,17.46,85.03,5.75,72" class="stroke" stroke-dasharray="150"><set attributeName="opacity" to="0" dur="1.0s" /><animate attributeName="stroke-dashoffset" from="150" to="0" dur="1.8s" begin="1.0s" fill="freeze" /></path><path d="M31.33,44c0.05,0.61,0.23,1.8-0.1,2.46c-4.21,8.46-8.49,14.43-18.73,23.58" class="stroke" stroke-dasharray="150"><set attributeName="opacity" to="0" dur="2.7s" /><animate attributeName="stroke-dashoffset" from="150" to="0" dur="1.8s" begin="2.7s" fill="freeze" /></path><path d="M41.25,30.15c1.18,0.28,3.35,0.35,4.53,0.28c7.53-0.48,36.28-3.52,43.58-3.2c1.96,0.09,3.15,0.13,4.14,0.27" class="stroke" stroke-dasharray="150"><set attributeName="opacity" to="0" dur="3.7s" /><animate attributeName="stroke-dashoffset" from="150" to="0" dur="1.8s" begin="3.7s" fill="freeze" /></path><path d="M51.01,38.74c0,0.56,0.04,1.03-0.07,1.69c-1.04,6.11-4.15,13.7-8.72,20.45" class="stroke" stroke-dasharray="150"><set attributeName="opacity" to="0" dur="5.0s" /><animate attributeName="stroke-dashoffset" from="150" to="0" dur="1.8s" begin="5.0s" fill="freeze" /></path><path d="M50.39,49.71c2.84,1.5,6.48,5.5,7.86,9.29" class="stroke" stroke-dasharray="150"><set attributeName="opacity" to="0" dur="6.0s" /><animate attributeName="stroke-dashoffset" from="150" to="0" dur="1.8s" begin="6.0s" fill="freeze" /></path><path d="M83.27,36.74c0,0.5,0.07,0.92-0.07,1.49c-1.27,4.86-4.9,13.5-9.22,18.4" class="stroke" stroke-dasharray="150"><set attributeName="opacity" to="0" dur="6.9s" /><animate attributeName="stroke-dashoffset" from="150" to="0" dur="1.8s" begin="6.9s" fill="freeze" /></path><path d="M81.14,47.46c4.7,2.79,8.3,6.29,11.11,10.54" class="stroke" stroke-dasharray="150"><set attributeName="opacity" to="0" dur="7.9s" /><animate attributeName="stroke-dashoffset" from="150" to="0" dur="1.8s" begin="7.9s" fill="freeze" /></path><path d="M65.34,13.25c0.44,1.13,1.15,2.43,1.15,4.86c0,45.19-1.47,62.29-28.74,77.39" class="stroke" stroke-dasharray="150"><set attributeName="opacity" to="0" dur="8.8s" /><animate attributeName="stroke-dashoffset" from="150" to="0" dur="1.8s" begin="8.8s" fill="freeze" /></path><path d="M66.25,57.5c5.72,10.21,18.31,28.33,26.07,34.2c2.17,1.65,2.75,2.12,3.68,2.3" class="stroke" stroke-dasharray="150"><set attributeName="opacity" to="0" dur="10.600000000000001s" /><animate attributeName="stroke-dashoffset" from="150" to="0" dur="1.8s" begin="10.600000000000001s" fill="freeze" /></path><text x="90" y="120" id="reset-kvg-072f9">⟳</text><text x="70" y="120" id="pause-kvg-072f9">◼</text><script type="text/javascript"><![CDATA[function RecurringTimer(e,t){var n,r,i=t;this.pause=function(){window.clearTimeout(n);i-=new Date-r};var s=function(){r=new Date;n=window.setTimeout(function(){i=t;s();e()},i)};this.clear=function(){window.clearTimeout(n);i=t;n=window.setTimeout(function(){i=t;s();e()},i)};this.resume=s;this.resume()}function invoketimer(){timer=new RecurringTimer(function(){svg.setCurrentTime(0)},12800.0)}var svg=document.getElementById("kvg-072f9");var pause=document.getElementById("pause-kvg-072f9");var reset=document.getElementById("reset-kvg-072f9");var timer;invoketimer();reset.onclick=function(){svg.setCurrentTime(0);timer.clear();svg.unpauseAnimations();pause.innerHTML = "◼";};pause.onclick=function(){if(svg.animationsPaused()){svg.unpauseAnimations();timer.resume();pause.innerHTML="◼"}else{svg.pauseAnimations();timer.pause();pause.innerHTML="▶"}}]]></script></svg>