<svg id="kvg-07316-Kaisho" class="kanjivg" width="106" height="126" xmlns="http://www.w3.org/2000/svg" xmlns:xlink="http://www.w3.org/1999/xlink" xml:space="preserve" version="1.1" baseProfile="full"><defs><style type="text/css"><![CDATA[path.black{fill:none;stroke:black;stroke-width:5;stroke-linecap:round;stroke-linejoin:round;}path.grey{fill:none;stroke:#ddd;stroke-width:5;stroke-linecap:round;stroke-linejoin:round;}path.stroke{fill:none;stroke:black;stroke-width:5;stroke-linecap:round;stroke-linejoin:round;}rect{fill:none;stroke:#555;stroke-width:2;} text{font-size:16px;font-family:Segoe UI Symbol,Cambria Math,DejaVu Sans,Symbola,Quivira,STIX,Code2000;-webkit-touch-callout:none;cursor:pointer;-webkit-user-select:none;-khtml-user-select:none;-moz-user-select:none;-ms-user-select:none;user-select: none;}text:hover{color:#777;}#reset{font-weight:bold;}]]></style><marker id="markerStart" markerWidth="8" markerHeight="8" style="overflow:visible;"><circle cx="0" cy="0" r="1.5" style="stroke:none;fill:red;fill-opacity:0.5;"/></marker><marker id="markerEnd" style="overflow:visible;"><circle cx="0" cy="0" r="0.8" style="stroke:none;fill:blue;fill-opacity:0.5;"><animate attributeName="opacity" from="1" to="0" dur="3s" repeatCount="indefinite" /></circle></marker></defs><rect x="4" y="4" width="100" height="100" /><path d="M38.04,16.25c0.07,0.61,0.33,1.8-0.15,2.46C31.84,27.17,25.7,33.15,11,42.29" class="grey" /><path d="M18,18.75c30.25,24.25,17.96,84.03,6.25,71" class="grey" /><path d="M31.33,43c0.05,0.69,0.24,2.02-0.11,2.77c-4.38,9.51-8.83,16.24-19.47,26.52" class="grey" /><path d="M49.77,21.13c0.39,0.64,1.28,1.88,1.28,2.73c0,0.85,3.37,23.79,3.5,24.64" class="grey" /><path d="M51.69,22.16c2.2-0.11,34.41-3.04,36.42-3.17c1.67-0.11,3.39,1.62,3.11,3.19C90.24,27.8,90,35.82,86.84,46.22" class="grey" /><path d="M53.08,34.15c6.3-0.53,12.6-0.97,18.91-1.44c1.87-0.14,3.72-0.28,5.48-0.41" class="grey" /><path d="M54.44,46.11c6.06-0.46,25.31-1.68,32.85-2.07" class="grey" /><path d="M48.52,60.41c0.52,0.75,0.92,1.61,1.05,2.63c0.3,2.42,3.8,28.57,3.8,29.08c0,0.51,0.17,1.96,0.35,2.98" class="grey" /><path d="M50.44,61.44c2.95-0.22,38.29-3.86,40.98-4.1c2.24-0.2,3.59,1.41,3.59,3.79c0,6.11-3.87,23.12-5.28,30.85" class="grey" /><path d="M51.91,75.8c7.26-0.83,14.55-1.46,21.83-2.11c2.14-0.19,4.24-0.37,6.24-0.54" class="grey" /><path d="M54,90.76c8.14-0.82,26.17-1.89,36.31-2.7" class="grey" /><path d="M38.04,16.25c0.07,0.61,0.33,1.8-0.15,2.46C31.84,27.17,25.7,33.15,11,42.29" class="stroke" stroke-dasharray="150"><animate attributeName="stroke-dashoffset" from="150" to="0" dur="1.8s" begin="0.0s" fill="freeze" /></path><path d="M18,18.75c30.25,24.25,17.96,84.03,6.25,71" class="stroke" stroke-dasharray="150"><set attributeName="opacity" to="0" dur="1.0s" /><animate attributeName="stroke-dashoffset" from="150" to="0" dur="1.8s" begin="1.0s" fill="freeze" /></path><path d="M31.33,43c0.05,0.69,0.24,2.02-0.11,2.77c-4.38,9.51-8.83,16.24-19.47,26.52" class="stroke" stroke-dasharray="150"><set attributeName="opacity" to="0" dur="2.7s" /><animate attributeName="stroke-dashoffset" from="150" to="0" dur="1.8s" begin="2.7s" fill="freeze" /></path><path d="M49.77,21.13c0.39,0.64,1.28,1.88,1.28,2.73c0,0.85,3.37,23.79,3.5,24.64" class="stroke" stroke-dasharray="150"><set attributeName="opacity" to="0" dur="3.7s" /><animate attributeName="stroke-dashoffset" from="150" to="0" dur="1.8s" begin="3.7s" fill="freeze" /></path><path d="M51.69,22.16c2.2-0.11,34.41-3.04,36.42-3.17c1.67-0.11,3.39,1.62,3.11,3.19C90.24,27.8,90,35.82,86.84,46.22" class="stroke" stroke-dasharray="150"><set attributeName="opacity" to="0" dur="4.7s" /><animate attributeName="stroke-dashoffset" from="150" to="0" dur="1.8s" begin="4.7s" fill="freeze" /></path><path d="M53.08,34.15c6.3-0.53,12.6-0.97,18.91-1.44c1.87-0.14,3.72-0.28,5.48-0.41" class="stroke" stroke-dasharray="150"><set attributeName="opacity" to="0" dur="6.2s" /><animate attributeName="stroke-dashoffset" from="150" to="0" dur="1.8s" begin="6.2s" fill="freeze" /></path><path d="M54.44,46.11c6.06-0.46,25.31-1.68,32.85-2.07" class="stroke" stroke-dasharray="150"><set attributeName="opacity" to="0" dur="7.2s" /><animate attributeName="stroke-dashoffset" from="150" to="0" dur="1.8s" begin="7.2s" fill="freeze" /></path><path d="M48.52,60.41c0.52,0.75,0.92,1.61,1.05,2.63c0.3,2.42,3.8,28.57,3.8,29.08c0,0.51,0.17,1.96,0.35,2.98" class="stroke" stroke-dasharray="150"><set attributeName="opacity" to="0" dur="8.2s" /><animate attributeName="stroke-dashoffset" from="150" to="0" dur="1.8s" begin="8.2s" fill="freeze" /></path><path d="M50.44,61.44c2.95-0.22,38.29-3.86,40.98-4.1c2.24-0.2,3.59,1.41,3.59,3.79c0,6.11-3.87,23.12-5.28,30.85" class="stroke" stroke-dasharray="150"><set attributeName="opacity" to="0" dur="9.2s" /><animate attributeName="stroke-dashoffset" from="150" to="0" dur="1.8s" begin="9.2s" fill="freeze" /></path><path d="M51.91,75.8c7.26-0.83,14.55-1.46,21.83-2.11c2.14-0.19,4.24-0.37,6.24-0.54" class="stroke" stroke-dasharray="150"><set attributeName="opacity" to="0" dur="10.899999999999999s" /><animate attributeName="stroke-dashoffset" from="150" to="0" dur="1.8s" begin="10.899999999999999s" fill="freeze" /></path><path d="M54,90.76c8.14-0.82,26.17-1.89,36.31-2.7" class="stroke" stroke-dasharray="150"><set attributeName="opacity" to="0" dur="11.899999999999999s" /><animate attributeName="stroke-dashoffset" from="150" to="0" dur="1.8s" begin="11.899999999999999s" fill="freeze" /></path><text x="90" y="120" id="reset-kvg-07316-Kaisho">⟳</text><text x="70" y="120" id="pause-kvg-07316-Kaisho">◼</text><script type="text/javascript"><![CDATA[function RecurringTimer(e,t){var n,r,i=t;this.pause=function(){window.clearTimeout(n);i-=new Date-r};var s=function(){r=new Date;n=window.setTimeout(function(){i=t;s();e()},i)};this.clear=function(){window.clearTimeout(n);i=t;n=window.setTimeout(function(){i=t;s();e()},i)};this.resume=s;this.resume()}function invoketimer(){timer=new RecurringTimer(function(){svg.setCurrentTime(0)},13899.999999999998)}var svg=document.getElementById("kvg-07316-Kaisho");var pause=document.getElementById("pause-kvg-07316-Kaisho");var reset=document.getElementById("reset-kvg-07316-Kaisho");var timer;invoketimer();reset.onclick=function(){svg.setCurrentTime(0);timer.clear();svg.unpauseAnimations();pause.innerHTML = "◼";};pause.onclick=function(){if(svg.animationsPaused()){svg.unpauseAnimations();timer.resume();pause.innerHTML="◼"}else{svg.pauseAnimations();timer.pause();pause.innerHTML="▶"}}]]></script></svg>