<svg id="kvg-0731b" class="kanjivg" width="106" height="126" xmlns="http://www.w3.org/2000/svg" xmlns:xlink="http://www.w3.org/1999/xlink" xml:space="preserve" version="1.1" baseProfile="full"><defs><style type="text/css"><![CDATA[path.black{fill:none;stroke:black;stroke-width:5;stroke-linecap:round;stroke-linejoin:round;}path.grey{fill:none;stroke:#ddd;stroke-width:5;stroke-linecap:round;stroke-linejoin:round;}path.stroke{fill:none;stroke:black;stroke-width:5;stroke-linecap:round;stroke-linejoin:round;}rect{fill:none;stroke:#555;stroke-width:2;} text{font-size:16px;font-family:Segoe UI Symbol,Cambria Math,DejaVu Sans,Symbola,Quivira,STIX,Code2000;-webkit-touch-callout:none;cursor:pointer;-webkit-user-select:none;-khtml-user-select:none;-moz-user-select:none;-ms-user-select:none;user-select: none;}text:hover{color:#777;}#reset{font-weight:bold;}]]></style><marker id="markerStart" markerWidth="8" markerHeight="8" style="overflow:visible;"><circle cx="0" cy="0" r="1.5" style="stroke:none;fill:red;fill-opacity:0.5;"/></marker><marker id="markerEnd" style="overflow:visible;"><circle cx="0" cy="0" r="0.8" style="stroke:none;fill:blue;fill-opacity:0.5;"><animate attributeName="opacity" from="1" to="0" dur="3s" repeatCount="indefinite" /></circle></marker></defs><rect x="4" y="4" width="100" height="100" /><path d="M37.8,18c0.13,1.07-0.47,2-1.11,2.78c-5.06,6.17-12.53,12.82-22.94,19.52" class="grey" /><path d="M17.5,17.75c31,21.75,17.71,84.03,6,71" class="grey" /><path d="M31.09,46c0.09,1.25,0.06,2.16-0.47,3.3c-3.67,7.99-7.77,13.4-16.62,22.24" class="grey" /><path d="M50.84,18.15c2.06,1.05,4.96,1.11,7.21,0.74c5.21-0.87,15.83-2.85,19.24-3.46c2.67-0.48,4.69,1,2.26,3.2C76.5,21.38,73.68,23.97,66.25,30" class="grey" /><path d="M62.78,29.51c7.35,4.24,8.82,17.99,7.13,25.77c-1.14,5.23-4.03,7.62-8.32,2" class="grey" /><path d="M42.05,42.25c3.2,0.75,6.45,0.73,10.08,0.01c9-1.76,25.66-3.65,34.24-4.07c2.56-0.12,5.63,0.05,8.14,0.84" class="grey" /><path d="M47.62,67.75c0.82,0.82,1.19,2.11,1.3,2.97c0.87,6.82,1.08,11.16,1.68,18.2" class="grey" /><path d="M49.33,69.64c8.09-1.23,28.59-3.56,36.04-4.03c3.41-0.22,4.91,0.33,4.24,4.06c-0.79,4.42-2.55,11.78-3.76,17.02" class="grey" /><path d="M60.38,70.52c0.74,0.74,0.93,1.64,1.01,2.46c0.48,4.9,0.79,9.16,1.3,14.87" class="grey" /><path d="M74.07,69c0.4,0.78,0.52,1.86,0.46,2.86c-0.28,4.89-0.78,9.76-1.27,15.45" class="grey" /><path d="M39.89,89.87c3.86,0.88,6.79,0.56,9.74,0.3c12-1.05,25.53-1.85,40.88-2.46c2.82-0.11,5.12,0.04,7.86,0.72" class="grey" /><path d="M37.8,18c0.13,1.07-0.47,2-1.11,2.78c-5.06,6.17-12.53,12.82-22.94,19.52" class="stroke" stroke-dasharray="150"><animate attributeName="stroke-dashoffset" from="150" to="0" dur="1.8s" begin="0.0s" fill="freeze" /></path><path d="M17.5,17.75c31,21.75,17.71,84.03,6,71" class="stroke" stroke-dasharray="150"><set attributeName="opacity" to="0" dur="1.0s" /><animate attributeName="stroke-dashoffset" from="150" to="0" dur="1.8s" begin="1.0s" fill="freeze" /></path><path d="M31.09,46c0.09,1.25,0.06,2.16-0.47,3.3c-3.67,7.99-7.77,13.4-16.62,22.24" class="stroke" stroke-dasharray="150"><set attributeName="opacity" to="0" dur="2.7s" /><animate attributeName="stroke-dashoffset" from="150" to="0" dur="1.8s" begin="2.7s" fill="freeze" /></path><path d="M50.84,18.15c2.06,1.05,4.96,1.11,7.21,0.74c5.21-0.87,15.83-2.85,19.24-3.46c2.67-0.48,4.69,1,2.26,3.2C76.5,21.38,73.68,23.97,66.25,30" class="stroke" stroke-dasharray="150"><set attributeName="opacity" to="0" dur="3.7s" /><animate attributeName="stroke-dashoffset" from="150" to="0" dur="1.8s" begin="3.7s" fill="freeze" /></path><path d="M62.78,29.51c7.35,4.24,8.82,17.99,7.13,25.77c-1.14,5.23-4.03,7.62-8.32,2" class="stroke" stroke-dasharray="150"><set attributeName="opacity" to="0" dur="5.0s" /><animate attributeName="stroke-dashoffset" from="150" to="0" dur="1.8s" begin="5.0s" fill="freeze" /></path><path d="M42.05,42.25c3.2,0.75,6.45,0.73,10.08,0.01c9-1.76,25.66-3.65,34.24-4.07c2.56-0.12,5.63,0.05,8.14,0.84" class="stroke" stroke-dasharray="150"><set attributeName="opacity" to="0" dur="6.1s" /><animate attributeName="stroke-dashoffset" from="150" to="0" dur="1.8s" begin="6.1s" fill="freeze" /></path><path d="M47.62,67.75c0.82,0.82,1.19,2.11,1.3,2.97c0.87,6.82,1.08,11.16,1.68,18.2" class="stroke" stroke-dasharray="150"><set attributeName="opacity" to="0" dur="7.3999999999999995s" /><animate attributeName="stroke-dashoffset" from="150" to="0" dur="1.8s" begin="7.3999999999999995s" fill="freeze" /></path><path d="M49.33,69.64c8.09-1.23,28.59-3.56,36.04-4.03c3.41-0.22,4.91,0.33,4.24,4.06c-0.79,4.42-2.55,11.78-3.76,17.02" class="stroke" stroke-dasharray="150"><set attributeName="opacity" to="0" dur="8.399999999999999s" /><animate attributeName="stroke-dashoffset" from="150" to="0" dur="1.8s" begin="8.399999999999999s" fill="freeze" /></path><path d="M60.38,70.52c0.74,0.74,0.93,1.64,1.01,2.46c0.48,4.9,0.79,9.16,1.3,14.87" class="stroke" stroke-dasharray="150"><set attributeName="opacity" to="0" dur="9.899999999999999s" /><animate attributeName="stroke-dashoffset" from="150" to="0" dur="1.8s" begin="9.899999999999999s" fill="freeze" /></path><path d="M74.07,69c0.4,0.78,0.52,1.86,0.46,2.86c-0.28,4.89-0.78,9.76-1.27,15.45" class="stroke" stroke-dasharray="150"><set attributeName="opacity" to="0" dur="10.799999999999999s" /><animate attributeName="stroke-dashoffset" from="150" to="0" dur="1.8s" begin="10.799999999999999s" fill="freeze" /></path><path d="M39.89,89.87c3.86,0.88,6.79,0.56,9.74,0.3c12-1.05,25.53-1.85,40.88-2.46c2.82-0.11,5.12,0.04,7.86,0.72" class="stroke" stroke-dasharray="150"><set attributeName="opacity" to="0" dur="11.7s" /><animate attributeName="stroke-dashoffset" from="150" to="0" dur="1.8s" begin="11.7s" fill="freeze" /></path><text x="90" y="120" id="reset-kvg-0731b">⟳</text><text x="70" y="120" id="pause-kvg-0731b">◼</text><script type="text/javascript"><![CDATA[function RecurringTimer(e,t){var n,r,i=t;this.pause=function(){window.clearTimeout(n);i-=new Date-r};var s=function(){r=new Date;n=window.setTimeout(function(){i=t;s();e()},i)};this.clear=function(){window.clearTimeout(n);i=t;n=window.setTimeout(function(){i=t;s();e()},i)};this.resume=s;this.resume()}function invoketimer(){timer=new RecurringTimer(function(){svg.setCurrentTime(0)},14100.0)}var svg=document.getElementById("kvg-0731b");var pause=document.getElementById("pause-kvg-0731b");var reset=document.getElementById("reset-kvg-0731b");var timer;invoketimer();reset.onclick=function(){svg.setCurrentTime(0);timer.clear();svg.unpauseAnimations();pause.innerHTML = "◼";};pause.onclick=function(){if(svg.animationsPaused()){svg.unpauseAnimations();timer.resume();pause.innerHTML="◼"}else{svg.pauseAnimations();timer.pause();pause.innerHTML="▶"}}]]></script></svg>