<svg id="kvg-07357" class="kanjivg" width="106" height="126" xmlns="http://www.w3.org/2000/svg" xmlns:xlink="http://www.w3.org/1999/xlink" xml:space="preserve" version="1.1" baseProfile="full"><defs><style type="text/css"><![CDATA[path.black{fill:none;stroke:black;stroke-width:5;stroke-linecap:round;stroke-linejoin:round;}path.grey{fill:none;stroke:#ddd;stroke-width:5;stroke-linecap:round;stroke-linejoin:round;}path.stroke{fill:none;stroke:black;stroke-width:5;stroke-linecap:round;stroke-linejoin:round;}rect{fill:none;stroke:#555;stroke-width:2;} text{font-size:16px;font-family:Segoe UI Symbol,Cambria Math,DejaVu Sans,Symbola,Quivira,STIX,Code2000;-webkit-touch-callout:none;cursor:pointer;-webkit-user-select:none;-khtml-user-select:none;-moz-user-select:none;-ms-user-select:none;user-select: none;}text:hover{color:#777;}#reset{font-weight:bold;}]]></style><marker id="markerStart" markerWidth="8" markerHeight="8" style="overflow:visible;"><circle cx="0" cy="0" r="1.5" style="stroke:none;fill:red;fill-opacity:0.5;"/></marker><marker id="markerEnd" style="overflow:visible;"><circle cx="0" cy="0" r="0.8" style="stroke:none;fill:blue;fill-opacity:0.5;"><animate attributeName="opacity" from="1" to="0" dur="3s" repeatCount="indefinite" /></circle></marker></defs><rect x="4" y="4" width="100" height="100" /><path d="M31.56,15.25c0.06,0.63,0.27,1.85-0.12,2.54c-4.94,8.7-9.95,14.85-21.94,24.26" class="grey" /><path d="M12.5,17.75c28.25,23.5,15.96,85.03,4.25,72" class="grey" /><path d="M25.35,46c0.04,0.59,0.19,1.73-0.08,2.37c-3.49,8.13-7.04,13.88-15.51,22.67" class="grey" /><path d="M39.95,17.57c1.41,0.66,3.98,0.77,5.39,0.66c14.63-1.11,30.13-2.41,44.32-3.28c2.34-0.14,3.75,0.32,4.92,0.65" class="grey" /><path d="M42.45,18.63c0.37,1.47,0.38,1.86,0.31,4.27c-0.5,19.23-0.01,54.1-10.2,70.18" class="grey" /><path d="M49.65,28.43c1.87,1.93,4.82,7.95,5.29,10.95" class="grey" /><path d="M67.23,23.91c0.02,0.36,0.04,0.93-0.03,1.45c-0.41,3.06-2.75,9.77-5.96,13.88" class="grey" /><path d="M47.11,44.87c0.61,0.3,1.72,0.33,2.33,0.3c4.96-0.21,15.96-3.68,19.72-3.33c1.01,0.09,1.62,0.14,2.13,0.29" class="grey" /><path d="M49.31,53.58c0.49,0.35,1.04,1.85,0.98,2.56c-0.37,4.23-1.64,10.23-1.76,14.28c-0.05,1.62-0.22,2.57,0.97,2.17c6.61-2.23,11-3,18.01-4.27" class="grey" /><path d="M68.38,52.21c0.49,0.35,1.04,2.64,0.98,3.35c-0.54,6.45-0.23,9.64-1.05,16.25" class="grey" /><path d="M58.42,46.59c0.46,1.3,0.71,2.89,0.71,4.51c0,16.98-0.37,31.91-13.34,43.13" class="grey" /><path d="M81.32,24.77c0.02,0.65,0.04,1.68-0.04,2.62c-0.47,5.52-3.18,17.62-6.88,25.04" class="grey" /><path d="M81.87,40.15c0.56,0.3,1.6,0.66,2.47,0.51c3.9-0.66,10.88-2.57,11.86-2.58c3.39-0.05-0.58,5.79-3.58,9.76" class="grey" /><path d="M80.82,50.53c0.68,1.22,0.78,2.12,0.67,3.58c-0.74,10.63-5.74,28.63-18.61,40.38" class="grey" /><path d="M80.68,64.41c2.4,5.57,10.8,22.27,15.11,28.22c0.91,1.25,1.6,2,2.46,2.4" class="grey" /><path d="M31.56,15.25c0.06,0.63,0.27,1.85-0.12,2.54c-4.94,8.7-9.95,14.85-21.94,24.26" class="stroke" stroke-dasharray="150"><animate attributeName="stroke-dashoffset" from="150" to="0" dur="1.8s" begin="0.0s" fill="freeze" /></path><path d="M12.5,17.75c28.25,23.5,15.96,85.03,4.25,72" class="stroke" stroke-dasharray="150"><set attributeName="opacity" to="0" dur="1.0s" /><animate attributeName="stroke-dashoffset" from="150" to="0" dur="1.8s" begin="1.0s" fill="freeze" /></path><path d="M25.35,46c0.04,0.59,0.19,1.73-0.08,2.37c-3.49,8.13-7.04,13.88-15.51,22.67" class="stroke" stroke-dasharray="150"><set attributeName="opacity" to="0" dur="2.7s" /><animate attributeName="stroke-dashoffset" from="150" to="0" dur="1.8s" begin="2.7s" fill="freeze" /></path><path d="M39.95,17.57c1.41,0.66,3.98,0.77,5.39,0.66c14.63-1.11,30.13-2.41,44.32-3.28c2.34-0.14,3.75,0.32,4.92,0.65" class="stroke" stroke-dasharray="150"><set attributeName="opacity" to="0" dur="3.7s" /><animate attributeName="stroke-dashoffset" from="150" to="0" dur="1.8s" begin="3.7s" fill="freeze" /></path><path d="M42.45,18.63c0.37,1.47,0.38,1.86,0.31,4.27c-0.5,19.23-0.01,54.1-10.2,70.18" class="stroke" stroke-dasharray="150"><set attributeName="opacity" to="0" dur="5.0s" /><animate attributeName="stroke-dashoffset" from="150" to="0" dur="1.8s" begin="5.0s" fill="freeze" /></path><path d="M49.65,28.43c1.87,1.93,4.82,7.95,5.29,10.95" class="stroke" stroke-dasharray="150"><set attributeName="opacity" to="0" dur="6.7s" /><animate attributeName="stroke-dashoffset" from="150" to="0" dur="1.8s" begin="6.7s" fill="freeze" /></path><path d="M67.23,23.91c0.02,0.36,0.04,0.93-0.03,1.45c-0.41,3.06-2.75,9.77-5.96,13.88" class="stroke" stroke-dasharray="150"><set attributeName="opacity" to="0" dur="7.6000000000000005s" /><animate attributeName="stroke-dashoffset" from="150" to="0" dur="1.8s" begin="7.6000000000000005s" fill="freeze" /></path><path d="M47.11,44.87c0.61,0.3,1.72,0.33,2.33,0.3c4.96-0.21,15.96-3.68,19.72-3.33c1.01,0.09,1.62,0.14,2.13,0.29" class="stroke" stroke-dasharray="150"><set attributeName="opacity" to="0" dur="8.5s" /><animate attributeName="stroke-dashoffset" from="150" to="0" dur="1.8s" begin="8.5s" fill="freeze" /></path><path d="M49.31,53.58c0.49,0.35,1.04,1.85,0.98,2.56c-0.37,4.23-1.64,10.23-1.76,14.28c-0.05,1.62-0.22,2.57,0.97,2.17c6.61-2.23,11-3,18.01-4.27" class="stroke" stroke-dasharray="150"><set attributeName="opacity" to="0" dur="9.5s" /><animate attributeName="stroke-dashoffset" from="150" to="0" dur="1.8s" begin="9.5s" fill="freeze" /></path><path d="M68.38,52.21c0.49,0.35,1.04,2.64,0.98,3.35c-0.54,6.45-0.23,9.64-1.05,16.25" class="stroke" stroke-dasharray="150"><set attributeName="opacity" to="0" dur="10.5s" /><animate attributeName="stroke-dashoffset" from="150" to="0" dur="1.8s" begin="10.5s" fill="freeze" /></path><path d="M58.42,46.59c0.46,1.3,0.71,2.89,0.71,4.51c0,16.98-0.37,31.91-13.34,43.13" class="stroke" stroke-dasharray="150"><set attributeName="opacity" to="0" dur="11.4s" /><animate attributeName="stroke-dashoffset" from="150" to="0" dur="1.8s" begin="11.4s" fill="freeze" /></path><path d="M81.32,24.77c0.02,0.65,0.04,1.68-0.04,2.62c-0.47,5.52-3.18,17.62-6.88,25.04" class="stroke" stroke-dasharray="150"><set attributeName="opacity" to="0" dur="12.700000000000001s" /><animate attributeName="stroke-dashoffset" from="150" to="0" dur="1.8s" begin="12.700000000000001s" fill="freeze" /></path><path d="M81.87,40.15c0.56,0.3,1.6,0.66,2.47,0.51c3.9-0.66,10.88-2.57,11.86-2.58c3.39-0.05-0.58,5.79-3.58,9.76" class="stroke" stroke-dasharray="150"><set attributeName="opacity" to="0" dur="13.700000000000001s" /><animate attributeName="stroke-dashoffset" from="150" to="0" dur="1.8s" begin="13.700000000000001s" fill="freeze" /></path><path d="M80.82,50.53c0.68,1.22,0.78,2.12,0.67,3.58c-0.74,10.63-5.74,28.63-18.61,40.38" class="stroke" stroke-dasharray="150"><set attributeName="opacity" to="0" dur="14.700000000000001s" /><animate attributeName="stroke-dashoffset" from="150" to="0" dur="1.8s" begin="14.700000000000001s" fill="freeze" /></path><path d="M80.68,64.41c2.4,5.57,10.8,22.27,15.11,28.22c0.91,1.25,1.6,2,2.46,2.4" class="stroke" stroke-dasharray="150"><set attributeName="opacity" to="0" dur="15.9s" /><animate attributeName="stroke-dashoffset" from="150" to="0" dur="1.8s" begin="15.9s" fill="freeze" /></path><text x="90" y="120" id="reset-kvg-07357">⟳</text><text x="70" y="120" id="pause-kvg-07357">◼</text><script type="text/javascript"><![CDATA[function RecurringTimer(e,t){var n,r,i=t;this.pause=function(){window.clearTimeout(n);i-=new Date-r};var s=function(){r=new Date;n=window.setTimeout(function(){i=t;s();e()},i)};this.clear=function(){window.clearTimeout(n);i=t;n=window.setTimeout(function(){i=t;s();e()},i)};this.resume=s;this.resume()}function invoketimer(){timer=new RecurringTimer(function(){svg.setCurrentTime(0)},17900.0)}var svg=document.getElementById("kvg-07357");var pause=document.getElementById("pause-kvg-07357");var reset=document.getElementById("reset-kvg-07357");var timer;invoketimer();reset.onclick=function(){svg.setCurrentTime(0);timer.clear();svg.unpauseAnimations();pause.innerHTML = "◼";};pause.onclick=function(){if(svg.animationsPaused()){svg.unpauseAnimations();timer.resume();pause.innerHTML="◼"}else{svg.pauseAnimations();timer.pause();pause.innerHTML="▶"}}]]></script></svg>