<svg id="kvg-07422-VtLst" class="kanjivg" width="106" height="126" xmlns="http://www.w3.org/2000/svg" xmlns:xlink="http://www.w3.org/1999/xlink" xml:space="preserve" version="1.1" baseProfile="full"><defs><style type="text/css"><![CDATA[path.black{fill:none;stroke:black;stroke-width:5;stroke-linecap:round;stroke-linejoin:round;}path.grey{fill:none;stroke:#ddd;stroke-width:5;stroke-linecap:round;stroke-linejoin:round;}path.stroke{fill:none;stroke:black;stroke-width:5;stroke-linecap:round;stroke-linejoin:round;}rect{fill:none;stroke:#555;stroke-width:2;} text{font-size:16px;font-family:Segoe UI Symbol,Cambria Math,DejaVu Sans,Symbola,Quivira,STIX,Code2000;-webkit-touch-callout:none;cursor:pointer;-webkit-user-select:none;-khtml-user-select:none;-moz-user-select:none;-ms-user-select:none;user-select: none;}text:hover{color:#777;}#reset{font-weight:bold;}]]></style><marker id="markerStart" markerWidth="8" markerHeight="8" style="overflow:visible;"><circle cx="0" cy="0" r="1.5" style="stroke:none;fill:red;fill-opacity:0.5;"/></marker><marker id="markerEnd" style="overflow:visible;"><circle cx="0" cy="0" r="0.8" style="stroke:none;fill:blue;fill-opacity:0.5;"><animate attributeName="opacity" from="1" to="0" dur="3s" repeatCount="indefinite" /></circle></marker></defs><rect x="4" y="4" width="100" height="100" /><path d="M11.75,26.47c0.53,0.33,3.4,0.4,3.94,0.3c2.49-0.44,12.13-1.85,18.11-2.33c0.82-0.07,2.33-0.23,3.01,0.04" class="grey" /><path d="M12.47,52.12c0.47,0.36,3.76,0.41,4.23,0.33c2.74-0.47,13.07-2.88,16.87-3.39c0.58-0.08,1.71-0.15,2.59,0.17" class="grey" /><path d="M10.86,80.32c1.1,1.15,2.97,1.65,3.74,1.15c4.95-3.17,12.47-8.36,20.02-13.84" class="grey" /><path d="M23.95,28.48c0.74,0.78,1.25,2.46,1.25,3.08c0,5.27,0.04,39.04-0.1,42.53" class="grey" /><path d="M43.58,23.28c0.96,0.54,2.73,0.66,3.69,0.54c6.9-0.85,29.11-4.05,39.96-4.28c1.6-0.03,2.57,0.26,3.37,0.53" class="grey" /><path d="M65.6,23.49c0.06,0.52,0.27,1.41-0.12,2.09c-2.67,4.63-11.21,13.65-21.4,19.96" class="grey" /><path d="M59.68,35.43c9.54,8.54,16.42,33.7,8.8,55.37c-3.08,8.74-7.02,1.06-7.93,0.06" class="grey" /><path d="M62.34,42.79c0.06,0.57,0.14,1.48-0.13,2.3c-1.58,4.86-10.62,15.52-23,22.05" class="grey" /><path d="M67.03,56.08c0.08,0.7,0.17,1.82-0.16,2.83c-1.9,5.97-12.82,19.06-27.75,27.08" class="grey" /><path d="M86.89,34.73c0.04,0.41,0.09,1.05-0.09,1.64c-1.09,3.45-7.38,11.03-15.97,15.67" class="grey" /><path d="M70.09,52.04c3.73,4.14,20.1,23.71,24.15,27.78c1.38,1.38,2.55,1.97,3.93,2.36" class="grey" /><path d="M11.75,26.47c0.53,0.33,3.4,0.4,3.94,0.3c2.49-0.44,12.13-1.85,18.11-2.33c0.82-0.07,2.33-0.23,3.01,0.04" class="stroke" stroke-dasharray="150"><animate attributeName="stroke-dashoffset" from="150" to="0" dur="1.8s" begin="0.0s" fill="freeze" /></path><path d="M12.47,52.12c0.47,0.36,3.76,0.41,4.23,0.33c2.74-0.47,13.07-2.88,16.87-3.39c0.58-0.08,1.71-0.15,2.59,0.17" class="stroke" stroke-dasharray="150"><set attributeName="opacity" to="0" dur="1.0s" /><animate attributeName="stroke-dashoffset" from="150" to="0" dur="1.8s" begin="1.0s" fill="freeze" /></path><path d="M10.86,80.32c1.1,1.15,2.97,1.65,3.74,1.15c4.95-3.17,12.47-8.36,20.02-13.84" class="stroke" stroke-dasharray="150"><set attributeName="opacity" to="0" dur="2.0s" /><animate attributeName="stroke-dashoffset" from="150" to="0" dur="1.8s" begin="2.0s" fill="freeze" /></path><path d="M23.95,28.48c0.74,0.78,1.25,2.46,1.25,3.08c0,5.27,0.04,39.04-0.1,42.53" class="stroke" stroke-dasharray="150"><set attributeName="opacity" to="0" dur="3.0s" /><animate attributeName="stroke-dashoffset" from="150" to="0" dur="1.8s" begin="3.0s" fill="freeze" /></path><path d="M43.58,23.28c0.96,0.54,2.73,0.66,3.69,0.54c6.9-0.85,29.11-4.05,39.96-4.28c1.6-0.03,2.57,0.26,3.37,0.53" class="stroke" stroke-dasharray="150"><set attributeName="opacity" to="0" dur="4.2s" /><animate attributeName="stroke-dashoffset" from="150" to="0" dur="1.8s" begin="4.2s" fill="freeze" /></path><path d="M65.6,23.49c0.06,0.52,0.27,1.41-0.12,2.09c-2.67,4.63-11.21,13.65-21.4,19.96" class="stroke" stroke-dasharray="150"><set attributeName="opacity" to="0" dur="5.4s" /><animate attributeName="stroke-dashoffset" from="150" to="0" dur="1.8s" begin="5.4s" fill="freeze" /></path><path d="M59.68,35.43c9.54,8.54,16.42,33.7,8.8,55.37c-3.08,8.74-7.02,1.06-7.93,0.06" class="stroke" stroke-dasharray="150"><set attributeName="opacity" to="0" dur="6.4s" /><animate attributeName="stroke-dashoffset" from="150" to="0" dur="1.8s" begin="6.4s" fill="freeze" /></path><path d="M62.34,42.79c0.06,0.57,0.14,1.48-0.13,2.3c-1.58,4.86-10.62,15.52-23,22.05" class="stroke" stroke-dasharray="150"><set attributeName="opacity" to="0" dur="8.1s" /><animate attributeName="stroke-dashoffset" from="150" to="0" dur="1.8s" begin="8.1s" fill="freeze" /></path><path d="M67.03,56.08c0.08,0.7,0.17,1.82-0.16,2.83c-1.9,5.97-12.82,19.06-27.75,27.08" class="stroke" stroke-dasharray="150"><set attributeName="opacity" to="0" dur="9.1s" /><animate attributeName="stroke-dashoffset" from="150" to="0" dur="1.8s" begin="9.1s" fill="freeze" /></path><path d="M86.89,34.73c0.04,0.41,0.09,1.05-0.09,1.64c-1.09,3.45-7.38,11.03-15.97,15.67" class="stroke" stroke-dasharray="150"><set attributeName="opacity" to="0" dur="10.2s" /><animate attributeName="stroke-dashoffset" from="150" to="0" dur="1.8s" begin="10.2s" fill="freeze" /></path><path d="M70.09,52.04c3.73,4.14,20.1,23.71,24.15,27.78c1.38,1.38,2.55,1.97,3.93,2.36" class="stroke" stroke-dasharray="150"><set attributeName="opacity" to="0" dur="11.2s" /><animate attributeName="stroke-dashoffset" from="150" to="0" dur="1.8s" begin="11.2s" fill="freeze" /></path><text x="90" y="120" id="reset-kvg-07422-VtLst">⟳</text><text x="70" y="120" id="pause-kvg-07422-VtLst">◼</text><script type="text/javascript"><![CDATA[function RecurringTimer(e,t){var n,r,i=t;this.pause=function(){window.clearTimeout(n);i-=new Date-r};var s=function(){r=new Date;n=window.setTimeout(function(){i=t;s();e()},i)};this.clear=function(){window.clearTimeout(n);i=t;n=window.setTimeout(function(){i=t;s();e()},i)};this.resume=s;this.resume()}function invoketimer(){timer=new RecurringTimer(function(){svg.setCurrentTime(0)},13299.999999999998)}var svg=document.getElementById("kvg-07422-VtLst");var pause=document.getElementById("pause-kvg-07422-VtLst");var reset=document.getElementById("reset-kvg-07422-VtLst");var timer;invoketimer();reset.onclick=function(){svg.setCurrentTime(0);timer.clear();svg.unpauseAnimations();pause.innerHTML = "◼";};pause.onclick=function(){if(svg.animationsPaused()){svg.unpauseAnimations();timer.resume();pause.innerHTML="◼"}else{svg.pauseAnimations();timer.pause();pause.innerHTML="▶"}}]]></script></svg>