<svg id="kvg-07433-KaishoVtLst" class="kanjivg" width="106" height="126" xmlns="http://www.w3.org/2000/svg" xmlns:xlink="http://www.w3.org/1999/xlink" xml:space="preserve" version="1.1" baseProfile="full"><defs><style type="text/css"><![CDATA[path.black{fill:none;stroke:black;stroke-width:5;stroke-linecap:round;stroke-linejoin:round;}path.grey{fill:none;stroke:#ddd;stroke-width:5;stroke-linecap:round;stroke-linejoin:round;}path.stroke{fill:none;stroke:black;stroke-width:5;stroke-linecap:round;stroke-linejoin:round;}rect{fill:none;stroke:#555;stroke-width:2;} text{font-size:16px;font-family:Segoe UI Symbol,Cambria Math,DejaVu Sans,Symbola,Quivira,STIX,Code2000;-webkit-touch-callout:none;cursor:pointer;-webkit-user-select:none;-khtml-user-select:none;-moz-user-select:none;-ms-user-select:none;user-select: none;}text:hover{color:#777;}#reset{font-weight:bold;}]]></style><marker id="markerStart" markerWidth="8" markerHeight="8" style="overflow:visible;"><circle cx="0" cy="0" r="1.5" style="stroke:none;fill:red;fill-opacity:0.5;"/></marker><marker id="markerEnd" style="overflow:visible;"><circle cx="0" cy="0" r="0.8" style="stroke:none;fill:blue;fill-opacity:0.5;"><animate attributeName="opacity" from="1" to="0" dur="3s" repeatCount="indefinite" /></circle></marker></defs><rect x="4" y="4" width="100" height="100" /><path d="M9.86,26.89c0.59,0.35,3.77,0.41,4.37,0.33C17.5,26.75,26.25,25,32.86,24.2c0.9-0.11,2.58-0.25,3.33,0.04" class="grey" /><path d="M10.16,52.35c0.52,0.38,3.66,0.44,4.19,0.35c3.04-0.51,14.88-3.02,19.09-3.57c0.65-0.08,1.51-0.16,2.48,0.18" class="grey" /><path d="M11.49,83.39c1.11,1.1,2.97,1.57,3.75,1.1c4.96-3.02,12.5-7.95,20.06-13.16" class="grey" /><path d="M22.89,29.05c0.82,0.84,1.39,2.64,1.39,3.32c0,5.67,0.05,42.52-0.11,46.28" class="grey" /><path d="M37.5,39.94c0.58,0.28,2.34,0.24,3.88,0c5.44-0.84,11.85-2.81,17.67-3.38c1.55-0.15,2.72-0.28,3.69,0" class="grey" /><path d="M49.25,15.75c1.25,0.5,2,2.25,2.25,3.25s-0.25,71.23-0.25,72.5c0,10.5-5.38,1.88-6.25,1" class="grey" /><path d="M51.5,39.75c-2.64,11.56-10.51,30.95-16,37.5" class="grey" /><path d="M53.5,50c3.31,2.11,6.86,6.32,8.75,10" class="grey" /><path d="M67.5,36.64c0.39,0.17,1.24,0.27,2.27,0.17c3.66-0.34,13.48-1.55,20.63-2.41c1.04-0.12,1.94-0.17,2.59,0" class="grey" /><path d="M75.5,14.25c1.25,0.5,2,2.25,2.25,3.25s-0.25,65.75-0.25,72c0,10.5-4.25,2.75-5.5,1.5" class="grey" /><path d="M77.5,39.25c-2.76,13.26-11.35,31.71-17.75,38.5" class="grey" /><path d="M78,38.5c4.92,13.42,12.78,30.64,16.77,35.94c1.14,1.51,1.77,2.55,2.73,3.06" class="grey" /><path d="M9.86,26.89c0.59,0.35,3.77,0.41,4.37,0.33C17.5,26.75,26.25,25,32.86,24.2c0.9-0.11,2.58-0.25,3.33,0.04" class="stroke" stroke-dasharray="150"><animate attributeName="stroke-dashoffset" from="150" to="0" dur="1.8s" begin="0.0s" fill="freeze" /></path><path d="M10.16,52.35c0.52,0.38,3.66,0.44,4.19,0.35c3.04-0.51,14.88-3.02,19.09-3.57c0.65-0.08,1.51-0.16,2.48,0.18" class="stroke" stroke-dasharray="150"><set attributeName="opacity" to="0" dur="1.0s" /><animate attributeName="stroke-dashoffset" from="150" to="0" dur="1.8s" begin="1.0s" fill="freeze" /></path><path d="M11.49,83.39c1.11,1.1,2.97,1.57,3.75,1.1c4.96-3.02,12.5-7.95,20.06-13.16" class="stroke" stroke-dasharray="150"><set attributeName="opacity" to="0" dur="2.0s" /><animate attributeName="stroke-dashoffset" from="150" to="0" dur="1.8s" begin="2.0s" fill="freeze" /></path><path d="M22.89,29.05c0.82,0.84,1.39,2.64,1.39,3.32c0,5.67,0.05,42.52-0.11,46.28" class="stroke" stroke-dasharray="150"><set attributeName="opacity" to="0" dur="3.0s" /><animate attributeName="stroke-dashoffset" from="150" to="0" dur="1.8s" begin="3.0s" fill="freeze" /></path><path d="M37.5,39.94c0.58,0.28,2.34,0.24,3.88,0c5.44-0.84,11.85-2.81,17.67-3.38c1.55-0.15,2.72-0.28,3.69,0" class="stroke" stroke-dasharray="150"><set attributeName="opacity" to="0" dur="4.2s" /><animate attributeName="stroke-dashoffset" from="150" to="0" dur="1.8s" begin="4.2s" fill="freeze" /></path><path d="M49.25,15.75c1.25,0.5,2,2.25,2.25,3.25s-0.25,71.23-0.25,72.5c0,10.5-5.38,1.88-6.25,1" class="stroke" stroke-dasharray="150"><set attributeName="opacity" to="0" dur="5.2s" /><animate attributeName="stroke-dashoffset" from="150" to="0" dur="1.8s" begin="5.2s" fill="freeze" /></path><path d="M51.5,39.75c-2.64,11.56-10.51,30.95-16,37.5" class="stroke" stroke-dasharray="150"><set attributeName="opacity" to="0" dur="6.9s" /><animate attributeName="stroke-dashoffset" from="150" to="0" dur="1.8s" begin="6.9s" fill="freeze" /></path><path d="M53.5,50c3.31,2.11,6.86,6.32,8.75,10" class="stroke" stroke-dasharray="150"><set attributeName="opacity" to="0" dur="8.0s" /><animate attributeName="stroke-dashoffset" from="150" to="0" dur="1.8s" begin="8.0s" fill="freeze" /></path><path d="M67.5,36.64c0.39,0.17,1.24,0.27,2.27,0.17c3.66-0.34,13.48-1.55,20.63-2.41c1.04-0.12,1.94-0.17,2.59,0" class="stroke" stroke-dasharray="150"><set attributeName="opacity" to="0" dur="8.9s" /><animate attributeName="stroke-dashoffset" from="150" to="0" dur="1.8s" begin="8.9s" fill="freeze" /></path><path d="M75.5,14.25c1.25,0.5,2,2.25,2.25,3.25s-0.25,65.75-0.25,72c0,10.5-4.25,2.75-5.5,1.5" class="stroke" stroke-dasharray="150"><set attributeName="opacity" to="0" dur="9.9s" /><animate attributeName="stroke-dashoffset" from="150" to="0" dur="1.8s" begin="9.9s" fill="freeze" /></path><path d="M77.5,39.25c-2.76,13.26-11.35,31.71-17.75,38.5" class="stroke" stroke-dasharray="150"><set attributeName="opacity" to="0" dur="11.6s" /><animate attributeName="stroke-dashoffset" from="150" to="0" dur="1.8s" begin="11.6s" fill="freeze" /></path><path d="M78,38.5c4.92,13.42,12.78,30.64,16.77,35.94c1.14,1.51,1.77,2.55,2.73,3.06" class="stroke" stroke-dasharray="150"><set attributeName="opacity" to="0" dur="12.7s" /><animate attributeName="stroke-dashoffset" from="150" to="0" dur="1.8s" begin="12.7s" fill="freeze" /></path><text x="90" y="120" id="reset-kvg-07433-KaishoVtLst">⟳</text><text x="70" y="120" id="pause-kvg-07433-KaishoVtLst">◼</text><script type="text/javascript"><![CDATA[function RecurringTimer(e,t){var n,r,i=t;this.pause=function(){window.clearTimeout(n);i-=new Date-r};var s=function(){r=new Date;n=window.setTimeout(function(){i=t;s();e()},i)};this.clear=function(){window.clearTimeout(n);i=t;n=window.setTimeout(function(){i=t;s();e()},i)};this.resume=s;this.resume()}function invoketimer(){timer=new RecurringTimer(function(){svg.setCurrentTime(0)},14799.999999999998)}var svg=document.getElementById("kvg-07433-KaishoVtLst");var pause=document.getElementById("pause-kvg-07433-KaishoVtLst");var reset=document.getElementById("reset-kvg-07433-KaishoVtLst");var timer;invoketimer();reset.onclick=function(){svg.setCurrentTime(0);timer.clear();svg.unpauseAnimations();pause.innerHTML = "◼";};pause.onclick=function(){if(svg.animationsPaused()){svg.unpauseAnimations();timer.resume();pause.innerHTML="◼"}else{svg.pauseAnimations();timer.pause();pause.innerHTML="▶"}}]]></script></svg>