<svg id="kvg-07460-Kaisho" class="kanjivg" width="106" height="126" xmlns="http://www.w3.org/2000/svg" xmlns:xlink="http://www.w3.org/1999/xlink" xml:space="preserve" version="1.1" baseProfile="full"><defs><style type="text/css"><![CDATA[path.black{fill:none;stroke:black;stroke-width:5;stroke-linecap:round;stroke-linejoin:round;}path.grey{fill:none;stroke:#ddd;stroke-width:5;stroke-linecap:round;stroke-linejoin:round;}path.stroke{fill:none;stroke:black;stroke-width:5;stroke-linecap:round;stroke-linejoin:round;}rect{fill:none;stroke:#555;stroke-width:2;} text{font-size:16px;font-family:Segoe UI Symbol,Cambria Math,DejaVu Sans,Symbola,Quivira,STIX,Code2000;-webkit-touch-callout:none;cursor:pointer;-webkit-user-select:none;-khtml-user-select:none;-moz-user-select:none;-ms-user-select:none;user-select: none;}text:hover{color:#777;}#reset{font-weight:bold;}]]></style><marker id="markerStart" markerWidth="8" markerHeight="8" style="overflow:visible;"><circle cx="0" cy="0" r="1.5" style="stroke:none;fill:red;fill-opacity:0.5;"/></marker><marker id="markerEnd" style="overflow:visible;"><circle cx="0" cy="0" r="0.8" style="stroke:none;fill:blue;fill-opacity:0.5;"><animate attributeName="opacity" from="1" to="0" dur="3s" repeatCount="indefinite" /></circle></marker></defs><rect x="4" y="4" width="100" height="100" /><path d="M10.85,23.5c0.59,0.37,3.81,0.45,4.41,0.34c2.79-0.5,14.13-2.08,20.83-2.62c0.91-0.07,2.61-0.26,3.36,0.04" class="grey" /><path d="M25.3,24.77c0.93,0.88,1.58,2.78,1.58,3.48c0,5.95,0.05,46.62-0.13,50.57" class="grey" /><path d="M11.77,50.51c0.52,0.51,4.2,0.58,4.73,0.47c3.06-0.67,13.49-2.67,17.74-3.4c0.65-0.11,3.03-0.21,4.01,0.24" class="grey" /><path d="M12.5,83.93c1.23,1.06,3.3,1.52,4.16,1.06c5.5-2.92,13.86-7.7,22.25-12.74" class="grey" /><path d="M59.35,10.94c0.03,0.35,0.14,1.02-0.07,1.41c-2.56,4.97-6.34,9.53-13,13.54" class="grey" /><path d="M44.12,26.35c0.55,0.4,0.88,1.79,0.99,2.59c0.11,0.8,0.23,19.97,0.11,21.95c-0.11,1.79-0.99,5.18,0.33,3.78c1.32-1.39,12.09-11.41,16.99-14.69" class="grey" /><path d="M57.38,28.87c4.15,3.63,6.8,9,8.39,14.28" class="grey" /><path d="M67.62,20.99c0.96,0.41,2.66,0.36,3.5,0.22c6.83-1.14,18.41-3.34,22.19-3.76c2.46-0.27,3.08,2.36,2.94,4.27c-0.36,5.04-4.5,22.59-7.86,28.38c-2.43,4.21-3.85,2.86-5.69,0.13" class="grey" /><path d="M79.44,23.75c0.04,0.67,0.14,1.75-0.09,2.67c-2.56,10.1-4.85,17.33-15.51,27.21" class="grey" /><path d="M48.86,63.47c0.29,0.61,0.29,1.01,0.45,1.76C50.6,71.37,51.9,86.69,52.66,98" class="grey" /><path d="M49.87,64.9c11.6-1.52,30.14-4.07,37.76-4.67c2.8-0.22,4.23,0.97,4.08,4.16c-0.3,6.06-2.11,19.78-3.79,30.52" class="grey" /><path d="M69.14,62.79c0.56,0.56,1.03,1.7,1.02,3.18c-0.02,7.6,0.18,24.68,0.18,27.17" class="grey" /><path d="M52.19,79.19c8.42-0.75,16.84-1.68,25.26-2.48c1.01-0.1,2-0.19,2.94-0.28" class="grey" /><path d="M53.19,94.95c8.78-0.79,24.66-2.33,34.82-2.49" class="grey" /><path d="M10.85,23.5c0.59,0.37,3.81,0.45,4.41,0.34c2.79-0.5,14.13-2.08,20.83-2.62c0.91-0.07,2.61-0.26,3.36,0.04" class="stroke" stroke-dasharray="150"><animate attributeName="stroke-dashoffset" from="150" to="0" dur="1.8s" begin="0.0s" fill="freeze" /></path><path d="M25.3,24.77c0.93,0.88,1.58,2.78,1.58,3.48c0,5.95,0.05,46.62-0.13,50.57" class="stroke" stroke-dasharray="150"><set attributeName="opacity" to="0" dur="1.0s" /><animate attributeName="stroke-dashoffset" from="150" to="0" dur="1.8s" begin="1.0s" fill="freeze" /></path><path d="M11.77,50.51c0.52,0.51,4.2,0.58,4.73,0.47c3.06-0.67,13.49-2.67,17.74-3.4c0.65-0.11,3.03-0.21,4.01,0.24" class="stroke" stroke-dasharray="150"><set attributeName="opacity" to="0" dur="2.3s" /><animate attributeName="stroke-dashoffset" from="150" to="0" dur="1.8s" begin="2.3s" fill="freeze" /></path><path d="M12.5,83.93c1.23,1.06,3.3,1.52,4.16,1.06c5.5-2.92,13.86-7.7,22.25-12.74" class="stroke" stroke-dasharray="150"><set attributeName="opacity" to="0" dur="3.3s" /><animate attributeName="stroke-dashoffset" from="150" to="0" dur="1.8s" begin="3.3s" fill="freeze" /></path><path d="M59.35,10.94c0.03,0.35,0.14,1.02-0.07,1.41c-2.56,4.97-6.34,9.53-13,13.54" class="stroke" stroke-dasharray="150"><set attributeName="opacity" to="0" dur="4.3s" /><animate attributeName="stroke-dashoffset" from="150" to="0" dur="1.8s" begin="4.3s" fill="freeze" /></path><path d="M44.12,26.35c0.55,0.4,0.88,1.79,0.99,2.59c0.11,0.8,0.23,19.97,0.11,21.95c-0.11,1.79-0.99,5.18,0.33,3.78c1.32-1.39,12.09-11.41,16.99-14.69" class="stroke" stroke-dasharray="150"><set attributeName="opacity" to="0" dur="5.3s" /><animate attributeName="stroke-dashoffset" from="150" to="0" dur="1.8s" begin="5.3s" fill="freeze" /></path><path d="M57.38,28.87c4.15,3.63,6.8,9,8.39,14.28" class="stroke" stroke-dasharray="150"><set attributeName="opacity" to="0" dur="6.6s" /><animate attributeName="stroke-dashoffset" from="150" to="0" dur="1.8s" begin="6.6s" fill="freeze" /></path><path d="M67.62,20.99c0.96,0.41,2.66,0.36,3.5,0.22c6.83-1.14,18.41-3.34,22.19-3.76c2.46-0.27,3.08,2.36,2.94,4.27c-0.36,5.04-4.5,22.59-7.86,28.38c-2.43,4.21-3.85,2.86-5.69,0.13" class="stroke" stroke-dasharray="150"><set attributeName="opacity" to="0" dur="7.5s" /><animate attributeName="stroke-dashoffset" from="150" to="0" dur="1.8s" begin="7.5s" fill="freeze" /></path><path d="M79.44,23.75c0.04,0.67,0.14,1.75-0.09,2.67c-2.56,10.1-4.85,17.33-15.51,27.21" class="stroke" stroke-dasharray="150"><set attributeName="opacity" to="0" dur="9.0s" /><animate attributeName="stroke-dashoffset" from="150" to="0" dur="1.8s" begin="9.0s" fill="freeze" /></path><path d="M48.86,63.47c0.29,0.61,0.29,1.01,0.45,1.76C50.6,71.37,51.9,86.69,52.66,98" class="stroke" stroke-dasharray="150"><set attributeName="opacity" to="0" dur="10.0s" /><animate attributeName="stroke-dashoffset" from="150" to="0" dur="1.8s" begin="10.0s" fill="freeze" /></path><path d="M49.87,64.9c11.6-1.52,30.14-4.07,37.76-4.67c2.8-0.22,4.23,0.97,4.08,4.16c-0.3,6.06-2.11,19.78-3.79,30.52" class="stroke" stroke-dasharray="150"><set attributeName="opacity" to="0" dur="11.0s" /><animate attributeName="stroke-dashoffset" from="150" to="0" dur="1.8s" begin="11.0s" fill="freeze" /></path><path d="M69.14,62.79c0.56,0.56,1.03,1.7,1.02,3.18c-0.02,7.6,0.18,24.68,0.18,27.17" class="stroke" stroke-dasharray="150"><set attributeName="opacity" to="0" dur="12.7s" /><animate attributeName="stroke-dashoffset" from="150" to="0" dur="1.8s" begin="12.7s" fill="freeze" /></path><path d="M52.19,79.19c8.42-0.75,16.84-1.68,25.26-2.48c1.01-0.1,2-0.19,2.94-0.28" class="stroke" stroke-dasharray="150"><set attributeName="opacity" to="0" dur="13.7s" /><animate attributeName="stroke-dashoffset" from="150" to="0" dur="1.8s" begin="13.7s" fill="freeze" /></path><path d="M53.19,94.95c8.78-0.79,24.66-2.33,34.82-2.49" class="stroke" stroke-dasharray="150"><set attributeName="opacity" to="0" dur="14.7s" /><animate attributeName="stroke-dashoffset" from="150" to="0" dur="1.8s" begin="14.7s" fill="freeze" /></path><text x="90" y="120" id="reset-kvg-07460-Kaisho">⟳</text><text x="70" y="120" id="pause-kvg-07460-Kaisho">◼</text><script type="text/javascript"><![CDATA[function RecurringTimer(e,t){var n,r,i=t;this.pause=function(){window.clearTimeout(n);i-=new Date-r};var s=function(){r=new Date;n=window.setTimeout(function(){i=t;s();e()},i)};this.clear=function(){window.clearTimeout(n);i=t;n=window.setTimeout(function(){i=t;s();e()},i)};this.resume=s;this.resume()}function invoketimer(){timer=new RecurringTimer(function(){svg.setCurrentTime(0)},16700.0)}var svg=document.getElementById("kvg-07460-Kaisho");var pause=document.getElementById("pause-kvg-07460-Kaisho");var reset=document.getElementById("reset-kvg-07460-Kaisho");var timer;invoketimer();reset.onclick=function(){svg.setCurrentTime(0);timer.clear();svg.unpauseAnimations();pause.innerHTML = "◼";};pause.onclick=function(){if(svg.animationsPaused()){svg.unpauseAnimations();timer.resume();pause.innerHTML="◼"}else{svg.pauseAnimations();timer.pause();pause.innerHTML="▶"}}]]></script></svg>