<svg id="kvg-07476" class="kanjivg" width="106" height="126" xmlns="http://www.w3.org/2000/svg" xmlns:xlink="http://www.w3.org/1999/xlink" xml:space="preserve" version="1.1" baseProfile="full"><defs><style type="text/css"><![CDATA[path.black{fill:none;stroke:black;stroke-width:5;stroke-linecap:round;stroke-linejoin:round;}path.grey{fill:none;stroke:#ddd;stroke-width:5;stroke-linecap:round;stroke-linejoin:round;}path.stroke{fill:none;stroke:black;stroke-width:5;stroke-linecap:round;stroke-linejoin:round;}rect{fill:none;stroke:#555;stroke-width:2;} text{font-size:16px;font-family:Segoe UI Symbol,Cambria Math,DejaVu Sans,Symbola,Quivira,STIX,Code2000;-webkit-touch-callout:none;cursor:pointer;-webkit-user-select:none;-khtml-user-select:none;-moz-user-select:none;-ms-user-select:none;user-select: none;}text:hover{color:#777;}#reset{font-weight:bold;}]]></style><marker id="markerStart" markerWidth="8" markerHeight="8" style="overflow:visible;"><circle cx="0" cy="0" r="1.5" style="stroke:none;fill:red;fill-opacity:0.5;"/></marker><marker id="markerEnd" style="overflow:visible;"><circle cx="0" cy="0" r="0.8" style="stroke:none;fill:blue;fill-opacity:0.5;"><animate attributeName="opacity" from="1" to="0" dur="3s" repeatCount="indefinite" /></circle></marker></defs><rect x="4" y="4" width="100" height="100" /><path d="M11.25,21.24c2,0.64,4.28,0.38,5.88,0.17c4.05-0.55,14.19-1.47,20.5-2.03c1.57-0.14,3.61-0.5,5.12,0.15" class="grey" /><path d="M26.01,23.96c1.2,1.2,1.37,2.16,1.37,4.05c0,6.5,0,40.8,0,48.48" class="grey" /><path d="M12.25,49.75c2.25,0.75,5,0.38,6.62,0.12c5.55-0.88,12.68-1.78,16.9-2.27c1.87-0.22,3.89-0.36,5.72,0.26" class="grey" /><path d="M12,84.86c1.5,0.89,2.82,1.01,4.64-0.12C23.5,80.5,30.25,75.66,38,70.5" class="grey" /><path d="M88.96,11.14c-0.69,1.05-1.78,1.83-3.04,2.35c-6.42,2.63-16.42,5.63-36.03,9.33" class="grey" /><path d="M47.88,31.75c3.14,2.65,8.12,10.9,8.91,15.02" class="grey" /><path d="M63.75,28.25c3.25,2.61,8.4,10.72,9.21,14.78" class="grey" /><path d="M93.77,24.44c0.07,0.95-0.18,2.11-0.57,3c-2.2,4.94-4.87,10.54-11.13,17.29" class="grey" /><path d="M49.25,53.77c2.43,0.63,5.56,0.29,8,0.01c9.59-1.11,19.84-1.8,28.14-2.43c2.39-0.18,4.31-0.16,6.63,0.2" class="grey" /><path d="M45.15,71.34c3.1,0.79,5.42,0.71,8.11,0.36c12.24-1.57,24.99-2.45,36.62-3.13c2.73-0.16,5.53-0.07,8.22,0.54" class="grey" /><path d="M69.73,55.4c1.06,1.06,1.17,2.1,1.17,4.16c0,4.91,0.08,26.82,0.08,33.35" class="grey" /><path d="M50.85,80.83c0.91,0.91,0.97,2.25,0.85,2.91c-0.63,3.61-1.17,6.06-2.09,10.37c-0.49,2.28,0.13,2.97,2.29,2.51c8.63-1.83,28.22-3.88,38.08-4.15" class="grey" /><path d="M91.98,75.95c0.64,1.05,0.64,2.48,0.57,3.16c-0.44,3.88-0.86,8.77-1.21,12.78c-0.18,2.08-0.34,3.92-0.47,5.25" class="grey" /><path d="M11.25,21.24c2,0.64,4.28,0.38,5.88,0.17c4.05-0.55,14.19-1.47,20.5-2.03c1.57-0.14,3.61-0.5,5.12,0.15" class="stroke" stroke-dasharray="150"><animate attributeName="stroke-dashoffset" from="150" to="0" dur="1.8s" begin="0.0s" fill="freeze" /></path><path d="M26.01,23.96c1.2,1.2,1.37,2.16,1.37,4.05c0,6.5,0,40.8,0,48.48" class="stroke" stroke-dasharray="150"><set attributeName="opacity" to="0" dur="1.0s" /><animate attributeName="stroke-dashoffset" from="150" to="0" dur="1.8s" begin="1.0s" fill="freeze" /></path><path d="M12.25,49.75c2.25,0.75,5,0.38,6.62,0.12c5.55-0.88,12.68-1.78,16.9-2.27c1.87-0.22,3.89-0.36,5.72,0.26" class="stroke" stroke-dasharray="150"><set attributeName="opacity" to="0" dur="2.3s" /><animate attributeName="stroke-dashoffset" from="150" to="0" dur="1.8s" begin="2.3s" fill="freeze" /></path><path d="M12,84.86c1.5,0.89,2.82,1.01,4.64-0.12C23.5,80.5,30.25,75.66,38,70.5" class="stroke" stroke-dasharray="150"><set attributeName="opacity" to="0" dur="3.3s" /><animate attributeName="stroke-dashoffset" from="150" to="0" dur="1.8s" begin="3.3s" fill="freeze" /></path><path d="M88.96,11.14c-0.69,1.05-1.78,1.83-3.04,2.35c-6.42,2.63-16.42,5.63-36.03,9.33" class="stroke" stroke-dasharray="150"><set attributeName="opacity" to="0" dur="4.3s" /><animate attributeName="stroke-dashoffset" from="150" to="0" dur="1.8s" begin="4.3s" fill="freeze" /></path><path d="M47.88,31.75c3.14,2.65,8.12,10.9,8.91,15.02" class="stroke" stroke-dasharray="150"><set attributeName="opacity" to="0" dur="5.4s" /><animate attributeName="stroke-dashoffset" from="150" to="0" dur="1.8s" begin="5.4s" fill="freeze" /></path><path d="M63.75,28.25c3.25,2.61,8.4,10.72,9.21,14.78" class="stroke" stroke-dasharray="150"><set attributeName="opacity" to="0" dur="6.300000000000001s" /><animate attributeName="stroke-dashoffset" from="150" to="0" dur="1.8s" begin="6.300000000000001s" fill="freeze" /></path><path d="M93.77,24.44c0.07,0.95-0.18,2.11-0.57,3c-2.2,4.94-4.87,10.54-11.13,17.29" class="stroke" stroke-dasharray="150"><set attributeName="opacity" to="0" dur="7.200000000000001s" /><animate attributeName="stroke-dashoffset" from="150" to="0" dur="1.8s" begin="7.200000000000001s" fill="freeze" /></path><path d="M49.25,53.77c2.43,0.63,5.56,0.29,8,0.01c9.59-1.11,19.84-1.8,28.14-2.43c2.39-0.18,4.31-0.16,6.63,0.2" class="stroke" stroke-dasharray="150"><set attributeName="opacity" to="0" dur="8.200000000000001s" /><animate attributeName="stroke-dashoffset" from="150" to="0" dur="1.8s" begin="8.200000000000001s" fill="freeze" /></path><path d="M45.15,71.34c3.1,0.79,5.42,0.71,8.11,0.36c12.24-1.57,24.99-2.45,36.62-3.13c2.73-0.16,5.53-0.07,8.22,0.54" class="stroke" stroke-dasharray="150"><set attributeName="opacity" to="0" dur="9.3s" /><animate attributeName="stroke-dashoffset" from="150" to="0" dur="1.8s" begin="9.3s" fill="freeze" /></path><path d="M69.73,55.4c1.06,1.06,1.17,2.1,1.17,4.16c0,4.91,0.08,26.82,0.08,33.35" class="stroke" stroke-dasharray="150"><set attributeName="opacity" to="0" dur="10.600000000000001s" /><animate attributeName="stroke-dashoffset" from="150" to="0" dur="1.8s" begin="10.600000000000001s" fill="freeze" /></path><path d="M50.85,80.83c0.91,0.91,0.97,2.25,0.85,2.91c-0.63,3.61-1.17,6.06-2.09,10.37c-0.49,2.28,0.13,2.97,2.29,2.51c8.63-1.83,28.22-3.88,38.08-4.15" class="stroke" stroke-dasharray="150"><set attributeName="opacity" to="0" dur="11.600000000000001s" /><animate attributeName="stroke-dashoffset" from="150" to="0" dur="1.8s" begin="11.600000000000001s" fill="freeze" /></path><path d="M91.98,75.95c0.64,1.05,0.64,2.48,0.57,3.16c-0.44,3.88-0.86,8.77-1.21,12.78c-0.18,2.08-0.34,3.92-0.47,5.25" class="stroke" stroke-dasharray="150"><set attributeName="opacity" to="0" dur="13.000000000000002s" /><animate attributeName="stroke-dashoffset" from="150" to="0" dur="1.8s" begin="13.000000000000002s" fill="freeze" /></path><text x="90" y="120" id="reset-kvg-07476">⟳</text><text x="70" y="120" id="pause-kvg-07476">◼</text><script type="text/javascript"><![CDATA[function RecurringTimer(e,t){var n,r,i=t;this.pause=function(){window.clearTimeout(n);i-=new Date-r};var s=function(){r=new Date;n=window.setTimeout(function(){i=t;s();e()},i)};this.clear=function(){window.clearTimeout(n);i=t;n=window.setTimeout(function(){i=t;s();e()},i)};this.resume=s;this.resume()}function invoketimer(){timer=new RecurringTimer(function(){svg.setCurrentTime(0)},15000.000000000002)}var svg=document.getElementById("kvg-07476");var pause=document.getElementById("pause-kvg-07476");var reset=document.getElementById("reset-kvg-07476");var timer;invoketimer();reset.onclick=function(){svg.setCurrentTime(0);timer.clear();svg.unpauseAnimations();pause.innerHTML = "◼";};pause.onclick=function(){if(svg.animationsPaused()){svg.unpauseAnimations();timer.resume();pause.innerHTML="◼"}else{svg.pauseAnimations();timer.pause();pause.innerHTML="▶"}}]]></script></svg>