<svg id="kvg-074bd-VtLst" class="kanjivg" width="106" height="126" xmlns="http://www.w3.org/2000/svg" xmlns:xlink="http://www.w3.org/1999/xlink" xml:space="preserve" version="1.1" baseProfile="full"><defs><style type="text/css"><![CDATA[path.black{fill:none;stroke:black;stroke-width:5;stroke-linecap:round;stroke-linejoin:round;}path.grey{fill:none;stroke:#ddd;stroke-width:5;stroke-linecap:round;stroke-linejoin:round;}path.stroke{fill:none;stroke:black;stroke-width:5;stroke-linecap:round;stroke-linejoin:round;}rect{fill:none;stroke:#555;stroke-width:2;} text{font-size:16px;font-family:Segoe UI Symbol,Cambria Math,DejaVu Sans,Symbola,Quivira,STIX,Code2000;-webkit-touch-callout:none;cursor:pointer;-webkit-user-select:none;-khtml-user-select:none;-moz-user-select:none;-ms-user-select:none;user-select: none;}text:hover{color:#777;}#reset{font-weight:bold;}]]></style><marker id="markerStart" markerWidth="8" markerHeight="8" style="overflow:visible;"><circle cx="0" cy="0" r="1.5" style="stroke:none;fill:red;fill-opacity:0.5;"/></marker><marker id="markerEnd" style="overflow:visible;"><circle cx="0" cy="0" r="0.8" style="stroke:none;fill:blue;fill-opacity:0.5;"><animate attributeName="opacity" from="1" to="0" dur="3s" repeatCount="indefinite" /></circle></marker></defs><rect x="4" y="4" width="100" height="100" /><path d="M21.51,14.61c1.22,0.34,3.45,0.42,4.67,0.34c11.48-0.71,44.66-3.43,56.24-3.43c2.03,0,3.25,0.16,4.26,0.33" class="grey" /><path d="M38.46,18.42c0.06,0.29,0.12,0.74-0.11,1.15c-1.38,2.42-9.27,7.74-20.06,10.99" class="grey" /><path d="M72.25,16.87c5.77,1.32,14.89,5.43,16.34,7.49" class="grey" /><path d="M26.1,28.32c0.93,0.78,1.23,1.93,1.23,3.29c0,4.62,0.2,31.9,0.2,34.14" class="grey" /><path d="M27.33,30.32c7.43-0.6,48.22-3.78,49.68-3.99c3.13-0.45,4.63,0.36,4.63,2.49c0,2.56-0.14,26.87-0.14,30.3c0,9.12-2.68,4.34-5.03,2.4" class="grey" /><path d="M53.17,14.38c0.93,0.78,1.23,1.93,1.23,3.29c0,3.57-0.26,46.21-0.26,48.46" class="grey" /><path d="M46.55,34.7c0.04,0.33,0.07,0.84-0.07,1.31c-0.85,2.76-5.71,8.81-12.36,12.51" class="grey" /><path d="M36.75,38.18c3.93,0.73,9.15,4.46,10.68,7.03" class="grey" /><path d="M46.1,51.32c0.04,0.37,0.07,0.95-0.07,1.49c-0.85,3.13-5.71,10-12.36,14.21" class="grey" /><path d="M36.03,53.69c3.84,0.95,8.96,5.78,10.45,9.12" class="grey" /><path d="M72.07,32.81c0.03,0.33,0.06,0.84-0.05,1.31c-0.67,2.77-4.49,8.84-9.73,12.56" class="grey" /><path d="M61.92,36.77c4.06,0.79,9.45,4.76,11.03,7.51" class="grey" /><path d="M72.63,50.6c0.03,0.34,0.06,0.87-0.06,1.35c-0.73,2.86-4.91,9.12-10.62,12.96" class="grey" /><path d="M63.82,54.56c3.45,1.59,7.56,5.13,9.48,7.59" class="grey" /><path d="M27.11,73.93c1.04,0.29,4.45,0.38,5.5,0.3c13.48-1.08,25.85-2.24,46.2-3.28c1.6-0.08,3.07,0.06,4.4,0.3" class="grey" /><path d="M30.84,84.95c0.92,0.31,3.98,0.49,4.92,0.41c9.35-0.76,28.79-2.6,38.38-3.04c1.15-0.05,3.69-0.13,5.41,0.15" class="grey" /><path d="M20.75,96.24c0.84,0.16,4.08,0.7,5.5,0.63C42.5,96,69.77,94.38,85.56,94.33c2.29-0.01,5.04,0.77,6.19,1.02" class="grey" /><path d="M53.12,74.9c0.76,0.92,1.52,1.83,1.52,3.36c0,5.17,0.38,11.07,0.19,16.24" class="grey" /><path d="M75.25,87.11c2.51,1,4.66,3.14,5.2,4.39" class="grey" /><path d="M21.51,14.61c1.22,0.34,3.45,0.42,4.67,0.34c11.48-0.71,44.66-3.43,56.24-3.43c2.03,0,3.25,0.16,4.26,0.33" class="stroke" stroke-dasharray="150"><animate attributeName="stroke-dashoffset" from="150" to="0" dur="1.8s" begin="0.0s" fill="freeze" /></path><path d="M38.46,18.42c0.06,0.29,0.12,0.74-0.11,1.15c-1.38,2.42-9.27,7.74-20.06,10.99" class="stroke" stroke-dasharray="150"><set attributeName="opacity" to="0" dur="1.5s" /><animate attributeName="stroke-dashoffset" from="150" to="0" dur="1.8s" begin="1.5s" fill="freeze" /></path><path d="M72.25,16.87c5.77,1.32,14.89,5.43,16.34,7.49" class="stroke" stroke-dasharray="150"><set attributeName="opacity" to="0" dur="2.5s" /><animate attributeName="stroke-dashoffset" from="150" to="0" dur="1.8s" begin="2.5s" fill="freeze" /></path><path d="M26.1,28.32c0.93,0.78,1.23,1.93,1.23,3.29c0,4.62,0.2,31.9,0.2,34.14" class="stroke" stroke-dasharray="150"><set attributeName="opacity" to="0" dur="3.4s" /><animate attributeName="stroke-dashoffset" from="150" to="0" dur="1.8s" begin="3.4s" fill="freeze" /></path><path d="M27.33,30.32c7.43-0.6,48.22-3.78,49.68-3.99c3.13-0.45,4.63,0.36,4.63,2.49c0,2.56-0.14,26.87-0.14,30.3c0,9.12-2.68,4.34-5.03,2.4" class="stroke" stroke-dasharray="150"><set attributeName="opacity" to="0" dur="4.4s" /><animate attributeName="stroke-dashoffset" from="150" to="0" dur="1.8s" begin="4.4s" fill="freeze" /></path><path d="M53.17,14.38c0.93,0.78,1.23,1.93,1.23,3.29c0,3.57-0.26,46.21-0.26,48.46" class="stroke" stroke-dasharray="150"><set attributeName="opacity" to="0" dur="6.2s" /><animate attributeName="stroke-dashoffset" from="150" to="0" dur="1.8s" begin="6.2s" fill="freeze" /></path><path d="M46.55,34.7c0.04,0.33,0.07,0.84-0.07,1.31c-0.85,2.76-5.71,8.81-12.36,12.51" class="stroke" stroke-dasharray="150"><set attributeName="opacity" to="0" dur="7.5s" /><animate attributeName="stroke-dashoffset" from="150" to="0" dur="1.8s" begin="7.5s" fill="freeze" /></path><path d="M36.75,38.18c3.93,0.73,9.15,4.46,10.68,7.03" class="stroke" stroke-dasharray="150"><set attributeName="opacity" to="0" dur="8.4s" /><animate attributeName="stroke-dashoffset" from="150" to="0" dur="1.8s" begin="8.4s" fill="freeze" /></path><path d="M46.1,51.32c0.04,0.37,0.07,0.95-0.07,1.49c-0.85,3.13-5.71,10-12.36,14.21" class="stroke" stroke-dasharray="150"><set attributeName="opacity" to="0" dur="9.3s" /><animate attributeName="stroke-dashoffset" from="150" to="0" dur="1.8s" begin="9.3s" fill="freeze" /></path><path d="M36.03,53.69c3.84,0.95,8.96,5.78,10.45,9.12" class="stroke" stroke-dasharray="150"><set attributeName="opacity" to="0" dur="10.3s" /><animate attributeName="stroke-dashoffset" from="150" to="0" dur="1.8s" begin="10.3s" fill="freeze" /></path><path d="M72.07,32.81c0.03,0.33,0.06,0.84-0.05,1.31c-0.67,2.77-4.49,8.84-9.73,12.56" class="stroke" stroke-dasharray="150"><set attributeName="opacity" to="0" dur="11.200000000000001s" /><animate attributeName="stroke-dashoffset" from="150" to="0" dur="1.8s" begin="11.200000000000001s" fill="freeze" /></path><path d="M61.92,36.77c4.06,0.79,9.45,4.76,11.03,7.51" class="stroke" stroke-dasharray="150"><set attributeName="opacity" to="0" dur="12.100000000000001s" /><animate attributeName="stroke-dashoffset" from="150" to="0" dur="1.8s" begin="12.100000000000001s" fill="freeze" /></path><path d="M72.63,50.6c0.03,0.34,0.06,0.87-0.06,1.35c-0.73,2.86-4.91,9.12-10.62,12.96" class="stroke" stroke-dasharray="150"><set attributeName="opacity" to="0" dur="13.000000000000002s" /><animate attributeName="stroke-dashoffset" from="150" to="0" dur="1.8s" begin="13.000000000000002s" fill="freeze" /></path><path d="M63.82,54.56c3.45,1.59,7.56,5.13,9.48,7.59" class="stroke" stroke-dasharray="150"><set attributeName="opacity" to="0" dur="13.900000000000002s" /><animate attributeName="stroke-dashoffset" from="150" to="0" dur="1.8s" begin="13.900000000000002s" fill="freeze" /></path><path d="M27.11,73.93c1.04,0.29,4.45,0.38,5.5,0.3c13.48-1.08,25.85-2.24,46.2-3.28c1.6-0.08,3.07,0.06,4.4,0.3" class="stroke" stroke-dasharray="150"><set attributeName="opacity" to="0" dur="14.800000000000002s" /><animate attributeName="stroke-dashoffset" from="150" to="0" dur="1.8s" begin="14.800000000000002s" fill="freeze" /></path><path d="M30.84,84.95c0.92,0.31,3.98,0.49,4.92,0.41c9.35-0.76,28.79-2.6,38.38-3.04c1.15-0.05,3.69-0.13,5.41,0.15" class="stroke" stroke-dasharray="150"><set attributeName="opacity" to="0" dur="16.200000000000003s" /><animate attributeName="stroke-dashoffset" from="150" to="0" dur="1.8s" begin="16.200000000000003s" fill="freeze" /></path><path d="M20.75,96.24c0.84,0.16,4.08,0.7,5.5,0.63C42.5,96,69.77,94.38,85.56,94.33c2.29-0.01,5.04,0.77,6.19,1.02" class="stroke" stroke-dasharray="150"><set attributeName="opacity" to="0" dur="17.400000000000002s" /><animate attributeName="stroke-dashoffset" from="150" to="0" dur="1.8s" begin="17.400000000000002s" fill="freeze" /></path><path d="M53.12,74.9c0.76,0.92,1.52,1.83,1.52,3.36c0,5.17,0.38,11.07,0.19,16.24" class="stroke" stroke-dasharray="150"><set attributeName="opacity" to="0" dur="19.1s" /><animate attributeName="stroke-dashoffset" from="150" to="0" dur="1.8s" begin="19.1s" fill="freeze" /></path><path d="M75.25,87.11c2.51,1,4.66,3.14,5.2,4.39" class="stroke" stroke-dasharray="150"><set attributeName="opacity" to="0" dur="20.1s" /><animate attributeName="stroke-dashoffset" from="150" to="0" dur="1.8s" begin="20.1s" fill="freeze" /></path><text x="90" y="120" id="reset-kvg-074bd-VtLst">⟳</text><text x="70" y="120" id="pause-kvg-074bd-VtLst">◼</text><script type="text/javascript"><![CDATA[function RecurringTimer(e,t){var n,r,i=t;this.pause=function(){window.clearTimeout(n);i-=new Date-r};var s=function(){r=new Date;n=window.setTimeout(function(){i=t;s();e()},i)};this.clear=function(){window.clearTimeout(n);i=t;n=window.setTimeout(function(){i=t;s();e()},i)};this.resume=s;this.resume()}function invoketimer(){timer=new RecurringTimer(function(){svg.setCurrentTime(0)},22000.0)}var svg=document.getElementById("kvg-074bd-VtLst");var pause=document.getElementById("pause-kvg-074bd-VtLst");var reset=document.getElementById("reset-kvg-074bd-VtLst");var timer;invoketimer();reset.onclick=function(){svg.setCurrentTime(0);timer.clear();svg.unpauseAnimations();pause.innerHTML = "◼";};pause.onclick=function(){if(svg.animationsPaused()){svg.unpauseAnimations();timer.resume();pause.innerHTML="◼"}else{svg.pauseAnimations();timer.pause();pause.innerHTML="▶"}}]]></script></svg>