<svg id="kvg-074e0" class="kanjivg" width="106" height="126" xmlns="http://www.w3.org/2000/svg" xmlns:xlink="http://www.w3.org/1999/xlink" xml:space="preserve" version="1.1" baseProfile="full"><defs><style type="text/css"><![CDATA[path.black{fill:none;stroke:black;stroke-width:5;stroke-linecap:round;stroke-linejoin:round;}path.grey{fill:none;stroke:#ddd;stroke-width:5;stroke-linecap:round;stroke-linejoin:round;}path.stroke{fill:none;stroke:black;stroke-width:5;stroke-linecap:round;stroke-linejoin:round;}rect{fill:none;stroke:#555;stroke-width:2;} text{font-size:16px;font-family:Segoe UI Symbol,Cambria Math,DejaVu Sans,Symbola,Quivira,STIX,Code2000;-webkit-touch-callout:none;cursor:pointer;-webkit-user-select:none;-khtml-user-select:none;-moz-user-select:none;-ms-user-select:none;user-select: none;}text:hover{color:#777;}#reset{font-weight:bold;}]]></style><marker id="markerStart" markerWidth="8" markerHeight="8" style="overflow:visible;"><circle cx="0" cy="0" r="1.5" style="stroke:none;fill:red;fill-opacity:0.5;"/></marker><marker id="markerEnd" style="overflow:visible;"><circle cx="0" cy="0" r="0.8" style="stroke:none;fill:blue;fill-opacity:0.5;"><animate attributeName="opacity" from="1" to="0" dur="3s" repeatCount="indefinite" /></circle></marker></defs><rect x="4" y="4" width="100" height="100" /><path d="M10.66,29.3c1.19,0.38,2.51,0.16,3.29,0.11c13.54-0.91,21.79-2.16,30.8-3.51c0.97-0.15,2.5-0.4,4.33,0.42" class="grey" /><path d="M30.58,12.75c0.36,0.55,0.54,1.71,0.22,2.81C26.75,29.5,20.75,42.5,8.15,52.94" class="grey" /><path d="M34.23,29.75c6.32,4.55,12.13,12.04,15.42,17.22" class="grey" /><path d="M20.34,47.1c0.35,0.24,1.71,0.25,2.07,0.24C27,47.25,34,45,38.22,45.07c0.58,0.01,2.02,0.12,2.31,0.24" class="grey" /><path d="M12.76,57.31c1.08,0.47,3.05,0.59,4.12,0.47c6.71-0.71,15.69-1.79,27.65-2.44c1.79-0.1,2.87,0.23,3.76,0.47" class="grey" /><path d="M25.13,57.32c0.36,0.93,0.31,1.5,0.07,2.98c-0.27,1.69-1.7,3.2-3.88,6.45c-1.38,2.05-0.36,3.46,2.19,2.98c6.49-1.23,9.38-1.56,15.46-2.58c2.96-0.5,4.03,1.1,3.51,3.29c-1.69,7.16-4.73,14.31-9.13,21.89c-3.62,6.24-5.6-0.08-7-1.64" class="grey" /><path d="M82.36,13.5c0.06,0.35-0.06,1.52-0.46,1.87C76,20.5,68.25,24.5,58.81,28.38" class="grey" /><path d="M55.94,27.28c0.32,0.74,0.81,2.04,0.89,4.16C57.7,53.45,57.5,77,44.31,93.72" class="grey" /><path d="M67.58,30.26c0.87,0.62,1.56,2.75,1.56,4.01c0,6.44-0.17,43.09-0.17,53.55" class="grey" /><path d="M58.09,89.7c0.59,0.41,1.76,1.21,3.02,0.76c6.62-2.37,11.12-4,18.19-6.62" class="grey" /><path d="M75.72,75.68c2.57,2.76,6.63,11.33,7.27,15.62" class="grey" /><path d="M78.11,20.05c2.49,15.68,6.64,48.99,15.26,68.53c1.31,2.97,2.7,4.81,3.63,5.77" class="grey" /><path d="M10.66,29.3c1.19,0.38,2.51,0.16,3.29,0.11c13.54-0.91,21.79-2.16,30.8-3.51c0.97-0.15,2.5-0.4,4.33,0.42" class="stroke" stroke-dasharray="150"><animate attributeName="stroke-dashoffset" from="150" to="0" dur="1.8s" begin="0.0s" fill="freeze" /></path><path d="M30.58,12.75c0.36,0.55,0.54,1.71,0.22,2.81C26.75,29.5,20.75,42.5,8.15,52.94" class="stroke" stroke-dasharray="150"><set attributeName="opacity" to="0" dur="1.0s" /><animate attributeName="stroke-dashoffset" from="150" to="0" dur="1.8s" begin="1.0s" fill="freeze" /></path><path d="M34.23,29.75c6.32,4.55,12.13,12.04,15.42,17.22" class="stroke" stroke-dasharray="150"><set attributeName="opacity" to="0" dur="2.2s" /><animate attributeName="stroke-dashoffset" from="150" to="0" dur="1.8s" begin="2.2s" fill="freeze" /></path><path d="M20.34,47.1c0.35,0.24,1.71,0.25,2.07,0.24C27,47.25,34,45,38.22,45.07c0.58,0.01,2.02,0.12,2.31,0.24" class="stroke" stroke-dasharray="150"><set attributeName="opacity" to="0" dur="3.2s" /><animate attributeName="stroke-dashoffset" from="150" to="0" dur="1.8s" begin="3.2s" fill="freeze" /></path><path d="M12.76,57.31c1.08,0.47,3.05,0.59,4.12,0.47c6.71-0.71,15.69-1.79,27.65-2.44c1.79-0.1,2.87,0.23,3.76,0.47" class="stroke" stroke-dasharray="150"><set attributeName="opacity" to="0" dur="4.2s" /><animate attributeName="stroke-dashoffset" from="150" to="0" dur="1.8s" begin="4.2s" fill="freeze" /></path><path d="M25.13,57.32c0.36,0.93,0.31,1.5,0.07,2.98c-0.27,1.69-1.7,3.2-3.88,6.45c-1.38,2.05-0.36,3.46,2.19,2.98c6.49-1.23,9.38-1.56,15.46-2.58c2.96-0.5,4.03,1.1,3.51,3.29c-1.69,7.16-4.73,14.31-9.13,21.89c-3.62,6.24-5.6-0.08-7-1.64" class="stroke" stroke-dasharray="150"><set attributeName="opacity" to="0" dur="5.2s" /><animate attributeName="stroke-dashoffset" from="150" to="0" dur="1.8s" begin="5.2s" fill="freeze" /></path><path d="M82.36,13.5c0.06,0.35-0.06,1.52-0.46,1.87C76,20.5,68.25,24.5,58.81,28.38" class="stroke" stroke-dasharray="150"><set attributeName="opacity" to="0" dur="6.9s" /><animate attributeName="stroke-dashoffset" from="150" to="0" dur="1.8s" begin="6.9s" fill="freeze" /></path><path d="M55.94,27.28c0.32,0.74,0.81,2.04,0.89,4.16C57.7,53.45,57.5,77,44.31,93.72" class="stroke" stroke-dasharray="150"><set attributeName="opacity" to="0" dur="7.9s" /><animate attributeName="stroke-dashoffset" from="150" to="0" dur="1.8s" begin="7.9s" fill="freeze" /></path><path d="M67.58,30.26c0.87,0.62,1.56,2.75,1.56,4.01c0,6.44-0.17,43.09-0.17,53.55" class="stroke" stroke-dasharray="150"><set attributeName="opacity" to="0" dur="9.4s" /><animate attributeName="stroke-dashoffset" from="150" to="0" dur="1.8s" begin="9.4s" fill="freeze" /></path><path d="M58.09,89.7c0.59,0.41,1.76,1.21,3.02,0.76c6.62-2.37,11.12-4,18.19-6.62" class="stroke" stroke-dasharray="150"><set attributeName="opacity" to="0" dur="10.8s" /><animate attributeName="stroke-dashoffset" from="150" to="0" dur="1.8s" begin="10.8s" fill="freeze" /></path><path d="M75.72,75.68c2.57,2.76,6.63,11.33,7.27,15.62" class="stroke" stroke-dasharray="150"><set attributeName="opacity" to="0" dur="11.8s" /><animate attributeName="stroke-dashoffset" from="150" to="0" dur="1.8s" begin="11.8s" fill="freeze" /></path><path d="M78.11,20.05c2.49,15.68,6.64,48.99,15.26,68.53c1.31,2.97,2.7,4.81,3.63,5.77" class="stroke" stroke-dasharray="150"><set attributeName="opacity" to="0" dur="12.700000000000001s" /><animate attributeName="stroke-dashoffset" from="150" to="0" dur="1.8s" begin="12.700000000000001s" fill="freeze" /></path><text x="90" y="120" id="reset-kvg-074e0">⟳</text><text x="70" y="120" id="pause-kvg-074e0">◼</text><script type="text/javascript"><![CDATA[function RecurringTimer(e,t){var n,r,i=t;this.pause=function(){window.clearTimeout(n);i-=new Date-r};var s=function(){r=new Date;n=window.setTimeout(function(){i=t;s();e()},i)};this.clear=function(){window.clearTimeout(n);i=t;n=window.setTimeout(function(){i=t;s();e()},i)};this.resume=s;this.resume()}function invoketimer(){timer=new RecurringTimer(function(){svg.setCurrentTime(0)},15400.0)}var svg=document.getElementById("kvg-074e0");var pause=document.getElementById("pause-kvg-074e0");var reset=document.getElementById("reset-kvg-074e0");var timer;invoketimer();reset.onclick=function(){svg.setCurrentTime(0);timer.clear();svg.unpauseAnimations();pause.innerHTML = "◼";};pause.onclick=function(){if(svg.animationsPaused()){svg.unpauseAnimations();timer.resume();pause.innerHTML="◼"}else{svg.pauseAnimations();timer.pause();pause.innerHTML="▶"}}]]></script></svg>