<svg id="kvg-0754a-Kaisho" class="kanjivg" width="106" height="126" xmlns="http://www.w3.org/2000/svg" xmlns:xlink="http://www.w3.org/1999/xlink" xml:space="preserve" version="1.1" baseProfile="full"><defs><style type="text/css"><![CDATA[path.black{fill:none;stroke:black;stroke-width:5;stroke-linecap:round;stroke-linejoin:round;}path.grey{fill:none;stroke:#ddd;stroke-width:5;stroke-linecap:round;stroke-linejoin:round;}path.stroke{fill:none;stroke:black;stroke-width:5;stroke-linecap:round;stroke-linejoin:round;}rect{fill:none;stroke:#555;stroke-width:2;} text{font-size:16px;font-family:Segoe UI Symbol,Cambria Math,DejaVu Sans,Symbola,Quivira,STIX,Code2000;-webkit-touch-callout:none;cursor:pointer;-webkit-user-select:none;-khtml-user-select:none;-moz-user-select:none;-ms-user-select:none;user-select: none;}text:hover{color:#777;}#reset{font-weight:bold;}]]></style><marker id="markerStart" markerWidth="8" markerHeight="8" style="overflow:visible;"><circle cx="0" cy="0" r="1.5" style="stroke:none;fill:red;fill-opacity:0.5;"/></marker><marker id="markerEnd" style="overflow:visible;"><circle cx="0" cy="0" r="0.8" style="stroke:none;fill:blue;fill-opacity:0.5;"><animate attributeName="opacity" from="1" to="0" dur="3s" repeatCount="indefinite" /></circle></marker></defs><rect x="4" y="4" width="100" height="100" /><path d="M12.74,27.38c0.21,0.82,1.21,1.91,1.33,2.92c0.94,8.31,1.32,31.64,1.9,46.91" class="grey" /><path d="M14.22,29.2c7.26-0.65,18.71-2.27,24.13-2.94c1.99-0.25,3.01,2.18,2.91,4.4c-0.38,8.12-0.8,31.26-1.71,44.78" class="grey" /><path d="M26.8,29.5c0.45,0.56,1.03,2.32,1.04,2.99c0.21,11.25,0.09,32.08,0.09,38.72" class="grey" /><path d="M15.57,50.49c5.59-0.81,11.3-1.12,16.92-1.59c0.68-0.06,1.34-0.11,1.97-0.16" class="grey" /><path d="M16.34,73.45c5.23,0.14,15.98-1.34,23.2-1.37" class="grey" /><path d="M50,36.9c1.02,0.37,2.9,0.53,3.9,0.37C61.75,36,81,35,91.43,34.51c1.7-0.08,2.72,0.18,3.57,0.36" class="grey" /><path d="M46.75,63.7c1.52,0.54,4.3,0.62,5.82,0.54c9.43-0.49,29.18-2.74,41.11-2.73c2.53,0,4.05,0.26,5.31,0.53" class="grey" /><path d="M59.73,14.25c0.76,1.02,1.27,2.05,1.52,3.07c0.25,1.02,0.25,32.28,0.25,34.58c0,22.8-7.85,38.17-19.5,45.34" class="grey" /><path d="M78.87,11.25c1.09,0.5,1.74,2.25,1.96,3.25c0.22,1,0,77.25-0.22,83.5" class="grey" /><path d="M12.74,27.38c0.21,0.82,1.21,1.91,1.33,2.92c0.94,8.31,1.32,31.64,1.9,46.91" class="stroke" stroke-dasharray="150"><animate attributeName="stroke-dashoffset" from="150" to="0" dur="1.8s" begin="0.0s" fill="freeze" /></path><path d="M14.22,29.2c7.26-0.65,18.71-2.27,24.13-2.94c1.99-0.25,3.01,2.18,2.91,4.4c-0.38,8.12-0.8,31.26-1.71,44.78" class="stroke" stroke-dasharray="150"><set attributeName="opacity" to="0" dur="1.3s" /><animate attributeName="stroke-dashoffset" from="150" to="0" dur="1.8s" begin="1.3s" fill="freeze" /></path><path d="M26.8,29.5c0.45,0.56,1.03,2.32,1.04,2.99c0.21,11.25,0.09,32.08,0.09,38.72" class="stroke" stroke-dasharray="150"><set attributeName="opacity" to="0" dur="3.0s" /><animate attributeName="stroke-dashoffset" from="150" to="0" dur="1.8s" begin="3.0s" fill="freeze" /></path><path d="M15.57,50.49c5.59-0.81,11.3-1.12,16.92-1.59c0.68-0.06,1.34-0.11,1.97-0.16" class="stroke" stroke-dasharray="150"><set attributeName="opacity" to="0" dur="4.1s" /><animate attributeName="stroke-dashoffset" from="150" to="0" dur="1.8s" begin="4.1s" fill="freeze" /></path><path d="M16.34,73.45c5.23,0.14,15.98-1.34,23.2-1.37" class="stroke" stroke-dasharray="150"><set attributeName="opacity" to="0" dur="5.0s" /><animate attributeName="stroke-dashoffset" from="150" to="0" dur="1.8s" begin="5.0s" fill="freeze" /></path><path d="M50,36.9c1.02,0.37,2.9,0.53,3.9,0.37C61.75,36,81,35,91.43,34.51c1.7-0.08,2.72,0.18,3.57,0.36" class="stroke" stroke-dasharray="150"><set attributeName="opacity" to="0" dur="6.0s" /><animate attributeName="stroke-dashoffset" from="150" to="0" dur="1.8s" begin="6.0s" fill="freeze" /></path><path d="M46.75,63.7c1.52,0.54,4.3,0.62,5.82,0.54c9.43-0.49,29.18-2.74,41.11-2.73c2.53,0,4.05,0.26,5.31,0.53" class="stroke" stroke-dasharray="150"><set attributeName="opacity" to="0" dur="7.2s" /><animate attributeName="stroke-dashoffset" from="150" to="0" dur="1.8s" begin="7.2s" fill="freeze" /></path><path d="M59.73,14.25c0.76,1.02,1.27,2.05,1.52,3.07c0.25,1.02,0.25,32.28,0.25,34.58c0,22.8-7.85,38.17-19.5,45.34" class="stroke" stroke-dasharray="150"><set attributeName="opacity" to="0" dur="8.5s" /><animate attributeName="stroke-dashoffset" from="150" to="0" dur="1.8s" begin="8.5s" fill="freeze" /></path><path d="M78.87,11.25c1.09,0.5,1.74,2.25,1.96,3.25c0.22,1,0,77.25-0.22,83.5" class="stroke" stroke-dasharray="150"><set attributeName="opacity" to="0" dur="10.2s" /><animate attributeName="stroke-dashoffset" from="150" to="0" dur="1.8s" begin="10.2s" fill="freeze" /></path><text x="90" y="120" id="reset-kvg-0754a-Kaisho">⟳</text><text x="70" y="120" id="pause-kvg-0754a-Kaisho">◼</text><script type="text/javascript"><![CDATA[function RecurringTimer(e,t){var n,r,i=t;this.pause=function(){window.clearTimeout(n);i-=new Date-r};var s=function(){r=new Date;n=window.setTimeout(function(){i=t;s();e()},i)};this.clear=function(){window.clearTimeout(n);i=t;n=window.setTimeout(function(){i=t;s();e()},i)};this.resume=s;this.resume()}function invoketimer(){timer=new RecurringTimer(function(){svg.setCurrentTime(0)},12899.999999999998)}var svg=document.getElementById("kvg-0754a-Kaisho");var pause=document.getElementById("pause-kvg-0754a-Kaisho");var reset=document.getElementById("reset-kvg-0754a-Kaisho");var timer;invoketimer();reset.onclick=function(){svg.setCurrentTime(0);timer.clear();svg.unpauseAnimations();pause.innerHTML = "◼";};pause.onclick=function(){if(svg.animationsPaused()){svg.unpauseAnimations();timer.resume();pause.innerHTML="◼"}else{svg.pauseAnimations();timer.pause();pause.innerHTML="▶"}}]]></script></svg>