<svg id="kvg-07554-Kaisho" class="kanjivg" width="106" height="126" xmlns="http://www.w3.org/2000/svg" xmlns:xlink="http://www.w3.org/1999/xlink" xml:space="preserve" version="1.1" baseProfile="full"><defs><style type="text/css"><![CDATA[path.black{fill:none;stroke:black;stroke-width:5;stroke-linecap:round;stroke-linejoin:round;}path.grey{fill:none;stroke:#ddd;stroke-width:5;stroke-linecap:round;stroke-linejoin:round;}path.stroke{fill:none;stroke:black;stroke-width:5;stroke-linecap:round;stroke-linejoin:round;}rect{fill:none;stroke:#555;stroke-width:2;} text{font-size:16px;font-family:Segoe UI Symbol,Cambria Math,DejaVu Sans,Symbola,Quivira,STIX,Code2000;-webkit-touch-callout:none;cursor:pointer;-webkit-user-select:none;-khtml-user-select:none;-moz-user-select:none;-ms-user-select:none;user-select: none;}text:hover{color:#777;}#reset{font-weight:bold;}]]></style><marker id="markerStart" markerWidth="8" markerHeight="8" style="overflow:visible;"><circle cx="0" cy="0" r="1.5" style="stroke:none;fill:red;fill-opacity:0.5;"/></marker><marker id="markerEnd" style="overflow:visible;"><circle cx="0" cy="0" r="0.8" style="stroke:none;fill:blue;fill-opacity:0.5;"><animate attributeName="opacity" from="1" to="0" dur="3s" repeatCount="indefinite" /></circle></marker></defs><rect x="4" y="4" width="100" height="100" /><path d="M16.29,28.46c0.23,0.79,0.24,1.31,0.36,2.28c1.04,7.96,0.97,28.34,1.58,43.01" class="grey" /><path d="M17.39,29.67c8.24-0.8,21.36-2.65,27.52-3.43c2.26-0.29,3.41,2.02,3.29,4.15c-0.45,7.82-1.62,27.81-2.08,40.06" class="grey" /><path d="M30.36,28.94c0.89,0.56,1.48,3.18,1.47,4.59c-0.03,9.23,0.15,31.43,0.15,34.78" class="grey" /><path d="M17.86,49.59c6.49-0.94,13.03-1.58,19.54-2.29c0.78-0.09,1.54-0.17,2.27-0.25" class="grey" /><path d="M18.66,70.68c5.93,0,19.33-1.78,27.52-1.99" class="grey" /><path d="M56.04,24.27c2.62,2.32,6.77,9.55,7.43,13.16" class="grey" /><path d="M93.72,19.73c0.02,0.37,0.05,0.96-0.05,1.49c-0.59,3.15-3.97,10.05-8.59,14.28" class="grey" /><path d="M55.87,46.15c0.84,0.28,2.38,0.31,3.22,0.28c4.93-0.22,20.96-2.93,31.58-3.11c1.4-0.02,2.24,0.13,2.94,0.27" class="grey" /><path d="M53.58,63.26c1.12,0.42,3.19,0.52,4.31,0.42c6.33-0.55,24.21-2.92,35.33-3.34c1.87-0.07,3,0.2,3.94,0.41" class="grey" /><path d="M72.4,11.75c1.07,0.49,1.71,2.2,1.92,3.18c0.21,0.98,0,74.2-0.21,80.32" class="grey" /><path d="M16.29,28.46c0.23,0.79,0.24,1.31,0.36,2.28c1.04,7.96,0.97,28.34,1.58,43.01" class="stroke" stroke-dasharray="150"><animate attributeName="stroke-dashoffset" from="150" to="0" dur="1.8s" begin="0.0s" fill="freeze" /></path><path d="M17.39,29.67c8.24-0.8,21.36-2.65,27.52-3.43c2.26-0.29,3.41,2.02,3.29,4.15c-0.45,7.82-1.62,27.81-2.08,40.06" class="stroke" stroke-dasharray="150"><set attributeName="opacity" to="0" dur="1.2s" /><animate attributeName="stroke-dashoffset" from="150" to="0" dur="1.8s" begin="1.2s" fill="freeze" /></path><path d="M30.36,28.94c0.89,0.56,1.48,3.18,1.47,4.59c-0.03,9.23,0.15,31.43,0.15,34.78" class="stroke" stroke-dasharray="150"><set attributeName="opacity" to="0" dur="2.9s" /><animate attributeName="stroke-dashoffset" from="150" to="0" dur="1.8s" begin="2.9s" fill="freeze" /></path><path d="M17.86,49.59c6.49-0.94,13.03-1.58,19.54-2.29c0.78-0.09,1.54-0.17,2.27-0.25" class="stroke" stroke-dasharray="150"><set attributeName="opacity" to="0" dur="3.9s" /><animate attributeName="stroke-dashoffset" from="150" to="0" dur="1.8s" begin="3.9s" fill="freeze" /></path><path d="M18.66,70.68c5.93,0,19.33-1.78,27.52-1.99" class="stroke" stroke-dasharray="150"><set attributeName="opacity" to="0" dur="4.9s" /><animate attributeName="stroke-dashoffset" from="150" to="0" dur="1.8s" begin="4.9s" fill="freeze" /></path><path d="M56.04,24.27c2.62,2.32,6.77,9.55,7.43,13.16" class="stroke" stroke-dasharray="150"><set attributeName="opacity" to="0" dur="5.9s" /><animate attributeName="stroke-dashoffset" from="150" to="0" dur="1.8s" begin="5.9s" fill="freeze" /></path><path d="M93.72,19.73c0.02,0.37,0.05,0.96-0.05,1.49c-0.59,3.15-3.97,10.05-8.59,14.28" class="stroke" stroke-dasharray="150"><set attributeName="opacity" to="0" dur="6.800000000000001s" /><animate attributeName="stroke-dashoffset" from="150" to="0" dur="1.8s" begin="6.800000000000001s" fill="freeze" /></path><path d="M55.87,46.15c0.84,0.28,2.38,0.31,3.22,0.28c4.93-0.22,20.96-2.93,31.58-3.11c1.4-0.02,2.24,0.13,2.94,0.27" class="stroke" stroke-dasharray="150"><set attributeName="opacity" to="0" dur="7.700000000000001s" /><animate attributeName="stroke-dashoffset" from="150" to="0" dur="1.8s" begin="7.700000000000001s" fill="freeze" /></path><path d="M53.58,63.26c1.12,0.42,3.19,0.52,4.31,0.42c6.33-0.55,24.21-2.92,35.33-3.34c1.87-0.07,3,0.2,3.94,0.41" class="stroke" stroke-dasharray="150"><set attributeName="opacity" to="0" dur="8.700000000000001s" /><animate attributeName="stroke-dashoffset" from="150" to="0" dur="1.8s" begin="8.700000000000001s" fill="freeze" /></path><path d="M72.4,11.75c1.07,0.49,1.71,2.2,1.92,3.18c0.21,0.98,0,74.2-0.21,80.32" class="stroke" stroke-dasharray="150"><set attributeName="opacity" to="0" dur="9.8s" /><animate attributeName="stroke-dashoffset" from="150" to="0" dur="1.8s" begin="9.8s" fill="freeze" /></path><text x="90" y="120" id="reset-kvg-07554-Kaisho">⟳</text><text x="70" y="120" id="pause-kvg-07554-Kaisho">◼</text><script type="text/javascript"><![CDATA[function RecurringTimer(e,t){var n,r,i=t;this.pause=function(){window.clearTimeout(n);i-=new Date-r};var s=function(){r=new Date;n=window.setTimeout(function(){i=t;s();e()},i)};this.clear=function(){window.clearTimeout(n);i=t;n=window.setTimeout(function(){i=t;s();e()},i)};this.resume=s;this.resume()}function invoketimer(){timer=new RecurringTimer(function(){svg.setCurrentTime(0)},12500.0)}var svg=document.getElementById("kvg-07554-Kaisho");var pause=document.getElementById("pause-kvg-07554-Kaisho");var reset=document.getElementById("reset-kvg-07554-Kaisho");var timer;invoketimer();reset.onclick=function(){svg.setCurrentTime(0);timer.clear();svg.unpauseAnimations();pause.innerHTML = "◼";};pause.onclick=function(){if(svg.animationsPaused()){svg.unpauseAnimations();timer.resume();pause.innerHTML="◼"}else{svg.pauseAnimations();timer.pause();pause.innerHTML="▶"}}]]></script></svg>