<svg id="kvg-0756a-Kaisho" class="kanjivg" width="106" height="126" xmlns="http://www.w3.org/2000/svg" xmlns:xlink="http://www.w3.org/1999/xlink" xml:space="preserve" version="1.1" baseProfile="full"><defs><style type="text/css"><![CDATA[path.black{fill:none;stroke:black;stroke-width:5;stroke-linecap:round;stroke-linejoin:round;}path.grey{fill:none;stroke:#ddd;stroke-width:5;stroke-linecap:round;stroke-linejoin:round;}path.stroke{fill:none;stroke:black;stroke-width:5;stroke-linecap:round;stroke-linejoin:round;}rect{fill:none;stroke:#555;stroke-width:2;} text{font-size:16px;font-family:Segoe UI Symbol,Cambria Math,DejaVu Sans,Symbola,Quivira,STIX,Code2000;-webkit-touch-callout:none;cursor:pointer;-webkit-user-select:none;-khtml-user-select:none;-moz-user-select:none;-ms-user-select:none;user-select: none;}text:hover{color:#777;}#reset{font-weight:bold;}]]></style><marker id="markerStart" markerWidth="8" markerHeight="8" style="overflow:visible;"><circle cx="0" cy="0" r="1.5" style="stroke:none;fill:red;fill-opacity:0.5;"/></marker><marker id="markerEnd" style="overflow:visible;"><circle cx="0" cy="0" r="0.8" style="stroke:none;fill:blue;fill-opacity:0.5;"><animate attributeName="opacity" from="1" to="0" dur="3s" repeatCount="indefinite" /></circle></marker></defs><rect x="4" y="4" width="100" height="100" /><path d="M65.01,10.25c0.1,0.3,0.14,0.72-0.19,1.2c-2.71,3.93-17.39,7.63-34.82,10.8" class="grey" /><path d="M32.51,27.54c2.34,1.22,5.87,4.68,6.45,6.59" class="grey" /><path d="M74.01,19.25c0.03,0.35,0.15,0.93-0.05,1.4c-1.57,3.78-4.08,8.22-9.25,13.41" class="grey" /><path d="M18.27,40.91c0.67,0.16,2.45,0.41,4.23,0.47c4.9,0.15,52.07-6.03,59.86-5.72c1.78,0.07,2.22-0.15,3.34,0" class="grey" /><path d="M51.65,21c1.11,0.31,1.78,1.4,2,2.02c0.22,0.62,0,32.49-0.22,36.37" class="grey" /><path d="M50.75,38.75c-5.33,8.72-18.27,20.97-30.25,26" class="grey" /><path d="M55.88,38.6c4.46,2.98,27.05,19.08,31.9,22.01c1.64,0.99,3.05,1.42,4.7,1.7" class="grey" /><path d="M29.31,65.17c0.34,0.58,0.34,0.97,0.53,1.68c1.5,5.88,2.85,21.56,3.74,32.4" class="grey" /><path d="M30.9,67.06c11.92-0.59,33.35-3.59,42.25-4.17c3.27-0.21,4.93,1.49,4.75,3.07C77.17,72.46,75,88.75,72.5,98.75" class="grey" /><path d="M52.29,65.89C53,67,53.25,67.45,53.25,69c-0.02,7.31,0.22,23.59,0.22,25.97" class="grey" /><path d="M33.03,81.15c9.55-0.73,19.1-1.4,28.65-2.05c1.15-0.08,2.27-0.16,3.33-0.23" class="grey" /><path d="M34.2,96.72c8.58,0,26.96-1.57,38.8-1.72" class="grey" /><path d="M65.01,10.25c0.1,0.3,0.14,0.72-0.19,1.2c-2.71,3.93-17.39,7.63-34.82,10.8" class="stroke" stroke-dasharray="150"><animate attributeName="stroke-dashoffset" from="150" to="0" dur="1.8s" begin="0.0s" fill="freeze" /></path><path d="M32.51,27.54c2.34,1.22,5.87,4.68,6.45,6.59" class="stroke" stroke-dasharray="150"><set attributeName="opacity" to="0" dur="1.0s" /><animate attributeName="stroke-dashoffset" from="150" to="0" dur="1.8s" begin="1.0s" fill="freeze" /></path><path d="M74.01,19.25c0.03,0.35,0.15,0.93-0.05,1.4c-1.57,3.78-4.08,8.22-9.25,13.41" class="stroke" stroke-dasharray="150"><set attributeName="opacity" to="0" dur="1.9s" /><animate attributeName="stroke-dashoffset" from="150" to="0" dur="1.8s" begin="1.9s" fill="freeze" /></path><path d="M18.27,40.91c0.67,0.16,2.45,0.41,4.23,0.47c4.9,0.15,52.07-6.03,59.86-5.72c1.78,0.07,2.22-0.15,3.34,0" class="stroke" stroke-dasharray="150"><set attributeName="opacity" to="0" dur="2.8s" /><animate attributeName="stroke-dashoffset" from="150" to="0" dur="1.8s" begin="2.8s" fill="freeze" /></path><path d="M51.65,21c1.11,0.31,1.78,1.4,2,2.02c0.22,0.62,0,32.49-0.22,36.37" class="stroke" stroke-dasharray="150"><set attributeName="opacity" to="0" dur="4.3s" /><animate attributeName="stroke-dashoffset" from="150" to="0" dur="1.8s" begin="4.3s" fill="freeze" /></path><path d="M50.75,38.75c-5.33,8.72-18.27,20.97-30.25,26" class="stroke" stroke-dasharray="150"><set attributeName="opacity" to="0" dur="5.3s" /><animate attributeName="stroke-dashoffset" from="150" to="0" dur="1.8s" begin="5.3s" fill="freeze" /></path><path d="M55.88,38.6c4.46,2.98,27.05,19.08,31.9,22.01c1.64,0.99,3.05,1.42,4.7,1.7" class="stroke" stroke-dasharray="150"><set attributeName="opacity" to="0" dur="6.4s" /><animate attributeName="stroke-dashoffset" from="150" to="0" dur="1.8s" begin="6.4s" fill="freeze" /></path><path d="M29.31,65.17c0.34,0.58,0.34,0.97,0.53,1.68c1.5,5.88,2.85,21.56,3.74,32.4" class="stroke" stroke-dasharray="150"><set attributeName="opacity" to="0" dur="7.5s" /><animate attributeName="stroke-dashoffset" from="150" to="0" dur="1.8s" begin="7.5s" fill="freeze" /></path><path d="M30.9,67.06c11.92-0.59,33.35-3.59,42.25-4.17c3.27-0.21,4.93,1.49,4.75,3.07C77.17,72.46,75,88.75,72.5,98.75" class="stroke" stroke-dasharray="150"><set attributeName="opacity" to="0" dur="8.5s" /><animate attributeName="stroke-dashoffset" from="150" to="0" dur="1.8s" begin="8.5s" fill="freeze" /></path><path d="M52.29,65.89C53,67,53.25,67.45,53.25,69c-0.02,7.31,0.22,23.59,0.22,25.97" class="stroke" stroke-dasharray="150"><set attributeName="opacity" to="0" dur="10.2s" /><animate attributeName="stroke-dashoffset" from="150" to="0" dur="1.8s" begin="10.2s" fill="freeze" /></path><path d="M33.03,81.15c9.55-0.73,19.1-1.4,28.65-2.05c1.15-0.08,2.27-0.16,3.33-0.23" class="stroke" stroke-dasharray="150"><set attributeName="opacity" to="0" dur="11.2s" /><animate attributeName="stroke-dashoffset" from="150" to="0" dur="1.8s" begin="11.2s" fill="freeze" /></path><path d="M34.2,96.72c8.58,0,26.96-1.57,38.8-1.72" class="stroke" stroke-dasharray="150"><set attributeName="opacity" to="0" dur="12.2s" /><animate attributeName="stroke-dashoffset" from="150" to="0" dur="1.8s" begin="12.2s" fill="freeze" /></path><text x="90" y="120" id="reset-kvg-0756a-Kaisho">⟳</text><text x="70" y="120" id="pause-kvg-0756a-Kaisho">◼</text><script type="text/javascript"><![CDATA[function RecurringTimer(e,t){var n,r,i=t;this.pause=function(){window.clearTimeout(n);i-=new Date-r};var s=function(){r=new Date;n=window.setTimeout(function(){i=t;s();e()},i)};this.clear=function(){window.clearTimeout(n);i=t;n=window.setTimeout(function(){i=t;s();e()},i)};this.resume=s;this.resume()}function invoketimer(){timer=new RecurringTimer(function(){svg.setCurrentTime(0)},14200.0)}var svg=document.getElementById("kvg-0756a-Kaisho");var pause=document.getElementById("pause-kvg-0756a-Kaisho");var reset=document.getElementById("reset-kvg-0756a-Kaisho");var timer;invoketimer();reset.onclick=function(){svg.setCurrentTime(0);timer.clear();svg.unpauseAnimations();pause.innerHTML = "◼";};pause.onclick=function(){if(svg.animationsPaused()){svg.unpauseAnimations();timer.resume();pause.innerHTML="◼"}else{svg.pauseAnimations();timer.pause();pause.innerHTML="▶"}}]]></script></svg>