<svg id="kvg-07562-Kaisho" class="kanjivg" width="106" height="126" xmlns="http://www.w3.org/2000/svg" xmlns:xlink="http://www.w3.org/1999/xlink" xml:space="preserve" version="1.1" baseProfile="full"><defs><style type="text/css"><![CDATA[path.black{fill:none;stroke:black;stroke-width:5;stroke-linecap:round;stroke-linejoin:round;}path.grey{fill:none;stroke:#ddd;stroke-width:5;stroke-linecap:round;stroke-linejoin:round;}path.stroke{fill:none;stroke:black;stroke-width:5;stroke-linecap:round;stroke-linejoin:round;}rect{fill:none;stroke:#555;stroke-width:2;} text{font-size:16px;font-family:Segoe UI Symbol,Cambria Math,DejaVu Sans,Symbola,Quivira,STIX,Code2000;-webkit-touch-callout:none;cursor:pointer;-webkit-user-select:none;-khtml-user-select:none;-moz-user-select:none;-ms-user-select:none;user-select: none;}text:hover{color:#777;}#reset{font-weight:bold;}]]></style><marker id="markerStart" markerWidth="8" markerHeight="8" style="overflow:visible;"><circle cx="0" cy="0" r="1.5" style="stroke:none;fill:red;fill-opacity:0.5;"/></marker><marker id="markerEnd" style="overflow:visible;"><circle cx="0" cy="0" r="0.8" style="stroke:none;fill:blue;fill-opacity:0.5;"><animate attributeName="opacity" from="1" to="0" dur="3s" repeatCount="indefinite" /></circle></marker></defs><rect x="4" y="4" width="100" height="100" /><path d="M26.49,13.77c0.41,0.38,0.42,0.65,0.64,1.13c1.83,3.95,3.56,13.94,4.69,21.31" class="grey" /><path d="M28.39,14.3c14.21-1,40.06-2.19,50.66-3.02c3.9-0.31,4.44,0.72,4.19,3.37c-0.38,4.04-2.54,12.84-4.33,19.5" class="grey" /><path d="M53.48,15.22c0.77,0.78,0.63,1.59,0.67,2.53c0.27,5.65,0.08,12.32,0.08,15.26" class="grey" /><path d="M31.04,24.52c11.24-0.93,22.53-1.38,33.79-2.01c1.35-0.08,2.67-0.15,3.93-0.22" class="grey" /><path d="M32.56,35.13c11.69-0.88,32.24-2.2,46.36-2.89" class="grey" /><path d="M14.25,52.2c1.85,0.54,5.25,0.68,7.1,0.54c19.73-1.49,47.77-4.74,68.42-4.73c3.09,0,4.94,0.26,6.48,0.53" class="grey" /><path d="M30.25,42c1.67,1.21,2.2,1.58,2.38,2.33c1.66,6.99,2.65,13.63,3.12,16.17" class="grey" /><path d="M77.91,39.25c0.65,1.09,1.48,2.31,1.04,3.69c-1.54,4.84-1.93,8.15-3.85,15.06" class="grey" /><path d="M19,67.96c1.74,0.43,3.77,0.57,5.5,0.43c17.33-1.4,42.89-3.9,61.68-4.73c2.89-0.13,4.63,0.21,6.08,0.42" class="grey" /><path d="M27.5,80.96c1.55,0.43,3.35,0.57,4.89,0.43c15.42-1.4,31.48-3.4,48.2-4.23c2.57-0.13,4.12,0.21,5.41,0.42" class="grey" /><path d="M52.87,36.25c1.09,0.5,1.74,2.25,1.96,3.25c0.22,1,0,52.75-0.22,59" class="grey" /><path d="M26.49,13.77c0.41,0.38,0.42,0.65,0.64,1.13c1.83,3.95,3.56,13.94,4.69,21.31" class="stroke" stroke-dasharray="150"><animate attributeName="stroke-dashoffset" from="150" to="0" dur="1.8s" begin="0.0s" fill="freeze" /></path><path d="M28.39,14.3c14.21-1,40.06-2.19,50.66-3.02c3.9-0.31,4.44,0.72,4.19,3.37c-0.38,4.04-2.54,12.84-4.33,19.5" class="stroke" stroke-dasharray="150"><set attributeName="opacity" to="0" dur="1.0s" /><animate attributeName="stroke-dashoffset" from="150" to="0" dur="1.8s" begin="1.0s" fill="freeze" /></path><path d="M53.48,15.22c0.77,0.78,0.63,1.59,0.67,2.53c0.27,5.65,0.08,12.32,0.08,15.26" class="stroke" stroke-dasharray="150"><set attributeName="opacity" to="0" dur="2.7s" /><animate attributeName="stroke-dashoffset" from="150" to="0" dur="1.8s" begin="2.7s" fill="freeze" /></path><path d="M31.04,24.52c11.24-0.93,22.53-1.38,33.79-2.01c1.35-0.08,2.67-0.15,3.93-0.22" class="stroke" stroke-dasharray="150"><set attributeName="opacity" to="0" dur="3.6s" /><animate attributeName="stroke-dashoffset" from="150" to="0" dur="1.8s" begin="3.6s" fill="freeze" /></path><path d="M32.56,35.13c11.69-0.88,32.24-2.2,46.36-2.89" class="stroke" stroke-dasharray="150"><set attributeName="opacity" to="0" dur="4.6s" /><animate attributeName="stroke-dashoffset" from="150" to="0" dur="1.8s" begin="4.6s" fill="freeze" /></path><path d="M14.25,52.2c1.85,0.54,5.25,0.68,7.1,0.54c19.73-1.49,47.77-4.74,68.42-4.73c3.09,0,4.94,0.26,6.48,0.53" class="stroke" stroke-dasharray="150"><set attributeName="opacity" to="0" dur="5.8s" /><animate attributeName="stroke-dashoffset" from="150" to="0" dur="1.8s" begin="5.8s" fill="freeze" /></path><path d="M30.25,42c1.67,1.21,2.2,1.58,2.38,2.33c1.66,6.99,2.65,13.63,3.12,16.17" class="stroke" stroke-dasharray="150"><set attributeName="opacity" to="0" dur="7.5s" /><animate attributeName="stroke-dashoffset" from="150" to="0" dur="1.8s" begin="7.5s" fill="freeze" /></path><path d="M77.91,39.25c0.65,1.09,1.48,2.31,1.04,3.69c-1.54,4.84-1.93,8.15-3.85,15.06" class="stroke" stroke-dasharray="150"><set attributeName="opacity" to="0" dur="8.4s" /><animate attributeName="stroke-dashoffset" from="150" to="0" dur="1.8s" begin="8.4s" fill="freeze" /></path><path d="M19,67.96c1.74,0.43,3.77,0.57,5.5,0.43c17.33-1.4,42.89-3.9,61.68-4.73c2.89-0.13,4.63,0.21,6.08,0.42" class="stroke" stroke-dasharray="150"><set attributeName="opacity" to="0" dur="9.3s" /><animate attributeName="stroke-dashoffset" from="150" to="0" dur="1.8s" begin="9.3s" fill="freeze" /></path><path d="M27.5,80.96c1.55,0.43,3.35,0.57,4.89,0.43c15.42-1.4,31.48-3.4,48.2-4.23c2.57-0.13,4.12,0.21,5.41,0.42" class="stroke" stroke-dasharray="150"><set attributeName="opacity" to="0" dur="11.0s" /><animate attributeName="stroke-dashoffset" from="150" to="0" dur="1.8s" begin="11.0s" fill="freeze" /></path><path d="M52.87,36.25c1.09,0.5,1.74,2.25,1.96,3.25c0.22,1,0,52.75-0.22,59" class="stroke" stroke-dasharray="150"><set attributeName="opacity" to="0" dur="12.4s" /><animate attributeName="stroke-dashoffset" from="150" to="0" dur="1.8s" begin="12.4s" fill="freeze" /></path><text x="90" y="120" id="reset-kvg-07562-Kaisho">⟳</text><text x="70" y="120" id="pause-kvg-07562-Kaisho">◼</text><script type="text/javascript"><![CDATA[function RecurringTimer(e,t){var n,r,i=t;this.pause=function(){window.clearTimeout(n);i-=new Date-r};var s=function(){r=new Date;n=window.setTimeout(function(){i=t;s();e()},i)};this.clear=function(){window.clearTimeout(n);i=t;n=window.setTimeout(function(){i=t;s();e()},i)};this.resume=s;this.resume()}function invoketimer(){timer=new RecurringTimer(function(){svg.setCurrentTime(0)},14900.0)}var svg=document.getElementById("kvg-07562-Kaisho");var pause=document.getElementById("pause-kvg-07562-Kaisho");var reset=document.getElementById("reset-kvg-07562-Kaisho");var timer;invoketimer();reset.onclick=function(){svg.setCurrentTime(0);timer.clear();svg.unpauseAnimations();pause.innerHTML = "◼";};pause.onclick=function(){if(svg.animationsPaused()){svg.unpauseAnimations();timer.resume();pause.innerHTML="◼"}else{svg.pauseAnimations();timer.pause();pause.innerHTML="▶"}}]]></script></svg>