<svg id="kvg-075be" class="kanjivg" width="106" height="126" xmlns="http://www.w3.org/2000/svg" xmlns:xlink="http://www.w3.org/1999/xlink" xml:space="preserve" version="1.1" baseProfile="full"><defs><style type="text/css"><![CDATA[path.black{fill:none;stroke:black;stroke-width:5;stroke-linecap:round;stroke-linejoin:round;}path.grey{fill:none;stroke:#ddd;stroke-width:5;stroke-linecap:round;stroke-linejoin:round;}path.stroke{fill:none;stroke:black;stroke-width:5;stroke-linecap:round;stroke-linejoin:round;}rect{fill:none;stroke:#555;stroke-width:2;} text{font-size:16px;font-family:Segoe UI Symbol,Cambria Math,DejaVu Sans,Symbola,Quivira,STIX,Code2000;-webkit-touch-callout:none;cursor:pointer;-webkit-user-select:none;-khtml-user-select:none;-moz-user-select:none;-ms-user-select:none;user-select: none;}text:hover{color:#777;}#reset{font-weight:bold;}]]></style><marker id="markerStart" markerWidth="8" markerHeight="8" style="overflow:visible;"><circle cx="0" cy="0" r="1.5" style="stroke:none;fill:red;fill-opacity:0.5;"/></marker><marker id="markerEnd" style="overflow:visible;"><circle cx="0" cy="0" r="0.8" style="stroke:none;fill:blue;fill-opacity:0.5;"><animate attributeName="opacity" from="1" to="0" dur="3s" repeatCount="indefinite" /></circle></marker></defs><rect x="4" y="4" width="100" height="100" /><path d="M57.81,11.38c0.97,0.97,1.51,2.37,1.51,3.9c0,0.79,0.08,3.65-0.07,8.46" class="grey" /><path d="M28.63,26.23c2.91,1.04,6.39,0.6,9.39,0.31c14.86-1.42,30.65-2.99,43.37-3.82c2.91-0.19,5.63-0.27,8.49,0.35" class="grey" /><path d="M30.74,27.25c0.88,0.88,1,2.19,0.99,3.5c-0.11,33.09-1.75,51.26-14.68,64.21" class="grey" /><path d="M13.62,38.12c3.4,1.83,8.77,7.53,9.62,10.38" class="grey" /><path d="M12.42,71.22c1.08,0.4,2.07,0.55,3.46-0.39C21.5,67,24.75,64.55,29,61.25" class="grey" /><path d="M51.47,34c0.07,1.16-0.01,2.26-0.27,3.39c-1.28,5.56-5.32,14.49-11.24,20.73" class="grey" /><path d="M52.37,45.15c1.34,0.09,4.42-0.38,5.35-0.55c3.47-0.63,12.1-2.02,18.04-3.15c1.54-0.29,3.36-0.58,4.97-0.31" class="grey" /><path d="M36.64,64.88c2.85,0.96,5.95,0.56,8.87,0.28c13.9-1.31,30.27-3.1,39.98-3.75c2.73-0.18,5.42-0.22,8.11,0.37" class="grey" /><path d="M63.48,47.33c0.28,0.78,0.57,1.51,0.56,3.03c-0.18,26.27-9.19,38.97-24.02,47.04" class="grey" /><path d="M64.96,65.59C72,75,78.88,83.75,85.88,91.25c2.27,2.42,5.24,4.75,8.1,6.28" class="grey" /><path d="M57.81,11.38c0.97,0.97,1.51,2.37,1.51,3.9c0,0.79,0.08,3.65-0.07,8.46" class="stroke" stroke-dasharray="150"><animate attributeName="stroke-dashoffset" from="150" to="0" dur="1.8s" begin="0.0s" fill="freeze" /></path><path d="M28.63,26.23c2.91,1.04,6.39,0.6,9.39,0.31c14.86-1.42,30.65-2.99,43.37-3.82c2.91-0.19,5.63-0.27,8.49,0.35" class="stroke" stroke-dasharray="150"><set attributeName="opacity" to="0" dur="0.9s" /><animate attributeName="stroke-dashoffset" from="150" to="0" dur="1.8s" begin="0.9s" fill="freeze" /></path><path d="M30.74,27.25c0.88,0.88,1,2.19,0.99,3.5c-0.11,33.09-1.75,51.26-14.68,64.21" class="stroke" stroke-dasharray="150"><set attributeName="opacity" to="0" dur="2.4s" /><animate attributeName="stroke-dashoffset" from="150" to="0" dur="1.8s" begin="2.4s" fill="freeze" /></path><path d="M13.62,38.12c3.4,1.83,8.77,7.53,9.62,10.38" class="stroke" stroke-dasharray="150"><set attributeName="opacity" to="0" dur="4.1s" /><animate attributeName="stroke-dashoffset" from="150" to="0" dur="1.8s" begin="4.1s" fill="freeze" /></path><path d="M12.42,71.22c1.08,0.4,2.07,0.55,3.46-0.39C21.5,67,24.75,64.55,29,61.25" class="stroke" stroke-dasharray="150"><set attributeName="opacity" to="0" dur="5.0s" /><animate attributeName="stroke-dashoffset" from="150" to="0" dur="1.8s" begin="5.0s" fill="freeze" /></path><path d="M51.47,34c0.07,1.16-0.01,2.26-0.27,3.39c-1.28,5.56-5.32,14.49-11.24,20.73" class="stroke" stroke-dasharray="150"><set attributeName="opacity" to="0" dur="5.9s" /><animate attributeName="stroke-dashoffset" from="150" to="0" dur="1.8s" begin="5.9s" fill="freeze" /></path><path d="M52.37,45.15c1.34,0.09,4.42-0.38,5.35-0.55c3.47-0.63,12.1-2.02,18.04-3.15c1.54-0.29,3.36-0.58,4.97-0.31" class="stroke" stroke-dasharray="150"><set attributeName="opacity" to="0" dur="6.9s" /><animate attributeName="stroke-dashoffset" from="150" to="0" dur="1.8s" begin="6.9s" fill="freeze" /></path><path d="M36.64,64.88c2.85,0.96,5.95,0.56,8.87,0.28c13.9-1.31,30.27-3.1,39.98-3.75c2.73-0.18,5.42-0.22,8.11,0.37" class="stroke" stroke-dasharray="150"><set attributeName="opacity" to="0" dur="7.9s" /><animate attributeName="stroke-dashoffset" from="150" to="0" dur="1.8s" begin="7.9s" fill="freeze" /></path><path d="M63.48,47.33c0.28,0.78,0.57,1.51,0.56,3.03c-0.18,26.27-9.19,38.97-24.02,47.04" class="stroke" stroke-dasharray="150"><set attributeName="opacity" to="0" dur="9.3s" /><animate attributeName="stroke-dashoffset" from="150" to="0" dur="1.8s" begin="9.3s" fill="freeze" /></path><path d="M64.96,65.59C72,75,78.88,83.75,85.88,91.25c2.27,2.42,5.24,4.75,8.1,6.28" class="stroke" stroke-dasharray="150"><set attributeName="opacity" to="0" dur="10.700000000000001s" /><animate attributeName="stroke-dashoffset" from="150" to="0" dur="1.8s" begin="10.700000000000001s" fill="freeze" /></path><text x="90" y="120" id="reset-kvg-075be">⟳</text><text x="70" y="120" id="pause-kvg-075be">◼</text><script type="text/javascript"><![CDATA[function RecurringTimer(e,t){var n,r,i=t;this.pause=function(){window.clearTimeout(n);i-=new Date-r};var s=function(){r=new Date;n=window.setTimeout(function(){i=t;s();e()},i)};this.clear=function(){window.clearTimeout(n);i=t;n=window.setTimeout(function(){i=t;s();e()},i)};this.resume=s;this.resume()}function invoketimer(){timer=new RecurringTimer(function(){svg.setCurrentTime(0)},12800.0)}var svg=document.getElementById("kvg-075be");var pause=document.getElementById("pause-kvg-075be");var reset=document.getElementById("reset-kvg-075be");var timer;invoketimer();reset.onclick=function(){svg.setCurrentTime(0);timer.clear();svg.unpauseAnimations();pause.innerHTML = "◼";};pause.onclick=function(){if(svg.animationsPaused()){svg.unpauseAnimations();timer.resume();pause.innerHTML="◼"}else{svg.pauseAnimations();timer.pause();pause.innerHTML="▶"}}]]></script></svg>