<svg id="kvg-075cd" class="kanjivg" width="106" height="126" xmlns="http://www.w3.org/2000/svg" xmlns:xlink="http://www.w3.org/1999/xlink" xml:space="preserve" version="1.1" baseProfile="full"><defs><style type="text/css"><![CDATA[path.black{fill:none;stroke:black;stroke-width:5;stroke-linecap:round;stroke-linejoin:round;}path.grey{fill:none;stroke:#ddd;stroke-width:5;stroke-linecap:round;stroke-linejoin:round;}path.stroke{fill:none;stroke:black;stroke-width:5;stroke-linecap:round;stroke-linejoin:round;}rect{fill:none;stroke:#555;stroke-width:2;} text{font-size:16px;font-family:Segoe UI Symbol,Cambria Math,DejaVu Sans,Symbola,Quivira,STIX,Code2000;-webkit-touch-callout:none;cursor:pointer;-webkit-user-select:none;-khtml-user-select:none;-moz-user-select:none;-ms-user-select:none;user-select: none;}text:hover{color:#777;}#reset{font-weight:bold;}]]></style><marker id="markerStart" markerWidth="8" markerHeight="8" style="overflow:visible;"><circle cx="0" cy="0" r="1.5" style="stroke:none;fill:red;fill-opacity:0.5;"/></marker><marker id="markerEnd" style="overflow:visible;"><circle cx="0" cy="0" r="0.8" style="stroke:none;fill:blue;fill-opacity:0.5;"><animate attributeName="opacity" from="1" to="0" dur="3s" repeatCount="indefinite" /></circle></marker></defs><rect x="4" y="4" width="100" height="100" /><path d="M55.91,10.13c0.7,0.36,2.18,2.66,2.32,3.37c0.14,0.71,0.07,5.3-0.07,9.74" class="grey" /><path d="M27.63,24.23c1.52,0.54,4.3,0.63,5.82,0.54c15.8-0.91,40.05-2.02,54.11-2.73c2.53-0.13,4.05,0.26,5.31,0.53" class="grey" /><path d="M31.49,25.5c0,1.45,0,2.86-0.01,4.25c-0.16,34.83-2.53,49.92-16.18,66.72" class="grey" /><path d="M11.5,37.25c4.06,2.03,10.48,8.34,11.5,11.5" class="grey" /><path d="M9.17,66.03c1.55,0.68,3.04,0.49,4.41-0.35c5.53-3.37,8.73-5.52,12.92-8.43" class="grey" /><path d="M43.47,37.33c1.39,0.33,3.93,0.36,5.32,0.33c7.16-0.17,21.66-2.82,34.87-2.82c2.31,0,3.7,0.16,4.86,0.32" class="grey" /><path d="M42.48,45.94c1.41,1.01,2.93,1.03,4.86,0.82c1.93-0.21,31.45-2.67,35.31-3.29c3.86-0.62,4.66,1.33,3.77,3.14c-0.92,1.89-1.67,5.54-2.11,7.96" class="grey" /><path d="M45.62,57.34c10.63-0.59,25.13-2.09,36.46-2.74c2.16-0.12,3.46,0.16,4.54,0.33" class="grey" /><path d="M44.67,55.26c0.33,0.99,0.53,2.26,0.23,3.87c-0.4,2.12-1.06,6.64-1.98,7.6c-1.53,1.59-1.31,4.26,1.74,3.76c4.24-0.7,38.38-4.04,44.55-4.73c3.15-0.35,4.98,1.09,4.23,4.39c-1.13,4.93-2.54,7.19-5.1,10.42c-3.88,4.9-4.88,1.26-6.64-0.52" class="grey" /><path d="M61.82,28.25c1.31,1.48,1.75,2.36,1.75,4.9c0,23.19,2.68,54.35-30.51,65.83" class="grey" /><path d="M63.08,71.47c4.08,4.89,21.66,20.87,26.16,24.45c1.53,1.22,3.49,1.74,5.01,2.08" class="grey" /><path d="M55.91,10.13c0.7,0.36,2.18,2.66,2.32,3.37c0.14,0.71,0.07,5.3-0.07,9.74" class="stroke" stroke-dasharray="150"><animate attributeName="stroke-dashoffset" from="150" to="0" dur="1.8s" begin="0.0s" fill="freeze" /></path><path d="M27.63,24.23c1.52,0.54,4.3,0.63,5.82,0.54c15.8-0.91,40.05-2.02,54.11-2.73c2.53-0.13,4.05,0.26,5.31,0.53" class="stroke" stroke-dasharray="150"><set attributeName="opacity" to="0" dur="0.9s" /><animate attributeName="stroke-dashoffset" from="150" to="0" dur="1.8s" begin="0.9s" fill="freeze" /></path><path d="M31.49,25.5c0,1.45,0,2.86-0.01,4.25c-0.16,34.83-2.53,49.92-16.18,66.72" class="stroke" stroke-dasharray="150"><set attributeName="opacity" to="0" dur="2.4s" /><animate attributeName="stroke-dashoffset" from="150" to="0" dur="1.8s" begin="2.4s" fill="freeze" /></path><path d="M11.5,37.25c4.06,2.03,10.48,8.34,11.5,11.5" class="stroke" stroke-dasharray="150"><set attributeName="opacity" to="0" dur="4.1s" /><animate attributeName="stroke-dashoffset" from="150" to="0" dur="1.8s" begin="4.1s" fill="freeze" /></path><path d="M9.17,66.03c1.55,0.68,3.04,0.49,4.41-0.35c5.53-3.37,8.73-5.52,12.92-8.43" class="stroke" stroke-dasharray="150"><set attributeName="opacity" to="0" dur="5.0s" /><animate attributeName="stroke-dashoffset" from="150" to="0" dur="1.8s" begin="5.0s" fill="freeze" /></path><path d="M43.47,37.33c1.39,0.33,3.93,0.36,5.32,0.33c7.16-0.17,21.66-2.82,34.87-2.82c2.31,0,3.7,0.16,4.86,0.32" class="stroke" stroke-dasharray="150"><set attributeName="opacity" to="0" dur="6.0s" /><animate attributeName="stroke-dashoffset" from="150" to="0" dur="1.8s" begin="6.0s" fill="freeze" /></path><path d="M42.48,45.94c1.41,1.01,2.93,1.03,4.86,0.82c1.93-0.21,31.45-2.67,35.31-3.29c3.86-0.62,4.66,1.33,3.77,3.14c-0.92,1.89-1.67,5.54-2.11,7.96" class="stroke" stroke-dasharray="150"><set attributeName="opacity" to="0" dur="7.2s" /><animate attributeName="stroke-dashoffset" from="150" to="0" dur="1.8s" begin="7.2s" fill="freeze" /></path><path d="M45.62,57.34c10.63-0.59,25.13-2.09,36.46-2.74c2.16-0.12,3.46,0.16,4.54,0.33" class="stroke" stroke-dasharray="150"><set attributeName="opacity" to="0" dur="8.6s" /><animate attributeName="stroke-dashoffset" from="150" to="0" dur="1.8s" begin="8.6s" fill="freeze" /></path><path d="M44.67,55.26c0.33,0.99,0.53,2.26,0.23,3.87c-0.4,2.12-1.06,6.64-1.98,7.6c-1.53,1.59-1.31,4.26,1.74,3.76c4.24-0.7,38.38-4.04,44.55-4.73c3.15-0.35,4.98,1.09,4.23,4.39c-1.13,4.93-2.54,7.19-5.1,10.42c-3.88,4.9-4.88,1.26-6.64-0.52" class="stroke" stroke-dasharray="150"><set attributeName="opacity" to="0" dur="9.7s" /><animate attributeName="stroke-dashoffset" from="150" to="0" dur="1.8s" begin="9.7s" fill="freeze" /></path><path d="M61.82,28.25c1.31,1.48,1.75,2.36,1.75,4.9c0,23.19,2.68,54.35-30.51,65.83" class="stroke" stroke-dasharray="150"><set attributeName="opacity" to="0" dur="11.5s" /><animate attributeName="stroke-dashoffset" from="150" to="0" dur="1.8s" begin="11.5s" fill="freeze" /></path><path d="M63.08,71.47c4.08,4.89,21.66,20.87,26.16,24.45c1.53,1.22,3.49,1.74,5.01,2.08" class="stroke" stroke-dasharray="150"><set attributeName="opacity" to="0" dur="13.2s" /><animate attributeName="stroke-dashoffset" from="150" to="0" dur="1.8s" begin="13.2s" fill="freeze" /></path><text x="90" y="120" id="reset-kvg-075cd">⟳</text><text x="70" y="120" id="pause-kvg-075cd">◼</text><script type="text/javascript"><![CDATA[function RecurringTimer(e,t){var n,r,i=t;this.pause=function(){window.clearTimeout(n);i-=new Date-r};var s=function(){r=new Date;n=window.setTimeout(function(){i=t;s();e()},i)};this.clear=function(){window.clearTimeout(n);i=t;n=window.setTimeout(function(){i=t;s();e()},i)};this.resume=s;this.resume()}function invoketimer(){timer=new RecurringTimer(function(){svg.setCurrentTime(0)},15299.999999999998)}var svg=document.getElementById("kvg-075cd");var pause=document.getElementById("pause-kvg-075cd");var reset=document.getElementById("reset-kvg-075cd");var timer;invoketimer();reset.onclick=function(){svg.setCurrentTime(0);timer.clear();svg.unpauseAnimations();pause.innerHTML = "◼";};pause.onclick=function(){if(svg.animationsPaused()){svg.unpauseAnimations();timer.resume();pause.innerHTML="◼"}else{svg.pauseAnimations();timer.pause();pause.innerHTML="▶"}}]]></script></svg>