<svg id="kvg-075f3-Kaisho" class="kanjivg" width="106" height="126" xmlns="http://www.w3.org/2000/svg" xmlns:xlink="http://www.w3.org/1999/xlink" xml:space="preserve" version="1.1" baseProfile="full"><defs><style type="text/css"><![CDATA[path.black{fill:none;stroke:black;stroke-width:5;stroke-linecap:round;stroke-linejoin:round;}path.grey{fill:none;stroke:#ddd;stroke-width:5;stroke-linecap:round;stroke-linejoin:round;}path.stroke{fill:none;stroke:black;stroke-width:5;stroke-linecap:round;stroke-linejoin:round;}rect{fill:none;stroke:#555;stroke-width:2;} text{font-size:16px;font-family:Segoe UI Symbol,Cambria Math,DejaVu Sans,Symbola,Quivira,STIX,Code2000;-webkit-touch-callout:none;cursor:pointer;-webkit-user-select:none;-khtml-user-select:none;-moz-user-select:none;-ms-user-select:none;user-select: none;}text:hover{color:#777;}#reset{font-weight:bold;}]]></style><marker id="markerStart" markerWidth="8" markerHeight="8" style="overflow:visible;"><circle cx="0" cy="0" r="1.5" style="stroke:none;fill:red;fill-opacity:0.5;"/></marker><marker id="markerEnd" style="overflow:visible;"><circle cx="0" cy="0" r="0.8" style="stroke:none;fill:blue;fill-opacity:0.5;"><animate attributeName="opacity" from="1" to="0" dur="3s" repeatCount="indefinite" /></circle></marker></defs><rect x="4" y="4" width="100" height="100" /><path d="M50.59,11.13c1.78,0.82,5.54,6.12,5.89,7.75" class="grey" /><path d="M23.63,24.73c1.52,0.54,4.3,0.63,5.82,0.54c15.8-0.91,42.05-3.02,56.11-3.73c2.53-0.13,4.05,0.26,5.31,0.53" class="grey" /><path d="M28.49,25.5c0,1.1,0,2.18-0.01,3.24c-0.15,34.27-2.84,49.74-14.18,65.23" class="grey" /><path d="M11.5,37.5c3.18,1.9,8.21,7.8,9,10.75" class="grey" /><path d="M9.67,67.47c1.39,0.78,1.82,0.55,3.04-0.39c4.94-3.83,7.8-6.27,11.54-9.58" class="grey" /><path d="M33.38,47.06c0.62,0.22,2.49,0.19,4.14,0c5.79-0.66,10.11-1.7,16.31-2.14c1.65-0.12,2.89-0.22,3.93,0" class="grey" /><path d="M43.89,32.17c1.33,0.39,2.13,1.76,2.4,2.54s-0.27,54.15-0.27,59.04c0,11.25-5.39,1.62-6.52,0.5" class="grey" /><path d="M46.28,49.42C43.1,59.3,33.62,75.87,27,81.46" class="grey" /><path d="M49.91,56.43c3.15,2.12,6.52,6.35,8.31,10.06" class="grey" /><path d="M64.31,44.04c0.44,0.14,1.4,0.22,2.58,0.14c4.15-0.29,15.27-1.29,23.38-2c1.17-0.1,2.2-0.14,2.94,0" class="grey" /><path d="M73.33,29.5c1.33,0.39,2.13,1.76,2.39,2.54c0.27,0.78-0.27,55.76-0.27,60.65c0,11.81-5.08,4.19-6.46,2.81" class="grey" /><path d="M75.46,45.03C72.33,56.76,62.58,73.09,55.31,79.1" class="grey" /><path d="M75.99,47.44c5.11,11.69,13.28,26.69,17.42,31.3c1.18,1.31,1.84,2.22,2.83,2.66" class="grey" /><path d="M50.59,11.13c1.78,0.82,5.54,6.12,5.89,7.75" class="stroke" stroke-dasharray="150"><animate attributeName="stroke-dashoffset" from="150" to="0" dur="1.8s" begin="0.0s" fill="freeze" /></path><path d="M23.63,24.73c1.52,0.54,4.3,0.63,5.82,0.54c15.8-0.91,42.05-3.02,56.11-3.73c2.53-0.13,4.05,0.26,5.31,0.53" class="stroke" stroke-dasharray="150"><set attributeName="opacity" to="0" dur="0.9s" /><animate attributeName="stroke-dashoffset" from="150" to="0" dur="1.8s" begin="0.9s" fill="freeze" /></path><path d="M28.49,25.5c0,1.1,0,2.18-0.01,3.24c-0.15,34.27-2.84,49.74-14.18,65.23" class="stroke" stroke-dasharray="150"><set attributeName="opacity" to="0" dur="2.4s" /><animate attributeName="stroke-dashoffset" from="150" to="0" dur="1.8s" begin="2.4s" fill="freeze" /></path><path d="M11.5,37.5c3.18,1.9,8.21,7.8,9,10.75" class="stroke" stroke-dasharray="150"><set attributeName="opacity" to="0" dur="4.1s" /><animate attributeName="stroke-dashoffset" from="150" to="0" dur="1.8s" begin="4.1s" fill="freeze" /></path><path d="M9.67,67.47c1.39,0.78,1.82,0.55,3.04-0.39c4.94-3.83,7.8-6.27,11.54-9.58" class="stroke" stroke-dasharray="150"><set attributeName="opacity" to="0" dur="5.0s" /><animate attributeName="stroke-dashoffset" from="150" to="0" dur="1.8s" begin="5.0s" fill="freeze" /></path><path d="M33.38,47.06c0.62,0.22,2.49,0.19,4.14,0c5.79-0.66,10.11-1.7,16.31-2.14c1.65-0.12,2.89-0.22,3.93,0" class="stroke" stroke-dasharray="150"><set attributeName="opacity" to="0" dur="5.9s" /><animate attributeName="stroke-dashoffset" from="150" to="0" dur="1.8s" begin="5.9s" fill="freeze" /></path><path d="M43.89,32.17c1.33,0.39,2.13,1.76,2.4,2.54s-0.27,54.15-0.27,59.04c0,11.25-5.39,1.62-6.52,0.5" class="stroke" stroke-dasharray="150"><set attributeName="opacity" to="0" dur="6.9s" /><animate attributeName="stroke-dashoffset" from="150" to="0" dur="1.8s" begin="6.9s" fill="freeze" /></path><path d="M46.28,49.42C43.1,59.3,33.62,75.87,27,81.46" class="stroke" stroke-dasharray="150"><set attributeName="opacity" to="0" dur="8.6s" /><animate attributeName="stroke-dashoffset" from="150" to="0" dur="1.8s" begin="8.6s" fill="freeze" /></path><path d="M49.91,56.43c3.15,2.12,6.52,6.35,8.31,10.06" class="stroke" stroke-dasharray="150"><set attributeName="opacity" to="0" dur="9.6s" /><animate attributeName="stroke-dashoffset" from="150" to="0" dur="1.8s" begin="9.6s" fill="freeze" /></path><path d="M64.31,44.04c0.44,0.14,1.4,0.22,2.58,0.14c4.15-0.29,15.27-1.29,23.38-2c1.17-0.1,2.2-0.14,2.94,0" class="stroke" stroke-dasharray="150"><set attributeName="opacity" to="0" dur="10.5s" /><animate attributeName="stroke-dashoffset" from="150" to="0" dur="1.8s" begin="10.5s" fill="freeze" /></path><path d="M73.33,29.5c1.33,0.39,2.13,1.76,2.39,2.54c0.27,0.78-0.27,55.76-0.27,60.65c0,11.81-5.08,4.19-6.46,2.81" class="stroke" stroke-dasharray="150"><set attributeName="opacity" to="0" dur="11.5s" /><animate attributeName="stroke-dashoffset" from="150" to="0" dur="1.8s" begin="11.5s" fill="freeze" /></path><path d="M75.46,45.03C72.33,56.76,62.58,73.09,55.31,79.1" class="stroke" stroke-dasharray="150"><set attributeName="opacity" to="0" dur="13.2s" /><animate attributeName="stroke-dashoffset" from="150" to="0" dur="1.8s" begin="13.2s" fill="freeze" /></path><path d="M75.99,47.44c5.11,11.69,13.28,26.69,17.42,31.3c1.18,1.31,1.84,2.22,2.83,2.66" class="stroke" stroke-dasharray="150"><set attributeName="opacity" to="0" dur="14.299999999999999s" /><animate attributeName="stroke-dashoffset" from="150" to="0" dur="1.8s" begin="14.299999999999999s" fill="freeze" /></path><text x="90" y="120" id="reset-kvg-075f3-Kaisho">⟳</text><text x="70" y="120" id="pause-kvg-075f3-Kaisho">◼</text><script type="text/javascript"><![CDATA[function RecurringTimer(e,t){var n,r,i=t;this.pause=function(){window.clearTimeout(n);i-=new Date-r};var s=function(){r=new Date;n=window.setTimeout(function(){i=t;s();e()},i)};this.clear=function(){window.clearTimeout(n);i=t;n=window.setTimeout(function(){i=t;s();e()},i)};this.resume=s;this.resume()}function invoketimer(){timer=new RecurringTimer(function(){svg.setCurrentTime(0)},16299.999999999998)}var svg=document.getElementById("kvg-075f3-Kaisho");var pause=document.getElementById("pause-kvg-075f3-Kaisho");var reset=document.getElementById("reset-kvg-075f3-Kaisho");var timer;invoketimer();reset.onclick=function(){svg.setCurrentTime(0);timer.clear();svg.unpauseAnimations();pause.innerHTML = "◼";};pause.onclick=function(){if(svg.animationsPaused()){svg.unpauseAnimations();timer.resume();pause.innerHTML="◼"}else{svg.pauseAnimations();timer.pause();pause.innerHTML="▶"}}]]></script></svg>