<svg id="kvg-075f0" class="kanjivg" width="106" height="126" xmlns="http://www.w3.org/2000/svg" xmlns:xlink="http://www.w3.org/1999/xlink" xml:space="preserve" version="1.1" baseProfile="full"><defs><style type="text/css"><![CDATA[path.black{fill:none;stroke:black;stroke-width:5;stroke-linecap:round;stroke-linejoin:round;}path.grey{fill:none;stroke:#ddd;stroke-width:5;stroke-linecap:round;stroke-linejoin:round;}path.stroke{fill:none;stroke:black;stroke-width:5;stroke-linecap:round;stroke-linejoin:round;}rect{fill:none;stroke:#555;stroke-width:2;} text{font-size:16px;font-family:Segoe UI Symbol,Cambria Math,DejaVu Sans,Symbola,Quivira,STIX,Code2000;-webkit-touch-callout:none;cursor:pointer;-webkit-user-select:none;-khtml-user-select:none;-moz-user-select:none;-ms-user-select:none;user-select: none;}text:hover{color:#777;}#reset{font-weight:bold;}]]></style><marker id="markerStart" markerWidth="8" markerHeight="8" style="overflow:visible;"><circle cx="0" cy="0" r="1.5" style="stroke:none;fill:red;fill-opacity:0.5;"/></marker><marker id="markerEnd" style="overflow:visible;"><circle cx="0" cy="0" r="0.8" style="stroke:none;fill:blue;fill-opacity:0.5;"><animate attributeName="opacity" from="1" to="0" dur="3s" repeatCount="indefinite" /></circle></marker></defs><rect x="4" y="4" width="100" height="100" /><path d="M55.41,9.63c0.7,0.36,2.18,2.66,2.32,3.37c0.14,0.71,0.07,4.3-0.07,8.74" class="grey" /><path d="M26.13,23.73c1.52,0.54,4.3,0.63,5.82,0.54c15.8-0.91,39.55-3.02,53.61-3.73c2.53-0.13,4.05,0.26,5.31,0.53" class="grey" /><path d="M30.99,24.5c0,0.85,0,1.68,0,2.5c-0.11,36.84-2.8,51.66-16.68,69.97" class="grey" /><path d="M12.75,36.5c3.44,2.34,8.89,9.61,9.75,13.25" class="grey" /><path d="M10.17,66.05c1.52,0.65,2,0.46,3.34-0.33c5.42-3.19,8.56-5.22,12.66-7.97" class="grey" /><path d="M42.87,34.57c2.71,1.99,6.65,7.61,7.38,9.59" class="grey" /><path d="M81.01,32.33c0.51,0.41,0.13,2.07-0.33,2.7c-0.46,0.63-6.55,5.96-8.84,7.44" class="grey" /><path d="M62.04,28.75c0.96,1,0.8,2.79,0.73,3.3c-2.07,14.81-5.15,20.83-23.26,27.31" class="grey" /><path d="M61.76,39.81c8.49,7.47,18.78,15.07,24.37,18.18c1.76,0.98,2.17,0.87,3.61,1.12" class="grey" /><path d="M40,66.18c4.51,2.83,7.31,9.86,8.54,12.69" class="grey" /><path d="M81.18,65.21c0.59,1.19,0.48,2.64-0.19,3.68s-5.86,5.38-9.21,7.8" class="grey" /><path d="M60.96,57.4c0.75,0.83,1.22,2.76,1.18,3.46C60.87,84.23,47.5,94,30.43,99.25" class="grey" /><path d="M61.14,71.92c9.98,10.37,22.09,20.92,28.68,25.24c2.07,1.36,2.55,1.21,4.25,1.55" class="grey" /><path d="M55.41,9.63c0.7,0.36,2.18,2.66,2.32,3.37c0.14,0.71,0.07,4.3-0.07,8.74" class="stroke" stroke-dasharray="150"><animate attributeName="stroke-dashoffset" from="150" to="0" dur="1.8s" begin="0.0s" fill="freeze" /></path><path d="M26.13,23.73c1.52,0.54,4.3,0.63,5.82,0.54c15.8-0.91,39.55-3.02,53.61-3.73c2.53-0.13,4.05,0.26,5.31,0.53" class="stroke" stroke-dasharray="150"><set attributeName="opacity" to="0" dur="0.9s" /><animate attributeName="stroke-dashoffset" from="150" to="0" dur="1.8s" begin="0.9s" fill="freeze" /></path><path d="M30.99,24.5c0,0.85,0,1.68,0,2.5c-0.11,36.84-2.8,51.66-16.68,69.97" class="stroke" stroke-dasharray="150"><set attributeName="opacity" to="0" dur="2.4s" /><animate attributeName="stroke-dashoffset" from="150" to="0" dur="1.8s" begin="2.4s" fill="freeze" /></path><path d="M12.75,36.5c3.44,2.34,8.89,9.61,9.75,13.25" class="stroke" stroke-dasharray="150"><set attributeName="opacity" to="0" dur="4.1s" /><animate attributeName="stroke-dashoffset" from="150" to="0" dur="1.8s" begin="4.1s" fill="freeze" /></path><path d="M10.17,66.05c1.52,0.65,2,0.46,3.34-0.33c5.42-3.19,8.56-5.22,12.66-7.97" class="stroke" stroke-dasharray="150"><set attributeName="opacity" to="0" dur="5.0s" /><animate attributeName="stroke-dashoffset" from="150" to="0" dur="1.8s" begin="5.0s" fill="freeze" /></path><path d="M42.87,34.57c2.71,1.99,6.65,7.61,7.38,9.59" class="stroke" stroke-dasharray="150"><set attributeName="opacity" to="0" dur="5.9s" /><animate attributeName="stroke-dashoffset" from="150" to="0" dur="1.8s" begin="5.9s" fill="freeze" /></path><path d="M81.01,32.33c0.51,0.41,0.13,2.07-0.33,2.7c-0.46,0.63-6.55,5.96-8.84,7.44" class="stroke" stroke-dasharray="150"><set attributeName="opacity" to="0" dur="6.800000000000001s" /><animate attributeName="stroke-dashoffset" from="150" to="0" dur="1.8s" begin="6.800000000000001s" fill="freeze" /></path><path d="M62.04,28.75c0.96,1,0.8,2.79,0.73,3.3c-2.07,14.81-5.15,20.83-23.26,27.31" class="stroke" stroke-dasharray="150"><set attributeName="opacity" to="0" dur="7.700000000000001s" /><animate attributeName="stroke-dashoffset" from="150" to="0" dur="1.8s" begin="7.700000000000001s" fill="freeze" /></path><path d="M61.76,39.81c8.49,7.47,18.78,15.07,24.37,18.18c1.76,0.98,2.17,0.87,3.61,1.12" class="stroke" stroke-dasharray="150"><set attributeName="opacity" to="0" dur="8.8s" /><animate attributeName="stroke-dashoffset" from="150" to="0" dur="1.8s" begin="8.8s" fill="freeze" /></path><path d="M40,66.18c4.51,2.83,7.31,9.86,8.54,12.69" class="stroke" stroke-dasharray="150"><set attributeName="opacity" to="0" dur="9.8s" /><animate attributeName="stroke-dashoffset" from="150" to="0" dur="1.8s" begin="9.8s" fill="freeze" /></path><path d="M81.18,65.21c0.59,1.19,0.48,2.64-0.19,3.68s-5.86,5.38-9.21,7.8" class="stroke" stroke-dasharray="150"><set attributeName="opacity" to="0" dur="10.700000000000001s" /><animate attributeName="stroke-dashoffset" from="150" to="0" dur="1.8s" begin="10.700000000000001s" fill="freeze" /></path><path d="M60.96,57.4c0.75,0.83,1.22,2.76,1.18,3.46C60.87,84.23,47.5,94,30.43,99.25" class="stroke" stroke-dasharray="150"><set attributeName="opacity" to="0" dur="11.600000000000001s" /><animate attributeName="stroke-dashoffset" from="150" to="0" dur="1.8s" begin="11.600000000000001s" fill="freeze" /></path><path d="M61.14,71.92c9.98,10.37,22.09,20.92,28.68,25.24c2.07,1.36,2.55,1.21,4.25,1.55" class="stroke" stroke-dasharray="150"><set attributeName="opacity" to="0" dur="13.000000000000002s" /><animate attributeName="stroke-dashoffset" from="150" to="0" dur="1.8s" begin="13.000000000000002s" fill="freeze" /></path><text x="90" y="120" id="reset-kvg-075f0">⟳</text><text x="70" y="120" id="pause-kvg-075f0">◼</text><script type="text/javascript"><![CDATA[function RecurringTimer(e,t){var n,r,i=t;this.pause=function(){window.clearTimeout(n);i-=new Date-r};var s=function(){r=new Date;n=window.setTimeout(function(){i=t;s();e()},i)};this.clear=function(){window.clearTimeout(n);i=t;n=window.setTimeout(function(){i=t;s();e()},i)};this.resume=s;this.resume()}function invoketimer(){timer=new RecurringTimer(function(){svg.setCurrentTime(0)},15100.000000000002)}var svg=document.getElementById("kvg-075f0");var pause=document.getElementById("pause-kvg-075f0");var reset=document.getElementById("reset-kvg-075f0");var timer;invoketimer();reset.onclick=function(){svg.setCurrentTime(0);timer.clear();svg.unpauseAnimations();pause.innerHTML = "◼";};pause.onclick=function(){if(svg.animationsPaused()){svg.unpauseAnimations();timer.resume();pause.innerHTML="◼"}else{svg.pauseAnimations();timer.pause();pause.innerHTML="▶"}}]]></script></svg>