<svg id="kvg-07642" class="kanjivg" width="106" height="126" xmlns="http://www.w3.org/2000/svg" xmlns:xlink="http://www.w3.org/1999/xlink" xml:space="preserve" version="1.1" baseProfile="full"><defs><style type="text/css"><![CDATA[path.black{fill:none;stroke:black;stroke-width:5;stroke-linecap:round;stroke-linejoin:round;}path.grey{fill:none;stroke:#ddd;stroke-width:5;stroke-linecap:round;stroke-linejoin:round;}path.stroke{fill:none;stroke:black;stroke-width:5;stroke-linecap:round;stroke-linejoin:round;}rect{fill:none;stroke:#555;stroke-width:2;} text{font-size:16px;font-family:Segoe UI Symbol,Cambria Math,DejaVu Sans,Symbola,Quivira,STIX,Code2000;-webkit-touch-callout:none;cursor:pointer;-webkit-user-select:none;-khtml-user-select:none;-moz-user-select:none;-ms-user-select:none;user-select: none;}text:hover{color:#777;}#reset{font-weight:bold;}]]></style><marker id="markerStart" markerWidth="8" markerHeight="8" style="overflow:visible;"><circle cx="0" cy="0" r="1.5" style="stroke:none;fill:red;fill-opacity:0.5;"/></marker><marker id="markerEnd" style="overflow:visible;"><circle cx="0" cy="0" r="0.8" style="stroke:none;fill:blue;fill-opacity:0.5;"><animate attributeName="opacity" from="1" to="0" dur="3s" repeatCount="indefinite" /></circle></marker></defs><rect x="4" y="4" width="100" height="100" /><path d="M58.56,11.63c1.15,1.15,1.26,2.49,1.26,3.9c0,0.79-0.07,3.34-0.07,5.96" class="grey" /><path d="M28.88,24.98c2.87,1.02,6.31,0.67,9.25,0.31c15.87-1.91,29.78-3.58,42.36-4.52c3.04-0.23,5.89-0.34,8.89,0.3" class="grey" /><path d="M31.24,26.25c0.94,0.94,1,2.11,0.99,3.25c-0.16,28.67-1.73,44-13.18,61.22" class="grey" /><path d="M15.5,37c3,1.41,7.75,5.8,8.5,8" class="grey" /><path d="M12.67,66.04c1.48,0.67,1.95,0.47,3.25-0.34C21.2,62.42,24,60.58,28,57.75" class="grey" /><path d="M40.7,36.7c2.43,0.55,4.75,0.26,6.82-0.09c10.11-1.73,17.24-2.85,27.87-4.06c2.4-0.27,4.84-0.68,7.23-0.19" class="grey" /><path d="M60.56,26.25c0.32,1,0.13,2.2-0.34,3.29C55.5,40.5,49.25,52,34.88,62.38" class="grey" /><path d="M64.75,35.25c4.53,3.59,12.56,10.73,19.27,15.65c2.09,1.53,5.23,3.6,8,4.87" class="grey" /><path d="M38.51,44.1c2.39,1.09,6.17,4.49,6.77,6.19" class="grey" /><path d="M85.61,38.2c0.05,0.57-0.07,1.11-0.38,1.6c-0.64,1.23-1.68,2.4-4.86,5.07" class="grey" /><path d="M47.16,54.83c0.69,0.69,1.36,1.82,1.55,2.65c0.87,3.31,1.88,8.9,2.59,14.03c0.19,1.35,0.35,2.68,0.48,3.92" class="grey" /><path d="M48.88,55.75c8.13-1.26,18.89-2.68,24.77-3.45c2.93-0.38,4.68,1.54,4.15,4.86c-0.35,2.21-1.7,8.77-2.55,13c-0.37,1.84-0.65,3.24-0.71,3.66" class="grey" /><path d="M51.47,64.33C57,63.5,70.55,62.12,75.6,61.75" class="grey" /><path d="M52.9,73.52c6.6-0.89,12.35-1.64,20.64-2.18" class="grey" /><path d="M62.5,75.2c0.9,0.9,1.17,1.8,1.17,3.15c0,4.79,0.06,11.19,0.06,14.47c0,10.18-5.31,0.99-6.41,0.17" class="grey" /><path d="M48.53,81.19c0.11,0.77-0.29,1.72-0.7,2.35c-2.71,3.08-6.64,7.26-13.34,10.6" class="grey" /><path d="M75.62,79.96c4.3,2.17,11.11,8.92,12.18,12.3" class="grey" /><path d="M58.56,11.63c1.15,1.15,1.26,2.49,1.26,3.9c0,0.79-0.07,3.34-0.07,5.96" class="stroke" stroke-dasharray="150"><animate attributeName="stroke-dashoffset" from="150" to="0" dur="1.8s" begin="0.0s" fill="freeze" /></path><path d="M28.88,24.98c2.87,1.02,6.31,0.67,9.25,0.31c15.87-1.91,29.78-3.58,42.36-4.52c3.04-0.23,5.89-0.34,8.89,0.3" class="stroke" stroke-dasharray="150"><set attributeName="opacity" to="0" dur="0.9s" /><animate attributeName="stroke-dashoffset" from="150" to="0" dur="1.8s" begin="0.9s" fill="freeze" /></path><path d="M31.24,26.25c0.94,0.94,1,2.11,0.99,3.25c-0.16,28.67-1.73,44-13.18,61.22" class="stroke" stroke-dasharray="150"><set attributeName="opacity" to="0" dur="2.4s" /><animate attributeName="stroke-dashoffset" from="150" to="0" dur="1.8s" begin="2.4s" fill="freeze" /></path><path d="M15.5,37c3,1.41,7.75,5.8,8.5,8" class="stroke" stroke-dasharray="150"><set attributeName="opacity" to="0" dur="3.9s" /><animate attributeName="stroke-dashoffset" from="150" to="0" dur="1.8s" begin="3.9s" fill="freeze" /></path><path d="M12.67,66.04c1.48,0.67,1.95,0.47,3.25-0.34C21.2,62.42,24,60.58,28,57.75" class="stroke" stroke-dasharray="150"><set attributeName="opacity" to="0" dur="4.8s" /><animate attributeName="stroke-dashoffset" from="150" to="0" dur="1.8s" begin="4.8s" fill="freeze" /></path><path d="M40.7,36.7c2.43,0.55,4.75,0.26,6.82-0.09c10.11-1.73,17.24-2.85,27.87-4.06c2.4-0.27,4.84-0.68,7.23-0.19" class="stroke" stroke-dasharray="150"><set attributeName="opacity" to="0" dur="5.7s" /><animate attributeName="stroke-dashoffset" from="150" to="0" dur="1.8s" begin="5.7s" fill="freeze" /></path><path d="M60.56,26.25c0.32,1,0.13,2.2-0.34,3.29C55.5,40.5,49.25,52,34.88,62.38" class="stroke" stroke-dasharray="150"><set attributeName="opacity" to="0" dur="6.800000000000001s" /><animate attributeName="stroke-dashoffset" from="150" to="0" dur="1.8s" begin="6.800000000000001s" fill="freeze" /></path><path d="M64.75,35.25c4.53,3.59,12.56,10.73,19.27,15.65c2.09,1.53,5.23,3.6,8,4.87" class="stroke" stroke-dasharray="150"><set attributeName="opacity" to="0" dur="8.0s" /><animate attributeName="stroke-dashoffset" from="150" to="0" dur="1.8s" begin="8.0s" fill="freeze" /></path><path d="M38.51,44.1c2.39,1.09,6.17,4.49,6.77,6.19" class="stroke" stroke-dasharray="150"><set attributeName="opacity" to="0" dur="9.0s" /><animate attributeName="stroke-dashoffset" from="150" to="0" dur="1.8s" begin="9.0s" fill="freeze" /></path><path d="M85.61,38.2c0.05,0.57-0.07,1.11-0.38,1.6c-0.64,1.23-1.68,2.4-4.86,5.07" class="stroke" stroke-dasharray="150"><set attributeName="opacity" to="0" dur="9.9s" /><animate attributeName="stroke-dashoffset" from="150" to="0" dur="1.8s" begin="9.9s" fill="freeze" /></path><path d="M47.16,54.83c0.69,0.69,1.36,1.82,1.55,2.65c0.87,3.31,1.88,8.9,2.59,14.03c0.19,1.35,0.35,2.68,0.48,3.92" class="stroke" stroke-dasharray="150"><set attributeName="opacity" to="0" dur="10.8s" /><animate attributeName="stroke-dashoffset" from="150" to="0" dur="1.8s" begin="10.8s" fill="freeze" /></path><path d="M48.88,55.75c8.13-1.26,18.89-2.68,24.77-3.45c2.93-0.38,4.68,1.54,4.15,4.86c-0.35,2.21-1.7,8.77-2.55,13c-0.37,1.84-0.65,3.24-0.71,3.66" class="stroke" stroke-dasharray="150"><set attributeName="opacity" to="0" dur="11.8s" /><animate attributeName="stroke-dashoffset" from="150" to="0" dur="1.8s" begin="11.8s" fill="freeze" /></path><path d="M51.47,64.33C57,63.5,70.55,62.12,75.6,61.75" class="stroke" stroke-dasharray="150"><set attributeName="opacity" to="0" dur="13.0s" /><animate attributeName="stroke-dashoffset" from="150" to="0" dur="1.8s" begin="13.0s" fill="freeze" /></path><path d="M52.9,73.52c6.6-0.89,12.35-1.64,20.64-2.18" class="stroke" stroke-dasharray="150"><set attributeName="opacity" to="0" dur="14.0s" /><animate attributeName="stroke-dashoffset" from="150" to="0" dur="1.8s" begin="14.0s" fill="freeze" /></path><path d="M62.5,75.2c0.9,0.9,1.17,1.8,1.17,3.15c0,4.79,0.06,11.19,0.06,14.47c0,10.18-5.31,0.99-6.41,0.17" class="stroke" stroke-dasharray="150"><set attributeName="opacity" to="0" dur="15.0s" /><animate attributeName="stroke-dashoffset" from="150" to="0" dur="1.8s" begin="15.0s" fill="freeze" /></path><path d="M48.53,81.19c0.11,0.77-0.29,1.72-0.7,2.35c-2.71,3.08-6.64,7.26-13.34,10.6" class="stroke" stroke-dasharray="150"><set attributeName="opacity" to="0" dur="16.0s" /><animate attributeName="stroke-dashoffset" from="150" to="0" dur="1.8s" begin="16.0s" fill="freeze" /></path><path d="M75.62,79.96c4.3,2.17,11.11,8.92,12.18,12.3" class="stroke" stroke-dasharray="150"><set attributeName="opacity" to="0" dur="16.9s" /><animate attributeName="stroke-dashoffset" from="150" to="0" dur="1.8s" begin="16.9s" fill="freeze" /></path><text x="90" y="120" id="reset-kvg-07642">⟳</text><text x="70" y="120" id="pause-kvg-07642">◼</text><script type="text/javascript"><![CDATA[function RecurringTimer(e,t){var n,r,i=t;this.pause=function(){window.clearTimeout(n);i-=new Date-r};var s=function(){r=new Date;n=window.setTimeout(function(){i=t;s();e()},i)};this.clear=function(){window.clearTimeout(n);i=t;n=window.setTimeout(function(){i=t;s();e()},i)};this.resume=s;this.resume()}function invoketimer(){timer=new RecurringTimer(function(){svg.setCurrentTime(0)},18799.999999999996)}var svg=document.getElementById("kvg-07642");var pause=document.getElementById("pause-kvg-07642");var reset=document.getElementById("reset-kvg-07642");var timer;invoketimer();reset.onclick=function(){svg.setCurrentTime(0);timer.clear();svg.unpauseAnimations();pause.innerHTML = "◼";};pause.onclick=function(){if(svg.animationsPaused()){svg.unpauseAnimations();timer.resume();pause.innerHTML="◼"}else{svg.pauseAnimations();timer.pause();pause.innerHTML="▶"}}]]></script></svg>