<svg id="kvg-07669" class="kanjivg" width="106" height="126" xmlns="http://www.w3.org/2000/svg" xmlns:xlink="http://www.w3.org/1999/xlink" xml:space="preserve" version="1.1" baseProfile="full"><defs><style type="text/css"><![CDATA[path.black{fill:none;stroke:black;stroke-width:5;stroke-linecap:round;stroke-linejoin:round;}path.grey{fill:none;stroke:#ddd;stroke-width:5;stroke-linecap:round;stroke-linejoin:round;}path.stroke{fill:none;stroke:black;stroke-width:5;stroke-linecap:round;stroke-linejoin:round;}rect{fill:none;stroke:#555;stroke-width:2;} text{font-size:16px;font-family:Segoe UI Symbol,Cambria Math,DejaVu Sans,Symbola,Quivira,STIX,Code2000;-webkit-touch-callout:none;cursor:pointer;-webkit-user-select:none;-khtml-user-select:none;-moz-user-select:none;-ms-user-select:none;user-select: none;}text:hover{color:#777;}#reset{font-weight:bold;}]]></style><marker id="markerStart" markerWidth="8" markerHeight="8" style="overflow:visible;"><circle cx="0" cy="0" r="1.5" style="stroke:none;fill:red;fill-opacity:0.5;"/></marker><marker id="markerEnd" style="overflow:visible;"><circle cx="0" cy="0" r="0.8" style="stroke:none;fill:blue;fill-opacity:0.5;"><animate attributeName="opacity" from="1" to="0" dur="3s" repeatCount="indefinite" /></circle></marker></defs><rect x="4" y="4" width="100" height="100" /><path d="M56.91,10.13c0.7,0.36,2.18,2.66,2.32,3.37c0.14,0.71,0.07,4.3-0.07,8.74" class="grey" /><path d="M28.63,23.73c1.52,0.54,4.3,0.63,5.82,0.54c15.8-0.91,40.05-3.02,54.11-3.73c2.53-0.13,4.05,0.26,5.31,0.53" class="grey" /><path d="M32.49,24.5c-1.24,30-3.72,52.3-16.69,69.97" class="grey" /><path d="M13,37c3.71,2.07,9.57,8.53,10.5,11.75" class="grey" /><path d="M11.17,67c1.46,0.74,1.91,0.53,3.2-0.37c5.2-3.65,8.2-5.97,12.13-9.12" class="grey" /><path d="M36.93,38.56c0.51,0.19,2.28,0.51,2.79,0.48c4.28-0.26,14.39-1.6,18.97-1.78c0.85-0.03,2.2,0.09,2.62,0.18" class="grey" /><path d="M36.83,48.35c0.2,0.27,0.41,0.5,0.5,0.84c0.7,2.71,1.92,9.93,2.4,14.8" class="grey" /><path d="M38.09,49.83c6.03-1.18,16.94-1.92,19.29-2.2c1.47-0.17,2.4,1.76,2.01,3.33c-1.04,4.21-1.79,7.07-2.61,10.29" class="grey" /><path d="M39.82,62.39c7.24-0.68,14.27-0.65,19.7-1.17" class="grey" /><path d="M45.89,29.5c0.97,0.42,1.55,1.89,1.74,2.73c0.19,0.84,0,59.76-0.19,65" class="grey" /><path d="M47.89,62.89c-3.85,8.53-13.86,20.6-21.88,25.43" class="grey" /><path d="M50.2,69.77c3.34,1.94,6.02,5.75,7.7,9.61" class="grey" /><path d="M63.75,30.99c1.25,0.43,2.75,0.65,4.75,0.53c4.01-0.23,18.07-1.27,20.27-1.46c1.43-0.12,1.83,0.56,1.75,1.43c-0.21,2.3-3.31,11.76-5.53,13.32c-2.07,1.46-3.5,0.74-4.32-0.62" class="grey" /><path d="M74.98,32.66c0.02,0.33,0.06,0.87-0.05,1.35c-0.8,3.56-3.28,9.24-8.55,12.9" class="grey" /><path d="M67.19,51.97c0.35,0.75,0.85,1.32,0.85,2.3c0,0.98-0.23,26.88-0.23,27.37c0,0.49,0.12,0.5,0.23,1.48" class="grey" /><path d="M68.62,53.35c1.96-0.04,18.15-1.89,19.94-1.96c1.49-0.06,1.78,0.92,1.78,2.34c0,1.17-0.44,27.8-0.44,28.54" class="grey" /><path d="M68.59,62.47c3.41-0.39,17.07-1.63,21.26-1.71" class="grey" /><path d="M68.49,71.98c7.06-0.21,15.77-0.74,21.12-0.84" class="grey" /><path d="M68.24,81.33c5.8-0.29,15.42-1.05,21.12-1.17" class="grey" /><path d="M73.06,83.89c0.38,1.29,0.29,1.95-0.35,2.98c-2.1,3.38-7.68,8.45-13.45,11.89" class="grey" /><path d="M82.63,86.11c4.84,2.94,10.93,9.44,12.25,11.91" class="grey" /><path d="M56.91,10.13c0.7,0.36,2.18,2.66,2.32,3.37c0.14,0.71,0.07,4.3-0.07,8.74" class="stroke" stroke-dasharray="150"><animate attributeName="stroke-dashoffset" from="150" to="0" dur="1.8s" begin="0.0s" fill="freeze" /></path><path d="M28.63,23.73c1.52,0.54,4.3,0.63,5.82,0.54c15.8-0.91,40.05-3.02,54.11-3.73c2.53-0.13,4.05,0.26,5.31,0.53" class="stroke" stroke-dasharray="150"><set attributeName="opacity" to="0" dur="0.9s" /><animate attributeName="stroke-dashoffset" from="150" to="0" dur="1.8s" begin="0.9s" fill="freeze" /></path><path d="M32.49,24.5c-1.24,30-3.72,52.3-16.69,69.97" class="stroke" stroke-dasharray="150"><set attributeName="opacity" to="0" dur="2.4s" /><animate attributeName="stroke-dashoffset" from="150" to="0" dur="1.8s" begin="2.4s" fill="freeze" /></path><path d="M13,37c3.71,2.07,9.57,8.53,10.5,11.75" class="stroke" stroke-dasharray="150"><set attributeName="opacity" to="0" dur="4.1s" /><animate attributeName="stroke-dashoffset" from="150" to="0" dur="1.8s" begin="4.1s" fill="freeze" /></path><path d="M11.17,67c1.46,0.74,1.91,0.53,3.2-0.37c5.2-3.65,8.2-5.97,12.13-9.12" class="stroke" stroke-dasharray="150"><set attributeName="opacity" to="0" dur="5.0s" /><animate attributeName="stroke-dashoffset" from="150" to="0" dur="1.8s" begin="5.0s" fill="freeze" /></path><path d="M36.93,38.56c0.51,0.19,2.28,0.51,2.79,0.48c4.28-0.26,14.39-1.6,18.97-1.78c0.85-0.03,2.2,0.09,2.62,0.18" class="stroke" stroke-dasharray="150"><set attributeName="opacity" to="0" dur="5.9s" /><animate attributeName="stroke-dashoffset" from="150" to="0" dur="1.8s" begin="5.9s" fill="freeze" /></path><path d="M36.83,48.35c0.2,0.27,0.41,0.5,0.5,0.84c0.7,2.71,1.92,9.93,2.4,14.8" class="stroke" stroke-dasharray="150"><set attributeName="opacity" to="0" dur="6.9s" /><animate attributeName="stroke-dashoffset" from="150" to="0" dur="1.8s" begin="6.9s" fill="freeze" /></path><path d="M38.09,49.83c6.03-1.18,16.94-1.92,19.29-2.2c1.47-0.17,2.4,1.76,2.01,3.33c-1.04,4.21-1.79,7.07-2.61,10.29" class="stroke" stroke-dasharray="150"><set attributeName="opacity" to="0" dur="7.800000000000001s" /><animate attributeName="stroke-dashoffset" from="150" to="0" dur="1.8s" begin="7.800000000000001s" fill="freeze" /></path><path d="M39.82,62.39c7.24-0.68,14.27-0.65,19.7-1.17" class="stroke" stroke-dasharray="150"><set attributeName="opacity" to="0" dur="8.8s" /><animate attributeName="stroke-dashoffset" from="150" to="0" dur="1.8s" begin="8.8s" fill="freeze" /></path><path d="M45.89,29.5c0.97,0.42,1.55,1.89,1.74,2.73c0.19,0.84,0,59.76-0.19,65" class="stroke" stroke-dasharray="150"><set attributeName="opacity" to="0" dur="9.700000000000001s" /><animate attributeName="stroke-dashoffset" from="150" to="0" dur="1.8s" begin="9.700000000000001s" fill="freeze" /></path><path d="M47.89,62.89c-3.85,8.53-13.86,20.6-21.88,25.43" class="stroke" stroke-dasharray="150"><set attributeName="opacity" to="0" dur="11.200000000000001s" /><animate attributeName="stroke-dashoffset" from="150" to="0" dur="1.8s" begin="11.200000000000001s" fill="freeze" /></path><path d="M50.2,69.77c3.34,1.94,6.02,5.75,7.7,9.61" class="stroke" stroke-dasharray="150"><set attributeName="opacity" to="0" dur="12.200000000000001s" /><animate attributeName="stroke-dashoffset" from="150" to="0" dur="1.8s" begin="12.200000000000001s" fill="freeze" /></path><path d="M63.75,30.99c1.25,0.43,2.75,0.65,4.75,0.53c4.01-0.23,18.07-1.27,20.27-1.46c1.43-0.12,1.83,0.56,1.75,1.43c-0.21,2.3-3.31,11.76-5.53,13.32c-2.07,1.46-3.5,0.74-4.32-0.62" class="stroke" stroke-dasharray="150"><set attributeName="opacity" to="0" dur="13.100000000000001s" /><animate attributeName="stroke-dashoffset" from="150" to="0" dur="1.8s" begin="13.100000000000001s" fill="freeze" /></path><path d="M74.98,32.66c0.02,0.33,0.06,0.87-0.05,1.35c-0.8,3.56-3.28,9.24-8.55,12.9" class="stroke" stroke-dasharray="150"><set attributeName="opacity" to="0" dur="14.3s" /><animate attributeName="stroke-dashoffset" from="150" to="0" dur="1.8s" begin="14.3s" fill="freeze" /></path><path d="M67.19,51.97c0.35,0.75,0.85,1.32,0.85,2.3c0,0.98-0.23,26.88-0.23,27.37c0,0.49,0.12,0.5,0.23,1.48" class="stroke" stroke-dasharray="150"><set attributeName="opacity" to="0" dur="15.200000000000001s" /><animate attributeName="stroke-dashoffset" from="150" to="0" dur="1.8s" begin="15.200000000000001s" fill="freeze" /></path><path d="M68.62,53.35c1.96-0.04,18.15-1.89,19.94-1.96c1.49-0.06,1.78,0.92,1.78,2.34c0,1.17-0.44,27.8-0.44,28.54" class="stroke" stroke-dasharray="150"><set attributeName="opacity" to="0" dur="16.200000000000003s" /><animate attributeName="stroke-dashoffset" from="150" to="0" dur="1.8s" begin="16.200000000000003s" fill="freeze" /></path><path d="M68.59,62.47c3.41-0.39,17.07-1.63,21.26-1.71" class="stroke" stroke-dasharray="150"><set attributeName="opacity" to="0" dur="17.500000000000004s" /><animate attributeName="stroke-dashoffset" from="150" to="0" dur="1.8s" begin="17.500000000000004s" fill="freeze" /></path><path d="M68.49,71.98c7.06-0.21,15.77-0.74,21.12-0.84" class="stroke" stroke-dasharray="150"><set attributeName="opacity" to="0" dur="18.500000000000004s" /><animate attributeName="stroke-dashoffset" from="150" to="0" dur="1.8s" begin="18.500000000000004s" fill="freeze" /></path><path d="M68.24,81.33c5.8-0.29,15.42-1.05,21.12-1.17" class="stroke" stroke-dasharray="150"><set attributeName="opacity" to="0" dur="19.500000000000004s" /><animate attributeName="stroke-dashoffset" from="150" to="0" dur="1.8s" begin="19.500000000000004s" fill="freeze" /></path><path d="M73.06,83.89c0.38,1.29,0.29,1.95-0.35,2.98c-2.1,3.38-7.68,8.45-13.45,11.89" class="stroke" stroke-dasharray="150"><set attributeName="opacity" to="0" dur="20.500000000000004s" /><animate attributeName="stroke-dashoffset" from="150" to="0" dur="1.8s" begin="20.500000000000004s" fill="freeze" /></path><path d="M82.63,86.11c4.84,2.94,10.93,9.44,12.25,11.91" class="stroke" stroke-dasharray="150"><set attributeName="opacity" to="0" dur="21.500000000000004s" /><animate attributeName="stroke-dashoffset" from="150" to="0" dur="1.8s" begin="21.500000000000004s" fill="freeze" /></path><text x="90" y="120" id="reset-kvg-07669">⟳</text><text x="70" y="120" id="pause-kvg-07669">◼</text><script type="text/javascript"><![CDATA[function RecurringTimer(e,t){var n,r,i=t;this.pause=function(){window.clearTimeout(n);i-=new Date-r};var s=function(){r=new Date;n=window.setTimeout(function(){i=t;s();e()},i)};this.clear=function(){window.clearTimeout(n);i=t;n=window.setTimeout(function(){i=t;s();e()},i)};this.resume=s;this.resume()}function invoketimer(){timer=new RecurringTimer(function(){svg.setCurrentTime(0)},23400.000000000004)}var svg=document.getElementById("kvg-07669");var pause=document.getElementById("pause-kvg-07669");var reset=document.getElementById("reset-kvg-07669");var timer;invoketimer();reset.onclick=function(){svg.setCurrentTime(0);timer.clear();svg.unpauseAnimations();pause.innerHTML = "◼";};pause.onclick=function(){if(svg.animationsPaused()){svg.unpauseAnimations();timer.resume();pause.innerHTML="◼"}else{svg.pauseAnimations();timer.pause();pause.innerHTML="▶"}}]]></script></svg>