<svg id="kvg-07696-Kaisho" class="kanjivg" width="106" height="126" xmlns="http://www.w3.org/2000/svg" xmlns:xlink="http://www.w3.org/1999/xlink" xml:space="preserve" version="1.1" baseProfile="full"><defs><style type="text/css"><![CDATA[path.black{fill:none;stroke:black;stroke-width:5;stroke-linecap:round;stroke-linejoin:round;}path.grey{fill:none;stroke:#ddd;stroke-width:5;stroke-linecap:round;stroke-linejoin:round;}path.stroke{fill:none;stroke:black;stroke-width:5;stroke-linecap:round;stroke-linejoin:round;}rect{fill:none;stroke:#555;stroke-width:2;} text{font-size:16px;font-family:Segoe UI Symbol,Cambria Math,DejaVu Sans,Symbola,Quivira,STIX,Code2000;-webkit-touch-callout:none;cursor:pointer;-webkit-user-select:none;-khtml-user-select:none;-moz-user-select:none;-ms-user-select:none;user-select: none;}text:hover{color:#777;}#reset{font-weight:bold;}]]></style><marker id="markerStart" markerWidth="8" markerHeight="8" style="overflow:visible;"><circle cx="0" cy="0" r="1.5" style="stroke:none;fill:red;fill-opacity:0.5;"/></marker><marker id="markerEnd" style="overflow:visible;"><circle cx="0" cy="0" r="0.8" style="stroke:none;fill:blue;fill-opacity:0.5;"><animate attributeName="opacity" from="1" to="0" dur="3s" repeatCount="indefinite" /></circle></marker></defs><rect x="4" y="4" width="100" height="100" /><path d="M30.52,15c0.3,0.67,0.34,1.49,0.27,2.07c-0.42,3.44-4.01,11.66-7.28,16.28" class="grey" /><path d="M15.5,33.97c0.47,1.12,0.94,1.68,0.94,3.18c0,1.5,1.31,34.98,1.5,42.35" class="grey" /><path d="M16.72,35.61c2.64-0.19,15.24-2.54,17.65-2.76c2.01-0.19,3.3,1.25,3.14,2.36c-0.31,2.25-0.87,31.44-1.11,43.4" class="grey" /><path d="M17.68,55.36c2.96,0,5.95-0.44,8.88-0.76c0.89-0.09,1.79-0.19,2.67-0.28" class="grey" /><path d="M18.21,76.94c7.54-0.69,9.54-0.94,18.28-1.14" class="grey" /><path d="M63.66,13.42c2.59,1.83,5.34,5.83,6.74,10.49" class="grey" /><path d="M48.51,27.89c0,3.13-2.86,11.75-4.17,13.84" class="grey" /><path d="M48.47,29.89c0.92,0.08,38.37-1.8,43.05-1.91c8.98-0.22-0.1,8.07-1.27,8.85" class="grey" /><path d="M54.23,42.57c0.74,0.34,2.08,0.34,2.83,0.34c6.8,0,13.94-1.15,22.93-1.61c1.23-0.06,1.97,0.16,2.58,0.33" class="grey" /><path d="M43.58,57.12c1.25,0.54,3.54,0.62,4.8,0.54c8.65-0.57,31.54-2.67,43.7-2.66c2.08,0,3.34,0.26,4.38,0.52" class="grey" /><path d="M59.25,60c0.5,0.75,0.89,2.07,0.89,3.26C60.14,72.5,57.75,88,40.42,95" class="grey" /><path d="M73.69,58.37c0.56,1.09,1.01,2.38,1.04,4.06c0.15,7.52-0.4,15.82-0.4,20.93c0,9.38,2.42,10.08,11.44,10.08c8.98,0,10.37-2.45,10.37-8.88" class="grey" /><path d="M30.52,15c0.3,0.67,0.34,1.49,0.27,2.07c-0.42,3.44-4.01,11.66-7.28,16.28" class="stroke" stroke-dasharray="150"><animate attributeName="stroke-dashoffset" from="150" to="0" dur="1.8s" begin="0.0s" fill="freeze" /></path><path d="M15.5,33.97c0.47,1.12,0.94,1.68,0.94,3.18c0,1.5,1.31,34.98,1.5,42.35" class="stroke" stroke-dasharray="150"><set attributeName="opacity" to="0" dur="1.0s" /><animate attributeName="stroke-dashoffset" from="150" to="0" dur="1.8s" begin="1.0s" fill="freeze" /></path><path d="M16.72,35.61c2.64-0.19,15.24-2.54,17.65-2.76c2.01-0.19,3.3,1.25,3.14,2.36c-0.31,2.25-0.87,31.44-1.11,43.4" class="stroke" stroke-dasharray="150"><set attributeName="opacity" to="0" dur="2.2s" /><animate attributeName="stroke-dashoffset" from="150" to="0" dur="1.8s" begin="2.2s" fill="freeze" /></path><path d="M17.68,55.36c2.96,0,5.95-0.44,8.88-0.76c0.89-0.09,1.79-0.19,2.67-0.28" class="stroke" stroke-dasharray="150"><set attributeName="opacity" to="0" dur="3.7s" /><animate attributeName="stroke-dashoffset" from="150" to="0" dur="1.8s" begin="3.7s" fill="freeze" /></path><path d="M18.21,76.94c7.54-0.69,9.54-0.94,18.28-1.14" class="stroke" stroke-dasharray="150"><set attributeName="opacity" to="0" dur="4.6000000000000005s" /><animate attributeName="stroke-dashoffset" from="150" to="0" dur="1.8s" begin="4.6000000000000005s" fill="freeze" /></path><path d="M63.66,13.42c2.59,1.83,5.34,5.83,6.74,10.49" class="stroke" stroke-dasharray="150"><set attributeName="opacity" to="0" dur="5.500000000000001s" /><animate attributeName="stroke-dashoffset" from="150" to="0" dur="1.8s" begin="5.500000000000001s" fill="freeze" /></path><path d="M48.51,27.89c0,3.13-2.86,11.75-4.17,13.84" class="stroke" stroke-dasharray="150"><set attributeName="opacity" to="0" dur="6.400000000000001s" /><animate attributeName="stroke-dashoffset" from="150" to="0" dur="1.8s" begin="6.400000000000001s" fill="freeze" /></path><path d="M48.47,29.89c0.92,0.08,38.37-1.8,43.05-1.91c8.98-0.22-0.1,8.07-1.27,8.85" class="stroke" stroke-dasharray="150"><set attributeName="opacity" to="0" dur="7.300000000000002s" /><animate attributeName="stroke-dashoffset" from="150" to="0" dur="1.8s" begin="7.300000000000002s" fill="freeze" /></path><path d="M54.23,42.57c0.74,0.34,2.08,0.34,2.83,0.34c6.8,0,13.94-1.15,22.93-1.61c1.23-0.06,1.97,0.16,2.58,0.33" class="stroke" stroke-dasharray="150"><set attributeName="opacity" to="0" dur="8.700000000000001s" /><animate attributeName="stroke-dashoffset" from="150" to="0" dur="1.8s" begin="8.700000000000001s" fill="freeze" /></path><path d="M43.58,57.12c1.25,0.54,3.54,0.62,4.8,0.54c8.65-0.57,31.54-2.67,43.7-2.66c2.08,0,3.34,0.26,4.38,0.52" class="stroke" stroke-dasharray="150"><set attributeName="opacity" to="0" dur="9.700000000000001s" /><animate attributeName="stroke-dashoffset" from="150" to="0" dur="1.8s" begin="9.700000000000001s" fill="freeze" /></path><path d="M59.25,60c0.5,0.75,0.89,2.07,0.89,3.26C60.14,72.5,57.75,88,40.42,95" class="stroke" stroke-dasharray="150"><set attributeName="opacity" to="0" dur="11.000000000000002s" /><animate attributeName="stroke-dashoffset" from="150" to="0" dur="1.8s" begin="11.000000000000002s" fill="freeze" /></path><path d="M73.69,58.37c0.56,1.09,1.01,2.38,1.04,4.06c0.15,7.52-0.4,15.82-0.4,20.93c0,9.38,2.42,10.08,11.44,10.08c8.98,0,10.37-2.45,10.37-8.88" class="stroke" stroke-dasharray="150"><set attributeName="opacity" to="0" dur="12.100000000000001s" /><animate attributeName="stroke-dashoffset" from="150" to="0" dur="1.8s" begin="12.100000000000001s" fill="freeze" /></path><text x="90" y="120" id="reset-kvg-07696-Kaisho">⟳</text><text x="70" y="120" id="pause-kvg-07696-Kaisho">◼</text><script type="text/javascript"><![CDATA[function RecurringTimer(e,t){var n,r,i=t;this.pause=function(){window.clearTimeout(n);i-=new Date-r};var s=function(){r=new Date;n=window.setTimeout(function(){i=t;s();e()},i)};this.clear=function(){window.clearTimeout(n);i=t;n=window.setTimeout(function(){i=t;s();e()},i)};this.resume=s;this.resume()}function invoketimer(){timer=new RecurringTimer(function(){svg.setCurrentTime(0)},14500.000000000002)}var svg=document.getElementById("kvg-07696-Kaisho");var pause=document.getElementById("pause-kvg-07696-Kaisho");var reset=document.getElementById("reset-kvg-07696-Kaisho");var timer;invoketimer();reset.onclick=function(){svg.setCurrentTime(0);timer.clear();svg.unpauseAnimations();pause.innerHTML = "◼";};pause.onclick=function(){if(svg.animationsPaused()){svg.unpauseAnimations();timer.resume();pause.innerHTML="◼"}else{svg.pauseAnimations();timer.pause();pause.innerHTML="▶"}}]]></script></svg>