<svg id="kvg-076cd" class="kanjivg" width="106" height="126" xmlns="http://www.w3.org/2000/svg" xmlns:xlink="http://www.w3.org/1999/xlink" xml:space="preserve" version="1.1" baseProfile="full"><defs><style type="text/css"><![CDATA[path.black{fill:none;stroke:black;stroke-width:5;stroke-linecap:round;stroke-linejoin:round;}path.grey{fill:none;stroke:#ddd;stroke-width:5;stroke-linecap:round;stroke-linejoin:round;}path.stroke{fill:none;stroke:black;stroke-width:5;stroke-linecap:round;stroke-linejoin:round;}rect{fill:none;stroke:#555;stroke-width:2;} text{font-size:16px;font-family:Segoe UI Symbol,Cambria Math,DejaVu Sans,Symbola,Quivira,STIX,Code2000;-webkit-touch-callout:none;cursor:pointer;-webkit-user-select:none;-khtml-user-select:none;-moz-user-select:none;-ms-user-select:none;user-select: none;}text:hover{color:#777;}#reset{font-weight:bold;}]]></style><marker id="markerStart" markerWidth="8" markerHeight="8" style="overflow:visible;"><circle cx="0" cy="0" r="1.5" style="stroke:none;fill:red;fill-opacity:0.5;"/></marker><marker id="markerEnd" style="overflow:visible;"><circle cx="0" cy="0" r="0.8" style="stroke:none;fill:blue;fill-opacity:0.5;"><animate attributeName="opacity" from="1" to="0" dur="3s" repeatCount="indefinite" /></circle></marker></defs><rect x="4" y="4" width="100" height="100" /><path d="M28.13,23.25c0.98,0.39,2.78,0.43,3.76,0.39c8.61-0.39,31.86-2.39,44.8-2.98c1.63-0.07,2.62,0.19,3.43,0.38" class="grey" /><path d="M52.42,11.25c0.12,0.3,1.77,1.56,1.77,3.46c0,9.79,0.14,17.1,0.14,21.94" class="grey" /><path d="M17.38,39.1c1.52,0.55,4.31,0.69,5.82,0.55c18.55-1.65,47.05-3.9,62.11-4.34c2.53-0.07,4.05,0.26,5.31,0.54" class="grey" /><path d="M50.8,40.25c0.38,0.88,0.15,2.14-0.33,2.64c-6.43,6.76-9.97,9.36-19.07,16.17c-2.56,1.91-3.26,3.59,0.98,2.94c11.25-1.71,26.8-5.02,43.11-7.66" class="grey" /><path d="M65.27,44.33c5.57,3.11,14.4,12.79,15.79,17.63" class="grey" /><path d="M28.52,72.15c0.67,0.57,1.53,1.19,1.67,1.67c1.12,3.84,1.52,14.48,2.29,21.37" class="grey" /><path d="M31.72,74.36c11.92-0.8,43.71-3.82,48.04-3.71c1.87,0.04,2.49,0.85,2.73,2.29c0.16,0.97-1.99,13.06-2.73,20.14" class="grey" /><path d="M46.82,75.11c0.28,0.37,0.68,1.65,0.68,2.13c0,5.76,0.25,9.26,0.32,16.64" class="grey" /><path d="M62.43,73.43c0.51,0.44,0.94,1.18,0.91,1.75C63,80.75,63,87,62.48,93.42" class="grey" /><path d="M15.89,95.61c1.42,0.51,4.02,0.59,5.43,0.51c14.74-0.85,42.96-2.88,70.09-3.01c2.36-0.01,3.78,0.24,4.96,0.49" class="grey" /><path d="M28.13,23.25c0.98,0.39,2.78,0.43,3.76,0.39c8.61-0.39,31.86-2.39,44.8-2.98c1.63-0.07,2.62,0.19,3.43,0.38" class="stroke" stroke-dasharray="150"><animate attributeName="stroke-dashoffset" from="150" to="0" dur="1.8s" begin="0.0s" fill="freeze" /></path><path d="M52.42,11.25c0.12,0.3,1.77,1.56,1.77,3.46c0,9.79,0.14,17.1,0.14,21.94" class="stroke" stroke-dasharray="150"><set attributeName="opacity" to="0" dur="1.3s" /><animate attributeName="stroke-dashoffset" from="150" to="0" dur="1.8s" begin="1.3s" fill="freeze" /></path><path d="M17.38,39.1c1.52,0.55,4.31,0.69,5.82,0.55c18.55-1.65,47.05-3.9,62.11-4.34c2.53-0.07,4.05,0.26,5.31,0.54" class="stroke" stroke-dasharray="150"><set attributeName="opacity" to="0" dur="2.3s" /><animate attributeName="stroke-dashoffset" from="150" to="0" dur="1.8s" begin="2.3s" fill="freeze" /></path><path d="M50.8,40.25c0.38,0.88,0.15,2.14-0.33,2.64c-6.43,6.76-9.97,9.36-19.07,16.17c-2.56,1.91-3.26,3.59,0.98,2.94c11.25-1.71,26.8-5.02,43.11-7.66" class="stroke" stroke-dasharray="150"><set attributeName="opacity" to="0" dur="4.0s" /><animate attributeName="stroke-dashoffset" from="150" to="0" dur="1.8s" begin="4.0s" fill="freeze" /></path><path d="M65.27,44.33c5.57,3.11,14.4,12.79,15.79,17.63" class="stroke" stroke-dasharray="150"><set attributeName="opacity" to="0" dur="5.7s" /><animate attributeName="stroke-dashoffset" from="150" to="0" dur="1.8s" begin="5.7s" fill="freeze" /></path><path d="M28.52,72.15c0.67,0.57,1.53,1.19,1.67,1.67c1.12,3.84,1.52,14.48,2.29,21.37" class="stroke" stroke-dasharray="150"><set attributeName="opacity" to="0" dur="6.7s" /><animate attributeName="stroke-dashoffset" from="150" to="0" dur="1.8s" begin="6.7s" fill="freeze" /></path><path d="M31.72,74.36c11.92-0.8,43.71-3.82,48.04-3.71c1.87,0.04,2.49,0.85,2.73,2.29c0.16,0.97-1.99,13.06-2.73,20.14" class="stroke" stroke-dasharray="150"><set attributeName="opacity" to="0" dur="7.7s" /><animate attributeName="stroke-dashoffset" from="150" to="0" dur="1.8s" begin="7.7s" fill="freeze" /></path><path d="M46.82,75.11c0.28,0.37,0.68,1.65,0.68,2.13c0,5.76,0.25,9.26,0.32,16.64" class="stroke" stroke-dasharray="150"><set attributeName="opacity" to="0" dur="9.4s" /><animate attributeName="stroke-dashoffset" from="150" to="0" dur="1.8s" begin="9.4s" fill="freeze" /></path><path d="M62.43,73.43c0.51,0.44,0.94,1.18,0.91,1.75C63,80.75,63,87,62.48,93.42" class="stroke" stroke-dasharray="150"><set attributeName="opacity" to="0" dur="10.3s" /><animate attributeName="stroke-dashoffset" from="150" to="0" dur="1.8s" begin="10.3s" fill="freeze" /></path><path d="M15.89,95.61c1.42,0.51,4.02,0.59,5.43,0.51c14.74-0.85,42.96-2.88,70.09-3.01c2.36-0.01,3.78,0.24,4.96,0.49" class="stroke" stroke-dasharray="150"><set attributeName="opacity" to="0" dur="11.3s" /><animate attributeName="stroke-dashoffset" from="150" to="0" dur="1.8s" begin="11.3s" fill="freeze" /></path><text x="90" y="120" id="reset-kvg-076cd">⟳</text><text x="70" y="120" id="pause-kvg-076cd">◼</text><script type="text/javascript"><![CDATA[function RecurringTimer(e,t){var n,r,i=t;this.pause=function(){window.clearTimeout(n);i-=new Date-r};var s=function(){r=new Date;n=window.setTimeout(function(){i=t;s();e()},i)};this.clear=function(){window.clearTimeout(n);i=t;n=window.setTimeout(function(){i=t;s();e()},i)};this.resume=s;this.resume()}function invoketimer(){timer=new RecurringTimer(function(){svg.setCurrentTime(0)},14000.0)}var svg=document.getElementById("kvg-076cd");var pause=document.getElementById("pause-kvg-076cd");var reset=document.getElementById("reset-kvg-076cd");var timer;invoketimer();reset.onclick=function(){svg.setCurrentTime(0);timer.clear();svg.unpauseAnimations();pause.innerHTML = "◼";};pause.onclick=function(){if(svg.animationsPaused()){svg.unpauseAnimations();timer.resume();pause.innerHTML="◼"}else{svg.pauseAnimations();timer.pause();pause.innerHTML="▶"}}]]></script></svg>