<svg id="kvg-076e1-VtFst" class="kanjivg" width="106" height="126" xmlns="http://www.w3.org/2000/svg" xmlns:xlink="http://www.w3.org/1999/xlink" xml:space="preserve" version="1.1" baseProfile="full"><defs><style type="text/css"><![CDATA[path.black{fill:none;stroke:black;stroke-width:5;stroke-linecap:round;stroke-linejoin:round;}path.grey{fill:none;stroke:#ddd;stroke-width:5;stroke-linecap:round;stroke-linejoin:round;}path.stroke{fill:none;stroke:black;stroke-width:5;stroke-linecap:round;stroke-linejoin:round;}rect{fill:none;stroke:#555;stroke-width:2;} text{font-size:16px;font-family:Segoe UI Symbol,Cambria Math,DejaVu Sans,Symbola,Quivira,STIX,Code2000;-webkit-touch-callout:none;cursor:pointer;-webkit-user-select:none;-khtml-user-select:none;-moz-user-select:none;-ms-user-select:none;user-select: none;}text:hover{color:#777;}#reset{font-weight:bold;}]]></style><marker id="markerStart" markerWidth="8" markerHeight="8" style="overflow:visible;"><circle cx="0" cy="0" r="1.5" style="stroke:none;fill:red;fill-opacity:0.5;"/></marker><marker id="markerEnd" style="overflow:visible;"><circle cx="0" cy="0" r="0.8" style="stroke:none;fill:blue;fill-opacity:0.5;"><animate attributeName="opacity" from="1" to="0" dur="3s" repeatCount="indefinite" /></circle></marker></defs><rect x="4" y="4" width="100" height="100" /><path d="M28.5,20.49c2.5,0.22,3.2,0.59,5.5,0.44c10.5-0.66,28.5-2.81,38.5-3.25c3.25-0.14,5.47,1.08,5,3.31c-0.75,3.53-0.75,8.6-2.5,18.53" class="grey" /><path d="M15.25,32.68c2.31,0.44,4.13,0.64,6.69,0.44c22.38-1.76,49.64-3.35,67.38-4.01c2.84-0.11,5.14,0.44,6.43,0.66" class="grey" /><path d="M29.5,44.15c1.25,0.22,3.51,0.34,5,0.22c13.75-1.1,26.25-1.71,38.75-2.81c1.99-0.18,3.25,0,4.75,0.22" class="grey" /><path d="M52.37,9.25c1.09,0.44,1.96,1.96,1.96,2.87c0,4.88-0.22,33.13-0.22,39.88" class="grey" /><path d="M22.38,53.83c1.52,0.48,4.31,0.63,5.82,0.48C46,52.53,71,51.6,84.81,51.2c2.53-0.07,4.05,0.23,5.31,0.47" class="grey" /><path d="M23,62.75c0,4.89-6.74,12.1-8.5,13.5" class="grey" /><path d="M38.02,60.08c3.61,1.86,7.03,6.99,7.94,9.88" class="grey" /><path d="M58.87,58.33c3.33,1.83,8.6,7.53,9.43,10.38" class="grey" /><path d="M79.77,59.08c3.99,2.23,10.3,9.17,11.29,12.63" class="grey" /><path d="M26.49,75.88c0.62,0.53,1.42,1.1,1.56,1.55c1.04,3.56,1.9,12.44,2.61,18.84" class="grey" /><path d="M28.99,77.42c11.12-0.74,45.76-3.04,49.79-2.94c1.75,0.04,2.32,0.79,2.55,2.13c0.15,0.9-1.32,10.62-2.01,17.19" class="grey" /><path d="M45.08,77.62c0.26,0.34,0.63,1.53,0.63,1.97c0,5.35,0.71,8.6,0.78,15.45" class="grey" /><path d="M62.08,76.06c0.48,0.41,0.85,1.1,0.85,1.62c0,5.57-0.24,9.07-0.24,16.44" class="grey" /><path d="M14.89,96.88c1.42,0.59,4.02,0.68,5.43,0.59c14.74-0.98,42.96-3.34,70.09-3.5c2.36-0.01,3.78,0.28,4.96,0.57" class="grey" /><path d="M28.5,20.49c2.5,0.22,3.2,0.59,5.5,0.44c10.5-0.66,28.5-2.81,38.5-3.25c3.25-0.14,5.47,1.08,5,3.31c-0.75,3.53-0.75,8.6-2.5,18.53" class="stroke" stroke-dasharray="150"><animate attributeName="stroke-dashoffset" from="150" to="0" dur="1.8s" begin="0.0s" fill="freeze" /></path><path d="M15.25,32.68c2.31,0.44,4.13,0.64,6.69,0.44c22.38-1.76,49.64-3.35,67.38-4.01c2.84-0.11,5.14,0.44,6.43,0.66" class="stroke" stroke-dasharray="150"><set attributeName="opacity" to="0" dur="1.5s" /><animate attributeName="stroke-dashoffset" from="150" to="0" dur="1.8s" begin="1.5s" fill="freeze" /></path><path d="M29.5,44.15c1.25,0.22,3.51,0.34,5,0.22c13.75-1.1,26.25-1.71,38.75-2.81c1.99-0.18,3.25,0,4.75,0.22" class="stroke" stroke-dasharray="150"><set attributeName="opacity" to="0" dur="3.2s" /><animate attributeName="stroke-dashoffset" from="150" to="0" dur="1.8s" begin="3.2s" fill="freeze" /></path><path d="M52.37,9.25c1.09,0.44,1.96,1.96,1.96,2.87c0,4.88-0.22,33.13-0.22,39.88" class="stroke" stroke-dasharray="150"><set attributeName="opacity" to="0" dur="4.4s" /><animate attributeName="stroke-dashoffset" from="150" to="0" dur="1.8s" begin="4.4s" fill="freeze" /></path><path d="M22.38,53.83c1.52,0.48,4.31,0.63,5.82,0.48C46,52.53,71,51.6,84.81,51.2c2.53-0.07,4.05,0.23,5.31,0.47" class="stroke" stroke-dasharray="150"><set attributeName="opacity" to="0" dur="5.5s" /><animate attributeName="stroke-dashoffset" from="150" to="0" dur="1.8s" begin="5.5s" fill="freeze" /></path><path d="M23,62.75c0,4.89-6.74,12.1-8.5,13.5" class="stroke" stroke-dasharray="150"><set attributeName="opacity" to="0" dur="7.0s" /><animate attributeName="stroke-dashoffset" from="150" to="0" dur="1.8s" begin="7.0s" fill="freeze" /></path><path d="M38.02,60.08c3.61,1.86,7.03,6.99,7.94,9.88" class="stroke" stroke-dasharray="150"><set attributeName="opacity" to="0" dur="7.9s" /><animate attributeName="stroke-dashoffset" from="150" to="0" dur="1.8s" begin="7.9s" fill="freeze" /></path><path d="M58.87,58.33c3.33,1.83,8.6,7.53,9.43,10.38" class="stroke" stroke-dasharray="150"><set attributeName="opacity" to="0" dur="8.8s" /><animate attributeName="stroke-dashoffset" from="150" to="0" dur="1.8s" begin="8.8s" fill="freeze" /></path><path d="M79.77,59.08c3.99,2.23,10.3,9.17,11.29,12.63" class="stroke" stroke-dasharray="150"><set attributeName="opacity" to="0" dur="9.700000000000001s" /><animate attributeName="stroke-dashoffset" from="150" to="0" dur="1.8s" begin="9.700000000000001s" fill="freeze" /></path><path d="M26.49,75.88c0.62,0.53,1.42,1.1,1.56,1.55c1.04,3.56,1.9,12.44,2.61,18.84" class="stroke" stroke-dasharray="150"><set attributeName="opacity" to="0" dur="10.600000000000001s" /><animate attributeName="stroke-dashoffset" from="150" to="0" dur="1.8s" begin="10.600000000000001s" fill="freeze" /></path><path d="M28.99,77.42c11.12-0.74,45.76-3.04,49.79-2.94c1.75,0.04,2.32,0.79,2.55,2.13c0.15,0.9-1.32,10.62-2.01,17.19" class="stroke" stroke-dasharray="150"><set attributeName="opacity" to="0" dur="11.600000000000001s" /><animate attributeName="stroke-dashoffset" from="150" to="0" dur="1.8s" begin="11.600000000000001s" fill="freeze" /></path><path d="M45.08,77.62c0.26,0.34,0.63,1.53,0.63,1.97c0,5.35,0.71,8.6,0.78,15.45" class="stroke" stroke-dasharray="150"><set attributeName="opacity" to="0" dur="13.3s" /><animate attributeName="stroke-dashoffset" from="150" to="0" dur="1.8s" begin="13.3s" fill="freeze" /></path><path d="M62.08,76.06c0.48,0.41,0.85,1.1,0.85,1.62c0,5.57-0.24,9.07-0.24,16.44" class="stroke" stroke-dasharray="150"><set attributeName="opacity" to="0" dur="14.200000000000001s" /><animate attributeName="stroke-dashoffset" from="150" to="0" dur="1.8s" begin="14.200000000000001s" fill="freeze" /></path><path d="M14.89,96.88c1.42,0.59,4.02,0.68,5.43,0.59c14.74-0.98,42.96-3.34,70.09-3.5c2.36-0.01,3.78,0.28,4.96,0.57" class="stroke" stroke-dasharray="150"><set attributeName="opacity" to="0" dur="15.100000000000001s" /><animate attributeName="stroke-dashoffset" from="150" to="0" dur="1.8s" begin="15.100000000000001s" fill="freeze" /></path><text x="90" y="120" id="reset-kvg-076e1-VtFst">⟳</text><text x="70" y="120" id="pause-kvg-076e1-VtFst">◼</text><script type="text/javascript"><![CDATA[function RecurringTimer(e,t){var n,r,i=t;this.pause=function(){window.clearTimeout(n);i-=new Date-r};var s=function(){r=new Date;n=window.setTimeout(function(){i=t;s();e()},i)};this.clear=function(){window.clearTimeout(n);i=t;n=window.setTimeout(function(){i=t;s();e()},i)};this.resume=s;this.resume()}function invoketimer(){timer=new RecurringTimer(function(){svg.setCurrentTime(0)},17800.0)}var svg=document.getElementById("kvg-076e1-VtFst");var pause=document.getElementById("pause-kvg-076e1-VtFst");var reset=document.getElementById("reset-kvg-076e1-VtFst");var timer;invoketimer();reset.onclick=function(){svg.setCurrentTime(0);timer.clear();svg.unpauseAnimations();pause.innerHTML = "◼";};pause.onclick=function(){if(svg.animationsPaused()){svg.unpauseAnimations();timer.resume();pause.innerHTML="◼"}else{svg.pauseAnimations();timer.pause();pause.innerHTML="▶"}}]]></script></svg>