<svg id="kvg-077e9" class="kanjivg" width="106" height="126" xmlns="http://www.w3.org/2000/svg" xmlns:xlink="http://www.w3.org/1999/xlink" xml:space="preserve" version="1.1" baseProfile="full"><defs><style type="text/css"><![CDATA[path.black{fill:none;stroke:black;stroke-width:5;stroke-linecap:round;stroke-linejoin:round;}path.grey{fill:none;stroke:#ddd;stroke-width:5;stroke-linecap:round;stroke-linejoin:round;}path.stroke{fill:none;stroke:black;stroke-width:5;stroke-linecap:round;stroke-linejoin:round;}rect{fill:none;stroke:#555;stroke-width:2;} text{font-size:16px;font-family:Segoe UI Symbol,Cambria Math,DejaVu Sans,Symbola,Quivira,STIX,Code2000;-webkit-touch-callout:none;cursor:pointer;-webkit-user-select:none;-khtml-user-select:none;-moz-user-select:none;-ms-user-select:none;user-select: none;}text:hover{color:#777;}#reset{font-weight:bold;}]]></style><marker id="markerStart" markerWidth="8" markerHeight="8" style="overflow:visible;"><circle cx="0" cy="0" r="1.5" style="stroke:none;fill:red;fill-opacity:0.5;"/></marker><marker id="markerEnd" style="overflow:visible;"><circle cx="0" cy="0" r="0.8" style="stroke:none;fill:blue;fill-opacity:0.5;"><animate attributeName="opacity" from="1" to="0" dur="3s" repeatCount="indefinite" /></circle></marker></defs><rect x="4" y="4" width="100" height="100" /><path d="M26.34,15.5c0.42,1.28,0.23,2.55-0.16,3.77c-2.04,6.45-7.04,18.36-12.91,26.53" class="grey" /><path d="M23.07,34.18c1.18,0.19,2.32,0.1,3.04-0.09c2.95-0.79,9.14-1.59,14.81-3.09c1.22-0.32,2.95-0.22,3.56-0.02" class="grey" /><path d="M8.82,55.19c2.31,0.81,4.74,0.31,6.67,0.02c6.75-1.02,15.14-2.03,24.14-2.96c2.29-0.24,4.88-0.5,7.21-0.15" class="grey" /><path d="M29.44,36.03c0.76,0.76,1.01,2.22,0.98,3.94C30,66.38,24.38,82.75,11,92.88" class="grey" /><path d="M30.38,66.5c4.3,3.15,9.76,9.17,12.62,15.5" class="grey" /><path d="M52.46,18.38c1.08,1.08,1.34,2.37,1.34,4.03c0,4.64,0.03,44.41,0.04,62.46c0,3.7,0,6.49,0,7.88" class="grey" /><path d="M54.77,21.2c6.15-0.64,19.81-2.16,32-3.56c2.36-0.27,4.99-0.65,7.46-0.37" class="grey" /><path d="M54.59,44.31c10.43-1.34,21.1-2.54,29.27-3.53c3.91-0.48,5.55,0.13,4.77,4.36c-0.78,4.19-2,9.98-3.21,15.86" class="grey" /><path d="M55.02,64.7c4.58-0.34,18.83-1.67,27.36-2.42c2.6-0.23,4.68-0.4,5.78-0.48" class="grey" /><path d="M54.77,90.6c6.26-0.55,21.11-1.48,35.48-2.53c2.38-0.17,5.12-0.32,7.5,0.33" class="grey" /><path d="M26.34,15.5c0.42,1.28,0.23,2.55-0.16,3.77c-2.04,6.45-7.04,18.36-12.91,26.53" class="stroke" stroke-dasharray="150"><animate attributeName="stroke-dashoffset" from="150" to="0" dur="1.8s" begin="0.0s" fill="freeze" /></path><path d="M23.07,34.18c1.18,0.19,2.32,0.1,3.04-0.09c2.95-0.79,9.14-1.59,14.81-3.09c1.22-0.32,2.95-0.22,3.56-0.02" class="stroke" stroke-dasharray="150"><set attributeName="opacity" to="0" dur="1.0s" /><animate attributeName="stroke-dashoffset" from="150" to="0" dur="1.8s" begin="1.0s" fill="freeze" /></path><path d="M8.82,55.19c2.31,0.81,4.74,0.31,6.67,0.02c6.75-1.02,15.14-2.03,24.14-2.96c2.29-0.24,4.88-0.5,7.21-0.15" class="stroke" stroke-dasharray="150"><set attributeName="opacity" to="0" dur="2.0s" /><animate attributeName="stroke-dashoffset" from="150" to="0" dur="1.8s" begin="2.0s" fill="freeze" /></path><path d="M29.44,36.03c0.76,0.76,1.01,2.22,0.98,3.94C30,66.38,24.38,82.75,11,92.88" class="stroke" stroke-dasharray="150"><set attributeName="opacity" to="0" dur="3.0s" /><animate attributeName="stroke-dashoffset" from="150" to="0" dur="1.8s" begin="3.0s" fill="freeze" /></path><path d="M30.38,66.5c4.3,3.15,9.76,9.17,12.62,15.5" class="stroke" stroke-dasharray="150"><set attributeName="opacity" to="0" dur="4.5s" /><animate attributeName="stroke-dashoffset" from="150" to="0" dur="1.8s" begin="4.5s" fill="freeze" /></path><path d="M52.46,18.38c1.08,1.08,1.34,2.37,1.34,4.03c0,4.64,0.03,44.41,0.04,62.46c0,3.7,0,6.49,0,7.88" class="stroke" stroke-dasharray="150"><set attributeName="opacity" to="0" dur="5.5s" /><animate attributeName="stroke-dashoffset" from="150" to="0" dur="1.8s" begin="5.5s" fill="freeze" /></path><path d="M54.77,21.2c6.15-0.64,19.81-2.16,32-3.56c2.36-0.27,4.99-0.65,7.46-0.37" class="stroke" stroke-dasharray="150"><set attributeName="opacity" to="0" dur="7.2s" /><animate attributeName="stroke-dashoffset" from="150" to="0" dur="1.8s" begin="7.2s" fill="freeze" /></path><path d="M54.59,44.31c10.43-1.34,21.1-2.54,29.27-3.53c3.91-0.48,5.55,0.13,4.77,4.36c-0.78,4.19-2,9.98-3.21,15.86" class="stroke" stroke-dasharray="150"><set attributeName="opacity" to="0" dur="8.2s" /><animate attributeName="stroke-dashoffset" from="150" to="0" dur="1.8s" begin="8.2s" fill="freeze" /></path><path d="M55.02,64.7c4.58-0.34,18.83-1.67,27.36-2.42c2.6-0.23,4.68-0.4,5.78-0.48" class="stroke" stroke-dasharray="150"><set attributeName="opacity" to="0" dur="9.5s" /><animate attributeName="stroke-dashoffset" from="150" to="0" dur="1.8s" begin="9.5s" fill="freeze" /></path><path d="M54.77,90.6c6.26-0.55,21.11-1.48,35.48-2.53c2.38-0.17,5.12-0.32,7.5,0.33" class="stroke" stroke-dasharray="150"><set attributeName="opacity" to="0" dur="10.5s" /><animate attributeName="stroke-dashoffset" from="150" to="0" dur="1.8s" begin="10.5s" fill="freeze" /></path><text x="90" y="120" id="reset-kvg-077e9">⟳</text><text x="70" y="120" id="pause-kvg-077e9">◼</text><script type="text/javascript"><![CDATA[function RecurringTimer(e,t){var n,r,i=t;this.pause=function(){window.clearTimeout(n);i-=new Date-r};var s=function(){r=new Date;n=window.setTimeout(function(){i=t;s();e()},i)};this.clear=function(){window.clearTimeout(n);i=t;n=window.setTimeout(function(){i=t;s();e()},i)};this.resume=s;this.resume()}function invoketimer(){timer=new RecurringTimer(function(){svg.setCurrentTime(0)},12600.0)}var svg=document.getElementById("kvg-077e9");var pause=document.getElementById("pause-kvg-077e9");var reset=document.getElementById("reset-kvg-077e9");var timer;invoketimer();reset.onclick=function(){svg.setCurrentTime(0);timer.clear();svg.unpauseAnimations();pause.innerHTML = "◼";};pause.onclick=function(){if(svg.animationsPaused()){svg.unpauseAnimations();timer.resume();pause.innerHTML="◼"}else{svg.pauseAnimations();timer.pause();pause.innerHTML="▶"}}]]></script></svg>