<svg id="kvg-07965" class="kanjivg" width="106" height="126" xmlns="http://www.w3.org/2000/svg" xmlns:xlink="http://www.w3.org/1999/xlink" xml:space="preserve" version="1.1" baseProfile="full"><defs><style type="text/css"><![CDATA[path.black{fill:none;stroke:black;stroke-width:5;stroke-linecap:round;stroke-linejoin:round;}path.grey{fill:none;stroke:#ddd;stroke-width:5;stroke-linecap:round;stroke-linejoin:round;}path.stroke{fill:none;stroke:black;stroke-width:5;stroke-linecap:round;stroke-linejoin:round;}rect{fill:none;stroke:#555;stroke-width:2;} text{font-size:16px;font-family:Segoe UI Symbol,Cambria Math,DejaVu Sans,Symbola,Quivira,STIX,Code2000;-webkit-touch-callout:none;cursor:pointer;-webkit-user-select:none;-khtml-user-select:none;-moz-user-select:none;-ms-user-select:none;user-select: none;}text:hover{color:#777;}#reset{font-weight:bold;}]]></style><marker id="markerStart" markerWidth="8" markerHeight="8" style="overflow:visible;"><circle cx="0" cy="0" r="1.5" style="stroke:none;fill:red;fill-opacity:0.5;"/></marker><marker id="markerEnd" style="overflow:visible;"><circle cx="0" cy="0" r="0.8" style="stroke:none;fill:blue;fill-opacity:0.5;"><animate attributeName="opacity" from="1" to="0" dur="3s" repeatCount="indefinite" /></circle></marker></defs><rect x="4" y="4" width="100" height="100" /><path d="M25.83,13.5c3.59,2.41,7.43,6.03,10.5,10.25" class="grey" /><path d="M11.58,38c2.49,1.11,4.21,1.12,6.73,0.44C25,36.62,32.62,34.5,36.83,33c2.46-0.88,4.69,1.21,3.25,3.5c-5.45,8.63-15.95,21.75-25.75,30.75" class="grey" /><path d="M29,53.61c0.12,0.29,1.77,1.52,1.77,3.39c0,9.08,0.18,22.85,0.27,31.75c0.02,2.61,0.04,4.85,0.04,6.5" class="grey" /><path d="M32.58,52.5c3.67,1.82,7.6,4.56,10.75,7.75" class="grey" /><path d="M53.42,14.46c3.46,2.16,8.95,8.86,9.81,12.22" class="grey" /><path d="M87.04,12.89c0.07,0.9,0.08,1.6-0.36,2.38C84,20,81.12,23.38,75.63,28.9" class="grey" /><path d="M51.29,33.73c2.21,0.39,4.53,0.37,6.35,0.14c8.87-1.12,21.44-1.86,28.13-2.36c1.74-0.13,3.5-0.32,5.2,0.18" class="grey" /><path d="M53.27,50.17c1.98,0.33,3.83,0.27,5.36,0.16c6.85-0.52,18.59-1.69,25.12-1.99c1.72-0.08,3.64-0.29,5.31,0.27" class="grey" /><path d="M44.28,66.99c2.47,0.63,4.78,0.63,6.97,0.43c10.79-1,26.98-2.34,38-2.78c2.5-0.1,4.75-0.02,7.47,0.36" class="grey" /><path d="M69.47,34.1c0.84,0.84,0.99,2.02,0.99,3.42c0,4.57-0.08,34.35-0.08,49.97c0,2.38,0,5.62,0,9.25" class="grey" /><path d="M25.83,13.5c3.59,2.41,7.43,6.03,10.5,10.25" class="stroke" stroke-dasharray="150"><animate attributeName="stroke-dashoffset" from="150" to="0" dur="1.8s" begin="0.0s" fill="freeze" /></path><path d="M11.58,38c2.49,1.11,4.21,1.12,6.73,0.44C25,36.62,32.62,34.5,36.83,33c2.46-0.88,4.69,1.21,3.25,3.5c-5.45,8.63-15.95,21.75-25.75,30.75" class="stroke" stroke-dasharray="150"><set attributeName="opacity" to="0" dur="0.9s" /><animate attributeName="stroke-dashoffset" from="150" to="0" dur="1.8s" begin="0.9s" fill="freeze" /></path><path d="M29,53.61c0.12,0.29,1.77,1.52,1.77,3.39c0,9.08,0.18,22.85,0.27,31.75c0.02,2.61,0.04,4.85,0.04,6.5" class="stroke" stroke-dasharray="150"><set attributeName="opacity" to="0" dur="2.6s" /><animate attributeName="stroke-dashoffset" from="150" to="0" dur="1.8s" begin="2.6s" fill="freeze" /></path><path d="M32.58,52.5c3.67,1.82,7.6,4.56,10.75,7.75" class="stroke" stroke-dasharray="150"><set attributeName="opacity" to="0" dur="3.7s" /><animate attributeName="stroke-dashoffset" from="150" to="0" dur="1.8s" begin="3.7s" fill="freeze" /></path><path d="M53.42,14.46c3.46,2.16,8.95,8.86,9.81,12.22" class="stroke" stroke-dasharray="150"><set attributeName="opacity" to="0" dur="4.6000000000000005s" /><animate attributeName="stroke-dashoffset" from="150" to="0" dur="1.8s" begin="4.6000000000000005s" fill="freeze" /></path><path d="M87.04,12.89c0.07,0.9,0.08,1.6-0.36,2.38C84,20,81.12,23.38,75.63,28.9" class="stroke" stroke-dasharray="150"><set attributeName="opacity" to="0" dur="5.500000000000001s" /><animate attributeName="stroke-dashoffset" from="150" to="0" dur="1.8s" begin="5.500000000000001s" fill="freeze" /></path><path d="M51.29,33.73c2.21,0.39,4.53,0.37,6.35,0.14c8.87-1.12,21.44-1.86,28.13-2.36c1.74-0.13,3.5-0.32,5.2,0.18" class="stroke" stroke-dasharray="150"><set attributeName="opacity" to="0" dur="6.500000000000001s" /><animate attributeName="stroke-dashoffset" from="150" to="0" dur="1.8s" begin="6.500000000000001s" fill="freeze" /></path><path d="M53.27,50.17c1.98,0.33,3.83,0.27,5.36,0.16c6.85-0.52,18.59-1.69,25.12-1.99c1.72-0.08,3.64-0.29,5.31,0.27" class="stroke" stroke-dasharray="150"><set attributeName="opacity" to="0" dur="7.500000000000001s" /><animate attributeName="stroke-dashoffset" from="150" to="0" dur="1.8s" begin="7.500000000000001s" fill="freeze" /></path><path d="M44.28,66.99c2.47,0.63,4.78,0.63,6.97,0.43c10.79-1,26.98-2.34,38-2.78c2.5-0.1,4.75-0.02,7.47,0.36" class="stroke" stroke-dasharray="150"><set attributeName="opacity" to="0" dur="8.5s" /><animate attributeName="stroke-dashoffset" from="150" to="0" dur="1.8s" begin="8.5s" fill="freeze" /></path><path d="M69.47,34.1c0.84,0.84,0.99,2.02,0.99,3.42c0,4.57-0.08,34.35-0.08,49.97c0,2.38,0,5.62,0,9.25" class="stroke" stroke-dasharray="150"><set attributeName="opacity" to="0" dur="9.8s" /><animate attributeName="stroke-dashoffset" from="150" to="0" dur="1.8s" begin="9.8s" fill="freeze" /></path><text x="90" y="120" id="reset-kvg-07965">⟳</text><text x="70" y="120" id="pause-kvg-07965">◼</text><script type="text/javascript"><![CDATA[function RecurringTimer(e,t){var n,r,i=t;this.pause=function(){window.clearTimeout(n);i-=new Date-r};var s=function(){r=new Date;n=window.setTimeout(function(){i=t;s();e()},i)};this.clear=function(){window.clearTimeout(n);i=t;n=window.setTimeout(function(){i=t;s();e()},i)};this.resume=s;this.resume()}function invoketimer(){timer=new RecurringTimer(function(){svg.setCurrentTime(0)},12300.0)}var svg=document.getElementById("kvg-07965");var pause=document.getElementById("pause-kvg-07965");var reset=document.getElementById("reset-kvg-07965");var timer;invoketimer();reset.onclick=function(){svg.setCurrentTime(0);timer.clear();svg.unpauseAnimations();pause.innerHTML = "◼";};pause.onclick=function(){if(svg.animationsPaused()){svg.unpauseAnimations();timer.resume();pause.innerHTML="◼"}else{svg.pauseAnimations();timer.pause();pause.innerHTML="▶"}}]]></script></svg>