<svg id="kvg-07985-Kaisho" class="kanjivg" width="106" height="126" xmlns="http://www.w3.org/2000/svg" xmlns:xlink="http://www.w3.org/1999/xlink" xml:space="preserve" version="1.1" baseProfile="full"><defs><style type="text/css"><![CDATA[path.black{fill:none;stroke:black;stroke-width:5;stroke-linecap:round;stroke-linejoin:round;}path.grey{fill:none;stroke:#ddd;stroke-width:5;stroke-linecap:round;stroke-linejoin:round;}path.stroke{fill:none;stroke:black;stroke-width:5;stroke-linecap:round;stroke-linejoin:round;}rect{fill:none;stroke:#555;stroke-width:2;} text{font-size:16px;font-family:Segoe UI Symbol,Cambria Math,DejaVu Sans,Symbola,Quivira,STIX,Code2000;-webkit-touch-callout:none;cursor:pointer;-webkit-user-select:none;-khtml-user-select:none;-moz-user-select:none;-ms-user-select:none;user-select: none;}text:hover{color:#777;}#reset{font-weight:bold;}]]></style><marker id="markerStart" markerWidth="8" markerHeight="8" style="overflow:visible;"><circle cx="0" cy="0" r="1.5" style="stroke:none;fill:red;fill-opacity:0.5;"/></marker><marker id="markerEnd" style="overflow:visible;"><circle cx="0" cy="0" r="0.8" style="stroke:none;fill:blue;fill-opacity:0.5;"><animate attributeName="opacity" from="1" to="0" dur="3s" repeatCount="indefinite" /></circle></marker></defs><rect x="4" y="4" width="100" height="100" /><path d="M27.58,14c2.65,2.12,5.48,5.29,7.75,9" class="grey" /><path d="M14.58,36.5c1.01,0.45,2.59,1.2,4.26,0.7c2.05-0.61,15.74-3.95,18.24-4.7s4.02,1.51,2.5,3.75c-5.25,7.75-17,23-25.75,30.75" class="grey" /><path d="M27,53.11c0.12,0.29,1.65,1.53,1.77,3.39c0.57,8.93,0.06,36.7,0.06,39.75" class="grey" /><path d="M32.58,49.5c3.33,2.53,6.9,6.32,9.75,10.75" class="grey" /><path d="M48.32,17.15c2.93,3.51,6.06,9.64,6.48,11.39" class="grey" /><path d="M64.26,12.5c1.42,2.34,4.81,8.49,5.38,12.29" class="grey" /><path d="M88.32,11.25c0.49,0.76,0.98,1.51,0.74,3.03c-0.25,1.51-5.65,8.58-7.37,10.85" class="grey" /><path d="M49.77,34.41c0.28,0.47,0.29,0.79,0.45,1.37c1.28,4.79,4.02,16.85,4.82,25.74" class="grey" /><path d="M51.09,35.75c10.64-1.61,27.59-3.24,34.91-4.06c2.69-0.3,4.32,0.65,4.24,2.67c-0.19,4.8-3.58,21.1-4.06,23.1" class="grey" /><path d="M53.74,46.97c7.71-0.92,15.51-1.35,23.25-1.97c0.93-0.07,1.84-0.15,2.7-0.21" class="grey" /><path d="M55.04,59.31c9.26-1.53,21.09-2.35,31.22-3.29" class="grey" /><path d="M44.59,71.36c1.38,0.31,3.91,0.44,5.28,0.31c10.7-0.99,29.04-2.88,43.73-3.7c2.28-0.13,3.67,0.15,4.82,0.31" class="grey" /><path d="M68.71,35.49c0.76,0.5,1.24,1.88,1.25,3.58c0.05,8.58,0.23,56.9,0.25,59.7" class="grey" /><path d="M27.58,14c2.65,2.12,5.48,5.29,7.75,9" class="stroke" stroke-dasharray="150"><animate attributeName="stroke-dashoffset" from="150" to="0" dur="1.8s" begin="0.0s" fill="freeze" /></path><path d="M14.58,36.5c1.01,0.45,2.59,1.2,4.26,0.7c2.05-0.61,15.74-3.95,18.24-4.7s4.02,1.51,2.5,3.75c-5.25,7.75-17,23-25.75,30.75" class="stroke" stroke-dasharray="150"><set attributeName="opacity" to="0" dur="0.9s" /><animate attributeName="stroke-dashoffset" from="150" to="0" dur="1.8s" begin="0.9s" fill="freeze" /></path><path d="M27,53.11c0.12,0.29,1.65,1.53,1.77,3.39c0.57,8.93,0.06,36.7,0.06,39.75" class="stroke" stroke-dasharray="150"><set attributeName="opacity" to="0" dur="2.4s" /><animate attributeName="stroke-dashoffset" from="150" to="0" dur="1.8s" begin="2.4s" fill="freeze" /></path><path d="M32.58,49.5c3.33,2.53,6.9,6.32,9.75,10.75" class="stroke" stroke-dasharray="150"><set attributeName="opacity" to="0" dur="3.5s" /><animate attributeName="stroke-dashoffset" from="150" to="0" dur="1.8s" begin="3.5s" fill="freeze" /></path><path d="M48.32,17.15c2.93,3.51,6.06,9.64,6.48,11.39" class="stroke" stroke-dasharray="150"><set attributeName="opacity" to="0" dur="4.4s" /><animate attributeName="stroke-dashoffset" from="150" to="0" dur="1.8s" begin="4.4s" fill="freeze" /></path><path d="M64.26,12.5c1.42,2.34,4.81,8.49,5.38,12.29" class="stroke" stroke-dasharray="150"><set attributeName="opacity" to="0" dur="5.300000000000001s" /><animate attributeName="stroke-dashoffset" from="150" to="0" dur="1.8s" begin="5.300000000000001s" fill="freeze" /></path><path d="M88.32,11.25c0.49,0.76,0.98,1.51,0.74,3.03c-0.25,1.51-5.65,8.58-7.37,10.85" class="stroke" stroke-dasharray="150"><set attributeName="opacity" to="0" dur="6.200000000000001s" /><animate attributeName="stroke-dashoffset" from="150" to="0" dur="1.8s" begin="6.200000000000001s" fill="freeze" /></path><path d="M49.77,34.41c0.28,0.47,0.29,0.79,0.45,1.37c1.28,4.79,4.02,16.85,4.82,25.74" class="stroke" stroke-dasharray="150"><set attributeName="opacity" to="0" dur="7.100000000000001s" /><animate attributeName="stroke-dashoffset" from="150" to="0" dur="1.8s" begin="7.100000000000001s" fill="freeze" /></path><path d="M51.09,35.75c10.64-1.61,27.59-3.24,34.91-4.06c2.69-0.3,4.32,0.65,4.24,2.67c-0.19,4.8-3.58,21.1-4.06,23.1" class="stroke" stroke-dasharray="150"><set attributeName="opacity" to="0" dur="8.100000000000001s" /><animate attributeName="stroke-dashoffset" from="150" to="0" dur="1.8s" begin="8.100000000000001s" fill="freeze" /></path><path d="M53.74,46.97c7.71-0.92,15.51-1.35,23.25-1.97c0.93-0.07,1.84-0.15,2.7-0.21" class="stroke" stroke-dasharray="150"><set attributeName="opacity" to="0" dur="9.600000000000001s" /><animate attributeName="stroke-dashoffset" from="150" to="0" dur="1.8s" begin="9.600000000000001s" fill="freeze" /></path><path d="M55.04,59.31c9.26-1.53,21.09-2.35,31.22-3.29" class="stroke" stroke-dasharray="150"><set attributeName="opacity" to="0" dur="10.600000000000001s" /><animate attributeName="stroke-dashoffset" from="150" to="0" dur="1.8s" begin="10.600000000000001s" fill="freeze" /></path><path d="M44.59,71.36c1.38,0.31,3.91,0.44,5.28,0.31c10.7-0.99,29.04-2.88,43.73-3.7c2.28-0.13,3.67,0.15,4.82,0.31" class="stroke" stroke-dasharray="150"><set attributeName="opacity" to="0" dur="11.600000000000001s" /><animate attributeName="stroke-dashoffset" from="150" to="0" dur="1.8s" begin="11.600000000000001s" fill="freeze" /></path><path d="M68.71,35.49c0.76,0.5,1.24,1.88,1.25,3.58c0.05,8.58,0.23,56.9,0.25,59.7" class="stroke" stroke-dasharray="150"><set attributeName="opacity" to="0" dur="12.900000000000002s" /><animate attributeName="stroke-dashoffset" from="150" to="0" dur="1.8s" begin="12.900000000000002s" fill="freeze" /></path><text x="90" y="120" id="reset-kvg-07985-Kaisho">⟳</text><text x="70" y="120" id="pause-kvg-07985-Kaisho">◼</text><script type="text/javascript"><![CDATA[function RecurringTimer(e,t){var n,r,i=t;this.pause=function(){window.clearTimeout(n);i-=new Date-r};var s=function(){r=new Date;n=window.setTimeout(function(){i=t;s();e()},i)};this.clear=function(){window.clearTimeout(n);i=t;n=window.setTimeout(function(){i=t;s();e()},i)};this.resume=s;this.resume()}function invoketimer(){timer=new RecurringTimer(function(){svg.setCurrentTime(0)},15400.000000000002)}var svg=document.getElementById("kvg-07985-Kaisho");var pause=document.getElementById("pause-kvg-07985-Kaisho");var reset=document.getElementById("reset-kvg-07985-Kaisho");var timer;invoketimer();reset.onclick=function(){svg.setCurrentTime(0);timer.clear();svg.unpauseAnimations();pause.innerHTML = "◼";};pause.onclick=function(){if(svg.animationsPaused()){svg.unpauseAnimations();timer.resume();pause.innerHTML="◼"}else{svg.pauseAnimations();timer.pause();pause.innerHTML="▶"}}]]></script></svg>