<svg id="kvg-079a6" class="kanjivg" width="106" height="126" xmlns="http://www.w3.org/2000/svg" xmlns:xlink="http://www.w3.org/1999/xlink" xml:space="preserve" version="1.1" baseProfile="full"><defs><style type="text/css"><![CDATA[path.black{fill:none;stroke:black;stroke-width:5;stroke-linecap:round;stroke-linejoin:round;}path.grey{fill:none;stroke:#ddd;stroke-width:5;stroke-linecap:round;stroke-linejoin:round;}path.stroke{fill:none;stroke:black;stroke-width:5;stroke-linecap:round;stroke-linejoin:round;}rect{fill:none;stroke:#555;stroke-width:2;} text{font-size:16px;font-family:Segoe UI Symbol,Cambria Math,DejaVu Sans,Symbola,Quivira,STIX,Code2000;-webkit-touch-callout:none;cursor:pointer;-webkit-user-select:none;-khtml-user-select:none;-moz-user-select:none;-ms-user-select:none;user-select: none;}text:hover{color:#777;}#reset{font-weight:bold;}]]></style><marker id="markerStart" markerWidth="8" markerHeight="8" style="overflow:visible;"><circle cx="0" cy="0" r="1.5" style="stroke:none;fill:red;fill-opacity:0.5;"/></marker><marker id="markerEnd" style="overflow:visible;"><circle cx="0" cy="0" r="0.8" style="stroke:none;fill:blue;fill-opacity:0.5;"><animate attributeName="opacity" from="1" to="0" dur="3s" repeatCount="indefinite" /></circle></marker></defs><rect x="4" y="4" width="100" height="100" /><path d="M30.36,11.99c0,0.88-0.45,1.6-0.99,2.23c-2.74,3.15-9.36,8.19-14.99,11.4" class="grey" /><path d="M32.59,25.41c-0.15,1.18-0.57,2.25-1.26,3.21c-2.9,4.73-8.95,12.51-17.35,18.5" class="grey" /><path d="M25.75,40.15c0.68,0.68,0.8,1.48,0.8,2.33c0,0.27,0.01,8.06-0.01,13.4c-0.01,2.18-0.02,3.95-0.04,4.62" class="grey" /><path d="M46.58,10.72c0.11,0.86,0,1.69-0.33,2.48c-2.12,5.29-4.19,9.39-7.16,12.94" class="grey" /><path d="M47,18.98c1.35,0.19,2.68,0.13,3.99-0.18c3.51-0.55,7.12-1.34,9.15-1.63c1.15-0.3,2.3-0.29,3.44,0.04" class="grey" /><path d="M37.86,31.76c2.15,0.38,4.27,0.25,6.4-0.16c5.11-0.98,11.74-2.35,17.27-2.76c2.06-0.15,4.09-0.46,6.18-0.36" class="grey" /><path d="M53.08,20.56c0.8,0.8,1,1.56,1,2.74c0,2.57-0.08,21.74-0.08,27.07" class="grey" /><path d="M55.25,40.12c2.96-0.58,4.69-1.13,6.98-1.62c1.24-0.35,2.5-0.43,3.79-0.27" class="grey" /><path d="M41.62,38.19c0.72,0.72,0.88,1.31,1,2.74c0.26,3.19,0.51,7.2,0.83,12.36" class="grey" /><path d="M38.17,55.12c1.11,0.57,2.18,0.62,3.21,0.16c5.8-1.91,15.31-4.55,25.44-7.83" class="grey" /><path d="M72.41,16.73c1.53,0.73,3.07,0.68,4.6,0.35c2.53-0.46,11.24-2.25,12.53-2.39c1.43-0.16,3.71-0.32,3.71,3.01c0,4.54-0.5,16.55-1.74,24.82c-1.17,7.82-2.96,8.99-6.08,3.65" class="grey" /><path d="M74.2,17.91c0.76,0.76,1.06,1.84,1.06,2.96c0,5.65,0.01,19.64,0.01,28.76c0,3.77,0,6.71,0,7.88" class="grey" /><path d="M36.03,64.39c2.4,0.4,4.81,0.51,7.23,0.26C50.88,63.88,58.5,63,65.89,62.1c2.17-0.26,4.23-0.58,6.35-0.09" class="grey" /><path d="M18.28,76.46c3.91,0.71,7.82,0.66,11.73-0.13c12.86-1.36,37.28-3.99,51.99-4.57c3.67-0.29,7.33-0.17,10.97,0.38" class="grey" /><path d="M54.47,76.85c0.99,0.99,1.03,2.42,1.03,4.02c0,3.64,0.01,10.38,0.01,13.62c0,8.63-3.7,3.1-7.13,0.2" class="grey" /><path d="M36.5,83.64c0,1.23-0.68,2.16-1.36,3.09c-3.51,3.52-10.5,8.08-19.39,12.02" class="grey" /><path d="M69.25,82c8.75,4.38,16.12,9.12,19.5,14.75" class="grey" /><path d="M30.36,11.99c0,0.88-0.45,1.6-0.99,2.23c-2.74,3.15-9.36,8.19-14.99,11.4" class="stroke" stroke-dasharray="150"><animate attributeName="stroke-dashoffset" from="150" to="0" dur="1.8s" begin="0.0s" fill="freeze" /></path><path d="M32.59,25.41c-0.15,1.18-0.57,2.25-1.26,3.21c-2.9,4.73-8.95,12.51-17.35,18.5" class="stroke" stroke-dasharray="150"><set attributeName="opacity" to="0" dur="1.0s" /><animate attributeName="stroke-dashoffset" from="150" to="0" dur="1.8s" begin="1.0s" fill="freeze" /></path><path d="M25.75,40.15c0.68,0.68,0.8,1.48,0.8,2.33c0,0.27,0.01,8.06-0.01,13.4c-0.01,2.18-0.02,3.95-0.04,4.62" class="stroke" stroke-dasharray="150"><set attributeName="opacity" to="0" dur="2.0s" /><animate attributeName="stroke-dashoffset" from="150" to="0" dur="1.8s" begin="2.0s" fill="freeze" /></path><path d="M46.58,10.72c0.11,0.86,0,1.69-0.33,2.48c-2.12,5.29-4.19,9.39-7.16,12.94" class="stroke" stroke-dasharray="150"><set attributeName="opacity" to="0" dur="3.0s" /><animate attributeName="stroke-dashoffset" from="150" to="0" dur="1.8s" begin="3.0s" fill="freeze" /></path><path d="M47,18.98c1.35,0.19,2.68,0.13,3.99-0.18c3.51-0.55,7.12-1.34,9.15-1.63c1.15-0.3,2.3-0.29,3.44,0.04" class="stroke" stroke-dasharray="150"><set attributeName="opacity" to="0" dur="3.9s" /><animate attributeName="stroke-dashoffset" from="150" to="0" dur="1.8s" begin="3.9s" fill="freeze" /></path><path d="M37.86,31.76c2.15,0.38,4.27,0.25,6.4-0.16c5.11-0.98,11.74-2.35,17.27-2.76c2.06-0.15,4.09-0.46,6.18-0.36" class="stroke" stroke-dasharray="150"><set attributeName="opacity" to="0" dur="4.8s" /><animate attributeName="stroke-dashoffset" from="150" to="0" dur="1.8s" begin="4.8s" fill="freeze" /></path><path d="M53.08,20.56c0.8,0.8,1,1.56,1,2.74c0,2.57-0.08,21.74-0.08,27.07" class="stroke" stroke-dasharray="150"><set attributeName="opacity" to="0" dur="5.8s" /><animate attributeName="stroke-dashoffset" from="150" to="0" dur="1.8s" begin="5.8s" fill="freeze" /></path><path d="M55.25,40.12c2.96-0.58,4.69-1.13,6.98-1.62c1.24-0.35,2.5-0.43,3.79-0.27" class="stroke" stroke-dasharray="150"><set attributeName="opacity" to="0" dur="6.8s" /><animate attributeName="stroke-dashoffset" from="150" to="0" dur="1.8s" begin="6.8s" fill="freeze" /></path><path d="M41.62,38.19c0.72,0.72,0.88,1.31,1,2.74c0.26,3.19,0.51,7.2,0.83,12.36" class="stroke" stroke-dasharray="150"><set attributeName="opacity" to="0" dur="7.7s" /><animate attributeName="stroke-dashoffset" from="150" to="0" dur="1.8s" begin="7.7s" fill="freeze" /></path><path d="M38.17,55.12c1.11,0.57,2.18,0.62,3.21,0.16c5.8-1.91,15.31-4.55,25.44-7.83" class="stroke" stroke-dasharray="150"><set attributeName="opacity" to="0" dur="8.6s" /><animate attributeName="stroke-dashoffset" from="150" to="0" dur="1.8s" begin="8.6s" fill="freeze" /></path><path d="M72.41,16.73c1.53,0.73,3.07,0.68,4.6,0.35c2.53-0.46,11.24-2.25,12.53-2.39c1.43-0.16,3.71-0.32,3.71,3.01c0,4.54-0.5,16.55-1.74,24.82c-1.17,7.82-2.96,8.99-6.08,3.65" class="stroke" stroke-dasharray="150"><set attributeName="opacity" to="0" dur="9.6s" /><animate attributeName="stroke-dashoffset" from="150" to="0" dur="1.8s" begin="9.6s" fill="freeze" /></path><path d="M74.2,17.91c0.76,0.76,1.06,1.84,1.06,2.96c0,5.65,0.01,19.64,0.01,28.76c0,3.77,0,6.71,0,7.88" class="stroke" stroke-dasharray="150"><set attributeName="opacity" to="0" dur="11.1s" /><animate attributeName="stroke-dashoffset" from="150" to="0" dur="1.8s" begin="11.1s" fill="freeze" /></path><path d="M36.03,64.39c2.4,0.4,4.81,0.51,7.23,0.26C50.88,63.88,58.5,63,65.89,62.1c2.17-0.26,4.23-0.58,6.35-0.09" class="stroke" stroke-dasharray="150"><set attributeName="opacity" to="0" dur="12.1s" /><animate attributeName="stroke-dashoffset" from="150" to="0" dur="1.8s" begin="12.1s" fill="freeze" /></path><path d="M18.28,76.46c3.91,0.71,7.82,0.66,11.73-0.13c12.86-1.36,37.28-3.99,51.99-4.57c3.67-0.29,7.33-0.17,10.97,0.38" class="stroke" stroke-dasharray="150"><set attributeName="opacity" to="0" dur="13.1s" /><animate attributeName="stroke-dashoffset" from="150" to="0" dur="1.8s" begin="13.1s" fill="freeze" /></path><path d="M54.47,76.85c0.99,0.99,1.03,2.42,1.03,4.02c0,3.64,0.01,10.38,0.01,13.62c0,8.63-3.7,3.1-7.13,0.2" class="stroke" stroke-dasharray="150"><set attributeName="opacity" to="0" dur="14.799999999999999s" /><animate attributeName="stroke-dashoffset" from="150" to="0" dur="1.8s" begin="14.799999999999999s" fill="freeze" /></path><path d="M36.5,83.64c0,1.23-0.68,2.16-1.36,3.09c-3.51,3.52-10.5,8.08-19.39,12.02" class="stroke" stroke-dasharray="150"><set attributeName="opacity" to="0" dur="15.799999999999999s" /><animate attributeName="stroke-dashoffset" from="150" to="0" dur="1.8s" begin="15.799999999999999s" fill="freeze" /></path><path d="M69.25,82c8.75,4.38,16.12,9.12,19.5,14.75" class="stroke" stroke-dasharray="150"><set attributeName="opacity" to="0" dur="16.799999999999997s" /><animate attributeName="stroke-dashoffset" from="150" to="0" dur="1.8s" begin="16.799999999999997s" fill="freeze" /></path><text x="90" y="120" id="reset-kvg-079a6">⟳</text><text x="70" y="120" id="pause-kvg-079a6">◼</text><script type="text/javascript"><![CDATA[function RecurringTimer(e,t){var n,r,i=t;this.pause=function(){window.clearTimeout(n);i-=new Date-r};var s=function(){r=new Date;n=window.setTimeout(function(){i=t;s();e()},i)};this.clear=function(){window.clearTimeout(n);i=t;n=window.setTimeout(function(){i=t;s();e()},i)};this.resume=s;this.resume()}function invoketimer(){timer=new RecurringTimer(function(){svg.setCurrentTime(0)},18799.999999999996)}var svg=document.getElementById("kvg-079a6");var pause=document.getElementById("pause-kvg-079a6");var reset=document.getElementById("reset-kvg-079a6");var timer;invoketimer();reset.onclick=function(){svg.setCurrentTime(0);timer.clear();svg.unpauseAnimations();pause.innerHTML = "◼";};pause.onclick=function(){if(svg.animationsPaused()){svg.unpauseAnimations();timer.resume();pause.innerHTML="◼"}else{svg.pauseAnimations();timer.pause();pause.innerHTML="▶"}}]]></script></svg>