<svg id="kvg-079fb-Kaisho" class="kanjivg" width="106" height="126" xmlns="http://www.w3.org/2000/svg" xmlns:xlink="http://www.w3.org/1999/xlink" xml:space="preserve" version="1.1" baseProfile="full"><defs><style type="text/css"><![CDATA[path.black{fill:none;stroke:black;stroke-width:5;stroke-linecap:round;stroke-linejoin:round;}path.grey{fill:none;stroke:#ddd;stroke-width:5;stroke-linecap:round;stroke-linejoin:round;}path.stroke{fill:none;stroke:black;stroke-width:5;stroke-linecap:round;stroke-linejoin:round;}rect{fill:none;stroke:#555;stroke-width:2;} text{font-size:16px;font-family:Segoe UI Symbol,Cambria Math,DejaVu Sans,Symbola,Quivira,STIX,Code2000;-webkit-touch-callout:none;cursor:pointer;-webkit-user-select:none;-khtml-user-select:none;-moz-user-select:none;-ms-user-select:none;user-select: none;}text:hover{color:#777;}#reset{font-weight:bold;}]]></style><marker id="markerStart" markerWidth="8" markerHeight="8" style="overflow:visible;"><circle cx="0" cy="0" r="1.5" style="stroke:none;fill:red;fill-opacity:0.5;"/></marker><marker id="markerEnd" style="overflow:visible;"><circle cx="0" cy="0" r="0.8" style="stroke:none;fill:blue;fill-opacity:0.5;"><animate attributeName="opacity" from="1" to="0" dur="3s" repeatCount="indefinite" /></circle></marker></defs><rect x="4" y="4" width="100" height="100" /><path d="M40,15.5c0.06,0.34,0.13,0.88-0.12,1.37C38.36,19.76,29.66,26.11,17.75,30" class="grey" /><path d="M13.62,42.85c0.37,0.21,1.37,0.74,2.35,0.62c8.28-0.97,21.1-2.61,27.91-3.64c0.99-0.15,1.24-0.21,1.86,0" class="grey" /><path d="M33.83,25.66c0.37,0.58,0.58,2.6,0.66,3.76c0.07,1.16-0.57,62.64-0.57,62.83c0,12.5-5.79,2.62-7.16,1.25" class="grey" /><path d="M33.43,42.97C29.9,53.05,24.5,63.5,16,73.75" class="grey" /><path d="M37.75,52.75c3.25,1.75,6,4.75,7.75,7" class="grey" /><path d="M68.25,12.67c0.17,0.28,0.54,1.12,0.41,1.69C67.92,17.71,61,27.75,53.1,34.07" class="grey" /><path d="M68.54,21.49c0.28,0.02,1.44-0.02,2.22-0.11c2.55-0.29,9.62-2.12,12.98-3.14c2.41-0.73,3.29,0.58,2.75,2.07c-2.96,8.14-19.37,28.17-34.82,32.53" class="grey" /><path d="M61.4,30.83c2.29,1.46,6,6.08,6.65,8.42" class="grey" /><path d="M74.67,44.75c0.33,0.46,0.7,1.38,0.28,2.23C71.75,53.5,64.25,63.75,50.13,72.6" class="grey" /><path d="M74.08,54.19c0.29,0.03,1.51-0.02,2.33-0.12c2.68-0.32,9.93-0.83,13.46-1.95c2.53-0.81,3.36,0.6,2.88,2.27C90.08,63.7,66.49,91.88,47.25,98" class="grey" /><path d="M64.51,66.88c2.78,1.63,7.29,6.79,8.07,9.39" class="grey" /><path d="M40,15.5c0.06,0.34,0.13,0.88-0.12,1.37C38.36,19.76,29.66,26.11,17.75,30" class="stroke" stroke-dasharray="150"><animate attributeName="stroke-dashoffset" from="150" to="0" dur="1.8s" begin="0.0s" fill="freeze" /></path><path d="M13.62,42.85c0.37,0.21,1.37,0.74,2.35,0.62c8.28-0.97,21.1-2.61,27.91-3.64c0.99-0.15,1.24-0.21,1.86,0" class="stroke" stroke-dasharray="150"><set attributeName="opacity" to="0" dur="1.0s" /><animate attributeName="stroke-dashoffset" from="150" to="0" dur="1.8s" begin="1.0s" fill="freeze" /></path><path d="M33.83,25.66c0.37,0.58,0.58,2.6,0.66,3.76c0.07,1.16-0.57,62.64-0.57,62.83c0,12.5-5.79,2.62-7.16,1.25" class="stroke" stroke-dasharray="150"><set attributeName="opacity" to="0" dur="2.0s" /><animate attributeName="stroke-dashoffset" from="150" to="0" dur="1.8s" begin="2.0s" fill="freeze" /></path><path d="M33.43,42.97C29.9,53.05,24.5,63.5,16,73.75" class="stroke" stroke-dasharray="150"><set attributeName="opacity" to="0" dur="3.7s" /><animate attributeName="stroke-dashoffset" from="150" to="0" dur="1.8s" begin="3.7s" fill="freeze" /></path><path d="M37.75,52.75c3.25,1.75,6,4.75,7.75,7" class="stroke" stroke-dasharray="150"><set attributeName="opacity" to="0" dur="4.7s" /><animate attributeName="stroke-dashoffset" from="150" to="0" dur="1.8s" begin="4.7s" fill="freeze" /></path><path d="M68.25,12.67c0.17,0.28,0.54,1.12,0.41,1.69C67.92,17.71,61,27.75,53.1,34.07" class="stroke" stroke-dasharray="150"><set attributeName="opacity" to="0" dur="5.6000000000000005s" /><animate attributeName="stroke-dashoffset" from="150" to="0" dur="1.8s" begin="5.6000000000000005s" fill="freeze" /></path><path d="M68.54,21.49c0.28,0.02,1.44-0.02,2.22-0.11c2.55-0.29,9.62-2.12,12.98-3.14c2.41-0.73,3.29,0.58,2.75,2.07c-2.96,8.14-19.37,28.17-34.82,32.53" class="stroke" stroke-dasharray="150"><set attributeName="opacity" to="0" dur="6.6000000000000005s" /><animate attributeName="stroke-dashoffset" from="150" to="0" dur="1.8s" begin="6.6000000000000005s" fill="freeze" /></path><path d="M61.4,30.83c2.29,1.46,6,6.08,6.65,8.42" class="stroke" stroke-dasharray="150"><set attributeName="opacity" to="0" dur="8.100000000000001s" /><animate attributeName="stroke-dashoffset" from="150" to="0" dur="1.8s" begin="8.100000000000001s" fill="freeze" /></path><path d="M74.67,44.75c0.33,0.46,0.7,1.38,0.28,2.23C71.75,53.5,64.25,63.75,50.13,72.6" class="stroke" stroke-dasharray="150"><set attributeName="opacity" to="0" dur="9.000000000000002s" /><animate attributeName="stroke-dashoffset" from="150" to="0" dur="1.8s" begin="9.000000000000002s" fill="freeze" /></path><path d="M74.08,54.19c0.29,0.03,1.51-0.02,2.33-0.12c2.68-0.32,9.93-0.83,13.46-1.95c2.53-0.81,3.36,0.6,2.88,2.27C90.08,63.7,66.49,91.88,47.25,98" class="stroke" stroke-dasharray="150"><set attributeName="opacity" to="0" dur="10.000000000000002s" /><animate attributeName="stroke-dashoffset" from="150" to="0" dur="1.8s" begin="10.000000000000002s" fill="freeze" /></path><path d="M64.51,66.88c2.78,1.63,7.29,6.79,8.07,9.39" class="stroke" stroke-dasharray="150"><set attributeName="opacity" to="0" dur="11.700000000000001s" /><animate attributeName="stroke-dashoffset" from="150" to="0" dur="1.8s" begin="11.700000000000001s" fill="freeze" /></path><text x="90" y="120" id="reset-kvg-079fb-Kaisho">⟳</text><text x="70" y="120" id="pause-kvg-079fb-Kaisho">◼</text><script type="text/javascript"><![CDATA[function RecurringTimer(e,t){var n,r,i=t;this.pause=function(){window.clearTimeout(n);i-=new Date-r};var s=function(){r=new Date;n=window.setTimeout(function(){i=t;s();e()},i)};this.clear=function(){window.clearTimeout(n);i=t;n=window.setTimeout(function(){i=t;s();e()},i)};this.resume=s;this.resume()}function invoketimer(){timer=new RecurringTimer(function(){svg.setCurrentTime(0)},13600.000000000002)}var svg=document.getElementById("kvg-079fb-Kaisho");var pause=document.getElementById("pause-kvg-079fb-Kaisho");var reset=document.getElementById("reset-kvg-079fb-Kaisho");var timer;invoketimer();reset.onclick=function(){svg.setCurrentTime(0);timer.clear();svg.unpauseAnimations();pause.innerHTML = "◼";};pause.onclick=function(){if(svg.animationsPaused()){svg.unpauseAnimations();timer.resume();pause.innerHTML="◼"}else{svg.pauseAnimations();timer.pause();pause.innerHTML="▶"}}]]></script></svg>