<svg id="kvg-07a0e" class="kanjivg" width="106" height="126" xmlns="http://www.w3.org/2000/svg" xmlns:xlink="http://www.w3.org/1999/xlink" xml:space="preserve" version="1.1" baseProfile="full"><defs><style type="text/css"><![CDATA[path.black{fill:none;stroke:black;stroke-width:5;stroke-linecap:round;stroke-linejoin:round;}path.grey{fill:none;stroke:#ddd;stroke-width:5;stroke-linecap:round;stroke-linejoin:round;}path.stroke{fill:none;stroke:black;stroke-width:5;stroke-linecap:round;stroke-linejoin:round;}rect{fill:none;stroke:#555;stroke-width:2;} text{font-size:16px;font-family:Segoe UI Symbol,Cambria Math,DejaVu Sans,Symbola,Quivira,STIX,Code2000;-webkit-touch-callout:none;cursor:pointer;-webkit-user-select:none;-khtml-user-select:none;-moz-user-select:none;-ms-user-select:none;user-select: none;}text:hover{color:#777;}#reset{font-weight:bold;}]]></style><marker id="markerStart" markerWidth="8" markerHeight="8" style="overflow:visible;"><circle cx="0" cy="0" r="1.5" style="stroke:none;fill:red;fill-opacity:0.5;"/></marker><marker id="markerEnd" style="overflow:visible;"><circle cx="0" cy="0" r="0.8" style="stroke:none;fill:blue;fill-opacity:0.5;"><animate attributeName="opacity" from="1" to="0" dur="3s" repeatCount="indefinite" /></circle></marker></defs><rect x="4" y="4" width="100" height="100" /><path d="M39.24,14.5c-0.12,1-0.37,1.73-1.16,2.46C34.72,20.05,25.35,24.69,12.75,28" class="grey" /><path d="M9.12,42.85c1.02,0.57,3.9,0.18,5.02,0.09c4.77-0.4,16.86-3.06,24.49-4.81c1.02-0.23,2.62-0.38,4.1-0.3" class="grey" /><path d="M29.33,25.66c0.88,0.88,1.66,2.72,1.66,3.94c0,0.68,0.02,41.47-0.03,59.4c-0.01,3.99-0.03,6.81-0.04,7.75" class="grey" /><path d="M28.93,41.47c0,1.66-0.57,3.52-1.17,5.13c-3.5,9.4-8.27,20.78-15.02,28.65" class="grey" /><path d="M33.5,47.38c3.88,2.42,7.16,7.26,9.25,10.38" class="grey" /><path d="M51.75,18.62c3.12,2.71,8.07,11.13,8.85,15.34" class="grey" /><path d="M80.53,13.46c0.06,1.07,0.01,2.07-0.31,3.11C78.88,21,76.27,26.93,71.73,33.4" class="grey" /><path d="M50.37,38.99c0.88,0.88,1.49,2.41,1.55,3.63c0.56,3.39,1.29,8.97,1.91,13.87c0.2,1.59,0.41,2.89,0.62,4.33" class="grey" /><path d="M52.57,40.7c8.45-1.59,19.02-3.11,26.32-4.02c3.2-0.4,5.4,1.22,4.66,4.74c-0.92,4.37-2.12,9.1-3.3,14.56" class="grey" /><path d="M54.88,58.69c5.13-0.33,15.04-1.29,22.91-1.95c1.21-0.1,2.38-0.2,3.47-0.28" class="grey" /><path d="M60.24,64.21c0.26,0.91,0.11,2.03-0.11,3.02c-1.31,5.84-7.76,19.14-19.06,26.01" class="grey" /><path d="M73.1,60c0.83,0.83,1.36,2.5,1.36,3.92c0,5.03,0,12.71,0,19.1c0,10.68,1.58,12.03,12.27,12.03c9.86,0,11.59-2.21,11.59-9.31" class="grey" /><path d="M39.24,14.5c-0.12,1-0.37,1.73-1.16,2.46C34.72,20.05,25.35,24.69,12.75,28" class="stroke" stroke-dasharray="150"><animate attributeName="stroke-dashoffset" from="150" to="0" dur="1.8s" begin="0.0s" fill="freeze" /></path><path d="M9.12,42.85c1.02,0.57,3.9,0.18,5.02,0.09c4.77-0.4,16.86-3.06,24.49-4.81c1.02-0.23,2.62-0.38,4.1-0.3" class="stroke" stroke-dasharray="150"><set attributeName="opacity" to="0" dur="1.0s" /><animate attributeName="stroke-dashoffset" from="150" to="0" dur="1.8s" begin="1.0s" fill="freeze" /></path><path d="M29.33,25.66c0.88,0.88,1.66,2.72,1.66,3.94c0,0.68,0.02,41.47-0.03,59.4c-0.01,3.99-0.03,6.81-0.04,7.75" class="stroke" stroke-dasharray="150"><set attributeName="opacity" to="0" dur="2.0s" /><animate attributeName="stroke-dashoffset" from="150" to="0" dur="1.8s" begin="2.0s" fill="freeze" /></path><path d="M28.93,41.47c0,1.66-0.57,3.52-1.17,5.13c-3.5,9.4-8.27,20.78-15.02,28.65" class="stroke" stroke-dasharray="150"><set attributeName="opacity" to="0" dur="3.7s" /><animate attributeName="stroke-dashoffset" from="150" to="0" dur="1.8s" begin="3.7s" fill="freeze" /></path><path d="M33.5,47.38c3.88,2.42,7.16,7.26,9.25,10.38" class="stroke" stroke-dasharray="150"><set attributeName="opacity" to="0" dur="4.7s" /><animate attributeName="stroke-dashoffset" from="150" to="0" dur="1.8s" begin="4.7s" fill="freeze" /></path><path d="M51.75,18.62c3.12,2.71,8.07,11.13,8.85,15.34" class="stroke" stroke-dasharray="150"><set attributeName="opacity" to="0" dur="5.6000000000000005s" /><animate attributeName="stroke-dashoffset" from="150" to="0" dur="1.8s" begin="5.6000000000000005s" fill="freeze" /></path><path d="M80.53,13.46c0.06,1.07,0.01,2.07-0.31,3.11C78.88,21,76.27,26.93,71.73,33.4" class="stroke" stroke-dasharray="150"><set attributeName="opacity" to="0" dur="6.500000000000001s" /><animate attributeName="stroke-dashoffset" from="150" to="0" dur="1.8s" begin="6.500000000000001s" fill="freeze" /></path><path d="M50.37,38.99c0.88,0.88,1.49,2.41,1.55,3.63c0.56,3.39,1.29,8.97,1.91,13.87c0.2,1.59,0.41,2.89,0.62,4.33" class="stroke" stroke-dasharray="150"><set attributeName="opacity" to="0" dur="7.500000000000001s" /><animate attributeName="stroke-dashoffset" from="150" to="0" dur="1.8s" begin="7.500000000000001s" fill="freeze" /></path><path d="M52.57,40.7c8.45-1.59,19.02-3.11,26.32-4.02c3.2-0.4,5.4,1.22,4.66,4.74c-0.92,4.37-2.12,9.1-3.3,14.56" class="stroke" stroke-dasharray="150"><set attributeName="opacity" to="0" dur="8.5s" /><animate attributeName="stroke-dashoffset" from="150" to="0" dur="1.8s" begin="8.5s" fill="freeze" /></path><path d="M54.88,58.69c5.13-0.33,15.04-1.29,22.91-1.95c1.21-0.1,2.38-0.2,3.47-0.28" class="stroke" stroke-dasharray="150"><set attributeName="opacity" to="0" dur="9.7s" /><animate attributeName="stroke-dashoffset" from="150" to="0" dur="1.8s" begin="9.7s" fill="freeze" /></path><path d="M60.24,64.21c0.26,0.91,0.11,2.03-0.11,3.02c-1.31,5.84-7.76,19.14-19.06,26.01" class="stroke" stroke-dasharray="150"><set attributeName="opacity" to="0" dur="10.7s" /><animate attributeName="stroke-dashoffset" from="150" to="0" dur="1.8s" begin="10.7s" fill="freeze" /></path><path d="M73.1,60c0.83,0.83,1.36,2.5,1.36,3.92c0,5.03,0,12.71,0,19.1c0,10.68,1.58,12.03,12.27,12.03c9.86,0,11.59-2.21,11.59-9.31" class="stroke" stroke-dasharray="150"><set attributeName="opacity" to="0" dur="11.7s" /><animate attributeName="stroke-dashoffset" from="150" to="0" dur="1.8s" begin="11.7s" fill="freeze" /></path><text x="90" y="120" id="reset-kvg-07a0e">⟳</text><text x="70" y="120" id="pause-kvg-07a0e">◼</text><script type="text/javascript"><![CDATA[function RecurringTimer(e,t){var n,r,i=t;this.pause=function(){window.clearTimeout(n);i-=new Date-r};var s=function(){r=new Date;n=window.setTimeout(function(){i=t;s();e()},i)};this.clear=function(){window.clearTimeout(n);i=t;n=window.setTimeout(function(){i=t;s();e()},i)};this.resume=s;this.resume()}function invoketimer(){timer=new RecurringTimer(function(){svg.setCurrentTime(0)},14200.0)}var svg=document.getElementById("kvg-07a0e");var pause=document.getElementById("pause-kvg-07a0e");var reset=document.getElementById("reset-kvg-07a0e");var timer;invoketimer();reset.onclick=function(){svg.setCurrentTime(0);timer.clear();svg.unpauseAnimations();pause.innerHTML = "◼";};pause.onclick=function(){if(svg.animationsPaused()){svg.unpauseAnimations();timer.resume();pause.innerHTML="◼"}else{svg.pauseAnimations();timer.pause();pause.innerHTML="▶"}}]]></script></svg>