<svg id="kvg-07a1c-Kaisho" class="kanjivg" width="106" height="126" xmlns="http://www.w3.org/2000/svg" xmlns:xlink="http://www.w3.org/1999/xlink" xml:space="preserve" version="1.1" baseProfile="full"><defs><style type="text/css"><![CDATA[path.black{fill:none;stroke:black;stroke-width:5;stroke-linecap:round;stroke-linejoin:round;}path.grey{fill:none;stroke:#ddd;stroke-width:5;stroke-linecap:round;stroke-linejoin:round;}path.stroke{fill:none;stroke:black;stroke-width:5;stroke-linecap:round;stroke-linejoin:round;}rect{fill:none;stroke:#555;stroke-width:2;} text{font-size:16px;font-family:Segoe UI Symbol,Cambria Math,DejaVu Sans,Symbola,Quivira,STIX,Code2000;-webkit-touch-callout:none;cursor:pointer;-webkit-user-select:none;-khtml-user-select:none;-moz-user-select:none;-ms-user-select:none;user-select: none;}text:hover{color:#777;}#reset{font-weight:bold;}]]></style><marker id="markerStart" markerWidth="8" markerHeight="8" style="overflow:visible;"><circle cx="0" cy="0" r="1.5" style="stroke:none;fill:red;fill-opacity:0.5;"/></marker><marker id="markerEnd" style="overflow:visible;"><circle cx="0" cy="0" r="0.8" style="stroke:none;fill:blue;fill-opacity:0.5;"><animate attributeName="opacity" from="1" to="0" dur="3s" repeatCount="indefinite" /></circle></marker></defs><rect x="4" y="4" width="100" height="100" /><path d="M37,15c0.07,0.34,0.14,0.87-0.14,1.35c-1.63,2.84-11.02,9.08-23.86,12.9" class="grey" /><path d="M12.12,42.83c0.3,0.17,1.12,0.45,1.93,0.51c2.24,0.17,20.56-2.56,26.16-3.41c0.81-0.12,1.02-0.17,1.53,0" class="grey" /><path d="M28.08,26.91c0.17,0.84,1.08,2.86,1.16,3.69c0.07,0.83-0.07,60.21-0.07,60.4c0,11.25-4.91,2.75-6.41,1.25" class="grey" /><path d="M29.18,44.22c-3.63,10.91-9.7,24.36-17.93,33.28" class="grey" /><path d="M32.25,52.25c3.15,2.39,5.81,7.17,7.5,10.25" class="grey" /><path d="M49.94,25.13c0.66,0.25,1.86,0.32,2.52,0.25c8.44-0.86,21.82-3.23,30.31-3.45c1.09-0.03,1.75,0.12,2.3,0.25" class="grey" /><path d="M64.93,12.87c0.1,0.24,1.44,1.23,1.44,2.74c0,4.75,0.21,14.04,0.21,21.19" class="grey" /><path d="M47.01,38.06c0.96,0.47,2.72,0.57,3.68,0.47c11.89-1.31,27.07-3.89,37.7-4.5c1.6-0.09,2.56,0.22,3.36,0.46" class="grey" /><path d="M56.89,40.83c0.03,0.41,0.07,1.07-0.06,1.66c-0.79,3.5-4.96,11.85-11.55,15.89" class="grey" /><path d="M71.85,38.96c0.41,0.48,0.74,1.06,0.77,1.8c0.11,3.34,0.25,4.08,0.25,6.34c0,5.3,4.96,4.7,9.85,4.7c5.16,0,8.55-0.68,9.28-1.07" class="grey" /><path d="M61.75,53.75c0.05,0.53,0.27,1.43-0.1,2.13c-2.4,4.58-7.4,13.03-17.45,20.88" class="grey" /><path d="M60,63.32c0.26,0.03,1.64,0.25,2.37,0.18c3.27-0.32,11.97-2.98,15.4-3.78c2.35-0.55,3.02,0.63,2.42,2.12c-3.3,8.18-21.95,28.7-38.62,34.41" class="grey" /><path d="M53.88,67.32C59.04,71.9,82.44,89.31,89.4,93.5c2.07,1.25,3.75,1.86,5.78,2.23" class="grey" /><path d="M37,15c0.07,0.34,0.14,0.87-0.14,1.35c-1.63,2.84-11.02,9.08-23.86,12.9" class="stroke" stroke-dasharray="150"><animate attributeName="stroke-dashoffset" from="150" to="0" dur="1.8s" begin="0.0s" fill="freeze" /></path><path d="M12.12,42.83c0.3,0.17,1.12,0.45,1.93,0.51c2.24,0.17,20.56-2.56,26.16-3.41c0.81-0.12,1.02-0.17,1.53,0" class="stroke" stroke-dasharray="150"><set attributeName="opacity" to="0" dur="1.0s" /><animate attributeName="stroke-dashoffset" from="150" to="0" dur="1.8s" begin="1.0s" fill="freeze" /></path><path d="M28.08,26.91c0.17,0.84,1.08,2.86,1.16,3.69c0.07,0.83-0.07,60.21-0.07,60.4c0,11.25-4.91,2.75-6.41,1.25" class="stroke" stroke-dasharray="150"><set attributeName="opacity" to="0" dur="2.0s" /><animate attributeName="stroke-dashoffset" from="150" to="0" dur="1.8s" begin="2.0s" fill="freeze" /></path><path d="M29.18,44.22c-3.63,10.91-9.7,24.36-17.93,33.28" class="stroke" stroke-dasharray="150"><set attributeName="opacity" to="0" dur="3.7s" /><animate attributeName="stroke-dashoffset" from="150" to="0" dur="1.8s" begin="3.7s" fill="freeze" /></path><path d="M32.25,52.25c3.15,2.39,5.81,7.17,7.5,10.25" class="stroke" stroke-dasharray="150"><set attributeName="opacity" to="0" dur="4.7s" /><animate attributeName="stroke-dashoffset" from="150" to="0" dur="1.8s" begin="4.7s" fill="freeze" /></path><path d="M49.94,25.13c0.66,0.25,1.86,0.32,2.52,0.25c8.44-0.86,21.82-3.23,30.31-3.45c1.09-0.03,1.75,0.12,2.3,0.25" class="stroke" stroke-dasharray="150"><set attributeName="opacity" to="0" dur="5.6000000000000005s" /><animate attributeName="stroke-dashoffset" from="150" to="0" dur="1.8s" begin="5.6000000000000005s" fill="freeze" /></path><path d="M64.93,12.87c0.1,0.24,1.44,1.23,1.44,2.74c0,4.75,0.21,14.04,0.21,21.19" class="stroke" stroke-dasharray="150"><set attributeName="opacity" to="0" dur="6.6000000000000005s" /><animate attributeName="stroke-dashoffset" from="150" to="0" dur="1.8s" begin="6.6000000000000005s" fill="freeze" /></path><path d="M47.01,38.06c0.96,0.47,2.72,0.57,3.68,0.47c11.89-1.31,27.07-3.89,37.7-4.5c1.6-0.09,2.56,0.22,3.36,0.46" class="stroke" stroke-dasharray="150"><set attributeName="opacity" to="0" dur="7.6000000000000005s" /><animate attributeName="stroke-dashoffset" from="150" to="0" dur="1.8s" begin="7.6000000000000005s" fill="freeze" /></path><path d="M56.89,40.83c0.03,0.41,0.07,1.07-0.06,1.66c-0.79,3.5-4.96,11.85-11.55,15.89" class="stroke" stroke-dasharray="150"><set attributeName="opacity" to="0" dur="8.8s" /><animate attributeName="stroke-dashoffset" from="150" to="0" dur="1.8s" begin="8.8s" fill="freeze" /></path><path d="M71.85,38.96c0.41,0.48,0.74,1.06,0.77,1.8c0.11,3.34,0.25,4.08,0.25,6.34c0,5.3,4.96,4.7,9.85,4.7c5.16,0,8.55-0.68,9.28-1.07" class="stroke" stroke-dasharray="150"><set attributeName="opacity" to="0" dur="9.8s" /><animate attributeName="stroke-dashoffset" from="150" to="0" dur="1.8s" begin="9.8s" fill="freeze" /></path><path d="M61.75,53.75c0.05,0.53,0.27,1.43-0.1,2.13c-2.4,4.58-7.4,13.03-17.45,20.88" class="stroke" stroke-dasharray="150"><set attributeName="opacity" to="0" dur="10.8s" /><animate attributeName="stroke-dashoffset" from="150" to="0" dur="1.8s" begin="10.8s" fill="freeze" /></path><path d="M60,63.32c0.26,0.03,1.64,0.25,2.37,0.18c3.27-0.32,11.97-2.98,15.4-3.78c2.35-0.55,3.02,0.63,2.42,2.12c-3.3,8.18-21.95,28.7-38.62,34.41" class="stroke" stroke-dasharray="150"><set attributeName="opacity" to="0" dur="11.8s" /><animate attributeName="stroke-dashoffset" from="150" to="0" dur="1.8s" begin="11.8s" fill="freeze" /></path><path d="M53.88,67.32C59.04,71.9,82.44,89.31,89.4,93.5c2.07,1.25,3.75,1.86,5.78,2.23" class="stroke" stroke-dasharray="150"><set attributeName="opacity" to="0" dur="13.5s" /><animate attributeName="stroke-dashoffset" from="150" to="0" dur="1.8s" begin="13.5s" fill="freeze" /></path><text x="90" y="120" id="reset-kvg-07a1c-Kaisho">⟳</text><text x="70" y="120" id="pause-kvg-07a1c-Kaisho">◼</text><script type="text/javascript"><![CDATA[function RecurringTimer(e,t){var n,r,i=t;this.pause=function(){window.clearTimeout(n);i-=new Date-r};var s=function(){r=new Date;n=window.setTimeout(function(){i=t;s();e()},i)};this.clear=function(){window.clearTimeout(n);i=t;n=window.setTimeout(function(){i=t;s();e()},i)};this.resume=s;this.resume()}function invoketimer(){timer=new RecurringTimer(function(){svg.setCurrentTime(0)},15800.0)}var svg=document.getElementById("kvg-07a1c-Kaisho");var pause=document.getElementById("pause-kvg-07a1c-Kaisho");var reset=document.getElementById("reset-kvg-07a1c-Kaisho");var timer;invoketimer();reset.onclick=function(){svg.setCurrentTime(0);timer.clear();svg.unpauseAnimations();pause.innerHTML = "◼";};pause.onclick=function(){if(svg.animationsPaused()){svg.unpauseAnimations();timer.resume();pause.innerHTML="◼"}else{svg.pauseAnimations();timer.pause();pause.innerHTML="▶"}}]]></script></svg>