<svg id="kvg-07a32" class="kanjivg" width="106" height="126" xmlns="http://www.w3.org/2000/svg" xmlns:xlink="http://www.w3.org/1999/xlink" xml:space="preserve" version="1.1" baseProfile="full"><defs><style type="text/css"><![CDATA[path.black{fill:none;stroke:black;stroke-width:5;stroke-linecap:round;stroke-linejoin:round;}path.grey{fill:none;stroke:#ddd;stroke-width:5;stroke-linecap:round;stroke-linejoin:round;}path.stroke{fill:none;stroke:black;stroke-width:5;stroke-linecap:round;stroke-linejoin:round;}rect{fill:none;stroke:#555;stroke-width:2;} text{font-size:16px;font-family:Segoe UI Symbol,Cambria Math,DejaVu Sans,Symbola,Quivira,STIX,Code2000;-webkit-touch-callout:none;cursor:pointer;-webkit-user-select:none;-khtml-user-select:none;-moz-user-select:none;-ms-user-select:none;user-select: none;}text:hover{color:#777;}#reset{font-weight:bold;}]]></style><marker id="markerStart" markerWidth="8" markerHeight="8" style="overflow:visible;"><circle cx="0" cy="0" r="1.5" style="stroke:none;fill:red;fill-opacity:0.5;"/></marker><marker id="markerEnd" style="overflow:visible;"><circle cx="0" cy="0" r="0.8" style="stroke:none;fill:blue;fill-opacity:0.5;"><animate attributeName="opacity" from="1" to="0" dur="3s" repeatCount="indefinite" /></circle></marker></defs><rect x="4" y="4" width="100" height="100" /><path d="M42.5,19.25c0,1-0.49,1.96-1.41,2.51C34.12,26,26.5,29.88,16.75,33.75" class="grey" /><path d="M12.37,43.85c2.13,0.78,4.17,0.75,6.15,0.5c7.86-0.97,20.48-3.51,26.87-4.5c1.04-0.16,2.49-0.22,3.6-0.02" class="grey" /><path d="M33.18,30.41c0.89,0.89,1.41,2.59,1.41,4.47c0,1.21-0.05,34.87-0.08,53.75c0,2.51-0.01,4.75-0.01,6.62" class="grey" /><path d="M33.68,43.22c0,2.91-0.61,4.94-2.1,7.82C27,59.88,22.38,67.62,14.25,76.75" class="grey" /><path d="M37.5,51.75c3.98,2.33,7.35,7,9.5,10" class="grey" /><path d="M83.78,15.89c-0.16,0.98-0.8,1.7-1.45,2.19c-4.08,3.05-12.83,7.8-27.59,11.89" class="grey" /><path d="M53.52,35.83c2.16,2.1,5.58,8.62,6.12,11.88" class="grey" /><path d="M65.44,32.33c2.71,1.96,7.01,8.08,7.69,11.13" class="grey" /><path d="M92.77,30.39c0.09,0.92-0.22,1.84-0.65,2.65c-2,3.83-5,8.41-10.26,13.42" class="grey" /><path d="M54.75,55.17c0.85,0.85,1.22,2.08,1.22,3.39c0,1.08-0.04,21.78-0.05,31.81c0,2.1,0,3.74,0,4.62" class="grey" /><path d="M68.79,54.49c0.92,0.92,1.2,2.6,1.2,3.8c0,1.03-0.03,19.36-0.02,30.83c0,1.96,0.01,3.71,0.01,5.12" class="grey" /><path d="M70.87,55.28c1.87-0.12,13.81-1.57,18.4-2.11c2.69-0.31,3.95,0.82,3.95,2.95c0,7.01-0.07,22.96-0.09,32.5c0,1.69-0.01,3.17-0.01,4.38" class="grey" /><path d="M71.2,71.2c5.16-0.42,17.46-1.5,20.82-1.5" class="grey" /><path d="M71.12,90.67c6.17-0.26,13.7-1.16,20.7-1.2" class="grey" /><path d="M42.5,19.25c0,1-0.49,1.96-1.41,2.51C34.12,26,26.5,29.88,16.75,33.75" class="stroke" stroke-dasharray="150"><animate attributeName="stroke-dashoffset" from="150" to="0" dur="1.8s" begin="0.0s" fill="freeze" /></path><path d="M12.37,43.85c2.13,0.78,4.17,0.75,6.15,0.5c7.86-0.97,20.48-3.51,26.87-4.5c1.04-0.16,2.49-0.22,3.6-0.02" class="stroke" stroke-dasharray="150"><set attributeName="opacity" to="0" dur="1.0s" /><animate attributeName="stroke-dashoffset" from="150" to="0" dur="1.8s" begin="1.0s" fill="freeze" /></path><path d="M33.18,30.41c0.89,0.89,1.41,2.59,1.41,4.47c0,1.21-0.05,34.87-0.08,53.75c0,2.51-0.01,4.75-0.01,6.62" class="stroke" stroke-dasharray="150"><set attributeName="opacity" to="0" dur="2.0s" /><animate attributeName="stroke-dashoffset" from="150" to="0" dur="1.8s" begin="2.0s" fill="freeze" /></path><path d="M33.68,43.22c0,2.91-0.61,4.94-2.1,7.82C27,59.88,22.38,67.62,14.25,76.75" class="stroke" stroke-dasharray="150"><set attributeName="opacity" to="0" dur="3.5s" /><animate attributeName="stroke-dashoffset" from="150" to="0" dur="1.8s" begin="3.5s" fill="freeze" /></path><path d="M37.5,51.75c3.98,2.33,7.35,7,9.5,10" class="stroke" stroke-dasharray="150"><set attributeName="opacity" to="0" dur="4.5s" /><animate attributeName="stroke-dashoffset" from="150" to="0" dur="1.8s" begin="4.5s" fill="freeze" /></path><path d="M83.78,15.89c-0.16,0.98-0.8,1.7-1.45,2.19c-4.08,3.05-12.83,7.8-27.59,11.89" class="stroke" stroke-dasharray="150"><set attributeName="opacity" to="0" dur="5.4s" /><animate attributeName="stroke-dashoffset" from="150" to="0" dur="1.8s" begin="5.4s" fill="freeze" /></path><path d="M53.52,35.83c2.16,2.1,5.58,8.62,6.12,11.88" class="stroke" stroke-dasharray="150"><set attributeName="opacity" to="0" dur="6.4s" /><animate attributeName="stroke-dashoffset" from="150" to="0" dur="1.8s" begin="6.4s" fill="freeze" /></path><path d="M65.44,32.33c2.71,1.96,7.01,8.08,7.69,11.13" class="stroke" stroke-dasharray="150"><set attributeName="opacity" to="0" dur="7.300000000000001s" /><animate attributeName="stroke-dashoffset" from="150" to="0" dur="1.8s" begin="7.300000000000001s" fill="freeze" /></path><path d="M92.77,30.39c0.09,0.92-0.22,1.84-0.65,2.65c-2,3.83-5,8.41-10.26,13.42" class="stroke" stroke-dasharray="150"><set attributeName="opacity" to="0" dur="8.200000000000001s" /><animate attributeName="stroke-dashoffset" from="150" to="0" dur="1.8s" begin="8.200000000000001s" fill="freeze" /></path><path d="M54.75,55.17c0.85,0.85,1.22,2.08,1.22,3.39c0,1.08-0.04,21.78-0.05,31.81c0,2.1,0,3.74,0,4.62" class="stroke" stroke-dasharray="150"><set attributeName="opacity" to="0" dur="9.100000000000001s" /><animate attributeName="stroke-dashoffset" from="150" to="0" dur="1.8s" begin="9.100000000000001s" fill="freeze" /></path><path d="M68.79,54.49c0.92,0.92,1.2,2.6,1.2,3.8c0,1.03-0.03,19.36-0.02,30.83c0,1.96,0.01,3.71,0.01,5.12" class="stroke" stroke-dasharray="150"><set attributeName="opacity" to="0" dur="10.200000000000001s" /><animate attributeName="stroke-dashoffset" from="150" to="0" dur="1.8s" begin="10.200000000000001s" fill="freeze" /></path><path d="M70.87,55.28c1.87-0.12,13.81-1.57,18.4-2.11c2.69-0.31,3.95,0.82,3.95,2.95c0,7.01-0.07,22.96-0.09,32.5c0,1.69-0.01,3.17-0.01,4.38" class="stroke" stroke-dasharray="150"><set attributeName="opacity" to="0" dur="11.3s" /><animate attributeName="stroke-dashoffset" from="150" to="0" dur="1.8s" begin="11.3s" fill="freeze" /></path><path d="M71.2,71.2c5.16-0.42,17.46-1.5,20.82-1.5" class="stroke" stroke-dasharray="150"><set attributeName="opacity" to="0" dur="12.8s" /><animate attributeName="stroke-dashoffset" from="150" to="0" dur="1.8s" begin="12.8s" fill="freeze" /></path><path d="M71.12,90.67c6.17-0.26,13.7-1.16,20.7-1.2" class="stroke" stroke-dasharray="150"><set attributeName="opacity" to="0" dur="13.8s" /><animate attributeName="stroke-dashoffset" from="150" to="0" dur="1.8s" begin="13.8s" fill="freeze" /></path><text x="90" y="120" id="reset-kvg-07a32">⟳</text><text x="70" y="120" id="pause-kvg-07a32">◼</text><script type="text/javascript"><![CDATA[function RecurringTimer(e,t){var n,r,i=t;this.pause=function(){window.clearTimeout(n);i-=new Date-r};var s=function(){r=new Date;n=window.setTimeout(function(){i=t;s();e()},i)};this.clear=function(){window.clearTimeout(n);i=t;n=window.setTimeout(function(){i=t;s();e()},i)};this.resume=s;this.resume()}function invoketimer(){timer=new RecurringTimer(function(){svg.setCurrentTime(0)},15800.0)}var svg=document.getElementById("kvg-07a32");var pause=document.getElementById("pause-kvg-07a32");var reset=document.getElementById("reset-kvg-07a32");var timer;invoketimer();reset.onclick=function(){svg.setCurrentTime(0);timer.clear();svg.unpauseAnimations();pause.innerHTML = "◼";};pause.onclick=function(){if(svg.animationsPaused()){svg.unpauseAnimations();timer.resume();pause.innerHTML="◼"}else{svg.pauseAnimations();timer.pause();pause.innerHTML="▶"}}]]></script></svg>