<svg id="kvg-07a98" class="kanjivg" width="106" height="126" xmlns="http://www.w3.org/2000/svg" xmlns:xlink="http://www.w3.org/1999/xlink" xml:space="preserve" version="1.1" baseProfile="full"><defs><style type="text/css"><![CDATA[path.black{fill:none;stroke:black;stroke-width:5;stroke-linecap:round;stroke-linejoin:round;}path.grey{fill:none;stroke:#ddd;stroke-width:5;stroke-linecap:round;stroke-linejoin:round;}path.stroke{fill:none;stroke:black;stroke-width:5;stroke-linecap:round;stroke-linejoin:round;}rect{fill:none;stroke:#555;stroke-width:2;} text{font-size:16px;font-family:Segoe UI Symbol,Cambria Math,DejaVu Sans,Symbola,Quivira,STIX,Code2000;-webkit-touch-callout:none;cursor:pointer;-webkit-user-select:none;-khtml-user-select:none;-moz-user-select:none;-ms-user-select:none;user-select: none;}text:hover{color:#777;}#reset{font-weight:bold;}]]></style><marker id="markerStart" markerWidth="8" markerHeight="8" style="overflow:visible;"><circle cx="0" cy="0" r="1.5" style="stroke:none;fill:red;fill-opacity:0.5;"/></marker><marker id="markerEnd" style="overflow:visible;"><circle cx="0" cy="0" r="0.8" style="stroke:none;fill:blue;fill-opacity:0.5;"><animate attributeName="opacity" from="1" to="0" dur="3s" repeatCount="indefinite" /></circle></marker></defs><rect x="4" y="4" width="100" height="100" /><path d="M51.98,9.25c0.99,0.34,2.4,1.98,2.38,2.95c-0.07,3.05-0.07,5.24-0.08,8.02" class="grey" /><path d="M19.27,20.51c0,3.23-2.42,12.09-3.52,14.24" class="grey" /><path d="M19.37,23.74c12.8-1.99,58.5-5.49,67.84-5.38c12.09,0.14,2.56,7.41-0.45,9.3" class="grey" /><path d="M43.26,24.5c0.05,0.38,0.21,1.02-0.11,1.53c-2.97,4.7-9.22,10.12-18.93,14.64" class="grey" /><path d="M60.34,22.37c0.45,0.41,0.83,0.9,0.83,1.55c0,1.7-0.32,4.67-0.32,6.62c0,4.54,6.48,4.03,11.78,4.03c5.58,0,10.37-0.59,11.15-0.92" class="grey" /><path d="M30.24,43.96c3.58,0.78,3.78,0.73,6.14,0.62c14.32-0.62,25.7-2.34,36.95-2.34c3.32,0,5.67,0.37,5.11,3.07c-0.85,4.15-3.55,11.25-5.34,18.26" class="grey" /><path d="M16,55.92c2.29,0.11,4.08,0.36,6.61,0.23c19.23-0.98,49.01-3.04,66.54-3.39c2.8-0.05,5.08,0.23,6.35,0.34" class="grey" /><path d="M26.78,67.36c1.28,0.16,3.59,0.57,5.11,0.48c14.06-0.8,25.38-2.82,38.16-3.14c2.04-0.05,3.32,0,4.86,0.16" class="grey" /><path d="M51.5,44.25c1.27,0.81,0.31,2.41,0,3.2C45.41,62.89,37.98,79.15,14.25,93" class="grey" /><path d="M36.5,78.05c0.56,0.36,1.59,2.1,1.67,2.58c0.84,5.09,1.72,12.15,2.87,18.58" class="grey" /><path d="M37.89,78.84c13.69-1.51,32.87-2.72,39.92-3.23c2.58-0.18,4.13,1.88,3.76,2.97c-1.53,4.53-2.03,7.95-4.33,15.67" class="grey" /><path d="M40.99,97.4c7.72-0.53,28.51-1.65,38.29-2.12" class="grey" /><path d="M51.98,9.25c0.99,0.34,2.4,1.98,2.38,2.95c-0.07,3.05-0.07,5.24-0.08,8.02" class="stroke" stroke-dasharray="150"><animate attributeName="stroke-dashoffset" from="150" to="0" dur="1.8s" begin="0.0s" fill="freeze" /></path><path d="M19.27,20.51c0,3.23-2.42,12.09-3.52,14.24" class="stroke" stroke-dasharray="150"><set attributeName="opacity" to="0" dur="0.9s" /><animate attributeName="stroke-dashoffset" from="150" to="0" dur="1.8s" begin="0.9s" fill="freeze" /></path><path d="M19.37,23.74c12.8-1.99,58.5-5.49,67.84-5.38c12.09,0.14,2.56,7.41-0.45,9.3" class="stroke" stroke-dasharray="150"><set attributeName="opacity" to="0" dur="1.8s" /><animate attributeName="stroke-dashoffset" from="150" to="0" dur="1.8s" begin="1.8s" fill="freeze" /></path><path d="M43.26,24.5c0.05,0.38,0.21,1.02-0.11,1.53c-2.97,4.7-9.22,10.12-18.93,14.64" class="stroke" stroke-dasharray="150"><set attributeName="opacity" to="0" dur="3.5s" /><animate attributeName="stroke-dashoffset" from="150" to="0" dur="1.8s" begin="3.5s" fill="freeze" /></path><path d="M60.34,22.37c0.45,0.41,0.83,0.9,0.83,1.55c0,1.7-0.32,4.67-0.32,6.62c0,4.54,6.48,4.03,11.78,4.03c5.58,0,10.37-0.59,11.15-0.92" class="stroke" stroke-dasharray="150"><set attributeName="opacity" to="0" dur="4.5s" /><animate attributeName="stroke-dashoffset" from="150" to="0" dur="1.8s" begin="4.5s" fill="freeze" /></path><path d="M30.24,43.96c3.58,0.78,3.78,0.73,6.14,0.62c14.32-0.62,25.7-2.34,36.95-2.34c3.32,0,5.67,0.37,5.11,3.07c-0.85,4.15-3.55,11.25-5.34,18.26" class="stroke" stroke-dasharray="150"><set attributeName="opacity" to="0" dur="5.5s" /><animate attributeName="stroke-dashoffset" from="150" to="0" dur="1.8s" begin="5.5s" fill="freeze" /></path><path d="M16,55.92c2.29,0.11,4.08,0.36,6.61,0.23c19.23-0.98,49.01-3.04,66.54-3.39c2.8-0.05,5.08,0.23,6.35,0.34" class="stroke" stroke-dasharray="150"><set attributeName="opacity" to="0" dur="7.0s" /><animate attributeName="stroke-dashoffset" from="150" to="0" dur="1.8s" begin="7.0s" fill="freeze" /></path><path d="M26.78,67.36c1.28,0.16,3.59,0.57,5.11,0.48c14.06-0.8,25.38-2.82,38.16-3.14c2.04-0.05,3.32,0,4.86,0.16" class="stroke" stroke-dasharray="150"><set attributeName="opacity" to="0" dur="8.7s" /><animate attributeName="stroke-dashoffset" from="150" to="0" dur="1.8s" begin="8.7s" fill="freeze" /></path><path d="M51.5,44.25c1.27,0.81,0.31,2.41,0,3.2C45.41,62.89,37.98,79.15,14.25,93" class="stroke" stroke-dasharray="150"><set attributeName="opacity" to="0" dur="9.899999999999999s" /><animate attributeName="stroke-dashoffset" from="150" to="0" dur="1.8s" begin="9.899999999999999s" fill="freeze" /></path><path d="M36.5,78.05c0.56,0.36,1.59,2.1,1.67,2.58c0.84,5.09,1.72,12.15,2.87,18.58" class="stroke" stroke-dasharray="150"><set attributeName="opacity" to="0" dur="11.399999999999999s" /><animate attributeName="stroke-dashoffset" from="150" to="0" dur="1.8s" begin="11.399999999999999s" fill="freeze" /></path><path d="M37.89,78.84c13.69-1.51,32.87-2.72,39.92-3.23c2.58-0.18,4.13,1.88,3.76,2.97c-1.53,4.53-2.03,7.95-4.33,15.67" class="stroke" stroke-dasharray="150"><set attributeName="opacity" to="0" dur="12.399999999999999s" /><animate attributeName="stroke-dashoffset" from="150" to="0" dur="1.8s" begin="12.399999999999999s" fill="freeze" /></path><path d="M40.99,97.4c7.72-0.53,28.51-1.65,38.29-2.12" class="stroke" stroke-dasharray="150"><set attributeName="opacity" to="0" dur="13.899999999999999s" /><animate attributeName="stroke-dashoffset" from="150" to="0" dur="1.8s" begin="13.899999999999999s" fill="freeze" /></path><text x="90" y="120" id="reset-kvg-07a98">⟳</text><text x="70" y="120" id="pause-kvg-07a98">◼</text><script type="text/javascript"><![CDATA[function RecurringTimer(e,t){var n,r,i=t;this.pause=function(){window.clearTimeout(n);i-=new Date-r};var s=function(){r=new Date;n=window.setTimeout(function(){i=t;s();e()},i)};this.clear=function(){window.clearTimeout(n);i=t;n=window.setTimeout(function(){i=t;s();e()},i)};this.resume=s;this.resume()}function invoketimer(){timer=new RecurringTimer(function(){svg.setCurrentTime(0)},15899.999999999998)}var svg=document.getElementById("kvg-07a98");var pause=document.getElementById("pause-kvg-07a98");var reset=document.getElementById("reset-kvg-07a98");var timer;invoketimer();reset.onclick=function(){svg.setCurrentTime(0);timer.clear();svg.unpauseAnimations();pause.innerHTML = "◼";};pause.onclick=function(){if(svg.animationsPaused()){svg.unpauseAnimations();timer.resume();pause.innerHTML="◼"}else{svg.pauseAnimations();timer.pause();pause.innerHTML="▶"}}]]></script></svg>