<svg id="kvg-07aea-KaishoHzFst" class="kanjivg" width="106" height="126" xmlns="http://www.w3.org/2000/svg" xmlns:xlink="http://www.w3.org/1999/xlink" xml:space="preserve" version="1.1" baseProfile="full"><defs><style type="text/css"><![CDATA[path.black{fill:none;stroke:black;stroke-width:5;stroke-linecap:round;stroke-linejoin:round;}path.grey{fill:none;stroke:#ddd;stroke-width:5;stroke-linecap:round;stroke-linejoin:round;}path.stroke{fill:none;stroke:black;stroke-width:5;stroke-linecap:round;stroke-linejoin:round;}rect{fill:none;stroke:#555;stroke-width:2;} text{font-size:16px;font-family:Segoe UI Symbol,Cambria Math,DejaVu Sans,Symbola,Quivira,STIX,Code2000;-webkit-touch-callout:none;cursor:pointer;-webkit-user-select:none;-khtml-user-select:none;-moz-user-select:none;-ms-user-select:none;user-select: none;}text:hover{color:#777;}#reset{font-weight:bold;}]]></style><marker id="markerStart" markerWidth="8" markerHeight="8" style="overflow:visible;"><circle cx="0" cy="0" r="1.5" style="stroke:none;fill:red;fill-opacity:0.5;"/></marker><marker id="markerEnd" style="overflow:visible;"><circle cx="0" cy="0" r="0.8" style="stroke:none;fill:blue;fill-opacity:0.5;"><animate attributeName="opacity" from="1" to="0" dur="3s" repeatCount="indefinite" /></circle></marker></defs><rect x="4" y="4" width="100" height="100" /><path d="M18.71,17.85c3.44-0.44,19.21-3.2,27.2-3.74c1.21-0.08,1.94-0.16,2.55-0.04" class="grey" /><path d="M17.64,15.65c0.32,1,0.85,2.56,0.96,3.06c0.11,0.5,0.47,37.46,0.41,40.61" class="grey" /><path d="M32.51,16.58c0.53,0.24,0.85,1.12,0.96,1.62c0.11,0.5,0.15,6.82,0.09,9.98" class="grey" /><path d="M19.07,29.97c8.22-1.09,18.72-2.21,24.43-2.96c2.31-0.3,2.97,0.73,2.66,2.09c-0.55,2.48-1.84,6.03-2.4,9.01" class="grey" /><path d="M19.25,41.33c3.43-0.44,22.48-2.3,25.71-2.59" class="grey" /><path d="M32.68,40.19c0.53,0.24,0.85,1.12,0.96,1.62c0.11,0.5,0.18,9.09,0.12,12.25" class="grey" /><path d="M19.2,56.23c3.43-0.44,17.3-2.49,25.29-3.03c1.21-0.08,1.94-0.16,2.55-0.03" class="grey" /><path d="M55.08,19.28c1.06,0.25,1.19,0.61,3.31,0.25c2.12-0.37,20.06-4.71,21.51-5.07c1.46-0.37,2.51,1.34,1.99,2.69c-6.23,15.89-17.22,27.63-29.15,33.62" class="grey" /><path d="M54.71,25.44c3.51,0.65,20.65,17.9,32.87,24.98c1.9,1.1,3.29,1.83,5.06,2.2" class="grey" /><path d="M51.57,56.25c2.02,1.15,4.18,4.25,5.06,6.7" class="grey" /><path d="M28.5,69.79c1.93,0.22,3.89,0.28,4.89,0.24c5.65-0.21,37.03-2.85,45.57-3.03c1.67-0.03,3.96,0.12,4.79,0.24" class="grey" /><path d="M37.5,72.5c3.18,6.63,5.21,14.63,5.5,19" class="grey" /><path d="M69.18,71.5c0.49,0.6,0.37,1.59,0.16,2.18C67.71,78.27,62.64,90.36,61,93.5" class="grey" /><path d="M16.25,95.8c1.75,0.45,5.17,0.51,6.62,0.39c17.38-1.44,47.88-2.19,66.28-3c2.43-0.11,5.35,0.05,7.1,0.88" class="grey" /><path d="M18.71,17.85c3.44-0.44,19.21-3.2,27.2-3.74c1.21-0.08,1.94-0.16,2.55-0.04" class="stroke" stroke-dasharray="150"><animate attributeName="stroke-dashoffset" from="150" to="0" dur="1.8s" begin="0.0s" fill="freeze" /></path><path d="M17.64,15.65c0.32,1,0.85,2.56,0.96,3.06c0.11,0.5,0.47,37.46,0.41,40.61" class="stroke" stroke-dasharray="150"><set attributeName="opacity" to="0" dur="1.0s" /><animate attributeName="stroke-dashoffset" from="150" to="0" dur="1.8s" begin="1.0s" fill="freeze" /></path><path d="M32.51,16.58c0.53,0.24,0.85,1.12,0.96,1.62c0.11,0.5,0.15,6.82,0.09,9.98" class="stroke" stroke-dasharray="150"><set attributeName="opacity" to="0" dur="2.1s" /><animate attributeName="stroke-dashoffset" from="150" to="0" dur="1.8s" begin="2.1s" fill="freeze" /></path><path d="M19.07,29.97c8.22-1.09,18.72-2.21,24.43-2.96c2.31-0.3,2.97,0.73,2.66,2.09c-0.55,2.48-1.84,6.03-2.4,9.01" class="stroke" stroke-dasharray="150"><set attributeName="opacity" to="0" dur="3.0s" /><animate attributeName="stroke-dashoffset" from="150" to="0" dur="1.8s" begin="3.0s" fill="freeze" /></path><path d="M19.25,41.33c3.43-0.44,22.48-2.3,25.71-2.59" class="stroke" stroke-dasharray="150"><set attributeName="opacity" to="0" dur="4.0s" /><animate attributeName="stroke-dashoffset" from="150" to="0" dur="1.8s" begin="4.0s" fill="freeze" /></path><path d="M32.68,40.19c0.53,0.24,0.85,1.12,0.96,1.62c0.11,0.5,0.18,9.09,0.12,12.25" class="stroke" stroke-dasharray="150"><set attributeName="opacity" to="0" dur="5.0s" /><animate attributeName="stroke-dashoffset" from="150" to="0" dur="1.8s" begin="5.0s" fill="freeze" /></path><path d="M19.2,56.23c3.43-0.44,17.3-2.49,25.29-3.03c1.21-0.08,1.94-0.16,2.55-0.03" class="stroke" stroke-dasharray="150"><set attributeName="opacity" to="0" dur="5.9s" /><animate attributeName="stroke-dashoffset" from="150" to="0" dur="1.8s" begin="5.9s" fill="freeze" /></path><path d="M55.08,19.28c1.06,0.25,1.19,0.61,3.31,0.25c2.12-0.37,20.06-4.71,21.51-5.07c1.46-0.37,2.51,1.34,1.99,2.69c-6.23,15.89-17.22,27.63-29.15,33.62" class="stroke" stroke-dasharray="150"><set attributeName="opacity" to="0" dur="6.9s" /><animate attributeName="stroke-dashoffset" from="150" to="0" dur="1.8s" begin="6.9s" fill="freeze" /></path><path d="M54.71,25.44c3.51,0.65,20.65,17.9,32.87,24.98c1.9,1.1,3.29,1.83,5.06,2.2" class="stroke" stroke-dasharray="150"><set attributeName="opacity" to="0" dur="8.6s" /><animate attributeName="stroke-dashoffset" from="150" to="0" dur="1.8s" begin="8.6s" fill="freeze" /></path><path d="M51.57,56.25c2.02,1.15,4.18,4.25,5.06,6.7" class="stroke" stroke-dasharray="150"><set attributeName="opacity" to="0" dur="9.799999999999999s" /><animate attributeName="stroke-dashoffset" from="150" to="0" dur="1.8s" begin="9.799999999999999s" fill="freeze" /></path><path d="M28.5,69.79c1.93,0.22,3.89,0.28,4.89,0.24c5.65-0.21,37.03-2.85,45.57-3.03c1.67-0.03,3.96,0.12,4.79,0.24" class="stroke" stroke-dasharray="150"><set attributeName="opacity" to="0" dur="10.7s" /><animate attributeName="stroke-dashoffset" from="150" to="0" dur="1.8s" begin="10.7s" fill="freeze" /></path><path d="M37.5,72.5c3.18,6.63,5.21,14.63,5.5,19" class="stroke" stroke-dasharray="150"><set attributeName="opacity" to="0" dur="12.1s" /><animate attributeName="stroke-dashoffset" from="150" to="0" dur="1.8s" begin="12.1s" fill="freeze" /></path><path d="M69.18,71.5c0.49,0.6,0.37,1.59,0.16,2.18C67.71,78.27,62.64,90.36,61,93.5" class="stroke" stroke-dasharray="150"><set attributeName="opacity" to="0" dur="13.0s" /><animate attributeName="stroke-dashoffset" from="150" to="0" dur="1.8s" begin="13.0s" fill="freeze" /></path><path d="M16.25,95.8c1.75,0.45,5.17,0.51,6.62,0.39c17.38-1.44,47.88-2.19,66.28-3c2.43-0.11,5.35,0.05,7.1,0.88" class="stroke" stroke-dasharray="150"><set attributeName="opacity" to="0" dur="14.0s" /><animate attributeName="stroke-dashoffset" from="150" to="0" dur="1.8s" begin="14.0s" fill="freeze" /></path><text x="90" y="120" id="reset-kvg-07aea-KaishoHzFst">⟳</text><text x="70" y="120" id="pause-kvg-07aea-KaishoHzFst">◼</text><script type="text/javascript"><![CDATA[function RecurringTimer(e,t){var n,r,i=t;this.pause=function(){window.clearTimeout(n);i-=new Date-r};var s=function(){r=new Date;n=window.setTimeout(function(){i=t;s();e()},i)};this.clear=function(){window.clearTimeout(n);i=t;n=window.setTimeout(function(){i=t;s();e()},i)};this.resume=s;this.resume()}function invoketimer(){timer=new RecurringTimer(function(){svg.setCurrentTime(0)},16700.0)}var svg=document.getElementById("kvg-07aea-KaishoHzFst");var pause=document.getElementById("pause-kvg-07aea-KaishoHzFst");var reset=document.getElementById("reset-kvg-07aea-KaishoHzFst");var timer;invoketimer();reset.onclick=function(){svg.setCurrentTime(0);timer.clear();svg.unpauseAnimations();pause.innerHTML = "◼";};pause.onclick=function(){if(svg.animationsPaused()){svg.unpauseAnimations();timer.resume();pause.innerHTML="◼"}else{svg.pauseAnimations();timer.pause();pause.innerHTML="▶"}}]]></script></svg>