<svg id="kvg-07aff" class="kanjivg" width="106" height="126" xmlns="http://www.w3.org/2000/svg" xmlns:xlink="http://www.w3.org/1999/xlink" xml:space="preserve" version="1.1" baseProfile="full"><defs><style type="text/css"><![CDATA[path.black{fill:none;stroke:black;stroke-width:5;stroke-linecap:round;stroke-linejoin:round;}path.grey{fill:none;stroke:#ddd;stroke-width:5;stroke-linecap:round;stroke-linejoin:round;}path.stroke{fill:none;stroke:black;stroke-width:5;stroke-linecap:round;stroke-linejoin:round;}rect{fill:none;stroke:#555;stroke-width:2;} text{font-size:16px;font-family:Segoe UI Symbol,Cambria Math,DejaVu Sans,Symbola,Quivira,STIX,Code2000;-webkit-touch-callout:none;cursor:pointer;-webkit-user-select:none;-khtml-user-select:none;-moz-user-select:none;-ms-user-select:none;user-select: none;}text:hover{color:#777;}#reset{font-weight:bold;}]]></style><marker id="markerStart" markerWidth="8" markerHeight="8" style="overflow:visible;"><circle cx="0" cy="0" r="1.5" style="stroke:none;fill:red;fill-opacity:0.5;"/></marker><marker id="markerEnd" style="overflow:visible;"><circle cx="0" cy="0" r="0.8" style="stroke:none;fill:blue;fill-opacity:0.5;"><animate attributeName="opacity" from="1" to="0" dur="3s" repeatCount="indefinite" /></circle></marker></defs><rect x="4" y="4" width="100" height="100" /><path d="M30.75,12.5c0.12,1.03,0.02,2.03-0.42,2.95C28,20.38,23.75,26.38,16.5,32.25" class="grey" /><path d="M29.23,24.29c1.06,0,2.72-0.17,4.68-0.42c3.56-0.46,8.11-1.19,11.83-1.66c2.14-0.27,4.01-0.46,5.25-0.46" class="grey" /><path d="M34.52,26.58c1.43,1.57,4.19,6.45,4.54,8.88" class="grey" /><path d="M63.74,12c0,1.38-0.26,2.23-0.68,3.15C61.46,19.7,57.63,25.49,53,30.75" class="grey" /><path d="M63.98,21.91c1.04,0,2.68,0.09,4.66-0.16c4.97-0.62,12.1-1.93,17.36-2.65c2.24-0.31,4.14-0.51,5.38-0.51" class="grey" /><path d="M74.28,24.25c0.05,0.61,0.02,1.21-0.23,1.77c-1.42,3.11-2.79,5.36-5.04,8.23" class="grey" /><path d="M27.42,45.77c2.44,1.23,7.17,0.46,9.6,0.05C47.75,44,61.88,42.5,74.25,41.59c2.98-0.22,6.92-1.02,9.87-0.13" class="grey" /><path d="M13.13,65.14c4.34,0.83,8.62,0.48,13.01-0.01C43,63.25,63,61.5,81.62,60.82c4.36-0.16,8.7-0.06,13.01,0.57" class="grey" /><path d="M53.64,46.38c0.8,0.8,1.12,2.24,1.12,3.92c0,2.92-0.08,27.75-0.11,40.94c-0.01,3.71-0.02,6.51-0.02,7.63" class="grey" /><path d="M30.75,12.5c0.12,1.03,0.02,2.03-0.42,2.95C28,20.38,23.75,26.38,16.5,32.25" class="stroke" stroke-dasharray="150"><animate attributeName="stroke-dashoffset" from="150" to="0" dur="1.8s" begin="0.0s" fill="freeze" /></path><path d="M29.23,24.29c1.06,0,2.72-0.17,4.68-0.42c3.56-0.46,8.11-1.19,11.83-1.66c2.14-0.27,4.01-0.46,5.25-0.46" class="stroke" stroke-dasharray="150"><set attributeName="opacity" to="0" dur="1.0s" /><animate attributeName="stroke-dashoffset" from="150" to="0" dur="1.8s" begin="1.0s" fill="freeze" /></path><path d="M34.52,26.58c1.43,1.57,4.19,6.45,4.54,8.88" class="stroke" stroke-dasharray="150"><set attributeName="opacity" to="0" dur="2.0s" /><animate attributeName="stroke-dashoffset" from="150" to="0" dur="1.8s" begin="2.0s" fill="freeze" /></path><path d="M63.74,12c0,1.38-0.26,2.23-0.68,3.15C61.46,19.7,57.63,25.49,53,30.75" class="stroke" stroke-dasharray="150"><set attributeName="opacity" to="0" dur="2.9s" /><animate attributeName="stroke-dashoffset" from="150" to="0" dur="1.8s" begin="2.9s" fill="freeze" /></path><path d="M63.98,21.91c1.04,0,2.68,0.09,4.66-0.16c4.97-0.62,12.1-1.93,17.36-2.65c2.24-0.31,4.14-0.51,5.38-0.51" class="stroke" stroke-dasharray="150"><set attributeName="opacity" to="0" dur="3.9s" /><animate attributeName="stroke-dashoffset" from="150" to="0" dur="1.8s" begin="3.9s" fill="freeze" /></path><path d="M74.28,24.25c0.05,0.61,0.02,1.21-0.23,1.77c-1.42,3.11-2.79,5.36-5.04,8.23" class="stroke" stroke-dasharray="150"><set attributeName="opacity" to="0" dur="4.9s" /><animate attributeName="stroke-dashoffset" from="150" to="0" dur="1.8s" begin="4.9s" fill="freeze" /></path><path d="M27.42,45.77c2.44,1.23,7.17,0.46,9.6,0.05C47.75,44,61.88,42.5,74.25,41.59c2.98-0.22,6.92-1.02,9.87-0.13" class="stroke" stroke-dasharray="150"><set attributeName="opacity" to="0" dur="5.800000000000001s" /><animate attributeName="stroke-dashoffset" from="150" to="0" dur="1.8s" begin="5.800000000000001s" fill="freeze" /></path><path d="M13.13,65.14c4.34,0.83,8.62,0.48,13.01-0.01C43,63.25,63,61.5,81.62,60.82c4.36-0.16,8.7-0.06,13.01,0.57" class="stroke" stroke-dasharray="150"><set attributeName="opacity" to="0" dur="7.200000000000001s" /><animate attributeName="stroke-dashoffset" from="150" to="0" dur="1.8s" begin="7.200000000000001s" fill="freeze" /></path><path d="M53.64,46.38c0.8,0.8,1.12,2.24,1.12,3.92c0,2.92-0.08,27.75-0.11,40.94c-0.01,3.71-0.02,6.51-0.02,7.63" class="stroke" stroke-dasharray="150"><set attributeName="opacity" to="0" dur="8.9s" /><animate attributeName="stroke-dashoffset" from="150" to="0" dur="1.8s" begin="8.9s" fill="freeze" /></path><text x="90" y="120" id="reset-kvg-07aff">⟳</text><text x="70" y="120" id="pause-kvg-07aff">◼</text><script type="text/javascript"><![CDATA[function RecurringTimer(e,t){var n,r,i=t;this.pause=function(){window.clearTimeout(n);i-=new Date-r};var s=function(){r=new Date;n=window.setTimeout(function(){i=t;s();e()},i)};this.clear=function(){window.clearTimeout(n);i=t;n=window.setTimeout(function(){i=t;s();e()},i)};this.resume=s;this.resume()}function invoketimer(){timer=new RecurringTimer(function(){svg.setCurrentTime(0)},11200.000000000002)}var svg=document.getElementById("kvg-07aff");var pause=document.getElementById("pause-kvg-07aff");var reset=document.getElementById("reset-kvg-07aff");var timer;invoketimer();reset.onclick=function(){svg.setCurrentTime(0);timer.clear();svg.unpauseAnimations();pause.innerHTML = "◼";};pause.onclick=function(){if(svg.animationsPaused()){svg.unpauseAnimations();timer.resume();pause.innerHTML="◼"}else{svg.pauseAnimations();timer.pause();pause.innerHTML="▶"}}]]></script></svg>