<svg id="kvg-07b19" class="kanjivg" width="106" height="126" xmlns="http://www.w3.org/2000/svg" xmlns:xlink="http://www.w3.org/1999/xlink" xml:space="preserve" version="1.1" baseProfile="full"><defs><style type="text/css"><![CDATA[path.black{fill:none;stroke:black;stroke-width:5;stroke-linecap:round;stroke-linejoin:round;}path.grey{fill:none;stroke:#ddd;stroke-width:5;stroke-linecap:round;stroke-linejoin:round;}path.stroke{fill:none;stroke:black;stroke-width:5;stroke-linecap:round;stroke-linejoin:round;}rect{fill:none;stroke:#555;stroke-width:2;} text{font-size:16px;font-family:Segoe UI Symbol,Cambria Math,DejaVu Sans,Symbola,Quivira,STIX,Code2000;-webkit-touch-callout:none;cursor:pointer;-webkit-user-select:none;-khtml-user-select:none;-moz-user-select:none;-ms-user-select:none;user-select: none;}text:hover{color:#777;}#reset{font-weight:bold;}]]></style><marker id="markerStart" markerWidth="8" markerHeight="8" style="overflow:visible;"><circle cx="0" cy="0" r="1.5" style="stroke:none;fill:red;fill-opacity:0.5;"/></marker><marker id="markerEnd" style="overflow:visible;"><circle cx="0" cy="0" r="0.8" style="stroke:none;fill:blue;fill-opacity:0.5;"><animate attributeName="opacity" from="1" to="0" dur="3s" repeatCount="indefinite" /></circle></marker></defs><rect x="4" y="4" width="100" height="100" /><path d="M30.99,12.25c0.04,0.62,0.21,1.63-0.09,2.48C28.62,21.25,23.12,29,14.75,37.75" class="grey" /><path d="M28.98,24.54c2.92,0,12.82-1.99,18.91-2.72c1.63-0.2,2.99-0.07,3.86-0.07" class="grey" /><path d="M34.02,26.83c2.61,2.54,5.11,6.29,6.79,10.63" class="grey" /><path d="M64.49,11.75c0.07,0.99,0.07,1.78-0.37,2.68c-2.5,5.07-6.6,10.94-11.87,16.32" class="grey" /><path d="M63.23,22.41c3.67,0,15.38-1.85,23.27-2.68c2.28-0.24,4.5-0.48,6.13-0.15" class="grey" /><path d="M76.14,24.5c0.07,0.65-0.03,1.26-0.31,1.83c-1.04,2.51-4.29,6.89-8.58,9.67" class="grey" /><path d="M34.04,41.68c0.11,1.37-0.25,2.94-0.95,4.16C30,51.25,24.62,58.5,16.08,65.94" class="grey" /><path d="M31.19,55.07c2.81,0.68,5.04,0.38,7.43,0.17c9.17-0.81,28.26-2.52,37.12-3.22c2.28-0.18,4.48-0.05,6.74,0.12" class="grey" /><path d="M52.63,39.13c1.18,1.18,1.53,2.99,1.53,4.53c0,0.86,0.05,40.59,0.05,48.17" class="grey" /><path d="M29.69,73.1c2.73,0.81,6.04,0.17,8.81-0.03c8.81-0.63,24.47-1.87,33.49-2.58c3.27-0.26,6.32-0.66,9.55,0.04" class="grey" /><path d="M15.03,94.21c3.53,0.72,7.03,0.58,10.6,0.4c14.16-0.7,44.33-2.54,57.62-2.92c3.69-0.11,7.28-0.09,10.84,1.07" class="grey" /><path d="M30.99,12.25c0.04,0.62,0.21,1.63-0.09,2.48C28.62,21.25,23.12,29,14.75,37.75" class="stroke" stroke-dasharray="150"><animate attributeName="stroke-dashoffset" from="150" to="0" dur="1.8s" begin="0.0s" fill="freeze" /></path><path d="M28.98,24.54c2.92,0,12.82-1.99,18.91-2.72c1.63-0.2,2.99-0.07,3.86-0.07" class="stroke" stroke-dasharray="150"><set attributeName="opacity" to="0" dur="1.0s" /><animate attributeName="stroke-dashoffset" from="150" to="0" dur="1.8s" begin="1.0s" fill="freeze" /></path><path d="M34.02,26.83c2.61,2.54,5.11,6.29,6.79,10.63" class="stroke" stroke-dasharray="150"><set attributeName="opacity" to="0" dur="2.0s" /><animate attributeName="stroke-dashoffset" from="150" to="0" dur="1.8s" begin="2.0s" fill="freeze" /></path><path d="M64.49,11.75c0.07,0.99,0.07,1.78-0.37,2.68c-2.5,5.07-6.6,10.94-11.87,16.32" class="stroke" stroke-dasharray="150"><set attributeName="opacity" to="0" dur="2.9s" /><animate attributeName="stroke-dashoffset" from="150" to="0" dur="1.8s" begin="2.9s" fill="freeze" /></path><path d="M63.23,22.41c3.67,0,15.38-1.85,23.27-2.68c2.28-0.24,4.5-0.48,6.13-0.15" class="stroke" stroke-dasharray="150"><set attributeName="opacity" to="0" dur="3.9s" /><animate attributeName="stroke-dashoffset" from="150" to="0" dur="1.8s" begin="3.9s" fill="freeze" /></path><path d="M76.14,24.5c0.07,0.65-0.03,1.26-0.31,1.83c-1.04,2.51-4.29,6.89-8.58,9.67" class="stroke" stroke-dasharray="150"><set attributeName="opacity" to="0" dur="4.9s" /><animate attributeName="stroke-dashoffset" from="150" to="0" dur="1.8s" begin="4.9s" fill="freeze" /></path><path d="M34.04,41.68c0.11,1.37-0.25,2.94-0.95,4.16C30,51.25,24.62,58.5,16.08,65.94" class="stroke" stroke-dasharray="150"><set attributeName="opacity" to="0" dur="5.800000000000001s" /><animate attributeName="stroke-dashoffset" from="150" to="0" dur="1.8s" begin="5.800000000000001s" fill="freeze" /></path><path d="M31.19,55.07c2.81,0.68,5.04,0.38,7.43,0.17c9.17-0.81,28.26-2.52,37.12-3.22c2.28-0.18,4.48-0.05,6.74,0.12" class="stroke" stroke-dasharray="150"><set attributeName="opacity" to="0" dur="6.800000000000001s" /><animate attributeName="stroke-dashoffset" from="150" to="0" dur="1.8s" begin="6.800000000000001s" fill="freeze" /></path><path d="M52.63,39.13c1.18,1.18,1.53,2.99,1.53,4.53c0,0.86,0.05,40.59,0.05,48.17" class="stroke" stroke-dasharray="150"><set attributeName="opacity" to="0" dur="8.100000000000001s" /><animate attributeName="stroke-dashoffset" from="150" to="0" dur="1.8s" begin="8.100000000000001s" fill="freeze" /></path><path d="M29.69,73.1c2.73,0.81,6.04,0.17,8.81-0.03c8.81-0.63,24.47-1.87,33.49-2.58c3.27-0.26,6.32-0.66,9.55,0.04" class="stroke" stroke-dasharray="150"><set attributeName="opacity" to="0" dur="9.400000000000002s" /><animate attributeName="stroke-dashoffset" from="150" to="0" dur="1.8s" begin="9.400000000000002s" fill="freeze" /></path><path d="M15.03,94.21c3.53,0.72,7.03,0.58,10.6,0.4c14.16-0.7,44.33-2.54,57.62-2.92c3.69-0.11,7.28-0.09,10.84,1.07" class="stroke" stroke-dasharray="150"><set attributeName="opacity" to="0" dur="10.700000000000003s" /><animate attributeName="stroke-dashoffset" from="150" to="0" dur="1.8s" begin="10.700000000000003s" fill="freeze" /></path><text x="90" y="120" id="reset-kvg-07b19">⟳</text><text x="70" y="120" id="pause-kvg-07b19">◼</text><script type="text/javascript"><![CDATA[function RecurringTimer(e,t){var n,r,i=t;this.pause=function(){window.clearTimeout(n);i-=new Date-r};var s=function(){r=new Date;n=window.setTimeout(function(){i=t;s();e()},i)};this.clear=function(){window.clearTimeout(n);i=t;n=window.setTimeout(function(){i=t;s();e()},i)};this.resume=s;this.resume()}function invoketimer(){timer=new RecurringTimer(function(){svg.setCurrentTime(0)},13400.000000000002)}var svg=document.getElementById("kvg-07b19");var pause=document.getElementById("pause-kvg-07b19");var reset=document.getElementById("reset-kvg-07b19");var timer;invoketimer();reset.onclick=function(){svg.setCurrentTime(0);timer.clear();svg.unpauseAnimations();pause.innerHTML = "◼";};pause.onclick=function(){if(svg.animationsPaused()){svg.unpauseAnimations();timer.resume();pause.innerHTML="◼"}else{svg.pauseAnimations();timer.pause();pause.innerHTML="▶"}}]]></script></svg>