<svg id="kvg-07b48" class="kanjivg" width="106" height="126" xmlns="http://www.w3.org/2000/svg" xmlns:xlink="http://www.w3.org/1999/xlink" xml:space="preserve" version="1.1" baseProfile="full"><defs><style type="text/css"><![CDATA[path.black{fill:none;stroke:black;stroke-width:5;stroke-linecap:round;stroke-linejoin:round;}path.grey{fill:none;stroke:#ddd;stroke-width:5;stroke-linecap:round;stroke-linejoin:round;}path.stroke{fill:none;stroke:black;stroke-width:5;stroke-linecap:round;stroke-linejoin:round;}rect{fill:none;stroke:#555;stroke-width:2;} text{font-size:16px;font-family:Segoe UI Symbol,Cambria Math,DejaVu Sans,Symbola,Quivira,STIX,Code2000;-webkit-touch-callout:none;cursor:pointer;-webkit-user-select:none;-khtml-user-select:none;-moz-user-select:none;-ms-user-select:none;user-select: none;}text:hover{color:#777;}#reset{font-weight:bold;}]]></style><marker id="markerStart" markerWidth="8" markerHeight="8" style="overflow:visible;"><circle cx="0" cy="0" r="1.5" style="stroke:none;fill:red;fill-opacity:0.5;"/></marker><marker id="markerEnd" style="overflow:visible;"><circle cx="0" cy="0" r="0.8" style="stroke:none;fill:blue;fill-opacity:0.5;"><animate attributeName="opacity" from="1" to="0" dur="3s" repeatCount="indefinite" /></circle></marker></defs><rect x="4" y="4" width="100" height="100" /><path d="M29.5,11.75c0.03,0.55,0.08,1.43-0.07,2.22c-0.87,4.69-5.85,14.98-12.68,21.28" class="grey" /><path d="M28.23,24.79c3.71,0,18.11-3.79,22.27-3.79" class="grey" /><path d="M34.52,26.83c1.6,1.61,4.14,6.63,4.54,9.13" class="grey" /><path d="M63.24,10.5c0.03,0.5,0.13,1.31-0.06,2.01c-1.44,5.26-5.41,12.77-10.68,19.24" class="grey" /><path d="M62.48,21.66c4.73,0,22.08-3.57,27.4-3.57" class="grey" /><path d="M75.27,23.75c0.02,0.24,0.04,0.61-0.04,0.95c-0.43,2-2.88,6.37-6.24,9.05" class="grey" /><path d="M66.26,38c0.09,0.29-0.7,1.8-1.21,2.11c-3.88,2.36-13.75,6.26-30.97,9.54" class="grey" /><path d="M15.6,61.93c1.46,0.34,5.11,0.5,6.55,0.34c11.07-1.23,48.01-6.27,65.4-6.47c2.43-0.03,3.89,0.16,5.1,0.34" class="grey" /><path d="M52.77,47.99c0.56,0.31,1.74,2.32,1.85,2.94c0.21,1.15-0.07,19.6-0.18,23.59" class="grey" /><path d="M31.62,75.65c0.31,0.41,0.64,0.74,0.77,1.25c1.09,4.02,3.39,15.12,4.14,22.34" class="grey" /><path d="M33.29,78.11c6.19-1.23,40.95-5.46,44.45-5.84C80.25,72,82.81,73,82.5,75.24c-0.62,4.53-4.34,11.46-5.46,17.7" class="grey" /><path d="M36.49,95.99c5.76-0.49,34.01-2.74,41.23-3.13" class="grey" /><path d="M29.5,11.75c0.03,0.55,0.08,1.43-0.07,2.22c-0.87,4.69-5.85,14.98-12.68,21.28" class="stroke" stroke-dasharray="150"><animate attributeName="stroke-dashoffset" from="150" to="0" dur="1.8s" begin="0.0s" fill="freeze" /></path><path d="M28.23,24.79c3.71,0,18.11-3.79,22.27-3.79" class="stroke" stroke-dasharray="150"><set attributeName="opacity" to="0" dur="1.0s" /><animate attributeName="stroke-dashoffset" from="150" to="0" dur="1.8s" begin="1.0s" fill="freeze" /></path><path d="M34.52,26.83c1.6,1.61,4.14,6.63,4.54,9.13" class="stroke" stroke-dasharray="150"><set attributeName="opacity" to="0" dur="2.0s" /><animate attributeName="stroke-dashoffset" from="150" to="0" dur="1.8s" begin="2.0s" fill="freeze" /></path><path d="M63.24,10.5c0.03,0.5,0.13,1.31-0.06,2.01c-1.44,5.26-5.41,12.77-10.68,19.24" class="stroke" stroke-dasharray="150"><set attributeName="opacity" to="0" dur="2.9s" /><animate attributeName="stroke-dashoffset" from="150" to="0" dur="1.8s" begin="2.9s" fill="freeze" /></path><path d="M62.48,21.66c4.73,0,22.08-3.57,27.4-3.57" class="stroke" stroke-dasharray="150"><set attributeName="opacity" to="0" dur="3.9s" /><animate attributeName="stroke-dashoffset" from="150" to="0" dur="1.8s" begin="3.9s" fill="freeze" /></path><path d="M75.27,23.75c0.02,0.24,0.04,0.61-0.04,0.95c-0.43,2-2.88,6.37-6.24,9.05" class="stroke" stroke-dasharray="150"><set attributeName="opacity" to="0" dur="4.9s" /><animate attributeName="stroke-dashoffset" from="150" to="0" dur="1.8s" begin="4.9s" fill="freeze" /></path><path d="M66.26,38c0.09,0.29-0.7,1.8-1.21,2.11c-3.88,2.36-13.75,6.26-30.97,9.54" class="stroke" stroke-dasharray="150"><set attributeName="opacity" to="0" dur="5.800000000000001s" /><animate attributeName="stroke-dashoffset" from="150" to="0" dur="1.8s" begin="5.800000000000001s" fill="freeze" /></path><path d="M15.6,61.93c1.46,0.34,5.11,0.5,6.55,0.34c11.07-1.23,48.01-6.27,65.4-6.47c2.43-0.03,3.89,0.16,5.1,0.34" class="stroke" stroke-dasharray="150"><set attributeName="opacity" to="0" dur="6.800000000000001s" /><animate attributeName="stroke-dashoffset" from="150" to="0" dur="1.8s" begin="6.800000000000001s" fill="freeze" /></path><path d="M52.77,47.99c0.56,0.31,1.74,2.32,1.85,2.94c0.21,1.15-0.07,19.6-0.18,23.59" class="stroke" stroke-dasharray="150"><set attributeName="opacity" to="0" dur="8.5s" /><animate attributeName="stroke-dashoffset" from="150" to="0" dur="1.8s" begin="8.5s" fill="freeze" /></path><path d="M31.62,75.65c0.31,0.41,0.64,0.74,0.77,1.25c1.09,4.02,3.39,15.12,4.14,22.34" class="stroke" stroke-dasharray="150"><set attributeName="opacity" to="0" dur="9.5s" /><animate attributeName="stroke-dashoffset" from="150" to="0" dur="1.8s" begin="9.5s" fill="freeze" /></path><path d="M33.29,78.11c6.19-1.23,40.95-5.46,44.45-5.84C80.25,72,82.81,73,82.5,75.24c-0.62,4.53-4.34,11.46-5.46,17.7" class="stroke" stroke-dasharray="150"><set attributeName="opacity" to="0" dur="10.5s" /><animate attributeName="stroke-dashoffset" from="150" to="0" dur="1.8s" begin="10.5s" fill="freeze" /></path><path d="M36.49,95.99c5.76-0.49,34.01-2.74,41.23-3.13" class="stroke" stroke-dasharray="150"><set attributeName="opacity" to="0" dur="12.0s" /><animate attributeName="stroke-dashoffset" from="150" to="0" dur="1.8s" begin="12.0s" fill="freeze" /></path><text x="90" y="120" id="reset-kvg-07b48">⟳</text><text x="70" y="120" id="pause-kvg-07b48">◼</text><script type="text/javascript"><![CDATA[function RecurringTimer(e,t){var n,r,i=t;this.pause=function(){window.clearTimeout(n);i-=new Date-r};var s=function(){r=new Date;n=window.setTimeout(function(){i=t;s();e()},i)};this.clear=function(){window.clearTimeout(n);i=t;n=window.setTimeout(function(){i=t;s();e()},i)};this.resume=s;this.resume()}function invoketimer(){timer=new RecurringTimer(function(){svg.setCurrentTime(0)},14100.0)}var svg=document.getElementById("kvg-07b48");var pause=document.getElementById("pause-kvg-07b48");var reset=document.getElementById("reset-kvg-07b48");var timer;invoketimer();reset.onclick=function(){svg.setCurrentTime(0);timer.clear();svg.unpauseAnimations();pause.innerHTML = "◼";};pause.onclick=function(){if(svg.animationsPaused()){svg.unpauseAnimations();timer.resume();pause.innerHTML="◼"}else{svg.pauseAnimations();timer.pause();pause.innerHTML="▶"}}]]></script></svg>