<svg id="kvg-07b8f" class="kanjivg" width="106" height="126" xmlns="http://www.w3.org/2000/svg" xmlns:xlink="http://www.w3.org/1999/xlink" xml:space="preserve" version="1.1" baseProfile="full"><defs><style type="text/css"><![CDATA[path.black{fill:none;stroke:black;stroke-width:5;stroke-linecap:round;stroke-linejoin:round;}path.grey{fill:none;stroke:#ddd;stroke-width:5;stroke-linecap:round;stroke-linejoin:round;}path.stroke{fill:none;stroke:black;stroke-width:5;stroke-linecap:round;stroke-linejoin:round;}rect{fill:none;stroke:#555;stroke-width:2;} text{font-size:16px;font-family:Segoe UI Symbol,Cambria Math,DejaVu Sans,Symbola,Quivira,STIX,Code2000;-webkit-touch-callout:none;cursor:pointer;-webkit-user-select:none;-khtml-user-select:none;-moz-user-select:none;-ms-user-select:none;user-select: none;}text:hover{color:#777;}#reset{font-weight:bold;}]]></style><marker id="markerStart" markerWidth="8" markerHeight="8" style="overflow:visible;"><circle cx="0" cy="0" r="1.5" style="stroke:none;fill:red;fill-opacity:0.5;"/></marker><marker id="markerEnd" style="overflow:visible;"><circle cx="0" cy="0" r="0.8" style="stroke:none;fill:blue;fill-opacity:0.5;"><animate attributeName="opacity" from="1" to="0" dur="3s" repeatCount="indefinite" /></circle></marker></defs><rect x="4" y="4" width="100" height="100" /><path d="M29.75,8.5c0.04,0.55,0.09,1.41-0.08,2.2c-1.02,4.64-6.89,14.82-14.92,21.05" class="grey" /><path d="M28.75,19.53c3.89,0,16.38-2.81,20.75-2.81" class="grey" /><path d="M34.27,20.58c2.29,1.88,5.91,7.74,6.48,10.67" class="grey" /><path d="M62.21,8.25c0.03,0.48,0.15,1.24-0.07,1.92C60.5,15.18,55.98,22.34,50,28.5" class="grey" /><path d="M62,16.88c4.73,0,21.07-3.42,26.38-3.42" class="grey" /><path d="M71.26,19.25c0.02,0.19,0.04,0.5-0.04,0.78c-0.5,1.65-3.33,5.26-7.22,7.47" class="grey" /><path d="M75.75,28c0.06,1.02-1.2,2.03-1.99,2.31c-4.26,1.48-20.09,4.83-45.51,7.44" class="grey" /><path d="M29.51,43.25c0.03,0.37,0.07,0.94-0.07,1.47C28.66,47.81,24.16,54.6,18,58.75" class="grey" /><path d="M46.46,41.05c2.74,1.55,7.09,6.38,7.78,8.79" class="grey" /><path d="M70.29,37.88c4.93,1.52,12.73,6.25,13.96,8.62" class="grey" /><path d="M26.2,58.12c2.05,0.38,3.83,0.73,6.17,0.44c14.28-1.79,31.2-4.03,44.72-5.58c3.31-0.38,4.19,1.03,3.81,2.97c-0.98,5.07-3.04,13.74-3.62,19.88" class="grey" /><path d="M13,69.63c2.25,0.87,4.8,1.43,7.78,1c21.72-3.13,48.34-5.9,68.99-7.39c3.3-0.25,5.98,0,7.48,0.5" class="grey" /><path d="M26.05,80.54c1.27,0.28,3.58,0.53,5.1,0.38c14.02-1.39,31.76-4.43,44.51-4.99c2.04-0.09,3.32,0,4.84,0.28" class="grey" /><path d="M53.62,58.4c0.44,0.71,1.25,2.34,1.29,4.72c0.21,11.42-0.13,28.03-0.13,31.91c0,8.23-7.32,0.98-7.9,0.24" class="grey" /><path d="M29.75,8.5c0.04,0.55,0.09,1.41-0.08,2.2c-1.02,4.64-6.89,14.82-14.92,21.05" class="stroke" stroke-dasharray="150"><animate attributeName="stroke-dashoffset" from="150" to="0" dur="1.8s" begin="0.0s" fill="freeze" /></path><path d="M28.75,19.53c3.89,0,16.38-2.81,20.75-2.81" class="stroke" stroke-dasharray="150"><set attributeName="opacity" to="0" dur="1.0s" /><animate attributeName="stroke-dashoffset" from="150" to="0" dur="1.8s" begin="1.0s" fill="freeze" /></path><path d="M34.27,20.58c2.29,1.88,5.91,7.74,6.48,10.67" class="stroke" stroke-dasharray="150"><set attributeName="opacity" to="0" dur="2.0s" /><animate attributeName="stroke-dashoffset" from="150" to="0" dur="1.8s" begin="2.0s" fill="freeze" /></path><path d="M62.21,8.25c0.03,0.48,0.15,1.24-0.07,1.92C60.5,15.18,55.98,22.34,50,28.5" class="stroke" stroke-dasharray="150"><set attributeName="opacity" to="0" dur="2.9s" /><animate attributeName="stroke-dashoffset" from="150" to="0" dur="1.8s" begin="2.9s" fill="freeze" /></path><path d="M62,16.88c4.73,0,21.07-3.42,26.38-3.42" class="stroke" stroke-dasharray="150"><set attributeName="opacity" to="0" dur="3.9s" /><animate attributeName="stroke-dashoffset" from="150" to="0" dur="1.8s" begin="3.9s" fill="freeze" /></path><path d="M71.26,19.25c0.02,0.19,0.04,0.5-0.04,0.78c-0.5,1.65-3.33,5.26-7.22,7.47" class="stroke" stroke-dasharray="150"><set attributeName="opacity" to="0" dur="4.9s" /><animate attributeName="stroke-dashoffset" from="150" to="0" dur="1.8s" begin="4.9s" fill="freeze" /></path><path d="M75.75,28c0.06,1.02-1.2,2.03-1.99,2.31c-4.26,1.48-20.09,4.83-45.51,7.44" class="stroke" stroke-dasharray="150"><set attributeName="opacity" to="0" dur="5.800000000000001s" /><animate attributeName="stroke-dashoffset" from="150" to="0" dur="1.8s" begin="5.800000000000001s" fill="freeze" /></path><path d="M29.51,43.25c0.03,0.37,0.07,0.94-0.07,1.47C28.66,47.81,24.16,54.6,18,58.75" class="stroke" stroke-dasharray="150"><set attributeName="opacity" to="0" dur="7.000000000000001s" /><animate attributeName="stroke-dashoffset" from="150" to="0" dur="1.8s" begin="7.000000000000001s" fill="freeze" /></path><path d="M46.46,41.05c2.74,1.55,7.09,6.38,7.78,8.79" class="stroke" stroke-dasharray="150"><set attributeName="opacity" to="0" dur="7.900000000000001s" /><animate attributeName="stroke-dashoffset" from="150" to="0" dur="1.8s" begin="7.900000000000001s" fill="freeze" /></path><path d="M70.29,37.88c4.93,1.52,12.73,6.25,13.96,8.62" class="stroke" stroke-dasharray="150"><set attributeName="opacity" to="0" dur="8.8s" /><animate attributeName="stroke-dashoffset" from="150" to="0" dur="1.8s" begin="8.8s" fill="freeze" /></path><path d="M26.2,58.12c2.05,0.38,3.83,0.73,6.17,0.44c14.28-1.79,31.2-4.03,44.72-5.58c3.31-0.38,4.19,1.03,3.81,2.97c-0.98,5.07-3.04,13.74-3.62,19.88" class="stroke" stroke-dasharray="150"><set attributeName="opacity" to="0" dur="9.700000000000001s" /><animate attributeName="stroke-dashoffset" from="150" to="0" dur="1.8s" begin="9.700000000000001s" fill="freeze" /></path><path d="M13,69.63c2.25,0.87,4.8,1.43,7.78,1c21.72-3.13,48.34-5.9,68.99-7.39c3.3-0.25,5.98,0,7.48,0.5" class="stroke" stroke-dasharray="150"><set attributeName="opacity" to="0" dur="11.4s" /><animate attributeName="stroke-dashoffset" from="150" to="0" dur="1.8s" begin="11.4s" fill="freeze" /></path><path d="M26.05,80.54c1.27,0.28,3.58,0.53,5.1,0.38c14.02-1.39,31.76-4.43,44.51-4.99c2.04-0.09,3.32,0,4.84,0.28" class="stroke" stroke-dasharray="150"><set attributeName="opacity" to="0" dur="13.1s" /><animate attributeName="stroke-dashoffset" from="150" to="0" dur="1.8s" begin="13.1s" fill="freeze" /></path><path d="M53.62,58.4c0.44,0.71,1.25,2.34,1.29,4.72c0.21,11.42-0.13,28.03-0.13,31.91c0,8.23-7.32,0.98-7.9,0.24" class="stroke" stroke-dasharray="150"><set attributeName="opacity" to="0" dur="14.4s" /><animate attributeName="stroke-dashoffset" from="150" to="0" dur="1.8s" begin="14.4s" fill="freeze" /></path><text x="90" y="120" id="reset-kvg-07b8f">⟳</text><text x="70" y="120" id="pause-kvg-07b8f">◼</text><script type="text/javascript"><![CDATA[function RecurringTimer(e,t){var n,r,i=t;this.pause=function(){window.clearTimeout(n);i-=new Date-r};var s=function(){r=new Date;n=window.setTimeout(function(){i=t;s();e()},i)};this.clear=function(){window.clearTimeout(n);i=t;n=window.setTimeout(function(){i=t;s();e()},i)};this.resume=s;this.resume()}function invoketimer(){timer=new RecurringTimer(function(){svg.setCurrentTime(0)},16600.0)}var svg=document.getElementById("kvg-07b8f");var pause=document.getElementById("pause-kvg-07b8f");var reset=document.getElementById("reset-kvg-07b8f");var timer;invoketimer();reset.onclick=function(){svg.setCurrentTime(0);timer.clear();svg.unpauseAnimations();pause.innerHTML = "◼";};pause.onclick=function(){if(svg.animationsPaused()){svg.unpauseAnimations();timer.resume();pause.innerHTML="◼"}else{svg.pauseAnimations();timer.pause();pause.innerHTML="▶"}}]]></script></svg>