<svg id="kvg-07b94" class="kanjivg" width="106" height="126" xmlns="http://www.w3.org/2000/svg" xmlns:xlink="http://www.w3.org/1999/xlink" xml:space="preserve" version="1.1" baseProfile="full"><defs><style type="text/css"><![CDATA[path.black{fill:none;stroke:black;stroke-width:5;stroke-linecap:round;stroke-linejoin:round;}path.grey{fill:none;stroke:#ddd;stroke-width:5;stroke-linecap:round;stroke-linejoin:round;}path.stroke{fill:none;stroke:black;stroke-width:5;stroke-linecap:round;stroke-linejoin:round;}rect{fill:none;stroke:#555;stroke-width:2;} text{font-size:16px;font-family:Segoe UI Symbol,Cambria Math,DejaVu Sans,Symbola,Quivira,STIX,Code2000;-webkit-touch-callout:none;cursor:pointer;-webkit-user-select:none;-khtml-user-select:none;-moz-user-select:none;-ms-user-select:none;user-select: none;}text:hover{color:#777;}#reset{font-weight:bold;}]]></style><marker id="markerStart" markerWidth="8" markerHeight="8" style="overflow:visible;"><circle cx="0" cy="0" r="1.5" style="stroke:none;fill:red;fill-opacity:0.5;"/></marker><marker id="markerEnd" style="overflow:visible;"><circle cx="0" cy="0" r="0.8" style="stroke:none;fill:blue;fill-opacity:0.5;"><animate attributeName="opacity" from="1" to="0" dur="3s" repeatCount="indefinite" /></circle></marker></defs><rect x="4" y="4" width="100" height="100" /><path d="M30.5,12.75c0.03,0.46,0.07,1.2-0.07,1.87C29.58,18.56,24.69,27.21,18,32.5" class="grey" /><path d="M28.73,23.85c4.36,0,18.37-2.67,23.27-2.67" class="grey" /><path d="M36.77,25.83c1.87,1.61,4.83,6.63,5.29,9.13" class="grey" /><path d="M63.75,12.5c0.03,0.4,0.11,1.04-0.05,1.61c-1.27,4.21-4.79,10.22-9.44,15.39" class="grey" /><path d="M63.48,22.16c4.73,0,22.08-3.07,27.4-3.07" class="grey" /><path d="M76.77,23.75c0.02,0.22,0.04,0.56-0.04,0.88c-0.46,1.85-3.11,5.9-6.74,8.37" class="grey" /><path d="M25.41,37.75c4.09,1.58,10.57,6.52,11.59,8.98" class="grey" /><path d="M21,55.12c3.51,1.39,9.07,5.72,9.95,7.88" class="grey" /><path d="M20.25,91.72c1.64,0.99,3.62,1.03,4.65-0.19c3.01-3.57,6.02-7.93,8.76-12.48" class="grey" /><path d="M67,39.25c0.5,0.61,0.69,1.38,0.46,1.88c-1.66,3.69-6.82,10.6-12.38,14.79" class="grey" /><path d="M50.71,55.29c0.59,1.04,1.19,2.78,1.19,4.17c0,1.39,1.69,29.95,1.69,38.29" class="grey" /><path d="M52.26,57.34c3.35-0.17,29.52-2.87,32.57-3.11c2.92-0.23,3.73,1.14,3.72,3.33c-0.01,3.75-1.53,27.17-2.16,38.64" class="grey" /><path d="M53.22,75.21c7.02-0.52,28.88-2.85,34-2.85" class="grey" /><path d="M54.39,95.49c8.4-0.56,22.84-1.89,31.8-2.15" class="grey" /><path d="M30.5,12.75c0.03,0.46,0.07,1.2-0.07,1.87C29.58,18.56,24.69,27.21,18,32.5" class="stroke" stroke-dasharray="150"><animate attributeName="stroke-dashoffset" from="150" to="0" dur="1.8s" begin="0.0s" fill="freeze" /></path><path d="M28.73,23.85c4.36,0,18.37-2.67,23.27-2.67" class="stroke" stroke-dasharray="150"><set attributeName="opacity" to="0" dur="1.0s" /><animate attributeName="stroke-dashoffset" from="150" to="0" dur="1.8s" begin="1.0s" fill="freeze" /></path><path d="M36.77,25.83c1.87,1.61,4.83,6.63,5.29,9.13" class="stroke" stroke-dasharray="150"><set attributeName="opacity" to="0" dur="2.0s" /><animate attributeName="stroke-dashoffset" from="150" to="0" dur="1.8s" begin="2.0s" fill="freeze" /></path><path d="M63.75,12.5c0.03,0.4,0.11,1.04-0.05,1.61c-1.27,4.21-4.79,10.22-9.44,15.39" class="stroke" stroke-dasharray="150"><set attributeName="opacity" to="0" dur="2.9s" /><animate attributeName="stroke-dashoffset" from="150" to="0" dur="1.8s" begin="2.9s" fill="freeze" /></path><path d="M63.48,22.16c4.73,0,22.08-3.07,27.4-3.07" class="stroke" stroke-dasharray="150"><set attributeName="opacity" to="0" dur="3.8s" /><animate attributeName="stroke-dashoffset" from="150" to="0" dur="1.8s" begin="3.8s" fill="freeze" /></path><path d="M76.77,23.75c0.02,0.22,0.04,0.56-0.04,0.88c-0.46,1.85-3.11,5.9-6.74,8.37" class="stroke" stroke-dasharray="150"><set attributeName="opacity" to="0" dur="4.8s" /><animate attributeName="stroke-dashoffset" from="150" to="0" dur="1.8s" begin="4.8s" fill="freeze" /></path><path d="M25.41,37.75c4.09,1.58,10.57,6.52,11.59,8.98" class="stroke" stroke-dasharray="150"><set attributeName="opacity" to="0" dur="5.7s" /><animate attributeName="stroke-dashoffset" from="150" to="0" dur="1.8s" begin="5.7s" fill="freeze" /></path><path d="M21,55.12c3.51,1.39,9.07,5.72,9.95,7.88" class="stroke" stroke-dasharray="150"><set attributeName="opacity" to="0" dur="6.6000000000000005s" /><animate attributeName="stroke-dashoffset" from="150" to="0" dur="1.8s" begin="6.6000000000000005s" fill="freeze" /></path><path d="M20.25,91.72c1.64,0.99,3.62,1.03,4.65-0.19c3.01-3.57,6.02-7.93,8.76-12.48" class="stroke" stroke-dasharray="150"><set attributeName="opacity" to="0" dur="7.500000000000001s" /><animate attributeName="stroke-dashoffset" from="150" to="0" dur="1.8s" begin="7.500000000000001s" fill="freeze" /></path><path d="M67,39.25c0.5,0.61,0.69,1.38,0.46,1.88c-1.66,3.69-6.82,10.6-12.38,14.79" class="stroke" stroke-dasharray="150"><set attributeName="opacity" to="0" dur="8.5s" /><animate attributeName="stroke-dashoffset" from="150" to="0" dur="1.8s" begin="8.5s" fill="freeze" /></path><path d="M50.71,55.29c0.59,1.04,1.19,2.78,1.19,4.17c0,1.39,1.69,29.95,1.69,38.29" class="stroke" stroke-dasharray="150"><set attributeName="opacity" to="0" dur="9.5s" /><animate attributeName="stroke-dashoffset" from="150" to="0" dur="1.8s" begin="9.5s" fill="freeze" /></path><path d="M52.26,57.34c3.35-0.17,29.52-2.87,32.57-3.11c2.92-0.23,3.73,1.14,3.72,3.33c-0.01,3.75-1.53,27.17-2.16,38.64" class="stroke" stroke-dasharray="150"><set attributeName="opacity" to="0" dur="10.6s" /><animate attributeName="stroke-dashoffset" from="150" to="0" dur="1.8s" begin="10.6s" fill="freeze" /></path><path d="M53.22,75.21c7.02-0.52,28.88-2.85,34-2.85" class="stroke" stroke-dasharray="150"><set attributeName="opacity" to="0" dur="12.299999999999999s" /><animate attributeName="stroke-dashoffset" from="150" to="0" dur="1.8s" begin="12.299999999999999s" fill="freeze" /></path><path d="M54.39,95.49c8.4-0.56,22.84-1.89,31.8-2.15" class="stroke" stroke-dasharray="150"><set attributeName="opacity" to="0" dur="13.299999999999999s" /><animate attributeName="stroke-dashoffset" from="150" to="0" dur="1.8s" begin="13.299999999999999s" fill="freeze" /></path><text x="90" y="120" id="reset-kvg-07b94">⟳</text><text x="70" y="120" id="pause-kvg-07b94">◼</text><script type="text/javascript"><![CDATA[function RecurringTimer(e,t){var n,r,i=t;this.pause=function(){window.clearTimeout(n);i-=new Date-r};var s=function(){r=new Date;n=window.setTimeout(function(){i=t;s();e()},i)};this.clear=function(){window.clearTimeout(n);i=t;n=window.setTimeout(function(){i=t;s();e()},i)};this.resume=s;this.resume()}function invoketimer(){timer=new RecurringTimer(function(){svg.setCurrentTime(0)},15299.999999999998)}var svg=document.getElementById("kvg-07b94");var pause=document.getElementById("pause-kvg-07b94");var reset=document.getElementById("reset-kvg-07b94");var timer;invoketimer();reset.onclick=function(){svg.setCurrentTime(0);timer.clear();svg.unpauseAnimations();pause.innerHTML = "◼";};pause.onclick=function(){if(svg.animationsPaused()){svg.unpauseAnimations();timer.resume();pause.innerHTML="◼"}else{svg.pauseAnimations();timer.pause();pause.innerHTML="▶"}}]]></script></svg>