<svg id="kvg-07c3f-Kaisho" class="kanjivg" width="106" height="126" xmlns="http://www.w3.org/2000/svg" xmlns:xlink="http://www.w3.org/1999/xlink" xml:space="preserve" version="1.1" baseProfile="full"><defs><style type="text/css"><![CDATA[path.black{fill:none;stroke:black;stroke-width:5;stroke-linecap:round;stroke-linejoin:round;}path.grey{fill:none;stroke:#ddd;stroke-width:5;stroke-linecap:round;stroke-linejoin:round;}path.stroke{fill:none;stroke:black;stroke-width:5;stroke-linecap:round;stroke-linejoin:round;}rect{fill:none;stroke:#555;stroke-width:2;} text{font-size:16px;font-family:Segoe UI Symbol,Cambria Math,DejaVu Sans,Symbola,Quivira,STIX,Code2000;-webkit-touch-callout:none;cursor:pointer;-webkit-user-select:none;-khtml-user-select:none;-moz-user-select:none;-ms-user-select:none;user-select: none;}text:hover{color:#777;}#reset{font-weight:bold;}]]></style><marker id="markerStart" markerWidth="8" markerHeight="8" style="overflow:visible;"><circle cx="0" cy="0" r="1.5" style="stroke:none;fill:red;fill-opacity:0.5;"/></marker><marker id="markerEnd" style="overflow:visible;"><circle cx="0" cy="0" r="0.8" style="stroke:none;fill:blue;fill-opacity:0.5;"><animate attributeName="opacity" from="1" to="0" dur="3s" repeatCount="indefinite" /></circle></marker></defs><rect x="4" y="4" width="100" height="100" /><path d="M29,11.25c0.03,0.46,0.07,1.2-0.07,1.87C28.1,17.06,22.81,25.71,16.25,31" class="grey" /><path d="M28.73,21.29c3.71,0,15.61-3.29,19.77-3.29" class="grey" /><path d="M35.27,23.08c1.87,1.3,4.83,5.36,5.29,7.38" class="grey" /><path d="M61.75,9.5c0.02,0.36,0.1,0.94-0.05,1.44c-1.07,3.78-4.03,9.17-7.96,13.81" class="grey" /><path d="M60.98,17.16c4.73,0,20.58-3.57,25.9-3.57" class="grey" /><path d="M73.27,18.25c0.02,0.17,0.04,0.44-0.03,0.69c-0.41,1.45-2.77,4.62-5.99,6.56" class="grey" /><path d="M23.61,33.19c3.47,1.34,8.96,5.51,9.82,7.59" class="grey" /><path d="M17.21,49.71c3.96,1.22,10.22,5.02,11.21,6.92" class="grey" /><path d="M16.91,90.32c1.61,1.02,3.73,1.21,4.55-0.2c3.29-5.59,4.89-8.71,7.57-13.4" class="grey" /><path d="M48.35,36.82c1.01,0.31,2.85,0.33,3.86,0.31c6.54-0.1,19.79-3.01,25.96-3.64c1.67-0.17,2.69,0.15,3.53,0.3" class="grey" /><path d="M45.7,45.23c0.53,0.48,0.97,1.99,1.05,2.49c0.49,2.85,2.79,15.04,2.81,19.34" class="grey" /><path d="M48.31,47.02c5.91-0.2,33.42-4.14,34.93-4.14s3.51,0.76,3.01,2.8s-1,7.74-3.94,18.06" class="grey" /><path d="M48.31,55.73c7.8-0.42,15.58-1.38,23.36-2.16c0.84-0.08,1.66-0.17,2.46-0.25" class="grey" /><path d="M50.97,64.76c5.61-0.36,24.04-2.87,30.53-3.11" class="grey" /><path d="M63.46,28.75c0.98,0.39,1.56,1.73,1.76,2.51c0.19,0.77,0.5,26.43,0.3,31.25" class="grey" /><path d="M83.09,27.25c2.69,1.3,6.96,5.36,7.63,7.39" class="grey" /><path d="M36.12,76.73c1.07,0.46,3.03,0.58,4.12,0.46c11.9-1.29,37.83-3.36,50.93-4.06c1.79-0.1,2.86,0.22,3.76,0.45" class="grey" /><path d="M74.66,65.23c0.06,0.28,0.85,1.45,0.85,3.21c0,11.88-0.17,22.81-0.17,25.69c0,7.01-5.09,1.04-6.58,0.15" class="grey" /><path d="M50.21,82.83c2.27,1.15,5.87,4.75,6.44,6.54" class="grey" /><path d="M29,11.25c0.03,0.46,0.07,1.2-0.07,1.87C28.1,17.06,22.81,25.71,16.25,31" class="stroke" stroke-dasharray="150"><animate attributeName="stroke-dashoffset" from="150" to="0" dur="1.8s" begin="0.0s" fill="freeze" /></path><path d="M28.73,21.29c3.71,0,15.61-3.29,19.77-3.29" class="stroke" stroke-dasharray="150"><set attributeName="opacity" to="0" dur="1.0s" /><animate attributeName="stroke-dashoffset" from="150" to="0" dur="1.8s" begin="1.0s" fill="freeze" /></path><path d="M35.27,23.08c1.87,1.3,4.83,5.36,5.29,7.38" class="stroke" stroke-dasharray="150"><set attributeName="opacity" to="0" dur="2.0s" /><animate attributeName="stroke-dashoffset" from="150" to="0" dur="1.8s" begin="2.0s" fill="freeze" /></path><path d="M61.75,9.5c0.02,0.36,0.1,0.94-0.05,1.44c-1.07,3.78-4.03,9.17-7.96,13.81" class="stroke" stroke-dasharray="150"><set attributeName="opacity" to="0" dur="2.9s" /><animate attributeName="stroke-dashoffset" from="150" to="0" dur="1.8s" begin="2.9s" fill="freeze" /></path><path d="M60.98,17.16c4.73,0,20.58-3.57,25.9-3.57" class="stroke" stroke-dasharray="150"><set attributeName="opacity" to="0" dur="3.8s" /><animate attributeName="stroke-dashoffset" from="150" to="0" dur="1.8s" begin="3.8s" fill="freeze" /></path><path d="M73.27,18.25c0.02,0.17,0.04,0.44-0.03,0.69c-0.41,1.45-2.77,4.62-5.99,6.56" class="stroke" stroke-dasharray="150"><set attributeName="opacity" to="0" dur="4.8s" /><animate attributeName="stroke-dashoffset" from="150" to="0" dur="1.8s" begin="4.8s" fill="freeze" /></path><path d="M23.61,33.19c3.47,1.34,8.96,5.51,9.82,7.59" class="stroke" stroke-dasharray="150"><set attributeName="opacity" to="0" dur="5.7s" /><animate attributeName="stroke-dashoffset" from="150" to="0" dur="1.8s" begin="5.7s" fill="freeze" /></path><path d="M17.21,49.71c3.96,1.22,10.22,5.02,11.21,6.92" class="stroke" stroke-dasharray="150"><set attributeName="opacity" to="0" dur="6.6000000000000005s" /><animate attributeName="stroke-dashoffset" from="150" to="0" dur="1.8s" begin="6.6000000000000005s" fill="freeze" /></path><path d="M16.91,90.32c1.61,1.02,3.73,1.21,4.55-0.2c3.29-5.59,4.89-8.71,7.57-13.4" class="stroke" stroke-dasharray="150"><set attributeName="opacity" to="0" dur="7.500000000000001s" /><animate attributeName="stroke-dashoffset" from="150" to="0" dur="1.8s" begin="7.500000000000001s" fill="freeze" /></path><path d="M48.35,36.82c1.01,0.31,2.85,0.33,3.86,0.31c6.54-0.1,19.79-3.01,25.96-3.64c1.67-0.17,2.69,0.15,3.53,0.3" class="stroke" stroke-dasharray="150"><set attributeName="opacity" to="0" dur="8.5s" /><animate attributeName="stroke-dashoffset" from="150" to="0" dur="1.8s" begin="8.5s" fill="freeze" /></path><path d="M45.7,45.23c0.53,0.48,0.97,1.99,1.05,2.49c0.49,2.85,2.79,15.04,2.81,19.34" class="stroke" stroke-dasharray="150"><set attributeName="opacity" to="0" dur="9.5s" /><animate attributeName="stroke-dashoffset" from="150" to="0" dur="1.8s" begin="9.5s" fill="freeze" /></path><path d="M48.31,47.02c5.91-0.2,33.42-4.14,34.93-4.14s3.51,0.76,3.01,2.8s-1,7.74-3.94,18.06" class="stroke" stroke-dasharray="150"><set attributeName="opacity" to="0" dur="10.5s" /><animate attributeName="stroke-dashoffset" from="150" to="0" dur="1.8s" begin="10.5s" fill="freeze" /></path><path d="M48.31,55.73c7.8-0.42,15.58-1.38,23.36-2.16c0.84-0.08,1.66-0.17,2.46-0.25" class="stroke" stroke-dasharray="150"><set attributeName="opacity" to="0" dur="11.9s" /><animate attributeName="stroke-dashoffset" from="150" to="0" dur="1.8s" begin="11.9s" fill="freeze" /></path><path d="M50.97,64.76c5.61-0.36,24.04-2.87,30.53-3.11" class="stroke" stroke-dasharray="150"><set attributeName="opacity" to="0" dur="12.9s" /><animate attributeName="stroke-dashoffset" from="150" to="0" dur="1.8s" begin="12.9s" fill="freeze" /></path><path d="M63.46,28.75c0.98,0.39,1.56,1.73,1.76,2.51c0.19,0.77,0.5,26.43,0.3,31.25" class="stroke" stroke-dasharray="150"><set attributeName="opacity" to="0" dur="13.9s" /><animate attributeName="stroke-dashoffset" from="150" to="0" dur="1.8s" begin="13.9s" fill="freeze" /></path><path d="M83.09,27.25c2.69,1.3,6.96,5.36,7.63,7.39" class="stroke" stroke-dasharray="150"><set attributeName="opacity" to="0" dur="14.9s" /><animate attributeName="stroke-dashoffset" from="150" to="0" dur="1.8s" begin="14.9s" fill="freeze" /></path><path d="M36.12,76.73c1.07,0.46,3.03,0.58,4.12,0.46c11.9-1.29,37.83-3.36,50.93-4.06c1.79-0.1,2.86,0.22,3.76,0.45" class="stroke" stroke-dasharray="150"><set attributeName="opacity" to="0" dur="15.8s" /><animate attributeName="stroke-dashoffset" from="150" to="0" dur="1.8s" begin="15.8s" fill="freeze" /></path><path d="M74.66,65.23c0.06,0.28,0.85,1.45,0.85,3.21c0,11.88-0.17,22.81-0.17,25.69c0,7.01-5.09,1.04-6.58,0.15" class="stroke" stroke-dasharray="150"><set attributeName="opacity" to="0" dur="17.2s" /><animate attributeName="stroke-dashoffset" from="150" to="0" dur="1.8s" begin="17.2s" fill="freeze" /></path><path d="M50.21,82.83c2.27,1.15,5.87,4.75,6.44,6.54" class="stroke" stroke-dasharray="150"><set attributeName="opacity" to="0" dur="18.2s" /><animate attributeName="stroke-dashoffset" from="150" to="0" dur="1.8s" begin="18.2s" fill="freeze" /></path><text x="90" y="120" id="reset-kvg-07c3f-Kaisho">⟳</text><text x="70" y="120" id="pause-kvg-07c3f-Kaisho">◼</text><script type="text/javascript"><![CDATA[function RecurringTimer(e,t){var n,r,i=t;this.pause=function(){window.clearTimeout(n);i-=new Date-r};var s=function(){r=new Date;n=window.setTimeout(function(){i=t;s();e()},i)};this.clear=function(){window.clearTimeout(n);i=t;n=window.setTimeout(function(){i=t;s();e()},i)};this.resume=s;this.resume()}function invoketimer(){timer=new RecurringTimer(function(){svg.setCurrentTime(0)},20099.999999999996)}var svg=document.getElementById("kvg-07c3f-Kaisho");var pause=document.getElementById("pause-kvg-07c3f-Kaisho");var reset=document.getElementById("reset-kvg-07c3f-Kaisho");var timer;invoketimer();reset.onclick=function(){svg.setCurrentTime(0);timer.clear();svg.unpauseAnimations();pause.innerHTML = "◼";};pause.onclick=function(){if(svg.animationsPaused()){svg.unpauseAnimations();timer.resume();pause.innerHTML="◼"}else{svg.pauseAnimations();timer.pause();pause.innerHTML="▶"}}]]></script></svg>