<svg id="kvg-07cdf-Kaisho" class="kanjivg" width="106" height="126" xmlns="http://www.w3.org/2000/svg" xmlns:xlink="http://www.w3.org/1999/xlink" xml:space="preserve" version="1.1" baseProfile="full"><defs><style type="text/css"><![CDATA[path.black{fill:none;stroke:black;stroke-width:5;stroke-linecap:round;stroke-linejoin:round;}path.grey{fill:none;stroke:#ddd;stroke-width:5;stroke-linecap:round;stroke-linejoin:round;}path.stroke{fill:none;stroke:black;stroke-width:5;stroke-linecap:round;stroke-linejoin:round;}rect{fill:none;stroke:#555;stroke-width:2;} text{font-size:16px;font-family:Segoe UI Symbol,Cambria Math,DejaVu Sans,Symbola,Quivira,STIX,Code2000;-webkit-touch-callout:none;cursor:pointer;-webkit-user-select:none;-khtml-user-select:none;-moz-user-select:none;-ms-user-select:none;user-select: none;}text:hover{color:#777;}#reset{font-weight:bold;}]]></style><marker id="markerStart" markerWidth="8" markerHeight="8" style="overflow:visible;"><circle cx="0" cy="0" r="1.5" style="stroke:none;fill:red;fill-opacity:0.5;"/></marker><marker id="markerEnd" style="overflow:visible;"><circle cx="0" cy="0" r="0.8" style="stroke:none;fill:blue;fill-opacity:0.5;"><animate attributeName="opacity" from="1" to="0" dur="3s" repeatCount="indefinite" /></circle></marker></defs><rect x="4" y="4" width="100" height="100" /><path d="M16.94,29.14c2.2,2.31,5.51,8.82,6.06,12.41" class="grey" /><path d="M44.26,26.47c0.02,0.32,0.04,0.83-0.04,1.29c-0.44,2.71-2.96,8.65-6.41,12.29" class="grey" /><path d="M13.1,48.77c0.53,0.23,1.94,0.8,3.35,0.68c5.05-0.45,20.05-2.2,25.76-2.92c1.4-0.18,1.76-0.23,2.65,0" class="grey" /><path d="M30.52,13.96c0.88,0.45,1.41,2.03,1.59,2.94s-0.18,69.24-0.18,74.89c0,12.46-5.56,2.09-6.93,0.71" class="grey" /><path d="M32.02,49.46C28.5,60.45,21.25,72.5,12,82.23" class="grey" /><path d="M34.62,55.32c4.58,2.71,7.95,5.83,9.65,10.4" class="grey" /><path d="M47.33,24.52c0.99,0.46,2.8,0.56,3.8,0.46c10.11-0.98,32.39-4.09,42.81-3.45c1.65,0.1,2.65,0.22,3.47,0.45" class="grey" /><path d="M49.01,34.89c0.31,0.59,0.91,1.85,1,2.63c0.29,2.57,3.77,20.94,3.87,21.73" class="grey" /><path d="M50.9,35.99c2.88-0.37,38.48-4.33,41.02-4.2c1.34,0.07,3.07,1.85,2.97,3.84c-0.23,5.04-3.83,19.68-4.43,20.81" class="grey" /><path d="M61.29,14.15c0.63,0.38,1.09,1.68,1.13,2.45c0.98,16.99,2.3,32.47,2.73,39.43" class="grey" /><path d="M78.34,11.75c0.63,0.38,1.17,1.68,1.13,2.44c-1.2,22.76-1.33,25.1-2.19,40.9" class="grey" /><path d="M52.59,46.54c9.13-0.84,18.24-1.92,27.35-2.84c1.05-0.11,4.07-0.21,5.04-0.31" class="grey" /><path d="M55.1,56.79c4.87-0.38,28.41-2.42,34.48-2.75" class="grey" /><path d="M56.77,65.44c0.39,0.73,0.78,1.1,0.78,2.07s-0.26,29.06-0.26,29.54" class="grey" /><path d="M58.19,66.58c2.2-0.08,24.41-2.51,26.42-2.62c1.67-0.09,2.74,1.38,2.61,2.1c-0.26,1.44-1.02,28.85-1.02,29.58" class="grey" /><path d="M58.58,80.17c4.46,0.08,9.04-0.66,13.47-1.06c1.5-0.14,3.01-0.27,4.45-0.4" class="grey" /><path d="M58.44,94.3c6.06-0.42,19.81-1.56,27.35-1.88" class="grey" /><path d="M16.94,29.14c2.2,2.31,5.51,8.82,6.06,12.41" class="stroke" stroke-dasharray="150"><animate attributeName="stroke-dashoffset" from="150" to="0" dur="1.8s" begin="0.0s" fill="freeze" /></path><path d="M44.26,26.47c0.02,0.32,0.04,0.83-0.04,1.29c-0.44,2.71-2.96,8.65-6.41,12.29" class="stroke" stroke-dasharray="150"><set attributeName="opacity" to="0" dur="0.9s" /><animate attributeName="stroke-dashoffset" from="150" to="0" dur="1.8s" begin="0.9s" fill="freeze" /></path><path d="M13.1,48.77c0.53,0.23,1.94,0.8,3.35,0.68c5.05-0.45,20.05-2.2,25.76-2.92c1.4-0.18,1.76-0.23,2.65,0" class="stroke" stroke-dasharray="150"><set attributeName="opacity" to="0" dur="1.8s" /><animate attributeName="stroke-dashoffset" from="150" to="0" dur="1.8s" begin="1.8s" fill="freeze" /></path><path d="M30.52,13.96c0.88,0.45,1.41,2.03,1.59,2.94s-0.18,69.24-0.18,74.89c0,12.46-5.56,2.09-6.93,0.71" class="stroke" stroke-dasharray="150"><set attributeName="opacity" to="0" dur="2.8s" /><animate attributeName="stroke-dashoffset" from="150" to="0" dur="1.8s" begin="2.8s" fill="freeze" /></path><path d="M32.02,49.46C28.5,60.45,21.25,72.5,12,82.23" class="stroke" stroke-dasharray="150"><set attributeName="opacity" to="0" dur="4.6s" /><animate attributeName="stroke-dashoffset" from="150" to="0" dur="1.8s" begin="4.6s" fill="freeze" /></path><path d="M34.62,55.32c4.58,2.71,7.95,5.83,9.65,10.4" class="stroke" stroke-dasharray="150"><set attributeName="opacity" to="0" dur="5.6s" /><animate attributeName="stroke-dashoffset" from="150" to="0" dur="1.8s" begin="5.6s" fill="freeze" /></path><path d="M47.33,24.52c0.99,0.46,2.8,0.56,3.8,0.46c10.11-0.98,32.39-4.09,42.81-3.45c1.65,0.1,2.65,0.22,3.47,0.45" class="stroke" stroke-dasharray="150"><set attributeName="opacity" to="0" dur="6.5s" /><animate attributeName="stroke-dashoffset" from="150" to="0" dur="1.8s" begin="6.5s" fill="freeze" /></path><path d="M49.01,34.89c0.31,0.59,0.91,1.85,1,2.63c0.29,2.57,3.77,20.94,3.87,21.73" class="stroke" stroke-dasharray="150"><set attributeName="opacity" to="0" dur="7.8s" /><animate attributeName="stroke-dashoffset" from="150" to="0" dur="1.8s" begin="7.8s" fill="freeze" /></path><path d="M50.9,35.99c2.88-0.37,38.48-4.33,41.02-4.2c1.34,0.07,3.07,1.85,2.97,3.84c-0.23,5.04-3.83,19.68-4.43,20.81" class="stroke" stroke-dasharray="150"><set attributeName="opacity" to="0" dur="8.8s" /><animate attributeName="stroke-dashoffset" from="150" to="0" dur="1.8s" begin="8.8s" fill="freeze" /></path><path d="M61.29,14.15c0.63,0.38,1.09,1.68,1.13,2.45c0.98,16.99,2.3,32.47,2.73,39.43" class="stroke" stroke-dasharray="150"><set attributeName="opacity" to="0" dur="10.3s" /><animate attributeName="stroke-dashoffset" from="150" to="0" dur="1.8s" begin="10.3s" fill="freeze" /></path><path d="M78.34,11.75c0.63,0.38,1.17,1.68,1.13,2.44c-1.2,22.76-1.33,25.1-2.19,40.9" class="stroke" stroke-dasharray="150"><set attributeName="opacity" to="0" dur="11.4s" /><animate attributeName="stroke-dashoffset" from="150" to="0" dur="1.8s" begin="11.4s" fill="freeze" /></path><path d="M52.59,46.54c9.13-0.84,18.24-1.92,27.35-2.84c1.05-0.11,4.07-0.21,5.04-0.31" class="stroke" stroke-dasharray="150"><set attributeName="opacity" to="0" dur="12.5s" /><animate attributeName="stroke-dashoffset" from="150" to="0" dur="1.8s" begin="12.5s" fill="freeze" /></path><path d="M55.1,56.79c4.87-0.38,28.41-2.42,34.48-2.75" class="stroke" stroke-dasharray="150"><set attributeName="opacity" to="0" dur="13.5s" /><animate attributeName="stroke-dashoffset" from="150" to="0" dur="1.8s" begin="13.5s" fill="freeze" /></path><path d="M56.77,65.44c0.39,0.73,0.78,1.1,0.78,2.07s-0.26,29.06-0.26,29.54" class="stroke" stroke-dasharray="150"><set attributeName="opacity" to="0" dur="14.5s" /><animate attributeName="stroke-dashoffset" from="150" to="0" dur="1.8s" begin="14.5s" fill="freeze" /></path><path d="M58.19,66.58c2.2-0.08,24.41-2.51,26.42-2.62c1.67-0.09,2.74,1.38,2.61,2.1c-0.26,1.44-1.02,28.85-1.02,29.58" class="stroke" stroke-dasharray="150"><set attributeName="opacity" to="0" dur="15.5s" /><animate attributeName="stroke-dashoffset" from="150" to="0" dur="1.8s" begin="15.5s" fill="freeze" /></path><path d="M58.58,80.17c4.46,0.08,9.04-0.66,13.47-1.06c1.5-0.14,3.01-0.27,4.45-0.4" class="stroke" stroke-dasharray="150"><set attributeName="opacity" to="0" dur="16.9s" /><animate attributeName="stroke-dashoffset" from="150" to="0" dur="1.8s" begin="16.9s" fill="freeze" /></path><path d="M58.44,94.3c6.06-0.42,19.81-1.56,27.35-1.88" class="stroke" stroke-dasharray="150"><set attributeName="opacity" to="0" dur="17.799999999999997s" /><animate attributeName="stroke-dashoffset" from="150" to="0" dur="1.8s" begin="17.799999999999997s" fill="freeze" /></path><text x="90" y="120" id="reset-kvg-07cdf-Kaisho">⟳</text><text x="70" y="120" id="pause-kvg-07cdf-Kaisho">◼</text><script type="text/javascript"><![CDATA[function RecurringTimer(e,t){var n,r,i=t;this.pause=function(){window.clearTimeout(n);i-=new Date-r};var s=function(){r=new Date;n=window.setTimeout(function(){i=t;s();e()},i)};this.clear=function(){window.clearTimeout(n);i=t;n=window.setTimeout(function(){i=t;s();e()},i)};this.resume=s;this.resume()}function invoketimer(){timer=new RecurringTimer(function(){svg.setCurrentTime(0)},19799.999999999996)}var svg=document.getElementById("kvg-07cdf-Kaisho");var pause=document.getElementById("pause-kvg-07cdf-Kaisho");var reset=document.getElementById("reset-kvg-07cdf-Kaisho");var timer;invoketimer();reset.onclick=function(){svg.setCurrentTime(0);timer.clear();svg.unpauseAnimations();pause.innerHTML = "◼";};pause.onclick=function(){if(svg.animationsPaused()){svg.unpauseAnimations();timer.resume();pause.innerHTML="◼"}else{svg.pauseAnimations();timer.pause();pause.innerHTML="▶"}}]]></script></svg>