<svg id="kvg-07d71-Kaisho" class="kanjivg" width="106" height="126" xmlns="http://www.w3.org/2000/svg" xmlns:xlink="http://www.w3.org/1999/xlink" xml:space="preserve" version="1.1" baseProfile="full"><defs><style type="text/css"><![CDATA[path.black{fill:none;stroke:black;stroke-width:5;stroke-linecap:round;stroke-linejoin:round;}path.grey{fill:none;stroke:#ddd;stroke-width:5;stroke-linecap:round;stroke-linejoin:round;}path.stroke{fill:none;stroke:black;stroke-width:5;stroke-linecap:round;stroke-linejoin:round;}rect{fill:none;stroke:#555;stroke-width:2;} text{font-size:16px;font-family:Segoe UI Symbol,Cambria Math,DejaVu Sans,Symbola,Quivira,STIX,Code2000;-webkit-touch-callout:none;cursor:pointer;-webkit-user-select:none;-khtml-user-select:none;-moz-user-select:none;-ms-user-select:none;user-select: none;}text:hover{color:#777;}#reset{font-weight:bold;}]]></style><marker id="markerStart" markerWidth="8" markerHeight="8" style="overflow:visible;"><circle cx="0" cy="0" r="1.5" style="stroke:none;fill:red;fill-opacity:0.5;"/></marker><marker id="markerEnd" style="overflow:visible;"><circle cx="0" cy="0" r="0.8" style="stroke:none;fill:blue;fill-opacity:0.5;"><animate attributeName="opacity" from="1" to="0" dur="3s" repeatCount="indefinite" /></circle></marker></defs><rect x="4" y="4" width="100" height="100" /><path d="M26.37,16.75c0.32,1.42,0.4,2.5-0.16,4.02c-2.84,7.66-6.21,13.2-9.65,19.61c-0.46,0.86-0.64,3.28,0,3.55c3.38,1.42,8.12,3.78,11.02,6.38" class="grey" /><path d="M38.43,29.53c0.3,0.64,0.39,2.75,0,3.43C32.7,43.02,24.15,57.03,16.28,66.21c-1.81,2.1,0.45,3.31,1.62,2.88c4.93-1.79,15.15-4.99,21.48-6.7" class="grey" /><path d="M35.29,54.11c2.56,2.58,6.61,10.59,7.25,14.59" class="grey" /><path d="M11.46,82.14c3.89,3.22,6.87,10.7,7.77,13.61" class="grey" /><path d="M22.6,77.98c4.4,2.79,7.78,9.27,8.81,11.8" class="grey" /><path d="M33.74,73.04c4.27,2.24,7.55,7.43,8.55,9.46" class="grey" /><path d="M63.33,15.24c2.42,1.01,5.17,3.76,6.34,7.29" class="grey" /><path d="M46.1,28.71c0.86,0.06,2.81,0.42,3.64,0.33c6.72-0.69,30.65-3.25,40.23-3.72c1.41-0.07,2.13,0.03,3.18,0.42" class="grey" /><path d="M65.59,30.04c0.45,0.45,0.51,1.82,0.15,2.34c-3.85,5.51-8.17,12.15-12.49,15.65c-1.97,1.6-1.93,3.42,0.9,2.93c6.89-1.2,18.43-3.9,28.01-5.92" class="grey" /><path d="M76.14,38.31c3.54,2.37,9.15,9.74,10.04,13.43" class="grey" /><path d="M61.87,56.97c0.05,0.86,0.1,2.24-0.09,3.48c-1.18,7.33-7.37,24.82-17.15,33.27" class="grey" /><path d="M72.64,53.67c0.45,1.28,0.81,2.79,0.84,4.76c0.12,8.8-0.32,17.35-0.32,23.33c0,12.24,5.42,12.4,10.76,12.4c5.63,0,9.34-1.81,10.13-2.82c1.67-2.15,1.22-3.23,1.37-6.99" class="grey" /><path d="M26.37,16.75c0.32,1.42,0.4,2.5-0.16,4.02c-2.84,7.66-6.21,13.2-9.65,19.61c-0.46,0.86-0.64,3.28,0,3.55c3.38,1.42,8.12,3.78,11.02,6.38" class="stroke" stroke-dasharray="150"><animate attributeName="stroke-dashoffset" from="150" to="0" dur="1.8s" begin="0.0s" fill="freeze" /></path><path d="M38.43,29.53c0.3,0.64,0.39,2.75,0,3.43C32.7,43.02,24.15,57.03,16.28,66.21c-1.81,2.1,0.45,3.31,1.62,2.88c4.93-1.79,15.15-4.99,21.48-6.7" class="stroke" stroke-dasharray="150"><set attributeName="opacity" to="0" dur="1.1s" /><animate attributeName="stroke-dashoffset" from="150" to="0" dur="1.8s" begin="1.1s" fill="freeze" /></path><path d="M35.29,54.11c2.56,2.58,6.61,10.59,7.25,14.59" class="stroke" stroke-dasharray="150"><set attributeName="opacity" to="0" dur="2.8s" /><animate attributeName="stroke-dashoffset" from="150" to="0" dur="1.8s" begin="2.8s" fill="freeze" /></path><path d="M11.46,82.14c3.89,3.22,6.87,10.7,7.77,13.61" class="stroke" stroke-dasharray="150"><set attributeName="opacity" to="0" dur="3.6999999999999997s" /><animate attributeName="stroke-dashoffset" from="150" to="0" dur="1.8s" begin="3.6999999999999997s" fill="freeze" /></path><path d="M22.6,77.98c4.4,2.79,7.78,9.27,8.81,11.8" class="stroke" stroke-dasharray="150"><set attributeName="opacity" to="0" dur="4.6s" /><animate attributeName="stroke-dashoffset" from="150" to="0" dur="1.8s" begin="4.6s" fill="freeze" /></path><path d="M33.74,73.04c4.27,2.24,7.55,7.43,8.55,9.46" class="stroke" stroke-dasharray="150"><set attributeName="opacity" to="0" dur="5.5s" /><animate attributeName="stroke-dashoffset" from="150" to="0" dur="1.8s" begin="5.5s" fill="freeze" /></path><path d="M63.33,15.24c2.42,1.01,5.17,3.76,6.34,7.29" class="stroke" stroke-dasharray="150"><set attributeName="opacity" to="0" dur="6.4s" /><animate attributeName="stroke-dashoffset" from="150" to="0" dur="1.8s" begin="6.4s" fill="freeze" /></path><path d="M46.1,28.71c0.86,0.06,2.81,0.42,3.64,0.33c6.72-0.69,30.65-3.25,40.23-3.72c1.41-0.07,2.13,0.03,3.18,0.42" class="stroke" stroke-dasharray="150"><set attributeName="opacity" to="0" dur="7.300000000000001s" /><animate attributeName="stroke-dashoffset" from="150" to="0" dur="1.8s" begin="7.300000000000001s" fill="freeze" /></path><path d="M65.59,30.04c0.45,0.45,0.51,1.82,0.15,2.34c-3.85,5.51-8.17,12.15-12.49,15.65c-1.97,1.6-1.93,3.42,0.9,2.93c6.89-1.2,18.43-3.9,28.01-5.92" class="stroke" stroke-dasharray="150"><set attributeName="opacity" to="0" dur="8.5s" /><animate attributeName="stroke-dashoffset" from="150" to="0" dur="1.8s" begin="8.5s" fill="freeze" /></path><path d="M76.14,38.31c3.54,2.37,9.15,9.74,10.04,13.43" class="stroke" stroke-dasharray="150"><set attributeName="opacity" to="0" dur="9.9s" /><animate attributeName="stroke-dashoffset" from="150" to="0" dur="1.8s" begin="9.9s" fill="freeze" /></path><path d="M61.87,56.97c0.05,0.86,0.1,2.24-0.09,3.48c-1.18,7.33-7.37,24.82-17.15,33.27" class="stroke" stroke-dasharray="150"><set attributeName="opacity" to="0" dur="10.8s" /><animate attributeName="stroke-dashoffset" from="150" to="0" dur="1.8s" begin="10.8s" fill="freeze" /></path><path d="M72.64,53.67c0.45,1.28,0.81,2.79,0.84,4.76c0.12,8.8-0.32,17.35-0.32,23.33c0,12.24,5.42,12.4,10.76,12.4c5.63,0,9.34-1.81,10.13-2.82c1.67-2.15,1.22-3.23,1.37-6.99" class="stroke" stroke-dasharray="150"><set attributeName="opacity" to="0" dur="11.9s" /><animate attributeName="stroke-dashoffset" from="150" to="0" dur="1.8s" begin="11.9s" fill="freeze" /></path><text x="90" y="120" id="reset-kvg-07d71-Kaisho">⟳</text><text x="70" y="120" id="pause-kvg-07d71-Kaisho">◼</text><script type="text/javascript"><![CDATA[function RecurringTimer(e,t){var n,r,i=t;this.pause=function(){window.clearTimeout(n);i-=new Date-r};var s=function(){r=new Date;n=window.setTimeout(function(){i=t;s();e()},i)};this.clear=function(){window.clearTimeout(n);i=t;n=window.setTimeout(function(){i=t;s();e()},i)};this.resume=s;this.resume()}function invoketimer(){timer=new RecurringTimer(function(){svg.setCurrentTime(0)},14400.0)}var svg=document.getElementById("kvg-07d71-Kaisho");var pause=document.getElementById("pause-kvg-07d71-Kaisho");var reset=document.getElementById("reset-kvg-07d71-Kaisho");var timer;invoketimer();reset.onclick=function(){svg.setCurrentTime(0);timer.clear();svg.unpauseAnimations();pause.innerHTML = "◼";};pause.onclick=function(){if(svg.animationsPaused()){svg.unpauseAnimations();timer.resume();pause.innerHTML="◼"}else{svg.pauseAnimations();timer.pause();pause.innerHTML="▶"}}]]></script></svg>