<svg id="kvg-07da2-Kaisho" class="kanjivg" width="106" height="126" xmlns="http://www.w3.org/2000/svg" xmlns:xlink="http://www.w3.org/1999/xlink" xml:space="preserve" version="1.1" baseProfile="full"><defs><style type="text/css"><![CDATA[path.black{fill:none;stroke:black;stroke-width:5;stroke-linecap:round;stroke-linejoin:round;}path.grey{fill:none;stroke:#ddd;stroke-width:5;stroke-linecap:round;stroke-linejoin:round;}path.stroke{fill:none;stroke:black;stroke-width:5;stroke-linecap:round;stroke-linejoin:round;}rect{fill:none;stroke:#555;stroke-width:2;} text{font-size:16px;font-family:Segoe UI Symbol,Cambria Math,DejaVu Sans,Symbola,Quivira,STIX,Code2000;-webkit-touch-callout:none;cursor:pointer;-webkit-user-select:none;-khtml-user-select:none;-moz-user-select:none;-ms-user-select:none;user-select: none;}text:hover{color:#777;}#reset{font-weight:bold;}]]></style><marker id="markerStart" markerWidth="8" markerHeight="8" style="overflow:visible;"><circle cx="0" cy="0" r="1.5" style="stroke:none;fill:red;fill-opacity:0.5;"/></marker><marker id="markerEnd" style="overflow:visible;"><circle cx="0" cy="0" r="0.8" style="stroke:none;fill:blue;fill-opacity:0.5;"><animate attributeName="opacity" from="1" to="0" dur="3s" repeatCount="indefinite" /></circle></marker></defs><rect x="4" y="4" width="100" height="100" /><path d="M27.12,12.5c0.32,1.41,0.4,2.49-0.16,4c-2.84,7.63-6.21,13.16-9.65,19.55c-0.46,0.86-0.64,3.27,0,3.54c3.38,1.41,8.12,3.77,11.02,6.36" class="grey" /><path d="M39.18,25.24c0.3,0.64,0.39,2.74,0,3.42c-5.73,10.03-14.28,24-22.16,33.15c-1.81,2.1,0.45,3.3,1.62,2.87c4.93-1.79,15.15-4.97,21.48-6.68" class="grey" /><path d="M36.04,49.74c2.56,2.57,6.61,10.55,7.25,14.55" class="grey" /><path d="M12.21,77.68c3.89,3.21,6.87,10.66,7.77,13.57" class="grey" /><path d="M23.35,73.53c4.4,2.78,7.78,9.24,8.81,11.76" class="grey" /><path d="M34.49,68.61c4.27,2.23,7.55,7.41,8.55,9.43" class="grey" /><path d="M50.58,17.07c0.45,1.23,1.06,3.16,1.06,5.4c0,3.45,0.01,6.66,0.01,22.95c0,18.22-0.33,41.72-8.64,49.83" class="grey" /><path d="M51.49,19.46c5.92-0.94,37.99-3.71,39.18-3.71c2.2,0,3.43,2.25,3.43,4.48c0,2.36,0.16,64.27,0.16,69.69c0,8.48-3.12,7.08-8.09,1.34" class="grey" /><path d="M58.98,34.47c0.94,0.37,2.66,0.26,3.6,0.22c5.08-0.19,16.12-2.27,19.88-2.44c1.57-0.07,2.51,0.06,3.29,0.23" class="grey" /><path d="M57.56,47.65c0.98,0.19,2.78,0.19,3.76,0.1c5.36-0.5,16.26-2.25,22.66-2.4c1.63-0.04,2.61,0.02,3.43,0.1" class="grey" /><path d="M71.26,23.39c0.61,0.33,0.97,1.61,1.09,2.34c0.12,0.74,0.01,25.14-0.11,29.8" class="grey" /><path d="M59.92,60.93c0.2,0.36,0.4,0.66,0.49,1.11c0.69,3.55,2.02,12.34,2.49,18.72" class="grey" /><path d="M60.7,62.69c5.79-1.19,17.92-2.34,20.9-2.52c1.09-0.06,2.66,1.88,2.47,2.86c-0.81,4.07-2.03,8.54-3.65,14.36" class="grey" /><path d="M63.59,78.91c6.66-0.16,14.9-1.3,18.83-1.41" class="grey" /><path d="M27.12,12.5c0.32,1.41,0.4,2.49-0.16,4c-2.84,7.63-6.21,13.16-9.65,19.55c-0.46,0.86-0.64,3.27,0,3.54c3.38,1.41,8.12,3.77,11.02,6.36" class="stroke" stroke-dasharray="150"><animate attributeName="stroke-dashoffset" from="150" to="0" dur="1.8s" begin="0.0s" fill="freeze" /></path><path d="M39.18,25.24c0.3,0.64,0.39,2.74,0,3.42c-5.73,10.03-14.28,24-22.16,33.15c-1.81,2.1,0.45,3.3,1.62,2.87c4.93-1.79,15.15-4.97,21.48-6.68" class="stroke" stroke-dasharray="150"><set attributeName="opacity" to="0" dur="1.1s" /><animate attributeName="stroke-dashoffset" from="150" to="0" dur="1.8s" begin="1.1s" fill="freeze" /></path><path d="M36.04,49.74c2.56,2.57,6.61,10.55,7.25,14.55" class="stroke" stroke-dasharray="150"><set attributeName="opacity" to="0" dur="2.8s" /><animate attributeName="stroke-dashoffset" from="150" to="0" dur="1.8s" begin="2.8s" fill="freeze" /></path><path d="M12.21,77.68c3.89,3.21,6.87,10.66,7.77,13.57" class="stroke" stroke-dasharray="150"><set attributeName="opacity" to="0" dur="3.6999999999999997s" /><animate attributeName="stroke-dashoffset" from="150" to="0" dur="1.8s" begin="3.6999999999999997s" fill="freeze" /></path><path d="M23.35,73.53c4.4,2.78,7.78,9.24,8.81,11.76" class="stroke" stroke-dasharray="150"><set attributeName="opacity" to="0" dur="4.6s" /><animate attributeName="stroke-dashoffset" from="150" to="0" dur="1.8s" begin="4.6s" fill="freeze" /></path><path d="M34.49,68.61c4.27,2.23,7.55,7.41,8.55,9.43" class="stroke" stroke-dasharray="150"><set attributeName="opacity" to="0" dur="5.5s" /><animate attributeName="stroke-dashoffset" from="150" to="0" dur="1.8s" begin="5.5s" fill="freeze" /></path><path d="M50.58,17.07c0.45,1.23,1.06,3.16,1.06,5.4c0,3.45,0.01,6.66,0.01,22.95c0,18.22-0.33,41.72-8.64,49.83" class="stroke" stroke-dasharray="150"><set attributeName="opacity" to="0" dur="6.4s" /><animate attributeName="stroke-dashoffset" from="150" to="0" dur="1.8s" begin="6.4s" fill="freeze" /></path><path d="M51.49,19.46c5.92-0.94,37.99-3.71,39.18-3.71c2.2,0,3.43,2.25,3.43,4.48c0,2.36,0.16,64.27,0.16,69.69c0,8.48-3.12,7.08-8.09,1.34" class="stroke" stroke-dasharray="150"><set attributeName="opacity" to="0" dur="8.1s" /><animate attributeName="stroke-dashoffset" from="150" to="0" dur="1.8s" begin="8.1s" fill="freeze" /></path><path d="M58.98,34.47c0.94,0.37,2.66,0.26,3.6,0.22c5.08-0.19,16.12-2.27,19.88-2.44c1.57-0.07,2.51,0.06,3.29,0.23" class="stroke" stroke-dasharray="150"><set attributeName="opacity" to="0" dur="10.1s" /><animate attributeName="stroke-dashoffset" from="150" to="0" dur="1.8s" begin="10.1s" fill="freeze" /></path><path d="M57.56,47.65c0.98,0.19,2.78,0.19,3.76,0.1c5.36-0.5,16.26-2.25,22.66-2.4c1.63-0.04,2.61,0.02,3.43,0.1" class="stroke" stroke-dasharray="150"><set attributeName="opacity" to="0" dur="11.1s" /><animate attributeName="stroke-dashoffset" from="150" to="0" dur="1.8s" begin="11.1s" fill="freeze" /></path><path d="M71.26,23.39c0.61,0.33,0.97,1.61,1.09,2.34c0.12,0.74,0.01,25.14-0.11,29.8" class="stroke" stroke-dasharray="150"><set attributeName="opacity" to="0" dur="12.1s" /><animate attributeName="stroke-dashoffset" from="150" to="0" dur="1.8s" begin="12.1s" fill="freeze" /></path><path d="M59.92,60.93c0.2,0.36,0.4,0.66,0.49,1.11c0.69,3.55,2.02,12.34,2.49,18.72" class="stroke" stroke-dasharray="150"><set attributeName="opacity" to="0" dur="13.1s" /><animate attributeName="stroke-dashoffset" from="150" to="0" dur="1.8s" begin="13.1s" fill="freeze" /></path><path d="M60.7,62.69c5.79-1.19,17.92-2.34,20.9-2.52c1.09-0.06,2.66,1.88,2.47,2.86c-0.81,4.07-2.03,8.54-3.65,14.36" class="stroke" stroke-dasharray="150"><set attributeName="opacity" to="0" dur="14.1s" /><animate attributeName="stroke-dashoffset" from="150" to="0" dur="1.8s" begin="14.1s" fill="freeze" /></path><path d="M63.59,78.91c6.66-0.16,14.9-1.3,18.83-1.41" class="stroke" stroke-dasharray="150"><set attributeName="opacity" to="0" dur="15.1s" /><animate attributeName="stroke-dashoffset" from="150" to="0" dur="1.8s" begin="15.1s" fill="freeze" /></path><text x="90" y="120" id="reset-kvg-07da2-Kaisho">⟳</text><text x="70" y="120" id="pause-kvg-07da2-Kaisho">◼</text><script type="text/javascript"><![CDATA[function RecurringTimer(e,t){var n,r,i=t;this.pause=function(){window.clearTimeout(n);i-=new Date-r};var s=function(){r=new Date;n=window.setTimeout(function(){i=t;s();e()},i)};this.clear=function(){window.clearTimeout(n);i=t;n=window.setTimeout(function(){i=t;s();e()},i)};this.resume=s;this.resume()}function invoketimer(){timer=new RecurringTimer(function(){svg.setCurrentTime(0)},17000.0)}var svg=document.getElementById("kvg-07da2-Kaisho");var pause=document.getElementById("pause-kvg-07da2-Kaisho");var reset=document.getElementById("reset-kvg-07da2-Kaisho");var timer;invoketimer();reset.onclick=function(){svg.setCurrentTime(0);timer.clear();svg.unpauseAnimations();pause.innerHTML = "◼";};pause.onclick=function(){if(svg.animationsPaused()){svg.unpauseAnimations();timer.resume();pause.innerHTML="◼"}else{svg.pauseAnimations();timer.pause();pause.innerHTML="▶"}}]]></script></svg>