<svg id="kvg-07def-Kaisho" class="kanjivg" width="106" height="126" xmlns="http://www.w3.org/2000/svg" xmlns:xlink="http://www.w3.org/1999/xlink" xml:space="preserve" version="1.1" baseProfile="full"><defs><style type="text/css"><![CDATA[path.black{fill:none;stroke:black;stroke-width:5;stroke-linecap:round;stroke-linejoin:round;}path.grey{fill:none;stroke:#ddd;stroke-width:5;stroke-linecap:round;stroke-linejoin:round;}path.stroke{fill:none;stroke:black;stroke-width:5;stroke-linecap:round;stroke-linejoin:round;}rect{fill:none;stroke:#555;stroke-width:2;} text{font-size:16px;font-family:Segoe UI Symbol,Cambria Math,DejaVu Sans,Symbola,Quivira,STIX,Code2000;-webkit-touch-callout:none;cursor:pointer;-webkit-user-select:none;-khtml-user-select:none;-moz-user-select:none;-ms-user-select:none;user-select: none;}text:hover{color:#777;}#reset{font-weight:bold;}]]></style><marker id="markerStart" markerWidth="8" markerHeight="8" style="overflow:visible;"><circle cx="0" cy="0" r="1.5" style="stroke:none;fill:red;fill-opacity:0.5;"/></marker><marker id="markerEnd" style="overflow:visible;"><circle cx="0" cy="0" r="0.8" style="stroke:none;fill:blue;fill-opacity:0.5;"><animate attributeName="opacity" from="1" to="0" dur="3s" repeatCount="indefinite" /></circle></marker></defs><rect x="4" y="4" width="100" height="100" /><path d="M65.94,11.77c0.4,0.38,1.06,1.69,0.91,2.56c-1.45,8.32-2.09,9.92-3.38,18.32" class="grey" /><path d="M53.58,22.03c0.73,0.62,1.74,0.86,2.34,0.78c9.65-1.29,24.94-3.47,25.81-3.5c1.46-0.05,2.24,1.38,2.05,2.44c-0.73,4.12-1.52,6.25-2.11,8.85" class="grey" /><path d="M47.69,35.22c0.75,0.26,2.61,0.32,3.34,0.16c3.02-0.65,27.04-2.71,41.4-3.93c1.24-0.1,2.47,0.05,3.09,0.16" class="grey" /><path d="M54.73,41.76c0.24,0.4,0.48,0.73,0.58,1.24c0.81,4.02,1.42,6.88,2.16,14.04" class="grey" /><path d="M55.56,43.05c7.4-0.93,22.83-2.8,25.93-3.09c2.26-0.21,2.94,1.27,2.62,2.47c-0.59,2.21-1.94,7.72-2.4,10.44" class="grey" /><path d="M58.19,55.43C63,54.81,77,53.5,84.02,53.07" class="grey" /><path d="M53.36,66.13c0.61,0.27,2.84,0.33,3.44,0.32c5.97-0.08,21.45-2.34,32.08-2.97c1.01-0.06,1.62,0.15,2.12,0.29" class="grey" /><path d="M56.84,68.28c0,4.15-0.19,8.82-0.19,12.57" class="grey" /><path d="M49.12,81.2c0.98,0.39,2.78,0.49,3.76,0.44C64.25,81,78.25,79.5,93.63,78.61c1.63-0.09,2.62,0.22,3.43,0.43" class="grey" /><path d="M73.15,56.39c0.38,0.4,1.19,3.04,1.27,3.86c0.08,0.82-0.05,32.46-0.13,37.6" class="grey" /><path d="M28.87,14.75c0.32,1.42,0.4,2.5-0.16,4.02c-2.84,7.66-6.21,13.2-9.65,19.61c-0.46,0.86-0.64,3.28,0,3.55c3.38,1.42,8.12,3.78,11.02,6.38" class="grey" /><path d="M40.93,27.53c0.3,0.64,0.39,2.75,0,3.43C35.2,41.02,26.65,55.03,18.78,64.21c-1.81,2.1,0.45,3.31,1.62,2.88c4.93-1.79,15.15-4.99,21.48-6.7" class="grey" /><path d="M37.79,52.11c2.56,2.58,6.61,10.59,7.25,14.59" class="grey" /><path d="M13.96,80.14c3.89,3.22,6.87,10.7,7.77,13.61" class="grey" /><path d="M25.1,75.98c4.4,2.79,7.78,9.27,8.81,11.8" class="grey" /><path d="M36.24,71.04c4.27,2.24,7.55,7.43,8.55,9.46" class="grey" /><path d="M65.94,11.77c0.4,0.38,1.06,1.69,0.91,2.56c-1.45,8.32-2.09,9.92-3.38,18.32" class="stroke" stroke-dasharray="150"><animate attributeName="stroke-dashoffset" from="150" to="0" dur="1.8s" begin="0.0s" fill="freeze" /></path><path d="M53.58,22.03c0.73,0.62,1.74,0.86,2.34,0.78c9.65-1.29,24.94-3.47,25.81-3.5c1.46-0.05,2.24,1.38,2.05,2.44c-0.73,4.12-1.52,6.25-2.11,8.85" class="stroke" stroke-dasharray="150"><set attributeName="opacity" to="0" dur="1.0s" /><animate attributeName="stroke-dashoffset" from="150" to="0" dur="1.8s" begin="1.0s" fill="freeze" /></path><path d="M47.69,35.22c0.75,0.26,2.61,0.32,3.34,0.16c3.02-0.65,27.04-2.71,41.4-3.93c1.24-0.1,2.47,0.05,3.09,0.16" class="stroke" stroke-dasharray="150"><set attributeName="opacity" to="0" dur="2.1s" /><animate attributeName="stroke-dashoffset" from="150" to="0" dur="1.8s" begin="2.1s" fill="freeze" /></path><path d="M54.73,41.76c0.24,0.4,0.48,0.73,0.58,1.24c0.81,4.02,1.42,6.88,2.16,14.04" class="stroke" stroke-dasharray="150"><set attributeName="opacity" to="0" dur="3.3s" /><animate attributeName="stroke-dashoffset" from="150" to="0" dur="1.8s" begin="3.3s" fill="freeze" /></path><path d="M55.56,43.05c7.4-0.93,22.83-2.8,25.93-3.09c2.26-0.21,2.94,1.27,2.62,2.47c-0.59,2.21-1.94,7.72-2.4,10.44" class="stroke" stroke-dasharray="150"><set attributeName="opacity" to="0" dur="4.2s" /><animate attributeName="stroke-dashoffset" from="150" to="0" dur="1.8s" begin="4.2s" fill="freeze" /></path><path d="M58.19,55.43C63,54.81,77,53.5,84.02,53.07" class="stroke" stroke-dasharray="150"><set attributeName="opacity" to="0" dur="5.300000000000001s" /><animate attributeName="stroke-dashoffset" from="150" to="0" dur="1.8s" begin="5.300000000000001s" fill="freeze" /></path><path d="M53.36,66.13c0.61,0.27,2.84,0.33,3.44,0.32c5.97-0.08,21.45-2.34,32.08-2.97c1.01-0.06,1.62,0.15,2.12,0.29" class="stroke" stroke-dasharray="150"><set attributeName="opacity" to="0" dur="6.300000000000001s" /><animate attributeName="stroke-dashoffset" from="150" to="0" dur="1.8s" begin="6.300000000000001s" fill="freeze" /></path><path d="M56.84,68.28c0,4.15-0.19,8.82-0.19,12.57" class="stroke" stroke-dasharray="150"><set attributeName="opacity" to="0" dur="7.300000000000001s" /><animate attributeName="stroke-dashoffset" from="150" to="0" dur="1.8s" begin="7.300000000000001s" fill="freeze" /></path><path d="M49.12,81.2c0.98,0.39,2.78,0.49,3.76,0.44C64.25,81,78.25,79.5,93.63,78.61c1.63-0.09,2.62,0.22,3.43,0.43" class="stroke" stroke-dasharray="150"><set attributeName="opacity" to="0" dur="8.200000000000001s" /><animate attributeName="stroke-dashoffset" from="150" to="0" dur="1.8s" begin="8.200000000000001s" fill="freeze" /></path><path d="M73.15,56.39c0.38,0.4,1.19,3.04,1.27,3.86c0.08,0.82-0.05,32.46-0.13,37.6" class="stroke" stroke-dasharray="150"><set attributeName="opacity" to="0" dur="9.4s" /><animate attributeName="stroke-dashoffset" from="150" to="0" dur="1.8s" begin="9.4s" fill="freeze" /></path><path d="M28.87,14.75c0.32,1.42,0.4,2.5-0.16,4.02c-2.84,7.66-6.21,13.2-9.65,19.61c-0.46,0.86-0.64,3.28,0,3.55c3.38,1.42,8.12,3.78,11.02,6.38" class="stroke" stroke-dasharray="150"><set attributeName="opacity" to="0" dur="10.5s" /><animate attributeName="stroke-dashoffset" from="150" to="0" dur="1.8s" begin="10.5s" fill="freeze" /></path><path d="M40.93,27.53c0.3,0.64,0.39,2.75,0,3.43C35.2,41.02,26.65,55.03,18.78,64.21c-1.81,2.1,0.45,3.31,1.62,2.88c4.93-1.79,15.15-4.99,21.48-6.7" class="stroke" stroke-dasharray="150"><set attributeName="opacity" to="0" dur="11.6s" /><animate attributeName="stroke-dashoffset" from="150" to="0" dur="1.8s" begin="11.6s" fill="freeze" /></path><path d="M37.79,52.11c2.56,2.58,6.61,10.59,7.25,14.59" class="stroke" stroke-dasharray="150"><set attributeName="opacity" to="0" dur="13.299999999999999s" /><animate attributeName="stroke-dashoffset" from="150" to="0" dur="1.8s" begin="13.299999999999999s" fill="freeze" /></path><path d="M13.96,80.14c3.89,3.22,6.87,10.7,7.77,13.61" class="stroke" stroke-dasharray="150"><set attributeName="opacity" to="0" dur="14.2s" /><animate attributeName="stroke-dashoffset" from="150" to="0" dur="1.8s" begin="14.2s" fill="freeze" /></path><path d="M25.1,75.98c4.4,2.79,7.78,9.27,8.81,11.8" class="stroke" stroke-dasharray="150"><set attributeName="opacity" to="0" dur="15.1s" /><animate attributeName="stroke-dashoffset" from="150" to="0" dur="1.8s" begin="15.1s" fill="freeze" /></path><path d="M36.24,71.04c4.27,2.24,7.55,7.43,8.55,9.46" class="stroke" stroke-dasharray="150"><set attributeName="opacity" to="0" dur="16.0s" /><animate attributeName="stroke-dashoffset" from="150" to="0" dur="1.8s" begin="16.0s" fill="freeze" /></path><text x="90" y="120" id="reset-kvg-07def-Kaisho">⟳</text><text x="70" y="120" id="pause-kvg-07def-Kaisho">◼</text><script type="text/javascript"><![CDATA[function RecurringTimer(e,t){var n,r,i=t;this.pause=function(){window.clearTimeout(n);i-=new Date-r};var s=function(){r=new Date;n=window.setTimeout(function(){i=t;s();e()},i)};this.clear=function(){window.clearTimeout(n);i=t;n=window.setTimeout(function(){i=t;s();e()},i)};this.resume=s;this.resume()}function invoketimer(){timer=new RecurringTimer(function(){svg.setCurrentTime(0)},17900.0)}var svg=document.getElementById("kvg-07def-Kaisho");var pause=document.getElementById("pause-kvg-07def-Kaisho");var reset=document.getElementById("reset-kvg-07def-Kaisho");var timer;invoketimer();reset.onclick=function(){svg.setCurrentTime(0);timer.clear();svg.unpauseAnimations();pause.innerHTML = "◼";};pause.onclick=function(){if(svg.animationsPaused()){svg.unpauseAnimations();timer.resume();pause.innerHTML="◼"}else{svg.pauseAnimations();timer.pause();pause.innerHTML="▶"}}]]></script></svg>