<svg id="kvg-07e69" class="kanjivg" width="106" height="126" xmlns="http://www.w3.org/2000/svg" xmlns:xlink="http://www.w3.org/1999/xlink" xml:space="preserve" version="1.1" baseProfile="full"><defs><style type="text/css"><![CDATA[path.black{fill:none;stroke:black;stroke-width:5;stroke-linecap:round;stroke-linejoin:round;}path.grey{fill:none;stroke:#ddd;stroke-width:5;stroke-linecap:round;stroke-linejoin:round;}path.stroke{fill:none;stroke:black;stroke-width:5;stroke-linecap:round;stroke-linejoin:round;}rect{fill:none;stroke:#555;stroke-width:2;} text{font-size:16px;font-family:Segoe UI Symbol,Cambria Math,DejaVu Sans,Symbola,Quivira,STIX,Code2000;-webkit-touch-callout:none;cursor:pointer;-webkit-user-select:none;-khtml-user-select:none;-moz-user-select:none;-ms-user-select:none;user-select: none;}text:hover{color:#777;}#reset{font-weight:bold;}]]></style><marker id="markerStart" markerWidth="8" markerHeight="8" style="overflow:visible;"><circle cx="0" cy="0" r="1.5" style="stroke:none;fill:red;fill-opacity:0.5;"/></marker><marker id="markerEnd" style="overflow:visible;"><circle cx="0" cy="0" r="0.8" style="stroke:none;fill:blue;fill-opacity:0.5;"><animate attributeName="opacity" from="1" to="0" dur="3s" repeatCount="indefinite" /></circle></marker></defs><rect x="4" y="4" width="100" height="100" /><path d="M28.4,13.42c0.36,1.23,0.38,2.15-0.18,3.5c-2.46,5.93-8.96,13.75-13.78,18.49c-0.67,0.66-0.72,2.85,0,3.08c3.81,1.23,9.64,2.86,12.91,5.12" class="grey" /><path d="M38.32,26.18c0.3,0.53,0.37,2.27,0,2.85c-5.75,8.99-15.34,20.99-23.25,28.63c-1.81,1.75,0.45,2.75,1.63,2.4c4.95-1.49,14.69-3.13,21.05-4.56" class="grey" /><path d="M33.38,46.88c2.69,2.63,6.95,10.79,7.62,14.87" class="grey" /><path d="M26.39,60.62c0.07,0.36,0.91,1.85,0.98,4.09c0.31,10.79-0.2,28.79-0.2,32.46" class="grey" /><path d="M17.61,70.35c0.15,0.85,0.12,2.53-0.15,3.13c-1.77,3.97-6.2,11.62-8.71,15.02" class="grey" /><path d="M35.18,69.04c2.16,3.6,3.82,11.95,4.32,15.21" class="grey" /><path d="M45.95,18.33c0.7,0.8,0.8,1.32,1.11,2.36c1.04,3.57,2.36,11.22,3.37,15.92" class="grey" /><path d="M47.56,20.18c7.94-0.93,37.19-3.68,42.27-3.78c1.7-0.03,3.13,1.12,2.9,2.6c-0.96,6.02-1.98,10-3.23,14.25" class="grey" /><path d="M50.01,33.9c1.96,0,12.14-0.76,13.74-0.76" class="grey" /><path d="M76,32.84c2.86-0.61,11.29-1.54,13-1.54" class="grey" /><path d="M74.85,18c0.41,0.48,0.15,3.67,0.23,4.64c0.08,0.96,0,59.09-0.08,65.11" class="grey" /><path d="M63.85,19.12c0,1.88,0.01,2.67,0.01,4.56c0,12.83-0.02,52.68-0.02,58.41c0,11.91,2.14,14.43,17.75,14.43c14.66,0,17.05-2.33,17.05-11.96" class="grey" /><path d="M56.95,43.38c0.02,0.15,0.08,0.44-0.04,0.61c-1.46,2.13-3.61,4.09-7.41,5.81" class="grey" /><path d="M46.97,50c0.53,1,0.83,2.15,0.88,3.1c0.13,2.86-0.34,23.65-0.34,32.9" class="grey" /><path d="M48.75,64.93c1.7,0,12.68-1.11,14.07-1.11" class="grey" /><path d="M48.15,82.85c1.98,0,13.84-1.45,15.46-1.45" class="grey" /><path d="M75.28,47.29c6.22-1.04,10.74-1.15,14.94-2.15c1.54-0.37,2.35,0.93,2.25,2.23c-0.54,6.99-0.6,27.62-1.23,34.63" class="grey" /><path d="M75.45,62.72c2.05,0,14.55-1.19,16.23-1.19" class="grey" /><path d="M75.15,80.6c2.21,0,13.69-0.96,15.5-0.96" class="grey" /><path d="M28.4,13.42c0.36,1.23,0.38,2.15-0.18,3.5c-2.46,5.93-8.96,13.75-13.78,18.49c-0.67,0.66-0.72,2.85,0,3.08c3.81,1.23,9.64,2.86,12.91,5.12" class="stroke" stroke-dasharray="150"><animate attributeName="stroke-dashoffset" from="150" to="0" dur="1.8s" begin="0.0s" fill="freeze" /></path><path d="M38.32,26.18c0.3,0.53,0.37,2.27,0,2.85c-5.75,8.99-15.34,20.99-23.25,28.63c-1.81,1.75,0.45,2.75,1.63,2.4c4.95-1.49,14.69-3.13,21.05-4.56" class="stroke" stroke-dasharray="150"><set attributeName="opacity" to="0" dur="1.1s" /><animate attributeName="stroke-dashoffset" from="150" to="0" dur="1.8s" begin="1.1s" fill="freeze" /></path><path d="M33.38,46.88c2.69,2.63,6.95,10.79,7.62,14.87" class="stroke" stroke-dasharray="150"><set attributeName="opacity" to="0" dur="2.6s" /><animate attributeName="stroke-dashoffset" from="150" to="0" dur="1.8s" begin="2.6s" fill="freeze" /></path><path d="M26.39,60.62c0.07,0.36,0.91,1.85,0.98,4.09c0.31,10.79-0.2,28.79-0.2,32.46" class="stroke" stroke-dasharray="150"><set attributeName="opacity" to="0" dur="3.5s" /><animate attributeName="stroke-dashoffset" from="150" to="0" dur="1.8s" begin="3.5s" fill="freeze" /></path><path d="M17.61,70.35c0.15,0.85,0.12,2.53-0.15,3.13c-1.77,3.97-6.2,11.62-8.71,15.02" class="stroke" stroke-dasharray="150"><set attributeName="opacity" to="0" dur="4.5s" /><animate attributeName="stroke-dashoffset" from="150" to="0" dur="1.8s" begin="4.5s" fill="freeze" /></path><path d="M35.18,69.04c2.16,3.6,3.82,11.95,4.32,15.21" class="stroke" stroke-dasharray="150"><set attributeName="opacity" to="0" dur="5.5s" /><animate attributeName="stroke-dashoffset" from="150" to="0" dur="1.8s" begin="5.5s" fill="freeze" /></path><path d="M45.95,18.33c0.7,0.8,0.8,1.32,1.11,2.36c1.04,3.57,2.36,11.22,3.37,15.92" class="stroke" stroke-dasharray="150"><set attributeName="opacity" to="0" dur="6.4s" /><animate attributeName="stroke-dashoffset" from="150" to="0" dur="1.8s" begin="6.4s" fill="freeze" /></path><path d="M47.56,20.18c7.94-0.93,37.19-3.68,42.27-3.78c1.7-0.03,3.13,1.12,2.9,2.6c-0.96,6.02-1.98,10-3.23,14.25" class="stroke" stroke-dasharray="150"><set attributeName="opacity" to="0" dur="7.300000000000001s" /><animate attributeName="stroke-dashoffset" from="150" to="0" dur="1.8s" begin="7.300000000000001s" fill="freeze" /></path><path d="M50.01,33.9c1.96,0,12.14-0.76,13.74-0.76" class="stroke" stroke-dasharray="150"><set attributeName="opacity" to="0" dur="8.8s" /><animate attributeName="stroke-dashoffset" from="150" to="0" dur="1.8s" begin="8.8s" fill="freeze" /></path><path d="M76,32.84c2.86-0.61,11.29-1.54,13-1.54" class="stroke" stroke-dasharray="150"><set attributeName="opacity" to="0" dur="9.700000000000001s" /><animate attributeName="stroke-dashoffset" from="150" to="0" dur="1.8s" begin="9.700000000000001s" fill="freeze" /></path><path d="M74.85,18c0.41,0.48,0.15,3.67,0.23,4.64c0.08,0.96,0,59.09-0.08,65.11" class="stroke" stroke-dasharray="150"><set attributeName="opacity" to="0" dur="10.600000000000001s" /><animate attributeName="stroke-dashoffset" from="150" to="0" dur="1.8s" begin="10.600000000000001s" fill="freeze" /></path><path d="M63.85,19.12c0,1.88,0.01,2.67,0.01,4.56c0,12.83-0.02,52.68-0.02,58.41c0,11.91,2.14,14.43,17.75,14.43c14.66,0,17.05-2.33,17.05-11.96" class="stroke" stroke-dasharray="150"><set attributeName="opacity" to="0" dur="12.100000000000001s" /><animate attributeName="stroke-dashoffset" from="150" to="0" dur="1.8s" begin="12.100000000000001s" fill="freeze" /></path><path d="M56.95,43.38c0.02,0.15,0.08,0.44-0.04,0.61c-1.46,2.13-3.61,4.09-7.41,5.81" class="stroke" stroke-dasharray="150"><set attributeName="opacity" to="0" dur="14.100000000000001s" /><animate attributeName="stroke-dashoffset" from="150" to="0" dur="1.8s" begin="14.100000000000001s" fill="freeze" /></path><path d="M46.97,50c0.53,1,0.83,2.15,0.88,3.1c0.13,2.86-0.34,23.65-0.34,32.9" class="stroke" stroke-dasharray="150"><set attributeName="opacity" to="0" dur="15.000000000000002s" /><animate attributeName="stroke-dashoffset" from="150" to="0" dur="1.8s" begin="15.000000000000002s" fill="freeze" /></path><path d="M48.75,64.93c1.7,0,12.68-1.11,14.07-1.11" class="stroke" stroke-dasharray="150"><set attributeName="opacity" to="0" dur="16.0s" /><animate attributeName="stroke-dashoffset" from="150" to="0" dur="1.8s" begin="16.0s" fill="freeze" /></path><path d="M48.15,82.85c1.98,0,13.84-1.45,15.46-1.45" class="stroke" stroke-dasharray="150"><set attributeName="opacity" to="0" dur="16.9s" /><animate attributeName="stroke-dashoffset" from="150" to="0" dur="1.8s" begin="16.9s" fill="freeze" /></path><path d="M75.28,47.29c6.22-1.04,10.74-1.15,14.94-2.15c1.54-0.37,2.35,0.93,2.25,2.23c-0.54,6.99-0.6,27.62-1.23,34.63" class="stroke" stroke-dasharray="150"><set attributeName="opacity" to="0" dur="17.799999999999997s" /><animate attributeName="stroke-dashoffset" from="150" to="0" dur="1.8s" begin="17.799999999999997s" fill="freeze" /></path><path d="M75.45,62.72c2.05,0,14.55-1.19,16.23-1.19" class="stroke" stroke-dasharray="150"><set attributeName="opacity" to="0" dur="19.099999999999998s" /><animate attributeName="stroke-dashoffset" from="150" to="0" dur="1.8s" begin="19.099999999999998s" fill="freeze" /></path><path d="M75.15,80.6c2.21,0,13.69-0.96,15.5-0.96" class="stroke" stroke-dasharray="150"><set attributeName="opacity" to="0" dur="19.999999999999996s" /><animate attributeName="stroke-dashoffset" from="150" to="0" dur="1.8s" begin="19.999999999999996s" fill="freeze" /></path><text x="90" y="120" id="reset-kvg-07e69">⟳</text><text x="70" y="120" id="pause-kvg-07e69">◼</text><script type="text/javascript"><![CDATA[function RecurringTimer(e,t){var n,r,i=t;this.pause=function(){window.clearTimeout(n);i-=new Date-r};var s=function(){r=new Date;n=window.setTimeout(function(){i=t;s();e()},i)};this.clear=function(){window.clearTimeout(n);i=t;n=window.setTimeout(function(){i=t;s();e()},i)};this.resume=s;this.resume()}function invoketimer(){timer=new RecurringTimer(function(){svg.setCurrentTime(0)},21899.999999999996)}var svg=document.getElementById("kvg-07e69");var pause=document.getElementById("pause-kvg-07e69");var reset=document.getElementById("reset-kvg-07e69");var timer;invoketimer();reset.onclick=function(){svg.setCurrentTime(0);timer.clear();svg.unpauseAnimations();pause.innerHTML = "◼";};pause.onclick=function(){if(svg.animationsPaused()){svg.unpauseAnimations();timer.resume();pause.innerHTML="◼"}else{svg.pauseAnimations();timer.pause();pause.innerHTML="▶"}}]]></script></svg>