<svg id="kvg-07e90-Kaisho" class="kanjivg" width="106" height="126" xmlns="http://www.w3.org/2000/svg" xmlns:xlink="http://www.w3.org/1999/xlink" xml:space="preserve" version="1.1" baseProfile="full"><defs><style type="text/css"><![CDATA[path.black{fill:none;stroke:black;stroke-width:5;stroke-linecap:round;stroke-linejoin:round;}path.grey{fill:none;stroke:#ddd;stroke-width:5;stroke-linecap:round;stroke-linejoin:round;}path.stroke{fill:none;stroke:black;stroke-width:5;stroke-linecap:round;stroke-linejoin:round;}rect{fill:none;stroke:#555;stroke-width:2;} text{font-size:16px;font-family:Segoe UI Symbol,Cambria Math,DejaVu Sans,Symbola,Quivira,STIX,Code2000;-webkit-touch-callout:none;cursor:pointer;-webkit-user-select:none;-khtml-user-select:none;-moz-user-select:none;-ms-user-select:none;user-select: none;}text:hover{color:#777;}#reset{font-weight:bold;}]]></style><marker id="markerStart" markerWidth="8" markerHeight="8" style="overflow:visible;"><circle cx="0" cy="0" r="1.5" style="stroke:none;fill:red;fill-opacity:0.5;"/></marker><marker id="markerEnd" style="overflow:visible;"><circle cx="0" cy="0" r="0.8" style="stroke:none;fill:blue;fill-opacity:0.5;"><animate attributeName="opacity" from="1" to="0" dur="3s" repeatCount="indefinite" /></circle></marker></defs><rect x="4" y="4" width="100" height="100" /><path d="M23.12,14c0.32,1.42,0.4,2.5-0.16,4.02c-2.84,7.66-6.21,13.2-9.65,19.61c-0.46,0.86-0.64,3.28,0,3.55c3.38,1.42,8.12,3.78,11.02,6.38" class="grey" /><path d="M35.18,26.78c0.3,0.64,0.39,2.75,0,3.43C29.45,40.27,20.9,54.28,13.03,63.46c-1.81,2.1,0.45,3.31,1.62,2.88c4.93-1.79,15.15-4.99,21.48-6.7" class="grey" /><path d="M32.04,51.36c2.56,2.58,6.61,10.59,7.25,14.59" class="grey" /><path d="M8.21,79.39c3.89,3.22,6.87,10.7,7.77,13.61" class="grey" /><path d="M19.35,75.23c4.4,2.79,7.78,9.27,8.81,11.8" class="grey" /><path d="M30.49,70.29c4.27,2.24,7.55,7.43,8.55,9.46" class="grey" /><path d="M49.73,14.25c2.27,1.25,5.77,6.5,6.63,9.96" class="grey" /><path d="M39.41,29.48c0.67,0.05,2.2,0.31,2.86,0.28c7.87-0.42,14.85-1.39,22.33-2.05c1.1-0.1,1.67,0.02,2.5,0.35" class="grey" /><path d="M49,37c0.19,0.57-0.01,1.9-0.45,2.84c-1.76,3.69-4.95,7.69-8.54,10.91" class="grey" /><path d="M57.83,35.61c3.94,3.75,7.2,7.58,9.17,12.14" class="grey" /><path d="M59.98,48c0.33,0.98,0.45,2.71-0.1,4.46C54.75,68.79,45.53,83.18,34.25,92" class="grey" /><path d="M45.25,55c5.68,2.79,13.42,13.88,18.25,25" class="grey" /><path d="M67.35,17.39c1.08,0.31,3.07,0.36,4.15,0.31c8.94-0.36,15.53-1.62,22.49-1.77c1.8-0.04,2.89,0.15,3.79,0.31" class="grey" /><path d="M83.5,19.75c0.01,0.32,0.03,0.82-0.02,1.28c-0.3,2.7-3.25,8.63-5.59,12.27" class="grey" /><path d="M72.73,33.55c0.28,1.05,0.69,1.84,0.69,3.24c0,1.41-0.18,41.01-0.18,41.71" class="grey" /><path d="M73.57,34.98c1.92-0.18,16.09-2.36,17.85-2.58c1.46-0.18,2.62,1.99,2.49,3.32c-0.16,1.69-0.53,26.28-0.53,42.92" class="grey" /><path d="M73.69,48.41c2.43,0,9.93-0.82,13.56-1.16" class="grey" /><path d="M73.24,61.81c6.52-0.42,9.18-0.52,14.17-0.96" class="grey" /><path d="M73.46,76.72c4.77-0.64,13.27-1.22,18.43-1.66" class="grey" /><path d="M76.61,81.75c0.41,1.23,0.18,1.96-0.46,2.93c-2.31,3.55-8.74,8.82-15.65,12.07" class="grey" /><path d="M87.28,83.37c4.37,3.49,9.53,9.82,10.72,12.88" class="grey" /><path d="M23.12,14c0.32,1.42,0.4,2.5-0.16,4.02c-2.84,7.66-6.21,13.2-9.65,19.61c-0.46,0.86-0.64,3.28,0,3.55c3.38,1.42,8.12,3.78,11.02,6.38" class="stroke" stroke-dasharray="150"><animate attributeName="stroke-dashoffset" from="150" to="0" dur="1.8s" begin="0.0s" fill="freeze" /></path><path d="M35.18,26.78c0.3,0.64,0.39,2.75,0,3.43C29.45,40.27,20.9,54.28,13.03,63.46c-1.81,2.1,0.45,3.31,1.62,2.88c4.93-1.79,15.15-4.99,21.48-6.7" class="stroke" stroke-dasharray="150"><set attributeName="opacity" to="0" dur="1.1s" /><animate attributeName="stroke-dashoffset" from="150" to="0" dur="1.8s" begin="1.1s" fill="freeze" /></path><path d="M32.04,51.36c2.56,2.58,6.61,10.59,7.25,14.59" class="stroke" stroke-dasharray="150"><set attributeName="opacity" to="0" dur="2.8s" /><animate attributeName="stroke-dashoffset" from="150" to="0" dur="1.8s" begin="2.8s" fill="freeze" /></path><path d="M8.21,79.39c3.89,3.22,6.87,10.7,7.77,13.61" class="stroke" stroke-dasharray="150"><set attributeName="opacity" to="0" dur="3.6999999999999997s" /><animate attributeName="stroke-dashoffset" from="150" to="0" dur="1.8s" begin="3.6999999999999997s" fill="freeze" /></path><path d="M19.35,75.23c4.4,2.79,7.78,9.27,8.81,11.8" class="stroke" stroke-dasharray="150"><set attributeName="opacity" to="0" dur="4.6s" /><animate attributeName="stroke-dashoffset" from="150" to="0" dur="1.8s" begin="4.6s" fill="freeze" /></path><path d="M30.49,70.29c4.27,2.24,7.55,7.43,8.55,9.46" class="stroke" stroke-dasharray="150"><set attributeName="opacity" to="0" dur="5.5s" /><animate attributeName="stroke-dashoffset" from="150" to="0" dur="1.8s" begin="5.5s" fill="freeze" /></path><path d="M49.73,14.25c2.27,1.25,5.77,6.5,6.63,9.96" class="stroke" stroke-dasharray="150"><set attributeName="opacity" to="0" dur="6.4s" /><animate attributeName="stroke-dashoffset" from="150" to="0" dur="1.8s" begin="6.4s" fill="freeze" /></path><path d="M39.41,29.48c0.67,0.05,2.2,0.31,2.86,0.28c7.87-0.42,14.85-1.39,22.33-2.05c1.1-0.1,1.67,0.02,2.5,0.35" class="stroke" stroke-dasharray="150"><set attributeName="opacity" to="0" dur="7.300000000000001s" /><animate attributeName="stroke-dashoffset" from="150" to="0" dur="1.8s" begin="7.300000000000001s" fill="freeze" /></path><path d="M49,37c0.19,0.57-0.01,1.9-0.45,2.84c-1.76,3.69-4.95,7.69-8.54,10.91" class="stroke" stroke-dasharray="150"><set attributeName="opacity" to="0" dur="8.3s" /><animate attributeName="stroke-dashoffset" from="150" to="0" dur="1.8s" begin="8.3s" fill="freeze" /></path><path d="M57.83,35.61c3.94,3.75,7.2,7.58,9.17,12.14" class="stroke" stroke-dasharray="150"><set attributeName="opacity" to="0" dur="9.200000000000001s" /><animate attributeName="stroke-dashoffset" from="150" to="0" dur="1.8s" begin="9.200000000000001s" fill="freeze" /></path><path d="M59.98,48c0.33,0.98,0.45,2.71-0.1,4.46C54.75,68.79,45.53,83.18,34.25,92" class="stroke" stroke-dasharray="150"><set attributeName="opacity" to="0" dur="10.100000000000001s" /><animate attributeName="stroke-dashoffset" from="150" to="0" dur="1.8s" begin="10.100000000000001s" fill="freeze" /></path><path d="M45.25,55c5.68,2.79,13.42,13.88,18.25,25" class="stroke" stroke-dasharray="150"><set attributeName="opacity" to="0" dur="11.400000000000002s" /><animate attributeName="stroke-dashoffset" from="150" to="0" dur="1.8s" begin="11.400000000000002s" fill="freeze" /></path><path d="M67.35,17.39c1.08,0.31,3.07,0.36,4.15,0.31c8.94-0.36,15.53-1.62,22.49-1.77c1.8-0.04,2.89,0.15,3.79,0.31" class="stroke" stroke-dasharray="150"><set attributeName="opacity" to="0" dur="12.400000000000002s" /><animate attributeName="stroke-dashoffset" from="150" to="0" dur="1.8s" begin="12.400000000000002s" fill="freeze" /></path><path d="M83.5,19.75c0.01,0.32,0.03,0.82-0.02,1.28c-0.3,2.7-3.25,8.63-5.59,12.27" class="stroke" stroke-dasharray="150"><set attributeName="opacity" to="0" dur="13.400000000000002s" /><animate attributeName="stroke-dashoffset" from="150" to="0" dur="1.8s" begin="13.400000000000002s" fill="freeze" /></path><path d="M72.73,33.55c0.28,1.05,0.69,1.84,0.69,3.24c0,1.41-0.18,41.01-0.18,41.71" class="stroke" stroke-dasharray="150"><set attributeName="opacity" to="0" dur="14.300000000000002s" /><animate attributeName="stroke-dashoffset" from="150" to="0" dur="1.8s" begin="14.300000000000002s" fill="freeze" /></path><path d="M73.57,34.98c1.92-0.18,16.09-2.36,17.85-2.58c1.46-0.18,2.62,1.99,2.49,3.32c-0.16,1.69-0.53,26.28-0.53,42.92" class="stroke" stroke-dasharray="150"><set attributeName="opacity" to="0" dur="15.500000000000002s" /><animate attributeName="stroke-dashoffset" from="150" to="0" dur="1.8s" begin="15.500000000000002s" fill="freeze" /></path><path d="M73.69,48.41c2.43,0,9.93-0.82,13.56-1.16" class="stroke" stroke-dasharray="150"><set attributeName="opacity" to="0" dur="17.0s" /><animate attributeName="stroke-dashoffset" from="150" to="0" dur="1.8s" begin="17.0s" fill="freeze" /></path><path d="M73.24,61.81c6.52-0.42,9.18-0.52,14.17-0.96" class="stroke" stroke-dasharray="150"><set attributeName="opacity" to="0" dur="17.9s" /><animate attributeName="stroke-dashoffset" from="150" to="0" dur="1.8s" begin="17.9s" fill="freeze" /></path><path d="M73.46,76.72c4.77-0.64,13.27-1.22,18.43-1.66" class="stroke" stroke-dasharray="150"><set attributeName="opacity" to="0" dur="18.799999999999997s" /><animate attributeName="stroke-dashoffset" from="150" to="0" dur="1.8s" begin="18.799999999999997s" fill="freeze" /></path><path d="M76.61,81.75c0.41,1.23,0.18,1.96-0.46,2.93c-2.31,3.55-8.74,8.82-15.65,12.07" class="stroke" stroke-dasharray="150"><set attributeName="opacity" to="0" dur="19.699999999999996s" /><animate attributeName="stroke-dashoffset" from="150" to="0" dur="1.8s" begin="19.699999999999996s" fill="freeze" /></path><path d="M87.28,83.37c4.37,3.49,9.53,9.82,10.72,12.88" class="stroke" stroke-dasharray="150"><set attributeName="opacity" to="0" dur="20.699999999999996s" /><animate attributeName="stroke-dashoffset" from="150" to="0" dur="1.8s" begin="20.699999999999996s" fill="freeze" /></path><text x="90" y="120" id="reset-kvg-07e90-Kaisho">⟳</text><text x="70" y="120" id="pause-kvg-07e90-Kaisho">◼</text><script type="text/javascript"><![CDATA[function RecurringTimer(e,t){var n,r,i=t;this.pause=function(){window.clearTimeout(n);i-=new Date-r};var s=function(){r=new Date;n=window.setTimeout(function(){i=t;s();e()},i)};this.clear=function(){window.clearTimeout(n);i=t;n=window.setTimeout(function(){i=t;s();e()},i)};this.resume=s;this.resume()}function invoketimer(){timer=new RecurringTimer(function(){svg.setCurrentTime(0)},22599.999999999993)}var svg=document.getElementById("kvg-07e90-Kaisho");var pause=document.getElementById("pause-kvg-07e90-Kaisho");var reset=document.getElementById("reset-kvg-07e90-Kaisho");var timer;invoketimer();reset.onclick=function(){svg.setCurrentTime(0);timer.clear();svg.unpauseAnimations();pause.innerHTML = "◼";};pause.onclick=function(){if(svg.animationsPaused()){svg.unpauseAnimations();timer.resume();pause.innerHTML="◼"}else{svg.pauseAnimations();timer.pause();pause.innerHTML="▶"}}]]></script></svg>