<svg id="kvg-07f4e-Kaisho" class="kanjivg" width="106" height="126" xmlns="http://www.w3.org/2000/svg" xmlns:xlink="http://www.w3.org/1999/xlink" xml:space="preserve" version="1.1" baseProfile="full"><defs><style type="text/css"><![CDATA[path.black{fill:none;stroke:black;stroke-width:5;stroke-linecap:round;stroke-linejoin:round;}path.grey{fill:none;stroke:#ddd;stroke-width:5;stroke-linecap:round;stroke-linejoin:round;}path.stroke{fill:none;stroke:black;stroke-width:5;stroke-linecap:round;stroke-linejoin:round;}rect{fill:none;stroke:#555;stroke-width:2;} text{font-size:16px;font-family:Segoe UI Symbol,Cambria Math,DejaVu Sans,Symbola,Quivira,STIX,Code2000;-webkit-touch-callout:none;cursor:pointer;-webkit-user-select:none;-khtml-user-select:none;-moz-user-select:none;-ms-user-select:none;user-select: none;}text:hover{color:#777;}#reset{font-weight:bold;}]]></style><marker id="markerStart" markerWidth="8" markerHeight="8" style="overflow:visible;"><circle cx="0" cy="0" r="1.5" style="stroke:none;fill:red;fill-opacity:0.5;"/></marker><marker id="markerEnd" style="overflow:visible;"><circle cx="0" cy="0" r="0.8" style="stroke:none;fill:blue;fill-opacity:0.5;"><animate attributeName="opacity" from="1" to="0" dur="3s" repeatCount="indefinite" /></circle></marker></defs><rect x="4" y="4" width="100" height="100" /><path d="M20.03,14.14c0.03,0.65,0.14,1.68-0.06,2.59C18.5,23.25,14.5,33.25,9,41.54" class="grey" /><path d="M15.89,28.83c0.96,0.35,2.72,0.47,3.68,0.35c5.44-0.68,11.69-2.43,16.23-3.1c1.58-0.23,2.56,0.17,3.36,0.34" class="grey" /><path d="M7.87,48.76c1.02,0.27,2.89,0.34,3.91,0.27c8.76-0.58,18.88-2.63,25.28-2.91c1.7-0.08,2.72,0.13,3.57,0.27" class="grey" /><path d="M24.82,30.51c0.15,1.22,0.31,2.12,0.31,3.8c0,5.92-0.02,42.18-0.04,47.19" class="grey" /><path d="M10.75,59.04c0.59,0.46,1.2,2.43,1.19,3.37c-0.06,5.83-0.95,11.22-1.29,18.62c-0.1,2.13,0.99,3.18,2.46,2.85c4.07-0.92,16.25-3.51,23.97-4.67" class="grey" /><path d="M37.39,57.05c0.37,0.48,0.79,3.54,0.73,4.49c-0.36,5.81-0.24,9.77-0.84,20.6" class="grey" /><path d="M52.08,12.39c0.25,0.28,0.25,0.48,0.39,0.84c1.1,2.94,2.54,12.26,3.22,17.74" class="grey" /><path d="M53.81,14.07c8.1-0.73,22.37-1.43,28.47-2.05c2.23-0.23,3.41,0.89,3.25,2.74c-0.25,2.97-1.83,9.6-2.85,14.52" class="grey" /><path d="M55.52,21.64c4.93-0.38,9.85-0.83,14.78-1.25c1.67-0.14,3.33-0.28,4.91-0.41" class="grey" /><path d="M56.66,29.58c5.74-0.34,18.09-1.79,26.02-2.35" class="grey" /><path d="M51.68,36.92c1.48,0.16,3.39,0.2,4.74,0.13c5.83-0.3,21.08-2.05,28.22-3.02c1.86-0.25,3.44-0.14,5.17,0.09" class="grey" /><path d="M47.4,44c-0.17,4.2-1.64,8.01-2.73,12.25" class="grey" /><path d="M47.99,46.11c8.26-1.11,34.94-3.91,45.14-4.26c8.08-0.28,1.08,6.37,0.18,7.56" class="grey" /><path d="M69.15,38.5c0.4,0.93,1.06,2.79,1.06,4.45c0,2.76-0.1,18.03-0.1,19.04" class="grey" /><path d="M54.11,49.87c2.97,0.86,7.02,3.44,8.64,4.88" class="grey" /><path d="M52.6,58.12c2.44,0.92,6.21,4.31,7.54,5.85" class="grey" /><path d="M76.5,47.28c3.65,1.04,7.79,3.11,9.25,3.97" class="grey" /><path d="M78.75,57.16c3.26,0.94,7.72,3.77,9.5,5.34" class="grey" /><path d="M52.2,69.16c0.72,0.22,3.1,0.26,3.81,0.22c6.09-0.28,17.74-2.14,26.07-2.57c1.19-0.06,1.91,0.11,2.5,0.22" class="grey" /><path d="M44.75,78.31c1.33,0.22,3.78,0.3,5.09,0.22c12.57-0.74,23.38-3.55,43.97-3.95c2.21-0.04,3.54,0.11,4.65,0.22" class="grey" /><path d="M63.12,79.34c0.06,1.06-0.07,2.35-0.73,3.36c-2.17,3.33-5.85,6.52-9.42,10.8c-1.48,1.77-1.29,3.3,1.35,2.65c5.68-1.38,23.43-5.41,32.53-7.14" class="grey" /><path d="M81.31,82.94C85.26,85.59,91.51,93.87,92.5,98" class="grey" /><path d="M20.03,14.14c0.03,0.65,0.14,1.68-0.06,2.59C18.5,23.25,14.5,33.25,9,41.54" class="stroke" stroke-dasharray="150"><animate attributeName="stroke-dashoffset" from="150" to="0" dur="1.8s" begin="0.0s" fill="freeze" /></path><path d="M15.89,28.83c0.96,0.35,2.72,0.47,3.68,0.35c5.44-0.68,11.69-2.43,16.23-3.1c1.58-0.23,2.56,0.17,3.36,0.34" class="stroke" stroke-dasharray="150"><set attributeName="opacity" to="0" dur="1.0s" /><animate attributeName="stroke-dashoffset" from="150" to="0" dur="1.8s" begin="1.0s" fill="freeze" /></path><path d="M7.87,48.76c1.02,0.27,2.89,0.34,3.91,0.27c8.76-0.58,18.88-2.63,25.28-2.91c1.7-0.08,2.72,0.13,3.57,0.27" class="stroke" stroke-dasharray="150"><set attributeName="opacity" to="0" dur="2.0s" /><animate attributeName="stroke-dashoffset" from="150" to="0" dur="1.8s" begin="2.0s" fill="freeze" /></path><path d="M24.82,30.51c0.15,1.22,0.31,2.12,0.31,3.8c0,5.92-0.02,42.18-0.04,47.19" class="stroke" stroke-dasharray="150"><set attributeName="opacity" to="0" dur="3.0s" /><animate attributeName="stroke-dashoffset" from="150" to="0" dur="1.8s" begin="3.0s" fill="freeze" /></path><path d="M10.75,59.04c0.59,0.46,1.2,2.43,1.19,3.37c-0.06,5.83-0.95,11.22-1.29,18.62c-0.1,2.13,0.99,3.18,2.46,2.85c4.07-0.92,16.25-3.51,23.97-4.67" class="stroke" stroke-dasharray="150"><set attributeName="opacity" to="0" dur="4.3s" /><animate attributeName="stroke-dashoffset" from="150" to="0" dur="1.8s" begin="4.3s" fill="freeze" /></path><path d="M37.39,57.05c0.37,0.48,0.79,3.54,0.73,4.49c-0.36,5.81-0.24,9.77-0.84,20.6" class="stroke" stroke-dasharray="150"><set attributeName="opacity" to="0" dur="5.6s" /><animate attributeName="stroke-dashoffset" from="150" to="0" dur="1.8s" begin="5.6s" fill="freeze" /></path><path d="M52.08,12.39c0.25,0.28,0.25,0.48,0.39,0.84c1.1,2.94,2.54,12.26,3.22,17.74" class="stroke" stroke-dasharray="150"><set attributeName="opacity" to="0" dur="6.6s" /><animate attributeName="stroke-dashoffset" from="150" to="0" dur="1.8s" begin="6.6s" fill="freeze" /></path><path d="M53.81,14.07c8.1-0.73,22.37-1.43,28.47-2.05c2.23-0.23,3.41,0.89,3.25,2.74c-0.25,2.97-1.83,9.6-2.85,14.52" class="stroke" stroke-dasharray="150"><set attributeName="opacity" to="0" dur="7.5s" /><animate attributeName="stroke-dashoffset" from="150" to="0" dur="1.8s" begin="7.5s" fill="freeze" /></path><path d="M55.52,21.64c4.93-0.38,9.85-0.83,14.78-1.25c1.67-0.14,3.33-0.28,4.91-0.41" class="stroke" stroke-dasharray="150"><set attributeName="opacity" to="0" dur="8.7s" /><animate attributeName="stroke-dashoffset" from="150" to="0" dur="1.8s" begin="8.7s" fill="freeze" /></path><path d="M56.66,29.58c5.74-0.34,18.09-1.79,26.02-2.35" class="stroke" stroke-dasharray="150"><set attributeName="opacity" to="0" dur="9.6s" /><animate attributeName="stroke-dashoffset" from="150" to="0" dur="1.8s" begin="9.6s" fill="freeze" /></path><path d="M51.68,36.92c1.48,0.16,3.39,0.2,4.74,0.13c5.83-0.3,21.08-2.05,28.22-3.02c1.86-0.25,3.44-0.14,5.17,0.09" class="stroke" stroke-dasharray="150"><set attributeName="opacity" to="0" dur="10.6s" /><animate attributeName="stroke-dashoffset" from="150" to="0" dur="1.8s" begin="10.6s" fill="freeze" /></path><path d="M47.4,44c-0.17,4.2-1.64,8.01-2.73,12.25" class="stroke" stroke-dasharray="150"><set attributeName="opacity" to="0" dur="11.6s" /><animate attributeName="stroke-dashoffset" from="150" to="0" dur="1.8s" begin="11.6s" fill="freeze" /></path><path d="M47.99,46.11c8.26-1.11,34.94-3.91,45.14-4.26c8.08-0.28,1.08,6.37,0.18,7.56" class="stroke" stroke-dasharray="150"><set attributeName="opacity" to="0" dur="12.5s" /><animate attributeName="stroke-dashoffset" from="150" to="0" dur="1.8s" begin="12.5s" fill="freeze" /></path><path d="M69.15,38.5c0.4,0.93,1.06,2.79,1.06,4.45c0,2.76-0.1,18.03-0.1,19.04" class="stroke" stroke-dasharray="150"><set attributeName="opacity" to="0" dur="13.9s" /><animate attributeName="stroke-dashoffset" from="150" to="0" dur="1.8s" begin="13.9s" fill="freeze" /></path><path d="M54.11,49.87c2.97,0.86,7.02,3.44,8.64,4.88" class="stroke" stroke-dasharray="150"><set attributeName="opacity" to="0" dur="14.9s" /><animate attributeName="stroke-dashoffset" from="150" to="0" dur="1.8s" begin="14.9s" fill="freeze" /></path><path d="M52.6,58.12c2.44,0.92,6.21,4.31,7.54,5.85" class="stroke" stroke-dasharray="150"><set attributeName="opacity" to="0" dur="15.8s" /><animate attributeName="stroke-dashoffset" from="150" to="0" dur="1.8s" begin="15.8s" fill="freeze" /></path><path d="M76.5,47.28c3.65,1.04,7.79,3.11,9.25,3.97" class="stroke" stroke-dasharray="150"><set attributeName="opacity" to="0" dur="16.7s" /><animate attributeName="stroke-dashoffset" from="150" to="0" dur="1.8s" begin="16.7s" fill="freeze" /></path><path d="M78.75,57.16c3.26,0.94,7.72,3.77,9.5,5.34" class="stroke" stroke-dasharray="150"><set attributeName="opacity" to="0" dur="17.599999999999998s" /><animate attributeName="stroke-dashoffset" from="150" to="0" dur="1.8s" begin="17.599999999999998s" fill="freeze" /></path><path d="M52.2,69.16c0.72,0.22,3.1,0.26,3.81,0.22c6.09-0.28,17.74-2.14,26.07-2.57c1.19-0.06,1.91,0.11,2.5,0.22" class="stroke" stroke-dasharray="150"><set attributeName="opacity" to="0" dur="18.499999999999996s" /><animate attributeName="stroke-dashoffset" from="150" to="0" dur="1.8s" begin="18.499999999999996s" fill="freeze" /></path><path d="M44.75,78.31c1.33,0.22,3.78,0.3,5.09,0.22c12.57-0.74,23.38-3.55,43.97-3.95c2.21-0.04,3.54,0.11,4.65,0.22" class="stroke" stroke-dasharray="150"><set attributeName="opacity" to="0" dur="19.499999999999996s" /><animate attributeName="stroke-dashoffset" from="150" to="0" dur="1.8s" begin="19.499999999999996s" fill="freeze" /></path><path d="M63.12,79.34c0.06,1.06-0.07,2.35-0.73,3.36c-2.17,3.33-5.85,6.52-9.42,10.8c-1.48,1.77-1.29,3.3,1.35,2.65c5.68-1.38,23.43-5.41,32.53-7.14" class="stroke" stroke-dasharray="150"><set attributeName="opacity" to="0" dur="20.799999999999997s" /><animate attributeName="stroke-dashoffset" from="150" to="0" dur="1.8s" begin="20.799999999999997s" fill="freeze" /></path><path d="M81.31,82.94C85.26,85.59,91.51,93.87,92.5,98" class="stroke" stroke-dasharray="150"><set attributeName="opacity" to="0" dur="22.199999999999996s" /><animate attributeName="stroke-dashoffset" from="150" to="0" dur="1.8s" begin="22.199999999999996s" fill="freeze" /></path><text x="90" y="120" id="reset-kvg-07f4e-Kaisho">⟳</text><text x="70" y="120" id="pause-kvg-07f4e-Kaisho">◼</text><script type="text/javascript"><![CDATA[function RecurringTimer(e,t){var n,r,i=t;this.pause=function(){window.clearTimeout(n);i-=new Date-r};var s=function(){r=new Date;n=window.setTimeout(function(){i=t;s();e()},i)};this.clear=function(){window.clearTimeout(n);i=t;n=window.setTimeout(function(){i=t;s();e()},i)};this.resume=s;this.resume()}function invoketimer(){timer=new RecurringTimer(function(){svg.setCurrentTime(0)},24099.999999999993)}var svg=document.getElementById("kvg-07f4e-Kaisho");var pause=document.getElementById("pause-kvg-07f4e-Kaisho");var reset=document.getElementById("reset-kvg-07f4e-Kaisho");var timer;invoketimer();reset.onclick=function(){svg.setCurrentTime(0);timer.clear();svg.unpauseAnimations();pause.innerHTML = "◼";};pause.onclick=function(){if(svg.animationsPaused()){svg.unpauseAnimations();timer.resume();pause.innerHTML="◼"}else{svg.pauseAnimations();timer.pause();pause.innerHTML="▶"}}]]></script></svg>