<svg id="kvg-07f67" class="kanjivg" width="106" height="126" xmlns="http://www.w3.org/2000/svg" xmlns:xlink="http://www.w3.org/1999/xlink" xml:space="preserve" version="1.1" baseProfile="full"><defs><style type="text/css"><![CDATA[path.black{fill:none;stroke:black;stroke-width:5;stroke-linecap:round;stroke-linejoin:round;}path.grey{fill:none;stroke:#ddd;stroke-width:5;stroke-linecap:round;stroke-linejoin:round;}path.stroke{fill:none;stroke:black;stroke-width:5;stroke-linecap:round;stroke-linejoin:round;}rect{fill:none;stroke:#555;stroke-width:2;} text{font-size:16px;font-family:Segoe UI Symbol,Cambria Math,DejaVu Sans,Symbola,Quivira,STIX,Code2000;-webkit-touch-callout:none;cursor:pointer;-webkit-user-select:none;-khtml-user-select:none;-moz-user-select:none;-ms-user-select:none;user-select: none;}text:hover{color:#777;}#reset{font-weight:bold;}]]></style><marker id="markerStart" markerWidth="8" markerHeight="8" style="overflow:visible;"><circle cx="0" cy="0" r="1.5" style="stroke:none;fill:red;fill-opacity:0.5;"/></marker><marker id="markerEnd" style="overflow:visible;"><circle cx="0" cy="0" r="0.8" style="stroke:none;fill:blue;fill-opacity:0.5;"><animate attributeName="opacity" from="1" to="0" dur="3s" repeatCount="indefinite" /></circle></marker></defs><rect x="4" y="4" width="100" height="100" /><path d="M20.42,14.5c0.34,0.3,0.69,0.54,0.84,0.91c1.19,2.93,3.18,12.07,3.99,17.34" class="grey" /><path d="M22.72,16.49c6.24-0.81,61.17-3.9,64.02-4.26c1.04-0.13,3.45,1.42,3.17,2.95c-0.58,3.19-3.02,10.13-4.57,14.69" class="grey" /><path d="M43.76,15.86c0.15,1.76,1.73,11.36,1.89,13.33" class="grey" /><path d="M65.95,14.04c-0.19,2.92-1.66,12.04-2.04,13.84" class="grey" /><path d="M26.36,30.6c3.19-0.29,53.44-2.27,57.81-2.72" class="grey" /><path d="M16,52.43c0.75,0.21,3,0.06,5,0c8.04-0.24,16.76-1.66,24.26-2.08c1.99-0.11,3.5-0.22,4.75-0.01" class="grey" /><path d="M34.16,37.75c1.08,0.38,1.73,1.71,1.95,2.47c0.22,0.76,0,54.54-0.22,59.28" class="grey" /><path d="M35.75,54C32.24,64.64,21.8,82.48,14.5,88.5" class="grey" /><path d="M38,62c3.5,2,7.25,6,9.25,9.5" class="grey" /><path d="M55.25,51.11c0.56,0.19,1.78,0.29,3.28,0.19c5.28-0.38,20.43-1.69,30.74-2.62c1.5-0.14,2.8-0.19,3.74,0" class="grey" /><path d="M69.6,37c1.02,0.38,1.62,1.71,1.83,2.47c0.2,0.76,0,53.78-0.2,58.53" class="grey" /><path d="M71,52c-3.89,12.22-15.5,27.5-25,35.5" class="grey" /><path d="M72,51c5.92,12.04,15.4,27.5,20.21,32.25c1.37,1.35,2.14,2.29,3.29,2.75" class="grey" /><path d="M20.42,14.5c0.34,0.3,0.69,0.54,0.84,0.91c1.19,2.93,3.18,12.07,3.99,17.34" class="stroke" stroke-dasharray="150"><animate attributeName="stroke-dashoffset" from="150" to="0" dur="1.8s" begin="0.0s" fill="freeze" /></path><path d="M22.72,16.49c6.24-0.81,61.17-3.9,64.02-4.26c1.04-0.13,3.45,1.42,3.17,2.95c-0.58,3.19-3.02,10.13-4.57,14.69" class="stroke" stroke-dasharray="150"><set attributeName="opacity" to="0" dur="0.9s" /><animate attributeName="stroke-dashoffset" from="150" to="0" dur="1.8s" begin="0.9s" fill="freeze" /></path><path d="M43.76,15.86c0.15,1.76,1.73,11.36,1.89,13.33" class="stroke" stroke-dasharray="150"><set attributeName="opacity" to="0" dur="2.6s" /><animate attributeName="stroke-dashoffset" from="150" to="0" dur="1.8s" begin="2.6s" fill="freeze" /></path><path d="M65.95,14.04c-0.19,2.92-1.66,12.04-2.04,13.84" class="stroke" stroke-dasharray="150"><set attributeName="opacity" to="0" dur="3.5s" /><animate attributeName="stroke-dashoffset" from="150" to="0" dur="1.8s" begin="3.5s" fill="freeze" /></path><path d="M26.36,30.6c3.19-0.29,53.44-2.27,57.81-2.72" class="stroke" stroke-dasharray="150"><set attributeName="opacity" to="0" dur="4.4s" /><animate attributeName="stroke-dashoffset" from="150" to="0" dur="1.8s" begin="4.4s" fill="freeze" /></path><path d="M16,52.43c0.75,0.21,3,0.06,5,0c8.04-0.24,16.76-1.66,24.26-2.08c1.99-0.11,3.5-0.22,4.75-0.01" class="stroke" stroke-dasharray="150"><set attributeName="opacity" to="0" dur="5.800000000000001s" /><animate attributeName="stroke-dashoffset" from="150" to="0" dur="1.8s" begin="5.800000000000001s" fill="freeze" /></path><path d="M34.16,37.75c1.08,0.38,1.73,1.71,1.95,2.47c0.22,0.76,0,54.54-0.22,59.28" class="stroke" stroke-dasharray="150"><set attributeName="opacity" to="0" dur="6.800000000000001s" /><animate attributeName="stroke-dashoffset" from="150" to="0" dur="1.8s" begin="6.800000000000001s" fill="freeze" /></path><path d="M35.75,54C32.24,64.64,21.8,82.48,14.5,88.5" class="stroke" stroke-dasharray="150"><set attributeName="opacity" to="0" dur="8.3s" /><animate attributeName="stroke-dashoffset" from="150" to="0" dur="1.8s" begin="8.3s" fill="freeze" /></path><path d="M38,62c3.5,2,7.25,6,9.25,9.5" class="stroke" stroke-dasharray="150"><set attributeName="opacity" to="0" dur="9.4s" /><animate attributeName="stroke-dashoffset" from="150" to="0" dur="1.8s" begin="9.4s" fill="freeze" /></path><path d="M55.25,51.11c0.56,0.19,1.78,0.29,3.28,0.19c5.28-0.38,20.43-1.69,30.74-2.62c1.5-0.14,2.8-0.19,3.74,0" class="stroke" stroke-dasharray="150"><set attributeName="opacity" to="0" dur="10.3s" /><animate attributeName="stroke-dashoffset" from="150" to="0" dur="1.8s" begin="10.3s" fill="freeze" /></path><path d="M69.6,37c1.02,0.38,1.62,1.71,1.83,2.47c0.2,0.76,0,53.78-0.2,58.53" class="stroke" stroke-dasharray="150"><set attributeName="opacity" to="0" dur="11.3s" /><animate attributeName="stroke-dashoffset" from="150" to="0" dur="1.8s" begin="11.3s" fill="freeze" /></path><path d="M71,52c-3.89,12.22-15.5,27.5-25,35.5" class="stroke" stroke-dasharray="150"><set attributeName="opacity" to="0" dur="12.8s" /><animate attributeName="stroke-dashoffset" from="150" to="0" dur="1.8s" begin="12.8s" fill="freeze" /></path><path d="M72,51c5.92,12.04,15.4,27.5,20.21,32.25c1.37,1.35,2.14,2.29,3.29,2.75" class="stroke" stroke-dasharray="150"><set attributeName="opacity" to="0" dur="13.9s" /><animate attributeName="stroke-dashoffset" from="150" to="0" dur="1.8s" begin="13.9s" fill="freeze" /></path><text x="90" y="120" id="reset-kvg-07f67">⟳</text><text x="70" y="120" id="pause-kvg-07f67">◼</text><script type="text/javascript"><![CDATA[function RecurringTimer(e,t){var n,r,i=t;this.pause=function(){window.clearTimeout(n);i-=new Date-r};var s=function(){r=new Date;n=window.setTimeout(function(){i=t;s();e()},i)};this.clear=function(){window.clearTimeout(n);i=t;n=window.setTimeout(function(){i=t;s();e()},i)};this.resume=s;this.resume()}function invoketimer(){timer=new RecurringTimer(function(){svg.setCurrentTime(0)},16000.0)}var svg=document.getElementById("kvg-07f67");var pause=document.getElementById("pause-kvg-07f67");var reset=document.getElementById("reset-kvg-07f67");var timer;invoketimer();reset.onclick=function(){svg.setCurrentTime(0);timer.clear();svg.unpauseAnimations();pause.innerHTML = "◼";};pause.onclick=function(){if(svg.animationsPaused()){svg.unpauseAnimations();timer.resume();pause.innerHTML="◼"}else{svg.pauseAnimations();timer.pause();pause.innerHTML="▶"}}]]></script></svg>