<svg id="kvg-07fe9-Kaisho" class="kanjivg" width="106" height="126" xmlns="http://www.w3.org/2000/svg" xmlns:xlink="http://www.w3.org/1999/xlink" xml:space="preserve" version="1.1" baseProfile="full"><defs><style type="text/css"><![CDATA[path.black{fill:none;stroke:black;stroke-width:5;stroke-linecap:round;stroke-linejoin:round;}path.grey{fill:none;stroke:#ddd;stroke-width:5;stroke-linecap:round;stroke-linejoin:round;}path.stroke{fill:none;stroke:black;stroke-width:5;stroke-linecap:round;stroke-linejoin:round;}rect{fill:none;stroke:#555;stroke-width:2;} text{font-size:16px;font-family:Segoe UI Symbol,Cambria Math,DejaVu Sans,Symbola,Quivira,STIX,Code2000;-webkit-touch-callout:none;cursor:pointer;-webkit-user-select:none;-khtml-user-select:none;-moz-user-select:none;-ms-user-select:none;user-select: none;}text:hover{color:#777;}#reset{font-weight:bold;}]]></style><marker id="markerStart" markerWidth="8" markerHeight="8" style="overflow:visible;"><circle cx="0" cy="0" r="1.5" style="stroke:none;fill:red;fill-opacity:0.5;"/></marker><marker id="markerEnd" style="overflow:visible;"><circle cx="0" cy="0" r="0.8" style="stroke:none;fill:blue;fill-opacity:0.5;"><animate attributeName="opacity" from="1" to="0" dur="3s" repeatCount="indefinite" /></circle></marker></defs><rect x="4" y="4" width="100" height="100" /><path d="M15.25,17.94c0.81,0.23,2.8,0.76,3.62,0.73c8.46-0.26,19.72-2.87,27.16-3.13c1.36-0.05,2.17,0.11,2.85,0.22" class="grey" /><path d="M18.79,31.71C27,31,40.8,29.15,46.76,28.5c1.11-0.12,2.8,0.28,2.18,2.6c-0.92,3.47-1.63,5.77-2.6,9.9" class="grey" /><path d="M18.25,44.49c4.2,0,23.11-2.53,30.5-2.99" class="grey" /><path d="M16.77,29.18c0.98,0.57,1.25,1.07,1.26,3.07C18.11,57.4,16.22,78.48,10,88" class="grey" /><path d="M20.63,55.96c0.28,0.64,0.46,1.66,0.37,2.81c-0.09,1.15,0.41,34.05,0.41,35.97" class="grey" /><path d="M21.93,56.24c3.33-0.51,22.52-2.88,23.18-3.06c1.4-0.38,2.54,1.35,2.54,2.03c0,6.78,0.01,31.95,0.01,34.83c0,6.7-3.81,0.93-4.86-0.73" class="grey" /><path d="M21.47,71.31c4.96-0.5,10.9-1.21,15.86-1.71c1.26-0.13,2.54-0.25,3.79-0.36" class="grey" /><path d="M29.05,57.75c0.52,0.29,0.83,1.33,0.94,1.92c0.1,0.59,0,29.14-0.1,32.83" class="grey" /><path d="M37.02,55.82c0.52,0.3,0.83,1.36,0.94,1.97c0.1,0.61,0,30.18-0.1,33.96" class="grey" /><path d="M50,22.65c1.86,0.95,2.18,0.95,4.91,0.63c5.54-0.64,11.97-2.88,13.66-3.02c1.91-0.16,3.02,1.26,3.08,3.82c0.07,2.83-0.71,56.21-0.71,65.22c0,9.52-6.52,0.24-7.48-0.32" class="grey" /><path d="M64.48,24.66c0.04,0.45,0.2,1.2-0.07,1.81c-1.67,3.78-4.92,11.28-11.92,17.28" class="grey" /><path d="M68.5,43.75c0.04,0.57,0.09,1.48-0.08,2.31c-1.02,4.86-6.88,15.53-14.88,22.07" class="grey" /><path d="M76.76,20.29c1.69,0.95,1.4,0.95,3.88,0.63c5.05-0.64,9.15-2.1,10.69-2.2c3.47-0.22,3.32,1.12,3.32,3.76c0,4.21-0.37,56.7-0.37,65.71c0,9.57-7.45,1.71-8.31,1.15" class="grey" /><path d="M87.51,22.63c0.03,0.44,0.16,1.16-0.06,1.76c-1.45,3.86-4.7,9.86-10.66,16.82" class="grey" /><path d="M91.02,39.5c0.04,0.66,0.08,1.7-0.07,2.65c-0.92,5.58-6.18,17.83-13.39,25.32" class="grey" /><path d="M15.25,17.94c0.81,0.23,2.8,0.76,3.62,0.73c8.46-0.26,19.72-2.87,27.16-3.13c1.36-0.05,2.17,0.11,2.85,0.22" class="stroke" stroke-dasharray="150"><animate attributeName="stroke-dashoffset" from="150" to="0" dur="1.8s" begin="0.0s" fill="freeze" /></path><path d="M18.79,31.71C27,31,40.8,29.15,46.76,28.5c1.11-0.12,2.8,0.28,2.18,2.6c-0.92,3.47-1.63,5.77-2.6,9.9" class="stroke" stroke-dasharray="150"><set attributeName="opacity" to="0" dur="1.0s" /><animate attributeName="stroke-dashoffset" from="150" to="0" dur="1.8s" begin="1.0s" fill="freeze" /></path><path d="M18.25,44.49c4.2,0,23.11-2.53,30.5-2.99" class="stroke" stroke-dasharray="150"><set attributeName="opacity" to="0" dur="2.1s" /><animate attributeName="stroke-dashoffset" from="150" to="0" dur="1.8s" begin="2.1s" fill="freeze" /></path><path d="M16.77,29.18c0.98,0.57,1.25,1.07,1.26,3.07C18.11,57.4,16.22,78.48,10,88" class="stroke" stroke-dasharray="150"><set attributeName="opacity" to="0" dur="3.1s" /><animate attributeName="stroke-dashoffset" from="150" to="0" dur="1.8s" begin="3.1s" fill="freeze" /></path><path d="M20.63,55.96c0.28,0.64,0.46,1.66,0.37,2.81c-0.09,1.15,0.41,34.05,0.41,35.97" class="stroke" stroke-dasharray="150"><set attributeName="opacity" to="0" dur="4.6s" /><animate attributeName="stroke-dashoffset" from="150" to="0" dur="1.8s" begin="4.6s" fill="freeze" /></path><path d="M21.93,56.24c3.33-0.51,22.52-2.88,23.18-3.06c1.4-0.38,2.54,1.35,2.54,2.03c0,6.78,0.01,31.95,0.01,34.83c0,6.7-3.81,0.93-4.86-0.73" class="stroke" stroke-dasharray="150"><set attributeName="opacity" to="0" dur="5.6s" /><animate attributeName="stroke-dashoffset" from="150" to="0" dur="1.8s" begin="5.6s" fill="freeze" /></path><path d="M21.47,71.31c4.96-0.5,10.9-1.21,15.86-1.71c1.26-0.13,2.54-0.25,3.79-0.36" class="stroke" stroke-dasharray="150"><set attributeName="opacity" to="0" dur="7.3s" /><animate attributeName="stroke-dashoffset" from="150" to="0" dur="1.8s" begin="7.3s" fill="freeze" /></path><path d="M29.05,57.75c0.52,0.29,0.83,1.33,0.94,1.92c0.1,0.59,0,29.14-0.1,32.83" class="stroke" stroke-dasharray="150"><set attributeName="opacity" to="0" dur="8.2s" /><animate attributeName="stroke-dashoffset" from="150" to="0" dur="1.8s" begin="8.2s" fill="freeze" /></path><path d="M37.02,55.82c0.52,0.3,0.83,1.36,0.94,1.97c0.1,0.61,0,30.18-0.1,33.96" class="stroke" stroke-dasharray="150"><set attributeName="opacity" to="0" dur="9.2s" /><animate attributeName="stroke-dashoffset" from="150" to="0" dur="1.8s" begin="9.2s" fill="freeze" /></path><path d="M50,22.65c1.86,0.95,2.18,0.95,4.91,0.63c5.54-0.64,11.97-2.88,13.66-3.02c1.91-0.16,3.02,1.26,3.08,3.82c0.07,2.83-0.71,56.21-0.71,65.22c0,9.52-6.52,0.24-7.48-0.32" class="stroke" stroke-dasharray="150"><set attributeName="opacity" to="0" dur="10.2s" /><animate attributeName="stroke-dashoffset" from="150" to="0" dur="1.8s" begin="10.2s" fill="freeze" /></path><path d="M64.48,24.66c0.04,0.45,0.2,1.2-0.07,1.81c-1.67,3.78-4.92,11.28-11.92,17.28" class="stroke" stroke-dasharray="150"><set attributeName="opacity" to="0" dur="12.1s" /><animate attributeName="stroke-dashoffset" from="150" to="0" dur="1.8s" begin="12.1s" fill="freeze" /></path><path d="M68.5,43.75c0.04,0.57,0.09,1.48-0.08,2.31c-1.02,4.86-6.88,15.53-14.88,22.07" class="stroke" stroke-dasharray="150"><set attributeName="opacity" to="0" dur="13.1s" /><animate attributeName="stroke-dashoffset" from="150" to="0" dur="1.8s" begin="13.1s" fill="freeze" /></path><path d="M76.76,20.29c1.69,0.95,1.4,0.95,3.88,0.63c5.05-0.64,9.15-2.1,10.69-2.2c3.47-0.22,3.32,1.12,3.32,3.76c0,4.21-0.37,56.7-0.37,65.71c0,9.57-7.45,1.71-8.31,1.15" class="stroke" stroke-dasharray="150"><set attributeName="opacity" to="0" dur="14.1s" /><animate attributeName="stroke-dashoffset" from="150" to="0" dur="1.8s" begin="14.1s" fill="freeze" /></path><path d="M87.51,22.63c0.03,0.44,0.16,1.16-0.06,1.76c-1.45,3.86-4.7,9.86-10.66,16.82" class="stroke" stroke-dasharray="150"><set attributeName="opacity" to="0" dur="15.9s" /><animate attributeName="stroke-dashoffset" from="150" to="0" dur="1.8s" begin="15.9s" fill="freeze" /></path><path d="M91.02,39.5c0.04,0.66,0.08,1.7-0.07,2.65c-0.92,5.58-6.18,17.83-13.39,25.32" class="stroke" stroke-dasharray="150"><set attributeName="opacity" to="0" dur="16.9s" /><animate attributeName="stroke-dashoffset" from="150" to="0" dur="1.8s" begin="16.9s" fill="freeze" /></path><text x="90" y="120" id="reset-kvg-07fe9-Kaisho">⟳</text><text x="70" y="120" id="pause-kvg-07fe9-Kaisho">◼</text><script type="text/javascript"><![CDATA[function RecurringTimer(e,t){var n,r,i=t;this.pause=function(){window.clearTimeout(n);i-=new Date-r};var s=function(){r=new Date;n=window.setTimeout(function(){i=t;s();e()},i)};this.clear=function(){window.clearTimeout(n);i=t;n=window.setTimeout(function(){i=t;s();e()},i)};this.resume=s;this.resume()}function invoketimer(){timer=new RecurringTimer(function(){svg.setCurrentTime(0)},18900.0)}var svg=document.getElementById("kvg-07fe9-Kaisho");var pause=document.getElementById("pause-kvg-07fe9-Kaisho");var reset=document.getElementById("reset-kvg-07fe9-Kaisho");var timer;invoketimer();reset.onclick=function(){svg.setCurrentTime(0);timer.clear();svg.unpauseAnimations();pause.innerHTML = "◼";};pause.onclick=function(){if(svg.animationsPaused()){svg.unpauseAnimations();timer.resume();pause.innerHTML="◼"}else{svg.pauseAnimations();timer.pause();pause.innerHTML="▶"}}]]></script></svg>