<svg id="kvg-08006-Kaisho" class="kanjivg" width="106" height="126" xmlns="http://www.w3.org/2000/svg" xmlns:xlink="http://www.w3.org/1999/xlink" xml:space="preserve" version="1.1" baseProfile="full"><defs><style type="text/css"><![CDATA[path.black{fill:none;stroke:black;stroke-width:5;stroke-linecap:round;stroke-linejoin:round;}path.grey{fill:none;stroke:#ddd;stroke-width:5;stroke-linecap:round;stroke-linejoin:round;}path.stroke{fill:none;stroke:black;stroke-width:5;stroke-linecap:round;stroke-linejoin:round;}rect{fill:none;stroke:#555;stroke-width:2;} text{font-size:16px;font-family:Segoe UI Symbol,Cambria Math,DejaVu Sans,Symbola,Quivira,STIX,Code2000;-webkit-touch-callout:none;cursor:pointer;-webkit-user-select:none;-khtml-user-select:none;-moz-user-select:none;-ms-user-select:none;user-select: none;}text:hover{color:#777;}#reset{font-weight:bold;}]]></style><marker id="markerStart" markerWidth="8" markerHeight="8" style="overflow:visible;"><circle cx="0" cy="0" r="1.5" style="stroke:none;fill:red;fill-opacity:0.5;"/></marker><marker id="markerEnd" style="overflow:visible;"><circle cx="0" cy="0" r="0.8" style="stroke:none;fill:blue;fill-opacity:0.5;"><animate attributeName="opacity" from="1" to="0" dur="3s" repeatCount="indefinite" /></circle></marker></defs><rect x="4" y="4" width="100" height="100" /><path d="M27.75,26.47c0.77,0.21,2.19,0.23,2.96,0.21c8.79-0.33,25.79-2.72,33.21-3.17c1.28-0.08,2.06,0.1,2.71,0.2" class="grey" /><path d="M47.17,12.12c0.12,0.18,1.65,0.96,1.77,2.13c0.57,5.61,0.31,20.95,0.31,22.86" class="grey" /><path d="M13.5,40.79c1.57,0.43,4.46,0.62,6.01,0.43c16.24-1.97,47.24-5.97,69.37-8.01c2.6-0.24,4.18,0.21,5.49,0.43" class="grey" /><path d="M79.34,14.88c0.18,1.01-0.05,2.85-1.35,4.05C61.31,34.26,41.25,49.96,13.56,61.71" class="grey" /><path d="M71.84,41.5c0.4,0.35,0.72,1.43-0.37,1.93c-7.7,3.48-20.6,8.07-31.47,10.09" class="grey" /><path d="M37.85,44.92c0.9,0.36,0.96,0.59,1.26,1.07c0.3,0.47,0.3,6.38,0.3,7.87c0,6.39,11.99,5.22,22.2,5.22c11.14,0,19.89-0.58,19.93-5.64" class="grey" /><path d="M36.52,68.69c0.39,0.78,1.28,2.18,1.28,3.22c0,1.04,2.87,25.29,3,26.34" class="grey" /><path d="M38.44,70.32c2.2-0.13,32.91-3.17,34.92-3.33c1.67-0.13,3.74,2.45,3.61,3.22c-0.26,1.57-3.52,26.23-3.52,27.01" class="grey" /><path d="M39.33,81.98c5.89,0,11.85-0.74,17.72-1.15c2.04-0.14,4.07-0.29,6.01-0.42" class="grey" /><path d="M42.19,95.31c6.06-0.56,22.81-1.06,30.35-1.54" class="grey" /><path d="M27.75,26.47c0.77,0.21,2.19,0.23,2.96,0.21c8.79-0.33,25.79-2.72,33.21-3.17c1.28-0.08,2.06,0.1,2.71,0.2" class="stroke" stroke-dasharray="150"><animate attributeName="stroke-dashoffset" from="150" to="0" dur="1.8s" begin="0.0s" fill="freeze" /></path><path d="M47.17,12.12c0.12,0.18,1.65,0.96,1.77,2.13c0.57,5.61,0.31,20.95,0.31,22.86" class="stroke" stroke-dasharray="150"><set attributeName="opacity" to="0" dur="1.0s" /><animate attributeName="stroke-dashoffset" from="150" to="0" dur="1.8s" begin="1.0s" fill="freeze" /></path><path d="M13.5,40.79c1.57,0.43,4.46,0.62,6.01,0.43c16.24-1.97,47.24-5.97,69.37-8.01c2.6-0.24,4.18,0.21,5.49,0.43" class="stroke" stroke-dasharray="150"><set attributeName="opacity" to="0" dur="2.0s" /><animate attributeName="stroke-dashoffset" from="150" to="0" dur="1.8s" begin="2.0s" fill="freeze" /></path><path d="M79.34,14.88c0.18,1.01-0.05,2.85-1.35,4.05C61.31,34.26,41.25,49.96,13.56,61.71" class="stroke" stroke-dasharray="150"><set attributeName="opacity" to="0" dur="3.7s" /><animate attributeName="stroke-dashoffset" from="150" to="0" dur="1.8s" begin="3.7s" fill="freeze" /></path><path d="M71.84,41.5c0.4,0.35,0.72,1.43-0.37,1.93c-7.7,3.48-20.6,8.07-31.47,10.09" class="stroke" stroke-dasharray="150"><set attributeName="opacity" to="0" dur="5.4s" /><animate attributeName="stroke-dashoffset" from="150" to="0" dur="1.8s" begin="5.4s" fill="freeze" /></path><path d="M37.85,44.92c0.9,0.36,0.96,0.59,1.26,1.07c0.3,0.47,0.3,6.38,0.3,7.87c0,6.39,11.99,5.22,22.2,5.22c11.14,0,19.89-0.58,19.93-5.64" class="stroke" stroke-dasharray="150"><set attributeName="opacity" to="0" dur="6.4s" /><animate attributeName="stroke-dashoffset" from="150" to="0" dur="1.8s" begin="6.4s" fill="freeze" /></path><path d="M36.52,68.69c0.39,0.78,1.28,2.18,1.28,3.22c0,1.04,2.87,25.29,3,26.34" class="stroke" stroke-dasharray="150"><set attributeName="opacity" to="0" dur="7.800000000000001s" /><animate attributeName="stroke-dashoffset" from="150" to="0" dur="1.8s" begin="7.800000000000001s" fill="freeze" /></path><path d="M38.44,70.32c2.2-0.13,32.91-3.17,34.92-3.33c1.67-0.13,3.74,2.45,3.61,3.22c-0.26,1.57-3.52,26.23-3.52,27.01" class="stroke" stroke-dasharray="150"><set attributeName="opacity" to="0" dur="8.8s" /><animate attributeName="stroke-dashoffset" from="150" to="0" dur="1.8s" begin="8.8s" fill="freeze" /></path><path d="M39.33,81.98c5.89,0,11.85-0.74,17.72-1.15c2.04-0.14,4.07-0.29,6.01-0.42" class="stroke" stroke-dasharray="150"><set attributeName="opacity" to="0" dur="10.3s" /><animate attributeName="stroke-dashoffset" from="150" to="0" dur="1.8s" begin="10.3s" fill="freeze" /></path><path d="M42.19,95.31c6.06-0.56,22.81-1.06,30.35-1.54" class="stroke" stroke-dasharray="150"><set attributeName="opacity" to="0" dur="11.3s" /><animate attributeName="stroke-dashoffset" from="150" to="0" dur="1.8s" begin="11.3s" fill="freeze" /></path><text x="90" y="120" id="reset-kvg-08006-Kaisho">⟳</text><text x="70" y="120" id="pause-kvg-08006-Kaisho">◼</text><script type="text/javascript"><![CDATA[function RecurringTimer(e,t){var n,r,i=t;this.pause=function(){window.clearTimeout(n);i-=new Date-r};var s=function(){r=new Date;n=window.setTimeout(function(){i=t;s();e()},i)};this.clear=function(){window.clearTimeout(n);i=t;n=window.setTimeout(function(){i=t;s();e()},i)};this.resume=s;this.resume()}function invoketimer(){timer=new RecurringTimer(function(){svg.setCurrentTime(0)},13300.0)}var svg=document.getElementById("kvg-08006-Kaisho");var pause=document.getElementById("pause-kvg-08006-Kaisho");var reset=document.getElementById("reset-kvg-08006-Kaisho");var timer;invoketimer();reset.onclick=function(){svg.setCurrentTime(0);timer.clear();svg.unpauseAnimations();pause.innerHTML = "◼";};pause.onclick=function(){if(svg.animationsPaused()){svg.unpauseAnimations();timer.resume();pause.innerHTML="◼"}else{svg.pauseAnimations();timer.pause();pause.innerHTML="▶"}}]]></script></svg>