<svg id="kvg-08036-KaishoVt3" class="kanjivg" width="106" height="126" xmlns="http://www.w3.org/2000/svg" xmlns:xlink="http://www.w3.org/1999/xlink" xml:space="preserve" version="1.1" baseProfile="full"><defs><style type="text/css"><![CDATA[path.black{fill:none;stroke:black;stroke-width:5;stroke-linecap:round;stroke-linejoin:round;}path.grey{fill:none;stroke:#ddd;stroke-width:5;stroke-linecap:round;stroke-linejoin:round;}path.stroke{fill:none;stroke:black;stroke-width:5;stroke-linecap:round;stroke-linejoin:round;}rect{fill:none;stroke:#555;stroke-width:2;} text{font-size:16px;font-family:Segoe UI Symbol,Cambria Math,DejaVu Sans,Symbola,Quivira,STIX,Code2000;-webkit-touch-callout:none;cursor:pointer;-webkit-user-select:none;-khtml-user-select:none;-moz-user-select:none;-ms-user-select:none;user-select: none;}text:hover{color:#777;}#reset{font-weight:bold;}]]></style><marker id="markerStart" markerWidth="8" markerHeight="8" style="overflow:visible;"><circle cx="0" cy="0" r="1.5" style="stroke:none;fill:red;fill-opacity:0.5;"/></marker><marker id="markerEnd" style="overflow:visible;"><circle cx="0" cy="0" r="0.8" style="stroke:none;fill:blue;fill-opacity:0.5;"><animate attributeName="opacity" from="1" to="0" dur="3s" repeatCount="indefinite" /></circle></marker></defs><rect x="4" y="4" width="100" height="100" /><path d="M14.94,20.72c0.98,0.43,2.78,0.48,3.77,0.43c7.8-0.4,23.3-3.15,34.86-3.89c1.63-0.1,2.62,0.2,3.44,0.42" class="grey" /><path d="M24.43,23.07c0.32,1.18,1.28,2.33,1.28,3.72c0,1.39-0.16,41.3-0.16,46.29" class="grey" /><path d="M46,20.5c1,1.25,1.1,1.46,1.1,2.85s0.16,60.03,0.16,71.4" class="grey" /><path d="M26.8,37.48c3.43-0.65,6.36-1.27,9.81-1.75c0.7-0.1,1.39-0.19,2.09-0.27" class="grey" /><path d="M26.49,51.95c3.08-0.49,6.14-1.11,9.22-1.66c0.71-0.13,1.43-0.25,2.19-0.37" class="grey" /><path d="M13.25,76.74c1,0.51,2.83,0.64,3.67,0.27c3.38-1.48,25.02-11.81,30.21-14.17" class="grey" /><path d="M63.92,17.42c0.83,0.08,2.32,0.62,3.4,0.44c4.63-0.81,17.17-3.12,19.6-3.94c3-1,6,1,4.67,3.33c-1.33,2.33-10,15.67-12.33,19" class="grey" /><path d="M78.75,36.75c21.75,12,17.5,40.75,3.23,33.16" class="grey" /><path d="M67.58,18.75c0.22,1,0,71.25-0.22,77.5" class="grey" /><path d="M14.94,20.72c0.98,0.43,2.78,0.48,3.77,0.43c7.8-0.4,23.3-3.15,34.86-3.89c1.63-0.1,2.62,0.2,3.44,0.42" class="stroke" stroke-dasharray="150"><animate attributeName="stroke-dashoffset" from="150" to="0" dur="1.8s" begin="0.0s" fill="freeze" /></path><path d="M24.43,23.07c0.32,1.18,1.28,2.33,1.28,3.72c0,1.39-0.16,41.3-0.16,46.29" class="stroke" stroke-dasharray="150"><set attributeName="opacity" to="0" dur="1.1s" /><animate attributeName="stroke-dashoffset" from="150" to="0" dur="1.8s" begin="1.1s" fill="freeze" /></path><path d="M46,20.5c1,1.25,1.1,1.46,1.1,2.85s0.16,60.03,0.16,71.4" class="stroke" stroke-dasharray="150"><set attributeName="opacity" to="0" dur="2.4000000000000004s" /><animate attributeName="stroke-dashoffset" from="150" to="0" dur="1.8s" begin="2.4000000000000004s" fill="freeze" /></path><path d="M26.8,37.48c3.43-0.65,6.36-1.27,9.81-1.75c0.7-0.1,1.39-0.19,2.09-0.27" class="stroke" stroke-dasharray="150"><set attributeName="opacity" to="0" dur="4.1000000000000005s" /><animate attributeName="stroke-dashoffset" from="150" to="0" dur="1.8s" begin="4.1000000000000005s" fill="freeze" /></path><path d="M26.49,51.95c3.08-0.49,6.14-1.11,9.22-1.66c0.71-0.13,1.43-0.25,2.19-0.37" class="stroke" stroke-dasharray="150"><set attributeName="opacity" to="0" dur="5.000000000000001s" /><animate attributeName="stroke-dashoffset" from="150" to="0" dur="1.8s" begin="5.000000000000001s" fill="freeze" /></path><path d="M13.25,76.74c1,0.51,2.83,0.64,3.67,0.27c3.38-1.48,25.02-11.81,30.21-14.17" class="stroke" stroke-dasharray="150"><set attributeName="opacity" to="0" dur="5.900000000000001s" /><animate attributeName="stroke-dashoffset" from="150" to="0" dur="1.8s" begin="5.900000000000001s" fill="freeze" /></path><path d="M63.92,17.42c0.83,0.08,2.32,0.62,3.4,0.44c4.63-0.81,17.17-3.12,19.6-3.94c3-1,6,1,4.67,3.33c-1.33,2.33-10,15.67-12.33,19" class="stroke" stroke-dasharray="150"><set attributeName="opacity" to="0" dur="6.900000000000001s" /><animate attributeName="stroke-dashoffset" from="150" to="0" dur="1.8s" begin="6.900000000000001s" fill="freeze" /></path><path d="M78.75,36.75c21.75,12,17.5,40.75,3.23,33.16" class="stroke" stroke-dasharray="150"><set attributeName="opacity" to="0" dur="8.200000000000001s" /><animate attributeName="stroke-dashoffset" from="150" to="0" dur="1.8s" begin="8.200000000000001s" fill="freeze" /></path><path d="M67.58,18.75c0.22,1,0,71.25-0.22,77.5" class="stroke" stroke-dasharray="150"><set attributeName="opacity" to="0" dur="9.4s" /><animate attributeName="stroke-dashoffset" from="150" to="0" dur="1.8s" begin="9.4s" fill="freeze" /></path><text x="90" y="120" id="reset-kvg-08036-KaishoVt3">⟳</text><text x="70" y="120" id="pause-kvg-08036-KaishoVt3">◼</text><script type="text/javascript"><![CDATA[function RecurringTimer(e,t){var n,r,i=t;this.pause=function(){window.clearTimeout(n);i-=new Date-r};var s=function(){r=new Date;n=window.setTimeout(function(){i=t;s();e()},i)};this.clear=function(){window.clearTimeout(n);i=t;n=window.setTimeout(function(){i=t;s();e()},i)};this.resume=s;this.resume()}function invoketimer(){timer=new RecurringTimer(function(){svg.setCurrentTime(0)},12100.0)}var svg=document.getElementById("kvg-08036-KaishoVt3");var pause=document.getElementById("pause-kvg-08036-KaishoVt3");var reset=document.getElementById("reset-kvg-08036-KaishoVt3");var timer;invoketimer();reset.onclick=function(){svg.setCurrentTime(0);timer.clear();svg.unpauseAnimations();pause.innerHTML = "◼";};pause.onclick=function(){if(svg.animationsPaused()){svg.unpauseAnimations();timer.resume();pause.innerHTML="◼"}else{svg.pauseAnimations();timer.pause();pause.innerHTML="▶"}}]]></script></svg>