<svg id="kvg-0809d" class="kanjivg" width="106" height="126" xmlns="http://www.w3.org/2000/svg" xmlns:xlink="http://www.w3.org/1999/xlink" xml:space="preserve" version="1.1" baseProfile="full"><defs><style type="text/css"><![CDATA[path.black{fill:none;stroke:black;stroke-width:5;stroke-linecap:round;stroke-linejoin:round;}path.grey{fill:none;stroke:#ddd;stroke-width:5;stroke-linecap:round;stroke-linejoin:round;}path.stroke{fill:none;stroke:black;stroke-width:5;stroke-linecap:round;stroke-linejoin:round;}rect{fill:none;stroke:#555;stroke-width:2;} text{font-size:16px;font-family:Segoe UI Symbol,Cambria Math,DejaVu Sans,Symbola,Quivira,STIX,Code2000;-webkit-touch-callout:none;cursor:pointer;-webkit-user-select:none;-khtml-user-select:none;-moz-user-select:none;-ms-user-select:none;user-select: none;}text:hover{color:#777;}#reset{font-weight:bold;}]]></style><marker id="markerStart" markerWidth="8" markerHeight="8" style="overflow:visible;"><circle cx="0" cy="0" r="1.5" style="stroke:none;fill:red;fill-opacity:0.5;"/></marker><marker id="markerEnd" style="overflow:visible;"><circle cx="0" cy="0" r="0.8" style="stroke:none;fill:blue;fill-opacity:0.5;"><animate attributeName="opacity" from="1" to="0" dur="3s" repeatCount="indefinite" /></circle></marker></defs><rect x="4" y="4" width="100" height="100" /><path d="M19.41,17.74c0.8,0.8,1.2,2.01,1.2,3.55c0,40.46-1.61,53.46-9.61,67.1" class="grey" /><path d="M21.56,19.56c4.73-1.14,12.33-2.99,16.57-3.55c3.21-0.43,4.16,0.95,4.16,3.99c-0.01,8.26-0.1,44.7-0.1,61.55c0,12.95-3.66,6.17-6.78,3.04" class="grey" /><path d="M21.81,37.2c7.44-1.08,13.44-1.95,19.49-2.58" class="grey" /><path d="M21,55.16c6-0.66,14.28-1.53,20.15-1.95" class="grey" /><path d="M55.87,21.16c2.25,0.47,4.39,0.2,6.13-0.01c5.43-0.66,15.22-1.92,21.76-2.53c1.9-0.18,3.85-0.29,5.71,0.25" class="grey" /><path d="M49.63,44.48c2.32,0.74,4.9,0.23,7.25-0.01c9.72-0.98,24.58-2.42,33.51-3.08c2.22-0.16,4.3-0.3,6.49,0.12" class="grey" /><path d="M72.06,22.63c1.09,1.09,1.54,2.62,1.54,4.33c0,2.92-0.06,45.71-0.08,62.29c0,3.5-0.01,5.83-0.01,6.38" class="grey" /><path d="M19.41,17.74c0.8,0.8,1.2,2.01,1.2,3.55c0,40.46-1.61,53.46-9.61,67.1" class="stroke" stroke-dasharray="150"><animate attributeName="stroke-dashoffset" from="150" to="0" dur="1.8s" begin="0.0s" fill="freeze" /></path><path d="M21.56,19.56c4.73-1.14,12.33-2.99,16.57-3.55c3.21-0.43,4.16,0.95,4.16,3.99c-0.01,8.26-0.1,44.7-0.1,61.55c0,12.95-3.66,6.17-6.78,3.04" class="stroke" stroke-dasharray="150"><set attributeName="opacity" to="0" dur="1.7s" /><animate attributeName="stroke-dashoffset" from="150" to="0" dur="1.8s" begin="1.7s" fill="freeze" /></path><path d="M21.81,37.2c7.44-1.08,13.44-1.95,19.49-2.58" class="stroke" stroke-dasharray="150"><set attributeName="opacity" to="0" dur="3.5999999999999996s" /><animate attributeName="stroke-dashoffset" from="150" to="0" dur="1.8s" begin="3.5999999999999996s" fill="freeze" /></path><path d="M21,55.16c6-0.66,14.28-1.53,20.15-1.95" class="stroke" stroke-dasharray="150"><set attributeName="opacity" to="0" dur="4.5s" /><animate attributeName="stroke-dashoffset" from="150" to="0" dur="1.8s" begin="4.5s" fill="freeze" /></path><path d="M55.87,21.16c2.25,0.47,4.39,0.2,6.13-0.01c5.43-0.66,15.22-1.92,21.76-2.53c1.9-0.18,3.85-0.29,5.71,0.25" class="stroke" stroke-dasharray="150"><set attributeName="opacity" to="0" dur="5.5s" /><animate attributeName="stroke-dashoffset" from="150" to="0" dur="1.8s" begin="5.5s" fill="freeze" /></path><path d="M49.63,44.48c2.32,0.74,4.9,0.23,7.25-0.01c9.72-0.98,24.58-2.42,33.51-3.08c2.22-0.16,4.3-0.3,6.49,0.12" class="stroke" stroke-dasharray="150"><set attributeName="opacity" to="0" dur="6.5s" /><animate attributeName="stroke-dashoffset" from="150" to="0" dur="1.8s" begin="6.5s" fill="freeze" /></path><path d="M72.06,22.63c1.09,1.09,1.54,2.62,1.54,4.33c0,2.92-0.06,45.71-0.08,62.29c0,3.5-0.01,5.83-0.01,6.38" class="stroke" stroke-dasharray="150"><set attributeName="opacity" to="0" dur="7.7s" /><animate attributeName="stroke-dashoffset" from="150" to="0" dur="1.8s" begin="7.7s" fill="freeze" /></path><text x="90" y="120" id="reset-kvg-0809d">⟳</text><text x="70" y="120" id="pause-kvg-0809d">◼</text><script type="text/javascript"><![CDATA[function RecurringTimer(e,t){var n,r,i=t;this.pause=function(){window.clearTimeout(n);i-=new Date-r};var s=function(){r=new Date;n=window.setTimeout(function(){i=t;s();e()},i)};this.clear=function(){window.clearTimeout(n);i=t;n=window.setTimeout(function(){i=t;s();e()},i)};this.resume=s;this.resume()}function invoketimer(){timer=new RecurringTimer(function(){svg.setCurrentTime(0)},10400.0)}var svg=document.getElementById("kvg-0809d");var pause=document.getElementById("pause-kvg-0809d");var reset=document.getElementById("reset-kvg-0809d");var timer;invoketimer();reset.onclick=function(){svg.setCurrentTime(0);timer.clear();svg.unpauseAnimations();pause.innerHTML = "◼";};pause.onclick=function(){if(svg.animationsPaused()){svg.unpauseAnimations();timer.resume();pause.innerHTML="◼"}else{svg.pauseAnimations();timer.pause();pause.innerHTML="▶"}}]]></script></svg>