<svg id="kvg-080ba" class="kanjivg" width="106" height="126" xmlns="http://www.w3.org/2000/svg" xmlns:xlink="http://www.w3.org/1999/xlink" xml:space="preserve" version="1.1" baseProfile="full"><defs><style type="text/css"><![CDATA[path.black{fill:none;stroke:black;stroke-width:5;stroke-linecap:round;stroke-linejoin:round;}path.grey{fill:none;stroke:#ddd;stroke-width:5;stroke-linecap:round;stroke-linejoin:round;}path.stroke{fill:none;stroke:black;stroke-width:5;stroke-linecap:round;stroke-linejoin:round;}rect{fill:none;stroke:#555;stroke-width:2;} text{font-size:16px;font-family:Segoe UI Symbol,Cambria Math,DejaVu Sans,Symbola,Quivira,STIX,Code2000;-webkit-touch-callout:none;cursor:pointer;-webkit-user-select:none;-khtml-user-select:none;-moz-user-select:none;-ms-user-select:none;user-select: none;}text:hover{color:#777;}#reset{font-weight:bold;}]]></style><marker id="markerStart" markerWidth="8" markerHeight="8" style="overflow:visible;"><circle cx="0" cy="0" r="1.5" style="stroke:none;fill:red;fill-opacity:0.5;"/></marker><marker id="markerEnd" style="overflow:visible;"><circle cx="0" cy="0" r="0.8" style="stroke:none;fill:blue;fill-opacity:0.5;"><animate attributeName="opacity" from="1" to="0" dur="3s" repeatCount="indefinite" /></circle></marker></defs><rect x="4" y="4" width="100" height="100" /><path d="M19.57,17.76c0.52,0.96,0.77,2.14,0.78,3.09C20.75,57,19.5,74.38,11,90.87" class="grey" /><path d="M21.38,19.84c4.87-0.84,12.43-2.37,13.97-2.5c2.75-0.23,3.44,1.32,3.44,2.7c0,3.27-0.02,46.09-0.02,64.67c0,11.37-5.8,3.6-7.56,2.07" class="grey" /><path d="M21.38,40.01c5.49-0.88,10.37-1.63,16.77-1.85" class="grey" /><path d="M20.83,57.45c5.05-0.57,12.18-1.04,17.23-1.47" class="grey" /><path d="M69.38,12.75c1.12,1.12,1.52,2.5,1.52,4.16c0,3.34-0.1,6.09-0.1,8.4" class="grey" /><path d="M46,28.61c2.64,0.28,5.26,0.19,7.88-0.08c9.31-0.97,27.06-2.87,37-3.44c2.18-0.12,4.75-0.21,6.63,0.32" class="grey" /><path d="M51.15,46.5c0.99,0.99,1.34,2.5,1.34,4.11c0,0.58,0,12.57-0.08,20.4c-0.03,2.49-0.05,4.57-0.08,5.71" class="grey" /><path d="M52.43,48.96c3.01-0.27,31.68-3.47,33.93-3.59c2.39-0.13,4.12,1.35,4.12,3.09c0,8.29,0.02,17.04-0.61,23.17c-0.77,7.45-3.12,4.11-5.9,1.52" class="grey" /><path d="M69.34,32.63c0.95,0.95,1.34,2.37,1.34,3.86c0,3.42-0.05,41.08-0.06,55.13c0,2.43,0,4.16,0,4.88" class="grey" /><path d="M19.57,17.76c0.52,0.96,0.77,2.14,0.78,3.09C20.75,57,19.5,74.38,11,90.87" class="stroke" stroke-dasharray="150"><animate attributeName="stroke-dashoffset" from="150" to="0" dur="1.8s" begin="0.0s" fill="freeze" /></path><path d="M21.38,19.84c4.87-0.84,12.43-2.37,13.97-2.5c2.75-0.23,3.44,1.32,3.44,2.7c0,3.27-0.02,46.09-0.02,64.67c0,11.37-5.8,3.6-7.56,2.07" class="stroke" stroke-dasharray="150"><set attributeName="opacity" to="0" dur="1.7s" /><animate attributeName="stroke-dashoffset" from="150" to="0" dur="1.8s" begin="1.7s" fill="freeze" /></path><path d="M21.38,40.01c5.49-0.88,10.37-1.63,16.77-1.85" class="stroke" stroke-dasharray="150"><set attributeName="opacity" to="0" dur="3.5s" /><animate attributeName="stroke-dashoffset" from="150" to="0" dur="1.8s" begin="3.5s" fill="freeze" /></path><path d="M20.83,57.45c5.05-0.57,12.18-1.04,17.23-1.47" class="stroke" stroke-dasharray="150"><set attributeName="opacity" to="0" dur="4.4s" /><animate attributeName="stroke-dashoffset" from="150" to="0" dur="1.8s" begin="4.4s" fill="freeze" /></path><path d="M69.38,12.75c1.12,1.12,1.52,2.5,1.52,4.16c0,3.34-0.1,6.09-0.1,8.4" class="stroke" stroke-dasharray="150"><set attributeName="opacity" to="0" dur="5.300000000000001s" /><animate attributeName="stroke-dashoffset" from="150" to="0" dur="1.8s" begin="5.300000000000001s" fill="freeze" /></path><path d="M46,28.61c2.64,0.28,5.26,0.19,7.88-0.08c9.31-0.97,27.06-2.87,37-3.44c2.18-0.12,4.75-0.21,6.63,0.32" class="stroke" stroke-dasharray="150"><set attributeName="opacity" to="0" dur="6.200000000000001s" /><animate attributeName="stroke-dashoffset" from="150" to="0" dur="1.8s" begin="6.200000000000001s" fill="freeze" /></path><path d="M51.15,46.5c0.99,0.99,1.34,2.5,1.34,4.11c0,0.58,0,12.57-0.08,20.4c-0.03,2.49-0.05,4.57-0.08,5.71" class="stroke" stroke-dasharray="150"><set attributeName="opacity" to="0" dur="7.500000000000001s" /><animate attributeName="stroke-dashoffset" from="150" to="0" dur="1.8s" begin="7.500000000000001s" fill="freeze" /></path><path d="M52.43,48.96c3.01-0.27,31.68-3.47,33.93-3.59c2.39-0.13,4.12,1.35,4.12,3.09c0,8.29,0.02,17.04-0.61,23.17c-0.77,7.45-3.12,4.11-5.9,1.52" class="stroke" stroke-dasharray="150"><set attributeName="opacity" to="0" dur="8.5s" /><animate attributeName="stroke-dashoffset" from="150" to="0" dur="1.8s" begin="8.5s" fill="freeze" /></path><path d="M69.34,32.63c0.95,0.95,1.34,2.37,1.34,3.86c0,3.42-0.05,41.08-0.06,55.13c0,2.43,0,4.16,0,4.88" class="stroke" stroke-dasharray="150"><set attributeName="opacity" to="0" dur="10.2s" /><animate attributeName="stroke-dashoffset" from="150" to="0" dur="1.8s" begin="10.2s" fill="freeze" /></path><text x="90" y="120" id="reset-kvg-080ba">⟳</text><text x="70" y="120" id="pause-kvg-080ba">◼</text><script type="text/javascript"><![CDATA[function RecurringTimer(e,t){var n,r,i=t;this.pause=function(){window.clearTimeout(n);i-=new Date-r};var s=function(){r=new Date;n=window.setTimeout(function(){i=t;s();e()},i)};this.clear=function(){window.clearTimeout(n);i=t;n=window.setTimeout(function(){i=t;s();e()},i)};this.resume=s;this.resume()}function invoketimer(){timer=new RecurringTimer(function(){svg.setCurrentTime(0)},12700.0)}var svg=document.getElementById("kvg-080ba");var pause=document.getElementById("pause-kvg-080ba");var reset=document.getElementById("reset-kvg-080ba");var timer;invoketimer();reset.onclick=function(){svg.setCurrentTime(0);timer.clear();svg.unpauseAnimations();pause.innerHTML = "◼";};pause.onclick=function(){if(svg.animationsPaused()){svg.unpauseAnimations();timer.resume();pause.innerHTML="◼"}else{svg.pauseAnimations();timer.pause();pause.innerHTML="▶"}}]]></script></svg>