<svg id="kvg-080b4-Kaisho" class="kanjivg" width="106" height="126" xmlns="http://www.w3.org/2000/svg" xmlns:xlink="http://www.w3.org/1999/xlink" xml:space="preserve" version="1.1" baseProfile="full"><defs><style type="text/css"><![CDATA[path.black{fill:none;stroke:black;stroke-width:5;stroke-linecap:round;stroke-linejoin:round;}path.grey{fill:none;stroke:#ddd;stroke-width:5;stroke-linecap:round;stroke-linejoin:round;}path.stroke{fill:none;stroke:black;stroke-width:5;stroke-linecap:round;stroke-linejoin:round;}rect{fill:none;stroke:#555;stroke-width:2;} text{font-size:16px;font-family:Segoe UI Symbol,Cambria Math,DejaVu Sans,Symbola,Quivira,STIX,Code2000;-webkit-touch-callout:none;cursor:pointer;-webkit-user-select:none;-khtml-user-select:none;-moz-user-select:none;-ms-user-select:none;user-select: none;}text:hover{color:#777;}#reset{font-weight:bold;}]]></style><marker id="markerStart" markerWidth="8" markerHeight="8" style="overflow:visible;"><circle cx="0" cy="0" r="1.5" style="stroke:none;fill:red;fill-opacity:0.5;"/></marker><marker id="markerEnd" style="overflow:visible;"><circle cx="0" cy="0" r="0.8" style="stroke:none;fill:blue;fill-opacity:0.5;"><animate attributeName="opacity" from="1" to="0" dur="3s" repeatCount="indefinite" /></circle></marker></defs><rect x="4" y="4" width="100" height="100" /><path d="M67.59,10.15c0.18,1.25,0.1,2.21-0.88,3.13C57.25,22.25,44.5,28.5,26.55,33.42" class="grey" /><path d="M34.54,16.77C55,19,65.34,24.43,76.44,31.6" class="grey" /><path d="M52.65,30.93c0.1,0.95,0.34,2.48-0.21,3.81C48,45.5,38,59.25,15.64,71.2" class="grey" /><path d="M13.25,43.08c1.5,0.58,4.25,0.72,5.75,0.58c8.82-0.79,55.76-5.62,71.75-5.6c2.5,0,4,0.28,5.25,0.57" class="grey" /><path d="M42.98,53.9c0.27,0.85,0.99,2.29,1.19,2.94c0.2,0.65,0.28,41.18,0.2,42.63" class="grey" /><path d="M44.36,54.89c2.38-0.16,25.72-3.81,27.49-3.99c3.17-0.32,4.36,2.1,3.97,3.07c-0.38,0.93-0.59,25.55-0.59,38.64c0,12.39-6.95,1.76-7.75,0.95" class="grey" /><path d="M44.86,65.99c5.2-0.62,10.43-1.02,15.66-1.43c1.43-0.11,2.86-0.22,4.25-0.32" class="grey" /><path d="M44.46,77.58c4.97-0.38,10.44-0.8,15.42-1.19c1.48-0.12,2.97-0.23,4.43-0.34" class="grey" /><path d="M67.59,10.15c0.18,1.25,0.1,2.21-0.88,3.13C57.25,22.25,44.5,28.5,26.55,33.42" class="stroke" stroke-dasharray="150"><animate attributeName="stroke-dashoffset" from="150" to="0" dur="1.8s" begin="0.0s" fill="freeze" /></path><path d="M34.54,16.77C55,19,65.34,24.43,76.44,31.6" class="stroke" stroke-dasharray="150"><set attributeName="opacity" to="0" dur="1.2s" /><animate attributeName="stroke-dashoffset" from="150" to="0" dur="1.8s" begin="1.2s" fill="freeze" /></path><path d="M52.65,30.93c0.1,0.95,0.34,2.48-0.21,3.81C48,45.5,38,59.25,15.64,71.2" class="stroke" stroke-dasharray="150"><set attributeName="opacity" to="0" dur="2.3s" /><animate attributeName="stroke-dashoffset" from="150" to="0" dur="1.8s" begin="2.3s" fill="freeze" /></path><path d="M13.25,43.08c1.5,0.58,4.25,0.72,5.75,0.58c8.82-0.79,55.76-5.62,71.75-5.6c2.5,0,4,0.28,5.25,0.57" class="stroke" stroke-dasharray="150"><set attributeName="opacity" to="0" dur="3.6999999999999997s" /><animate attributeName="stroke-dashoffset" from="150" to="0" dur="1.8s" begin="3.6999999999999997s" fill="freeze" /></path><path d="M42.98,53.9c0.27,0.85,0.99,2.29,1.19,2.94c0.2,0.65,0.28,41.18,0.2,42.63" class="stroke" stroke-dasharray="150"><set attributeName="opacity" to="0" dur="5.3999999999999995s" /><animate attributeName="stroke-dashoffset" from="150" to="0" dur="1.8s" begin="5.3999999999999995s" fill="freeze" /></path><path d="M44.36,54.89c2.38-0.16,25.72-3.81,27.49-3.99c3.17-0.32,4.36,2.1,3.97,3.07c-0.38,0.93-0.59,25.55-0.59,38.64c0,12.39-6.95,1.76-7.75,0.95" class="stroke" stroke-dasharray="150"><set attributeName="opacity" to="0" dur="6.6s" /><animate attributeName="stroke-dashoffset" from="150" to="0" dur="1.8s" begin="6.6s" fill="freeze" /></path><path d="M44.86,65.99c5.2-0.62,10.43-1.02,15.66-1.43c1.43-0.11,2.86-0.22,4.25-0.32" class="stroke" stroke-dasharray="150"><set attributeName="opacity" to="0" dur="8.299999999999999s" /><animate attributeName="stroke-dashoffset" from="150" to="0" dur="1.8s" begin="8.299999999999999s" fill="freeze" /></path><path d="M44.46,77.58c4.97-0.38,10.44-0.8,15.42-1.19c1.48-0.12,2.97-0.23,4.43-0.34" class="stroke" stroke-dasharray="150"><set attributeName="opacity" to="0" dur="9.2s" /><animate attributeName="stroke-dashoffset" from="150" to="0" dur="1.8s" begin="9.2s" fill="freeze" /></path><text x="90" y="120" id="reset-kvg-080b4-Kaisho">⟳</text><text x="70" y="120" id="pause-kvg-080b4-Kaisho">◼</text><script type="text/javascript"><![CDATA[function RecurringTimer(e,t){var n,r,i=t;this.pause=function(){window.clearTimeout(n);i-=new Date-r};var s=function(){r=new Date;n=window.setTimeout(function(){i=t;s();e()},i)};this.clear=function(){window.clearTimeout(n);i=t;n=window.setTimeout(function(){i=t;s();e()},i)};this.resume=s;this.resume()}function invoketimer(){timer=new RecurringTimer(function(){svg.setCurrentTime(0)},11100.0)}var svg=document.getElementById("kvg-080b4-Kaisho");var pause=document.getElementById("pause-kvg-080b4-Kaisho");var reset=document.getElementById("reset-kvg-080b4-Kaisho");var timer;invoketimer();reset.onclick=function(){svg.setCurrentTime(0);timer.clear();svg.unpauseAnimations();pause.innerHTML = "◼";};pause.onclick=function(){if(svg.animationsPaused()){svg.unpauseAnimations();timer.resume();pause.innerHTML="◼"}else{svg.pauseAnimations();timer.pause();pause.innerHTML="▶"}}]]></script></svg>