<svg id="kvg-080d6" class="kanjivg" width="106" height="126" xmlns="http://www.w3.org/2000/svg" xmlns:xlink="http://www.w3.org/1999/xlink" xml:space="preserve" version="1.1" baseProfile="full"><defs><style type="text/css"><![CDATA[path.black{fill:none;stroke:black;stroke-width:5;stroke-linecap:round;stroke-linejoin:round;}path.grey{fill:none;stroke:#ddd;stroke-width:5;stroke-linecap:round;stroke-linejoin:round;}path.stroke{fill:none;stroke:black;stroke-width:5;stroke-linecap:round;stroke-linejoin:round;}rect{fill:none;stroke:#555;stroke-width:2;} text{font-size:16px;font-family:Segoe UI Symbol,Cambria Math,DejaVu Sans,Symbola,Quivira,STIX,Code2000;-webkit-touch-callout:none;cursor:pointer;-webkit-user-select:none;-khtml-user-select:none;-moz-user-select:none;-ms-user-select:none;user-select: none;}text:hover{color:#777;}#reset{font-weight:bold;}]]></style><marker id="markerStart" markerWidth="8" markerHeight="8" style="overflow:visible;"><circle cx="0" cy="0" r="1.5" style="stroke:none;fill:red;fill-opacity:0.5;"/></marker><marker id="markerEnd" style="overflow:visible;"><circle cx="0" cy="0" r="0.8" style="stroke:none;fill:blue;fill-opacity:0.5;"><animate attributeName="opacity" from="1" to="0" dur="3s" repeatCount="indefinite" /></circle></marker></defs><rect x="4" y="4" width="100" height="100" /><path d="M18.92,21.42c0.9,0.9,1.33,2.83,1.33,4.67c0,36.29-3.5,54.17-10.83,64.83" class="grey" /><path d="M20.25,22.58c2.04-0.06,13.81-2.83,15.33-2.83c1.67,0,3.29,1.29,3.29,2.63c0,3.16-0.01,45.53-0.01,63.49c0,12.35-5.54,3.87-7.28,2.39" class="grey" /><path d="M21.58,40.58c4.52-0.26,12.36-1.73,16.33-1.75" class="grey" /><path d="M20.18,58.27c4.69-0.39,12.37-1.46,17.62-1.94" class="grey" /><path d="M59.44,23.33c0.11,0.96-0.05,1.85-0.48,2.7c-1.65,3.79-6.58,9.85-13.79,14.8" class="grey" /><path d="M80.75,22.17c6.02,2.42,15.49,10.48,17,14.25" class="grey" /><path d="M52.25,46c1.66,0.58,3.53,0.54,5.25,0.38c8.68-0.79,20.5-2.41,28.26-3.01c2.3-0.17,3.78,0,5.99,0.46" class="grey" /><path d="M47.33,64.25c1.96,0.86,3.97,0.84,6.04,0.64c9.54-0.95,29.83-3.07,37.87-3.56c2.27-0.14,4.88,0.05,6.5,0.59" class="grey" /><path d="M70.08,12.42c1.19,1.19,1.69,2.83,1.69,4.7c0,0.86-0.01,50.27-0.02,72.14c0,4.58,0,7.96,0,9.42" class="grey" /><path d="M18.92,21.42c0.9,0.9,1.33,2.83,1.33,4.67c0,36.29-3.5,54.17-10.83,64.83" class="stroke" stroke-dasharray="150"><animate attributeName="stroke-dashoffset" from="150" to="0" dur="1.8s" begin="0.0s" fill="freeze" /></path><path d="M20.25,22.58c2.04-0.06,13.81-2.83,15.33-2.83c1.67,0,3.29,1.29,3.29,2.63c0,3.16-0.01,45.53-0.01,63.49c0,12.35-5.54,3.87-7.28,2.39" class="stroke" stroke-dasharray="150"><set attributeName="opacity" to="0" dur="1.7s" /><animate attributeName="stroke-dashoffset" from="150" to="0" dur="1.8s" begin="1.7s" fill="freeze" /></path><path d="M21.58,40.58c4.52-0.26,12.36-1.73,16.33-1.75" class="stroke" stroke-dasharray="150"><set attributeName="opacity" to="0" dur="3.5s" /><animate attributeName="stroke-dashoffset" from="150" to="0" dur="1.8s" begin="3.5s" fill="freeze" /></path><path d="M20.18,58.27c4.69-0.39,12.37-1.46,17.62-1.94" class="stroke" stroke-dasharray="150"><set attributeName="opacity" to="0" dur="4.4s" /><animate attributeName="stroke-dashoffset" from="150" to="0" dur="1.8s" begin="4.4s" fill="freeze" /></path><path d="M59.44,23.33c0.11,0.96-0.05,1.85-0.48,2.7c-1.65,3.79-6.58,9.85-13.79,14.8" class="stroke" stroke-dasharray="150"><set attributeName="opacity" to="0" dur="5.300000000000001s" /><animate attributeName="stroke-dashoffset" from="150" to="0" dur="1.8s" begin="5.300000000000001s" fill="freeze" /></path><path d="M80.75,22.17c6.02,2.42,15.49,10.48,17,14.25" class="stroke" stroke-dasharray="150"><set attributeName="opacity" to="0" dur="6.300000000000001s" /><animate attributeName="stroke-dashoffset" from="150" to="0" dur="1.8s" begin="6.300000000000001s" fill="freeze" /></path><path d="M52.25,46c1.66,0.58,3.53,0.54,5.25,0.38c8.68-0.79,20.5-2.41,28.26-3.01c2.3-0.17,3.78,0,5.99,0.46" class="stroke" stroke-dasharray="150"><set attributeName="opacity" to="0" dur="7.300000000000001s" /><animate attributeName="stroke-dashoffset" from="150" to="0" dur="1.8s" begin="7.300000000000001s" fill="freeze" /></path><path d="M47.33,64.25c1.96,0.86,3.97,0.84,6.04,0.64c9.54-0.95,29.83-3.07,37.87-3.56c2.27-0.14,4.88,0.05,6.5,0.59" class="stroke" stroke-dasharray="150"><set attributeName="opacity" to="0" dur="8.3s" /><animate attributeName="stroke-dashoffset" from="150" to="0" dur="1.8s" begin="8.3s" fill="freeze" /></path><path d="M70.08,12.42c1.19,1.19,1.69,2.83,1.69,4.7c0,0.86-0.01,50.27-0.02,72.14c0,4.58,0,7.96,0,9.42" class="stroke" stroke-dasharray="150"><set attributeName="opacity" to="0" dur="9.600000000000001s" /><animate attributeName="stroke-dashoffset" from="150" to="0" dur="1.8s" begin="9.600000000000001s" fill="freeze" /></path><text x="90" y="120" id="reset-kvg-080d6">⟳</text><text x="70" y="120" id="pause-kvg-080d6">◼</text><script type="text/javascript"><![CDATA[function RecurringTimer(e,t){var n,r,i=t;this.pause=function(){window.clearTimeout(n);i-=new Date-r};var s=function(){r=new Date;n=window.setTimeout(function(){i=t;s();e()},i)};this.clear=function(){window.clearTimeout(n);i=t;n=window.setTimeout(function(){i=t;s();e()},i)};this.resume=s;this.resume()}function invoketimer(){timer=new RecurringTimer(function(){svg.setCurrentTime(0)},12300.0)}var svg=document.getElementById("kvg-080d6");var pause=document.getElementById("pause-kvg-080d6");var reset=document.getElementById("reset-kvg-080d6");var timer;invoketimer();reset.onclick=function(){svg.setCurrentTime(0);timer.clear();svg.unpauseAnimations();pause.innerHTML = "◼";};pause.onclick=function(){if(svg.animationsPaused()){svg.unpauseAnimations();timer.resume();pause.innerHTML="◼"}else{svg.pauseAnimations();timer.pause();pause.innerHTML="▶"}}]]></script></svg>