<svg id="kvg-08170-Kaisho" class="kanjivg" width="106" height="126" xmlns="http://www.w3.org/2000/svg" xmlns:xlink="http://www.w3.org/1999/xlink" xml:space="preserve" version="1.1" baseProfile="full"><defs><style type="text/css"><![CDATA[path.black{fill:none;stroke:black;stroke-width:5;stroke-linecap:round;stroke-linejoin:round;}path.grey{fill:none;stroke:#ddd;stroke-width:5;stroke-linecap:round;stroke-linejoin:round;}path.stroke{fill:none;stroke:black;stroke-width:5;stroke-linecap:round;stroke-linejoin:round;}rect{fill:none;stroke:#555;stroke-width:2;} text{font-size:16px;font-family:Segoe UI Symbol,Cambria Math,DejaVu Sans,Symbola,Quivira,STIX,Code2000;-webkit-touch-callout:none;cursor:pointer;-webkit-user-select:none;-khtml-user-select:none;-moz-user-select:none;-ms-user-select:none;user-select: none;}text:hover{color:#777;}#reset{font-weight:bold;}]]></style><marker id="markerStart" markerWidth="8" markerHeight="8" style="overflow:visible;"><circle cx="0" cy="0" r="1.5" style="stroke:none;fill:red;fill-opacity:0.5;"/></marker><marker id="markerEnd" style="overflow:visible;"><circle cx="0" cy="0" r="0.8" style="stroke:none;fill:blue;fill-opacity:0.5;"><animate attributeName="opacity" from="1" to="0" dur="3s" repeatCount="indefinite" /></circle></marker></defs><rect x="4" y="4" width="100" height="100" /><path d="M17.75,20.25c0.75,1,1,1.97,1,3c0,4.25-0.15,25-0.25,27.25C18,61.25,16,79.5,9.75,90" class="grey" /><path d="M20.25,22.25C23.25,22,31.8,19.99,34,19.5c2.25-0.5,3.5,1.67,3.5,3.25c0,6.75-0.25,41.75-0.25,62c0,10.75-4.75,5.25-7.5,2.25" class="grey" /><path d="M20.25,39.5c2.67-0.43,4.83-0.9,7.5-1.34c0.61-0.1,1.22-0.2,1.84-0.3" class="grey" /><path d="M19.5,57.75c2.7-0.39,5.39-0.82,8.09-1.19c0.7-0.09,1.4-0.18,2.1-0.27" class="grey" /><path d="M48.14,19.64c0.64,0.36,3.82,0.45,4.47,0.36c7.14-1,26.64-3.5,33.14-4.12c1.07-0.1,3.22,0.17,3.75,0.35" class="grey" /><path d="M48.48,32.84c0.28,0.3,0.57,0.55,0.69,0.92c0.97,2.97,2.14,11.15,2.8,16.47" class="grey" /><path d="M50.23,33.86c6.86-1.24,36.25-4.76,39.78-5.18c1.29-0.15,2.07,1.55,1.89,2.45c-0.77,3.73-1.99,8.74-3.63,14.12" class="grey" /><path d="M60.44,21.36c0.75,0.47,1.31,2.1,1.34,3.05C62,30.5,62.5,34,63.25,46.28" class="grey" /><path d="M75.34,18.98c0.75,0.47,1.42,1.55,1.27,3.7C76.25,28.25,76,35,75.21,44.11" class="grey" /><path d="M52.25,47.78c4.16-0.48,31.35-4.43,36.63-4.91" class="grey" /><path d="M64.63,51.53c0.35,1.18,0.07,2.65-0.17,4.12c-0.7,4.22-3.38,11.07-7.76,19.31c-0.95,1.79-0.21,2.53,0.51,2.55c7.19,0.2,27.04,8.34,32.29,17.56" class="grey" /><path d="M80.33,59.54c0.09,0.84,0.19,2.88-0.19,4.09C77,73.75,68,91.5,49.37,96" class="grey" /><path d="M43.9,65.53c0.71,0.29,2.02,0.36,2.74,0.29C53,65.25,80.5,62,95.03,61.77c1.19-0.02,3.24,0.27,4.21,0.79" class="grey" /><path d="M17.75,20.25c0.75,1,1,1.97,1,3c0,4.25-0.15,25-0.25,27.25C18,61.25,16,79.5,9.75,90" class="stroke" stroke-dasharray="150"><animate attributeName="stroke-dashoffset" from="150" to="0" dur="1.8s" begin="0.0s" fill="freeze" /></path><path d="M20.25,22.25C23.25,22,31.8,19.99,34,19.5c2.25-0.5,3.5,1.67,3.5,3.25c0,6.75-0.25,41.75-0.25,62c0,10.75-4.75,5.25-7.5,2.25" class="stroke" stroke-dasharray="150"><set attributeName="opacity" to="0" dur="1.7s" /><animate attributeName="stroke-dashoffset" from="150" to="0" dur="1.8s" begin="1.7s" fill="freeze" /></path><path d="M20.25,39.5c2.67-0.43,4.83-0.9,7.5-1.34c0.61-0.1,1.22-0.2,1.84-0.3" class="stroke" stroke-dasharray="150"><set attributeName="opacity" to="0" dur="3.5s" /><animate attributeName="stroke-dashoffset" from="150" to="0" dur="1.8s" begin="3.5s" fill="freeze" /></path><path d="M19.5,57.75c2.7-0.39,5.39-0.82,8.09-1.19c0.7-0.09,1.4-0.18,2.1-0.27" class="stroke" stroke-dasharray="150"><set attributeName="opacity" to="0" dur="4.4s" /><animate attributeName="stroke-dashoffset" from="150" to="0" dur="1.8s" begin="4.4s" fill="freeze" /></path><path d="M48.14,19.64c0.64,0.36,3.82,0.45,4.47,0.36c7.14-1,26.64-3.5,33.14-4.12c1.07-0.1,3.22,0.17,3.75,0.35" class="stroke" stroke-dasharray="150"><set attributeName="opacity" to="0" dur="5.300000000000001s" /><animate attributeName="stroke-dashoffset" from="150" to="0" dur="1.8s" begin="5.300000000000001s" fill="freeze" /></path><path d="M48.48,32.84c0.28,0.3,0.57,0.55,0.69,0.92c0.97,2.97,2.14,11.15,2.8,16.47" class="stroke" stroke-dasharray="150"><set attributeName="opacity" to="0" dur="6.4s" /><animate attributeName="stroke-dashoffset" from="150" to="0" dur="1.8s" begin="6.4s" fill="freeze" /></path><path d="M50.23,33.86c6.86-1.24,36.25-4.76,39.78-5.18c1.29-0.15,2.07,1.55,1.89,2.45c-0.77,3.73-1.99,8.74-3.63,14.12" class="stroke" stroke-dasharray="150"><set attributeName="opacity" to="0" dur="7.300000000000001s" /><animate attributeName="stroke-dashoffset" from="150" to="0" dur="1.8s" begin="7.300000000000001s" fill="freeze" /></path><path d="M60.44,21.36c0.75,0.47,1.31,2.1,1.34,3.05C62,30.5,62.5,34,63.25,46.28" class="stroke" stroke-dasharray="150"><set attributeName="opacity" to="0" dur="8.700000000000001s" /><animate attributeName="stroke-dashoffset" from="150" to="0" dur="1.8s" begin="8.700000000000001s" fill="freeze" /></path><path d="M75.34,18.98c0.75,0.47,1.42,1.55,1.27,3.7C76.25,28.25,76,35,75.21,44.11" class="stroke" stroke-dasharray="150"><set attributeName="opacity" to="0" dur="9.700000000000001s" /><animate attributeName="stroke-dashoffset" from="150" to="0" dur="1.8s" begin="9.700000000000001s" fill="freeze" /></path><path d="M52.25,47.78c4.16-0.48,31.35-4.43,36.63-4.91" class="stroke" stroke-dasharray="150"><set attributeName="opacity" to="0" dur="10.700000000000001s" /><animate attributeName="stroke-dashoffset" from="150" to="0" dur="1.8s" begin="10.700000000000001s" fill="freeze" /></path><path d="M64.63,51.53c0.35,1.18,0.07,2.65-0.17,4.12c-0.7,4.22-3.38,11.07-7.76,19.31c-0.95,1.79-0.21,2.53,0.51,2.55c7.19,0.2,27.04,8.34,32.29,17.56" class="stroke" stroke-dasharray="150"><set attributeName="opacity" to="0" dur="11.700000000000001s" /><animate attributeName="stroke-dashoffset" from="150" to="0" dur="1.8s" begin="11.700000000000001s" fill="freeze" /></path><path d="M80.33,59.54c0.09,0.84,0.19,2.88-0.19,4.09C77,73.75,68,91.5,49.37,96" class="stroke" stroke-dasharray="150"><set attributeName="opacity" to="0" dur="13.200000000000001s" /><animate attributeName="stroke-dashoffset" from="150" to="0" dur="1.8s" begin="13.200000000000001s" fill="freeze" /></path><path d="M43.9,65.53c0.71,0.29,2.02,0.36,2.74,0.29C53,65.25,80.5,62,95.03,61.77c1.19-0.02,3.24,0.27,4.21,0.79" class="stroke" stroke-dasharray="150"><set attributeName="opacity" to="0" dur="14.500000000000002s" /><animate attributeName="stroke-dashoffset" from="150" to="0" dur="1.8s" begin="14.500000000000002s" fill="freeze" /></path><text x="90" y="120" id="reset-kvg-08170-Kaisho">⟳</text><text x="70" y="120" id="pause-kvg-08170-Kaisho">◼</text><script type="text/javascript"><![CDATA[function RecurringTimer(e,t){var n,r,i=t;this.pause=function(){window.clearTimeout(n);i-=new Date-r};var s=function(){r=new Date;n=window.setTimeout(function(){i=t;s();e()},i)};this.clear=function(){window.clearTimeout(n);i=t;n=window.setTimeout(function(){i=t;s();e()},i)};this.resume=s;this.resume()}function invoketimer(){timer=new RecurringTimer(function(){svg.setCurrentTime(0)},16900.0)}var svg=document.getElementById("kvg-08170-Kaisho");var pause=document.getElementById("pause-kvg-08170-Kaisho");var reset=document.getElementById("reset-kvg-08170-Kaisho");var timer;invoketimer();reset.onclick=function(){svg.setCurrentTime(0);timer.clear();svg.unpauseAnimations();pause.innerHTML = "◼";};pause.onclick=function(){if(svg.animationsPaused()){svg.unpauseAnimations();timer.resume();pause.innerHTML="◼"}else{svg.pauseAnimations();timer.pause();pause.innerHTML="▶"}}]]></script></svg>