<svg id="kvg-08258-MdFst" class="kanjivg" width="106" height="126" xmlns="http://www.w3.org/2000/svg" xmlns:xlink="http://www.w3.org/1999/xlink" xml:space="preserve" version="1.1" baseProfile="full"><defs><style type="text/css"><![CDATA[path.black{fill:none;stroke:black;stroke-width:5;stroke-linecap:round;stroke-linejoin:round;}path.grey{fill:none;stroke:#ddd;stroke-width:5;stroke-linecap:round;stroke-linejoin:round;}path.stroke{fill:none;stroke:black;stroke-width:5;stroke-linecap:round;stroke-linejoin:round;}rect{fill:none;stroke:#555;stroke-width:2;} text{font-size:16px;font-family:Segoe UI Symbol,Cambria Math,DejaVu Sans,Symbola,Quivira,STIX,Code2000;-webkit-touch-callout:none;cursor:pointer;-webkit-user-select:none;-khtml-user-select:none;-moz-user-select:none;-ms-user-select:none;user-select: none;}text:hover{color:#777;}#reset{font-weight:bold;}]]></style><marker id="markerStart" markerWidth="8" markerHeight="8" style="overflow:visible;"><circle cx="0" cy="0" r="1.5" style="stroke:none;fill:red;fill-opacity:0.5;"/></marker><marker id="markerEnd" style="overflow:visible;"><circle cx="0" cy="0" r="0.8" style="stroke:none;fill:blue;fill-opacity:0.5;"><animate attributeName="opacity" from="1" to="0" dur="3s" repeatCount="indefinite" /></circle></marker></defs><rect x="4" y="4" width="100" height="100" /><path d="M29.42,9.75c0.33,1.25,0.53,2.1-0.3,3.5c-2.36,4-3.36,6.5-6.28,10.16" class="grey" /><path d="M18.42,25.08c0.79,1.36,1,2.46,1,4.17s-0.07,22.44,0.02,25.5c0.54,18.58-2.44,31-9.69,39.5" class="grey" /><path d="M19.25,26.08c3.32-0.65,12.21-2.21,15.27-2.44c1.98-0.15,3.34,0.8,3.34,3.08c0,2.28-0.32,57.09-0.32,60.35c0,10.92-6,3.65-6.63,3" class="grey" /><path d="M24.36,31.69c1.38,2.2,4.83,8.07,5.17,10.63" class="grey" /><path d="M26.16,55.3c1.37,1.51,1.64,2.42,1.64,3.63c0,1.21-0.22,15.98-0.22,19.48" class="grey" /><path d="M9.42,55.42c0.38,1.34,2.86,2.18,4.07,1.82c1.2-0.36,28.68-11.07,30.18-11.07" class="grey" /><path d="M65.69,10.75c0.87,0.47,1.39,2.11,1.56,3.05s0,39.18-0.17,45.04" class="grey" /><path d="M58.77,18.87c0.03,0.16-0.66,1.3-0.85,1.48c-2.48,2.33-4.29,3.59-9.93,5.45" class="grey" /><path d="M45.42,25.08c1.58,0.92,2.35,2.39,2.5,3.83c0.53,5.26,1.97,14.21,2.5,21.33" class="grey" /><path d="M74.76,20.27c0.62,0.15,2.79,0.65,3.66,0.65c0.86,0,7.71-2.01,8.7-2.16c0.99-0.15,1.81,0.75,1.73,1.66c-0.74,8.77-3.64,26.23-3.76,26.83" class="grey" /><path d="M49.42,36.08c2.9-0.32,7.14-1.33,7.83-1.33c0.69,0,3.28,0.17,3.83,0.17" class="grey" /><path d="M73.58,32.75c0.69,0.16,2.2,0.83,3.17,0.83s8.23-1.01,9.33-1.17" class="grey" /><path d="M50.92,47.75c3.46-0.56,28.94-3.13,33.17-3.17" class="grey" /><path d="M49.25,60.58c1.43,0.28,2.62,1.17,5.5,0.83c5.75-0.67,22.54-4.08,24.5-4.5c1.96-0.42,3.79,2.67,2.95,4.08C72.03,77.97,57.95,89.63,41.91,96.5" class="grey" /><path d="M50.75,66.58c3.92,0.11,28.9,22.22,39.38,27.85c2.24,1.21,3.88,2.01,5.97,2.41" class="grey" /><path d="M29.42,9.75c0.33,1.25,0.53,2.1-0.3,3.5c-2.36,4-3.36,6.5-6.28,10.16" class="stroke" stroke-dasharray="150"><animate attributeName="stroke-dashoffset" from="150" to="0" dur="1.8s" begin="0.0s" fill="freeze" /></path><path d="M18.42,25.08c0.79,1.36,1,2.46,1,4.17s-0.07,22.44,0.02,25.5c0.54,18.58-2.44,31-9.69,39.5" class="stroke" stroke-dasharray="150"><set attributeName="opacity" to="0" dur="0.9s" /><animate attributeName="stroke-dashoffset" from="150" to="0" dur="1.8s" begin="0.9s" fill="freeze" /></path><path d="M19.25,26.08c3.32-0.65,12.21-2.21,15.27-2.44c1.98-0.15,3.34,0.8,3.34,3.08c0,2.28-0.32,57.09-0.32,60.35c0,10.92-6,3.65-6.63,3" class="stroke" stroke-dasharray="150"><set attributeName="opacity" to="0" dur="2.6s" /><animate attributeName="stroke-dashoffset" from="150" to="0" dur="1.8s" begin="2.6s" fill="freeze" /></path><path d="M24.36,31.69c1.38,2.2,4.83,8.07,5.17,10.63" class="stroke" stroke-dasharray="150"><set attributeName="opacity" to="0" dur="4.4s" /><animate attributeName="stroke-dashoffset" from="150" to="0" dur="1.8s" begin="4.4s" fill="freeze" /></path><path d="M26.16,55.3c1.37,1.51,1.64,2.42,1.64,3.63c0,1.21-0.22,15.98-0.22,19.48" class="stroke" stroke-dasharray="150"><set attributeName="opacity" to="0" dur="5.300000000000001s" /><animate attributeName="stroke-dashoffset" from="150" to="0" dur="1.8s" begin="5.300000000000001s" fill="freeze" /></path><path d="M9.42,55.42c0.38,1.34,2.86,2.18,4.07,1.82c1.2-0.36,28.68-11.07,30.18-11.07" class="stroke" stroke-dasharray="150"><set attributeName="opacity" to="0" dur="6.300000000000001s" /><animate attributeName="stroke-dashoffset" from="150" to="0" dur="1.8s" begin="6.300000000000001s" fill="freeze" /></path><path d="M65.69,10.75c0.87,0.47,1.39,2.11,1.56,3.05s0,39.18-0.17,45.04" class="stroke" stroke-dasharray="150"><set attributeName="opacity" to="0" dur="7.300000000000001s" /><animate attributeName="stroke-dashoffset" from="150" to="0" dur="1.8s" begin="7.300000000000001s" fill="freeze" /></path><path d="M58.77,18.87c0.03,0.16-0.66,1.3-0.85,1.48c-2.48,2.33-4.29,3.59-9.93,5.45" class="stroke" stroke-dasharray="150"><set attributeName="opacity" to="0" dur="8.5s" /><animate attributeName="stroke-dashoffset" from="150" to="0" dur="1.8s" begin="8.5s" fill="freeze" /></path><path d="M45.42,25.08c1.58,0.92,2.35,2.39,2.5,3.83c0.53,5.26,1.97,14.21,2.5,21.33" class="stroke" stroke-dasharray="150"><set attributeName="opacity" to="0" dur="9.4s" /><animate attributeName="stroke-dashoffset" from="150" to="0" dur="1.8s" begin="9.4s" fill="freeze" /></path><path d="M74.76,20.27c0.62,0.15,2.79,0.65,3.66,0.65c0.86,0,7.71-2.01,8.7-2.16c0.99-0.15,1.81,0.75,1.73,1.66c-0.74,8.77-3.64,26.23-3.76,26.83" class="stroke" stroke-dasharray="150"><set attributeName="opacity" to="0" dur="10.4s" /><animate attributeName="stroke-dashoffset" from="150" to="0" dur="1.8s" begin="10.4s" fill="freeze" /></path><path d="M49.42,36.08c2.9-0.32,7.14-1.33,7.83-1.33c0.69,0,3.28,0.17,3.83,0.17" class="stroke" stroke-dasharray="150"><set attributeName="opacity" to="0" dur="11.5s" /><animate attributeName="stroke-dashoffset" from="150" to="0" dur="1.8s" begin="11.5s" fill="freeze" /></path><path d="M73.58,32.75c0.69,0.16,2.2,0.83,3.17,0.83s8.23-1.01,9.33-1.17" class="stroke" stroke-dasharray="150"><set attributeName="opacity" to="0" dur="12.4s" /><animate attributeName="stroke-dashoffset" from="150" to="0" dur="1.8s" begin="12.4s" fill="freeze" /></path><path d="M50.92,47.75c3.46-0.56,28.94-3.13,33.17-3.17" class="stroke" stroke-dasharray="150"><set attributeName="opacity" to="0" dur="13.3s" /><animate attributeName="stroke-dashoffset" from="150" to="0" dur="1.8s" begin="13.3s" fill="freeze" /></path><path d="M49.25,60.58c1.43,0.28,2.62,1.17,5.5,0.83c5.75-0.67,22.54-4.08,24.5-4.5c1.96-0.42,3.79,2.67,2.95,4.08C72.03,77.97,57.95,89.63,41.91,96.5" class="stroke" stroke-dasharray="150"><set attributeName="opacity" to="0" dur="14.3s" /><animate attributeName="stroke-dashoffset" from="150" to="0" dur="1.8s" begin="14.3s" fill="freeze" /></path><path d="M50.75,66.58c3.92,0.11,28.9,22.22,39.38,27.85c2.24,1.21,3.88,2.01,5.97,2.41" class="stroke" stroke-dasharray="150"><set attributeName="opacity" to="0" dur="16.1s" /><animate attributeName="stroke-dashoffset" from="150" to="0" dur="1.8s" begin="16.1s" fill="freeze" /></path><text x="90" y="120" id="reset-kvg-08258-MdFst">⟳</text><text x="70" y="120" id="pause-kvg-08258-MdFst">◼</text><script type="text/javascript"><![CDATA[function RecurringTimer(e,t){var n,r,i=t;this.pause=function(){window.clearTimeout(n);i-=new Date-r};var s=function(){r=new Date;n=window.setTimeout(function(){i=t;s();e()},i)};this.clear=function(){window.clearTimeout(n);i=t;n=window.setTimeout(function(){i=t;s();e()},i)};this.resume=s;this.resume()}function invoketimer(){timer=new RecurringTimer(function(){svg.setCurrentTime(0)},18400.000000000004)}var svg=document.getElementById("kvg-08258-MdFst");var pause=document.getElementById("pause-kvg-08258-MdFst");var reset=document.getElementById("reset-kvg-08258-MdFst");var timer;invoketimer();reset.onclick=function(){svg.setCurrentTime(0);timer.clear();svg.unpauseAnimations();pause.innerHTML = "◼";};pause.onclick=function(){if(svg.animationsPaused()){svg.unpauseAnimations();timer.resume();pause.innerHTML="◼"}else{svg.pauseAnimations();timer.pause();pause.innerHTML="▶"}}]]></script></svg>