<svg id="kvg-08431-Kaisho" class="kanjivg" width="106" height="126" xmlns="http://www.w3.org/2000/svg" xmlns:xlink="http://www.w3.org/1999/xlink" xml:space="preserve" version="1.1" baseProfile="full"><defs><style type="text/css"><![CDATA[path.black{fill:none;stroke:black;stroke-width:5;stroke-linecap:round;stroke-linejoin:round;}path.grey{fill:none;stroke:#ddd;stroke-width:5;stroke-linecap:round;stroke-linejoin:round;}path.stroke{fill:none;stroke:black;stroke-width:5;stroke-linecap:round;stroke-linejoin:round;}rect{fill:none;stroke:#555;stroke-width:2;} text{font-size:16px;font-family:Segoe UI Symbol,Cambria Math,DejaVu Sans,Symbola,Quivira,STIX,Code2000;-webkit-touch-callout:none;cursor:pointer;-webkit-user-select:none;-khtml-user-select:none;-moz-user-select:none;-ms-user-select:none;user-select: none;}text:hover{color:#777;}#reset{font-weight:bold;}]]></style><marker id="markerStart" markerWidth="8" markerHeight="8" style="overflow:visible;"><circle cx="0" cy="0" r="1.5" style="stroke:none;fill:red;fill-opacity:0.5;"/></marker><marker id="markerEnd" style="overflow:visible;"><circle cx="0" cy="0" r="0.8" style="stroke:none;fill:blue;fill-opacity:0.5;"><animate attributeName="opacity" from="1" to="0" dur="3s" repeatCount="indefinite" /></circle></marker></defs><rect x="4" y="4" width="100" height="100" /><path d="M21,24.56c1.51,0.62,3.28,0.8,4.79,0.62c15.46-1.93,43.13-4.72,59.16-4.8c2.52-0.01,4.04,0.29,5.3,0.6" class="grey" /><path d="M38.25,12.5c1.67,1.23,2.2,1.61,2.38,2.37c1.67,7.1,2.14,13.55,2.62,16.13" class="grey" /><path d="M66.75,10.25c1.12,0.83,1.87,2.09,1.5,3.31c-1.12,3.72-1.88,9.93-3.5,14.69" class="grey" /><path d="M51.02,28.25c2.48,1,4.48,3.25,5.5,5.88" class="grey" /><path d="M25.74,38.12c0,3.33-2.93,12.49-4.26,14.71" class="grey" /><path d="M26.92,41.23c5.08-0.73,41.44-4.45,56.03-4.99c10.61-0.39,2.08,5.82-0.37,7.54" class="grey" /><path d="M36.25,50.23c0.77,0.31,2.17,0.4,2.94,0.31c4.88-0.54,24.16-2.96,29.76-2.84c1.28,0.03,2.04,0.15,2.68,0.3" class="grey" /><path d="M33.15,61.22c0.59,0.55,1.56,1.46,1.56,2.2c0.85,5.97,2.44,15.64,3.45,21.7" class="grey" /><path d="M34.93,61.97c6.32-0.53,35.08-3.16,38.11-3.27c2.53-0.09,3.4,0.94,3.2,2.51c-0.61,5.27-2.04,15.94-3.27,20.95" class="grey" /><path d="M36.29,72.36c6.66-0.51,13.32-1.14,19.97-1.72c2.02-0.18,4.04-0.35,5.97-0.52" class="grey" /><path d="M39,82.81c8.63-0.64,24.63-2.33,34.03-2.71" class="grey" /><path d="M20.38,95c1.37,0.46,3.87,0.48,5.24,0.46c12.07-0.23,47.13-3.42,61.24-3.41c2.28,0,3.64,0.22,4.78,0.45" class="grey" /><path d="M21,24.56c1.51,0.62,3.28,0.8,4.79,0.62c15.46-1.93,43.13-4.72,59.16-4.8c2.52-0.01,4.04,0.29,5.3,0.6" class="stroke" stroke-dasharray="150"><animate attributeName="stroke-dashoffset" from="150" to="0" dur="1.8s" begin="0.0s" fill="freeze" /></path><path d="M38.25,12.5c1.67,1.23,2.2,1.61,2.38,2.37c1.67,7.1,2.14,13.55,2.62,16.13" class="stroke" stroke-dasharray="150"><set attributeName="opacity" to="0" dur="1.5s" /><animate attributeName="stroke-dashoffset" from="150" to="0" dur="1.8s" begin="1.5s" fill="freeze" /></path><path d="M66.75,10.25c1.12,0.83,1.87,2.09,1.5,3.31c-1.12,3.72-1.88,9.93-3.5,14.69" class="stroke" stroke-dasharray="150"><set attributeName="opacity" to="0" dur="2.4s" /><animate attributeName="stroke-dashoffset" from="150" to="0" dur="1.8s" begin="2.4s" fill="freeze" /></path><path d="M51.02,28.25c2.48,1,4.48,3.25,5.5,5.88" class="stroke" stroke-dasharray="150"><set attributeName="opacity" to="0" dur="3.3s" /><animate attributeName="stroke-dashoffset" from="150" to="0" dur="1.8s" begin="3.3s" fill="freeze" /></path><path d="M25.74,38.12c0,3.33-2.93,12.49-4.26,14.71" class="stroke" stroke-dasharray="150"><set attributeName="opacity" to="0" dur="4.2s" /><animate attributeName="stroke-dashoffset" from="150" to="0" dur="1.8s" begin="4.2s" fill="freeze" /></path><path d="M26.92,41.23c5.08-0.73,41.44-4.45,56.03-4.99c10.61-0.39,2.08,5.82-0.37,7.54" class="stroke" stroke-dasharray="150"><set attributeName="opacity" to="0" dur="5.1000000000000005s" /><animate attributeName="stroke-dashoffset" from="150" to="0" dur="1.8s" begin="5.1000000000000005s" fill="freeze" /></path><path d="M36.25,50.23c0.77,0.31,2.17,0.4,2.94,0.31c4.88-0.54,24.16-2.96,29.76-2.84c1.28,0.03,2.04,0.15,2.68,0.3" class="stroke" stroke-dasharray="150"><set attributeName="opacity" to="0" dur="6.800000000000001s" /><animate attributeName="stroke-dashoffset" from="150" to="0" dur="1.8s" begin="6.800000000000001s" fill="freeze" /></path><path d="M33.15,61.22c0.59,0.55,1.56,1.46,1.56,2.2c0.85,5.97,2.44,15.64,3.45,21.7" class="stroke" stroke-dasharray="150"><set attributeName="opacity" to="0" dur="7.800000000000001s" /><animate attributeName="stroke-dashoffset" from="150" to="0" dur="1.8s" begin="7.800000000000001s" fill="freeze" /></path><path d="M34.93,61.97c6.32-0.53,35.08-3.16,38.11-3.27c2.53-0.09,3.4,0.94,3.2,2.51c-0.61,5.27-2.04,15.94-3.27,20.95" class="stroke" stroke-dasharray="150"><set attributeName="opacity" to="0" dur="8.8s" /><animate attributeName="stroke-dashoffset" from="150" to="0" dur="1.8s" begin="8.8s" fill="freeze" /></path><path d="M36.29,72.36c6.66-0.51,13.32-1.14,19.97-1.72c2.02-0.18,4.04-0.35,5.97-0.52" class="stroke" stroke-dasharray="150"><set attributeName="opacity" to="0" dur="10.3s" /><animate attributeName="stroke-dashoffset" from="150" to="0" dur="1.8s" begin="10.3s" fill="freeze" /></path><path d="M39,82.81c8.63-0.64,24.63-2.33,34.03-2.71" class="stroke" stroke-dasharray="150"><set attributeName="opacity" to="0" dur="11.3s" /><animate attributeName="stroke-dashoffset" from="150" to="0" dur="1.8s" begin="11.3s" fill="freeze" /></path><path d="M20.38,95c1.37,0.46,3.87,0.48,5.24,0.46c12.07-0.23,47.13-3.42,61.24-3.41c2.28,0,3.64,0.22,4.78,0.45" class="stroke" stroke-dasharray="150"><set attributeName="opacity" to="0" dur="12.3s" /><animate attributeName="stroke-dashoffset" from="150" to="0" dur="1.8s" begin="12.3s" fill="freeze" /></path><text x="90" y="120" id="reset-kvg-08431-Kaisho">⟳</text><text x="70" y="120" id="pause-kvg-08431-Kaisho">◼</text><script type="text/javascript"><![CDATA[function RecurringTimer(e,t){var n,r,i=t;this.pause=function(){window.clearTimeout(n);i-=new Date-r};var s=function(){r=new Date;n=window.setTimeout(function(){i=t;s();e()},i)};this.clear=function(){window.clearTimeout(n);i=t;n=window.setTimeout(function(){i=t;s();e()},i)};this.resume=s;this.resume()}function invoketimer(){timer=new RecurringTimer(function(){svg.setCurrentTime(0)},15000.0)}var svg=document.getElementById("kvg-08431-Kaisho");var pause=document.getElementById("pause-kvg-08431-Kaisho");var reset=document.getElementById("reset-kvg-08431-Kaisho");var timer;invoketimer();reset.onclick=function(){svg.setCurrentTime(0);timer.clear();svg.unpauseAnimations();pause.innerHTML = "◼";};pause.onclick=function(){if(svg.animationsPaused()){svg.unpauseAnimations();timer.resume();pause.innerHTML="◼"}else{svg.pauseAnimations();timer.pause();pause.innerHTML="▶"}}]]></script></svg>