<svg id="kvg-0846f" class="kanjivg" width="106" height="126" xmlns="http://www.w3.org/2000/svg" xmlns:xlink="http://www.w3.org/1999/xlink" xml:space="preserve" version="1.1" baseProfile="full"><defs><style type="text/css"><![CDATA[path.black{fill:none;stroke:black;stroke-width:5;stroke-linecap:round;stroke-linejoin:round;}path.grey{fill:none;stroke:#ddd;stroke-width:5;stroke-linecap:round;stroke-linejoin:round;}path.stroke{fill:none;stroke:black;stroke-width:5;stroke-linecap:round;stroke-linejoin:round;}rect{fill:none;stroke:#555;stroke-width:2;} text{font-size:16px;font-family:Segoe UI Symbol,Cambria Math,DejaVu Sans,Symbola,Quivira,STIX,Code2000;-webkit-touch-callout:none;cursor:pointer;-webkit-user-select:none;-khtml-user-select:none;-moz-user-select:none;-ms-user-select:none;user-select: none;}text:hover{color:#777;}#reset{font-weight:bold;}]]></style><marker id="markerStart" markerWidth="8" markerHeight="8" style="overflow:visible;"><circle cx="0" cy="0" r="1.5" style="stroke:none;fill:red;fill-opacity:0.5;"/></marker><marker id="markerEnd" style="overflow:visible;"><circle cx="0" cy="0" r="0.8" style="stroke:none;fill:blue;fill-opacity:0.5;"><animate attributeName="opacity" from="1" to="0" dur="3s" repeatCount="indefinite" /></circle></marker></defs><rect x="4" y="4" width="100" height="100" /><path d="M16.75,21.77c1.81,0.53,3.91,0.6,5.72,0.53c13.78-0.55,44.03-2.55,63.46-3.53c3.01-0.15,4.82,0.25,6.32,0.51" class="grey" /><path d="M36.25,12c1.75,1.43,2.31,1.87,2.5,2.75C40.5,23,40.5,28,41,31" class="grey" /><path d="M67.25,9.75c1.12,1,1.87,2.52,1.5,4c-1.12,4.5-1.38,8-3,13.75" class="grey" /><path d="M32.88,31.96c0.29,0.94,0.47,1.69-0.15,2.65c-3.74,5.82-8.72,13.64-11.63,15.82c-0.6,0.45-0.58,2.16,0,2.34c3.06,0.94,6.83-0.01,10.4,1.71" class="grey" /><path d="M44.84,40.16c0.27,0.42,0.35,1.81,0,2.26c-5.18,6.64-19.45,19.38-26.57,25.44c-1.63,1.39,0.41,2.18,1.47,1.9c4.45-1.18,20.01-5.26,27.45-6.92" class="grey" /><path d="M42.72,55.71c2.59,2.28,6.69,9.37,7.34,12.92" class="grey" /><path d="M34.25,69.37c0.05,0.22,0.68,1.14,0.73,2.52c0.23,6.66-0.15,25.09-0.15,27.36" class="grey" /><path d="M25.48,75.22c0.22,0.95,0.09,2.77-0.22,3.5C23,84,16.65,91.66,12.25,96.12" class="grey" /><path d="M43.41,75.2c4.31,3.62,7.62,12.05,8.62,15.34" class="grey" /><path d="M66.52,32.5c0.04,0.64,0.24,1.68-0.08,2.55C64.25,41,59.75,50,53.6,58.38" class="grey" /><path d="M63.58,44.85c0.83,0.56,1.96,0.48,3.34,0.37c6.33-0.48,18.92-2.75,22.25-2.95c2.43-0.14,4.19,2.2,3.84,4.62C91.25,59,88,79,82.5,91.96c-1.5,3.54-5,2.79-7.84-1.93" class="grey" /><path d="M63.9,59.82c2.54,2.52,6.55,10.35,7.19,14.26" class="grey" /><path d="M16.75,21.77c1.81,0.53,3.91,0.6,5.72,0.53c13.78-0.55,44.03-2.55,63.46-3.53c3.01-0.15,4.82,0.25,6.32,0.51" class="stroke" stroke-dasharray="150"><animate attributeName="stroke-dashoffset" from="150" to="0" dur="1.8s" begin="0.0s" fill="freeze" /></path><path d="M36.25,12c1.75,1.43,2.31,1.87,2.5,2.75C40.5,23,40.5,28,41,31" class="stroke" stroke-dasharray="150"><set attributeName="opacity" to="0" dur="1.7s" /><animate attributeName="stroke-dashoffset" from="150" to="0" dur="1.8s" begin="1.7s" fill="freeze" /></path><path d="M67.25,9.75c1.12,1,1.87,2.52,1.5,4c-1.12,4.5-1.38,8-3,13.75" class="stroke" stroke-dasharray="150"><set attributeName="opacity" to="0" dur="2.7s" /><animate attributeName="stroke-dashoffset" from="150" to="0" dur="1.8s" begin="2.7s" fill="freeze" /></path><path d="M32.88,31.96c0.29,0.94,0.47,1.69-0.15,2.65c-3.74,5.82-8.72,13.64-11.63,15.82c-0.6,0.45-0.58,2.16,0,2.34c3.06,0.94,6.83-0.01,10.4,1.71" class="stroke" stroke-dasharray="150"><set attributeName="opacity" to="0" dur="3.6s" /><animate attributeName="stroke-dashoffset" from="150" to="0" dur="1.8s" begin="3.6s" fill="freeze" /></path><path d="M44.84,40.16c0.27,0.42,0.35,1.81,0,2.26c-5.18,6.64-19.45,19.38-26.57,25.44c-1.63,1.39,0.41,2.18,1.47,1.9c4.45-1.18,20.01-5.26,27.45-6.92" class="stroke" stroke-dasharray="150"><set attributeName="opacity" to="0" dur="4.6s" /><animate attributeName="stroke-dashoffset" from="150" to="0" dur="1.8s" begin="4.6s" fill="freeze" /></path><path d="M42.72,55.71c2.59,2.28,6.69,9.37,7.34,12.92" class="stroke" stroke-dasharray="150"><set attributeName="opacity" to="0" dur="6.3s" /><animate attributeName="stroke-dashoffset" from="150" to="0" dur="1.8s" begin="6.3s" fill="freeze" /></path><path d="M34.25,69.37c0.05,0.22,0.68,1.14,0.73,2.52c0.23,6.66-0.15,25.09-0.15,27.36" class="stroke" stroke-dasharray="150"><set attributeName="opacity" to="0" dur="7.2s" /><animate attributeName="stroke-dashoffset" from="150" to="0" dur="1.8s" begin="7.2s" fill="freeze" /></path><path d="M25.48,75.22c0.22,0.95,0.09,2.77-0.22,3.5C23,84,16.65,91.66,12.25,96.12" class="stroke" stroke-dasharray="150"><set attributeName="opacity" to="0" dur="8.2s" /><animate attributeName="stroke-dashoffset" from="150" to="0" dur="1.8s" begin="8.2s" fill="freeze" /></path><path d="M43.41,75.2c4.31,3.62,7.62,12.05,8.62,15.34" class="stroke" stroke-dasharray="150"><set attributeName="opacity" to="0" dur="9.2s" /><animate attributeName="stroke-dashoffset" from="150" to="0" dur="1.8s" begin="9.2s" fill="freeze" /></path><path d="M66.52,32.5c0.04,0.64,0.24,1.68-0.08,2.55C64.25,41,59.75,50,53.6,58.38" class="stroke" stroke-dasharray="150"><set attributeName="opacity" to="0" dur="10.1s" /><animate attributeName="stroke-dashoffset" from="150" to="0" dur="1.8s" begin="10.1s" fill="freeze" /></path><path d="M63.58,44.85c0.83,0.56,1.96,0.48,3.34,0.37c6.33-0.48,18.92-2.75,22.25-2.95c2.43-0.14,4.19,2.2,3.84,4.62C91.25,59,88,79,82.5,91.96c-1.5,3.54-5,2.79-7.84-1.93" class="stroke" stroke-dasharray="150"><set attributeName="opacity" to="0" dur="11.1s" /><animate attributeName="stroke-dashoffset" from="150" to="0" dur="1.8s" begin="11.1s" fill="freeze" /></path><path d="M63.9,59.82c2.54,2.52,6.55,10.35,7.19,14.26" class="stroke" stroke-dasharray="150"><set attributeName="opacity" to="0" dur="12.799999999999999s" /><animate attributeName="stroke-dashoffset" from="150" to="0" dur="1.8s" begin="12.799999999999999s" fill="freeze" /></path><text x="90" y="120" id="reset-kvg-0846f">⟳</text><text x="70" y="120" id="pause-kvg-0846f">◼</text><script type="text/javascript"><![CDATA[function RecurringTimer(e,t){var n,r,i=t;this.pause=function(){window.clearTimeout(n);i-=new Date-r};var s=function(){r=new Date;n=window.setTimeout(function(){i=t;s();e()},i)};this.clear=function(){window.clearTimeout(n);i=t;n=window.setTimeout(function(){i=t;s();e()},i)};this.resume=s;this.resume()}function invoketimer(){timer=new RecurringTimer(function(){svg.setCurrentTime(0)},14700.0)}var svg=document.getElementById("kvg-0846f");var pause=document.getElementById("pause-kvg-0846f");var reset=document.getElementById("reset-kvg-0846f");var timer;invoketimer();reset.onclick=function(){svg.setCurrentTime(0);timer.clear();svg.unpauseAnimations();pause.innerHTML = "◼";};pause.onclick=function(){if(svg.animationsPaused()){svg.unpauseAnimations();timer.resume();pause.innerHTML="◼"}else{svg.pauseAnimations();timer.pause();pause.innerHTML="▶"}}]]></script></svg>