<svg id="kvg-0847a" class="kanjivg" width="106" height="126" xmlns="http://www.w3.org/2000/svg" xmlns:xlink="http://www.w3.org/1999/xlink" xml:space="preserve" version="1.1" baseProfile="full"><defs><style type="text/css"><![CDATA[path.black{fill:none;stroke:black;stroke-width:5;stroke-linecap:round;stroke-linejoin:round;}path.grey{fill:none;stroke:#ddd;stroke-width:5;stroke-linecap:round;stroke-linejoin:round;}path.stroke{fill:none;stroke:black;stroke-width:5;stroke-linecap:round;stroke-linejoin:round;}rect{fill:none;stroke:#555;stroke-width:2;} text{font-size:16px;font-family:Segoe UI Symbol,Cambria Math,DejaVu Sans,Symbola,Quivira,STIX,Code2000;-webkit-touch-callout:none;cursor:pointer;-webkit-user-select:none;-khtml-user-select:none;-moz-user-select:none;-ms-user-select:none;user-select: none;}text:hover{color:#777;}#reset{font-weight:bold;}]]></style><marker id="markerStart" markerWidth="8" markerHeight="8" style="overflow:visible;"><circle cx="0" cy="0" r="1.5" style="stroke:none;fill:red;fill-opacity:0.5;"/></marker><marker id="markerEnd" style="overflow:visible;"><circle cx="0" cy="0" r="0.8" style="stroke:none;fill:blue;fill-opacity:0.5;"><animate attributeName="opacity" from="1" to="0" dur="3s" repeatCount="indefinite" /></circle></marker></defs><rect x="4" y="4" width="100" height="100" /><path d="M18.5,21.27c1.29,0.53,2.8,0.63,4.1,0.53c11.9-0.96,47.9-3.96,61.62-4.03c2.16-0.01,3.45,0.25,4.53,0.51" class="grey" /><path d="M37.25,11.5c1.75,1.43,2.31,1.87,2.5,2.75C41.5,22.5,41,24,41.5,27" class="grey" /><path d="M66.75,9.25c1.12,1,1.87,2.52,1.5,4c-1.12,4.5-2.38,7-4,12.75" class="grey" /><path d="M32.31,31.84c0.55,0.23,1.18,0.37,1.35,0.69c1.58,2.96,2.38,8.78,3.69,12.78" class="grey" /><path d="M34.44,33.75c11.24-1.16,28.68-3.2,35.12-3.24c1.44-0.01,2.75,1.63,2.43,2.26c-0.74,1.48-1.99,4.48-4.1,7.96" class="grey" /><path d="M37.61,42.97c7.56-0.33,22.2-1.8,32.59-2.31" class="grey" /><path d="M24.05,52.62c1.5,0.29,4.26,0.37,5.77,0.29c14.23-0.77,28.8-4.14,49.17-4.47c2.5-0.04,4.01,0.14,5.26,0.28" class="grey" /><path d="M36.58,53.28c0.88,0.53,1.96,2.42,1.96,3.36S38.3,83.41,38.3,86.78" class="grey" /><path d="M38.48,63.5c14.08-1.17,17.9-1.34,30.34-1.91" class="grey" /><path d="M39,75.19c11.49-0.81,16.08-1.65,30.11-2.22" class="grey" /><path d="M21,89.98c0.47,0.64,2.62,1.54,4.27,1.28C31.9,90.19,69.81,82.73,80,81.03" class="grey" /><path d="M67.36,52.05c1.53,0.84,1.68,2.26,1.68,3.2s0.24,37.11,0.24,44.78" class="grey" /><path d="M18.5,21.27c1.29,0.53,2.8,0.63,4.1,0.53c11.9-0.96,47.9-3.96,61.62-4.03c2.16-0.01,3.45,0.25,4.53,0.51" class="stroke" stroke-dasharray="150"><animate attributeName="stroke-dashoffset" from="150" to="0" dur="1.8s" begin="0.0s" fill="freeze" /></path><path d="M37.25,11.5c1.75,1.43,2.31,1.87,2.5,2.75C41.5,22.5,41,24,41.5,27" class="stroke" stroke-dasharray="150"><set attributeName="opacity" to="0" dur="1.7s" /><animate attributeName="stroke-dashoffset" from="150" to="0" dur="1.8s" begin="1.7s" fill="freeze" /></path><path d="M66.75,9.25c1.12,1,1.87,2.52,1.5,4c-1.12,4.5-2.38,7-4,12.75" class="stroke" stroke-dasharray="150"><set attributeName="opacity" to="0" dur="2.6s" /><animate attributeName="stroke-dashoffset" from="150" to="0" dur="1.8s" begin="2.6s" fill="freeze" /></path><path d="M32.31,31.84c0.55,0.23,1.18,0.37,1.35,0.69c1.58,2.96,2.38,8.78,3.69,12.78" class="stroke" stroke-dasharray="150"><set attributeName="opacity" to="0" dur="3.5s" /><animate attributeName="stroke-dashoffset" from="150" to="0" dur="1.8s" begin="3.5s" fill="freeze" /></path><path d="M34.44,33.75c11.24-1.16,28.68-3.2,35.12-3.24c1.44-0.01,2.75,1.63,2.43,2.26c-0.74,1.48-1.99,4.48-4.1,7.96" class="stroke" stroke-dasharray="150"><set attributeName="opacity" to="0" dur="4.4s" /><animate attributeName="stroke-dashoffset" from="150" to="0" dur="1.8s" begin="4.4s" fill="freeze" /></path><path d="M37.61,42.97c7.56-0.33,22.2-1.8,32.59-2.31" class="stroke" stroke-dasharray="150"><set attributeName="opacity" to="0" dur="5.6000000000000005s" /><animate attributeName="stroke-dashoffset" from="150" to="0" dur="1.8s" begin="5.6000000000000005s" fill="freeze" /></path><path d="M24.05,52.62c1.5,0.29,4.26,0.37,5.77,0.29c14.23-0.77,28.8-4.14,49.17-4.47c2.5-0.04,4.01,0.14,5.26,0.28" class="stroke" stroke-dasharray="150"><set attributeName="opacity" to="0" dur="6.6000000000000005s" /><animate attributeName="stroke-dashoffset" from="150" to="0" dur="1.8s" begin="6.6000000000000005s" fill="freeze" /></path><path d="M36.58,53.28c0.88,0.53,1.96,2.42,1.96,3.36S38.3,83.41,38.3,86.78" class="stroke" stroke-dasharray="150"><set attributeName="opacity" to="0" dur="8.100000000000001s" /><animate attributeName="stroke-dashoffset" from="150" to="0" dur="1.8s" begin="8.100000000000001s" fill="freeze" /></path><path d="M38.48,63.5c14.08-1.17,17.9-1.34,30.34-1.91" class="stroke" stroke-dasharray="150"><set attributeName="opacity" to="0" dur="9.100000000000001s" /><animate attributeName="stroke-dashoffset" from="150" to="0" dur="1.8s" begin="9.100000000000001s" fill="freeze" /></path><path d="M39,75.19c11.49-0.81,16.08-1.65,30.11-2.22" class="stroke" stroke-dasharray="150"><set attributeName="opacity" to="0" dur="10.100000000000001s" /><animate attributeName="stroke-dashoffset" from="150" to="0" dur="1.8s" begin="10.100000000000001s" fill="freeze" /></path><path d="M21,89.98c0.47,0.64,2.62,1.54,4.27,1.28C31.9,90.19,69.81,82.73,80,81.03" class="stroke" stroke-dasharray="150"><set attributeName="opacity" to="0" dur="11.100000000000001s" /><animate attributeName="stroke-dashoffset" from="150" to="0" dur="1.8s" begin="11.100000000000001s" fill="freeze" /></path><path d="M67.36,52.05c1.53,0.84,1.68,2.26,1.68,3.2s0.24,37.11,0.24,44.78" class="stroke" stroke-dasharray="150"><set attributeName="opacity" to="0" dur="12.600000000000001s" /><animate attributeName="stroke-dashoffset" from="150" to="0" dur="1.8s" begin="12.600000000000001s" fill="freeze" /></path><text x="90" y="120" id="reset-kvg-0847a">⟳</text><text x="70" y="120" id="pause-kvg-0847a">◼</text><script type="text/javascript"><![CDATA[function RecurringTimer(e,t){var n,r,i=t;this.pause=function(){window.clearTimeout(n);i-=new Date-r};var s=function(){r=new Date;n=window.setTimeout(function(){i=t;s();e()},i)};this.clear=function(){window.clearTimeout(n);i=t;n=window.setTimeout(function(){i=t;s();e()},i)};this.resume=s;this.resume()}function invoketimer(){timer=new RecurringTimer(function(){svg.setCurrentTime(0)},14800.0)}var svg=document.getElementById("kvg-0847a");var pause=document.getElementById("pause-kvg-0847a");var reset=document.getElementById("reset-kvg-0847a");var timer;invoketimer();reset.onclick=function(){svg.setCurrentTime(0);timer.clear();svg.unpauseAnimations();pause.innerHTML = "◼";};pause.onclick=function(){if(svg.animationsPaused()){svg.unpauseAnimations();timer.resume();pause.innerHTML="◼"}else{svg.pauseAnimations();timer.pause();pause.innerHTML="▶"}}]]></script></svg>