<svg id="kvg-08484" class="kanjivg" width="106" height="126" xmlns="http://www.w3.org/2000/svg" xmlns:xlink="http://www.w3.org/1999/xlink" xml:space="preserve" version="1.1" baseProfile="full"><defs><style type="text/css"><![CDATA[path.black{fill:none;stroke:black;stroke-width:5;stroke-linecap:round;stroke-linejoin:round;}path.grey{fill:none;stroke:#ddd;stroke-width:5;stroke-linecap:round;stroke-linejoin:round;}path.stroke{fill:none;stroke:black;stroke-width:5;stroke-linecap:round;stroke-linejoin:round;}rect{fill:none;stroke:#555;stroke-width:2;} text{font-size:16px;font-family:Segoe UI Symbol,Cambria Math,DejaVu Sans,Symbola,Quivira,STIX,Code2000;-webkit-touch-callout:none;cursor:pointer;-webkit-user-select:none;-khtml-user-select:none;-moz-user-select:none;-ms-user-select:none;user-select: none;}text:hover{color:#777;}#reset{font-weight:bold;}]]></style><marker id="markerStart" markerWidth="8" markerHeight="8" style="overflow:visible;"><circle cx="0" cy="0" r="1.5" style="stroke:none;fill:red;fill-opacity:0.5;"/></marker><marker id="markerEnd" style="overflow:visible;"><circle cx="0" cy="0" r="0.8" style="stroke:none;fill:blue;fill-opacity:0.5;"><animate attributeName="opacity" from="1" to="0" dur="3s" repeatCount="indefinite" /></circle></marker></defs><rect x="4" y="4" width="100" height="100" /><path d="M17.83,20.5c1.29,0.53,6.7,0.94,8,0.83c11.9-0.96,46.67-3.5,60.39-3.57c2.16-0.01,5.54,0.81,6.62,1.07" class="grey" /><path d="M38.5,10.5c1,0.5,2.1,1.85,2.17,2.67c0.67,7.83,1,13.67,1,16.33" class="grey" /><path d="M67,9.17c1.25,1.58,1.4,2.12,1,3.5c-1.17,4-2.17,9-3.92,15.83" class="grey" /><path d="M21,32.66c0,3.44-3.44,12.9-5,15.19" class="grey" /><path d="M21.41,35.96c9.93-0.86,55.46-3.51,62.59-3.8c14.75,0,5.11,7.7,2.33,9.33" class="grey" /><path d="M24.5,46.67c1.5,0.83,3.8,1.15,4.17,1.17C33,48,41.14,46.56,46.17,46.17c0.6-0.05,3.2,0.56,3.5,0.67" class="grey" /><path d="M15.83,60.17c0.67,0.32,4.5,1.22,5.17,1.17c6.97-0.54,14.83-1.83,27.17-2.33c1.12-0.04,4.94,0.17,5.5,0.33" class="grey" /><path d="M29.58,63.28c0.55,0.82,0.75,2.07,0.67,3.25C29.5,78.5,24.73,90.76,14.17,97.67" class="grey" /><path d="M42.28,61.73c0.71,1.51,1.28,3.3,1.32,5.63c0.11,6.22-0.26,11.38-0.26,18.94c0,10.45,1.54,11.35,24.35,11.35c23.81,0,25.98-1.4,25.98-12.65" class="grey" /><path d="M56.17,54.17c0.63,0.31,3.69,0.7,4.33,0.67c7-0.33,19.33-1.53,27-2c1.05-0.06,5.14,0.18,5.67,0.33" class="grey" /><path d="M76.83,39.5c0.05,0.27,1.8,2.22,1.8,3.93c0,11.47-0.17,37.99-0.17,40.78c0,6.77-5.89,0.82-7.3-0.04" class="grey" /><path d="M60.2,64.13c2.47,1.89,6.37,7.79,6.99,10.74" class="grey" /><path d="M17.83,20.5c1.29,0.53,6.7,0.94,8,0.83c11.9-0.96,46.67-3.5,60.39-3.57c2.16-0.01,5.54,0.81,6.62,1.07" class="stroke" stroke-dasharray="150"><animate attributeName="stroke-dashoffset" from="150" to="0" dur="1.8s" begin="0.0s" fill="freeze" /></path><path d="M38.5,10.5c1,0.5,2.1,1.85,2.17,2.67c0.67,7.83,1,13.67,1,16.33" class="stroke" stroke-dasharray="150"><set attributeName="opacity" to="0" dur="1.7s" /><animate attributeName="stroke-dashoffset" from="150" to="0" dur="1.8s" begin="1.7s" fill="freeze" /></path><path d="M67,9.17c1.25,1.58,1.4,2.12,1,3.5c-1.17,4-2.17,9-3.92,15.83" class="stroke" stroke-dasharray="150"><set attributeName="opacity" to="0" dur="2.6s" /><animate attributeName="stroke-dashoffset" from="150" to="0" dur="1.8s" begin="2.6s" fill="freeze" /></path><path d="M21,32.66c0,3.44-3.44,12.9-5,15.19" class="stroke" stroke-dasharray="150"><set attributeName="opacity" to="0" dur="3.6s" /><animate attributeName="stroke-dashoffset" from="150" to="0" dur="1.8s" begin="3.6s" fill="freeze" /></path><path d="M21.41,35.96c9.93-0.86,55.46-3.51,62.59-3.8c14.75,0,5.11,7.7,2.33,9.33" class="stroke" stroke-dasharray="150"><set attributeName="opacity" to="0" dur="4.5s" /><animate attributeName="stroke-dashoffset" from="150" to="0" dur="1.8s" begin="4.5s" fill="freeze" /></path><path d="M24.5,46.67c1.5,0.83,3.8,1.15,4.17,1.17C33,48,41.14,46.56,46.17,46.17c0.6-0.05,3.2,0.56,3.5,0.67" class="stroke" stroke-dasharray="150"><set attributeName="opacity" to="0" dur="6.2s" /><animate attributeName="stroke-dashoffset" from="150" to="0" dur="1.8s" begin="6.2s" fill="freeze" /></path><path d="M15.83,60.17c0.67,0.32,4.5,1.22,5.17,1.17c6.97-0.54,14.83-1.83,27.17-2.33c1.12-0.04,4.94,0.17,5.5,0.33" class="stroke" stroke-dasharray="150"><set attributeName="opacity" to="0" dur="7.2s" /><animate attributeName="stroke-dashoffset" from="150" to="0" dur="1.8s" begin="7.2s" fill="freeze" /></path><path d="M29.58,63.28c0.55,0.82,0.75,2.07,0.67,3.25C29.5,78.5,24.73,90.76,14.17,97.67" class="stroke" stroke-dasharray="150"><set attributeName="opacity" to="0" dur="8.2s" /><animate attributeName="stroke-dashoffset" from="150" to="0" dur="1.8s" begin="8.2s" fill="freeze" /></path><path d="M42.28,61.73c0.71,1.51,1.28,3.3,1.32,5.63c0.11,6.22-0.26,11.38-0.26,18.94c0,10.45,1.54,11.35,24.35,11.35c23.81,0,25.98-1.4,25.98-12.65" class="stroke" stroke-dasharray="150"><set attributeName="opacity" to="0" dur="9.2s" /><animate attributeName="stroke-dashoffset" from="150" to="0" dur="1.8s" begin="9.2s" fill="freeze" /></path><path d="M56.17,54.17c0.63,0.31,3.69,0.7,4.33,0.67c7-0.33,19.33-1.53,27-2c1.05-0.06,5.14,0.18,5.67,0.33" class="stroke" stroke-dasharray="150"><set attributeName="opacity" to="0" dur="11.0s" /><animate attributeName="stroke-dashoffset" from="150" to="0" dur="1.8s" begin="11.0s" fill="freeze" /></path><path d="M76.83,39.5c0.05,0.27,1.8,2.22,1.8,3.93c0,11.47-0.17,37.99-0.17,40.78c0,6.77-5.89,0.82-7.3-0.04" class="stroke" stroke-dasharray="150"><set attributeName="opacity" to="0" dur="12.0s" /><animate attributeName="stroke-dashoffset" from="150" to="0" dur="1.8s" begin="12.0s" fill="freeze" /></path><path d="M60.2,64.13c2.47,1.89,6.37,7.79,6.99,10.74" class="stroke" stroke-dasharray="150"><set attributeName="opacity" to="0" dur="13.4s" /><animate attributeName="stroke-dashoffset" from="150" to="0" dur="1.8s" begin="13.4s" fill="freeze" /></path><text x="90" y="120" id="reset-kvg-08484">⟳</text><text x="70" y="120" id="pause-kvg-08484">◼</text><script type="text/javascript"><![CDATA[function RecurringTimer(e,t){var n,r,i=t;this.pause=function(){window.clearTimeout(n);i-=new Date-r};var s=function(){r=new Date;n=window.setTimeout(function(){i=t;s();e()},i)};this.clear=function(){window.clearTimeout(n);i=t;n=window.setTimeout(function(){i=t;s();e()},i)};this.resume=s;this.resume()}function invoketimer(){timer=new RecurringTimer(function(){svg.setCurrentTime(0)},15300.0)}var svg=document.getElementById("kvg-08484");var pause=document.getElementById("pause-kvg-08484");var reset=document.getElementById("reset-kvg-08484");var timer;invoketimer();reset.onclick=function(){svg.setCurrentTime(0);timer.clear();svg.unpauseAnimations();pause.innerHTML = "◼";};pause.onclick=function(){if(svg.animationsPaused()){svg.unpauseAnimations();timer.resume();pause.innerHTML="◼"}else{svg.pauseAnimations();timer.pause();pause.innerHTML="▶"}}]]></script></svg>