<svg id="kvg-0852c-Kaisho" class="kanjivg" width="106" height="126" xmlns="http://www.w3.org/2000/svg" xmlns:xlink="http://www.w3.org/1999/xlink" xml:space="preserve" version="1.1" baseProfile="full"><defs><style type="text/css"><![CDATA[path.black{fill:none;stroke:black;stroke-width:5;stroke-linecap:round;stroke-linejoin:round;}path.grey{fill:none;stroke:#ddd;stroke-width:5;stroke-linecap:round;stroke-linejoin:round;}path.stroke{fill:none;stroke:black;stroke-width:5;stroke-linecap:round;stroke-linejoin:round;}rect{fill:none;stroke:#555;stroke-width:2;} text{font-size:16px;font-family:Segoe UI Symbol,Cambria Math,DejaVu Sans,Symbola,Quivira,STIX,Code2000;-webkit-touch-callout:none;cursor:pointer;-webkit-user-select:none;-khtml-user-select:none;-moz-user-select:none;-ms-user-select:none;user-select: none;}text:hover{color:#777;}#reset{font-weight:bold;}]]></style><marker id="markerStart" markerWidth="8" markerHeight="8" style="overflow:visible;"><circle cx="0" cy="0" r="1.5" style="stroke:none;fill:red;fill-opacity:0.5;"/></marker><marker id="markerEnd" style="overflow:visible;"><circle cx="0" cy="0" r="0.8" style="stroke:none;fill:blue;fill-opacity:0.5;"><animate attributeName="opacity" from="1" to="0" dur="3s" repeatCount="indefinite" /></circle></marker></defs><rect x="4" y="4" width="100" height="100" /><path d="M20,23.77c1.29,0.53,2.8,0.63,4.1,0.53C36,23.33,71,19.83,84.72,19.76c2.16-0.01,3.45,0.25,4.53,0.51" class="grey" /><path d="M35.25,12.5c1.75,1.43,2.3,1.87,2.5,2.75C39,20.75,41,29.5,41.5,32.5" class="grey" /><path d="M64.55,9.75c1.02,0.91,1.2,2.79,0.86,4.13c-1.02,4.09-1.7,10.9-3.18,16.12" class="grey" /><path d="M14.08,43.43c0.92,0.47,3.52,0.74,6.01,0.35c8.16-1.26,13.62-2.2,20.16-3.23c2.5-0.4,3.42,0.74,2,2.17C40.5,44.5,36.5,48.65,33,52.2" class="grey" /><path d="M28.5,53.17c0.97,0.35,1.75,1.57,1.75,2.3c0,5.15,0.25,26.72,0.25,33.89" class="grey" /><path d="M30.76,66.5c6.37-0.53,1-0.27,10.61-1.33c1.54-0.17,1.95-0.18,2.92,0" class="grey" /><path d="M16.77,65.98c0.98,0.72,1.55,1.57,1.76,3.96C19,75.4,19,90.92,19,94.84" class="grey" /><path d="M12.75,95.03c0.54,0.18,2.68,1.53,3.5,1.19c5.25-2.17,18.25-8.7,26.25-12.46" class="grey" /><path d="M65.7,33.25c1.83,0.84,4.3,3.5,4.85,5.78" class="grey" /><path d="M49.44,44.6c0.98,0.06,3.22,0.38,4.17,0.3c7.7-0.63,25.04-2.6,34.81-2.77c1.62-0.03,2.44,0.03,3.64,0.38" class="grey" /><path d="M64.69,47.07c0.57,0.29-0.22,1.94-0.55,2.31c-4.18,4.67-4.46,6.81-9.88,11.38c-2.75,2.31-1.76,2.58,1.75,1.98c9.56-1.63,17-3.41,28.5-5.75" class="grey" /><path d="M77.91,49.36c3.46,2.17,8.93,8.93,9.8,12.3" class="grey" /><path d="M55.52,69.51c0.23,0.47,0.42,1.7,0.41,2.66c-0.18,12.51-3.86,21.33-13.62,25.56" class="grey" /><path d="M66.86,67.11c0.07,0.33,1.08,1.7,1.08,3.77c0,10.87-0.22,21.35-0.22,24.73" class="grey" /><path d="M79.6,63.74c0.64,1.01,1.16,2.2,1.2,3.75c0.17,6.94-0.46,13.68-0.46,18.4c0,8.37,0.92,9.88,8.34,9.88c7.33,0,8.33-1.51,8.33-7.84" class="grey" /><path d="M20,23.77c1.29,0.53,2.8,0.63,4.1,0.53C36,23.33,71,19.83,84.72,19.76c2.16-0.01,3.45,0.25,4.53,0.51" class="stroke" stroke-dasharray="150"><animate attributeName="stroke-dashoffset" from="150" to="0" dur="1.8s" begin="0.0s" fill="freeze" /></path><path d="M35.25,12.5c1.75,1.43,2.3,1.87,2.5,2.75C39,20.75,41,29.5,41.5,32.5" class="stroke" stroke-dasharray="150"><set attributeName="opacity" to="0" dur="1.5s" /><animate attributeName="stroke-dashoffset" from="150" to="0" dur="1.8s" begin="1.5s" fill="freeze" /></path><path d="M64.55,9.75c1.02,0.91,1.2,2.79,0.86,4.13c-1.02,4.09-1.7,10.9-3.18,16.12" class="stroke" stroke-dasharray="150"><set attributeName="opacity" to="0" dur="2.5s" /><animate attributeName="stroke-dashoffset" from="150" to="0" dur="1.8s" begin="2.5s" fill="freeze" /></path><path d="M14.08,43.43c0.92,0.47,3.52,0.74,6.01,0.35c8.16-1.26,13.62-2.2,20.16-3.23c2.5-0.4,3.42,0.74,2,2.17C40.5,44.5,36.5,48.65,33,52.2" class="stroke" stroke-dasharray="150"><set attributeName="opacity" to="0" dur="3.5s" /><animate attributeName="stroke-dashoffset" from="150" to="0" dur="1.8s" begin="3.5s" fill="freeze" /></path><path d="M28.5,53.17c0.97,0.35,1.75,1.57,1.75,2.3c0,5.15,0.25,26.72,0.25,33.89" class="stroke" stroke-dasharray="150"><set attributeName="opacity" to="0" dur="4.6s" /><animate attributeName="stroke-dashoffset" from="150" to="0" dur="1.8s" begin="4.6s" fill="freeze" /></path><path d="M30.76,66.5c6.37-0.53,1-0.27,10.61-1.33c1.54-0.17,1.95-0.18,2.92,0" class="stroke" stroke-dasharray="150"><set attributeName="opacity" to="0" dur="5.6s" /><animate attributeName="stroke-dashoffset" from="150" to="0" dur="1.8s" begin="5.6s" fill="freeze" /></path><path d="M16.77,65.98c0.98,0.72,1.55,1.57,1.76,3.96C19,75.4,19,90.92,19,94.84" class="stroke" stroke-dasharray="150"><set attributeName="opacity" to="0" dur="6.5s" /><animate attributeName="stroke-dashoffset" from="150" to="0" dur="1.8s" begin="6.5s" fill="freeze" /></path><path d="M12.75,95.03c0.54,0.18,2.68,1.53,3.5,1.19c5.25-2.17,18.25-8.7,26.25-12.46" class="stroke" stroke-dasharray="150"><set attributeName="opacity" to="0" dur="7.5s" /><animate attributeName="stroke-dashoffset" from="150" to="0" dur="1.8s" begin="7.5s" fill="freeze" /></path><path d="M65.7,33.25c1.83,0.84,4.3,3.5,4.85,5.78" class="stroke" stroke-dasharray="150"><set attributeName="opacity" to="0" dur="8.5s" /><animate attributeName="stroke-dashoffset" from="150" to="0" dur="1.8s" begin="8.5s" fill="freeze" /></path><path d="M49.44,44.6c0.98,0.06,3.22,0.38,4.17,0.3c7.7-0.63,25.04-2.6,34.81-2.77c1.62-0.03,2.44,0.03,3.64,0.38" class="stroke" stroke-dasharray="150"><set attributeName="opacity" to="0" dur="9.4s" /><animate attributeName="stroke-dashoffset" from="150" to="0" dur="1.8s" begin="9.4s" fill="freeze" /></path><path d="M64.69,47.07c0.57,0.29-0.22,1.94-0.55,2.31c-4.18,4.67-4.46,6.81-9.88,11.38c-2.75,2.31-1.76,2.58,1.75,1.98c9.56-1.63,17-3.41,28.5-5.75" class="stroke" stroke-dasharray="150"><set attributeName="opacity" to="0" dur="10.5s" /><animate attributeName="stroke-dashoffset" from="150" to="0" dur="1.8s" begin="10.5s" fill="freeze" /></path><path d="M77.91,49.36c3.46,2.17,8.93,8.93,9.8,12.3" class="stroke" stroke-dasharray="150"><set attributeName="opacity" to="0" dur="11.8s" /><animate attributeName="stroke-dashoffset" from="150" to="0" dur="1.8s" begin="11.8s" fill="freeze" /></path><path d="M55.52,69.51c0.23,0.47,0.42,1.7,0.41,2.66c-0.18,12.51-3.86,21.33-13.62,25.56" class="stroke" stroke-dasharray="150"><set attributeName="opacity" to="0" dur="12.700000000000001s" /><animate attributeName="stroke-dashoffset" from="150" to="0" dur="1.8s" begin="12.700000000000001s" fill="freeze" /></path><path d="M66.86,67.11c0.07,0.33,1.08,1.7,1.08,3.77c0,10.87-0.22,21.35-0.22,24.73" class="stroke" stroke-dasharray="150"><set attributeName="opacity" to="0" dur="13.700000000000001s" /><animate attributeName="stroke-dashoffset" from="150" to="0" dur="1.8s" begin="13.700000000000001s" fill="freeze" /></path><path d="M79.6,63.74c0.64,1.01,1.16,2.2,1.2,3.75c0.17,6.94-0.46,13.68-0.46,18.4c0,8.37,0.92,9.88,8.34,9.88c7.33,0,8.33-1.51,8.33-7.84" class="stroke" stroke-dasharray="150"><set attributeName="opacity" to="0" dur="14.700000000000001s" /><animate attributeName="stroke-dashoffset" from="150" to="0" dur="1.8s" begin="14.700000000000001s" fill="freeze" /></path><text x="90" y="120" id="reset-kvg-0852c-Kaisho">⟳</text><text x="70" y="120" id="pause-kvg-0852c-Kaisho">◼</text><script type="text/javascript"><![CDATA[function RecurringTimer(e,t){var n,r,i=t;this.pause=function(){window.clearTimeout(n);i-=new Date-r};var s=function(){r=new Date;n=window.setTimeout(function(){i=t;s();e()},i)};this.clear=function(){window.clearTimeout(n);i=t;n=window.setTimeout(function(){i=t;s();e()},i)};this.resume=s;this.resume()}function invoketimer(){timer=new RecurringTimer(function(){svg.setCurrentTime(0)},17000.0)}var svg=document.getElementById("kvg-0852c-Kaisho");var pause=document.getElementById("pause-kvg-0852c-Kaisho");var reset=document.getElementById("reset-kvg-0852c-Kaisho");var timer;invoketimer();reset.onclick=function(){svg.setCurrentTime(0);timer.clear();svg.unpauseAnimations();pause.innerHTML = "◼";};pause.onclick=function(){if(svg.animationsPaused()){svg.unpauseAnimations();timer.resume();pause.innerHTML="◼"}else{svg.pauseAnimations();timer.pause();pause.innerHTML="▶"}}]]></script></svg>