<svg id="kvg-08587" class="kanjivg" width="106" height="126" xmlns="http://www.w3.org/2000/svg" xmlns:xlink="http://www.w3.org/1999/xlink" xml:space="preserve" version="1.1" baseProfile="full"><defs><style type="text/css"><![CDATA[path.black{fill:none;stroke:black;stroke-width:5;stroke-linecap:round;stroke-linejoin:round;}path.grey{fill:none;stroke:#ddd;stroke-width:5;stroke-linecap:round;stroke-linejoin:round;}path.stroke{fill:none;stroke:black;stroke-width:5;stroke-linecap:round;stroke-linejoin:round;}rect{fill:none;stroke:#555;stroke-width:2;} text{font-size:16px;font-family:Segoe UI Symbol,Cambria Math,DejaVu Sans,Symbola,Quivira,STIX,Code2000;-webkit-touch-callout:none;cursor:pointer;-webkit-user-select:none;-khtml-user-select:none;-moz-user-select:none;-ms-user-select:none;user-select: none;}text:hover{color:#777;}#reset{font-weight:bold;}]]></style><marker id="markerStart" markerWidth="8" markerHeight="8" style="overflow:visible;"><circle cx="0" cy="0" r="1.5" style="stroke:none;fill:red;fill-opacity:0.5;"/></marker><marker id="markerEnd" style="overflow:visible;"><circle cx="0" cy="0" r="0.8" style="stroke:none;fill:blue;fill-opacity:0.5;"><animate attributeName="opacity" from="1" to="0" dur="3s" repeatCount="indefinite" /></circle></marker></defs><rect x="4" y="4" width="100" height="100" /><path d="M20.5,24.77c1.49,0.53,3.23,0.63,4.72,0.53c13.71-0.96,42.51-3.96,58.31-4.03c2.49-0.01,3.98,0.25,5.22,0.51" class="grey" /><path d="M36.92,14.25c1.53,1.25,2.02,1.63,2.18,2.4c1.53,7.19,1.96,13.74,2.4,16.35" class="grey" /><path d="M66.23,11.5c0.94,0.92,1.38,2.29,1.01,3.68c-1.5,5.57-1.75,8.32-3.85,15.82" class="grey" /><path d="M31.84,35.13c0.04,0.35,0.21,0.97-0.09,1.39c-2.13,3-8.55,10.25-14.8,13.31" class="grey" /><path d="M34.37,49.35c0.05,0.55,0.26,1.53-0.11,2.21c-2.59,4.78-9.75,14.34-18.93,21.16" class="grey" /><path d="M27.31,63.42c0.3,0.21,0.9,1.38,0.96,1.81c0.06,0.43,0,30.41-0.06,33.09" class="grey" /><path d="M50.8,32.5c0.42,0.25,1.32,1.87,1.4,2.37s-0.05,13.62-0.14,16.74" class="grey" /><path d="M40.95,40.54c0.45,0.34,0.93,1.76,0.9,2.44C41.75,45.75,42,48,41.31,51.7c-0.28,1.51,0.78,2.67,1.9,2.32C49.5,52,55.5,51.25,63.32,50.31" class="grey" /><path d="M62.73,39.4c0.42,0.25,0.91,1.87,0.84,2.37c-0.42,3.06,0.16,4.31-0.53,10.02" class="grey" /><path d="M38.67,61.88c0.51,0.54,2.2,0.76,2.73,0.71C47.25,62,52.75,61,58.84,60.18c0.64-0.09,2.05-0.22,3.01,0.25" class="grey" /><path d="M43.08,71.08c0.02,0.54,0.28,1.39,0.26,2.17C43.22,79.08,43,88.5,37.52,93.98" class="grey" /><path d="M43.5,72.25c0.42,0.25,7.97-1.82,10.75-2.75c1.5-0.5,3.4,1,3.4,2.52c0,4.23-0.57,14.14-0.57,16.4c0,1.74-0.18,3,1.5,1.32c1.68-1.68,10.27-11.64,11.11-12.9" class="grey" /><path d="M76.09,31.48c0.03,0.72,0.16,1.88-0.06,2.89c-1.61,7.27-5.23,19.58-10.8,28.35" class="grey" /><path d="M75.62,47.17c0.63,0.27,1.8,0,2.14-0.04c3.52-0.44,8.23-1.42,13.61-2.54c0.6-0.12,1.39-0.02,1.55,0.07" class="grey" /><path d="M84.46,49.93c0.35,1.12,0.54,1.92,0.18,3.96c-3.33,18.57-8.89,34.61-21.88,42.36" class="grey" /><path d="M70.08,57.21c4.98,9.13,14.13,26.8,20.78,35.45c1.22,1.59,2.52,2.65,3.55,2.81" class="grey" /><path d="M20.5,24.77c1.49,0.53,3.23,0.63,4.72,0.53c13.71-0.96,42.51-3.96,58.31-4.03c2.49-0.01,3.98,0.25,5.22,0.51" class="stroke" stroke-dasharray="150"><animate attributeName="stroke-dashoffset" from="150" to="0" dur="1.8s" begin="0.0s" fill="freeze" /></path><path d="M36.92,14.25c1.53,1.25,2.02,1.63,2.18,2.4c1.53,7.19,1.96,13.74,2.4,16.35" class="stroke" stroke-dasharray="150"><set attributeName="opacity" to="0" dur="1.5s" /><animate attributeName="stroke-dashoffset" from="150" to="0" dur="1.8s" begin="1.5s" fill="freeze" /></path><path d="M66.23,11.5c0.94,0.92,1.38,2.29,1.01,3.68c-1.5,5.57-1.75,8.32-3.85,15.82" class="stroke" stroke-dasharray="150"><set attributeName="opacity" to="0" dur="2.4s" /><animate attributeName="stroke-dashoffset" from="150" to="0" dur="1.8s" begin="2.4s" fill="freeze" /></path><path d="M31.84,35.13c0.04,0.35,0.21,0.97-0.09,1.39c-2.13,3-8.55,10.25-14.8,13.31" class="stroke" stroke-dasharray="150"><set attributeName="opacity" to="0" dur="3.4s" /><animate attributeName="stroke-dashoffset" from="150" to="0" dur="1.8s" begin="3.4s" fill="freeze" /></path><path d="M34.37,49.35c0.05,0.55,0.26,1.53-0.11,2.21c-2.59,4.78-9.75,14.34-18.93,21.16" class="stroke" stroke-dasharray="150"><set attributeName="opacity" to="0" dur="4.4s" /><animate attributeName="stroke-dashoffset" from="150" to="0" dur="1.8s" begin="4.4s" fill="freeze" /></path><path d="M27.31,63.42c0.3,0.21,0.9,1.38,0.96,1.81c0.06,0.43,0,30.41-0.06,33.09" class="stroke" stroke-dasharray="150"><set attributeName="opacity" to="0" dur="5.4s" /><animate attributeName="stroke-dashoffset" from="150" to="0" dur="1.8s" begin="5.4s" fill="freeze" /></path><path d="M50.8,32.5c0.42,0.25,1.32,1.87,1.4,2.37s-0.05,13.62-0.14,16.74" class="stroke" stroke-dasharray="150"><set attributeName="opacity" to="0" dur="6.4s" /><animate attributeName="stroke-dashoffset" from="150" to="0" dur="1.8s" begin="6.4s" fill="freeze" /></path><path d="M40.95,40.54c0.45,0.34,0.93,1.76,0.9,2.44C41.75,45.75,42,48,41.31,51.7c-0.28,1.51,0.78,2.67,1.9,2.32C49.5,52,55.5,51.25,63.32,50.31" class="stroke" stroke-dasharray="150"><set attributeName="opacity" to="0" dur="7.300000000000001s" /><animate attributeName="stroke-dashoffset" from="150" to="0" dur="1.8s" begin="7.300000000000001s" fill="freeze" /></path><path d="M62.73,39.4c0.42,0.25,0.91,1.87,0.84,2.37c-0.42,3.06,0.16,4.31-0.53,10.02" class="stroke" stroke-dasharray="150"><set attributeName="opacity" to="0" dur="8.3s" /><animate attributeName="stroke-dashoffset" from="150" to="0" dur="1.8s" begin="8.3s" fill="freeze" /></path><path d="M38.67,61.88c0.51,0.54,2.2,0.76,2.73,0.71C47.25,62,52.75,61,58.84,60.18c0.64-0.09,2.05-0.22,3.01,0.25" class="stroke" stroke-dasharray="150"><set attributeName="opacity" to="0" dur="9.200000000000001s" /><animate attributeName="stroke-dashoffset" from="150" to="0" dur="1.8s" begin="9.200000000000001s" fill="freeze" /></path><path d="M43.08,71.08c0.02,0.54,0.28,1.39,0.26,2.17C43.22,79.08,43,88.5,37.52,93.98" class="stroke" stroke-dasharray="150"><set attributeName="opacity" to="0" dur="10.200000000000001s" /><animate attributeName="stroke-dashoffset" from="150" to="0" dur="1.8s" begin="10.200000000000001s" fill="freeze" /></path><path d="M43.5,72.25c0.42,0.25,7.97-1.82,10.75-2.75c1.5-0.5,3.4,1,3.4,2.52c0,4.23-0.57,14.14-0.57,16.4c0,1.74-0.18,3,1.5,1.32c1.68-1.68,10.27-11.64,11.11-12.9" class="stroke" stroke-dasharray="150"><set attributeName="opacity" to="0" dur="11.200000000000001s" /><animate attributeName="stroke-dashoffset" from="150" to="0" dur="1.8s" begin="11.200000000000001s" fill="freeze" /></path><path d="M76.09,31.48c0.03,0.72,0.16,1.88-0.06,2.89c-1.61,7.27-5.23,19.58-10.8,28.35" class="stroke" stroke-dasharray="150"><set attributeName="opacity" to="0" dur="12.500000000000002s" /><animate attributeName="stroke-dashoffset" from="150" to="0" dur="1.8s" begin="12.500000000000002s" fill="freeze" /></path><path d="M75.62,47.17c0.63,0.27,1.8,0,2.14-0.04c3.52-0.44,8.23-1.42,13.61-2.54c0.6-0.12,1.39-0.02,1.55,0.07" class="stroke" stroke-dasharray="150"><set attributeName="opacity" to="0" dur="13.500000000000002s" /><animate attributeName="stroke-dashoffset" from="150" to="0" dur="1.8s" begin="13.500000000000002s" fill="freeze" /></path><path d="M84.46,49.93c0.35,1.12,0.54,1.92,0.18,3.96c-3.33,18.57-8.89,34.61-21.88,42.36" class="stroke" stroke-dasharray="150"><set attributeName="opacity" to="0" dur="14.400000000000002s" /><animate attributeName="stroke-dashoffset" from="150" to="0" dur="1.8s" begin="14.400000000000002s" fill="freeze" /></path><path d="M70.08,57.21c4.98,9.13,14.13,26.8,20.78,35.45c1.22,1.59,2.52,2.65,3.55,2.81" class="stroke" stroke-dasharray="150"><set attributeName="opacity" to="0" dur="15.700000000000003s" /><animate attributeName="stroke-dashoffset" from="150" to="0" dur="1.8s" begin="15.700000000000003s" fill="freeze" /></path><text x="90" y="120" id="reset-kvg-08587">⟳</text><text x="70" y="120" id="pause-kvg-08587">◼</text><script type="text/javascript"><![CDATA[function RecurringTimer(e,t){var n,r,i=t;this.pause=function(){window.clearTimeout(n);i-=new Date-r};var s=function(){r=new Date;n=window.setTimeout(function(){i=t;s();e()},i)};this.clear=function(){window.clearTimeout(n);i=t;n=window.setTimeout(function(){i=t;s();e()},i)};this.resume=s;this.resume()}function invoketimer(){timer=new RecurringTimer(function(){svg.setCurrentTime(0)},17900.000000000004)}var svg=document.getElementById("kvg-08587");var pause=document.getElementById("pause-kvg-08587");var reset=document.getElementById("reset-kvg-08587");var timer;invoketimer();reset.onclick=function(){svg.setCurrentTime(0);timer.clear();svg.unpauseAnimations();pause.innerHTML = "◼";};pause.onclick=function(){if(svg.animationsPaused()){svg.unpauseAnimations();timer.resume();pause.innerHTML="◼"}else{svg.pauseAnimations();timer.pause();pause.innerHTML="▶"}}]]></script></svg>