<svg id="kvg-085a4" class="kanjivg" width="106" height="126" xmlns="http://www.w3.org/2000/svg" xmlns:xlink="http://www.w3.org/1999/xlink" xml:space="preserve" version="1.1" baseProfile="full"><defs><style type="text/css"><![CDATA[path.black{fill:none;stroke:black;stroke-width:5;stroke-linecap:round;stroke-linejoin:round;}path.grey{fill:none;stroke:#ddd;stroke-width:5;stroke-linecap:round;stroke-linejoin:round;}path.stroke{fill:none;stroke:black;stroke-width:5;stroke-linecap:round;stroke-linejoin:round;}rect{fill:none;stroke:#555;stroke-width:2;} text{font-size:16px;font-family:Segoe UI Symbol,Cambria Math,DejaVu Sans,Symbola,Quivira,STIX,Code2000;-webkit-touch-callout:none;cursor:pointer;-webkit-user-select:none;-khtml-user-select:none;-moz-user-select:none;-ms-user-select:none;user-select: none;}text:hover{color:#777;}#reset{font-weight:bold;}]]></style><marker id="markerStart" markerWidth="8" markerHeight="8" style="overflow:visible;"><circle cx="0" cy="0" r="1.5" style="stroke:none;fill:red;fill-opacity:0.5;"/></marker><marker id="markerEnd" style="overflow:visible;"><circle cx="0" cy="0" r="0.8" style="stroke:none;fill:blue;fill-opacity:0.5;"><animate attributeName="opacity" from="1" to="0" dur="3s" repeatCount="indefinite" /></circle></marker></defs><rect x="4" y="4" width="100" height="100" /><path d="M17,22.21c1.61,0.94,3.47,1.06,5.1,0.94c15.65-1.07,46.43-3.15,63.51-3.28c2.69-0.02,4.3,0.45,5.64,0.92" class="grey" /><path d="M37.36,11.5c1.55,1.27,2.04,1.65,2.21,2.43C41.12,21.22,41.56,27.35,42,30" class="grey" /><path d="M67.21,11.25c0.92,0.82,1.53,2.06,1.22,3.26c-0.92,3.67-1.53,9.79-2.86,14.49" class="grey" /><path d="M15.91,38.17c0.97,0.03,2.7,0.1,3.67,0.01c4.95-0.43,17.81-2.75,23.88-3.46c1.59-0.19,2.55,0.24,3.35,0.49" class="grey" /><path d="M28.63,39.47c0.17,0.59,0.69,2.37,0.33,3.49c-2.42,7.56-7.36,18.62-15.95,27.84" class="grey" /><path d="M26.97,55.31c0.26,0.04,1.34,0,2.07-0.12c2.38-0.37,5.99-1.94,10.08-2.59c2.41-0.38,3.08,1.97,2.22,4.04C36.5,68.25,27,88.5,11.54,99.5" class="grey" /><path d="M21.49,66.27c2.76,1.58,7.13,6.51,7.82,8.98" class="grey" /><path d="M58.98,34.52c0.72,0.44,1.16,1.98,1.3,2.87c0.15,0.88,0,51.37-0.14,56.89" class="grey" /><path d="M71.24,34.25c0.73,0.44,1.16,1.99,1.31,2.87c0.14,0.88,0,50.75-0.14,56.27" class="grey" /><path d="M43.59,49.44c0.58,0.31,3.13,1.31,3.71,1.31c4.7-0.02,12.08-1.15,12.69-1.15" class="grey" /><path d="M43.91,65.41c0.58,0.31,2.13,0.81,2.71,0.81c4.7-0.02,13.1-0.55,13.72-0.55" class="grey" /><path d="M42.82,80.87c0.58,0.31,1.63,0.31,2.21,0.31c4.7-0.02,14.2-1.26,14.81-1.26" class="grey" /><path d="M73.83,48.65c0.83,0,12.66-1.58,16.46-2.08c1.04-0.13,1.67,0.15,2.19,0.3" class="grey" /><path d="M73.66,63.91c0.83,0,12.28-1.03,16.08-1.53c1.04-0.14,1.67,0.15,2.19,0.3" class="grey" /><path d="M73.83,79.29c0.83,0,12.44-1.53,16.24-2.03c1.04-0.13,1.67,0.15,2.19,0.3" class="grey" /><path d="M39.86,95.77c1.03,0.48,2.93,0.6,3.96,0.48c13.35-1.54,37.85-3.96,48.69-3.29c1.72,0.11,2.75,0.23,3.62,0.47" class="grey" /><path d="M17,22.21c1.61,0.94,3.47,1.06,5.1,0.94c15.65-1.07,46.43-3.15,63.51-3.28c2.69-0.02,4.3,0.45,5.64,0.92" class="stroke" stroke-dasharray="150"><animate attributeName="stroke-dashoffset" from="150" to="0" dur="1.8s" begin="0.0s" fill="freeze" /></path><path d="M37.36,11.5c1.55,1.27,2.04,1.65,2.21,2.43C41.12,21.22,41.56,27.35,42,30" class="stroke" stroke-dasharray="150"><set attributeName="opacity" to="0" dur="1.7s" /><animate attributeName="stroke-dashoffset" from="150" to="0" dur="1.8s" begin="1.7s" fill="freeze" /></path><path d="M67.21,11.25c0.92,0.82,1.53,2.06,1.22,3.26c-0.92,3.67-1.53,9.79-2.86,14.49" class="stroke" stroke-dasharray="150"><set attributeName="opacity" to="0" dur="2.6s" /><animate attributeName="stroke-dashoffset" from="150" to="0" dur="1.8s" begin="2.6s" fill="freeze" /></path><path d="M15.91,38.17c0.97,0.03,2.7,0.1,3.67,0.01c4.95-0.43,17.81-2.75,23.88-3.46c1.59-0.19,2.55,0.24,3.35,0.49" class="stroke" stroke-dasharray="150"><set attributeName="opacity" to="0" dur="3.5s" /><animate attributeName="stroke-dashoffset" from="150" to="0" dur="1.8s" begin="3.5s" fill="freeze" /></path><path d="M28.63,39.47c0.17,0.59,0.69,2.37,0.33,3.49c-2.42,7.56-7.36,18.62-15.95,27.84" class="stroke" stroke-dasharray="150"><set attributeName="opacity" to="0" dur="4.5s" /><animate attributeName="stroke-dashoffset" from="150" to="0" dur="1.8s" begin="4.5s" fill="freeze" /></path><path d="M26.97,55.31c0.26,0.04,1.34,0,2.07-0.12c2.38-0.37,5.99-1.94,10.08-2.59c2.41-0.38,3.08,1.97,2.22,4.04C36.5,68.25,27,88.5,11.54,99.5" class="stroke" stroke-dasharray="150"><set attributeName="opacity" to="0" dur="5.5s" /><animate attributeName="stroke-dashoffset" from="150" to="0" dur="1.8s" begin="5.5s" fill="freeze" /></path><path d="M21.49,66.27c2.76,1.58,7.13,6.51,7.82,8.98" class="stroke" stroke-dasharray="150"><set attributeName="opacity" to="0" dur="7.2s" /><animate attributeName="stroke-dashoffset" from="150" to="0" dur="1.8s" begin="7.2s" fill="freeze" /></path><path d="M58.98,34.52c0.72,0.44,1.16,1.98,1.3,2.87c0.15,0.88,0,51.37-0.14,56.89" class="stroke" stroke-dasharray="150"><set attributeName="opacity" to="0" dur="8.1s" /><animate attributeName="stroke-dashoffset" from="150" to="0" dur="1.8s" begin="8.1s" fill="freeze" /></path><path d="M71.24,34.25c0.73,0.44,1.16,1.99,1.31,2.87c0.14,0.88,0,50.75-0.14,56.27" class="stroke" stroke-dasharray="150"><set attributeName="opacity" to="0" dur="9.6s" /><animate attributeName="stroke-dashoffset" from="150" to="0" dur="1.8s" begin="9.6s" fill="freeze" /></path><path d="M43.59,49.44c0.58,0.31,3.13,1.31,3.71,1.31c4.7-0.02,12.08-1.15,12.69-1.15" class="stroke" stroke-dasharray="150"><set attributeName="opacity" to="0" dur="11.0s" /><animate attributeName="stroke-dashoffset" from="150" to="0" dur="1.8s" begin="11.0s" fill="freeze" /></path><path d="M43.91,65.41c0.58,0.31,2.13,0.81,2.71,0.81c4.7-0.02,13.1-0.55,13.72-0.55" class="stroke" stroke-dasharray="150"><set attributeName="opacity" to="0" dur="11.9s" /><animate attributeName="stroke-dashoffset" from="150" to="0" dur="1.8s" begin="11.9s" fill="freeze" /></path><path d="M42.82,80.87c0.58,0.31,1.63,0.31,2.21,0.31c4.7-0.02,14.2-1.26,14.81-1.26" class="stroke" stroke-dasharray="150"><set attributeName="opacity" to="0" dur="12.8s" /><animate attributeName="stroke-dashoffset" from="150" to="0" dur="1.8s" begin="12.8s" fill="freeze" /></path><path d="M73.83,48.65c0.83,0,12.66-1.58,16.46-2.08c1.04-0.13,1.67,0.15,2.19,0.3" class="stroke" stroke-dasharray="150"><set attributeName="opacity" to="0" dur="13.700000000000001s" /><animate attributeName="stroke-dashoffset" from="150" to="0" dur="1.8s" begin="13.700000000000001s" fill="freeze" /></path><path d="M73.66,63.91c0.83,0,12.28-1.03,16.08-1.53c1.04-0.14,1.67,0.15,2.19,0.3" class="stroke" stroke-dasharray="150"><set attributeName="opacity" to="0" dur="14.600000000000001s" /><animate attributeName="stroke-dashoffset" from="150" to="0" dur="1.8s" begin="14.600000000000001s" fill="freeze" /></path><path d="M73.83,79.29c0.83,0,12.44-1.53,16.24-2.03c1.04-0.13,1.67,0.15,2.19,0.3" class="stroke" stroke-dasharray="150"><set attributeName="opacity" to="0" dur="15.500000000000002s" /><animate attributeName="stroke-dashoffset" from="150" to="0" dur="1.8s" begin="15.500000000000002s" fill="freeze" /></path><path d="M39.86,95.77c1.03,0.48,2.93,0.6,3.96,0.48c13.35-1.54,37.85-3.96,48.69-3.29c1.72,0.11,2.75,0.23,3.62,0.47" class="stroke" stroke-dasharray="150"><set attributeName="opacity" to="0" dur="16.400000000000002s" /><animate attributeName="stroke-dashoffset" from="150" to="0" dur="1.8s" begin="16.400000000000002s" fill="freeze" /></path><text x="90" y="120" id="reset-kvg-085a4">⟳</text><text x="70" y="120" id="pause-kvg-085a4">◼</text><script type="text/javascript"><![CDATA[function RecurringTimer(e,t){var n,r,i=t;this.pause=function(){window.clearTimeout(n);i-=new Date-r};var s=function(){r=new Date;n=window.setTimeout(function(){i=t;s();e()},i)};this.clear=function(){window.clearTimeout(n);i=t;n=window.setTimeout(function(){i=t;s();e()},i)};this.resume=s;this.resume()}function invoketimer(){timer=new RecurringTimer(function(){svg.setCurrentTime(0)},18800.0)}var svg=document.getElementById("kvg-085a4");var pause=document.getElementById("pause-kvg-085a4");var reset=document.getElementById("reset-kvg-085a4");var timer;invoketimer();reset.onclick=function(){svg.setCurrentTime(0);timer.clear();svg.unpauseAnimations();pause.innerHTML = "◼";};pause.onclick=function(){if(svg.animationsPaused()){svg.unpauseAnimations();timer.resume();pause.innerHTML="◼"}else{svg.pauseAnimations();timer.pause();pause.innerHTML="▶"}}]]></script></svg>