<svg id="kvg-085e5-Kaisho" class="kanjivg" width="106" height="126" xmlns="http://www.w3.org/2000/svg" xmlns:xlink="http://www.w3.org/1999/xlink" xml:space="preserve" version="1.1" baseProfile="full"><defs><style type="text/css"><![CDATA[path.black{fill:none;stroke:black;stroke-width:5;stroke-linecap:round;stroke-linejoin:round;}path.grey{fill:none;stroke:#ddd;stroke-width:5;stroke-linecap:round;stroke-linejoin:round;}path.stroke{fill:none;stroke:black;stroke-width:5;stroke-linecap:round;stroke-linejoin:round;}rect{fill:none;stroke:#555;stroke-width:2;} text{font-size:16px;font-family:Segoe UI Symbol,Cambria Math,DejaVu Sans,Symbola,Quivira,STIX,Code2000;-webkit-touch-callout:none;cursor:pointer;-webkit-user-select:none;-khtml-user-select:none;-moz-user-select:none;-ms-user-select:none;user-select: none;}text:hover{color:#777;}#reset{font-weight:bold;}]]></style><marker id="markerStart" markerWidth="8" markerHeight="8" style="overflow:visible;"><circle cx="0" cy="0" r="1.5" style="stroke:none;fill:red;fill-opacity:0.5;"/></marker><marker id="markerEnd" style="overflow:visible;"><circle cx="0" cy="0" r="0.8" style="stroke:none;fill:blue;fill-opacity:0.5;"><animate attributeName="opacity" from="1" to="0" dur="3s" repeatCount="indefinite" /></circle></marker></defs><rect x="4" y="4" width="100" height="100" /><path d="M20,20.1c1.67,0.67,3.6,0.8,5.27,0.67c15.3-1.22,41.02-3.89,58.65-3.98c2.78-0.01,4.44,0.32,5.83,0.65" class="grey" /><path d="M37.25,11.5c1.75,1.17,2.31,1.52,2.5,2.24C41.5,20.45,42,26.56,42.5,29" class="grey" /><path d="M67.52,9c1.01,0.9,1.68,2.26,1.34,3.59c-1.01,4.03-1.68,10.76-3.14,15.91" class="grey" /><path d="M53.88,24.75c0.17,0.29,0.19,0.66,0.15,0.91c-0.23,1.52-2.25,5.16-4.08,7.2" class="grey" /><path d="M45.5,33.54c0.38,0.64,0.92,1.84,0.92,2.67s0.4,20.44,0.51,24.49" class="grey" /><path d="M46.69,35.54c1.5-0.1,12.43-2.22,13.79-2.34c1.14-0.1,1.87,0.69,1.78,1.3c-0.18,1.23-0.43,18.27-0.57,24.83" class="grey" /><path d="M47.11,46.61c2.42,0,4.93-0.6,7.3-0.96c0.79-0.12,1.58-0.24,2.34-0.35" class="grey" /><path d="M47.37,58.15c3,0,10.16-0.87,14.03-0.87" class="grey" /><path d="M28.41,30.09c0.24,0.91,0.46,1.69-0.12,2.59c-2.54,3.96-4.78,7.74-7.2,9.87c-0.5,0.44-0.48,2.11,0,2.28c2.54,0.91,5.16,1.41,8.51,2.78" class="grey" /><path d="M36.99,37.93c0.24,0.4,0.32,1.7,0,2.11c-4.74,6.19-9.99,12.14-16.8,18.93c-0.84,0.83-0.48,1.74,0.48,1.47c4.05-1.1,12.17-3.44,17.37-4.49" class="grey" /><path d="M35.32,50.76c2.07,1.84,5.35,7.56,5.87,10.43" class="grey" /><path d="M76.66,27.68c0.24,0.88,0.46,1.62-0.12,2.48c-2.54,3.8-4.78,7.85-7.2,9.89c-0.5,0.42-0.48,2.03,0,2.19c2.54,0.88,5.33,1.34,7.51,2.94" class="grey" /><path d="M84.24,35.52c0.24,0.37,0.3,1.57,0,2c-3.99,5.73-10.09,12.41-16.3,18.94c-0.78,0.82,0.02,2.17,0.98,1.92c4.05-1.04,9.32-3.12,15.87-6.33" class="grey" /><path d="M81.32,48.6c2.69,1.91,6.95,7.87,7.62,10.85" class="grey" /><path d="M20.28,71.71c1,0.17,3.68,0.69,6.33,0.5c11.93-0.85,38.26-3.19,56.59-4.02c2.66-0.12,5.33-0.17,7,0" class="grey" /><path d="M52.45,62.35c0.9,0.38,1.43,1.7,1.61,2.46c0.18,0.76-0.18,30.77-0.18,30.44c0,11.75-4.76,2.88-5.63,2" class="grey" /><path d="M52.75,71.06c-5.5,8.33-18.5,18.44-36.25,24.4" class="grey" /><path d="M54.76,71.52C63,77.25,75.25,86.5,85.79,92.78c1.78,1.06,3.22,1.54,4.96,1.85" class="grey" /><path d="M20,20.1c1.67,0.67,3.6,0.8,5.27,0.67c15.3-1.22,41.02-3.89,58.65-3.98c2.78-0.01,4.44,0.32,5.83,0.65" class="stroke" stroke-dasharray="150"><animate attributeName="stroke-dashoffset" from="150" to="0" dur="1.8s" begin="0.0s" fill="freeze" /></path><path d="M37.25,11.5c1.75,1.17,2.31,1.52,2.5,2.24C41.5,20.45,42,26.56,42.5,29" class="stroke" stroke-dasharray="150"><set attributeName="opacity" to="0" dur="1.7s" /><animate attributeName="stroke-dashoffset" from="150" to="0" dur="1.8s" begin="1.7s" fill="freeze" /></path><path d="M67.52,9c1.01,0.9,1.68,2.26,1.34,3.59c-1.01,4.03-1.68,10.76-3.14,15.91" class="stroke" stroke-dasharray="150"><set attributeName="opacity" to="0" dur="2.6s" /><animate attributeName="stroke-dashoffset" from="150" to="0" dur="1.8s" begin="2.6s" fill="freeze" /></path><path d="M53.88,24.75c0.17,0.29,0.19,0.66,0.15,0.91c-0.23,1.52-2.25,5.16-4.08,7.2" class="stroke" stroke-dasharray="150"><set attributeName="opacity" to="0" dur="3.6s" /><animate attributeName="stroke-dashoffset" from="150" to="0" dur="1.8s" begin="3.6s" fill="freeze" /></path><path d="M45.5,33.54c0.38,0.64,0.92,1.84,0.92,2.67s0.4,20.44,0.51,24.49" class="stroke" stroke-dasharray="150"><set attributeName="opacity" to="0" dur="4.5s" /><animate attributeName="stroke-dashoffset" from="150" to="0" dur="1.8s" begin="4.5s" fill="freeze" /></path><path d="M46.69,35.54c1.5-0.1,12.43-2.22,13.79-2.34c1.14-0.1,1.87,0.69,1.78,1.3c-0.18,1.23-0.43,18.27-0.57,24.83" class="stroke" stroke-dasharray="150"><set attributeName="opacity" to="0" dur="5.5s" /><animate attributeName="stroke-dashoffset" from="150" to="0" dur="1.8s" begin="5.5s" fill="freeze" /></path><path d="M47.11,46.61c2.42,0,4.93-0.6,7.3-0.96c0.79-0.12,1.58-0.24,2.34-0.35" class="stroke" stroke-dasharray="150"><set attributeName="opacity" to="0" dur="6.6s" /><animate attributeName="stroke-dashoffset" from="150" to="0" dur="1.8s" begin="6.6s" fill="freeze" /></path><path d="M47.37,58.15c3,0,10.16-0.87,14.03-0.87" class="stroke" stroke-dasharray="150"><set attributeName="opacity" to="0" dur="7.5s" /><animate attributeName="stroke-dashoffset" from="150" to="0" dur="1.8s" begin="7.5s" fill="freeze" /></path><path d="M28.41,30.09c0.24,0.91,0.46,1.69-0.12,2.59c-2.54,3.96-4.78,7.74-7.2,9.87c-0.5,0.44-0.48,2.11,0,2.28c2.54,0.91,5.16,1.41,8.51,2.78" class="stroke" stroke-dasharray="150"><set attributeName="opacity" to="0" dur="8.4s" /><animate attributeName="stroke-dashoffset" from="150" to="0" dur="1.8s" begin="8.4s" fill="freeze" /></path><path d="M36.99,37.93c0.24,0.4,0.32,1.7,0,2.11c-4.74,6.19-9.99,12.14-16.8,18.93c-0.84,0.83-0.48,1.74,0.48,1.47c4.05-1.1,12.17-3.44,17.37-4.49" class="stroke" stroke-dasharray="150"><set attributeName="opacity" to="0" dur="9.4s" /><animate attributeName="stroke-dashoffset" from="150" to="0" dur="1.8s" begin="9.4s" fill="freeze" /></path><path d="M35.32,50.76c2.07,1.84,5.35,7.56,5.87,10.43" class="stroke" stroke-dasharray="150"><set attributeName="opacity" to="0" dur="10.6s" /><animate attributeName="stroke-dashoffset" from="150" to="0" dur="1.8s" begin="10.6s" fill="freeze" /></path><path d="M76.66,27.68c0.24,0.88,0.46,1.62-0.12,2.48c-2.54,3.8-4.78,7.85-7.2,9.89c-0.5,0.42-0.48,2.03,0,2.19c2.54,0.88,5.33,1.34,7.51,2.94" class="stroke" stroke-dasharray="150"><set attributeName="opacity" to="0" dur="11.5s" /><animate attributeName="stroke-dashoffset" from="150" to="0" dur="1.8s" begin="11.5s" fill="freeze" /></path><path d="M84.24,35.52c0.24,0.37,0.3,1.57,0,2c-3.99,5.73-10.09,12.41-16.3,18.94c-0.78,0.82,0.02,2.17,0.98,1.92c4.05-1.04,9.32-3.12,15.87-6.33" class="stroke" stroke-dasharray="150"><set attributeName="opacity" to="0" dur="12.5s" /><animate attributeName="stroke-dashoffset" from="150" to="0" dur="1.8s" begin="12.5s" fill="freeze" /></path><path d="M81.32,48.6c2.69,1.91,6.95,7.87,7.62,10.85" class="stroke" stroke-dasharray="150"><set attributeName="opacity" to="0" dur="13.7s" /><animate attributeName="stroke-dashoffset" from="150" to="0" dur="1.8s" begin="13.7s" fill="freeze" /></path><path d="M20.28,71.71c1,0.17,3.68,0.69,6.33,0.5c11.93-0.85,38.26-3.19,56.59-4.02c2.66-0.12,5.33-0.17,7,0" class="stroke" stroke-dasharray="150"><set attributeName="opacity" to="0" dur="14.6s" /><animate attributeName="stroke-dashoffset" from="150" to="0" dur="1.8s" begin="14.6s" fill="freeze" /></path><path d="M52.45,62.35c0.9,0.38,1.43,1.7,1.61,2.46c0.18,0.76-0.18,30.77-0.18,30.44c0,11.75-4.76,2.88-5.63,2" class="stroke" stroke-dasharray="150"><set attributeName="opacity" to="0" dur="16.3s" /><animate attributeName="stroke-dashoffset" from="150" to="0" dur="1.8s" begin="16.3s" fill="freeze" /></path><path d="M52.75,71.06c-5.5,8.33-18.5,18.44-36.25,24.4" class="stroke" stroke-dasharray="150"><set attributeName="opacity" to="0" dur="17.5s" /><animate attributeName="stroke-dashoffset" from="150" to="0" dur="1.8s" begin="17.5s" fill="freeze" /></path><path d="M54.76,71.52C63,77.25,75.25,86.5,85.79,92.78c1.78,1.06,3.22,1.54,4.96,1.85" class="stroke" stroke-dasharray="150"><set attributeName="opacity" to="0" dur="18.6s" /><animate attributeName="stroke-dashoffset" from="150" to="0" dur="1.8s" begin="18.6s" fill="freeze" /></path><text x="90" y="120" id="reset-kvg-085e5-Kaisho">⟳</text><text x="70" y="120" id="pause-kvg-085e5-Kaisho">◼</text><script type="text/javascript"><![CDATA[function RecurringTimer(e,t){var n,r,i=t;this.pause=function(){window.clearTimeout(n);i-=new Date-r};var s=function(){r=new Date;n=window.setTimeout(function(){i=t;s();e()},i)};this.clear=function(){window.clearTimeout(n);i=t;n=window.setTimeout(function(){i=t;s();e()},i)};this.resume=s;this.resume()}function invoketimer(){timer=new RecurringTimer(function(){svg.setCurrentTime(0)},20700.000000000004)}var svg=document.getElementById("kvg-085e5-Kaisho");var pause=document.getElementById("pause-kvg-085e5-Kaisho");var reset=document.getElementById("reset-kvg-085e5-Kaisho");var timer;invoketimer();reset.onclick=function(){svg.setCurrentTime(0);timer.clear();svg.unpauseAnimations();pause.innerHTML = "◼";};pause.onclick=function(){if(svg.animationsPaused()){svg.unpauseAnimations();timer.resume();pause.innerHTML="◼"}else{svg.pauseAnimations();timer.pause();pause.innerHTML="▶"}}]]></script></svg>