<svg id="kvg-085f7-HyougaiKaisho" class="kanjivg" width="106" height="126" xmlns="http://www.w3.org/2000/svg" xmlns:xlink="http://www.w3.org/1999/xlink" xml:space="preserve" version="1.1" baseProfile="full"><defs><style type="text/css"><![CDATA[path.black{fill:none;stroke:black;stroke-width:5;stroke-linecap:round;stroke-linejoin:round;}path.grey{fill:none;stroke:#ddd;stroke-width:5;stroke-linecap:round;stroke-linejoin:round;}path.stroke{fill:none;stroke:black;stroke-width:5;stroke-linecap:round;stroke-linejoin:round;}rect{fill:none;stroke:#555;stroke-width:2;} text{font-size:16px;font-family:Segoe UI Symbol,Cambria Math,DejaVu Sans,Symbola,Quivira,STIX,Code2000;-webkit-touch-callout:none;cursor:pointer;-webkit-user-select:none;-khtml-user-select:none;-moz-user-select:none;-ms-user-select:none;user-select: none;}text:hover{color:#777;}#reset{font-weight:bold;}]]></style><marker id="markerStart" markerWidth="8" markerHeight="8" style="overflow:visible;"><circle cx="0" cy="0" r="1.5" style="stroke:none;fill:red;fill-opacity:0.5;"/></marker><marker id="markerEnd" style="overflow:visible;"><circle cx="0" cy="0" r="0.8" style="stroke:none;fill:blue;fill-opacity:0.5;"><animate attributeName="opacity" from="1" to="0" dur="3s" repeatCount="indefinite" /></circle></marker></defs><rect x="4" y="4" width="100" height="100" /><path d="M20,22.77c1.29,0.53,2.8,0.63,4.1,0.53c11.9-0.96,45.4-2.96,59.12-3.03c2.16-0.01,3.45,0.25,4.53,0.51" class="grey" /><path d="M37.75,13c1.5,1.28,1.98,1.67,2.14,2.46c1.5,7.39,1.93,14.1,2.36,16.79" class="grey" /><path d="M67.23,10.75c1.01,0.9,1.68,2.26,1.34,3.59c-1.01,4.03-1.68,9.76-3.14,14.91" class="grey" /><path d="M24.22,32.56c3.33,1.43,8.59,5.88,9.42,8.11" class="grey" /><path d="M14.77,48.4c0.67,0.24,3.22,0.27,3.89,0.24c8.27-0.43,15.63-2.21,21.65-2.42c1.12-0.04,2.8,0.12,3.36,0.24" class="grey" /><path d="M21.15,58.23c0.37,0.1,2.63,0.11,3,0.1c3.85-0.11,9.17-0.76,13.05-1.27c0.61-0.08,3.19,0.05,3.49,0.1" class="grey" /><path d="M21.32,68.76c0.33,0.09,2.35,0.11,2.68,0.09c3.44-0.11,10.96-1.81,14.35-1.8c0.55,0,2.85,0.05,3.12,0.09" class="grey" /><path d="M22.01,79.55c0.34,0.29,0.72,0.9,0.83,1.28c0.96,3.3,1.75,12.4,2.72,17.24" class="grey" /><path d="M23.25,81.11c6.24-0.7,11.38-2.04,17.13-2.74c1.44-0.17,2.32,0.81,2.11,1.62c-0.86,3.33-1.68,7.83-3.2,13.37" class="grey" /><path d="M25.83,96.39c4.65-0.42,8.88-0.67,15.27-1.33" class="grey" /><path d="M51.76,44.65c0.49,0.25,1.38,0.28,1.87,0.25c7.49-0.44,14.93-1.96,20.39-2.13c0.81-0.03,1.3,0.12,1.7,0.25" class="grey" /><path d="M63.88,33.87c0.08,0.23,1.04,1.19,1.12,2.64c0.35,6.97,0.19,17.81,0.19,20.18" class="grey" /><path d="M47.21,57.61c0.95,0.31,2.4,0.44,3.26,0.46c6.78,0.18,34.92-3.03,40.41-3.17c1.42-0.04,2.26,0.22,2.97,0.46" class="grey" /><path d="M83.88,34.6c0.1,0.93,0.57,2.65-0.21,3.75C73.73,52.56,62,65.5,45.84,75.86" class="grey" /><path d="M60.63,70.06c0.29,0.64,0.58,0.96,0.58,1.81c0,0.85-0.1,24.27,0,25.13" class="grey" /><path d="M61.69,71.17c1.63-0.11,19.07-2.17,20.55-2.3c1.24-0.11,2.03,1.22,1.94,1.86c-0.2,1.32-0.38,25.8-0.38,26.46" class="grey" /><path d="M61.98,82.7c3.48,0,7-0.48,10.46-0.76c1.17-0.09,2.35-0.19,3.48-0.28" class="grey" /><path d="M61.88,95.61c4.48-0.46,15.66-0.92,21.24-1.33" class="grey" /><path d="M20,22.77c1.29,0.53,2.8,0.63,4.1,0.53c11.9-0.96,45.4-2.96,59.12-3.03c2.16-0.01,3.45,0.25,4.53,0.51" class="stroke" stroke-dasharray="150"><animate attributeName="stroke-dashoffset" from="150" to="0" dur="1.8s" begin="0.0s" fill="freeze" /></path><path d="M37.75,13c1.5,1.28,1.98,1.67,2.14,2.46c1.5,7.39,1.93,14.1,2.36,16.79" class="stroke" stroke-dasharray="150"><set attributeName="opacity" to="0" dur="1.5s" /><animate attributeName="stroke-dashoffset" from="150" to="0" dur="1.8s" begin="1.5s" fill="freeze" /></path><path d="M67.23,10.75c1.01,0.9,1.68,2.26,1.34,3.59c-1.01,4.03-1.68,9.76-3.14,14.91" class="stroke" stroke-dasharray="150"><set attributeName="opacity" to="0" dur="2.5s" /><animate attributeName="stroke-dashoffset" from="150" to="0" dur="1.8s" begin="2.5s" fill="freeze" /></path><path d="M24.22,32.56c3.33,1.43,8.59,5.88,9.42,8.11" class="stroke" stroke-dasharray="150"><set attributeName="opacity" to="0" dur="3.4s" /><animate attributeName="stroke-dashoffset" from="150" to="0" dur="1.8s" begin="3.4s" fill="freeze" /></path><path d="M14.77,48.4c0.67,0.24,3.22,0.27,3.89,0.24c8.27-0.43,15.63-2.21,21.65-2.42c1.12-0.04,2.8,0.12,3.36,0.24" class="stroke" stroke-dasharray="150"><set attributeName="opacity" to="0" dur="4.3s" /><animate attributeName="stroke-dashoffset" from="150" to="0" dur="1.8s" begin="4.3s" fill="freeze" /></path><path d="M21.15,58.23c0.37,0.1,2.63,0.11,3,0.1c3.85-0.11,9.17-0.76,13.05-1.27c0.61-0.08,3.19,0.05,3.49,0.1" class="stroke" stroke-dasharray="150"><set attributeName="opacity" to="0" dur="5.3s" /><animate attributeName="stroke-dashoffset" from="150" to="0" dur="1.8s" begin="5.3s" fill="freeze" /></path><path d="M21.32,68.76c0.33,0.09,2.35,0.11,2.68,0.09c3.44-0.11,10.96-1.81,14.35-1.8c0.55,0,2.85,0.05,3.12,0.09" class="stroke" stroke-dasharray="150"><set attributeName="opacity" to="0" dur="6.2s" /><animate attributeName="stroke-dashoffset" from="150" to="0" dur="1.8s" begin="6.2s" fill="freeze" /></path><path d="M22.01,79.55c0.34,0.29,0.72,0.9,0.83,1.28c0.96,3.3,1.75,12.4,2.72,17.24" class="stroke" stroke-dasharray="150"><set attributeName="opacity" to="0" dur="7.2s" /><animate attributeName="stroke-dashoffset" from="150" to="0" dur="1.8s" begin="7.2s" fill="freeze" /></path><path d="M23.25,81.11c6.24-0.7,11.38-2.04,17.13-2.74c1.44-0.17,2.32,0.81,2.11,1.62c-0.86,3.33-1.68,7.83-3.2,13.37" class="stroke" stroke-dasharray="150"><set attributeName="opacity" to="0" dur="8.1s" /><animate attributeName="stroke-dashoffset" from="150" to="0" dur="1.8s" begin="8.1s" fill="freeze" /></path><path d="M25.83,96.39c4.65-0.42,8.88-0.67,15.27-1.33" class="stroke" stroke-dasharray="150"><set attributeName="opacity" to="0" dur="9.1s" /><animate attributeName="stroke-dashoffset" from="150" to="0" dur="1.8s" begin="9.1s" fill="freeze" /></path><path d="M51.76,44.65c0.49,0.25,1.38,0.28,1.87,0.25c7.49-0.44,14.93-1.96,20.39-2.13c0.81-0.03,1.3,0.12,1.7,0.25" class="stroke" stroke-dasharray="150"><set attributeName="opacity" to="0" dur="10.0s" /><animate attributeName="stroke-dashoffset" from="150" to="0" dur="1.8s" begin="10.0s" fill="freeze" /></path><path d="M63.88,33.87c0.08,0.23,1.04,1.19,1.12,2.64c0.35,6.97,0.19,17.81,0.19,20.18" class="stroke" stroke-dasharray="150"><set attributeName="opacity" to="0" dur="11.0s" /><animate attributeName="stroke-dashoffset" from="150" to="0" dur="1.8s" begin="11.0s" fill="freeze" /></path><path d="M47.21,57.61c0.95,0.31,2.4,0.44,3.26,0.46c6.78,0.18,34.92-3.03,40.41-3.17c1.42-0.04,2.26,0.22,2.97,0.46" class="stroke" stroke-dasharray="150"><set attributeName="opacity" to="0" dur="12.0s" /><animate attributeName="stroke-dashoffset" from="150" to="0" dur="1.8s" begin="12.0s" fill="freeze" /></path><path d="M83.88,34.6c0.1,0.93,0.57,2.65-0.21,3.75C73.73,52.56,62,65.5,45.84,75.86" class="stroke" stroke-dasharray="150"><set attributeName="opacity" to="0" dur="13.2s" /><animate attributeName="stroke-dashoffset" from="150" to="0" dur="1.8s" begin="13.2s" fill="freeze" /></path><path d="M60.63,70.06c0.29,0.64,0.58,0.96,0.58,1.81c0,0.85-0.1,24.27,0,25.13" class="stroke" stroke-dasharray="150"><set attributeName="opacity" to="0" dur="14.6s" /><animate attributeName="stroke-dashoffset" from="150" to="0" dur="1.8s" begin="14.6s" fill="freeze" /></path><path d="M61.69,71.17c1.63-0.11,19.07-2.17,20.55-2.3c1.24-0.11,2.03,1.22,1.94,1.86c-0.2,1.32-0.38,25.8-0.38,26.46" class="stroke" stroke-dasharray="150"><set attributeName="opacity" to="0" dur="15.6s" /><animate attributeName="stroke-dashoffset" from="150" to="0" dur="1.8s" begin="15.6s" fill="freeze" /></path><path d="M61.98,82.7c3.48,0,7-0.48,10.46-0.76c1.17-0.09,2.35-0.19,3.48-0.28" class="stroke" stroke-dasharray="150"><set attributeName="opacity" to="0" dur="16.9s" /><animate attributeName="stroke-dashoffset" from="150" to="0" dur="1.8s" begin="16.9s" fill="freeze" /></path><path d="M61.88,95.61c4.48-0.46,15.66-0.92,21.24-1.33" class="stroke" stroke-dasharray="150"><set attributeName="opacity" to="0" dur="17.799999999999997s" /><animate attributeName="stroke-dashoffset" from="150" to="0" dur="1.8s" begin="17.799999999999997s" fill="freeze" /></path><text x="90" y="120" id="reset-kvg-085f7-HyougaiKaisho">⟳</text><text x="70" y="120" id="pause-kvg-085f7-HyougaiKaisho">◼</text><script type="text/javascript"><![CDATA[function RecurringTimer(e,t){var n,r,i=t;this.pause=function(){window.clearTimeout(n);i-=new Date-r};var s=function(){r=new Date;n=window.setTimeout(function(){i=t;s();e()},i)};this.clear=function(){window.clearTimeout(n);i=t;n=window.setTimeout(function(){i=t;s();e()},i)};this.resume=s;this.resume()}function invoketimer(){timer=new RecurringTimer(function(){svg.setCurrentTime(0)},19799.999999999996)}var svg=document.getElementById("kvg-085f7-HyougaiKaisho");var pause=document.getElementById("pause-kvg-085f7-HyougaiKaisho");var reset=document.getElementById("reset-kvg-085f7-HyougaiKaisho");var timer;invoketimer();reset.onclick=function(){svg.setCurrentTime(0);timer.clear();svg.unpauseAnimations();pause.innerHTML = "◼";};pause.onclick=function(){if(svg.animationsPaused()){svg.unpauseAnimations();timer.resume();pause.innerHTML="◼"}else{svg.pauseAnimations();timer.pause();pause.innerHTML="▶"}}]]></script></svg>