<svg id="kvg-08695" class="kanjivg" width="106" height="126" xmlns="http://www.w3.org/2000/svg" xmlns:xlink="http://www.w3.org/1999/xlink" xml:space="preserve" version="1.1" baseProfile="full"><defs><style type="text/css"><![CDATA[path.black{fill:none;stroke:black;stroke-width:5;stroke-linecap:round;stroke-linejoin:round;}path.grey{fill:none;stroke:#ddd;stroke-width:5;stroke-linecap:round;stroke-linejoin:round;}path.stroke{fill:none;stroke:black;stroke-width:5;stroke-linecap:round;stroke-linejoin:round;}rect{fill:none;stroke:#555;stroke-width:2;} text{font-size:16px;font-family:Segoe UI Symbol,Cambria Math,DejaVu Sans,Symbola,Quivira,STIX,Code2000;-webkit-touch-callout:none;cursor:pointer;-webkit-user-select:none;-khtml-user-select:none;-moz-user-select:none;-ms-user-select:none;user-select: none;}text:hover{color:#777;}#reset{font-weight:bold;}]]></style><marker id="markerStart" markerWidth="8" markerHeight="8" style="overflow:visible;"><circle cx="0" cy="0" r="1.5" style="stroke:none;fill:red;fill-opacity:0.5;"/></marker><marker id="markerEnd" style="overflow:visible;"><circle cx="0" cy="0" r="0.8" style="stroke:none;fill:blue;fill-opacity:0.5;"><animate attributeName="opacity" from="1" to="0" dur="3s" repeatCount="indefinite" /></circle></marker></defs><rect x="4" y="4" width="100" height="100" /><path d="M19.13,18.58c2.77,1.06,6.63,0.53,9.49,0.15c16.75-2.23,36.17-4.13,50.12-5.22c3.38-0.26,7.33-0.28,10.64,0.47" class="grey" /><path d="M26.81,37c2.94,0.75,6.09,0.46,8.56,0.11c10.61-1.53,31.59-4.06,42.1-5.09c2.93-0.29,6.11-0.48,8.98,0.16" class="grey" /><path d="M50.62,19.75c0.38,1.12,0.4,2.38,0,3.92C46,41.12,34,60,11.25,72.87" class="grey" /><path d="M61.1,34.39c7.65,8.23,17.6,18.77,25.93,25.97C88.86,61.94,91,64,94,66.25" class="grey" /><path d="M34.78,61.35c0.81,0.81,1.47,1.9,1.74,2.97c0.84,3.2,1.17,7.08,2.09,12.67c0.16,0.96,0.32,1.95,0.49,3" class="grey" /><path d="M37.48,63.69c11.33-1.69,24.58-3.79,31.77-4.3c3.33-0.24,5.44,0.15,4.5,3.74c-0.96,3.66-1.9,7.65-2.92,11.08" class="grey" /><path d="M39.94,77.95c6.62-0.68,18.95-1.68,28.81-2.39c1.21-0.09,2.38-0.17,3.52-0.25" class="grey" /><path d="M53.82,47.25c0.78,0.78,1.06,2.12,1.06,3.84c0,1.91,0.22,33.16,0.22,39.57" class="grey" /><path d="M30.11,94.4c0.89,1.22,1.51,1.35,3.21,1.11c5.4-0.77,40.52-7.15,43.06-8" class="grey" /><path d="M71.38,82c4.39,2.53,11.34,10.39,12.44,14.32" class="grey" /><path d="M19.13,18.58c2.77,1.06,6.63,0.53,9.49,0.15c16.75-2.23,36.17-4.13,50.12-5.22c3.38-0.26,7.33-0.28,10.64,0.47" class="stroke" stroke-dasharray="150"><animate attributeName="stroke-dashoffset" from="150" to="0" dur="1.8s" begin="0.0s" fill="freeze" /></path><path d="M26.81,37c2.94,0.75,6.09,0.46,8.56,0.11c10.61-1.53,31.59-4.06,42.1-5.09c2.93-0.29,6.11-0.48,8.98,0.16" class="stroke" stroke-dasharray="150"><set attributeName="opacity" to="0" dur="1.7s" /><animate attributeName="stroke-dashoffset" from="150" to="0" dur="1.8s" begin="1.7s" fill="freeze" /></path><path d="M50.62,19.75c0.38,1.12,0.4,2.38,0,3.92C46,41.12,34,60,11.25,72.87" class="stroke" stroke-dasharray="150"><set attributeName="opacity" to="0" dur="3.2s" /><animate attributeName="stroke-dashoffset" from="150" to="0" dur="1.8s" begin="3.2s" fill="freeze" /></path><path d="M61.1,34.39c7.65,8.23,17.6,18.77,25.93,25.97C88.86,61.94,91,64,94,66.25" class="stroke" stroke-dasharray="150"><set attributeName="opacity" to="0" dur="4.7s" /><animate attributeName="stroke-dashoffset" from="150" to="0" dur="1.8s" begin="4.7s" fill="freeze" /></path><path d="M34.78,61.35c0.81,0.81,1.47,1.9,1.74,2.97c0.84,3.2,1.17,7.08,2.09,12.67c0.16,0.96,0.32,1.95,0.49,3" class="stroke" stroke-dasharray="150"><set attributeName="opacity" to="0" dur="5.9s" /><animate attributeName="stroke-dashoffset" from="150" to="0" dur="1.8s" begin="5.9s" fill="freeze" /></path><path d="M37.48,63.69c11.33-1.69,24.58-3.79,31.77-4.3c3.33-0.24,5.44,0.15,4.5,3.74c-0.96,3.66-1.9,7.65-2.92,11.08" class="stroke" stroke-dasharray="150"><set attributeName="opacity" to="0" dur="6.800000000000001s" /><animate attributeName="stroke-dashoffset" from="150" to="0" dur="1.8s" begin="6.800000000000001s" fill="freeze" /></path><path d="M39.94,77.95c6.62-0.68,18.95-1.68,28.81-2.39c1.21-0.09,2.38-0.17,3.52-0.25" class="stroke" stroke-dasharray="150"><set attributeName="opacity" to="0" dur="8.100000000000001s" /><animate attributeName="stroke-dashoffset" from="150" to="0" dur="1.8s" begin="8.100000000000001s" fill="freeze" /></path><path d="M53.82,47.25c0.78,0.78,1.06,2.12,1.06,3.84c0,1.91,0.22,33.16,0.22,39.57" class="stroke" stroke-dasharray="150"><set attributeName="opacity" to="0" dur="9.100000000000001s" /><animate attributeName="stroke-dashoffset" from="150" to="0" dur="1.8s" begin="9.100000000000001s" fill="freeze" /></path><path d="M30.11,94.4c0.89,1.22,1.51,1.35,3.21,1.11c5.4-0.77,40.52-7.15,43.06-8" class="stroke" stroke-dasharray="150"><set attributeName="opacity" to="0" dur="10.200000000000001s" /><animate attributeName="stroke-dashoffset" from="150" to="0" dur="1.8s" begin="10.200000000000001s" fill="freeze" /></path><path d="M71.38,82c4.39,2.53,11.34,10.39,12.44,14.32" class="stroke" stroke-dasharray="150"><set attributeName="opacity" to="0" dur="11.4s" /><animate attributeName="stroke-dashoffset" from="150" to="0" dur="1.8s" begin="11.4s" fill="freeze" /></path><text x="90" y="120" id="reset-kvg-08695">⟳</text><text x="70" y="120" id="pause-kvg-08695">◼</text><script type="text/javascript"><![CDATA[function RecurringTimer(e,t){var n,r,i=t;this.pause=function(){window.clearTimeout(n);i-=new Date-r};var s=function(){r=new Date;n=window.setTimeout(function(){i=t;s();e()},i)};this.clear=function(){window.clearTimeout(n);i=t;n=window.setTimeout(function(){i=t;s();e()},i)};this.resume=s;this.resume()}function invoketimer(){timer=new RecurringTimer(function(){svg.setCurrentTime(0)},13300.0)}var svg=document.getElementById("kvg-08695");var pause=document.getElementById("pause-kvg-08695");var reset=document.getElementById("reset-kvg-08695");var timer;invoketimer();reset.onclick=function(){svg.setCurrentTime(0);timer.clear();svg.unpauseAnimations();pause.innerHTML = "◼";};pause.onclick=function(){if(svg.animationsPaused()){svg.unpauseAnimations();timer.resume();pause.innerHTML="◼"}else{svg.pauseAnimations();timer.pause();pause.innerHTML="▶"}}]]></script></svg>