<svg id="kvg-086a3" class="kanjivg" width="106" height="126" xmlns="http://www.w3.org/2000/svg" xmlns:xlink="http://www.w3.org/1999/xlink" xml:space="preserve" version="1.1" baseProfile="full"><defs><style type="text/css"><![CDATA[path.black{fill:none;stroke:black;stroke-width:5;stroke-linecap:round;stroke-linejoin:round;}path.grey{fill:none;stroke:#ddd;stroke-width:5;stroke-linecap:round;stroke-linejoin:round;}path.stroke{fill:none;stroke:black;stroke-width:5;stroke-linecap:round;stroke-linejoin:round;}rect{fill:none;stroke:#555;stroke-width:2;} text{font-size:16px;font-family:Segoe UI Symbol,Cambria Math,DejaVu Sans,Symbola,Quivira,STIX,Code2000;-webkit-touch-callout:none;cursor:pointer;-webkit-user-select:none;-khtml-user-select:none;-moz-user-select:none;-ms-user-select:none;user-select: none;}text:hover{color:#777;}#reset{font-weight:bold;}]]></style><marker id="markerStart" markerWidth="8" markerHeight="8" style="overflow:visible;"><circle cx="0" cy="0" r="1.5" style="stroke:none;fill:red;fill-opacity:0.5;"/></marker><marker id="markerEnd" style="overflow:visible;"><circle cx="0" cy="0" r="0.8" style="stroke:none;fill:blue;fill-opacity:0.5;"><animate attributeName="opacity" from="1" to="0" dur="3s" repeatCount="indefinite" /></circle></marker></defs><rect x="4" y="4" width="100" height="100" /><path d="M12.26,36.4c0.46,0.51,1.02,1.4,1.12,2.06c0.87,5.79,2.87,13.79,4.12,22.43" class="grey" /><path d="M14.72,38.48c6.93-0.97,20.61-2.83,25.63-3.2c1.96-0.14,2.86,1.38,2.62,2.83c-0.83,4.98-1.98,9.84-3.33,18.12" class="grey" /><path d="M17.26,58.43c7.99-0.68,14.49-1.18,24.26-2.39" class="grey" /><path d="M25.42,16.75c1.08,1,2.26,2.75,2.26,4.47c0,4.78-0.2,43.78-0.2,57.16" class="grey" /><path d="M11.57,84.77c0.6,1.16,2.46,1.11,3.06,0.82c0.6-0.29,24.04-11.65,27.76-13.97" class="grey" /><path d="M36.5,63c3.02,2.63,7.8,10.81,8.56,14.89" class="grey" /><path d="M62.16,22.72c0.24,0.87-0.01,1.89-0.33,2.94c-2.28,7.6-6.57,18.88-13.48,26.24" class="grey" /><path d="M70.06,15.5c4.69,1.75,14.83,25.37,21.02,31.12c2.39,2.22,3.24,3.42,5.56,4.13" class="grey" /><path d="M66.02,54.77c0.49,0.66,0.31,2.21-0.01,3.04c-4.25,10.94-6.75,16.69-13.55,30.04c-1.47,2.88-0.71,3.71,2.32,2.73c8.44-2.76,20.73-6.08,30.68-8.52" class="grey" /><path d="M78.11,70.68C82.5,74.62,89.45,86.88,90.54,93" class="grey" /><path d="M12.26,36.4c0.46,0.51,1.02,1.4,1.12,2.06c0.87,5.79,2.87,13.79,4.12,22.43" class="stroke" stroke-dasharray="150"><animate attributeName="stroke-dashoffset" from="150" to="0" dur="1.8s" begin="0.0s" fill="freeze" /></path><path d="M14.72,38.48c6.93-0.97,20.61-2.83,25.63-3.2c1.96-0.14,2.86,1.38,2.62,2.83c-0.83,4.98-1.98,9.84-3.33,18.12" class="stroke" stroke-dasharray="150"><set attributeName="opacity" to="0" dur="1.0s" /><animate attributeName="stroke-dashoffset" from="150" to="0" dur="1.8s" begin="1.0s" fill="freeze" /></path><path d="M17.26,58.43c7.99-0.68,14.49-1.18,24.26-2.39" class="stroke" stroke-dasharray="150"><set attributeName="opacity" to="0" dur="2.2s" /><animate attributeName="stroke-dashoffset" from="150" to="0" dur="1.8s" begin="2.2s" fill="freeze" /></path><path d="M25.42,16.75c1.08,1,2.26,2.75,2.26,4.47c0,4.78-0.2,43.78-0.2,57.16" class="stroke" stroke-dasharray="150"><set attributeName="opacity" to="0" dur="3.2s" /><animate attributeName="stroke-dashoffset" from="150" to="0" dur="1.8s" begin="3.2s" fill="freeze" /></path><path d="M11.57,84.77c0.6,1.16,2.46,1.11,3.06,0.82c0.6-0.29,24.04-11.65,27.76-13.97" class="stroke" stroke-dasharray="150"><set attributeName="opacity" to="0" dur="4.7s" /><animate attributeName="stroke-dashoffset" from="150" to="0" dur="1.8s" begin="4.7s" fill="freeze" /></path><path d="M36.5,63c3.02,2.63,7.8,10.81,8.56,14.89" class="stroke" stroke-dasharray="150"><set attributeName="opacity" to="0" dur="5.7s" /><animate attributeName="stroke-dashoffset" from="150" to="0" dur="1.8s" begin="5.7s" fill="freeze" /></path><path d="M62.16,22.72c0.24,0.87-0.01,1.89-0.33,2.94c-2.28,7.6-6.57,18.88-13.48,26.24" class="stroke" stroke-dasharray="150"><set attributeName="opacity" to="0" dur="6.6000000000000005s" /><animate attributeName="stroke-dashoffset" from="150" to="0" dur="1.8s" begin="6.6000000000000005s" fill="freeze" /></path><path d="M70.06,15.5c4.69,1.75,14.83,25.37,21.02,31.12c2.39,2.22,3.24,3.42,5.56,4.13" class="stroke" stroke-dasharray="150"><set attributeName="opacity" to="0" dur="7.6000000000000005s" /><animate attributeName="stroke-dashoffset" from="150" to="0" dur="1.8s" begin="7.6000000000000005s" fill="freeze" /></path><path d="M66.02,54.77c0.49,0.66,0.31,2.21-0.01,3.04c-4.25,10.94-6.75,16.69-13.55,30.04c-1.47,2.88-0.71,3.71,2.32,2.73c8.44-2.76,20.73-6.08,30.68-8.52" class="stroke" stroke-dasharray="150"><set attributeName="opacity" to="0" dur="8.700000000000001s" /><animate attributeName="stroke-dashoffset" from="150" to="0" dur="1.8s" begin="8.700000000000001s" fill="freeze" /></path><path d="M78.11,70.68C82.5,74.62,89.45,86.88,90.54,93" class="stroke" stroke-dasharray="150"><set attributeName="opacity" to="0" dur="10.4s" /><animate attributeName="stroke-dashoffset" from="150" to="0" dur="1.8s" begin="10.4s" fill="freeze" /></path><text x="90" y="120" id="reset-kvg-086a3">⟳</text><text x="70" y="120" id="pause-kvg-086a3">◼</text><script type="text/javascript"><![CDATA[function RecurringTimer(e,t){var n,r,i=t;this.pause=function(){window.clearTimeout(n);i-=new Date-r};var s=function(){r=new Date;n=window.setTimeout(function(){i=t;s();e()},i)};this.clear=function(){window.clearTimeout(n);i=t;n=window.setTimeout(function(){i=t;s();e()},i)};this.resume=s;this.resume()}function invoketimer(){timer=new RecurringTimer(function(){svg.setCurrentTime(0)},12400.0)}var svg=document.getElementById("kvg-086a3");var pause=document.getElementById("pause-kvg-086a3");var reset=document.getElementById("reset-kvg-086a3");var timer;invoketimer();reset.onclick=function(){svg.setCurrentTime(0);timer.clear();svg.unpauseAnimations();pause.innerHTML = "◼";};pause.onclick=function(){if(svg.animationsPaused()){svg.unpauseAnimations();timer.resume();pause.innerHTML="◼"}else{svg.pauseAnimations();timer.pause();pause.innerHTML="▶"}}]]></script></svg>