<svg id="kvg-08753" class="kanjivg" width="106" height="126" xmlns="http://www.w3.org/2000/svg" xmlns:xlink="http://www.w3.org/1999/xlink" xml:space="preserve" version="1.1" baseProfile="full"><defs><style type="text/css"><![CDATA[path.black{fill:none;stroke:black;stroke-width:5;stroke-linecap:round;stroke-linejoin:round;}path.grey{fill:none;stroke:#ddd;stroke-width:5;stroke-linecap:round;stroke-linejoin:round;}path.stroke{fill:none;stroke:black;stroke-width:5;stroke-linecap:round;stroke-linejoin:round;}rect{fill:none;stroke:#555;stroke-width:2;} text{font-size:16px;font-family:Segoe UI Symbol,Cambria Math,DejaVu Sans,Symbola,Quivira,STIX,Code2000;-webkit-touch-callout:none;cursor:pointer;-webkit-user-select:none;-khtml-user-select:none;-moz-user-select:none;-ms-user-select:none;user-select: none;}text:hover{color:#777;}#reset{font-weight:bold;}]]></style><marker id="markerStart" markerWidth="8" markerHeight="8" style="overflow:visible;"><circle cx="0" cy="0" r="1.5" style="stroke:none;fill:red;fill-opacity:0.5;"/></marker><marker id="markerEnd" style="overflow:visible;"><circle cx="0" cy="0" r="0.8" style="stroke:none;fill:blue;fill-opacity:0.5;"><animate attributeName="opacity" from="1" to="0" dur="3s" repeatCount="indefinite" /></circle></marker></defs><rect x="4" y="4" width="100" height="100" /><path d="M11.26,36.98c0.42,0.53,0.95,1.45,1.04,2.14c0.8,6.01,1.73,13.8,2.9,22.77" class="grey" /><path d="M13.08,38.14c6.43-1.01,20.05-2.98,24.71-3.36c1.81-0.15,2.65,1.43,2.43,2.94c-0.77,5.17-1.84,10.72-3.09,19.31" class="grey" /><path d="M15.43,59.86c5.18-1.01,16.67-2.08,23.91-3.02" class="grey" /><path d="M23.92,16.25c1.08,1,2.26,2.75,2.26,4.47c0,4.78-0.2,45.78-0.2,59.16" class="grey" /><path d="M11.07,86.77c0.6,1.16,2.46,1.11,3.06,0.82c0.6-0.29,21.04-11.65,24.76-13.97" class="grey" /><path d="M33.5,63.75c3.2,3.03,8.26,12.44,9.06,17.14" class="grey" /><path d="M 68.420605,14.518953 c -0.04496,1.753402 -0.431606,2.697541 -0.962123,3.884459 -4.88255,10.898068 -14.74656,24.25989 -22.614389,30.032629" class="grey" /><path d="M 62.906187,9.4027892 c 6.236405,1.3631478 13.956854,19.8218728 23.512527,31.2246128 2.099248,2.508193 4.239392,4.955045 6.393167,6.318194" class="grey" /><path d="M55.72,43.89c0.7,0.26,1.98,0.28,2.69,0.26C64,44,73.25,42.75,77.83,42.01c1.15-0.19,1.87,0.12,2.46,0.25" class="grey" /><path d="M47.67,54.95c0.54,0.94,0.9,1.88,1.07,2.82c0.18,0.94,0.25,37.64,0.18,39.76" class="grey" /><path d="M49.81,56.78c1.2-0.13,12.18-2.4,13.07-2.55c1.6-0.27,2.2,1.74,2,2.55c-0.19,0.77-0.3,25.46-0.3,36.32c0,9.61-3.55,2.41-4.55,1.21" class="grey" /><path d="M52.81,62.74c2.32,1.2,5.99,4.91,6.57,6.77" class="grey" /><path d="M54.11,76c1.95,1.14,5.03,4.7,5.51,6.48" class="grey" /><path d="M78.11,52.69c0.21,0.93,0.8,2.53,0.48,3.8c-0.96,3.89-4.52,12.77-7.43,17.43c-0.8,1.28-0.01,2.09,0.21,2.35C74.91,80.54,77,86.78,78.78,96" class="grey" /><path d="M90.12,52.62c0.23,1.01,0.87,2.75,0.53,4.14c-1.05,4.24-4.66,10.93-7.83,16c-0.87,1.39-0.01,2.27,0.23,2.56c3.85,4.64,6.89,10.89,8.74,20.93" class="grey" /><path d="M11.26,36.98c0.42,0.53,0.95,1.45,1.04,2.14c0.8,6.01,1.73,13.8,2.9,22.77" class="stroke" stroke-dasharray="150"><animate attributeName="stroke-dashoffset" from="150" to="0" dur="1.8s" begin="0.0s" fill="freeze" /></path><path d="M13.08,38.14c6.43-1.01,20.05-2.98,24.71-3.36c1.81-0.15,2.65,1.43,2.43,2.94c-0.77,5.17-1.84,10.72-3.09,19.31" class="stroke" stroke-dasharray="150"><set attributeName="opacity" to="0" dur="1.0s" /><animate attributeName="stroke-dashoffset" from="150" to="0" dur="1.8s" begin="1.0s" fill="freeze" /></path><path d="M15.43,59.86c5.18-1.01,16.67-2.08,23.91-3.02" class="stroke" stroke-dasharray="150"><set attributeName="opacity" to="0" dur="2.2s" /><animate attributeName="stroke-dashoffset" from="150" to="0" dur="1.8s" begin="2.2s" fill="freeze" /></path><path d="M23.92,16.25c1.08,1,2.26,2.75,2.26,4.47c0,4.78-0.2,45.78-0.2,59.16" class="stroke" stroke-dasharray="150"><set attributeName="opacity" to="0" dur="3.2s" /><animate attributeName="stroke-dashoffset" from="150" to="0" dur="1.8s" begin="3.2s" fill="freeze" /></path><path d="M11.07,86.77c0.6,1.16,2.46,1.11,3.06,0.82c0.6-0.29,21.04-11.65,24.76-13.97" class="stroke" stroke-dasharray="150"><set attributeName="opacity" to="0" dur="4.7s" /><animate attributeName="stroke-dashoffset" from="150" to="0" dur="1.8s" begin="4.7s" fill="freeze" /></path><path d="M33.5,63.75c3.2,3.03,8.26,12.44,9.06,17.14" class="stroke" stroke-dasharray="150"><set attributeName="opacity" to="0" dur="5.7s" /><animate attributeName="stroke-dashoffset" from="150" to="0" dur="1.8s" begin="5.7s" fill="freeze" /></path><path d="M 68.420605,14.518953 c -0.04496,1.753402 -0.431606,2.697541 -0.962123,3.884459 -4.88255,10.898068 -14.74656,24.25989 -22.614389,30.032629" class="stroke" stroke-dasharray="150"><set attributeName="opacity" to="0" dur="6.6000000000000005s" /><animate attributeName="stroke-dashoffset" from="150" to="0" dur="1.8s" begin="6.6000000000000005s" fill="freeze" /></path><path d="M 62.906187,9.4027892 c 6.236405,1.3631478 13.956854,19.8218728 23.512527,31.2246128 2.099248,2.508193 4.239392,4.955045 6.393167,6.318194" class="stroke" stroke-dasharray="150"><set attributeName="opacity" to="0" dur="7.700000000000001s" /><animate attributeName="stroke-dashoffset" from="150" to="0" dur="1.8s" begin="7.700000000000001s" fill="freeze" /></path><path d="M55.72,43.89c0.7,0.26,1.98,0.28,2.69,0.26C64,44,73.25,42.75,77.83,42.01c1.15-0.19,1.87,0.12,2.46,0.25" class="stroke" stroke-dasharray="150"><set attributeName="opacity" to="0" dur="8.9s" /><animate attributeName="stroke-dashoffset" from="150" to="0" dur="1.8s" begin="8.9s" fill="freeze" /></path><path d="M47.67,54.95c0.54,0.94,0.9,1.88,1.07,2.82c0.18,0.94,0.25,37.64,0.18,39.76" class="stroke" stroke-dasharray="150"><set attributeName="opacity" to="0" dur="9.9s" /><animate attributeName="stroke-dashoffset" from="150" to="0" dur="1.8s" begin="9.9s" fill="freeze" /></path><path d="M49.81,56.78c1.2-0.13,12.18-2.4,13.07-2.55c1.6-0.27,2.2,1.74,2,2.55c-0.19,0.77-0.3,25.46-0.3,36.32c0,9.61-3.55,2.41-4.55,1.21" class="stroke" stroke-dasharray="150"><set attributeName="opacity" to="0" dur="11.0s" /><animate attributeName="stroke-dashoffset" from="150" to="0" dur="1.8s" begin="11.0s" fill="freeze" /></path><path d="M52.81,62.74c2.32,1.2,5.99,4.91,6.57,6.77" class="stroke" stroke-dasharray="150"><set attributeName="opacity" to="0" dur="12.5s" /><animate attributeName="stroke-dashoffset" from="150" to="0" dur="1.8s" begin="12.5s" fill="freeze" /></path><path d="M54.11,76c1.95,1.14,5.03,4.7,5.51,6.48" class="stroke" stroke-dasharray="150"><set attributeName="opacity" to="0" dur="13.4s" /><animate attributeName="stroke-dashoffset" from="150" to="0" dur="1.8s" begin="13.4s" fill="freeze" /></path><path d="M78.11,52.69c0.21,0.93,0.8,2.53,0.48,3.8c-0.96,3.89-4.52,12.77-7.43,17.43c-0.8,1.28-0.01,2.09,0.21,2.35C74.91,80.54,77,86.78,78.78,96" class="stroke" stroke-dasharray="150"><set attributeName="opacity" to="0" dur="14.3s" /><animate attributeName="stroke-dashoffset" from="150" to="0" dur="1.8s" begin="14.3s" fill="freeze" /></path><path d="M90.12,52.62c0.23,1.01,0.87,2.75,0.53,4.14c-1.05,4.24-4.66,10.93-7.83,16c-0.87,1.39-0.01,2.27,0.23,2.56c3.85,4.64,6.89,10.89,8.74,20.93" class="stroke" stroke-dasharray="150"><set attributeName="opacity" to="0" dur="15.5s" /><animate attributeName="stroke-dashoffset" from="150" to="0" dur="1.8s" begin="15.5s" fill="freeze" /></path><text x="90" y="120" id="reset-kvg-08753">⟳</text><text x="70" y="120" id="pause-kvg-08753">◼</text><script type="text/javascript"><![CDATA[function RecurringTimer(e,t){var n,r,i=t;this.pause=function(){window.clearTimeout(n);i-=new Date-r};var s=function(){r=new Date;n=window.setTimeout(function(){i=t;s();e()},i)};this.clear=function(){window.clearTimeout(n);i=t;n=window.setTimeout(function(){i=t;s();e()},i)};this.resume=s;this.resume()}function invoketimer(){timer=new RecurringTimer(function(){svg.setCurrentTime(0)},17700.0)}var svg=document.getElementById("kvg-08753");var pause=document.getElementById("pause-kvg-08753");var reset=document.getElementById("reset-kvg-08753");var timer;invoketimer();reset.onclick=function(){svg.setCurrentTime(0);timer.clear();svg.unpauseAnimations();pause.innerHTML = "◼";};pause.onclick=function(){if(svg.animationsPaused()){svg.unpauseAnimations();timer.resume();pause.innerHTML="◼"}else{svg.pauseAnimations();timer.pause();pause.innerHTML="▶"}}]]></script></svg>