<svg id="kvg-087ef" class="kanjivg" width="106" height="126" xmlns="http://www.w3.org/2000/svg" xmlns:xlink="http://www.w3.org/1999/xlink" xml:space="preserve" version="1.1" baseProfile="full"><defs><style type="text/css"><![CDATA[path.black{fill:none;stroke:black;stroke-width:5;stroke-linecap:round;stroke-linejoin:round;}path.grey{fill:none;stroke:#ddd;stroke-width:5;stroke-linecap:round;stroke-linejoin:round;}path.stroke{fill:none;stroke:black;stroke-width:5;stroke-linecap:round;stroke-linejoin:round;}rect{fill:none;stroke:#555;stroke-width:2;} text{font-size:16px;font-family:Segoe UI Symbol,Cambria Math,DejaVu Sans,Symbola,Quivira,STIX,Code2000;-webkit-touch-callout:none;cursor:pointer;-webkit-user-select:none;-khtml-user-select:none;-moz-user-select:none;-ms-user-select:none;user-select: none;}text:hover{color:#777;}#reset{font-weight:bold;}]]></style><marker id="markerStart" markerWidth="8" markerHeight="8" style="overflow:visible;"><circle cx="0" cy="0" r="1.5" style="stroke:none;fill:red;fill-opacity:0.5;"/></marker><marker id="markerEnd" style="overflow:visible;"><circle cx="0" cy="0" r="0.8" style="stroke:none;fill:blue;fill-opacity:0.5;"><animate attributeName="opacity" from="1" to="0" dur="3s" repeatCount="indefinite" /></circle></marker></defs><rect x="4" y="4" width="100" height="100" /><path d="M10.76,37.4c0.46,0.51,1.02,1.4,1.12,2.06c0.87,5.79,2.37,14.79,3.62,23.43" class="grey" /><path d="M12.22,39.48c6.93-0.97,21.11-3.33,26.13-3.7c1.96-0.14,2.86,1.38,2.62,2.83c-0.83,4.98-1.98,10.84-3.33,19.12" class="grey" /><path d="M15.76,60.93c5.58-0.98,15.96-1.98,23.76-2.89" class="grey" /><path d="M24.42,17.25c1.08,1,2.26,2.75,2.26,4.47c0,4.78-0.2,45.78-0.2,59.16" class="grey" /><path d="M10.57,87.27c0.6,1.16,2.46,1.11,3.06,0.82c0.6-0.29,21.04-11.65,24.76-13.97" class="grey" /><path d="M34.5,67c2.67,2.98,6.89,12.26,7.56,16.89" class="grey" /><path d="M51.93,20.28c0.92,0.24,2.61,0.66,3.53,0.74C61,21.5,72.25,19.5,83.24,18.49c1.53-0.14,2.46,0.12,3.22,0.24" class="grey" /><path d="M67.17,11.62c0.07,0.23,1.01,1.22,1.01,2.71c0,1.67,0.29,9.42,0.29,16.38" class="grey" /><path d="M47.6,33.52c1.23,0.49,3.48,0.6,4.7,0.49c15.19-1.37,22-3.5,35.59-4.14c2.04-0.1,3.27,0.23,4.29,0.48" class="grey" /><path d="M47.19,46.14c0.78,0.38,2.31,0.4,3.1,0.36c5.17-0.25,7.54-1.39,13.07-2c1.3-0.14,2.71-0.18,3.36,0.01" class="grey" /><path d="M55.63,39.5c0.84,0.5,1.51,2.23,1.51,3.25c0,7.25,0.02,3.25,0.02,14" class="grey" /><path d="M46.84,59.47c0.55,0.69,1.64,1.68,3.27,0.76c4.55-2.54,12.73-6.45,17.28-8.99" class="grey" /><path d="M71.11,44.53c0.64,0.32,1.81,0.33,2.45,0.32c5.93-0.11,14.2-1.61,20-1.71c1.06-0.02,1.7,0.15,2.23,0.31" class="grey" /><path d="M81.21,36.12c0.07,0.23,1.09,1.22,1.09,2.71c0,1.67-0.22,10.92-0.22,17.88" class="grey" /><path d="M68.27,57.73c0.74,0.3,2.48,0.37,3.22,0.3c6.61-0.54,17.53-1.54,24.16-1.95c1.23-0.08,1.98,0.15,2.59,0.3" class="grey" /><path d="M47.77,69.26c1.21,0.44,3.42,0.49,4.63,0.44c8.41-0.32,24.2-3.87,35.67-3.87c2.01,0,3.22,0.21,4.23,0.43" class="grey" /><path d="M60.8,72.5c0.05,0.6,0.09,1.54-0.1,2.4c-1.27,5.93-6.8,18.68-17.04,23.01" class="grey" /><path d="M73.09,70.41c0.55,1.14,1.02,2.49,1.02,4.25c0,2.36-0.02,5.9-0.02,11.25c0,9.37,1.53,10.08,11.32,10.08c9.79,0,11.37-0.99,11.37-10.23" class="grey" /><path d="M10.76,37.4c0.46,0.51,1.02,1.4,1.12,2.06c0.87,5.79,2.37,14.79,3.62,23.43" class="stroke" stroke-dasharray="150"><animate attributeName="stroke-dashoffset" from="150" to="0" dur="1.8s" begin="0.0s" fill="freeze" /></path><path d="M12.22,39.48c6.93-0.97,21.11-3.33,26.13-3.7c1.96-0.14,2.86,1.38,2.62,2.83c-0.83,4.98-1.98,10.84-3.33,19.12" class="stroke" stroke-dasharray="150"><set attributeName="opacity" to="0" dur="1.0s" /><animate attributeName="stroke-dashoffset" from="150" to="0" dur="1.8s" begin="1.0s" fill="freeze" /></path><path d="M15.76,60.93c5.58-0.98,15.96-1.98,23.76-2.89" class="stroke" stroke-dasharray="150"><set attributeName="opacity" to="0" dur="2.3s" /><animate attributeName="stroke-dashoffset" from="150" to="0" dur="1.8s" begin="2.3s" fill="freeze" /></path><path d="M24.42,17.25c1.08,1,2.26,2.75,2.26,4.47c0,4.78-0.2,45.78-0.2,59.16" class="stroke" stroke-dasharray="150"><set attributeName="opacity" to="0" dur="3.3s" /><animate attributeName="stroke-dashoffset" from="150" to="0" dur="1.8s" begin="3.3s" fill="freeze" /></path><path d="M10.57,87.27c0.6,1.16,2.46,1.11,3.06,0.82c0.6-0.29,21.04-11.65,24.76-13.97" class="stroke" stroke-dasharray="150"><set attributeName="opacity" to="0" dur="4.8s" /><animate attributeName="stroke-dashoffset" from="150" to="0" dur="1.8s" begin="4.8s" fill="freeze" /></path><path d="M34.5,67c2.67,2.98,6.89,12.26,7.56,16.89" class="stroke" stroke-dasharray="150"><set attributeName="opacity" to="0" dur="5.8s" /><animate attributeName="stroke-dashoffset" from="150" to="0" dur="1.8s" begin="5.8s" fill="freeze" /></path><path d="M51.93,20.28c0.92,0.24,2.61,0.66,3.53,0.74C61,21.5,72.25,19.5,83.24,18.49c1.53-0.14,2.46,0.12,3.22,0.24" class="stroke" stroke-dasharray="150"><set attributeName="opacity" to="0" dur="6.7s" /><animate attributeName="stroke-dashoffset" from="150" to="0" dur="1.8s" begin="6.7s" fill="freeze" /></path><path d="M67.17,11.62c0.07,0.23,1.01,1.22,1.01,2.71c0,1.67,0.29,9.42,0.29,16.38" class="stroke" stroke-dasharray="150"><set attributeName="opacity" to="0" dur="7.7s" /><animate attributeName="stroke-dashoffset" from="150" to="0" dur="1.8s" begin="7.7s" fill="freeze" /></path><path d="M47.6,33.52c1.23,0.49,3.48,0.6,4.7,0.49c15.19-1.37,22-3.5,35.59-4.14c2.04-0.1,3.27,0.23,4.29,0.48" class="stroke" stroke-dasharray="150"><set attributeName="opacity" to="0" dur="8.6s" /><animate attributeName="stroke-dashoffset" from="150" to="0" dur="1.8s" begin="8.6s" fill="freeze" /></path><path d="M47.19,46.14c0.78,0.38,2.31,0.4,3.1,0.36c5.17-0.25,7.54-1.39,13.07-2c1.3-0.14,2.71-0.18,3.36,0.01" class="stroke" stroke-dasharray="150"><set attributeName="opacity" to="0" dur="9.7s" /><animate attributeName="stroke-dashoffset" from="150" to="0" dur="1.8s" begin="9.7s" fill="freeze" /></path><path d="M55.63,39.5c0.84,0.5,1.51,2.23,1.51,3.25c0,7.25,0.02,3.25,0.02,14" class="stroke" stroke-dasharray="150"><set attributeName="opacity" to="0" dur="10.6s" /><animate attributeName="stroke-dashoffset" from="150" to="0" dur="1.8s" begin="10.6s" fill="freeze" /></path><path d="M46.84,59.47c0.55,0.69,1.64,1.68,3.27,0.76c4.55-2.54,12.73-6.45,17.28-8.99" class="stroke" stroke-dasharray="150"><set attributeName="opacity" to="0" dur="11.5s" /><animate attributeName="stroke-dashoffset" from="150" to="0" dur="1.8s" begin="11.5s" fill="freeze" /></path><path d="M71.11,44.53c0.64,0.32,1.81,0.33,2.45,0.32c5.93-0.11,14.2-1.61,20-1.71c1.06-0.02,1.7,0.15,2.23,0.31" class="stroke" stroke-dasharray="150"><set attributeName="opacity" to="0" dur="12.5s" /><animate attributeName="stroke-dashoffset" from="150" to="0" dur="1.8s" begin="12.5s" fill="freeze" /></path><path d="M81.21,36.12c0.07,0.23,1.09,1.22,1.09,2.71c0,1.67-0.22,10.92-0.22,17.88" class="stroke" stroke-dasharray="150"><set attributeName="opacity" to="0" dur="13.5s" /><animate attributeName="stroke-dashoffset" from="150" to="0" dur="1.8s" begin="13.5s" fill="freeze" /></path><path d="M68.27,57.73c0.74,0.3,2.48,0.37,3.22,0.3c6.61-0.54,17.53-1.54,24.16-1.95c1.23-0.08,1.98,0.15,2.59,0.3" class="stroke" stroke-dasharray="150"><set attributeName="opacity" to="0" dur="14.5s" /><animate attributeName="stroke-dashoffset" from="150" to="0" dur="1.8s" begin="14.5s" fill="freeze" /></path><path d="M47.77,69.26c1.21,0.44,3.42,0.49,4.63,0.44c8.41-0.32,24.2-3.87,35.67-3.87c2.01,0,3.22,0.21,4.23,0.43" class="stroke" stroke-dasharray="150"><set attributeName="opacity" to="0" dur="15.5s" /><animate attributeName="stroke-dashoffset" from="150" to="0" dur="1.8s" begin="15.5s" fill="freeze" /></path><path d="M60.8,72.5c0.05,0.6,0.09,1.54-0.1,2.4c-1.27,5.93-6.8,18.68-17.04,23.01" class="stroke" stroke-dasharray="150"><set attributeName="opacity" to="0" dur="16.6s" /><animate attributeName="stroke-dashoffset" from="150" to="0" dur="1.8s" begin="16.6s" fill="freeze" /></path><path d="M73.09,70.41c0.55,1.14,1.02,2.49,1.02,4.25c0,2.36-0.02,5.9-0.02,11.25c0,9.37,1.53,10.08,11.32,10.08c9.79,0,11.37-0.99,11.37-10.23" class="stroke" stroke-dasharray="150"><set attributeName="opacity" to="0" dur="17.6s" /><animate attributeName="stroke-dashoffset" from="150" to="0" dur="1.8s" begin="17.6s" fill="freeze" /></path><text x="90" y="120" id="reset-kvg-087ef">⟳</text><text x="70" y="120" id="pause-kvg-087ef">◼</text><script type="text/javascript"><![CDATA[function RecurringTimer(e,t){var n,r,i=t;this.pause=function(){window.clearTimeout(n);i-=new Date-r};var s=function(){r=new Date;n=window.setTimeout(function(){i=t;s();e()},i)};this.clear=function(){window.clearTimeout(n);i=t;n=window.setTimeout(function(){i=t;s();e()},i)};this.resume=s;this.resume()}function invoketimer(){timer=new RecurringTimer(function(){svg.setCurrentTime(0)},19900.000000000004)}var svg=document.getElementById("kvg-087ef");var pause=document.getElementById("pause-kvg-087ef");var reset=document.getElementById("reset-kvg-087ef");var timer;invoketimer();reset.onclick=function(){svg.setCurrentTime(0);timer.clear();svg.unpauseAnimations();pause.innerHTML = "◼";};pause.onclick=function(){if(svg.animationsPaused()){svg.unpauseAnimations();timer.resume();pause.innerHTML="◼"}else{svg.pauseAnimations();timer.pause();pause.innerHTML="▶"}}]]></script></svg>