<svg id="kvg-08823" class="kanjivg" width="106" height="126" xmlns="http://www.w3.org/2000/svg" xmlns:xlink="http://www.w3.org/1999/xlink" xml:space="preserve" version="1.1" baseProfile="full"><defs><style type="text/css"><![CDATA[path.black{fill:none;stroke:black;stroke-width:5;stroke-linecap:round;stroke-linejoin:round;}path.grey{fill:none;stroke:#ddd;stroke-width:5;stroke-linecap:round;stroke-linejoin:round;}path.stroke{fill:none;stroke:black;stroke-width:5;stroke-linecap:round;stroke-linejoin:round;}rect{fill:none;stroke:#555;stroke-width:2;} text{font-size:16px;font-family:Segoe UI Symbol,Cambria Math,DejaVu Sans,Symbola,Quivira,STIX,Code2000;-webkit-touch-callout:none;cursor:pointer;-webkit-user-select:none;-khtml-user-select:none;-moz-user-select:none;-ms-user-select:none;user-select: none;}text:hover{color:#777;}#reset{font-weight:bold;}]]></style><marker id="markerStart" markerWidth="8" markerHeight="8" style="overflow:visible;"><circle cx="0" cy="0" r="1.5" style="stroke:none;fill:red;fill-opacity:0.5;"/></marker><marker id="markerEnd" style="overflow:visible;"><circle cx="0" cy="0" r="0.8" style="stroke:none;fill:blue;fill-opacity:0.5;"><animate attributeName="opacity" from="1" to="0" dur="3s" repeatCount="indefinite" /></circle></marker></defs><rect x="4" y="4" width="100" height="100" /><path d="M12.26,35.4c0.46,0.51,1.02,1.4,1.12,2.06c0.84,5.59,2.3,12.85,3.62,21.93" class="grey" /><path d="M14.22,36.98c6.93-0.97,19.11-3.33,24.13-3.7c1.96-0.14,2.86,1.38,2.62,2.83c-0.83,4.98-1.98,9.84-3.33,18.12" class="grey" /><path d="M17.26,57.43c5.58-0.98,14.46-2.48,22.26-3.39" class="grey" /><path d="M24.42,16.75c1.08,1,2.26,2.75,2.26,4.47c0,4.78-0.2,41.78-0.2,55.16" class="grey" /><path d="M12.07,80.77c0.6,1.16,2.46,1.11,3.06,0.82c0.6-0.29,17.62-8.09,23.76-10.97" class="grey" /><path d="M34.75,64.75c2.23,1.97,5.75,8.09,6.31,11.14" class="grey" /><path d="M45.03,17.82c1.21,0.56,3.43,0.65,4.64,0.56c12.59-0.93,28.51-3.6,39.72-4.34c2.01-0.13,3.23,0.27,4.24,0.55" class="grey" /><path d="M51.11,18.64c0,39.31-1.86,56.11-13.8,73.64" class="grey" /><path d="M56,33.07c0.95,0.45,2.06,0.54,3.01,0.45c8.75-0.82,23.49-3.77,30.65-4.35c1.58-0.13,2.54,0.21,3.33,0.44" class="grey" /><path d="M65.31,24.86c1.02,1.21,1.34,1.58,1.45,2.32c1.02,6.96,0.31,8.79,0.6,11.32" class="grey" /><path d="M79.88,22.39c0.65,0.84,1.09,2.13,0.87,3.38c-0.65,3.8-1.09,6.63-2.04,11.48" class="grey" /><path d="M57,43.9c0.31,0.47,0.32,0.79,0.49,1.38c1.4,4.83,2.6,10.19,3.42,19.17" class="grey" /><path d="M58.51,45.69c7.5-0.69,23.35-3.72,28.95-4.31c2.06-0.22,2.52,1.49,2.35,3.61c-0.27,3.43-1.75,9.72-2.96,16.45" class="grey" /><path d="M60.56,53.66c2.44-0.28,25.61-2.97,27.63-3.06" class="grey" /><path d="M61.26,62.48c7.67-1.19,18.19-2.65,25.65-3.08" class="grey" /><path d="M54.65,70.69c0.64,0.35,1.09,1.38,1.14,2.07c0.22,3.4-0.14,18.24-0.14,22.76" class="grey" /><path d="M55.79,71.8c5.09-0.81,35.4-4.17,36.42-4.23c1.53-0.08,2.87,1.08,2.82,3.21C94.9,76.41,94.75,86,93.6,91.24c-1.21,5.53-4.6,2.26-6.94,0.16" class="grey" /><path d="M72.62,46.36c0.33,0.62,0.85,1.22,0.85,2.35c0,4.92,0.64,29.16,0.64,30.67" class="grey" /><path d="M62.12,82.99c1.03,0.69,2.17,1.06,3.08,0.77c2.56-0.81,13.1-4.52,18.47-6.02" class="grey" /><path d="M80.63,73.55c2.28,1.44,5.88,6.03,6.44,8.36" class="grey" /><path d="M12.26,35.4c0.46,0.51,1.02,1.4,1.12,2.06c0.84,5.59,2.3,12.85,3.62,21.93" class="stroke" stroke-dasharray="150"><animate attributeName="stroke-dashoffset" from="150" to="0" dur="1.8s" begin="0.0s" fill="freeze" /></path><path d="M14.22,36.98c6.93-0.97,19.11-3.33,24.13-3.7c1.96-0.14,2.86,1.38,2.62,2.83c-0.83,4.98-1.98,9.84-3.33,18.12" class="stroke" stroke-dasharray="150"><set attributeName="opacity" to="0" dur="1.0s" /><animate attributeName="stroke-dashoffset" from="150" to="0" dur="1.8s" begin="1.0s" fill="freeze" /></path><path d="M17.26,57.43c5.58-0.98,14.46-2.48,22.26-3.39" class="stroke" stroke-dasharray="150"><set attributeName="opacity" to="0" dur="2.2s" /><animate attributeName="stroke-dashoffset" from="150" to="0" dur="1.8s" begin="2.2s" fill="freeze" /></path><path d="M24.42,16.75c1.08,1,2.26,2.75,2.26,4.47c0,4.78-0.2,41.78-0.2,55.16" class="stroke" stroke-dasharray="150"><set attributeName="opacity" to="0" dur="3.2s" /><animate attributeName="stroke-dashoffset" from="150" to="0" dur="1.8s" begin="3.2s" fill="freeze" /></path><path d="M12.07,80.77c0.6,1.16,2.46,1.11,3.06,0.82c0.6-0.29,17.62-8.09,23.76-10.97" class="stroke" stroke-dasharray="150"><set attributeName="opacity" to="0" dur="4.7s" /><animate attributeName="stroke-dashoffset" from="150" to="0" dur="1.8s" begin="4.7s" fill="freeze" /></path><path d="M34.75,64.75c2.23,1.97,5.75,8.09,6.31,11.14" class="stroke" stroke-dasharray="150"><set attributeName="opacity" to="0" dur="5.7s" /><animate attributeName="stroke-dashoffset" from="150" to="0" dur="1.8s" begin="5.7s" fill="freeze" /></path><path d="M45.03,17.82c1.21,0.56,3.43,0.65,4.64,0.56c12.59-0.93,28.51-3.6,39.72-4.34c2.01-0.13,3.23,0.27,4.24,0.55" class="stroke" stroke-dasharray="150"><set attributeName="opacity" to="0" dur="6.6000000000000005s" /><animate attributeName="stroke-dashoffset" from="150" to="0" dur="1.8s" begin="6.6000000000000005s" fill="freeze" /></path><path d="M51.11,18.64c0,39.31-1.86,56.11-13.8,73.64" class="stroke" stroke-dasharray="150"><set attributeName="opacity" to="0" dur="7.800000000000001s" /><animate attributeName="stroke-dashoffset" from="150" to="0" dur="1.8s" begin="7.800000000000001s" fill="freeze" /></path><path d="M56,33.07c0.95,0.45,2.06,0.54,3.01,0.45c8.75-0.82,23.49-3.77,30.65-4.35c1.58-0.13,2.54,0.21,3.33,0.44" class="stroke" stroke-dasharray="150"><set attributeName="opacity" to="0" dur="9.5s" /><animate attributeName="stroke-dashoffset" from="150" to="0" dur="1.8s" begin="9.5s" fill="freeze" /></path><path d="M65.31,24.86c1.02,1.21,1.34,1.58,1.45,2.32c1.02,6.96,0.31,8.79,0.6,11.32" class="stroke" stroke-dasharray="150"><set attributeName="opacity" to="0" dur="10.5s" /><animate attributeName="stroke-dashoffset" from="150" to="0" dur="1.8s" begin="10.5s" fill="freeze" /></path><path d="M79.88,22.39c0.65,0.84,1.09,2.13,0.87,3.38c-0.65,3.8-1.09,6.63-2.04,11.48" class="stroke" stroke-dasharray="150"><set attributeName="opacity" to="0" dur="11.4s" /><animate attributeName="stroke-dashoffset" from="150" to="0" dur="1.8s" begin="11.4s" fill="freeze" /></path><path d="M57,43.9c0.31,0.47,0.32,0.79,0.49,1.38c1.4,4.83,2.6,10.19,3.42,19.17" class="stroke" stroke-dasharray="150"><set attributeName="opacity" to="0" dur="12.3s" /><animate attributeName="stroke-dashoffset" from="150" to="0" dur="1.8s" begin="12.3s" fill="freeze" /></path><path d="M58.51,45.69c7.5-0.69,23.35-3.72,28.95-4.31c2.06-0.22,2.52,1.49,2.35,3.61c-0.27,3.43-1.75,9.72-2.96,16.45" class="stroke" stroke-dasharray="150"><set attributeName="opacity" to="0" dur="13.3s" /><animate attributeName="stroke-dashoffset" from="150" to="0" dur="1.8s" begin="13.3s" fill="freeze" /></path><path d="M60.56,53.66c2.44-0.28,25.61-2.97,27.63-3.06" class="stroke" stroke-dasharray="150"><set attributeName="opacity" to="0" dur="14.600000000000001s" /><animate attributeName="stroke-dashoffset" from="150" to="0" dur="1.8s" begin="14.600000000000001s" fill="freeze" /></path><path d="M61.26,62.48c7.67-1.19,18.19-2.65,25.65-3.08" class="stroke" stroke-dasharray="150"><set attributeName="opacity" to="0" dur="15.600000000000001s" /><animate attributeName="stroke-dashoffset" from="150" to="0" dur="1.8s" begin="15.600000000000001s" fill="freeze" /></path><path d="M54.65,70.69c0.64,0.35,1.09,1.38,1.14,2.07c0.22,3.4-0.14,18.24-0.14,22.76" class="stroke" stroke-dasharray="150"><set attributeName="opacity" to="0" dur="16.6s" /><animate attributeName="stroke-dashoffset" from="150" to="0" dur="1.8s" begin="16.6s" fill="freeze" /></path><path d="M55.79,71.8c5.09-0.81,35.4-4.17,36.42-4.23c1.53-0.08,2.87,1.08,2.82,3.21C94.9,76.41,94.75,86,93.6,91.24c-1.21,5.53-4.6,2.26-6.94,0.16" class="stroke" stroke-dasharray="150"><set attributeName="opacity" to="0" dur="17.6s" /><animate attributeName="stroke-dashoffset" from="150" to="0" dur="1.8s" begin="17.6s" fill="freeze" /></path><path d="M72.62,46.36c0.33,0.62,0.85,1.22,0.85,2.35c0,4.92,0.64,29.16,0.64,30.67" class="stroke" stroke-dasharray="150"><set attributeName="opacity" to="0" dur="19.3s" /><animate attributeName="stroke-dashoffset" from="150" to="0" dur="1.8s" begin="19.3s" fill="freeze" /></path><path d="M62.12,82.99c1.03,0.69,2.17,1.06,3.08,0.77c2.56-0.81,13.1-4.52,18.47-6.02" class="stroke" stroke-dasharray="150"><set attributeName="opacity" to="0" dur="20.3s" /><animate attributeName="stroke-dashoffset" from="150" to="0" dur="1.8s" begin="20.3s" fill="freeze" /></path><path d="M80.63,73.55c2.28,1.44,5.88,6.03,6.44,8.36" class="stroke" stroke-dasharray="150"><set attributeName="opacity" to="0" dur="21.3s" /><animate attributeName="stroke-dashoffset" from="150" to="0" dur="1.8s" begin="21.3s" fill="freeze" /></path><text x="90" y="120" id="reset-kvg-08823">⟳</text><text x="70" y="120" id="pause-kvg-08823">◼</text><script type="text/javascript"><![CDATA[function RecurringTimer(e,t){var n,r,i=t;this.pause=function(){window.clearTimeout(n);i-=new Date-r};var s=function(){r=new Date;n=window.setTimeout(function(){i=t;s();e()},i)};this.clear=function(){window.clearTimeout(n);i=t;n=window.setTimeout(function(){i=t;s();e()},i)};this.resume=s;this.resume()}function invoketimer(){timer=new RecurringTimer(function(){svg.setCurrentTime(0)},23200.0)}var svg=document.getElementById("kvg-08823");var pause=document.getElementById("pause-kvg-08823");var reset=document.getElementById("reset-kvg-08823");var timer;invoketimer();reset.onclick=function(){svg.setCurrentTime(0);timer.clear();svg.unpauseAnimations();pause.innerHTML = "◼";};pause.onclick=function(){if(svg.animationsPaused()){svg.unpauseAnimations();timer.resume();pause.innerHTML="◼"}else{svg.pauseAnimations();timer.pause();pause.innerHTML="▶"}}]]></script></svg>