<svg id="kvg-0885e" class="kanjivg" width="106" height="126" xmlns="http://www.w3.org/2000/svg" xmlns:xlink="http://www.w3.org/1999/xlink" xml:space="preserve" version="1.1" baseProfile="full"><defs><style type="text/css"><![CDATA[path.black{fill:none;stroke:black;stroke-width:5;stroke-linecap:round;stroke-linejoin:round;}path.grey{fill:none;stroke:#ddd;stroke-width:5;stroke-linecap:round;stroke-linejoin:round;}path.stroke{fill:none;stroke:black;stroke-width:5;stroke-linecap:round;stroke-linejoin:round;}rect{fill:none;stroke:#555;stroke-width:2;} text{font-size:16px;font-family:Segoe UI Symbol,Cambria Math,DejaVu Sans,Symbola,Quivira,STIX,Code2000;-webkit-touch-callout:none;cursor:pointer;-webkit-user-select:none;-khtml-user-select:none;-moz-user-select:none;-ms-user-select:none;user-select: none;}text:hover{color:#777;}#reset{font-weight:bold;}]]></style><marker id="markerStart" markerWidth="8" markerHeight="8" style="overflow:visible;"><circle cx="0" cy="0" r="1.5" style="stroke:none;fill:red;fill-opacity:0.5;"/></marker><marker id="markerEnd" style="overflow:visible;"><circle cx="0" cy="0" r="0.8" style="stroke:none;fill:blue;fill-opacity:0.5;"><animate attributeName="opacity" from="1" to="0" dur="3s" repeatCount="indefinite" /></circle></marker></defs><rect x="4" y="4" width="100" height="100" /><path d="M32.62,16c0.05,0.46,0.24,1.28-0.1,1.84c-2.4,3.98-8.72,10.89-17.54,17.61" class="grey" /><path d="M32.42,30.77c0.06,0.8,0.21,2.17-0.12,3.19C29.65,42.2,21.78,53.37,11,64.53" class="grey" /><path d="M24.95,53.12c0.27,0.24,0.93,2.09,0.98,2.58c0.05,0.49,0,35.27-0.05,38.3" class="grey" /><path d="M52.16,12.27c0.34,0.35,0.98,1.6,0.76,2.39c-2.18,7.86-4.08,13.13-4.95,16.54" class="grey" /><path d="M40.33,20.81c0.62,0.58,1.46,0.79,1.97,0.72c10.17-1.22,19.73-2.31,20.47-2.34c1.23-0.05,1.88,1.28,1.72,2.28c-0.62,3.84-1.28,5.36-1.77,7.8" class="grey" /><path d="M38.69,33.67c0.66,0.24,2.31,0.17,2.98,0.15c5.49-0.12,14.07-2.06,26.86-3.2c1.11-0.1,2.2,0.04,2.75,0.15" class="grey" /><path d="M41.2,40.07c0.22,0.35,0.44,0.64,0.53,1.09c0.75,3.54,1.72,5.58,2.41,11.87" class="grey" /><path d="M42.46,41.71c5.86-0.7,16.43-2.52,18.89-2.74c1.79-0.16,2.33,0.96,2.07,1.86c-0.47,1.67-1.53,5.84-1.9,7.89" class="grey" /><path d="M44.9,50.67c3.81-0.47,12.89-1.46,18.45-1.79" class="grey" /><path d="M36.5,58.88c1.3,0.32,2.69,0.4,3.99,0.32c8.29-0.55,18.76-2.1,24.71-2.79c2.15-0.25,3.3,0.03,4.55,0.31" class="grey" /><path d="M38.25,67.53c0.37,0.18,1.16,1.31,1.23,1.66s-0.05,17.76-0.12,19.95" class="grey" /><path d="M40.31,69.63c2.32-0.12,23.26-3.77,25-3.84c2.04-0.09,2.36,1.54,2.41,2.34c0.29,5.12,0.32,13.62-0.92,17.55c-1.29,4.07-3.54,1.07-5.04-0.59" class="grey" /><path d="M51.76,58.58c0.38,0.2,1.17,1.46,1.25,1.85c0.08,0.39-0.05,36.52-0.12,38.95" class="grey" /><path d="M71.84,19.3c0.62,0.36,3.24,0.94,3.86,0.86c5.3-0.66,12.18-2.03,15.02-1.88c1.02,0.06,1.64,0.17,2.15,0.35" class="grey" /><path d="M69.59,40.71c0.61,0.36,1.73,0.37,2.36,0.36C76.5,41,87.07,38.8,95.48,38.95c1.02,0.02,1.64,0.17,2.15,0.35" class="grey" /><path d="M84.25,42.66c0.07,0.45,0.99,2.37,1.06,5.25c0.34,13.85-0.22,37.8-0.22,42.51c0,7.65-6.1-0.48-7.37-1.67" class="grey" /><path d="M32.62,16c0.05,0.46,0.24,1.28-0.1,1.84c-2.4,3.98-8.72,10.89-17.54,17.61" class="stroke" stroke-dasharray="150"><animate attributeName="stroke-dashoffset" from="150" to="0" dur="1.8s" begin="0.0s" fill="freeze" /></path><path d="M32.42,30.77c0.06,0.8,0.21,2.17-0.12,3.19C29.65,42.2,21.78,53.37,11,64.53" class="stroke" stroke-dasharray="150"><set attributeName="opacity" to="0" dur="1.0s" /><animate attributeName="stroke-dashoffset" from="150" to="0" dur="1.8s" begin="1.0s" fill="freeze" /></path><path d="M24.95,53.12c0.27,0.24,0.93,2.09,0.98,2.58c0.05,0.49,0,35.27-0.05,38.3" class="stroke" stroke-dasharray="150"><set attributeName="opacity" to="0" dur="2.1s" /><animate attributeName="stroke-dashoffset" from="150" to="0" dur="1.8s" begin="2.1s" fill="freeze" /></path><path d="M52.16,12.27c0.34,0.35,0.98,1.6,0.76,2.39c-2.18,7.86-4.08,13.13-4.95,16.54" class="stroke" stroke-dasharray="150"><set attributeName="opacity" to="0" dur="3.2s" /><animate attributeName="stroke-dashoffset" from="150" to="0" dur="1.8s" begin="3.2s" fill="freeze" /></path><path d="M40.33,20.81c0.62,0.58,1.46,0.79,1.97,0.72c10.17-1.22,19.73-2.31,20.47-2.34c1.23-0.05,1.88,1.28,1.72,2.28c-0.62,3.84-1.28,5.36-1.77,7.8" class="stroke" stroke-dasharray="150"><set attributeName="opacity" to="0" dur="4.1000000000000005s" /><animate attributeName="stroke-dashoffset" from="150" to="0" dur="1.8s" begin="4.1000000000000005s" fill="freeze" /></path><path d="M38.69,33.67c0.66,0.24,2.31,0.17,2.98,0.15c5.49-0.12,14.07-2.06,26.86-3.2c1.11-0.1,2.2,0.04,2.75,0.15" class="stroke" stroke-dasharray="150"><set attributeName="opacity" to="0" dur="5.1000000000000005s" /><animate attributeName="stroke-dashoffset" from="150" to="0" dur="1.8s" begin="5.1000000000000005s" fill="freeze" /></path><path d="M41.2,40.07c0.22,0.35,0.44,0.64,0.53,1.09c0.75,3.54,1.72,5.58,2.41,11.87" class="stroke" stroke-dasharray="150"><set attributeName="opacity" to="0" dur="6.1000000000000005s" /><animate attributeName="stroke-dashoffset" from="150" to="0" dur="1.8s" begin="6.1000000000000005s" fill="freeze" /></path><path d="M42.46,41.71c5.86-0.7,16.43-2.52,18.89-2.74c1.79-0.16,2.33,0.96,2.07,1.86c-0.47,1.67-1.53,5.84-1.9,7.89" class="stroke" stroke-dasharray="150"><set attributeName="opacity" to="0" dur="7.000000000000001s" /><animate attributeName="stroke-dashoffset" from="150" to="0" dur="1.8s" begin="7.000000000000001s" fill="freeze" /></path><path d="M44.9,50.67c3.81-0.47,12.89-1.46,18.45-1.79" class="stroke" stroke-dasharray="150"><set attributeName="opacity" to="0" dur="8.0s" /><animate attributeName="stroke-dashoffset" from="150" to="0" dur="1.8s" begin="8.0s" fill="freeze" /></path><path d="M36.5,58.88c1.3,0.32,2.69,0.4,3.99,0.32c8.29-0.55,18.76-2.1,24.71-2.79c2.15-0.25,3.3,0.03,4.55,0.31" class="stroke" stroke-dasharray="150"><set attributeName="opacity" to="0" dur="8.9s" /><animate attributeName="stroke-dashoffset" from="150" to="0" dur="1.8s" begin="8.9s" fill="freeze" /></path><path d="M38.25,67.53c0.37,0.18,1.16,1.31,1.23,1.66s-0.05,17.76-0.12,19.95" class="stroke" stroke-dasharray="150"><set attributeName="opacity" to="0" dur="9.9s" /><animate attributeName="stroke-dashoffset" from="150" to="0" dur="1.8s" begin="9.9s" fill="freeze" /></path><path d="M40.31,69.63c2.32-0.12,23.26-3.77,25-3.84c2.04-0.09,2.36,1.54,2.41,2.34c0.29,5.12,0.32,13.62-0.92,17.55c-1.29,4.07-3.54,1.07-5.04-0.59" class="stroke" stroke-dasharray="150"><set attributeName="opacity" to="0" dur="10.9s" /><animate attributeName="stroke-dashoffset" from="150" to="0" dur="1.8s" begin="10.9s" fill="freeze" /></path><path d="M51.76,58.58c0.38,0.2,1.17,1.46,1.25,1.85c0.08,0.39-0.05,36.52-0.12,38.95" class="stroke" stroke-dasharray="150"><set attributeName="opacity" to="0" dur="12.200000000000001s" /><animate attributeName="stroke-dashoffset" from="150" to="0" dur="1.8s" begin="12.200000000000001s" fill="freeze" /></path><path d="M71.84,19.3c0.62,0.36,3.24,0.94,3.86,0.86c5.3-0.66,12.18-2.03,15.02-1.88c1.02,0.06,1.64,0.17,2.15,0.35" class="stroke" stroke-dasharray="150"><set attributeName="opacity" to="0" dur="13.3s" /><animate attributeName="stroke-dashoffset" from="150" to="0" dur="1.8s" begin="13.3s" fill="freeze" /></path><path d="M69.59,40.71c0.61,0.36,1.73,0.37,2.36,0.36C76.5,41,87.07,38.8,95.48,38.95c1.02,0.02,1.64,0.17,2.15,0.35" class="stroke" stroke-dasharray="150"><set attributeName="opacity" to="0" dur="14.3s" /><animate attributeName="stroke-dashoffset" from="150" to="0" dur="1.8s" begin="14.3s" fill="freeze" /></path><path d="M84.25,42.66c0.07,0.45,0.99,2.37,1.06,5.25c0.34,13.85-0.22,37.8-0.22,42.51c0,7.65-6.1-0.48-7.37-1.67" class="stroke" stroke-dasharray="150"><set attributeName="opacity" to="0" dur="15.3s" /><animate attributeName="stroke-dashoffset" from="150" to="0" dur="1.8s" begin="15.3s" fill="freeze" /></path><text x="90" y="120" id="reset-kvg-0885e">⟳</text><text x="70" y="120" id="pause-kvg-0885e">◼</text><script type="text/javascript"><![CDATA[function RecurringTimer(e,t){var n,r,i=t;this.pause=function(){window.clearTimeout(n);i-=new Date-r};var s=function(){r=new Date;n=window.setTimeout(function(){i=t;s();e()},i)};this.clear=function(){window.clearTimeout(n);i=t;n=window.setTimeout(function(){i=t;s();e()},i)};this.resume=s;this.resume()}function invoketimer(){timer=new RecurringTimer(function(){svg.setCurrentTime(0)},17700.0)}var svg=document.getElementById("kvg-0885e");var pause=document.getElementById("pause-kvg-0885e");var reset=document.getElementById("reset-kvg-0885e");var timer;invoketimer();reset.onclick=function(){svg.setCurrentTime(0);timer.clear();svg.unpauseAnimations();pause.innerHTML = "◼";};pause.onclick=function(){if(svg.animationsPaused()){svg.unpauseAnimations();timer.resume();pause.innerHTML="◼"}else{svg.pauseAnimations();timer.pause();pause.innerHTML="▶"}}]]></script></svg>