<svg id="kvg-08868-HzLst" class="kanjivg" width="106" height="126" xmlns="http://www.w3.org/2000/svg" xmlns:xlink="http://www.w3.org/1999/xlink" xml:space="preserve" version="1.1" baseProfile="full"><defs><style type="text/css"><![CDATA[path.black{fill:none;stroke:black;stroke-width:5;stroke-linecap:round;stroke-linejoin:round;}path.grey{fill:none;stroke:#ddd;stroke-width:5;stroke-linecap:round;stroke-linejoin:round;}path.stroke{fill:none;stroke:black;stroke-width:5;stroke-linecap:round;stroke-linejoin:round;}rect{fill:none;stroke:#555;stroke-width:2;} text{font-size:16px;font-family:Segoe UI Symbol,Cambria Math,DejaVu Sans,Symbola,Quivira,STIX,Code2000;-webkit-touch-callout:none;cursor:pointer;-webkit-user-select:none;-khtml-user-select:none;-moz-user-select:none;-ms-user-select:none;user-select: none;}text:hover{color:#777;}#reset{font-weight:bold;}]]></style><marker id="markerStart" markerWidth="8" markerHeight="8" style="overflow:visible;"><circle cx="0" cy="0" r="1.5" style="stroke:none;fill:red;fill-opacity:0.5;"/></marker><marker id="markerEnd" style="overflow:visible;"><circle cx="0" cy="0" r="0.8" style="stroke:none;fill:blue;fill-opacity:0.5;"><animate attributeName="opacity" from="1" to="0" dur="3s" repeatCount="indefinite" /></circle></marker></defs><rect x="4" y="4" width="100" height="100" /><path d="M30,24.4c1.02,0.37,2.9,0.55,3.9,0.37c4.12-0.72,31.85-4.76,41.53-4.76c1.7,0,2.72,0.18,3.57,0.36" class="grey" /><path d="M32.25,35.89c0.94,0.38,2.66,0.49,3.6,0.38c5.98-0.66,32.4-4.27,39.61-4.88c1.56-0.13,2.5,0.18,3.29,0.37" class="grey" /><path d="M16.25,49.7c1.52,0.54,4.31,0.68,5.82,0.54c10.68-0.99,49.43-5.49,65.11-6.23c2.53-0.12,4.05,0.26,5.31,0.53" class="grey" /><path d="M52.37,9.75c1.09,0.5,1.74,2.25,1.96,3.25c0.22,1,0.5,27.25,0.28,33.5" class="grey" /><path d="M43.97,51.14c0.09,0.83,0.59,2.35-0.18,3.34c-7.03,9.01-15.53,18.26-30.73,26.48" class="grey" /><path d="M37.75,66c0.48,0.54,1,1.06,1,2c-0.03,11.82-0.32,20.69-0.32,22.69s1.18,3.14,2.68,1.64s14.35-11.84,16.35-13.34" class="grey" /><path d="M76.25,51.89c0.05,0.43,0.57,2.05,0.25,2.61c-2,3.5-5.75,7.5-12.25,12.25" class="grey" /><path d="M50.75,60.75c4,0.75,32.79,23.64,38.31,27.35c2.08,1.4,3.86,2,5.94,2.4" class="grey" /><path d="M30,24.4c1.02,0.37,2.9,0.55,3.9,0.37c4.12-0.72,31.85-4.76,41.53-4.76c1.7,0,2.72,0.18,3.57,0.36" class="stroke" stroke-dasharray="150"><animate attributeName="stroke-dashoffset" from="150" to="0" dur="1.8s" begin="0.0s" fill="freeze" /></path><path d="M32.25,35.89c0.94,0.38,2.66,0.49,3.6,0.38c5.98-0.66,32.4-4.27,39.61-4.88c1.56-0.13,2.5,0.18,3.29,0.37" class="stroke" stroke-dasharray="150"><set attributeName="opacity" to="0" dur="1.2s" /><animate attributeName="stroke-dashoffset" from="150" to="0" dur="1.8s" begin="1.2s" fill="freeze" /></path><path d="M16.25,49.7c1.52,0.54,4.31,0.68,5.82,0.54c10.68-0.99,49.43-5.49,65.11-6.23c2.53-0.12,4.05,0.26,5.31,0.53" class="stroke" stroke-dasharray="150"><set attributeName="opacity" to="0" dur="2.4s" /><animate attributeName="stroke-dashoffset" from="150" to="0" dur="1.8s" begin="2.4s" fill="freeze" /></path><path d="M52.37,9.75c1.09,0.5,1.74,2.25,1.96,3.25c0.22,1,0.5,27.25,0.28,33.5" class="stroke" stroke-dasharray="150"><set attributeName="opacity" to="0" dur="4.1s" /><animate attributeName="stroke-dashoffset" from="150" to="0" dur="1.8s" begin="4.1s" fill="freeze" /></path><path d="M43.97,51.14c0.09,0.83,0.59,2.35-0.18,3.34c-7.03,9.01-15.53,18.26-30.73,26.48" class="stroke" stroke-dasharray="150"><set attributeName="opacity" to="0" dur="5.1s" /><animate attributeName="stroke-dashoffset" from="150" to="0" dur="1.8s" begin="5.1s" fill="freeze" /></path><path d="M37.75,66c0.48,0.54,1,1.06,1,2c-0.03,11.82-0.32,20.69-0.32,22.69s1.18,3.14,2.68,1.64s14.35-11.84,16.35-13.34" class="stroke" stroke-dasharray="150"><set attributeName="opacity" to="0" dur="6.199999999999999s" /><animate attributeName="stroke-dashoffset" from="150" to="0" dur="1.8s" begin="6.199999999999999s" fill="freeze" /></path><path d="M76.25,51.89c0.05,0.43,0.57,2.05,0.25,2.61c-2,3.5-5.75,7.5-12.25,12.25" class="stroke" stroke-dasharray="150"><set attributeName="opacity" to="0" dur="7.499999999999999s" /><animate attributeName="stroke-dashoffset" from="150" to="0" dur="1.8s" begin="7.499999999999999s" fill="freeze" /></path><path d="M50.75,60.75c4,0.75,32.79,23.64,38.31,27.35c2.08,1.4,3.86,2,5.94,2.4" class="stroke" stroke-dasharray="150"><set attributeName="opacity" to="0" dur="8.5s" /><animate attributeName="stroke-dashoffset" from="150" to="0" dur="1.8s" begin="8.5s" fill="freeze" /></path><text x="90" y="120" id="reset-kvg-08868-HzLst">⟳</text><text x="70" y="120" id="pause-kvg-08868-HzLst">◼</text><script type="text/javascript"><![CDATA[function RecurringTimer(e,t){var n,r,i=t;this.pause=function(){window.clearTimeout(n);i-=new Date-r};var s=function(){r=new Date;n=window.setTimeout(function(){i=t;s();e()},i)};this.clear=function(){window.clearTimeout(n);i=t;n=window.setTimeout(function(){i=t;s();e()},i)};this.resume=s;this.resume()}function invoketimer(){timer=new RecurringTimer(function(){svg.setCurrentTime(0)},10800.0)}var svg=document.getElementById("kvg-08868-HzLst");var pause=document.getElementById("pause-kvg-08868-HzLst");var reset=document.getElementById("reset-kvg-08868-HzLst");var timer;invoketimer();reset.onclick=function(){svg.setCurrentTime(0);timer.clear();svg.unpauseAnimations();pause.innerHTML = "◼";};pause.onclick=function(){if(svg.animationsPaused()){svg.unpauseAnimations();timer.resume();pause.innerHTML="◼"}else{svg.pauseAnimations();timer.pause();pause.innerHTML="▶"}}]]></script></svg>