<svg id="kvg-08897" class="kanjivg" width="106" height="126" xmlns="http://www.w3.org/2000/svg" xmlns:xlink="http://www.w3.org/1999/xlink" xml:space="preserve" version="1.1" baseProfile="full"><defs><style type="text/css"><![CDATA[path.black{fill:none;stroke:black;stroke-width:5;stroke-linecap:round;stroke-linejoin:round;}path.grey{fill:none;stroke:#ddd;stroke-width:5;stroke-linecap:round;stroke-linejoin:round;}path.stroke{fill:none;stroke:black;stroke-width:5;stroke-linecap:round;stroke-linejoin:round;}rect{fill:none;stroke:#555;stroke-width:2;} text{font-size:16px;font-family:Segoe UI Symbol,Cambria Math,DejaVu Sans,Symbola,Quivira,STIX,Code2000;-webkit-touch-callout:none;cursor:pointer;-webkit-user-select:none;-khtml-user-select:none;-moz-user-select:none;-ms-user-select:none;user-select: none;}text:hover{color:#777;}#reset{font-weight:bold;}]]></style><marker id="markerStart" markerWidth="8" markerHeight="8" style="overflow:visible;"><circle cx="0" cy="0" r="1.5" style="stroke:none;fill:red;fill-opacity:0.5;"/></marker><marker id="markerEnd" style="overflow:visible;"><circle cx="0" cy="0" r="0.8" style="stroke:none;fill:blue;fill-opacity:0.5;"><animate attributeName="opacity" from="1" to="0" dur="3s" repeatCount="indefinite" /></circle></marker></defs><rect x="4" y="4" width="100" height="100" /><path d="M21.83,13.25c3.41,2.71,7.07,6.77,10,11.5" class="grey" /><path d="M12.2,37.36c0.94,0.39,4.36,0.83,5.96,0.61c3.34-0.47,16.37-4.83,18.69-5.49c2.33-0.66,4.58,0.83,3.26,2.85C32.36,47.15,24.5,58.5,12.5,69.5" class="grey" /><path d="M28.5,54.61c0.12,0.29,1.65,1.53,1.77,3.39c0.57,8.93,0.06,35.2,0.06,38.25" class="grey" /><path d="M43.31,44.89c0.15,1.08,0.29,1.37,0,2.15c-0.88,2.36-3.6,8.17-5.36,10.96" class="grey" /><path d="M34.33,59c2.65,2.59,5.48,6.47,7.75,11" class="grey" /><path d="M66.93,13.75c0.06,0.93,0.26,2.47-0.11,3.76c-2.55,8.81-8.87,23.94-19.84,35.36" class="grey" /><path d="M67.62,17.6c3.67,5.81,19.09,24.24,23.14,28.49c1.37,1.44,3.14,2.06,4.51,2.47" class="grey" /><path d="M75.35,40.33c0.07,0.56,0.25,1.51-0.13,2.24c-2.47,4.78-10.78,14.07-23.01,20.59" class="grey" /><path d="M81.63,54.89c0.08,0.6,0.3,1.63-0.17,2.39c-3.2,5.23-13.66,15.69-29.35,22.92" class="grey" /><path d="M88.79,68.1c0.11,0.7,0.23,1.8-0.21,2.81c-2.6,5.92-17.55,18.89-38.01,26.84" class="grey" /><path d="M21.83,13.25c3.41,2.71,7.07,6.77,10,11.5" class="stroke" stroke-dasharray="150"><animate attributeName="stroke-dashoffset" from="150" to="0" dur="1.8s" begin="0.0s" fill="freeze" /></path><path d="M12.2,37.36c0.94,0.39,4.36,0.83,5.96,0.61c3.34-0.47,16.37-4.83,18.69-5.49c2.33-0.66,4.58,0.83,3.26,2.85C32.36,47.15,24.5,58.5,12.5,69.5" class="stroke" stroke-dasharray="150"><set attributeName="opacity" to="0" dur="0.9s" /><animate attributeName="stroke-dashoffset" from="150" to="0" dur="1.8s" begin="0.9s" fill="freeze" /></path><path d="M28.5,54.61c0.12,0.29,1.65,1.53,1.77,3.39c0.57,8.93,0.06,35.2,0.06,38.25" class="stroke" stroke-dasharray="150"><set attributeName="opacity" to="0" dur="2.6s" /><animate attributeName="stroke-dashoffset" from="150" to="0" dur="1.8s" begin="2.6s" fill="freeze" /></path><path d="M43.31,44.89c0.15,1.08,0.29,1.37,0,2.15c-0.88,2.36-3.6,8.17-5.36,10.96" class="stroke" stroke-dasharray="150"><set attributeName="opacity" to="0" dur="3.7s" /><animate attributeName="stroke-dashoffset" from="150" to="0" dur="1.8s" begin="3.7s" fill="freeze" /></path><path d="M34.33,59c2.65,2.59,5.48,6.47,7.75,11" class="stroke" stroke-dasharray="150"><set attributeName="opacity" to="0" dur="4.6000000000000005s" /><animate attributeName="stroke-dashoffset" from="150" to="0" dur="1.8s" begin="4.6000000000000005s" fill="freeze" /></path><path d="M66.93,13.75c0.06,0.93,0.26,2.47-0.11,3.76c-2.55,8.81-8.87,23.94-19.84,35.36" class="stroke" stroke-dasharray="150"><set attributeName="opacity" to="0" dur="5.500000000000001s" /><animate attributeName="stroke-dashoffset" from="150" to="0" dur="1.8s" begin="5.500000000000001s" fill="freeze" /></path><path d="M67.62,17.6c3.67,5.81,19.09,24.24,23.14,28.49c1.37,1.44,3.14,2.06,4.51,2.47" class="stroke" stroke-dasharray="150"><set attributeName="opacity" to="0" dur="6.600000000000001s" /><animate attributeName="stroke-dashoffset" from="150" to="0" dur="1.8s" begin="6.600000000000001s" fill="freeze" /></path><path d="M75.35,40.33c0.07,0.56,0.25,1.51-0.13,2.24c-2.47,4.78-10.78,14.07-23.01,20.59" class="stroke" stroke-dasharray="150"><set attributeName="opacity" to="0" dur="7.700000000000001s" /><animate attributeName="stroke-dashoffset" from="150" to="0" dur="1.8s" begin="7.700000000000001s" fill="freeze" /></path><path d="M81.63,54.89c0.08,0.6,0.3,1.63-0.17,2.39c-3.2,5.23-13.66,15.69-29.35,22.92" class="stroke" stroke-dasharray="150"><set attributeName="opacity" to="0" dur="8.700000000000001s" /><animate attributeName="stroke-dashoffset" from="150" to="0" dur="1.8s" begin="8.700000000000001s" fill="freeze" /></path><path d="M88.79,68.1c0.11,0.7,0.23,1.8-0.21,2.81c-2.6,5.92-17.55,18.89-38.01,26.84" class="stroke" stroke-dasharray="150"><set attributeName="opacity" to="0" dur="9.8s" /><animate attributeName="stroke-dashoffset" from="150" to="0" dur="1.8s" begin="9.8s" fill="freeze" /></path><text x="90" y="120" id="reset-kvg-08897">⟳</text><text x="70" y="120" id="pause-kvg-08897">◼</text><script type="text/javascript"><![CDATA[function RecurringTimer(e,t){var n,r,i=t;this.pause=function(){window.clearTimeout(n);i-=new Date-r};var s=function(){r=new Date;n=window.setTimeout(function(){i=t;s();e()},i)};this.clear=function(){window.clearTimeout(n);i=t;n=window.setTimeout(function(){i=t;s();e()},i)};this.resume=s;this.resume()}function invoketimer(){timer=new RecurringTimer(function(){svg.setCurrentTime(0)},12100.000000000002)}var svg=document.getElementById("kvg-08897");var pause=document.getElementById("pause-kvg-08897");var reset=document.getElementById("reset-kvg-08897");var timer;invoketimer();reset.onclick=function(){svg.setCurrentTime(0);timer.clear();svg.unpauseAnimations();pause.innerHTML = "◼";};pause.onclick=function(){if(svg.animationsPaused()){svg.unpauseAnimations();timer.resume();pause.innerHTML="◼"}else{svg.pauseAnimations();timer.pause();pause.innerHTML="▶"}}]]></script></svg>