<svg id="kvg-088a4" class="kanjivg" width="106" height="126" xmlns="http://www.w3.org/2000/svg" xmlns:xlink="http://www.w3.org/1999/xlink" xml:space="preserve" version="1.1" baseProfile="full"><defs><style type="text/css"><![CDATA[path.black{fill:none;stroke:black;stroke-width:5;stroke-linecap:round;stroke-linejoin:round;}path.grey{fill:none;stroke:#ddd;stroke-width:5;stroke-linecap:round;stroke-linejoin:round;}path.stroke{fill:none;stroke:black;stroke-width:5;stroke-linecap:round;stroke-linejoin:round;}rect{fill:none;stroke:#555;stroke-width:2;} text{font-size:16px;font-family:Segoe UI Symbol,Cambria Math,DejaVu Sans,Symbola,Quivira,STIX,Code2000;-webkit-touch-callout:none;cursor:pointer;-webkit-user-select:none;-khtml-user-select:none;-moz-user-select:none;-ms-user-select:none;user-select: none;}text:hover{color:#777;}#reset{font-weight:bold;}]]></style><marker id="markerStart" markerWidth="8" markerHeight="8" style="overflow:visible;"><circle cx="0" cy="0" r="1.5" style="stroke:none;fill:red;fill-opacity:0.5;"/></marker><marker id="markerEnd" style="overflow:visible;"><circle cx="0" cy="0" r="0.8" style="stroke:none;fill:blue;fill-opacity:0.5;"><animate attributeName="opacity" from="1" to="0" dur="3s" repeatCount="indefinite" /></circle></marker></defs><rect x="4" y="4" width="100" height="100" /><path d="M51.42,8.5c0.9,0.48,2.37,2.19,2.37,3.31c0,1.86-0.12,5.72-0.12,7.76" class="grey" /><path d="M22,21.61c1.42,0.1,4.67,0.65,6.06,0.55C43.5,21,66.5,17.75,81.7,17.45c2.35-0.05,3.55,0.05,5.3,0.7" class="grey" /><path d="M32.77,29.04c1.49,0.4,3,1,4.44,0.82c2.86-0.37,26.88-4.64,29.89-5.01c3.01-0.37,4.04,2.55,2.24,3.75c-3.09,2.07-12.84,5.87-14.74,7.34" class="grey" /><path d="M47.63,33.67c2.55,0.68,8.56,3.28,9.76,5.06" class="grey" /><path d="M20.07,46.29c0.96,0.23,3.92,0.69,6.86,0.11C44.45,43,68,39,81.91,38.44c8.07-0.33,3.59,5.56-1.57,9.07" class="grey" /><path d="M54.99,42.67c0.26,0.58,1,2.23,1,2.83c0,7.81-0.02,7.64-0.02,12.75c0,6.64-3.96,1.75-5.82-0.34" class="grey" /><path d="M49.47,42.25c0.09,0.49,0.33,1.31-0.19,1.99c-4.07,5.28-12.99,12.64-33.39,19.02" class="grey" /><path d="M53.45,61.89c0.1,0.52,0.41,1.37-0.2,2.07C49.31,68.46,38,78,16.81,83.78" class="grey" /><path d="M39.25,77.88c0.48,0.38,1,0.75,1,1.41c-0.03,8.33-0.32,16.67-0.32,18.08c0,1.41,1.18,2.21,2.68,1.15s13.85-11.34,15.85-12.4" class="grey" /><path d="M79.4,62.89c0.03,0.29,0.33,1.41,0.14,1.8c-1.16,2.42-4.8,5.87-10.74,10.68" class="grey" /><path d="M54,65.94c1.64,0.87,4.25,3.34,4.7,3.71c6.68,5.5,22.92,19.53,27.44,22.77c1.7,1.22,3.16,1.74,4.86,2.09" class="grey" /><path d="M51.42,8.5c0.9,0.48,2.37,2.19,2.37,3.31c0,1.86-0.12,5.72-0.12,7.76" class="stroke" stroke-dasharray="150"><animate attributeName="stroke-dashoffset" from="150" to="0" dur="1.8s" begin="0.0s" fill="freeze" /></path><path d="M22,21.61c1.42,0.1,4.67,0.65,6.06,0.55C43.5,21,66.5,17.75,81.7,17.45c2.35-0.05,3.55,0.05,5.3,0.7" class="stroke" stroke-dasharray="150"><set attributeName="opacity" to="0" dur="0.9s" /><animate attributeName="stroke-dashoffset" from="150" to="0" dur="1.8s" begin="0.9s" fill="freeze" /></path><path d="M32.77,29.04c1.49,0.4,3,1,4.44,0.82c2.86-0.37,26.88-4.64,29.89-5.01c3.01-0.37,4.04,2.55,2.24,3.75c-3.09,2.07-12.84,5.87-14.74,7.34" class="stroke" stroke-dasharray="150"><set attributeName="opacity" to="0" dur="2.4s" /><animate attributeName="stroke-dashoffset" from="150" to="0" dur="1.8s" begin="2.4s" fill="freeze" /></path><path d="M47.63,33.67c2.55,0.68,8.56,3.28,9.76,5.06" class="stroke" stroke-dasharray="150"><set attributeName="opacity" to="0" dur="3.8s" /><animate attributeName="stroke-dashoffset" from="150" to="0" dur="1.8s" begin="3.8s" fill="freeze" /></path><path d="M20.07,46.29c0.96,0.23,3.92,0.69,6.86,0.11C44.45,43,68,39,81.91,38.44c8.07-0.33,3.59,5.56-1.57,9.07" class="stroke" stroke-dasharray="150"><set attributeName="opacity" to="0" dur="4.7s" /><animate attributeName="stroke-dashoffset" from="150" to="0" dur="1.8s" begin="4.7s" fill="freeze" /></path><path d="M54.99,42.67c0.26,0.58,1,2.23,1,2.83c0,7.81-0.02,7.64-0.02,12.75c0,6.64-3.96,1.75-5.82-0.34" class="stroke" stroke-dasharray="150"><set attributeName="opacity" to="0" dur="6.4s" /><animate attributeName="stroke-dashoffset" from="150" to="0" dur="1.8s" begin="6.4s" fill="freeze" /></path><path d="M49.47,42.25c0.09,0.49,0.33,1.31-0.19,1.99c-4.07,5.28-12.99,12.64-33.39,19.02" class="stroke" stroke-dasharray="150"><set attributeName="opacity" to="0" dur="7.4s" /><animate attributeName="stroke-dashoffset" from="150" to="0" dur="1.8s" begin="7.4s" fill="freeze" /></path><path d="M53.45,61.89c0.1,0.52,0.41,1.37-0.2,2.07C49.31,68.46,38,78,16.81,83.78" class="stroke" stroke-dasharray="150"><set attributeName="opacity" to="0" dur="8.5s" /><animate attributeName="stroke-dashoffset" from="150" to="0" dur="1.8s" begin="8.5s" fill="freeze" /></path><path d="M39.25,77.88c0.48,0.38,1,0.75,1,1.41c-0.03,8.33-0.32,16.67-0.32,18.08c0,1.41,1.18,2.21,2.68,1.15s13.85-11.34,15.85-12.4" class="stroke" stroke-dasharray="150"><set attributeName="opacity" to="0" dur="9.6s" /><animate attributeName="stroke-dashoffset" from="150" to="0" dur="1.8s" begin="9.6s" fill="freeze" /></path><path d="M79.4,62.89c0.03,0.29,0.33,1.41,0.14,1.8c-1.16,2.42-4.8,5.87-10.74,10.68" class="stroke" stroke-dasharray="150"><set attributeName="opacity" to="0" dur="10.7s" /><animate attributeName="stroke-dashoffset" from="150" to="0" dur="1.8s" begin="10.7s" fill="freeze" /></path><path d="M54,65.94c1.64,0.87,4.25,3.34,4.7,3.71c6.68,5.5,22.92,19.53,27.44,22.77c1.7,1.22,3.16,1.74,4.86,2.09" class="stroke" stroke-dasharray="150"><set attributeName="opacity" to="0" dur="11.6s" /><animate attributeName="stroke-dashoffset" from="150" to="0" dur="1.8s" begin="11.6s" fill="freeze" /></path><text x="90" y="120" id="reset-kvg-088a4">⟳</text><text x="70" y="120" id="pause-kvg-088a4">◼</text><script type="text/javascript"><![CDATA[function RecurringTimer(e,t){var n,r,i=t;this.pause=function(){window.clearTimeout(n);i-=new Date-r};var s=function(){r=new Date;n=window.setTimeout(function(){i=t;s();e()},i)};this.clear=function(){window.clearTimeout(n);i=t;n=window.setTimeout(function(){i=t;s();e()},i)};this.resume=s;this.resume()}function invoketimer(){timer=new RecurringTimer(function(){svg.setCurrentTime(0)},13799.999999999998)}var svg=document.getElementById("kvg-088a4");var pause=document.getElementById("pause-kvg-088a4");var reset=document.getElementById("reset-kvg-088a4");var timer;invoketimer();reset.onclick=function(){svg.setCurrentTime(0);timer.clear();svg.unpauseAnimations();pause.innerHTML = "◼";};pause.onclick=function(){if(svg.animationsPaused()){svg.unpauseAnimations();timer.resume();pause.innerHTML="◼"}else{svg.pauseAnimations();timer.pause();pause.innerHTML="▶"}}]]></script></svg>