<svg id="kvg-088c5" class="kanjivg" width="106" height="126" xmlns="http://www.w3.org/2000/svg" xmlns:xlink="http://www.w3.org/1999/xlink" xml:space="preserve" version="1.1" baseProfile="full"><defs><style type="text/css"><![CDATA[path.black{fill:none;stroke:black;stroke-width:5;stroke-linecap:round;stroke-linejoin:round;}path.grey{fill:none;stroke:#ddd;stroke-width:5;stroke-linecap:round;stroke-linejoin:round;}path.stroke{fill:none;stroke:black;stroke-width:5;stroke-linecap:round;stroke-linejoin:round;}rect{fill:none;stroke:#555;stroke-width:2;} text{font-size:16px;font-family:Segoe UI Symbol,Cambria Math,DejaVu Sans,Symbola,Quivira,STIX,Code2000;-webkit-touch-callout:none;cursor:pointer;-webkit-user-select:none;-khtml-user-select:none;-moz-user-select:none;-ms-user-select:none;user-select: none;}text:hover{color:#777;}#reset{font-weight:bold;}]]></style><marker id="markerStart" markerWidth="8" markerHeight="8" style="overflow:visible;"><circle cx="0" cy="0" r="1.5" style="stroke:none;fill:red;fill-opacity:0.5;"/></marker><marker id="markerEnd" style="overflow:visible;"><circle cx="0" cy="0" r="0.8" style="stroke:none;fill:blue;fill-opacity:0.5;"><animate attributeName="opacity" from="1" to="0" dur="3s" repeatCount="indefinite" /></circle></marker></defs><rect x="4" y="4" width="100" height="100" /><path d="M39.31,12.75c0.84,0.84,1.25,2.12,1.25,3.5c0,4.48-0.04,18.2-0.06,29.13c0,1.9,0,3.71,0,5.38" class="grey" /><path d="M23.02,19.42c3.02,1.31,7.79,5.37,8.55,7.4" class="grey" /><path d="M21,45.13c1.38,0.74,1.98,0.56,3.1-0.11c3.27-1.94,7.05-4.55,10.02-7.02" class="grey" /><path d="M49.21,26.86c2.17,0.39,4.34,0.38,5.91,0.13c8.25-1.36,21.88-2.61,28.89-2.95c1.86-0.09,3.61-0.28,4.95,0" class="grey" /><path d="M66.49,12.4c0.8,0.8,1.23,1.85,1.23,3c0,4.73,0.06,13.42,0.06,25.13" class="grey" /><path d="M51.9,42.93c1.73,0.32,3.61,0.36,5.23,0.18c7.62-0.86,15.32-1.68,23.62-2.35c1.64-0.13,3.32-0.12,4.93,0.25" class="grey" /><path d="M52.68,49.23c0.92,0.92,1.45,2.15,1.45,3.47c0,2.91-0.1,3.67-0.1,5.19" class="grey" /><path d="M18.75,61.18c2.75,0.57,5.77,0.55,8.88,0.21c12.75-1.39,39.82-3.59,54.62-4.18c2.96-0.12,6.38-0.09,9,0.29" class="grey" /><path d="M48.63,59.91c0,0.72-0.3,1.7-0.93,2.47C43,68.12,32.5,78.5,15.8,85.77" class="grey" /><path d="M39.62,74.66c0.92,0.92,1.19,2.21,1.19,3.64c0,3.2-0.06,12.95-0.06,16.04c0,1.89,1.03,2.62,2.53,1.29C46,93.25,55.25,87,58.74,85.03" class="grey" /><path d="M75.63,63.42c0,0.71-0.13,1.21-0.62,1.85c-2.07,2.75-4.64,4.98-9.21,8.22" class="grey" /><path d="M52.25,68.25c3.25,0,21.38,14.38,31.58,21.81c1.57,1.15,3.92,2.56,6.42,3.43" class="grey" /><path d="M39.31,12.75c0.84,0.84,1.25,2.12,1.25,3.5c0,4.48-0.04,18.2-0.06,29.13c0,1.9,0,3.71,0,5.38" class="stroke" stroke-dasharray="150"><animate attributeName="stroke-dashoffset" from="150" to="0" dur="1.8s" begin="0.0s" fill="freeze" /></path><path d="M23.02,19.42c3.02,1.31,7.79,5.37,8.55,7.4" class="stroke" stroke-dasharray="150"><set attributeName="opacity" to="0" dur="1.0s" /><animate attributeName="stroke-dashoffset" from="150" to="0" dur="1.8s" begin="1.0s" fill="freeze" /></path><path d="M21,45.13c1.38,0.74,1.98,0.56,3.1-0.11c3.27-1.94,7.05-4.55,10.02-7.02" class="stroke" stroke-dasharray="150"><set attributeName="opacity" to="0" dur="1.9s" /><animate attributeName="stroke-dashoffset" from="150" to="0" dur="1.8s" begin="1.9s" fill="freeze" /></path><path d="M49.21,26.86c2.17,0.39,4.34,0.38,5.91,0.13c8.25-1.36,21.88-2.61,28.89-2.95c1.86-0.09,3.61-0.28,4.95,0" class="stroke" stroke-dasharray="150"><set attributeName="opacity" to="0" dur="2.8s" /><animate attributeName="stroke-dashoffset" from="150" to="0" dur="1.8s" begin="2.8s" fill="freeze" /></path><path d="M66.49,12.4c0.8,0.8,1.23,1.85,1.23,3c0,4.73,0.06,13.42,0.06,25.13" class="stroke" stroke-dasharray="150"><set attributeName="opacity" to="0" dur="3.8s" /><animate attributeName="stroke-dashoffset" from="150" to="0" dur="1.8s" begin="3.8s" fill="freeze" /></path><path d="M51.9,42.93c1.73,0.32,3.61,0.36,5.23,0.18c7.62-0.86,15.32-1.68,23.62-2.35c1.64-0.13,3.32-0.12,4.93,0.25" class="stroke" stroke-dasharray="150"><set attributeName="opacity" to="0" dur="4.8s" /><animate attributeName="stroke-dashoffset" from="150" to="0" dur="1.8s" begin="4.8s" fill="freeze" /></path><path d="M52.68,49.23c0.92,0.92,1.45,2.15,1.45,3.47c0,2.91-0.1,3.67-0.1,5.19" class="stroke" stroke-dasharray="150"><set attributeName="opacity" to="0" dur="5.8s" /><animate attributeName="stroke-dashoffset" from="150" to="0" dur="1.8s" begin="5.8s" fill="freeze" /></path><path d="M18.75,61.18c2.75,0.57,5.77,0.55,8.88,0.21c12.75-1.39,39.82-3.59,54.62-4.18c2.96-0.12,6.38-0.09,9,0.29" class="stroke" stroke-dasharray="150"><set attributeName="opacity" to="0" dur="6.7s" /><animate attributeName="stroke-dashoffset" from="150" to="0" dur="1.8s" begin="6.7s" fill="freeze" /></path><path d="M48.63,59.91c0,0.72-0.3,1.7-0.93,2.47C43,68.12,32.5,78.5,15.8,85.77" class="stroke" stroke-dasharray="150"><set attributeName="opacity" to="0" dur="8.4s" /><animate attributeName="stroke-dashoffset" from="150" to="0" dur="1.8s" begin="8.4s" fill="freeze" /></path><path d="M39.62,74.66c0.92,0.92,1.19,2.21,1.19,3.64c0,3.2-0.06,12.95-0.06,16.04c0,1.89,1.03,2.62,2.53,1.29C46,93.25,55.25,87,58.74,85.03" class="stroke" stroke-dasharray="150"><set attributeName="opacity" to="0" dur="9.5s" /><animate attributeName="stroke-dashoffset" from="150" to="0" dur="1.8s" begin="9.5s" fill="freeze" /></path><path d="M75.63,63.42c0,0.71-0.13,1.21-0.62,1.85c-2.07,2.75-4.64,4.98-9.21,8.22" class="stroke" stroke-dasharray="150"><set attributeName="opacity" to="0" dur="10.6s" /><animate attributeName="stroke-dashoffset" from="150" to="0" dur="1.8s" begin="10.6s" fill="freeze" /></path><path d="M52.25,68.25c3.25,0,21.38,14.38,31.58,21.81c1.57,1.15,3.92,2.56,6.42,3.43" class="stroke" stroke-dasharray="150"><set attributeName="opacity" to="0" dur="11.5s" /><animate attributeName="stroke-dashoffset" from="150" to="0" dur="1.8s" begin="11.5s" fill="freeze" /></path><text x="90" y="120" id="reset-kvg-088c5">⟳</text><text x="70" y="120" id="pause-kvg-088c5">◼</text><script type="text/javascript"><![CDATA[function RecurringTimer(e,t){var n,r,i=t;this.pause=function(){window.clearTimeout(n);i-=new Date-r};var s=function(){r=new Date;n=window.setTimeout(function(){i=t;s();e()},i)};this.clear=function(){window.clearTimeout(n);i=t;n=window.setTimeout(function(){i=t;s();e()},i)};this.resume=s;this.resume()}function invoketimer(){timer=new RecurringTimer(function(){svg.setCurrentTime(0)},13700.0)}var svg=document.getElementById("kvg-088c5");var pause=document.getElementById("pause-kvg-088c5");var reset=document.getElementById("reset-kvg-088c5");var timer;invoketimer();reset.onclick=function(){svg.setCurrentTime(0);timer.clear();svg.unpauseAnimations();pause.innerHTML = "◼";};pause.onclick=function(){if(svg.animationsPaused()){svg.unpauseAnimations();timer.resume();pause.innerHTML="◼"}else{svg.pauseAnimations();timer.pause();pause.innerHTML="▶"}}]]></script></svg>