<svg id="kvg-0891e" class="kanjivg" width="106" height="126" xmlns="http://www.w3.org/2000/svg" xmlns:xlink="http://www.w3.org/1999/xlink" xml:space="preserve" version="1.1" baseProfile="full"><defs><style type="text/css"><![CDATA[path.black{fill:none;stroke:black;stroke-width:5;stroke-linecap:round;stroke-linejoin:round;}path.grey{fill:none;stroke:#ddd;stroke-width:5;stroke-linecap:round;stroke-linejoin:round;}path.stroke{fill:none;stroke:black;stroke-width:5;stroke-linecap:round;stroke-linejoin:round;}rect{fill:none;stroke:#555;stroke-width:2;} text{font-size:16px;font-family:Segoe UI Symbol,Cambria Math,DejaVu Sans,Symbola,Quivira,STIX,Code2000;-webkit-touch-callout:none;cursor:pointer;-webkit-user-select:none;-khtml-user-select:none;-moz-user-select:none;-ms-user-select:none;user-select: none;}text:hover{color:#777;}#reset{font-weight:bold;}]]></style><marker id="markerStart" markerWidth="8" markerHeight="8" style="overflow:visible;"><circle cx="0" cy="0" r="1.5" style="stroke:none;fill:red;fill-opacity:0.5;"/></marker><marker id="markerEnd" style="overflow:visible;"><circle cx="0" cy="0" r="0.8" style="stroke:none;fill:blue;fill-opacity:0.5;"><animate attributeName="opacity" from="1" to="0" dur="3s" repeatCount="indefinite" /></circle></marker></defs><rect x="4" y="4" width="100" height="100" /><path d="M20.08,17.25c3.33,2.47,6.9,6.18,9.75,10.5" class="grey" /><path d="M11.2,38.36c0.94,0.39,2.85,0.69,4.46,0.61c4.34-0.22,16.37-3.83,18.69-4.49c2.33-0.66,4.58,0.83,3.26,2.85C29.86,49.15,22.75,59,10.5,70" class="grey" /><path d="M26.5,53.11c0.12,0.29,1.65,1.53,1.77,3.39c0.57,8.93,0.06,36.7,0.06,39.75" class="grey" /><path d="M39.78,48.89c0.17,0.95,0.34,1.21,0,1.9c-1.04,2.09-4.25,7.23-6.33,9.71" class="grey" /><path d="M30.83,61.5c3.16,2.35,6.54,5.88,9.25,10" class="grey" /><path d="M49.71,20.19c0.38,0.46,0.85,1.72,0.95,2.32c0.82,5.05,3.09,14.27,3.93,24.49" class="grey" /><path d="M51.03,21.39c10.44-1.33,26.49-2.58,32.63-3.15c2.47-0.23,3.92,1.64,3.7,3.63c-0.72,6.29-2.95,15.91-4.34,23.54" class="grey" /><path d="M67.25,23.28c0.07,0.36,0.27,1.13,0.15,1.68c-0.71,3.25-3.9,9.04-9.89,15.24" class="grey" /><path d="M66.54,31.58c4.44,0.86,10.91,4.31,12.01,5.99" class="grey" /><path d="M54.71,44.59c7.35,0,18.61-1.74,28.76-1.89" class="grey" /><path d="M48.5,59.22c0.52,0.78,1.19,1.63,1.31,2.3c0.88,5.28,1.08,18.53,1.68,28.01" class="grey" /><path d="M50.61,60.88c9.33-1.09,32.27-3.5,35.65-3.73c2.12-0.14,3.31,1.04,3.09,3.2C89.04,63.41,88,80,87.34,88" class="grey" /><path d="M61.05,60.53c0.22,0.5,0.44,0.92,0.53,1.55c0.75,4.98,0.8,18.07,1.32,27.01" class="grey" /><path d="M74.23,59.41c0.4,0.6,0.72,1.63,0.71,2.41c-0.19,9.44,0.31,16.19,0.15,26.47" class="grey" /><path d="M40.17,90.49c1.52,0.52,4.3,0.6,5.82,0.52c15.78-0.87,17.24-2.46,46.29-2.6c2.53-0.01,4.04,0.25,5.31,0.51" class="grey" /><path d="M20.08,17.25c3.33,2.47,6.9,6.18,9.75,10.5" class="stroke" stroke-dasharray="150"><animate attributeName="stroke-dashoffset" from="150" to="0" dur="1.8s" begin="0.0s" fill="freeze" /></path><path d="M11.2,38.36c0.94,0.39,2.85,0.69,4.46,0.61c4.34-0.22,16.37-3.83,18.69-4.49c2.33-0.66,4.58,0.83,3.26,2.85C29.86,49.15,22.75,59,10.5,70" class="stroke" stroke-dasharray="150"><set attributeName="opacity" to="0" dur="0.9s" /><animate attributeName="stroke-dashoffset" from="150" to="0" dur="1.8s" begin="0.9s" fill="freeze" /></path><path d="M26.5,53.11c0.12,0.29,1.65,1.53,1.77,3.39c0.57,8.93,0.06,36.7,0.06,39.75" class="stroke" stroke-dasharray="150"><set attributeName="opacity" to="0" dur="2.6s" /><animate attributeName="stroke-dashoffset" from="150" to="0" dur="1.8s" begin="2.6s" fill="freeze" /></path><path d="M39.78,48.89c0.17,0.95,0.34,1.21,0,1.9c-1.04,2.09-4.25,7.23-6.33,9.71" class="stroke" stroke-dasharray="150"><set attributeName="opacity" to="0" dur="3.7s" /><animate attributeName="stroke-dashoffset" from="150" to="0" dur="1.8s" begin="3.7s" fill="freeze" /></path><path d="M30.83,61.5c3.16,2.35,6.54,5.88,9.25,10" class="stroke" stroke-dasharray="150"><set attributeName="opacity" to="0" dur="4.6000000000000005s" /><animate attributeName="stroke-dashoffset" from="150" to="0" dur="1.8s" begin="4.6000000000000005s" fill="freeze" /></path><path d="M49.71,20.19c0.38,0.46,0.85,1.72,0.95,2.32c0.82,5.05,3.09,14.27,3.93,24.49" class="stroke" stroke-dasharray="150"><set attributeName="opacity" to="0" dur="5.500000000000001s" /><animate attributeName="stroke-dashoffset" from="150" to="0" dur="1.8s" begin="5.500000000000001s" fill="freeze" /></path><path d="M51.03,21.39c10.44-1.33,26.49-2.58,32.63-3.15c2.47-0.23,3.92,1.64,3.7,3.63c-0.72,6.29-2.95,15.91-4.34,23.54" class="stroke" stroke-dasharray="150"><set attributeName="opacity" to="0" dur="6.500000000000001s" /><animate attributeName="stroke-dashoffset" from="150" to="0" dur="1.8s" begin="6.500000000000001s" fill="freeze" /></path><path d="M67.25,23.28c0.07,0.36,0.27,1.13,0.15,1.68c-0.71,3.25-3.9,9.04-9.89,15.24" class="stroke" stroke-dasharray="150"><set attributeName="opacity" to="0" dur="8.0s" /><animate attributeName="stroke-dashoffset" from="150" to="0" dur="1.8s" begin="8.0s" fill="freeze" /></path><path d="M66.54,31.58c4.44,0.86,10.91,4.31,12.01,5.99" class="stroke" stroke-dasharray="150"><set attributeName="opacity" to="0" dur="9.0s" /><animate attributeName="stroke-dashoffset" from="150" to="0" dur="1.8s" begin="9.0s" fill="freeze" /></path><path d="M54.71,44.59c7.35,0,18.61-1.74,28.76-1.89" class="stroke" stroke-dasharray="150"><set attributeName="opacity" to="0" dur="9.9s" /><animate attributeName="stroke-dashoffset" from="150" to="0" dur="1.8s" begin="9.9s" fill="freeze" /></path><path d="M48.5,59.22c0.52,0.78,1.19,1.63,1.31,2.3c0.88,5.28,1.08,18.53,1.68,28.01" class="stroke" stroke-dasharray="150"><set attributeName="opacity" to="0" dur="10.9s" /><animate attributeName="stroke-dashoffset" from="150" to="0" dur="1.8s" begin="10.9s" fill="freeze" /></path><path d="M50.61,60.88c9.33-1.09,32.27-3.5,35.65-3.73c2.12-0.14,3.31,1.04,3.09,3.2C89.04,63.41,88,80,87.34,88" class="stroke" stroke-dasharray="150"><set attributeName="opacity" to="0" dur="11.9s" /><animate attributeName="stroke-dashoffset" from="150" to="0" dur="1.8s" begin="11.9s" fill="freeze" /></path><path d="M61.05,60.53c0.22,0.5,0.44,0.92,0.53,1.55c0.75,4.98,0.8,18.07,1.32,27.01" class="stroke" stroke-dasharray="150"><set attributeName="opacity" to="0" dur="13.4s" /><animate attributeName="stroke-dashoffset" from="150" to="0" dur="1.8s" begin="13.4s" fill="freeze" /></path><path d="M74.23,59.41c0.4,0.6,0.72,1.63,0.71,2.41c-0.19,9.44,0.31,16.19,0.15,26.47" class="stroke" stroke-dasharray="150"><set attributeName="opacity" to="0" dur="14.4s" /><animate attributeName="stroke-dashoffset" from="150" to="0" dur="1.8s" begin="14.4s" fill="freeze" /></path><path d="M40.17,90.49c1.52,0.52,4.3,0.6,5.82,0.52c15.78-0.87,17.24-2.46,46.29-2.6c2.53-0.01,4.04,0.25,5.31,0.51" class="stroke" stroke-dasharray="150"><set attributeName="opacity" to="0" dur="15.4s" /><animate attributeName="stroke-dashoffset" from="150" to="0" dur="1.8s" begin="15.4s" fill="freeze" /></path><text x="90" y="120" id="reset-kvg-0891e">⟳</text><text x="70" y="120" id="pause-kvg-0891e">◼</text><script type="text/javascript"><![CDATA[function RecurringTimer(e,t){var n,r,i=t;this.pause=function(){window.clearTimeout(n);i-=new Date-r};var s=function(){r=new Date;n=window.setTimeout(function(){i=t;s();e()},i)};this.clear=function(){window.clearTimeout(n);i=t;n=window.setTimeout(function(){i=t;s();e()},i)};this.resume=s;this.resume()}function invoketimer(){timer=new RecurringTimer(function(){svg.setCurrentTime(0)},17800.0)}var svg=document.getElementById("kvg-0891e");var pause=document.getElementById("pause-kvg-0891e");var reset=document.getElementById("reset-kvg-0891e");var timer;invoketimer();reset.onclick=function(){svg.setCurrentTime(0);timer.clear();svg.unpauseAnimations();pause.innerHTML = "◼";};pause.onclick=function(){if(svg.animationsPaused()){svg.unpauseAnimations();timer.resume();pause.innerHTML="◼"}else{svg.pauseAnimations();timer.pause();pause.innerHTML="▶"}}]]></script></svg>