<svg id="kvg-08983-Kaisho" class="kanjivg" width="106" height="126" xmlns="http://www.w3.org/2000/svg" xmlns:xlink="http://www.w3.org/1999/xlink" xml:space="preserve" version="1.1" baseProfile="full"><defs><style type="text/css"><![CDATA[path.black{fill:none;stroke:black;stroke-width:5;stroke-linecap:round;stroke-linejoin:round;}path.grey{fill:none;stroke:#ddd;stroke-width:5;stroke-linecap:round;stroke-linejoin:round;}path.stroke{fill:none;stroke:black;stroke-width:5;stroke-linecap:round;stroke-linejoin:round;}rect{fill:none;stroke:#555;stroke-width:2;} text{font-size:16px;font-family:Segoe UI Symbol,Cambria Math,DejaVu Sans,Symbola,Quivira,STIX,Code2000;-webkit-touch-callout:none;cursor:pointer;-webkit-user-select:none;-khtml-user-select:none;-moz-user-select:none;-ms-user-select:none;user-select: none;}text:hover{color:#777;}#reset{font-weight:bold;}]]></style><marker id="markerStart" markerWidth="8" markerHeight="8" style="overflow:visible;"><circle cx="0" cy="0" r="1.5" style="stroke:none;fill:red;fill-opacity:0.5;"/></marker><marker id="markerEnd" style="overflow:visible;"><circle cx="0" cy="0" r="0.8" style="stroke:none;fill:blue;fill-opacity:0.5;"><animate attributeName="opacity" from="1" to="0" dur="3s" repeatCount="indefinite" /></circle></marker></defs><rect x="4" y="4" width="100" height="100" /><path d="M21.64,16.16c1.44,0.45,4.07,0.51,5.52,0.45c12.08-0.57,43.09-3.11,51.29-4.03c2.38-0.27,3.84-0.29,5.04-0.07" class="grey" /><path d="M19.5,24.74c0.5,0.84,1.13,1.53,1.24,2.6C21,30,22.5,35.5,22.75,39.75" class="grey" /><path d="M20.63,26.72c10.3-1.36,58.32-4.46,63.63-4.92c1.94-0.17,2.83,1.66,2.83,2.68c0,2.76-1.59,8.26-2.27,12.33" class="grey" /><path d="M40.05,17.01c0.32,0.25,0.54,1.11,0.58,1.62C41,23,42.02,29.24,42.23,33.98" class="grey" /><path d="M62.9,14.08c0.32,0.25,0.46,1.14,0.46,2.28c-0.01,4.56-0.07,9.64-0.07,15.02" class="grey" /><path d="M42.26,32.92C46,32.75,60.75,32,64.39,31.52" class="grey" /><path d="M30.6,42.9c0.57,1.07,0.85,1.6,1.51,2.85c0.94,1.78,2.51,18.31,3.42,19.92" class="grey" /><path d="M31.45,44c3.22-0.17,41.28-3.44,44.18-3.02c1.16,0.17,2.26,1.49,1.82,3.19c-0.83,3.19-3.01,14.6-4.52,20.32" class="grey" /><path d="M34.03,53.57c6.68,0,13.46-0.94,20.1-1.49c2.25-0.19,4.5-0.37,6.66-0.55" class="grey" /><path d="M35.47,63.7c6.44,0,33.61-2.13,37.63-2.13" class="grey" /><path d="M16.85,77.47c1.51,0.44,4.28,0.56,5.77,0.44c13.03-1.06,50.51-4.33,62.77-4.29c2.51,0.01,4.02,0.21,5.27,0.43" class="grey" /><path d="M53.42,65.28c0.33,0.37,1.04,2.75,1.1,3.48c0.07,0.73-0.04,25.66-0.11,30.24" class="grey" /><path d="M21.64,16.16c1.44,0.45,4.07,0.51,5.52,0.45c12.08-0.57,43.09-3.11,51.29-4.03c2.38-0.27,3.84-0.29,5.04-0.07" class="stroke" stroke-dasharray="150"><animate attributeName="stroke-dashoffset" from="150" to="0" dur="1.8s" begin="0.0s" fill="freeze" /></path><path d="M19.5,24.74c0.5,0.84,1.13,1.53,1.24,2.6C21,30,22.5,35.5,22.75,39.75" class="stroke" stroke-dasharray="150"><set attributeName="opacity" to="0" dur="1.5s" /><animate attributeName="stroke-dashoffset" from="150" to="0" dur="1.8s" begin="1.5s" fill="freeze" /></path><path d="M20.63,26.72c10.3-1.36,58.32-4.46,63.63-4.92c1.94-0.17,2.83,1.66,2.83,2.68c0,2.76-1.59,8.26-2.27,12.33" class="stroke" stroke-dasharray="150"><set attributeName="opacity" to="0" dur="2.4s" /><animate attributeName="stroke-dashoffset" from="150" to="0" dur="1.8s" begin="2.4s" fill="freeze" /></path><path d="M40.05,17.01c0.32,0.25,0.54,1.11,0.58,1.62C41,23,42.02,29.24,42.23,33.98" class="stroke" stroke-dasharray="150"><set attributeName="opacity" to="0" dur="4.1s" /><animate attributeName="stroke-dashoffset" from="150" to="0" dur="1.8s" begin="4.1s" fill="freeze" /></path><path d="M62.9,14.08c0.32,0.25,0.46,1.14,0.46,2.28c-0.01,4.56-0.07,9.64-0.07,15.02" class="stroke" stroke-dasharray="150"><set attributeName="opacity" to="0" dur="5.0s" /><animate attributeName="stroke-dashoffset" from="150" to="0" dur="1.8s" begin="5.0s" fill="freeze" /></path><path d="M42.26,32.92C46,32.75,60.75,32,64.39,31.52" class="stroke" stroke-dasharray="150"><set attributeName="opacity" to="0" dur="5.9s" /><animate attributeName="stroke-dashoffset" from="150" to="0" dur="1.8s" begin="5.9s" fill="freeze" /></path><path d="M30.6,42.9c0.57,1.07,0.85,1.6,1.51,2.85c0.94,1.78,2.51,18.31,3.42,19.92" class="stroke" stroke-dasharray="150"><set attributeName="opacity" to="0" dur="6.9s" /><animate attributeName="stroke-dashoffset" from="150" to="0" dur="1.8s" begin="6.9s" fill="freeze" /></path><path d="M31.45,44c3.22-0.17,41.28-3.44,44.18-3.02c1.16,0.17,2.26,1.49,1.82,3.19c-0.83,3.19-3.01,14.6-4.52,20.32" class="stroke" stroke-dasharray="150"><set attributeName="opacity" to="0" dur="7.9s" /><animate attributeName="stroke-dashoffset" from="150" to="0" dur="1.8s" begin="7.9s" fill="freeze" /></path><path d="M34.03,53.57c6.68,0,13.46-0.94,20.1-1.49c2.25-0.19,4.5-0.37,6.66-0.55" class="stroke" stroke-dasharray="150"><set attributeName="opacity" to="0" dur="9.4s" /><animate attributeName="stroke-dashoffset" from="150" to="0" dur="1.8s" begin="9.4s" fill="freeze" /></path><path d="M35.47,63.7c6.44,0,33.61-2.13,37.63-2.13" class="stroke" stroke-dasharray="150"><set attributeName="opacity" to="0" dur="10.4s" /><animate attributeName="stroke-dashoffset" from="150" to="0" dur="1.8s" begin="10.4s" fill="freeze" /></path><path d="M16.85,77.47c1.51,0.44,4.28,0.56,5.77,0.44c13.03-1.06,50.51-4.33,62.77-4.29c2.51,0.01,4.02,0.21,5.27,0.43" class="stroke" stroke-dasharray="150"><set attributeName="opacity" to="0" dur="11.4s" /><animate attributeName="stroke-dashoffset" from="150" to="0" dur="1.8s" begin="11.4s" fill="freeze" /></path><path d="M53.42,65.28c0.33,0.37,1.04,2.75,1.1,3.48c0.07,0.73-0.04,25.66-0.11,30.24" class="stroke" stroke-dasharray="150"><set attributeName="opacity" to="0" dur="13.1s" /><animate attributeName="stroke-dashoffset" from="150" to="0" dur="1.8s" begin="13.1s" fill="freeze" /></path><text x="90" y="120" id="reset-kvg-08983-Kaisho">⟳</text><text x="70" y="120" id="pause-kvg-08983-Kaisho">◼</text><script type="text/javascript"><![CDATA[function RecurringTimer(e,t){var n,r,i=t;this.pause=function(){window.clearTimeout(n);i-=new Date-r};var s=function(){r=new Date;n=window.setTimeout(function(){i=t;s();e()},i)};this.clear=function(){window.clearTimeout(n);i=t;n=window.setTimeout(function(){i=t;s();e()},i)};this.resume=s;this.resume()}function invoketimer(){timer=new RecurringTimer(function(){svg.setCurrentTime(0)},15100.0)}var svg=document.getElementById("kvg-08983-Kaisho");var pause=document.getElementById("pause-kvg-08983-Kaisho");var reset=document.getElementById("reset-kvg-08983-Kaisho");var timer;invoketimer();reset.onclick=function(){svg.setCurrentTime(0);timer.clear();svg.unpauseAnimations();pause.innerHTML = "◼";};pause.onclick=function(){if(svg.animationsPaused()){svg.unpauseAnimations();timer.resume();pause.innerHTML="◼"}else{svg.pauseAnimations();timer.pause();pause.innerHTML="▶"}}]]></script></svg>