<svg id="kvg-08998" class="kanjivg" width="106" height="126" xmlns="http://www.w3.org/2000/svg" xmlns:xlink="http://www.w3.org/1999/xlink" xml:space="preserve" version="1.1" baseProfile="full"><defs><style type="text/css"><![CDATA[path.black{fill:none;stroke:black;stroke-width:5;stroke-linecap:round;stroke-linejoin:round;}path.grey{fill:none;stroke:#ddd;stroke-width:5;stroke-linecap:round;stroke-linejoin:round;}path.stroke{fill:none;stroke:black;stroke-width:5;stroke-linecap:round;stroke-linejoin:round;}rect{fill:none;stroke:#555;stroke-width:2;} text{font-size:16px;font-family:Segoe UI Symbol,Cambria Math,DejaVu Sans,Symbola,Quivira,STIX,Code2000;-webkit-touch-callout:none;cursor:pointer;-webkit-user-select:none;-khtml-user-select:none;-moz-user-select:none;-ms-user-select:none;user-select: none;}text:hover{color:#777;}#reset{font-weight:bold;}]]></style><marker id="markerStart" markerWidth="8" markerHeight="8" style="overflow:visible;"><circle cx="0" cy="0" r="1.5" style="stroke:none;fill:red;fill-opacity:0.5;"/></marker><marker id="markerEnd" style="overflow:visible;"><circle cx="0" cy="0" r="0.8" style="stroke:none;fill:blue;fill-opacity:0.5;"><animate attributeName="opacity" from="1" to="0" dur="3s" repeatCount="indefinite" /></circle></marker></defs><rect x="4" y="4" width="100" height="100" /><path d="M25.71,14.13c0.58,0.4,1.81,3.03,1.92,3.83c0.12,0.81-0.19,29.27-0.19,41.12" class="grey" /><path d="M27.98,34.14c6.83-0.87,14.41-2.6,15.36-2.6c0.95,0,2.66,0,3.41,0.29" class="grey" /><path d="M12.91,59.85c0.32,0.53,0.66,0.97,0.8,1.64c1.12,5.25,2.97,19.74,3.74,29.17" class="grey" /><path d="M13.85,62.25c9.9-2,22.36-4.44,26.51-4.79c2.4-0.2,3.89,2.73,3.68,4.33c-0.89,6.61-2.99,13.94-4.22,22.33" class="grey" /><path d="M17.27,87.6c6.11-0.47,16.48-2.1,25.85-3.24" class="grey" /><path d="M55.19,16.28c0.48,1.09,1.17,1.91,1.17,3.37c0,1.46-0.16,44.14,0,45.6" class="grey" /><path d="M57.15,17.76c2.69-0.18,23.2-3.55,25.65-3.77c2.04-0.18,3.65,1.02,3.48,2.37c-0.22,1.72-0.95,44.53-0.95,45.62" class="grey" /><path d="M57.1,32.15c3.85,0,22.81-2.96,27.13-2.96" class="grey" /><path d="M57.33,45.14C65.13,44.61,78,43,84.91,42.45" class="grey" /><path d="M58.02,61.58c5.35,0,19.67-2.19,26.59-2.19" class="grey" /><path d="M64.74,64.75c0.07,0.74,0.14,1.9-0.14,2.96C62.95,73.94,53.47,87.62,40.5,96" class="grey" /><path d="M73.86,62.97c0.43,1.1,0.77,2.4,0.8,4.11c0.07,4.48-0.33,10.9-0.33,16.18C74.33,96,75.74,96.74,85,96.62s11.75-1.12,11.75-9.96" class="grey" /><path d="M25.71,14.13c0.58,0.4,1.81,3.03,1.92,3.83c0.12,0.81-0.19,29.27-0.19,41.12" class="stroke" stroke-dasharray="150"><animate attributeName="stroke-dashoffset" from="150" to="0" dur="1.8s" begin="0.0s" fill="freeze" /></path><path d="M27.98,34.14c6.83-0.87,14.41-2.6,15.36-2.6c0.95,0,2.66,0,3.41,0.29" class="stroke" stroke-dasharray="150"><set attributeName="opacity" to="0" dur="1.2s" /><animate attributeName="stroke-dashoffset" from="150" to="0" dur="1.8s" begin="1.2s" fill="freeze" /></path><path d="M12.91,59.85c0.32,0.53,0.66,0.97,0.8,1.64c1.12,5.25,2.97,19.74,3.74,29.17" class="stroke" stroke-dasharray="150"><set attributeName="opacity" to="0" dur="2.1s" /><animate attributeName="stroke-dashoffset" from="150" to="0" dur="1.8s" begin="2.1s" fill="freeze" /></path><path d="M13.85,62.25c9.9-2,22.36-4.44,26.51-4.79c2.4-0.2,3.89,2.73,3.68,4.33c-0.89,6.61-2.99,13.94-4.22,22.33" class="stroke" stroke-dasharray="150"><set attributeName="opacity" to="0" dur="3.1s" /><animate attributeName="stroke-dashoffset" from="150" to="0" dur="1.8s" begin="3.1s" fill="freeze" /></path><path d="M17.27,87.6c6.11-0.47,16.48-2.1,25.85-3.24" class="stroke" stroke-dasharray="150"><set attributeName="opacity" to="0" dur="4.5s" /><animate attributeName="stroke-dashoffset" from="150" to="0" dur="1.8s" begin="4.5s" fill="freeze" /></path><path d="M55.19,16.28c0.48,1.09,1.17,1.91,1.17,3.37c0,1.46-0.16,44.14,0,45.6" class="stroke" stroke-dasharray="150"><set attributeName="opacity" to="0" dur="5.5s" /><animate attributeName="stroke-dashoffset" from="150" to="0" dur="1.8s" begin="5.5s" fill="freeze" /></path><path d="M57.15,17.76c2.69-0.18,23.2-3.55,25.65-3.77c2.04-0.18,3.65,1.02,3.48,2.37c-0.22,1.72-0.95,44.53-0.95,45.62" class="stroke" stroke-dasharray="150"><set attributeName="opacity" to="0" dur="6.7s" /><animate attributeName="stroke-dashoffset" from="150" to="0" dur="1.8s" begin="6.7s" fill="freeze" /></path><path d="M57.1,32.15c3.85,0,22.81-2.96,27.13-2.96" class="stroke" stroke-dasharray="150"><set attributeName="opacity" to="0" dur="8.4s" /><animate attributeName="stroke-dashoffset" from="150" to="0" dur="1.8s" begin="8.4s" fill="freeze" /></path><path d="M57.33,45.14C65.13,44.61,78,43,84.91,42.45" class="stroke" stroke-dasharray="150"><set attributeName="opacity" to="0" dur="9.4s" /><animate attributeName="stroke-dashoffset" from="150" to="0" dur="1.8s" begin="9.4s" fill="freeze" /></path><path d="M58.02,61.58c5.35,0,19.67-2.19,26.59-2.19" class="stroke" stroke-dasharray="150"><set attributeName="opacity" to="0" dur="10.4s" /><animate attributeName="stroke-dashoffset" from="150" to="0" dur="1.8s" begin="10.4s" fill="freeze" /></path><path d="M64.74,64.75c0.07,0.74,0.14,1.9-0.14,2.96C62.95,73.94,53.47,87.62,40.5,96" class="stroke" stroke-dasharray="150"><set attributeName="opacity" to="0" dur="11.4s" /><animate attributeName="stroke-dashoffset" from="150" to="0" dur="1.8s" begin="11.4s" fill="freeze" /></path><path d="M73.86,62.97c0.43,1.1,0.77,2.4,0.8,4.11c0.07,4.48-0.33,10.9-0.33,16.18C74.33,96,75.74,96.74,85,96.62s11.75-1.12,11.75-9.96" class="stroke" stroke-dasharray="150"><set attributeName="opacity" to="0" dur="12.5s" /><animate attributeName="stroke-dashoffset" from="150" to="0" dur="1.8s" begin="12.5s" fill="freeze" /></path><text x="90" y="120" id="reset-kvg-08998">⟳</text><text x="70" y="120" id="pause-kvg-08998">◼</text><script type="text/javascript"><![CDATA[function RecurringTimer(e,t){var n,r,i=t;this.pause=function(){window.clearTimeout(n);i-=new Date-r};var s=function(){r=new Date;n=window.setTimeout(function(){i=t;s();e()},i)};this.clear=function(){window.clearTimeout(n);i=t;n=window.setTimeout(function(){i=t;s();e()},i)};this.resume=s;this.resume()}function invoketimer(){timer=new RecurringTimer(function(){svg.setCurrentTime(0)},15000.0)}var svg=document.getElementById("kvg-08998");var pause=document.getElementById("pause-kvg-08998");var reset=document.getElementById("reset-kvg-08998");var timer;invoketimer();reset.onclick=function(){svg.setCurrentTime(0);timer.clear();svg.unpauseAnimations();pause.innerHTML = "◼";};pause.onclick=function(){if(svg.animationsPaused()){svg.unpauseAnimations();timer.resume();pause.innerHTML="◼"}else{svg.pauseAnimations();timer.pause();pause.innerHTML="▶"}}]]></script></svg>