<svg id="kvg-0899a" class="kanjivg" width="106" height="126" xmlns="http://www.w3.org/2000/svg" xmlns:xlink="http://www.w3.org/1999/xlink" xml:space="preserve" version="1.1" baseProfile="full"><defs><style type="text/css"><![CDATA[path.black{fill:none;stroke:black;stroke-width:5;stroke-linecap:round;stroke-linejoin:round;}path.grey{fill:none;stroke:#ddd;stroke-width:5;stroke-linecap:round;stroke-linejoin:round;}path.stroke{fill:none;stroke:black;stroke-width:5;stroke-linecap:round;stroke-linejoin:round;}rect{fill:none;stroke:#555;stroke-width:2;} text{font-size:16px;font-family:Segoe UI Symbol,Cambria Math,DejaVu Sans,Symbola,Quivira,STIX,Code2000;-webkit-touch-callout:none;cursor:pointer;-webkit-user-select:none;-khtml-user-select:none;-moz-user-select:none;-ms-user-select:none;user-select: none;}text:hover{color:#777;}#reset{font-weight:bold;}]]></style><marker id="markerStart" markerWidth="8" markerHeight="8" style="overflow:visible;"><circle cx="0" cy="0" r="1.5" style="stroke:none;fill:red;fill-opacity:0.5;"/></marker><marker id="markerEnd" style="overflow:visible;"><circle cx="0" cy="0" r="0.8" style="stroke:none;fill:blue;fill-opacity:0.5;"><animate attributeName="opacity" from="1" to="0" dur="3s" repeatCount="indefinite" /></circle></marker></defs><rect x="4" y="4" width="100" height="100" /><path d="M30.5,16.5c3.5,3.23,7.25,8.88,7.75,10.5" class="grey" /><path d="M49.25,13c1.64,2,5.59,7.25,6.25,10.5" class="grey" /><path d="M78.06,10.25c0.44,1.12,0.29,2.02-0.33,3C76,16,71.16,21.75,69,24" class="grey" /><path d="M22.67,33.25c-0.3,5.62-2.05,11.75-4.59,17.25" class="grey" /><path d="M24,35.5c21.75-2.38,44.88-4.88,61.5-5.75c11.76-0.62,4.75,5.25,1.5,8" class="grey" /><path d="M36.28,42.83c0.53,0.75,1.31,2.79,1.31,3.83c0,0.81,0,18.28,0,26.84c0,2.4,0,4.09,0,4.54" class="grey" /><path d="M38.22,44.28c3-0.25,25.64-3.34,28.38-3.61c2.28-0.22,3.89,1.08,3.89,3.01c0,4.02-0.17,18.98-0.26,27.19c-0.03,2.76-0.05,4.75-0.05,5.32" class="grey" /><path d="M38.92,54.45c3.8-0.43,23.46-2.57,31.02-3.11" class="grey" /><path d="M39.16,64.17c6.71-0.67,22.7-2.71,30.42-3.04" class="grey" /><path d="M38.94,74.82c6.94-0.7,22.45-2.22,30.17-2.54" class="grey" /><path d="M46.76,78.4c0.07,0.52,0.23,1.38-0.14,2.08c-2.49,4.65-11.86,12.77-25.49,19.9" class="grey" /><path d="M59.19,76.27c0.61,0.82,1.12,1.79,1.12,3.06c0,4.32-0.07,7.83-0.07,10.67c0,6,1.63,7.96,15.03,7.96c14.97,0,16.39-0.59,16.39-8.54" class="grey" /><path d="M30.5,16.5c3.5,3.23,7.25,8.88,7.75,10.5" class="stroke" stroke-dasharray="150"><animate attributeName="stroke-dashoffset" from="150" to="0" dur="1.8s" begin="0.0s" fill="freeze" /></path><path d="M49.25,13c1.64,2,5.59,7.25,6.25,10.5" class="stroke" stroke-dasharray="150"><set attributeName="opacity" to="0" dur="0.9s" /><animate attributeName="stroke-dashoffset" from="150" to="0" dur="1.8s" begin="0.9s" fill="freeze" /></path><path d="M78.06,10.25c0.44,1.12,0.29,2.02-0.33,3C76,16,71.16,21.75,69,24" class="stroke" stroke-dasharray="150"><set attributeName="opacity" to="0" dur="1.8s" /><animate attributeName="stroke-dashoffset" from="150" to="0" dur="1.8s" begin="1.8s" fill="freeze" /></path><path d="M22.67,33.25c-0.3,5.62-2.05,11.75-4.59,17.25" class="stroke" stroke-dasharray="150"><set attributeName="opacity" to="0" dur="2.7s" /><animate attributeName="stroke-dashoffset" from="150" to="0" dur="1.8s" begin="2.7s" fill="freeze" /></path><path d="M24,35.5c21.75-2.38,44.88-4.88,61.5-5.75c11.76-0.62,4.75,5.25,1.5,8" class="stroke" stroke-dasharray="150"><set attributeName="opacity" to="0" dur="3.6s" /><animate attributeName="stroke-dashoffset" from="150" to="0" dur="1.8s" begin="3.6s" fill="freeze" /></path><path d="M36.28,42.83c0.53,0.75,1.31,2.79,1.31,3.83c0,0.81,0,18.28,0,26.84c0,2.4,0,4.09,0,4.54" class="stroke" stroke-dasharray="150"><set attributeName="opacity" to="0" dur="5.3s" /><animate attributeName="stroke-dashoffset" from="150" to="0" dur="1.8s" begin="5.3s" fill="freeze" /></path><path d="M38.22,44.28c3-0.25,25.64-3.34,28.38-3.61c2.28-0.22,3.89,1.08,3.89,3.01c0,4.02-0.17,18.98-0.26,27.19c-0.03,2.76-0.05,4.75-0.05,5.32" class="stroke" stroke-dasharray="150"><set attributeName="opacity" to="0" dur="6.3s" /><animate attributeName="stroke-dashoffset" from="150" to="0" dur="1.8s" begin="6.3s" fill="freeze" /></path><path d="M38.92,54.45c3.8-0.43,23.46-2.57,31.02-3.11" class="stroke" stroke-dasharray="150"><set attributeName="opacity" to="0" dur="7.8s" /><animate attributeName="stroke-dashoffset" from="150" to="0" dur="1.8s" begin="7.8s" fill="freeze" /></path><path d="M39.16,64.17c6.71-0.67,22.7-2.71,30.42-3.04" class="stroke" stroke-dasharray="150"><set attributeName="opacity" to="0" dur="8.8s" /><animate attributeName="stroke-dashoffset" from="150" to="0" dur="1.8s" begin="8.8s" fill="freeze" /></path><path d="M38.94,74.82c6.94-0.7,22.45-2.22,30.17-2.54" class="stroke" stroke-dasharray="150"><set attributeName="opacity" to="0" dur="9.8s" /><animate attributeName="stroke-dashoffset" from="150" to="0" dur="1.8s" begin="9.8s" fill="freeze" /></path><path d="M46.76,78.4c0.07,0.52,0.23,1.38-0.14,2.08c-2.49,4.65-11.86,12.77-25.49,19.9" class="stroke" stroke-dasharray="150"><set attributeName="opacity" to="0" dur="10.8s" /><animate attributeName="stroke-dashoffset" from="150" to="0" dur="1.8s" begin="10.8s" fill="freeze" /></path><path d="M59.19,76.27c0.61,0.82,1.12,1.79,1.12,3.06c0,4.32-0.07,7.83-0.07,10.67c0,6,1.63,7.96,15.03,7.96c14.97,0,16.39-0.59,16.39-8.54" class="stroke" stroke-dasharray="150"><set attributeName="opacity" to="0" dur="11.8s" /><animate attributeName="stroke-dashoffset" from="150" to="0" dur="1.8s" begin="11.8s" fill="freeze" /></path><text x="90" y="120" id="reset-kvg-0899a">⟳</text><text x="70" y="120" id="pause-kvg-0899a">◼</text><script type="text/javascript"><![CDATA[function RecurringTimer(e,t){var n,r,i=t;this.pause=function(){window.clearTimeout(n);i-=new Date-r};var s=function(){r=new Date;n=window.setTimeout(function(){i=t;s();e()},i)};this.clear=function(){window.clearTimeout(n);i=t;n=window.setTimeout(function(){i=t;s();e()},i)};this.resume=s;this.resume()}function invoketimer(){timer=new RecurringTimer(function(){svg.setCurrentTime(0)},14200.000000000002)}var svg=document.getElementById("kvg-0899a");var pause=document.getElementById("pause-kvg-0899a");var reset=document.getElementById("reset-kvg-0899a");var timer;invoketimer();reset.onclick=function(){svg.setCurrentTime(0);timer.clear();svg.unpauseAnimations();pause.innerHTML = "◼";};pause.onclick=function(){if(svg.animationsPaused()){svg.unpauseAnimations();timer.resume();pause.innerHTML="◼"}else{svg.pauseAnimations();timer.pause();pause.innerHTML="▶"}}]]></script></svg>