<svg id="kvg-089e3-Kaisho" class="kanjivg" width="106" height="126" xmlns="http://www.w3.org/2000/svg" xmlns:xlink="http://www.w3.org/1999/xlink" xml:space="preserve" version="1.1" baseProfile="full"><defs><style type="text/css"><![CDATA[path.black{fill:none;stroke:black;stroke-width:5;stroke-linecap:round;stroke-linejoin:round;}path.grey{fill:none;stroke:#ddd;stroke-width:5;stroke-linecap:round;stroke-linejoin:round;}path.stroke{fill:none;stroke:black;stroke-width:5;stroke-linecap:round;stroke-linejoin:round;}rect{fill:none;stroke:#555;stroke-width:2;} text{font-size:16px;font-family:Segoe UI Symbol,Cambria Math,DejaVu Sans,Symbola,Quivira,STIX,Code2000;-webkit-touch-callout:none;cursor:pointer;-webkit-user-select:none;-khtml-user-select:none;-moz-user-select:none;-ms-user-select:none;user-select: none;}text:hover{color:#777;}#reset{font-weight:bold;}]]></style><marker id="markerStart" markerWidth="8" markerHeight="8" style="overflow:visible;"><circle cx="0" cy="0" r="1.5" style="stroke:none;fill:red;fill-opacity:0.5;"/></marker><marker id="markerEnd" style="overflow:visible;"><circle cx="0" cy="0" r="0.8" style="stroke:none;fill:blue;fill-opacity:0.5;"><animate attributeName="opacity" from="1" to="0" dur="3s" repeatCount="indefinite" /></circle></marker></defs><rect x="4" y="4" width="100" height="100" /><path d="M28.23,11c0.04,0.49,0.09,1.26-0.08,1.96c-1,4.14-6.76,13.22-14.65,18.79" class="grey" /><path d="M28.39,18c2,0,10.61-1.25,14.32-2.25c2.16-0.58,3.29,1.14,2,2.75C40.5,23.75,36.21,29.25,33.05,35" class="grey" /><path d="M17.92,36c0.74,0.76,1.47,2.89,1.48,3.69c0.02,1.95-0.53,24.23-0.67,25.94c-0.92,10.97-3,21.07-9.22,27.88" class="grey" /><path d="M20.57,37.7c2.5-0.21,21.42-3.73,23.28-3.96c3.33-0.42,4.58,2.71,4.16,3.96c-0.4,1.2-0.62,35.05-0.62,51.93c0,12.12-4.39,3.37-6.68,1.62" class="grey" /><path d="M31.92,37.37c0.05,0.24,0.68,1.25,0.73,2.77C32.88,47.42,32.5,64.52,32.5,67" class="grey" /><path d="M19.57,52.85c5.71-0.74,11.43-1.43,17.15-2.1c0.55-0.06,1.09-0.13,1.65-0.19" class="grey" /><path d="M19.57,68.75c6.68-0.5,17.43-2.25,27.19-3" class="grey" /><path d="M59.14,18.67c1.15,0.31,2.61,0.27,3.62,0.17c8.22-0.86,22.07-2.81,26.63-3.13c2.97-0.21,3.78,2.12,3.62,3.56c-0.43,3.8-4.35,13.18-7.74,18.13C80.75,44,80,39.25,78.36,37.58" class="grey" /><path d="M72.83,19.38c0.04,0.5,0.06,1.29-0.09,2.02C71.22,28.46,66.25,36,59.25,41.4" class="grey" /><path d="M62.85,48.96c0.03,0.39,0.05,1-0.05,1.55c-0.62,3.28-4.2,10.96-9.09,15.36" class="grey" /><path d="M60.52,60.05c0.6,0.25,3.21,0.3,3.81,0.25c7.39-0.67,17.37-2.88,24.16-3.09c1-0.03,3.11,0.12,3.61,0.24" class="grey" /><path d="M56.1,74.46c0.97,0.35,2.76,0.47,3.73,0.35c10.42-1.3,24.92-3.8,33.67-4.13c1.62-0.06,2.6,0.17,3.41,0.34" class="grey" /><path d="M74.42,46.38c0.49,0.29,1.51,2.15,1.61,2.72c0.1,0.57-0.06,45.55-0.16,49.14" class="grey" /><path d="M28.23,11c0.04,0.49,0.09,1.26-0.08,1.96c-1,4.14-6.76,13.22-14.65,18.79" class="stroke" stroke-dasharray="150"><animate attributeName="stroke-dashoffset" from="150" to="0" dur="1.8s" begin="0.0s" fill="freeze" /></path><path d="M28.39,18c2,0,10.61-1.25,14.32-2.25c2.16-0.58,3.29,1.14,2,2.75C40.5,23.75,36.21,29.25,33.05,35" class="stroke" stroke-dasharray="150"><set attributeName="opacity" to="0" dur="1.0s" /><animate attributeName="stroke-dashoffset" from="150" to="0" dur="1.8s" begin="1.0s" fill="freeze" /></path><path d="M17.92,36c0.74,0.76,1.47,2.89,1.48,3.69c0.02,1.95-0.53,24.23-0.67,25.94c-0.92,10.97-3,21.07-9.22,27.88" class="stroke" stroke-dasharray="150"><set attributeName="opacity" to="0" dur="2.0s" /><animate attributeName="stroke-dashoffset" from="150" to="0" dur="1.8s" begin="2.0s" fill="freeze" /></path><path d="M20.57,37.7c2.5-0.21,21.42-3.73,23.28-3.96c3.33-0.42,4.58,2.71,4.16,3.96c-0.4,1.2-0.62,35.05-0.62,51.93c0,12.12-4.39,3.37-6.68,1.62" class="stroke" stroke-dasharray="150"><set attributeName="opacity" to="0" dur="3.4s" /><animate attributeName="stroke-dashoffset" from="150" to="0" dur="1.8s" begin="3.4s" fill="freeze" /></path><path d="M31.92,37.37c0.05,0.24,0.68,1.25,0.73,2.77C32.88,47.42,32.5,64.52,32.5,67" class="stroke" stroke-dasharray="150"><set attributeName="opacity" to="0" dur="5.2s" /><animate attributeName="stroke-dashoffset" from="150" to="0" dur="1.8s" begin="5.2s" fill="freeze" /></path><path d="M19.57,52.85c5.71-0.74,11.43-1.43,17.15-2.1c0.55-0.06,1.09-0.13,1.65-0.19" class="stroke" stroke-dasharray="150"><set attributeName="opacity" to="0" dur="6.2s" /><animate attributeName="stroke-dashoffset" from="150" to="0" dur="1.8s" begin="6.2s" fill="freeze" /></path><path d="M19.57,68.75c6.68-0.5,17.43-2.25,27.19-3" class="stroke" stroke-dasharray="150"><set attributeName="opacity" to="0" dur="7.1000000000000005s" /><animate attributeName="stroke-dashoffset" from="150" to="0" dur="1.8s" begin="7.1000000000000005s" fill="freeze" /></path><path d="M59.14,18.67c1.15,0.31,2.61,0.27,3.62,0.17c8.22-0.86,22.07-2.81,26.63-3.13c2.97-0.21,3.78,2.12,3.62,3.56c-0.43,3.8-4.35,13.18-7.74,18.13C80.75,44,80,39.25,78.36,37.58" class="stroke" stroke-dasharray="150"><set attributeName="opacity" to="0" dur="8.100000000000001s" /><animate attributeName="stroke-dashoffset" from="150" to="0" dur="1.8s" begin="8.100000000000001s" fill="freeze" /></path><path d="M72.83,19.38c0.04,0.5,0.06,1.29-0.09,2.02C71.22,28.46,66.25,36,59.25,41.4" class="stroke" stroke-dasharray="150"><set attributeName="opacity" to="0" dur="9.600000000000001s" /><animate attributeName="stroke-dashoffset" from="150" to="0" dur="1.8s" begin="9.600000000000001s" fill="freeze" /></path><path d="M62.85,48.96c0.03,0.39,0.05,1-0.05,1.55c-0.62,3.28-4.2,10.96-9.09,15.36" class="stroke" stroke-dasharray="150"><set attributeName="opacity" to="0" dur="10.600000000000001s" /><animate attributeName="stroke-dashoffset" from="150" to="0" dur="1.8s" begin="10.600000000000001s" fill="freeze" /></path><path d="M60.52,60.05c0.6,0.25,3.21,0.3,3.81,0.25c7.39-0.67,17.37-2.88,24.16-3.09c1-0.03,3.11,0.12,3.61,0.24" class="stroke" stroke-dasharray="150"><set attributeName="opacity" to="0" dur="11.500000000000002s" /><animate attributeName="stroke-dashoffset" from="150" to="0" dur="1.8s" begin="11.500000000000002s" fill="freeze" /></path><path d="M56.1,74.46c0.97,0.35,2.76,0.47,3.73,0.35c10.42-1.3,24.92-3.8,33.67-4.13c1.62-0.06,2.6,0.17,3.41,0.34" class="stroke" stroke-dasharray="150"><set attributeName="opacity" to="0" dur="12.500000000000002s" /><animate attributeName="stroke-dashoffset" from="150" to="0" dur="1.8s" begin="12.500000000000002s" fill="freeze" /></path><path d="M74.42,46.38c0.49,0.29,1.51,2.15,1.61,2.72c0.1,0.57-0.06,45.55-0.16,49.14" class="stroke" stroke-dasharray="150"><set attributeName="opacity" to="0" dur="13.600000000000001s" /><animate attributeName="stroke-dashoffset" from="150" to="0" dur="1.8s" begin="13.600000000000001s" fill="freeze" /></path><text x="90" y="120" id="reset-kvg-089e3-Kaisho">⟳</text><text x="70" y="120" id="pause-kvg-089e3-Kaisho">◼</text><script type="text/javascript"><![CDATA[function RecurringTimer(e,t){var n,r,i=t;this.pause=function(){window.clearTimeout(n);i-=new Date-r};var s=function(){r=new Date;n=window.setTimeout(function(){i=t;s();e()},i)};this.clear=function(){window.clearTimeout(n);i=t;n=window.setTimeout(function(){i=t;s();e()},i)};this.resume=s;this.resume()}function invoketimer(){timer=new RecurringTimer(function(){svg.setCurrentTime(0)},15900.000000000002)}var svg=document.getElementById("kvg-089e3-Kaisho");var pause=document.getElementById("pause-kvg-089e3-Kaisho");var reset=document.getElementById("reset-kvg-089e3-Kaisho");var timer;invoketimer();reset.onclick=function(){svg.setCurrentTime(0);timer.clear();svg.unpauseAnimations();pause.innerHTML = "◼";};pause.onclick=function(){if(svg.animationsPaused()){svg.unpauseAnimations();timer.resume();pause.innerHTML="◼"}else{svg.pauseAnimations();timer.pause();pause.innerHTML="▶"}}]]></script></svg>