<svg id="kvg-08a2a" class="kanjivg" width="106" height="126" xmlns="http://www.w3.org/2000/svg" xmlns:xlink="http://www.w3.org/1999/xlink" xml:space="preserve" version="1.1" baseProfile="full"><defs><style type="text/css"><![CDATA[path.black{fill:none;stroke:black;stroke-width:5;stroke-linecap:round;stroke-linejoin:round;}path.grey{fill:none;stroke:#ddd;stroke-width:5;stroke-linecap:round;stroke-linejoin:round;}path.stroke{fill:none;stroke:black;stroke-width:5;stroke-linecap:round;stroke-linejoin:round;}rect{fill:none;stroke:#555;stroke-width:2;} text{font-size:16px;font-family:Segoe UI Symbol,Cambria Math,DejaVu Sans,Symbola,Quivira,STIX,Code2000;-webkit-touch-callout:none;cursor:pointer;-webkit-user-select:none;-khtml-user-select:none;-moz-user-select:none;-ms-user-select:none;user-select: none;}text:hover{color:#777;}#reset{font-weight:bold;}]]></style><marker id="markerStart" markerWidth="8" markerHeight="8" style="overflow:visible;"><circle cx="0" cy="0" r="1.5" style="stroke:none;fill:red;fill-opacity:0.5;"/></marker><marker id="markerEnd" style="overflow:visible;"><circle cx="0" cy="0" r="0.8" style="stroke:none;fill:blue;fill-opacity:0.5;"><animate attributeName="opacity" from="1" to="0" dur="3s" repeatCount="indefinite" /></circle></marker></defs><rect x="4" y="4" width="100" height="100" /><path d="M21.12,13.88c3.28,1.74,8.49,7.16,9.31,9.88" class="grey" /><path d="M10.12,33.58c1.95,0.64,4.27,0.5,6.27,0.35c7.52-0.55,15.94-2.26,21.52-3.24c1.71-0.3,3.22-0.35,4.93-0.02" class="grey" /><path d="M16.43,46.31c1.27,0.36,3.4,0.28,4.7,0.04c4.62-0.86,9.21-1.58,13.24-2.29c1.43-0.25,3.21-0.56,4.65-0.31" class="grey" /><path d="M15.8,59.33c1.24,0.38,3.05,0.15,4.32,0.04c3.93-0.33,10.07-1.58,14.13-2.38c1.34-0.26,2.97-0.52,4.33-0.28" class="grey" /><path d="M15.01,73.03c0.78,0.69,1.02,1.72,1.24,2.69c0.8,3.41,1.66,9.11,2.4,14.05c0.21,1.44,0.43,2.79,0.66,3.99" class="grey" /><path d="M16.93,74.4c7.07-1.28,11.89-2.08,17.6-2.97c3.2-0.49,5.1,0.43,4.23,4.13c-0.88,3.72-1.67,7.36-3.17,13.05" class="grey" /><path d="M20.12,91.27c4.43-0.42,8.56-1.02,14.12-1.58c1.12-0.11,2.28-0.23,3.5-0.36" class="grey" /><path d="M70.36,12.5c1.25,1.26,1.73,2.62,1.73,4.41c0,3.84-0.09,9.96-0.09,13.84" class="grey" /><path d="M49.75,33.86c2.75,0.52,4.38,0.54,7.63,0.08c11.99-1.69,24.12-3.27,34.37-3.96c2.19-0.15,4.93-0.16,6.99,0.65" class="grey" /><path d="M70.13,45c7.37,2.75,10.24,3.38,17.26,5.32c3.17,0.88,4.61,2.8,3.5,6.07c-3.24,9.49-9.13,26.23-15.11,35.11c-4.06,6.03-7.9,0.25-9.72-1.75" class="grey" /><path d="M71.03,36c0.08,1.19,0.19,2.65-0.41,4.28C66,52.75,60.25,69.75,44.5,84" class="grey" /><path d="M21.12,13.88c3.28,1.74,8.49,7.16,9.31,9.88" class="stroke" stroke-dasharray="150"><animate attributeName="stroke-dashoffset" from="150" to="0" dur="1.8s" begin="0.0s" fill="freeze" /></path><path d="M10.12,33.58c1.95,0.64,4.27,0.5,6.27,0.35c7.52-0.55,15.94-2.26,21.52-3.24c1.71-0.3,3.22-0.35,4.93-0.02" class="stroke" stroke-dasharray="150"><set attributeName="opacity" to="0" dur="0.9s" /><animate attributeName="stroke-dashoffset" from="150" to="0" dur="1.8s" begin="0.9s" fill="freeze" /></path><path d="M16.43,46.31c1.27,0.36,3.4,0.28,4.7,0.04c4.62-0.86,9.21-1.58,13.24-2.29c1.43-0.25,3.21-0.56,4.65-0.31" class="stroke" stroke-dasharray="150"><set attributeName="opacity" to="0" dur="1.9s" /><animate attributeName="stroke-dashoffset" from="150" to="0" dur="1.8s" begin="1.9s" fill="freeze" /></path><path d="M15.8,59.33c1.24,0.38,3.05,0.15,4.32,0.04c3.93-0.33,10.07-1.58,14.13-2.38c1.34-0.26,2.97-0.52,4.33-0.28" class="stroke" stroke-dasharray="150"><set attributeName="opacity" to="0" dur="2.9s" /><animate attributeName="stroke-dashoffset" from="150" to="0" dur="1.8s" begin="2.9s" fill="freeze" /></path><path d="M15.01,73.03c0.78,0.69,1.02,1.72,1.24,2.69c0.8,3.41,1.66,9.11,2.4,14.05c0.21,1.44,0.43,2.79,0.66,3.99" class="stroke" stroke-dasharray="150"><set attributeName="opacity" to="0" dur="3.9s" /><animate attributeName="stroke-dashoffset" from="150" to="0" dur="1.8s" begin="3.9s" fill="freeze" /></path><path d="M16.93,74.4c7.07-1.28,11.89-2.08,17.6-2.97c3.2-0.49,5.1,0.43,4.23,4.13c-0.88,3.72-1.67,7.36-3.17,13.05" class="stroke" stroke-dasharray="150"><set attributeName="opacity" to="0" dur="4.9s" /><animate attributeName="stroke-dashoffset" from="150" to="0" dur="1.8s" begin="4.9s" fill="freeze" /></path><path d="M20.12,91.27c4.43-0.42,8.56-1.02,14.12-1.58c1.12-0.11,2.28-0.23,3.5-0.36" class="stroke" stroke-dasharray="150"><set attributeName="opacity" to="0" dur="5.9s" /><animate attributeName="stroke-dashoffset" from="150" to="0" dur="1.8s" begin="5.9s" fill="freeze" /></path><path d="M70.36,12.5c1.25,1.26,1.73,2.62,1.73,4.41c0,3.84-0.09,9.96-0.09,13.84" class="stroke" stroke-dasharray="150"><set attributeName="opacity" to="0" dur="6.800000000000001s" /><animate attributeName="stroke-dashoffset" from="150" to="0" dur="1.8s" begin="6.800000000000001s" fill="freeze" /></path><path d="M49.75,33.86c2.75,0.52,4.38,0.54,7.63,0.08c11.99-1.69,24.12-3.27,34.37-3.96c2.19-0.15,4.93-0.16,6.99,0.65" class="stroke" stroke-dasharray="150"><set attributeName="opacity" to="0" dur="7.700000000000001s" /><animate attributeName="stroke-dashoffset" from="150" to="0" dur="1.8s" begin="7.700000000000001s" fill="freeze" /></path><path d="M70.13,45c7.37,2.75,10.24,3.38,17.26,5.32c3.17,0.88,4.61,2.8,3.5,6.07c-3.24,9.49-9.13,26.23-15.11,35.11c-4.06,6.03-7.9,0.25-9.72-1.75" class="stroke" stroke-dasharray="150"><set attributeName="opacity" to="0" dur="8.9s" /><animate attributeName="stroke-dashoffset" from="150" to="0" dur="1.8s" begin="8.9s" fill="freeze" /></path><path d="M71.03,36c0.08,1.19,0.19,2.65-0.41,4.28C66,52.75,60.25,69.75,44.5,84" class="stroke" stroke-dasharray="150"><set attributeName="opacity" to="0" dur="10.6s" /><animate attributeName="stroke-dashoffset" from="150" to="0" dur="1.8s" begin="10.6s" fill="freeze" /></path><text x="90" y="120" id="reset-kvg-08a2a">⟳</text><text x="70" y="120" id="pause-kvg-08a2a">◼</text><script type="text/javascript"><![CDATA[function RecurringTimer(e,t){var n,r,i=t;this.pause=function(){window.clearTimeout(n);i-=new Date-r};var s=function(){r=new Date;n=window.setTimeout(function(){i=t;s();e()},i)};this.clear=function(){window.clearTimeout(n);i=t;n=window.setTimeout(function(){i=t;s();e()},i)};this.resume=s;this.resume()}function invoketimer(){timer=new RecurringTimer(function(){svg.setCurrentTime(0)},13000.0)}var svg=document.getElementById("kvg-08a2a");var pause=document.getElementById("pause-kvg-08a2a");var reset=document.getElementById("reset-kvg-08a2a");var timer;invoketimer();reset.onclick=function(){svg.setCurrentTime(0);timer.clear();svg.unpauseAnimations();pause.innerHTML = "◼";};pause.onclick=function(){if(svg.animationsPaused()){svg.unpauseAnimations();timer.resume();pause.innerHTML="◼"}else{svg.pauseAnimations();timer.pause();pause.innerHTML="▶"}}]]></script></svg>