<svg id="kvg-08a34" class="kanjivg" width="106" height="126" xmlns="http://www.w3.org/2000/svg" xmlns:xlink="http://www.w3.org/1999/xlink" xml:space="preserve" version="1.1" baseProfile="full"><defs><style type="text/css"><![CDATA[path.black{fill:none;stroke:black;stroke-width:5;stroke-linecap:round;stroke-linejoin:round;}path.grey{fill:none;stroke:#ddd;stroke-width:5;stroke-linecap:round;stroke-linejoin:round;}path.stroke{fill:none;stroke:black;stroke-width:5;stroke-linecap:round;stroke-linejoin:round;}rect{fill:none;stroke:#555;stroke-width:2;} text{font-size:16px;font-family:Segoe UI Symbol,Cambria Math,DejaVu Sans,Symbola,Quivira,STIX,Code2000;-webkit-touch-callout:none;cursor:pointer;-webkit-user-select:none;-khtml-user-select:none;-moz-user-select:none;-ms-user-select:none;user-select: none;}text:hover{color:#777;}#reset{font-weight:bold;}]]></style><marker id="markerStart" markerWidth="8" markerHeight="8" style="overflow:visible;"><circle cx="0" cy="0" r="1.5" style="stroke:none;fill:red;fill-opacity:0.5;"/></marker><marker id="markerEnd" style="overflow:visible;"><circle cx="0" cy="0" r="0.8" style="stroke:none;fill:blue;fill-opacity:0.5;"><animate attributeName="opacity" from="1" to="0" dur="3s" repeatCount="indefinite" /></circle></marker></defs><rect x="4" y="4" width="100" height="100" /><path d="M26.43,14.5c2.65,1.77,6.84,7.25,7.5,10" class="grey" /><path d="M12.62,34.83c1.61,0.53,3.72,0.26,5.39,0.16C25.82,34.55,34.6,33.45,41,32.5c1.43-0.21,3.42-0.36,4.84-0.08" class="grey" /><path d="M19.68,48.31c1.22,0.35,2.81,0.16,4.07,0.1c4.08-0.21,9.22-1.03,13.38-1.65c1.45-0.22,3.19-0.5,4.64-0.25" class="grey" /><path d="M21.3,61.58c1.13,0.35,2.66,0.15,3.84,0.08c3.72-0.21,9.02-1.09,13.12-1.79c1.26-0.21,2.82-0.38,4.07-0.15" class="grey" /><path d="M19.51,74.3c0.84,0.84,1.23,1.85,1.45,2.84c0.73,3.3,1.56,8.49,2.32,13.1c0.25,1.51,0.49,2.96,0.72,4.26" class="grey" /><path d="M21.59,75.44c6.24-0.79,12.32-1.6,18.05-2.39c2.6-0.36,3.83,0.29,3.28,2.99c-0.74,3.6-1.67,7.23-3.14,13.26" class="grey" /><path d="M24.79,91.99c4.02-0.41,8.25-1.01,13.22-1.54c1.21-0.13,2.61-0.17,3.82-0.17" class="grey" /><path d="M79.14,14.5c0.15,1.16-0.19,1.91-1.01,2.75c-4.88,5-10.75,9.75-19.83,14.39" class="grey" /><path d="M54.84,31.79c1.19,1.19,1.35,2.3,1.37,4.29c0.29,33.68-1.76,45.54-8.19,54.7" class="grey" /><path d="M58.78,44.75c1.97,0,3.28-0.23,4.53-0.39c8.36-1.04,18.98-2.78,27.74-4.27c1.91-0.33,4.07-0.79,6-0.31" class="grey" /><path d="M78.75,44.6c1.26,1.26,1.56,2.77,1.56,4.49c0,0.73,0.05,27.71,0.06,41.9c0,4.76,0,8.08-0.01,8.5" class="grey" /><path d="M68.91,59.73c9.71,3.27,21.84,9.9,26.58,15.47" class="grey" /><path d="M26.43,14.5c2.65,1.77,6.84,7.25,7.5,10" class="stroke" stroke-dasharray="150"><animate attributeName="stroke-dashoffset" from="150" to="0" dur="1.8s" begin="0.0s" fill="freeze" /></path><path d="M12.62,34.83c1.61,0.53,3.72,0.26,5.39,0.16C25.82,34.55,34.6,33.45,41,32.5c1.43-0.21,3.42-0.36,4.84-0.08" class="stroke" stroke-dasharray="150"><set attributeName="opacity" to="0" dur="0.9s" /><animate attributeName="stroke-dashoffset" from="150" to="0" dur="1.8s" begin="0.9s" fill="freeze" /></path><path d="M19.68,48.31c1.22,0.35,2.81,0.16,4.07,0.1c4.08-0.21,9.22-1.03,13.38-1.65c1.45-0.22,3.19-0.5,4.64-0.25" class="stroke" stroke-dasharray="150"><set attributeName="opacity" to="0" dur="1.9s" /><animate attributeName="stroke-dashoffset" from="150" to="0" dur="1.8s" begin="1.9s" fill="freeze" /></path><path d="M21.3,61.58c1.13,0.35,2.66,0.15,3.84,0.08c3.72-0.21,9.02-1.09,13.12-1.79c1.26-0.21,2.82-0.38,4.07-0.15" class="stroke" stroke-dasharray="150"><set attributeName="opacity" to="0" dur="2.9s" /><animate attributeName="stroke-dashoffset" from="150" to="0" dur="1.8s" begin="2.9s" fill="freeze" /></path><path d="M19.51,74.3c0.84,0.84,1.23,1.85,1.45,2.84c0.73,3.3,1.56,8.49,2.32,13.1c0.25,1.51,0.49,2.96,0.72,4.26" class="stroke" stroke-dasharray="150"><set attributeName="opacity" to="0" dur="3.9s" /><animate attributeName="stroke-dashoffset" from="150" to="0" dur="1.8s" begin="3.9s" fill="freeze" /></path><path d="M21.59,75.44c6.24-0.79,12.32-1.6,18.05-2.39c2.6-0.36,3.83,0.29,3.28,2.99c-0.74,3.6-1.67,7.23-3.14,13.26" class="stroke" stroke-dasharray="150"><set attributeName="opacity" to="0" dur="4.9s" /><animate attributeName="stroke-dashoffset" from="150" to="0" dur="1.8s" begin="4.9s" fill="freeze" /></path><path d="M24.79,91.99c4.02-0.41,8.25-1.01,13.22-1.54c1.21-0.13,2.61-0.17,3.82-0.17" class="stroke" stroke-dasharray="150"><set attributeName="opacity" to="0" dur="5.9s" /><animate attributeName="stroke-dashoffset" from="150" to="0" dur="1.8s" begin="5.9s" fill="freeze" /></path><path d="M79.14,14.5c0.15,1.16-0.19,1.91-1.01,2.75c-4.88,5-10.75,9.75-19.83,14.39" class="stroke" stroke-dasharray="150"><set attributeName="opacity" to="0" dur="6.800000000000001s" /><animate attributeName="stroke-dashoffset" from="150" to="0" dur="1.8s" begin="6.800000000000001s" fill="freeze" /></path><path d="M54.84,31.79c1.19,1.19,1.35,2.3,1.37,4.29c0.29,33.68-1.76,45.54-8.19,54.7" class="stroke" stroke-dasharray="150"><set attributeName="opacity" to="0" dur="7.800000000000001s" /><animate attributeName="stroke-dashoffset" from="150" to="0" dur="1.8s" begin="7.800000000000001s" fill="freeze" /></path><path d="M58.78,44.75c1.97,0,3.28-0.23,4.53-0.39c8.36-1.04,18.98-2.78,27.74-4.27c1.91-0.33,4.07-0.79,6-0.31" class="stroke" stroke-dasharray="150"><set attributeName="opacity" to="0" dur="9.3s" /><animate attributeName="stroke-dashoffset" from="150" to="0" dur="1.8s" begin="9.3s" fill="freeze" /></path><path d="M78.75,44.6c1.26,1.26,1.56,2.77,1.56,4.49c0,0.73,0.05,27.71,0.06,41.9c0,4.76,0,8.08-0.01,8.5" class="stroke" stroke-dasharray="150"><set attributeName="opacity" to="0" dur="10.3s" /><animate attributeName="stroke-dashoffset" from="150" to="0" dur="1.8s" begin="10.3s" fill="freeze" /></path><path d="M68.91,59.73c9.71,3.27,21.84,9.9,26.58,15.47" class="stroke" stroke-dasharray="150"><set attributeName="opacity" to="0" dur="11.700000000000001s" /><animate attributeName="stroke-dashoffset" from="150" to="0" dur="1.8s" begin="11.700000000000001s" fill="freeze" /></path><text x="90" y="120" id="reset-kvg-08a34">⟳</text><text x="70" y="120" id="pause-kvg-08a34">◼</text><script type="text/javascript"><![CDATA[function RecurringTimer(e,t){var n,r,i=t;this.pause=function(){window.clearTimeout(n);i-=new Date-r};var s=function(){r=new Date;n=window.setTimeout(function(){i=t;s();e()},i)};this.clear=function(){window.clearTimeout(n);i=t;n=window.setTimeout(function(){i=t;s();e()},i)};this.resume=s;this.resume()}function invoketimer(){timer=new RecurringTimer(function(){svg.setCurrentTime(0)},13700.000000000002)}var svg=document.getElementById("kvg-08a34");var pause=document.getElementById("pause-kvg-08a34");var reset=document.getElementById("reset-kvg-08a34");var timer;invoketimer();reset.onclick=function(){svg.setCurrentTime(0);timer.clear();svg.unpauseAnimations();pause.innerHTML = "◼";};pause.onclick=function(){if(svg.animationsPaused()){svg.unpauseAnimations();timer.resume();pause.innerHTML="◼"}else{svg.pauseAnimations();timer.pause();pause.innerHTML="▶"}}]]></script></svg>