<svg id="kvg-08acb-KaishoVtLst" class="kanjivg" width="106" height="126" xmlns="http://www.w3.org/2000/svg" xmlns:xlink="http://www.w3.org/1999/xlink" xml:space="preserve" version="1.1" baseProfile="full"><defs><style type="text/css"><![CDATA[path.black{fill:none;stroke:black;stroke-width:5;stroke-linecap:round;stroke-linejoin:round;}path.grey{fill:none;stroke:#ddd;stroke-width:5;stroke-linecap:round;stroke-linejoin:round;}path.stroke{fill:none;stroke:black;stroke-width:5;stroke-linecap:round;stroke-linejoin:round;}rect{fill:none;stroke:#555;stroke-width:2;} text{font-size:16px;font-family:Segoe UI Symbol,Cambria Math,DejaVu Sans,Symbola,Quivira,STIX,Code2000;-webkit-touch-callout:none;cursor:pointer;-webkit-user-select:none;-khtml-user-select:none;-moz-user-select:none;-ms-user-select:none;user-select: none;}text:hover{color:#777;}#reset{font-weight:bold;}]]></style><marker id="markerStart" markerWidth="8" markerHeight="8" style="overflow:visible;"><circle cx="0" cy="0" r="1.5" style="stroke:none;fill:red;fill-opacity:0.5;"/></marker><marker id="markerEnd" style="overflow:visible;"><circle cx="0" cy="0" r="0.8" style="stroke:none;fill:blue;fill-opacity:0.5;"><animate attributeName="opacity" from="1" to="0" dur="3s" repeatCount="indefinite" /></circle></marker></defs><rect x="4" y="4" width="100" height="100" /><path d="M25.55,15.25c2.34,1.41,6.04,5.8,6.63,8" class="grey" /><path d="M13.62,33.58c0.71,0.23,3.4,0.27,4.1,0.23c8.73-0.42,16.53-2.06,22.83-3.37c1.16-0.24,2.95,0.11,3.54,0.23" class="grey" /><path d="M19.68,46.56c0.43,0.12,3.04,0.13,3.47,0.12c4.44-0.14,9.36-1.43,13.84-2.05c0.7-0.1,2.18,0.06,2.54,0.12" class="grey" /><path d="M20.3,59.33c0.38,0.12,2.71,0.13,3.1,0.12c3.97-0.13,9.93-2.11,13.83-2.09c0.63,0,2.29,0.06,2.6,0.11" class="grey" /><path d="M19.26,71.49c0.34,0.33,0.73,1.06,0.84,1.5c0.97,3.86,1.63,12.35,2.6,18.02" class="grey" /><path d="M20.51,72.83c6.27-0.82,12.53-2.39,18.31-3.21c1.45-0.2,2.33,0.95,2.12,1.89c-0.86,3.9-1.18,7.5-2.72,13.99" class="grey" /><path d="M23.97,88.6c4.67-0.5,9.29-1.39,15.71-2.16" class="grey" /><path d="M51.66,23.39c0.76,0.35,2.15,0.42,2.92,0.35c5.49-0.51,25.55-3.08,30.29-3.62c1.26-0.14,1.79-0.08,2.46-0.02" class="grey" /><path d="M52.58,33.11c0.76,0.26,2.15,0.31,2.92,0.26c5.49-0.37,22.31-2.72,27.05-3.12c1.26-0.11,2.19-0.06,2.87-0.02" class="grey" /><path d="M45.88,44.74c1.19,0.28,3.36,0.36,4.55,0.28c11.07-0.77,31.01-3.59,40.55-3.82c1.97-0.05,4.85-0.23,6.27,0.44" class="grey" /><path d="M66.51,12.13c0.61,0.24,1.92,1.77,2.04,2.24c0.12,0.47,0.29,20.63,0.35,28.13" class="grey" /><path d="M55.31,52.6c0.54,0.54,1.09,1.97,1.09,2.55c0,5.35,0.52,30.92-0.29,42.46" class="grey" /><path d="M56.67,53.6c2.18-0.14,22.97-3.43,24.59-3.58c2.9-0.27,3.13,3.19,3.13,4.08c0,3.15-0.05,26.48-0.05,37.48c0,9.76-5.45,1.9-6.17,1.22" class="grey" /><path d="M57.48,64.52c4.03,0,8.15-0.76,12.15-1.22c1.33-0.15,2.68-0.31,4-0.45" class="grey" /><path d="M58.03,76.29c3.95,0,7.94-0.58,11.87-0.95c1.24-0.12,2.5-0.24,3.74-0.35" class="grey" /><path d="M25.55,15.25c2.34,1.41,6.04,5.8,6.63,8" class="stroke" stroke-dasharray="150"><animate attributeName="stroke-dashoffset" from="150" to="0" dur="1.8s" begin="0.0s" fill="freeze" /></path><path d="M13.62,33.58c0.71,0.23,3.4,0.27,4.1,0.23c8.73-0.42,16.53-2.06,22.83-3.37c1.16-0.24,2.95,0.11,3.54,0.23" class="stroke" stroke-dasharray="150"><set attributeName="opacity" to="0" dur="0.9s" /><animate attributeName="stroke-dashoffset" from="150" to="0" dur="1.8s" begin="0.9s" fill="freeze" /></path><path d="M19.68,46.56c0.43,0.12,3.04,0.13,3.47,0.12c4.44-0.14,9.36-1.43,13.84-2.05c0.7-0.1,2.18,0.06,2.54,0.12" class="stroke" stroke-dasharray="150"><set attributeName="opacity" to="0" dur="1.9s" /><animate attributeName="stroke-dashoffset" from="150" to="0" dur="1.8s" begin="1.9s" fill="freeze" /></path><path d="M20.3,59.33c0.38,0.12,2.71,0.13,3.1,0.12c3.97-0.13,9.93-2.11,13.83-2.09c0.63,0,2.29,0.06,2.6,0.11" class="stroke" stroke-dasharray="150"><set attributeName="opacity" to="0" dur="2.9s" /><animate attributeName="stroke-dashoffset" from="150" to="0" dur="1.8s" begin="2.9s" fill="freeze" /></path><path d="M19.26,71.49c0.34,0.33,0.73,1.06,0.84,1.5c0.97,3.86,1.63,12.35,2.6,18.02" class="stroke" stroke-dasharray="150"><set attributeName="opacity" to="0" dur="3.8s" /><animate attributeName="stroke-dashoffset" from="150" to="0" dur="1.8s" begin="3.8s" fill="freeze" /></path><path d="M20.51,72.83c6.27-0.82,12.53-2.39,18.31-3.21c1.45-0.2,2.33,0.95,2.12,1.89c-0.86,3.9-1.18,7.5-2.72,13.99" class="stroke" stroke-dasharray="150"><set attributeName="opacity" to="0" dur="4.7s" /><animate attributeName="stroke-dashoffset" from="150" to="0" dur="1.8s" begin="4.7s" fill="freeze" /></path><path d="M23.97,88.6c4.67-0.5,9.29-1.39,15.71-2.16" class="stroke" stroke-dasharray="150"><set attributeName="opacity" to="0" dur="5.7s" /><animate attributeName="stroke-dashoffset" from="150" to="0" dur="1.8s" begin="5.7s" fill="freeze" /></path><path d="M51.66,23.39c0.76,0.35,2.15,0.42,2.92,0.35c5.49-0.51,25.55-3.08,30.29-3.62c1.26-0.14,1.79-0.08,2.46-0.02" class="stroke" stroke-dasharray="150"><set attributeName="opacity" to="0" dur="6.6000000000000005s" /><animate attributeName="stroke-dashoffset" from="150" to="0" dur="1.8s" begin="6.6000000000000005s" fill="freeze" /></path><path d="M52.58,33.11c0.76,0.26,2.15,0.31,2.92,0.26c5.49-0.37,22.31-2.72,27.05-3.12c1.26-0.11,2.19-0.06,2.87-0.02" class="stroke" stroke-dasharray="150"><set attributeName="opacity" to="0" dur="7.6000000000000005s" /><animate attributeName="stroke-dashoffset" from="150" to="0" dur="1.8s" begin="7.6000000000000005s" fill="freeze" /></path><path d="M45.88,44.74c1.19,0.28,3.36,0.36,4.55,0.28c11.07-0.77,31.01-3.59,40.55-3.82c1.97-0.05,4.85-0.23,6.27,0.44" class="stroke" stroke-dasharray="150"><set attributeName="opacity" to="0" dur="8.600000000000001s" /><animate attributeName="stroke-dashoffset" from="150" to="0" dur="1.8s" begin="8.600000000000001s" fill="freeze" /></path><path d="M66.51,12.13c0.61,0.24,1.92,1.77,2.04,2.24c0.12,0.47,0.29,20.63,0.35,28.13" class="stroke" stroke-dasharray="150"><set attributeName="opacity" to="0" dur="9.900000000000002s" /><animate attributeName="stroke-dashoffset" from="150" to="0" dur="1.8s" begin="9.900000000000002s" fill="freeze" /></path><path d="M55.31,52.6c0.54,0.54,1.09,1.97,1.09,2.55c0,5.35,0.52,30.92-0.29,42.46" class="stroke" stroke-dasharray="150"><set attributeName="opacity" to="0" dur="10.900000000000002s" /><animate attributeName="stroke-dashoffset" from="150" to="0" dur="1.8s" begin="10.900000000000002s" fill="freeze" /></path><path d="M56.67,53.6c2.18-0.14,22.97-3.43,24.59-3.58c2.9-0.27,3.13,3.19,3.13,4.08c0,3.15-0.05,26.48-0.05,37.48c0,9.76-5.45,1.9-6.17,1.22" class="stroke" stroke-dasharray="150"><set attributeName="opacity" to="0" dur="12.100000000000001s" /><animate attributeName="stroke-dashoffset" from="150" to="0" dur="1.8s" begin="12.100000000000001s" fill="freeze" /></path><path d="M57.48,64.52c4.03,0,8.15-0.76,12.15-1.22c1.33-0.15,2.68-0.31,4-0.45" class="stroke" stroke-dasharray="150"><set attributeName="opacity" to="0" dur="13.8s" /><animate attributeName="stroke-dashoffset" from="150" to="0" dur="1.8s" begin="13.8s" fill="freeze" /></path><path d="M58.03,76.29c3.95,0,7.94-0.58,11.87-0.95c1.24-0.12,2.5-0.24,3.74-0.35" class="stroke" stroke-dasharray="150"><set attributeName="opacity" to="0" dur="14.700000000000001s" /><animate attributeName="stroke-dashoffset" from="150" to="0" dur="1.8s" begin="14.700000000000001s" fill="freeze" /></path><text x="90" y="120" id="reset-kvg-08acb-KaishoVtLst">⟳</text><text x="70" y="120" id="pause-kvg-08acb-KaishoVtLst">◼</text><script type="text/javascript"><![CDATA[function RecurringTimer(e,t){var n,r,i=t;this.pause=function(){window.clearTimeout(n);i-=new Date-r};var s=function(){r=new Date;n=window.setTimeout(function(){i=t;s();e()},i)};this.clear=function(){window.clearTimeout(n);i=t;n=window.setTimeout(function(){i=t;s();e()},i)};this.resume=s;this.resume()}function invoketimer(){timer=new RecurringTimer(function(){svg.setCurrentTime(0)},16600.0)}var svg=document.getElementById("kvg-08acb-KaishoVtLst");var pause=document.getElementById("pause-kvg-08acb-KaishoVtLst");var reset=document.getElementById("reset-kvg-08acb-KaishoVtLst");var timer;invoketimer();reset.onclick=function(){svg.setCurrentTime(0);timer.clear();svg.unpauseAnimations();pause.innerHTML = "◼";};pause.onclick=function(){if(svg.animationsPaused()){svg.unpauseAnimations();timer.resume();pause.innerHTML="◼"}else{svg.pauseAnimations();timer.pause();pause.innerHTML="▶"}}]]></script></svg>