<svg id="kvg-08aeb-Kaisho" class="kanjivg" width="106" height="126" xmlns="http://www.w3.org/2000/svg" xmlns:xlink="http://www.w3.org/1999/xlink" xml:space="preserve" version="1.1" baseProfile="full"><defs><style type="text/css"><![CDATA[path.black{fill:none;stroke:black;stroke-width:5;stroke-linecap:round;stroke-linejoin:round;}path.grey{fill:none;stroke:#ddd;stroke-width:5;stroke-linecap:round;stroke-linejoin:round;}path.stroke{fill:none;stroke:black;stroke-width:5;stroke-linecap:round;stroke-linejoin:round;}rect{fill:none;stroke:#555;stroke-width:2;} text{font-size:16px;font-family:Segoe UI Symbol,Cambria Math,DejaVu Sans,Symbola,Quivira,STIX,Code2000;-webkit-touch-callout:none;cursor:pointer;-webkit-user-select:none;-khtml-user-select:none;-moz-user-select:none;-ms-user-select:none;user-select: none;}text:hover{color:#777;}#reset{font-weight:bold;}]]></style><marker id="markerStart" markerWidth="8" markerHeight="8" style="overflow:visible;"><circle cx="0" cy="0" r="1.5" style="stroke:none;fill:red;fill-opacity:0.5;"/></marker><marker id="markerEnd" style="overflow:visible;"><circle cx="0" cy="0" r="0.8" style="stroke:none;fill:blue;fill-opacity:0.5;"><animate attributeName="opacity" from="1" to="0" dur="3s" repeatCount="indefinite" /></circle></marker></defs><rect x="4" y="4" width="100" height="100" /><path d="M20.3,14.75c3.31,2.03,8.55,8.34,9.38,11.5" class="grey" /><path d="M9.62,35.08c0.71,0.23,3.4,0.27,4.1,0.23c8.73-0.42,16.98-3.17,23.33-3.37c1.18-0.04,2.95,0.11,3.54,0.23" class="grey" /><path d="M14.18,47.56c0.43,0.12,3.04,0.13,3.47,0.12c4.44-0.14,9.36-1.43,13.84-2.05c0.7-0.1,3.18-0.44,3.54-0.38" class="grey" /><path d="M14.8,60.83c0.38,0.12,2.71,0.13,3.1,0.12c3.97-0.13,9.86-1.45,14.33-2.09c0.63-0.09,3.29-0.44,3.6-0.39" class="grey" /><path d="M13.51,73.4c0.39,0.36,0.83,1.15,0.96,1.63c1.11,4.21,3.02,11.54,4.14,17.71" class="grey" /><path d="M15.09,75.03c6.47-0.79,12.94-2.3,18.91-3.09c1.5-0.2,2.4,0.92,2.19,1.82c-0.89,3.76-1.22,7.71-2.8,13.96" class="grey" /><path d="M18.42,90.05c5.37-0.54,10.18-1.47,17.56-2.31" class="grey" /><path d="M46.43,26.55c1.03,0.67,2.77,1.03,4.55,0.97c8.31-0.3,24.33-2.09,32.16-3.3c1.93-0.3,3.75-0.06,5.47,0.52" class="grey" /><path d="M46.25,38.22c0.27,0.42,0.55,0.77,0.67,1.3c0.94,4.17,2.84,14.48,4.2,22.63" class="grey" /><path d="M47.76,40.08C57,39,85.34,36.23,88.53,35.84c1.98-0.24,3.02,1.39,2.71,3.72c-0.9,6.77-2.42,14.69-3.53,19.28" class="grey" /><path d="M53.36,43.89c2.81,1.8,7.26,7.38,7.96,10.17" class="grey" /><path d="M80.75,41.06c0.02,0.28,0.04,0.72-0.04,1.11c-0.44,2.35-2.98,7.5-6.46,10.65" class="grey" /><path d="M50.9,59.79c8.88-0.94,28.65-3.25,36.95-3.71" class="grey" /><path d="M66.66,12.5c0.88,0.49,1.41,2.2,1.59,3.18c0.18,0.98-0.18,71.19-0.18,77.32c0,10.75-5.2,2.38-6.57,1" class="grey" /><path d="M68.05,58.26c-5.44,11.23-19.58,27.12-30.9,33.48" class="grey" /><path d="M68.37,58.79C73,64.5,87.25,81,92.82,84.88c1.56,1.09,2.62,1.82,4.03,2.18" class="grey" /><path d="M20.3,14.75c3.31,2.03,8.55,8.34,9.38,11.5" class="stroke" stroke-dasharray="150"><animate attributeName="stroke-dashoffset" from="150" to="0" dur="1.8s" begin="0.0s" fill="freeze" /></path><path d="M9.62,35.08c0.71,0.23,3.4,0.27,4.1,0.23c8.73-0.42,16.98-3.17,23.33-3.37c1.18-0.04,2.95,0.11,3.54,0.23" class="stroke" stroke-dasharray="150"><set attributeName="opacity" to="0" dur="0.9s" /><animate attributeName="stroke-dashoffset" from="150" to="0" dur="1.8s" begin="0.9s" fill="freeze" /></path><path d="M14.18,47.56c0.43,0.12,3.04,0.13,3.47,0.12c4.44-0.14,9.36-1.43,13.84-2.05c0.7-0.1,3.18-0.44,3.54-0.38" class="stroke" stroke-dasharray="150"><set attributeName="opacity" to="0" dur="1.9s" /><animate attributeName="stroke-dashoffset" from="150" to="0" dur="1.8s" begin="1.9s" fill="freeze" /></path><path d="M14.8,60.83c0.38,0.12,2.71,0.13,3.1,0.12c3.97-0.13,9.86-1.45,14.33-2.09c0.63-0.09,3.29-0.44,3.6-0.39" class="stroke" stroke-dasharray="150"><set attributeName="opacity" to="0" dur="2.9s" /><animate attributeName="stroke-dashoffset" from="150" to="0" dur="1.8s" begin="2.9s" fill="freeze" /></path><path d="M13.51,73.4c0.39,0.36,0.83,1.15,0.96,1.63c1.11,4.21,3.02,11.54,4.14,17.71" class="stroke" stroke-dasharray="150"><set attributeName="opacity" to="0" dur="3.9s" /><animate attributeName="stroke-dashoffset" from="150" to="0" dur="1.8s" begin="3.9s" fill="freeze" /></path><path d="M15.09,75.03c6.47-0.79,12.94-2.3,18.91-3.09c1.5-0.2,2.4,0.92,2.19,1.82c-0.89,3.76-1.22,7.71-2.8,13.96" class="stroke" stroke-dasharray="150"><set attributeName="opacity" to="0" dur="4.9s" /><animate attributeName="stroke-dashoffset" from="150" to="0" dur="1.8s" begin="4.9s" fill="freeze" /></path><path d="M18.42,90.05c5.37-0.54,10.18-1.47,17.56-2.31" class="stroke" stroke-dasharray="150"><set attributeName="opacity" to="0" dur="5.9s" /><animate attributeName="stroke-dashoffset" from="150" to="0" dur="1.8s" begin="5.9s" fill="freeze" /></path><path d="M46.43,26.55c1.03,0.67,2.77,1.03,4.55,0.97c8.31-0.3,24.33-2.09,32.16-3.3c1.93-0.3,3.75-0.06,5.47,0.52" class="stroke" stroke-dasharray="150"><set attributeName="opacity" to="0" dur="6.800000000000001s" /><animate attributeName="stroke-dashoffset" from="150" to="0" dur="1.8s" begin="6.800000000000001s" fill="freeze" /></path><path d="M46.25,38.22c0.27,0.42,0.55,0.77,0.67,1.3c0.94,4.17,2.84,14.48,4.2,22.63" class="stroke" stroke-dasharray="150"><set attributeName="opacity" to="0" dur="7.9s" /><animate attributeName="stroke-dashoffset" from="150" to="0" dur="1.8s" begin="7.9s" fill="freeze" /></path><path d="M47.76,40.08C57,39,85.34,36.23,88.53,35.84c1.98-0.24,3.02,1.39,2.71,3.72c-0.9,6.77-2.42,14.69-3.53,19.28" class="stroke" stroke-dasharray="150"><set attributeName="opacity" to="0" dur="8.9s" /><animate attributeName="stroke-dashoffset" from="150" to="0" dur="1.8s" begin="8.9s" fill="freeze" /></path><path d="M53.36,43.89c2.81,1.8,7.26,7.38,7.96,10.17" class="stroke" stroke-dasharray="150"><set attributeName="opacity" to="0" dur="10.4s" /><animate attributeName="stroke-dashoffset" from="150" to="0" dur="1.8s" begin="10.4s" fill="freeze" /></path><path d="M80.75,41.06c0.02,0.28,0.04,0.72-0.04,1.11c-0.44,2.35-2.98,7.5-6.46,10.65" class="stroke" stroke-dasharray="150"><set attributeName="opacity" to="0" dur="11.3s" /><animate attributeName="stroke-dashoffset" from="150" to="0" dur="1.8s" begin="11.3s" fill="freeze" /></path><path d="M50.9,59.79c8.88-0.94,28.65-3.25,36.95-3.71" class="stroke" stroke-dasharray="150"><set attributeName="opacity" to="0" dur="12.200000000000001s" /><animate attributeName="stroke-dashoffset" from="150" to="0" dur="1.8s" begin="12.200000000000001s" fill="freeze" /></path><path d="M66.66,12.5c0.88,0.49,1.41,2.2,1.59,3.18c0.18,0.98-0.18,71.19-0.18,77.32c0,10.75-5.2,2.38-6.57,1" class="stroke" stroke-dasharray="150"><set attributeName="opacity" to="0" dur="13.200000000000001s" /><animate attributeName="stroke-dashoffset" from="150" to="0" dur="1.8s" begin="13.200000000000001s" fill="freeze" /></path><path d="M68.05,58.26c-5.44,11.23-19.58,27.12-30.9,33.48" class="stroke" stroke-dasharray="150"><set attributeName="opacity" to="0" dur="15.000000000000002s" /><animate attributeName="stroke-dashoffset" from="150" to="0" dur="1.8s" begin="15.000000000000002s" fill="freeze" /></path><path d="M68.37,58.79C73,64.5,87.25,81,92.82,84.88c1.56,1.09,2.62,1.82,4.03,2.18" class="stroke" stroke-dasharray="150"><set attributeName="opacity" to="0" dur="16.200000000000003s" /><animate attributeName="stroke-dashoffset" from="150" to="0" dur="1.8s" begin="16.200000000000003s" fill="freeze" /></path><text x="90" y="120" id="reset-kvg-08aeb-Kaisho">⟳</text><text x="70" y="120" id="pause-kvg-08aeb-Kaisho">◼</text><script type="text/javascript"><![CDATA[function RecurringTimer(e,t){var n,r,i=t;this.pause=function(){window.clearTimeout(n);i-=new Date-r};var s=function(){r=new Date;n=window.setTimeout(function(){i=t;s();e()},i)};this.clear=function(){window.clearTimeout(n);i=t;n=window.setTimeout(function(){i=t;s();e()},i)};this.resume=s;this.resume()}function invoketimer(){timer=new RecurringTimer(function(){svg.setCurrentTime(0)},18300.000000000004)}var svg=document.getElementById("kvg-08aeb-Kaisho");var pause=document.getElementById("pause-kvg-08aeb-Kaisho");var reset=document.getElementById("reset-kvg-08aeb-Kaisho");var timer;invoketimer();reset.onclick=function(){svg.setCurrentTime(0);timer.clear();svg.unpauseAnimations();pause.innerHTML = "◼";};pause.onclick=function(){if(svg.animationsPaused()){svg.unpauseAnimations();timer.resume();pause.innerHTML="◼"}else{svg.pauseAnimations();timer.pause();pause.innerHTML="▶"}}]]></script></svg>