<svg id="kvg-08b56-Kaisho" class="kanjivg" width="106" height="126" xmlns="http://www.w3.org/2000/svg" xmlns:xlink="http://www.w3.org/1999/xlink" xml:space="preserve" version="1.1" baseProfile="full"><defs><style type="text/css"><![CDATA[path.black{fill:none;stroke:black;stroke-width:5;stroke-linecap:round;stroke-linejoin:round;}path.grey{fill:none;stroke:#ddd;stroke-width:5;stroke-linecap:round;stroke-linejoin:round;}path.stroke{fill:none;stroke:black;stroke-width:5;stroke-linecap:round;stroke-linejoin:round;}rect{fill:none;stroke:#555;stroke-width:2;} text{font-size:16px;font-family:Segoe UI Symbol,Cambria Math,DejaVu Sans,Symbola,Quivira,STIX,Code2000;-webkit-touch-callout:none;cursor:pointer;-webkit-user-select:none;-khtml-user-select:none;-moz-user-select:none;-ms-user-select:none;user-select: none;}text:hover{color:#777;}#reset{font-weight:bold;}]]></style><marker id="markerStart" markerWidth="8" markerHeight="8" style="overflow:visible;"><circle cx="0" cy="0" r="1.5" style="stroke:none;fill:red;fill-opacity:0.5;"/></marker><marker id="markerEnd" style="overflow:visible;"><circle cx="0" cy="0" r="0.8" style="stroke:none;fill:blue;fill-opacity:0.5;"><animate attributeName="opacity" from="1" to="0" dur="3s" repeatCount="indefinite" /></circle></marker></defs><rect x="4" y="4" width="100" height="100" /><path d="M18.8,17.25c3.66,2.12,9.46,8.71,10.38,12" class="grey" /><path d="M9.12,38.27c0.71,0.19,3.4,0.22,4.1,0.19c8.73-0.34,15.28-2.21,21.83-2.93c1.17-0.13,2.95,0.09,3.54,0.19" class="grey" /><path d="M14.68,50.06c0.43,0.12,3.04,0.13,3.47,0.12c4.44-0.14,9.86-1.93,14.34-2.55c0.7-0.1,2.68,0.06,3.04,0.12" class="grey" /><path d="M14.8,62.83c0.38,0.12,2.71,0.13,3.1,0.12c3.97-0.13,11.11-1.7,14.83-2.09c0.63-0.07,2.29,0.06,2.6,0.11" class="grey" /><path d="M15.51,76.4c0.39,0.36,0.83,1.15,0.96,1.63c1.11,4.21,1.52,15.04,2.64,21.21" class="grey" /><path d="M16.94,78.37c7.2-0.89,10.4-2.1,17.05-3c1.67-0.22,2.68,1.04,2.44,2.06c-0.99,4.25-1.36,9.22-3.12,16.28" class="grey" /><path d="M19.42,96.55c5.37-0.54,9.18-0.97,16.56-1.81" class="grey" /><path d="M42.57,19.54c0.55,0.24,1.56,0.33,2.1,0.24c2.86-0.45,14.23-1.63,18.27-1.85c0.91-0.05,1.46,0.12,1.92,0.24" class="grey" /><path d="M45.7,24.6c0.26,0.31,0.58,1.64,0.52,2.27C46,29,45,31.5,44.19,33.63c-0.78,2.05,0.39,2.36,1.01,2.12C51,33.5,58,32.69,63.88,32.47c0.68-0.02,2.11,0.37,2.64,0.63" class="grey" /><path d="M57.89,10.9c0.25,0.62,0.45,1.81,0.31,3.33C56.71,29.54,52,45.25,41.5,55.25" class="grey" /><path d="M56.15,38.2c0.28,0.5,0.5,1.1,0.52,1.88c0.08,3.47-0.21,9.24-0.21,10.83s-0.2,3.34,1.8,1.84s6-4.75,8.75-7" class="grey" /><path d="M71.07,17.79c0.6,0.24,1.7,0.33,2.29,0.24c3.12-0.45,15.01-1.63,19.41-1.85c1-0.05,1.59,0.12,2.09,0.24" class="grey" /><path d="M73.7,22.85c0.26,0.31,0.69,1.66,0.52,2.27c-0.96,3.38,0.54,1.38-1.52,5.27c-1.03,1.93,0.38,2.35,1.01,2.12c6.05-2.25,14.8-3.06,20.68-3.27c0.68-0.02,2.11,0.37,2.64,0.63" class="grey" /><path d="M85.36,10.65c0.26,0.6,0.49,1.75,0.33,3.22C84.09,28.66,80,43.25,67.75,53.5" class="grey" /><path d="M83.65,35.95c0.31,0.5,0.56,1.1,0.58,1.88c0.08,3.47-0.24,8.99-0.24,11.33s2.58,4.19,7.04,3.89s7.53-0.55,6.97-4.37" class="grey" /><path d="M50.74,63.98c0.26,0.58,1.38,2.05,1.44,2.77c0.57,7.31,1.95,19.89,2.73,30.71" class="grey" /><path d="M52.05,65.67c9.76-1.31,26-2.53,33.29-3.62c2.68-0.4,4.05,1.02,3.91,2.45c-0.5,5.24-1,21-2.97,30.25" class="grey" /><path d="M54.37,78.61c5.52-0.88,11.27-0.96,16.83-1.35c1.9-0.13,3.79-0.26,5.58-0.38" class="grey" /><path d="M55.41,94.04c7.03-0.56,19.34-1.04,30.87-1.79" class="grey" /><path d="M18.8,17.25c3.66,2.12,9.46,8.71,10.38,12" class="stroke" stroke-dasharray="150"><animate attributeName="stroke-dashoffset" from="150" to="0" dur="1.8s" begin="0.0s" fill="freeze" /></path><path d="M9.12,38.27c0.71,0.19,3.4,0.22,4.1,0.19c8.73-0.34,15.28-2.21,21.83-2.93c1.17-0.13,2.95,0.09,3.54,0.19" class="stroke" stroke-dasharray="150"><set attributeName="opacity" to="0" dur="0.9s" /><animate attributeName="stroke-dashoffset" from="150" to="0" dur="1.8s" begin="0.9s" fill="freeze" /></path><path d="M14.68,50.06c0.43,0.12,3.04,0.13,3.47,0.12c4.44-0.14,9.86-1.93,14.34-2.55c0.7-0.1,2.68,0.06,3.04,0.12" class="stroke" stroke-dasharray="150"><set attributeName="opacity" to="0" dur="1.9s" /><animate attributeName="stroke-dashoffset" from="150" to="0" dur="1.8s" begin="1.9s" fill="freeze" /></path><path d="M14.8,62.83c0.38,0.12,2.71,0.13,3.1,0.12c3.97-0.13,11.11-1.7,14.83-2.09c0.63-0.07,2.29,0.06,2.6,0.11" class="stroke" stroke-dasharray="150"><set attributeName="opacity" to="0" dur="2.9s" /><animate attributeName="stroke-dashoffset" from="150" to="0" dur="1.8s" begin="2.9s" fill="freeze" /></path><path d="M15.51,76.4c0.39,0.36,0.83,1.15,0.96,1.63c1.11,4.21,1.52,15.04,2.64,21.21" class="stroke" stroke-dasharray="150"><set attributeName="opacity" to="0" dur="3.9s" /><animate attributeName="stroke-dashoffset" from="150" to="0" dur="1.8s" begin="3.9s" fill="freeze" /></path><path d="M16.94,78.37c7.2-0.89,10.4-2.1,17.05-3c1.67-0.22,2.68,1.04,2.44,2.06c-0.99,4.25-1.36,9.22-3.12,16.28" class="stroke" stroke-dasharray="150"><set attributeName="opacity" to="0" dur="4.9s" /><animate attributeName="stroke-dashoffset" from="150" to="0" dur="1.8s" begin="4.9s" fill="freeze" /></path><path d="M19.42,96.55c5.37-0.54,9.18-0.97,16.56-1.81" class="stroke" stroke-dasharray="150"><set attributeName="opacity" to="0" dur="5.9s" /><animate attributeName="stroke-dashoffset" from="150" to="0" dur="1.8s" begin="5.9s" fill="freeze" /></path><path d="M42.57,19.54c0.55,0.24,1.56,0.33,2.1,0.24c2.86-0.45,14.23-1.63,18.27-1.85c0.91-0.05,1.46,0.12,1.92,0.24" class="stroke" stroke-dasharray="150"><set attributeName="opacity" to="0" dur="6.800000000000001s" /><animate attributeName="stroke-dashoffset" from="150" to="0" dur="1.8s" begin="6.800000000000001s" fill="freeze" /></path><path d="M45.7,24.6c0.26,0.31,0.58,1.64,0.52,2.27C46,29,45,31.5,44.19,33.63c-0.78,2.05,0.39,2.36,1.01,2.12C51,33.5,58,32.69,63.88,32.47c0.68-0.02,2.11,0.37,2.64,0.63" class="stroke" stroke-dasharray="150"><set attributeName="opacity" to="0" dur="7.800000000000001s" /><animate attributeName="stroke-dashoffset" from="150" to="0" dur="1.8s" begin="7.800000000000001s" fill="freeze" /></path><path d="M57.89,10.9c0.25,0.62,0.45,1.81,0.31,3.33C56.71,29.54,52,45.25,41.5,55.25" class="stroke" stroke-dasharray="150"><set attributeName="opacity" to="0" dur="8.8s" /><animate attributeName="stroke-dashoffset" from="150" to="0" dur="1.8s" begin="8.8s" fill="freeze" /></path><path d="M56.15,38.2c0.28,0.5,0.5,1.1,0.52,1.88c0.08,3.47-0.21,9.24-0.21,10.83s-0.2,3.34,1.8,1.84s6-4.75,8.75-7" class="stroke" stroke-dasharray="150"><set attributeName="opacity" to="0" dur="10.0s" /><animate attributeName="stroke-dashoffset" from="150" to="0" dur="1.8s" begin="10.0s" fill="freeze" /></path><path d="M71.07,17.79c0.6,0.24,1.7,0.33,2.29,0.24c3.12-0.45,15.01-1.63,19.41-1.85c1-0.05,1.59,0.12,2.09,0.24" class="stroke" stroke-dasharray="150"><set attributeName="opacity" to="0" dur="11.0s" /><animate attributeName="stroke-dashoffset" from="150" to="0" dur="1.8s" begin="11.0s" fill="freeze" /></path><path d="M73.7,22.85c0.26,0.31,0.69,1.66,0.52,2.27c-0.96,3.38,0.54,1.38-1.52,5.27c-1.03,1.93,0.38,2.35,1.01,2.12c6.05-2.25,14.8-3.06,20.68-3.27c0.68-0.02,2.11,0.37,2.64,0.63" class="stroke" stroke-dasharray="150"><set attributeName="opacity" to="0" dur="12.0s" /><animate attributeName="stroke-dashoffset" from="150" to="0" dur="1.8s" begin="12.0s" fill="freeze" /></path><path d="M85.36,10.65c0.26,0.6,0.49,1.75,0.33,3.22C84.09,28.66,80,43.25,67.75,53.5" class="stroke" stroke-dasharray="150"><set attributeName="opacity" to="0" dur="13.0s" /><animate attributeName="stroke-dashoffset" from="150" to="0" dur="1.8s" begin="13.0s" fill="freeze" /></path><path d="M83.65,35.95c0.31,0.5,0.56,1.1,0.58,1.88c0.08,3.47-0.24,8.99-0.24,11.33s2.58,4.19,7.04,3.89s7.53-0.55,6.97-4.37" class="stroke" stroke-dasharray="150"><set attributeName="opacity" to="0" dur="14.2s" /><animate attributeName="stroke-dashoffset" from="150" to="0" dur="1.8s" begin="14.2s" fill="freeze" /></path><path d="M50.74,63.98c0.26,0.58,1.38,2.05,1.44,2.77c0.57,7.31,1.95,19.89,2.73,30.71" class="stroke" stroke-dasharray="150"><set attributeName="opacity" to="0" dur="15.2s" /><animate attributeName="stroke-dashoffset" from="150" to="0" dur="1.8s" begin="15.2s" fill="freeze" /></path><path d="M52.05,65.67c9.76-1.31,26-2.53,33.29-3.62c2.68-0.4,4.05,1.02,3.91,2.45c-0.5,5.24-1,21-2.97,30.25" class="stroke" stroke-dasharray="150"><set attributeName="opacity" to="0" dur="16.2s" /><animate attributeName="stroke-dashoffset" from="150" to="0" dur="1.8s" begin="16.2s" fill="freeze" /></path><path d="M54.37,78.61c5.52-0.88,11.27-0.96,16.83-1.35c1.9-0.13,3.79-0.26,5.58-0.38" class="stroke" stroke-dasharray="150"><set attributeName="opacity" to="0" dur="17.7s" /><animate attributeName="stroke-dashoffset" from="150" to="0" dur="1.8s" begin="17.7s" fill="freeze" /></path><path d="M55.41,94.04c7.03-0.56,19.34-1.04,30.87-1.79" class="stroke" stroke-dasharray="150"><set attributeName="opacity" to="0" dur="18.7s" /><animate attributeName="stroke-dashoffset" from="150" to="0" dur="1.8s" begin="18.7s" fill="freeze" /></path><text x="90" y="120" id="reset-kvg-08b56-Kaisho">⟳</text><text x="70" y="120" id="pause-kvg-08b56-Kaisho">◼</text><script type="text/javascript"><![CDATA[function RecurringTimer(e,t){var n,r,i=t;this.pause=function(){window.clearTimeout(n);i-=new Date-r};var s=function(){r=new Date;n=window.setTimeout(function(){i=t;s();e()},i)};this.clear=function(){window.clearTimeout(n);i=t;n=window.setTimeout(function(){i=t;s();e()},i)};this.resume=s;this.resume()}function invoketimer(){timer=new RecurringTimer(function(){svg.setCurrentTime(0)},20700.0)}var svg=document.getElementById("kvg-08b56-Kaisho");var pause=document.getElementById("pause-kvg-08b56-Kaisho");var reset=document.getElementById("reset-kvg-08b56-Kaisho");var timer;invoketimer();reset.onclick=function(){svg.setCurrentTime(0);timer.clear();svg.unpauseAnimations();pause.innerHTML = "◼";};pause.onclick=function(){if(svg.animationsPaused()){svg.unpauseAnimations();timer.resume();pause.innerHTML="◼"}else{svg.pauseAnimations();timer.pause();pause.innerHTML="▶"}}]]></script></svg>