<svg id="kvg-08b74" class="kanjivg" width="106" height="126" xmlns="http://www.w3.org/2000/svg" xmlns:xlink="http://www.w3.org/1999/xlink" xml:space="preserve" version="1.1" baseProfile="full"><defs><style type="text/css"><![CDATA[path.black{fill:none;stroke:black;stroke-width:5;stroke-linecap:round;stroke-linejoin:round;}path.grey{fill:none;stroke:#ddd;stroke-width:5;stroke-linecap:round;stroke-linejoin:round;}path.stroke{fill:none;stroke:black;stroke-width:5;stroke-linecap:round;stroke-linejoin:round;}rect{fill:none;stroke:#555;stroke-width:2;} text{font-size:16px;font-family:Segoe UI Symbol,Cambria Math,DejaVu Sans,Symbola,Quivira,STIX,Code2000;-webkit-touch-callout:none;cursor:pointer;-webkit-user-select:none;-khtml-user-select:none;-moz-user-select:none;-ms-user-select:none;user-select: none;}text:hover{color:#777;}#reset{font-weight:bold;}]]></style><marker id="markerStart" markerWidth="8" markerHeight="8" style="overflow:visible;"><circle cx="0" cy="0" r="1.5" style="stroke:none;fill:red;fill-opacity:0.5;"/></marker><marker id="markerEnd" style="overflow:visible;"><circle cx="0" cy="0" r="0.8" style="stroke:none;fill:blue;fill-opacity:0.5;"><animate attributeName="opacity" from="1" to="0" dur="3s" repeatCount="indefinite" /></circle></marker></defs><rect x="4" y="4" width="100" height="100" /><path d="M19.8,14c3.31,1.99,8.55,8.16,9.38,11.25" class="grey" /><path d="M8.62,32.08c0.71,0.23,3.4,0.27,4.1,0.23c8.73-0.42,16.48-2.17,22.83-2.37c1.18-0.04,2.95,0.11,3.54,0.23" class="grey" /><path d="M15.18,44.06c0.43,0.12,3.04,0.13,3.47,0.12c4.44-0.14,9.36-0.93,13.84-1.55c0.7-0.1,2.18,0.06,2.54,0.12" class="grey" /><path d="M14.3,58.83c0.38,0.12,2.71,0.13,3.1,0.12c3.97-0.13,11.36-1.2,14.33-2.09c0.61-0.18,2.29,0.06,2.6,0.11" class="grey" /><path d="M14.51,71.4c0.39,0.36,0.83,1.15,0.96,1.63c1.11,4.21,2.28,13.71,3.14,20.71" class="grey" /><path d="M15.44,72.87c7.2-0.89,10.9-2.1,17.55-3c1.67-0.22,2.68,1.04,2.44,2.06c-0.99,4.25-1.36,8.72-3.12,15.78" class="grey" /><path d="M18.42,89.55c5.37-0.54,8.68-0.47,16.06-1.31" class="grey" /><path d="M62.89,18.56c0.21,0.13,0.63,0.93,0.7,1.24c0.48,2.27,1.06,5.3,1.73,9.59" class="grey" /><path d="M64.08,19.28c6.19-1.08,21.05-2.64,24.95-2.81c1.52-0.07,2.27,0.49,1.86,2.18c-0.51,2.1-1.41,4.65-2.21,6.48" class="grey" /><path d="M65.62,27.8c4.34-0.46,19.38-1.51,25.29-2.33" class="grey" /><path d="M75.49,12c0.68,1,1.22,2.32,1.22,3.18c0,3.82,0.19,11.82,0.19,18.57" class="grey" /><path d="M56.68,34.88c0.84,0.38,2.38,0.44,3.23,0.38c10.04-0.76,29.2-2.49,34.65-2.86c1.4-0.09,2.25,0.18,2.95,0.37" class="grey" /><path d="M65.51,42.24c0.3,0.57,1.04,1.68,1.04,2.82c0,0.56,0.1,34.58-0.01,38" class="grey" /><path d="M67.22,44.24c6.78-0.99,18.55-2.52,21.24-2.99c0.98-0.17,1.58,0.95,1.44,1.58c-0.57,2.6-1.73,7.35-2.96,11.12" class="grey" /><path d="M66.67,55.88c8.08-0.63,18.46-1.13,22.47-1.74" class="grey" /><path d="M66.65,65.99C76,65,88.37,63.63,89.47,63.43c1.11-0.2,1.78,1.13,1.63,1.87c-0.65,3.06-2.39,8.72-3.78,13.17" class="grey" /><path d="M66.66,79.64c6.59-0.39,16.59-0.89,23.47-0.96" class="grey" /><path d="M43.93,18.5c3.68,1.35,9.5,5.54,10.42,7.63" class="grey" /><path d="M41.43,37.25c3.32,1.26,8.59,5.18,9.42,7.13" class="grey" /><path d="M40,59.99c1.63,0.85,3.19,0.78,3.94,0.66c2.81-0.44,8.56-4.49,9.65-4.91c1.08-0.42,2.21,1.06,1.49,2.32s-4.39,8.68-4.94,9.74c-0.54,1.06-0.56,2.33,0.72,3.54c1.63,1.53,2.71,2.83,3.98,3.94c0.95,0.83,0.54,2.32-0.54,3.38c-1.08,1.06-11.46,6.92-12.54,7.34" class="grey" /><path d="M39.18,86.76c2.16-0.36,6.4-0.99,9.71-0.54c7.14,0.98,18.35,4.12,24.81,5.74c10.28,2.58,15.28,2.81,21.76,1.55" class="grey" /><path d="M19.8,14c3.31,1.99,8.55,8.16,9.38,11.25" class="stroke" stroke-dasharray="150"><animate attributeName="stroke-dashoffset" from="150" to="0" dur="1.8s" begin="0.0s" fill="freeze" /></path><path d="M8.62,32.08c0.71,0.23,3.4,0.27,4.1,0.23c8.73-0.42,16.48-2.17,22.83-2.37c1.18-0.04,2.95,0.11,3.54,0.23" class="stroke" stroke-dasharray="150"><set attributeName="opacity" to="0" dur="0.9s" /><animate attributeName="stroke-dashoffset" from="150" to="0" dur="1.8s" begin="0.9s" fill="freeze" /></path><path d="M15.18,44.06c0.43,0.12,3.04,0.13,3.47,0.12c4.44-0.14,9.36-0.93,13.84-1.55c0.7-0.1,2.18,0.06,2.54,0.12" class="stroke" stroke-dasharray="150"><set attributeName="opacity" to="0" dur="1.9s" /><animate attributeName="stroke-dashoffset" from="150" to="0" dur="1.8s" begin="1.9s" fill="freeze" /></path><path d="M14.3,58.83c0.38,0.12,2.71,0.13,3.1,0.12c3.97-0.13,11.36-1.2,14.33-2.09c0.61-0.18,2.29,0.06,2.6,0.11" class="stroke" stroke-dasharray="150"><set attributeName="opacity" to="0" dur="2.8s" /><animate attributeName="stroke-dashoffset" from="150" to="0" dur="1.8s" begin="2.8s" fill="freeze" /></path><path d="M14.51,71.4c0.39,0.36,0.83,1.15,0.96,1.63c1.11,4.21,2.28,13.71,3.14,20.71" class="stroke" stroke-dasharray="150"><set attributeName="opacity" to="0" dur="3.8s" /><animate attributeName="stroke-dashoffset" from="150" to="0" dur="1.8s" begin="3.8s" fill="freeze" /></path><path d="M15.44,72.87c7.2-0.89,10.9-2.1,17.55-3c1.67-0.22,2.68,1.04,2.44,2.06c-0.99,4.25-1.36,8.72-3.12,15.78" class="stroke" stroke-dasharray="150"><set attributeName="opacity" to="0" dur="4.8s" /><animate attributeName="stroke-dashoffset" from="150" to="0" dur="1.8s" begin="4.8s" fill="freeze" /></path><path d="M18.42,89.55c5.37-0.54,8.68-0.47,16.06-1.31" class="stroke" stroke-dasharray="150"><set attributeName="opacity" to="0" dur="5.8s" /><animate attributeName="stroke-dashoffset" from="150" to="0" dur="1.8s" begin="5.8s" fill="freeze" /></path><path d="M62.89,18.56c0.21,0.13,0.63,0.93,0.7,1.24c0.48,2.27,1.06,5.3,1.73,9.59" class="stroke" stroke-dasharray="150"><set attributeName="opacity" to="0" dur="6.7s" /><animate attributeName="stroke-dashoffset" from="150" to="0" dur="1.8s" begin="6.7s" fill="freeze" /></path><path d="M64.08,19.28c6.19-1.08,21.05-2.64,24.95-2.81c1.52-0.07,2.27,0.49,1.86,2.18c-0.51,2.1-1.41,4.65-2.21,6.48" class="stroke" stroke-dasharray="150"><set attributeName="opacity" to="0" dur="7.6000000000000005s" /><animate attributeName="stroke-dashoffset" from="150" to="0" dur="1.8s" begin="7.6000000000000005s" fill="freeze" /></path><path d="M65.62,27.8c4.34-0.46,19.38-1.51,25.29-2.33" class="stroke" stroke-dasharray="150"><set attributeName="opacity" to="0" dur="8.600000000000001s" /><animate attributeName="stroke-dashoffset" from="150" to="0" dur="1.8s" begin="8.600000000000001s" fill="freeze" /></path><path d="M75.49,12c0.68,1,1.22,2.32,1.22,3.18c0,3.82,0.19,11.82,0.19,18.57" class="stroke" stroke-dasharray="150"><set attributeName="opacity" to="0" dur="9.600000000000001s" /><animate attributeName="stroke-dashoffset" from="150" to="0" dur="1.8s" begin="9.600000000000001s" fill="freeze" /></path><path d="M56.68,34.88c0.84,0.38,2.38,0.44,3.23,0.38c10.04-0.76,29.2-2.49,34.65-2.86c1.4-0.09,2.25,0.18,2.95,0.37" class="stroke" stroke-dasharray="150"><set attributeName="opacity" to="0" dur="10.600000000000001s" /><animate attributeName="stroke-dashoffset" from="150" to="0" dur="1.8s" begin="10.600000000000001s" fill="freeze" /></path><path d="M65.51,42.24c0.3,0.57,1.04,1.68,1.04,2.82c0,0.56,0.1,34.58-0.01,38" class="stroke" stroke-dasharray="150"><set attributeName="opacity" to="0" dur="11.700000000000001s" /><animate attributeName="stroke-dashoffset" from="150" to="0" dur="1.8s" begin="11.700000000000001s" fill="freeze" /></path><path d="M67.22,44.24c6.78-0.99,18.55-2.52,21.24-2.99c0.98-0.17,1.58,0.95,1.44,1.58c-0.57,2.6-1.73,7.35-2.96,11.12" class="stroke" stroke-dasharray="150"><set attributeName="opacity" to="0" dur="12.8s" /><animate attributeName="stroke-dashoffset" from="150" to="0" dur="1.8s" begin="12.8s" fill="freeze" /></path><path d="M66.67,55.88c8.08-0.63,18.46-1.13,22.47-1.74" class="stroke" stroke-dasharray="150"><set attributeName="opacity" to="0" dur="13.8s" /><animate attributeName="stroke-dashoffset" from="150" to="0" dur="1.8s" begin="13.8s" fill="freeze" /></path><path d="M66.65,65.99C76,65,88.37,63.63,89.47,63.43c1.11-0.2,1.78,1.13,1.63,1.87c-0.65,3.06-2.39,8.72-3.78,13.17" class="stroke" stroke-dasharray="150"><set attributeName="opacity" to="0" dur="14.8s" /><animate attributeName="stroke-dashoffset" from="150" to="0" dur="1.8s" begin="14.8s" fill="freeze" /></path><path d="M66.66,79.64c6.59-0.39,16.59-0.89,23.47-0.96" class="stroke" stroke-dasharray="150"><set attributeName="opacity" to="0" dur="15.8s" /><animate attributeName="stroke-dashoffset" from="150" to="0" dur="1.8s" begin="15.8s" fill="freeze" /></path><path d="M43.93,18.5c3.68,1.35,9.5,5.54,10.42,7.63" class="stroke" stroke-dasharray="150"><set attributeName="opacity" to="0" dur="16.8s" /><animate attributeName="stroke-dashoffset" from="150" to="0" dur="1.8s" begin="16.8s" fill="freeze" /></path><path d="M41.43,37.25c3.32,1.26,8.59,5.18,9.42,7.13" class="stroke" stroke-dasharray="150"><set attributeName="opacity" to="0" dur="17.7s" /><animate attributeName="stroke-dashoffset" from="150" to="0" dur="1.8s" begin="17.7s" fill="freeze" /></path><path d="M40,59.99c1.63,0.85,3.19,0.78,3.94,0.66c2.81-0.44,8.56-4.49,9.65-4.91c1.08-0.42,2.21,1.06,1.49,2.32s-4.39,8.68-4.94,9.74c-0.54,1.06-0.56,2.33,0.72,3.54c1.63,1.53,2.71,2.83,3.98,3.94c0.95,0.83,0.54,2.32-0.54,3.38c-1.08,1.06-11.46,6.92-12.54,7.34" class="stroke" stroke-dasharray="150"><set attributeName="opacity" to="0" dur="18.599999999999998s" /><animate attributeName="stroke-dashoffset" from="150" to="0" dur="1.8s" begin="18.599999999999998s" fill="freeze" /></path><path d="M39.18,86.76c2.16-0.36,6.4-0.99,9.71-0.54c7.14,0.98,18.35,4.12,24.81,5.74c10.28,2.58,15.28,2.81,21.76,1.55" class="stroke" stroke-dasharray="150"><set attributeName="opacity" to="0" dur="19.999999999999996s" /><animate attributeName="stroke-dashoffset" from="150" to="0" dur="1.8s" begin="19.999999999999996s" fill="freeze" /></path><text x="90" y="120" id="reset-kvg-08b74">⟳</text><text x="70" y="120" id="pause-kvg-08b74">◼</text><script type="text/javascript"><![CDATA[function RecurringTimer(e,t){var n,r,i=t;this.pause=function(){window.clearTimeout(n);i-=new Date-r};var s=function(){r=new Date;n=window.setTimeout(function(){i=t;s();e()},i)};this.clear=function(){window.clearTimeout(n);i=t;n=window.setTimeout(function(){i=t;s();e()},i)};this.resume=s;this.resume()}function invoketimer(){timer=new RecurringTimer(function(){svg.setCurrentTime(0)},22399.999999999996)}var svg=document.getElementById("kvg-08b74");var pause=document.getElementById("pause-kvg-08b74");var reset=document.getElementById("reset-kvg-08b74");var timer;invoketimer();reset.onclick=function(){svg.setCurrentTime(0);timer.clear();svg.unpauseAnimations();pause.innerHTML = "◼";};pause.onclick=function(){if(svg.animationsPaused()){svg.unpauseAnimations();timer.resume();pause.innerHTML="◼"}else{svg.pauseAnimations();timer.pause();pause.innerHTML="▶"}}]]></script></svg>