<svg id="kvg-08cbc-KaishoHzFst" class="kanjivg" width="106" height="126" xmlns="http://www.w3.org/2000/svg" xmlns:xlink="http://www.w3.org/1999/xlink" xml:space="preserve" version="1.1" baseProfile="full"><defs><style type="text/css"><![CDATA[path.black{fill:none;stroke:black;stroke-width:5;stroke-linecap:round;stroke-linejoin:round;}path.grey{fill:none;stroke:#ddd;stroke-width:5;stroke-linecap:round;stroke-linejoin:round;}path.stroke{fill:none;stroke:black;stroke-width:5;stroke-linecap:round;stroke-linejoin:round;}rect{fill:none;stroke:#555;stroke-width:2;} text{font-size:16px;font-family:Segoe UI Symbol,Cambria Math,DejaVu Sans,Symbola,Quivira,STIX,Code2000;-webkit-touch-callout:none;cursor:pointer;-webkit-user-select:none;-khtml-user-select:none;-moz-user-select:none;-ms-user-select:none;user-select: none;}text:hover{color:#777;}#reset{font-weight:bold;}]]></style><marker id="markerStart" markerWidth="8" markerHeight="8" style="overflow:visible;"><circle cx="0" cy="0" r="1.5" style="stroke:none;fill:red;fill-opacity:0.5;"/></marker><marker id="markerEnd" style="overflow:visible;"><circle cx="0" cy="0" r="0.8" style="stroke:none;fill:blue;fill-opacity:0.5;"><animate attributeName="opacity" from="1" to="0" dur="3s" repeatCount="indefinite" /></circle></marker></defs><rect x="4" y="4" width="100" height="100" /><path d="M17.3,22.18c0.36,1.17,0.88,2.04,0.88,3.6c0,1.56-0.39,40.97-0.24,46.11" class="grey" /><path d="M18.28,23.67c2.03-0.19,17.49-3.19,19.34-3.42c1.54-0.19,2.75,1.09,2.62,2.53c-0.17,1.83-0.22,34.97-0.6,46.67" class="grey" /><path d="M18.24,37.62c4.26-0.41,8.5-1.02,12.73-1.62c1.01-0.14,1.96-0.28,2.85-0.4" class="grey" /><path d="M17.91,53.45c3.49-0.43,8.99-1.32,12.48-1.69c0.84-0.09,1.68-0.18,2.54-0.27" class="grey" /><path d="M18.43,69.48c4.03,0,15.88-2.34,21.1-2.34" class="grey" /><path d="M23.62,77.73c0.26,1.18,0.52,1.5,0,2.36c-1.57,2.59-7.3,10.59-10.45,13.66" class="grey" /><path d="M35.51,75.2c3.69,4.36,8.06,12.27,9.07,16.08" class="grey" /><path d="M70.25,41.24c8.82-0.91,18.12-2.73,19.34-2.73c1.23,0,3.43,0,4.41,0.3" class="grey" /><path d="M67.81,14.63c0.76,0.45,2.36,3.35,2.51,4.25c0.15,0.9-0.25,34.12-0.25,47.25" class="grey" /><path d="M53.91,67.55c0.41,0.46,0.82,0.84,1,1.41c1.41,4.54,3.09,17.05,4.05,25.2" class="grey" /><path d="M54.71,68.19c10.79-1.69,29.64-3.07,34.75-3.71c1.87-0.23,2.99,2.36,2.73,3.75c-1.11,5.71-3.49,14.04-5.02,21.28" class="grey" /><path d="M58.86,91.66C66.5,91.25,79.5,90,89.54,89.72" class="grey" /><path d="M17.3,22.18c0.36,1.17,0.88,2.04,0.88,3.6c0,1.56-0.39,40.97-0.24,46.11" class="stroke" stroke-dasharray="150"><animate attributeName="stroke-dashoffset" from="150" to="0" dur="1.8s" begin="0.0s" fill="freeze" /></path><path d="M18.28,23.67c2.03-0.19,17.49-3.19,19.34-3.42c1.54-0.19,2.75,1.09,2.62,2.53c-0.17,1.83-0.22,34.97-0.6,46.67" class="stroke" stroke-dasharray="150"><set attributeName="opacity" to="0" dur="1.2s" /><animate attributeName="stroke-dashoffset" from="150" to="0" dur="1.8s" begin="1.2s" fill="freeze" /></path><path d="M18.24,37.62c4.26-0.41,8.5-1.02,12.73-1.62c1.01-0.14,1.96-0.28,2.85-0.4" class="stroke" stroke-dasharray="150"><set attributeName="opacity" to="0" dur="2.9s" /><animate attributeName="stroke-dashoffset" from="150" to="0" dur="1.8s" begin="2.9s" fill="freeze" /></path><path d="M17.91,53.45c3.49-0.43,8.99-1.32,12.48-1.69c0.84-0.09,1.68-0.18,2.54-0.27" class="stroke" stroke-dasharray="150"><set attributeName="opacity" to="0" dur="3.8s" /><animate attributeName="stroke-dashoffset" from="150" to="0" dur="1.8s" begin="3.8s" fill="freeze" /></path><path d="M18.43,69.48c4.03,0,15.88-2.34,21.1-2.34" class="stroke" stroke-dasharray="150"><set attributeName="opacity" to="0" dur="4.7s" /><animate attributeName="stroke-dashoffset" from="150" to="0" dur="1.8s" begin="4.7s" fill="freeze" /></path><path d="M23.62,77.73c0.26,1.18,0.52,1.5,0,2.36c-1.57,2.59-7.3,10.59-10.45,13.66" class="stroke" stroke-dasharray="150"><set attributeName="opacity" to="0" dur="5.7s" /><animate attributeName="stroke-dashoffset" from="150" to="0" dur="1.8s" begin="5.7s" fill="freeze" /></path><path d="M35.51,75.2c3.69,4.36,8.06,12.27,9.07,16.08" class="stroke" stroke-dasharray="150"><set attributeName="opacity" to="0" dur="6.6000000000000005s" /><animate attributeName="stroke-dashoffset" from="150" to="0" dur="1.8s" begin="6.6000000000000005s" fill="freeze" /></path><path d="M70.25,41.24c8.82-0.91,18.12-2.73,19.34-2.73c1.23,0,3.43,0,4.41,0.3" class="stroke" stroke-dasharray="150"><set attributeName="opacity" to="0" dur="7.500000000000001s" /><animate attributeName="stroke-dashoffset" from="150" to="0" dur="1.8s" begin="7.500000000000001s" fill="freeze" /></path><path d="M67.81,14.63c0.76,0.45,2.36,3.35,2.51,4.25c0.15,0.9-0.25,34.12-0.25,47.25" class="stroke" stroke-dasharray="150"><set attributeName="opacity" to="0" dur="8.5s" /><animate attributeName="stroke-dashoffset" from="150" to="0" dur="1.8s" begin="8.5s" fill="freeze" /></path><path d="M53.91,67.55c0.41,0.46,0.82,0.84,1,1.41c1.41,4.54,3.09,17.05,4.05,25.2" class="stroke" stroke-dasharray="150"><set attributeName="opacity" to="0" dur="9.8s" /><animate attributeName="stroke-dashoffset" from="150" to="0" dur="1.8s" begin="9.8s" fill="freeze" /></path><path d="M54.71,68.19c10.79-1.69,29.64-3.07,34.75-3.71c1.87-0.23,2.99,2.36,2.73,3.75c-1.11,5.71-3.49,14.04-5.02,21.28" class="stroke" stroke-dasharray="150"><set attributeName="opacity" to="0" dur="10.8s" /><animate attributeName="stroke-dashoffset" from="150" to="0" dur="1.8s" begin="10.8s" fill="freeze" /></path><path d="M58.86,91.66C66.5,91.25,79.5,90,89.54,89.72" class="stroke" stroke-dasharray="150"><set attributeName="opacity" to="0" dur="12.3s" /><animate attributeName="stroke-dashoffset" from="150" to="0" dur="1.8s" begin="12.3s" fill="freeze" /></path><text x="90" y="120" id="reset-kvg-08cbc-KaishoHzFst">⟳</text><text x="70" y="120" id="pause-kvg-08cbc-KaishoHzFst">◼</text><script type="text/javascript"><![CDATA[function RecurringTimer(e,t){var n,r,i=t;this.pause=function(){window.clearTimeout(n);i-=new Date-r};var s=function(){r=new Date;n=window.setTimeout(function(){i=t;s();e()},i)};this.clear=function(){window.clearTimeout(n);i=t;n=window.setTimeout(function(){i=t;s();e()},i)};this.resume=s;this.resume()}function invoketimer(){timer=new RecurringTimer(function(){svg.setCurrentTime(0)},14300.0)}var svg=document.getElementById("kvg-08cbc-KaishoHzFst");var pause=document.getElementById("pause-kvg-08cbc-KaishoHzFst");var reset=document.getElementById("reset-kvg-08cbc-KaishoHzFst");var timer;invoketimer();reset.onclick=function(){svg.setCurrentTime(0);timer.clear();svg.unpauseAnimations();pause.innerHTML = "◼";};pause.onclick=function(){if(svg.animationsPaused()){svg.unpauseAnimations();timer.resume();pause.innerHTML="◼"}else{svg.pauseAnimations();timer.pause();pause.innerHTML="▶"}}]]></script></svg>