<svg id="kvg-08cc0" class="kanjivg" width="106" height="126" xmlns="http://www.w3.org/2000/svg" xmlns:xlink="http://www.w3.org/1999/xlink" xml:space="preserve" version="1.1" baseProfile="full"><defs><style type="text/css"><![CDATA[path.black{fill:none;stroke:black;stroke-width:5;stroke-linecap:round;stroke-linejoin:round;}path.grey{fill:none;stroke:#ddd;stroke-width:5;stroke-linecap:round;stroke-linejoin:round;}path.stroke{fill:none;stroke:black;stroke-width:5;stroke-linecap:round;stroke-linejoin:round;}rect{fill:none;stroke:#555;stroke-width:2;} text{font-size:16px;font-family:Segoe UI Symbol,Cambria Math,DejaVu Sans,Symbola,Quivira,STIX,Code2000;-webkit-touch-callout:none;cursor:pointer;-webkit-user-select:none;-khtml-user-select:none;-moz-user-select:none;-ms-user-select:none;user-select: none;}text:hover{color:#777;}#reset{font-weight:bold;}]]></style><marker id="markerStart" markerWidth="8" markerHeight="8" style="overflow:visible;"><circle cx="0" cy="0" r="1.5" style="stroke:none;fill:red;fill-opacity:0.5;"/></marker><marker id="markerEnd" style="overflow:visible;"><circle cx="0" cy="0" r="0.8" style="stroke:none;fill:blue;fill-opacity:0.5;"><animate attributeName="opacity" from="1" to="0" dur="3s" repeatCount="indefinite" /></circle></marker></defs><rect x="4" y="4" width="100" height="100" /><path d="M16.4,21.14c1.12,0.42,3.14,0.6,4.33,0.49c7.14-0.64,22.07-2.87,27.02-3.41c2.92-0.32,4.14,0.58,3.85,3.54c-0.43,4.44-1.9,11.18-6.18,17.54c-3.01,4.47-5.17,0.7-5.97,0.14" class="grey" /><path d="M34.36,8.93c0.79,0.79,0.88,2.31,0.79,3.09c-1.28,11.11-5.4,25.48-18.03,35.25" class="grey" /><path d="M60.36,16.61c1.14,0.64,1.6,2.06,1.9,3.39c0.76,3.3,1.6,8.15,2.36,14.35c0.15,1.24,0.3,2.53,0.45,3.88" class="grey" /><path d="M62.54,17.64c9.21-1.14,17.33-2.39,22.65-2.84c3.29-0.28,4.56,0.96,3.97,4.04c-0.63,3.3-1.66,6.66-3.26,13.58" class="grey" /><path d="M66.1,35.73c6.59-0.69,11.88-1.28,17.77-1.73c1.4-0.11,2.83-0.2,4.31-0.29" class="grey" /><path d="M35.47,47.53c0.94,0.94,1.29,2.1,1.29,3.88c0,4-0.01,21.4-0.01,30.47c0,1.91,0,3.46,0.01,4.42" class="grey" /><path d="M37.81,48.88c3.55-0.14,29.11-2.81,32.33-3.14c3.61-0.37,5.09,1.01,5.09,4.35c0.01,5.73,0,20.51,0,28.53c0,3.05,0,5.12,0,5.35" class="grey" /><path d="M37.75,60.17c11-1.17,24.75-2.67,36.27-3.07" class="grey" /><path d="M38.04,71.66c11.21-0.91,20.71-2.41,35.31-3.21" class="grey" /><path d="M37.71,83.27c10.67-1.14,24.42-2.27,36.31-2.96" class="grey" /><path d="M45.77,87.44c-0.02,1.18-0.36,2.03-1.31,2.83C40.62,93.5,34.5,97.62,26.5,101" class="grey" /><path d="M67.69,88.93c6.87,3.35,15,9.41,16.87,12.34" class="grey" /><path d="M16.4,21.14c1.12,0.42,3.14,0.6,4.33,0.49c7.14-0.64,22.07-2.87,27.02-3.41c2.92-0.32,4.14,0.58,3.85,3.54c-0.43,4.44-1.9,11.18-6.18,17.54c-3.01,4.47-5.17,0.7-5.97,0.14" class="stroke" stroke-dasharray="150"><animate attributeName="stroke-dashoffset" from="150" to="0" dur="1.8s" begin="0.0s" fill="freeze" /></path><path d="M34.36,8.93c0.79,0.79,0.88,2.31,0.79,3.09c-1.28,11.11-5.4,25.48-18.03,35.25" class="stroke" stroke-dasharray="150"><set attributeName="opacity" to="0" dur="1.5s" /><animate attributeName="stroke-dashoffset" from="150" to="0" dur="1.8s" begin="1.5s" fill="freeze" /></path><path d="M60.36,16.61c1.14,0.64,1.6,2.06,1.9,3.39c0.76,3.3,1.6,8.15,2.36,14.35c0.15,1.24,0.3,2.53,0.45,3.88" class="stroke" stroke-dasharray="150"><set attributeName="opacity" to="0" dur="2.6s" /><animate attributeName="stroke-dashoffset" from="150" to="0" dur="1.8s" begin="2.6s" fill="freeze" /></path><path d="M62.54,17.64c9.21-1.14,17.33-2.39,22.65-2.84c3.29-0.28,4.56,0.96,3.97,4.04c-0.63,3.3-1.66,6.66-3.26,13.58" class="stroke" stroke-dasharray="150"><set attributeName="opacity" to="0" dur="3.6s" /><animate attributeName="stroke-dashoffset" from="150" to="0" dur="1.8s" begin="3.6s" fill="freeze" /></path><path d="M66.1,35.73c6.59-0.69,11.88-1.28,17.77-1.73c1.4-0.11,2.83-0.2,4.31-0.29" class="stroke" stroke-dasharray="150"><set attributeName="opacity" to="0" dur="4.7s" /><animate attributeName="stroke-dashoffset" from="150" to="0" dur="1.8s" begin="4.7s" fill="freeze" /></path><path d="M35.47,47.53c0.94,0.94,1.29,2.1,1.29,3.88c0,4-0.01,21.4-0.01,30.47c0,1.91,0,3.46,0.01,4.42" class="stroke" stroke-dasharray="150"><set attributeName="opacity" to="0" dur="5.7s" /><animate attributeName="stroke-dashoffset" from="150" to="0" dur="1.8s" begin="5.7s" fill="freeze" /></path><path d="M37.81,48.88c3.55-0.14,29.11-2.81,32.33-3.14c3.61-0.37,5.09,1.01,5.09,4.35c0.01,5.73,0,20.51,0,28.53c0,3.05,0,5.12,0,5.35" class="stroke" stroke-dasharray="150"><set attributeName="opacity" to="0" dur="6.7s" /><animate attributeName="stroke-dashoffset" from="150" to="0" dur="1.8s" begin="6.7s" fill="freeze" /></path><path d="M37.75,60.17c11-1.17,24.75-2.67,36.27-3.07" class="stroke" stroke-dasharray="150"><set attributeName="opacity" to="0" dur="8.4s" /><animate attributeName="stroke-dashoffset" from="150" to="0" dur="1.8s" begin="8.4s" fill="freeze" /></path><path d="M38.04,71.66c11.21-0.91,20.71-2.41,35.31-3.21" class="stroke" stroke-dasharray="150"><set attributeName="opacity" to="0" dur="9.4s" /><animate attributeName="stroke-dashoffset" from="150" to="0" dur="1.8s" begin="9.4s" fill="freeze" /></path><path d="M37.71,83.27c10.67-1.14,24.42-2.27,36.31-2.96" class="stroke" stroke-dasharray="150"><set attributeName="opacity" to="0" dur="10.4s" /><animate attributeName="stroke-dashoffset" from="150" to="0" dur="1.8s" begin="10.4s" fill="freeze" /></path><path d="M45.77,87.44c-0.02,1.18-0.36,2.03-1.31,2.83C40.62,93.5,34.5,97.62,26.5,101" class="stroke" stroke-dasharray="150"><set attributeName="opacity" to="0" dur="11.4s" /><animate attributeName="stroke-dashoffset" from="150" to="0" dur="1.8s" begin="11.4s" fill="freeze" /></path><path d="M67.69,88.93c6.87,3.35,15,9.41,16.87,12.34" class="stroke" stroke-dasharray="150"><set attributeName="opacity" to="0" dur="12.4s" /><animate attributeName="stroke-dashoffset" from="150" to="0" dur="1.8s" begin="12.4s" fill="freeze" /></path><text x="90" y="120" id="reset-kvg-08cc0">⟳</text><text x="70" y="120" id="pause-kvg-08cc0">◼</text><script type="text/javascript"><![CDATA[function RecurringTimer(e,t){var n,r,i=t;this.pause=function(){window.clearTimeout(n);i-=new Date-r};var s=function(){r=new Date;n=window.setTimeout(function(){i=t;s();e()},i)};this.clear=function(){window.clearTimeout(n);i=t;n=window.setTimeout(function(){i=t;s();e()},i)};this.resume=s;this.resume()}function invoketimer(){timer=new RecurringTimer(function(){svg.setCurrentTime(0)},14400.0)}var svg=document.getElementById("kvg-08cc0");var pause=document.getElementById("pause-kvg-08cc0");var reset=document.getElementById("reset-kvg-08cc0");var timer;invoketimer();reset.onclick=function(){svg.setCurrentTime(0);timer.clear();svg.unpauseAnimations();pause.innerHTML = "◼";};pause.onclick=function(){if(svg.animationsPaused()){svg.unpauseAnimations();timer.resume();pause.innerHTML="◼"}else{svg.pauseAnimations();timer.pause();pause.innerHTML="▶"}}]]></script></svg>