<svg id="kvg-08ce2-KaishoHzFst" class="kanjivg" width="106" height="126" xmlns="http://www.w3.org/2000/svg" xmlns:xlink="http://www.w3.org/1999/xlink" xml:space="preserve" version="1.1" baseProfile="full"><defs><style type="text/css"><![CDATA[path.black{fill:none;stroke:black;stroke-width:5;stroke-linecap:round;stroke-linejoin:round;}path.grey{fill:none;stroke:#ddd;stroke-width:5;stroke-linecap:round;stroke-linejoin:round;}path.stroke{fill:none;stroke:black;stroke-width:5;stroke-linecap:round;stroke-linejoin:round;}rect{fill:none;stroke:#555;stroke-width:2;} text{font-size:16px;font-family:Segoe UI Symbol,Cambria Math,DejaVu Sans,Symbola,Quivira,STIX,Code2000;-webkit-touch-callout:none;cursor:pointer;-webkit-user-select:none;-khtml-user-select:none;-moz-user-select:none;-ms-user-select:none;user-select: none;}text:hover{color:#777;}#reset{font-weight:bold;}]]></style><marker id="markerStart" markerWidth="8" markerHeight="8" style="overflow:visible;"><circle cx="0" cy="0" r="1.5" style="stroke:none;fill:red;fill-opacity:0.5;"/></marker><marker id="markerEnd" style="overflow:visible;"><circle cx="0" cy="0" r="0.8" style="stroke:none;fill:blue;fill-opacity:0.5;"><animate attributeName="opacity" from="1" to="0" dur="3s" repeatCount="indefinite" /></circle></marker></defs><rect x="4" y="4" width="100" height="100" /><path d="M24.03,16.59c3.18-0.47,17.18-2.35,24.58-3.03c1.12-0.1,1.79-0.19,2.36-0.1" class="grey" /><path d="M23.04,15.58c0.49,0.19,0.79,0.91,0.9,1.33s0.58,31.02,0.53,33.66" class="grey" /><path d="M37.34,16.14c0.49,0.19,0.79,0.91,0.9,1.33c0.1,0.42,0.17,5.7,0.12,8.34" class="grey" /><path d="M24.41,28.22c7.61-1.15,17.13-2.46,22.41-3.25c2.14-0.32,2.75,0.52,2.47,1.67c-0.5,2.09-1.24,5.08-1.74,7.59" class="grey" /><path d="M24.63,37.72c3.18-0.47,21.06-2.65,24.05-2.99" class="grey" /><path d="M37.05,36.36c0.49,0.19,0.79,0.91,0.9,1.33c0.1,0.42,0.21,5.6,0.16,8.24" class="grey" /><path d="M24.63,48.26c3.18-0.47,14.9-2.25,22.3-2.93c1.12-0.1,1.79-0.19,2.36-0.1" class="grey" /><path d="M57.83,17.19c0.95,0.22,1.07,0.54,2.96,0.22c1.89-0.32,17.93-4.14,19.23-4.46c1.3-0.32,2.25,1.18,1.78,2.37c-5.57,13.98-15.4,25.14-26.05,30.41" class="grey" /><path d="M57.27,23.29c3.21,0.57,18.91,15.79,30.1,22.03c1.74,0.97,3.01,1.62,4.63,1.94" class="grey" /><path d="M36.59,51.1c0.54,0.77,1.33,1.35,1.33,2.38s-0.36,31.08-0.36,31.6" class="grey" /><path d="M38.82,52.92c3.06-0.13,25.86-3.28,28.65-3.43c2.32-0.13,3.96,1.01,3.96,3.18c0,3.84-0.58,29.95-0.58,30.72" class="grey" /><path d="M38.27,63.31c6.02-0.53,12.02-1.23,18.03-1.85c1.61-0.17,3.19-0.33,4.68-0.48" class="grey" /><path d="M39.02,73.3c5.11-0.6,11.73-1.14,16.86-1.63c1.38-0.13,2.78-0.27,4.17-0.4" class="grey" /><path d="M38.31,82.74C46.75,82,62.15,80.7,70.01,80.7" class="grey" /><path d="M42.3,86.72c0.39,0.92,0.27,1.67-0.5,2.35C39.47,91.1,32.79,95.6,28.13,98" class="grey" /><path d="M64.71,86.61c5.56,2.91,12.14,8.2,13.66,10.75" class="grey" /><path d="M24.03,16.59c3.18-0.47,17.18-2.35,24.58-3.03c1.12-0.1,1.79-0.19,2.36-0.1" class="stroke" stroke-dasharray="150"><animate attributeName="stroke-dashoffset" from="150" to="0" dur="1.8s" begin="0.0s" fill="freeze" /></path><path d="M23.04,15.58c0.49,0.19,0.79,0.91,0.9,1.33s0.58,31.02,0.53,33.66" class="stroke" stroke-dasharray="150"><set attributeName="opacity" to="0" dur="1.0s" /><animate attributeName="stroke-dashoffset" from="150" to="0" dur="1.8s" begin="1.0s" fill="freeze" /></path><path d="M37.34,16.14c0.49,0.19,0.79,0.91,0.9,1.33c0.1,0.42,0.17,5.7,0.12,8.34" class="stroke" stroke-dasharray="150"><set attributeName="opacity" to="0" dur="2.0s" /><animate attributeName="stroke-dashoffset" from="150" to="0" dur="1.8s" begin="2.0s" fill="freeze" /></path><path d="M24.41,28.22c7.61-1.15,17.13-2.46,22.41-3.25c2.14-0.32,2.75,0.52,2.47,1.67c-0.5,2.09-1.24,5.08-1.74,7.59" class="stroke" stroke-dasharray="150"><set attributeName="opacity" to="0" dur="2.9s" /><animate attributeName="stroke-dashoffset" from="150" to="0" dur="1.8s" begin="2.9s" fill="freeze" /></path><path d="M24.63,37.72c3.18-0.47,21.06-2.65,24.05-2.99" class="stroke" stroke-dasharray="150"><set attributeName="opacity" to="0" dur="3.9s" /><animate attributeName="stroke-dashoffset" from="150" to="0" dur="1.8s" begin="3.9s" fill="freeze" /></path><path d="M37.05,36.36c0.49,0.19,0.79,0.91,0.9,1.33c0.1,0.42,0.21,5.6,0.16,8.24" class="stroke" stroke-dasharray="150"><set attributeName="opacity" to="0" dur="4.9s" /><animate attributeName="stroke-dashoffset" from="150" to="0" dur="1.8s" begin="4.9s" fill="freeze" /></path><path d="M24.63,48.26c3.18-0.47,14.9-2.25,22.3-2.93c1.12-0.1,1.79-0.19,2.36-0.1" class="stroke" stroke-dasharray="150"><set attributeName="opacity" to="0" dur="5.800000000000001s" /><animate attributeName="stroke-dashoffset" from="150" to="0" dur="1.8s" begin="5.800000000000001s" fill="freeze" /></path><path d="M57.83,17.19c0.95,0.22,1.07,0.54,2.96,0.22c1.89-0.32,17.93-4.14,19.23-4.46c1.3-0.32,2.25,1.18,1.78,2.37c-5.57,13.98-15.4,25.14-26.05,30.41" class="stroke" stroke-dasharray="150"><set attributeName="opacity" to="0" dur="6.800000000000001s" /><animate attributeName="stroke-dashoffset" from="150" to="0" dur="1.8s" begin="6.800000000000001s" fill="freeze" /></path><path d="M57.27,23.29c3.21,0.57,18.91,15.79,30.1,22.03c1.74,0.97,3.01,1.62,4.63,1.94" class="stroke" stroke-dasharray="150"><set attributeName="opacity" to="0" dur="8.3s" /><animate attributeName="stroke-dashoffset" from="150" to="0" dur="1.8s" begin="8.3s" fill="freeze" /></path><path d="M36.59,51.1c0.54,0.77,1.33,1.35,1.33,2.38s-0.36,31.08-0.36,31.6" class="stroke" stroke-dasharray="150"><set attributeName="opacity" to="0" dur="9.4s" /><animate attributeName="stroke-dashoffset" from="150" to="0" dur="1.8s" begin="9.4s" fill="freeze" /></path><path d="M38.82,52.92c3.06-0.13,25.86-3.28,28.65-3.43c2.32-0.13,3.96,1.01,3.96,3.18c0,3.84-0.58,29.95-0.58,30.72" class="stroke" stroke-dasharray="150"><set attributeName="opacity" to="0" dur="10.4s" /><animate attributeName="stroke-dashoffset" from="150" to="0" dur="1.8s" begin="10.4s" fill="freeze" /></path><path d="M38.27,63.31c6.02-0.53,12.02-1.23,18.03-1.85c1.61-0.17,3.19-0.33,4.68-0.48" class="stroke" stroke-dasharray="150"><set attributeName="opacity" to="0" dur="11.9s" /><animate attributeName="stroke-dashoffset" from="150" to="0" dur="1.8s" begin="11.9s" fill="freeze" /></path><path d="M39.02,73.3c5.11-0.6,11.73-1.14,16.86-1.63c1.38-0.13,2.78-0.27,4.17-0.4" class="stroke" stroke-dasharray="150"><set attributeName="opacity" to="0" dur="12.9s" /><animate attributeName="stroke-dashoffset" from="150" to="0" dur="1.8s" begin="12.9s" fill="freeze" /></path><path d="M38.31,82.74C46.75,82,62.15,80.7,70.01,80.7" class="stroke" stroke-dasharray="150"><set attributeName="opacity" to="0" dur="13.9s" /><animate attributeName="stroke-dashoffset" from="150" to="0" dur="1.8s" begin="13.9s" fill="freeze" /></path><path d="M42.3,86.72c0.39,0.92,0.27,1.67-0.5,2.35C39.47,91.1,32.79,95.6,28.13,98" class="stroke" stroke-dasharray="150"><set attributeName="opacity" to="0" dur="14.9s" /><animate attributeName="stroke-dashoffset" from="150" to="0" dur="1.8s" begin="14.9s" fill="freeze" /></path><path d="M64.71,86.61c5.56,2.91,12.14,8.2,13.66,10.75" class="stroke" stroke-dasharray="150"><set attributeName="opacity" to="0" dur="15.8s" /><animate attributeName="stroke-dashoffset" from="150" to="0" dur="1.8s" begin="15.8s" fill="freeze" /></path><text x="90" y="120" id="reset-kvg-08ce2-KaishoHzFst">⟳</text><text x="70" y="120" id="pause-kvg-08ce2-KaishoHzFst">◼</text><script type="text/javascript"><![CDATA[function RecurringTimer(e,t){var n,r,i=t;this.pause=function(){window.clearTimeout(n);i-=new Date-r};var s=function(){r=new Date;n=window.setTimeout(function(){i=t;s();e()},i)};this.clear=function(){window.clearTimeout(n);i=t;n=window.setTimeout(function(){i=t;s();e()},i)};this.resume=s;this.resume()}function invoketimer(){timer=new RecurringTimer(function(){svg.setCurrentTime(0)},17700.0)}var svg=document.getElementById("kvg-08ce2-KaishoHzFst");var pause=document.getElementById("pause-kvg-08ce2-KaishoHzFst");var reset=document.getElementById("reset-kvg-08ce2-KaishoHzFst");var timer;invoketimer();reset.onclick=function(){svg.setCurrentTime(0);timer.clear();svg.unpauseAnimations();pause.innerHTML = "◼";};pause.onclick=function(){if(svg.animationsPaused()){svg.unpauseAnimations();timer.resume();pause.innerHTML="◼"}else{svg.pauseAnimations();timer.pause();pause.innerHTML="▶"}}]]></script></svg>