<svg id="kvg-08d99" class="kanjivg" width="106" height="126" xmlns="http://www.w3.org/2000/svg" xmlns:xlink="http://www.w3.org/1999/xlink" xml:space="preserve" version="1.1" baseProfile="full"><defs><style type="text/css"><![CDATA[path.black{fill:none;stroke:black;stroke-width:5;stroke-linecap:round;stroke-linejoin:round;}path.grey{fill:none;stroke:#ddd;stroke-width:5;stroke-linecap:round;stroke-linejoin:round;}path.stroke{fill:none;stroke:black;stroke-width:5;stroke-linecap:round;stroke-linejoin:round;}rect{fill:none;stroke:#555;stroke-width:2;} text{font-size:16px;font-family:Segoe UI Symbol,Cambria Math,DejaVu Sans,Symbola,Quivira,STIX,Code2000;-webkit-touch-callout:none;cursor:pointer;-webkit-user-select:none;-khtml-user-select:none;-moz-user-select:none;-ms-user-select:none;user-select: none;}text:hover{color:#777;}#reset{font-weight:bold;}]]></style><marker id="markerStart" markerWidth="8" markerHeight="8" style="overflow:visible;"><circle cx="0" cy="0" r="1.5" style="stroke:none;fill:red;fill-opacity:0.5;"/></marker><marker id="markerEnd" style="overflow:visible;"><circle cx="0" cy="0" r="0.8" style="stroke:none;fill:blue;fill-opacity:0.5;"><animate attributeName="opacity" from="1" to="0" dur="3s" repeatCount="indefinite" /></circle></marker></defs><rect x="4" y="4" width="100" height="100" /><path d="M17.94,29.65c1.1,0.42,3.11,0.5,4.21,0.42c9.8-0.68,15.69-2.25,24.55-2.86c1.83-0.13,2.93,0.2,3.85,0.41" class="grey" /><path d="M33.62,14.46c0.12,0.27,1.61,1.43,1.73,3.17c0.55,8.36,0.3,26.13,0.3,28.98" class="grey" /><path d="M12.96,48.62c1.07,0.37,3.04,0.51,4.11,0.37c11.63-1.47,24.47-2.74,34.47-3.63c1.77-0.16,2.85,0.18,3.75,0.36" class="grey" /><path d="M34.04,48.8c1.06,0.47,1.7,2.11,1.91,3.04c0.21,0.94,0.13,22.07-0.08,27.92" class="grey" /><path d="M36.57,64.34c5.41-0.47,13.07-2.19,15.4-2.19c1.41,0,2.26,0.17,2.96,0.35" class="grey" /><path d="M24.76,61.8c0.04,0.85,0.09,2.2-0.09,3.43c-1.06,7.22-4.92,25.02-15.42,32.79" class="grey" /><path d="M22.67,75.74C34.41,78.2,68.8,92.47,79.92,94.78c3.42,0.71,7.63,1.35,10.97,1.62" class="grey" /><path d="M74.14,12.25c0.14,0.32,1.97,1.68,1.97,3.73c0,7.01,0.11,18.06,0.11,21.41" class="grey" /><path d="M65.71,19.93c0.05,0.43,0.11,1.12-0.11,1.74c-1.33,3.67-7.78,9.93-15.06,13.97" class="grey" /><path d="M84.16,20.3c5.7,2.93,12.89,10,14.31,14.56" class="grey" /><path d="M60.56,38.45c0.57,0.81,0.95,1.61,1.13,2.42c0.19,0.81,0.27,40.82,0.19,42.63" class="grey" /><path d="M62.83,40.26c2.27-0.2,23.17-2.7,24.86-2.93c3.02-0.4,3.78,2.56,3.78,3.83c0,8.7-0.07,21.23-0.07,37.57c0,9.79-5.1,2.75-6.8,1.33" class="grey" /><path d="M62.33,51.85c7.74-1.21,21.89-1.82,28.69-2.42" class="grey" /><path d="M62.26,63.19c6.04-0.61,20.02-2.02,27-2.42" class="grey" /><path d="M17.94,29.65c1.1,0.42,3.11,0.5,4.21,0.42c9.8-0.68,15.69-2.25,24.55-2.86c1.83-0.13,2.93,0.2,3.85,0.41" class="stroke" stroke-dasharray="150"><animate attributeName="stroke-dashoffset" from="150" to="0" dur="1.8s" begin="0.0s" fill="freeze" /></path><path d="M33.62,14.46c0.12,0.27,1.61,1.43,1.73,3.17c0.55,8.36,0.3,26.13,0.3,28.98" class="stroke" stroke-dasharray="150"><set attributeName="opacity" to="0" dur="1.0s" /><animate attributeName="stroke-dashoffset" from="150" to="0" dur="1.8s" begin="1.0s" fill="freeze" /></path><path d="M12.96,48.62c1.07,0.37,3.04,0.51,4.11,0.37c11.63-1.47,24.47-2.74,34.47-3.63c1.77-0.16,2.85,0.18,3.75,0.36" class="stroke" stroke-dasharray="150"><set attributeName="opacity" to="0" dur="2.0s" /><animate attributeName="stroke-dashoffset" from="150" to="0" dur="1.8s" begin="2.0s" fill="freeze" /></path><path d="M34.04,48.8c1.06,0.47,1.7,2.11,1.91,3.04c0.21,0.94,0.13,22.07-0.08,27.92" class="stroke" stroke-dasharray="150"><set attributeName="opacity" to="0" dur="3.1s" /><animate attributeName="stroke-dashoffset" from="150" to="0" dur="1.8s" begin="3.1s" fill="freeze" /></path><path d="M36.57,64.34c5.41-0.47,13.07-2.19,15.4-2.19c1.41,0,2.26,0.17,2.96,0.35" class="stroke" stroke-dasharray="150"><set attributeName="opacity" to="0" dur="4.1s" /><animate attributeName="stroke-dashoffset" from="150" to="0" dur="1.8s" begin="4.1s" fill="freeze" /></path><path d="M24.76,61.8c0.04,0.85,0.09,2.2-0.09,3.43c-1.06,7.22-4.92,25.02-15.42,32.79" class="stroke" stroke-dasharray="150"><set attributeName="opacity" to="0" dur="5.0s" /><animate attributeName="stroke-dashoffset" from="150" to="0" dur="1.8s" begin="5.0s" fill="freeze" /></path><path d="M22.67,75.74C34.41,78.2,68.8,92.47,79.92,94.78c3.42,0.71,7.63,1.35,10.97,1.62" class="stroke" stroke-dasharray="150"><set attributeName="opacity" to="0" dur="6.1s" /><animate attributeName="stroke-dashoffset" from="150" to="0" dur="1.8s" begin="6.1s" fill="freeze" /></path><path d="M74.14,12.25c0.14,0.32,1.97,1.68,1.97,3.73c0,7.01,0.11,18.06,0.11,21.41" class="stroke" stroke-dasharray="150"><set attributeName="opacity" to="0" dur="7.8s" /><animate attributeName="stroke-dashoffset" from="150" to="0" dur="1.8s" begin="7.8s" fill="freeze" /></path><path d="M65.71,19.93c0.05,0.43,0.11,1.12-0.11,1.74c-1.33,3.67-7.78,9.93-15.06,13.97" class="stroke" stroke-dasharray="150"><set attributeName="opacity" to="0" dur="8.8s" /><animate attributeName="stroke-dashoffset" from="150" to="0" dur="1.8s" begin="8.8s" fill="freeze" /></path><path d="M84.16,20.3c5.7,2.93,12.89,10,14.31,14.56" class="stroke" stroke-dasharray="150"><set attributeName="opacity" to="0" dur="9.8s" /><animate attributeName="stroke-dashoffset" from="150" to="0" dur="1.8s" begin="9.8s" fill="freeze" /></path><path d="M60.56,38.45c0.57,0.81,0.95,1.61,1.13,2.42c0.19,0.81,0.27,40.82,0.19,42.63" class="stroke" stroke-dasharray="150"><set attributeName="opacity" to="0" dur="10.8s" /><animate attributeName="stroke-dashoffset" from="150" to="0" dur="1.8s" begin="10.8s" fill="freeze" /></path><path d="M62.83,40.26c2.27-0.2,23.17-2.7,24.86-2.93c3.02-0.4,3.78,2.56,3.78,3.83c0,8.7-0.07,21.23-0.07,37.57c0,9.79-5.1,2.75-6.8,1.33" class="stroke" stroke-dasharray="150"><set attributeName="opacity" to="0" dur="12.0s" /><animate attributeName="stroke-dashoffset" from="150" to="0" dur="1.8s" begin="12.0s" fill="freeze" /></path><path d="M62.33,51.85c7.74-1.21,21.89-1.82,28.69-2.42" class="stroke" stroke-dasharray="150"><set attributeName="opacity" to="0" dur="13.7s" /><animate attributeName="stroke-dashoffset" from="150" to="0" dur="1.8s" begin="13.7s" fill="freeze" /></path><path d="M62.26,63.19c6.04-0.61,20.02-2.02,27-2.42" class="stroke" stroke-dasharray="150"><set attributeName="opacity" to="0" dur="14.7s" /><animate attributeName="stroke-dashoffset" from="150" to="0" dur="1.8s" begin="14.7s" fill="freeze" /></path><text x="90" y="120" id="reset-kvg-08d99">⟳</text><text x="70" y="120" id="pause-kvg-08d99">◼</text><script type="text/javascript"><![CDATA[function RecurringTimer(e,t){var n,r,i=t;this.pause=function(){window.clearTimeout(n);i-=new Date-r};var s=function(){r=new Date;n=window.setTimeout(function(){i=t;s();e()},i)};this.clear=function(){window.clearTimeout(n);i=t;n=window.setTimeout(function(){i=t;s();e()},i)};this.resume=s;this.resume()}function invoketimer(){timer=new RecurringTimer(function(){svg.setCurrentTime(0)},16700.0)}var svg=document.getElementById("kvg-08d99");var pause=document.getElementById("pause-kvg-08d99");var reset=document.getElementById("reset-kvg-08d99");var timer;invoketimer();reset.onclick=function(){svg.setCurrentTime(0);timer.clear();svg.unpauseAnimations();pause.innerHTML = "◼";};pause.onclick=function(){if(svg.animationsPaused()){svg.unpauseAnimations();timer.resume();pause.innerHTML="◼"}else{svg.pauseAnimations();timer.pause();pause.innerHTML="▶"}}]]></script></svg>