<svg id="kvg-08dcb" class="kanjivg" width="106" height="126" xmlns="http://www.w3.org/2000/svg" xmlns:xlink="http://www.w3.org/1999/xlink" xml:space="preserve" version="1.1" baseProfile="full"><defs><style type="text/css"><![CDATA[path.black{fill:none;stroke:black;stroke-width:5;stroke-linecap:round;stroke-linejoin:round;}path.grey{fill:none;stroke:#ddd;stroke-width:5;stroke-linecap:round;stroke-linejoin:round;}path.stroke{fill:none;stroke:black;stroke-width:5;stroke-linecap:round;stroke-linejoin:round;}rect{fill:none;stroke:#555;stroke-width:2;} text{font-size:16px;font-family:Segoe UI Symbol,Cambria Math,DejaVu Sans,Symbola,Quivira,STIX,Code2000;-webkit-touch-callout:none;cursor:pointer;-webkit-user-select:none;-khtml-user-select:none;-moz-user-select:none;-ms-user-select:none;user-select: none;}text:hover{color:#777;}#reset{font-weight:bold;}]]></style><marker id="markerStart" markerWidth="8" markerHeight="8" style="overflow:visible;"><circle cx="0" cy="0" r="1.5" style="stroke:none;fill:red;fill-opacity:0.5;"/></marker><marker id="markerEnd" style="overflow:visible;"><circle cx="0" cy="0" r="0.8" style="stroke:none;fill:blue;fill-opacity:0.5;"><animate attributeName="opacity" from="1" to="0" dur="3s" repeatCount="indefinite" /></circle></marker></defs><rect x="4" y="4" width="100" height="100" /><path d="M13.78,22.21c0.37,0.32,0.75,0.58,0.91,0.97c1.28,3.13,2.85,13.7,3.73,19.32" class="grey" /><path d="M15.61,23.9c8.76-1.68,18.79-2.5,23.13-2.91c1.58-0.15,2.54,0.89,2.31,1.77c-1.04,4.06-2.15,9.85-3.43,14.5" class="grey" /><path d="M19.06,40.19c5.09-0.46,13.15-1.34,20.14-2.05" class="grey" /><path d="M27.37,41.74c1.09,0.5,1.96,2.23,1.96,3.25c0,5.51,0.28,27.01,0.28,37" class="grey" /><path d="M29.88,58.74c3.37-0.49,7.87-1.74,11.35-2.5c1.7-0.37,2.18-0.25,3.26,0" class="grey" /><path d="M14.37,54.49c1.09,0.5,1.74,2.25,1.96,3.25c0.22,1,1.42,18.01,2.42,30.76" class="grey" /><path d="M11.5,90.07c0.75,1.43,2.89,1.38,3.7,0.9c9.55-5.72,13.8-8.22,25.3-14.98" class="grey" /><path d="M45.25,32.89c1.37,0.38,3.88,0.46,5.25,0.38c8.96-0.52,32.52-3.83,40.96-3.38c2.27,0.12,3.65,0.18,4.79,0.37" class="grey" /><path d="M65.41,10.75c0.94,1.35,1.95,1.92,1.83,4.4c-1.18,22.9-5.97,54.8-30.29,78.82" class="grey" /><path d="M85.76,45c0.09,1.22,0.13,3.46-0.18,4.9C81.94,66.79,72.25,89,52,97.29" class="grey" /><path d="M60.5,55.25c5.34,7.44,20.42,26.94,29.85,36.39c1.63,1.64,2.86,2.38,4.4,2.86" class="grey" /><path d="M81.02,14.58c3.28,1.7,8.47,6.99,9.29,9.63" class="grey" /><path d="M13.78,22.21c0.37,0.32,0.75,0.58,0.91,0.97c1.28,3.13,2.85,13.7,3.73,19.32" class="stroke" stroke-dasharray="150"><animate attributeName="stroke-dashoffset" from="150" to="0" dur="1.8s" begin="0.0s" fill="freeze" /></path><path d="M15.61,23.9c8.76-1.68,18.79-2.5,23.13-2.91c1.58-0.15,2.54,0.89,2.31,1.77c-1.04,4.06-2.15,9.85-3.43,14.5" class="stroke" stroke-dasharray="150"><set attributeName="opacity" to="0" dur="1.0s" /><animate attributeName="stroke-dashoffset" from="150" to="0" dur="1.8s" begin="1.0s" fill="freeze" /></path><path d="M19.06,40.19c5.09-0.46,13.15-1.34,20.14-2.05" class="stroke" stroke-dasharray="150"><set attributeName="opacity" to="0" dur="2.1s" /><animate attributeName="stroke-dashoffset" from="150" to="0" dur="1.8s" begin="2.1s" fill="freeze" /></path><path d="M27.37,41.74c1.09,0.5,1.96,2.23,1.96,3.25c0,5.51,0.28,27.01,0.28,37" class="stroke" stroke-dasharray="150"><set attributeName="opacity" to="0" dur="3.1s" /><animate attributeName="stroke-dashoffset" from="150" to="0" dur="1.8s" begin="3.1s" fill="freeze" /></path><path d="M29.88,58.74c3.37-0.49,7.87-1.74,11.35-2.5c1.7-0.37,2.18-0.25,3.26,0" class="stroke" stroke-dasharray="150"><set attributeName="opacity" to="0" dur="4.2s" /><animate attributeName="stroke-dashoffset" from="150" to="0" dur="1.8s" begin="4.2s" fill="freeze" /></path><path d="M14.37,54.49c1.09,0.5,1.74,2.25,1.96,3.25c0.22,1,1.42,18.01,2.42,30.76" class="stroke" stroke-dasharray="150"><set attributeName="opacity" to="0" dur="5.1000000000000005s" /><animate attributeName="stroke-dashoffset" from="150" to="0" dur="1.8s" begin="5.1000000000000005s" fill="freeze" /></path><path d="M11.5,90.07c0.75,1.43,2.89,1.38,3.7,0.9c9.55-5.72,13.8-8.22,25.3-14.98" class="stroke" stroke-dasharray="150"><set attributeName="opacity" to="0" dur="6.1000000000000005s" /><animate attributeName="stroke-dashoffset" from="150" to="0" dur="1.8s" begin="6.1000000000000005s" fill="freeze" /></path><path d="M45.25,32.89c1.37,0.38,3.88,0.46,5.25,0.38c8.96-0.52,32.52-3.83,40.96-3.38c2.27,0.12,3.65,0.18,4.79,0.37" class="stroke" stroke-dasharray="150"><set attributeName="opacity" to="0" dur="7.1000000000000005s" /><animate attributeName="stroke-dashoffset" from="150" to="0" dur="1.8s" begin="7.1000000000000005s" fill="freeze" /></path><path d="M65.41,10.75c0.94,1.35,1.95,1.92,1.83,4.4c-1.18,22.9-5.97,54.8-30.29,78.82" class="stroke" stroke-dasharray="150"><set attributeName="opacity" to="0" dur="8.4s" /><animate attributeName="stroke-dashoffset" from="150" to="0" dur="1.8s" begin="8.4s" fill="freeze" /></path><path d="M85.76,45c0.09,1.22,0.13,3.46-0.18,4.9C81.94,66.79,72.25,89,52,97.29" class="stroke" stroke-dasharray="150"><set attributeName="opacity" to="0" dur="10.200000000000001s" /><animate attributeName="stroke-dashoffset" from="150" to="0" dur="1.8s" begin="10.200000000000001s" fill="freeze" /></path><path d="M60.5,55.25c5.34,7.44,20.42,26.94,29.85,36.39c1.63,1.64,2.86,2.38,4.4,2.86" class="stroke" stroke-dasharray="150"><set attributeName="opacity" to="0" dur="11.700000000000001s" /><animate attributeName="stroke-dashoffset" from="150" to="0" dur="1.8s" begin="11.700000000000001s" fill="freeze" /></path><path d="M81.02,14.58c3.28,1.7,8.47,6.99,9.29,9.63" class="stroke" stroke-dasharray="150"><set attributeName="opacity" to="0" dur="13.000000000000002s" /><animate attributeName="stroke-dashoffset" from="150" to="0" dur="1.8s" begin="13.000000000000002s" fill="freeze" /></path><text x="90" y="120" id="reset-kvg-08dcb">⟳</text><text x="70" y="120" id="pause-kvg-08dcb">◼</text><script type="text/javascript"><![CDATA[function RecurringTimer(e,t){var n,r,i=t;this.pause=function(){window.clearTimeout(n);i-=new Date-r};var s=function(){r=new Date;n=window.setTimeout(function(){i=t;s();e()},i)};this.clear=function(){window.clearTimeout(n);i=t;n=window.setTimeout(function(){i=t;s();e()},i)};this.resume=s;this.resume()}function invoketimer(){timer=new RecurringTimer(function(){svg.setCurrentTime(0)},14900.000000000002)}var svg=document.getElementById("kvg-08dcb");var pause=document.getElementById("pause-kvg-08dcb");var reset=document.getElementById("reset-kvg-08dcb");var timer;invoketimer();reset.onclick=function(){svg.setCurrentTime(0);timer.clear();svg.unpauseAnimations();pause.innerHTML = "◼";};pause.onclick=function(){if(svg.animationsPaused()){svg.unpauseAnimations();timer.resume();pause.innerHTML="◼"}else{svg.pauseAnimations();timer.pause();pause.innerHTML="▶"}}]]></script></svg>