<svg id="kvg-08e0f" class="kanjivg" width="106" height="126" xmlns="http://www.w3.org/2000/svg" xmlns:xlink="http://www.w3.org/1999/xlink" xml:space="preserve" version="1.1" baseProfile="full"><defs><style type="text/css"><![CDATA[path.black{fill:none;stroke:black;stroke-width:5;stroke-linecap:round;stroke-linejoin:round;}path.grey{fill:none;stroke:#ddd;stroke-width:5;stroke-linecap:round;stroke-linejoin:round;}path.stroke{fill:none;stroke:black;stroke-width:5;stroke-linecap:round;stroke-linejoin:round;}rect{fill:none;stroke:#555;stroke-width:2;} text{font-size:16px;font-family:Segoe UI Symbol,Cambria Math,DejaVu Sans,Symbola,Quivira,STIX,Code2000;-webkit-touch-callout:none;cursor:pointer;-webkit-user-select:none;-khtml-user-select:none;-moz-user-select:none;-ms-user-select:none;user-select: none;}text:hover{color:#777;}#reset{font-weight:bold;}]]></style><marker id="markerStart" markerWidth="8" markerHeight="8" style="overflow:visible;"><circle cx="0" cy="0" r="1.5" style="stroke:none;fill:red;fill-opacity:0.5;"/></marker><marker id="markerEnd" style="overflow:visible;"><circle cx="0" cy="0" r="0.8" style="stroke:none;fill:blue;fill-opacity:0.5;"><animate attributeName="opacity" from="1" to="0" dur="3s" repeatCount="indefinite" /></circle></marker></defs><rect x="4" y="4" width="100" height="100" /><path d="M15.03,23.63c0.8,0.8,1.21,1.56,1.46,2.62c1.02,4.38,1.69,8.18,2.46,12.98c0.23,1.42,0.44,2.79,0.62,4.02" class="grey" /><path d="M16.68,24.48c8.71-1.39,15.59-2.47,20.21-3.02c3.01-0.36,4.75,0.22,3.96,3.57c-0.88,3.78-1.89,8.51-3.13,13.24" class="grey" /><path d="M20.5,40.94c4.47-0.43,9.77-1.37,15.76-2.05c1.11-0.12,2.23-0.25,3.37-0.37" class="grey" /><path d="M29.62,41.74c1.01,1.01,1.21,2.26,1.21,3.75c0,1.02,0.03,24.51,0.03,32.25" class="grey" /><path d="M31.88,56.49c3.37-0.49,4.24-0.74,7.85-1.25c1.73-0.24,2.68-0.25,3.76,0" class="grey" /><path d="M18.12,57.99c0.76,0.76,1.21,2.13,1.21,3.5c0,1.02,0.03,16.13,0.03,23" class="grey" /><path d="M13,86.07c1,0.93,2.38,1.3,4.07,0.4C25.1,82.19,33.25,77.5,42,72.49" class="grey" /><path d="M68.62,14.83c1.21,1.21,1.38,2.54,1.38,4.34c0,15.13,0,22.66,0,27.46c0,9.46-4.38,2.66-5.56,1.45" class="grey" /><path d="M46.9,31.79c1.06,0.18,2.27,0.32,3.37,0.11c2.85-0.53,7.95-2.16,9.72-2.88c1.78-0.72,3.17,0.54,2.66,2.17c-2.37,7.61-9.44,17.28-16.01,21.45" class="grey" /><path d="M87.95,21.26c0.07,0.28-0.1,1.14-0.42,1.48c-2.66,2.88-5.91,5.88-10.16,8.51" class="grey" /><path d="M71.02,28.91c5.74,5.35,11.46,11.68,17.49,16.69c2.24,1.86,4.11,3.15,7.08,5.01" class="grey" /><path d="M53.34,59.97c0.84,0.84,1.11,2.03,1.11,3.47c0,11.91-0.07,17.85-0.07,26.81c0,1.88,0.02,4.26,0,6.12" class="grey" /><path d="M55.51,61.44c11.99-1.31,18.37-1.98,26.28-2.73c2.9-0.28,4.24,1.44,4.24,3.08c0,7.91,0.02,16.79,0.02,26.97c0,2,0,4.07,0,6.2" class="grey" /><path d="M55.47,76.58c3.6-0.36,26.26-2.12,29.24-2.18" class="grey" /><path d="M55.6,92.62c8.65-0.62,18.93-1.41,29.45-1.79" class="grey" /><path d="M15.03,23.63c0.8,0.8,1.21,1.56,1.46,2.62c1.02,4.38,1.69,8.18,2.46,12.98c0.23,1.42,0.44,2.79,0.62,4.02" class="stroke" stroke-dasharray="150"><animate attributeName="stroke-dashoffset" from="150" to="0" dur="1.8s" begin="0.0s" fill="freeze" /></path><path d="M16.68,24.48c8.71-1.39,15.59-2.47,20.21-3.02c3.01-0.36,4.75,0.22,3.96,3.57c-0.88,3.78-1.89,8.51-3.13,13.24" class="stroke" stroke-dasharray="150"><set attributeName="opacity" to="0" dur="1.0s" /><animate attributeName="stroke-dashoffset" from="150" to="0" dur="1.8s" begin="1.0s" fill="freeze" /></path><path d="M20.5,40.94c4.47-0.43,9.77-1.37,15.76-2.05c1.11-0.12,2.23-0.25,3.37-0.37" class="stroke" stroke-dasharray="150"><set attributeName="opacity" to="0" dur="2.1s" /><animate attributeName="stroke-dashoffset" from="150" to="0" dur="1.8s" begin="2.1s" fill="freeze" /></path><path d="M29.62,41.74c1.01,1.01,1.21,2.26,1.21,3.75c0,1.02,0.03,24.51,0.03,32.25" class="stroke" stroke-dasharray="150"><set attributeName="opacity" to="0" dur="3.0s" /><animate attributeName="stroke-dashoffset" from="150" to="0" dur="1.8s" begin="3.0s" fill="freeze" /></path><path d="M31.88,56.49c3.37-0.49,4.24-0.74,7.85-1.25c1.73-0.24,2.68-0.25,3.76,0" class="stroke" stroke-dasharray="150"><set attributeName="opacity" to="0" dur="4.0s" /><animate attributeName="stroke-dashoffset" from="150" to="0" dur="1.8s" begin="4.0s" fill="freeze" /></path><path d="M18.12,57.99c0.76,0.76,1.21,2.13,1.21,3.5c0,1.02,0.03,16.13,0.03,23" class="stroke" stroke-dasharray="150"><set attributeName="opacity" to="0" dur="4.9s" /><animate attributeName="stroke-dashoffset" from="150" to="0" dur="1.8s" begin="4.9s" fill="freeze" /></path><path d="M13,86.07c1,0.93,2.38,1.3,4.07,0.4C25.1,82.19,33.25,77.5,42,72.49" class="stroke" stroke-dasharray="150"><set attributeName="opacity" to="0" dur="5.9s" /><animate attributeName="stroke-dashoffset" from="150" to="0" dur="1.8s" begin="5.9s" fill="freeze" /></path><path d="M68.62,14.83c1.21,1.21,1.38,2.54,1.38,4.34c0,15.13,0,22.66,0,27.46c0,9.46-4.38,2.66-5.56,1.45" class="stroke" stroke-dasharray="150"><set attributeName="opacity" to="0" dur="6.9s" /><animate attributeName="stroke-dashoffset" from="150" to="0" dur="1.8s" begin="6.9s" fill="freeze" /></path><path d="M46.9,31.79c1.06,0.18,2.27,0.32,3.37,0.11c2.85-0.53,7.95-2.16,9.72-2.88c1.78-0.72,3.17,0.54,2.66,2.17c-2.37,7.61-9.44,17.28-16.01,21.45" class="stroke" stroke-dasharray="150"><set attributeName="opacity" to="0" dur="8.0s" /><animate attributeName="stroke-dashoffset" from="150" to="0" dur="1.8s" begin="8.0s" fill="freeze" /></path><path d="M87.95,21.26c0.07,0.28-0.1,1.14-0.42,1.48c-2.66,2.88-5.91,5.88-10.16,8.51" class="stroke" stroke-dasharray="150"><set attributeName="opacity" to="0" dur="9.2s" /><animate attributeName="stroke-dashoffset" from="150" to="0" dur="1.8s" begin="9.2s" fill="freeze" /></path><path d="M71.02,28.91c5.74,5.35,11.46,11.68,17.49,16.69c2.24,1.86,4.11,3.15,7.08,5.01" class="stroke" stroke-dasharray="150"><set attributeName="opacity" to="0" dur="10.1s" /><animate attributeName="stroke-dashoffset" from="150" to="0" dur="1.8s" begin="10.1s" fill="freeze" /></path><path d="M53.34,59.97c0.84,0.84,1.11,2.03,1.11,3.47c0,11.91-0.07,17.85-0.07,26.81c0,1.88,0.02,4.26,0,6.12" class="stroke" stroke-dasharray="150"><set attributeName="opacity" to="0" dur="11.1s" /><animate attributeName="stroke-dashoffset" from="150" to="0" dur="1.8s" begin="11.1s" fill="freeze" /></path><path d="M55.51,61.44c11.99-1.31,18.37-1.98,26.28-2.73c2.9-0.28,4.24,1.44,4.24,3.08c0,7.91,0.02,16.79,0.02,26.97c0,2,0,4.07,0,6.2" class="stroke" stroke-dasharray="150"><set attributeName="opacity" to="0" dur="12.1s" /><animate attributeName="stroke-dashoffset" from="150" to="0" dur="1.8s" begin="12.1s" fill="freeze" /></path><path d="M55.47,76.58c3.6-0.36,26.26-2.12,29.24-2.18" class="stroke" stroke-dasharray="150"><set attributeName="opacity" to="0" dur="13.6s" /><animate attributeName="stroke-dashoffset" from="150" to="0" dur="1.8s" begin="13.6s" fill="freeze" /></path><path d="M55.6,92.62c8.65-0.62,18.93-1.41,29.45-1.79" class="stroke" stroke-dasharray="150"><set attributeName="opacity" to="0" dur="14.6s" /><animate attributeName="stroke-dashoffset" from="150" to="0" dur="1.8s" begin="14.6s" fill="freeze" /></path><text x="90" y="120" id="reset-kvg-08e0f">⟳</text><text x="70" y="120" id="pause-kvg-08e0f">◼</text><script type="text/javascript"><![CDATA[function RecurringTimer(e,t){var n,r,i=t;this.pause=function(){window.clearTimeout(n);i-=new Date-r};var s=function(){r=new Date;n=window.setTimeout(function(){i=t;s();e()},i)};this.clear=function(){window.clearTimeout(n);i=t;n=window.setTimeout(function(){i=t;s();e()},i)};this.resume=s;this.resume()}function invoketimer(){timer=new RecurringTimer(function(){svg.setCurrentTime(0)},16600.0)}var svg=document.getElementById("kvg-08e0f");var pause=document.getElementById("pause-kvg-08e0f");var reset=document.getElementById("reset-kvg-08e0f");var timer;invoketimer();reset.onclick=function(){svg.setCurrentTime(0);timer.clear();svg.unpauseAnimations();pause.innerHTML = "◼";};pause.onclick=function(){if(svg.animationsPaused()){svg.unpauseAnimations();timer.resume();pause.innerHTML="◼"}else{svg.pauseAnimations();timer.pause();pause.innerHTML="▶"}}]]></script></svg>