<svg id="kvg-08e09" class="kanjivg" width="106" height="126" xmlns="http://www.w3.org/2000/svg" xmlns:xlink="http://www.w3.org/1999/xlink" xml:space="preserve" version="1.1" baseProfile="full"><defs><style type="text/css"><![CDATA[path.black{fill:none;stroke:black;stroke-width:5;stroke-linecap:round;stroke-linejoin:round;}path.grey{fill:none;stroke:#ddd;stroke-width:5;stroke-linecap:round;stroke-linejoin:round;}path.stroke{fill:none;stroke:black;stroke-width:5;stroke-linecap:round;stroke-linejoin:round;}rect{fill:none;stroke:#555;stroke-width:2;} text{font-size:16px;font-family:Segoe UI Symbol,Cambria Math,DejaVu Sans,Symbola,Quivira,STIX,Code2000;-webkit-touch-callout:none;cursor:pointer;-webkit-user-select:none;-khtml-user-select:none;-moz-user-select:none;-ms-user-select:none;user-select: none;}text:hover{color:#777;}#reset{font-weight:bold;}]]></style><marker id="markerStart" markerWidth="8" markerHeight="8" style="overflow:visible;"><circle cx="0" cy="0" r="1.5" style="stroke:none;fill:red;fill-opacity:0.5;"/></marker><marker id="markerEnd" style="overflow:visible;"><circle cx="0" cy="0" r="0.8" style="stroke:none;fill:blue;fill-opacity:0.5;"><animate attributeName="opacity" from="1" to="0" dur="3s" repeatCount="indefinite" /></circle></marker></defs><rect x="4" y="4" width="100" height="100" /><path d="M13.78,21.71c0.37,0.32,0.75,0.58,0.91,0.97c1.28,3.13,2.35,15.2,3.23,20.82" class="grey" /><path d="M15.61,23.4c8.76-1.68,18.29-3,22.63-3.41c1.58-0.15,2.54,0.89,2.31,1.77c-1.04,4.06-2.15,12.35-3.43,17" class="grey" /><path d="M18.56,41.19c5.09-0.46,13.15-0.84,20.14-1.55" class="grey" /><path d="M26.87,42.24c1.09,0.5,1.96,2.23,1.96,3.25c0,5.51,0.28,28.01,0.28,38" class="grey" /><path d="M29.38,58.74c3.37-0.49,7.87-1.74,11.35-2c1.74-0.13,2.18-0.25,3.26,0" class="grey" /><path d="M16.37,54.49c1.09,0.5,1.74,2.25,1.96,3.25c0.22,1,0.42,20.01,0.42,31.76" class="grey" /><path d="M12,90.57c0.35,0.8,2.99,1.85,3.86,1.4c8.56-4.47,16.94-9.47,26.39-14.48" class="grey" /><path d="M67.75,10.25c1.17,0.59,1.87,1.47,2.1,2.64c0.23,1.17,0.23,8.36,0.23,11.3" class="grey" /><path d="M52,25.75c0.61,0.25,2.16,0.45,4.24,0.31c11.51-0.81,26.15-2.97,27.81-3.08c1.74-0.11,2.75,1.25,2.73,1.93c-0.12,4.83-2.01,23.8-3.01,27.13" class="grey" /><path d="M54.98,39.94c5.77-0.54,23.04-2.67,28.59-3.1" class="grey" /><path d="M55.09,52.42c7.91-0.87,18.29-2.12,26.88-2.95" class="grey" /><path d="M54.51,26.23c0.24,1.27,0.09,2.39,0.35,3.45c0.26,1.06,0.55,59.38,0.26,62.02c-0.26,2.39-0.13,4.92,2.99,2.73c6.64-4.68,8.39-5.93,14.84-10.3" class="grey" /><path d="M89.19,57.05c0.3,1.43,0.5,2-0.54,3.15c-2.01,2.23-8.07,7.4-10.82,9.41" class="grey" /><path d="M61.88,57.23c5.08,4.13,18.49,23.42,26.21,30.46c4.12,3.75,6.21,4.74,8.47,5.45" class="grey" /><path d="M13.78,21.71c0.37,0.32,0.75,0.58,0.91,0.97c1.28,3.13,2.35,15.2,3.23,20.82" class="stroke" stroke-dasharray="150"><animate attributeName="stroke-dashoffset" from="150" to="0" dur="1.8s" begin="0.0s" fill="freeze" /></path><path d="M15.61,23.4c8.76-1.68,18.29-3,22.63-3.41c1.58-0.15,2.54,0.89,2.31,1.77c-1.04,4.06-2.15,12.35-3.43,17" class="stroke" stroke-dasharray="150"><set attributeName="opacity" to="0" dur="1.0s" /><animate attributeName="stroke-dashoffset" from="150" to="0" dur="1.8s" begin="1.0s" fill="freeze" /></path><path d="M18.56,41.19c5.09-0.46,13.15-0.84,20.14-1.55" class="stroke" stroke-dasharray="150"><set attributeName="opacity" to="0" dur="2.1s" /><animate attributeName="stroke-dashoffset" from="150" to="0" dur="1.8s" begin="2.1s" fill="freeze" /></path><path d="M26.87,42.24c1.09,0.5,1.96,2.23,1.96,3.25c0,5.51,0.28,28.01,0.28,38" class="stroke" stroke-dasharray="150"><set attributeName="opacity" to="0" dur="3.1s" /><animate attributeName="stroke-dashoffset" from="150" to="0" dur="1.8s" begin="3.1s" fill="freeze" /></path><path d="M29.38,58.74c3.37-0.49,7.87-1.74,11.35-2c1.74-0.13,2.18-0.25,3.26,0" class="stroke" stroke-dasharray="150"><set attributeName="opacity" to="0" dur="4.2s" /><animate attributeName="stroke-dashoffset" from="150" to="0" dur="1.8s" begin="4.2s" fill="freeze" /></path><path d="M16.37,54.49c1.09,0.5,1.74,2.25,1.96,3.25c0.22,1,0.42,20.01,0.42,31.76" class="stroke" stroke-dasharray="150"><set attributeName="opacity" to="0" dur="5.1000000000000005s" /><animate attributeName="stroke-dashoffset" from="150" to="0" dur="1.8s" begin="5.1000000000000005s" fill="freeze" /></path><path d="M12,90.57c0.35,0.8,2.99,1.85,3.86,1.4c8.56-4.47,16.94-9.47,26.39-14.48" class="stroke" stroke-dasharray="150"><set attributeName="opacity" to="0" dur="6.1000000000000005s" /><animate attributeName="stroke-dashoffset" from="150" to="0" dur="1.8s" begin="6.1000000000000005s" fill="freeze" /></path><path d="M67.75,10.25c1.17,0.59,1.87,1.47,2.1,2.64c0.23,1.17,0.23,8.36,0.23,11.3" class="stroke" stroke-dasharray="150"><set attributeName="opacity" to="0" dur="7.1000000000000005s" /><animate attributeName="stroke-dashoffset" from="150" to="0" dur="1.8s" begin="7.1000000000000005s" fill="freeze" /></path><path d="M52,25.75c0.61,0.25,2.16,0.45,4.24,0.31c11.51-0.81,26.15-2.97,27.81-3.08c1.74-0.11,2.75,1.25,2.73,1.93c-0.12,4.83-2.01,23.8-3.01,27.13" class="stroke" stroke-dasharray="150"><set attributeName="opacity" to="0" dur="8.0s" /><animate attributeName="stroke-dashoffset" from="150" to="0" dur="1.8s" begin="8.0s" fill="freeze" /></path><path d="M54.98,39.94c5.77-0.54,23.04-2.67,28.59-3.1" class="stroke" stroke-dasharray="150"><set attributeName="opacity" to="0" dur="9.5s" /><animate attributeName="stroke-dashoffset" from="150" to="0" dur="1.8s" begin="9.5s" fill="freeze" /></path><path d="M55.09,52.42c7.91-0.87,18.29-2.12,26.88-2.95" class="stroke" stroke-dasharray="150"><set attributeName="opacity" to="0" dur="10.5s" /><animate attributeName="stroke-dashoffset" from="150" to="0" dur="1.8s" begin="10.5s" fill="freeze" /></path><path d="M54.51,26.23c0.24,1.27,0.09,2.39,0.35,3.45c0.26,1.06,0.55,59.38,0.26,62.02c-0.26,2.39-0.13,4.92,2.99,2.73c6.64-4.68,8.39-5.93,14.84-10.3" class="stroke" stroke-dasharray="150"><set attributeName="opacity" to="0" dur="11.5s" /><animate attributeName="stroke-dashoffset" from="150" to="0" dur="1.8s" begin="11.5s" fill="freeze" /></path><path d="M89.19,57.05c0.3,1.43,0.5,2-0.54,3.15c-2.01,2.23-8.07,7.4-10.82,9.41" class="stroke" stroke-dasharray="150"><set attributeName="opacity" to="0" dur="13.2s" /><animate attributeName="stroke-dashoffset" from="150" to="0" dur="1.8s" begin="13.2s" fill="freeze" /></path><path d="M61.88,57.23c5.08,4.13,18.49,23.42,26.21,30.46c4.12,3.75,6.21,4.74,8.47,5.45" class="stroke" stroke-dasharray="150"><set attributeName="opacity" to="0" dur="14.1s" /><animate attributeName="stroke-dashoffset" from="150" to="0" dur="1.8s" begin="14.1s" fill="freeze" /></path><text x="90" y="120" id="reset-kvg-08e09">⟳</text><text x="70" y="120" id="pause-kvg-08e09">◼</text><script type="text/javascript"><![CDATA[function RecurringTimer(e,t){var n,r,i=t;this.pause=function(){window.clearTimeout(n);i-=new Date-r};var s=function(){r=new Date;n=window.setTimeout(function(){i=t;s();e()},i)};this.clear=function(){window.clearTimeout(n);i=t;n=window.setTimeout(function(){i=t;s();e()},i)};this.resume=s;this.resume()}function invoketimer(){timer=new RecurringTimer(function(){svg.setCurrentTime(0)},16400.0)}var svg=document.getElementById("kvg-08e09");var pause=document.getElementById("pause-kvg-08e09");var reset=document.getElementById("reset-kvg-08e09");var timer;invoketimer();reset.onclick=function(){svg.setCurrentTime(0);timer.clear();svg.unpauseAnimations();pause.innerHTML = "◼";};pause.onclick=function(){if(svg.animationsPaused()){svg.unpauseAnimations();timer.resume();pause.innerHTML="◼"}else{svg.pauseAnimations();timer.pause();pause.innerHTML="▶"}}]]></script></svg>