<svg id="kvg-08ecd" class="kanjivg" width="106" height="126" xmlns="http://www.w3.org/2000/svg" xmlns:xlink="http://www.w3.org/1999/xlink" xml:space="preserve" version="1.1" baseProfile="full"><defs><style type="text/css"><![CDATA[path.black{fill:none;stroke:black;stroke-width:5;stroke-linecap:round;stroke-linejoin:round;}path.grey{fill:none;stroke:#ddd;stroke-width:5;stroke-linecap:round;stroke-linejoin:round;}path.stroke{fill:none;stroke:black;stroke-width:5;stroke-linecap:round;stroke-linejoin:round;}rect{fill:none;stroke:#555;stroke-width:2;} text{font-size:16px;font-family:Segoe UI Symbol,Cambria Math,DejaVu Sans,Symbola,Quivira,STIX,Code2000;-webkit-touch-callout:none;cursor:pointer;-webkit-user-select:none;-khtml-user-select:none;-moz-user-select:none;-ms-user-select:none;user-select: none;}text:hover{color:#777;}#reset{font-weight:bold;}]]></style><marker id="markerStart" markerWidth="8" markerHeight="8" style="overflow:visible;"><circle cx="0" cy="0" r="1.5" style="stroke:none;fill:red;fill-opacity:0.5;"/></marker><marker id="markerEnd" style="overflow:visible;"><circle cx="0" cy="0" r="0.8" style="stroke:none;fill:blue;fill-opacity:0.5;"><animate attributeName="opacity" from="1" to="0" dur="3s" repeatCount="indefinite" /></circle></marker></defs><rect x="4" y="4" width="100" height="100" /><path d="M23.04,16.47c-0.13,4.46-3.19,16.12-4.29,18.78" class="grey" /><path d="M24.08,18.83c10.17-1.45,43.09-4.17,58.76-4.83c11.91-0.5,1.6,8.57,0.13,9.97" class="grey" /><path d="M32.89,30.7c2.12,0.82,4.7,0.29,6.88,0.07c8.06-0.82,18.34-2.19,27.37-2.79c2.36-0.16,4.66-0.37,6.98,0.17" class="grey" /><path d="M28.32,40.89c0.77,0.77,1.47,2.12,1.62,2.77c0.88,4.03,1.73,12.72,2.86,20.73c0.19,1.37,0.4,2.72,0.61,4.02" class="grey" /><path d="M30.74,42.67C44.17,41.18,66.42,38.8,75,38.53c3.55-0.11,4.92,0.84,4.42,4.36c-0.64,4.54-2.14,11.5-4,18.09c-0.34,1.19-0.69,2.37-1.04,3.53" class="grey" /><path d="M32.71,53.94c10.54-1.06,27.91-2.56,44.27-3.17" class="grey" /><path d="M34.21,65.69c10.11-0.98,25.29-2.57,39.67-2.92" class="grey" /><path d="M16,78.79c3.38,0.71,7.04,0.58,10.25,0.34c21.13-1.56,35.62-3.36,56.5-4.22c3.38-0.14,6.7-0.4,10,0.47" class="grey" /><path d="M52.42,19.13c1.16,1.16,1.86,2.74,1.86,4.54c0,1.02-0.07,51.4-0.18,69.57c-0.02,2.83-0.04,4.9-0.06,5.88" class="grey" /><path d="M23.04,16.47c-0.13,4.46-3.19,16.12-4.29,18.78" class="stroke" stroke-dasharray="150"><animate attributeName="stroke-dashoffset" from="150" to="0" dur="1.8s" begin="0.0s" fill="freeze" /></path><path d="M24.08,18.83c10.17-1.45,43.09-4.17,58.76-4.83c11.91-0.5,1.6,8.57,0.13,9.97" class="stroke" stroke-dasharray="150"><set attributeName="opacity" to="0" dur="0.9s" /><animate attributeName="stroke-dashoffset" from="150" to="0" dur="1.8s" begin="0.9s" fill="freeze" /></path><path d="M32.89,30.7c2.12,0.82,4.7,0.29,6.88,0.07c8.06-0.82,18.34-2.19,27.37-2.79c2.36-0.16,4.66-0.37,6.98,0.17" class="stroke" stroke-dasharray="150"><set attributeName="opacity" to="0" dur="2.6s" /><animate attributeName="stroke-dashoffset" from="150" to="0" dur="1.8s" begin="2.6s" fill="freeze" /></path><path d="M28.32,40.89c0.77,0.77,1.47,2.12,1.62,2.77c0.88,4.03,1.73,12.72,2.86,20.73c0.19,1.37,0.4,2.72,0.61,4.02" class="stroke" stroke-dasharray="150"><set attributeName="opacity" to="0" dur="3.7s" /><animate attributeName="stroke-dashoffset" from="150" to="0" dur="1.8s" begin="3.7s" fill="freeze" /></path><path d="M30.74,42.67C44.17,41.18,66.42,38.8,75,38.53c3.55-0.11,4.92,0.84,4.42,4.36c-0.64,4.54-2.14,11.5-4,18.09c-0.34,1.19-0.69,2.37-1.04,3.53" class="stroke" stroke-dasharray="150"><set attributeName="opacity" to="0" dur="4.7s" /><animate attributeName="stroke-dashoffset" from="150" to="0" dur="1.8s" begin="4.7s" fill="freeze" /></path><path d="M32.71,53.94c10.54-1.06,27.91-2.56,44.27-3.17" class="stroke" stroke-dasharray="150"><set attributeName="opacity" to="0" dur="6.4s" /><animate attributeName="stroke-dashoffset" from="150" to="0" dur="1.8s" begin="6.4s" fill="freeze" /></path><path d="M34.21,65.69c10.11-0.98,25.29-2.57,39.67-2.92" class="stroke" stroke-dasharray="150"><set attributeName="opacity" to="0" dur="7.5s" /><animate attributeName="stroke-dashoffset" from="150" to="0" dur="1.8s" begin="7.5s" fill="freeze" /></path><path d="M16,78.79c3.38,0.71,7.04,0.58,10.25,0.34c21.13-1.56,35.62-3.36,56.5-4.22c3.38-0.14,6.7-0.4,10,0.47" class="stroke" stroke-dasharray="150"><set attributeName="opacity" to="0" dur="8.5s" /><animate attributeName="stroke-dashoffset" from="150" to="0" dur="1.8s" begin="8.5s" fill="freeze" /></path><path d="M52.42,19.13c1.16,1.16,1.86,2.74,1.86,4.54c0,1.02-0.07,51.4-0.18,69.57c-0.02,2.83-0.04,4.9-0.06,5.88" class="stroke" stroke-dasharray="150"><set attributeName="opacity" to="0" dur="10.2s" /><animate attributeName="stroke-dashoffset" from="150" to="0" dur="1.8s" begin="10.2s" fill="freeze" /></path><text x="90" y="120" id="reset-kvg-08ecd">⟳</text><text x="70" y="120" id="pause-kvg-08ecd">◼</text><script type="text/javascript"><![CDATA[function RecurringTimer(e,t){var n,r,i=t;this.pause=function(){window.clearTimeout(n);i-=new Date-r};var s=function(){r=new Date;n=window.setTimeout(function(){i=t;s();e()},i)};this.clear=function(){window.clearTimeout(n);i=t;n=window.setTimeout(function(){i=t;s();e()},i)};this.resume=s;this.resume()}function invoketimer(){timer=new RecurringTimer(function(){svg.setCurrentTime(0)},12899.999999999998)}var svg=document.getElementById("kvg-08ecd");var pause=document.getElementById("pause-kvg-08ecd");var reset=document.getElementById("reset-kvg-08ecd");var timer;invoketimer();reset.onclick=function(){svg.setCurrentTime(0);timer.clear();svg.unpauseAnimations();pause.innerHTML = "◼";};pause.onclick=function(){if(svg.animationsPaused()){svg.unpauseAnimations();timer.resume();pause.innerHTML="◼"}else{svg.pauseAnimations();timer.pause();pause.innerHTML="▶"}}]]></script></svg>