<svg id="kvg-08f1c-Kaisho" class="kanjivg" width="106" height="126" xmlns="http://www.w3.org/2000/svg" xmlns:xlink="http://www.w3.org/1999/xlink" xml:space="preserve" version="1.1" baseProfile="full"><defs><style type="text/css"><![CDATA[path.black{fill:none;stroke:black;stroke-width:5;stroke-linecap:round;stroke-linejoin:round;}path.grey{fill:none;stroke:#ddd;stroke-width:5;stroke-linecap:round;stroke-linejoin:round;}path.stroke{fill:none;stroke:black;stroke-width:5;stroke-linecap:round;stroke-linejoin:round;}rect{fill:none;stroke:#555;stroke-width:2;} text{font-size:16px;font-family:Segoe UI Symbol,Cambria Math,DejaVu Sans,Symbola,Quivira,STIX,Code2000;-webkit-touch-callout:none;cursor:pointer;-webkit-user-select:none;-khtml-user-select:none;-moz-user-select:none;-ms-user-select:none;user-select: none;}text:hover{color:#777;}#reset{font-weight:bold;}]]></style><marker id="markerStart" markerWidth="8" markerHeight="8" style="overflow:visible;"><circle cx="0" cy="0" r="1.5" style="stroke:none;fill:red;fill-opacity:0.5;"/></marker><marker id="markerEnd" style="overflow:visible;"><circle cx="0" cy="0" r="0.8" style="stroke:none;fill:blue;fill-opacity:0.5;"><animate attributeName="opacity" from="1" to="0" dur="3s" repeatCount="indefinite" /></circle></marker></defs><rect x="4" y="4" width="100" height="100" /><path d="M12.95,26.32c1.1,0.39,3.1,0.96,4.2,0.89c10.12-0.65,18.08-0.93,27.24-1.94c1.81-0.2,2.92,0.19,3.83,0.38" class="grey" /><path d="M12.95,40.21c0.55,0.46,1.25,0.81,1.35,1.42c0.75,4.4,2.8,15.74,3.85,24.08" class="grey" /><path d="M15.07,41.88c8.39-0.88,25.6-3.02,31.32-3.16c2.37-0.06,2.85,1.21,2.75,2.58C48.8,46.05,48.39,55,45.91,62.59" class="grey" /><path d="M18.2,52.86c7.06-0.52,14.06-1.67,21.08-2.54c0.65-0.08,1.3-0.16,1.93-0.23" class="grey" /><path d="M18.2,63.33c7.35-0.91,18.64-1.95,27.71-2.66" class="grey" /><path d="M11,77.22c1.56,0.78,4.42,0.54,5.98,0.28c11.25-1.84,21.1-2.87,29.43-3.63c2.59-0.24,4.53-0.14,5.83,0.25" class="grey" /><path d="M29.44,12.63c0.64,0.48,1.98,3.59,2.11,4.55c0.13,0.96-0.08,74.2-0.21,80.2" class="grey" /><path d="M63.55,15.82c0.13,1.08,0.02,1.86-0.32,2.74c-2.21,5.88-3.99,10.07-9.58,16.29c-0.91,1.01-0.42,0.85,0,1.14c6.03,4.09,9.33,8.15,12.5,15.97" class="grey" /><path d="M77.96,16.13c0.44,1.16-0.03,2.76-0.39,3.53c-1.91,4.01-4.31,8.5-9.7,14.43c-0.52,0.57-0.25,0.79,0.23,1.13c5.71,3.91,9.89,9.04,12.52,15.85" class="grey" /><path d="M93.9,15.16c0.36,0.81,0.32,1.7,0.16,2.5c-0.9,4.43-4.22,8.6-10.12,15.39c-0.51,0.58-0.22,0.75,0.23,1.13c6.49,5.35,9.11,10.05,11.5,16.09" class="grey" /><path d="M54.82,60.2c0.28,0.56,0.78,1.43,0.93,2.12c1.23,5.66,2.72,21.43,3.44,31.85" class="grey" /><path d="M55.7,61.19c9.4-1.26,28.6-2.66,35.87-3.22c2.67-0.2,4.03,1.43,3.88,2.95c-0.53,5.55-1.32,21.67-3.56,31.34" class="grey" /><path d="M75.02,61.83c0.25,0.76,0.75,1.19,0.74,2.19c-0.03,6.56,0.17,23.67,0.17,26.05" class="grey" /><path d="M57.75,76.19c7.82-0.66,15.65-1.19,23.48-1.74c0.94-0.07,1.86-0.13,2.73-0.19" class="grey" /><path d="M59.2,91.21c7.01,0,23.6-1.85,33.27-2" class="grey" /><path d="M12.95,26.32c1.1,0.39,3.1,0.96,4.2,0.89c10.12-0.65,18.08-0.93,27.24-1.94c1.81-0.2,2.92,0.19,3.83,0.38" class="stroke" stroke-dasharray="150"><animate attributeName="stroke-dashoffset" from="150" to="0" dur="1.8s" begin="0.0s" fill="freeze" /></path><path d="M12.95,40.21c0.55,0.46,1.25,0.81,1.35,1.42c0.75,4.4,2.8,15.74,3.85,24.08" class="stroke" stroke-dasharray="150"><set attributeName="opacity" to="0" dur="1.0s" /><animate attributeName="stroke-dashoffset" from="150" to="0" dur="1.8s" begin="1.0s" fill="freeze" /></path><path d="M15.07,41.88c8.39-0.88,25.6-3.02,31.32-3.16c2.37-0.06,2.85,1.21,2.75,2.58C48.8,46.05,48.39,55,45.91,62.59" class="stroke" stroke-dasharray="150"><set attributeName="opacity" to="0" dur="2.0s" /><animate attributeName="stroke-dashoffset" from="150" to="0" dur="1.8s" begin="2.0s" fill="freeze" /></path><path d="M18.2,52.86c7.06-0.52,14.06-1.67,21.08-2.54c0.65-0.08,1.3-0.16,1.93-0.23" class="stroke" stroke-dasharray="150"><set attributeName="opacity" to="0" dur="3.4s" /><animate attributeName="stroke-dashoffset" from="150" to="0" dur="1.8s" begin="3.4s" fill="freeze" /></path><path d="M18.2,63.33c7.35-0.91,18.64-1.95,27.71-2.66" class="stroke" stroke-dasharray="150"><set attributeName="opacity" to="0" dur="4.4s" /><animate attributeName="stroke-dashoffset" from="150" to="0" dur="1.8s" begin="4.4s" fill="freeze" /></path><path d="M11,77.22c1.56,0.78,4.42,0.54,5.98,0.28c11.25-1.84,21.1-2.87,29.43-3.63c2.59-0.24,4.53-0.14,5.83,0.25" class="stroke" stroke-dasharray="150"><set attributeName="opacity" to="0" dur="5.4s" /><animate attributeName="stroke-dashoffset" from="150" to="0" dur="1.8s" begin="5.4s" fill="freeze" /></path><path d="M29.44,12.63c0.64,0.48,1.98,3.59,2.11,4.55c0.13,0.96-0.08,74.2-0.21,80.2" class="stroke" stroke-dasharray="150"><set attributeName="opacity" to="0" dur="6.5s" /><animate attributeName="stroke-dashoffset" from="150" to="0" dur="1.8s" begin="6.5s" fill="freeze" /></path><path d="M63.55,15.82c0.13,1.08,0.02,1.86-0.32,2.74c-2.21,5.88-3.99,10.07-9.58,16.29c-0.91,1.01-0.42,0.85,0,1.14c6.03,4.09,9.33,8.15,12.5,15.97" class="stroke" stroke-dasharray="150"><set attributeName="opacity" to="0" dur="8.2s" /><animate attributeName="stroke-dashoffset" from="150" to="0" dur="1.8s" begin="8.2s" fill="freeze" /></path><path d="M77.96,16.13c0.44,1.16-0.03,2.76-0.39,3.53c-1.91,4.01-4.31,8.5-9.7,14.43c-0.52,0.57-0.25,0.79,0.23,1.13c5.71,3.91,9.89,9.04,12.52,15.85" class="stroke" stroke-dasharray="150"><set attributeName="opacity" to="0" dur="9.299999999999999s" /><animate attributeName="stroke-dashoffset" from="150" to="0" dur="1.8s" begin="9.299999999999999s" fill="freeze" /></path><path d="M93.9,15.16c0.36,0.81,0.32,1.7,0.16,2.5c-0.9,4.43-4.22,8.6-10.12,15.39c-0.51,0.58-0.22,0.75,0.23,1.13c6.49,5.35,9.11,10.05,11.5,16.09" class="stroke" stroke-dasharray="150"><set attributeName="opacity" to="0" dur="10.399999999999999s" /><animate attributeName="stroke-dashoffset" from="150" to="0" dur="1.8s" begin="10.399999999999999s" fill="freeze" /></path><path d="M54.82,60.2c0.28,0.56,0.78,1.43,0.93,2.12c1.23,5.66,2.72,21.43,3.44,31.85" class="stroke" stroke-dasharray="150"><set attributeName="opacity" to="0" dur="11.499999999999998s" /><animate attributeName="stroke-dashoffset" from="150" to="0" dur="1.8s" begin="11.499999999999998s" fill="freeze" /></path><path d="M55.7,61.19c9.4-1.26,28.6-2.66,35.87-3.22c2.67-0.2,4.03,1.43,3.88,2.95c-0.53,5.55-1.32,21.67-3.56,31.34" class="stroke" stroke-dasharray="150"><set attributeName="opacity" to="0" dur="12.499999999999998s" /><animate attributeName="stroke-dashoffset" from="150" to="0" dur="1.8s" begin="12.499999999999998s" fill="freeze" /></path><path d="M75.02,61.83c0.25,0.76,0.75,1.19,0.74,2.19c-0.03,6.56,0.17,23.67,0.17,26.05" class="stroke" stroke-dasharray="150"><set attributeName="opacity" to="0" dur="14.199999999999998s" /><animate attributeName="stroke-dashoffset" from="150" to="0" dur="1.8s" begin="14.199999999999998s" fill="freeze" /></path><path d="M57.75,76.19c7.82-0.66,15.65-1.19,23.48-1.74c0.94-0.07,1.86-0.13,2.73-0.19" class="stroke" stroke-dasharray="150"><set attributeName="opacity" to="0" dur="15.199999999999998s" /><animate attributeName="stroke-dashoffset" from="150" to="0" dur="1.8s" begin="15.199999999999998s" fill="freeze" /></path><path d="M59.2,91.21c7.01,0,23.6-1.85,33.27-2" class="stroke" stroke-dasharray="150"><set attributeName="opacity" to="0" dur="16.199999999999996s" /><animate attributeName="stroke-dashoffset" from="150" to="0" dur="1.8s" begin="16.199999999999996s" fill="freeze" /></path><text x="90" y="120" id="reset-kvg-08f1c-Kaisho">⟳</text><text x="70" y="120" id="pause-kvg-08f1c-Kaisho">◼</text><script type="text/javascript"><![CDATA[function RecurringTimer(e,t){var n,r,i=t;this.pause=function(){window.clearTimeout(n);i-=new Date-r};var s=function(){r=new Date;n=window.setTimeout(function(){i=t;s();e()},i)};this.clear=function(){window.clearTimeout(n);i=t;n=window.setTimeout(function(){i=t;s();e()},i)};this.resume=s;this.resume()}function invoketimer(){timer=new RecurringTimer(function(){svg.setCurrentTime(0)},18199.999999999996)}var svg=document.getElementById("kvg-08f1c-Kaisho");var pause=document.getElementById("pause-kvg-08f1c-Kaisho");var reset=document.getElementById("reset-kvg-08f1c-Kaisho");var timer;invoketimer();reset.onclick=function(){svg.setCurrentTime(0);timer.clear();svg.unpauseAnimations();pause.innerHTML = "◼";};pause.onclick=function(){if(svg.animationsPaused()){svg.unpauseAnimations();timer.resume();pause.innerHTML="◼"}else{svg.pauseAnimations();timer.pause();pause.innerHTML="▶"}}]]></script></svg>