<svg id="kvg-08f57-Kaisho" class="kanjivg" width="106" height="126" xmlns="http://www.w3.org/2000/svg" xmlns:xlink="http://www.w3.org/1999/xlink" xml:space="preserve" version="1.1" baseProfile="full"><defs><style type="text/css"><![CDATA[path.black{fill:none;stroke:black;stroke-width:5;stroke-linecap:round;stroke-linejoin:round;}path.grey{fill:none;stroke:#ddd;stroke-width:5;stroke-linecap:round;stroke-linejoin:round;}path.stroke{fill:none;stroke:black;stroke-width:5;stroke-linecap:round;stroke-linejoin:round;}rect{fill:none;stroke:#555;stroke-width:2;} text{font-size:16px;font-family:Segoe UI Symbol,Cambria Math,DejaVu Sans,Symbola,Quivira,STIX,Code2000;-webkit-touch-callout:none;cursor:pointer;-webkit-user-select:none;-khtml-user-select:none;-moz-user-select:none;-ms-user-select:none;user-select: none;}text:hover{color:#777;}#reset{font-weight:bold;}]]></style><marker id="markerStart" markerWidth="8" markerHeight="8" style="overflow:visible;"><circle cx="0" cy="0" r="1.5" style="stroke:none;fill:red;fill-opacity:0.5;"/></marker><marker id="markerEnd" style="overflow:visible;"><circle cx="0" cy="0" r="0.8" style="stroke:none;fill:blue;fill-opacity:0.5;"><animate attributeName="opacity" from="1" to="0" dur="3s" repeatCount="indefinite" /></circle></marker></defs><rect x="4" y="4" width="100" height="100" /><path d="M9.58,25.8c1.67,0.7,3.72,0.9,4.34,0.86c7.34-0.42,16-0.73,24.63-1.68c1.01-0.11,1.62,0.17,2.13,0.35" class="grey" /><path d="M11.06,36.27c0.33,0.47,0.76,0.84,0.82,1.46c0.45,4.53,1.69,15.7,2.33,24.28" class="grey" /><path d="M12.35,38.35c6.41-0.84,20.1-2.84,24.48-2.97c1.81-0.05,2.18,1.14,2.1,2.46c-0.27,4.5-0.87,14.88-2.31,22.26" class="grey" /><path d="M13.27,48.4c5.23-0.48,10.47-0.93,15.72-1.26c0.53-0.03,1.08-0.07,1.63-0.1" class="grey" /><path d="M14.25,59.85c6.13-0.38,13.37-1.53,22.33-2.02" class="grey" /><path d="M8.03,72.71C9,73,10.97,73.64,11.86,73.68C18,74,28.5,72,36.68,71.12c1.44-0.16,2.32,0.22,3.04,0.46" class="grey" /><path d="M23.3,13.13c0.45,0.57,1.89,2.26,1.98,3.4c0.09,1.14-0.06,73.25-0.15,80.35" class="grey" /><path d="M48.99,26.23c0.03,0.98,0.65,2.15,0.59,3.56c-0.5,11.96-1.15,27.46-7.83,36.99" class="grey" /><path d="M46.96,25.86c1.19,0.15,3.4,0.22,4.57,0.15c4.83-0.29,25.93-1.75,35.88-2.54c1.95-0.16,3.78-0.07,4.78,0" class="grey" /><path d="M53.77,37.68c0.83,0.15,2.89-0.02,3.71-0.07c2.94-0.2,6.73-0.89,9.42-1.02c1.38-0.07,2.57-0.12,3.26-0.05" class="grey" /><path d="M52.79,46.18c0.29,0.3,0.59,0.56,0.72,0.93c1.01,3,2.2,8.62,2.89,14.02" class="grey" /><path d="M55.11,46.9c5.95-1.18,8.98-1.03,12.39-1.42c1.25-0.14,1.99,0.85,1.82,1.7c-0.74,3.51-0.76,5.8-1.85,10.65" class="grey" /><path d="M56.23,59.35c4-0.45,8.52-0.85,12.98-1.14" class="grey" /><path d="M69.55,10.97c0.97,1.14,1.76,1.67,2.01,4.1C73.79,36.77,80,54.75,92.51,62.81c3.91,2.52,3.22,0.91,2.73-4.15" class="grey" /><path d="M89.81,33.64c0.05,0.68,0.11,1.76-0.11,2.73C88.35,42.13,80.86,55.26,70.25,63" class="grey" /><path d="M80.5,11.5c2.58,1.13,6.7,3.71,7.9,5.64" class="grey" /><path d="M47,76.75c0.26,2.14-2.63,11.61-4.74,15.18" class="grey" /><path d="M53.5,71.25c8.57,16.34,16.9,23,30.33,23c8.42,0,6.87-3.84,2-7.84" class="grey" /><path d="M69.58,73.9c3.07,7.64,5.25,6.49,5.94,2.47" class="grey" /><path d="M85.5,72.75c5.04,2.53,8.29,4.99,12.25,9.11" class="grey" /><path d="M9.58,25.8c1.67,0.7,3.72,0.9,4.34,0.86c7.34-0.42,16-0.73,24.63-1.68c1.01-0.11,1.62,0.17,2.13,0.35" class="stroke" stroke-dasharray="150"><animate attributeName="stroke-dashoffset" from="150" to="0" dur="1.8s" begin="0.0s" fill="freeze" /></path><path d="M11.06,36.27c0.33,0.47,0.76,0.84,0.82,1.46c0.45,4.53,1.69,15.7,2.33,24.28" class="stroke" stroke-dasharray="150"><set attributeName="opacity" to="0" dur="1.0s" /><animate attributeName="stroke-dashoffset" from="150" to="0" dur="1.8s" begin="1.0s" fill="freeze" /></path><path d="M12.35,38.35c6.41-0.84,20.1-2.84,24.48-2.97c1.81-0.05,2.18,1.14,2.1,2.46c-0.27,4.5-0.87,14.88-2.31,22.26" class="stroke" stroke-dasharray="150"><set attributeName="opacity" to="0" dur="2.0s" /><animate attributeName="stroke-dashoffset" from="150" to="0" dur="1.8s" begin="2.0s" fill="freeze" /></path><path d="M13.27,48.4c5.23-0.48,10.47-0.93,15.72-1.26c0.53-0.03,1.08-0.07,1.63-0.1" class="stroke" stroke-dasharray="150"><set attributeName="opacity" to="0" dur="3.3s" /><animate attributeName="stroke-dashoffset" from="150" to="0" dur="1.8s" begin="3.3s" fill="freeze" /></path><path d="M14.25,59.85c6.13-0.38,13.37-1.53,22.33-2.02" class="stroke" stroke-dasharray="150"><set attributeName="opacity" to="0" dur="4.2s" /><animate attributeName="stroke-dashoffset" from="150" to="0" dur="1.8s" begin="4.2s" fill="freeze" /></path><path d="M8.03,72.71C9,73,10.97,73.64,11.86,73.68C18,74,28.5,72,36.68,71.12c1.44-0.16,2.32,0.22,3.04,0.46" class="stroke" stroke-dasharray="150"><set attributeName="opacity" to="0" dur="5.2s" /><animate attributeName="stroke-dashoffset" from="150" to="0" dur="1.8s" begin="5.2s" fill="freeze" /></path><path d="M23.3,13.13c0.45,0.57,1.89,2.26,1.98,3.4c0.09,1.14-0.06,73.25-0.15,80.35" class="stroke" stroke-dasharray="150"><set attributeName="opacity" to="0" dur="6.2s" /><animate attributeName="stroke-dashoffset" from="150" to="0" dur="1.8s" begin="6.2s" fill="freeze" /></path><path d="M48.99,26.23c0.03,0.98,0.65,2.15,0.59,3.56c-0.5,11.96-1.15,27.46-7.83,36.99" class="stroke" stroke-dasharray="150"><set attributeName="opacity" to="0" dur="7.9s" /><animate attributeName="stroke-dashoffset" from="150" to="0" dur="1.8s" begin="7.9s" fill="freeze" /></path><path d="M46.96,25.86c1.19,0.15,3.4,0.22,4.57,0.15c4.83-0.29,25.93-1.75,35.88-2.54c1.95-0.16,3.78-0.07,4.78,0" class="stroke" stroke-dasharray="150"><set attributeName="opacity" to="0" dur="9.0s" /><animate attributeName="stroke-dashoffset" from="150" to="0" dur="1.8s" begin="9.0s" fill="freeze" /></path><path d="M53.77,37.68c0.83,0.15,2.89-0.02,3.71-0.07c2.94-0.2,6.73-0.89,9.42-1.02c1.38-0.07,2.57-0.12,3.26-0.05" class="stroke" stroke-dasharray="150"><set attributeName="opacity" to="0" dur="10.2s" /><animate attributeName="stroke-dashoffset" from="150" to="0" dur="1.8s" begin="10.2s" fill="freeze" /></path><path d="M52.79,46.18c0.29,0.3,0.59,0.56,0.72,0.93c1.01,3,2.2,8.62,2.89,14.02" class="stroke" stroke-dasharray="150"><set attributeName="opacity" to="0" dur="11.1s" /><animate attributeName="stroke-dashoffset" from="150" to="0" dur="1.8s" begin="11.1s" fill="freeze" /></path><path d="M55.11,46.9c5.95-1.18,8.98-1.03,12.39-1.42c1.25-0.14,1.99,0.85,1.82,1.7c-0.74,3.51-0.76,5.8-1.85,10.65" class="stroke" stroke-dasharray="150"><set attributeName="opacity" to="0" dur="12.0s" /><animate attributeName="stroke-dashoffset" from="150" to="0" dur="1.8s" begin="12.0s" fill="freeze" /></path><path d="M56.23,59.35c4-0.45,8.52-0.85,12.98-1.14" class="stroke" stroke-dasharray="150"><set attributeName="opacity" to="0" dur="13.0s" /><animate attributeName="stroke-dashoffset" from="150" to="0" dur="1.8s" begin="13.0s" fill="freeze" /></path><path d="M69.55,10.97c0.97,1.14,1.76,1.67,2.01,4.1C73.79,36.77,80,54.75,92.51,62.81c3.91,2.52,3.22,0.91,2.73-4.15" class="stroke" stroke-dasharray="150"><set attributeName="opacity" to="0" dur="13.9s" /><animate attributeName="stroke-dashoffset" from="150" to="0" dur="1.8s" begin="13.9s" fill="freeze" /></path><path d="M89.81,33.64c0.05,0.68,0.11,1.76-0.11,2.73C88.35,42.13,80.86,55.26,70.25,63" class="stroke" stroke-dasharray="150"><set attributeName="opacity" to="0" dur="15.4s" /><animate attributeName="stroke-dashoffset" from="150" to="0" dur="1.8s" begin="15.4s" fill="freeze" /></path><path d="M80.5,11.5c2.58,1.13,6.7,3.71,7.9,5.64" class="stroke" stroke-dasharray="150"><set attributeName="opacity" to="0" dur="16.4s" /><animate attributeName="stroke-dashoffset" from="150" to="0" dur="1.8s" begin="16.4s" fill="freeze" /></path><path d="M47,76.75c0.26,2.14-2.63,11.61-4.74,15.18" class="stroke" stroke-dasharray="150"><set attributeName="opacity" to="0" dur="17.299999999999997s" /><animate attributeName="stroke-dashoffset" from="150" to="0" dur="1.8s" begin="17.299999999999997s" fill="freeze" /></path><path d="M53.5,71.25c8.57,16.34,16.9,23,30.33,23c8.42,0,6.87-3.84,2-7.84" class="stroke" stroke-dasharray="150"><set attributeName="opacity" to="0" dur="18.199999999999996s" /><animate attributeName="stroke-dashoffset" from="150" to="0" dur="1.8s" begin="18.199999999999996s" fill="freeze" /></path><path d="M69.58,73.9c3.07,7.64,5.25,6.49,5.94,2.47" class="stroke" stroke-dasharray="150"><set attributeName="opacity" to="0" dur="19.499999999999996s" /><animate attributeName="stroke-dashoffset" from="150" to="0" dur="1.8s" begin="19.499999999999996s" fill="freeze" /></path><path d="M85.5,72.75c5.04,2.53,8.29,4.99,12.25,9.11" class="stroke" stroke-dasharray="150"><set attributeName="opacity" to="0" dur="20.399999999999995s" /><animate attributeName="stroke-dashoffset" from="150" to="0" dur="1.8s" begin="20.399999999999995s" fill="freeze" /></path><text x="90" y="120" id="reset-kvg-08f57-Kaisho">⟳</text><text x="70" y="120" id="pause-kvg-08f57-Kaisho">◼</text><script type="text/javascript"><![CDATA[function RecurringTimer(e,t){var n,r,i=t;this.pause=function(){window.clearTimeout(n);i-=new Date-r};var s=function(){r=new Date;n=window.setTimeout(function(){i=t;s();e()},i)};this.clear=function(){window.clearTimeout(n);i=t;n=window.setTimeout(function(){i=t;s();e()},i)};this.resume=s;this.resume()}function invoketimer(){timer=new RecurringTimer(function(){svg.setCurrentTime(0)},22299.999999999993)}var svg=document.getElementById("kvg-08f57-Kaisho");var pause=document.getElementById("pause-kvg-08f57-Kaisho");var reset=document.getElementById("reset-kvg-08f57-Kaisho");var timer;invoketimer();reset.onclick=function(){svg.setCurrentTime(0);timer.clear();svg.unpauseAnimations();pause.innerHTML = "◼";};pause.onclick=function(){if(svg.animationsPaused()){svg.unpauseAnimations();timer.resume();pause.innerHTML="◼"}else{svg.pauseAnimations();timer.pause();pause.innerHTML="▶"}}]]></script></svg>