<svg id="kvg-08fa7-Kaisho" class="kanjivg" width="106" height="126" xmlns="http://www.w3.org/2000/svg" xmlns:xlink="http://www.w3.org/1999/xlink" xml:space="preserve" version="1.1" baseProfile="full"><defs><style type="text/css"><![CDATA[path.black{fill:none;stroke:black;stroke-width:5;stroke-linecap:round;stroke-linejoin:round;}path.grey{fill:none;stroke:#ddd;stroke-width:5;stroke-linecap:round;stroke-linejoin:round;}path.stroke{fill:none;stroke:black;stroke-width:5;stroke-linecap:round;stroke-linejoin:round;}rect{fill:none;stroke:#555;stroke-width:2;} text{font-size:16px;font-family:Segoe UI Symbol,Cambria Math,DejaVu Sans,Symbola,Quivira,STIX,Code2000;-webkit-touch-callout:none;cursor:pointer;-webkit-user-select:none;-khtml-user-select:none;-moz-user-select:none;-ms-user-select:none;user-select: none;}text:hover{color:#777;}#reset{font-weight:bold;}]]></style><marker id="markerStart" markerWidth="8" markerHeight="8" style="overflow:visible;"><circle cx="0" cy="0" r="1.5" style="stroke:none;fill:red;fill-opacity:0.5;"/></marker><marker id="markerEnd" style="overflow:visible;"><circle cx="0" cy="0" r="0.8" style="stroke:none;fill:blue;fill-opacity:0.5;"><animate attributeName="opacity" from="1" to="0" dur="3s" repeatCount="indefinite" /></circle></marker></defs><rect x="4" y="4" width="100" height="100" /><path d="M24.11,12.25c2.14,2,4.14,6,5.02,8.7" class="grey" /><path d="M12.35,29.2c0.83,0.33,1.8,0.38,2.62,0.33c4.67-0.28,16.24-2.53,23.31-2.77c1.38-0.05,2.21,0.16,2.9,0.32" class="grey" /><path d="M17,32.25c3.46,5.69,5.04,11.5,5.35,15.25" class="grey" /><path d="M35.26,30.25c0.54,0.54,0.61,1.82,0.54,2.27c-0.43,3.08-4.09,11.87-5.17,14.23" class="grey" /><path d="M10,51.8c1.04,0.39,2.26,0.57,3.29,0.39C20,51,31.75,48.75,37.37,48.7c1.73-0.02,2.77,0.19,3.63,0.38" class="grey" /><path d="M10.68,71.23c0.66,0.9,1.88,1.13,2.54,0.9C21.63,69.19,32,64,38.4,61.27" class="grey" /><path d="M27.03,52.13c0.58,0.59,1.36,2.17,1.31,3.37C28,64,25.75,83.5,14.25,98" class="grey" /><path d="M43.72,33.94c0.9,0.65,2,0.48,2.81,0.35c4.73-0.79,10.25-1.88,13.79-2.55c2.3-0.43,3.32,1.3,3.2,4.34C63,49,62.5,73.25,57.11,89.41c-2.24,6.71-5.36,3.59-7.82,0.21" class="grey" /><path d="M50.34,37.06c0.41,1.19,0.56,2.17,0.42,3.94C49.42,58.29,46,77.75,36.5,92.22" class="grey" /><path d="M76.94,11.25c2.83,2.61,4.56,4.75,5.74,8.7" class="grey" /><path d="M67.33,26.7c0.69,0.33,1.5,0.38,2.19,0.33c3.91-0.28,17.27-2.03,23.18-2.27c1.15-0.05,1.85,0.16,2.42,0.32" class="grey" /><path d="M72.03,30c3.03,5.22,4.41,10.56,4.69,14" class="grey" /><path d="M89.69,27.75c0.5,0.51,0.56,1.71,0.5,2.13c-0.41,2.9-3.81,11.15-4.82,13.37" class="grey" /><path d="M68.25,48.3c0.87,0.39,1.88,0.49,2.75,0.39c8.96-0.99,15.24-1.89,23.47-2.5c1.44-0.11,2.31,0.19,3.04,0.38" class="grey" /><path d="M68.88,65.45c0.78,0.47,2.22,0.6,3,0.47C77.5,65,87.25,64,93.18,63.02c1.29-0.21,2.09,0.22,2.74,0.46" class="grey" /><path d="M80.14,49.13c0.66,0.52,1.18,1.62,1.18,3.46c0,6.05-0.19,42.74-0.22,44.29" class="grey" /><path d="M24.11,12.25c2.14,2,4.14,6,5.02,8.7" class="stroke" stroke-dasharray="150"><animate attributeName="stroke-dashoffset" from="150" to="0" dur="1.8s" begin="0.0s" fill="freeze" /></path><path d="M12.35,29.2c0.83,0.33,1.8,0.38,2.62,0.33c4.67-0.28,16.24-2.53,23.31-2.77c1.38-0.05,2.21,0.16,2.9,0.32" class="stroke" stroke-dasharray="150"><set attributeName="opacity" to="0" dur="0.9s" /><animate attributeName="stroke-dashoffset" from="150" to="0" dur="1.8s" begin="0.9s" fill="freeze" /></path><path d="M17,32.25c3.46,5.69,5.04,11.5,5.35,15.25" class="stroke" stroke-dasharray="150"><set attributeName="opacity" to="0" dur="1.9s" /><animate attributeName="stroke-dashoffset" from="150" to="0" dur="1.8s" begin="1.9s" fill="freeze" /></path><path d="M35.26,30.25c0.54,0.54,0.61,1.82,0.54,2.27c-0.43,3.08-4.09,11.87-5.17,14.23" class="stroke" stroke-dasharray="150"><set attributeName="opacity" to="0" dur="2.8s" /><animate attributeName="stroke-dashoffset" from="150" to="0" dur="1.8s" begin="2.8s" fill="freeze" /></path><path d="M10,51.8c1.04,0.39,2.26,0.57,3.29,0.39C20,51,31.75,48.75,37.37,48.7c1.73-0.02,2.77,0.19,3.63,0.38" class="stroke" stroke-dasharray="150"><set attributeName="opacity" to="0" dur="3.6999999999999997s" /><animate attributeName="stroke-dashoffset" from="150" to="0" dur="1.8s" begin="3.6999999999999997s" fill="freeze" /></path><path d="M10.68,71.23c0.66,0.9,1.88,1.13,2.54,0.9C21.63,69.19,32,64,38.4,61.27" class="stroke" stroke-dasharray="150"><set attributeName="opacity" to="0" dur="4.699999999999999s" /><animate attributeName="stroke-dashoffset" from="150" to="0" dur="1.8s" begin="4.699999999999999s" fill="freeze" /></path><path d="M27.03,52.13c0.58,0.59,1.36,2.17,1.31,3.37C28,64,25.75,83.5,14.25,98" class="stroke" stroke-dasharray="150"><set attributeName="opacity" to="0" dur="5.699999999999999s" /><animate attributeName="stroke-dashoffset" from="150" to="0" dur="1.8s" begin="5.699999999999999s" fill="freeze" /></path><path d="M43.72,33.94c0.9,0.65,2,0.48,2.81,0.35c4.73-0.79,10.25-1.88,13.79-2.55c2.3-0.43,3.32,1.3,3.2,4.34C63,49,62.5,73.25,57.11,89.41c-2.24,6.71-5.36,3.59-7.82,0.21" class="stroke" stroke-dasharray="150"><set attributeName="opacity" to="0" dur="6.8999999999999995s" /><animate attributeName="stroke-dashoffset" from="150" to="0" dur="1.8s" begin="6.8999999999999995s" fill="freeze" /></path><path d="M50.34,37.06c0.41,1.19,0.56,2.17,0.42,3.94C49.42,58.29,46,77.75,36.5,92.22" class="stroke" stroke-dasharray="150"><set attributeName="opacity" to="0" dur="8.6s" /><animate attributeName="stroke-dashoffset" from="150" to="0" dur="1.8s" begin="8.6s" fill="freeze" /></path><path d="M76.94,11.25c2.83,2.61,4.56,4.75,5.74,8.7" class="stroke" stroke-dasharray="150"><set attributeName="opacity" to="0" dur="10.0s" /><animate attributeName="stroke-dashoffset" from="150" to="0" dur="1.8s" begin="10.0s" fill="freeze" /></path><path d="M67.33,26.7c0.69,0.33,1.5,0.38,2.19,0.33c3.91-0.28,17.27-2.03,23.18-2.27c1.15-0.05,1.85,0.16,2.42,0.32" class="stroke" stroke-dasharray="150"><set attributeName="opacity" to="0" dur="10.9s" /><animate attributeName="stroke-dashoffset" from="150" to="0" dur="1.8s" begin="10.9s" fill="freeze" /></path><path d="M72.03,30c3.03,5.22,4.41,10.56,4.69,14" class="stroke" stroke-dasharray="150"><set attributeName="opacity" to="0" dur="11.9s" /><animate attributeName="stroke-dashoffset" from="150" to="0" dur="1.8s" begin="11.9s" fill="freeze" /></path><path d="M89.69,27.75c0.5,0.51,0.56,1.71,0.5,2.13c-0.41,2.9-3.81,11.15-4.82,13.37" class="stroke" stroke-dasharray="150"><set attributeName="opacity" to="0" dur="12.8s" /><animate attributeName="stroke-dashoffset" from="150" to="0" dur="1.8s" begin="12.8s" fill="freeze" /></path><path d="M68.25,48.3c0.87,0.39,1.88,0.49,2.75,0.39c8.96-0.99,15.24-1.89,23.47-2.5c1.44-0.11,2.31,0.19,3.04,0.38" class="stroke" stroke-dasharray="150"><set attributeName="opacity" to="0" dur="13.700000000000001s" /><animate attributeName="stroke-dashoffset" from="150" to="0" dur="1.8s" begin="13.700000000000001s" fill="freeze" /></path><path d="M68.88,65.45c0.78,0.47,2.22,0.6,3,0.47C77.5,65,87.25,64,93.18,63.02c1.29-0.21,2.09,0.22,2.74,0.46" class="stroke" stroke-dasharray="150"><set attributeName="opacity" to="0" dur="14.700000000000001s" /><animate attributeName="stroke-dashoffset" from="150" to="0" dur="1.8s" begin="14.700000000000001s" fill="freeze" /></path><path d="M80.14,49.13c0.66,0.52,1.18,1.62,1.18,3.46c0,6.05-0.19,42.74-0.22,44.29" class="stroke" stroke-dasharray="150"><set attributeName="opacity" to="0" dur="15.700000000000001s" /><animate attributeName="stroke-dashoffset" from="150" to="0" dur="1.8s" begin="15.700000000000001s" fill="freeze" /></path><text x="90" y="120" id="reset-kvg-08fa7-Kaisho">⟳</text><text x="70" y="120" id="pause-kvg-08fa7-Kaisho">◼</text><script type="text/javascript"><![CDATA[function RecurringTimer(e,t){var n,r,i=t;this.pause=function(){window.clearTimeout(n);i-=new Date-r};var s=function(){r=new Date;n=window.setTimeout(function(){i=t;s();e()},i)};this.clear=function(){window.clearTimeout(n);i=t;n=window.setTimeout(function(){i=t;s();e()},i)};this.resume=s;this.resume()}function invoketimer(){timer=new RecurringTimer(function(){svg.setCurrentTime(0)},17900.000000000004)}var svg=document.getElementById("kvg-08fa7-Kaisho");var pause=document.getElementById("pause-kvg-08fa7-Kaisho");var reset=document.getElementById("reset-kvg-08fa7-Kaisho");var timer;invoketimer();reset.onclick=function(){svg.setCurrentTime(0);timer.clear();svg.unpauseAnimations();pause.innerHTML = "◼";};pause.onclick=function(){if(svg.animationsPaused()){svg.unpauseAnimations();timer.resume();pause.innerHTML="◼"}else{svg.pauseAnimations();timer.pause();pause.innerHTML="▶"}}]]></script></svg>