<svg id="kvg-09000" class="kanjivg" width="106" height="126" xmlns="http://www.w3.org/2000/svg" xmlns:xlink="http://www.w3.org/1999/xlink" xml:space="preserve" version="1.1" baseProfile="full"><defs><style type="text/css"><![CDATA[path.black{fill:none;stroke:black;stroke-width:5;stroke-linecap:round;stroke-linejoin:round;}path.grey{fill:none;stroke:#ddd;stroke-width:5;stroke-linecap:round;stroke-linejoin:round;}path.stroke{fill:none;stroke:black;stroke-width:5;stroke-linecap:round;stroke-linejoin:round;}rect{fill:none;stroke:#555;stroke-width:2;} text{font-size:16px;font-family:Segoe UI Symbol,Cambria Math,DejaVu Sans,Symbola,Quivira,STIX,Code2000;-webkit-touch-callout:none;cursor:pointer;-webkit-user-select:none;-khtml-user-select:none;-moz-user-select:none;-ms-user-select:none;user-select: none;}text:hover{color:#777;}#reset{font-weight:bold;}]]></style><marker id="markerStart" markerWidth="8" markerHeight="8" style="overflow:visible;"><circle cx="0" cy="0" r="1.5" style="stroke:none;fill:red;fill-opacity:0.5;"/></marker><marker id="markerEnd" style="overflow:visible;"><circle cx="0" cy="0" r="0.8" style="stroke:none;fill:blue;fill-opacity:0.5;"><animate attributeName="opacity" from="1" to="0" dur="3s" repeatCount="indefinite" /></circle></marker></defs><rect x="4" y="4" width="100" height="100" /><path d="M51.5,17.82c8.45-1.47,16.9-2.84,21.77-3.41c2.48-0.29,4.73,1.34,4.39,3.72c-0.7,5.04-2,14.91-2.88,20.42c-0.27,1.71-0.52,3.03-0.71,3.72" class="grey" /><path d="M51.65,29.88c6.72-0.88,18.76-2.4,23.81-2.82" class="grey" /><path d="M51.59,42.87c8.28-1.37,13.83-1.83,21.66-2.65" class="grey" /><path d="M48.54,16.69c1.33,1.06,1.89,2.94,1.89,4.98c0,3.84-0.01,47.81-0.01,50.48c0,4.23,2.11,4.47,4.58,2.1c3-2.88,6.88-6.12,10.19-8.81" class="grey" /><path d="M83.12,42.62c0,1.01-0.32,2.25-1.27,3.19c-4.35,4.31-6.97,6.56-11.37,10.04" class="grey" /><path d="M64.25,53c6,3.5,13.5,9.5,21.54,21.79" class="grey" /><path d="M20,18.88c3.97,1.85,10.26,7.62,11.25,10.51" class="grey" /><path d="M13.25,50.5C15.5,51.5,17,51,18,50.75s9.25-3.5,10.75-4s3.64,1.18,2.75,2.75c-8,14-8,10.25-0.25,19.25c1.09,1.27,0.75,2.75-0.75,4S21.5,81,20,81.5" class="grey" /><path d="M15.5,83.5c3-0.5,8.91-1.16,13.5-0.75c8.5,0.75,30.03,7.88,34.5,9c12.5,3.12,15.75,3.62,24.75,4" class="grey" /><path d="M51.5,17.82c8.45-1.47,16.9-2.84,21.77-3.41c2.48-0.29,4.73,1.34,4.39,3.72c-0.7,5.04-2,14.91-2.88,20.42c-0.27,1.71-0.52,3.03-0.71,3.72" class="stroke" stroke-dasharray="150"><animate attributeName="stroke-dashoffset" from="150" to="0" dur="1.8s" begin="0.0s" fill="freeze" /></path><path d="M51.65,29.88c6.72-0.88,18.76-2.4,23.81-2.82" class="stroke" stroke-dasharray="150"><set attributeName="opacity" to="0" dur="1.3s" /><animate attributeName="stroke-dashoffset" from="150" to="0" dur="1.8s" begin="1.3s" fill="freeze" /></path><path d="M51.59,42.87c8.28-1.37,13.83-1.83,21.66-2.65" class="stroke" stroke-dasharray="150"><set attributeName="opacity" to="0" dur="2.3s" /><animate attributeName="stroke-dashoffset" from="150" to="0" dur="1.8s" begin="2.3s" fill="freeze" /></path><path d="M48.54,16.69c1.33,1.06,1.89,2.94,1.89,4.98c0,3.84-0.01,47.81-0.01,50.48c0,4.23,2.11,4.47,4.58,2.1c3-2.88,6.88-6.12,10.19-8.81" class="stroke" stroke-dasharray="150"><set attributeName="opacity" to="0" dur="3.3s" /><animate attributeName="stroke-dashoffset" from="150" to="0" dur="1.8s" begin="3.3s" fill="freeze" /></path><path d="M83.12,42.62c0,1.01-0.32,2.25-1.27,3.19c-4.35,4.31-6.97,6.56-11.37,10.04" class="stroke" stroke-dasharray="150"><set attributeName="opacity" to="0" dur="5.0s" /><animate attributeName="stroke-dashoffset" from="150" to="0" dur="1.8s" begin="5.0s" fill="freeze" /></path><path d="M64.25,53c6,3.5,13.5,9.5,21.54,21.79" class="stroke" stroke-dasharray="150"><set attributeName="opacity" to="0" dur="5.9s" /><animate attributeName="stroke-dashoffset" from="150" to="0" dur="1.8s" begin="5.9s" fill="freeze" /></path><path d="M20,18.88c3.97,1.85,10.26,7.62,11.25,10.51" class="stroke" stroke-dasharray="150"><set attributeName="opacity" to="0" dur="6.9s" /><animate attributeName="stroke-dashoffset" from="150" to="0" dur="1.8s" begin="6.9s" fill="freeze" /></path><path d="M13.25,50.5C15.5,51.5,17,51,18,50.75s9.25-3.5,10.75-4s3.64,1.18,2.75,2.75c-8,14-8,10.25-0.25,19.25c1.09,1.27,0.75,2.75-0.75,4S21.5,81,20,81.5" class="stroke" stroke-dasharray="150"><set attributeName="opacity" to="0" dur="7.800000000000001s" /><animate attributeName="stroke-dashoffset" from="150" to="0" dur="1.8s" begin="7.800000000000001s" fill="freeze" /></path><path d="M15.5,83.5c3-0.5,8.91-1.16,13.5-0.75c8.5,0.75,30.03,7.88,34.5,9c12.5,3.12,15.75,3.62,24.75,4" class="stroke" stroke-dasharray="150"><set attributeName="opacity" to="0" dur="9.3s" /><animate attributeName="stroke-dashoffset" from="150" to="0" dur="1.8s" begin="9.3s" fill="freeze" /></path><text x="90" y="120" id="reset-kvg-09000">⟳</text><text x="70" y="120" id="pause-kvg-09000">◼</text><script type="text/javascript"><![CDATA[function RecurringTimer(e,t){var n,r,i=t;this.pause=function(){window.clearTimeout(n);i-=new Date-r};var s=function(){r=new Date;n=window.setTimeout(function(){i=t;s();e()},i)};this.clear=function(){window.clearTimeout(n);i=t;n=window.setTimeout(function(){i=t;s();e()},i)};this.resume=s;this.resume()}function invoketimer(){timer=new RecurringTimer(function(){svg.setCurrentTime(0)},12000.0)}var svg=document.getElementById("kvg-09000");var pause=document.getElementById("pause-kvg-09000");var reset=document.getElementById("reset-kvg-09000");var timer;invoketimer();reset.onclick=function(){svg.setCurrentTime(0);timer.clear();svg.unpauseAnimations();pause.innerHTML = "◼";};pause.onclick=function(){if(svg.animationsPaused()){svg.unpauseAnimations();timer.resume();pause.innerHTML="◼"}else{svg.pauseAnimations();timer.pause();pause.innerHTML="▶"}}]]></script></svg>