<svg id="kvg-09031" class="kanjivg" width="106" height="126" xmlns="http://www.w3.org/2000/svg" xmlns:xlink="http://www.w3.org/1999/xlink" xml:space="preserve" version="1.1" baseProfile="full"><defs><style type="text/css"><![CDATA[path.black{fill:none;stroke:black;stroke-width:5;stroke-linecap:round;stroke-linejoin:round;}path.grey{fill:none;stroke:#ddd;stroke-width:5;stroke-linecap:round;stroke-linejoin:round;}path.stroke{fill:none;stroke:black;stroke-width:5;stroke-linecap:round;stroke-linejoin:round;}rect{fill:none;stroke:#555;stroke-width:2;} text{font-size:16px;font-family:Segoe UI Symbol,Cambria Math,DejaVu Sans,Symbola,Quivira,STIX,Code2000;-webkit-touch-callout:none;cursor:pointer;-webkit-user-select:none;-khtml-user-select:none;-moz-user-select:none;-ms-user-select:none;user-select: none;}text:hover{color:#777;}#reset{font-weight:bold;}]]></style><marker id="markerStart" markerWidth="8" markerHeight="8" style="overflow:visible;"><circle cx="0" cy="0" r="1.5" style="stroke:none;fill:red;fill-opacity:0.5;"/></marker><marker id="markerEnd" style="overflow:visible;"><circle cx="0" cy="0" r="0.8" style="stroke:none;fill:blue;fill-opacity:0.5;"><animate attributeName="opacity" from="1" to="0" dur="3s" repeatCount="indefinite" /></circle></marker></defs><rect x="4" y="4" width="100" height="100" /><path d="M45.93,17.66c1.02,1.02,1.67,2.55,1.67,4.3c0,21.04,2.53,45.54-8.1,58.79" class="grey" /><path d="M48.49,18.95c9.79-1.25,32.29-4.39,33.41-4.45c4.34-0.24,5.42,1.26,5.42,5.64c0,1.93,0.17,52.16,0.17,56.6c0,9.53-5.28,4.86-8.4,1.69" class="grey" /><path d="M55.43,31.42c0.83,0.25,2.88,0.54,3.72,0.51c4.54-0.18,13.51-1.92,16.84-2.23c1.39-0.13,2.22-0.07,2.91,0.03" class="grey" /><path d="M65.84,22.3c0.99,0.99,1.51,2.32,1.51,3.39c0,3.19-0.07,10.44-0.07,16.81" class="grey" /><path d="M53.61,44.53c1,0.35,2.64,0.41,4.31,0.23C65,44,70.38,43.38,77.01,42.4c1.84-0.27,3.25-0.4,4.81-0.26" class="grey" /><path d="M56.17,53.75c1.08,0.75,1.6,2.01,1.71,2.97c0.5,4.53,1.05,6.63,1.48,10.27c0.17,1.46,0.3,2.58,0.34,2.94" class="grey" /><path d="M58.6,55.4c5.86-1.39,13.69-2.83,16.29-3.02c1.73-0.13,2.48,1,2.28,2.58c-0.38,2.92-1.34,5.94-2.12,9.61" class="grey" /><path d="M60.65,67.64c2.32-0.44,8.3-1.1,13.1-1.63c1.43-0.16,2.69-0.28,3.61-0.34" class="grey" /><path d="M20.71,19c3.1,1.41,8.02,5.8,8.79,8" class="grey" /><path d="M13.25,54.95c2.25,0.92,4.29,0.84,5.25,0.48c2.5-0.93,8.31-4.06,9.75-4.68c2.88-1.24,4.14,0.9,1.5,3.78c-6.38,6.98-6,8.23-0.75,14.1c1.83,2.04,2.03,3.44-1.5,6.12c-5.25,4-7.5,5.75-10.75,8.5" class="grey" /><path d="M13.75,85.75c4.12-0.88,10.41-0.97,15-0.5c7.25,0.75,29.97,5.13,34.5,6c13,2.5,21.25,4.5,30.25,2.75" class="grey" /><path d="M45.93,17.66c1.02,1.02,1.67,2.55,1.67,4.3c0,21.04,2.53,45.54-8.1,58.79" class="stroke" stroke-dasharray="150"><animate attributeName="stroke-dashoffset" from="150" to="0" dur="1.8s" begin="0.0s" fill="freeze" /></path><path d="M48.49,18.95c9.79-1.25,32.29-4.39,33.41-4.45c4.34-0.24,5.42,1.26,5.42,5.64c0,1.93,0.17,52.16,0.17,56.6c0,9.53-5.28,4.86-8.4,1.69" class="stroke" stroke-dasharray="150"><set attributeName="opacity" to="0" dur="1.5s" /><animate attributeName="stroke-dashoffset" from="150" to="0" dur="1.8s" begin="1.5s" fill="freeze" /></path><path d="M55.43,31.42c0.83,0.25,2.88,0.54,3.72,0.51c4.54-0.18,13.51-1.92,16.84-2.23c1.39-0.13,2.22-0.07,2.91,0.03" class="stroke" stroke-dasharray="150"><set attributeName="opacity" to="0" dur="3.5s" /><animate attributeName="stroke-dashoffset" from="150" to="0" dur="1.8s" begin="3.5s" fill="freeze" /></path><path d="M65.84,22.3c0.99,0.99,1.51,2.32,1.51,3.39c0,3.19-0.07,10.44-0.07,16.81" class="stroke" stroke-dasharray="150"><set attributeName="opacity" to="0" dur="4.5s" /><animate attributeName="stroke-dashoffset" from="150" to="0" dur="1.8s" begin="4.5s" fill="freeze" /></path><path d="M53.61,44.53c1,0.35,2.64,0.41,4.31,0.23C65,44,70.38,43.38,77.01,42.4c1.84-0.27,3.25-0.4,4.81-0.26" class="stroke" stroke-dasharray="150"><set attributeName="opacity" to="0" dur="5.5s" /><animate attributeName="stroke-dashoffset" from="150" to="0" dur="1.8s" begin="5.5s" fill="freeze" /></path><path d="M56.17,53.75c1.08,0.75,1.6,2.01,1.71,2.97c0.5,4.53,1.05,6.63,1.48,10.27c0.17,1.46,0.3,2.58,0.34,2.94" class="stroke" stroke-dasharray="150"><set attributeName="opacity" to="0" dur="6.5s" /><animate attributeName="stroke-dashoffset" from="150" to="0" dur="1.8s" begin="6.5s" fill="freeze" /></path><path d="M58.6,55.4c5.86-1.39,13.69-2.83,16.29-3.02c1.73-0.13,2.48,1,2.28,2.58c-0.38,2.92-1.34,5.94-2.12,9.61" class="stroke" stroke-dasharray="150"><set attributeName="opacity" to="0" dur="7.4s" /><animate attributeName="stroke-dashoffset" from="150" to="0" dur="1.8s" begin="7.4s" fill="freeze" /></path><path d="M60.65,67.64c2.32-0.44,8.3-1.1,13.1-1.63c1.43-0.16,2.69-0.28,3.61-0.34" class="stroke" stroke-dasharray="150"><set attributeName="opacity" to="0" dur="8.4s" /><animate attributeName="stroke-dashoffset" from="150" to="0" dur="1.8s" begin="8.4s" fill="freeze" /></path><path d="M20.71,19c3.1,1.41,8.02,5.8,8.79,8" class="stroke" stroke-dasharray="150"><set attributeName="opacity" to="0" dur="9.3s" /><animate attributeName="stroke-dashoffset" from="150" to="0" dur="1.8s" begin="9.3s" fill="freeze" /></path><path d="M13.25,54.95c2.25,0.92,4.29,0.84,5.25,0.48c2.5-0.93,8.31-4.06,9.75-4.68c2.88-1.24,4.14,0.9,1.5,3.78c-6.38,6.98-6,8.23-0.75,14.1c1.83,2.04,2.03,3.44-1.5,6.12c-5.25,4-7.5,5.75-10.75,8.5" class="stroke" stroke-dasharray="150"><set attributeName="opacity" to="0" dur="10.200000000000001s" /><animate attributeName="stroke-dashoffset" from="150" to="0" dur="1.8s" begin="10.200000000000001s" fill="freeze" /></path><path d="M13.75,85.75c4.12-0.88,10.41-0.97,15-0.5c7.25,0.75,29.97,5.13,34.5,6c13,2.5,21.25,4.5,30.25,2.75" class="stroke" stroke-dasharray="150"><set attributeName="opacity" to="0" dur="11.700000000000001s" /><animate attributeName="stroke-dashoffset" from="150" to="0" dur="1.8s" begin="11.700000000000001s" fill="freeze" /></path><text x="90" y="120" id="reset-kvg-09031">⟳</text><text x="70" y="120" id="pause-kvg-09031">◼</text><script type="text/javascript"><![CDATA[function RecurringTimer(e,t){var n,r,i=t;this.pause=function(){window.clearTimeout(n);i-=new Date-r};var s=function(){r=new Date;n=window.setTimeout(function(){i=t;s();e()},i)};this.clear=function(){window.clearTimeout(n);i=t;n=window.setTimeout(function(){i=t;s();e()},i)};this.resume=s;this.resume()}function invoketimer(){timer=new RecurringTimer(function(){svg.setCurrentTime(0)},14400.0)}var svg=document.getElementById("kvg-09031");var pause=document.getElementById("pause-kvg-09031");var reset=document.getElementById("reset-kvg-09031");var timer;invoketimer();reset.onclick=function(){svg.setCurrentTime(0);timer.clear();svg.unpauseAnimations();pause.innerHTML = "◼";};pause.onclick=function(){if(svg.animationsPaused()){svg.unpauseAnimations();timer.resume();pause.innerHTML="◼"}else{svg.pauseAnimations();timer.pause();pause.innerHTML="▶"}}]]></script></svg>