<svg id="kvg-09039" class="kanjivg" width="106" height="126" xmlns="http://www.w3.org/2000/svg" xmlns:xlink="http://www.w3.org/1999/xlink" xml:space="preserve" version="1.1" baseProfile="full"><defs><style type="text/css"><![CDATA[path.black{fill:none;stroke:black;stroke-width:5;stroke-linecap:round;stroke-linejoin:round;}path.grey{fill:none;stroke:#ddd;stroke-width:5;stroke-linecap:round;stroke-linejoin:round;}path.stroke{fill:none;stroke:black;stroke-width:5;stroke-linecap:round;stroke-linejoin:round;}rect{fill:none;stroke:#555;stroke-width:2;} text{font-size:16px;font-family:Segoe UI Symbol,Cambria Math,DejaVu Sans,Symbola,Quivira,STIX,Code2000;-webkit-touch-callout:none;cursor:pointer;-webkit-user-select:none;-khtml-user-select:none;-moz-user-select:none;-ms-user-select:none;user-select: none;}text:hover{color:#777;}#reset{font-weight:bold;}]]></style><marker id="markerStart" markerWidth="8" markerHeight="8" style="overflow:visible;"><circle cx="0" cy="0" r="1.5" style="stroke:none;fill:red;fill-opacity:0.5;"/></marker><marker id="markerEnd" style="overflow:visible;"><circle cx="0" cy="0" r="0.8" style="stroke:none;fill:blue;fill-opacity:0.5;"><animate attributeName="opacity" from="1" to="0" dur="3s" repeatCount="indefinite" /></circle></marker></defs><rect x="4" y="4" width="100" height="100" /><path d="M46.8,23.4c1.03,0.5,2.91,0.57,3.95,0.5c9-0.64,23-2.14,32.04-2.59c1.72-0.08,2.75,0.24,3.61,0.48" class="grey" /><path d="M64.6,11c0.08,0.25,1.22,1.3,1.22,2.89c0,10.32-0.13,18.17-0.13,20.76" class="grey" /><path d="M39.88,37.42c1.46,0.61,4.13,0.71,5.6,0.61c11.28-0.78,29.78-3.53,45.55-3.44c2.43,0.02,3.89,0.29,5.11,0.6" class="grey" /><path d="M53.04,40.13c1.86,1.91,4.82,7.86,5.28,10.83" class="grey" /><path d="M79.19,39.26c0.02,0.27,0.04,0.7-0.04,1.08c-0.43,2.29-2.88,7.3-6.24,10.37" class="grey" /><path d="M45.44,54.89c0.65,0.36,2.87,0.39,3.52,0.33c4.47-0.43,27.96-2.7,35.59-3.41c1.07-0.1,3.33,0.31,3.87,0.49" class="grey" /><path d="M38.77,68.41c1.7,0.67,4.82,0.85,6.51,0.67c11.66-1.25,30.6-2.95,44.02-3.4c2.83-0.09,4.53,0.32,5.95,0.65" class="grey" /><path d="M65.37,54.62c0.37,0.43,1.16,2.4,1.23,3.26c0.07,0.87-0.05,22.69-0.12,28.11" class="grey" /><path d="M16.46,13.25c4.25,1.61,10.98,6.63,12.04,9.13" class="grey" /><path d="M12.71,33.25c4.43,1.57,11.44,6.45,12.54,8.88" class="grey" /><path d="M11,55.94c2.25,0.85,3.75,0.43,4.75,0.21c1-0.21,8-2.99,9.5-3.42c1.5-0.43,3.75,1.07,2.75,2.35s-5,6.69-5.75,7.76c-0.75,1.07-0.5,2.99,1,4.48s3.25,3.7,4,4.98C28,73.59,28,74.66,26.5,75.73c-1.5,1.07-7.25,5.52-10,6.97" class="grey" /><path d="M11.75,84.22c3.07-0.53,12.11-0.32,16.8,0.2c7.45,0.83,27.75,7.22,32.27,8.59c12.27,3.73,21.73,4.8,30.93,2.93" class="grey" /><path d="M46.8,23.4c1.03,0.5,2.91,0.57,3.95,0.5c9-0.64,23-2.14,32.04-2.59c1.72-0.08,2.75,0.24,3.61,0.48" class="stroke" stroke-dasharray="150"><animate attributeName="stroke-dashoffset" from="150" to="0" dur="1.8s" begin="0.0s" fill="freeze" /></path><path d="M64.6,11c0.08,0.25,1.22,1.3,1.22,2.89c0,10.32-0.13,18.17-0.13,20.76" class="stroke" stroke-dasharray="150"><set attributeName="opacity" to="0" dur="1.0s" /><animate attributeName="stroke-dashoffset" from="150" to="0" dur="1.8s" begin="1.0s" fill="freeze" /></path><path d="M39.88,37.42c1.46,0.61,4.13,0.71,5.6,0.61c11.28-0.78,29.78-3.53,45.55-3.44c2.43,0.02,3.89,0.29,5.11,0.6" class="stroke" stroke-dasharray="150"><set attributeName="opacity" to="0" dur="2.0s" /><animate attributeName="stroke-dashoffset" from="150" to="0" dur="1.8s" begin="2.0s" fill="freeze" /></path><path d="M53.04,40.13c1.86,1.91,4.82,7.86,5.28,10.83" class="stroke" stroke-dasharray="150"><set attributeName="opacity" to="0" dur="3.4s" /><animate attributeName="stroke-dashoffset" from="150" to="0" dur="1.8s" begin="3.4s" fill="freeze" /></path><path d="M79.19,39.26c0.02,0.27,0.04,0.7-0.04,1.08c-0.43,2.29-2.88,7.3-6.24,10.37" class="stroke" stroke-dasharray="150"><set attributeName="opacity" to="0" dur="4.3s" /><animate attributeName="stroke-dashoffset" from="150" to="0" dur="1.8s" begin="4.3s" fill="freeze" /></path><path d="M45.44,54.89c0.65,0.36,2.87,0.39,3.52,0.33c4.47-0.43,27.96-2.7,35.59-3.41c1.07-0.1,3.33,0.31,3.87,0.49" class="stroke" stroke-dasharray="150"><set attributeName="opacity" to="0" dur="5.2s" /><animate attributeName="stroke-dashoffset" from="150" to="0" dur="1.8s" begin="5.2s" fill="freeze" /></path><path d="M38.77,68.41c1.7,0.67,4.82,0.85,6.51,0.67c11.66-1.25,30.6-2.95,44.02-3.4c2.83-0.09,4.53,0.32,5.95,0.65" class="stroke" stroke-dasharray="150"><set attributeName="opacity" to="0" dur="6.300000000000001s" /><animate attributeName="stroke-dashoffset" from="150" to="0" dur="1.8s" begin="6.300000000000001s" fill="freeze" /></path><path d="M65.37,54.62c0.37,0.43,1.16,2.4,1.23,3.26c0.07,0.87-0.05,22.69-0.12,28.11" class="stroke" stroke-dasharray="150"><set attributeName="opacity" to="0" dur="7.700000000000001s" /><animate attributeName="stroke-dashoffset" from="150" to="0" dur="1.8s" begin="7.700000000000001s" fill="freeze" /></path><path d="M16.46,13.25c4.25,1.61,10.98,6.63,12.04,9.13" class="stroke" stroke-dasharray="150"><set attributeName="opacity" to="0" dur="8.700000000000001s" /><animate attributeName="stroke-dashoffset" from="150" to="0" dur="1.8s" begin="8.700000000000001s" fill="freeze" /></path><path d="M12.71,33.25c4.43,1.57,11.44,6.45,12.54,8.88" class="stroke" stroke-dasharray="150"><set attributeName="opacity" to="0" dur="9.600000000000001s" /><animate attributeName="stroke-dashoffset" from="150" to="0" dur="1.8s" begin="9.600000000000001s" fill="freeze" /></path><path d="M11,55.94c2.25,0.85,3.75,0.43,4.75,0.21c1-0.21,8-2.99,9.5-3.42c1.5-0.43,3.75,1.07,2.75,2.35s-5,6.69-5.75,7.76c-0.75,1.07-0.5,2.99,1,4.48s3.25,3.7,4,4.98C28,73.59,28,74.66,26.5,75.73c-1.5,1.07-7.25,5.52-10,6.97" class="stroke" stroke-dasharray="150"><set attributeName="opacity" to="0" dur="10.500000000000002s" /><animate attributeName="stroke-dashoffset" from="150" to="0" dur="1.8s" begin="10.500000000000002s" fill="freeze" /></path><path d="M11.75,84.22c3.07-0.53,12.11-0.32,16.8,0.2c7.45,0.83,27.75,7.22,32.27,8.59c12.27,3.73,21.73,4.8,30.93,2.93" class="stroke" stroke-dasharray="150"><set attributeName="opacity" to="0" dur="11.900000000000002s" /><animate attributeName="stroke-dashoffset" from="150" to="0" dur="1.8s" begin="11.900000000000002s" fill="freeze" /></path><text x="90" y="120" id="reset-kvg-09039">⟳</text><text x="70" y="120" id="pause-kvg-09039">◼</text><script type="text/javascript"><![CDATA[function RecurringTimer(e,t){var n,r,i=t;this.pause=function(){window.clearTimeout(n);i-=new Date-r};var s=function(){r=new Date;n=window.setTimeout(function(){i=t;s();e()},i)};this.clear=function(){window.clearTimeout(n);i=t;n=window.setTimeout(function(){i=t;s();e()},i)};this.resume=s;this.resume()}function invoketimer(){timer=new RecurringTimer(function(){svg.setCurrentTime(0)},14600.000000000002)}var svg=document.getElementById("kvg-09039");var pause=document.getElementById("pause-kvg-09039");var reset=document.getElementById("reset-kvg-09039");var timer;invoketimer();reset.onclick=function(){svg.setCurrentTime(0);timer.clear();svg.unpauseAnimations();pause.innerHTML = "◼";};pause.onclick=function(){if(svg.animationsPaused()){svg.unpauseAnimations();timer.resume();pause.innerHTML="◼"}else{svg.pauseAnimations();timer.pause();pause.innerHTML="▶"}}]]></script></svg>