<svg id="kvg-09054" class="kanjivg" width="106" height="126" xmlns="http://www.w3.org/2000/svg" xmlns:xlink="http://www.w3.org/1999/xlink" xml:space="preserve" version="1.1" baseProfile="full"><defs><style type="text/css"><![CDATA[path.black{fill:none;stroke:black;stroke-width:5;stroke-linecap:round;stroke-linejoin:round;}path.grey{fill:none;stroke:#ddd;stroke-width:5;stroke-linecap:round;stroke-linejoin:round;}path.stroke{fill:none;stroke:black;stroke-width:5;stroke-linecap:round;stroke-linejoin:round;}rect{fill:none;stroke:#555;stroke-width:2;} text{font-size:16px;font-family:Segoe UI Symbol,Cambria Math,DejaVu Sans,Symbola,Quivira,STIX,Code2000;-webkit-touch-callout:none;cursor:pointer;-webkit-user-select:none;-khtml-user-select:none;-moz-user-select:none;-ms-user-select:none;user-select: none;}text:hover{color:#777;}#reset{font-weight:bold;}]]></style><marker id="markerStart" markerWidth="8" markerHeight="8" style="overflow:visible;"><circle cx="0" cy="0" r="1.5" style="stroke:none;fill:red;fill-opacity:0.5;"/></marker><marker id="markerEnd" style="overflow:visible;"><circle cx="0" cy="0" r="0.8" style="stroke:none;fill:blue;fill-opacity:0.5;"><animate attributeName="opacity" from="1" to="0" dur="3s" repeatCount="indefinite" /></circle></marker></defs><rect x="4" y="4" width="100" height="100" /><path d="M48.18,21.38c1.2,0.3,3.67,0.24,4.86,0.05c4.89-0.81,14.39-2.56,20.19-3.4c1.98-0.29,3.46-0.11,4.46,0.04" class="grey" /><path d="M61.98,9.87c0.92,0.92,1.77,2.27,1.77,4.14c0,6.12,0.14,12.5,0.14,17.11" class="grey" /><path d="M37.43,34.73c2.75,0.52,4.98,0.25,6.71,0.04C58.57,33,68.7,31.12,84.43,29.79c2.9-0.25,4.92,0.01,6.38,0.28" class="grey" /><path d="M52.7,36.6c1.68,1.27,4.35,5.4,4.77,7.52" class="grey" /><path d="M75,32.85c0.31,0.52,0.33,1.58,0.22,1.89c-0.79,2.26-1.79,4.63-4.39,8.53" class="grey" /><path d="M45.39,48.03c1.17,0.21,3.3,0.28,4.47,0.12c8.33-1.15,20.7-3.52,28.28-3.84c1.94-0.08,3.11,0.03,4.08,0.13" class="grey" /><path d="M46.56,59.82c1.4,0.28,3.99,0.38,5.38,0.16c9.52-1.48,13.4-2.73,23.03-3.76c2.32-0.25,3.75-0.21,4.92-0.08" class="grey" /><path d="M39.79,71.77c1.54,0.3,4.36,0.34,5.9,0.15c12.25-1.54,27.25-3.92,39.63-4.86c2.55-0.19,4.1,0.03,5.38,0.16" class="grey" /><path d="M63.47,49.05c1.02,1.02,1.3,2.47,1.3,3.51c0,3.62,0.05,18.16,0.07,27.2c0,1.75,0.01,3.29,0.01,4.5" class="grey" /><path d="M15.43,20.12c4.1,1.63,10.6,6.72,11.62,9.26" class="grey" /><path d="M12.06,57.42c2.25,0.91,3.75,0.46,4.75,0.23s8-4.48,9.33-5.31c1.33-0.83,3.37,0.25,2.17,2.33c-7.75,13.33-7.62,8.21,0.25,15.58c1.64,1.53,1.08,3.25-0.75,5.26c-1.27,1.39-6,5.49-9.5,7.99" class="grey" /><path d="M14.56,85c3-0.5,8.33-0.8,13.75-0.5c6.88,0.38,29.98,5.08,34.5,6c13.5,2.75,18.38,3.75,27.75,4.25" class="grey" /><path d="M48.18,21.38c1.2,0.3,3.67,0.24,4.86,0.05c4.89-0.81,14.39-2.56,20.19-3.4c1.98-0.29,3.46-0.11,4.46,0.04" class="stroke" stroke-dasharray="150"><animate attributeName="stroke-dashoffset" from="150" to="0" dur="1.8s" begin="0.0s" fill="freeze" /></path><path d="M61.98,9.87c0.92,0.92,1.77,2.27,1.77,4.14c0,6.12,0.14,12.5,0.14,17.11" class="stroke" stroke-dasharray="150"><set attributeName="opacity" to="0" dur="1.0s" /><animate attributeName="stroke-dashoffset" from="150" to="0" dur="1.8s" begin="1.0s" fill="freeze" /></path><path d="M37.43,34.73c2.75,0.52,4.98,0.25,6.71,0.04C58.57,33,68.7,31.12,84.43,29.79c2.9-0.25,4.92,0.01,6.38,0.28" class="stroke" stroke-dasharray="150"><set attributeName="opacity" to="0" dur="2.0s" /><animate attributeName="stroke-dashoffset" from="150" to="0" dur="1.8s" begin="2.0s" fill="freeze" /></path><path d="M52.7,36.6c1.68,1.27,4.35,5.4,4.77,7.52" class="stroke" stroke-dasharray="150"><set attributeName="opacity" to="0" dur="3.3s" /><animate attributeName="stroke-dashoffset" from="150" to="0" dur="1.8s" begin="3.3s" fill="freeze" /></path><path d="M75,32.85c0.31,0.52,0.33,1.58,0.22,1.89c-0.79,2.26-1.79,4.63-4.39,8.53" class="stroke" stroke-dasharray="150"><set attributeName="opacity" to="0" dur="4.2s" /><animate attributeName="stroke-dashoffset" from="150" to="0" dur="1.8s" begin="4.2s" fill="freeze" /></path><path d="M45.39,48.03c1.17,0.21,3.3,0.28,4.47,0.12c8.33-1.15,20.7-3.52,28.28-3.84c1.94-0.08,3.11,0.03,4.08,0.13" class="stroke" stroke-dasharray="150"><set attributeName="opacity" to="0" dur="5.1000000000000005s" /><animate attributeName="stroke-dashoffset" from="150" to="0" dur="1.8s" begin="5.1000000000000005s" fill="freeze" /></path><path d="M46.56,59.82c1.4,0.28,3.99,0.38,5.38,0.16c9.52-1.48,13.4-2.73,23.03-3.76c2.32-0.25,3.75-0.21,4.92-0.08" class="stroke" stroke-dasharray="150"><set attributeName="opacity" to="0" dur="6.1000000000000005s" /><animate attributeName="stroke-dashoffset" from="150" to="0" dur="1.8s" begin="6.1000000000000005s" fill="freeze" /></path><path d="M39.79,71.77c1.54,0.3,4.36,0.34,5.9,0.15c12.25-1.54,27.25-3.92,39.63-4.86c2.55-0.19,4.1,0.03,5.38,0.16" class="stroke" stroke-dasharray="150"><set attributeName="opacity" to="0" dur="7.1000000000000005s" /><animate attributeName="stroke-dashoffset" from="150" to="0" dur="1.8s" begin="7.1000000000000005s" fill="freeze" /></path><path d="M63.47,49.05c1.02,1.02,1.3,2.47,1.3,3.51c0,3.62,0.05,18.16,0.07,27.2c0,1.75,0.01,3.29,0.01,4.5" class="stroke" stroke-dasharray="150"><set attributeName="opacity" to="0" dur="8.4s" /><animate attributeName="stroke-dashoffset" from="150" to="0" dur="1.8s" begin="8.4s" fill="freeze" /></path><path d="M15.43,20.12c4.1,1.63,10.6,6.72,11.62,9.26" class="stroke" stroke-dasharray="150"><set attributeName="opacity" to="0" dur="9.4s" /><animate attributeName="stroke-dashoffset" from="150" to="0" dur="1.8s" begin="9.4s" fill="freeze" /></path><path d="M12.06,57.42c2.25,0.91,3.75,0.46,4.75,0.23s8-4.48,9.33-5.31c1.33-0.83,3.37,0.25,2.17,2.33c-7.75,13.33-7.62,8.21,0.25,15.58c1.64,1.53,1.08,3.25-0.75,5.26c-1.27,1.39-6,5.49-9.5,7.99" class="stroke" stroke-dasharray="150"><set attributeName="opacity" to="0" dur="10.3s" /><animate attributeName="stroke-dashoffset" from="150" to="0" dur="1.8s" begin="10.3s" fill="freeze" /></path><path d="M14.56,85c3-0.5,8.33-0.8,13.75-0.5c6.88,0.38,29.98,5.08,34.5,6c13.5,2.75,18.38,3.75,27.75,4.25" class="stroke" stroke-dasharray="150"><set attributeName="opacity" to="0" dur="11.700000000000001s" /><animate attributeName="stroke-dashoffset" from="150" to="0" dur="1.8s" begin="11.700000000000001s" fill="freeze" /></path><text x="90" y="120" id="reset-kvg-09054">⟳</text><text x="70" y="120" id="pause-kvg-09054">◼</text><script type="text/javascript"><![CDATA[function RecurringTimer(e,t){var n,r,i=t;this.pause=function(){window.clearTimeout(n);i-=new Date-r};var s=function(){r=new Date;n=window.setTimeout(function(){i=t;s();e()},i)};this.clear=function(){window.clearTimeout(n);i=t;n=window.setTimeout(function(){i=t;s();e()},i)};this.resume=s;this.resume()}function invoketimer(){timer=new RecurringTimer(function(){svg.setCurrentTime(0)},14400.0)}var svg=document.getElementById("kvg-09054");var pause=document.getElementById("pause-kvg-09054");var reset=document.getElementById("reset-kvg-09054");var timer;invoketimer();reset.onclick=function(){svg.setCurrentTime(0);timer.clear();svg.unpauseAnimations();pause.innerHTML = "◼";};pause.onclick=function(){if(svg.animationsPaused()){svg.unpauseAnimations();timer.resume();pause.innerHTML="◼"}else{svg.pauseAnimations();timer.pause();pause.innerHTML="▶"}}]]></script></svg>