<svg id="kvg-0936c-Kaisho" class="kanjivg" width="106" height="126" xmlns="http://www.w3.org/2000/svg" xmlns:xlink="http://www.w3.org/1999/xlink" xml:space="preserve" version="1.1" baseProfile="full"><defs><style type="text/css"><![CDATA[path.black{fill:none;stroke:black;stroke-width:5;stroke-linecap:round;stroke-linejoin:round;}path.grey{fill:none;stroke:#ddd;stroke-width:5;stroke-linecap:round;stroke-linejoin:round;}path.stroke{fill:none;stroke:black;stroke-width:5;stroke-linecap:round;stroke-linejoin:round;}rect{fill:none;stroke:#555;stroke-width:2;} text{font-size:16px;font-family:Segoe UI Symbol,Cambria Math,DejaVu Sans,Symbola,Quivira,STIX,Code2000;-webkit-touch-callout:none;cursor:pointer;-webkit-user-select:none;-khtml-user-select:none;-moz-user-select:none;-ms-user-select:none;user-select: none;}text:hover{color:#777;}#reset{font-weight:bold;}]]></style><marker id="markerStart" markerWidth="8" markerHeight="8" style="overflow:visible;"><circle cx="0" cy="0" r="1.5" style="stroke:none;fill:red;fill-opacity:0.5;"/></marker><marker id="markerEnd" style="overflow:visible;"><circle cx="0" cy="0" r="0.8" style="stroke:none;fill:blue;fill-opacity:0.5;"><animate attributeName="opacity" from="1" to="0" dur="3s" repeatCount="indefinite" /></circle></marker></defs><rect x="4" y="4" width="100" height="100" /><path d="M26.25,16.49c0,0.79,0.05,1.42-0.14,2.37c-0.99,4.94-10.36,21.44-18.39,28.76" class="grey" /><path d="M25.89,20.96C30,22.75,35.25,27.5,37.25,32" class="grey" /><path d="M16.5,42c1.5,0,2.18,0.09,2.67,0.06c4.33-0.31,8.33-2.53,13.44-2.75c0.74-0.03,0.9-0.05,2.15-0.05" class="grey" /><path d="M9.59,56.81c0.59,0.33,2.56,0.48,3.17,0.43c5.49-0.49,14.74-2.74,21.78-3.67c0.74-0.1,2.38-0.13,3.49,0.15" class="grey" /><path d="M24.45,43.19c1.24,0.78,1.24,2.52,1.24,3.14c0,4.35,0.31,29.17,0.31,39.98" class="grey" /><path d="M13.39,68.01c2.6,4.01,3.87,8.35,4.4,10.69" class="grey" /><path d="M36.73,60.55c0.28,0.85,0.42,2.09,0.32,2.82c-0.28,1.85-2.49,5.23-5.63,10.66" class="grey" /><path d="M11,90.25c0.52,0.23,2.92,2.18,4,1.75c1.25-0.5,11.25-5.75,24.25-11.75" class="grey" /><path d="M62.34,15.25c0.05,0.36,0.11,0.93-0.1,1.44c-1.25,3.04-8.42,9.72-18.22,13.81" class="grey" /><path d="M38.99,45.73c0.22,0.14,1.8,0.38,2.38,0.43c1.59,0.14,17-2.15,20.99-2.87c0.58-0.1,0.72-0.14,1.09,0" class="grey" /><path d="M53.89,29.2c0.25,0.44,1.1,1.96,1.15,2.83c0.05,0.87-0.04,58.04-0.05,58.48c-0.24,12-4.99,2-5.99,1" class="grey" /><path d="M54.83,44.36c-3.58,10.59-9.56,23.67-17.67,32.33" class="grey" /><path d="M57.59,53.25c3.34,2.4,6.17,7.2,7.96,10.29" class="grey" /><path d="M65.67,36.81c1.78,2.95,4.38,11.32,4.87,14.27" class="grey" /><path d="M93.95,30.64c0.55,0.85,1.15,1.97,0.66,3.29c-0.5,1.31-5.92,11.62-8.39,14.68" class="grey" /><path d="M76.78,14.8c0.63,0.78,0.95,2.9,0.96,4.21C77.99,52.67,78,78.75,61.97,95.11" class="grey" /><path d="M77.75,50.14c5.92,17.69,14.22,32.72,19.27,39.6c1.47,2,1.71,1.9,2.85,2.44" class="grey" /><path d="M26.25,16.49c0,0.79,0.05,1.42-0.14,2.37c-0.99,4.94-10.36,21.44-18.39,28.76" class="stroke" stroke-dasharray="150"><animate attributeName="stroke-dashoffset" from="150" to="0" dur="1.8s" begin="0.0s" fill="freeze" /></path><path d="M25.89,20.96C30,22.75,35.25,27.5,37.25,32" class="stroke" stroke-dasharray="150"><set attributeName="opacity" to="0" dur="1.0s" /><animate attributeName="stroke-dashoffset" from="150" to="0" dur="1.8s" begin="1.0s" fill="freeze" /></path><path d="M16.5,42c1.5,0,2.18,0.09,2.67,0.06c4.33-0.31,8.33-2.53,13.44-2.75c0.74-0.03,0.9-0.05,2.15-0.05" class="stroke" stroke-dasharray="150"><set attributeName="opacity" to="0" dur="1.9s" /><animate attributeName="stroke-dashoffset" from="150" to="0" dur="1.8s" begin="1.9s" fill="freeze" /></path><path d="M9.59,56.81c0.59,0.33,2.56,0.48,3.17,0.43c5.49-0.49,14.74-2.74,21.78-3.67c0.74-0.1,2.38-0.13,3.49,0.15" class="stroke" stroke-dasharray="150"><set attributeName="opacity" to="0" dur="2.8s" /><animate attributeName="stroke-dashoffset" from="150" to="0" dur="1.8s" begin="2.8s" fill="freeze" /></path><path d="M24.45,43.19c1.24,0.78,1.24,2.52,1.24,3.14c0,4.35,0.31,29.17,0.31,39.98" class="stroke" stroke-dasharray="150"><set attributeName="opacity" to="0" dur="3.8s" /><animate attributeName="stroke-dashoffset" from="150" to="0" dur="1.8s" begin="3.8s" fill="freeze" /></path><path d="M13.39,68.01c2.6,4.01,3.87,8.35,4.4,10.69" class="stroke" stroke-dasharray="150"><set attributeName="opacity" to="0" dur="4.9s" /><animate attributeName="stroke-dashoffset" from="150" to="0" dur="1.8s" begin="4.9s" fill="freeze" /></path><path d="M36.73,60.55c0.28,0.85,0.42,2.09,0.32,2.82c-0.28,1.85-2.49,5.23-5.63,10.66" class="stroke" stroke-dasharray="150"><set attributeName="opacity" to="0" dur="5.800000000000001s" /><animate attributeName="stroke-dashoffset" from="150" to="0" dur="1.8s" begin="5.800000000000001s" fill="freeze" /></path><path d="M11,90.25c0.52,0.23,2.92,2.18,4,1.75c1.25-0.5,11.25-5.75,24.25-11.75" class="stroke" stroke-dasharray="150"><set attributeName="opacity" to="0" dur="6.700000000000001s" /><animate attributeName="stroke-dashoffset" from="150" to="0" dur="1.8s" begin="6.700000000000001s" fill="freeze" /></path><path d="M62.34,15.25c0.05,0.36,0.11,0.93-0.1,1.44c-1.25,3.04-8.42,9.72-18.22,13.81" class="stroke" stroke-dasharray="150"><set attributeName="opacity" to="0" dur="7.700000000000001s" /><animate attributeName="stroke-dashoffset" from="150" to="0" dur="1.8s" begin="7.700000000000001s" fill="freeze" /></path><path d="M38.99,45.73c0.22,0.14,1.8,0.38,2.38,0.43c1.59,0.14,17-2.15,20.99-2.87c0.58-0.1,0.72-0.14,1.09,0" class="stroke" stroke-dasharray="150"><set attributeName="opacity" to="0" dur="8.700000000000001s" /><animate attributeName="stroke-dashoffset" from="150" to="0" dur="1.8s" begin="8.700000000000001s" fill="freeze" /></path><path d="M53.89,29.2c0.25,0.44,1.1,1.96,1.15,2.83c0.05,0.87-0.04,58.04-0.05,58.48c-0.24,12-4.99,2-5.99,1" class="stroke" stroke-dasharray="150"><set attributeName="opacity" to="0" dur="9.700000000000001s" /><animate attributeName="stroke-dashoffset" from="150" to="0" dur="1.8s" begin="9.700000000000001s" fill="freeze" /></path><path d="M54.83,44.36c-3.58,10.59-9.56,23.67-17.67,32.33" class="stroke" stroke-dasharray="150"><set attributeName="opacity" to="0" dur="11.4s" /><animate attributeName="stroke-dashoffset" from="150" to="0" dur="1.8s" begin="11.4s" fill="freeze" /></path><path d="M57.59,53.25c3.34,2.4,6.17,7.2,7.96,10.29" class="stroke" stroke-dasharray="150"><set attributeName="opacity" to="0" dur="12.4s" /><animate attributeName="stroke-dashoffset" from="150" to="0" dur="1.8s" begin="12.4s" fill="freeze" /></path><path d="M65.67,36.81c1.78,2.95,4.38,11.32,4.87,14.27" class="stroke" stroke-dasharray="150"><set attributeName="opacity" to="0" dur="13.3s" /><animate attributeName="stroke-dashoffset" from="150" to="0" dur="1.8s" begin="13.3s" fill="freeze" /></path><path d="M93.95,30.64c0.55,0.85,1.15,1.97,0.66,3.29c-0.5,1.31-5.92,11.62-8.39,14.68" class="stroke" stroke-dasharray="150"><set attributeName="opacity" to="0" dur="14.200000000000001s" /><animate attributeName="stroke-dashoffset" from="150" to="0" dur="1.8s" begin="14.200000000000001s" fill="freeze" /></path><path d="M76.78,14.8c0.63,0.78,0.95,2.9,0.96,4.21C77.99,52.67,78,78.75,61.97,95.11" class="stroke" stroke-dasharray="150"><set attributeName="opacity" to="0" dur="15.200000000000001s" /><animate attributeName="stroke-dashoffset" from="150" to="0" dur="1.8s" begin="15.200000000000001s" fill="freeze" /></path><path d="M77.75,50.14c5.92,17.69,14.22,32.72,19.27,39.6c1.47,2,1.71,1.9,2.85,2.44" class="stroke" stroke-dasharray="150"><set attributeName="opacity" to="0" dur="16.900000000000002s" /><animate attributeName="stroke-dashoffset" from="150" to="0" dur="1.8s" begin="16.900000000000002s" fill="freeze" /></path><text x="90" y="120" id="reset-kvg-0936c-Kaisho">⟳</text><text x="70" y="120" id="pause-kvg-0936c-Kaisho">◼</text><script type="text/javascript"><![CDATA[function RecurringTimer(e,t){var n,r,i=t;this.pause=function(){window.clearTimeout(n);i-=new Date-r};var s=function(){r=new Date;n=window.setTimeout(function(){i=t;s();e()},i)};this.clear=function(){window.clearTimeout(n);i=t;n=window.setTimeout(function(){i=t;s();e()},i)};this.resume=s;this.resume()}function invoketimer(){timer=new RecurringTimer(function(){svg.setCurrentTime(0)},19100.0)}var svg=document.getElementById("kvg-0936c-Kaisho");var pause=document.getElementById("pause-kvg-0936c-Kaisho");var reset=document.getElementById("reset-kvg-0936c-Kaisho");var timer;invoketimer();reset.onclick=function(){svg.setCurrentTime(0);timer.clear();svg.unpauseAnimations();pause.innerHTML = "◼";};pause.onclick=function(){if(svg.animationsPaused()){svg.unpauseAnimations();timer.resume();pause.innerHTML="◼"}else{svg.pauseAnimations();timer.pause();pause.innerHTML="▶"}}]]></script></svg>