<svg id="kvg-09438" class="kanjivg" width="106" height="126" xmlns="http://www.w3.org/2000/svg" xmlns:xlink="http://www.w3.org/1999/xlink" xml:space="preserve" version="1.1" baseProfile="full"><defs><style type="text/css"><![CDATA[path.black{fill:none;stroke:black;stroke-width:5;stroke-linecap:round;stroke-linejoin:round;}path.grey{fill:none;stroke:#ddd;stroke-width:5;stroke-linecap:round;stroke-linejoin:round;}path.stroke{fill:none;stroke:black;stroke-width:5;stroke-linecap:round;stroke-linejoin:round;}rect{fill:none;stroke:#555;stroke-width:2;} text{font-size:16px;font-family:Segoe UI Symbol,Cambria Math,DejaVu Sans,Symbola,Quivira,STIX,Code2000;-webkit-touch-callout:none;cursor:pointer;-webkit-user-select:none;-khtml-user-select:none;-moz-user-select:none;-ms-user-select:none;user-select: none;}text:hover{color:#777;}#reset{font-weight:bold;}]]></style><marker id="markerStart" markerWidth="8" markerHeight="8" style="overflow:visible;"><circle cx="0" cy="0" r="1.5" style="stroke:none;fill:red;fill-opacity:0.5;"/></marker><marker id="markerEnd" style="overflow:visible;"><circle cx="0" cy="0" r="0.8" style="stroke:none;fill:blue;fill-opacity:0.5;"><animate attributeName="opacity" from="1" to="0" dur="3s" repeatCount="indefinite" /></circle></marker></defs><rect x="4" y="4" width="100" height="100" /><path d="M30.75,13.99c0,0.78,0.05,1.41-0.14,2.35c-1,4.9-10.5,21.27-18.63,28.53" class="grey" /><path d="M31.89,20.21c4.65,1.99,10.6,7.28,12.86,12.29" class="grey" /><path d="M20.5,39.93c1.68,0,2.44,0.1,2.98,0.06c4.84-0.33,10.42-1.62,16.12-1.86c0.82-0.04,1-0.06,2.4-0.06" class="grey" /><path d="M12.59,55.54c0.68,0.41,2.93,0.6,3.63,0.54c6.29-0.62,15.75-3.12,23.81-3.33c0.85-0.02,2.73-0.17,4,0.19" class="grey" /><path d="M29.95,41.69c1.24,0.78,1.24,2.52,1.24,3.14c0,4.35,0.62,32.63,0.31,36.98" class="grey" /><path d="M15.64,65.26c3.34,4.66,4.97,9.71,5.65,12.44" class="grey" /><path d="M42.68,59.55c0.32,0.71,0.48,1.75,0.36,2.35c-0.32,1.54-2.82,4.36-6.37,8.88" class="grey" /><path d="M12.5,87.33c1.5,1.42,4.05,1.09,5.18,0.68C18.98,87.52,28.42,83.5,42,77.75" class="grey" /><path d="M48.5,16.64c0.23,0.3,1.47,2.05,1.58,2.43c0.81,3,2.28,9.78,2.84,15.17" class="grey" /><path d="M49.96,18.68C59,17.5,89.27,14.88,92,14.48c1-0.14,2.36,1.02,2.09,2.7c-0.56,3.52-1.94,9.06-3.43,14.09" class="grey" /><path d="M63.98,18c0.16,2,1.26,10.75,1.42,13" class="grey" /><path d="M78.78,16.75C78.62,20,77.83,27.5,77.52,29.5" class="grey" /><path d="M53.15,32.12c5.6-0.37,28.1-2.62,37.89-2.9" class="grey" /><path d="M54.82,41.57c0.73,0.23,2.07,0.29,2.8,0.23c9.38-0.79,18.3-2.31,27.74-2.51c1.22-0.03,1.95,0.11,2.55,0.23" class="grey" /><path d="M69.81,32.75c0.07,0.23,0.98,1.21,0.98,2.69c0,9.6-0.11,11.9-0.11,14.31" class="grey" /><path d="M49.63,52.01c0.88,0.43,2.5,0.55,3.38,0.43c13.23-1.8,24.49-2.88,40.04-3.64c1.47-0.07,2.35,0.2,3.08,0.42" class="grey" /><path d="M59.91,53.98c1.74,1.85,4.51,7.62,4.94,10.5" class="grey" /><path d="M82.96,52.25c0.02,0.27,0.03,0.69-0.03,1.07c-0.37,2.27-2.47,7.24-5.34,10.28" class="grey" /><path d="M51.71,67.62c0.62,0.36,2.74,0.38,3.36,0.32c4.27-0.42,26.7-2.66,33.98-3.37c1.02-0.1,3.18,0.31,3.69,0.49" class="grey" /><path d="M47.74,79.38c1.53,0.47,4.36,0.6,5.89,0.47c10.54-0.89,26.3-2.45,38.44-2.77c2.56-0.07,4.09,0.23,5.37,0.46" class="grey" /><path d="M70.02,66.99c0.3,0.4,0.93,2.23,0.99,3.04c0.06,0.81-0.04,23.43-0.1,28.47" class="grey" /><path d="M30.75,13.99c0,0.78,0.05,1.41-0.14,2.35c-1,4.9-10.5,21.27-18.63,28.53" class="stroke" stroke-dasharray="150"><animate attributeName="stroke-dashoffset" from="150" to="0" dur="1.8s" begin="0.0s" fill="freeze" /></path><path d="M31.89,20.21c4.65,1.99,10.6,7.28,12.86,12.29" class="stroke" stroke-dasharray="150"><set attributeName="opacity" to="0" dur="1.0s" /><animate attributeName="stroke-dashoffset" from="150" to="0" dur="1.8s" begin="1.0s" fill="freeze" /></path><path d="M20.5,39.93c1.68,0,2.44,0.1,2.98,0.06c4.84-0.33,10.42-1.62,16.12-1.86c0.82-0.04,1-0.06,2.4-0.06" class="stroke" stroke-dasharray="150"><set attributeName="opacity" to="0" dur="1.9s" /><animate attributeName="stroke-dashoffset" from="150" to="0" dur="1.8s" begin="1.9s" fill="freeze" /></path><path d="M12.59,55.54c0.68,0.41,2.93,0.6,3.63,0.54c6.29-0.62,15.75-3.12,23.81-3.33c0.85-0.02,2.73-0.17,4,0.19" class="stroke" stroke-dasharray="150"><set attributeName="opacity" to="0" dur="2.9s" /><animate attributeName="stroke-dashoffset" from="150" to="0" dur="1.8s" begin="2.9s" fill="freeze" /></path><path d="M29.95,41.69c1.24,0.78,1.24,2.52,1.24,3.14c0,4.35,0.62,32.63,0.31,36.98" class="stroke" stroke-dasharray="150"><set attributeName="opacity" to="0" dur="3.9s" /><animate attributeName="stroke-dashoffset" from="150" to="0" dur="1.8s" begin="3.9s" fill="freeze" /></path><path d="M15.64,65.26c3.34,4.66,4.97,9.71,5.65,12.44" class="stroke" stroke-dasharray="150"><set attributeName="opacity" to="0" dur="5.0s" /><animate attributeName="stroke-dashoffset" from="150" to="0" dur="1.8s" begin="5.0s" fill="freeze" /></path><path d="M42.68,59.55c0.32,0.71,0.48,1.75,0.36,2.35c-0.32,1.54-2.82,4.36-6.37,8.88" class="stroke" stroke-dasharray="150"><set attributeName="opacity" to="0" dur="5.9s" /><animate attributeName="stroke-dashoffset" from="150" to="0" dur="1.8s" begin="5.9s" fill="freeze" /></path><path d="M12.5,87.33c1.5,1.42,4.05,1.09,5.18,0.68C18.98,87.52,28.42,83.5,42,77.75" class="stroke" stroke-dasharray="150"><set attributeName="opacity" to="0" dur="6.800000000000001s" /><animate attributeName="stroke-dashoffset" from="150" to="0" dur="1.8s" begin="6.800000000000001s" fill="freeze" /></path><path d="M48.5,16.64c0.23,0.3,1.47,2.05,1.58,2.43c0.81,3,2.28,9.78,2.84,15.17" class="stroke" stroke-dasharray="150"><set attributeName="opacity" to="0" dur="7.800000000000001s" /><animate attributeName="stroke-dashoffset" from="150" to="0" dur="1.8s" begin="7.800000000000001s" fill="freeze" /></path><path d="M49.96,18.68C59,17.5,89.27,14.88,92,14.48c1-0.14,2.36,1.02,2.09,2.7c-0.56,3.52-1.94,9.06-3.43,14.09" class="stroke" stroke-dasharray="150"><set attributeName="opacity" to="0" dur="8.700000000000001s" /><animate attributeName="stroke-dashoffset" from="150" to="0" dur="1.8s" begin="8.700000000000001s" fill="freeze" /></path><path d="M63.98,18c0.16,2,1.26,10.75,1.42,13" class="stroke" stroke-dasharray="150"><set attributeName="opacity" to="0" dur="10.200000000000001s" /><animate attributeName="stroke-dashoffset" from="150" to="0" dur="1.8s" begin="10.200000000000001s" fill="freeze" /></path><path d="M78.78,16.75C78.62,20,77.83,27.5,77.52,29.5" class="stroke" stroke-dasharray="150"><set attributeName="opacity" to="0" dur="11.100000000000001s" /><animate attributeName="stroke-dashoffset" from="150" to="0" dur="1.8s" begin="11.100000000000001s" fill="freeze" /></path><path d="M53.15,32.12c5.6-0.37,28.1-2.62,37.89-2.9" class="stroke" stroke-dasharray="150"><set attributeName="opacity" to="0" dur="12.000000000000002s" /><animate attributeName="stroke-dashoffset" from="150" to="0" dur="1.8s" begin="12.000000000000002s" fill="freeze" /></path><path d="M54.82,41.57c0.73,0.23,2.07,0.29,2.8,0.23c9.38-0.79,18.3-2.31,27.74-2.51c1.22-0.03,1.95,0.11,2.55,0.23" class="stroke" stroke-dasharray="150"><set attributeName="opacity" to="0" dur="13.000000000000002s" /><animate attributeName="stroke-dashoffset" from="150" to="0" dur="1.8s" begin="13.000000000000002s" fill="freeze" /></path><path d="M69.81,32.75c0.07,0.23,0.98,1.21,0.98,2.69c0,9.6-0.11,11.9-0.11,14.31" class="stroke" stroke-dasharray="150"><set attributeName="opacity" to="0" dur="14.000000000000002s" /><animate attributeName="stroke-dashoffset" from="150" to="0" dur="1.8s" begin="14.000000000000002s" fill="freeze" /></path><path d="M49.63,52.01c0.88,0.43,2.5,0.55,3.38,0.43c13.23-1.8,24.49-2.88,40.04-3.64c1.47-0.07,2.35,0.2,3.08,0.42" class="stroke" stroke-dasharray="150"><set attributeName="opacity" to="0" dur="14.900000000000002s" /><animate attributeName="stroke-dashoffset" from="150" to="0" dur="1.8s" begin="14.900000000000002s" fill="freeze" /></path><path d="M59.91,53.98c1.74,1.85,4.51,7.62,4.94,10.5" class="stroke" stroke-dasharray="150"><set attributeName="opacity" to="0" dur="16.1s" /><animate attributeName="stroke-dashoffset" from="150" to="0" dur="1.8s" begin="16.1s" fill="freeze" /></path><path d="M82.96,52.25c0.02,0.27,0.03,0.69-0.03,1.07c-0.37,2.27-2.47,7.24-5.34,10.28" class="stroke" stroke-dasharray="150"><set attributeName="opacity" to="0" dur="17.0s" /><animate attributeName="stroke-dashoffset" from="150" to="0" dur="1.8s" begin="17.0s" fill="freeze" /></path><path d="M51.71,67.62c0.62,0.36,2.74,0.38,3.36,0.32c4.27-0.42,26.7-2.66,33.98-3.37c1.02-0.1,3.18,0.31,3.69,0.49" class="stroke" stroke-dasharray="150"><set attributeName="opacity" to="0" dur="17.9s" /><animate attributeName="stroke-dashoffset" from="150" to="0" dur="1.8s" begin="17.9s" fill="freeze" /></path><path d="M47.74,79.38c1.53,0.47,4.36,0.6,5.89,0.47c10.54-0.89,26.3-2.45,38.44-2.77c2.56-0.07,4.09,0.23,5.37,0.46" class="stroke" stroke-dasharray="150"><set attributeName="opacity" to="0" dur="19.0s" /><animate attributeName="stroke-dashoffset" from="150" to="0" dur="1.8s" begin="19.0s" fill="freeze" /></path><path d="M70.02,66.99c0.3,0.4,0.93,2.23,0.99,3.04c0.06,0.81-0.04,23.43-0.1,28.47" class="stroke" stroke-dasharray="150"><set attributeName="opacity" to="0" dur="20.2s" /><animate attributeName="stroke-dashoffset" from="150" to="0" dur="1.8s" begin="20.2s" fill="freeze" /></path><text x="90" y="120" id="reset-kvg-09438">⟳</text><text x="70" y="120" id="pause-kvg-09438">◼</text><script type="text/javascript"><![CDATA[function RecurringTimer(e,t){var n,r,i=t;this.pause=function(){window.clearTimeout(n);i-=new Date-r};var s=function(){r=new Date;n=window.setTimeout(function(){i=t;s();e()},i)};this.clear=function(){window.clearTimeout(n);i=t;n=window.setTimeout(function(){i=t;s();e()},i)};this.resume=s;this.resume()}function invoketimer(){timer=new RecurringTimer(function(){svg.setCurrentTime(0)},22200.0)}var svg=document.getElementById("kvg-09438");var pause=document.getElementById("pause-kvg-09438");var reset=document.getElementById("reset-kvg-09438");var timer;invoketimer();reset.onclick=function(){svg.setCurrentTime(0);timer.clear();svg.unpauseAnimations();pause.innerHTML = "◼";};pause.onclick=function(){if(svg.animationsPaused()){svg.unpauseAnimations();timer.resume();pause.innerHTML="◼"}else{svg.pauseAnimations();timer.pause();pause.innerHTML="▶"}}]]></script></svg>