<svg id="kvg-09477" class="kanjivg" width="106" height="126" xmlns="http://www.w3.org/2000/svg" xmlns:xlink="http://www.w3.org/1999/xlink" xml:space="preserve" version="1.1" baseProfile="full"><defs><style type="text/css"><![CDATA[path.black{fill:none;stroke:black;stroke-width:5;stroke-linecap:round;stroke-linejoin:round;}path.grey{fill:none;stroke:#ddd;stroke-width:5;stroke-linecap:round;stroke-linejoin:round;}path.stroke{fill:none;stroke:black;stroke-width:5;stroke-linecap:round;stroke-linejoin:round;}rect{fill:none;stroke:#555;stroke-width:2;} text{font-size:16px;font-family:Segoe UI Symbol,Cambria Math,DejaVu Sans,Symbola,Quivira,STIX,Code2000;-webkit-touch-callout:none;cursor:pointer;-webkit-user-select:none;-khtml-user-select:none;-moz-user-select:none;-ms-user-select:none;user-select: none;}text:hover{color:#777;}#reset{font-weight:bold;}]]></style><marker id="markerStart" markerWidth="8" markerHeight="8" style="overflow:visible;"><circle cx="0" cy="0" r="1.5" style="stroke:none;fill:red;fill-opacity:0.5;"/></marker><marker id="markerEnd" style="overflow:visible;"><circle cx="0" cy="0" r="0.8" style="stroke:none;fill:blue;fill-opacity:0.5;"><animate attributeName="opacity" from="1" to="0" dur="3s" repeatCount="indefinite" /></circle></marker></defs><rect x="4" y="4" width="100" height="100" /><path d="M27.25,13.24c0,0.74,0.05,1.33-0.13,2.22c-0.93,4.63-9.8,20.07-17.39,26.91" class="grey" /><path d="M29.39,18.46c4.47,2.03,10.18,7.42,12.36,12.54" class="grey" /><path d="M16.5,41c1.73,0,2.52,0.09,3.08,0.06c5.01-0.31,10.79-1.53,16.69-1.75c0.85-0.03,1.04-0.05,2.48-0.05" class="grey" /><path d="M11.59,54.81c0.59,0.33,2.56,0.48,3.17,0.43c5.49-0.49,14.99-2.24,21.78-3.17c0.74-0.1,2.38-0.13,3.49,0.15" class="grey" /><path d="M26.45,42.19c1.24,0.78,1.24,2.52,1.24,3.14c0,4.35,0.12,35.63-0.19,39.98" class="grey" /><path d="M13.14,65.26c3.63,5.04,5.41,10.5,6.15,13.44" class="grey" /><path d="M39.7,59.55c0.3,0.84,0.46,2.06,0.34,2.76c-0.3,1.81-2.71,5.13-6.12,10.47" class="grey" /><path d="M12,90.31c1.22,0.92,2.68,0.69,4.38,0.23C17.64,90.2,27.34,85.26,40,79.75" class="grey" /><path d="M50.08,13.91c1.08,0.26,3.05,0.31,4.13,0.26c8.55-0.41,26.05-1.91,35.67-2.44c1.79-0.1,2.87,0.12,3.77,0.25" class="grey" /><path d="M57.32,15.56c0.76,0.76,1.17,1.26,1.17,3.32c0,2.06-0.23,15.02-0.23,22.42" class="grey" /><path d="M59.68,23.19c3.45,0,16.67-1.39,22.58-1.39" class="grey" /><path d="M58.75,31.65c6.76-0.65,15.85-1.61,24.03-2.21" class="grey" /><path d="M46.09,42.56c0.35,0.5,1.24,1.21,2.47,1c4.93-0.84,33.83-5.86,41.41-7.2" class="grey" /><path d="M81.9,12.99c0.35,1.02,0.89,2.29,0.89,3.57c0,1.27,0.18,20.06,0.18,30.51" class="grey" /><path d="M45.16,54.99c0.44,0.29,1.24,0.36,1.68,0.29c3.91-0.64,10.76-1.97,19.58-2.83c0.73-0.07,1.17,0.14,1.54,0.28" class="grey" /><path d="M50.76,56.29c0.38,0.43,0.58,1.57,0.58,2.73s-0.12,21.56-0.12,25.76" class="grey" /><path d="M51.61,64.29c2.49-0.4,8.17-1.86,12-2.22" class="grey" /><path d="M51.43,73.4c2.14,0,9.12-2.08,12.24-2.08" class="grey" /><path d="M44.75,86.91c0.5,0.63,1.2,0.97,1.72,0.72c2.1-1,13.76-6.54,16.99-8.15" class="grey" /><path d="M63.43,53.98c0.18,0.58,0.45,1.3,0.45,2.02c0,0.72,0.09,37.61,0.09,43.54" class="grey" /><path d="M72.92,52.88c0.54,0.3,1.53,0.33,2.08,0.3c4.55-0.27,17.75-1.93,21.85-2.44c0.9-0.11,1.45,0.14,1.9,0.29" class="grey" /><path d="M77.87,55.24c0.44,0.45,0.68,1.63,0.68,2.83s-0.14,20.84-0.14,25.19" class="grey" /><path d="M78.74,62.04c2,0,9.68-1.8,13.11-1.8" class="grey" /><path d="M78.54,71.49c2.48,0,9.4-1.65,13.01-1.65" class="grey" /><path d="M71.83,86.18c0.18,0.62,1.63,0.99,2.26,0.74c2.51-1.03,19.22-9.72,23.07-11.37" class="grey" /><path d="M91.65,51.34c0.21,0.6,0.52,1.35,0.52,2.1c0,0.75,0.1,38.91,0.1,45.06" class="grey" /><path d="M27.25,13.24c0,0.74,0.05,1.33-0.13,2.22c-0.93,4.63-9.8,20.07-17.39,26.91" class="stroke" stroke-dasharray="150"><animate attributeName="stroke-dashoffset" from="150" to="0" dur="1.8s" begin="0.0s" fill="freeze" /></path><path d="M29.39,18.46c4.47,2.03,10.18,7.42,12.36,12.54" class="stroke" stroke-dasharray="150"><set attributeName="opacity" to="0" dur="1.0s" /><animate attributeName="stroke-dashoffset" from="150" to="0" dur="1.8s" begin="1.0s" fill="freeze" /></path><path d="M16.5,41c1.73,0,2.52,0.09,3.08,0.06c5.01-0.31,10.79-1.53,16.69-1.75c0.85-0.03,1.04-0.05,2.48-0.05" class="stroke" stroke-dasharray="150"><set attributeName="opacity" to="0" dur="1.9s" /><animate attributeName="stroke-dashoffset" from="150" to="0" dur="1.8s" begin="1.9s" fill="freeze" /></path><path d="M11.59,54.81c0.59,0.33,2.56,0.48,3.17,0.43c5.49-0.49,14.99-2.24,21.78-3.17c0.74-0.1,2.38-0.13,3.49,0.15" class="stroke" stroke-dasharray="150"><set attributeName="opacity" to="0" dur="2.9s" /><animate attributeName="stroke-dashoffset" from="150" to="0" dur="1.8s" begin="2.9s" fill="freeze" /></path><path d="M26.45,42.19c1.24,0.78,1.24,2.52,1.24,3.14c0,4.35,0.12,35.63-0.19,39.98" class="stroke" stroke-dasharray="150"><set attributeName="opacity" to="0" dur="3.9s" /><animate attributeName="stroke-dashoffset" from="150" to="0" dur="1.8s" begin="3.9s" fill="freeze" /></path><path d="M13.14,65.26c3.63,5.04,5.41,10.5,6.15,13.44" class="stroke" stroke-dasharray="150"><set attributeName="opacity" to="0" dur="5.0s" /><animate attributeName="stroke-dashoffset" from="150" to="0" dur="1.8s" begin="5.0s" fill="freeze" /></path><path d="M39.7,59.55c0.3,0.84,0.46,2.06,0.34,2.76c-0.3,1.81-2.71,5.13-6.12,10.47" class="stroke" stroke-dasharray="150"><set attributeName="opacity" to="0" dur="5.9s" /><animate attributeName="stroke-dashoffset" from="150" to="0" dur="1.8s" begin="5.9s" fill="freeze" /></path><path d="M12,90.31c1.22,0.92,2.68,0.69,4.38,0.23C17.64,90.2,27.34,85.26,40,79.75" class="stroke" stroke-dasharray="150"><set attributeName="opacity" to="0" dur="6.800000000000001s" /><animate attributeName="stroke-dashoffset" from="150" to="0" dur="1.8s" begin="6.800000000000001s" fill="freeze" /></path><path d="M50.08,13.91c1.08,0.26,3.05,0.31,4.13,0.26c8.55-0.41,26.05-1.91,35.67-2.44c1.79-0.1,2.87,0.12,3.77,0.25" class="stroke" stroke-dasharray="150"><set attributeName="opacity" to="0" dur="7.800000000000001s" /><animate attributeName="stroke-dashoffset" from="150" to="0" dur="1.8s" begin="7.800000000000001s" fill="freeze" /></path><path d="M57.32,15.56c0.76,0.76,1.17,1.26,1.17,3.32c0,2.06-0.23,15.02-0.23,22.42" class="stroke" stroke-dasharray="150"><set attributeName="opacity" to="0" dur="8.9s" /><animate attributeName="stroke-dashoffset" from="150" to="0" dur="1.8s" begin="8.9s" fill="freeze" /></path><path d="M59.68,23.19c3.45,0,16.67-1.39,22.58-1.39" class="stroke" stroke-dasharray="150"><set attributeName="opacity" to="0" dur="9.9s" /><animate attributeName="stroke-dashoffset" from="150" to="0" dur="1.8s" begin="9.9s" fill="freeze" /></path><path d="M58.75,31.65c6.76-0.65,15.85-1.61,24.03-2.21" class="stroke" stroke-dasharray="150"><set attributeName="opacity" to="0" dur="10.9s" /><animate attributeName="stroke-dashoffset" from="150" to="0" dur="1.8s" begin="10.9s" fill="freeze" /></path><path d="M46.09,42.56c0.35,0.5,1.24,1.21,2.47,1c4.93-0.84,33.83-5.86,41.41-7.2" class="stroke" stroke-dasharray="150"><set attributeName="opacity" to="0" dur="11.9s" /><animate attributeName="stroke-dashoffset" from="150" to="0" dur="1.8s" begin="11.9s" fill="freeze" /></path><path d="M81.9,12.99c0.35,1.02,0.89,2.29,0.89,3.57c0,1.27,0.18,20.06,0.18,30.51" class="stroke" stroke-dasharray="150"><set attributeName="opacity" to="0" dur="13.0s" /><animate attributeName="stroke-dashoffset" from="150" to="0" dur="1.8s" begin="13.0s" fill="freeze" /></path><path d="M45.16,54.99c0.44,0.29,1.24,0.36,1.68,0.29c3.91-0.64,10.76-1.97,19.58-2.83c0.73-0.07,1.17,0.14,1.54,0.28" class="stroke" stroke-dasharray="150"><set attributeName="opacity" to="0" dur="14.0s" /><animate attributeName="stroke-dashoffset" from="150" to="0" dur="1.8s" begin="14.0s" fill="freeze" /></path><path d="M50.76,56.29c0.38,0.43,0.58,1.57,0.58,2.73s-0.12,21.56-0.12,25.76" class="stroke" stroke-dasharray="150"><set attributeName="opacity" to="0" dur="15.0s" /><animate attributeName="stroke-dashoffset" from="150" to="0" dur="1.8s" begin="15.0s" fill="freeze" /></path><path d="M51.61,64.29c2.49-0.4,8.17-1.86,12-2.22" class="stroke" stroke-dasharray="150"><set attributeName="opacity" to="0" dur="16.0s" /><animate attributeName="stroke-dashoffset" from="150" to="0" dur="1.8s" begin="16.0s" fill="freeze" /></path><path d="M51.43,73.4c2.14,0,9.12-2.08,12.24-2.08" class="stroke" stroke-dasharray="150"><set attributeName="opacity" to="0" dur="16.9s" /><animate attributeName="stroke-dashoffset" from="150" to="0" dur="1.8s" begin="16.9s" fill="freeze" /></path><path d="M44.75,86.91c0.5,0.63,1.2,0.97,1.72,0.72c2.1-1,13.76-6.54,16.99-8.15" class="stroke" stroke-dasharray="150"><set attributeName="opacity" to="0" dur="17.799999999999997s" /><animate attributeName="stroke-dashoffset" from="150" to="0" dur="1.8s" begin="17.799999999999997s" fill="freeze" /></path><path d="M63.43,53.98c0.18,0.58,0.45,1.3,0.45,2.02c0,0.72,0.09,37.61,0.09,43.54" class="stroke" stroke-dasharray="150"><set attributeName="opacity" to="0" dur="18.799999999999997s" /><animate attributeName="stroke-dashoffset" from="150" to="0" dur="1.8s" begin="18.799999999999997s" fill="freeze" /></path><path d="M72.92,52.88c0.54,0.3,1.53,0.33,2.08,0.3c4.55-0.27,17.75-1.93,21.85-2.44c0.9-0.11,1.45,0.14,1.9,0.29" class="stroke" stroke-dasharray="150"><set attributeName="opacity" to="0" dur="19.999999999999996s" /><animate attributeName="stroke-dashoffset" from="150" to="0" dur="1.8s" begin="19.999999999999996s" fill="freeze" /></path><path d="M77.87,55.24c0.44,0.45,0.68,1.63,0.68,2.83s-0.14,20.84-0.14,25.19" class="stroke" stroke-dasharray="150"><set attributeName="opacity" to="0" dur="20.999999999999996s" /><animate attributeName="stroke-dashoffset" from="150" to="0" dur="1.8s" begin="20.999999999999996s" fill="freeze" /></path><path d="M78.74,62.04c2,0,9.68-1.8,13.11-1.8" class="stroke" stroke-dasharray="150"><set attributeName="opacity" to="0" dur="21.999999999999996s" /><animate attributeName="stroke-dashoffset" from="150" to="0" dur="1.8s" begin="21.999999999999996s" fill="freeze" /></path><path d="M78.54,71.49c2.48,0,9.4-1.65,13.01-1.65" class="stroke" stroke-dasharray="150"><set attributeName="opacity" to="0" dur="22.899999999999995s" /><animate attributeName="stroke-dashoffset" from="150" to="0" dur="1.8s" begin="22.899999999999995s" fill="freeze" /></path><path d="M71.83,86.18c0.18,0.62,1.63,0.99,2.26,0.74c2.51-1.03,19.22-9.72,23.07-11.37" class="stroke" stroke-dasharray="150"><set attributeName="opacity" to="0" dur="23.799999999999994s" /><animate attributeName="stroke-dashoffset" from="150" to="0" dur="1.8s" begin="23.799999999999994s" fill="freeze" /></path><path d="M91.65,51.34c0.21,0.6,0.52,1.35,0.52,2.1c0,0.75,0.1,38.91,0.1,45.06" class="stroke" stroke-dasharray="150"><set attributeName="opacity" to="0" dur="24.799999999999994s" /><animate attributeName="stroke-dashoffset" from="150" to="0" dur="1.8s" begin="24.799999999999994s" fill="freeze" /></path><text x="90" y="120" id="reset-kvg-09477">⟳</text><text x="70" y="120" id="pause-kvg-09477">◼</text><script type="text/javascript"><![CDATA[function RecurringTimer(e,t){var n,r,i=t;this.pause=function(){window.clearTimeout(n);i-=new Date-r};var s=function(){r=new Date;n=window.setTimeout(function(){i=t;s();e()},i)};this.clear=function(){window.clearTimeout(n);i=t;n=window.setTimeout(function(){i=t;s();e()},i)};this.resume=s;this.resume()}function invoketimer(){timer=new RecurringTimer(function(){svg.setCurrentTime(0)},26999.999999999993)}var svg=document.getElementById("kvg-09477");var pause=document.getElementById("pause-kvg-09477");var reset=document.getElementById("reset-kvg-09477");var timer;invoketimer();reset.onclick=function(){svg.setCurrentTime(0);timer.clear();svg.unpauseAnimations();pause.innerHTML = "◼";};pause.onclick=function(){if(svg.animationsPaused()){svg.unpauseAnimations();timer.resume();pause.innerHTML="◼"}else{svg.pauseAnimations();timer.pause();pause.innerHTML="▶"}}]]></script></svg>