<svg id="kvg-09582-Kaisho" class="kanjivg" width="106" height="126" xmlns="http://www.w3.org/2000/svg" xmlns:xlink="http://www.w3.org/1999/xlink" xml:space="preserve" version="1.1" baseProfile="full"><defs><style type="text/css"><![CDATA[path.black{fill:none;stroke:black;stroke-width:5;stroke-linecap:round;stroke-linejoin:round;}path.grey{fill:none;stroke:#ddd;stroke-width:5;stroke-linecap:round;stroke-linejoin:round;}path.stroke{fill:none;stroke:black;stroke-width:5;stroke-linecap:round;stroke-linejoin:round;}rect{fill:none;stroke:#555;stroke-width:2;} text{font-size:16px;font-family:Segoe UI Symbol,Cambria Math,DejaVu Sans,Symbola,Quivira,STIX,Code2000;-webkit-touch-callout:none;cursor:pointer;-webkit-user-select:none;-khtml-user-select:none;-moz-user-select:none;-ms-user-select:none;user-select: none;}text:hover{color:#777;}#reset{font-weight:bold;}]]></style><marker id="markerStart" markerWidth="8" markerHeight="8" style="overflow:visible;"><circle cx="0" cy="0" r="1.5" style="stroke:none;fill:red;fill-opacity:0.5;"/></marker><marker id="markerEnd" style="overflow:visible;"><circle cx="0" cy="0" r="0.8" style="stroke:none;fill:blue;fill-opacity:0.5;"><animate attributeName="opacity" from="1" to="0" dur="3s" repeatCount="indefinite" /></circle></marker></defs><rect x="4" y="4" width="100" height="100" /><path d="M17.39,14.79c0.73,0.46,2.28,3.48,2.43,4.4c0.15,0.93-0.09,72.64-0.24,78.44" class="grey" /><path d="M19.52,17.08c2.44-0.1,18.27-2.66,20.49-2.78c1.85-0.1,2.81,0.91,2.9,1.71c0.14,1.23-2.04,28.82-2.04,29.42" class="grey" /><path d="M19.95,30.89c3.59-0.35,7.18-0.73,10.77-1.11c0.97-0.1,1.94-0.21,2.89-0.31" class="grey" /><path d="M20.52,45.98c8.11-1.15,12.39-2.03,19.56-2.56" class="grey" /><path d="M64.44,14.51c0.44,0.55,0.88,1.74,0.88,2.48c0,0.74,0.21,26.31,0.21,26.67" class="grey" /><path d="M65.55,15.16c2.49-0.11,19.71-2.79,21.99-2.92c1.9-0.11,2.98,1.15,2.97,1.8c-0.49,19.46-0.5,64.29-0.5,78.4c0,10.56-6.95,0.16-8.4-1.14" class="grey" /><path d="M65.99,27.22c3.92,0,7.89-0.54,11.79-0.87c1.27-0.11,2.54-0.22,3.77-0.32" class="grey" /><path d="M66.05,40.76c4.99,0,17.59-1.56,24.05-1.56" class="grey" /><path d="M32.25,64.21c1.08,0.34,3.06,0.34,4.14,0.34c7.86-0.05,29.61-2.3,36.58-2.94c1.79-0.16,2.88,0.16,3.78,0.33" class="grey" /><path d="M17.39,14.79c0.73,0.46,2.28,3.48,2.43,4.4c0.15,0.93-0.09,72.64-0.24,78.44" class="stroke" stroke-dasharray="150"><animate attributeName="stroke-dashoffset" from="150" to="0" dur="1.8s" begin="0.0s" fill="freeze" /></path><path d="M19.52,17.08c2.44-0.1,18.27-2.66,20.49-2.78c1.85-0.1,2.81,0.91,2.9,1.71c0.14,1.23-2.04,28.82-2.04,29.42" class="stroke" stroke-dasharray="150"><set attributeName="opacity" to="0" dur="1.7s" /><animate attributeName="stroke-dashoffset" from="150" to="0" dur="1.8s" begin="1.7s" fill="freeze" /></path><path d="M19.95,30.89c3.59-0.35,7.18-0.73,10.77-1.11c0.97-0.1,1.94-0.21,2.89-0.31" class="stroke" stroke-dasharray="150"><set attributeName="opacity" to="0" dur="3.0s" /><animate attributeName="stroke-dashoffset" from="150" to="0" dur="1.8s" begin="3.0s" fill="freeze" /></path><path d="M20.52,45.98c8.11-1.15,12.39-2.03,19.56-2.56" class="stroke" stroke-dasharray="150"><set attributeName="opacity" to="0" dur="3.9s" /><animate attributeName="stroke-dashoffset" from="150" to="0" dur="1.8s" begin="3.9s" fill="freeze" /></path><path d="M64.44,14.51c0.44,0.55,0.88,1.74,0.88,2.48c0,0.74,0.21,26.31,0.21,26.67" class="stroke" stroke-dasharray="150"><set attributeName="opacity" to="0" dur="4.8s" /><animate attributeName="stroke-dashoffset" from="150" to="0" dur="1.8s" begin="4.8s" fill="freeze" /></path><path d="M65.55,15.16c2.49-0.11,19.71-2.79,21.99-2.92c1.9-0.11,2.98,1.15,2.97,1.8c-0.49,19.46-0.5,64.29-0.5,78.4c0,10.56-6.95,0.16-8.4-1.14" class="stroke" stroke-dasharray="150"><set attributeName="opacity" to="0" dur="5.8s" /><animate attributeName="stroke-dashoffset" from="150" to="0" dur="1.8s" begin="5.8s" fill="freeze" /></path><path d="M65.99,27.22c3.92,0,7.89-0.54,11.79-0.87c1.27-0.11,2.54-0.22,3.77-0.32" class="stroke" stroke-dasharray="150"><set attributeName="opacity" to="0" dur="7.8s" /><animate attributeName="stroke-dashoffset" from="150" to="0" dur="1.8s" begin="7.8s" fill="freeze" /></path><path d="M66.05,40.76c4.99,0,17.59-1.56,24.05-1.56" class="stroke" stroke-dasharray="150"><set attributeName="opacity" to="0" dur="8.7s" /><animate attributeName="stroke-dashoffset" from="150" to="0" dur="1.8s" begin="8.7s" fill="freeze" /></path><path d="M32.25,64.21c1.08,0.34,3.06,0.34,4.14,0.34c7.86-0.05,29.61-2.3,36.58-2.94c1.79-0.16,2.88,0.16,3.78,0.33" class="stroke" stroke-dasharray="150"><set attributeName="opacity" to="0" dur="9.7s" /><animate attributeName="stroke-dashoffset" from="150" to="0" dur="1.8s" begin="9.7s" fill="freeze" /></path><text x="90" y="120" id="reset-kvg-09582-Kaisho">⟳</text><text x="70" y="120" id="pause-kvg-09582-Kaisho">◼</text><script type="text/javascript"><![CDATA[function RecurringTimer(e,t){var n,r,i=t;this.pause=function(){window.clearTimeout(n);i-=new Date-r};var s=function(){r=new Date;n=window.setTimeout(function(){i=t;s();e()},i)};this.clear=function(){window.clearTimeout(n);i=t;n=window.setTimeout(function(){i=t;s();e()},i)};this.resume=s;this.resume()}function invoketimer(){timer=new RecurringTimer(function(){svg.setCurrentTime(0)},11799.999999999998)}var svg=document.getElementById("kvg-09582-Kaisho");var pause=document.getElementById("pause-kvg-09582-Kaisho");var reset=document.getElementById("reset-kvg-09582-Kaisho");var timer;invoketimer();reset.onclick=function(){svg.setCurrentTime(0);timer.clear();svg.unpauseAnimations();pause.innerHTML = "◼";};pause.onclick=function(){if(svg.animationsPaused()){svg.unpauseAnimations();timer.resume();pause.innerHTML="◼"}else{svg.pauseAnimations();timer.pause();pause.innerHTML="▶"}}]]></script></svg>