<svg id="kvg-09596" class="kanjivg" width="106" height="126" xmlns="http://www.w3.org/2000/svg" xmlns:xlink="http://www.w3.org/1999/xlink" xml:space="preserve" version="1.1" baseProfile="full"><defs><style type="text/css"><![CDATA[path.black{fill:none;stroke:black;stroke-width:5;stroke-linecap:round;stroke-linejoin:round;}path.grey{fill:none;stroke:#ddd;stroke-width:5;stroke-linecap:round;stroke-linejoin:round;}path.stroke{fill:none;stroke:black;stroke-width:5;stroke-linecap:round;stroke-linejoin:round;}rect{fill:none;stroke:#555;stroke-width:2;} text{font-size:16px;font-family:Segoe UI Symbol,Cambria Math,DejaVu Sans,Symbola,Quivira,STIX,Code2000;-webkit-touch-callout:none;cursor:pointer;-webkit-user-select:none;-khtml-user-select:none;-moz-user-select:none;-ms-user-select:none;user-select: none;}text:hover{color:#777;}#reset{font-weight:bold;}]]></style><marker id="markerStart" markerWidth="8" markerHeight="8" style="overflow:visible;"><circle cx="0" cy="0" r="1.5" style="stroke:none;fill:red;fill-opacity:0.5;"/></marker><marker id="markerEnd" style="overflow:visible;"><circle cx="0" cy="0" r="0.8" style="stroke:none;fill:blue;fill-opacity:0.5;"><animate attributeName="opacity" from="1" to="0" dur="3s" repeatCount="indefinite" /></circle></marker></defs><rect x="4" y="4" width="100" height="100" /><path d="M18.39,14.79c0.73,0.46,1.28,3.48,1.43,4.4c0.15,0.93-0.09,72.64-0.24,78.44" class="grey" /><path d="M20.02,17.08c2.44-0.1,17.77-2.66,19.99-2.78c1.85-0.1,2.81,0.91,2.9,1.71c0.14,1.23-2.04,25.32-2.04,25.92" class="grey" /><path d="M19.95,29.39c5.99-0.59,16.12-2.12,21.88-2.76" class="grey" /><path d="M20.02,41.98c8.11-1.15,13.89-2.03,21.06-2.56" class="grey" /><path d="M64.44,14.01c0.44,0.55,0.88,1.74,0.88,2.48c0,0.74-0.15,23.04,0,23.78" class="grey" /><path d="M66.05,15.16c2.49-0.11,19.71-2.79,21.99-2.92c1.9-0.11,2.98,1.15,2.97,1.8c-0.49,19.46-0.5,62.79-0.5,76.9c0,11.06-7.45,2.66-8.9,1.36" class="grey" /><path d="M65.99,26.22c3.38,0,21.09-1.74,24.9-1.74" class="grey" /><path d="M65.55,38.26c4.99,0,18.59-1.56,25.05-1.56" class="grey" /><path d="M53.47,42.08c0.65,0.6,1.1,1.64,1.16,3.64c0.27,9.6-0.17,40.69-0.17,43.96c0,6.46-4.96,0.02-5.95-0.8" class="grey" /><path d="M30.19,61.35c1.06,0.17,2.3,0.7,3.36,0.35c1.06-0.35,9.78-2.97,11.55-3.67c1.77-0.7,3.16,0.52,2.65,2.09c-2.36,7.33-11.46,18.96-18,22.97" class="grey" /><path d="M73.9,48.79c0.09,0.26-0.19,1.02-0.54,1.37c-3.33,3.26-10.43,7.27-16.46,8.96" class="grey" /><path d="M56.24,60.76c5,6.55,13.37,15.39,18.95,19.16c1.18,0.79,2.3,1.2,3.38,1.47" class="grey" /><path d="M18.39,14.79c0.73,0.46,1.28,3.48,1.43,4.4c0.15,0.93-0.09,72.64-0.24,78.44" class="stroke" stroke-dasharray="150"><animate attributeName="stroke-dashoffset" from="150" to="0" dur="1.8s" begin="0.0s" fill="freeze" /></path><path d="M20.02,17.08c2.44-0.1,17.77-2.66,19.99-2.78c1.85-0.1,2.81,0.91,2.9,1.71c0.14,1.23-2.04,25.32-2.04,25.92" class="stroke" stroke-dasharray="150"><set attributeName="opacity" to="0" dur="1.7s" /><animate attributeName="stroke-dashoffset" from="150" to="0" dur="1.8s" begin="1.7s" fill="freeze" /></path><path d="M19.95,29.39c5.99-0.59,16.12-2.12,21.88-2.76" class="stroke" stroke-dasharray="150"><set attributeName="opacity" to="0" dur="2.9s" /><animate attributeName="stroke-dashoffset" from="150" to="0" dur="1.8s" begin="2.9s" fill="freeze" /></path><path d="M20.02,41.98c8.11-1.15,13.89-2.03,21.06-2.56" class="stroke" stroke-dasharray="150"><set attributeName="opacity" to="0" dur="3.9s" /><animate attributeName="stroke-dashoffset" from="150" to="0" dur="1.8s" begin="3.9s" fill="freeze" /></path><path d="M64.44,14.01c0.44,0.55,0.88,1.74,0.88,2.48c0,0.74-0.15,23.04,0,23.78" class="stroke" stroke-dasharray="150"><set attributeName="opacity" to="0" dur="4.9s" /><animate attributeName="stroke-dashoffset" from="150" to="0" dur="1.8s" begin="4.9s" fill="freeze" /></path><path d="M66.05,15.16c2.49-0.11,19.71-2.79,21.99-2.92c1.9-0.11,2.98,1.15,2.97,1.8c-0.49,19.46-0.5,62.79-0.5,76.9c0,11.06-7.45,2.66-8.9,1.36" class="stroke" stroke-dasharray="150"><set attributeName="opacity" to="0" dur="5.9s" /><animate attributeName="stroke-dashoffset" from="150" to="0" dur="1.8s" begin="5.9s" fill="freeze" /></path><path d="M65.99,26.22c3.38,0,21.09-1.74,24.9-1.74" class="stroke" stroke-dasharray="150"><set attributeName="opacity" to="0" dur="7.9s" /><animate attributeName="stroke-dashoffset" from="150" to="0" dur="1.8s" begin="7.9s" fill="freeze" /></path><path d="M65.55,38.26c4.99,0,18.59-1.56,25.05-1.56" class="stroke" stroke-dasharray="150"><set attributeName="opacity" to="0" dur="8.9s" /><animate attributeName="stroke-dashoffset" from="150" to="0" dur="1.8s" begin="8.9s" fill="freeze" /></path><path d="M53.47,42.08c0.65,0.6,1.1,1.64,1.16,3.64c0.27,9.6-0.17,40.69-0.17,43.96c0,6.46-4.96,0.02-5.95-0.8" class="stroke" stroke-dasharray="150"><set attributeName="opacity" to="0" dur="9.9s" /><animate attributeName="stroke-dashoffset" from="150" to="0" dur="1.8s" begin="9.9s" fill="freeze" /></path><path d="M30.19,61.35c1.06,0.17,2.3,0.7,3.36,0.35c1.06-0.35,9.78-2.97,11.55-3.67c1.77-0.7,3.16,0.52,2.65,2.09c-2.36,7.33-11.46,18.96-18,22.97" class="stroke" stroke-dasharray="150"><set attributeName="opacity" to="0" dur="11.3s" /><animate attributeName="stroke-dashoffset" from="150" to="0" dur="1.8s" begin="11.3s" fill="freeze" /></path><path d="M73.9,48.79c0.09,0.26-0.19,1.02-0.54,1.37c-3.33,3.26-10.43,7.27-16.46,8.96" class="stroke" stroke-dasharray="150"><set attributeName="opacity" to="0" dur="12.5s" /><animate attributeName="stroke-dashoffset" from="150" to="0" dur="1.8s" begin="12.5s" fill="freeze" /></path><path d="M56.24,60.76c5,6.55,13.37,15.39,18.95,19.16c1.18,0.79,2.3,1.2,3.38,1.47" class="stroke" stroke-dasharray="150"><set attributeName="opacity" to="0" dur="13.5s" /><animate attributeName="stroke-dashoffset" from="150" to="0" dur="1.8s" begin="13.5s" fill="freeze" /></path><text x="90" y="120" id="reset-kvg-09596">⟳</text><text x="70" y="120" id="pause-kvg-09596">◼</text><script type="text/javascript"><![CDATA[function RecurringTimer(e,t){var n,r,i=t;this.pause=function(){window.clearTimeout(n);i-=new Date-r};var s=function(){r=new Date;n=window.setTimeout(function(){i=t;s();e()},i)};this.clear=function(){window.clearTimeout(n);i=t;n=window.setTimeout(function(){i=t;s();e()},i)};this.resume=s;this.resume()}function invoketimer(){timer=new RecurringTimer(function(){svg.setCurrentTime(0)},15500.0)}var svg=document.getElementById("kvg-09596");var pause=document.getElementById("pause-kvg-09596");var reset=document.getElementById("reset-kvg-09596");var timer;invoketimer();reset.onclick=function(){svg.setCurrentTime(0);timer.clear();svg.unpauseAnimations();pause.innerHTML = "◼";};pause.onclick=function(){if(svg.animationsPaused()){svg.unpauseAnimations();timer.resume();pause.innerHTML="◼"}else{svg.pauseAnimations();timer.pause();pause.innerHTML="▶"}}]]></script></svg>