<svg id="kvg-095b2" class="kanjivg" width="106" height="126" xmlns="http://www.w3.org/2000/svg" xmlns:xlink="http://www.w3.org/1999/xlink" xml:space="preserve" version="1.1" baseProfile="full"><defs><style type="text/css"><![CDATA[path.black{fill:none;stroke:black;stroke-width:5;stroke-linecap:round;stroke-linejoin:round;}path.grey{fill:none;stroke:#ddd;stroke-width:5;stroke-linecap:round;stroke-linejoin:round;}path.stroke{fill:none;stroke:black;stroke-width:5;stroke-linecap:round;stroke-linejoin:round;}rect{fill:none;stroke:#555;stroke-width:2;} text{font-size:16px;font-family:Segoe UI Symbol,Cambria Math,DejaVu Sans,Symbola,Quivira,STIX,Code2000;-webkit-touch-callout:none;cursor:pointer;-webkit-user-select:none;-khtml-user-select:none;-moz-user-select:none;-ms-user-select:none;user-select: none;}text:hover{color:#777;}#reset{font-weight:bold;}]]></style><marker id="markerStart" markerWidth="8" markerHeight="8" style="overflow:visible;"><circle cx="0" cy="0" r="1.5" style="stroke:none;fill:red;fill-opacity:0.5;"/></marker><marker id="markerEnd" style="overflow:visible;"><circle cx="0" cy="0" r="0.8" style="stroke:none;fill:blue;fill-opacity:0.5;"><animate attributeName="opacity" from="1" to="0" dur="3s" repeatCount="indefinite" /></circle></marker></defs><rect x="4" y="4" width="100" height="100" /><path d="M18.64,15.29c1.03,1.03,1.43,2.71,1.43,4.4c0,2.54,0.01,50.61,0.01,69.3c0,3.82,0,6.42,0,7.14" class="grey" /><path d="M20.52,16.83c2.15-0.09,15.04-1.91,19.47-2.41c2.39-0.27,4.18,0.05,4.17,2.7c0,3.5-0.02,12.07-0.03,18.01c0,1.76,0,3.28,0,4.38" class="grey" /><path d="M20.95,27.39c7.42-0.89,15.05-2.02,21.88-2.76" class="grey" /><path d="M21.27,38.98c8.11-1.15,14.39-2.03,21.56-2.56" class="grey" /><path d="M63.69,13.51c0.71,0.71,0.88,1.99,0.88,2.98c0,0.57,0.08,13.19,0,18.76c-0.02,1.7-0.04,3.08-0.04,3.17" class="grey" /><path d="M65.55,14.66c5.01-0.83,13.78-2.16,18.95-2.84c3.5-0.46,5.7-0.04,5.7,3.93c0,20.38,0.04,62.53,0.04,76.13c0,12.31-7.19,2.22-8.64,0.93" class="grey" /><path d="M65.74,24.72c5.63-0.47,19.59-1.74,23.4-1.74" class="grey" /><path d="M65.8,36.01c6.82-0.63,16.84-1.56,23.3-1.56" class="grey" /><path d="M39.96,45.51c2.04,1.32,5.26,5.44,5.77,7.5" class="grey" /><path d="M61.06,42.39c0.06,0.8-0.07,1.56-0.4,2.29c-0.84,2.26-2.16,4.44-5.43,8.69" class="grey" /><path d="M38.72,56.81c0.49,0.64,0.75,1.37,0.77,2.19c0.34,2.08,0.72,5.53,1.14,8.48c0.16,1.13,0.33,2.21,0.5,3.15" class="grey" /><path d="M40.52,57.94c5.3-0.67,15.1-1.77,19.86-2.34c2.29-0.27,4.03,0.47,3.34,3.02c-0.65,2.4-1.23,4.14-2.05,7.22" class="grey" /><path d="M42.18,68.77c4.82-0.4,11.64-1.17,17.57-1.68c1.04-0.09,2.01-0.17,2.89-0.22" class="grey" /><path d="M47.59,71.44c0.05,0.5-0.05,1.58-0.34,2.27C45.38,78,40,85,30.31,90.75" class="grey" /><path d="M55.02,70.23c0.69,0.69,1,1.65,1,2.98c0,3.06-0.02,4.75-0.02,8.54c0,5.25,1.05,6.72,11.15,6.72c8.85,0,10.35-0.72,10.35-5.26" class="grey" /><path d="M18.64,15.29c1.03,1.03,1.43,2.71,1.43,4.4c0,2.54,0.01,50.61,0.01,69.3c0,3.82,0,6.42,0,7.14" class="stroke" stroke-dasharray="150"><animate attributeName="stroke-dashoffset" from="150" to="0" dur="1.8s" begin="0.0s" fill="freeze" /></path><path d="M20.52,16.83c2.15-0.09,15.04-1.91,19.47-2.41c2.39-0.27,4.18,0.05,4.17,2.7c0,3.5-0.02,12.07-0.03,18.01c0,1.76,0,3.28,0,4.38" class="stroke" stroke-dasharray="150"><set attributeName="opacity" to="0" dur="1.7s" /><animate attributeName="stroke-dashoffset" from="150" to="0" dur="1.8s" begin="1.7s" fill="freeze" /></path><path d="M20.95,27.39c7.42-0.89,15.05-2.02,21.88-2.76" class="stroke" stroke-dasharray="150"><set attributeName="opacity" to="0" dur="2.9s" /><animate attributeName="stroke-dashoffset" from="150" to="0" dur="1.8s" begin="2.9s" fill="freeze" /></path><path d="M21.27,38.98c8.11-1.15,14.39-2.03,21.56-2.56" class="stroke" stroke-dasharray="150"><set attributeName="opacity" to="0" dur="3.9s" /><animate attributeName="stroke-dashoffset" from="150" to="0" dur="1.8s" begin="3.9s" fill="freeze" /></path><path d="M63.69,13.51c0.71,0.71,0.88,1.99,0.88,2.98c0,0.57,0.08,13.19,0,18.76c-0.02,1.7-0.04,3.08-0.04,3.17" class="stroke" stroke-dasharray="150"><set attributeName="opacity" to="0" dur="4.9s" /><animate attributeName="stroke-dashoffset" from="150" to="0" dur="1.8s" begin="4.9s" fill="freeze" /></path><path d="M65.55,14.66c5.01-0.83,13.78-2.16,18.95-2.84c3.5-0.46,5.7-0.04,5.7,3.93c0,20.38,0.04,62.53,0.04,76.13c0,12.31-7.19,2.22-8.64,0.93" class="stroke" stroke-dasharray="150"><set attributeName="opacity" to="0" dur="5.9s" /><animate attributeName="stroke-dashoffset" from="150" to="0" dur="1.8s" begin="5.9s" fill="freeze" /></path><path d="M65.74,24.72c5.63-0.47,19.59-1.74,23.4-1.74" class="stroke" stroke-dasharray="150"><set attributeName="opacity" to="0" dur="7.9s" /><animate attributeName="stroke-dashoffset" from="150" to="0" dur="1.8s" begin="7.9s" fill="freeze" /></path><path d="M65.8,36.01c6.82-0.63,16.84-1.56,23.3-1.56" class="stroke" stroke-dasharray="150"><set attributeName="opacity" to="0" dur="8.9s" /><animate attributeName="stroke-dashoffset" from="150" to="0" dur="1.8s" begin="8.9s" fill="freeze" /></path><path d="M39.96,45.51c2.04,1.32,5.26,5.44,5.77,7.5" class="stroke" stroke-dasharray="150"><set attributeName="opacity" to="0" dur="9.9s" /><animate attributeName="stroke-dashoffset" from="150" to="0" dur="1.8s" begin="9.9s" fill="freeze" /></path><path d="M61.06,42.39c0.06,0.8-0.07,1.56-0.4,2.29c-0.84,2.26-2.16,4.44-5.43,8.69" class="stroke" stroke-dasharray="150"><set attributeName="opacity" to="0" dur="10.8s" /><animate attributeName="stroke-dashoffset" from="150" to="0" dur="1.8s" begin="10.8s" fill="freeze" /></path><path d="M38.72,56.81c0.49,0.64,0.75,1.37,0.77,2.19c0.34,2.08,0.72,5.53,1.14,8.48c0.16,1.13,0.33,2.21,0.5,3.15" class="stroke" stroke-dasharray="150"><set attributeName="opacity" to="0" dur="11.700000000000001s" /><animate attributeName="stroke-dashoffset" from="150" to="0" dur="1.8s" begin="11.700000000000001s" fill="freeze" /></path><path d="M40.52,57.94c5.3-0.67,15.1-1.77,19.86-2.34c2.29-0.27,4.03,0.47,3.34,3.02c-0.65,2.4-1.23,4.14-2.05,7.22" class="stroke" stroke-dasharray="150"><set attributeName="opacity" to="0" dur="12.600000000000001s" /><animate attributeName="stroke-dashoffset" from="150" to="0" dur="1.8s" begin="12.600000000000001s" fill="freeze" /></path><path d="M42.18,68.77c4.82-0.4,11.64-1.17,17.57-1.68c1.04-0.09,2.01-0.17,2.89-0.22" class="stroke" stroke-dasharray="150"><set attributeName="opacity" to="0" dur="13.600000000000001s" /><animate attributeName="stroke-dashoffset" from="150" to="0" dur="1.8s" begin="13.600000000000001s" fill="freeze" /></path><path d="M47.59,71.44c0.05,0.5-0.05,1.58-0.34,2.27C45.38,78,40,85,30.31,90.75" class="stroke" stroke-dasharray="150"><set attributeName="opacity" to="0" dur="14.600000000000001s" /><animate attributeName="stroke-dashoffset" from="150" to="0" dur="1.8s" begin="14.600000000000001s" fill="freeze" /></path><path d="M55.02,70.23c0.69,0.69,1,1.65,1,2.98c0,3.06-0.02,4.75-0.02,8.54c0,5.25,1.05,6.72,11.15,6.72c8.85,0,10.35-0.72,10.35-5.26" class="stroke" stroke-dasharray="150"><set attributeName="opacity" to="0" dur="15.600000000000001s" /><animate attributeName="stroke-dashoffset" from="150" to="0" dur="1.8s" begin="15.600000000000001s" fill="freeze" /></path><text x="90" y="120" id="reset-kvg-095b2">⟳</text><text x="70" y="120" id="pause-kvg-095b2">◼</text><script type="text/javascript"><![CDATA[function RecurringTimer(e,t){var n,r,i=t;this.pause=function(){window.clearTimeout(n);i-=new Date-r};var s=function(){r=new Date;n=window.setTimeout(function(){i=t;s();e()},i)};this.clear=function(){window.clearTimeout(n);i=t;n=window.setTimeout(function(){i=t;s();e()},i)};this.resume=s;this.resume()}function invoketimer(){timer=new RecurringTimer(function(){svg.setCurrentTime(0)},17700.000000000004)}var svg=document.getElementById("kvg-095b2");var pause=document.getElementById("pause-kvg-095b2");var reset=document.getElementById("reset-kvg-095b2");var timer;invoketimer();reset.onclick=function(){svg.setCurrentTime(0);timer.clear();svg.unpauseAnimations();pause.innerHTML = "◼";};pause.onclick=function(){if(svg.animationsPaused()){svg.unpauseAnimations();timer.resume();pause.innerHTML="◼"}else{svg.pauseAnimations();timer.pause();pause.innerHTML="▶"}}]]></script></svg>