<svg id="kvg-095c7" class="kanjivg" width="106" height="126" xmlns="http://www.w3.org/2000/svg" xmlns:xlink="http://www.w3.org/1999/xlink" xml:space="preserve" version="1.1" baseProfile="full"><defs><style type="text/css"><![CDATA[path.black{fill:none;stroke:black;stroke-width:5;stroke-linecap:round;stroke-linejoin:round;}path.grey{fill:none;stroke:#ddd;stroke-width:5;stroke-linecap:round;stroke-linejoin:round;}path.stroke{fill:none;stroke:black;stroke-width:5;stroke-linecap:round;stroke-linejoin:round;}rect{fill:none;stroke:#555;stroke-width:2;} text{font-size:16px;font-family:Segoe UI Symbol,Cambria Math,DejaVu Sans,Symbola,Quivira,STIX,Code2000;-webkit-touch-callout:none;cursor:pointer;-webkit-user-select:none;-khtml-user-select:none;-moz-user-select:none;-ms-user-select:none;user-select: none;}text:hover{color:#777;}#reset{font-weight:bold;}]]></style><marker id="markerStart" markerWidth="8" markerHeight="8" style="overflow:visible;"><circle cx="0" cy="0" r="1.5" style="stroke:none;fill:red;fill-opacity:0.5;"/></marker><marker id="markerEnd" style="overflow:visible;"><circle cx="0" cy="0" r="0.8" style="stroke:none;fill:blue;fill-opacity:0.5;"><animate attributeName="opacity" from="1" to="0" dur="3s" repeatCount="indefinite" /></circle></marker></defs><rect x="4" y="4" width="100" height="100" /><path d="M19.14,15.54c0.73,0.96,0.98,2.84,0.93,4.15c-0.02,0.65-0.01,46.03,0,66.56c0,5.82,0.01,9.64,0.01,9.88" class="grey" /><path d="M21.27,17.08c2.09-0.09,13.46-1.99,18.1-2.6c2.7-0.36,4.58,0.05,4.55,3.03c-0.03,3.46-0.04,12.08-0.05,17.37c0,2.47,0,4.21,0,4.38" class="grey" /><path d="M21.2,27.39c6.55-0.89,14.42-1.89,21.63-2.51" class="grey" /><path d="M21.02,38.98c8.11-1.15,14.64-2.03,21.81-2.56" class="grey" /><path d="M63.69,13.26c0.44,0.55,0.89,1.48,0.88,2.73c-0.02,8.11-0.05,13.69-0.05,18.14c0,1.55,0,2.96,0.01,4.29" class="grey" /><path d="M65.3,14.66c2.16-0.09,15.31-2.11,20.31-2.73c3.09-0.39,4.61,0.16,4.6,3.45c-0.09,22.88-0.09,62.81-0.09,76.5c0,10.56-6.07,2.22-7.52,0.93" class="grey" /><path d="M65.74,24.97c5.88-0.72,16.38-1.72,22.9-1.99" class="grey" /><path d="M65.8,36.26c6.57-0.63,15.45-1.63,22.8-1.81" class="grey" /><path d="M53.45,41.49c0.8,0.63,0.96,1.73,0.9,2.58c-0.09,1.3,0.03,2.05-0.07,4.25" class="grey" /><path d="M36.72,50.47c1.94,0.22,3.56,0.4,5.53,0.23C47.63,50.24,56.31,49,66,47.82c1.98-0.24,3.5-0.2,5.42,0.06" class="grey" /><path d="M42.75,54c2.98,2.21,3.6,4.33,4.02,5.88" class="grey" /><path d="M64.41,51.24c0.09,0.89-0.16,1.67-0.56,2.5c-1.07,2.26-2.39,4-3.09,5.21" class="grey" /><path d="M31.34,63.88c2.37,0.52,4.66,0.35,7.03,0c11.76-1.76,23.5-2.75,32.26-3.37c2.39-0.17,5.28-0.64,7.53,0.38" class="grey" /><path d="M42.02,69.76c0.62,1.02,0.88,2.1,0.77,3.24c0,4.69-0.02,11.02-0.03,15.37c-0.01,2.09-0.01,3.73-0.01,4.5" class="grey" /><path d="M43.42,71.02c1.87-0.19,14.19-1.67,18.61-2.4c2.9-0.48,4.21-0.49,4.16,2.87c-0.05,3.28-0.06,9.09-0.06,15.38c0,1.65,0,3.33,0,5" class="grey" /><path d="M44.06,80.75c4.32-0.37,17.71-2,21-2.17" class="grey" /><path d="M44.18,90.3c6.19-0.55,15.06-1.93,20.63-2.22" class="grey" /><path d="M19.14,15.54c0.73,0.96,0.98,2.84,0.93,4.15c-0.02,0.65-0.01,46.03,0,66.56c0,5.82,0.01,9.64,0.01,9.88" class="stroke" stroke-dasharray="150"><animate attributeName="stroke-dashoffset" from="150" to="0" dur="1.8s" begin="0.0s" fill="freeze" /></path><path d="M21.27,17.08c2.09-0.09,13.46-1.99,18.1-2.6c2.7-0.36,4.58,0.05,4.55,3.03c-0.03,3.46-0.04,12.08-0.05,17.37c0,2.47,0,4.21,0,4.38" class="stroke" stroke-dasharray="150"><set attributeName="opacity" to="0" dur="1.7s" /><animate attributeName="stroke-dashoffset" from="150" to="0" dur="1.8s" begin="1.7s" fill="freeze" /></path><path d="M21.2,27.39c6.55-0.89,14.42-1.89,21.63-2.51" class="stroke" stroke-dasharray="150"><set attributeName="opacity" to="0" dur="2.9s" /><animate attributeName="stroke-dashoffset" from="150" to="0" dur="1.8s" begin="2.9s" fill="freeze" /></path><path d="M21.02,38.98c8.11-1.15,14.64-2.03,21.81-2.56" class="stroke" stroke-dasharray="150"><set attributeName="opacity" to="0" dur="3.9s" /><animate attributeName="stroke-dashoffset" from="150" to="0" dur="1.8s" begin="3.9s" fill="freeze" /></path><path d="M63.69,13.26c0.44,0.55,0.89,1.48,0.88,2.73c-0.02,8.11-0.05,13.69-0.05,18.14c0,1.55,0,2.96,0.01,4.29" class="stroke" stroke-dasharray="150"><set attributeName="opacity" to="0" dur="4.9s" /><animate attributeName="stroke-dashoffset" from="150" to="0" dur="1.8s" begin="4.9s" fill="freeze" /></path><path d="M65.3,14.66c2.16-0.09,15.31-2.11,20.31-2.73c3.09-0.39,4.61,0.16,4.6,3.45c-0.09,22.88-0.09,62.81-0.09,76.5c0,10.56-6.07,2.22-7.52,0.93" class="stroke" stroke-dasharray="150"><set attributeName="opacity" to="0" dur="5.9s" /><animate attributeName="stroke-dashoffset" from="150" to="0" dur="1.8s" begin="5.9s" fill="freeze" /></path><path d="M65.74,24.97c5.88-0.72,16.38-1.72,22.9-1.99" class="stroke" stroke-dasharray="150"><set attributeName="opacity" to="0" dur="7.9s" /><animate attributeName="stroke-dashoffset" from="150" to="0" dur="1.8s" begin="7.9s" fill="freeze" /></path><path d="M65.8,36.26c6.57-0.63,15.45-1.63,22.8-1.81" class="stroke" stroke-dasharray="150"><set attributeName="opacity" to="0" dur="8.9s" /><animate attributeName="stroke-dashoffset" from="150" to="0" dur="1.8s" begin="8.9s" fill="freeze" /></path><path d="M53.45,41.49c0.8,0.63,0.96,1.73,0.9,2.58c-0.09,1.3,0.03,2.05-0.07,4.25" class="stroke" stroke-dasharray="150"><set attributeName="opacity" to="0" dur="9.9s" /><animate attributeName="stroke-dashoffset" from="150" to="0" dur="1.8s" begin="9.9s" fill="freeze" /></path><path d="M36.72,50.47c1.94,0.22,3.56,0.4,5.53,0.23C47.63,50.24,56.31,49,66,47.82c1.98-0.24,3.5-0.2,5.42,0.06" class="stroke" stroke-dasharray="150"><set attributeName="opacity" to="0" dur="10.8s" /><animate attributeName="stroke-dashoffset" from="150" to="0" dur="1.8s" begin="10.8s" fill="freeze" /></path><path d="M42.75,54c2.98,2.21,3.6,4.33,4.02,5.88" class="stroke" stroke-dasharray="150"><set attributeName="opacity" to="0" dur="11.8s" /><animate attributeName="stroke-dashoffset" from="150" to="0" dur="1.8s" begin="11.8s" fill="freeze" /></path><path d="M64.41,51.24c0.09,0.89-0.16,1.67-0.56,2.5c-1.07,2.26-2.39,4-3.09,5.21" class="stroke" stroke-dasharray="150"><set attributeName="opacity" to="0" dur="12.700000000000001s" /><animate attributeName="stroke-dashoffset" from="150" to="0" dur="1.8s" begin="12.700000000000001s" fill="freeze" /></path><path d="M31.34,63.88c2.37,0.52,4.66,0.35,7.03,0c11.76-1.76,23.5-2.75,32.26-3.37c2.39-0.17,5.28-0.64,7.53,0.38" class="stroke" stroke-dasharray="150"><set attributeName="opacity" to="0" dur="13.600000000000001s" /><animate attributeName="stroke-dashoffset" from="150" to="0" dur="1.8s" begin="13.600000000000001s" fill="freeze" /></path><path d="M42.02,69.76c0.62,1.02,0.88,2.1,0.77,3.24c0,4.69-0.02,11.02-0.03,15.37c-0.01,2.09-0.01,3.73-0.01,4.5" class="stroke" stroke-dasharray="150"><set attributeName="opacity" to="0" dur="14.8s" /><animate attributeName="stroke-dashoffset" from="150" to="0" dur="1.8s" begin="14.8s" fill="freeze" /></path><path d="M43.42,71.02c1.87-0.19,14.19-1.67,18.61-2.4c2.9-0.48,4.21-0.49,4.16,2.87c-0.05,3.28-0.06,9.09-0.06,15.38c0,1.65,0,3.33,0,5" class="stroke" stroke-dasharray="150"><set attributeName="opacity" to="0" dur="15.8s" /><animate attributeName="stroke-dashoffset" from="150" to="0" dur="1.8s" begin="15.8s" fill="freeze" /></path><path d="M44.06,80.75c4.32-0.37,17.71-2,21-2.17" class="stroke" stroke-dasharray="150"><set attributeName="opacity" to="0" dur="17.0s" /><animate attributeName="stroke-dashoffset" from="150" to="0" dur="1.8s" begin="17.0s" fill="freeze" /></path><path d="M44.18,90.3c6.19-0.55,15.06-1.93,20.63-2.22" class="stroke" stroke-dasharray="150"><set attributeName="opacity" to="0" dur="18.0s" /><animate attributeName="stroke-dashoffset" from="150" to="0" dur="1.8s" begin="18.0s" fill="freeze" /></path><text x="90" y="120" id="reset-kvg-095c7">⟳</text><text x="70" y="120" id="pause-kvg-095c7">◼</text><script type="text/javascript"><![CDATA[function RecurringTimer(e,t){var n,r,i=t;this.pause=function(){window.clearTimeout(n);i-=new Date-r};var s=function(){r=new Date;n=window.setTimeout(function(){i=t;s();e()},i)};this.clear=function(){window.clearTimeout(n);i=t;n=window.setTimeout(function(){i=t;s();e()},i)};this.resume=s;this.resume()}function invoketimer(){timer=new RecurringTimer(function(){svg.setCurrentTime(0)},20000.0)}var svg=document.getElementById("kvg-095c7");var pause=document.getElementById("pause-kvg-095c7");var reset=document.getElementById("reset-kvg-095c7");var timer;invoketimer();reset.onclick=function(){svg.setCurrentTime(0);timer.clear();svg.unpauseAnimations();pause.innerHTML = "◼";};pause.onclick=function(){if(svg.animationsPaused()){svg.unpauseAnimations();timer.resume();pause.innerHTML="◼"}else{svg.pauseAnimations();timer.pause();pause.innerHTML="▶"}}]]></script></svg>