<svg id="kvg-0962e" class="kanjivg" width="106" height="126" xmlns="http://www.w3.org/2000/svg" xmlns:xlink="http://www.w3.org/1999/xlink" xml:space="preserve" version="1.1" baseProfile="full"><defs><style type="text/css"><![CDATA[path.black{fill:none;stroke:black;stroke-width:5;stroke-linecap:round;stroke-linejoin:round;}path.grey{fill:none;stroke:#ddd;stroke-width:5;stroke-linecap:round;stroke-linejoin:round;}path.stroke{fill:none;stroke:black;stroke-width:5;stroke-linecap:round;stroke-linejoin:round;}rect{fill:none;stroke:#555;stroke-width:2;} text{font-size:16px;font-family:Segoe UI Symbol,Cambria Math,DejaVu Sans,Symbola,Quivira,STIX,Code2000;-webkit-touch-callout:none;cursor:pointer;-webkit-user-select:none;-khtml-user-select:none;-moz-user-select:none;-ms-user-select:none;user-select: none;}text:hover{color:#777;}#reset{font-weight:bold;}]]></style><marker id="markerStart" markerWidth="8" markerHeight="8" style="overflow:visible;"><circle cx="0" cy="0" r="1.5" style="stroke:none;fill:red;fill-opacity:0.5;"/></marker><marker id="markerEnd" style="overflow:visible;"><circle cx="0" cy="0" r="0.8" style="stroke:none;fill:blue;fill-opacity:0.5;"><animate attributeName="opacity" from="1" to="0" dur="3s" repeatCount="indefinite" /></circle></marker></defs><rect x="4" y="4" width="100" height="100" /><path d="M15.87,19.16c1.17,0.23,2.51,0.51,3.88,0.3c6-0.95,11.5-1.66,14.39-2.75c3.06-1.15,6.12,1.15,4.76,3.83c-1.36,2.68-9.13,15.71-11.51,19.55" class="grey" /><path d="M27.38,40.09C43.5,50.75,38.5,82,28.58,71.93" class="grey" /><path d="M17.04,19.53c0.46,1.22,0.78,2.59,1,3.74c0.22,1.15,0,66.8-0.22,73.99" class="grey" /><path d="M48.17,21.87c0.99,0.41,2.8,0.45,3.8,0.41c10.31-0.47,16.33-2.13,30.15-2.86c1.65-0.09,2.64,0.19,3.47,0.4" class="grey" /><path d="M40.28,42.52c1.47,0.48,4.17,0.6,5.64,0.48c12.32-1.05,31.78-3.39,44.45-3.62c2.45-0.05,3.92,0.23,5.15,0.47" class="grey" /><path d="M57.02,45.97c0.69,1.18,1.06,3,0.84,4.69C56.12,64.41,54.5,85.25,34,95.5" class="grey" /><path d="M71.36,43.57c1.42,1.42,2.19,2.21,2.23,4.83c0.11,7.5-0.46,25.97-0.46,34.75c0,9.35,2.38,11.46,11.88,11.46c8.25,0,10.5-1.61,10.5-10.5" class="grey" /><path d="M15.87,19.16c1.17,0.23,2.51,0.51,3.88,0.3c6-0.95,11.5-1.66,14.39-2.75c3.06-1.15,6.12,1.15,4.76,3.83c-1.36,2.68-9.13,15.71-11.51,19.55" class="stroke" stroke-dasharray="150"><animate attributeName="stroke-dashoffset" from="150" to="0" dur="1.8s" begin="0.0s" fill="freeze" /></path><path d="M27.38,40.09C43.5,50.75,38.5,82,28.58,71.93" class="stroke" stroke-dasharray="150"><set attributeName="opacity" to="0" dur="1.2s" /><animate attributeName="stroke-dashoffset" from="150" to="0" dur="1.8s" begin="1.2s" fill="freeze" /></path><path d="M17.04,19.53c0.46,1.22,0.78,2.59,1,3.74c0.22,1.15,0,66.8-0.22,73.99" class="stroke" stroke-dasharray="150"><set attributeName="opacity" to="0" dur="2.3s" /><animate attributeName="stroke-dashoffset" from="150" to="0" dur="1.8s" begin="2.3s" fill="freeze" /></path><path d="M48.17,21.87c0.99,0.41,2.8,0.45,3.8,0.41c10.31-0.47,16.33-2.13,30.15-2.86c1.65-0.09,2.64,0.19,3.47,0.4" class="stroke" stroke-dasharray="150"><set attributeName="opacity" to="0" dur="4.0s" /><animate attributeName="stroke-dashoffset" from="150" to="0" dur="1.8s" begin="4.0s" fill="freeze" /></path><path d="M40.28,42.52c1.47,0.48,4.17,0.6,5.64,0.48c12.32-1.05,31.78-3.39,44.45-3.62c2.45-0.05,3.92,0.23,5.15,0.47" class="stroke" stroke-dasharray="150"><set attributeName="opacity" to="0" dur="5.0s" /><animate attributeName="stroke-dashoffset" from="150" to="0" dur="1.8s" begin="5.0s" fill="freeze" /></path><path d="M57.02,45.97c0.69,1.18,1.06,3,0.84,4.69C56.12,64.41,54.5,85.25,34,95.5" class="stroke" stroke-dasharray="150"><set attributeName="opacity" to="0" dur="6.4s" /><animate attributeName="stroke-dashoffset" from="150" to="0" dur="1.8s" begin="6.4s" fill="freeze" /></path><path d="M71.36,43.57c1.42,1.42,2.19,2.21,2.23,4.83c0.11,7.5-0.46,25.97-0.46,34.75c0,9.35,2.38,11.46,11.88,11.46c8.25,0,10.5-1.61,10.5-10.5" class="stroke" stroke-dasharray="150"><set attributeName="opacity" to="0" dur="7.800000000000001s" /><animate attributeName="stroke-dashoffset" from="150" to="0" dur="1.8s" begin="7.800000000000001s" fill="freeze" /></path><text x="90" y="120" id="reset-kvg-0962e">⟳</text><text x="70" y="120" id="pause-kvg-0962e">◼</text><script type="text/javascript"><![CDATA[function RecurringTimer(e,t){var n,r,i=t;this.pause=function(){window.clearTimeout(n);i-=new Date-r};var s=function(){r=new Date;n=window.setTimeout(function(){i=t;s();e()},i)};this.clear=function(){window.clearTimeout(n);i=t;n=window.setTimeout(function(){i=t;s();e()},i)};this.resume=s;this.resume()}function invoketimer(){timer=new RecurringTimer(function(){svg.setCurrentTime(0)},10500.0)}var svg=document.getElementById("kvg-0962e");var pause=document.getElementById("pause-kvg-0962e");var reset=document.getElementById("reset-kvg-0962e");var timer;invoketimer();reset.onclick=function(){svg.setCurrentTime(0);timer.clear();svg.unpauseAnimations();pause.innerHTML = "◼";};pause.onclick=function(){if(svg.animationsPaused()){svg.unpauseAnimations();timer.resume();pause.innerHTML="◼"}else{svg.pauseAnimations();timer.pause();pause.innerHTML="▶"}}]]></script></svg>