<svg id="kvg-09632" class="kanjivg" width="106" height="126" xmlns="http://www.w3.org/2000/svg" xmlns:xlink="http://www.w3.org/1999/xlink" xml:space="preserve" version="1.1" baseProfile="full"><defs><style type="text/css"><![CDATA[path.black{fill:none;stroke:black;stroke-width:5;stroke-linecap:round;stroke-linejoin:round;}path.grey{fill:none;stroke:#ddd;stroke-width:5;stroke-linecap:round;stroke-linejoin:round;}path.stroke{fill:none;stroke:black;stroke-width:5;stroke-linecap:round;stroke-linejoin:round;}rect{fill:none;stroke:#555;stroke-width:2;} text{font-size:16px;font-family:Segoe UI Symbol,Cambria Math,DejaVu Sans,Symbola,Quivira,STIX,Code2000;-webkit-touch-callout:none;cursor:pointer;-webkit-user-select:none;-khtml-user-select:none;-moz-user-select:none;-ms-user-select:none;user-select: none;}text:hover{color:#777;}#reset{font-weight:bold;}]]></style><marker id="markerStart" markerWidth="8" markerHeight="8" style="overflow:visible;"><circle cx="0" cy="0" r="1.5" style="stroke:none;fill:red;fill-opacity:0.5;"/></marker><marker id="markerEnd" style="overflow:visible;"><circle cx="0" cy="0" r="0.8" style="stroke:none;fill:blue;fill-opacity:0.5;"><animate attributeName="opacity" from="1" to="0" dur="3s" repeatCount="indefinite" /></circle></marker></defs><rect x="4" y="4" width="100" height="100" /><path d="M14.87,17.97c1.26,0.66,2.66,0.57,3.91,0.45c4.47-0.42,11.85-1.92,16.35-3c3.85-0.92,5.45,1.01,3.3,4.86C36,24.62,30.5,33.08,28.04,36.06" class="grey" /><path d="M28.04,36.06c14.71,11.06,11.08,34.81-0.75,28.19" class="grey" /><path d="M16.04,18.78c0.91,0.91,1.25,2.07,1.25,3.24c0,5.24,0.08,44.69,0.04,66.24c-0.01,4.18-0.01,7.51-0.01,9.5" class="grey" /><path d="M67.61,12c1,1.01,1.73,2.38,1.73,3.91c0,4.45,0.1,8.84,0.1,12.9" class="grey" /><path d="M42,32.34c2.75,0.54,4.8,0.46,7.39,0.15c9.72-1.17,30.12-4.15,41.99-4.79c2.36-0.13,4.86-0.4,7.12,0.45" class="grey" /><path d="M67.5,44.75c7,3.25,12.12,5,18.24,6.36C89.09,51.86,89,54,88,57.75c-1.8,6.74-10.24,28.91-15.13,34.08c-5.12,5.42-6.71-0.74-8.09-1.57" class="grey" /><path d="M68.5,33.5c0.5,1.25,0.48,2.72-0.19,4.37C62.75,51.62,54.5,70.12,34.75,85" class="grey" /><path d="M14.87,17.97c1.26,0.66,2.66,0.57,3.91,0.45c4.47-0.42,11.85-1.92,16.35-3c3.85-0.92,5.45,1.01,3.3,4.86C36,24.62,30.5,33.08,28.04,36.06" class="stroke" stroke-dasharray="150"><animate attributeName="stroke-dashoffset" from="150" to="0" dur="1.8s" begin="0.0s" fill="freeze" /></path><path d="M28.04,36.06c14.71,11.06,11.08,34.81-0.75,28.19" class="stroke" stroke-dasharray="150"><set attributeName="opacity" to="0" dur="1.2s" /><animate attributeName="stroke-dashoffset" from="150" to="0" dur="1.8s" begin="1.2s" fill="freeze" /></path><path d="M16.04,18.78c0.91,0.91,1.25,2.07,1.25,3.24c0,5.24,0.08,44.69,0.04,66.24c-0.01,4.18-0.01,7.51-0.01,9.5" class="stroke" stroke-dasharray="150"><set attributeName="opacity" to="0" dur="2.2s" /><animate attributeName="stroke-dashoffset" from="150" to="0" dur="1.8s" begin="2.2s" fill="freeze" /></path><path d="M67.61,12c1,1.01,1.73,2.38,1.73,3.91c0,4.45,0.1,8.84,0.1,12.9" class="stroke" stroke-dasharray="150"><set attributeName="opacity" to="0" dur="3.9000000000000004s" /><animate attributeName="stroke-dashoffset" from="150" to="0" dur="1.8s" begin="3.9000000000000004s" fill="freeze" /></path><path d="M42,32.34c2.75,0.54,4.8,0.46,7.39,0.15c9.72-1.17,30.12-4.15,41.99-4.79c2.36-0.13,4.86-0.4,7.12,0.45" class="stroke" stroke-dasharray="150"><set attributeName="opacity" to="0" dur="4.800000000000001s" /><animate attributeName="stroke-dashoffset" from="150" to="0" dur="1.8s" begin="4.800000000000001s" fill="freeze" /></path><path d="M67.5,44.75c7,3.25,12.12,5,18.24,6.36C89.09,51.86,89,54,88,57.75c-1.8,6.74-10.24,28.91-15.13,34.08c-5.12,5.42-6.71-0.74-8.09-1.57" class="stroke" stroke-dasharray="150"><set attributeName="opacity" to="0" dur="6.200000000000001s" /><animate attributeName="stroke-dashoffset" from="150" to="0" dur="1.8s" begin="6.200000000000001s" fill="freeze" /></path><path d="M68.5,33.5c0.5,1.25,0.48,2.72-0.19,4.37C62.75,51.62,54.5,70.12,34.75,85" class="stroke" stroke-dasharray="150"><set attributeName="opacity" to="0" dur="7.900000000000001s" /><animate attributeName="stroke-dashoffset" from="150" to="0" dur="1.8s" begin="7.900000000000001s" fill="freeze" /></path><text x="90" y="120" id="reset-kvg-09632">⟳</text><text x="70" y="120" id="pause-kvg-09632">◼</text><script type="text/javascript"><![CDATA[function RecurringTimer(e,t){var n,r,i=t;this.pause=function(){window.clearTimeout(n);i-=new Date-r};var s=function(){r=new Date;n=window.setTimeout(function(){i=t;s();e()},i)};this.clear=function(){window.clearTimeout(n);i=t;n=window.setTimeout(function(){i=t;s();e()},i)};this.resume=s;this.resume()}function invoketimer(){timer=new RecurringTimer(function(){svg.setCurrentTime(0)},10400.000000000002)}var svg=document.getElementById("kvg-09632");var pause=document.getElementById("pause-kvg-09632");var reset=document.getElementById("reset-kvg-09632");var timer;invoketimer();reset.onclick=function(){svg.setCurrentTime(0);timer.clear();svg.unpauseAnimations();pause.innerHTML = "◼";};pause.onclick=function(){if(svg.animationsPaused()){svg.unpauseAnimations();timer.resume();pause.innerHTML="◼"}else{svg.pauseAnimations();timer.pause();pause.innerHTML="▶"}}]]></script></svg>