<svg id="kvg-0968d-KaishoVtLst" class="kanjivg" width="106" height="126" xmlns="http://www.w3.org/2000/svg" xmlns:xlink="http://www.w3.org/1999/xlink" xml:space="preserve" version="1.1" baseProfile="full"><defs><style type="text/css"><![CDATA[path.black{fill:none;stroke:black;stroke-width:5;stroke-linecap:round;stroke-linejoin:round;}path.grey{fill:none;stroke:#ddd;stroke-width:5;stroke-linecap:round;stroke-linejoin:round;}path.stroke{fill:none;stroke:black;stroke-width:5;stroke-linecap:round;stroke-linejoin:round;}rect{fill:none;stroke:#555;stroke-width:2;} text{font-size:16px;font-family:Segoe UI Symbol,Cambria Math,DejaVu Sans,Symbola,Quivira,STIX,Code2000;-webkit-touch-callout:none;cursor:pointer;-webkit-user-select:none;-khtml-user-select:none;-moz-user-select:none;-ms-user-select:none;user-select: none;}text:hover{color:#777;}#reset{font-weight:bold;}]]></style><marker id="markerStart" markerWidth="8" markerHeight="8" style="overflow:visible;"><circle cx="0" cy="0" r="1.5" style="stroke:none;fill:red;fill-opacity:0.5;"/></marker><marker id="markerEnd" style="overflow:visible;"><circle cx="0" cy="0" r="0.8" style="stroke:none;fill:blue;fill-opacity:0.5;"><animate attributeName="opacity" from="1" to="0" dur="3s" repeatCount="indefinite" /></circle></marker></defs><rect x="4" y="4" width="100" height="100" /><path d="M14.87,18.16c0.83,0.23,1.66,0.6,2.46,0.45c7.42-1.36,11.14-1.89,13.81-2.9c3.06-1.15,6.12,1.15,4.76,3.83c-1.36,2.68-6.63,16.21-9.01,20.05" class="grey" /><path d="M26.88,39.59C39.75,51,39,82.25,26.08,70.43" class="grey" /><path d="M16.04,19.53c0.46,1.47,0.28,2.59,0.5,3.74c0.22,1.15,0,67.3-0.22,74.49" class="grey" /><path d="M67.21,10.25c0.4,0.51,0.46,1.15,0.36,1.59c-0.56,2.65-5.34,8.99-9.7,12.55" class="grey" /><path d="M46.55,24.2c0.71,0.76,1.28,2.16,1.44,3.15c0.85,5.53,3.14,18.81,3.43,23.79" class="grey" /><path d="M48.41,25.99c9.97-1.37,32.46-2.88,36.13-3.38c1.77-0.24,3.41,1.01,3.03,3.1c-0.86,4.64-2.29,14.43-4,23.32" class="grey" /><path d="M49.39,36.5c6.63-0.74,13.29-1.23,19.95-1.65c1.72-0.11,3.41-0.21,5.01-0.3" class="grey" /><path d="M52.08,48.75c10.35-0.86,22.7-1.36,31.25-1.62" class="grey" /><path d="M44.75,62.63c1.03,0.51,4.41,0.18,5.45,0.03c4.86-0.7,25.12-2.19,36.84-2.72c1.6-0.07,3.05,0.1,4.37,0.53" class="grey" /><path d="M46.25,76.08c0.83,0.57,3.56,0.31,4.41,0.25c8.59-0.58,22.76-0.94,33.12-1.95c1.03-0.1,3.31-0.23,4.85,0.26" class="grey" /><path d="M37.84,93.73c0.7,0.31,4.35,0.62,5.54,0.52c14.23-1.28,28.24-1.19,46-2.19c2.98-0.17,5.22-0.15,7.26,0" class="grey" /><path d="M66.11,63.15c1.29,2.08,1.29,3.33,1.29,5c0,4.6-0.07,17.6-0.07,24.47" class="grey" /><path d="M14.87,18.16c0.83,0.23,1.66,0.6,2.46,0.45c7.42-1.36,11.14-1.89,13.81-2.9c3.06-1.15,6.12,1.15,4.76,3.83c-1.36,2.68-6.63,16.21-9.01,20.05" class="stroke" stroke-dasharray="150"><animate attributeName="stroke-dashoffset" from="150" to="0" dur="1.8s" begin="0.0s" fill="freeze" /></path><path d="M26.88,39.59C39.75,51,39,82.25,26.08,70.43" class="stroke" stroke-dasharray="150"><set attributeName="opacity" to="0" dur="1.2s" /><animate attributeName="stroke-dashoffset" from="150" to="0" dur="1.8s" begin="1.2s" fill="freeze" /></path><path d="M16.04,19.53c0.46,1.47,0.28,2.59,0.5,3.74c0.22,1.15,0,67.3-0.22,74.49" class="stroke" stroke-dasharray="150"><set attributeName="opacity" to="0" dur="2.3s" /><animate attributeName="stroke-dashoffset" from="150" to="0" dur="1.8s" begin="2.3s" fill="freeze" /></path><path d="M67.21,10.25c0.4,0.51,0.46,1.15,0.36,1.59c-0.56,2.65-5.34,8.99-9.7,12.55" class="stroke" stroke-dasharray="150"><set attributeName="opacity" to="0" dur="4.0s" /><animate attributeName="stroke-dashoffset" from="150" to="0" dur="1.8s" begin="4.0s" fill="freeze" /></path><path d="M46.55,24.2c0.71,0.76,1.28,2.16,1.44,3.15c0.85,5.53,3.14,18.81,3.43,23.79" class="stroke" stroke-dasharray="150"><set attributeName="opacity" to="0" dur="4.9s" /><animate attributeName="stroke-dashoffset" from="150" to="0" dur="1.8s" begin="4.9s" fill="freeze" /></path><path d="M48.41,25.99c9.97-1.37,32.46-2.88,36.13-3.38c1.77-0.24,3.41,1.01,3.03,3.1c-0.86,4.64-2.29,14.43-4,23.32" class="stroke" stroke-dasharray="150"><set attributeName="opacity" to="0" dur="5.9s" /><animate attributeName="stroke-dashoffset" from="150" to="0" dur="1.8s" begin="5.9s" fill="freeze" /></path><path d="M49.39,36.5c6.63-0.74,13.29-1.23,19.95-1.65c1.72-0.11,3.41-0.21,5.01-0.3" class="stroke" stroke-dasharray="150"><set attributeName="opacity" to="0" dur="7.4s" /><animate attributeName="stroke-dashoffset" from="150" to="0" dur="1.8s" begin="7.4s" fill="freeze" /></path><path d="M52.08,48.75c10.35-0.86,22.7-1.36,31.25-1.62" class="stroke" stroke-dasharray="150"><set attributeName="opacity" to="0" dur="8.4s" /><animate attributeName="stroke-dashoffset" from="150" to="0" dur="1.8s" begin="8.4s" fill="freeze" /></path><path d="M44.75,62.63c1.03,0.51,4.41,0.18,5.45,0.03c4.86-0.7,25.12-2.19,36.84-2.72c1.6-0.07,3.05,0.1,4.37,0.53" class="stroke" stroke-dasharray="150"><set attributeName="opacity" to="0" dur="9.4s" /><animate attributeName="stroke-dashoffset" from="150" to="0" dur="1.8s" begin="9.4s" fill="freeze" /></path><path d="M46.25,76.08c0.83,0.57,3.56,0.31,4.41,0.25c8.59-0.58,22.76-0.94,33.12-1.95c1.03-0.1,3.31-0.23,4.85,0.26" class="stroke" stroke-dasharray="150"><set attributeName="opacity" to="0" dur="10.6s" /><animate attributeName="stroke-dashoffset" from="150" to="0" dur="1.8s" begin="10.6s" fill="freeze" /></path><path d="M37.84,93.73c0.7,0.31,4.35,0.62,5.54,0.52c14.23-1.28,28.24-1.19,46-2.19c2.98-0.17,5.22-0.15,7.26,0" class="stroke" stroke-dasharray="150"><set attributeName="opacity" to="0" dur="11.7s" /><animate attributeName="stroke-dashoffset" from="150" to="0" dur="1.8s" begin="11.7s" fill="freeze" /></path><path d="M66.11,63.15c1.29,2.08,1.29,3.33,1.29,5c0,4.6-0.07,17.6-0.07,24.47" class="stroke" stroke-dasharray="150"><set attributeName="opacity" to="0" dur="13.1s" /><animate attributeName="stroke-dashoffset" from="150" to="0" dur="1.8s" begin="13.1s" fill="freeze" /></path><text x="90" y="120" id="reset-kvg-0968d-KaishoVtLst">⟳</text><text x="70" y="120" id="pause-kvg-0968d-KaishoVtLst">◼</text><script type="text/javascript"><![CDATA[function RecurringTimer(e,t){var n,r,i=t;this.pause=function(){window.clearTimeout(n);i-=new Date-r};var s=function(){r=new Date;n=window.setTimeout(function(){i=t;s();e()},i)};this.clear=function(){window.clearTimeout(n);i=t;n=window.setTimeout(function(){i=t;s();e()},i)};this.resume=s;this.resume()}function invoketimer(){timer=new RecurringTimer(function(){svg.setCurrentTime(0)},15100.0)}var svg=document.getElementById("kvg-0968d-KaishoVtLst");var pause=document.getElementById("pause-kvg-0968d-KaishoVtLst");var reset=document.getElementById("reset-kvg-0968d-KaishoVtLst");var timer;invoketimer();reset.onclick=function(){svg.setCurrentTime(0);timer.clear();svg.unpauseAnimations();pause.innerHTML = "◼";};pause.onclick=function(){if(svg.animationsPaused()){svg.unpauseAnimations();timer.resume();pause.innerHTML="◼"}else{svg.pauseAnimations();timer.pause();pause.innerHTML="▶"}}]]></script></svg>