<svg id="kvg-09742-HzFst" class="kanjivg" width="106" height="126" xmlns="http://www.w3.org/2000/svg" xmlns:xlink="http://www.w3.org/1999/xlink" xml:space="preserve" version="1.1" baseProfile="full"><defs><style type="text/css"><![CDATA[path.black{fill:none;stroke:black;stroke-width:5;stroke-linecap:round;stroke-linejoin:round;}path.grey{fill:none;stroke:#ddd;stroke-width:5;stroke-linecap:round;stroke-linejoin:round;}path.stroke{fill:none;stroke:black;stroke-width:5;stroke-linecap:round;stroke-linejoin:round;}rect{fill:none;stroke:#555;stroke-width:2;} text{font-size:16px;font-family:Segoe UI Symbol,Cambria Math,DejaVu Sans,Symbola,Quivira,STIX,Code2000;-webkit-touch-callout:none;cursor:pointer;-webkit-user-select:none;-khtml-user-select:none;-moz-user-select:none;-ms-user-select:none;user-select: none;}text:hover{color:#777;}#reset{font-weight:bold;}]]></style><marker id="markerStart" markerWidth="8" markerHeight="8" style="overflow:visible;"><circle cx="0" cy="0" r="1.5" style="stroke:none;fill:red;fill-opacity:0.5;"/></marker><marker id="markerEnd" style="overflow:visible;"><circle cx="0" cy="0" r="0.8" style="stroke:none;fill:blue;fill-opacity:0.5;"><animate attributeName="opacity" from="1" to="0" dur="3s" repeatCount="indefinite" /></circle></marker></defs><rect x="4" y="4" width="100" height="100" /><path d="M30.91,14.18c1.48,0.06,4.22,0.31,5.66,0.16c7.7-0.78,27.6-2.72,34.54-2.83c2.03-0.03,2.6-0.15,4.46,0.1" class="grey" /><path d="M19.18,21.92C18.91,27,16.6,32.63,14.9,37.77" class="grey" /><path d="M20.35,24.82c7.15-0.57,51.68-4.84,66.53-4.84c8.6,0,0.6,7.33-0.77,8.93" class="grey" /><path d="M52.92,13.82c0.91,1.36,1.31,2.26,1.33,3.6c0.01,0.48-0.27,21.77-0.27,23.09" class="grey" /><path d="M33.25,28.94c3.08,0.76,7.28,3.05,8.96,4.31" class="grey" /><path d="M29.5,37.01c3.08,0.72,7.84,3.37,9.52,4.57" class="grey" /><path d="M67.75,25.75c3.96,1.22,8.44,3.67,10.03,4.69" class="grey" /><path d="M66.29,35.23c3.33,0.96,7.88,3.86,9.7,5.46" class="grey" /><path d="M23.2,48.32c1.48,0.51,4.18,0.61,5.66,0.51C41.25,48,67,45,82.17,45.3c2.46,0.05,3.94,0.24,5.17,0.5" class="grey" /><path d="M26.12,49.24c0.04,1.14-0.08,2.93-0.08,4.57c0,21.64-3.01,34.65-13.49,43.36" class="grey" /><path d="M51.39,49.66c0.04,0.17,0.1,0.44-0.09,0.68c-1.1,1.44-7.43,4.59-16.1,6.52" class="grey" /><path d="M31.9,61.78c0.28,0.11,1.41,0.37,2.16,0.32c5.19-0.35,14.44-1.85,19.97-2.66c0.74-0.11,1.69,0.13,2.16,0.23" class="grey" /><path d="M43.31,56.82c0.32,0.15,0.51,0.67,0.57,0.97c0.06,0.3,0,15.33-0.06,17.18" class="grey" /><path d="M42.89,61.3c-2.32,4.44-5.99,8.91-11.52,11.41" class="grey" /><path d="M45.93,63.67c2.94,0.98,6.3,2.83,7.63,5.03" class="grey" /><path d="M79.27,48.94c0.04,0.14,0.09,0.36-0.09,0.56c-1.05,1.17-7.08,3.74-15.32,5.32" class="grey" /><path d="M61.68,59.96c0.27,0.08,1.33,0.31,2.04,0.25c3.19-0.25,16.94-1.96,22.35-2.19c0.71-0.03,1.6,0.1,2.04,0.18" class="grey" /><path d="M72.89,54.43c0.31,0.12,0.49,0.55,0.55,0.8c0.06,0.25,0,17.43-0.06,18.97" class="grey" /><path d="M72.17,59.38c-2.65,3.77-8.38,8.77-13.06,11.5" class="grey" /><path d="M73.86,60.36c2.27,1.5,12.66,8.62,15.13,10.1c0.84,0.5,1.55,0.72,2.39,0.86" class="grey" /><path d="M58,83.13c7.14-0.29,10.5-1.46,18.02-1.66c1.75-0.04,2.18-0.1,3.28,0" class="grey" /><path d="M55.74,75.77c1,0.32,1.6,1.45,1.8,2.1c0.2,0.64,0.54,13.23,0.34,17.27" class="grey" /><path d="M39.44,79.18c0.96,0.31,1.53,1.39,1.72,2.01s0.4,11.5,0.21,15.36" class="grey" /><path d="M23.71,96.33c0.72,0.4,2.65,1.3,4.58,1.21c10.57-0.47,41.54-3.26,56.82-3.31c1.93-0.01,5.28,0.81,6.38,1.21" class="grey" /><path d="M30.91,14.18c1.48,0.06,4.22,0.31,5.66,0.16c7.7-0.78,27.6-2.72,34.54-2.83c2.03-0.03,2.6-0.15,4.46,0.1" class="stroke" stroke-dasharray="150"><animate attributeName="stroke-dashoffset" from="150" to="0" dur="1.8s" begin="0.0s" fill="freeze" /></path><path d="M19.18,21.92C18.91,27,16.6,32.63,14.9,37.77" class="stroke" stroke-dasharray="150"><set attributeName="opacity" to="0" dur="1.1s" /><animate attributeName="stroke-dashoffset" from="150" to="0" dur="1.8s" begin="1.1s" fill="freeze" /></path><path d="M20.35,24.82c7.15-0.57,51.68-4.84,66.53-4.84c8.6,0,0.6,7.33-0.77,8.93" class="stroke" stroke-dasharray="150"><set attributeName="opacity" to="0" dur="2.0s" /><animate attributeName="stroke-dashoffset" from="150" to="0" dur="1.8s" begin="2.0s" fill="freeze" /></path><path d="M52.92,13.82c0.91,1.36,1.31,2.26,1.33,3.6c0.01,0.48-0.27,21.77-0.27,23.09" class="stroke" stroke-dasharray="150"><set attributeName="opacity" to="0" dur="3.7s" /><animate attributeName="stroke-dashoffset" from="150" to="0" dur="1.8s" begin="3.7s" fill="freeze" /></path><path d="M33.25,28.94c3.08,0.76,7.28,3.05,8.96,4.31" class="stroke" stroke-dasharray="150"><set attributeName="opacity" to="0" dur="4.7s" /><animate attributeName="stroke-dashoffset" from="150" to="0" dur="1.8s" begin="4.7s" fill="freeze" /></path><path d="M29.5,37.01c3.08,0.72,7.84,3.37,9.52,4.57" class="stroke" stroke-dasharray="150"><set attributeName="opacity" to="0" dur="5.6000000000000005s" /><animate attributeName="stroke-dashoffset" from="150" to="0" dur="1.8s" begin="5.6000000000000005s" fill="freeze" /></path><path d="M67.75,25.75c3.96,1.22,8.44,3.67,10.03,4.69" class="stroke" stroke-dasharray="150"><set attributeName="opacity" to="0" dur="6.500000000000001s" /><animate attributeName="stroke-dashoffset" from="150" to="0" dur="1.8s" begin="6.500000000000001s" fill="freeze" /></path><path d="M66.29,35.23c3.33,0.96,7.88,3.86,9.7,5.46" class="stroke" stroke-dasharray="150"><set attributeName="opacity" to="0" dur="7.400000000000001s" /><animate attributeName="stroke-dashoffset" from="150" to="0" dur="1.8s" begin="7.400000000000001s" fill="freeze" /></path><path d="M23.2,48.32c1.48,0.51,4.18,0.61,5.66,0.51C41.25,48,67,45,82.17,45.3c2.46,0.05,3.94,0.24,5.17,0.5" class="stroke" stroke-dasharray="150"><set attributeName="opacity" to="0" dur="8.3s" /><animate attributeName="stroke-dashoffset" from="150" to="0" dur="1.8s" begin="8.3s" fill="freeze" /></path><path d="M26.12,49.24c0.04,1.14-0.08,2.93-0.08,4.57c0,21.64-3.01,34.65-13.49,43.36" class="stroke" stroke-dasharray="150"><set attributeName="opacity" to="0" dur="9.8s" /><animate attributeName="stroke-dashoffset" from="150" to="0" dur="1.8s" begin="9.8s" fill="freeze" /></path><path d="M51.39,49.66c0.04,0.17,0.1,0.44-0.09,0.68c-1.1,1.44-7.43,4.59-16.1,6.52" class="stroke" stroke-dasharray="150"><set attributeName="opacity" to="0" dur="11.100000000000001s" /><animate attributeName="stroke-dashoffset" from="150" to="0" dur="1.8s" begin="11.100000000000001s" fill="freeze" /></path><path d="M31.9,61.78c0.28,0.11,1.41,0.37,2.16,0.32c5.19-0.35,14.44-1.85,19.97-2.66c0.74-0.11,1.69,0.13,2.16,0.23" class="stroke" stroke-dasharray="150"><set attributeName="opacity" to="0" dur="12.000000000000002s" /><animate attributeName="stroke-dashoffset" from="150" to="0" dur="1.8s" begin="12.000000000000002s" fill="freeze" /></path><path d="M43.31,56.82c0.32,0.15,0.51,0.67,0.57,0.97c0.06,0.3,0,15.33-0.06,17.18" class="stroke" stroke-dasharray="150"><set attributeName="opacity" to="0" dur="13.000000000000002s" /><animate attributeName="stroke-dashoffset" from="150" to="0" dur="1.8s" begin="13.000000000000002s" fill="freeze" /></path><path d="M42.89,61.3c-2.32,4.44-5.99,8.91-11.52,11.41" class="stroke" stroke-dasharray="150"><set attributeName="opacity" to="0" dur="13.900000000000002s" /><animate attributeName="stroke-dashoffset" from="150" to="0" dur="1.8s" begin="13.900000000000002s" fill="freeze" /></path><path d="M45.93,63.67c2.94,0.98,6.3,2.83,7.63,5.03" class="stroke" stroke-dasharray="150"><set attributeName="opacity" to="0" dur="14.800000000000002s" /><animate attributeName="stroke-dashoffset" from="150" to="0" dur="1.8s" begin="14.800000000000002s" fill="freeze" /></path><path d="M79.27,48.94c0.04,0.14,0.09,0.36-0.09,0.56c-1.05,1.17-7.08,3.74-15.32,5.32" class="stroke" stroke-dasharray="150"><set attributeName="opacity" to="0" dur="15.700000000000003s" /><animate attributeName="stroke-dashoffset" from="150" to="0" dur="1.8s" begin="15.700000000000003s" fill="freeze" /></path><path d="M61.68,59.96c0.27,0.08,1.33,0.31,2.04,0.25c3.19-0.25,16.94-1.96,22.35-2.19c0.71-0.03,1.6,0.1,2.04,0.18" class="stroke" stroke-dasharray="150"><set attributeName="opacity" to="0" dur="16.6s" /><animate attributeName="stroke-dashoffset" from="150" to="0" dur="1.8s" begin="16.6s" fill="freeze" /></path><path d="M72.89,54.43c0.31,0.12,0.49,0.55,0.55,0.8c0.06,0.25,0,17.43-0.06,18.97" class="stroke" stroke-dasharray="150"><set attributeName="opacity" to="0" dur="17.6s" /><animate attributeName="stroke-dashoffset" from="150" to="0" dur="1.8s" begin="17.6s" fill="freeze" /></path><path d="M72.17,59.38c-2.65,3.77-8.38,8.77-13.06,11.5" class="stroke" stroke-dasharray="150"><set attributeName="opacity" to="0" dur="18.5s" /><animate attributeName="stroke-dashoffset" from="150" to="0" dur="1.8s" begin="18.5s" fill="freeze" /></path><path d="M73.86,60.36c2.27,1.5,12.66,8.62,15.13,10.1c0.84,0.5,1.55,0.72,2.39,0.86" class="stroke" stroke-dasharray="150"><set attributeName="opacity" to="0" dur="19.4s" /><animate attributeName="stroke-dashoffset" from="150" to="0" dur="1.8s" begin="19.4s" fill="freeze" /></path><path d="M58,83.13c7.14-0.29,10.5-1.46,18.02-1.66c1.75-0.04,2.18-0.1,3.28,0" class="stroke" stroke-dasharray="150"><set attributeName="opacity" to="0" dur="20.4s" /><animate attributeName="stroke-dashoffset" from="150" to="0" dur="1.8s" begin="20.4s" fill="freeze" /></path><path d="M55.74,75.77c1,0.32,1.6,1.45,1.8,2.1c0.2,0.64,0.54,13.23,0.34,17.27" class="stroke" stroke-dasharray="150"><set attributeName="opacity" to="0" dur="21.4s" /><animate attributeName="stroke-dashoffset" from="150" to="0" dur="1.8s" begin="21.4s" fill="freeze" /></path><path d="M39.44,79.18c0.96,0.31,1.53,1.39,1.72,2.01s0.4,11.5,0.21,15.36" class="stroke" stroke-dasharray="150"><set attributeName="opacity" to="0" dur="22.4s" /><animate attributeName="stroke-dashoffset" from="150" to="0" dur="1.8s" begin="22.4s" fill="freeze" /></path><path d="M23.71,96.33c0.72,0.4,2.65,1.3,4.58,1.21c10.57-0.47,41.54-3.26,56.82-3.31c1.93-0.01,5.28,0.81,6.38,1.21" class="stroke" stroke-dasharray="150"><set attributeName="opacity" to="0" dur="23.299999999999997s" /><animate attributeName="stroke-dashoffset" from="150" to="0" dur="1.8s" begin="23.299999999999997s" fill="freeze" /></path><text x="90" y="120" id="reset-kvg-09742-HzFst">⟳</text><text x="70" y="120" id="pause-kvg-09742-HzFst">◼</text><script type="text/javascript"><![CDATA[function RecurringTimer(e,t){var n,r,i=t;this.pause=function(){window.clearTimeout(n);i-=new Date-r};var s=function(){r=new Date;n=window.setTimeout(function(){i=t;s();e()},i)};this.clear=function(){window.clearTimeout(n);i=t;n=window.setTimeout(function(){i=t;s();e()},i)};this.resume=s;this.resume()}function invoketimer(){timer=new RecurringTimer(function(){svg.setCurrentTime(0)},25799.999999999996)}var svg=document.getElementById("kvg-09742-HzFst");var pause=document.getElementById("pause-kvg-09742-HzFst");var reset=document.getElementById("reset-kvg-09742-HzFst");var timer;invoketimer();reset.onclick=function(){svg.setCurrentTime(0);timer.clear();svg.unpauseAnimations();pause.innerHTML = "◼";};pause.onclick=function(){if(svg.animationsPaused()){svg.unpauseAnimations();timer.resume();pause.innerHTML="◼"}else{svg.pauseAnimations();timer.pause();pause.innerHTML="▶"}}]]></script></svg>