<svg id="kvg-09768-Kaisho" class="kanjivg" width="106" height="126" xmlns="http://www.w3.org/2000/svg" xmlns:xlink="http://www.w3.org/1999/xlink" xml:space="preserve" version="1.1" baseProfile="full"><defs><style type="text/css"><![CDATA[path.black{fill:none;stroke:black;stroke-width:5;stroke-linecap:round;stroke-linejoin:round;}path.grey{fill:none;stroke:#ddd;stroke-width:5;stroke-linecap:round;stroke-linejoin:round;}path.stroke{fill:none;stroke:black;stroke-width:5;stroke-linecap:round;stroke-linejoin:round;}rect{fill:none;stroke:#555;stroke-width:2;} text{font-size:16px;font-family:Segoe UI Symbol,Cambria Math,DejaVu Sans,Symbola,Quivira,STIX,Code2000;-webkit-touch-callout:none;cursor:pointer;-webkit-user-select:none;-khtml-user-select:none;-moz-user-select:none;-ms-user-select:none;user-select: none;}text:hover{color:#777;}#reset{font-weight:bold;}]]></style><marker id="markerStart" markerWidth="8" markerHeight="8" style="overflow:visible;"><circle cx="0" cy="0" r="1.5" style="stroke:none;fill:red;fill-opacity:0.5;"/></marker><marker id="markerEnd" style="overflow:visible;"><circle cx="0" cy="0" r="0.8" style="stroke:none;fill:blue;fill-opacity:0.5;"><animate attributeName="opacity" from="1" to="0" dur="3s" repeatCount="indefinite" /></circle></marker></defs><rect x="4" y="4" width="100" height="100" /><path d="M20.34,16.94c1.45,0.32,4.12,0.37,5.58,0.32c15.14-0.53,43.37-2.81,58.04-3.22c2.42-0.07,3.88,0.15,5.09,0.31" class="grey" /><path d="M23.21,17.89c0.32,0.96,0.33,1.22,0.27,2.79C23.05,33.24,22,52.5,15.06,63.92" class="grey" /><path d="M28.26,23.39c0.28,0.27,0.48,0.69,0.56,1.04c0.27,1.19,2.3,10.35,2.3,10.53" class="grey" /><path d="M29.28,24.08c1.57-0.04,18.43-1.89,19.86-1.94c1.19-0.04,1.96,1.34,1.87,1.6c-0.19,0.53-1.61,11-1.61,11.27" class="grey" /><path d="M29.97,28.95c3.3,0,6.67-0.56,9.95-0.88c1.12-0.11,2.23-0.22,3.3-0.32" class="grey" /><path d="M31.76,33.97c5.1-0.15,12.38-1.31,17.3-1.39" class="grey" /><path d="M30.46,39.72c0.33,0.29,0.66,0.82,0.66,1.11c0,2.04,0.11,16.13,0.11,18.38" class="grey" /><path d="M31.78,40.01c1.32-0.07,13.59-0.94,14.57-1.02c1.76-0.15,2.42,0.95,2.2,1.38c-0.21,0.42-0.33,9.48-0.33,15.37c0,4.99-3.19,1.75-4.93,0.66" class="grey" /><path d="M31.78,45.53c2.69-0.09,5.38-0.27,8.07-0.45c0.75-0.05,1.49-0.1,2.22-0.14" class="grey" /><path d="M31.47,50.52c2.61-0.16,5.23-0.26,7.84-0.37c0.77-0.03,1.54-0.06,2.3-0.09" class="grey" /><path d="M55.18,33.81c0.43,0.13,1.88,0.22,2.71,0.21c5.12-0.02,19.28-1.97,24.49-2.23c0.59-0.03,1.44,0.05,2.77,0.27" class="grey" /><path d="M66.98,21.36c0.35,0.53,0.57,1.06,0.61,2.11c0.62,13.8-1.84,25.77-11.82,34.35" class="grey" /><path d="M68.54,34.4c4.03,5.98,11.88,16.09,17.03,20.35c1.35,1.12,1.85,1.26,2.47,1.37" class="grey" /><path d="M75.19,20.73c5.17,2.17,6.59,3.83,8.19,5.86" class="grey" /><path d="M24.01,65.29c1.58,0.36,4.51,0.54,6.07,0.36c6.41-0.7,39.02-3,56.93-3.15c2.64-0.02,4.22,0.17,5.54,0.35" class="grey" /><path d="M54.92,64.62c0.02,0.21,0.03,0.53-0.03,0.82c-0.38,1.73-2.57,5.53-5.57,7.86" class="grey" /><path d="M28,74.45c0.82,0.45,1.14,0.8,1.3,1.39c1.62,6.29,1.67,14.4,2.8,22.66" class="grey" /><path d="M29.35,75.66c13.42-0.61,42.69-3.24,51.24-3.24c2.41,0,3.39,1.74,3.13,3.04C82.66,80.83,82,89.5,80.29,96.81" class="grey" /><path d="M45.82,75.02c0.55,0.35,1.09,0.94,1.09,1.42s0.73,19,0.73,19" class="grey" /><path d="M64.74,73.84c0.55,0.59,1.09,0.94,1.09,1.42c0,0.47-0.28,18.41-0.28,19.59" class="grey" /><path d="M47.46,80.92c3.04,0,6.1-0.26,9.14-0.41c1.03-0.05,2.06-0.1,3.03-0.15" class="grey" /><path d="M48.01,88.35c2.99-0.23,5.99-0.32,8.98-0.46c0.92-0.04,1.84-0.08,2.71-0.12" class="grey" /><path d="M32.42,96.61c3.83-0.12,43.62-2.42,48.18-2.42" class="grey" /><path d="M20.34,16.94c1.45,0.32,4.12,0.37,5.58,0.32c15.14-0.53,43.37-2.81,58.04-3.22c2.42-0.07,3.88,0.15,5.09,0.31" class="stroke" stroke-dasharray="150"><animate attributeName="stroke-dashoffset" from="150" to="0" dur="1.8s" begin="0.0s" fill="freeze" /></path><path d="M23.21,17.89c0.32,0.96,0.33,1.22,0.27,2.79C23.05,33.24,22,52.5,15.06,63.92" class="stroke" stroke-dasharray="150"><set attributeName="opacity" to="0" dur="1.5s" /><animate attributeName="stroke-dashoffset" from="150" to="0" dur="1.8s" begin="1.5s" fill="freeze" /></path><path d="M28.26,23.39c0.28,0.27,0.48,0.69,0.56,1.04c0.27,1.19,2.3,10.35,2.3,10.53" class="stroke" stroke-dasharray="150"><set attributeName="opacity" to="0" dur="2.7s" /><animate attributeName="stroke-dashoffset" from="150" to="0" dur="1.8s" begin="2.7s" fill="freeze" /></path><path d="M29.28,24.08c1.57-0.04,18.43-1.89,19.86-1.94c1.19-0.04,1.96,1.34,1.87,1.6c-0.19,0.53-1.61,11-1.61,11.27" class="stroke" stroke-dasharray="150"><set attributeName="opacity" to="0" dur="3.6s" /><animate attributeName="stroke-dashoffset" from="150" to="0" dur="1.8s" begin="3.6s" fill="freeze" /></path><path d="M29.97,28.95c3.3,0,6.67-0.56,9.95-0.88c1.12-0.11,2.23-0.22,3.3-0.32" class="stroke" stroke-dasharray="150"><set attributeName="opacity" to="0" dur="4.6s" /><animate attributeName="stroke-dashoffset" from="150" to="0" dur="1.8s" begin="4.6s" fill="freeze" /></path><path d="M31.76,33.97c5.1-0.15,12.38-1.31,17.3-1.39" class="stroke" stroke-dasharray="150"><set attributeName="opacity" to="0" dur="5.5s" /><animate attributeName="stroke-dashoffset" from="150" to="0" dur="1.8s" begin="5.5s" fill="freeze" /></path><path d="M30.46,39.72c0.33,0.29,0.66,0.82,0.66,1.11c0,2.04,0.11,16.13,0.11,18.38" class="stroke" stroke-dasharray="150"><set attributeName="opacity" to="0" dur="6.4s" /><animate attributeName="stroke-dashoffset" from="150" to="0" dur="1.8s" begin="6.4s" fill="freeze" /></path><path d="M31.78,40.01c1.32-0.07,13.59-0.94,14.57-1.02c1.76-0.15,2.42,0.95,2.2,1.38c-0.21,0.42-0.33,9.48-0.33,15.37c0,4.99-3.19,1.75-4.93,0.66" class="stroke" stroke-dasharray="150"><set attributeName="opacity" to="0" dur="7.300000000000001s" /><animate attributeName="stroke-dashoffset" from="150" to="0" dur="1.8s" begin="7.300000000000001s" fill="freeze" /></path><path d="M31.78,45.53c2.69-0.09,5.38-0.27,8.07-0.45c0.75-0.05,1.49-0.1,2.22-0.14" class="stroke" stroke-dasharray="150"><set attributeName="opacity" to="0" dur="8.4s" /><animate attributeName="stroke-dashoffset" from="150" to="0" dur="1.8s" begin="8.4s" fill="freeze" /></path><path d="M31.47,50.52c2.61-0.16,5.23-0.26,7.84-0.37c0.77-0.03,1.54-0.06,2.3-0.09" class="stroke" stroke-dasharray="150"><set attributeName="opacity" to="0" dur="9.3s" /><animate attributeName="stroke-dashoffset" from="150" to="0" dur="1.8s" begin="9.3s" fill="freeze" /></path><path d="M55.18,33.81c0.43,0.13,1.88,0.22,2.71,0.21c5.12-0.02,19.28-1.97,24.49-2.23c0.59-0.03,1.44,0.05,2.77,0.27" class="stroke" stroke-dasharray="150"><set attributeName="opacity" to="0" dur="10.200000000000001s" /><animate attributeName="stroke-dashoffset" from="150" to="0" dur="1.8s" begin="10.200000000000001s" fill="freeze" /></path><path d="M66.98,21.36c0.35,0.53,0.57,1.06,0.61,2.11c0.62,13.8-1.84,25.77-11.82,34.35" class="stroke" stroke-dasharray="150"><set attributeName="opacity" to="0" dur="11.200000000000001s" /><animate attributeName="stroke-dashoffset" from="150" to="0" dur="1.8s" begin="11.200000000000001s" fill="freeze" /></path><path d="M68.54,34.4c4.03,5.98,11.88,16.09,17.03,20.35c1.35,1.12,1.85,1.26,2.47,1.37" class="stroke" stroke-dasharray="150"><set attributeName="opacity" to="0" dur="12.200000000000001s" /><animate attributeName="stroke-dashoffset" from="150" to="0" dur="1.8s" begin="12.200000000000001s" fill="freeze" /></path><path d="M75.19,20.73c5.17,2.17,6.59,3.83,8.19,5.86" class="stroke" stroke-dasharray="150"><set attributeName="opacity" to="0" dur="13.200000000000001s" /><animate attributeName="stroke-dashoffset" from="150" to="0" dur="1.8s" begin="13.200000000000001s" fill="freeze" /></path><path d="M24.01,65.29c1.58,0.36,4.51,0.54,6.07,0.36c6.41-0.7,39.02-3,56.93-3.15c2.64-0.02,4.22,0.17,5.54,0.35" class="stroke" stroke-dasharray="150"><set attributeName="opacity" to="0" dur="14.100000000000001s" /><animate attributeName="stroke-dashoffset" from="150" to="0" dur="1.8s" begin="14.100000000000001s" fill="freeze" /></path><path d="M54.92,64.62c0.02,0.21,0.03,0.53-0.03,0.82c-0.38,1.73-2.57,5.53-5.57,7.86" class="stroke" stroke-dasharray="150"><set attributeName="opacity" to="0" dur="15.600000000000001s" /><animate attributeName="stroke-dashoffset" from="150" to="0" dur="1.8s" begin="15.600000000000001s" fill="freeze" /></path><path d="M28,74.45c0.82,0.45,1.14,0.8,1.3,1.39c1.62,6.29,1.67,14.4,2.8,22.66" class="stroke" stroke-dasharray="150"><set attributeName="opacity" to="0" dur="16.5s" /><animate attributeName="stroke-dashoffset" from="150" to="0" dur="1.8s" begin="16.5s" fill="freeze" /></path><path d="M29.35,75.66c13.42-0.61,42.69-3.24,51.24-3.24c2.41,0,3.39,1.74,3.13,3.04C82.66,80.83,82,89.5,80.29,96.81" class="stroke" stroke-dasharray="150"><set attributeName="opacity" to="0" dur="17.5s" /><animate attributeName="stroke-dashoffset" from="150" to="0" dur="1.8s" begin="17.5s" fill="freeze" /></path><path d="M45.82,75.02c0.55,0.35,1.09,0.94,1.09,1.42s0.73,19,0.73,19" class="stroke" stroke-dasharray="150"><set attributeName="opacity" to="0" dur="19.2s" /><animate attributeName="stroke-dashoffset" from="150" to="0" dur="1.8s" begin="19.2s" fill="freeze" /></path><path d="M64.74,73.84c0.55,0.59,1.09,0.94,1.09,1.42c0,0.47-0.28,18.41-0.28,19.59" class="stroke" stroke-dasharray="150"><set attributeName="opacity" to="0" dur="20.2s" /><animate attributeName="stroke-dashoffset" from="150" to="0" dur="1.8s" begin="20.2s" fill="freeze" /></path><path d="M47.46,80.92c3.04,0,6.1-0.26,9.14-0.41c1.03-0.05,2.06-0.1,3.03-0.15" class="stroke" stroke-dasharray="150"><set attributeName="opacity" to="0" dur="21.2s" /><animate attributeName="stroke-dashoffset" from="150" to="0" dur="1.8s" begin="21.2s" fill="freeze" /></path><path d="M48.01,88.35c2.99-0.23,5.99-0.32,8.98-0.46c0.92-0.04,1.84-0.08,2.71-0.12" class="stroke" stroke-dasharray="150"><set attributeName="opacity" to="0" dur="22.099999999999998s" /><animate attributeName="stroke-dashoffset" from="150" to="0" dur="1.8s" begin="22.099999999999998s" fill="freeze" /></path><path d="M32.42,96.61c3.83-0.12,43.62-2.42,48.18-2.42" class="stroke" stroke-dasharray="150"><set attributeName="opacity" to="0" dur="22.999999999999996s" /><animate attributeName="stroke-dashoffset" from="150" to="0" dur="1.8s" begin="22.999999999999996s" fill="freeze" /></path><text x="90" y="120" id="reset-kvg-09768-Kaisho">⟳</text><text x="70" y="120" id="pause-kvg-09768-Kaisho">◼</text><script type="text/javascript"><![CDATA[function RecurringTimer(e,t){var n,r,i=t;this.pause=function(){window.clearTimeout(n);i-=new Date-r};var s=function(){r=new Date;n=window.setTimeout(function(){i=t;s();e()},i)};this.clear=function(){window.clearTimeout(n);i=t;n=window.setTimeout(function(){i=t;s();e()},i)};this.resume=s;this.resume()}function invoketimer(){timer=new RecurringTimer(function(){svg.setCurrentTime(0)},25199.999999999996)}var svg=document.getElementById("kvg-09768-Kaisho");var pause=document.getElementById("pause-kvg-09768-Kaisho");var reset=document.getElementById("reset-kvg-09768-Kaisho");var timer;invoketimer();reset.onclick=function(){svg.setCurrentTime(0);timer.clear();svg.unpauseAnimations();pause.innerHTML = "◼";};pause.onclick=function(){if(svg.animationsPaused()){svg.unpauseAnimations();timer.resume();pause.innerHTML="◼"}else{svg.pauseAnimations();timer.pause();pause.innerHTML="▶"}}]]></script></svg>