<svg id="kvg-0977c-Kaisho" class="kanjivg" width="106" height="126" xmlns="http://www.w3.org/2000/svg" xmlns:xlink="http://www.w3.org/1999/xlink" xml:space="preserve" version="1.1" baseProfile="full"><defs><style type="text/css"><![CDATA[path.black{fill:none;stroke:black;stroke-width:5;stroke-linecap:round;stroke-linejoin:round;}path.grey{fill:none;stroke:#ddd;stroke-width:5;stroke-linecap:round;stroke-linejoin:round;}path.stroke{fill:none;stroke:black;stroke-width:5;stroke-linecap:round;stroke-linejoin:round;}rect{fill:none;stroke:#555;stroke-width:2;} text{font-size:16px;font-family:Segoe UI Symbol,Cambria Math,DejaVu Sans,Symbola,Quivira,STIX,Code2000;-webkit-touch-callout:none;cursor:pointer;-webkit-user-select:none;-khtml-user-select:none;-moz-user-select:none;-ms-user-select:none;user-select: none;}text:hover{color:#777;}#reset{font-weight:bold;}]]></style><marker id="markerStart" markerWidth="8" markerHeight="8" style="overflow:visible;"><circle cx="0" cy="0" r="1.5" style="stroke:none;fill:red;fill-opacity:0.5;"/></marker><marker id="markerEnd" style="overflow:visible;"><circle cx="0" cy="0" r="0.8" style="stroke:none;fill:blue;fill-opacity:0.5;"><animate attributeName="opacity" from="1" to="0" dur="3s" repeatCount="indefinite" /></circle></marker></defs><rect x="4" y="4" width="100" height="100" /><path d="M8.9,25.14c0.83,0.25,3.36,0.79,4.19,0.75c4.35-0.23,24.16-2.89,33.21-4.06c1.38-0.18,2.22,0.12,2.91,0.24" class="grey" /><path d="M19.42,14.46c0.61,0.42,0.98,1.9,1.1,2.75c1.06,7.58,0.93,12.7,1.58,22.29" class="grey" /><path d="M37.55,12.75c0.53,0.38,1.03,1.68,0.96,2.45c-0.74,7.85-0.37,10.28-1.79,20.83" class="grey" /><path d="M22.33,37.25c1.77,0,14.68-1.23,16.27-1.37" class="grey" /><path d="M14.26,48.6c0.29,0.47,0.58,0.86,0.7,1.45c0.99,4.66,1.83,7.53,2.5,15.91" class="grey" /><path d="M15.48,49.71c8.4-1.71,25.42-3.53,29.02-4.19c1.32-0.24,2.43,1.45,2.2,2.85c-0.47,2.88-1.75,6.38-2.78,11.4" class="grey" /><path d="M17.25,63.88c4.23-0.75,21-2.88,27.98-3.38" class="grey" /><path d="M9.25,75.12c1.04,0.61,3.45,1.17,4.51,1.11c8.99-0.48,20.94-2.02,31.59-3.7c1.72-0.27,2.79,0.29,3.66,0.6" class="grey" /><path d="M29.96,37.25c0.36,1,0.54,2.23,0.54,3.25c0,8.5,0,52.25-0.12,58.5" class="grey" /><path d="M58.06,22.75c0.94,1,1.62,2.36,1.86,3.98c0.82,5.52,1.36,47.78,1.5,49.41" class="grey" /><path d="M60.15,24.61c2.44-0.21,22.98-3.12,25.2-3.36c1.85-0.2,3.04,2.27,2.9,3.48c-0.29,2.45-0.57,48.88-0.57,50.1" class="grey" /><path d="M61.72,47.83c4.23,0,8.53-0.64,12.74-1.02c1.39-0.13,2.79-0.26,4.13-0.38" class="grey" /><path d="M61.29,74.45c7.54-0.94,19.28-2.32,26.37-2.74" class="grey" /><path d="M48.8,91.73c1.37,0.55,3.89,0.68,5.25,0.55C67,91,81,90,94.66,89.29c2.28-0.12,3.65,0.26,4.79,0.53" class="grey" /><path d="M8.9,25.14c0.83,0.25,3.36,0.79,4.19,0.75c4.35-0.23,24.16-2.89,33.21-4.06c1.38-0.18,2.22,0.12,2.91,0.24" class="stroke" stroke-dasharray="150"><animate attributeName="stroke-dashoffset" from="150" to="0" dur="1.8s" begin="0.0s" fill="freeze" /></path><path d="M19.42,14.46c0.61,0.42,0.98,1.9,1.1,2.75c1.06,7.58,0.93,12.7,1.58,22.29" class="stroke" stroke-dasharray="150"><set attributeName="opacity" to="0" dur="1.1s" /><animate attributeName="stroke-dashoffset" from="150" to="0" dur="1.8s" begin="1.1s" fill="freeze" /></path><path d="M37.55,12.75c0.53,0.38,1.03,1.68,0.96,2.45c-0.74,7.85-0.37,10.28-1.79,20.83" class="stroke" stroke-dasharray="150"><set attributeName="opacity" to="0" dur="2.1s" /><animate attributeName="stroke-dashoffset" from="150" to="0" dur="1.8s" begin="2.1s" fill="freeze" /></path><path d="M22.33,37.25c1.77,0,14.68-1.23,16.27-1.37" class="stroke" stroke-dasharray="150"><set attributeName="opacity" to="0" dur="3.1s" /><animate attributeName="stroke-dashoffset" from="150" to="0" dur="1.8s" begin="3.1s" fill="freeze" /></path><path d="M14.26,48.6c0.29,0.47,0.58,0.86,0.7,1.45c0.99,4.66,1.83,7.53,2.5,15.91" class="stroke" stroke-dasharray="150"><set attributeName="opacity" to="0" dur="4.0s" /><animate attributeName="stroke-dashoffset" from="150" to="0" dur="1.8s" begin="4.0s" fill="freeze" /></path><path d="M15.48,49.71c8.4-1.71,25.42-3.53,29.02-4.19c1.32-0.24,2.43,1.45,2.2,2.85c-0.47,2.88-1.75,6.38-2.78,11.4" class="stroke" stroke-dasharray="150"><set attributeName="opacity" to="0" dur="4.9s" /><animate attributeName="stroke-dashoffset" from="150" to="0" dur="1.8s" begin="4.9s" fill="freeze" /></path><path d="M17.25,63.88c4.23-0.75,21-2.88,27.98-3.38" class="stroke" stroke-dasharray="150"><set attributeName="opacity" to="0" dur="6.1000000000000005s" /><animate attributeName="stroke-dashoffset" from="150" to="0" dur="1.8s" begin="6.1000000000000005s" fill="freeze" /></path><path d="M9.25,75.12c1.04,0.61,3.45,1.17,4.51,1.11c8.99-0.48,20.94-2.02,31.59-3.7c1.72-0.27,2.79,0.29,3.66,0.6" class="stroke" stroke-dasharray="150"><set attributeName="opacity" to="0" dur="7.1000000000000005s" /><animate attributeName="stroke-dashoffset" from="150" to="0" dur="1.8s" begin="7.1000000000000005s" fill="freeze" /></path><path d="M29.96,37.25c0.36,1,0.54,2.23,0.54,3.25c0,8.5,0,52.25-0.12,58.5" class="stroke" stroke-dasharray="150"><set attributeName="opacity" to="0" dur="8.200000000000001s" /><animate attributeName="stroke-dashoffset" from="150" to="0" dur="1.8s" begin="8.200000000000001s" fill="freeze" /></path><path d="M58.06,22.75c0.94,1,1.62,2.36,1.86,3.98c0.82,5.52,1.36,47.78,1.5,49.41" class="stroke" stroke-dasharray="150"><set attributeName="opacity" to="0" dur="9.700000000000001s" /><animate attributeName="stroke-dashoffset" from="150" to="0" dur="1.8s" begin="9.700000000000001s" fill="freeze" /></path><path d="M60.15,24.61c2.44-0.21,22.98-3.12,25.2-3.36c1.85-0.2,3.04,2.27,2.9,3.48c-0.29,2.45-0.57,48.88-0.57,50.1" class="stroke" stroke-dasharray="150"><set attributeName="opacity" to="0" dur="11.000000000000002s" /><animate attributeName="stroke-dashoffset" from="150" to="0" dur="1.8s" begin="11.000000000000002s" fill="freeze" /></path><path d="M61.72,47.83c4.23,0,8.53-0.64,12.74-1.02c1.39-0.13,2.79-0.26,4.13-0.38" class="stroke" stroke-dasharray="150"><set attributeName="opacity" to="0" dur="12.700000000000001s" /><animate attributeName="stroke-dashoffset" from="150" to="0" dur="1.8s" begin="12.700000000000001s" fill="freeze" /></path><path d="M61.29,74.45c7.54-0.94,19.28-2.32,26.37-2.74" class="stroke" stroke-dasharray="150"><set attributeName="opacity" to="0" dur="13.600000000000001s" /><animate attributeName="stroke-dashoffset" from="150" to="0" dur="1.8s" begin="13.600000000000001s" fill="freeze" /></path><path d="M48.8,91.73c1.37,0.55,3.89,0.68,5.25,0.55C67,91,81,90,94.66,89.29c2.28-0.12,3.65,0.26,4.79,0.53" class="stroke" stroke-dasharray="150"><set attributeName="opacity" to="0" dur="14.600000000000001s" /><animate attributeName="stroke-dashoffset" from="150" to="0" dur="1.8s" begin="14.600000000000001s" fill="freeze" /></path><text x="90" y="120" id="reset-kvg-0977c-Kaisho">⟳</text><text x="70" y="120" id="pause-kvg-0977c-Kaisho">◼</text><script type="text/javascript"><![CDATA[function RecurringTimer(e,t){var n,r,i=t;this.pause=function(){window.clearTimeout(n);i-=new Date-r};var s=function(){r=new Date;n=window.setTimeout(function(){i=t;s();e()},i)};this.clear=function(){window.clearTimeout(n);i=t;n=window.setTimeout(function(){i=t;s();e()},i)};this.resume=s;this.resume()}function invoketimer(){timer=new RecurringTimer(function(){svg.setCurrentTime(0)},16900.0)}var svg=document.getElementById("kvg-0977c-Kaisho");var pause=document.getElementById("pause-kvg-0977c-Kaisho");var reset=document.getElementById("reset-kvg-0977c-Kaisho");var timer;invoketimer();reset.onclick=function(){svg.setCurrentTime(0);timer.clear();svg.unpauseAnimations();pause.innerHTML = "◼";};pause.onclick=function(){if(svg.animationsPaused()){svg.unpauseAnimations();timer.resume();pause.innerHTML="◼"}else{svg.pauseAnimations();timer.pause();pause.innerHTML="▶"}}]]></script></svg>