<svg id="kvg-09818-Insatsu" class="kanjivg" width="106" height="126" xmlns="http://www.w3.org/2000/svg" xmlns:xlink="http://www.w3.org/1999/xlink" xml:space="preserve" version="1.1" baseProfile="full"><defs><style type="text/css"><![CDATA[path.black{fill:none;stroke:black;stroke-width:5;stroke-linecap:round;stroke-linejoin:round;}path.grey{fill:none;stroke:#ddd;stroke-width:5;stroke-linecap:round;stroke-linejoin:round;}path.stroke{fill:none;stroke:black;stroke-width:5;stroke-linecap:round;stroke-linejoin:round;}rect{fill:none;stroke:#555;stroke-width:2;} text{font-size:16px;font-family:Segoe UI Symbol,Cambria Math,DejaVu Sans,Symbola,Quivira,STIX,Code2000;-webkit-touch-callout:none;cursor:pointer;-webkit-user-select:none;-khtml-user-select:none;-moz-user-select:none;-ms-user-select:none;user-select: none;}text:hover{color:#777;}#reset{font-weight:bold;}]]></style><marker id="markerStart" markerWidth="8" markerHeight="8" style="overflow:visible;"><circle cx="0" cy="0" r="1.5" style="stroke:none;fill:red;fill-opacity:0.5;"/></marker><marker id="markerEnd" style="overflow:visible;"><circle cx="0" cy="0" r="0.8" style="stroke:none;fill:blue;fill-opacity:0.5;"><animate attributeName="opacity" from="1" to="0" dur="3s" repeatCount="indefinite" /></circle></marker></defs><rect x="4" y="4" width="100" height="100" /><path d="M30.75,18c0,1-0.23,1.88-0.61,2.85c-2.64,6.65-8.39,17.03-18.87,26.86" class="grey" /><path d="M32,22.75c6,4,10.62,9.25,13.92,14.62" class="grey" /><path d="M 19.25,46.2 c 0.796567,0.398856 1.99342,0.319857 3.120988,0.180143 5.4,-0.66 13.08,-1.76 18.48,-2.24 1.157425,-0.08971 2.576567,0.01086 3.52342,0.330429" class="grey" /><path d="M 18.36,55.5 c 0.61,0.15,3,1,4.21,0.87c3.29-0.37,17.99-4.02,19.51-4.17c1.52-0.15,4.28-0.29,3.95,2.89c-0.43,4.17-2.68,16.92-6,23.84c-1.89,3.94-3.18,3.45-6.23,0.46" class="grey" /><path d="M 25.54,56.5 c 0.87,0.87 1.8,2 1.8,3.5 -0.219826,13.545146 0.202719,23.466557 -0.18,37.006667" class="grey" /><path d="M49.12,18.03c2.01,0.47,5.15,0.32,7.01,0.11c9.52-1.09,23.68-2.87,32.75-3.66c2.32-0.2,4.49-0.44,6.76,0.2" class="grey" /><path d="M71.19,20.49c0.04,0.87-0.04,1.72-0.27,2.56c-1.3,2.95-2.42,6.45-4.55,10.83" class="grey" /><path d="M56.16,34.89c0.85,0.85,1.44,2.28,1.44,3.65c0,1.08-0.1,24.43-0.06,34.97c0.01,2.8,0.03,4.68,0.06,4.97" class="grey" /><path d="M58.16,36.25c2.74-0.17,24.04-2.73,26.53-2.93c2.08-0.17,3.54,1.06,3.54,3.15c0,2.82-0.05,20.59-0.05,35.03c0,1.72,0,3.4,0,4.99" class="grey" /><path d="M58.86,48.7c7.14-0.95,22.37-2.84,28.23-3.21" class="grey" /><path d="M58.58,61.98c9.54-1.36,21.25-2.25,28.73-2.73" class="grey" /><path d="M58.79,75.75c8.46-0.75,20.51-2.16,28.48-2.67" class="grey" /><path d="M64.77,82.29c0,0.96-0.23,1.8-1,2.74c-3.02,3.72-8.52,7.72-15.17,11.47" class="grey" /><path d="M81.39,82.54c5.7,3.64,12.44,10.24,14,13.43" class="grey" /><path d="M30.75,18c0,1-0.23,1.88-0.61,2.85c-2.64,6.65-8.39,17.03-18.87,26.86" class="stroke" stroke-dasharray="150"><animate attributeName="stroke-dashoffset" from="150" to="0" dur="1.8s" begin="0.0s" fill="freeze" /></path><path d="M32,22.75c6,4,10.62,9.25,13.92,14.62" class="stroke" stroke-dasharray="150"><set attributeName="opacity" to="0" dur="1.0s" /><animate attributeName="stroke-dashoffset" from="150" to="0" dur="1.8s" begin="1.0s" fill="freeze" /></path><path d="M 19.25,46.2 c 0.796567,0.398856 1.99342,0.319857 3.120988,0.180143 5.4,-0.66 13.08,-1.76 18.48,-2.24 1.157425,-0.08971 2.576567,0.01086 3.52342,0.330429" class="stroke" stroke-dasharray="150"><set attributeName="opacity" to="0" dur="2.0s" /><animate attributeName="stroke-dashoffset" from="150" to="0" dur="1.8s" begin="2.0s" fill="freeze" /></path><path d="M 18.36,55.5 c 0.61,0.15,3,1,4.21,0.87c3.29-0.37,17.99-4.02,19.51-4.17c1.52-0.15,4.28-0.29,3.95,2.89c-0.43,4.17-2.68,16.92-6,23.84c-1.89,3.94-3.18,3.45-6.23,0.46" class="stroke" stroke-dasharray="150"><set attributeName="opacity" to="0" dur="3.0s" /><animate attributeName="stroke-dashoffset" from="150" to="0" dur="1.8s" begin="3.0s" fill="freeze" /></path><path d="M 25.54,56.5 c 0.87,0.87 1.8,2 1.8,3.5 -0.219826,13.545146 0.202719,23.466557 -0.18,37.006667" class="stroke" stroke-dasharray="150"><set attributeName="opacity" to="0" dur="4.5s" /><animate attributeName="stroke-dashoffset" from="150" to="0" dur="1.8s" begin="4.5s" fill="freeze" /></path><path d="M49.12,18.03c2.01,0.47,5.15,0.32,7.01,0.11c9.52-1.09,23.68-2.87,32.75-3.66c2.32-0.2,4.49-0.44,6.76,0.2" class="stroke" stroke-dasharray="150"><set attributeName="opacity" to="0" dur="5.6s" /><animate attributeName="stroke-dashoffset" from="150" to="0" dur="1.8s" begin="5.6s" fill="freeze" /></path><path d="M71.19,20.49c0.04,0.87-0.04,1.72-0.27,2.56c-1.3,2.95-2.42,6.45-4.55,10.83" class="stroke" stroke-dasharray="150"><set attributeName="opacity" to="0" dur="6.8s" /><animate attributeName="stroke-dashoffset" from="150" to="0" dur="1.8s" begin="6.8s" fill="freeze" /></path><path d="M56.16,34.89c0.85,0.85,1.44,2.28,1.44,3.65c0,1.08-0.1,24.43-0.06,34.97c0.01,2.8,0.03,4.68,0.06,4.97" class="stroke" stroke-dasharray="150"><set attributeName="opacity" to="0" dur="7.7s" /><animate attributeName="stroke-dashoffset" from="150" to="0" dur="1.8s" begin="7.7s" fill="freeze" /></path><path d="M58.16,36.25c2.74-0.17,24.04-2.73,26.53-2.93c2.08-0.17,3.54,1.06,3.54,3.15c0,2.82-0.05,20.59-0.05,35.03c0,1.72,0,3.4,0,4.99" class="stroke" stroke-dasharray="150"><set attributeName="opacity" to="0" dur="8.8s" /><animate attributeName="stroke-dashoffset" from="150" to="0" dur="1.8s" begin="8.8s" fill="freeze" /></path><path d="M58.86,48.7c7.14-0.95,22.37-2.84,28.23-3.21" class="stroke" stroke-dasharray="150"><set attributeName="opacity" to="0" dur="10.5s" /><animate attributeName="stroke-dashoffset" from="150" to="0" dur="1.8s" begin="10.5s" fill="freeze" /></path><path d="M58.58,61.98c9.54-1.36,21.25-2.25,28.73-2.73" class="stroke" stroke-dasharray="150"><set attributeName="opacity" to="0" dur="11.5s" /><animate attributeName="stroke-dashoffset" from="150" to="0" dur="1.8s" begin="11.5s" fill="freeze" /></path><path d="M58.79,75.75c8.46-0.75,20.51-2.16,28.48-2.67" class="stroke" stroke-dasharray="150"><set attributeName="opacity" to="0" dur="12.5s" /><animate attributeName="stroke-dashoffset" from="150" to="0" dur="1.8s" begin="12.5s" fill="freeze" /></path><path d="M64.77,82.29c0,0.96-0.23,1.8-1,2.74c-3.02,3.72-8.52,7.72-15.17,11.47" class="stroke" stroke-dasharray="150"><set attributeName="opacity" to="0" dur="13.5s" /><animate attributeName="stroke-dashoffset" from="150" to="0" dur="1.8s" begin="13.5s" fill="freeze" /></path><path d="M81.39,82.54c5.7,3.64,12.44,10.24,14,13.43" class="stroke" stroke-dasharray="150"><set attributeName="opacity" to="0" dur="14.5s" /><animate attributeName="stroke-dashoffset" from="150" to="0" dur="1.8s" begin="14.5s" fill="freeze" /></path><text x="90" y="120" id="reset-kvg-09818-Insatsu">⟳</text><text x="70" y="120" id="pause-kvg-09818-Insatsu">◼</text><script type="text/javascript"><![CDATA[function RecurringTimer(e,t){var n,r,i=t;this.pause=function(){window.clearTimeout(n);i-=new Date-r};var s=function(){r=new Date;n=window.setTimeout(function(){i=t;s();e()},i)};this.clear=function(){window.clearTimeout(n);i=t;n=window.setTimeout(function(){i=t;s();e()},i)};this.resume=s;this.resume()}function invoketimer(){timer=new RecurringTimer(function(){svg.setCurrentTime(0)},16400.0)}var svg=document.getElementById("kvg-09818-Insatsu");var pause=document.getElementById("pause-kvg-09818-Insatsu");var reset=document.getElementById("reset-kvg-09818-Insatsu");var timer;invoketimer();reset.onclick=function(){svg.setCurrentTime(0);timer.clear();svg.unpauseAnimations();pause.innerHTML = "◼";};pause.onclick=function(){if(svg.animationsPaused()){svg.unpauseAnimations();timer.resume();pause.innerHTML="◼"}else{svg.pauseAnimations();timer.pause();pause.innerHTML="▶"}}]]></script></svg>