<svg id="kvg-098aa" class="kanjivg" width="106" height="126" xmlns="http://www.w3.org/2000/svg" xmlns:xlink="http://www.w3.org/1999/xlink" xml:space="preserve" version="1.1" baseProfile="full"><defs><style type="text/css"><![CDATA[path.black{fill:none;stroke:black;stroke-width:5;stroke-linecap:round;stroke-linejoin:round;}path.grey{fill:none;stroke:#ddd;stroke-width:5;stroke-linecap:round;stroke-linejoin:round;}path.stroke{fill:none;stroke:black;stroke-width:5;stroke-linecap:round;stroke-linejoin:round;}rect{fill:none;stroke:#555;stroke-width:2;} text{font-size:16px;font-family:Segoe UI Symbol,Cambria Math,DejaVu Sans,Symbola,Quivira,STIX,Code2000;-webkit-touch-callout:none;cursor:pointer;-webkit-user-select:none;-khtml-user-select:none;-moz-user-select:none;-ms-user-select:none;user-select: none;}text:hover{color:#777;}#reset{font-weight:bold;}]]></style><marker id="markerStart" markerWidth="8" markerHeight="8" style="overflow:visible;"><circle cx="0" cy="0" r="1.5" style="stroke:none;fill:red;fill-opacity:0.5;"/></marker><marker id="markerEnd" style="overflow:visible;"><circle cx="0" cy="0" r="0.8" style="stroke:none;fill:blue;fill-opacity:0.5;"><animate attributeName="opacity" from="1" to="0" dur="3s" repeatCount="indefinite" /></circle></marker></defs><rect x="4" y="4" width="100" height="100" /><path d="M21.33,17.93c1.63,0.47,4.26,0.79,5.23,0.7c12.68-1.16,38.17-4.51,53.97-4.51c1.16,0,3.72,0.7,4.88,1.16" class="grey" /><path d="M51.66,16.26c0.74,0.84,0.84,2.21,0.84,3.8c0,8.33-0.23,8.21-0.23,18.69" class="grey" /><path d="M55.28,22.77c4.55,0.76,18.88,3.92,20.86,5.23" class="grey" /><path d="M27.26,40.45c0.39,1.53,0.95,2.74,0.95,4.65c0,12.65,1.69,36.42-11.72,51.65" class="grey" /><path d="M29.54,41.93C41.02,40.41,69.25,36.5,75.85,36c4.16-0.31,5.51,1.8,5.14,5.12C78.5,63.5,81,82.5,91.77,91.79c8.67,7.48,6.23-0.54,5.73-6.11" class="grey" /><path d="M64.38,43.33c0.07,0.25,0.15,0.63-0.14,0.98c-1.74,2.07-11.71,6.62-25.35,9.4" class="grey" /><path d="M36.66,61.15c0.52,0.29,1.19,1.5,1.28,1.88c0.71,2.71,1.43,6.24,2.43,11.38" class="grey" /><path d="M38.32,61.76c7.93-0.54,25.23-3.45,30.97-3.66c2.24-0.08,2.77,1.77,2.49,2.58c-0.95,2.78-1.12,3.66-2.67,8.29" class="grey" /><path d="M40.66,72.35c6.38-0.55,21.55-2.5,30.48-3.01" class="grey" /><path d="M53.05,52.72c0.64,0.22,1.02,1.97,1.15,2.41c0.13,0.43,0,29.16-0.13,31.86" class="grey" /><path d="M34.22,91.48c0.66,0.6,3.05,0.85,3.71,0.7c0.66-0.15,29.47-9,31.44-9.75" class="grey" /><path d="M65.1,76.21c3.46,2.98,10.55,11.39,11.72,15.28" class="grey" /><path d="M21.33,17.93c1.63,0.47,4.26,0.79,5.23,0.7c12.68-1.16,38.17-4.51,53.97-4.51c1.16,0,3.72,0.7,4.88,1.16" class="stroke" stroke-dasharray="150"><animate attributeName="stroke-dashoffset" from="150" to="0" dur="1.8s" begin="0.0s" fill="freeze" /></path><path d="M51.66,16.26c0.74,0.84,0.84,2.21,0.84,3.8c0,8.33-0.23,8.21-0.23,18.69" class="stroke" stroke-dasharray="150"><set attributeName="opacity" to="0" dur="1.5s" /><animate attributeName="stroke-dashoffset" from="150" to="0" dur="1.8s" begin="1.5s" fill="freeze" /></path><path d="M55.28,22.77c4.55,0.76,18.88,3.92,20.86,5.23" class="stroke" stroke-dasharray="150"><set attributeName="opacity" to="0" dur="2.5s" /><animate attributeName="stroke-dashoffset" from="150" to="0" dur="1.8s" begin="2.5s" fill="freeze" /></path><path d="M27.26,40.45c0.39,1.53,0.95,2.74,0.95,4.65c0,12.65,1.69,36.42-11.72,51.65" class="stroke" stroke-dasharray="150"><set attributeName="opacity" to="0" dur="3.5s" /><animate attributeName="stroke-dashoffset" from="150" to="0" dur="1.8s" begin="3.5s" fill="freeze" /></path><path d="M29.54,41.93C41.02,40.41,69.25,36.5,75.85,36c4.16-0.31,5.51,1.8,5.14,5.12C78.5,63.5,81,82.5,91.77,91.79c8.67,7.48,6.23-0.54,5.73-6.11" class="stroke" stroke-dasharray="150"><set attributeName="opacity" to="0" dur="4.9s" /><animate attributeName="stroke-dashoffset" from="150" to="0" dur="1.8s" begin="4.9s" fill="freeze" /></path><path d="M64.38,43.33c0.07,0.25,0.15,0.63-0.14,0.98c-1.74,2.07-11.71,6.62-25.35,9.4" class="stroke" stroke-dasharray="150"><set attributeName="opacity" to="0" dur="6.9s" /><animate attributeName="stroke-dashoffset" from="150" to="0" dur="1.8s" begin="6.9s" fill="freeze" /></path><path d="M36.66,61.15c0.52,0.29,1.19,1.5,1.28,1.88c0.71,2.71,1.43,6.24,2.43,11.38" class="stroke" stroke-dasharray="150"><set attributeName="opacity" to="0" dur="7.9s" /><animate attributeName="stroke-dashoffset" from="150" to="0" dur="1.8s" begin="7.9s" fill="freeze" /></path><path d="M38.32,61.76c7.93-0.54,25.23-3.45,30.97-3.66c2.24-0.08,2.77,1.77,2.49,2.58c-0.95,2.78-1.12,3.66-2.67,8.29" class="stroke" stroke-dasharray="150"><set attributeName="opacity" to="0" dur="8.8s" /><animate attributeName="stroke-dashoffset" from="150" to="0" dur="1.8s" begin="8.8s" fill="freeze" /></path><path d="M40.66,72.35c6.38-0.55,21.55-2.5,30.48-3.01" class="stroke" stroke-dasharray="150"><set attributeName="opacity" to="0" dur="9.9s" /><animate attributeName="stroke-dashoffset" from="150" to="0" dur="1.8s" begin="9.9s" fill="freeze" /></path><path d="M53.05,52.72c0.64,0.22,1.02,1.97,1.15,2.41c0.13,0.43,0,29.16-0.13,31.86" class="stroke" stroke-dasharray="150"><set attributeName="opacity" to="0" dur="10.9s" /><animate attributeName="stroke-dashoffset" from="150" to="0" dur="1.8s" begin="10.9s" fill="freeze" /></path><path d="M34.22,91.48c0.66,0.6,3.05,0.85,3.71,0.7c0.66-0.15,29.47-9,31.44-9.75" class="stroke" stroke-dasharray="150"><set attributeName="opacity" to="0" dur="11.9s" /><animate attributeName="stroke-dashoffset" from="150" to="0" dur="1.8s" begin="11.9s" fill="freeze" /></path><path d="M65.1,76.21c3.46,2.98,10.55,11.39,11.72,15.28" class="stroke" stroke-dasharray="150"><set attributeName="opacity" to="0" dur="12.9s" /><animate attributeName="stroke-dashoffset" from="150" to="0" dur="1.8s" begin="12.9s" fill="freeze" /></path><text x="90" y="120" id="reset-kvg-098aa">⟳</text><text x="70" y="120" id="pause-kvg-098aa">◼</text><script type="text/javascript"><![CDATA[function RecurringTimer(e,t){var n,r,i=t;this.pause=function(){window.clearTimeout(n);i-=new Date-r};var s=function(){r=new Date;n=window.setTimeout(function(){i=t;s();e()},i)};this.clear=function(){window.clearTimeout(n);i=t;n=window.setTimeout(function(){i=t;s();e()},i)};this.resume=s;this.resume()}function invoketimer(){timer=new RecurringTimer(function(){svg.setCurrentTime(0)},14800.0)}var svg=document.getElementById("kvg-098aa");var pause=document.getElementById("pause-kvg-098aa");var reset=document.getElementById("reset-kvg-098aa");var timer;invoketimer();reset.onclick=function(){svg.setCurrentTime(0);timer.clear();svg.unpauseAnimations();pause.innerHTML = "◼";};pause.onclick=function(){if(svg.animationsPaused()){svg.unpauseAnimations();timer.resume();pause.innerHTML="◼"}else{svg.pauseAnimations();timer.pause();pause.innerHTML="▶"}}]]></script></svg>