<svg id="kvg-098dc" class="kanjivg" width="106" height="126" xmlns="http://www.w3.org/2000/svg" xmlns:xlink="http://www.w3.org/1999/xlink" xml:space="preserve" version="1.1" baseProfile="full"><defs><style type="text/css"><![CDATA[path.black{fill:none;stroke:black;stroke-width:5;stroke-linecap:round;stroke-linejoin:round;}path.grey{fill:none;stroke:#ddd;stroke-width:5;stroke-linecap:round;stroke-linejoin:round;}path.stroke{fill:none;stroke:black;stroke-width:5;stroke-linecap:round;stroke-linejoin:round;}rect{fill:none;stroke:#555;stroke-width:2;} text{font-size:16px;font-family:Segoe UI Symbol,Cambria Math,DejaVu Sans,Symbola,Quivira,STIX,Code2000;-webkit-touch-callout:none;cursor:pointer;-webkit-user-select:none;-khtml-user-select:none;-moz-user-select:none;-ms-user-select:none;user-select: none;}text:hover{color:#777;}#reset{font-weight:bold;}]]></style><marker id="markerStart" markerWidth="8" markerHeight="8" style="overflow:visible;"><circle cx="0" cy="0" r="1.5" style="stroke:none;fill:red;fill-opacity:0.5;"/></marker><marker id="markerEnd" style="overflow:visible;"><circle cx="0" cy="0" r="0.8" style="stroke:none;fill:blue;fill-opacity:0.5;"><animate attributeName="opacity" from="1" to="0" dur="3s" repeatCount="indefinite" /></circle></marker></defs><rect x="4" y="4" width="100" height="100" /><path d="M40.5,10.25c0.08,0.36,0.27,0.96-0.16,1.43C35.75,16.75,25,21.5,13.25,24" class="grey" /><path d="M12.75,27.75c2.27,1.77,5.68,6.75,6.25,9.5" class="grey" /><path d="M44.52,21.25c0.03,0.33,0.13,0.88-0.04,1.32c-1.39,3.57-3.63,7.77-8.23,12.67" class="grey" /><path d="M9.02,41.67c0.51,0.09,1.9,0.48,3.25,0.27c7.48-1.19,26.88-3.69,32.91-4.45c1.35-0.17,1.71-0.09,2.57,0" class="grey" /><path d="M28.65,22.75c0.83,0.33,1,1.93,1,2.62c0,4.72-0.17,24.47-0.17,35.13" class="grey" /><path d="M29,40c-3.3,6.54-11.33,15.73-18.75,19.5" class="grey" /><path d="M33.25,43.5c4.62,1.67,10.87,6.65,13.78,10.36" class="grey" /><path d="M12.5,66.5c0.55,0.45,1.94,2.68,2.06,3.29C16,77.25,16.25,85.57,17.67,94" class="grey" /><path d="M14.22,68.55c10.03-1.05,23.25-3.22,29.18-3.66c2.18-0.16,3.29,1.14,3.17,2.35c-0.49,4.97-1.07,15.52-2.11,24.62" class="grey" /><path d="M29.78,67.54c0.41,0.89,1.06,1.75,1.06,2.99c-0.01,5.85,0.13,17.89,0.13,19.8" class="grey" /><path d="M16.38,79.26c4.62-0.51,19.87-2.51,28.58-2.58" class="grey" /><path d="M17.91,92.23c7.09-0.48,18.48-2.75,26.38-2.88" class="grey" /><path d="M55,17.5c1.25,0.75,3.63,1.3,4.74,1.03c8.78-2.2,17.71-5.98,19.99-6.52c1.13-0.27,3.29-0.18,3.12,2C81,37,86.25,43.25,93.49,47.22c4.25,2.33,4.51,0.03,3.24-7.08" class="grey" /><path d="M93.02,13c0.01,0.18,0.03,0.47-0.03,0.73c-0.37,1.54-2.47,4.92-5.34,6.99" class="grey" /><path d="M86.5,23.5c2.82,1.41,7.29,5.8,8,8" class="grey" /><path d="M73.53,21.5c0.92,0.53,1.47,2.39,1.65,3.45c0.18,1.06,0,67.42-0.18,74.05" class="grey" /><path d="M67.71,26.25c0.29,1.5,0.36,2.14-1.15,3.6C62.25,34,58.25,38.25,53,41.25" class="grey" /><path d="M62.46,37.89c0.65,1,0.84,3.42,0.82,5.33c-0.17,14.13-0.03,42.53-11.39,50.99" class="grey" /><path d="M51.75,59.56c0.47,0.47,3.71,1.04,4.77,0.8c8.47-1.88,23.61-7.7,26.42-8.87c1.07-0.44,3.26,0.71,3.06,2.57C84,73.25,85,83.75,95.12,91.78c4.63,3.67,6.63,1.22,4.13-5.57" class="grey" /><path d="M96,53.75c0.01,0.19,0.03,0.49-0.03,0.76c-0.36,1.59-2.41,5.1-5.23,7.24" class="grey" /><path d="M89.25,64.5c3.05,1.58,7.87,6.51,8.63,8.97" class="grey" /><path d="M40.5,10.25c0.08,0.36,0.27,0.96-0.16,1.43C35.75,16.75,25,21.5,13.25,24" class="stroke" stroke-dasharray="150"><animate attributeName="stroke-dashoffset" from="150" to="0" dur="1.8s" begin="0.0s" fill="freeze" /></path><path d="M12.75,27.75c2.27,1.77,5.68,6.75,6.25,9.5" class="stroke" stroke-dasharray="150"><set attributeName="opacity" to="0" dur="1.0s" /><animate attributeName="stroke-dashoffset" from="150" to="0" dur="1.8s" begin="1.0s" fill="freeze" /></path><path d="M44.52,21.25c0.03,0.33,0.13,0.88-0.04,1.32c-1.39,3.57-3.63,7.77-8.23,12.67" class="stroke" stroke-dasharray="150"><set attributeName="opacity" to="0" dur="1.9s" /><animate attributeName="stroke-dashoffset" from="150" to="0" dur="1.8s" begin="1.9s" fill="freeze" /></path><path d="M9.02,41.67c0.51,0.09,1.9,0.48,3.25,0.27c7.48-1.19,26.88-3.69,32.91-4.45c1.35-0.17,1.71-0.09,2.57,0" class="stroke" stroke-dasharray="150"><set attributeName="opacity" to="0" dur="2.8s" /><animate attributeName="stroke-dashoffset" from="150" to="0" dur="1.8s" begin="2.8s" fill="freeze" /></path><path d="M28.65,22.75c0.83,0.33,1,1.93,1,2.62c0,4.72-0.17,24.47-0.17,35.13" class="stroke" stroke-dasharray="150"><set attributeName="opacity" to="0" dur="3.8s" /><animate attributeName="stroke-dashoffset" from="150" to="0" dur="1.8s" begin="3.8s" fill="freeze" /></path><path d="M29,40c-3.3,6.54-11.33,15.73-18.75,19.5" class="stroke" stroke-dasharray="150"><set attributeName="opacity" to="0" dur="4.8s" /><animate attributeName="stroke-dashoffset" from="150" to="0" dur="1.8s" begin="4.8s" fill="freeze" /></path><path d="M33.25,43.5c4.62,1.67,10.87,6.65,13.78,10.36" class="stroke" stroke-dasharray="150"><set attributeName="opacity" to="0" dur="5.8s" /><animate attributeName="stroke-dashoffset" from="150" to="0" dur="1.8s" begin="5.8s" fill="freeze" /></path><path d="M12.5,66.5c0.55,0.45,1.94,2.68,2.06,3.29C16,77.25,16.25,85.57,17.67,94" class="stroke" stroke-dasharray="150"><set attributeName="opacity" to="0" dur="6.7s" /><animate attributeName="stroke-dashoffset" from="150" to="0" dur="1.8s" begin="6.7s" fill="freeze" /></path><path d="M14.22,68.55c10.03-1.05,23.25-3.22,29.18-3.66c2.18-0.16,3.29,1.14,3.17,2.35c-0.49,4.97-1.07,15.52-2.11,24.62" class="stroke" stroke-dasharray="150"><set attributeName="opacity" to="0" dur="7.7s" /><animate attributeName="stroke-dashoffset" from="150" to="0" dur="1.8s" begin="7.7s" fill="freeze" /></path><path d="M29.78,67.54c0.41,0.89,1.06,1.75,1.06,2.99c-0.01,5.85,0.13,17.89,0.13,19.8" class="stroke" stroke-dasharray="150"><set attributeName="opacity" to="0" dur="9.1s" /><animate attributeName="stroke-dashoffset" from="150" to="0" dur="1.8s" begin="9.1s" fill="freeze" /></path><path d="M16.38,79.26c4.62-0.51,19.87-2.51,28.58-2.58" class="stroke" stroke-dasharray="150"><set attributeName="opacity" to="0" dur="10.1s" /><animate attributeName="stroke-dashoffset" from="150" to="0" dur="1.8s" begin="10.1s" fill="freeze" /></path><path d="M17.91,92.23c7.09-0.48,18.48-2.75,26.38-2.88" class="stroke" stroke-dasharray="150"><set attributeName="opacity" to="0" dur="11.1s" /><animate attributeName="stroke-dashoffset" from="150" to="0" dur="1.8s" begin="11.1s" fill="freeze" /></path><path d="M55,17.5c1.25,0.75,3.63,1.3,4.74,1.03c8.78-2.2,17.71-5.98,19.99-6.52c1.13-0.27,3.29-0.18,3.12,2C81,37,86.25,43.25,93.49,47.22c4.25,2.33,4.51,0.03,3.24-7.08" class="stroke" stroke-dasharray="150"><set attributeName="opacity" to="0" dur="12.1s" /><animate attributeName="stroke-dashoffset" from="150" to="0" dur="1.8s" begin="12.1s" fill="freeze" /></path><path d="M93.02,13c0.01,0.18,0.03,0.47-0.03,0.73c-0.37,1.54-2.47,4.92-5.34,6.99" class="stroke" stroke-dasharray="150"><set attributeName="opacity" to="0" dur="13.799999999999999s" /><animate attributeName="stroke-dashoffset" from="150" to="0" dur="1.8s" begin="13.799999999999999s" fill="freeze" /></path><path d="M86.5,23.5c2.82,1.41,7.29,5.8,8,8" class="stroke" stroke-dasharray="150"><set attributeName="opacity" to="0" dur="14.7s" /><animate attributeName="stroke-dashoffset" from="150" to="0" dur="1.8s" begin="14.7s" fill="freeze" /></path><path d="M73.53,21.5c0.92,0.53,1.47,2.39,1.65,3.45c0.18,1.06,0,67.42-0.18,74.05" class="stroke" stroke-dasharray="150"><set attributeName="opacity" to="0" dur="15.6s" /><animate attributeName="stroke-dashoffset" from="150" to="0" dur="1.8s" begin="15.6s" fill="freeze" /></path><path d="M67.71,26.25c0.29,1.5,0.36,2.14-1.15,3.6C62.25,34,58.25,38.25,53,41.25" class="stroke" stroke-dasharray="150"><set attributeName="opacity" to="0" dur="17.3s" /><animate attributeName="stroke-dashoffset" from="150" to="0" dur="1.8s" begin="17.3s" fill="freeze" /></path><path d="M62.46,37.89c0.65,1,0.84,3.42,0.82,5.33c-0.17,14.13-0.03,42.53-11.39,50.99" class="stroke" stroke-dasharray="150"><set attributeName="opacity" to="0" dur="18.3s" /><animate attributeName="stroke-dashoffset" from="150" to="0" dur="1.8s" begin="18.3s" fill="freeze" /></path><path d="M51.75,59.56c0.47,0.47,3.71,1.04,4.77,0.8c8.47-1.88,23.61-7.7,26.42-8.87c1.07-0.44,3.26,0.71,3.06,2.57C84,73.25,85,83.75,95.12,91.78c4.63,3.67,6.63,1.22,4.13-5.57" class="stroke" stroke-dasharray="150"><set attributeName="opacity" to="0" dur="19.7s" /><animate attributeName="stroke-dashoffset" from="150" to="0" dur="1.8s" begin="19.7s" fill="freeze" /></path><path d="M96,53.75c0.01,0.19,0.03,0.49-0.03,0.76c-0.36,1.59-2.41,5.1-5.23,7.24" class="stroke" stroke-dasharray="150"><set attributeName="opacity" to="0" dur="21.5s" /><animate attributeName="stroke-dashoffset" from="150" to="0" dur="1.8s" begin="21.5s" fill="freeze" /></path><path d="M89.25,64.5c3.05,1.58,7.87,6.51,8.63,8.97" class="stroke" stroke-dasharray="150"><set attributeName="opacity" to="0" dur="22.4s" /><animate attributeName="stroke-dashoffset" from="150" to="0" dur="1.8s" begin="22.4s" fill="freeze" /></path><text x="90" y="120" id="reset-kvg-098dc">⟳</text><text x="70" y="120" id="pause-kvg-098dc">◼</text><script type="text/javascript"><![CDATA[function RecurringTimer(e,t){var n,r,i=t;this.pause=function(){window.clearTimeout(n);i-=new Date-r};var s=function(){r=new Date;n=window.setTimeout(function(){i=t;s();e()},i)};this.clear=function(){window.clearTimeout(n);i=t;n=window.setTimeout(function(){i=t;s();e()},i)};this.resume=s;this.resume()}function invoketimer(){timer=new RecurringTimer(function(){svg.setCurrentTime(0)},24299.999999999996)}var svg=document.getElementById("kvg-098dc");var pause=document.getElementById("pause-kvg-098dc");var reset=document.getElementById("reset-kvg-098dc");var timer;invoketimer();reset.onclick=function(){svg.setCurrentTime(0);timer.clear();svg.unpauseAnimations();pause.innerHTML = "◼";};pause.onclick=function(){if(svg.animationsPaused()){svg.unpauseAnimations();timer.resume();pause.innerHTML="◼"}else{svg.pauseAnimations();timer.pause();pause.innerHTML="▶"}}]]></script></svg>