<svg id="kvg-09a0e" class="kanjivg" width="106" height="126" xmlns="http://www.w3.org/2000/svg" xmlns:xlink="http://www.w3.org/1999/xlink" xml:space="preserve" version="1.1" baseProfile="full"><defs><style type="text/css"><![CDATA[path.black{fill:none;stroke:black;stroke-width:5;stroke-linecap:round;stroke-linejoin:round;}path.grey{fill:none;stroke:#ddd;stroke-width:5;stroke-linecap:round;stroke-linejoin:round;}path.stroke{fill:none;stroke:black;stroke-width:5;stroke-linecap:round;stroke-linejoin:round;}rect{fill:none;stroke:#555;stroke-width:2;} text{font-size:16px;font-family:Segoe UI Symbol,Cambria Math,DejaVu Sans,Symbola,Quivira,STIX,Code2000;-webkit-touch-callout:none;cursor:pointer;-webkit-user-select:none;-khtml-user-select:none;-moz-user-select:none;-ms-user-select:none;user-select: none;}text:hover{color:#777;}#reset{font-weight:bold;}]]></style><marker id="markerStart" markerWidth="8" markerHeight="8" style="overflow:visible;"><circle cx="0" cy="0" r="1.5" style="stroke:none;fill:red;fill-opacity:0.5;"/></marker><marker id="markerEnd" style="overflow:visible;"><circle cx="0" cy="0" r="0.8" style="stroke:none;fill:blue;fill-opacity:0.5;"><animate attributeName="opacity" from="1" to="0" dur="3s" repeatCount="indefinite" /></circle></marker></defs><rect x="4" y="4" width="100" height="100" /><path d="M17.49,18.37c0.88,0.88,1.24,2.58,1.24,3.88c-0.02,7.56,0.18,22.36,0.08,32.5c-0.02,2.35,0.07,2.75-0.43,4.75" class="grey" /><path d="M19.27,19.51c7.68-0.88,17.57-1.98,21.6-2.49c1.18-0.15,2.75-0.28,4.66,0.04" class="grey" /><path d="M31.31,19.82c0.81,0.81,0.95,1.68,0.95,2.99c0,6.57,0,26.44,0,33.91" class="grey" /><path d="M19.75,33c5.17-0.6,14.43-1.59,18.5-2.15c1.07-0.15,3-0.48,4.6-0.26" class="grey" /><path d="M20.25,44.75c5.99-0.47,17-2.08,19.57-2.4c0.9-0.11,2.42-0.2,2.87-0.02" class="grey" /><path d="M18.74,59.9c6.17-1.41,19.29-3.29,22.68-3.88c4.33-0.76,4.19,0.81,3.95,4.45C44.7,70.81,42.76,82.45,39.25,89c-3.75,7-5.32,0.41-6.21-0.86" class="grey" /><path d="M13.48,72.25c0.37,6.41-0.75,12.04-1.14,13.32" class="grey" /><path d="M19,69.88c1.44,2.66,2.67,6.64,3,11.38" class="grey" /><path d="M26.12,68c0.82,1.21,3.76,5.8,4.12,9.75" class="grey" /><path d="M32.88,64.88c1.46,2.49,3.85,5.07,4.38,8.38" class="grey" /><path d="M52.77,24.26c1.41,0.44,3.8,0.22,5.25,0.07c6.86-0.72,16.27-1.84,23.11-2.68c2.13-0.26,4.01-0.19,6.13-0.19" class="grey" /><path d="M68.52,11.5c0.41,0.85,0.31,1.74,0.22,2.64c-1.21,12.2-6.02,22.11-12.99,27.61" class="grey" /><path d="M69.5,27.75C73.92,30,79.04,33.64,81.75,37" class="grey" /><path d="M48.13,46.76c2.62,0.62,5.11,0.33,7.37,0.07c8.73-1.01,27.65-3.29,36.38-4.12c2.1-0.2,3.97-0.4,6.01,0.26" class="grey" /><path d="M53.45,57.99c0.65,0.65,1.01,1.45,1.08,2.38c0.72,3.38,1.18,5.93,1.68,9.39c0.24,1.67,0.46,3.31,0.64,4.77" class="grey" /><path d="M55.4,58.96c4.77-0.81,10.23-1.47,13.72-1.88c2.74-0.32,3.59,0.13,3.04,2.92c-0.57,2.92-1.11,5.71-1.99,9.73" class="grey" /><path d="M57.73,72.23c1-0.12,7.96-1.2,10.9-1.5c1-0.1,2-0.21,2.96-0.34" class="grey" /><path d="M83.92,46.22c0.87,0.87,1.31,2.53,1.31,4.35c0,16.08-0.1,33.83-0.1,39.31c0,9.39-6.11,1.91-7.22,0.53" class="grey" /><path d="M17.49,18.37c0.88,0.88,1.24,2.58,1.24,3.88c-0.02,7.56,0.18,22.36,0.08,32.5c-0.02,2.35,0.07,2.75-0.43,4.75" class="stroke" stroke-dasharray="150"><animate attributeName="stroke-dashoffset" from="150" to="0" dur="1.8s" begin="0.0s" fill="freeze" /></path><path d="M19.27,19.51c7.68-0.88,17.57-1.98,21.6-2.49c1.18-0.15,2.75-0.28,4.66,0.04" class="stroke" stroke-dasharray="150"><set attributeName="opacity" to="0" dur="1.1s" /><animate attributeName="stroke-dashoffset" from="150" to="0" dur="1.8s" begin="1.1s" fill="freeze" /></path><path d="M31.31,19.82c0.81,0.81,0.95,1.68,0.95,2.99c0,6.57,0,26.44,0,33.91" class="stroke" stroke-dasharray="150"><set attributeName="opacity" to="0" dur="2.1s" /><animate attributeName="stroke-dashoffset" from="150" to="0" dur="1.8s" begin="2.1s" fill="freeze" /></path><path d="M19.75,33c5.17-0.6,14.43-1.59,18.5-2.15c1.07-0.15,3-0.48,4.6-0.26" class="stroke" stroke-dasharray="150"><set attributeName="opacity" to="0" dur="3.1s" /><animate attributeName="stroke-dashoffset" from="150" to="0" dur="1.8s" begin="3.1s" fill="freeze" /></path><path d="M20.25,44.75c5.99-0.47,17-2.08,19.57-2.4c0.9-0.11,2.42-0.2,2.87-0.02" class="stroke" stroke-dasharray="150"><set attributeName="opacity" to="0" dur="4.1s" /><animate attributeName="stroke-dashoffset" from="150" to="0" dur="1.8s" begin="4.1s" fill="freeze" /></path><path d="M18.74,59.9c6.17-1.41,19.29-3.29,22.68-3.88c4.33-0.76,4.19,0.81,3.95,4.45C44.7,70.81,42.76,82.45,39.25,89c-3.75,7-5.32,0.41-6.21-0.86" class="stroke" stroke-dasharray="150"><set attributeName="opacity" to="0" dur="5.1s" /><animate attributeName="stroke-dashoffset" from="150" to="0" dur="1.8s" begin="5.1s" fill="freeze" /></path><path d="M13.48,72.25c0.37,6.41-0.75,12.04-1.14,13.32" class="stroke" stroke-dasharray="150"><set attributeName="opacity" to="0" dur="6.8s" /><animate attributeName="stroke-dashoffset" from="150" to="0" dur="1.8s" begin="6.8s" fill="freeze" /></path><path d="M19,69.88c1.44,2.66,2.67,6.64,3,11.38" class="stroke" stroke-dasharray="150"><set attributeName="opacity" to="0" dur="7.7s" /><animate attributeName="stroke-dashoffset" from="150" to="0" dur="1.8s" begin="7.7s" fill="freeze" /></path><path d="M26.12,68c0.82,1.21,3.76,5.8,4.12,9.75" class="stroke" stroke-dasharray="150"><set attributeName="opacity" to="0" dur="8.6s" /><animate attributeName="stroke-dashoffset" from="150" to="0" dur="1.8s" begin="8.6s" fill="freeze" /></path><path d="M32.88,64.88c1.46,2.49,3.85,5.07,4.38,8.38" class="stroke" stroke-dasharray="150"><set attributeName="opacity" to="0" dur="9.5s" /><animate attributeName="stroke-dashoffset" from="150" to="0" dur="1.8s" begin="9.5s" fill="freeze" /></path><path d="M52.77,24.26c1.41,0.44,3.8,0.22,5.25,0.07c6.86-0.72,16.27-1.84,23.11-2.68c2.13-0.26,4.01-0.19,6.13-0.19" class="stroke" stroke-dasharray="150"><set attributeName="opacity" to="0" dur="10.4s" /><animate attributeName="stroke-dashoffset" from="150" to="0" dur="1.8s" begin="10.4s" fill="freeze" /></path><path d="M68.52,11.5c0.41,0.85,0.31,1.74,0.22,2.64c-1.21,12.2-6.02,22.11-12.99,27.61" class="stroke" stroke-dasharray="150"><set attributeName="opacity" to="0" dur="11.4s" /><animate attributeName="stroke-dashoffset" from="150" to="0" dur="1.8s" begin="11.4s" fill="freeze" /></path><path d="M69.5,27.75C73.92,30,79.04,33.64,81.75,37" class="stroke" stroke-dasharray="150"><set attributeName="opacity" to="0" dur="12.4s" /><animate attributeName="stroke-dashoffset" from="150" to="0" dur="1.8s" begin="12.4s" fill="freeze" /></path><path d="M48.13,46.76c2.62,0.62,5.11,0.33,7.37,0.07c8.73-1.01,27.65-3.29,36.38-4.12c2.1-0.2,3.97-0.4,6.01,0.26" class="stroke" stroke-dasharray="150"><set attributeName="opacity" to="0" dur="13.3s" /><animate attributeName="stroke-dashoffset" from="150" to="0" dur="1.8s" begin="13.3s" fill="freeze" /></path><path d="M53.45,57.99c0.65,0.65,1.01,1.45,1.08,2.38c0.72,3.38,1.18,5.93,1.68,9.39c0.24,1.67,0.46,3.31,0.64,4.77" class="stroke" stroke-dasharray="150"><set attributeName="opacity" to="0" dur="14.600000000000001s" /><animate attributeName="stroke-dashoffset" from="150" to="0" dur="1.8s" begin="14.600000000000001s" fill="freeze" /></path><path d="M55.4,58.96c4.77-0.81,10.23-1.47,13.72-1.88c2.74-0.32,3.59,0.13,3.04,2.92c-0.57,2.92-1.11,5.71-1.99,9.73" class="stroke" stroke-dasharray="150"><set attributeName="opacity" to="0" dur="15.500000000000002s" /><animate attributeName="stroke-dashoffset" from="150" to="0" dur="1.8s" begin="15.500000000000002s" fill="freeze" /></path><path d="M57.73,72.23c1-0.12,7.96-1.2,10.9-1.5c1-0.1,2-0.21,2.96-0.34" class="stroke" stroke-dasharray="150"><set attributeName="opacity" to="0" dur="16.5s" /><animate attributeName="stroke-dashoffset" from="150" to="0" dur="1.8s" begin="16.5s" fill="freeze" /></path><path d="M83.92,46.22c0.87,0.87,1.31,2.53,1.31,4.35c0,16.08-0.1,33.83-0.1,39.31c0,9.39-6.11,1.91-7.22,0.53" class="stroke" stroke-dasharray="150"><set attributeName="opacity" to="0" dur="17.4s" /><animate attributeName="stroke-dashoffset" from="150" to="0" dur="1.8s" begin="17.4s" fill="freeze" /></path><text x="90" y="120" id="reset-kvg-09a0e">⟳</text><text x="70" y="120" id="pause-kvg-09a0e">◼</text><script type="text/javascript"><![CDATA[function RecurringTimer(e,t){var n,r,i=t;this.pause=function(){window.clearTimeout(n);i-=new Date-r};var s=function(){r=new Date;n=window.setTimeout(function(){i=t;s();e()},i)};this.clear=function(){window.clearTimeout(n);i=t;n=window.setTimeout(function(){i=t;s();e()},i)};this.resume=s;this.resume()}function invoketimer(){timer=new RecurringTimer(function(){svg.setCurrentTime(0)},19799.999999999996)}var svg=document.getElementById("kvg-09a0e");var pause=document.getElementById("pause-kvg-09a0e");var reset=document.getElementById("reset-kvg-09a0e");var timer;invoketimer();reset.onclick=function(){svg.setCurrentTime(0);timer.clear();svg.unpauseAnimations();pause.innerHTML = "◼";};pause.onclick=function(){if(svg.animationsPaused()){svg.unpauseAnimations();timer.resume();pause.innerHTML="◼"}else{svg.pauseAnimations();timer.pause();pause.innerHTML="▶"}}]]></script></svg>