<svg id="kvg-09a13" class="kanjivg" width="106" height="126" xmlns="http://www.w3.org/2000/svg" xmlns:xlink="http://www.w3.org/1999/xlink" xml:space="preserve" version="1.1" baseProfile="full"><defs><style type="text/css"><![CDATA[path.black{fill:none;stroke:black;stroke-width:5;stroke-linecap:round;stroke-linejoin:round;}path.grey{fill:none;stroke:#ddd;stroke-width:5;stroke-linecap:round;stroke-linejoin:round;}path.stroke{fill:none;stroke:black;stroke-width:5;stroke-linecap:round;stroke-linejoin:round;}rect{fill:none;stroke:#555;stroke-width:2;} text{font-size:16px;font-family:Segoe UI Symbol,Cambria Math,DejaVu Sans,Symbola,Quivira,STIX,Code2000;-webkit-touch-callout:none;cursor:pointer;-webkit-user-select:none;-khtml-user-select:none;-moz-user-select:none;-ms-user-select:none;user-select: none;}text:hover{color:#777;}#reset{font-weight:bold;}]]></style><marker id="markerStart" markerWidth="8" markerHeight="8" style="overflow:visible;"><circle cx="0" cy="0" r="1.5" style="stroke:none;fill:red;fill-opacity:0.5;"/></marker><marker id="markerEnd" style="overflow:visible;"><circle cx="0" cy="0" r="0.8" style="stroke:none;fill:blue;fill-opacity:0.5;"><animate attributeName="opacity" from="1" to="0" dur="3s" repeatCount="indefinite" /></circle></marker></defs><rect x="4" y="4" width="100" height="100" /><path d="M16.49,17.62c0.76,0.76,1.25,1.82,1.24,3.38c-0.02,7.37-0.07,24.26-0.17,34.5c-0.02,2.35,0.07,3.75-0.56,5.75" class="grey" /><path d="M18.02,19.51c7.48-1.26,17.66-2.93,22.01-3.17c1.59-0.09,2.96-0.21,4-0.03" class="grey" /><path d="M28.81,20.57c1,1,1.45,2.18,1.45,3.49c0,6.17-0.06,24.21-0.25,33.91" class="grey" /><path d="M18.16,33.34c6.26-0.58,16.75-2.85,19.44-3.24c0.94-0.14,2.53-0.24,3-0.02" class="grey" /><path d="M18.26,45.62c6.26-0.59,15.75-2.35,18.44-2.74c0.94-0.14,2.53-0.25,3-0.03" class="grey" /><path d="M17.74,60.65c6.17-1.41,18.79-4.07,22.18-4.63c3.08-0.51,4.58,1.49,4.2,6.45C43.33,72.8,41.55,84.12,38.75,91c-2.43,5.96-5,2.12-6.71-0.86" class="grey" /><path d="M10.54,74.75c0.37,6.29-0.75,11.82-1.14,13.07" class="grey" /><path d="M16.62,71.25c1.38,2.54,2.5,6.88,2.88,10.25" class="grey" /><path d="M23.8,68.47c1.45,2.28,2.82,5.53,3.33,8.03" class="grey" /><path d="M30.5,64.5c1.75,1.75,4.36,4.24,4.96,7" class="grey" /><path d="M66.48,11.5c0.06,0.71,0.27,1.89-0.11,2.87c-2.69,6.92-9.61,18.97-20.22,27.5" class="grey" /><path d="M66.9,14.12c2.71,4.05,15.43,16.09,20.95,21.39c1.79,1.73,3.39,3.23,5.77,3.86" class="grey" /><path d="M56.48,40.4c1.52,0.23,2.76,0.31,3.79,0.12c5.48-1.01,10.48-1.76,15.14-2.2c1.18-0.11,3.34-0.18,4.63,0.01" class="grey" /><path d="M50.39,52.87c0.78,0.6,1.24,1.38,1.37,2.35c0.95,3.27,1.88,9.24,2.62,14.27c0.18,1.23,0.36,2.41,0.52,3.48" class="grey" /><path d="M52.77,54.03c10.35-1.28,26.78-2.78,31.61-3.26c1.77-0.17,2.83,1.76,2.57,2.79c-1.05,4.26-1.71,5.44-3.48,13.57" class="grey" /><path d="M55.28,69.97c4.64-0.44,17.59-1.68,26.08-2.41c1.89-0.16,3.56-0.3,4.87-0.4" class="grey" /><path d="M66.72,42.5c0.9,1.25,1.35,2.83,1.37,4.63c0.41,26.49-4.84,39.12-23.95,49.62" class="grey" /><path d="M68.15,69.87c2.67,4.03,15.45,15.9,21.14,21.32c1.88,1.79,3.43,3.34,5.96,4.06" class="grey" /><path d="M16.49,17.62c0.76,0.76,1.25,1.82,1.24,3.38c-0.02,7.37-0.07,24.26-0.17,34.5c-0.02,2.35,0.07,3.75-0.56,5.75" class="stroke" stroke-dasharray="150"><animate attributeName="stroke-dashoffset" from="150" to="0" dur="1.8s" begin="0.0s" fill="freeze" /></path><path d="M18.02,19.51c7.48-1.26,17.66-2.93,22.01-3.17c1.59-0.09,2.96-0.21,4-0.03" class="stroke" stroke-dasharray="150"><set attributeName="opacity" to="0" dur="1.1s" /><animate attributeName="stroke-dashoffset" from="150" to="0" dur="1.8s" begin="1.1s" fill="freeze" /></path><path d="M28.81,20.57c1,1,1.45,2.18,1.45,3.49c0,6.17-0.06,24.21-0.25,33.91" class="stroke" stroke-dasharray="150"><set attributeName="opacity" to="0" dur="2.1s" /><animate attributeName="stroke-dashoffset" from="150" to="0" dur="1.8s" begin="2.1s" fill="freeze" /></path><path d="M18.16,33.34c6.26-0.58,16.75-2.85,19.44-3.24c0.94-0.14,2.53-0.24,3-0.02" class="stroke" stroke-dasharray="150"><set attributeName="opacity" to="0" dur="3.1s" /><animate attributeName="stroke-dashoffset" from="150" to="0" dur="1.8s" begin="3.1s" fill="freeze" /></path><path d="M18.26,45.62c6.26-0.59,15.75-2.35,18.44-2.74c0.94-0.14,2.53-0.25,3-0.03" class="stroke" stroke-dasharray="150"><set attributeName="opacity" to="0" dur="4.1s" /><animate attributeName="stroke-dashoffset" from="150" to="0" dur="1.8s" begin="4.1s" fill="freeze" /></path><path d="M17.74,60.65c6.17-1.41,18.79-4.07,22.18-4.63c3.08-0.51,4.58,1.49,4.2,6.45C43.33,72.8,41.55,84.12,38.75,91c-2.43,5.96-5,2.12-6.71-0.86" class="stroke" stroke-dasharray="150"><set attributeName="opacity" to="0" dur="5.1s" /><animate attributeName="stroke-dashoffset" from="150" to="0" dur="1.8s" begin="5.1s" fill="freeze" /></path><path d="M10.54,74.75c0.37,6.29-0.75,11.82-1.14,13.07" class="stroke" stroke-dasharray="150"><set attributeName="opacity" to="0" dur="6.8s" /><animate attributeName="stroke-dashoffset" from="150" to="0" dur="1.8s" begin="6.8s" fill="freeze" /></path><path d="M16.62,71.25c1.38,2.54,2.5,6.88,2.88,10.25" class="stroke" stroke-dasharray="150"><set attributeName="opacity" to="0" dur="7.7s" /><animate attributeName="stroke-dashoffset" from="150" to="0" dur="1.8s" begin="7.7s" fill="freeze" /></path><path d="M23.8,68.47c1.45,2.28,2.82,5.53,3.33,8.03" class="stroke" stroke-dasharray="150"><set attributeName="opacity" to="0" dur="8.6s" /><animate attributeName="stroke-dashoffset" from="150" to="0" dur="1.8s" begin="8.6s" fill="freeze" /></path><path d="M30.5,64.5c1.75,1.75,4.36,4.24,4.96,7" class="stroke" stroke-dasharray="150"><set attributeName="opacity" to="0" dur="9.5s" /><animate attributeName="stroke-dashoffset" from="150" to="0" dur="1.8s" begin="9.5s" fill="freeze" /></path><path d="M66.48,11.5c0.06,0.71,0.27,1.89-0.11,2.87c-2.69,6.92-9.61,18.97-20.22,27.5" class="stroke" stroke-dasharray="150"><set attributeName="opacity" to="0" dur="10.4s" /><animate attributeName="stroke-dashoffset" from="150" to="0" dur="1.8s" begin="10.4s" fill="freeze" /></path><path d="M66.9,14.12c2.71,4.05,15.43,16.09,20.95,21.39c1.79,1.73,3.39,3.23,5.77,3.86" class="stroke" stroke-dasharray="150"><set attributeName="opacity" to="0" dur="11.4s" /><animate attributeName="stroke-dashoffset" from="150" to="0" dur="1.8s" begin="11.4s" fill="freeze" /></path><path d="M56.48,40.4c1.52,0.23,2.76,0.31,3.79,0.12c5.48-1.01,10.48-1.76,15.14-2.2c1.18-0.11,3.34-0.18,4.63,0.01" class="stroke" stroke-dasharray="150"><set attributeName="opacity" to="0" dur="12.4s" /><animate attributeName="stroke-dashoffset" from="150" to="0" dur="1.8s" begin="12.4s" fill="freeze" /></path><path d="M50.39,52.87c0.78,0.6,1.24,1.38,1.37,2.35c0.95,3.27,1.88,9.24,2.62,14.27c0.18,1.23,0.36,2.41,0.52,3.48" class="stroke" stroke-dasharray="150"><set attributeName="opacity" to="0" dur="13.4s" /><animate attributeName="stroke-dashoffset" from="150" to="0" dur="1.8s" begin="13.4s" fill="freeze" /></path><path d="M52.77,54.03c10.35-1.28,26.78-2.78,31.61-3.26c1.77-0.17,2.83,1.76,2.57,2.79c-1.05,4.26-1.71,5.44-3.48,13.57" class="stroke" stroke-dasharray="150"><set attributeName="opacity" to="0" dur="14.4s" /><animate attributeName="stroke-dashoffset" from="150" to="0" dur="1.8s" begin="14.4s" fill="freeze" /></path><path d="M55.28,69.97c4.64-0.44,17.59-1.68,26.08-2.41c1.89-0.16,3.56-0.3,4.87-0.4" class="stroke" stroke-dasharray="150"><set attributeName="opacity" to="0" dur="15.700000000000001s" /><animate attributeName="stroke-dashoffset" from="150" to="0" dur="1.8s" begin="15.700000000000001s" fill="freeze" /></path><path d="M66.72,42.5c0.9,1.25,1.35,2.83,1.37,4.63c0.41,26.49-4.84,39.12-23.95,49.62" class="stroke" stroke-dasharray="150"><set attributeName="opacity" to="0" dur="16.700000000000003s" /><animate attributeName="stroke-dashoffset" from="150" to="0" dur="1.8s" begin="16.700000000000003s" fill="freeze" /></path><path d="M68.15,69.87c2.67,4.03,15.45,15.9,21.14,21.32c1.88,1.79,3.43,3.34,5.96,4.06" class="stroke" stroke-dasharray="150"><set attributeName="opacity" to="0" dur="18.200000000000003s" /><animate attributeName="stroke-dashoffset" from="150" to="0" dur="1.8s" begin="18.200000000000003s" fill="freeze" /></path><text x="90" y="120" id="reset-kvg-09a13">⟳</text><text x="70" y="120" id="pause-kvg-09a13">◼</text><script type="text/javascript"><![CDATA[function RecurringTimer(e,t){var n,r,i=t;this.pause=function(){window.clearTimeout(n);i-=new Date-r};var s=function(){r=new Date;n=window.setTimeout(function(){i=t;s();e()},i)};this.clear=function(){window.clearTimeout(n);i=t;n=window.setTimeout(function(){i=t;s();e()},i)};this.resume=s;this.resume()}function invoketimer(){timer=new RecurringTimer(function(){svg.setCurrentTime(0)},20200.000000000004)}var svg=document.getElementById("kvg-09a13");var pause=document.getElementById("pause-kvg-09a13");var reset=document.getElementById("reset-kvg-09a13");var timer;invoketimer();reset.onclick=function(){svg.setCurrentTime(0);timer.clear();svg.unpauseAnimations();pause.innerHTML = "◼";};pause.onclick=function(){if(svg.animationsPaused()){svg.unpauseAnimations();timer.resume();pause.innerHTML="◼"}else{svg.pauseAnimations();timer.pause();pause.innerHTML="▶"}}]]></script></svg>