<svg id="kvg-09a12" class="kanjivg" width="106" height="126" xmlns="http://www.w3.org/2000/svg" xmlns:xlink="http://www.w3.org/1999/xlink" xml:space="preserve" version="1.1" baseProfile="full"><defs><style type="text/css"><![CDATA[path.black{fill:none;stroke:black;stroke-width:5;stroke-linecap:round;stroke-linejoin:round;}path.grey{fill:none;stroke:#ddd;stroke-width:5;stroke-linecap:round;stroke-linejoin:round;}path.stroke{fill:none;stroke:black;stroke-width:5;stroke-linecap:round;stroke-linejoin:round;}rect{fill:none;stroke:#555;stroke-width:2;} text{font-size:16px;font-family:Segoe UI Symbol,Cambria Math,DejaVu Sans,Symbola,Quivira,STIX,Code2000;-webkit-touch-callout:none;cursor:pointer;-webkit-user-select:none;-khtml-user-select:none;-moz-user-select:none;-ms-user-select:none;user-select: none;}text:hover{color:#777;}#reset{font-weight:bold;}]]></style><marker id="markerStart" markerWidth="8" markerHeight="8" style="overflow:visible;"><circle cx="0" cy="0" r="1.5" style="stroke:none;fill:red;fill-opacity:0.5;"/></marker><marker id="markerEnd" style="overflow:visible;"><circle cx="0" cy="0" r="0.8" style="stroke:none;fill:blue;fill-opacity:0.5;"><animate attributeName="opacity" from="1" to="0" dur="3s" repeatCount="indefinite" /></circle></marker></defs><rect x="4" y="4" width="100" height="100" /><path d="M16.24,19.34c0.84,0.84,1,2.44,0.99,3.66c-0.02,7.64-0.07,23.47-0.17,33.63c-0.02,2.32-0.18,3.88-0.56,5.69" class="grey" /><path d="M17.98,20.37c4.14-0.62,15.17-1.86,21.54-2.65c1.72-0.21,3.85-0.35,5.51,0.09" class="grey" /><path d="M29.31,20.79c0.76,0.76,1.2,1.96,1.2,3.22c0,6.11,0,24.86,0,35.06" class="grey" /><path d="M18.41,33.43c5.36-0.5,14.87-1.67,19.24-2.24c1.21-0.16,3.23-0.56,4.7-0.25" class="grey" /><path d="M18.51,46.59c5.19-0.48,15.2-1.94,19.98-2.65c1.4-0.21,3.51-0.57,5.2-0.35" class="grey" /><path d="M17.74,61.72c6.38-1.09,14.89-2.85,21.79-3.6c5.92-0.64,5.63,2.91,5.24,7.65c-0.8,9.82-2.68,19.9-5.01,26.52c-1.75,4.96-5.32,0.4-6.21-0.85" class="grey" /><path d="M13.9,75.77c0.39,5.59-0.8,10.51-1.21,11.62" class="grey" /><path d="M20.46,73.52c1.19,2.29,2.2,5.16,2.48,9.23" class="grey" /><path d="M27.5,72.38c0.61,0.94,2.81,4.04,3.08,7.11" class="grey" /><path d="M34.1,69.77c1.15,1.23,2.77,3.6,3.15,5.94" class="grey" /><path d="M54.94,20.02c2.06,0.45,4.09,0.39,6.2,0.02c4.59-0.81,13.56-2.81,17.23-3.57c2.73-0.57,4.57,0.64,2.82,3.64C72.5,34.97,61.73,44.94,50.15,52.82" class="grey" /><path d="M55.73,27.19c3.35,0.51,17.77,11.44,30.82,19.71c2.69,1.7,5.08,2.85,8.56,3.98" class="grey" /><path d="M54.37,60.29c0.73,0.73,1.13,1.59,1.32,2.42c0.63,2.77,1.12,5.55,1.82,10.25c0.21,1.44,0.44,2.96,0.68,4.58" class="grey" /><path d="M56.08,60.85c10.72-1.15,23.74-2.79,30.17-3.21c3.42-0.23,4.98,0.67,3.87,4.19c-0.92,2.94-1.21,4.29-2.63,9.83" class="grey" /><path d="M59.23,75.31c5.41-0.6,16.25-1.82,25.04-2.6c1.88-0.17,3.66-0.32,5.27-0.44" class="grey" /><path d="M70.42,48.75c0.98,0.98,1.28,2.4,1.28,3.41c0,6.09,0,26.34,0,37.07" class="grey" /><path d="M52.94,93.54c0.69,0.96,1.33,1.42,3,0.97c10.31-2.76,13.31-3.89,31.6-8.88" class="grey" /><path d="M83.54,79.18c3.68,2.87,9.51,11.78,10.43,16.24" class="grey" /><path d="M16.24,19.34c0.84,0.84,1,2.44,0.99,3.66c-0.02,7.64-0.07,23.47-0.17,33.63c-0.02,2.32-0.18,3.88-0.56,5.69" class="stroke" stroke-dasharray="150"><animate attributeName="stroke-dashoffset" from="150" to="0" dur="1.8s" begin="0.0s" fill="freeze" /></path><path d="M17.98,20.37c4.14-0.62,15.17-1.86,21.54-2.65c1.72-0.21,3.85-0.35,5.51,0.09" class="stroke" stroke-dasharray="150"><set attributeName="opacity" to="0" dur="1.1s" /><animate attributeName="stroke-dashoffset" from="150" to="0" dur="1.8s" begin="1.1s" fill="freeze" /></path><path d="M29.31,20.79c0.76,0.76,1.2,1.96,1.2,3.22c0,6.11,0,24.86,0,35.06" class="stroke" stroke-dasharray="150"><set attributeName="opacity" to="0" dur="2.1s" /><animate attributeName="stroke-dashoffset" from="150" to="0" dur="1.8s" begin="2.1s" fill="freeze" /></path><path d="M18.41,33.43c5.36-0.5,14.87-1.67,19.24-2.24c1.21-0.16,3.23-0.56,4.7-0.25" class="stroke" stroke-dasharray="150"><set attributeName="opacity" to="0" dur="3.1s" /><animate attributeName="stroke-dashoffset" from="150" to="0" dur="1.8s" begin="3.1s" fill="freeze" /></path><path d="M18.51,46.59c5.19-0.48,15.2-1.94,19.98-2.65c1.4-0.21,3.51-0.57,5.2-0.35" class="stroke" stroke-dasharray="150"><set attributeName="opacity" to="0" dur="4.1s" /><animate attributeName="stroke-dashoffset" from="150" to="0" dur="1.8s" begin="4.1s" fill="freeze" /></path><path d="M17.74,61.72c6.38-1.09,14.89-2.85,21.79-3.6c5.92-0.64,5.63,2.91,5.24,7.65c-0.8,9.82-2.68,19.9-5.01,26.52c-1.75,4.96-5.32,0.4-6.21-0.85" class="stroke" stroke-dasharray="150"><set attributeName="opacity" to="0" dur="5.1s" /><animate attributeName="stroke-dashoffset" from="150" to="0" dur="1.8s" begin="5.1s" fill="freeze" /></path><path d="M13.9,75.77c0.39,5.59-0.8,10.51-1.21,11.62" class="stroke" stroke-dasharray="150"><set attributeName="opacity" to="0" dur="6.6s" /><animate attributeName="stroke-dashoffset" from="150" to="0" dur="1.8s" begin="6.6s" fill="freeze" /></path><path d="M20.46,73.52c1.19,2.29,2.2,5.16,2.48,9.23" class="stroke" stroke-dasharray="150"><set attributeName="opacity" to="0" dur="7.5s" /><animate attributeName="stroke-dashoffset" from="150" to="0" dur="1.8s" begin="7.5s" fill="freeze" /></path><path d="M27.5,72.38c0.61,0.94,2.81,4.04,3.08,7.11" class="stroke" stroke-dasharray="150"><set attributeName="opacity" to="0" dur="8.4s" /><animate attributeName="stroke-dashoffset" from="150" to="0" dur="1.8s" begin="8.4s" fill="freeze" /></path><path d="M34.1,69.77c1.15,1.23,2.77,3.6,3.15,5.94" class="stroke" stroke-dasharray="150"><set attributeName="opacity" to="0" dur="9.3s" /><animate attributeName="stroke-dashoffset" from="150" to="0" dur="1.8s" begin="9.3s" fill="freeze" /></path><path d="M54.94,20.02c2.06,0.45,4.09,0.39,6.2,0.02c4.59-0.81,13.56-2.81,17.23-3.57c2.73-0.57,4.57,0.64,2.82,3.64C72.5,34.97,61.73,44.94,50.15,52.82" class="stroke" stroke-dasharray="150"><set attributeName="opacity" to="0" dur="10.200000000000001s" /><animate attributeName="stroke-dashoffset" from="150" to="0" dur="1.8s" begin="10.200000000000001s" fill="freeze" /></path><path d="M55.73,27.19c3.35,0.51,17.77,11.44,30.82,19.71c2.69,1.7,5.08,2.85,8.56,3.98" class="stroke" stroke-dasharray="150"><set attributeName="opacity" to="0" dur="11.9s" /><animate attributeName="stroke-dashoffset" from="150" to="0" dur="1.8s" begin="11.9s" fill="freeze" /></path><path d="M54.37,60.29c0.73,0.73,1.13,1.59,1.32,2.42c0.63,2.77,1.12,5.55,1.82,10.25c0.21,1.44,0.44,2.96,0.68,4.58" class="stroke" stroke-dasharray="150"><set attributeName="opacity" to="0" dur="13.1s" /><animate attributeName="stroke-dashoffset" from="150" to="0" dur="1.8s" begin="13.1s" fill="freeze" /></path><path d="M56.08,60.85c10.72-1.15,23.74-2.79,30.17-3.21c3.42-0.23,4.98,0.67,3.87,4.19c-0.92,2.94-1.21,4.29-2.63,9.83" class="stroke" stroke-dasharray="150"><set attributeName="opacity" to="0" dur="14.0s" /><animate attributeName="stroke-dashoffset" from="150" to="0" dur="1.8s" begin="14.0s" fill="freeze" /></path><path d="M59.23,75.31c5.41-0.6,16.25-1.82,25.04-2.6c1.88-0.17,3.66-0.32,5.27-0.44" class="stroke" stroke-dasharray="150"><set attributeName="opacity" to="0" dur="15.2s" /><animate attributeName="stroke-dashoffset" from="150" to="0" dur="1.8s" begin="15.2s" fill="freeze" /></path><path d="M70.42,48.75c0.98,0.98,1.28,2.4,1.28,3.41c0,6.09,0,26.34,0,37.07" class="stroke" stroke-dasharray="150"><set attributeName="opacity" to="0" dur="16.2s" /><animate attributeName="stroke-dashoffset" from="150" to="0" dur="1.8s" begin="16.2s" fill="freeze" /></path><path d="M52.94,93.54c0.69,0.96,1.33,1.42,3,0.97c10.31-2.76,13.31-3.89,31.6-8.88" class="stroke" stroke-dasharray="150"><set attributeName="opacity" to="0" dur="17.3s" /><animate attributeName="stroke-dashoffset" from="150" to="0" dur="1.8s" begin="17.3s" fill="freeze" /></path><path d="M83.54,79.18c3.68,2.87,9.51,11.78,10.43,16.24" class="stroke" stroke-dasharray="150"><set attributeName="opacity" to="0" dur="18.3s" /><animate attributeName="stroke-dashoffset" from="150" to="0" dur="1.8s" begin="18.3s" fill="freeze" /></path><text x="90" y="120" id="reset-kvg-09a12">⟳</text><text x="70" y="120" id="pause-kvg-09a12">◼</text><script type="text/javascript"><![CDATA[function RecurringTimer(e,t){var n,r,i=t;this.pause=function(){window.clearTimeout(n);i-=new Date-r};var s=function(){r=new Date;n=window.setTimeout(function(){i=t;s();e()},i)};this.clear=function(){window.clearTimeout(n);i=t;n=window.setTimeout(function(){i=t;s();e()},i)};this.resume=s;this.resume()}function invoketimer(){timer=new RecurringTimer(function(){svg.setCurrentTime(0)},20200.0)}var svg=document.getElementById("kvg-09a12");var pause=document.getElementById("pause-kvg-09a12");var reset=document.getElementById("reset-kvg-09a12");var timer;invoketimer();reset.onclick=function(){svg.setCurrentTime(0);timer.clear();svg.unpauseAnimations();pause.innerHTML = "◼";};pause.onclick=function(){if(svg.animationsPaused()){svg.unpauseAnimations();timer.resume();pause.innerHTML="◼"}else{svg.pauseAnimations();timer.pause();pause.innerHTML="▶"}}]]></script></svg>