<svg id="kvg-09a30" class="kanjivg" width="106" height="126" xmlns="http://www.w3.org/2000/svg" xmlns:xlink="http://www.w3.org/1999/xlink" xml:space="preserve" version="1.1" baseProfile="full"><defs><style type="text/css"><![CDATA[path.black{fill:none;stroke:black;stroke-width:5;stroke-linecap:round;stroke-linejoin:round;}path.grey{fill:none;stroke:#ddd;stroke-width:5;stroke-linecap:round;stroke-linejoin:round;}path.stroke{fill:none;stroke:black;stroke-width:5;stroke-linecap:round;stroke-linejoin:round;}rect{fill:none;stroke:#555;stroke-width:2;} text{font-size:16px;font-family:Segoe UI Symbol,Cambria Math,DejaVu Sans,Symbola,Quivira,STIX,Code2000;-webkit-touch-callout:none;cursor:pointer;-webkit-user-select:none;-khtml-user-select:none;-moz-user-select:none;-ms-user-select:none;user-select: none;}text:hover{color:#777;}#reset{font-weight:bold;}]]></style><marker id="markerStart" markerWidth="8" markerHeight="8" style="overflow:visible;"><circle cx="0" cy="0" r="1.5" style="stroke:none;fill:red;fill-opacity:0.5;"/></marker><marker id="markerEnd" style="overflow:visible;"><circle cx="0" cy="0" r="0.8" style="stroke:none;fill:blue;fill-opacity:0.5;"><animate attributeName="opacity" from="1" to="0" dur="3s" repeatCount="indefinite" /></circle></marker></defs><rect x="4" y="4" width="100" height="100" /><path d="M18.88,20.49c1,1,1.2,2.01,1.2,3.55c0,34.96-1.57,54.71-8.33,67.35" class="grey" /><path d="M21.02,21.31c2.85-0.69,9.96-2.39,12.11-2.71c1.49-0.22,3.16,0.9,3.16,3.17c0,3.23,0.03,59.24,0.03,64.3c0,12.61-5.07,4.05-6.69,2.54" class="grey" /><path d="M21.02,40.7c4.73-0.58,9.35-1.33,14.39-1.82" class="grey" /><path d="M20.22,59.65c4.28-0.52,10.24-1.28,14.88-1.7" class="grey" /><path d="M49.02,19.09c2.04,1.5,5.26,6.18,5.77,8.52" class="grey" /><path d="M82.53,15.64c0.06,0.61-0.03,1.18-0.27,1.74c-1.02,2.37-3.29,5.41-6.55,8.84" class="grey" /><path d="M47.78,33.6c2.22,0.4,3.96,0.19,5.72,0.01c6.85-0.68,19.77-2.38,27.01-3.2c1.75-0.2,3.54-0.17,5.27,0.22" class="grey" /><path d="M43,44.39c2.28,0.76,4.79,0.48,7.14,0.19c10.01-1.24,26.57-3.34,37.74-4.11c2.17-0.15,4.22-0.19,6.37,0.23" class="grey" /><path d="M67.3,14.25c0.32,1.12,0.18,2.53-0.13,3.84C63.25,34.75,55.5,50,42.25,62.29" class="grey" /><path d="M69,33.25c2.93,2.93,12.8,13.66,18.83,19.65c2.13,2.12,4.04,3.72,6.92,5.6" class="grey" /><path d="M54.69,52c0.72,0.72,0.78,1.63,0.78,2.69c0,2.98-0.06,13.06-0.06,20.31c0,1.45-0.04,2.73-0.06,3.71" class="grey" /><path d="M56.21,53.27c5.46-0.62,15.21-1.79,19.3-2.33c1.31-0.17,3.01-0.66,4.33-0.37" class="grey" /><path d="M67.62,52.62c0.62,0.62,1.03,1.5,1.03,2.39c0,3.61-0.03,13.99-0.03,19.99" class="grey" /><path d="M56.68,61.53c5.45-0.62,14.29-1.94,18.2-2.53c1.3-0.19,3.01-0.67,4.32-0.39" class="grey" /><path d="M56.57,69.39c5.57-0.63,15.7-1.6,19.67-2.08c1.26-0.15,2.83-0.6,4.1-0.33" class="grey" /><path d="M56.35,77.96c7.87-1.29,25.15-3.71,30.88-3.95c2.85-0.12,4.23,1.68,3.78,3.8c-1.39,6.57-3.59,12.21-5.78,16.01c-3.05,5.3-5.1,2.43-6.65,0.47" class="grey" /><path d="M48.62,85.21c0.29,4.05-0.21,8.95-1.05,11.49" class="grey" /><path d="M57.74,83.87c1.95,1.53,3.79,5.75,4.28,8.13" class="grey" /><path d="M67.64,82.36c1.49,1.12,3.84,4.59,4.21,6.33" class="grey" /><path d="M76.58,80.09c1.78,1.07,4.6,4.41,5.04,6.08" class="grey" /><path d="M18.88,20.49c1,1,1.2,2.01,1.2,3.55c0,34.96-1.57,54.71-8.33,67.35" class="stroke" stroke-dasharray="150"><animate attributeName="stroke-dashoffset" from="150" to="0" dur="1.8s" begin="0.0s" fill="freeze" /></path><path d="M21.02,21.31c2.85-0.69,9.96-2.39,12.11-2.71c1.49-0.22,3.16,0.9,3.16,3.17c0,3.23,0.03,59.24,0.03,64.3c0,12.61-5.07,4.05-6.69,2.54" class="stroke" stroke-dasharray="150"><set attributeName="opacity" to="0" dur="1.7s" /><animate attributeName="stroke-dashoffset" from="150" to="0" dur="1.8s" begin="1.7s" fill="freeze" /></path><path d="M21.02,40.7c4.73-0.58,9.35-1.33,14.39-1.82" class="stroke" stroke-dasharray="150"><set attributeName="opacity" to="0" dur="3.5s" /><animate attributeName="stroke-dashoffset" from="150" to="0" dur="1.8s" begin="3.5s" fill="freeze" /></path><path d="M20.22,59.65c4.28-0.52,10.24-1.28,14.88-1.7" class="stroke" stroke-dasharray="150"><set attributeName="opacity" to="0" dur="4.4s" /><animate attributeName="stroke-dashoffset" from="150" to="0" dur="1.8s" begin="4.4s" fill="freeze" /></path><path d="M49.02,19.09c2.04,1.5,5.26,6.18,5.77,8.52" class="stroke" stroke-dasharray="150"><set attributeName="opacity" to="0" dur="5.300000000000001s" /><animate attributeName="stroke-dashoffset" from="150" to="0" dur="1.8s" begin="5.300000000000001s" fill="freeze" /></path><path d="M82.53,15.64c0.06,0.61-0.03,1.18-0.27,1.74c-1.02,2.37-3.29,5.41-6.55,8.84" class="stroke" stroke-dasharray="150"><set attributeName="opacity" to="0" dur="6.200000000000001s" /><animate attributeName="stroke-dashoffset" from="150" to="0" dur="1.8s" begin="6.200000000000001s" fill="freeze" /></path><path d="M47.78,33.6c2.22,0.4,3.96,0.19,5.72,0.01c6.85-0.68,19.77-2.38,27.01-3.2c1.75-0.2,3.54-0.17,5.27,0.22" class="stroke" stroke-dasharray="150"><set attributeName="opacity" to="0" dur="7.100000000000001s" /><animate attributeName="stroke-dashoffset" from="150" to="0" dur="1.8s" begin="7.100000000000001s" fill="freeze" /></path><path d="M43,44.39c2.28,0.76,4.79,0.48,7.14,0.19c10.01-1.24,26.57-3.34,37.74-4.11c2.17-0.15,4.22-0.19,6.37,0.23" class="stroke" stroke-dasharray="150"><set attributeName="opacity" to="0" dur="8.100000000000001s" /><animate attributeName="stroke-dashoffset" from="150" to="0" dur="1.8s" begin="8.100000000000001s" fill="freeze" /></path><path d="M67.3,14.25c0.32,1.12,0.18,2.53-0.13,3.84C63.25,34.75,55.5,50,42.25,62.29" class="stroke" stroke-dasharray="150"><set attributeName="opacity" to="0" dur="9.400000000000002s" /><animate attributeName="stroke-dashoffset" from="150" to="0" dur="1.8s" begin="9.400000000000002s" fill="freeze" /></path><path d="M69,33.25c2.93,2.93,12.8,13.66,18.83,19.65c2.13,2.12,4.04,3.72,6.92,5.6" class="stroke" stroke-dasharray="150"><set attributeName="opacity" to="0" dur="10.800000000000002s" /><animate attributeName="stroke-dashoffset" from="150" to="0" dur="1.8s" begin="10.800000000000002s" fill="freeze" /></path><path d="M54.69,52c0.72,0.72,0.78,1.63,0.78,2.69c0,2.98-0.06,13.06-0.06,20.31c0,1.45-0.04,2.73-0.06,3.71" class="stroke" stroke-dasharray="150"><set attributeName="opacity" to="0" dur="11.800000000000002s" /><animate attributeName="stroke-dashoffset" from="150" to="0" dur="1.8s" begin="11.800000000000002s" fill="freeze" /></path><path d="M56.21,53.27c5.46-0.62,15.21-1.79,19.3-2.33c1.31-0.17,3.01-0.66,4.33-0.37" class="stroke" stroke-dasharray="150"><set attributeName="opacity" to="0" dur="12.800000000000002s" /><animate attributeName="stroke-dashoffset" from="150" to="0" dur="1.8s" begin="12.800000000000002s" fill="freeze" /></path><path d="M67.62,52.62c0.62,0.62,1.03,1.5,1.03,2.39c0,3.61-0.03,13.99-0.03,19.99" class="stroke" stroke-dasharray="150"><set attributeName="opacity" to="0" dur="13.800000000000002s" /><animate attributeName="stroke-dashoffset" from="150" to="0" dur="1.8s" begin="13.800000000000002s" fill="freeze" /></path><path d="M56.68,61.53c5.45-0.62,14.29-1.94,18.2-2.53c1.3-0.19,3.01-0.67,4.32-0.39" class="stroke" stroke-dasharray="150"><set attributeName="opacity" to="0" dur="14.800000000000002s" /><animate attributeName="stroke-dashoffset" from="150" to="0" dur="1.8s" begin="14.800000000000002s" fill="freeze" /></path><path d="M56.57,69.39c5.57-0.63,15.7-1.6,19.67-2.08c1.26-0.15,2.83-0.6,4.1-0.33" class="stroke" stroke-dasharray="150"><set attributeName="opacity" to="0" dur="15.800000000000002s" /><animate attributeName="stroke-dashoffset" from="150" to="0" dur="1.8s" begin="15.800000000000002s" fill="freeze" /></path><path d="M56.35,77.96c7.87-1.29,25.15-3.71,30.88-3.95c2.85-0.12,4.23,1.68,3.78,3.8c-1.39,6.57-3.59,12.21-5.78,16.01c-3.05,5.3-5.1,2.43-6.65,0.47" class="stroke" stroke-dasharray="150"><set attributeName="opacity" to="0" dur="16.800000000000004s" /><animate attributeName="stroke-dashoffset" from="150" to="0" dur="1.8s" begin="16.800000000000004s" fill="freeze" /></path><path d="M48.62,85.21c0.29,4.05-0.21,8.95-1.05,11.49" class="stroke" stroke-dasharray="150"><set attributeName="opacity" to="0" dur="18.300000000000004s" /><animate attributeName="stroke-dashoffset" from="150" to="0" dur="1.8s" begin="18.300000000000004s" fill="freeze" /></path><path d="M57.74,83.87c1.95,1.53,3.79,5.75,4.28,8.13" class="stroke" stroke-dasharray="150"><set attributeName="opacity" to="0" dur="19.200000000000003s" /><animate attributeName="stroke-dashoffset" from="150" to="0" dur="1.8s" begin="19.200000000000003s" fill="freeze" /></path><path d="M67.64,82.36c1.49,1.12,3.84,4.59,4.21,6.33" class="stroke" stroke-dasharray="150"><set attributeName="opacity" to="0" dur="20.1s" /><animate attributeName="stroke-dashoffset" from="150" to="0" dur="1.8s" begin="20.1s" fill="freeze" /></path><path d="M76.58,80.09c1.78,1.07,4.6,4.41,5.04,6.08" class="stroke" stroke-dasharray="150"><set attributeName="opacity" to="0" dur="21.0s" /><animate attributeName="stroke-dashoffset" from="150" to="0" dur="1.8s" begin="21.0s" fill="freeze" /></path><text x="90" y="120" id="reset-kvg-09a30">⟳</text><text x="70" y="120" id="pause-kvg-09a30">◼</text><script type="text/javascript"><![CDATA[function RecurringTimer(e,t){var n,r,i=t;this.pause=function(){window.clearTimeout(n);i-=new Date-r};var s=function(){r=new Date;n=window.setTimeout(function(){i=t;s();e()},i)};this.clear=function(){window.clearTimeout(n);i=t;n=window.setTimeout(function(){i=t;s();e()},i)};this.resume=s;this.resume()}function invoketimer(){timer=new RecurringTimer(function(){svg.setCurrentTime(0)},22900.0)}var svg=document.getElementById("kvg-09a30");var pause=document.getElementById("pause-kvg-09a30");var reset=document.getElementById("reset-kvg-09a30");var timer;invoketimer();reset.onclick=function(){svg.setCurrentTime(0);timer.clear();svg.unpauseAnimations();pause.innerHTML = "◼";};pause.onclick=function(){if(svg.animationsPaused()){svg.unpauseAnimations();timer.resume();pause.innerHTML="◼"}else{svg.pauseAnimations();timer.pause();pause.innerHTML="▶"}}]]></script></svg>