<svg id="kvg-09bab" class="kanjivg" width="106" height="126" xmlns="http://www.w3.org/2000/svg" xmlns:xlink="http://www.w3.org/1999/xlink" xml:space="preserve" version="1.1" baseProfile="full"><defs><style type="text/css"><![CDATA[path.black{fill:none;stroke:black;stroke-width:5;stroke-linecap:round;stroke-linejoin:round;}path.grey{fill:none;stroke:#ddd;stroke-width:5;stroke-linecap:round;stroke-linejoin:round;}path.stroke{fill:none;stroke:black;stroke-width:5;stroke-linecap:round;stroke-linejoin:round;}rect{fill:none;stroke:#555;stroke-width:2;} text{font-size:16px;font-family:Segoe UI Symbol,Cambria Math,DejaVu Sans,Symbola,Quivira,STIX,Code2000;-webkit-touch-callout:none;cursor:pointer;-webkit-user-select:none;-khtml-user-select:none;-moz-user-select:none;-ms-user-select:none;user-select: none;}text:hover{color:#777;}#reset{font-weight:bold;}]]></style><marker id="markerStart" markerWidth="8" markerHeight="8" style="overflow:visible;"><circle cx="0" cy="0" r="1.5" style="stroke:none;fill:red;fill-opacity:0.5;"/></marker><marker id="markerEnd" style="overflow:visible;"><circle cx="0" cy="0" r="0.8" style="stroke:none;fill:blue;fill-opacity:0.5;"><animate attributeName="opacity" from="1" to="0" dur="3s" repeatCount="indefinite" /></circle></marker></defs><rect x="4" y="4" width="100" height="100" /><path d="M29.49,15.75c0,0.75-0.22,1.65-0.6,2.32c-3.51,6.18-7.39,11.68-17.4,20.05" class="grey" /><path d="M27.89,24.88c0.57,0,1.78-0.17,3.26-0.41c3.56-0.59,8.66-1.61,10.09-1.82c1.74-0.25,2.24,1.73,1.41,2.9c-2.89,4.07-5.02,7.2-10.27,13.7" class="grey" /><path d="M15.47,41.89c0.76,0.76,1.03,1.74,1.11,2.85c0.24,3.44,1.08,10.69,1.78,17.77c0.28,2.84,0.53,5.66,0.72,8.18" class="grey" /><path d="M17.03,43.02c7.43-1.12,18.72-2.4,25.99-3.26c2.71-0.32,4.46,1.12,4.2,3.74c-0.38,3.88-1.2,9.61-2.14,15.78c-0.4,2.6-0.81,5.28-1.23,7.93" class="grey" /><path d="M30.06,43.23c0.98,0.98,1.11,2.4,1.11,3.79c0,6.73,0.03,14.02,0.03,17.35" class="grey" /><path d="M18.51,55.23C26.5,54.12,35.25,53,44.9,52.42" class="grey" /><path d="M19.73,67.15c7.89-1.15,15.14-1.78,23.74-2.45" class="grey" /><path d="M15.08,81.32c0,4.95-2.2,11.68-3.6,13.68" class="grey" /><path d="M22.95,78.33c0.91,2.36,1.77,8.87,1.99,12.54" class="grey" /><path d="M31.88,76.44c1.17,2.07,3.53,8.5,3.82,11.71" class="grey" /><path d="M42.8,74.87c1.66,1.9,4.03,7.57,4.45,10.53" class="grey" /><path d="M69.62,12.5c1.12,1.12,1.23,2.5,1.23,3.76c0,4.32-0.1,8.45-0.1,11.61" class="grey" /><path d="M51.5,30.51c3,0.69,5.91,0.17,8.98-0.1c9.02-0.79,20.22-2.31,27.64-2.96c2.68-0.42,5.36-0.39,8.04,0.09" class="grey" /><path d="M65.45,36.84c-0.09,1.11-0.51,2.1-1.12,3.03c-3.2,4.88-6.96,9.71-11.57,13.83" class="grey" /><path d="M80.02,34.98c6.29,4.17,10.49,8.48,13.63,13.54" class="grey" /><path d="M82.89,47.91c0,1.22-0.06,2.27-0.62,4.15C77.14,69.21,66.62,83.12,52,93.9" class="grey" /><path d="M58.84,54.77c2.24,0.22,15.66,18.73,26.78,30.49c3.25,3.43,6.48,6.67,10.63,8.88" class="grey" /><path d="M29.49,15.75c0,0.75-0.22,1.65-0.6,2.32c-3.51,6.18-7.39,11.68-17.4,20.05" class="stroke" stroke-dasharray="150"><animate attributeName="stroke-dashoffset" from="150" to="0" dur="1.8s" begin="0.0s" fill="freeze" /></path><path d="M27.89,24.88c0.57,0,1.78-0.17,3.26-0.41c3.56-0.59,8.66-1.61,10.09-1.82c1.74-0.25,2.24,1.73,1.41,2.9c-2.89,4.07-5.02,7.2-10.27,13.7" class="stroke" stroke-dasharray="150"><set attributeName="opacity" to="0" dur="1.0s" /><animate attributeName="stroke-dashoffset" from="150" to="0" dur="1.8s" begin="1.0s" fill="freeze" /></path><path d="M15.47,41.89c0.76,0.76,1.03,1.74,1.11,2.85c0.24,3.44,1.08,10.69,1.78,17.77c0.28,2.84,0.53,5.66,0.72,8.18" class="stroke" stroke-dasharray="150"><set attributeName="opacity" to="0" dur="2.0s" /><animate attributeName="stroke-dashoffset" from="150" to="0" dur="1.8s" begin="2.0s" fill="freeze" /></path><path d="M17.03,43.02c7.43-1.12,18.72-2.4,25.99-3.26c2.71-0.32,4.46,1.12,4.2,3.74c-0.38,3.88-1.2,9.61-2.14,15.78c-0.4,2.6-0.81,5.28-1.23,7.93" class="stroke" stroke-dasharray="150"><set attributeName="opacity" to="0" dur="3.0s" /><animate attributeName="stroke-dashoffset" from="150" to="0" dur="1.8s" begin="3.0s" fill="freeze" /></path><path d="M30.06,43.23c0.98,0.98,1.11,2.4,1.11,3.79c0,6.73,0.03,14.02,0.03,17.35" class="stroke" stroke-dasharray="150"><set attributeName="opacity" to="0" dur="4.4s" /><animate attributeName="stroke-dashoffset" from="150" to="0" dur="1.8s" begin="4.4s" fill="freeze" /></path><path d="M18.51,55.23C26.5,54.12,35.25,53,44.9,52.42" class="stroke" stroke-dasharray="150"><set attributeName="opacity" to="0" dur="5.4s" /><animate attributeName="stroke-dashoffset" from="150" to="0" dur="1.8s" begin="5.4s" fill="freeze" /></path><path d="M19.73,67.15c7.89-1.15,15.14-1.78,23.74-2.45" class="stroke" stroke-dasharray="150"><set attributeName="opacity" to="0" dur="6.4s" /><animate attributeName="stroke-dashoffset" from="150" to="0" dur="1.8s" begin="6.4s" fill="freeze" /></path><path d="M15.08,81.32c0,4.95-2.2,11.68-3.6,13.68" class="stroke" stroke-dasharray="150"><set attributeName="opacity" to="0" dur="7.4s" /><animate attributeName="stroke-dashoffset" from="150" to="0" dur="1.8s" begin="7.4s" fill="freeze" /></path><path d="M22.95,78.33c0.91,2.36,1.77,8.87,1.99,12.54" class="stroke" stroke-dasharray="150"><set attributeName="opacity" to="0" dur="8.3s" /><animate attributeName="stroke-dashoffset" from="150" to="0" dur="1.8s" begin="8.3s" fill="freeze" /></path><path d="M31.88,76.44c1.17,2.07,3.53,8.5,3.82,11.71" class="stroke" stroke-dasharray="150"><set attributeName="opacity" to="0" dur="9.200000000000001s" /><animate attributeName="stroke-dashoffset" from="150" to="0" dur="1.8s" begin="9.200000000000001s" fill="freeze" /></path><path d="M42.8,74.87c1.66,1.9,4.03,7.57,4.45,10.53" class="stroke" stroke-dasharray="150"><set attributeName="opacity" to="0" dur="10.100000000000001s" /><animate attributeName="stroke-dashoffset" from="150" to="0" dur="1.8s" begin="10.100000000000001s" fill="freeze" /></path><path d="M69.62,12.5c1.12,1.12,1.23,2.5,1.23,3.76c0,4.32-0.1,8.45-0.1,11.61" class="stroke" stroke-dasharray="150"><set attributeName="opacity" to="0" dur="11.000000000000002s" /><animate attributeName="stroke-dashoffset" from="150" to="0" dur="1.8s" begin="11.000000000000002s" fill="freeze" /></path><path d="M51.5,30.51c3,0.69,5.91,0.17,8.98-0.1c9.02-0.79,20.22-2.31,27.64-2.96c2.68-0.42,5.36-0.39,8.04,0.09" class="stroke" stroke-dasharray="150"><set attributeName="opacity" to="0" dur="11.900000000000002s" /><animate attributeName="stroke-dashoffset" from="150" to="0" dur="1.8s" begin="11.900000000000002s" fill="freeze" /></path><path d="M65.45,36.84c-0.09,1.11-0.51,2.1-1.12,3.03c-3.2,4.88-6.96,9.71-11.57,13.83" class="stroke" stroke-dasharray="150"><set attributeName="opacity" to="0" dur="13.000000000000002s" /><animate attributeName="stroke-dashoffset" from="150" to="0" dur="1.8s" begin="13.000000000000002s" fill="freeze" /></path><path d="M80.02,34.98c6.29,4.17,10.49,8.48,13.63,13.54" class="stroke" stroke-dasharray="150"><set attributeName="opacity" to="0" dur="14.000000000000002s" /><animate attributeName="stroke-dashoffset" from="150" to="0" dur="1.8s" begin="14.000000000000002s" fill="freeze" /></path><path d="M82.89,47.91c0,1.22-0.06,2.27-0.62,4.15C77.14,69.21,66.62,83.12,52,93.9" class="stroke" stroke-dasharray="150"><set attributeName="opacity" to="0" dur="14.900000000000002s" /><animate attributeName="stroke-dashoffset" from="150" to="0" dur="1.8s" begin="14.900000000000002s" fill="freeze" /></path><path d="M58.84,54.77c2.24,0.22,15.66,18.73,26.78,30.49c3.25,3.43,6.48,6.67,10.63,8.88" class="stroke" stroke-dasharray="150"><set attributeName="opacity" to="0" dur="16.3s" /><animate attributeName="stroke-dashoffset" from="150" to="0" dur="1.8s" begin="16.3s" fill="freeze" /></path><text x="90" y="120" id="reset-kvg-09bab">⟳</text><text x="70" y="120" id="pause-kvg-09bab">◼</text><script type="text/javascript"><![CDATA[function RecurringTimer(e,t){var n,r,i=t;this.pause=function(){window.clearTimeout(n);i-=new Date-r};var s=function(){r=new Date;n=window.setTimeout(function(){i=t;s();e()},i)};this.clear=function(){window.clearTimeout(n);i=t;n=window.setTimeout(function(){i=t;s();e()},i)};this.resume=s;this.resume()}function invoketimer(){timer=new RecurringTimer(function(){svg.setCurrentTime(0)},18600.0)}var svg=document.getElementById("kvg-09bab");var pause=document.getElementById("pause-kvg-09bab");var reset=document.getElementById("reset-kvg-09bab");var timer;invoketimer();reset.onclick=function(){svg.setCurrentTime(0);timer.clear();svg.unpauseAnimations();pause.innerHTML = "◼";};pause.onclick=function(){if(svg.animationsPaused()){svg.unpauseAnimations();timer.resume();pause.innerHTML="◼"}else{svg.pauseAnimations();timer.pause();pause.innerHTML="▶"}}]]></script></svg>