<svg id="kvg-09bd4-Kaisho" class="kanjivg" width="106" height="126" xmlns="http://www.w3.org/2000/svg" xmlns:xlink="http://www.w3.org/1999/xlink" xml:space="preserve" version="1.1" baseProfile="full"><defs><style type="text/css"><![CDATA[path.black{fill:none;stroke:black;stroke-width:5;stroke-linecap:round;stroke-linejoin:round;}path.grey{fill:none;stroke:#ddd;stroke-width:5;stroke-linecap:round;stroke-linejoin:round;}path.stroke{fill:none;stroke:black;stroke-width:5;stroke-linecap:round;stroke-linejoin:round;}rect{fill:none;stroke:#555;stroke-width:2;} text{font-size:16px;font-family:Segoe UI Symbol,Cambria Math,DejaVu Sans,Symbola,Quivira,STIX,Code2000;-webkit-touch-callout:none;cursor:pointer;-webkit-user-select:none;-khtml-user-select:none;-moz-user-select:none;-ms-user-select:none;user-select: none;}text:hover{color:#777;}#reset{font-weight:bold;}]]></style><marker id="markerStart" markerWidth="8" markerHeight="8" style="overflow:visible;"><circle cx="0" cy="0" r="1.5" style="stroke:none;fill:red;fill-opacity:0.5;"/></marker><marker id="markerEnd" style="overflow:visible;"><circle cx="0" cy="0" r="0.8" style="stroke:none;fill:blue;fill-opacity:0.5;"><animate attributeName="opacity" from="1" to="0" dur="3s" repeatCount="indefinite" /></circle></marker></defs><rect x="4" y="4" width="100" height="100" /><path d="M26.49,11.75c0.04,0.57,0.19,1.51-0.08,2.31C24.75,19,20,27.25,11.99,36.12" class="grey" /><path d="M23.89,20.38c1.93,0,15.32-2.44,17.35-2.73c1.74-0.25,2.63,1.17,1.91,2.4c-3.05,5.19-6.98,11.16-11.95,19.4" class="grey" /><path d="M15.22,40.89c0.23,0.46,0.73,1.77,0.86,2.35c1.02,4.72,2.61,17.64,3.25,26.45" class="grey" /><path d="M16.28,43.02c7.92-1.19,22.01-2.21,27.92-3.21c2.17-0.37,3.29,0.93,3.17,2.23c-0.41,4.76-0.79,16.26-2.53,25.17" class="grey" /><path d="M30.56,42.73c0.9,0.59,1.58,2.51,1.61,4.04c0.12,6.73,0.03,16.27,0.03,19.6" class="grey" /><path d="M18.76,54.73c6.07-1.08,12.34-1.47,18.47-2.13c0.74-0.08,1.46-0.16,2.15-0.23" class="grey" /><path d="M19.73,67.9c5.71-0.51,17.61-1.62,25.49-2.45" class="grey" /><path d="M15.89,80.32c0,5.14-2.36,12.71-2.98,14.18" class="grey" /><path d="M23.26,78.33c1.42,2.74,2.76,10.28,3.11,14.54" class="grey" /><path d="M32.84,76.94c1.9,2.33,4.92,9.59,5.4,13.21" class="grey" /><path d="M43.55,75.87c2.28,2.25,5.88,9.27,6.45,12.78" class="grey" /><path d="M62.2,12.6c0.13,1.12,0.01,1.93-0.31,2.84c-2.14,6.1-3.89,10.3-8.75,17.9c-0.74,1.15-0.35,0.82,0,1.18c3.86,3.97,7.52,8.46,10.58,16.58" class="grey" /><path d="M76.97,12.97c0.42,1.2-0.03,2.86-0.38,3.66c-1.85,4.17-4.62,8.88-9.84,15.04c-0.5,0.6-0.24,0.82,0.23,1.17c5.52,4.06,8.54,9.91,11.07,16.97" class="grey" /><path d="M92.28,13.03c0.35,0.84,0.31,1.76,0.16,2.6c-0.87,4.6-3.62,8.42-9.33,15.48c-0.49,0.61-0.16,0.73,0.23,1.17C89,38.75,91.62,43.73,93.93,50" class="grey" /><path d="M55.38,61.61c0.3,0.57,0.31,0.95,0.47,1.65c1.34,5.76,2.97,21.82,3.75,32.42" class="grey" /><path d="M56.15,64.04c8.64-1.2,26.29-3.03,32.98-3.56c2.46-0.19,3.7,1.37,3.57,2.83c-0.49,5.32-1.21,20.76-3.28,30.02" class="grey" /><path d="M72.52,64.17c0.23,0.73,0.69,1.14,0.68,2.1c-0.03,6.28,0.16,22.68,0.16,24.96" class="grey" /><path d="M58.03,77.41c2.92-0.26,29.59-2.82,32-2.82" class="grey" /><path d="M59.4,92.3c6.44,0,21.65-1.28,30.55-1.42" class="grey" /><path d="M26.49,11.75c0.04,0.57,0.19,1.51-0.08,2.31C24.75,19,20,27.25,11.99,36.12" class="stroke" stroke-dasharray="150"><animate attributeName="stroke-dashoffset" from="150" to="0" dur="1.8s" begin="0.0s" fill="freeze" /></path><path d="M23.89,20.38c1.93,0,15.32-2.44,17.35-2.73c1.74-0.25,2.63,1.17,1.91,2.4c-3.05,5.19-6.98,11.16-11.95,19.4" class="stroke" stroke-dasharray="150"><set attributeName="opacity" to="0" dur="1.0s" /><animate attributeName="stroke-dashoffset" from="150" to="0" dur="1.8s" begin="1.0s" fill="freeze" /></path><path d="M15.22,40.89c0.23,0.46,0.73,1.77,0.86,2.35c1.02,4.72,2.61,17.64,3.25,26.45" class="stroke" stroke-dasharray="150"><set attributeName="opacity" to="0" dur="2.1s" /><animate attributeName="stroke-dashoffset" from="150" to="0" dur="1.8s" begin="2.1s" fill="freeze" /></path><path d="M16.28,43.02c7.92-1.19,22.01-2.21,27.92-3.21c2.17-0.37,3.29,0.93,3.17,2.23c-0.41,4.76-0.79,16.26-2.53,25.17" class="stroke" stroke-dasharray="150"><set attributeName="opacity" to="0" dur="3.1s" /><animate attributeName="stroke-dashoffset" from="150" to="0" dur="1.8s" begin="3.1s" fill="freeze" /></path><path d="M30.56,42.73c0.9,0.59,1.58,2.51,1.61,4.04c0.12,6.73,0.03,16.27,0.03,19.6" class="stroke" stroke-dasharray="150"><set attributeName="opacity" to="0" dur="4.5s" /><animate attributeName="stroke-dashoffset" from="150" to="0" dur="1.8s" begin="4.5s" fill="freeze" /></path><path d="M18.76,54.73c6.07-1.08,12.34-1.47,18.47-2.13c0.74-0.08,1.46-0.16,2.15-0.23" class="stroke" stroke-dasharray="150"><set attributeName="opacity" to="0" dur="5.5s" /><animate attributeName="stroke-dashoffset" from="150" to="0" dur="1.8s" begin="5.5s" fill="freeze" /></path><path d="M19.73,67.9c5.71-0.51,17.61-1.62,25.49-2.45" class="stroke" stroke-dasharray="150"><set attributeName="opacity" to="0" dur="6.5s" /><animate attributeName="stroke-dashoffset" from="150" to="0" dur="1.8s" begin="6.5s" fill="freeze" /></path><path d="M15.89,80.32c0,5.14-2.36,12.71-2.98,14.18" class="stroke" stroke-dasharray="150"><set attributeName="opacity" to="0" dur="7.5s" /><animate attributeName="stroke-dashoffset" from="150" to="0" dur="1.8s" begin="7.5s" fill="freeze" /></path><path d="M23.26,78.33c1.42,2.74,2.76,10.28,3.11,14.54" class="stroke" stroke-dasharray="150"><set attributeName="opacity" to="0" dur="8.4s" /><animate attributeName="stroke-dashoffset" from="150" to="0" dur="1.8s" begin="8.4s" fill="freeze" /></path><path d="M32.84,76.94c1.9,2.33,4.92,9.59,5.4,13.21" class="stroke" stroke-dasharray="150"><set attributeName="opacity" to="0" dur="9.3s" /><animate attributeName="stroke-dashoffset" from="150" to="0" dur="1.8s" begin="9.3s" fill="freeze" /></path><path d="M43.55,75.87c2.28,2.25,5.88,9.27,6.45,12.78" class="stroke" stroke-dasharray="150"><set attributeName="opacity" to="0" dur="10.200000000000001s" /><animate attributeName="stroke-dashoffset" from="150" to="0" dur="1.8s" begin="10.200000000000001s" fill="freeze" /></path><path d="M62.2,12.6c0.13,1.12,0.01,1.93-0.31,2.84c-2.14,6.1-3.89,10.3-8.75,17.9c-0.74,1.15-0.35,0.82,0,1.18c3.86,3.97,7.52,8.46,10.58,16.58" class="stroke" stroke-dasharray="150"><set attributeName="opacity" to="0" dur="11.100000000000001s" /><animate attributeName="stroke-dashoffset" from="150" to="0" dur="1.8s" begin="11.100000000000001s" fill="freeze" /></path><path d="M76.97,12.97c0.42,1.2-0.03,2.86-0.38,3.66c-1.85,4.17-4.62,8.88-9.84,15.04c-0.5,0.6-0.24,0.82,0.23,1.17c5.52,4.06,8.54,9.91,11.07,16.97" class="stroke" stroke-dasharray="150"><set attributeName="opacity" to="0" dur="12.200000000000001s" /><animate attributeName="stroke-dashoffset" from="150" to="0" dur="1.8s" begin="12.200000000000001s" fill="freeze" /></path><path d="M92.28,13.03c0.35,0.84,0.31,1.76,0.16,2.6c-0.87,4.6-3.62,8.42-9.33,15.48c-0.49,0.61-0.16,0.73,0.23,1.17C89,38.75,91.62,43.73,93.93,50" class="stroke" stroke-dasharray="150"><set attributeName="opacity" to="0" dur="13.3s" /><animate attributeName="stroke-dashoffset" from="150" to="0" dur="1.8s" begin="13.3s" fill="freeze" /></path><path d="M55.38,61.61c0.3,0.57,0.31,0.95,0.47,1.65c1.34,5.76,2.97,21.82,3.75,32.42" class="stroke" stroke-dasharray="150"><set attributeName="opacity" to="0" dur="14.4s" /><animate attributeName="stroke-dashoffset" from="150" to="0" dur="1.8s" begin="14.4s" fill="freeze" /></path><path d="M56.15,64.04c8.64-1.2,26.29-3.03,32.98-3.56c2.46-0.19,3.7,1.37,3.57,2.83c-0.49,5.32-1.21,20.76-3.28,30.02" class="stroke" stroke-dasharray="150"><set attributeName="opacity" to="0" dur="15.4s" /><animate attributeName="stroke-dashoffset" from="150" to="0" dur="1.8s" begin="15.4s" fill="freeze" /></path><path d="M72.52,64.17c0.23,0.73,0.69,1.14,0.68,2.1c-0.03,6.28,0.16,22.68,0.16,24.96" class="stroke" stroke-dasharray="150"><set attributeName="opacity" to="0" dur="16.9s" /><animate attributeName="stroke-dashoffset" from="150" to="0" dur="1.8s" begin="16.9s" fill="freeze" /></path><path d="M58.03,77.41c2.92-0.26,29.59-2.82,32-2.82" class="stroke" stroke-dasharray="150"><set attributeName="opacity" to="0" dur="17.9s" /><animate attributeName="stroke-dashoffset" from="150" to="0" dur="1.8s" begin="17.9s" fill="freeze" /></path><path d="M59.4,92.3c6.44,0,21.65-1.28,30.55-1.42" class="stroke" stroke-dasharray="150"><set attributeName="opacity" to="0" dur="18.9s" /><animate attributeName="stroke-dashoffset" from="150" to="0" dur="1.8s" begin="18.9s" fill="freeze" /></path><text x="90" y="120" id="reset-kvg-09bd4-Kaisho">⟳</text><text x="70" y="120" id="pause-kvg-09bd4-Kaisho">◼</text><script type="text/javascript"><![CDATA[function RecurringTimer(e,t){var n,r,i=t;this.pause=function(){window.clearTimeout(n);i-=new Date-r};var s=function(){r=new Date;n=window.setTimeout(function(){i=t;s();e()},i)};this.clear=function(){window.clearTimeout(n);i=t;n=window.setTimeout(function(){i=t;s();e()},i)};this.resume=s;this.resume()}function invoketimer(){timer=new RecurringTimer(function(){svg.setCurrentTime(0)},20900.0)}var svg=document.getElementById("kvg-09bd4-Kaisho");var pause=document.getElementById("pause-kvg-09bd4-Kaisho");var reset=document.getElementById("reset-kvg-09bd4-Kaisho");var timer;invoketimer();reset.onclick=function(){svg.setCurrentTime(0);timer.clear();svg.unpauseAnimations();pause.innerHTML = "◼";};pause.onclick=function(){if(svg.animationsPaused()){svg.unpauseAnimations();timer.resume();pause.innerHTML="◼"}else{svg.pauseAnimations();timer.pause();pause.innerHTML="▶"}}]]></script></svg>