<svg id="kvg-09c12-Kaisho" class="kanjivg" width="106" height="126" xmlns="http://www.w3.org/2000/svg" xmlns:xlink="http://www.w3.org/1999/xlink" xml:space="preserve" version="1.1" baseProfile="full"><defs><style type="text/css"><![CDATA[path.black{fill:none;stroke:black;stroke-width:5;stroke-linecap:round;stroke-linejoin:round;}path.grey{fill:none;stroke:#ddd;stroke-width:5;stroke-linecap:round;stroke-linejoin:round;}path.stroke{fill:none;stroke:black;stroke-width:5;stroke-linecap:round;stroke-linejoin:round;}rect{fill:none;stroke:#555;stroke-width:2;} text{font-size:16px;font-family:Segoe UI Symbol,Cambria Math,DejaVu Sans,Symbola,Quivira,STIX,Code2000;-webkit-touch-callout:none;cursor:pointer;-webkit-user-select:none;-khtml-user-select:none;-moz-user-select:none;-ms-user-select:none;user-select: none;}text:hover{color:#777;}#reset{font-weight:bold;}]]></style><marker id="markerStart" markerWidth="8" markerHeight="8" style="overflow:visible;"><circle cx="0" cy="0" r="1.5" style="stroke:none;fill:red;fill-opacity:0.5;"/></marker><marker id="markerEnd" style="overflow:visible;"><circle cx="0" cy="0" r="0.8" style="stroke:none;fill:blue;fill-opacity:0.5;"><animate attributeName="opacity" from="1" to="0" dur="3s" repeatCount="indefinite" /></circle></marker></defs><rect x="4" y="4" width="100" height="100" /><path d="M26.49,11.75c0.04,0.56,0.09,1.45-0.08,2.26c-1,4.76-6.91,16.74-14.67,24.61" class="grey" /><path d="M23.89,20.88c1.93,0,15.82-2.44,17.85-2.73c1.74-0.25,2.13,2.17,1.41,3.4c-3.05,5.19-6.98,11.16-11.95,19.4" class="grey" /><path d="M13.72,43.39c0.23,0.46,0.23,0.77,0.36,1.35c1.02,4.72,2.11,17.14,2.75,25.95" class="grey" /><path d="M14.78,44.52c7.92-1.19,22.01-2.71,27.92-3.71c2.17-0.37,3.29,0.93,3.17,2.23c-0.41,4.76-1.79,17.76-3.53,26.67" class="grey" /><path d="M28.56,44.23c0.9,0.59,1.58,2.51,1.61,4.04c0.12,6.73,0.03,16.27,0.03,19.6" class="grey" /><path d="M16.76,56.23c6.04-1.09,12.36-1.26,18.47-1.79c0.74-0.06,1.46-0.13,2.15-0.19" class="grey" /><path d="M17.23,68.9c5.71-0.51,17.61-1.12,25.49-1.95" class="grey" /><path d="M15.29,80.82c0,5.32-3.19,13.16-4.02,14.68" class="grey" /><path d="M22.06,78.58c1.71,2.79,2.84,10.46,3.27,14.79" class="grey" /><path d="M31.07,77.19c1.83,2.29,4.73,9.41,5.19,12.96" class="grey" /><path d="M40.55,75.12c2.1,2.21,5.42,9.09,5.95,12.53" class="grey" /><path d="M61.36,13c0.03,0.51,0.11,1.46-0.06,2.04c-2.12,7.16-5.26,13.73-10.8,19.5" class="grey" /><path d="M60.75,23.47c0.69,0.28,1.94,0.35,2.63,0.28c4.37-0.48,20.12-3.25,26.97-4.33c1.13-0.18,1.51-0.06,2.42-0.03" class="grey" /><path d="M56.27,33.9c0.38,0.58,0.65,1.38,0.77,2.14c0.46,2.71,3.35,19.44,3.48,20.21" class="grey" /><path d="M57.18,34.63c4.02-0.81,26.72-4.53,28.7-4.64c1.65-0.1,2.72,2.16,2.59,2.73c-0.26,1.16-2.99,21.46-2.99,22.04" class="grey" /><path d="M60.06,44.03c4.59-0.77,9.21-1.42,13.82-2.05c1.29-0.18,2.56-0.35,3.81-0.51" class="grey" /><path d="M61.91,54.08c7.34-0.83,16.18-2.52,23.67-2.88" class="grey" /><path d="M64.33,59.25c0.04,0.48,0.08,1.24-0.07,1.93c-0.9,4.07-6.06,13.02-13.12,18.49" class="grey" /><path d="M66.22,63.98c0.25,0.03,1.84,0,2.57-0.08c2.39-0.26,11.82-1.23,15.23-2.03c2.34-0.55,3.14,0.69,2.41,2.13C81.25,74.25,63.75,93,45,98.5" class="grey" /><path d="M62.4,69.06c4.04,4.78,22.38,22.95,27.83,27.32c1.63,1.3,2.94,1.94,4.52,2.32" class="grey" /><path d="M26.49,11.75c0.04,0.56,0.09,1.45-0.08,2.26c-1,4.76-6.91,16.74-14.67,24.61" class="stroke" stroke-dasharray="150"><animate attributeName="stroke-dashoffset" from="150" to="0" dur="1.8s" begin="0.0s" fill="freeze" /></path><path d="M23.89,20.88c1.93,0,15.82-2.44,17.85-2.73c1.74-0.25,2.13,2.17,1.41,3.4c-3.05,5.19-6.98,11.16-11.95,19.4" class="stroke" stroke-dasharray="150"><set attributeName="opacity" to="0" dur="1.0s" /><animate attributeName="stroke-dashoffset" from="150" to="0" dur="1.8s" begin="1.0s" fill="freeze" /></path><path d="M13.72,43.39c0.23,0.46,0.23,0.77,0.36,1.35c1.02,4.72,2.11,17.14,2.75,25.95" class="stroke" stroke-dasharray="150"><set attributeName="opacity" to="0" dur="2.2s" /><animate attributeName="stroke-dashoffset" from="150" to="0" dur="1.8s" begin="2.2s" fill="freeze" /></path><path d="M14.78,44.52c7.92-1.19,22.01-2.71,27.92-3.71c2.17-0.37,3.29,0.93,3.17,2.23c-0.41,4.76-1.79,17.76-3.53,26.67" class="stroke" stroke-dasharray="150"><set attributeName="opacity" to="0" dur="3.2s" /><animate attributeName="stroke-dashoffset" from="150" to="0" dur="1.8s" begin="3.2s" fill="freeze" /></path><path d="M28.56,44.23c0.9,0.59,1.58,2.51,1.61,4.04c0.12,6.73,0.03,16.27,0.03,19.6" class="stroke" stroke-dasharray="150"><set attributeName="opacity" to="0" dur="4.6s" /><animate attributeName="stroke-dashoffset" from="150" to="0" dur="1.8s" begin="4.6s" fill="freeze" /></path><path d="M16.76,56.23c6.04-1.09,12.36-1.26,18.47-1.79c0.74-0.06,1.46-0.13,2.15-0.19" class="stroke" stroke-dasharray="150"><set attributeName="opacity" to="0" dur="5.6s" /><animate attributeName="stroke-dashoffset" from="150" to="0" dur="1.8s" begin="5.6s" fill="freeze" /></path><path d="M17.23,68.9c5.71-0.51,17.61-1.12,25.49-1.95" class="stroke" stroke-dasharray="150"><set attributeName="opacity" to="0" dur="6.6s" /><animate attributeName="stroke-dashoffset" from="150" to="0" dur="1.8s" begin="6.6s" fill="freeze" /></path><path d="M15.29,80.82c0,5.32-3.19,13.16-4.02,14.68" class="stroke" stroke-dasharray="150"><set attributeName="opacity" to="0" dur="7.6s" /><animate attributeName="stroke-dashoffset" from="150" to="0" dur="1.8s" begin="7.6s" fill="freeze" /></path><path d="M22.06,78.58c1.71,2.79,2.84,10.46,3.27,14.79" class="stroke" stroke-dasharray="150"><set attributeName="opacity" to="0" dur="8.5s" /><animate attributeName="stroke-dashoffset" from="150" to="0" dur="1.8s" begin="8.5s" fill="freeze" /></path><path d="M31.07,77.19c1.83,2.29,4.73,9.41,5.19,12.96" class="stroke" stroke-dasharray="150"><set attributeName="opacity" to="0" dur="9.4s" /><animate attributeName="stroke-dashoffset" from="150" to="0" dur="1.8s" begin="9.4s" fill="freeze" /></path><path d="M40.55,75.12c2.1,2.21,5.42,9.09,5.95,12.53" class="stroke" stroke-dasharray="150"><set attributeName="opacity" to="0" dur="10.3s" /><animate attributeName="stroke-dashoffset" from="150" to="0" dur="1.8s" begin="10.3s" fill="freeze" /></path><path d="M61.36,13c0.03,0.51,0.11,1.46-0.06,2.04c-2.12,7.16-5.26,13.73-10.8,19.5" class="stroke" stroke-dasharray="150"><set attributeName="opacity" to="0" dur="11.200000000000001s" /><animate attributeName="stroke-dashoffset" from="150" to="0" dur="1.8s" begin="11.200000000000001s" fill="freeze" /></path><path d="M60.75,23.47c0.69,0.28,1.94,0.35,2.63,0.28c4.37-0.48,20.12-3.25,26.97-4.33c1.13-0.18,1.51-0.06,2.42-0.03" class="stroke" stroke-dasharray="150"><set attributeName="opacity" to="0" dur="12.200000000000001s" /><animate attributeName="stroke-dashoffset" from="150" to="0" dur="1.8s" begin="12.200000000000001s" fill="freeze" /></path><path d="M56.27,33.9c0.38,0.58,0.65,1.38,0.77,2.14c0.46,2.71,3.35,19.44,3.48,20.21" class="stroke" stroke-dasharray="150"><set attributeName="opacity" to="0" dur="13.200000000000001s" /><animate attributeName="stroke-dashoffset" from="150" to="0" dur="1.8s" begin="13.200000000000001s" fill="freeze" /></path><path d="M57.18,34.63c4.02-0.81,26.72-4.53,28.7-4.64c1.65-0.1,2.72,2.16,2.59,2.73c-0.26,1.16-2.99,21.46-2.99,22.04" class="stroke" stroke-dasharray="150"><set attributeName="opacity" to="0" dur="14.200000000000001s" /><animate attributeName="stroke-dashoffset" from="150" to="0" dur="1.8s" begin="14.200000000000001s" fill="freeze" /></path><path d="M60.06,44.03c4.59-0.77,9.21-1.42,13.82-2.05c1.29-0.18,2.56-0.35,3.81-0.51" class="stroke" stroke-dasharray="150"><set attributeName="opacity" to="0" dur="15.600000000000001s" /><animate attributeName="stroke-dashoffset" from="150" to="0" dur="1.8s" begin="15.600000000000001s" fill="freeze" /></path><path d="M61.91,54.08c7.34-0.83,16.18-2.52,23.67-2.88" class="stroke" stroke-dasharray="150"><set attributeName="opacity" to="0" dur="16.5s" /><animate attributeName="stroke-dashoffset" from="150" to="0" dur="1.8s" begin="16.5s" fill="freeze" /></path><path d="M64.33,59.25c0.04,0.48,0.08,1.24-0.07,1.93c-0.9,4.07-6.06,13.02-13.12,18.49" class="stroke" stroke-dasharray="150"><set attributeName="opacity" to="0" dur="17.5s" /><animate attributeName="stroke-dashoffset" from="150" to="0" dur="1.8s" begin="17.5s" fill="freeze" /></path><path d="M66.22,63.98c0.25,0.03,1.84,0,2.57-0.08c2.39-0.26,11.82-1.23,15.23-2.03c2.34-0.55,3.14,0.69,2.41,2.13C81.25,74.25,63.75,93,45,98.5" class="stroke" stroke-dasharray="150"><set attributeName="opacity" to="0" dur="18.5s" /><animate attributeName="stroke-dashoffset" from="150" to="0" dur="1.8s" begin="18.5s" fill="freeze" /></path><path d="M62.4,69.06c4.04,4.78,22.38,22.95,27.83,27.32c1.63,1.3,2.94,1.94,4.52,2.32" class="stroke" stroke-dasharray="150"><set attributeName="opacity" to="0" dur="20.2s" /><animate attributeName="stroke-dashoffset" from="150" to="0" dur="1.8s" begin="20.2s" fill="freeze" /></path><text x="90" y="120" id="reset-kvg-09c12-Kaisho">⟳</text><text x="70" y="120" id="pause-kvg-09c12-Kaisho">◼</text><script type="text/javascript"><![CDATA[function RecurringTimer(e,t){var n,r,i=t;this.pause=function(){window.clearTimeout(n);i-=new Date-r};var s=function(){r=new Date;n=window.setTimeout(function(){i=t;s();e()},i)};this.clear=function(){window.clearTimeout(n);i=t;n=window.setTimeout(function(){i=t;s();e()},i)};this.resume=s;this.resume()}function invoketimer(){timer=new RecurringTimer(function(){svg.setCurrentTime(0)},22300.0)}var svg=document.getElementById("kvg-09c12-Kaisho");var pause=document.getElementById("pause-kvg-09c12-Kaisho");var reset=document.getElementById("reset-kvg-09c12-Kaisho");var timer;invoketimer();reset.onclick=function(){svg.setCurrentTime(0);timer.clear();svg.unpauseAnimations();pause.innerHTML = "◼";};pause.onclick=function(){if(svg.animationsPaused()){svg.unpauseAnimations();timer.resume();pause.innerHTML="◼"}else{svg.pauseAnimations();timer.pause();pause.innerHTML="▶"}}]]></script></svg>