<svg id="kvg-09d09" class="kanjivg" width="106" height="126" xmlns="http://www.w3.org/2000/svg" xmlns:xlink="http://www.w3.org/1999/xlink" xml:space="preserve" version="1.1" baseProfile="full"><defs><style type="text/css"><![CDATA[path.black{fill:none;stroke:black;stroke-width:5;stroke-linecap:round;stroke-linejoin:round;}path.grey{fill:none;stroke:#ddd;stroke-width:5;stroke-linecap:round;stroke-linejoin:round;}path.stroke{fill:none;stroke:black;stroke-width:5;stroke-linecap:round;stroke-linejoin:round;}rect{fill:none;stroke:#555;stroke-width:2;} text{font-size:16px;font-family:Segoe UI Symbol,Cambria Math,DejaVu Sans,Symbola,Quivira,STIX,Code2000;-webkit-touch-callout:none;cursor:pointer;-webkit-user-select:none;-khtml-user-select:none;-moz-user-select:none;-ms-user-select:none;user-select: none;}text:hover{color:#777;}#reset{font-weight:bold;}]]></style><marker id="markerStart" markerWidth="8" markerHeight="8" style="overflow:visible;"><circle cx="0" cy="0" r="1.5" style="stroke:none;fill:red;fill-opacity:0.5;"/></marker><marker id="markerEnd" style="overflow:visible;"><circle cx="0" cy="0" r="0.8" style="stroke:none;fill:blue;fill-opacity:0.5;"><animate attributeName="opacity" from="1" to="0" dur="3s" repeatCount="indefinite" /></circle></marker></defs><rect x="4" y="4" width="100" height="100" /><path d="M15.36,19.95c0.86,0.42,2.44,0.47,3.3,0.42c6.56-0.37,18.33-2.92,26.94-3.19c1.44-0.05,2.3,0.2,3.01,0.41" class="grey" /><path d="M16.87,25.4c1.22,1.09,1.32,2.46,1.31,3.7c-0.9,6.53-1.72,11.31-2.97,14.57c-0.93,2.43,0.39,2.68,2.27,2.18c4.9-1.31,22.8-3.57,31.07-3.01c1.43,0.1,2.3,0.2,3.01,0.41" class="grey" /><path d="M33.98,23.46c0.98,0.97,1.81,2.84,1.88,6.3c0.34,16.61-0.22,53.19-0.22,58.85c0,11.31-6.49,3.33-8.68,1.22" class="grey" /><path d="M35.53,43.72c0.6,0.44,0.42,1.91,0.04,2.7C31.25,55.5,23.25,66.5,8.95,78.26" class="grey" /><path d="M71.04,10.66c0.02,0.28,0.04,0.72-0.03,1.11c-0.41,2.32-2.74,7.29-5.93,10.18" class="grey" /><path d="M58.8,22.92c0.33,0.43,0.6,1.02,0.6,1.73c0,7.23,0.04,32.01-0.17,43.38" class="grey" /><path d="M59.81,24.25c1.55,0,21.5-3.17,23.01-3.06c2.24,0.16,3.33,2.15,3.13,4.02c-0.12,1.15-1.14,12.19-2.58,20.96" class="grey" /><path d="M60.06,35.58c2,0.14,22.58-2.74,24.75-2.59" class="grey" /><path d="M59.97,47.12c3.88-0.14,18.55-2.48,23.38-2.5" class="grey" /><path d="M60.19,57.36c8.18-0.84,29.29-2.86,32.8-3.38c1.22-0.19,3.3-0.35,3.92-0.11" class="grey" /><path d="M59.24,68.25c9.1-1.63,26.13-3.42,31.17-3.9c3.28-0.31,4.97,0.89,4.38,4.57c-1.64,10.24-3.54,17.32-8.43,25.75c-3.48,6-6.47,0.54-7.8-0.74" class="grey" /><path d="M52.77,78.23c-0.02,3.77-1.89,9.77-3.5,11.94" class="grey" /><path d="M59.82,77.24c1.38,2.08,2.7,7.56,3.04,10.62" class="grey" /><path d="M69.19,75.54c1.17,1.73,3.03,6.96,3.32,9.51" class="grey" /><path d="M78.16,73.98c1.54,1.71,3.97,6.88,4.36,9.39" class="grey" /><path d="M15.36,19.95c0.86,0.42,2.44,0.47,3.3,0.42c6.56-0.37,18.33-2.92,26.94-3.19c1.44-0.05,2.3,0.2,3.01,0.41" class="stroke" stroke-dasharray="150"><animate attributeName="stroke-dashoffset" from="150" to="0" dur="1.8s" begin="0.0s" fill="freeze" /></path><path d="M16.87,25.4c1.22,1.09,1.32,2.46,1.31,3.7c-0.9,6.53-1.72,11.31-2.97,14.57c-0.93,2.43,0.39,2.68,2.27,2.18c4.9-1.31,22.8-3.57,31.07-3.01c1.43,0.1,2.3,0.2,3.01,0.41" class="stroke" stroke-dasharray="150"><set attributeName="opacity" to="0" dur="1.0s" /><animate attributeName="stroke-dashoffset" from="150" to="0" dur="1.8s" begin="1.0s" fill="freeze" /></path><path d="M33.98,23.46c0.98,0.97,1.81,2.84,1.88,6.3c0.34,16.61-0.22,53.19-0.22,58.85c0,11.31-6.49,3.33-8.68,1.22" class="stroke" stroke-dasharray="150"><set attributeName="opacity" to="0" dur="2.4s" /><animate attributeName="stroke-dashoffset" from="150" to="0" dur="1.8s" begin="2.4s" fill="freeze" /></path><path d="M35.53,43.72c0.6,0.44,0.42,1.91,0.04,2.7C31.25,55.5,23.25,66.5,8.95,78.26" class="stroke" stroke-dasharray="150"><set attributeName="opacity" to="0" dur="4.1s" /><animate attributeName="stroke-dashoffset" from="150" to="0" dur="1.8s" begin="4.1s" fill="freeze" /></path><path d="M71.04,10.66c0.02,0.28,0.04,0.72-0.03,1.11c-0.41,2.32-2.74,7.29-5.93,10.18" class="stroke" stroke-dasharray="150"><set attributeName="opacity" to="0" dur="5.199999999999999s" /><animate attributeName="stroke-dashoffset" from="150" to="0" dur="1.8s" begin="5.199999999999999s" fill="freeze" /></path><path d="M58.8,22.92c0.33,0.43,0.6,1.02,0.6,1.73c0,7.23,0.04,32.01-0.17,43.38" class="stroke" stroke-dasharray="150"><set attributeName="opacity" to="0" dur="6.1s" /><animate attributeName="stroke-dashoffset" from="150" to="0" dur="1.8s" begin="6.1s" fill="freeze" /></path><path d="M59.81,24.25c1.55,0,21.5-3.17,23.01-3.06c2.24,0.16,3.33,2.15,3.13,4.02c-0.12,1.15-1.14,12.19-2.58,20.96" class="stroke" stroke-dasharray="150"><set attributeName="opacity" to="0" dur="7.3s" /><animate attributeName="stroke-dashoffset" from="150" to="0" dur="1.8s" begin="7.3s" fill="freeze" /></path><path d="M60.06,35.58c2,0.14,22.58-2.74,24.75-2.59" class="stroke" stroke-dasharray="150"><set attributeName="opacity" to="0" dur="8.6s" /><animate attributeName="stroke-dashoffset" from="150" to="0" dur="1.8s" begin="8.6s" fill="freeze" /></path><path d="M59.97,47.12c3.88-0.14,18.55-2.48,23.38-2.5" class="stroke" stroke-dasharray="150"><set attributeName="opacity" to="0" dur="9.6s" /><animate attributeName="stroke-dashoffset" from="150" to="0" dur="1.8s" begin="9.6s" fill="freeze" /></path><path d="M60.19,57.36c8.18-0.84,29.29-2.86,32.8-3.38c1.22-0.19,3.3-0.35,3.92-0.11" class="stroke" stroke-dasharray="150"><set attributeName="opacity" to="0" dur="10.6s" /><animate attributeName="stroke-dashoffset" from="150" to="0" dur="1.8s" begin="10.6s" fill="freeze" /></path><path d="M59.24,68.25c9.1-1.63,26.13-3.42,31.17-3.9c3.28-0.31,4.97,0.89,4.38,4.57c-1.64,10.24-3.54,17.32-8.43,25.75c-3.48,6-6.47,0.54-7.8-0.74" class="stroke" stroke-dasharray="150"><set attributeName="opacity" to="0" dur="11.6s" /><animate attributeName="stroke-dashoffset" from="150" to="0" dur="1.8s" begin="11.6s" fill="freeze" /></path><path d="M52.77,78.23c-0.02,3.77-1.89,9.77-3.5,11.94" class="stroke" stroke-dasharray="150"><set attributeName="opacity" to="0" dur="13.299999999999999s" /><animate attributeName="stroke-dashoffset" from="150" to="0" dur="1.8s" begin="13.299999999999999s" fill="freeze" /></path><path d="M59.82,77.24c1.38,2.08,2.7,7.56,3.04,10.62" class="stroke" stroke-dasharray="150"><set attributeName="opacity" to="0" dur="14.2s" /><animate attributeName="stroke-dashoffset" from="150" to="0" dur="1.8s" begin="14.2s" fill="freeze" /></path><path d="M69.19,75.54c1.17,1.73,3.03,6.96,3.32,9.51" class="stroke" stroke-dasharray="150"><set attributeName="opacity" to="0" dur="15.1s" /><animate attributeName="stroke-dashoffset" from="150" to="0" dur="1.8s" begin="15.1s" fill="freeze" /></path><path d="M78.16,73.98c1.54,1.71,3.97,6.88,4.36,9.39" class="stroke" stroke-dasharray="150"><set attributeName="opacity" to="0" dur="16.0s" /><animate attributeName="stroke-dashoffset" from="150" to="0" dur="1.8s" begin="16.0s" fill="freeze" /></path><text x="90" y="120" id="reset-kvg-09d09">⟳</text><text x="70" y="120" id="pause-kvg-09d09">◼</text><script type="text/javascript"><![CDATA[function RecurringTimer(e,t){var n,r,i=t;this.pause=function(){window.clearTimeout(n);i-=new Date-r};var s=function(){r=new Date;n=window.setTimeout(function(){i=t;s();e()},i)};this.clear=function(){window.clearTimeout(n);i=t;n=window.setTimeout(function(){i=t;s();e()},i)};this.resume=s;this.resume()}function invoketimer(){timer=new RecurringTimer(function(){svg.setCurrentTime(0)},17900.0)}var svg=document.getElementById("kvg-09d09");var pause=document.getElementById("pause-kvg-09d09");var reset=document.getElementById("reset-kvg-09d09");var timer;invoketimer();reset.onclick=function(){svg.setCurrentTime(0);timer.clear();svg.unpauseAnimations();pause.innerHTML = "◼";};pause.onclick=function(){if(svg.animationsPaused()){svg.unpauseAnimations();timer.resume();pause.innerHTML="◼"}else{svg.pauseAnimations();timer.pause();pause.innerHTML="▶"}}]]></script></svg>