<svg id="kvg-09d3b-Kaisho" class="kanjivg" width="106" height="126" xmlns="http://www.w3.org/2000/svg" xmlns:xlink="http://www.w3.org/1999/xlink" xml:space="preserve" version="1.1" baseProfile="full"><defs><style type="text/css"><![CDATA[path.black{fill:none;stroke:black;stroke-width:5;stroke-linecap:round;stroke-linejoin:round;}path.grey{fill:none;stroke:#ddd;stroke-width:5;stroke-linecap:round;stroke-linejoin:round;}path.stroke{fill:none;stroke:black;stroke-width:5;stroke-linecap:round;stroke-linejoin:round;}rect{fill:none;stroke:#555;stroke-width:2;} text{font-size:16px;font-family:Segoe UI Symbol,Cambria Math,DejaVu Sans,Symbola,Quivira,STIX,Code2000;-webkit-touch-callout:none;cursor:pointer;-webkit-user-select:none;-khtml-user-select:none;-moz-user-select:none;-ms-user-select:none;user-select: none;}text:hover{color:#777;}#reset{font-weight:bold;}]]></style><marker id="markerStart" markerWidth="8" markerHeight="8" style="overflow:visible;"><circle cx="0" cy="0" r="1.5" style="stroke:none;fill:red;fill-opacity:0.5;"/></marker><marker id="markerEnd" style="overflow:visible;"><circle cx="0" cy="0" r="0.8" style="stroke:none;fill:blue;fill-opacity:0.5;"><animate attributeName="opacity" from="1" to="0" dur="3s" repeatCount="indefinite" /></circle></marker></defs><rect x="4" y="4" width="100" height="100" /><path d="M16.63,15C20.65,16.38,27,20.69,28,22.84" class="grey" /><path d="M12,39.5c3.97,1.37,10.26,5.62,11.25,7.75" class="grey" /><path d="M14,85.42c1.5,1.36,3.31,1.42,4.25-0.26c2.75-4.9,5.5-10.9,8-17.15" class="grey" /><path d="M31.75,31c1.75,0,4.31,0.38,4.92,0.29c3.89-0.54,12.14-2.35,16.46-2.84c1.01-0.12,2.11-0.15,2.62,0.01" class="grey" /><path d="M44.12,30c0,7.25,0.03,22.75,0.03,33.5" class="grey" /><path d="M32.75,69.74c1.5,0.76,2.78,1.04,4.55-0.28c4.93-3.69,12.81-9.77,17.74-13.46" class="grey" /><path d="M73.89,9.43c0.02,0.29,0.05,0.74-0.04,1.15c-0.54,2.43-3.67,7.76-7.95,11.02" class="grey" /><path d="M62.1,22.25c0.33,0.39,0.6,1.92,0.6,2.6c0,6.85,0.04,33.15-0.17,43.94" class="grey" /><path d="M63.12,24.43c1.56-0.1,19.09-4.36,20.61-4.36c2.25,0,3.35,1.81,3.15,3.6c-0.12,1.09-1.38,12.58-2.1,20.11" class="grey" /><path d="M63.37,33.2c3.76,0,7.61-0.64,11.34-1c1.3-0.12,2.61-0.25,3.85-0.37" class="grey" /><path d="M63.28,44.63c3.89-0.39,16.63-1.99,21.48-2.32" class="grey" /><path d="M63.5,56.74c10-0.99,22.25-2.99,29.45-3.73c1.25-0.13,3.32-0.05,3.94,0.14" class="grey" /><path d="M62.54,68.99c10.71-1.74,23.28-3.82,28.35-4.61c3.3-0.52,4.99,2.41,4.4,5.93c-1.65,9.8-4.04,16.19-7.96,22.79c-3.3,5.56-4.58,3.35-7.33,0.26" class="grey" /><path d="M50.07,77.51c0.37,4.59-0.26,10.13-1.34,12.99" class="grey" /><path d="M59.76,75.29c2.23,1.99,4.34,7.45,4.9,10.55" class="grey" /><path d="M70.25,73.99c1.35,1.54,3.49,6.31,3.82,8.7" class="grey" /><path d="M79.99,71.47c1.75,1.29,4.52,5.32,4.96,7.33" class="grey" /><path d="M16.63,15C20.65,16.38,27,20.69,28,22.84" class="stroke" stroke-dasharray="150"><animate attributeName="stroke-dashoffset" from="150" to="0" dur="1.8s" begin="0.0s" fill="freeze" /></path><path d="M12,39.5c3.97,1.37,10.26,5.62,11.25,7.75" class="stroke" stroke-dasharray="150"><set attributeName="opacity" to="0" dur="0.9s" /><animate attributeName="stroke-dashoffset" from="150" to="0" dur="1.8s" begin="0.9s" fill="freeze" /></path><path d="M14,85.42c1.5,1.36,3.31,1.42,4.25-0.26c2.75-4.9,5.5-10.9,8-17.15" class="stroke" stroke-dasharray="150"><set attributeName="opacity" to="0" dur="1.8s" /><animate attributeName="stroke-dashoffset" from="150" to="0" dur="1.8s" begin="1.8s" fill="freeze" /></path><path d="M31.75,31c1.75,0,4.31,0.38,4.92,0.29c3.89-0.54,12.14-2.35,16.46-2.84c1.01-0.12,2.11-0.15,2.62,0.01" class="stroke" stroke-dasharray="150"><set attributeName="opacity" to="0" dur="2.8s" /><animate attributeName="stroke-dashoffset" from="150" to="0" dur="1.8s" begin="2.8s" fill="freeze" /></path><path d="M44.12,30c0,7.25,0.03,22.75,0.03,33.5" class="stroke" stroke-dasharray="150"><set attributeName="opacity" to="0" dur="3.8s" /><animate attributeName="stroke-dashoffset" from="150" to="0" dur="1.8s" begin="3.8s" fill="freeze" /></path><path d="M32.75,69.74c1.5,0.76,2.78,1.04,4.55-0.28c4.93-3.69,12.81-9.77,17.74-13.46" class="stroke" stroke-dasharray="150"><set attributeName="opacity" to="0" dur="4.8s" /><animate attributeName="stroke-dashoffset" from="150" to="0" dur="1.8s" begin="4.8s" fill="freeze" /></path><path d="M73.89,9.43c0.02,0.29,0.05,0.74-0.04,1.15c-0.54,2.43-3.67,7.76-7.95,11.02" class="stroke" stroke-dasharray="150"><set attributeName="opacity" to="0" dur="5.8s" /><animate attributeName="stroke-dashoffset" from="150" to="0" dur="1.8s" begin="5.8s" fill="freeze" /></path><path d="M62.1,22.25c0.33,0.39,0.6,1.92,0.6,2.6c0,6.85,0.04,33.15-0.17,43.94" class="stroke" stroke-dasharray="150"><set attributeName="opacity" to="0" dur="6.7s" /><animate attributeName="stroke-dashoffset" from="150" to="0" dur="1.8s" begin="6.7s" fill="freeze" /></path><path d="M63.12,24.43c1.56-0.1,19.09-4.36,20.61-4.36c2.25,0,3.35,1.81,3.15,3.6c-0.12,1.09-1.38,12.58-2.1,20.11" class="stroke" stroke-dasharray="150"><set attributeName="opacity" to="0" dur="7.9s" /><animate attributeName="stroke-dashoffset" from="150" to="0" dur="1.8s" begin="7.9s" fill="freeze" /></path><path d="M63.37,33.2c3.76,0,7.61-0.64,11.34-1c1.3-0.12,2.61-0.25,3.85-0.37" class="stroke" stroke-dasharray="150"><set attributeName="opacity" to="0" dur="9.1s" /><animate attributeName="stroke-dashoffset" from="150" to="0" dur="1.8s" begin="9.1s" fill="freeze" /></path><path d="M63.28,44.63c3.89-0.39,16.63-1.99,21.48-2.32" class="stroke" stroke-dasharray="150"><set attributeName="opacity" to="0" dur="10.0s" /><animate attributeName="stroke-dashoffset" from="150" to="0" dur="1.8s" begin="10.0s" fill="freeze" /></path><path d="M63.5,56.74c10-0.99,22.25-2.99,29.45-3.73c1.25-0.13,3.32-0.05,3.94,0.14" class="stroke" stroke-dasharray="150"><set attributeName="opacity" to="0" dur="11.0s" /><animate attributeName="stroke-dashoffset" from="150" to="0" dur="1.8s" begin="11.0s" fill="freeze" /></path><path d="M62.54,68.99c10.71-1.74,23.28-3.82,28.35-4.61c3.3-0.52,4.99,2.41,4.4,5.93c-1.65,9.8-4.04,16.19-7.96,22.79c-3.3,5.56-4.58,3.35-7.33,0.26" class="stroke" stroke-dasharray="150"><set attributeName="opacity" to="0" dur="12.0s" /><animate attributeName="stroke-dashoffset" from="150" to="0" dur="1.8s" begin="12.0s" fill="freeze" /></path><path d="M50.07,77.51c0.37,4.59-0.26,10.13-1.34,12.99" class="stroke" stroke-dasharray="150"><set attributeName="opacity" to="0" dur="13.7s" /><animate attributeName="stroke-dashoffset" from="150" to="0" dur="1.8s" begin="13.7s" fill="freeze" /></path><path d="M59.76,75.29c2.23,1.99,4.34,7.45,4.9,10.55" class="stroke" stroke-dasharray="150"><set attributeName="opacity" to="0" dur="14.6s" /><animate attributeName="stroke-dashoffset" from="150" to="0" dur="1.8s" begin="14.6s" fill="freeze" /></path><path d="M70.25,73.99c1.35,1.54,3.49,6.31,3.82,8.7" class="stroke" stroke-dasharray="150"><set attributeName="opacity" to="0" dur="15.5s" /><animate attributeName="stroke-dashoffset" from="150" to="0" dur="1.8s" begin="15.5s" fill="freeze" /></path><path d="M79.99,71.47c1.75,1.29,4.52,5.32,4.96,7.33" class="stroke" stroke-dasharray="150"><set attributeName="opacity" to="0" dur="16.4s" /><animate attributeName="stroke-dashoffset" from="150" to="0" dur="1.8s" begin="16.4s" fill="freeze" /></path><text x="90" y="120" id="reset-kvg-09d3b-Kaisho">⟳</text><text x="70" y="120" id="pause-kvg-09d3b-Kaisho">◼</text><script type="text/javascript"><![CDATA[function RecurringTimer(e,t){var n,r,i=t;this.pause=function(){window.clearTimeout(n);i-=new Date-r};var s=function(){r=new Date;n=window.setTimeout(function(){i=t;s();e()},i)};this.clear=function(){window.clearTimeout(n);i=t;n=window.setTimeout(function(){i=t;s();e()},i)};this.resume=s;this.resume()}function invoketimer(){timer=new RecurringTimer(function(){svg.setCurrentTime(0)},18299.999999999996)}var svg=document.getElementById("kvg-09d3b-Kaisho");var pause=document.getElementById("pause-kvg-09d3b-Kaisho");var reset=document.getElementById("reset-kvg-09d3b-Kaisho");var timer;invoketimer();reset.onclick=function(){svg.setCurrentTime(0);timer.clear();svg.unpauseAnimations();pause.innerHTML = "◼";};pause.onclick=function(){if(svg.animationsPaused()){svg.unpauseAnimations();timer.resume();pause.innerHTML="◼"}else{svg.pauseAnimations();timer.pause();pause.innerHTML="▶"}}]]></script></svg>