<svg id="kvg-09d44-Kaisho" class="kanjivg" width="106" height="126" xmlns="http://www.w3.org/2000/svg" xmlns:xlink="http://www.w3.org/1999/xlink" xml:space="preserve" version="1.1" baseProfile="full"><defs><style type="text/css"><![CDATA[path.black{fill:none;stroke:black;stroke-width:5;stroke-linecap:round;stroke-linejoin:round;}path.grey{fill:none;stroke:#ddd;stroke-width:5;stroke-linecap:round;stroke-linejoin:round;}path.stroke{fill:none;stroke:black;stroke-width:5;stroke-linecap:round;stroke-linejoin:round;}rect{fill:none;stroke:#555;stroke-width:2;} text{font-size:16px;font-family:Segoe UI Symbol,Cambria Math,DejaVu Sans,Symbola,Quivira,STIX,Code2000;-webkit-touch-callout:none;cursor:pointer;-webkit-user-select:none;-khtml-user-select:none;-moz-user-select:none;-ms-user-select:none;user-select: none;}text:hover{color:#777;}#reset{font-weight:bold;}]]></style><marker id="markerStart" markerWidth="8" markerHeight="8" style="overflow:visible;"><circle cx="0" cy="0" r="1.5" style="stroke:none;fill:red;fill-opacity:0.5;"/></marker><marker id="markerEnd" style="overflow:visible;"><circle cx="0" cy="0" r="0.8" style="stroke:none;fill:blue;fill-opacity:0.5;"><animate attributeName="opacity" from="1" to="0" dur="3s" repeatCount="indefinite" /></circle></marker></defs><rect x="4" y="4" width="100" height="100" /><path d="M12,22c0.84,0.43,2.38,0.48,3.23,0.43C22.5,22,33,20.75,42.81,20.35c1.4-0.06,2.24,0.2,2.95,0.42" class="grey" /><path d="M24.67,25.25c0.36,0.43,0.45,1.77,0.21,2.29c-2.38,5.21-6.16,10.57-10.48,16.19c-1.39,1.81-1.49,3.03,0.74,2.5c5.21-1.25,17.42-4.58,25.64-6.64" class="grey" /><path d="M35.9,30.24c3.44,2.78,8.88,11.45,9.74,15.78" class="grey" /><path d="M12.19,62.87c1.06,0.13,3.15,0.29,3.74,0.25c6.82-0.38,20.32-2.13,26.6-2.98c0.97-0.13,3.06,0.12,3.55,0.25" class="grey" /><path d="M26.69,45.28c0.12,0.33,1.78,1.7,1.78,3.78c0,10.44,0.06,30.44,0.06,33.83" class="grey" /><path d="M13.35,89.15c1.1,0.86,3.01,0.62,3.87,0.12c8.68-4.95,16.09-8.3,28.01-15.15" class="grey" /><path d="M68.54,10.66c0.02,0.28,0.04,0.72-0.03,1.11c-0.41,2.32-2.74,7.29-5.93,10.18" class="grey" /><path d="M55.8,23.42c0.33,0.43,0.6,1.02,0.6,1.73c0,7.23,0.04,33.51-0.17,44.88" class="grey" /><path d="M56.81,24.75c1.55,0,21-3.17,22.51-3.06c2.24,0.16,3.33,2.15,3.13,4.02c-0.12,1.15-0.64,13.19-2.08,21.96" class="grey" /><path d="M57.06,36.08c3.78,0.27,8.06-0.83,11.78-1.3c1.36-0.17,2.72-0.34,4.01-0.5" class="grey" /><path d="M56.97,48.12c3.88-0.14,18.55-2.48,23.38-2.5" class="grey" /><path d="M56.69,59.3c8.97-1.11,29.32-3.75,33.17-4.44c1.34-0.24,3.62-0.46,4.3-0.14" class="grey" /><path d="M56.24,70.25c9.1-1.63,28.63-3.42,33.67-3.9c3.28-0.31,4.97,0.89,4.38,4.57C92.65,81.16,89.25,89,85.86,94.67c-3.56,5.96-4.86,3.08-7.3-0.24" class="grey" /><path d="M51.1,80.23c-0.1,4.02-2.1,9.02-4.19,12.94" class="grey" /><path d="M57.39,80.24c1.78,1.89,3.46,6.85,3.91,9.62" class="grey" /><path d="M68.2,78.29c1.34,1.42,3.46,5.68,3.8,7.76" class="grey" /><path d="M76.16,74.73c1.71,1.49,4.43,5.96,4.86,8.14" class="grey" /><path d="M12,22c0.84,0.43,2.38,0.48,3.23,0.43C22.5,22,33,20.75,42.81,20.35c1.4-0.06,2.24,0.2,2.95,0.42" class="stroke" stroke-dasharray="150"><animate attributeName="stroke-dashoffset" from="150" to="0" dur="1.8s" begin="0.0s" fill="freeze" /></path><path d="M24.67,25.25c0.36,0.43,0.45,1.77,0.21,2.29c-2.38,5.21-6.16,10.57-10.48,16.19c-1.39,1.81-1.49,3.03,0.74,2.5c5.21-1.25,17.42-4.58,25.64-6.64" class="stroke" stroke-dasharray="150"><set attributeName="opacity" to="0" dur="1.0s" /><animate attributeName="stroke-dashoffset" from="150" to="0" dur="1.8s" begin="1.0s" fill="freeze" /></path><path d="M35.9,30.24c3.44,2.78,8.88,11.45,9.74,15.78" class="stroke" stroke-dasharray="150"><set attributeName="opacity" to="0" dur="2.3s" /><animate attributeName="stroke-dashoffset" from="150" to="0" dur="1.8s" begin="2.3s" fill="freeze" /></path><path d="M12.19,62.87c1.06,0.13,3.15,0.29,3.74,0.25c6.82-0.38,20.32-2.13,26.6-2.98c0.97-0.13,3.06,0.12,3.55,0.25" class="stroke" stroke-dasharray="150"><set attributeName="opacity" to="0" dur="3.1999999999999997s" /><animate attributeName="stroke-dashoffset" from="150" to="0" dur="1.8s" begin="3.1999999999999997s" fill="freeze" /></path><path d="M26.69,45.28c0.12,0.33,1.78,1.7,1.78,3.78c0,10.44,0.06,30.44,0.06,33.83" class="stroke" stroke-dasharray="150"><set attributeName="opacity" to="0" dur="4.199999999999999s" /><animate attributeName="stroke-dashoffset" from="150" to="0" dur="1.8s" begin="4.199999999999999s" fill="freeze" /></path><path d="M13.35,89.15c1.1,0.86,3.01,0.62,3.87,0.12c8.68-4.95,16.09-8.3,28.01-15.15" class="stroke" stroke-dasharray="150"><set attributeName="opacity" to="0" dur="5.199999999999999s" /><animate attributeName="stroke-dashoffset" from="150" to="0" dur="1.8s" begin="5.199999999999999s" fill="freeze" /></path><path d="M68.54,10.66c0.02,0.28,0.04,0.72-0.03,1.11c-0.41,2.32-2.74,7.29-5.93,10.18" class="stroke" stroke-dasharray="150"><set attributeName="opacity" to="0" dur="6.199999999999999s" /><animate attributeName="stroke-dashoffset" from="150" to="0" dur="1.8s" begin="6.199999999999999s" fill="freeze" /></path><path d="M55.8,23.42c0.33,0.43,0.6,1.02,0.6,1.73c0,7.23,0.04,33.51-0.17,44.88" class="stroke" stroke-dasharray="150"><set attributeName="opacity" to="0" dur="7.1s" /><animate attributeName="stroke-dashoffset" from="150" to="0" dur="1.8s" begin="7.1s" fill="freeze" /></path><path d="M56.81,24.75c1.55,0,21-3.17,22.51-3.06c2.24,0.16,3.33,2.15,3.13,4.02c-0.12,1.15-0.64,13.19-2.08,21.96" class="stroke" stroke-dasharray="150"><set attributeName="opacity" to="0" dur="8.299999999999999s" /><animate attributeName="stroke-dashoffset" from="150" to="0" dur="1.8s" begin="8.299999999999999s" fill="freeze" /></path><path d="M57.06,36.08c3.78,0.27,8.06-0.83,11.78-1.3c1.36-0.17,2.72-0.34,4.01-0.5" class="stroke" stroke-dasharray="150"><set attributeName="opacity" to="0" dur="9.6s" /><animate attributeName="stroke-dashoffset" from="150" to="0" dur="1.8s" begin="9.6s" fill="freeze" /></path><path d="M56.97,48.12c3.88-0.14,18.55-2.48,23.38-2.5" class="stroke" stroke-dasharray="150"><set attributeName="opacity" to="0" dur="10.5s" /><animate attributeName="stroke-dashoffset" from="150" to="0" dur="1.8s" begin="10.5s" fill="freeze" /></path><path d="M56.69,59.3c8.97-1.11,29.32-3.75,33.17-4.44c1.34-0.24,3.62-0.46,4.3-0.14" class="stroke" stroke-dasharray="150"><set attributeName="opacity" to="0" dur="11.5s" /><animate attributeName="stroke-dashoffset" from="150" to="0" dur="1.8s" begin="11.5s" fill="freeze" /></path><path d="M56.24,70.25c9.1-1.63,28.63-3.42,33.67-3.9c3.28-0.31,4.97,0.89,4.38,4.57C92.65,81.16,89.25,89,85.86,94.67c-3.56,5.96-4.86,3.08-7.3-0.24" class="stroke" stroke-dasharray="150"><set attributeName="opacity" to="0" dur="12.5s" /><animate attributeName="stroke-dashoffset" from="150" to="0" dur="1.8s" begin="12.5s" fill="freeze" /></path><path d="M51.1,80.23c-0.1,4.02-2.1,9.02-4.19,12.94" class="stroke" stroke-dasharray="150"><set attributeName="opacity" to="0" dur="14.2s" /><animate attributeName="stroke-dashoffset" from="150" to="0" dur="1.8s" begin="14.2s" fill="freeze" /></path><path d="M57.39,80.24c1.78,1.89,3.46,6.85,3.91,9.62" class="stroke" stroke-dasharray="150"><set attributeName="opacity" to="0" dur="15.1s" /><animate attributeName="stroke-dashoffset" from="150" to="0" dur="1.8s" begin="15.1s" fill="freeze" /></path><path d="M68.2,78.29c1.34,1.42,3.46,5.68,3.8,7.76" class="stroke" stroke-dasharray="150"><set attributeName="opacity" to="0" dur="16.0s" /><animate attributeName="stroke-dashoffset" from="150" to="0" dur="1.8s" begin="16.0s" fill="freeze" /></path><path d="M76.16,74.73c1.71,1.49,4.43,5.96,4.86,8.14" class="stroke" stroke-dasharray="150"><set attributeName="opacity" to="0" dur="16.9s" /><animate attributeName="stroke-dashoffset" from="150" to="0" dur="1.8s" begin="16.9s" fill="freeze" /></path><text x="90" y="120" id="reset-kvg-09d44-Kaisho">⟳</text><text x="70" y="120" id="pause-kvg-09d44-Kaisho">◼</text><script type="text/javascript"><![CDATA[function RecurringTimer(e,t){var n,r,i=t;this.pause=function(){window.clearTimeout(n);i-=new Date-r};var s=function(){r=new Date;n=window.setTimeout(function(){i=t;s();e()},i)};this.clear=function(){window.clearTimeout(n);i=t;n=window.setTimeout(function(){i=t;s();e()},i)};this.resume=s;this.resume()}function invoketimer(){timer=new RecurringTimer(function(){svg.setCurrentTime(0)},18799.999999999996)}var svg=document.getElementById("kvg-09d44-Kaisho");var pause=document.getElementById("pause-kvg-09d44-Kaisho");var reset=document.getElementById("reset-kvg-09d44-Kaisho");var timer;invoketimer();reset.onclick=function(){svg.setCurrentTime(0);timer.clear();svg.unpauseAnimations();pause.innerHTML = "◼";};pause.onclick=function(){if(svg.animationsPaused()){svg.unpauseAnimations();timer.resume();pause.innerHTML="◼"}else{svg.pauseAnimations();timer.pause();pause.innerHTML="▶"}}]]></script></svg>