<svg id="kvg-09d6f-Kaisho" class="kanjivg" width="106" height="126" xmlns="http://www.w3.org/2000/svg" xmlns:xlink="http://www.w3.org/1999/xlink" xml:space="preserve" version="1.1" baseProfile="full"><defs><style type="text/css"><![CDATA[path.black{fill:none;stroke:black;stroke-width:5;stroke-linecap:round;stroke-linejoin:round;}path.grey{fill:none;stroke:#ddd;stroke-width:5;stroke-linecap:round;stroke-linejoin:round;}path.stroke{fill:none;stroke:black;stroke-width:5;stroke-linecap:round;stroke-linejoin:round;}rect{fill:none;stroke:#555;stroke-width:2;} text{font-size:16px;font-family:Segoe UI Symbol,Cambria Math,DejaVu Sans,Symbola,Quivira,STIX,Code2000;-webkit-touch-callout:none;cursor:pointer;-webkit-user-select:none;-khtml-user-select:none;-moz-user-select:none;-ms-user-select:none;user-select: none;}text:hover{color:#777;}#reset{font-weight:bold;}]]></style><marker id="markerStart" markerWidth="8" markerHeight="8" style="overflow:visible;"><circle cx="0" cy="0" r="1.5" style="stroke:none;fill:red;fill-opacity:0.5;"/></marker><marker id="markerEnd" style="overflow:visible;"><circle cx="0" cy="0" r="0.8" style="stroke:none;fill:blue;fill-opacity:0.5;"><animate attributeName="opacity" from="1" to="0" dur="3s" repeatCount="indefinite" /></circle></marker></defs><rect x="4" y="4" width="100" height="100" /><path d="M32.78,11.14c0.03,0.31,0.05,0.8-0.05,1.24c-0.61,2.61-4.12,8.33-8.92,11.84" class="grey" /><path d="M14.49,26.82c0.25,0.46,0.25,0.78,0.39,1.36c1.12,4.77,2.67,17.63,3.36,26.53" class="grey" /><path d="M15.65,28c8.66-1.2,22.1-2.25,30.23-3.21c2.39-0.28,3.8,1.14,3.63,3.67c-0.32,4.83-2.39,15.42-3.48,23.45" class="grey" /><path d="M17.27,40.3c6.78-1.13,13.75-1.49,20.58-2.16c0.82-0.08,1.63-0.16,2.39-0.23" class="grey" /><path d="M18.69,52.57c6.24-0.51,18.73-2.12,27.34-2.95" class="grey" /><path d="M31.05,26.43c0.42,1.02,0.39,2.56,0.28,3.93C30.22,44.15,27.5,59.5,17.51,68" class="grey" /><path d="M9.75,72.81c0.65,0.25,2.4,0.93,4.14,0.75c11.72-1.24,23.25-3.82,34.38-4.06c1.74-0.04,3.15,0.07,4.24,0.32" class="grey" /><path d="M35.87,56.25c1.09,0.5,1.74,2.25,1.96,3.25c0.22,1,0,31.25-0.22,37.5" class="grey" /><path d="M72.54,9.66c0.01,0.29,0.03,0.75-0.03,1.16c-0.34,2.42-2.28,7.61-4.93,10.63" class="grey" /><path d="M60.3,22.84c0.33,0.41,0.6,0.97,0.6,1.64c0,6.87,0.04,33.26-0.17,44.06" class="grey" /><path d="M61.31,24.59c1.55,0,21-3.51,22.51-3.41c2.24,0.15,3.33,2.04,3.13,3.82c-0.12,1.09-1.64,12.53-3.08,20.87" class="grey" /><path d="M61.56,34.81c3.79,0.26,8.04-0.79,11.78-1.24c1.36-0.16,2.72-0.32,4.01-0.48" class="grey" /><path d="M61.47,45.77c3.88-0.13,17.55-2.36,22.38-2.37" class="grey" /><path d="M61.19,56.41c8.85-0.8,28.43-2.71,32.23-3.21c1.33-0.18,3.57-0.33,4.24-0.1" class="grey" /><path d="M60.74,68.75c9.1-1.55,26.63-3.25,31.67-3.7c3.28-0.3,4.97,0.85,4.38,4.34c-1.65,9.74-3.79,17.36-8.43,24.94c-3.47,5.68-6.47-0.01-7.8-1.23" class="grey" /><path d="M53.38,78.37c-0.13,6.63-0.88,11.97-2.44,15.3" class="grey" /><path d="M60.22,78.11c1.87,2.12,3.64,7.7,4.1,10.82" class="grey" /><path d="M69.02,76.65c1.79,1.63,4.61,6.55,5.06,8.96" class="grey" /><path d="M78.58,73.48c1.48,1.65,3.81,6.61,4.18,9.03" class="grey" /><path d="M32.78,11.14c0.03,0.31,0.05,0.8-0.05,1.24c-0.61,2.61-4.12,8.33-8.92,11.84" class="stroke" stroke-dasharray="150"><animate attributeName="stroke-dashoffset" from="150" to="0" dur="1.8s" begin="0.0s" fill="freeze" /></path><path d="M14.49,26.82c0.25,0.46,0.25,0.78,0.39,1.36c1.12,4.77,2.67,17.63,3.36,26.53" class="stroke" stroke-dasharray="150"><set attributeName="opacity" to="0" dur="0.9s" /><animate attributeName="stroke-dashoffset" from="150" to="0" dur="1.8s" begin="0.9s" fill="freeze" /></path><path d="M15.65,28c8.66-1.2,22.1-2.25,30.23-3.21c2.39-0.28,3.8,1.14,3.63,3.67c-0.32,4.83-2.39,15.42-3.48,23.45" class="stroke" stroke-dasharray="150"><set attributeName="opacity" to="0" dur="1.9s" /><animate attributeName="stroke-dashoffset" from="150" to="0" dur="1.8s" begin="1.9s" fill="freeze" /></path><path d="M17.27,40.3c6.78-1.13,13.75-1.49,20.58-2.16c0.82-0.08,1.63-0.16,2.39-0.23" class="stroke" stroke-dasharray="150"><set attributeName="opacity" to="0" dur="3.4s" /><animate attributeName="stroke-dashoffset" from="150" to="0" dur="1.8s" begin="3.4s" fill="freeze" /></path><path d="M18.69,52.57c6.24-0.51,18.73-2.12,27.34-2.95" class="stroke" stroke-dasharray="150"><set attributeName="opacity" to="0" dur="4.4s" /><animate attributeName="stroke-dashoffset" from="150" to="0" dur="1.8s" begin="4.4s" fill="freeze" /></path><path d="M31.05,26.43c0.42,1.02,0.39,2.56,0.28,3.93C30.22,44.15,27.5,59.5,17.51,68" class="stroke" stroke-dasharray="150"><set attributeName="opacity" to="0" dur="5.4s" /><animate attributeName="stroke-dashoffset" from="150" to="0" dur="1.8s" begin="5.4s" fill="freeze" /></path><path d="M9.75,72.81c0.65,0.25,2.4,0.93,4.14,0.75c11.72-1.24,23.25-3.82,34.38-4.06c1.74-0.04,3.15,0.07,4.24,0.32" class="stroke" stroke-dasharray="150"><set attributeName="opacity" to="0" dur="6.6000000000000005s" /><animate attributeName="stroke-dashoffset" from="150" to="0" dur="1.8s" begin="6.6000000000000005s" fill="freeze" /></path><path d="M35.87,56.25c1.09,0.5,1.74,2.25,1.96,3.25c0.22,1,0,31.25-0.22,37.5" class="stroke" stroke-dasharray="150"><set attributeName="opacity" to="0" dur="7.700000000000001s" /><animate attributeName="stroke-dashoffset" from="150" to="0" dur="1.8s" begin="7.700000000000001s" fill="freeze" /></path><path d="M72.54,9.66c0.01,0.29,0.03,0.75-0.03,1.16c-0.34,2.42-2.28,7.61-4.93,10.63" class="stroke" stroke-dasharray="150"><set attributeName="opacity" to="0" dur="8.8s" /><animate attributeName="stroke-dashoffset" from="150" to="0" dur="1.8s" begin="8.8s" fill="freeze" /></path><path d="M60.3,22.84c0.33,0.41,0.6,0.97,0.6,1.64c0,6.87,0.04,33.26-0.17,44.06" class="stroke" stroke-dasharray="150"><set attributeName="opacity" to="0" dur="9.700000000000001s" /><animate attributeName="stroke-dashoffset" from="150" to="0" dur="1.8s" begin="9.700000000000001s" fill="freeze" /></path><path d="M61.31,24.59c1.55,0,21-3.51,22.51-3.41c2.24,0.15,3.33,2.04,3.13,3.82c-0.12,1.09-1.64,12.53-3.08,20.87" class="stroke" stroke-dasharray="150"><set attributeName="opacity" to="0" dur="10.9s" /><animate attributeName="stroke-dashoffset" from="150" to="0" dur="1.8s" begin="10.9s" fill="freeze" /></path><path d="M61.56,34.81c3.79,0.26,8.04-0.79,11.78-1.24c1.36-0.16,2.72-0.32,4.01-0.48" class="stroke" stroke-dasharray="150"><set attributeName="opacity" to="0" dur="12.1s" /><animate attributeName="stroke-dashoffset" from="150" to="0" dur="1.8s" begin="12.1s" fill="freeze" /></path><path d="M61.47,45.77c3.88-0.13,17.55-2.36,22.38-2.37" class="stroke" stroke-dasharray="150"><set attributeName="opacity" to="0" dur="13.0s" /><animate attributeName="stroke-dashoffset" from="150" to="0" dur="1.8s" begin="13.0s" fill="freeze" /></path><path d="M61.19,56.41c8.85-0.8,28.43-2.71,32.23-3.21c1.33-0.18,3.57-0.33,4.24-0.1" class="stroke" stroke-dasharray="150"><set attributeName="opacity" to="0" dur="14.0s" /><animate attributeName="stroke-dashoffset" from="150" to="0" dur="1.8s" begin="14.0s" fill="freeze" /></path><path d="M60.74,68.75c9.1-1.55,26.63-3.25,31.67-3.7c3.28-0.3,4.97,0.85,4.38,4.34c-1.65,9.74-3.79,17.36-8.43,24.94c-3.47,5.68-6.47-0.01-7.8-1.23" class="stroke" stroke-dasharray="150"><set attributeName="opacity" to="0" dur="15.0s" /><animate attributeName="stroke-dashoffset" from="150" to="0" dur="1.8s" begin="15.0s" fill="freeze" /></path><path d="M53.38,78.37c-0.13,6.63-0.88,11.97-2.44,15.3" class="stroke" stroke-dasharray="150"><set attributeName="opacity" to="0" dur="16.7s" /><animate attributeName="stroke-dashoffset" from="150" to="0" dur="1.8s" begin="16.7s" fill="freeze" /></path><path d="M60.22,78.11c1.87,2.12,3.64,7.7,4.1,10.82" class="stroke" stroke-dasharray="150"><set attributeName="opacity" to="0" dur="17.599999999999998s" /><animate attributeName="stroke-dashoffset" from="150" to="0" dur="1.8s" begin="17.599999999999998s" fill="freeze" /></path><path d="M69.02,76.65c1.79,1.63,4.61,6.55,5.06,8.96" class="stroke" stroke-dasharray="150"><set attributeName="opacity" to="0" dur="18.499999999999996s" /><animate attributeName="stroke-dashoffset" from="150" to="0" dur="1.8s" begin="18.499999999999996s" fill="freeze" /></path><path d="M78.58,73.48c1.48,1.65,3.81,6.61,4.18,9.03" class="stroke" stroke-dasharray="150"><set attributeName="opacity" to="0" dur="19.399999999999995s" /><animate attributeName="stroke-dashoffset" from="150" to="0" dur="1.8s" begin="19.399999999999995s" fill="freeze" /></path><text x="90" y="120" id="reset-kvg-09d6f-Kaisho">⟳</text><text x="70" y="120" id="pause-kvg-09d6f-Kaisho">◼</text><script type="text/javascript"><![CDATA[function RecurringTimer(e,t){var n,r,i=t;this.pause=function(){window.clearTimeout(n);i-=new Date-r};var s=function(){r=new Date;n=window.setTimeout(function(){i=t;s();e()},i)};this.clear=function(){window.clearTimeout(n);i=t;n=window.setTimeout(function(){i=t;s();e()},i)};this.resume=s;this.resume()}function invoketimer(){timer=new RecurringTimer(function(){svg.setCurrentTime(0)},21299.999999999993)}var svg=document.getElementById("kvg-09d6f-Kaisho");var pause=document.getElementById("pause-kvg-09d6f-Kaisho");var reset=document.getElementById("reset-kvg-09d6f-Kaisho");var timer;invoketimer();reset.onclick=function(){svg.setCurrentTime(0);timer.clear();svg.unpauseAnimations();pause.innerHTML = "◼";};pause.onclick=function(){if(svg.animationsPaused()){svg.unpauseAnimations();timer.resume();pause.innerHTML="◼"}else{svg.pauseAnimations();timer.pause();pause.innerHTML="▶"}}]]></script></svg>