<svg id="kvg-09dba-Kaisho" class="kanjivg" width="106" height="126" xmlns="http://www.w3.org/2000/svg" xmlns:xlink="http://www.w3.org/1999/xlink" xml:space="preserve" version="1.1" baseProfile="full"><defs><style type="text/css"><![CDATA[path.black{fill:none;stroke:black;stroke-width:5;stroke-linecap:round;stroke-linejoin:round;}path.grey{fill:none;stroke:#ddd;stroke-width:5;stroke-linecap:round;stroke-linejoin:round;}path.stroke{fill:none;stroke:black;stroke-width:5;stroke-linecap:round;stroke-linejoin:round;}rect{fill:none;stroke:#555;stroke-width:2;} text{font-size:16px;font-family:Segoe UI Symbol,Cambria Math,DejaVu Sans,Symbola,Quivira,STIX,Code2000;-webkit-touch-callout:none;cursor:pointer;-webkit-user-select:none;-khtml-user-select:none;-moz-user-select:none;-ms-user-select:none;user-select: none;}text:hover{color:#777;}#reset{font-weight:bold;}]]></style><marker id="markerStart" markerWidth="8" markerHeight="8" style="overflow:visible;"><circle cx="0" cy="0" r="1.5" style="stroke:none;fill:red;fill-opacity:0.5;"/></marker><marker id="markerEnd" style="overflow:visible;"><circle cx="0" cy="0" r="0.8" style="stroke:none;fill:blue;fill-opacity:0.5;"><animate attributeName="opacity" from="1" to="0" dur="3s" repeatCount="indefinite" /></circle></marker></defs><rect x="4" y="4" width="100" height="100" /><path d="M30.28,12.75c0.13,1.12,0.69,2.61,0.65,4.1C30.5,31,27.5,48.25,11,56.5" class="grey" /><path d="M30.5,27c2.62,4.29,13.9,18.29,16.78,21.43c0.98,1.07,2.24,1.52,3.22,1.82" class="grey" /><path d="M12.31,23.35c0.42,0.13,1.18,0.12,1.6,0.13c3.96,0.02,7.47-0.94,10.05-0.8c0.69,0.04,1.12,0.06,1.46,0.12" class="grey" /><path d="M11.42,33.56c0.46,0.17,1.29,0.16,1.75,0.17c4.33,0.03,6.43-1.24,9.25-1.04c0.76,0.05,1.22,0.08,1.6,0.16" class="grey" /><path d="M38.08,21.1c0.41,0.13,1.16,0.12,1.57,0.13c3.89,0.02,7.33-0.94,9.86-0.8c0.68,0.04,1.09,0.06,1.44,0.12" class="grey" /><path d="M38.73,32.35c0.44,0.13,1.25,0.12,1.69,0.13c4.19,0.02,7.9-0.94,10.62-0.8c0.73,0.04,1.18,0.06,1.55,0.12" class="grey" /><path d="M19.93,54.17c0.44,0.78,0.73,1.57,0.87,2.36c0.15,0.79,0.21,38.05,0.15,39.82" class="grey" /><path d="M21.67,55.74c1.74-0.2,17.38-2.53,18.68-2.75c2.33-0.39,3.2,2.55,2.91,3.73c-0.28,1.13-0.44,18.14-0.44,34.05c0,10.21-3.49,3.53-4.94,1.77" class="grey" /><path d="M21.67,66.95c3.35-0.54,6.72-0.93,10.09-1.34c0.97-0.12,1.95-0.23,2.91-0.35" class="grey" /><path d="M21.38,77.55c3.45-0.44,6.91-0.83,10.37-1.2c1.02-0.11,2.04-0.22,3.04-0.32" class="grey" /><path d="M72.54,10.16c0.02,0.27,0.04,0.71-0.04,1.09c-0.51,2.27-3.42,7.13-7.42,9.95" class="grey" /><path d="M59.3,22.92c0.33,0.43,0.6,1.02,0.6,1.73c0,7.23,0.04,32.01-0.17,43.38" class="grey" /><path d="M60.31,24.25c1.55,0,21-3.17,22.51-3.06c2.24,0.16,3.33,2.15,3.13,4.02c-0.12,1.15-0.64,10.19-2.08,18.96" class="grey" /><path d="M60.56,33.58c3.78,0.27,8.06-0.83,11.78-1.3c1.36-0.17,2.72-0.34,4.01-0.5" class="grey" /><path d="M60.47,44.62c3.88-0.14,18.55-1.98,23.38-2" class="grey" /><path d="M60.19,55.86c8.61-0.84,27.66-2.86,31.35-3.38c1.29-0.19,3.48-0.35,4.13-0.11" class="grey" /><path d="M59.74,68.25c9.1-1.63,26.13-3.42,31.17-3.9c3.28-0.31,4.97,0.89,4.38,4.57c-1.64,10.24-4.08,19.96-6.93,26.25c-2.86,6.33-5.97,1.04-7.3-0.24" class="grey" /><path d="M53.77,79.23c0.4,3.71-0.29,8.16-1.46,10.44" class="grey" /><path d="M61.07,77.74c1.04,2.18,2.03,7.92,2.29,11.12" class="grey" /><path d="M70.22,76.54c1.51,1.73,3.89,6.96,4.27,9.51" class="grey" /><path d="M79.91,74.73c1.45,1.49,3.75,5.96,4.11,8.14" class="grey" /><path d="M30.28,12.75c0.13,1.12,0.69,2.61,0.65,4.1C30.5,31,27.5,48.25,11,56.5" class="stroke" stroke-dasharray="150"><animate attributeName="stroke-dashoffset" from="150" to="0" dur="1.8s" begin="0.0s" fill="freeze" /></path><path d="M30.5,27c2.62,4.29,13.9,18.29,16.78,21.43c0.98,1.07,2.24,1.52,3.22,1.82" class="stroke" stroke-dasharray="150"><set attributeName="opacity" to="0" dur="1.3s" /><animate attributeName="stroke-dashoffset" from="150" to="0" dur="1.8s" begin="1.3s" fill="freeze" /></path><path d="M12.31,23.35c0.42,0.13,1.18,0.12,1.6,0.13c3.96,0.02,7.47-0.94,10.05-0.8c0.69,0.04,1.12,0.06,1.46,0.12" class="stroke" stroke-dasharray="150"><set attributeName="opacity" to="0" dur="2.3s" /><animate attributeName="stroke-dashoffset" from="150" to="0" dur="1.8s" begin="2.3s" fill="freeze" /></path><path d="M11.42,33.56c0.46,0.17,1.29,0.16,1.75,0.17c4.33,0.03,6.43-1.24,9.25-1.04c0.76,0.05,1.22,0.08,1.6,0.16" class="stroke" stroke-dasharray="150"><set attributeName="opacity" to="0" dur="3.1999999999999997s" /><animate attributeName="stroke-dashoffset" from="150" to="0" dur="1.8s" begin="3.1999999999999997s" fill="freeze" /></path><path d="M38.08,21.1c0.41,0.13,1.16,0.12,1.57,0.13c3.89,0.02,7.33-0.94,9.86-0.8c0.68,0.04,1.09,0.06,1.44,0.12" class="stroke" stroke-dasharray="150"><set attributeName="opacity" to="0" dur="4.1s" /><animate attributeName="stroke-dashoffset" from="150" to="0" dur="1.8s" begin="4.1s" fill="freeze" /></path><path d="M38.73,32.35c0.44,0.13,1.25,0.12,1.69,0.13c4.19,0.02,7.9-0.94,10.62-0.8c0.73,0.04,1.18,0.06,1.55,0.12" class="stroke" stroke-dasharray="150"><set attributeName="opacity" to="0" dur="5.0s" /><animate attributeName="stroke-dashoffset" from="150" to="0" dur="1.8s" begin="5.0s" fill="freeze" /></path><path d="M19.93,54.17c0.44,0.78,0.73,1.57,0.87,2.36c0.15,0.79,0.21,38.05,0.15,39.82" class="stroke" stroke-dasharray="150"><set attributeName="opacity" to="0" dur="5.9s" /><animate attributeName="stroke-dashoffset" from="150" to="0" dur="1.8s" begin="5.9s" fill="freeze" /></path><path d="M21.67,55.74c1.74-0.2,17.38-2.53,18.68-2.75c2.33-0.39,3.2,2.55,2.91,3.73c-0.28,1.13-0.44,18.14-0.44,34.05c0,10.21-3.49,3.53-4.94,1.77" class="stroke" stroke-dasharray="150"><set attributeName="opacity" to="0" dur="7.0s" /><animate attributeName="stroke-dashoffset" from="150" to="0" dur="1.8s" begin="7.0s" fill="freeze" /></path><path d="M21.67,66.95c3.35-0.54,6.72-0.93,10.09-1.34c0.97-0.12,1.95-0.23,2.91-0.35" class="stroke" stroke-dasharray="150"><set attributeName="opacity" to="0" dur="8.5s" /><animate attributeName="stroke-dashoffset" from="150" to="0" dur="1.8s" begin="8.5s" fill="freeze" /></path><path d="M21.38,77.55c3.45-0.44,6.91-0.83,10.37-1.2c1.02-0.11,2.04-0.22,3.04-0.32" class="stroke" stroke-dasharray="150"><set attributeName="opacity" to="0" dur="9.4s" /><animate attributeName="stroke-dashoffset" from="150" to="0" dur="1.8s" begin="9.4s" fill="freeze" /></path><path d="M72.54,10.16c0.02,0.27,0.04,0.71-0.04,1.09c-0.51,2.27-3.42,7.13-7.42,9.95" class="stroke" stroke-dasharray="150"><set attributeName="opacity" to="0" dur="10.3s" /><animate attributeName="stroke-dashoffset" from="150" to="0" dur="1.8s" begin="10.3s" fill="freeze" /></path><path d="M59.3,22.92c0.33,0.43,0.6,1.02,0.6,1.73c0,7.23,0.04,32.01-0.17,43.38" class="stroke" stroke-dasharray="150"><set attributeName="opacity" to="0" dur="11.200000000000001s" /><animate attributeName="stroke-dashoffset" from="150" to="0" dur="1.8s" begin="11.200000000000001s" fill="freeze" /></path><path d="M60.31,24.25c1.55,0,21-3.17,22.51-3.06c2.24,0.16,3.33,2.15,3.13,4.02c-0.12,1.15-0.64,10.19-2.08,18.96" class="stroke" stroke-dasharray="150"><set attributeName="opacity" to="0" dur="12.4s" /><animate attributeName="stroke-dashoffset" from="150" to="0" dur="1.8s" begin="12.4s" fill="freeze" /></path><path d="M60.56,33.58c3.78,0.27,8.06-0.83,11.78-1.3c1.36-0.17,2.72-0.34,4.01-0.5" class="stroke" stroke-dasharray="150"><set attributeName="opacity" to="0" dur="13.6s" /><animate attributeName="stroke-dashoffset" from="150" to="0" dur="1.8s" begin="13.6s" fill="freeze" /></path><path d="M60.47,44.62c3.88-0.14,18.55-1.98,23.38-2" class="stroke" stroke-dasharray="150"><set attributeName="opacity" to="0" dur="14.5s" /><animate attributeName="stroke-dashoffset" from="150" to="0" dur="1.8s" begin="14.5s" fill="freeze" /></path><path d="M60.19,55.86c8.61-0.84,27.66-2.86,31.35-3.38c1.29-0.19,3.48-0.35,4.13-0.11" class="stroke" stroke-dasharray="150"><set attributeName="opacity" to="0" dur="15.5s" /><animate attributeName="stroke-dashoffset" from="150" to="0" dur="1.8s" begin="15.5s" fill="freeze" /></path><path d="M59.74,68.25c9.1-1.63,26.13-3.42,31.17-3.9c3.28-0.31,4.97,0.89,4.38,4.57c-1.64,10.24-4.08,19.96-6.93,26.25c-2.86,6.33-5.97,1.04-7.3-0.24" class="stroke" stroke-dasharray="150"><set attributeName="opacity" to="0" dur="16.5s" /><animate attributeName="stroke-dashoffset" from="150" to="0" dur="1.8s" begin="16.5s" fill="freeze" /></path><path d="M53.77,79.23c0.4,3.71-0.29,8.16-1.46,10.44" class="stroke" stroke-dasharray="150"><set attributeName="opacity" to="0" dur="18.2s" /><animate attributeName="stroke-dashoffset" from="150" to="0" dur="1.8s" begin="18.2s" fill="freeze" /></path><path d="M61.07,77.74c1.04,2.18,2.03,7.92,2.29,11.12" class="stroke" stroke-dasharray="150"><set attributeName="opacity" to="0" dur="19.099999999999998s" /><animate attributeName="stroke-dashoffset" from="150" to="0" dur="1.8s" begin="19.099999999999998s" fill="freeze" /></path><path d="M70.22,76.54c1.51,1.73,3.89,6.96,4.27,9.51" class="stroke" stroke-dasharray="150"><set attributeName="opacity" to="0" dur="19.999999999999996s" /><animate attributeName="stroke-dashoffset" from="150" to="0" dur="1.8s" begin="19.999999999999996s" fill="freeze" /></path><path d="M79.91,74.73c1.45,1.49,3.75,5.96,4.11,8.14" class="stroke" stroke-dasharray="150"><set attributeName="opacity" to="0" dur="20.899999999999995s" /><animate attributeName="stroke-dashoffset" from="150" to="0" dur="1.8s" begin="20.899999999999995s" fill="freeze" /></path><text x="90" y="120" id="reset-kvg-09dba-Kaisho">⟳</text><text x="70" y="120" id="pause-kvg-09dba-Kaisho">◼</text><script type="text/javascript"><![CDATA[function RecurringTimer(e,t){var n,r,i=t;this.pause=function(){window.clearTimeout(n);i-=new Date-r};var s=function(){r=new Date;n=window.setTimeout(function(){i=t;s();e()},i)};this.clear=function(){window.clearTimeout(n);i=t;n=window.setTimeout(function(){i=t;s();e()},i)};this.resume=s;this.resume()}function invoketimer(){timer=new RecurringTimer(function(){svg.setCurrentTime(0)},22799.999999999993)}var svg=document.getElementById("kvg-09dba-Kaisho");var pause=document.getElementById("pause-kvg-09dba-Kaisho");var reset=document.getElementById("reset-kvg-09dba-Kaisho");var timer;invoketimer();reset.onclick=function(){svg.setCurrentTime(0);timer.clear();svg.unpauseAnimations();pause.innerHTML = "◼";};pause.onclick=function(){if(svg.animationsPaused()){svg.unpauseAnimations();timer.resume();pause.innerHTML="◼"}else{svg.pauseAnimations();timer.pause();pause.innerHTML="▶"}}]]></script></svg>