<svg id="kvg-09db4" class="kanjivg" width="106" height="126" xmlns="http://www.w3.org/2000/svg" xmlns:xlink="http://www.w3.org/1999/xlink" xml:space="preserve" version="1.1" baseProfile="full"><defs><style type="text/css"><![CDATA[path.black{fill:none;stroke:black;stroke-width:5;stroke-linecap:round;stroke-linejoin:round;}path.grey{fill:none;stroke:#ddd;stroke-width:5;stroke-linecap:round;stroke-linejoin:round;}path.stroke{fill:none;stroke:black;stroke-width:5;stroke-linecap:round;stroke-linejoin:round;}rect{fill:none;stroke:#555;stroke-width:2;} text{font-size:16px;font-family:Segoe UI Symbol,Cambria Math,DejaVu Sans,Symbola,Quivira,STIX,Code2000;-webkit-touch-callout:none;cursor:pointer;-webkit-user-select:none;-khtml-user-select:none;-moz-user-select:none;-ms-user-select:none;user-select: none;}text:hover{color:#777;}#reset{font-weight:bold;}]]></style><marker id="markerStart" markerWidth="8" markerHeight="8" style="overflow:visible;"><circle cx="0" cy="0" r="1.5" style="stroke:none;fill:red;fill-opacity:0.5;"/></marker><marker id="markerEnd" style="overflow:visible;"><circle cx="0" cy="0" r="0.8" style="stroke:none;fill:blue;fill-opacity:0.5;"><animate attributeName="opacity" from="1" to="0" dur="3s" repeatCount="indefinite" /></circle></marker></defs><rect x="4" y="4" width="100" height="100" /><path d="M15.4,26.62c0,3.25-1.6,12.19-2.32,14.36" class="grey" /><path d="M16.96,28.09c7.79-1.34,23.89-3.85,28.93-4.16c7.87-0.49,1.67,6-0.29,7.77" class="grey" /><path d="M32.83,12.25c0.55,1.38,0.48,2.38,0.05,4.57C30.22,30.16,24.68,47.43,14,61.37" class="grey" /><path d="M21.98,51.47c0.77,0.77,1,2.17,1,3.78c0,10.14-0.02,35.68-0.02,40.75" class="grey" /><path d="M40.17,37.21c0.04,0.6-0.01,1.38-0.16,1.89c-0.92,3.26-1.59,4.28-3.71,8.25" class="grey" /><path d="M22.73,51.45c4.24-0.61,15.61-1.82,22.28-2.6c2.39-0.28,4.17-0.5,4.82-0.62" class="grey" /><path d="M36.46,51.25c0.9,0.9,1.05,2.13,1.05,3.99c0,8.38,0.05,23.97,0.05,30.63" class="grey" /><path d="M23.75,62.8c3.85-0.49,13.12-1.41,19-2.03c2.4-0.25,4.24-0.46,4.91-0.57" class="grey" /><path d="M23.09,74.47c4.05-0.41,13.41-1.62,19.42-2.41c2.49-0.33,4.4-0.58,5.12-0.67" class="grey" /><path d="M23.34,88.93c4.06-0.59,14.21-1.81,20.68-2.63c2.69-0.34,4.75-0.62,5.48-0.75" class="grey" /><path d="M69.29,11.41c0.06,0.82-0.06,1.63-0.35,2.4c-0.94,2.44-2.18,4.81-4.69,8.07" class="grey" /><path d="M57.8,22.92c1.01,1.01,1.09,2.33,1.09,4.58c0,7.62,0.06,23.9,0.08,36.62c0,2.24,0,5.15,0,7.16" class="grey" /><path d="M59.81,24.25c2.94-0.62,21.5-3.17,23.01-3.06c2.24,0.16,3.33,2.15,3.13,4.02c-0.09,0.89-1.67,9.77-3.02,16.23c-0.39,1.86-0.76,3.52-1.06,4.73" class="grey" /><path d="M60.31,34.58c7.94-1.21,19.31-2.46,23.25-2.84" class="grey" /><path d="M59.97,46.37c5.15-0.62,15.28-1.87,21.13-2.25" class="grey" /><path d="M60.19,58.36c7.09-0.73,21.06-2.15,26.95-2.86c1.75-0.21,4.34-1.05,6.02-0.38" class="grey" /><path d="M59.99,70c10.63-1.5,27.13-3.67,32.17-4.15c3.28-0.31,4.97,0.89,4.38,4.57c-1.64,10.24-3.83,17.71-6.68,24c-2.86,6.33-5.97,1.04-7.3-0.24" class="grey" /><path d="M55.02,82.98c0.4,3.71-0.54,8.16-1.71,10.44" class="grey" /><path d="M62.32,79.74c1.84,1.84,3.58,6.67,4.04,9.37" class="grey" /><path d="M71.33,77.79c1.56,1.42,4.03,5.68,4.42,7.76" class="grey" /><path d="M79.75,75.75c1.86,1.3,4.8,5.21,5.27,7.12" class="grey" /><path d="M15.4,26.62c0,3.25-1.6,12.19-2.32,14.36" class="stroke" stroke-dasharray="150"><animate attributeName="stroke-dashoffset" from="150" to="0" dur="1.8s" begin="0.0s" fill="freeze" /></path><path d="M16.96,28.09c7.79-1.34,23.89-3.85,28.93-4.16c7.87-0.49,1.67,6-0.29,7.77" class="stroke" stroke-dasharray="150"><set attributeName="opacity" to="0" dur="0.9s" /><animate attributeName="stroke-dashoffset" from="150" to="0" dur="1.8s" begin="0.9s" fill="freeze" /></path><path d="M32.83,12.25c0.55,1.38,0.48,2.38,0.05,4.57C30.22,30.16,24.68,47.43,14,61.37" class="stroke" stroke-dasharray="150"><set attributeName="opacity" to="0" dur="2.0s" /><animate attributeName="stroke-dashoffset" from="150" to="0" dur="1.8s" begin="2.0s" fill="freeze" /></path><path d="M21.98,51.47c0.77,0.77,1,2.17,1,3.78c0,10.14-0.02,35.68-0.02,40.75" class="stroke" stroke-dasharray="150"><set attributeName="opacity" to="0" dur="3.3s" /><animate attributeName="stroke-dashoffset" from="150" to="0" dur="1.8s" begin="3.3s" fill="freeze" /></path><path d="M40.17,37.21c0.04,0.6-0.01,1.38-0.16,1.89c-0.92,3.26-1.59,4.28-3.71,8.25" class="stroke" stroke-dasharray="150"><set attributeName="opacity" to="0" dur="4.4s" /><animate attributeName="stroke-dashoffset" from="150" to="0" dur="1.8s" begin="4.4s" fill="freeze" /></path><path d="M22.73,51.45c4.24-0.61,15.61-1.82,22.28-2.6c2.39-0.28,4.17-0.5,4.82-0.62" class="stroke" stroke-dasharray="150"><set attributeName="opacity" to="0" dur="5.300000000000001s" /><animate attributeName="stroke-dashoffset" from="150" to="0" dur="1.8s" begin="5.300000000000001s" fill="freeze" /></path><path d="M36.46,51.25c0.9,0.9,1.05,2.13,1.05,3.99c0,8.38,0.05,23.97,0.05,30.63" class="stroke" stroke-dasharray="150"><set attributeName="opacity" to="0" dur="6.300000000000001s" /><animate attributeName="stroke-dashoffset" from="150" to="0" dur="1.8s" begin="6.300000000000001s" fill="freeze" /></path><path d="M23.75,62.8c3.85-0.49,13.12-1.41,19-2.03c2.4-0.25,4.24-0.46,4.91-0.57" class="stroke" stroke-dasharray="150"><set attributeName="opacity" to="0" dur="7.300000000000001s" /><animate attributeName="stroke-dashoffset" from="150" to="0" dur="1.8s" begin="7.300000000000001s" fill="freeze" /></path><path d="M23.09,74.47c4.05-0.41,13.41-1.62,19.42-2.41c2.49-0.33,4.4-0.58,5.12-0.67" class="stroke" stroke-dasharray="150"><set attributeName="opacity" to="0" dur="8.3s" /><animate attributeName="stroke-dashoffset" from="150" to="0" dur="1.8s" begin="8.3s" fill="freeze" /></path><path d="M23.34,88.93c4.06-0.59,14.21-1.81,20.68-2.63c2.69-0.34,4.75-0.62,5.48-0.75" class="stroke" stroke-dasharray="150"><set attributeName="opacity" to="0" dur="9.3s" /><animate attributeName="stroke-dashoffset" from="150" to="0" dur="1.8s" begin="9.3s" fill="freeze" /></path><path d="M69.29,11.41c0.06,0.82-0.06,1.63-0.35,2.4c-0.94,2.44-2.18,4.81-4.69,8.07" class="stroke" stroke-dasharray="150"><set attributeName="opacity" to="0" dur="10.3s" /><animate attributeName="stroke-dashoffset" from="150" to="0" dur="1.8s" begin="10.3s" fill="freeze" /></path><path d="M57.8,22.92c1.01,1.01,1.09,2.33,1.09,4.58c0,7.62,0.06,23.9,0.08,36.62c0,2.24,0,5.15,0,7.16" class="stroke" stroke-dasharray="150"><set attributeName="opacity" to="0" dur="11.200000000000001s" /><animate attributeName="stroke-dashoffset" from="150" to="0" dur="1.8s" begin="11.200000000000001s" fill="freeze" /></path><path d="M59.81,24.25c2.94-0.62,21.5-3.17,23.01-3.06c2.24,0.16,3.33,2.15,3.13,4.02c-0.09,0.89-1.67,9.77-3.02,16.23c-0.39,1.86-0.76,3.52-1.06,4.73" class="stroke" stroke-dasharray="150"><set attributeName="opacity" to="0" dur="12.4s" /><animate attributeName="stroke-dashoffset" from="150" to="0" dur="1.8s" begin="12.4s" fill="freeze" /></path><path d="M60.31,34.58c7.94-1.21,19.31-2.46,23.25-2.84" class="stroke" stroke-dasharray="150"><set attributeName="opacity" to="0" dur="13.700000000000001s" /><animate attributeName="stroke-dashoffset" from="150" to="0" dur="1.8s" begin="13.700000000000001s" fill="freeze" /></path><path d="M59.97,46.37c5.15-0.62,15.28-1.87,21.13-2.25" class="stroke" stroke-dasharray="150"><set attributeName="opacity" to="0" dur="14.700000000000001s" /><animate attributeName="stroke-dashoffset" from="150" to="0" dur="1.8s" begin="14.700000000000001s" fill="freeze" /></path><path d="M60.19,58.36c7.09-0.73,21.06-2.15,26.95-2.86c1.75-0.21,4.34-1.05,6.02-0.38" class="stroke" stroke-dasharray="150"><set attributeName="opacity" to="0" dur="15.700000000000001s" /><animate attributeName="stroke-dashoffset" from="150" to="0" dur="1.8s" begin="15.700000000000001s" fill="freeze" /></path><path d="M59.99,70c10.63-1.5,27.13-3.67,32.17-4.15c3.28-0.31,4.97,0.89,4.38,4.57c-1.64,10.24-3.83,17.71-6.68,24c-2.86,6.33-5.97,1.04-7.3-0.24" class="stroke" stroke-dasharray="150"><set attributeName="opacity" to="0" dur="16.700000000000003s" /><animate attributeName="stroke-dashoffset" from="150" to="0" dur="1.8s" begin="16.700000000000003s" fill="freeze" /></path><path d="M55.02,82.98c0.4,3.71-0.54,8.16-1.71,10.44" class="stroke" stroke-dasharray="150"><set attributeName="opacity" to="0" dur="18.400000000000002s" /><animate attributeName="stroke-dashoffset" from="150" to="0" dur="1.8s" begin="18.400000000000002s" fill="freeze" /></path><path d="M62.32,79.74c1.84,1.84,3.58,6.67,4.04,9.37" class="stroke" stroke-dasharray="150"><set attributeName="opacity" to="0" dur="19.3s" /><animate attributeName="stroke-dashoffset" from="150" to="0" dur="1.8s" begin="19.3s" fill="freeze" /></path><path d="M71.33,77.79c1.56,1.42,4.03,5.68,4.42,7.76" class="stroke" stroke-dasharray="150"><set attributeName="opacity" to="0" dur="20.2s" /><animate attributeName="stroke-dashoffset" from="150" to="0" dur="1.8s" begin="20.2s" fill="freeze" /></path><path d="M79.75,75.75c1.86,1.3,4.8,5.21,5.27,7.12" class="stroke" stroke-dasharray="150"><set attributeName="opacity" to="0" dur="21.099999999999998s" /><animate attributeName="stroke-dashoffset" from="150" to="0" dur="1.8s" begin="21.099999999999998s" fill="freeze" /></path><text x="90" y="120" id="reset-kvg-09db4">⟳</text><text x="70" y="120" id="pause-kvg-09db4">◼</text><script type="text/javascript"><![CDATA[function RecurringTimer(e,t){var n,r,i=t;this.pause=function(){window.clearTimeout(n);i-=new Date-r};var s=function(){r=new Date;n=window.setTimeout(function(){i=t;s();e()},i)};this.clear=function(){window.clearTimeout(n);i=t;n=window.setTimeout(function(){i=t;s();e()},i)};this.resume=s;this.resume()}function invoketimer(){timer=new RecurringTimer(function(){svg.setCurrentTime(0)},22999.999999999996)}var svg=document.getElementById("kvg-09db4");var pause=document.getElementById("pause-kvg-09db4");var reset=document.getElementById("reset-kvg-09db4");var timer;invoketimer();reset.onclick=function(){svg.setCurrentTime(0);timer.clear();svg.unpauseAnimations();pause.innerHTML = "◼";};pause.onclick=function(){if(svg.animationsPaused()){svg.unpauseAnimations();timer.resume();pause.innerHTML="◼"}else{svg.pauseAnimations();timer.pause();pause.innerHTML="▶"}}]]></script></svg>