<svg id="kvg-09df8" class="kanjivg" width="106" height="126" xmlns="http://www.w3.org/2000/svg" xmlns:xlink="http://www.w3.org/1999/xlink" xml:space="preserve" version="1.1" baseProfile="full"><defs><style type="text/css"><![CDATA[path.black{fill:none;stroke:black;stroke-width:5;stroke-linecap:round;stroke-linejoin:round;}path.grey{fill:none;stroke:#ddd;stroke-width:5;stroke-linecap:round;stroke-linejoin:round;}path.stroke{fill:none;stroke:black;stroke-width:5;stroke-linecap:round;stroke-linejoin:round;}rect{fill:none;stroke:#555;stroke-width:2;} text{font-size:16px;font-family:Segoe UI Symbol,Cambria Math,DejaVu Sans,Symbola,Quivira,STIX,Code2000;-webkit-touch-callout:none;cursor:pointer;-webkit-user-select:none;-khtml-user-select:none;-moz-user-select:none;-ms-user-select:none;user-select: none;}text:hover{color:#777;}#reset{font-weight:bold;}]]></style><marker id="markerStart" markerWidth="8" markerHeight="8" style="overflow:visible;"><circle cx="0" cy="0" r="1.5" style="stroke:none;fill:red;fill-opacity:0.5;"/></marker><marker id="markerEnd" style="overflow:visible;"><circle cx="0" cy="0" r="0.8" style="stroke:none;fill:blue;fill-opacity:0.5;"><animate attributeName="opacity" from="1" to="0" dur="3s" repeatCount="indefinite" /></circle></marker></defs><rect x="4" y="4" width="100" height="100" /><path d="M16.31,15.78c1.06,0.38,1.69,1.22,4.16,1.3c5.04,0.17,19.57-2.01,21.72-2.36s2.88,1.47,1.6,2.61c-2.19,1.96-9.49,5.34-10.85,6.74" class="grey" /><path d="M26.78,20.78c1.77,0.73,6.36,3.54,7.2,5.45" class="grey" /><path d="M11.44,31.01c0.6,0.22,2.88,0.83,4.79,0.61c9.77-1.12,27.24-3.96,33.18-4.16c6.09-0.2,2.59,3.8-1.71,7.69" class="grey" /><path d="M32.57,29.47c0.68,0.4,2.19,1.4,2.19,3.14c0,8.38,0.17,2.38,0.17,14.16c0,6.19-3.88,1.48-4.8,0.13" class="grey" /><path d="M31.14,29.63c0.05,0.4,0.23,1.08-0.1,1.6c-2.9,4.62-8.74,10.54-17.78,15.29" class="grey" /><path d="M14.8,53.52c0.59,0.78,0.78,1.75,0.78,3c0,1.42,0.2,36.53,0.2,38.88" class="grey" /><path d="M15.47,54.55c4.87-0.41,28.76-3.94,29.75-4.05c2.28-0.25,3.55,0.75,3.62,4.17c0.02,1.02,0.05,33.28-0.08,35.63c-0.41,7.7-3.92,2.34-5.7,0.91" class="grey" /><path d="M26.86,56c0.03,0.52,0.41,0.52,0.24,1.09c-0.91,2.97-3.03,6.8-6.72,10.48" class="grey" /><path d="M35.1,54.35c0.24,0.32,0.43,0.7,0.45,1.2c0.06,2.22-0.17,3.87-0.17,5.38c0,3.53,2.9,2.62,5.74,2.62c3,0,4.1-0.46,4.52-0.71" class="grey" /><path d="M25.05,71.57c0.19,0.2,0.38,0.37,0.46,0.62c0.65,1.99,1.21,8.46,1.66,12.03" class="grey" /><path d="M26.22,72.91c3.85-0.65,9.66-2.17,11.87-2.43c0.81-0.1,1.29,0.56,1.17,1.12c-0.53,2.56-0.96,5.86-1.62,8.83" class="grey" /><path d="M27.26,82.23c2.59-0.29,7.63-0.8,11.19-1.26" class="grey" /><path d="M72.54,10.66c0.02,0.34,0.04,0.88-0.04,1.36c-0.44,2.83-2.97,8.9-6.42,12.43" class="grey" /><path d="M59.3,24.92c0.33,0.43,0.6,1.02,0.6,1.73c0,7.23,0.54,31.01,0.33,42.38" class="grey" /><path d="M60.31,26.25c1.55,0,22.5-3.17,24.01-3.06c2.24,0.16,3.33,2.15,3.13,4.02c-0.12,1.15-1.64,10.19-3.08,18.96" class="grey" /><path d="M60.56,35.58c1.9,0.13,23.1-2.74,25.25-2.59" class="grey" /><path d="M60.47,46.62c3.88-0.14,19.05-2.48,23.88-2.5" class="grey" /><path d="M60.69,57.83c8.85-1,28.93-3.39,32.73-4.02c1.33-0.22,3.57-0.42,4.24-0.13" class="grey" /><path d="M60.24,69.25c9.1-1.63,27.13-3.42,32.17-3.9c3.28-0.31,4.97,0.89,4.38,4.57c-1.64,10.24-4.58,18.96-7.43,25.25c-2.86,6.33-6.47,1.04-7.8-0.24" class="grey" /><path d="M56.1,78.98c0.52,4.69-0.38,10.31-1.91,13.19" class="grey" /><path d="M64.07,78.74c1.27,1.99,2.47,7.2,2.79,10.12" class="grey" /><path d="M71.49,75.29c1.76,1.87,4.54,7.51,4.98,10.26" class="grey" /><path d="M82.16,73.48c1.36,1.62,3.52,6.51,3.86,8.89" class="grey" /><path d="M16.31,15.78c1.06,0.38,1.69,1.22,4.16,1.3c5.04,0.17,19.57-2.01,21.72-2.36s2.88,1.47,1.6,2.61c-2.19,1.96-9.49,5.34-10.85,6.74" class="stroke" stroke-dasharray="150"><animate attributeName="stroke-dashoffset" from="150" to="0" dur="1.8s" begin="0.0s" fill="freeze" /></path><path d="M26.78,20.78c1.77,0.73,6.36,3.54,7.2,5.45" class="stroke" stroke-dasharray="150"><set attributeName="opacity" to="0" dur="1.1s" /><animate attributeName="stroke-dashoffset" from="150" to="0" dur="1.8s" begin="1.1s" fill="freeze" /></path><path d="M11.44,31.01c0.6,0.22,2.88,0.83,4.79,0.61c9.77-1.12,27.24-3.96,33.18-4.16c6.09-0.2,2.59,3.8-1.71,7.69" class="stroke" stroke-dasharray="150"><set attributeName="opacity" to="0" dur="2.0s" /><animate attributeName="stroke-dashoffset" from="150" to="0" dur="1.8s" begin="2.0s" fill="freeze" /></path><path d="M32.57,29.47c0.68,0.4,2.19,1.4,2.19,3.14c0,8.38,0.17,2.38,0.17,14.16c0,6.19-3.88,1.48-4.8,0.13" class="stroke" stroke-dasharray="150"><set attributeName="opacity" to="0" dur="3.3s" /><animate attributeName="stroke-dashoffset" from="150" to="0" dur="1.8s" begin="3.3s" fill="freeze" /></path><path d="M31.14,29.63c0.05,0.4,0.23,1.08-0.1,1.6c-2.9,4.62-8.74,10.54-17.78,15.29" class="stroke" stroke-dasharray="150"><set attributeName="opacity" to="0" dur="4.3s" /><animate attributeName="stroke-dashoffset" from="150" to="0" dur="1.8s" begin="4.3s" fill="freeze" /></path><path d="M14.8,53.52c0.59,0.78,0.78,1.75,0.78,3c0,1.42,0.2,36.53,0.2,38.88" class="stroke" stroke-dasharray="150"><set attributeName="opacity" to="0" dur="5.3s" /><animate attributeName="stroke-dashoffset" from="150" to="0" dur="1.8s" begin="5.3s" fill="freeze" /></path><path d="M15.47,54.55c4.87-0.41,28.76-3.94,29.75-4.05c2.28-0.25,3.55,0.75,3.62,4.17c0.02,1.02,0.05,33.28-0.08,35.63c-0.41,7.7-3.92,2.34-5.7,0.91" class="stroke" stroke-dasharray="150"><set attributeName="opacity" to="0" dur="6.4s" /><animate attributeName="stroke-dashoffset" from="150" to="0" dur="1.8s" begin="6.4s" fill="freeze" /></path><path d="M26.86,56c0.03,0.52,0.41,0.52,0.24,1.09c-0.91,2.97-3.03,6.8-6.72,10.48" class="stroke" stroke-dasharray="150"><set attributeName="opacity" to="0" dur="8.1s" /><animate attributeName="stroke-dashoffset" from="150" to="0" dur="1.8s" begin="8.1s" fill="freeze" /></path><path d="M35.1,54.35c0.24,0.32,0.43,0.7,0.45,1.2c0.06,2.22-0.17,3.87-0.17,5.38c0,3.53,2.9,2.62,5.74,2.62c3,0,4.1-0.46,4.52-0.71" class="stroke" stroke-dasharray="150"><set attributeName="opacity" to="0" dur="9.0s" /><animate attributeName="stroke-dashoffset" from="150" to="0" dur="1.8s" begin="9.0s" fill="freeze" /></path><path d="M25.05,71.57c0.19,0.2,0.38,0.37,0.46,0.62c0.65,1.99,1.21,8.46,1.66,12.03" class="stroke" stroke-dasharray="150"><set attributeName="opacity" to="0" dur="9.9s" /><animate attributeName="stroke-dashoffset" from="150" to="0" dur="1.8s" begin="9.9s" fill="freeze" /></path><path d="M26.22,72.91c3.85-0.65,9.66-2.17,11.87-2.43c0.81-0.1,1.29,0.56,1.17,1.12c-0.53,2.56-0.96,5.86-1.62,8.83" class="stroke" stroke-dasharray="150"><set attributeName="opacity" to="0" dur="10.8s" /><animate attributeName="stroke-dashoffset" from="150" to="0" dur="1.8s" begin="10.8s" fill="freeze" /></path><path d="M27.26,82.23c2.59-0.29,7.63-0.8,11.19-1.26" class="stroke" stroke-dasharray="150"><set attributeName="opacity" to="0" dur="11.8s" /><animate attributeName="stroke-dashoffset" from="150" to="0" dur="1.8s" begin="11.8s" fill="freeze" /></path><path d="M72.54,10.66c0.02,0.34,0.04,0.88-0.04,1.36c-0.44,2.83-2.97,8.9-6.42,12.43" class="stroke" stroke-dasharray="150"><set attributeName="opacity" to="0" dur="12.700000000000001s" /><animate attributeName="stroke-dashoffset" from="150" to="0" dur="1.8s" begin="12.700000000000001s" fill="freeze" /></path><path d="M59.3,24.92c0.33,0.43,0.6,1.02,0.6,1.73c0,7.23,0.54,31.01,0.33,42.38" class="stroke" stroke-dasharray="150"><set attributeName="opacity" to="0" dur="13.600000000000001s" /><animate attributeName="stroke-dashoffset" from="150" to="0" dur="1.8s" begin="13.600000000000001s" fill="freeze" /></path><path d="M60.31,26.25c1.55,0,22.5-3.17,24.01-3.06c2.24,0.16,3.33,2.15,3.13,4.02c-0.12,1.15-1.64,10.19-3.08,18.96" class="stroke" stroke-dasharray="150"><set attributeName="opacity" to="0" dur="14.700000000000001s" /><animate attributeName="stroke-dashoffset" from="150" to="0" dur="1.8s" begin="14.700000000000001s" fill="freeze" /></path><path d="M60.56,35.58c1.9,0.13,23.1-2.74,25.25-2.59" class="stroke" stroke-dasharray="150"><set attributeName="opacity" to="0" dur="15.9s" /><animate attributeName="stroke-dashoffset" from="150" to="0" dur="1.8s" begin="15.9s" fill="freeze" /></path><path d="M60.47,46.62c3.88-0.14,19.05-2.48,23.88-2.5" class="stroke" stroke-dasharray="150"><set attributeName="opacity" to="0" dur="16.9s" /><animate attributeName="stroke-dashoffset" from="150" to="0" dur="1.8s" begin="16.9s" fill="freeze" /></path><path d="M60.69,57.83c8.85-1,28.93-3.39,32.73-4.02c1.33-0.22,3.57-0.42,4.24-0.13" class="stroke" stroke-dasharray="150"><set attributeName="opacity" to="0" dur="17.9s" /><animate attributeName="stroke-dashoffset" from="150" to="0" dur="1.8s" begin="17.9s" fill="freeze" /></path><path d="M60.24,69.25c9.1-1.63,27.13-3.42,32.17-3.9c3.28-0.31,4.97,0.89,4.38,4.57c-1.64,10.24-4.58,18.96-7.43,25.25c-2.86,6.33-6.47,1.04-7.8-0.24" class="stroke" stroke-dasharray="150"><set attributeName="opacity" to="0" dur="18.9s" /><animate attributeName="stroke-dashoffset" from="150" to="0" dur="1.8s" begin="18.9s" fill="freeze" /></path><path d="M56.1,78.98c0.52,4.69-0.38,10.31-1.91,13.19" class="stroke" stroke-dasharray="150"><set attributeName="opacity" to="0" dur="20.599999999999998s" /><animate attributeName="stroke-dashoffset" from="150" to="0" dur="1.8s" begin="20.599999999999998s" fill="freeze" /></path><path d="M64.07,78.74c1.27,1.99,2.47,7.2,2.79,10.12" class="stroke" stroke-dasharray="150"><set attributeName="opacity" to="0" dur="21.499999999999996s" /><animate attributeName="stroke-dashoffset" from="150" to="0" dur="1.8s" begin="21.499999999999996s" fill="freeze" /></path><path d="M71.49,75.29c1.76,1.87,4.54,7.51,4.98,10.26" class="stroke" stroke-dasharray="150"><set attributeName="opacity" to="0" dur="22.399999999999995s" /><animate attributeName="stroke-dashoffset" from="150" to="0" dur="1.8s" begin="22.399999999999995s" fill="freeze" /></path><path d="M82.16,73.48c1.36,1.62,3.52,6.51,3.86,8.89" class="stroke" stroke-dasharray="150"><set attributeName="opacity" to="0" dur="23.299999999999994s" /><animate attributeName="stroke-dashoffset" from="150" to="0" dur="1.8s" begin="23.299999999999994s" fill="freeze" /></path><text x="90" y="120" id="reset-kvg-09df8">⟳</text><text x="70" y="120" id="pause-kvg-09df8">◼</text><script type="text/javascript"><![CDATA[function RecurringTimer(e,t){var n,r,i=t;this.pause=function(){window.clearTimeout(n);i-=new Date-r};var s=function(){r=new Date;n=window.setTimeout(function(){i=t;s();e()},i)};this.clear=function(){window.clearTimeout(n);i=t;n=window.setTimeout(function(){i=t;s();e()},i)};this.resume=s;this.resume()}function invoketimer(){timer=new RecurringTimer(function(){svg.setCurrentTime(0)},25199.999999999993)}var svg=document.getElementById("kvg-09df8");var pause=document.getElementById("pause-kvg-09df8");var reset=document.getElementById("reset-kvg-09df8");var timer;invoketimer();reset.onclick=function(){svg.setCurrentTime(0);timer.clear();svg.unpauseAnimations();pause.innerHTML = "◼";};pause.onclick=function(){if(svg.animationsPaused()){svg.unpauseAnimations();timer.resume();pause.innerHTML="◼"}else{svg.pauseAnimations();timer.pause();pause.innerHTML="▶"}}]]></script></svg>