<svg id="kvg-09ec3" class="kanjivg" width="106" height="126" xmlns="http://www.w3.org/2000/svg" xmlns:xlink="http://www.w3.org/1999/xlink" xml:space="preserve" version="1.1" baseProfile="full"><defs><style type="text/css"><![CDATA[path.black{fill:none;stroke:black;stroke-width:5;stroke-linecap:round;stroke-linejoin:round;}path.grey{fill:none;stroke:#ddd;stroke-width:5;stroke-linecap:round;stroke-linejoin:round;}path.stroke{fill:none;stroke:black;stroke-width:5;stroke-linecap:round;stroke-linejoin:round;}rect{fill:none;stroke:#555;stroke-width:2;} text{font-size:16px;font-family:Segoe UI Symbol,Cambria Math,DejaVu Sans,Symbola,Quivira,STIX,Code2000;-webkit-touch-callout:none;cursor:pointer;-webkit-user-select:none;-khtml-user-select:none;-moz-user-select:none;-ms-user-select:none;user-select: none;}text:hover{color:#777;}#reset{font-weight:bold;}]]></style><marker id="markerStart" markerWidth="8" markerHeight="8" style="overflow:visible;"><circle cx="0" cy="0" r="1.5" style="stroke:none;fill:red;fill-opacity:0.5;"/></marker><marker id="markerEnd" style="overflow:visible;"><circle cx="0" cy="0" r="0.8" style="stroke:none;fill:blue;fill-opacity:0.5;"><animate attributeName="opacity" from="1" to="0" dur="3s" repeatCount="indefinite" /></circle></marker></defs><rect x="4" y="4" width="100" height="100" /><path d="M18.88,19.92c3.32,0.99,5.94,1.11,9.38,0.87c14.44-0.98,31.87-3.42,50.99-4.39c3.44-0.18,6.47-0.31,9.88,0.3" class="grey" /><path d="M39.78,5.22c1.43,1.43,1.97,2.78,2.16,4.5c0.5,4.35,1.1,10.03,1.83,16.9c0.23,2.17,0.47,4.47,0.73,6.88" class="grey" /><path d="M66.6,4.13C67.38,5.5,67.5,7,67.24,8.88c-0.58,4.2-1.74,11.37-3.08,19.66" class="grey" /><path d="M45.23,31.27c4.45-0.63,10.75-1.26,15.53-1.57c1.96-0.13,3.66-0.2,4.87-0.2" class="grey" /><path d="M8.88,43.27c5.12,1.85,8.95,2.07,14,1.31c17-2.58,41.89-5.29,64-5.36c4.66-0.02,8.94,0.3,13.5,1.1" class="grey" /><path d="M26.34,52.84c1.16,1.16,1.34,2.14,1.64,3.35c1.1,4.51,2.75,11.17,4.41,18.18c0.44,1.84,0.87,3.7,1.3,5.55" class="grey" /><path d="M28.98,56.17C42.5,55,67.65,51.29,76.42,51.16c3.65-0.06,5.1,1.61,4.43,4.99c-0.7,3.55-2.34,9.66-4.12,16c-0.57,2.03-1.16,4.09-1.74,6.1" class="grey" /><path d="M52.41,44.03c1.03,1.03,1.46,2.22,1.46,3.6c0,8.19-0.07,25.18-0.07,27.37" class="grey" /><path d="M31.83,66.96c11.67-2.21,36.42-4.33,46.71-4.59" class="grey" /><path d="M34.38,77.82c13.25-2.19,26.07-3.32,40.73-3.91" class="grey" /><path d="M40.99,83.25c0,1.5-1.08,2.77-2.21,3.7c-3.77,3.13-11.82,7.32-22.04,10.55" class="grey" /><path d="M64.5,81.25c8.21,3.09,21.2,12.73,23.25,17.54" class="grey" /><path d="M18.88,19.92c3.32,0.99,5.94,1.11,9.38,0.87c14.44-0.98,31.87-3.42,50.99-4.39c3.44-0.18,6.47-0.31,9.88,0.3" class="stroke" stroke-dasharray="150"><animate attributeName="stroke-dashoffset" from="150" to="0" dur="1.8s" begin="0.0s" fill="freeze" /></path><path d="M39.78,5.22c1.43,1.43,1.97,2.78,2.16,4.5c0.5,4.35,1.1,10.03,1.83,16.9c0.23,2.17,0.47,4.47,0.73,6.88" class="stroke" stroke-dasharray="150"><set attributeName="opacity" to="0" dur="1.7s" /><animate attributeName="stroke-dashoffset" from="150" to="0" dur="1.8s" begin="1.7s" fill="freeze" /></path><path d="M66.6,4.13C67.38,5.5,67.5,7,67.24,8.88c-0.58,4.2-1.74,11.37-3.08,19.66" class="stroke" stroke-dasharray="150"><set attributeName="opacity" to="0" dur="2.7s" /><animate attributeName="stroke-dashoffset" from="150" to="0" dur="1.8s" begin="2.7s" fill="freeze" /></path><path d="M45.23,31.27c4.45-0.63,10.75-1.26,15.53-1.57c1.96-0.13,3.66-0.2,4.87-0.2" class="stroke" stroke-dasharray="150"><set attributeName="opacity" to="0" dur="3.7s" /><animate attributeName="stroke-dashoffset" from="150" to="0" dur="1.8s" begin="3.7s" fill="freeze" /></path><path d="M8.88,43.27c5.12,1.85,8.95,2.07,14,1.31c17-2.58,41.89-5.29,64-5.36c4.66-0.02,8.94,0.3,13.5,1.1" class="stroke" stroke-dasharray="150"><set attributeName="opacity" to="0" dur="4.7s" /><animate attributeName="stroke-dashoffset" from="150" to="0" dur="1.8s" begin="4.7s" fill="freeze" /></path><path d="M26.34,52.84c1.16,1.16,1.34,2.14,1.64,3.35c1.1,4.51,2.75,11.17,4.41,18.18c0.44,1.84,0.87,3.7,1.3,5.55" class="stroke" stroke-dasharray="150"><set attributeName="opacity" to="0" dur="6.5s" /><animate attributeName="stroke-dashoffset" from="150" to="0" dur="1.8s" begin="6.5s" fill="freeze" /></path><path d="M28.98,56.17C42.5,55,67.65,51.29,76.42,51.16c3.65-0.06,5.1,1.61,4.43,4.99c-0.7,3.55-2.34,9.66-4.12,16c-0.57,2.03-1.16,4.09-1.74,6.1" class="stroke" stroke-dasharray="150"><set attributeName="opacity" to="0" dur="7.5s" /><animate attributeName="stroke-dashoffset" from="150" to="0" dur="1.8s" begin="7.5s" fill="freeze" /></path><path d="M52.41,44.03c1.03,1.03,1.46,2.22,1.46,3.6c0,8.19-0.07,25.18-0.07,27.37" class="stroke" stroke-dasharray="150"><set attributeName="opacity" to="0" dur="9.2s" /><animate attributeName="stroke-dashoffset" from="150" to="0" dur="1.8s" begin="9.2s" fill="freeze" /></path><path d="M31.83,66.96c11.67-2.21,36.42-4.33,46.71-4.59" class="stroke" stroke-dasharray="150"><set attributeName="opacity" to="0" dur="10.2s" /><animate attributeName="stroke-dashoffset" from="150" to="0" dur="1.8s" begin="10.2s" fill="freeze" /></path><path d="M34.38,77.82c13.25-2.19,26.07-3.32,40.73-3.91" class="stroke" stroke-dasharray="150"><set attributeName="opacity" to="0" dur="11.399999999999999s" /><animate attributeName="stroke-dashoffset" from="150" to="0" dur="1.8s" begin="11.399999999999999s" fill="freeze" /></path><path d="M40.99,83.25c0,1.5-1.08,2.77-2.21,3.7c-3.77,3.13-11.82,7.32-22.04,10.55" class="stroke" stroke-dasharray="150"><set attributeName="opacity" to="0" dur="12.499999999999998s" /><animate attributeName="stroke-dashoffset" from="150" to="0" dur="1.8s" begin="12.499999999999998s" fill="freeze" /></path><path d="M64.5,81.25c8.21,3.09,21.2,12.73,23.25,17.54" class="stroke" stroke-dasharray="150"><set attributeName="opacity" to="0" dur="13.499999999999998s" /><animate attributeName="stroke-dashoffset" from="150" to="0" dur="1.8s" begin="13.499999999999998s" fill="freeze" /></path><text x="90" y="120" id="reset-kvg-09ec3">⟳</text><text x="70" y="120" id="pause-kvg-09ec3">◼</text><script type="text/javascript"><![CDATA[function RecurringTimer(e,t){var n,r,i=t;this.pause=function(){window.clearTimeout(n);i-=new Date-r};var s=function(){r=new Date;n=window.setTimeout(function(){i=t;s();e()},i)};this.clear=function(){window.clearTimeout(n);i=t;n=window.setTimeout(function(){i=t;s();e()},i)};this.resume=s;this.resume()}function invoketimer(){timer=new RecurringTimer(function(){svg.setCurrentTime(0)},15499.999999999998)}var svg=document.getElementById("kvg-09ec3");var pause=document.getElementById("pause-kvg-09ec3");var reset=document.getElementById("reset-kvg-09ec3");var timer;invoketimer();reset.onclick=function(){svg.setCurrentTime(0);timer.clear();svg.unpauseAnimations();pause.innerHTML = "◼";};pause.onclick=function(){if(svg.animationsPaused()){svg.unpauseAnimations();timer.resume();pause.innerHTML="◼"}else{svg.pauseAnimations();timer.pause();pause.innerHTML="▶"}}]]></script></svg>