<svg id="kvg-0ff15" class="kanjivg" width="106" height="126" xmlns="http://www.w3.org/2000/svg" xmlns:xlink="http://www.w3.org/1999/xlink" xml:space="preserve" version="1.1" baseProfile="full"><defs><style type="text/css"><![CDATA[path.black{fill:none;stroke:black;stroke-width:5;stroke-linecap:round;stroke-linejoin:round;}path.grey{fill:none;stroke:#ddd;stroke-width:5;stroke-linecap:round;stroke-linejoin:round;}path.stroke{fill:none;stroke:black;stroke-width:5;stroke-linecap:round;stroke-linejoin:round;}rect{fill:none;stroke:#555;stroke-width:2;} text{font-size:16px;font-family:Segoe UI Symbol,Cambria Math,DejaVu Sans,Symbola,Quivira,STIX,Code2000;-webkit-touch-callout:none;cursor:pointer;-webkit-user-select:none;-khtml-user-select:none;-moz-user-select:none;-ms-user-select:none;user-select: none;}text:hover{color:#777;}#reset{font-weight:bold;}]]></style><marker id="markerStart" markerWidth="8" markerHeight="8" style="overflow:visible;"><circle cx="0" cy="0" r="1.5" style="stroke:none;fill:red;fill-opacity:0.5;"/></marker><marker id="markerEnd" style="overflow:visible;"><circle cx="0" cy="0" r="0.8" style="stroke:none;fill:blue;fill-opacity:0.5;"><animate attributeName="opacity" from="1" to="0" dur="3s" repeatCount="indefinite" /></circle></marker></defs><rect x="4" y="4" width="100" height="100" /><path d="M34.49,16.94c-0.29,7.51-1.66,30.19-2.1,38.57c8.67-7.66,15.75-12.27,27.21-12.27c13.69,0,24.45,6.76,24.45,23.22c0,16.96-13.49,25.67-26.64,25.67c-12.01,0-22.99-3.94-28.91-12.1" class="grey" /><path d="M34.49,16.94c4.62,0,39.08,0,45.58,0" class="grey" /><path d="M34.49,16.94c-0.29,7.51-1.66,30.19-2.1,38.57c8.67-7.66,15.75-12.27,27.21-12.27c13.69,0,24.45,6.76,24.45,23.22c0,16.96-13.49,25.67-26.64,25.67c-12.01,0-22.99-3.94-28.91-12.1" class="stroke" stroke-dasharray="200"><animate attributeName="stroke-dashoffset" from="200" to="0" dur="1.8s" begin="0.0s" fill="freeze" /></path><path d="M34.49,16.94c4.62,0,39.08,0,45.58,0" class="stroke" stroke-dasharray="150"><set attributeName="opacity" to="0" dur="2.0s" /><animate attributeName="stroke-dashoffset" from="150" to="0" dur="1.8s" begin="2.0s" fill="freeze" /></path><text x="90" y="120" id="reset-kvg-0ff15">⟳</text><text x="70" y="120" id="pause-kvg-0ff15">◼</text><script type="text/javascript"><![CDATA[function RecurringTimer(e,t){var n,r,i=t;this.pause=function(){window.clearTimeout(n);i-=new Date-r};var s=function(){r=new Date;n=window.setTimeout(function(){i=t;s();e()},i)};this.clear=function(){window.clearTimeout(n);i=t;n=window.setTimeout(function(){i=t;s();e()},i)};this.resume=s;this.resume()}function invoketimer(){timer=new RecurringTimer(function(){svg.setCurrentTime(0)},4200.0)}var svg=document.getElementById("kvg-0ff15");var pause=document.getElementById("pause-kvg-0ff15");var reset=document.getElementById("reset-kvg-0ff15");var timer;invoketimer();reset.onclick=function(){svg.setCurrentTime(0);timer.clear();svg.unpauseAnimations();pause.innerHTML = "◼";};pause.onclick=function(){if(svg.animationsPaused()){svg.unpauseAnimations();timer.resume();pause.innerHTML="◼"}else{svg.pauseAnimations();timer.pause();pause.innerHTML="▶"}}]]></script></svg>